<?xml version='1.0' encoding='UTF-8' standalone='no'?>
<!-- Created with Fritzing (http://www.fritzing.org/) -->
<svg xmlns="http://www.w3.org/2000/svg" width="0.787402in" x="0in" version="1.2" y="0in" height="0.787402in" viewBox="0 0 56.6929 56.6929" baseProfile="tiny">
 <desc >Fritzing footprint generated by brd2svg</desc>
 <g  id="silkscreen" stroke-width="0">
  <path  fill="none" stroke="white" stroke-width="0.576" d="M0.288,28.3465a28.0585,28.0585,0,1,0,56.1169,0,28.0585,28.0585,0,1,0,-56.1169,0zM16.4454,34.7244a0.845856,0.845856,0,1,1,1.69172,0,0.845856,0.845856,0,1,1,-1.69172,0zM33.8785,17.2913a0.845856,0.845856,0,1,1,1.69172,0,0.845856,0.845856,0,1,1,-1.69172,0z"/>
  <g  stroke-width="0">
   <title >element:B1</title>
   <g  stroke-width="0">
    <title >package:BUZZER-CCV</title>
    <path  fill="none" stroke="white" stroke-width="0.576" d="M31.9465,16.1065A12.6771,12.6771,0,0,0,16.4409,23.811"/>
    <path  fill="none" stroke="white" stroke-width="0.576" d="M40.2265,23.6665A12.7993,12.7993,0,0,0,36.9865,18.9865"/>
    <path  fill="none" stroke="white" stroke-width="0.576" d="M35.7165,38.8346A13.7404,13.7404,0,0,0,40.252,32.8819"/>
    <path  fill="none" stroke="white" stroke-width="0.576" d="M18.9865,36.9865A11.2519,11.2519,0,0,0,20.9764,38.5512"/>
    <line  stroke="white" stroke-linecap="round" y1="45.3543" x1="20.9764" y2="45.3543" stroke-width="0.576" x2="35.7165"/>
    <line  stroke="white" stroke-linecap="round" y1="45.3543" x1="35.7165" y2="38.8346" stroke-width="0.576" x2="35.7165"/>
    <line  stroke="white" stroke-linecap="round" y1="45.3543" x1="20.9764" y2="38.5512" stroke-width="0.576" x2="20.9764"/>
   </g>
  </g>
  <g  stroke-width="0">
   <title >element:U$2</title>
   <g  stroke-width="0">
    <title >package:LOGO-LILYPAD</title>
   </g>
  </g>
 </g>
 <g  id="copper1" stroke-width="0"/>
 <g  id="copper0" stroke-width="0"/>
</svg>
