<?xml version="1.0" encoding="UTF-8" standalone="no"?>
<!-- Created with Inkscape (http://www.inkscape.org/) -->

<svg
   xmlns:svg="http://www.w3.org/2000/svg"
   xmlns="http://www.w3.org/2000/svg"
   version="1.1"
   width="25.200001"
   height="18"
   id="svg2">
  <defs
     id="defs4" />
  <g
     transform="translate(1e-7,5.4000001)"
     id="copper0">
    <g
       id="copper1">
      <path
         d="m 5.8499999,3.5999999 a 2.25,2.25 0 1 1 -4.5,0 2.25,2.25 0 1 1 4.5,0 z"
         id="connector0pin"
         style="fill:none;stroke:#f7bd13;stroke-width:1.79999995;stroke-linecap:round;stroke-linejoin:round;stroke-miterlimit:4;stroke-opacity:1;stroke-dasharray:none" />
      <path
         d="m 23.85,3.5999999 a 2.25,2.25 0 1 1 -4.5,0 2.25,2.25 0 1 1 4.5,0 z"
         id="connector1pin"
         style="fill:none;stroke:#f7bd13;stroke-width:1.79999995;stroke-linecap:round;stroke-linejoin:round;stroke-miterlimit:4;stroke-opacity:1;stroke-dasharray:none" />
    </g>
  </g>
  <g
     id="g3623">
    <g
       id="silkscreen">
      <path
         d="M 2.1795934,0.09490992 A 11.25,11.25 0 0 1 20.31867,0.09254404"
         transform="translate(1.35,4.95)"
         id="path3599"
         style="fill:none;stroke:#ffffff;stroke-width:0.72000003;stroke-linecap:round;stroke-linejoin:round;stroke-miterlimit:4;stroke-opacity:1;stroke-dasharray:none" />
      <path
         d="M 2.1795934,0.09490992 A 11.25,11.25 0 0 1 20.31867,0.09254404"
         transform="matrix(-1,0,0,-1,23.85,13.05)"
         id="path3599-1"
         style="fill:none;stroke:#ffffff;stroke-width:0.72000003;stroke-linecap:round;stroke-linejoin:round;stroke-miterlimit:4;stroke-opacity:1;stroke-dasharray:none" />
    </g>
  </g>
</svg>
