<?xml version="1.0" encoding="UTF-8" standalone="no"?>
<!-- Created with Inkscape (http://www.inkscape.org/) -->

<svg
   xmlns:svg="http://www.w3.org/2000/svg"
   xmlns="http://www.w3.org/2000/svg"
   version="1.1"
   width="25.200001"
   height="18"
   id="svg2">
  <defs
     id="defs4" />
  <g
     transform="translate(1e-7,5.4)"
     id="copper0">
    <g
       id="copper1">
      <path
         d="m 5.8499999,3.5999999 a 2.25,2.25 0 1 1 -4.5,0 2.25,2.25 0 1 1 4.5,0 z"
         id="connector0pin"
         style="fill:none;stroke:#f7bd13;stroke-width:1.79999995;stroke-linecap:round;stroke-linejoin:round;stroke-miterlimit:4;stroke-opacity:1;stroke-dasharray:none" />
      <path
         d="m 23.85,3.5999999 a 2.25,2.25 0 1 1 -4.5,0 2.25,2.25 0 1 1 4.5,0 z"
         id="connector1pin"
         style="fill:none;stroke:#f7bd13;stroke-width:1.79999995;stroke-linecap:round;stroke-linejoin:round;stroke-miterlimit:4;stroke-opacity:1;stroke-dasharray:none" />
    </g>
  </g>
  <g
     id="silkscreen">
    <path
       d="M 3.5295934,5.0449099 A 11.25,11.25 0 0 1 21.66867,5.042544"
       id="path3599"
       style="fill:none;stroke:#ffffff;stroke-width:0.72000003;stroke-linecap:round;stroke-linejoin:round;stroke-miterlimit:4;stroke-opacity:1;stroke-dasharray:none" />
    <path
       d="M 21.670407,12.95509 A 11.25,11.25 0 0 1 3.53133,12.957456"
       id="path3599-1"
       style="fill:none;stroke:#ffffff;stroke-width:0.72000003;stroke-linecap:round;stroke-linejoin:round;stroke-miterlimit:4;stroke-opacity:1;stroke-dasharray:none" />
    <path
       d="m 16.65,1.35 0,5.4"
       id="path2826"
       style="fill:none;stroke:#ffffff;stroke-width:0.72000003;stroke-linecap:round;stroke-linejoin:miter;stroke-miterlimit:4;stroke-opacity:1;stroke-dasharray:none" />
    <path
       d="m 16.65,11.25 0,5.4"
       id="path3600"
       style="fill:none;stroke:#ffffff;stroke-width:0.72000003;stroke-linecap:round;stroke-linejoin:miter;stroke-miterlimit:4;stroke-opacity:1;stroke-dasharray:none" />
  </g>
</svg>
