<?xml version='1.0' encoding='UTF-8'?>
<svg width="0.6325in" version="1.2" xmlns="http://www.w3.org/2000/svg" height="0.445in" viewBox="0 0 63250 44500" baseProfile="tiny" >
 <desc>Fritzing footprint SVG</desc>
 <g id="silkscreen" >
  <line stroke="white" y1="35000" x1="30500" y2="35000" stroke-width="1000" x2="1000" />
  <line stroke="white" y1="35000" x1="1000" y2="1000" stroke-width="1000" x2="1000" />
  <line stroke="white" y1="1000" x1="1000" y2="1000" stroke-width="1000" x2="57000" />
  <line stroke="white" y1="1000" x1="57000" y2="6000" stroke-width="1000" x2="57000" />
  <line stroke="white" y1="35000" x1="53000" y2="35000" stroke-width="1000" x2="57000" />
  <line stroke="white" y1="35000" x1="57000" y2="30000" stroke-width="1000" x2="57000" />
  <line stroke="white" y1="35000" x1="1000" y2="1000" stroke-width="1000" x2="1000" />
  <line stroke="white" y1="35000" x1="1500" y2="1000" stroke-width="1000" x2="1500" />
  <line stroke="white" y1="35000" x1="2000" y2="1000" stroke-width="1000" x2="2000" />
  <line stroke="white" y1="35000" x1="2500" y2="1000" stroke-width="1000" x2="2500" />
  <line stroke="white" y1="35000" x1="3000" y2="1000" stroke-width="1000" x2="3000" />
  <line stroke="white" y1="35000" x1="3500" y2="1000" stroke-width="1000" x2="3500" />
  <line stroke="white" y1="35000" x1="4000" y2="1000" stroke-width="1000" x2="4000" />
  <line stroke="white" y1="35000" x1="4500" y2="1000" stroke-width="1000" x2="4500" />
  <line stroke="white" y1="35000" x1="14000" y2="1000" stroke-width="1000" x2="14000" />
  <line stroke="white" y1="35000" x1="13500" y2="1000" stroke-width="1000" x2="13500" />
  <line stroke="white" y1="35000" x1="13000" y2="1000" stroke-width="1000" x2="13000" />
  <line stroke="white" y1="35000" x1="12500" y2="1000" stroke-width="1000" x2="12500" />
  <line stroke="white" y1="35000" x1="12000" y2="1000" stroke-width="1000" x2="12000" />
  <line stroke="white" y1="35000" x1="11500" y2="1000" stroke-width="1000" x2="11500" />
  <line stroke="white" y1="35000" x1="11000" y2="1000" stroke-width="1000" x2="11000" />
  <line stroke="white" y1="35000" x1="10500" y2="1000" stroke-width="1000" x2="10500" />
 </g>
 <g id="copper0" >
  <circle fill="none" cx="54500" cy="18000" stroke="rgb(255, 191, 0)" r="5300" id="connector0pin" stroke-width="2000" />
  <circle fill="none" cx="30500" cy="18000" stroke="rgb(255, 191, 0)" r="5300" id="connector1pin" stroke-width="2000" />
  <circle fill="none" cx="42500" cy="37000" stroke="rgb(255, 191, 0)" r="5300" id="connector2pin" stroke-width="2000" />
 </g>
 <g id="keepout" />
 <g id="soldermask" />
 <g id="outline" />
</svg>
