<?xml version='1.0' encoding='UTF-8'?>
<svg width="0.8074in" version="1.2" xmlns="http://www.w3.org/2000/svg" height="0.65379in" viewBox="0 0 80740 65379" baseProfile="tiny" >
 <desc>Fritzing footprint SVG</desc>
 <g id="silkscreen" >
  <line stroke="white" y1="2175" x1="14780" y2="2175" stroke-width="1000" x2="1000" />
  <line stroke="white" y1="2175" x1="1000" y2="64379" stroke-width="1000" x2="1000" />
  <line stroke="white" y1="64379" x1="1000" y2="64379" stroke-width="1000" x2="79740" />
  <line stroke="white" y1="64379" x1="79740" y2="2175" stroke-width="1000" x2="79740" />
  <line stroke="white" y1="2175" x1="79740" y2="2175" stroke-width="1000" x2="65960" />
  <line stroke="white" y1="2175" x1="26591" y2="2175" stroke-width="1000" x2="54149" />
  <line stroke="white" y1="63879" x1="1500" y2="63879" stroke-width="1500" x2="79240" />
  <line stroke="white" y1="63879" x1="79240" y2="62879" stroke-width="1500" x2="79240" />
  <line stroke="white" y1="62879" x1="79240" y2="62879" stroke-width="1500" x2="1500" />
  <line stroke="white" y1="62879" x1="1500" y2="61879" stroke-width="1500" x2="1500" />
  <line stroke="white" y1="61879" x1="1500" y2="61879" stroke-width="1500" x2="79240" />
  <line stroke="white" y1="61879" x1="79240" y2="60879" stroke-width="1500" x2="79240" />
  <line stroke="white" y1="60879" x1="79240" y2="60879" stroke-width="1500" x2="1500" />
  <line stroke="white" y1="60879" x1="1500" y2="59879" stroke-width="1500" x2="1500" />
  <line stroke="white" y1="59879" x1="1500" y2="59879" stroke-width="1500" x2="79240" />
  <line stroke="white" y1="59879" x1="79240" y2="58879" stroke-width="1500" x2="79240" />
  <line stroke="white" y1="58879" x1="79240" y2="58879" stroke-width="1500" x2="1500" />
 </g>
 <g id="copper0" >
  <circle fill="none" cx="10843" cy="13592" stroke="rgb(255, 191, 0)" r="2750" id="connector1pin" stroke-width="2000" />
  <circle fill="none" cx="20685" cy="3750" stroke="rgb(255, 191, 0)" r="2750" id="connector2pin" stroke-width="2000" />
  <circle fill="none" cx="40370" cy="13592" stroke="rgb(255, 191, 0)" r="2750" id="connector3pin" stroke-width="2000" />
  <circle fill="none" cx="60055" cy="3750" stroke="rgb(255, 191, 0)" r="2750" id="connector4pin" stroke-width="2000" />
  <circle fill="none" cx="69897" cy="13592" stroke="rgb(255, 191, 0)" r="2750" id="connector5pin" stroke-width="2000" />
  <circle fill="none" cx="30528" cy="52962" stroke="rgb(255, 191, 0)" r="2750" id="connector6pin" stroke-width="2000" />
  <circle fill="none" cx="69897" cy="33277" stroke="rgb(255, 191, 0)" r="5300" id="connector7pin" stroke-width="2000" />
  <circle fill="none" cx="10843" cy="33277" stroke="rgb(255, 191, 0)" r="5300" id="connector8pin" stroke-width="2000" />
  <circle fill="none" cx="50212" cy="52962" stroke="rgb(255, 191, 0)" r="2750" id="connector9pin" stroke-width="2000" />
 </g>
 <g id="keepout" />
 <g id="soldermask" />
 <g id="outline" />
</svg>
