<?xml version="1.0" encoding="UTF-8"?><svg baseProfile="tiny" height="1.02in" version="1.2" viewBox="0 0 720.0 1020" width="0.72in" xmlns="http://www.w3.org/2000/svg">
 <desc>Fritzing footprint SVG</desc>
 <g id="silkscreen">
  <line stroke="white" stroke-width="10" x1="10" x2="10" y1="10" y2="1010"/>
  <line stroke="white" stroke-width="10" x1="10" x2="710.0" y1="1010" y2="1010"/>
  <line stroke="white" stroke-width="10" x1="710.0" x2="710.0" y1="1010" y2="10"/>
  <line stroke="white" stroke-width="10" x1="10" x2="310.0" y1="10" y2="10"/>
  <line stroke="white" stroke-width="10" x1="410.0" x2="710.0" y1="10" y2="10"/>
 </g>
 <g id="copper1"><g id="copper0">
  <rect fill="none" height="55" stroke="rgb(255, 191, 0)" stroke-width="20" width="55" x="32.5" y="32.5"/>
   <circle cx="60" cy="60" fill="none" id="connector0pin" r="27.5" stroke="rgb(255, 191, 0)" stroke-width="20"/>
   <circle cx="660.0" cy="60" fill="none" id="connector19pin" r="27.5" stroke="rgb(255, 191, 0)" stroke-width="20"/>
   <circle cx="60" cy="160" fill="none" id="connector1pin" r="27.5" stroke="rgb(255, 191, 0)" stroke-width="20"/>
   <circle cx="660.0" cy="160" fill="none" id="connector18pin" r="27.5" stroke="rgb(255, 191, 0)" stroke-width="20"/>
   <circle cx="60" cy="260" fill="none" id="connector2pin" r="27.5" stroke="rgb(255, 191, 0)" stroke-width="20"/>
   <circle cx="660.0" cy="260" fill="none" id="connector17pin" r="27.5" stroke="rgb(255, 191, 0)" stroke-width="20"/>
   <circle cx="60" cy="360" fill="none" id="connector3pin" r="27.5" stroke="rgb(255, 191, 0)" stroke-width="20"/>
   <circle cx="660.0" cy="360" fill="none" id="connector16pin" r="27.5" stroke="rgb(255, 191, 0)" stroke-width="20"/>
   <circle cx="60" cy="460" fill="none" id="connector4pin" r="27.5" stroke="rgb(255, 191, 0)" stroke-width="20"/>
   <circle cx="660.0" cy="460" fill="none" id="connector15pin" r="27.5" stroke="rgb(255, 191, 0)" stroke-width="20"/>
   <circle cx="60" cy="560" fill="none" id="connector5pin" r="27.5" stroke="rgb(255, 191, 0)" stroke-width="20"/>
   <circle cx="660.0" cy="560" fill="none" id="connector14pin" r="27.5" stroke="rgb(255, 191, 0)" stroke-width="20"/>
   <circle cx="60" cy="660" fill="none" id="connector6pin" r="27.5" stroke="rgb(255, 191, 0)" stroke-width="20"/>
   <circle cx="660.0" cy="660" fill="none" id="connector13pin" r="27.5" stroke="rgb(255, 191, 0)" stroke-width="20"/>
   <circle cx="60" cy="760" fill="none" id="connector7pin" r="27.5" stroke="rgb(255, 191, 0)" stroke-width="20"/>
   <circle cx="660.0" cy="760" fill="none" id="connector12pin" r="27.5" stroke="rgb(255, 191, 0)" stroke-width="20"/>
   <circle cx="60" cy="860" fill="none" id="connector8pin" r="27.5" stroke="rgb(255, 191, 0)" stroke-width="20"/>
   <circle cx="660.0" cy="860" fill="none" id="connector11pin" r="27.5" stroke="rgb(255, 191, 0)" stroke-width="20"/>
   <circle cx="60" cy="960" fill="none" id="connector9pin" r="27.5" stroke="rgb(255, 191, 0)" stroke-width="20"/>
   <circle cx="660.0" cy="960" fill="none" id="connector10pin" r="27.5" stroke="rgb(255, 191, 0)" stroke-width="20"/>
 </g></g>
 <g id="keepout"/>
 <g id="soldermask"/>
 <g id="outline"/>
</svg>