<?xml version='1.0' encoding='UTF-8'?>
<svg version="1.2" xmlns="http://www.w3.org/2000/svg" width="0.42in" height="0.62in" viewBox="0 0 420.0 620" baseProfile="tiny" >
 <desc>Fritzing footprint SVG</desc>
 <g id="silkscreen" >
  <line stroke="white" y1="10" x1="10" y2="610" stroke-width="10" x2="10" />
  <line stroke="white" y1="610" x1="10" y2="610" stroke-width="10" x2="410.0" />
  <line stroke="white" y1="610" x1="410.0" y2="10" stroke-width="10" x2="410.0" />
  <line stroke="white" y1="10" x1="10" y2="10" stroke-width="10" x2="160.0" />
  <line stroke="white" y1="10" x1="260.0" y2="10" stroke-width="10" x2="410.0" />
 </g>
 <g id="copper0" >
  <rect width="55" x="32.5" y="32.5" fill="none" height="55" stroke="rgb(255, 191, 0)" stroke-width="20" />
   <circle fill="none" cx="60" cy="60" stroke="rgb(255, 191, 0)" r="27.5" id="connector0pad" stroke-width="20" />
   <circle fill="none" cx="360.0" cy="60" stroke="rgb(255, 191, 0)" r="27.5" id="connector11pad" stroke-width="20" />
   <circle fill="none" cx="60" cy="160" stroke="rgb(255, 191, 0)" r="27.5" id="connector1pad" stroke-width="20" />
   <circle fill="none" cx="360.0" cy="160" stroke="rgb(255, 191, 0)" r="27.5" id="connector10pad" stroke-width="20" />
   <circle fill="none" cx="60" cy="260" stroke="rgb(255, 191, 0)" r="27.5" id="connector2pad" stroke-width="20" />
   <circle fill="none" cx="360.0" cy="260" stroke="rgb(255, 191, 0)" r="27.5" id="connector9pad" stroke-width="20" />
   <circle fill="none" cx="60" cy="360" stroke="rgb(255, 191, 0)" r="27.5" id="connector3pad" stroke-width="20" />
   <circle fill="none" cx="360.0" cy="360" stroke="rgb(255, 191, 0)" r="27.5" id="connector8pad" stroke-width="20" />
   <circle fill="none" cx="60" cy="460" stroke="rgb(255, 191, 0)" r="27.5" id="connector4pad" stroke-width="20" />
   <circle fill="none" cx="360.0" cy="460" stroke="rgb(255, 191, 0)" r="27.5" id="connector7pad" stroke-width="20" />
   <circle fill="none" cx="60" cy="560" stroke="rgb(255, 191, 0)" r="27.5" id="connector5pad" stroke-width="20" />
   <circle fill="none" cx="360.0" cy="560" stroke="rgb(255, 191, 0)" r="27.5" id="connector6pad" stroke-width="20" />
 </g>
 <g id="keepout" />
 <g id="soldermask" />
 <g id="outline" />
</svg>
