<?xml version="1.0" encoding="utf-8"?>
<!-- Generator: Adobe Illustrator 15.0.2, SVG Export Plug-In . SVG Version: 6.00 Build 0)  -->
<!DOCTYPE svg PUBLIC "-//W3C//DTD SVG 1.1//EN" "http://www.w3.org/Graphics/SVG/1.1/DTD/svg11.dtd">
<svg version="1.1" id="svg2" xmlns:svg="http://www.w3.org/2000/svg"
	 xmlns="http://www.w3.org/2000/svg" xmlns:xlink="http://www.w3.org/1999/xlink" x="0px" y="0px" width="43.2px" height="7.2px"
	 viewBox="0 0 43.2 7.2" enable-background="new 0 0 43.2 7.2" xml:space="preserve">
<g id="copper0">
	<g id="copper1">
		<circle id="connector1pin" fill="none" stroke="#F7BD13" stroke-width="1.8" cx="3.6" cy="3.6" r="2.7"/>
		<circle id="connector0pin" fill="none" stroke="#F7BD13" stroke-width="1.8" cx="39.6" cy="3.6" r="2.7"/>
	</g>
</g>
<g id="silkscreen">
	
		<rect id="rect3790" x="11.25" y="0.45" fill="none" stroke="#FFFFFF" stroke-width="0.7" stroke-linecap="round" stroke-linejoin="round" width="20.7" height="6.3"/>
	<path id="path3798" fill="none" stroke="#FFFFFF" stroke-width="0.5" stroke-linecap="round" d="M10.8,3.6H8.1"/>
	<path id="path3800" fill="none" stroke="#FFFFFF" stroke-width="0.5" stroke-linecap="round" d="M32.4,3.6h2.7"/>
	<path id="path3715" fill="none" stroke="#FFFFFF" stroke-width="0.9" stroke-linecap="round" stroke-linejoin="round" d="M12.6,4.5
		c0-1.243,1.007-2.25,2.25-2.25S17.1,3.257,17.1,4.5"/>
	<path id="path3717" fill="none" stroke="#FFFFFF" stroke-width="0.9" stroke-linecap="round" stroke-linejoin="round" d="M17.1,4.5
		c0-1.243,1.007-2.25,2.25-2.25S21.6,3.257,21.6,4.5"/>
	<path id="path3719" fill="none" stroke="#FFFFFF" stroke-width="0.9" stroke-linecap="round" stroke-linejoin="round" d="M21.6,4.5
		c0-1.243,1.008-2.25,2.25-2.25S26.1,3.257,26.1,4.5"/>
	<path id="path3721" fill="none" stroke="#FFFFFF" stroke-width="0.9" stroke-linecap="round" stroke-linejoin="round" d="M26.1,4.5
		c0-1.243,1.008-2.25,2.25-2.25S30.6,3.257,30.6,4.5"/>
</g>
</svg>
