<?xml version='1.0' encoding='UTF-8'?>
<svg width="0.14in" version="1.2" xmlns="http://www.w3.org/2000/svg" height="3.84in" viewBox="0 0 140 3840.0" baseProfile="tiny" >
 <desc>Fritzing footprint SVG</desc>
 <g id="silkscreen" >
  <line stroke="white" y1="20" x1="20" y2="3820.0" stroke-width="20" x2="20" />
  <line stroke="white" y1="3820.0" x1="20" y2="3820.0" stroke-width="20" x2="120" />
  <line stroke="white" y1="3820.0" x1="120" y2="20" stroke-width="20" x2="120" />
  <line stroke="white" y1="20" x1="120" y2="20" stroke-width="20" x2="20" />
  <line stroke="white" y1="120" x1="20" y2="120" stroke-width="10" x2="120" />
 </g>
 <g id="copper0" >
  <rect width="55" x="42.5" y="42.5" fill="none" height="55" stroke="rgb(255, 191, 0)" stroke-width="20" />
   <circle fill="none" cx="70" cy="70" stroke="rgb(255, 191, 0)" r="27.5" id="connector0pin" stroke-width="20" />
   <circle fill="none" cx="70" cy="170" stroke="rgb(255, 191, 0)" r="27.5" id="connector1pin" stroke-width="20" />
   <circle fill="none" cx="70" cy="270" stroke="rgb(255, 191, 0)" r="27.5" id="connector2pin" stroke-width="20" />
   <circle fill="none" cx="70" cy="370" stroke="rgb(255, 191, 0)" r="27.5" id="connector3pin" stroke-width="20" />
   <circle fill="none" cx="70" cy="470" stroke="rgb(255, 191, 0)" r="27.5" id="connector4pin" stroke-width="20" />
   <circle fill="none" cx="70" cy="570" stroke="rgb(255, 191, 0)" r="27.5" id="connector5pin" stroke-width="20" />
   <circle fill="none" cx="70" cy="670" stroke="rgb(255, 191, 0)" r="27.5" id="connector6pin" stroke-width="20" />
   <circle fill="none" cx="70" cy="770" stroke="rgb(255, 191, 0)" r="27.5" id="connector7pin" stroke-width="20" />
   <circle fill="none" cx="70" cy="870" stroke="rgb(255, 191, 0)" r="27.5" id="connector8pin" stroke-width="20" />
   <circle fill="none" cx="70" cy="970" stroke="rgb(255, 191, 0)" r="27.5" id="connector9pin" stroke-width="20" />
   <circle fill="none" cx="70" cy="1070" stroke="rgb(255, 191, 0)" r="27.5" id="connector10pin" stroke-width="20" />
   <circle fill="none" cx="70" cy="1170" stroke="rgb(255, 191, 0)" r="27.5" id="connector11pin" stroke-width="20" />
   <circle fill="none" cx="70" cy="1270" stroke="rgb(255, 191, 0)" r="27.5" id="connector12pin" stroke-width="20" />
   <circle fill="none" cx="70" cy="1370" stroke="rgb(255, 191, 0)" r="27.5" id="connector13pin" stroke-width="20" />
   <circle fill="none" cx="70" cy="1470" stroke="rgb(255, 191, 0)" r="27.5" id="connector14pin" stroke-width="20" />
   <circle fill="none" cx="70" cy="1570" stroke="rgb(255, 191, 0)" r="27.5" id="connector15pin" stroke-width="20" />
   <circle fill="none" cx="70" cy="1670" stroke="rgb(255, 191, 0)" r="27.5" id="connector16pin" stroke-width="20" />
   <circle fill="none" cx="70" cy="1770" stroke="rgb(255, 191, 0)" r="27.5" id="connector17pin" stroke-width="20" />
   <circle fill="none" cx="70" cy="1870" stroke="rgb(255, 191, 0)" r="27.5" id="connector18pin" stroke-width="20" />
   <circle fill="none" cx="70" cy="1970" stroke="rgb(255, 191, 0)" r="27.5" id="connector19pin" stroke-width="20" />
   <circle fill="none" cx="70" cy="2070" stroke="rgb(255, 191, 0)" r="27.5" id="connector20pin" stroke-width="20" />
   <circle fill="none" cx="70" cy="2170" stroke="rgb(255, 191, 0)" r="27.5" id="connector21pin" stroke-width="20" />
   <circle fill="none" cx="70" cy="2270" stroke="rgb(255, 191, 0)" r="27.5" id="connector22pin" stroke-width="20" />
   <circle fill="none" cx="70" cy="2370" stroke="rgb(255, 191, 0)" r="27.5" id="connector23pin" stroke-width="20" />
   <circle fill="none" cx="70" cy="2470" stroke="rgb(255, 191, 0)" r="27.5" id="connector24pin" stroke-width="20" />
   <circle fill="none" cx="70" cy="2570" stroke="rgb(255, 191, 0)" r="27.5" id="connector25pin" stroke-width="20" />
   <circle fill="none" cx="70" cy="2670" stroke="rgb(255, 191, 0)" r="27.5" id="connector26pin" stroke-width="20" />
   <circle fill="none" cx="70" cy="2770" stroke="rgb(255, 191, 0)" r="27.5" id="connector27pin" stroke-width="20" />
   <circle fill="none" cx="70" cy="2870" stroke="rgb(255, 191, 0)" r="27.5" id="connector28pin" stroke-width="20" />
   <circle fill="none" cx="70" cy="2970" stroke="rgb(255, 191, 0)" r="27.5" id="connector29pin" stroke-width="20" />
   <circle fill="none" cx="70" cy="3070" stroke="rgb(255, 191, 0)" r="27.5" id="connector30pin" stroke-width="20" />
   <circle fill="none" cx="70" cy="3170" stroke="rgb(255, 191, 0)" r="27.5" id="connector31pin" stroke-width="20" />
   <circle fill="none" cx="70" cy="3270" stroke="rgb(255, 191, 0)" r="27.5" id="connector32pin" stroke-width="20" />
   <circle fill="none" cx="70" cy="3370" stroke="rgb(255, 191, 0)" r="27.5" id="connector33pin" stroke-width="20" />
   <circle fill="none" cx="70" cy="3470" stroke="rgb(255, 191, 0)" r="27.5" id="connector34pin" stroke-width="20" />
   <circle fill="none" cx="70" cy="3570" stroke="rgb(255, 191, 0)" r="27.5" id="connector35pin" stroke-width="20" />
   <circle fill="none" cx="70" cy="3670" stroke="rgb(255, 191, 0)" r="27.5" id="connector36pin" stroke-width="20" />
   <circle fill="none" cx="70" cy="3770" stroke="rgb(255, 191, 0)" r="27.5" id="connector37pin" stroke-width="20" />
 </g>
 <g id="keepout" />
 <g id="soldermask" />
 <g id="outline" />
</svg>
