<?xml version='1.0' encoding='UTF-8'?>
<svg width="0.14in" version="1.2" xmlns="http://www.w3.org/2000/svg" height="3.447086624in" viewBox="0 0 140 3447.086624" baseProfile="tiny" >
 <desc>Fritzing footprint SVG</desc>
 <g id="silkscreen" >
  <line stroke="white" y1="20" x1="20" y2="3427.086624" stroke-width="20" x2="20" />
  <line stroke="white" y1="3427.086624" x1="20" y2="3427.086624" stroke-width="20" x2="120" />
  <line stroke="white" y1="3427.086624" x1="120" y2="20" stroke-width="20" x2="120" />
  <line stroke="white" y1="20" x1="120" y2="20" stroke-width="20" x2="20" />
  <line stroke="white" y1="120" x1="20" y2="120" stroke-width="10" x2="120" />
 </g>
 <g id="copper0" >
  <rect width="55" x="42.5" y="42.5" fill="none" height="55" stroke="rgb(255, 191, 0)" stroke-width="20" />
   <circle fill="none" cx="70" cy="70.0" stroke="rgb(255, 191, 0)" r="27.5" id="connector0pin" stroke-width="20" />
   <circle fill="none" cx="70" cy="207.795276" stroke="rgb(255, 191, 0)" r="27.5" id="connector1pin" stroke-width="20" />
   <circle fill="none" cx="70" cy="345.590552" stroke="rgb(255, 191, 0)" r="27.5" id="connector2pin" stroke-width="20" />
   <circle fill="none" cx="70" cy="483.385828" stroke="rgb(255, 191, 0)" r="27.5" id="connector3pin" stroke-width="20" />
   <circle fill="none" cx="70" cy="621.181104" stroke="rgb(255, 191, 0)" r="27.5" id="connector4pin" stroke-width="20" />
   <circle fill="none" cx="70" cy="758.97638" stroke="rgb(255, 191, 0)" r="27.5" id="connector5pin" stroke-width="20" />
   <circle fill="none" cx="70" cy="896.771656" stroke="rgb(255, 191, 0)" r="27.5" id="connector6pin" stroke-width="20" />
   <circle fill="none" cx="70" cy="1034.566932" stroke="rgb(255, 191, 0)" r="27.5" id="connector7pin" stroke-width="20" />
   <circle fill="none" cx="70" cy="1172.362208" stroke="rgb(255, 191, 0)" r="27.5" id="connector8pin" stroke-width="20" />
   <circle fill="none" cx="70" cy="1310.157484" stroke="rgb(255, 191, 0)" r="27.5" id="connector9pin" stroke-width="20" />
   <circle fill="none" cx="70" cy="1447.95276" stroke="rgb(255, 191, 0)" r="27.5" id="connector10pin" stroke-width="20" />
   <circle fill="none" cx="70" cy="1585.748036" stroke="rgb(255, 191, 0)" r="27.5" id="connector11pin" stroke-width="20" />
   <circle fill="none" cx="70" cy="1723.543312" stroke="rgb(255, 191, 0)" r="27.5" id="connector12pin" stroke-width="20" />
   <circle fill="none" cx="70" cy="1861.338588" stroke="rgb(255, 191, 0)" r="27.5" id="connector13pin" stroke-width="20" />
   <circle fill="none" cx="70" cy="1999.133864" stroke="rgb(255, 191, 0)" r="27.5" id="connector14pin" stroke-width="20" />
   <circle fill="none" cx="70" cy="2136.92914" stroke="rgb(255, 191, 0)" r="27.5" id="connector15pin" stroke-width="20" />
   <circle fill="none" cx="70" cy="2274.724416" stroke="rgb(255, 191, 0)" r="27.5" id="connector16pin" stroke-width="20" />
   <circle fill="none" cx="70" cy="2412.519692" stroke="rgb(255, 191, 0)" r="27.5" id="connector17pin" stroke-width="20" />
   <circle fill="none" cx="70" cy="2550.314968" stroke="rgb(255, 191, 0)" r="27.5" id="connector18pin" stroke-width="20" />
   <circle fill="none" cx="70" cy="2688.110244" stroke="rgb(255, 191, 0)" r="27.5" id="connector19pin" stroke-width="20" />
   <circle fill="none" cx="70" cy="2825.90552" stroke="rgb(255, 191, 0)" r="27.5" id="connector20pin" stroke-width="20" />
   <circle fill="none" cx="70" cy="2963.700796" stroke="rgb(255, 191, 0)" r="27.5" id="connector21pin" stroke-width="20" />
   <circle fill="none" cx="70" cy="3101.496072" stroke="rgb(255, 191, 0)" r="27.5" id="connector22pin" stroke-width="20" />
   <circle fill="none" cx="70" cy="3239.291348" stroke="rgb(255, 191, 0)" r="27.5" id="connector23pin" stroke-width="20" />
   <circle fill="none" cx="70" cy="3377.086624" stroke="rgb(255, 191, 0)" r="27.5" id="connector24pin" stroke-width="20" />
 </g>
 <g id="keepout" />
 <g id="soldermask" />
 <g id="outline" />
</svg>
