<?xml version="1.0" encoding="UTF-8"?><svg baseProfile="tiny" height="3.34in" version="1.2" viewBox="0 0 140 3340.0" width="0.14in" xmlns="http://www.w3.org/2000/svg">
 <desc>Fritzing footprint SVG</desc>
 <g id="silkscreen">
  <line stroke="white" stroke-width="10" x1="20" x2="20" y1="20" y2="3320.0"/>
  <line stroke="white" stroke-width="10" x1="20" x2="120" y1="3320.0" y2="3320.0"/>
  <line stroke="white" stroke-width="10" x1="120" x2="120" y1="3320.0" y2="20"/>
  <line stroke="white" stroke-width="10" x1="120" x2="20" y1="20" y2="20"/>
  <line stroke="white" stroke-width="5" x1="20" x2="120" y1="120" y2="120"/>
 </g>
 <g id="copper1"><g id="copper0">
  <rect fill="none" height="55" stroke="rgb(255, 191, 0)" stroke-width="20" width="55" x="42.5" y="42.5"/>
   <circle cx="70" cy="70" fill="none" id="connector0pin" r="27.5" stroke="rgb(255, 191, 0)" stroke-width="20"/>
   <circle cx="70" cy="170" fill="none" id="connector1pin" r="27.5" stroke="rgb(255, 191, 0)" stroke-width="20"/>
   <circle cx="70" cy="270" fill="none" id="connector2pin" r="27.5" stroke="rgb(255, 191, 0)" stroke-width="20"/>
   <circle cx="70" cy="370" fill="none" id="connector3pin" r="27.5" stroke="rgb(255, 191, 0)" stroke-width="20"/>
   <circle cx="70" cy="470" fill="none" id="connector4pin" r="27.5" stroke="rgb(255, 191, 0)" stroke-width="20"/>
   <circle cx="70" cy="570" fill="none" id="connector5pin" r="27.5" stroke="rgb(255, 191, 0)" stroke-width="20"/>
   <circle cx="70" cy="670" fill="none" id="connector6pin" r="27.5" stroke="rgb(255, 191, 0)" stroke-width="20"/>
   <circle cx="70" cy="770" fill="none" id="connector7pin" r="27.5" stroke="rgb(255, 191, 0)" stroke-width="20"/>
   <circle cx="70" cy="870" fill="none" id="connector8pin" r="27.5" stroke="rgb(255, 191, 0)" stroke-width="20"/>
   <circle cx="70" cy="970" fill="none" id="connector9pin" r="27.5" stroke="rgb(255, 191, 0)" stroke-width="20"/>
   <circle cx="70" cy="1070" fill="none" id="connector10pin" r="27.5" stroke="rgb(255, 191, 0)" stroke-width="20"/>
   <circle cx="70" cy="1170" fill="none" id="connector11pin" r="27.5" stroke="rgb(255, 191, 0)" stroke-width="20"/>
   <circle cx="70" cy="1270" fill="none" id="connector12pin" r="27.5" stroke="rgb(255, 191, 0)" stroke-width="20"/>
   <circle cx="70" cy="1370" fill="none" id="connector13pin" r="27.5" stroke="rgb(255, 191, 0)" stroke-width="20"/>
   <circle cx="70" cy="1470" fill="none" id="connector14pin" r="27.5" stroke="rgb(255, 191, 0)" stroke-width="20"/>
   <circle cx="70" cy="1570" fill="none" id="connector15pin" r="27.5" stroke="rgb(255, 191, 0)" stroke-width="20"/>
   <circle cx="70" cy="1670" fill="none" id="connector16pin" r="27.5" stroke="rgb(255, 191, 0)" stroke-width="20"/>
   <circle cx="70" cy="1770" fill="none" id="connector17pin" r="27.5" stroke="rgb(255, 191, 0)" stroke-width="20"/>
   <circle cx="70" cy="1870" fill="none" id="connector18pin" r="27.5" stroke="rgb(255, 191, 0)" stroke-width="20"/>
   <circle cx="70" cy="1970" fill="none" id="connector19pin" r="27.5" stroke="rgb(255, 191, 0)" stroke-width="20"/>
   <circle cx="70" cy="2070" fill="none" id="connector20pin" r="27.5" stroke="rgb(255, 191, 0)" stroke-width="20"/>
   <circle cx="70" cy="2170" fill="none" id="connector21pin" r="27.5" stroke="rgb(255, 191, 0)" stroke-width="20"/>
   <circle cx="70" cy="2270" fill="none" id="connector22pin" r="27.5" stroke="rgb(255, 191, 0)" stroke-width="20"/>
   <circle cx="70" cy="2370" fill="none" id="connector23pin" r="27.5" stroke="rgb(255, 191, 0)" stroke-width="20"/>
   <circle cx="70" cy="2470" fill="none" id="connector24pin" r="27.5" stroke="rgb(255, 191, 0)" stroke-width="20"/>
   <circle cx="70" cy="2570" fill="none" id="connector25pin" r="27.5" stroke="rgb(255, 191, 0)" stroke-width="20"/>
   <circle cx="70" cy="2670" fill="none" id="connector26pin" r="27.5" stroke="rgb(255, 191, 0)" stroke-width="20"/>
   <circle cx="70" cy="2770" fill="none" id="connector27pin" r="27.5" stroke="rgb(255, 191, 0)" stroke-width="20"/>
   <circle cx="70" cy="2870" fill="none" id="connector28pin" r="27.5" stroke="rgb(255, 191, 0)" stroke-width="20"/>
   <circle cx="70" cy="2970" fill="none" id="connector29pin" r="27.5" stroke="rgb(255, 191, 0)" stroke-width="20"/>
   <circle cx="70" cy="3070" fill="none" id="connector30pin" r="27.5" stroke="rgb(255, 191, 0)" stroke-width="20"/>
   <circle cx="70" cy="3170" fill="none" id="connector31pin" r="27.5" stroke="rgb(255, 191, 0)" stroke-width="20"/>
   <circle cx="70" cy="3270" fill="none" id="connector32pin" r="27.5" stroke="rgb(255, 191, 0)" stroke-width="20"/>
 </g></g>
 <g id="keepout"/>
 <g id="soldermask"/>
 <g id="outline"/>
</svg>