<?xml version='1.0' encoding='UTF-8' standalone='no'?>
<!-- Created with Fritzing (http://www.fritzing.org/) -->
<svg xmlns="http://www.w3.org/2000/svg" width="0.3in" x="0in" version="1.2" y="0in" height="0.714173in" viewBox="0 0 21.6 51.4205" baseProfile="tiny">
 <desc >Fritzing footprint generated by brd2svg</desc>
 <g  id="silkscreen" stroke-width="0">
  <path  fill="none" stroke="white" stroke-width="0.576" d="M21.2844,10.939A10.4836,10.4836,0,1,0,0.31559,10.939L0.31559,40.4815A10.4836,10.4836,0,1,0,21.2844,40.4815L21.2844,10.939M9.8833,21.4582a0.916726,0.916726,0,1,1,1.83345,0,0.916726,0.916726,0,1,1,-1.83345,0zM9.8833,29.9622a0.916726,0.916726,0,1,1,1.83345,0,0.916726,0.916726,0,1,1,-1.83345,0z"/>
  <g  stroke-width="0">
   <title >element:S1</title>
   <g  stroke-width="0">
    <title >package:AYZ0202</title>
    <line  stroke="white" stroke-linecap="round" y1="35.915" x1="5.83937" y2="35.915" stroke-width="0.576" x2="15.7607"/>
    <line  stroke="white" stroke-linecap="round" y1="35.915" x1="15.7607" y2="15.5055" stroke-width="0.576" x2="15.7607"/>
    <line  stroke="white" stroke-linecap="round" y1="15.5055" x1="15.7607" y2="15.5055" stroke-width="0.576" x2="5.83937"/>
    <line  stroke="white" stroke-linecap="round" y1="15.5055" x1="5.83937" y2="35.915" stroke-width="0.576" x2="5.83937"/>
   </g>
  </g>
  <g  stroke-width="0">
   <title >element:SLIDEOFF</title>
   <g  stroke-width="0">
    <title >package:PETAL-MEDIUM-2SIDE</title>
   </g>
  </g>
  <g  stroke-width="0">
   <title >element:SLIDEON</title>
   <g  stroke-width="0">
    <title >package:PETAL-MEDIUM-2SIDE</title>
   </g>
  </g>
  <line  fill="none" stroke="white" fill-opacity="1" y1="51.1325" x1="0.288" y2="51.1325" stroke-width="0.576" x2="0.0283465"/>
  <line  fill="none" stroke="white" fill-opacity="1" y1="40.4703" x1="0.288" y2="40.4703" stroke-width="0.576" x2="0.0283465"/>
  <line  fill="none" stroke="white" fill-opacity="1" y1="51.1325" x1="0.288" y2="40.4703" stroke-width="0.576" x2="0.288"/>
  <line  fill="none" stroke="white" fill-opacity="1" y1="10.9503" x1="0.288" y2="10.9503" stroke-width="0.576" x2="0.0283465"/>
  <line  fill="none" stroke="white" fill-opacity="1" y1="0.288" x1="0.288" y2="0.288" stroke-width="0.576" x2="0.0283465"/>
  <line  fill="none" stroke="white" fill-opacity="1" y1="10.9503" x1="0.288" y2="0.288" stroke-width="0.576" x2="0.288"/>
 </g>
 <g  id="copper1" stroke-width="0"/>
 <g  id="copper0" stroke-width="0"/>
</svg>
