<?xml version='1.0' encoding='UTF-8' standalone='no'?>
<!-- Created with Fritzing (http://www.fritzing.org/) -->
<svg xmlns="http://www.w3.org/2000/svg" width="0.6in" x="0in" version="1.2" y="0in" height="0.55in" viewBox="0 0 43.2 39.6" baseProfile="tiny">
 <desc >Fritzing footprint generated by brd2svg</desc>
 <g  id="silkscreen" stroke-width="0">
  <path  fill="none" stroke="white" stroke-width="0.576" d="M0.288,39.312L0.288,0.288L42.912,0.288L42.912,39.312L0.288,39.312"/>
  <g  stroke-width="0">
   <title >element:C2</title>
   <g  stroke-width="0">
    <title >package:EIA3528</title>
    <line  stroke="white" stroke-linecap="round" y1="13.3512" x1="40.5354" y2="18.1701" stroke-width="0.576" x2="40.5354"/>
    <line  stroke="white" stroke-linecap="round" y1="18.1701" x1="40.5354" y2="18.1701" stroke-width="0.576" x2="31.6063"/>
    <line  stroke="white" stroke-linecap="round" y1="18.1701" x1="31.6063" y2="13.3512" stroke-width="0.576" x2="31.6063"/>
    <line  stroke="white" stroke-linecap="round" y1="7.96536" x1="40.3937" y2="4.56378" stroke-width="0.576" x2="40.3937"/>
    <line  stroke="white" stroke-linecap="round" y1="4.56378" x1="40.3937" y2="3.42992" stroke-width="0.576" x2="39.4016"/>
    <line  stroke="white" stroke-linecap="round" y1="3.42992" x1="39.4016" y2="3.42992" stroke-width="0.576" x2="32.4567"/>
    <line  stroke="white" stroke-linecap="round" y1="3.42992" x1="32.4567" y2="4.56378" stroke-width="0.576" x2="31.6063"/>
    <line  stroke="white" stroke-linecap="round" y1="4.56378" x1="31.6063" y2="7.96536" stroke-width="0.576" x2="31.6063"/>
   </g>
  </g>
  <g  stroke-width="0">
   <title >element:JP1</title>
   <g  stroke-width="0">
    <title >package:1X03</title>
    <line  stroke="white" stroke-linecap="round" y1="34.2" x1="25.2" y2="32.4" stroke-width="0.576" x2="27"/>
    <line  stroke="white" stroke-linecap="round" y1="32.4" x1="27" y2="32.4" stroke-width="0.576" x2="30.6"/>
    <line  stroke="white" stroke-linecap="round" y1="32.4" x1="30.6" y2="34.2" stroke-width="0.576" x2="32.4"/>
    <line  stroke="white" stroke-linecap="round" y1="37.8" x1="32.4" y2="39.6" stroke-width="0.576" x2="30.6"/>
    <line  stroke="white" stroke-linecap="round" y1="39.6" x1="30.6" y2="39.6" stroke-width="0.576" x2="27"/>
    <line  stroke="white" stroke-linecap="round" y1="39.6" x1="27" y2="37.8" stroke-width="0.576" x2="25.2"/>
    <line  stroke="white" stroke-linecap="round" y1="32.4" x1="12.6" y2="32.4" stroke-width="0.576" x2="16.2"/>
    <line  stroke="white" stroke-linecap="round" y1="32.4" x1="16.2" y2="34.2" stroke-width="0.576" x2="18"/>
    <line  stroke="white" stroke-linecap="round" y1="37.8" x1="18" y2="39.6" stroke-width="0.576" x2="16.2"/>
    <line  stroke="white" stroke-linecap="round" y1="34.2" x1="18" y2="32.4" stroke-width="0.576" x2="19.8"/>
    <line  stroke="white" stroke-linecap="round" y1="32.4" x1="19.8" y2="32.4" stroke-width="0.576" x2="23.4"/>
    <line  stroke="white" stroke-linecap="round" y1="32.4" x1="23.4" y2="34.2" stroke-width="0.576" x2="25.2"/>
    <line  stroke="white" stroke-linecap="round" y1="37.8" x1="25.2" y2="39.6" stroke-width="0.576" x2="23.4"/>
    <line  stroke="white" stroke-linecap="round" y1="39.6" x1="23.4" y2="39.6" stroke-width="0.576" x2="19.8"/>
    <line  stroke="white" stroke-linecap="round" y1="39.6" x1="19.8" y2="37.8" stroke-width="0.576" x2="18"/>
    <line  stroke="white" stroke-linecap="round" y1="34.2" x1="10.8" y2="37.8" stroke-width="0.576" x2="10.8"/>
    <line  stroke="white" stroke-linecap="round" y1="32.4" x1="12.6" y2="34.2" stroke-width="0.576" x2="10.8"/>
    <line  stroke="white" stroke-linecap="round" y1="37.8" x1="10.8" y2="39.6" stroke-width="0.576" x2="12.6"/>
    <line  stroke="white" stroke-linecap="round" y1="39.6" x1="16.2" y2="39.6" stroke-width="0.576" x2="12.6"/>
    <line  stroke="white" stroke-linecap="round" y1="34.2" x1="32.4" y2="37.8" stroke-width="0.576" x2="32.4"/>
   </g>
  </g>
  <g  stroke-width="0">
   <title >element:U1</title>
   <g  stroke-width="0">
    <title >package:CR54</title>
   </g>
  </g>
 </g>
 <g  id="copper1" stroke-width="0">
  <circle  fill="none" cx="28.8" cy="36" connectorname="VIN" stroke="#F7BD13" r="1.872" id="connector13pad" stroke-width="0.864"/>
  <circle  fill="none" cx="14.4" cy="36" connectorname="GND" stroke="#F7BD13" r="1.872" id="connector11pad" stroke-width="0.864"/>
  <circle  fill="none" cx="21.6" cy="36" connectorname="VOUT" stroke="#F7BD13" r="1.872" id="connector12pad" stroke-width="0.864"/>
 </g>
 <g  id="copper0" stroke-width="0">
  <circle  fill="none" cx="28.8" cy="36" connectorname="VIN" stroke="#F7BD13" r="1.872" id="connector13pad" stroke-width="0.864"/>
  <circle  fill="none" cx="14.4" cy="36" connectorname="GND" stroke="#F7BD13" r="1.872" id="connector11pad" stroke-width="0.864"/>
  <circle  fill="none" cx="21.6" cy="36" connectorname="VOUT" stroke="#F7BD13" r="1.872" id="connector12pad" stroke-width="0.864"/>
 </g>
</svg>
