<?xml version="1.0" encoding="utf-8"?>
<!-- Generator: Adobe Illustrator 15.0.2, SVG Export Plug-In . SVG Version: 6.00 Build 0)  -->
<!DOCTYPE svg PUBLIC "-//W3C//DTD SVG 1.1//EN" "http://www.w3.org/Graphics/SVG/1.1/DTD/svg11.dtd">
<svg version="1.1"
	 id="svg2" sodipodi:docname="oshw-logo.svg" inkscape:version="0.48.1 r9760" xmlns:inkscape="http://www.inkscape.org/namespaces/inkscape" xmlns:sodipodi="http://sodipodi.sourceforge.net/DTD/sodipodi-0.dtd" xmlns:svg="http://www.w3.org/2000/svg" xmlns:rdf="http://www.w3.org/1999/02/22-rdf-syntax-ns#" xmlns:cc="http://creativecommons.org/ns#" xmlns:dc="http://purl.org/dc/elements/1.1/"
	 xmlns="http://www.w3.org/2000/svg" xmlns:xlink="http://www.w3.org/1999/xlink" x="0px" y="0px" width="47px" height="41px"
	 viewBox="0 0 47 41" enable-background="new 0 0 47 41" xml:space="preserve">
<path id="path3024" inkscape:connector-curvature="0" display="none" fill="#FFFFFF" d="M277.271,128.531l-2.146-0.399
	c-0.547-0.1-1.439-0.267-1.986-0.366l-18.277-3.397c-0.547-0.104-1.146-0.614-1.324-1.144l-6.871-16.023
	c-0.257-0.495-0.206-1.273,0.105-1.733L257.454,89.9c0.313-0.459,0.829-1.211,1.144-1.67l1.234-1.797
	c0.313-0.459,0.249-1.154-0.146-1.553l-1.541-1.541l-1.43-1.43l-4.469-4.473l-1.432-1.43l-4.467-4.47l-1.434-1.431l-1.542-1.541
	c-0.396-0.396-1.09-0.459-1.549-0.146l-1.802,1.232c-0.459,0.313-1.209,0.828-1.668,1.146L222.46,81.709
	c-0.458,0.314-1.241,0.371-1.739,0.127l-15.537-6.357c-0.525-0.177-1.043-0.768-1.146-1.313l-3.545-19.049
	c-0.104-0.551-0.271-1.439-0.369-1.987l-0.397-2.146c-0.104-0.547-0.643-0.991-1.193-0.991h-2.182h-2.021h-6.319h-2.021h-6.319
	h-2.021h-2.178c-0.56,0-1.098,0.444-1.195,0.993l-0.397,2.145c-0.104,0.549-0.271,1.438-0.368,1.987l-3.546,19.049
	c-0.104,0.547-0.614,1.14-1.146,1.313l-15.536,6.356c-0.498,0.244-1.281,0.188-1.739-0.127L135.646,70.8
	c-0.459-0.313-1.209-0.83-1.668-1.146l-1.799-1.232c-0.459-0.313-1.154-0.25-1.55,0.146l-1.542,1.541l-1.432,1.431l-4.471,4.472
	l-1.43,1.43l-4.469,4.471l-1.432,1.43l-1.541,1.541c-0.396,0.396-0.459,1.094-0.146,1.553l1.23,1.797
	c0.313,0.459,0.828,1.211,1.146,1.67l10.684,15.563c0.313,0.46,0.362,1.238,0.106,1.732l-6.869,16.027
	c-0.185,0.521-0.778,1.035-1.325,1.141l-18.277,3.4c-0.547,0.102-1.439,0.269-1.987,0.363l-2.146,0.396
	c-0.547,0.104-0.994,0.644-0.994,1.197v2.184v2.021v6.318v2.021v6.314v2.021v2.182c0,0.558,0.449,1.096,0.996,1.195l2.145,0.396
	c0.549,0.104,1.439,0.271,1.988,0.371l17.729,3.3c0.547,0.102,1.131,0.617,1.299,1.146l6.822,17.05
	c0.244,0.499,0.188,1.282-0.129,1.741l-10.039,14.629c-0.314,0.459-0.83,1.209-1.146,1.666l-1.231,1.801
	c-0.313,0.458-0.25,1.154,0.146,1.55l1.543,1.541l1.432,1.431l4.473,4.474l1.43,1.43l4.469,4.47l1.432,1.43l1.543,1.541
	c0.395,0.395,1.092,0.457,1.551,0.145l1.797-1.23c0.457-0.313,1.207-0.83,1.666-1.146l14.313-9.817
	c0.458-0.313,1.229-0.342,1.704-0.062l2.974,1.672c0.486,0.267,1.295,0.688,1.791,0.938l3.075,1.576
	c0.496,0.252,1.074,0.039,1.287-0.479l1.319-3.189c0.214-0.518,0.563-1.354,0.773-1.869l12.414-30.002
	c0.215-0.514,0.563-1.354,0.771-1.867l0.881-2.125c0.213-0.514-0.004-1.172-0.479-1.461l-1.961-1.199
	c-0.363-0.223-0.854-0.604-1.24-0.949c-7.078-4.531-11.771-12.461-11.771-21.486c0-14.09,11.421-25.511,25.509-25.511
	c14.089,0,25.511,11.42,25.511,25.511c0,9.026-4.693,16.955-11.771,21.486c-0.387,0.35-0.877,0.729-1.239,0.949l-1.961,1.199
	c-0.476,0.289-0.688,0.947-0.478,1.461l0.88,2.125c0.214,0.516,0.563,1.354,0.771,1.867l12.414,30.002
	c0.215,0.515,0.563,1.354,0.771,1.869l1.324,3.189c0.213,0.518,0.791,0.729,1.287,0.479l3.076-1.576
	c0.495-0.254,1.303-0.674,1.79-0.938l2.972-1.672c0.479-0.28,1.248-0.256,1.705,0.062l14.313,9.817
	c0.457,0.313,1.21,0.83,1.665,1.146l1.802,1.23c0.457,0.313,1.153,0.25,1.547-0.145l1.541-1.541l1.434-1.43l4.468-4.472l1.433-1.431
	l4.473-4.471l1.43-1.431l1.543-1.541c0.395-0.396,0.457-1.092,0.145-1.55l-1.232-1.801c-0.313-0.457-0.829-1.207-1.146-1.666
	l-10.041-14.629c-0.313-0.459-0.373-1.241-0.127-1.741l6.821-17.05c0.168-0.529,0.753-1.049,1.3-1.146l17.729-3.3
	c0.549-0.104,1.443-0.271,1.99-0.37l2.143-0.396c0.548-0.104,0.992-0.643,0.992-1.194v-2.183v-2.021v-6.313v-2.021l0.003-6.318
	v-2.021v-2.183C278.266,129.171,277.818,128.634,277.271,128.531"/>
<g>
	<path fill-rule="evenodd" clip-rule="evenodd" fill="#FFFFFF" d="M35.944,8.447c-0.506,0.841-1.952,0.742-3.282,0.757
		c-4.503,1.39-9.816,1.968-14.646,3.03c-3.742-0.718-7.009-1.912-10.605-2.778C12.232,8.05,18.235,7.824,23.318,6.68
		C27.552,7.245,31.541,8.053,35.944,8.447z"/>
	<path fill-rule="evenodd" clip-rule="evenodd" fill="#FFFFFF" d="M40.741,8.952c0.109-0.564,1.244-0.102,1.768-0.252
		c-1.012-0.002,0.092,2.112-1.01,2.02c-0.15-0.523,0.313-1.658-0.253-1.768C41.078,8.952,40.909,8.952,40.741,8.952z"/>
	<path fill-rule="evenodd" clip-rule="evenodd" fill="#FFFFFF" d="M43.014,8.7c0.841-0.174,0.408,0.521,0.253,0.757
		C43.325,11.659,42.822,9.971,43.014,8.7z"/>
	<path fill-rule="evenodd" clip-rule="evenodd" fill="#FFFFFF" d="M44.276,9.457c0.024-0.396-0.033-0.875,0.505-0.757
		c0,0.168,0,0.337,0,0.505c-0.154,0.014-0.298,0.038-0.252,0.252C44.445,9.457,44.361,9.457,44.276,9.457z"/>
	<path fill-rule="evenodd" clip-rule="evenodd" fill="#FFFFFF" d="M44.276,9.457c0.05,0.724,0.032,1.378-0.757,1.263
		c0-0.252,0-0.505,0-0.757c0.253,0,0.3,0.205,0.504,0.252C44.063,9.917,43.979,9.498,44.276,9.457z"/>
	<path fill-rule="evenodd" clip-rule="evenodd" fill="#FFFFFF" d="M18.016,37.99c-3.68-2.884-6.972-6.158-10.353-9.343
		C6.728,22.093,4.61,16.72,3.371,10.467c3.672,1.63,6.812,3.793,10.353,5.556C15.307,23.192,16.593,30.659,18.016,37.99z"/>
	<path fill-rule="evenodd" clip-rule="evenodd" fill="#FFFFFF" d="M18.016,37.99c0.084,0,0.168,0,0.252,0
		c0.647-7.181,1.683-13.973,2.02-21.463c6.202-1.626,13.011-2.644,18.937-4.545c-0.379,6.523-2.811,13.18-4.038,19.695
		c-5.549,2.279-11.301,4.354-16.666,6.817C18.238,38.442,18.128,38.216,18.016,37.99z M31.146,28.9
		c0.258-1.652-0.522-0.306-0.757-0.758c0.334-0.423,0.668-0.846,0.503-1.768c-0.419,0-0.84,0-1.262,0
		c-0.259,1.236-1.381,2.738-0.757,4.04c1.098,0.005,1.407-0.78,2.778-0.504c0.441-0.484,0.297-1.557,1.262-1.516
		c0.604-0.1-0.14,1.149,0.758,0.756c0.712-1.024-0.195-2.226,0-3.534c-0.338,0-0.674,0-1.01,0
		C32.355,26.911,31.873,28.028,31.146,28.9z M26.854,28.647c-0.112-0.478,0.343-1.521-0.506-1.262
		c-0.595,0.582-0.206,2.149-0.758,2.777c-0.03-0.728,0.138-1.653-0.252-2.021c-2.173-0.918-3.804,2.532-2.525,4.294
		c1.708,0.191,1.897-1.134,2.777-1.77c0.025,0.398-0.033,0.876,0.505,0.758c0.942,0.102,0.107-1.577,0.759-1.768
		c0.321-0.014,0.349-0.322,0.757-0.252c0.363,0.752-0.886,1.539,0.253,1.516c1.014-0.417,0.29-2.571,0.757-3.535
		c-0.057-0.196-0.007-0.498-0.252-0.506C27.881,27.487,28.031,28.73,26.854,28.647z"/>
	<path fill-rule="evenodd" clip-rule="evenodd" fill="#FFFFFF" d="M29.631,27.132c0.169,0,0.336,0,0.506,0c0,0.169,0,0.338,0,0.507
		c-0.17,0-0.337,0-0.506,0C29.631,27.47,29.631,27.301,29.631,27.132z"/>
	<path fill-rule="evenodd" clip-rule="evenodd" fill="#FFFFFF" d="M32.662,27.132c0.449,0.186,0.035,0.46,0,0.758
		C32.212,27.705,32.625,27.432,32.662,27.132z"/>
	<path fill-rule="evenodd" clip-rule="evenodd" fill="#FFFFFF" d="M24.833,28.9c-0.037,1.309-0.104,2.588-1.515,2.524
		C22.803,30.457,23.307,28.638,24.833,28.9z"/>
	<path fill-rule="evenodd" clip-rule="evenodd" fill="#FFFFFF" d="M29.379,28.9c0.311,0.11,0.519,0.323,0.505,0.757
		C29.345,29.775,29.402,29.297,29.379,28.9z"/>
	<path fill-rule="evenodd" clip-rule="evenodd" fill="#FFFFFF" d="M31.146,28.9c-0.057,0.195-0.007,0.498-0.254,0.505
		C30.951,29.209,30.901,28.907,31.146,28.9z"/>
</g>
</svg>
