<?xml version='1.0' encoding='UTF-8' standalone='no'?>
<svg width="36.722385" xmlns:rdf="http://www.w3.org/1999/02/22-rdf-syntax-ns#" version="1.2" xmlns="http://www.w3.org/2000/svg" height="18.117138" viewBox="0 0 408.02651 201.30154" xmlns:sodipodi="http://sodipodi.sourceforge.net/DTD/sodipodi-0.dtd" xmlns:cc="http://creativecommons.org/ns#" id="svg3019" xmlns:dc="http://purl.org/dc/elements/1.1/" xmlns:svg="http://www.w3.org/2000/svg" xmlns:inkscape="http://www.inkscape.org/namespaces/inkscape">
 <metadata id="metadata3051">
  <rdf:RDF>
   <cc:Work rdf:about="">
    <dc:format>image/svg+xml</dc:format>
    <dc:type rdf:resource="http://purl.org/dc/dcmitype/StillImage"/>
    <dc:title/>
   </cc:Work>
  </rdf:RDF>
 </metadata>
 <defs id="defs3049"/>
 <sodipodi:namedview fit-margin-top="0" fit-margin-left="0" showgrid="false" fit-margin-bottom="0" objecttolerance="10" pagecolor="#ffffff" bordercolor="#666666" id="namedview3047" borderopacity="1" guidetolerance="10" gridtolerance="10" fit-margin-right="0"/>
 <desc id="desc3021">Fritzing footprint SVG</desc>
 <g id="silkscreen" transform="matrix(0.97985698,0,0,0.59109975,2.2718976,6.0756595)">
  <line style="stroke:#ffffff;stroke-width:10" id="line3024" y1="10" x1="10" y2="310" x2="10"/>
  <line style="stroke:#ffffff;stroke-width:10" id="line3026" y1="310" x1="10" y2="310" x2="410"/>
  <line style="stroke:#ffffff;stroke-width:10" id="line3028" y1="310" x1="410" y2="10" x2="410"/>
  <line style="stroke:#ffffff;stroke-width:10" id="line3030" y1="10" x1="10" y2="10" x2="160"/>
  <line style="stroke:#ffffff;stroke-width:10" id="line3032" y1="10" x1="260" y2="10" x2="410"/>
 </g>
 <g id="copper1" transform="translate(-5.9867419,-5.9867406)">
  <g id="copper0">
   <rect width="55" x="32.5" y="32.5" height="55" style="fill:none;stroke:#ffbf00;stroke-width:20" id="rect3036"/>
   <circle cx="60" cy="60" style="fill:none;stroke:#ffbf00;stroke-width:20" id="connector0pin" r="27.5" d="M 87.5,60 C 87.5,75.187831 75.187831,87.5 60,87.5 44.812169,87.5 32.5,75.187831 32.5,60 32.5,44.812169 44.812169,32.5 60,32.5 75.187831,32.5 87.5,44.812169 87.5,60 z"/>
   <circle cx="360" cy="60" style="fill:none;stroke:#ffbf00;stroke-width:20" id="connector3pin" r="27.5" d="m 387.5,60 c 0,15.187831 -12.31217,27.5 -27.5,27.5 -15.18783,0 -27.5,-12.312169 -27.5,-27.5 0,-15.187831 12.31217,-27.5 27.5,-27.5 15.18783,0 27.5,12.312169 27.5,27.5 z"/>
   <circle cx="60" cy="160" style="fill:none;stroke:#ffbf00;stroke-width:20" id="connector1pin" r="27.5" d="m 87.5,160 c 0,15.18783 -12.312169,27.5 -27.5,27.5 -15.187831,0 -27.5,-12.31217 -27.5,-27.5 0,-15.18783 12.312169,-27.5 27.5,-27.5 15.187831,0 27.5,12.31217 27.5,27.5 z"/>
   <circle cx="360" cy="160" style="fill:none;stroke:#ffbf00;stroke-width:20" r="27.5" d="m 387.5,160 c 0,15.18783 -12.31217,27.5 -27.5,27.5 -15.18783,0 -27.5,-12.31217 -27.5,-27.5 0,-15.18783 12.31217,-27.5 27.5,-27.5 15.18783,0 27.5,12.31217 27.5,27.5 z"/>
   <rect width="74.57648930817652" x="318.9503000704227" y="115.9757094746645" fill="none" height="74.57648995025059" id="connector5"/>
   <rect width="74.57648930817652" x="318.9503000704227" y="115.9757094746645" fill="none" height="74.57648995025059" id="connector5"/>
   <rect width="74.57648930817652" x="318.9503000704227" y="115.9757094746645" fill="none" height="74.57648995025059" id="connector5"/>
  </g>
 </g>
 <g id="keepout" transform="translate(-5.9867419,-5.9867406)"/>
 <g id="soldermask" transform="translate(-5.9867419,-5.9867406)"/>
 <g id="outline" transform="translate(-5.9867419,-5.9867406)"/>
</svg>
