<?xml version="1.0" encoding="UTF-8" standalone="no"?>
<svg
   xmlns:svg="http://www.w3.org/2000/svg"
   xmlns="http://www.w3.org/2000/svg"
   version="1.2" baseProfile="tiny"
   x="0px" y="0px" width="1.639in" height="1.969in" viewBox="0 0 1639 1969"
	 id="svg2">
<g id="copper0">
  <circle fill="none" cx="34.5" cy="34.5" stroke="#FFBF00" id="connector0pin" r="27.5" stroke-width="20" />
  <circle fill="none" cx="134.5" cy="34.5" stroke="#FFBF00" id="connector1pin" r="27.5" stroke-width="20" />
  <circle fill="none" cx="234.5" cy="34.5" stroke="#FFBF00" id="connector2pin" r="27.5" stroke-width="20" />
  <circle fill="none" cx="334.5" cy="34.5" stroke="#FFBF00" id="connector3pin" r="27.5" stroke-width="20" />
  <circle fill="none" cx="434.5" cy="34.5" stroke="#FFBF00" id="connector4pin" r="27.5" stroke-width="20" />
  <circle fill="none" cx="534.5" cy="34.5" stroke="#FFBF00" id="connector5pin" r="27.5" stroke-width="20" />
  <circle fill="none" cx="634.5" cy="34.5" stroke="#FFBF00" id="connector6pin" r="27.5" stroke-width="20" />
  <circle fill="none" cx="734.5" cy="34.5" stroke="#FFBF00" id="connector7pin" r="27.5" stroke-width="20" />
    <circle fill="none" cx="904.5" cy="34.5" stroke="#FFBF00" id="connector8pin" r="27.5" stroke-width="20" />
    <circle fill="none" cx="1004.5" cy="34.5" stroke="#FFBF00" id="connector9pin" r="27.5" stroke-width="20" />
    <circle fill="none" cx="1104.5" cy="34.5" stroke="#FFBF00" id="connector10pin" r="27.5" stroke-width="20" />
    <circle fill="none" cx="1204.5" cy="34.5" stroke="#FFBF00" id="connector11pin" r="27.5" stroke-width="20" />
    <circle fill="none" cx="1304.5" cy="34.5" stroke="#FFBF00" id="connector12pin" r="27.5" stroke-width="20" />
    <circle fill="none" cx="1404.5" cy="34.5" stroke="#FFBF00" id="connector13pin" r="27.5" stroke-width="20" />
    <circle fill="none" cx="1504.5" cy="34.5" stroke="#FFBF00" id="connector14pin" r="27.5" stroke-width="20" />
    <circle fill="none" cx="1604.5" cy="34.5" stroke="#FFBF00" id="connector15pin" r="27.5" stroke-width="20" />
    <circle fill="none" cx="404.5" cy="1934.5" stroke="#FFBF00" id="connector16pin" r="27.5" stroke-width="20" />
    <circle fill="none" cx="504.5" cy="1934.5" stroke="#FFBF00" id="connector17pin" r="27.5" stroke-width="20" />
    <circle fill="none" cx="604.5" cy="1934.5" stroke="#FFBF00" id="connector18pin" r="27.5" stroke-width="20" />
    <circle fill="none" cx="704.5" cy="1934.5" stroke="#FFBF00" id="connector19pin" r="27.5" stroke-width="20" />
    <circle fill="none" cx="804.5" cy="1934.5" stroke="#FFBF00" id="connector20pin" r="27.5" stroke-width="20" />
    <circle fill="none" cx="904.5" cy="1934.5" stroke="#FFBF00" id="connector21pin" r="27.5" stroke-width="20" />
    <circle fill="none" cx="1104.5" cy="1934.5" stroke="#FFBF00" id="connector22pin" r="27.5" stroke-width="20" />
    <circle fill="none" cx="1204.5" cy="1934.5" stroke="#FFBF00" id="connector23pin" r="27.5" stroke-width="20" />
    <circle fill="none" cx="1304.5" cy="1934.5" stroke="#FFBF00" id="connector24pin" r="27.5" stroke-width="20" />
    <circle fill="none" cx="1404.5" cy="1934.5" stroke="#FFBF00" id="connector25pin" r="27.5" stroke-width="20" />
    <circle fill="none" cx="1504.5" cy="1934.5" stroke="#FFBF00" id="connector26pin" r="27.5" stroke-width="20" />
    <circle fill="none" cx="1604.5" cy="1934.5" stroke="#FFBF00" id="connector27pin" r="27.5" stroke-width="20" />
</g>
</svg>
