<?xml version="1.0" encoding="UTF-8" standalone="no"?>
<svg
   xmlns:dc="http://purl.org/dc/elements/1.1/"
   xmlns:cc="http://creativecommons.org/ns#"
   xmlns:rdf="http://www.w3.org/1999/02/22-rdf-syntax-ns#"
   xmlns:svg="http://www.w3.org/2000/svg"
   xmlns="http://www.w3.org/2000/svg"
   xmlns:sodipodi="http://sodipodi.sourceforge.net/DTD/sodipodi-0.dtd"
   xmlns:inkscape="http://www.inkscape.org/namespaces/inkscape"
   version="1.2"
   x="0in"
   y="0in"
   width="1.400000in"
   height="0.800000in"
   viewBox="0 0 1400.000000 800.000000"
   id="svg2"
   inkscape:version="0.47 r22583"
   sodipodi:docname="arduino_mini_usb.svg">
  <metadata
     id="metadata92">
    <rdf:RDF>
      <cc:Work
         rdf:about="">
        <dc:format>image/svg+xml</dc:format>
        <dc:type
           rdf:resource="http://purl.org/dc/dcmitype/StillImage" />
      </cc:Work>
    </rdf:RDF>
  </metadata>
  <defs
     id="defs90">
    <inkscape:perspective
       sodipodi:type="inkscape:persp3d"
       inkscape:vp_x="0 : 36 : 1"
       inkscape:vp_y="0 : 1000 : 0"
       inkscape:vp_z="126 : 36 : 1"
       inkscape:persp3d-origin="63 : 24 : 1"
       id="perspective94" />
  </defs>
  <sodipodi:namedview
     pagecolor="#ffffff"
     bordercolor="#666666"
     borderopacity="1"
     objecttolerance="10"
     gridtolerance="10"
     guidetolerance="10"
     inkscape:pageopacity="0"
     inkscape:pageshadow="2"
     inkscape:window-width="640"
     inkscape:window-height="483"
     id="namedview88"
     showgrid="false"
     inkscape:zoom="3.2777778"
     inkscape:cx="63"
     inkscape:cy="36"
     inkscape:window-x="530"
     inkscape:window-y="73"
     inkscape:window-maximized="0"
     inkscape:current-layer="copper0" />
  <g
     id="silkscreen">
    <line
       x1="4"
       y1="4"
       x2="1392.000000"
       y2="4"
       stroke="#ffffff"
       stroke-width="8"
       stroke-linecap="round"
       id="line5" />
    <line
       x1="4"
       y1="792.000000"
       x2="1392.000000"
       y2="792.000000"
       stroke="#ffffff"
       stroke-width="8"
       stroke-linecap="round"
       id="line7" />
    <line
       x1="4"
       y1="4"
       x2="4"
       y2="350.000000"
       stroke="#ffffff"
       stroke-width="8"
       stroke-linecap="round"
       id="line9" />
    <line
       x1="4"
       y1="450.000000"
       x2="4"
       y2="792.000000"
       stroke="#ffffff"
       stroke-width="8"
       stroke-linecap="round"
       id="line11" />
    <line
       x1="1392.000000"
       y1="4"
       x2="1392.000000"
       y2="792.000000"
       stroke="#ffffff"
       stroke-width="8"
       stroke-linecap="round"
       id="line13" />
  </g>
  <g
     id="copper0">
    <circle
       id="connector60pin"
       cx="400.000000"
       cy="100.000000"
       r="27.500000"
       stroke-width="20.000000"
       stroke="rgb(255, 191, 0)"
       fill="none"
       d="m 427.5,100 c 0,15.18783 -12.31217,27.5 -27.5,27.5 -15.18783,0 -27.5,-12.31217 -27.5,-27.5 0,-15.187831 12.31217,-27.5 27.5,-27.5 15.18783,0 27.5,12.312169 27.5,27.5 z" />
    <circle
       id="connector61pin"
       cx="500.000000"
       cy="100.000000"
       r="27.500000"
       stroke-width="20.000000"
       stroke="rgb(255, 191, 0)"
       fill="none"
       d="m 527.5,100 c 0,15.18783 -12.31217,27.5 -27.5,27.5 -15.18783,0 -27.5,-12.31217 -27.5,-27.5 0,-15.187831 12.31217,-27.5 27.5,-27.5 15.18783,0 27.5,12.312169 27.5,27.5 z" />
    <circle
       id="connector62pin"
       cx="600.000000"
       cy="100.000000"
       r="27.500000"
       stroke-width="20.000000"
       stroke="rgb(255, 191, 0)"
       fill="none"
       d="m 627.5,100 c 0,15.18783 -12.31217,27.5 -27.5,27.5 -15.18783,0 -27.5,-12.31217 -27.5,-27.5 0,-15.187831 12.31217,-27.5 27.5,-27.5 15.18783,0 27.5,12.312169 27.5,27.5 z" />
    <circle
       id="connector63pin"
       cx="700.000000"
       cy="100.000000"
       r="27.500000"
       stroke-width="20.000000"
       stroke="rgb(255, 191, 0)"
       fill="none"
       d="m 727.5,100 c 0,15.18783 -12.31217,27.5 -27.5,27.5 -15.18783,0 -27.5,-12.31217 -27.5,-27.5 0,-15.187831 12.31217,-27.5 27.5,-27.5 15.18783,0 27.5,12.312169 27.5,27.5 z" />
    <circle
       id="connector64pin"
       cx="800.000000"
       cy="100.000000"
       r="27.500000"
       stroke-width="20.000000"
       stroke="rgb(255, 191, 0)"
       fill="none"
       d="m 827.5,100 c 0,15.18783 -12.31217,27.5 -27.5,27.5 -15.18783,0 -27.5,-12.31217 -27.5,-27.5 0,-15.187831 12.31217,-27.5 27.5,-27.5 15.18783,0 27.5,12.312169 27.5,27.5 z" />
    <circle
       id="connector65pin"
       cx="900.000000"
       cy="100.000000"
       r="27.500000"
       stroke-width="20.000000"
       stroke="rgb(255, 191, 0)"
       fill="none"
       d="m 927.5,100 c 0,15.18783 -12.31217,27.5 -27.5,27.5 -15.18783,0 -27.5,-12.31217 -27.5,-27.5 0,-15.187831 12.31217,-27.5 27.5,-27.5 15.18783,0 27.5,12.312169 27.5,27.5 z" />
    <circle
       id="connector66pin"
       cx="1000.000000"
       cy="100.000000"
       r="27.500000"
       stroke-width="20.000000"
       stroke="rgb(255, 191, 0)"
       fill="none"
       d="m 1027.5,100 c 0,15.18783 -12.3122,27.5 -27.5,27.5 -15.18783,0 -27.5,-12.31217 -27.5,-27.5 0,-15.187831 12.31217,-27.5 27.5,-27.5 15.1878,0 27.5,12.312169 27.5,27.5 z" />
    <circle
       id="connector67pin"
       cx="1100.000000"
       cy="100.000000"
       r="27.500000"
       stroke-width="20.000000"
       stroke="rgb(255, 191, 0)"
       fill="none"
       d="m 1127.5,100 c 0,15.18783 -12.3122,27.5 -27.5,27.5 -15.1878,0 -27.5,-12.31217 -27.5,-27.5 0,-15.187831 12.3122,-27.5 27.5,-27.5 15.1878,0 27.5,12.312169 27.5,27.5 z" />
    <circle
       id="connector68pin"
       cx="1200.000000"
       cy="100.000000"
       r="27.500000"
       stroke-width="20.000000"
       stroke="rgb(255, 191, 0)"
       fill="none"
       d="m 1227.5,100 c 0,15.18783 -12.3122,27.5 -27.5,27.5 -15.1878,0 -27.5,-12.31217 -27.5,-27.5 0,-15.187831 12.3122,-27.5 27.5,-27.5 15.1878,0 27.5,12.312169 27.5,27.5 z" />
    <circle
       id="connector69pin"
       cx="1300.000000"
       cy="100.000000"
       r="27.500000"
       stroke-width="20.000000"
       stroke="rgb(255, 191, 0)"
       fill="none"
       d="m 1327.5,100 c 0,15.18783 -12.3122,27.5 -27.5,27.5 -15.1878,0 -27.5,-12.31217 -27.5,-27.5 0,-15.187831 12.3122,-27.5 27.5,-27.5 15.1878,0 27.5,12.312169 27.5,27.5 z" />
    <circle
       id="connector59pin"
       cx="1300.000000"
       cy="200.000000"
       r="27.500000"
       stroke-width="20.000000"
       stroke="rgb(255, 191, 0)"
       fill="none"
       d="m 1327.5,200 c 0,15.18783 -12.3122,27.5 -27.5,27.5 -15.1878,0 -27.5,-12.31217 -27.5,-27.5 0,-15.18783 12.3122,-27.5 27.5,-27.5 15.1878,0 27.5,12.31217 27.5,27.5 z" />
    <circle
       id="connector47pin"
       cx="1100.000000"
       cy="300.000000"
       r="27.500000"
       stroke-width="20.000000"
       stroke="rgb(255, 191, 0)"
       fill="none"
       d="m 1127.5,300 c 0,15.18783 -12.3122,27.5 -27.5,27.5 -15.1878,0 -27.5,-12.31217 -27.5,-27.5 0,-15.18783 12.3122,-27.5 27.5,-27.5 15.1878,0 27.5,12.31217 27.5,27.5 z" />
    <circle
       id="connector49pin"
       cx="1300.000000"
       cy="300.000000"
       r="27.500000"
       stroke-width="20.000000"
       stroke="rgb(255, 191, 0)"
       fill="none"
       d="m 1327.5,300 c 0,15.18783 -12.3122,27.5 -27.5,27.5 -15.1878,0 -27.5,-12.31217 -27.5,-27.5 0,-15.18783 12.3122,-27.5 27.5,-27.5 15.1878,0 27.5,12.31217 27.5,27.5 z" />
    <circle
       id="connector37pin"
       cx="1100.000000"
       cy="400.000000"
       r="27.500000"
       stroke-width="20.000000"
       stroke="rgb(255, 191, 0)"
       fill="none"
       d="m 1127.5,400 c 0,15.18783 -12.3122,27.5 -27.5,27.5 -15.1878,0 -27.5,-12.31217 -27.5,-27.5 0,-15.18783 12.3122,-27.5 27.5,-27.5 15.1878,0 27.5,12.31217 27.5,27.5 z" />
    <circle
       id="connector39pin"
       cx="1300.000000"
       cy="400.000000"
       r="27.500000"
       stroke-width="20.000000"
       stroke="rgb(255, 191, 0)"
       fill="none"
       d="m 1327.5,400 c 0,15.18783 -12.3122,27.5 -27.5,27.5 -15.1878,0 -27.5,-12.31217 -27.5,-27.5 0,-15.18783 12.3122,-27.5 27.5,-27.5 15.1878,0 27.5,12.31217 27.5,27.5 z" />
    <circle
       id="connector29pin"
       cx="1300.000000"
       cy="500.000000"
       r="27.500000"
       stroke-width="20.000000"
       stroke="rgb(255, 191, 0)"
       fill="none"
       d="m 1327.5,500 c 0,15.18783 -12.3122,27.5 -27.5,27.5 -15.1878,0 -27.5,-12.31217 -27.5,-27.5 0,-15.18783 12.3122,-27.5 27.5,-27.5 15.1878,0 27.5,12.31217 27.5,27.5 z" />
    <circle
       id="connector0pin"
       cx="400.000000"
       cy="700.000000"
       r="27.500000"
       stroke-width="20.000000"
       stroke="rgb(255, 191, 0)"
       fill="none"
       d="m 427.5,700 c 0,15.18783 -12.31217,27.5 -27.5,27.5 -15.18783,0 -27.5,-12.31217 -27.5,-27.5 0,-15.18783 12.31217,-27.5 27.5,-27.5 15.18783,0 27.5,12.31217 27.5,27.5 z" />
    <rect
       x="372.500000"
       y="672.500000"
       width="55.000000"
       height="55.000000"
       id="rect77"
       stroke-width="20.000000"
       stroke="rgb(255, 191, 0)"
       fill="none" />
    <circle
       id="connector1pin"
       cx="500.000000"
       cy="700.000000"
       r="27.500000"
       stroke-width="20.000000"
       stroke="rgb(255, 191, 0)"
       fill="none"
       d="m 527.5,700 c 0,15.18783 -12.31217,27.5 -27.5,27.5 -15.18783,0 -27.5,-12.31217 -27.5,-27.5 0,-15.18783 12.31217,-27.5 27.5,-27.5 15.18783,0 27.5,12.31217 27.5,27.5 z" />
    <circle
       id="connector2pin"
       cx="600.000000"
       cy="700.000000"
       r="27.500000"
       stroke-width="20.000000"
       stroke="rgb(255, 191, 0)"
       fill="none"
       d="m 627.5,700 c 0,15.18783 -12.31217,27.5 -27.5,27.5 -15.18783,0 -27.5,-12.31217 -27.5,-27.5 0,-15.18783 12.31217,-27.5 27.5,-27.5 15.18783,0 27.5,12.31217 27.5,27.5 z" />
    <circle
       id="connector3pin"
       cx="700.000000"
       cy="700.000000"
       r="27.500000"
       stroke-width="20.000000"
       stroke="rgb(255, 191, 0)"
       fill="none"
       d="m 727.5,700 c 0,15.18783 -12.31217,27.5 -27.5,27.5 -15.18783,0 -27.5,-12.31217 -27.5,-27.5 0,-15.18783 12.31217,-27.5 27.5,-27.5 15.18783,0 27.5,12.31217 27.5,27.5 z" />
    <circle
       id="connector4pin"
       cx="800.000000"
       cy="700.000000"
       r="27.500000"
       stroke-width="20.000000"
       stroke="rgb(255, 191, 0)"
       fill="none"
       d="m 827.5,700 c 0,15.18783 -12.31217,27.5 -27.5,27.5 -15.18783,0 -27.5,-12.31217 -27.5,-27.5 0,-15.18783 12.31217,-27.5 27.5,-27.5 15.18783,0 27.5,12.31217 27.5,27.5 z" />
    <circle
       id="connector6pin"
       cx="1000.000000"
       cy="700.000000"
       r="27.500000"
       stroke-width="20.000000"
       stroke="rgb(255, 191, 0)"
       fill="none"
       d="m 1027.5,700 c 0,15.18783 -12.3122,27.5 -27.5,27.5 -15.18783,0 -27.5,-12.31217 -27.5,-27.5 0,-15.18783 12.31217,-27.5 27.5,-27.5 15.1878,0 27.5,12.31217 27.5,27.5 z" />
    <circle
       id="connector7pin"
       cx="1100.000000"
       cy="700.000000"
       r="27.500000"
       stroke-width="20.000000"
       stroke="rgb(255, 191, 0)"
       fill="none"
       d="m 1127.5,700 c 0,15.18783 -12.3122,27.5 -27.5,27.5 -15.1878,0 -27.5,-12.31217 -27.5,-27.5 0,-15.18783 12.3122,-27.5 27.5,-27.5 15.1878,0 27.5,12.31217 27.5,27.5 z" />
    <circle
       id="connector8pin"
       cx="1200.000000"
       cy="700.000000"
       r="27.500000"
       stroke-width="20.000000"
       stroke="rgb(255, 191, 0)"
       fill="none"
       d="m 1227.5,700 c 0,15.18783 -12.3122,27.5 -27.5,27.5 -15.1878,0 -27.5,-12.31217 -27.5,-27.5 0,-15.18783 12.3122,-27.5 27.5,-27.5 15.1878,0 27.5,12.31217 27.5,27.5 z" />
    <circle
       id="connector9pin"
       cx="1300.000000"
       cy="700.000000"
       r="27.500000"
       stroke-width="20.000000"
       stroke="rgb(255, 191, 0)"
       fill="none"
       d="m 1327.5,700 c 0,15.18783 -12.3122,27.5 -27.5,27.5 -15.1878,0 -27.5,-12.31217 -27.5,-27.5 0,-15.18783 12.3122,-27.5 27.5,-27.5 15.1878,0 27.5,12.31217 27.5,27.5 z" />
  </g>
</svg>
