<?xml version='1.0' encoding='UTF-8' standalone='no'?>
<!-- Created with Fritzing (http://www.fritzing.org/) -->
<svg xmlns="http://www.w3.org/2000/svg" width="2.35122in" x="0in" version="1.2" y="0in" height="2.1in" viewBox="0 0 169.288 151.2" baseProfile="tiny">
 <desc >Fritzing footprint generated by brd2svg</desc>
 <g  id="silkscreen" stroke-width="0">
  <path  fill="none" stroke="white" stroke-width="0.576" d="M0.375575,7.46057L7.55107,0.288L158.237,0.288L161.824,3.87428L161.824,25.392L169,32.5646L169,136.567L161.824,143.739L161.824,150.912L7.55107,150.912L0.375575,143.739L0.375575,7.46057M35.8231,136.8a0.916726,0.916726,0,1,0,1.83345,0,0.916726,0.916726,0,1,0,-1.83345,0zM27.3192,136.8a0.916726,0.916726,0,1,0,1.83345,0,0.916726,0.916726,0,1,0,-1.83345,0zM157.696,129.6a4.392,4.392,0,1,0,8.784,0,4.392,4.392,0,1,0,-8.784,0zM13.6958,7.2a4.392,4.392,0,1,0,8.784,0,4.392,4.392,0,1,0,-8.784,0z"/>
  <g  stroke-width="0">
   <title >element:C1</title>
   <g  stroke-width="0">
    <title >package:EIA3528</title>
   </g>
  </g>
  <g  stroke-width="0">
   <title >element:J9</title>
   <g  stroke-width="0">
    <title >package:1X03</title>
   </g>
  </g>
  <g  stroke-width="0">
   <title >element:JP0</title>
   <g  stroke-width="0">
    <title >package:1X03</title>
   </g>
  </g>
  <g  stroke-width="0">
   <title >element:JP1</title>
   <g  stroke-width="0">
    <title >package:1X03</title>
   </g>
  </g>
  <g  stroke-width="0">
   <title >element:JP2</title>
   <g  stroke-width="0">
    <title >package:1X03</title>
   </g>
  </g>
  <g  stroke-width="0">
   <title >element:JP3</title>
   <g  stroke-width="0">
    <title >package:1X03</title>
   </g>
  </g>
  <g  stroke-width="0">
   <title >element:JP4</title>
   <g  stroke-width="0">
    <title >package:1X03</title>
   </g>
  </g>
  <g  stroke-width="0">
   <title >element:JP5</title>
   <g  stroke-width="0">
    <title >package:1X03</title>
   </g>
  </g>
  <g  stroke-width="0">
   <title >element:JP6</title>
   <g  stroke-width="0">
    <title >package:1X03</title>
   </g>
  </g>
  <g  stroke-width="0">
   <title >element:JP7</title>
   <g  stroke-width="0">
    <title >package:1X03</title>
   </g>
  </g>
  <g  stroke-width="0">
   <title >element:JP8</title>
   <g  stroke-width="0">
    <title >package:1X03</title>
   </g>
  </g>
  <g  stroke-width="0">
   <title >element:JP9</title>
   <g  stroke-width="0">
    <title >package:1X07</title>
   </g>
  </g>
  <g  stroke-width="0">
   <title >element:JP10</title>
   <g  stroke-width="0">
    <title >package:1X03</title>
   </g>
  </g>
  <g  stroke-width="0">
   <title >element:JP11</title>
   <g  stroke-width="0">
    <title >package:1X03</title>
   </g>
  </g>
  <g  stroke-width="0">
   <title >element:JP12</title>
   <g  stroke-width="0">
    <title >package:1X03</title>
   </g>
  </g>
  <g  stroke-width="0">
   <title >element:JP13</title>
   <g  stroke-width="0">
    <title >package:1X03</title>
   </g>
  </g>
  <g  stroke-width="0">
   <title >element:JP14</title>
   <g  stroke-width="0">
    <title >package:1X03</title>
   </g>
  </g>
  <g  stroke-width="0">
   <title >element:JP15</title>
   <g  stroke-width="0">
    <title >package:1X03</title>
   </g>
  </g>
  <g  stroke-width="0">
   <title >element:JP16</title>
   <g  stroke-width="0">
    <title >package:SFE-NEW-WEBLOGO</title>
    <line  stroke="white" stroke-linecap="round" y1="76.5216" x1="81.311" y2="72.0648" stroke-width="0.072" x2="81.311"/>
    <line  stroke="white" stroke-linecap="round" y1="72.0648" x1="81.311" y2="72.0648" stroke-width="0.072" x2="80.1662"/>
    <line  stroke="white" stroke-linecap="round" y1="72.0648" x1="80.1662" y2="72.6912" stroke-width="0.072" x2="80.1662"/>
    <line  stroke="white" stroke-linecap="round" y1="72.6912" x1="80.1662" y2="72.6912" stroke-width="0.072" x2="80.1446"/>
    <path  fill="none" stroke="white" stroke-width="0.072" d="M80.0942,72.6696A0.0697323,0.0697323,0,0,0,80.1446,72.6912"/>
    <path  fill="none" stroke="white" stroke-width="0.072" d="M80.0582,72.6264A0.421795,0.421795,0,0,0,80.0942,72.6696"/>
    <path  fill="none" stroke="white" stroke-width="0.072" d="M80.0582,72.6264A15.2631,15.2631,0,0,0,79.979,72.5184"/>
    <path  fill="none" stroke="white" stroke-width="0.072" d="M79.979,72.5184A1.3286,1.3286,0,0,0,79.7342,72.2664"/>
    <path  fill="none" stroke="white" stroke-width="0.072" d="M79.7342,72.2664A1.44708,1.44708,0,0,0,78.899,71.9569"/>
    <path  fill="none" stroke="white" stroke-width="0.072" d="M78.899,71.9569A4.25254,4.25254,0,0,0,78.3302,71.9711"/>
    <path  fill="none" stroke="white" stroke-width="0.072" d="M78.3302,71.9711A1.23449,1.23449,0,0,0,77.5742,72.324"/>
    <path  fill="none" stroke="white" stroke-width="0.072" d="M77.5742,72.324A1.26113,1.26113,0,0,0,77.2502,72.8712"/>
    <path  fill="none" stroke="white" stroke-width="0.072" d="M77.2502,72.8712A2.40945,2.40945,0,0,0,77.1566,73.5048"/>
    <line  stroke="white" stroke-linecap="round" y1="73.5048" x1="77.1566" y2="76.4928" stroke-width="0.072" x2="77.1566"/>
    <line  stroke="white" stroke-linecap="round" y1="76.4928" x1="77.1566" y2="76.4928" stroke-width="0.072" x2="78.3158"/>
    <line  stroke="white" stroke-linecap="round" y1="76.4928" x1="78.3158" y2="73.7568" stroke-width="0.072" x2="78.3158"/>
    <path  fill="none" stroke="white" stroke-width="0.072" d="M78.4814,73.1592A1.16164,1.16164,0,0,0,78.3158,73.7568"/>
    <path  fill="none" stroke="white" stroke-width="0.072" d="M78.8126,72.8856A0.643181,0.643181,0,0,0,78.4814,73.1592"/>
    <path  fill="none" stroke="white" stroke-width="0.072" d="M78.9998,72.8568A0.481607,0.481607,0,0,0,78.8126,72.8856"/>
    <path  fill="none" stroke="white" stroke-width="0.072" d="M78.9998,72.8568A128.104,128.104,0,0,0,79.3166,72.8712"/>
    <path  fill="none" stroke="white" stroke-width="0.072" d="M79.7702,73.0512A0.743242,0.743242,0,0,0,79.3166,72.8712"/>
    <path  fill="none" stroke="white" stroke-width="0.072" d="M80.0294,73.4184A0.928627,0.928627,0,0,0,79.7702,73.0512"/>
    <path  fill="none" stroke="white" stroke-width="0.072" d="M80.1158,73.8648A1.28097,1.28097,0,0,0,80.0294,73.4184"/>
    <path  fill="none" stroke="white" stroke-width="0.072" d="M80.1158,74.0592A7.57584,7.57584,0,0,0,80.1158,73.8648"/>
    <line  stroke="white" stroke-linecap="round" y1="74.0592" x1="80.1158" y2="76.5216" stroke-width="0.072" x2="80.1158"/>
    <line  stroke="white" stroke-linecap="round" y1="76.5216" x1="80.1158" y2="76.5216" stroke-width="0.072" x2="81.311"/>
    <line  stroke="white" stroke-linecap="round" y1="71.7911" x1="67.6094" y2="72.7056" stroke-width="0.072" x2="67.6094"/>
    <line  stroke="white" stroke-linecap="round" y1="72.7056" x1="67.6094" y2="72.7056" stroke-width="0.072" x2="67.6743"/>
    <path  fill="none" stroke="white" stroke-width="0.072" d="M68.3798,73.0512A0.893477,0.893477,0,0,0,67.6743,72.7056"/>
    <path  fill="none" stroke="white" stroke-width="0.072" d="M68.6894,73.8576A1.49273,1.49273,0,0,0,68.3798,73.0512"/>
    <path  fill="none" stroke="white" stroke-width="0.072" d="M68.6823,74.556A4.20605,4.20605,0,0,0,68.6894,73.8576"/>
    <path  fill="none" stroke="white" stroke-width="0.072" d="M68.4878,75.204A1.71723,1.71723,0,0,0,68.6823,74.556"/>
    <path  fill="none" stroke="white" stroke-width="0.072" d="M67.955,75.6504A0.928915,0.928915,0,0,0,68.4878,75.204"/>
    <path  fill="none" stroke="white" stroke-width="0.072" d="M67.0048,75.5928A1.29997,1.29997,0,0,0,67.955,75.6504"/>
    <path  fill="none" stroke="white" stroke-width="0.072" d="M66.5943,75.204A0.888948,0.888948,0,0,0,67.0048,75.5928"/>
    <path  fill="none" stroke="white" stroke-width="0.072" d="M66.371,74.3256A1.90913,1.90913,0,0,0,66.5943,75.204"/>
    <path  fill="none" stroke="white" stroke-width="0.072" d="M66.4503,73.6128A2.988,2.988,0,0,0,66.371,74.3256"/>
    <path  fill="none" stroke="white" stroke-width="0.072" d="M66.8103,72.9504A1.4298,1.4298,0,0,0,66.4503,73.6128"/>
    <path  fill="none" stroke="white" stroke-width="0.072" d="M67.1054,72.7632A0.733608,0.733608,0,0,0,66.8103,72.9504"/>
    <path  fill="none" stroke="white" stroke-width="0.072" d="M67.5518,72.6912A1.37537,1.37537,0,0,0,67.1054,72.7632"/>
    <line  stroke="white" stroke-linecap="round" y1="72.6912" x1="67.5518" y2="71.7911" stroke-width="0.072" x2="67.5518"/>
    <line  stroke="white" stroke-linecap="round" y1="71.7911" x1="67.5518" y2="71.7911" stroke-width="0.072" x2="67.5088"/>
    <path  fill="none" stroke="white" stroke-width="0.072" d="M67.5088,71.7911A2.57046,2.57046,0,0,0,66.875,71.8705"/>
    <path  fill="none" stroke="white" stroke-width="0.072" d="M66.875,71.8705A2.21414,2.21414,0,0,0,65.9678,72.3456"/>
    <path  fill="none" stroke="white" stroke-width="0.072" d="M65.9678,72.3456A2.26233,2.26233,0,0,0,65.1903,74.0736"/>
    <path  fill="none" stroke="white" stroke-width="0.072" d="M65.1903,74.0736A3.49739,3.49739,0,0,0,65.435,75.3264"/>
    <path  fill="none" stroke="white" stroke-width="0.072" d="M65.435,75.3264A1.90488,1.90488,0,0,0,66.6088,76.4352"/>
    <path  fill="none" stroke="white" stroke-width="0.072" d="M66.6088,76.4352A3.13852,3.13852,0,0,0,67.631,76.5936"/>
    <path  fill="none" stroke="white" stroke-width="0.072" d="M67.631,76.5936A2.51122,2.51122,0,0,0,69.1934,76.0248"/>
    <path  fill="none" stroke="white" stroke-width="0.072" d="M69.1934,76.0248A1.6458,1.6458,0,0,0,69.5608,75.6"/>
    <path  fill="none" stroke="white" stroke-width="0.072" d="M69.5608,75.6A2.38564,2.38564,0,0,0,69.8703,74.7576"/>
    <path  fill="none" stroke="white" stroke-width="0.072" d="M69.8703,74.7576A3.21761,3.21761,0,0,0,69.863,73.6704"/>
    <path  fill="none" stroke="white" stroke-width="0.072" d="M69.863,73.6704A2.22888,2.22888,0,0,0,68.8048,72.144"/>
    <path  fill="none" stroke="white" stroke-width="0.072" d="M68.8048,72.144A2.54041,2.54041,0,0,0,67.6094,71.7911"/>
    <g  stroke-width="0">
     <title >polygon</title>
     <path  fill="white" stroke="none" stroke-linecap="round" stroke-width="0" d="M111.652,75.096L111.645,75.1968M111.645,75.1968L111.616,75.3624M111.616,75.3624L111.493,75.7224M111.493,75.7224L111.406,75.8916M111.406,75.8916L111.287,76.0399M111.287,76.0399L111.141,76.1616M111.141,76.1616L110.802,76.3776M110.802,76.3776L110.56,76.4899M110.56,76.4899L110.298,76.5504M110.298,76.5504L109.571,76.6008M109.571,76.6008L109.195,76.5878M109.195,76.5878L108.822,76.536M108.822,76.536L108.539,76.4561M108.539,76.4561L108.274,76.3279M108.274,76.3279L108.035,76.1558M108.035,76.1558L107.829,75.9456M107.829,75.9456L107.721,75.7858M107.721,75.7858L107.646,75.6086M107.646,75.6086L107.605,75.42M107.605,75.42L107.584,75.1248M107.584,75.1248L107.61,74.826M107.61,74.826L107.706,74.5416M107.706,74.5416L107.778,74.425M107.778,74.425L107.872,74.3256M107.872,74.3256L108.068,74.1816M108.068,74.1816L108.282,74.0664M108.282,74.0664L108.752,73.8936M108.752,73.8936L109.24,73.7856M109.24,73.7856L109.816,73.6704M109.816,73.6704L110.035,73.5912M110.035,73.5912L110.233,73.4688M110.233,73.4688L110.321,73.3788M110.321,73.3788L110.377,73.2672M110.377,73.2672L110.398,73.152M110.398,73.152L110.382,73.0354M110.382,73.0354L110.334,72.9288M110.334,72.9288L110.262,72.8453M110.262,72.8453L110.169,72.7848M110.169,72.7848L110.042,72.738M110.042,72.738L109.909,72.7128M109.909,72.7128L109.665,72.6998M109.665,72.6998L109.42,72.7128M109.42,72.7128L109.274,72.7423M109.274,72.7423L109.135,72.7978M109.135,72.7978L109.009,72.8784M109.009,72.8784L108.926,72.9583M108.926,72.9583L108.86,73.0534M108.86,73.0534L108.815,73.1592M108.815,73.1592L108.798,73.2341M108.798,73.2341L108.793,73.3104M108.793,73.3104L107.692,73.3104M107.692,73.3104L107.713,73.1088M107.713,73.1088L108.297,72.7416M108.297,72.7416L109.585,72.3672M109.585,72.3672L110.773,72.6768M110.773,72.6768L110.622,73.5408M110.622,73.5408L109.377,74.2824M109.377,74.2824L108.174,74.9376M108.174,74.9376L108.484,75.8592M108.484,75.8592L109.6,76.1112M109.6,76.1112L111.652,75.096M110.361,76.536L108.822,76.536M110.616,76.464L108.568,76.464M110.771,76.392L108.407,76.392M110.893,76.32L108.263,76.32M111.005,76.248L108.163,76.248M111.118,76.176L108.063,76.176M111.21,76.104L109.614,76.104M109.568,76.104L107.984,76.104M111.293,76.032L109.76,76.032M109.249,76.032L107.914,76.032M111.351,75.96L109.905,75.96M108.931,75.96L107.843,75.96M111.408,75.888L110.051,75.888M108.612,75.888L107.79,75.888M111.445,75.816L110.196,75.816M108.469,75.816L107.742,75.816M111.483,75.744L110.341,75.744M108.445,75.744L107.703,75.744M111.511,75.672L110.488,75.672M108.421,75.672L107.673,75.672M111.535,75.6L110.633,75.6M108.397,75.6L107.644,75.6M111.56,75.528L110.778,75.528M108.372,75.528L107.628,75.528M111.584,75.456L110.924,75.456M108.348,75.456L107.613,75.456M111.609,75.384L111.069,75.384M108.324,75.384L107.603,75.384M111.625,75.312L111.215,75.312M108.3,75.312L107.598,75.312M111.637,75.24L111.361,75.24M108.276,75.24L107.592,75.24M111.647,75.168L111.506,75.168M108.252,75.168L107.587,75.168M108.228,75.096L107.587,75.096M108.203,75.024L107.592,75.024M108.179,74.952L107.599,74.952M108.28,74.88L107.605,74.88M108.412,74.808L107.616,74.808M108.544,74.736L107.641,74.736M108.677,74.664L107.665,74.664M108.809,74.592L107.69,74.592M108.941,74.52L107.719,74.52M109.074,74.448L107.763,74.448M109.205,74.376L107.824,74.376M109.337,74.304L107.901,74.304M109.462,74.232L107.999,74.232M109.583,74.16L108.107,74.16M109.704,74.088L108.242,74.088M109.824,74.016L108.419,74.016M109.945,73.944L108.615,73.944M110.066,73.872L108.849,73.872M110.187,73.8L109.174,73.8M110.308,73.728L109.528,73.728M110.429,73.656L109.855,73.656M110.55,73.584L110.046,73.584M110.627,73.512L110.164,73.512M110.64,73.44L110.262,73.44M110.652,73.368L110.326,73.368M110.665,73.296L110.362,73.296M108.795,73.296L107.693,73.296M110.678,73.224L110.385,73.224M108.801,73.224L107.701,73.224M110.691,73.152L110.398,73.152M108.818,73.152L107.708,73.152M110.703,73.08L110.389,73.08M108.85,73.08L107.759,73.08M110.716,73.008L110.37,73.008M108.892,73.008L107.873,73.008M110.728,72.936L110.338,72.936M108.95,72.936L107.988,72.936M110.741,72.864L110.277,72.864M109.032,72.864L108.102,72.864M110.753,72.792L110.18,72.792M109.15,72.792L108.217,72.792M110.766,72.72L109.947,72.72M109.385,72.72L108.371,72.72M110.663,72.648L108.618,72.648M110.386,72.576L108.866,72.576M110.11,72.504L109.114,72.504M109.835,72.432L109.362,72.432"/>
    </g>
    <g  stroke-width="0">
     <title >polygon</title>
     <path  fill="white" stroke="none" stroke-linecap="round" stroke-width="0" d="M107.713,73.0872L107.771,72.9288M107.771,72.9288L107.872,72.7056M107.872,72.7056L107.953,72.5803M107.953,72.5803L108.052,72.468M108.052,72.468L108.324,72.2534M108.324,72.2534L108.635,72.1008M108.635,72.1008L109.018,71.9963M109.018,71.9963L109.413,71.9569M109.413,71.9569L109.924,71.9569M109.924,71.9569L110.329,72.0007M110.329,72.0007L110.72,72.1174M110.72,72.1174L111.083,72.3024M111.083,72.3024L111.218,72.4068M111.218,72.4068L111.329,72.5357M111.329,72.5357L111.414,72.684M111.414,72.684L111.516,72.9907M111.516,72.9907L111.552,73.3126M111.552,73.3126L111.522,73.6344M111.522,73.6344L111.48,73.7734M111.48,73.7734L111.409,73.9001M111.409,73.9001L111.313,74.0088M111.313,74.0088L111.122,74.1614M111.122,74.1614L110.909,74.2824M110.909,74.2824L110.68,74.3688M110.68,74.3688L109.65,74.6136M109.65,74.6136L109.315,74.7014M109.315,74.7014L108.995,74.8368M108.995,74.8368L108.893,74.9066M108.893,74.9066L108.812,75.0002M108.812,75.0002L108.757,75.1104M108.757,75.1104L108.731,75.2314M108.731,75.2314L108.736,75.3552M108.736,75.3552L108.772,75.4733M108.772,75.4733L108.835,75.5784M108.835,75.5784L108.923,75.6648M108.923,75.6648L109.075,75.7577M109.075,75.7577L109.243,75.816M109.243,75.816L109.42,75.8376M109.42,75.8376L109.801,75.8376M109.801,75.8376L109.967,75.816M109.967,75.816L110.141,75.7519M110.141,75.7519L110.297,75.6518M110.297,75.6518L110.428,75.5208M110.428,75.5208L110.505,75.3962M110.505,75.3962L110.549,75.2566M110.549,75.2566L110.557,75.1104M110.557,75.1104L110.557,75.096M110.557,75.096L111.652,75.096M111.652,75.096L109.629,76.1616M109.629,76.1616L108.462,75.9024M108.462,75.9024L108.145,74.9592M108.145,74.9592L108.196,74.8584M108.196,74.8584L110.536,73.4976M110.536,73.4976L110.673,72.72M110.673,72.72L109.6,72.396M109.6,72.396L108.405,72.7776M108.405,72.7776L107.85,73.188M107.85,73.188L107.713,73.0872M109.738,76.104L109.37,76.104M109.875,76.032L109.045,76.032M110.012,75.96L108.721,75.96M110.148,75.888L108.457,75.888M110.285,75.816L109.967,75.816M109.246,75.816L108.433,75.816M110.421,75.744L110.153,75.744M109.053,75.744L108.41,75.744M110.558,75.672L110.266,75.672M108.935,75.672L108.385,75.672M110.695,75.6L110.349,75.6M108.857,75.6L108.361,75.6M110.832,75.528L110.421,75.528M108.805,75.528L108.337,75.528M110.969,75.456L110.468,75.456M108.766,75.456L108.312,75.456M111.105,75.384L110.508,75.384M108.744,75.384L108.288,75.384M111.242,75.312L110.531,75.312M108.734,75.312L108.264,75.312M111.379,75.24L110.55,75.24M108.731,75.24L108.24,75.24M111.515,75.168L110.554,75.168M108.744,75.168L108.216,75.168M108.764,75.096L108.192,75.096M108.8,75.024L108.167,75.024M108.854,74.952L108.149,74.952M108.932,74.88L108.185,74.88M109.063,74.808L108.283,74.808M109.233,74.736L108.406,74.736M109.457,74.664L108.53,74.664M109.741,74.592L108.654,74.592M110.044,74.52L108.778,74.52M110.347,74.448L108.901,74.448M110.65,74.376L109.025,74.376M110.852,74.304L109.149,74.304M110.998,74.232L109.273,74.232M111.124,74.16L109.397,74.16M111.214,74.088L109.521,74.088M111.305,74.016L109.644,74.016M111.37,73.944L109.768,73.944M111.424,73.872L109.892,73.872M111.465,73.8L110.016,73.8M111.493,73.728L110.14,73.728M111.516,73.656L110.263,73.656M111.527,73.584L110.387,73.584M111.534,73.512L110.511,73.512M111.541,73.44L110.546,73.44M111.547,73.368L110.559,73.368M111.55,73.296L110.571,73.296M111.542,73.224L110.584,73.224M111.534,73.152L110.596,73.152M107.899,73.152L107.801,73.152M111.526,73.08L110.609,73.08M107.996,73.08L107.716,73.08M111.517,73.008L110.622,73.008M108.094,73.008L107.742,73.008M111.497,72.936L110.634,72.936M108.191,72.936L107.768,72.936M111.473,72.864L110.647,72.864M108.288,72.864L107.8,72.864M111.45,72.792L110.66,72.792M108.385,72.792L107.833,72.792M111.426,72.72L110.673,72.72M108.585,72.72L107.865,72.72M111.393,72.648L110.434,72.648M108.811,72.648L107.909,72.648M111.352,72.576L110.196,72.576M109.036,72.576L107.956,72.576M111.301,72.504L109.958,72.504M109.261,72.504L108.02,72.504M111.239,72.432L109.719,72.432M109.488,72.432L108.097,72.432M111.157,72.36L108.189,72.36M111.054,72.288L108.28,72.288M110.913,72.216L108.4,72.216M110.772,72.144L108.547,72.144M110.568,72.072L108.741,72.072M110.321,72L109.004,72"/>
    </g>
    <g  stroke-width="0">
     <title >polygon</title>
     <path  fill="white" stroke="none" stroke-linecap="round" stroke-width="0" d="M105.892,72.0504L105.899,72.6192M105.899,72.6192L105.877,72.6408M105.877,72.6408L105.863,72.648M105.863,72.648L105.798,72.576M105.798,72.576L105.546,72.3024M105.546,72.3024L105.449,72.2174M105.449,72.2174L105.337,72.1512M105.337,72.1512L104.963,72M104.963,72L104.826,71.9711M104.826,71.9711L104.265,71.964M104.265,71.964L103.957,72.0158M103.957,72.0158L103.667,72.1296M103.667,72.1296L103.411,72.283M103.411,72.283L103.177,72.468M103.177,72.468L102.954,72.72M102.954,72.72L102.789,73.0152M102.789,73.0152L102.598,73.6142M102.598,73.6142L102.518,74.2378M102.518,74.2378L102.551,74.8656M102.551,74.8656L102.642,75.2558M102.642,75.2558L102.8,75.6245M102.8,75.6245L103.019,75.96M103.019,75.96L103.206,76.1602M103.206,76.1602L103.423,76.3258M103.423,76.3258L103.666,76.4525M103.666,76.4525L103.926,76.536M103.926,76.536L104.27,76.5893M104.27,76.5893L104.618,76.5943M104.618,76.5943L104.963,76.5504M104.963,76.5504L105.202,76.4755M105.202,76.4755L105.42,76.3517M105.42,76.3517L105.607,76.1846M105.607,76.1846L105.755,75.9816M105.755,75.9816L105.755,75.1392M105.755,75.1392L105.733,75.1176M105.733,75.1176L105.733,75.132M105.733,75.132L105.728,75.1594M105.728,75.1594L105.712,75.1824M105.712,75.1824L105.697,75.204M105.697,75.204L105.61,75.3674M105.61,75.3674L105.488,75.5071M105.488,75.5071L105.337,75.6144M105.337,75.6144L105.139,75.7001M105.139,75.7001L104.927,75.744M104.927,75.744L104.661,75.7454M104.661,75.7454L104.401,75.6936M104.401,75.6936L104.184,75.5942M104.184,75.5942L104,75.4416M104,75.4416L103.86,75.2479M103.86,75.2479L103.775,75.024M103.775,75.024L103.688,74.466M103.688,74.466L103.689,73.9008M103.689,73.9008L103.744,73.6186M103.744,73.6186L103.862,73.3558M103.862,73.3558L104.036,73.1268M104.036,73.1268L104.257,72.9432M104.257,72.9432L104.406,72.8662M104.406,72.8662L104.566,72.8201M104.566,72.8201L104.733,72.8064M104.733,72.8064L105.042,72.8208M105.042,72.8208L105.155,72.8438M105.155,72.8438L105.258,72.8928M105.258,72.8928L105.466,73.0548M105.466,73.0548L105.64,73.2528M105.64,73.2528L105.761,73.4594M105.761,73.4594L105.839,73.6855M105.839,73.6855L105.87,73.9224M105.87,73.9224L105.863,74.6496M105.863,74.6496L105.827,74.8728M105.827,74.8728L105.762,75.0672M105.762,75.0672L105.762,75.0773M105.762,75.0773L105.765,75.0874M105.765,75.0874L105.773,75.0946M105.773,75.0946L105.784,75.096M105.784,75.096L105.82,75.096M105.82,75.096L105.82,75.9744M105.82,75.9744L105.82,79.1496M105.82,79.1496L106.993,78.0912M106.993,78.0912L106.993,72.2808M106.993,72.2808L106.993,72.2592M106.993,72.2592L105.892,72.0504M105.844,79.128L105.82,79.128M105.924,79.056L105.82,79.056M106.003,78.984L105.82,78.984M106.083,78.912L105.82,78.912M106.163,78.84L105.82,78.84M106.242,78.768L105.82,78.768M106.322,78.696L105.82,78.696M106.402,78.624L105.82,78.624M106.482,78.552L105.82,78.552M106.562,78.48L105.82,78.48M106.642,78.408L105.82,78.408M106.722,78.336L105.82,78.336M106.801,78.264L105.82,78.264M106.881,78.192L105.82,78.192M106.961,78.12L105.82,78.12M106.993,78.048L105.82,78.048M106.993,77.976L105.82,77.976M106.993,77.904L105.82,77.904M106.993,77.832L105.82,77.832M106.993,77.76L105.82,77.76M106.993,77.688L105.82,77.688M106.993,77.616L105.82,77.616M106.993,77.544L105.82,77.544M106.993,77.472L105.82,77.472M106.993,77.4L105.82,77.4M106.993,77.328L105.82,77.328M106.993,77.256L105.82,77.256M106.993,77.184L105.82,77.184M106.993,77.112L105.82,77.112M106.993,77.04L105.82,77.04M106.993,76.968L105.82,76.968M106.993,76.896L105.82,76.896M106.993,76.824L105.82,76.824M106.993,76.752L105.82,76.752M106.993,76.68L105.82,76.68M106.993,76.608L105.82,76.608M106.993,76.536L105.82,76.536M105.009,76.536L103.926,76.536M106.993,76.464L105.82,76.464M105.222,76.464L103.702,76.464M106.993,76.392L105.82,76.392M105.349,76.392L103.55,76.392M106.993,76.32L105.82,76.32M105.456,76.32L103.415,76.32M106.993,76.248L105.82,76.248M105.536,76.248L103.321,76.248M106.993,76.176L105.82,76.176M105.613,76.176L103.226,76.176M106.993,76.104L105.82,76.104M105.666,76.104L103.153,76.104M106.993,76.032L105.82,76.032M105.718,76.032L103.086,76.032M106.993,75.96L105.82,75.96M105.755,75.96L103.019,75.96M106.993,75.888L105.82,75.888M105.755,75.888L102.972,75.888M106.993,75.816L105.82,75.816M105.755,75.816L102.925,75.816M106.993,75.744L105.82,75.744M105.755,75.744L104.927,75.744M104.653,75.744L102.878,75.744M106.993,75.672L105.82,75.672M105.755,75.672L105.204,75.672M104.355,75.672L102.831,75.672M106.993,75.6L105.82,75.6M105.755,75.6L105.358,75.6M104.197,75.6L102.789,75.6M106.993,75.528L105.82,75.528M105.755,75.528L105.459,75.528M104.104,75.528L102.758,75.528M106.993,75.456L105.82,75.456M105.755,75.456L105.533,75.456M104.017,75.456L102.728,75.456M106.993,75.384L105.82,75.384M105.755,75.384L105.596,75.384M103.958,75.384L102.697,75.384M106.993,75.312L105.82,75.312M105.755,75.312L105.64,75.312M103.907,75.312L102.667,75.312M106.993,75.24L105.82,75.24M105.755,75.24L105.679,75.24M103.857,75.24L102.639,75.24M106.993,75.168L105.82,75.168M105.755,75.168L105.722,75.168M103.83,75.168L102.622,75.168M106.993,75.096L105.784,75.096M103.802,75.096L102.605,75.096M106.993,75.024L105.777,75.024M103.775,75.024L102.588,75.024M106.993,74.952L105.801,74.952M103.764,74.952L102.571,74.952M106.993,74.88L105.825,74.88M103.753,74.88L102.554,74.88M106.993,74.808L105.837,74.808M103.741,74.808L102.548,74.808M106.993,74.736L105.849,74.736M103.73,74.736L102.544,74.736M106.993,74.664L105.861,74.664M103.719,74.664L102.54,74.664M106.993,74.592L105.864,74.592M103.707,74.592L102.537,74.592M106.993,74.52L105.864,74.52M103.696,74.52L102.532,74.52M106.993,74.448L105.865,74.448M103.688,74.448L102.529,74.448M106.993,74.376L105.866,74.376M103.688,74.376L102.525,74.376M106.993,74.304L105.867,74.304M103.688,74.304L102.522,74.304M106.993,74.232L105.867,74.232M103.688,74.232L102.519,74.232M106.993,74.16L105.868,74.16M103.688,74.16L102.528,74.16M106.993,74.088L105.869,74.088M103.688,74.088L102.537,74.088M106.993,74.016L105.87,74.016M103.689,74.016L102.547,74.016M106.993,73.944L105.87,73.944M103.689,73.944L102.555,73.944M106.993,73.872L105.864,73.872M103.694,73.872L102.565,73.872M106.993,73.8L105.854,73.8M103.709,73.8L102.574,73.8M106.993,73.728L105.844,73.728M103.722,73.728L102.583,73.728M106.993,73.656L105.828,73.656M103.737,73.656L102.593,73.656M106.993,73.584L105.803,73.584M103.76,73.584L102.607,73.584M106.993,73.512L105.779,73.512M103.792,73.512L102.63,73.512M106.993,73.44L105.749,73.44M103.824,73.44L102.653,73.44M106.993,73.368L105.707,73.368M103.856,73.368L102.676,73.368M106.993,73.296L105.665,73.296M103.908,73.296L102.699,73.296M106.993,73.224L105.615,73.224M103.962,73.224L102.722,73.224M106.993,73.152L105.551,73.152M104.017,73.152L102.745,73.152M106.993,73.08L105.488,73.08M104.093,73.08L102.768,73.08M106.993,73.008L105.405,73.008M104.179,73.008L102.793,73.008M106.993,72.936L105.314,72.936M104.271,72.936L102.833,72.936M106.993,72.864L105.198,72.864M104.414,72.864L102.874,72.864M106.993,72.792L102.913,72.792M106.993,72.72L102.954,72.72M106.993,72.648L105.863,72.648M105.863,72.648L103.018,72.648M106.993,72.576L105.898,72.576M105.798,72.576L103.082,72.576M106.993,72.504L105.898,72.504M105.732,72.504L103.146,72.504M106.993,72.432L105.896,72.432M105.666,72.432L103.223,72.432M106.993,72.36L105.895,72.36M105.6,72.36L103.314,72.36M106.993,72.288L105.895,72.288M105.53,72.288L103.405,72.288M106.766,72.216L105.894,72.216M105.447,72.216L103.523,72.216M106.386,72.144L105.893,72.144M105.32,72.144L103.643,72.144M106.006,72.072L105.892,72.072M105.142,72.072L103.815,72.072M104.963,72L104.053,72"/>
    </g>
    <g  stroke-width="0">
     <title >polygon</title>
     <path  fill="white" stroke="none" stroke-linecap="round" stroke-width="0" d="M89.699,65.6495L89.8358,65.628M89.8358,65.628L90.1022,65.607M90.1022,65.607L90.3686,65.628M90.3686,65.628L90.5666,65.6801M90.5666,65.6801L90.751,65.7711M90.751,65.7711L90.9122,65.897M90.9122,65.897L91.0454,66.0529M91.0454,66.0529L91.1592,66.2604M91.1592,66.2604L91.2276,66.4869M91.2276,66.4869L91.247,66.7225M91.247,66.7225L91.247,71.0209M91.247,71.0209L89.8646,69.4655M89.8646,69.4655L89.6184,69.2402M89.6184,69.2402L89.3318,69.0695M89.3318,69.0695L89.2267,69.0313M89.2267,69.0313L89.1158,69.012M89.1158,69.012L88.4678,69.012M88.4678,69.012L88.0812,68.9769M88.0812,68.9769L87.7075,68.8725M87.7075,68.8725L87.359,68.7025M87.359,68.7025L87.0307,68.4708M87.0307,68.4708L86.7384,68.1953M86.7384,68.1953L86.4878,67.8815M86.4878,67.8815L86.2193,67.405M86.2193,67.405L86.0414,66.888M86.0414,66.888L85.9601,66.3474M85.9601,66.3474L85.9766,65.8009M85.9766,65.8009L86.0357,65.5061M86.0357,65.5061L86.1372,65.2232M86.1372,65.2232L86.279,64.9585M86.279,64.9585L86.5361,64.6361M86.5361,64.6361L86.855,64.3751M86.855,64.3751L86.855,64.6271M86.855,64.6271L86.8608,64.6682M86.8608,64.6682L86.8766,64.7065M86.8766,64.7065L86.9609,64.8105M86.9609,64.8105L87.071,64.8865M87.071,64.8865L87.1286,64.908M87.1286,64.908L87.2906,64.9256M87.2906,64.9256L87.4512,64.8958M87.4512,64.8958L87.5966,64.8215M87.5966,64.8215L87.8558,64.6345M87.8558,64.6345L87.9761,64.5313M87.9761,64.5313L88.079,64.4111M88.079,64.4111L88.1618,64.2764M88.1618,64.2764L88.223,64.1305M88.223,64.1305L88.241,64.0377M88.241,64.0377L88.2374,63.9431M88.2374,63.9431L88.1906,63.7872M88.1906,63.7872L88.1042,63.6489M88.1042,63.6489L87.9854,63.5375M87.9854,63.5375L87.8414,63.4609M87.8414,63.4609L87.696,63.4201M87.696,63.4201L87.5462,63.4031M87.5462,63.4031L87.3734,63.4031M87.3734,63.4031L87.3734,63.4031M87.3734,63.4031L87.3806,63.396M87.3806,63.396L87.5038,63.3002M87.5038,63.3002L87.647,63.2375M87.647,63.2375L87.7478,63.1945M87.7478,63.1945L87.8126,63.1655M87.8126,63.1655L88.0618,63.1035M88.0618,63.1035L88.3166,63.0791M88.3166,63.0791L88.5629,63.0978M88.5629,63.0978L88.8012,63.1636M88.8012,63.1636L89.0222,63.2735M89.0222,63.2735L89.2426,63.4323M89.2426,63.4323L89.4398,63.6191M89.4398,63.6191L89.5622,63.7903M89.5622,63.7903L89.6378,63.9865M89.6378,63.9865L89.6623,64.1953M89.6623,64.1953L89.6342,64.4037M89.6342,64.4037L89.555,64.5985M89.555,64.5985L89.2188,65.0971M89.2188,65.0971L88.8062,65.5345M88.8062,65.5345L88.6975,65.662M88.6975,65.662L88.6255,65.8131M88.6255,65.8131L88.5953,65.9775M88.5953,65.9775L88.6082,66.1445M88.6082,66.1445L88.6637,66.3024M88.6637,66.3024L88.7587,66.4404M88.7587,66.4404L88.8854,66.5495M88.8854,66.5495L89.0453,66.6357M89.0453,66.6357L89.2174,66.6938M89.2174,66.6938L89.3966,66.7225M89.3966,66.7225L89.6069,66.712M89.6069,66.712L89.807,66.6508M89.807,66.6508L89.987,66.5425M89.987,66.5425L90.0821,66.4421M90.0821,66.4421L90.1454,66.3191M90.1454,66.3191L90.1735,66.1929M90.1735,66.1929L90.1735,66.0637M90.1735,66.0637L90.1454,65.9375M90.1454,65.9375L90.1202,65.8891M90.1202,65.8891L90.0806,65.8511M90.0806,65.8511L89.843,65.6785M89.843,65.6785L89.7984,65.6546M89.7984,65.6546L89.7494,65.6447M89.7494,65.6447L89.699,65.6495M91.247,70.992L91.2211,70.992M91.247,70.92L91.157,70.92M91.247,70.848L91.0937,70.848M91.247,70.776L91.0296,70.776M91.247,70.704L90.9655,70.704M91.247,70.632L90.9014,70.632M91.247,70.56L90.8374,70.56M91.247,70.488L90.7733,70.488M91.247,70.416L90.7092,70.416M91.247,70.344L90.6451,70.344M91.247,70.272L90.5818,70.272M91.247,70.2L90.5177,70.2M91.247,70.128L90.4536,70.128M91.247,70.056L90.3895,70.056M91.247,69.984L90.3254,69.984M91.247,69.912L90.2614,69.912M91.247,69.84L90.1973,69.84M91.247,69.768L90.1339,69.768M91.247,69.696L90.0698,69.696M91.247,69.624L90.0058,69.624M91.247,69.552L89.9417,69.552M91.247,69.48L89.8776,69.48M91.247,69.408L89.802,69.408M91.247,69.336L89.7235,69.336M91.247,69.264L89.645,69.264M91.247,69.192L89.5378,69.192M91.247,69.12L89.4168,69.12M91.247,69.048L89.2728,69.048M91.247,68.976L88.0783,68.976M91.247,68.904L87.8206,68.904M91.247,68.832L87.6247,68.832M91.247,68.76L87.4771,68.76M91.247,68.688L87.3389,68.688M91.247,68.616L87.2366,68.616M91.247,68.544L87.1344,68.544M91.247,68.472L87.0322,68.472M91.247,68.4L86.9558,68.4M91.247,68.328L86.8795,68.328M91.247,68.256L86.8025,68.256M91.247,68.184L86.7298,68.184M91.247,68.112L86.6722,68.112M91.247,68.04L86.6146,68.04M91.247,67.968L86.557,67.968M91.247,67.896L86.4994,67.896M91.247,67.824L86.4554,67.824M91.247,67.752L86.4151,67.752M91.247,67.68L86.3748,67.68M91.247,67.608L86.3338,67.608M91.247,67.536L86.2934,67.536M91.247,67.464L86.2531,67.464M91.247,67.392L86.215,67.392M91.247,67.32L86.1905,67.32M91.247,67.248L86.1653,67.248M91.247,67.176L86.1408,67.176M91.247,67.104L86.1163,67.104M91.247,67.032L86.0911,67.032M91.247,66.96L86.0666,66.96M91.247,66.888L86.0414,66.888M91.247,66.816L86.0306,66.816M91.247,66.744L86.0198,66.744M91.2427,66.672L89.7372,66.672M89.1526,66.672L86.009,66.672M91.237,66.6L89.8913,66.6M88.979,66.6L85.9982,66.6M91.2305,66.528L90.0007,66.528M88.8602,66.528L85.9874,66.528M91.2182,66.456L90.0691,66.456M88.7767,66.456L85.9759,66.456M91.1959,66.384L90.1123,66.384M88.7198,66.384L85.9651,66.384M91.1743,66.312L90.1469,66.312M88.6702,66.312L85.9608,66.312M91.1477,66.24L90.1627,66.24M88.6414,66.24L85.963,66.24M91.1081,66.168L90.1735,66.168M88.6162,66.168L85.9651,66.168M91.0692,66.096L90.1735,66.096M88.6039,66.096L85.9673,66.096M91.021,66.024L90.1649,66.024M88.5989,66.024L85.9694,66.024M90.959,65.952L90.149,65.952M88.6003,65.952L85.9723,65.952M90.8906,65.88L90.1109,65.88M88.6133,65.88L85.9745,65.88M90.7978,65.808L90.0216,65.808M88.6284,65.808L85.9766,65.808M90.6797,65.736L89.9222,65.736M88.663,65.736L85.9896,65.736M90.5054,65.664L89.8157,65.664M88.6968,65.664L86.004,65.664M88.7573,65.592L86.0184,65.592M88.8199,65.52L86.0328,65.52M88.8883,65.448L86.0558,65.448M88.956,65.376L86.0818,65.376M89.0237,65.304L86.1077,65.304M89.0921,65.232L86.1336,65.232M89.1598,65.16L86.1703,65.16M89.2253,65.088L86.2092,65.088M89.2735,65.016L86.2481,65.016M89.3225,64.944L86.2906,64.944M89.3707,64.872L87.498,64.872M87.0502,64.872L86.3482,64.872M89.419,64.8L87.6269,64.8M86.9522,64.8L86.405,64.8M89.4679,64.728L87.7262,64.728M86.8939,64.728L86.4626,64.728M89.5162,64.656L87.8256,64.656M86.8586,64.656L86.5202,64.656M89.5608,64.584L87.9142,64.584M86.855,64.584L86.5994,64.584M89.5903,64.512L87.9919,64.512M86.855,64.512L86.688,64.512M89.6198,64.44L88.0538,64.44M86.855,64.44L86.7758,64.44M89.6393,64.368L88.1057,64.368M89.6486,64.296L88.1496,64.296M89.6587,64.224L88.1842,64.224M89.6573,64.152L88.2137,64.152M89.6486,64.08L88.2331,64.08M89.64,64.008L88.2403,64.008M89.6184,63.936L88.2353,63.936M89.5903,63.864L88.2137,63.864M89.563,63.792L88.1921,63.792M89.5118,63.72L88.1489,63.72M89.46,63.648L88.1035,63.648M89.3945,63.576L88.0265,63.576M89.3182,63.504L87.9228,63.504M89.2418,63.432L87.7385,63.432M89.1425,63.36L87.4267,63.36M89.0424,63.288L87.5318,63.288M88.9063,63.216L87.6974,63.216M88.7306,63.144L87.899,63.144"/>
    </g>
    <g  stroke-width="0">
     <title >polygon</title>
     <path  fill="white" stroke="none" stroke-linecap="round" stroke-width="0" d="M101.968,73.4112L100.78,73.4112M100.78,73.4112L100.765,73.4112M100.765,73.4112L100.765,73.3968M100.765,73.3968L100.747,73.2398M100.747,73.2398L100.692,73.0915M100.692,73.0915L100.603,72.9605M100.603,72.9605L100.487,72.8539M100.487,72.8539L100.348,72.7776M100.348,72.7776L100.182,72.7286M100.182,72.7286L100.009,72.7128M100.009,72.7128L99.6206,72.7272M99.6206,72.7272L99.5105,72.7452M99.5105,72.7452L99.4061,72.7841M99.4061,72.7841L99.311,72.8424M99.311,72.8424L99.234,72.9137M99.234,72.9137L99.1735,72.9986M99.1735,72.9986L99.131,73.0944M99.131,73.0944L99.0979,73.2492M99.0979,73.2492L99.0979,73.4076M99.0979,73.4076L99.131,73.5624M99.131,73.5624L99.1462,73.5962M99.1462,73.5962L99.167,73.6272M99.167,73.6272L99.2534,73.7064M99.2534,73.7064L99.3809,73.7798M99.3809,73.7798L99.5198,73.8288M99.5198,73.8288L99.8942,73.8936M99.8942,73.8936L100.521,73.9584M100.521,73.9584L100.956,74.0376M100.956,74.0376L101.377,74.1744M101.377,74.1744L101.575,74.2781M101.575,74.2781L101.748,74.4192M101.748,74.4192L101.889,74.592M101.889,74.592L102.01,74.8361M102.01,74.8361L102.069,75.1032M102.069,75.1032L102.069,75.4042M102.069,75.4042L102.016,75.7001M102.016,75.7001L101.91,75.9816M101.91,75.9816L101.827,76.1184M101.827,76.1184L101.721,76.2372M101.721,76.2372L101.593,76.3344M101.593,76.3344L101.233,76.5065M101.233,76.5065L100.845,76.5936M100.845,76.5936L100.382,76.6044M100.382,76.6044L99.923,76.536M99.923,76.536L99.6293,76.4359M99.6293,76.4359L99.36,76.2833M99.36,76.2833L99.1238,76.0824M99.1238,76.0824L99.1087,76.0723M99.1087,76.0723L99.0907,76.0694M99.0907,76.0694L99.0727,76.0752M99.0727,76.0752L99.059,76.0874M99.059,76.0874L99.0518,76.104M99.0518,76.104L98.987,76.3992M98.987,76.3992L98.9654,76.4784M98.9654,76.4784L98.959,76.4885M98.959,76.4885L98.9489,76.4942M98.9489,76.4942L98.9366,76.4928M98.9366,76.4928L97.7918,76.4928M97.7918,76.4928L97.8134,76.4352M97.8134,76.4352L97.9135,76.063M97.9135,76.063L97.943,75.6792M97.943,75.6792L97.9358,74.448M97.9358,74.448L99.095,74.448M99.095,74.448L99.095,74.6856M99.095,74.6856L99.1145,74.9974M99.1145,74.9974L99.1742,75.3048M99.1742,75.3048L99.1886,75.3552M99.1886,75.3552L99.221,75.4308M99.221,75.4308L99.2678,75.4992M99.2678,75.4992L99.4838,75.708M99.4838,75.708L99.5724,75.7642M99.5724,75.7642L99.671,75.8016M99.671,75.8016L99.9734,75.8448M99.9734,75.8448L100.413,75.8304M100.413,75.8304L100.551,75.8016M100.551,75.8016L100.678,75.7397M100.678,75.7397L100.787,75.6504M100.787,75.6504L100.846,75.5734M100.846,75.5734L100.888,75.4855M100.888,75.4855L100.909,75.3912M100.909,75.3912L100.913,75.2177M100.913,75.2177L100.881,75.0478M100.881,75.0478L100.816,74.8872M100.816,74.8872L100.753,74.7958M100.753,74.7958L100.672,74.7216M100.672,74.7216L100.531,74.6374M100.531,74.6374L100.379,74.5798M100.379,74.5798L100.218,74.5488M100.218,74.5488L99.8078,74.5056M99.8078,74.5056L99.5263,74.4574M99.5263,74.4574L99.2534,74.376M99.2534,74.376L99.1944,74.3458M99.1944,74.3458L99.1454,74.3011M99.1454,74.3011L99.1094,74.2464M99.1094,74.2464L99.095,74.2464M99.095,74.2464L99.095,74.4192M99.095,74.4192L97.943,74.4192M97.943,74.4192L97.943,73.0512M97.943,73.0512L97.969,72.8424M97.969,72.8424L98.0446,72.6466M98.0446,72.6466L98.1655,72.4752M98.1655,72.4752L98.3246,72.3384M98.3246,72.3384L98.694,72.1418M98.694,72.1418L99.095,72.0216M99.095,72.0216L99.5882,71.9564M99.5882,71.9564L100.085,71.9541M100.085,71.9541L100.578,72.0144M100.578,72.0144L100.927,72.1094M100.927,72.1094L101.255,72.2592M101.255,72.2592L101.487,72.4219M101.487,72.4219L101.681,72.6286M101.681,72.6286L101.828,72.8705M101.828,72.8705L101.922,73.1376M101.922,73.1376L101.961,73.4184M101.961,73.4184L101.968,73.4112M101.102,76.536L99.923,76.536M101.323,76.464L99.7114,76.464M98.969,76.464L97.8026,76.464M101.473,76.392L99.5522,76.392M98.9885,76.392L97.825,76.392M101.612,76.32L99.4248,76.32M99.0043,76.32L97.8444,76.32M101.707,76.248L99.319,76.248M99.0202,76.248L97.8638,76.248M101.776,76.176L99.234,76.176M99.036,76.176L97.8826,76.176M101.836,76.104L99.149,76.104M99.0518,76.104L97.9027,76.104M101.88,76.032L97.9157,76.032M101.919,75.96L97.9214,75.96M101.946,75.888L97.9265,75.888M101.973,75.816L100.481,75.816M99.7718,75.816L97.9322,75.816M102,75.744L100.67,75.744M99.5407,75.744L97.938,75.744M102.021,75.672L100.76,75.672M99.4464,75.672L97.943,75.672M102.034,75.6L100.826,75.6M99.3722,75.6L97.9423,75.6M102.047,75.528L100.868,75.528M99.2974,75.528L97.9423,75.528M102.06,75.456L100.894,75.456M99.2383,75.456L97.9416,75.456M102.069,75.384L100.909,75.384M99.2009,75.384L97.9416,75.384M102.069,75.312L100.911,75.312M99.1764,75.312L97.9409,75.312M102.069,75.24L100.912,75.24M99.1613,75.24L97.9409,75.24M102.069,75.168L100.904,75.168M99.1476,75.168L97.9402,75.168M102.067,75.096L100.89,75.096M99.1339,75.096L97.9402,75.096M102.051,75.024L100.872,75.024M99.1202,75.024L97.9394,75.024M102.036,74.952L100.842,74.952M99.1116,74.952L97.9387,74.952M102.02,74.88L100.811,74.88M99.1073,74.88L97.9387,74.88M101.996,74.808L100.762,74.808M99.103,74.808L97.938,74.808M101.96,74.736L100.688,74.736M99.0979,74.736L97.9373,74.736M101.925,74.664L100.576,74.664M99.095,74.664L97.9373,74.664M101.889,74.592L100.412,74.592M99.095,74.592L97.9366,74.592M101.83,74.52L99.9446,74.52M99.095,74.52L97.9366,74.52M101.771,74.448L99.4946,74.448M101.694,74.376L99.2534,74.376M99.095,74.376L97.943,74.376M101.606,74.304L99.1483,74.304M99.095,74.304L97.943,74.304M101.487,74.232L97.943,74.232M101.333,74.16L97.943,74.16M101.112,74.088L97.943,74.088M100.839,74.016L97.943,74.016M100.381,73.944L97.943,73.944M99.7697,73.872L97.943,73.872M99.4378,73.8L97.943,73.8M99.2909,73.728L97.943,73.728M99.1987,73.656L97.943,73.656M99.1404,73.584L97.943,73.584M99.1202,73.512L97.943,73.512M99.1051,73.44L97.943,73.44M101.953,73.368L100.762,73.368M99.0979,73.368L97.943,73.368M101.944,73.296L100.753,73.296M99.0979,73.296L97.943,73.296M101.934,73.224L100.741,73.224M99.1037,73.224L97.943,73.224M101.924,73.152L100.714,73.152M99.1188,73.152L97.943,73.152M101.902,73.08L100.684,73.08M99.1375,73.08L97.943,73.08M101.876,73.008L100.636,73.008M99.1692,73.008L97.9481,73.008M101.85,72.936L100.577,72.936M99.2182,72.936L97.9574,72.936M101.824,72.864L100.498,72.864M99.288,72.864L97.9661,72.864M101.78,72.792L100.374,72.792M99.3931,72.792L97.9884,72.792M101.736,72.72L100.086,72.72M99.815,72.72L98.0158,72.72M101.692,72.648L98.0438,72.648M101.631,72.576L98.0942,72.576M101.564,72.504L98.1454,72.504M101.496,72.432L98.2159,72.432M101.398,72.36L98.2994,72.36M101.296,72.288L98.4197,72.288M101.16,72.216L98.555,72.216M101.002,72.144L98.6904,72.144M100.789,72.072L98.9266,72.072M100.46,72L99.2578,72"/>
    </g>
    <g  stroke-width="0">
     <title >polygon</title>
     <path  fill="white" stroke="none" stroke-linecap="round" stroke-width="0" d="M97.1726,76.4928L97.1654,72.2736M97.1654,72.2736L96.071,72.0792M96.071,72.0792L96.071,72.8928M96.071,72.8928L96.0422,72.9072M96.0422,72.9072L95.999,72.8928M95.999,72.8928L95.9414,72.8064M95.9414,72.8064L95.747,72.5112M95.747,72.5112L95.657,72.4025M95.657,72.4025L95.5454,72.3168M95.5454,72.3168L95.2934,72.1512M95.2934,72.1512L95.1199,72.0511M95.1199,72.0511L94.9306,71.9881M94.9306,71.9881L94.7318,71.964M94.7318,71.964L94.343,71.9855M94.343,71.9855L94.343,73.08M94.343,73.08L94.3502,73.08M94.3502,73.08L94.3934,73.0728M94.3934,73.0728L94.5662,73.0368M94.5662,73.0368L95.0054,73.0368M95.0054,73.0368L95.1646,73.0642M95.1646,73.0642L95.3172,73.1174M95.3172,73.1174L95.459,73.1952M95.459,73.1952L95.6534,73.3586M95.6534,73.3586L95.8075,73.5617M95.8075,73.5617L95.9126,73.7928M95.9126,73.7928L95.971,74.0311M95.971,74.0311L95.9918,74.2752M95.9918,74.2752L95.9918,76.4928M95.9918,76.4928L97.1726,76.4928M97.1726,76.464L95.9918,76.464M97.1726,76.392L95.9918,76.392M97.1726,76.32L95.9918,76.32M97.1726,76.248L95.9918,76.248M97.1726,76.176L95.9918,76.176M97.1719,76.104L95.9918,76.104M97.1719,76.032L95.9918,76.032M97.1719,75.96L95.9918,75.96M97.1719,75.888L95.9918,75.888M97.1719,75.816L95.9918,75.816M97.1719,75.744L95.9918,75.744M97.1712,75.672L95.9918,75.672M97.1712,75.6L95.9918,75.6M97.1712,75.528L95.9918,75.528M97.1712,75.456L95.9918,75.456M97.1712,75.384L95.9918,75.384M97.1705,75.312L95.9918,75.312M97.1705,75.24L95.9918,75.24M97.1705,75.168L95.9918,75.168M97.1705,75.096L95.9918,75.096M97.1705,75.024L95.9918,75.024M97.1705,74.952L95.9918,74.952M97.1705,74.88L95.9918,74.88M97.1698,74.808L95.9918,74.808M97.1698,74.736L95.9918,74.736M97.1698,74.664L95.9918,74.664M97.1698,74.592L95.9918,74.592M97.169,74.52L95.9918,74.52M97.169,74.448L95.9918,74.448M97.169,74.376L95.9918,74.376M97.169,74.304L95.9918,74.304M97.169,74.232L95.9882,74.232M97.169,74.16L95.9818,74.16M97.169,74.088L95.9753,74.088M97.1683,74.016L95.9666,74.016M97.1683,73.944L95.9494,73.944M97.1683,73.872L95.9321,73.872M97.1683,73.8L95.9148,73.8M97.1683,73.728L95.8831,73.728M97.1683,73.656L95.8507,73.656M97.1683,73.584L95.8176,73.584M97.1676,73.512L95.7701,73.512M97.1676,73.44L95.7154,73.44M97.1676,73.368L95.6606,73.368M97.1676,73.296L95.5786,73.296M97.1669,73.224L95.4936,73.224M97.1669,73.152L95.3806,73.152M97.1669,73.08L95.2106,73.08M94.3502,73.08L94.343,73.08M97.1669,73.008L94.343,73.008M97.1669,72.936L94.343,72.936M97.1669,72.864L96.071,72.864M95.9803,72.864L94.343,72.864M97.1669,72.792L96.071,72.792M95.9321,72.792L94.343,72.792M97.1662,72.72L96.071,72.72M95.8846,72.72L94.343,72.72M97.1662,72.648L96.071,72.648M95.837,72.648L94.343,72.648M97.1662,72.576L96.071,72.576M95.7895,72.576L94.343,72.576M97.1662,72.504L96.071,72.504M95.7413,72.504L94.343,72.504M97.1654,72.432L96.071,72.432M95.6815,72.432L94.343,72.432M97.1654,72.36L96.071,72.36M95.6016,72.36L94.343,72.36M97.1654,72.288L96.071,72.288M95.5015,72.288L94.343,72.288M96.8414,72.216L96.071,72.216M95.3921,72.216L94.343,72.216M96.4361,72.144L96.071,72.144M95.2812,72.144L94.343,72.144M95.1559,72.072L94.343,72.072M94.9666,72L94.343,72"/>
    </g>
    <g  stroke-width="0">
     <title >polygon</title>
     <path  fill="white" stroke="none" stroke-linecap="round" stroke-width="0" d="M93.8102,76.5144L93.8102,71.0351M93.8102,71.0351L92.6366,70.3655M92.6366,70.3655L92.6366,73.692M92.6366,73.692L91.0238,72.0792M91.0238,72.0792L89.699,72.0792M89.699,72.0792L91.3334,73.6776M91.3334,73.6776L89.447,76.5072M89.447,76.5072L90.887,76.5M90.887,76.5L92.0966,74.5056M92.0966,74.5056L92.111,74.484M92.111,74.484L92.6222,74.9808M92.6222,74.9808L92.6222,76.4928M92.6222,76.4928L92.6222,76.5288M92.6222,76.5288L93.7958,76.5288M93.7958,76.5288L93.8102,76.5144M93.8102,76.464L92.6222,76.464M90.9086,76.464L89.4758,76.464M93.8102,76.392L92.6222,76.392M90.9526,76.392L89.5241,76.392M93.8102,76.32L92.6222,76.32M90.9958,76.32L89.5723,76.32M93.8102,76.248L92.6222,76.248M91.0397,76.248L89.6198,76.248M93.8102,76.176L92.6222,76.176M91.0836,76.176L89.6681,76.176M93.8102,76.104L92.6222,76.104M91.1268,76.104L89.7163,76.104M93.8102,76.032L92.6222,76.032M91.1707,76.032L89.7638,76.032M93.8102,75.96L92.6222,75.96M91.2146,75.96L89.8121,75.96M93.8102,75.888L92.6222,75.888M91.2578,75.888L89.8603,75.888M93.8102,75.816L92.6222,75.816M91.3018,75.816L89.9078,75.816M93.8102,75.744L92.6222,75.744M91.3457,75.744L89.9561,75.744M93.8102,75.672L92.6222,75.672M91.3889,75.672L90.0043,75.672M93.8102,75.6L92.6222,75.6M91.4328,75.6L90.0518,75.6M93.8102,75.528L92.6222,75.528M91.4767,75.528L90.1001,75.528M93.8102,75.456L92.6222,75.456M91.5199,75.456L90.1483,75.456M93.8102,75.384L92.6222,75.384M91.5638,75.384L90.1958,75.384M93.8102,75.312L92.6222,75.312M91.6078,75.312L90.2441,75.312M93.8102,75.24L92.6222,75.24M91.651,75.24L90.2923,75.24M93.8102,75.168L92.6222,75.168M91.6949,75.168L90.3398,75.168M93.8102,75.096L92.6222,75.096M91.7388,75.096L90.3881,75.096M93.8102,75.024L92.6222,75.024M91.782,75.024L90.4363,75.024M93.8102,74.952L92.5927,74.952M91.8259,74.952L90.4838,74.952M93.8102,74.88L92.5186,74.88M91.8691,74.88L90.5321,74.88M93.8102,74.808L92.4444,74.808M91.913,74.808L90.5803,74.808M93.8102,74.736L92.3702,74.736M91.957,74.736L90.6278,74.736M93.8102,74.664L92.2961,74.664M92.0002,74.664L90.6761,74.664M93.8102,74.592L92.2219,74.592M92.0441,74.592L90.7243,74.592M93.8102,74.52L92.1478,74.52M92.088,74.52L90.7718,74.52M93.8102,74.448L90.8201,74.448M93.8102,74.376L90.8683,74.376M93.8102,74.304L90.9158,74.304M93.8102,74.232L90.9641,74.232M93.8102,74.16L91.0123,74.16M93.8102,74.088L91.0598,74.088M93.8102,74.016L91.1081,74.016M93.8102,73.944L91.1563,73.944M93.8102,73.872L91.2038,73.872M93.8102,73.8L91.2521,73.8M93.8102,73.728L91.3003,73.728M93.8102,73.656L92.6366,73.656M92.6006,73.656L91.3111,73.656M93.8102,73.584L92.6366,73.584M92.5286,73.584L91.2377,73.584M93.8102,73.512L92.6366,73.512M92.4566,73.512L91.1642,73.512M93.8102,73.44L92.6366,73.44M92.3846,73.44L91.0908,73.44M93.8102,73.368L92.6366,73.368M92.3126,73.368L91.0166,73.368M93.8102,73.296L92.6366,73.296M92.2406,73.296L90.9432,73.296M93.8102,73.224L92.6366,73.224M92.1686,73.224L90.869,73.224M93.8102,73.152L92.6366,73.152M92.0966,73.152L90.7963,73.152M93.8102,73.08L92.6366,73.08M92.0246,73.08L90.7222,73.08M93.8102,73.008L92.6366,73.008M91.9526,73.008L90.6487,73.008M93.8102,72.936L92.6366,72.936M91.8806,72.936L90.5753,72.936M93.8102,72.864L92.6366,72.864M91.8086,72.864L90.5011,72.864M93.8102,72.792L92.6366,72.792M91.7366,72.792L90.4277,72.792M93.8102,72.72L92.6366,72.72M91.6646,72.72L90.3542,72.72M93.8102,72.648L92.6366,72.648M91.5926,72.648L90.2808,72.648M93.8102,72.576L92.6366,72.576M91.5206,72.576L90.2066,72.576M93.8102,72.504L92.6366,72.504M91.4486,72.504L90.1332,72.504M93.8102,72.432L92.6366,72.432M91.3766,72.432L90.0598,72.432M93.8102,72.36L92.6366,72.36M91.3046,72.36L89.9863,72.36M93.8102,72.288L92.6366,72.288M91.2326,72.288L89.9122,72.288M93.8102,72.216L92.6366,72.216M91.1606,72.216L89.8387,72.216M93.8102,72.144L92.6366,72.144M91.0886,72.144L89.7653,72.144M93.8102,72.072L92.6366,72.072M93.8102,72L92.6366,72M93.8102,71.928L92.6366,71.928M93.8102,71.856L92.6366,71.856M93.8102,71.784L92.6366,71.784M93.8102,71.712L92.6366,71.712M93.8102,71.64L92.6366,71.64M93.8102,71.568L92.6366,71.568M93.8102,71.496L92.6366,71.496M93.8102,71.424L92.6366,71.424M93.8102,71.352L92.6366,71.352M93.8102,71.28L92.6366,71.28M93.8102,71.208L92.6366,71.208M93.8102,71.136L92.6366,71.136M93.8102,71.064L92.6366,71.064M93.7346,70.992L92.6366,70.992M93.6086,70.92L92.6366,70.92M93.4826,70.848L92.6366,70.848M93.3559,70.776L92.6366,70.776M93.2299,70.704L92.6366,70.704M93.1039,70.632L92.6366,70.632M92.9779,70.56L92.6366,70.56M92.8519,70.488L92.6366,70.488M92.7252,70.416L92.6366,70.416"/>
    </g>
    <g  stroke-width="0">
     <title >polygon</title>
     <path  fill="white" stroke="none" stroke-linecap="round" stroke-width="0" d="M88.6334,76.5216L88.6334,72.8928M88.6334,72.8928L88.6334,72.8352M88.6334,72.8352L89.7638,72.828M89.7638,72.828L89.0078,72.072M89.0078,72.072L88.619,72.072M88.619,72.072L88.619,71.9425M88.619,71.9425L88.5686,71.3375M88.5686,71.3375L88.5269,71.1768M88.5269,71.1768L88.4563,71.0263M88.4563,71.0263L88.3598,70.8911M88.3598,70.8911L88.1496,70.6901M88.1496,70.6901L87.9034,70.5342M87.9034,70.5342L87.6319,70.4296M87.6319,70.4296L87.3446,70.38M87.3446,70.38L86.9054,70.38M86.9054,70.38L86.531,70.4015M86.531,70.4015L86.5238,70.4015M86.5238,70.4015L86.5238,71.2585M86.5238,71.2585L86.5454,71.2585M86.5454,71.2585L86.6246,71.2511M86.6246,71.2511L86.8874,71.2267M86.8874,71.2267L87.1502,71.2511M87.1502,71.2511L87.2388,71.2814M87.2388,71.2814L87.3158,71.3359M87.3158,71.3359L87.3734,71.4095M87.3734,71.4095L87.4267,71.5383M87.4267,71.5383L87.4454,71.676M87.4454,71.676L87.4454,72.072M87.4454,72.072L87.1286,72.072M87.1286,72.072L86.603,72.072M86.603,72.072L86.603,72.828M86.603,72.828L87.4526,72.828M87.4526,72.828L87.4526,76.5216M87.4526,76.5216L88.6334,76.5216M88.6334,76.464L87.4526,76.464M88.6334,76.392L87.4526,76.392M88.6334,76.32L87.4526,76.32M88.6334,76.248L87.4526,76.248M88.6334,76.176L87.4526,76.176M88.6334,76.104L87.4526,76.104M88.6334,76.032L87.4526,76.032M88.6334,75.96L87.4526,75.96M88.6334,75.888L87.4526,75.888M88.6334,75.816L87.4526,75.816M88.6334,75.744L87.4526,75.744M88.6334,75.672L87.4526,75.672M88.6334,75.6L87.4526,75.6M88.6334,75.528L87.4526,75.528M88.6334,75.456L87.4526,75.456M88.6334,75.384L87.4526,75.384M88.6334,75.312L87.4526,75.312M88.6334,75.24L87.4526,75.24M88.6334,75.168L87.4526,75.168M88.6334,75.096L87.4526,75.096M88.6334,75.024L87.4526,75.024M88.6334,74.952L87.4526,74.952M88.6334,74.88L87.4526,74.88M88.6334,74.808L87.4526,74.808M88.6334,74.736L87.4526,74.736M88.6334,74.664L87.4526,74.664M88.6334,74.592L87.4526,74.592M88.6334,74.52L87.4526,74.52M88.6334,74.448L87.4526,74.448M88.6334,74.376L87.4526,74.376M88.6334,74.304L87.4526,74.304M88.6334,74.232L87.4526,74.232M88.6334,74.16L87.4526,74.16M88.6334,74.088L87.4526,74.088M88.6334,74.016L87.4526,74.016M88.6334,73.944L87.4526,73.944M88.6334,73.872L87.4526,73.872M88.6334,73.8L87.4526,73.8M88.6334,73.728L87.4526,73.728M88.6334,73.656L87.4526,73.656M88.6334,73.584L87.4526,73.584M88.6334,73.512L87.4526,73.512M88.6334,73.44L87.4526,73.44M88.6334,73.368L87.4526,73.368M88.6334,73.296L87.4526,73.296M88.6334,73.224L87.4526,73.224M88.6334,73.152L87.4526,73.152M88.6334,73.08L87.4526,73.08M88.6334,73.008L87.4526,73.008M88.6334,72.936L87.4526,72.936M88.6334,72.864L87.4526,72.864M89.7278,72.792L86.603,72.792M89.6558,72.72L86.603,72.72M89.5838,72.648L86.603,72.648M89.5118,72.576L86.603,72.576M89.4398,72.504L86.603,72.504M89.3678,72.432L86.603,72.432M89.2958,72.36L86.603,72.36M89.2238,72.288L86.603,72.288M89.1518,72.216L86.603,72.216M89.0798,72.144L86.603,72.144M88.619,72.072L87.4454,72.072M88.619,72L87.4454,72M88.6176,71.928L87.4454,71.928M88.6118,71.856L87.4454,71.856M88.6061,71.784L87.4454,71.784M88.6003,71.712L87.4454,71.712M88.5938,71.64L87.4404,71.64M88.5881,71.568L87.4303,71.568M88.5823,71.496L87.4094,71.496M88.5758,71.424L87.3792,71.424M88.5701,71.352L87.3281,71.352M88.5535,71.28L87.2345,71.28M88.5348,71.208L86.5238,71.208M88.5074,71.136L86.5238,71.136M88.4743,71.064L86.5238,71.064M88.4318,70.992L86.5238,70.992M88.3807,70.92L86.5238,70.92M88.3145,70.848L86.5238,70.848M88.2396,70.776L86.5238,70.776M88.164,70.704L86.5238,70.704M88.0574,70.632L86.5238,70.632M87.9437,70.56L86.5238,70.56M87.7831,70.488L86.5238,70.488M87.5534,70.416L86.5238,70.416"/>
    </g>
    <g  stroke-width="0">
     <title >polygon</title>
     <path  fill="white" stroke="none" stroke-linecap="round" stroke-width="0" d="M86.1854,72.0576L86.1854,75.1176M86.1854,75.1176L86.1566,75.4294M86.1566,75.4294L86.0717,75.7303M86.0717,75.7303L85.9334,76.0118M85.9334,76.0118L85.7462,76.2624M85.7462,76.2624L85.6742,76.3272M85.6742,76.3272L85.4186,76.4762M85.4186,76.4762L85.1393,76.5734M85.1393,76.5734L84.8462,76.6152M84.8462,76.6152L84.4229,76.6066M84.4229,76.6066L84.0038,76.5432M84.0038,76.5432L83.9297,76.5202M83.9297,76.5202L83.8598,76.4856M83.8598,76.4856L83.5963,76.2984M83.5963,76.2984L83.3616,76.0759M83.3616,76.0759L83.1614,75.8232M83.1614,75.8232L83.1542,75.8232M83.1542,75.8232L83.1542,76.5M83.1542,76.5L82.0166,76.5M82.0166,76.5L82.0166,72.072M82.0166,72.072L83.2118,72.072M83.2118,72.072L83.2118,74.4264M83.2118,74.4264L83.2334,74.7785M83.2334,74.7785L83.2982,75.1248M83.2982,75.1248L83.3602,75.2882M83.3602,75.2882L83.4574,75.4322M83.4574,75.4322L83.5855,75.5503M83.5855,75.5503L83.7374,75.636M83.7374,75.636L83.9405,75.6979M83.9405,75.6979L84.1522,75.7181M84.1522,75.7181L84.3631,75.6943M84.3631,75.6943L84.5654,75.6288M84.5654,75.6288L84.6842,75.5618M84.6842,75.5618L84.7865,75.4718M84.7865,75.4718L84.8678,75.3624M84.8678,75.3624L84.9686,75.137M84.9686,75.137L85.0118,74.8944M85.0118,74.8944L85.0118,72.0576M85.0118,72.0576L86.1854,72.0576M84.8959,76.608L84.505,76.608M85.2466,76.536L83.9815,76.536M85.4395,76.464L83.8296,76.464M83.1542,76.464L82.0166,76.464M85.5634,76.392L83.7281,76.392M83.1542,76.392L82.0166,76.392M85.6822,76.32L83.6266,76.32M83.1542,76.32L82.0166,76.32M85.757,76.248L83.543,76.248M83.1542,76.248L82.0166,76.248M85.811,76.176L83.4667,76.176M83.1542,76.176L82.0166,76.176M85.8643,76.104L83.3911,76.104M83.1542,76.104L82.0166,76.104M85.9183,76.032L83.327,76.032M83.1542,76.032L82.0166,76.032M85.9586,75.96L83.2702,75.96M83.1542,75.96L82.0166,75.96M85.9946,75.888L83.2133,75.888M83.1542,75.888L82.0166,75.888M86.0299,75.816L82.0166,75.816M86.0652,75.744L82.0166,75.744M86.089,75.672L84.4322,75.672M83.8548,75.672L82.0166,75.672M86.1091,75.6L84.6158,75.6M83.6734,75.6L82.0166,75.6M86.1293,75.528L84.7224,75.528M83.561,75.528L82.0166,75.528M86.1494,75.456L84.798,75.456M83.4833,75.456L82.0166,75.456M86.161,75.384L84.852,75.384M83.425,75.384L82.0166,75.384M86.1682,75.312L84.8902,75.312M83.376,75.312L82.0166,75.312M86.1746,75.24L84.9226,75.24M83.3414,75.24L82.0166,75.24M86.1811,75.168L84.955,75.168M83.3148,75.168L82.0166,75.168M86.1854,75.096L84.9758,75.096M83.2925,75.096L82.0166,75.096M86.1854,75.024L84.9888,75.024M83.2795,75.024L82.0166,75.024M86.1854,74.952L85.001,74.952M83.2658,74.952L82.0166,74.952M86.1854,74.88L85.0118,74.88M83.2522,74.88L82.0166,74.88M86.1854,74.808L85.0118,74.808M83.2392,74.808L82.0166,74.808M86.1854,74.736L85.0118,74.736M83.2306,74.736L82.0166,74.736M86.1854,74.664L85.0118,74.664M83.2262,74.664L82.0166,74.664M86.1854,74.592L85.0118,74.592M83.2219,74.592L82.0166,74.592M86.1854,74.52L85.0118,74.52M83.2176,74.52L82.0166,74.52M86.1854,74.448L85.0118,74.448M83.2133,74.448L82.0166,74.448M86.1854,74.376L85.0118,74.376M83.2118,74.376L82.0166,74.376M86.1854,74.304L85.0118,74.304M83.2118,74.304L82.0166,74.304M86.1854,74.232L85.0118,74.232M83.2118,74.232L82.0166,74.232M86.1854,74.16L85.0118,74.16M83.2118,74.16L82.0166,74.16M86.1854,74.088L85.0118,74.088M83.2118,74.088L82.0166,74.088M86.1854,74.016L85.0118,74.016M83.2118,74.016L82.0166,74.016M86.1854,73.944L85.0118,73.944M83.2118,73.944L82.0166,73.944M86.1854,73.872L85.0118,73.872M83.2118,73.872L82.0166,73.872M86.1854,73.8L85.0118,73.8M83.2118,73.8L82.0166,73.8M86.1854,73.728L85.0118,73.728M83.2118,73.728L82.0166,73.728M86.1854,73.656L85.0118,73.656M83.2118,73.656L82.0166,73.656M86.1854,73.584L85.0118,73.584M83.2118,73.584L82.0166,73.584M86.1854,73.512L85.0118,73.512M83.2118,73.512L82.0166,73.512M86.1854,73.44L85.0118,73.44M83.2118,73.44L82.0166,73.44M86.1854,73.368L85.0118,73.368M83.2118,73.368L82.0166,73.368M86.1854,73.296L85.0118,73.296M83.2118,73.296L82.0166,73.296M86.1854,73.224L85.0118,73.224M83.2118,73.224L82.0166,73.224M86.1854,73.152L85.0118,73.152M83.2118,73.152L82.0166,73.152M86.1854,73.08L85.0118,73.08M83.2118,73.08L82.0166,73.08M86.1854,73.008L85.0118,73.008M83.2118,73.008L82.0166,73.008M86.1854,72.936L85.0118,72.936M83.2118,72.936L82.0166,72.936M86.1854,72.864L85.0118,72.864M83.2118,72.864L82.0166,72.864M86.1854,72.792L85.0118,72.792M83.2118,72.792L82.0166,72.792M86.1854,72.72L85.0118,72.72M83.2118,72.72L82.0166,72.72M86.1854,72.648L85.0118,72.648M83.2118,72.648L82.0166,72.648M86.1854,72.576L85.0118,72.576M83.2118,72.576L82.0166,72.576M86.1854,72.504L85.0118,72.504M83.2118,72.504L82.0166,72.504M86.1854,72.432L85.0118,72.432M83.2118,72.432L82.0166,72.432M86.1854,72.36L85.0118,72.36M83.2118,72.36L82.0166,72.36M86.1854,72.288L85.0118,72.288M83.2118,72.288L82.0166,72.288M86.1854,72.216L85.0118,72.216M83.2118,72.216L82.0166,72.216M86.1854,72.144L85.0118,72.144M83.2118,72.144L82.0166,72.144M86.1854,72.072L85.0118,72.072"/>
    </g>
    <g  stroke-width="0">
     <title >polygon</title>
     <path  fill="white" stroke="none" stroke-linecap="round" stroke-width="0" d="M81.311,72.0648L80.1662,72.0648M80.1662,72.0648L80.1662,72.6912M80.1662,72.6912L80.1446,72.6912M80.1446,72.6912L80.1173,72.6854M80.1173,72.6854L80.0942,72.6696M80.0942,72.6696L80.0582,72.6264M80.0582,72.6264L79.979,72.5184M79.979,72.5184L79.8653,72.3845M79.8653,72.3845L79.7342,72.2664M79.7342,72.2664L79.4794,72.1058M79.4794,72.1058L79.1971,72.0007M79.1971,72.0007L78.899,71.9569M78.899,71.9569L78.3302,71.9711M78.3302,71.9711L78.053,72.0295M78.053,72.0295L77.7967,72.149M77.7967,72.149L77.5742,72.324M77.5742,72.324L77.436,72.4867M77.436,72.4867L77.3266,72.671M77.3266,72.671L77.2502,72.8712M77.2502,72.8712L77.1826,73.1851M77.1826,73.1851L77.1566,73.5048M77.1566,73.5048L77.1566,76.4928M77.1566,76.4928L78.3158,76.4928M78.3158,76.4928L78.3158,73.7568M78.3158,73.7568L78.3346,73.5487M78.3346,73.5487L78.3907,73.3471M78.3907,73.3471L78.4814,73.1592M78.4814,73.1592L78.57,73.0433M78.57,73.0433L78.6823,72.9504M78.6823,72.9504L78.8126,72.8856M78.8126,72.8856L78.9048,72.8618M78.9048,72.8618L78.9998,72.8568M78.9998,72.8568L79.3166,72.8712M79.3166,72.8712L79.4801,72.8964M79.4801,72.8964L79.6334,72.9576M79.6334,72.9576L79.7702,73.0512M79.7702,73.0512L79.9229,73.219M79.9229,73.219L80.0294,73.4184M80.0294,73.4184L80.0928,73.638M80.0928,73.638L80.1158,73.8648M80.1158,73.8648L80.1158,74.0592M80.1158,74.0592L80.1158,76.5216M80.1158,76.5216L81.311,76.5216M81.311,76.5216L81.311,72.0648M81.311,76.464L80.1158,76.464M78.3158,76.464L77.1566,76.464M81.311,76.392L80.1158,76.392M78.3158,76.392L77.1566,76.392M81.311,76.32L80.1158,76.32M78.3158,76.32L77.1566,76.32M81.311,76.248L80.1158,76.248M78.3158,76.248L77.1566,76.248M81.311,76.176L80.1158,76.176M78.3158,76.176L77.1566,76.176M81.311,76.104L80.1158,76.104M78.3158,76.104L77.1566,76.104M81.311,76.032L80.1158,76.032M78.3158,76.032L77.1566,76.032M81.311,75.96L80.1158,75.96M78.3158,75.96L77.1566,75.96M81.311,75.888L80.1158,75.888M78.3158,75.888L77.1566,75.888M81.311,75.816L80.1158,75.816M78.3158,75.816L77.1566,75.816M81.311,75.744L80.1158,75.744M78.3158,75.744L77.1566,75.744M81.311,75.672L80.1158,75.672M78.3158,75.672L77.1566,75.672M81.311,75.6L80.1158,75.6M78.3158,75.6L77.1566,75.6M81.311,75.528L80.1158,75.528M78.3158,75.528L77.1566,75.528M81.311,75.456L80.1158,75.456M78.3158,75.456L77.1566,75.456M81.311,75.384L80.1158,75.384M78.3158,75.384L77.1566,75.384M81.311,75.312L80.1158,75.312M78.3158,75.312L77.1566,75.312M81.311,75.24L80.1158,75.24M78.3158,75.24L77.1566,75.24M81.311,75.168L80.1158,75.168M78.3158,75.168L77.1566,75.168M81.311,75.096L80.1158,75.096M78.3158,75.096L77.1566,75.096M81.311,75.024L80.1158,75.024M78.3158,75.024L77.1566,75.024M81.311,74.952L80.1158,74.952M78.3158,74.952L77.1566,74.952M81.311,74.88L80.1158,74.88M78.3158,74.88L77.1566,74.88M81.311,74.808L80.1158,74.808M78.3158,74.808L77.1566,74.808M81.311,74.736L80.1158,74.736M78.3158,74.736L77.1566,74.736M81.311,74.664L80.1158,74.664M78.3158,74.664L77.1566,74.664M81.311,74.592L80.1158,74.592M78.3158,74.592L77.1566,74.592M81.311,74.52L80.1158,74.52M78.3158,74.52L77.1566,74.52M81.311,74.448L80.1158,74.448M78.3158,74.448L77.1566,74.448M81.311,74.376L80.1158,74.376M78.3158,74.376L77.1566,74.376M81.311,74.304L80.1158,74.304M78.3158,74.304L77.1566,74.304M81.311,74.232L80.1158,74.232M78.3158,74.232L77.1566,74.232M81.311,74.16L80.1158,74.16M78.3158,74.16L77.1566,74.16M81.311,74.088L80.1158,74.088M78.3158,74.088L77.1566,74.088M81.311,74.016L80.1158,74.016M78.3158,74.016L77.1566,74.016M81.311,73.944L80.1158,73.944M78.3158,73.944L77.1566,73.944M81.311,73.872L80.1158,73.872M78.3158,73.872L77.1566,73.872M81.311,73.8L80.1094,73.8M78.3158,73.8L77.1566,73.8M81.311,73.728L80.1014,73.728M78.3187,73.728L77.1566,73.728M81.311,73.656L80.0942,73.656M78.3252,73.656L77.1566,73.656M81.311,73.584L80.077,73.584M78.331,73.584L77.1566,73.584M81.311,73.512L80.0561,73.512M78.3446,73.512L77.1566,73.512M81.311,73.44L80.0352,73.44M78.3648,73.44L77.1624,73.44M81.311,73.368L80.0021,73.368M78.3842,73.368L77.1682,73.368M81.311,73.296L79.9639,73.296M78.4152,73.296L77.1732,73.296M81.311,73.224L79.925,73.224M78.4498,73.224L77.179,73.224M81.311,73.152L79.8617,73.152M78.4865,73.152L77.1898,73.152M81.311,73.08L79.7962,73.08M78.5419,73.08L77.2056,73.08M81.311,73.008L79.7069,73.008M78.6132,73.008L77.2207,73.008M81.311,72.936L79.5787,72.936M78.7118,72.936L77.2366,72.936M81.311,72.864L79.1582,72.864M78.8969,72.864L77.2531,72.864M81.311,72.792L77.2805,72.792M81.311,72.72L77.3078,72.72M81.311,72.648L80.1662,72.648M80.0762,72.648L77.3402,72.648M81.311,72.576L80.1662,72.576M80.0215,72.576L77.3834,72.576M81.311,72.504L80.1662,72.504M79.9668,72.504L77.4259,72.504M81.311,72.432L80.1662,72.432M79.9056,72.432L77.4828,72.432M81.311,72.36L80.1662,72.36M79.8379,72.36L77.544,72.36M81.311,72.288L80.1662,72.288M79.7587,72.288L77.6203,72.288M81.311,72.216L80.1662,72.216M79.6543,72.216L77.7118,72.216M81.311,72.144L80.1662,72.144M79.5406,72.144L77.8082,72.144M81.311,72.072L80.1662,72.072M79.3886,72.072L77.9616,72.072M79.1914,72L78.1927,72"/>
    </g>
    <g  stroke-width="0">
     <title >polygon</title>
     <path  fill="white" stroke="none" stroke-linecap="round" stroke-width="0" d="M70.295,73.5192L71.483,73.5192M71.483,73.5192L71.483,73.512M71.483,73.512L71.5026,73.3414M71.5026,73.3414L71.5601,73.1801M71.5601,73.1801L71.6527,73.0361M71.6527,73.0361L71.7755,72.9166M71.7755,72.9166L71.9223,72.828M71.9223,72.828L72.1541,72.7517M72.1541,72.7517L72.3974,72.7272M72.3974,72.7272L72.6415,72.7466M72.6415,72.7466L72.8798,72.7992M72.8798,72.7992L73.0051,72.8554M73.0051,72.8554L73.1102,72.9432M73.1102,72.9432L73.3097,73.2074M73.3097,73.2074L73.4558,73.5041M73.4558,73.5041L73.5437,73.823M73.5437,73.823L73.571,74.1528M73.571,74.1528L73.5336,74.6006M73.5336,74.6006L73.4342,75.0384M73.4342,75.0384L73.3421,75.2486M73.3421,75.2486L73.2024,75.4308M73.2024,75.4308L73.0231,75.5748M73.0231,75.5748L72.815,75.672M72.815,75.672L72.5875,75.7246M72.5875,75.7246L72.3542,75.7368M72.3542,75.7368L72.1807,75.7152M72.1807,75.7152L72.0137,75.6641M72.0137,75.6641L71.8574,75.5856M71.8574,75.5856L71.7262,75.4834M71.7262,75.4834L71.6198,75.3552M71.6198,75.3552L71.5254,75.1824M71.5254,75.1824L71.4625,74.9959M71.4625,74.9959L71.4328,74.8008M71.4328,74.8008L70.2808,74.8008M70.2808,74.8008L70.2808,74.8152M70.2808,74.8152L70.2899,74.9491M70.2899,74.9491L70.3168,75.0816M70.3168,75.0816L70.4704,75.4762M70.4704,75.4762L70.7015,75.8304M70.7015,75.8304L70.9999,76.1306M70.9999,76.1306L71.3534,76.3632M71.3534,76.3632L71.6633,76.4942M71.6633,76.4942L71.9901,76.5742M71.9901,76.5742L72.3254,76.6008M72.3254,76.6008L72.7747,76.5727M72.7747,76.5727L73.2182,76.4928M73.2182,76.4928L73.5214,76.392M73.5214,76.392L73.8043,76.243M73.8043,76.243L74.0585,76.0493M74.0585,76.0493L74.2766,75.816M74.2766,75.816L74.4703,75.528M74.4703,75.528L74.6158,75.2126M74.6158,75.2126L74.7108,74.8793M74.7108,74.8793L74.7518,74.5344M74.7518,74.5344L74.7302,73.8288M74.7302,73.8288L74.646,73.4069M74.646,73.4069L74.4826,73.008M74.4826,73.008L74.2457,72.648M74.2457,72.648L73.9454,72.3398M73.9454,72.3398L73.5912,72.0943M73.5912,72.0943L73.1966,71.9209M73.1966,71.9209L72.7697,71.8268M72.7697,71.8268L72.3326,71.82M72.3326,71.82L71.9263,71.8736M71.9263,71.8736L71.5263,71.964M71.5263,71.964L71.1984,72.0936M71.1984,72.0936L70.9064,72.2916M70.9064,72.2916L70.6638,72.5472M70.6638,72.5472L70.4823,72.8496M70.4823,72.8496L70.3621,73.1772M70.3621,73.1772L70.295,73.5192M72.9792,76.536L71.8348,76.536M73.3054,76.464L71.5921,76.464M73.5221,76.392L71.4218,76.392M73.6589,76.32L71.2879,76.32M73.795,76.248L71.1786,76.248M73.8922,76.176L71.0691,76.176M73.9865,76.104L70.9736,76.104M74.0743,76.032L70.9019,76.032M74.142,75.96L70.8301,75.96M74.2097,75.888L70.7587,75.888M74.2766,75.816L70.6918,75.816M74.3249,75.744L70.645,75.744M74.3731,75.672L72.815,75.672M72.0389,75.672L70.598,75.672M74.4214,75.6L72.9698,75.6M71.8863,75.6L70.5512,75.6M74.4696,75.528L73.0814,75.528M71.7837,75.528L70.5041,75.528M74.5034,75.456L73.1714,75.456M71.7038,75.456L70.4625,75.456M74.5366,75.384L73.2384,75.384M71.644,75.384L70.4344,75.384M74.5697,75.312L73.2938,75.312M71.5967,75.312L70.4064,75.312M74.6028,75.24L73.3457,75.24M71.5572,75.24L70.3783,75.24M74.628,75.168L73.3774,75.168M71.5209,75.168L70.3503,75.168M74.6489,75.096L73.409,75.096M71.4966,75.096L70.3222,75.096M74.669,75.024L73.4378,75.024M71.4722,75.024L70.3049,75.024M74.6899,74.952L73.4544,74.952M71.456,74.952L70.2901,74.952M74.7101,74.88L73.4702,74.88M71.445,74.88L70.285,74.88M74.7187,74.808L73.4868,74.808M71.4339,74.808L70.2808,74.808M74.7274,74.736L73.5034,74.736M74.736,74.664L73.5199,74.664M74.7446,74.592L73.5343,74.592M74.7518,74.52L73.5408,74.52M74.7497,74.448L73.5466,74.448M74.7468,74.376L73.5523,74.376M74.7454,74.304L73.5588,74.304M74.7425,74.232L73.5646,74.232M74.7403,74.16L73.5703,74.16M74.7382,74.088L73.5653,74.088M74.736,74.016L73.5595,74.016M74.7338,73.944L73.5538,73.944M74.7317,73.872L73.548,73.872M74.7245,73.8L73.5372,73.8M74.7101,73.728L73.517,73.728M74.6957,73.656L73.4976,73.656M74.6813,73.584L73.4774,73.584M74.6669,73.512L73.4573,73.512M71.483,73.512L70.2964,73.512M74.6525,73.44L73.4242,73.44M71.4912,73.44L70.3105,73.44M74.6302,73.368L73.3882,73.368M71.4994,73.368L70.3247,73.368M74.6006,73.296L73.3529,73.296M71.5187,73.296L70.3389,73.296M74.5711,73.224L73.3176,73.224M71.5445,73.224L70.3531,73.224M74.5416,73.152L73.2679,73.152M71.5782,73.152L70.3715,73.152M74.5121,73.08L73.2132,73.08M71.6244,73.08L70.3979,73.08M74.4826,73.008L73.1592,73.008M71.6814,73.008L70.4242,73.008M74.435,72.936L73.1016,72.936M71.7553,72.936L70.4508,72.936M74.3882,72.864L73.0152,72.864M71.8626,72.864L70.4772,72.864M74.3407,72.792L72.8474,72.792M72.031,72.792L70.5169,72.792M74.2932,72.72L70.5603,72.72M74.2457,72.648L70.6033,72.648M74.1758,72.576L70.6468,72.576M74.1053,72.504L70.7052,72.504M74.0354,72.432L70.7732,72.432M73.9656,72.36L70.8414,72.36M73.8706,72.288L70.9115,72.288M73.7669,72.216L71.0181,72.216M73.6632,72.144L71.1244,72.144M73.5408,72.072L71.2536,72.072M73.3774,72L71.4356,72M73.2132,71.928L71.6856,71.928M72.9029,71.856L72.0598,71.856"/>
    </g>
    <g  stroke-width="0">
     <title >polygon</title>
     <path  fill="white" stroke="none" stroke-linecap="round" stroke-width="0" d="M67.6814,71.8129L67.6454,71.8271M67.6454,71.8271L67.6454,72.6552M67.6454,72.6552L67.9623,72.6984M67.9623,72.6984L68.3008,72.8856M68.3008,72.8856L68.531,73.2024M68.531,73.2024L68.6463,73.4616M68.6463,73.4616L68.7254,73.8864M68.7254,73.8864L68.7398,74.4192M68.7398,74.4192L68.6894,74.7792M68.6894,74.7792L68.5814,75.1104M68.5814,75.1104L68.423,75.4128M68.423,75.4128L67.9408,75.708M67.9408,75.708L67.4294,75.7728M67.4294,75.7728L66.9183,75.6M66.9183,75.6L66.6014,75.312M66.6014,75.312L66.443,74.9592M66.443,74.9592L66.335,74.5128M66.335,74.5128L66.335,74.1024M66.335,74.1024L66.407,73.548M66.407,73.548L66.623,73.08M66.623,73.08L66.8678,72.8424M66.8678,72.8424L67.1488,72.6912M67.1488,72.6912L67.4943,72.6624M67.4943,72.6624L67.523,72.6624M67.523,72.6624L67.5088,71.82M67.5088,71.82L66.9398,71.892M66.9398,71.892L66.479,72.0504M66.479,72.0504L65.9174,72.4392M65.9174,72.4392L65.6078,72.7992M65.6078,72.7992L65.3128,73.4616M65.3128,73.4616L65.2334,74.0808M65.2334,74.0808L65.3054,74.6784M65.3054,74.6784L65.4998,75.3768M65.4998,75.3768L65.7303,75.744M65.7303,75.744L66.0688,76.068M66.0688,76.068L66.3854,76.2912M66.3854,76.2912L66.911,76.4712M66.911,76.4712L67.6238,76.5432M67.6238,76.5432L68.4734,76.428M68.4734,76.428L69.2798,75.924M69.2798,75.924L69.7334,75.2184M69.7334,75.2184L69.9063,74.1168M69.9063,74.1168L69.6758,73.1088M69.6758,73.1088L69.071,72.3384M69.071,72.3384L68.1134,71.8631M68.1134,71.8631L67.6958,71.8129M67.6958,71.8129L67.6814,71.8129M67.676,76.536L67.5536,76.536M68.2075,76.464L66.8902,76.464M68.531,76.392L66.6799,76.392M68.646,76.32L66.4696,76.32M68.7614,76.248L66.3242,76.248M68.8765,76.176L66.2219,76.176M68.9916,76.104L66.1198,76.104M69.107,76.032L66.0311,76.032M69.222,75.96L65.956,75.96M69.3028,75.888L65.8806,75.888M69.349,75.816L65.8055,75.816M69.3955,75.744L67.6573,75.744M67.3441,75.744L65.7303,75.744M69.4418,75.672L67.9998,75.672M67.1312,75.672L65.685,75.672M69.4879,75.6L68.1174,75.6M66.9183,75.6L65.6399,75.6M69.5344,75.528L68.235,75.528M66.8393,75.528L65.5945,75.528M69.5807,75.456L68.3527,75.456M66.7598,75.456L65.5494,75.456M69.6268,75.384L68.4382,75.384M66.6808,75.384L65.5042,75.384M69.673,75.312L68.476,75.312M66.6014,75.312L65.4818,75.312M69.7195,75.24L68.5137,75.24M66.5691,75.24L65.4616,75.24M69.7411,75.168L68.5513,75.168M66.5368,75.168L65.4414,75.168M69.7524,75.096L68.5863,75.096M66.5045,75.096L65.4216,75.096M69.7638,75.024L68.6097,75.024M66.4721,75.024L65.4015,75.024M69.7751,74.952L68.6333,74.952M66.4412,74.952L65.3814,74.952M69.7864,74.88L68.6565,74.88M66.424,74.88L65.3612,74.88M69.7977,74.808L68.6801,74.808M66.4064,74.808L65.3414,74.808M69.8091,74.736L68.6956,74.736M66.3891,74.736L65.3213,74.736M69.8204,74.664L68.7056,74.664M66.3718,74.664L65.3034,74.664M69.8315,74.592L68.7158,74.592M66.3543,74.592L65.2949,74.592M69.8428,74.52L68.726,74.52M66.3369,74.52L65.2861,74.52M69.8542,74.448L68.7359,74.448M66.335,74.448L65.2776,74.448M69.8655,74.376L68.7385,74.376M66.335,74.376L65.2689,74.376M69.8769,74.304L68.7365,74.304M66.335,74.304L65.2601,74.304M69.8882,74.232L68.7348,74.232M66.335,74.232L65.2516,74.232M69.8995,74.16L68.7328,74.16M66.335,74.16L65.2428,74.16M69.8998,74.088L68.7308,74.088M66.3367,74.088L65.2342,74.088M69.8833,74.016L68.7288,74.016M66.346,74.016L65.2419,74.016M69.8669,73.944L68.7268,73.944M66.3553,73.944L65.251,73.944M69.8505,73.872L68.7226,73.872M66.3647,73.872L65.2604,73.872M69.834,73.8L68.7092,73.8M66.3741,73.8L65.2694,73.8M69.8176,73.728L68.6956,73.728M66.3834,73.728L65.2788,73.728M69.8012,73.656L68.6823,73.656M66.3928,73.656L65.2882,73.656M69.7847,73.584L68.669,73.584M66.4021,73.584L65.2972,73.584M69.7683,73.512L68.6557,73.512M66.4234,73.512L65.3065,73.512M69.7519,73.44L68.6367,73.44M66.4566,73.44L65.3224,73.44M69.7351,73.368L68.6047,73.368M66.49,73.368L65.3545,73.368M69.7187,73.296L68.5724,73.296M66.5232,73.296L65.3868,73.296M69.7023,73.224L68.5403,73.224M66.5564,73.224L65.4188,73.224M69.6858,73.152L68.4941,73.152M66.5895,73.152L65.4508,73.152M69.6532,73.08L68.442,73.08M66.623,73.08L65.4828,73.08M69.5968,73.008L68.3895,73.008M66.6969,73.008L65.5149,73.008M69.5404,72.936L68.3374,72.936M66.7712,72.936L65.5469,72.936M69.4837,72.864L68.2617,72.864M66.8454,72.864L65.579,72.864M69.4273,72.792L68.1316,72.792M66.9614,72.792L65.6141,72.792M69.3706,72.72L68.0012,72.72M67.0949,72.72L65.6759,72.72M69.3142,72.648L67.6454,72.648M67.523,72.648L65.738,72.648M69.2574,72.576L67.6454,72.576M67.5215,72.576L65.7998,72.576M69.2011,72.504L67.6454,72.504M67.5204,72.504L65.8619,72.504M69.1447,72.432L67.6454,72.432M67.5193,72.432L65.9279,72.432M69.088,72.36L67.6454,72.36M67.5181,72.36L66.0319,72.36M68.9694,72.288L67.6454,72.288M67.5167,72.288L66.136,72.288M68.8244,72.216L67.6454,72.216M67.5156,72.216L66.24,72.216M68.6795,72.144L67.6454,72.144M67.5145,72.144L66.344,72.144M68.5344,72.072L67.6454,72.072M67.513,72.072L66.4481,72.072M68.3892,72L67.6454,72M67.5119,72L66.6258,72M68.2444,71.928L67.6454,71.928M67.5108,71.928L66.8353,71.928M68.0545,71.856L67.6454,71.856M67.5096,71.856L67.2245,71.856"/>
    </g>
    <g  stroke-width="0">
     <title >polygon</title>
     <path  fill="white" stroke="none" stroke-linecap="round" stroke-width="0" d="M64.715,76.4928L64.715,71.9425M64.715,71.9425L63.5848,71.9425M63.5848,71.9425L63.5848,72.5688M63.5848,72.5688L63.5198,72.5544M63.5198,72.5544L63.4263,72.432M63.4263,72.432L63.2103,72.2088M63.2103,72.2088L62.9943,72.0353M62.9943,72.0353L62.7423,71.9209M62.7423,71.9209L62.4328,71.8489M62.4328,71.8489L62.0438,71.8129M62.0438,71.8129L61.7726,71.8325M61.7726,71.8325L61.511,71.9065M61.511,71.9065L61.287,72.0209M61.287,72.0209L61.0892,72.1757M61.0892,72.1757L60.9242,72.365M60.9242,72.365L60.7983,72.5832M60.7983,72.5832L60.785,72.5803M60.785,72.5803L60.7737,72.5731M60.7737,72.5731L60.7478,72.5472M60.7478,72.5472L60.6183,72.4104M60.6183,72.4104L60.395,72.1951M60.395,72.1951L60.143,72.0144M60.143,72.0144L59.9148,71.9031M59.9148,71.9031L59.6693,71.8373M59.6693,71.8373L59.4158,71.82M59.4158,71.82L59.053,71.8506M59.053,71.8506L58.6958,71.9209M58.6958,71.9209L58.4504,72.0137M58.4504,72.0137L58.2307,72.1577M58.2307,72.1577L58.0478,72.3456M58.0478,72.3456L57.8812,72.612M57.8812,72.612L57.7715,72.9065M57.7715,72.9065L57.7238,73.2168M57.7238,73.2168L57.7238,76.5M57.7238,76.5L58.9263,76.5M58.9263,76.5L58.9263,73.584M58.9263,73.584L58.9575,73.3277M58.9575,73.3277L59.0488,73.0872M59.0488,73.0872L59.1278,72.9713M59.1278,72.9713L59.2311,72.877M59.2311,72.877L59.3532,72.8093M59.3532,72.8093L59.4878,72.7704M59.4878,72.7704L59.7509,72.751M59.7509,72.751L60.0134,72.7776M60.0134,72.7776L60.1367,72.8158M60.1367,72.8158L60.2487,72.8791M60.2487,72.8791L60.3448,72.9648M60.3448,72.9648L60.4582,73.1203M60.4582,73.1203L60.5384,73.2953M60.5384,73.2953L60.5823,73.4832M60.5823,73.4832L60.6038,73.8M60.6038,73.8L60.6038,76.5M60.6038,76.5L61.8278,76.5M61.8278,76.5L61.8278,73.5048M61.8278,73.5048L61.8511,73.3104M61.8511,73.3104L61.9197,73.1268M61.9197,73.1268L62.0294,72.9648M62.0294,72.9648L62.1335,72.869M62.1335,72.869L62.2565,72.7985M62.2565,72.7985L62.3922,72.7582M62.3922,72.7582L62.5334,72.7488M62.5334,72.7488L62.7783,72.7632M62.7783,72.7632L62.9096,72.7877M62.9096,72.7877L63.0318,72.8417M63.0318,72.8417L63.1383,72.9216M63.1383,72.9216L63.3758,73.1952M63.3758,73.1952L63.4604,73.3558M63.4604,73.3558L63.4995,73.5322M63.4995,73.5322L63.491,73.7136M63.491,73.7136L63.491,76.4928M63.491,76.4928L64.715,76.4928M64.715,76.464L63.491,76.464M61.8278,76.464L60.6038,76.464M58.9263,76.464L57.7238,76.464M64.715,76.392L63.491,76.392M61.8278,76.392L60.6038,76.392M58.9263,76.392L57.7238,76.392M64.715,76.32L63.491,76.32M61.8278,76.32L60.6038,76.32M58.9263,76.32L57.7238,76.32M64.715,76.248L63.491,76.248M61.8278,76.248L60.6038,76.248M58.9263,76.248L57.7238,76.248M64.715,76.176L63.491,76.176M61.8278,76.176L60.6038,76.176M58.9263,76.176L57.7238,76.176M64.715,76.104L63.491,76.104M61.8278,76.104L60.6038,76.104M58.9263,76.104L57.7238,76.104M64.715,76.032L63.491,76.032M61.8278,76.032L60.6038,76.032M58.9263,76.032L57.7238,76.032M64.715,75.96L63.491,75.96M61.8278,75.96L60.6038,75.96M58.9263,75.96L57.7238,75.96M64.715,75.888L63.491,75.888M61.8278,75.888L60.6038,75.888M58.9263,75.888L57.7238,75.888M64.715,75.816L63.491,75.816M61.8278,75.816L60.6038,75.816M58.9263,75.816L57.7238,75.816M64.715,75.744L63.491,75.744M61.8278,75.744L60.6038,75.744M58.9263,75.744L57.7238,75.744M64.715,75.672L63.491,75.672M61.8278,75.672L60.6038,75.672M58.9263,75.672L57.7238,75.672M64.715,75.6L63.491,75.6M61.8278,75.6L60.6038,75.6M58.9263,75.6L57.7238,75.6M64.715,75.528L63.491,75.528M61.8278,75.528L60.6038,75.528M58.9263,75.528L57.7238,75.528M64.715,75.456L63.491,75.456M61.8278,75.456L60.6038,75.456M58.9263,75.456L57.7238,75.456M64.715,75.384L63.491,75.384M61.8278,75.384L60.6038,75.384M58.9263,75.384L57.7238,75.384M64.715,75.312L63.491,75.312M61.8278,75.312L60.6038,75.312M58.9263,75.312L57.7238,75.312M64.715,75.24L63.491,75.24M61.8278,75.24L60.6038,75.24M58.9263,75.24L57.7238,75.24M64.715,75.168L63.491,75.168M61.8278,75.168L60.6038,75.168M58.9263,75.168L57.7238,75.168M64.715,75.096L63.491,75.096M61.8278,75.096L60.6038,75.096M58.9263,75.096L57.7238,75.096M64.715,75.024L63.491,75.024M61.8278,75.024L60.6038,75.024M58.9263,75.024L57.7238,75.024M64.715,74.952L63.491,74.952M61.8278,74.952L60.6038,74.952M58.9263,74.952L57.7238,74.952M64.715,74.88L63.491,74.88M61.8278,74.88L60.6038,74.88M58.9263,74.88L57.7238,74.88M64.715,74.808L63.491,74.808M61.8278,74.808L60.6038,74.808M58.9263,74.808L57.7238,74.808M64.715,74.736L63.491,74.736M61.8278,74.736L60.6038,74.736M58.9263,74.736L57.7238,74.736M64.715,74.664L63.491,74.664M61.8278,74.664L60.6038,74.664M58.9263,74.664L57.7238,74.664M64.715,74.592L63.491,74.592M61.8278,74.592L60.6038,74.592M58.9263,74.592L57.7238,74.592M64.715,74.52L63.491,74.52M61.8278,74.52L60.6038,74.52M58.9263,74.52L57.7238,74.52M64.715,74.448L63.491,74.448M61.8278,74.448L60.6038,74.448M58.9263,74.448L57.7238,74.448M64.715,74.376L63.491,74.376M61.8278,74.376L60.6038,74.376M58.9263,74.376L57.7238,74.376M64.715,74.304L63.491,74.304M61.8278,74.304L60.6038,74.304M58.9263,74.304L57.7238,74.304M64.715,74.232L63.491,74.232M61.8278,74.232L60.6038,74.232M58.9263,74.232L57.7238,74.232M64.715,74.16L63.491,74.16M61.8278,74.16L60.6038,74.16M58.9263,74.16L57.7238,74.16M64.715,74.088L63.491,74.088M61.8278,74.088L60.6038,74.088M58.9263,74.088L57.7238,74.088M64.715,74.016L63.491,74.016M61.8278,74.016L60.6038,74.016M58.9263,74.016L57.7238,74.016M64.715,73.944L63.491,73.944M61.8278,73.944L60.6038,73.944M58.9263,73.944L57.7238,73.944M64.715,73.872L63.491,73.872M61.8278,73.872L60.6038,73.872M58.9263,73.872L57.7238,73.872M64.715,73.8L63.491,73.8M61.8278,73.8L60.6038,73.8M58.9263,73.8L57.7238,73.8M64.715,73.728L63.491,73.728M61.8278,73.728L60.5988,73.728M58.9263,73.728L57.7238,73.728M64.715,73.656L63.4938,73.656M61.8278,73.656L60.594,73.656M58.9263,73.656L57.7238,73.656M64.715,73.584L63.4972,73.584M61.8278,73.584L60.5892,73.584M58.9263,73.584L57.7238,73.584M64.715,73.512L63.4949,73.512M61.8278,73.512L60.584,73.512M58.9348,73.512L57.7238,73.512M64.715,73.44L63.4788,73.44M61.8355,73.44L60.5722,73.44M58.9436,73.44L57.7238,73.44M64.715,73.368L63.4629,73.368M61.844,73.368L60.5551,73.368M58.9524,73.368L57.7238,73.368M64.715,73.296L63.4289,73.296M61.8565,73.296L60.5384,73.296M58.9694,73.296L57.7238,73.296M64.715,73.224L63.3909,73.224M61.8834,73.224L60.5055,73.224M58.9969,73.224L57.7238,73.224M64.715,73.152L63.3385,73.152M61.9104,73.152L60.4724,73.152M59.0242,73.152L57.7341,73.152M64.715,73.08L63.2758,73.08M61.9515,73.08L60.4284,73.08M59.0536,73.08L57.7452,73.08M64.715,73.008L63.2132,73.008M62.0002,73.008L60.376,73.008M59.1026,73.008L57.7559,73.008M64.715,72.936L63.1508,72.936M62.0606,72.936L60.3122,72.936M59.1664,72.936L57.767,72.936M64.715,72.864L63.0618,72.864M62.1423,72.864L60.222,72.864M59.2543,72.864L57.7873,72.864M64.715,72.792L62.9192,72.792M62.2791,72.792L60.0602,72.792M59.4125,72.792L57.8143,72.792M64.715,72.72L57.8409,72.72M64.715,72.648L57.8678,72.648M64.715,72.576L60.8026,72.576M60.7785,72.576L57.9038,72.576M64.715,72.504L63.5848,72.504M63.4816,72.504L60.8442,72.504M60.7071,72.504L57.9489,72.504M64.715,72.432L63.5848,72.432M63.4263,72.432L60.8859,72.432M60.639,72.432L57.994,72.432M64.715,72.36L63.5848,72.36M63.3569,72.36L60.929,72.36M60.5662,72.36L58.0391,72.36M64.715,72.288L63.5848,72.288M63.2871,72.288L60.9916,72.288M60.4913,72.288L58.104,72.288M64.715,72.216L63.5848,72.216M63.2174,72.216L61.0543,72.216M60.4165,72.216L58.1738,72.216M64.715,72.144L63.5848,72.144M63.1295,72.144L61.13,72.144M60.3235,72.144L58.2511,72.144M64.715,72.072L63.5848,72.072M63.04,72.072L61.2218,72.072M60.2232,72.072L58.3614,72.072M64.715,72L63.5848,72M62.9164,72L61.3282,72M60.1134,72L58.4867,72M62.7582,71.928L61.469,71.928M59.9661,71.928L58.6772,71.928M62.4634,71.856L61.6895,71.856M59.7393,71.856L59.0258,71.856"/>
    </g>
   </g>
  </g>
  <g  stroke-width="0">
   <title >element:JP19</title>
   <g  stroke-width="0">
    <title >package:SCREWTERMINAL-3.5MM-2-NS</title>
   </g>
  </g>
  <g  stroke-width="0">
   <title >element:JP20</title>
   <g  stroke-width="0">
    <title >package:JST-2-PTH</title>
   </g>
  </g>
  <g  stroke-width="0">
   <title >element:JP21</title>
   <g  stroke-width="0">
    <title >package:1X02</title>
   </g>
  </g>
  <g  stroke-width="0">
   <title >element:S1</title>
   <g  stroke-width="0">
    <title >package:AYZ0202</title>
   </g>
  </g>
  <g  stroke-width="0">
   <title >element:U$2</title>
   <g  stroke-width="0">
    <title >package:CREATIVE_COMMONS</title>
   </g>
  </g>
  <g  stroke-width="0">
   <title >element:U1</title>
   <g  stroke-width="0">
    <title >package:DUEMILANOVE_SHIELD_NOLABELS</title>
   </g>
  </g>
  <g  stroke-width="0">
   <title >element:U2</title>
   <g  stroke-width="0">
    <title >package:D2PACK/A</title>
   </g>
  </g>
  <line  fill="none" stroke="white" fill-opacity="1" y1="120.104" x1="0.288" y2="120.104" stroke-width="0.576" x2="0.0878738"/>
  <line  fill="none" stroke="white" fill-opacity="1" y1="103.096" x1="0.288" y2="103.096" stroke-width="0.576" x2="0.0878738"/>
  <line  fill="none" stroke="white" fill-opacity="1" y1="120.104" x1="0.288" y2="103.096" stroke-width="0.576" x2="0.288"/>
 </g>
 <g  id="copper1" stroke-width="0">
  <g  id="copper0" stroke-width="0">
   <circle  fill="none" cx="154.888" cy="144" connectorname="A5" stroke="#F7BD13" r="2.052" id="connector129pad" stroke-width="1.224"/>
   <circle  fill="none" cx="50.4878" cy="7.2" connectorname="GND" stroke="#F7BD13" r="2.052" id="connector145pad" stroke-width="1.224"/>
   <circle  fill="none" cx="118.168" cy="118.8" connectorname="GND" stroke="#F7BD13" r="2.052" id="connector6pad" stroke-width="1.224"/>
   <circle  fill="none" cx="118.168" cy="111.6" connectorname="VCC" stroke="#F7BD13" r="2.052" id="connector7pad" stroke-width="1.224"/>
   <circle  fill="none" cx="118.168" cy="104.4" connectorname="OUT9" stroke="#F7BD13" r="2.052" id="connector8pad" stroke-width="1.224"/>
   <circle  fill="none" cx="93.6878" cy="7.2" connectorname="D8" stroke="#F7BD13" r="2.052" id="connector137pad" stroke-width="1.224"/>
   <circle  fill="none" cx="46.8878" cy="118.8" connectorname="GND" stroke="#F7BD13" r="2.052" id="connector9pad" stroke-width="1.224"/>
   <circle  fill="none" cx="46.8878" cy="111.6" connectorname="VCC" stroke="#F7BD13" r="2.052" id="connector10pad" stroke-width="1.224"/>
   <circle  fill="none" cx="46.8878" cy="104.4" connectorname="OUT0" stroke="#F7BD13" r="2.052" id="connector11pad" stroke-width="1.224"/>
   <circle  fill="none" cx="54.8078" cy="118.8" connectorname="GND" stroke="#F7BD13" r="2.052" id="connector12pad" stroke-width="1.224"/>
   <circle  fill="none" cx="54.8078" cy="111.6" connectorname="VCC" stroke="#F7BD13" r="2.052" id="connector13pad" stroke-width="1.224"/>
   <circle  fill="none" cx="54.8078" cy="104.4" connectorname="OUT1" stroke="#F7BD13" r="2.052" id="connector14pad" stroke-width="1.224"/>
   <circle  fill="none" cx="62.7278" cy="118.8" connectorname="GND" stroke="#F7BD13" r="2.052" id="connector15pad" stroke-width="1.224"/>
   <circle  fill="none" cx="126.088" cy="144" connectorname="A1" stroke="#F7BD13" r="2.052" id="connector125pad" stroke-width="1.224"/>
   <circle  fill="none" cx="62.7278" cy="111.6" connectorname="VCC" stroke="#F7BD13" r="2.052" id="connector16pad" stroke-width="1.224"/>
   <circle  fill="none" cx="126.088" cy="7.2" connectorname="D4" stroke="#F7BD13" r="2.052" id="connector133pad" stroke-width="1.224"/>
   <circle  fill="none" cx="62.7278" cy="104.4" connectorname="OUT2" stroke="#F7BD13" r="2.052" id="connector17pad" stroke-width="1.224"/>
   <circle  fill="none" cx="64.8878" cy="7.2" connectorname="D12" stroke="#F7BD13" r="2.052" id="connector141pad" stroke-width="1.224"/>
   <circle  fill="none" cx="70.6478" cy="118.8" connectorname="GND" stroke="#F7BD13" r="2.052" id="connector18pad" stroke-width="1.224"/>
   <circle  fill="none" cx="70.6478" cy="111.6" connectorname="VCC" stroke="#F7BD13" r="2.052" id="connector19pad" stroke-width="1.224"/>
   <circle  fill="none" cx="70.6478" cy="104.4" connectorname="OUT3" stroke="#F7BD13" r="2.052" id="connector20pad" stroke-width="1.224"/>
   <circle  fill="none" cx="78.5678" cy="118.8" connectorname="GND" stroke="#F7BD13" r="2.052" id="connector21pad" stroke-width="1.224"/>
   <circle  fill="none" cx="78.5678" cy="111.6" connectorname="VCC" stroke="#F7BD13" r="2.052" id="connector22pad" stroke-width="1.224"/>
   <circle  fill="none" cx="78.5678" cy="104.4" connectorname="OUT4" stroke="#F7BD13" r="2.052" id="connector23pad" stroke-width="1.224"/>
   <circle  fill="none" cx="86.4878" cy="118.8" connectorname="GND" stroke="#F7BD13" r="2.052" id="connector24pad" stroke-width="1.224"/>
   <circle  fill="none" cx="86.4878" cy="111.6" connectorname="VCC" stroke="#F7BD13" r="2.052" id="connector25pad" stroke-width="1.224"/>
   <circle  fill="none" cx="86.4878" cy="104.4" connectorname="OUT5" stroke="#F7BD13" r="2.052" id="connector26pad" stroke-width="1.224"/>
   <circle  fill="none" cx="94.4078" cy="118.8" connectorname="GND" stroke="#F7BD13" r="2.052" id="connector27pad" stroke-width="1.224"/>
   <circle  fill="none" cx="94.4078" cy="111.6" connectorname="VCC" stroke="#F7BD13" r="2.052" id="connector28pad" stroke-width="1.224"/>
   <circle  fill="none" cx="94.4078" cy="104.4" connectorname="OUT6" stroke="#F7BD13" r="2.052" id="connector29pad" stroke-width="1.224"/>
   <circle  fill="none" cx="102.328" cy="118.8" connectorname="GND" stroke="#F7BD13" r="2.052" id="connector30pad" stroke-width="1.224"/>
   <circle  fill="none" cx="82.8878" cy="144" connectorname="5V_A" stroke="#F7BD13" r="2.052" id="connector123pad" stroke-width="1.224"/>
   <circle  fill="none" cx="102.328" cy="111.6" connectorname="VCC" stroke="#F7BD13" r="2.052" id="connector31pad" stroke-width="1.224"/>
   <circle  fill="none" cx="140.488" cy="144" connectorname="A3" stroke="#F7BD13" r="2.052" id="connector127pad" stroke-width="1.224"/>
   <circle  fill="none" cx="102.328" cy="104.4" connectorname="OUT7" stroke="#F7BD13" r="2.052" id="connector32pad" stroke-width="1.224"/>
   <circle  fill="none" cx="140.488" cy="7.2" connectorname="D2" stroke="#F7BD13" r="2.052" id="connector131pad" stroke-width="1.224"/>
   <circle  fill="none" cx="110.248" cy="118.8" connectorname="GND" stroke="#F7BD13" r="2.052" id="connector33pad" stroke-width="1.224"/>
   <circle  fill="none" cx="111.688" cy="7.2" connectorname="D6" stroke="#F7BD13" r="2.052" id="connector135pad" stroke-width="1.224"/>
   <circle  fill="none" cx="110.248" cy="111.6" connectorname="VCC" stroke="#F7BD13" r="2.052" id="connector34pad" stroke-width="1.224"/>
   <circle  fill="none" cx="79.2878" cy="7.2" connectorname="BLANK" stroke="#F7BD13" r="2.052" id="connector139pad" stroke-width="1.224"/>
   <circle  fill="none" cx="110.248" cy="104.4" connectorname="OUT8" stroke="#F7BD13" r="2.052" id="connector35pad" stroke-width="1.224"/>
   <circle  fill="none" cx="90.0878" cy="144" connectorname="GND" stroke="#F7BD13" r="2.052" id="connector143pad" stroke-width="1.224"/>
   <circle  fill="none" cx="165.688" cy="36" connectorname="GSCLK" stroke="#F7BD13" r="2.052" id="connector36pad" stroke-width="1.224"/>
   <circle  fill="none" cx="154.888" cy="7.2" connectorname="RX" stroke="#F7BD13" r="2.052" id="connector147pad" stroke-width="1.224"/>
   <circle  fill="none" cx="165.688" cy="43.2" connectorname="XLAT" stroke="#F7BD13" r="2.052" id="connector37pad" stroke-width="1.224"/>
   <circle  fill="none" cx="165.688" cy="50.4" connectorname="BLANK" stroke="#F7BD13" r="2.052" id="connector38pad" stroke-width="1.224"/>
   <circle  fill="none" cx="165.688" cy="57.6" connectorname="SOUT" stroke="#F7BD13" r="2.052" id="connector39pad" stroke-width="1.224"/>
   <circle  fill="none" cx="165.688" cy="64.8" connectorname="SCLK" stroke="#F7BD13" r="2.052" id="connector40pad" stroke-width="1.224"/>
   <circle  fill="none" cx="165.688" cy="72" connectorname="VCC" stroke="#F7BD13" r="2.052" id="connector41pad" stroke-width="1.224"/>
   <circle  fill="none" cx="165.688" cy="79.2" connectorname="GND" stroke="#F7BD13" r="2.052" id="connector42pad" stroke-width="1.224"/>
   <circle  fill="none" cx="126.088" cy="118.8" connectorname="GND" stroke="#F7BD13" r="2.052" id="connector43pad" stroke-width="1.224"/>
   <circle  fill="none" cx="126.088" cy="111.6" connectorname="VCC" stroke="#F7BD13" r="2.052" id="connector44pad" stroke-width="1.224"/>
   <circle  fill="none" cx="126.088" cy="104.4" connectorname="OUT10" stroke="#F7BD13" r="2.052" id="connector45pad" stroke-width="1.224"/>
   <circle  fill="none" cx="134.008" cy="118.8" connectorname="GND" stroke="#F7BD13" r="2.052" id="connector46pad" stroke-width="1.224"/>
   <circle  fill="none" cx="134.008" cy="111.6" connectorname="VCC" stroke="#F7BD13" r="2.052" id="connector47pad" stroke-width="1.224"/>
   <circle  fill="none" cx="134.008" cy="104.4" connectorname="OUT11" stroke="#F7BD13" r="2.052" id="connector48pad" stroke-width="1.224"/>
   <circle  fill="none" cx="141.928" cy="118.8" connectorname="GND" stroke="#F7BD13" r="2.052" id="connector49pad" stroke-width="1.224"/>
   <circle  fill="none" cx="141.928" cy="111.6" connectorname="VCC" stroke="#F7BD13" r="2.052" id="connector50pad" stroke-width="1.224"/>
   <circle  fill="none" cx="141.928" cy="104.4" connectorname="OUT12" stroke="#F7BD13" r="2.052" id="connector51pad" stroke-width="1.224"/>
   <circle  fill="none" cx="149.848" cy="118.8" connectorname="GND" stroke="#F7BD13" r="2.052" id="connector52pad" stroke-width="1.224"/>
   <circle  fill="none" cx="149.848" cy="111.6" connectorname="VCC" stroke="#F7BD13" r="2.052" id="connector53pad" stroke-width="1.224"/>
   <circle  fill="none" cx="149.848" cy="104.4" connectorname="OUT13" stroke="#F7BD13" r="2.052" id="connector54pad" stroke-width="1.224"/>
   <circle  fill="none" cx="157.768" cy="118.8" connectorname="GND" stroke="#F7BD13" r="2.052" id="connector55pad" stroke-width="1.224"/>
   <circle  fill="none" cx="157.768" cy="111.6" connectorname="VCC" stroke="#F7BD13" r="2.052" id="connector56pad" stroke-width="1.224"/>
   <circle  fill="none" cx="157.768" cy="104.4" connectorname="OUT14" stroke="#F7BD13" r="2.052" id="connector57pad" stroke-width="1.224"/>
   <circle  fill="none" cx="165.688" cy="118.8" connectorname="GND" stroke="#F7BD13" r="2.052" id="connector58pad" stroke-width="1.224"/>
   <circle  fill="none" cx="165.688" cy="111.6" connectorname="VCC" stroke="#F7BD13" r="2.052" id="connector59pad" stroke-width="1.224"/>
   <circle  fill="none" cx="165.688" cy="104.4" connectorname="OUT15" stroke="#F7BD13" r="2.052" id="connector60pad" stroke-width="1.224"/>
   <circle  fill="none" cx="75.6878" cy="144" connectorname="3.3V" stroke="#F7BD13" r="2.052" id="connector122pad" stroke-width="1.224"/>
   <circle  fill="none" cx="118.888" cy="144" connectorname="A0" stroke="#F7BD13" r="2.052" id="connector124pad" stroke-width="1.224"/>
   <circle  fill="none" cx="133.288" cy="144" connectorname="A2" stroke="#F7BD13" r="2.052" id="connector126pad" stroke-width="1.224"/>
   <circle  fill="none" cx="17.0078" cy="114.435" connectorname="GND" stroke="#F7BD13" r="1.52207" id="connector63pad" stroke-width="1.05988"/>
   <circle  fill="none" cx="147.688" cy="144" connectorname="A4" stroke="#F7BD13" r="2.052" id="connector128pad" stroke-width="1.224"/>
   <circle  fill="none" cx="17.0078" cy="108.765" connectorname="VIN" stroke="#F7BD13" r="1.52207" id="connector64pad" stroke-width="1.05988"/>
   <circle  fill="none" cx="43.2878" cy="7.2" connectorname="AREF" stroke="#F7BD13" r="2.052" id="connector130pad" stroke-width="1.224"/>
   <circle  fill="none" cx="133.288" cy="7.2" connectorname="GSCLK" stroke="#F7BD13" r="2.052" id="connector132pad" stroke-width="1.224"/>
   <circle  fill="none" cx="118.888" cy="7.2" connectorname="D5" stroke="#F7BD13" r="2.052" id="connector134pad" stroke-width="1.224"/>
   <circle  fill="none" cx="104.488" cy="7.2" connectorname="D7" stroke="#F7BD13" r="2.052" id="connector136pad" stroke-width="1.224"/>
   <circle  fill="none" cx="86.4878" cy="7.2" connectorname="XLAT" stroke="#F7BD13" r="2.052" id="connector138pad" stroke-width="1.224"/>
   <circle  fill="none" cx="72.0878" cy="7.2" connectorname="SIN" stroke="#F7BD13" r="2.052" id="connector140pad" stroke-width="1.224"/>
   <circle  fill="none" cx="57.6878" cy="7.2" connectorname="SCLK" stroke="#F7BD13" r="2.052" id="connector142pad" stroke-width="1.224"/>
   <circle  fill="none" cx="97.2878" cy="144" connectorname="GND" stroke="#F7BD13" r="2.052" id="connector144pad" stroke-width="1.224"/>
   <circle  fill="none" cx="68.4878" cy="144" connectorname="RES" stroke="#F7BD13" r="2.052" id="connector146pad" stroke-width="1.224"/>
   <circle  fill="none" cx="147.688" cy="7.2" connectorname="TX" stroke="#F7BD13" r="2.052" id="connector148pad" stroke-width="1.224"/>
  </g>
 </g>
</svg>
