<?xml version='1.0' encoding='UTF-8' standalone='no'?>
<!-- Created with Fritzing (http://www.fritzing.org/) -->
<svg xmlns="http://www.w3.org/2000/svg" width="0.134in" x="0in" version="1.2" y="0in" height="0.134in" viewBox="0 0 9.648 9.648" baseProfile="tiny">
 <desc >Fritzing footprint generated by brd2svg</desc>
 <g  id="silkscreen" stroke-width="0"/>
 <g  id="copper1" stroke-width="0">
  <g  stroke-width="0" transform="matrix(0, 1, -1, 0, 3.41178, 1.70078)">
   <rect  width="0.566929" x="0.572031" y="1.70589" fill="#F7BD13" height="1.70078" stroke="none" id="connector0pad" stroke-width="0"/>
  </g>
  <g  stroke-width="0" transform="matrix(0, 1, -1, 0, 4.54564, 2.83465)">
   <rect  width="0.566929" x="0.572031" y="2.83974" fill="#F7BD13" height="1.70078" stroke="none" id="connector1pad" stroke-width="0"/>
  </g>
  <g  stroke-width="0" transform="matrix(0, 1, -1, 0, 5.6795, 3.9685)">
   <rect  width="0.566929" x="0.572031" y="3.97361" fill="#F7BD13" height="1.70078" stroke="none" id="connector2pad" stroke-width="0"/>
  </g>
  <g  stroke-width="0" transform="matrix(0, 1, -1, 0, 6.81335, 5.10236)">
   <rect  width="0.566929" x="0.572031" y="5.10746" fill="#F7BD13" height="1.70078" stroke="none" id="connector3pad" stroke-width="0"/>
  </g>
  <g  stroke-width="0" transform="matrix(0, 1, -1, 0, 7.94722, 6.23622)">
   <rect  width="0.566929" x="0.572031" y="6.24132" fill="#F7BD13" height="1.70078" stroke="none" id="connector4pad" stroke-width="0"/>
  </g>
  <g  stroke-width="0" transform="matrix(-1, 0, 0, -1, 5.11257, 17.585)">
   <rect  width="0.566929" x="2.27282" y="7.9421" fill="#F7BD13" height="1.70078" stroke="none" id="connector5pad" stroke-width="0"/>
  </g>
  <g  stroke-width="0" transform="matrix(-1, 0, 0, -1, 7.38029, 17.585)">
   <rect  width="0.566929" x="3.40668" y="7.9421" fill="#F7BD13" height="1.70078" stroke="none" id="connector6pad" stroke-width="0"/>
  </g>
  <g  stroke-width="0" transform="matrix(-1, 0, 0, -1, 9.648, 17.585)">
   <rect  width="0.566929" x="4.54054" y="7.9421" fill="#F7BD13" height="1.70078" stroke="none" id="connector7pad" stroke-width="0"/>
  </g>
  <g  stroke-width="0" transform="matrix(-1, 0, 0, -1, 11.9157, 17.585)">
   <rect  width="0.566929" x="5.67439" y="7.9421" fill="#F7BD13" height="1.70078" stroke="none" id="connector8pad" stroke-width="0"/>
  </g>
  <g  stroke-width="0" transform="matrix(-1, 0, 0, -1, 14.1834, 17.585)">
   <rect  width="0.566929" x="6.80826" y="7.9421" fill="#F7BD13" height="1.70078" stroke="none" id="connector9pad" stroke-width="0"/>
  </g>
  <g  stroke-width="0" transform="matrix(0, -1, 1, 0, 1.70078, 15.8842)">
   <rect  width="0.566929" x="8.50903" y="6.24132" fill="#F7BD13" height="1.70078" stroke="none" id="connector10pad" stroke-width="0"/>
  </g>
  <g  stroke-width="0" transform="matrix(0, -1, 1, 0, 2.83465, 14.7504)">
   <rect  width="0.566929" x="8.50903" y="5.10746" fill="#F7BD13" height="1.70078" stroke="none" id="connector11pad" stroke-width="0"/>
  </g>
  <g  stroke-width="0" transform="matrix(0, -1, 1, 0, 3.9685, 13.6165)">
   <rect  width="0.566929" x="8.50903" y="3.97361" fill="#F7BD13" height="1.70078" stroke="none" id="connector12pad" stroke-width="0"/>
  </g>
  <g  stroke-width="0" transform="matrix(0, -1, 1, 0, 5.10236, 12.4826)">
   <rect  width="0.566929" x="8.50903" y="2.83974" fill="#F7BD13" height="1.70078" stroke="none" id="connector13pad" stroke-width="0"/>
  </g>
  <g  stroke-width="0" transform="matrix(0, -1, 1, 0, 6.23622, 11.3488)">
   <rect  width="0.566929" x="8.50903" y="1.70589" fill="#F7BD13" height="1.70078" stroke="none" id="connector14pad" stroke-width="0"/>
  </g>
  <rect  width="0.566929" x="6.80826" y="0.00510239" fill="#F7BD13" height="1.70078" stroke="none" id="connector15pad" stroke-width="0"/>
  <rect  width="0.566929" x="5.67439" y="0.00510239" fill="#F7BD13" height="1.70078" stroke="none" id="connector16pad" stroke-width="0"/>
  <rect  width="0.566929" x="4.54054" y="0.00510239" fill="#F7BD13" height="1.70078" stroke="none" id="connector17pad" stroke-width="0"/>
  <rect  width="0.566929" x="3.40668" y="0.00510239" fill="#F7BD13" height="1.70078" stroke="none" id="connector18pad" stroke-width="0"/>
  <rect  width="0.566929" x="2.27282" y="0.00510239" fill="#F7BD13" height="1.70078" stroke="none" id="connector19pad" stroke-width="0"/>
 </g>
</svg>
