<?xml version="1.0" encoding="UTF-8"?><svg baseProfile="tiny" height="1.24in" id="svg2" version="1.2" viewBox="0 0 256.0 1240.0" width="0.256in">
  <desc id="desc4">Fritzing footprint SVG</desc>
  <g id="silkscreen">
    <line id="vertical-left" stroke="white" stroke-width="20" x1="20" x2="20" y1="20" y2="1230.0"/>
    <line id="bottom" stroke="white" stroke-width="20" x1="20" x2="236.0" y1="1230.0" y2="1230.0"/>
    <line id="vertical-right" stroke="white" stroke-width="20" x1="236.0" x2="236.0" y1="1230.0" y2="20"/>
    <line id="top" stroke="white" stroke-width="20" x1="236.0" x2="20" y1="20" y2="20"/>
    <line id="mid-vertical" stroke="white" stroke-width="10" x1="196.0" x2="196.0" y1="1230.0" y2="20"/>
  </g>
  <g id="copper1"><g id="copper0">
    <rect fill="none" height="55" id="rect20" stroke="rgb(255, 191, 0)" stroke-width="20" width="55" x="80.5" y="47.5"/>
    <circle cx="108.0" cy="75.0" fill="none" id="connector0pin" r="27.5" stroke="rgb(255, 191, 0)" stroke-width="20"/>
    <circle cx="108.0" cy="175.0" fill="none" id="connector1pin" r="27.5" stroke="rgb(255, 191, 0)" stroke-width="20"/>
    <circle cx="108.0" cy="275.0" fill="none" id="connector2pin" r="27.5" stroke="rgb(255, 191, 0)" stroke-width="20"/>
    <circle cx="108.0" cy="375.0" fill="none" id="connector3pin" r="27.5" stroke="rgb(255, 191, 0)" stroke-width="20"/>
    <circle cx="108.0" cy="475.0" fill="none" id="connector4pin" r="27.5" stroke="rgb(255, 191, 0)" stroke-width="20"/>
    <circle cx="108.0" cy="575.0" fill="none" id="connector5pin" r="27.5" stroke="rgb(255, 191, 0)" stroke-width="20"/>
    <circle cx="108.0" cy="675.0" fill="none" id="connector6pin" r="27.5" stroke="rgb(255, 191, 0)" stroke-width="20"/>
    <circle cx="108.0" cy="775.0" fill="none" id="connector7pin" r="27.5" stroke="rgb(255, 191, 0)" stroke-width="20"/>
    <circle cx="108.0" cy="875.0" fill="none" id="connector8pin" r="27.5" stroke="rgb(255, 191, 0)" stroke-width="20"/>
    <circle cx="108.0" cy="975.0" fill="none" id="connector9pin" r="27.5" stroke="rgb(255, 191, 0)" stroke-width="20"/>
    <circle cx="108.0" cy="1075.0" fill="none" id="connector10pin" r="27.5" stroke="rgb(255, 191, 0)" stroke-width="20"/>
    <circle cx="108.0" cy="1175.0" fill="none" id="connector11pin" r="27.5" stroke="rgb(255, 191, 0)" stroke-width="20"/>
  </g></g>
  <g id="keepout"/>
  <g id="soldermask"/>
  <g id="outline"/>
</svg>