<?xml version="1.0" encoding="UTF-8" standalone="no"?> <svg xmlns:svg="http://www.w3.org/2000/svg" xmlns="http://www.w3.org/2000/svg" version="1.2" baseProfile="tiny" x="0in" y="0in" width="0.5511in" height="0.4795in" viewBox="0 0 5511 4795" ><title>sparkfun_audio_jack.mod</title><desc>Kicad module '>NAME' from file 'sparkfun_audio_jack.mod' converted by Fritzing</desc><metadata xmlns:fz='http://fritzing.org/kicadmetadata/1.0/' xmlns:rdf='http://www.w3.org/1999/02/22-rdf-syntax-ns#'><rdf:RDF><rdf:Description rdf:about=''><fz:attr name='kicad filename'>sparkfun_audio_jack.mod</fz:attr><fz:attr name='kicad module'>>NAME</fz:attr><fz:attr name='fritzing version'>0.3.20b.04.19.4124</fz:attr><fz:attr name='conversion date'>26/04/2010 17:38:24</fz:attr></rdf:Description></rdf:RDF></metadata>
<g id="copper0">
 <circle fill="none" cx="2559" cy="2397.5" stroke="#ff9400" r="301.75" id="connector0pin" stroke-width="255.5"/>
 <circle fill="none" cx="4527" cy="429.5" stroke="#ff9400" r="301.75" id="connector1pin" stroke-width="255.5"/>
 <circle fill="none" cx="4527" cy="1413.5" stroke="#ff9400" r="301.75" id="connector2pin" stroke-width="255.5"/>
 <circle fill="none" cx="4527" cy="3381.5" stroke="#ff9400" r="301.75" id="connector3pin" stroke-width="255.5"/>
 <circle fill="none" cx="4527" cy="4365.5" stroke="#ff9400" r="301.75" id="connector4pin" stroke-width="255.5"/>
</g>
<g id="silkscreen">
 <line fill="none" stroke="white" y1="35.5" x1="5511" y2="4759.5" stroke-width="80" x2="5511"/>
 <line fill="none" stroke="white" y1="35.5" x1="1182" y2="626.5" stroke-width="80" x2="1182"/>
 <line fill="none" stroke="white" y1="4168.5" x1="1182" y2="4759.5" stroke-width="80" x2="1182"/>
 <line fill="none" stroke="white" y1="626.5" x1="788" y2="1216.5" stroke-width="80" x2="788"/>
 <line fill="none" stroke="white" y1="3578.5" x1="788" y2="4168.5" stroke-width="80" x2="788"/>
 <line fill="none" stroke="white" y1="4168.5" x1="788" y2="4168.5" stroke-width="80" x2="1182"/>
 <line fill="none" stroke="white" y1="626.5" x1="788" y2="626.5" stroke-width="80" x2="1182"/>
 <line fill="none" stroke="white" y1="1216.5" x1="0" y2="3578.5" stroke-width="80" x2="0"/>
 <line fill="none" stroke="white" y1="3578.5" x1="0" y2="3578.5" stroke-width="80" x2="788"/>
 <line fill="none" stroke="white" y1="1216.5" x1="0" y2="1216.5" stroke-width="80" x2="788"/>
 <line fill="none" stroke="white" y1="35.5" x1="1182" y2="35.5" stroke-width="80" x2="3936"/>
 <line fill="none" stroke="white" y1="35.5" x1="5511" y2="35.5" stroke-width="80" x2="5118"/>
 <line fill="none" stroke="white" y1="35.5" x1="1182" y2="4759.5" stroke-width="80" x2="1182"/>
 <line fill="none" stroke="white" y1="4759.5" x1="1182" y2="4759.5" stroke-width="80" x2="3936"/>
 <line fill="none" stroke="white" y1="4759.5" x1="5511" y2="4759.5" stroke-width="80" x2="5118"/>
 <circle fill="none" cx="2559" cy="429.5" stroke="white" r="166.877" stroke-width="50"/>
 <line fill="none" stroke="white" y1="429.5" x1="2323" y2="429.5" stroke-width="50" x2="2795"/>
 <line fill="none" stroke="white" y1="665.5" x1="2559" y2="193.5" stroke-width="50" x2="2559"/>
 <circle fill="none" cx="1575" cy="429.5" stroke="white" r="166.877" stroke-width="50"/>
 <line fill="none" stroke="white" y1="429.5" x1="1339" y2="429.5" stroke-width="50" x2="1811"/>
 <line fill="none" stroke="white" y1="665.5" x1="1575" y2="193.5" stroke-width="50" x2="1575"/>
 <circle fill="none" cx="1575" cy="4365.5" stroke="white" r="166.877" stroke-width="50"/>
 <line fill="none" stroke="white" y1="4365.5" x1="1339" y2="4365.5" stroke-width="50" x2="1811"/>
 <line fill="none" stroke="white" y1="4601.5" x1="1575" y2="4129.5" stroke-width="50" x2="1575"/>
 <circle fill="none" cx="2559" cy="4365.5" stroke="white" r="166.877" stroke-width="50"/>
 <line fill="none" stroke="white" y1="4365.5" x1="2323" y2="4365.5" stroke-width="50" x2="2795"/>
 <line fill="none" stroke="white" y1="4601.5" x1="2559" y2="4129.5" stroke-width="50" x2="2559"/>
 <circle fill="none" cx="4527" cy="2397.5" stroke="white" r="166.877" stroke-width="50"/>
 <line fill="none" stroke="white" y1="2397.5" x1="4291" y2="2397.5" stroke-width="50" x2="4763"/>
 <line fill="none" stroke="white" y1="2633.5" x1="4527" y2="2161.5" stroke-width="50" x2="4527"/>
</g>
</svg>