<?xml version='1.0' encoding='UTF-8' standalone='no'?>
<!-- Created with Fritzing (http://www.fritzing.org/) -->
<svg xmlns="http://www.w3.org/2000/svg" width="0.4in" x="0in" version="1.2" y="0in" height="0.4in" viewBox="0 0 28.8 28.8" baseProfile="tiny">
 <desc >Fritzing footprint generated by brd2svg</desc>
 <g  id="silkscreen" stroke-width="0">
  <path  fill="none" stroke="white" stroke-width="0.576" d="M0.288,28.512L28.512,28.512L28.512,0.288L0.288,0.288L0.288,28.512"/>
  <g  stroke-width="0">
   <title >element:JP4</title>
   <g  stroke-width="0">
    <title >package:1X03</title>
    <line  stroke="white" stroke-linecap="round" y1="10.8" x1="1.8" y2="9" stroke-width="0.576" x2="0"/>
    <line  stroke="white" stroke-linecap="round" y1="9" x1="0" y2="5.4" stroke-width="0.576" x2="0"/>
    <line  stroke="white" stroke-linecap="round" y1="5.4" x1="0" y2="3.6" stroke-width="0.576" x2="1.8"/>
    <line  stroke="white" stroke-linecap="round" y1="3.6" x1="5.4" y2="5.4" stroke-width="0.576" x2="7.2"/>
    <line  stroke="white" stroke-linecap="round" y1="5.4" x1="7.2" y2="9" stroke-width="0.576" x2="7.2"/>
    <line  stroke="white" stroke-linecap="round" y1="9" x1="7.2" y2="10.8" stroke-width="0.576" x2="5.4"/>
    <line  stroke="white" stroke-linecap="round" y1="23.4" x1="0" y2="19.8" stroke-width="0.576" x2="0"/>
    <line  stroke="white" stroke-linecap="round" y1="19.8" x1="0" y2="18" stroke-width="0.576" x2="1.8"/>
    <line  stroke="white" stroke-linecap="round" y1="18" x1="5.4" y2="19.8" stroke-width="0.576" x2="7.2"/>
    <line  stroke="white" stroke-linecap="round" y1="18" x1="1.8" y2="16.2" stroke-width="0.576" x2="0"/>
    <line  stroke="white" stroke-linecap="round" y1="16.2" x1="0" y2="12.6" stroke-width="0.576" x2="0"/>
    <line  stroke="white" stroke-linecap="round" y1="12.6" x1="0" y2="10.8" stroke-width="0.576" x2="1.8"/>
    <line  stroke="white" stroke-linecap="round" y1="10.8" x1="5.4" y2="12.6" stroke-width="0.576" x2="7.2"/>
    <line  stroke="white" stroke-linecap="round" y1="12.6" x1="7.2" y2="16.2" stroke-width="0.576" x2="7.2"/>
    <line  stroke="white" stroke-linecap="round" y1="16.2" x1="7.2" y2="18" stroke-width="0.576" x2="5.4"/>
    <line  stroke="white" stroke-linecap="round" y1="25.2" x1="1.8" y2="25.2" stroke-width="0.576" x2="5.4"/>
    <line  stroke="white" stroke-linecap="round" y1="23.4" x1="0" y2="25.2" stroke-width="0.576" x2="1.8"/>
    <line  stroke="white" stroke-linecap="round" y1="25.2" x1="5.4" y2="23.4" stroke-width="0.576" x2="7.2"/>
    <line  stroke="white" stroke-linecap="round" y1="19.8" x1="7.2" y2="23.4" stroke-width="0.576" x2="7.2"/>
    <line  stroke="white" stroke-linecap="round" y1="3.6" x1="1.8" y2="3.6" stroke-width="0.576" x2="5.4"/>
   </g>
  </g>
 </g>
 <g  id="copper1" stroke-width="0">
  <circle  fill="none" cx="3.6" cy="21.6" connectorname="VCC" stroke="#F7BD13" r="2.052" id="connector2pad" stroke-width="1.224"/>
  <circle  fill="none" cx="3.6" cy="14.4" connectorname="GND" stroke="#F7BD13" r="2.052" id="connector3pad" stroke-width="1.224"/>
  <circle  fill="none" cx="3.6" cy="7.2" connectorname="S" stroke="#F7BD13" r="2.052" id="connector4pad" stroke-width="1.224"/>
 </g>
 <g  id="copper0" stroke-width="0">
  <circle  fill="none" cx="3.6" cy="21.6" connectorname="VCC" stroke="#F7BD13" r="2.052" id="connector2pad" stroke-width="1.224"/>
  <circle  fill="none" cx="3.6" cy="14.4" connectorname="GND" stroke="#F7BD13" r="2.052" id="connector3pad" stroke-width="1.224"/>
  <circle  fill="none" cx="3.6" cy="7.2" connectorname="S" stroke="#F7BD13" r="2.052" id="connector4pad" stroke-width="1.224"/>
 </g>
</svg>
