<?xml version='1.0' encoding='UTF-8'?>
<svg width="0.498in" version="1.2" xmlns="http://www.w3.org/2000/svg" height="0.424in" viewBox="0 0 498 424" baseProfile="tiny" >
 <desc>Fritzing footprint SVG</desc>
 <g id="silkscreen" >
  <line stroke="white" y1="162" x1="299" y2="262" stroke-width="5" x2="199" />
  <line stroke="white" y1="337" x1="399" y2="262" stroke-width="12" x2="449" />
  <line stroke="white" y1="387" x1="349" y2="337" stroke-width="12" x2="399" />
  <line stroke="white" y1="412" x1="274" y2="387" stroke-width="12" x2="349" />
  <line stroke="white" y1="412" x1="224" y2="412" stroke-width="12" x2="274" />
  <line stroke="white" y1="387" x1="149" y2="412" stroke-width="12" x2="224" />
  <line stroke="white" y1="362" x1="124" y2="387" stroke-width="12" x2="149" />
  <line stroke="white" y1="37" x1="149" y2="12" stroke-width="12" x2="224" />
  <line stroke="white" y1="62" x1="124" y2="37" stroke-width="12" x2="149" />
  <line stroke="white" y1="162" x1="49" y2="262" stroke-width="12" x2="49" />
  <line stroke="white" y1="12" x1="224" y2="12" stroke-width="12" x2="274" />
  <line stroke="white" y1="12" x1="274" y2="37" stroke-width="12" x2="349" />
  <line stroke="white" y1="37" x1="349" y2="87" stroke-width="12" x2="399" />
  <line stroke="white" y1="362" x1="49" y2="362" stroke-width="12" x2="124" />
  <line stroke="white" y1="62" x1="49" y2="62" stroke-width="12" x2="124" />
  <line stroke="white" y1="87" x1="399" y2="162" stroke-width="12" x2="449" />
 </g>
 <g id="copper0" >
  <circle fill="none" cx="49" cy="312" stroke="rgb(255, 191, 0)" r="35" id="connector2pin" stroke-width="29" />
  <rect width="70" x="14" y="77" fill="none" height="70" stroke="rgb(255, 191, 0)" stroke-width="29" />
  <circle fill="none" cx="49" cy="112" stroke="rgb(255, 191, 0)" r="35" id="connector0pin" stroke-width="29" />
  <circle fill="none" cx="449" cy="212" stroke="rgb(255, 191, 0)" r="35" id="connector1pin" stroke-width="29" />
 </g>
 <g id="keepout" />
 <g id="soldermask" />
 <g id="outline" />
</svg>
