<?xml version="1.0" encoding="UTF-8" standalone="no"?>
<!-- Created with Inkscape (http://www.inkscape.org/) -->

<svg
   xmlns:dc="http://purl.org/dc/elements/1.1/"
   xmlns:cc="http://creativecommons.org/ns#"
   xmlns:rdf="http://www.w3.org/1999/02/22-rdf-syntax-ns#"
   xmlns:svg="http://www.w3.org/2000/svg"
   xmlns="http://www.w3.org/2000/svg"
   version="1.2"
   width="63.989796"
   height="120.73006"
   viewBox="0 0 710.9977 1341.445"
   id="svg2954"
   
   >
  <desc
     id="desc2956">Fritzing footprint SVG</desc>
  <defs
     id="defs2999" />
  <g
     transform="matrix(1,0,0,1.2094976,-4.501148,-6.5961179)"
     id="silkscreen">
    <line
       y1="10"
       x1="10"
       y2="1110"
       x2="10"
       id="line2959"
       style="stroke:#ffffff;stroke-width:10" />
    <line
       y1="1110"
       x1="10"
       y2="1110"
       x2="710"
       id="line2961"
       style="stroke:#ffffff;stroke-width:10" />
    <line
       y1="1110"
       x1="710"
       y2="10"
       x2="710"
       id="line2963"
       style="stroke:#ffffff;stroke-width:10" />
    <line
       y1="10"
       x1="10"
       y2="10"
       x2="310"
       id="line2965"
       style="stroke:#ffffff;stroke-width:10" />
    <line
       y1="10"
       x1="410"
       y2="10"
       x2="710"
       id="line2967"
       style="stroke:#ffffff;stroke-width:10" />
  </g>
  <g
     id="copper0"
     transform="translate(-4.501148,-5.5486297)">
    <rect
       width="55"
       height="55"
       x="32.5"
       y="32.5"
       id="rect2970"
       style="fill:none;stroke:#ffbf00;stroke-width:20" />
    <circle
       cx="60"
       cy="60"
       r="27.5"
       id="connector0pin"
       style="fill:none;stroke:#ffbf00;stroke-width:20"
       
       d="M 87.5,60 C 87.5,75.187831 75.187831,87.5 60,87.5 44.812169,87.5 32.5,75.187831 32.5,60 32.5,44.812169 44.812169,32.5 60,32.5 75.187831,32.5 87.5,44.812169 87.5,60 z" />
    <circle
       cx="660"
       cy="60"
       r="27.5"
       id="connector17pin"
       style="fill:none;stroke:#ffbf00;stroke-width:20"
       d="m 687.5,60 c 0,15.187831 -12.31217,27.5 -27.5,27.5 -15.18783,0 -27.5,-12.312169 -27.5,-27.5 0,-15.187831 12.31217,-27.5 27.5,-27.5 15.18783,0 27.5,12.312169 27.5,27.5 z" />
    <circle
       cx="60"
       cy="160"
       r="27.5"
       id="connector1pin"
       style="fill:none;stroke:#ffbf00;stroke-width:20"
       d="m 87.5,160 c 0,15.18783 -12.312169,27.5 -27.5,27.5 -15.187831,0 -27.5,-12.31217 -27.5,-27.5 0,-15.18783 12.312169,-27.5 27.5,-27.5 15.187831,0 27.5,12.31217 27.5,27.5 z" />
    <circle
       cx="660"
       cy="160"
       r="27.5"
       id="connector16pin"
       style="fill:none;stroke:#ffbf00;stroke-width:20"
       d="m 687.5,160 c 0,15.18783 -12.31217,27.5 -27.5,27.5 -15.18783,0 -27.5,-12.31217 -27.5,-27.5 0,-15.18783 12.31217,-27.5 27.5,-27.5 15.18783,0 27.5,12.31217 27.5,27.5 z" />
    <circle
       cx="60"
       cy="260"
       r="27.5"
       id="connector2pin"
       style="fill:none;stroke:#ffbf00;stroke-width:20"
       d="m 87.5,260 c 0,15.18783 -12.312169,27.5 -27.5,27.5 -15.187831,0 -27.5,-12.31217 -27.5,-27.5 0,-15.18783 12.312169,-27.5 27.5,-27.5 15.187831,0 27.5,12.31217 27.5,27.5 z" />
    <circle
       cx="660"
       cy="260"
       r="27.5"
       id="connector15pin"
       style="fill:none;stroke:#ffbf00;stroke-width:20"
       d="m 687.5,260 c 0,15.18783 -12.31217,27.5 -27.5,27.5 -15.18783,0 -27.5,-12.31217 -27.5,-27.5 0,-15.18783 12.31217,-27.5 27.5,-27.5 15.18783,0 27.5,12.31217 27.5,27.5 z" />
    <circle
       cx="60"
       cy="360"
       r="27.5"
       id="connector3pin"
       style="fill:none;stroke:#ffbf00;stroke-width:20"
       d="m 87.5,360 c 0,15.18783 -12.312169,27.5 -27.5,27.5 -15.187831,0 -27.5,-12.31217 -27.5,-27.5 0,-15.18783 12.312169,-27.5 27.5,-27.5 15.187831,0 27.5,12.31217 27.5,27.5 z" />
    <circle
       cx="660"
       cy="360"
       r="27.5"
       id="connector14pin"
       style="fill:none;stroke:#ffbf00;stroke-width:20"
       d="m 687.5,360 c 0,15.18783 -12.31217,27.5 -27.5,27.5 -15.18783,0 -27.5,-12.31217 -27.5,-27.5 0,-15.18783 12.31217,-27.5 27.5,-27.5 15.18783,0 27.5,12.31217 27.5,27.5 z" />
    <circle
       cx="60"
       cy="460"
       r="27.5"
       id="connector4pin"
       style="fill:none;stroke:#ffbf00;stroke-width:20"
       d="m 87.5,460 c 0,15.18783 -12.312169,27.5 -27.5,27.5 -15.187831,0 -27.5,-12.31217 -27.5,-27.5 0,-15.18783 12.312169,-27.5 27.5,-27.5 15.187831,0 27.5,12.31217 27.5,27.5 z" />
    <circle
       cx="660"
       cy="460"
       r="27.5"
       id="connector13pin"
       style="fill:none;stroke:#ffbf00;stroke-width:20"
       d="m 687.5,460 c 0,15.18783 -12.31217,27.5 -27.5,27.5 -15.18783,0 -27.5,-12.31217 -27.5,-27.5 0,-15.18783 12.31217,-27.5 27.5,-27.5 15.18783,0 27.5,12.31217 27.5,27.5 z" />
    <circle
       cx="60"
       cy="560"
       r="27.5"
       id="connector5pin"
       style="fill:none;stroke:#ffbf00;stroke-width:20"
       d="m 87.5,560 c 0,15.18783 -12.312169,27.5 -27.5,27.5 -15.187831,0 -27.5,-12.31217 -27.5,-27.5 0,-15.18783 12.312169,-27.5 27.5,-27.5 15.187831,0 27.5,12.31217 27.5,27.5 z" />
    <circle
       cx="660"
       cy="560"
       r="27.5"
       id="connector12pin"
       style="fill:none;stroke:#ffbf00;stroke-width:20"
       d="m 687.5,560 c 0,15.18783 -12.31217,27.5 -27.5,27.5 -15.18783,0 -27.5,-12.31217 -27.5,-27.5 0,-15.18783 12.31217,-27.5 27.5,-27.5 15.18783,0 27.5,12.31217 27.5,27.5 z" />
    <circle
       cx="660"
       cy="660"
       r="27.5"
       id="connector11pin"
       style="fill:none;stroke:#ffbf00;stroke-width:20"
       d="m 687.5,660 c 0,15.18783 -12.31217,27.5 -27.5,27.5 -15.18783,0 -27.5,-12.31217 -27.5,-27.5 0,-15.18783 12.31217,-27.5 27.5,-27.5 15.18783,0 27.5,12.31217 27.5,27.5 z" />
    <circle
       cx="60"
       cy="760"
       r="27.5"
       id="connector6pin"
       style="fill:none;stroke:#ffbf00;stroke-width:20"
       
       
       
       
       d="m 87.5,760 c 0,15.18783 -12.312169,27.5 -27.5,27.5 -15.187831,0 -27.5,-12.31217 -27.5,-27.5 0,-15.18783 12.312169,-27.5 27.5,-27.5 15.187831,0 27.5,12.31217 27.5,27.5 z" />
    <circle
       cx="660"
       cy="760"
       r="27.5"
       id="connector10pin"
       style="fill:none;stroke:#ffbf00;stroke-width:20"
       
       
       
       
       d="m 687.5,760 c 0,15.18783 -12.31217,27.5 -27.5,27.5 -15.18783,0 -27.5,-12.31217 -27.5,-27.5 0,-15.18783 12.31217,-27.5 27.5,-27.5 15.18783,0 27.5,12.31217 27.5,27.5 z" />
    <circle
       cx="60"
       cy="860"
       r="27.5"
       id="connector7pin"
       style="fill:none;stroke:#ffbf00;stroke-width:20"
       
       
       
       
       d="m 87.5,860 c 0,15.18783 -12.312169,27.5 -27.5,27.5 -15.187831,0 -27.5,-12.31217 -27.5,-27.5 0,-15.18783 12.312169,-27.5 27.5,-27.5 15.187831,0 27.5,12.31217 27.5,27.5 z" />
    <circle
       cx="60"
       cy="960"
       r="27.5"
       id="connector8pin"
       style="fill:none;stroke:#ffbf00;stroke-width:20"
       
       
       
       
       d="m 87.5,960 c 0,15.18783 -12.312169,27.5 -27.5,27.5 -15.187831,0 -27.5,-12.31217 -27.5,-27.5 0,-15.18783 12.312169,-27.5 27.5,-27.5 15.187831,0 27.5,12.31217 27.5,27.5 z" />
    <circle
       cx="60"
       cy="1060"
       r="27.5"
       id="connector9pin"
       style="fill:none;stroke:#ffbf00;stroke-width:20"
       
       
       
       
       d="m 87.5,1060 c 0,15.1878 -12.312169,27.5 -27.5,27.5 -15.187831,0 -27.5,-12.3122 -27.5,-27.5 0,-15.1878 12.312169,-27.5 27.5,-27.5 15.187831,0 27.5,12.3122 27.5,27.5 z" />
  </g>
  <g
     id="keepout"
     transform="translate(-4.501148,-5.5486297)" />
  <g
     id="soldermask"
     transform="translate(-4.501148,-5.5486297)" />
  <g
     id="outline"
     transform="translate(-4.501148,-5.5486297)" />
</svg>
