<?xml version='1.0' encoding='UTF-8'?>
<svg width="0.970in" version="1.2" xmlns="http://www.w3.org/2000/svg" height="1.097in" viewBox="0 0 970 1097" baseProfile="tiny" >
 <desc>Fritzing footprint SVG</desc>
 <g id="silkscreen" >
  <line stroke="white" y1="5" x1="304" y2="5" stroke-width="10" x2="666" />
  <line stroke="white" y1="5" x1="666" y2="262" stroke-width="10" x2="965" />
  <line stroke="white" y1="262" x1="965" y2="1092" stroke-width="10" x2="965" />
  <line stroke="white" y1="1092" x1="965" y2="1092" stroke-width="10" x2="5" />
  <line stroke="white" y1="1092" x1="5" y2="262" stroke-width="10" x2="5" />
  <line stroke="white" y1="262" x1="5" y2="5" stroke-width="10" x2="304" />
 </g>
 <g id="copper0" >
  <rect width="48" x="26" y="272" fill="none" height="48" stroke="rgb(255, 191, 0)" stroke-width="20" />
  <circle fill="none" cx="50" cy="296" stroke="rgb(255, 191, 0)" r="24" id="connector0pin" stroke-width="20" />
  <circle fill="none" cx="50" cy="375" stroke="rgb(255, 191, 0)" r="24" id="connector1pin" stroke-width="20" />
  <circle fill="none" cx="50" cy="454" stroke="rgb(255, 191, 0)" r="24" id="connector2pin" stroke-width="20" />
  <circle fill="none" cx="50" cy="533" stroke="rgb(255, 191, 0)" r="24" id="connector3pin" stroke-width="20" />
  <circle fill="none" cx="50" cy="612" stroke="rgb(255, 191, 0)" r="24" id="connector4pin" stroke-width="20" />
  <circle fill="none" cx="50" cy="691" stroke="rgb(255, 191, 0)" r="24" id="connector5pin" stroke-width="20" />
  <circle fill="none" cx="50" cy="770" stroke="rgb(255, 191, 0)" r="24" id="connector6pin" stroke-width="20" />
  <circle fill="none" cx="50" cy="849" stroke="rgb(255, 191, 0)" r="24" id="connector7pin" stroke-width="20" />
  <circle fill="none" cx="50" cy="928" stroke="rgb(255, 191, 0)" r="24" id="connector8pin" stroke-width="20" />
  <circle fill="none" cx="50" cy="1007" stroke="rgb(255, 191, 0)" r="24" id="connector9pin" stroke-width="20" />
  <circle fill="none" cx="920" cy="1007" stroke="rgb(255, 191, 0)" r="24" id="connector10pin" stroke-width="20" />
  <circle fill="none" cx="920" cy="928" stroke="rgb(255, 191, 0)" r="24" id="connector11pin" stroke-width="20" />
  <circle fill="none" cx="920" cy="849" stroke="rgb(255, 191, 0)" r="24" id="connector12pin" stroke-width="20" />
  <circle fill="none" cx="920" cy="770" stroke="rgb(255, 191, 0)" r="24" id="connector13pin" stroke-width="20" />
  <circle fill="none" cx="920" cy="691" stroke="rgb(255, 191, 0)" r="24" id="connector14pin" stroke-width="20" />
  <circle fill="none" cx="920" cy="612" stroke="rgb(255, 191, 0)" r="24" id="connector15pin" stroke-width="20" />
  <circle fill="none" cx="920" cy="533" stroke="rgb(255, 191, 0)" r="24" id="connector16pin" stroke-width="20" />
  <circle fill="none" cx="920" cy="454" stroke="rgb(255, 191, 0)" r="24" id="connector17pin" stroke-width="20" />
  <circle fill="none" cx="920" cy="375" stroke="rgb(255, 191, 0)" r="24" id="connector18pin" stroke-width="20" />
  <circle fill="none" cx="920" cy="296" stroke="rgb(255, 191, 0)" r="24" id="connector19pin" stroke-width="20" />
 </g>
 <g id="keepout" />
 <g id="soldermask" />
 <g id="outline" />
</svg>
