<?xml version="1.0" encoding="UTF-8" standalone="no"?>
#set $width = ((int($pins)-1) * 10) + 12
#set $widthin = $width / 100.0
#set $rectwidth = $width - 1.4
#set $bodyright1 = $width - 0.75
#set $bodyright2 = $width - 2.15
#set $height = 30
<svg
   xmlns:svg="http://www.w3.org/2000/svg"
   xmlns="http://www.w3.org/2000/svg"
   version="1.0"
   baseProfile="tiny"
   id="svg2"
   width="${widthin}in"
   height="${height / 100.0}in"
   viewBox="0 0 $width $height">
  <g id="breadboard">
  <polygon
     id="bodybottom"
     points="0,18.5 $width,18.5 $width,27 0,27 0,18.5 " />
  <polygon
     style="fill:#3d3d3d"
     id="bodytop"
     points="0,0 $width,0 $width,8.5 0,8.5 0,0 " />
  <polygon
     style="fill:#1f1f1f"
     id="polygon58"
     points="0,0 0.75,2.46 0.75,8.5 5,8.5 5,18.5 0.75,18.5 0.75,24.54 0,27 0,0 " />
  <polygon
     style="fill:#141414"
     id="bodyright"
     points="$width,0 $bodyright1,2.46 $bodyright2,2.46 $bodyright2,24.53 $bodyright1,24.54 $width,27 $width,0 " />
  <rect
     y="2.205883"
     x="0.69999999"
     height="22.517677"
     width="$rectwidth"
     id="rect2477"
     style="fill:#000000;fill-opacity:1;stroke:none;stroke-miterlimit:4;stroke-dasharray:none;stroke-opacity:1" />
  <path
     style="fill:#262626"
     id="path66"
     d="M 0.56,10.58 L 0.56,16.41 C 2.03,16.24 3.18,15.01 3.18,13.49 C 3.18,11.97 2.04,10.75 0.56,10.58 z" />     
  #for $pin in range(int($pins))
        #set $pinx = 3.5 + ($pin * 10)
        #set $terminaly = 475.39526 + ($pin * 20)
        #set $flare1 = $pinx + 3
        #set $flare2 = $pinx + 5
  <polygon
     style="fill:#8c8c8c"
     id="pinflare$pin"
     points="$pinx,25.66 $pinx,27.66 $flare1,27.66 $flare2,26.74 $flare2,25.66 $pinx,25.66 " />
  <rect
     style="fill:#8c8c8c"
     height="3"
     width="3"
     y="27"
     x="$pinx"
     id="connector${pin}terminal" />
  <rect
     style="fill:#8c8c8c"
     id="connector${pin}pin"
     height="4.3400002"
     width="3"
     y="25.672941"
     x="$pinx" />
  #end for
<text id="label" x="${width / 2}" y="${height / 2}" stroke="#ffffff" fill="#ffffff" font-family="Droid Sans" text-anchor="middle" font-size="16" >mystery part</text>          

</g>
</svg>
