<?xml version="1.0" encoding="utf-8"?>
<!DOCTYPE svg PUBLIC "-//W3C//DTD SVG 1.1 Basic//EN" "http://www.w3.org/Graphics/SVG/1.1/DTD/svg11-basic.dtd">
<svg version="1.1" baseProfile="basic" id="svg" xmlns="http://www.w3.org/2000/svg" xmlns:xlink="http://www.w3.org/1999/xlink"
	 x="0px" y="0px" width="32px" height="32px" viewBox="0 0 32 32" xml:space="preserve">
<g id="icon">
	<rect x="22.503" y="29.092" fill="#FFD500" width="3.518" height="0.984"/>
	<path d="M17.906,17.657c0-1.009-0.62-1.95-0.629-3.166v-4.463h-1.964v4.439c0,1.228-0.63,2.174-0.63,3.19v0.472
		c0,1.016,0.63,1.962,0.63,3.189v4.005h1.964v-4.027c0.009-1.217,0.629-2.157,0.629-3.167V17.657z"/>
	<g>
		<polygon fill="#1E1E1E" points="16.939,8.005 15.651,8.005 15.651,5.774 16.939,5.774 16.939,8.005 		"/>
	</g>
	<g>
		<g>
			<g>
				
					<line fill="none" stroke="#1E1E1E" stroke-width="0.4317" stroke-linecap="round" x1="17.277" y1="10.66" x2="15.313" y2="10.66"/>
				
					<line fill="none" stroke="#1E1E1E" stroke-width="0.4317" stroke-linecap="round" x1="17.277" y1="11.207" x2="15.313" y2="11.207"/>
				
					<line fill="none" stroke="#1E1E1E" stroke-width="0.4317" stroke-linecap="round" x1="17.277" y1="11.755" x2="15.313" y2="11.755"/>
				
					<line fill="none" stroke="#1E1E1E" stroke-width="0.4317" stroke-linecap="round" x1="17.277" y1="12.303" x2="15.313" y2="12.303"/>
				
					<line fill="none" stroke="#1E1E1E" stroke-width="0.4317" stroke-linecap="round" x1="17.277" y1="12.85" x2="15.313" y2="12.85"/>
				
					<line fill="none" stroke="#1E1E1E" stroke-width="0.4317" stroke-linecap="round" x1="17.277" y1="13.398" x2="15.313" y2="13.398"/>
				
					<line fill="none" stroke="#1E1E1E" stroke-width="0.4317" stroke-linecap="round" x1="17.277" y1="13.946" x2="15.313" y2="13.946"/>
				
					<line fill="none" stroke="#1E1E1E" stroke-width="0.4317" stroke-linecap="round" x1="17.277" y1="14.495" x2="15.312" y2="14.495"/>
				
					<line fill="none" stroke="#1E1E1E" stroke-width="0.4317" stroke-linecap="round" x1="17.322" y1="15.042" x2="15.268" y2="15.042"/>
				
					<line fill="none" stroke="#1E1E1E" stroke-width="0.4317" stroke-linecap="round" x1="17.435" y1="15.589" x2="15.156" y2="15.589"/>
				
					<line fill="none" stroke="#1E1E1E" stroke-width="0.4317" stroke-linecap="round" x1="17.591" y1="16.136" x2="15" y2="16.136"/>
				
					<line fill="none" stroke="#1E1E1E" stroke-width="0.4317" stroke-linecap="round" x1="17.754" y1="16.686" x2="14.837" y2="16.686"/>
				
					<line fill="none" stroke="#1E1E1E" stroke-width="0.4317" stroke-linecap="round" x1="17.873" y1="17.232" x2="14.718" y2="17.232"/>
				
					<line fill="none" stroke="#1E1E1E" stroke-width="0.4317" stroke-linecap="round" x1="14.683" y1="17.779" x2="17.906" y2="17.779"/>
				
					<line fill="none" stroke="#1E1E1E" stroke-width="0.4317" stroke-linecap="round" x1="17.898" y1="18.327" x2="14.691" y2="18.327"/>
				
					<line fill="none" stroke="#1E1E1E" stroke-width="0.4317" stroke-linecap="round" x1="14.78" y1="18.876" x2="17.811" y2="18.876"/>
				
					<line fill="none" stroke="#1E1E1E" stroke-width="0.4317" stroke-linecap="round" x1="14.93" y1="19.424" x2="17.66" y2="19.424"/>
				
					<line fill="none" stroke="#1E1E1E" stroke-width="0.4317" stroke-linecap="round" x1="15.095" y1="19.971" x2="17.496" y2="19.971"/>
				
					<line fill="none" stroke="#1E1E1E" stroke-width="0.4317" stroke-linecap="round" x1="15.228" y1="20.519" x2="17.362" y2="20.519"/>
				
					<line fill="none" stroke="#1E1E1E" stroke-width="0.4317" stroke-linecap="round" x1="15.303" y1="21.066" x2="17.286" y2="21.066"/>
				
					<line fill="none" stroke="#1E1E1E" stroke-width="0.4317" stroke-linecap="round" x1="15.313" y1="21.615" x2="17.277" y2="21.615"/>
				
					<line fill="none" stroke="#1E1E1E" stroke-width="0.4317" stroke-linecap="round" x1="15.313" y1="22.162" x2="17.277" y2="22.162"/>
				
					<line fill="none" stroke="#1E1E1E" stroke-width="0.4317" stroke-linecap="round" x1="15.313" y1="22.71" x2="17.277" y2="22.71"/>
				
					<line fill="none" stroke="#1E1E1E" stroke-width="0.4317" stroke-linecap="round" x1="15.313" y1="23.258" x2="17.277" y2="23.258"/>
				
					<line fill="none" stroke="#1E1E1E" stroke-width="0.4317" stroke-linecap="round" x1="15.313" y1="23.805" x2="17.277" y2="23.805"/>
				
					<line fill="none" stroke="#1E1E1E" stroke-width="0.4317" stroke-linecap="round" x1="15.313" y1="24.353" x2="17.277" y2="24.353"/>
				
					<line fill="none" stroke="#1E1E1E" stroke-width="0.4317" stroke-linecap="round" x1="15.313" y1="24.899" x2="17.277" y2="24.899"/>
			</g>
			<g>
				
					<line fill="none" stroke="#808080" stroke-width="0.3297" stroke-linecap="round" stroke-linejoin="round" x1="15.53" y1="10.66" x2="15.683" y2="10.66"/>
				
					<line fill="none" stroke="#808080" stroke-width="0.3297" stroke-linecap="round" stroke-linejoin="round" x1="15.53" y1="11.208" x2="15.683" y2="11.208"/>
				
					<line fill="none" stroke="#808080" stroke-width="0.3297" stroke-linecap="round" stroke-linejoin="round" x1="15.53" y1="11.755" x2="15.683" y2="11.755"/>
				
					<line fill="none" stroke="#808080" stroke-width="0.3297" stroke-linecap="round" stroke-linejoin="round" x1="15.53" y1="12.303" x2="15.683" y2="12.303"/>
				
					<line fill="none" stroke="#808080" stroke-width="0.3297" stroke-linecap="round" stroke-linejoin="round" x1="15.53" y1="12.85" x2="15.683" y2="12.85"/>
				
					<line fill="none" stroke="#808080" stroke-width="0.3297" stroke-linecap="round" stroke-linejoin="round" x1="15.53" y1="13.4" x2="15.683" y2="13.4"/>
				
					<line fill="none" stroke="#808080" stroke-width="0.3297" stroke-linecap="round" stroke-linejoin="round" x1="15.53" y1="13.946" x2="15.683" y2="13.946"/>
				
					<line fill="none" stroke="#808080" stroke-width="0.3297" stroke-linecap="round" stroke-linejoin="round" x1="15.53" y1="14.495" x2="15.682" y2="14.495"/>
				
					<line fill="none" stroke="#808080" stroke-width="0.3297" stroke-linecap="round" stroke-linejoin="round" x1="15.5" y1="15.042" x2="15.654" y2="15.042"/>
				
					<line fill="none" stroke="#808080" stroke-width="0.3297" stroke-linecap="round" stroke-linejoin="round" x1="15.425" y1="15.589" x2="15.586" y2="15.589"/>
				
					<line fill="none" stroke="#808080" stroke-width="0.3297" stroke-linecap="round" stroke-linejoin="round" x1="15.274" y1="16.138" x2="15.568" y2="16.138"/>
				
					<line fill="none" stroke="#808080" stroke-width="0.3297" stroke-linecap="round" stroke-linejoin="round" x1="15.165" y1="16.686" x2="15.468" y2="16.686"/>
				
					<line fill="none" stroke="#808080" stroke-width="0.3297" stroke-linecap="round" stroke-linejoin="round" x1="15.039" y1="17.232" x2="15.396" y2="17.232"/>
				
					<line fill="none" stroke="#808080" stroke-width="0.3297" stroke-linecap="round" stroke-linejoin="round" x1="15.374" y1="17.78" x2="14.969" y2="17.78"/>
				
					<line fill="none" stroke="#808080" stroke-width="0.3297" stroke-linecap="round" stroke-linejoin="round" x1="14.975" y1="18.327" x2="15.379" y2="18.327"/>
				
					<line fill="none" stroke="#808080" stroke-width="0.3297" stroke-linecap="round" stroke-linejoin="round" x1="15.433" y1="18.876" x2="15.081" y2="18.876"/>
				
					<line fill="none" stroke="#808080" stroke-width="0.3297" stroke-linecap="round" stroke-linejoin="round" x1="15.526" y1="19.424" x2="15.228" y2="19.424"/>
				
					<line fill="none" stroke="#808080" stroke-width="0.3297" stroke-linecap="round" stroke-linejoin="round" x1="15.626" y1="19.972" x2="15.337" y2="19.972"/>
				
					<line fill="none" stroke="#808080" stroke-width="0.3297" stroke-linecap="round" stroke-linejoin="round" x1="15.669" y1="20.519" x2="15.473" y2="20.519"/>
				
					<line fill="none" stroke="#808080" stroke-width="0.3297" stroke-linecap="round" stroke-linejoin="round" x1="15.676" y1="21.066" x2="15.524" y2="21.066"/>
				
					<line fill="none" stroke="#808080" stroke-width="0.3297" stroke-linecap="round" stroke-linejoin="round" x1="15.683" y1="21.615" x2="15.53" y2="21.615"/>
				
					<line fill="none" stroke="#808080" stroke-width="0.3297" stroke-linecap="round" stroke-linejoin="round" x1="15.683" y1="22.162" x2="15.53" y2="22.162"/>
				
					<line fill="none" stroke="#808080" stroke-width="0.3297" stroke-linecap="round" stroke-linejoin="round" x1="15.683" y1="22.71" x2="15.53" y2="22.71"/>
				
					<line fill="none" stroke="#808080" stroke-width="0.3297" stroke-linecap="round" stroke-linejoin="round" x1="15.683" y1="23.258" x2="15.53" y2="23.258"/>
				
					<line fill="none" stroke="#808080" stroke-width="0.3297" stroke-linecap="round" stroke-linejoin="round" x1="15.683" y1="23.807" x2="15.53" y2="23.807"/>
				
					<line fill="none" stroke="#808080" stroke-width="0.3297" stroke-linecap="round" stroke-linejoin="round" x1="15.683" y1="24.353" x2="15.53" y2="24.353"/>
				
					<line fill="none" stroke="#808080" stroke-width="0.3297" stroke-linecap="round" stroke-linejoin="round" x1="15.683" y1="24.901" x2="15.53" y2="24.901"/>
			</g>
		</g>
	</g>
	<path fill="#1E1E1E" d="M17.068,7.262c0.22,0,0.399,0.229,0.399,0.509v2.305c0,0.134-0.085,0.243-0.19,0.243l0,0h-1.965
		c-0.105,0-0.191-0.109-0.191-0.243V7.771c0-0.28,0.179-0.509,0.401-0.509H17.068z"/>
	<path fill="#808080" d="M15.845,7.463c-0.055,0-0.047,0.213-0.047,0.494v2.027c0,0.135-0.086,0.243-0.191,0.243h-0.068
		c-0.106,0-0.192-0.108-0.192-0.243V7.957c0-0.281,0.084-0.494,0.306-0.494H15.845z"/>
	<g>
		<path fill="#1E1E1E" d="M23.18,28.831c-0.001,0-0.1-0.048-0.22-0.105l-3.402-1.646c-0.12-0.058-0.284-0.191-0.366-0.297
			l-1.163-1.495c-0.082-0.105-0.257-0.191-0.391-0.191h-2.684c-0.133,0-0.309,0.086-0.391,0.191l-1.165,1.495
			c-0.082,0.105-0.247,0.239-0.366,0.297l-3.403,1.646c-0.12,0.058-0.219,0.105-0.22,0.105c0,0-0.001,0-0.001,0.001s0,0.001,0,0.001
			l0,0c0,0,0,0.108,0,0.242v0.955c0,0.134,0.109,0.242,0.242,0.242h13.29c0.133,0,0.242-0.108,0.242-0.242v-0.957
			C23.182,28.939,23.181,28.831,23.18,28.831z"/>
		<path fill="#1E1E1E" d="M23.18,28.831c-0.001,0-0.1-0.048-0.22-0.105l-3.402-1.646c-0.12-0.058-0.284-0.191-0.366-0.297
			l-1.163-1.495c-0.082-0.105-0.257-0.191-0.391-0.191h-2.684c-0.133,0-0.309,0.086-0.391,0.191l-1.165,1.495
			c-0.082,0.105-0.247,0.239-0.366,0.297l-3.403,1.646c-0.12,0.058-0.219,0.105-0.22,0.105c0,0-0.001,0-0.001,0.001s0,0.001,0,0.001
			l0,0c0,0,0,0.108,0,0.242v0.955c0,0.134,0.109,0.242,0.242,0.242h13.29c0.133,0,0.242-0.108,0.242-0.242v-0.957
			C23.182,28.939,23.181,28.831,23.18,28.831z"/>
	</g>
	<polygon fill="#757575" points="13.822,26.975 14.905,25.405 15.652,25.405 15.262,26.975 	"/>
	<polygon fill="#4D4D4D" points="13.691,27.239 10.133,28.833 13.637,28.833 15.099,27.239 	"/>
	<rect x="9.922" y="29.044" fill="#2B2B2B" width="3.503" height="1.03"/>
	
		<line fill="none" stroke="#4D4D4D" stroke-width="0.0929" stroke-linecap="round" x1="15.279" y1="27.125" x2="19.088" y2="27.125"/>
	
		<line fill="none" stroke="#4D4D4D" stroke-width="0.0929" stroke-linecap="round" x1="13.682" y1="28.944" x2="22.63" y2="28.944"/>
	<line fill="none" stroke="#808080" stroke-width="0.3075" stroke-linecap="round" x1="15.946" y1="6.969" x2="15.946" y2="6.969"/>
	<path fill="#1E1E1E" d="M17.086,6.292c0,0.201-0.164,0.365-0.365,0.365h-0.853c-0.201,0-0.365-0.165-0.365-0.365V1.605
		c0-0.201,0.165-0.365,0.365-0.365h0.853c0.201,0,0.365,0.165,0.365,0.365V6.292z"/>
	<path fill="#808080" d="M16.181,6.549c-0.083,0-0.151-0.151-0.151-0.335V1.712c0-0.185,0.068-0.335,0.151-0.335h-0.298
		c-0.132,0-0.24,0.15-0.24,0.335v4.501c0,0.184,0.108,0.335,0.24,0.335H16.181z"/>
	<rect id="r" x="26.021" y="29.092" fill="#8C8C8C" width="2.711" height="0.984"/>
</g>
</svg>
