<?xml version="1.0" encoding="utf-8"?>
<!-- Generator: Adobe Illustrator 14.0.0, SVG Export Plug-In . SVG Version: 6.00 Build 43363)  -->
<!DOCTYPE svg PUBLIC "-//W3C//DTD SVG 1.1//EN" "http://www.w3.org/Graphics/SVG/1.1/DTD/svg11.dtd">
<svg version="1.1" id="Layer_1" xmlns="http://www.w3.org/2000/svg" xmlns:xlink="http://www.w3.org/1999/xlink" x="0px" y="0px"
	 width="32px" height="32px" viewBox="0 0 32 32" enable-background="new 0 0 32 32" xml:space="preserve">
<rect fill="#19678D" width="32" height="32"/>
<g id="Layer_2">
	<polyline display="none" fill="none" stroke="#2493C9" points="0,9.938 4.875,13.688 4.875,18.5 8.563,21.75 28,21.125 32,21.037 	
		"/>
	<rect id="rect2385_1_" x="28.601" y="4.815" fill="#2493C9" width="3.399" height="6.703"/>
	<rect id="rect2385_2_" x="10.25" y="17.938" fill="#2493C9" width="2.916" height="6.167"/>
	<rect id="rect2385_3_" x="6.291" y="17.938" fill="#2493C9" width="2.916" height="6.167"/>
	<path id="path3159_1_" fill="none" stroke="#2493C9" d="M29.813,8.167H17.69l-6.43,10.73"/>
	<path id="path3161_1_" fill="none" stroke="#2493C9" d="M13.166,21.131l10.342,0.125l5.793,7.856L32,29.122"/>
	<path id="path3161_3_" fill="none" stroke="#2493C9" d="M0,17.938l2.592,3.203l3.699,0.01"/>
</g>
<g enable-background="new    ">
	<path fill="#FFFFFF" d="M5.583,9.326C5.717,8.873,5.902,8.469,6.44,8.469c0.555,0,0.757,0.42,0.875,0.857l3.245,11.382
		c0.118,0.402-0.336,0.84-0.807,0.84c-0.521,0-0.791-0.438-0.908-0.84l-0.622-2.019H4.642l-0.639,2.019
		c-0.118,0.402-0.386,0.84-0.907,0.84c-0.471,0-0.925-0.438-0.807-0.84L5.583,9.326z M6.457,12.453H6.424l-1.312,4.556h2.64
		L6.457,12.453z"/>
	<path fill="#FFFFFF" d="M12.912,13.68c0-0.588,0.067-1.193,0.807-1.193c0.638,0,0.807,0.538,0.807,1.076v0.656l1.261-1.042
		c0.454-0.37,0.924-0.689,1.428-0.689h1.295c0.621,0,1.143,0.202,1.58,0.639c0.538,0.538,0.723,1.093,0.723,1.832
		c0,0.556-0.101,1.127-0.79,1.127c-0.589,0-0.823-0.471-0.823-0.992c0-0.269,0-0.47-0.169-0.706
		c-0.201-0.286-0.588-0.286-0.975-0.286h-0.471c-0.303,0-0.521,0.151-0.808,0.387l-2.251,1.866v4.085
		c0,0.555-0.118,1.109-0.807,1.109s-0.807-0.555-0.807-1.109V13.68z"/>
	<path fill="#FFFFFF" d="M27.755,12.487c0.555,0,1.009,0.303,1.597,0.891l0.269,0.286v-3.396c0-0.555,0.118-1.11,0.808-1.11
		s0.807,0.555,0.807,1.11v10.154c0,0.555-0.117,1.126-0.807,1.126c-0.639,0-0.808-0.538-0.808-1.076v-0.101l-0.353,0.353
		c-0.504,0.472-1.059,0.824-1.546,0.824h-1.563c-0.538,0-1.144-0.37-1.379-0.571l-0.556-0.471c-0.672-0.571-0.89-1.009-0.89-1.866
		v-3.245c0-0.857,0.218-1.294,0.89-1.866l0.556-0.471c0.505-0.437,0.874-0.572,1.547-0.572H27.755z M24.947,18.001
		c0,0.454,0,1.025,0.252,1.228l0.487,0.387c0.202,0.167,0.403,0.319,0.605,0.319h1.144c0.202,0,0.487-0.135,0.789-0.403l0.926-0.791
		c0.235-0.201,0.47-0.403,0.47-0.706V16c0-0.303-0.234-0.504-0.47-0.706l-0.926-0.791c-0.302-0.269-0.587-0.403-0.789-0.403h-1.144
		c-0.202,0-0.403,0.151-0.605,0.319l-0.487,0.387c-0.252,0.202-0.252,0.773-0.252,1.227V18.001z"/>
</g>
<rect x="0.614" y="0.614" fill="none" stroke="#10455E" width="30.771" height="30.771"/>
</svg>
