<?xml version="1.0" encoding="utf-8"?>
<!-- Generator: Adobe Illustrator 15.0.0, SVG Export Plug-In . SVG Version: 6.00 Build 0)  -->
<svg version="1.2" baseProfile="tiny" id="Layer_3" xmlns="http://www.w3.org/2000/svg" xmlns:xlink="http://www.w3.org/1999/xlink"
	 x="0px" y="0px" width="32px" height="32px" viewBox="0 0 32 32" xml:space="preserve">
<g id="breadboard">
	<rect id="connector0pin_1_" x="11.655" y="5.464" width="0.436" height="0.436"/>
	<rect id="connector1pin_1_" x="12.783" y="5.464" width="0.436" height="0.436"/>
	<rect id="connector2pin_1_" x="13.911" y="5.464" width="0.435" height="0.436"/>
	<rect id="connector3pin_1_" x="15.038" y="5.464" width="0.436" height="0.436"/>
	<rect id="connector4pin_1_" x="16.166" y="5.464" width="0.436" height="0.436"/>
	<rect id="connector5pin_1_" x="17.292" y="5.464" width="0.436" height="0.436"/>
	<rect id="connector6pin_1_" x="18.42" y="5.464" width="0.435" height="0.436"/>
	<rect id="connector7pin_1_" x="19.547" y="5.464" width="0.437" height="0.436"/>
	<rect id="connector8pin_1_" x="21.832" y="5.464" width="0.436" height="0.436"/>
	<rect id="connector9pin_1_" x="22.96" y="5.464" width="0.435" height="0.436"/>
	<rect id="connector10pin_1_" x="24.087" y="5.464" width="0.436" height="0.436"/>
	<rect id="connector11pin_1_" x="25.214" y="5.464" width="0.436" height="0.436"/>
	<rect id="connector12pin_1_" x="26.342" y="5.464" width="0.436" height="0.436"/>
	<rect id="connector13pin_1_" x="27.469" y="5.464" width="0.435" height="0.436"/>
	<rect id="connector14pin_1_" x="28.596" y="5.464" width="0.436" height="0.436"/>
	<rect id="connector15pin_1_" x="29.724" y="5.464" width="0.436" height="0.436"/>
	<rect id="connector16pin_1_" x="16.179" y="26.947" width="0.435" height="0.436"/>
	<rect id="connector17pin_1_" x="17.31" y="26.947" width="0.436" height="0.436"/>
	<rect id="connector18pin_1_" x="18.439" y="26.947" width="0.436" height="0.436"/>
	<rect id="connector19pin_1_" x="19.567" y="26.947" width="0.436" height="0.436"/>
	<rect id="connector20pin_1_" x="20.694" y="26.947" width="0.437" height="0.436"/>
	<rect id="connector21pin_1_" x="21.821" y="26.947" width="0.436" height="0.436"/>
	<rect id="connector22pin_1_" x="24.093" y="26.947" width="0.436" height="0.436"/>
	<rect id="connector23pin_1_" x="25.221" y="26.947" width="0.436" height="0.436"/>
	<rect id="connector24pin_1_" x="26.348" y="26.947" width="0.437" height="0.436"/>
	<rect id="connector25pin_1_" x="27.476" y="26.947" width="0.435" height="0.436"/>
	<rect id="connector26pin_1_" x="28.603" y="26.947" width="0.436" height="0.436"/>
	<rect id="connector27pin_1_" x="29.73" y="26.947" width="0.436" height="0.436"/>
	<g id="breadboardbreadboard_1_">
		<g>
			<g>
				<path fill="#0F7391" d="M30.912,10.46V5.399l-0.626-0.58H2.126V28.07h28.786v-0.791L32,26.158V11.495L30.912,10.46z
					 M8.691,6.684c-0.396,0-0.719-0.323-0.719-0.719c0-0.396,0.323-0.718,0.719-0.718c0.396,0,0.718,0.322,0.718,0.718
					C9.409,6.361,9.087,6.684,8.691,6.684z M30.888,11.918c0.374,0,0.678,0.304,0.678,0.678c0,0.375-0.303,0.677-0.678,0.677
					c-0.374,0-0.678-0.303-0.678-0.677C30.21,12.223,30.514,11.918,30.888,11.918z M30.888,24.225c0.374,0,0.678,0.303,0.678,0.676
					c0,0.375-0.303,0.678-0.678,0.678c-0.374,0-0.678-0.303-0.678-0.678C30.21,24.527,30.514,24.225,30.888,24.225z M8.183,26.488
					c0.373,0,0.676,0.303,0.676,0.678c0,0.373-0.303,0.676-0.676,0.676c-0.375,0-0.679-0.303-0.679-0.676
					C7.504,26.791,7.808,26.488,8.183,26.488z M27.295,13.146c0.187,0,0.338,0.152,0.338,0.339s-0.15,0.338-0.338,0.338
					s-0.339-0.151-0.339-0.338S27.107,13.146,27.295,13.146z M27.314,24.15c0.132,0,0.24,0.107,0.24,0.24s-0.107,0.24-0.24,0.24
					s-0.241-0.107-0.241-0.24S27.182,24.15,27.314,24.15z"/>
			</g>
		</g>
		<path fill="#02809E" d="M19.608,8.947c0-0.119-0.087-0.217-0.2-0.235V8.709h-0.811c-0.131,0-0.237,0.107-0.237,0.238
			s0.106,0.238,0.237,0.238h0.811V9.182C19.521,9.163,19.608,9.065,19.608,8.947z"/>
		<path fill="#02809E" d="M17.646,8.947c0-0.119-0.087-0.217-0.201-0.235V8.709h-0.81c-0.131,0-0.237,0.107-0.237,0.238
			s0.105,0.238,0.237,0.238h0.81V9.182C17.558,9.163,17.646,9.065,17.646,8.947z"/>
		<path fill="#02809E" d="M15.708,8.947c0-0.119-0.086-0.217-0.2-0.235V8.709h-0.81c-0.131,0-0.238,0.107-0.238,0.238
			s0.106,0.238,0.238,0.238h0.81V9.182C15.62,9.163,15.708,9.065,15.708,8.947z"/>
		<path fill="#02809E" d="M13.771,11.983c0-0.118-0.087-0.216-0.201-0.234v-0.003h-0.81c-0.131,0-0.238,0.106-0.238,0.238
			s0.106,0.238,0.238,0.238h0.81v-0.004C13.684,12.2,13.771,12.102,13.771,11.983z"/>
		<path fill="#02809E" d="M11.572,9.789c0-0.118-0.087-0.216-0.201-0.234V9.552h-0.811c-0.13,0-0.237,0.106-0.237,0.238
			c0,0.131,0.106,0.238,0.237,0.238h0.811v-0.004C11.485,10.006,11.572,9.909,11.572,9.789z"/>
		<path fill="#02809E" d="M13.771,12.834c0-0.119-0.087-0.217-0.201-0.234v-0.003h-0.81c-0.131,0-0.238,0.107-0.238,0.238
			s0.106,0.238,0.238,0.238h0.81v-0.003C13.684,13.05,13.771,12.953,13.771,12.834z"/>
		<path fill="#02809E" d="M11.571,11.983c0-0.118-0.086-0.216-0.2-0.234v-0.003h-0.811c-0.13,0-0.237,0.106-0.237,0.238
			s0.106,0.238,0.237,0.238h0.811v-0.004C11.485,12.2,11.571,12.102,11.571,11.983z"/>
		<path fill="#02809E" d="M11.571,12.834c0-0.119-0.086-0.217-0.2-0.234v-0.003h-0.811c-0.13,0-0.237,0.107-0.237,0.238
			s0.106,0.238,0.237,0.238h0.811v-0.003C11.485,13.05,11.571,12.953,11.571,12.834z"/>
		<path fill="#02809E" d="M12.92,19.811c0-0.119-0.087-0.217-0.2-0.234v-0.004H11.91c-0.131,0-0.238,0.107-0.238,0.238
			s0.106,0.238,0.238,0.238h0.811v-0.004C12.833,20.025,12.92,19.93,12.92,19.811z"/>
		<path fill="#02809E" d="M15.694,21.236c0-0.117-0.086-0.215-0.199-0.234V21h-0.811c-0.131,0-0.238,0.105-0.238,0.238
			c0,0.131,0.106,0.238,0.238,0.238h0.811v-0.004C15.608,21.453,15.694,21.355,15.694,21.236z"/>
		<path fill="#02809E" d="M18.502,21.236c0-0.117-0.087-0.215-0.199-0.234V21h-0.811c-0.132,0-0.238,0.105-0.238,0.238
			c0,0.131,0.106,0.238,0.238,0.238h0.811v-0.004C18.415,21.453,18.502,21.355,18.502,21.236z"/>
		<path fill="#02809E" d="M18.502,21.943c0-0.119-0.087-0.217-0.199-0.234v-0.002h-0.811c-0.132,0-0.238,0.105-0.238,0.238
			c0,0.131,0.106,0.236,0.238,0.236h0.811v-0.004C18.415,22.16,18.502,22.063,18.502,21.943z"/>
		<path fill="#02809E" d="M10.573,22.926c0-0.09-0.065-0.162-0.15-0.176v-0.004h-0.61c-0.099,0-0.179,0.082-0.179,0.18
			c0,0.1,0.08,0.18,0.179,0.18h0.61v-0.004C10.507,23.088,10.573,23.016,10.573,22.926z"/>
		<path fill="#02809E" d="M12.792,21.963c0-0.088-0.065-0.162-0.15-0.176v-0.002h-0.61c-0.099,0-0.179,0.08-0.179,0.18
			c0,0.098,0.08,0.18,0.179,0.18h0.61v-0.004C12.726,22.127,12.792,22.053,12.792,21.963z"/>
		<path fill="#02809E" d="M3.858,24.594c0-0.088-0.065-0.162-0.15-0.176v-0.002H3.099c-0.1,0-0.18,0.08-0.18,0.18
			c0,0.098,0.08,0.178,0.18,0.178h0.609v-0.002C3.792,24.758,3.858,24.684,3.858,24.594z"/>
		<path fill="#02809E" d="M12.792,21.217c0-0.088-0.065-0.162-0.15-0.176v-0.002h-0.61c-0.099,0-0.179,0.08-0.179,0.18
			c0,0.098,0.08,0.18,0.179,0.18h0.61v-0.004C12.726,21.381,12.792,21.307,12.792,21.217z"/>
		<path fill="#02809E" d="M19.322,10.325c0-0.476-0.352-0.868-0.808-0.94V9.37h-2.752c-0.527,0-0.955,0.428-0.955,0.955
			c0,0.528,0.427,0.956,0.955,0.956h2.752v-0.015C18.972,11.193,19.322,10.801,19.322,10.325z"/>
		<path fill="#02809E" d="M7.648,22.289c0.158,0,0.288-0.115,0.312-0.268h0.004v-1.076c0-0.176-0.141-0.316-0.317-0.316
			c-0.174,0-0.316,0.141-0.316,0.316v1.076h0.005C7.361,22.174,7.49,22.289,7.648,22.289z"/>
		<path fill="#02809E" d="M6.62,22.289c0.158,0,0.288-0.115,0.311-0.268h0.005v-1.076c0-0.176-0.141-0.316-0.317-0.316
			c-0.174,0-0.316,0.141-0.316,0.316v1.076h0.005C6.333,22.174,6.462,22.289,6.62,22.289z"/>
		<path fill="#02809E" d="M5.592,22.289c0.158,0,0.287-0.115,0.311-0.268h0.004v-1.076c0-0.176-0.141-0.316-0.316-0.316
			c-0.175,0-0.316,0.141-0.316,0.316v1.076h0.004C5.305,22.174,5.434,22.289,5.592,22.289z"/>
		<rect x="5.277" y="19.57" fill="#02809E" width="2.777" height="1.402"/>
		<rect x="13.649" y="14.52" fill="#02809E" width="4.143" height="4.142"/>
		<polygon fill="#FFFFFF" points="20.424,23.1 20.424,12.982 27.785,12.982 27.785,12.897 20.345,12.897 20.345,23.1 		"/>
		<rect x="20.914" y="24.852" fill="#FFFFFF" width="6.911" height="0.09"/>
		<rect x="29.317" y="12.897" fill="#FFFFFF" width="0.883" height="0.085"/>
		<rect x="30.463" y="23.375" fill="#FFFFFF" width="0.078" height="0.824"/>
		<rect x="29.337" y="24.852" fill="#FFFFFF" width="0.863" height="0.09"/>
		<rect x="19.245" y="24.592" fill="#02809E" width="1.551" height="0.529"/>
		<rect x="19.245" y="24.063" fill="#02809E" width="1.551" height="0.412"/>
		<rect x="19.245" y="23.236" fill="#02809E" width="1.079" height="0.57"/>
		<rect x="27.942" y="24.572" fill="#02809E" width="1.257" height="0.963"/>
		<rect x="27.942" y="12.321" fill="#02809E" width="1.257" height="0.962"/>
		<rect x="27.569" y="14.461" fill="#02809E" width="1.119" height="0.432"/>
		<rect x="26.372" y="15.581" fill="#02809E" width="1.119" height="0.432"/>
		<rect x="26.568" y="16.68" fill="#02809E" width="1.119" height="0.432"/>
		<rect x="4.579" y="27.295" fill="#02809E" width="0.596" height="0.596"/>
		<rect x="4.579" y="23.564" fill="#02809E" width="0.596" height="0.596"/>
		<rect x="6.581" y="23.564" fill="#02809E" width="0.596" height="0.596"/>
		<rect x="5.574" y="27.295" fill="#02809E" width="0.596" height="0.596"/>
		<rect x="6.581" y="27.295" fill="#02809E" width="0.596" height="0.596"/>
		<rect x="6.83" y="26.889" fill="#02809E" width="0.308" height="0.504"/>
		<rect x="4.854" y="26.889" fill="#02809E" width="0.307" height="0.504"/>
		<rect x="4.854" y="24.035" fill="#02809E" width="0.307" height="0.504"/>
		<rect x="6.83" y="24.035" fill="#02809E" width="0.308" height="0.504"/>
		<rect x="5.561" y="26.889" fill="#02809E" width="0.936" height="0.414"/>
		<rect x="20.836" y="8.767" fill="#02809E" width="1.314" height="0.354"/>
		<rect x="24.958" y="8.767" fill="#02809E" width="1.315" height="0.354"/>
		<rect x="18.911" y="19.35" fill="#02809E" width="1.315" height="0.354"/>
		<rect x="18.911" y="21.334" fill="#02809E" width="1.315" height="0.352"/>
		<rect x="12.953" y="10.23" fill="#02809E" width="0.353" height="1.315"/>
		<rect x="10.754" y="10.23" fill="#02809E" width="0.353" height="1.315"/>
		<rect x="14.955" y="22.049" fill="#02809E" width="0.354" height="1.316"/>
		<rect x="9.331" y="24.873" fill="#02809E" width="3.809" height="1.721"/>
		<rect x="15.161" y="24.848" fill="#02809E" width="0.55" height="0.627"/>
		<rect x="14.494" y="24.848" fill="#02809E" width="0.549" height="0.627"/>
		<rect x="29.309" y="8.65" fill="#02809E" width="0.55" height="0.628"/>
		<rect x="28.642" y="8.65" fill="#02809E" width="0.55" height="0.628"/>
		<rect x="5.423" y="17.014" fill="#02809E" width="2.435" height="3.533"/>
		<circle fill="#02809E" cx="10.391" cy="5.84" r="0.277"/>
		<g>
			<g>
				<path fill="#02809E" d="M10.391,5.142c-0.386,0-0.698,0.313-0.698,0.699c0,0.385,0.312,0.698,0.698,0.698
					c0.385,0,0.699-0.313,0.699-0.698C11.089,5.455,10.776,5.142,10.391,5.142z M10.426,6.4c-0.345,0-0.625-0.281-0.625-0.627
					c0-0.345,0.28-0.626,0.625-0.626c0.346,0,0.626,0.281,0.626,0.626C11.052,6.119,10.772,6.4,10.426,6.4z"/>
			</g>
		</g>
		<circle fill="#02809E" cx="2.865" cy="27.371" r="0.277"/>
		<g>
			<g>
				<path fill="#02809E" d="M2.865,26.672c-0.386,0-0.699,0.313-0.699,0.699s0.313,0.699,0.699,0.699
					c0.385,0,0.698-0.313,0.698-0.699S3.25,26.672,2.865,26.672z M2.865,27.996c-0.346,0-0.626-0.279-0.626-0.625
					s0.28-0.627,0.626-0.627c0.345,0,0.626,0.281,0.626,0.627S3.21,27.996,2.865,27.996z"/>
			</g>
		</g>
		<path fill="#8D8C8C" d="M14,8.915c0-0.158-0.116-0.287-0.267-0.311V8.599h-1.077c-0.175,0-0.317,0.142-0.317,0.316
			s0.142,0.316,0.317,0.316h1.077V9.227C13.883,9.203,14,9.073,14,8.915z"/>
		<path fill="#02809E" d="M11.668,8.915c0-0.158-0.115-0.287-0.266-0.311V8.599h-1.078c-0.174,0-0.316,0.142-0.316,0.316
			s0.141,0.316,0.316,0.316h1.078V9.227C11.552,9.203,11.668,9.073,11.668,8.915z"/>
		<path fill="#02809E" d="M13.251,22.934c0-0.158-0.115-0.287-0.266-0.313v-0.004h-1.078c-0.174,0-0.316,0.141-0.316,0.316
			c0,0.174,0.141,0.316,0.316,0.316h1.078v-0.006C13.135,23.221,13.251,23.092,13.251,22.934z"/>
		<path fill="#02809E" d="M4.22,25.367c0-0.156-0.116-0.287-0.266-0.311v-0.006H2.876c-0.175,0-0.316,0.143-0.316,0.316
			c0,0.176,0.141,0.316,0.316,0.316h1.078V25.68C4.104,25.656,4.22,25.525,4.22,25.367z"/>
		<path fill="#02809E" d="M4.22,26.193c0-0.158-0.116-0.289-0.266-0.313v-0.004H2.876c-0.175,0-0.316,0.141-0.316,0.316
			c0,0.174,0.141,0.316,0.316,0.316h1.078v-0.006C4.104,26.48,4.22,26.35,4.22,26.193z"/>
		<path fill="#02809E" d="M18.748,22.934c0-0.158-0.114-0.287-0.266-0.313v-0.004h-1.077c-0.175,0-0.316,0.141-0.316,0.316
			c0,0.174,0.142,0.316,0.316,0.316h1.077v-0.006C18.633,23.221,18.748,23.092,18.748,22.934z"/>
		<rect x="12.892" y="8.658" fill="#FBBE0E" width="0.573" height="0.504"/>
		<path fill="#8D8C8C" d="M20.112,9.767c-0.157,0-0.287,0.115-0.312,0.267h-0.005v1.077c0,0.174,0.142,0.316,0.316,0.316
			s0.316-0.141,0.316-0.316v-1.077h-0.005C20.4,9.883,20.271,9.767,20.112,9.767z"/>
		<rect x="19.855" y="10.301" fill="#FBBE0E" width="0.504" height="0.573"/>
		<path fill="#8D8C8C" d="M21.5,9.767c-0.157,0-0.287,0.115-0.311,0.267h-0.006v1.077c0,0.174,0.142,0.316,0.316,0.316
			s0.316-0.141,0.316-0.316v-1.077h-0.005C21.787,9.883,21.658,9.767,21.5,9.767z"/>
		<rect x="21.243" y="10.301" fill="#FBBE0E" width="0.504" height="0.573"/>
		<path fill="#8D8C8C" d="M22.888,9.767c-0.158,0-0.287,0.115-0.312,0.267h-0.005v1.077c0,0.174,0.142,0.316,0.316,0.316
			s0.316-0.141,0.316-0.316v-1.077h-0.005C23.175,9.883,23.046,9.767,22.888,9.767z"/>
		<rect x="22.631" y="10.301" fill="#FBBE0E" width="0.504" height="0.573"/>
		<path fill="#8D8C8C" d="M24.275,9.767c-0.158,0-0.288,0.115-0.312,0.267h-0.005v1.077c0,0.174,0.142,0.316,0.316,0.316
			s0.316-0.141,0.316-0.316v-1.077h-0.005C24.563,9.883,24.433,9.767,24.275,9.767z"/>
		<rect x="24.018" y="10.301" fill="#FBBE0E" width="0.505" height="0.573"/>
		<path fill="#8D8C8C" d="M25.688,9.767c-0.157,0-0.287,0.115-0.312,0.267h-0.004v1.077c0,0.174,0.141,0.316,0.315,0.316
			s0.316-0.141,0.316-0.316v-1.077H26C25.977,9.883,25.846,9.767,25.688,9.767z"/>
		<rect x="25.432" y="10.301" fill="#FBBE0E" width="0.504" height="0.573"/>
		<path fill="#8D8C8C" d="M27.076,9.767c-0.157,0-0.287,0.115-0.312,0.267H26.76v1.077c0,0.174,0.142,0.316,0.316,0.316
			s0.316-0.141,0.316-0.316v-1.077h-0.005C27.364,9.883,27.233,9.767,27.076,9.767z"/>
		<rect x="26.818" y="10.301" fill="#FBBE0E" width="0.505" height="0.573"/>
		<path fill="#8D8C8C" d="M28.451,9.767c-0.158,0-0.288,0.115-0.313,0.267h-0.004v1.077c0,0.174,0.141,0.316,0.316,0.316
			c0.175,0,0.316-0.141,0.316-0.316v-1.077h-0.006C28.738,9.883,28.608,9.767,28.451,9.767z"/>
		<rect x="28.193" y="10.301" fill="#FBBE0E" width="0.505" height="0.573"/>
		<rect x="4.769" y="24.496" fill="#8D8C8C" width="2.61" height="2.668"/>
		<circle fill="#404040" cx="6.025" cy="25.83" r="0.771"/>
		<rect x="0.168" y="7.806" fill="#676666" width="9.28" height="7.012"/>
		<rect x="25.26" y="17.334" fill="#676666" width="6.06" height="6.07"/>
		<rect x="11.31" y="5.118" fill="#404040" width="1.128" height="1.128"/>
		<rect x="11.655" y="5.464" width="0.436" height="0.436"/>
		<polygon fill="#2A2A29" points="11.495,5.304 11.655,5.464 12.091,5.464 12.252,5.304 		"/>
		<polygon fill="#474747" points="12.252,5.304 12.091,5.464 12.091,5.9 12.252,6.061 		"/>
		<polygon fill="#595959" points="12.252,6.061 12.091,5.9 11.655,5.9 11.495,6.061 		"/>
		<polygon fill="#373737" points="11.495,6.061 11.655,5.9 11.655,5.464 11.495,5.304 		"/>
		<rect x="12.437" y="5.118" fill="#404040" width="1.127" height="1.128"/>
		<rect x="12.783" y="5.464" width="0.436" height="0.436"/>
		<polygon fill="#2A2A29" points="12.622,5.304 12.783,5.464 13.219,5.464 13.379,5.304 		"/>
		<polygon fill="#474747" points="13.379,5.304 13.219,5.464 13.219,5.9 13.379,6.061 		"/>
		<polygon fill="#595959" points="13.379,6.061 13.219,5.9 12.783,5.9 12.622,6.061 		"/>
		<polygon fill="#373737" points="12.622,6.061 12.783,5.9 12.783,5.464 12.622,5.304 		"/>
		<rect x="13.564" y="5.118" fill="#404040" width="1.128" height="1.128"/>
		<rect x="13.911" y="5.464" width="0.435" height="0.436"/>
		<polygon fill="#2A2A29" points="13.75,5.304 13.91,5.464 14.346,5.464 14.506,5.304 		"/>
		<polygon fill="#474747" points="14.506,5.304 14.346,5.464 14.346,5.9 14.506,6.061 		"/>
		<polygon fill="#595959" points="14.506,6.061 14.346,5.9 13.91,5.9 13.75,6.061 		"/>
		<polygon fill="#373737" points="13.75,6.061 13.91,5.9 13.91,5.464 13.75,5.304 		"/>
		<rect x="14.691" y="5.118" fill="#404040" width="1.128" height="1.128"/>
		<rect x="15.038" y="5.464" width="0.436" height="0.436"/>
		<polygon fill="#2A2A29" points="14.877,5.304 15.038,5.464 15.473,5.464 15.634,5.304 		"/>
		<polygon fill="#474747" points="15.634,5.304 15.473,5.464 15.473,5.9 15.634,6.061 		"/>
		<polygon fill="#595959" points="15.633,6.061 15.473,5.9 15.038,5.9 14.877,6.061 		"/>
		<polygon fill="#373737" points="14.877,6.061 15.038,5.9 15.038,5.464 14.877,5.304 		"/>
		<rect x="18.094" y="26.602" fill="#404040" width="1.128" height="1.127"/>
		<rect x="18.439" y="26.947" width="0.436" height="0.436"/>
		<polygon fill="#2A2A29" points="18.279,26.787 18.439,26.947 18.875,26.947 19.036,26.787 		"/>
		<polygon fill="#474747" points="19.036,26.787 18.875,26.947 18.875,27.383 19.036,27.543 		"/>
		<polygon fill="#595959" points="19.036,27.543 18.875,27.383 18.439,27.383 18.279,27.543 		"/>
		<polygon fill="#373737" points="18.279,27.543 18.439,27.383 18.439,26.947 18.279,26.787 		"/>
		<rect x="16.963" y="26.602" fill="#404040" width="1.128" height="1.127"/>
		<rect x="17.31" y="26.947" width="0.436" height="0.436"/>
		<polygon fill="#2A2A29" points="17.148,26.787 17.309,26.947 17.745,26.947 17.905,26.787 		"/>
		<polygon fill="#474747" points="17.905,26.787 17.745,26.947 17.745,27.383 17.905,27.543 		"/>
		<polygon fill="#595959" points="17.905,27.543 17.745,27.383 17.309,27.383 17.148,27.543 		"/>
		<polygon fill="#373737" points="17.148,27.543 17.309,27.383 17.309,26.947 17.148,26.787 		"/>
		<rect x="15.833" y="26.602" fill="#404040" width="1.127" height="1.127"/>
		<rect x="16.179" y="26.947" width="0.435" height="0.436"/>
		<polygon fill="#2A2A29" points="16.018,26.787 16.179,26.947 16.613,26.947 16.774,26.787 		"/>
		<polygon fill="#474747" points="16.775,26.787 16.613,26.947 16.613,27.383 16.775,27.543 		"/>
		<polygon fill="#595959" points="16.774,27.543 16.613,27.383 16.179,27.383 16.018,27.543 		"/>
		<polygon fill="#373737" points="16.018,27.543 16.179,27.383 16.179,26.947 16.018,26.787 		"/>
		<rect x="19.222" y="26.602" fill="#404040" width="1.127" height="1.127"/>
		<rect x="19.567" y="26.947" width="0.436" height="0.436"/>
		<polygon fill="#2A2A29" points="19.406,26.787 19.566,26.947 20.003,26.947 20.163,26.787 		"/>
		<polygon fill="#474747" points="20.164,26.787 20.003,26.947 20.003,27.383 20.164,27.543 		"/>
		<polygon fill="#595959" points="20.163,27.543 20.003,27.383 19.566,27.383 19.406,27.543 		"/>
		<polygon fill="#373737" points="19.406,27.543 19.566,27.383 19.566,26.947 19.406,26.787 		"/>
		<rect x="20.349" y="26.602" fill="#404040" width="1.127" height="1.127"/>
		<rect x="20.694" y="26.947" width="0.437" height="0.436"/>
		<polygon fill="#2A2A29" points="20.533,26.787 20.694,26.947 21.131,26.947 21.291,26.787 		"/>
		<polygon fill="#474747" points="21.291,26.787 21.131,26.947 21.131,27.383 21.291,27.543 		"/>
		<polygon fill="#595959" points="21.291,27.543 21.131,27.383 20.694,27.383 20.533,27.543 		"/>
		<polygon fill="#373737" points="20.533,27.543 20.694,27.383 20.694,26.947 20.533,26.787 		"/>
		<rect x="21.476" y="26.602" fill="#404040" width="1.128" height="1.127"/>
		<rect x="21.821" y="26.947" width="0.436" height="0.436"/>
		<polygon fill="#2A2A29" points="21.661,26.787 21.821,26.947 22.258,26.947 22.418,26.787 		"/>
		<polygon fill="#474747" points="22.418,26.787 22.258,26.947 22.258,27.383 22.418,27.543 		"/>
		<polygon fill="#595959" points="22.418,27.543 22.258,27.383 21.821,27.383 21.661,27.543 		"/>
		<polygon fill="#373737" points="21.661,27.543 21.821,27.383 21.821,26.947 21.661,26.787 		"/>
		<rect x="23.747" y="26.602" fill="#404040" width="1.128" height="1.127"/>
		<rect x="24.093" y="26.947" width="0.436" height="0.436"/>
		<polygon fill="#2A2A29" points="23.933,26.787 24.093,26.947 24.528,26.947 24.689,26.787 		"/>
		<polygon fill="#474747" points="24.689,26.787 24.528,26.947 24.528,27.383 24.689,27.543 		"/>
		<polygon fill="#595959" points="24.689,27.543 24.528,27.383 24.093,27.383 23.933,27.543 		"/>
		<polygon fill="#373737" points="23.933,27.543 24.093,27.383 24.093,26.947 23.933,26.787 		"/>
		<rect x="24.875" y="26.602" fill="#404040" width="1.127" height="1.127"/>
		<rect x="25.221" y="26.947" width="0.436" height="0.436"/>
		<polygon fill="#2A2A29" points="25.06,26.787 25.221,26.947 25.656,26.947 25.817,26.787 		"/>
		<polygon fill="#474747" points="25.817,26.787 25.656,26.947 25.656,27.383 25.817,27.543 		"/>
		<polygon fill="#595959" points="25.816,27.543 25.656,27.383 25.221,27.383 25.06,27.543 		"/>
		<polygon fill="#373737" points="25.06,27.543 25.221,27.383 25.221,26.947 25.06,26.787 		"/>
		<rect x="26.002" y="26.602" fill="#404040" width="1.129" height="1.127"/>
		<rect x="26.348" y="26.947" width="0.437" height="0.436"/>
		<polygon fill="#2A2A29" points="26.187,26.787 26.348,26.947 26.783,26.947 26.944,26.787 		"/>
		<polygon fill="#474747" points="26.944,26.787 26.783,26.947 26.783,27.383 26.944,27.543 		"/>
		<polygon fill="#595959" points="26.944,27.543 26.783,27.383 26.348,27.383 26.187,27.543 		"/>
		<polygon fill="#373737" points="26.187,27.543 26.348,27.383 26.348,26.947 26.187,26.787 		"/>
		<rect x="27.13" y="26.602" fill="#404040" width="1.127" height="1.127"/>
		<rect x="27.476" y="26.947" width="0.435" height="0.436"/>
		<polygon fill="#2A2A29" points="27.314,26.787 27.475,26.947 27.911,26.947 28.072,26.787 		"/>
		<polygon fill="#474747" points="28.072,26.787 27.911,26.947 27.911,27.383 28.072,27.543 		"/>
		<polygon fill="#595959" points="28.072,27.543 27.911,27.383 27.475,27.383 27.314,27.543 		"/>
		<polygon fill="#373737" points="27.314,27.543 27.475,27.383 27.475,26.947 27.314,26.787 		"/>
		<rect x="28.257" y="26.602" fill="#404040" width="1.127" height="1.127"/>
		<rect x="28.603" y="26.947" width="0.436" height="0.436"/>
		<polygon fill="#2A2A29" points="28.441,26.787 28.603,26.947 29.038,26.947 29.198,26.787 		"/>
		<polygon fill="#474747" points="29.199,26.787 29.038,26.947 29.038,27.383 29.199,27.543 		"/>
		<polygon fill="#595959" points="29.198,27.543 29.038,27.383 28.603,27.383 28.441,27.543 		"/>
		<polygon fill="#373737" points="28.441,27.543 28.603,27.383 28.603,26.947 28.441,26.787 		"/>
		<rect x="29.384" y="26.602" fill="#404040" width="1.127" height="1.127"/>
		<rect x="29.73" y="26.947" width="0.436" height="0.436"/>
		<polygon fill="#2A2A29" points="29.569,26.787 29.729,26.947 30.166,26.947 30.326,26.787 		"/>
		<polygon fill="#474747" points="30.326,26.787 30.166,26.947 30.166,27.383 30.326,27.543 		"/>
		<polygon fill="#595959" points="30.326,27.543 30.165,27.383 29.729,27.383 29.569,27.543 		"/>
		<polygon fill="#373737" points="29.569,27.543 29.729,27.383 29.729,26.947 29.569,26.787 		"/>
		<rect x="15.819" y="5.118" fill="#404040" width="1.128" height="1.128"/>
		<rect x="16.166" y="5.464" width="0.436" height="0.436"/>
		<polygon fill="#2A2A29" points="16.004,5.304 16.166,5.464 16.602,5.464 16.761,5.304 		"/>
		<polygon fill="#474747" points="16.761,5.304 16.602,5.464 16.602,5.9 16.761,6.061 		"/>
		<polygon fill="#595959" points="16.761,6.061 16.602,5.9 16.166,5.9 16.004,6.061 		"/>
		<polygon fill="#373737" points="16.004,6.061 16.166,5.9 16.166,5.464 16.004,5.304 		"/>
		<rect x="16.946" y="5.118" fill="#404040" width="1.128" height="1.128"/>
		<rect x="17.292" y="5.464" width="0.436" height="0.436"/>
		<polygon fill="#2A2A29" points="17.132,5.304 17.292,5.464 17.728,5.464 17.889,5.304 		"/>
		<polygon fill="#474747" points="17.889,5.304 17.728,5.464 17.728,5.9 17.889,6.061 		"/>
		<polygon fill="#595959" points="17.889,6.061 17.728,5.9 17.292,5.9 17.132,6.061 		"/>
		<polygon fill="#373737" points="17.132,6.061 17.292,5.9 17.292,5.464 17.132,5.304 		"/>
		<rect x="18.074" y="5.118" fill="#404040" width="1.127" height="1.128"/>
		<rect x="18.42" y="5.464" width="0.435" height="0.436"/>
		<polygon fill="#2A2A29" points="18.259,5.304 18.42,5.464 18.855,5.464 19.017,5.304 		"/>
		<polygon fill="#474747" points="19.017,5.304 18.855,5.464 18.855,5.9 19.017,6.061 		"/>
		<polygon fill="#595959" points="19.016,6.061 18.855,5.9 18.42,5.9 18.259,6.061 		"/>
		<polygon fill="#373737" points="18.259,6.061 18.42,5.9 18.42,5.464 18.259,5.304 		"/>
		<rect x="19.201" y="5.118" fill="#404040" width="1.128" height="1.128"/>
		<rect x="19.547" y="5.464" width="0.437" height="0.436"/>
		<polygon fill="#2A2A29" points="19.387,5.304 19.547,5.464 19.982,5.464 20.144,5.304 		"/>
		<polygon fill="#474747" points="20.144,5.304 19.982,5.464 19.982,5.9 20.144,6.061 		"/>
		<polygon fill="#595959" points="20.144,6.061 19.982,5.9 19.547,5.9 19.387,6.061 		"/>
		<polygon fill="#373737" points="19.386,6.061 19.547,5.9 19.547,5.464 19.386,5.304 		"/>
		<rect x="21.486" y="5.118" fill="#404040" width="1.128" height="1.128"/>
		<rect x="21.832" y="5.464" width="0.436" height="0.436"/>
		<polygon fill="#2A2A29" points="21.671,5.304 21.831,5.464 22.268,5.464 22.429,5.304 		"/>
		<polygon fill="#474747" points="22.429,5.304 22.268,5.464 22.268,5.9 22.429,6.061 		"/>
		<polygon fill="#595959" points="22.429,6.061 22.268,5.9 21.831,5.9 21.671,6.061 		"/>
		<polygon fill="#373737" points="21.671,6.061 21.831,5.9 21.831,5.464 21.671,5.304 		"/>
		<rect x="22.613" y="5.118" fill="#404040" width="1.127" height="1.128"/>
		<rect x="22.96" y="5.464" width="0.435" height="0.436"/>
		<polygon fill="#2A2A29" points="22.799,5.304 22.96,5.464 23.396,5.464 23.556,5.304 		"/>
		<polygon fill="#474747" points="23.556,5.304 23.396,5.464 23.396,5.9 23.556,6.061 		"/>
		<polygon fill="#595959" points="23.556,6.061 23.396,5.9 22.959,5.9 22.799,6.061 		"/>
		<polygon fill="#373737" points="22.799,6.061 22.959,5.9 22.959,5.464 22.799,5.304 		"/>
		<rect x="23.74" y="5.118" fill="#404040" width="1.128" height="1.128"/>
		<rect x="24.087" y="5.464" width="0.436" height="0.436"/>
		<polygon fill="#2A2A29" points="23.926,5.304 24.087,5.464 24.522,5.464 24.683,5.304 		"/>
		<polygon fill="#474747" points="24.683,5.304 24.522,5.464 24.522,5.9 24.683,6.061 		"/>
		<polygon fill="#595959" points="24.683,6.061 24.522,5.9 24.087,5.9 23.926,6.061 		"/>
		<polygon fill="#373737" points="23.926,6.061 24.087,5.9 24.087,5.464 23.926,5.304 		"/>
		<rect x="24.868" y="5.118" fill="#404040" width="1.128" height="1.128"/>
		<rect x="25.214" y="5.464" width="0.436" height="0.436"/>
		<polygon fill="#2A2A29" points="25.054,5.304 25.214,5.464 25.649,5.464 25.81,5.304 		"/>
		<polygon fill="#474747" points="25.81,5.304 25.649,5.464 25.649,5.9 25.81,6.061 		"/>
		<polygon fill="#595959" points="25.81,6.061 25.649,5.9 25.214,5.9 25.054,6.061 		"/>
		<polygon fill="#373737" points="25.054,6.061 25.214,5.9 25.214,5.464 25.054,5.304 		"/>
		<rect x="25.995" y="5.118" fill="#404040" width="1.128" height="1.128"/>
		<rect x="26.342" y="5.464" width="0.436" height="0.436"/>
		<polygon fill="#2A2A29" points="26.181,5.304 26.342,5.464 26.776,5.464 26.938,5.304 		"/>
		<polygon fill="#474747" points="26.938,5.304 26.776,5.464 26.776,5.9 26.938,6.061 		"/>
		<polygon fill="#595959" points="26.938,6.061 26.776,5.9 26.342,5.9 26.181,6.061 		"/>
		<polygon fill="#373737" points="26.181,6.061 26.342,5.9 26.342,5.464 26.181,5.304 		"/>
		<rect x="27.123" y="5.118" fill="#404040" width="1.128" height="1.128"/>
		<rect x="27.469" y="5.464" width="0.435" height="0.436"/>
		<polygon fill="#2A2A29" points="27.308,5.304 27.469,5.464 27.904,5.464 28.064,5.304 		"/>
		<polygon fill="#474747" points="28.064,5.304 27.904,5.464 27.904,5.9 28.064,6.061 		"/>
		<polygon fill="#595959" points="28.064,6.061 27.904,5.9 27.469,5.9 27.308,6.061 		"/>
		<polygon fill="#373737" points="27.308,6.061 27.469,5.9 27.469,5.464 27.308,5.304 		"/>
		<rect x="28.25" y="5.118" fill="#404040" width="1.128" height="1.128"/>
		<rect x="28.596" y="5.464" width="0.436" height="0.436"/>
		<polygon fill="#2A2A29" points="28.436,5.304 28.596,5.464 29.031,5.464 29.192,5.304 		"/>
		<polygon fill="#474747" points="29.192,5.304 29.031,5.464 29.031,5.9 29.192,6.061 		"/>
		<polygon fill="#595959" points="29.192,6.061 29.031,5.9 28.596,5.9 28.436,6.061 		"/>
		<polygon fill="#373737" points="28.436,6.061 28.596,5.9 28.596,5.464 28.436,5.304 		"/>
		<rect x="29.378" y="5.118" fill="#404040" width="1.128" height="1.128"/>
		<rect x="29.724" y="5.464" width="0.436" height="0.436"/>
		<polygon fill="#2A2A29" points="29.563,5.304 29.723,5.464 30.159,5.464 30.32,5.304 		"/>
		<polygon fill="#474747" points="30.32,5.304 30.159,5.464 30.159,5.9 30.32,6.061 		"/>
		<polygon fill="#595959" points="30.319,6.061 30.159,5.9 29.723,5.9 29.563,6.061 		"/>
		<polygon fill="#373737" points="29.563,6.061 29.723,5.9 29.723,5.464 29.563,5.304 		"/>
	</g>
</g>
<circle fill="#02809E" cx="9.998" cy="20.207" r="1.362"/>
<circle fill="#02809E" cx="29.906" cy="14.848" r="0.301"/>
<circle fill="#02809E" cx="30.986" cy="14.848" r="0.301"/>
<circle fill="#02809E" cx="29.906" cy="15.927" r="0.301"/>
<circle fill="#02809E" cx="30.986" cy="15.927" r="0.301"/>
<circle fill="#02809E" cx="29.906" cy="17.027" r="0.301"/>
<circle fill="#02809E" cx="30.986" cy="17.027" r="0.301"/>
<circle fill="#02809E" cx="3.663" cy="20.266" r="1.361"/>
<polygon fill="#FFFFFF" points="26.456,17.309 26.347,17.309 26.347,16.46 26.101,16.46 26.101,15.172 27.391,15.172 27.391,14.083 
	30.505,14.083 30.505,14.192 27.501,14.192 27.501,15.282 26.211,15.282 26.211,16.35 26.456,16.35 "/>
</svg>
