<?xml version="1.0" encoding="UTF-8" standalone="no"?>
<svg
   xmlns:dc="http://purl.org/dc/elements/1.1/"
   xmlns:cc="http://creativecommons.org/ns#"
   xmlns:rdf="http://www.w3.org/1999/02/22-rdf-syntax-ns#"
   xmlns:svg="http://www.w3.org/2000/svg"
   xmlns="http://www.w3.org/2000/svg"
   xmlns:sodipodi="http://sodipodi.sourceforge.net/DTD/sodipodi-0.dtd"
   xmlns:inkscape="http://www.inkscape.org/namespaces/inkscape"
   version="1.0"
   baseProfile="tiny"
   width="32"
   height="32"
   id="svg2"
   sodipodi:version="0.32"
   inkscape:version="0.46"
   sodipodi:docname="basic_ceramic_cap_icon.svg"
   inkscape:output_extension="org.inkscape.output.svg.inkscape">
  <metadata
     id="metadata24">
    <rdf:RDF>
      <cc:Work
         rdf:about="">
        <dc:format>image/svg+xml</dc:format>
        <dc:type
           rdf:resource="http://purl.org/dc/dcmitype/StillImage" />
      </cc:Work>
    </rdf:RDF>
  </metadata>
  <defs
     id="defs22">
    <inkscape:perspective
       sodipodi:type="inkscape:persp3d"
       inkscape:vp_x="0 : 20.5 : 1"
       inkscape:vp_y="0 : 1000 : 0"
       inkscape:vp_z="32 : 20.5 : 1"
       inkscape:persp3d-origin="16 : 13.666667 : 1"
       id="perspective26" />
  </defs>
  <sodipodi:namedview
     inkscape:window-height="726"
     inkscape:window-width="886"
     inkscape:pageshadow="2"
     inkscape:pageopacity="0.0"
     guidetolerance="10.0"
     gridtolerance="10.0"
     objecttolerance="10.0"
     borderopacity="1.0"
     bordercolor="#666666"
     pagecolor="#ffffff"
     id="base"
     showgrid="false"
     inkscape:zoom="15.437814"
     inkscape:cx="12.137552"
     inkscape:cy="15.999676"
     inkscape:window-x="217"
     inkscape:window-y="25"
     inkscape:current-layer="svg2" />
  <g
     id="icon"
     style="display:inline"
     transform="matrix(0.7974121,0,0,0.7974121,3.9995598,6.4932056e-4)">
    <g
       id="g4">
      <g
         id="g10002">
        <path
           d="M 4.717,40.126 C 4.721,39.05 4.526,37.506 4.175,36.184 L 4.175,36.184 C 3.86,34.865 3.249,33.731 3.07,33.614 L 3.07,33.614 C 1.208,31.733 0.028,29.468 0.002,27.039 L 0.002,27.039 C -0.035,24.334 0.623,20.788 3.608,17.85 L 3.608,17.85 C 6.032,15.426 8.255,13.205 8.255,13.205 L 8.255,13.205 L 11.684,16.632 C 11.68,16.638 9.461,18.854 7.037,21.279 L 7.037,21.279 C 5.175,23.19 4.887,24.897 4.851,27.04 L 4.851,27.04 C 4.824,27.714 5.321,29.034 6.496,30.185 L 6.496,30.185 C 7.803,31.554 8.372,33.201 8.865,34.956 L 8.865,34.956 C 9.321,36.709 9.562,38.537 9.566,40.129 L 9.566,40.129 L 4.717,40.129 L 4.717,40.126 z"
           id="path7"
           style="fill:#b3b3b3" />
        <path
           d="M 20.879,40.126 C 20.883,38.534 21.122,36.706 21.58,34.953 L 21.58,34.953 C 22.072,33.198 22.64,31.552 23.947,30.182 L 23.947,30.182 C 25.122,29.032 25.619,27.711 25.594,27.037 L 25.594,27.037 C 25.557,24.894 25.27,23.187 23.406,21.276 L 23.406,21.276 C 20.982,18.851 18.765,16.635 18.761,16.631 L 18.761,16.631 L 22.188,13.2 C 22.188,13.2 24.411,15.423 26.834,17.847 L 26.834,17.847 C 29.82,20.785 30.478,24.331 30.44,27.036 L 30.44,27.036 C 30.416,29.463 29.236,31.73 27.373,33.611 L 27.373,33.611 C 27.195,33.728 26.585,34.862 26.268,36.181 L 26.268,36.181 C 25.917,37.503 25.724,39.047 25.726,40.123 L 25.726,40.123 L 25.728,40.123 L 20.879,40.123 L 20.879,40.126 z"
           id="path9"
           style="fill:#b3b3b3" />
        <path
           d="M 28.658,19.373 C 27.528,17.989 25.997,16.061 25.997,13.033 L 25.997,3.839 C 25.997,1.145 24.589,0 22.597,0 C 19.802,0 18.96,0.977 15.929,0.977 L 14.515,0.977 C 11.484,0.977 10.642,0 7.848,0 C 5.855,0 4.448,1.145 4.448,3.839 L 4.448,13.033 C 4.448,16.062 2.83,17.785 1.787,19.24 C 0.88,20.502 0.17,22.326 0.17,23.235 C 2.428,22.259 4.211,22.832 5.523,24.144 C 7.341,21.415 10.574,18.914 13.403,18.914 L 17.039,18.914 C 19.868,18.914 23.101,21.417 24.919,24.144 C 26.231,22.832 28.014,22.259 30.272,23.235 C 30.274,22.326 29.921,20.922 28.658,19.373 z"
           id="path11"
           style="fill:#165696" />
        <path
           enable-background="new    "
           d="M 30.274,23.234 C 30.274,22.326 29.918,20.92 28.658,19.372 C 27.528,17.987 25.997,16.06 25.997,13.031 L 25.997,3.839 C 25.997,2.431 25.606,1.457 24.955,0.84 C 24.948,0.887 24.92,0.936 24.92,0.988 C 24.92,1.442 25.274,1.846 25.375,2.351 C 25.495,2.954 25.224,3.968 24.769,4.826 C 24.315,5.685 23.153,7.503 23.153,9.119 C 23.153,10.984 23.507,12.705 24.011,13.917 C 24.491,15.068 25.375,16.544 26.587,17.706 C 27.8,18.867 28.203,20.281 28.303,20.839 C 28.403,21.395 28.052,21.799 27.343,22.151 C 26.635,22.503 25.372,22.404 24.82,22.202 C 24.262,22 23.002,20.889 22.443,20.181 C 21.887,19.472 21.281,18.26 20.422,17.251 C 19.614,16.301 17.796,14.981 15.371,14.981 C 12.947,14.981 10.573,16.645 9.36,17.857 C 8.148,19.07 7.29,20.64 6.836,21.091 C 6.381,21.545 5.775,22.054 5.169,22.152 C 4.563,22.253 3.957,21.95 3.453,21.95 C 3.036,21.95 2.65,22.182 2.217,22.762 C 3.534,22.725 4.64,23.26 5.525,24.145 C 7.343,21.416 10.576,18.915 13.404,18.915 L 17.041,18.915 C 19.869,18.915 23.102,21.418 24.92,24.145 C 26.233,22.83 28.016,22.26 30.274,23.234 z"
           id="path13"
           style="opacity:0.16000001" />
        <path
           enable-background="new    "
           d="M 9.095,3.242 C 9.095,4.071 7.9,4.934 7.402,4.934 C 6.492,4.934 5.947,4.006 5.947,3.09 C 5.947,2.183 6.685,1.441 7.597,1.441 C 8.509,1.442 9.095,2.333 9.095,3.242 z"
           id="path15"
           style="opacity:0.3;fill:#ffffff" />
        <path
           enable-background="new    "
           d="M 2.058,20.922 C 2.058,20.484 2.192,19.944 2.496,19.541 C 2.913,18.985 3.821,18.094 4.246,17.487 C 4.718,16.814 4.886,16.208 4.988,15.633 C 5.071,15.168 5.409,14.623 5.762,14.623 C 6.116,14.623 6.436,15.182 6.436,15.735 C 6.436,16.289 6.277,16.981 5.864,17.655 C 5.426,18.364 4.686,19.001 4.148,19.44 C 3.602,19.88 3.236,20.414 3.102,20.752 C 3.015,20.975 2.798,21.29 2.462,21.29 C 2.095,21.291 2.058,21.117 2.058,20.922 z"
           id="path17"
           style="opacity:0.2;fill:#ffffff" />
        <path
           enable-background="new    "
           d="M 19.566,2.031 C 19.566,1.311 20.275,0.988 20.844,0.92 C 21.719,0.819 22.394,0.718 23,0.718 C 23.606,0.718 24.076,0.836 24.076,1.19 C 24.076,1.544 23.5,1.627 22.966,1.627 C 22.433,1.627 21.554,1.812 21.15,1.963 C 20.746,2.118 20.577,2.637 20.173,2.637 C 19.803,2.638 19.566,2.368 19.566,2.031 z"
           id="path19"
           style="opacity:0.2;fill:#ffffff" />
      </g>
    </g>
  </g>
</svg>
