<?xml version="1.0" encoding="UTF-8" standalone="no"?>
<!-- Generator: Adobe Illustrator 13.0.0, SVG Export Plug-In . SVG Version: 6.00 Build 14948)  -->
<svg
   xmlns:dc="http://purl.org/dc/elements/1.1/"
   xmlns:cc="http://creativecommons.org/ns#"
   xmlns:rdf="http://www.w3.org/1999/02/22-rdf-syntax-ns#"
   xmlns:svg="http://www.w3.org/2000/svg"
   xmlns="http://www.w3.org/2000/svg"
   xmlns:sodipodi="http://sodipodi.sourceforge.net/DTD/sodipodi-0.dtd"
   xmlns:inkscape="http://www.inkscape.org/namespaces/inkscape"
   version="1.0"
   baseProfile="tiny"
   id="svg2"
   inkscape:output_extension="org.inkscape.output.svg.inkscape"
   inkscape:version="0.46"
   sodipodi:docname="basic_voltage_regulator.svg"
   sodipodi:version="0.32"
   x="0px"
   y="0px"
   width="32"
   height="32"
   xml:space="preserve"><metadata
   id="metadata61"><rdf:RDF><cc:Work
       rdf:about=""><dc:format>image/svg+xml</dc:format><dc:type
         rdf:resource="http://purl.org/dc/dcmitype/StillImage" /></cc:Work></rdf:RDF></metadata><defs
   id="defs59"><inkscape:perspective
     sodipodi:type="inkscape:persp3d"
     inkscape:vp_x="0 : 39.25 : 1"
     inkscape:vp_y="0 : 1000 : 0"
     inkscape:vp_z="38.833 : 39.25 : 1"
     inkscape:persp3d-origin="19.4165 : 26.166667 : 1"
     id="perspective63" /></defs><sodipodi:namedview
   inkscape:window-height="789"
   inkscape:window-width="981"
   inkscape:pageshadow="2"
   inkscape:pageopacity="0.0"
   guidetolerance="10.0"
   gridtolerance="10.0"
   objecttolerance="10.0"
   borderopacity="1.0"
   bordercolor="#666666"
   pagecolor="#ffffff"
   id="base"
   showgrid="false"
   inkscape:zoom="6.5382385"
   inkscape:cx="13.866408"
   inkscape:cy="-5.7853228"
   inkscape:window-x="40"
   inkscape:window-y="22"
   inkscape:current-layer="svg2"
   inkscape:document-units="in"
   units="in" />








<g
   id="g2470"
   transform="matrix(0.4171187,0,0,0.4131442,8.0106094,-1.3627603e-2)"><rect
     style="fill:#b3b3b3"
     height="1.651"
     width="2.52"
     y="75.930786"
     x="8.4423933"
     id="connector0terminal" /><rect
     style="fill:#b3b3b3"
     height="1.651"
     width="2.52"
     y="75.930786"
     x="18.441395"
     id="connector1terminal" /><rect
     style="fill:#b3b3b3"
     height="1.651"
     width="2.52"
     y="75.930786"
     x="28.439394"
     id="connector2terminal" /><rect
     style="fill:#b3b3b3"
     height="7.4359999"
     width="2.52"
     y="70.14679"
     x="8.4423933"
     id="connector0pin" /><rect
     style="fill:#b3b3b3"
     height="7.4359999"
     width="2.52"
     y="70.14679"
     x="18.441395"
     id="connector1pin" /><rect
     style="fill:#b3b3b3"
     height="7.4359999"
     width="2.52"
     y="70.14679"
     x="28.439394"
     id="connector2pin" /><g
     transform="translate(30.26506,35.624498)"
     id="breadboard">
	
	
	
	
	
	
		<linearGradient
   gradientTransform="matrix(0.9999,0,0,0.9999,1046.7896,-729.4482)"
   y2="705.32062"
   x2="-1072.5137"
   y1="705.32062"
   x1="-1042.5156"
   gradientUnits="userSpaceOnUse"
   id="path19_1_">
		<stop
   id="stop16"
   style="stop-color:#FFFFFF"
   offset="0" />
		<stop
   id="stop18"
   style="stop-color:#000000"
   offset="1" />
	</linearGradient>
	
	
	
	
	
	
		<linearGradient
   gradientTransform="matrix(0.9999,0,0,0.9999,1046.7896,-729.4482)"
   y2="739.01398"
   x2="-1076.0293"
   y1="739.01398"
   x1="-1070.9033"
   gradientUnits="userSpaceOnUse"
   id="path40_1_">
		<stop
   id="stop26"
   style="stop-color:#4D4D4D"
   offset="0" />
		<stop
   id="stop28"
   style="stop-color:#4B4B4B"
   offset="0.0238" />
		<stop
   id="stop30"
   style="stop-color:#373737"
   offset="0.3557" />
		<stop
   id="stop32"
   style="stop-color:#2A2A2A"
   offset="0.6835" />
		<stop
   id="stop34"
   style="stop-color:#262626"
   offset="1" />
	</linearGradient>
	
	
		<linearGradient
   gradientTransform="matrix(0.9999,0,0,0.9999,1046.7896,-729.4482)"
   y2="739.013"
   x2="-1039.0273"
   y1="739.013"
   x1="-1044.1533"
   gradientUnits="userSpaceOnUse"
   id="path47_1_">
		<stop
   id="stop38"
   style="stop-color:#333333"
   offset="0" />
		<stop
   id="stop40"
   style="stop-color:#000000"
   offset="1" />
	</linearGradient>
	
	
	
	
	
<g
   id="g2441"><rect
     id="rect4"
     x="-21.877001"
     y="11.025"
     width="2.52"
     height="30.785999"
     style="fill:#b3b3b3" /><rect
     id="rect6"
     x="-11.878"
     y="11.025"
     width="2.52"
     height="30.785999"
     style="fill:#b3b3b3" /><rect
     id="rect8"
     x="-1.88"
     y="11.025"
     width="2.52"
     height="30.785999"
     style="fill:#b3b3b3" /><polygon
     id="polygon10"
     points="-29.116,-30.981 -29.116,-17.641 -25.616,-17.641 -25.616,-35.005 -29.116,-30.981 "
     style="fill:#cccccc" /><polygon
     id="polygon12"
     points="7.88,-30.981 4.38,-35.005 4.38,-17.641 7.88,-17.641 7.88,-30.981 "
     style="fill:#999999" /><path
     id="path19"
     d="M -25.616,-35.005 L -25.616,-13.393 L 4.38,-13.393 L 4.38,-35.005 L -25.616,-35.005 z M -10.618,-21.479 C -14.968,-21.479 -18.492,-23.947 -18.492,-26.992 C -18.492,-30.036 -14.968,-32.503 -10.618,-32.503 C -6.268,-32.503 -2.744,-30.035 -2.744,-26.992 C -2.745,-23.948 -6.269,-21.479 -10.618,-21.479 z"
     style="fill:url(#path19_1_)" /><polygon
     id="polygon21"
     points="-17.117,21.169 -19.357,22.169 -21.876,22.169 -24.117,21.169 -24.117,8.989 -17.117,8.989 -17.117,21.169 "
     style="fill:#b3b3b3" /><polygon
     id="polygon23"
     points="-7.118,21.169 -9.358,22.169 -11.877,22.169 -14.118,21.169 -14.118,8.989 -7.118,8.989 -7.118,21.169 "
     style="fill:#b3b3b3" /><polygon
     id="polygon25"
     points="2.88,21.169 0.64,22.169 -1.878,22.169 -4.119,21.169 -4.119,8.989 2.88,8.989 2.88,21.169 "
     style="fill:#b3b3b3" /><rect
     id="rect27"
     x="-29.115999"
     y="-3.983"
     width="36.997002"
     height="22.221001"
     style="fill:#1a1a1a" /><path
     id="path40"
     d="M -29.116,5.903 L -29.116,13.08 C -26.286,13.08 -23.991,11.473 -23.991,9.491 C -23.991,7.51 -26.286,5.903 -29.116,5.903 z"
     style="fill:url(#path40_1_)" /><path
     id="path47"
     d="M 7.88,5.903 C 5.05,5.903 2.755,7.509 2.755,9.491 C 2.755,11.47 5.05,13.08 7.88,13.08 L 7.88,5.903 z"
     style="fill:url(#path47_1_)" /><rect
     id="rect49"
     x="-29.115999"
     y="-8.6330004"
     width="36.997002"
     height="4.6500001" /><rect
     id="rect51"
     x="-29.115999"
     y="-14.382"
     width="36.997002"
     height="5.7480001"
     style="fill:#333333" /><rect
     id="rect53"
     x="-25.615999"
     y="-35.005001"
     width="29.997"
     height="4.25"
     style="fill:#b2b2b2" /><path
     id="path55"
     d="M 4.38,-31.746 L -25.617,-31.746 L -29.117,-27.722 L -29.117,-14.382 L 7.88,-14.382 L 7.88,-27.722 L 4.38,-31.746 z M -10.618,-18.219 C -14.968,-18.219 -18.492,-20.687 -18.492,-23.732 C -18.492,-26.776 -14.968,-29.243 -10.618,-29.243 C -6.268,-29.243 -2.744,-26.775 -2.744,-23.732 C -2.745,-20.688 -6.269,-18.219 -10.618,-18.219 z"
     style="fill:#8c8c8c" /><g
     id="g47"
     transform="translate(-25.59191,-28.377384)">
	<path
   d="M 7.777,25.904 L 7.777,27.404 L 7.027,27.404 L 7.027,28.904 L 6.277,28.904 L 6.277,29.654 L 4.777,29.654 L 4.777,28.904 L 4.027,28.904 L 4.027,27.404 L 3.277,27.404 L 3.277,25.904 L 4.777,25.904 L 4.777,27.404 L 6.277,27.404 L 6.277,25.904 L 7.777,25.904 z"
   id="path49"
   style="fill:#ff6600" />
	<path
   d="M 15.277,26.654 L 16.027,26.654 L 16.027,28.154 L 15.277,28.154 L 15.277,28.904 L 16.027,28.904 L 16.027,29.654 L 13.777,29.654 L 13.777,28.904 L 13.027,28.904 L 13.027,29.654 L 11.527,29.654 L 11.527,25.904 L 15.277,25.904 L 15.277,26.654 L 15.277,26.654 z M 14.527,26.654 L 13.027,26.654 L 13.027,28.154 L 14.527,28.154 L 14.527,26.654 z"
   id="path51"
   style="fill:#ff6600" />
	<path
   d="M 21.277,25.904 L 21.277,26.654 L 18.277,26.654 L 18.277,27.404 L 20.527,27.404 L 20.527,28.154 L 18.277,28.154 L 18.277,28.904 L 21.277,28.904 L 21.277,29.654 L 16.777,29.654 L 16.777,25.904 L 21.277,25.904 z"
   id="path53"
   style="fill:#ff6600" />
	<path
   d="M 22.777,28.904 L 22.027,28.904 L 22.027,26.654 L 22.777,26.654 L 22.777,25.904 L 26.527,25.904 L 26.527,26.654 L 23.527,26.654 L 23.527,28.904 L 25.027,28.904 L 25.027,28.154 L 24.277,28.154 L 24.277,27.404 L 26.527,27.404 L 26.527,29.654 L 22.777,29.654 L 22.777,28.904 z"
   id="path56"
   style="fill:#ff6600" />
</g></g>

</g></g>
</svg>