<?xml version="1.0" encoding="utf-8"?>
<!-- Generator: Adobe Illustrator 13.0.0, SVG Export Plug-In . SVG Version: 6.00 Build 14948)  -->
<!DOCTYPE svg PUBLIC "-//W3C//DTD SVG 1.1//EN" "http://www.w3.org/Graphics/SVG/1.1/DTD/svg11.dtd">
<svg version="1.1" id="Layer_1" xmlns="http://www.w3.org/2000/svg" xmlns:xlink="http://www.w3.org/1999/xlink" x="0px" y="0px"
	 width="32px" height="32px" viewBox="74.396 49.268 32 32" xml:space="preserve">
<g id="icon">
	<path fill="#1A1A1A" d="M28.59,21.789c0,0.229-0.207,0.389-0.39,0.389H1.16c-0.256,0-0.389-0.131-0.389-0.389V7.493
		c0-0.204,0.16-0.388,0.389-0.388h27.041c0.211,0,0.389,0.153,0.389,0.388V21.789L28.59,21.789z"/>
	<path fill="none" stroke="#C9C9C9" stroke-width="0.1723" d="M1.178,17.809V8.756c0-0.134,0.072-0.245,0.162-0.245
		s0.162,0.111,0.162,0.245l0.172,4.415c0,0.134,0.074,0.243,0.163,0.243S2,13.305,2,13.171L2.172,9.75
		c0-0.134,0.073-0.244,0.163-0.244c0.091,0,0.162,0.11,0.162,0.244v2.688"/>
	<path fill="none" stroke="#C9C9C9" stroke-width="0.1723" d="M26.751,17.316v2.688c0,0.134,0.074,0.244,0.162,0.244
		c0.09,0,0.164-0.11,0.164-0.244l0.172-3.421c0-0.135,0.072-0.244,0.162-0.244s0.162,0.109,0.162,0.244l0.172,4.415
		c0,0.134,0.074,0.244,0.164,0.244c0.088,0,0.162-0.11,0.162-0.244v-5.418c0-0.134,0.108-0.244,0.244-0.244h0.276"/>
	<path fill="none" stroke="#C9C9C9" stroke-width="0.1723" d="M28.074,9.45v3.269c0,0.135,0.109,0.244,0.244,0.244h0.275"/>
	<rect x="1.094" y="16.841" fill="#C9C9C9" width="0.653" height="2.72"/>
	<rect x="27.536" y="9.464" fill="#C9C9C9" width="0.558" height="2.72"/>
	<g>
		<path fill="#353535" d="M27.047,13.652c0,0.402-0.33,0.731-0.732,0.731H3.312c-0.403,0-0.732-0.329-0.732-0.731V8.279
			c0-0.401,0.33-0.731,0.732-0.731h23.002c0.402,0,0.732,0.33,0.732,0.731V13.652L27.047,13.652z"/>
		<path fill="#CE925D" d="M20.003,7.559h6.359c0.401,0,0.731,0.329,0.731,0.732v5.373c0,0.402-0.33,0.732-0.731,0.732h-6.359V7.559z
			"/>
		<path opacity="0.35" d="M3.368,14.105c-0.304,0-0.69-0.281-0.69-0.614v-1.537
			c0,0.333,0.387,0.854,0.69,0.854h22.835c0.303,0,0.689-0.521,0.689-0.854v1.537c0,0.334-0.387,0.614-0.689,0.614H3.368
			L3.368,14.105z"/>
		<path fill="#B2B2B2" d="M27.025,10.92c0,1.531-0.057,2.771-0.129,2.771s-0.072-5.545,0-5.545S27.025,9.389,27.025,10.92"/>
		<path fill="#7C7C7C" d="M26.979,11.866c-0.049,0-0.049-2.05,0-2.05h-0.002c0,0.127,0.102,0.229,0.229,0.229h0.104
			c0.125,0,0.229,0.103,0.229,0.229v1.133c0,0.125-0.104,0.229-0.229,0.229h-0.104c-0.127,0-0.229,0.104-0.229,0.229H26.979
			L26.979,11.866z"/>
		<g>
			<g>
				<path fill="#E0E0E0" d="M7.457,10.452l-0.098,0.293H7.051l0.514-1.55h0.438l0.525,1.55H8.227l-0.101-0.293H7.457z M7.793,9.422
					H7.789l-0.264,0.805h0.535L7.793,9.422z"/>
				<path fill="#E0E0E0" d="M8.922,10.452l-0.097,0.293H8.518l0.515-1.55h0.438l0.524,1.55H9.693l-0.102-0.293H8.922z M9.26,9.422
					H9.256L8.99,10.227h0.535L9.26,9.422z"/>
				<path fill="#E0E0E0" d="M10.85,10.745v-1.55h0.771c0.304,0,0.457,0.062,0.457,0.402c0,0.178-0.033,0.299-0.222,0.344V9.95
					c0.218,0.024,0.259,0.168,0.259,0.362c0,0.344-0.142,0.433-0.468,0.433H10.85L10.85,10.745z M11.146,9.844h0.428
					c0.167,0,0.205-0.052,0.205-0.217s-0.066-0.178-0.213-0.178h-0.42V9.844L11.146,9.844z M11.146,10.491h0.408
					c0.176,0,0.263-0.013,0.263-0.202c0-0.17-0.038-0.219-0.212-0.219h-0.457L11.146,10.491L11.146,10.491z"/>
				<path fill="#E0E0E0" d="M13.034,10.607h-0.006c-0.052,0.146-0.211,0.149-0.337,0.149c-0.246,0-0.405-0.052-0.405-0.346
					c0-0.261,0.138-0.332,0.405-0.332c0.132,0,0.262,0.002,0.324,0.124h0.008v-0.141c0-0.177-0.016-0.238-0.231-0.238
					c-0.114,0-0.205,0.011-0.205,0.15h-0.261c0-0.315,0.218-0.328,0.465-0.328c0.348,0,0.492,0.055,0.492,0.418v0.68h-0.26
					L13.034,10.607z M12.547,10.413c0,0.151,0.062,0.167,0.237,0.167c0.138,0,0.24-0.012,0.24-0.167c0-0.151-0.111-0.155-0.24-0.155
					C12.652,10.257,12.547,10.257,12.547,10.413z"/>
				<path fill="#E0E0E0" d="M13.41,9.66h0.137V9.415h0.26V9.66h0.416v0.199h-0.416v0.556c0.002,0.099,0.002,0.146,0.111,0.146
					c0.146,0,0.131-0.115,0.131-0.229h0.229c0.004,0.329-0.079,0.428-0.36,0.428c-0.284,0-0.372-0.065-0.372-0.341V9.859h-0.136
					L13.41,9.66L13.41,9.66z"/>
				<path fill="#E0E0E0" d="M14.289,9.66h0.137V9.415h0.262V9.66h0.414v0.199h-0.416v0.556c0.002,0.099,0.002,0.146,0.111,0.146
					c0.146,0,0.131-0.115,0.131-0.229h0.229c0.004,0.329-0.078,0.428-0.359,0.428c-0.285,0-0.371-0.065-0.371-0.341V9.859h-0.137
					V9.66L14.289,9.66z"/>
				<path fill="#E0E0E0" d="M16.266,10.4c0,0.341-0.196,0.356-0.506,0.356c-0.416,0-0.5-0.132-0.5-0.552
					c0-0.389,0.062-0.557,0.5-0.557c0.446,0,0.506,0.129,0.506,0.603H15.52c0,0.233,0.006,0.31,0.238,0.31
					c0.146,0,0.248,0.002,0.248-0.16H16.266L16.266,10.4z M16.004,10.086c0-0.223-0.031-0.24-0.246-0.24
					c-0.225,0-0.24,0.049-0.24,0.24H16.004z"/>
				<path fill="#E0E0E0" d="M16.715,9.66l-0.007,0.143h0.011c0.051-0.119,0.164-0.152,0.289-0.152c0.229,0,0.284,0.136,0.284,0.341
					v0.087h-0.243v-0.057c0-0.109-0.011-0.175-0.132-0.175c-0.155,0-0.2,0.091-0.196,0.23v0.669h-0.262V9.661L16.715,9.66
					L16.715,9.66z"/>
				<path fill="#E0E0E0" d="M18.072,10.789c-0.061,0.246-0.109,0.438-0.414,0.438c-0.035,0-0.072-0.006-0.111-0.009v-0.196
					c0.021,0.004,0.039,0.006,0.057,0.006c0.164,0,0.188-0.155,0.211-0.282h-0.125L17.333,9.66h0.271l0.272,0.924h0.005l0.211-0.924
					h0.266L18.072,10.789z"/>
			</g>
		</g>
		<path opacity="0.35" fill="#FFFFFF" d="M26.335,9.566c0,0.244-0.264,0.442-0.592,0.442H3.807
			c-0.326,0-0.592-0.181-0.592-0.426V8.251c0-0.244,0.266-0.46,0.592-0.46h21.938c0.326,0,0.592,0.197,0.592,0.441L26.335,9.566
			L26.335,9.566z"/>
	</g>
	<g>
		<path fill="#353535" d="M2.236,21.061c0,0.403,0.33,0.732,0.732,0.732h23.002c0.401,0,0.733-0.329,0.733-0.732v-5.371
			c0-0.403-0.332-0.732-0.733-0.732H2.969c-0.402,0-0.732,0.329-0.732,0.732V21.061L2.236,21.061z"/>
		<path fill="#CE925D" d="M9.328,14.957H2.969c-0.402,0-0.732,0.33-0.732,0.732v5.371c0,0.403,0.33,0.733,0.732,0.733h6.359V14.957z
			"/>
		<path opacity="0.35" d="M25.915,21.514c0.304,0,0.688-0.281,0.688-0.613v-1.539
			c0,0.334-0.387,0.855-0.688,0.855H3.08c-0.303,0-0.689-0.521-0.689-0.855V20.9c0,0.334,0.387,0.613,0.689,0.613H25.915z"/>
		<path fill="#B2B2B2" d="M2.258,18.33c0,1.531,0.059,2.773,0.129,2.773c0.072,0,0.072-5.545,0-5.545
			C2.316,15.559,2.258,16.799,2.258,18.33"/>
		<path fill="#7C7C7C" d="M2.305,19.275c0.049,0,0.049-2.049,0-2.049h0.002c0,0.127-0.103,0.229-0.229,0.229H1.975
			c-0.125,0-0.229,0.103-0.229,0.229v1.133c0,0.127,0.103,0.229,0.229,0.229h0.104c0.126,0,0.229,0.104,0.229,0.229H2.305
			L2.305,19.275z"/>
		<g>
			<g>
				<path fill="#E0E0E0" d="M21.975,18.447l0.098-0.293h0.309l-0.516,1.551h-0.438l-0.525-1.551h0.303l0.1,0.293H21.975z
					 M21.639,19.477h0.004l0.264-0.804h-0.535L21.639,19.477z"/>
				<path fill="#E0E0E0" d="M20.51,18.447l0.098-0.293h0.307L20.4,19.705h-0.439l-0.523-1.551h0.302l0.103,0.293H20.51z
					 M20.172,19.477h0.004l0.266-0.804h-0.535L20.172,19.477z"/>
				<path fill="#E0E0E0" d="M18.581,18.154v1.549h-0.771c-0.303,0-0.455-0.061-0.455-0.402c0-0.177,0.031-0.297,0.221-0.343V18.95
					c-0.219-0.025-0.258-0.169-0.258-0.363c0-0.343,0.139-0.433,0.467-0.433H18.581L18.581,18.154z M18.284,18.409h-0.406
					c-0.178,0-0.262,0.012-0.262,0.202c0,0.168,0.035,0.219,0.211,0.219h0.457V18.409L18.284,18.409z M18.284,19.055h-0.429
					c-0.168,0-0.204,0.053-0.204,0.217c0,0.166,0.065,0.18,0.213,0.18h0.42V19.055L18.284,19.055z"/>
				<path fill="#E0E0E0" d="M16.396,18.291h0.007c0.051-0.146,0.21-0.148,0.336-0.148c0.246,0,0.405,0.051,0.405,0.346
					c0,0.261-0.137,0.332-0.405,0.332c-0.132,0-0.263-0.002-0.324-0.125h-0.008v0.142c0,0.176,0.015,0.237,0.229,0.237
					c0.114,0,0.205-0.01,0.205-0.15h0.262c0,0.316-0.217,0.328-0.465,0.328c-0.347,0-0.49-0.055-0.49-0.417v-0.681h0.26
					L16.396,18.291z M16.885,18.486c0-0.152-0.062-0.168-0.238-0.168c-0.139,0-0.239,0.014-0.239,0.168
					c0,0.15,0.11,0.156,0.239,0.156C16.78,18.643,16.885,18.643,16.885,18.486z"/>
				<path fill="#E0E0E0" d="M16.02,19.238h-0.135v0.246h-0.261v-0.246h-0.415v-0.197h0.415v-0.557
					c-0.002-0.1-0.002-0.146-0.11-0.146c-0.146,0-0.131,0.116-0.131,0.229h-0.229c-0.004-0.328,0.079-0.428,0.359-0.428
					c0.285,0,0.371,0.065,0.371,0.342v0.558h0.137L16.02,19.238L16.02,19.238z"/>
				<path fill="#E0E0E0" d="M15.143,19.238h-0.137v0.246h-0.261v-0.246h-0.416v-0.197h0.416v-0.557
					c-0.002-0.1-0.002-0.146-0.11-0.146c-0.147,0-0.131,0.116-0.131,0.229h-0.229c-0.004-0.328,0.078-0.428,0.359-0.428
					c0.285,0,0.373,0.065,0.373,0.342v0.558h0.137v0.198H15.143z"/>
				<path fill="#E0E0E0" d="M13.166,18.5c0-0.341,0.197-0.357,0.508-0.357c0.414,0,0.498,0.133,0.498,0.551
					c0,0.391-0.062,0.559-0.498,0.559c-0.447,0-0.508-0.13-0.508-0.604h0.747c0-0.232-0.007-0.309-0.239-0.309
					c-0.146,0-0.248-0.002-0.248,0.16H13.166L13.166,18.5z M13.426,18.812c0,0.225,0.033,0.24,0.248,0.24
					c0.225,0,0.239-0.047,0.239-0.24H13.426z"/>
				<path fill="#E0E0E0" d="M12.717,19.238l0.006-0.143h-0.012c-0.051,0.12-0.162,0.154-0.289,0.154
					c-0.229,0-0.285-0.137-0.285-0.341v-0.087h0.244v0.056c0,0.11,0.012,0.174,0.133,0.174c0.155,0,0.201-0.089,0.196-0.229v-0.668
					h0.261v1.084H12.717L12.717,19.238z"/>
				<path fill="#E0E0E0" d="M11.359,18.111c0.061-0.246,0.109-0.438,0.412-0.438c0.039,0,0.074,0.006,0.111,0.009v0.196
					c-0.018-0.002-0.037-0.006-0.056-0.006c-0.164,0-0.188,0.155-0.211,0.282h0.126L12.1,19.24h-0.27l-0.273-0.924h-0.004
					l-0.211,0.924h-0.265L11.359,18.111z"/>
			</g>
		</g>
		<path opacity="0.35" fill="#FFFFFF" d="M2.947,16.977c0,0.244,0.265,0.441,0.592,0.441h21.938
			c0.326,0,0.592-0.182,0.592-0.425V15.66c0-0.244-0.266-0.46-0.592-0.46H3.54c-0.327,0-0.592,0.198-0.592,0.442L2.947,16.977
			L2.947,16.977z"/>
	</g>
	<g>
		<path fill="#1A1A1A" d="M2.159,7.129l0.338,0.264c0,0,0.241,0.271,0.451,0.562c0.125,0.174,0.229,0.783,0.384,0.938
			c0.155,0.154,0.376,0.188,0.562,0.188c0.053,0,4.351,0,4.402,0c0.188,0,0.409-0.032,0.564-0.188
			c0.154-0.154,0.26-0.765,0.384-0.938c0.209-0.291,0.451-0.562,0.451-0.562l0.337-0.264H2.159z"/>
		<path opacity="0.2" fill="#FFFFFF" d="M2.646,7.328l0.089,0.033c0,0,0,0.121,0.196,0.25
			C3.049,7.689,3.146,7.723,3.29,7.793c0.146,0.068,0.351,0.084,0.526,0.084c0.049,0,4.512,0,4.562,0
			c0.175,0,0.382-0.016,0.525-0.084c0.146-0.068,0.243-0.104,0.358-0.182c0.196-0.129,0.196-0.25,0.196-0.25l0.086-0.032
			L2.646,7.328z"/>
	</g>
	<g>
		<path fill="#1A1A1A" d="M19.331,7.129l0.336,0.264c0,0,0.242,0.271,0.451,0.562c0.125,0.174,0.229,0.783,0.385,0.938
			s0.375,0.188,0.562,0.188c0.054,0,4.353,0,4.402,0c0.188,0,0.408-0.032,0.564-0.188c0.154-0.154,0.26-0.765,0.385-0.938
			c0.209-0.291,0.449-0.562,0.449-0.562l0.338-0.264H19.331z"/>
		<path opacity="0.2" fill="#FFFFFF" d="M19.818,7.328l0.088,0.033c0,0,0,0.121,0.195,0.25
			c0.119,0.078,0.215,0.111,0.358,0.182c0.146,0.068,0.353,0.084,0.527,0.084c0.049,0,4.512,0,4.562,0
			c0.174,0,0.381-0.016,0.525-0.084s0.242-0.104,0.359-0.182c0.194-0.129,0.194-0.25,0.194-0.25l0.089-0.032L19.818,7.328z"/>
	</g>
	<g>
		<path fill="#1A1A1A" d="M2.159,22.119l0.338-0.264c0,0,0.241-0.271,0.451-0.562c0.125-0.173,0.229-0.783,0.384-0.938
			c0.155-0.154,0.376-0.188,0.562-0.188c0.053,0,4.351,0,4.402,0c0.188,0,0.409,0.032,0.564,0.188
			c0.154,0.154,0.26,0.766,0.384,0.938c0.209,0.291,0.451,0.562,0.451,0.562l0.337,0.264H2.159z"/>
		<path d="M2.646,21.921l0.089-0.033c0,0,0-0.122,0.196-0.252c0.117-0.077,0.215-0.11,0.358-0.18
			c0.144-0.07,0.351-0.084,0.526-0.084c0.049,0,4.512,0,4.562,0c0.175,0,0.382,0.015,0.525,0.084
			c0.146,0.067,0.243,0.103,0.358,0.18c0.196,0.13,0.196,0.252,0.196,0.252l0.086,0.031L2.646,21.921z"/>
	</g>
	<g>
		<path fill="#1A1A1A" d="M19.331,22.119l0.336-0.264c0,0,0.242-0.271,0.451-0.562c0.125-0.173,0.229-0.783,0.385-0.938
			c0.154-0.154,0.375-0.188,0.562-0.188c0.054,0,4.353,0,4.402,0c0.188,0,0.408,0.032,0.564,0.188
			c0.154,0.154,0.26,0.766,0.385,0.938c0.209,0.291,0.449,0.562,0.449,0.562l0.338,0.264H19.331z"/>
		<path d="M19.818,21.921l0.088-0.033c0,0,0-0.122,0.195-0.252c0.119-0.077,0.215-0.11,0.358-0.18
			c0.146-0.069,0.353-0.084,0.527-0.084c0.049,0,4.512,0,4.562,0c0.174,0,0.381,0.015,0.525,0.084
			c0.145,0.067,0.242,0.103,0.359,0.18c0.194,0.13,0.194,0.252,0.194,0.252l0.089,0.031L19.818,21.921z"/>
	</g>
	<path fill="none" stroke="#000000" stroke-width="0.517" d="M28.596,15.32c0.977,0,2.354,0.17,2.354,2.645
		c0,3.408-2.842,5.125-2.842,8.016v2.2"/>
	<path fill="none" stroke="#FF0000" stroke-width="0.517" d="M28.602,12.962c0.729,0,3.07,0.806,3.07,5.002
		c0,3.55-2.316,4.763-2.316,8.017c0,0,0,1.467,0,2.199"/>
</g>
</svg>
