<?xml version="1.0" encoding="utf-8"?>
<!-- Generator: Adobe Illustrator 14.0.0, SVG Export Plug-In . SVG Version: 6.00 Build 43363)  -->
<!DOCTYPE svg PUBLIC "-//W3C//DTD SVG 1.1//EN" "http://www.w3.org/Graphics/SVG/1.1/DTD/svg11.dtd">
<svg version="1.1" id="Layer_1" xmlns="http://www.w3.org/2000/svg" xmlns:xlink="http://www.w3.org/1999/xlink" x="0px" y="0px"
	 width="32px" height="32px" viewBox="74.396 49.268 32 32" enable-background="new 74.396 49.268 32 32" xml:space="preserve">
<g>
	<rect id="connector0pin" x="102.025" y="75.093" fill="#8C8C8C" width="0.516" height="1.424"/>
	<rect id="connector1pin" x="103.265" y="75.093" fill="#8C8C8C" width="0.518" height="1.424"/>
	<rect id="connector0terminal" x="102.025" y="76.42" fill="#8C8C8C" width="0.516" height="0.097"/>
	<rect id="connector1terminal" x="103.265" y="76.42" fill="#8C8C8C" width="0.518" height="0.097"/>
	<g id="breadboard">
		<path fill="#1A1A1A" d="M102.763,68.703c0,0.229-0.207,0.389-0.389,0.389H75.334c-0.256,0-0.388-0.131-0.388-0.389V54.407
			c0-0.204,0.16-0.388,0.388-0.388h27.041c0.211,0,0.389,0.154,0.389,0.388V68.703L102.763,68.703z"/>
		<path fill="none" stroke="#C9C9C9" stroke-width="0.1723" d="M75.351,64.722V55.67c0-0.134,0.073-0.245,0.163-0.245
			c0.09,0,0.162,0.111,0.162,0.245l0.172,4.415c0,0.134,0.074,0.243,0.163,0.243c0.089,0,0.163-0.109,0.163-0.243l0.172-3.421
			c0-0.134,0.073-0.244,0.163-0.244s0.162,0.11,0.162,0.244v2.688"/>
		<path fill="none" stroke="#C9C9C9" stroke-width="0.1723" d="M100.925,64.231v2.688c0,0.134,0.074,0.244,0.162,0.244
			c0.09,0,0.164-0.11,0.164-0.244l0.172-3.421c0-0.135,0.072-0.244,0.162-0.244s0.162,0.109,0.162,0.244l0.172,4.415
			c0,0.134,0.074,0.244,0.164,0.244c0.088,0,0.162-0.11,0.162-0.244v-5.418c0-0.134,0.109-0.244,0.244-0.244h0.277"/>
		<path fill="none" stroke="#C9C9C9" stroke-width="0.1723" d="M102.248,56.364v3.269c0,0.135,0.109,0.244,0.244,0.244h0.275"/>
		<rect x="75.268" y="63.755" fill="#C9C9C9" width="0.653" height="2.719"/>
		<rect x="101.71" y="56.378" fill="#C9C9C9" width="0.557" height="2.72"/>
		<g>
			<path fill="#353535" d="M101.22,60.566c0,0.403-0.33,0.732-0.732,0.732H77.486c-0.403,0-0.732-0.329-0.732-0.732v-5.372
				c0-0.402,0.33-0.732,0.732-0.732h23.002c0.402,0,0.732,0.33,0.732,0.732V60.566L101.22,60.566z"/>
			<path fill="#CE925D" d="M94.177,54.472h6.359c0.402,0,0.732,0.33,0.732,0.733v5.373c0,0.402-0.33,0.732-0.732,0.732h-6.359
				V54.472z"/>
			<path opacity="0.35" enable-background="new    " d="M77.542,61.019c-0.303,0-0.69-0.281-0.69-0.614v-1.537
				c0,0.333,0.387,0.855,0.69,0.855h22.835c0.303,0,0.689-0.522,0.689-0.855v1.537c0,0.334-0.387,0.614-0.689,0.614H77.542
				L77.542,61.019z"/>
			<path fill="#B2B2B2" d="M101.199,57.834c0,1.531-0.057,2.772-0.129,2.772s-0.072-5.545,0-5.545S101.199,56.303,101.199,57.834"/>
			<path fill="#7C7C7C" d="M101.152,58.78c-0.049,0-0.049-2.049,0-2.049h-0.002c0,0.126,0.102,0.229,0.229,0.229h0.104
				c0.125,0,0.229,0.103,0.229,0.229v1.133c0,0.125-0.104,0.229-0.229,0.229h-0.104c-0.127,0-0.229,0.103-0.229,0.229L101.152,58.78
				L101.152,58.78z"/>
			<g>
				<g>
					<path fill="#E0E0E0" d="M81.631,57.366l-0.098,0.293h-0.308l0.514-1.55h0.438l0.525,1.55h-0.302L82.3,57.366H81.631z
						 M81.967,56.336h-0.004l-0.264,0.805h0.535L81.967,56.336z"/>
					<path fill="#E0E0E0" d="M83.096,57.366l-0.097,0.293h-0.307l0.514-1.55h0.438l0.525,1.55h-0.302l-0.102-0.293H83.096z
						 M83.433,56.336h-0.004l-0.265,0.805h0.535L83.433,56.336z"/>
					<path fill="#E0E0E0" d="M85.023,57.659V56.11h0.771c0.303,0,0.457,0.062,0.457,0.402c0,0.178-0.033,0.298-0.221,0.343v0.009
						c0.217,0.025,0.258,0.168,0.258,0.363c0,0.344-0.141,0.432-0.467,0.432H85.023L85.023,57.659z M85.321,56.758h0.427
						c0.167,0,0.205-0.052,0.205-0.217s-0.066-0.178-0.213-0.178H85.32L85.321,56.758L85.321,56.758z M85.321,57.405h0.407
						c0.177,0,0.263-0.013,0.263-0.202c0-0.17-0.038-0.219-0.212-0.219h-0.457L85.321,57.405L85.321,57.405z"/>
					<path fill="#E0E0E0" d="M87.208,57.522h-0.006c-0.052,0.146-0.211,0.149-0.337,0.149c-0.246,0-0.405-0.052-0.405-0.346
						c0-0.26,0.137-0.332,0.405-0.332c0.132,0,0.262,0.002,0.324,0.124h0.008v-0.141c0-0.176-0.015-0.238-0.231-0.238
						c-0.114,0-0.205,0.011-0.205,0.151h-0.261c0-0.316,0.218-0.328,0.465-0.328c0.348,0,0.492,0.054,0.492,0.418v0.679h-0.26
						L87.208,57.522z M86.72,57.327c0,0.152,0.062,0.167,0.238,0.167c0.138,0,0.24-0.012,0.24-0.167c0-0.151-0.111-0.155-0.24-0.155
						C86.826,57.171,86.72,57.171,86.72,57.327z"/>
					<path fill="#E0E0E0" d="M87.584,56.574h0.136v-0.245h0.261v0.245h0.415v0.199h-0.415v0.556
						c0.002,0.099,0.002,0.145,0.111,0.145c0.146,0,0.13-0.115,0.13-0.229h0.229c0.004,0.329-0.079,0.428-0.36,0.428
						c-0.285,0-0.372-0.066-0.372-0.341v-0.559h-0.136V56.574L87.584,56.574z"/>
					<path fill="#E0E0E0" d="M88.463,56.574H88.6v-0.245h0.261v0.245h0.415v0.199H88.86v0.556c0.002,0.099,0.002,0.145,0.111,0.145
						c0.146,0,0.13-0.115,0.13-0.229h0.229c0.004,0.329-0.078,0.428-0.359,0.428c-0.285,0-0.372-0.066-0.372-0.341v-0.559h-0.136
						V56.574L88.463,56.574z"/>
					<path fill="#E0E0E0" d="M90.439,57.314c0,0.341-0.196,0.357-0.505,0.357c-0.417,0-0.5-0.132-0.5-0.552
						c0-0.389,0.062-0.557,0.5-0.557c0.446,0,0.505,0.13,0.505,0.603h-0.746c0,0.233,0.006,0.309,0.239,0.309
						c0.145,0,0.247,0.002,0.247-0.16H90.439L90.439,57.314z M90.178,57c0-0.223-0.032-0.24-0.246-0.24
						c-0.225,0-0.24,0.048-0.24,0.24H90.178z"/>
					<path fill="#E0E0E0" d="M90.888,56.574l-0.006,0.143h0.01c0.052-0.119,0.164-0.153,0.289-0.153c0.23,0,0.285,0.136,0.285,0.341
						v0.087h-0.243v-0.057c0-0.109-0.011-0.174-0.132-0.174c-0.155,0-0.201,0.09-0.197,0.23v0.669h-0.261v-1.085L90.888,56.574
						L90.888,56.574z"/>
					<path fill="#E0E0E0" d="M92.246,57.703c-0.061,0.246-0.109,0.438-0.414,0.438c-0.035,0-0.072-0.006-0.111-0.009v-0.196
						c0.02,0.003,0.039,0.006,0.057,0.006c0.164,0,0.188-0.156,0.211-0.283h-0.125l-0.357-1.085h0.27l0.273,0.924h0.004l0.211-0.924
						h0.266L92.246,57.703z"/>
				</g>
			</g>
			<path opacity="0.35" fill="#FFFFFF" enable-background="new    " d="M100.509,56.481c0,0.244-0.264,0.442-0.592,0.442H77.981
				c-0.327,0-0.592-0.181-0.592-0.426v-1.332c0-0.244,0.266-0.46,0.592-0.46h21.937c0.326,0,0.592,0.198,0.592,0.442V56.481
				L100.509,56.481z"/>
		</g>
		<g>
			<path fill="#353535" d="M76.41,67.975c0,0.403,0.33,0.732,0.733,0.732h23.001c0.402,0,0.734-0.329,0.734-0.732v-5.372
				c0-0.403-0.332-0.732-0.734-0.732H77.143c-0.403,0-0.733,0.329-0.733,0.732V67.975z"/>
			<path fill="#CE925D" d="M83.502,61.871h-6.359c-0.403,0-0.733,0.33-0.733,0.732v5.372c0,0.403,0.33,0.733,0.733,0.733h6.359
				V61.871z"/>
			<path opacity="0.35" enable-background="new    " d="M100.089,68.428c0.303,0,0.689-0.281,0.689-0.613v-1.539
				c0,0.333-0.387,0.855-0.689,0.855H77.254c-0.303,0-0.69-0.522-0.69-0.855v1.539c0,0.333,0.387,0.613,0.69,0.613H100.089z"/>
			<path fill="#B2B2B2" d="M76.431,65.244c0,1.531,0.059,2.773,0.13,2.773c0.072,0,0.072-5.545,0-5.545
				C76.49,62.472,76.431,63.713,76.431,65.244"/>
			<path fill="#7C7C7C" d="M76.479,66.189c0.048,0,0.048-2.048,0-2.048h0.001c0,0.126-0.102,0.229-0.228,0.229h-0.104
				c-0.125,0-0.229,0.103-0.229,0.229v1.133c0,0.127,0.103,0.229,0.229,0.229h0.104c0.126,0,0.228,0.103,0.228,0.229H76.479
				L76.479,66.189z"/>
			<g>
				<g>
					<path fill="#E0E0E0" d="M96.148,65.362l0.098-0.293h0.309l-0.516,1.55h-0.438l-0.525-1.55h0.303l0.1,0.293H96.148z
						 M95.812,66.391h0.004l0.264-0.804h-0.535L95.812,66.391z"/>
					<path fill="#E0E0E0" d="M94.683,65.362l0.098-0.293h0.307l-0.514,1.55h-0.439l-0.523-1.55h0.301l0.102,0.293H94.683z
						 M94.345,66.391h0.004l0.266-0.804H94.08L94.345,66.391z"/>
					<path fill="#E0E0E0" d="M92.755,65.068v1.549h-0.771c-0.303,0-0.455-0.061-0.455-0.402c0-0.177,0.031-0.297,0.221-0.343v-0.008
						c-0.219-0.025-0.258-0.168-0.258-0.363c0-0.343,0.139-0.432,0.467-0.432L92.755,65.068L92.755,65.068z M92.458,65.323h-0.406
						c-0.178,0-0.262,0.012-0.262,0.202c0,0.169,0.035,0.219,0.211,0.219h0.457V65.323L92.458,65.323z M92.458,65.969h-0.428
						c-0.168,0-0.205,0.052-0.205,0.217s0.066,0.179,0.213,0.179h0.42V65.969L92.458,65.969z"/>
					<path fill="#E0E0E0" d="M90.571,65.205h0.006c0.051-0.146,0.21-0.148,0.336-0.148c0.246,0,0.406,0.051,0.406,0.345
						c0,0.261-0.137,0.332-0.406,0.332c-0.132,0-0.262-0.001-0.324-0.124h-0.008v0.141c0,0.176,0.014,0.237,0.23,0.237
						c0.114,0,0.205-0.01,0.205-0.15h0.262c0,0.316-0.218,0.328-0.465,0.328c-0.347,0-0.491-0.054-0.491-0.417v-0.68h0.26
						L90.571,65.205z M91.058,65.401c0-0.153-0.061-0.168-0.237-0.168c-0.139,0-0.24,0.013-0.24,0.168
						c0,0.15,0.111,0.155,0.24,0.155C90.954,65.556,91.058,65.556,91.058,65.401z"/>
					<path fill="#E0E0E0" d="M90.194,66.153h-0.136v0.246h-0.26v-0.246h-0.415v-0.198h0.415v-0.556
						c-0.002-0.1-0.002-0.146-0.111-0.146c-0.146,0-0.13,0.116-0.13,0.229h-0.229c-0.004-0.327,0.079-0.427,0.359-0.427
						c0.285,0,0.372,0.065,0.372,0.341v0.558h0.137L90.194,66.153L90.194,66.153z"/>
					<path fill="#E0E0E0" d="M89.316,66.153h-0.137v0.246h-0.26v-0.246h-0.416v-0.198h0.416v-0.556
						c-0.002-0.1-0.002-0.146-0.111-0.146c-0.147,0-0.13,0.116-0.13,0.229h-0.229c-0.004-0.327,0.079-0.427,0.36-0.427
						c0.285,0,0.372,0.065,0.372,0.341v0.558h0.137V66.153L89.316,66.153z"/>
					<path fill="#E0E0E0" d="M87.34,65.414c0-0.341,0.197-0.357,0.507-0.357c0.415,0,0.499,0.132,0.499,0.551
						c0,0.39-0.062,0.558-0.499,0.558c-0.447,0-0.507-0.13-0.507-0.604h0.747c0-0.232-0.007-0.308-0.24-0.308
						c-0.146,0-0.247-0.002-0.247,0.16H87.34L87.34,65.414z M87.6,65.727c0,0.224,0.033,0.24,0.247,0.24
						c0.225,0,0.24-0.047,0.24-0.24H87.6z"/>
					<path fill="#E0E0E0" d="M86.891,66.153l0.005-0.143h-0.011c-0.051,0.12-0.163,0.154-0.289,0.154
						c-0.229,0-0.285-0.136-0.285-0.341v-0.087h0.244v0.056c0,0.11,0.011,0.174,0.132,0.174c0.156,0,0.201-0.089,0.197-0.229v-0.669
						h0.26v1.084L86.891,66.153L86.891,66.153z"/>
					<path fill="#E0E0E0" d="M85.533,65.025c0.061-0.246,0.11-0.438,0.413-0.438c0.038,0,0.074,0.006,0.111,0.009v0.196
						c-0.018-0.002-0.038-0.006-0.056-0.006c-0.164,0-0.188,0.156-0.211,0.283h0.126l0.357,1.085h-0.269L85.73,65.23h-0.004
						l-0.211,0.924h-0.264L85.533,65.025z"/>
				</g>
			</g>
			<path opacity="0.35" fill="#FFFFFF" enable-background="new    " d="M77.121,63.89c0,0.245,0.265,0.442,0.592,0.442H99.65
				c0.326,0,0.592-0.181,0.592-0.425v-1.333c0-0.244-0.266-0.46-0.592-0.46H77.714c-0.327,0-0.592,0.198-0.592,0.442L77.121,63.89
				L77.121,63.89z"/>
		</g>
		<g>
			<path fill="#1A1A1A" d="M76.333,54.043l0.338,0.263c0,0,0.241,0.272,0.451,0.563c0.125,0.174,0.229,0.784,0.384,0.938
				s0.376,0.188,0.563,0.188c0.052,0,4.35,0,4.402,0c0.188,0,0.409-0.032,0.564-0.188c0.154-0.154,0.26-0.765,0.384-0.938
				c0.209-0.291,0.451-0.563,0.451-0.563l0.337-0.263H76.333z"/>
			<path opacity="0.2" fill="#FFFFFF" enable-background="new    " d="M76.821,54.242l0.088,0.033c0,0,0,0.122,0.196,0.251
				c0.118,0.077,0.215,0.111,0.359,0.181c0.145,0.068,0.351,0.084,0.526,0.084c0.049,0,4.512,0,4.562,0
				c0.175,0,0.381-0.016,0.525-0.084c0.145-0.069,0.243-0.104,0.359-0.181c0.196-0.129,0.196-0.251,0.196-0.251l0.086-0.032
				L76.821,54.242z"/>
		</g>
		<g>
			<path fill="#1A1A1A" d="M93.505,54.043l0.336,0.263c0,0,0.242,0.272,0.451,0.563c0.125,0.174,0.23,0.784,0.385,0.938
				s0.375,0.188,0.562,0.188c0.053,0,4.352,0,4.402,0c0.188,0,0.408-0.032,0.564-0.188c0.154-0.154,0.26-0.765,0.385-0.938
				c0.209-0.291,0.449-0.563,0.449-0.563l0.338-0.263H93.505z"/>
			<path opacity="0.2" fill="#FFFFFF" enable-background="new    " d="M93.992,54.242l0.088,0.033c0,0,0,0.122,0.195,0.251
				c0.119,0.077,0.215,0.111,0.359,0.181c0.146,0.068,0.352,0.084,0.527,0.084c0.049,0,4.512,0,4.562,0
				c0.174,0,0.381-0.016,0.525-0.084c0.145-0.069,0.242-0.104,0.359-0.181c0.195-0.129,0.195-0.251,0.195-0.251l0.088-0.032
				L93.992,54.242z"/>
		</g>
		<g>
			<path fill="#1A1A1A" d="M76.333,69.033l0.338-0.263c0,0,0.241-0.272,0.451-0.563c0.125-0.173,0.229-0.783,0.384-0.938
				c0.155-0.154,0.376-0.188,0.563-0.188c0.052,0,4.35,0,4.402,0c0.188,0,0.409,0.032,0.564,0.188
				c0.154,0.155,0.26,0.766,0.384,0.938c0.209,0.291,0.451,0.563,0.451,0.563l0.337,0.263H76.333z"/>
			<path d="M76.821,68.835l0.088-0.033c0,0,0-0.122,0.196-0.252c0.118-0.077,0.215-0.11,0.359-0.18s0.351-0.084,0.526-0.084
				c0.049,0,4.512,0,4.562,0c0.175,0,0.381,0.015,0.525,0.084c0.145,0.068,0.243,0.103,0.359,0.18
				c0.196,0.13,0.196,0.252,0.196,0.252l0.086,0.031L76.821,68.835z"/>
		</g>
		<g>
			<path fill="#1A1A1A" d="M93.505,69.033l0.336-0.263c0,0,0.242-0.272,0.451-0.563c0.125-0.173,0.23-0.783,0.385-0.938
				c0.154-0.154,0.375-0.188,0.562-0.188c0.053,0,4.352,0,4.402,0c0.188,0,0.408,0.032,0.564,0.188
				c0.154,0.155,0.26,0.766,0.385,0.938c0.209,0.291,0.449,0.563,0.449,0.563l0.338,0.263H93.505z"/>
			<path d="M93.992,68.835l0.088-0.033c0,0,0-0.122,0.195-0.252c0.119-0.077,0.215-0.11,0.359-0.18
				c0.146-0.069,0.352-0.084,0.527-0.084c0.049,0,4.512,0,4.562,0c0.174,0,0.381,0.015,0.525,0.084
				c0.145,0.068,0.242,0.103,0.359,0.18c0.195,0.13,0.195,0.252,0.195,0.252l0.088,0.031L93.992,68.835z"/>
		</g>
		<path fill="none" stroke="#000000" stroke-width="0.517" d="M102.769,62.235c0.977,0,2.354,0.169,2.354,2.644
			c0,3.408-2.842,5.125-2.842,8.016v2.2"/>
		<path fill="none" stroke="#FF0000" stroke-width="0.517" d="M102.775,59.876c0.729,0,3.07,0.805,3.07,5.002
			c0,3.55-2.316,4.763-2.316,8.016c0,0,0,1.468,0,2.2"/>
	</g>
</g>
</svg>
