<?xml version="1.0" encoding="utf-8"?>
<!-- Generator: Adobe Illustrator 14.0.0, SVG Export Plug-In . SVG Version: 6.00 Build 43363)  -->
<!DOCTYPE svg PUBLIC "-//W3C//DTD SVG 1.1//EN" "http://www.w3.org/Graphics/SVG/1.1/DTD/svg11.dtd">
<svg version="1.1" id="icon" xmlns="http://www.w3.org/2000/svg" xmlns:xlink="http://www.w3.org/1999/xlink" x="0px" y="0px"
	 width="32px" height="32px" viewBox="0 0 32 32" enable-background="new 0 0 32 32" xml:space="preserve">
<g id="svg">
	<rect x="1.006" y="3.125" fill="#262626" width="29.988" height="25.007"/>
	<g>
		<path fill="none" stroke="#000000" stroke-width="1.6284" stroke-linecap="round" stroke-linejoin="round" d="M5.137,6.758"/>
		<path fill="none" stroke="#8C8C8C" stroke-width="1.2213" stroke-linecap="round" stroke-linejoin="round" d="M5.137,6.758"/>
	</g>
	<g>
		<path fill="none" stroke="#000000" stroke-width="1.6284" stroke-linecap="round" stroke-linejoin="round" d="M26.587,6.741"/>
		<path fill="none" stroke="#8C8C8C" stroke-width="1.2213" stroke-linecap="round" stroke-linejoin="round" d="M26.587,6.741"/>
	</g>
	<g>
		<g>
			<path d="M25.599,16.077c0-5.375-4.358-9.732-9.737-9.732c-5.375,0-9.733,4.356-9.733,9.732c0,4.4,2.922,8.111,6.928,9.318v0.561
				h5.613v-0.561C22.679,24.188,25.599,20.477,25.599,16.077z"/>
			<g opacity="0.3">
				<path fill="#1A1A1A" d="M15.862,6.345c5.378,0,9.737,4.356,9.737,9.732c0,4.4-2.92,8.111-6.929,9.318v0.561h-5.613v-0.561
					c-4.006-1.207-6.928-4.918-6.928-9.318C6.129,10.701,10.487,6.345,15.862,6.345 M15.862,5.966
					c-5.576,0-10.111,4.536-10.111,10.111c0,4.399,2.772,8.219,6.927,9.595v0.283v0.379h0.379h5.613h0.379v-0.379v-0.283
					c4.156-1.375,6.929-5.195,6.929-9.595C25.978,10.501,21.439,5.966,15.862,5.966L15.862,5.966z"/>
			</g>
		</g>
		<g>
			<g>
				<polygon points="2.488,25.953 2.488,28.646 5.744,28.646 5.744,27.968 8.396,27.968 8.396,28.646 11.613,28.646 11.613,27.968 
					20.164,27.968 20.164,28.646 23.42,28.646 23.42,27.968 26.072,27.968 26.072,28.646 29.306,28.646 29.306,25.953 				"/>
			</g>
			<g opacity="0.3">
				<polygon fill="none" stroke="#1A1A1A" stroke-width="0.3787" points="2.488,25.953 2.488,28.646 5.744,28.646 5.744,27.968 
					8.396,27.968 8.396,28.646 11.613,28.646 11.613,27.968 20.164,27.968 20.164,28.646 23.42,28.646 23.42,27.968 26.072,27.968 
					26.072,28.646 29.306,28.646 29.306,25.953 				"/>
			</g>
		</g>
		<g>
			<path fill="#353535" d="M17.743,8.103v1.913h-3.757V8.103c-3.621,0.852-6.32,4.09-6.32,7.974c0,4.526,3.669,8.198,8.196,8.198
				c4.532,0,8.201-3.672,8.201-8.198C24.062,12.193,21.362,8.955,17.743,8.103z"/>
			<g opacity="0.3">
				<path fill="#515151" d="M13.607,8.596v1.419v0.378h0.378h3.757h0.379v-0.378V8.596c3.298,0.989,5.562,4,5.562,7.48
					c0,4.311-3.509,7.819-7.822,7.819c-4.311,0-7.817-3.508-7.817-7.819C8.045,12.596,10.309,9.585,13.607,8.596 M17.743,8.103
					v1.913h-3.757V8.103c-3.621,0.852-6.32,4.09-6.32,7.974c0,4.526,3.669,8.198,8.196,8.198c4.532,0,8.201-3.672,8.201-8.198
					C24.062,12.193,21.362,8.955,17.743,8.103L17.743,8.103z"/>
			</g>
		</g>
		<g>
			<g>
				<path d="M17.191,20.969c0-0.409-0.22-0.753-0.534-0.968v-1.705h-1.315v1.705c-0.314,0.216-0.534,0.559-0.534,0.968
					s0.22,0.753,0.534,0.968v1.709h1.315v-1.709C16.972,21.722,17.191,21.378,17.191,20.969z"/>
			</g>
		</g>
		<g>
			<g>
				<polygon fill="#B8AF82" points="15.649,18.576 15.649,19.104 16.352,19.104 16.352,18.576 				"/>
				<polygon fill="#9A916C" points="15.649,20.116 16.352,20.116 16.352,19.854 15.649,19.854 				"/>
				<polygon fill="#E2D6A1" points="15.649,19.854 16.352,19.854 16.352,19.104 15.649,19.104 				"/>
			</g>
			<g>
				<polygon fill="#B8AF82" points="16.349,23.362 16.349,22.837 15.649,22.837 15.649,23.362 				"/>
				<polygon fill="#9A916C" points="16.349,21.821 15.649,21.821 15.649,22.083 16.349,22.083 				"/>
				<polygon fill="#E2D6A1" points="16.349,22.083 15.649,22.083 15.649,22.837 16.349,22.837 				"/>
			</g>
		</g>
		<g>
			<g>
				<path d="M21.327,21.428l-0.854-1.479c0.165-0.343,0.184-0.75-0.021-1.104c-0.205-0.353-0.566-0.539-0.945-0.568l-0.854-1.479
					l-1.139,0.659l0.854,1.477c-0.165,0.342-0.185,0.747,0.021,1.102c0.205,0.356,0.567,0.545,0.948,0.573l0.854,1.477
					L21.327,21.428z"/>
			</g>
		</g>
		<g>
			<g>
				<polygon fill="#B8AF82" points="17.92,17.544 18.183,17.998 18.789,17.648 18.526,17.193 				"/>
				<polygon fill="#9A916C" points="18.691,18.88 19.298,18.528 19.165,18.299 18.557,18.65 				"/>
				<polygon fill="#E2D6A1" points="18.557,18.65 19.165,18.299 18.789,17.648 18.183,17.998 				"/>
			</g>
			<g>
				<polygon fill="#B8AF82" points="20.918,21.336 20.657,20.882 20.049,21.232 20.312,21.688 				"/>
				<polygon fill="#9A916C" points="20.147,20.003 19.541,20.354 19.674,20.581 20.282,20.23 				"/>
				<polygon fill="#E2D6A1" points="20.282,20.23 19.674,20.581 20.049,21.232 20.657,20.882 				"/>
			</g>
		</g>
		<g>
			<g>
				<path d="M22.665,17.928l-0.854-1.48c0.163-0.343,0.181-0.75-0.023-1.105c-0.205-0.352-0.564-0.539-0.942-0.567l-0.855-1.481
					l-1.141,0.66l0.854,1.479c-0.164,0.342-0.183,0.749,0.021,1.102c0.205,0.354,0.566,0.542,0.944,0.571l0.854,1.479L22.665,17.928
					z"/>
			</g>
		</g>
		<g>
			<g>
				<polygon fill="#B8AF82" points="19.256,14.044 19.521,14.498 20.127,14.149 19.861,13.692 				"/>
				<polygon fill="#9A916C" points="20.029,15.381 20.635,15.028 20.503,14.801 19.896,15.149 				"/>
				<polygon fill="#E2D6A1" points="19.896,15.149 20.503,14.801 20.127,14.149 19.521,14.498 				"/>
			</g>
			<g>
				<polygon fill="#B8AF82" points="22.257,17.837 21.994,17.38 21.384,17.731 21.647,18.189 				"/>
				<polygon fill="#9A916C" points="21.485,16.502 20.877,16.851 21.01,17.083 21.618,16.732 				"/>
				<polygon fill="#E2D6A1" points="21.618,16.732 21.01,17.083 21.384,17.731 21.994,17.38 				"/>
			</g>
		</g>
		<g>
			<g>
				<path d="M14.216,17.455l-1.142-0.659l-0.854,1.479c-0.378,0.029-0.739,0.216-0.943,0.568c-0.205,0.354-0.187,0.761-0.022,1.104
					l-0.854,1.48l1.139,0.655l0.854-1.477c0.38-0.028,0.742-0.217,0.946-0.573c0.204-0.354,0.186-0.758,0.021-1.1L14.216,17.455z"/>
			</g>
		</g>
		<g>
			<g>
				<polygon fill="#B8AF82" points="13.809,17.544 13.545,17.998 12.939,17.648 13.201,17.193 				"/>
				<polygon fill="#9A916C" points="13.036,18.88 12.429,18.528 12.562,18.299 13.169,18.65 				"/>
				<polygon fill="#E2D6A1" points="13.169,18.65 12.562,18.299 12.939,17.648 13.545,17.998 				"/>
			</g>
			<g>
				<polygon fill="#B8AF82" points="10.808,21.336 11.071,20.882 11.679,21.232 11.415,21.688 				"/>
				<polygon fill="#9A916C" points="11.581,20.003 12.187,20.354 12.053,20.581 11.447,20.23 				"/>
				<polygon fill="#E2D6A1" points="11.447,20.23 12.053,20.581 11.679,21.232 11.071,20.882 				"/>
			</g>
		</g>
		<g>
			<g>
				<path d="M12.877,13.954l-1.141-0.66l-0.854,1.481c-0.377,0.029-0.737,0.216-0.942,0.567c-0.205,0.356-0.187,0.762-0.023,1.105
					l-0.854,1.48l1.142,0.657l0.854-1.479c0.378-0.029,0.738-0.217,0.943-0.571c0.205-0.354,0.187-0.76,0.022-1.103L12.877,13.954z"
					/>
			</g>
		</g>
		<g>
			<g>
				<polygon fill="#B8AF82" points="12.472,14.044 12.208,14.498 11.601,14.149 11.864,13.692 				"/>
				<polygon fill="#9A916C" points="11.7,15.381 11.091,15.028 11.225,14.801 11.833,15.149 				"/>
				<polygon fill="#E2D6A1" points="11.833,15.149 11.225,14.801 11.601,14.149 12.208,14.498 				"/>
			</g>
			<g>
				<polygon fill="#B8AF82" points="9.47,17.837 9.733,17.38 10.343,17.731 10.079,18.189 				"/>
				<polygon fill="#9A916C" points="10.244,16.502 10.852,16.851 10.717,17.083 10.11,16.732 				"/>
				<polygon fill="#E2D6A1" points="10.11,16.732 10.717,17.083 10.343,17.731 9.733,17.38 				"/>
			</g>
		</g>
	</g>
	<g>
		<g>
			<polygon fill="#8C8C8C" points="18.205,25.41 13.522,25.41 13.058,27.645 18.669,27.645 			"/>
		</g>
	</g>
	<g>
		<rect x="2.753" y="27.062" fill="#8C8C8C" width="2.77" height="1.812"/>
		<g>
			<rect x="2.753" y="28.312" fill="#707070" width="2.77" height="0.563"/>
		</g>
	</g>
	<g>
		<rect x="8.618" y="27.062" fill="#8C8C8C" width="2.769" height="1.812"/>
		<g>
			<rect x="8.618" y="28.312" fill="#707070" width="2.769" height="0.563"/>
		</g>
	</g>
	<rect x="20.407" y="27.062" fill="#8C8C8C" width="2.771" height="1.812"/>
	<g>
		<rect x="20.407" y="28.312" fill="#707070" width="2.771" height="0.563"/>
	</g>
	<g>
		<rect x="26.271" y="27.062" fill="#8C8C8C" width="2.771" height="1.812"/>
		<g>
			<rect x="26.271" y="28.312" fill="#707070" width="2.771" height="0.563"/>
		</g>
	</g>
	<rect x="2.753" y="26.369" fill="#8C8C8C" width="26.288" height="1.329"/>
</g>
</svg>
