<?xml version="1.0" encoding="UTF-8" standalone="no"?>
<svg
   xmlns:dc="http://purl.org/dc/elements/1.1/"
   xmlns:cc="http://creativecommons.org/ns#"
   xmlns:rdf="http://www.w3.org/1999/02/22-rdf-syntax-ns#"
   xmlns:svg="http://www.w3.org/2000/svg"
   xmlns="http://www.w3.org/2000/svg"
   xmlns:sodipodi="http://sodipodi.sourceforge.net/DTD/sodipodi-0.dtd"
   xmlns:inkscape="http://www.inkscape.org/namespaces/inkscape"
   version="1.0"
   baseProfile="tiny"
   width="32"
   height="32"
   id="svg2"
   sodipodi:version="0.32"
   inkscape:version="0.46"
   sodipodi:docname="LED-green-5mmicon.svg"
   inkscape:output_extension="org.inkscape.output.svg.inkscape">
  <metadata
     id="metadata24">
    <rdf:RDF>
      <cc:Work
         rdf:about="">
        <dc:format>image/svg+xml</dc:format>
        <dc:type
           rdf:resource="http://purl.org/dc/dcmitype/StillImage" />
      </cc:Work>
    </rdf:RDF>
  </metadata>
  <defs
     id="defs22">
    <inkscape:perspective
       sodipodi:type="inkscape:persp3d"
       inkscape:vp_x="0 : 25.75 : 1"
       inkscape:vp_y="0 : 1000 : 0"
       inkscape:vp_z="32 : 25.75 : 1"
       inkscape:persp3d-origin="16 : 17.166667 : 1"
       id="perspective26" />
  </defs>
  <sodipodi:namedview
     inkscape:window-height="726"
     inkscape:window-width="1118"
     inkscape:pageshadow="2"
     inkscape:pageopacity="0.0"
     guidetolerance="10.0"
     gridtolerance="10.0"
     objecttolerance="10.0"
     borderopacity="1.0"
     bordercolor="#666666"
     pagecolor="#ffffff"
     id="base"
     showgrid="false"
     inkscape:zoom="15.4375"
     inkscape:cx="16"
     inkscape:cy="16"
     inkscape:window-x="152"
     inkscape:window-y="25"
     inkscape:current-layer="g14972" />
  <g
     id="icon"
     style="display:inline"
     transform="matrix(1.2070312,0,0,1.2070312,0,-1231.5252)">
    <g
       transform="matrix(0.9137635,0,0,0.9137635,2.5596687e-8,90.752064)"
       id="g4">
      <g
         transform="translate(0,30)"
         id="g14972">
        <g
           id="g2395"
           transform="matrix(0.8284958,0,0,0.8284958,5.4400023,169.25672)">
          <rect
             style="fill:#b3b3b3"
             id="rect14651"
             y="1012.3622"
             x="3.3900001"
             height="10"
             width="3" />
          <rect
             style="fill:#b3b3b3"
             id="rect14653"
             y="1012.3622"
             x="13.39"
             height="10"
             width="3" />
          <path
             style="opacity:0.31000001;fill:#00ff00"
             id="path14670"
             d="M 19.96,1005.6422 L 19.96,997.32218 C 19.96,991.81218 15.49,987.34218 9.9800005,987.34218 C 4.47,987.34218 -3.4815443e-08,991.81218 -3.4815443e-08,997.32218 L -3.4815443e-08,1016.5322 C 2.08,1018.8522 5.77,1020.4122 9.9800005,1020.4122 C 16.49,1020.4122 21.76,1016.7222 21.76,1012.1622 L 21.76,1010.0122 C 21.77,1008.4122 21.1,1006.9122 19.96,1005.6422 z" />
          <path
             style="opacity:0.5;fill:#e6e6e6"
             id="path14679"
             d="M 19.96,1005.6422 L 19.96,997.32218 C 19.96,991.81218 15.49,987.34218 9.9800005,987.34218 C 4.47,987.34218 -3.4815443e-08,991.81218 -3.4815443e-08,997.32218 L -3.4815443e-08,1016.5322 C 2.0800005,1018.8522 5.7700005,1020.4122 9.9800005,1020.4122 C 16.49,1020.4122 21.76,1016.7222 21.76,1012.1622 L 21.76,1010.0122 C 21.77,1008.4122 21.1,1006.9122 19.96,1005.6422 z" />
          <path
             style="opacity:0.9;fill:#d1d1d1"
             id="path14686"
             d="M 19.96,1005.6422 L 19.96,1010.0122 C 19.96,1013.8722 15.49,1016.9922 9.98,1016.9922 C 4.47,1016.9922 -2.8421709e-14,1013.8622 -2.8421709e-14,1010.0122 L -2.8421709e-14,1014.3822 L -2.8421709e-14,1016.5322 C 2.08,1018.8522 5.77,1020.4122 9.98,1020.4122 C 16.49,1020.4122 21.76,1016.7222 21.76,1012.1622 L 21.76,1010.0122 C 21.77,1008.4122 21.1,1006.9122 19.96,1005.6422 z" />
          <path
             style="opacity:0.7;fill:#00ff00"
             id="path14695"
             d="M 19.96,1005.6422 L 19.96,1010.0122 C 19.96,1013.8722 15.49,1016.9922 9.98,1016.9922 C 4.47,1016.9922 -2.8421709e-14,1013.8622 -2.8421709e-14,1010.0122 L -2.8421709e-14,1014.3822 L -2.8421709e-14,1016.5322 C 2.08,1018.8522 5.77,1020.4122 9.98,1020.4122 C 16.49,1020.4122 21.76,1016.7222 21.76,1012.1622 L 21.76,1010.0122 C 21.77,1008.4122 21.1,1006.9122 19.96,1005.6422 z" />
          <path
             style="opacity:0.23999999"
             id="path14704"
             d="M 19.96,1005.6422 L 19.96,1010.0122 C 19.96,1013.8722 15.49,1016.9922 9.98,1016.9922 C 4.47,1016.9922 -2.8421709e-14,1013.8622 -2.8421709e-14,1010.0122 L -2.8421709e-14,1014.3822 C 2.08,1016.7022 5.77,1018.2622 9.98,1018.2622 C 16.49,1018.2622 21.76,1014.5722 21.76,1010.0122 C 21.77,1008.4122 21.1,1006.9122 19.96,1005.6422 z" />
          <g
             id="g14731"
             transform="translate(-200.11,887.36218)">
            <polygon
               style="fill:#666666"
               id="polygon14733"
               points="203.22,113.56 203.22,122.65 204.62,122.65 204.62,118.41 208.59,118.41 214.22,112.37 204.92,112.37 203.22,113.56 " />
            <polygon
               style="fill:#666666"
               id="polygon14735"
               points="215.29,111.98 215.91,112.69 210.55,118.41 215.69,118.41 215.69,122.65 216.98,122.65 216.98,111.98 215.29,111.98 " />
          </g>
          <path
             sodipodi:nodetypes="ccsccsccc"
             style="opacity:0.65;fill:#00b130;fill-opacity:1"
             id="path14758"
             d="M 19.959995,1005.6422 L 19.959995,997.32218 C 19.959995,991.81218 15.489995,987.34218 9.9799955,987.34218 C 4.469997,987.34218 -2.0348154e-06,991.81218 -2.0348154e-06,997.32218 L -2.0348154e-06,1016.5322 C 2.0799975,1018.8522 5.7699965,1020.4122 9.9799955,1020.4122 C 16.489995,1020.4122 21.759995,1016.7222 21.759995,1012.1622 L 21.759995,1010.0122 C 21.769995,1008.4122 21.099995,1006.9122 19.959995,1005.6422 z" />
          <path
             style="opacity:0.5;fill:#ffffff"
             id="path14765"
             d="M 14.64,992.62218 L 16.67,992.24218 C 15.49,990.64218 13.74,989.48218 11.69,989.09218 L 12.04,990.61218 C 13.1,990.99218 14.01,991.71218 14.64,992.62218 z" />
          <path
             style="opacity:0.5;fill:#ffffff"
             id="path14767"
             d="M 1.09,1015.3922 L 1.09,1017.5422 C 2.01,1018.2822 3.1,1018.9122 4.34,1019.3922 L 4.34,1017.2422 C 3.1,1016.7722 2.01,1016.1422 1.09,1015.3922 z" />
          <path
             style="opacity:0.5;fill:#ffffff"
             id="path14795"
             d="M 15.6,1015.7922 C 15.24,1015.9622 14.85,1016.1122 14.46,1016.2522 C 14.38,1016.2822 14.29,1016.3122 14.21,1016.3322 C 13.42,1016.5922 12.57,1016.7822 11.68,1016.8822 C 11.57,1016.8922 11.47,1016.9022 11.36,1016.9122 C 10.91,1016.9522 10.46,1016.9822 9.99,1016.9822 C 9.78,1016.9822 9.56,1016.9722 9.33,1016.9522 C 7.63,1016.8722 6.05,1016.5122 4.69,1015.9122 L 4.69,1004.1022 L 4.69,997.31218 C 4.69,995.24218 5.88,993.47218 7.61,992.59218 L 7.58,992.52218 L 5.82,990.39218 C 3.47,991.81218 1.89,994.36218 1.89,997.31218 L 1.89,1014.0722 C 1.82,1014.0022 1.45,1013.6422 1.22,1013.3322 L 0.79,1014.3022 C 2.77,1016.3922 6.15,1017.7722 10,1017.7722 C 12.37,1017.7722 14.55,1017.2522 16.35,1016.3622 L 15.6,1015.7922 C 15.6,1015.7922 15.6,1015.7922 15.6,1015.7922 z" />
        </g>
      </g>
    </g>
  </g>
</svg>
