<?xml version="1.0" encoding="utf-8"?>
<!-- Generator: Adobe Illustrator 14.0.0, SVG Export Plug-In . SVG Version: 6.00 Build 43363)  -->
<!DOCTYPE svg PUBLIC "-//W3C//DTD SVG 1.1//EN" "http://www.w3.org/Graphics/SVG/1.1/DTD/svg11.dtd">
<svg version="1.1" id="Layer_1" xmlns="http://www.w3.org/2000/svg" xmlns:xlink="http://www.w3.org/1999/xlink" x="0px" y="0px"
	 width="32px" height="32px" viewBox="0 0 32 32" enable-background="new 0 0 32 32" xml:space="preserve">
<polyline opacity="0.24" enable-background="new    " points="3.452,3.029 27.187,3.039 30.298,6.152 30.293,29.871 3.452,29.871 
	3.452,3.257 "/>
<polyline opacity="0.5" fill="#CCCCCC" enable-background="new    " points="2.338,1.912 26.073,1.922 29.188,5.035 29.185,6.805 
	29.181,28.753 2.338,28.753 2.338,2.14 "/>
<g id="breadboard">
	<g>
		<rect id="connector3terminal" x="5.692" y="6.382" fill="#8C8C8C" width="4.473" height="2.24"/>
		<rect id="connector2terminal" x="23.588" y="6.385" fill="#8C8C8C" width="4.474" height="2.239"/>
		<rect id="connector1terminal" x="23.588" y="24.278" fill="#8C8C8C" width="4.474" height="2.239"/>
		<rect id="connector0terminal" x="5.692" y="24.278" fill="#8C8C8C" width="4.473" height="2.239"/>
		<rect id="connector3pin" x="5.692" y="6.382" fill="#8C8C8C" width="4.473" height="2.24"/>
		<rect id="connector2pin" x="23.588" y="6.385" fill="#8C8C8C" width="4.474" height="2.239"/>
		<rect id="connector1pin" x="23.588" y="24.278" fill="#8C8C8C" width="4.474" height="2.239"/>
		<rect id="connector0pin" x="5.692" y="24.278" fill="#8C8C8C" width="4.473" height="2.239"/>
		<rect x="5.692" y="6.382" fill="#8C8C8C" width="4.473" height="2.24"/>
		<rect x="23.588" y="6.385" fill="#8C8C8C" width="4.474" height="2.239"/>
		<rect x="23.588" y="24.278" fill="#8C8C8C" width="4.474" height="2.239"/>
		<rect x="5.692" y="24.278" fill="#8C8C8C" width="4.473" height="2.239"/>
		<circle fill="#8C8C8C" cx="16.877" cy="16.409" r="4.432"/>
		<path fill="#8C8C8C" d="M9.046,9.741V7.503H6.811l0.46,7.26l2.237,1.118v1.119h1.119v-2.237
			C10.626,14.762,9.046,9.741,9.046,9.741z M8.488,13.094c-0.311,0-0.56-0.25-0.56-0.558c0-0.311,0.251-0.561,0.56-0.561
			s0.558,0.25,0.558,0.561C9.046,12.845,8.796,13.094,8.488,13.094z"/>
		<path fill="#8C8C8C" d="M9.508,17.001l-2.237,1.116l-0.46,7.28h2.238v-3.354l1.578-2.807v-2.238H9.508V17.001z M8.488,20.926
			c-0.311,0-0.56-0.25-0.56-0.559c0-0.311,0.251-0.558,0.56-0.558s0.558,0.247,0.558,0.558C9.046,20.673,8.796,20.926,8.488,20.926z
			"/>
		<path fill="#8C8C8C" d="M20.692,17.001l-2.236,2.236l6.25,2.808v3.354h2.237l-0.659-7.28L20.692,17.001z M25.265,20.926
			c-0.311,0-0.559-0.25-0.559-0.559c0-0.311,0.252-0.558,0.559-0.558c0.309,0,0.559,0.247,0.559,0.558
			C25.823,20.673,25.573,20.926,25.265,20.926z"/>
		<path fill="#8C8C8C" d="M24.706,7.503v3.354l-6.25,2.788l2.236,2.237l5.592-1.118l0.659-7.26H24.706z M25.265,13.096
			c-0.311,0-0.559-0.249-0.559-0.559c0-0.308,0.252-0.558,0.559-0.558c0.309,0,0.559,0.25,0.559,0.558
			C25.823,12.847,25.573,13.096,25.265,13.096z"/>
	</g>
	<circle fill="#FF0000" cx="15.66" cy="16.442" r="1.678"/>
	
		<circle opacity="0.5" fill="#FF0000" stroke="#FFFFFF" stroke-width="0.6214" enable-background="new    " cx="15.9" cy="15.473" r="8.807"/>
	<path opacity="0.6" fill="#FFFFFF" enable-background="new    " d="M14.611,10.174c0.413-0.1,0.845-0.153,1.289-0.153
		c0.376,0,0.743,0.036,1.097,0.11l0.451-2.193c-0.5-0.102-1.02-0.156-1.548-0.156c-0.563,0-1.449,0.104-1.977,0.219L14.611,10.174z
		 M12.406,8.622c-2.49,1.272-4.194,3.862-4.194,6.851c0,0.514,0.051,1.017,0.147,1.503l2.186-0.49
		c-0.063-0.328-0.094-0.666-0.094-1.013c0-2.049,1.131-3.837,2.806-4.768L12.406,8.622z"/>
	<polygon opacity="0.24" enable-background="new    " points="2.338,28.753 3.452,29.871 30.293,29.871 30.298,6.152 29.188,5.035 
		29.181,28.753 	"/>
</g>
</svg>
