<?xml version="1.0" encoding="utf-8"?>
<!-- Generator: Adobe Illustrator 14.0.0, SVG Export Plug-In . SVG Version: 6.00 Build 43363)  -->
<!DOCTYPE svg PUBLIC "-//W3C//DTD SVG 1.1//EN" "http://www.w3.org/Graphics/SVG/1.1/DTD/svg11.dtd">
<svg version="1.1" id="Layer_1" xmlns="http://www.w3.org/2000/svg" xmlns:xlink="http://www.w3.org/1999/xlink" x="0px" y="0px"
	 width="32px" height="32px" viewBox="0 0 32 32" enable-background="new 0 0 32 32" xml:space="preserve">
<polyline opacity="0.24" enable-background="new    " points="3.009,2.987 26.573,2.997 29.663,6.089 29.658,29.639 3.009,29.639 
	3.009,3.214 "/>
<polyline opacity="0.5" fill="#CCCCCC" enable-background="new    " points="1.903,1.879 25.469,1.889 28.561,4.98 28.558,6.736 
	28.553,28.527 1.903,28.527 1.903,2.105 "/>
<g id="breadboard">
	<g>
		<rect id="connector3terminal" x="5.233" y="6.317" fill="#8C8C8C" width="4.441" height="2.224"/>
		<rect id="connector2terminal" x="23.001" y="6.32" fill="#8C8C8C" width="4.441" height="2.222"/>
		<rect id="connector1terminal" x="23.001" y="24.086" fill="#8C8C8C" width="4.441" height="2.222"/>
		<rect id="connector0terminal" x="5.233" y="24.086" fill="#8C8C8C" width="4.441" height="2.222"/>
		<rect id="connector3pin" x="5.233" y="6.317" fill="#8C8C8C" width="4.441" height="2.224"/>
		<rect id="connector2pin" x="23.001" y="6.32" fill="#8C8C8C" width="4.441" height="2.222"/>
		<rect id="connector1pin" x="23.001" y="24.086" fill="#8C8C8C" width="4.441" height="2.222"/>
		<rect id="connector0pin" x="5.233" y="24.086" fill="#8C8C8C" width="4.441" height="2.222"/>
		<rect x="5.233" y="6.317" fill="#8C8C8C" width="4.441" height="2.224"/>
		<rect x="23.001" y="6.32" fill="#8C8C8C" width="4.441" height="2.222"/>
		<rect x="23.001" y="24.086" fill="#8C8C8C" width="4.441" height="2.222"/>
		<rect x="5.233" y="24.086" fill="#8C8C8C" width="4.441" height="2.222"/>
		<circle fill="#8C8C8C" cx="16.337" cy="16.271" r="4.4"/>
		<path fill="#8C8C8C" d="M8.563,9.651V7.43H6.344l0.457,7.208l2.221,1.111v1.111h1.111v-2.222L8.563,9.651z M8.009,12.981
			c-0.309,0-0.556-0.247-0.556-0.553c0-0.308,0.25-0.557,0.556-0.557s0.554,0.249,0.554,0.557
			C8.563,12.734,8.315,12.981,8.009,12.981z"/>
		<path fill="#8C8C8C" d="M9.021,16.859l-2.221,1.108l-0.457,7.229h2.222v-3.331l1.566-2.788v-2.222H9.021V16.859z M8.009,20.756
			c-0.309,0-0.556-0.248-0.556-0.555c0-0.309,0.25-0.554,0.556-0.554s0.554,0.245,0.554,0.554
			C8.563,20.505,8.315,20.756,8.009,20.756z"/>
		<path fill="#8C8C8C" d="M20.126,16.859l-2.221,2.222l6.205,2.785v3.331h2.222l-0.654-7.228L20.126,16.859z M24.666,20.756
			c-0.309,0-0.556-0.248-0.556-0.555c0-0.309,0.251-0.554,0.556-0.554c0.306,0,0.554,0.245,0.554,0.554
			C25.22,20.505,24.972,20.756,24.666,20.756z"/>
		<path fill="#8C8C8C" d="M24.11,7.43v3.33l-6.205,2.768l2.221,2.221l5.552-1.111l0.654-7.208H24.11z M24.666,12.982
			c-0.309,0-0.556-0.246-0.556-0.555c0-0.306,0.251-0.554,0.556-0.554c0.306,0,0.554,0.249,0.554,0.554
			C25.22,12.736,24.972,12.982,24.666,12.982z"/>
	</g>
	<circle fill="#FFFFFF" cx="15.129" cy="16.305" r="1.665"/>
	
		<circle opacity="0.5" fill="#E6E6E6" stroke="#FFFFFF" stroke-width="0.6169" enable-background="new    " cx="15.368" cy="15.342" r="8.744"/>
	<path opacity="0.6" fill="#FFFFFF" enable-background="new    " d="M14.088,10.082c0.41-0.099,0.839-0.152,1.28-0.152
		c0.374,0,0.737,0.036,1.089,0.11l0.448-2.178c-0.497-0.101-1.012-0.154-1.538-0.154c-0.559,0-1.438,0.104-1.963,0.218
		L14.088,10.082z M11.899,8.541c-2.473,1.263-4.165,3.834-4.165,6.802c0,0.511,0.051,1.01,0.146,1.492l2.17-0.486
		c-0.062-0.325-0.094-0.66-0.094-1.005c0-2.034,1.123-3.81,2.786-4.734L11.899,8.541z"/>
	<polygon opacity="0.24" enable-background="new    " points="1.903,28.527 3.009,29.639 29.658,29.639 29.663,6.089 28.561,4.98 
		28.553,28.527 	"/>
</g>
</svg>
