<?xml version="1.0" encoding="utf-8"?>
<!-- Generator: Adobe Illustrator 14.0.0, SVG Export Plug-In . SVG Version: 6.00 Build 43363)  -->
<!DOCTYPE svg PUBLIC "-//W3C//DTD SVG 1.1//EN" "http://www.w3.org/Graphics/SVG/1.1/DTD/svg11.dtd">
<svg version="1.1" id="Layer_1" xmlns="http://www.w3.org/2000/svg" xmlns:xlink="http://www.w3.org/1999/xlink" x="0px" y="0px"
	 width="32px" height="32px" viewBox="0 0 32 32" enable-background="new 0 0 32 32" xml:space="preserve">
<polyline opacity="0.24" enable-background="new    " points="2.906,2.734 27.581,2.744 30.816,5.982 30.812,30.642 2.906,30.642 
	2.906,2.971 "/>
<polyline opacity="0.5" fill="#CCCCCC" enable-background="new    " points="1.748,1.573 26.425,1.584 29.662,4.82 29.659,6.66 
	29.654,29.479 1.748,29.479 1.748,1.81 "/>
<g id="breadboard">
	<g>
		<rect id="connector3terminal" x="5.235" y="6.221" fill="#8C8C8C" width="4.651" height="2.328"/>
		<rect id="connector2terminal" x="23.84" y="6.224" fill="#8C8C8C" width="4.651" height="2.327"/>
		<rect id="connector1terminal" x="23.84" y="24.827" fill="#8C8C8C" width="4.651" height="2.328"/>
		<rect id="connector0terminal" x="5.235" y="24.827" fill="#8C8C8C" width="4.651" height="2.328"/>
		<rect id="connector3pin" x="5.235" y="6.221" fill="#8C8C8C" width="4.651" height="2.328"/>
		<rect id="connector2pin" x="23.84" y="6.224" fill="#8C8C8C" width="4.651" height="2.327"/>
		<rect id="connector1pin" x="23.84" y="24.827" fill="#8C8C8C" width="4.651" height="2.328"/>
		<rect id="connector0pin" x="5.235" y="24.827" fill="#8C8C8C" width="4.651" height="2.328"/>
		<rect x="5.235" y="6.221" fill="#8C8C8C" width="4.651" height="2.328"/>
		<rect x="23.84" y="6.224" fill="#8C8C8C" width="4.651" height="2.327"/>
		<rect x="23.84" y="24.827" fill="#8C8C8C" width="4.651" height="2.328"/>
		<rect x="5.235" y="24.827" fill="#8C8C8C" width="4.651" height="2.328"/>
		<circle fill="#8C8C8C" cx="16.862" cy="16.645" r="4.608"/>
		<path fill="#8C8C8C" d="M8.723,9.712V7.386H6.398l0.478,7.548l2.326,1.163v1.164h1.163v-2.326
			C10.365,14.934,8.723,9.712,8.723,9.712z M8.142,13.199c-0.323,0-0.582-0.259-0.582-0.58c0-0.323,0.261-0.583,0.582-0.583
			s0.581,0.26,0.581,0.583C8.723,12.94,8.462,13.199,8.142,13.199z"/>
		<path fill="#8C8C8C" d="M9.202,17.261l-2.326,1.161L6.398,25.99h2.327v-3.487l1.64-2.918v-2.327H9.202V17.261z M8.142,21.341
			c-0.323,0-0.582-0.26-0.582-0.58c0-0.323,0.261-0.58,0.582-0.58s0.581,0.257,0.581,0.58C8.723,21.079,8.462,21.341,8.142,21.341z"
			/>
		<path fill="#8C8C8C" d="M20.83,17.261l-2.326,2.325l6.498,2.919v3.487h2.327l-0.686-7.569L20.83,17.261z M25.584,21.341
			c-0.323,0-0.582-0.26-0.582-0.58c0-0.323,0.263-0.58,0.582-0.58c0.32,0,0.58,0.257,0.58,0.58
			C26.164,21.079,25.904,21.341,25.584,21.341z"/>
		<path fill="#8C8C8C" d="M25.002,7.386v3.487l-6.498,2.898l2.326,2.325l5.813-1.163l0.686-7.548H25.002z M25.584,13.2
			c-0.323,0-0.582-0.258-0.582-0.581c0-0.32,0.263-0.58,0.582-0.58c0.32,0,0.58,0.26,0.58,0.58
			C26.164,12.942,25.904,13.2,25.584,13.2z"/>
	</g>
	<circle fill="#FFC200" cx="15.598" cy="16.68" r="1.744"/>
	
		<circle opacity="0.5" fill="#FFC200" stroke="#FFFFFF" stroke-width="0.646" enable-background="new    " cx="15.848" cy="15.672" r="9.157"/>
	<path opacity="0.6" fill="#FFFFFF" enable-background="new    " d="M14.508,10.163c0.429-0.103,0.878-0.159,1.34-0.159
		c0.391,0,0.771,0.037,1.14,0.115l0.47-2.281c-0.52-0.106-1.059-0.161-1.609-0.161c-0.585,0-1.507,0.108-2.056,0.228L14.508,10.163z
		 M12.215,8.549c-2.589,1.323-4.36,4.016-4.36,7.123c0,0.535,0.053,1.058,0.152,1.563l2.272-0.509
		c-0.065-0.341-0.098-0.692-0.098-1.053c0-2.13,1.176-3.99,2.917-4.958L12.215,8.549z"/>
	<polygon opacity="0.24" enable-background="new    " points="1.748,29.479 2.906,30.642 30.812,30.642 30.816,5.982 29.662,4.82 
		29.654,29.479 	"/>
</g>
</svg>
