<?xml version="1.0" encoding="utf-8"?>
<!-- Generator: Adobe Illustrator 14.0.0, SVG Export Plug-In . SVG Version: 6.00 Build 43363)  -->
<!DOCTYPE svg PUBLIC "-//W3C//DTD SVG 1.1//EN" "http://www.w3.org/Graphics/SVG/1.1/DTD/svg11.dtd">
<svg version="1.1" id="Layer_1" xmlns="http://www.w3.org/2000/svg" xmlns:xlink="http://www.w3.org/1999/xlink" x="0px" y="0px"
	 width="32px" height="32px" viewBox="0 0 32 32" enable-background="new 0 0 32 32" xml:space="preserve">
<polyline opacity="0.24" enable-background="new    " points="2.924,2.576 27.192,2.586 30.374,5.77 30.369,30.021 2.924,30.021 
	2.924,2.81 "/>
<polyline opacity="0.5" fill="#CCCCCC" enable-background="new    " points="1.786,1.435 26.055,1.445 29.238,4.628 29.235,6.437 
	29.23,28.878 1.786,28.878 1.786,1.667 "/>
<g id="breadboard">
	<g>
		<rect id="connector3terminal" x="5.215" y="6.005" fill="#8C8C8C" width="4.574" height="2.29"/>
		<rect id="connector2terminal" x="23.513" y="6.008" fill="#8C8C8C" width="4.574" height="2.289"/>
		<rect id="connector1terminal" x="23.513" y="24.303" fill="#8C8C8C" width="4.574" height="2.29"/>
		<rect id="connector0terminal" x="5.215" y="24.303" fill="#8C8C8C" width="4.574" height="2.29"/>
		<rect id="connector3pin" x="5.215" y="6.005" fill="#8C8C8C" width="4.574" height="2.29"/>
		<rect id="connector2pin" x="23.513" y="6.008" fill="#8C8C8C" width="4.574" height="2.289"/>
		<rect id="connector1pin" x="23.513" y="24.303" fill="#8C8C8C" width="4.574" height="2.29"/>
		<rect id="connector0pin" x="5.215" y="24.303" fill="#8C8C8C" width="4.574" height="2.29"/>
		<rect x="5.215" y="6.005" fill="#8C8C8C" width="4.574" height="2.29"/>
		<rect x="23.513" y="6.008" fill="#8C8C8C" width="4.574" height="2.289"/>
		<rect x="23.513" y="24.303" fill="#8C8C8C" width="4.574" height="2.29"/>
		<rect x="5.215" y="24.303" fill="#8C8C8C" width="4.574" height="2.29"/>
		<circle fill="#8C8C8C" cx="16.651" cy="16.257" r="4.531"/>
		<path fill="#8C8C8C" d="M8.646,9.439V7.151H6.359l0.471,7.423l2.288,1.144v1.144h1.144v-2.288
			C10.261,14.573,8.646,9.439,8.646,9.439z M8.074,12.868c-0.316,0-0.572-0.255-0.572-0.57c0-0.318,0.257-0.573,0.572-0.573
			c0.315,0,0.572,0.255,0.572,0.573C8.646,12.613,8.39,12.868,8.074,12.868z"/>
		<path fill="#8C8C8C" d="M9.117,16.862L6.83,18.003l-0.47,7.444h2.287v-3.43l1.614-2.87v-2.288H9.117V16.862z M8.074,20.875
			c-0.316,0-0.572-0.256-0.572-0.571c0-0.317,0.257-0.57,0.572-0.57c0.315,0,0.572,0.253,0.572,0.57
			C8.646,20.616,8.39,20.875,8.074,20.875z"/>
		<path fill="#8C8C8C" d="M20.553,16.862l-2.287,2.286l6.391,2.87v3.43h2.288l-0.674-7.443L20.553,16.862z M25.228,20.875
			c-0.317,0-0.571-0.256-0.571-0.571c0-0.317,0.258-0.57,0.571-0.57c0.315,0,0.571,0.253,0.571,0.57
			C25.799,20.616,25.543,20.875,25.228,20.875z"/>
		<path fill="#8C8C8C" d="M24.656,7.151v3.43l-6.391,2.85l2.287,2.287l5.718-1.144l0.674-7.423H24.656z M25.228,12.869
			c-0.317,0-0.571-0.254-0.571-0.571c0-0.315,0.258-0.571,0.571-0.571c0.315,0,0.571,0.255,0.571,0.571
			C25.799,12.615,25.543,12.869,25.228,12.869z"/>
	</g>
	<circle fill="#FFFF00" cx="15.406" cy="16.291" r="1.715"/>
	
		<circle opacity="0.5" fill="#FFFF00" stroke="#FFFFFF" stroke-width="0.6353" enable-background="new    " cx="15.652" cy="15.3" r="9.005"/>
	<path opacity="0.6" fill="#FFFFFF" enable-background="new    " d="M14.334,9.882c0.422-0.102,0.863-0.156,1.318-0.156
		c0.384,0,0.759,0.037,1.121,0.113l0.462-2.243c-0.511-0.104-1.042-0.159-1.583-0.159c-0.576,0-1.482,0.107-2.022,0.224
		L14.334,9.882z M12.079,8.295C9.534,9.596,7.792,12.244,7.792,15.3c0,0.526,0.052,1.04,0.149,1.537l2.234-0.5
		c-0.064-0.335-0.097-0.68-0.097-1.035c0-2.095,1.158-3.924,2.87-4.875L12.079,8.295z"/>
	<polygon opacity="0.24" enable-background="new    " points="1.786,28.878 2.924,30.021 30.369,30.021 30.374,5.77 29.238,4.628 
		29.23,28.878 	"/>
</g>
</svg>
