<?xml version="1.0" encoding="utf-8"?>
<!DOCTYPE svg PUBLIC "-//W3C//DTD SVG 1.1 Basic//EN" "http://www.w3.org/Graphics/SVG/1.1/DTD/svg11-basic.dtd">
<svg version="1.1" baseProfile="basic"
	 id="svg" xmlns:sodipodi="http://sodipodi.sourceforge.net/DTD/sodipodi-0.dtd" sodipodi:docname="dc_motor.svg" xmlns:inkscape="http://www.inkscape.org/namespaces/inkscape" xmlns:rdf="http://www.w3.org/1999/02/22-rdf-syntax-ns#" xmlns:dc="http://purl.org/dc/elements/1.1/" xmlns:cc="http://creativecommons.org/ns#" sodipodi:version="0.32" xmlns:svg="http://www.w3.org/2000/svg" inkscape:version="0.46" inkscape:output_extension="org.inkscape.output.svg.inkscape"
	 xmlns="http://www.w3.org/2000/svg" xmlns:xlink="http://www.w3.org/1999/xlink" x="0px" y="0px" width="32px" height="32px"
	 viewBox="0 0 32 32" xml:space="preserve">
<g id="icon">
	<g>
		<polygon fill="#254E89" points="29.445,9.802 29.445,4.304 1.997,4.304 1.997,9.802 2.556,9.802 2.556,14.27 1.997,14.27 
			1.997,25.997 29.445,25.997 29.445,14.27 30.003,14.27 30.003,9.802 		"/>
	</g>
	<rect x="2.244" y="4.631" fill="#456DAB" width="26.987" height="0.793"/>
	<g>
		<g>
			<path fill="#3A5C8E" d="M8.863,15.589c2.668,0,4.841-2.169,4.841-4.841H4.02C4.018,13.422,6.188,15.589,8.863,15.589z"/>
			<path fill="#123C66" d="M8.863,5.909c-2.672,0-4.843,2.171-4.843,4.839h9.685C13.704,8.076,11.535,5.909,8.863,5.909z"/>
		</g>
		<g>
			<g>
				<path fill="#8B8B8B" d="M8.863,14.675c-2.169,0-3.929-1.762-3.929-3.931c0-2.165,1.76-3.929,3.929-3.929
					c2.167,0,3.929,1.762,3.929,3.929C12.79,12.913,11.028,14.675,8.863,14.675L8.863,14.675z"/>
				<path d="M8.863,6.892c2.129,0,3.852,1.727,3.852,3.853c0,2.127-1.723,3.854-3.852,3.854c-2.129,0-3.855-1.726-3.855-3.854
					C5.006,8.619,6.732,6.892,8.863,6.892 M8.863,6.751c-2.205,0-4.001,1.793-4.001,3.998c0,2.205,1.793,4.003,4.001,4.003
					c2.201,0,4-1.792,4-4.003C12.861,8.545,11.066,6.751,8.863,6.751L8.863,6.751z"/>
			</g>
			<g>
				<path fill="#707070" d="M5.123,9.843c-0.07,0.291-0.117,0.596-0.117,0.906c0,0.314,0.047,0.614,0.117,0.913h7.475
					c0.071-0.292,0.118-0.594,0.118-0.913c0-0.31-0.044-0.609-0.118-0.906H5.123z"/>
			</g>
			<g>
				<rect x="7.953" y="7.481" fill="#545252" width="1.815" height="6.533"/>
				<rect x="6.004" y="9.843" fill="#545252" width="5.716" height="1.812"/>
			</g>
			<g opacity="0.5">
				<path d="M8.863,7.21c1.946,0,3.534,1.588,3.534,3.534c0,1.95-1.588,3.536-3.534,3.536c-1.951,0-3.538-1.588-3.538-3.536
					C5.323,8.798,6.91,7.21,8.863,7.21 M8.863,6.892c-2.129,0-3.855,1.727-3.855,3.853c0,2.127,1.726,3.854,3.855,3.854
					c2.129,0,3.852-1.726,3.852-3.854C12.718,8.619,10.992,6.892,8.863,6.892L8.863,6.892z"/>
			</g>
		</g>
	</g>
	<g>
		<path fill="#3A5C8E" d="M22.581,15.589c2.673,0,4.842-2.169,4.842-4.841h-9.685C17.738,13.422,19.906,15.589,22.581,15.589z"/>
		<path fill="#123C66" d="M22.581,5.909c-2.668,0-4.843,2.171-4.843,4.839h9.685C27.423,8.076,25.254,5.909,22.581,5.909z"/>
	</g>
	<g>
		<g>
			<path fill="#8B8B8B" d="M22.581,14.675c-2.167,0-3.928-1.762-3.928-3.931c0-2.165,1.761-3.929,3.928-3.929
				c2.17,0,3.929,1.762,3.929,3.929C26.509,12.913,24.747,14.675,22.581,14.675L22.581,14.675z"/>
			<path d="M22.581,6.892c2.129,0,3.854,1.727,3.854,3.853c0,2.127-1.726,3.854-3.854,3.854c-2.125,0-3.852-1.726-3.852-3.854
				C18.723,8.619,20.452,6.892,22.581,6.892 M22.581,6.751c-2.199,0-4,1.793-4,3.998c0,2.205,1.791,4.003,4,4.003
				c2.208,0,4.002-1.792,4.002-4.003C26.576,8.545,24.785,6.751,22.581,6.751L22.581,6.751z"/>
		</g>
		<g>
			<path fill="#707070" d="M18.843,9.843c-0.068,0.291-0.117,0.596-0.117,0.906c0,0.314,0.043,0.614,0.117,0.913h7.479
				c0.066-0.292,0.117-0.594,0.117-0.913c0-0.31-0.047-0.609-0.117-0.906H18.843z"/>
		</g>
		<g>
			<rect x="21.673" y="7.481" fill="#545252" width="1.815" height="6.533"/>
			<rect x="19.728" y="9.843" fill="#545252" width="5.71" height="1.812"/>
		</g>
		<g opacity="0.5">
			<path d="M22.581,7.21c1.95,0,3.538,1.588,3.538,3.534c0,1.95-1.588,3.536-3.538,3.536c-1.947,0-3.535-1.588-3.535-3.536
				C19.039,8.798,20.629,7.21,22.581,7.21 M22.581,6.892c-2.125,0-3.852,1.727-3.852,3.853c0,2.127,1.727,3.854,3.852,3.854
				c2.129,0,3.854-1.726,3.854-3.854C26.436,8.619,24.71,6.892,22.581,6.892L22.581,6.892z"/>
		</g>
	</g>
	<rect x="1.997" y="16.157" fill="#123C66" width="27.448" height="9.839"/>
	<g>
		<rect x="4.018" y="17.238" fill="#103656" width="9.687" height="3.875"/>
		<rect x="4.018" y="21.114" fill="#254E89" width="9.687" height="4.021"/>
		<rect x="6.491" y="21.164" fill="#254E89" width="4.743" height="4.828"/>
		<rect x="4.415" y="17.576" fill="#8D8C8C" width="8.898" height="7.278"/>
		<path fill="#A0A0A0" d="M8.863,24.428c2.11,0,3.827-1.251,3.827-2.802H5.028C5.032,23.177,6.747,24.428,8.863,24.428z"/>
		<path fill="#565656" d="M8.863,18.837c-2.114,0-3.834,1.25-3.834,2.796h7.661C12.688,20.087,10.977,18.837,8.863,18.837z"/>
		<ellipse fill="#383838" cx="8.861" cy="21.633" rx="2.97" ry="2.168"/>
		<g>
			<polygon fill="#919291" points="6.316,20.335 5.055,18.568 4.415,18.519 4.534,17.525 13.313,17.648 13.189,18.64 12.777,18.519 
				11.381,20.335 			"/>
			<g>
				<path fill="#57585A" d="M13.067,17.771v0.627h-0.286h-0.125l-0.07,0.099l-1.263,1.717H6.439l-1.286-1.719L5.08,18.397H4.96h-0.3
					v-0.627H13.067 M13.313,17.525H4.415v1.114h0.543l1.358,1.815h5.124l1.335-1.815h0.532L13.313,17.525L13.313,17.525z"/>
			</g>
		</g>
		<rect x="6.866" y="24.827" fill="#8C8C8C" width="3.992" height="2.869"/>
	</g>
	<g>
		<rect x="17.745" y="17.238" fill="#103656" width="9.687" height="3.875"/>
		<rect x="17.745" y="21.114" fill="#254E89" width="9.687" height="4.021"/>
		<rect x="20.213" y="21.164" fill="#254E89" width="4.742" height="4.828"/>
		<rect x="18.141" y="17.576" fill="#8D8C8C" width="8.892" height="7.278"/>
		<path fill="#A0A0A0" d="M22.586,24.428c2.111,0,3.831-1.251,3.831-2.802h-7.661C18.758,23.177,20.47,24.428,22.586,24.428z"/>
		<path fill="#565656" d="M22.586,18.837c-2.113,0-3.83,1.25-3.83,2.796h7.661C26.414,20.087,24.698,18.837,22.586,18.837z"/>
		<ellipse fill="#383838" cx="22.589" cy="21.633" rx="2.966" ry="2.168"/>
		<g>
			<polygon fill="#919291" points="20.041,20.335 18.781,18.568 18.141,18.519 18.263,17.525 27.032,17.648 26.908,18.64 
				26.503,18.519 25.109,20.335 			"/>
			<g>
				<path fill="#57585A" d="M26.789,17.771v0.627h-0.28h-0.12l-0.074,0.099l-1.255,1.717h-4.889l-1.29-1.719l-0.074-0.097h-0.119
					h-0.294v-0.627H26.789 M27.032,17.525h-8.892v1.114h0.535l1.361,1.815h5.126l1.336-1.815h0.521L27.032,17.525L27.032,17.525z"/>
			</g>
		</g>
		<rect x="20.589" y="24.827" fill="#8C8C8C" width="3.999" height="2.869"/>
	</g>
</g>
</svg>
