/* XPM */ 
static const unsigned char * fritzing_xpm[] = {
"48 48 10 1",
" 	c None",
"!	c black",
"#	c #AD4747",
"$	c #7F0000",
"%	c #B53434",
"&	c white",
"'	c #800303",
"(	c #7F0101",
")	c #840A0A",
"*	c #800202",
"                                                ",
"                                                ",
"                                                ",
"                                                ",
"                                                ",
"                                                ",
"                                                ",
"                                                ",
"                                                ",
"                                                ",
"                                                ",
"                                                ",
"                                                ",
"                                                ",
"                                                ",
"                                                ",
"                 ##############                 ",
"                #$$$$$$$$$$$$$$#                ",
"                #$$$$$$$$$$$$$$#                ",
"                #$$$$$%&&&&&$$$#                ",
"                #$$'$%&&&&&&$$$#                ",
"                #$$(%&&&&&$)$$$#                ",
"                #$$$&&&&&&&&$$$#                ",
"                #$$$&&&&&&&&$$$#                ",
"                #$$$&&&&&&&&$$$#                ",
"                #$$$&&&&$$$$$$$#                ",
"                #$$$&&&&$$$$$$$#                ",
"                #$$$&&&&$$$$$$$#                ",
"                #$$$&&&&$$$$$$#                 ",
"                #$$*$$$$$$$$$#                  ",
"                #$$$$$$$$$$$#                   ",
"                 ###########                    ",
"                                                ",
"                                                ",
"                                                ",
"                                                ",
"                                                ",
"                                                ",
"                                                ",
"                                                ",
"                                                ",
"                                                ",
"                                                ",
"                                                ",
"                                                ",
"                                                ",
"                                                ",
"                                                "};