/* XPM */ 
static const unsigned char * fritzing_xpm[] = {
"48 48 7 1",
" 	c None",
"!	c black",
"#	c #7B0000",
"$	c #7B007B",
"%	c #7B7B7B",
"&	c #BDBDBD",
"'	c white",
"  !########!!!!!!!!!!!!!!!!!##!!!!!!!!!!!!#!#!  ",
" #$$$$$$$$%#################%%############$$$$! ",
" $$$$$$%%$#################$#$$###########$%$$# ",
" $$$$%$$$$################$%##$############$#$$ ",
" %$$$%%&$$#####$$#########$$$#$%###########$#$$ ",
" $$$%%%%$$###################$$%%$#########$#$$ ",
" $$$$$$$$###$%###############$#$%%##$$#####$$$% ",
" $$$%$$$$###$$################$$$#$$$$###$%$$$$ ",
" $$$$$$$####$##################$$$$$$$$##$%$$$$ ",
" $$$$$%$###$####&&&&&&&&&&&&&&&&&'''&$$$#$$$$$# ",
" $$$%%$$###$###&'''''''''''''''''''''$$$$##$$## ",
" $$$%%$###$###&''''''''''''''''''''''$$$%##$$## ",
" $$%$$$##$$##&'''''''''''''''''''''''$$$####### ",
" $$%%$###$##&''''''''''''''''''''''''$$#####$## ",
" $$$$$##$$#&'''''''''''''''''''''''''#$$##$$$## ",
" %%$$###$##''''''''''''''''''''''''''##$$####$# ",
" $%$$#$$$##''''''''''''''''''''''''''#########$ ",
" %$#$$$####''''''''''''''''''''&&&&&&######$### ",
" %$$#######''''''''''''''''''''%############### ",
" ##$#######''''''''''''''''''''%#############$$ ",
" ##$#######''''''''''''''''''''&%%%%%#########% ",
" #$########''''''''''''''''''''''''''########## ",
" #$########''''''''''''''''''''''''''#######$## ",
" ##########''''''''''''''''''''''''''#######$$# ",
" ##########''''''''''''''''''''''''''########$# ",
" ##########''''''''''''''''''''''''''########## ",
" ##########''''''''''''''''''''''''''#####$#### ",
" ##########''''''''''''''''''''''''''########## ",
" ##########''''''''''''''''''''''''''########## ",
" ##########''''''''''''''$##################### ",
" ##########''''''''''''''###############$###### ",
" ##########''''''''''''''##############$$$###$# ",
" ##########''''''''''''''$$############%$#####! ",
" ##########''''''''''''''##$$#########$$$##$#!  ",
" ##########''''''''''''''###$$########%$####!   ",
" ##########''''''''''''''$$################!    ",
" ##########''''''''''''''$$$##############!     ",
" ##########''''''''''''''$##$########$###!      ",
" ##########''''''''''''''###########$$##!       ",
" ##########''''''''''''''##############!        ",
" ##########&&&&&&&&&&&&&&$$###########!         ",
" ####################################!          ",
" ###################################!           ",
" ##################################!            ",
" #######################$#########!             ",
" !##################$############!              ",
"  !!!!!!!!!!!!##!!!!#####!!!!!!!!               ",
"                                                "};