<?xml version="1.0" encoding="UTF-8" standalone="no"?>
<svg
   xmlns:dc="http://purl.org/dc/elements/1.1/"
   xmlns:cc="http://creativecommons.org/ns#"
   xmlns:rdf="http://www.w3.org/1999/02/22-rdf-syntax-ns#"
   xmlns:svg="http://www.w3.org/2000/svg"
   xmlns="http://www.w3.org/2000/svg"
   xmlns:sodipodi="http://sodipodi.sourceforge.net/DTD/sodipodi-0.dtd"
   xmlns:inkscape="http://www.inkscape.org/namespaces/inkscape"
   version="1.0"
   baseProfile="tiny"
   x="0px"
   y="0px"
   width="32"
   height="32"
   xml:space="preserve"
   id="svg2"
   sodipodi:version="0.32"
   inkscape:version="0.46"
   sodipodi:docname="basic_elec_cap_5_icon.svg"
   inkscape:output_extension="org.inkscape.output.svg.inkscape"><metadata
   id="metadata59"><rdf:RDF><cc:Work
       rdf:about=""><dc:format>image/svg+xml</dc:format><dc:type
         rdf:resource="http://purl.org/dc/dcmitype/StillImage" /></cc:Work></rdf:RDF></metadata><defs
   id="defs57"><inkscape:perspective
     sodipodi:type="inkscape:persp3d"
     inkscape:vp_x="0 : 25.5 : 1"
     inkscape:vp_y="0 : 1000 : 0"
     inkscape:vp_z="24 : 25.5 : 1"
     inkscape:persp3d-origin="12 : 17 : 1"
     id="perspective61" /></defs><sodipodi:namedview
   inkscape:window-height="726"
   inkscape:window-width="908"
   inkscape:pageshadow="2"
   inkscape:pageopacity="0.0"
   guidetolerance="10.0"
   gridtolerance="10.0"
   objecttolerance="10.0"
   borderopacity="1.0"
   bordercolor="#666666"
   pagecolor="#ffffff"
   id="base"
   showgrid="false"
   inkscape:zoom="9.6862745"
   inkscape:cx="12"
   inkscape:cy="11.399794"
   inkscape:window-x="269"
   inkscape:window-y="25"
   inkscape:current-layer="svg2" />

<g
   id="icon"
   style="display:inline"
   transform="matrix(0.6370151,0,0,0.6370151,8.5,8.1926093e-4)">
  <g
   id="g5">
    <g
   id="g10001">
<rect
   x="5.5650001"
   y="39.890999"
   width="1.551"
   height="10.342"
   id="rect8"
   style="fill:#b3b3b3" />
<rect
   x="15.908"
   y="39.890999"
   width="1.551"
   height="10.342"
   id="rect10"
   style="fill:#b3b3b3" />
<ellipse
   cx="11.512"
   cy="37.137001"
   rx="11.511"
   ry="8.0579996"
   id="ellipse12"
   sodipodi:cx="11.512"
   sodipodi:cy="37.137001"
   sodipodi:rx="11.511"
   sodipodi:ry="8.0579996"
   style="fill:#0d0033" />
<rect
   y="35.494999"
   width="23.014"
   height="1.642"
   id="rect14"
   x="0"
   style="fill:#0d0033" />
<ellipse
   cx="11.512"
   cy="35.833"
   rx="11.511"
   ry="8.0579996"
   id="ellipse16"
   sodipodi:cx="11.512"
   sodipodi:cy="35.833"
   sodipodi:rx="11.511"
   sodipodi:ry="8.0579996"
   style="fill:#100040" />
<ellipse
   cx="11.512"
   cy="30.232"
   rx="11.511"
   ry="8.0579996"
   id="ellipse18"
   sodipodi:cx="11.512"
   sodipodi:cy="30.232"
   sodipodi:rx="11.511"
   sodipodi:ry="8.0579996"
   style="fill:#0d0033" />
<rect
   y="8.1789999"
   width="23.023001"
   height="22.052999"
   id="rect20"
   x="0"
   style="fill:#0d0033" />
<ellipse
   cx="11.512"
   cy="8.1789999"
   rx="11.511"
   ry="8.0579996"
   id="ellipse22"
   sodipodi:cx="11.512"
   sodipodi:cy="8.1789999"
   sodipodi:rx="11.511"
   sodipodi:ry="8.0579996"
   style="fill:#0d0033" />
<ellipse
   cx="11.512"
   cy="7.4650002"
   rx="10.663"
   ry="7.4650002"
   id="ellipse24"
   sodipodi:cx="11.512"
   sodipodi:cy="7.4650002"
   sodipodi:rx="10.663"
   sodipodi:ry="7.4650002"
   style="fill:#100040" />
<ellipse
   cx="11.512"
   cy="7.033"
   rx="7.8140001"
   ry="5.4710002"
   id="ellipse26"
   sodipodi:cx="11.512"
   sodipodi:cy="7.033"
   sodipodi:rx="7.8140001"
   sodipodi:ry="5.4710002"
   style="fill:#b2b2b2" />
<path
   d="M 2.248,3.396 C 0.837,4.733 0,6.388 0,8.179 L 0,12.631 L 1.54,12.631 L 1.54,12.201 L 1.558,12.04 C 1.558,12.04 1.558,12.124 1.558,11.823 C 1.558,11.284 1.814,10.938 2.248,10.765 C 2.666,10.6 2.635,7.653 2.635,7.653 L 2.248,3.396 z"
   id="path28"
   style="fill:#d2eeff" />
<path
   d="M 3.698,7.033 C 3.698,6.063 4.062,5.154 4.694,4.365 L 2.248,3.392 C 1.362,4.479 0.849,5.736 0.849,7.078 C 0.849,8.42 1.362,9.677 2.248,10.765 L 4.751,9.769 C 4.085,8.964 3.698,8.031 3.698,7.033 z"
   id="path30"
   style="fill:#d2eeff" />
<rect
   y="12.04"
   width="1.558"
   height="18.191999"
   id="rect32"
   x="0"
   style="fill:#d2eeff" />
<rect
   y="24.848"
   width="1.558"
   height="2.6500001"
   id="rect34"
   x="0"
   style="fill:#d2eeff" />
<path
   d="M 0,35.834 L 0,37.137 C 0,38.612 0.569,39.992 1.558,41.182 L 1.558,39.879 L 1.558,33.091 L 1.558,31.788 C 0.569,32.979 0,34.359 0,35.834 z"
   id="path36"
   style="fill:#d2eeff" />
<path
   d="M 1.558,26.187 C 0.569,27.376 0,28.757 0,30.232 C 0,31.707 0.569,33.087 1.558,34.277 L 1.558,26.187 z"
   id="path38"
   style="fill:#d2eeff" />
<path
   d="M 1.558,40.555 C 1.558,40.555 1.558,40.259 1.558,39.879 C 1.558,39.498 1.639,38.188 1.768,37.604 C 1.98,36.639 2.424,35.975 2.424,34.955 C 2.424,34.612 2.229,34.127 1.937,33.835 C 1.647,33.545 1.551,33.093 1.551,32.619 C 1.551,32.145 1.551,31.541 1.551,31.541 L 0.883,31.563 L 0.956,39.867 L 1.558,40.555 z"
   id="path40"
   style="fill:#d2eeff" />
<path
   enable-background="new    "
   d="M 11.512,1.821 C 15.766,1.821 19.218,4.202 19.317,7.163 C 19.319,7.119 19.328,7.077 19.328,7.033 C 19.328,4.012 15.828,1.562 11.513,1.562 C 7.198,1.562 3.699,4.012 3.699,7.033 C 3.699,7.077 3.706,7.119 3.709,7.163 C 3.806,4.202 7.258,1.821 11.512,1.821 z"
   id="path42"
   style="opacity:0.35" />
<path
   enable-background="new    "
   d="M 14.874,16.324 L 14.874,22.524 L 14.874,32.211 C 14.874,32.211 14.874,37.176 14.874,37.375 C 14.874,37.572 14.809,37.736 14.73,37.889 C 14.636,38.069 14.42,38.346 14.42,38.346 C 17.487,37.69 20.184,35.918 21.574,33.932 C 21.67,33.809 21.771,33.55 21.806,33.436 C 21.841,33.321 21.853,33.207 21.853,33.207 L 21.853,32.212 L 21.853,26.693 L 21.853,12.157 C 20.463,14.144 17.941,15.67 14.874,16.324 z"
   id="path44"
   style="opacity:0.35" />
<path
   enable-background="new    "
   d="M 21.674,38.626 C 21.567,38.338 21.256,37.975 21.256,37.975 C 19.867,39.962 17.445,41.02 14.376,41.675 C 14.376,41.675 14.654,42.141 14.772,42.541 C 14.888,42.939 14.873,43.54 14.873,43.54 L 14.873,44.844 C 17.941,44.19 20.464,42.662 21.853,40.676 C 21.853,40.676 21.853,39.768 21.853,39.53 C 21.854,39.262 21.766,38.863 21.674,38.626 z"
   id="path46"
   style="opacity:0.35" />
<path
   enable-background="new    "
   d="M 10.995,41.072 C 10.977,40.793 10.921,40.549 10.851,40.338 C 5.961,40.123 1.986,37.568 1.178,34.254 C 1.023,34.377 0.845,34.546 0.739,34.736 C 0.653,34.892 0.574,35.123 0.51,35.343 C 1.292,38.976 5.643,41.781 10.988,41.956 C 11.009,41.712 11.018,41.416 10.995,41.072 z"
   id="path48"
   style="opacity:0.2;fill:#ffffff" />
<path
   enable-background="new    "
   d="M 15.802,14.004 C 15.811,13.826 15.673,13.705 15.56,13.656 C 15.441,13.605 15.243,13.525 14.873,13.623 L 14.842,13.623 C 13.798,13.882 12.682,14.03 11.512,14.03 C 5.992,14.03 1.516,10.897 1.516,7.033 C 1.516,6.924 1.532,6.817 1.539,6.71 C 1.538,6.699 1.53,6.695 1.53,6.683 C 1.53,6.51 1.461,6.287 1.316,6.263 C 1.148,6.235 1.067,6.372 0.984,6.546 C 0.943,6.633 0.911,6.755 0.888,6.898 C 0.886,6.917 0.882,6.936 0.88,6.954 C 0.877,6.974 0.876,6.997 0.874,7.017 C 0.858,7.166 0.848,7.314 0.848,7.464 C 0.848,11.587 5.622,14.929 11.511,14.929 C 12.989,14.929 14.384,14.702 15.66,14.322 C 15.782,14.261 15.795,14.157 15.802,14.004 z"
   id="path50"
   style="opacity:0.2;fill:#ffffff" />
<path
   d="M 0.739,34.736 C 0.653,34.892 0.574,35.123 0.51,35.343 C 0.704,36.247 1.121,37.099 1.718,37.874 C 1.734,37.772 1.75,37.681 1.768,37.603 C 1.872,37.13 2.031,36.73 2.166,36.327 C 1.7,35.683 1.357,34.988 1.179,34.254 C 1.023,34.377 0.845,34.547 0.739,34.736 z"
   id="path52"
   style="fill:#ffffff" />
<path
   d="M 1.516,7.033 C 1.516,6.924 1.532,6.817 1.539,6.71 C 1.537,6.699 1.529,6.695 1.529,6.683 C 1.529,6.51 1.46,6.287 1.315,6.263 C 1.148,6.235 1.067,6.372 0.984,6.546 C 0.942,6.633 0.91,6.755 0.888,6.898 C 0.885,6.917 0.881,6.936 0.879,6.954 C 0.876,6.974 0.875,6.997 0.873,7.017 C 0.858,7.166 0.848,7.314 0.848,7.464 C 0.848,8.697 1.282,9.857 2.038,10.881 C 2.104,10.839 2.169,10.796 2.247,10.765 L 2.856,10.522 C 2.009,9.495 1.516,8.306 1.516,7.033 z"
   id="path54"
   style="fill:#ffffff" />
</g></g></g>
</svg>