<?xml version="1.0" encoding="UTF-8" standalone="no"?>
<svg
   xmlns:dc="http://purl.org/dc/elements/1.1/"
   xmlns:cc="http://creativecommons.org/ns#"
   xmlns:rdf="http://www.w3.org/1999/02/22-rdf-syntax-ns#"
   xmlns:svg="http://www.w3.org/2000/svg"
   xmlns="http://www.w3.org/2000/svg"
   xmlns:sodipodi="http://sodipodi.sourceforge.net/DTD/sodipodi-0.dtd"
   xmlns:inkscape="http://www.inkscape.org/namespaces/inkscape"
   version="1.0"
   baseProfile="tiny"
   width="32"
   height="32"
   id="svg2"
   sodipodi:version="0.32"
   inkscape:version="0.46"
   sodipodi:docname="basic_ceramic_cap_round_icon.svg"
   inkscape:output_extension="org.inkscape.output.svg.inkscape">
  <metadata
     id="metadata42">
    <rdf:RDF>
      <cc:Work
         rdf:about="">
        <dc:format>image/svg+xml</dc:format>
        <dc:type
           rdf:resource="http://purl.org/dc/dcmitype/StillImage" />
      </cc:Work>
    </rdf:RDF>
  </metadata>
  <defs
     id="defs40">
    <inkscape:perspective
       sodipodi:type="inkscape:persp3d"
       inkscape:vp_x="0 : 19 : 1"
       inkscape:vp_y="0 : 1000 : 0"
       inkscape:vp_z="38 : 19 : 1"
       inkscape:persp3d-origin="19 : 12.666667 : 1"
       id="perspective44" />
  </defs>
  <sodipodi:namedview
     inkscape:window-height="726"
     inkscape:window-width="884"
     inkscape:pageshadow="2"
     inkscape:pageopacity="0.0"
     guidetolerance="10.0"
     gridtolerance="10.0"
     objecttolerance="10.0"
     borderopacity="1.0"
     bordercolor="#666666"
     pagecolor="#ffffff"
     id="base"
     showgrid="false"
     inkscape:zoom="13"
     inkscape:cx="19"
     inkscape:cy="19"
     inkscape:window-x="166"
     inkscape:window-y="25"
     inkscape:current-layer="svg2" />
  <g
     id="icon"
     style="display:inline"
     transform="matrix(0.8731003,0,0,0.8730969,0,0.345)">
    <g
       id="g4">
      <g
         id="g10001">
        <path
           d="M 0,36.254 C 0.006,32.724 0.033,30.199 0.483,27.955 L 0.483,27.955 C 0.914,25.715 1.965,23.753 3.588,22.17 L 3.588,22.17 C 6.275,19.482 6.275,19.483 6.277,19.482 L 6.277,19.482 L 9.657,22.862 C 9.657,22.862 9.655,22.862 6.966,25.55 L 6.966,25.55 C 5.902,26.655 5.508,27.383 5.167,28.912 L 5.167,28.912 C 4.846,30.437 4.774,32.768 4.78,36.254 L 4.78,36.254 L 0,36.254 L 0,36.254 z"
           id="path7"
           style="fill:#b3b3b3" />
        <path
           d="M 31.87,36.255 C 31.875,32.769 31.805,30.438 31.483,28.912 L 31.483,28.912 C 31.142,27.381 30.749,26.653 29.683,25.55 L 29.683,25.55 C 27.752,23.62 27.205,23.073 27.058,22.926 L 27.058,22.926 C 26.661,22.56 26.402,22.074 26.319,21.533 L 26.319,21.533 C 26.222,20.9 26.377,20.269 26.755,19.757 L 26.755,19.757 C 27.128,19.247 27.698,18.903 28.319,18.809 L 28.319,18.809 C 28.941,18.712 29.589,18.871 30.097,19.244 L 30.097,19.244 C 30.159,19.292 30.186,19.314 30.21,19.333 L 30.21,19.333 C 30.254,19.37 30.271,19.385 30.284,19.398 L 30.284,19.398 C 30.309,19.421 30.319,19.429 30.326,19.437 L 30.326,19.437 C 30.342,19.45 30.345,19.456 30.35,19.46 L 30.35,19.46 C 30.358,19.466 30.363,19.47 30.367,19.474 L 30.367,19.474 C 30.375,19.485 30.388,19.497 30.41,19.518 L 30.41,19.518 C 30.455,19.563 30.54,19.648 30.709,19.817 L 30.709,19.817 C 31.047,20.153 31.719,20.825 33.063,22.171 L 33.063,22.171 C 34.685,23.754 35.736,25.716 36.167,27.955 L 36.167,27.955 C 36.616,30.201 36.646,32.723 36.649,36.256 L 36.649,36.256 L 36.651,36.256 L 31.87,36.256 L 31.87,36.255 z M 27.268,23.098 C 27.363,23.15 27.359,23.205 27.843,23.41 L 27.843,23.41 L 29.523,18.934 L 27.843,23.41 C 27.358,23.205 27.362,23.149 27.268,23.098 L 27.268,23.098 L 27.268,23.098 L 27.268,23.098 z M 27.08,22.945 C 27.074,22.94 27.069,22.935 27.063,22.93 L 27.063,22.93 C 27.068,22.935 27.073,22.939 27.08,22.945 L 27.08,22.945 z"
           id="path9"
           style="fill:#b3b3b3" />
        <circle
           cx="18.326"
           cy="14.398"
           r="14.398"
           id="circle11"
           sodipodi:cx="18.326"
           sodipodi:cy="14.398"
           sodipodi:rx="14.398"
           sodipodi:ry="14.398"
           style="fill:#cc7720" />
        <path
           d="M 18.326,4.116 C 21.378,4.116 24.342,3.747 27.188,3.064 C 24.742,1.151 21.673,0 18.326,0 C 14.98,0 11.911,1.151 9.465,3.064 C 12.311,3.748 15.275,4.116 18.326,4.116 z"
           id="path13" />
        <path
           d="M 4.383,17.884 C 4.598,18.664 4.282,19.033 3.936,19.577 C 3.586,20.125 3.12,20.446 2.44,21.37 C 1.892,22.117 1.596,22.88 1.344,23.761 C 1.093,24.64 1.296,25.254 1.296,25.254 L 5.379,28.093 C 5.379,28.093 5.788,27.928 6.145,27.527 C 6.378,27.265 6.904,26.821 7.171,26.551 C 7.72,26.001 8.067,25.883 8.664,25.883 C 9.289,25.883 9.651,25.891 10.248,26.319 C 10.922,26.801 13.513,24.06 13.513,24.06 L 7.77,20.175 L 5.214,17.055 C 5.213,17.055 4.168,17.104 4.383,17.884 z"
           id="path15"
           style="fill:#cc7720" />
        <path
           d="M 32.27,17.884 C 32.055,18.664 32.37,19.033 32.718,19.577 C 33.067,20.125 33.533,20.446 34.213,21.37 C 34.761,22.117 35.059,22.88 35.311,23.761 C 35.56,24.64 35.358,25.254 35.358,25.254 L 31.274,28.093 C 31.274,28.093 30.866,27.928 30.508,27.527 C 30.275,27.265 29.748,26.821 29.481,26.551 C 28.933,26.001 28.586,25.883 27.989,25.883 C 27.365,25.883 27.003,25.891 26.405,26.319 C 25.731,26.801 23.139,24.06 23.139,24.06 L 28.883,20.175 L 31.439,17.055 C 31.44,17.055 32.484,17.104 32.27,17.884 z"
           id="path17"
           style="fill:#cc7720" />
        <path
           enable-background="new    "
           d="M 29.194,26.295 C 28.706,25.308 27.09,24.06 26.144,24.06 C 25.198,24.06 21.513,24.756 19.919,24.756 C 18.325,24.756 14.44,23.96 13.195,23.96 C 11.863,23.96 10.505,24.159 9.561,24.458 C 8.707,24.726 7.835,25.055 6.839,26.548 C 6.586,26.929 6.417,27.178 6.305,27.36 C 6.568,27.1 6.95,26.767 7.17,26.548 C 7.719,25.998 8.066,25.88 8.663,25.88 C 9.288,25.88 9.65,25.888 10.247,26.316 L 10.248,26.316 C 12.55,27.878 15.33,28.794 18.324,28.794 C 21.318,28.794 24.097,27.881 26.4,26.316 L 26.402,26.316 C 27,25.886 27.362,25.88 27.986,25.88 C 28.476,25.882 28.798,25.974 29.194,26.295 z"
           id="path19"
           style="opacity:0.1" />
        <path
           enable-background="new    "
           d="M 31.725,20.408 C 32.37,20.707 34.443,21.868 35.217,23.48 C 34.984,22.716 34.697,22.036 34.209,21.372 C 33.53,20.447 33.063,20.127 32.715,19.579 C 32.385,19.058 32.095,18.69 32.257,17.98 C 32.55,16.832 32.724,15.636 32.724,14.4 C 32.724,11.817 32.034,9.402 30.844,7.306 C 30.941,7.818 31.006,8.328 31.006,8.822 C 31.006,10.348 30.744,12.699 30.568,14.115 C 30.409,15.363 29.78,16.459 29.78,17.953 C 29.781,19.196 31.339,20.231 31.725,20.408 z"
           id="path21"
           style="opacity:0.1" />
        <path
           enable-background="new    "
           d="M 14.94,2.263 C 13.963,2.246 13.161,2.666 13.153,3.199 C 13.15,3.428 13.316,3.636 13.566,3.81 C 14.329,3.907 15.099,3.98 15.874,4.031 C 16.354,3.869 16.692,3.593 16.698,3.259 C 16.706,2.724 15.921,2.278 14.94,2.263 z"
           id="path23"
           style="opacity:0.55;fill:#ffffff" />
        <rect
           x="16.201"
           y="10.769"
           enable-background="new    "
           width="4.6490002"
           height="4.8800001"
           id="rect25"
           style="opacity:0.1" />
        <rect
           x="16.003"
           y="11.765"
           enable-background="new    "
           width="3.4530001"
           height="5.8759999"
           id="rect27"
           style="opacity:0.1" />
        <rect
           x="13.082"
           y="10.769"
           enable-background="new    "
           width="1.46"
           height="6.7729998"
           id="rect29"
           style="opacity:0.1" />
        <rect
           x="12.218"
           y="11.765"
           enable-background="new    "
           width="1.726"
           height="4.8800001"
           id="rect31"
           style="opacity:0.1" />
        <rect
           x="20.851"
           y="10.769"
           enable-background="new    "
           width="3.3210001"
           height="6.7729998"
           id="rect33"
           style="opacity:0.1" />
        <rect
           x="21.448"
           y="11.765"
           enable-background="new    "
           width="3.451"
           height="1.494"
           id="rect35"
           style="opacity:0.1" />
        <rect
           x="21.448"
           y="14.178"
           enable-background="new    "
           width="3.451"
           height="2.194"
           id="rect37"
           style="opacity:0.1" />
      </g>
    </g>
  </g>
</svg>
