<?xml version="1.0" encoding="UTF-8" standalone="no"?>
<svg
   xmlns:dc="http://purl.org/dc/elements/1.1/"
   xmlns:cc="http://creativecommons.org/ns#"
   xmlns:rdf="http://www.w3.org/1999/02/22-rdf-syntax-ns#"
   xmlns:svg="http://www.w3.org/2000/svg"
   xmlns="http://www.w3.org/2000/svg"
   xmlns:sodipodi="http://sodipodi.sourceforge.net/DTD/sodipodi-0.dtd"
   xmlns:inkscape="http://www.inkscape.org/namespaces/inkscape"
   version="1.0"
   baseProfile="tiny"
   width="32"
   height="32"
   id="svg2"
   sodipodi:version="0.32"
   inkscape:version="0.46"
   sodipodi:docname="basic_ldr.svg"
   inkscape:output_extension="org.inkscape.output.svg.inkscape">
  <metadata
     id="metadata3032">
    <rdf:RDF>
      <cc:Work
         rdf:about="">
        <dc:format>image/svg+xml</dc:format>
        <dc:type
           rdf:resource="http://purl.org/dc/dcmitype/StillImage" />
      </cc:Work>
    </rdf:RDF>
  </metadata>
  <defs
     id="defs3030">
    <inkscape:perspective
       sodipodi:type="inkscape:persp3d"
       inkscape:vp_x="0 : 12.150001 : 1"
       inkscape:vp_y="0 : 1000 : 0"
       inkscape:vp_z="45 : 12.150001 : 1"
       inkscape:persp3d-origin="22.5 : 8.1000004 : 1"
       id="perspective3034" />
  </defs>
  <sodipodi:namedview
     inkscape:window-height="726"
     inkscape:window-width="1011"
     inkscape:pageshadow="2"
     inkscape:pageopacity="0.0"
     guidetolerance="10.0"
     gridtolerance="10.0"
     objecttolerance="10.0"
     borderopacity="1.0"
     bordercolor="#666666"
     pagecolor="#ffffff"
     id="base"
     showgrid="false"
     inkscape:zoom="12.088889"
     inkscape:cx="22.5"
     inkscape:cy="12.150001"
     inkscape:window-x="0"
     inkscape:window-y="25"
     inkscape:current-layer="svg2" />
  <g
     id="icon"
     style="display:inline"
     transform="matrix(0.969666,0,0,0.969666,-2.5724722,6.9779852)">
    <g
       id="g3008">
      <g
         id="g10002">
        <path
           d="M 32.654,16.84 L 32.654,12.028 C 32.648,11.512 32.522,11.31 32.425,11.212 L 32.425,11.212 C 32.327,11.118 32.128,10.975 31.528,10.965 L 31.528,10.965 L 6.467,10.965 C 6.127,10.965 5.91,11.011 5.821,11.044 L 5.821,11.044 C 5.74,11.065 5.757,11.077 5.753,11.073 L 5.753,11.073 C 5.755,11.073 5.741,11.089 5.718,11.157 L 5.718,11.157 C 5.689,11.247 5.654,11.433 5.654,11.716 L 5.654,11.716 L 5.654,16.84 L 5.656,16.84 L 2.653,16.84 L 2.653,11.716 C 2.649,10.741 2.869,9.704 3.651,8.935 L 3.651,8.935 C 4.439,8.171 5.467,7.964 6.466,7.966 L 6.466,7.966 L 31.528,7.966 C 32.674,7.958 33.791,8.316 34.567,9.112 L 34.567,9.112 C 35.345,9.903 35.658,10.981 35.652,12.031 L 35.652,12.031 L 35.654,16.843 L 32.654,16.84 L 32.654,16.84 z"
           id="path3011"
           style="fill:#b3b3b3" />
        <path
           d="M 9.014,9.551 C 9.014,12.575 10.346,15.282 12.449,17.142 L 25.859,17.142 C 27.961,15.285 29.293,12.578 29.293,9.551 C 29.293,6.528 27.961,3.82 25.859,1.96 L 12.449,1.96 C 10.346,3.818 9.014,6.526 9.014,9.551 z"
           id="path3013" />
        <rect
           x="12.448"
           y="1.96"
           width="13.41"
           height="15.182"
           id="rect3015" />
        <path
           d="M 25.88,16.277 C 25.88,16.277 22.62,16.589 19.152,16.589 C 15.685,16.589 12.424,16.277 12.424,16.277 C 12.424,16.277 12.112,13.019 12.112,9.55 C 12.112,6.083 12.424,2.823 12.424,2.823 C 12.424,2.823 15.685,2.511 19.152,2.511 C 22.62,2.511 25.88,2.823 25.88,2.823 C 25.88,2.823 26.192,6.083 26.192,9.55 C 26.192,13.019 25.88,16.277 25.88,16.277 z"
           id="path3017"
           style="fill:#cccccc" />
        <path
           d="M 25.149,3.851 L 25.106,3.599 L 24.855,3.557 C 24.83,3.551 22.119,3.107 19.153,3.107 C 17.612,3.107 16.149,3.227 15.194,3.328 C 14.233,3.432 13.733,3.486 13.464,3.557 C 13.384,3.558 13.318,3.573 13.263,3.625 C 13.177,3.678 13.159,3.742 13.156,3.83 C 13.073,4.091 13.005,4.594 12.907,5.584 C 12.833,6.332 12.71,7.847 12.71,9.555 C 12.71,12.522 13.155,15.232 13.159,15.257 L 13.202,15.509 L 13.453,15.551 C 13.479,15.556 16.19,16 19.155,16 C 22.121,16 24.832,15.557 24.857,15.551 L 25.108,15.509 L 25.151,15.257 C 25.155,15.232 25.599,12.522 25.599,9.555 C 25.599,6.588 25.153,3.876 25.149,3.851 z M 13.823,14.883 C 13.716,14.154 13.421,11.94 13.421,9.552 C 13.421,7.053 13.683,4.855 13.797,4.222 C 14.051,4.183 14.529,4.118 15.136,4.052 C 15.126,4.111 15.11,4.159 15.11,4.225 C 15.11,4.649 15.372,5.365 15.402,5.445 C 15.464,5.61 15.634,5.707 15.808,5.67 C 15.825,5.668 17.415,5.345 19.155,5.345 C 20.806,5.345 22.311,5.634 22.47,5.664 C 22.474,5.67 22.486,5.691 22.486,5.748 C 22.486,5.894 22.42,6.123 22.347,6.326 C 21.952,6.259 21.21,6.152 20.356,6.152 C 19.125,6.152 17.946,6.371 17.896,6.381 C 17.792,6.402 17.704,6.466 17.652,6.558 C 17.629,6.6 17.509,6.829 17.509,7.272 C 17.509,7.67 17.608,8.19 17.612,8.21 C 17.63,8.305 17.683,8.387 17.761,8.439 C 17.84,8.495 17.938,8.512 18.032,8.495 C 18.037,8.495 18.572,8.391 19.155,8.391 C 19.516,8.391 19.843,8.429 20.053,8.458 C 20.071,8.55 20.083,8.663 20.083,8.794 C 20.083,8.936 20.066,9.077 20.048,9.196 L 19.152,9.196 L 17.96,9.196 C 17.795,9.196 17.652,9.308 17.613,9.467 C 17.609,9.486 17.508,9.904 17.508,10.314 C 17.508,10.732 17.612,11.043 17.622,11.081 C 17.663,11.2 17.766,11.29 17.891,11.314 C 17.916,11.318 18.496,11.432 19.153,11.432 C 19.497,11.432 19.813,11.402 20.048,11.37 C 20.068,11.518 20.083,11.688 20.083,11.837 C 20.083,11.94 20.073,12.001 20.062,12.063 C 19.672,12.125 18.818,12.244 17.953,12.244 C 16.797,12.244 15.822,12.031 15.812,12.029 C 15.674,12 15.535,12.05 15.451,12.164 C 15.418,12.207 15.125,12.609 15.125,13.086 C 15.125,13.565 15.419,13.961 15.453,14.006 C 15.505,14.073 15.58,14.121 15.664,14.139 C 15.731,14.154 17.34,14.481 19.154,14.481 C 20.522,14.481 21.771,14.293 22.335,14.198 C 22.411,14.444 22.485,14.73 22.485,14.886 C 22.485,15 22.441,15.078 22.401,15.133 C 21.463,15.22 20.333,15.291 19.154,15.291 C 16.766,15.285 14.551,14.99 13.823,14.883 z M 24.483,14.883 C 24.218,14.921 23.759,14.986 23.171,15.049 C 23.181,14.991 23.198,14.945 23.198,14.878 C 23.198,14.456 22.935,13.739 22.905,13.659 C 22.843,13.493 22.673,13.397 22.499,13.433 C 22.482,13.436 20.892,13.759 19.152,13.759 C 17.705,13.759 16.373,13.535 15.953,13.459 C 15.898,13.359 15.838,13.216 15.838,13.078 C 15.838,12.973 15.874,12.861 15.916,12.767 C 16.298,12.833 17.063,12.949 17.951,12.949 C 19.182,12.949 20.361,12.729 20.41,12.72 C 20.514,12.699 20.602,12.636 20.654,12.544 C 20.676,12.501 20.797,12.273 20.797,11.829 C 20.797,11.43 20.699,10.911 20.694,10.891 C 20.675,10.796 20.623,10.714 20.545,10.662 C 20.465,10.608 20.369,10.59 20.274,10.607 C 20.269,10.608 19.734,10.711 19.151,10.711 C 18.789,10.711 18.463,10.673 18.252,10.644 C 18.235,10.553 18.222,10.44 18.222,10.309 C 18.222,10.166 18.239,10.026 18.256,9.905 L 19.152,9.905 L 20.343,9.905 C 20.507,9.905 20.652,9.792 20.691,9.634 C 20.695,9.616 20.795,9.196 20.795,8.788 C 20.795,8.37 20.692,8.059 20.682,8.022 C 20.641,7.901 20.537,7.812 20.412,7.788 C 20.388,7.782 19.807,7.669 19.15,7.669 C 18.806,7.669 18.49,7.7 18.255,7.731 C 18.236,7.583 18.219,7.413 18.219,7.265 C 18.219,7.162 18.231,7.101 18.24,7.039 C 18.628,6.977 19.484,6.858 20.349,6.858 C 21.503,6.858 22.48,7.072 22.49,7.074 C 22.656,7.11 22.826,7.024 22.893,6.869 C 22.921,6.8 23.193,6.177 23.193,5.742 C 23.193,5.22 22.83,5.004 22.637,4.965 C 22.572,4.951 20.96,4.623 19.148,4.623 C 17.78,4.623 16.531,4.811 15.967,4.908 C 15.892,4.66 15.817,4.375 15.817,4.22 C 15.817,4.106 15.86,4.028 15.9,3.973 C 16.845,3.887 17.98,3.816 19.148,3.816 C 21.535,3.816 23.75,4.11 24.478,4.216 C 24.583,4.945 24.878,7.16 24.878,9.547 C 24.882,11.938 24.591,14.153 24.483,14.883 z"
           id="path3019"
           style="fill:#8f0000" />
        <circle
           cx="11.194"
           cy="9.5530005"
           r="1.916"
           id="circle3021"
           sodipodi:cx="11.194"
           sodipodi:cy="9.5530005"
           sodipodi:rx="1.916"
           sodipodi:ry="1.916"
           style="fill:#b2b2b2" />
        <circle
           cx="27.112"
           cy="9.5509996"
           r="1.916"
           id="circle3023"
           sodipodi:cx="27.112"
           sodipodi:cy="9.5509996"
           sodipodi:rx="1.916"
           sodipodi:ry="1.916"
           style="fill:#b2b2b2" />
        <path
           enable-background="new    "
           d="M 25.858,1.96 L 12.448,1.96 C 10.345,3.817 9.013,6.525 9.013,9.551 C 9.013,12.575 10.345,15.282 12.448,17.142 L 25.858,17.142 C 27.961,15.285 29.293,12.578 29.293,9.551 C 29.292,6.526 27.96,3.818 25.858,1.96 z M 18.742,15.378 C 15.29,15.378 12.492,12.579 12.492,9.128 C 12.492,5.677 15.291,2.878 18.742,2.878 C 22.194,2.878 24.994,5.677 24.994,9.128 C 24.994,12.579 22.194,15.378 18.742,15.378 z"
           id="path3025"
           style="opacity:0.2" />
        <circle
           enable-background="new    "
           cx="16.643999"
           cy="6.6820002"
           r="1.625"
           id="circle3027"
           sodipodi:cx="16.643999"
           sodipodi:cy="6.6820002"
           sodipodi:rx="1.625"
           sodipodi:ry="1.625"
           style="opacity:0.8;fill:#ffffff" />
      </g>
    </g>
  </g>
</svg>
