<svg xmlns="http://www.w3.org/2000/svg" width="0.6in" height="0.6in" viewBox="0 0 600 600" >
<path id="boardoutline" stroke-width="0" stroke="none" fill="#338040" fill-opacity="1" d="M0,0L600,0 600,600 0,600z
M82.5,100a17.5,17.5 0 1 0 35,0 17.5,17.5 0 1 0 -35,0z
M182.5,100a17.5,17.5 0 1 0 35,0 17.5,17.5 0 1 0 -35,0z
M282.5,100a17.5,17.5 0 1 0 35,0 17.5,17.5 0 1 0 -35,0z
M382.5,100a17.5,17.5 0 1 0 35,0 17.5,17.5 0 1 0 -35,0z
M482.5,100a17.5,17.5 0 1 0 35,0 17.5,17.5 0 1 0 -35,0z
M82.5,200a17.5,17.5 0 1 0 35,0 17.5,17.5 0 1 0 -35,0z
M182.5,200a17.5,17.5 0 1 0 35,0 17.5,17.5 0 1 0 -35,0z
M282.5,200a17.5,17.5 0 1 0 35,0 17.5,17.5 0 1 0 -35,0z
M382.5,200a17.5,17.5 0 1 0 35,0 17.5,17.5 0 1 0 -35,0z
M482.5,200a17.5,17.5 0 1 0 35,0 17.5,17.5 0 1 0 -35,0z
M82.5,300a17.5,17.5 0 1 0 35,0 17.5,17.5 0 1 0 -35,0z
M182.5,300a17.5,17.5 0 1 0 35,0 17.5,17.5 0 1 0 -35,0z
M282.5,300a17.5,17.5 0 1 0 35,0 17.5,17.5 0 1 0 -35,0z
M382.5,300a17.5,17.5 0 1 0 35,0 17.5,17.5 0 1 0 -35,0z
M482.5,300a17.5,17.5 0 1 0 35,0 17.5,17.5 0 1 0 -35,0z
M82.5,400a17.5,17.5 0 1 0 35,0 17.5,17.5 0 1 0 -35,0z
M182.5,400a17.5,17.5 0 1 0 35,0 17.5,17.5 0 1 0 -35,0z
M282.5,400a17.5,17.5 0 1 0 35,0 17.5,17.5 0 1 0 -35,0z
M382.5,400a17.5,17.5 0 1 0 35,0 17.5,17.5 0 1 0 -35,0z
M482.5,400a17.5,17.5 0 1 0 35,0 17.5,17.5 0 1 0 -35,0z
M82.5,500a17.5,17.5 0 1 0 35,0 17.5,17.5 0 1 0 -35,0z
M182.5,500a17.5,17.5 0 1 0 35,0 17.5,17.5 0 1 0 -35,0z
M282.5,500a17.5,17.5 0 1 0 35,0 17.5,17.5 0 1 0 -35,0z
M382.5,500a17.5,17.5 0 1 0 35,0 17.5,17.5 0 1 0 -35,0z
M482.5,500a17.5,17.5 0 1 0 35,0 17.5,17.5 0 1 0 -35,0z
" /> 
<path stroke-width="8" stroke="#338040" fill="none" stroke-opacity="1" d="M4,4L592,4 592,592 4,592z" /> 
<circle fill="none" cx="100" cy="100" connectorname="0.0" stroke="#9A916C" r="27.5" id="connector0pin" stroke-width="20"/>
<circle fill="none" cx="200" cy="100" connectorname="1.0" stroke="#9A916C" r="27.5" id="connector1pin" stroke-width="20"/>
<circle fill="none" cx="300" cy="100" connectorname="2.0" stroke="#9A916C" r="27.5" id="connector2pin" stroke-width="20"/>
<circle fill="none" cx="400" cy="100" connectorname="3.0" stroke="#9A916C" r="27.5" id="connector3pin" stroke-width="20"/>
<circle fill="none" cx="500" cy="100" connectorname="4.0" stroke="#9A916C" r="27.5" id="connector4pin" stroke-width="20"/>
<circle fill="none" cx="100" cy="200" connectorname="0.1" stroke="#9A916C" r="27.5" id="connector200pin" stroke-width="20"/>
<circle fill="none" cx="200" cy="200" connectorname="1.1" stroke="#9A916C" r="27.5" id="connector201pin" stroke-width="20"/>
<circle fill="none" cx="300" cy="200" connectorname="2.1" stroke="#9A916C" r="27.5" id="connector202pin" stroke-width="20"/>
<circle fill="none" cx="400" cy="200" connectorname="3.1" stroke="#9A916C" r="27.5" id="connector203pin" stroke-width="20"/>
<circle fill="none" cx="500" cy="200" connectorname="4.1" stroke="#9A916C" r="27.5" id="connector204pin" stroke-width="20"/>
<circle fill="none" cx="100" cy="300" connectorname="0.2" stroke="#9A916C" r="27.5" id="connector400pin" stroke-width="20"/>
<circle fill="none" cx="200" cy="300" connectorname="1.2" stroke="#9A916C" r="27.5" id="connector401pin" stroke-width="20"/>
<circle fill="none" cx="300" cy="300" connectorname="2.2" stroke="#9A916C" r="27.5" id="connector402pin" stroke-width="20"/>
<circle fill="none" cx="400" cy="300" connectorname="3.2" stroke="#9A916C" r="27.5" id="connector403pin" stroke-width="20"/>
<circle fill="none" cx="500" cy="300" connectorname="4.2" stroke="#9A916C" r="27.5" id="connector404pin" stroke-width="20"/>
<circle fill="none" cx="100" cy="400" connectorname="0.3" stroke="#9A916C" r="27.5" id="connector600pin" stroke-width="20"/>
<circle fill="none" cx="200" cy="400" connectorname="1.3" stroke="#9A916C" r="27.5" id="connector601pin" stroke-width="20"/>
<circle fill="none" cx="300" cy="400" connectorname="2.3" stroke="#9A916C" r="27.5" id="connector602pin" stroke-width="20"/>
<circle fill="none" cx="400" cy="400" connectorname="3.3" stroke="#9A916C" r="27.5" id="connector603pin" stroke-width="20"/>
<circle fill="none" cx="500" cy="400" connectorname="4.3" stroke="#9A916C" r="27.5" id="connector604pin" stroke-width="20"/>
<circle fill="none" cx="100" cy="500" connectorname="0.4" stroke="#9A916C" r="27.5" id="connector800pin" stroke-width="20"/>
<circle fill="none" cx="200" cy="500" connectorname="1.4" stroke="#9A916C" r="27.5" id="connector801pin" stroke-width="20"/>
<circle fill="none" cx="300" cy="500" connectorname="2.4" stroke="#9A916C" r="27.5" id="connector802pin" stroke-width="20"/>
<circle fill="none" cx="400" cy="500" connectorname="3.4" stroke="#9A916C" r="27.5" id="connector803pin" stroke-width="20"/>
<circle fill="none" cx="500" cy="500" connectorname="4.4" stroke="#9A916C" r="27.5" id="connector804pin" stroke-width="20"/>

</svg>