<?xml version="1.0" encoding="utf-8"?>
<!-- Generator: Adobe Illustrator 15.1.0, SVG Export Plug-In . SVG Version: 6.00 Build 0)  -->
<!DOCTYPE svg PUBLIC "-//W3C//DTD SVG 1.1//EN" "http://www.w3.org/Graphics/SVG/1.1/DTD/svg11.dtd">
<svg version="1.1" id="Ebene_1" xmlns="http://www.w3.org/2000/svg" xmlns:xlink="http://www.w3.org/1999/xlink" x="0px" y="0px"
	 width="113.129px" height="28.742px" viewBox="0 0.551 113.129 28.742" enable-background="new 0 0.551 113.129 28.742"
	 xml:space="preserve">
<g>
	<polyline fill="none" stroke="#000000" stroke-width="0.9" stroke-linecap="round" stroke-miterlimit="10" points="3.6,7.693 
		104.4,7.693 104.4,14.894 	"/>
	<g>
		<rect id="connector3pin" x="53.51" y="0.551" fill="none" width="0.982" height="0.981"/>
		<rect id="connector8pin" x="53.509" y="0.547" fill="none" width="0.981" height="0.981"/>
		<rect id="connector3terminal" x="53.51" y="0.551" fill="none" width="0.982" height="0.981"/>
		<rect id="connector8terminal" x="53.509" y="0.549" fill="none" width="0.981" height="0.981"/>
		<rect id="connector1pin" x="89.509" y="28.803" fill="none" width="0.981" height="0.982"/>
		<rect id="connector2pin" x="75.109" y="28.805" fill="none" width="0.982" height="0.98"/>
		<rect id="connector4pin" x="60.708" y="28.803" fill="none" width="0.982" height="0.982"/>
		<rect id="connector6pin" x="31.908" y="28.803" fill="none" width="0.982" height="0.982"/>
		<rect id="connector7pin" x="3.104" y="28.803" fill="none" width="0.982" height="0.982"/>
		<rect id="connector9pin" x="103.908" y="28.804" fill="none" width="0.981" height="0.981"/>
		<rect id="connector1terminal" x="89.509" y="28.803" fill="none" width="0.981" height="0.982"/>
		<rect id="connector2terminal" x="75.109" y="28.805" fill="none" width="0.982" height="0.98"/>
		<rect id="connector4terminal" x="46.31" y="28.803" fill="none" width="0.982" height="0.982"/>
		<rect id="connector6terminal" x="17.508" y="28.803" fill="none" width="0.982" height="0.982"/>
		<rect id="connector7terminal" x="3.104" y="28.803" fill="none" width="0.982" height="0.982"/>
		<rect id="connector9terminal" x="103.908" y="28.804" fill="none" width="0.981" height="0.981"/>
	</g>
	<g>
		<g>
			<g>
				<g>
					<g id="schematic_31_">
						<line fill="none" stroke="#000000" stroke-width="0.9" stroke-linecap="round" x1="86.399" y1="14.895" x2="90" y2="14.895"/>
						<line fill="none" stroke="#000000" stroke-width="0.9" stroke-linecap="round" x1="90" y1="14.895" x2="93.6" y2="14.895"/>
						<polygon fill="#FFFFFF" stroke="#000000" stroke-width="0.9" stroke-linecap="round" points="90,14.895 93.6,22.094 
							90,22.094 86.399,22.094 						"/>
						<line fill="none" stroke="#000000" stroke-width="0.45" stroke-linecap="round" x1="90" y1="22.094" x2="90" y2="14.895"/>
						
							<line fill="none" stroke="#000000" stroke-width="0.45" stroke-linecap="round" x1="94.77" y1="19.934" x2="97.109" y2="17.594"/>
						
							<line fill="none" stroke="#000000" stroke-width="0.45" stroke-linecap="round" x1="94.409" y1="16.693" x2="96.749" y2="14.354"/>
						
							<line id="connector1pin_31_" fill="none" stroke="#000000" stroke-width="0.9" stroke-linecap="round" x1="90" y1="7.693" x2="90" y2="14.895"/>
						<rect id="connector1terminal_31_" x="89.999" y="7.693" fill="none" width="0.001" height="0"/>
						
							<line id="connector0pin_31_" fill="none" stroke="#666666" stroke-width="0.9" stroke-linecap="round" x1="90" y1="29.294" x2="90" y2="22.094"/>
						<rect id="connector0terminal_31_" x="89.999" y="29.293" fill="none" width="0.001" height="0.001"/>
						<path d="M98.729,15.975l-1.08,2.52l-1.44-1.439L98.729,15.975z"/>
						<path d="M98.369,12.734l-1.08,2.52l-1.439-1.439L98.369,12.734z"/>
					</g>
				</g>
			</g>
			<g>
				<g>
					<g id="schematic_30_">
						<line fill="none" stroke="#000000" stroke-width="0.9" stroke-linecap="round" x1="72" y1="14.895" x2="75.6" y2="14.895"/>
						<line fill="none" stroke="#000000" stroke-width="0.9" stroke-linecap="round" x1="75.6" y1="14.895" x2="79.2" y2="14.895"/>
						<polygon fill="#FFFFFF" stroke="#000000" stroke-width="0.9" stroke-linecap="round" points="75.6,14.895 79.2,22.094 
							75.6,22.094 72,22.094 						"/>
						
							<line fill="none" stroke="#000000" stroke-width="0.45" stroke-linecap="round" x1="75.6" y1="22.094" x2="75.6" y2="14.895"/>
						
							<line fill="none" stroke="#000000" stroke-width="0.45" stroke-linecap="round" x1="80.37" y1="19.934" x2="82.709" y2="17.594"/>
						
							<line fill="none" stroke="#000000" stroke-width="0.45" stroke-linecap="round" x1="80.009" y1="16.693" x2="82.349" y2="14.354"/>
						
							<line id="connector1pin_30_" fill="none" stroke="#000000" stroke-width="0.9" stroke-linecap="round" x1="75.6" y1="7.693" x2="75.6" y2="14.895"/>
						<rect id="connector1terminal_30_" x="75.599" y="7.693" fill="none" width="0.001" height="0"/>
						
							<line id="connector0pin_30_" fill="none" stroke="#666666" stroke-width="0.9" stroke-linecap="round" x1="75.6" y1="29.294" x2="75.6" y2="22.094"/>
						<rect id="connector0terminal_30_" x="75.599" y="29.293" fill="none" width="0.001" height="0.001"/>
						<path d="M84.33,15.975l-1.08,2.52l-1.44-1.439L84.33,15.975z"/>
						<path d="M83.969,12.734l-1.08,2.52l-1.439-1.439L83.969,12.734z"/>
					</g>
				</g>
			</g>
			<g>
				<g>
					<g id="schematic_29_">
						<line fill="none" stroke="#000000" stroke-width="0.9" stroke-linecap="round" x1="57.6" y1="14.895" x2="61.2" y2="14.895"/>
						<line fill="none" stroke="#000000" stroke-width="0.9" stroke-linecap="round" x1="61.2" y1="14.895" x2="64.8" y2="14.895"/>
						<polygon fill="#FFFFFF" stroke="#000000" stroke-width="0.9" stroke-linecap="round" points="61.2,14.895 64.8,22.094 
							61.2,22.094 57.6,22.094 						"/>
						
							<line fill="none" stroke="#000000" stroke-width="0.45" stroke-linecap="round" x1="61.2" y1="22.094" x2="61.2" y2="14.895"/>
						
							<line fill="none" stroke="#000000" stroke-width="0.45" stroke-linecap="round" x1="65.97" y1="19.934" x2="68.31" y2="17.594"/>
						
							<line fill="none" stroke="#000000" stroke-width="0.45" stroke-linecap="round" x1="65.609" y1="16.693" x2="67.949" y2="14.354"/>
						
							<line id="connector1pin_29_" fill="none" stroke="#000000" stroke-width="0.9" stroke-linecap="round" x1="61.2" y1="7.693" x2="61.2" y2="14.895"/>
						<rect id="connector1terminal_29_" x="61.199" y="7.693" fill="none" width="0.001" height="0"/>
						
							<line id="connector0pin_29_" fill="none" stroke="#666666" stroke-width="0.9" stroke-linecap="round" x1="61.2" y1="29.294" x2="61.2" y2="22.094"/>
						<rect id="connector0terminal_29_" x="61.199" y="29.293" fill="none" width="0.001" height="0.001"/>
						<path d="M69.93,15.975l-1.08,2.52l-1.44-1.439L69.93,15.975z"/>
						<path d="M69.569,12.734l-1.08,2.52l-1.439-1.439L69.569,12.734z"/>
					</g>
				</g>
			</g>
			<g>
				<g>
					<g id="schematic_28_">
						<line fill="none" stroke="#000000" stroke-width="0.9" stroke-linecap="round" x1="43.2" y1="14.895" x2="46.8" y2="14.895"/>
						<line fill="none" stroke="#000000" stroke-width="0.9" stroke-linecap="round" x1="46.8" y1="14.895" x2="50.4" y2="14.895"/>
						<polygon fill="#FFFFFF" stroke="#000000" stroke-width="0.9" stroke-linecap="round" points="46.8,14.895 50.4,22.094 
							46.8,22.094 43.2,22.094 						"/>
						
							<line fill="none" stroke="#000000" stroke-width="0.45" stroke-linecap="round" x1="46.8" y1="22.094" x2="46.8" y2="14.895"/>
						
							<line fill="none" stroke="#000000" stroke-width="0.45" stroke-linecap="round" x1="51.57" y1="19.934" x2="53.91" y2="17.594"/>
						
							<line fill="none" stroke="#000000" stroke-width="0.45" stroke-linecap="round" x1="51.209" y1="16.693" x2="53.549" y2="14.354"/>
						
							<line id="connector1pin_28_" fill="none" stroke="#000000" stroke-width="0.9" stroke-linecap="round" x1="46.8" y1="7.693" x2="46.8" y2="14.895"/>
						<rect id="connector1terminal_28_" x="46.799" y="7.693" fill="none" width="0.001" height="0"/>
						
							<line id="connector0pin_28_" fill="none" stroke="#666666" stroke-width="0.9" stroke-linecap="round" x1="46.8" y1="29.294" x2="46.8" y2="22.094"/>
						<rect id="connector0terminal_28_" x="46.799" y="29.293" fill="none" width="0.001" height="0.001"/>
						<path d="M55.53,15.975l-1.08,2.52l-1.44-1.439L55.53,15.975z"/>
						<path d="M55.169,12.734l-1.08,2.52l-1.439-1.439L55.169,12.734z"/>
					</g>
				</g>
			</g>
			<g>
				<g>
					<g id="schematic_27_">
						<line fill="none" stroke="#000000" stroke-width="0.9" stroke-linecap="round" x1="28.8" y1="14.895" x2="32.4" y2="14.895"/>
						<line fill="none" stroke="#000000" stroke-width="0.9" stroke-linecap="round" x1="32.4" y1="14.895" x2="36" y2="14.895"/>
						<polygon fill="#FFFFFF" stroke="#000000" stroke-width="0.9" stroke-linecap="round" points="32.4,14.895 36,22.094 
							32.4,22.094 28.8,22.094 						"/>
						
							<line fill="none" stroke="#000000" stroke-width="0.45" stroke-linecap="round" x1="32.4" y1="22.094" x2="32.4" y2="14.895"/>
						
							<line fill="none" stroke="#000000" stroke-width="0.45" stroke-linecap="round" x1="37.17" y1="19.934" x2="39.51" y2="17.594"/>
						
							<line fill="none" stroke="#000000" stroke-width="0.45" stroke-linecap="round" x1="36.81" y1="16.693" x2="39.149" y2="14.354"/>
						
							<line id="connector1pin_27_" fill="none" stroke="#000000" stroke-width="0.9" stroke-linecap="round" x1="32.4" y1="7.693" x2="32.4" y2="14.895"/>
						<rect id="connector1terminal_27_" x="32.399" y="7.693" fill="none" width="0.001" height="0"/>
						
							<line id="connector0pin_27_" fill="none" stroke="#666666" stroke-width="0.9" stroke-linecap="round" x1="32.4" y1="29.294" x2="32.4" y2="22.094"/>
						<rect id="connector0terminal_27_" x="32.399" y="29.293" fill="none" width="0.001" height="0.001"/>
						<path d="M41.13,15.975l-1.08,2.52l-1.44-1.439L41.13,15.975z"/>
						<path d="M40.77,12.734l-1.08,2.52l-1.439-1.439L40.77,12.734z"/>
					</g>
				</g>
			</g>
			<g>
				<g>
					<g id="schematic_26_">
						<line fill="none" stroke="#000000" stroke-width="0.9" stroke-linecap="round" x1="14.4" y1="14.895" x2="18" y2="14.895"/>
						<line fill="none" stroke="#000000" stroke-width="0.9" stroke-linecap="round" x1="18" y1="14.895" x2="21.6" y2="14.895"/>
						<polygon fill="#FFFFFF" stroke="#000000" stroke-width="0.9" stroke-linecap="round" points="18,14.895 21.6,22.094 
							18,22.094 14.4,22.094 						"/>
						<line fill="none" stroke="#000000" stroke-width="0.45" stroke-linecap="round" x1="18" y1="22.094" x2="18" y2="14.895"/>
						
							<line fill="none" stroke="#000000" stroke-width="0.45" stroke-linecap="round" x1="22.77" y1="19.934" x2="25.11" y2="17.594"/>
						
							<line fill="none" stroke="#000000" stroke-width="0.45" stroke-linecap="round" x1="22.41" y1="16.693" x2="24.75" y2="14.354"/>
						
							<line id="connector1pin_26_" fill="none" stroke="#000000" stroke-width="0.9" stroke-linecap="round" x1="18" y1="7.693" x2="18" y2="14.895"/>
						<rect id="connector1terminal_26_" x="18" y="7.693" fill="none" width="0.001" height="0"/>
						
							<line id="connector0pin_26_" fill="none" stroke="#666666" stroke-width="0.9" stroke-linecap="round" x1="18" y1="29.294" x2="18" y2="22.094"/>
						<rect id="connector0terminal_26_" x="18" y="29.293" fill="none" width="0.001" height="0.001"/>
						<path d="M26.73,15.975l-1.08,2.52l-1.44-1.439L26.73,15.975z"/>
						<path d="M26.37,12.734l-1.08,2.52l-1.439-1.439L26.37,12.734z"/>
					</g>
				</g>
			</g>
			<g>
				<g>
					<g id="schematic_25_">
						<line fill="none" stroke="#000000" stroke-width="0.9" stroke-linecap="round" x1="0" y1="14.895" x2="3.601" y2="14.895"/>
						<line fill="none" stroke="#000000" stroke-width="0.9" stroke-linecap="round" x1="3.601" y1="14.895" x2="7.2" y2="14.895"/>
						<polygon fill="#FFFFFF" stroke="#000000" stroke-width="0.9" stroke-linecap="round" points="3.601,14.895 7.2,22.094 
							3.601,22.094 0,22.094 						"/>
						
							<line fill="none" stroke="#000000" stroke-width="0.45" stroke-linecap="round" x1="3.601" y1="22.094" x2="3.601" y2="14.895"/>
						
							<line fill="none" stroke="#000000" stroke-width="0.45" stroke-linecap="round" x1="8.37" y1="19.934" x2="10.71" y2="17.594"/>
						
							<line fill="none" stroke="#000000" stroke-width="0.45" stroke-linecap="round" x1="8.01" y1="16.693" x2="10.35" y2="14.354"/>
						
							<line id="connector1pin_25_" fill="none" stroke="#000000" stroke-width="0.9" stroke-linecap="round" x1="3.601" y1="7.693" x2="3.601" y2="14.895"/>
						<rect id="connector1terminal_25_" x="3.6" y="7.693" fill="none" width="0.001" height="0"/>
						
							<line id="connector0pin_25_" fill="none" stroke="#666666" stroke-width="0.9" stroke-linecap="round" x1="3.601" y1="29.294" x2="3.601" y2="22.094"/>
						<rect id="connector0terminal_25_" x="3.6" y="29.293" fill="none" width="0.001" height="0.001"/>
						<path d="M12.33,15.975l-1.08,2.52l-1.44-1.439L12.33,15.975z"/>
						<path d="M11.97,12.734l-1.08,2.52L9.45,13.814L11.97,12.734z"/>
					</g>
				</g>
			</g>
			<g>
				<g>
					<g id="schematic_17_">
						
							<line fill="none" stroke="#000000" stroke-width="0.9" stroke-linecap="round" x1="100.799" y1="14.894" x2="104.4" y2="14.894"/>
						<line fill="none" stroke="#000000" stroke-width="0.9" stroke-linecap="round" x1="104.4" y1="14.894" x2="108" y2="14.894"/>
						<polygon fill="#FFFFFF" stroke="#000000" stroke-width="0.9" stroke-linecap="round" points="104.4,14.894 108,22.093 
							104.4,22.093 100.799,22.093 						"/>
						
							<line fill="none" stroke="#000000" stroke-width="0.45" stroke-linecap="round" x1="104.4" y1="22.093" x2="104.4" y2="14.894"/>
						
							<line fill="none" stroke="#000000" stroke-width="0.45" stroke-linecap="round" x1="109.169" y1="19.933" x2="111.509" y2="17.593"/>
						
							<line fill="none" stroke="#000000" stroke-width="0.45" stroke-linecap="round" x1="108.809" y1="16.692" x2="111.149" y2="14.353"/>
						
							<line id="connector1pin_17_" fill="none" stroke="#000000" stroke-width="0.9" stroke-linecap="round" x1="104.4" y1="7.692" x2="104.4" y2="14.894"/>
						<rect id="connector1terminal_17_" x="104.399" y="7.692" fill="none" width="0.001" height="0"/>
						
							<line id="connector0pin_17_" fill="none" stroke="#666666" stroke-width="0.9" stroke-linecap="round" x1="104.4" y1="29.293" x2="104.4" y2="22.093"/>
						<rect id="connector0terminal_17_" x="104.399" y="29.292" fill="none" width="0.001" height="0.001"/>
						<path d="M113.129,15.974l-1.08,2.52l-1.44-1.439L113.129,15.974z"/>
						<path d="M112.769,12.733l-1.08,2.52l-1.439-1.439L112.769,12.733z"/>
					</g>
				</g>
			</g>
		</g>
		<g>
			<g>
				<g>
					<g id="schematic_24_">
						<rect id="connector0terminal_24_" x="89.999" y="22.092" fill="none" width="0.001" height="0.001"/>
					</g>
				</g>
			</g>
			<g>
				<g>
					<g id="schematic_23_">
						<rect id="connector0terminal_23_" x="75.599" y="22.092" fill="none" width="0.001" height="0.001"/>
					</g>
				</g>
			</g>
			<g>
				<g>
					<g id="schematic_22_">
						<rect id="connector0terminal_22_" x="61.199" y="22.092" fill="none" width="0.001" height="0.001"/>
					</g>
				</g>
			</g>
			<g>
				<g>
					<g id="schematic_21_">
						<rect id="connector0terminal_21_" x="46.799" y="22.092" fill="none" width="0.001" height="0.001"/>
					</g>
				</g>
			</g>
			<g>
				<g>
					<g id="schematic_20_">
						<rect id="connector0terminal_20_" x="32.399" y="22.092" fill="none" width="0.001" height="0.001"/>
					</g>
				</g>
			</g>
			<g>
				<g>
					<g id="schematic_19_">
						<rect id="connector0terminal_19_" x="18" y="22.092" fill="none" width="0.001" height="0.001"/>
					</g>
				</g>
			</g>
			<g>
				<g>
					<g id="schematic_18_">
						<rect id="connector0terminal_18_" x="3.6" y="22.092" fill="none" width="0.001" height="0.001"/>
					</g>
				</g>
			</g>
		</g>
		<g>
			<g>
				<g>
					<g id="schematic_9_">
						<rect id="connector1terminal_9_" x="104.399" y="29.785" fill="none" width="0.001" height="0"/>
					</g>
				</g>
			</g>
			<g>
				<g>
					<g id="schematic_8_">
						<rect id="connector1terminal_8_" x="89.999" y="29.785" fill="none" width="0.001" height="0"/>
					</g>
				</g>
			</g>
			<g>
				<g>
					<g id="schematic_7_">
						<rect id="connector1terminal_7_" x="75.599" y="29.785" fill="none" width="0.001" height="0"/>
					</g>
				</g>
			</g>
			<g>
				<g>
					<g id="schematic_6_">
						<rect id="connector1terminal_6_" x="61.199" y="29.785" fill="none" width="0.001" height="0"/>
					</g>
				</g>
			</g>
			<g>
				<g>
					<g id="schematic_5_">
						<rect id="connector1terminal_5_" x="46.799" y="29.785" fill="none" width="0.001" height="0"/>
					</g>
				</g>
			</g>
			<g>
				<g>
					<g id="schematic_4_">
						<rect id="connector1terminal_4_" x="32.399" y="29.785" fill="none" width="0.001" height="0"/>
					</g>
				</g>
			</g>
			<g>
				<g>
					<g id="schematic_3_">
						<rect id="connector1terminal_3_" x="18" y="29.785" fill="none" width="0.001" height="0"/>
					</g>
				</g>
			</g>
			<g>
				<g>
					<g id="schematic_2_">
						<rect id="connector1terminal_1_" x="3.6" y="29.785" fill="none" width="0.001" height="0"/>
					</g>
				</g>
			</g>
		</g>
	</g>
	<text transform="matrix(1 0 0 1 106.1997 28.9849)" fill="#555555" font-family="'ArialMT'" font-size="3">5</text>
	<text transform="matrix(1 0 0 1 91.7998 28.9849)" fill="#555555" font-family="'ArialMT'" font-size="3">10</text>
	<text transform="matrix(1 0 0 1 55.5298 5.1929)" fill="#555555" font-family="'ArialMT'" font-size="3">3, 8</text>
	<text transform="matrix(1 0 0 1 77.3999 28.9849)" fill="#555555" font-family="'ArialMT'" font-size="3">9</text>
	<text transform="matrix(1 0 0 1 63 28.9849)" fill="#555555" font-family="'ArialMT'" font-size="3">1</text>
	<text transform="matrix(1 0 0 1 48.6001 28.9849)" fill="#555555" font-family="'ArialMT'" font-size="3">2</text>
	<text transform="matrix(1 0 0 1 34.2002 28.9849)" fill="#555555" font-family="'ArialMT'" font-size="3">4</text>
	<text transform="matrix(1 0 0 1 19.8003 28.9849)" fill="#555555" font-family="'ArialMT'" font-size="3">6</text>
	<text transform="matrix(1 0 0 1 5.4004 28.9849)" fill="#555555" font-family="'ArialMT'" font-size="3">7</text>
	
		<line fill="none" stroke="#000000" stroke-width="0.9" stroke-linecap="round" stroke-miterlimit="10" x1="54" y1="7.693" x2="54" y2="0.493"/>
	<g>
		<g>
			<line fill="none" stroke="#CCCCCC" stroke-width="0.5" stroke-linecap="round" x1="7.075" y1="13.484" x2="4.885" y2="13.484"/>
			<line fill="none" stroke="#CCCCCC" stroke-width="0.5" stroke-linecap="round" x1="5.25" y1="11.295" x2="7.44" y2="11.295"/>
			<line fill="none" stroke="#CCCCCC" stroke-width="0.5" stroke-linecap="round" x1="7.806" y1="13.484" x2="7.806" y2="13.484"/>
			<line fill="none" stroke="#CCCCCC" stroke-width="0.5" stroke-linecap="round" x1="5.25" y1="11.295" x2="4.885" y2="13.484"/>
			<line fill="none" stroke="#CCCCCC" stroke-width="0.5" stroke-linecap="round" x1="5.615" y1="9.103" x2="5.25" y2="11.295"/>
			<line fill="none" stroke="#CCCCCC" stroke-width="0.5" stroke-linecap="round" x1="7.44" y1="11.295" x2="7.075" y2="13.484"/>
			<line fill="none" stroke="#CCCCCC" stroke-width="0.5" stroke-linecap="round" x1="7.806" y1="9.103" x2="7.44" y2="11.295"/>
			<line fill="none" stroke="#000000" stroke-width="0.5" stroke-linecap="round" x1="7.806" y1="9.103" x2="5.615" y2="9.103"/>
		</g>
		<g>
			<line fill="none" stroke="#CCCCCC" stroke-width="0.5" stroke-linecap="round" x1="22.179" y1="9.103" x2="19.989" y2="9.103"/>
			
				<line fill="none" stroke="#CCCCCC" stroke-width="0.5" stroke-linecap="round" x1="21.449" y1="13.484" x2="19.259" y2="13.484"/>
			
				<line fill="none" stroke="#CCCCCC" stroke-width="0.5" stroke-linecap="round" x1="19.624" y1="11.295" x2="21.815" y2="11.295"/>
			
				<line fill="none" stroke="#CCCCCC" stroke-width="0.5" stroke-linecap="round" x1="22.179" y1="13.484" x2="22.179" y2="13.484"/>
			
				<line fill="none" stroke="#CCCCCC" stroke-width="0.5" stroke-linecap="round" x1="19.624" y1="11.295" x2="19.259" y2="13.484"/>
			<line fill="none" stroke="#CCCCCC" stroke-width="0.5" stroke-linecap="round" x1="19.989" y1="9.103" x2="19.624" y2="11.295"/>
			
				<line fill="none" stroke="#CCCCCC" stroke-width="0.5" stroke-linecap="round" x1="21.815" y1="11.295" x2="21.449" y2="13.484"/>
			<line fill="none" stroke="#000000" stroke-width="0.5" stroke-linecap="round" x1="22.18" y1="9.103" x2="21.815" y2="11.295"/>
		</g>
		<g>
			<line fill="none" stroke="#CCCCCC" stroke-width="0.5" stroke-linecap="round" x1="36.554" y1="9.103" x2="34.363" y2="9.103"/>
			
				<line fill="none" stroke="#CCCCCC" stroke-width="0.5" stroke-linecap="round" x1="35.824" y1="13.484" x2="33.633" y2="13.484"/>
			
				<line fill="none" stroke="#CCCCCC" stroke-width="0.5" stroke-linecap="round" x1="33.999" y1="11.295" x2="36.189" y2="11.295"/>
			
				<line fill="none" stroke="#CCCCCC" stroke-width="0.5" stroke-linecap="round" x1="36.554" y1="13.484" x2="36.554" y2="13.484"/>
			
				<line fill="none" stroke="#CCCCCC" stroke-width="0.5" stroke-linecap="round" x1="33.999" y1="11.295" x2="33.633" y2="13.484"/>
			<line fill="none" stroke="#CCCCCC" stroke-width="0.5" stroke-linecap="round" x1="34.363" y1="9.103" x2="33.999" y2="11.295"/>
			<line fill="none" stroke="#CCCCCC" stroke-width="0.5" stroke-linecap="round" x1="36.554" y1="9.103" x2="36.189" y2="11.295"/>
			
				<line fill="none" stroke="#000000" stroke-width="0.5" stroke-linecap="round" x1="36.189" y1="11.295" x2="35.824" y2="13.484"/>
		</g>
		<g>
			<line fill="none" stroke="#CCCCCC" stroke-width="0.5" stroke-linecap="round" x1="50.927" y1="9.103" x2="48.738" y2="9.103"/>
			
				<line fill="none" stroke="#CCCCCC" stroke-width="0.5" stroke-linecap="round" x1="48.373" y1="11.295" x2="50.563" y2="11.295"/>
			
				<line fill="none" stroke="#CCCCCC" stroke-width="0.5" stroke-linecap="round" x1="50.927" y1="13.484" x2="50.927" y2="13.484"/>
			
				<line fill="none" stroke="#CCCCCC" stroke-width="0.5" stroke-linecap="round" x1="48.373" y1="11.295" x2="48.007" y2="13.484"/>
			<line fill="none" stroke="#CCCCCC" stroke-width="0.5" stroke-linecap="round" x1="48.738" y1="9.103" x2="48.373" y2="11.295"/>
			
				<line fill="none" stroke="#CCCCCC" stroke-width="0.5" stroke-linecap="round" x1="50.563" y1="11.295" x2="50.198" y2="13.484"/>
			<line fill="none" stroke="#CCCCCC" stroke-width="0.5" stroke-linecap="round" x1="50.928" y1="9.103" x2="50.563" y2="11.295"/>
			
				<line fill="none" stroke="#000000" stroke-width="0.5" stroke-linecap="round" x1="50.198" y1="13.484" x2="48.007" y2="13.484"/>
		</g>
		<g>
			<line fill="none" stroke="#CCCCCC" stroke-width="0.5" stroke-linecap="round" x1="65.302" y1="9.103" x2="63.112" y2="9.103"/>
			
				<line fill="none" stroke="#CCCCCC" stroke-width="0.5" stroke-linecap="round" x1="64.572" y1="13.484" x2="62.381" y2="13.484"/>
			
				<line fill="none" stroke="#CCCCCC" stroke-width="0.5" stroke-linecap="round" x1="62.747" y1="11.295" x2="64.937" y2="11.295"/>
			
				<line fill="none" stroke="#CCCCCC" stroke-width="0.5" stroke-linecap="round" x1="65.302" y1="13.484" x2="65.302" y2="13.484"/>
			<line fill="none" stroke="#CCCCCC" stroke-width="0.5" stroke-linecap="round" x1="63.113" y1="9.103" x2="62.747" y2="11.295"/>
			
				<line fill="none" stroke="#CCCCCC" stroke-width="0.5" stroke-linecap="round" x1="64.937" y1="11.295" x2="64.572" y2="13.484"/>
			<line fill="none" stroke="#CCCCCC" stroke-width="0.5" stroke-linecap="round" x1="65.302" y1="9.103" x2="64.937" y2="11.295"/>
			
				<line fill="none" stroke="#000000" stroke-width="0.5" stroke-linecap="round" x1="62.747" y1="11.295" x2="62.381" y2="13.484"/>
		</g>
		<g>
			<line fill="none" stroke="#CCCCCC" stroke-width="0.5" stroke-linecap="round" x1="79.675" y1="9.103" x2="77.486" y2="9.103"/>
			
				<line fill="none" stroke="#CCCCCC" stroke-width="0.5" stroke-linecap="round" x1="78.946" y1="13.484" x2="76.756" y2="13.484"/>
			
				<line fill="none" stroke="#CCCCCC" stroke-width="0.5" stroke-linecap="round" x1="77.121" y1="11.295" x2="79.311" y2="11.295"/>
			
				<line fill="none" stroke="#CCCCCC" stroke-width="0.5" stroke-linecap="round" x1="79.675" y1="13.484" x2="79.675" y2="13.484"/>
			
				<line fill="none" stroke="#CCCCCC" stroke-width="0.5" stroke-linecap="round" x1="77.121" y1="11.295" x2="76.756" y2="13.484"/>
			<line fill="none" stroke="#000000" stroke-width="0.5" stroke-linecap="round" x1="77.486" y1="9.103" x2="77.121" y2="11.295"/>
			
				<line fill="none" stroke="#CCCCCC" stroke-width="0.5" stroke-linecap="round" x1="79.311" y1="11.295" x2="78.946" y2="13.484"/>
			<line fill="none" stroke="#CCCCCC" stroke-width="0.5" stroke-linecap="round" x1="79.675" y1="9.103" x2="79.311" y2="11.295"/>
		</g>
		<g>
			<line fill="none" stroke="#CCCCCC" stroke-width="0.5" stroke-linecap="round" x1="94.05" y1="9.103" x2="91.86" y2="9.103"/>
			<line fill="none" stroke="#CCCCCC" stroke-width="0.5" stroke-linecap="round" x1="93.321" y1="13.484" x2="91.13" y2="13.484"/>
			<line fill="none" stroke="#CCCCCC" stroke-width="0.5" stroke-linecap="round" x1="94.05" y1="13.484" x2="94.05" y2="13.484"/>
			<line fill="none" stroke="#CCCCCC" stroke-width="0.5" stroke-linecap="round" x1="91.496" y1="11.295" x2="91.13" y2="13.484"/>
			<line fill="none" stroke="#CCCCCC" stroke-width="0.5" stroke-linecap="round" x1="91.862" y1="9.103" x2="91.496" y2="11.295"/>
			
				<line fill="none" stroke="#CCCCCC" stroke-width="0.5" stroke-linecap="round" x1="93.685" y1="11.295" x2="93.321" y2="13.484"/>
			<line fill="none" stroke="#CCCCCC" stroke-width="0.5" stroke-linecap="round" x1="94.05" y1="9.103" x2="93.685" y2="11.295"/>
			
				<line fill="none" stroke="#000000" stroke-width="0.5" stroke-linecap="round" x1="91.496" y1="11.295" x2="93.685" y2="11.295"/>
		</g>
		<g>
			<line fill="none" stroke="#CCCCCC" stroke-width="0.5" stroke-linecap="round" x1="108.418" y1="9.103" x2="106.24" y2="9.103"/>
			
				<line fill="none" stroke="#CCCCCC" stroke-width="0.5" stroke-linecap="round" x1="107.695" y1="13.484" x2="105.511" y2="13.484"/>
			
				<line fill="none" stroke="#CCCCCC" stroke-width="0.5" stroke-linecap="round" x1="105.869" y1="11.295" x2="108.058" y2="11.295"/>
			
				<line fill="none" stroke="#CCCCCC" stroke-width="0.5" stroke-linecap="round" x1="105.869" y1="11.295" x2="105.511" y2="13.484"/>
			
				<line fill="none" stroke="#CCCCCC" stroke-width="0.5" stroke-linecap="round" x1="106.24" y1="9.103" x2="105.869" y2="11.295"/>
			
				<line fill="none" stroke="#CCCCCC" stroke-width="0.5" stroke-linecap="round" x1="108.058" y1="11.295" x2="107.695" y2="13.484"/>
			
				<line fill="none" stroke="#CCCCCC" stroke-width="0.5" stroke-linecap="round" x1="108.418" y1="9.103" x2="108.058" y2="11.295"/>
		</g>
	</g>
</g>
<g>
	<rect id="connector0terminal_9_" x="104.399" y="22.093" fill="none" width="0.001" height="0.001"/>
</g>
</svg>
