<?xml version="1.0" encoding="utf-8"?>
<!-- Generator: Adobe Illustrator 15.1.0, SVG Export Plug-In . SVG Version: 6.00 Build 0)  -->
<!DOCTYPE svg PUBLIC "-//W3C//DTD SVG 1.1//EN" "http://www.w3.org/Graphics/SVG/1.1/DTD/svg11.dtd">
<svg version="1.1" id="Layer_1" xmlns:svg="http://www.w3.org/2000/svg"
	 xmlns="http://www.w3.org/2000/svg" xmlns:xlink="http://www.w3.org/1999/xlink" x="0px" y="0px" width="32.508px"
	 height="25.818px" viewBox="0 0 32.508 25.818" enable-background="new 0 0 32.508 25.818" xml:space="preserve">
<g id="schematic">
	<polyline fill="none" stroke="#000000" stroke-width="0.9" stroke-linecap="round" points="18.107,10.969 21.707,7.368 
		25.311,10.969 	"/>
	<polyline fill="none" stroke="#000000" stroke-width="0.9" stroke-linecap="round" points="25.311,3.768 11.674,3.768 8.074,7.368 
		4.476,3.768 	"/>
	
		<line fill="none" stroke="#000000" stroke-width="0.1524" stroke-linecap="round" x1="25.311" y1="10.969" x2="25.311" y2="10.969"/>
	<polyline fill="none" stroke="#000000" stroke-width="0.9" stroke-linecap="round" points="14.507,18.166 18.107,14.568 
		21.707,18.166 25.311,18.166 	"/>
	<polyline fill="none" stroke="#000000" stroke-width="0.9" stroke-linecap="round" points="10.908,25.367 14.507,21.768 
		18.105,25.367 25.311,25.367 	"/>
	<rect y="3.529" width="3.709" height="22.116"/>
	
		<line id="connector0pin" fill="none" stroke="#666666" stroke-width="0.9" stroke-linecap="round" x1="32.508" y1="3.768" x2="25.308" y2="3.768"/>
	<path id="connector0terminal" fill="none" d="M32.508,3.768L32.508,3.768L32.508,3.768z"/>
	
		<line id="connector1pin" fill="none" stroke="#666666" stroke-width="0.9" stroke-linecap="round" x1="32.508" y1="25.367" x2="25.308" y2="25.367"/>
	<path id="connector1terminal" fill="none" d="M32.508,25.367L32.508,25.367L32.508,25.367z"/>
	
		<line id="connector2pin" fill="none" stroke="#000000" stroke-width="0.1524" stroke-linecap="round" x1="32.508" y1="10.969" x2="25.311" y2="10.969"/>
	<path id="connector2terminal" fill="none" d="M32.508,10.969L32.508,10.969L32.508,10.969z"/>
	<text transform="matrix(1 0 0 1 22.6621 2.5947)" font-family="'ArialMT'" font-size="3.024">Sleeve</text>
	<text transform="matrix(1 0 0 1 24.1016 24.3457)" font-family="'ArialMT'" font-size="3.024">Ring2</text>
	<text transform="matrix(1 0 0 1 24.4453 17.0117)" font-family="'ArialMT'" font-size="3.024">Ring1</text>
	<text transform="matrix(1 0 0 1 27.707 9.6777)" font-family="'ArialMT'" font-size="3.024">Tip</text>
	
		<line id="connector3pin" fill="none" stroke="#666666" stroke-width="0.9" stroke-linecap="round" x1="32.508" y1="10.969" x2="25.308" y2="10.969"/>
	<path id="connector3terminal" fill="none" d="M32.508,10.969L32.508,10.969L32.508,10.969z"/>
	
		<line id="connector4pin" fill="none" stroke="#666666" stroke-width="0.9" stroke-linecap="round" x1="32.508" y1="18.166" x2="25.308" y2="18.166"/>
	<path id="connector4terminal" fill="none" d="M32.508,18.166L32.508,18.166L32.508,18.166z"/>
</g>
</svg>
