<?xml version="1.0" encoding="utf-8"?>
<!-- Generator: Adobe Illustrator 15.1.0, SVG Export Plug-In . SVG Version: 6.00 Build 0)  -->
<!DOCTYPE svg PUBLIC "-//W3C//DTD SVG 1.1//EN" "http://www.w3.org/Graphics/SVG/1.1/DTD/svg11.dtd">
<svg version="1.1" id="Ebene_1" xmlns:svg="http://www.w3.org/2000/svg"
	 xmlns="http://www.w3.org/2000/svg" xmlns:xlink="http://www.w3.org/1999/xlink" x="0px" y="0px" width="8.049px" height="21.6px"
	 viewBox="0 0 8.049 21.6" enable-background="new 0 0 8.049 21.6" xml:space="preserve">
<g id="schematic">
	<polyline fill="none" stroke="#000000" stroke-width="0.7" stroke-linecap="round" points="7.632,12.342 7.632,14.4 4.031,14.4 	
		"/>
	<polyline fill="none" stroke="#000000" stroke-width="0.7" stroke-linecap="round" points="4.031,14.4 0.432,14.4 0.432,12.342 	
		"/>
	<polygon fill="#FFFFFF" stroke="#000000" stroke-width="0.7" stroke-linecap="round" points="4.031,14.4 0.432,7.2 4.031,7.2 
		7.632,7.2 	"/>
	<line fill="none" stroke="#000000" stroke-width="0.45" stroke-linecap="round" x1="4.031" y1="7.2" x2="4.031" y2="14.4"/>
	
		<line id="connector1pin" fill="none" stroke="#787878" stroke-width="0.7" stroke-linecap="round" x1="4.031" y1="21.6" x2="4.031" y2="14.4"/>
	<rect id="connector1terminal" x="4.031" y="21.6" fill="none" width="0.001" height="0.001"/>
	<g transform="translate(3.429,6.4262)">
		<g transform="rotate(270)">
			<text transform="matrix(1 0 0 1 -12.4149 -0.3284)" fill="#787878" font-family="'DroidSans'" font-size="2">2</text>
		</g>
	</g>
	
		<line id="connector0pin" fill="none" stroke="#787878" stroke-width="0.7" stroke-linecap="round" x1="4.031" y1="0" x2="4.031" y2="7.2"/>
	<polygon id="connector0terminal" fill="none" stroke="#787878" stroke-miterlimit="10" points="4.031,0 4.032,0 4.032,0 	"/>
	<g transform="translate(3.429,1.3462)">
		<g transform="rotate(270)">
			<text transform="matrix(1 0 0 1 -3.0945 -0.3284)" fill="#787878" font-family="'DroidSans'" font-size="2">1</text>
		</g>
	</g>
</g>
</svg>
