<?xml version="1.0" encoding="utf-8"?>
<!-- Generator: Adobe Illustrator 15.1.0, SVG Export Plug-In . SVG Version: 6.00 Build 0)  -->
<!DOCTYPE svg PUBLIC "-//W3C//DTD SVG 1.1//EN" "http://www.w3.org/Graphics/SVG/1.1/DTD/svg11.dtd">
<svg version="1.1" id="svg" xmlns:xml="http://www.w3.org/XML/1998/namespace"
	 xmlns="http://www.w3.org/2000/svg" xmlns:xlink="http://www.w3.org/1999/xlink" x="0px" y="0px" width="19.873px" height="43.2px"
	 viewBox="0 0 19.873 43.2" enable-background="new 0 0 19.873 43.2" xml:space="preserve">
<g id="schematic">
	<rect id="connector2pin" x="6.882" width="0.637" height="3.281"/>
	<rect id="connector2terminal" x="7.055" y="0.011" width="0.29" height="0.231"/>
	<rect id="connector0pin" x="16.591" y="21.282" width="3.282" height="0.636"/>
	<rect id="connector0terminal" x="19.849" y="21.467" width="0.231" height="0.291"/>
	<rect id="connector1pin" x="6.882" y="39.688" width="0.636" height="3.282"/>
	<rect id="connector1terminal" x="7.066" y="42.969" width="0.29" height="0.23"/>
	
		<rect x="0.458" y="6.882" fill="#FFFFFF" stroke="#000000" stroke-width="0.9" stroke-linecap="round" width="13.484" height="28.8"/>
	<g>
		<g>
			<g>
				<g id="schematic_2_">
					<g>
						<polygon points="3.695,14.249 4.031,15.177 3.199,14.644 3.447,14.445 						"/>
						<path d="M2.909,14.658l0.432-0.345l0.248-0.198l0.184-0.146l0.585,1.621L2.909,14.658L2.909,14.658z"/>
						<path d="M3.802,15.162L2.21,13.167c-0.058-0.074-0.046-0.18,0.028-0.238l0,0c0.072-0.059,0.179-0.047,0.237,0.026l0,0
							l1.592,1.996c0.058,0.073,0.047,0.179-0.027,0.238l0,0c-0.031,0.024-0.069,0.037-0.106,0.037l0,0
							C3.885,15.226,3.835,15.203,3.802,15.162L3.802,15.162z"/>
						<polygon points="4.789,13.263 5.125,14.192 4.293,13.659 4.541,13.461 						"/>
						<path d="M4.002,13.674l0.433-0.345l0.248-0.197l0.184-0.148l0.587,1.622L4.002,13.674L4.002,13.674z"/>
						<path d="M4.896,14.177l-1.24-1.553c-0.058-0.074-0.046-0.18,0.028-0.238l0,0c0.072-0.059,0.18-0.046,0.238,0.026l0,0
							l1.239,1.554c0.059,0.073,0.047,0.179-0.027,0.238l0,0c-0.032,0.024-0.068,0.037-0.106,0.037l0,0
							C4.979,14.241,4.929,14.219,4.896,14.177L4.896,14.177z"/>
					</g>
				</g>
			</g>
			<g>
				<polygon fill="none" stroke="#000000" stroke-width="0.4" stroke-linecap="round" stroke-linejoin="round" points="
					4.932,18.497 6.832,15.209 8.729,18.497 				"/>
				
					<line fill="none" stroke="#000000" stroke-width="0.4" stroke-linecap="round" stroke-linejoin="round" x1="4.932" y1="15.209" x2="8.729" y2="15.209"/>
			</g>
		</g>
		<g>
			
				<line fill="none" stroke="#000000" stroke-width="0.4" stroke-linecap="round" stroke-linejoin="round" x1="8.978" y1="27.713" x2="5.182" y2="27.713"/>
			<polygon fill="none" stroke="#000000" stroke-width="0.4" stroke-linecap="round" stroke-linejoin="round" points="8.978,24.428 
				7.081,27.713 5.182,24.428 			"/>
			<g id="schematic_3_">
				<g>
					<polygon points="11.315,28.945 11.649,29.875 10.817,29.342 11.065,29.145 					"/>
					<path d="M10.526,29.356l0.433-0.345l0.248-0.199l0.185-0.147l0.586,1.621L10.526,29.356L10.526,29.356z"/>
					<path d="M11.421,29.86l-1.593-1.996c-0.057-0.072-0.046-0.18,0.028-0.238l0,0c0.072-0.058,0.18-0.047,0.237,0.027l0,0
						l1.592,1.996c0.059,0.073,0.049,0.18-0.026,0.237l0,0c-0.03,0.024-0.068,0.036-0.106,0.036l0,0
						C11.503,29.924,11.455,29.901,11.421,29.86L11.421,29.86z"/>
					<path d="M9.129,29.674l0.432-0.346l0.248-0.197l0.184-0.147l0.587,1.621L9.129,29.674L9.129,29.674z"/>
					<path d="M10.022,30.178l-1.239-1.553c-0.058-0.073-0.047-0.182,0.027-0.238l0,0c0.073-0.059,0.181-0.047,0.239,0.027l0,0
						l1.238,1.553c0.058,0.072,0.046,0.179-0.027,0.236l0,0c-0.03,0.024-0.068,0.039-0.106,0.039l0,0
						C10.104,30.24,10.056,30.22,10.022,30.178L10.022,30.178z"/>
				</g>
			</g>
		</g>
	</g>
	
		<line fill="none" stroke="#787878" stroke-width="0.7" stroke-linecap="round" stroke-linejoin="round" x1="13.843" y1="21.6" x2="20.08" y2="21.6"/>
	
		<line fill="none" stroke="#787878" stroke-width="0.7" stroke-linecap="round" stroke-linejoin="round" x1="7.2" y1="7.2" x2="7.2" y2="0"/>
	
		<line fill="none" stroke="#787878" stroke-width="0.7" stroke-linecap="round" stroke-linejoin="round" x1="7.2" y1="43.2" x2="7.2" y2="36"/>
</g>
<g id="label0_1_" enable-background="new    ">
	<g>
		<text transform="matrix(1 0 0 1 9.1294 40.5942)" fill="#787878" font-family="'DroidSans'" font-size="2">3</text>
	</g>
	<g>
		<text transform="matrix(1 0 0 1 16.2549 20.1567)" fill="#787878" font-family="'DroidSans'" font-size="2">2</text>
	</g>
	<g>
		<text transform="matrix(1 0 0 1 9.1294 4.644)" fill="#787878" font-family="'DroidSans'" font-size="2">1</text>
	</g>
</g>
<g>
	<text transform="matrix(1 0 0 1 3.4487 11.7866)" fill="#787878" font-family="'DroidSans'" font-size="4.5">Vcc</text>
</g>
<g>
	<text transform="matrix(1 0 0 1 3.1987 22.7866)" fill="#787878" font-family="'DroidSans'" font-size="4.5">Vout</text>
</g>
<g>
	<text transform="matrix(1 0 0 1 2.1987 34.5366)" fill="#787878" font-family="'DroidSans'" font-size="4.5">GND</text>
</g>
</svg>
