<?xml version="1.0" encoding="utf-8"?>
<!-- Generator: Adobe Illustrator 15.1.0, SVG Export Plug-In . SVG Version: 6.00 Build 0)  -->
<!DOCTYPE svg PUBLIC "-//W3C//DTD SVG 1.1//EN" "http://www.w3.org/Graphics/SVG/1.1/DTD/svg11.dtd">
<svg version="1.1" id="Ebene_1" xmlns:svg="http://www.w3.org/2000/svg"
	 xmlns="http://www.w3.org/2000/svg" xmlns:xlink="http://www.w3.org/1999/xlink" x="0px" y="0px" width="13.68px"
	 height="22.032px" viewBox="0.432 0 13.68 22.032" enable-background="new 0.432 0 13.68 22.032" xml:space="preserve">
<g id="schematic">
	<line fill="none" stroke="#000000" stroke-width="0.9" stroke-linecap="round" x1="13.752" y1="14.616" x2="10.152" y2="14.616"/>
	<line fill="none" stroke="#000000" stroke-width="0.9" stroke-linecap="round" x1="10.152" y1="14.616" x2="6.552" y2="14.616"/>
	<polygon fill="#FFFFFF" stroke="#000000" stroke-width="0.9" stroke-linecap="round" points="10.152,14.616 6.552,7.416 
		10.152,7.416 13.752,7.416 	"/>
	<line fill="none" stroke="#000000" stroke-width="0.45" stroke-linecap="round" x1="10.152" y1="7.416" x2="10.152" y2="14.616"/>
	<line fill="none" stroke="#000000" stroke-width="0.45" stroke-linecap="round" x1="4.392" y1="9.576" x2="2.052" y2="11.916"/>
	<line fill="none" stroke="#000000" stroke-width="0.45" stroke-linecap="round" x1="4.752" y1="12.816" x2="2.412" y2="15.156"/>
	
		<line id="connector1pin" fill="none" stroke="#555555" stroke-width="0.9" stroke-linecap="round" x1="10.152" y1="21.816" x2="10.152" y2="14.616"/>
	<rect id="connector1terminal" x="10.152" y="21.816" fill="none" width="0.001" height="0.001"/>
	<g transform="translate(3.429,6.4262)">
		<g transform="rotate(270)">
			<text transform="matrix(1 0 0 1 -12.6309 5.7919)" fill="#555555" font-family="'ArialMT'" font-size="3.024">2</text>
		</g>
	</g>
	
		<line id="connector0pin" fill="none" stroke="#555555" stroke-width="0.9" stroke-linecap="round" x1="10.152" y1="0.216" x2="10.152" y2="7.416"/>
	<rect id="connector0terminal" x="10.152" y="0.216" fill="none" width="0.001" height="0"/>
	<g transform="translate(3.429,1.3462)">
		<g transform="rotate(270)">
			<text transform="matrix(1 0 0 1 -3.3105 5.7919)" fill="#555555" font-family="'ArialMT'" font-size="3.024">1</text>
		</g>
	</g>
	<path d="M0.432,13.536l1.08-2.52l1.44,1.439L0.432,13.536z"/>
	<path d="M0.792,16.776l1.08-2.52l1.439,1.439L0.792,16.776z"/>
</g>
</svg>
