<?xml version="1.0" encoding="utf-8"?>
<!-- Generator: Adobe Illustrator 15.1.0, SVG Export Plug-In . SVG Version: 6.00 Build 0)  -->
<!DOCTYPE svg PUBLIC "-//W3C//DTD SVG 1.1//EN" "http://www.w3.org/Graphics/SVG/1.1/DTD/svg11.dtd">
<svg version="1.1" id="Ebene_1" xmlns:svg="http://www.w3.org/2000/svg"
	 xmlns="http://www.w3.org/2000/svg" xmlns:xlink="http://www.w3.org/1999/xlink" x="0px" y="0px" width="13.68px"
	 height="22.031px" viewBox="0 0 13.68 22.031" enable-background="new 0 0 13.68 22.031" xml:space="preserve">
<g id="schematic">
	<line fill="none" stroke="#000000" stroke-width="0.7" stroke-linecap="round" x1="13.5" y1="14.616" x2="9.9" y2="14.616"/>
	<line fill="none" stroke="#000000" stroke-width="0.7" stroke-linecap="round" x1="9.9" y1="14.616" x2="6.3" y2="14.616"/>
	<polygon fill="#FFFFFF" stroke="#000000" stroke-width="0.7" stroke-linecap="round" points="9.9,14.616 6.3,7.416 9.9,7.416 
		13.5,7.416 	"/>
	<line fill="none" stroke="#000000" stroke-width="0.45" stroke-linecap="round" x1="9.9" y1="7.416" x2="9.9" y2="14.616"/>
	<line fill="none" stroke="#000000" stroke-width="0.45" stroke-linecap="round" x1="4.14" y1="9.576" x2="1.8" y2="11.917"/>
	<line fill="none" stroke="#000000" stroke-width="0.45" stroke-linecap="round" x1="4.5" y1="12.816" x2="2.16" y2="15.156"/>
	
		<line id="connector1pin" fill="none" stroke="#787878" stroke-width="0.7" stroke-linecap="round" x1="9.9" y1="21.816" x2="9.9" y2="14.616"/>
	<rect id="connector1terminal" x="9.9" y="21.816" fill="none" width="0.001" height="0.001"/>
	<g transform="translate(3.429,6.4262)">
		<g transform="rotate(270)">
			<text transform="matrix(1 0 0 1 -12.6312 5.54)" fill="#787878" font-family="'DroidSans'" font-size="2">2</text>
		</g>
	</g>
	
		<line id="connector0pin" fill="none" stroke="#787878" stroke-width="0.7" stroke-linecap="round" x1="9.9" y1="0.216" x2="9.9" y2="7.416"/>
	<polygon id="connector0terminal" fill="none" stroke="#787878" stroke-miterlimit="10" points="9.9,0.216 9.901,0.216 9.901,0.216 
			"/>
	<g transform="translate(3.429,1.3462)">
		<g transform="rotate(270)">
			<text transform="matrix(1 0 0 1 -3.3108 5.54)" fill="#787878" font-family="'DroidSans'" font-size="2">1</text>
		</g>
	</g>
	<path d="M0.18,13.536l1.08-2.521l1.44,1.438L0.18,13.536z"/>
	<path d="M0.54,16.776l1.08-2.521l1.438,1.438L0.54,16.776z"/>
</g>
</svg>
