<?xml version="1.0" encoding="utf-8"?>
<!-- Generator: Adobe Illustrator 15.1.0, SVG Export Plug-In . SVG Version: 6.00 Build 0)  -->
<!DOCTYPE svg PUBLIC "-//W3C//DTD SVG 1.1//EN" "http://www.w3.org/Graphics/SVG/1.1/DTD/svg11.dtd">
<svg version="1.1"
	 id="svg" xmlns:dc="http://purl.org/dc/elements/1.1/" xmlns:rdf="http://www.w3.org/1999/02/22-rdf-syntax-ns#" xmlns:cc="http://creativecommons.org/ns#" xmlns:svg="http://www.w3.org/2000/svg"
	 xmlns="http://www.w3.org/2000/svg" xmlns:xlink="http://www.w3.org/1999/xlink" x="0px" y="0px" width="64.8px" height="36px"
	 viewBox="0 0 64.8 36" enable-background="new 0 0 64.8 36" xml:space="preserve">
<g>
	<rect x="0" y="7.2" fill="none" stroke="#000000" stroke-width="0.9" stroke-miterlimit="10" width="64.8" height="21.6"/>
	<g>
		<g>
			<line fill="none" stroke="#000000" stroke-width="0.7" stroke-linecap="round" x1="50.402" y1="21.6" x2="46.801" y2="21.6"/>
			<line fill="none" stroke="#000000" stroke-width="0.7" stroke-linecap="round" x1="54" y1="21.6" x2="50.402" y2="21.6"/>
			<polygon fill="#FFFFFF" stroke="#000000" stroke-width="0.7" stroke-linecap="round" points="46.801,14.401 50.402,14.401 
				54,14.401 50.402,21.6 			"/>
			<line fill="none" stroke="#000000" stroke-width="0.45" stroke-linecap="round" x1="50.402" y1="21.6" x2="50.402" y2="14.401"/>
			<line fill="none" stroke="#000000" stroke-width="0.7" stroke-linecap="round" x1="58.5" y1="18.901" x2="56.161" y2="16.561"/>
			<line fill="none" stroke="#000000" stroke-width="0.7" stroke-linecap="round" x1="58.142" y1="22.14" x2="55.801" y2="19.8"/>
			<line fill="none" stroke="#000000" stroke-width="0.7" stroke-linecap="round" x1="50.402" y1="14.401" x2="50.402" y2="7.2"/>
			<path d="M57.601,19.44l1.44-1.438l1.08,2.52L57.601,19.44z"/>
			<path d="M57.243,22.679l1.438-1.438l1.08,2.521L57.243,22.679z"/>
			
				<line fill="none" stroke="#787878" stroke-width="0.7" stroke-linecap="round" stroke-miterlimit="10" x1="50.399" y1="7.2" x2="50.399" y2="0"/>
			<text transform="matrix(1 0 0 1 54.0002 12.2397)" fill="#787878" font-family="'DroidSans'" font-size="2">B</text>
			<line fill="none" stroke="#000000" stroke-width="0.7" stroke-linecap="round" x1="50.402" y1="21.6" x2="50.402" y2="28.8"/>
			
				<line fill="none" stroke="#787878" stroke-width="0.7" stroke-linecap="round" stroke-miterlimit="10" x1="50.4" y1="36" x2="50.4" y2="28.8"/>
		</g>
		<g>
			<line fill="none" stroke="#000000" stroke-width="0.7" stroke-linecap="round" x1="28.802" y1="21.6" x2="25.201" y2="21.6"/>
			<line fill="none" stroke="#000000" stroke-width="0.7" stroke-linecap="round" x1="32.401" y1="21.6" x2="28.802" y2="21.6"/>
			<polygon fill="#FFFFFF" stroke="#000000" stroke-width="0.7" stroke-linecap="round" points="25.201,14.401 28.802,14.401 
				32.401,14.401 28.802,21.6 			"/>
			<line fill="none" stroke="#000000" stroke-width="0.45" stroke-linecap="round" x1="28.802" y1="21.6" x2="28.802" y2="14.401"/>
			
				<line fill="none" stroke="#000000" stroke-width="0.7" stroke-linecap="round" x1="36.901" y1="18.901" x2="34.562" y2="16.561"/>
			<line fill="none" stroke="#000000" stroke-width="0.7" stroke-linecap="round" x1="36.542" y1="22.14" x2="34.201" y2="19.8"/>
			<line fill="none" stroke="#000000" stroke-width="0.7" stroke-linecap="round" x1="28.802" y1="14.401" x2="28.802" y2="7.2"/>
			<path d="M36.001,19.44l1.44-1.438l1.08,2.52L36.001,19.44z"/>
			<path d="M35.644,22.679l1.438-1.438l1.08,2.521L35.644,22.679z"/>
			
				<line fill="none" stroke="#787878" stroke-width="0.7" stroke-linecap="round" stroke-miterlimit="10" x1="28.799" y1="7.2" x2="28.799" y2="0"/>
			<text transform="matrix(1 0 0 1 32.3997 12.2397)" fill="#787878" font-family="'DroidSans'" font-size="2">G</text>
			<line fill="none" stroke="#000000" stroke-width="0.7" stroke-linecap="round" x1="28.802" y1="21.6" x2="28.802" y2="28.8"/>
			
				<line fill="none" stroke="#787878" stroke-width="0.7" stroke-linecap="round" stroke-miterlimit="10" x1="28.8" y1="36" x2="28.8" y2="28.8"/>
		</g>
		<g>
			<line fill="none" stroke="#000000" stroke-width="0.7" stroke-linecap="round" x1="7.202" y1="21.6" x2="3.602" y2="21.6"/>
			<line fill="none" stroke="#000000" stroke-width="0.7" stroke-linecap="round" x1="10.801" y1="21.6" x2="7.202" y2="21.6"/>
			<polygon fill="#FFFFFF" stroke="#000000" stroke-width="0.7" stroke-linecap="round" points="3.602,14.401 7.202,14.401 
				10.801,14.401 7.202,21.6 			"/>
			<line fill="none" stroke="#000000" stroke-width="0.45" stroke-linecap="round" x1="7.202" y1="21.6" x2="7.202" y2="14.401"/>
			
				<line fill="none" stroke="#000000" stroke-width="0.7" stroke-linecap="round" x1="15.301" y1="18.901" x2="12.962" y2="16.561"/>
			<line fill="none" stroke="#000000" stroke-width="0.7" stroke-linecap="round" x1="14.943" y1="22.14" x2="12.602" y2="19.8"/>
			<line fill="none" stroke="#000000" stroke-width="0.7" stroke-linecap="round" x1="7.202" y1="14.401" x2="7.202" y2="7.2"/>
			<path d="M14.402,19.44l1.44-1.438l1.08,2.52L14.402,19.44z"/>
			<path d="M14.044,22.679l1.438-1.438l1.08,2.521L14.044,22.679z"/>
			
				<line fill="none" stroke="#787878" stroke-width="0.7" stroke-linecap="round" stroke-miterlimit="10" x1="7.199" y1="7.2" x2="7.199" y2="0"/>
			<text transform="matrix(1 0 0 1 10.8 12.2397)" fill="#787878" font-family="'DroidSans'" font-size="2">R</text>
			<line fill="none" stroke="#000000" stroke-width="0.7" stroke-linecap="round" x1="7.202" y1="21.6" x2="7.202" y2="28.8"/>
			
				<line fill="none" stroke="#787878" stroke-width="0.7" stroke-linecap="round" stroke-miterlimit="10" x1="7.2" y1="36" x2="7.2" y2="28.8"/>
		</g>
	</g>
</g>
</svg>
