<?xml version="1.0" encoding="UTF-8" standalone="no"?> <svg xmlns:svg="http://www.w3.org/2000/svg" xmlns="http://www.w3.org/2000/svg" version="1.2" baseProfile="tiny" x="0in" y="0in" width="0.62in" height="0.37in" viewBox="0 0 62000 37000" ><title>3terminal_screw_block.fp</title><desc>Geda footprint file '3terminal_screw_block.fp' converted by Fritzing</desc><metadata xmlns:fz='http://fritzing.org/gedametadata/1.0/' xmlns:rdf='http://www.w3.org/1999/02/22-rdf-syntax-ns#'><rdf:RDF><rdf:Description rdf:about=''><fz:attr name='geda filename'>3terminal_screw_block.fp</fz:attr><fz:attr name='fritzing version'>0.3.17b.03.22.4055</fz:attr><fz:attr name='conversion date'>06/04/2010 23:44:25</fz:attr></rdf:Description></rdf:RDF></metadata><g id="copper0">
 <circle fill="none" cx="51400" cy="20500" connectorname="1" stroke="#ffbf00" r="3950" id="connector0pin" stroke-width="3100"/>
 <circle fill="none" cx="32000" cy="20500" connectorname="2" stroke="#ffbf00" r="3950" id="connector1pin" stroke-width="3100"/>
 <circle fill="none" cx="12600" cy="20500" connectorname="3" stroke="#ffbf00" r="3950" id="connector2pin" stroke-width="3100"/>
</g>
<g id="silkscreen">
 <line fill="none" stroke="white" y1="36500" x1="12600" y2="34500" stroke-width="1000" x2="12600"/>
 <line fill="none" stroke="white" y1="36500" x1="32000" y2="34500" stroke-width="1000" x2="32000"/>
 <line fill="none" stroke="white" y1="36500" x1="51400" y2="34500" stroke-width="1000" x2="51400"/>
 <line fill="none" stroke="white" y1="3500" x1="59500" y2="3500" stroke-width="1000" x2="61500"/>
 <line fill="none" stroke="white" y1="1500" x1="59500" y2="3500" stroke-width="1000" x2="59500"/>
 <line fill="none" stroke="white" y1="1500" x1="61500" y2="1500" stroke-width="1000" x2="59500"/>
 <line fill="none" stroke="white" y1="3500" x1="500" y2="3500" stroke-width="1000" x2="2500"/>
 <line fill="none" stroke="white" y1="1500" x1="500" y2="3500" stroke-width="1000" x2="500"/>
 <line fill="none" stroke="white" y1="1500" x1="2500" y2="1500" stroke-width="1000" x2="500"/>
 <line fill="none" stroke="white" y1="500" x1="61500" y2="36500" stroke-width="1000" x2="61500"/>
 <line fill="none" stroke="white" y1="500" x1="2500" y2="500" stroke-width="1000" x2="61500"/>
 <line fill="none" stroke="white" y1="36500" x1="2500" y2="500" stroke-width="1000" x2="2500"/>
 <line fill="none" stroke="white" y1="36500" x1="61500" y2="36500" stroke-width="1000" x2="2500"/>
</g>
</svg>