<?xml version="1.0" encoding="UTF-8"?><svg baseProfile="tiny" height="4.555in" version="1.2" viewBox="0 0 49000 455500" width="0.49in" x="0in" xmlns="http://www.w3.org/2000/svg" xmlns:svg="http://www.w3.org/2000/svg" y="0in"><title>72pin45degreeSIMMconnector.fp</title><desc>Geda footprint file '72pin45degreeSIMMconnector.fp' converted by Fritzing</desc><metadata xmlns:fz="http://fritzing.org/gedametadata/1.0/" xmlns:rdf="http://www.w3.org/1999/02/22-rdf-syntax-ns#"><rdf:RDF><rdf:Description rdf:about=""><fz:attr name="geda filename">72pin45degreeSIMMconnector.fp</fz:attr><fz:attr name="fritzing version">0.3.17b.04.07.4081</fz:attr><fz:attr name="conversion date">12/04/2010 13:02:29</fz:attr><fz:attr name="dist-license">GPL</fz:attr><fz:attr name="use-license">unlimited</fz:attr><fz:attr name="author">gEDA project</fz:attr><fz:attr name="license-url">http://www.gnu.org/licenses/gpl.html</fz:attr></rdf:Description></rdf:RDF></metadata><g id="copper1"><g id="copper0">
 <circle connectorname="" cx="26750" cy="415250" fill="none" id="connector0pin" r="2750" stroke="#ff9400" stroke-width="1500"/>
 <circle connectorname="" cx="36750" cy="410250" fill="none" id="connector1pin" r="2750" stroke="#ff9400" stroke-width="1500"/>
 <circle connectorname="" cx="26750" cy="405250" fill="none" id="connector2pin" r="2750" stroke="#ff9400" stroke-width="1500"/>
 <circle connectorname="" cx="36750" cy="400250" fill="none" id="connector3pin" r="2750" stroke="#ff9400" stroke-width="1500"/>
 <circle connectorname="" cx="26750" cy="395250" fill="none" id="connector4pin" r="2750" stroke="#ff9400" stroke-width="1500"/>
 <circle connectorname="" cx="36750" cy="390250" fill="none" id="connector5pin" r="2750" stroke="#ff9400" stroke-width="1500"/>
 <circle connectorname="" cx="26750" cy="385250" fill="none" id="connector6pin" r="2750" stroke="#ff9400" stroke-width="1500"/>
 <circle connectorname="" cx="36750" cy="380250" fill="none" id="connector7pin" r="2750" stroke="#ff9400" stroke-width="1500"/>
 <circle connectorname="" cx="26750" cy="375250" fill="none" id="connector8pin" r="2750" stroke="#ff9400" stroke-width="1500"/>
 <circle connectorname="" cx="36750" cy="370250" fill="none" id="connector9pin" r="2750" stroke="#ff9400" stroke-width="1500"/>
 <circle connectorname="" cx="26750" cy="365250" fill="none" id="connector10pin" r="2750" stroke="#ff9400" stroke-width="1500"/>
 <circle connectorname="" cx="36750" cy="360250" fill="none" id="connector11pin" r="2750" stroke="#ff9400" stroke-width="1500"/>
 <circle connectorname="" cx="26750" cy="355250" fill="none" id="connector12pin" r="2750" stroke="#ff9400" stroke-width="1500"/>
 <circle connectorname="" cx="36750" cy="350250" fill="none" id="connector13pin" r="2750" stroke="#ff9400" stroke-width="1500"/>
 <circle connectorname="" cx="26750" cy="345250" fill="none" id="connector14pin" r="2750" stroke="#ff9400" stroke-width="1500"/>
 <circle connectorname="" cx="36750" cy="340250" fill="none" id="connector15pin" r="2750" stroke="#ff9400" stroke-width="1500"/>
 <circle connectorname="" cx="26750" cy="335250" fill="none" id="connector16pin" r="2750" stroke="#ff9400" stroke-width="1500"/>
 <circle connectorname="" cx="36750" cy="330250" fill="none" id="connector17pin" r="2750" stroke="#ff9400" stroke-width="1500"/>
 <circle connectorname="" cx="26750" cy="325250" fill="none" id="connector18pin" r="2750" stroke="#ff9400" stroke-width="1500"/>
 <circle connectorname="" cx="36750" cy="320250" fill="none" id="connector19pin" r="2750" stroke="#ff9400" stroke-width="1500"/>
 <circle connectorname="" cx="26750" cy="315250" fill="none" id="connector20pin" r="2750" stroke="#ff9400" stroke-width="1500"/>
 <circle connectorname="" cx="36750" cy="310250" fill="none" id="connector21pin" r="2750" stroke="#ff9400" stroke-width="1500"/>
 <circle connectorname="" cx="26750" cy="305250" fill="none" id="connector22pin" r="2750" stroke="#ff9400" stroke-width="1500"/>
 <circle connectorname="" cx="36750" cy="300250" fill="none" id="connector23pin" r="2750" stroke="#ff9400" stroke-width="1500"/>
 <circle connectorname="" cx="26750" cy="295250" fill="none" id="connector24pin" r="2750" stroke="#ff9400" stroke-width="1500"/>
 <circle connectorname="" cx="36750" cy="290250" fill="none" id="connector25pin" r="2750" stroke="#ff9400" stroke-width="1500"/>
 <circle connectorname="" cx="26750" cy="285250" fill="none" id="connector26pin" r="2750" stroke="#ff9400" stroke-width="1500"/>
 <circle connectorname="" cx="36750" cy="280250" fill="none" id="connector27pin" r="2750" stroke="#ff9400" stroke-width="1500"/>
 <circle connectorname="" cx="26750" cy="275250" fill="none" id="connector28pin" r="2750" stroke="#ff9400" stroke-width="1500"/>
 <circle connectorname="" cx="36750" cy="270250" fill="none" id="connector29pin" r="2750" stroke="#ff9400" stroke-width="1500"/>
 <circle connectorname="" cx="26750" cy="265250" fill="none" id="connector30pin" r="2750" stroke="#ff9400" stroke-width="1500"/>
 <circle connectorname="" cx="36750" cy="260250" fill="none" id="connector31pin" r="2750" stroke="#ff9400" stroke-width="1500"/>
 <circle connectorname="" cx="26750" cy="255250" fill="none" id="connector32pin" r="2750" stroke="#ff9400" stroke-width="1500"/>
 <circle connectorname="" cx="36750" cy="250250" fill="none" id="connector33pin" r="2750" stroke="#ff9400" stroke-width="1500"/>
 <circle connectorname="" cx="26750" cy="245250" fill="none" id="connector34pin" r="2750" stroke="#ff9400" stroke-width="1500"/>
 <circle connectorname="" cx="36750" cy="240250" fill="none" id="connector35pin" r="2750" stroke="#ff9400" stroke-width="1500"/>
 <circle connectorname="" cx="26750" cy="215250" fill="none" id="connector36pin" r="2750" stroke="#ff9400" stroke-width="1500"/>
 <circle connectorname="" cx="36750" cy="210250" fill="none" id="connector37pin" r="2750" stroke="#ff9400" stroke-width="1500"/>
 <circle connectorname="" cx="26750" cy="205250" fill="none" id="connector38pin" r="2750" stroke="#ff9400" stroke-width="1500"/>
 <circle connectorname="" cx="36750" cy="200250" fill="none" id="connector39pin" r="2750" stroke="#ff9400" stroke-width="1500"/>
 <circle connectorname="" cx="26750" cy="195250" fill="none" id="connector40pin" r="2750" stroke="#ff9400" stroke-width="1500"/>
 <circle connectorname="" cx="36750" cy="190250" fill="none" id="connector41pin" r="2750" stroke="#ff9400" stroke-width="1500"/>
 <circle connectorname="" cx="26750" cy="185250" fill="none" id="connector42pin" r="2750" stroke="#ff9400" stroke-width="1500"/>
 <circle connectorname="" cx="36750" cy="180250" fill="none" id="connector43pin" r="2750" stroke="#ff9400" stroke-width="1500"/>
 <circle connectorname="" cx="26750" cy="175250" fill="none" id="connector44pin" r="2750" stroke="#ff9400" stroke-width="1500"/>
 <circle connectorname="" cx="36750" cy="170250" fill="none" id="connector45pin" r="2750" stroke="#ff9400" stroke-width="1500"/>
 <circle connectorname="" cx="26750" cy="165250" fill="none" id="connector46pin" r="2750" stroke="#ff9400" stroke-width="1500"/>
 <circle connectorname="" cx="36750" cy="160250" fill="none" id="connector47pin" r="2750" stroke="#ff9400" stroke-width="1500"/>
 <circle connectorname="" cx="26750" cy="155250" fill="none" id="connector48pin" r="2750" stroke="#ff9400" stroke-width="1500"/>
 <circle connectorname="" cx="36750" cy="150250" fill="none" id="connector49pin" r="2750" stroke="#ff9400" stroke-width="1500"/>
 <circle connectorname="" cx="26750" cy="145250" fill="none" id="connector50pin" r="2750" stroke="#ff9400" stroke-width="1500"/>
 <circle connectorname="" cx="36750" cy="140250" fill="none" id="connector51pin" r="2750" stroke="#ff9400" stroke-width="1500"/>
 <circle connectorname="" cx="26750" cy="135250" fill="none" id="connector52pin" r="2750" stroke="#ff9400" stroke-width="1500"/>
 <circle connectorname="" cx="36750" cy="130250" fill="none" id="connector53pin" r="2750" stroke="#ff9400" stroke-width="1500"/>
 <circle connectorname="" cx="26750" cy="125250" fill="none" id="connector54pin" r="2750" stroke="#ff9400" stroke-width="1500"/>
 <circle connectorname="" cx="36750" cy="120250" fill="none" id="connector55pin" r="2750" stroke="#ff9400" stroke-width="1500"/>
 <circle connectorname="" cx="26750" cy="115250" fill="none" id="connector56pin" r="2750" stroke="#ff9400" stroke-width="1500"/>
 <circle connectorname="" cx="36750" cy="110250" fill="none" id="connector57pin" r="2750" stroke="#ff9400" stroke-width="1500"/>
 <circle connectorname="" cx="26750" cy="105250" fill="none" id="connector58pin" r="2750" stroke="#ff9400" stroke-width="1500"/>
 <circle connectorname="" cx="36750" cy="100250" fill="none" id="connector59pin" r="2750" stroke="#ff9400" stroke-width="1500"/>
 <circle connectorname="" cx="26750" cy="95250" fill="none" id="connector60pin" r="2750" stroke="#ff9400" stroke-width="1500"/>
 <circle connectorname="" cx="36750" cy="90250" fill="none" id="connector61pin" r="2750" stroke="#ff9400" stroke-width="1500"/>
 <circle connectorname="" cx="26750" cy="85250" fill="none" id="connector62pin" r="2750" stroke="#ff9400" stroke-width="1500"/>
 <circle connectorname="" cx="36750" cy="80250" fill="none" id="connector63pin" r="2750" stroke="#ff9400" stroke-width="1500"/>
 <circle connectorname="" cx="26750" cy="75250" fill="none" id="connector64pin" r="2750" stroke="#ff9400" stroke-width="1500"/>
 <circle connectorname="" cx="36750" cy="70250" fill="none" id="connector65pin" r="2750" stroke="#ff9400" stroke-width="1500"/>
 <circle connectorname="" cx="26750" cy="65250" fill="none" id="connector66pin" r="2750" stroke="#ff9400" stroke-width="1500"/>
 <circle connectorname="" cx="36750" cy="60250" fill="none" id="connector67pin" r="2750" stroke="#ff9400" stroke-width="1500"/>
 <circle connectorname="" cx="26750" cy="55250" fill="none" id="connector68pin" r="2750" stroke="#ff9400" stroke-width="1500"/>
 <circle connectorname="" cx="36750" cy="50250" fill="none" id="connector69pin" r="2750" stroke="#ff9400" stroke-width="1500"/>
 <circle connectorname="" cx="26750" cy="45250" fill="none" id="connector70pin" r="2750" stroke="#ff9400" stroke-width="1500"/>
 <circle connectorname="" cx="36750" cy="40250" fill="none" id="connector71pin" r="2750" stroke="#ff9400" stroke-width="1500"/>
 <circle connectorname="U10" cx="31750" cy="227750" fill="none" id="connector72pin" r="4750" stroke="#ff9400" stroke-width="0"/>
 <circle connectorname="" cx="31750" cy="447750" fill="none" id="connector73pin" r="4000" stroke="#ff9400" stroke-width="0"/>
 <circle connectorname="" cx="31750" cy="7750" fill="none" id="connector74pin" r="4000" stroke="#ff9400" stroke-width="0"/>
</g></g>
<g id="silkscreen">
 <line fill="none" stroke="white" stroke-width="500" x1="250" x2="250" y1="435250" y2="422750"/>
 <line fill="none" stroke="white" stroke-width="500" x1="2750" x2="250" y1="455250" y2="455250"/>
 <line fill="none" stroke="white" stroke-width="500" x1="7750" x2="5250" y1="455250" y2="455250"/>
 <line fill="none" stroke="white" stroke-width="500" x1="12750" x2="10250" y1="455250" y2="455250"/>
 <line fill="none" stroke="white" stroke-width="500" x1="17750" x2="15250" y1="455250" y2="455250"/>
 <line fill="none" stroke="white" stroke-width="500" x1="22750" x2="20250" y1="455250" y2="455250"/>
 <line fill="none" stroke="white" stroke-width="500" x1="250" x2="15250" y1="422750" y2="422750"/>
 <line fill="none" stroke="white" stroke-width="500" x1="250" x2="250" y1="440250" y2="437750"/>
 <line fill="none" stroke="white" stroke-width="500" x1="250" x2="250" y1="445250" y2="442750"/>
 <line fill="none" stroke="white" stroke-width="500" x1="250" x2="250" y1="450250" y2="447750"/>
 <line fill="none" stroke="white" stroke-width="500" x1="250" x2="250" y1="455250" y2="452750"/>
 <line fill="none" stroke="white" stroke-width="500" x1="15250" x2="250" y1="433250" y2="433250"/>
 <line fill="none" stroke="white" stroke-width="500" x1="15250" x2="15250" y1="444250" y2="433250"/>
 <line fill="none" stroke="white" stroke-width="500" x1="48750" x2="46750" y1="446750" y2="446750"/>
 <line fill="none" stroke="white" stroke-width="500" x1="48750" x2="48750" y1="455250" y2="446750"/>
 <line fill="none" stroke="white" stroke-width="500" x1="44250" x2="48750" y1="455250" y2="455250"/>
 <line fill="none" stroke="white" stroke-width="500" x1="48750" x2="48750" y1="34250" y2="421250"/>
 <line fill="none" stroke="white" stroke-width="500" x1="46750" x2="48750" y1="34250" y2="34250"/>
 <line fill="none" stroke="white" stroke-width="500" x1="48750" x2="46750" y1="8750" y2="8750"/>
 <line fill="none" stroke="white" stroke-width="500" x1="48750" x2="48750" y1="250" y2="8750"/>
 <line fill="none" stroke="white" stroke-width="500" x1="48750" x2="46750" y1="421250" y2="421250"/>
 <line fill="none" stroke="white" stroke-width="500" x1="250" x2="250" y1="32750" y2="22750"/>
 <line fill="none" stroke="white" stroke-width="500" x1="15250" x2="250" y1="32750" y2="32750"/>
 <line fill="none" stroke="white" stroke-width="500" x1="15250" x2="250" y1="22250" y2="22250"/>
 <line fill="none" stroke="white" stroke-width="500" x1="15250" x2="15250" y1="11250" y2="22250"/>
 <line fill="none" stroke="white" stroke-width="500" x1="15250" x2="15250" y1="422750" y2="32750"/>
 <line fill="none" stroke="white" stroke-width="500" x1="26750" x2="26750" y1="250" y2="11250"/>
 <line fill="none" stroke="white" stroke-width="500" x1="48750" x2="25250" y1="250" y2="250"/>
 <line fill="none" stroke="white" stroke-width="500" x1="250" x2="250" y1="10250" y2="12750"/>
 <line fill="none" stroke="white" stroke-width="500" x1="250" x2="250" y1="5250" y2="7750"/>
 <line fill="none" stroke="white" stroke-width="500" x1="250" x2="250" y1="250" y2="2750"/>
 <line fill="none" stroke="white" stroke-width="500" x1="2750" x2="250" y1="250" y2="250"/>
 <line fill="none" stroke="white" stroke-width="500" x1="7750" x2="5250" y1="250" y2="250"/>
 <line fill="none" stroke="white" stroke-width="500" x1="12750" x2="10250" y1="250" y2="250"/>
 <line fill="none" stroke="white" stroke-width="500" x1="17750" x2="15250" y1="250" y2="250"/>
 <line fill="none" stroke="white" stroke-width="500" x1="22750" x2="20250" y1="250" y2="250"/>
 <line fill="none" stroke="white" stroke-width="500" x1="26750" x2="15250" y1="11250" y2="11250"/>
 <line fill="none" stroke="white" stroke-width="500" x1="250" x2="250" y1="20250" y2="22750"/>
 <line fill="none" stroke="white" stroke-width="500" x1="250" x2="250" y1="15250" y2="17750"/>
 <line fill="none" stroke="white" stroke-width="500" x1="46750" x2="46750" y1="250" y2="455250"/>
 <line fill="none" stroke="white" stroke-width="500" x1="26750" x2="15250" y1="444250" y2="444250"/>
 <line fill="none" stroke="white" stroke-width="500" x1="26750" x2="26750" y1="455250" y2="444750"/>
 <line fill="none" stroke="white" stroke-width="500" x1="44750" x2="25250" y1="455250" y2="455250"/>
</g>
</svg>