<?xml version="1.0" encoding="UTF-8"?><svg baseProfile="tiny" height="0.496in" version="1.2" viewBox="0 0 58400 49600" width="0.584in" x="0in" xmlns="http://www.w3.org/2000/svg" xmlns:svg="http://www.w3.org/2000/svg" y="0in"><title>CON_HDR_RA-254P-6C-2R-12N__AMP_103149-Series.fp</title><desc>Geda footprint file 'CON_HDR_RA-254P-6C-2R-12N__AMP_103149-Series.fp' converted by Fritzing</desc><metadata xmlns:fz="http://fritzing.org/gedametadata/1.0/" xmlns:rdf="http://www.w3.org/1999/02/22-rdf-syntax-ns#"><rdf:RDF><rdf:Description rdf:about=""><fz:attr name="geda filename">CON_HDR_RA-254P-6C-2R-12N__AMP_103149-Series.fp</fz:attr><fz:attr name="fritzing version">0.3.17b.04.07.4081</fz:attr><fz:attr name="conversion date">12/04/2010 13:02:38</fz:attr><fz:attr name="dist-license">GPL</fz:attr><fz:attr name="use-license">unlimited</fz:attr><fz:attr name="author">gEDA project</fz:attr><fz:attr name="license-url">http://www.gnu.org/licenses/gpl.html</fz:attr></rdf:Description></rdf:RDF></metadata><g id="copper1"><g id="copper0">
 <circle connectorname="" cx="4200" cy="12600" fill="none" id="connector0pin" r="2175" stroke="#ff9400" stroke-width="850"/>
 <circle connectorname="" cx="4200" cy="2600" fill="none" id="connector1pin" r="2175" stroke="#ff9400" stroke-width="850"/>
 <circle connectorname="" cx="14200" cy="12600" fill="none" id="connector2pin" r="2175" stroke="#ff9400" stroke-width="850"/>
 <circle connectorname="" cx="14200" cy="2600" fill="none" id="connector3pin" r="2175" stroke="#ff9400" stroke-width="850"/>
 <circle connectorname="" cx="24200" cy="12600" fill="none" id="connector4pin" r="2175" stroke="#ff9400" stroke-width="850"/>
 <circle connectorname="" cx="24200" cy="2600" fill="none" id="connector5pin" r="2175" stroke="#ff9400" stroke-width="850"/>
 <circle connectorname="" cx="34200" cy="12600" fill="none" id="connector6pin" r="2175" stroke="#ff9400" stroke-width="850"/>
 <circle connectorname="" cx="34200" cy="2600" fill="none" id="connector7pin" r="2175" stroke="#ff9400" stroke-width="850"/>
 <circle connectorname="" cx="44200" cy="12600" fill="none" id="connector8pin" r="2175" stroke="#ff9400" stroke-width="850"/>
 <circle connectorname="" cx="44200" cy="2600" fill="none" id="connector9pin" r="2175" stroke="#ff9400" stroke-width="850"/>
 <circle connectorname="" cx="54200" cy="12600" fill="none" id="connector10pin" r="2175" stroke="#ff9400" stroke-width="850"/>
 <circle connectorname="" cx="54200" cy="2600" fill="none" id="connector11pin" r="2175" stroke="#ff9400" stroke-width="850"/>
</g></g>
<g id="silkscreen">
 <line fill="none" stroke="white" stroke-width="9000" x1="4500" x2="53900" y1="22100" y2="22100"/>
 <line fill="none" stroke="white" stroke-width="1000" x1="500" x2="500" y1="18100" y2="26100"/>
 <line fill="none" stroke="white" stroke-width="1000" x1="500" x2="57900" y1="26100" y2="26100"/>
 <line fill="none" stroke="white" stroke-width="1000" x1="57900" x2="57900" y1="26100" y2="18100"/>
 <line fill="none" stroke="white" stroke-width="1000" x1="57900" x2="500" y1="18100" y2="18100"/>
 <line fill="none" stroke="white" stroke-width="1000" x1="1000" x2="1000" y1="18100" y2="26100"/>
 <line fill="none" stroke="white" stroke-width="1000" x1="57400" x2="57400" y1="18100" y2="26100"/>
 <line fill="none" stroke="white" stroke-width="1000" x1="1500" x2="1500" y1="18100" y2="26100"/>
 <line fill="none" stroke="white" stroke-width="1000" x1="56900" x2="56900" y1="18100" y2="26100"/>
 <line fill="none" stroke="white" stroke-width="1000" x1="2000" x2="2000" y1="18100" y2="26100"/>
 <line fill="none" stroke="white" stroke-width="1000" x1="56400" x2="56400" y1="18100" y2="26100"/>
 <line fill="none" stroke="white" stroke-width="1000" x1="2500" x2="2500" y1="18100" y2="26100"/>
 <line fill="none" stroke="white" stroke-width="1000" x1="55900" x2="55900" y1="18100" y2="26100"/>
 <line fill="none" stroke="white" stroke-width="1000" x1="3000" x2="3000" y1="18100" y2="26100"/>
 <line fill="none" stroke="white" stroke-width="1000" x1="55400" x2="55400" y1="18100" y2="26100"/>
 <line fill="none" stroke="white" stroke-width="1000" x1="3500" x2="3500" y1="18100" y2="26100"/>
 <line fill="none" stroke="white" stroke-width="1000" x1="54900" x2="54900" y1="18100" y2="26100"/>
 <line fill="none" stroke="white" stroke-width="1000" x1="4000" x2="4000" y1="18100" y2="26100"/>
 <line fill="none" stroke="white" stroke-width="1000" x1="54400" x2="54400" y1="18100" y2="26100"/>
 <line fill="none" stroke="white" stroke-width="1000" x1="4500" x2="4500" y1="18100" y2="26100"/>
 <line fill="none" stroke="white" stroke-width="1000" x1="53900" x2="53900" y1="18100" y2="26100"/>
 <line fill="none" stroke="white" stroke-width="2500" x1="4200" x2="4200" y1="17450" y2="48350"/>
 <line fill="none" stroke="white" stroke-width="2500" x1="14200" x2="14200" y1="17450" y2="48350"/>
 <line fill="none" stroke="white" stroke-width="2500" x1="24200" x2="24200" y1="17450" y2="48350"/>
 <line fill="none" stroke="white" stroke-width="2500" x1="34200" x2="34200" y1="17450" y2="48350"/>
 <line fill="none" stroke="white" stroke-width="2500" x1="44200" x2="44200" y1="17450" y2="48350"/>
 <line fill="none" stroke="white" stroke-width="2500" x1="54200" x2="54200" y1="17450" y2="48350"/>
</g>
</svg>