<?xml version="1.0" encoding="UTF-8"?><svg baseProfile="tiny" height="0.44in" version="1.2" viewBox="0 0 62750 44000" width="0.6275in" x="0in" xmlns="http://www.w3.org/2000/svg" xmlns:svg="http://www.w3.org/2000/svg" y="0in"><title>CON__CUI_PJ-202AH.fp</title><desc>Geda footprint file 'CON__CUI_PJ-202AH.fp' converted by Fritzing</desc><metadata xmlns:fz="http://fritzing.org/gedametadata/1.0/" xmlns:rdf="http://www.w3.org/1999/02/22-rdf-syntax-ns#"><rdf:RDF><rdf:Description rdf:about=""><fz:attr name="geda filename">CON__CUI_PJ-202AH.fp</fz:attr><fz:attr name="fritzing version">0.3.17b.04.07.4081</fz:attr><fz:attr name="conversion date">12/04/2010 13:02:31</fz:attr><fz:attr name="dist-license">GPL</fz:attr><fz:attr name="use-license">unlimited</fz:attr><fz:attr name="author">gEDA project</fz:attr><fz:attr name="license-url">http://www.gnu.org/licenses/gpl.html</fz:attr></rdf:Description></rdf:RDF></metadata><g id="copper1"><g id="copper0">
 <circle connectorname="" cx="54000" cy="17500" fill="none" id="connector0pin" r="7500" stroke="#ff9400" stroke-width="2500"/>
 <circle connectorname="" cx="30000" cy="17500" fill="none" id="connector1pin" r="6500" stroke="#ff9400" stroke-width="2000"/>
 <circle connectorname="" cx="42000" cy="36500" fill="none" id="connector2pin" r="6500" stroke="#ff9400" stroke-width="2000"/>
</g></g>
<g id="silkscreen">
 <line fill="none" stroke="white" stroke-width="1000" x1="30000" x2="500" y1="34500" y2="34500"/>
 <line fill="none" stroke="white" stroke-width="1000" x1="500" x2="500" y1="34500" y2="500"/>
 <line fill="none" stroke="white" stroke-width="1000" x1="500" x2="56500" y1="500" y2="500"/>
 <line fill="none" stroke="white" stroke-width="1000" x1="56500" x2="56500" y1="500" y2="5500"/>
 <line fill="none" stroke="white" stroke-width="1000" x1="52500" x2="56500" y1="34500" y2="34500"/>
 <line fill="none" stroke="white" stroke-width="1000" x1="56500" x2="56500" y1="34500" y2="29500"/>
 <line fill="none" stroke="white" stroke-width="1000" x1="500" x2="500" y1="34500" y2="500"/>
 <line fill="none" stroke="white" stroke-width="1000" x1="1000" x2="1000" y1="34500" y2="500"/>
 <line fill="none" stroke="white" stroke-width="1000" x1="1500" x2="1500" y1="34500" y2="500"/>
 <line fill="none" stroke="white" stroke-width="1000" x1="2000" x2="2000" y1="34500" y2="500"/>
 <line fill="none" stroke="white" stroke-width="1000" x1="2500" x2="2500" y1="34500" y2="500"/>
 <line fill="none" stroke="white" stroke-width="1000" x1="3000" x2="3000" y1="34500" y2="500"/>
 <line fill="none" stroke="white" stroke-width="1000" x1="3500" x2="3500" y1="34500" y2="500"/>
 <line fill="none" stroke="white" stroke-width="1000" x1="4000" x2="4000" y1="34500" y2="500"/>
 <line fill="none" stroke="white" stroke-width="1000" x1="13500" x2="13500" y1="34500" y2="500"/>
 <line fill="none" stroke="white" stroke-width="1000" x1="13000" x2="13000" y1="34500" y2="500"/>
 <line fill="none" stroke="white" stroke-width="1000" x1="12500" x2="12500" y1="34500" y2="500"/>
 <line fill="none" stroke="white" stroke-width="1000" x1="12000" x2="12000" y1="34500" y2="500"/>
 <line fill="none" stroke="white" stroke-width="1000" x1="11500" x2="11500" y1="34500" y2="500"/>
 <line fill="none" stroke="white" stroke-width="1000" x1="11000" x2="11000" y1="34500" y2="500"/>
 <line fill="none" stroke="white" stroke-width="1000" x1="10500" x2="10500" y1="34500" y2="500"/>
 <line fill="none" stroke="white" stroke-width="1000" x1="10000" x2="10000" y1="34500" y2="500"/>
</g>
</svg>