<?xml version="1.0" encoding="UTF-8"?><svg baseProfile="tiny" height="0.636in" version="1.2" viewBox="0 0 127000 63600" width="1.27in" x="0in" xmlns="http://www.w3.org/2000/svg" xmlns:svg="http://www.w3.org/2000/svg" y="0in"><title>CON__Switchcraft_RN-Series.fp</title><desc>Geda footprint file 'CON__Switchcraft_RN-Series.fp' converted by Fritzing</desc><metadata xmlns:fz="http://fritzing.org/gedametadata/1.0/" xmlns:rdf="http://www.w3.org/1999/02/22-rdf-syntax-ns#"><rdf:RDF><rdf:Description rdf:about=""><fz:attr name="geda filename">CON__Switchcraft_RN-Series.fp</fz:attr><fz:attr name="fritzing version">0.3.17b.04.07.4081</fz:attr><fz:attr name="conversion date">12/04/2010 13:02:31</fz:attr><fz:attr name="dist-license">GPL</fz:attr><fz:attr name="use-license">unlimited</fz:attr><fz:attr name="author">gEDA project</fz:attr><fz:attr name="license-url">http://www.gnu.org/licenses/gpl.html</fz:attr></rdf:Description></rdf:RDF></metadata><g id="copper1"><g id="copper0">
 <circle connectorname="" cx="86500" cy="31800" fill="none" id="connector0pin" r="3525" stroke="#ff9400" stroke-width="950"/>
 <circle connectorname="" cx="36500" cy="6800" fill="none" id="connector1pin" r="3525" stroke="#ff9400" stroke-width="950"/>
 <circle connectorname="" cx="56500" cy="16800" fill="none" id="connector2pin" r="3525" stroke="#ff9400" stroke-width="950"/>
 <circle connectorname="" cx="86500" cy="56800" fill="none" id="connector3pin" r="3525" stroke="#ff9400" stroke-width="950"/>
 <circle connectorname="" cx="36500" cy="46800" fill="none" id="connector4pin" r="3525" stroke="#ff9400" stroke-width="950"/>
 <circle connectorname="" cx="76500" cy="46800" fill="none" id="connector5pin" r="5500" stroke="#ff9400" stroke-width="0"/>
 <circle connectorname="" cx="76500" cy="16800" fill="none" id="connector6pin" r="5500" stroke="#ff9400" stroke-width="0"/>
 <circle connectorname="" cx="26500" cy="31800" fill="none" id="connector7pin" r="5500" stroke="#ff9400" stroke-width="0"/>
</g></g>
<g id="silkscreen">
 <line fill="none" stroke="white" stroke-width="1000" x1="98700" x2="16500" y1="63100" y2="63100"/>
 <line fill="none" stroke="white" stroke-width="1000" x1="16500" x2="500" y1="63100" y2="47100"/>
 <line fill="none" stroke="white" stroke-width="1000" x1="500" x2="500" y1="47100" y2="16500"/>
 <line fill="none" stroke="white" stroke-width="1000" x1="500" x2="16500" y1="16500" y2="500"/>
 <line fill="none" stroke="white" stroke-width="1000" x1="16500" x2="98700" y1="500" y2="500"/>
 <line fill="none" stroke="white" stroke-width="1000" x1="98700" x2="98700" y1="500" y2="63100"/>
 <line fill="none" stroke="white" stroke-width="1000" x1="98700" x2="126500" y1="50600" y2="50600"/>
 <line fill="none" stroke="white" stroke-width="1000" x1="126500" x2="126500" y1="50600" y2="13000"/>
 <line fill="none" stroke="white" stroke-width="1000" x1="126500" x2="98700" y1="13000" y2="13000"/>
 <line fill="none" stroke="white" stroke-width="1000" x1="122500" x2="122500" y1="46600" y2="17000"/>
 <line fill="none" stroke="white" stroke-width="1000" x1="118500" x2="118500" y1="50600" y2="13000"/>
 <line fill="none" stroke="white" stroke-width="1000" x1="114500" x2="114500" y1="46600" y2="17000"/>
 <line fill="none" stroke="white" stroke-width="1000" x1="110500" x2="110500" y1="50600" y2="13000"/>
 <line fill="none" stroke="white" stroke-width="1000" x1="106500" x2="106500" y1="46600" y2="17000"/>
 <circle cx="76500" cy="46800" fill="none" r="6000" stroke="white" stroke-width="1000"/>
 <circle cx="76500" cy="16800" fill="none" r="6000" stroke="white" stroke-width="1000"/>
 <circle cx="26500" cy="31800" fill="none" r="6000" stroke="white" stroke-width="1000"/>
</g>
</svg>