<?xml version="1.0" encoding="UTF-8"?><svg baseProfile="tiny" height="0.584in" version="1.2" viewBox="0 0 18400 58400" width="0.184in" x="0in" xmlns="http://www.w3.org/2000/svg" xmlns:svg="http://www.w3.org/2000/svg" y="0in"><title>CON_HDR_RA-254P-2C-2R-4N__AMP_102979-Series.fp</title><desc>Geda footprint file 'CON_HDR_RA-254P-2C-2R-4N__AMP_102979-Series.fp' converted by Fritzing</desc><metadata xmlns:fz="http://fritzing.org/gedametadata/1.0/" xmlns:rdf="http://www.w3.org/1999/02/22-rdf-syntax-ns#"><rdf:RDF><rdf:Description rdf:about=""><fz:attr name="geda filename">CON_HDR_RA-254P-2C-2R-4N__AMP_102979-Series.fp</fz:attr><fz:attr name="fritzing version">0.3.17b.04.07.4081</fz:attr><fz:attr name="conversion date">12/04/2010 13:02:37</fz:attr><fz:attr name="dist-license">GPL</fz:attr><fz:attr name="use-license">unlimited</fz:attr><fz:attr name="author">gEDA project</fz:attr><fz:attr name="license-url">http://www.gnu.org/licenses/gpl.html</fz:attr></rdf:Description></rdf:RDF></metadata><g id="copper1"><g id="copper0">
 <circle connectorname="" cx="4200" cy="12600" fill="none" id="connector0pin" r="2175" stroke="#ff9400" stroke-width="850"/>
 <circle connectorname="" cx="4200" cy="2600" fill="none" id="connector1pin" r="2175" stroke="#ff9400" stroke-width="850"/>
 <circle connectorname="" cx="14200" cy="12600" fill="none" id="connector2pin" r="2175" stroke="#ff9400" stroke-width="850"/>
 <circle connectorname="" cx="14200" cy="2600" fill="none" id="connector3pin" r="2175" stroke="#ff9400" stroke-width="850"/>
</g></g>
<g id="silkscreen">
 <line fill="none" stroke="white" stroke-width="9000" x1="4500" x2="13900" y1="22100" y2="22100"/>
 <line fill="none" stroke="white" stroke-width="1000" x1="500" x2="500" y1="18100" y2="26100"/>
 <line fill="none" stroke="white" stroke-width="1000" x1="500" x2="17900" y1="26100" y2="26100"/>
 <line fill="none" stroke="white" stroke-width="1000" x1="17900" x2="17900" y1="26100" y2="18100"/>
 <line fill="none" stroke="white" stroke-width="1000" x1="17900" x2="500" y1="18100" y2="18100"/>
 <line fill="none" stroke="white" stroke-width="1000" x1="1000" x2="1000" y1="18100" y2="26100"/>
 <line fill="none" stroke="white" stroke-width="1000" x1="17400" x2="17400" y1="18100" y2="26100"/>
 <line fill="none" stroke="white" stroke-width="1000" x1="1500" x2="1500" y1="18100" y2="26100"/>
 <line fill="none" stroke="white" stroke-width="1000" x1="16900" x2="16900" y1="18100" y2="26100"/>
 <line fill="none" stroke="white" stroke-width="1000" x1="2000" x2="2000" y1="18100" y2="26100"/>
 <line fill="none" stroke="white" stroke-width="1000" x1="16400" x2="16400" y1="18100" y2="26100"/>
 <line fill="none" stroke="white" stroke-width="1000" x1="2500" x2="2500" y1="18100" y2="26100"/>
 <line fill="none" stroke="white" stroke-width="1000" x1="15900" x2="15900" y1="18100" y2="26100"/>
 <line fill="none" stroke="white" stroke-width="1000" x1="3000" x2="3000" y1="18100" y2="26100"/>
 <line fill="none" stroke="white" stroke-width="1000" x1="15400" x2="15400" y1="18100" y2="26100"/>
 <line fill="none" stroke="white" stroke-width="1000" x1="3500" x2="3500" y1="18100" y2="26100"/>
 <line fill="none" stroke="white" stroke-width="1000" x1="14900" x2="14900" y1="18100" y2="26100"/>
 <line fill="none" stroke="white" stroke-width="1000" x1="4000" x2="4000" y1="18100" y2="26100"/>
 <line fill="none" stroke="white" stroke-width="1000" x1="14400" x2="14400" y1="18100" y2="26100"/>
 <line fill="none" stroke="white" stroke-width="1000" x1="4500" x2="4500" y1="18100" y2="26100"/>
 <line fill="none" stroke="white" stroke-width="1000" x1="13900" x2="13900" y1="18100" y2="26100"/>
 <line fill="none" stroke="white" stroke-width="2500" x1="4200" x2="4200" y1="17450" y2="57150"/>
 <line fill="none" stroke="white" stroke-width="2500" x1="14200" x2="14200" y1="17450" y2="57150"/>
</g>
</svg>