<?xml version="1.0" encoding="UTF-8"?><svg baseProfile="tiny" height="0.496in" version="1.2" viewBox="0 0 218400 49600" width="2.184in" x="0in" xmlns="http://www.w3.org/2000/svg" xmlns:svg="http://www.w3.org/2000/svg" y="0in"><title>CON_HDR_RA-254P-22C-2R-44N__AMP_103149-Series.fp</title><desc>Geda footprint file 'CON_HDR_RA-254P-22C-2R-44N__AMP_103149-Series.fp' converted by Fritzing</desc><metadata xmlns:fz="http://fritzing.org/gedametadata/1.0/" xmlns:rdf="http://www.w3.org/1999/02/22-rdf-syntax-ns#"><rdf:RDF><rdf:Description rdf:about=""><fz:attr name="geda filename">CON_HDR_RA-254P-22C-2R-44N__AMP_103149-Series.fp</fz:attr><fz:attr name="fritzing version">0.3.17b.04.07.4081</fz:attr><fz:attr name="conversion date">12/04/2010 13:02:35</fz:attr><fz:attr name="dist-license">GPL</fz:attr><fz:attr name="use-license">unlimited</fz:attr><fz:attr name="author">gEDA project</fz:attr><fz:attr name="license-url">http://www.gnu.org/licenses/gpl.html</fz:attr></rdf:Description></rdf:RDF></metadata><g id="copper1"><g id="copper0">
 <circle connectorname="" cx="4200" cy="12600" fill="none" id="connector0pin" r="2175" stroke="#ff9400" stroke-width="850"/>
 <circle connectorname="" cx="4200" cy="2600" fill="none" id="connector1pin" r="2175" stroke="#ff9400" stroke-width="850"/>
 <circle connectorname="" cx="14200" cy="12600" fill="none" id="connector2pin" r="2175" stroke="#ff9400" stroke-width="850"/>
 <circle connectorname="" cx="14200" cy="2600" fill="none" id="connector3pin" r="2175" stroke="#ff9400" stroke-width="850"/>
 <circle connectorname="" cx="24200" cy="12600" fill="none" id="connector4pin" r="2175" stroke="#ff9400" stroke-width="850"/>
 <circle connectorname="" cx="24200" cy="2600" fill="none" id="connector5pin" r="2175" stroke="#ff9400" stroke-width="850"/>
 <circle connectorname="" cx="34200" cy="12600" fill="none" id="connector6pin" r="2175" stroke="#ff9400" stroke-width="850"/>
 <circle connectorname="" cx="34200" cy="2600" fill="none" id="connector7pin" r="2175" stroke="#ff9400" stroke-width="850"/>
 <circle connectorname="" cx="44200" cy="12600" fill="none" id="connector8pin" r="2175" stroke="#ff9400" stroke-width="850"/>
 <circle connectorname="" cx="44200" cy="2600" fill="none" id="connector9pin" r="2175" stroke="#ff9400" stroke-width="850"/>
 <circle connectorname="" cx="54200" cy="12600" fill="none" id="connector10pin" r="2175" stroke="#ff9400" stroke-width="850"/>
 <circle connectorname="" cx="54200" cy="2600" fill="none" id="connector11pin" r="2175" stroke="#ff9400" stroke-width="850"/>
 <circle connectorname="" cx="64200" cy="12600" fill="none" id="connector12pin" r="2175" stroke="#ff9400" stroke-width="850"/>
 <circle connectorname="" cx="64200" cy="2600" fill="none" id="connector13pin" r="2175" stroke="#ff9400" stroke-width="850"/>
 <circle connectorname="" cx="74200" cy="12600" fill="none" id="connector14pin" r="2175" stroke="#ff9400" stroke-width="850"/>
 <circle connectorname="" cx="74200" cy="2600" fill="none" id="connector15pin" r="2175" stroke="#ff9400" stroke-width="850"/>
 <circle connectorname="" cx="84200" cy="12600" fill="none" id="connector16pin" r="2175" stroke="#ff9400" stroke-width="850"/>
 <circle connectorname="" cx="84200" cy="2600" fill="none" id="connector17pin" r="2175" stroke="#ff9400" stroke-width="850"/>
 <circle connectorname="" cx="94200" cy="12600" fill="none" id="connector18pin" r="2175" stroke="#ff9400" stroke-width="850"/>
 <circle connectorname="" cx="94200" cy="2600" fill="none" id="connector19pin" r="2175" stroke="#ff9400" stroke-width="850"/>
 <circle connectorname="" cx="104200" cy="12600" fill="none" id="connector20pin" r="2175" stroke="#ff9400" stroke-width="850"/>
 <circle connectorname="" cx="104200" cy="2600" fill="none" id="connector21pin" r="2175" stroke="#ff9400" stroke-width="850"/>
 <circle connectorname="" cx="114200" cy="12600" fill="none" id="connector22pin" r="2175" stroke="#ff9400" stroke-width="850"/>
 <circle connectorname="" cx="114200" cy="2600" fill="none" id="connector23pin" r="2175" stroke="#ff9400" stroke-width="850"/>
 <circle connectorname="" cx="124200" cy="12600" fill="none" id="connector24pin" r="2175" stroke="#ff9400" stroke-width="850"/>
 <circle connectorname="" cx="124200" cy="2600" fill="none" id="connector25pin" r="2175" stroke="#ff9400" stroke-width="850"/>
 <circle connectorname="" cx="134200" cy="12600" fill="none" id="connector26pin" r="2175" stroke="#ff9400" stroke-width="850"/>
 <circle connectorname="" cx="134200" cy="2600" fill="none" id="connector27pin" r="2175" stroke="#ff9400" stroke-width="850"/>
 <circle connectorname="" cx="144200" cy="12600" fill="none" id="connector28pin" r="2175" stroke="#ff9400" stroke-width="850"/>
 <circle connectorname="" cx="144200" cy="2600" fill="none" id="connector29pin" r="2175" stroke="#ff9400" stroke-width="850"/>
 <circle connectorname="" cx="154200" cy="12600" fill="none" id="connector30pin" r="2175" stroke="#ff9400" stroke-width="850"/>
 <circle connectorname="" cx="154200" cy="2600" fill="none" id="connector31pin" r="2175" stroke="#ff9400" stroke-width="850"/>
 <circle connectorname="" cx="164200" cy="12600" fill="none" id="connector32pin" r="2175" stroke="#ff9400" stroke-width="850"/>
 <circle connectorname="" cx="164200" cy="2600" fill="none" id="connector33pin" r="2175" stroke="#ff9400" stroke-width="850"/>
 <circle connectorname="" cx="174200" cy="12600" fill="none" id="connector34pin" r="2175" stroke="#ff9400" stroke-width="850"/>
 <circle connectorname="" cx="174200" cy="2600" fill="none" id="connector35pin" r="2175" stroke="#ff9400" stroke-width="850"/>
 <circle connectorname="" cx="184200" cy="12600" fill="none" id="connector36pin" r="2175" stroke="#ff9400" stroke-width="850"/>
 <circle connectorname="" cx="184200" cy="2600" fill="none" id="connector37pin" r="2175" stroke="#ff9400" stroke-width="850"/>
 <circle connectorname="" cx="194200" cy="12600" fill="none" id="connector38pin" r="2175" stroke="#ff9400" stroke-width="850"/>
 <circle connectorname="" cx="194200" cy="2600" fill="none" id="connector39pin" r="2175" stroke="#ff9400" stroke-width="850"/>
 <circle connectorname="" cx="204200" cy="12600" fill="none" id="connector40pin" r="2175" stroke="#ff9400" stroke-width="850"/>
 <circle connectorname="" cx="204200" cy="2600" fill="none" id="connector41pin" r="2175" stroke="#ff9400" stroke-width="850"/>
 <circle connectorname="" cx="214200" cy="12600" fill="none" id="connector42pin" r="2175" stroke="#ff9400" stroke-width="850"/>
 <circle connectorname="" cx="214200" cy="2600" fill="none" id="connector43pin" r="2175" stroke="#ff9400" stroke-width="850"/>
</g></g>
<g id="silkscreen">
 <line fill="none" stroke="white" stroke-width="9000" x1="4500" x2="213900" y1="22100" y2="22100"/>
 <line fill="none" stroke="white" stroke-width="1000" x1="500" x2="500" y1="18100" y2="26100"/>
 <line fill="none" stroke="white" stroke-width="1000" x1="500" x2="217900" y1="26100" y2="26100"/>
 <line fill="none" stroke="white" stroke-width="1000" x1="217900" x2="217900" y1="26100" y2="18100"/>
 <line fill="none" stroke="white" stroke-width="1000" x1="217900" x2="500" y1="18100" y2="18100"/>
 <line fill="none" stroke="white" stroke-width="1000" x1="1000" x2="1000" y1="18100" y2="26100"/>
 <line fill="none" stroke="white" stroke-width="1000" x1="217400" x2="217400" y1="18100" y2="26100"/>
 <line fill="none" stroke="white" stroke-width="1000" x1="1500" x2="1500" y1="18100" y2="26100"/>
 <line fill="none" stroke="white" stroke-width="1000" x1="216900" x2="216900" y1="18100" y2="26100"/>
 <line fill="none" stroke="white" stroke-width="1000" x1="2000" x2="2000" y1="18100" y2="26100"/>
 <line fill="none" stroke="white" stroke-width="1000" x1="216400" x2="216400" y1="18100" y2="26100"/>
 <line fill="none" stroke="white" stroke-width="1000" x1="2500" x2="2500" y1="18100" y2="26100"/>
 <line fill="none" stroke="white" stroke-width="1000" x1="215900" x2="215900" y1="18100" y2="26100"/>
 <line fill="none" stroke="white" stroke-width="1000" x1="3000" x2="3000" y1="18100" y2="26100"/>
 <line fill="none" stroke="white" stroke-width="1000" x1="215400" x2="215400" y1="18100" y2="26100"/>
 <line fill="none" stroke="white" stroke-width="1000" x1="3500" x2="3500" y1="18100" y2="26100"/>
 <line fill="none" stroke="white" stroke-width="1000" x1="214900" x2="214900" y1="18100" y2="26100"/>
 <line fill="none" stroke="white" stroke-width="1000" x1="4000" x2="4000" y1="18100" y2="26100"/>
 <line fill="none" stroke="white" stroke-width="1000" x1="214400" x2="214400" y1="18100" y2="26100"/>
 <line fill="none" stroke="white" stroke-width="1000" x1="4500" x2="4500" y1="18100" y2="26100"/>
 <line fill="none" stroke="white" stroke-width="1000" x1="213900" x2="213900" y1="18100" y2="26100"/>
 <line fill="none" stroke="white" stroke-width="2500" x1="4200" x2="4200" y1="17450" y2="48350"/>
 <line fill="none" stroke="white" stroke-width="2500" x1="14200" x2="14200" y1="17450" y2="48350"/>
 <line fill="none" stroke="white" stroke-width="2500" x1="24200" x2="24200" y1="17450" y2="48350"/>
 <line fill="none" stroke="white" stroke-width="2500" x1="34200" x2="34200" y1="17450" y2="48350"/>
 <line fill="none" stroke="white" stroke-width="2500" x1="44200" x2="44200" y1="17450" y2="48350"/>
 <line fill="none" stroke="white" stroke-width="2500" x1="54200" x2="54200" y1="17450" y2="48350"/>
 <line fill="none" stroke="white" stroke-width="2500" x1="64200" x2="64200" y1="17450" y2="48350"/>
 <line fill="none" stroke="white" stroke-width="2500" x1="74200" x2="74200" y1="17450" y2="48350"/>
 <line fill="none" stroke="white" stroke-width="2500" x1="84200" x2="84200" y1="17450" y2="48350"/>
 <line fill="none" stroke="white" stroke-width="2500" x1="94200" x2="94200" y1="17450" y2="48350"/>
 <line fill="none" stroke="white" stroke-width="2500" x1="104200" x2="104200" y1="17450" y2="48350"/>
 <line fill="none" stroke="white" stroke-width="2500" x1="114200" x2="114200" y1="17450" y2="48350"/>
 <line fill="none" stroke="white" stroke-width="2500" x1="124200" x2="124200" y1="17450" y2="48350"/>
 <line fill="none" stroke="white" stroke-width="2500" x1="134200" x2="134200" y1="17450" y2="48350"/>
 <line fill="none" stroke="white" stroke-width="2500" x1="144200" x2="144200" y1="17450" y2="48350"/>
 <line fill="none" stroke="white" stroke-width="2500" x1="154200" x2="154200" y1="17450" y2="48350"/>
 <line fill="none" stroke="white" stroke-width="2500" x1="164200" x2="164200" y1="17450" y2="48350"/>
 <line fill="none" stroke="white" stroke-width="2500" x1="174200" x2="174200" y1="17450" y2="48350"/>
 <line fill="none" stroke="white" stroke-width="2500" x1="184200" x2="184200" y1="17450" y2="48350"/>
 <line fill="none" stroke="white" stroke-width="2500" x1="194200" x2="194200" y1="17450" y2="48350"/>
 <line fill="none" stroke="white" stroke-width="2500" x1="204200" x2="204200" y1="17450" y2="48350"/>
 <line fill="none" stroke="white" stroke-width="2500" x1="214200" x2="214200" y1="17450" y2="48350"/>
</g>
</svg>