<?xml version="1.0" encoding="UTF-8"?><svg baseProfile="tiny" height="0.514in" version="1.2" viewBox="0 0 232000 51400" width="2.32in" x="0in" xmlns="http://www.w3.org/2000/svg" xmlns:svg="http://www.w3.org/2000/svg" y="0in"><title>CON_HDR-254P-23C-2R-46N__Sullins_xPxC462LJBN-RC.fp</title><desc>Geda footprint file 'CON_HDR-254P-23C-2R-46N__Sullins_xPxC462LJBN-RC.fp' converted by Fritzing</desc><metadata xmlns:fz="http://fritzing.org/gedametadata/1.0/" xmlns:rdf="http://www.w3.org/1999/02/22-rdf-syntax-ns#"><rdf:RDF><rdf:Description rdf:about=""><fz:attr name="geda filename">CON_HDR-254P-23C-2R-46N__Sullins_xPxC462LJBN-RC.fp</fz:attr><fz:attr name="fritzing version">0.3.17b.04.07.4081</fz:attr><fz:attr name="conversion date">12/04/2010 13:02:32</fz:attr><fz:attr name="dist-license">GPL</fz:attr><fz:attr name="use-license">unlimited</fz:attr><fz:attr name="author">gEDA project</fz:attr><fz:attr name="license-url">http://www.gnu.org/licenses/gpl.html</fz:attr></rdf:Description></rdf:RDF></metadata><g id="copper1"><g id="copper0">
 <circle connectorname="" cx="6000" cy="12600" fill="none" id="connector0pin" r="2175" stroke="#ff9400" stroke-width="850"/>
 <circle connectorname="" cx="6000" cy="2600" fill="none" id="connector1pin" r="2175" stroke="#ff9400" stroke-width="850"/>
 <circle connectorname="" cx="16000" cy="12600" fill="none" id="connector2pin" r="2175" stroke="#ff9400" stroke-width="850"/>
 <circle connectorname="" cx="16000" cy="2600" fill="none" id="connector3pin" r="2175" stroke="#ff9400" stroke-width="850"/>
 <circle connectorname="" cx="26000" cy="12600" fill="none" id="connector4pin" r="2175" stroke="#ff9400" stroke-width="850"/>
 <circle connectorname="" cx="26000" cy="2600" fill="none" id="connector5pin" r="2175" stroke="#ff9400" stroke-width="850"/>
 <circle connectorname="" cx="36000" cy="12600" fill="none" id="connector6pin" r="2175" stroke="#ff9400" stroke-width="850"/>
 <circle connectorname="" cx="36000" cy="2600" fill="none" id="connector7pin" r="2175" stroke="#ff9400" stroke-width="850"/>
 <circle connectorname="" cx="46000" cy="12600" fill="none" id="connector8pin" r="2175" stroke="#ff9400" stroke-width="850"/>
 <circle connectorname="" cx="46000" cy="2600" fill="none" id="connector9pin" r="2175" stroke="#ff9400" stroke-width="850"/>
 <circle connectorname="" cx="56000" cy="12600" fill="none" id="connector10pin" r="2175" stroke="#ff9400" stroke-width="850"/>
 <circle connectorname="" cx="56000" cy="2600" fill="none" id="connector11pin" r="2175" stroke="#ff9400" stroke-width="850"/>
 <circle connectorname="" cx="66000" cy="12600" fill="none" id="connector12pin" r="2175" stroke="#ff9400" stroke-width="850"/>
 <circle connectorname="" cx="66000" cy="2600" fill="none" id="connector13pin" r="2175" stroke="#ff9400" stroke-width="850"/>
 <circle connectorname="" cx="76000" cy="12600" fill="none" id="connector14pin" r="2175" stroke="#ff9400" stroke-width="850"/>
 <circle connectorname="" cx="76000" cy="2600" fill="none" id="connector15pin" r="2175" stroke="#ff9400" stroke-width="850"/>
 <circle connectorname="" cx="86000" cy="12600" fill="none" id="connector16pin" r="2175" stroke="#ff9400" stroke-width="850"/>
 <circle connectorname="" cx="86000" cy="2600" fill="none" id="connector17pin" r="2175" stroke="#ff9400" stroke-width="850"/>
 <circle connectorname="" cx="96000" cy="12600" fill="none" id="connector18pin" r="2175" stroke="#ff9400" stroke-width="850"/>
 <circle connectorname="" cx="96000" cy="2600" fill="none" id="connector19pin" r="2175" stroke="#ff9400" stroke-width="850"/>
 <circle connectorname="" cx="106000" cy="12600" fill="none" id="connector20pin" r="2175" stroke="#ff9400" stroke-width="850"/>
 <circle connectorname="" cx="106000" cy="2600" fill="none" id="connector21pin" r="2175" stroke="#ff9400" stroke-width="850"/>
 <circle connectorname="" cx="116000" cy="12600" fill="none" id="connector22pin" r="2175" stroke="#ff9400" stroke-width="850"/>
 <circle connectorname="" cx="116000" cy="2600" fill="none" id="connector23pin" r="2175" stroke="#ff9400" stroke-width="850"/>
 <circle connectorname="" cx="126000" cy="12600" fill="none" id="connector24pin" r="2175" stroke="#ff9400" stroke-width="850"/>
 <circle connectorname="" cx="126000" cy="2600" fill="none" id="connector25pin" r="2175" stroke="#ff9400" stroke-width="850"/>
 <circle connectorname="" cx="136000" cy="12600" fill="none" id="connector26pin" r="2175" stroke="#ff9400" stroke-width="850"/>
 <circle connectorname="" cx="136000" cy="2600" fill="none" id="connector27pin" r="2175" stroke="#ff9400" stroke-width="850"/>
 <circle connectorname="" cx="146000" cy="12600" fill="none" id="connector28pin" r="2175" stroke="#ff9400" stroke-width="850"/>
 <circle connectorname="" cx="146000" cy="2600" fill="none" id="connector29pin" r="2175" stroke="#ff9400" stroke-width="850"/>
 <circle connectorname="" cx="156000" cy="12600" fill="none" id="connector30pin" r="2175" stroke="#ff9400" stroke-width="850"/>
 <circle connectorname="" cx="156000" cy="2600" fill="none" id="connector31pin" r="2175" stroke="#ff9400" stroke-width="850"/>
 <circle connectorname="" cx="166000" cy="12600" fill="none" id="connector32pin" r="2175" stroke="#ff9400" stroke-width="850"/>
 <circle connectorname="" cx="166000" cy="2600" fill="none" id="connector33pin" r="2175" stroke="#ff9400" stroke-width="850"/>
 <circle connectorname="" cx="176000" cy="12600" fill="none" id="connector34pin" r="2175" stroke="#ff9400" stroke-width="850"/>
 <circle connectorname="" cx="176000" cy="2600" fill="none" id="connector35pin" r="2175" stroke="#ff9400" stroke-width="850"/>
 <circle connectorname="" cx="186000" cy="12600" fill="none" id="connector36pin" r="2175" stroke="#ff9400" stroke-width="850"/>
 <circle connectorname="" cx="186000" cy="2600" fill="none" id="connector37pin" r="2175" stroke="#ff9400" stroke-width="850"/>
 <circle connectorname="" cx="196000" cy="12600" fill="none" id="connector38pin" r="2175" stroke="#ff9400" stroke-width="850"/>
 <circle connectorname="" cx="196000" cy="2600" fill="none" id="connector39pin" r="2175" stroke="#ff9400" stroke-width="850"/>
 <circle connectorname="" cx="206000" cy="12600" fill="none" id="connector40pin" r="2175" stroke="#ff9400" stroke-width="850"/>
 <circle connectorname="" cx="206000" cy="2600" fill="none" id="connector41pin" r="2175" stroke="#ff9400" stroke-width="850"/>
 <circle connectorname="" cx="216000" cy="12600" fill="none" id="connector42pin" r="2175" stroke="#ff9400" stroke-width="850"/>
 <circle connectorname="" cx="216000" cy="2600" fill="none" id="connector43pin" r="2175" stroke="#ff9400" stroke-width="850"/>
 <circle connectorname="" cx="226000" cy="12600" fill="none" id="connector44pin" r="2175" stroke="#ff9400" stroke-width="850"/>
 <circle connectorname="" cx="226000" cy="2600" fill="none" id="connector45pin" r="2175" stroke="#ff9400" stroke-width="850"/>
</g></g>
<g id="silkscreen">
 <line fill="none" stroke="white" stroke-width="1000" x1="500" x2="500" y1="18400" y2="50900"/>
 <line fill="none" stroke="white" stroke-width="1000" x1="500" x2="231500" y1="50900" y2="50900"/>
 <line fill="none" stroke="white" stroke-width="1000" x1="231500" x2="231500" y1="50900" y2="18400"/>
 <line fill="none" stroke="white" stroke-width="1000" x1="231500" x2="500" y1="18400" y2="18400"/>
 <line fill="none" stroke="white" stroke-width="1000" x1="500" x2="231500" y1="50400" y2="50400"/>
 <line fill="none" stroke="white" stroke-width="1000" x1="500" x2="231500" y1="49900" y2="49900"/>
 <line fill="none" stroke="white" stroke-width="1000" x1="500" x2="231500" y1="49400" y2="49400"/>
 <line fill="none" stroke="white" stroke-width="1000" x1="6000" x2="6000" y1="16700" y2="18400"/>
 <line fill="none" stroke="white" stroke-width="1000" x1="16000" x2="16000" y1="16700" y2="18400"/>
 <line fill="none" stroke="white" stroke-width="1000" x1="26000" x2="26000" y1="16700" y2="18400"/>
 <line fill="none" stroke="white" stroke-width="1000" x1="36000" x2="36000" y1="16700" y2="18400"/>
 <line fill="none" stroke="white" stroke-width="1000" x1="46000" x2="46000" y1="16700" y2="18400"/>
 <line fill="none" stroke="white" stroke-width="1000" x1="56000" x2="56000" y1="16700" y2="18400"/>
 <line fill="none" stroke="white" stroke-width="1000" x1="66000" x2="66000" y1="16700" y2="18400"/>
 <line fill="none" stroke="white" stroke-width="1000" x1="76000" x2="76000" y1="16700" y2="18400"/>
 <line fill="none" stroke="white" stroke-width="1000" x1="86000" x2="86000" y1="16700" y2="18400"/>
 <line fill="none" stroke="white" stroke-width="1000" x1="96000" x2="96000" y1="16700" y2="18400"/>
 <line fill="none" stroke="white" stroke-width="1000" x1="106000" x2="106000" y1="16700" y2="18400"/>
 <line fill="none" stroke="white" stroke-width="1000" x1="116000" x2="116000" y1="16700" y2="18400"/>
 <line fill="none" stroke="white" stroke-width="1000" x1="126000" x2="126000" y1="16700" y2="18400"/>
 <line fill="none" stroke="white" stroke-width="1000" x1="136000" x2="136000" y1="16700" y2="18400"/>
 <line fill="none" stroke="white" stroke-width="1000" x1="146000" x2="146000" y1="16700" y2="18400"/>
 <line fill="none" stroke="white" stroke-width="1000" x1="156000" x2="156000" y1="16700" y2="18400"/>
 <line fill="none" stroke="white" stroke-width="1000" x1="166000" x2="166000" y1="16700" y2="18400"/>
 <line fill="none" stroke="white" stroke-width="1000" x1="176000" x2="176000" y1="16700" y2="18400"/>
 <line fill="none" stroke="white" stroke-width="1000" x1="186000" x2="186000" y1="16700" y2="18400"/>
 <line fill="none" stroke="white" stroke-width="1000" x1="196000" x2="196000" y1="16700" y2="18400"/>
 <line fill="none" stroke="white" stroke-width="1000" x1="206000" x2="206000" y1="16700" y2="18400"/>
 <line fill="none" stroke="white" stroke-width="1000" x1="216000" x2="216000" y1="16700" y2="18400"/>
 <line fill="none" stroke="white" stroke-width="1000" x1="226000" x2="226000" y1="16700" y2="18400"/>
</g>
</svg>