<?xml version="1.0" encoding="UTF-8"?><svg baseProfile="tiny" height="0.74in" version="1.2" viewBox="0 0 372000 74000" width="3.72in" x="0in" xmlns="http://www.w3.org/2000/svg" xmlns:svg="http://www.w3.org/2000/svg" y="0in"><title>DIN41612C64M.fp</title><desc>Geda footprint file 'DIN41612C64M.fp' converted by Fritzing</desc><metadata xmlns:fz="http://fritzing.org/gedametadata/1.0/" xmlns:rdf="http://www.w3.org/1999/02/22-rdf-syntax-ns#"><rdf:RDF><rdf:Description rdf:about=""><fz:attr name="geda filename">DIN41612C64M.fp</fz:attr><fz:attr name="fritzing version">0.3.17b.04.07.4081</fz:attr><fz:attr name="conversion date">12/04/2010 13:02:40</fz:attr><fz:comment>Reihe a</fz:comment><fz:comment>Reihe b</fz:comment><fz:comment>Reihe c</fz:comment><fz:comment>Rueckseite Kontaktstifte</fz:comment><fz:comment>Befestigungsbohrung</fz:comment><fz:comment>Begrenzung M1</fz:comment><fz:comment>Begrenzung M2</fz:comment><fz:comment>Kante Pins</fz:comment><fz:comment>Kanten Stifte</fz:comment><fz:attr name="dist-license">GPL</fz:attr><fz:attr name="use-license">unlimited</fz:attr><fz:attr name="author">gEDA project</fz:attr><fz:attr name="license-url">http://www.gnu.org/licenses/gpl.html</fz:attr></rdf:Description></rdf:RDF></metadata><g id="copper1"><g id="copper0">
 <circle connectorname="1" cx="341000" cy="23000" fill="none" id="connector0pin" r="2250" stroke="#ff9400" stroke-width="1500"/>
 <circle connectorname="2" cx="331000" cy="23000" fill="none" id="connector1pin" r="2250" stroke="#ff9400" stroke-width="1500"/>
 <circle connectorname="3" cx="321000" cy="23000" fill="none" id="connector2pin" r="2250" stroke="#ff9400" stroke-width="1500"/>
 <circle connectorname="4" cx="311000" cy="23000" fill="none" id="connector3pin" r="2250" stroke="#ff9400" stroke-width="1500"/>
 <circle connectorname="5" cx="301000" cy="23000" fill="none" id="connector4pin" r="2250" stroke="#ff9400" stroke-width="1500"/>
 <circle connectorname="6" cx="291000" cy="23000" fill="none" id="connector5pin" r="2250" stroke="#ff9400" stroke-width="1500"/>
 <circle connectorname="7" cx="281000" cy="23000" fill="none" id="connector6pin" r="2250" stroke="#ff9400" stroke-width="1500"/>
 <circle connectorname="8" cx="271000" cy="23000" fill="none" id="connector7pin" r="2250" stroke="#ff9400" stroke-width="1500"/>
 <circle connectorname="9" cx="261000" cy="23000" fill="none" id="connector8pin" r="2250" stroke="#ff9400" stroke-width="1500"/>
 <circle connectorname="10" cx="251000" cy="23000" fill="none" id="connector9pin" r="2250" stroke="#ff9400" stroke-width="1500"/>
 <circle connectorname="11" cx="241000" cy="23000" fill="none" id="connector10pin" r="2250" stroke="#ff9400" stroke-width="1500"/>
 <circle connectorname="12" cx="231000" cy="23000" fill="none" id="connector11pin" r="2250" stroke="#ff9400" stroke-width="1500"/>
 <circle connectorname="13" cx="221000" cy="23000" fill="none" id="connector12pin" r="2250" stroke="#ff9400" stroke-width="1500"/>
 <circle connectorname="14" cx="211000" cy="23000" fill="none" id="connector13pin" r="2250" stroke="#ff9400" stroke-width="1500"/>
 <circle connectorname="15" cx="201000" cy="23000" fill="none" id="connector14pin" r="2250" stroke="#ff9400" stroke-width="1500"/>
 <circle connectorname="16" cx="191000" cy="23000" fill="none" id="connector15pin" r="2250" stroke="#ff9400" stroke-width="1500"/>
 <circle connectorname="17" cx="181000" cy="23000" fill="none" id="connector16pin" r="2250" stroke="#ff9400" stroke-width="1500"/>
 <circle connectorname="18" cx="171000" cy="23000" fill="none" id="connector17pin" r="2250" stroke="#ff9400" stroke-width="1500"/>
 <circle connectorname="19" cx="161000" cy="23000" fill="none" id="connector18pin" r="2250" stroke="#ff9400" stroke-width="1500"/>
 <circle connectorname="20" cx="151000" cy="23000" fill="none" id="connector19pin" r="2250" stroke="#ff9400" stroke-width="1500"/>
 <circle connectorname="21" cx="141000" cy="23000" fill="none" id="connector20pin" r="2250" stroke="#ff9400" stroke-width="1500"/>
 <circle connectorname="22" cx="131000" cy="23000" fill="none" id="connector21pin" r="2250" stroke="#ff9400" stroke-width="1500"/>
 <circle connectorname="23" cx="121000" cy="23000" fill="none" id="connector22pin" r="2250" stroke="#ff9400" stroke-width="1500"/>
 <circle connectorname="24" cx="111000" cy="23000" fill="none" id="connector23pin" r="2250" stroke="#ff9400" stroke-width="1500"/>
 <circle connectorname="25" cx="101000" cy="23000" fill="none" id="connector24pin" r="2250" stroke="#ff9400" stroke-width="1500"/>
 <circle connectorname="26" cx="91000" cy="23000" fill="none" id="connector25pin" r="2250" stroke="#ff9400" stroke-width="1500"/>
 <circle connectorname="27" cx="81000" cy="23000" fill="none" id="connector26pin" r="2250" stroke="#ff9400" stroke-width="1500"/>
 <circle connectorname="28" cx="71000" cy="23000" fill="none" id="connector27pin" r="2250" stroke="#ff9400" stroke-width="1500"/>
 <circle connectorname="29" cx="61000" cy="23000" fill="none" id="connector28pin" r="2250" stroke="#ff9400" stroke-width="1500"/>
 <circle connectorname="30" cx="51000" cy="23000" fill="none" id="connector29pin" r="2250" stroke="#ff9400" stroke-width="1500"/>
 <circle connectorname="31" cx="41000" cy="23000" fill="none" id="connector30pin" r="2250" stroke="#ff9400" stroke-width="1500"/>
 <circle connectorname="32" cx="31000" cy="23000" fill="none" id="connector31pin" r="2250" stroke="#ff9400" stroke-width="1500"/>
 <circle connectorname="65" cx="341000" cy="3000" fill="none" id="connector64pin" r="2250" stroke="#ff9400" stroke-width="1500"/>
 <circle connectorname="66" cx="331000" cy="3000" fill="none" id="connector65pin" r="2250" stroke="#ff9400" stroke-width="1500"/>
 <circle connectorname="67" cx="321000" cy="3000" fill="none" id="connector66pin" r="2250" stroke="#ff9400" stroke-width="1500"/>
 <circle connectorname="68" cx="311000" cy="3000" fill="none" id="connector67pin" r="2250" stroke="#ff9400" stroke-width="1500"/>
 <circle connectorname="69" cx="301000" cy="3000" fill="none" id="connector68pin" r="2250" stroke="#ff9400" stroke-width="1500"/>
 <circle connectorname="70" cx="291000" cy="3000" fill="none" id="connector69pin" r="2250" stroke="#ff9400" stroke-width="1500"/>
 <circle connectorname="71" cx="281000" cy="3000" fill="none" id="connector70pin" r="2250" stroke="#ff9400" stroke-width="1500"/>
 <circle connectorname="72" cx="271000" cy="3000" fill="none" id="connector71pin" r="2250" stroke="#ff9400" stroke-width="1500"/>
 <circle connectorname="73" cx="261000" cy="3000" fill="none" id="connector72pin" r="2250" stroke="#ff9400" stroke-width="1500"/>
 <circle connectorname="74" cx="251000" cy="3000" fill="none" id="connector73pin" r="2250" stroke="#ff9400" stroke-width="1500"/>
 <circle connectorname="75" cx="241000" cy="3000" fill="none" id="connector74pin" r="2250" stroke="#ff9400" stroke-width="1500"/>
 <circle connectorname="76" cx="231000" cy="3000" fill="none" id="connector75pin" r="2250" stroke="#ff9400" stroke-width="1500"/>
 <circle connectorname="77" cx="221000" cy="3000" fill="none" id="connector76pin" r="2250" stroke="#ff9400" stroke-width="1500"/>
 <circle connectorname="78" cx="211000" cy="3000" fill="none" id="connector77pin" r="2250" stroke="#ff9400" stroke-width="1500"/>
 <circle connectorname="79" cx="201000" cy="3000" fill="none" id="connector78pin" r="2250" stroke="#ff9400" stroke-width="1500"/>
 <circle connectorname="80" cx="191000" cy="3000" fill="none" id="connector79pin" r="2250" stroke="#ff9400" stroke-width="1500"/>
 <circle connectorname="81" cx="181000" cy="3000" fill="none" id="connector80pin" r="2250" stroke="#ff9400" stroke-width="1500"/>
 <circle connectorname="82" cx="171000" cy="3000" fill="none" id="connector81pin" r="2250" stroke="#ff9400" stroke-width="1500"/>
 <circle connectorname="83" cx="161000" cy="3000" fill="none" id="connector82pin" r="2250" stroke="#ff9400" stroke-width="1500"/>
 <circle connectorname="84" cx="151000" cy="3000" fill="none" id="connector83pin" r="2250" stroke="#ff9400" stroke-width="1500"/>
 <circle connectorname="85" cx="141000" cy="3000" fill="none" id="connector84pin" r="2250" stroke="#ff9400" stroke-width="1500"/>
 <circle connectorname="86" cx="131000" cy="3000" fill="none" id="connector85pin" r="2250" stroke="#ff9400" stroke-width="1500"/>
 <circle connectorname="87" cx="121000" cy="3000" fill="none" id="connector86pin" r="2250" stroke="#ff9400" stroke-width="1500"/>
 <circle connectorname="88" cx="111000" cy="3000" fill="none" id="connector87pin" r="2250" stroke="#ff9400" stroke-width="1500"/>
 <circle connectorname="89" cx="101000" cy="3000" fill="none" id="connector88pin" r="2250" stroke="#ff9400" stroke-width="1500"/>
 <circle connectorname="90" cx="91000" cy="3000" fill="none" id="connector89pin" r="2250" stroke="#ff9400" stroke-width="1500"/>
 <circle connectorname="91" cx="81000" cy="3000" fill="none" id="connector90pin" r="2250" stroke="#ff9400" stroke-width="1500"/>
 <circle connectorname="92" cx="71000" cy="3000" fill="none" id="connector91pin" r="2250" stroke="#ff9400" stroke-width="1500"/>
 <circle connectorname="93" cx="61000" cy="3000" fill="none" id="connector92pin" r="2250" stroke="#ff9400" stroke-width="1500"/>
 <circle connectorname="94" cx="51000" cy="3000" fill="none" id="connector93pin" r="2250" stroke="#ff9400" stroke-width="1500"/>
 <circle connectorname="95" cx="41000" cy="3000" fill="none" id="connector94pin" r="2250" stroke="#ff9400" stroke-width="1500"/>
 <circle connectorname="96" cx="31000" cy="3000" fill="none" id="connector95pin" r="2250" stroke="#ff9400" stroke-width="1500"/>
 <circle connectorname="M1" cx="11000" cy="33000" fill="none" id="" r="5000" stroke="#ff9400" stroke-width="2000"/>
 <circle connectorname="M2" cx="361000" cy="33000" fill="none" id="" r="5000" stroke="#ff9400" stroke-width="2000"/>
</g></g>
<g id="silkscreen">
 <line fill="none" stroke="white" stroke-width="4000" x1="31000" x2="31000" y1="3000" y2="30500"/>
 <line fill="none" stroke="white" stroke-width="4000" x1="41000" x2="41000" y1="3000" y2="30500"/>
 <line fill="none" stroke="white" stroke-width="4000" x1="51000" x2="51000" y1="3000" y2="30500"/>
 <line fill="none" stroke="white" stroke-width="4000" x1="61000" x2="61000" y1="3000" y2="30500"/>
 <line fill="none" stroke="white" stroke-width="4000" x1="71000" x2="71000" y1="3000" y2="30500"/>
 <line fill="none" stroke="white" stroke-width="4000" x1="81000" x2="81000" y1="3000" y2="30500"/>
 <line fill="none" stroke="white" stroke-width="4000" x1="91000" x2="91000" y1="3000" y2="30500"/>
 <line fill="none" stroke="white" stroke-width="4000" x1="101000" x2="101000" y1="3000" y2="30500"/>
 <line fill="none" stroke="white" stroke-width="4000" x1="111000" x2="111000" y1="3000" y2="30500"/>
 <line fill="none" stroke="white" stroke-width="4000" x1="121000" x2="121000" y1="3000" y2="30500"/>
 <line fill="none" stroke="white" stroke-width="4000" x1="131000" x2="131000" y1="3000" y2="30500"/>
 <line fill="none" stroke="white" stroke-width="4000" x1="141000" x2="141000" y1="3000" y2="30500"/>
 <line fill="none" stroke="white" stroke-width="4000" x1="151000" x2="151000" y1="3000" y2="30500"/>
 <line fill="none" stroke="white" stroke-width="4000" x1="161000" x2="161000" y1="3000" y2="30500"/>
 <line fill="none" stroke="white" stroke-width="4000" x1="171000" x2="171000" y1="3000" y2="30500"/>
 <line fill="none" stroke="white" stroke-width="4000" x1="181000" x2="181000" y1="3000" y2="30500"/>
 <line fill="none" stroke="white" stroke-width="4000" x1="191000" x2="191000" y1="3000" y2="30500"/>
 <line fill="none" stroke="white" stroke-width="4000" x1="201000" x2="201000" y1="3000" y2="30500"/>
 <line fill="none" stroke="white" stroke-width="4000" x1="211000" x2="211000" y1="3000" y2="30500"/>
 <line fill="none" stroke="white" stroke-width="4000" x1="221000" x2="221000" y1="3000" y2="30500"/>
 <line fill="none" stroke="white" stroke-width="4000" x1="231000" x2="231000" y1="3000" y2="30500"/>
 <line fill="none" stroke="white" stroke-width="4000" x1="241000" x2="241000" y1="3000" y2="30500"/>
 <line fill="none" stroke="white" stroke-width="4000" x1="251000" x2="251000" y1="3000" y2="30500"/>
 <line fill="none" stroke="white" stroke-width="4000" x1="261000" x2="261000" y1="3000" y2="30500"/>
 <line fill="none" stroke="white" stroke-width="4000" x1="271000" x2="271000" y1="3000" y2="30500"/>
 <line fill="none" stroke="white" stroke-width="4000" x1="281000" x2="281000" y1="3000" y2="30500"/>
 <line fill="none" stroke="white" stroke-width="4000" x1="291000" x2="291000" y1="3000" y2="30500"/>
 <line fill="none" stroke="white" stroke-width="4000" x1="301000" x2="301000" y1="3000" y2="30500"/>
 <line fill="none" stroke="white" stroke-width="4000" x1="311000" x2="311000" y1="3000" y2="30500"/>
 <line fill="none" stroke="white" stroke-width="4000" x1="321000" x2="321000" y1="3000" y2="30500"/>
 <line fill="none" stroke="white" stroke-width="4000" x1="331000" x2="331000" y1="3000" y2="30500"/>
 <line fill="none" stroke="white" stroke-width="4000" x1="341000" x2="341000" y1="3000" y2="30500"/>
 <line fill="none" stroke="white" stroke-width="2000" x1="1000" x2="23000" y1="23000" y2="23000"/>
 <line fill="none" stroke="white" stroke-width="2000" x1="23000" x2="23000" y1="23000" y2="32500"/>
 <line fill="none" stroke="white" stroke-width="1000" x1="23000" x2="23000" y1="32500" y2="55000"/>
 <line fill="none" stroke="white" stroke-width="1000" x1="23000" x2="11000" y1="55000" y2="55000"/>
 <line fill="none" stroke="white" stroke-width="2000" x1="11000" x2="1000" y1="55000" y2="55000"/>
 <line fill="none" stroke="white" stroke-width="2000" x1="1000" x2="1000" y1="55000" y2="23000"/>
 <line fill="none" stroke="white" stroke-width="2000" x1="349000" x2="371000" y1="23000" y2="23000"/>
 <line fill="none" stroke="white" stroke-width="2000" x1="371000" x2="371000" y1="23000" y2="55000"/>
 <line fill="none" stroke="white" stroke-width="2000" x1="371000" x2="361000" y1="55000" y2="55000"/>
 <line fill="none" stroke="white" stroke-width="1000" x1="361000" x2="349000" y1="55000" y2="55000"/>
 <line fill="none" stroke="white" stroke-width="1000" x1="349000" x2="349000" y1="55000" y2="32500"/>
 <line fill="none" stroke="white" stroke-width="2000" x1="349000" x2="349000" y1="32500" y2="23000"/>
 <line fill="none" stroke="white" stroke-width="2000" x1="23000" x2="349000" y1="32500" y2="32500"/>
 <line fill="none" stroke="white" stroke-width="2000" x1="11000" x2="11000" y1="55000" y2="73000"/>
 <line fill="none" stroke="white" stroke-width="2000" x1="11000" x2="361000" y1="73000" y2="73000"/>
 <line fill="none" stroke="white" stroke-width="2000" x1="361000" x2="361000" y1="73000" y2="55000"/>
</g>
</svg>