<?xml version="1.0" encoding="UTF-8"?><svg baseProfile="tiny" height="0.74in" version="1.2" viewBox="0 0 212000 74000" width="2.12in" x="0in" xmlns="http://www.w3.org/2000/svg" xmlns:svg="http://www.w3.org/2000/svg" y="0in"><title>DIN41_612MALE_SMALL.fp</title><desc>Geda footprint file 'DIN41_612MALE_SMALL.fp' converted by Fritzing</desc><metadata xmlns:fz="http://fritzing.org/gedametadata/1.0/" xmlns:rdf="http://www.w3.org/1999/02/22-rdf-syntax-ns#"><rdf:RDF><rdf:Description rdf:about=""><fz:attr name="geda filename">DIN41_612MALE_SMALL.fp</fz:attr><fz:attr name="fritzing version">0.3.17b.04.07.4081</fz:attr><fz:attr name="conversion date">12/04/2010 13:02:43</fz:attr><fz:comment>Reihe a</fz:comment><fz:comment>Reihe b</fz:comment><fz:comment>Reihe c</fz:comment><fz:comment>Rueckseite Kontaktstifte</fz:comment><fz:comment>Befestigungsbohrung</fz:comment><fz:comment>Begrenzung M1</fz:comment><fz:comment>Begrenzung M2</fz:comment><fz:comment>Kante Pins</fz:comment><fz:comment>Kanten Stifte</fz:comment><fz:attr name="dist-license">GPL</fz:attr><fz:attr name="use-license">unlimited</fz:attr><fz:attr name="author">gEDA project</fz:attr><fz:attr name="license-url">http://www.gnu.org/licenses/gpl.html</fz:attr></rdf:Description></rdf:RDF></metadata><g id="copper1"><g id="copper0">
 <circle connectorname="1" cx="181000" cy="23000" fill="none" id="connector0pin" r="2250" stroke="#ff9400" stroke-width="1500"/>
 <circle connectorname="2" cx="171000" cy="23000" fill="none" id="connector1pin" r="2250" stroke="#ff9400" stroke-width="1500"/>
 <circle connectorname="3" cx="161000" cy="23000" fill="none" id="connector2pin" r="2250" stroke="#ff9400" stroke-width="1500"/>
 <circle connectorname="4" cx="151000" cy="23000" fill="none" id="connector3pin" r="2250" stroke="#ff9400" stroke-width="1500"/>
 <circle connectorname="5" cx="141000" cy="23000" fill="none" id="connector4pin" r="2250" stroke="#ff9400" stroke-width="1500"/>
 <circle connectorname="6" cx="131000" cy="23000" fill="none" id="connector5pin" r="2250" stroke="#ff9400" stroke-width="1500"/>
 <circle connectorname="7" cx="121000" cy="23000" fill="none" id="connector6pin" r="2250" stroke="#ff9400" stroke-width="1500"/>
 <circle connectorname="8" cx="111000" cy="23000" fill="none" id="connector7pin" r="2250" stroke="#ff9400" stroke-width="1500"/>
 <circle connectorname="9" cx="101000" cy="23000" fill="none" id="connector8pin" r="2250" stroke="#ff9400" stroke-width="1500"/>
 <circle connectorname="10" cx="91000" cy="23000" fill="none" id="connector9pin" r="2250" stroke="#ff9400" stroke-width="1500"/>
 <circle connectorname="11" cx="81000" cy="23000" fill="none" id="connector10pin" r="2250" stroke="#ff9400" stroke-width="1500"/>
 <circle connectorname="12" cx="71000" cy="23000" fill="none" id="connector11pin" r="2250" stroke="#ff9400" stroke-width="1500"/>
 <circle connectorname="13" cx="61000" cy="23000" fill="none" id="connector12pin" r="2250" stroke="#ff9400" stroke-width="1500"/>
 <circle connectorname="14" cx="51000" cy="23000" fill="none" id="connector13pin" r="2250" stroke="#ff9400" stroke-width="1500"/>
 <circle connectorname="15" cx="41000" cy="23000" fill="none" id="connector14pin" r="2250" stroke="#ff9400" stroke-width="1500"/>
 <circle connectorname="16" cx="31000" cy="23000" fill="none" id="connector15pin" r="2250" stroke="#ff9400" stroke-width="1500"/>
 <circle connectorname="17" cx="181000" cy="13000" fill="none" id="connector16pin" r="2250" stroke="#ff9400" stroke-width="1500"/>
 <circle connectorname="18" cx="171000" cy="13000" fill="none" id="connector17pin" r="2250" stroke="#ff9400" stroke-width="1500"/>
 <circle connectorname="19" cx="161000" cy="13000" fill="none" id="connector18pin" r="2250" stroke="#ff9400" stroke-width="1500"/>
 <circle connectorname="20" cx="151000" cy="13000" fill="none" id="connector19pin" r="2250" stroke="#ff9400" stroke-width="1500"/>
 <circle connectorname="21" cx="141000" cy="13000" fill="none" id="connector20pin" r="2250" stroke="#ff9400" stroke-width="1500"/>
 <circle connectorname="22" cx="131000" cy="13000" fill="none" id="connector21pin" r="2250" stroke="#ff9400" stroke-width="1500"/>
 <circle connectorname="23" cx="121000" cy="13000" fill="none" id="connector22pin" r="2250" stroke="#ff9400" stroke-width="1500"/>
 <circle connectorname="24" cx="111000" cy="13000" fill="none" id="connector23pin" r="2250" stroke="#ff9400" stroke-width="1500"/>
 <circle connectorname="25" cx="101000" cy="13000" fill="none" id="connector24pin" r="2250" stroke="#ff9400" stroke-width="1500"/>
 <circle connectorname="26" cx="91000" cy="13000" fill="none" id="connector25pin" r="2250" stroke="#ff9400" stroke-width="1500"/>
 <circle connectorname="27" cx="81000" cy="13000" fill="none" id="connector26pin" r="2250" stroke="#ff9400" stroke-width="1500"/>
 <circle connectorname="28" cx="71000" cy="13000" fill="none" id="connector27pin" r="2250" stroke="#ff9400" stroke-width="1500"/>
 <circle connectorname="29" cx="61000" cy="13000" fill="none" id="connector28pin" r="2250" stroke="#ff9400" stroke-width="1500"/>
 <circle connectorname="30" cx="51000" cy="13000" fill="none" id="connector29pin" r="2250" stroke="#ff9400" stroke-width="1500"/>
 <circle connectorname="31" cx="41000" cy="13000" fill="none" id="connector30pin" r="2250" stroke="#ff9400" stroke-width="1500"/>
 <circle connectorname="32" cx="31000" cy="13000" fill="none" id="connector31pin" r="2250" stroke="#ff9400" stroke-width="1500"/>
 <circle connectorname="33" cx="181000" cy="3000" fill="none" id="connector32pin" r="2250" stroke="#ff9400" stroke-width="1500"/>
 <circle connectorname="34" cx="171000" cy="3000" fill="none" id="connector33pin" r="2250" stroke="#ff9400" stroke-width="1500"/>
 <circle connectorname="35" cx="161000" cy="3000" fill="none" id="connector34pin" r="2250" stroke="#ff9400" stroke-width="1500"/>
 <circle connectorname="36" cx="151000" cy="3000" fill="none" id="connector35pin" r="2250" stroke="#ff9400" stroke-width="1500"/>
 <circle connectorname="37" cx="141000" cy="3000" fill="none" id="connector36pin" r="2250" stroke="#ff9400" stroke-width="1500"/>
 <circle connectorname="38" cx="131000" cy="3000" fill="none" id="connector37pin" r="2250" stroke="#ff9400" stroke-width="1500"/>
 <circle connectorname="39" cx="121000" cy="3000" fill="none" id="connector38pin" r="2250" stroke="#ff9400" stroke-width="1500"/>
 <circle connectorname="40" cx="111000" cy="3000" fill="none" id="connector39pin" r="2250" stroke="#ff9400" stroke-width="1500"/>
 <circle connectorname="41" cx="101000" cy="3000" fill="none" id="connector40pin" r="2250" stroke="#ff9400" stroke-width="1500"/>
 <circle connectorname="42" cx="91000" cy="3000" fill="none" id="connector41pin" r="2250" stroke="#ff9400" stroke-width="1500"/>
 <circle connectorname="43" cx="81000" cy="3000" fill="none" id="connector42pin" r="2250" stroke="#ff9400" stroke-width="1500"/>
 <circle connectorname="44" cx="71000" cy="3000" fill="none" id="connector43pin" r="2250" stroke="#ff9400" stroke-width="1500"/>
 <circle connectorname="45" cx="61000" cy="3000" fill="none" id="connector44pin" r="2250" stroke="#ff9400" stroke-width="1500"/>
 <circle connectorname="46" cx="51000" cy="3000" fill="none" id="connector45pin" r="2250" stroke="#ff9400" stroke-width="1500"/>
 <circle connectorname="47" cx="41000" cy="3000" fill="none" id="connector46pin" r="2250" stroke="#ff9400" stroke-width="1500"/>
 <circle connectorname="48" cx="31000" cy="3000" fill="none" id="connector47pin" r="2250" stroke="#ff9400" stroke-width="1500"/>
 <circle connectorname="M1" cx="11000" cy="33000" fill="none" id="" r="5000" stroke="#ff9400" stroke-width="2000"/>
 <circle connectorname="M2" cx="201000" cy="33000" fill="none" id="" r="5000" stroke="#ff9400" stroke-width="2000"/>
</g></g>
<g id="silkscreen">
 <line fill="none" stroke="white" stroke-width="4000" x1="31000" x2="31000" y1="3000" y2="30500"/>
 <line fill="none" stroke="white" stroke-width="4000" x1="41000" x2="41000" y1="3000" y2="30500"/>
 <line fill="none" stroke="white" stroke-width="4000" x1="51000" x2="51000" y1="3000" y2="30500"/>
 <line fill="none" stroke="white" stroke-width="4000" x1="61000" x2="61000" y1="3000" y2="30500"/>
 <line fill="none" stroke="white" stroke-width="4000" x1="71000" x2="71000" y1="3000" y2="30500"/>
 <line fill="none" stroke="white" stroke-width="4000" x1="81000" x2="81000" y1="3000" y2="30500"/>
 <line fill="none" stroke="white" stroke-width="4000" x1="91000" x2="91000" y1="3000" y2="30500"/>
 <line fill="none" stroke="white" stroke-width="4000" x1="101000" x2="101000" y1="3000" y2="30500"/>
 <line fill="none" stroke="white" stroke-width="4000" x1="111000" x2="111000" y1="3000" y2="30500"/>
 <line fill="none" stroke="white" stroke-width="4000" x1="121000" x2="121000" y1="3000" y2="30500"/>
 <line fill="none" stroke="white" stroke-width="4000" x1="131000" x2="131000" y1="3000" y2="30500"/>
 <line fill="none" stroke="white" stroke-width="4000" x1="141000" x2="141000" y1="3000" y2="30500"/>
 <line fill="none" stroke="white" stroke-width="4000" x1="151000" x2="151000" y1="3000" y2="30500"/>
 <line fill="none" stroke="white" stroke-width="4000" x1="161000" x2="161000" y1="3000" y2="30500"/>
 <line fill="none" stroke="white" stroke-width="4000" x1="171000" x2="171000" y1="3000" y2="30500"/>
 <line fill="none" stroke="white" stroke-width="4000" x1="181000" x2="181000" y1="3000" y2="30500"/>
 <line fill="none" stroke="white" stroke-width="2000" x1="1000" x2="23000" y1="23000" y2="23000"/>
 <line fill="none" stroke="white" stroke-width="2000" x1="23000" x2="23000" y1="23000" y2="32500"/>
 <line fill="none" stroke="white" stroke-width="1000" x1="23000" x2="23000" y1="32500" y2="55000"/>
 <line fill="none" stroke="white" stroke-width="1000" x1="23000" x2="11000" y1="55000" y2="55000"/>
 <line fill="none" stroke="white" stroke-width="2000" x1="11000" x2="1000" y1="55000" y2="55000"/>
 <line fill="none" stroke="white" stroke-width="2000" x1="1000" x2="1000" y1="55000" y2="23000"/>
 <line fill="none" stroke="white" stroke-width="2000" x1="189000" x2="211000" y1="23000" y2="23000"/>
 <line fill="none" stroke="white" stroke-width="2000" x1="211000" x2="211000" y1="23000" y2="55000"/>
 <line fill="none" stroke="white" stroke-width="2000" x1="211000" x2="201000" y1="55000" y2="55000"/>
 <line fill="none" stroke="white" stroke-width="1000" x1="201000" x2="189000" y1="55000" y2="55000"/>
 <line fill="none" stroke="white" stroke-width="1000" x1="189000" x2="189000" y1="55000" y2="32500"/>
 <line fill="none" stroke="white" stroke-width="2000" x1="189000" x2="189000" y1="32500" y2="23000"/>
 <line fill="none" stroke="white" stroke-width="2000" x1="23000" x2="189000" y1="32500" y2="32500"/>
 <line fill="none" stroke="white" stroke-width="2000" x1="11000" x2="11000" y1="55000" y2="73000"/>
 <line fill="none" stroke="white" stroke-width="2000" x1="11000" x2="201000" y1="73000" y2="73000"/>
 <line fill="none" stroke="white" stroke-width="2000" x1="201000" x2="201000" y1="73000" y2="55000"/>
</g>
</svg>