<?xml version="1.0" encoding="UTF-8"?><svg baseProfile="tiny" height="0.74in" version="1.2" viewBox="0 0 372000 74000" width="3.72in" x="0in" xmlns="http://www.w3.org/2000/svg" xmlns:svg="http://www.w3.org/2000/svg" y="0in"><title>DIN41_612MALE ac.fp</title><desc>Geda footprint file 'DIN41_612MALE ac.fp' converted by Fritzing</desc><metadata xmlns:fz="http://fritzing.org/gedametadata/1.0/" xmlns:rdf="http://www.w3.org/1999/02/22-rdf-syntax-ns#"><rdf:RDF><rdf:Description rdf:about=""><fz:attr name="geda filename">DIN41_612MALE ac.fp</fz:attr><fz:attr name="fritzing version">0.3.17b.04.07.4081</fz:attr><fz:attr name="conversion date">12/04/2010 13:02:43</fz:attr><fz:comment>Reihe a</fz:comment><fz:comment>Reihe b</fz:comment><fz:comment>Reihe c</fz:comment><fz:comment>Rueckseite Kontaktstifte</fz:comment><fz:comment>Befestigungsbohrung</fz:comment><fz:comment>Begrenzung M1</fz:comment><fz:comment>Begrenzung M2</fz:comment><fz:comment>Kante Pins</fz:comment><fz:comment>Kanten Stifte</fz:comment><fz:attr name="dist-license">GPL</fz:attr><fz:attr name="use-license">unlimited</fz:attr><fz:attr name="author">gEDA project</fz:attr><fz:attr name="license-url">http://www.gnu.org/licenses/gpl.html</fz:attr></rdf:Description></rdf:RDF></metadata><g id="copper1"><g id="copper0">
 <circle connectorname="a1" cx="341000" cy="23000" fill="none" id="" r="2250" stroke="#ff9400" stroke-width="1500"/>
 <circle connectorname="a2" cx="331000" cy="23000" fill="none" id="" r="2250" stroke="#ff9400" stroke-width="1500"/>
 <circle connectorname="a3" cx="321000" cy="23000" fill="none" id="" r="2250" stroke="#ff9400" stroke-width="1500"/>
 <circle connectorname="a4" cx="311000" cy="23000" fill="none" id="" r="2250" stroke="#ff9400" stroke-width="1500"/>
 <circle connectorname="a5" cx="301000" cy="23000" fill="none" id="" r="2250" stroke="#ff9400" stroke-width="1500"/>
 <circle connectorname="a6" cx="291000" cy="23000" fill="none" id="" r="2250" stroke="#ff9400" stroke-width="1500"/>
 <circle connectorname="a7" cx="281000" cy="23000" fill="none" id="" r="2250" stroke="#ff9400" stroke-width="1500"/>
 <circle connectorname="a8" cx="271000" cy="23000" fill="none" id="" r="2250" stroke="#ff9400" stroke-width="1500"/>
 <circle connectorname="a9" cx="261000" cy="23000" fill="none" id="" r="2250" stroke="#ff9400" stroke-width="1500"/>
 <circle connectorname="a10" cx="251000" cy="23000" fill="none" id="" r="2250" stroke="#ff9400" stroke-width="1500"/>
 <circle connectorname="a11" cx="241000" cy="23000" fill="none" id="" r="2250" stroke="#ff9400" stroke-width="1500"/>
 <circle connectorname="a12" cx="231000" cy="23000" fill="none" id="" r="2250" stroke="#ff9400" stroke-width="1500"/>
 <circle connectorname="a13" cx="221000" cy="23000" fill="none" id="" r="2250" stroke="#ff9400" stroke-width="1500"/>
 <circle connectorname="a14" cx="211000" cy="23000" fill="none" id="" r="2250" stroke="#ff9400" stroke-width="1500"/>
 <circle connectorname="a15" cx="201000" cy="23000" fill="none" id="" r="2250" stroke="#ff9400" stroke-width="1500"/>
 <circle connectorname="a16" cx="191000" cy="23000" fill="none" id="" r="2250" stroke="#ff9400" stroke-width="1500"/>
 <circle connectorname="a17" cx="181000" cy="23000" fill="none" id="" r="2250" stroke="#ff9400" stroke-width="1500"/>
 <circle connectorname="a18" cx="171000" cy="23000" fill="none" id="" r="2250" stroke="#ff9400" stroke-width="1500"/>
 <circle connectorname="a19" cx="161000" cy="23000" fill="none" id="" r="2250" stroke="#ff9400" stroke-width="1500"/>
 <circle connectorname="a20" cx="151000" cy="23000" fill="none" id="" r="2250" stroke="#ff9400" stroke-width="1500"/>
 <circle connectorname="a21" cx="141000" cy="23000" fill="none" id="" r="2250" stroke="#ff9400" stroke-width="1500"/>
 <circle connectorname="a22" cx="131000" cy="23000" fill="none" id="" r="2250" stroke="#ff9400" stroke-width="1500"/>
 <circle connectorname="a23" cx="121000" cy="23000" fill="none" id="" r="2250" stroke="#ff9400" stroke-width="1500"/>
 <circle connectorname="a24" cx="111000" cy="23000" fill="none" id="" r="2250" stroke="#ff9400" stroke-width="1500"/>
 <circle connectorname="a25" cx="101000" cy="23000" fill="none" id="" r="2250" stroke="#ff9400" stroke-width="1500"/>
 <circle connectorname="a26" cx="91000" cy="23000" fill="none" id="" r="2250" stroke="#ff9400" stroke-width="1500"/>
 <circle connectorname="a27" cx="81000" cy="23000" fill="none" id="" r="2250" stroke="#ff9400" stroke-width="1500"/>
 <circle connectorname="a28" cx="71000" cy="23000" fill="none" id="" r="2250" stroke="#ff9400" stroke-width="1500"/>
 <circle connectorname="a29" cx="61000" cy="23000" fill="none" id="" r="2250" stroke="#ff9400" stroke-width="1500"/>
 <circle connectorname="a30" cx="51000" cy="23000" fill="none" id="" r="2250" stroke="#ff9400" stroke-width="1500"/>
 <circle connectorname="a31" cx="41000" cy="23000" fill="none" id="" r="2250" stroke="#ff9400" stroke-width="1500"/>
 <circle connectorname="a32" cx="31000" cy="23000" fill="none" id="" r="2250" stroke="#ff9400" stroke-width="1500"/>
 <circle connectorname="c1" cx="341000" cy="3000" fill="none" id="" r="2250" stroke="#ff9400" stroke-width="1500"/>
 <circle connectorname="c2" cx="331000" cy="3000" fill="none" id="" r="2250" stroke="#ff9400" stroke-width="1500"/>
 <circle connectorname="c3" cx="321000" cy="3000" fill="none" id="" r="2250" stroke="#ff9400" stroke-width="1500"/>
 <circle connectorname="c4" cx="311000" cy="3000" fill="none" id="" r="2250" stroke="#ff9400" stroke-width="1500"/>
 <circle connectorname="c5" cx="301000" cy="3000" fill="none" id="" r="2250" stroke="#ff9400" stroke-width="1500"/>
 <circle connectorname="c6" cx="291000" cy="3000" fill="none" id="" r="2250" stroke="#ff9400" stroke-width="1500"/>
 <circle connectorname="c7" cx="281000" cy="3000" fill="none" id="" r="2250" stroke="#ff9400" stroke-width="1500"/>
 <circle connectorname="c8" cx="271000" cy="3000" fill="none" id="" r="2250" stroke="#ff9400" stroke-width="1500"/>
 <circle connectorname="c9" cx="261000" cy="3000" fill="none" id="" r="2250" stroke="#ff9400" stroke-width="1500"/>
 <circle connectorname="c10" cx="251000" cy="3000" fill="none" id="" r="2250" stroke="#ff9400" stroke-width="1500"/>
 <circle connectorname="c11" cx="241000" cy="3000" fill="none" id="" r="2250" stroke="#ff9400" stroke-width="1500"/>
 <circle connectorname="c12" cx="231000" cy="3000" fill="none" id="" r="2250" stroke="#ff9400" stroke-width="1500"/>
 <circle connectorname="c13" cx="221000" cy="3000" fill="none" id="" r="2250" stroke="#ff9400" stroke-width="1500"/>
 <circle connectorname="c14" cx="211000" cy="3000" fill="none" id="" r="2250" stroke="#ff9400" stroke-width="1500"/>
 <circle connectorname="c15" cx="201000" cy="3000" fill="none" id="" r="2250" stroke="#ff9400" stroke-width="1500"/>
 <circle connectorname="c16" cx="191000" cy="3000" fill="none" id="" r="2250" stroke="#ff9400" stroke-width="1500"/>
 <circle connectorname="c17" cx="181000" cy="3000" fill="none" id="" r="2250" stroke="#ff9400" stroke-width="1500"/>
 <circle connectorname="c18" cx="171000" cy="3000" fill="none" id="" r="2250" stroke="#ff9400" stroke-width="1500"/>
 <circle connectorname="c19" cx="161000" cy="3000" fill="none" id="" r="2250" stroke="#ff9400" stroke-width="1500"/>
 <circle connectorname="c20" cx="151000" cy="3000" fill="none" id="" r="2250" stroke="#ff9400" stroke-width="1500"/>
 <circle connectorname="c21" cx="141000" cy="3000" fill="none" id="" r="2250" stroke="#ff9400" stroke-width="1500"/>
 <circle connectorname="c22" cx="131000" cy="3000" fill="none" id="" r="2250" stroke="#ff9400" stroke-width="1500"/>
 <circle connectorname="c23" cx="121000" cy="3000" fill="none" id="" r="2250" stroke="#ff9400" stroke-width="1500"/>
 <circle connectorname="c24" cx="111000" cy="3000" fill="none" id="" r="2250" stroke="#ff9400" stroke-width="1500"/>
 <circle connectorname="c25" cx="101000" cy="3000" fill="none" id="" r="2250" stroke="#ff9400" stroke-width="1500"/>
 <circle connectorname="c26" cx="91000" cy="3000" fill="none" id="" r="2250" stroke="#ff9400" stroke-width="1500"/>
 <circle connectorname="c27" cx="81000" cy="3000" fill="none" id="" r="2250" stroke="#ff9400" stroke-width="1500"/>
 <circle connectorname="c28" cx="71000" cy="3000" fill="none" id="" r="2250" stroke="#ff9400" stroke-width="1500"/>
 <circle connectorname="c29" cx="61000" cy="3000" fill="none" id="" r="2250" stroke="#ff9400" stroke-width="1500"/>
 <circle connectorname="c30" cx="51000" cy="3000" fill="none" id="" r="2250" stroke="#ff9400" stroke-width="1500"/>
 <circle connectorname="c31" cx="41000" cy="3000" fill="none" id="" r="2250" stroke="#ff9400" stroke-width="1500"/>
 <circle connectorname="c32" cx="31000" cy="3000" fill="none" id="" r="2250" stroke="#ff9400" stroke-width="1500"/>
 <circle connectorname="M1" cx="11000" cy="33000" fill="none" id="" r="5000" stroke="#ff9400" stroke-width="2000"/>
 <circle connectorname="M2" cx="361000" cy="33000" fill="none" id="" r="5000" stroke="#ff9400" stroke-width="2000"/>
</g></g>
<g id="silkscreen">
 <line fill="none" stroke="white" stroke-width="4000" x1="31000" x2="31000" y1="3000" y2="30500"/>
 <line fill="none" stroke="white" stroke-width="4000" x1="41000" x2="41000" y1="3000" y2="30500"/>
 <line fill="none" stroke="white" stroke-width="4000" x1="51000" x2="51000" y1="3000" y2="30500"/>
 <line fill="none" stroke="white" stroke-width="4000" x1="61000" x2="61000" y1="3000" y2="30500"/>
 <line fill="none" stroke="white" stroke-width="4000" x1="71000" x2="71000" y1="3000" y2="30500"/>
 <line fill="none" stroke="white" stroke-width="4000" x1="81000" x2="81000" y1="3000" y2="30500"/>
 <line fill="none" stroke="white" stroke-width="4000" x1="91000" x2="91000" y1="3000" y2="30500"/>
 <line fill="none" stroke="white" stroke-width="4000" x1="101000" x2="101000" y1="3000" y2="30500"/>
 <line fill="none" stroke="white" stroke-width="4000" x1="111000" x2="111000" y1="3000" y2="30500"/>
 <line fill="none" stroke="white" stroke-width="4000" x1="121000" x2="121000" y1="3000" y2="30500"/>
 <line fill="none" stroke="white" stroke-width="4000" x1="131000" x2="131000" y1="3000" y2="30500"/>
 <line fill="none" stroke="white" stroke-width="4000" x1="141000" x2="141000" y1="3000" y2="30500"/>
 <line fill="none" stroke="white" stroke-width="4000" x1="151000" x2="151000" y1="3000" y2="30500"/>
 <line fill="none" stroke="white" stroke-width="4000" x1="161000" x2="161000" y1="3000" y2="30500"/>
 <line fill="none" stroke="white" stroke-width="4000" x1="171000" x2="171000" y1="3000" y2="30500"/>
 <line fill="none" stroke="white" stroke-width="4000" x1="181000" x2="181000" y1="3000" y2="30500"/>
 <line fill="none" stroke="white" stroke-width="4000" x1="191000" x2="191000" y1="3000" y2="30500"/>
 <line fill="none" stroke="white" stroke-width="4000" x1="201000" x2="201000" y1="3000" y2="30500"/>
 <line fill="none" stroke="white" stroke-width="4000" x1="211000" x2="211000" y1="3000" y2="30500"/>
 <line fill="none" stroke="white" stroke-width="4000" x1="221000" x2="221000" y1="3000" y2="30500"/>
 <line fill="none" stroke="white" stroke-width="4000" x1="231000" x2="231000" y1="3000" y2="30500"/>
 <line fill="none" stroke="white" stroke-width="4000" x1="241000" x2="241000" y1="3000" y2="30500"/>
 <line fill="none" stroke="white" stroke-width="4000" x1="251000" x2="251000" y1="3000" y2="30500"/>
 <line fill="none" stroke="white" stroke-width="4000" x1="261000" x2="261000" y1="3000" y2="30500"/>
 <line fill="none" stroke="white" stroke-width="4000" x1="271000" x2="271000" y1="3000" y2="30500"/>
 <line fill="none" stroke="white" stroke-width="4000" x1="281000" x2="281000" y1="3000" y2="30500"/>
 <line fill="none" stroke="white" stroke-width="4000" x1="291000" x2="291000" y1="3000" y2="30500"/>
 <line fill="none" stroke="white" stroke-width="4000" x1="301000" x2="301000" y1="3000" y2="30500"/>
 <line fill="none" stroke="white" stroke-width="4000" x1="311000" x2="311000" y1="3000" y2="30500"/>
 <line fill="none" stroke="white" stroke-width="4000" x1="321000" x2="321000" y1="3000" y2="30500"/>
 <line fill="none" stroke="white" stroke-width="4000" x1="331000" x2="331000" y1="3000" y2="30500"/>
 <line fill="none" stroke="white" stroke-width="4000" x1="341000" x2="341000" y1="3000" y2="30500"/>
 <line fill="none" stroke="white" stroke-width="2000" x1="1000" x2="23000" y1="23000" y2="23000"/>
 <line fill="none" stroke="white" stroke-width="2000" x1="23000" x2="23000" y1="23000" y2="32500"/>
 <line fill="none" stroke="white" stroke-width="1000" x1="23000" x2="23000" y1="32500" y2="55000"/>
 <line fill="none" stroke="white" stroke-width="1000" x1="23000" x2="11000" y1="55000" y2="55000"/>
 <line fill="none" stroke="white" stroke-width="2000" x1="11000" x2="1000" y1="55000" y2="55000"/>
 <line fill="none" stroke="white" stroke-width="2000" x1="1000" x2="1000" y1="55000" y2="23000"/>
 <line fill="none" stroke="white" stroke-width="2000" x1="349000" x2="371000" y1="23000" y2="23000"/>
 <line fill="none" stroke="white" stroke-width="2000" x1="371000" x2="371000" y1="23000" y2="55000"/>
 <line fill="none" stroke="white" stroke-width="2000" x1="371000" x2="361000" y1="55000" y2="55000"/>
 <line fill="none" stroke="white" stroke-width="1000" x1="361000" x2="349000" y1="55000" y2="55000"/>
 <line fill="none" stroke="white" stroke-width="1000" x1="349000" x2="349000" y1="55000" y2="32500"/>
 <line fill="none" stroke="white" stroke-width="2000" x1="349000" x2="349000" y1="32500" y2="23000"/>
 <line fill="none" stroke="white" stroke-width="2000" x1="23000" x2="349000" y1="32500" y2="32500"/>
 <line fill="none" stroke="white" stroke-width="2000" x1="11000" x2="11000" y1="55000" y2="73000"/>
 <line fill="none" stroke="white" stroke-width="2000" x1="11000" x2="361000" y1="73000" y2="73000"/>
 <line fill="none" stroke="white" stroke-width="2000" x1="361000" x2="361000" y1="73000" y2="55000"/>
</g>
</svg>