<?xml version="1.0" encoding="UTF-8"?><svg baseProfile="tiny" height="0.36in" version="1.2" viewBox="0 0 41000 36000" width="0.41in" x="0in" xmlns="http://www.w3.org/2000/svg" xmlns:svg="http://www.w3.org/2000/svg" y="0in"><title>IRF_optical_switch.fp</title><desc>Geda footprint file 'IRF_optical_switch.fp' converted by Fritzing</desc><metadata xmlns:fz="http://fritzing.org/gedametadata/1.0/" xmlns:rdf="http://www.w3.org/1999/02/22-rdf-syntax-ns#"><rdf:RDF><rdf:Description rdf:about=""><fz:attr name="geda filename">IRF_optical_switch.fp</fz:attr><fz:attr name="fritzing version">0.3.17b.04.07.4081</fz:attr><fz:attr name="conversion date">12/04/2010 13:02:48</fz:attr><fz:attr name="dist-license">GPL</fz:attr><fz:attr name="use-license">unlimited</fz:attr><fz:attr name="author">gEDA project</fz:attr><fz:attr name="license-url">http://www.gnu.org/licenses/gpl.html</fz:attr></rdf:Description></rdf:RDF></metadata><g id="copper1"><g id="copper0">
 <circle connectorname="" cx="13000" cy="33000" fill="none" id="connector0pin" r="2375" stroke="#ff9400" stroke-width="1250"/>
 <circle connectorname="" cx="23000" cy="33000" fill="none" id="connector1pin" r="2375" stroke="#ff9400" stroke-width="1250"/>
 <circle connectorname="" cx="33000" cy="33000" fill="none" id="connector2pin" r="2375" stroke="#ff9400" stroke-width="1250"/>
 <circle connectorname="" cx="33000" cy="3000" fill="none" id="connector3pin" r="2375" stroke="#ff9400" stroke-width="1250"/>
 <circle connectorname="" cx="23000" cy="3000" fill="none" id="connector4pin" r="2375" stroke="#ff9400" stroke-width="1250"/>
 <circle connectorname="" cx="13000" cy="3000" fill="none" id="connector5pin" r="2375" stroke="#ff9400" stroke-width="1250"/>
</g></g>
<g id="silkscreen">
 <line fill="none" stroke="white" stroke-width="1000" x1="8000" x2="5500" y1="33000" y2="33000"/>
 <line fill="none" stroke="white" stroke-width="1000" x1="5500" x2="5500" y1="33000" y2="23000"/>
 <line fill="none" stroke="white" stroke-width="1000" x1="5500" x2="5500" y1="13000" y2="3000"/>
 <line fill="none" stroke="white" stroke-width="1000" x1="5500" x2="8000" y1="3000" y2="3000"/>
 <line fill="none" stroke="white" stroke-width="1000" x1="38000" x2="40500" y1="3000" y2="3000"/>
 <line fill="none" stroke="white" stroke-width="1000" x1="40500" x2="40500" y1="3000" y2="33000"/>
 <line fill="none" stroke="white" stroke-width="1000" x1="40500" x2="38000" y1="33000" y2="33000"/>
 <path d="M5500,23000a5000,5000,0,0,0,5000,-5000" fill="none" stroke="white" stroke-width="1000"/>
 <path d="M10500,18000a5000,5000,0,0,0,-5000,-5000" fill="none" stroke="white" stroke-width="1000"/>
</g>
</svg>