<?xml version="1.0" encoding="UTF-8"?><svg baseProfile="tiny" height="0.8in" version="1.2" viewBox="0 0 50000 80000" width="0.5in" x="0in" xmlns="http://www.w3.org/2000/svg" xmlns:svg="http://www.w3.org/2000/svg" y="0in"><title>OSC 32.fp</title><desc>Geda footprint file 'OSC 32.fp' converted by Fritzing</desc><metadata xmlns:fz="http://fritzing.org/gedametadata/1.0/" xmlns:rdf="http://www.w3.org/1999/02/22-rdf-syntax-ns#"><rdf:RDF><rdf:Description rdf:about=""><fz:attr name="geda filename">OSC 32.fp</fz:attr><fz:attr name="fritzing version">0.3.17b.04.07.4081</fz:attr><fz:attr name="conversion date">12/04/2010 13:02:53</fz:attr><fz:attr name="dist-license">GPL</fz:attr><fz:attr name="use-license">unlimited</fz:attr><fz:attr name="author">gEDA project</fz:attr><fz:attr name="license-url">http://www.gnu.org/licenses/gpl.html</fz:attr></rdf:Description></rdf:RDF></metadata><g id="copper1"><g id="copper0"><circle connectorname="NC" cx="10000" cy="10000" fill="none" id="" r="1950" stroke="#ff9400" stroke-width="1100"/><circle connectorname="GND" cx="10000" cy="70000" fill="none" id="" r="1950" stroke="#ff9400" stroke-width="1100"/><circle connectorname="CLK" cx="40000" cy="70000" fill="none" id="" r="1950" stroke="#ff9400" stroke-width="1100"/><circle connectorname="VCC" cx="40000" cy="10000" fill="none" id="" r="1950" stroke="#ff9400" stroke-width="1100"/></g></g><g id="silkscreen"><line fill="none" stroke="white" stroke-width="1000" x1="500" x2="40000" y1="500" y2="500"/><path d="M49500,10000a9500,9500 0 0,0 -9500,-9500" fill="none" stroke="white" stroke-width="1000"/><line fill="none" stroke="white" stroke-width="1000" x1="49500" x2="49500" y1="10000" y2="70000"/><path d="M40000,79500a9500,9500 0 0,0 9500,-9500" fill="none" stroke="white" stroke-width="1000"/><line fill="none" stroke="white" stroke-width="1000" x1="40000" x2="10000" y1="79500" y2="79500"/><path d="M500,70000a9500,9500 0 0,0 9500,9500" fill="none" stroke="white" stroke-width="1000"/><line fill="none" stroke="white" stroke-width="1000" x1="500" x2="500" y1="70000" y2="500"/><line fill="none" stroke="white" stroke-width="1000" x1="10000" x2="40000" y1="6000" y2="6000"/><path d="M44000,10000a4000,4000 0 0,0 -4000,-4000" fill="none" stroke="white" stroke-width="1000"/><line fill="none" stroke="white" stroke-width="1000" x1="44000" x2="44000" y1="10000" y2="70000"/><path d="M40000,74000a4000,4000 0 0,0 4000,-4000" fill="none" stroke="white" stroke-width="1000"/><line fill="none" stroke="white" stroke-width="1000" x1="40000" x2="10000" y1="74000" y2="74000"/><path d="M6000,70000a4000,4000 0 0,0 4000,4000" fill="none" stroke="white" stroke-width="1000"/><line fill="none" stroke="white" stroke-width="1000" x1="6000" x2="6000" y1="70000" y2="10000"/><path d="M10000,6000a4000,4000 0 0,0 -4000,4000" fill="none" stroke="white" stroke-width="1000"/></g></svg>