<?xml version="1.0" encoding="UTF-8"?><svg baseProfile="tiny" height="2.01in" version="1.2" viewBox="0 0 211000 201000" width="2.11in" x="0in" xmlns="http://www.w3.org/2000/svg" xmlns:svg="http://www.w3.org/2000/svg" y="0in"><title>OVEN_OSC 5.fp</title><desc>Geda footprint file 'OVEN_OSC 5.fp' converted by Fritzing</desc><metadata xmlns:fz="http://fritzing.org/gedametadata/1.0/" xmlns:rdf="http://www.w3.org/1999/02/22-rdf-syntax-ns#"><rdf:RDF><rdf:Description rdf:about=""><fz:attr name="geda filename">OVEN_OSC 5.fp</fz:attr><fz:attr name="fritzing version">0.3.17b.04.07.4081</fz:attr><fz:attr name="conversion date">12/04/2010 13:02:54</fz:attr><fz:attr name="dist-license">GPL</fz:attr><fz:attr name="use-license">unlimited</fz:attr><fz:attr name="author">gEDA project</fz:attr><fz:attr name="license-url">http://www.gnu.org/licenses/gpl.html</fz:attr></rdf:Description></rdf:RDF></metadata><g id="copper1"><g id="copper0">
 <circle connectorname="NC" cx="32500" cy="32500" fill="none" id="" r="4625" stroke="#ff9400" stroke-width="5750"/>
 <circle connectorname="VCC" cx="32500" cy="100500" fill="none" id="" r="4625" stroke="#ff9400" stroke-width="5750"/>
 <circle connectorname="CLK" cx="32500" cy="168500" fill="none" id="" r="4625" stroke="#ff9400" stroke-width="5750"/>
 <circle connectorname="+12V" cx="168500" cy="32500" fill="none" id="" r="4625" stroke="#ff9400" stroke-width="5750"/>
 <circle connectorname="GND" cx="168500" cy="168500" fill="none" id="" r="4625" stroke="#ff9400" stroke-width="5750"/>
</g></g>
<g id="silkscreen">
 <line fill="none" stroke="white" stroke-width="1000" x1="202500" x2="202500" y1="113000" y2="88000"/>
 <line fill="none" stroke="white" stroke-width="1000" x1="210500" x2="202500" y1="88000" y2="88000"/>
 <line fill="none" stroke="white" stroke-width="1000" x1="210500" x2="210500" y1="98000" y2="88000"/>
 <line fill="none" stroke="white" stroke-width="1000" x1="208000" x2="210500" y1="98000" y2="98000"/>
 <line fill="none" stroke="white" stroke-width="1000" x1="208000" x2="208000" y1="103000" y2="98000"/>
 <line fill="none" stroke="white" stroke-width="1000" x1="210500" x2="208000" y1="103000" y2="103000"/>
 <line fill="none" stroke="white" stroke-width="1000" x1="210500" x2="210500" y1="113000" y2="103000"/>
 <line fill="none" stroke="white" stroke-width="1000" x1="210500" x2="202500" y1="113000" y2="113000"/>
 <line fill="none" stroke="white" stroke-width="1000" x1="200500" x2="200500" y1="32500" y2="168500"/>
 <line fill="none" stroke="white" stroke-width="1000" x1="32500" x2="168500" y1="500" y2="500"/>
 <line fill="none" stroke="white" stroke-width="1000" x1="500" x2="500" y1="168500" y2="32500"/>
 <line fill="none" stroke="white" stroke-width="1000" x1="168500" x2="32500" y1="200500" y2="200500"/>
 <path d="M32500,500a32000,32000,0,0,0,-32000,32000" fill="none" stroke="white" stroke-width="1000"/>
 <path d="M500,168500a32000,32000,0,0,0,32000,32000" fill="none" stroke="white" stroke-width="1000"/>
 <path d="M200500,32500a32000,32000,0,0,0,-32000,-32000" fill="none" stroke="white" stroke-width="1000"/>
 <path d="M168500,200500a32000,32000,0,0,0,32000,-32000" fill="none" stroke="white" stroke-width="1000"/>
</g>
</svg>