<?xml version="1.0" encoding="UTF-8" standalone="no"?> <svg xmlns:svg="http://www.w3.org/2000/svg" xmlns="http://www.w3.org/2000/svg" version="1.2" baseProfile="tiny" x="0in" y="0in" width="0.35432in" height="0.132in" viewBox="0 0 35432 13200" ><title>RES-700P-900L-330D__Yageo-MR-TYPE-50.fp</title><desc>Geda footprint file 'RES-700P-900L-330D__Yageo-MR-TYPE-50.fp' converted by Fritzing</desc><metadata xmlns:fz='http://fritzing.org/gedametadata/1.0/' xmlns:rdf='http://www.w3.org/1999/02/22-rdf-syntax-ns#'><rdf:RDF><rdf:Description rdf:about=''><fz:attr name='geda filename'>RES-700P-900L-330D__Yageo-MR-TYPE-50.fp</fz:attr><fz:attr name='fritzing version'>0.3.17b.03.22.4055</fz:attr><fz:attr name='conversion date'>06/04/2010 23:44:52</fz:attr></rdf:Description></rdf:RDF></metadata><g id="copper0">
 <circle fill="none" cx="3937" cy="6600" connectorname="" stroke="#ffbf00" r="2250" id="connector0pin" stroke-width="1000"/>
 <circle fill="none" cx="31495" cy="6600" connectorname="" stroke="#ffbf00" r="2250" id="connector1pin" stroke-width="1000"/>
</g>
<g id="silkscreen">
 <line fill="none" stroke="white" y1="1604" x1="500" y2="1604" stroke-width="1000" x2="34932"/>
 <line fill="none" stroke="white" y1="11596" x1="500" y2="11596" stroke-width="1000" x2="34932"/>
 <path fill="none" stroke="white" stroke-width="1499" d="M776.5,11895.9a749,749,0,0,0,1446.96,0"/>
 <path fill="none" stroke="white" stroke-width="1499" d="M33208.5,11895.9a749,749,0,0,0,1446.96,0"/>
 <path fill="none" stroke="white" stroke-width="1499" d="M2223.5,1304.14a749,749,0,0,0,-1446.96,0"/>
 <path fill="none" stroke="white" stroke-width="1499" d="M34655.5,1304.14a749,749,0,0,0,-1446.96,0"/>
 <line fill="none" stroke="white" y1="11846" x1="500" y2="9596" stroke-width="1000" x2="500"/>
 <line fill="none" stroke="white" y1="11846" x1="34932" y2="9596" stroke-width="1000" x2="34932"/>
 <line fill="none" stroke="white" y1="1354" x1="500" y2="3604" stroke-width="1000" x2="500"/>
 <line fill="none" stroke="white" y1="1354" x1="34932" y2="3604" stroke-width="1000" x2="34932"/>
</g>
</svg>