<?xml version="1.0" encoding="UTF-8" standalone="no"?> <svg xmlns:svg="http://www.w3.org/2000/svg" xmlns="http://www.w3.org/2000/svg" version="1.2" baseProfile="tiny" x="0in" y="0in" width="0.3in" height="0.2631in" viewBox="0 0 3000 2631" ><title>SparkFun.mod</title><desc>Kicad module 'SparkFun-2X3_OFFSET' from file 'SparkFun.mod' converted by Fritzing</desc><metadata xmlns:fz='http://fritzing.org/kicadmetadata/1.0/' xmlns:rdf='http://www.w3.org/1999/02/22-rdf-syntax-ns#'><rdf:RDF><rdf:Description rdf:about=''><fz:attr name='kicad filename'>SparkFun.mod</fz:attr>
<fz:attr name='kicad module'>SparkFun-2X3_OFFSET</fz:attr>
<fz:attr name='fritzing version'>0.3.21b.05.25.4197</fz:attr>
<fz:attr name='conversion date'>07/06/2010 13:12:21</fz:attr>
<fz:attr name='dist-license'>GPL</fz:attr>
<fz:attr name='use-license'>unlimited</fz:attr>
<fz:attr name='author'>KICAD project</fz:attr>
<fz:attr name='license-url'>http://www.gnu.org/licenses/gpl.html</fz:attr>
<fz:comment></fz:comment>
<fz:attr name='keyword'></fz:attr>
</rdf:Description></rdf:RDF></metadata><g id="copper0">
 <g id="copper1">
  <g connectorname="1" id="connector0pin">
   <circle fill="none" cx="500" cy="1250" stroke="#ff9400" r="100" stroke-width="-200"/>
   <line fill="none" stroke="#ff9400" y1="1150" x1="130" y2="1150" stroke-width="-200" x2="870"/>
   <line fill="none" stroke="#ff9400" y1="1350" x1="130" y2="1350" stroke-width="-200" x2="870"/>
   <line fill="none" stroke="#ff9400" y1="1250" x1="215" y2="1250" stroke-width="170" x2="215"/>
   <line fill="none" stroke="#ff9400" y1="1250" x1="785" y2="1250" stroke-width="170" x2="785"/>
  </g>
  <g connectorname="2" id="connector1pin">
   <circle fill="none" cx="500" cy="250" stroke="#ff9400" r="100" stroke-width="-200"/>
   <line fill="none" stroke="#ff9400" y1="150" x1="130" y2="150" stroke-width="-200" x2="870"/>
   <line fill="none" stroke="#ff9400" y1="350" x1="130" y2="350" stroke-width="-200" x2="870"/>
   <line fill="none" stroke="#ff9400" y1="250" x1="215" y2="250" stroke-width="170" x2="215"/>
   <line fill="none" stroke="#ff9400" y1="250" x1="785" y2="250" stroke-width="170" x2="785"/>
  </g>
  <g connectorname="3" id="connector2pin">
   <circle fill="none" cx="1500" cy="1250" stroke="#ff9400" r="100" stroke-width="-200"/>
   <line fill="none" stroke="#ff9400" y1="1150" x1="1130" y2="1150" stroke-width="-200" x2="1870"/>
   <line fill="none" stroke="#ff9400" y1="1350" x1="1130" y2="1350" stroke-width="-200" x2="1870"/>
   <line fill="none" stroke="#ff9400" y1="1250" x1="1215" y2="1250" stroke-width="170" x2="1215"/>
   <line fill="none" stroke="#ff9400" y1="1250" x1="1785" y2="1250" stroke-width="170" x2="1785"/>
  </g>
  <g connectorname="4" id="connector3pin">
   <circle fill="none" cx="1500" cy="250" stroke="#ff9400" r="100" stroke-width="-200"/>
   <line fill="none" stroke="#ff9400" y1="150" x1="1130" y2="150" stroke-width="-200" x2="1870"/>
   <line fill="none" stroke="#ff9400" y1="350" x1="1130" y2="350" stroke-width="-200" x2="1870"/>
   <line fill="none" stroke="#ff9400" y1="250" x1="1215" y2="250" stroke-width="170" x2="1215"/>
   <line fill="none" stroke="#ff9400" y1="250" x1="1785" y2="250" stroke-width="170" x2="1785"/>
  </g>
  <g connectorname="5" id="connector4pin">
   <circle fill="none" cx="2500" cy="1250" stroke="#ff9400" r="100" stroke-width="-200"/>
   <line fill="none" stroke="#ff9400" y1="1150" x1="2130" y2="1150" stroke-width="-200" x2="2870"/>
   <line fill="none" stroke="#ff9400" y1="1350" x1="2130" y2="1350" stroke-width="-200" x2="2870"/>
   <line fill="none" stroke="#ff9400" y1="1250" x1="2215" y2="1250" stroke-width="170" x2="2215"/>
   <line fill="none" stroke="#ff9400" y1="1250" x1="2785" y2="1250" stroke-width="170" x2="2785"/>
  </g>
  <g connectorname="6" id="connector5pin">
   <circle fill="none" cx="2500" cy="250" stroke="#ff9400" r="100" stroke-width="-200"/>
   <line fill="none" stroke="#ff9400" y1="150" x1="2130" y2="150" stroke-width="-200" x2="2870"/>
   <line fill="none" stroke="#ff9400" y1="350" x1="2130" y2="350" stroke-width="-200" x2="2870"/>
   <line fill="none" stroke="#ff9400" y1="250" x1="2215" y2="250" stroke-width="170" x2="2215"/>
   <line fill="none" stroke="#ff9400" y1="250" x1="2785" y2="250" stroke-width="170" x2="2785"/>
  </g>
 </g>
</g>
<g id="silkscreen">
 <line fill="none" stroke="white" y1="1350" x1="400" y2="1350" stroke-width="26" x2="600"/>
 <line fill="none" stroke="white" y1="1350" x1="600" y2="1150" stroke-width="26" x2="600"/>
 <line fill="none" stroke="white" y1="1150" x1="400" y2="1150" stroke-width="26" x2="600"/>
 <line fill="none" stroke="white" y1="1350" x1="400" y2="1150" stroke-width="26" x2="400"/>
 <line fill="none" stroke="white" y1="350" x1="400" y2="350" stroke-width="26" x2="600"/>
 <line fill="none" stroke="white" y1="350" x1="600" y2="150" stroke-width="26" x2="600"/>
 <line fill="none" stroke="white" y1="150" x1="400" y2="150" stroke-width="26" x2="600"/>
 <line fill="none" stroke="white" y1="350" x1="400" y2="150" stroke-width="26" x2="400"/>
 <line fill="none" stroke="white" y1="350" x1="1400" y2="350" stroke-width="26" x2="1600"/>
 <line fill="none" stroke="white" y1="350" x1="1600" y2="150" stroke-width="26" x2="1600"/>
 <line fill="none" stroke="white" y1="150" x1="1400" y2="150" stroke-width="26" x2="1600"/>
 <line fill="none" stroke="white" y1="350" x1="1400" y2="150" stroke-width="26" x2="1400"/>
 <line fill="none" stroke="white" y1="1350" x1="1400" y2="1350" stroke-width="26" x2="1600"/>
 <line fill="none" stroke="white" y1="1350" x1="1600" y2="1150" stroke-width="26" x2="1600"/>
 <line fill="none" stroke="white" y1="1150" x1="1400" y2="1150" stroke-width="26" x2="1600"/>
 <line fill="none" stroke="white" y1="1350" x1="1400" y2="1150" stroke-width="26" x2="1400"/>
 <line fill="none" stroke="white" y1="350" x1="2400" y2="350" stroke-width="26" x2="2600"/>
 <line fill="none" stroke="white" y1="350" x1="2600" y2="150" stroke-width="26" x2="2600"/>
 <line fill="none" stroke="white" y1="150" x1="2400" y2="150" stroke-width="26" x2="2600"/>
 <line fill="none" stroke="white" y1="350" x1="2400" y2="150" stroke-width="26" x2="2400"/>
 <line fill="none" stroke="white" y1="1350" x1="2400" y2="1350" stroke-width="26" x2="2600"/>
 <line fill="none" stroke="white" y1="1350" x1="2600" y2="1150" stroke-width="26" x2="2600"/>
 <line fill="none" stroke="white" y1="1150" x1="2400" y2="1150" stroke-width="26" x2="2600"/>
 <line fill="none" stroke="white" y1="1350" x1="2400" y2="1150" stroke-width="26" x2="2400"/>
 <line fill="none" stroke="white" y1="1500" x1="0" y2="0" stroke-width="80" x2="0"/>
 <line fill="none" stroke="white" y1="0" x1="1000" y2="1500" stroke-width="80" x2="1000"/>
 <line fill="none" stroke="white" y1="0" x1="2000" y2="1500" stroke-width="80" x2="2000"/>
 <line fill="none" stroke="white" y1="0" x1="3000" y2="1500" stroke-width="80" x2="3000"/>
 <line fill="none" stroke="white" y1="2631" x1="750" y2="2631" stroke-width="80" x2="250"/>
</g>
</svg>