<?xml version="1.0" encoding="UTF-8" standalone="no"?> <svg xmlns:svg="http://www.w3.org/2000/svg" xmlns="http://www.w3.org/2000/svg" version="1.2" baseProfile="tiny" x="0in" y="0in" width="0.4in" height="0.3in" viewBox="0 0 4000 3000" ><title>SparkFun.mod</title><desc>Kicad module 'SparkFun-KSA_SEALED_TAC_SWITCH' from file 'SparkFun.mod' converted by Fritzing</desc><metadata xmlns:fz='http://fritzing.org/kicadmetadata/1.0/' xmlns:rdf='http://www.w3.org/1999/02/22-rdf-syntax-ns#'><rdf:RDF><rdf:Description rdf:about=''><fz:attr name='kicad filename'>SparkFun.mod</fz:attr>
<fz:attr name='kicad module'>SparkFun-KSA_SEALED_TAC_SWITCH</fz:attr>
<fz:attr name='fritzing version'>0.3.21b.05.25.4197</fz:attr>
<fz:attr name='conversion date'>07/06/2010 13:13:36</fz:attr>
<fz:attr name='dist-license'>GPL</fz:attr>
<fz:attr name='use-license'>unlimited</fz:attr>
<fz:attr name='author'>KICAD project</fz:attr>
<fz:attr name='license-url'>http://www.gnu.org/licenses/gpl.html</fz:attr>
<fz:comment></fz:comment>
<fz:attr name='keyword'></fz:attr>
</rdf:Description></rdf:RDF></metadata><g id="copper0">
 <g id="copper1">
  <g connectorname="P$1" id="connector0pin">
   <circle fill="none" cx="500" cy="500" stroke="#ff9400" r="98.25" stroke-width="-196.5"/>
   <line fill="none" stroke="#ff9400" y1="401.75" x1="203.5" y2="401.75" stroke-width="-196.5" x2="796.5"/>
   <line fill="none" stroke="#ff9400" y1="598.25" x1="203.5" y2="598.25" stroke-width="-196.5" x2="796.5"/>
   <line fill="none" stroke="#ff9400" y1="500" x1="253.5" y2="500" stroke-width="100" x2="253.5"/>
   <line fill="none" stroke="#ff9400" y1="500" x1="746.5" y2="500" stroke-width="100" x2="746.5"/>
  </g>
  <g connectorname="P$2" id="connector1pin">
   <circle fill="none" cx="3500" cy="500" stroke="#ff9400" r="98.25" stroke-width="-196.5"/>
   <line fill="none" stroke="#ff9400" y1="401.75" x1="3203.5" y2="401.75" stroke-width="-196.5" x2="3796.5"/>
   <line fill="none" stroke="#ff9400" y1="598.25" x1="3203.5" y2="598.25" stroke-width="-196.5" x2="3796.5"/>
   <line fill="none" stroke="#ff9400" y1="500" x1="3253.5" y2="500" stroke-width="100" x2="3253.5"/>
   <line fill="none" stroke="#ff9400" y1="500" x1="3746.5" y2="500" stroke-width="100" x2="3746.5"/>
  </g>
  <g connectorname="P$3" id="connector2pin">
   <circle fill="none" cx="500" cy="2500" stroke="#ff9400" r="98.25" stroke-width="-196.5"/>
   <line fill="none" stroke="#ff9400" y1="2401.75" x1="203.5" y2="2401.75" stroke-width="-196.5" x2="796.5"/>
   <line fill="none" stroke="#ff9400" y1="2598.25" x1="203.5" y2="2598.25" stroke-width="-196.5" x2="796.5"/>
   <line fill="none" stroke="#ff9400" y1="2500" x1="253.5" y2="2500" stroke-width="100" x2="253.5"/>
   <line fill="none" stroke="#ff9400" y1="2500" x1="746.5" y2="2500" stroke-width="100" x2="746.5"/>
  </g>
  <g connectorname="P$4" id="connector3pin">
   <circle fill="none" cx="3500" cy="2500" stroke="#ff9400" r="98.25" stroke-width="-196.5"/>
   <line fill="none" stroke="#ff9400" y1="2401.75" x1="3203.5" y2="2401.75" stroke-width="-196.5" x2="3796.5"/>
   <line fill="none" stroke="#ff9400" y1="2598.25" x1="3203.5" y2="2598.25" stroke-width="-196.5" x2="3796.5"/>
   <line fill="none" stroke="#ff9400" y1="2500" x1="3253.5" y2="2500" stroke-width="100" x2="3253.5"/>
   <line fill="none" stroke="#ff9400" y1="2500" x1="3746.5" y2="2500" stroke-width="100" x2="3746.5"/>
  </g>
 </g>
</g>
<g id="silkscreen">
 <line fill="none" stroke="white" y1="1000" x1="2000" y2="2000" stroke-width="50" x2="2000"/>
 <line fill="none" stroke="white" y1="1500" x1="1500" y2="1500" stroke-width="50" x2="2500"/>
 <line fill="none" stroke="white" y1="0" x1="0" y2="0" stroke-width="50" x2="4000"/>
 <line fill="none" stroke="white" y1="0" x1="4000" y2="3000" stroke-width="50" x2="4000"/>
 <line fill="none" stroke="white" y1="3000" x1="4000" y2="3000" stroke-width="50" x2="0"/>
 <line fill="none" stroke="white" y1="3000" x1="0" y2="0" stroke-width="50" x2="0"/>
</g>
</svg>