<?xml version="1.0" encoding="UTF-8"?><svg baseProfile="tiny" height="2.086in" version="1.2" viewBox="0 0 49500 208600" width="0.495in" x="0in" xmlns="http://www.w3.org/2000/svg" xmlns:svg="http://www.w3.org/2000/svg" y="0in"><title>SUBD_FEMALE_LAY 25.fp</title><desc>Geda footprint file 'SUBD_FEMALE_LAY 25.fp' converted by Fritzing</desc><metadata xmlns:fz="http://fritzing.org/gedametadata/1.0/" xmlns:rdf="http://www.w3.org/1999/02/22-rdf-syntax-ns#"><rdf:RDF><rdf:Description rdf:about=""><fz:attr name="geda filename">SUBD_FEMALE_LAY 25.fp</fz:attr><fz:attr name="fritzing version">0.3.17b.04.07.4081</fz:attr><fz:attr name="conversion date">12/04/2010 13:03:12</fz:attr><fz:comment>Gehaeuse (schmaler Kasten incl. Bohrungen)</fz:comment><fz:comment>Gehaeuse (aeusserer Kasten)</fz:comment><fz:comment>This part of the connector normally hangs off the circuit board,</fz:comment><fz:comment>so it is confusing to actually mark it on the silkscreen</fz:comment><fz:comment>define(`X1', `eval(BASEX-PANEL_DISTANCE-260)')</fz:comment><fz:comment>define(`Y1', `eval(PY1-100)')</fz:comment><fz:comment>define(`X2', `eval(BASEX-PANEL_DISTANCE)')</fz:comment><fz:comment>define(`Y2', `eval(PY2+100)')</fz:comment><fz:comment>ElementLine(X1 Y1 X2 Y1 20)</fz:comment><fz:comment>ElementLine(X2 Y1 X2 Y2 10)</fz:comment><fz:comment>ElementLine(X2 Y2 X1 Y2 20)</fz:comment><fz:comment>ElementLine(X1 Y2 X1 Y1 20)</fz:comment><fz:comment>Gehaeuse (innerer Kasten)</fz:comment><fz:comment>Pins</fz:comment><fz:comment>Pin 1</fz:comment><fz:comment>Plazierungsmarkierung == PIN 1</fz:comment><fz:comment>Changed PY1 to PY2 13-Dec-1999 LRD</fz:comment><fz:comment>Remainder of the first row</fz:comment><fz:comment>Second row</fz:comment><fz:comment>Befestigungsbohrung</fz:comment><fz:attr name="dist-license">GPL</fz:attr><fz:attr name="use-license">unlimited</fz:attr><fz:attr name="author">gEDA project</fz:attr><fz:attr name="license-url">http://www.gnu.org/licenses/gpl.html</fz:attr></rdf:Description></rdf:RDF></metadata><g id="copper1"><g id="copper0">
 <circle connectorname="/Strb" cx="42600" cy="169100" fill="none" id="" r="2375" stroke="#ff9400" stroke-width="1250"/>
 <circle connectorname="D0" cx="42600" cy="158300" fill="none" id="" r="2375" stroke="#ff9400" stroke-width="1250"/>
 <circle connectorname="D1" cx="42600" cy="147500" fill="none" id="" r="2375" stroke="#ff9400" stroke-width="1250"/>
 <circle connectorname="D2" cx="42600" cy="136700" fill="none" id="" r="2375" stroke="#ff9400" stroke-width="1250"/>
 <circle connectorname="D3" cx="42600" cy="125900" fill="none" id="" r="2375" stroke="#ff9400" stroke-width="1250"/>
 <circle connectorname="D4" cx="42600" cy="115100" fill="none" id="" r="2375" stroke="#ff9400" stroke-width="1250"/>
 <circle connectorname="D5" cx="42600" cy="104300" fill="none" id="" r="2375" stroke="#ff9400" stroke-width="1250"/>
 <circle connectorname="D6" cx="42600" cy="93500" fill="none" id="" r="2375" stroke="#ff9400" stroke-width="1250"/>
 <circle connectorname="D7" cx="42600" cy="82700" fill="none" id="" r="2375" stroke="#ff9400" stroke-width="1250"/>
 <circle connectorname="/Ack" cx="42600" cy="71900" fill="none" id="" r="2375" stroke="#ff9400" stroke-width="1250"/>
 <circle connectorname="Busy" cx="42600" cy="61100" fill="none" id="" r="2375" stroke="#ff9400" stroke-width="1250"/>
 <circle connectorname="PaperE" cx="42600" cy="50300" fill="none" id="" r="2375" stroke="#ff9400" stroke-width="1250"/>
 <circle connectorname="Sel" cx="42600" cy="39500" fill="none" id="" r="2375" stroke="#ff9400" stroke-width="1250"/>
 <circle connectorname="AutoF" cx="31400" cy="163700" fill="none" id="" r="2375" stroke="#ff9400" stroke-width="1250"/>
 <circle connectorname="/Fault" cx="31400" cy="152900" fill="none" id="" r="2375" stroke="#ff9400" stroke-width="1250"/>
 <circle connectorname="/Res" cx="31400" cy="142100" fill="none" id="" r="2375" stroke="#ff9400" stroke-width="1250"/>
 <circle connectorname="SelIn" cx="31400" cy="131300" fill="none" id="" r="2375" stroke="#ff9400" stroke-width="1250"/>
 <circle connectorname="Gnd" cx="31400" cy="120500" fill="none" id="" r="2375" stroke="#ff9400" stroke-width="1250"/>
 <circle connectorname="Gnd" cx="31400" cy="109700" fill="none" id="" r="2375" stroke="#ff9400" stroke-width="1250"/>
 <circle connectorname="Gnd" cx="31400" cy="98900" fill="none" id="" r="2375" stroke="#ff9400" stroke-width="1250"/>
 <circle connectorname="Gnd" cx="31400" cy="88100" fill="none" id="" r="2375" stroke="#ff9400" stroke-width="1250"/>
 <circle connectorname="Gnd" cx="31400" cy="77300" fill="none" id="" r="2375" stroke="#ff9400" stroke-width="1250"/>
 <circle connectorname="Gnd" cx="31400" cy="66500" fill="none" id="" r="2375" stroke="#ff9400" stroke-width="1250"/>
 <circle connectorname="Gnd" cx="31400" cy="55700" fill="none" id="" r="2375" stroke="#ff9400" stroke-width="1250"/>
 <circle connectorname="Gnd" cx="31400" cy="44900" fill="none" id="" r="2375" stroke="#ff9400" stroke-width="1250"/>
 <circle connectorname="C1" cx="37000" cy="12500" fill="none" id="" r="9375" stroke="#ff9400" stroke-width="6250"/>
 <circle connectorname="C2" cx="37000" cy="196100" fill="none" id="" r="9375" stroke="#ff9400" stroke-width="6250"/>
</g></g>
<g id="silkscreen">
 <line fill="none" stroke="white" stroke-width="1000" x1="500" x2="3500" y1="500" y2="500"/>
 <line fill="none" stroke="white" stroke-width="1000" x1="3500" x2="3500" y1="500" y2="208100"/>
 <line fill="none" stroke="white" stroke-width="1000" x1="3500" x2="500" y1="208100" y2="208100"/>
 <line fill="none" stroke="white" stroke-width="1000" x1="500" x2="500" y1="208100" y2="500"/>
 <line fill="none" stroke="white" stroke-width="1000" x1="500" x2="3500" y1="6500" y2="6500"/>
 <line fill="none" stroke="white" stroke-width="1000" x1="500" x2="3500" y1="18500" y2="18500"/>
 <line fill="none" stroke="white" stroke-width="1000" x1="500" x2="3500" y1="202100" y2="202100"/>
 <line fill="none" stroke="white" stroke-width="1000" x1="500" x2="3500" y1="190100" y2="190100"/>
 <line fill="none" stroke="white" stroke-width="2000" x1="3500" x2="14000" y1="23500" y2="23500"/>
 <line fill="none" stroke="white" stroke-width="2000" x1="14000" x2="14000" y1="23500" y2="185100"/>
 <line fill="none" stroke="white" stroke-width="2000" x1="14000" x2="3500" y1="185100" y2="185100"/>
 <line fill="none" stroke="white" stroke-width="1000" x1="3500" x2="3500" y1="185100" y2="23500"/>
 <line fill="none" stroke="white" stroke-width="2000" x1="38600" x2="14000" y1="169100" y2="169100"/>
 <line fill="none" stroke="white" stroke-width="2000" x1="38600" x2="14000" y1="158300" y2="158300"/>
 <line fill="none" stroke="white" stroke-width="2000" x1="38600" x2="14000" y1="147500" y2="147500"/>
 <line fill="none" stroke="white" stroke-width="2000" x1="38600" x2="14000" y1="136700" y2="136700"/>
 <line fill="none" stroke="white" stroke-width="2000" x1="38600" x2="14000" y1="125900" y2="125900"/>
 <line fill="none" stroke="white" stroke-width="2000" x1="38600" x2="14000" y1="115100" y2="115100"/>
 <line fill="none" stroke="white" stroke-width="2000" x1="38600" x2="14000" y1="104300" y2="104300"/>
 <line fill="none" stroke="white" stroke-width="2000" x1="38600" x2="14000" y1="93500" y2="93500"/>
 <line fill="none" stroke="white" stroke-width="2000" x1="38600" x2="14000" y1="82700" y2="82700"/>
 <line fill="none" stroke="white" stroke-width="2000" x1="38600" x2="14000" y1="71900" y2="71900"/>
 <line fill="none" stroke="white" stroke-width="2000" x1="38600" x2="14000" y1="61100" y2="61100"/>
 <line fill="none" stroke="white" stroke-width="2000" x1="38600" x2="14000" y1="50300" y2="50300"/>
 <line fill="none" stroke="white" stroke-width="2000" x1="38600" x2="14000" y1="39500" y2="39500"/>
 <line fill="none" stroke="white" stroke-width="2000" x1="27400" x2="14000" y1="163700" y2="163700"/>
 <line fill="none" stroke="white" stroke-width="2000" x1="27400" x2="14000" y1="152900" y2="152900"/>
 <line fill="none" stroke="white" stroke-width="2000" x1="27400" x2="14000" y1="142100" y2="142100"/>
 <line fill="none" stroke="white" stroke-width="2000" x1="27400" x2="14000" y1="131300" y2="131300"/>
 <line fill="none" stroke="white" stroke-width="2000" x1="27400" x2="14000" y1="120500" y2="120500"/>
 <line fill="none" stroke="white" stroke-width="2000" x1="27400" x2="14000" y1="109700" y2="109700"/>
 <line fill="none" stroke="white" stroke-width="2000" x1="27400" x2="14000" y1="98900" y2="98900"/>
 <line fill="none" stroke="white" stroke-width="2000" x1="27400" x2="14000" y1="88100" y2="88100"/>
 <line fill="none" stroke="white" stroke-width="2000" x1="27400" x2="14000" y1="77300" y2="77300"/>
 <line fill="none" stroke="white" stroke-width="2000" x1="27400" x2="14000" y1="66500" y2="66500"/>
 <line fill="none" stroke="white" stroke-width="2000" x1="27400" x2="14000" y1="55700" y2="55700"/>
 <line fill="none" stroke="white" stroke-width="2000" x1="27400" x2="14000" y1="44900" y2="44900"/>
</g>
</svg>