<?xml version="1.0" encoding="UTF-8"?><svg baseProfile="tiny" height="0.185in" version="1.2" viewBox="0 0 36400 18500" width="0.364in" x="0in" xmlns="http://www.w3.org/2000/svg" xmlns:svg="http://www.w3.org/2000/svg" y="0in"><title>SW__CK_JS202011CQN.fp</title><desc>Geda footprint file 'SW__CK_JS202011CQN.fp' converted by Fritzing</desc><metadata xmlns:fz="http://fritzing.org/gedametadata/1.0/" xmlns:rdf="http://www.w3.org/1999/02/22-rdf-syntax-ns#"><rdf:RDF><rdf:Description rdf:about=""><fz:attr name="geda filename">SW__CK_JS202011CQN.fp</fz:attr><fz:attr name="fritzing version">0.3.17b.04.07.4081</fz:attr><fz:attr name="conversion date">12/04/2010 13:03:12</fz:attr><fz:attr name="dist-license">GPL</fz:attr><fz:attr name="use-license">unlimited</fz:attr><fz:attr name="author">gEDA project</fz:attr><fz:attr name="license-url">http://www.gnu.org/licenses/gpl.html</fz:attr></rdf:Description></rdf:RDF></metadata><g id="copper1"><g id="copper0">
 <circle connectorname="" cx="8400" cy="15750" fill="none" id="connector0pin" r="2250" stroke="#ff9400" stroke-width="1000"/>
 <circle connectorname="" cx="18200" cy="15750" fill="none" id="connector1pin" r="2250" stroke="#ff9400" stroke-width="1000"/>
 <circle connectorname="" cx="28000" cy="15750" fill="none" id="connector2pin" r="2250" stroke="#ff9400" stroke-width="1000"/>
 <circle connectorname="" cx="8400" cy="2750" fill="none" id="connector3pin" r="2250" stroke="#ff9400" stroke-width="1000"/>
 <circle connectorname="" cx="18200" cy="2750" fill="none" id="connector4pin" r="2250" stroke="#ff9400" stroke-width="1000"/>
 <circle connectorname="" cx="28000" cy="2750" fill="none" id="connector5pin" r="2250" stroke="#ff9400" stroke-width="1000"/>
</g></g>
<g id="silkscreen">
 <line fill="none" stroke="white" stroke-width="1000" x1="35900" x2="32250" y1="1350" y2="1350"/>
 <line fill="none" stroke="white" stroke-width="1000" x1="35900" x2="35900" y1="1350" y2="17150"/>
 <line fill="none" stroke="white" stroke-width="1000" x1="35900" x2="32250" y1="17150" y2="17150"/>
 <line fill="none" stroke="white" stroke-width="1000" x1="500" x2="4150" y1="1350" y2="1350"/>
 <line fill="none" stroke="white" stroke-width="1000" x1="500" x2="500" y1="1350" y2="17150"/>
 <line fill="none" stroke="white" stroke-width="1000" x1="500" x2="4150" y1="17150" y2="17150"/>
 <line fill="none" stroke="white" stroke-width="4500" x1="20450" x2="20450" y1="9250" y2="9250"/>
 <line fill="none" stroke="white" stroke-width="1000" x1="18700" x2="18700" y1="11000" y2="7500"/>
 <line fill="none" stroke="white" stroke-width="1000" x1="22200" x2="22200" y1="11000" y2="7500"/>
 <line fill="none" stroke="white" stroke-width="1000" x1="19200" x2="19200" y1="11000" y2="7500"/>
 <line fill="none" stroke="white" stroke-width="1000" x1="21700" x2="21700" y1="11000" y2="7500"/>
 <line fill="none" stroke="white" stroke-width="1000" x1="19700" x2="19700" y1="11000" y2="7500"/>
 <line fill="none" stroke="white" stroke-width="1000" x1="21200" x2="21200" y1="11000" y2="7500"/>
 <line fill="none" stroke="white" stroke-width="1000" x1="20200" x2="20200" y1="11000" y2="7500"/>
 <line fill="none" stroke="white" stroke-width="1000" x1="20700" x2="20700" y1="11000" y2="7500"/>
 <line fill="none" stroke="white" stroke-width="1000" x1="18700" x2="22200" y1="7500" y2="7500"/>
 <line fill="none" stroke="white" stroke-width="1000" x1="18700" x2="22200" y1="11000" y2="11000"/>
 <line fill="none" stroke="white" stroke-width="1000" x1="22200" x2="14200" y1="11000" y2="11000"/>
 <line fill="none" stroke="white" stroke-width="1000" x1="14200" x2="14200" y1="11000" y2="7500"/>
 <line fill="none" stroke="white" stroke-width="1000" x1="14200" x2="22200" y1="7500" y2="7500"/>
</g>
</svg>