<?xml version="1.0" encoding="UTF-8"?><svg baseProfile="tiny" height="0.405in" version="1.2" viewBox="0 0 41000 40500" width="0.41in" x="0in" xmlns="http://www.w3.org/2000/svg" xmlns:svg="http://www.w3.org/2000/svg" y="0in"><title>TO99fromLED.fp</title><desc>Geda footprint file 'TO99fromLED.fp' converted by Fritzing</desc><metadata xmlns:fz="http://fritzing.org/gedametadata/1.0/" xmlns:rdf="http://www.w3.org/1999/02/22-rdf-syntax-ns#"><rdf:RDF><rdf:Description rdf:about=""><fz:attr name="geda filename">TO99fromLED.fp</fz:attr><fz:attr name="fritzing version">0.3.17b.04.07.4081</fz:attr><fz:attr name="conversion date">12/04/2010 13:03:12</fz:attr><fz:attr name="dist-license">GPL</fz:attr><fz:attr name="use-license">unlimited</fz:attr><fz:attr name="author">gEDA project</fz:attr><fz:attr name="license-url">http://www.gnu.org/licenses/gpl.html</fz:attr></rdf:Description></rdf:RDF></metadata><g id="copper1"><g id="copper0">
 <circle connectorname="" cx="28000" cy="14000" fill="none" id="connector1pin" r="2200" stroke="#ff9400" stroke-width="1600"/>
 <circle connectorname="" cx="21000" cy="11000" fill="none" id="connector2pin" r="2200" stroke="#ff9400" stroke-width="1600"/>
 <circle connectorname="" cx="21000" cy="31000" fill="none" id="connector6pin" r="2200" stroke="#ff9400" stroke-width="1600"/>
 <circle connectorname="" cx="11000" cy="21000" fill="none" id="connector4pin" r="2200" stroke="#ff9400" stroke-width="1600"/>
 <circle connectorname="" cx="14500" cy="28000" fill="none" id="connector5pin" r="2200" stroke="#ff9400" stroke-width="1600"/>
 <circle connectorname="" cx="31000" cy="21000" fill="none" id="connector0pin" r="2200" stroke="#ff9400" stroke-width="1600"/>
</g></g>
<g id="silkscreen">
 <line fill="none" stroke="white" stroke-width="1000" x1="36000" x2="38000" y1="38000" y2="36000"/>
 <line fill="none" stroke="white" stroke-width="1000" x1="33000" x2="36000" y1="35000" y2="38000"/>
 <line fill="none" stroke="white" stroke-width="1000" x1="38000" x2="35000" y1="36000" y2="33000"/>
 <path d="M2500,21000a18500,18500,0,0,0,18500,18500" fill="none" stroke="white" stroke-width="1000"/>
 <path d="M21500,2000a19000,19000,0,0,0,-19000,19000" fill="none" stroke="white" stroke-width="1000"/>
 <path d="M39500,20000a18000,18000,0,0,0,-18000,-18000" fill="none" stroke="white" stroke-width="1000"/>
 <path d="M20000,39500a19500,19500,0,0,0,19500,-19500" fill="none" stroke="white" stroke-width="1000"/>
</g>
</svg>