<?xml version="1.0" encoding="utf-8"?>
<!-- Generator: Adobe Illustrator 15.0.1, SVG Export Plug-In . SVG Version: 6.00 Build 0)  -->
<!DOCTYPE svg PUBLIC "-//W3C//DTD SVG 1.1//EN" "http://www.w3.org/Graphics/SVG/1.1/DTD/svg11.dtd">
<svg version="1.1" id="Ebene_1" xmlns="http://www.w3.org/2000/svg" xmlns:xlink="http://www.w3.org/1999/xlink" x="0px" y="0px"
	 width="1.522378in" height="0.143578in" viewBox="0 0 137.014 12.922" enable-background="new 0 0 137.014 12.922"
	 xml:space="preserve">
<g id="watermark">
	<g>
		<path fill="#8C8C8C" d="M4.362,9.682L1.956,2.728H1.912c0.021,0.269,0.04,0.534,0.055,0.799c0.015,0.229,0.026,0.469,0.035,0.72
			c0.009,0.252,0.014,0.481,0.014,0.688v4.748H1.081V1.739H2.58l2.238,6.476h0.033l2.249-6.476H8.6v7.942H7.589V4.863
			c0-0.188,0.004-0.404,0.012-0.646c0.007-0.243,0.016-0.475,0.026-0.695c0.015-0.258,0.027-0.519,0.038-0.782H7.622L5.193,9.682
			H4.362z"/>
		<path fill="#8C8C8C" d="M13.988,9.682l-0.2-0.826h-0.044c-0.119,0.163-0.239,0.304-0.358,0.422
			c-0.119,0.117-0.25,0.214-0.392,0.29c-0.141,0.076-0.299,0.133-0.473,0.169S12.147,9.79,11.919,9.79
			c-0.25,0-0.48-0.035-0.69-0.105c-0.21-0.071-0.392-0.18-0.546-0.326c-0.153-0.146-0.274-0.331-0.361-0.554
			c-0.087-0.224-0.13-0.486-0.13-0.791c0-0.594,0.209-1.05,0.627-1.369c0.419-0.318,1.056-0.492,1.91-0.521l0.999-0.038V5.71
			c0-0.242-0.026-0.445-0.078-0.608c-0.053-0.162-0.129-0.294-0.229-0.394s-0.223-0.171-0.369-0.215
			c-0.146-0.043-0.314-0.064-0.503-0.064c-0.301,0-0.58,0.043-0.839,0.13s-0.508,0.192-0.747,0.315L10.615,4.13
			c0.268-0.146,0.566-0.269,0.896-0.37c0.329-0.101,0.675-0.151,1.037-0.151c0.37,0,0.689,0.037,0.959,0.111S14,3.911,14.176,4.072
			s0.308,0.367,0.395,0.617s0.13,0.552,0.13,0.907v4.085H13.988z M12.174,8.992c0.222,0,0.426-0.035,0.614-0.104
			c0.188-0.069,0.352-0.173,0.489-0.312s0.245-0.315,0.323-0.527c0.077-0.212,0.116-0.461,0.116-0.747V6.765L12.94,6.803
			c-0.326,0.014-0.6,0.051-0.82,0.108s-0.397,0.139-0.53,0.241c-0.132,0.104-0.227,0.229-0.285,0.375
			c-0.058,0.146-0.087,0.312-0.087,0.497c0,0.334,0.088,0.578,0.264,0.733C11.657,8.914,11.888,8.992,12.174,8.992z"/>
		<path fill="#8C8C8C" d="M20.215,8.883h-0.044c-0.079,0.123-0.173,0.24-0.279,0.351c-0.107,0.11-0.23,0.207-0.37,0.291
			c-0.139,0.083-0.296,0.148-0.47,0.195s-0.369,0.07-0.587,0.07c-0.337,0-0.645-0.064-0.923-0.195
			c-0.279-0.131-0.519-0.325-0.718-0.584s-0.353-0.58-0.461-0.964C16.254,7.662,16.2,7.217,16.2,6.71
			c0-0.511,0.054-0.959,0.163-1.345c0.108-0.386,0.262-0.709,0.461-0.97s0.438-0.457,0.718-0.589
			c0.278-0.133,0.586-0.198,0.923-0.198c0.214,0,0.408,0.023,0.582,0.07s0.33,0.11,0.47,0.19c0.14,0.079,0.264,0.172,0.372,0.276
			c0.108,0.105,0.203,0.216,0.282,0.332h0.065c-0.011-0.123-0.021-0.241-0.032-0.354c-0.008-0.094-0.015-0.19-0.022-0.291
			c-0.007-0.099-0.011-0.178-0.011-0.236V1.229h0.989v8.453h-0.799L20.215,8.883z M18.655,8.97c0.275,0,0.508-0.041,0.698-0.125
			c0.19-0.083,0.344-0.21,0.462-0.38c0.117-0.17,0.204-0.383,0.261-0.639c0.056-0.255,0.088-0.553,0.095-0.894V6.71
			c0-0.365-0.024-0.69-0.073-0.975c-0.049-0.285-0.132-0.523-0.25-0.718c-0.117-0.193-0.274-0.34-0.47-0.439
			s-0.44-0.149-0.733-0.149c-0.489,0-0.849,0.197-1.078,0.592c-0.23,0.395-0.346,0.962-0.346,1.7c0,0.757,0.115,1.321,0.346,1.692
			C17.796,8.784,18.159,8.97,18.655,8.97z"/>
		<path fill="#8C8C8C" d="M25.408,9.79c-0.398,0-0.762-0.066-1.092-0.201c-0.329-0.134-0.613-0.329-0.85-0.586
			c-0.237-0.258-0.422-0.576-0.552-0.956c-0.131-0.381-0.195-0.815-0.195-1.305c0-0.492,0.06-0.932,0.179-1.319
			c0.12-0.388,0.288-0.717,0.506-0.986c0.217-0.27,0.477-0.476,0.779-0.616c0.302-0.142,0.637-0.212,1.002-0.212
			c0.358,0,0.681,0.063,0.967,0.192s0.529,0.31,0.729,0.543c0.199,0.234,0.352,0.515,0.459,0.843c0.106,0.327,0.16,0.69,0.16,1.089
			V6.89h-3.76c0.019,0.698,0.166,1.213,0.443,1.543c0.277,0.329,0.688,0.494,1.235,0.494c0.186,0,0.356-0.009,0.514-0.027
			s0.31-0.044,0.456-0.079c0.147-0.034,0.289-0.077,0.427-0.13s0.277-0.111,0.418-0.177v0.88c-0.145,0.069-0.287,0.129-0.426,0.18
			c-0.14,0.051-0.283,0.092-0.43,0.125c-0.146,0.032-0.299,0.056-0.456,0.07S25.593,9.79,25.408,9.79z M25.164,4.429
			c-0.413,0-0.74,0.141-0.98,0.424c-0.241,0.282-0.382,0.693-0.421,1.232h2.673c0-0.246-0.024-0.472-0.073-0.676
			c-0.049-0.205-0.125-0.38-0.229-0.524s-0.234-0.257-0.394-0.337C25.58,4.468,25.389,4.429,25.164,4.429z"/>
		<path fill="#8C8C8C" d="M36.425,9.682l-0.912-3.347c-0.015-0.065-0.032-0.139-0.055-0.22c-0.021-0.082-0.043-0.168-0.064-0.258
			c-0.022-0.091-0.045-0.184-0.068-0.277s-0.046-0.187-0.068-0.277c-0.051-0.21-0.103-0.427-0.157-0.651h-0.032
			c-0.051,0.228-0.1,0.447-0.146,0.657c-0.04,0.181-0.083,0.367-0.128,0.56c-0.046,0.191-0.088,0.354-0.128,0.488L33.73,9.682
			h-1.146l-1.526-5.965h1.038l0.712,3.173c0.036,0.163,0.072,0.339,0.108,0.529s0.07,0.379,0.103,0.565
			c0.033,0.187,0.062,0.361,0.087,0.526c0.025,0.165,0.046,0.3,0.061,0.405h0.032c0.019-0.095,0.043-0.221,0.073-0.378
			c0.031-0.157,0.065-0.324,0.104-0.5s0.077-0.35,0.116-0.521c0.04-0.172,0.078-0.317,0.114-0.438l0.973-3.362h1.064l0.935,3.362
			c0.033,0.123,0.07,0.269,0.111,0.435c0.042,0.167,0.083,0.336,0.122,0.509c0.04,0.172,0.076,0.337,0.109,0.497
			c0.032,0.159,0.056,0.291,0.07,0.396h0.032c0.012-0.095,0.028-0.221,0.052-0.378s0.052-0.33,0.084-0.519
			c0.033-0.188,0.068-0.382,0.106-0.579s0.077-0.381,0.117-0.551l0.744-3.173h1.01l-1.542,5.965H36.425z"/>
		<path fill="#8C8C8C" d="M40.119,2.104c0-0.218,0.056-0.375,0.166-0.473s0.247-0.147,0.41-0.147c0.079,0,0.154,0.013,0.226,0.036
			c0.07,0.023,0.132,0.061,0.185,0.111c0.052,0.051,0.094,0.114,0.125,0.192c0.03,0.078,0.046,0.171,0.046,0.28
			c0,0.21-0.057,0.366-0.171,0.47s-0.251,0.154-0.41,0.154c-0.163,0-0.3-0.05-0.41-0.151S40.119,2.317,40.119,2.104z M41.184,9.682
			h-0.988V3.717h0.988V9.682z"/>
		<path fill="#8C8C8C" d="M44.879,8.98c0.065,0,0.139-0.003,0.22-0.011c0.082-0.007,0.16-0.016,0.236-0.027
			c0.076-0.011,0.146-0.023,0.209-0.038c0.063-0.014,0.111-0.026,0.145-0.037v0.749c-0.047,0.021-0.107,0.044-0.18,0.065
			s-0.152,0.041-0.239,0.057c-0.087,0.017-0.177,0.029-0.271,0.038c-0.094,0.01-0.187,0.014-0.276,0.014
			c-0.225,0-0.434-0.028-0.625-0.087c-0.192-0.058-0.357-0.157-0.497-0.299c-0.14-0.141-0.249-0.332-0.329-0.573
			c-0.079-0.24-0.119-0.544-0.119-0.909V4.461H42.31v-0.44l0.842-0.424l0.424-1.249h0.57v1.369h1.499v0.744h-1.499v3.461
			c0,0.351,0.057,0.615,0.171,0.793S44.618,8.98,44.879,8.98z"/>
		<path fill="#8C8C8C" d="M50.572,9.682V5.841c0-0.471-0.095-0.824-0.285-1.06s-0.488-0.353-0.894-0.353
			c-0.293,0-0.54,0.047-0.739,0.141c-0.199,0.095-0.359,0.233-0.48,0.419c-0.121,0.185-0.208,0.411-0.261,0.679
			s-0.079,0.576-0.079,0.924v3.091h-0.988V1.229h0.988v2.51l-0.043,0.782h0.055c0.09-0.155,0.198-0.29,0.323-0.404
			c0.124-0.114,0.261-0.209,0.41-0.285c0.148-0.076,0.306-0.133,0.473-0.169c0.166-0.036,0.336-0.054,0.51-0.054
			c0.663,0,1.162,0.173,1.497,0.519s0.503,0.899,0.503,1.659v3.896H50.572z"/>
	</g>
	<g>
		<path fill="#8C8C8C" d="M77.772,9.662h-1.656V1.72h4.552V3.1h-2.896v2.048h2.695v1.375h-2.695V9.662z"/>
		<path fill="#8C8C8C" d="M85.314,3.475c0.044,0,0.092,0.001,0.145,0.003c0.052,0.001,0.103,0.005,0.151,0.011
			c0.05,0.005,0.095,0.011,0.137,0.016c0.041,0.006,0.073,0.012,0.095,0.02v1.554c-0.029-0.008-0.069-0.015-0.119-0.021
			c-0.051-0.008-0.104-0.014-0.161-0.02c-0.056-0.005-0.111-0.009-0.165-0.011c-0.055-0.002-0.1-0.003-0.136-0.003
			c-0.214,0-0.41,0.027-0.59,0.082c-0.18,0.054-0.333,0.142-0.462,0.263c-0.128,0.122-0.228,0.281-0.299,0.479
			c-0.07,0.197-0.105,0.439-0.105,0.726v3.091h-1.657V3.589h1.255l0.244,0.912h0.082c0.087-0.155,0.181-0.297,0.282-0.424
			s0.215-0.234,0.34-0.323s0.266-0.157,0.424-0.206C84.931,3.499,85.112,3.475,85.314,3.475z"/>
		<path fill="#8C8C8C" d="M86.961,2.019c0-0.156,0.023-0.285,0.07-0.389s0.111-0.187,0.193-0.25
			c0.081-0.063,0.177-0.107,0.287-0.133s0.228-0.038,0.351-0.038s0.239,0.013,0.348,0.038s0.204,0.069,0.285,0.133
			c0.082,0.063,0.146,0.146,0.196,0.25c0.049,0.104,0.073,0.232,0.073,0.389c0,0.152-0.024,0.28-0.073,0.386
			c-0.05,0.104-0.114,0.189-0.196,0.253c-0.081,0.062-0.177,0.108-0.285,0.136c-0.108,0.026-0.225,0.04-0.348,0.04
			s-0.24-0.014-0.351-0.04c-0.11-0.027-0.206-0.073-0.287-0.136c-0.082-0.063-0.146-0.148-0.193-0.253
			C86.985,2.299,86.961,2.171,86.961,2.019z M88.689,9.662h-1.657V3.589h1.657V9.662z"/>
		<path fill="#8C8C8C" d="M92.95,8.45c0.163,0,0.317-0.018,0.464-0.054s0.296-0.082,0.448-0.136v1.233
			c-0.155,0.079-0.349,0.146-0.578,0.198c-0.23,0.052-0.481,0.078-0.753,0.078c-0.264,0-0.511-0.03-0.738-0.092
			c-0.229-0.062-0.426-0.17-0.593-0.323c-0.166-0.154-0.298-0.36-0.394-0.619c-0.096-0.26-0.144-0.585-0.144-0.976V4.833h-0.794
			V4.132l0.913-0.555l0.479-1.281h1.059v1.293h1.478v1.244h-1.478v2.928c0,0.235,0.059,0.409,0.174,0.521
			C92.609,8.395,92.761,8.45,92.95,8.45z"/>
		<path fill="#8C8C8C" d="M99.041,9.662h-4.466V8.685l2.482-3.83h-2.314V3.589h4.194v1.075l-2.401,3.732h2.505V9.662z"/>
		<path fill="#8C8C8C" d="M100.215,2.019c0-0.156,0.023-0.285,0.07-0.389s0.111-0.187,0.193-0.25
			c0.081-0.063,0.177-0.107,0.287-0.133s0.228-0.038,0.351-0.038s0.239,0.013,0.348,0.038s0.204,0.069,0.285,0.133
			c0.082,0.063,0.146,0.146,0.196,0.25c0.049,0.104,0.073,0.232,0.073,0.389c0,0.152-0.024,0.28-0.073,0.386
			c-0.05,0.104-0.114,0.189-0.196,0.253c-0.081,0.062-0.177,0.108-0.285,0.136c-0.108,0.026-0.225,0.04-0.348,0.04
			s-0.24-0.014-0.351-0.04c-0.11-0.027-0.206-0.073-0.287-0.136c-0.082-0.063-0.146-0.148-0.193-0.253
			C100.239,2.299,100.215,2.171,100.215,2.019z M101.943,9.662h-1.657V3.589h1.657V9.662z"/>
		<path fill="#8C8C8C" d="M109.006,9.662h-1.657V6.114c0-0.438-0.065-0.767-0.198-0.985c-0.132-0.22-0.343-0.329-0.633-0.329
			c-0.217,0-0.398,0.044-0.543,0.131s-0.26,0.215-0.345,0.386c-0.085,0.17-0.146,0.38-0.183,0.63s-0.054,0.536-0.054,0.858v2.857
			h-1.657V3.589h1.266l0.223,0.776h0.093c0.087-0.155,0.192-0.29,0.317-0.402c0.125-0.111,0.262-0.204,0.41-0.276
			s0.307-0.126,0.473-0.16c0.167-0.035,0.337-0.052,0.511-0.052c0.297,0,0.567,0.042,0.81,0.128
			c0.243,0.085,0.451,0.218,0.625,0.398c0.174,0.182,0.308,0.412,0.402,0.693c0.094,0.28,0.141,0.616,0.141,1.008V9.662z"/>
		<path fill="#8C8C8C" d="M115.793,3.6v0.901l-0.886,0.277c0.072,0.123,0.123,0.251,0.152,0.383
			c0.028,0.133,0.043,0.274,0.043,0.427c0,0.308-0.049,0.589-0.146,0.845c-0.098,0.255-0.242,0.474-0.435,0.654
			c-0.192,0.182-0.433,0.321-0.723,0.421s-0.626,0.149-1.01,0.149c-0.084,0-0.175-0.004-0.272-0.014
			c-0.098-0.009-0.17-0.019-0.217-0.029c-0.072,0.062-0.13,0.126-0.171,0.192c-0.042,0.067-0.062,0.147-0.062,0.242
			c0,0.076,0.023,0.137,0.07,0.182c0.047,0.046,0.108,0.082,0.185,0.108c0.076,0.027,0.165,0.046,0.267,0.055
			c0.101,0.009,0.206,0.014,0.314,0.014h0.945c0.294,0,0.557,0.033,0.788,0.101s0.428,0.169,0.589,0.307s0.286,0.312,0.373,0.524
			s0.13,0.465,0.13,0.758c0,0.344-0.068,0.654-0.206,0.932s-0.344,0.513-0.617,0.706c-0.273,0.194-0.612,0.343-1.019,0.445
			c-0.405,0.104-0.874,0.155-1.407,0.155c-0.412,0-0.772-0.039-1.081-0.117c-0.308-0.077-0.564-0.189-0.771-0.337
			c-0.206-0.146-0.36-0.323-0.464-0.529s-0.155-0.44-0.155-0.701c0-0.221,0.038-0.412,0.114-0.575s0.178-0.303,0.305-0.419
			c0.126-0.115,0.271-0.21,0.432-0.282s0.327-0.128,0.497-0.168c-0.076-0.033-0.151-0.078-0.226-0.136
			c-0.074-0.059-0.142-0.125-0.201-0.201s-0.108-0.16-0.146-0.253c-0.038-0.092-0.057-0.189-0.057-0.29
			c0-0.116,0.017-0.222,0.051-0.315c0.035-0.095,0.085-0.183,0.149-0.264c0.065-0.081,0.147-0.158,0.245-0.23
			c0.098-0.073,0.208-0.147,0.331-0.223c-0.318-0.138-0.571-0.359-0.758-0.663c-0.187-0.305-0.279-0.663-0.279-1.076
			c0-0.325,0.05-0.617,0.151-0.874c0.102-0.258,0.25-0.476,0.445-0.655c0.196-0.179,0.438-0.315,0.729-0.41
			c0.29-0.094,0.623-0.141,1-0.141c0.072,0,0.153,0.004,0.244,0.014c0.09,0.009,0.18,0.02,0.269,0.032s0.171,0.026,0.247,0.041
			s0.136,0.027,0.18,0.038H115.793z M111.447,10.521c0,0.091,0.02,0.179,0.058,0.264s0.101,0.16,0.188,0.226
			c0.087,0.064,0.201,0.116,0.342,0.154c0.142,0.038,0.315,0.058,0.521,0.058c0.565,0,0.991-0.08,1.277-0.239
			s0.429-0.373,0.429-0.642c0-0.228-0.089-0.38-0.267-0.456c-0.177-0.076-0.452-0.114-0.825-0.114h-0.766
			c-0.099,0-0.203,0.012-0.315,0.035s-0.216,0.064-0.31,0.123c-0.095,0.058-0.173,0.135-0.236,0.23S111.447,10.376,111.447,10.521z
			 M112.044,5.577c0,0.329,0.062,0.585,0.186,0.766c0.123,0.182,0.31,0.271,0.56,0.271c0.261,0,0.448-0.09,0.564-0.271
			c0.116-0.181,0.174-0.437,0.174-0.766c0-0.326-0.057-0.585-0.171-0.777c-0.114-0.191-0.304-0.288-0.567-0.288
			C112.292,4.512,112.044,4.867,112.044,5.577z"/>
		<path fill="#8C8C8C" d="M116.729,8.885c0-0.17,0.024-0.313,0.073-0.432c0.049-0.117,0.117-0.213,0.204-0.285
			s0.188-0.125,0.304-0.157c0.116-0.033,0.241-0.049,0.375-0.049c0.127,0,0.247,0.016,0.361,0.049
			c0.114,0.032,0.215,0.085,0.302,0.157s0.155,0.168,0.206,0.285c0.051,0.118,0.076,0.262,0.076,0.432
			c0,0.163-0.025,0.303-0.076,0.419s-0.119,0.212-0.206,0.288s-0.188,0.131-0.302,0.165c-0.114,0.035-0.234,0.052-0.361,0.052
			c-0.134,0-0.259-0.017-0.375-0.052c-0.116-0.034-0.217-0.089-0.304-0.165s-0.155-0.172-0.204-0.288S116.729,9.048,116.729,8.885z"
			/>
		<path fill="#8C8C8C" d="M125.428,6.614c0,0.507-0.064,0.956-0.193,1.348c-0.128,0.391-0.313,0.721-0.554,0.988
			c-0.241,0.269-0.534,0.472-0.88,0.611c-0.347,0.14-0.734,0.209-1.166,0.209c-0.401,0-0.771-0.069-1.107-0.209
			c-0.337-0.14-0.628-0.343-0.872-0.611c-0.245-0.268-0.436-0.598-0.573-0.988c-0.138-0.392-0.207-0.841-0.207-1.348
			c0-0.503,0.064-0.95,0.193-1.342c0.129-0.391,0.313-0.72,0.554-0.986c0.241-0.266,0.533-0.468,0.878-0.605
			c0.344-0.138,0.733-0.206,1.168-0.206c0.401,0,0.771,0.068,1.108,0.206s0.627,0.34,0.871,0.605
			c0.245,0.267,0.436,0.596,0.573,0.986C125.359,5.664,125.428,6.111,125.428,6.614z M121.571,6.614
			c0,0.605,0.085,1.061,0.256,1.366c0.17,0.307,0.447,0.459,0.831,0.459c0.38,0,0.655-0.153,0.825-0.462
			c0.171-0.308,0.256-0.762,0.256-1.363c0-0.604-0.085-1.057-0.256-1.355c-0.17-0.299-0.449-0.448-0.836-0.448
			c-0.381,0-0.655,0.149-0.823,0.448C121.655,5.558,121.571,6.01,121.571,6.614z"/>
		<path fill="#8C8C8C" d="M130.079,3.475c0.044,0,0.092,0.001,0.145,0.003c0.052,0.001,0.103,0.005,0.151,0.011
			c0.05,0.005,0.095,0.011,0.137,0.016c0.041,0.006,0.073,0.012,0.095,0.02v1.554c-0.029-0.008-0.069-0.015-0.119-0.021
			c-0.051-0.008-0.104-0.014-0.161-0.02c-0.056-0.005-0.111-0.009-0.165-0.011c-0.055-0.002-0.1-0.003-0.136-0.003
			c-0.214,0-0.41,0.027-0.59,0.082c-0.18,0.054-0.333,0.142-0.462,0.263c-0.128,0.122-0.228,0.281-0.299,0.479
			c-0.07,0.197-0.105,0.439-0.105,0.726v3.091h-1.657V3.589h1.255l0.244,0.912h0.082c0.087-0.155,0.181-0.297,0.282-0.424
			s0.215-0.234,0.34-0.323s0.266-0.157,0.424-0.206C129.696,3.499,129.876,3.475,130.079,3.475z"/>
		<path fill="#8C8C8C" d="M136.714,3.6v0.901l-0.886,0.277c0.072,0.123,0.123,0.251,0.152,0.383
			c0.028,0.133,0.043,0.274,0.043,0.427c0,0.308-0.049,0.589-0.146,0.845c-0.098,0.255-0.242,0.474-0.435,0.654
			c-0.192,0.182-0.433,0.321-0.723,0.421s-0.626,0.149-1.01,0.149c-0.084,0-0.175-0.004-0.272-0.014
			c-0.098-0.009-0.17-0.019-0.217-0.029c-0.072,0.062-0.13,0.126-0.171,0.192c-0.042,0.067-0.062,0.147-0.062,0.242
			c0,0.076,0.023,0.137,0.07,0.182c0.047,0.046,0.108,0.082,0.185,0.108c0.076,0.027,0.165,0.046,0.267,0.055
			c0.101,0.009,0.206,0.014,0.314,0.014h0.945c0.294,0,0.557,0.033,0.788,0.101s0.428,0.169,0.589,0.307s0.286,0.312,0.373,0.524
			s0.13,0.465,0.13,0.758c0,0.344-0.068,0.654-0.206,0.932s-0.344,0.513-0.617,0.706c-0.273,0.194-0.612,0.343-1.019,0.445
			c-0.405,0.104-0.874,0.155-1.407,0.155c-0.412,0-0.772-0.039-1.081-0.117c-0.308-0.077-0.564-0.189-0.771-0.337
			c-0.206-0.146-0.36-0.323-0.464-0.529s-0.155-0.44-0.155-0.701c0-0.221,0.038-0.412,0.114-0.575s0.178-0.303,0.305-0.419
			c0.126-0.115,0.271-0.21,0.432-0.282s0.327-0.128,0.497-0.168c-0.076-0.033-0.151-0.078-0.226-0.136
			c-0.074-0.059-0.142-0.125-0.201-0.201s-0.108-0.16-0.146-0.253c-0.038-0.092-0.057-0.189-0.057-0.29
			c0-0.116,0.017-0.222,0.051-0.315c0.035-0.095,0.085-0.183,0.149-0.264c0.065-0.081,0.147-0.158,0.245-0.23
			c0.098-0.073,0.208-0.147,0.331-0.223c-0.318-0.138-0.571-0.359-0.758-0.663c-0.187-0.305-0.279-0.663-0.279-1.076
			c0-0.325,0.05-0.617,0.151-0.874c0.102-0.258,0.25-0.476,0.445-0.655c0.196-0.179,0.438-0.315,0.729-0.41
			c0.29-0.094,0.623-0.141,1-0.141c0.072,0,0.153,0.004,0.244,0.014c0.09,0.009,0.18,0.02,0.269,0.032s0.171,0.026,0.247,0.041
			s0.136,0.027,0.18,0.038H136.714z M132.368,10.521c0,0.091,0.02,0.179,0.058,0.264s0.101,0.16,0.188,0.226
			c0.087,0.064,0.201,0.116,0.342,0.154c0.142,0.038,0.315,0.058,0.521,0.058c0.565,0,0.991-0.08,1.277-0.239
			s0.429-0.373,0.429-0.642c0-0.228-0.089-0.38-0.267-0.456c-0.177-0.076-0.452-0.114-0.825-0.114h-0.766
			c-0.099,0-0.203,0.012-0.315,0.035s-0.216,0.064-0.31,0.123c-0.095,0.058-0.173,0.135-0.236,0.23S132.368,10.376,132.368,10.521z
			 M132.965,5.577c0,0.329,0.062,0.585,0.186,0.766c0.123,0.182,0.31,0.271,0.56,0.271c0.261,0,0.448-0.09,0.564-0.271
			c0.116-0.181,0.174-0.437,0.174-0.766c0-0.326-0.057-0.585-0.171-0.777c-0.114-0.191-0.304-0.288-0.567-0.288
			C133.213,4.512,132.965,4.867,132.965,5.577z"/>
	</g>
	<g>
		<path fill="#8C8C8C" d="M68.706,0H58.524c-0.665,0-1.206,0.539-1.206,1.205v10.183c0,0.664,0.541,1.204,1.206,1.204h6.938
			l4.446-4.447V1.205C69.911,0.539,69.371,0,68.706,0z M66.61,4.661h-1.344v0.502h1.344v2h-2.745v2.572h-3.217V3.897l1.236-1.237
			h4.724v2.001H66.61z"/>
	</g>
</g>
</svg>
