<?xml version="1.0" encoding="utf-8"?>
<!-- Generator: Adobe Illustrator 12.0.0, SVG Export Plug-In . SVG Version: 6.00 Build 51448)  -->
<!DOCTYPE svg PUBLIC "-//W3C//DTD SVG 1.1//EN" "http://www.w3.org/Graphics/SVG/1.1/DTD/svg11.dtd" [
	<!ENTITY ns_svg "http://www.w3.org/2000/svg">
	<!ENTITY ns_xlink "http://www.w3.org/1999/xlink">
]>
<svg  version="1.1" id="Laag_1" xmlns="&ns_svg;" xmlns:xlink="&ns_xlink;" width="294.7" height="205.6" viewBox="0 0 294.7 205.6"
	 overflow="visible" enable-background="new 0 0 294.7 205.6" xml:space="preserve">
<g>
	<g>
		<path fill="#047391" d="M285.1,49.9V5.1L279.6,0H30.5v205.6h254.6v-7l9.6-9.9V59L285.1,49.9z M90,15.1c-3.5,0-6.4-2.8-6.4-6.4
			s2.8-6.4,6.4-6.4s6.4,2.8,6.4,6.4S93.5,15.1,90,15.1z M285.5,63.6c2.2,0,4.1,1.8,4.1,4.1c0,2.3-1.8,4.1-4.1,4.1
			c-2.3,0-4.1-1.8-4.1-4.1C281.4,65.5,283.2,63.6,285.5,63.6z M286.2,181.6c-3.3,0-5.9-2.7-5.9-5.9c0-3.3,2.7-5.9,5.9-5.9
			s5.9,2.7,5.9,5.9C292.1,179,289.4,181.6,286.2,181.6z"/>
	</g>
</g>
<path fill="#00809E" d="M139.4,95.5c0-1.4-1-2.5-2.4-2.8v0h-9.5c-1.5,0-2.8,1.3-2.8,2.8s1.3,2.8,2.8,2.8h9.5v0
	C138.4,98.1,139.4,96.9,139.4,95.5z"/>
<path fill="#00809E" d="M139.4,87.1c0-1.4-1-2.5-2.4-2.8v0h-9.5c-1.5,0-2.8,1.3-2.8,2.8c0,1.5,1.3,2.8,2.8,2.8h9.5v0
	C138.4,89.7,139.4,88.5,139.4,87.1z"/>
<path fill="#00809E" d="M139.4,78.7c0-1.4-1-2.5-2.4-2.8v0h-9.5c-1.5,0-2.8,1.3-2.8,2.8s1.3,2.8,2.8,2.8h9.5v0
	C138.4,81.3,139.4,80.1,139.4,78.7z"/>
<path fill="#00809E" d="M177.6,88.7c0-1.4-1-2.5-2.4-2.8v0h-9.5c-1.5,0-2.8,1.3-2.8,2.8s1.3,2.8,2.8,2.8h9.5v0
	C176.5,91.3,177.6,90.1,177.6,88.7z"/>
<path fill="#00809E" d="M200.8,103.4c0-4.2-3.1-7.7-7.1-8.3v-0.1h-24.3c-4.7,0-8.4,3.8-8.4,8.5c0,4.7,3.8,8.4,8.4,8.4h24.3v-0.1
	C197.7,111.1,200.8,107.6,200.8,103.4z"/>
<path fill="#00809E" d="M197.8,88.7c0-1.4-1-2.5-2.4-2.8v0h-9.5c-1.5,0-2.8,1.3-2.8,2.8s1.3,2.8,2.8,2.8h9.5v0
	C196.8,91.3,197.8,90.1,197.8,88.7z"/>
<path fill="#00809E" d="M222.1,88.7c0-1.4-1-2.5-2.4-2.8v0h-9.5c-1.5,0-2.8,1.3-2.8,2.8s1.3,2.8,2.8,2.8h9.5v0
	C221.1,91.3,222.1,90.1,222.1,88.7z"/>
<path fill="#00809E" d="M222.1,99.5c0-1.4-1-2.5-2.4-2.8v0h-9.5c-1.5,0-2.8,1.3-2.8,2.8s1.3,2.8,2.8,2.8h9.5v0
	C221.1,102,222.1,100.9,222.1,99.5z"/>
<path fill="#00809E" d="M222.1,110.2c0-1.4-1-2.5-2.4-2.8v0h-9.5c-1.5,0-2.8,1.3-2.8,2.8s1.3,2.8,2.8,2.8h9.5v0
	C221.1,112.8,222.1,111.6,222.1,110.2z"/>
<path fill="#00809E" d="M242.2,93.5c0-1.4-1-2.5-2.4-2.8v0h-9.5c-1.5,0-2.8,1.3-2.8,2.8s1.3,2.8,2.8,2.8h9.5v0
	C241.2,96.1,242.2,94.9,242.2,93.5z"/>
<path fill="#00809E" d="M242.2,110.8c0-1.4-1-2.5-2.4-2.8v0h-9.5c-1.5,0-2.8,1.3-2.8,2.8s1.3,2.8,2.8,2.8h9.5v0
	C241.2,113.4,242.2,112.2,242.2,110.8z"/>
<path fill="#00809E" d="M247.4,93.5c0-1.4,1-2.5,2.4-2.8v0h9.5c1.5,0,2.8,1.3,2.8,2.8s-1.3,2.8-2.8,2.8h-9.5v0
	C248.5,96.1,247.4,94.9,247.4,93.5z"/>
<path fill="#00809E" d="M247.4,110.8c0-1.4,1-2.5,2.4-2.8v0h9.5c1.5,0,2.8,1.3,2.8,2.8s-1.3,2.8-2.8,2.8h-9.5v0
	C248.5,113.4,247.4,112.2,247.4,110.8z"/>
<path fill="#00809E" d="M139.4,112.4c0-1.4-1-2.5-2.4-2.8v0h-9.5c-1.5,0-2.8,1.3-2.8,2.8s1.3,2.8,2.8,2.8h9.5v0
	C138.4,114.9,139.4,113.8,139.4,112.4z"/>
<path fill="#00809E" d="M139.4,36.7c0-1.4-1-2.5-2.4-2.8v0h-9.5c-1.5,0-2.8,1.3-2.8,2.8s1.3,2.8,2.8,2.8h9.5v0
	C138.4,39.2,139.4,38.1,139.4,36.7z"/>
<path fill="#00809E" d="M92.9,30.4c0-1.4-1-2.5-2.4-2.8v0H81c-1.5,0-2.8,1.3-2.8,2.8s1.3,2.8,2.8,2.8h9.5v0
	C91.9,33,92.9,31.8,92.9,30.4z"/>
<path fill="#00809E" d="M110.7,30.4c0-1.4-1-2.5-2.4-2.8v0h-9.5c-1.5,0-2.8,1.3-2.8,2.8s1.3,2.8,2.8,2.8h9.5v0
	C109.6,33,110.7,31.8,110.7,30.4z"/>
<path fill="#00809E" d="M139.4,53.5c0-1.4-1-2.5-2.4-2.8v0h-9.5c-1.5,0-2.8,1.3-2.8,2.8s1.3,2.8,2.8,2.8h9.5v0
	C138.4,56,139.4,54.9,139.4,53.5z"/>
<path fill="#00809E" d="M106.1,139.8c0-1.4-1-2.5-2.4-2.8v0h-9.5c-1.5,0-2.8,1.3-2.8,2.8s1.3,2.8,2.8,2.8h9.5v0
	C105.1,142.4,106.1,141.2,106.1,139.8z"/>
<path fill="#00809E" d="M106.1,128.3c0-1.4-1-2.5-2.4-2.8v0h-9.5c-1.5,0-2.8,1.3-2.8,2.8s1.3,2.8,2.8,2.8h9.5v0
	C105.1,130.9,106.1,129.7,106.1,128.3z"/>
<path fill="#00809E" d="M82.2,96.7c1.4,0,2.5-1,2.8-2.4h0v-6.7c0-1.5-1.3-2.8-2.8-2.8c-1.5,0-2.8,1.3-2.8,2.8v6.7h0
	C79.7,95.7,80.8,96.7,82.2,96.7z"/>
<path fill="#00809E" d="M92.5,96.7c1.4,0,2.5-1,2.8-2.4h0v-6.7c0-1.5-1.3-2.8-2.8-2.8c-1.5,0-2.8,1.3-2.8,2.8v6.7h0
	C89.9,95.7,91.1,96.7,92.5,96.7z"/>
<path fill="#00809E" d="M102.7,96.7c1.4,0,2.5-1,2.8-2.4h0v-6.7c0-1.5-1.3-2.8-2.8-2.8c-1.5,0-2.8,1.3-2.8,2.8v6.7h0
	C100.2,95.7,101.3,96.7,102.7,96.7z"/>
<path fill="#00809E" d="M113,96.7c1.4,0,2.5-1,2.8-2.4h0v-6.7c0-1.5-1.3-2.8-2.8-2.8c-1.5,0-2.8,1.3-2.8,2.8v6.7h0
	C110.4,95.7,111.6,96.7,113,96.7z"/>
<path fill="#00809E" d="M232.1,65.6c0,1.4,1,2.5,2.4,2.8v0h9.5c1.5,0,2.8-1.2,2.8-2.8c0-1.5-1.3-2.8-2.8-2.8h-9.5v0
	C233.1,63,232.1,64.2,232.1,65.6z"/>
<path fill="#00809E" d="M78.6,130.9c0-1.4-1-2.5-2.4-2.8v0h-9.5c-1.5,0-2.8,1.3-2.8,2.8c0,1.5,1.3,2.8,2.8,2.8h9.5v0
	C77.5,133.5,78.6,132.3,78.6,130.9z"/>
<path fill="#00809E" d="M78.6,140c0-1.4-1-2.5-2.4-2.8v0h-9.5c-1.5,0-2.8,1.2-2.8,2.8c0,1.5,1.3,2.8,2.8,2.8h9.5v0
	C77.5,142.6,78.6,141.4,78.6,140z"/>
<path fill="#00809E" d="M78.6,149.1c0-1.4-1-2.5-2.4-2.8v0h-9.5c-1.5,0-2.8,1.3-2.8,2.8s1.3,2.8,2.8,2.8h9.5v0
	C77.5,151.7,78.6,150.5,78.6,149.1z"/>
<rect x="41.5" y="126.1" fill="#00809E" width="28.2" height="26.8"/>
<rect x="36.6" y="129.4" fill="#00809E" width="7" height="20.3"/>
<g>
	<circle fill="#00809E" cx="103.9" cy="8.4" r="2.4"/>
	<g>
		<g>
			<path fill="#00809E" d="M103.9,2.3c-3.4,0-6.2,2.8-6.2,6.2c0,3.4,2.8,6.2,6.2,6.2c3.4,0,6.2-2.8,6.2-6.2
				C110.1,5,107.3,2.3,103.9,2.3z M103.9,14c-3.1,0-5.5-2.5-5.5-5.5c0-3.1,2.5-5.5,5.5-5.5c3.1,0,5.5,2.5,5.5,5.5
				C109.5,11.5,107,14,103.9,14z"/>
		</g>
	</g>
</g>
<g>
	<circle fill="#00809E" cx="40.2" cy="196.4" r="2.4"/>
	<g>
		<g>
			<path fill="#00809E" d="M40.2,190.2c-3.4,0-6.2,2.8-6.2,6.2c0,3.4,2.8,6.2,6.2,6.2c3.4,0,6.2-2.8,6.2-6.2
				C46.4,193,43.6,190.2,40.2,190.2z M40.2,202c-3.1,0-5.5-2.5-5.5-5.5c0-3.1,2.5-5.5,5.5-5.5c3.1,0,5.5,2.5,5.5,5.5
				C45.8,199.5,43.3,202,40.2,202z"/>
		</g>
	</g>
</g>
<g>
	<circle fill="#00809E" cx="273.7" cy="43.8" r="2.4"/>
	<g>
		<g>
			<path fill="#00809E" d="M273.7,37.7c-3.4,0-6.2,2.8-6.2,6.2c0,3.4,2.8,6.2,6.2,6.2c3.4,0,6.2-2.8,6.2-6.2
				C279.9,40.4,277.1,37.7,273.7,37.7z M273.7,49.4c-3.1,0-5.5-2.5-5.5-5.5c0-3.1,2.5-5.5,5.5-5.5c3.1,0,5.5,2.5,5.5,5.5
				C279.2,46.9,276.7,49.4,273.7,49.4z"/>
		</g>
	</g>
</g>
<circle fill="#00809E" cx="42.1" cy="34.5" r="5.9"/>
<circle fill="#00809E" cx="42.1" cy="82.8" r="5.9"/>
<rect x="76.1" y="46.5" fill="#00809E" width="39.6" height="22.4"/>
<rect x="85.3" y="152.9" fill="#00809E" width="24.4" height="11.1"/>
<rect x="86.5" y="107.4" fill="#00809E" width="22.5" height="13"/>
<rect x="140.6" y="128.5" fill="#00809E" width="134.5" height="29.8"/>
<circle fill="#00809E" cx="73" cy="174.9" r="7.9"/>
<circle fill="#00809E" cx="62.8" cy="194" r="7.9"/>
<path fill="#00809E" d="M116.1,191.1c0.6-1.5,0.9-3.2,0.9-5c0-7.6-6.2-13.8-13.8-13.8s-13.8,6.2-13.8,13.8c0,3.6,1.4,6.8,3.6,9.3
	L116.1,191.1z"/>
<path fill="#00809E" d="M148.3,191.1c0.6-1.5,0.9-3.2,0.9-5c0-7.6-6.2-13.8-13.8-13.8c-7.6,0-13.8,6.2-13.8,13.8
	c0,3.6,1.4,6.8,3.6,9.3L148.3,191.1z"/>
<g>
	<path fill="#8C8C8C" d="M139.4,61.9c0-1.4-1-2.5-2.4-2.8v0h-9.5c-1.5,0-2.8,1.3-2.8,2.8s1.3,2.8,2.8,2.8h9.5v0
		C138.4,64.4,139.4,63.3,139.4,61.9z"/>
	<rect x="129.6" y="59.6" fill="#FFBF00" width="5.1" height="4.5"/>
</g>
<g>
	<path fill="#8C8C8C" d="M139.4,45.1c0-1.4-1-2.5-2.4-2.8v0h-9.5c-1.5,0-2.8,1.3-2.8,2.8s1.3,2.8,2.8,2.8h9.5v0
		C138.4,47.6,139.4,46.5,139.4,45.1z"/>
	<rect x="129.6" y="42.8" fill="#FFBF00" width="5.1" height="4.5"/>
</g>
<g>
	<path fill="#8C8C8C" d="M264.6,65.6c0-1.4-1-2.5-2.4-2.8v0h-9.5c-1.5,0-2.8,1.3-2.8,2.8s1.3,2.8,2.8,2.8h9.5v0
		C263.6,68.1,264.6,67,264.6,65.6z"/>
	<rect x="254.9" y="63.3" fill="#FFBF00" width="5.1" height="4.5"/>
</g>
<g>
	<path fill="#8C8C8C" d="M139.4,70.3c0-1.4-1-2.5-2.4-2.8v0h-9.5c-1.5,0-2.8,1.3-2.8,2.8c0,1.5,1.3,2.8,2.8,2.8h9.5v0
		C138.4,72.9,139.4,71.7,139.4,70.3z"/>
	<rect x="129.6" y="68" fill="#FFBF00" width="5.1" height="4.5"/>
</g>
<rect x="233.7" y="90.3" fill="#8C8C8C" width="23.1" height="23.6"/>
<path fill="#3F3F3F" d="M256.3,93.6c0,1.2-0.9,2.1-2.1,2.1c-1.2,0-2.1-0.9-2.1-2.1c0-1.2,0.9-2.1,2.1-2.1
	C255.3,91.5,256.3,92.5,256.3,93.6z"/>
<path fill="#3F3F3F" d="M238.6,93.6c0,1.2-0.9,2.1-2.1,2.1c-1.2,0-2.1-0.9-2.1-2.1c0-1.2,0.9-2.1,2.1-2.1
	C237.7,91.5,238.6,92.5,238.6,93.6z"/>
<circle fill="#3F3F3F" cx="236.5" cy="111.3" r="2.1"/>
<circle fill="#3F3F3F" cx="254.2" cy="111.3" r="2.1"/>
<circle fill="#3F3F3F" cx="244.8" cy="102.1" r="6.8"/>
<polygon fill="#3F3F3F" points="289.4,83 284,83 279.3,83 273.9,83 271.8,85.1 271.8,90.6 273.9,92.7 279.3,92.7 284,92.7 
	289.4,92.7 291.5,90.6 291.5,85.1 "/>
<polygon fill="#3F3F3F" points="289.4,93 284,93 279.3,93 273.9,93 271.8,95.1 271.8,100.6 273.9,102.7 279.3,102.7 284,102.7 
	289.4,102.7 291.5,100.6 291.5,95.1 "/>
<polygon fill="#3F3F3F" points="289.4,103 284,103 279.3,103 273.9,103 271.8,105.1 271.8,110.6 273.9,112.6 279.3,112.6 284,112.6 
	289.4,112.6 291.5,110.6 291.5,105.1 "/>
<polygon fill="#3F3F3F" points="289.4,83 284,83 279.3,83 273.9,83 271.8,85.1 271.8,90.6 273.9,92.7 279.3,92.7 284,92.7 
	289.4,92.7 291.5,90.6 291.5,85.1 "/>
<polygon fill="#3F3F3F" points="289.4,93 284,93 279.3,93 273.9,93 271.8,95.1 271.8,100.6 273.9,102.7 279.3,102.7 284,102.7 
	289.4,102.7 291.5,100.6 291.5,95.1 "/>
<polygon fill="#3F3F3F" points="289.4,103 284,103 279.3,103 273.9,103 271.8,105.1 271.8,110.6 273.9,112.6 279.3,112.6 284,112.6 
	289.4,112.6 291.5,110.6 291.5,105.1 "/>
<rect x="275.1" y="106" fill="#8C8C8C" width="3.2" height="3.2"/>
<rect x="285.1" y="106" fill="#8C8C8C" width="3.2" height="3.2"/>
<rect x="275.1" y="96" fill="#8C8C8C" width="3.2" height="3.2"/>
<rect x="285.1" y="96" fill="#8C8C8C" width="3.2" height="3.2"/>
<rect x="275.1" y="86" fill="#8C8C8C" width="3.2" height="3.2"/>
<rect x="285.1" y="86" fill="#8C8354" width="3.2" height="3.2"/>
<polygon fill="#3F3F3F" points="49.5,92.8 44,92.8 49.5,92.8 44,92.8 41.9,94.9 41.9,100.4 44,102.5 49.5,102.5 44,102.5 
	49.5,102.5 51.6,100.4 51.6,94.9 "/>
<g>
	<rect x="285.9" y="86.8" fill="#8C8562" width="1.6" height="1.6"/>
	<polygon fill="#B8AF81" points="285.1,86 285.9,86.8 287.5,86.8 288.3,86 	"/>
	<polygon fill="#80795A" points="287.5,88.5 287.5,86.8 288.3,86 288.3,89.2 	"/>
	<polygon fill="#5E5A42" points="285.9,88.5 287.5,88.5 288.3,89.2 285.1,89.2 	"/>
	<polygon fill="#99916B" points="285.1,86 285.9,86.8 285.9,88.5 285.1,89.2 	"/>
</g>
<g>
	<rect x="275.9" y="86.8" fill="#8C8562" width="1.6" height="1.6"/>
	<polygon fill="#B8AF81" points="275.1,86 275.9,86.8 277.5,86.8 278.3,86 	"/>
	<polygon fill="#80795A" points="277.5,88.5 277.5,86.8 278.3,86 278.3,89.2 	"/>
	<polygon fill="#5E5A42" points="275.9,88.5 277.5,88.5 278.3,89.2 275.1,89.2 	"/>
	<polygon fill="#99916B" points="275.1,86 275.9,86.8 275.9,88.5 275.1,89.2 	"/>
</g>
<g>
	<rect x="285.9" y="96.8" fill="#8C8562" width="1.6" height="1.6"/>
	<polygon fill="#B8AF81" points="285.1,96 285.9,96.8 287.5,96.8 288.3,96 	"/>
	<polygon fill="#80795A" points="287.5,98.5 287.5,96.8 288.3,96 288.3,99.2 	"/>
	<polygon fill="#5E5A42" points="285.9,98.5 287.5,98.5 288.3,99.2 285.1,99.2 	"/>
	<polygon fill="#99916B" points="285.1,96 285.9,96.8 285.9,98.5 285.1,99.2 	"/>
</g>
<g>
	<rect x="275.9" y="96.8" fill="#8C8562" width="1.6" height="1.6"/>
	<polygon fill="#B8AF81" points="275.1,96 275.9,96.8 277.5,96.8 278.3,96 	"/>
	<polygon fill="#80795A" points="277.5,98.5 277.5,96.8 278.3,96 278.3,99.2 	"/>
	<polygon fill="#5E5A42" points="275.9,98.5 277.5,98.5 278.3,99.2 275.1,99.2 	"/>
	<polygon fill="#99916B" points="275.1,96 275.9,96.8 275.9,98.5 275.1,99.2 	"/>
</g>
<g>
	<rect x="285.9" y="106.8" fill="#8C8562" width="1.6" height="1.6"/>
	<polygon fill="#B8AF81" points="285.1,106 285.9,106.8 287.5,106.8 288.3,106 	"/>
	<polygon fill="#80795A" points="287.5,108.5 287.5,106.8 288.3,106 288.3,109.2 	"/>
	<polygon fill="#5E5A42" points="285.9,108.5 287.5,108.5 288.3,109.2 285.1,109.2 	"/>
	<polygon fill="#99916B" points="285.1,106 285.9,106.8 285.9,108.5 285.1,109.2 	"/>
</g>
<g>
	<rect x="45.9" y="96.8" fill="#8C8562" width="1.6" height="1.6"/>
	<polygon fill="#B8AF81" points="45.1,96 45.9,96.8 47.5,96.8 48.3,96 	"/>
	<polygon fill="#80795A" points="47.5,98.5 47.5,96.8 48.3,96 48.3,99.2 	"/>
	<polygon fill="#5E5A42" points="45.9,98.5 47.5,98.5 48.3,99.2 45.1,99.2 	"/>
	<polygon fill="#99916B" points="45.1,96 45.9,96.8 45.9,98.5 45.1,99.2 	"/>
</g>
<polygon fill="#3F3F3F" points="49.5,102.8 44,102.8 49.5,102.8 44,102.8 41.9,104.9 41.9,110.4 44,112.5 49.5,112.5 44,112.5 
	49.5,112.5 51.6,110.4 51.6,104.9 "/>
<g>
	<rect x="45.9" y="106.8" fill="#8C8562" width="1.6" height="1.6"/>
	<polygon fill="#B8AF81" points="45.1,106 45.9,106.8 47.5,106.8 48.3,106 	"/>
	<polygon fill="#80795A" points="47.5,108.5 47.5,106.8 48.3,106 48.3,109.2 	"/>
	<polygon fill="#5E5A42" points="45.9,108.5 47.5,108.5 48.3,109.2 45.1,109.2 	"/>
	<polygon fill="#99916B" points="45.1,106 45.9,106.8 45.9,108.5 45.1,109.2 	"/>
</g>
<polygon fill="#3F3F3F" points="49.5,112.8 44,112.8 49.5,112.8 44,112.8 41.9,114.9 41.9,120.4 44,122.5 49.5,122.5 44,122.5 
	49.5,122.5 51.6,120.4 51.6,114.9 "/>
<g>
	<rect x="45.9" y="116.8" fill="#8C8562" width="1.6" height="1.6"/>
	<polygon fill="#B8AF81" points="45.1,116 45.9,116.8 47.5,116.8 48.3,116 	"/>
	<polygon fill="#80795A" points="47.5,118.5 47.5,116.8 48.3,116 48.3,119.2 	"/>
	<polygon fill="#5E5A42" points="45.9,118.5 47.5,118.5 48.3,119.2 45.1,119.2 	"/>
	<polygon fill="#99916B" points="45.1,116 45.9,116.8 45.9,118.5 45.1,119.2 	"/>
</g>
<path opacity="0.7" d="M45.1,96v3.2h3.2V96H45.1z M47.9,98.8h-2.4v-2.4h2.4V98.8z"/>
<path opacity="0.7" d="M45.1,106v3.2h3.2V106H45.1z M47.9,108.8h-2.4v-2.4h2.4V108.8z"/>
<path d="M41.9,92.8v19.7h9.7V92.8H41.9z M48.3,109.2h-3.2V106h3.2V109.2z M48.3,99.2h-3.2V96h3.2V99.2z"/>
<rect x="44.4" y="95.7" fill="#736A39" width="0.8" height="13.8"/>
<rect x="45.5" y="99.2" fill="#4D4726" width="2.4" height="0.8"/>
<rect x="45.5" y="105.3" fill="#4D4726" width="2.4" height="0.8"/>
<polygon fill="#262626" points="41.9,92.8 41.9,100 44.1,100 44.1,95.5 49.3,95.5 49.3,100 51.5,100 51.5,92.8 "/>
<polygon fill="#262626" points="51.6,112.5 51.6,105.3 49.3,105.3 49.3,109.8 44.1,109.8 44.1,105.3 41.9,105.3 41.9,112.5 "/>
<linearGradient id="XMLID_3_" gradientUnits="userSpaceOnUse" x1="44.7437" y1="97.6348" x2="44.7437" y2="95.6953">
	<stop  offset="0" style="stop-color:#FFFFFF"/>
	<stop  offset="1" style="stop-color:#000000"/>
</linearGradient>
<rect x="44.4" y="95.7" fill="url(#XMLID_3_)" width="0.8" height="1.9"/>
<linearGradient id="XMLID_4_" gradientUnits="userSpaceOnUse" x1="-197.2563" y1="408.5645" x2="-197.2563" y2="406.625" gradientTransform="matrix(-1 0 0 -1 -152.5117 516.1289)">
	<stop  offset="0" style="stop-color:#FFFFFF"/>
	<stop  offset="1" style="stop-color:#000000"/>
</linearGradient>
<rect x="44.4" y="107.6" fill="url(#XMLID_4_)" width="0.8" height="1.9"/>
<g>
	<g>
		<path fill="#FFFFFF" d="M182.1,164.7l0.4,0.6l0.2-0.6l0.1-1.8c0-0.2,0-0.5,0.3-0.5c0.3,0,0.3,0.3,0.3,0.5l-0.1,1.9l-0.3,1
			c-0.1,0.2-0.1,0.4-0.3,0.4h-0.3c-0.1,0-0.2-0.1-0.3-0.2l-0.4-0.6l-0.4,0.6c-0.1,0.1-0.2,0.2-0.3,0.2h-0.3c-0.2,0-0.3-0.2-0.3-0.4
			l-0.3-1l-0.1-1.9c0-0.2,0-0.5,0.3-0.5c0.3,0,0.3,0.3,0.3,0.5l0.1,1.8l0.2,0.6l0.4-0.6v-0.6c0-0.2,0-0.5,0.3-0.5
			c0.3,0,0.3,0.2,0.3,0.5V164.7z"/>
		<path fill="#FFFFFF" d="M187.3,164.7l0.4,0.6l0.2-0.6l0.1-1.8c0-0.2,0-0.5,0.3-0.5c0.3,0,0.3,0.3,0.3,0.5l-0.1,1.9l-0.3,1
			c-0.1,0.2-0.1,0.4-0.3,0.4h-0.3c-0.1,0-0.2-0.1-0.3-0.2l-0.4-0.6l-0.4,0.6c-0.1,0.1-0.2,0.2-0.3,0.2H186c-0.2,0-0.3-0.2-0.3-0.4
			l-0.3-1l-0.1-1.9c0-0.2,0-0.5,0.3-0.5c0.3,0,0.3,0.3,0.3,0.5l0.1,1.8l0.2,0.6l0.4-0.6v-0.6c0-0.2,0-0.5,0.3-0.5
			c0.3,0,0.3,0.2,0.3,0.5V164.7z"/>
		<path fill="#FFFFFF" d="M192.4,164.7l0.4,0.6l0.2-0.6l0.1-1.8c0-0.2,0-0.5,0.3-0.5c0.3,0,0.3,0.3,0.3,0.5l-0.1,1.9l-0.3,1
			c-0.1,0.2-0.1,0.4-0.3,0.4h-0.3c-0.1,0-0.2-0.1-0.3-0.2l-0.4-0.6l-0.4,0.6c-0.1,0.1-0.2,0.2-0.3,0.2h-0.3c-0.2,0-0.3-0.2-0.3-0.4
			l-0.3-1l-0.1-1.9c0-0.2,0-0.5,0.3-0.5c0.3,0,0.3,0.3,0.3,0.5l0.1,1.8l0.2,0.6l0.4-0.6v-0.6c0-0.2,0-0.5,0.3-0.5s0.3,0.2,0.3,0.5
			V164.7z"/>
		<path fill="#FFFFFF" d="M196.9,165.4c-0.2,0-0.3,0-0.4-0.1c-0.1-0.1-0.1-0.2-0.1-0.3v-0.4c0-0.1,0-0.2,0.1-0.3
			c0.1-0.1,0.2-0.1,0.4-0.1h0.5c0.2,0,0.3,0,0.4,0.1c0.1,0.1,0.1,0.2,0.1,0.3v0.4c0,0.1,0,0.2-0.1,0.3c-0.1,0.1-0.2,0.1-0.4,0.1
			H196.9z"/>
		<path fill="#FFFFFF" d="M201.7,163.2c-0.2,0-0.5,0-0.5-0.3c0-0.3,0.2-0.3,0.5-0.3h0.9c0.4,0,0.6,0,0.9,0.3
			c0.3,0.3,0.3,0.5,0.3,0.8l0.1,2.3c0,0.2-0.1,0.4-0.3,0.4c-0.2,0-0.4-0.1-0.3-0.3l-0.5,0.2c-0.2,0.1-0.2,0.1-0.4,0.1h-0.7
			c-0.3,0-0.5,0-0.8-0.2c-0.3-0.2-0.4-0.5-0.4-0.8v-0.3c0-0.3,0.1-0.5,0.3-0.8c0.2-0.2,0.5-0.3,0.8-0.3h1.5v-0.2
			c0-0.5-0.1-0.6-0.6-0.6H201.7z M201.7,164.6c-0.2,0-0.5,0-0.5,0.3v0.5c0,0.2,0.3,0.3,0.4,0.3h0.8l0.8-0.4v-0.1
			c0-0.4-0.1-0.5-0.5-0.5H201.7z"/>
		<path fill="#FFFFFF" d="M205.7,163c0-0.2,0-0.5,0.3-0.5c0.3,0,0.3,0.2,0.3,0.5v0.3l0.5-0.4c0.2-0.2,0.4-0.3,0.6-0.3h0.5
			c0.3,0,0.5,0.1,0.7,0.3c0.2,0.2,0.3,0.5,0.3,0.8c0,0.2,0,0.5-0.3,0.5c-0.2,0-0.3-0.2-0.3-0.4c0-0.1,0-0.2-0.1-0.3
			c-0.1-0.1-0.2-0.1-0.4-0.1h-0.2c-0.1,0-0.2,0.1-0.3,0.2l-1,0.8v1.7c0,0.2,0,0.5-0.3,0.5s-0.3-0.2-0.3-0.5V163z"/>
		<path fill="#FFFFFF" d="M212.7,162.5c0.2,0,0.4,0.1,0.7,0.4l0.1,0.1v-1.4c0-0.2,0-0.5,0.3-0.5s0.3,0.2,0.3,0.5v4.3
			c0,0.2-0.1,0.5-0.3,0.5c-0.3,0-0.3-0.2-0.3-0.5v0l-0.1,0.1c-0.2,0.2-0.4,0.3-0.7,0.3H212c-0.2,0-0.5-0.2-0.6-0.2l-0.2-0.2
			c-0.3-0.2-0.4-0.4-0.4-0.8v-1.4c0-0.4,0.1-0.5,0.4-0.8l0.2-0.2c0.2-0.2,0.4-0.2,0.7-0.2H212.7z M211.5,164.8c0,0.2,0,0.4,0.1,0.5
			l0.2,0.2c0.1,0.1,0.2,0.1,0.3,0.1h0.5c0.1,0,0.2-0.1,0.3-0.2l0.4-0.3c0.1-0.1,0.2-0.2,0.2-0.3V164c0-0.1-0.1-0.2-0.2-0.3l-0.4-0.3
			c-0.1-0.1-0.2-0.2-0.3-0.2h-0.5c-0.1,0-0.2,0.1-0.3,0.1l-0.2,0.2c-0.1,0.1-0.1,0.3-0.1,0.5V164.8z"/>
		<path fill="#FFFFFF" d="M219.3,165.8c0,0.2,0,0.5-0.3,0.5c-0.3,0-0.3-0.2-0.3-0.5v-0.1l-0.6,0.4c-0.2,0.1-0.4,0.2-0.6,0.2H217
			c-0.2,0-0.4-0.1-0.6-0.2c-0.3-0.3-0.3-0.6-0.3-0.9l-0.1-2.1c0-0.2,0-0.5,0.3-0.5c0.3,0,0.3,0.2,0.3,0.5l0.1,2.1
			c0,0.2,0,0.3,0.1,0.4s0.2,0.1,0.4,0.1h0.2c0.1,0,0.2,0,0.2-0.1l1-0.6v-2c0-0.2,0.1-0.5,0.3-0.5s0.3,0.2,0.3,0.5V165.8z"/>
		<path fill="#FFFFFF" d="M223.1,165.6h0.5c0.2,0,0.5,0,0.5,0.3c0,0.3-0.3,0.3-0.5,0.3h-1.7c-0.2,0-0.5,0-0.5-0.3
			c0-0.3,0.2-0.3,0.5-0.3h0.5v-2.5h-0.5c-0.2,0-0.5,0-0.5-0.3c0-0.3,0.2-0.3,0.5-0.3h0.7c0.4,0,0.5,0.1,0.5,0.5V165.6z M222,161.1
			c0-0.2,0.1-0.3,0.3-0.3h0.4c0.2,0,0.3,0.1,0.3,0.3v0.3c0,0.2-0.1,0.3-0.3,0.3h-0.4c-0.2,0-0.3-0.1-0.3-0.3V161.1z"/>
		<path fill="#FFFFFF" d="M226.8,163.9v2c0,0.2,0,0.5-0.3,0.5c-0.3,0-0.3-0.2-0.3-0.5V163c0-0.2,0-0.5,0.3-0.5
			c0.3,0,0.3,0.3,0.3,0.5v0.1v0l0.6-0.4c0.2-0.1,0.4-0.2,0.6-0.2h0.5c0.3,0,0.4,0.1,0.6,0.2c0.3,0.3,0.3,0.6,0.3,0.9l0.1,2.1
			c0,0.2,0,0.5-0.3,0.5c-0.3,0-0.3-0.2-0.3-0.5l-0.1-2.1c0-0.4,0-0.6-0.5-0.6h-0.2c-0.1,0-0.1,0-0.2,0.1L226.8,163.9z"/>
		<path fill="#FFFFFF" d="M231.3,163.8c0-0.5,0.1-0.6,0.4-0.9c0.3-0.3,0.5-0.4,1-0.4h0.5c0.5,0,0.6,0.1,1,0.4
			c0.3,0.3,0.4,0.4,0.4,0.9v1.3c0,0.4-0.1,0.6-0.5,0.9c-0.4,0.3-0.5,0.4-0.9,0.4h-0.5c-0.4,0-0.6-0.1-0.9-0.4
			c-0.4-0.3-0.5-0.5-0.5-0.9V163.8z M232,165c0,0.1,0,0.2,0.2,0.4c0.1,0.1,0.3,0.2,0.5,0.2h0.5c0.2,0,0.3-0.1,0.5-0.2
			c0.2-0.2,0.2-0.3,0.2-0.4v-1.3c0-0.1,0-0.2-0.2-0.4c-0.1-0.1-0.3-0.2-0.5-0.2h-0.5c-0.2,0-0.3,0.1-0.5,0.2
			c-0.2,0.2-0.2,0.3-0.2,0.4V165z"/>
		<path fill="#FFFFFF" d="M237.8,165.4c-0.2,0-0.3,0-0.4-0.1c-0.1-0.1-0.1-0.2-0.1-0.3v-0.4c0-0.1,0-0.2,0.1-0.3
			c0.1-0.1,0.2-0.1,0.4-0.1h0.5c0.2,0,0.3,0,0.4,0.1c0.1,0.1,0.1,0.2,0.1,0.3v0.4c0,0.1,0,0.2-0.1,0.3c-0.1,0.1-0.2,0.1-0.4,0.1
			H237.8z"/>
		<path fill="#FFFFFF" d="M241.5,164.1c0-0.4,0.1-0.6,0.4-0.9l0.5-0.4c0.3-0.3,0.5-0.3,0.9-0.3h1.1c0.2,0,0.5,0,0.5,0.3
			c0,0.3-0.3,0.3-0.5,0.3h-1.2c-0.1,0-0.3,0.1-0.4,0.2l-0.4,0.3c-0.1,0.1-0.2,0.2-0.2,0.3v0.8c0,0.1,0.1,0.2,0.2,0.3l0.4,0.3
			c0.1,0.1,0.3,0.2,0.4,0.2h1.2c0.2,0,0.5,0,0.5,0.3c0,0.3-0.2,0.3-0.5,0.3h-1.1c-0.4,0-0.6,0-0.9-0.3l-0.5-0.4
			c-0.3-0.3-0.4-0.5-0.4-0.9V164.1z"/>
		<path fill="#FFFFFF" d="M246.6,164.1c0-0.4,0.1-0.6,0.4-0.9l0.5-0.4c0.3-0.3,0.5-0.3,0.9-0.3h1.1c0.2,0,0.5,0,0.5,0.3
			c0,0.3-0.3,0.3-0.5,0.3h-1.2c-0.1,0-0.3,0.1-0.4,0.2l-0.4,0.3c-0.1,0.1-0.2,0.2-0.2,0.3v0.8c0,0.1,0.1,0.2,0.2,0.3l0.4,0.3
			c0.1,0.1,0.3,0.2,0.4,0.2h1.2c0.2,0,0.5,0,0.5,0.3c0,0.3-0.2,0.3-0.5,0.3h-1.1c-0.4,0-0.6,0-0.9-0.3l-0.5-0.4
			c-0.3-0.3-0.4-0.5-0.4-0.9V164.1z"/>
	</g>
</g>
<g>
	<g>
		<path fill="#FFFFFF" d="M160.3,70.2h-0.4c-0.4,0-0.7-0.1-0.7-0.6c0-0.4,0.3-0.6,0.7-0.6h2c0.9,0,1.4,0.4,1.8,1.2l1.1,2.1
			c0.2,0.5,0.4,0.8,0.4,1.4c0,0.5-0.1,0.9-0.4,1.3l-1.1,2.2c-0.4,0.9-1,1.1-1.9,1.1h-2c-0.3,0-0.6-0.2-0.6-0.6s0.3-0.6,0.6-0.6h0.6
			V70.2z M161.5,77.2h0.2c0.5,0,0.6-0.1,0.8-0.5l1.1-2.2c0.1-0.3,0.2-0.5,0.2-0.8c0-0.4-0.1-0.6-0.3-1l-1-2
			c-0.3-0.5-0.4-0.5-0.9-0.5h-0.1V77.2z"/>
		<path fill="#FFFFFF" d="M171.4,77.2h0.9c0.4,0,0.8,0.1,0.8,0.6c0,0.5-0.5,0.6-0.8,0.6h-3c-0.3,0-0.8-0.1-0.8-0.6
			c0-0.5,0.4-0.6,0.8-0.6h0.9V73h-0.9c-0.3,0-0.8-0.1-0.8-0.6c0-0.5,0.4-0.6,0.8-0.6h1.2c0.7,0,0.9,0.1,0.9,0.8V77.2z M169.7,69.5
			c0-0.4,0.2-0.5,0.5-0.5h0.7c0.3,0,0.5,0.1,0.5,0.5v0.6c0,0.4-0.2,0.5-0.5,0.5h-0.7c-0.3,0-0.5-0.1-0.5-0.5V69.5z"/>
		<path fill="#FFFFFF" d="M178.8,78.4c-0.5,0-0.7,0-1-0.3l-0.5-0.4c-0.5-0.4-0.6-0.7-0.6-1.3v-2.2c0-0.6,0.1-1,0.6-1.4l0.4-0.4
			c0.5-0.5,0.8-0.5,1.3-0.5h1.1c0.6,0,0.8,0.1,1.3,0.4l0.5,0.4c0.5,0.4,0.6,0.9,0.6,1.5v0.9c0,0.7-0.1,0.9-0.8,0.9h-3.7v0.4
			c0,0.1,0.1,0.3,0.2,0.3l0.3,0.3c0.2,0.2,0.4,0.2,0.8,0.2h2.5c0.4,0,0.8,0.1,0.8,0.6c0,0.5-0.5,0.6-0.8,0.6H178.8z M177.9,74.8h3.4
			v-0.7c0-0.2,0-0.4-0.1-0.5l-0.4-0.4c-0.1-0.1-0.4-0.1-0.6-0.1h-1c-0.2,0-0.4,0-0.6,0.1l-0.4,0.3c-0.1,0.1-0.2,0.2-0.2,0.5V74.8z"
			/>
		<path fill="#FFFFFF" d="M185.4,74.6c0-0.7,0.1-1.1,0.7-1.5l0.9-0.7c0.5-0.4,0.8-0.5,1.5-0.5h1.8c0.4,0,0.8,0.1,0.8,0.6
			c0,0.5-0.5,0.6-0.8,0.6h-2c-0.2,0-0.5,0.1-0.7,0.3l-0.7,0.6c-0.2,0.1-0.3,0.3-0.3,0.5v1.4c0,0.2,0.1,0.4,0.3,0.5l0.7,0.6
			c0.2,0.2,0.4,0.3,0.7,0.3h2c0.3,0,0.8,0.1,0.8,0.6c0,0.5-0.4,0.6-0.8,0.6h-1.8c-0.7,0-1,0-1.5-0.5l-0.9-0.7
			c-0.6-0.5-0.7-0.8-0.7-1.5V74.6z"/>
		<path fill="#FFFFFF" d="M197.6,77.2h0.9c0.4,0,0.8,0.1,0.8,0.6c0,0.5-0.5,0.6-0.8,0.6h-3c-0.3,0-0.8-0.1-0.8-0.6
			c0-0.5,0.4-0.6,0.8-0.6h0.9V73h-0.9c-0.3,0-0.8-0.1-0.8-0.6c0-0.5,0.4-0.6,0.8-0.6h1.2c0.7,0,0.9,0.1,0.9,0.8V77.2z M195.8,69.5
			c0-0.4,0.2-0.5,0.5-0.5h0.7c0.3,0,0.5,0.1,0.5,0.5v0.6c0,0.4-0.2,0.5-0.5,0.5h-0.7c-0.3,0-0.5-0.1-0.5-0.5V69.5z"/>
		<path fill="#FFFFFF" d="M206.2,73.8v3.8c0,0.4-0.1,0.8-0.6,0.8s-0.6-0.4-0.6-0.8v-3.9c0-0.2,0-0.6-0.3-0.6c-0.1,0-0.2,0.1-0.3,0.2
			l-0.5,0.5v3.8c0,0.4-0.1,0.8-0.6,0.8s-0.6-0.4-0.6-0.8v-4.9c0-0.4,0.1-0.8,0.6-0.8c0.3,0,0.5,0.2,0.6,0.5l0.1-0.1
			c0.3-0.2,0.5-0.4,0.9-0.4c0.4,0,0.8,0.2,1.1,0.6l0.1-0.1c0.4-0.4,0.5-0.5,1-0.5c0.4,0,0.7,0.2,1,0.5c0.3,0.4,0.3,0.7,0.3,1.2
			l0.1,4c0,0.4,0,0.9-0.6,0.9c-0.5,0-0.6-0.4-0.6-0.8l-0.1-3.8c0-0.2,0-0.6-0.3-0.6c-0.2,0-0.4,0.3-0.5,0.4L206.2,73.8z"/>
		<path fill="#FFFFFF" d="M215,77.2h0.9c0.4,0,0.8,0.1,0.8,0.6c0,0.5-0.5,0.6-0.8,0.6h-3c-0.3,0-0.8-0.1-0.8-0.6
			c0-0.5,0.4-0.6,0.8-0.6h0.9V73h-0.9c-0.3,0-0.8-0.1-0.8-0.6c0-0.5,0.4-0.6,0.8-0.6h1.2c0.7,0,0.9,0.1,0.9,0.8V77.2z M213.2,69.5
			c0-0.4,0.2-0.5,0.5-0.5h0.7c0.3,0,0.5,0.1,0.5,0.5v0.6c0,0.4-0.2,0.5-0.5,0.5h-0.7c-0.3,0-0.5-0.1-0.5-0.5V69.5z"/>
		<path fill="#FFFFFF" d="M223.7,77.2h0.9c0.4,0,0.8,0.1,0.8,0.6c0,0.5-0.5,0.6-0.8,0.6h-3c-0.3,0-0.8-0.1-0.8-0.6
			c0-0.5,0.4-0.6,0.8-0.6h0.9v-6.6h-0.9c-0.3,0-0.8-0.1-0.8-0.6c0-0.5,0.4-0.6,0.8-0.6h1.2c0.7,0,0.9,0.1,0.9,0.8V77.2z"/>
		<path fill="#FFFFFF" d="M230.9,73c-0.3,0-0.8-0.1-0.8-0.6c0-0.5,0.4-0.6,0.8-0.6h1.6c0.6,0,1,0.1,1.5,0.5c0.4,0.4,0.5,0.8,0.5,1.4
			l0.1,3.9c0,0.3-0.2,0.7-0.5,0.7c-0.3,0-0.6-0.3-0.6-0.6l-0.8,0.4c-0.3,0.2-0.3,0.2-0.7,0.2h-1.1c-0.5,0-0.9-0.1-1.3-0.4
			c-0.5-0.4-0.6-0.8-0.6-1.4V76c0-0.6,0.1-0.9,0.6-1.3c0.4-0.4,0.8-0.4,1.4-0.4h2.5V74c0-0.9-0.2-1-1-1H230.9z M230.9,75.5
			c-0.3,0-0.8,0.1-0.8,0.5v0.8c0,0.4,0.5,0.5,0.8,0.5h1.3l1.3-0.7v-0.3c0-0.6-0.2-0.8-0.8-0.8H230.9z"/>
	</g>
</g>
<g>
	<path fill="#FFFFFF" d="M165,55.3c0.1-0.3,0.2-0.6,0.6-0.6c0.4,0,0.5,0.3,0.6,0.6l2.3,8.2c0.1,0.3-0.2,0.6-0.6,0.6
		c-0.4,0-0.6-0.3-0.7-0.6l-0.4-1.5h-2.6l-0.5,1.5c-0.1,0.3-0.3,0.6-0.7,0.6c-0.3,0-0.7-0.3-0.6-0.6L165,55.3z M165.6,57.6
		L165.6,57.6l-1,3.3h1.9L165.6,57.6z"/>
	<path fill="#FFFFFF" d="M171.5,58.5c0-0.4,0-0.9,0.6-0.9c0.5,0,0.6,0.4,0.6,0.8v0.5l0.9-0.8c0.3-0.3,0.7-0.5,1-0.5h0.9
		c0.4,0,0.8,0.1,1.1,0.5c0.4,0.4,0.5,0.8,0.5,1.3c0,0.4-0.1,0.8-0.6,0.8c-0.4,0-0.6-0.3-0.6-0.7c0-0.2,0-0.3-0.1-0.5
		c-0.1-0.2-0.4-0.2-0.7-0.2h-0.3c-0.2,0-0.4,0.1-0.6,0.3l-1.6,1.3v2.9c0,0.4-0.1,0.8-0.6,0.8s-0.6-0.4-0.6-0.8V58.5z"/>
	<path fill="#FFFFFF" d="M183.4,57.6c0.4,0,0.7,0.2,1.2,0.6l0.2,0.2V56c0-0.4,0.1-0.8,0.6-0.8s0.6,0.4,0.6,0.8v7.3
		c0,0.4-0.1,0.8-0.6,0.8c-0.5,0-0.6-0.4-0.6-0.8v-0.1l-0.3,0.3c-0.4,0.3-0.8,0.6-1.1,0.6h-1.1c-0.4,0-0.8-0.3-1-0.4l-0.4-0.3
		c-0.5-0.4-0.6-0.7-0.6-1.3v-2.3c0-0.6,0.2-0.9,0.6-1.3l0.4-0.3c0.4-0.3,0.6-0.4,1.1-0.4H183.4z M181.4,61.6c0,0.3,0,0.7,0.2,0.9
		l0.4,0.3c0.1,0.1,0.3,0.2,0.4,0.2h0.8c0.1,0,0.3-0.1,0.6-0.3l0.7-0.6c0.2-0.1,0.3-0.3,0.3-0.5v-1.5c0-0.2-0.2-0.4-0.3-0.5l-0.7-0.6
		c-0.2-0.2-0.4-0.3-0.6-0.3h-0.8c-0.1,0-0.3,0.1-0.4,0.2l-0.4,0.3c-0.2,0.1-0.2,0.6-0.2,0.9V61.6z"/>
	<path fill="#FFFFFF" d="M194.6,63.3c0,0.3,0,0.9-0.6,0.9c-0.5,0-0.6-0.4-0.6-0.8v-0.2l-0.9,0.6c-0.4,0.2-0.7,0.4-1,0.4h-0.9
		c-0.3,0-0.7-0.1-1.1-0.4c-0.5-0.4-0.5-0.9-0.5-1.6l-0.1-3.7c0-0.4,0-0.9,0.6-0.9c0.5,0,0.6,0.4,0.6,0.8l0.1,3.6
		c0,0.3,0,0.6,0.1,0.8c0.1,0.2,0.4,0.2,0.7,0.2h0.4c0.1,0,0.3,0,0.4-0.1l1.7-1.1v-3.4c0-0.4,0.1-0.8,0.6-0.8s0.6,0.4,0.6,0.8V63.3z"
		/>
	<path fill="#FFFFFF" d="M201.1,63h0.9c0.4,0,0.8,0.1,0.8,0.6c0,0.5-0.5,0.6-0.8,0.6h-3c-0.3,0-0.8-0.1-0.8-0.6
		c0-0.5,0.4-0.6,0.8-0.6h0.9v-4.2H199c-0.3,0-0.8-0.1-0.8-0.6c0-0.5,0.4-0.6,0.8-0.6h1.2c0.7,0,0.9,0.1,0.9,0.8V63z M199.3,55.2
		c0-0.4,0.2-0.5,0.5-0.5h0.7c0.3,0,0.5,0.1,0.5,0.5v0.6c0,0.4-0.2,0.5-0.5,0.5h-0.7c-0.3,0-0.5-0.1-0.5-0.5V55.2z"/>
	<path fill="#FFFFFF" d="M207.5,59.9v3.4c0,0.4-0.1,0.8-0.6,0.8c-0.5,0-0.6-0.4-0.6-0.8v-4.9c0-0.4,0-0.9,0.6-0.9
		c0.5,0,0.6,0.4,0.6,0.8v0.1v0l0.9-0.6c0.3-0.2,0.6-0.4,1-0.4h0.9c0.4,0,0.7,0.1,1.1,0.4c0.5,0.4,0.5,0.9,0.5,1.6l0.1,3.7
		c0,0.4,0,0.9-0.6,0.9c-0.5,0-0.6-0.4-0.6-0.8l-0.1-3.6c0-0.7-0.1-1-0.8-1h-0.4c-0.1,0-0.2,0-0.4,0.1L207.5,59.9z"/>
	<path fill="#FFFFFF" d="M215,59.8c0-0.8,0.2-1,0.7-1.5c0.6-0.5,0.8-0.7,1.6-0.7h0.9c0.8,0,1.1,0.2,1.6,0.7c0.6,0.5,0.7,0.7,0.7,1.5
		v2.2c0,0.8-0.2,1.1-0.8,1.6c-0.6,0.5-0.8,0.6-1.6,0.6h-0.9c-0.7,0-1-0.1-1.6-0.6c-0.6-0.5-0.8-0.8-0.8-1.6V59.8z M216.2,61.9
		c0,0.2,0.1,0.4,0.4,0.7c0.3,0.2,0.4,0.3,0.8,0.3h0.9c0.4,0,0.5-0.1,0.8-0.3c0.3-0.3,0.4-0.4,0.4-0.7v-2.2c0-0.2-0.1-0.4-0.4-0.7
		c-0.3-0.2-0.4-0.3-0.8-0.3h-0.9c-0.4,0-0.5,0.1-0.8,0.3c-0.3,0.3-0.4,0.4-0.4,0.7V61.9z"/>
</g>
<g>
	<g>
		<path fill="#FFFFFF" d="M142.4,59.9v0.3c0,0.2-0.1,0.4-0.4,0.4c-0.3,0-0.4-0.1-0.4-0.4v-1h3.5v1c0,0.2-0.1,0.4-0.4,0.4
			s-0.4-0.1-0.4-0.4v-0.3h-0.7v4.5c0,0.2-0.1,0.4-0.4,0.4s-0.4-0.1-0.4-0.4v-4.5H142.4z"/>
		<path fill="#FFFFFF" d="M148.1,61.9l-1.3-2.2c0-0.1-0.1-0.2-0.1-0.3c0-0.2,0.2-0.3,0.3-0.3c0.2,0,0.3,0.2,0.4,0.3l1,1.7l1-1.7
			c0.1-0.2,0.2-0.3,0.4-0.3c0.2,0,0.3,0.1,0.3,0.3c0,0.1,0,0.2-0.1,0.3l-1.3,2.2l1.3,2.2c0.1,0.1,0.1,0.2,0.1,0.3
			c0,0.2-0.2,0.3-0.3,0.3c-0.2,0-0.3-0.2-0.4-0.3l-1-1.7l-1,1.7c-0.1,0.2-0.2,0.3-0.4,0.3c-0.2,0-0.3-0.1-0.3-0.3
			c0-0.1,0-0.2,0.1-0.3L148.1,61.9z"/>
	</g>
</g>
<g>
	<g>
		<path fill="#FFFFFF" d="M144.8,47c0.2,0,0.4,0.1,0.4,0.4s-0.2,0.4-0.4,0.4h-3.2v-5.2c0-0.2,0.1-0.4,0.4-0.4c0.3,0,0.4,0.1,0.4,0.4
			V47H144.8z"/>
	</g>
</g>
<g>
	<g>
		<path fill="#FFFFFF" d="M268,68.3c0,0.2-0.1,0.4-0.4,0.4s-0.4-0.1-0.4-0.4v-5.2h2.4c0.3,0,0.6,0,0.8,0.3c0.3,0.3,0.3,0.5,0.3,0.9
			v1c0,0.4,0,0.6-0.3,0.9c-0.3,0.3-0.6,0.3-1,0.3H268V68.3z M268,65.9h1.6c0.4,0,0.5-0.1,0.5-0.5v-1c0-0.4-0.1-0.5-0.5-0.5H268V65.9
			z"/>
		<path fill="#FFFFFF" d="M274.6,68.7c-0.2,0-0.4,0-0.4-0.3h0c0,0.3-0.2,0.3-0.4,0.3h-0.5c-0.2,0-0.3,0-0.4-0.3l-0.2-0.4
			c-0.1-0.2-0.1-0.2-0.1-0.4v-4.1c0-0.2,0.1-0.4,0.4-0.4s0.4,0.1,0.4,0.4v4.1l0.2,0.3h0.3l0.2-0.3v-2.2c0-0.2,0.1-0.4,0.4-0.4
			s0.4,0.2,0.4,0.4v2.2l0.2,0.3h0.3l0.2-0.3v-4.1c0-0.2,0.1-0.4,0.4-0.4s0.4,0.1,0.4,0.4v4.1c0,0.2,0,0.2-0.1,0.4l-0.2,0.4
			c-0.1,0.2-0.2,0.3-0.4,0.3H274.6z"/>
		<path fill="#FFFFFF" d="M278.2,68.3c0,0.2-0.1,0.4-0.4,0.4s-0.4-0.1-0.4-0.4v-5.2h2.4c0.6,0,1.1,0.4,1.1,1v0.5c0,0.7-0.6,1-1.1,1
			h-0.7l1.6,2.3c0.1,0.1,0.2,0.2,0.2,0.4c0,0.2-0.2,0.3-0.4,0.3c-0.1,0-0.2-0.1-0.3-0.2l-2-2.8h-0.2V68.3z M278.2,65h1.6
			c0.2,0,0.5,0,0.5-0.3v-0.5c0-0.3-0.3-0.3-0.5-0.3h-1.6V65z"/>
	</g>
</g>
<g>
	<g>
		<path fill="#FFFFFF" d="M39.1,123.3c0.2,0,0.3,0.1,0.3,0.3c0,0.2-0.1,0.3-0.3,0.3h-4.7v-2.1c0-0.3,0-0.5,0.3-0.7
			c0.3-0.3,0.5-0.3,0.8-0.3h0.9c0.3,0,0.6,0,0.8,0.3c0.3,0.2,0.3,0.5,0.3,0.9v1.4H39.1z M36.9,123.3v-1.4c0-0.4-0.1-0.5-0.5-0.5
			h-0.9c-0.4,0-0.5,0.1-0.5,0.5v1.4H36.9z"/>
		<path fill="#FFFFFF" d="M39.4,117.3c0,0.2,0,0.3-0.3,0.4v0c0.2,0,0.3,0.2,0.3,0.4v0.5c0,0.2,0,0.3-0.2,0.4l-0.4,0.2
			c-0.1,0.1-0.2,0.1-0.3,0.1h-3.7c-0.2,0-0.3-0.1-0.3-0.3c0-0.2,0.1-0.3,0.3-0.3h3.7l0.3-0.2v-0.3l-0.3-0.2h-2
			c-0.2,0-0.4-0.1-0.4-0.3s0.2-0.3,0.4-0.3h2l0.3-0.2V117l-0.3-0.2h-3.7c-0.2,0-0.3-0.1-0.3-0.3s0.1-0.3,0.3-0.3h3.7
			c0.2,0,0.2,0,0.3,0.1l0.4,0.2c0.2,0.1,0.2,0.2,0.2,0.4V117.3z"/>
		<path fill="#FFFFFF" d="M39.1,114.1c0.2,0,0.3,0.1,0.3,0.3c0,0.2-0.1,0.3-0.3,0.3h-4.7v-2.1c0-0.5,0.4-1,0.9-1h0.4
			c0.6,0,0.9,0.5,0.9,1v0.6l2.1-1.4c0.1-0.1,0.2-0.2,0.3-0.2c0.2,0,0.3,0.1,0.3,0.3c0,0.1-0.1,0.2-0.2,0.3l-2.5,1.8v0.1H39.1z
			 M36.1,114.1v-1.4c0-0.2,0-0.5-0.3-0.5h-0.4c-0.3,0-0.3,0.3-0.3,0.5v1.4H36.1z"/>
		<path fill="#FFFFFF" d="M38.2,102.6c0.2-0.1,0.3-0.2,0.5-0.2c0.5,0,0.7,0.4,0.7,0.8v1.4c0,0.2,0,0.5-0.2,0.6
			c-0.1,0.2-0.4,0.3-0.6,0.3c-0.2,0-0.4-0.1-0.4-0.3c0-0.2,0.2-0.3,0.3-0.3c0.2,0,0.2-0.1,0.2-0.3v-1.4c0-0.1,0-0.2-0.1-0.2
			c-0.1,0-0.1,0.1-0.2,0.1l-2.8,2.2c-0.2,0.1-0.3,0.2-0.5,0.2c-0.3,0-0.5-0.1-0.6-0.3c-0.1-0.2-0.1-0.3-0.1-0.5v-1.4
			c0-0.2,0.1-0.4,0.2-0.6c0.1-0.2,0.4-0.3,0.6-0.3c0.2,0,0.4,0.1,0.4,0.3c0,0.2-0.1,0.3-0.3,0.3c-0.2,0-0.2,0.1-0.2,0.3v1.4
			c0,0.1,0,0.2,0.1,0.2c0.1,0,0.1-0.1,0.2-0.1L38.2,102.6z"/>
		<path fill="#FFFFFF" d="M38.8,98.1c0-0.2,0.1-0.3,0.3-0.3c0.2,0,0.3,0.2,0.3,0.3v2.8h-5v-2.8c0-0.2,0.1-0.3,0.3-0.3
			s0.3,0.2,0.3,0.3v2.2h1.5v-0.9c0-0.2,0.1-0.3,0.3-0.3c0.2,0,0.3,0.2,0.3,0.3v0.9h1.5V98.1z"/>
		<path fill="#FFFFFF" d="M38.8,93.5c0-0.2,0.1-0.3,0.3-0.3c0.2,0,0.3,0.2,0.3,0.3v2.8h-4.7c-0.2,0-0.3-0.1-0.3-0.3
			c0-0.2,0.1-0.3,0.3-0.3h4V93.5z"/>
	</g>
</g>
<g>
	<g>
		<path fill="#FFFFFF" d="M142.4,72.5c0,0.2-0.1,0.4-0.4,0.4c-0.3,0-0.4-0.1-0.4-0.4v-5.2h2.4c0.6,0,1.1,0.4,1.1,1v0.5
			c0,0.7-0.6,1-1.1,1h-0.7l1.6,2.3c0.1,0.1,0.2,0.2,0.2,0.4c0,0.2-0.2,0.3-0.4,0.3c-0.1,0-0.2-0.1-0.3-0.2l-2-2.8h-0.2V72.5z
			 M142.4,69.1h1.6c0.2,0,0.5,0,0.5-0.3v-0.5c0-0.3-0.3-0.3-0.5-0.3h-1.6V69.1z"/>
		<path fill="#FFFFFF" d="M148.1,70.1l-1.3-2.2c0-0.1-0.1-0.2-0.1-0.3c0-0.2,0.2-0.3,0.3-0.3c0.2,0,0.3,0.2,0.4,0.3l1,1.7l1-1.7
			c0.1-0.2,0.2-0.3,0.4-0.3c0.2,0,0.3,0.1,0.3,0.3c0,0.1,0,0.2-0.1,0.3l-1.3,2.2l1.3,2.2c0.1,0.1,0.1,0.2,0.1,0.3
			c0,0.2-0.2,0.3-0.3,0.3c-0.2,0-0.3-0.2-0.4-0.3l-1-1.7l-1,1.7c-0.1,0.2-0.2,0.3-0.4,0.3c-0.2,0-0.3-0.1-0.3-0.3
			c0-0.1,0-0.2,0.1-0.3L148.1,70.1z"/>
	</g>
</g>
<g>
	<g>
		<path fill="#FFFFFF" d="M178.6,180.2c0,0.2-0.1,0.4-0.4,0.4c-0.3,0-0.4-0.1-0.4-0.4V175h2.4c0.3,0,0.6,0,0.8,0.3
			c0.3,0.3,0.3,0.5,0.3,0.9v1c0,0.4,0,0.6-0.3,0.9c-0.3,0.3-0.6,0.3-1,0.3h-1.6V180.2z M178.6,177.7h1.6c0.4,0,0.5-0.1,0.5-0.5v-1
			c0-0.4-0.1-0.5-0.5-0.5h-1.6V177.7z"/>
		<path fill="#FFFFFF" d="M186.4,177c0.1,0.3,0.2,0.5,0.2,0.8c0,0.3-0.1,0.6-0.2,0.8l-0.7,1.3c-0.2,0.3-0.5,0.6-0.9,0.6
			s-0.7-0.2-0.9-0.6l-0.7-1.3c-0.1-0.3-0.2-0.5-0.2-0.8c0-0.3,0-0.5,0.2-0.8l0.7-1.4c0.2-0.3,0.5-0.6,0.9-0.6s0.7,0.2,0.9,0.6
			L186.4,177z M185,175.9c-0.1-0.1-0.1-0.2-0.2-0.2c-0.1,0-0.2,0.1-0.2,0.2l-0.6,1.3c-0.1,0.2-0.2,0.3-0.2,0.6c0,0.2,0,0.3,0.1,0.5
			l0.7,1.3c0.1,0.1,0.1,0.2,0.2,0.2s0.2-0.1,0.2-0.2l0.7-1.3c0.1-0.2,0.1-0.3,0.1-0.5c0-0.2-0.1-0.4-0.2-0.6L185,175.9z"/>
		<path fill="#FFFFFF" d="M190.4,180.5c-0.2,0-0.4,0-0.4-0.3h0c0,0.3-0.2,0.3-0.4,0.3h-0.5c-0.2,0-0.3,0-0.4-0.3l-0.2-0.4
			c-0.1-0.2-0.1-0.2-0.1-0.4v-4.1c0-0.2,0.1-0.4,0.4-0.4s0.4,0.1,0.4,0.4v4.1l0.2,0.3h0.3l0.2-0.3v-2.2c0-0.2,0.1-0.4,0.4-0.4
			s0.4,0.2,0.4,0.4v2.2l0.2,0.3h0.3l0.2-0.3v-4.1c0-0.2,0.1-0.4,0.4-0.4s0.4,0.1,0.4,0.4v4.1c0,0.2,0,0.2-0.1,0.4l-0.2,0.4
			c-0.1,0.2-0.2,0.3-0.4,0.3H190.4z"/>
		<path fill="#FFFFFF" d="M196.4,179.8c0.2,0,0.4,0.1,0.4,0.4s-0.2,0.4-0.4,0.4h-3.2V175h3.2c0.2,0,0.4,0.1,0.4,0.4
			s-0.2,0.4-0.4,0.4H194v1.7h1c0.2,0,0.4,0.1,0.4,0.4s-0.2,0.4-0.4,0.4h-1v1.7H196.4z"/>
		<path fill="#FFFFFF" d="M199.1,180.2c0,0.2-0.1,0.4-0.4,0.4s-0.4-0.1-0.4-0.4V175h2.4c0.6,0,1.1,0.4,1.1,1v0.5c0,0.7-0.6,1-1.1,1
			h-0.7l1.6,2.3c0.1,0.1,0.2,0.2,0.2,0.4c0,0.2-0.2,0.3-0.4,0.3c-0.1,0-0.2-0.1-0.3-0.2l-2-2.8h-0.2V180.2z M199.1,176.8h1.6
			c0.2,0,0.5,0,0.5-0.3V176c0-0.3-0.3-0.3-0.5-0.3h-1.6V176.8z"/>
	</g>
</g>
<g>
	<g>
		<path fill="#FFFFFF" d="M58.1,104.5c-0.4,0-0.6-0.1-0.9-0.4c-0.2-0.3-0.3-0.5-0.3-0.8v-4c0-0.2,0.1-0.4,0.4-0.4
			c0.3,0,0.4,0.1,0.4,0.4v4c0,0.4,0.1,0.5,0.4,0.5h1.2c0.3,0,0.4-0.1,0.4-0.5v-4c0-0.2,0.1-0.4,0.4-0.4s0.4,0.1,0.4,0.4v4
			c0,0.3,0,0.6-0.3,0.8c-0.2,0.3-0.5,0.4-0.9,0.4H58.1z"/>
		<path fill="#FFFFFF" d="M65.3,103.1c0.1,0.2,0.2,0.3,0.2,0.6c0,0.5-0.4,0.8-0.9,0.8h-1.6c-0.3,0-0.5,0-0.7-0.2
			c-0.2-0.2-0.3-0.4-0.3-0.7c0-0.2,0.1-0.4,0.4-0.4c0.2,0,0.3,0.2,0.3,0.4c0,0.2,0.1,0.2,0.3,0.2h1.5c0.1,0,0.2,0,0.2-0.1
			c0-0.1-0.1-0.2-0.1-0.2l-2.4-3.1c-0.1-0.2-0.2-0.3-0.2-0.6c0-0.3,0.1-0.5,0.4-0.7C62.6,99,62.8,99,63,99h1.5
			c0.3,0,0.5,0.1,0.7,0.2c0.2,0.2,0.3,0.4,0.3,0.7c0,0.2-0.1,0.4-0.4,0.4c-0.2,0-0.3-0.1-0.3-0.3c0-0.2-0.1-0.3-0.3-0.3H63
			c-0.1,0-0.2,0-0.2,0.1c0,0.1,0.1,0.1,0.1,0.2L65.3,103.1z"/>
		<path fill="#FFFFFF" d="M67.2,99h2c1,0,1.5,0.6,1.5,1.6c0,0.4-0.1,0.8-0.5,1.1c0.4,0.4,0.5,0.8,0.5,1.3c0,0.9-0.6,1.5-1.5,1.5h-2
			V99z M67.9,101.4h1.3c0.5,0,0.8-0.2,0.8-0.8c0-0.6-0.2-0.9-0.8-0.9h-1.3V101.4z M67.9,103.8h1.3c0.5,0,0.8-0.2,0.8-0.8
			c0-0.6-0.2-0.9-0.8-0.9h-1.3V103.8z"/>
	</g>
</g>
<g>
	<g>
		<path fill="#FFFFFF" d="M60.1,117.1c0.2,0,0.4,0.1,0.4,0.4s-0.2,0.4-0.4,0.4h-3.2v-5.5h3.2c0.2,0,0.4,0.1,0.4,0.4
			s-0.2,0.4-0.4,0.4h-2.4v1.7h1c0.2,0,0.4,0.1,0.4,0.4s-0.2,0.4-0.4,0.4h-1v1.7H60.1z"/>
		<path fill="#FFFFFF" d="M63.4,115l-1.3-2.2c0-0.1-0.1-0.2-0.1-0.3c0-0.2,0.2-0.3,0.3-0.3c0.2,0,0.3,0.2,0.4,0.3l1,1.7l1-1.7
			c0.1-0.2,0.2-0.3,0.4-0.3c0.2,0,0.3,0.1,0.3,0.3c0,0.1,0,0.2-0.1,0.3l-1.3,2.2l1.3,2.2c0,0.1,0.1,0.2,0.1,0.3
			c0,0.2-0.2,0.3-0.3,0.3c-0.2,0-0.3-0.2-0.4-0.3l-1-1.7l-1,1.7c-0.1,0.2-0.2,0.3-0.4,0.3c-0.2,0-0.3-0.1-0.3-0.3
			c0-0.1,0-0.2,0.1-0.3L63.4,115z"/>
		<path fill="#FFFFFF" d="M67.9,113v0.3c0,0.2-0.1,0.4-0.4,0.4c-0.3,0-0.4-0.1-0.4-0.4v-1h3.5v1c0,0.2-0.1,0.4-0.4,0.4
			s-0.4-0.1-0.4-0.4V113h-0.7v4.5c0,0.2-0.1,0.4-0.4,0.4s-0.4-0.1-0.4-0.4V113H67.9z"/>
	</g>
</g>
<g>
	<g>
		<path fill="#FFFFFF" d="M230,174.9c0.1-0.2,0.1-0.4,0.4-0.4c0.2,0,0.3,0.2,0.4,0.4l1.4,4.8c0.1,0.2-0.1,0.4-0.3,0.4
			c-0.2,0-0.3-0.2-0.4-0.4l-0.3-0.9h-1.5l-0.3,0.9c-0.1,0.2-0.2,0.4-0.4,0.4c-0.2,0-0.4-0.2-0.3-0.4L230,174.9z M230.3,176.2
			L230.3,176.2l-0.6,1.9h1.1L230.3,176.2z"/>
		<path fill="#FFFFFF" d="M236.5,174.9c0-0.2,0.1-0.4,0.4-0.4s0.4,0.1,0.4,0.4v5.2h-0.9l-1.9-4.3h0v3.9c0,0.2-0.1,0.4-0.4,0.4
			s-0.4-0.1-0.4-0.4v-5.2h0.9l1.9,4.3h0V174.9z"/>
		<path fill="#FFFFFF" d="M240.2,174.9c0.1-0.2,0.1-0.4,0.4-0.4c0.2,0,0.3,0.2,0.4,0.4l1.4,4.8c0,0.2-0.1,0.4-0.3,0.4
			c-0.2,0-0.3-0.2-0.4-0.4l-0.3-0.9h-1.5l-0.3,0.9c0,0.2-0.2,0.4-0.4,0.4c-0.2,0-0.4-0.2-0.3-0.4L240.2,174.9z M240.6,176.2
			L240.6,176.2l-0.6,1.9h1.1L240.6,176.2z"/>
		<path fill="#FFFFFF" d="M247.1,179.3c0.2,0,0.4,0.1,0.4,0.4s-0.2,0.4-0.4,0.4h-3.2v-5.2c0-0.2,0.1-0.4,0.4-0.4
			c0.3,0,0.4,0.1,0.4,0.4v4.5H247.1z"/>
		<path fill="#FFFFFF" d="M252.3,176.5c0.1,0.3,0.2,0.5,0.2,0.8c0,0.3-0.1,0.6-0.2,0.8l-0.7,1.3c-0.2,0.3-0.5,0.6-0.9,0.6
			s-0.7-0.2-0.9-0.6l-0.7-1.3c-0.1-0.3-0.2-0.5-0.2-0.8c0-0.3,0-0.5,0.2-0.8l0.7-1.4c0.2-0.3,0.5-0.6,0.9-0.6s0.7,0.2,0.9,0.6
			L252.3,176.5z M251,175.5c-0.1-0.1-0.1-0.2-0.2-0.2c-0.1,0-0.2,0.1-0.2,0.2l-0.6,1.3c-0.1,0.2-0.2,0.3-0.2,0.6
			c0,0.2,0,0.3,0.1,0.5l0.7,1.3c0.1,0.1,0.1,0.2,0.2,0.2s0.2-0.1,0.2-0.2l0.7-1.3c0.1-0.2,0.1-0.3,0.1-0.5c0-0.2-0.1-0.4-0.2-0.6
			L251,175.5z"/>
		<path fill="#FFFFFF" d="M256.2,178.3c-0.2,0-0.4-0.1-0.4-0.4c0-0.3,0.2-0.4,0.4-0.4h1.4v1.4c0,0.7-0.5,1.1-1.1,1.1h-1.2
			c-0.3,0-0.6-0.1-0.8-0.3c-0.3-0.3-0.3-0.5-0.3-0.9v-1.8c0-0.5,0.1-0.7,0.4-1l0.8-1.1c0.3-0.4,0.5-0.5,1-0.5h1
			c0.2,0,0.4,0.1,0.4,0.4s-0.2,0.4-0.4,0.4h-0.9c-0.4,0-0.4,0-0.6,0.3l-0.8,1c-0.2,0.3-0.2,0.6-0.2,0.9v1.4c0,0.4,0.1,0.5,0.5,0.5
			h1.1c0.3,0,0.5-0.1,0.5-0.4v-0.7H256.2z"/>
		<path fill="#FFFFFF" d="M266.5,179.3h1c0.2,0,0.4,0.1,0.4,0.4s-0.2,0.4-0.4,0.4h-2.8c-0.2,0-0.4-0.1-0.4-0.4s0.2-0.4,0.4-0.4h1
			v-4.1h-1c-0.2,0-0.4-0.1-0.4-0.4s0.2-0.4,0.4-0.4h2.8c0.2,0,0.4,0.1,0.4,0.4s-0.2,0.4-0.4,0.4h-1V179.3z"/>
		<path fill="#FFFFFF" d="M272.3,174.9c0-0.2,0.1-0.4,0.4-0.4s0.4,0.1,0.4,0.4v5.2H272l-1.9-4.3h0v3.9c0,0.2-0.1,0.4-0.4,0.4
			s-0.4-0.1-0.4-0.4v-5.2h0.9l1.9,4.3h0V174.9z"/>
	</g>
</g>
<g>
	<g>
		<path fill="#FFFFFF" d="M172.9,186.3h1.3c0.2,0,0.4,0,0.6,0.2c0.2,0.2,0.2,0.4,0.2,0.6v1.5c0,0.2,0,0.4-0.2,0.6
			c-0.2,0.2-0.4,0.2-0.6,0.2h-1.6c-0.2,0-0.3,0-0.5-0.1l-0.3-0.1c-0.2-0.1-0.4-0.1-0.4-0.4c0-0.2,0.2-0.4,0.3-0.4
			c0.1,0,0.1,0,0.2,0.1l0.2,0.1c0.1,0,0.3,0.1,0.4,0.1h1.6V187h-2.1v-3.1h2.5c0.2,0,0.4,0.1,0.4,0.4s-0.2,0.4-0.4,0.4h-1.7V186.3z"
			/>
		<path fill="#FFFFFF" d="M179.4,185.4v-1.1c0-0.2,0.1-0.4,0.4-0.4s0.4,0.1,0.4,0.4v1.1c0,0.1,0,0.2,0,0.3l-1.4,3.5
			c-0.1,0.2-0.1,0.3-0.4,0.3s-0.3-0.1-0.4-0.3l-1.4-3.5c0-0.1,0-0.2,0-0.3v-1.1c0-0.2,0.1-0.4,0.4-0.4c0.3,0,0.4,0.1,0.4,0.4v1.1
			l1,2.7L179.4,185.4z"/>
	</g>
</g>
<g>
	<g>
		<path fill="#FFFFFF" d="M186.6,187.6c-0.2,0-0.4-0.1-0.4-0.4c0-0.3,0.2-0.4,0.4-0.4h1.4v1.4c0,0.7-0.5,1.1-1.1,1.1h-1.2
			c-0.3,0-0.6-0.1-0.8-0.3c-0.3-0.3-0.3-0.5-0.3-0.9v-1.8c0-0.5,0.1-0.7,0.4-1l0.8-1.1c0.3-0.4,0.5-0.5,1-0.5h1
			c0.2,0,0.4,0.1,0.4,0.4s-0.2,0.4-0.4,0.4h-0.9c-0.4,0-0.4,0-0.6,0.3l-0.8,1c-0.2,0.3-0.2,0.6-0.2,0.9v1.4c0,0.4,0.1,0.5,0.5,0.5
			h1.1c0.3,0,0.5-0.1,0.5-0.4v-0.7H186.6z"/>
		<path fill="#FFFFFF" d="M190.4,187v2c0,0.2,0,0.5-0.3,0.5s-0.3-0.2-0.3-0.5v-2.9c0-0.2,0-0.5,0.3-0.5c0.3,0,0.3,0.3,0.3,0.5v0.1v0
			l0.6-0.4c0.2-0.1,0.4-0.2,0.6-0.2h0.5c0.3,0,0.4,0.1,0.6,0.2c0.3,0.3,0.3,0.6,0.3,0.9l0.1,2.1c0,0.2,0,0.5-0.3,0.5
			c-0.3,0-0.3-0.2-0.3-0.5l-0.1-2.1c0-0.4,0-0.6-0.5-0.6h-0.2c-0.1,0-0.1,0-0.2,0.1L190.4,187z"/>
		<path fill="#FFFFFF" d="M196.7,185.6c0.2,0,0.4,0.1,0.7,0.4l0.1,0.1v-1.4c0-0.2,0.1-0.5,0.3-0.5s0.3,0.2,0.3,0.5v4.3
			c0,0.2,0,0.5-0.3,0.5c-0.3,0-0.3-0.2-0.3-0.5v0l-0.1,0.1c-0.2,0.2-0.4,0.3-0.7,0.3H196c-0.2,0-0.5-0.2-0.6-0.2l-0.2-0.2
			c-0.3-0.2-0.4-0.4-0.4-0.8v-1.4c0-0.4,0.1-0.5,0.4-0.8l0.2-0.2c0.2-0.2,0.4-0.2,0.7-0.2H196.7z M195.5,188c0,0.2,0,0.4,0.1,0.5
			l0.2,0.2c0.1,0.1,0.2,0.1,0.3,0.1h0.5c0.1,0,0.2-0.1,0.3-0.2l0.4-0.3c0.1-0.1,0.2-0.2,0.2-0.3v-0.9c0-0.1-0.1-0.2-0.2-0.3
			l-0.4-0.3c-0.1-0.1-0.2-0.2-0.3-0.2h-0.5c-0.1,0-0.2,0.1-0.3,0.1l-0.2,0.2c-0.1,0.1-0.1,0.3-0.1,0.5V188z"/>
	</g>
</g>
<g>
	<g>
		<path fill="#FFFFFF" d="M205.5,186.5h-2.4c-0.2,0-0.4-0.2-0.4-0.4v-1.8c0-0.2,0.2-0.4,0.4-0.4h2.8c0.2,0,0.4,0.2,0.4,0.4v4.8
			c0,0.2-0.1,0.4-0.4,0.4h-0.4c-0.2,0-0.4-0.2-0.4-0.4c0-0.2,0.1-0.4,0.4-0.4V186.5z M205.5,185.7v-1.1h-2.1v1.1H205.5z"/>
		<path fill="#FFFFFF" d="M210.6,185.4v-1.1c0-0.2,0.1-0.4,0.4-0.4s0.4,0.1,0.4,0.4v1.1c0,0.1,0,0.2,0,0.3l-1.4,3.5
			c-0.1,0.2-0.1,0.3-0.4,0.3s-0.3-0.1-0.4-0.3l-1.4-3.5c0-0.1,0-0.2,0-0.3v-1.1c0-0.2,0.1-0.4,0.4-0.4c0.3,0,0.4,0.1,0.4,0.4v1.1
			l1,2.7L210.6,185.4z"/>
	</g>
</g>
<g>
	<g>
		<path fill="#FFFFFF" d="M227.6,183.9c0.4,0,0.7,0.3,0.7,0.7v4.1c0,0.4-0.3,0.7-0.7,0.7h-2.1c-0.4,0-0.7-0.3-0.7-0.7v-4.1
			c0-0.4,0.3-0.7,0.7-0.7H227.6z M227.6,188.7v-4.1h-2.1v4.1H227.6z"/>
	</g>
</g>
<g>
	<g>
		<path fill="#FFFFFF" d="M237.6,188.7v-1.4c0-0.2,0.1-0.4,0.4-0.4c0.3,0,0.4,0.1,0.4,0.4v1.8c0,0.3-0.2,0.4-0.4,0.4h-2.8
			c-0.2,0-0.4-0.1-0.4-0.4s0.2-0.4,0.4-0.4h1v-4.1h-1c-0.2,0-0.4-0.1-0.4-0.4s0.2-0.4,0.4-0.4h1.8v4.8H237.6z"/>
	</g>
</g>
<g>
	<g>
		<path fill="#FFFFFF" d="M245.5,188.7h2.4c0.2,0,0.4,0.1,0.4,0.4s-0.2,0.4-0.4,0.4h-3.2v-2.3c0-0.5,0.3-0.8,0.8-0.8h2v-1.7h-2.4
			c-0.2,0-0.4-0.1-0.4-0.4s0.2-0.4,0.4-0.4h2.4c0.2,0,0.4,0,0.6,0.2c0.2,0.2,0.2,0.4,0.2,0.6v1.5c0,0.3,0,0.4-0.2,0.6
			c-0.2,0.2-0.3,0.2-0.6,0.2h-2V188.7z"/>
	</g>
</g>
<g>
	<g>
		<path fill="#FFFFFF" d="M255.2,184.6c-0.2,0-0.4-0.1-0.4-0.4s0.2-0.4,0.4-0.4h2.4c0.4,0,0.7,0.3,0.7,0.7v1.4
			c0,0.3-0.1,0.5-0.3,0.7c0.2,0.2,0.3,0.4,0.3,0.7v1.4c0,0.4-0.3,0.7-0.7,0.7h-2.4c-0.2,0-0.4-0.1-0.4-0.4s0.2-0.4,0.4-0.4h2.4v-1.2
			c0-0.4-0.2-0.5-0.4-0.5h-1.4c-0.2,0-0.4-0.1-0.4-0.4s0.2-0.4,0.4-0.4h1.4c0.2,0,0.4-0.1,0.4-0.5v-1.2H255.2z"/>
	</g>
</g>
<g>
	<g>
		<path fill="#FFFFFF" d="M267.2,186.9v-2.1c0-0.2,0.1-0.4,0.4-0.4s0.4,0.2,0.4,0.4v2.1c0.2,0,0.4,0.1,0.4,0.4
			c0,0.3-0.2,0.4-0.4,0.4v1.4c0,0.2-0.1,0.4-0.4,0.4s-0.4-0.1-0.4-0.4v-1.4h-2.1v-3.4c0-0.2,0.1-0.4,0.4-0.4c0.3,0,0.4,0.2,0.4,0.4
			v2.7H267.2z"/>
	</g>
</g>
<g>
	<g>
		<path fill="#FFFFFF" d="M276.2,186.3h1.3c0.2,0,0.4,0,0.6,0.2c0.2,0.2,0.2,0.4,0.2,0.6v1.5c0,0.2,0,0.4-0.2,0.6
			c-0.2,0.2-0.4,0.2-0.6,0.2h-1.6c-0.2,0-0.3,0-0.5-0.1l-0.3-0.1c-0.2-0.1-0.4-0.1-0.4-0.4c0-0.2,0.2-0.4,0.3-0.4
			c0.1,0,0.1,0,0.2,0.1l0.2,0.1c0.1,0,0.3,0.1,0.4,0.1h1.6V187h-2.1v-3.1h2.5c0.2,0,0.4,0.1,0.4,0.4s-0.2,0.4-0.4,0.4h-1.7V186.3z"
			/>
	</g>
</g>
<g>
	<g>
		<path fill="#FFFFFF" d="M275,120.2h1c0.2,0,0.4,0.1,0.4,0.4s-0.2,0.4-0.4,0.4h-2.8c-0.2,0-0.4-0.1-0.4-0.4s0.2-0.4,0.4-0.4h1v-4.1
			h-1c-0.2,0-0.4-0.1-0.4-0.4s0.2-0.4,0.4-0.4h2.8c0.2,0,0.4,0.1,0.4,0.4s-0.2,0.4-0.4,0.4h-1V120.2z"/>
		<path fill="#FFFFFF" d="M279.9,120.9c-0.5,0-0.8-0.2-1.1-0.7l-0.7-1.3c-0.1-0.2-0.2-0.5-0.2-0.7c0-0.3,0.1-0.5,0.2-0.8l0.7-1.3
			c0.2-0.5,0.5-0.7,1.1-0.7h1.2c0.2,0,0.4,0.1,0.4,0.4c0,0.3-0.2,0.4-0.4,0.4h-1.2c-0.3,0-0.4,0-0.5,0.3l-0.6,1.2
			c-0.1,0.2-0.1,0.3-0.1,0.5c0,0.2,0.1,0.3,0.1,0.5l0.6,1.2c0.1,0.3,0.2,0.3,0.5,0.3h1.2c0.2,0,0.4,0.1,0.4,0.4
			c0,0.3-0.2,0.4-0.4,0.4H279.9z"/>
		<path fill="#FFFFFF" d="M286.3,119.5c0.1,0.2,0.2,0.3,0.2,0.6c0,0.5-0.4,0.8-0.9,0.8h-1.6c-0.3,0-0.5,0-0.7-0.2
			c-0.2-0.2-0.3-0.4-0.3-0.7c0-0.2,0.1-0.4,0.4-0.4c0.2,0,0.3,0.2,0.3,0.4c0,0.2,0.1,0.2,0.3,0.2h1.5c0.1,0,0.2,0,0.2-0.1
			c0-0.1-0.1-0.2-0.1-0.2l-2.4-3.1c-0.1-0.2-0.2-0.3-0.2-0.6c0-0.3,0.1-0.5,0.4-0.7c0.2-0.1,0.4-0.1,0.6-0.1h1.5
			c0.3,0,0.5,0.1,0.7,0.2c0.2,0.2,0.3,0.4,0.3,0.7c0,0.2-0.1,0.4-0.4,0.4c-0.2,0-0.3-0.1-0.3-0.3c0-0.2-0.1-0.3-0.3-0.3H284
			c-0.1,0-0.2,0-0.2,0.1c0,0.1,0.1,0.1,0.1,0.2L286.3,119.5z"/>
		<path fill="#FFFFFF" d="M288.9,120.6c0,0.2-0.1,0.4-0.4,0.4s-0.4-0.1-0.4-0.4v-5.2h2.4c0.3,0,0.6,0,0.8,0.3
			c0.3,0.3,0.3,0.5,0.3,0.9v1c0,0.4,0,0.6-0.3,0.9c-0.3,0.3-0.6,0.3-1,0.3h-1.6V120.6z M288.9,118.1h1.6c0.4,0,0.5-0.1,0.5-0.5v-1
			c0-0.4-0.1-0.5-0.5-0.5h-1.6V118.1z"/>
	</g>
</g>
<g>
	<g>
		<path fill="#FFFFFF" d="M278.3,78.8h-1.4c-0.2,0-0.4-0.1-0.4-0.4s0.1-0.4,0.4-0.4h1.8c0.3,0,0.4,0.2,0.4,0.4v2.8
			c0,0.2-0.1,0.4-0.4,0.4s-0.4-0.2-0.4-0.4v-1h-4.1v1c0,0.2-0.1,0.4-0.4,0.4s-0.4-0.2-0.4-0.4v-1.8h4.8V78.8z"/>
	</g>
</g>
<g>
	<g>
		<path fill="#FFFFFF" d="M114.4,32.2c-0.2-0.1-0.4-0.1-0.4-0.4c0-0.2,0.2-0.3,0.4-0.4l4.8-1.4c0.2,0,0.4,0.1,0.4,0.3
			c0,0.2-0.2,0.3-0.4,0.4l-0.9,0.3v1.5l0.9,0.3c0.2,0,0.4,0.2,0.4,0.4c0,0.2-0.2,0.4-0.4,0.3L114.4,32.2z M115.7,31.8L115.7,31.8
			l1.9,0.6v-1.1L115.7,31.8z"/>
		<path fill="#FFFFFF" d="M119.2,27.8c0.2,0,0.4,0.1,0.4,0.4s-0.1,0.4-0.4,0.4H114v-2.4c0-0.6,0.4-1.1,1-1.1h0.5c0.7,0,1,0.6,1,1.1
			v0.7l2.3-1.6c0.1-0.1,0.2-0.2,0.4-0.2c0.2,0,0.3,0.2,0.3,0.4c0,0.1-0.1,0.2-0.2,0.3l-2.8,2v0.2H119.2z M115.8,27.8v-1.6
			c0-0.2,0-0.5-0.3-0.5H115c-0.3,0-0.3,0.3-0.3,0.5v1.6H115.8z"/>
		<path fill="#FFFFFF" d="M118.8,20.2c0-0.2,0.1-0.4,0.4-0.4c0.3,0,0.4,0.2,0.4,0.4v3.2H114v-3.2c0-0.2,0.1-0.4,0.4-0.4
			s0.4,0.2,0.4,0.4v2.4h1.7v-1c0-0.2,0.1-0.4,0.4-0.4s0.4,0.2,0.4,0.4v1h1.7V20.2z"/>
		<path fill="#FFFFFF" d="M114,18.2v-3.2c0-0.2,0.1-0.4,0.4-0.4s0.4,0.2,0.4,0.4v2.4h1.1v-1.7c0-0.2,0.1-0.4,0.4-0.4
			c0.3,0,0.4,0.2,0.4,0.4v1.7h2.7c0.2,0,0.4,0.1,0.4,0.4s-0.1,0.4-0.4,0.4H114z"/>
	</g>
</g>
<g>
	<g>
		<path fill="#FFFFFF" d="M127.6,26.4c0,0.2-0.1,0.4-0.4,0.4s-0.4-0.2-0.4-0.4V25h1.4c0.7,0,1.1,0.5,1.1,1.1v1.2
			c0,0.3-0.1,0.6-0.3,0.8c-0.3,0.3-0.5,0.3-0.9,0.3h-1.8c-0.5,0-0.7-0.1-1-0.4l-1.1-0.8c-0.4-0.3-0.5-0.5-0.5-1v-1
			c0-0.2,0.1-0.4,0.4-0.4s0.4,0.2,0.4,0.4v0.9c0,0.4,0,0.4,0.3,0.6l1,0.8c0.3,0.2,0.6,0.2,0.9,0.2h1.4c0.4,0,0.5-0.1,0.5-0.5v-1.1
			c0-0.3-0.1-0.5-0.4-0.5h-0.7V26.4z"/>
		<path fill="#FFFFFF" d="M124.3,20.5c-0.2,0-0.4-0.1-0.4-0.4s0.1-0.4,0.4-0.4h5.2v0.9l-4.3,1.9v0h3.9c0.2,0,0.4,0.1,0.4,0.4
			s-0.1,0.4-0.4,0.4h-5.2v-0.9l4.3-1.9v0H124.3z"/>
		<path fill="#FFFFFF" d="M124.6,17.5v0.3c0,0.2-0.1,0.4-0.4,0.4c-0.3,0-0.4-0.2-0.4-0.4v-1.2c0-0.6,0.2-0.8,0.7-1.1l1.3-0.6
			c0.3-0.1,0.5-0.2,0.8-0.2c0.3,0,0.5,0.1,0.8,0.2l1.3,0.6c0.5,0.2,0.7,0.6,0.7,1.1v1.2c0,0.2-0.1,0.4-0.4,0.4
			c-0.3,0-0.4-0.2-0.4-0.4v-0.3H124.6z M128.7,16.8v-0.1c0-0.3,0-0.4-0.3-0.5l-1.3-0.6c-0.2-0.1-0.3-0.1-0.5-0.1
			c-0.2,0-0.4,0.1-0.6,0.2l-1.2,0.6c-0.3,0.1-0.3,0.2-0.3,0.5v0.1H128.7z"/>
	</g>
</g>
<g>
	<g>
		<path fill="#FFFFFF" d="M164.1,189.1c0,0.2-0.1,0.4-0.4,0.4s-0.4-0.2-0.4-0.4v-2.4c0-0.4,0.3-0.7,0.7-0.7h1.4
			c0.3,0,0.5,0.1,0.7,0.3c0.2-0.2,0.4-0.3,0.7-0.3h1.4c0.4,0,0.7,0.3,0.7,0.7v2.4c0,0.2-0.1,0.4-0.4,0.4s-0.4-0.2-0.4-0.4v-2.4H167
			c-0.4,0-0.5,0.2-0.5,0.4v1.4c0,0.2-0.1,0.4-0.4,0.4s-0.4-0.2-0.4-0.4V187c0-0.2-0.1-0.4-0.5-0.4h-1.2V189.1z"/>
		<path fill="#FFFFFF" d="M164.9,181.5h-1.1c-0.2,0-0.4-0.1-0.4-0.4s0.1-0.4,0.4-0.4h1.1c0.1,0,0.2,0,0.3,0l3.5,1.4
			c0.2,0.1,0.3,0.1,0.3,0.4c0,0.2-0.1,0.3-0.3,0.4l-3.5,1.4c-0.1,0-0.2,0-0.3,0h-1.1c-0.2,0-0.4-0.1-0.4-0.4s0.1-0.4,0.4-0.4h1.1
			l2.7-1L164.9,181.5z"/>
		<path fill="#FFFFFF" d="M164.1,178.9c0,0.2-0.1,0.4-0.4,0.4s-0.4-0.2-0.4-0.4v-2.4c0-0.4,0.3-0.7,0.7-0.7h1.4
			c0.3,0,0.5,0.1,0.7,0.3c0.2-0.2,0.4-0.3,0.7-0.3h1.4c0.4,0,0.7,0.3,0.7,0.7v2.4c0,0.2-0.1,0.4-0.4,0.4s-0.4-0.2-0.4-0.4v-2.4H167
			c-0.4,0-0.5,0.2-0.5,0.4v1.4c0,0.2-0.1,0.4-0.4,0.4s-0.4-0.2-0.4-0.4v-1.4c0-0.2-0.1-0.4-0.5-0.4h-1.2V178.9z"/>
	</g>
</g>
<g>
	<g>
		<path fill="#FFFFFF" d="M158.8,188.8c0.2,0,0.4,0.1,0.4,0.4s-0.1,0.4-0.4,0.4h-5.2v-2.4c0-0.6,0.4-1.1,1-1.1h0.5
			c0.7,0,1,0.6,1,1.1v0.7l2.3-1.6c0.1-0.1,0.2-0.2,0.4-0.2c0.2,0,0.3,0.2,0.3,0.4c0,0.1-0.1,0.2-0.2,0.3l-2.8,2v0.2H158.8z
			 M155.5,188.8v-1.6c0-0.2,0-0.5-0.3-0.5h-0.5c-0.3,0-0.3,0.3-0.3,0.5v1.6H155.5z"/>
		<path fill="#FFFFFF" d="M158.5,181.2c0-0.2,0.1-0.4,0.4-0.4s0.4,0.2,0.4,0.4v3.2h-5.5v-3.2c0-0.2,0.1-0.4,0.4-0.4s0.4,0.2,0.4,0.4
			v2.4h1.7v-1c0-0.2,0.1-0.4,0.4-0.4s0.4,0.2,0.4,0.4v1h1.7V181.2z"/>
		<path fill="#FFFFFF" d="M157.8,176c0.2-0.1,0.3-0.2,0.6-0.2c0.5,0,0.8,0.4,0.8,0.9v1.6c0,0.3,0,0.5-0.2,0.7
			c-0.2,0.2-0.4,0.3-0.7,0.3c-0.2,0-0.4-0.1-0.4-0.4c0-0.2,0.2-0.3,0.4-0.3c0.2,0,0.2-0.1,0.2-0.3v-1.5c0-0.1,0-0.2-0.1-0.2
			c-0.1,0-0.2,0.1-0.2,0.1L155,179c-0.2,0.1-0.3,0.2-0.6,0.2c-0.3,0-0.5-0.1-0.7-0.4c-0.1-0.2-0.1-0.4-0.1-0.6v-1.5
			c0-0.3,0.1-0.5,0.2-0.7c0.2-0.2,0.4-0.3,0.7-0.3c0.2,0,0.4,0.1,0.4,0.4c0,0.2-0.1,0.3-0.3,0.3c-0.2,0-0.3,0.1-0.3,0.3v1.5
			c0,0.1,0,0.2,0.1,0.2c0.1,0,0.1-0.1,0.2-0.1L157.8,176z"/>
		<path fill="#FFFFFF" d="M158.5,171c0-0.2,0.1-0.4,0.4-0.4s0.4,0.2,0.4,0.4v3.2h-5.5V171c0-0.2,0.1-0.4,0.4-0.4s0.4,0.2,0.4,0.4
			v2.4h1.7v-1c0-0.2,0.1-0.4,0.4-0.4s0.4,0.2,0.4,0.4v1h1.7V171z"/>
		<path fill="#FFFFFF" d="M154.4,168.3h0.3c0.2,0,0.4,0.1,0.4,0.4s-0.1,0.4-0.4,0.4h-1v-3.5h1c0.2,0,0.4,0.1,0.4,0.4
			s-0.1,0.4-0.4,0.4h-0.3v0.7h4.5c0.2,0,0.4,0.1,0.4,0.4s-0.1,0.4-0.4,0.4h-4.5V168.3z"/>
	</g>
</g>
<g>
	<g>
		<path fill="#FFFFFF" d="M135.2,17.1c-0.2,0-0.4-0.1-0.4-0.4s0.2-0.4,0.4-0.4h2.4c0.4,0,0.7,0.3,0.7,0.7v1.4c0,0.3-0.1,0.5-0.3,0.7
			c0.2,0.2,0.3,0.4,0.3,0.7v1.4c0,0.4-0.3,0.7-0.7,0.7h-2.4c-0.2,0-0.4-0.1-0.4-0.4s0.2-0.4,0.4-0.4h2.4V20c0-0.4-0.2-0.5-0.4-0.5
			h-1.4c-0.2,0-0.4-0.1-0.4-0.4s0.2-0.4,0.4-0.4h1.4c0.2,0,0.4-0.1,0.4-0.5v-1.2H135.2z"/>
		<path fill="#FFFFFF" d="M137.7,29.7v-1.4c0-0.2,0.1-0.4,0.4-0.4c0.3,0,0.4,0.1,0.4,0.4v1.8c0,0.3-0.2,0.4-0.4,0.4h-2.8
			c-0.2,0-0.4-0.1-0.4-0.4s0.2-0.4,0.4-0.4h1v-4.1h-1c-0.2,0-0.4-0.1-0.4-0.4s0.2-0.4,0.4-0.4h1.8v4.8H137.7z"/>
	</g>
</g>
<g>
	<g>
		<path fill="#FFFFFF" d="M145.6,21.2h2.4c0.2,0,0.4,0.1,0.4,0.4s-0.2,0.4-0.4,0.4h-3.2v-2.3c0-0.5,0.3-0.8,0.8-0.8h2v-1.7h-2.4
			c-0.2,0-0.4-0.1-0.4-0.4s0.2-0.4,0.4-0.4h2.4c0.2,0,0.4,0,0.6,0.2c0.2,0.2,0.2,0.4,0.2,0.6v1.5c0,0.3,0,0.4-0.2,0.6
			c-0.2,0.2-0.3,0.2-0.6,0.2h-2V21.2z"/>
		<path fill="#FFFFFF" d="M147.7,29.7v-1.4c0-0.2,0.1-0.4,0.4-0.4c0.3,0,0.4,0.1,0.4,0.4v1.8c0,0.3-0.2,0.4-0.4,0.4h-2.8
			c-0.2,0-0.4-0.1-0.4-0.4s0.2-0.4,0.4-0.4h1v-4.1h-1c-0.2,0-0.4-0.1-0.4-0.4s0.2-0.4,0.4-0.4h1.8v4.8H147.7z"/>
	</g>
</g>
<g>
	<g>
		<path fill="#FFFFFF" d="M157.6,21.2v-1.4c0-0.2,0.1-0.4,0.4-0.4s0.4,0.1,0.4,0.4v1.8c0,0.3-0.2,0.4-0.4,0.4h-2.8
			c-0.2,0-0.4-0.1-0.4-0.4s0.2-0.4,0.4-0.4h1v-4.1h-1c-0.2,0-0.4-0.1-0.4-0.4s0.2-0.4,0.4-0.4h1.8v4.8H157.6z"/>
		<path fill="#FFFFFF" d="M157.6,29.7v-1.4c0-0.2,0.1-0.4,0.4-0.4s0.4,0.1,0.4,0.4v1.8c0,0.3-0.2,0.4-0.4,0.4h-2.8
			c-0.2,0-0.4-0.1-0.4-0.4s0.2-0.4,0.4-0.4h1v-4.1h-1c-0.2,0-0.4-0.1-0.4-0.4s0.2-0.4,0.4-0.4h1.8v4.8H157.6z"/>
	</g>
</g>
<g>
	<g>
		<path fill="#FFFFFF" d="M167.6,16.4c0.4,0,0.7,0.3,0.7,0.7v4.1c0,0.4-0.3,0.7-0.7,0.7h-2.1c-0.4,0-0.7-0.3-0.7-0.7v-4.1
			c0-0.4,0.3-0.7,0.7-0.7H167.6z M167.6,21.2v-4.1h-2.1v4.1H167.6z"/>
		<path fill="#FFFFFF" d="M167.6,29.7v-1.4c0-0.2,0.1-0.4,0.4-0.4c0.3,0,0.4,0.1,0.4,0.4v1.8c0,0.3-0.2,0.4-0.4,0.4h-2.8
			c-0.2,0-0.4-0.1-0.4-0.4s0.2-0.4,0.4-0.4h1v-4.1h-1c-0.2,0-0.4-0.1-0.4-0.4s0.2-0.4,0.4-0.4h1.8v4.8H167.6z"/>
	</g>
</g>
<g>
	<g>
		<path fill="#FFFFFF" d="M177.6,18.9h-2.4c-0.2,0-0.4-0.2-0.4-0.4v-1.8c0-0.2,0.2-0.4,0.4-0.4h2.8c0.2,0,0.4,0.2,0.4,0.4v4.8
			c0,0.2-0.1,0.4-0.4,0.4h-0.4c-0.2,0-0.4-0.2-0.4-0.4c0-0.2,0.2-0.4,0.4-0.4V18.9z M177.6,18.2v-1.1h-2.1v1.1H177.6z"/>
	</g>
</g>
<g>
	<g>
		<path fill="#FFFFFF" d="M187.2,16.4c0.2,0,0.4,0.2,0.4,0.4v2.1c0.2,0,0.4,0.1,0.5,0.2c0.1,0.1,0.2,0.3,0.2,0.5v1.7
			c0,0.4-0.3,0.7-0.7,0.7h-2.1c-0.4,0-0.7-0.3-0.7-0.7v-1.7c0-0.2,0.1-0.4,0.2-0.5c0.1-0.1,0.3-0.2,0.5-0.2v-2.1
			c0-0.2,0.1-0.4,0.4-0.4H187.2z M187.6,21.2v-1.7h-2.1v1.7H187.6z M186.9,18.8v-1.7h-0.7v1.7H186.9z"/>
	</g>
</g>
<g>
	<g>
		<path fill="#FFFFFF" d="M205.5,17.1c0,0.2-0.1,0.4-0.4,0.4s-0.4-0.2-0.4-0.4v-0.4c0-0.2,0.1-0.4,0.4-0.4h3.2v2.1
			c0,0.2,0,0.3-0.2,0.4l-1,0.9c-0.2,0.2-0.2,0.2-0.2,0.4v1.4c0,0.2-0.1,0.4-0.4,0.4s-0.4-0.1-0.4-0.4v-1.7c0-0.2,0-0.3,0.2-0.4
			l1-0.8c0.2-0.2,0.2-0.2,0.2-0.5v-1H205.5z"/>
	</g>
</g>
<g>
	<g>
		<path fill="#FFFFFF" d="M215.5,19.4h2.4c0.4,0,0.4,0.1,0.4,0.5v1.6c0,0.3-0.1,0.4-0.5,0.4h-2.6c-0.3,0-0.5-0.1-0.5-0.4v-4.7
			c0-0.2,0.1-0.4,0.3-0.4h0.4c0.2,0,0.3,0.2,0.3,0.4c0,0.2-0.2,0.4-0.4,0.4V19.4z M215.5,20.1v1.1h2.1v-1.1H215.5z"/>
	</g>
</g>
<g>
	<g>
		<path fill="#FFFFFF" d="M226.2,18.8h1.3c0.2,0,0.4,0,0.6,0.2c0.2,0.2,0.2,0.4,0.2,0.6v1.5c0,0.2,0,0.4-0.2,0.6
			c-0.2,0.2-0.4,0.2-0.6,0.2h-1.6c-0.2,0-0.3,0-0.5-0.1l-0.3-0.1c-0.2-0.1-0.4-0.1-0.4-0.4c0-0.2,0.2-0.4,0.3-0.4
			c0.1,0,0.1,0,0.2,0.1l0.2,0.1c0.1,0,0.3,0.1,0.4,0.1h1.6v-1.7h-2.1v-3.1h2.5c0.2,0,0.4,0.1,0.4,0.4s-0.2,0.4-0.4,0.4h-1.7V18.8z"
			/>
	</g>
</g>
<g>
	<g>
		<path fill="#FFFFFF" d="M237.2,19.4v-2.1c0-0.2,0.1-0.4,0.4-0.4c0.3,0,0.4,0.2,0.4,0.4v2.1c0.2,0,0.4,0.1,0.4,0.4
			c0,0.3-0.2,0.4-0.4,0.4v1.4c0,0.2-0.1,0.4-0.4,0.4s-0.4-0.1-0.4-0.4v-1.4h-2.1v-3.4c0-0.2,0.1-0.4,0.4-0.4c0.3,0,0.4,0.2,0.4,0.4
			v2.7H237.2z"/>
	</g>
</g>
<g>
	<g>
		<path fill="#FFFFFF" d="M245.1,17.1c-0.2,0-0.4-0.1-0.4-0.4s0.2-0.4,0.4-0.4h2.4c0.4,0,0.7,0.3,0.7,0.7v1.4c0,0.3-0.1,0.5-0.3,0.7
			c0.2,0.2,0.3,0.4,0.3,0.7v1.4c0,0.4-0.3,0.7-0.7,0.7h-2.4c-0.2,0-0.4-0.1-0.4-0.4s0.2-0.4,0.4-0.4h2.4V20c0-0.4-0.2-0.5-0.4-0.5
			h-1.4c-0.2,0-0.4-0.1-0.4-0.4s0.2-0.4,0.4-0.4h1.4c0.2,0,0.4-0.1,0.4-0.5v-1.2H245.1z"/>
	</g>
</g>
<g>
	<g>
		<path fill="#FFFFFF" d="M255.4,21.2h2.4c0.2,0,0.4,0.1,0.4,0.4s-0.2,0.4-0.4,0.4h-3.2v-2.3c0-0.5,0.3-0.8,0.8-0.8h2v-1.7h-2.4
			c-0.2,0-0.4-0.1-0.4-0.4s0.2-0.4,0.4-0.4h2.4c0.2,0,0.4,0,0.6,0.2c0.2,0.2,0.2,0.4,0.2,0.6v1.5c0,0.3,0,0.4-0.2,0.6
			c-0.2,0.2-0.3,0.2-0.6,0.2h-2V21.2z"/>
	</g>
</g>
<g>
	<g>
		<path fill="#FFFFFF" d="M267.5,21.2v-1.4c0-0.2,0.1-0.4,0.4-0.4s0.4,0.1,0.4,0.4v1.8c0,0.3-0.2,0.4-0.4,0.4h-2.8
			c-0.2,0-0.4-0.1-0.4-0.4s0.2-0.4,0.4-0.4h1v-4.1h-1c-0.2,0-0.4-0.1-0.4-0.4s0.2-0.4,0.4-0.4h1.8v4.8H267.5z"/>
	</g>
</g>
<g>
	<g>
		<path fill="#FFFFFF" d="M180.8,25.7h-0.3c-0.2,0-0.4-0.1-0.4-0.4c0-0.3,0.2-0.4,0.4-0.4h1.2c0.6,0,0.8,0.2,1.1,0.7l0.6,1.2
			c0.1,0.3,0.2,0.5,0.2,0.8c0,0.3-0.1,0.5-0.2,0.8l-0.6,1.3c-0.2,0.5-0.6,0.7-1.1,0.7h-1.2c-0.2,0-0.4-0.1-0.4-0.4s0.2-0.4,0.4-0.4
			h0.3V25.7z M181.5,29.8h0.1c0.3,0,0.4,0,0.5-0.3l0.6-1.3c0.1-0.2,0.1-0.3,0.1-0.5c0-0.2-0.1-0.4-0.2-0.6l-0.6-1.2
			c-0.1-0.3-0.2-0.3-0.5-0.3h-0.1V29.8z"/>
		<path fill="#FFFFFF" d="M187.3,29.8h1c0.2,0,0.4,0.1,0.4,0.4s-0.2,0.4-0.4,0.4h-2.8c-0.2,0-0.4-0.1-0.4-0.4s0.2-0.4,0.4-0.4h1
			v-4.1h-1c-0.2,0-0.4-0.1-0.4-0.4s0.2-0.4,0.4-0.4h2.8c0.2,0,0.4,0.1,0.4,0.4s-0.2,0.4-0.4,0.4h-1V29.8z"/>
		<path fill="#FFFFFF" d="M192.4,28.7c-0.2,0-0.4-0.1-0.4-0.4c0-0.3,0.2-0.4,0.4-0.4h1.4v1.4c0,0.7-0.5,1.1-1.1,1.1h-1.2
			c-0.3,0-0.6-0.1-0.8-0.3c-0.3-0.3-0.3-0.5-0.3-0.9v-1.8c0-0.5,0.1-0.7,0.4-1l0.8-1.1c0.3-0.4,0.5-0.5,1-0.5h1
			c0.2,0,0.4,0.1,0.4,0.4s-0.2,0.4-0.4,0.4h-0.9c-0.4,0-0.4,0-0.6,0.3l-0.8,1c-0.2,0.3-0.2,0.6-0.2,0.9v1.4c0,0.4,0.1,0.5,0.5,0.5
			h1.1c0.3,0,0.5-0.1,0.5-0.4v-0.7H192.4z"/>
		<path fill="#FFFFFF" d="M197.5,29.8h1c0.2,0,0.4,0.1,0.4,0.4s-0.2,0.4-0.4,0.4h-2.8c-0.2,0-0.4-0.1-0.4-0.4s0.2-0.4,0.4-0.4h1
			v-4.1h-1c-0.2,0-0.4-0.1-0.4-0.4s0.2-0.4,0.4-0.4h2.8c0.2,0,0.4,0.1,0.4,0.4s-0.2,0.4-0.4,0.4h-1V29.8z"/>
		<path fill="#FFFFFF" d="M201.2,25.7V26c0,0.2-0.1,0.4-0.4,0.4s-0.4-0.1-0.4-0.4v-1h3.5v1c0,0.2-0.1,0.4-0.4,0.4s-0.4-0.1-0.4-0.4
			v-0.3h-0.7v4.5c0,0.2-0.1,0.4-0.4,0.4s-0.4-0.1-0.4-0.4v-4.5H201.2z"/>
		<path fill="#FFFFFF" d="M207,25.3c0.1-0.2,0.1-0.4,0.4-0.4c0.2,0,0.3,0.2,0.4,0.4l1.4,4.8c0.1,0.2-0.1,0.4-0.3,0.4
			c-0.2,0-0.3-0.2-0.4-0.4l-0.3-0.9h-1.5l-0.3,0.9c-0.1,0.2-0.2,0.4-0.4,0.4c-0.2,0-0.4-0.2-0.3-0.4L207,25.3z M207.4,26.7
			L207.4,26.7l-0.6,1.9h1.1L207.4,26.7z"/>
		<path fill="#FFFFFF" d="M213.9,29.8c0.2,0,0.4,0.1,0.4,0.4s-0.2,0.4-0.4,0.4h-3.2v-5.2c0-0.2,0.1-0.4,0.4-0.4s0.4,0.1,0.4,0.4v4.5
			H213.9z"/>
	</g>
</g>
<g>
	<g>
		<path fill="#FFFFFF" d="M158.7,46.6c0.2,0,0.4,0.1,0.4,0.4s-0.1,0.4-0.4,0.4h-5.2V45c0-0.3,0-0.6,0.3-0.8c0.3-0.3,0.5-0.3,0.9-0.3
			h1c0.4,0,0.6,0,0.9,0.3c0.3,0.3,0.3,0.6,0.3,1v1.6H158.7z M156.2,46.6v-1.6c0-0.4-0.1-0.5-0.5-0.5h-1c-0.4,0-0.5,0.1-0.5,0.5v1.6
			H156.2z"/>
		<path fill="#FFFFFF" d="M159,40c0,0.2,0,0.4-0.3,0.4v0c0.3,0,0.3,0.2,0.3,0.4v0.5c0,0.2,0,0.3-0.3,0.4l-0.4,0.2
			c-0.2,0.1-0.2,0.1-0.4,0.1h-4.1c-0.2,0-0.4-0.1-0.4-0.4s0.1-0.4,0.4-0.4h4.1l0.3-0.2V41l-0.3-0.2h-2.2c-0.2,0-0.4-0.1-0.4-0.4
			s0.2-0.4,0.4-0.4h2.2l0.3-0.2v-0.3l-0.3-0.2h-4.1c-0.2,0-0.4-0.1-0.4-0.4s0.1-0.4,0.4-0.4h4.1c0.2,0,0.2,0,0.4,0.1l0.4,0.2
			c0.2,0.1,0.3,0.2,0.3,0.4V40z"/>
		<path fill="#FFFFFF" d="M153.5,34.5v-0.9h5.2c0.2,0,0.4,0.1,0.4,0.4s-0.1,0.4-0.4,0.4h-4.2v0l1,0.7h0.1c0.2,0,0.4,0.1,0.4,0.4
			c0,0.3-0.2,0.4-0.4,0.4h-0.1l-1,0.7v0h4.2c0.2,0,0.4,0.1,0.4,0.4s-0.1,0.4-0.4,0.4h-5.2v-0.9l1.3-0.9L153.5,34.5z"/>
	</g>
</g>
<g>
	<g>
		<path fill="#FFFFFF" d="M168.8,46.6c0.2,0,0.4,0.1,0.4,0.4s-0.1,0.4-0.4,0.4h-5.2V45c0-0.3,0-0.6,0.3-0.8c0.3-0.3,0.5-0.3,0.9-0.3
			h1c0.4,0,0.6,0,0.9,0.3c0.3,0.3,0.3,0.6,0.3,1v1.6H168.8z M166.4,46.6v-1.6c0-0.4-0.1-0.5-0.5-0.5h-1c-0.4,0-0.5,0.1-0.5,0.5v1.6
			H166.4z"/>
		<path fill="#FFFFFF" d="M169.2,40c0,0.2,0,0.4-0.3,0.4v0c0.3,0,0.3,0.2,0.3,0.4v0.5c0,0.2,0,0.3-0.3,0.4l-0.4,0.2
			c-0.2,0.1-0.2,0.1-0.4,0.1H164c-0.2,0-0.4-0.1-0.4-0.4s0.1-0.4,0.4-0.4h4.1l0.3-0.2V41l-0.3-0.2h-2.2c-0.2,0-0.4-0.1-0.4-0.4
			s0.2-0.4,0.4-0.4h2.2l0.3-0.2v-0.3l-0.3-0.2H164c-0.2,0-0.4-0.1-0.4-0.4s0.1-0.4,0.4-0.4h4.1c0.2,0,0.2,0,0.4,0.1l0.4,0.2
			c0.2,0.1,0.3,0.2,0.3,0.4V40z"/>
		<path fill="#FFFFFF" d="M163.6,34.5v-0.9h5.2c0.2,0,0.4,0.1,0.4,0.4s-0.1,0.4-0.4,0.4h-4.2v0l1,0.7h0.1c0.2,0,0.4,0.1,0.4,0.4
			c0,0.3-0.2,0.4-0.4,0.4h-0.1l-1,0.7v0h4.2c0.2,0,0.4,0.1,0.4,0.4s-0.1,0.4-0.4,0.4h-5.2v-0.9l1.3-0.9L163.6,34.5z"/>
	</g>
</g>
<g>
	<g>
		<path fill="#FFFFFF" d="M179,46.6c0.2,0,0.4,0.1,0.4,0.4s-0.1,0.4-0.4,0.4h-5.2V45c0-0.3,0-0.6,0.3-0.8c0.3-0.3,0.5-0.3,0.9-0.3h1
			c0.4,0,0.6,0,0.9,0.3c0.3,0.3,0.3,0.6,0.3,1v1.6H179z M176.5,46.6v-1.6c0-0.4-0.1-0.5-0.5-0.5h-1c-0.4,0-0.5,0.1-0.5,0.5v1.6
			H176.5z"/>
		<path fill="#FFFFFF" d="M179.3,40c0,0.2,0,0.4-0.3,0.4v0c0.3,0,0.3,0.2,0.3,0.4v0.5c0,0.2,0,0.3-0.3,0.4l-0.4,0.2
			c-0.2,0.1-0.2,0.1-0.4,0.1h-4.1c-0.2,0-0.4-0.1-0.4-0.4s0.1-0.4,0.4-0.4h4.1l0.3-0.2V41l-0.3-0.2H176c-0.2,0-0.4-0.1-0.4-0.4
			s0.2-0.4,0.4-0.4h2.2l0.3-0.2v-0.3l-0.3-0.2h-4.1c-0.2,0-0.4-0.1-0.4-0.4s0.1-0.4,0.4-0.4h4.1c0.2,0,0.2,0,0.4,0.1l0.4,0.2
			c0.2,0.1,0.3,0.2,0.3,0.4V40z"/>
		<path fill="#FFFFFF" d="M173.8,34.5v-0.9h5.2c0.2,0,0.4,0.1,0.4,0.4s-0.1,0.4-0.4,0.4h-4.2v0l1,0.7h0.1c0.2,0,0.4,0.1,0.4,0.4
			c0,0.3-0.2,0.4-0.4,0.4h-0.1l-1,0.7v0h4.2c0.2,0,0.4,0.1,0.4,0.4s-0.1,0.4-0.4,0.4h-5.2v-0.9l1.2-0.9L173.8,34.5z"/>
	</g>
</g>
<g>
	<g>
		<path fill="#FFFFFF" d="M219.6,46.6c0.2,0,0.4,0.1,0.4,0.4s-0.1,0.4-0.4,0.4h-5.2V45c0-0.3,0-0.6,0.3-0.8c0.3-0.3,0.5-0.3,0.9-0.3
			h1c0.4,0,0.6,0,0.9,0.3c0.3,0.3,0.3,0.6,0.3,1v1.6H219.6z M217.1,46.6v-1.6c0-0.4-0.1-0.5-0.5-0.5h-1c-0.4,0-0.5,0.1-0.5,0.5v1.6
			H217.1z"/>
		<path fill="#FFFFFF" d="M219.9,40c0,0.2,0,0.4-0.3,0.4v0c0.3,0,0.3,0.2,0.3,0.4v0.5c0,0.2,0,0.3-0.3,0.4l-0.4,0.2
			c-0.2,0.1-0.2,0.1-0.4,0.1h-4.1c-0.2,0-0.4-0.1-0.4-0.4s0.1-0.4,0.4-0.4h4.1l0.3-0.2V41l-0.3-0.2h-2.2c-0.2,0-0.4-0.1-0.4-0.4
			s0.2-0.4,0.4-0.4h2.2l0.3-0.2v-0.3l-0.3-0.2h-4.1c-0.2,0-0.4-0.1-0.4-0.4s0.1-0.4,0.4-0.4h4.1c0.2,0,0.2,0,0.4,0.1l0.4,0.2
			c0.2,0.1,0.3,0.2,0.3,0.4V40z"/>
		<path fill="#FFFFFF" d="M214.4,34.5v-0.9h5.2c0.2,0,0.4,0.1,0.4,0.4s-0.1,0.4-0.4,0.4h-4.2v0l1,0.7h0.1c0.2,0,0.4,0.1,0.4,0.4
			c0,0.3-0.2,0.4-0.4,0.4h-0.1l-1,0.7v0h4.2c0.2,0,0.4,0.1,0.4,0.4s-0.1,0.4-0.4,0.4h-5.2v-0.9l1.3-0.9L214.4,34.5z"/>
	</g>
</g>
<g>
	<g>
		<path fill="#FFFFFF" d="M229,46.6c0.2,0,0.4,0.1,0.4,0.4s-0.1,0.4-0.4,0.4h-5.2V45c0-0.3,0-0.6,0.3-0.8c0.3-0.3,0.5-0.3,0.9-0.3h1
			c0.4,0,0.6,0,0.9,0.3c0.3,0.3,0.3,0.6,0.3,1v1.6H229z M226.6,46.6v-1.6c0-0.4-0.1-0.5-0.5-0.5h-1c-0.4,0-0.5,0.1-0.5,0.5v1.6
			H226.6z"/>
		<path fill="#FFFFFF" d="M229.4,40c0,0.2,0,0.4-0.3,0.4v0c0.3,0,0.3,0.2,0.3,0.4v0.5c0,0.2,0,0.3-0.3,0.4l-0.4,0.2
			c-0.2,0.1-0.2,0.1-0.4,0.1h-4.1c-0.2,0-0.4-0.1-0.4-0.4s0.1-0.4,0.4-0.4h4.1l0.3-0.2V41l-0.3-0.2h-2.2c-0.2,0-0.4-0.1-0.4-0.4
			s0.2-0.4,0.4-0.4h2.2l0.3-0.2v-0.3l-0.3-0.2h-4.1c-0.2,0-0.4-0.1-0.4-0.4s0.1-0.4,0.4-0.4h4.1c0.2,0,0.2,0,0.4,0.1l0.4,0.2
			c0.2,0.1,0.3,0.2,0.3,0.4V40z"/>
		<path fill="#FFFFFF" d="M223.9,34.5v-0.9h5.2c0.2,0,0.4,0.1,0.4,0.4s-0.1,0.4-0.4,0.4h-4.2v0l1,0.7h0.1c0.2,0,0.4,0.1,0.4,0.4
			c0,0.3-0.2,0.4-0.4,0.4h-0.1l-1,0.7v0h4.2c0.2,0,0.4,0.1,0.4,0.4s-0.1,0.4-0.4,0.4h-5.2v-0.9l1.2-0.9L223.9,34.5z"/>
	</g>
</g>
<g>
	<g>
		<path fill="#FFFFFF" d="M249,46.6c0.2,0,0.4,0.1,0.4,0.4s-0.1,0.4-0.4,0.4h-5.2V45c0-0.3,0-0.6,0.3-0.8c0.3-0.3,0.5-0.3,0.9-0.3h1
			c0.4,0,0.6,0,0.9,0.3c0.3,0.3,0.3,0.6,0.3,1v1.6H249z M246.5,46.6v-1.6c0-0.4-0.1-0.5-0.5-0.5h-1c-0.4,0-0.5,0.1-0.5,0.5v1.6
			H246.5z"/>
		<path fill="#FFFFFF" d="M249.3,40c0,0.2,0,0.4-0.3,0.4v0c0.3,0,0.3,0.2,0.3,0.4v0.5c0,0.2,0,0.3-0.3,0.4l-0.4,0.2
			c-0.2,0.1-0.2,0.1-0.4,0.1h-4.1c-0.2,0-0.4-0.1-0.4-0.4s0.1-0.4,0.4-0.4h4.1l0.3-0.2V41l-0.3-0.2H246c-0.2,0-0.4-0.1-0.4-0.4
			s0.2-0.4,0.4-0.4h2.2l0.3-0.2v-0.3l-0.3-0.2h-4.1c-0.2,0-0.4-0.1-0.4-0.4s0.1-0.4,0.4-0.4h4.1c0.2,0,0.2,0,0.4,0.1l0.4,0.2
			c0.2,0.1,0.3,0.2,0.3,0.4V40z"/>
		<path fill="#FFFFFF" d="M243.8,34.5v-0.9h5.2c0.2,0,0.4,0.1,0.4,0.4s-0.1,0.4-0.4,0.4h-4.2v0l1,0.7h0.1c0.2,0,0.4,0.1,0.4,0.4
			c0,0.3-0.2,0.4-0.4,0.4h-0.1l-1,0.7v0h4.2c0.2,0,0.4,0.1,0.4,0.4s-0.1,0.4-0.4,0.4h-5.2v-0.9l1.3-0.9L243.8,34.5z"/>
	</g>
</g>
<g>
	<g>
		<path fill="#FFFFFF" d="M264.8,33h0.3c0.2,0,0.4,0.1,0.4,0.4s-0.1,0.4-0.4,0.4h-1v-3.5h1c0.2,0,0.4,0.1,0.4,0.4s-0.1,0.4-0.4,0.4
			h-0.3v0.7h4.5c0.2,0,0.4,0.1,0.4,0.4s-0.1,0.4-0.4,0.4h-4.5V33z"/>
		<path fill="#FFFFFF" d="M266.8,27.2l-2.2,1.3c-0.1,0-0.2,0.1-0.3,0.1c-0.2,0-0.3-0.2-0.3-0.3c0-0.2,0.2-0.3,0.3-0.4l1.7-1l-1.7-1
			c-0.2-0.1-0.3-0.2-0.3-0.4c0-0.2,0.1-0.3,0.3-0.3c0.1,0,0.2,0,0.3,0.1l2.2,1.3l2.2-1.3c0.1,0,0.2-0.1,0.3-0.1
			c0.2,0,0.3,0.2,0.3,0.3c0,0.2-0.2,0.3-0.3,0.4l-1.7,1l1.7,1c0.2,0.1,0.3,0.2,0.3,0.4c0,0.2-0.1,0.3-0.3,0.3c-0.1,0-0.2,0-0.3-0.1
			L266.8,27.2z"/>
	</g>
</g>
<g>
	<g>
		<path fill="#FFFFFF" d="M277.5,16.4c0.4,0,0.7,0.3,0.7,0.7v4.1c0,0.4-0.3,0.7-0.7,0.7h-2.1c-0.4,0-0.7-0.3-0.7-0.7v-4.1
			c0-0.4,0.3-0.7,0.7-0.7H277.5z M277.5,21.2v-4.1h-2.1v4.1H277.5z"/>
	</g>
</g>
<g>
	<g>
		<path fill="#FFFFFF" d="M278.9,33c0.2,0,0.4,0.1,0.4,0.4s-0.1,0.4-0.4,0.4h-5.2v-2.4c0-0.6,0.4-1.1,1-1.1h0.5c0.7,0,1,0.6,1,1.1
			V32l2.3-1.6c0.1-0.1,0.2-0.2,0.4-0.2c0.2,0,0.3,0.2,0.3,0.4c0,0.1-0.1,0.2-0.2,0.3l-2.8,2V33H278.9z M275.5,33v-1.6
			c0-0.2,0-0.5-0.3-0.5h-0.5c-0.3,0-0.3,0.3-0.3,0.5V33H275.5z"/>
		<path fill="#FFFFFF" d="M276.5,27.2l-2.2,1.3c-0.1,0-0.2,0.1-0.3,0.1c-0.2,0-0.3-0.2-0.3-0.3c0-0.2,0.2-0.3,0.3-0.4l1.7-1l-1.7-1
			c-0.2-0.1-0.3-0.2-0.3-0.4c0-0.2,0.1-0.3,0.3-0.3c0.1,0,0.2,0,0.3,0.1l2.2,1.3l2.2-1.3c0.1,0,0.2-0.1,0.3-0.1
			c0.2,0,0.3,0.2,0.3,0.3c0,0.2-0.2,0.3-0.3,0.4l-1.7,1l1.7,1c0.2,0.1,0.3,0.2,0.3,0.4c0,0.2-0.1,0.3-0.3,0.3c-0.1,0-0.2,0-0.3-0.1
			L276.5,27.2z"/>
	</g>
</g>
<polyline fill="none" stroke="#FFFFFF" points="53,95.7 54.5,95.7 54.5,106.1 53,106.1 "/>
<polyline fill="none" stroke="#FFFFFF" points="53,109.1 54.5,109.1 54.5,119.5 53,119.5 "/>
<rect y="35.3" fill="#666666" width="52.7" height="47.1"/>
<rect x="52.7" y="35.3" fill="#666666" width="11.2" height="47.1"/>
<rect x="21" y="160.4" width="51.8" height="33.1"/>
<rect x="20.5" y="158.5" width="10.7" height="36.4"/>
<g>
	<rect x="111.7" y="2.7" fill="#3F3F3F" width="10" height="10"/>
	<g>
		<rect x="114.8" y="5.7" width="3.9" height="3.9"/>
		<g>
			<polygon fill="#292929" points="113.4,4.3 114.8,5.7 118.6,5.7 120.1,4.3 			"/>
			<polygon fill="#474747" points="120.1,4.3 118.6,5.7 118.6,9.6 120.1,11 			"/>
			<polygon fill="#595959" points="120.1,11 118.6,9.6 114.8,9.6 113.4,11 			"/>
			<polygon fill="#363636" points="113.4,11 114.8,9.6 114.8,5.7 113.4,4.3 			"/>
		</g>
	</g>
</g>
<g>
	<rect x="121.7" y="2.7" fill="#3F3F3F" width="10" height="10"/>
	<g>
		<rect x="124.8" y="5.7" width="3.9" height="3.9"/>
		<g>
			<polygon fill="#292929" points="123.3,4.3 124.8,5.7 128.6,5.7 130,4.3 			"/>
			<polygon fill="#474747" points="130,4.3 128.6,5.7 128.6,9.6 130,11 			"/>
			<polygon fill="#595959" points="130,11 128.6,9.6 124.8,9.6 123.3,11 			"/>
			<polygon fill="#363636" points="123.3,11 124.8,9.6 124.8,5.7 123.3,4.3 			"/>
		</g>
	</g>
</g>
<g>
	<rect x="131.7" y="2.7" fill="#3F3F3F" width="10" height="10"/>
	<g>
		<rect x="134.7" y="5.7" width="3.9" height="3.9"/>
		<g>
			<polygon fill="#292929" points="133.3,4.3 134.7,5.7 138.6,5.7 140,4.3 			"/>
			<polygon fill="#474747" points="140,4.3 138.6,5.7 138.6,9.6 140,11 			"/>
			<polygon fill="#595959" points="140,11 138.6,9.6 134.7,9.6 133.3,11 			"/>
			<polygon fill="#363636" points="133.3,11 134.7,9.6 134.7,5.7 133.3,4.3 			"/>
		</g>
	</g>
</g>
<g>
	<rect x="141.6" y="2.7" fill="#3F3F3F" width="10" height="10"/>
	<g>
		<rect x="144.7" y="5.7" width="3.9" height="3.9"/>
		<g>
			<polygon fill="#292929" points="143.3,4.3 144.7,5.7 148.6,5.7 150,4.3 			"/>
			<polygon fill="#474747" points="150,4.3 148.6,5.7 148.6,9.6 150,11 			"/>
			<polygon fill="#595959" points="150,11 148.6,9.6 144.7,9.6 143.3,11 			"/>
			<polygon fill="#363636" points="143.3,11 144.7,9.6 144.7,5.7 143.3,4.3 			"/>
		</g>
	</g>
</g>
<g>
	<rect x="171.7" y="192.6" fill="#3F3F3F" width="10" height="10"/>
	<g>
		<rect x="174.8" y="195.7" width="3.9" height="3.8"/>
		<g>
			<polygon fill="#292929" points="173.4,194.3 174.8,195.7 178.6,195.7 180.1,194.3 			"/>
			<polygon fill="#474747" points="180.1,194.3 178.6,195.7 178.6,199.6 180.1,201 			"/>
			<polygon fill="#595959" points="180.1,201 178.6,199.6 174.8,199.6 173.4,201 			"/>
			<polygon fill="#363636" points="173.4,201 174.8,199.6 174.8,195.7 173.4,194.3 			"/>
		</g>
	</g>
</g>
<g>
	<rect x="161.7" y="192.6" fill="#3F3F3F" width="10" height="10"/>
	<g>
		<rect x="164.8" y="195.7" width="3.9" height="3.8"/>
		<g>
			<polygon fill="#292929" points="163.4,194.3 164.8,195.7 168.6,195.7 170.1,194.3 			"/>
			<polygon fill="#474747" points="170.1,194.3 168.6,195.7 168.6,199.6 170.1,201 			"/>
			<polygon fill="#595959" points="170.1,201 168.6,199.6 164.8,199.6 163.4,201 			"/>
			<polygon fill="#363636" points="163.4,201 164.8,199.6 164.8,195.7 163.4,194.3 			"/>
		</g>
	</g>
</g>
<g>
	<rect x="151.7" y="192.6" fill="#3F3F3F" width="10" height="10"/>
	<g>
		<rect x="154.8" y="195.7" width="3.9" height="3.8"/>
		<g>
			<polygon fill="#292929" points="153.4,194.3 154.8,195.7 158.6,195.7 160.1,194.3 			"/>
			<polygon fill="#474747" points="160.1,194.3 158.6,195.7 158.6,199.6 160.1,201 			"/>
			<polygon fill="#595959" points="160.1,201 158.6,199.6 154.8,199.6 153.4,201 			"/>
			<polygon fill="#363636" points="153.4,201 154.8,199.6 154.8,195.7 153.4,194.3 			"/>
		</g>
	</g>
</g>
<g>
	<rect x="181.7" y="192.6" fill="#3F3F3F" width="10" height="10"/>
	<g>
		<rect x="184.8" y="195.7" width="3.8" height="3.8"/>
		<g>
			<polygon fill="#292929" points="183.3,194.3 184.8,195.7 188.6,195.7 190,194.3 			"/>
			<polygon fill="#474747" points="190,194.3 188.6,195.7 188.6,199.6 190,201 			"/>
			<polygon fill="#595959" points="190,201 188.6,199.6 184.8,199.6 183.3,201 			"/>
			<polygon fill="#363636" points="183.3,201 184.8,199.6 184.8,195.7 183.3,194.3 			"/>
		</g>
	</g>
</g>
<g>
	<rect x="191.7" y="192.6" fill="#3F3F3F" width="10" height="10"/>
	<g>
		<rect x="194.7" y="195.7" width="3.9" height="3.8"/>
		<g>
			<polygon fill="#292929" points="193.3,194.3 194.7,195.7 198.6,195.7 200,194.3 			"/>
			<polygon fill="#474747" points="200,194.3 198.6,195.7 198.6,199.6 200,201 			"/>
			<polygon fill="#595959" points="200,201 198.6,199.6 194.7,199.6 193.3,201 			"/>
			<polygon fill="#363636" points="193.3,201 194.7,199.6 194.7,195.7 193.3,194.3 			"/>
		</g>
	</g>
</g>
<g>
	<rect x="201.6" y="192.6" fill="#3F3F3F" width="10" height="10"/>
	<g>
		<rect x="204.7" y="195.7" width="3.9" height="3.8"/>
		<g>
			<polygon fill="#292929" points="203.3,194.3 204.7,195.7 208.6,195.7 210,194.3 			"/>
			<polygon fill="#474747" points="210,194.3 208.6,195.7 208.6,199.6 210,201 			"/>
			<polygon fill="#595959" points="210,201 208.6,199.6 204.7,199.6 203.3,201 			"/>
			<polygon fill="#363636" points="203.3,201 204.7,199.6 204.7,195.7 203.3,194.3 			"/>
		</g>
	</g>
</g>
<g>
	<rect x="221.7" y="192.6" fill="#3F3F3F" width="10" height="10"/>
	<g>
		<rect x="224.8" y="195.7" width="3.8" height="3.8"/>
		<g>
			<polygon fill="#292929" points="223.4,194.3 224.8,195.7 228.6,195.7 230.1,194.3 			"/>
			<polygon fill="#474747" points="230.1,194.3 228.6,195.7 228.6,199.6 230.1,201 			"/>
			<polygon fill="#595959" points="230.1,201 228.6,199.6 224.8,199.6 223.4,201 			"/>
			<polygon fill="#363636" points="223.4,201 224.8,199.6 224.8,195.7 223.4,194.3 			"/>
		</g>
	</g>
</g>
<g>
	<rect x="231.7" y="192.6" fill="#3F3F3F" width="10" height="10"/>
	<g>
		<rect x="234.8" y="195.7" width="3.9" height="3.8"/>
		<g>
			<polygon fill="#292929" points="233.3,194.3 234.8,195.7 238.6,195.7 240,194.3 			"/>
			<polygon fill="#474747" points="240,194.3 238.6,195.7 238.6,199.6 240,201 			"/>
			<polygon fill="#595959" points="240,201 238.6,199.6 234.8,199.6 233.3,201 			"/>
			<polygon fill="#363636" points="233.3,201 234.8,199.6 234.8,195.7 233.3,194.3 			"/>
		</g>
	</g>
</g>
<g>
	<rect x="241.7" y="192.6" fill="#3F3F3F" width="10" height="10"/>
	<g>
		<rect x="244.7" y="195.7" width="3.9" height="3.8"/>
		<g>
			<polygon fill="#292929" points="243.3,194.3 244.7,195.7 248.6,195.7 250,194.3 			"/>
			<polygon fill="#474747" points="250,194.3 248.6,195.7 248.6,199.6 250,201 			"/>
			<polygon fill="#595959" points="250,201 248.6,199.6 244.7,199.6 243.3,201 			"/>
			<polygon fill="#363636" points="243.3,201 244.7,199.6 244.7,195.7 243.3,194.3 			"/>
		</g>
	</g>
</g>
<g>
	<rect x="251.6" y="192.6" fill="#3F3F3F" width="10" height="10"/>
	<g>
		<rect x="254.7" y="195.7" width="3.9" height="3.8"/>
		<g>
			<polygon fill="#292929" points="253.3,194.3 254.7,195.7 258.6,195.7 260,194.3 			"/>
			<polygon fill="#474747" points="260,194.3 258.6,195.7 258.6,199.6 260,201 			"/>
			<polygon fill="#595959" points="260,201 258.6,199.6 254.7,199.6 253.3,201 			"/>
			<polygon fill="#363636" points="253.3,201 254.7,199.6 254.7,195.7 253.3,194.3 			"/>
		</g>
	</g>
</g>
<g>
	<rect x="261.6" y="192.6" fill="#3F3F3F" width="10" height="10"/>
	<g>
		<rect x="264.7" y="195.7" width="3.8" height="3.8"/>
		<g>
			<polygon fill="#292929" points="263.3,194.3 264.7,195.7 268.5,195.7 269.9,194.3 			"/>
			<polygon fill="#474747" points="270,194.3 268.5,195.7 268.5,199.6 270,201 			"/>
			<polygon fill="#595959" points="269.9,201 268.5,199.6 264.7,199.6 263.3,201 			"/>
			<polygon fill="#363636" points="263.3,201 264.7,199.6 264.7,195.7 263.3,194.3 			"/>
		</g>
	</g>
</g>
<g>
	<rect x="271.6" y="192.6" fill="#3F3F3F" width="10" height="10"/>
	<g>
		<rect x="274.6" y="195.7" width="3.8" height="3.8"/>
		<g>
			<polygon fill="#292929" points="273.2,194.3 274.6,195.7 278.5,195.7 279.9,194.3 			"/>
			<polygon fill="#474747" points="279.9,194.3 278.5,195.7 278.5,199.6 279.9,201 			"/>
			<polygon fill="#595959" points="279.9,201 278.5,199.6 274.6,199.6 273.2,201 			"/>
			<polygon fill="#363636" points="273.2,201 274.6,199.6 274.6,195.7 273.2,194.3 			"/>
		</g>
	</g>
</g>
<g>
	<rect x="151.6" y="2.7" fill="#3F3F3F" width="10" height="10"/>
	<g>
		<rect x="154.7" y="5.7" width="3.9" height="3.9"/>
		<g>
			<polygon fill="#292929" points="153.3,4.3 154.7,5.7 158.5,5.7 159.9,4.3 			"/>
			<polygon fill="#474747" points="159.9,4.3 158.5,5.7 158.5,9.6 159.9,11 			"/>
			<polygon fill="#595959" points="159.9,11 158.5,9.6 154.7,9.6 153.3,11 			"/>
			<polygon fill="#363636" points="153.3,11 154.7,9.6 154.7,5.7 153.3,4.3 			"/>
		</g>
	</g>
</g>
<g>
	<rect x="161.6" y="2.7" fill="#3F3F3F" width="10" height="10"/>
	<g>
		<rect x="164.6" y="5.7" width="3.9" height="3.9"/>
		<g>
			<polygon fill="#292929" points="163.2,4.3 164.6,5.7 168.5,5.7 169.9,4.3 			"/>
			<polygon fill="#474747" points="169.9,4.3 168.5,5.7 168.5,9.6 169.9,11 			"/>
			<polygon fill="#595959" points="169.9,11 168.5,9.6 164.6,9.6 163.2,11 			"/>
			<polygon fill="#363636" points="163.2,11 164.6,9.6 164.6,5.7 163.2,4.3 			"/>
		</g>
	</g>
</g>
<g>
	<rect x="171.6" y="2.7" fill="#3F3F3F" width="10" height="10"/>
	<g>
		<rect x="174.6" y="5.7" width="3.9" height="3.9"/>
		<g>
			<polygon fill="#292929" points="173.2,4.3 174.6,5.7 178.5,5.7 179.9,4.3 			"/>
			<polygon fill="#474747" points="179.9,4.3 178.5,5.7 178.5,9.6 179.9,11 			"/>
			<polygon fill="#595959" points="179.9,11 178.5,9.6 174.6,9.6 173.2,11 			"/>
			<polygon fill="#363636" points="173.2,11 174.6,9.6 174.6,5.7 173.2,4.3 			"/>
		</g>
	</g>
</g>
<g>
	<rect x="181.5" y="2.7" fill="#3F3F3F" width="10" height="10"/>
	<g>
		<rect x="184.6" y="5.7" width="3.9" height="3.9"/>
		<g>
			<polygon fill="#292929" points="183.2,4.3 184.6,5.7 188.4,5.7 189.9,4.3 			"/>
			<polygon fill="#474747" points="189.9,4.3 188.4,5.7 188.4,9.6 189.9,11 			"/>
			<polygon fill="#595959" points="189.9,11 188.4,9.6 184.6,9.6 183.2,11 			"/>
			<polygon fill="#363636" points="183.2,11 184.6,9.6 184.6,5.7 183.2,4.3 			"/>
		</g>
	</g>
</g>
<g>
	<rect x="201.7" y="2.7" fill="#3F3F3F" width="10" height="10"/>
	<g>
		<rect x="204.8" y="5.7" width="3.8" height="3.9"/>
		<g>
			<polygon fill="#292929" points="203.4,4.3 204.8,5.7 208.6,5.7 210.1,4.3 			"/>
			<polygon fill="#474747" points="210.1,4.3 208.6,5.7 208.6,9.6 210.1,11 			"/>
			<polygon fill="#595959" points="210.1,11 208.6,9.6 204.8,9.6 203.4,11 			"/>
			<polygon fill="#363636" points="203.4,11 204.8,9.6 204.8,5.7 203.4,4.3 			"/>
		</g>
	</g>
</g>
<g>
	<rect x="211.7" y="2.7" fill="#3F3F3F" width="10" height="10"/>
	<g>
		<rect x="214.8" y="5.7" width="3.9" height="3.9"/>
		<g>
			<polygon fill="#292929" points="213.3,4.3 214.8,5.7 218.6,5.7 220,4.3 			"/>
			<polygon fill="#474747" points="220,4.3 218.6,5.7 218.6,9.6 220,11 			"/>
			<polygon fill="#595959" points="220,11 218.6,9.6 214.8,9.6 213.3,11 			"/>
			<polygon fill="#363636" points="213.3,11 214.8,9.6 214.8,5.7 213.3,4.3 			"/>
		</g>
	</g>
</g>
<g>
	<rect x="221.7" y="2.7" fill="#3F3F3F" width="10" height="10"/>
	<g>
		<rect x="224.7" y="5.7" width="3.9" height="3.9"/>
		<g>
			<polygon fill="#292929" points="223.3,4.3 224.7,5.7 228.6,5.7 230,4.3 			"/>
			<polygon fill="#474747" points="230,4.3 228.6,5.7 228.6,9.6 230,11 			"/>
			<polygon fill="#595959" points="230,11 228.6,9.6 224.7,9.6 223.3,11 			"/>
			<polygon fill="#363636" points="223.3,11 224.7,9.6 224.7,5.7 223.3,4.3 			"/>
		</g>
	</g>
</g>
<g>
	<rect x="231.6" y="2.7" fill="#3F3F3F" width="10" height="10"/>
	<g>
		<rect x="234.7" y="5.7" width="3.8" height="3.9"/>
		<g>
			<polygon fill="#292929" points="233.3,4.3 234.7,5.7 238.6,5.7 240,4.3 			"/>
			<polygon fill="#474747" points="240,4.3 238.6,5.7 238.6,9.6 240,11 			"/>
			<polygon fill="#595959" points="240,11 238.6,9.6 234.7,9.6 233.3,11 			"/>
			<polygon fill="#363636" points="233.3,11 234.7,9.6 234.7,5.7 233.3,4.3 			"/>
		</g>
	</g>
</g>
<g>
	<rect x="241.6" y="2.7" fill="#3F3F3F" width="10" height="10"/>
	<g>
		<rect x="244.7" y="5.7" width="3.9" height="3.9"/>
		<g>
			<polygon fill="#292929" points="243.3,4.3 244.7,5.7 248.5,5.7 249.9,4.3 			"/>
			<polygon fill="#474747" points="249.9,4.3 248.5,5.7 248.5,9.6 249.9,11 			"/>
			<polygon fill="#595959" points="249.9,11 248.5,9.6 244.7,9.6 243.3,11 			"/>
			<polygon fill="#363636" points="243.3,11 244.7,9.6 244.7,5.7 243.3,4.3 			"/>
		</g>
	</g>
</g>
<g>
	<rect x="251.6" y="2.7" fill="#3F3F3F" width="10" height="10"/>
	<g>
		<rect x="254.6" y="5.7" width="3.9" height="3.9"/>
		<g>
			<polygon fill="#292929" points="253.2,4.3 254.6,5.7 258.5,5.7 259.9,4.3 			"/>
			<polygon fill="#474747" points="259.9,4.3 258.5,5.7 258.5,9.6 259.9,11 			"/>
			<polygon fill="#595959" points="259.9,11 258.5,9.6 254.6,9.6 253.2,11 			"/>
			<polygon fill="#363636" points="253.2,11 254.6,9.6 254.6,5.7 253.2,4.3 			"/>
		</g>
	</g>
</g>
<g>
	<rect x="261.6" y="2.7" fill="#3F3F3F" width="10" height="10"/>
	<g>
		<rect x="264.6" y="5.7" width="3.9" height="3.9"/>
		<g>
			<polygon fill="#292929" points="263.2,4.3 264.6,5.7 268.5,5.7 269.9,4.3 			"/>
			<polygon fill="#474747" points="269.9,4.3 268.5,5.7 268.5,9.6 269.9,11 			"/>
			<polygon fill="#595959" points="269.9,11 268.5,9.6 264.6,9.6 263.2,11 			"/>
			<polygon fill="#363636" points="263.2,11 264.6,9.6 264.6,5.7 263.2,4.3 			"/>
		</g>
	</g>
</g>
<g>
	<rect x="271.5" y="2.7" fill="#3F3F3F" width="10" height="10"/>
	<g>
		<rect x="274.6" y="5.7" width="3.9" height="3.9"/>
		<g>
			<polygon fill="#292929" points="273.2,4.3 274.6,5.7 278.4,5.7 279.9,4.3 			"/>
			<polygon fill="#474747" points="279.9,4.3 278.4,5.7 278.4,9.6 279.9,11 			"/>
			<polygon fill="#595959" points="279.9,11 278.4,9.6 274.6,9.6 273.2,11 			"/>
			<polygon fill="#363636" points="273.2,11 274.6,9.6 274.6,5.7 273.2,4.3 			"/>
		</g>
	</g>
</g>
</svg>
