<?xml version="1.0" encoding="UTF-8" standalone="no"?>
<svg
   xmlns:svg="http://www.w3.org/2000/svg"
   xmlns="http://www.w3.org/2000/svg"
   version="1.2" baseProfile="tiny"
   width="6.730mm"
   height="6.895mm"
   id="svg2">
  <g
     id="layer13"
     style="display:inline"
     transform="matrix(0.1295494,0,0,0.1295494,-0.846507,-111.63991)">
    <g
       id="silkscreen">
      <path
         d="M 186.6066,956.04907 C 186.6066,1005.9168 147.19146,1046.3426 98.57042,1046.3426 C 49.949381,1046.3426 10.534241,1005.9168 10.534241,956.04907 C 10.534241,906.18134 49.949381,865.75555 98.57042,865.75555 C 147.19146,865.75555 186.6066,906.18134 186.6066,956.04907 L 186.6066,956.04907 z"
         id="path12041"
         style="fill:none;fill-opacity:1;stroke:#000000;stroke-width:8;stroke-miterlimit:4;stroke-dasharray:none;stroke-opacity:1" />
      <path
         d="M 151.99409,952.28687 C 151.99409,964.33824 143.23517,974.1078 132.4305,974.1078 C 121.62582,974.1078 112.8669,964.33824 112.8669,952.28687 C 112.8669,940.2355 121.62582,930.46594 132.4305,930.46594 C 143.23517,930.46594 151.99409,940.2355 151.99409,952.28687 L 151.99409,952.28687 z"
         transform="matrix(1.2633321,0,0,1.2633321,-33.577829,-248.87794)"
         id="path12043"
         style="fill:none;fill-opacity:1;stroke:#000000;stroke-width:6.33245993;stroke-miterlimit:4;stroke-dasharray:none;stroke-opacity:1" />
      <rect
         width="50.522186"
         height="48.780045"
         x="36.878365"
         y="928.49323"
         id="rect12045"
         style="fill:none;fill-opacity:1;stroke:#000000;stroke-width:8;stroke-miterlimit:4;stroke-dasharray:none;stroke-opacity:1" />
    </g>
  </g>
</svg>
