<?xml version='1.0' encoding='UTF-8' standalone='no'?>
<!-- Created with Fritzing (http://www.fritzing.org/) -->
<svg width="0.554333in" x="0in" version="1.2" y="0in" xmlns="http://www.w3.org/2000/svg" height="0.6in" viewBox="0 0 554.333 600" baseProfile="tiny" xmlns:svg="http://www.w3.org/2000/svg">
 <desc>Fritzing breadboard generated by brd2svg</desc>
 <g id="breadboard">
  <g id="icon">
   <path fill="#1F7A34" stroke="none" stroke-width="0" d="M0,0L0,270A30,30 0 0 1 0,330L0,600L554.333,600L554.333,0L0,0z"/>
   <g transform="translate(100,170.084)">
    <desc>Fritzing breadboard generated by brd2svg</desc>
    <g stroke-width="0">
     <path fill="#1A1A1A" stroke-width="0" d="M309.111,141.583c-3.04167,-65.7361,1.44444,-100.292,0,-102.958s-11.1389,4.80556,-14.7639,8.55556c0,0,1.16667,-9.20833,5.48611,-13.3472C307.292,26.6806,317.792,23.6111,317.792,23.6111l24.3056,0l0,127.931c0,7.05556,5.40278,12.6944,12.2361,13.5694l0,60L0,225.111l0,-60c6.83333,-0.875,12.2361,-6.51389,12.2361,-13.5694L12.2361,23.6111l24.3056,0c0,0,10.4861,3.06944,17.9583,10.2222c4.31944,4.13889,5.48611,13.3472,5.48611,13.3472C56.3611,43.4306,46.6667,35.9583,45.2222,38.625s3.04167,37.2222,0,102.958l15.9583,0c0,0,0,-38.3194,0,-77.5417l231.958,0c0,39.2361,0,77.5417,0,77.5417L309.111,141.583z"/>
     <g stroke-width="0">
      <path stroke-width="0" d="M45.2222,146.125c3.04167,-65.7361,-1.44444,-100.292,0,-102.958s11.1389,4.80556,14.7639,8.55556L59.9861,47.1806C56.3611,43.4306,46.6667,35.9583,45.2222,38.625s3.04167,37.2222,0,102.958"/>
      <path stroke-width="0" d="M309.111,146.125c-3.04167,-65.7361,1.44444,-100.292,0,-102.958s-11.1389,4.80556,-14.7639,8.55556L294.347,47.1806c3.625,-3.76389,13.3194,-11.2361,14.7639,-8.55556s-3.04167,37.2222,0,102.958"/>
     </g>
     <path opacity="0.15" fill="#F2F2F2" stroke-width="0" d="M1.76389,165.111c6.83333,-0.875,12.2361,-6.51389,12.2361,-13.5694L14,23.6111L12.2361,23.6111l0,127.931c0,7.05556,-5.40278,12.6944,-12.2361,13.5694L1.76389,165.111z"/>
     <path opacity="0.55" stroke-width="0" d="M352.569,165.111c-6.83333,-0.875,-12.2361,-6.51389,-12.2361,-13.5694L340.333,23.6111l1.76389,0l0,127.931c0,7.05556,5.40278,12.6944,12.2361,13.5694L352.569,165.111z"/>
     <g stroke-width="0">
      <rect width="5.63889" x="159.458" y="0" fill="#999999" height="25.8194" stroke-width="0"/>
      <rect width="5.63889" x="169.417" y="0" fill="#999999" height="25.8194" stroke-width="0"/>
      <rect width="5.63889" x="179.264" y="0" fill="#999999" height="25.8194" stroke-width="0"/>
      <rect width="5.63889" x="189.097" y="0" fill="#999999" height="25.8194" stroke-width="0"/>
     </g>
     <g stroke-width="0">
      <rect width="5.63889" x="159.458" y="12.2639" fill="#B3B3B3" height="13.5694" stroke-width="0"/>
      <rect width="5.63889" x="169.417" y="12.2639" fill="#B3B3B3" height="13.5694" stroke-width="0"/>
      <rect width="5.63889" x="179.264" y="12.2639" fill="#B3B3B3" height="13.5694" stroke-width="0"/>
      <rect width="5.63889" x="189.097" y="12.2639" fill="#B3B3B3" height="13.5694" stroke-width="0"/>
     </g>
     <g stroke-width="0">
      <rect width="5.63889" x="159.458" y="16.9306" fill="#CCCCCC" height="8.90278" stroke-width="0"/>
      <rect width="5.63889" x="169.417" y="16.9306" fill="#CCCCCC" height="8.90278" stroke-width="0"/>
      <rect width="5.63889" x="179.264" y="16.9306" fill="#CCCCCC" height="8.90278" stroke-width="0"/>
      <rect width="5.63889" x="189.097" y="16.9306" fill="#CCCCCC" height="8.90278" stroke-width="0"/>
     </g>
     <rect width="354.333" x="0" y="165.431" fill="#1A1A1A" height="59.6806" stroke-width="0"/>
     <rect width="121.028" x="0.0138889" y="165.431" fill="#333333" height="59.6806" stroke-width="0"/>
     <rect width="121.042" x="233.292" y="165.431" fill="#333333" height="59.6806" stroke-width="0"/>
     <rect width="101.569" x="126.389" y="162.847" fill="#E6E6E6" height="62.2778" stroke-width="0"/>
     <rect width="231.958" x="61.1944" y="23.625" fill="#CCCCCC" height="117.972" stroke-width="0"/>
     <rect width="159.833" x="97.25" y="23.625" fill="#E6E6E6" height="117.972" stroke-width="0"/>
     <rect width="354.319" x="0.0138889" y="225.111" height="34.7222" stroke-width="0"/>
     <rect width="7.01389" x="0.0138889" y="225.111" fill="#666666" height="34.7222" stroke-width="0"/>
     <rect width="7.02778" x="347.306" y="225.111" fill="#666666" height="34.7222" stroke-width="0"/>
     <rect width="354.333" x="0" y="225.125" fill="#666666" height="7.02778" stroke-width="0"/>
     <rect width="354.333" x="0" y="252.806" fill="#666666" height="7.02778" stroke-width="0"/>
     <rect width="7.98611" x="89.2639" y="33.6389" fill="#999999" height="78.6389" stroke-width="0"/>
     <rect width="7.97222" x="257.083" y="33.6389" fill="#999999" height="78.6389" stroke-width="0"/>
     <rect width="304.417" x="24.9444" y="116.417" fill="#E6E6E6" height="49.0139" stroke-width="0"/>
     <rect width="159.833" x="97.25" opacity="0.5" y="23.625" fill="#FFFFFF" height="2.20833" stroke-width="0"/>
     <rect width="72.3056" x="27.1528" opacity="0.5" y="116.597" fill="#FFFFFF" height="2.20833" stroke-width="0"/>
     <polygon opacity="0.5" fill="#FFFFFF" points="227.944,225.111,128.569,225.111,128.569,222.903,225.764,222.903" stroke-width="0"/>
     <rect width="36.0694" x="61.1944" opacity="0.2" y="23.625" fill="#FFFFFF" height="2.20833" stroke-width="0"/>
     <rect width="2.20833" x="61.1944" opacity="0.2" y="25.8194" fill="#FFFFFF" height="90.5833" stroke-width="0"/>
     <rect width="2.20833" x="89.2639" opacity="0.2" y="33.6389" fill="#FFFFFF" height="78.6389" stroke-width="0"/>
     <rect width="2.20833" x="0.0138889" opacity="0.2" y="165.431" fill="#FFFFFF" height="59.6944" stroke-width="0"/>
     <polygon opacity="0.2" fill="#FFFFFF" points="0.0138889,259.833,0.0138889,225.111,2.22222,225.111,2.22222,257.625" stroke-width="0"/>
     <rect width="2.20833" x="233.306" opacity="0.2" y="165.431" fill="#FFFFFF" height="59.6944" stroke-width="0"/>
     <rect width="2.20833" x="126.361" opacity="0.5" y="165.431" fill="#FFFFFF" height="59.6944" stroke-width="0"/>
     <rect width="2.20833" x="24.9444" opacity="0.5" y="116.417" fill="#FFFFFF" height="49.0139" stroke-width="0"/>
     <rect width="2.20833" x="97.25" opacity="0.5" y="25.8194" fill="#FFFFFF" height="90.7778" stroke-width="0"/>
     <rect width="1" x="159.458" opacity="0.5" y="0.222222" fill="#FFFFFF" height="23.4028" stroke-width="0"/>
     <rect width="1" x="169.417" opacity="0.5" y="0.222222" fill="#FFFFFF" height="23.4028" stroke-width="0"/>
     <rect width="1" x="179.264" opacity="0.5" y="0.222222" fill="#FFFFFF" height="23.4028" stroke-width="0"/>
     <rect width="0.986111" x="189.097" opacity="0.5" y="0.222222" fill="#FFFFFF" height="23.4028" stroke-width="0"/>
     <rect width="2.20833" x="352.125" opacity="0.44" y="165.431" height="59.6944" stroke-width="0"/>
     <polygon opacity="0.2" points="352.125,259.833,352.125,227.333,354.333,225.111,354.333,259.833" stroke-width="0"/>
     <polygon opacity="0.2" points="352.125,259.833,0.0138889,259.833,2.22222,257.625,352.125,257.625" stroke-width="0"/>
     <polygon opacity="0.2" fill="#FFFFFF" points="352.125,227.333,2.22222,227.333,2.22222,225.125,354.333,225.125" stroke-width="0"/>
     <polygon opacity="0.15" points="225.764,222.903,225.764,165.431,227.972,165.431,227.972,225.125" stroke-width="0"/>
     <rect width="2.20833" x="118.833" opacity="0.15" y="165.431" height="59.6944" stroke-width="0"/>
     <rect width="2.20833" x="257.083" opacity="0.2" y="33.6389" fill="#666666" height="78.6389" stroke-width="0"/>
     <polygon opacity="0.2" fill="#666666" points="290.931,116.417,290.931,25.8194,293.139,23.625,293.139,116.417" stroke-width="0"/>
     <polygon opacity="0.2" fill="#666666" points="327.153,165.431,327.153,117.583,329.361,116.417,329.361,165.431" stroke-width="0"/>
     <rect width="2.20833" x="257.083" opacity="0.2" y="23.625" fill="#666666" height="10.0139" stroke-width="0"/>
     <rect width="2.20833" x="257.083" opacity="0.2" y="112.278" fill="#666666" height="4.13889" stroke-width="0"/>
     <polygon opacity="0.5" fill="#FFFFFF" points="290.931,25.8194,257.083,25.8194,257.083,23.625,293.153,23.625" stroke-width="0"/>
    </g>
   </g>
  </g>
  <g transform="translate(161.202,534.05)">
   <rect width="31.93" x="0" y="0" fill="#8D8C8C" height="31.9" id="connector0pin" stroke-width="0"/>
   <rect width="16.4442" x="7.79153" y="7.73544" fill="#8C8663" height="16.4152" stroke-width="0"/>
   <polygon fill="#B8AF82" points="0,31.9,7.79153,24.1368,7.79153,6.97162,0,0" stroke-width="0"/>
   <polygon fill="#80795B" points="24.2079,7.76321,7.90264,7.76321,0,0,31.93,0" stroke-width="0"/>
   <polygon fill="#5E5B43" points="24.2079,24.1368,24.2079,7.76321,31.93,0,31.93,31.9" stroke-width="0"/>
   <polygon fill="#9A916C" points="0,31.9,7.87486,24.1368,24.2079,24.1368,31.93,31.9" stroke-width="0"/>
  </g>
  <g transform="translate(161.202,34.05)">
   <rect width="31.93" x="0" y="0" fill="#8D8C8C" height="31.9" id="connector5pin" stroke-width="0"/>
   <rect width="16.4442" x="7.79153" y="7.73544" fill="#8C8663" height="16.4152" stroke-width="0"/>
   <polygon fill="#B8AF82" points="0,31.9,7.79153,24.1368,7.79153,6.97162,0,0" stroke-width="0"/>
   <polygon fill="#80795B" points="24.2079,7.76321,7.90264,7.76321,0,0,31.93,0" stroke-width="0"/>
   <polygon fill="#5E5B43" points="24.2079,24.1368,24.2079,7.76321,31.93,0,31.93,31.9" stroke-width="0"/>
   <polygon fill="#9A916C" points="0,31.9,7.87486,24.1368,24.2079,24.1368,31.93,31.9" stroke-width="0"/>
  </g>
  <g transform="translate(261.202,534.05)">
   <rect width="31.93" x="0" y="0" fill="#8D8C8C" height="31.9" id="connector1pin" stroke-width="0"/>
   <rect width="16.4442" x="7.79153" y="7.73544" fill="#8C8663" height="16.4152" stroke-width="0"/>
   <polygon fill="#B8AF82" points="0,31.9,7.79153,24.1368,7.79153,6.97162,0,0" stroke-width="0"/>
   <polygon fill="#80795B" points="24.2079,7.76321,7.90264,7.76321,0,0,31.93,0" stroke-width="0"/>
   <polygon fill="#5E5B43" points="24.2079,24.1368,24.2079,7.76321,31.93,0,31.93,31.9" stroke-width="0"/>
   <polygon fill="#9A916C" points="0,31.9,7.87486,24.1368,24.2079,24.1368,31.93,31.9" stroke-width="0"/>
  </g>
  <g transform="translate(261.202,34.05)">
   <rect width="31.93" x="0" y="0" fill="#8D8C8C" height="31.9" id="connector4pin" stroke-width="0"/>
   <rect width="16.4442" x="7.79153" y="7.73544" fill="#8C8663" height="16.4152" stroke-width="0"/>
   <polygon fill="#B8AF82" points="0,31.9,7.79153,24.1368,7.79153,6.97162,0,0" stroke-width="0"/>
   <polygon fill="#80795B" points="24.2079,7.76321,7.90264,7.76321,0,0,31.93,0" stroke-width="0"/>
   <polygon fill="#5E5B43" points="24.2079,24.1368,24.2079,7.76321,31.93,0,31.93,31.9" stroke-width="0"/>
   <polygon fill="#9A916C" points="0,31.9,7.87486,24.1368,24.2079,24.1368,31.93,31.9" stroke-width="0"/>
  </g>
  <g transform="translate(361.202,534.05)">
   <rect width="31.93" x="0" y="0" fill="#8D8C8C" height="31.9" id="connector2pin" stroke-width="0"/>
   <rect width="16.4442" x="7.79153" y="7.73544" fill="#8C8663" height="16.4152" stroke-width="0"/>
   <polygon fill="#B8AF82" points="0,31.9,7.79153,24.1368,7.79153,6.97162,0,0" stroke-width="0"/>
   <polygon fill="#80795B" points="24.2079,7.76321,7.90264,7.76321,0,0,31.93,0" stroke-width="0"/>
   <polygon fill="#5E5B43" points="24.2079,24.1368,24.2079,7.76321,31.93,0,31.93,31.9" stroke-width="0"/>
   <polygon fill="#9A916C" points="0,31.9,7.87486,24.1368,24.2079,24.1368,31.93,31.9" stroke-width="0"/>
  </g>
  <g transform="translate(361.202,34.05)">
   <rect width="31.93" x="0" y="0" fill="#8D8C8C" height="31.9" id="connector3pin" stroke-width="0"/>
   <rect width="16.4442" x="7.79153" y="7.73544" fill="#8C8663" height="16.4152" stroke-width="0"/>
   <polygon fill="#B8AF82" points="0,31.9,7.79153,24.1368,7.79153,6.97162,0,0" stroke-width="0"/>
   <polygon fill="#80795B" points="24.2079,7.76321,7.90264,7.76321,0,0,31.93,0" stroke-width="0"/>
   <polygon fill="#5E5B43" points="24.2079,24.1368,24.2079,7.76321,31.93,0,31.93,31.9" stroke-width="0"/>
   <polygon fill="#9A916C" points="0,31.9,7.87486,24.1368,24.2079,24.1368,31.93,31.9" stroke-width="0"/>
  </g>
 </g>
 <text x="50" y="324.375" font-family="OCRA" fill="white" text-anchor="start" stroke="none" id="label" stroke-width="0" font-size="65"/>
 <g transform="translate(190.667,526.05)">
  <g transform="rotate(-90)">
   <text x="0" y="0" font-family="OCRA" fill="white" text-anchor="start" stroke="none" stroke-width="0" font-size="45"/>
  </g>
 </g>
 <g transform="translate(190.667,73.95)">
  <g transform="rotate(-90)">
   <text x="0" y="0" font-family="OCRA" fill="white" text-anchor="end" stroke="none" stroke-width="0" font-size="45"/>
  </g>
 </g>
 <g transform="translate(290.667,526.05)">
  <g transform="rotate(-90)">
   <text x="0" y="0" font-family="OCRA" fill="white" text-anchor="start" stroke="none" stroke-width="0" font-size="45"/>
  </g>
 </g>
 <g transform="translate(290.667,73.95)">
  <g transform="rotate(-90)">
   <text x="0" y="0" font-family="OCRA" fill="white" text-anchor="end" stroke="none" stroke-width="0" font-size="45"/>
  </g>
 </g>
 <g transform="translate(390.667,526.05)">
  <g transform="rotate(-90)">
   <text x="0" y="0" font-family="OCRA" fill="white" text-anchor="start" stroke="none" stroke-width="0" font-size="45"/>
  </g>
 </g>
 <g transform="translate(390.667,73.95)">
  <g transform="rotate(-90)">
   <text x="0" y="0" font-family="OCRA" fill="white" text-anchor="end" stroke="none" stroke-width="0" font-size="45"/>
  </g>
 </g>
</svg>
