<?xml version='1.0' encoding='UTF-8' standalone='no'?>
<!-- Created with Fritzing (http://www.fritzing.org/) -->
<svg width="0.1in" x="0in" version="1.2" y="0in" xmlns="http://www.w3.org/2000/svg" height="0.6in" viewBox="0 0 100 600" baseProfile="tiny" xmlns:svg="http://www.w3.org/2000/svg">
 <desc>Fritzing breadboard generated by brd2svg</desc>
 <g id="breadboard">
  <g id="icon">
   <path fill="#1F7A34" stroke="none" stroke-width="0" d="M0,0L0,270A30,30 0 0 1 0,330L0,600L100,600L100,0L0,0z"/>
   <g transform="translate(-43.25,196)">
    <g transform="matrix(0.5, 0, 0, 0.5, 46.625, 52)">
     <line stroke="#F7BD13" stroke-linecap="round" y1="179" x1="82.5" y2="4" stroke-width="8" x2="82.5"/>
     <line stroke="#F7BD13" stroke-linecap="round" y1="29" x1="107.5" y2="204" stroke-width="8" x2="107.5"/>
     <line stroke="#F7BD13" stroke-linecap="round" y1="154" x1="132.5" y2="4" stroke-width="8" x2="132.5"/>
     <line stroke="#F7BD13" stroke-linecap="round" y1="29" x1="57.5" y2="204" stroke-width="8" x2="57.5"/>
     <line stroke="#F7BD13" stroke-linecap="round" y1="154" x1="32.5" y2="4" stroke-width="8" x2="32.5"/>
     <line stroke="#F7BD13" stroke-linecap="round" y1="54" x1="7.5" y2="204" stroke-width="8" x2="7.5"/>
     <line stroke="#F7BD13" stroke-linecap="round" y1="54" x1="157.5" y2="204" stroke-width="8" x2="157.5"/>
     <line stroke="#F7BD13" stroke-linecap="round" y1="204" x1="7.5" y2="204" stroke-width="8" x2="182.5"/>
     <line stroke="#F7BD13" stroke-linecap="round" y1="4" x1="32.5" y2="4" stroke-width="8" x2="182.5"/>
     <rect width="8" x="178.5" y="0" fill="#F7BD13" connectorname="1" height="8" stroke="none" stroke-linecap="round" stroke-width="0"/>
     <rect width="8" x="178.5" y="200" fill="#F7BD13" connectorname="2" height="8" stroke="none" stroke-linecap="round" stroke-width="0"/>
     <rect width="165" x="10.75" y="21.5" fill="#303030" height="165" stroke="none" stroke-width="0"/>
     <polygon fill="#1f1f1f" points="10.75,21.5 175.75,21.5 165.75,31.5 20.75,31.5"/>
     <polygon fill="#1f1f1f" points="10.75,186.5 175.75,186.5 165.75,176.5 20.75,176.5"/>
     <polygon fill="#000000" points="10.75,21.5 10.75,186.5 20.75,176.5 20.75,31.5"/>
     <polygon fill="#3d3d3d" points="175.75,21.5 175.75,186.5 165.75,176.5 165.75,31.5"/>
     <circle fill="#1f1f1f" cx="40.75" cy="156.5" stroke="none" r="10" stroke-width="0"/>
    </g>
   </g>
   <text x="50" y="324.375" font-family="OCRA" fill="white" text-anchor="start" stroke="none" id="label" stroke-width="0" font-size="65">BUTTON-CONDUCTIVE</text>
   <g transform="translate(63.5,526.05)">
    <g transform="rotate(-90)">
     <text x="0" y="0" font-family="OCRA" fill="white" text-anchor="start" stroke="none" stroke-width="0" font-size="45">0</text>
    </g>
   </g>
   <g transform="translate(63.5,73.95)">
    <g transform="rotate(-90)">
     <text x="0" y="0" font-family="OCRA" fill="white" text-anchor="end" stroke="none" stroke-width="0" font-size="45">1</text>
    </g>
   </g>
  </g>
  <g transform="translate(34.035,534.05)">
   <rect width="31.93" x="0" y="0" fill="#8D8C8C" height="31.9" id="connector0pad" stroke-width="0"/>
   <rect width="16.4442" x="7.79153" y="7.73544" fill="#8C8663" height="16.4152" stroke-width="0"/>
   <polygon fill="#B8AF82" points="0,31.9,7.79153,24.1368,7.79153,6.97162,0,0" stroke-width="0"/>
   <polygon fill="#80795B" points="24.2079,7.76321,7.90264,7.76321,0,0,31.93,0" stroke-width="0"/>
   <polygon fill="#5E5B43" points="24.2079,24.1368,24.2079,7.76321,31.93,0,31.93,31.9" stroke-width="0"/>
   <polygon fill="#9A916C" points="0,31.9,7.87486,24.1368,24.2079,24.1368,31.93,31.9" stroke-width="0"/>
  </g>
  <g transform="translate(34.035,34.05)">
   <rect width="31.93" x="0" y="0" fill="#8D8C8C" height="31.9" id="connector1pad" stroke-width="0"/>
   <rect width="16.4442" x="7.79153" y="7.73544" fill="#8C8663" height="16.4152" stroke-width="0"/>
   <polygon fill="#B8AF82" points="0,31.9,7.79153,24.1368,7.79153,6.97162,0,0" stroke-width="0"/>
   <polygon fill="#80795B" points="24.2079,7.76321,7.90264,7.76321,0,0,31.93,0" stroke-width="0"/>
   <polygon fill="#5E5B43" points="24.2079,24.1368,24.2079,7.76321,31.93,0,31.93,31.9" stroke-width="0"/>
   <polygon fill="#9A916C" points="0,31.9,7.87486,24.1368,24.2079,24.1368,31.93,31.9" stroke-width="0"/>
  </g>
 </g>
</svg>
