<?xml version='1.0' encoding='UTF-8' standalone='no'?>
<!-- Created with Fritzing (http://www.fritzing.org/) -->
<svg width="0.397866in" x="0in" version="1.2" y="0in" xmlns="http://www.w3.org/2000/svg" height="0.6in" viewBox="0 0 397.866 600" baseProfile="tiny" xmlns:svg="http://www.w3.org/2000/svg">
 <desc>Fritzing breadboard generated by brd2svg</desc>
 <g id="breadboard">
  <g id="icon">
   <path fill="#1F7A34" stroke="none" stroke-width="0" d="M0,0L0,270A30,30 0 0 1 0,330L0,600L397.866,600L397.866,0L0,0z"/>
   <g transform="translate(1.06693,91.3386)">
    <g transform="matrix(0.5, 0, 0, 0.5, 98.9331, 104.331)">
     <circle fill="none" cx="163.386" cy="208.661" connectorname="SHELL" stroke="#F7BD13" r="50.2756" stroke-width="9.99999"/>
     <circle fill="none" cx="309.055" cy="62.9922" connectorname="PIN" stroke="#F7BD13" r="50.2756" stroke-width="9.99999"/>
     <circle fill="none" cx="309.055" cy="354.331" connectorname="SWITCH" stroke="#F7BD13" r="50.2756" stroke-width="9.99999"/>
     <circle fill="black" cx="41.3386" cy="41.3386" stroke="black" r="41.3386" id="nonconn0" stroke-width="0"/>
     <circle fill="black" cx="41.3386" cy="375.984" stroke="black" r="41.3386" id="nonconn1" stroke-width="0"/>
     <rect width="393.827" x="0.952756" y="7.81102" fill="#303030" height="401.701" stroke="none" stroke-width="0"/>
     <polygon fill="#1f1f1f" points="0.952756,7.81102 394.78,7.81102 384.78,17.811 10.9528,17.811"/>
     <polygon fill="#1f1f1f" points="0.952756,409.512 394.78,409.512 384.78,399.512 10.9528,399.512"/>
     <polygon fill="#000000" points="0.952756,7.81102 0.952756,409.512 10.9528,399.512 10.9528,17.811"/>
     <polygon fill="#3d3d3d" points="394.78,7.81102 394.78,409.512 384.78,399.512 384.78,17.811"/>
     <circle fill="#1f1f1f" cx="30.9528" cy="379.512" stroke="none" r="10" stroke-width="0"/>
    </g>
   </g>
   <text x="50" y="324.375" font-family="OCRA" fill="white" text-anchor="start" stroke="none" id="label" stroke-width="0" font-size="65">RCA</text>
   <g transform="translate(162.433,526.05)">
    <g transform="rotate(-90)">
     <text x="0" y="0" font-family="OCRA" fill="white" text-anchor="start" stroke="none" stroke-width="0" font-size="45">PIN</text>
    </g>
   </g>
   <g transform="translate(262.433,526.05)">
    <g transform="rotate(-90)">
     <text x="0" y="0" font-family="OCRA" fill="white" text-anchor="start" stroke="none" stroke-width="0" font-size="45">SHELL</text>
    </g>
   </g>
   <g transform="translate(262.433,73.95)">
    <g transform="rotate(-90)">
     <text x="0" y="0" font-family="OCRA" fill="white" text-anchor="end" stroke="none" stroke-width="0" font-size="45">SWITCH</text>
    </g>
   </g>
  </g>
  <g transform="translate(132.968,534.05)">
   <rect width="31.93" x="0" y="0" fill="#8D8C8C" height="31.9" id="connector0pin" stroke-width="0"/>
   <rect width="16.4442" x="7.79153" y="7.73544" fill="#8C8663" height="16.4152" stroke-width="0"/>
   <polygon fill="#B8AF82" points="0,31.9,7.79153,24.1368,7.79153,6.97162,0,0" stroke-width="0"/>
   <polygon fill="#80795B" points="24.2079,7.76321,7.90264,7.76321,0,0,31.93,0" stroke-width="0"/>
   <polygon fill="#5E5B43" points="24.2079,24.1368,24.2079,7.76321,31.93,0,31.93,31.9" stroke-width="0"/>
   <polygon fill="#9A916C" points="0,31.9,7.87486,24.1368,24.2079,24.1368,31.93,31.9" stroke-width="0"/>
  </g>
  <g transform="translate(232.968,534.05)">
   <rect width="31.93" x="0" y="0" fill="#8D8C8C" height="31.9" id="connector1pin" stroke-width="0"/>
   <rect width="16.4442" x="7.79153" y="7.73544" fill="#8C8663" height="16.4152" stroke-width="0"/>
   <polygon fill="#B8AF82" points="0,31.9,7.79153,24.1368,7.79153,6.97162,0,0" stroke-width="0"/>
   <polygon fill="#80795B" points="24.2079,7.76321,7.90264,7.76321,0,0,31.93,0" stroke-width="0"/>
   <polygon fill="#5E5B43" points="24.2079,24.1368,24.2079,7.76321,31.93,0,31.93,31.9" stroke-width="0"/>
   <polygon fill="#9A916C" points="0,31.9,7.87486,24.1368,24.2079,24.1368,31.93,31.9" stroke-width="0"/>
  </g>
  <g transform="translate(232.968,34.05)">
   <rect width="31.93" x="0" y="0" fill="#8D8C8C" height="31.9" id="connector2pin" stroke-width="0"/>
   <rect width="16.4442" x="7.79153" y="7.73544" fill="#8C8663" height="16.4152" stroke-width="0"/>
   <polygon fill="#B8AF82" points="0,31.9,7.79153,24.1368,7.79153,6.97162,0,0" stroke-width="0"/>
   <polygon fill="#80795B" points="24.2079,7.76321,7.90264,7.76321,0,0,31.93,0" stroke-width="0"/>
   <polygon fill="#5E5B43" points="24.2079,24.1368,24.2079,7.76321,31.93,0,31.93,31.9" stroke-width="0"/>
   <polygon fill="#9A916C" points="0,31.9,7.87486,24.1368,24.2079,24.1368,31.93,31.9" stroke-width="0"/>
  </g>
 </g>
</svg>
