<?xml version='1.0' encoding='UTF-8' standalone='no'?>
<!-- Created with Fritzing (http://www.fritzing.org/) -->
<svg width="0.52975in" x="0in" version="1.2" y="0in" xmlns="http://www.w3.org/2000/svg" height="0.6in" viewBox="0 0 529.75 600" baseProfile="tiny" xmlns:svg="http://www.w3.org/2000/svg">
 <desc>Fritzing breadboard generated by brd2svg</desc>
 <g id="breadboard">
  <g id="icon">
   <path fill="#1F7A34" stroke="none" stroke-width="0" d="M0,0L0,270A30,30 0 0 1 0,330L0,600L529.75,600L529.75,0L0,0z"/>
   <g transform="translate(100,170.445)">
    <g stroke-width="0">
     <g stroke-width="0">
      <g stroke-width="0">
       <rect width="12.2917" x="259.514" y="0" fill="#E6E6E6" height="45.9028" stroke-width="0"/>
      </g>
      <g stroke-width="0">
       <rect width="12.2917" x="259.514" y="8.55556" fill="#CCCCCC" height="37.3333" stroke-width="0"/>
      </g>
     </g>
     <g stroke-width="0">
      <g stroke-width="0">
       <rect width="12.3056" x="220.014" y="0" fill="#E6E6E6" height="45.9028" stroke-width="0"/>
      </g>
      <g stroke-width="0">
       <rect width="12.3056" x="220.014" y="8.55556" fill="#CCCCCC" height="37.3333" stroke-width="0"/>
      </g>
     </g>
     <g stroke-width="0">
      <g stroke-width="0">
       <rect width="12.2917" x="180.542" y="0" fill="#E6E6E6" height="45.9028" stroke-width="0"/>
      </g>
      <g stroke-width="0">
       <rect width="12.2917" x="180.542" y="8.55556" fill="#CCCCCC" height="37.3333" stroke-width="0"/>
      </g>
     </g>
     <g stroke-width="0">
      <g stroke-width="0">
       <rect width="12.2917" x="141.056" y="0" fill="#E6E6E6" height="45.9028" stroke-width="0"/>
      </g>
      <g stroke-width="0">
       <rect width="12.2917" x="141.056" y="8.55556" fill="#CCCCCC" height="37.3333" stroke-width="0"/>
      </g>
     </g>
     <g stroke-width="0">
      <g stroke-width="0">
       <rect width="12.2917" x="101.569" y="0" fill="#E6E6E6" height="45.9028" stroke-width="0"/>
      </g>
      <g stroke-width="0">
       <rect width="12.2917" x="101.569" y="8.55556" fill="#CCCCCC" height="37.3333" stroke-width="0"/>
      </g>
     </g>
     <g stroke-width="0">
      <g stroke-width="0">
       <rect width="12.3056" x="62.0833" y="0" fill="#E6E6E6" height="45.9028" stroke-width="0"/>
      </g>
      <g stroke-width="0">
       <rect width="12.3056" x="62.0833" y="8.55556" fill="#CCCCCC" height="37.3333" stroke-width="0"/>
      </g>
     </g>
     <g stroke-width="0">
      <g stroke-width="0">
       <g id="silkscreen" stroke-width="0">
        <rect width="329.75" x="0" y="19.9722" fill="#E6E6E6" height="167.319" stroke-width="0"/>
       </g>
       <g id="silkscreen_1_" stroke-width="0">
        <rect width="316.722" x="3.54167" y="187.292" fill="#808080" height="59.9722" stroke-width="0"/>
       </g>
       <path fill="#CCCCCC" stroke-width="0" d="M329.722,187.292L0,187.292l0,71.7778l329.75,0l0,-71.7778L329.722,187.292zM26.375,247.278l0,-15.2222L11.8194,232.056l0,-13.5694L26.3889,218.486l0,-19.4028l276.5,0l0,19.4028l15.0556,0l0,13.5694l-15.0556,0l0,15.2222L26.375,247.278z"/>
       <g stroke-width="0">
        <g stroke-width="0">
         <rect width="10.0139" x="265.958" y="219.042" fill="#E6E6E6" height="10" stroke-width="0"/>
         <rect width="10.0139" x="265.958" y="199.111" fill="#999999" height="19.9444" stroke-width="0"/>
        </g>
        <g stroke-width="0">
         <rect width="10.0278" x="223.667" y="219.042" fill="#E6E6E6" height="10" stroke-width="0"/>
         <rect width="10.0278" x="223.667" y="199.111" fill="#999999" height="19.9444" stroke-width="0"/>
        </g>
        <g stroke-width="0">
         <rect width="10" x="181.375" y="219.042" fill="#E6E6E6" height="10" stroke-width="0"/>
         <rect width="10" x="181.375" y="199.111" fill="#999999" height="19.9444" stroke-width="0"/>
        </g>
        <g stroke-width="0">
         <rect width="10" x="139.097" y="219.042" fill="#E6E6E6" height="10" stroke-width="0"/>
         <rect width="10" x="139.097" y="199.111" fill="#999999" height="19.9444" stroke-width="0"/>
        </g>
        <g stroke-width="0">
         <rect width="10" x="96.8056" y="219.042" fill="#E6E6E6" height="10" stroke-width="0"/>
         <rect width="10" x="96.8056" y="199.111" fill="#999999" height="19.9444" stroke-width="0"/>
        </g>
        <g stroke-width="0">
         <rect width="10" x="54.5139" y="219.042" fill="#E6E6E6" height="10" stroke-width="0"/>
         <rect width="10" x="54.5139" y="199.111" fill="#999999" height="19.9444" stroke-width="0"/>
        </g>
       </g>
      </g>
     </g>
     <g stroke-width="0">
      <rect width="11.8194" x="0" y="159.597" fill="#999999" height="27.6944" stroke-width="0"/>
      <rect width="11.8194" x="0" y="179.347" fill="#808080" height="27.6944" stroke-width="0"/>
     </g>
     <g stroke-width="0">
      <rect width="11.8056" x="317.944" y="159.597" fill="#999999" height="27.6944" stroke-width="0"/>
      <rect width="11.8056" x="317.944" y="179.347" fill="#808080" height="27.6944" stroke-width="0"/>
     </g>
     <rect width="3.54167" x="0" opacity="0.3" y="19.9722" fill="#FFFFFF" height="139.625" enable-background="new    " stroke-width="0"/>
     <rect width="3.54167" x="11.8194" opacity="0.3" y="159.597" fill="#FFFFFF" height="27.6944" enable-background="new    " stroke-width="0"/>
     <rect width="3.54167" x="19.1667" opacity="0.3" y="45.8889" fill="#FFFFFF" height="141.417" enable-background="new    " stroke-width="0"/>
     <rect width="3.54167" x="8.26389" opacity="0.3" y="218.5" fill="#FFFFFF" height="13.5694" enable-background="new    " stroke-width="0"/>
     <rect width="3.55556" x="317.944" opacity="0.3" y="218.5" fill="#FFFFFF" height="13.5694" enable-background="new    " stroke-width="0"/>
     <rect width="3.54167" x="22.7083" opacity="0.3" y="199.111" fill="#FFFFFF" height="19.3889" enable-background="new    " stroke-width="0"/>
     <rect width="3.56944" x="302.736" opacity="0.3" y="195.556" fill="#FFFFFF" height="22.9444" enable-background="new    " stroke-width="0"/>
     <rect width="11.8194" x="3.55556" opacity="0.3" y="156.042" fill="#FFFFFF" height="3.55556" enable-background="new    " stroke-width="0"/>
     <rect width="3.79167" x="15.375" opacity="0.3" y="183.736" fill="#FFFFFF" height="3.55556" enable-background="new    " stroke-width="0"/>
     <rect width="14.4444" x="8.26389" opacity="0.3" y="214.958" fill="#FFFFFF" height="3.55556" enable-background="new    " stroke-width="0"/>
     <rect width="15.1944" x="306.306" opacity="0.3" y="214.958" fill="#FFFFFF" height="3.55556" enable-background="new    " stroke-width="0"/>
     <rect width="276.5" x="26.2639" opacity="0.3" y="247.278" fill="#FFFFFF" height="3.55556" enable-background="new    " stroke-width="0"/>
     <rect width="280.056" x="22.7083" opacity="0.3" y="195.556" fill="#FFFFFF" height="3.55556" enable-background="new    " stroke-width="0"/>
     <polygon opacity="0.3" fill="#FFFFFF" points="329.75,19.9722,326.208,23.5139,3.55556,23.5139,3.55556,19.9722" enable-background="new    " stroke-width="0"/>
     <polygon opacity="0.3" fill="#FFFFFF" points="309.889,42.3472,306.333,45.9028,19.1667,45.9028,19.1667,42.3472" enable-background="new    " stroke-width="0"/>
     <polygon opacity="0.1" points="329.75,159.597,326.208,159.597,326.208,23.5139,329.75,19.9722" enable-background="new    " stroke-width="0"/>
     <polygon opacity="0.1" points="309.861,187.292,306.306,187.292,306.306,45.9028,309.861,42.3472" enable-background="new    " stroke-width="0"/>
     <rect width="3.625" x="314.319" opacity="0.1" y="159.597" height="27.6944" enable-background="new    " stroke-width="0"/>
     <rect width="11.875" x="314.319" opacity="0.1" y="156" height="3.59722" enable-background="new    " stroke-width="0"/>
     <rect width="3.61111" x="326.153" opacity="0.1" y="207.083" height="52.0278" enable-background="new    " stroke-width="0"/>
     <rect width="326.139" x="0.0277778" opacity="0.1" y="255.458" height="3.59722" enable-background="new    " stroke-width="0"/>
     <rect width="283.597" x="22.7083" opacity="0.42" y="45.8889" fill="#CCCCCC" height="141.417" enable-background="new    " stroke-width="0"/>
     <rect width="14.5694" x="11.8194" y="218.5" fill="#666666" height="13.5694" stroke-width="0"/>
     <rect width="15.3333" x="302.597" y="218.5" fill="#666666" height="13.5694" stroke-width="0"/>
    </g>
    <g opacity="0.3" stroke-width="0">
     <g stroke-width="0">
      <rect width="3.56944" x="265.958" y="199.111" fill="#FFFFFF" height="20.2778" stroke-width="0"/>
     </g>
     <g stroke-width="0">
      <rect width="3.55556" x="223.667" y="199.111" fill="#FFFFFF" height="20.2778" stroke-width="0"/>
     </g>
     <g stroke-width="0">
      <rect width="3.54167" x="181.375" y="199.111" fill="#FFFFFF" height="20.2778" stroke-width="0"/>
     </g>
     <g stroke-width="0">
      <rect width="3.55556" x="139.097" y="199.111" fill="#FFFFFF" height="20.2778" stroke-width="0"/>
     </g>
     <g stroke-width="0">
      <rect width="3.55556" x="96.8056" y="199.111" fill="#FFFFFF" height="20.2778" stroke-width="0"/>
     </g>
     <g stroke-width="0">
      <rect width="3.54167" x="54.5139" y="199.111" fill="#FFFFFF" height="20.2778" stroke-width="0"/>
     </g>
    </g>
    <g opacity="0.3" stroke-width="0">
     <g stroke-width="0">
      <rect width="3.55556" x="259.514" y="0" fill="#FFFFFF" height="20.2778" stroke-width="0"/>
     </g>
     <g stroke-width="0">
      <rect width="3.56944" x="220.014" y="0" fill="#FFFFFF" height="20.2778" stroke-width="0"/>
     </g>
     <g stroke-width="0">
      <rect width="3.55556" x="180.542" y="0" fill="#FFFFFF" height="20.2778" stroke-width="0"/>
     </g>
     <g stroke-width="0">
      <rect width="3.55556" x="141.056" y="0" fill="#FFFFFF" height="20.2778" stroke-width="0"/>
     </g>
     <g stroke-width="0">
      <rect width="3.55556" x="101.569" y="0" fill="#FFFFFF" height="20.2778" stroke-width="0"/>
     </g>
     <g stroke-width="0">
      <rect width="3.55556" x="62.0833" y="0" fill="#FFFFFF" height="20.2778" stroke-width="0"/>
     </g>
    </g>
   </g>
  </g>
  <g transform="translate(98.91,534.05)">
   <rect width="31.93" x="0" y="0" fill="#8D8C8C" height="31.9" id="connector0pin" stroke-width="0"/>
   <rect width="16.4442" x="7.79153" y="7.73544" fill="#8C8663" height="16.4152" stroke-width="0"/>
   <polygon fill="#B8AF82" points="0,31.9,7.79153,24.1368,7.79153,6.97162,0,0" stroke-width="0"/>
   <polygon fill="#80795B" points="24.2079,7.76321,7.90264,7.76321,0,0,31.93,0" stroke-width="0"/>
   <polygon fill="#5E5B43" points="24.2079,24.1368,24.2079,7.76321,31.93,0,31.93,31.9" stroke-width="0"/>
   <polygon fill="#9A916C" points="0,31.9,7.87486,24.1368,24.2079,24.1368,31.93,31.9" stroke-width="0"/>
  </g>
  <g transform="translate(98.91,34.05)">
   <rect width="31.93" x="0" y="0" fill="#8D8C8C" height="31.9" id="connector7pin" stroke-width="0"/>
   <rect width="16.4442" x="7.79153" y="7.73544" fill="#8C8663" height="16.4152" stroke-width="0"/>
   <polygon fill="#B8AF82" points="0,31.9,7.79153,24.1368,7.79153,6.97162,0,0" stroke-width="0"/>
   <polygon fill="#80795B" points="24.2079,7.76321,7.90264,7.76321,0,0,31.93,0" stroke-width="0"/>
   <polygon fill="#5E5B43" points="24.2079,24.1368,24.2079,7.76321,31.93,0,31.93,31.9" stroke-width="0"/>
   <polygon fill="#9A916C" points="0,31.9,7.87486,24.1368,24.2079,24.1368,31.93,31.9" stroke-width="0"/>
  </g>
  <g transform="translate(198.91,534.05)">
   <rect width="31.93" x="0" y="0" fill="#8D8C8C" height="31.9" id="connector1pin" stroke-width="0"/>
   <rect width="16.4442" x="7.79153" y="7.73544" fill="#8C8663" height="16.4152" stroke-width="0"/>
   <polygon fill="#B8AF82" points="0,31.9,7.79153,24.1368,7.79153,6.97162,0,0" stroke-width="0"/>
   <polygon fill="#80795B" points="24.2079,7.76321,7.90264,7.76321,0,0,31.93,0" stroke-width="0"/>
   <polygon fill="#5E5B43" points="24.2079,24.1368,24.2079,7.76321,31.93,0,31.93,31.9" stroke-width="0"/>
   <polygon fill="#9A916C" points="0,31.9,7.87486,24.1368,24.2079,24.1368,31.93,31.9" stroke-width="0"/>
  </g>
  <g transform="translate(198.91,34.05)">
   <rect width="31.93" x="0" y="0" fill="#8D8C8C" height="31.9" id="connector6pin" stroke-width="0"/>
   <rect width="16.4442" x="7.79153" y="7.73544" fill="#8C8663" height="16.4152" stroke-width="0"/>
   <polygon fill="#B8AF82" points="0,31.9,7.79153,24.1368,7.79153,6.97162,0,0" stroke-width="0"/>
   <polygon fill="#80795B" points="24.2079,7.76321,7.90264,7.76321,0,0,31.93,0" stroke-width="0"/>
   <polygon fill="#5E5B43" points="24.2079,24.1368,24.2079,7.76321,31.93,0,31.93,31.9" stroke-width="0"/>
   <polygon fill="#9A916C" points="0,31.9,7.87486,24.1368,24.2079,24.1368,31.93,31.9" stroke-width="0"/>
  </g>
  <g transform="translate(298.91,534.05)">
   <rect width="31.93" x="0" y="0" fill="#8D8C8C" height="31.9" id="connector2pin" stroke-width="0"/>
   <rect width="16.4442" x="7.79153" y="7.73544" fill="#8C8663" height="16.4152" stroke-width="0"/>
   <polygon fill="#B8AF82" points="0,31.9,7.79153,24.1368,7.79153,6.97162,0,0" stroke-width="0"/>
   <polygon fill="#80795B" points="24.2079,7.76321,7.90264,7.76321,0,0,31.93,0" stroke-width="0"/>
   <polygon fill="#5E5B43" points="24.2079,24.1368,24.2079,7.76321,31.93,0,31.93,31.9" stroke-width="0"/>
   <polygon fill="#9A916C" points="0,31.9,7.87486,24.1368,24.2079,24.1368,31.93,31.9" stroke-width="0"/>
  </g>
  <g transform="translate(298.91,34.05)">
   <rect width="31.93" x="0" y="0" fill="#8D8C8C" height="31.9" id="connector5pin" stroke-width="0"/>
   <rect width="16.4442" x="7.79153" y="7.73544" fill="#8C8663" height="16.4152" stroke-width="0"/>
   <polygon fill="#B8AF82" points="0,31.9,7.79153,24.1368,7.79153,6.97162,0,0" stroke-width="0"/>
   <polygon fill="#80795B" points="24.2079,7.76321,7.90264,7.76321,0,0,31.93,0" stroke-width="0"/>
   <polygon fill="#5E5B43" points="24.2079,24.1368,24.2079,7.76321,31.93,0,31.93,31.9" stroke-width="0"/>
   <polygon fill="#9A916C" points="0,31.9,7.87486,24.1368,24.2079,24.1368,31.93,31.9" stroke-width="0"/>
  </g>
  <g transform="translate(398.91,534.05)">
   <rect width="31.93" x="0" y="0" fill="#8D8C8C" height="31.9" id="connector3pin" stroke-width="0"/>
   <rect width="16.4442" x="7.79153" y="7.73544" fill="#8C8663" height="16.4152" stroke-width="0"/>
   <polygon fill="#B8AF82" points="0,31.9,7.79153,24.1368,7.79153,6.97162,0,0" stroke-width="0"/>
   <polygon fill="#80795B" points="24.2079,7.76321,7.90264,7.76321,0,0,31.93,0" stroke-width="0"/>
   <polygon fill="#5E5B43" points="24.2079,24.1368,24.2079,7.76321,31.93,0,31.93,31.9" stroke-width="0"/>
   <polygon fill="#9A916C" points="0,31.9,7.87486,24.1368,24.2079,24.1368,31.93,31.9" stroke-width="0"/>
  </g>
  <g transform="translate(398.91,34.05)">
   <rect width="31.93" x="0" y="0" fill="#8D8C8C" height="31.9" id="connector4pin" stroke-width="0"/>
   <rect width="16.4442" x="7.79153" y="7.73544" fill="#8C8663" height="16.4152" stroke-width="0"/>
   <polygon fill="#B8AF82" points="0,31.9,7.79153,24.1368,7.79153,6.97162,0,0" stroke-width="0"/>
   <polygon fill="#80795B" points="24.2079,7.76321,7.90264,7.76321,0,0,31.93,0" stroke-width="0"/>
   <polygon fill="#5E5B43" points="24.2079,24.1368,24.2079,7.76321,31.93,0,31.93,31.9" stroke-width="0"/>
   <polygon fill="#9A916C" points="0,31.9,7.87486,24.1368,24.2079,24.1368,31.93,31.9" stroke-width="0"/>
  </g>
 </g>
 <text x="50" y="324.375" font-family="OCRA" fill="white" text-anchor="start" stroke="none" id="label" stroke-width="0" font-size="65">EM406</text>
 <g transform="translate(128.375,526.05)">
  <g transform="rotate(-90)">
   <text x="0" y="0" font-family="OCRA" fill="white" text-anchor="start" stroke="none" stroke-width="0" font-size="45">1</text>
  </g>
 </g>
 <g transform="translate(128.375,73.95)">
  <g transform="rotate(-90)">
   <text x="0" y="0" font-family="OCRA" fill="white" text-anchor="end" stroke="none" stroke-width="0" font-size="45">6</text>
  </g>
 </g>
 <g transform="translate(228.375,526.05)">
  <g transform="rotate(-90)">
   <text x="0" y="0" font-family="OCRA" fill="white" text-anchor="start" stroke="none" stroke-width="0" font-size="45">P$1</text>
  </g>
 </g>
 <g transform="translate(228.375,73.95)">
  <g transform="rotate(-90)">
   <text x="0" y="0" font-family="OCRA" fill="white" text-anchor="end" stroke="none" stroke-width="0" font-size="45">5</text>
  </g>
 </g>
 <g transform="translate(328.375,526.05)">
  <g transform="rotate(-90)">
   <text x="0" y="0" font-family="OCRA" fill="white" text-anchor="start" stroke="none" stroke-width="0" font-size="45">2</text>
  </g>
 </g>
 <g transform="translate(328.375,73.95)">
  <g transform="rotate(-90)">
   <text x="0" y="0" font-family="OCRA" fill="white" text-anchor="end" stroke="none" stroke-width="0" font-size="45">4</text>
  </g>
 </g>
 <g transform="translate(428.375,526.05)">
  <g transform="rotate(-90)">
   <text x="0" y="0" font-family="OCRA" fill="white" text-anchor="start" stroke="none" stroke-width="0" font-size="45">P$2</text>
  </g>
 </g>
 <g transform="translate(428.375,73.95)">
  <g transform="rotate(-90)">
   <text x="0" y="0" font-family="OCRA" fill="white" text-anchor="end" stroke="none" stroke-width="0" font-size="45">3</text>
  </g>
 </g>
</svg>
