<?xml version="1.0" encoding="utf-8"?>
<!-- Generator: Adobe Illustrator 15.1.0, SVG Export Plug-In . SVG Version: 6.00 Build 0)  -->
<!DOCTYPE svg PUBLIC "-//W3C//DTD SVG 1.1//EN" "http://www.w3.org/Graphics/SVG/1.1/DTD/svg11.dtd">
<svg version="1.1" id="Ebene_1" xmlns:svg="http://www.w3.org/2000/svg"
	 xmlns="http://www.w3.org/2000/svg" xmlns:xlink="http://www.w3.org/1999/xlink" x="0px" y="0px" width="114.48px"
	 height="36.864px" viewBox="0 0 114.48 36.864" enable-background="new 0 0 114.48 36.864" xml:space="preserve">
<g id="breadboard">
	<circle id="connector0pin" fill="none" stroke="#9A916C" stroke-width="0.4898" cx="32.04" cy="32.832" r="1.97"/>
	<circle id="connector1pin" fill="none" stroke="#9A916C" stroke-width="0.4898" cx="39.24" cy="32.832" r="1.97"/>
	<circle id="connector2pin" fill="none" stroke="#9A916C" stroke-width="0.4898" cx="46.44" cy="32.832" r="1.97"/>
	<circle id="connector3pin" fill="none" stroke="#9A916C" stroke-width="0.4898" cx="53.64" cy="32.832" r="1.97"/>
	<circle id="connector4pin" fill="none" stroke="#9A916C" stroke-width="0.4898" cx="60.84" cy="32.832" r="1.97"/>
	<circle id="connector5pin" fill="none" stroke="#9A916C" stroke-width="0.4898" cx="68.04" cy="32.832" r="1.97"/>
	<circle id="connector6pin" fill="none" stroke="#9A916C" stroke-width="0.4898" cx="75.24" cy="32.832" r="1.97"/>
	<circle id="connector7pin" fill="none" stroke="#9A916C" stroke-width="0.4898" cx="82.44" cy="32.832" r="1.97"/>
	<circle id="connector8pin" fill="none" stroke="#9A916C" stroke-width="0.4898" cx="82.44" cy="4.032" r="1.97"/>
	<circle id="connector10pin" fill="none" stroke="#9A916C" stroke-width="0.4898" cx="68.04" cy="4.032" r="1.97"/>
	<circle id="connector12pin" fill="none" stroke="#9A916C" stroke-width="0.4898" cx="53.64" cy="4.032" r="1.97"/>
	<circle id="connector13pin" fill="none" stroke="#9A916C" stroke-width="0.4898" cx="46.44" cy="4.032" r="1.97"/>
	<circle id="connector14pin" fill="none" stroke="#9A916C" stroke-width="0.4898" cx="39.24" cy="4.032" r="1.97"/>
	<circle id="connector15pin" fill="none" stroke="#9A916C" stroke-width="0.4898" cx="32.04" cy="4.032" r="1.97"/>
</g>
<text transform="matrix(1 0 0 1 -366.26 -1112.0679)"><tspan x="0" y="0" font-family="'MyriadPro-Regular'" font-size="12">&lt;module fritzingVersion=&quot;0.7.5b.06.14.6067&quot;&gt;</tspan><tspan x="0" y="14.4" font-family="'MyriadPro-Regular'" font-size="12"> &lt;boundingRects&gt;</tspan><tspan x="0" y="28.8" font-family="'MyriadPro-Regular'" font-size="12">  &lt;boundingRect rect=&quot;209.502 183.854 46.25 63.75&quot; name=&quot;Steckplatinen-Ansicht&quot;/&gt;</tspan><tspan x="0" y="43.2" font-family="'MyriadPro-Regular'" font-size="12">  &lt;boundingRect rect=&quot;0 0 0 0&quot; name=&quot;Leiterplattenansicht&quot;/&gt;</tspan><tspan x="0" y="57.6" font-family="'MyriadPro-Regular'" font-size="12">  &lt;boundingRect rect=&quot;0 0 0 0&quot; name=&quot;Schaltplan-Ansicht&quot;/&gt;</tspan><tspan x="0" y="72" font-family="'MyriadPro-Regular'" font-size="12"> &lt;/boundingRects&gt;</tspan><tspan x="0" y="86.4" font-family="'MyriadPro-Regular'" font-size="12"> &lt;instances&gt;</tspan><tspan x="0" y="100.8" font-family="'MyriadPro-Regular'" font-size="12">  &lt;instance moduleIdRef=&quot;7segment13an&quot; modelIndex=&quot;632884&quot; path=&quot;C:/Users/l.joevarson/Documents/__FRITZING/fritzing-source/parts/core/7segment_13_an.fzp&quot;&gt;</tspan><tspan x="0" y="115.2" font-family="'MyriadPro-Regular'" font-size="12">   &lt;title&gt;7 Segment1&lt;/title&gt;</tspan><tspan x="0" y="129.6" font-family="'MyriadPro-Regular'" font-size="12">   &lt;views&gt;</tspan><tspan x="0" y="144" font-family="'MyriadPro-Regular'" font-size="12">    &lt;schematicView layer=&quot;schematic&quot;&gt;</tspan><tspan x="0" y="158.4" font-family="'MyriadPro-Regular'" font-size="12">     &lt;geometry x=&quot;91&quot; y=&quot;159&quot; z=&quot;2.5&quot;/&gt;</tspan><tspan x="0" y="172.8" font-family="'MyriadPro-Regular'" font-size="12">     &lt;titleGeometry x=&quot;514.75&quot; xOffset=&quot;423.75&quot; y=&quot;145&quot; yOffset=&quot;-14&quot; z=&quot;5.50004&quot; fontSize=&quot;9&quot; visible=&quot;true&quot; textColor=&quot;#000000&quot;&gt;</tspan><tspan x="0" y="187.2" font-family="'MyriadPro-Regular'" font-size="12">      &lt;displayKey key=&quot;&quot;/&gt;</tspan><tspan x="0" y="201.6" font-family="'MyriadPro-Regular'" font-size="12">      &lt;displayKey key=&quot;part number&quot;/&gt;</tspan><tspan x="0" y="216" font-family="'MyriadPro-Regular'" font-size="12">     &lt;/titleGeometry&gt;</tspan><tspan x="0" y="230.4" font-family="'MyriadPro-Regular'" font-size="12">     &lt;connectors&gt;</tspan><tspan x="0" y="244.8" font-family="'MyriadPro-Regular'" font-size="12">      &lt;connector connectorId=&quot;connector3&quot; layer=&quot;schematic&quot;&gt;</tspan><tspan x="0" y="259.2" font-family="'MyriadPro-Regular'" font-size="12">       &lt;geometry x=&quot;0&quot; y=&quot;0&quot;/&gt;</tspan><tspan x="0" y="273.6" font-family="'MyriadPro-Regular'" font-size="12">       &lt;connects/&gt;</tspan><tspan x="0" y="288" font-family="'MyriadPro-Regular'" font-size="12">      &lt;/connector&gt;</tspan><tspan x="0" y="302.4" font-family="'MyriadPro-Regular'" font-size="12">      &lt;connector connectorId=&quot;connector4&quot; layer=&quot;schematic&quot;&gt;</tspan><tspan x="0" y="316.8" font-family="'MyriadPro-Regular'" font-size="12">       &lt;geometry x=&quot;0&quot; y=&quot;0&quot;/&gt;</tspan><tspan x="0" y="331.2" font-family="'MyriadPro-Regular'" font-size="12">       &lt;connects/&gt;</tspan><tspan x="0" y="345.6" font-family="'MyriadPro-Regular'" font-size="12">      &lt;/connector&gt;</tspan><tspan x="0" y="360" font-family="'MyriadPro-Regular'" font-size="12">      &lt;connector connectorId=&quot;connector5&quot; layer=&quot;schematic&quot;&gt;</tspan><tspan x="0" y="374.4" font-family="'MyriadPro-Regular'" font-size="12">       &lt;geometry x=&quot;0&quot; y=&quot;0&quot;/&gt;</tspan><tspan x="0" y="388.8" font-family="'MyriadPro-Regular'" font-size="12">       &lt;connects/&gt;</tspan><tspan x="0" y="403.2" font-family="'MyriadPro-Regular'" font-size="12">      &lt;/connector&gt;</tspan><tspan x="0" y="417.6" font-family="'MyriadPro-Regular'" font-size="12">      &lt;connector connectorId=&quot;connector6&quot; layer=&quot;schematic&quot;&gt;</tspan><tspan x="0" y="432" font-family="'MyriadPro-Regular'" font-size="12">       &lt;geometry x=&quot;0&quot; y=&quot;0&quot;/&gt;</tspan><tspan x="0" y="446.399" font-family="'MyriadPro-Regular'" font-size="12">       &lt;connects/&gt;</tspan><tspan x="0" y="460.8" font-family="'MyriadPro-Regular'" font-size="12">      &lt;/connector&gt;</tspan><tspan x="0" y="475.2" font-family="'MyriadPro-Regular'" font-size="12">      &lt;connector connectorId=&quot;connector7&quot; layer=&quot;schematic&quot;&gt;</tspan><tspan x="0" y="489.6" font-family="'MyriadPro-Regular'" font-size="12">       &lt;geometry x=&quot;0&quot; y=&quot;0&quot;/&gt;</tspan><tspan x="0" y="504" font-family="'MyriadPro-Regular'" font-size="12">       &lt;connects/&gt;</tspan><tspan x="0" y="518.399" font-family="'MyriadPro-Regular'" font-size="12">      &lt;/connector&gt;</tspan><tspan x="0" y="532.8" font-family="'MyriadPro-Regular'" font-size="12">      &lt;connector connectorId=&quot;connector8&quot; layer=&quot;schematic&quot;&gt;</tspan><tspan x="0" y="547.2" font-family="'MyriadPro-Regular'" font-size="12">       &lt;geometry x=&quot;0&quot; y=&quot;0&quot;/&gt;</tspan><tspan x="0" y="561.6" font-family="'MyriadPro-Regular'" font-size="12">       &lt;connects/&gt;</tspan><tspan x="0" y="576" font-family="'MyriadPro-Regular'" font-size="12">      &lt;/connector&gt;</tspan><tspan x="0" y="590.4" font-family="'MyriadPro-Regular'" font-size="12">      &lt;connector connectorId=&quot;connector9&quot; layer=&quot;schematic&quot;&gt;</tspan><tspan x="0" y="604.8" font-family="'MyriadPro-Regular'" font-size="12">       &lt;geometry x=&quot;0&quot; y=&quot;0&quot;/&gt;</tspan><tspan x="0" y="619.2" font-family="'MyriadPro-Regular'" font-size="12">       &lt;connects/&gt;</tspan><tspan x="0" y="633.6" font-family="'MyriadPro-Regular'" font-size="12">      &lt;/connector&gt;</tspan><tspan x="0" y="648" font-family="'MyriadPro-Regular'" font-size="12">      &lt;connector connectorId=&quot;connector10&quot; layer=&quot;schematic&quot;&gt;</tspan><tspan x="0" y="662.4" font-family="'MyriadPro-Regular'" font-size="12">       &lt;geometry x=&quot;0&quot; y=&quot;0&quot;/&gt;</tspan><tspan x="0" y="676.8" font-family="'MyriadPro-Regular'" font-size="12">       &lt;connects/&gt;</tspan><tspan x="0" y="691.2" font-family="'MyriadPro-Regular'" font-size="12">      &lt;/connector&gt;</tspan><tspan x="0" y="705.601" font-family="'MyriadPro-Regular'" font-size="12">      &lt;connector connectorId=&quot;connector1&quot; layer=&quot;schematic&quot;&gt;</tspan><tspan x="0" y="720" font-family="'MyriadPro-Regular'" font-size="12">       &lt;geometry x=&quot;0&quot; y=&quot;0&quot;/&gt;</tspan><tspan x="0" y="734.4" font-family="'MyriadPro-Regular'" font-size="12">       &lt;connects/&gt;</tspan><tspan x="0" y="748.8" font-family="'MyriadPro-Regular'" font-size="12">      &lt;/connector&gt;</tspan><tspan x="0" y="763.2" font-family="'MyriadPro-Regular'" font-size="12">      &lt;connector connectorId=&quot;connector2&quot; layer=&quot;schematic&quot;&gt;</tspan><tspan x="0" y="777.601" font-family="'MyriadPro-Regular'" font-size="12">       &lt;geometry x=&quot;0&quot; y=&quot;0&quot;/&gt;</tspan><tspan x="0" y="792" font-family="'MyriadPro-Regular'" font-size="12">       &lt;connects/&gt;</tspan><tspan x="0" y="806.4" font-family="'MyriadPro-Regular'" font-size="12">      &lt;/connector&gt;</tspan><tspan x="0" y="820.801" font-family="'MyriadPro-Regular'" font-size="12">     &lt;/connectors&gt;</tspan><tspan x="0" y="835.2" font-family="'MyriadPro-Regular'" font-size="12">    &lt;/schematicView&gt;</tspan><tspan x="0" y="849.601" font-family="'MyriadPro-Regular'" font-size="12">    &lt;pcbView layer=&quot;copper0&quot;&gt;</tspan><tspan x="0" y="864" font-family="'MyriadPro-Regular'" font-size="12">     &lt;geometry x=&quot;91&quot; y=&quot;159&quot; z=&quot;5.5&quot;&gt;</tspan><tspan x="0" y="878.4" font-family="'MyriadPro-Regular'" font-size="12">      &lt;transform m31=&quot;54.375&quot; m21=&quot;-1&quot; m32=&quot;9.37498&quot; m11=&quot;0&quot; m22=&quot;0&quot; m33=&quot;1&quot; m12=&quot;1&quot; m23=&quot;0&quot; m13=&quot;0&quot;/&gt;</tspan><tspan x="0" y="892.801" font-family="'MyriadPro-Regular'" font-size="12">     &lt;/geometry&gt;</tspan><tspan x="0" y="907.2" font-family="'MyriadPro-Regular'" font-size="12">     &lt;titleGeometry x=&quot;136&quot; xOffset=&quot;45&quot; y=&quot;152&quot; yOffset=&quot;-7&quot; z=&quot;12.5&quot; fontSize=&quot;5&quot; visible=&quot;true&quot; textColor=&quot;#ffffff&quot;&gt;</tspan><tspan x="0" y="921.601" font-family="'MyriadPro-Regular'" font-size="12">      &lt;displayKey key=&quot;&quot;/&gt;</tspan><tspan x="0" y="936.001" font-family="'MyriadPro-Regular'" font-size="12">     &lt;/titleGeometry&gt;</tspan><tspan x="0" y="950.4" font-family="'MyriadPro-Regular'" font-size="12">     &lt;connectors&gt;</tspan><tspan x="0" y="964.801" font-family="'MyriadPro-Regular'" font-size="12">      &lt;connector connectorId=&quot;connector3&quot; layer=&quot;copper0&quot;&gt;</tspan><tspan x="0" y="979.2" font-family="'MyriadPro-Regular'" font-size="12">       &lt;geometry x=&quot;0&quot; y=&quot;0&quot;/&gt;</tspan><tspan x="0" y="993.601" font-family="'MyriadPro-Regular'" font-size="12">       &lt;connects/&gt;</tspan><tspan x="0" y="1008.001" font-family="'MyriadPro-Regular'" font-size="12">      &lt;/connector&gt;</tspan><tspan x="0" y="1022.4" font-family="'MyriadPro-Regular'" font-size="12">      &lt;connector connectorId=&quot;connector4&quot; layer=&quot;copper0&quot;&gt;</tspan><tspan x="0" y="1036.801" font-family="'MyriadPro-Regular'" font-size="12">       &lt;geometry x=&quot;0&quot; y=&quot;0&quot;/&gt;</tspan><tspan x="0" y="1051.201" font-family="'MyriadPro-Regular'" font-size="12">       &lt;connects/&gt;</tspan><tspan x="0" y="1065.601" font-family="'MyriadPro-Regular'" font-size="12">      &lt;/connector&gt;</tspan><tspan x="0" y="1080.001" font-family="'MyriadPro-Regular'" font-size="12">      &lt;connector connectorId=&quot;connector5&quot; layer=&quot;copper0&quot;&gt;</tspan><tspan x="0" y="1094.4" font-family="'MyriadPro-Regular'" font-size="12">       &lt;geometry x=&quot;0&quot; y=&quot;0&quot;/&gt;</tspan><tspan x="0" y="1108.801" font-family="'MyriadPro-Regular'" font-size="12">       &lt;connects/&gt;</tspan><tspan x="0" y="1123.201" font-family="'MyriadPro-Regular'" font-size="12">      &lt;/connector&gt;</tspan><tspan x="0" y="1137.601" font-family="'MyriadPro-Regular'" font-size="12">      &lt;connector connectorId=&quot;connector6&quot; layer=&quot;copper0&quot;&gt;</tspan><tspan x="0" y="1152.001" font-family="'MyriadPro-Regular'" font-size="12">       &lt;geometry x=&quot;0&quot; y=&quot;0&quot;/&gt;</tspan><tspan x="0" y="1166.4" font-family="'MyriadPro-Regular'" font-size="12">       &lt;connects/&gt;</tspan><tspan x="0" y="1180.801" font-family="'MyriadPro-Regular'" font-size="12">      &lt;/connector&gt;</tspan><tspan x="0" y="1195.201" font-family="'MyriadPro-Regular'" font-size="12">      &lt;connector connectorId=&quot;connector7&quot; layer=&quot;copper0&quot;&gt;</tspan><tspan x="0" y="1209.601" font-family="'MyriadPro-Regular'" font-size="12">       &lt;geometry x=&quot;0&quot; y=&quot;0&quot;/&gt;</tspan><tspan x="0" y="1224.001" font-family="'MyriadPro-Regular'" font-size="12">       &lt;connects/&gt;</tspan><tspan x="0" y="1238.401" font-family="'MyriadPro-Regular'" font-size="12">      &lt;/connector&gt;</tspan><tspan x="0" y="1252.801" font-family="'MyriadPro-Regular'" font-size="12">      &lt;connector connectorId=&quot;connector8&quot; layer=&quot;copper0&quot;&gt;</tspan><tspan x="0" y="1267.201" font-family="'MyriadPro-Regular'" font-size="12">       &lt;geometry x=&quot;0&quot; y=&quot;0&quot;/&gt;</tspan><tspan x="0" y="1281.602" font-family="'MyriadPro-Regular'" font-size="12">       &lt;connects/&gt;</tspan><tspan x="0" y="1296.001" font-family="'MyriadPro-Regular'" font-size="12">      &lt;/connector&gt;</tspan><tspan x="0" y="1310.401" font-family="'MyriadPro-Regular'" font-size="12">      &lt;connector connectorId=&quot;connector9&quot; layer=&quot;copper0&quot;&gt;</tspan><tspan x="0" y="1324.801" font-family="'MyriadPro-Regular'" font-size="12">       &lt;geometry x=&quot;0&quot; y=&quot;0&quot;/&gt;</tspan><tspan x="0" y="1339.201" font-family="'MyriadPro-Regular'" font-size="12">       &lt;connects/&gt;</tspan><tspan x="0" y="1353.602" font-family="'MyriadPro-Regular'" font-size="12">      &lt;/connector&gt;</tspan><tspan x="0" y="1368.001" font-family="'MyriadPro-Regular'" font-size="12">      &lt;connector connectorId=&quot;connector10&quot; layer=&quot;copper0&quot;&gt;</tspan><tspan x="0" y="1382.401" font-family="'MyriadPro-Regular'" font-size="12">       &lt;geometry x=&quot;0&quot; y=&quot;0&quot;/&gt;</tspan><tspan x="0" y="1396.801" font-family="'MyriadPro-Regular'" font-size="12">       &lt;connects/&gt;</tspan><tspan x="0" y="1411.201" font-family="'MyriadPro-Regular'" font-size="12">      &lt;/connector&gt;</tspan><tspan x="0" y="1425.602" font-family="'MyriadPro-Regular'" font-size="12">      &lt;connector connectorId=&quot;connector1&quot; layer=&quot;copper0&quot;&gt;</tspan><tspan x="0" y="1440.001" font-family="'MyriadPro-Regular'" font-size="12">       &lt;geometry x=&quot;0&quot; y=&quot;0&quot;/&gt;</tspan><tspan x="0" y="1454.401" font-family="'MyriadPro-Regular'" font-size="12">       &lt;connects/&gt;</tspan><tspan x="0" y="1468.802" font-family="'MyriadPro-Regular'" font-size="12">      &lt;/connector&gt;</tspan><tspan x="0" y="1483.201" font-family="'MyriadPro-Regular'" font-size="12">      &lt;connector connectorId=&quot;connector2&quot; layer=&quot;copper0&quot;&gt;</tspan><tspan x="0" y="1497.602" font-family="'MyriadPro-Regular'" font-size="12">       &lt;geometry x=&quot;0&quot; y=&quot;0&quot;/&gt;</tspan><tspan x="0" y="1512.002" font-family="'MyriadPro-Regular'" font-size="12">       &lt;connects/&gt;</tspan><tspan x="0" y="1526.401" font-family="'MyriadPro-Regular'" font-size="12">      &lt;/connector&gt;</tspan><tspan x="0" y="1540.802" font-family="'MyriadPro-Regular'" font-size="12">     &lt;/connectors&gt;</tspan><tspan x="0" y="1555.201" font-family="'MyriadPro-Regular'" font-size="12">    &lt;/pcbView&gt;</tspan><tspan x="0" y="1569.602" font-family="'MyriadPro-Regular'" font-size="12">    &lt;breadboardView layer=&quot;breadboard&quot;&gt;</tspan><tspan x="0" y="1584.002" font-family="'MyriadPro-Regular'" font-size="12">     &lt;geometry x=&quot;209.502&quot; y=&quot;183.854&quot; z=&quot;2.5&quot;/&gt;</tspan><tspan x="0" y="1598.401" font-family="'MyriadPro-Regular'" font-size="12">     &lt;connectors&gt;</tspan><tspan x="0" y="1612.802" font-family="'MyriadPro-Regular'" font-size="12">      &lt;connector connectorId=&quot;connector3&quot; layer=&quot;breadboard&quot;&gt;</tspan><tspan x="0" y="1627.201" font-family="'MyriadPro-Regular'" font-size="12">       &lt;geometry x=&quot;0&quot; y=&quot;0&quot;/&gt;</tspan><tspan x="0" y="1641.602" font-family="'MyriadPro-Regular'" font-size="12">       &lt;connects/&gt;</tspan><tspan x="0" y="1656.002" font-family="'MyriadPro-Regular'" font-size="12">      &lt;/connector&gt;</tspan><tspan x="0" y="1670.401" font-family="'MyriadPro-Regular'" font-size="12">      &lt;connector connectorId=&quot;connector4&quot; layer=&quot;breadboard&quot;&gt;</tspan><tspan x="0" y="1684.802" font-family="'MyriadPro-Regular'" font-size="12">       &lt;geometry x=&quot;0&quot; y=&quot;0&quot;/&gt;</tspan><tspan x="0" y="1699.202" font-family="'MyriadPro-Regular'" font-size="12">       &lt;connects/&gt;</tspan><tspan x="0" y="1713.602" font-family="'MyriadPro-Regular'" font-size="12">      &lt;/connector&gt;</tspan><tspan x="0" y="1728.002" font-family="'MyriadPro-Regular'" font-size="12">      &lt;connector connectorId=&quot;connector5&quot; layer=&quot;breadboard&quot;&gt;</tspan><tspan x="0" y="1742.402" font-family="'MyriadPro-Regular'" font-size="12">       &lt;geometry x=&quot;0&quot; y=&quot;0&quot;/&gt;</tspan><tspan x="0" y="1756.802" font-family="'MyriadPro-Regular'" font-size="12">       &lt;connects/&gt;</tspan><tspan x="0" y="1771.202" font-family="'MyriadPro-Regular'" font-size="12">      &lt;/connector&gt;</tspan><tspan x="0" y="1785.602" font-family="'MyriadPro-Regular'" font-size="12">      &lt;connector connectorId=&quot;connector6&quot; layer=&quot;breadboard&quot;&gt;</tspan><tspan x="0" y="1800.002" font-family="'MyriadPro-Regular'" font-size="12">       &lt;geometry x=&quot;0&quot; y=&quot;0&quot;/&gt;</tspan><tspan x="0" y="1814.402" font-family="'MyriadPro-Regular'" font-size="12">       &lt;connects/&gt;</tspan><tspan x="0" y="1828.802" font-family="'MyriadPro-Regular'" font-size="12">      &lt;/connector&gt;</tspan><tspan x="0" y="1843.202" font-family="'MyriadPro-Regular'" font-size="12">      &lt;connector connectorId=&quot;connector7&quot; layer=&quot;breadboard&quot;&gt;</tspan><tspan x="0" y="1857.602" font-family="'MyriadPro-Regular'" font-size="12">       &lt;geometry x=&quot;0&quot; y=&quot;0&quot;/&gt;</tspan><tspan x="0" y="1872.002" font-family="'MyriadPro-Regular'" font-size="12">       &lt;connects/&gt;</tspan><tspan x="0" y="1886.402" font-family="'MyriadPro-Regular'" font-size="12">      &lt;/connector&gt;</tspan><tspan x="0" y="1900.802" font-family="'MyriadPro-Regular'" font-size="12">      &lt;connector connectorId=&quot;connector8&quot; layer=&quot;breadboard&quot;&gt;</tspan><tspan x="0" y="1915.202" font-family="'MyriadPro-Regular'" font-size="12">       &lt;geometry x=&quot;0&quot; y=&quot;0&quot;/&gt;</tspan><tspan x="0" y="1929.603" font-family="'MyriadPro-Regular'" font-size="12">       &lt;connects/&gt;</tspan><tspan x="0" y="1944.002" font-family="'MyriadPro-Regular'" font-size="12">      &lt;/connector&gt;</tspan><tspan x="0" y="1958.402" font-family="'MyriadPro-Regular'" font-size="12">      &lt;connector connectorId=&quot;connector9&quot; layer=&quot;breadboard&quot;&gt;</tspan><tspan x="0" y="1972.803" font-family="'MyriadPro-Regular'" font-size="12">       &lt;geometry x=&quot;0&quot; y=&quot;0&quot;/&gt;</tspan><tspan x="0" y="1987.202" font-family="'MyriadPro-Regular'" font-size="12">       &lt;connects/&gt;</tspan><tspan x="0" y="2001.603" font-family="'MyriadPro-Regular'" font-size="12">      &lt;/connector&gt;</tspan><tspan x="0" y="2016.002" font-family="'MyriadPro-Regular'" font-size="12">      &lt;connector connectorId=&quot;connector10&quot; layer=&quot;breadboard&quot;&gt;</tspan><tspan x="0" y="2030.402" font-family="'MyriadPro-Regular'" font-size="12">       &lt;geometry x=&quot;0&quot; y=&quot;0&quot;/&gt;</tspan><tspan x="0" y="2044.803" font-family="'MyriadPro-Regular'" font-size="12">       &lt;connects/&gt;</tspan><tspan x="0" y="2059.202" font-family="'MyriadPro-Regular'" font-size="12">      &lt;/connector&gt;</tspan><tspan x="0" y="2073.603" font-family="'MyriadPro-Regular'" font-size="12">      &lt;connector connectorId=&quot;connector1&quot; layer=&quot;breadboard&quot;&gt;</tspan><tspan x="0" y="2088.002" font-family="'MyriadPro-Regular'" font-size="12">       &lt;geometry x=&quot;0&quot; y=&quot;0&quot;/&gt;</tspan><tspan x="0" y="2102.402" font-family="'MyriadPro-Regular'" font-size="12">       &lt;connects/&gt;</tspan><tspan x="0" y="2116.802" font-family="'MyriadPro-Regular'" font-size="12">      &lt;/connector&gt;</tspan><tspan x="0" y="2131.202" font-family="'MyriadPro-Regular'" font-size="12">      &lt;connector connectorId=&quot;connector2&quot; layer=&quot;breadboard&quot;&gt;</tspan><tspan x="0" y="2145.602" font-family="'MyriadPro-Regular'" font-size="12">       &lt;geometry x=&quot;0&quot; y=&quot;0&quot;/&gt;</tspan><tspan x="0" y="2160.002" font-family="'MyriadPro-Regular'" font-size="12">       &lt;connects/&gt;</tspan><tspan x="0" y="2174.401" font-family="'MyriadPro-Regular'" font-size="12">      &lt;/connector&gt;</tspan><tspan x="0" y="2188.802" font-family="'MyriadPro-Regular'" font-size="12">     &lt;/connectors&gt;</tspan><tspan x="0" y="2203.201" font-family="'MyriadPro-Regular'" font-size="12">    &lt;/breadboardView&gt;</tspan><tspan x="0" y="2217.602" font-family="'MyriadPro-Regular'" font-size="12">   &lt;/views&gt;</tspan><tspan x="0" y="2232.001" font-family="'MyriadPro-Regular'" font-size="12">  &lt;/instance&gt;</tspan><tspan x="0" y="2246.401" font-family="'MyriadPro-Regular'" font-size="12"> &lt;/instances&gt;</tspan><tspan x="0" y="2260.801" font-family="'MyriadPro-Regular'" font-size="12">&lt;/module&gt;</tspan></text>
<g id="breadboard_1_">
	<polygon fill="#323232" points="0,0 113.365,0 114.48,1 114.48,36.864 1,36.864 0,35.557 	"/>
	<polygon fill="#646464" points="9.718,3.491 22.16,3.491 22.989,4.319 21.329,6.808 10.545,6.808 8.889,4.319 	"/>
	<polygon fill="#EF1818" points="23.819,5.148 24.648,6.808 22.989,15.934 21.329,17.591 19.672,15.934 21.329,7.636 	"/>
	<polygon fill="#EF1818" points="21.329,18.42 22.16,20.078 20.501,29.204 18.842,30.863 17.183,29.204 18.842,20.911 	"/>
	<polygon fill="#646464" points="17.183,32.522 4.74,32.522 3.91,31.69 5.569,29.204 16.354,29.204 18.012,31.692 	"/>
	<polygon fill="#EF1818" points="3.08,30.863 2.252,29.204 3.91,20.078 5.569,18.42 7.227,20.078 5.569,28.373 	"/>
	<polygon fill="#EF1818" points="5.569,17.591 4.74,15.934 6.4,6.808 8.057,5.148 9.718,6.808 8.057,15.104 	"/>
	<polyline fill="#EF1818" points="6.4,17.591 8.057,15.934 18.842,15.934 20.501,17.591 18.842,19.25 8.057,19.25 	"/>
	<circle fill="#646464" cx="22.634" cy="30.859" r="1.748"/>
	<polygon fill="#EF1818" points="38.506,3.491 50.948,3.491 51.777,4.319 50.117,6.808 39.333,6.808 37.677,4.319 	"/>
	<polygon fill="#EF1818" points="52.607,5.148 53.436,6.808 51.777,15.934 50.117,17.591 48.46,15.934 50.117,7.636 	"/>
	<polygon fill="#EF1818" points="50.117,18.42 50.948,20.078 49.289,29.204 47.63,30.863 45.971,29.204 47.63,20.911 	"/>
	<polygon fill="#646464" points="45.971,32.522 33.528,32.522 32.698,31.69 34.357,29.204 45.142,29.204 46.8,31.692 	"/>
	<polygon fill="#EF1818" points="31.868,30.863 31.04,29.204 32.698,20.078 34.357,18.42 36.015,20.078 34.357,28.373 	"/>
	<polygon fill="#EF1818" points="34.357,17.591 33.528,15.934 35.188,6.808 36.845,5.148 38.506,6.808 36.845,15.104 	"/>
	<polyline fill="#EF1818" points="35.188,17.591 36.845,15.934 47.63,15.934 49.289,17.591 47.63,19.25 36.845,19.25 	"/>
	<circle fill="#646464" cx="51.422" cy="30.859" r="1.748"/>
	<circle fill="#646464" cx="55.621" cy="24.308" r="1.748"/>
	<circle fill="#646464" cx="57.58" cy="11.369" r="1.748"/>
	<circle fill="#646464" cx="87.663" cy="5.002" r="1.748"/>
	<polygon fill="#646464" points="67.305,3.491 79.748,3.491 80.577,4.319 78.917,6.808 68.133,6.808 66.476,4.319 	"/>
	<polygon fill="#646464" points="81.406,5.148 82.236,6.808 80.577,15.934 78.917,17.591 77.26,15.934 78.917,7.636 	"/>
	<polygon fill="#646464" points="78.917,18.42 79.748,20.078 78.089,29.204 76.429,30.863 74.771,29.204 76.429,20.911 	"/>
	<polygon fill="#EF1818" points="74.771,32.522 62.328,32.522 61.498,31.69 63.157,29.204 73.941,29.204 75.599,31.692 	"/>
	<polygon fill="#EF1818" points="60.668,30.863 59.84,29.204 61.498,20.078 63.157,18.42 64.815,20.078 63.157,28.373 	"/>
	<polygon fill="#EF1818" points="63.157,17.591 62.328,15.934 63.988,6.808 65.645,5.148 67.305,6.808 65.645,15.104 	"/>
	<polyline fill="#646464" points="63.988,17.591 65.645,15.934 76.429,15.934 78.089,17.591 76.429,19.25 65.645,19.25 	"/>
	<circle fill="#646464" cx="80.222" cy="30.859" r="1.748"/>
	<polygon fill="#EF1818" points="96.18,3.491 108.623,3.491 109.452,4.319 107.792,6.808 97.008,6.808 95.351,4.319 	"/>
	<polygon fill="#EF1818" points="110.281,5.148 111.111,6.808 109.452,15.934 107.792,17.591 106.135,15.934 107.792,7.636 	"/>
	<polygon fill="#EF1818" points="107.792,18.42 108.623,20.078 106.964,29.204 105.304,30.863 103.646,29.204 105.304,20.911 	"/>
	<polygon fill="#EF1818" points="103.646,32.522 91.203,32.522 90.373,31.69 92.032,29.204 102.816,29.204 104.474,31.692 	"/>
	<polygon fill="#EF1818" points="89.543,30.863 88.715,29.204 90.373,20.078 92.032,18.42 93.69,20.078 92.032,28.373 	"/>
	<polygon fill="#EF1818" points="92.032,17.591 91.203,15.934 92.863,6.808 94.52,5.148 96.18,6.808 94.52,15.104 	"/>
	<polyline fill="#646464" points="92.863,17.591 94.52,15.934 105.304,15.934 106.964,17.591 105.304,19.25 94.52,19.25 	"/>
	<circle fill="#646464" cx="109.097" cy="30.859" r="1.748"/>
	<polygon fill="#C7C7C7" points="113.48,35.557 0,35.557 1,36.864 114.48,36.864 	"/>
	<polygon fill="#AAAAAA" points="113.365,35.557 114.48,36.864 114.48,1 113.365,0 	"/>
</g>
</svg>
