<?xml version='1.0' encoding='UTF-8' standalone='no'?>
<!-- Created with Fritzing (http://www.fritzing.org/) -->
<svg width="0.514236in" x="0in" version="1.2" y="0in" xmlns="http://www.w3.org/2000/svg" height="1in" viewBox="0 0 514.236 1000" baseProfile="tiny" xmlns:svg="http://www.w3.org/2000/svg">
 <desc>Fritzing breadboard generated by brd2svg</desc>
 <g id="breadboard">
  <g id="icon">
   <path fill="#1F7A34" stroke="none" stroke-width="0" d="M0,0L0,470A30,30 0 0 1 0,530L0,1000L514.236,1000L514.236,0L0,0z"/>
   <g transform="translate(100,177.466)">
    <g stroke-width="0">
     <g stroke-width="0">
      <path fill="#E6E6E6" stroke-width="0" d="M314.847,632.569c0,6.875,-5.61111,12.5,-12.4861,12.5L13.1111,645.069c-6.875,0,-12.5,-5.625,-12.5,-12.5L0.611111,404.389c0,-6.875,5.625,-12.5,12.5,-12.5L302.361,391.889c6.875,0,12.4861,5.625,12.4861,12.5L314.847,632.569z"/>
      <rect width="314.236" x="0.611111" y="121.056" fill="#B3B3B3" height="278.653" stroke-width="0"/>
      <rect width="12" x="122.403" y="47.2361" fill="#999999" height="20.75" stroke-width="0"/>
      <rect width="12" x="90.4722" y="0" fill="#999999" height="68" stroke-width="0"/>
      <rect width="11.9722" x="216.472" y="0" fill="#999999" height="68" stroke-width="0"/>
      <rect width="11.9722" x="184.958" y="47.2361" fill="#999999" height="20.75" stroke-width="0"/>
      <rect width="12" x="153.472" y="0" fill="#999999" height="68" stroke-width="0"/>
      <rect width="1.94444" x="90.4722" y="0" fill="#CCCCCC" height="68" stroke-width="0"/>
      <rect width="1.94444" x="153.472" y="0" fill="#CCCCCC" height="68" stroke-width="0"/>
      <rect width="1.94444" x="216.472" y="0" fill="#CCCCCC" height="68" stroke-width="0"/>
      <rect width="1.95833" x="184.972" y="47.2361" fill="#CCCCCC" height="20.75" stroke-width="0"/>
      <rect width="1.94444" x="122.403" y="47.2361" fill="#CCCCCC" height="20.75" stroke-width="0"/>
      <rect width="164.014" x="75.7222" y="67.9722" fill="#B3B3B3" height="67.5278" stroke-width="0"/>
     </g>
    </g>
    <polygon fill="#808080" points="100.528,425.139,38.1806,467.694,38.1806,620.764,277.306,620.764,277.306,467.694,214.944,425.139" stroke-width="0"/>
    <rect width="114" x="102.472" y="425.139" fill="#999999" height="73.7917" stroke-width="0"/>
    <g stroke-width="0">
     <g stroke-width="0">
      <rect width="16.7778" x="120.042" y="425.139" fill="#666666" height="65.9722" stroke-width="0"/>
      <rect width="16.7917" x="185" y="425.139" fill="#666666" height="65.9722" stroke-width="0"/>
     </g>
    </g>
    <g stroke-width="0">
     <g stroke-width="0">
      <rect width="16.7778" x="118.583" y="425.139" fill="#CCCCCC" height="65.9722" stroke-width="0"/>
      <rect width="16.7917" x="183.542" y="425.139" fill="#CCCCCC" height="65.9722" stroke-width="0"/>
     </g>
    </g>
    <rect width="114" x="102.472" y="498.944" fill="#CCCCCC" height="71.4722" stroke-width="0"/>
    <rect width="114" x="102.472" y="498.944" fill="#B3B3B3" height="7.81944" stroke-width="0"/>
    <rect width="19.8194" x="0.611111" y="121.056" fill="#CCCCCC" height="278.653" stroke-width="0"/>
    <rect width="19.8194" x="295.028" y="121.056" fill="#999999" height="278.653" stroke-width="0"/>
    <polygon fill="#666666" points="216.472,426.181,216.472,498.944,216.472,570.417,182.236,570.417,170.903,620.764,277.306,620.764,277.306,467.694" stroke-width="0"/>
    <polygon fill="#999999" points="208.528,570.417,216.472,570.417,216.472,498.944,208.528,506.736" stroke-width="0"/>
    <polygon fill="#E6E6E6" points="102.472,570.417,110.417,570.417,110.417,506.736,102.472,498.944" stroke-width="0"/>
   </g>
  </g>
  <g transform="translate(91.153,934.05)">
   <rect width="31.93" x="0" y="0" fill="#8D8C8C" height="31.9" id="connector0pin" stroke-width="0"/>
   <rect width="16.4442" x="7.79153" y="7.73544" fill="#8C8663" height="16.4152" stroke-width="0"/>
   <polygon fill="#B8AF82" points="0,31.9,7.79153,24.1368,7.79153,6.97162,0,0" stroke-width="0"/>
   <polygon fill="#80795B" points="24.2079,7.76321,7.90264,7.76321,0,0,31.93,0" stroke-width="0"/>
   <polygon fill="#5E5B43" points="24.2079,24.1368,24.2079,7.76321,31.93,0,31.93,31.9" stroke-width="0"/>
   <polygon fill="#9A916C" points="0,31.9,7.87486,24.1368,24.2079,24.1368,31.93,31.9" stroke-width="0"/>
  </g>
  <g transform="translate(191.153,934.05)">
   <rect width="31.93" x="0" y="0" fill="#8D8C8C" height="31.9" id="connector1pin" stroke-width="0"/>
   <rect width="16.4442" x="7.79153" y="7.73544" fill="#8C8663" height="16.4152" stroke-width="0"/>
   <polygon fill="#B8AF82" points="0,31.9,7.79153,24.1368,7.79153,6.97162,0,0" stroke-width="0"/>
   <polygon fill="#80795B" points="24.2079,7.76321,7.90264,7.76321,0,0,31.93,0" stroke-width="0"/>
   <polygon fill="#5E5B43" points="24.2079,24.1368,24.2079,7.76321,31.93,0,31.93,31.9" stroke-width="0"/>
   <polygon fill="#9A916C" points="0,31.9,7.87486,24.1368,24.2079,24.1368,31.93,31.9" stroke-width="0"/>
  </g>
  <g transform="translate(191.153,34.05)">
   <rect width="31.93" x="0" y="0" fill="#8D8C8C" height="31.9" id="connector6pin" stroke-width="0"/>
   <rect width="16.4442" x="7.79153" y="7.73544" fill="#8C8663" height="16.4152" stroke-width="0"/>
   <polygon fill="#B8AF82" points="0,31.9,7.79153,24.1368,7.79153,6.97162,0,0" stroke-width="0"/>
   <polygon fill="#80795B" points="24.2079,7.76321,7.90264,7.76321,0,0,31.93,0" stroke-width="0"/>
   <polygon fill="#5E5B43" points="24.2079,24.1368,24.2079,7.76321,31.93,0,31.93,31.9" stroke-width="0"/>
   <polygon fill="#9A916C" points="0,31.9,7.87486,24.1368,24.2079,24.1368,31.93,31.9" stroke-width="0"/>
  </g>
  <g transform="translate(291.153,934.05)">
   <rect width="31.93" x="0" y="0" fill="#8D8C8C" height="31.9" id="connector2pin" stroke-width="0"/>
   <rect width="16.4442" x="7.79153" y="7.73544" fill="#8C8663" height="16.4152" stroke-width="0"/>
   <polygon fill="#B8AF82" points="0,31.9,7.79153,24.1368,7.79153,6.97162,0,0" stroke-width="0"/>
   <polygon fill="#80795B" points="24.2079,7.76321,7.90264,7.76321,0,0,31.93,0" stroke-width="0"/>
   <polygon fill="#5E5B43" points="24.2079,24.1368,24.2079,7.76321,31.93,0,31.93,31.9" stroke-width="0"/>
   <polygon fill="#9A916C" points="0,31.9,7.87486,24.1368,24.2079,24.1368,31.93,31.9" stroke-width="0"/>
  </g>
  <g transform="translate(291.153,34.05)">
   <rect width="31.93" x="0" y="0" fill="#8D8C8C" height="31.9" id="connector5pin" stroke-width="0"/>
   <rect width="16.4442" x="7.79153" y="7.73544" fill="#8C8663" height="16.4152" stroke-width="0"/>
   <polygon fill="#B8AF82" points="0,31.9,7.79153,24.1368,7.79153,6.97162,0,0" stroke-width="0"/>
   <polygon fill="#80795B" points="24.2079,7.76321,7.90264,7.76321,0,0,31.93,0" stroke-width="0"/>
   <polygon fill="#5E5B43" points="24.2079,24.1368,24.2079,7.76321,31.93,0,31.93,31.9" stroke-width="0"/>
   <polygon fill="#9A916C" points="0,31.9,7.87486,24.1368,24.2079,24.1368,31.93,31.9" stroke-width="0"/>
  </g>
  <g transform="translate(391.153,934.05)">
   <rect width="31.93" x="0" y="0" fill="#8D8C8C" height="31.9" id="connector3pin" stroke-width="0"/>
   <rect width="16.4442" x="7.79153" y="7.73544" fill="#8C8663" height="16.4152" stroke-width="0"/>
   <polygon fill="#B8AF82" points="0,31.9,7.79153,24.1368,7.79153,6.97162,0,0" stroke-width="0"/>
   <polygon fill="#80795B" points="24.2079,7.76321,7.90264,7.76321,0,0,31.93,0" stroke-width="0"/>
   <polygon fill="#5E5B43" points="24.2079,24.1368,24.2079,7.76321,31.93,0,31.93,31.9" stroke-width="0"/>
   <polygon fill="#9A916C" points="0,31.9,7.87486,24.1368,24.2079,24.1368,31.93,31.9" stroke-width="0"/>
  </g>
  <g transform="translate(391.153,34.05)">
   <rect width="31.93" x="0" y="0" fill="#8D8C8C" height="31.9" id="connector4pin" stroke-width="0"/>
   <rect width="16.4442" x="7.79153" y="7.73544" fill="#8C8663" height="16.4152" stroke-width="0"/>
   <polygon fill="#B8AF82" points="0,31.9,7.79153,24.1368,7.79153,6.97162,0,0" stroke-width="0"/>
   <polygon fill="#80795B" points="24.2079,7.76321,7.90264,7.76321,0,0,31.93,0" stroke-width="0"/>
   <polygon fill="#5E5B43" points="24.2079,24.1368,24.2079,7.76321,31.93,0,31.93,31.9" stroke-width="0"/>
   <polygon fill="#9A916C" points="0,31.9,7.87486,24.1368,24.2079,24.1368,31.93,31.9" stroke-width="0"/>
  </g>
 </g>
 <text x="50" y="524.375" font-family="OCRA" fill="white" text-anchor="start" stroke="none" id="label" stroke-width="0" font-size="65"/>
 <g transform="translate(120.618,926.05)">
  <g transform="rotate(-90)">
   <text x="0" y="0" font-family="OCRA" fill="white" text-anchor="start" stroke="none" stroke-width="0" font-size="45"/>
  </g>
 </g>
 <g transform="translate(220.618,926.05)">
  <g transform="rotate(-90)">
   <text x="0" y="0" font-family="OCRA" fill="white" text-anchor="start" stroke="none" stroke-width="0" font-size="45"/>
  </g>
 </g>
 <g transform="translate(220.618,73.95)">
  <g transform="rotate(-90)">
   <text x="0" y="0" font-family="OCRA" fill="white" text-anchor="end" stroke="none" stroke-width="0" font-size="45"/>
  </g>
 </g>
 <g transform="translate(320.618,926.05)">
  <g transform="rotate(-90)">
   <text x="0" y="0" font-family="OCRA" fill="white" text-anchor="start" stroke="none" stroke-width="0" font-size="45"/>
  </g>
 </g>
 <g transform="translate(320.618,73.95)">
  <g transform="rotate(-90)">
   <text x="0" y="0" font-family="OCRA" fill="white" text-anchor="end" stroke="none" stroke-width="0" font-size="45"/>
  </g>
 </g>
 <g transform="translate(420.618,926.05)">
  <g transform="rotate(-90)">
   <text x="0" y="0" font-family="OCRA" fill="white" text-anchor="start" stroke="none" stroke-width="0" font-size="45"/>
  </g>
 </g>
 <g transform="translate(420.618,73.95)">
  <g transform="rotate(-90)">
   <text x="0" y="0" font-family="OCRA" fill="white" text-anchor="end" stroke="none" stroke-width="0" font-size="45"/>
  </g>
 </g>
</svg>
