<?xml version="1.0" encoding="utf-8"?>
<!-- Generator: Adobe Illustrator 15.1.0, SVG Export Plug-In . SVG Version: 6.00 Build 0)  -->
<!DOCTYPE svg PUBLIC "-//W3C//DTD SVG 1.1//EN" "http://www.w3.org/Graphics/SVG/1.1/DTD/svg11.dtd">
<svg version="1.1" id="Ebene_1" xmlns:svg="http://www.w3.org/2000/svg"
	 xmlns="http://www.w3.org/2000/svg" xmlns:xlink="http://www.w3.org/1999/xlink" x="0px" y="0px" width="67.669px"
	 height="63.698px" viewBox="0 0 67.669 63.698" enable-background="new 0 0 67.669 63.698" xml:space="preserve">
<g>
	<path fill="#4D4D4D" d="M0,30.471C0,47.415,13.735,61.15,30.678,61.15c12.918,0,23.964-7.989,28.487-19.294v2.548
		c-4.522,11.305-15.568,19.294-28.487,19.294C13.735,63.698,0,49.963,0,33.019V30.471z"/>
</g>
<g id="breadboard">
	<circle id="connector1pin" fill="none" stroke="#9A916C" stroke-width="0.254" cx="5.306" cy="30.818" r="2.203"/>
	<circle id="connector0pin" fill="none" stroke="#9A916C" stroke-width="0.254" cx="61.999" cy="30.818" r="2.203"/>
</g>
<path fill="#666666" d="M59.238,19.479C54.763,8.077,43.668,0,30.678,0C13.735,0,0,13.735,0,30.678
	c0,16.943,13.735,30.678,30.678,30.678c12.918,0,23.964-7.989,28.487-19.294v0.095h8.504V19.479H59.238z"/>
<path fill="#CCCCCC" d="M0,30.678C0,13.735,13.712,0,30.678,0C11.895,1.027,0.437,15.277,0,30.678z"/>
<g transform="translate(100,171.639)">
	<circle fill="#1A1A1A" cx="-69.438" cy="-140.822" r="29.661"/>
	<path fill="#4D4D4D" d="M-41.092-139.791c0,15.654-12.691,28.347-28.346,28.347c-15.656,0-28.348-12.692-28.348-28.347"/>
	<circle fill="#B3B3B3" cx="-69.438" cy="-140.822" r="28.347"/>
	<path fill="#FFFFFF" d="M-68.952-131.688v5.398h5.2v0.881h-5.2v5.441h-0.946v-5.441H-75.1v-0.881h5.201v-5.398H-68.952z"/>
</g>
<path fill="#F2F2F2" d="M20.375,4.321c0,0,3.45-1.147,4.669-1.363C26.812,2.2,50.469-1.78,58.404,23.191
	c0.283,0.891,0.199,2.15,0.199,2.15l0.813-0.21c0,0-0.664-2.58-0.729-2.771C55.888,14.207,47.457-0.841,24.931,2.148L20.375,4.321z"
	/>
<g>
	<path fill="#F2F2F2" d="M20.406,57.304c0,0,3.45,1.146,4.669,1.363c1.768,0.758,25.246,4.702,33.182-20.268
		c0.283-0.892,0.377-2.115,0.377-2.115l0.813,0.21c0,0-0.406,1.854-0.729,2.771c-2.868,8.129-11.229,23.201-33.755,20.212
		L20.406,57.304z"/>
	
		<path fill="none" stroke="#CCCCCC" stroke-width="0.25" stroke-linecap="round" stroke-linejoin="round" stroke-miterlimit="10" d="
		M20.375,4.321c0,0,3.45-1.147,4.669-1.363c1.768-0.758,22.393-4.39,32.143,16.521c1.032,2.214,1.721,6.006,1.721,6.006"/>
	
		<path fill="none" stroke="#B3B3B3" stroke-width="0.25" stroke-linecap="round" stroke-linejoin="round" stroke-miterlimit="10" d="
		M59.447,36.495c0,0-0.406,1.854-0.729,2.771c-2.868,8.129-11.229,23.201-33.755,20.212l-4.556-2.173"/>
	<rect x="58.296" y="24.94" fill="#F2F2F2" width="2.516" height="11.878"/>
	<rect x="59.165" y="19.479" fill="#666666" width="8.504" height="22.678"/>
</g>
<rect x="59.165" y="42.157" fill="#333333" width="8.504" height="2.247"/>
<path opacity="0.41" fill="none" stroke="#E6E6E6" stroke-linecap="round" stroke-linejoin="round" stroke-miterlimit="10" d="
	M4.306,30.817c0-14.5,11.755-26.255,26.256-26.255c14.499,0,26.255,11.755,26.255,26.255"/>
<path opacity="0.41" fill="none" stroke="#999999" stroke-linecap="round" stroke-linejoin="round" stroke-miterlimit="10" d="
	M56.817,30.817c0,14.499-11.756,26.256-26.255,26.256c-14.501,0-26.256-11.757-26.256-26.256"/>
<rect x="66.812" y="19.479" fill="#4D4D4D" width="0.856" height="22.678"/>
<rect x="66.812" y="42.157" fill="#1A1A1A" width="0.856" height="2.247"/>
</svg>
