<?xml version='1.0' encoding='UTF-8' standalone='no'?>
<!-- Created with Fritzing (http://www.fritzing.org/) -->
<svg width="0.554333in" x="0in" version="1.2" y="0in" xmlns="http://www.w3.org/2000/svg" height="0.6in" viewBox="0 0 554.333 600" baseProfile="tiny" xmlns:svg="http://www.w3.org/2000/svg">
 <desc>Fritzing breadboard generated by brd2svg</desc>
 <g id="breadboard">
  <g id="icon">
   <path fill="#1F7A34" stroke="none" stroke-width="0" d="M0,0L0,270A30,30 0 0 1 0,330L0,600L554.333,600L554.333,0L0,0z"/>
   <g transform="translate(100,170.445)">
    <g stroke-width="0">
     <g stroke-width="0">
      <g stroke-width="0">
       <rect width="12.2917" x="310.444" y="0" fill="#E6E6E6" height="45.8889" stroke-width="0"/>
      </g>
      <g stroke-width="0">
       <rect width="12.2917" x="270.944" y="0" fill="#E6E6E6" height="45.8889" stroke-width="0"/>
      </g>
      <g stroke-width="0">
       <rect width="12.2917" x="231.458" y="0" fill="#E6E6E6" height="45.8889" stroke-width="0"/>
      </g>
      <g stroke-width="0">
       <rect width="12.2917" x="191.958" y="0" fill="#E6E6E6" height="45.8889" stroke-width="0"/>
      </g>
      <g stroke-width="0">
       <rect width="12.2917" x="152.472" y="0" fill="#E6E6E6" height="45.8889" stroke-width="0"/>
      </g>
      <g stroke-width="0">
       <rect width="12.2917" x="112.972" y="0" fill="#E6E6E6" height="45.8889" stroke-width="0"/>
      </g>
      <g stroke-width="0">
       <rect width="12.2917" x="73.4722" y="0" fill="#E6E6E6" height="45.8889" stroke-width="0"/>
      </g>
      <g stroke-width="0">
       <rect width="12.2917" x="33.9722" y="0" fill="#E6E6E6" height="45.8889" stroke-width="0"/>
      </g>
     </g>
     <g stroke-width="0">
      <g stroke-width="0">
       <rect width="12.2917" x="310.444" y="8.55556" fill="#CCCCCC" height="37.3333" stroke-width="0"/>
      </g>
      <g stroke-width="0">
       <rect width="12.2917" x="270.944" y="8.55556" fill="#CCCCCC" height="37.3333" stroke-width="0"/>
      </g>
      <g stroke-width="0">
       <rect width="12.2917" x="231.458" y="8.55556" fill="#CCCCCC" height="37.3333" stroke-width="0"/>
      </g>
      <g stroke-width="0">
       <rect width="12.2917" x="191.958" y="8.55556" fill="#CCCCCC" height="37.3333" stroke-width="0"/>
      </g>
      <g stroke-width="0">
       <rect width="12.2917" x="152.472" y="8.55556" fill="#CCCCCC" height="37.3333" stroke-width="0"/>
      </g>
      <g stroke-width="0">
       <rect width="12.2917" x="112.972" y="8.55556" fill="#CCCCCC" height="37.3333" stroke-width="0"/>
      </g>
      <g stroke-width="0">
       <rect width="12.2917" x="73.4722" y="8.55556" fill="#CCCCCC" height="37.3333" stroke-width="0"/>
      </g>
      <g stroke-width="0">
       <rect width="12.2917" x="33.9722" y="8.55556" fill="#CCCCCC" height="37.3333" stroke-width="0"/>
      </g>
     </g>
     <g stroke-width="0">
      <g stroke-width="0">
       <g id="silkscreen" stroke-width="0">
        <rect width="354.333" x="0" y="19.9722" fill="#E6E6E6" height="167.319" stroke-width="0"/>
       </g>
       <g id="silkscreen_1_" stroke-width="0">
        <rect width="341.292" x="3.54167" y="187.292" fill="#808080" height="59.9722" stroke-width="0"/>
       </g>
       <path fill="#CCCCCC" stroke-width="0" d="M354.306,187.292L0,187.292l0,71.7778l354.333,0l0,-71.7778L354.306,187.292zM26.375,247.278l0,-15.2083L11.8194,232.069l0,-13.5694l14.5694,0l0,-19.4028l301.069,0l0,19.4028l15.0556,0l0,13.5694l-15.0556,0l0,15.2083L26.375,247.278z"/>
       <g stroke-width="0">
        <g stroke-width="0">
         <rect width="10.0139" x="298.042" y="219.042" fill="#E6E6E6" height="10" stroke-width="0"/>
         <rect width="10.0139" x="262.083" y="219.042" fill="#E6E6E6" height="10" stroke-width="0"/>
         <rect width="10.0139" x="226.111" y="219.042" fill="#E6E6E6" height="10" stroke-width="0"/>
         <rect width="10.0139" x="190.139" y="219.042" fill="#E6E6E6" height="10" stroke-width="0"/>
         <rect width="10" x="154.181" y="219.042" fill="#E6E6E6" height="10" stroke-width="0"/>
         <rect width="10" x="118.208" y="219.042" fill="#E6E6E6" height="10" stroke-width="0"/>
         <rect width="10" x="82.2361" y="219.042" fill="#E6E6E6" height="10" stroke-width="0"/>
         <rect width="10" x="46.2639" y="219.042" fill="#E6E6E6" height="10" stroke-width="0"/>
        </g>
        <g stroke-width="0">
         <rect width="10.0139" x="298.042" y="199.111" fill="#999999" height="19.9306" stroke-width="0"/>
         <rect width="10.0139" x="262.083" y="199.111" fill="#999999" height="19.9306" stroke-width="0"/>
         <rect width="10.0139" x="226.111" y="199.111" fill="#999999" height="19.9306" stroke-width="0"/>
         <rect width="10.0139" x="190.139" y="199.111" fill="#999999" height="19.9306" stroke-width="0"/>
         <rect width="10" x="154.181" y="199.111" fill="#999999" height="19.9306" stroke-width="0"/>
         <rect width="10" x="118.208" y="199.111" fill="#999999" height="19.9306" stroke-width="0"/>
         <rect width="10" x="82.2361" y="199.111" fill="#999999" height="19.9306" stroke-width="0"/>
         <rect width="10" x="46.2639" y="199.111" fill="#999999" height="19.9306" stroke-width="0"/>
        </g>
       </g>
      </g>
     </g>
     <g stroke-width="0">
      <rect width="11.8194" x="0" y="159.597" fill="#999999" height="27.6944" stroke-width="0"/>
      <rect width="11.8194" x="0" y="179.347" fill="#808080" height="27.6944" stroke-width="0"/>
     </g>
     <g stroke-width="0">
      <rect width="11.8056" x="342.514" y="159.597" fill="#999999" height="27.6944" stroke-width="0"/>
      <rect width="11.8056" x="342.514" y="179.347" fill="#808080" height="27.6944" stroke-width="0"/>
     </g>
     <rect width="3.54167" opacity="0.3" x="0" y="19.9722" fill="#FFFFFF" height="139.625" stroke-width="0"/>
     <rect width="3.54167" x="11.8194" opacity="0.3" y="159.597" fill="#FFFFFF" height="27.6944" stroke-width="0"/>
     <rect width="3.54167" x="19.1667" opacity="0.3" y="45.8889" fill="#FFFFFF" height="141.417" stroke-width="0"/>
     <rect width="3.54167" x="8.26389" opacity="0.3" y="218.5" fill="#FFFFFF" height="13.5694" stroke-width="0"/>
     <rect width="3.55556" x="342.514" opacity="0.3" y="218.5" fill="#FFFFFF" height="13.5694" stroke-width="0"/>
     <rect width="3.54167" x="22.7083" opacity="0.3" y="199.111" fill="#FFFFFF" height="19.3889" stroke-width="0"/>
     <rect width="3.55556" x="327.319" opacity="0.3" y="195.556" fill="#FFFFFF" height="22.9444" stroke-width="0"/>
     <rect width="11.8194" x="3.55556" opacity="0.3" y="156.042" fill="#FFFFFF" height="3.55556" stroke-width="0"/>
     <rect width="3.79167" x="15.375" opacity="0.3" y="183.736" fill="#FFFFFF" height="3.55556" stroke-width="0"/>
     <rect width="14.4444" x="8.26389" opacity="0.3" y="214.958" fill="#FFFFFF" height="3.55556" stroke-width="0"/>
     <rect width="15.1944" x="330.875" opacity="0.3" y="214.958" fill="#FFFFFF" height="3.55556" stroke-width="0"/>
     <rect width="301.083" x="26.2639" opacity="0.3" y="247.278" fill="#FFFFFF" height="3.55556" stroke-width="0"/>
     <rect width="304.639" x="22.7083" opacity="0.3" y="195.556" fill="#FFFFFF" height="3.55556" stroke-width="0"/>
     <polygon opacity="0.3" fill="#FFFFFF" points="354.333,19.9722,350.778,23.5139,3.55556,23.5139,3.55556,19.9722" stroke-width="0"/>
     <polygon opacity="0.3" fill="#FFFFFF" points="334.458,42.3472,330.903,45.9028,19.1667,45.9028,19.1667,42.3472" stroke-width="0"/>
     <polygon opacity="0.1" points="354.333,159.597,350.778,159.597,350.778,23.5139,354.333,19.9722" stroke-width="0"/>
     <polygon opacity="0.1" points="334.431,187.292,330.875,187.292,330.875,45.9028,334.431,42.3472" stroke-width="0"/>
     <rect width="3.61111" x="338.903" opacity="0.1" y="159.597" height="27.6944" stroke-width="0"/>
     <rect width="11.875" x="338.903" opacity="0.1" y="156" height="3.59722" stroke-width="0"/>
     <rect width="3.61111" x="350.722" opacity="0.1" y="207.083" height="52.0278" stroke-width="0"/>
     <rect width="350.722" x="0.0277778" opacity="0.1" y="255.458" height="3.59722" stroke-width="0"/>
     <rect width="308.167" x="22.7083" opacity="0.42" y="45.8889" fill="#CCCCCC" height="141.417" stroke-width="0"/>
     <rect width="14.5694" x="11.8194" y="218.5" fill="#666666" height="13.5694" stroke-width="0"/>
     <rect width="15.3333" x="327.181" y="218.5" fill="#666666" height="13.5694" stroke-width="0"/>
    </g>
    <g opacity="0.3" stroke-width="0">
     <g stroke-width="0">
      <rect width="3.55556" x="298.056" y="199.111" fill="#FFFFFF" height="20.2778" stroke-width="0"/>
     </g>
     <g stroke-width="0">
      <rect width="3.55556" x="262.097" y="199.111" fill="#FFFFFF" height="20.2778" stroke-width="0"/>
     </g>
     <g stroke-width="0">
      <rect width="3.55556" x="226.125" y="199.111" fill="#FFFFFF" height="20.2778" stroke-width="0"/>
     </g>
     <g stroke-width="0">
      <rect width="3.55556" x="190.139" y="199.111" fill="#FFFFFF" height="20.2778" stroke-width="0"/>
     </g>
     <g stroke-width="0">
      <rect width="3.55556" x="154.181" y="199.111" fill="#FFFFFF" height="20.2778" stroke-width="0"/>
     </g>
     <g stroke-width="0">
      <rect width="3.55556" x="118.208" y="199.111" fill="#FFFFFF" height="20.2778" stroke-width="0"/>
     </g>
     <g stroke-width="0">
      <rect width="3.55556" x="82.2361" y="199.111" fill="#FFFFFF" height="20.2778" stroke-width="0"/>
     </g>
     <g stroke-width="0">
      <rect width="3.54167" x="46.2639" y="199.111" fill="#FFFFFF" height="20.2778" stroke-width="0"/>
     </g>
    </g>
    <g opacity="0.3" stroke-width="0">
     <g stroke-width="0">
      <rect width="3.55556" x="310.458" y="0" fill="#FFFFFF" height="20.2778" stroke-width="0"/>
     </g>
     <g stroke-width="0">
      <rect width="3.55556" x="270.958" y="0" fill="#FFFFFF" height="20.2778" stroke-width="0"/>
     </g>
     <g stroke-width="0">
      <rect width="3.55556" x="231.472" y="0" fill="#FFFFFF" height="20.2778" stroke-width="0"/>
     </g>
     <g stroke-width="0">
      <rect width="3.55556" x="191.958" y="0" fill="#FFFFFF" height="20.2778" stroke-width="0"/>
     </g>
     <g stroke-width="0">
      <rect width="3.55556" x="152.472" y="0" fill="#FFFFFF" height="20.2778" stroke-width="0"/>
     </g>
     <g stroke-width="0">
      <rect width="3.55556" x="112.972" y="0" fill="#FFFFFF" height="20.2778" stroke-width="0"/>
     </g>
     <g stroke-width="0">
      <rect width="3.55556" x="73.4722" y="0" fill="#FFFFFF" height="20.2778" stroke-width="0"/>
     </g>
     <g stroke-width="0">
      <rect width="3.54167" x="33.9722" y="0" fill="#FFFFFF" height="20.2778" stroke-width="0"/>
     </g>
    </g>
   </g>
  </g>
  <g transform="translate(61.2015,534.05)">
   <rect width="31.93" x="0" y="0" fill="#8D8C8C" height="31.9" id="connector0pin" stroke-width="0"/>
   <rect width="16.4442" x="7.79153" y="7.73544" fill="#8C8663" height="16.4152" stroke-width="0"/>
   <polygon fill="#B8AF82" points="0,31.9,7.79153,24.1368,7.79153,6.97162,0,0" stroke-width="0"/>
   <polygon fill="#80795B" points="24.2079,7.76321,7.90264,7.76321,0,0,31.93,0" stroke-width="0"/>
   <polygon fill="#5E5B43" points="24.2079,24.1368,24.2079,7.76321,31.93,0,31.93,31.9" stroke-width="0"/>
   <polygon fill="#9A916C" points="0,31.9,7.87486,24.1368,24.2079,24.1368,31.93,31.9" stroke-width="0"/>
  </g>
  <g transform="translate(61.2015,34.05)">
   <rect width="31.93" x="0" y="0" fill="#8D8C8C" height="31.9" id="connector9pin" stroke-width="0"/>
   <rect width="16.4442" x="7.79153" y="7.73544" fill="#8C8663" height="16.4152" stroke-width="0"/>
   <polygon fill="#B8AF82" points="0,31.9,7.79153,24.1368,7.79153,6.97162,0,0" stroke-width="0"/>
   <polygon fill="#80795B" points="24.2079,7.76321,7.90264,7.76321,0,0,31.93,0" stroke-width="0"/>
   <polygon fill="#5E5B43" points="24.2079,24.1368,24.2079,7.76321,31.93,0,31.93,31.9" stroke-width="0"/>
   <polygon fill="#9A916C" points="0,31.9,7.87486,24.1368,24.2079,24.1368,31.93,31.9" stroke-width="0"/>
  </g>
  <g transform="translate(161.202,534.05)">
   <rect width="31.93" x="0" y="0" fill="#8D8C8C" height="31.9" id="connector1pin" stroke-width="0"/>
   <rect width="16.4442" x="7.79153" y="7.73544" fill="#8C8663" height="16.4152" stroke-width="0"/>
   <polygon fill="#B8AF82" points="0,31.9,7.79153,24.1368,7.79153,6.97162,0,0" stroke-width="0"/>
   <polygon fill="#80795B" points="24.2079,7.76321,7.90264,7.76321,0,0,31.93,0" stroke-width="0"/>
   <polygon fill="#5E5B43" points="24.2079,24.1368,24.2079,7.76321,31.93,0,31.93,31.9" stroke-width="0"/>
   <polygon fill="#9A916C" points="0,31.9,7.87486,24.1368,24.2079,24.1368,31.93,31.9" stroke-width="0"/>
  </g>
  <g transform="translate(161.202,34.05)">
   <rect width="31.93" x="0" y="0" fill="#8D8C8C" height="31.9" id="connector8pin" stroke-width="0"/>
   <rect width="16.4442" x="7.79153" y="7.73544" fill="#8C8663" height="16.4152" stroke-width="0"/>
   <polygon fill="#B8AF82" points="0,31.9,7.79153,24.1368,7.79153,6.97162,0,0" stroke-width="0"/>
   <polygon fill="#80795B" points="24.2079,7.76321,7.90264,7.76321,0,0,31.93,0" stroke-width="0"/>
   <polygon fill="#5E5B43" points="24.2079,24.1368,24.2079,7.76321,31.93,0,31.93,31.9" stroke-width="0"/>
   <polygon fill="#9A916C" points="0,31.9,7.87486,24.1368,24.2079,24.1368,31.93,31.9" stroke-width="0"/>
  </g>
  <g transform="translate(261.202,534.05)">
   <rect width="31.93" x="0" y="0" fill="#8D8C8C" height="31.9" id="connector2pin" stroke-width="0"/>
   <rect width="16.4442" x="7.79153" y="7.73544" fill="#8C8663" height="16.4152" stroke-width="0"/>
   <polygon fill="#B8AF82" points="0,31.9,7.79153,24.1368,7.79153,6.97162,0,0" stroke-width="0"/>
   <polygon fill="#80795B" points="24.2079,7.76321,7.90264,7.76321,0,0,31.93,0" stroke-width="0"/>
   <polygon fill="#5E5B43" points="24.2079,24.1368,24.2079,7.76321,31.93,0,31.93,31.9" stroke-width="0"/>
   <polygon fill="#9A916C" points="0,31.9,7.87486,24.1368,24.2079,24.1368,31.93,31.9" stroke-width="0"/>
  </g>
  <g transform="translate(261.202,34.05)">
   <rect width="31.93" x="0" y="0" fill="#8D8C8C" height="31.9" id="connector7pin" stroke-width="0"/>
   <rect width="16.4442" x="7.79153" y="7.73544" fill="#8C8663" height="16.4152" stroke-width="0"/>
   <polygon fill="#B8AF82" points="0,31.9,7.79153,24.1368,7.79153,6.97162,0,0" stroke-width="0"/>
   <polygon fill="#80795B" points="24.2079,7.76321,7.90264,7.76321,0,0,31.93,0" stroke-width="0"/>
   <polygon fill="#5E5B43" points="24.2079,24.1368,24.2079,7.76321,31.93,0,31.93,31.9" stroke-width="0"/>
   <polygon fill="#9A916C" points="0,31.9,7.87486,24.1368,24.2079,24.1368,31.93,31.9" stroke-width="0"/>
  </g>
  <g transform="translate(361.202,534.05)">
   <rect width="31.93" x="0" y="0" fill="#8D8C8C" height="31.9" id="connector3pin" stroke-width="0"/>
   <rect width="16.4442" x="7.79153" y="7.73544" fill="#8C8663" height="16.4152" stroke-width="0"/>
   <polygon fill="#B8AF82" points="0,31.9,7.79153,24.1368,7.79153,6.97162,0,0" stroke-width="0"/>
   <polygon fill="#80795B" points="24.2079,7.76321,7.90264,7.76321,0,0,31.93,0" stroke-width="0"/>
   <polygon fill="#5E5B43" points="24.2079,24.1368,24.2079,7.76321,31.93,0,31.93,31.9" stroke-width="0"/>
   <polygon fill="#9A916C" points="0,31.9,7.87486,24.1368,24.2079,24.1368,31.93,31.9" stroke-width="0"/>
  </g>
  <g transform="translate(361.202,34.05)">
   <rect width="31.93" x="0" y="0" fill="#8D8C8C" height="31.9" id="connector6pin" stroke-width="0"/>
   <rect width="16.4442" x="7.79153" y="7.73544" fill="#8C8663" height="16.4152" stroke-width="0"/>
   <polygon fill="#B8AF82" points="0,31.9,7.79153,24.1368,7.79153,6.97162,0,0" stroke-width="0"/>
   <polygon fill="#80795B" points="24.2079,7.76321,7.90264,7.76321,0,0,31.93,0" stroke-width="0"/>
   <polygon fill="#5E5B43" points="24.2079,24.1368,24.2079,7.76321,31.93,0,31.93,31.9" stroke-width="0"/>
   <polygon fill="#9A916C" points="0,31.9,7.87486,24.1368,24.2079,24.1368,31.93,31.9" stroke-width="0"/>
  </g>
  <g transform="translate(461.202,534.05)">
   <rect width="31.93" x="0" y="0" fill="#8D8C8C" height="31.9" id="connector4pin" stroke-width="0"/>
   <rect width="16.4442" x="7.79153" y="7.73544" fill="#8C8663" height="16.4152" stroke-width="0"/>
   <polygon fill="#B8AF82" points="0,31.9,7.79153,24.1368,7.79153,6.97162,0,0" stroke-width="0"/>
   <polygon fill="#80795B" points="24.2079,7.76321,7.90264,7.76321,0,0,31.93,0" stroke-width="0"/>
   <polygon fill="#5E5B43" points="24.2079,24.1368,24.2079,7.76321,31.93,0,31.93,31.9" stroke-width="0"/>
   <polygon fill="#9A916C" points="0,31.9,7.87486,24.1368,24.2079,24.1368,31.93,31.9" stroke-width="0"/>
  </g>
  <g transform="translate(461.202,34.05)">
   <rect width="31.93" x="0" y="0" fill="#8D8C8C" height="31.9" id="connector5pin" stroke-width="0"/>
   <rect width="16.4442" x="7.79153" y="7.73544" fill="#8C8663" height="16.4152" stroke-width="0"/>
   <polygon fill="#B8AF82" points="0,31.9,7.79153,24.1368,7.79153,6.97162,0,0" stroke-width="0"/>
   <polygon fill="#80795B" points="24.2079,7.76321,7.90264,7.76321,0,0,31.93,0" stroke-width="0"/>
   <polygon fill="#5E5B43" points="24.2079,24.1368,24.2079,7.76321,31.93,0,31.93,31.9" stroke-width="0"/>
   <polygon fill="#9A916C" points="0,31.9,7.87486,24.1368,24.2079,24.1368,31.93,31.9" stroke-width="0"/>
  </g>
 </g>
 <text x="50" y="324.375" font-family="OCRA" fill="white" text-anchor="start" stroke="none" id="label" stroke-width="0" font-size="65"/>
 <g transform="translate(90.6665,526.05)">
  <g transform="rotate(-90)">
   <text x="0" y="0" font-family="OCRA" fill="white" text-anchor="start" stroke="none" stroke-width="0" font-size="45"/>
  </g>
 </g>
 <g transform="translate(90.6665,73.95)">
  <g transform="rotate(-90)">
   <text x="0" y="0" font-family="OCRA" fill="white" text-anchor="end" stroke="none" stroke-width="0" font-size="45"/>
  </g>
 </g>
 <g transform="translate(190.667,526.05)">
  <g transform="rotate(-90)">
   <text x="0" y="0" font-family="OCRA" fill="white" text-anchor="start" stroke="none" stroke-width="0" font-size="45"/>
  </g>
 </g>
 <g transform="translate(190.667,73.95)">
  <g transform="rotate(-90)">
   <text x="0" y="0" font-family="OCRA" fill="white" text-anchor="end" stroke="none" stroke-width="0" font-size="45"/>
  </g>
 </g>
 <g transform="translate(290.667,526.05)">
  <g transform="rotate(-90)">
   <text x="0" y="0" font-family="OCRA" fill="white" text-anchor="start" stroke="none" stroke-width="0" font-size="45"/>
  </g>
 </g>
 <g transform="translate(290.667,73.95)">
  <g transform="rotate(-90)">
   <text x="0" y="0" font-family="OCRA" fill="white" text-anchor="end" stroke="none" stroke-width="0" font-size="45"/>
  </g>
 </g>
 <g transform="translate(390.667,526.05)">
  <g transform="rotate(-90)">
   <text x="0" y="0" font-family="OCRA" fill="white" text-anchor="start" stroke="none" stroke-width="0" font-size="45"/>
  </g>
 </g>
 <g transform="translate(390.667,73.95)">
  <g transform="rotate(-90)">
   <text x="0" y="0" font-family="OCRA" fill="white" text-anchor="end" stroke="none" stroke-width="0" font-size="45"/>
  </g>
 </g>
 <g transform="translate(490.667,526.05)">
  <g transform="rotate(-90)">
   <text x="0" y="0" font-family="OCRA" fill="white" text-anchor="start" stroke="none" stroke-width="0" font-size="45"/>
  </g>
 </g>
 <g transform="translate(490.667,73.95)">
  <g transform="rotate(-90)">
   <text x="0" y="0" font-family="OCRA" fill="white" text-anchor="end" stroke="none" stroke-width="0" font-size="45"/>
  </g>
 </g>
</svg>
