<?xml version='1.0' encoding='UTF-8' standalone='no'?>
<!-- Created with Fritzing (http://www.fritzing.org/) -->
<svg width="0.542694in" x="0in" version="1.2" y="0in" xmlns="http://www.w3.org/2000/svg" height="0.6in" viewBox="0 0 542.694 600" baseProfile="tiny" xmlns:svg="http://www.w3.org/2000/svg">
 <desc>Fritzing breadboard generated by brd2svg</desc>
 <g id="breadboard">
  <g id="icon">
   <path fill="#1F7A34" stroke="none" stroke-width="0" d="M0,0L0,270A30,30 0 0 1 0,330L0,600L542.694,600L542.694,0L0,0z"/>
   <g transform="translate(100,151.035)">
    <g stroke-width="0">
     <g stroke-width="0">
      <g stroke-width="0">
       <polygon fill="#B7B7B7" points="111.014,297.931,134.972,297.931,134.972,227.667,111.014,227.667" stroke-width="0"/>
       <polygon fill="#B7B7B7" points="211,297.931,234.931,297.931,234.931,227.667,211,227.667" stroke-width="0"/>
      </g>
     </g>
     <rect width="342.694" x="0" y="40.3472" fill="#AD9E73" height="217.861" stroke-width="0"/>
     <g stroke-width="0">
      <polygon fill="#C2B990" points="274.153,211.222,246.917,211.222,246.917,197.139,96.7083,197.139,96.7083,211.222,71.3611,211.222,71.3611,258.181,274.153,258.181" stroke-width="0"/>
     </g>
     <rect width="258.194" x="42.25" y="0" fill="#F1F3E6" height="40.3472" stroke-width="0"/>
     <polygon opacity="0.5" fill="#A0916B" points="71.3611,211.153,96.7083,211.153,96.7083,197.056,246.917,197.056,246.917,211.153,274.153,211.153,274.153,171.167,246.917,171.167,96.7083,171.167,71.3611,171.167" enable-background="new    " stroke-width="0"/>
     <rect width="202.806" x="71.3611" opacity="0.1" y="76.5139" fill="#FFFFFF" height="72.7639" enable-background="new    " stroke-width="0"/>
     <rect width="202.806" x="71.3611" opacity="0.1" y="47.1528" fill="#FFFFFF" height="72.7639" enable-background="new    " stroke-width="0"/>
     <g stroke-width="0">
      <g stroke-width="0">
       <path fill="#F1F3E6" stroke-width="0" d="M0,258.181l0,39.75l42.25,0l0,-39.75L0,258.181z"/>
      </g>
     </g>
     <g stroke-width="0">
      <g stroke-width="0">
       <path fill="#F1F3E6" stroke-width="0" d="M300.444,258.181l0,39.75l42.25,0l0,-39.75L300.444,258.181z"/>
      </g>
     </g>
     <g stroke-width="0">
      <g stroke-width="0">
       <polygon fill="#F1F3E6" points="0,40.3472,0,258.181,71.3611,258.181,71.3611,83.5556,113.597,83.5556,113.597,258.181,231.889,258.181,231.889,83.5556,274.153,83.5556,274.153,258.181,342.694,258.181,342.694,40.3472" stroke-width="0"/>
      </g>
     </g>
     <rect width="42.2361" x="300.444" opacity="0.4" y="258.181" fill="#C2B990" height="4.47222" enable-background="new    " stroke-width="0"/>
     <rect width="42.25" opacity="0.4" x="0" y="258.181" fill="#C2B990" height="4.47222" enable-background="new    " stroke-width="0"/>
     <rect width="42.2361" x="71.3611" opacity="0.4" y="0" fill="#AD9E73" height="40.3472" enable-background="new    " stroke-width="0"/>
     <rect width="42.2639" x="231.889" opacity="0.4" y="0" fill="#AD9E73" height="40.3472" enable-background="new    " stroke-width="0"/>
    </g>
   </g>
  </g>
  <g transform="translate(205.382,534.05)">
   <rect width="31.93" x="0" y="0" fill="#8D8C8C" height="31.9" id="connector0pin" stroke-width="0"/>
   <rect width="16.4442" x="7.79153" y="7.73544" fill="#8C8663" height="16.4152" stroke-width="0"/>
   <polygon fill="#B8AF82" points="0,31.9,7.79153,24.1368,7.79153,6.97162,0,0" stroke-width="0"/>
   <polygon fill="#80795B" points="24.2079,7.76321,7.90264,7.76321,0,0,31.93,0" stroke-width="0"/>
   <polygon fill="#5E5B43" points="24.2079,24.1368,24.2079,7.76321,31.93,0,31.93,31.9" stroke-width="0"/>
   <polygon fill="#9A916C" points="0,31.9,7.87486,24.1368,24.2079,24.1368,31.93,31.9" stroke-width="0"/>
  </g>
  <g transform="translate(205.382,34.05)">
   <rect width="31.93" x="0" y="0" fill="#8D8C8C" height="31.9" id="connector3pin" stroke-width="0"/>
   <rect width="16.4442" x="7.79153" y="7.73544" fill="#8C8663" height="16.4152" stroke-width="0"/>
   <polygon fill="#B8AF82" points="0,31.9,7.79153,24.1368,7.79153,6.97162,0,0" stroke-width="0"/>
   <polygon fill="#80795B" points="24.2079,7.76321,7.90264,7.76321,0,0,31.93,0" stroke-width="0"/>
   <polygon fill="#5E5B43" points="24.2079,24.1368,24.2079,7.76321,31.93,0,31.93,31.9" stroke-width="0"/>
   <polygon fill="#9A916C" points="0,31.9,7.87486,24.1368,24.2079,24.1368,31.93,31.9" stroke-width="0"/>
  </g>
  <g transform="translate(305.382,534.05)">
   <rect width="31.93" x="0" y="0" fill="#8D8C8C" height="31.9" id="connector1pin" stroke-width="0"/>
   <rect width="16.4442" x="7.79153" y="7.73544" fill="#8C8663" height="16.4152" stroke-width="0"/>
   <polygon fill="#B8AF82" points="0,31.9,7.79153,24.1368,7.79153,6.97162,0,0" stroke-width="0"/>
   <polygon fill="#80795B" points="24.2079,7.76321,7.90264,7.76321,0,0,31.93,0" stroke-width="0"/>
   <polygon fill="#5E5B43" points="24.2079,24.1368,24.2079,7.76321,31.93,0,31.93,31.9" stroke-width="0"/>
   <polygon fill="#9A916C" points="0,31.9,7.87486,24.1368,24.2079,24.1368,31.93,31.9" stroke-width="0"/>
  </g>
  <g transform="translate(305.382,34.05)">
   <rect width="31.93" x="0" y="0" fill="#8D8C8C" height="31.9" id="connector2pin" stroke-width="0"/>
   <rect width="16.4442" x="7.79153" y="7.73544" fill="#8C8663" height="16.4152" stroke-width="0"/>
   <polygon fill="#B8AF82" points="0,31.9,7.79153,24.1368,7.79153,6.97162,0,0" stroke-width="0"/>
   <polygon fill="#80795B" points="24.2079,7.76321,7.90264,7.76321,0,0,31.93,0" stroke-width="0"/>
   <polygon fill="#5E5B43" points="24.2079,24.1368,24.2079,7.76321,31.93,0,31.93,31.9" stroke-width="0"/>
   <polygon fill="#9A916C" points="0,31.9,7.87486,24.1368,24.2079,24.1368,31.93,31.9" stroke-width="0"/>
  </g>
 </g>
 <text x="50" y="324.375" font-family="OCRA" fill="white" text-anchor="start" stroke="none" id="label" stroke-width="0" font-size="65"/>
 <g transform="translate(234.847,526.05)">
  <g transform="rotate(-90)">
   <text x="0" y="0" font-family="OCRA" fill="white" text-anchor="start" stroke="none" stroke-width="0" font-size="45"/>
  </g>
 </g>
 <g transform="translate(234.847,73.95)">
  <g transform="rotate(-90)">
   <text x="0" y="0" font-family="OCRA" fill="white" text-anchor="end" stroke="none" stroke-width="0" font-size="45"/>
  </g>
 </g>
 <g transform="translate(334.847,526.05)">
  <g transform="rotate(-90)">
   <text x="0" y="0" font-family="OCRA" fill="white" text-anchor="start" stroke="none" stroke-width="0" font-size="45"/>
  </g>
 </g>
 <g transform="translate(334.847,73.95)">
  <g transform="rotate(-90)">
   <text x="0" y="0" font-family="OCRA" fill="white" text-anchor="end" stroke="none" stroke-width="0" font-size="45"/>
  </g>
 </g>
</svg>
