<?xml version='1.0' encoding='UTF-8' standalone='no'?>
<!-- Created with Fritzing (http://www.fritzing.org/) -->
<svg width="0.849472in" x="0in" version="1.2" y="0in" xmlns="http://www.w3.org/2000/svg" height="1.2in" viewBox="0 0 849.472 1200" baseProfile="tiny" xmlns:svg="http://www.w3.org/2000/svg">
 <desc>Fritzing breadboard generated by brd2svg</desc>
 <g id="breadboard">
  <g id="icon">
   <path fill="#1F7A34" stroke="none" stroke-width="0" d="M0,0L0,570A30,30 0 0 1 0,630L0,1200L849.472,1200L849.472,0L0,0z"/>
   <g transform="translate(100,243.5)">
    <path fill="#7A7A7A" stroke-width="0" d="M64.6111,143.889l0,536.319l22.1806,0l0,23.7083l232.431,0l1.61111,-15.2222l7.30556,0l1.61111,15.2222l232.694,0l0,-23.7083l22.1806,0L584.625,143.889L64.6111,143.889zM237.208,645.236c-0.75,4.26389,-5.5,7.70833,-11.0417,7.70833l-61.8194,0c-5.51389,0,-10.5556,-3.52778,-11.0972,-7.70833L114.292,357.944c-0.708333,-4.23611,3.55556,-7.73611,8.97222,-7.73611l9.09722,0c5.5,0,10.4861,3.52778,11.0833,7.73611l29.3889,241.444c0.458333,4.30556,5.18056,7.75,11.0139,7.75l22.9444,0c5.31944,0,10.5556,-3.5,11.0694,-7.75l29.2222,-241.444c0.652778,-4.20833,5.18056,-7.70833,11.0694,-7.70833l8.98611,-0.0277778c5.44444,0,9.625,3.52778,9.08333,7.70833L237.208,645.236zM496,645.236c-0.75,4.26389,-5.5,7.70833,-11.0556,7.70833l-61.7917,0c-5.51389,0,-10.5694,-3.52778,-11.125,-7.70833L373.056,357.944c-0.694444,-4.23611,3.55556,-7.73611,8.97222,-7.73611l9.08333,0c5.5,0,10.4861,3.52778,11.0694,7.73611l29.4028,241.444c0.458333,4.30556,5.16667,7.75,11,7.75l22.9444,0c5.31944,0,10.5556,-3.5,11.0694,-7.75l29.25,-241.444c0.666667,-4.20833,5.18056,-7.70833,11.0417,-7.70833l8.97222,-0.0277778c5.45833,0,9.63889,3.52778,9.09722,7.70833L496,645.236z"/>
    <rect width="447.056" x="101.194" y="190.444" fill="#CCCCCC" height="464.417" stroke-width="0"/>
    <rect width="447.056" x="101.194" y="654.861" fill="#F2F2F2" height="24.3056" stroke-width="0"/>
    <path fill="#B0B0B0" stroke-width="0" d="M564.917,614.861l13.8889,0c0,7.43056,1.375,12.2917,3.75,13.8611c0.916667,0.430556,8.70833,1.48611,14.0694,1.48611l0,9.36111l0,4.52778l0,45.9306l0,2.13889l0,11.75c-8.38889,0,-18.2778,-1.54167,-21.6806,-3.76389c-9.22222,-6.18056,-9.93056,-18.625,-10,-24.1389l-0.0277778,-0.0277778l0,-55.5556l0.263889,0.152778C564.944,618.167,564.917,616.125,564.917,614.861z"/>
    <path fill="#8F8F8F" stroke-width="0" d="M580.903,626.792c-1.36111,-2.38889,-2.06944,-6.45833,-2.06944,-11.9583l-13.8889,0l0,59.7917c0,3.90278,0.0972222,14.375,5.95833,21.6806c1.73611,2.01389,2.625,4.36111,11.2778,6.26389C580.792,700.139,580.903,626.792,580.903,626.792z"/>
    <rect width="39.4028" x="176.972" y="0" fill="#4D4D4D" height="95.5139" stroke-width="0"/>
    <rect width="39.3611" x="265.569" y="0" fill="#4D4D4D" height="95.5139" stroke-width="0"/>
    <rect width="39.3611" x="344.306" y="0" fill="#4D4D4D" height="95.5139" stroke-width="0"/>
    <rect width="39.4306" x="432.889" y="0" fill="#4D4D4D" height="95.5139" stroke-width="0"/>
    <path fill="#B0B0B0" stroke-width="0" d="M84.4722,614.861l-13.8889,0c0,7.43056,-1.375,12.2917,-3.73611,13.8611c-0.930556,0.430556,-8.70833,1.48611,-14.0694,1.48611l0,9.36111l0,4.52778l0,45.9306l0,2.13889l0,11.75c8.38889,0,18.3056,-1.54167,21.6667,-3.76389c9.23611,-6.18056,9.95833,-18.625,10.0139,-24.1389l0.0138889,-0.0277778l0,-55.5556l-0.25,0.152778C84.4583,618.167,84.4722,616.125,84.4722,614.861z"/>
    <path fill="#8F8F8F" stroke-width="0" d="M67.2639,702.528c8.59722,-1.875,9.55556,-4.29167,11.2778,-6.26389c5.875,-7.23611,5.95833,-17.7083,5.95833,-21.6528l0,-59.7917l-13.8889,0c0,5.5,-0.777778,9.55556,-2.06944,11.9306C68.5,626.792,68.5972,700.139,67.2639,702.528z"/>
    <path fill="#B3B3B3" stroke-width="0" d="M64.6111,84.0972l0,536.292l22.1806,0l0,23.7083l475.694,0l0,-23.7083l22.1667,0L584.653,84.0972L64.6111,84.0972zM237.208,585.444c-0.75,4.25,-5.5,7.69444,-11.0417,7.69444l-61.8194,0c-5.51389,0,-10.5556,-3.5,-11.0972,-7.69444L114.292,298.139c-0.708333,-4.22222,3.55556,-7.72222,8.97222,-7.72222l9.09722,0c5.5,0,10.4861,3.51389,11.0833,7.72222l29.3889,241.472c0.458333,4.31944,5.18056,7.76389,11.0139,7.76389l22.9444,0c5.31944,0,10.5556,-3.52778,11.0694,-7.76389l29.2222,-241.458c0.652778,-4.22222,5.18056,-7.70833,11.0694,-7.70833l8.98611,-0.0277778c5.44444,0,9.625,3.51389,9.08333,7.70833L237.208,585.444zM496,585.444c-0.75,4.25,-5.5,7.69444,-11.0556,7.69444l-61.7917,0c-5.51389,0,-10.5694,-3.5,-11.125,-7.69444L373.056,298.139c-0.694444,-4.22222,3.55556,-7.72222,8.97222,-7.72222l9.08333,0c5.5,0,10.4861,3.51389,11.0694,7.72222l29.4028,241.472c0.458333,4.31944,5.16667,7.76389,11,7.76389l22.9444,0c5.31944,0,10.5556,-3.52778,11.0694,-7.76389l29.25,-241.458c0.666667,-4.22222,5.18056,-7.70833,11.0417,-7.70833l8.97222,-0.0277778c5.45833,0,9.63889,3.51389,9.09722,7.70833L496,585.444z"/>
    <polygon fill="none" points="173.597,547.153,216.806,547.153,219.361,524.5,171.347,524.5" stroke-width="0"/>
    <polygon fill="#939393" points="219.361,524.5,216.806,547.153,173.597,547.153,171.347,524.5" stroke-width="0"/>
    <polygon fill="#666666" points="219.361,524.5,220.528,515,170.014,515,171.347,524.5" stroke-width="0"/>
    <polygon fill="none" points="432.375,547.153,475.569,547.153,478.111,524.5,430.125,524.5" stroke-width="0"/>
    <polygon fill="#939393" points="478.111,524.5,475.569,547.153,432.375,547.153,430.125,524.5" stroke-width="0"/>
    <polygon fill="#666666" points="478.111,524.5,479.278,515,428.778,515,430.125,524.5" stroke-width="0"/>
    <line stroke-opacity="0.24" fill="none" stroke="#FFFFFF" stroke-linecap="round" y1="98.8889" stroke-width="11.2" x1="72.4861" y2="610.569" x2="72.4861"/>
    <line stroke-opacity="0.24" fill="none" stroke="#FFFFFF" stroke-linecap="round" y1="98.8889" stroke-width="11.2" x1="576.75" y2="612.653" x2="576.75"/>
    <line stroke-opacity="0.15" fill="none" stroke="#000000" stroke-linecap="round" y1="628.389" stroke-width="5.6" x1="559.417" y2="628.389" x2="89.8194"/>
    <rect width="475.694" x="86.7778" y="635.069" fill="#B0B0B0" height="9.02778" stroke-width="0"/>
    <polygon fill="#B0B0B0" points="319.222,703.917,86.7778,703.917,86.7778,713,318.264,713" stroke-width="0"/>
    <polygon fill="#B0B0B0" points="329.778,703.917,330.736,713,562.472,713,562.472,703.917" stroke-width="0"/>
    <rect width="64.5972" x="0" y="182.222" fill="#4D4D4D" height="90.9444" stroke-width="0"/>
    <rect width="64.5972" x="584.833" y="182.222" fill="#4D4D4D" height="90.9444" stroke-width="0"/>
   </g>
  </g>
  <g transform="translate(358.771,1134.05)">
   <rect width="31.93" x="0" y="0" fill="#8D8C8C" height="31.9" id="connector2pin" stroke-width="0"/>
   <rect width="16.4442" x="7.79153" y="7.73544" fill="#8C8663" height="16.4152" stroke-width="0"/>
   <polygon fill="#B8AF82" points="0,31.9,7.79153,24.1368,7.79153,6.97162,0,0" stroke-width="0"/>
   <polygon fill="#80795B" points="24.2079,7.76321,7.90264,7.76321,0,0,31.93,0" stroke-width="0"/>
   <polygon fill="#5E5B43" points="24.2079,24.1368,24.2079,7.76321,31.93,0,31.93,31.9" stroke-width="0"/>
   <polygon fill="#9A916C" points="0,31.9,7.87486,24.1368,24.2079,24.1368,31.93,31.9" stroke-width="0"/>
  </g>
  <g transform="translate(358.771,34.05)">
   <rect width="31.93" x="0" y="0" fill="#8D8C8C" height="31.9" id="connector5pin" stroke-width="0"/>
   <rect width="16.4442" x="7.79153" y="7.73544" fill="#8C8663" height="16.4152" stroke-width="0"/>
   <polygon fill="#B8AF82" points="0,31.9,7.79153,24.1368,7.79153,6.97162,0,0" stroke-width="0"/>
   <polygon fill="#80795B" points="24.2079,7.76321,7.90264,7.76321,0,0,31.93,0" stroke-width="0"/>
   <polygon fill="#5E5B43" points="24.2079,24.1368,24.2079,7.76321,31.93,0,31.93,31.9" stroke-width="0"/>
   <polygon fill="#9A916C" points="0,31.9,7.87486,24.1368,24.2079,24.1368,31.93,31.9" stroke-width="0"/>
  </g>
  <g transform="translate(458.771,1134.05)">
   <rect width="31.93" x="0" y="0" fill="#8D8C8C" height="31.9" id="connector3pin" stroke-width="0"/>
   <rect width="16.4442" x="7.79153" y="7.73544" fill="#8C8663" height="16.4152" stroke-width="0"/>
   <polygon fill="#B8AF82" points="0,31.9,7.79153,24.1368,7.79153,6.97162,0,0" stroke-width="0"/>
   <polygon fill="#80795B" points="24.2079,7.76321,7.90264,7.76321,0,0,31.93,0" stroke-width="0"/>
   <polygon fill="#5E5B43" points="24.2079,24.1368,24.2079,7.76321,31.93,0,31.93,31.9" stroke-width="0"/>
   <polygon fill="#9A916C" points="0,31.9,7.87486,24.1368,24.2079,24.1368,31.93,31.9" stroke-width="0"/>
  </g>
  <g transform="translate(458.771,34.05)">
   <rect width="31.93" x="0" y="0" fill="#8D8C8C" height="31.9" id="connector4pin" stroke-width="0"/>
   <rect width="16.4442" x="7.79153" y="7.73544" fill="#8C8663" height="16.4152" stroke-width="0"/>
   <polygon fill="#B8AF82" points="0,31.9,7.79153,24.1368,7.79153,6.97162,0,0" stroke-width="0"/>
   <polygon fill="#80795B" points="24.2079,7.76321,7.90264,7.76321,0,0,31.93,0" stroke-width="0"/>
   <polygon fill="#5E5B43" points="24.2079,24.1368,24.2079,7.76321,31.93,0,31.93,31.9" stroke-width="0"/>
   <polygon fill="#9A916C" points="0,31.9,7.87486,24.1368,24.2079,24.1368,31.93,31.9" stroke-width="0"/>
  </g>
 </g>
 <text x="50" y="624.375" font-family="OCRA" fill="white" text-anchor="start" stroke="none" id="label" stroke-width="0" font-size="65">USB-A-S-NOSILK-FEMALE</text>
 <g transform="translate(388.236,1126.05)">
  <g transform="rotate(-90)">
   <text x="0" y="0" font-family="OCRA" fill="white" text-anchor="start" stroke="none" stroke-width="0" font-size="45">D+</text>
  </g>
 </g>
 <g transform="translate(388.236,73.95)">
  <g transform="rotate(-90)">
   <text x="0" y="0" font-family="OCRA" fill="white" text-anchor="end" stroke="none" stroke-width="0" font-size="45">VBUS</text>
  </g>
 </g>
 <g transform="translate(488.236,1126.05)">
  <g transform="rotate(-90)">
   <text x="0" y="0" font-family="OCRA" fill="white" text-anchor="start" stroke="none" stroke-width="0" font-size="45">D-</text>
  </g>
 </g>
 <g transform="translate(488.236,73.95)">
  <g transform="rotate(-90)">
   <text x="0" y="0" font-family="OCRA" fill="white" text-anchor="end" stroke="none" stroke-width="0" font-size="45">GND</text>
  </g>
 </g>
</svg>
