<?xml version='1.0' encoding='UTF-8' standalone='no'?>
<!-- Created with Fritzing (http://www.fritzing.org/) -->
<svg width="1.18925in" x="0in" version="1.2" y="0in" xmlns="http://www.w3.org/2000/svg" height="1.4in" viewBox="0 0 1189.25 1400" baseProfile="tiny" xmlns:svg="http://www.w3.org/2000/svg">
 <desc>Fritzing breadboard generated by brd2svg</desc>
 <g id="breadboard">
  <g id="icon">
   <path fill="#1F7A34" stroke="none" stroke-width="0" d="M0,0L0,670A30,30 0 0 1 0,730L0,1400L1189.25,1400L1189.25,0L0,0z"/>
   <g transform="translate(-394.626,-289.252)">
    <g transform="matrix(0.5, 0, 0, 0.5, 494.626, 494.626)">
     <line class="other" stroke="#F7BD13" stroke-linecap="round" y1="300.275" x1="268.779" y2="359.33" stroke-width="9.99998" x2="327.834"/>
     <line class="other" stroke="#F7BD13" stroke-linecap="round" y1="403.424" x1="333.739" y2="353.031" stroke-width="9.99998" x2="258.149"/>
     <line class="other" stroke="#F7BD13" stroke-linecap="round" y1="377.44" x1="216.023" y2="418.385" stroke-width="9.99998" x2="297.125"/>
     <line class="other" stroke="#F7BD13" stroke-linecap="round" y1="477.046" x1="190.826" y2="482.558" stroke-width="9.99998" x2="281.377"/>
     <line class="other" stroke="#F7BD13" stroke-linecap="round" y1="521.141" x1="309.724" y2="526.652" stroke-width="9.99998" x2="219.173"/>
     <line class="other" stroke="#F7BD13" stroke-linecap="round" y1="575.078" x1="203.425" y2="554.999" stroke-width="9.99998" x2="292.795"/>
     <line class="other" stroke="#F7BD13" stroke-linecap="round" y1="579.015" x1="327.44" y2="616.022" stroke-width="9.99998" x2="248.7"/>
     <line class="other" stroke="#F7BD13" stroke-linecap="round" y1="664.447" x1="246.338" y2="620.353" stroke-width="9.99998" x2="321.141"/>
     <line class="other" stroke="#F7BD13" stroke-linecap="round" y1="629.802" x1="364.448" y2="690.825" stroke-width="9.99998" x2="291.614"/>
     <line class="other" stroke="#F7BD13" stroke-linecap="round" y1="740.038" x1="324.291" y2="669.172" stroke-width="9.99998" x2="376.653"/>
     <line class="other" stroke="#F7BD13" stroke-linecap="round" y1="663.266" x1="416.81" y2="745.55" stroke-width="9.99998" x2="377.834"/>
     <line class="other" stroke="#F7BD13" stroke-linecap="round" y1="775.865" x1="405.393" y2="692.006" stroke-width="9.99998" x2="434.527"/>
     <line class="other" stroke="#F7BD13" stroke-linecap="round" y1="677.046" x1="470.747" y2="766.416" stroke-width="9.99998" x2="457.361"/>
     <line class="other" stroke="#F7BD13" stroke-linecap="round" y1="790.038" x1="493.975" y2="702.243" stroke-width="9.99998" x2="496.731"/>
     <line class="other" stroke="#F7BD13" stroke-linecap="round" y1="672.715" x1="524.29" y2="763.266" stroke-width="9.99998" x2="542.007"/>
     <line class="other" stroke="#F7BD13" stroke-linecap="round" y1="765.235" x1="587.282" y2="689.251" stroke-width="9.99998" x2="558.148"/>
     <line class="other" stroke="#F7BD13" stroke-linecap="round" y1="650.668" x1="580.196" y2="732.951" stroke-width="9.99998" x2="628.227"/>
     <line class="other" stroke="#F7BD13" stroke-linecap="round" y1="725.471" x1="664.054" y2="656.967" stroke-width="9.99998" x2="617.991"/>
     <line class="other" stroke="#F7BD13" stroke-linecap="round" y1="612.873" x1="623.109" y2="675.077" stroke-width="9.99998" x2="682.558"/>
     <line class="other" stroke="#F7BD13" stroke-linecap="round" y1="656.967" x1="728.227" y2="606.574" stroke-width="9.99998" x2="660.117"/>
     <line class="other" stroke="#F7BD13" stroke-linecap="round" y1="560.117" x1="654.605" y2="600.274" stroke-width="9.99998" x2="735.707"/>
     <line class="other" stroke="#F7BD13" stroke-linecap="round" y1="568.778" x1="769.565" y2="541.219" stroke-width="9.99998" x2="684.132"/>
     <line class="other" stroke="#F7BD13" stroke-linecap="round" y1="514.054" x1="666.416" y2="520.353" stroke-width="9.99998" x2="755.786"/>
     <line class="other" stroke="#F7BD13" stroke-linecap="round" y1="487.676" x1="775.865" y2="486.495" stroke-width="9.99998" x2="689.251"/>
     <line class="other" stroke="#F7BD13" stroke-linecap="round" y1="463.267" x1="658.936" y2="450.668" stroke-width="9.99998" x2="753.424"/>
     <line class="other" stroke="#F7BD13" stroke-linecap="round" y1="408.936" x1="765.235" y2="425.472" stroke-width="9.99998" x2="677.833"/>
     <line class="other" stroke="#F7BD13" stroke-linecap="round" y1="412.086" x1="642.007" y2="373.109" stroke-width="9.99998" x2="729.408"/>
     <line class="other" stroke="#F7BD13" stroke-linecap="round" y1="334.921" x1="727.439" y2="377.046" stroke-width="9.99998" x2="648.306"/>
     <line class="other" stroke="#F7BD13" stroke-linecap="round" y1="368.779" x1="610.511" y2="312.086" stroke-width="9.99998" x2="682.558"/>
     <line class="other" stroke="#F7BD13" stroke-linecap="round" y1="264.448" x1="663.266" y2="334.133" stroke-width="9.99998" x2="602.243"/>
     <line class="other" stroke="#F7BD13" stroke-linecap="round" y1="336.102" x1="563.267" y2="260.511" stroke-width="9.99998" x2="616.81"/>
     <line class="other" stroke="#F7BD13" stroke-linecap="round" y1="220.354" x1="577.046" y2="299.488" stroke-width="9.99998" x2="544.369"/>
     <line class="other" stroke="#F7BD13" stroke-linecap="round" y1="315.236" x1="508.542" y2="229.803" stroke-width="9.99998" x2="528.621"/>
     <line class="other" stroke="#F7BD13" stroke-linecap="round" y1="357.361" x1="370.747" y2="290.826" stroke-width="9.99998" x2="310.511"/>
     <line class="other" stroke="#F7BD13" stroke-linecap="round" y1="253.031" x1="327.44" y2="325.472" stroke-width="9.99998" x2="383.346"/>
     <line class="other" stroke="#F7BD13" stroke-linecap="round" y1="327.834" x1="416.81" y2="249.881" stroke-width="9.99998" x2="373.109"/>
     <line class="other" stroke="#F7BD13" stroke-linecap="round" y1="217.204" x1="400.275" y2="293.188" stroke-width="9.99998" x2="433.346"/>
     <line class="other" stroke="#F7BD13" stroke-linecap="round" y1="317.204" x1="461.298" y2="223.503" stroke-width="9.99998" x2="446.338"/>
     <line class="other" stroke="#F7BD13" stroke-linecap="round" y1="203.425" x1="485.314" y2="285.708" stroke-width="9.99998" x2="485.314"/>
     <line class="other" stroke="#F7BD13" stroke-linecap="round" y1="457.755" x1="309.724" y2="428.621" stroke-width="9.99998" x2="217.992"/>
     <line class="other" stroke="#F7BD13" stroke-linecap="round" y1="300.275" x1="1253.03" y2="359.33" stroke-width="9.99998" x2="1312.08"/>
     <line class="other" stroke="#F7BD13" stroke-linecap="round" y1="403.424" x1="1317.99" y2="353.031" stroke-width="9.99998" x2="1242.4"/>
     <line class="other" stroke="#F7BD13" stroke-linecap="round" y1="377.44" x1="1200.27" y2="418.385" stroke-width="9.99998" x2="1281.38"/>
     <line class="other" stroke="#F7BD13" stroke-linecap="round" y1="477.046" x1="1175.08" y2="482.558" stroke-width="9.99998" x2="1265.63"/>
     <line class="other" stroke="#F7BD13" stroke-linecap="round" y1="521.141" x1="1293.97" y2="526.652" stroke-width="9.99998" x2="1203.42"/>
     <line class="other" stroke="#F7BD13" stroke-linecap="round" y1="575.078" x1="1187.67" y2="554.999" stroke-width="9.99998" x2="1277.04"/>
     <line class="other" stroke="#F7BD13" stroke-linecap="round" y1="579.015" x1="1311.69" y2="616.022" stroke-width="9.99998" x2="1232.95"/>
     <line class="other" stroke="#F7BD13" stroke-linecap="round" y1="664.447" x1="1230.59" y2="620.353" stroke-width="9.99998" x2="1305.39"/>
     <line class="other" stroke="#F7BD13" stroke-linecap="round" y1="629.802" x1="1348.7" y2="690.825" stroke-width="9.99998" x2="1275.86"/>
     <line class="other" stroke="#F7BD13" stroke-linecap="round" y1="740.038" x1="1308.54" y2="669.172" stroke-width="9.99998" x2="1360.9"/>
     <line class="other" stroke="#F7BD13" stroke-linecap="round" y1="663.266" x1="1401.06" y2="745.55" stroke-width="9.99998" x2="1362.08"/>
     <line class="other" stroke="#F7BD13" stroke-linecap="round" y1="775.865" x1="1389.64" y2="692.006" stroke-width="9.99998" x2="1418.78"/>
     <line class="other" stroke="#F7BD13" stroke-linecap="round" y1="677.046" x1="1455" y2="766.416" stroke-width="9.99998" x2="1441.61"/>
     <line class="other" stroke="#F7BD13" stroke-linecap="round" y1="790.038" x1="1478.23" y2="702.243" stroke-width="9.99998" x2="1480.98"/>
     <line class="other" stroke="#F7BD13" stroke-linecap="round" y1="672.715" x1="1508.54" y2="763.266" stroke-width="9.99998" x2="1526.26"/>
     <line class="other" stroke="#F7BD13" stroke-linecap="round" y1="765.235" x1="1571.53" y2="689.251" stroke-width="9.99998" x2="1542.4"/>
     <line class="other" stroke="#F7BD13" stroke-linecap="round" y1="650.668" x1="1564.45" y2="732.951" stroke-width="9.99998" x2="1612.48"/>
     <line class="other" stroke="#F7BD13" stroke-linecap="round" y1="725.471" x1="1648.3" y2="656.967" stroke-width="9.99998" x2="1602.24"/>
     <line class="other" stroke="#F7BD13" stroke-linecap="round" y1="612.873" x1="1607.36" y2="675.077" stroke-width="9.99998" x2="1666.81"/>
     <line class="other" stroke="#F7BD13" stroke-linecap="round" y1="656.967" x1="1712.48" y2="606.574" stroke-width="9.99998" x2="1644.37"/>
     <line class="other" stroke="#F7BD13" stroke-linecap="round" y1="560.117" x1="1638.86" y2="600.274" stroke-width="9.99998" x2="1719.96"/>
     <line class="other" stroke="#F7BD13" stroke-linecap="round" y1="568.778" x1="1753.82" y2="541.219" stroke-width="9.99998" x2="1668.38"/>
     <line class="other" stroke="#F7BD13" stroke-linecap="round" y1="514.054" x1="1650.67" y2="520.353" stroke-width="9.99998" x2="1740.04"/>
     <line class="other" stroke="#F7BD13" stroke-linecap="round" y1="487.676" x1="1760.11" y2="486.495" stroke-width="9.99998" x2="1673.5"/>
     <line class="other" stroke="#F7BD13" stroke-linecap="round" y1="463.267" x1="1643.19" y2="450.668" stroke-width="9.99998" x2="1737.67"/>
     <line class="other" stroke="#F7BD13" stroke-linecap="round" y1="408.936" x1="1749.48" y2="425.472" stroke-width="9.99998" x2="1662.08"/>
     <line class="other" stroke="#F7BD13" stroke-linecap="round" y1="412.086" x1="1626.26" y2="373.109" stroke-width="9.99998" x2="1713.66"/>
     <line class="other" stroke="#F7BD13" stroke-linecap="round" y1="334.921" x1="1711.69" y2="377.046" stroke-width="9.99998" x2="1632.56"/>
     <line class="other" stroke="#F7BD13" stroke-linecap="round" y1="368.779" x1="1594.76" y2="312.086" stroke-width="9.99998" x2="1666.81"/>
     <line class="other" stroke="#F7BD13" stroke-linecap="round" y1="264.448" x1="1647.52" y2="334.133" stroke-width="9.99998" x2="1586.49"/>
     <line class="other" stroke="#F7BD13" stroke-linecap="round" y1="336.102" x1="1547.52" y2="260.511" stroke-width="9.99998" x2="1601.06"/>
     <line class="other" stroke="#F7BD13" stroke-linecap="round" y1="220.354" x1="1561.3" y2="299.488" stroke-width="9.99998" x2="1528.62"/>
     <line class="other" stroke="#F7BD13" stroke-linecap="round" y1="315.236" x1="1492.79" y2="229.803" stroke-width="9.99998" x2="1512.87"/>
     <line class="other" stroke="#F7BD13" stroke-linecap="round" y1="357.361" x1="1355" y2="290.826" stroke-width="9.99998" x2="1294.76"/>
     <line class="other" stroke="#F7BD13" stroke-linecap="round" y1="253.031" x1="1311.69" y2="325.472" stroke-width="9.99998" x2="1367.6"/>
     <line class="other" stroke="#F7BD13" stroke-linecap="round" y1="327.834" x1="1401.06" y2="249.881" stroke-width="9.99998" x2="1357.36"/>
     <line class="other" stroke="#F7BD13" stroke-linecap="round" y1="217.204" x1="1384.52" y2="293.188" stroke-width="9.99998" x2="1417.6"/>
     <line class="other" stroke="#F7BD13" stroke-linecap="round" y1="317.204" x1="1445.55" y2="223.503" stroke-width="9.99998" x2="1430.59"/>
     <line class="other" stroke="#F7BD13" stroke-linecap="round" y1="203.425" x1="1469.56" y2="285.708" stroke-width="9.99998" x2="1469.56"/>
     <line class="other" stroke="#F7BD13" stroke-linecap="round" y1="457.755" x1="1293.97" y2="428.621" stroke-width="9.99998" x2="1202.24"/>
     <line class="other" stroke="#F7BD13" stroke-linecap="round" y1="1284.53" x1="268.779" y2="1343.58" stroke-width="9.99998" x2="327.834"/>
     <line class="other" stroke="#F7BD13" stroke-linecap="round" y1="1387.67" x1="333.739" y2="1337.28" stroke-width="9.99998" x2="258.149"/>
     <line class="other" stroke="#F7BD13" stroke-linecap="round" y1="1361.69" x1="216.023" y2="1402.64" stroke-width="9.99998" x2="297.125"/>
     <line class="other" stroke="#F7BD13" stroke-linecap="round" y1="1461.3" x1="190.826" y2="1466.81" stroke-width="9.99998" x2="281.377"/>
     <line class="other" stroke="#F7BD13" stroke-linecap="round" y1="1505.39" x1="309.724" y2="1510.9" stroke-width="9.99998" x2="219.173"/>
     <line class="other" stroke="#F7BD13" stroke-linecap="round" y1="1559.33" x1="203.425" y2="1539.25" stroke-width="9.99998" x2="292.795"/>
     <line class="other" stroke="#F7BD13" stroke-linecap="round" y1="1563.26" x1="327.44" y2="1600.27" stroke-width="9.99998" x2="248.7"/>
     <line class="other" stroke="#F7BD13" stroke-linecap="round" y1="1648.7" x1="246.338" y2="1604.6" stroke-width="9.99998" x2="321.141"/>
     <line class="other" stroke="#F7BD13" stroke-linecap="round" y1="1614.05" x1="364.448" y2="1675.08" stroke-width="9.99998" x2="291.614"/>
     <line class="other" stroke="#F7BD13" stroke-linecap="round" y1="1724.29" x1="324.291" y2="1653.42" stroke-width="9.99998" x2="376.653"/>
     <line class="other" stroke="#F7BD13" stroke-linecap="round" y1="1647.52" x1="416.81" y2="1729.8" stroke-width="9.99998" x2="377.834"/>
     <line class="other" stroke="#F7BD13" stroke-linecap="round" y1="1760.11" x1="405.393" y2="1676.26" stroke-width="9.99998" x2="434.527"/>
     <line class="other" stroke="#F7BD13" stroke-linecap="round" y1="1661.3" x1="470.747" y2="1750.67" stroke-width="9.99998" x2="457.361"/>
     <line class="other" stroke="#F7BD13" stroke-linecap="round" y1="1774.29" x1="493.975" y2="1686.49" stroke-width="9.99998" x2="496.731"/>
     <line class="other" stroke="#F7BD13" stroke-linecap="round" y1="1656.97" x1="524.29" y2="1747.52" stroke-width="9.99998" x2="542.007"/>
     <line class="other" stroke="#F7BD13" stroke-linecap="round" y1="1749.48" x1="587.282" y2="1673.5" stroke-width="9.99998" x2="558.148"/>
     <line class="other" stroke="#F7BD13" stroke-linecap="round" y1="1634.92" x1="580.196" y2="1717.2" stroke-width="9.99998" x2="628.227"/>
     <line class="other" stroke="#F7BD13" stroke-linecap="round" y1="1709.72" x1="664.054" y2="1641.22" stroke-width="9.99998" x2="617.991"/>
     <line class="other" stroke="#F7BD13" stroke-linecap="round" y1="1597.12" x1="623.109" y2="1659.33" stroke-width="9.99998" x2="682.558"/>
     <line class="other" stroke="#F7BD13" stroke-linecap="round" y1="1641.22" x1="728.227" y2="1590.82" stroke-width="9.99998" x2="660.117"/>
     <line class="other" stroke="#F7BD13" stroke-linecap="round" y1="1544.37" x1="654.605" y2="1584.52" stroke-width="9.99998" x2="735.707"/>
     <line class="other" stroke="#F7BD13" stroke-linecap="round" y1="1553.03" x1="769.565" y2="1525.47" stroke-width="9.99998" x2="684.132"/>
     <line class="other" stroke="#F7BD13" stroke-linecap="round" y1="1498.3" x1="666.416" y2="1504.6" stroke-width="9.99998" x2="755.786"/>
     <line class="other" stroke="#F7BD13" stroke-linecap="round" y1="1471.93" x1="775.865" y2="1470.75" stroke-width="9.99998" x2="689.251"/>
     <line class="other" stroke="#F7BD13" stroke-linecap="round" y1="1447.52" x1="658.936" y2="1434.92" stroke-width="9.99998" x2="753.424"/>
     <line class="other" stroke="#F7BD13" stroke-linecap="round" y1="1393.19" x1="765.235" y2="1409.72" stroke-width="9.99998" x2="677.833"/>
     <line class="other" stroke="#F7BD13" stroke-linecap="round" y1="1396.34" x1="642.007" y2="1357.36" stroke-width="9.99998" x2="729.408"/>
     <line class="other" stroke="#F7BD13" stroke-linecap="round" y1="1319.17" x1="727.439" y2="1361.3" stroke-width="9.99998" x2="648.306"/>
     <line class="other" stroke="#F7BD13" stroke-linecap="round" y1="1353.03" x1="610.511" y2="1296.34" stroke-width="9.99998" x2="682.558"/>
     <line class="other" stroke="#F7BD13" stroke-linecap="round" y1="1248.7" x1="663.266" y2="1318.38" stroke-width="9.99998" x2="602.243"/>
     <line class="other" stroke="#F7BD13" stroke-linecap="round" y1="1320.35" x1="563.267" y2="1244.76" stroke-width="9.99998" x2="616.81"/>
     <line class="other" stroke="#F7BD13" stroke-linecap="round" y1="1204.6" x1="577.046" y2="1283.74" stroke-width="9.99998" x2="544.369"/>
     <line class="other" stroke="#F7BD13" stroke-linecap="round" y1="1299.49" x1="508.542" y2="1214.05" stroke-width="9.99998" x2="528.621"/>
     <line class="other" stroke="#F7BD13" stroke-linecap="round" y1="1341.61" x1="370.747" y2="1275.08" stroke-width="9.99998" x2="310.511"/>
     <line class="other" stroke="#F7BD13" stroke-linecap="round" y1="1237.28" x1="327.44" y2="1309.72" stroke-width="9.99998" x2="383.346"/>
     <line class="other" stroke="#F7BD13" stroke-linecap="round" y1="1312.08" x1="416.81" y2="1234.13" stroke-width="9.99998" x2="373.109"/>
     <line class="other" stroke="#F7BD13" stroke-linecap="round" y1="1201.45" x1="400.275" y2="1277.44" stroke-width="9.99998" x2="433.346"/>
     <line class="other" stroke="#F7BD13" stroke-linecap="round" y1="1301.45" x1="461.298" y2="1207.75" stroke-width="9.99998" x2="446.338"/>
     <line class="other" stroke="#F7BD13" stroke-linecap="round" y1="1187.67" x1="485.314" y2="1269.96" stroke-width="9.99998" x2="485.314"/>
     <line class="other" stroke="#F7BD13" stroke-linecap="round" y1="1442.01" x1="309.724" y2="1412.87" stroke-width="9.99998" x2="217.992"/>
     <line class="other" stroke="#F7BD13" stroke-linecap="round" y1="1284.53" x1="1253.03" y2="1343.58" stroke-width="9.99998" x2="1312.08"/>
     <line class="other" stroke="#F7BD13" stroke-linecap="round" y1="1387.67" x1="1317.99" y2="1337.28" stroke-width="9.99998" x2="1242.4"/>
     <line class="other" stroke="#F7BD13" stroke-linecap="round" y1="1361.69" x1="1200.27" y2="1402.64" stroke-width="9.99998" x2="1281.38"/>
     <line class="other" stroke="#F7BD13" stroke-linecap="round" y1="1461.3" x1="1175.08" y2="1466.81" stroke-width="9.99998" x2="1265.63"/>
     <line class="other" stroke="#F7BD13" stroke-linecap="round" y1="1505.39" x1="1293.97" y2="1510.9" stroke-width="9.99998" x2="1203.42"/>
     <line class="other" stroke="#F7BD13" stroke-linecap="round" y1="1559.33" x1="1187.67" y2="1539.25" stroke-width="9.99998" x2="1277.04"/>
     <line class="other" stroke="#F7BD13" stroke-linecap="round" y1="1563.26" x1="1311.69" y2="1600.27" stroke-width="9.99998" x2="1232.95"/>
     <line class="other" stroke="#F7BD13" stroke-linecap="round" y1="1648.7" x1="1230.59" y2="1604.6" stroke-width="9.99998" x2="1305.39"/>
     <line class="other" stroke="#F7BD13" stroke-linecap="round" y1="1614.05" x1="1348.7" y2="1675.08" stroke-width="9.99998" x2="1275.86"/>
     <line class="other" stroke="#F7BD13" stroke-linecap="round" y1="1724.29" x1="1308.54" y2="1653.42" stroke-width="9.99998" x2="1360.9"/>
     <line class="other" stroke="#F7BD13" stroke-linecap="round" y1="1647.52" x1="1401.06" y2="1729.8" stroke-width="9.99998" x2="1362.08"/>
     <line class="other" stroke="#F7BD13" stroke-linecap="round" y1="1760.11" x1="1389.64" y2="1676.26" stroke-width="9.99998" x2="1418.78"/>
     <line class="other" stroke="#F7BD13" stroke-linecap="round" y1="1661.3" x1="1455" y2="1750.67" stroke-width="9.99998" x2="1441.61"/>
     <line class="other" stroke="#F7BD13" stroke-linecap="round" y1="1774.29" x1="1478.23" y2="1686.49" stroke-width="9.99998" x2="1480.98"/>
     <line class="other" stroke="#F7BD13" stroke-linecap="round" y1="1656.97" x1="1508.54" y2="1747.52" stroke-width="9.99998" x2="1526.26"/>
     <line class="other" stroke="#F7BD13" stroke-linecap="round" y1="1749.48" x1="1571.53" y2="1673.5" stroke-width="9.99998" x2="1542.4"/>
     <line class="other" stroke="#F7BD13" stroke-linecap="round" y1="1634.92" x1="1564.45" y2="1717.2" stroke-width="9.99998" x2="1612.48"/>
     <line class="other" stroke="#F7BD13" stroke-linecap="round" y1="1709.72" x1="1648.3" y2="1641.22" stroke-width="9.99998" x2="1602.24"/>
     <line class="other" stroke="#F7BD13" stroke-linecap="round" y1="1597.12" x1="1607.36" y2="1659.33" stroke-width="9.99998" x2="1666.81"/>
     <line class="other" stroke="#F7BD13" stroke-linecap="round" y1="1641.22" x1="1712.48" y2="1590.82" stroke-width="9.99998" x2="1644.37"/>
     <line class="other" stroke="#F7BD13" stroke-linecap="round" y1="1544.37" x1="1638.86" y2="1584.52" stroke-width="9.99998" x2="1719.96"/>
     <line class="other" stroke="#F7BD13" stroke-linecap="round" y1="1553.03" x1="1753.82" y2="1525.47" stroke-width="9.99998" x2="1668.38"/>
     <line class="other" stroke="#F7BD13" stroke-linecap="round" y1="1498.3" x1="1650.67" y2="1504.6" stroke-width="9.99998" x2="1740.04"/>
     <line class="other" stroke="#F7BD13" stroke-linecap="round" y1="1471.93" x1="1760.11" y2="1470.75" stroke-width="9.99998" x2="1673.5"/>
     <line class="other" stroke="#F7BD13" stroke-linecap="round" y1="1447.52" x1="1643.19" y2="1434.92" stroke-width="9.99998" x2="1737.67"/>
     <line class="other" stroke="#F7BD13" stroke-linecap="round" y1="1393.19" x1="1749.48" y2="1409.72" stroke-width="9.99998" x2="1662.08"/>
     <line class="other" stroke="#F7BD13" stroke-linecap="round" y1="1396.34" x1="1626.26" y2="1357.36" stroke-width="9.99998" x2="1713.66"/>
     <line class="other" stroke="#F7BD13" stroke-linecap="round" y1="1319.17" x1="1711.69" y2="1361.3" stroke-width="9.99998" x2="1632.56"/>
     <line class="other" stroke="#F7BD13" stroke-linecap="round" y1="1353.03" x1="1594.76" y2="1296.34" stroke-width="9.99998" x2="1666.81"/>
     <line class="other" stroke="#F7BD13" stroke-linecap="round" y1="1248.7" x1="1647.52" y2="1318.38" stroke-width="9.99998" x2="1586.49"/>
     <line class="other" stroke="#F7BD13" stroke-linecap="round" y1="1320.35" x1="1547.52" y2="1244.76" stroke-width="9.99998" x2="1601.06"/>
     <line class="other" stroke="#F7BD13" stroke-linecap="round" y1="1204.6" x1="1561.3" y2="1283.74" stroke-width="9.99998" x2="1528.62"/>
     <line class="other" stroke="#F7BD13" stroke-linecap="round" y1="1299.49" x1="1492.79" y2="1214.05" stroke-width="9.99998" x2="1512.87"/>
     <line class="other" stroke="#F7BD13" stroke-linecap="round" y1="1341.61" x1="1355" y2="1275.08" stroke-width="9.99998" x2="1294.76"/>
     <line class="other" stroke="#F7BD13" stroke-linecap="round" y1="1237.28" x1="1311.69" y2="1309.72" stroke-width="9.99998" x2="1367.6"/>
     <line class="other" stroke="#F7BD13" stroke-linecap="round" y1="1312.08" x1="1401.06" y2="1234.13" stroke-width="9.99998" x2="1357.36"/>
     <line class="other" stroke="#F7BD13" stroke-linecap="round" y1="1201.45" x1="1384.52" y2="1277.44" stroke-width="9.99998" x2="1417.6"/>
     <line class="other" stroke="#F7BD13" stroke-linecap="round" y1="1301.45" x1="1445.55" y2="1207.75" stroke-width="9.99998" x2="1430.59"/>
     <line class="other" stroke="#F7BD13" stroke-linecap="round" y1="1187.67" x1="1469.56" y2="1269.96" stroke-width="9.99998" x2="1469.56"/>
     <line class="other" stroke="#F7BD13" stroke-linecap="round" y1="1442.01" x1="1293.97" y2="1412.87" stroke-width="9.99998" x2="1202.24"/>
     <line class="other" stroke="#F7BD13" stroke-linecap="round" y1="572.503" x1="519.999" y2="521.503" stroke-width="44.9999" x2="519.999"/>
     <line class="other" stroke="#F7BD13" stroke-linecap="round" y1="572.503" x1="417.999" y2="521.503" stroke-width="44.9999" x2="417.999"/>
     <line class="other" stroke="#F7BD13" stroke-linecap="round" y1="480.503" x1="572.999" y2="429.503" stroke-width="44.9999" x2="572.999"/>
     <line class="other" stroke="#F7BD13" stroke-linecap="round" y1="572.503" x1="1505" y2="521.503" stroke-width="44.9999" x2="1505"/>
     <line class="other" stroke="#F7BD13" stroke-linecap="round" y1="572.503" x1="1403" y2="521.503" stroke-width="44.9999" x2="1403"/>
     <line class="other" stroke="#F7BD13" stroke-linecap="round" y1="480.503" x1="1558" y2="429.503" stroke-width="44.9999" x2="1558"/>
     <line class="other" stroke="#F7BD13" stroke-linecap="round" y1="1557.5" x1="519.999" y2="1506.5" stroke-width="44.9999" x2="519.999"/>
     <line class="other" stroke="#F7BD13" stroke-linecap="round" y1="1557.5" x1="417.999" y2="1506.5" stroke-width="44.9999" x2="417.999"/>
     <line class="other" stroke="#F7BD13" stroke-linecap="round" y1="1465.5" x1="572.999" y2="1414.5" stroke-width="44.9999" x2="572.999"/>
     <line class="other" stroke="#F7BD13" stroke-linecap="round" y1="1557.5" x1="1505" y2="1506.5" stroke-width="44.9999" x2="1505"/>
     <line class="other" stroke="#F7BD13" stroke-linecap="round" y1="1557.5" x1="1403" y2="1506.5" stroke-width="44.9999" x2="1403"/>
     <line class="other" stroke="#F7BD13" stroke-linecap="round" y1="1465.5" x1="1558" y2="1414.5" stroke-width="44.9999" x2="1558"/>
     <circle class="other" fill="none" cx="485.314" cy="497.125" stroke="#F7BD13" r="295.275" stroke-width="9.99998"/>
     <circle class="other" fill="none" cx="485.708" cy="496.731" stroke="#F7BD13" r="177.165" stroke-width="9.99998"/>
     <circle class="other" fill="none" cx="1469.56" cy="497.125" stroke="#F7BD13" r="295.275" stroke-width="9.99998"/>
     <circle class="other" fill="none" cx="1469.96" cy="496.731" stroke="#F7BD13" r="177.165" stroke-width="9.99998"/>
     <circle class="other" fill="none" cx="485.314" cy="1481.38" stroke="#F7BD13" r="295.275" stroke-width="9.99998"/>
     <circle class="other" fill="none" cx="485.708" cy="1480.98" stroke="#F7BD13" r="177.165" stroke-width="9.99998"/>
     <circle class="other" fill="none" cx="1469.56" cy="1481.38" stroke="#F7BD13" r="295.275" stroke-width="9.99998"/>
     <circle class="other" fill="none" cx="1469.96" cy="1480.98" stroke="#F7BD13" r="177.165" stroke-width="9.99998"/>
     <circle fill="none" cx="313.188" cy="458.503" connectorname="SIG6" stroke="#F7BD13" r="15" stroke-width="9.99998"/>
     <circle fill="none" cx="213.189" cy="378.503" connectorname="SIG5" stroke="#F7BD13" r="15" stroke-width="9.99998"/>
     <circle fill="none" cx="1297.44" cy="458.503" connectorname="SIG8" stroke="#F7BD13" r="15" stroke-width="9.99998"/>
     <circle fill="none" cx="1197.44" cy="378.503" connectorname="SIG7" stroke="#F7BD13" r="15" stroke-width="9.99998"/>
     <circle fill="none" cx="313.188" cy="1442.75" connectorname="SIG2" stroke="#F7BD13" r="15" stroke-width="9.99998"/>
     <circle fill="none" cx="213.189" cy="1362.75" connectorname="SIG1" stroke="#F7BD13" r="15" stroke-width="9.99998"/>
     <circle fill="none" cx="1297.44" cy="1442.75" connectorname="SIG4" stroke="#F7BD13" r="15" stroke-width="9.99998"/>
     <circle fill="none" cx="1197.44" cy="1362.75" connectorname="SIG3" stroke="#F7BD13" r="15" stroke-width="9.99998"/>
     <circle fill="none" cx="417.999" cy="572.503" connectorname="RED3" stroke="#F7BD13" r="15" stroke-width="9.99998"/>
     <circle fill="none" cx="468.999" cy="425.503" connectorname="GND3" stroke="#F7BD13" r="15" stroke-width="9.99998"/>
     <circle fill="none" cx="519.999" cy="572.503" connectorname="BLU3" stroke="#F7BD13" r="15" stroke-width="9.99998"/>
     <circle fill="none" cx="572.999" cy="429.503" connectorname="GRN3" stroke="#F7BD13" r="15" stroke-width="9.99998"/>
     <circle fill="none" cx="1403" cy="572.503" connectorname="RED4" stroke="#F7BD13" r="15" stroke-width="9.99998"/>
     <circle fill="none" cx="1454" cy="425.503" connectorname="GND4" stroke="#F7BD13" r="15" stroke-width="9.99998"/>
     <circle fill="none" cx="1505" cy="572.503" connectorname="BLU4" stroke="#F7BD13" r="15" stroke-width="9.99998"/>
     <circle fill="none" cx="1558" cy="429.503" connectorname="GRN4" stroke="#F7BD13" r="15" stroke-width="9.99998"/>
     <circle fill="none" cx="417.999" cy="1557.5" connectorname="RED1" stroke="#F7BD13" r="15" stroke-width="9.99998"/>
     <circle fill="none" cx="468.999" cy="1410.5" connectorname="GND1" stroke="#F7BD13" r="15" stroke-width="9.99998"/>
     <circle fill="none" cx="519.999" cy="1557.5" connectorname="BLU1" stroke="#F7BD13" r="15" stroke-width="9.99998"/>
     <circle fill="none" cx="572.999" cy="1414.5" connectorname="GRN1" stroke="#F7BD13" r="15" stroke-width="9.99998"/>
     <circle fill="none" cx="1403" cy="1557.5" connectorname="RED2" stroke="#F7BD13" r="15" stroke-width="9.99998"/>
     <circle fill="none" cx="1454" cy="1410.5" connectorname="GND2" stroke="#F7BD13" r="15" stroke-width="9.99998"/>
     <circle fill="none" cx="1505" cy="1557.5" connectorname="BLU2" stroke="#F7BD13" r="15" stroke-width="9.99998"/>
     <circle fill="none" cx="1558" cy="1414.5" connectorname="GRN2" stroke="#F7BD13" r="15" stroke-width="9.99998"/>
     <circle fill="black" cx="497.125" cy="989.25" stroke="black" r="59.055" id="nonconn0" stroke-width="0"/>
     <circle fill="black" cx="989.25" cy="497.125" stroke="black" r="59.055" id="nonconn1" stroke-width="0"/>
     <circle fill="black" cx="1481.38" cy="989.25" stroke="black" r="59.055" id="nonconn2" stroke-width="0"/>
     <circle fill="black" cx="989.25" cy="1481.38" stroke="black" r="59.055" id="nonconn3" stroke-width="0"/>
     <circle fill="black" cx="103.425" cy="1875.08" stroke="black" r="59.055" id="nonconn4" stroke-width="0"/>
     <circle fill="black" cx="103.425" cy="103.425" stroke="black" r="59.055" id="nonconn5" stroke-width="0"/>
     <circle fill="black" cx="1875.08" cy="103.425" stroke="black" r="59.055" id="nonconn6" stroke-width="0"/>
     <circle fill="black" cx="1875.08" cy="1875.08" stroke="black" r="59.055" id="nonconn7" stroke-width="0"/>
     <circle fill="black" cx="417.999" cy="521.503" stroke="black" r="18" id="nonconn8" stroke-width="0"/>
     <circle fill="black" cx="468.999" cy="476.503" stroke="black" r="18" id="nonconn9" stroke-width="0"/>
     <circle fill="black" cx="519.999" cy="521.503" stroke="black" r="18" id="nonconn10" stroke-width="0"/>
     <circle fill="black" cx="572.999" cy="480.503" stroke="black" r="18" id="nonconn11" stroke-width="0"/>
     <circle fill="black" cx="1403" cy="521.503" stroke="black" r="18" id="nonconn12" stroke-width="0"/>
     <circle fill="black" cx="1454" cy="476.503" stroke="black" r="18" id="nonconn13" stroke-width="0"/>
     <circle fill="black" cx="1505" cy="521.503" stroke="black" r="18" id="nonconn14" stroke-width="0"/>
     <circle fill="black" cx="1558" cy="480.503" stroke="black" r="18" id="nonconn15" stroke-width="0"/>
     <circle fill="black" cx="417.999" cy="1506.5" stroke="black" r="18" id="nonconn16" stroke-width="0"/>
     <circle fill="black" cx="468.999" cy="1461.5" stroke="black" r="18" id="nonconn17" stroke-width="0"/>
     <circle fill="black" cx="519.999" cy="1506.5" stroke="black" r="18" id="nonconn18" stroke-width="0"/>
     <circle fill="black" cx="572.999" cy="1465.5" stroke="black" r="18" id="nonconn19" stroke-width="0"/>
     <circle fill="black" cx="1403" cy="1506.5" stroke="black" r="18" id="nonconn20" stroke-width="0"/>
     <circle fill="black" cx="1454" cy="1461.5" stroke="black" r="18" id="nonconn21" stroke-width="0"/>
     <circle fill="black" cx="1505" cy="1506.5" stroke="black" r="18" id="nonconn22" stroke-width="0"/>
     <circle fill="black" cx="1558" cy="1465.5" stroke="black" r="18" id="nonconn23" stroke-width="0"/>
     <rect width="1978.5" x="0" y="0" fill="#303030" height="1978.5" stroke="none" stroke-width="0"/>
     <polygon fill="#1f1f1f" points="0,0 1978.5,0 1968.5,10 10,10"/>
     <polygon fill="#1f1f1f" points="0,1978.5 1978.5,1978.5 1968.5,1968.5 10,1968.5"/>
     <polygon fill="#000000" points="0,0 0,1978.5 10,1968.5 10,10"/>
     <polygon fill="#3d3d3d" points="1978.5,0 1978.5,1978.5 1968.5,1968.5 1968.5,10"/>
     <circle fill="#1f1f1f" cx="30" cy="1948.5" stroke="none" r="10" stroke-width="0"/>
    </g>
   </g>
   <text x="50" y="724.375" font-family="OCRA" fill="white" text-anchor="start" stroke="none" id="label" stroke-width="0" font-size="65">BUTTONPAD-2X2-SPECIAL</text>
  </g>
 </g>
</svg>
