<?xml version='1.0' encoding='UTF-8' standalone='no'?>
<!-- Created with Fritzing (http://www.fritzing.org/) -->
<svg width="0.1in" x="0in" version="1.2" y="0in" xmlns="http://www.w3.org/2000/svg" height="0.6in" viewBox="0 0 100 600" baseProfile="tiny" xmlns:svg="http://www.w3.org/2000/svg">
 <desc>Fritzing breadboard generated by brd2svg</desc>
 <g id="breadboard">
  <g id="icon">
   <path fill="#1F7A34" stroke="none" stroke-width="0" d="M0,0L0,270A30,30 0 0 1 0,330L0,600L100,600L100,0L0,0z"/>
   <g transform="translate(-168.504,179.921)">
    <g transform="matrix(0.5, 0, 0, 0.5, 109.252, 60.0394)">
     <rect width="66.9292" x="82.0866" y="0" fill="#F7BD13" connectorname="V-" height="118.11" stroke="none" stroke-linecap="round" stroke-width="0"/>
     <rect width="66.9292" x="182.087" y="0" fill="#F7BD13" connectorname="SIG" height="118.11" stroke="none" stroke-linecap="round" stroke-width="0"/>
     <rect width="66.9292" x="282.087" y="0" fill="#F7BD13" connectorname="V+" height="118.11" stroke="none" stroke-linecap="round" stroke-width="0"/>
     <circle fill="black" cx="404.134" cy="200.393" stroke="black" r="26.9685" id="nonconn0" stroke-width="0"/>
     <circle fill="black" cx="26.9685" cy="200.393" stroke="black" r="26.9685" id="nonconn1" stroke-width="0"/>
     <rect width="237.205" x="99.9016" y="1.9685" fill="#303030" height="236.22" stroke="none" stroke-width="0"/>
     <polygon fill="#1f1f1f" points="99.9016,1.9685 337.106,1.9685 327.106,11.9685 109.902,11.9685"/>
     <polygon fill="#1f1f1f" points="99.9016,238.189 337.106,238.189 327.106,228.189 109.902,228.189"/>
     <polygon fill="#000000" points="99.9016,1.9685 99.9016,238.189 109.902,228.189 109.902,11.9685"/>
     <polygon fill="#3d3d3d" points="337.106,1.9685 337.106,238.189 327.106,228.189 327.106,11.9685"/>
     <circle fill="#1f1f1f" cx="129.902" cy="208.189" stroke="none" r="10" stroke-width="0"/>
    </g>
   </g>
   <text x="50" y="324.375" font-family="OCRA" fill="white" text-anchor="start" stroke="none" id="label" stroke-width="0" font-size="65">LITTLE_BITS_FEMALE</text>
   <g transform="translate(63.5,526.05)">
    <g transform="rotate(-90)">
     <text x="0" y="0" font-family="OCRA" fill="white" text-anchor="start" stroke="none" stroke-width="0" font-size="45">0</text>
    </g>
   </g>
   <g transform="translate(63.5,73.95)">
    <g transform="rotate(-90)">
     <text x="0" y="0" font-family="OCRA" fill="white" text-anchor="end" stroke="none" stroke-width="0" font-size="45">2</text>
    </g>
   </g>
  </g>
  <g transform="translate(34.035,534.05)">
   <rect width="31.93" x="0" y="0" fill="#8D8C8C" height="31.9" id="connector0pad" stroke-width="0"/>
   <rect width="16.4442" x="7.79153" y="7.73544" fill="#8C8663" height="16.4152" stroke-width="0"/>
   <polygon fill="#B8AF82" points="0,31.9,7.79153,24.1368,7.79153,6.97162,0,0" stroke-width="0"/>
   <polygon fill="#80795B" points="24.2079,7.76321,7.90264,7.76321,0,0,31.93,0" stroke-width="0"/>
   <polygon fill="#5E5B43" points="24.2079,24.1368,24.2079,7.76321,31.93,0,31.93,31.9" stroke-width="0"/>
   <polygon fill="#9A916C" points="0,31.9,7.87486,24.1368,24.2079,24.1368,31.93,31.9" stroke-width="0"/>
  </g>
  <g transform="translate(34.035,34.05)">
   <rect width="31.93" x="0" y="0" fill="#8D8C8C" height="31.9" id="connector2pad" stroke-width="0"/>
   <rect width="16.4442" x="7.79153" y="7.73544" fill="#8C8663" height="16.4152" stroke-width="0"/>
   <polygon fill="#B8AF82" points="0,31.9,7.79153,24.1368,7.79153,6.97162,0,0" stroke-width="0"/>
   <polygon fill="#80795B" points="24.2079,7.76321,7.90264,7.76321,0,0,31.93,0" stroke-width="0"/>
   <polygon fill="#5E5B43" points="24.2079,24.1368,24.2079,7.76321,31.93,0,31.93,31.9" stroke-width="0"/>
   <polygon fill="#9A916C" points="0,31.9,7.87486,24.1368,24.2079,24.1368,31.93,31.9" stroke-width="0"/>
  </g>
 </g>
</svg>
