<?xml version='1.0' encoding='UTF-8' standalone='no'?>
<!-- Created with Fritzing (http://www.fritzing.org/) -->
<svg width="0in" x="0in" version="1.2" y="0in" xmlns="http://www.w3.org/2000/svg" height="0.4in" viewBox="0 0 0 400" baseProfile="tiny" xmlns:svg="http://www.w3.org/2000/svg">
 <desc>Fritzing breadboard generated by brd2svg</desc>
 <g id="breadboard">
  <g id="icon">
   <path fill="#1F7A34" stroke="none" stroke-width="0" d="M0,0L0,170A30,30 0 0 1 0,230L0,400L0,400L0,0L0,0z"/>
   <g transform="translate(-238.252,-92)">
    <g transform="matrix(-0.419724, 0, 0, -0.419724, 338.252, 414.559)">
     <rect width="476.504" x="0" y="-43.4662" fill="#303030" height="480.441" stroke="none" stroke-width="0"/>
     <polygon fill="#1f1f1f" points="0,-43.4662 476.504,-43.4662 466.504,-33.4662 10,-33.4662"/>
     <polygon fill="#1f1f1f" points="0,436.975 476.504,436.975 466.504,426.975 10,426.975"/>
     <polygon fill="#000000" points="0,-43.4662 0,436.975 10,426.975 10,-33.4662"/>
     <polygon fill="#3d3d3d" points="476.504,-43.4662 476.504,436.975 466.504,426.975 466.504,-33.4662"/>
     <circle fill="#1f1f1f" cx="30" cy="406.975" stroke="none" r="10" stroke-width="0"/>
    </g>
   </g>
   <text x="50" y="224.375" font-family="OCRA" fill="white" text-anchor="start" stroke="none" id="label" stroke-width="0" font-size="65">USB-B-PTH</text>
  </g>
 </g>
</svg>
