<?xml version='1.0' encoding='UTF-8' standalone='no'?>
<!-- Created with Fritzing (http://www.fritzing.org/) -->
<svg width="0.680444in" x="0in" version="1.2" y="0in" xmlns="http://www.w3.org/2000/svg" height="0.8in" viewBox="0 0 680.444 800" baseProfile="tiny" xmlns:svg="http://www.w3.org/2000/svg">
 <desc>Fritzing breadboard generated by brd2svg</desc>
 <g id="breadboard">
  <g id="icon">
   <path fill="#1F7A34" stroke="none" stroke-width="0" d="M0,0L0,370A30,30 0 0 1 0,430L0,800L680.444,800L680.444,0L0,0z"/>
   <g transform="translate(100,104.736)">
    <path fill="#1A1A1A" stroke-width="0" d="M424.889,98.375L55.5556,98.375c-30.5556,0,-55.5556,25,-55.5556,55.5556l0,372.694c0,30.5556,25,55.5556,55.5556,55.5556l55.6111,0l0,-8.44444l258.097,0l0,8.44444l55.625,0c30.5556,0,55.5556,-25,55.5556,-55.5556L480.444,153.931C480.444,123.375,455.444,98.375,424.889,98.375z"/>
    <path fill="#333333" stroke-width="0" d="M424.889,0l-55.625,0l0,8.44444L111.167,8.44444L111.167,0L55.5556,0C25,0,0,25,0,55.5556l0,372.694c0,30.5556,25,55.5556,55.5556,55.5556l55.6111,0l0,-8.44444l258.097,0l0,8.44444l55.625,0c30.5556,0,55.5556,-25,55.5556,-55.5556L480.444,55.5556C480.444,25,455.444,0,424.889,0z"/>
    <path fill="#333333" stroke-width="0" d="M0,428.25c0,30.5556,25,55.5556,55.5556,55.5556l55.6111,0"/>
    <path opacity="0.2" fill="#FFFFFF" stroke-width="0" d="M480.444,58.6528c0,-30.5556,-25,-55.5556,-55.5556,-55.5556l-55.625,0L369.264,0l55.625,0c30.5556,0,55.5556,25,55.5556,55.5556L480.444,58.6528z"/>
    <path opacity="0.2" fill="#FFFFFF" stroke-width="0" d="M0,58.6528c0,-30.5556,25,-55.5556,55.5556,-55.5556l55.6111,0L111.167,0L55.5556,0C25,0,0,25,0,55.5556L0,58.6528z"/>
    <rect width="258.097" x="111.167" opacity="0.2" y="8.44444" fill="#FFFFFF" height="3.09722" stroke-width="0"/>
    <path opacity="0.5" stroke-width="0" d="M0,428.25c0,30.5417,25,55.5556,55.5556,55.5556l55.625,0l0,3.09722L55.5556,486.903c-30.5556,0,-55.5556,-25,-55.5556,-55.5556L0,428.25z"/>
    <path opacity="0.5" stroke-width="0" d="M480.444,428.25c0,30.5417,-25,55.5556,-55.5556,55.5556l-55.625,0l0,3.09722l55.625,0c30.5556,0,55.5556,-25,55.5556,-55.5556L480.444,428.25z"/>
    <rect width="258.083" x="111.181" opacity="0.5" y="475.347" height="3.11111" stroke-width="0"/>
    <path opacity="0.5" stroke-width="0" d="M0,523.486c0,30.5417,25,55.5556,55.5556,55.5556l55.625,0l0,3.09722L55.5556,582.139c-30.5556,0,-55.5556,-25,-55.5556,-55.5556L0,523.486z"/>
    <path opacity="0.5" stroke-width="0" d="M480.444,523.486c0,30.5417,-25,55.5556,-55.5556,55.5556l-55.625,0l0,3.09722l55.625,0c30.5556,0,55.5556,-25,55.5556,-55.5556L480.444,523.486z"/>
    <rect width="258.083" x="111.181" opacity="0.5" y="570.583" height="3.11111" stroke-width="0"/>
    <g stroke-width="0">
     <rect width="8.44444" x="0" y="112.861" fill="#1A1A1A" height="258.097" stroke-width="0"/>
     <rect width="8.44444" x="471.986" y="112.861" fill="#1A1A1A" height="258.097" stroke-width="0"/>
    </g>
    <circle fill="#1A1A1A" cx="240.222" cy="241.903" r="220.653" stroke-width="0"/>
    <circle cx="240.222" cy="241.903" r="211.028" stroke-width="0"/>
    <circle fill="#1A1A1A" cx="240.222" cy="241.903" r="201.542" stroke-width="0"/>
    <path fill="#1A1A1A" stroke-width="0" d="M57.7361,136.25C76.1944,104.444,102.681,77.9583,134.472,59.4861c-7.77778,-25.1667,-30.9444,-43.5833,-58.6528,-43.5833c-34.0694,0,-61.6806,27.6111,-61.6806,61.6667C14.1389,105.306,32.5556,128.486,57.7361,136.25z"/>
    <path fill="#1A1A1A" stroke-width="0" d="M422.708,136.25c25.1806,-7.76389,43.6111,-30.9444,43.6111,-58.6806c0,-34.0556,-27.6111,-61.6667,-61.6806,-61.6667c-27.7083,0,-50.8889,18.4167,-58.6667,43.5694C377.764,77.9444,404.236,104.444,422.708,136.25z"/>
    <g stroke-width="0">
     <path opacity="0.2" fill="#FFFFFF" stroke-width="0" d="M240.222,21.2639c-39.8333,0,-77.0833,10.7083,-109.347,29.1667c0.319444,0.652778,0.527778,1.38889,0.819444,2.05556c32.0694,-18.1667,69.0417,-28.6667,108.528,-28.6667s76.4583,10.5,108.514,28.6667c0.291667,-0.680556,0.486111,-1.40278,0.819444,-2.06944C317.306,31.9583,280.042,21.2639,240.222,21.2639z"/>
     <path opacity="0.2" fill="#FFFFFF" stroke-width="0" d="M75.8194,15.9028c-34.0694,0,-61.6806,27.6111,-61.6806,61.6667l0,2.38889c0,-34.0556,27.6111,-61.6667,61.6806,-61.6667c23.5278,0,43.6944,13.3472,54.0278,32.7639c0.347222,-0.208333,0.680556,-0.430556,1.02778,-0.625C120.861,30.0278,100.083,15.9028,75.8194,15.9028z"/>
     <path opacity="0.2" fill="#FFFFFF" stroke-width="0" d="M129.847,51.0556c0.333333,0.638889,0.763889,1.23611,1.08333,1.90278C131.194,52.8056,131.431,52.6389,131.694,52.4861C131.389,51.8194,131.194,51.0833,130.875,50.4306C130.514,50.625,130.194,50.8611,129.847,51.0556z"/>
     <path opacity="0.2" fill="#FFFFFF" stroke-width="0" d="M404.625,18.1528c34.0694,0,61.6806,27.6111,61.6806,61.6667L466.306,77.5694c0,-34.0556,-27.6111,-61.6667,-61.6806,-61.6667c-24.2639,0,-45.0417,14.125,-55.0694,34.5139c0.333333,0.194444,0.652778,0.402778,0.972222,0.583333C360.847,31.5417,381.056,18.1528,404.625,18.1528z"/>
     <path opacity="0.2" fill="#FFFFFF" stroke-width="0" d="M348.736,52.4861c0.25,0.138889,0.472222,0.291667,0.722222,0.430556c0.305556,-0.652778,0.736111,-1.26389,1.06944,-1.91667c-0.319444,-0.194444,-0.638889,-0.402778,-0.972222,-0.583333C349.236,51.0833,349.042,51.8056,348.736,52.4861z"/>
    </g>
    <path fill="#1A1A1A" stroke-width="0" d="M57.7361,347.583c-25.1806,7.76389,-43.6111,30.9444,-43.6111,58.6806c0,34.0417,27.6111,61.6528,61.6806,61.6528c27.7083,0,50.8889,-18.4167,58.6528,-43.5833C102.681,405.861,76.1944,379.389,57.7361,347.583z"/>
    <path fill="#1A1A1A" stroke-width="0" d="M422.708,347.583c-18.4583,31.8056,-44.9306,58.2778,-76.7361,76.75c7.77778,25.1667,30.9444,43.5833,58.6667,43.5833c34.0694,0,61.6806,-27.6111,61.6806,-61.6528C466.306,378.514,447.889,355.333,422.708,347.583z"/>
    <g stroke-width="0">
     <path stroke-width="0" d="M419.444,130.875c23.4444,-6.51389,40.75,-27.7917,40.75,-53.3056c0,-30.6667,-24.875,-55.5417,-55.5694,-55.5417c-25.5139,0,-46.7639,17.2917,-53.2917,40.7222C378.972,79.9167,402.278,103.236,419.444,130.875z"/>
     <path stroke-width="0" d="M61,130.875c17.1667,-27.6389,40.4722,-50.9583,68.0972,-68.1389c-6.51389,-23.4306,-27.7778,-40.7222,-53.2778,-40.7222c-30.6944,0,-55.5694,24.875,-55.5694,55.5556C20.25,103.097,37.5556,124.361,61,130.875z"/>
     <path stroke-width="0" d="M419.444,352.944c-17.1667,27.6389,-40.4861,50.9722,-68.1111,68.1389c6.51389,23.4306,27.7778,40.7222,53.2917,40.7222c30.6944,0,55.5694,-24.875,55.5694,-55.5417C460.194,380.736,442.889,359.458,419.444,352.944z"/>
     <path stroke-width="0" d="M61,352.944c-23.4444,6.52778,-40.75,27.7917,-40.75,53.3194c0,30.6667,24.875,55.5417,55.5694,55.5417c25.5,0,46.7778,-17.2917,53.2917,-40.7222C101.472,403.917,78.1667,380.583,61,352.944z"/>
    </g>
    <text x="0" y="0" stroke-width="0" transform="matrix(1, 0, 0, 1, 119.86, 226.814)" font-size="0">
     <tspan x="0" y="0" fill="#4D4D4D" font-family="'ArialMT'" font-size="6">CDRH</tspan>
     <tspan x="3.661" y="6" fill="#4D4D4D" font-family="'ArialMT'" font-size="6">125</tspan>
    </text>
    <g stroke-width="0">
     <rect width="80.2917" x="134.486" y="573.736" fill="#808080" height="16.7917" stroke-width="0"/>
     <rect width="80.2917" x="265.667" y="573.736" fill="#808080" height="16.7917" stroke-width="0"/>
    </g>
    <g stroke-width="0">
     <rect width="80.2917" x="134.486" y="554.639" fill="#999999" height="31.25" stroke-width="0"/>
     <rect width="80.2917" x="265.667" y="554.639" fill="#999999" height="31.25" stroke-width="0"/>
    </g>
    <g stroke-width="0">
     <rect width="80.2917" x="134.486" y="552.792" fill="#808080" height="1.84722" stroke-width="0"/>
     <rect width="80.2917" x="265.667" y="552.792" fill="#808080" height="1.84722" stroke-width="0"/>
    </g>
    <g opacity="0.76" stroke-width="0">
     <path opacity="0.2" fill="#FFFFFF" stroke-width="0" d="M240.222,462.556c39.8333,0,77.0972,-10.7083,109.347,-29.1667c-0.319444,-0.666667,-0.513889,-1.40278,-0.819444,-2.05556c-32.0833,18.1667,-69.0556,28.6528,-108.528,28.6528s-76.4583,-10.5,-108.514,-28.6528c-0.291667,0.680556,-0.486111,1.40278,-0.819444,2.05556C163.139,451.861,200.403,462.556,240.222,462.556z"/>
     <path opacity="0.2" fill="#FFFFFF" stroke-width="0" d="M404.625,467.917c34.0694,0,61.6806,-27.6111,61.6806,-61.6667l0,-2.38889c0,34.0417,-27.6111,61.6528,-61.6806,61.6528c-23.5278,0,-43.6944,-13.3472,-54.0278,-32.75c-0.333333,0.208333,-0.680556,0.430556,-1.02778,0.638889C359.583,453.792,380.361,467.917,404.625,467.917z"/>
     <path opacity="0.2" fill="#FFFFFF" stroke-width="0" d="M350.597,432.764c-0.333333,-0.638889,-0.763889,-1.23611,-1.08333,-1.90278c-0.263889,0.152778,-0.5,0.305556,-0.763889,0.472222c0.291667,0.666667,0.486111,1.40278,0.819444,2.05556C349.917,433.194,350.264,432.958,350.597,432.764z"/>
     <path opacity="0.2" fill="#FFFFFF" stroke-width="0" d="M75.8194,465.681c-34.0694,0,-61.6806,-27.6111,-61.6806,-61.6667l0,2.23611c0,34.0556,27.6111,61.6667,61.6806,61.6667c24.2639,0,45.0417,-14.125,55.0694,-34.5139c-0.333333,-0.194444,-0.652778,-0.402778,-0.972222,-0.597222C119.583,452.278,99.3889,465.681,75.8194,465.681z"/>
     <path opacity="0.2" fill="#FFFFFF" stroke-width="0" d="M131.694,431.333c-0.25,-0.138889,-0.472222,-0.291667,-0.722222,-0.430556c-0.305556,0.652778,-0.736111,1.25,-1.06944,1.90278c0.319444,0.194444,0.638889,0.402778,0.972222,0.597222C131.208,432.736,131.403,432.014,131.694,431.333z"/>
    </g>
    <rect width="2.90278" x="108.278" opacity="0.5" y="486.903" height="92.1389" stroke-width="0"/>
    <rect width="2.90278" x="369.264" opacity="0.5" y="486.903" height="92.1389" stroke-width="0"/>
    <path opacity="0.1" fill="#FFFFFF" stroke-width="0" d="M38.6806,244.472c0,-111.306,90.2361,-201.542,201.542,-201.542c111.319,0,201.542,90.2361,201.542,201.542l0,-2.55556c0,-111.306,-90.2222,-201.542,-201.542,-201.542c-111.306,0,-201.542,90.2361,-201.542,201.542L38.6806,244.472z"/>
    <path opacity="0.5" stroke-width="0" d="M441.764,239.347c0,111.306,-90.2361,201.556,-201.542,201.556c-111.319,0,-201.542,-90.25,-201.542,-201.556l0,2.55556c0,111.319,90.2222,201.542,201.542,201.542c111.306,0,201.542,-90.2222,201.542,-201.542L441.764,239.347z"/>
   </g>
  </g>
  <g transform="translate(324.257,734.05)">
   <rect width="31.93" x="0" y="0" fill="#8D8C8C" height="31.9" id="connector0pin" stroke-width="0"/>
   <rect width="16.4442" x="7.79153" y="7.73544" fill="#8C8663" height="16.4152" stroke-width="0"/>
   <polygon fill="#B8AF82" points="0,31.9,7.79153,24.1368,7.79153,6.97162,0,0" stroke-width="0"/>
   <polygon fill="#80795B" points="24.2079,7.76321,7.90264,7.76321,0,0,31.93,0" stroke-width="0"/>
   <polygon fill="#5E5B43" points="24.2079,24.1368,24.2079,7.76321,31.93,0,31.93,31.9" stroke-width="0"/>
   <polygon fill="#9A916C" points="0,31.9,7.87486,24.1368,24.2079,24.1368,31.93,31.9" stroke-width="0"/>
  </g>
  <g transform="translate(324.257,34.05)">
   <rect width="31.93" x="0" y="0" fill="#8D8C8C" height="31.9" id="connector1pin" stroke-width="0"/>
   <rect width="16.4442" x="7.79153" y="7.73544" fill="#8C8663" height="16.4152" stroke-width="0"/>
   <polygon fill="#B8AF82" points="0,31.9,7.79153,24.1368,7.79153,6.97162,0,0" stroke-width="0"/>
   <polygon fill="#80795B" points="24.2079,7.76321,7.90264,7.76321,0,0,31.93,0" stroke-width="0"/>
   <polygon fill="#5E5B43" points="24.2079,24.1368,24.2079,7.76321,31.93,0,31.93,31.9" stroke-width="0"/>
   <polygon fill="#9A916C" points="0,31.9,7.87486,24.1368,24.2079,24.1368,31.93,31.9" stroke-width="0"/>
  </g>
 </g>
</svg>
