<?xml version='1.0' encoding='UTF-8' standalone='no'?>
<!-- Created with Fritzing (http://www.fritzing.org/) -->
<svg width="0in" x="0in" version="1.2" y="0in" xmlns="http://www.w3.org/2000/svg" height="0.8in" viewBox="0 0 0 800" baseProfile="tiny" xmlns:svg="http://www.w3.org/2000/svg">
 <desc>Fritzing breadboard generated by brd2svg</desc>
 <g id="breadboard">
  <g id="icon">
   <path fill="#1F7A34" stroke="none" stroke-width="0" d="M0,0L0,370A30,30 0 0 1 0,430L0,800L0,800L0,0L0,0z"/>
   <g transform="translate(-230,-74.4705)">
    <g transform="matrix(0.5, 0, 0, 0.5, 115, 237.235)">
     <rect width="25" x="217.5" y="265" fill="#F7BD13" connectorname="GROUND" height="50" stroke="none" stroke-linecap="round" stroke-width="0"/>
     <path fill="#F7BD13" stroke="#F7BD13" stroke-linecap="round" stroke-width="5" d="M201.039,565A421.563,421.563,0,0,1,159.067,562.906M159.067,562.906A597.098,597.098,0,0,1,101.354,554.268M101.354,554.268L98.1378,553.626A201.409,201.409,0,0,1,62.8268,543.13M62.8268,543.13A172.253,172.253,0,0,1,5,505M5,505L5,65A172.248,172.248,0,0,1,62.8268,26.8701M62.8268,26.8701L80,20L109.303,14.1378A431.89,431.89,0,0,1,151.004,7.89764M151.004,7.89764L156.638,7.33465A470.72,470.72,0,0,1,203.48,5M203.48,5L259.567,5A410,410,0,0,1,300.335,7.0315M300.335,7.0315L308.012,7.79921A451.693,451.693,0,0,1,351.669,14.3346M351.669,14.3346L361.862,16.374A201.409,201.409,0,0,1,397.173,26.8701M397.173,26.8701A172.253,172.253,0,0,1,455,65M455,65L455,450L428,450L360,409L358,408L374,330L316,383L251,344L280,418L226,467L299,461L328,534L347,456L428,450L455,450L455,505L447.839,512.161A122.917,122.917,0,0,1,406.575,539.37M406.575,539.37A311.801,311.801,0,0,1,351.933,555.614M351.933,555.614A457.122,457.122,0,0,1,307.744,562.224M307.744,562.224A559.035,559.035,0,0,1,252.118,565M252.118,565z"/>
     <rect width="-1.69093e+11" x="8.45466e+10" y="8.45466e+10" fill="#303030" height="-1.69093e+11" stroke="none" stroke-width="0"/>
     <polygon fill="#1f1f1f" points="8.45466e+10,8.45466e+10 -8.45466e+10,8.45466e+10 -8.45466e+10,8.45466e+10 8.45466e+10,8.45466e+10"/>
     <polygon fill="#1f1f1f" points="8.45466e+10,-8.45466e+10 -8.45466e+10,-8.45466e+10 -8.45466e+10,-8.45466e+10 8.45466e+10,-8.45466e+10"/>
     <polygon fill="#000000" points="8.45466e+10,8.45466e+10 8.45466e+10,-8.45466e+10 8.45466e+10,-8.45466e+10 8.45466e+10,8.45466e+10"/>
     <polygon fill="#3d3d3d" points="-8.45466e+10,8.45466e+10 -8.45466e+10,-8.45466e+10 -8.45466e+10,-8.45466e+10 -8.45466e+10,8.45466e+10"/>
     <circle fill="#1f1f1f" cx="8.45466e+10" cy="-8.45466e+10" stroke="none" r="10" stroke-width="0"/>
    </g>
   </g>
   <text x="50" y="424.375" font-family="OCRA" fill="white" text-anchor="start" stroke="none" id="label" stroke-width="0" font-size="65">STARBOARD_PWR_WIDE</text>
  </g>
 </g>
</svg>
