<?xml version='1.0' encoding='UTF-8' standalone='no'?>
<!-- Created with Fritzing (http://www.fritzing.org/) -->
<svg width="1.4206in" x="0in" version="1.2" y="0in" xmlns="http://www.w3.org/2000/svg" height="0.8in" viewBox="0 0 1420.6 800" baseProfile="tiny" xmlns:svg="http://www.w3.org/2000/svg">
 <desc>Fritzing breadboard generated by brd2svg</desc>
 <g id="breadboard">
  <g id="icon">
   <path fill="#1F7A34" stroke="none" stroke-width="0" d="M0,0L0,370A30,30 0 0 1 0,430L0,800L1420.6,800L1420.6,0L0,0z"/>
   <g transform="translate(100,173.055)">
    <g stroke-width="0">
     <path fill="#333333" stroke-width="0" d="M61.5556,114.833c0,-44.3889,35.9861,-80.3889,80.375,-80.3889c44.375,0,80.3611,36,80.3611,80.3889L222.292,108.222c0,-44.3889,-35.9861,-80.3889,-80.3611,-80.3889c-44.3889,0,-80.375,36,-80.375,80.3889L61.5556,114.833z"/>
     <path fill="#333333" stroke-width="0" d="M998.319,114.833c0,-44.3889,35.9722,-80.3889,80.3611,-80.3889c44.3611,0,80.3611,36,80.3611,80.3889L1159.04,108.222c0,-44.3889,-36,-80.3889,-80.3611,-80.3889c-44.3889,0,-80.3611,36,-80.3611,80.3889L998.319,114.833z"/>
     <path fill="#1A1A1A" stroke-width="0" d="M272.819,16.0278L27.4444,16.0278c-5.47222,0,-9.95833,4.93056,-9.95833,10.9722l0,117.5c0,6.04167,265.306,6.04167,265.306,0l0,-117.5C282.778,20.9722,278.306,16.0278,272.819,16.0278zM222.292,118.125L61.5556,118.125L61.5556,108.222c0,-44.3889,35.9861,-80.3889,80.375,-80.3889c44.375,0,80.3611,36,80.3611,80.3889L222.292,118.125z"/>
     <path fill="#1A1A1A" stroke-width="0" d="M1193.17,16.0278L940.847,16.0278c-5.47222,0,-9.94444,4.93056,-9.94444,10.9722l0,117.5c0,6.04167,272.222,6.04167,272.222,0l0,-117.5C1203.12,20.9722,1198.65,16.0278,1193.17,16.0278zM1159.04,118.125L998.319,118.125L998.319,108.222c0,-44.3889,35.9722,-80.3889,80.375,-80.3889c44.3472,0,80.3472,36,80.3472,80.3889L1159.04,118.125L1159.04,118.125z"/>
     <path fill="#B3B3B3" stroke-width="0" d="M215.792,105.583L215.792,66.2222c0,-5.47222,-4.48611,-9.94444,-9.94444,-9.94444l-31.7222,0c-5.48611,0,-9.95833,4.47222,-9.95833,9.94444l0,39.3611L120.153,105.583L120.153,66.2222c0,-5.47222,-4.47222,-9.94444,-9.94444,-9.94444L78.4861,56.2778c-5.48611,0,-9.97222,4.47222,-9.97222,9.94444l0,39.3611L34.9722,105.583l0,19.6806l214.375,0L249.347,105.583L215.792,105.583z"/>
     <path fill="#B3B3B3" stroke-width="0" d="M1152.56,105.583L1152.56,66.2222c0,-5.47222,-4.47222,-9.94444,-9.95833,-9.94444l-31.7083,0c-5.5,0,-9.95833,4.47222,-9.95833,9.94444l0,39.3611l-44.0278,0L1056.9,66.2222c0,-5.47222,-4.47222,-9.94444,-9.94444,-9.94444l-31.7222,0c-5.48611,0,-9.95833,4.47222,-9.95833,9.94444l0,39.3611l-33.5556,0l0,19.6806L1186.11,125.264L1186.11,105.583L1152.56,105.583z"/>
     <rect width="348.278" x="0" y="112.722" fill="#B3B3B3" height="283.569" stroke-width="0"/>
     <rect width="348.278" x="872.319" y="112.722" fill="#B3B3B3" height="283.569" stroke-width="0"/>
     <g stroke-width="0">
      <rect width="17.4722" x="1203.12" opacity="0.47" y="109.111" fill="#808080" height="287.194" enable-background="new    " stroke-width="0"/>
      <rect width="347.458" x="855.681" opacity="0.47" y="378.819" fill="#808080" height="17.4861" enable-background="new    " stroke-width="0"/>
     </g>
     <g stroke-width="0">
      <polygon opacity="0.47" fill="#E6E6E6" points="0,109.111,17.4722,109.111,17.4722,378.819,0,396.292" enable-background="new    " stroke-width="0"/>
      <polygon opacity="0.47" fill="#808080" points="0,396.292,17.4722,378.819,364.931,378.819,364.931,396.292" enable-background="new    " stroke-width="0"/>
     </g>
     <path fill="#4D4D4D" stroke-width="0" d="M954.236,10.9861c0,-5.5,-4.47222,-9.98611,-9.95833,-9.98611L276.306,1c-5.47222,0,-9.94444,4.48611,-9.94444,9.98611l0,63.6528l687.875,0L954.236,10.9861z"/>
     <path fill="#808080" stroke-width="0" d="M954.236,15.9722c0,-5.48611,-4.47222,-9.97222,-9.95833,-9.97222L276.306,6c-5.47222,0,-9.94444,4.48611,-9.94444,9.97222L266.361,10.9861c0,-5.5,4.47222,-9.98611,9.94444,-9.98611L944.306,1c5.47222,0,9.94444,4.48611,9.94444,9.98611L954.236,15.9722L954.236,15.9722z"/>
     <g stroke-width="0">
      <path fill="#4D4D4D" stroke-width="0" d="M1220.6,112.431c0,5.5,-4.5,10,-10,10L10,122.431C4.5,122.431,0,117.931,0,112.431L0,84.6389c0,-5.5,4.5,-10,10,-10l1200.6,0c5.5,0,10,4.48611,10,10L1220.6,112.431z"/>
     </g>
     <rect width="1220.6" x="0" y="64.5556" fill="#4D4D4D" height="26.2083" stroke-width="0"/>
     <rect width="1220.6" x="0" y="72.3472" fill="#999999" height="4.58333" stroke-width="0"/>
     <rect width="1220.6" x="0" y="75.2361" fill="#808080" height="4.58333" stroke-width="0"/>
     <rect width="8.625" x="1211.97" opacity="0.1" y="79.8194" fill="#1A1A1A" height="32.625" enable-background="new    " stroke-width="0"/>
     <g stroke-width="0">
      <path fill="#CCCCCC" stroke-width="0" d="M98.625,355.319c-2.73611,0,-6.09722,-1.97222,-7.45833,-4.33333l-43.3056,-74.9861c-1.375,-2.375,-1.375,-6.25,0,-8.625l43.3056,-74.9861c1.36111,-2.375,4.72222,-4.30556,7.45833,-4.30556l86.5972,0c2.73611,0,6.08333,1.93056,7.45833,4.30556l43.3056,74.9861c1.36111,2.375,1.36111,6.25,0,8.625l-43.3056,74.9861c-1.375,2.36111,-4.72222,4.33333,-7.45833,4.33333L98.625,355.319z"/>
      <rect width="189.694" x="47.3056" y="269.708" fill="#CCCCCC" height="62" stroke-width="0"/>
      <polygon opacity="0.65" fill="#999999" points="237.014,269.708,229.847,256.722,229.847,331.708,237.014,331.708" enable-background="new    " stroke-width="0"/>
      <polygon fill="#F2F2F2" points="54,256.722,46.8333,269.708,46.8333,331.708,54,331.708" stroke-width="0"/>
      <g stroke-width="0">
       <g stroke-width="0">
        <defs>
         <polygon points="93.6528,355.319,45.3611,271.708,93.6528,188.083,190.194,188.083,238.486,271.708,190.194,355.319" id="SVGID_1_" stroke-width="0"/>
        </defs>
        <clipPath id="SVGID_2_">
         <use overflow="visible" xmlns:xlink="http://www.w3.org/1999/xlink" xlink:href="#SVGID_1_"/>
        </clipPath>
        <rect width="17.2778" x="178.819" y="188.083" fill="#E6E6E6" height="83.625" stroke-width="0" clip-path="url(#SVGID_2_)"/>
       </g>
       <g stroke-width="0">
        <defs>
         <polygon points="93.6528,355.319,45.3611,271.708,93.6528,188.083,190.194,188.083,238.486,271.708,190.194,355.319" id="SVGID_3_" stroke-width="0"/>
        </defs>
        <clipPath id="SVGID_4_">
         <use overflow="visible" xmlns:xlink="http://www.w3.org/1999/xlink" xlink:href="#SVGID_3_"/>
        </clipPath>
        <rect width="17.2778" x="84.3333" y="188.083" fill="#E6E6E6" height="83.625" stroke-width="0" clip-path="url(#SVGID_4_)"/>
       </g>
       <g stroke-width="0">
        <defs>
         <polygon points="93.6528,355.319,45.3611,271.708,93.6528,188.083,190.194,188.083,238.486,271.708,190.194,355.319" id="SVGID_5_" stroke-width="0"/>
        </defs>
        <clipPath id="SVGID_6_">
         <use overflow="visible" xmlns:xlink="http://www.w3.org/1999/xlink" xlink:href="#SVGID_5_"/>
        </clipPath>
        <rect width="9.18056" x="182.861" y="188.083" fill="#F2F2F2" height="83.625" stroke-width="0" clip-path="url(#SVGID_6_)"/>
       </g>
       <g stroke-width="0">
        <defs>
         <polygon points="93.6528,355.319,45.3611,271.708,93.6528,188.083,190.194,188.083,238.486,271.708,190.194,355.319" id="SVGID_7_" stroke-width="0"/>
        </defs>
        <clipPath id="SVGID_8_">
         <use overflow="visible" xmlns:xlink="http://www.w3.org/1999/xlink" xlink:href="#SVGID_7_"/>
        </clipPath>
        <rect width="9.18056" x="88.3889" y="188.083" fill="#F2F2F2" height="83.625" stroke-width="0" clip-path="url(#SVGID_8_)"/>
       </g>
      </g>
      <g stroke-width="0">
       <path fill="#CCCCCC" stroke-width="0" d="M98.6528,415.319c-2.75,0,-6.125,-1.95833,-7.5,-4.33333l-43.2778,-74.9583c-1.375,-2.375,-1.375,-6.26389,0,-8.65278l43.2778,-74.9444c1.375,-2.375,4.75,-4.34722,7.5,-4.34722l86.5417,0c2.75,0,6.125,1.97222,7.5,4.34722l43.2778,74.9444c1.375,2.38889,1.375,6.27778,0,8.65278l-43.2778,74.9583c-1.375,2.375,-4.75,4.33333,-7.5,4.33333L98.6528,415.319z"/>
      </g>
      <g stroke-width="0">
       <path fill="#B3B3B3" stroke-width="0" d="M100.792,411.597c-2.75,0,-6.125,-1.95833,-7.5,-4.34722l-41.125,-71.2361c-1.375,-2.375,-1.375,-6.26389,0,-8.65278l41.125,-71.25c1.375,-2.375,4.75,-4.33333,7.5,-4.33333l82.2639,0c2.75,0,6.125,1.95833,7.5,4.33333l41.125,71.25c1.375,2.38889,1.375,6.27778,0,8.65278l-41.125,71.2361c-1.375,2.38889,-4.75,4.34722,-7.5,4.34722L100.792,411.597z"/>
      </g>
      <circle fill="#808080" cx="141.917" cy="331.708" r="67.3056" stroke-width="0"/>
     </g>
     <g stroke-width="0">
      <path fill="#CCCCCC" stroke-width="0" d="M1035.64,355.319c-2.72222,0,-6.08333,-1.97222,-7.45833,-4.33333l-43.3056,-74.9861c-1.375,-2.375,-1.375,-6.25,0,-8.625l43.3056,-74.9861c1.375,-2.375,4.73611,-4.30556,7.45833,-4.30556l86.5833,0c2.73611,0,6.09722,1.93056,7.45833,4.30556l43.3194,74.9861c1.36111,2.375,1.36111,6.25,0,8.625l-43.3194,74.9861c-1.36111,2.36111,-4.72222,4.33333,-7.45833,4.33333L1035.64,355.319z"/>
      <rect width="189.694" x="984.319" y="269.708" fill="#CCCCCC" height="62" stroke-width="0"/>
      <polygon opacity="0.65" fill="#999999" points="1174.01,269.708,1166.86,256.722,1166.86,331.708,1174.01,331.708" enable-background="new    " stroke-width="0"/>
      <polygon fill="#F2F2F2" points="991.028,256.722,983.847,269.708,983.847,331.708,991.028,331.708" stroke-width="0"/>
      <g stroke-width="0">
       <g stroke-width="0">
        <defs>
         <polygon points="1030.67,355.319,982.389,271.708,1030.67,188.083,1127.21,188.083,1175.51,271.708,1127.21,355.319" id="SVGID_9_" stroke-width="0"/>
        </defs>
        <clipPath id="SVGID_10_">
         <use overflow="visible" xmlns:xlink="http://www.w3.org/1999/xlink" xlink:href="#SVGID_9_"/>
        </clipPath>
        <rect width="17.2778" x="1115.83" y="188.083" fill="#E6E6E6" height="83.625" stroke-width="0" clip-path="url(#SVGID_10_)"/>
       </g>
       <g stroke-width="0">
        <defs>
         <polygon points="1030.67,355.319,982.389,271.708,1030.67,188.083,1127.21,188.083,1175.51,271.708,1127.21,355.319" id="SVGID_11_" stroke-width="0"/>
        </defs>
        <clipPath id="SVGID_12_">
         <use overflow="visible" xmlns:xlink="http://www.w3.org/1999/xlink" xlink:href="#SVGID_11_"/>
        </clipPath>
        <rect width="17.2778" x="1021.35" y="188.083" fill="#E6E6E6" height="83.625" stroke-width="0" clip-path="url(#SVGID_12_)"/>
       </g>
       <g stroke-width="0">
        <defs>
         <polygon points="1030.67,355.319,982.389,271.708,1030.67,188.083,1127.21,188.083,1175.51,271.708,1127.21,355.319" id="SVGID_13_" stroke-width="0"/>
        </defs>
        <clipPath id="SVGID_14_">
         <use overflow="visible" xmlns:xlink="http://www.w3.org/1999/xlink" xlink:href="#SVGID_13_"/>
        </clipPath>
        <rect width="9.18056" x="1119.88" y="188.083" fill="#F2F2F2" height="83.625" stroke-width="0" clip-path="url(#SVGID_14_)"/>
       </g>
       <g stroke-width="0">
        <defs>
         <polygon points="1030.67,355.319,982.389,271.708,1030.67,188.083,1127.21,188.083,1175.51,271.708,1127.21,355.319" id="SVGID_15_" stroke-width="0"/>
        </defs>
        <clipPath id="SVGID_16_">
         <use overflow="visible" xmlns:xlink="http://www.w3.org/1999/xlink" xlink:href="#SVGID_15_"/>
        </clipPath>
        <rect width="9.18056" x="1025.4" y="188.083" fill="#F2F2F2" height="83.625" stroke-width="0" clip-path="url(#SVGID_16_)"/>
       </g>
      </g>
      <g stroke-width="0">
       <path fill="#CCCCCC" stroke-width="0" d="M1035.67,415.319c-2.73611,0,-6.11111,-1.95833,-7.51389,-4.33333l-43.25,-74.9583c-1.40278,-2.375,-1.40278,-6.26389,0,-8.65278l43.25,-74.9444c1.40278,-2.375,4.77778,-4.34722,7.51389,-4.34722l86.5278,0c2.75,0,6.125,1.97222,7.51389,4.34722l43.2639,74.9444c1.38889,2.38889,1.38889,6.27778,0,8.65278l-43.2639,74.9583c-1.38889,2.375,-4.76389,4.33333,-7.51389,4.33333L1035.67,415.319z"/>
      </g>
      <g stroke-width="0">
       <path fill="#B3B3B3" stroke-width="0" d="M1037.82,411.597c-2.73611,0,-6.11111,-1.95833,-7.51389,-4.34722l-41.125,-71.2361c-1.38889,-2.375,-1.38889,-6.26389,0,-8.65278l41.125,-71.25c1.40278,-2.375,4.77778,-4.33333,7.51389,-4.33333l82.25,0c2.75,0,6.125,1.95833,7.51389,4.33333l41.125,71.25c1.38889,2.38889,1.38889,6.27778,0,8.65278l-41.125,71.2361c-1.38889,2.38889,-4.76389,4.34722,-7.51389,4.34722L1037.82,411.597z"/>
      </g>
      <circle fill="#4D4D4D" cx="1078.94" cy="331.708" r="67.3056" stroke-width="0"/>
      <circle fill="#4D4D4D" cx="141.917" cy="331.708" r="67.3056" stroke-width="0"/>
      <path fill="#808080" stroke-width="0" d="M141.917,341.708c-26.8889,0,-49.9028,-15.875,-60.6806,-38.6389c-4.125,8.70833,-6.625,18.3472,-6.625,28.6528c0,37.1806,30.125,67.3056,67.3056,67.3056c37.1806,0,67.3056,-30.125,67.3056,-67.3056c0,-10.2917,-2.48611,-19.9444,-6.625,-28.6528C191.819,325.833,168.792,341.708,141.917,341.708z"/>
      <path fill="#808080" stroke-width="0" d="M1078.94,341.708c-26.8889,0,-49.9167,-15.875,-60.6944,-38.6389c-4.125,8.70833,-6.625,18.3472,-6.625,28.6528c0,37.1806,30.1389,67.3056,67.3194,67.3056c37.1667,0,67.3056,-30.125,67.3056,-67.3056c0,-10.2917,-2.5,-19.9444,-6.625,-28.6528C1128.83,325.833,1105.82,341.708,1078.94,341.708z"/>
     </g>
     <path fill="#4D4D4D" stroke-width="0" d="M954.236,54.6111"/>
     <rect width="248.889" x="954.236" opacity="0.63" y="64.5972" fill="#E6E6E6" height="2.77778" enable-background="new    " stroke-width="0"/>
     <rect width="248.889" x="17.7222" opacity="0.63" y="64.5972" fill="#E6E6E6" height="2.77778" enable-background="new    " stroke-width="0"/>
     <g stroke-width="0">
      <g stroke-width="0">
       <defs>
        <path id="SVGID_17_" stroke-width="0" d="M1220.6,112.431c0,5.5,-4.5,10,-10,10L10,122.431C4.5,122.431,0,117.931,0,112.431L0,84.6389c0,-5.5,4.5,-10,10,-10l1200.6,0c5.5,0,10,4.48611,10,10L1220.6,112.431z"/>
       </defs>
       <clipPath id="SVGID_18_">
        <use overflow="visible" xmlns:xlink="http://www.w3.org/1999/xlink" xlink:href="#SVGID_17_"/>
       </clipPath>
       <rect width="497.972" opacity="0.47" x="0" y="112.431" fill="#999999" height="10" enable-background="new    " stroke-width="0" clip-path="url(#SVGID_18_)"/>
      </g>
      <g stroke-width="0">
       <defs>
        <path id="SVGID_19_" stroke-width="0" d="M1220.6,112.431c0,5.5,-4.5,10,-10,10L10,122.431C4.5,122.431,0,117.931,0,112.431L0,84.6389c0,-5.5,4.5,-10,10,-10l1200.6,0c5.5,0,10,4.48611,10,10L1220.6,112.431z"/>
       </defs>
       <clipPath id="SVGID_20_">
        <use overflow="visible" xmlns:xlink="http://www.w3.org/1999/xlink" xlink:href="#SVGID_19_"/>
       </clipPath>
       <rect width="497.972" opacity="0.47" x="0" y="118.431" fill="#999999" height="4" enable-background="new    " stroke-width="0" clip-path="url(#SVGID_20_)"/>
      </g>
      <g stroke-width="0">
       <defs>
        <path id="SVGID_21_" stroke-width="0" d="M1220.6,112.431c0,5.5,-4.5,10,-10,10L10,122.431C4.5,122.431,0,117.931,0,112.431L0,84.6389c0,-5.5,4.5,-10,10,-10l1200.6,0c5.5,0,10,4.48611,10,10L1220.6,112.431z"/>
       </defs>
       <clipPath id="SVGID_22_">
        <use overflow="visible" xmlns:xlink="http://www.w3.org/1999/xlink" xlink:href="#SVGID_21_"/>
       </clipPath>
       <rect width="541.986" x="678.597" opacity="0.1" y="112.431" fill="#1A1A1A" height="10" enable-background="new    " stroke-width="0" clip-path="url(#SVGID_22_)"/>
      </g>
      <g stroke-width="0">
       <defs>
        <path id="SVGID_23_" stroke-width="0" d="M1220.6,112.431c0,5.5,-4.5,10,-10,10L10,122.431C4.5,122.431,0,117.931,0,112.431L0,84.6389c0,-5.5,4.5,-10,10,-10l1200.6,0c5.5,0,10,4.48611,10,10L1220.6,112.431z"/>
       </defs>
       <clipPath id="SVGID_24_">
        <use overflow="visible" xmlns:xlink="http://www.w3.org/1999/xlink" xlink:href="#SVGID_23_"/>
       </clipPath>
       <rect width="541.986" x="678.597" opacity="0.2" y="118.431" fill="#1A1A1A" height="4" enable-background="new    " stroke-width="0" clip-path="url(#SVGID_24_)"/>
      </g>
     </g>
     <rect width="642.222" x="295.25" y="109.111" fill="#4D4D4D" height="66.75" stroke-width="0"/>
     <polygon opacity="0.36" fill="#E6E6E6" points="327.167,149.528,295.278,178.556,295.25,112.722" enable-background="new    " stroke-width="0"/>
     <polygon opacity="0.36" fill="#E6E6E6" points="905.542,149.528,937.417,178.556,937.458,112.722" enable-background="new    " stroke-width="0"/>
     <g stroke-width="0">
      <path fill="#999999" stroke-width="0" d="M296.417,188.889c-5.40278,-21.6528,8.43056,-39.3611,30.75,-39.3611l578.319,0c22.3472,0,36.1667,17.6944,30.7917,39.3611l-56.4444,225.639c-5.41667,21.6667,-28.0694,39.3611,-50.375,39.3611L403.264,453.889c-22.3194,0,-45,-17.6944,-50.4167,-39.3611L296.417,188.889z"/>
      <path fill="#1A1A1A" stroke-width="0" d="M322.431,202.042c-5.47222,-21.6389,8.33333,-39.3333,30.6528,-39.3333l526.542,0c22.3056,0,36.125,17.6944,30.6528,39.3333l-50.2778,199.292c-5.45833,21.6944,-28.1806,39.375,-50.5139,39.375L423.194,440.708c-22.3194,0,-45.0417,-17.6806,-50.5139,-39.375L322.431,202.042z"/>
      <g stroke-width="0">
       <g stroke-width="0">
        <path fill="#4D4D4D" stroke-width="0" d="M768.569,330.444c12.125,0,21.9444,9.81944,21.9444,21.9583s-9.81944,22,-21.9444,22c-12.1667,0,-22.0278,-9.86111,-22.0278,-22S756.403,330.444,768.569,330.444z"/>
       </g>
       <g stroke-width="0">
        <circle fill="#4D4D4D" cx="667.069" cy="352.431" r="21.9861" stroke-width="0"/>
       </g>
       <g stroke-width="0">
        <circle fill="#4D4D4D" cx="565.583" cy="352.431" r="21.9861" stroke-width="0"/>
       </g>
       <g stroke-width="0">
        <circle fill="#4D4D4D" cx="464.139" cy="352.431" r="21.9861" stroke-width="0"/>
       </g>
      </g>
      <g stroke-width="0">
       <g stroke-width="0">
        <circle cx="768.556" cy="352.417" r="16.9167" stroke-width="0"/>
       </g>
       <g stroke-width="0">
        <circle cx="667.097" cy="352.417" r="16.9167" stroke-width="0"/>
       </g>
       <g stroke-width="0">
        <circle cx="565.611" cy="352.417" r="16.9167" stroke-width="0"/>
       </g>
       <g stroke-width="0">
        <circle cx="464.139" cy="352.417" r="16.9167" stroke-width="0"/>
       </g>
      </g>
      <g stroke-width="0">
       <g stroke-width="0">
        <circle fill="#4D4D4D" cx="819.278" cy="250.972" r="21.9722" stroke-width="0"/>
       </g>
       <g stroke-width="0">
        <circle fill="#4D4D4D" cx="717.861" cy="250.972" r="21.9722" stroke-width="0"/>
       </g>
       <g stroke-width="0">
        <circle fill="#4D4D4D" cx="616.347" cy="250.972" r="21.9722" stroke-width="0"/>
       </g>
       <g stroke-width="0">
        <circle fill="#4D4D4D" cx="514.875" cy="250.972" r="21.9722" stroke-width="0"/>
       </g>
       <g stroke-width="0">
        <circle fill="#4D4D4D" cx="413.417" cy="250.972" r="21.9722" stroke-width="0"/>
       </g>
      </g>
      <g stroke-width="0">
       <g stroke-width="0">
        <circle cx="819.278" cy="250.972" r="16.9028" stroke-width="0"/>
       </g>
       <g stroke-width="0">
        <circle cx="717.833" cy="250.972" r="16.9028" stroke-width="0"/>
       </g>
       <g stroke-width="0">
        <circle cx="616.347" cy="250.972" r="16.9028" stroke-width="0"/>
       </g>
       <g stroke-width="0">
        <circle cx="514.875" cy="250.972" r="16.9028" stroke-width="0"/>
       </g>
       <g stroke-width="0">
        <circle cx="413.417" cy="250.972" r="16.9028" stroke-width="0"/>
       </g>
      </g>
     </g>
     <g stroke-width="0">
      <g stroke-width="0">
       <polygon opacity="0.53" fill="#E6E6E6" points="46.8333,269,93.6528,188.083,93.6528,193.486,46.8333,274.403" enable-background="new    " stroke-width="0"/>
       <polygon opacity="0.53" fill="#808080" points="237.014,269,190.194,188.083,190.194,193.486,237.014,274.403" enable-background="new    " stroke-width="0"/>
      </g>
      <rect width="96.5417" x="93.6528" opacity="0.25" y="188.083" fill="#F2F2F2" height="5.23611" enable-background="new    " stroke-width="0"/>
     </g>
     <g stroke-width="0">
      <g stroke-width="0">
       <polygon opacity="0.53" fill="#E6E6E6" points="983.583,269,1030.4,188.083,1030.4,193.486,983.583,274.403" enable-background="new    " stroke-width="0"/>
       <polygon opacity="0.53" fill="#808080" points="1173.78,269,1126.96,188.083,1126.96,193.486,1173.78,274.403" enable-background="new    " stroke-width="0"/>
      </g>
      <rect width="96.5417" x="1030.4" opacity="0.25" y="188.083" fill="#F2F2F2" height="5.23611" enable-background="new    " stroke-width="0"/>
     </g>
     <path opacity="0.2" fill="#E6E6E6" enable-background="new    " stroke-width="0" d="M17.4861,32.4861c0,-6.05556,4.48611,-10.9722,9.95833,-10.9722l238.917,0L266.361,16.0278L27.4444,16.0278c-5.47222,0,-9.95833,4.93056,-9.95833,10.9722L17.4861,32.4861z"/>
     <path opacity="0.2" fill="#E6E6E6" enable-background="new    " stroke-width="0" d="M1203.12,27c0,-6.04167,-4.5,-10.9722,-9.97222,-10.9722L954.236,16.0278l0,5.5l238.917,0c5.47222,0,9.97222,4.91667,9.97222,10.9722L1203.12,27z"/>
    </g>
   </g>
  </g>
  <g transform="translate(444.335,734.05)">
   <rect width="31.93" x="0" y="0" fill="#8D8C8C" height="31.9" id="connector0pin" stroke-width="0"/>
   <rect width="16.4442" x="7.79153" y="7.73544" fill="#8C8663" height="16.4152" stroke-width="0"/>
   <polygon fill="#B8AF82" points="0,31.9,7.79153,24.1368,7.79153,6.97162,0,0" stroke-width="0"/>
   <polygon fill="#80795B" points="24.2079,7.76321,7.90264,7.76321,0,0,31.93,0" stroke-width="0"/>
   <polygon fill="#5E5B43" points="24.2079,24.1368,24.2079,7.76321,31.93,0,31.93,31.9" stroke-width="0"/>
   <polygon fill="#9A916C" points="0,31.9,7.87486,24.1368,24.2079,24.1368,31.93,31.9" stroke-width="0"/>
  </g>
  <g transform="translate(444.335,34.05)">
   <rect width="31.93" x="0" y="0" fill="#8D8C8C" height="31.9" id="" stroke-width="0"/>
   <rect width="16.4442" x="7.79153" y="7.73544" fill="#8C8663" height="16.4152" stroke-width="0"/>
   <polygon fill="#B8AF82" points="0,31.9,7.79153,24.1368,7.79153,6.97162,0,0" stroke-width="0"/>
   <polygon fill="#80795B" points="24.2079,7.76321,7.90264,7.76321,0,0,31.93,0" stroke-width="0"/>
   <polygon fill="#5E5B43" points="24.2079,24.1368,24.2079,7.76321,31.93,0,31.93,31.9" stroke-width="0"/>
   <polygon fill="#9A916C" points="0,31.9,7.87486,24.1368,24.2079,24.1368,31.93,31.9" stroke-width="0"/>
  </g>
  <g transform="translate(544.335,734.05)">
   <rect width="31.93" x="0" y="0" fill="#8D8C8C" height="31.9" id="connector1pin" stroke-width="0"/>
   <rect width="16.4442" x="7.79153" y="7.73544" fill="#8C8663" height="16.4152" stroke-width="0"/>
   <polygon fill="#B8AF82" points="0,31.9,7.79153,24.1368,7.79153,6.97162,0,0" stroke-width="0"/>
   <polygon fill="#80795B" points="24.2079,7.76321,7.90264,7.76321,0,0,31.93,0" stroke-width="0"/>
   <polygon fill="#5E5B43" points="24.2079,24.1368,24.2079,7.76321,31.93,0,31.93,31.9" stroke-width="0"/>
   <polygon fill="#9A916C" points="0,31.9,7.87486,24.1368,24.2079,24.1368,31.93,31.9" stroke-width="0"/>
  </g>
  <g transform="translate(544.335,34.05)">
   <rect width="31.93" x="0" y="0" fill="#8D8C8C" height="31.9" id="connector10pin" stroke-width="0"/>
   <rect width="16.4442" x="7.79153" y="7.73544" fill="#8C8663" height="16.4152" stroke-width="0"/>
   <polygon fill="#B8AF82" points="0,31.9,7.79153,24.1368,7.79153,6.97162,0,0" stroke-width="0"/>
   <polygon fill="#80795B" points="24.2079,7.76321,7.90264,7.76321,0,0,31.93,0" stroke-width="0"/>
   <polygon fill="#5E5B43" points="24.2079,24.1368,24.2079,7.76321,31.93,0,31.93,31.9" stroke-width="0"/>
   <polygon fill="#9A916C" points="0,31.9,7.87486,24.1368,24.2079,24.1368,31.93,31.9" stroke-width="0"/>
  </g>
  <g transform="translate(644.335,734.05)">
   <rect width="31.93" x="0" y="0" fill="#8D8C8C" height="31.9" id="connector2pin" stroke-width="0"/>
   <rect width="16.4442" x="7.79153" y="7.73544" fill="#8C8663" height="16.4152" stroke-width="0"/>
   <polygon fill="#B8AF82" points="0,31.9,7.79153,24.1368,7.79153,6.97162,0,0" stroke-width="0"/>
   <polygon fill="#80795B" points="24.2079,7.76321,7.90264,7.76321,0,0,31.93,0" stroke-width="0"/>
   <polygon fill="#5E5B43" points="24.2079,24.1368,24.2079,7.76321,31.93,0,31.93,31.9" stroke-width="0"/>
   <polygon fill="#9A916C" points="0,31.9,7.87486,24.1368,24.2079,24.1368,31.93,31.9" stroke-width="0"/>
  </g>
  <g transform="translate(644.335,34.05)">
   <rect width="31.93" x="0" y="0" fill="#8D8C8C" height="31.9" id="connector9pin" stroke-width="0"/>
   <rect width="16.4442" x="7.79153" y="7.73544" fill="#8C8663" height="16.4152" stroke-width="0"/>
   <polygon fill="#B8AF82" points="0,31.9,7.79153,24.1368,7.79153,6.97162,0,0" stroke-width="0"/>
   <polygon fill="#80795B" points="24.2079,7.76321,7.90264,7.76321,0,0,31.93,0" stroke-width="0"/>
   <polygon fill="#5E5B43" points="24.2079,24.1368,24.2079,7.76321,31.93,0,31.93,31.9" stroke-width="0"/>
   <polygon fill="#9A916C" points="0,31.9,7.87486,24.1368,24.2079,24.1368,31.93,31.9" stroke-width="0"/>
  </g>
  <g transform="translate(744.335,734.05)">
   <rect width="31.93" x="0" y="0" fill="#8D8C8C" height="31.9" id="connector3pin" stroke-width="0"/>
   <rect width="16.4442" x="7.79153" y="7.73544" fill="#8C8663" height="16.4152" stroke-width="0"/>
   <polygon fill="#B8AF82" points="0,31.9,7.79153,24.1368,7.79153,6.97162,0,0" stroke-width="0"/>
   <polygon fill="#80795B" points="24.2079,7.76321,7.90264,7.76321,0,0,31.93,0" stroke-width="0"/>
   <polygon fill="#5E5B43" points="24.2079,24.1368,24.2079,7.76321,31.93,0,31.93,31.9" stroke-width="0"/>
   <polygon fill="#9A916C" points="0,31.9,7.87486,24.1368,24.2079,24.1368,31.93,31.9" stroke-width="0"/>
  </g>
  <g transform="translate(744.335,34.05)">
   <rect width="31.93" x="0" y="0" fill="#8D8C8C" height="31.9" id="connector8pin" stroke-width="0"/>
   <rect width="16.4442" x="7.79153" y="7.73544" fill="#8C8663" height="16.4152" stroke-width="0"/>
   <polygon fill="#B8AF82" points="0,31.9,7.79153,24.1368,7.79153,6.97162,0,0" stroke-width="0"/>
   <polygon fill="#80795B" points="24.2079,7.76321,7.90264,7.76321,0,0,31.93,0" stroke-width="0"/>
   <polygon fill="#5E5B43" points="24.2079,24.1368,24.2079,7.76321,31.93,0,31.93,31.9" stroke-width="0"/>
   <polygon fill="#9A916C" points="0,31.9,7.87486,24.1368,24.2079,24.1368,31.93,31.9" stroke-width="0"/>
  </g>
  <g transform="translate(844.335,734.05)">
   <rect width="31.93" x="0" y="0" fill="#8D8C8C" height="31.9" id="connector4pin" stroke-width="0"/>
   <rect width="16.4442" x="7.79153" y="7.73544" fill="#8C8663" height="16.4152" stroke-width="0"/>
   <polygon fill="#B8AF82" points="0,31.9,7.79153,24.1368,7.79153,6.97162,0,0" stroke-width="0"/>
   <polygon fill="#80795B" points="24.2079,7.76321,7.90264,7.76321,0,0,31.93,0" stroke-width="0"/>
   <polygon fill="#5E5B43" points="24.2079,24.1368,24.2079,7.76321,31.93,0,31.93,31.9" stroke-width="0"/>
   <polygon fill="#9A916C" points="0,31.9,7.87486,24.1368,24.2079,24.1368,31.93,31.9" stroke-width="0"/>
  </g>
  <g transform="translate(844.335,34.05)">
   <rect width="31.93" x="0" y="0" fill="#8D8C8C" height="31.9" id="connector7pin" stroke-width="0"/>
   <rect width="16.4442" x="7.79153" y="7.73544" fill="#8C8663" height="16.4152" stroke-width="0"/>
   <polygon fill="#B8AF82" points="0,31.9,7.79153,24.1368,7.79153,6.97162,0,0" stroke-width="0"/>
   <polygon fill="#80795B" points="24.2079,7.76321,7.90264,7.76321,0,0,31.93,0" stroke-width="0"/>
   <polygon fill="#5E5B43" points="24.2079,24.1368,24.2079,7.76321,31.93,0,31.93,31.9" stroke-width="0"/>
   <polygon fill="#9A916C" points="0,31.9,7.87486,24.1368,24.2079,24.1368,31.93,31.9" stroke-width="0"/>
  </g>
  <g transform="translate(944.335,734.05)">
   <rect width="31.93" x="0" y="0" fill="#8D8C8C" height="31.9" id="connector5pin" stroke-width="0"/>
   <rect width="16.4442" x="7.79153" y="7.73544" fill="#8C8663" height="16.4152" stroke-width="0"/>
   <polygon fill="#B8AF82" points="0,31.9,7.79153,24.1368,7.79153,6.97162,0,0" stroke-width="0"/>
   <polygon fill="#80795B" points="24.2079,7.76321,7.90264,7.76321,0,0,31.93,0" stroke-width="0"/>
   <polygon fill="#5E5B43" points="24.2079,24.1368,24.2079,7.76321,31.93,0,31.93,31.9" stroke-width="0"/>
   <polygon fill="#9A916C" points="0,31.9,7.87486,24.1368,24.2079,24.1368,31.93,31.9" stroke-width="0"/>
  </g>
  <g transform="translate(944.335,34.05)">
   <rect width="31.93" x="0" y="0" fill="#8D8C8C" height="31.9" id="connector6pin" stroke-width="0"/>
   <rect width="16.4442" x="7.79153" y="7.73544" fill="#8C8663" height="16.4152" stroke-width="0"/>
   <polygon fill="#B8AF82" points="0,31.9,7.79153,24.1368,7.79153,6.97162,0,0" stroke-width="0"/>
   <polygon fill="#80795B" points="24.2079,7.76321,7.90264,7.76321,0,0,31.93,0" stroke-width="0"/>
   <polygon fill="#5E5B43" points="24.2079,24.1368,24.2079,7.76321,31.93,0,31.93,31.9" stroke-width="0"/>
   <polygon fill="#9A916C" points="0,31.9,7.87486,24.1368,24.2079,24.1368,31.93,31.9" stroke-width="0"/>
  </g>
 </g>
 <text x="50" y="424.375" font-family="OCRA" fill="white" text-anchor="start" stroke="none" id="label" stroke-width="0" font-size="65">DB9</text>
 <g transform="translate(473.8,726.05)">
  <g transform="rotate(-90)">
   <text x="0" y="0" font-family="OCRA" fill="white" text-anchor="start" stroke="none" stroke-width="0" font-size="45">1</text>
  </g>
 </g>
 <g transform="translate(473.8,73.95)">
  <g transform="rotate(-90)">
   <text x="0" y="0" font-family="OCRA" fill="white" text-anchor="end" stroke="none" stroke-width="0" font-size="45"/>
  </g>
 </g>
 <g transform="translate(573.8,726.05)">
  <g transform="rotate(-90)">
   <text x="0" y="0" font-family="OCRA" fill="white" text-anchor="start" stroke="none" stroke-width="0" font-size="45">G1</text>
  </g>
 </g>
 <g transform="translate(573.8,73.95)">
  <g transform="rotate(-90)">
   <text x="0" y="0" font-family="OCRA" fill="white" text-anchor="end" stroke="none" stroke-width="0" font-size="45">9</text>
  </g>
 </g>
 <g transform="translate(673.8,726.05)">
  <g transform="rotate(-90)">
   <text x="0" y="0" font-family="OCRA" fill="white" text-anchor="start" stroke="none" stroke-width="0" font-size="45">G2</text>
  </g>
 </g>
 <g transform="translate(673.8,73.95)">
  <g transform="rotate(-90)">
   <text x="0" y="0" font-family="OCRA" fill="white" text-anchor="end" stroke="none" stroke-width="0" font-size="45">8</text>
  </g>
 </g>
 <g transform="translate(773.8,726.05)">
  <g transform="rotate(-90)">
   <text x="0" y="0" font-family="OCRA" fill="white" text-anchor="start" stroke="none" stroke-width="0" font-size="45">2</text>
  </g>
 </g>
 <g transform="translate(773.8,73.95)">
  <g transform="rotate(-90)">
   <text x="0" y="0" font-family="OCRA" fill="white" text-anchor="end" stroke="none" stroke-width="0" font-size="45">7</text>
  </g>
 </g>
 <g transform="translate(873.8,726.05)">
  <g transform="rotate(-90)">
   <text x="0" y="0" font-family="OCRA" fill="white" text-anchor="start" stroke="none" stroke-width="0" font-size="45">3</text>
  </g>
 </g>
 <g transform="translate(873.8,73.95)">
  <g transform="rotate(-90)">
   <text x="0" y="0" font-family="OCRA" fill="white" text-anchor="end" stroke="none" stroke-width="0" font-size="45">6</text>
  </g>
 </g>
 <g transform="translate(973.8,726.05)">
  <g transform="rotate(-90)">
   <text x="0" y="0" font-family="OCRA" fill="white" text-anchor="start" stroke="none" stroke-width="0" font-size="45">4</text>
  </g>
 </g>
 <g transform="translate(973.8,73.95)">
  <g transform="rotate(-90)">
   <text x="0" y="0" font-family="OCRA" fill="white" text-anchor="end" stroke="none" stroke-width="0" font-size="45">5</text>
  </g>
 </g>
</svg>
