<?xml version='1.0' encoding='UTF-8' standalone='no'?>
<!-- Created with Fritzing (http://www.fritzing.org/) -->
<svg width="0in" x="0in" version="1.2" y="0in" xmlns="http://www.w3.org/2000/svg" height="0.4in" viewBox="0 0 0 400" baseProfile="tiny" xmlns:svg="http://www.w3.org/2000/svg">
 <desc>Fritzing breadboard generated by brd2svg</desc>
 <g id="breadboard">
  <g id="icon">
   <path fill="#1F7A34" stroke="none" stroke-width="0" d="M0,0L0,170A30,30 0 0 1 0,230L0,400L0,400L0,0L0,0z"/>
   <g transform="translate(-292,-27.5)">
    <g transform="matrix(-0.416667, 0, 0, -0.416667, 413.667, 322.292)">
     <rect width="480" x="-43.3333" y="0" fill="#303030" height="455" stroke="none" stroke-width="0"/>
     <polygon fill="#1f1f1f" points="-43.3333,0 436.667,0 426.667,10 -33.3333,10"/>
     <polygon fill="#1f1f1f" points="-43.3333,455 436.667,455 426.667,445 -33.3333,445"/>
     <polygon fill="#000000" points="-43.3333,0 -43.3333,455 -33.3333,445 -33.3333,10"/>
     <polygon fill="#3d3d3d" points="436.667,0 436.667,455 426.667,445 426.667,10"/>
     <circle fill="#1f1f1f" cx="-13.3333" cy="425" stroke="none" r="10" stroke-width="0"/>
    </g>
   </g>
   <text x="50" y="224.375" font-family="OCRA" fill="white" text-anchor="start" stroke="none" id="label" stroke-width="0" font-size="65">USB-B-PTH-VERTICAL</text>
  </g>
 </g>
</svg>
