<?xml version='1.0' encoding='UTF-8' standalone='no'?>
<!-- Created with Fritzing (http://www.fritzing.org/) -->
<svg width="0.604903in" x="0in" version="1.2" y="0in" xmlns="http://www.w3.org/2000/svg" height="0.6in" viewBox="0 0 604.903 600" baseProfile="tiny" xmlns:svg="http://www.w3.org/2000/svg">
 <desc>Fritzing breadboard generated by brd2svg</desc>
 <g id="breadboard">
  <g id="icon">
   <path fill="#1F7A34" stroke="none" stroke-width="0" d="M0,0L0,270A30,30 0 0 1 0,330L0,600L604.903,600L604.903,0L0,0z"/>
   <g transform="translate(100,199.604)">
    <g id="breadboard_1_" stroke-width="0">
     <polygon fill="#333333" points="23.4444,0,23.4444,200.792,380.208,200.792,380.208,0" stroke-width="0"/>
     <g stroke-width="0">
      <polygon fill="#2B2B2B" points="374.667,42.9861,374.667,42.9861,374.667,157.889,374.667,157.889,374.667,184.278,402.444,184.278,402.444,16.5833,374.667,16.5833" stroke-width="0"/>
      <polygon fill="#292929" points="374.667,154.111,374.667,157.889,374.667,157.889,374.667,178.292,402.444,178.292,402.444,154.111" stroke-width="0"/>
      <polygon fill="#292929" points="374.667,50.9306,374.667,42.5,374.667,42.5,374.667,22.0972,402.444,22.0972,402.444,50.9306" stroke-width="0"/>
      <rect width="27.5" x="374.667" y="70.2778" fill="#333333" height="44.5694" stroke-width="0"/>
      <rect width="27.5" x="374.667" y="83.125" fill="#383838" height="24.4583" stroke-width="0"/>
      <rect width="27.7778" x="374.667" y="178.264" fill="#212121" height="6.01389" stroke-width="0"/>
      <rect width="27.7778" x="374.667" y="16.6111" fill="#212121" height="5.5" stroke-width="0"/>
      <rect width="26.1389" x="402.222" y="16.6111" fill="#A1A1A1" height="167.639" stroke-width="0"/>
      <rect width="26.1389" x="402.222" y="50.9167" fill="#ABABAB" height="103.194" stroke-width="0"/>
      <rect width="26.1389" x="402.222" y="70.2778" fill="#C7C7C7" height="44.5694" stroke-width="0"/>
      <rect width="26.1389" x="402.222" y="83.125" fill="#E6E6E6" height="24.4583" stroke-width="0"/>
      <rect width="26.1389" x="402.222" y="16.6111" fill="#737373" height="5.5" stroke-width="0"/>
      <rect width="26.1389" x="402.222" y="178.528" fill="#737373" height="5.5" stroke-width="0"/>
     </g>
    </g>
   </g>
  </g>
 </g>
 <text x="50" y="324.375" font-family="OCRA" fill="white" text-anchor="start" stroke="none" id="label" stroke-width="0" font-size="65">STEREOJACK2.5MM_STEREOJACK2.5MM</text>
</svg>
