<?xml version='1.0' encoding='UTF-8' standalone='no'?>
<!-- Created with Fritzing (http://www.fritzing.org/) -->
<svg width="0.4in" x="0in" version="1.2" y="0in" xmlns="http://www.w3.org/2000/svg" height="0.4in" viewBox="0 0 400 400" baseProfile="tiny" xmlns:svg="http://www.w3.org/2000/svg">
 <desc>Fritzing breadboard generated by brd2svg</desc>
 <g id="breadboard">
  <g id="icon">
   <path fill="#1F7A34" stroke="none" stroke-width="0" d="M0,0L0,170A30,30 0 0 1 0,230L0,400L400,400L400,0L0,0z"/>
   <g transform="translate(132.618,113.326)">
    <rect width="134.764" x="0" y="0" fill="#333333" height="173.347" stroke-width="0"/>
    <rect width="129.625" x="2.56944" y="3.30556" fill="#FCDDA7" height="166.736" stroke-width="0"/>
    <path fill="#B3B3B3" stroke-width="0" d="M130.069,142.306c0,13.75,-11.25,25,-25,25L29.6944,167.306c-13.75,0,-25,-11.25,-25,-25L4.69444,31.0417c0,-13.75,11.25,-25,25,-25l75.375,0c13.75,0,25,11.25,25,25L130.069,142.306z"/>
    <path fill="#F2F2F2" stroke-width="0" d="M4.70833,33.2639c0,-13.75,11.25,-25,25,-25l75.375,0c13.75,0,25,11.25,25,25l0,-2.22222c0,-13.75,-11.25,-25,-25,-25L29.6944,6.04167c-13.75,0,-25,11.25,-25,25L4.69444,33.2639z"/>
    <path fill="#CCCCCC" stroke-width="0" d="M125.611,136.569c0,13.75,-11.25,25,-25,25L34.1667,161.569c-13.75,0,-25,-11.25,-25,-25L9.16667,36.7778c0,-13.75,11.25,-25,25,-25l66.4583,0c13.75,0,25,11.25,25,25L125.625,136.569z"/>
    <path fill="#999999" stroke-width="0" d="M9.16667,36.7778c0,-13.75,11.25,-25,25,-25l66.4583,0c13.75,0,25,11.25,25,25l0,6.26389c0,-13.75,-11.25,-25,-25,-25L34.1667,18.0417c-13.75,0,-25,11.25,-25,25L9.16667,36.7778z"/>
    <path fill="#F2F2F2" stroke-width="0" d="M125.611,136.569c0,13.7361,-11.2639,25,-25,25L34.1528,161.569c-13.75,0,-25,-11.2639,-25,-25L9.15278,134.597c0,13.7361,11.25,25,25,25l66.4583,0c13.7361,0,25,-11.2639,25,-25L125.611,136.569z"/>
    <path fill="#E6E6E6" stroke-width="0" d="M112.931,120.264c0,13.75,-11.25,25,-25,25L46.8333,145.264c-13.75,0,-25,-11.25,-25,-25L21.8333,53.0833c0,-13.75,11.25,-25,25,-25l41.0972,0c13.75,0,25,11.25,25,25L112.931,120.264z"/>
    <path fill="#B3B3B3" stroke-width="0" d="M21.8472,127.319c0,13.75,11.25,25,25,25l41.0972,0c13.75,0,25,-11.25,25,-25L112.944,120.264c0,13.75,-11.25,25,-25,25L46.8333,145.264c-13.75,0,-25,-11.25,-25,-25L21.8333,127.319z"/>
    <path fill="#FFFFFF" stroke-width="0" d="M21.8472,64.5833c0,-13.75,11.25,-25,25,-25l41.0972,0c13.75,0,25,11.25,25,25L112.944,55.5417c0,-13.75,-11.25,-25,-25,-25L46.8333,30.5417c-13.75,0,-25,11.25,-25,25L21.8333,64.5833z"/>
    <path opacity="0.28" fill="#808080" stroke-width="0" d="M104.347,108.569c0,13.75,-9.13889,25,-20.2917,25L50.7083,133.569c-11.1667,0,-20.2778,-11.25,-20.2778,-25l0,4.51389c0,13.75,9.125,25.0139,20.2778,25.0139l33.3472,0c11.1528,0,20.2917,-11.2639,20.2917,-25.0139L104.347,108.569z"/>
    <g stroke-width="0">
     <path fill="#333333" stroke-width="0" d="M77.7778,46.6806L57.0139,46.6806l0,20.75L77.7778,67.4306L77.7778,46.6806zM60.7083,51.1944l13.375,0L67.7083,62.9167L60.7083,51.1944z"/>
     <text x="0" y="0" stroke-width="0" transform="matrix(-4.37114e-08, 1, -1, -4.37114e-08, 68.4514, 70.5708)" font-size="0">
      <tspan x="0" y="0" fill="#333333" font-family="'HelveticaNeueLTStd-Roman'" font-size="0.959">ANALOG</tspan>
      <tspan x="-0.07" y="0.807" fill="#333333" font-family="'HelveticaNeueLTStd-Roman'" font-size="0.959">DEVICES</tspan>
     </text>
    </g>
    <path fill="#999999" stroke-width="0" d="M130.069,140.069c0,13.75,-11.2639,25.0139,-25,25.0139L29.6944,165.083c-13.75,0,-25,-11.2639,-25,-25.0139l0,2.22222c0,13.75,11.25,25,25,25l75.375,0c13.7361,0,25,-11.25,25,-25L130.069,140.069z"/>
   </g>
  </g>
  <g transform="translate(34.035,334.05)">
   <rect width="31.93" x="0" y="0" fill="#8D8C8C" height="31.9" id="connector0pin" stroke-width="0"/>
   <rect width="16.4442" x="7.79153" y="7.73544" fill="#8C8663" height="16.4152" stroke-width="0"/>
   <polygon fill="#B8AF82" points="0,31.9,7.79153,24.1368,7.79153,6.97162,0,0" stroke-width="0"/>
   <polygon fill="#80795B" points="24.2079,7.76321,7.90264,7.76321,0,0,31.93,0" stroke-width="0"/>
   <polygon fill="#5E5B43" points="24.2079,24.1368,24.2079,7.76321,31.93,0,31.93,31.9" stroke-width="0"/>
   <polygon fill="#9A916C" points="0,31.9,7.87486,24.1368,24.2079,24.1368,31.93,31.9" stroke-width="0"/>
  </g>
  <g transform="translate(134.035,334.05)">
   <rect width="31.93" x="0" y="0" fill="#8D8C8C" height="31.9" id="connector1pin" stroke-width="0"/>
   <rect width="16.4442" x="7.79153" y="7.73544" fill="#8C8663" height="16.4152" stroke-width="0"/>
   <polygon fill="#B8AF82" points="0,31.9,7.79153,24.1368,7.79153,6.97162,0,0" stroke-width="0"/>
   <polygon fill="#80795B" points="24.2079,7.76321,7.90264,7.76321,0,0,31.93,0" stroke-width="0"/>
   <polygon fill="#5E5B43" points="24.2079,24.1368,24.2079,7.76321,31.93,0,31.93,31.9" stroke-width="0"/>
   <polygon fill="#9A916C" points="0,31.9,7.87486,24.1368,24.2079,24.1368,31.93,31.9" stroke-width="0"/>
  </g>
  <g transform="translate(134.035,34.05)">
   <rect width="31.93" x="0" y="0" fill="#8D8C8C" height="31.9" id="connector6pin" stroke-width="0"/>
   <rect width="16.4442" x="7.79153" y="7.73544" fill="#8C8663" height="16.4152" stroke-width="0"/>
   <polygon fill="#B8AF82" points="0,31.9,7.79153,24.1368,7.79153,6.97162,0,0" stroke-width="0"/>
   <polygon fill="#80795B" points="24.2079,7.76321,7.90264,7.76321,0,0,31.93,0" stroke-width="0"/>
   <polygon fill="#5E5B43" points="24.2079,24.1368,24.2079,7.76321,31.93,0,31.93,31.9" stroke-width="0"/>
   <polygon fill="#9A916C" points="0,31.9,7.87486,24.1368,24.2079,24.1368,31.93,31.9" stroke-width="0"/>
  </g>
  <g transform="translate(234.035,334.05)">
   <rect width="31.93" x="0" y="0" fill="#8D8C8C" height="31.9" id="connector2pin" stroke-width="0"/>
   <rect width="16.4442" x="7.79153" y="7.73544" fill="#8C8663" height="16.4152" stroke-width="0"/>
   <polygon fill="#B8AF82" points="0,31.9,7.79153,24.1368,7.79153,6.97162,0,0" stroke-width="0"/>
   <polygon fill="#80795B" points="24.2079,7.76321,7.90264,7.76321,0,0,31.93,0" stroke-width="0"/>
   <polygon fill="#5E5B43" points="24.2079,24.1368,24.2079,7.76321,31.93,0,31.93,31.9" stroke-width="0"/>
   <polygon fill="#9A916C" points="0,31.9,7.87486,24.1368,24.2079,24.1368,31.93,31.9" stroke-width="0"/>
  </g>
  <g transform="translate(234.035,34.05)">
   <rect width="31.93" x="0" y="0" fill="#8D8C8C" height="31.9" id="connector5pin" stroke-width="0"/>
   <rect width="16.4442" x="7.79153" y="7.73544" fill="#8C8663" height="16.4152" stroke-width="0"/>
   <polygon fill="#B8AF82" points="0,31.9,7.79153,24.1368,7.79153,6.97162,0,0" stroke-width="0"/>
   <polygon fill="#80795B" points="24.2079,7.76321,7.90264,7.76321,0,0,31.93,0" stroke-width="0"/>
   <polygon fill="#5E5B43" points="24.2079,24.1368,24.2079,7.76321,31.93,0,31.93,31.9" stroke-width="0"/>
   <polygon fill="#9A916C" points="0,31.9,7.87486,24.1368,24.2079,24.1368,31.93,31.9" stroke-width="0"/>
  </g>
  <g transform="translate(334.035,334.05)">
   <rect width="31.93" x="0" y="0" fill="#8D8C8C" height="31.9" id="connector3pin" stroke-width="0"/>
   <rect width="16.4442" x="7.79153" y="7.73544" fill="#8C8663" height="16.4152" stroke-width="0"/>
   <polygon fill="#B8AF82" points="0,31.9,7.79153,24.1368,7.79153,6.97162,0,0" stroke-width="0"/>
   <polygon fill="#80795B" points="24.2079,7.76321,7.90264,7.76321,0,0,31.93,0" stroke-width="0"/>
   <polygon fill="#5E5B43" points="24.2079,24.1368,24.2079,7.76321,31.93,0,31.93,31.9" stroke-width="0"/>
   <polygon fill="#9A916C" points="0,31.9,7.87486,24.1368,24.2079,24.1368,31.93,31.9" stroke-width="0"/>
  </g>
  <g transform="translate(334.035,34.05)">
   <rect width="31.93" x="0" y="0" fill="#8D8C8C" height="31.9" id="connector4pin" stroke-width="0"/>
   <rect width="16.4442" x="7.79153" y="7.73544" fill="#8C8663" height="16.4152" stroke-width="0"/>
   <polygon fill="#B8AF82" points="0,31.9,7.79153,24.1368,7.79153,6.97162,0,0" stroke-width="0"/>
   <polygon fill="#80795B" points="24.2079,7.76321,7.90264,7.76321,0,0,31.93,0" stroke-width="0"/>
   <polygon fill="#5E5B43" points="24.2079,24.1368,24.2079,7.76321,31.93,0,31.93,31.9" stroke-width="0"/>
   <polygon fill="#9A916C" points="0,31.9,7.87486,24.1368,24.2079,24.1368,31.93,31.9" stroke-width="0"/>
  </g>
 </g>
</svg>
