<?xml version='1.0' encoding='UTF-8' standalone='no'?>
<!-- Created with Fritzing (http://www.fritzing.org/) -->
<svg width="0.31025in" x="0in" version="1.2" y="0in" xmlns="http://www.w3.org/2000/svg" height="0.4in" viewBox="0 0 310.25 400" baseProfile="tiny" xmlns:svg="http://www.w3.org/2000/svg">
 <desc>Fritzing breadboard generated by brd2svg</desc>
 <g id="breadboard">
  <g id="icon">
   <path fill="#1F7A34" stroke="none" stroke-width="0" d="M0,0L0,170A30,30 0 0 1 0,230L0,400L310.25,400L310.25,0L0,0z"/>
   <g transform="translate(100,180.319)">
    <g stroke-width="0">
     <g stroke-width="0">
      <rect width="110.639" x="-0.263889" y="0" fill="#4D4D4D" height="37.2222" stroke-width="0"/>
      <rect width="110.639" x="-0.263889" opacity="0.2" y="0" fill="#FFFFFF" height="0.638889" enable-background="new    " stroke-width="0"/>
      <rect width="110.639" x="-0.263889" y="28.2083" fill="#333333" height="11.0833" stroke-width="0"/>
      <rect width="110.639" x="-0.263889" opacity="0.2" y="38.9167" height="0.444444" enable-background="new    " stroke-width="0"/>
     </g>
     <g stroke-width="0">
      <path fill="#DCDCDC" stroke-width="0" d="M94.3056,0L94.3056,0L94.3056,0L93.0139,0l0,0c-1.11111,3.48611,-1.875,11.0556,-1.875,14.9306c0,4.04167,0.666667,9.625,1.875,13.2639l0,0l0,0L110,28.1944L110,0L94.3056,0z"/>
      <path fill="#DCDCDC" stroke-width="0" d="M17.0278,1.44444L17.0278,0L0.0555556,0l0,28.2083l16.9861,0C18.2639,24.5417,19.7222,19.0417,19.7222,14.9444C19.7222,10.1389,18.6806,5.625,17.0278,1.44444z"/>
      <path fill="#999999" stroke-width="0" d="M110.097,29.6667L93.1111,29.6667L93.0139,28.2083L110,28.2083L110.097,29.6667z"/>
      <path fill="#999999" stroke-width="0" d="M0.138889,29.6806l16.9861,0L17.0278,28.2083L0.0555556,28.2083L0.138889,29.6806z"/>
      <rect width="16.9861" x="0.0555556" opacity="0.15" y="38.7222" height="0.638889" enable-background="new    " stroke-width="0"/>
      <rect width="16.9861" x="0.0555556" opacity="0.5" y="0" fill="#FFFFFF" height="0.638889" enable-background="new    " stroke-width="0"/>
      <rect width="17" x="93.0278" opacity="0.15" y="38.7222" height="0.638889" enable-background="new    " stroke-width="0"/>
      <rect width="17" x="93.0278" opacity="0.5" y="0" fill="#FFFFFF" height="0.638889" enable-background="new    " stroke-width="0"/>
      <line fill="none" y1="39.3611" x1="10.3194" y2="39.3611" stroke-width="0" x2="10.3194"/>
     </g>
    </g>
    <rect width="1.65278" x="108.722" y="29.6667" fill="#999999" height="9.61111" stroke-width="0"/>
    <rect width="1.65278" x="0.0555556" y="29.6667" fill="#999999" height="9.61111" stroke-width="0"/>
    <g stroke-width="0">
     <path fill="#B3B3B3" stroke-width="0" d="M49.75,22.0556L49.75,6.15278l10.7361,0l0,1.875L51.8611,8.02778l0,4.93056l7.47222,0l0,1.875L51.8611,14.8333l0,7.23611L49.75,22.0694z"/>
    </g>
   </g>
  </g>
  <g transform="translate(139.16,334.05)">
   <rect width="31.93" x="0" y="0" fill="#8D8C8C" height="31.9" id="connector0pin" stroke-width="0"/>
   <rect width="16.4442" x="7.79153" y="7.73544" fill="#8C8663" height="16.4152" stroke-width="0"/>
   <polygon fill="#B8AF82" points="0,31.9,7.79153,24.1368,7.79153,6.97162,0,0" stroke-width="0"/>
   <polygon fill="#80795B" points="24.2079,7.76321,7.90264,7.76321,0,0,31.93,0" stroke-width="0"/>
   <polygon fill="#5E5B43" points="24.2079,24.1368,24.2079,7.76321,31.93,0,31.93,31.9" stroke-width="0"/>
   <polygon fill="#9A916C" points="0,31.9,7.87486,24.1368,24.2079,24.1368,31.93,31.9" stroke-width="0"/>
  </g>
  <g transform="translate(139.16,34.05)">
   <rect width="31.93" x="0" y="0" fill="#8D8C8C" height="31.9" id="connector1pin" stroke-width="0"/>
   <rect width="16.4442" x="7.79153" y="7.73544" fill="#8C8663" height="16.4152" stroke-width="0"/>
   <polygon fill="#B8AF82" points="0,31.9,7.79153,24.1368,7.79153,6.97162,0,0" stroke-width="0"/>
   <polygon fill="#80795B" points="24.2079,7.76321,7.90264,7.76321,0,0,31.93,0" stroke-width="0"/>
   <polygon fill="#5E5B43" points="24.2079,24.1368,24.2079,7.76321,31.93,0,31.93,31.9" stroke-width="0"/>
   <polygon fill="#9A916C" points="0,31.9,7.87486,24.1368,24.2079,24.1368,31.93,31.9" stroke-width="0"/>
  </g>
 </g>
</svg>
