<?xml version='1.0' encoding='UTF-8' standalone='no'?>
<!-- Created with Fritzing (http://www.fritzing.org/) -->
<svg width="1.07007in" x="0in" version="1.2" y="0in" xmlns="http://www.w3.org/2000/svg" height="1in" viewBox="0 0 1070.07 1000" baseProfile="tiny" xmlns:svg="http://www.w3.org/2000/svg">
 <desc>Fritzing breadboard generated by brd2svg</desc>
 <g id="breadboard">
  <g id="icon">
   <path fill="#1F7A34" stroke="none" stroke-width="0" d="M0,0L0,470A30,30 0 0 1 0,530L0,1000L1070.07,1000L1070.07,0L0,0z"/>
   <g transform="translate(100,170.653)">
    <g stroke-width="0">
     <polygon fill="#4D4D4D" points="578.597,288.569,578.597,215.097,379.097,167.222,219.472,167.222,19.9583,215.097,19.9583,288.569,-135.75,264.514,-135.75,668.458,19.9583,644.403,19.9583,717.889,219.472,765.764,379.097,765.764,578.597,717.889,578.597,644.403,734.306,668.458,734.306,264.514" stroke-width="0"/>
     <polygon fill="#333333" points="-135.75,697.153,19.9583,673.083,19.9583,746.569,219.472,794.458,379.097,794.458,578.597,746.569,578.597,673.083,734.306,697.153,734.306,668.458,578.597,644.403,578.597,717.889,379.097,765.764,219.472,765.764,19.9583,717.889,19.9583,644.403,-135.75,668.458" stroke-width="0"/>
     <polygon opacity="0.3" points="578.597,669.069,734.306,693.139,734.306,697.153,578.597,673.083" stroke-width="0"/>
     <polygon opacity="0.3" points="19.9583,742.556,219.472,790.444,379.097,790.444,578.597,742.556,578.597,746.569,379.097,794.458,219.472,794.458,19.9583,746.569" stroke-width="0"/>
     <polygon opacity="0.3" points="-135.75,693.139,19.9583,669.069,19.9583,673.083,-135.75,697.153" stroke-width="0"/>
     <polygon opacity="0.3" points="578.597,644.403,734.306,668.458,734.306,672.472,578.597,648.417" stroke-width="0"/>
     <polygon opacity="0.3" points="19.9583,717.889,219.472,765.764,379.097,765.764,578.597,717.889,578.597,721.903,379.097,769.778,219.472,769.778,19.9583,721.903" stroke-width="0"/>
     <polygon opacity="0.3" points="-135.75,668.458,19.9583,644.403,19.9583,648.417,-135.75,672.472" stroke-width="0"/>
     <circle fill="#1A1A1A" cx="299.278" cy="466.486" r="242.194" stroke-width="0"/>
     <path fill="none" stroke="#E4312C" stroke-width="0" d="M514.319,421.903c0,118.764,-96.2778,215.042,-215.042,215.042c-118.764,0,-215.042,-96.2778,-215.042,-215.042" stroke-miterlimit="10"/>
     <path fill="none" stroke="#AB2521" stroke-width="0" d="M514.319,434.125c0,118.764,-96.2778,215.042,-215.042,215.042c-118.764,0,-215.042,-96.2778,-215.042,-215.042" stroke-miterlimit="10"/>
     <path fill="none" stroke="#AB2521" stroke-width="0" d="M514.319,413.319c0,118.764,-96.2778,215.042,-215.042,215.042c-118.764,0,-215.042,-96.2778,-215.042,-215.042" stroke-miterlimit="10"/>
     <path fill="none" stroke="#E4312C" stroke-width="0" d="M514.319,447.514c0,118.764,-96.2778,215.028,-215.042,215.028c-118.764,0,-215.042,-96.2778,-215.042,-215.028" stroke-miterlimit="10"/>
     <path fill="#CCCCCC" stroke-width="0" d="M-58.3611,259.889l0,77.6667c12.0972,4.22222,25.125,9.76389,26.0417,14.3472c1.36111,6.83333,0.583333,207.472,0.194444,301.306l52.0833,-8.09722l0,-375.972L-58.3611,259.889z"/>
     <path fill="#CCCCCC" stroke-width="0" d="M656.889,259.889l0,77.6667c-12.0972,4.22222,-25.125,9.76389,-26.0417,14.3472c-1.36111,6.83333,-0.583333,207.472,-0.194444,301.306l-52.0833,-8.09722l0,-375.972L656.889,259.889z"/>
     <path fill="#B3B3B3" stroke-width="0" d="M-58.3611,342.583c12.0972,4.22222,25.125,9.76389,26.0417,14.3472l0,-5.01389c-0.916667,-4.58333,-13.9444,-10.125,-26.0417,-14.3472L-58.3611,342.583z"/>
     <path fill="#B3B3B3" stroke-width="0" d="M630.847,356.931c0.916667,-4.58333,13.9444,-10.125,26.0417,-14.3472l0,-5.01389c-12.0972,4.22222,-25.125,9.76389,-26.0417,14.3472L630.847,356.931z"/>
     <path fill="none" stroke="#E4312C" stroke-width="0" d="M19.9583,555.028c0,0,0,-211.806,123.069,-211.806" stroke-miterlimit="10"/>
     <path fill="none" stroke="#E4312C" stroke-width="0" d="M578.569,589.75c0,0,0,-211.806,-123.069,-211.806" stroke-miterlimit="10"/>
     <circle fill="#333333" cx="299.278" cy="394.75" r="242.194" stroke-width="0"/>
     <circle fill="#666666" cx="299.278" cy="377.944" r="242.194" stroke-width="0"/>
     <path opacity="0.2" stroke-width="0" d="M57.0833,377.944c0,133.764,108.431,242.194,242.194,242.194c133.764,0,242.194,-108.431,242.194,-242.194l0,4.13889c0,133.764,-108.431,242.194,-242.194,242.194c-133.75,0,-242.194,-108.431,-242.194,-242.194L57.0833,377.944z"/>
     <circle fill="#5F5F5F" cx="300.139" cy="377.083" r="232.347" stroke-width="0"/>
     <g opacity="0.2" stroke-width="0">
      <polygon fill="#FFFFFF" points="656.889,279.667,734.306,267.708,734.306,264.514,656.889,276.486" stroke-width="0"/>
      <polygon fill="#FFFFFF" points="-135.75,267.708,-58.3889,279.653,-58.3889,276.472,-135.75,264.514" stroke-width="0"/>
      <polygon fill="#FFFFFF" points="-58.3611,263.083,19.9583,272.333,19.9583,269.153,-58.3611,259.889" stroke-width="0"/>
      <polygon fill="#FFFFFF" points="578.569,272.333,656.889,263.083,656.889,259.889,578.569,269.153" stroke-width="0"/>
      <path fill="#FFFFFF" stroke-width="0" d="M541.458,381.139c0,-133.75,-108.431,-242.194,-242.194,-242.194c-133.75,0,-242.194,108.431,-242.194,242.194l0,-3.18056c0,-133.75,108.431,-242.194,242.194,-242.194c133.764,0,242.194,108.431,242.194,242.194L541.458,381.139z"/>
      <g stroke-width="0">
       <path fill="#FFFFFF" stroke-width="0" d="M19.9583,215.097l0,3.18056l130.875,-31.4028c2.05556,-1.59722,4.16667,-3.15278,6.27778,-4.69444L19.9583,215.097z"/>
       <path fill="#FFFFFF" stroke-width="0" d="M578.597,215.097l-137.153,-32.9167c2.11111,1.54167,4.22222,3.09722,6.27778,4.69444l130.875,31.4028L578.597,215.097z"/>
      </g>
      <path fill="#FFFFFF" stroke-width="0" d="M532.486,378.097c0,-128.319,-104.014,-232.347,-232.347,-232.347c-128.319,0,-232.347,104.028,-232.347,232.347L67.7917,377.083c0,-128.319,104.028,-232.347,232.347,-232.347c128.319,0,232.347,104.028,232.347,232.347L532.486,378.097z"/>
     </g>
     <path fill="#CCCCCC" stroke-width="0" d="M19.9583,628.361c0,0,28.0556,-85.4861,14.2778,-86.7083s-32.4028,0,-32.4028,0L19.9583,628.361z"/>
     <path fill="#CCCCCC" stroke-width="0" d="M578.542,647.458c0,0,-28.0556,-85.4861,-14.2778,-86.7083s32.4028,0,32.4028,0L578.542,647.458z"/>
     <polygon fill="#B3B3B3" points="-32.125,653.222,19.9583,645.125,19.9583,677.819,-32.125,685.917" stroke-width="0"/>
     <polygon fill="#B3B3B3" points="578.569,645.125,630.653,653.222,630.653,685.917,578.569,677.819" stroke-width="0"/>
     <polygon fill="#B3B3B3" points="19.9583,678.847,-63.8611,691.681,-63.8611,685.917,19.9583,673.083" stroke-width="0"/>
     <polygon fill="#B3B3B3" points="578.597,678.847,662.417,691.681,662.417,685.917,578.597,673.083" stroke-width="0"/>
    </g>
   </g>
  </g>
  <g transform="translate(519.069,934.05)">
   <rect width="31.93" x="0" y="0" fill="#8D8C8C" height="31.9" id="connector0pin" stroke-width="0"/>
   <rect width="16.4442" x="7.79153" y="7.73544" fill="#8C8663" height="16.4152" stroke-width="0"/>
   <polygon fill="#B8AF82" points="0,31.9,7.79153,24.1368,7.79153,6.97162,0,0" stroke-width="0"/>
   <polygon fill="#80795B" points="24.2079,7.76321,7.90264,7.76321,0,0,31.93,0" stroke-width="0"/>
   <polygon fill="#5E5B43" points="24.2079,24.1368,24.2079,7.76321,31.93,0,31.93,31.9" stroke-width="0"/>
   <polygon fill="#9A916C" points="0,31.9,7.87486,24.1368,24.2079,24.1368,31.93,31.9" stroke-width="0"/>
  </g>
  <g transform="translate(519.069,34.05)">
   <rect width="31.93" x="0" y="0" fill="#8D8C8C" height="31.9" id="connector1pin" stroke-width="0"/>
   <rect width="16.4442" x="7.79153" y="7.73544" fill="#8C8663" height="16.4152" stroke-width="0"/>
   <polygon fill="#B8AF82" points="0,31.9,7.79153,24.1368,7.79153,6.97162,0,0" stroke-width="0"/>
   <polygon fill="#80795B" points="24.2079,7.76321,7.90264,7.76321,0,0,31.93,0" stroke-width="0"/>
   <polygon fill="#5E5B43" points="24.2079,24.1368,24.2079,7.76321,31.93,0,31.93,31.9" stroke-width="0"/>
   <polygon fill="#9A916C" points="0,31.9,7.87486,24.1368,24.2079,24.1368,31.93,31.9" stroke-width="0"/>
  </g>
 </g>
</svg>
