<?xml version='1.0' encoding='UTF-8' standalone='no'?>
<!-- Created with Fritzing (http://www.fritzing.org/) -->
<svg width="0.625653in" x="0in" version="1.2" y="0in" xmlns="http://www.w3.org/2000/svg" height="0.8in" viewBox="0 0 625.653 800" baseProfile="tiny" xmlns:svg="http://www.w3.org/2000/svg">
 <desc>Fritzing breadboard generated by brd2svg</desc>
 <g id="breadboard">
  <g id="icon">
   <path fill="#1F7A34" stroke="none" stroke-width="0" d="M0,0L0,370A30,30 0 0 1 0,430L0,800L625.653,800L625.653,0L0,0z"/>
   <g transform="translate(100,151.903)">
    <g stroke-width="0">
     <g stroke-width="0">
      <rect width="425.653" x="0" y="71.1111" fill="#999999" height="412.583" stroke-width="0"/>
      <rect width="425.653" x="0" y="83.1111" fill="#4D4D4D" height="412.583" stroke-width="0"/>
      <g stroke-width="0">
       <circle cx="212.833" cy="289.403" r="164.111" stroke-width="0"/>
       <circle fill="#666666" cx="212.833" cy="289.403" r="164.111" stroke-width="0"/>
       <circle cx="212.833" cy="289.403" r="157.097" stroke-width="0"/>
       <path stroke-width="0" d="M212.833,132.319c-105.194,0,-142.653,91.2222,-142.653,91.2222l0,58.625l286.361,0l0,-56.3056C356.542,225.847,319.944,132.319,212.833,132.319z"/>
       <g stroke-width="0">
        <path fill="#808080" stroke-width="0" d="M296.583,344.972l48.0972,0c7.625,-17.5417,11.8611,-36.8611,11.8611,-57.1667c0,-69.0139,-48.6667,-126.625,-113.486,-140.5l0,31.5139l-60.4167,0l0,-31.5139c-64.8611,13.875,-113.514,71.4861,-113.514,140.5c0,20.3056,4.25,39.6389,11.8611,57.1667l48.125,0l0,59.5694c23.5833,16.9583,52.4861,26.9444,83.75,26.9444c31.25,0,60.1389,-10,83.7361,-26.9306L296.597,344.972z"/>
        <g stroke-width="0">
         <g stroke-width="0">
          <g stroke-width="0">
           <g stroke-width="0">
            <path fill="#4D4D4D" stroke-width="0" d="M269.653,230.028c0,-11.6667,9.54167,-21.2083,21.2083,-21.2083c11.6389,0,21.1806,9.54167,21.1806,21.2083s-9.55556,21.2083,-21.1806,21.2083C279.194,251.236,269.653,241.694,269.653,230.028z"/>
           </g>
           <g stroke-width="0">
            <path stroke-width="0" d="M274.944,230.028c0,-8.76389,7.15278,-15.9306,15.9167,-15.9306s15.9167,7.16667,15.9167,15.9306c0,8.75,-7.16667,15.9167,-15.9167,15.9167S274.944,238.778,274.944,230.028z"/>
           </g>
          </g>
          <g stroke-width="0">
           <g stroke-width="0">
            <path fill="#4D4D4D" stroke-width="0" d="M116.361,230.028c0,-11.6667,9.55556,-21.2083,21.1944,-21.2083c11.6667,0,21.2083,9.54167,21.2083,21.2083s-9.54167,21.2083,-21.2083,21.2083C125.917,251.236,116.361,241.694,116.361,230.028z"/>
           </g>
           <g stroke-width="0">
            <path stroke-width="0" d="M121.653,230.028c0,-8.76389,7.16667,-15.9306,15.9167,-15.9306c8.76389,0,15.9306,7.16667,15.9306,15.9306c0,8.75,-7.18056,15.9167,-15.9306,15.9167C128.819,245.944,121.653,238.778,121.653,230.028z"/>
           </g>
          </g>
         </g>
         <g stroke-width="0">
          <g stroke-width="0">
           <g stroke-width="0">
            <path fill="#4D4D4D" stroke-width="0" d="M282.806,303.361c0,-11.6806,9.55556,-21.2083,21.2083,-21.2083s21.1806,9.54167,21.1806,21.2083c0,11.6528,-9.52778,21.2083,-21.1806,21.2083S282.806,315.014,282.806,303.361z"/>
           </g>
           <g stroke-width="0">
            <path stroke-width="0" d="M288.097,303.375c0,-8.77778,7.16667,-15.9306,15.9167,-15.9306s15.9167,7.16667,15.9167,15.9306c0,8.75,-7.16667,15.9167,-15.9167,15.9167S288.097,312.125,288.097,303.375z"/>
           </g>
          </g>
          <g stroke-width="0">
           <rect width="42.3889" x="192.736" y="184.153" fill="#4D4D4D" height="112.75" stroke-width="0"/>
           <rect width="31.8472" x="198.014" y="189.431" height="102.167" stroke-width="0"/>
          </g>
          <g stroke-width="0">
           <g stroke-width="0">
            <path fill="#4D4D4D" stroke-width="0" d="M100.444,303.361c0,-11.6806,9.54167,-21.2083,21.2083,-21.2083c11.6528,0,21.2083,9.54167,21.2083,21.2083c0,11.6528,-9.55556,21.2083,-21.2083,21.2083C109.986,324.583,100.444,315.014,100.444,303.361z"/>
           </g>
           <g stroke-width="0">
            <path stroke-width="0" d="M105.708,303.375c0,-8.77778,7.16667,-15.9306,15.9306,-15.9306c8.75,0,15.9167,7.16667,15.9167,15.9306c0,8.75,-7.16667,15.9167,-15.9167,15.9167C112.875,319.306,105.708,312.125,105.708,303.375z"/>
           </g>
          </g>
         </g>
         <g stroke-width="0">
          <g stroke-width="0">
           <path fill="#4D4D4D" stroke-width="0" d="M150.139,365.819c0,-11.6806,9.55556,-21.2222,21.2083,-21.2222c11.6667,0,21.2083,9.55556,21.2083,21.2222c0,11.6667,-9.54167,21.1944,-21.2083,21.1944C159.694,387.028,150.139,377.486,150.139,365.819z"/>
          </g>
          <g stroke-width="0">
           <path stroke-width="0" d="M155.431,365.792c0,-8.75,7.16667,-15.9167,15.9167,-15.9167c8.76389,0,15.9306,7.16667,15.9306,15.9167c0,8.77778,-7.16667,15.9306,-15.9306,15.9306C162.597,381.736,155.431,374.569,155.431,365.792z"/>
          </g>
         </g>
         <g stroke-width="0">
          <g stroke-width="0">
           <path fill="#4D4D4D" stroke-width="0" d="M222.944,365.819c0,-11.6806,9.52778,-21.2222,21.2083,-21.2222c11.6389,0,21.1806,9.55556,21.1806,21.2222c0,11.6667,-9.55556,21.1944,-21.1806,21.1944C232.472,387.028,222.944,377.486,222.944,365.819z"/>
          </g>
          <g stroke-width="0">
           <path stroke-width="0" d="M228.208,365.792c0,-8.75,7.19444,-15.9167,15.9444,-15.9167c8.73611,0,15.9167,7.16667,15.9167,15.9167c0,8.77778,-7.19444,15.9306,-15.9167,15.9306C235.389,381.736,228.208,374.569,228.208,365.792z"/>
          </g>
         </g>
        </g>
       </g>
       <path fill="#1A1A1A" stroke-width="0" d="M212.833,109.917C113.694,109.917,33.3333,190.278,33.3333,289.375c0,99.1667,80.3611,179.514,179.5,179.514c99.125,0,179.5,-80.3472,179.5,-179.514C392.347,190.278,311.972,109.917,212.833,109.917zM212.833,459.431c-93.9167,0,-170.056,-76.1111,-170.056,-170.042c0,-93.9028,76.125,-170.028,170.056,-170.028c93.8889,0,170.014,76.125,170.014,170.028C382.847,383.306,306.736,459.431,212.833,459.431z"/>
       <path fill="#CCCCCC" stroke-width="0" d="M212.833,118.069c-94.625,0,-171.333,76.6944,-171.333,171.306c0,94.6389,76.6944,171.333,171.333,171.333c94.625,0,171.333,-76.6806,171.333,-171.333C384.181,194.778,307.458,118.069,212.833,118.069zM212.833,451.694c-89.6528,0,-162.319,-72.6528,-162.319,-162.319c0,-89.6389,72.6667,-162.306,162.319,-162.306c89.6389,0,162.278,72.6667,162.278,162.306C375.125,379.042,302.472,451.694,212.833,451.694z"/>
      </g>
     </g>
     <polygon fill="#1A1A1A" points="246.972,495.514,178.681,495.514,178.681,460.139,213.375,465.903,246.972,460.139" stroke-width="0"/>
     <rect width="393.958" x="15.8472" y="0" fill="#808080" height="71.1111" stroke-width="0"/>
     <rect width="47.2778" x="189.194" y="0" fill="#666666" height="71.1111" stroke-width="0"/>
     <rect width="10.8056" x="207.417" y="0" fill="#4D4D4D" height="71.1111" stroke-width="0"/>
     <rect width="10.8194" x="15.8472" y="0" fill="#B3B3B3" height="71.1111" stroke-width="0"/>
     <rect width="10.7917" x="399.014" y="0" fill="#666666" height="71.1111" stroke-width="0"/>
     <g opacity="0.25" stroke-width="0">
      <polygon fill="#1A1A1A" points="425.653,495.514,414.347,495.514,414.347,94.4444,425.653,82.9583" stroke-width="0"/>
      <polygon fill="#1A1A1A" points="0,495.514,11.3194,484.222,423.889,484.222,423.889,495.514" stroke-width="0"/>
     </g>
     <g opacity="0.23" stroke-width="0">
      <polygon fill="#E6E6E6" points="11.3194,484.222,0,495.694,0,83.1111,11.3194,83.1111" stroke-width="0"/>
      <polygon fill="#E6E6E6" points="11.3194,94.4444,11.3194,83.1111,425.653,83.1111,414.347,94.4444" stroke-width="0"/>
     </g>
     <g stroke-width="0">
      <path stroke-width="0" d="M115.778,165.528c22.4444,-18,54.1111,-33.2083,97.0694,-33.2083c43.0972,0,74.7361,15.125,97.2222,33.2222l0,-19.5278c-27.7222,-18.8472,-61.1944,-29.8472,-97.2222,-29.8472c-35.875,0,-69.2222,10.9167,-96.8611,29.5833L115.778,165.528z"/>
     </g>
    </g>
   </g>
  </g>
  <g transform="translate(146.862,734.05)">
   <rect width="31.93" x="0" y="0" fill="#8D8C8C" height="31.9" id="connector0pin" stroke-width="0"/>
   <rect width="16.4442" x="7.79153" y="7.73544" fill="#8C8663" height="16.4152" stroke-width="0"/>
   <polygon fill="#B8AF82" points="0,31.9,7.79153,24.1368,7.79153,6.97162,0,0" stroke-width="0"/>
   <polygon fill="#80795B" points="24.2079,7.76321,7.90264,7.76321,0,0,31.93,0" stroke-width="0"/>
   <polygon fill="#5E5B43" points="24.2079,24.1368,24.2079,7.76321,31.93,0,31.93,31.9" stroke-width="0"/>
   <polygon fill="#9A916C" points="0,31.9,7.87486,24.1368,24.2079,24.1368,31.93,31.9" stroke-width="0"/>
  </g>
  <g transform="translate(246.862,734.05)">
   <rect width="31.93" x="0" y="0" fill="#8D8C8C" height="31.9" id="connector1pin" stroke-width="0"/>
   <rect width="16.4442" x="7.79153" y="7.73544" fill="#8C8663" height="16.4152" stroke-width="0"/>
   <polygon fill="#B8AF82" points="0,31.9,7.79153,24.1368,7.79153,6.97162,0,0" stroke-width="0"/>
   <polygon fill="#80795B" points="24.2079,7.76321,7.90264,7.76321,0,0,31.93,0" stroke-width="0"/>
   <polygon fill="#5E5B43" points="24.2079,24.1368,24.2079,7.76321,31.93,0,31.93,31.9" stroke-width="0"/>
   <polygon fill="#9A916C" points="0,31.9,7.87486,24.1368,24.2079,24.1368,31.93,31.9" stroke-width="0"/>
  </g>
  <g transform="translate(246.862,34.05)">
   <rect width="31.93" x="0" y="0" fill="#8D8C8C" height="31.9" id="connector6pin" stroke-width="0"/>
   <rect width="16.4442" x="7.79153" y="7.73544" fill="#8C8663" height="16.4152" stroke-width="0"/>
   <polygon fill="#B8AF82" points="0,31.9,7.79153,24.1368,7.79153,6.97162,0,0" stroke-width="0"/>
   <polygon fill="#80795B" points="24.2079,7.76321,7.90264,7.76321,0,0,31.93,0" stroke-width="0"/>
   <polygon fill="#5E5B43" points="24.2079,24.1368,24.2079,7.76321,31.93,0,31.93,31.9" stroke-width="0"/>
   <polygon fill="#9A916C" points="0,31.9,7.87486,24.1368,24.2079,24.1368,31.93,31.9" stroke-width="0"/>
  </g>
  <g transform="translate(346.861,734.05)">
   <rect width="31.93" x="0" y="0" fill="#8D8C8C" height="31.9" id="connector2pin" stroke-width="0"/>
   <rect width="16.4442" x="7.79153" y="7.73544" fill="#8C8663" height="16.4152" stroke-width="0"/>
   <polygon fill="#B8AF82" points="0,31.9,7.79153,24.1368,7.79153,6.97162,0,0" stroke-width="0"/>
   <polygon fill="#80795B" points="24.2079,7.76321,7.90264,7.76321,0,0,31.93,0" stroke-width="0"/>
   <polygon fill="#5E5B43" points="24.2079,24.1368,24.2079,7.76321,31.93,0,31.93,31.9" stroke-width="0"/>
   <polygon fill="#9A916C" points="0,31.9,7.87486,24.1368,24.2079,24.1368,31.93,31.9" stroke-width="0"/>
  </g>
  <g transform="translate(346.861,34.05)">
   <rect width="31.93" x="0" y="0" fill="#8D8C8C" height="31.9" id="connector5pin" stroke-width="0"/>
   <rect width="16.4442" x="7.79153" y="7.73544" fill="#8C8663" height="16.4152" stroke-width="0"/>
   <polygon fill="#B8AF82" points="0,31.9,7.79153,24.1368,7.79153,6.97162,0,0" stroke-width="0"/>
   <polygon fill="#80795B" points="24.2079,7.76321,7.90264,7.76321,0,0,31.93,0" stroke-width="0"/>
   <polygon fill="#5E5B43" points="24.2079,24.1368,24.2079,7.76321,31.93,0,31.93,31.9" stroke-width="0"/>
   <polygon fill="#9A916C" points="0,31.9,7.87486,24.1368,24.2079,24.1368,31.93,31.9" stroke-width="0"/>
  </g>
  <g transform="translate(446.862,734.05)">
   <rect width="31.93" x="0" y="0" fill="#8D8C8C" height="31.9" id="connector3pin" stroke-width="0"/>
   <rect width="16.4442" x="7.79153" y="7.73544" fill="#8C8663" height="16.4152" stroke-width="0"/>
   <polygon fill="#B8AF82" points="0,31.9,7.79153,24.1368,7.79153,6.97162,0,0" stroke-width="0"/>
   <polygon fill="#80795B" points="24.2079,7.76321,7.90264,7.76321,0,0,31.93,0" stroke-width="0"/>
   <polygon fill="#5E5B43" points="24.2079,24.1368,24.2079,7.76321,31.93,0,31.93,31.9" stroke-width="0"/>
   <polygon fill="#9A916C" points="0,31.9,7.87486,24.1368,24.2079,24.1368,31.93,31.9" stroke-width="0"/>
  </g>
  <g transform="translate(446.862,34.05)">
   <rect width="31.93" x="0" y="0" fill="#8D8C8C" height="31.9" id="connector4pin" stroke-width="0"/>
   <rect width="16.4442" x="7.79153" y="7.73544" fill="#8C8663" height="16.4152" stroke-width="0"/>
   <polygon fill="#B8AF82" points="0,31.9,7.79153,24.1368,7.79153,6.97162,0,0" stroke-width="0"/>
   <polygon fill="#80795B" points="24.2079,7.76321,7.90264,7.76321,0,0,31.93,0" stroke-width="0"/>
   <polygon fill="#5E5B43" points="24.2079,24.1368,24.2079,7.76321,31.93,0,31.93,31.9" stroke-width="0"/>
   <polygon fill="#9A916C" points="0,31.9,7.87486,24.1368,24.2079,24.1368,31.93,31.9" stroke-width="0"/>
  </g>
 </g>
 <text x="50" y="424.375" font-family="OCRA" fill="white" text-anchor="start" stroke="none" id="label" stroke-width="0" font-size="65"/>
 <g transform="translate(176.327,726.05)">
  <g transform="rotate(-90)">
   <text x="0" y="0" font-family="OCRA" fill="white" text-anchor="start" stroke="none" stroke-width="0" font-size="45"/>
  </g>
 </g>
 <g transform="translate(276.327,726.05)">
  <g transform="rotate(-90)">
   <text x="0" y="0" font-family="OCRA" fill="white" text-anchor="start" stroke="none" stroke-width="0" font-size="45"/>
  </g>
 </g>
 <g transform="translate(276.327,73.95)">
  <g transform="rotate(-90)">
   <text x="0" y="0" font-family="OCRA" fill="white" text-anchor="end" stroke="none" stroke-width="0" font-size="45"/>
  </g>
 </g>
 <g transform="translate(376.327,726.05)">
  <g transform="rotate(-90)">
   <text x="0" y="0" font-family="OCRA" fill="white" text-anchor="start" stroke="none" stroke-width="0" font-size="45"/>
  </g>
 </g>
 <g transform="translate(376.327,73.95)">
  <g transform="rotate(-90)">
   <text x="0" y="0" font-family="OCRA" fill="white" text-anchor="end" stroke="none" stroke-width="0" font-size="45"/>
  </g>
 </g>
 <g transform="translate(476.327,726.05)">
  <g transform="rotate(-90)">
   <text x="0" y="0" font-family="OCRA" fill="white" text-anchor="start" stroke="none" stroke-width="0" font-size="45"/>
  </g>
 </g>
 <g transform="translate(476.327,73.95)">
  <g transform="rotate(-90)">
   <text x="0" y="0" font-family="OCRA" fill="white" text-anchor="end" stroke="none" stroke-width="0" font-size="45"/>
  </g>
 </g>
</svg>
