<?xml version='1.0' encoding='UTF-8' standalone='no'?>
<!-- Created with Fritzing (http://www.fritzing.org/) -->
<svg width="0.748014in" x="0in" version="1.2" y="0in" xmlns="http://www.w3.org/2000/svg" height="1.2in" viewBox="0 0 748.014 1200" baseProfile="tiny" xmlns:svg="http://www.w3.org/2000/svg">
 <desc>Fritzing breadboard generated by brd2svg</desc>
 <g id="breadboard">
  <g id="icon">
   <path fill="#1F7A34" stroke="none" stroke-width="0" d="M0,0L0,570A30,30 0 0 1 0,630L0,1200L748.014,1200L748.014,0L0,0z"/>
   <g transform="translate(100,204.084)">
    <g stroke-width="0">
     <rect width="548.014" x="0" y="38.2083" fill="#1A1A1A" height="245.25" stroke-width="0"/>
     <g stroke-width="0">
      <g stroke-width="0">
       <rect width="548.014" x="0" y="271.833" fill="#1A1A1A" height="519.986" stroke-width="0"/>
       <rect width="134.569" x="206.722" y="765.819" fill="#333333" height="6.94444" stroke-width="0"/>
       <rect width="10.0139" x="521.778" y="479" height="80" stroke-width="0"/>
       <rect width="10" x="16.8889" y="479" height="80" stroke-width="0"/>
       <polygon points="403.153,318.417,144.889,318.417,144.889,359.736,26.2639,359.736,26.2639,678.264,144.889,678.264,144.889,682.542,144.889,719.597,206.722,719.597,206.722,772.764,341.306,772.764,341.306,719.597,403.125,719.597,403.125,682.542,403.153,682.542,403.153,678.264,521.778,678.264,521.778,359.736,403.153,359.736" stroke-width="0"/>
      </g>
      <rect width="548.014" x="0" y="785.389" height="6.29167" stroke-width="0"/>
      <rect width="5.56944" x="542.431" y="624.125" height="161.208" stroke-width="0"/>
      <rect width="548.014" opacity="0.42" x="0" y="271.833" fill="#CCCCCC" height="11.6389" enable-background="new    " stroke-width="0"/>
     </g>
     <g stroke-width="0">
      <g opacity="0.51" stroke-width="0">
       <g stroke-width="0">
        <rect width="17.3056" x="400.375" y="318.417" fill="#1A1A1A" height="245.833" stroke-width="0"/>
       </g>
       <g stroke-width="0">
        <rect width="17.3056" x="355.361" y="318.417" fill="#1A1A1A" height="245.833" stroke-width="0"/>
       </g>
       <g stroke-width="0">
        <rect width="17.3333" x="310.361" y="318.417" fill="#1A1A1A" height="245.833" stroke-width="0"/>
       </g>
       <g stroke-width="0">
        <rect width="17.3472" x="265.347" y="318.417" fill="#1A1A1A" height="245.833" stroke-width="0"/>
       </g>
       <g stroke-width="0">
        <rect width="17.3056" x="220.347" y="318.417" fill="#1A1A1A" height="245.833" stroke-width="0"/>
       </g>
       <g stroke-width="0">
        <rect width="17.3056" x="175.347" y="318.417" fill="#1A1A1A" height="245.833" stroke-width="0"/>
       </g>
       <g stroke-width="0">
        <rect width="17.3056" x="130.333" y="318.417" fill="#1A1A1A" height="245.833" stroke-width="0"/>
       </g>
      </g>
      <g opacity="0.61" stroke-width="0">
       <g stroke-width="0">
        <g stroke-width="0">
         <rect width="17.3333" x="378.097" y="318.417" fill="#B5751F" height="207.264" stroke-width="0"/>
        </g>
        <g stroke-width="0">
         <rect width="17.3333" x="333.083" y="318.417" fill="#B5751F" height="207.264" stroke-width="0"/>
        </g>
        <g stroke-width="0">
         <rect width="17.3056" x="288.083" y="318.417" fill="#B5751F" height="207.264" stroke-width="0"/>
        </g>
        <g stroke-width="0">
         <rect width="17.3056" x="243.069" y="318.417" fill="#B5751F" height="207.264" stroke-width="0"/>
        </g>
        <g stroke-width="0">
         <rect width="17.3333" x="198.069" y="318.417" fill="#B5751F" height="207.264" stroke-width="0"/>
        </g>
        <g stroke-width="0">
         <rect width="17.3333" x="153.069" y="318.417" fill="#B5751F" height="207.264" stroke-width="0"/>
        </g>
       </g>
       <g stroke-width="0">
        <g stroke-width="0">
         <rect width="10.5" x="381.514" y="318.417" fill="#C4914C" height="207.264" stroke-width="0"/>
        </g>
        <g stroke-width="0">
         <rect width="10.5" x="336.514" y="318.417" fill="#C4914C" height="207.264" stroke-width="0"/>
        </g>
        <g stroke-width="0">
         <rect width="10.5278" x="291.472" y="318.417" fill="#C4914C" height="207.264" stroke-width="0"/>
        </g>
        <g stroke-width="0">
         <rect width="10.5278" x="246.472" y="318.417" fill="#C4914C" height="207.264" stroke-width="0"/>
        </g>
        <g stroke-width="0">
         <rect width="10.5278" x="201.458" y="318.417" fill="#C4914C" height="207.264" stroke-width="0"/>
        </g>
        <g stroke-width="0">
         <rect width="10.5" x="156.486" y="318.417" fill="#C4914C" height="207.264" stroke-width="0"/>
        </g>
       </g>
       <g stroke-width="0">
        <g stroke-width="0">
         <rect width="5.20833" x="384.153" y="318.417" fill="#D3AC79" height="207.264" stroke-width="0"/>
        </g>
        <g stroke-width="0">
         <rect width="5.20833" x="339.139" y="318.417" fill="#D3AC79" height="207.264" stroke-width="0"/>
        </g>
        <g stroke-width="0">
         <rect width="5.25" x="294.125" y="318.417" fill="#D3AC79" height="207.264" stroke-width="0"/>
        </g>
        <g stroke-width="0">
         <rect width="5.23611" x="249.125" y="318.417" fill="#D3AC79" height="207.264" stroke-width="0"/>
        </g>
        <g stroke-width="0">
         <rect width="5.20833" x="204.125" y="318.417" fill="#D3AC79" height="207.264" stroke-width="0"/>
        </g>
        <g stroke-width="0">
         <rect width="5.20833" x="159.125" y="318.417" fill="#D3AC79" height="207.264" stroke-width="0"/>
        </g>
       </g>
      </g>
     </g>
     <g stroke-width="0">
      <g opacity="0.61" stroke-width="0">
       <g stroke-width="0">
        <g stroke-width="0">
         <rect width="7.40278" x="388.028" y="7.54167" fill="#B5751F" height="245.875" stroke-width="0"/>
        </g>
        <g stroke-width="0">
         <rect width="7.38889" x="343.028" y="7.54167" fill="#B5751F" height="245.875" stroke-width="0"/>
        </g>
        <g stroke-width="0">
         <rect width="7.40278" x="297.986" y="7.54167" fill="#B5751F" height="245.875" stroke-width="0"/>
        </g>
        <g stroke-width="0">
         <rect width="7.40278" x="252.986" y="7.54167" fill="#B5751F" height="245.875" stroke-width="0"/>
        </g>
        <g stroke-width="0">
         <rect width="7.40278" x="208.014" y="7.54167" fill="#B5751F" height="245.875" stroke-width="0"/>
        </g>
        <g stroke-width="0">
         <rect width="7.40278" x="163" y="7.54167" fill="#B5751F" height="245.875" stroke-width="0"/>
        </g>
       </g>
       <g stroke-width="0">
        <g stroke-width="0">
         <rect width="3.98611" x="388.028" y="7.54167" fill="#C4914C" height="245.875" stroke-width="0"/>
        </g>
        <g stroke-width="0">
         <rect width="3.98611" x="343.014" y="7.54167" fill="#C4914C" height="245.875" stroke-width="0"/>
        </g>
        <g stroke-width="0">
         <rect width="4" x="298" y="7.54167" fill="#C4914C" height="245.875" stroke-width="0"/>
        </g>
        <g stroke-width="0">
         <rect width="4" x="252.986" y="7.54167" fill="#C4914C" height="245.875" stroke-width="0"/>
        </g>
        <g stroke-width="0">
         <rect width="4" x="207.986" y="7.54167" fill="#C4914C" height="245.875" stroke-width="0"/>
        </g>
        <g stroke-width="0">
         <rect width="4" x="162.986" y="7.54167" fill="#C4914C" height="245.875" stroke-width="0"/>
        </g>
       </g>
       <g stroke-width="0">
        <g stroke-width="0">
         <rect width="2.01389" x="387.375" y="7.54167" fill="#D3AC79" height="245.875" stroke-width="0"/>
        </g>
        <g stroke-width="0">
         <rect width="2" x="342.361" y="7.54167" fill="#D3AC79" height="245.875" stroke-width="0"/>
        </g>
        <g stroke-width="0">
         <rect width="2" x="297.375" y="7.54167" fill="#D3AC79" height="245.875" stroke-width="0"/>
        </g>
        <g stroke-width="0">
         <rect width="2" x="252.361" y="7.54167" fill="#D3AC79" height="245.875" stroke-width="0"/>
        </g>
        <g stroke-width="0">
         <rect width="2" x="207.333" y="7.54167" fill="#D3AC79" height="245.875" stroke-width="0"/>
        </g>
        <g stroke-width="0">
         <rect width="2" x="162.333" y="7.54167" fill="#D3AC79" height="245.875" stroke-width="0"/>
        </g>
       </g>
      </g>
     </g>
     <g opacity="0.58" stroke-width="0">
      <g stroke-width="0">
       <g stroke-width="0">
        <rect width="17.3333" x="378.097" y="7.54167" height="246.819" stroke-width="0"/>
       </g>
       <g stroke-width="0">
        <rect width="17.3333" x="333.083" y="7.54167" height="246.819" stroke-width="0"/>
       </g>
       <g stroke-width="0">
        <rect width="17.3056" x="288.083" y="7.54167" height="246.819" stroke-width="0"/>
       </g>
       <g stroke-width="0">
        <rect width="17.3056" x="243.069" y="7.54167" height="246.819" stroke-width="0"/>
       </g>
       <g stroke-width="0">
        <rect width="17.3333" x="198.069" y="7.54167" height="246.819" stroke-width="0"/>
       </g>
       <g stroke-width="0">
        <rect width="17.3333" x="153.069" y="7.54167" height="246.819" stroke-width="0"/>
       </g>
      </g>
      <g stroke-width="0">
       <rect width="3.41667" x="153.069" y="7.54167" fill="#4D4D4D" height="246.819" stroke-width="0"/>
      </g>
      <g stroke-width="0">
       <rect width="3.41667" x="197.292" y="7.54167" fill="#4D4D4D" height="246.819" stroke-width="0"/>
      </g>
      <g stroke-width="0">
       <rect width="3.41667" x="243.056" y="7.54167" fill="#4D4D4D" height="246.819" stroke-width="0"/>
      </g>
      <g stroke-width="0">
       <rect width="3.41667" x="288.083" y="7.54167" fill="#4D4D4D" height="246.819" stroke-width="0"/>
      </g>
      <g stroke-width="0">
       <rect width="3.41667" x="333.083" y="7.54167" fill="#4D4D4D" height="246.819" stroke-width="0"/>
      </g>
      <g stroke-width="0">
       <rect width="3.41667" x="378.097" y="7.54167" fill="#4D4D4D" height="246.819" stroke-width="0"/>
      </g>
     </g>
     <rect width="41.3611" opacity="0.16" x="0" y="0.0138889" fill="#B3B3B3" height="271.806" enable-background="new    " stroke-width="0"/>
     <rect width="41.375" x="506.097" opacity="0.52" y="0.0138889" height="271.806" enable-background="new    " stroke-width="0"/>
     <rect width="0.5" x="153.139" y="7.54167" fill="#999999" height="246.819" stroke-width="0"/>
     <rect width="0.5" x="197.042" y="7.54167" fill="#999999" height="246.819" stroke-width="0"/>
     <rect width="0.5" x="242.819" y="7.54167" fill="#999999" height="246.819" stroke-width="0"/>
     <rect width="0.5" x="287.819" y="7.54167" fill="#999999" height="246.819" stroke-width="0"/>
     <rect width="0.5" x="332.847" y="7.54167" fill="#999999" height="246.819" stroke-width="0"/>
     <rect width="0.5" x="377.861" y="7.54167" fill="#999999" height="246.819" stroke-width="0"/>
     <rect width="548.014" opacity="0.96" x="0" y="0.0138889" fill="#333333" height="38.1944" enable-background="new    " stroke-width="0"/>
     <rect width="548.014" opacity="0.76" x="0" y="38.2083" fill="#1A1A1A" height="245.25" enable-background="new    " stroke-width="0"/>
    </g>
   </g>
  </g>
  <g transform="translate(258.042,1134.05)">
   <rect width="31.93" x="0" y="0" fill="#8D8C8C" height="31.9" id="connector0pin" stroke-width="0"/>
   <rect width="16.4442" x="7.79153" y="7.73544" fill="#8C8663" height="16.4152" stroke-width="0"/>
   <polygon fill="#B8AF82" points="0,31.9,7.79153,24.1368,7.79153,6.97162,0,0" stroke-width="0"/>
   <polygon fill="#80795B" points="24.2079,7.76321,7.90264,7.76321,0,0,31.93,0" stroke-width="0"/>
   <polygon fill="#5E5B43" points="24.2079,24.1368,24.2079,7.76321,31.93,0,31.93,31.9" stroke-width="0"/>
   <polygon fill="#9A916C" points="0,31.9,7.87486,24.1368,24.2079,24.1368,31.93,31.9" stroke-width="0"/>
  </g>
  <g transform="translate(258.042,34.05)">
   <rect width="31.93" x="0" y="0" fill="#8D8C8C" height="31.9" id="connector5pin" stroke-width="0"/>
   <rect width="16.4442" x="7.79153" y="7.73544" fill="#8C8663" height="16.4152" stroke-width="0"/>
   <polygon fill="#B8AF82" points="0,31.9,7.79153,24.1368,7.79153,6.97162,0,0" stroke-width="0"/>
   <polygon fill="#80795B" points="24.2079,7.76321,7.90264,7.76321,0,0,31.93,0" stroke-width="0"/>
   <polygon fill="#5E5B43" points="24.2079,24.1368,24.2079,7.76321,31.93,0,31.93,31.9" stroke-width="0"/>
   <polygon fill="#9A916C" points="0,31.9,7.87486,24.1368,24.2079,24.1368,31.93,31.9" stroke-width="0"/>
  </g>
  <g transform="translate(358.042,1134.05)">
   <rect width="31.93" x="0" y="0" fill="#8D8C8C" height="31.9" id="connector1pin" stroke-width="0"/>
   <rect width="16.4442" x="7.79153" y="7.73544" fill="#8C8663" height="16.4152" stroke-width="0"/>
   <polygon fill="#B8AF82" points="0,31.9,7.79153,24.1368,7.79153,6.97162,0,0" stroke-width="0"/>
   <polygon fill="#80795B" points="24.2079,7.76321,7.90264,7.76321,0,0,31.93,0" stroke-width="0"/>
   <polygon fill="#5E5B43" points="24.2079,24.1368,24.2079,7.76321,31.93,0,31.93,31.9" stroke-width="0"/>
   <polygon fill="#9A916C" points="0,31.9,7.87486,24.1368,24.2079,24.1368,31.93,31.9" stroke-width="0"/>
  </g>
  <g transform="translate(358.042,34.05)">
   <rect width="31.93" x="0" y="0" fill="#8D8C8C" height="31.9" id="connector4pin" stroke-width="0"/>
   <rect width="16.4442" x="7.79153" y="7.73544" fill="#8C8663" height="16.4152" stroke-width="0"/>
   <polygon fill="#B8AF82" points="0,31.9,7.79153,24.1368,7.79153,6.97162,0,0" stroke-width="0"/>
   <polygon fill="#80795B" points="24.2079,7.76321,7.90264,7.76321,0,0,31.93,0" stroke-width="0"/>
   <polygon fill="#5E5B43" points="24.2079,24.1368,24.2079,7.76321,31.93,0,31.93,31.9" stroke-width="0"/>
   <polygon fill="#9A916C" points="0,31.9,7.87486,24.1368,24.2079,24.1368,31.93,31.9" stroke-width="0"/>
  </g>
  <g transform="translate(458.042,1134.05)">
   <rect width="31.93" x="0" y="0" fill="#8D8C8C" height="31.9" id="connector2pin" stroke-width="0"/>
   <rect width="16.4442" x="7.79153" y="7.73544" fill="#8C8663" height="16.4152" stroke-width="0"/>
   <polygon fill="#B8AF82" points="0,31.9,7.79153,24.1368,7.79153,6.97162,0,0" stroke-width="0"/>
   <polygon fill="#80795B" points="24.2079,7.76321,7.90264,7.76321,0,0,31.93,0" stroke-width="0"/>
   <polygon fill="#5E5B43" points="24.2079,24.1368,24.2079,7.76321,31.93,0,31.93,31.9" stroke-width="0"/>
   <polygon fill="#9A916C" points="0,31.9,7.87486,24.1368,24.2079,24.1368,31.93,31.9" stroke-width="0"/>
  </g>
  <g transform="translate(458.042,34.05)">
   <rect width="31.93" x="0" y="0" fill="#8D8C8C" height="31.9" id="connector3pin" stroke-width="0"/>
   <rect width="16.4442" x="7.79153" y="7.73544" fill="#8C8663" height="16.4152" stroke-width="0"/>
   <polygon fill="#B8AF82" points="0,31.9,7.79153,24.1368,7.79153,6.97162,0,0" stroke-width="0"/>
   <polygon fill="#80795B" points="24.2079,7.76321,7.90264,7.76321,0,0,31.93,0" stroke-width="0"/>
   <polygon fill="#5E5B43" points="24.2079,24.1368,24.2079,7.76321,31.93,0,31.93,31.9" stroke-width="0"/>
   <polygon fill="#9A916C" points="0,31.9,7.87486,24.1368,24.2079,24.1368,31.93,31.9" stroke-width="0"/>
  </g>
 </g>
 <text x="50" y="624.375" font-family="OCRA" fill="white" text-anchor="start" stroke="none" id="label" stroke-width="0" font-size="65">RJ11-6</text>
 <g transform="translate(287.507,1126.05)">
  <g transform="rotate(-90)">
   <text x="0" y="0" font-family="OCRA" fill="white" text-anchor="start" stroke="none" stroke-width="0" font-size="45">1</text>
  </g>
 </g>
 <g transform="translate(287.507,73.95)">
  <g transform="rotate(-90)">
   <text x="0" y="0" font-family="OCRA" fill="white" text-anchor="end" stroke="none" stroke-width="0" font-size="45">6</text>
  </g>
 </g>
 <g transform="translate(387.507,1126.05)">
  <g transform="rotate(-90)">
   <text x="0" y="0" font-family="OCRA" fill="white" text-anchor="start" stroke="none" stroke-width="0" font-size="45">2</text>
  </g>
 </g>
 <g transform="translate(387.507,73.95)">
  <g transform="rotate(-90)">
   <text x="0" y="0" font-family="OCRA" fill="white" text-anchor="end" stroke="none" stroke-width="0" font-size="45">5</text>
  </g>
 </g>
 <g transform="translate(487.507,1126.05)">
  <g transform="rotate(-90)">
   <text x="0" y="0" font-family="OCRA" fill="white" text-anchor="start" stroke="none" stroke-width="0" font-size="45">3</text>
  </g>
 </g>
 <g transform="translate(487.507,73.95)">
  <g transform="rotate(-90)">
   <text x="0" y="0" font-family="OCRA" fill="white" text-anchor="end" stroke="none" stroke-width="0" font-size="45">4</text>
  </g>
 </g>
</svg>
