<?xml version='1.0' encoding='UTF-8' standalone='no'?>
<!-- Created with Fritzing (http://www.fritzing.org/) -->
<svg width="0.428326in" x="0in" version="1.2" y="0in" xmlns="http://www.w3.org/2000/svg" height="0.8in" viewBox="0 0 428.327 800" baseProfile="tiny" xmlns:svg="http://www.w3.org/2000/svg">
 <desc>Fritzing breadboard generated by brd2svg</desc>
 <g id="breadboard">
  <g id="icon">
   <path fill="#1F7A34" stroke="none" stroke-width="0" d="M0,0L0,370A30,30 0 0 1 0,430L0,800L428.327,800L428.327,0L0,0z"/>
   <g transform="translate(-14.1632,-1.396)">
    <g transform="matrix(0.5, 0, 0, 0.5, 114.163, 200.698)">
     <g stroke-width="0">
      <path fill="#808080" stroke-width="0" d="M67.1389,61.4861c-6.875,0,-12.5,5.59722,-12.5,12.4444l0,731.694c0,6.86111,5.625,12.4583,12.5,12.4583l431.694,0c6.88889,0,12.4722,-5.59722,12.4722,-12.4583L511.306,73.9583c0,-6.86111,-5.58333,-12.4583,-12.4722,-12.4583L67.1389,61.4861L67.1389,61.4861z"/>
      <path fill="#E6E6E6" stroke-width="0" d="M70.5,672.597c-6.875,0,-12.5,5.58333,-12.5,12.4444l0,114.986c0,6.88889,5.625,12.4722,12.5,12.4722l425.014,0c6.86111,0,12.4722,-5.58333,12.4722,-12.4722l0,-114.986c0,-6.84722,-5.61111,-12.4444,-12.4722,-12.4444L70.5,672.597z"/>
      <g stroke-width="0">
       <g stroke-width="0">
        <rect width="31.25" x="131.958" y="311.194" fill="#666666" height="478.681" stroke-width="0"/>
       </g>
       <g stroke-width="0">
        <rect width="31.25" x="223.958" y="311.194" fill="#666666" height="478.681" stroke-width="0"/>
       </g>
       <g stroke-width="0">
        <rect width="31.25" x="315.972" y="311.194" fill="#666666" height="478.681" stroke-width="0"/>
       </g>
       <g stroke-width="0">
        <rect width="31.25" x="407.958" y="311.194" fill="#666666" height="478.681" stroke-width="0"/>
       </g>
      </g>
      <g stroke-width="0">
       <g stroke-width="0">
        <rect width="31.25" x="128.486" y="311.194" fill="#999999" height="478.681" stroke-width="0"/>
       </g>
       <g stroke-width="0">
        <rect width="31.25" x="220.486" y="311.194" fill="#999999" height="478.681" stroke-width="0"/>
       </g>
       <g stroke-width="0">
        <rect width="31.25" x="312.5" y="311.194" fill="#999999" height="478.681" stroke-width="0"/>
       </g>
       <g stroke-width="0">
        <rect width="31.25" x="404.486" y="311.194" fill="#999999" height="478.681" stroke-width="0"/>
       </g>
      </g>
      <rect width="456.681" x="54.6528" y="663.222" fill="#CCCCCC" height="58.1667" stroke-width="0"/>
      <g stroke-width="0">
       <g stroke-width="0">
        <rect width="31.25" x="128.486" y="15.3056" fill="#999999" height="46.1806" stroke-width="0"/>
       </g>
       <g stroke-width="0">
        <rect width="31.25" x="220.486" y="15.3056" fill="#999999" height="46.1806" stroke-width="0"/>
       </g>
       <g stroke-width="0">
        <rect width="31.25" x="312.5" y="15.3056" fill="#999999" height="46.1806" stroke-width="0"/>
       </g>
       <g stroke-width="0">
        <rect width="31.25" x="404.486" y="15.3056" fill="#999999" height="46.1806" stroke-width="0"/>
       </g>
      </g>
      <rect width="385.417" x="100.097" y="458.486" fill="#666666" height="24.875" stroke-width="0"/>
      <path fill="#CCCCCC" stroke-width="0" d="M67.8056,61.4861c-7.23611,0,-13.1528,5.93056,-13.1528,13.1389l0,627.611c0,7.23611,5.91667,13.1528,13.1528,13.1528l430.361,0c7.23611,0,13.125,-5.94444,13.125,-13.1528L511.292,74.6528c0,-7.23611,-5.94444,-13.1389,-13.125,-13.1389L67.8056,61.4861L67.8056,61.4861zM202.139,548.097c0,7.23611,-5.94444,13.1806,-13.1806,13.1806L125.292,561.278c-7.23611,0,-13.1389,-5.95833,-13.1389,-13.1806l0,-54.2222c0,-7.23611,5.93056,-13.1528,13.1389,-13.1528l63.6667,0c7.23611,0,13.1528,5.95833,13.1528,13.1528l0,54.2222L202.139,548.097zM453.875,548.097c0,7.23611,-5.94444,13.1806,-13.1806,13.1806l-63.6667,0c-7.23611,0,-13.125,-5.95833,-13.125,-13.1806l0,-54.2222c0,-7.23611,5.91667,-13.1528,13.125,-13.1528l63.6667,0c7.23611,0,13.1528,5.95833,13.1528,13.1528l0,54.2222L453.875,548.097z"/>
      <polygon fill="#E6E6E6" points="331.208,246.958,234.806,246.958,250.861,149.736,315.125,149.736" stroke-width="0"/>
      <polygon fill="#B3B3B3" points="250.861,149.736,234.806,246.958,239.583,246.958,253.736,149.736" stroke-width="0"/>
      <path fill="#F2F2F2" stroke-width="0" d="M328.125,228.278l3.09722,18.6944l-96.3889,0l0.291667,-1.70833C235.056,245.25,326.361,240.278,328.125,228.278z"/>
      <path fill="#E6E6E6" stroke-width="0" d="M54.6528,721.347c0,0,0,-633.764,0,-644.097c0,-11.4861,5.5,-15.7917,12.4861,-15.7917s289.597,0,289.597,0s-101.528,4.34722,-132.778,4.34722c-83.0417,0,-137.472,10.4167,-148.75,13.8889C49.1389,87.7361,75.6667,545.347,67.8194,715.417C67.6944,718.361,67.8056,715.431,54.6528,721.347z"/>
      <path fill="#B3B3B3" stroke-width="0" d="M511.333,120.222c0,61.3472,0,622.403,0,622.403s1.38889,-27.1528,-12.4722,-27.1528c4.61111,-33.1528,-0.0277778,-646.694,-0.0277778,-646.694S511.333,58.8889,511.333,120.222z"/>
      <path fill="#808080" stroke-width="0" d="M498.833,722.375c3.09722,0,5.52778,2.5,5.52778,5.52778l0,77.7222c0,3.09722,-2.5,5.51389,-5.52778,5.51389L67.1389,811.139c-3.08333,0,-5.55556,-2.5,-5.55556,-5.51389L61.5833,727.917c0,-3.08333,2.52778,-5.52778,5.55556,-5.52778L498.833,722.375M498.833,715.431L67.1389,715.431c-6.875,0,-12.5,5.58333,-12.5,12.4722l0,77.7222c0,6.86111,5.625,12.4583,12.5,12.4583l431.694,0c6.88889,0,12.4722,-5.59722,12.4722,-12.4583L511.306,727.917C511.333,721.056,505.722,715.431,498.833,715.431L498.833,715.431z"/>
      <path fill="#CCCCCC" stroke-width="0" d="M128.486,15.3056l0,46.1806l3,0c0,0,0.0833333,-28.9444,0,-42.1528c0,-2.61111,25.75,1.16667,28.25,-0.236111L159.736,15.3056L134.528,15.3056l0,0l0,0l0,0L128.486,15.3056z"/>
      <path fill="#CCCCCC" stroke-width="0" d="M220.486,15.3056l0,46.1806l3,0c0,0,0.0694444,-28.9444,0,-42.1528c-0.0138889,-2.61111,25.75,1.16667,28.25,-0.25L251.736,15.3056L226.528,15.3056l0,0l0,0l0,0L220.486,15.3056z"/>
      <path fill="#808080" stroke-width="0" d="M343.75,15.3056l0,46.1806l-3.01389,0c0,0,-0.0694444,-28.9444,0,-42.1528c0.0277778,-2.61111,-3.06944,-4.02778,-3.06944,-4.02778l0,0l0,0l0,0L343.75,15.3056z"/>
      <path fill="#808080" stroke-width="0" d="M435.736,15.3056l0,46.1806l-2.98611,0c0,0,-0.111111,-28.9444,0,-42.1528c0,-2.61111,-3.09722,-4.02778,-3.09722,-4.02778l0,0l0,0l0,0L435.736,15.3056z"/>
     </g>
    </g>
   </g>
   <text x="50" y="424.375" font-family="OCRA" fill="white" text-anchor="start" stroke="none" id="label" stroke-width="0" font-size="65">USB-A-H</text>
  </g>
 </g>
</svg>
