<?xml version="1.0" encoding="utf-8"?>
<!-- Generator: Adobe Illustrator 15.1.0, SVG Export Plug-In . SVG Version: 6.00 Build 0)  -->
<!DOCTYPE svg PUBLIC "-//W3C//DTD SVG 1.1//EN" "http://www.w3.org/Graphics/SVG/1.1/DTD/svg11.dtd">
<svg version="1.1" id="Layer_1" xmlns="http://www.w3.org/2000/svg" xmlns:xlink="http://www.w3.org/1999/xlink" x="0px" y="0px"
	 width="28.348px" height="68.337px" viewBox="0 -13.233 28.348 68.337" enable-background="new 0 -13.233 28.348 68.337"
	 xml:space="preserve">
<g id="breadboard">
	<rect id="connector0pin" x="10.104" y="25.421" fill="none" width="2.152" height="0.722"/>
	<rect id="connector1pin" x="17.303" y="25.421" fill="none" width="2.154" height="0.722"/>
	
		<line id="connector0leg" fill="none" stroke="#8C8C8C" stroke-width="2.988" stroke-linecap="round" x1="11.18" y1="29.207" x2="11.18" y2="53.822"/>
	
		<line id="connector1leg" fill="none" stroke="#8C8C8C" stroke-width="2.988" stroke-linecap="round" x1="18.381" y1="29.207" x2="18.381" y2="53.822"/>
	<rect x="10.104" y="19.38" fill="#8C8C8C" width="2.15" height="9.827"/>
	<path fill="#8C8C8C" d="M19.457,29.207c0-1.174-1.064-2.104-2.089-2.991c-0.416-0.366-1.198-1.002-1.198-1.425V19.32h-2.162V25.1
		c0,1.059,0.947,1.879,1.946,2.748c0.443,0.377,1.349,1.25,1.349,1.771"/>
	<g id="g12">
		<path id="color_path14" opacity="0.3" fill="#FFFFFF" enable-background="new    " d="M25.992,10.61V-0.233
			c0-7.175-5.81-13-12.993-13C5.822-13.233,0-7.42,0-0.233v25.029c2.704,3.03,7.514,5.051,12.999,5.051
			c8.472,0,15.349-4.802,15.349-10.746v-2.794C28.346,14.212,27.478,12.264,25.992,10.61z"/>
		<path id="path16" opacity="0.5" fill="#E6E6E6" enable-background="new    " d="M25.992,10.61V-0.233c0-7.175-5.81-13-12.993-13
			C5.822-13.233,0-7.42,0-0.233v25.029c2.704,3.03,7.514,5.051,12.999,5.051c8.472,0,15.349-4.802,15.349-10.746v-2.794
			C28.346,14.212,27.478,12.264,25.992,10.61z"/>
		<path id="path18" opacity="0.9" fill="#D1D1D1" enable-background="new    " d="M25.992,10.61v5.694
			c0,5.025-5.806,9.108-12.993,9.108C5.822,25.412,0,21.34,0,16.304v5.695v2.794c2.704,3.03,7.514,5.05,12.999,5.05
			c8.472,0,15.349-4.801,15.349-10.745v-2.794C28.346,14.212,27.478,12.264,25.992,10.61z"/>
		<path id="color_path20" opacity="0.7" fill="#808080" enable-background="new    " d="M25.992,10.61v5.694
			c0,5.025-5.806,9.108-12.993,9.108C5.822,25.412,0,21.34,0,16.304v5.695v2.794c2.704,3.03,7.514,5.05,12.999,5.05
			c8.472,0,15.349-4.801,15.349-10.745v-2.794C28.346,14.212,27.478,12.264,25.992,10.61z"/>
		<path id="color_path22" opacity="0.25" fill="#CCCCCC" enable-background="new    " d="M25.992,10.61v5.694
			c0,5.025-5.806,9.108-12.993,9.108C5.822,25.412,0,21.34,0,16.304v5.695c2.704,3.026,7.514,5.049,12.999,5.049
			c8.472,0,15.349-4.802,15.349-10.744C28.346,14.212,27.478,12.264,25.992,10.61z"/>
		
			<ellipse id="ellipse24" opacity="0.25" fill="#E6E6E6" enable-background="new    " cx="12.999" cy="16.304" rx="12.997" ry="9.098"/>
		
			<ellipse id="color_ellipse26" opacity="0.25" fill="#808080" enable-background="new    " cx="12.999" cy="16.304" rx="12.997" ry="9.098"/>
		<polygon id="polygon28" fill="#666666" points="4.041,4.46 4.041,16.307 5.861,16.307 5.861,10.781 11.033,10.781 18.361,2.913 
			6.249,2.913 		"/>
		<polygon id="polygon30" fill="#666666" points="19.769,2.399 20.565,3.335 13.594,10.781 20.285,10.781 20.285,16.307 
			21.961,16.307 21.961,2.399 		"/>
		<path id="color_path32" opacity="0.65" fill="#E6E6E6" enable-background="new    " d="M25.992,10.61V-0.233
			c0-7.175-5.81-13-12.993-13C5.822-13.233,0-7.42,0-0.233v25.029c2.704,3.03,7.514,5.051,12.999,5.051
			c8.472,0,15.349-4.802,15.349-10.746v-2.794C28.346,14.212,27.478,12.264,25.992,10.61z"/>
		<path id="path34" opacity="0.5" fill="#FFFFFF" enable-background="new    " d="M19.053-6.349l2.635-0.5
			c-1.546-2.076-3.82-3.589-6.496-4.104l0.466,1.982C17.056-8.476,18.235-7.542,19.053-6.349z"/>
		<path id="path36" opacity="0.5" fill="#FFFFFF" enable-background="new    " d="M1.409,23.313V26.1
			c1.19,0.971,2.63,1.791,4.233,2.415v-2.798C4.029,25.101,2.603,24.282,1.409,23.313z"/>
		<path id="path38" opacity="0.5" fill="#FFFFFF" enable-background="new    " d="M20.308,23.831
			c-0.467,0.224-0.972,0.421-1.478,0.605c-0.109,0.037-0.215,0.073-0.327,0.105c-1.033,0.329-2.13,0.586-3.292,0.726
			c-0.137,0.018-0.276,0.037-0.413,0.037c-0.586,0.054-1.181,0.107-1.78,0.107c-0.271,0-0.563-0.028-0.866-0.043
			c-2.2-0.105-4.274-0.576-6.046-1.354V8.627v-8.855c0-2.697,1.555-5.005,3.803-6.141l-0.04-0.1L7.58-9.241
			c-3.061,1.839-5.114,5.177-5.114,9.01v21.833c-0.092-0.09-0.567-0.566-0.881-0.972L1.02,21.892c2.569,2.717,6.986,4.517,12,4.517
			c3.081,0,5.937-0.687,8.271-1.841l-0.963-0.747C20.308,23.831,20.308,23.831,20.308,23.831z"/>
	</g>
</g>
</svg>
