<?xml version='1.0' encoding='UTF-8' standalone='no'?>
<!-- Created with Fritzing (http://www.fritzing.org/) -->
<svg width="0.76in" x="0in" version="1.2" y="0in" xmlns="http://www.w3.org/2000/svg" height="1in" viewBox="0 0 760 1000" baseProfile="tiny" xmlns:svg="http://www.w3.org/2000/svg">
 <desc>Fritzing breadboard generated by brd2svg</desc>
 <g id="breadboard">
  <g id="icon">
   <path fill="#1F7A34" stroke="none" stroke-width="0" d="M0,0L0,470A30,30 0 0 1 0,530L0,1000L760,1000L760,0L0,0z"/>
   <g transform="translate(100,240.007)">
    <g stroke-width="0">
     <g stroke-width="0">
      <g stroke-width="0">
       <g stroke-width="0">
        <path fill="#B0B0B0" stroke-width="0" d="M560,531.792l-13.8889,0c0,-5.33333,-1.05556,-13.1111,-1.51389,-14.0556c-1.58333,-2.36111,-6.41667,-3.70833,-13.8472,-3.70833l0,-13.8889c4.63889,0,18.7639,0,25.4861,10.0139C558.472,513.486,560,523.375,560,531.792z"/>
       </g>
      </g>
      <g stroke-width="0">
       <path fill="#8F8F8F" stroke-width="0" d="M552.361,506.083c-7.26389,-5.86111,-17.7361,-5.94444,-21.6389,-5.94444l0,13.8889c5.51389,0,9.58333,0.75,11.9722,2.08333C545.833,510.944,548.444,508.153,552.361,506.083z"/>
      </g>
     </g>
     <g stroke-width="0">
      <g stroke-width="0">
       <g stroke-width="0">
        <path fill="#B0B0B0" stroke-width="0" d="M560,-11.8194l-13.8889,0c0,5.33333,-1.05556,13.1389,-1.51389,14.0556c-1.58333,2.36111,-6.41667,3.72222,-13.8472,3.72222l0,13.8889c4.63889,0,18.7639,0,25.4861,-10.0278C558.472,6.48611,560,-3.41667,560,-11.8194z"/>
       </g>
      </g>
      <g stroke-width="0">
       <path fill="#8F8F8F" stroke-width="0" d="M552.361,13.8889c-7.26389,5.86111,-17.7361,5.95833,-21.6389,5.95833l0,-13.8889c5.51389,0,9.58333,-0.763889,11.9722,-2.09722C545.833,9.02778,548.444,11.8194,552.361,13.8889z"/>
      </g>
     </g>
    </g>
    <g stroke-width="0">
     <polygon fill="#7A7A7A" points="536.292,497.833,560,497.833,560,22.1389,536.292,22.1389,536.292,-0.0138889,0,-0.0138889,0,519.986,536.292,519.986" stroke-width="0"/>
     <g stroke-width="0">
      <path stroke-width="0" d="M206.319,58.6389c0,-5.43056,3.5,-9.63889,7.69444,-9.09722l287.319,39.0833c4.23611,0.736111,7.68056,5.48611,7.68056,11.0417l0,61.8194c0,5.52778,-3.51389,10.5417,-7.68056,11.0972L214.028,211.556c-4.22222,0.694444,-7.70833,-3.54167,-7.70833,-8.98611l0,-9.11111c0,-5.5,3.5,-10.4722,7.70833,-11.0556l241.472,-29.4167c4.26389,-0.472222,7.72222,-5.18056,7.72222,-11L463.222,119.014c0,-5.30556,-3.5,-10.5417,-7.72222,-11.0556L214.042,78.6944c-4.22222,-0.652778,-7.70833,-5.18056,-7.70833,-11.0556L206.319,58.6389L206.319,58.6389z"/>
      <g stroke-width="0">
       <polygon fill="none" points="463.042,152.25,463.042,109.042,440.375,106.5,440.375,154.486" stroke-width="0"/>
       <polygon fill="#939393" points="440.375,106.5,463.042,109.042,463.042,152.25,440.375,154.486" stroke-width="0"/>
       <polygon fill="#666666" points="440.375,106.5,430.875,105.333,430.875,155.833,440.375,154.486" stroke-width="0"/>
      </g>
     </g>
     <g stroke-width="0">
      <path stroke-width="0" d="M206.319,317.417c0,-5.43056,3.5,-9.625,7.69444,-9.08333l287.319,39.0833c4.23611,0.736111,7.68056,5.48611,7.68056,11.0417l0,61.8194c0,5.52778,-3.51389,10.5556,-7.68056,11.0972L214.028,470.333c-4.22222,0.708333,-7.70833,-3.55556,-7.70833,-8.98611L206.319,452.222c0,-5.5,3.5,-10.4722,7.70833,-11.0556l241.472,-29.4028c4.26389,-0.472222,7.72222,-5.18056,7.72222,-11.0139l0,-22.9444c0,-5.31944,-3.5,-10.5556,-7.72222,-11.0694l-241.458,-29.25c-4.22222,-0.652778,-7.70833,-5.18056,-7.70833,-11.0556L206.319,317.417L206.319,317.417z"/>
      <g stroke-width="0">
       <polygon fill="none" points="463.042,411.028,463.042,367.819,440.375,365.278,440.375,413.278" stroke-width="0"/>
       <polygon fill="#939393" points="440.375,365.278,463.042,367.819,463.042,411.028,440.375,413.278" stroke-width="0"/>
       <polygon fill="#666666" points="440.375,365.278,430.875,364.111,430.875,414.611,440.375,413.278" stroke-width="0"/>
      </g>
     </g>
     <line stroke-opacity="0.24" fill="none" stroke="#FFFFFF" stroke-linecap="round" y1="512.125" stroke-width="11.2" x1="14.7778" y2="512.125" x2="526.472"/>
     <line stroke-opacity="0.24" fill="none" stroke="#FFFFFF" stroke-linecap="round" y1="7.86111" stroke-width="11.2" x1="14.7778" y2="7.86111" x2="528.528"/>
     <line stroke-opacity="0.15" fill="none" stroke="#000000" stroke-linecap="round" y1="25.1944" stroke-width="5.6" x1="544.278" y2="494.792" x2="544.278"/>
     <rect width="9.04167" x="550.958" y="22.1389" fill="#B0B0B0" height="475.694" stroke-width="0"/>
    </g>
   </g>
  </g>
  <g transform="translate(314.035,934.05)">
   <rect width="31.93" x="0" y="0" fill="#8D8C8C" height="31.9" id="connector2pin" stroke-width="0"/>
   <rect width="16.4442" x="7.79153" y="7.73544" fill="#8C8663" height="16.4152" stroke-width="0"/>
   <polygon fill="#B8AF82" points="0,31.9,7.79153,24.1368,7.79153,6.97162,0,0" stroke-width="0"/>
   <polygon fill="#80795B" points="24.2079,7.76321,7.90264,7.76321,0,0,31.93,0" stroke-width="0"/>
   <polygon fill="#5E5B43" points="24.2079,24.1368,24.2079,7.76321,31.93,0,31.93,31.9" stroke-width="0"/>
   <polygon fill="#9A916C" points="0,31.9,7.87486,24.1368,24.2079,24.1368,31.93,31.9" stroke-width="0"/>
  </g>
  <g transform="translate(314.035,34.05)">
   <rect width="31.93" x="0" y="0" fill="#8D8C8C" height="31.9" id="connector5pin" stroke-width="0"/>
   <rect width="16.4442" x="7.79153" y="7.73544" fill="#8C8663" height="16.4152" stroke-width="0"/>
   <polygon fill="#B8AF82" points="0,31.9,7.79153,24.1368,7.79153,6.97162,0,0" stroke-width="0"/>
   <polygon fill="#80795B" points="24.2079,7.76321,7.90264,7.76321,0,0,31.93,0" stroke-width="0"/>
   <polygon fill="#5E5B43" points="24.2079,24.1368,24.2079,7.76321,31.93,0,31.93,31.9" stroke-width="0"/>
   <polygon fill="#9A916C" points="0,31.9,7.87486,24.1368,24.2079,24.1368,31.93,31.9" stroke-width="0"/>
  </g>
  <g transform="translate(414.035,934.05)">
   <rect width="31.93" x="0" y="0" fill="#8D8C8C" height="31.9" id="connector3pin" stroke-width="0"/>
   <rect width="16.4442" x="7.79153" y="7.73544" fill="#8C8663" height="16.4152" stroke-width="0"/>
   <polygon fill="#B8AF82" points="0,31.9,7.79153,24.1368,7.79153,6.97162,0,0" stroke-width="0"/>
   <polygon fill="#80795B" points="24.2079,7.76321,7.90264,7.76321,0,0,31.93,0" stroke-width="0"/>
   <polygon fill="#5E5B43" points="24.2079,24.1368,24.2079,7.76321,31.93,0,31.93,31.9" stroke-width="0"/>
   <polygon fill="#9A916C" points="0,31.9,7.87486,24.1368,24.2079,24.1368,31.93,31.9" stroke-width="0"/>
  </g>
  <g transform="translate(414.035,34.05)">
   <rect width="31.93" x="0" y="0" fill="#8D8C8C" height="31.9" id="connector4pin" stroke-width="0"/>
   <rect width="16.4442" x="7.79153" y="7.73544" fill="#8C8663" height="16.4152" stroke-width="0"/>
   <polygon fill="#B8AF82" points="0,31.9,7.79153,24.1368,7.79153,6.97162,0,0" stroke-width="0"/>
   <polygon fill="#80795B" points="24.2079,7.76321,7.90264,7.76321,0,0,31.93,0" stroke-width="0"/>
   <polygon fill="#5E5B43" points="24.2079,24.1368,24.2079,7.76321,31.93,0,31.93,31.9" stroke-width="0"/>
   <polygon fill="#9A916C" points="0,31.9,7.87486,24.1368,24.2079,24.1368,31.93,31.9" stroke-width="0"/>
  </g>
 </g>
 <text x="50" y="524.375" font-family="OCRA" fill="white" text-anchor="start" stroke="none" id="label" stroke-width="0" font-size="65">USB-A-S-NOSILK</text>
 <g transform="translate(343.5,926.05)">
  <g transform="rotate(-90)">
   <text x="0" y="0" font-family="OCRA" fill="white" text-anchor="start" stroke="none" stroke-width="0" font-size="45">D+</text>
  </g>
 </g>
 <g transform="translate(343.5,73.95)">
  <g transform="rotate(-90)">
   <text x="0" y="0" font-family="OCRA" fill="white" text-anchor="end" stroke="none" stroke-width="0" font-size="45">VBUS</text>
  </g>
 </g>
 <g transform="translate(443.5,926.05)">
  <g transform="rotate(-90)">
   <text x="0" y="0" font-family="OCRA" fill="white" text-anchor="start" stroke="none" stroke-width="0" font-size="45">D-</text>
  </g>
 </g>
 <g transform="translate(443.5,73.95)">
  <g transform="rotate(-90)">
   <text x="0" y="0" font-family="OCRA" fill="white" text-anchor="end" stroke="none" stroke-width="0" font-size="45">GND</text>
  </g>
 </g>
</svg>
