<?xml version='1.0' encoding='UTF-8' standalone='no'?>
<!-- Created with Fritzing (http://www.fritzing.org/) -->
<svg width="0.708in" x="0in" version="1.2" y="0in" xmlns="http://www.w3.org/2000/svg" height="0.8in" viewBox="0 0 708 800" baseProfile="tiny" xmlns:svg="http://www.w3.org/2000/svg">
 <desc>Fritzing breadboard generated by brd2svg</desc>
 <g id="breadboard">
  <g id="icon">
   <path fill="#1F7A34" stroke="none" stroke-width="0" d="M0,0L0,370A30,30 0 0 1 0,430L0,800L708,800L708,0L0,0z"/>
   <g transform="translate(100,162.438)">
    <g stroke-width="0">
     <g stroke-width="0">
      <rect width="8.26389" x="49.8611" y="467.694" fill="#CCCCCC" height="6.63889" stroke-width="0"/>
      <rect width="8.26389" x="349.875" y="467.694" fill="#CCCCCC" height="6.63889" stroke-width="0"/>
      <rect width="8.26389" x="449.861" y="467.694" fill="#CCCCCC" height="6.63889" stroke-width="0"/>
      <g stroke-width="0">
       <path fill="#1A1A1A" stroke-width="0" d="M508,454.694c0,7.63889,-6.25,13.8889,-13.8889,13.8889L13.8889,468.583c-7.63889,0,-13.8889,-6.25,-13.8889,-13.8889l0,-157.639c0,-7.63889,6.25,-13.8889,13.8889,-13.8889l480.222,0c7.63889,0,13.8889,6.25,13.8889,13.8889L508,454.694z"/>
      </g>
      <g stroke-width="0">
       <path fill="#333333" stroke-width="0" d="M508,299.639c0,4.80556,-3.91667,8.72222,-8.70833,8.72222L8.70833,308.361C3.93056,308.361,0,304.444,0,299.639L0,8.70833C0,3.93056,3.93056,0,8.70833,0l490.583,0c4.79167,0,8.70833,3.93056,8.70833,8.70833L508,299.639z"/>
       <g stroke-width="0">
        <circle fill="#1A1A1A" cx="253.486" cy="154.181" r="35.2361" stroke-width="0"/>
        <circle cx="253.486" cy="157.806" r="8.27778" stroke-width="0"/>
        <path stroke-width="0" d="M253.486,126.222c18.2222,0,33.0278,13.875,34.875,31.5833c0.125,-1.20833,0.361111,-2.38889,0.361111,-3.63889c0,-19.4444,-15.7778,-35.2222,-35.2361,-35.2222c-19.4444,0,-35.2222,15.7778,-35.2222,35.2222c0,1.25,0.25,2.43056,0.361111,3.63889C220.472,140.097,235.264,126.222,253.486,126.222z"/>
       </g>
      </g>
      <text x="0" y="0" stroke-width="0" transform="matrix(1, 0, 0, 1, 14.6889, 43.5458)" font-size="0">
       <tspan x="0" y="0" fill="#808080" font-family="'ArialMT'" font-size="2.2714">OMRON</tspan>
       <tspan x="0" y="2.726" fill="#808080" font-family="'ArialMT'" font-size="2.2714">G5V-2</tspan>
      </text>
      <text x="0" y="0" stroke-width="0" transform="matrix(1, 0, 0, 1, 14.6889, 249.647)" font-size="0">
       <tspan x="0" y="0" fill="#808080" font-family="'ArialMT'" font-size="2.2714">Bottom View</tspan>
       <tspan x="0" y="1.92" fill="#808080" font-family="'ArialMT'" font-size="1.6">MADE IN CHINA</tspan>
      </text>
     </g>
     <path opacity="0.2" fill="#FFFFFF" stroke-width="0" d="M0,8.70833C0,3.93056,3.93056,0,8.70833,0l490.583,0c4.79167,0,8.70833,3.93056,8.70833,8.70833l0,4.36111c0,-4.79167,-3.91667,-8.70833,-8.70833,-8.70833L8.70833,4.36111C3.93056,4.36111,0,8.27778,0,13.0694L0,8.70833z"/>
     <path opacity="0.75" stroke-width="0" d="M508,299.639c0,4.80556,-3.91667,8.72222,-8.70833,8.72222L8.70833,308.361C3.93056,308.361,0,304.444,0,299.639l0,-4.34722c0,4.80556,3.93056,8.72222,8.70833,8.72222l490.583,0c4.79167,0,8.70833,-3.91667,8.70833,-8.72222L508,299.639z"/>
     <path opacity="0.75" stroke-width="0" d="M508,459.861c0,4.80556,-3.91667,8.72222,-8.70833,8.72222L8.70833,468.583C3.93056,468.583,0,464.667,0,459.861l0,-4.34722c0,4.80556,3.93056,8.72222,8.70833,8.72222l490.583,0c4.79167,0,8.70833,-3.91667,8.70833,-8.72222L508,459.861z"/>
    </g>
    <text x="0" y="0" fill="#808080" font-family="'ArialMT'" stroke-width="0" transform="matrix(1, 0, 0, 1, 53.9958, 210.91)" font-size="31.5472">12VDC</text>
    <text x="0" y="0" fill="#808080" font-family="'ArialMT'" stroke-width="0" transform="matrix(1, 0, 0, 1, 306.64, 65.0764)" font-size="31.5472">1</text>
    <text x="0" y="0" fill="#808080" font-family="'ArialMT'" stroke-width="0" transform="matrix(1, 0, 0, 1, 352.769, 65.0764)" font-size="31.5472">4</text>
    <text x="0" y="0" fill="#808080" font-family="'ArialMT'" stroke-width="0" transform="matrix(1, 0, 0, 1, 404.012, 65.0764)" font-size="31.5472">6</text>
    <text x="0" y="0" fill="#808080" font-family="'ArialMT'" stroke-width="0" transform="matrix(1, 0, 0, 1, 453.722, 65.0764)" font-size="31.5472">8</text>
    <text x="0" y="0" fill="#808080" font-family="'ArialMT'" stroke-width="0" transform="matrix(1, 0, 0, 1, 293.104, 260.092)" font-size="31.5472">16</text>
    <text x="0" y="0" fill="#808080" font-family="'ArialMT'" stroke-width="0" transform="matrix(1, 0, 0, 1, 337.144, 259.549)" font-size="31.5472">13</text>
    <text x="0" y="0" fill="#808080" font-family="'ArialMT'" stroke-width="0" transform="matrix(1, 0, 0, 1, 394.789, 259.521)" font-size="31.5472">11</text>
    <text x="0" y="0" fill="#808080" font-family="'ArialMT'" stroke-width="0" transform="matrix(1, 0, 0, 1, 453.722, 259.521)" font-size="31.5472">9</text>
    <g stroke-width="0">
     <rect width="31.9722" x="299.375" y="146.986" fill="none" height="14.375" stroke="#808080" stroke-width="3.47222" stroke-miterlimit="10"/>
     <g stroke-width="0">
      <line fill="none" stroke="#808080" y1="81.5833" stroke-width="3.47222" x1="315.347" y2="146.986" x2="315.347" stroke-miterlimit="10"/>
      <line fill="none" stroke="#808080" y1="81.5833" stroke-width="3.47222" x1="306.639" y2="81.5833" x2="324.069" stroke-miterlimit="10"/>
     </g>
     <g stroke-width="0">
      <g stroke-width="0">
       <polyline fill="none" points="378.736,81.5833,378.736,25.5278,434.972,25.5278,434.972,81.5833,422.319,135.208,412.736,135.208,412.736,81.5833" stroke="#808080" stroke-width="3.47222" stroke-miterlimit="10"/>
       <line fill="none" stroke="#808080" y1="81.5833" stroke-width="3.47222" x1="387.444" y2="81.5833" x2="370.014" stroke-miterlimit="10"/>
      </g>
      <line fill="none" stroke="#808080" y1="81.5833" stroke-width="3.47222" x1="404.014" y2="81.5833" x2="421.458" stroke-miterlimit="10"/>
     </g>
     <g stroke-width="0">
      <line fill="none" stroke="#808080" y1="81.5833" stroke-width="3.47222" x1="453.722" y2="81.5833" x2="471.167" stroke-miterlimit="10"/>
      <g stroke-width="0">
       <g stroke-width="0">
        <polyline fill="none" points="462.444,81.5833,462.444,135.208,446.75,135.208" stroke="#808080" stroke-width="3.47222" stroke-miterlimit="10"/>
        <g stroke-width="0">
         <polygon fill="#808080" points="447.708,131.944,442.014,135.236,447.708,138.528" stroke-width="0"/>
        </g>
       </g>
      </g>
     </g>
     <g stroke-width="0">
      <line fill="none" stroke="#808080" y1="226.778" stroke-width="3.47222" x1="315.347" y2="161.375" x2="315.347" stroke-miterlimit="10"/>
      <line fill="none" stroke="#808080" y1="226.778" stroke-width="3.47222" x1="306.639" y2="226.778" x2="324.069" stroke-miterlimit="10"/>
     </g>
     <g stroke-width="0">
      <g stroke-width="0">
       <polyline fill="none" points="378.736,226.778,378.736,282.833,434.972,282.833,434.972,226.778,422.319,173.153,412.736,173.153,412.736,226.778" stroke="#808080" stroke-width="3.47222" stroke-miterlimit="10"/>
       <line fill="none" stroke="#808080" y1="226.778" stroke-width="3.47222" x1="387.444" y2="226.778" x2="370.014" stroke-miterlimit="10"/>
      </g>
      <line fill="none" stroke="#808080" y1="226.778" stroke-width="3.47222" x1="404.014" y2="226.778" x2="421.458" stroke-miterlimit="10"/>
     </g>
     <g stroke-width="0">
      <line fill="none" stroke="#808080" y1="226.778" stroke-width="3.47222" x1="453.722" y2="226.778" x2="471.167" stroke-miterlimit="10"/>
      <g stroke-width="0">
       <g stroke-width="0">
        <polyline fill="none" points="462.444,226.778,462.444,173.153,446.75,173.153" stroke="#808080" stroke-width="3.47222" stroke-miterlimit="10"/>
        <g stroke-width="0">
         <polygon fill="#808080" points="447.708,169.875,442.014,173.167,447.708,176.458" stroke-width="0"/>
        </g>
       </g>
      </g>
     </g>
    </g>
    <rect width="54" x="0" y="134.75" fill="#1A1A1A" height="38.8611" stroke-width="0"/>
    <rect width="54" x="0" y="134.75" height="3.625" stroke-width="0"/>
   </g>
  </g>
  <g transform="translate(238.035,734.05)">
   <rect width="31.93" x="0" y="0" fill="#8D8C8C" height="31.9" id="connector0pin" stroke-width="0"/>
   <rect width="16.4442" x="7.79153" y="7.73544" fill="#8C8663" height="16.4152" stroke-width="0"/>
   <polygon fill="#B8AF82" points="0,31.9,7.79153,24.1368,7.79153,6.97162,0,0" stroke-width="0"/>
   <polygon fill="#80795B" points="24.2079,7.76321,7.90264,7.76321,0,0,31.93,0" stroke-width="0"/>
   <polygon fill="#5E5B43" points="24.2079,24.1368,24.2079,7.76321,31.93,0,31.93,31.9" stroke-width="0"/>
   <polygon fill="#9A916C" points="0,31.9,7.87486,24.1368,24.2079,24.1368,31.93,31.9" stroke-width="0"/>
  </g>
  <g transform="translate(238.035,34.05)">
   <rect width="31.93" x="0" y="0" fill="#8D8C8C" height="31.9" id="connector5pin" stroke-width="0"/>
   <rect width="16.4442" x="7.79153" y="7.73544" fill="#8C8663" height="16.4152" stroke-width="0"/>
   <polygon fill="#B8AF82" points="0,31.9,7.79153,24.1368,7.79153,6.97162,0,0" stroke-width="0"/>
   <polygon fill="#80795B" points="24.2079,7.76321,7.90264,7.76321,0,0,31.93,0" stroke-width="0"/>
   <polygon fill="#5E5B43" points="24.2079,24.1368,24.2079,7.76321,31.93,0,31.93,31.9" stroke-width="0"/>
   <polygon fill="#9A916C" points="0,31.9,7.87486,24.1368,24.2079,24.1368,31.93,31.9" stroke-width="0"/>
  </g>
  <g transform="translate(338.035,734.05)">
   <rect width="31.93" x="0" y="0" fill="#8D8C8C" height="31.9" id="connector1pin" stroke-width="0"/>
   <rect width="16.4442" x="7.79153" y="7.73544" fill="#8C8663" height="16.4152" stroke-width="0"/>
   <polygon fill="#B8AF82" points="0,31.9,7.79153,24.1368,7.79153,6.97162,0,0" stroke-width="0"/>
   <polygon fill="#80795B" points="24.2079,7.76321,7.90264,7.76321,0,0,31.93,0" stroke-width="0"/>
   <polygon fill="#5E5B43" points="24.2079,24.1368,24.2079,7.76321,31.93,0,31.93,31.9" stroke-width="0"/>
   <polygon fill="#9A916C" points="0,31.9,7.87486,24.1368,24.2079,24.1368,31.93,31.9" stroke-width="0"/>
  </g>
  <g transform="translate(338.035,34.05)">
   <rect width="31.93" x="0" y="0" fill="#8D8C8C" height="31.9" id="connector4pin" stroke-width="0"/>
   <rect width="16.4442" x="7.79153" y="7.73544" fill="#8C8663" height="16.4152" stroke-width="0"/>
   <polygon fill="#B8AF82" points="0,31.9,7.79153,24.1368,7.79153,6.97162,0,0" stroke-width="0"/>
   <polygon fill="#80795B" points="24.2079,7.76321,7.90264,7.76321,0,0,31.93,0" stroke-width="0"/>
   <polygon fill="#5E5B43" points="24.2079,24.1368,24.2079,7.76321,31.93,0,31.93,31.9" stroke-width="0"/>
   <polygon fill="#9A916C" points="0,31.9,7.87486,24.1368,24.2079,24.1368,31.93,31.9" stroke-width="0"/>
  </g>
  <g transform="translate(438.035,734.05)">
   <rect width="31.93" x="0" y="0" fill="#8D8C8C" height="31.9" id="connector2pin" stroke-width="0"/>
   <rect width="16.4442" x="7.79153" y="7.73544" fill="#8C8663" height="16.4152" stroke-width="0"/>
   <polygon fill="#B8AF82" points="0,31.9,7.79153,24.1368,7.79153,6.97162,0,0" stroke-width="0"/>
   <polygon fill="#80795B" points="24.2079,7.76321,7.90264,7.76321,0,0,31.93,0" stroke-width="0"/>
   <polygon fill="#5E5B43" points="24.2079,24.1368,24.2079,7.76321,31.93,0,31.93,31.9" stroke-width="0"/>
   <polygon fill="#9A916C" points="0,31.9,7.87486,24.1368,24.2079,24.1368,31.93,31.9" stroke-width="0"/>
  </g>
  <g transform="translate(438.035,34.05)">
   <rect width="31.93" x="0" y="0" fill="#8D8C8C" height="31.9" id="connector3pin" stroke-width="0"/>
   <rect width="16.4442" x="7.79153" y="7.73544" fill="#8C8663" height="16.4152" stroke-width="0"/>
   <polygon fill="#B8AF82" points="0,31.9,7.79153,24.1368,7.79153,6.97162,0,0" stroke-width="0"/>
   <polygon fill="#80795B" points="24.2079,7.76321,7.90264,7.76321,0,0,31.93,0" stroke-width="0"/>
   <polygon fill="#5E5B43" points="24.2079,24.1368,24.2079,7.76321,31.93,0,31.93,31.9" stroke-width="0"/>
   <polygon fill="#9A916C" points="0,31.9,7.87486,24.1368,24.2079,24.1368,31.93,31.9" stroke-width="0"/>
  </g>
 </g>
</svg>
