<?xml version='1.0' encoding='UTF-8' standalone='no'?>
<!-- Created with Fritzing (http://www.fritzing.org/) -->
<svg width="0.76in" x="0in" version="1.2" y="0in" xmlns="http://www.w3.org/2000/svg" height="1in" viewBox="0 0 760 1000" baseProfile="tiny" xmlns:svg="http://www.w3.org/2000/svg">
 <desc>Fritzing breadboard generated by brd2svg</desc>
 <g id="breadboard">
  <g id="icon">
   <path fill="#1F7A34" stroke="none" stroke-width="0" d="M0,0L0,470A30,30 0 0 1 0,530L0,1000L760,1000L760,0L0,0z"/>
   <g transform="translate(100,240.007)">
    <g stroke-width="0">
     <g stroke-width="0">
      <g stroke-width="0">
       <path fill="#7A7A7A" stroke-width="0" d="M560,501.389L560,18.6111c-20.9028,0,-23.5556,-15.9444,-23.5556,-18.625L0,-0.0138889l0,520l536.444,0C536.444,517.333,539.097,501.389,560,501.389z"/>
      </g>
     </g>
     <path stroke-width="0" d="M224.556,368.028c0,-3.72222,3.08333,-6.43056,6.79167,-6.08333l253.5,26.0694c3.72222,0.375,6.77778,3.66667,6.77778,7.40278l0,41.4167c0,3.66667,-3.08333,7.08333,-6.77778,7.40278l-253.5,26.1528c-3.73611,0.402778,-6.79167,-2.44444,-6.79167,-6.05556l0,-6.08333c0,-3.66667,3.08333,-7.05556,6.79167,-7.375l230.431,-19.7222c3.73611,-0.291667,6.79167,-3.58333,6.79167,-7.31944l0,-15.4306c0,-3.63889,-3.08333,-7.02778,-6.79167,-7.34722l-230.431,-19.6944c-3.73611,-0.319444,-6.79167,-3.61111,-6.79167,-7.375L224.556,368.028z"/>
     <path stroke-width="0" d="M224.556,55.625c0,-3.63889,3.08333,-6.45833,6.79167,-6.09722L484.861,75.7222c3.73611,0.486111,6.77778,3.66667,6.77778,7.40278l0,41.4167c0,3.69444,-3.08333,7.05556,-6.77778,7.43056l-253.5,26.0972c-3.73611,0.458333,-6.79167,-2.38889,-6.79167,-6.02778l0,-6.09722c0,-3.69444,3.08333,-7.02778,6.79167,-7.43056l230.431,-19.6944c3.73611,-0.319444,6.79167,-3.47222,6.79167,-7.375L468.583,96.0694c0,-3.55556,-3.08333,-7.05556,-6.79167,-7.40278L231.361,69.0556c-3.73611,-0.430556,-6.79167,-3.47222,-6.79167,-7.40278L224.556,55.625L224.556,55.625z"/>
     <g stroke-width="0">
      <polygon fill="none" points="468.431,118.319,468.431,89.375,448.431,87.6667,448.431,119.833" stroke-width="0"/>
      <polygon fill="#939393" points="448.431,87.6667,468.431,89.375,468.431,118.319,448.431,119.833" stroke-width="0"/>
      <polygon fill="#666666" points="448.431,87.6667,440.056,86.9028,440.056,120.736,448.431,119.833" stroke-width="0"/>
     </g>
     <g stroke-width="0">
      <polygon fill="none" points="468.431,430.722,468.431,401.639,448.431,400.042,448.431,432.236" stroke-width="0"/>
      <polygon fill="#939393" points="448.431,400.042,468.431,401.639,468.431,430.722,448.431,432.236" stroke-width="0"/>
      <polygon fill="#666666" points="448.431,400.042,440.056,399.222,440.056,433.139,448.431,432.236" stroke-width="0"/>
     </g>
     <rect width="48.6111" x="261.5" y="197.042" fill="#666666" height="132.042" stroke-width="0"/>
     <rect width="26.9167" x="234.583" y="197.042" fill="#939393" height="132.042" stroke-width="0"/>
     <path stroke-width="0" d="M514.708,337.056c0,-3.66667,-3.06944,-6.97222,-6.79167,-7.13889l-280.306,-16.625c-3.75,-0.25,-6.81944,-3.47222,-6.81944,-7.16667l0,-92.4028c0,-3.69444,3.08333,-6.94444,6.81944,-7.23611l280.306,-16.4444c3.75,-0.194444,6.79167,-3.44444,6.79167,-7.16667l0,-12.375c0,-3.66667,-3.06944,-6.43056,-6.79167,-6.31944l-318.639,22.8194c-3.73611,0.375,-6.84722,3.47222,-6.84722,7.34722l0,131.167c0,3.69444,3.125,7.02778,6.84722,7.34722l318.639,22.7361c3.75,0.25,6.84722,-2.61111,6.84722,-6.26389L514.708,337.056L514.708,337.056z"/>
     <line stroke-opacity="0.24" fill="none" stroke="#FFFFFF" stroke-linecap="round" y1="512.125" stroke-width="11.2" x1="14.7778" y2="512.125" x2="526.472"/>
     <line stroke-opacity="0.15" fill="none" stroke="#FFFFFF" stroke-linecap="round" y1="7.86111" stroke-width="5.6" x1="14.7778" y2="7.86111" x2="528.528"/>
     <path fill="#515151" stroke-width="0" d="M560,18.6111c-6.26389,0,-10.7361,-1.51389,-14.1667,-3.59722l0,489.944c3.41667,-2.05556,7.88889,-3.58333,14.1667,-3.58333L560,18.6111z"/>
     <line stroke-opacity="0.15" fill="none" stroke="#FFFFFF" stroke-linecap="round" y1="25.1944" stroke-width="5.6" x1="544.278" y2="494.792" x2="544.278"/>
    </g>
   </g>
  </g>
  <g transform="translate(314.035,934.05)">
   <rect width="31.93" x="0" y="0" fill="#8D8C8C" height="31.9" id="connector2pin" stroke-width="0"/>
   <rect width="16.4442" x="7.79153" y="7.73544" fill="#8C8663" height="16.4152" stroke-width="0"/>
   <polygon fill="#B8AF82" points="0,31.9,7.79153,24.1368,7.79153,6.97162,0,0" stroke-width="0"/>
   <polygon fill="#80795B" points="24.2079,7.76321,7.90264,7.76321,0,0,31.93,0" stroke-width="0"/>
   <polygon fill="#5E5B43" points="24.2079,24.1368,24.2079,7.76321,31.93,0,31.93,31.9" stroke-width="0"/>
   <polygon fill="#9A916C" points="0,31.9,7.87486,24.1368,24.2079,24.1368,31.93,31.9" stroke-width="0"/>
  </g>
  <g transform="translate(314.035,34.05)">
   <rect width="31.93" x="0" y="0" fill="#8D8C8C" height="31.9" id="connector5pin" stroke-width="0"/>
   <rect width="16.4442" x="7.79153" y="7.73544" fill="#8C8663" height="16.4152" stroke-width="0"/>
   <polygon fill="#B8AF82" points="0,31.9,7.79153,24.1368,7.79153,6.97162,0,0" stroke-width="0"/>
   <polygon fill="#80795B" points="24.2079,7.76321,7.90264,7.76321,0,0,31.93,0" stroke-width="0"/>
   <polygon fill="#5E5B43" points="24.2079,24.1368,24.2079,7.76321,31.93,0,31.93,31.9" stroke-width="0"/>
   <polygon fill="#9A916C" points="0,31.9,7.87486,24.1368,24.2079,24.1368,31.93,31.9" stroke-width="0"/>
  </g>
  <g transform="translate(414.035,934.05)">
   <rect width="31.93" x="0" y="0" fill="#8D8C8C" height="31.9" id="connector3pin" stroke-width="0"/>
   <rect width="16.4442" x="7.79153" y="7.73544" fill="#8C8663" height="16.4152" stroke-width="0"/>
   <polygon fill="#B8AF82" points="0,31.9,7.79153,24.1368,7.79153,6.97162,0,0" stroke-width="0"/>
   <polygon fill="#80795B" points="24.2079,7.76321,7.90264,7.76321,0,0,31.93,0" stroke-width="0"/>
   <polygon fill="#5E5B43" points="24.2079,24.1368,24.2079,7.76321,31.93,0,31.93,31.9" stroke-width="0"/>
   <polygon fill="#9A916C" points="0,31.9,7.87486,24.1368,24.2079,24.1368,31.93,31.9" stroke-width="0"/>
  </g>
  <g transform="translate(414.035,34.05)">
   <rect width="31.93" x="0" y="0" fill="#8D8C8C" height="31.9" id="connector4pin" stroke-width="0"/>
   <rect width="16.4442" x="7.79153" y="7.73544" fill="#8C8663" height="16.4152" stroke-width="0"/>
   <polygon fill="#B8AF82" points="0,31.9,7.79153,24.1368,7.79153,6.97162,0,0" stroke-width="0"/>
   <polygon fill="#80795B" points="24.2079,7.76321,7.90264,7.76321,0,0,31.93,0" stroke-width="0"/>
   <polygon fill="#5E5B43" points="24.2079,24.1368,24.2079,7.76321,31.93,0,31.93,31.9" stroke-width="0"/>
   <polygon fill="#9A916C" points="0,31.9,7.87486,24.1368,24.2079,24.1368,31.93,31.9" stroke-width="0"/>
  </g>
 </g>
 <text x="50" y="524.375" font-family="OCRA" fill="white" text-anchor="start" stroke="none" id="label" stroke-width="0" font-size="65">USB-A-S-SILK-FEMALE</text>
 <g transform="translate(343.5,926.05)">
  <g transform="rotate(-90)">
   <text x="0" y="0" font-family="OCRA" fill="white" text-anchor="start" stroke="none" stroke-width="0" font-size="45">D+</text>
  </g>
 </g>
 <g transform="translate(343.5,73.95)">
  <g transform="rotate(-90)">
   <text x="0" y="0" font-family="OCRA" fill="white" text-anchor="end" stroke="none" stroke-width="0" font-size="45">VBUS</text>
  </g>
 </g>
 <g transform="translate(443.5,926.05)">
  <g transform="rotate(-90)">
   <text x="0" y="0" font-family="OCRA" fill="white" text-anchor="start" stroke="none" stroke-width="0" font-size="45">D-</text>
  </g>
 </g>
 <g transform="translate(443.5,73.95)">
  <g transform="rotate(-90)">
   <text x="0" y="0" font-family="OCRA" fill="white" text-anchor="end" stroke="none" stroke-width="0" font-size="45">GND</text>
  </g>
 </g>
</svg>
