<?xml version='1.0' encoding='UTF-8' standalone='no'?>
<!-- Created with Fritzing (http://www.fritzing.org/) -->
<svg width="1.6in" x="0in" version="1.2" y="0in" xmlns="http://www.w3.org/2000/svg" height="0.8in" viewBox="0 0 1600 800" baseProfile="tiny" xmlns:svg="http://www.w3.org/2000/svg">
 <desc>Fritzing breadboard generated by brd2svg</desc>
 <g id="breadboard">
  <g id="icon">
   <path fill="#1F7A34" stroke="none" stroke-width="0" d="M0,0L0,370A30,30 0 0 1 0,430L0,800L1600,800L1600,0L0,0z"/>
   <g transform="translate(313.778,220.271)">
    <path fill="#808080" stroke-width="0" d="M951.611,153.639l0,-2.36111c0,-6.94444,9.34722,-12.5833,20.8333,-12.5833l0,-3.47222c-11.4861,0,-20.8333,5.63889,-20.8333,12.5833l0,2.36111L951.611,153.639z"/>
    <rect width="838.694" x="67.4722" y="98.5556" fill="#666666" height="260.778" stroke-width="0"/>
    <rect width="832.5" x="69.9722" y="354.458" fill="#CCCCCC" height="5" stroke-width="0"/>
    <g stroke-width="0">
     <g stroke-width="0">
      <rect width="13.7639" x="765.139" y="4" fill="#E1CC5F" height="68.8889" stroke-width="0"/>
     </g>
     <g stroke-width="0">
      <rect width="13.7639" x="745.444" y="4" fill="#E1CC5F" height="68.8889" stroke-width="0"/>
     </g>
     <g stroke-width="0">
      <rect width="13.7639" x="725.75" y="4" fill="#E1CC5F" height="68.8889" stroke-width="0"/>
     </g>
     <g stroke-width="0">
      <rect width="13.7639" x="706.056" y="4" fill="#E1CC5F" height="68.8889" stroke-width="0"/>
     </g>
     <g stroke-width="0">
      <rect width="13.7639" x="686.361" y="4" fill="#E1CC5F" height="68.8889" stroke-width="0"/>
     </g>
     <g stroke-width="0">
      <rect width="13.7639" x="666.667" y="4" fill="#E1CC5F" height="68.8889" stroke-width="0"/>
     </g>
     <g stroke-width="0">
      <rect width="13.7639" x="646.972" y="4" fill="#E1CC5F" height="68.8889" stroke-width="0"/>
     </g>
     <g stroke-width="0">
      <rect width="13.75" x="627.278" y="4" fill="#E1CC5F" height="68.8889" stroke-width="0"/>
     </g>
     <g stroke-width="0">
      <rect width="13.75" x="607.583" y="4" fill="#E1CC5F" height="68.8889" stroke-width="0"/>
     </g>
     <g stroke-width="0">
      <rect width="13.75" x="587.889" y="4" fill="#E1CC5F" height="68.8889" stroke-width="0"/>
     </g>
     <g stroke-width="0">
      <rect width="13.75" x="568.194" y="4" fill="#E1CC5F" height="68.8889" stroke-width="0"/>
     </g>
     <g stroke-width="0">
      <rect width="13.75" x="548.5" y="4" fill="#E1CC5F" height="68.8889" stroke-width="0"/>
     </g>
     <g stroke-width="0">
      <rect width="13.75" x="528.806" y="4" fill="#E1CC5F" height="68.8889" stroke-width="0"/>
     </g>
     <g stroke-width="0">
      <rect width="13.7639" x="509.111" y="4" fill="#E1CC5F" height="68.8889" stroke-width="0"/>
     </g>
     <g stroke-width="0">
      <rect width="13.7778" x="489.417" y="4" fill="#E1CC5F" height="68.8889" stroke-width="0"/>
     </g>
     <g stroke-width="0">
      <rect width="13.7778" x="469.708" y="4" fill="#E1CC5F" height="68.8889" stroke-width="0"/>
     </g>
     <g stroke-width="0">
      <rect width="13.7778" x="450.014" y="4" fill="#E1CC5F" height="68.8889" stroke-width="0"/>
     </g>
     <g stroke-width="0">
      <rect width="13.7778" x="430.306" y="4" fill="#E1CC5F" height="68.8889" stroke-width="0"/>
     </g>
     <g stroke-width="0">
      <rect width="13.7778" x="410.611" y="4" fill="#E1CC5F" height="68.8889" stroke-width="0"/>
     </g>
     <g stroke-width="0">
      <rect width="13.7778" x="390.917" y="4" fill="#E1CC5F" height="68.8889" stroke-width="0"/>
     </g>
     <g stroke-width="0">
      <rect width="13.7778" x="371.208" y="4" fill="#E1CC5F" height="68.8889" stroke-width="0"/>
     </g>
     <g stroke-width="0">
      <rect width="13.7778" x="351.514" y="4" fill="#E1CC5F" height="68.8889" stroke-width="0"/>
     </g>
     <g stroke-width="0">
      <rect width="13.7778" x="331.806" y="4" fill="#E1CC5F" height="68.8889" stroke-width="0"/>
     </g>
     <g stroke-width="0">
      <rect width="13.7778" x="312.111" y="4" fill="#E1CC5F" height="68.8889" stroke-width="0"/>
     </g>
     <g stroke-width="0">
      <rect width="13.7778" x="292.403" y="4" fill="#E1CC5F" height="68.8889" stroke-width="0"/>
     </g>
     <g stroke-width="0">
      <rect width="13.7778" x="272.708" y="4" fill="#E1CC5F" height="68.8889" stroke-width="0"/>
     </g>
     <g stroke-width="0">
      <rect width="13.7778" x="253" y="4" fill="#E1CC5F" height="68.8889" stroke-width="0"/>
     </g>
     <g stroke-width="0">
      <rect width="13.7778" x="233.306" y="4" fill="#E1CC5F" height="68.8889" stroke-width="0"/>
     </g>
     <g stroke-width="0">
      <rect width="13.7778" x="213.597" y="4" fill="#E1CC5F" height="68.8889" stroke-width="0"/>
     </g>
     <g stroke-width="0">
      <rect width="13.7778" x="193.903" y="4" fill="#E1CC5F" height="68.8889" stroke-width="0"/>
     </g>
    </g>
    <g stroke-width="0">
     <g stroke-width="0">
      <rect width="13.7639" x="765.139" y="38.4444" fill="#E1C639" height="34.4444" stroke-width="0"/>
     </g>
     <g stroke-width="0">
      <rect width="13.7639" x="745.444" y="38.4444" fill="#E1C639" height="34.4444" stroke-width="0"/>
     </g>
     <g stroke-width="0">
      <rect width="13.7639" x="725.75" y="38.4444" fill="#E1C639" height="34.4444" stroke-width="0"/>
     </g>
     <g stroke-width="0">
      <rect width="13.7639" x="706.056" y="38.4444" fill="#E1C639" height="34.4444" stroke-width="0"/>
     </g>
     <g stroke-width="0">
      <rect width="13.7639" x="686.361" y="38.4444" fill="#E1C639" height="34.4444" stroke-width="0"/>
     </g>
     <g stroke-width="0">
      <rect width="13.7639" x="666.667" y="38.4444" fill="#E1C639" height="34.4444" stroke-width="0"/>
     </g>
     <g stroke-width="0">
      <rect width="13.7639" x="646.972" y="38.4444" fill="#E1C639" height="34.4444" stroke-width="0"/>
     </g>
     <g stroke-width="0">
      <rect width="13.75" x="627.278" y="38.4444" fill="#E1C639" height="34.4444" stroke-width="0"/>
     </g>
     <g stroke-width="0">
      <rect width="13.75" x="607.583" y="38.4444" fill="#E1C639" height="34.4444" stroke-width="0"/>
     </g>
     <g stroke-width="0">
      <rect width="13.75" x="587.889" y="38.4444" fill="#E1C639" height="34.4444" stroke-width="0"/>
     </g>
     <g stroke-width="0">
      <rect width="13.75" x="568.194" y="38.4444" fill="#E1C639" height="34.4444" stroke-width="0"/>
     </g>
     <g stroke-width="0">
      <rect width="13.75" x="548.5" y="38.4444" fill="#E1C639" height="34.4444" stroke-width="0"/>
     </g>
     <g stroke-width="0">
      <rect width="13.75" x="528.806" y="38.4444" fill="#E1C639" height="34.4444" stroke-width="0"/>
     </g>
     <g stroke-width="0">
      <rect width="13.7639" x="509.111" y="38.4444" fill="#E1C639" height="34.4444" stroke-width="0"/>
     </g>
     <g stroke-width="0">
      <rect width="13.7778" x="489.417" y="38.4444" fill="#E1C639" height="34.4444" stroke-width="0"/>
     </g>
     <g stroke-width="0">
      <rect width="13.7778" x="469.708" y="38.4444" fill="#E1C639" height="34.4444" stroke-width="0"/>
     </g>
     <g stroke-width="0">
      <rect width="13.7778" x="450.014" y="38.4444" fill="#E1C639" height="34.4444" stroke-width="0"/>
     </g>
     <g stroke-width="0">
      <rect width="13.7778" x="430.306" y="38.4444" fill="#E1C639" height="34.4444" stroke-width="0"/>
     </g>
     <g stroke-width="0">
      <rect width="13.7778" x="410.611" y="38.4444" fill="#E1C639" height="34.4444" stroke-width="0"/>
     </g>
     <g stroke-width="0">
      <rect width="13.7778" x="390.917" y="38.4444" fill="#E1C639" height="34.4444" stroke-width="0"/>
     </g>
     <g stroke-width="0">
      <rect width="13.7778" x="371.208" y="38.4444" fill="#E1C639" height="34.4444" stroke-width="0"/>
     </g>
     <g stroke-width="0">
      <rect width="13.7778" x="351.514" y="38.4444" fill="#E1C639" height="34.4444" stroke-width="0"/>
     </g>
     <g stroke-width="0">
      <rect width="13.7778" x="331.806" y="38.4444" fill="#E1C639" height="34.4444" stroke-width="0"/>
     </g>
     <g stroke-width="0">
      <rect width="13.7778" x="312.111" y="38.4444" fill="#E1C639" height="34.4444" stroke-width="0"/>
     </g>
     <g stroke-width="0">
      <rect width="13.7778" x="292.403" y="38.4444" fill="#E1C639" height="34.4444" stroke-width="0"/>
     </g>
     <g stroke-width="0">
      <rect width="13.7778" x="272.708" y="38.4444" fill="#E1C639" height="34.4444" stroke-width="0"/>
     </g>
     <g stroke-width="0">
      <rect width="13.7778" x="253" y="38.4444" fill="#E1C639" height="34.4444" stroke-width="0"/>
     </g>
     <g stroke-width="0">
      <rect width="13.7778" x="233.306" y="38.4444" fill="#E1C639" height="34.4444" stroke-width="0"/>
     </g>
     <g stroke-width="0">
      <rect width="13.7778" x="213.597" y="38.4444" fill="#E1C639" height="34.4444" stroke-width="0"/>
     </g>
     <g stroke-width="0">
      <rect width="13.7778" x="193.903" y="38.4444" fill="#E1C639" height="34.4444" stroke-width="0"/>
     </g>
    </g>
    <path fill="#E6E6E6" stroke-width="0" d="M64.9722,58.5694l0,238.194l842.5,0L907.472,58.5694L64.9722,58.5694zM150.972,271.556L125.972,271.556L125.972,123.625l25.0139,0L150.986,271.556zM846.458,271.556l-25,0L821.458,123.625l25,0L846.458,271.556z"/>
    <rect width="18.3056" x="120.333" y="133.375" fill="#E6E6E6" height="125.972" stroke-width="0"/>
    <rect width="4.98611" x="133.653" y="133.375" fill="#CCCCCC" height="125.972" stroke-width="0"/>
    <rect width="2.5" x="136.153" y="133.375" fill="#B3B3B3" height="125.972" stroke-width="0"/>
    <rect width="15.4444" x="833.625" y="133.375" fill="#E6E6E6" height="125.972" stroke-width="0"/>
    <rect width="12.6806" x="125.972" y="259.347" fill="#B3B3B3" height="2" stroke-width="0"/>
    <rect width="12.6806" x="833.625" y="259.347" fill="#B3B3B3" height="2" stroke-width="0"/>
    <rect width="5" x="833.625" y="133.375" fill="#CCCCCC" height="125.972" stroke-width="0"/>
    <rect width="2.51389" x="833.625" y="133.375" fill="#B3B3B3" height="125.972" stroke-width="0"/>
    <g stroke-width="0">
     <rect width="612.417" x="177.056" y="326.972" fill="#666666" height="17.7083" stroke-width="0"/>
     <rect width="612.417" x="177.056" y="299.25" height="27.7083" stroke-width="0"/>
     <polygon fill="#1A1A1A" points="201.694,344.583,201.694,339.444,204.792,339.444,204.792,344.583,220.861,344.583,220.861,339.444,223.958,339.444,223.958,344.583,240.028,344.583,240.028,339.444,243.139,339.444,243.139,344.583,259.222,344.583,259.222,339.444,262.292,339.444,262.292,344.583,278.417,344.583,278.417,339.444,281.486,339.444,281.486,344.583,297.583,344.583,297.583,339.444,300.653,339.444,300.653,344.583,316.75,344.583,316.75,339.444,319.806,339.444,319.806,344.583,335.944,344.583,335.944,339.444,339.014,339.444,339.014,344.583,355.097,344.583,355.097,339.444,358.167,339.444,358.167,344.583,374.264,344.583,374.264,339.444,377.361,339.444,377.361,344.583,393.444,344.583,393.444,339.444,396.542,339.444,396.542,344.583,412.625,344.583,412.625,339.444,415.694,339.444,415.694,344.583,431.792,344.583,431.792,339.444,434.875,339.444,434.875,344.583,450.972,344.583,450.972,339.444,454.042,339.444,454.042,344.583,470.153,344.583,470.153,339.444,473.222,339.444,473.222,344.583,489.319,344.583,489.319,339.444,492.389,339.444,492.389,344.583,508.472,344.583,508.472,339.444,511.556,339.444,511.556,344.583,527.653,344.583,527.653,339.444,530.736,339.444,530.736,344.583,546.833,344.583,546.833,339.444,549.917,339.444,549.917,344.583,566,344.583,566,339.444,569.097,339.444,569.097,344.583,585.181,344.583,585.181,339.444,588.264,339.444,588.264,344.583,604.347,344.583,604.347,339.444,607.431,339.444,607.431,344.583,623.528,344.583,623.528,339.444,626.611,339.444,626.611,344.583,642.681,344.583,642.681,339.444,645.778,339.444,645.778,344.583,661.875,344.583,661.875,339.444,664.958,339.444,664.958,344.583,681.042,344.583,681.042,339.444,684.139,339.444,684.139,344.583,700.222,344.583,700.222,339.444,703.306,339.444,703.306,344.583,719.389,344.583,719.389,339.444,722.486,339.444,722.486,344.583,738.569,344.583,738.569,339.444,741.653,339.444,741.653,344.583,757.736,344.583,757.736,339.444,760.819,339.444,760.819,344.583,789.472,344.583,789.472,326.444,177.056,326.444,177.056,344.583" stroke-width="0"/>
     <polygon fill="#333333" points="201.694,344.583,201.694,331.931,204.792,331.931,204.792,344.583,220.861,344.583,220.861,331.931,223.958,331.931,223.958,344.583,240.028,344.583,240.028,331.931,243.139,331.931,243.139,344.583,259.222,344.583,259.222,331.931,262.292,331.931,262.292,344.583,278.417,344.583,278.417,331.931,281.486,331.931,281.486,344.583,297.583,344.583,297.583,331.931,300.653,331.931,300.653,344.583,316.75,344.583,316.75,331.931,319.806,331.931,319.806,344.583,335.944,344.583,335.944,331.931,339.014,331.931,339.014,344.583,355.097,344.583,355.097,331.931,358.167,331.931,358.167,344.583,374.264,344.583,374.264,331.931,377.361,331.931,377.361,344.583,393.444,344.583,393.444,331.931,396.542,331.931,396.542,344.583,412.625,344.583,412.625,331.931,415.694,331.931,415.694,344.583,431.792,344.583,431.792,331.931,434.875,331.931,434.875,344.583,450.972,344.583,450.972,331.931,454.042,331.931,454.042,344.583,470.153,344.583,470.153,331.931,473.222,331.931,473.222,344.583,489.319,344.583,489.319,331.931,492.389,331.931,492.389,344.583,508.472,344.583,508.472,331.931,511.556,331.931,511.556,344.583,527.653,344.583,527.653,331.931,530.736,331.931,530.736,344.583,546.833,344.583,546.833,331.931,549.917,331.931,549.917,344.583,566,344.583,566,331.931,569.097,331.931,569.097,344.583,585.181,344.583,585.181,331.931,588.264,331.931,588.264,344.583,604.347,344.583,604.347,331.931,607.431,331.931,607.431,344.583,623.528,344.583,623.528,331.931,626.611,331.931,626.611,344.583,642.681,344.583,642.681,331.931,645.778,331.931,645.778,344.583,661.875,344.583,661.875,331.931,664.958,331.931,664.958,344.583,681.042,344.583,681.042,331.931,684.139,331.931,684.139,344.583,700.222,344.583,700.222,331.931,703.306,331.931,703.306,344.583,719.389,344.583,719.389,331.931,722.486,331.931,722.486,344.583,738.569,344.583,738.569,331.931,741.653,331.931,741.653,344.583,757.736,344.583,757.736,331.931,760.819,331.931,760.819,344.583,789.472,344.583,789.472,326.444,177.056,326.444,177.056,344.583" stroke-width="0"/>
    </g>
    <rect width="5" x="64.9722" y="301.778" fill="#CCCCCC" height="57.5694" stroke-width="0"/>
    <rect width="4.98611" x="902.486" y="301.778" fill="#CCCCCC" height="57.5694" stroke-width="0"/>
    <rect width="842.5" x="64.9722" y="296.764" fill="#CCCCCC" height="5" stroke-width="0"/>
    <path fill="#CCCCCC" stroke-width="0" d="M875.111,353.028L875.111,341.806c0,-3.47222,2.65278,-6.29167,5.91667,-6.29167c0,0,12.9861,0,16.4583,0s3.04167,-7.47222,3.04167,-7.47222l-37.5417,0l0,26.4028l12.4306,0C875.278,353.986,875.111,353.542,875.111,353.028z"/>
    <path fill="#CCCCCC" stroke-width="0" d="M96.8889,341.806c0,-3.47222,-2.63889,-6.29167,-5.91667,-6.29167c0,0,-12.9722,0,-16.4444,0s-3.05556,-7.47222,-3.05556,-7.47222L109.028,328.042l0,26.4028L96.6111,354.444C96.7222,353.986,96.8889,341.806,96.8889,341.806z"/>
    <path fill="#B3B3B3" stroke-width="0" d="M71.4861,330.556c0,0,-0.416667,7.47222,3.05556,7.47222s16.4444,0,16.4444,0c3.26389,0,5.91667,2.81944,5.91667,6.29167L96.9028,341.806c0,-3.47222,-2.63889,-6.29167,-5.91667,-6.29167c0,0,-12.9722,0,-16.4444,0s-3.05556,-7.47222,-3.05556,-7.47222L71.4861,330.556z"/>
    <path fill="#B3B3B3" stroke-width="0" d="M900.514,328.042c0,0,0.416667,7.47222,-3.05556,7.47222s-16.4444,0,-16.4444,0c-3.26389,0,-5.91667,2.81944,-5.91667,6.29167l0,2.51389c0,-3.47222,2.63889,-6.29167,5.91667,-6.29167c0,0,12.9722,0,16.4444,0s3.05556,-7.47222,3.05556,-7.47222L900.514,328.042z"/>
    <path fill="#999999" stroke-width="0" d="M951.611,150.167l0,-2.36111c0,-6.94444,9.34722,-12.5833,20.8333,-12.5833L972.444,108.639l-64.9722,0l0,80.7083l64.9722,0l0,-26.5972C960.944,162.75,951.611,157.125,951.611,150.167z"/>
    <path fill="#999999" stroke-width="0" d="M0,108.639l0,26.5833c11.4861,0,20.8333,5.63889,20.8333,12.5833l0,2.36111c0,6.95833,-9.34722,12.5833,-20.8333,12.5833l0,26.5972l64.9722,0L64.9722,108.639L0,108.639z"/>
    <path fill="#808080" stroke-width="0" d="M64.9722,191.444L0,191.444l0,-2.09722l64.9722,0L64.9722,191.444z"/>
    <path fill="#808080" stroke-width="0" d="M972.444,191.444l-64.9722,0l0,-2.09722l64.9722,0L972.444,191.444z"/>
    <g stroke-width="0">
     <rect width="9.30556" x="55.6667" y="108.639" fill="#B3B3B3" height="80.7083" stroke-width="0"/>
     <rect width="6.34722" x="58.625" y="108.639" fill="#CCCCCC" height="80.7083" stroke-width="0"/>
     <rect width="3.18056" x="61.7917" y="108.639" fill="#E6E6E6" height="80.7083" stroke-width="0"/>
    </g>
    <g stroke-width="0">
     <rect width="9.30556" x="907.625" y="108.639" fill="#B3B3B3" height="80.7222" stroke-width="0"/>
     <rect width="6.15278" x="907.625" y="108.639" fill="#CCCCCC" height="80.7222" stroke-width="0"/>
     <rect width="3.08333" x="907.625" y="108.639" fill="#E6E6E6" height="80.7222" stroke-width="0"/>
    </g>
    <polygon opacity="0.2" fill="#FFFFFF" points="899.167,66.875,64.9722,66.875,64.9722,58.5694,907.625,58.5694" stroke-width="0"/>
    <rect width="8.31944" x="64.9722" opacity="0.2" y="66.875" fill="#FFFFFF" height="229.889" stroke-width="0"/>
    <rect width="4.15278" x="121.819" opacity="0.3" y="123.625" fill="#FFFFFF" height="147.931" stroke-width="0"/>
    <rect width="4.15278" x="150.972" opacity="0.3" y="123.625" fill="#FFFFFF" height="147.931" stroke-width="0"/>
    <rect width="4.15278" x="817.292" opacity="0.3" y="123.625" fill="#FFFFFF" height="147.931" stroke-width="0"/>
    <rect width="4.15278" x="846.458" opacity="0.3" y="123.625" fill="#FFFFFF" height="147.931" stroke-width="0"/>
    <polygon opacity="0.2" fill="#999999" points="899.167,296.764,899.167,66.875,907.472,58.5694,907.472,296.764" stroke-width="0"/>
    <path fill="#808080" stroke-width="0" d="M20.8333,149.972l0,-2.36111c0,-6.94444,-9.34722,-12.5833,-20.8333,-12.5833l0,3.47222c11.4861,0,20.8333,5.63889,20.8333,12.5833l0,2.36111L20.8333,149.972z"/>
    <rect width="25.0139" x="125.972" y="123.625" fill="#CCCCCC" height="3.44444" stroke-width="0"/>
    <rect width="25" x="821.458" y="123.625" fill="#CCCCCC" height="3.44444" stroke-width="0"/>
    <rect width="64.9722" x="0" opacity="0.2" y="108.639" fill="#F2F2F2" height="5.125" stroke-width="0"/>
    <rect width="64.9722" x="907.472" opacity="0.2" y="108.639" fill="#F2F2F2" height="5.125" stroke-width="0"/>
   </g>
  </g>
  <g transform="translate(34.035,734.05)">
   <rect width="31.93" x="0" y="0" fill="#8D8C8C" height="31.9" id="connector0pin" stroke-width="0"/>
   <rect width="16.4442" x="7.79153" y="7.73544" fill="#8C8663" height="16.4152" stroke-width="0"/>
   <polygon fill="#B8AF82" points="0,31.9,7.79153,24.1368,7.79153,6.97162,0,0" stroke-width="0"/>
   <polygon fill="#80795B" points="24.2079,7.76321,7.90264,7.76321,0,0,31.93,0" stroke-width="0"/>
   <polygon fill="#5E5B43" points="24.2079,24.1368,24.2079,7.76321,31.93,0,31.93,31.9" stroke-width="0"/>
   <polygon fill="#9A916C" points="0,31.9,7.87486,24.1368,24.2079,24.1368,31.93,31.9" stroke-width="0"/>
  </g>
  <g transform="translate(34.035,34.05)">
   <rect width="31.93" x="0" y="0" fill="#8D8C8C" height="31.9" id="connector31pin" stroke-width="0"/>
   <rect width="16.4442" x="7.79153" y="7.73544" fill="#8C8663" height="16.4152" stroke-width="0"/>
   <polygon fill="#B8AF82" points="0,31.9,7.79153,24.1368,7.79153,6.97162,0,0" stroke-width="0"/>
   <polygon fill="#80795B" points="24.2079,7.76321,7.90264,7.76321,0,0,31.93,0" stroke-width="0"/>
   <polygon fill="#5E5B43" points="24.2079,24.1368,24.2079,7.76321,31.93,0,31.93,31.9" stroke-width="0"/>
   <polygon fill="#9A916C" points="0,31.9,7.87486,24.1368,24.2079,24.1368,31.93,31.9" stroke-width="0"/>
  </g>
  <g transform="translate(134.035,734.05)">
   <rect width="31.93" x="0" y="0" fill="#8D8C8C" height="31.9" id="connector1pin" stroke-width="0"/>
   <rect width="16.4442" x="7.79153" y="7.73544" fill="#8C8663" height="16.4152" stroke-width="0"/>
   <polygon fill="#B8AF82" points="0,31.9,7.79153,24.1368,7.79153,6.97162,0,0" stroke-width="0"/>
   <polygon fill="#80795B" points="24.2079,7.76321,7.90264,7.76321,0,0,31.93,0" stroke-width="0"/>
   <polygon fill="#5E5B43" points="24.2079,24.1368,24.2079,7.76321,31.93,0,31.93,31.9" stroke-width="0"/>
   <polygon fill="#9A916C" points="0,31.9,7.87486,24.1368,24.2079,24.1368,31.93,31.9" stroke-width="0"/>
  </g>
  <g transform="translate(134.035,34.05)">
   <rect width="31.93" x="0" y="0" fill="#8D8C8C" height="31.9" id="connector30pin" stroke-width="0"/>
   <rect width="16.4442" x="7.79153" y="7.73544" fill="#8C8663" height="16.4152" stroke-width="0"/>
   <polygon fill="#B8AF82" points="0,31.9,7.79153,24.1368,7.79153,6.97162,0,0" stroke-width="0"/>
   <polygon fill="#80795B" points="24.2079,7.76321,7.90264,7.76321,0,0,31.93,0" stroke-width="0"/>
   <polygon fill="#5E5B43" points="24.2079,24.1368,24.2079,7.76321,31.93,0,31.93,31.9" stroke-width="0"/>
   <polygon fill="#9A916C" points="0,31.9,7.87486,24.1368,24.2079,24.1368,31.93,31.9" stroke-width="0"/>
  </g>
  <g transform="translate(234.035,734.05)">
   <rect width="31.93" x="0" y="0" fill="#8D8C8C" height="31.9" id="connector2pin" stroke-width="0"/>
   <rect width="16.4442" x="7.79153" y="7.73544" fill="#8C8663" height="16.4152" stroke-width="0"/>
   <polygon fill="#B8AF82" points="0,31.9,7.79153,24.1368,7.79153,6.97162,0,0" stroke-width="0"/>
   <polygon fill="#80795B" points="24.2079,7.76321,7.90264,7.76321,0,0,31.93,0" stroke-width="0"/>
   <polygon fill="#5E5B43" points="24.2079,24.1368,24.2079,7.76321,31.93,0,31.93,31.9" stroke-width="0"/>
   <polygon fill="#9A916C" points="0,31.9,7.87486,24.1368,24.2079,24.1368,31.93,31.9" stroke-width="0"/>
  </g>
  <g transform="translate(234.035,34.05)">
   <rect width="31.93" x="0" y="0" fill="#8D8C8C" height="31.9" id="connector29pin" stroke-width="0"/>
   <rect width="16.4442" x="7.79153" y="7.73544" fill="#8C8663" height="16.4152" stroke-width="0"/>
   <polygon fill="#B8AF82" points="0,31.9,7.79153,24.1368,7.79153,6.97162,0,0" stroke-width="0"/>
   <polygon fill="#80795B" points="24.2079,7.76321,7.90264,7.76321,0,0,31.93,0" stroke-width="0"/>
   <polygon fill="#5E5B43" points="24.2079,24.1368,24.2079,7.76321,31.93,0,31.93,31.9" stroke-width="0"/>
   <polygon fill="#9A916C" points="0,31.9,7.87486,24.1368,24.2079,24.1368,31.93,31.9" stroke-width="0"/>
  </g>
  <g transform="translate(334.035,734.05)">
   <rect width="31.93" x="0" y="0" fill="#8D8C8C" height="31.9" id="connector3pin" stroke-width="0"/>
   <rect width="16.4442" x="7.79153" y="7.73544" fill="#8C8663" height="16.4152" stroke-width="0"/>
   <polygon fill="#B8AF82" points="0,31.9,7.79153,24.1368,7.79153,6.97162,0,0" stroke-width="0"/>
   <polygon fill="#80795B" points="24.2079,7.76321,7.90264,7.76321,0,0,31.93,0" stroke-width="0"/>
   <polygon fill="#5E5B43" points="24.2079,24.1368,24.2079,7.76321,31.93,0,31.93,31.9" stroke-width="0"/>
   <polygon fill="#9A916C" points="0,31.9,7.87486,24.1368,24.2079,24.1368,31.93,31.9" stroke-width="0"/>
  </g>
  <g transform="translate(334.035,34.05)">
   <rect width="31.93" x="0" y="0" fill="#8D8C8C" height="31.9" id="connector28pin" stroke-width="0"/>
   <rect width="16.4442" x="7.79153" y="7.73544" fill="#8C8663" height="16.4152" stroke-width="0"/>
   <polygon fill="#B8AF82" points="0,31.9,7.79153,24.1368,7.79153,6.97162,0,0" stroke-width="0"/>
   <polygon fill="#80795B" points="24.2079,7.76321,7.90264,7.76321,0,0,31.93,0" stroke-width="0"/>
   <polygon fill="#5E5B43" points="24.2079,24.1368,24.2079,7.76321,31.93,0,31.93,31.9" stroke-width="0"/>
   <polygon fill="#9A916C" points="0,31.9,7.87486,24.1368,24.2079,24.1368,31.93,31.9" stroke-width="0"/>
  </g>
  <g transform="translate(434.035,734.05)">
   <rect width="31.93" x="0" y="0" fill="#8D8C8C" height="31.9" id="connector4pin" stroke-width="0"/>
   <rect width="16.4442" x="7.79153" y="7.73544" fill="#8C8663" height="16.4152" stroke-width="0"/>
   <polygon fill="#B8AF82" points="0,31.9,7.79153,24.1368,7.79153,6.97162,0,0" stroke-width="0"/>
   <polygon fill="#80795B" points="24.2079,7.76321,7.90264,7.76321,0,0,31.93,0" stroke-width="0"/>
   <polygon fill="#5E5B43" points="24.2079,24.1368,24.2079,7.76321,31.93,0,31.93,31.9" stroke-width="0"/>
   <polygon fill="#9A916C" points="0,31.9,7.87486,24.1368,24.2079,24.1368,31.93,31.9" stroke-width="0"/>
  </g>
  <g transform="translate(434.035,34.05)">
   <rect width="31.93" x="0" y="0" fill="#8D8C8C" height="31.9" id="connector27pin" stroke-width="0"/>
   <rect width="16.4442" x="7.79153" y="7.73544" fill="#8C8663" height="16.4152" stroke-width="0"/>
   <polygon fill="#B8AF82" points="0,31.9,7.79153,24.1368,7.79153,6.97162,0,0" stroke-width="0"/>
   <polygon fill="#80795B" points="24.2079,7.76321,7.90264,7.76321,0,0,31.93,0" stroke-width="0"/>
   <polygon fill="#5E5B43" points="24.2079,24.1368,24.2079,7.76321,31.93,0,31.93,31.9" stroke-width="0"/>
   <polygon fill="#9A916C" points="0,31.9,7.87486,24.1368,24.2079,24.1368,31.93,31.9" stroke-width="0"/>
  </g>
  <g transform="translate(534.035,734.05)">
   <rect width="31.93" x="0" y="0" fill="#8D8C8C" height="31.9" id="connector5pin" stroke-width="0"/>
   <rect width="16.4442" x="7.79153" y="7.73544" fill="#8C8663" height="16.4152" stroke-width="0"/>
   <polygon fill="#B8AF82" points="0,31.9,7.79153,24.1368,7.79153,6.97162,0,0" stroke-width="0"/>
   <polygon fill="#80795B" points="24.2079,7.76321,7.90264,7.76321,0,0,31.93,0" stroke-width="0"/>
   <polygon fill="#5E5B43" points="24.2079,24.1368,24.2079,7.76321,31.93,0,31.93,31.9" stroke-width="0"/>
   <polygon fill="#9A916C" points="0,31.9,7.87486,24.1368,24.2079,24.1368,31.93,31.9" stroke-width="0"/>
  </g>
  <g transform="translate(534.035,34.05)">
   <rect width="31.93" x="0" y="0" fill="#8D8C8C" height="31.9" id="connector26pin" stroke-width="0"/>
   <rect width="16.4442" x="7.79153" y="7.73544" fill="#8C8663" height="16.4152" stroke-width="0"/>
   <polygon fill="#B8AF82" points="0,31.9,7.79153,24.1368,7.79153,6.97162,0,0" stroke-width="0"/>
   <polygon fill="#80795B" points="24.2079,7.76321,7.90264,7.76321,0,0,31.93,0" stroke-width="0"/>
   <polygon fill="#5E5B43" points="24.2079,24.1368,24.2079,7.76321,31.93,0,31.93,31.9" stroke-width="0"/>
   <polygon fill="#9A916C" points="0,31.9,7.87486,24.1368,24.2079,24.1368,31.93,31.9" stroke-width="0"/>
  </g>
  <g transform="translate(634.035,734.05)">
   <rect width="31.93" x="0" y="0" fill="#8D8C8C" height="31.9" id="connector6pin" stroke-width="0"/>
   <rect width="16.4442" x="7.79153" y="7.73544" fill="#8C8663" height="16.4152" stroke-width="0"/>
   <polygon fill="#B8AF82" points="0,31.9,7.79153,24.1368,7.79153,6.97162,0,0" stroke-width="0"/>
   <polygon fill="#80795B" points="24.2079,7.76321,7.90264,7.76321,0,0,31.93,0" stroke-width="0"/>
   <polygon fill="#5E5B43" points="24.2079,24.1368,24.2079,7.76321,31.93,0,31.93,31.9" stroke-width="0"/>
   <polygon fill="#9A916C" points="0,31.9,7.87486,24.1368,24.2079,24.1368,31.93,31.9" stroke-width="0"/>
  </g>
  <g transform="translate(634.035,34.05)">
   <rect width="31.93" x="0" y="0" fill="#8D8C8C" height="31.9" id="connector25pin" stroke-width="0"/>
   <rect width="16.4442" x="7.79153" y="7.73544" fill="#8C8663" height="16.4152" stroke-width="0"/>
   <polygon fill="#B8AF82" points="0,31.9,7.79153,24.1368,7.79153,6.97162,0,0" stroke-width="0"/>
   <polygon fill="#80795B" points="24.2079,7.76321,7.90264,7.76321,0,0,31.93,0" stroke-width="0"/>
   <polygon fill="#5E5B43" points="24.2079,24.1368,24.2079,7.76321,31.93,0,31.93,31.9" stroke-width="0"/>
   <polygon fill="#9A916C" points="0,31.9,7.87486,24.1368,24.2079,24.1368,31.93,31.9" stroke-width="0"/>
  </g>
  <g transform="translate(734.035,734.05)">
   <rect width="31.93" x="0" y="0" fill="#8D8C8C" height="31.9" id="connector7pin" stroke-width="0"/>
   <rect width="16.4442" x="7.79153" y="7.73544" fill="#8C8663" height="16.4152" stroke-width="0"/>
   <polygon fill="#B8AF82" points="0,31.9,7.79153,24.1368,7.79153,6.97162,0,0" stroke-width="0"/>
   <polygon fill="#80795B" points="24.2079,7.76321,7.90264,7.76321,0,0,31.93,0" stroke-width="0"/>
   <polygon fill="#5E5B43" points="24.2079,24.1368,24.2079,7.76321,31.93,0,31.93,31.9" stroke-width="0"/>
   <polygon fill="#9A916C" points="0,31.9,7.87486,24.1368,24.2079,24.1368,31.93,31.9" stroke-width="0"/>
  </g>
  <g transform="translate(734.035,34.05)">
   <rect width="31.93" x="0" y="0" fill="#8D8C8C" height="31.9" id="connector24pin" stroke-width="0"/>
   <rect width="16.4442" x="7.79153" y="7.73544" fill="#8C8663" height="16.4152" stroke-width="0"/>
   <polygon fill="#B8AF82" points="0,31.9,7.79153,24.1368,7.79153,6.97162,0,0" stroke-width="0"/>
   <polygon fill="#80795B" points="24.2079,7.76321,7.90264,7.76321,0,0,31.93,0" stroke-width="0"/>
   <polygon fill="#5E5B43" points="24.2079,24.1368,24.2079,7.76321,31.93,0,31.93,31.9" stroke-width="0"/>
   <polygon fill="#9A916C" points="0,31.9,7.87486,24.1368,24.2079,24.1368,31.93,31.9" stroke-width="0"/>
  </g>
  <g transform="translate(834.035,734.05)">
   <rect width="31.93" x="0" y="0" fill="#8D8C8C" height="31.9" id="connector8pin" stroke-width="0"/>
   <rect width="16.4442" x="7.79153" y="7.73544" fill="#8C8663" height="16.4152" stroke-width="0"/>
   <polygon fill="#B8AF82" points="0,31.9,7.79153,24.1368,7.79153,6.97162,0,0" stroke-width="0"/>
   <polygon fill="#80795B" points="24.2079,7.76321,7.90264,7.76321,0,0,31.93,0" stroke-width="0"/>
   <polygon fill="#5E5B43" points="24.2079,24.1368,24.2079,7.76321,31.93,0,31.93,31.9" stroke-width="0"/>
   <polygon fill="#9A916C" points="0,31.9,7.87486,24.1368,24.2079,24.1368,31.93,31.9" stroke-width="0"/>
  </g>
  <g transform="translate(834.035,34.05)">
   <rect width="31.93" x="0" y="0" fill="#8D8C8C" height="31.9" id="connector23pin" stroke-width="0"/>
   <rect width="16.4442" x="7.79153" y="7.73544" fill="#8C8663" height="16.4152" stroke-width="0"/>
   <polygon fill="#B8AF82" points="0,31.9,7.79153,24.1368,7.79153,6.97162,0,0" stroke-width="0"/>
   <polygon fill="#80795B" points="24.2079,7.76321,7.90264,7.76321,0,0,31.93,0" stroke-width="0"/>
   <polygon fill="#5E5B43" points="24.2079,24.1368,24.2079,7.76321,31.93,0,31.93,31.9" stroke-width="0"/>
   <polygon fill="#9A916C" points="0,31.9,7.87486,24.1368,24.2079,24.1368,31.93,31.9" stroke-width="0"/>
  </g>
  <g transform="translate(934.035,734.05)">
   <rect width="31.93" x="0" y="0" fill="#8D8C8C" height="31.9" id="connector9pin" stroke-width="0"/>
   <rect width="16.4442" x="7.79153" y="7.73544" fill="#8C8663" height="16.4152" stroke-width="0"/>
   <polygon fill="#B8AF82" points="0,31.9,7.79153,24.1368,7.79153,6.97162,0,0" stroke-width="0"/>
   <polygon fill="#80795B" points="24.2079,7.76321,7.90264,7.76321,0,0,31.93,0" stroke-width="0"/>
   <polygon fill="#5E5B43" points="24.2079,24.1368,24.2079,7.76321,31.93,0,31.93,31.9" stroke-width="0"/>
   <polygon fill="#9A916C" points="0,31.9,7.87486,24.1368,24.2079,24.1368,31.93,31.9" stroke-width="0"/>
  </g>
  <g transform="translate(934.035,34.05)">
   <rect width="31.93" x="0" y="0" fill="#8D8C8C" height="31.9" id="connector22pin" stroke-width="0"/>
   <rect width="16.4442" x="7.79153" y="7.73544" fill="#8C8663" height="16.4152" stroke-width="0"/>
   <polygon fill="#B8AF82" points="0,31.9,7.79153,24.1368,7.79153,6.97162,0,0" stroke-width="0"/>
   <polygon fill="#80795B" points="24.2079,7.76321,7.90264,7.76321,0,0,31.93,0" stroke-width="0"/>
   <polygon fill="#5E5B43" points="24.2079,24.1368,24.2079,7.76321,31.93,0,31.93,31.9" stroke-width="0"/>
   <polygon fill="#9A916C" points="0,31.9,7.87486,24.1368,24.2079,24.1368,31.93,31.9" stroke-width="0"/>
  </g>
  <g transform="translate(1034.04,734.05)">
   <rect width="31.93" x="0" y="0" fill="#8D8C8C" height="31.9" id="connector10pin" stroke-width="0"/>
   <rect width="16.4442" x="7.79153" y="7.73544" fill="#8C8663" height="16.4152" stroke-width="0"/>
   <polygon fill="#B8AF82" points="0,31.9,7.79153,24.1368,7.79153,6.97162,0,0" stroke-width="0"/>
   <polygon fill="#80795B" points="24.2079,7.76321,7.90264,7.76321,0,0,31.93,0" stroke-width="0"/>
   <polygon fill="#5E5B43" points="24.2079,24.1368,24.2079,7.76321,31.93,0,31.93,31.9" stroke-width="0"/>
   <polygon fill="#9A916C" points="0,31.9,7.87486,24.1368,24.2079,24.1368,31.93,31.9" stroke-width="0"/>
  </g>
  <g transform="translate(1034.04,34.05)">
   <rect width="31.93" x="0" y="0" fill="#8D8C8C" height="31.9" id="connector21pin" stroke-width="0"/>
   <rect width="16.4442" x="7.79153" y="7.73544" fill="#8C8663" height="16.4152" stroke-width="0"/>
   <polygon fill="#B8AF82" points="0,31.9,7.79153,24.1368,7.79153,6.97162,0,0" stroke-width="0"/>
   <polygon fill="#80795B" points="24.2079,7.76321,7.90264,7.76321,0,0,31.93,0" stroke-width="0"/>
   <polygon fill="#5E5B43" points="24.2079,24.1368,24.2079,7.76321,31.93,0,31.93,31.9" stroke-width="0"/>
   <polygon fill="#9A916C" points="0,31.9,7.87486,24.1368,24.2079,24.1368,31.93,31.9" stroke-width="0"/>
  </g>
  <g transform="translate(1134.04,734.05)">
   <rect width="31.93" x="0" y="0" fill="#8D8C8C" height="31.9" id="connector11pin" stroke-width="0"/>
   <rect width="16.4442" x="7.79153" y="7.73544" fill="#8C8663" height="16.4152" stroke-width="0"/>
   <polygon fill="#B8AF82" points="0,31.9,7.79153,24.1368,7.79153,6.97162,0,0" stroke-width="0"/>
   <polygon fill="#80795B" points="24.2079,7.76321,7.90264,7.76321,0,0,31.93,0" stroke-width="0"/>
   <polygon fill="#5E5B43" points="24.2079,24.1368,24.2079,7.76321,31.93,0,31.93,31.9" stroke-width="0"/>
   <polygon fill="#9A916C" points="0,31.9,7.87486,24.1368,24.2079,24.1368,31.93,31.9" stroke-width="0"/>
  </g>
  <g transform="translate(1134.04,34.05)">
   <rect width="31.93" x="0" y="0" fill="#8D8C8C" height="31.9" id="connector20pin" stroke-width="0"/>
   <rect width="16.4442" x="7.79153" y="7.73544" fill="#8C8663" height="16.4152" stroke-width="0"/>
   <polygon fill="#B8AF82" points="0,31.9,7.79153,24.1368,7.79153,6.97162,0,0" stroke-width="0"/>
   <polygon fill="#80795B" points="24.2079,7.76321,7.90264,7.76321,0,0,31.93,0" stroke-width="0"/>
   <polygon fill="#5E5B43" points="24.2079,24.1368,24.2079,7.76321,31.93,0,31.93,31.9" stroke-width="0"/>
   <polygon fill="#9A916C" points="0,31.9,7.87486,24.1368,24.2079,24.1368,31.93,31.9" stroke-width="0"/>
  </g>
  <g transform="translate(1234.04,734.05)">
   <rect width="31.93" x="0" y="0" fill="#8D8C8C" height="31.9" id="connector12pin" stroke-width="0"/>
   <rect width="16.4442" x="7.79153" y="7.73544" fill="#8C8663" height="16.4152" stroke-width="0"/>
   <polygon fill="#B8AF82" points="0,31.9,7.79153,24.1368,7.79153,6.97162,0,0" stroke-width="0"/>
   <polygon fill="#80795B" points="24.2079,7.76321,7.90264,7.76321,0,0,31.93,0" stroke-width="0"/>
   <polygon fill="#5E5B43" points="24.2079,24.1368,24.2079,7.76321,31.93,0,31.93,31.9" stroke-width="0"/>
   <polygon fill="#9A916C" points="0,31.9,7.87486,24.1368,24.2079,24.1368,31.93,31.9" stroke-width="0"/>
  </g>
  <g transform="translate(1234.04,34.05)">
   <rect width="31.93" x="0" y="0" fill="#8D8C8C" height="31.9" id="connector19pin" stroke-width="0"/>
   <rect width="16.4442" x="7.79153" y="7.73544" fill="#8C8663" height="16.4152" stroke-width="0"/>
   <polygon fill="#B8AF82" points="0,31.9,7.79153,24.1368,7.79153,6.97162,0,0" stroke-width="0"/>
   <polygon fill="#80795B" points="24.2079,7.76321,7.90264,7.76321,0,0,31.93,0" stroke-width="0"/>
   <polygon fill="#5E5B43" points="24.2079,24.1368,24.2079,7.76321,31.93,0,31.93,31.9" stroke-width="0"/>
   <polygon fill="#9A916C" points="0,31.9,7.87486,24.1368,24.2079,24.1368,31.93,31.9" stroke-width="0"/>
  </g>
  <g transform="translate(1334.04,734.05)">
   <rect width="31.93" x="0" y="0" fill="#8D8C8C" height="31.9" id="connector13pin" stroke-width="0"/>
   <rect width="16.4442" x="7.79153" y="7.73544" fill="#8C8663" height="16.4152" stroke-width="0"/>
   <polygon fill="#B8AF82" points="0,31.9,7.79153,24.1368,7.79153,6.97162,0,0" stroke-width="0"/>
   <polygon fill="#80795B" points="24.2079,7.76321,7.90264,7.76321,0,0,31.93,0" stroke-width="0"/>
   <polygon fill="#5E5B43" points="24.2079,24.1368,24.2079,7.76321,31.93,0,31.93,31.9" stroke-width="0"/>
   <polygon fill="#9A916C" points="0,31.9,7.87486,24.1368,24.2079,24.1368,31.93,31.9" stroke-width="0"/>
  </g>
  <g transform="translate(1334.04,34.05)">
   <rect width="31.93" x="0" y="0" fill="#8D8C8C" height="31.9" id="connector18pin" stroke-width="0"/>
   <rect width="16.4442" x="7.79153" y="7.73544" fill="#8C8663" height="16.4152" stroke-width="0"/>
   <polygon fill="#B8AF82" points="0,31.9,7.79153,24.1368,7.79153,6.97162,0,0" stroke-width="0"/>
   <polygon fill="#80795B" points="24.2079,7.76321,7.90264,7.76321,0,0,31.93,0" stroke-width="0"/>
   <polygon fill="#5E5B43" points="24.2079,24.1368,24.2079,7.76321,31.93,0,31.93,31.9" stroke-width="0"/>
   <polygon fill="#9A916C" points="0,31.9,7.87486,24.1368,24.2079,24.1368,31.93,31.9" stroke-width="0"/>
  </g>
  <g transform="translate(1434.04,734.05)">
   <rect width="31.93" x="0" y="0" fill="#8D8C8C" height="31.9" id="connector14pin" stroke-width="0"/>
   <rect width="16.4442" x="7.79153" y="7.73544" fill="#8C8663" height="16.4152" stroke-width="0"/>
   <polygon fill="#B8AF82" points="0,31.9,7.79153,24.1368,7.79153,6.97162,0,0" stroke-width="0"/>
   <polygon fill="#80795B" points="24.2079,7.76321,7.90264,7.76321,0,0,31.93,0" stroke-width="0"/>
   <polygon fill="#5E5B43" points="24.2079,24.1368,24.2079,7.76321,31.93,0,31.93,31.9" stroke-width="0"/>
   <polygon fill="#9A916C" points="0,31.9,7.87486,24.1368,24.2079,24.1368,31.93,31.9" stroke-width="0"/>
  </g>
  <g transform="translate(1434.04,34.05)">
   <rect width="31.93" x="0" y="0" fill="#8D8C8C" height="31.9" id="connector17pin" stroke-width="0"/>
   <rect width="16.4442" x="7.79153" y="7.73544" fill="#8C8663" height="16.4152" stroke-width="0"/>
   <polygon fill="#B8AF82" points="0,31.9,7.79153,24.1368,7.79153,6.97162,0,0" stroke-width="0"/>
   <polygon fill="#80795B" points="24.2079,7.76321,7.90264,7.76321,0,0,31.93,0" stroke-width="0"/>
   <polygon fill="#5E5B43" points="24.2079,24.1368,24.2079,7.76321,31.93,0,31.93,31.9" stroke-width="0"/>
   <polygon fill="#9A916C" points="0,31.9,7.87486,24.1368,24.2079,24.1368,31.93,31.9" stroke-width="0"/>
  </g>
  <g transform="translate(1534.04,734.05)">
   <rect width="31.93" x="0" y="0" fill="#8D8C8C" height="31.9" id="connector15pin" stroke-width="0"/>
   <rect width="16.4442" x="7.79153" y="7.73544" fill="#8C8663" height="16.4152" stroke-width="0"/>
   <polygon fill="#B8AF82" points="0,31.9,7.79153,24.1368,7.79153,6.97162,0,0" stroke-width="0"/>
   <polygon fill="#80795B" points="24.2079,7.76321,7.90264,7.76321,0,0,31.93,0" stroke-width="0"/>
   <polygon fill="#5E5B43" points="24.2079,24.1368,24.2079,7.76321,31.93,0,31.93,31.9" stroke-width="0"/>
   <polygon fill="#9A916C" points="0,31.9,7.87486,24.1368,24.2079,24.1368,31.93,31.9" stroke-width="0"/>
  </g>
  <g transform="translate(1534.04,34.05)">
   <rect width="31.93" x="0" y="0" fill="#8D8C8C" height="31.9" id="connector16pin" stroke-width="0"/>
   <rect width="16.4442" x="7.79153" y="7.73544" fill="#8C8663" height="16.4152" stroke-width="0"/>
   <polygon fill="#B8AF82" points="0,31.9,7.79153,24.1368,7.79153,6.97162,0,0" stroke-width="0"/>
   <polygon fill="#80795B" points="24.2079,7.76321,7.90264,7.76321,0,0,31.93,0" stroke-width="0"/>
   <polygon fill="#5E5B43" points="24.2079,24.1368,24.2079,7.76321,31.93,0,31.93,31.9" stroke-width="0"/>
   <polygon fill="#9A916C" points="0,31.9,7.87486,24.1368,24.2079,24.1368,31.93,31.9" stroke-width="0"/>
  </g>
 </g>
 <text x="50" y="424.375" font-family="OCRA" fill="white" text-anchor="start" stroke="none" id="label" stroke-width="0" font-size="65"/>
 <g transform="translate(63.5,726.05)">
  <g transform="rotate(-90)">
   <text x="0" y="0" font-family="OCRA" fill="white" text-anchor="start" stroke="none" stroke-width="0" font-size="45"/>
  </g>
 </g>
 <g transform="translate(63.5,73.95)">
  <g transform="rotate(-90)">
   <text x="0" y="0" font-family="OCRA" fill="white" text-anchor="end" stroke="none" stroke-width="0" font-size="45"/>
  </g>
 </g>
 <g transform="translate(163.5,726.05)">
  <g transform="rotate(-90)">
   <text x="0" y="0" font-family="OCRA" fill="white" text-anchor="start" stroke="none" stroke-width="0" font-size="45"/>
  </g>
 </g>
 <g transform="translate(163.5,73.95)">
  <g transform="rotate(-90)">
   <text x="0" y="0" font-family="OCRA" fill="white" text-anchor="end" stroke="none" stroke-width="0" font-size="45"/>
  </g>
 </g>
 <g transform="translate(263.5,726.05)">
  <g transform="rotate(-90)">
   <text x="0" y="0" font-family="OCRA" fill="white" text-anchor="start" stroke="none" stroke-width="0" font-size="45"/>
  </g>
 </g>
 <g transform="translate(263.5,73.95)">
  <g transform="rotate(-90)">
   <text x="0" y="0" font-family="OCRA" fill="white" text-anchor="end" stroke="none" stroke-width="0" font-size="45"/>
  </g>
 </g>
 <g transform="translate(363.5,726.05)">
  <g transform="rotate(-90)">
   <text x="0" y="0" font-family="OCRA" fill="white" text-anchor="start" stroke="none" stroke-width="0" font-size="45"/>
  </g>
 </g>
 <g transform="translate(363.5,73.95)">
  <g transform="rotate(-90)">
   <text x="0" y="0" font-family="OCRA" fill="white" text-anchor="end" stroke="none" stroke-width="0" font-size="45"/>
  </g>
 </g>
 <g transform="translate(463.5,726.05)">
  <g transform="rotate(-90)">
   <text x="0" y="0" font-family="OCRA" fill="white" text-anchor="start" stroke="none" stroke-width="0" font-size="45"/>
  </g>
 </g>
 <g transform="translate(463.5,73.95)">
  <g transform="rotate(-90)">
   <text x="0" y="0" font-family="OCRA" fill="white" text-anchor="end" stroke="none" stroke-width="0" font-size="45"/>
  </g>
 </g>
 <g transform="translate(563.5,726.05)">
  <g transform="rotate(-90)">
   <text x="0" y="0" font-family="OCRA" fill="white" text-anchor="start" stroke="none" stroke-width="0" font-size="45"/>
  </g>
 </g>
 <g transform="translate(563.5,73.95)">
  <g transform="rotate(-90)">
   <text x="0" y="0" font-family="OCRA" fill="white" text-anchor="end" stroke="none" stroke-width="0" font-size="45"/>
  </g>
 </g>
 <g transform="translate(663.5,726.05)">
  <g transform="rotate(-90)">
   <text x="0" y="0" font-family="OCRA" fill="white" text-anchor="start" stroke="none" stroke-width="0" font-size="45"/>
  </g>
 </g>
 <g transform="translate(663.5,73.95)">
  <g transform="rotate(-90)">
   <text x="0" y="0" font-family="OCRA" fill="white" text-anchor="end" stroke="none" stroke-width="0" font-size="45"/>
  </g>
 </g>
 <g transform="translate(763.5,726.05)">
  <g transform="rotate(-90)">
   <text x="0" y="0" font-family="OCRA" fill="white" text-anchor="start" stroke="none" stroke-width="0" font-size="45"/>
  </g>
 </g>
 <g transform="translate(763.5,73.95)">
  <g transform="rotate(-90)">
   <text x="0" y="0" font-family="OCRA" fill="white" text-anchor="end" stroke="none" stroke-width="0" font-size="45"/>
  </g>
 </g>
 <g transform="translate(863.5,726.05)">
  <g transform="rotate(-90)">
   <text x="0" y="0" font-family="OCRA" fill="white" text-anchor="start" stroke="none" stroke-width="0" font-size="45"/>
  </g>
 </g>
 <g transform="translate(863.5,73.95)">
  <g transform="rotate(-90)">
   <text x="0" y="0" font-family="OCRA" fill="white" text-anchor="end" stroke="none" stroke-width="0" font-size="45"/>
  </g>
 </g>
 <g transform="translate(963.5,726.05)">
  <g transform="rotate(-90)">
   <text x="0" y="0" font-family="OCRA" fill="white" text-anchor="start" stroke="none" stroke-width="0" font-size="45"/>
  </g>
 </g>
 <g transform="translate(963.5,73.95)">
  <g transform="rotate(-90)">
   <text x="0" y="0" font-family="OCRA" fill="white" text-anchor="end" stroke="none" stroke-width="0" font-size="45"/>
  </g>
 </g>
 <g transform="translate(1063.5,726.05)">
  <g transform="rotate(-90)">
   <text x="0" y="0" font-family="OCRA" fill="white" text-anchor="start" stroke="none" stroke-width="0" font-size="45"/>
  </g>
 </g>
 <g transform="translate(1063.5,73.95)">
  <g transform="rotate(-90)">
   <text x="0" y="0" font-family="OCRA" fill="white" text-anchor="end" stroke="none" stroke-width="0" font-size="45"/>
  </g>
 </g>
 <g transform="translate(1163.5,726.05)">
  <g transform="rotate(-90)">
   <text x="0" y="0" font-family="OCRA" fill="white" text-anchor="start" stroke="none" stroke-width="0" font-size="45"/>
  </g>
 </g>
 <g transform="translate(1163.5,73.95)">
  <g transform="rotate(-90)">
   <text x="0" y="0" font-family="OCRA" fill="white" text-anchor="end" stroke="none" stroke-width="0" font-size="45"/>
  </g>
 </g>
 <g transform="translate(1263.5,726.05)">
  <g transform="rotate(-90)">
   <text x="0" y="0" font-family="OCRA" fill="white" text-anchor="start" stroke="none" stroke-width="0" font-size="45"/>
  </g>
 </g>
 <g transform="translate(1263.5,73.95)">
  <g transform="rotate(-90)">
   <text x="0" y="0" font-family="OCRA" fill="white" text-anchor="end" stroke="none" stroke-width="0" font-size="45"/>
  </g>
 </g>
 <g transform="translate(1363.5,726.05)">
  <g transform="rotate(-90)">
   <text x="0" y="0" font-family="OCRA" fill="white" text-anchor="start" stroke="none" stroke-width="0" font-size="45"/>
  </g>
 </g>
 <g transform="translate(1363.5,73.95)">
  <g transform="rotate(-90)">
   <text x="0" y="0" font-family="OCRA" fill="white" text-anchor="end" stroke="none" stroke-width="0" font-size="45"/>
  </g>
 </g>
 <g transform="translate(1463.5,726.05)">
  <g transform="rotate(-90)">
   <text x="0" y="0" font-family="OCRA" fill="white" text-anchor="start" stroke="none" stroke-width="0" font-size="45"/>
  </g>
 </g>
 <g transform="translate(1463.5,73.95)">
  <g transform="rotate(-90)">
   <text x="0" y="0" font-family="OCRA" fill="white" text-anchor="end" stroke="none" stroke-width="0" font-size="45"/>
  </g>
 </g>
 <g transform="translate(1563.5,726.05)">
  <g transform="rotate(-90)">
   <text x="0" y="0" font-family="OCRA" fill="white" text-anchor="start" stroke="none" stroke-width="0" font-size="45"/>
  </g>
 </g>
 <g transform="translate(1563.5,73.95)">
  <g transform="rotate(-90)">
   <text x="0" y="0" font-family="OCRA" fill="white" text-anchor="end" stroke="none" stroke-width="0" font-size="45"/>
  </g>
 </g>
</svg>
