<?xml version='1.0' encoding='UTF-8' standalone='no'?>
<!-- Created with Fritzing (http://www.fritzing.org/) -->
<svg width="0.28748in" x="0in" version="1.2" y="0in" xmlns="http://www.w3.org/2000/svg" height="0.4in" viewBox="0 0 287.48 400" baseProfile="tiny" xmlns:svg="http://www.w3.org/2000/svg">
 <desc>Fritzing breadboard generated by brd2svg</desc>
 <g id="breadboard">
  <g id="icon">
   <path fill="#1F7A34" stroke="none" stroke-width="0" d="M0,0L0,170A30,30 0 0 1 0,230L0,400L287.48,400L287.48,0L0,0z"/>
   <g transform="translate(56.2598,164.508)">
    <g transform="matrix(0.5, 0, 0, 0.5, 43.7402, 17.7461)">
     <rect width="62.9923" x="0" y="0" fill="#F7BD13" connectorname="A" height="70.9843" stroke="none" stroke-linecap="round" stroke-width="0"/>
     <rect width="62.9923" x="111.969" y="0" fill="#F7BD13" connectorname="C" height="70.9843" stroke="none" stroke-linecap="round" stroke-width="0"/>
     <rect width="47.3071" x="63.8268" y="6.08064" fill="#303030" height="58.823" stroke="none" stroke-width="0"/>
     <polygon fill="#1f1f1f" points="63.8268,6.08064 111.134,6.08064 101.134,16.0806 73.8268,16.0806"/>
     <polygon fill="#1f1f1f" points="63.8268,64.9036 111.134,64.9036 101.134,54.9036 73.8268,54.9036"/>
     <polygon fill="#000000" points="63.8268,6.08064 63.8268,64.9036 73.8268,54.9036 73.8268,16.0806"/>
     <polygon fill="#3d3d3d" points="111.134,6.08064 111.134,64.9036 101.134,54.9036 101.134,16.0806"/>
     <circle fill="#1f1f1f" cx="93.8268" cy="34.9036" stroke="none" r="10" stroke-width="0"/>
    </g>
   </g>
   <text x="50" y="224.375" font-family="OCRA" fill="white" text-anchor="start" stroke="none" id="label" stroke-width="0" font-size="65">FKIT-LED-1206</text>
   <g transform="translate(157.24,326.05)">
    <g transform="rotate(-90)">
     <text x="0" y="0" font-family="OCRA" fill="white" text-anchor="start" stroke="none" stroke-width="0" font-size="45">A</text>
    </g>
   </g>
   <g transform="translate(157.24,73.95)">
    <g transform="rotate(-90)">
     <text x="0" y="0" font-family="OCRA" fill="white" text-anchor="end" stroke="none" stroke-width="0" font-size="45">C</text>
    </g>
   </g>
  </g>
  <g transform="translate(127.775,334.05)">
   <rect width="31.93" x="0" y="0" fill="#8D8C8C" height="31.9" id="connector0pin" stroke-width="0"/>
   <rect width="16.4442" x="7.79153" y="7.73544" fill="#8C8663" height="16.4152" stroke-width="0"/>
   <polygon fill="#B8AF82" points="0,31.9,7.79153,24.1368,7.79153,6.97162,0,0" stroke-width="0"/>
   <polygon fill="#80795B" points="24.2079,7.76321,7.90264,7.76321,0,0,31.93,0" stroke-width="0"/>
   <polygon fill="#5E5B43" points="24.2079,24.1368,24.2079,7.76321,31.93,0,31.93,31.9" stroke-width="0"/>
   <polygon fill="#9A916C" points="0,31.9,7.87486,24.1368,24.2079,24.1368,31.93,31.9" stroke-width="0"/>
  </g>
  <g transform="translate(127.775,34.05)">
   <rect width="31.93" x="0" y="0" fill="#8D8C8C" height="31.9" id="connector1pin" stroke-width="0"/>
   <rect width="16.4442" x="7.79153" y="7.73544" fill="#8C8663" height="16.4152" stroke-width="0"/>
   <polygon fill="#B8AF82" points="0,31.9,7.79153,24.1368,7.79153,6.97162,0,0" stroke-width="0"/>
   <polygon fill="#80795B" points="24.2079,7.76321,7.90264,7.76321,0,0,31.93,0" stroke-width="0"/>
   <polygon fill="#5E5B43" points="24.2079,24.1368,24.2079,7.76321,31.93,0,31.93,31.9" stroke-width="0"/>
   <polygon fill="#9A916C" points="0,31.9,7.87486,24.1368,24.2079,24.1368,31.93,31.9" stroke-width="0"/>
  </g>
 </g>
</svg>
