<?xml version='1.0' encoding='UTF-8' standalone='no'?>
<!-- Created with Fritzing (http://www.fritzing.org/) -->
<svg width="1.4206in" x="0in" version="1.2" y="0in" xmlns="http://www.w3.org/2000/svg" height="0.8in" viewBox="0 0 1420.6 800" baseProfile="tiny" xmlns:svg="http://www.w3.org/2000/svg">
 <desc>Fritzing breadboard generated by brd2svg</desc>
 <g id="breadboard">
  <g id="icon">
   <path fill="#1F7A34" stroke="none" stroke-width="0" d="M0,0L0,370A30,30 0 0 1 0,430L0,800L1420.6,800L1420.6,0L0,0z"/>
   <g transform="translate(100,173.055)">
    <g stroke-width="0">
     <path fill="#B3B3B3" stroke-width="0" d="M0,112.722l0,283.569l348.278,0L348.278,112.722L0,112.722zM141.778,321.806c-37.1806,0,-67.3056,-30.1111,-67.3056,-67.3333c0,-37.1667,30.125,-67.2917,67.3056,-67.2917c37.1806,0,67.3056,30.125,67.3056,67.2917C209.083,291.694,178.958,321.806,141.778,321.806z"/>
     <path fill="#B3B3B3" stroke-width="0" d="M872.319,112.722l0,283.569l348.278,0L1220.6,112.722L872.319,112.722zM1078.81,321.806c-37.1806,0,-67.3194,-30.1111,-67.3194,-67.3333c0,-37.1667,30.1389,-67.2917,67.3194,-67.2917c37.1667,0,67.3056,30.125,67.3056,67.2917C1146.11,291.694,1115.97,321.806,1078.81,321.806z"/>
     <path fill="#808080" stroke-width="0" d="M141.778,268.194c-27.6389,0,-51.3194,-16.6667,-61.6806,-40.4861c-3.56944,8.22222,-5.61111,17.2639,-5.61111,26.8333c0,37.1944,30.125,67.3056,67.3056,67.3056c37.1806,0,67.3056,-30.1111,67.3056,-67.3056c0,-9.55556,-2.04167,-18.6111,-5.61111,-26.8333C193.097,251.528,169.417,268.194,141.778,268.194z"/>
     <path fill="#808080" stroke-width="0" d="M1078.79,268.194c-27.625,0,-51.3056,-16.6667,-61.6667,-40.4861c-3.58333,8.22222,-5.59722,17.2639,-5.59722,26.8333c0,37.1944,30.125,67.3056,67.3056,67.3056c37.2083,0,67.3194,-30.1111,67.3194,-67.3056c0,-9.55556,-2.02778,-18.6111,-5.59722,-26.8333C1130.1,251.528,1106.42,268.194,1078.79,268.194z"/>
     <g stroke-width="0">
      <rect width="17.4722" x="1203.12" opacity="0.47" y="109.111" fill="#808080" height="287.222" enable-background="new    " stroke-width="0"/>
      <rect width="347.458" x="855.681" opacity="0.47" y="378.819" fill="#808080" height="17.5139" enable-background="new    " stroke-width="0"/>
     </g>
     <g stroke-width="0">
      <polygon opacity="0.47" fill="#E6E6E6" points="0,109.111,17.4722,109.111,17.4722,378.819,0,396.292" enable-background="new    " stroke-width="0"/>
      <polygon opacity="0.47" fill="#808080" points="0,396.292,17.4722,378.819,364.931,378.819,364.931,396.292" enable-background="new    " stroke-width="0"/>
     </g>
     <path fill="#4D4D4D" stroke-width="0" d="M954.236,10.9861c0,-5.5,-4.47222,-10.0139,-9.95833,-10.0139L276.306,0.972222c-5.47222,0,-9.94444,4.48611,-9.94444,10.0139l0,63.6528l687.875,0L954.236,10.9861z"/>
     <path fill="#808080" stroke-width="0" d="M954.222,15.9722c0,-5.48611,-4.47222,-9.97222,-9.97222,-9.97222L276.306,6c-5.48611,0,-9.94444,4.48611,-9.94444,9.97222L266.361,10.9861c0,-5.5,4.45833,-10.0139,9.94444,-10.0139L944.306,0.972222c5.47222,0,9.94444,4.48611,9.94444,10.0139L954.222,15.9722L954.222,15.9722z"/>
     <g stroke-width="0">
      <path fill="#4D4D4D" stroke-width="0" d="M1220.6,112.431c0,5.5,-4.5,10,-10,10L10,122.431C4.5,122.431,0,117.931,0,112.431L0,84.6389c0,-5.5,4.5,-10,10,-10l1200.6,0c5.5,0,10,4.45833,10,10L1220.6,112.431z"/>
     </g>
     <rect width="1220.6" x="0" y="64.5556" fill="#4D4D4D" height="26.2361" stroke-width="0"/>
     <rect width="1220.6" x="0" y="72.3472" fill="#999999" height="4.58333" stroke-width="0"/>
     <g stroke-width="0">
      <path opacity="0.1" fill="#1A1A1A" enable-background="new    " stroke-width="0" d="M1210.61,122.722c5.5,0,9.98611,-4.48611,9.98611,-10L770.389,112.722l0,10l415.75,0L1210.61,122.722z"/>
      <path opacity="0.47" fill="#999999" enable-background="new    " stroke-width="0" d="M0,112.722c0,5.5,4.5,9.98611,10.0139,10l51.5417,0l436.417,0l0,-10L0,112.722z"/>
      <path opacity="0.47" fill="#999999" enable-background="new    " stroke-width="0" d="M2.20833,118.708c1.81944,2.36111,4.54167,3.97222,7.73611,4l488.028,0L497.972,118.708L2.20833,118.708z"/>
      <path opacity="0.2" fill="#1A1A1A" enable-background="new    " stroke-width="0" d="M1218.4,118.708L770.389,118.708l0,4l440.292,0C1213.86,122.694,1216.58,121.069,1218.4,118.708z"/>
     </g>
     <rect width="1220.6" x="0" y="75.2361" fill="#808080" height="4.58333" stroke-width="0"/>
     <rect width="8.625" x="1211.97" opacity="0.1" y="79.8194" fill="#1A1A1A" height="32.625" enable-background="new    " stroke-width="0"/>
     <rect width="248.889" x="954.236" opacity="0.63" y="64.5972" fill="#E6E6E6" height="2.77778" enable-background="new    " stroke-width="0"/>
     <rect width="248.889" x="17.7222" opacity="0.63" y="64.5972" fill="#E6E6E6" height="2.77778" enable-background="new    " stroke-width="0"/>
     <g stroke-width="0">
      <rect width="642.222" x="289.181" y="109.111" fill="#4D4D4D" height="66.7778" stroke-width="0"/>
      <polygon opacity="0.36" fill="#E6E6E6" points="321.111,149.528,289.208,178.556,289.181,112.722" enable-background="new    " stroke-width="0"/>
      <polygon opacity="0.36" fill="#E6E6E6" points="899.5,149.528,931.375,178.556,931.403,112.722" enable-background="new    " stroke-width="0"/>
     </g>
     <g stroke-width="0">
      <path fill="#999999" stroke-width="0" d="M290.361,188.889c-5.40278,-21.6528,8.43056,-39.3611,30.75,-39.3611l578.333,0c22.3472,0,36.1667,17.6944,30.7917,39.3611l-56.4306,225.639c-5.43056,21.6667,-28.0694,39.3611,-50.375,39.3611L397.222,453.889c-22.3194,0,-45,-17.6944,-50.4167,-39.3611L290.361,188.889z"/>
      <path fill="#1A1A1A" stroke-width="0" d="M316.375,202.042c-5.47222,-21.6667,8.33333,-39.3333,30.6528,-39.3333l526.569,0c22.2917,0,36.1389,17.6667,30.6528,39.3333l-50.2917,199.292c-5.45833,21.7083,-28.1528,39.375,-50.5139,39.375L417.139,440.708c-22.3194,0,-45.0417,-17.6528,-50.5139,-39.375L316.375,202.042z"/>
     </g>
    </g>
    <g stroke-width="0">
     <path stroke-width="0" d="M365.569,226.069c-4.54167,-18.0139,6.94444,-32.7083,25.5278,-32.7083l438.375,0c18.6111,0,30.0833,14.75,25.5556,32.7083l-41.9444,165.931c-4.52778,18.0278,-23.4444,32.7917,-41.9861,32.7917L449.486,424.792c-18.5833,0,-37.5139,-14.7639,-42.0417,-32.7917L365.569,226.069z"/>
     <g stroke-width="0">
      <g stroke-width="0">
       <g stroke-width="0">
        <circle fill="#CCCCCC" cx="810.292" cy="245.778" r="16.6667" stroke-width="0"/>
       </g>
       <g stroke-width="0">
        <circle fill="#CCCCCC" cx="710.319" cy="245.778" r="16.6667" stroke-width="0"/>
       </g>
       <g stroke-width="0">
        <circle fill="#CCCCCC" cx="610.292" cy="245.778" r="16.6667" stroke-width="0"/>
       </g>
       <g stroke-width="0">
        <circle fill="#CCCCCC" cx="510.278" cy="245.778" r="16.6667" stroke-width="0"/>
       </g>
       <g stroke-width="0">
        <circle fill="#CCCCCC" cx="410.292" cy="245.778" r="16.6667" stroke-width="0"/>
       </g>
      </g>
      <g stroke-width="0">
       <g stroke-width="0">
        <rect width="32.9583" x="793.653" y="245.778" fill="#CCCCCC" height="28.0278" stroke-width="0"/>
       </g>
       <g stroke-width="0">
        <rect width="32.9583" x="693.653" y="245.778" fill="#CCCCCC" height="28.0278" stroke-width="0"/>
       </g>
       <g stroke-width="0">
        <rect width="32.9583" x="593.639" y="245.778" fill="#CCCCCC" height="28.0278" stroke-width="0"/>
       </g>
       <g stroke-width="0">
        <rect width="32.9722" x="493.639" y="245.778" fill="#CCCCCC" height="28.0278" stroke-width="0"/>
       </g>
       <g stroke-width="0">
        <rect width="32.9722" x="393.625" y="245.778" fill="#CCCCCC" height="28.0278" stroke-width="0"/>
       </g>
      </g>
      <g stroke-width="0">
       <g stroke-width="0">
        <path fill="#B3B3B3" stroke-width="0" d="M797.569,235.042c3.11111,-3.18056,6.08333,-4.5,10.4861,-6l-0.208333,44.7083l-10.25,0l0,-38.7083L797.569,235.042z"/>
       </g>
       <g stroke-width="0">
        <path fill="#B3B3B3" stroke-width="0" d="M697.597,235.042c3.125,-3.18056,6.08333,-4.5,10.4722,-6l-0.236111,44.7083l-10.2083,0l0,-38.7083L697.597,235.042z"/>
       </g>
       <g stroke-width="0">
        <path fill="#B3B3B3" stroke-width="0" d="M597.597,235.042c3.06944,-3.18056,6.08333,-4.5,10.4444,-6l-0.222222,44.7083l-10.25,0L597.597,235.042L597.597,235.042z"/>
       </g>
       <g stroke-width="0">
        <path fill="#B3B3B3" stroke-width="0" d="M497.583,235.042c3.06944,-3.18056,6.08333,-4.5,10.4444,-6l-0.194444,44.7083l-10.25,0L497.583,235.042z"/>
       </g>
       <g stroke-width="0">
        <path fill="#B3B3B3" stroke-width="0" d="M397.583,235.042c3.06944,-3.18056,6.08333,-4.5,10.4444,-6l-0.194444,44.7083l-10.25,0L397.583,235.042z"/>
       </g>
      </g>
      <g stroke-width="0">
       <g stroke-width="0">
        <circle fill="#CCCCCC" cx="810.292" cy="272.333" r="16.6667" stroke-width="0"/>
       </g>
       <g stroke-width="0">
        <circle fill="#CCCCCC" cx="710.319" cy="272.333" r="16.6667" stroke-width="0"/>
       </g>
       <g stroke-width="0">
        <circle fill="#CCCCCC" cx="610.292" cy="272.333" r="16.6667" stroke-width="0"/>
       </g>
       <g stroke-width="0">
        <circle fill="#CCCCCC" cx="510.278" cy="272.333" r="16.6667" stroke-width="0"/>
       </g>
       <g stroke-width="0">
        <circle fill="#CCCCCC" cx="410.292" cy="272.333" r="16.6667" stroke-width="0"/>
       </g>
      </g>
      <g stroke-width="0">
       <g opacity="0.68" stroke-width="0">
        <g stroke-width="0">
         <path fill="#FFFFFF" stroke-width="0" d="M810.292,272.333l0,16.6528c16.4306,0,18.5972,-18.9028,14.9722,-23.8472L810.292,272.333z"/>
        </g>
        <g stroke-width="0">
         <path fill="#FFFFFF" stroke-width="0" d="M710.292,272.333l0.0277778,16.6528c16.4444,0,18.5833,-18.9028,14.9306,-23.8472L710.292,272.333z"/>
        </g>
        <g stroke-width="0">
         <path fill="#FFFFFF" stroke-width="0" d="M610.292,272.333l0,16.6528c16.4167,0,18.6111,-18.9028,14.9861,-23.8472L610.292,272.333z"/>
        </g>
        <g stroke-width="0">
         <path fill="#FFFFFF" stroke-width="0" d="M510.278,272.333l0,16.6528c16.4167,0,18.5972,-18.9028,14.9722,-23.8472L510.278,272.333z"/>
        </g>
        <g stroke-width="0">
         <path fill="#FFFFFF" stroke-width="0" d="M410.292,272.333l0,16.6528c16.4028,0,18.5833,-18.9028,14.9722,-23.8472L410.292,272.333z"/>
        </g>
       </g>
       <g opacity="0.68" stroke-width="0">
        <g stroke-width="0">
         <path fill="#FFFFFF" stroke-width="0" d="M810.292,272.333l-9.95833,13.3333c13.1111,9.81944,26.2222,-4.01389,26.2778,-10.125L810.292,272.333z"/>
        </g>
        <g stroke-width="0">
         <path fill="#FFFFFF" stroke-width="0" d="M710.292,272.333l-9.97222,13.3333c13.1111,9.81944,26.25,-4.01389,26.3056,-10.125L710.292,272.333z"/>
        </g>
        <g stroke-width="0">
         <path fill="#FFFFFF" stroke-width="0" d="M610.292,272.333l-9.95833,13.3333c13.125,9.81944,26.2361,-4.01389,26.2917,-10.125L610.292,272.333z"/>
        </g>
        <g stroke-width="0">
         <path fill="#FFFFFF" stroke-width="0" d="M510.278,272.333l-9.95833,13.3333c13.125,9.81944,26.2222,-4.01389,26.2778,-10.125L510.278,272.333z"/>
        </g>
        <g stroke-width="0">
         <path fill="#FFFFFF" stroke-width="0" d="M410.292,272.333l-9.95833,13.3333c13.125,9.81944,26.2083,-4.01389,26.2639,-10.125L410.292,272.333z"/>
        </g>
       </g>
       <g opacity="0.68" stroke-width="0">
        <g stroke-width="0">
         <path fill="#FFFFFF" stroke-width="0" d="M810.292,272.319l-1.25,-16.5556c-16.375,1.22222,-17.0972,20.2361,-13.1389,24.9028L810.292,272.319z"/>
        </g>
        <g stroke-width="0">
         <path fill="#FFFFFF" stroke-width="0" d="M710.319,272.319l-1.29167,-16.5417c-16.3333,1.22222,-17.0694,20.2361,-13.1111,24.9028L710.319,272.319z"/>
        </g>
        <g stroke-width="0">
         <path fill="#FFFFFF" stroke-width="0" d="M610.292,272.319l-1.25,-16.5556c-16.3472,1.22222,-17.1111,20.2361,-13.125,24.9028L610.292,272.319z"/>
        </g>
        <g stroke-width="0">
         <path fill="#FFFFFF" stroke-width="0" d="M510.306,272.319l-1.25,-16.5556c-16.3611,1.22222,-17.125,20.2361,-13.1389,24.9028L510.306,272.319z"/>
        </g>
        <g stroke-width="0">
         <path fill="#FFFFFF" stroke-width="0" d="M410.306,272.319l-1.26389,-16.5417c-16.3472,1.22222,-17.125,20.2361,-13.1389,24.9028L410.306,272.319z"/>
        </g>
       </g>
       <g opacity="0.68" stroke-width="0">
        <g stroke-width="0">
         <path fill="#FFFFFF" stroke-width="0" d="M810.292,272.319l8.97222,-14.0417c-13.8056,-8.81944,-25.7917,5.95833,-25.4444,12.0694L810.292,272.319z"/>
        </g>
        <g stroke-width="0">
         <path fill="#FFFFFF" stroke-width="0" d="M710.319,272.319l8.97222,-14.0417c-13.8333,-8.81944,-25.8472,5.95833,-25.4444,12.0694L710.319,272.319z"/>
        </g>
        <g stroke-width="0">
         <path fill="#FFFFFF" stroke-width="0" d="M610.292,272.319l8.95833,-14.0417c-13.8333,-8.81944,-25.8194,5.95833,-25.4444,12.0694L610.292,272.319z"/>
        </g>
        <g stroke-width="0">
         <path fill="#FFFFFF" stroke-width="0" d="M510.306,272.319l8.94444,-14.0417c-13.8194,-8.81944,-25.8333,5.95833,-25.4444,12.0694L510.306,272.319z"/>
        </g>
        <g stroke-width="0">
         <path fill="#FFFFFF" stroke-width="0" d="M410.306,272.319l8.94444,-14.0417c-13.8333,-8.81944,-25.8333,5.95833,-25.4444,12.0694L410.306,272.319z"/>
        </g>
       </g>
      </g>
      <g stroke-width="0">
       <g stroke-width="0">
        <circle fill="#CCCCCC" cx="759.972" cy="345.819" r="16.6667" stroke-width="0"/>
       </g>
       <g stroke-width="0">
        <circle fill="#CCCCCC" cx="659.972" cy="345.819" r="16.6667" stroke-width="0"/>
       </g>
       <g stroke-width="0">
        <circle fill="#CCCCCC" cx="559.931" cy="345.819" r="16.6667" stroke-width="0"/>
       </g>
       <g stroke-width="0">
        <circle fill="#CCCCCC" cx="459.944" cy="345.819" r="16.6667" stroke-width="0"/>
       </g>
      </g>
      <g stroke-width="0">
       <g stroke-width="0">
        <rect width="32.9583" x="743.333" y="345.819" fill="#CCCCCC" height="28.0278" stroke-width="0"/>
       </g>
       <g stroke-width="0">
        <rect width="32.9583" x="643.278" y="345.819" fill="#CCCCCC" height="28.0278" stroke-width="0"/>
       </g>
       <g stroke-width="0">
        <rect width="32.9722" x="543.292" y="345.819" fill="#CCCCCC" height="28.0278" stroke-width="0"/>
       </g>
       <g stroke-width="0">
        <rect width="32.9722" x="443.278" y="345.819" fill="#CCCCCC" height="28.0278" stroke-width="0"/>
       </g>
      </g>
      <g stroke-width="0">
       <g stroke-width="0">
        <path fill="#B3B3B3" stroke-width="0" d="M747.25,335.083c3.11111,-3.18056,6.08333,-4.5,10.4861,-6.02778l-0.263889,44.7361l-10.1806,0l0,-38.7083L747.25,335.083z"/>
       </g>
       <g stroke-width="0">
        <path fill="#B3B3B3" stroke-width="0" d="M647.278,335.083c3.08333,-3.18056,6.08333,-4.5,10.4444,-6.02778l-0.236111,44.7361l-10.2361,0L647.278,335.083L647.278,335.083z"/>
       </g>
       <g stroke-width="0">
        <path fill="#B3B3B3" stroke-width="0" d="M547.236,335.083c3.06944,-3.18056,6.08333,-4.5,10.4444,-6.02778l-0.194444,44.7361l-10.25,0L547.236,335.083z"/>
       </g>
       <g stroke-width="0">
        <path fill="#B3B3B3" stroke-width="0" d="M447.236,335.083c3.06944,-3.18056,6.08333,-4.5,10.4444,-6.02778l-0.194444,44.7361l-10.25,0L447.236,335.083z"/>
       </g>
      </g>
      <g stroke-width="0">
       <g stroke-width="0">
        <circle fill="#CCCCCC" cx="759.972" cy="372.375" r="16.6667" stroke-width="0"/>
       </g>
       <g stroke-width="0">
        <circle fill="#CCCCCC" cx="659.972" cy="372.375" r="16.6667" stroke-width="0"/>
       </g>
       <g stroke-width="0">
        <circle fill="#CCCCCC" cx="559.931" cy="372.375" r="16.6667" stroke-width="0"/>
       </g>
       <g stroke-width="0">
        <circle fill="#CCCCCC" cx="459.944" cy="372.375" r="16.6667" stroke-width="0"/>
       </g>
      </g>
      <g stroke-width="0">
       <g opacity="0.68" stroke-width="0">
        <g stroke-width="0">
         <path fill="#FFFFFF" stroke-width="0" d="M759.944,372.375l0.0277778,16.6528c16.4306,0,18.5972,-18.9028,14.9167,-23.8472L759.944,372.375z"/>
        </g>
        <g stroke-width="0">
         <path fill="#FFFFFF" stroke-width="0" d="M659.972,372.375l0,16.6528c16.4306,0,18.6111,-18.9028,14.9722,-23.8472L659.972,372.375z"/>
        </g>
        <g stroke-width="0">
         <path fill="#FFFFFF" stroke-width="0" d="M559.931,372.375l0,16.6528c16.4167,0,18.5972,-18.9028,14.9722,-23.8472L559.931,372.375z"/>
        </g>
        <g stroke-width="0">
         <path fill="#FFFFFF" stroke-width="0" d="M459.944,372.375l0,16.6528c16.4028,0,18.5833,-18.9028,14.9722,-23.8472L459.944,372.375z"/>
        </g>
       </g>
       <g opacity="0.68" stroke-width="0">
        <g stroke-width="0">
         <path fill="#FFFFFF" stroke-width="0" d="M759.944,372.375l-9.98611,13.3333c13.1111,9.81944,26.2778,-4.01389,26.3333,-10.125L759.944,372.375z"/>
        </g>
        <g stroke-width="0">
         <path fill="#FFFFFF" stroke-width="0" d="M659.972,372.375l-9.97222,13.3333c13.125,9.81944,26.25,-4.01389,26.3056,-10.125L659.972,372.375z"/>
        </g>
        <g stroke-width="0">
         <path fill="#FFFFFF" stroke-width="0" d="M559.931,372.375l-9.95833,13.3333c13.125,9.81944,26.2222,-4.01389,26.2778,-10.125L559.931,372.375z"/>
        </g>
        <g stroke-width="0">
         <path fill="#FFFFFF" stroke-width="0" d="M459.944,372.375l-9.95833,13.3333c13.125,9.81944,26.2083,-4.01389,26.2639,-10.125L459.944,372.375z"/>
        </g>
       </g>
       <g opacity="0.68" stroke-width="0">
        <g stroke-width="0">
         <path fill="#FFFFFF" stroke-width="0" d="M759.972,372.361l-1.30556,-16.5417c-16.3333,1.22222,-17.0694,20.2083,-13.0833,24.9028L759.972,372.361z"/>
        </g>
        <g stroke-width="0">
         <path fill="#FFFFFF" stroke-width="0" d="M659.972,372.361l-1.26389,-16.5556c-16.3611,1.22222,-17.0972,20.2083,-13.1111,24.9028L659.972,372.361z"/>
        </g>
        <g stroke-width="0">
         <path fill="#FFFFFF" stroke-width="0" d="M559.958,372.361l-1.25,-16.5556c-16.3611,1.22222,-17.125,20.2083,-13.1389,24.9028L559.958,372.361z"/>
        </g>
        <g stroke-width="0">
         <path fill="#FFFFFF" stroke-width="0" d="M459.958,372.361l-1.26389,-16.5417c-16.3472,1.22222,-17.125,20.2083,-13.1389,24.9028L459.958,372.361z"/>
        </g>
       </g>
       <g opacity="0.68" stroke-width="0">
        <g stroke-width="0">
         <path fill="#FFFFFF" stroke-width="0" d="M759.972,372.361l8.97222,-14.0417c-13.8194,-8.81944,-25.8333,5.95833,-25.4306,12.0694L759.972,372.361z"/>
        </g>
        <g stroke-width="0">
         <path fill="#FFFFFF" stroke-width="0" d="M659.972,372.361l8.97222,-14.0417c-13.8333,-8.81944,-25.8056,5.95833,-25.4444,12.0694L659.972,372.361z"/>
        </g>
        <g stroke-width="0">
         <path fill="#FFFFFF" stroke-width="0" d="M559.958,372.361l8.94444,-14.0417c-13.8194,-8.81944,-25.8333,5.95833,-25.4444,12.0694L559.958,372.361z"/>
        </g>
        <g stroke-width="0">
         <path fill="#FFFFFF" stroke-width="0" d="M459.958,372.361l8.94444,-14.0417c-13.8333,-8.81944,-25.8333,5.95833,-25.4444,12.0694L459.958,372.361z"/>
        </g>
       </g>
      </g>
     </g>
    </g>
   </g>
  </g>
  <g transform="translate(444.335,734.05)">
   <rect width="31.93" x="0" y="0" fill="#8D8C8C" height="31.9" id="connector0pin" stroke-width="0"/>
   <rect width="16.4442" x="7.79153" y="7.73544" fill="#8C8663" height="16.4152" stroke-width="0"/>
   <polygon fill="#B8AF82" points="0,31.9,7.79153,24.1368,7.79153,6.97162,0,0" stroke-width="0"/>
   <polygon fill="#80795B" points="24.2079,7.76321,7.90264,7.76321,0,0,31.93,0" stroke-width="0"/>
   <polygon fill="#5E5B43" points="24.2079,24.1368,24.2079,7.76321,31.93,0,31.93,31.9" stroke-width="0"/>
   <polygon fill="#9A916C" points="0,31.9,7.87486,24.1368,24.2079,24.1368,31.93,31.9" stroke-width="0"/>
  </g>
  <g transform="translate(544.335,734.05)">
   <rect width="31.93" x="0" y="0" fill="#8D8C8C" height="31.9" id="connector1pin" stroke-width="0"/>
   <rect width="16.4442" x="7.79153" y="7.73544" fill="#8C8663" height="16.4152" stroke-width="0"/>
   <polygon fill="#B8AF82" points="0,31.9,7.79153,24.1368,7.79153,6.97162,0,0" stroke-width="0"/>
   <polygon fill="#80795B" points="24.2079,7.76321,7.90264,7.76321,0,0,31.93,0" stroke-width="0"/>
   <polygon fill="#5E5B43" points="24.2079,24.1368,24.2079,7.76321,31.93,0,31.93,31.9" stroke-width="0"/>
   <polygon fill="#9A916C" points="0,31.9,7.87486,24.1368,24.2079,24.1368,31.93,31.9" stroke-width="0"/>
  </g>
  <g transform="translate(544.335,34.05)">
   <rect width="31.93" x="0" y="0" fill="#8D8C8C" height="31.9" id="connector10pin" stroke-width="0"/>
   <rect width="16.4442" x="7.79153" y="7.73544" fill="#8C8663" height="16.4152" stroke-width="0"/>
   <polygon fill="#B8AF82" points="0,31.9,7.79153,24.1368,7.79153,6.97162,0,0" stroke-width="0"/>
   <polygon fill="#80795B" points="24.2079,7.76321,7.90264,7.76321,0,0,31.93,0" stroke-width="0"/>
   <polygon fill="#5E5B43" points="24.2079,24.1368,24.2079,7.76321,31.93,0,31.93,31.9" stroke-width="0"/>
   <polygon fill="#9A916C" points="0,31.9,7.87486,24.1368,24.2079,24.1368,31.93,31.9" stroke-width="0"/>
  </g>
  <g transform="translate(644.335,734.05)">
   <rect width="31.93" x="0" y="0" fill="#8D8C8C" height="31.9" id="connector2pin" stroke-width="0"/>
   <rect width="16.4442" x="7.79153" y="7.73544" fill="#8C8663" height="16.4152" stroke-width="0"/>
   <polygon fill="#B8AF82" points="0,31.9,7.79153,24.1368,7.79153,6.97162,0,0" stroke-width="0"/>
   <polygon fill="#80795B" points="24.2079,7.76321,7.90264,7.76321,0,0,31.93,0" stroke-width="0"/>
   <polygon fill="#5E5B43" points="24.2079,24.1368,24.2079,7.76321,31.93,0,31.93,31.9" stroke-width="0"/>
   <polygon fill="#9A916C" points="0,31.9,7.87486,24.1368,24.2079,24.1368,31.93,31.9" stroke-width="0"/>
  </g>
  <g transform="translate(644.335,34.05)">
   <rect width="31.93" x="0" y="0" fill="#8D8C8C" height="31.9" id="connector9pin" stroke-width="0"/>
   <rect width="16.4442" x="7.79153" y="7.73544" fill="#8C8663" height="16.4152" stroke-width="0"/>
   <polygon fill="#B8AF82" points="0,31.9,7.79153,24.1368,7.79153,6.97162,0,0" stroke-width="0"/>
   <polygon fill="#80795B" points="24.2079,7.76321,7.90264,7.76321,0,0,31.93,0" stroke-width="0"/>
   <polygon fill="#5E5B43" points="24.2079,24.1368,24.2079,7.76321,31.93,0,31.93,31.9" stroke-width="0"/>
   <polygon fill="#9A916C" points="0,31.9,7.87486,24.1368,24.2079,24.1368,31.93,31.9" stroke-width="0"/>
  </g>
  <g transform="translate(744.335,734.05)">
   <rect width="31.93" x="0" y="0" fill="#8D8C8C" height="31.9" id="connector3pin" stroke-width="0"/>
   <rect width="16.4442" x="7.79153" y="7.73544" fill="#8C8663" height="16.4152" stroke-width="0"/>
   <polygon fill="#B8AF82" points="0,31.9,7.79153,24.1368,7.79153,6.97162,0,0" stroke-width="0"/>
   <polygon fill="#80795B" points="24.2079,7.76321,7.90264,7.76321,0,0,31.93,0" stroke-width="0"/>
   <polygon fill="#5E5B43" points="24.2079,24.1368,24.2079,7.76321,31.93,0,31.93,31.9" stroke-width="0"/>
   <polygon fill="#9A916C" points="0,31.9,7.87486,24.1368,24.2079,24.1368,31.93,31.9" stroke-width="0"/>
  </g>
  <g transform="translate(744.335,34.05)">
   <rect width="31.93" x="0" y="0" fill="#8D8C8C" height="31.9" id="connector8pin" stroke-width="0"/>
   <rect width="16.4442" x="7.79153" y="7.73544" fill="#8C8663" height="16.4152" stroke-width="0"/>
   <polygon fill="#B8AF82" points="0,31.9,7.79153,24.1368,7.79153,6.97162,0,0" stroke-width="0"/>
   <polygon fill="#80795B" points="24.2079,7.76321,7.90264,7.76321,0,0,31.93,0" stroke-width="0"/>
   <polygon fill="#5E5B43" points="24.2079,24.1368,24.2079,7.76321,31.93,0,31.93,31.9" stroke-width="0"/>
   <polygon fill="#9A916C" points="0,31.9,7.87486,24.1368,24.2079,24.1368,31.93,31.9" stroke-width="0"/>
  </g>
  <g transform="translate(844.335,734.05)">
   <rect width="31.93" x="0" y="0" fill="#8D8C8C" height="31.9" id="connector4pin" stroke-width="0"/>
   <rect width="16.4442" x="7.79153" y="7.73544" fill="#8C8663" height="16.4152" stroke-width="0"/>
   <polygon fill="#B8AF82" points="0,31.9,7.79153,24.1368,7.79153,6.97162,0,0" stroke-width="0"/>
   <polygon fill="#80795B" points="24.2079,7.76321,7.90264,7.76321,0,0,31.93,0" stroke-width="0"/>
   <polygon fill="#5E5B43" points="24.2079,24.1368,24.2079,7.76321,31.93,0,31.93,31.9" stroke-width="0"/>
   <polygon fill="#9A916C" points="0,31.9,7.87486,24.1368,24.2079,24.1368,31.93,31.9" stroke-width="0"/>
  </g>
  <g transform="translate(844.335,34.05)">
   <rect width="31.93" x="0" y="0" fill="#8D8C8C" height="31.9" id="connector7pin" stroke-width="0"/>
   <rect width="16.4442" x="7.79153" y="7.73544" fill="#8C8663" height="16.4152" stroke-width="0"/>
   <polygon fill="#B8AF82" points="0,31.9,7.79153,24.1368,7.79153,6.97162,0,0" stroke-width="0"/>
   <polygon fill="#80795B" points="24.2079,7.76321,7.90264,7.76321,0,0,31.93,0" stroke-width="0"/>
   <polygon fill="#5E5B43" points="24.2079,24.1368,24.2079,7.76321,31.93,0,31.93,31.9" stroke-width="0"/>
   <polygon fill="#9A916C" points="0,31.9,7.87486,24.1368,24.2079,24.1368,31.93,31.9" stroke-width="0"/>
  </g>
  <g transform="translate(944.335,734.05)">
   <rect width="31.93" x="0" y="0" fill="#8D8C8C" height="31.9" id="connector5pin" stroke-width="0"/>
   <rect width="16.4442" x="7.79153" y="7.73544" fill="#8C8663" height="16.4152" stroke-width="0"/>
   <polygon fill="#B8AF82" points="0,31.9,7.79153,24.1368,7.79153,6.97162,0,0" stroke-width="0"/>
   <polygon fill="#80795B" points="24.2079,7.76321,7.90264,7.76321,0,0,31.93,0" stroke-width="0"/>
   <polygon fill="#5E5B43" points="24.2079,24.1368,24.2079,7.76321,31.93,0,31.93,31.9" stroke-width="0"/>
   <polygon fill="#9A916C" points="0,31.9,7.87486,24.1368,24.2079,24.1368,31.93,31.9" stroke-width="0"/>
  </g>
  <g transform="translate(944.335,34.05)">
   <rect width="31.93" x="0" y="0" fill="#8D8C8C" height="31.9" id="connector6pin" stroke-width="0"/>
   <rect width="16.4442" x="7.79153" y="7.73544" fill="#8C8663" height="16.4152" stroke-width="0"/>
   <polygon fill="#B8AF82" points="0,31.9,7.79153,24.1368,7.79153,6.97162,0,0" stroke-width="0"/>
   <polygon fill="#80795B" points="24.2079,7.76321,7.90264,7.76321,0,0,31.93,0" stroke-width="0"/>
   <polygon fill="#5E5B43" points="24.2079,24.1368,24.2079,7.76321,31.93,0,31.93,31.9" stroke-width="0"/>
   <polygon fill="#9A916C" points="0,31.9,7.87486,24.1368,24.2079,24.1368,31.93,31.9" stroke-width="0"/>
  </g>
 </g>
 <text x="50" y="424.375" font-family="OCRA" fill="white" text-anchor="start" stroke="none" id="label" stroke-width="0" font-size="65"/>
 <g transform="translate(473.8,726.05)">
  <g transform="rotate(-90)">
   <text x="0" y="0" font-family="OCRA" fill="white" text-anchor="start" stroke="none" stroke-width="0" font-size="45"/>
  </g>
 </g>
 <g transform="translate(573.8,726.05)">
  <g transform="rotate(-90)">
   <text x="0" y="0" font-family="OCRA" fill="white" text-anchor="start" stroke="none" stroke-width="0" font-size="45"/>
  </g>
 </g>
 <g transform="translate(573.8,73.95)">
  <g transform="rotate(-90)">
   <text x="0" y="0" font-family="OCRA" fill="white" text-anchor="end" stroke="none" stroke-width="0" font-size="45"/>
  </g>
 </g>
 <g transform="translate(673.8,726.05)">
  <g transform="rotate(-90)">
   <text x="0" y="0" font-family="OCRA" fill="white" text-anchor="start" stroke="none" stroke-width="0" font-size="45"/>
  </g>
 </g>
 <g transform="translate(673.8,73.95)">
  <g transform="rotate(-90)">
   <text x="0" y="0" font-family="OCRA" fill="white" text-anchor="end" stroke="none" stroke-width="0" font-size="45"/>
  </g>
 </g>
 <g transform="translate(773.8,726.05)">
  <g transform="rotate(-90)">
   <text x="0" y="0" font-family="OCRA" fill="white" text-anchor="start" stroke="none" stroke-width="0" font-size="45"/>
  </g>
 </g>
 <g transform="translate(773.8,73.95)">
  <g transform="rotate(-90)">
   <text x="0" y="0" font-family="OCRA" fill="white" text-anchor="end" stroke="none" stroke-width="0" font-size="45"/>
  </g>
 </g>
 <g transform="translate(873.8,726.05)">
  <g transform="rotate(-90)">
   <text x="0" y="0" font-family="OCRA" fill="white" text-anchor="start" stroke="none" stroke-width="0" font-size="45"/>
  </g>
 </g>
 <g transform="translate(873.8,73.95)">
  <g transform="rotate(-90)">
   <text x="0" y="0" font-family="OCRA" fill="white" text-anchor="end" stroke="none" stroke-width="0" font-size="45"/>
  </g>
 </g>
 <g transform="translate(973.8,726.05)">
  <g transform="rotate(-90)">
   <text x="0" y="0" font-family="OCRA" fill="white" text-anchor="start" stroke="none" stroke-width="0" font-size="45"/>
  </g>
 </g>
 <g transform="translate(973.8,73.95)">
  <g transform="rotate(-90)">
   <text x="0" y="0" font-family="OCRA" fill="white" text-anchor="end" stroke="none" stroke-width="0" font-size="45"/>
  </g>
 </g>
</svg>
