<?xml version='1.0' encoding='UTF-8' standalone='no'?>
<!-- Created with Fritzing (http://www.fritzing.org/) -->
<svg width="0.1in" x="0in" version="1.2" y="0in" xmlns="http://www.w3.org/2000/svg" height="0.6in" viewBox="0 0 100 600" baseProfile="tiny" xmlns:svg="http://www.w3.org/2000/svg">
 <desc>Fritzing breadboard generated by brd2svg</desc>
 <g id="breadboard">
  <g id="icon">
   <path fill="#1F7A34" stroke="none" stroke-width="0" d="M0,0L0,270A30,30 0 0 1 0,330L0,600L100,600L100,0L0,0z"/>
   <g transform="translate(-155.819,174.585)">
    <g transform="matrix(0.5, 0, 0, 0.5, 102.909, 62.7076)">
     <line stroke="#F7BD13" stroke-linecap="round" y1="204" x1="14.6378" y2="204" stroke-width="8" x2="120.638"/>
     <line stroke="#F7BD13" stroke-linecap="round" y1="204" x1="290.638" y2="204" stroke-width="8" x2="396.638"/>
     <line stroke="#F7BD13" stroke-linecap="round" y1="88.9999" x1="76.6378" y2="88.9999" stroke-width="8" x2="99.6378"/>
     <line stroke="#F7BD13" stroke-linecap="round" y1="88.9999" x1="334.638" y2="88.9999" stroke-width="8" x2="311.638"/>
     <line stroke="#F7BD13" stroke-linecap="round" y1="109" x1="304.638" y2="109" stroke-width="8" x2="338.638"/>
     <line stroke="#F7BD13" stroke-linecap="round" y1="109" x1="107.638" y2="109" stroke-width="8" x2="72.6378"/>
     <line stroke="#F7BD13" stroke-linecap="round" y1="129" x1="36.6378" y2="129" stroke-width="8" x2="95.6378"/>
     <line stroke="#F7BD13" stroke-linecap="round" y1="129" x1="374.638" y2="129" stroke-width="8" x2="316.638"/>
     <line stroke="#F7BD13" stroke-linecap="round" y1="149" x1="302.638" y2="149" stroke-width="8" x2="374.638"/>
     <line stroke="#F7BD13" stroke-linecap="round" y1="149" x1="108.638" y2="149" stroke-width="8" x2="36.6378"/>
     <line stroke="#F7BD13" stroke-linecap="round" y1="169" x1="12.6378" y2="169" stroke-width="8" x2="99.6378"/>
     <line stroke="#F7BD13" stroke-linecap="round" y1="169" x1="399.638" y2="169" stroke-width="8" x2="311.638"/>
     <line stroke="#F7BD13" stroke-linecap="round" y1="189" x1="283.638" y2="189" stroke-width="8" x2="385.638"/>
     <line stroke="#F7BD13" stroke-linecap="round" y1="189" x1="127.638" y2="189" stroke-width="8" x2="25.6378"/>
     <path fill="none" stroke="#F7BD13" stroke-width="8" d="M95.6378,75.9999A213.515,213.514,0,0,0,4,188.779"/>
     <path fill="none" stroke="#F7BD13" stroke-width="8" d="M407.638,189A213.312,213.312,0,0,0,315.666,75.9527"/>
     <path fill="none" stroke="#F7BD13" stroke-width="8" d="M315.638,75.9999A120.83,120.83,0,0,0,95.6378,75.9999"/>
     <path fill="none" stroke="#F7BD13" stroke-width="8" d="M131.638,58.9999A99.8193,99.8192,0,0,0,143.524,204.145"/>
     <path fill="none" stroke="#F7BD13" stroke-width="8" d="M268.638,204A99.9563,99.9562,0,0,0,280.004,58.6653"/>
     <path fill="none" stroke="#F7BD13" stroke-width="8" d="M143.638,204A99.9512,99.9511,0,0,0,268.638,204"/>
     <path fill="none" stroke="#F7BD13" stroke-width="8" d="M4.6378,189A11.2334,11.2333,0,0,0,14.626,204.224"/>
     <path fill="none" stroke="#F7BD13" stroke-width="8" d="M396.638,204A11.0035,11.0035,0,0,0,406.977,189.24"/>
     <line stroke="#F7BD13" stroke-linecap="round" y1="57.9999" x1="132.638" y2="58.9999" stroke-width="8" x2="131.638"/>
     <rect width="10" x="199.638" y="221" fill="#F7BD13" connectorname="1" height="9.99999" stroke="none" stroke-linecap="round" stroke-width="0"/>
     <rect width="10" x="199.638" y="0" fill="#F7BD13" connectorname="2" height="9.99999" stroke="none" stroke-linecap="round" stroke-width="0"/>
     <rect width="-1.69093e+11" x="8.45466e+10" y="8.45466e+10" fill="#303030" height="-1.69093e+11" stroke="none" stroke-width="0"/>
     <polygon fill="#1f1f1f" points="8.45466e+10,8.45466e+10 -8.45466e+10,8.45466e+10 -8.45466e+10,8.45466e+10 8.45466e+10,8.45466e+10"/>
     <polygon fill="#1f1f1f" points="8.45466e+10,-8.45466e+10 -8.45466e+10,-8.45466e+10 -8.45466e+10,-8.45466e+10 8.45466e+10,-8.45466e+10"/>
     <polygon fill="#000000" points="8.45466e+10,8.45466e+10 8.45466e+10,-8.45466e+10 8.45466e+10,-8.45466e+10 8.45466e+10,8.45466e+10"/>
     <polygon fill="#3d3d3d" points="-8.45466e+10,8.45466e+10 -8.45466e+10,-8.45466e+10 -8.45466e+10,-8.45466e+10 -8.45466e+10,8.45466e+10"/>
     <circle fill="#1f1f1f" cx="8.45466e+10" cy="-8.45466e+10" stroke="none" r="10" stroke-width="0"/>
    </g>
   </g>
   <text x="50" y="324.375" font-family="OCRA" fill="white" text-anchor="start" stroke="none" id="label" stroke-width="0" font-size="65">BUTTON-CONDUCTIVE-MINI</text>
   <g transform="translate(63.5,526.05)">
    <g transform="rotate(-90)">
     <text x="0" y="0" font-family="OCRA" fill="white" text-anchor="start" stroke="none" stroke-width="0" font-size="45">0</text>
    </g>
   </g>
   <g transform="translate(63.5,73.95)">
    <g transform="rotate(-90)">
     <text x="0" y="0" font-family="OCRA" fill="white" text-anchor="end" stroke="none" stroke-width="0" font-size="45">1</text>
    </g>
   </g>
  </g>
  <g transform="translate(34.035,534.05)">
   <rect width="31.93" x="0" y="0" fill="#8D8C8C" height="31.9" id="connector0pad" stroke-width="0"/>
   <rect width="16.4442" x="7.79153" y="7.73544" fill="#8C8663" height="16.4152" stroke-width="0"/>
   <polygon fill="#B8AF82" points="0,31.9,7.79153,24.1368,7.79153,6.97162,0,0" stroke-width="0"/>
   <polygon fill="#80795B" points="24.2079,7.76321,7.90264,7.76321,0,0,31.93,0" stroke-width="0"/>
   <polygon fill="#5E5B43" points="24.2079,24.1368,24.2079,7.76321,31.93,0,31.93,31.9" stroke-width="0"/>
   <polygon fill="#9A916C" points="0,31.9,7.87486,24.1368,24.2079,24.1368,31.93,31.9" stroke-width="0"/>
  </g>
  <g transform="translate(34.035,34.05)">
   <rect width="31.93" x="0" y="0" fill="#8D8C8C" height="31.9" id="connector1pad" stroke-width="0"/>
   <rect width="16.4442" x="7.79153" y="7.73544" fill="#8C8663" height="16.4152" stroke-width="0"/>
   <polygon fill="#B8AF82" points="0,31.9,7.79153,24.1368,7.79153,6.97162,0,0" stroke-width="0"/>
   <polygon fill="#80795B" points="24.2079,7.76321,7.90264,7.76321,0,0,31.93,0" stroke-width="0"/>
   <polygon fill="#5E5B43" points="24.2079,24.1368,24.2079,7.76321,31.93,0,31.93,31.9" stroke-width="0"/>
   <polygon fill="#9A916C" points="0,31.9,7.87486,24.1368,24.2079,24.1368,31.93,31.9" stroke-width="0"/>
  </g>
 </g>
</svg>
