<?xml version='1.0' encoding='UTF-8' standalone='no'?>
<!-- Created with Fritzing (http://www.fritzing.org/) -->
<svg width="0.762792in" x="0in" version="1.2" y="0in" xmlns="http://www.w3.org/2000/svg" height="1in" viewBox="0 0 762.792 1000" baseProfile="tiny" xmlns:svg="http://www.w3.org/2000/svg">
 <desc>Fritzing breadboard generated by brd2svg</desc>
 <g id="breadboard">
  <g id="icon">
   <path fill="#1F7A34" stroke="none" stroke-width="0" d="M0,0L0,470A30,30 0 0 1 0,530L0,1000L762.792,1000L762.792,0L0,0z"/>
   <g transform="translate(100,235.118)">
    <g stroke-width="0">
     <g stroke-width="0">
      <path fill="#4D4D4D" stroke-width="0" d="M0,253.431C0,394.361,114.236,508.583,255.139,508.583c107.444,0,199.306,-66.4306,236.931,-160.472l0,21.1944c-37.6111,94.0278,-129.486,160.458,-236.931,160.458C114.236,529.764,0,415.528,0,274.611L0,253.431z"/>
     </g>
     <path fill="#666666" stroke-width="0" d="M492.667,162.014C455.458,67.1806,363.181,0,255.139,0C114.236,0,0,114.236,0,255.139C0,396.069,114.236,510.292,255.139,510.292c107.444,0,199.306,-66.4444,236.931,-160.472l0,0.791667l70.7222,0L562.792,162.014L492.667,162.014z"/>
     <path fill="#CCCCCC" stroke-width="0" d="M0,255.139C0,114.236,114.056,0,255.139,0C98.9306,8.54167,3.63889,127.056,0,255.139z"/>
     <g stroke-width="0" transform="matrix(1, 0, 0, 1, 1388.89, 2383.88)">
      <circle fill="#1A1A1A" cx="-1134.69" cy="-2127.58" r="246.681" stroke-width="0"/>
      <path fill="#4D4D4D" stroke-width="0" d="M-898.944,-2119c0,130.208,-105.556,235.778,-235.764,235.778c-130.208,0,-235.778,-105.569,-235.778,-235.778"/>
      <circle fill="#B3B3B3" cx="-1134.69" cy="-2127.57" r="235.764" stroke-width="0"/>
      <path fill="#FFFFFF" stroke-width="0" d="M-1130.67,-2051.61l0,44.875l43.2639,0l0,7.33333l-43.2639,0l0,45.2639l-7.84722,0l0,-45.2639l-43.2778,0l0,-7.33333l43.2639,0l0,-44.875L-1130.67,-2051.61z"/>
     </g>
     <path fill="#F2F2F2" stroke-width="0" d="M169.472,35.9306c0,0,28.6806,-9.54167,38.8194,-11.3194c14.7083,-6.30556,211.472,-39.4028,277.458,168.264c2.36111,7.41667,1.66667,17.8889,1.66667,17.8889l6.75,-1.73611c0,0,-5.51389,-21.4583,-6.06944,-23.0417C464.819,118.167,394.708,-6.98611,207.347,17.8611L169.472,35.9306z"/>
     <g stroke-width="0">
      <path fill="#F2F2F2" stroke-width="0" d="M169.722,476.597c0,0,28.6806,9.54167,38.8194,11.3333c14.7083,6.29167,209.972,39.0972,275.972,-168.569c2.34722,-7.43056,3.125,-17.5972,3.125,-17.5972l6.77778,1.73611c0,0,-3.375,15.4028,-6.08333,23.0417c-23.8472,67.6111,-93.3889,192.972,-280.722,168.111L169.722,476.597z"/>
      <path fill="none" stroke="#CCCCCC" stroke-linejoin="round" stroke-linecap="round" stroke-width="3.47222" d="M169.472,35.9306c0,0,28.6806,-9.54167,38.8194,-11.3194c14.7083,-6.30556,186.25,-36.5139,267.333,137.403c8.56944,18.4028,14.3194,49.9583,14.3194,49.9583" stroke-miterlimit="10"/>
      <path fill="none" stroke="#B3B3B3" stroke-linejoin="round" stroke-linecap="round" stroke-width="3.47222" d="M494.417,303.528c0,0,-3.375,15.4028,-6.08333,23.0278c-23.8472,67.6111,-93.3889,192.986,-280.722,168.111l-37.9028,-18.0833" stroke-miterlimit="10"/>
      <rect width="20.9306" x="484.847" y="207.431" fill="#F2F2F2" height="98.7917" stroke-width="0"/>
      <rect width="70.7222" x="492.069" y="162.014" fill="#666666" height="188.597" stroke-width="0"/>
     </g>
     <rect width="70.7222" x="492.069" y="350.611" fill="#333333" height="18.7083" stroke-width="0"/>
     <path opacity="0.41" fill="none" stroke="#E6E6E6" stroke-linejoin="round" stroke-linecap="round" enable-background="new    " stroke-width="0" d="M35.8194,256.306c0,-120.597,97.7639,-218.361,218.361,-218.361c120.583,0,218.361,97.7639,218.361,218.361" stroke-miterlimit="10"/>
     <path opacity="0.41" fill="none" stroke="#999999" stroke-linejoin="round" stroke-linecap="round" enable-background="new    " stroke-width="0" d="M472.542,256.306c0,120.583,-97.7778,218.361,-218.361,218.361c-120.597,0,-218.361,-97.7778,-218.361,-218.361" stroke-miterlimit="10"/>
     <rect width="7.125" x="555.681" y="162.014" fill="#4D4D4D" height="188.597" stroke-width="0"/>
     <rect width="7.125" x="555.681" y="350.611" fill="#1A1A1A" height="18.7083" stroke-width="0"/>
    </g>
   </g>
  </g>
  <g transform="translate(315.431,934.05)">
   <rect width="31.93" x="0" y="0" fill="#8D8C8C" height="31.9" id="connector0pin" stroke-width="0"/>
   <rect width="16.4442" x="7.79153" y="7.73544" fill="#8C8663" height="16.4152" stroke-width="0"/>
   <polygon fill="#B8AF82" points="0,31.9,7.79153,24.1368,7.79153,6.97162,0,0" stroke-width="0"/>
   <polygon fill="#80795B" points="24.2079,7.76321,7.90264,7.76321,0,0,31.93,0" stroke-width="0"/>
   <polygon fill="#5E5B43" points="24.2079,24.1368,24.2079,7.76321,31.93,0,31.93,31.9" stroke-width="0"/>
   <polygon fill="#9A916C" points="0,31.9,7.87486,24.1368,24.2079,24.1368,31.93,31.9" stroke-width="0"/>
  </g>
  <g transform="translate(415.431,934.05)">
   <rect width="31.93" x="0" y="0" fill="#8D8C8C" height="31.9" id="connector1pin" stroke-width="0"/>
   <rect width="16.4442" x="7.79153" y="7.73544" fill="#8C8663" height="16.4152" stroke-width="0"/>
   <polygon fill="#B8AF82" points="0,31.9,7.79153,24.1368,7.79153,6.97162,0,0" stroke-width="0"/>
   <polygon fill="#80795B" points="24.2079,7.76321,7.90264,7.76321,0,0,31.93,0" stroke-width="0"/>
   <polygon fill="#5E5B43" points="24.2079,24.1368,24.2079,7.76321,31.93,0,31.93,31.9" stroke-width="0"/>
   <polygon fill="#9A916C" points="0,31.9,7.87486,24.1368,24.2079,24.1368,31.93,31.9" stroke-width="0"/>
  </g>
  <g transform="translate(415.431,34.05)">
   <rect width="31.93" x="0" y="0" fill="#8D8C8C" height="31.9" id="connector2pin" stroke-width="0"/>
   <rect width="16.4442" x="7.79153" y="7.73544" fill="#8C8663" height="16.4152" stroke-width="0"/>
   <polygon fill="#B8AF82" points="0,31.9,7.79153,24.1368,7.79153,6.97162,0,0" stroke-width="0"/>
   <polygon fill="#80795B" points="24.2079,7.76321,7.90264,7.76321,0,0,31.93,0" stroke-width="0"/>
   <polygon fill="#5E5B43" points="24.2079,24.1368,24.2079,7.76321,31.93,0,31.93,31.9" stroke-width="0"/>
   <polygon fill="#9A916C" points="0,31.9,7.87486,24.1368,24.2079,24.1368,31.93,31.9" stroke-width="0"/>
  </g>
 </g>
 <text x="50" y="524.375" font-family="OCRA" fill="white" text-anchor="start" stroke="none" id="label" stroke-width="0" font-size="65"/>
 <g transform="translate(344.896,926.05)">
  <g transform="rotate(-90)">
   <text x="0" y="0" font-family="OCRA" fill="white" text-anchor="start" stroke="none" stroke-width="0" font-size="45"/>
  </g>
 </g>
 <g transform="translate(444.896,926.05)">
  <g transform="rotate(-90)">
   <text x="0" y="0" font-family="OCRA" fill="white" text-anchor="start" stroke="none" stroke-width="0" font-size="45"/>
  </g>
 </g>
 <g transform="translate(444.896,73.95)">
  <g transform="rotate(-90)">
   <text x="0" y="0" font-family="OCRA" fill="white" text-anchor="end" stroke="none" stroke-width="0" font-size="45"/>
  </g>
 </g>
</svg>
