<?xml version="1.0" encoding="utf-8"?>
<!-- Generator: Adobe Illustrator 15.1.0, SVG Export Plug-In . SVG Version: 6.00 Build 0)  -->
<!DOCTYPE svg PUBLIC "-//W3C//DTD SVG 1.1//EN" "http://www.w3.org/Graphics/SVG/1.1/DTD/svg11.dtd">
<svg version="1.1" id="Ebene_1" xmlns:svg="http://www.w3.org/2000/svg"
	 xmlns="http://www.w3.org/2000/svg" xmlns:xlink="http://www.w3.org/1999/xlink" x="0px" y="0px" width="27.59px"
	 height="31.775px" viewBox="0 -4.185 27.59 31.775" enable-background="new 0 -4.185 27.59 31.775" xml:space="preserve">
<circle id="connector0pin" fill="none" cx="6.595" cy="27.344" r="2.052"/>
<circle id="connector1pin" fill="none" cx="13.795" cy="27.344" r="2.052"/>
<circle id="connector2pin" fill="none" cx="20.995" cy="27.344" r="2.052"/>
<g>
	<rect x="3.858" y="19.688" fill="#1A1A1A" width="19.188" height="1.875"/>
	<g>
		<g>
			<path fill="#808080" d="M20.538,27.565h1.051v-6.355h-1.051V27.565z"/>
		</g>
		<g>
			<path fill="#808080" d="M13.327,27.565h1.051v-6.355h-1.051V27.565z"/>
		</g>
		<g>
			<path fill="#808080" d="M6.122,27.59h1.051v-6.355h-1.05L6.122,27.59L6.122,27.59z"/>
		</g>
		<g>
			<path fill="#B3B3B3" d="M20.417,27.565h1.052v-6.355h-1.052V27.565z"/>
		</g>
		<g>
			<path fill="#B3B3B3" d="M13.206,27.565h1.052v-6.355h-1.051L13.206,27.565L13.206,27.565z"/>
		</g>
		<g>
			<path fill="#B3B3B3" d="M6.001,27.59h1.051v-6.355h-1.05L6.001,27.59L6.001,27.59z"/>
		</g>
	</g>
	<polygon fill="#131E48" points="0,19.856 0,22.563 6.001,22.563 6.001,20.117 7.173,20.117 7.173,22.563 13.209,22.563 
		13.209,20.117 14.381,20.117 14.381,22.563 20.417,22.563 20.417,20.117 21.589,20.117 21.589,22.563 27.59,22.563 27.59,19.856 	
		"/>
	<g>
		<g>
			<rect x="4.993" y="-2.176" fill="#999999" width="18.03" height="19.819"/>
			<polygon fill="#333333" points="20.924,6.639 15.156,6.639 15.156,0.87 12.436,0.87 12.436,6.639 6.665,6.639 6.665,9.357 
				12.436,9.357 12.436,15.131 15.156,15.131 15.156,9.357 20.924,9.357 			"/>
			<polygon fill="#1A1A1A" points="6.665,6.639 12.436,6.639 12.436,0.87 13.077,0.87 13.077,7.307 6.665,7.307 			"/>
			<polygon fill="#1A1A1A" points="12.436,9.357 12.436,14.336 13.077,14.336 13.077,10.159 			"/>
			<polygon fill="#1A1A1A" points="15.153,6.643 19.955,6.643 19.955,7.285 15.776,7.285 			"/>
			<path fill="#3250BE" d="M0-4.185V20.18h27.59V-4.185H0z M13.795,13.649c-3.121,0-5.651-2.53-5.651-5.651
				c0-3.122,2.53-5.65,5.651-5.65c3.123,0,5.651,2.528,5.651,5.65C19.447,11.119,16.918,13.649,13.795,13.649z"/>
			<circle fill="#333333" cx="10.007" cy="4.114" r="0.522"/>
			<circle fill="#333333" cx="17.678" cy="4.114" r="0.522"/>
			<g>
				<path fill="#263C8F" d="M9.486,4.383L6.894,2.648L6.201,3.682l2.594,1.735C8.988,5.046,9.218,4.702,9.486,4.383z"/>
				<path fill="#263C8F" d="M13.795,2.347c0.196,0,0.379,0.037,0.569,0.057l-0.042-4.583l-1.245,0.014l0.043,4.58
					C13.344,2.389,13.563,2.347,13.795,2.347z"/>
				<path fill="#263C8F" d="M11.565,2.808l-1.427-2.523L9.054,0.897l1.435,2.536C10.824,3.189,11.178,2.974,11.565,2.808z"/>
				<path fill="#263C8F" d="M19.447,7.998c0,0.053-0.015,0.099-0.017,0.152l3.062-0.269l-0.11-1.239l-3.044,0.267
					C19.406,7.262,19.447,7.626,19.447,7.998z"/>
				<path fill="#263C8F" d="M17.024,3.37l1.359-2.489l-1.094-0.596l-1.355,2.487C16.321,2.93,16.684,3.132,17.024,3.37z"/>
				<path fill="#263C8F" d="M18.805,5.439l2.426-1.611l-0.688-1.036l-2.426,1.609C18.385,4.719,18.615,5.065,18.805,5.439z"/>
				<path fill="#263C8F" d="M18.748,10.671l3.171,1.27l0.462-1.155l-3.168-1.27C19.1,9.922,18.944,10.306,18.748,10.671z"/>
				<path fill="#263C8F" d="M17.15,12.524l3.689,3.955l0.907-0.85l-3.691-3.958C17.784,11.988,17.487,12.277,17.15,12.524z"/>
				<path fill="#263C8F" d="M9.513,11.649l-2.608,2.765l0.905,0.852l2.607-2.76C10.083,12.253,9.784,11.968,9.513,11.649z"/>
				<path fill="#263C8F" d="M8.144,7.998c0-0.394,0.042-0.777,0.119-1.15L4.965,6.525L4.844,7.762l3.312,0.326
					C8.153,8.057,8.144,8.031,8.144,7.998z"/>
				<path fill="#263C8F" d="M8.346,9.415l-3.351,1.271l0.44,1.165l3.36-1.27C8.604,10.211,8.45,9.823,8.346,9.415z"/>
			</g>
			<polygon fill="#CCCCCC" points="15.324,9.539 20.565,9.515 20.565,9.357 15.156,9.357 15.156,14.074 15.311,14.074 			"/>
			<path fill="#263C8F" d="M13.795,0.822c-3.965,0-7.179,3.214-7.179,7.18c0,3.967,3.214,7.18,7.179,7.18
				c3.965,0,7.178-3.213,7.178-7.18S17.758,0.822,13.795,0.822z M13.795,13.649c-3.121,0-5.651-2.53-5.651-5.651
				c0-3.122,2.53-5.65,5.651-5.65c3.123,0,5.651,2.528,5.651,5.65C19.447,11.119,16.918,13.649,13.795,13.649z"/>
			<g opacity="0.32">
				<path fill="none" stroke="#000000" stroke-width="0.2" d="M18.221,13.473l-0.098,0.078c-1.252,0.976-2.748,1.492-4.328,1.492
					c-1.594,0-3.104-0.523-4.358-1.515L9.34,13.449l-1.536,1.627l-0.708-0.668l1.535-1.628l-0.082-0.091
					c-0.436-0.49-0.801-1.033-1.086-1.622l-0.054-0.11l-1.897,0.717l-0.347-0.911l1.892-0.716L7.025,9.927
					C6.843,9.286,6.75,8.64,6.75,7.999v-0.12L6.634,7.802L4.991,7.64l0.095-0.969L6.85,6.846l0.023-0.123
					c0.136-0.751,0.388-1.46,0.745-2.106L7.675,4.51L6.387,3.644L6.93,2.833L8.22,3.697l0.077-0.098
					c0.435-0.538,0.94-1.011,1.507-1.403l0.101-0.07L9.238,0.949l0.849-0.481l0.668,1.181l0.111-0.05
					c0.72-0.331,1.478-0.537,2.252-0.609l0.124-0.012l-0.028-3.008l0.976-0.012l0.027,3.015l0.124,0.012
					c0.795,0.061,1.559,0.251,2.275,0.563l0.113,0.05l0.613-1.128l0.859,0.466l-0.617,1.129l0.103,0.067
					c0.614,0.408,1.161,0.908,1.622,1.495l0.079,0.097l1.118-0.746l0.542,0.812l-1.12,0.741l0.061,0.108
					c0.357,0.658,0.607,1.388,0.744,2.159l0.023,0.123l1.51-0.131l0.082,0.972L20.84,7.892l-0.002,0.121
					c-0.003,0.696-0.104,1.382-0.307,2.043l-0.037,0.119l1.713,0.685l-0.361,0.906l-1.72-0.688l-0.055,0.109
					c-0.281,0.548-0.635,1.063-1.058,1.53l-0.082,0.09l2.626,2.815l-0.714,0.666L18.221,13.473z"/>
			</g>
			<path opacity="0.35" enable-background="new    " d="M8.533,8.443c0-3.124,2.529-5.651,5.651-5.651
				c1.168,0,2.77,0.522,2.77,0.522c-0.9-0.61-1.99-0.965-3.158-0.965c-3.121,0-5.651,2.528-5.651,5.651
				c0,0.814,0.173,1.591,0.486,2.294C8.63,10.292,8.533,9.257,8.533,8.443z"/>
		</g>
		<rect x="0" y="19.545" opacity="0.18" fill="#FFFFFF" enable-background="new    " width="27.59" height="1.311"/>
	</g>
</g>
<rect x="0" y="-4.185" opacity="0.2" fill="#FFFFFF" width="27.59" height="0.272"/>
</svg>
