<?xml version='1.0' encoding='UTF-8' standalone='no'?>
<!-- Created with Fritzing (http://www.fritzing.org/) -->
<svg width="0.737185in" x="0in" version="1.2" y="0in" xmlns="http://www.w3.org/2000/svg" height="0.8in" viewBox="0 0 737.185 800" baseProfile="tiny" xmlns:svg="http://www.w3.org/2000/svg">
 <desc>Fritzing breadboard generated by brd2svg</desc>
 <g id="breadboard">
  <g id="icon">
   <path fill="#1F7A34" stroke="none" stroke-width="0" d="M0,0L0,370A30,30 0 0 1 0,430L0,800L737.185,800L737.185,0L0,0z"/>
   <g transform="translate(-168.593,-84.7835)">
    <g transform="matrix(0.5, 0, 0, 0.5, 268.593, 242.392)">
     <circle fill="none" cx="35" cy="484.784" connectorname="NEG" stroke="#F7BD13" r="25.8661" stroke-width="18.2677"/>
     <circle fill="none" cx="979.882" cy="484.784" connectorname="POS" stroke="#F7BD13" r="25.8661" stroke-width="18.2677"/>
     <path fill="#F7BD13" stroke="none" stroke-width="0" d="m944.882,449.783,70,0,0,70,-70,0,0,-118.11zM963.15,484.784a16.7323,16.7323,0,1,0,33.4646,0,16.7323,16.7323,0,1,0,-33.4646,0z"/>
     <rect width="1051.71" x="11.3287" y="0" fill="#303030" height="969.567" stroke="none" stroke-width="0"/>
     <polygon fill="#1f1f1f" points="11.3287,0 1063.04,0 1053.04,10 21.3287,10"/>
     <polygon fill="#1f1f1f" points="11.3287,969.567 1063.04,969.567 1053.04,959.567 21.3287,959.567"/>
     <polygon fill="#000000" points="11.3287,0 11.3287,969.567 21.3287,959.567 21.3287,10"/>
     <polygon fill="#3d3d3d" points="1063.04,0 1063.04,969.567 1053.04,959.567 1053.04,10"/>
     <circle fill="#1f1f1f" cx="41.3287" cy="939.567" stroke="none" r="10" stroke-width="0"/>
    </g>
   </g>
   <text x="50" y="424.375" font-family="OCRA" fill="white" text-anchor="start" stroke="none" id="label" stroke-width="0" font-size="65">FKIT-LIR2450-H</text>
   <g transform="translate(382.093,726.05)">
    <g transform="rotate(-90)">
     <text x="0" y="0" font-family="OCRA" fill="white" text-anchor="start" stroke="none" stroke-width="0" font-size="45">NEG</text>
    </g>
   </g>
   <g transform="translate(382.093,73.95)">
    <g transform="rotate(-90)">
     <text x="0" y="0" font-family="OCRA" fill="white" text-anchor="end" stroke="none" stroke-width="0" font-size="45">POS</text>
    </g>
   </g>
  </g>
  <g transform="translate(352.628,734.05)">
   <rect width="31.93" x="0" y="0" fill="#8D8C8C" height="31.9" id="connector0pin" stroke-width="0"/>
   <rect width="16.4442" x="7.79153" y="7.73544" fill="#8C8663" height="16.4152" stroke-width="0"/>
   <polygon fill="#B8AF82" points="0,31.9,7.79153,24.1368,7.79153,6.97162,0,0" stroke-width="0"/>
   <polygon fill="#80795B" points="24.2079,7.76321,7.90264,7.76321,0,0,31.93,0" stroke-width="0"/>
   <polygon fill="#5E5B43" points="24.2079,24.1368,24.2079,7.76321,31.93,0,31.93,31.9" stroke-width="0"/>
   <polygon fill="#9A916C" points="0,31.9,7.87486,24.1368,24.2079,24.1368,31.93,31.9" stroke-width="0"/>
  </g>
  <g transform="translate(352.628,34.05)">
   <rect width="31.93" x="0" y="0" fill="#8D8C8C" height="31.9" id="connector1pin" stroke-width="0"/>
   <rect width="16.4442" x="7.79153" y="7.73544" fill="#8C8663" height="16.4152" stroke-width="0"/>
   <polygon fill="#B8AF82" points="0,31.9,7.79153,24.1368,7.79153,6.97162,0,0" stroke-width="0"/>
   <polygon fill="#80795B" points="24.2079,7.76321,7.90264,7.76321,0,0,31.93,0" stroke-width="0"/>
   <polygon fill="#5E5B43" points="24.2079,24.1368,24.2079,7.76321,31.93,0,31.93,31.9" stroke-width="0"/>
   <polygon fill="#9A916C" points="0,31.9,7.87486,24.1368,24.2079,24.1368,31.93,31.9" stroke-width="0"/>
  </g>
 </g>
</svg>
