<?xml version='1.0' encoding='UTF-8' standalone='no'?>
<!-- Created with Fritzing (http://www.fritzing.org/) -->
<svg width="1.20204in" x="0in" version="1.2" y="0in" xmlns="http://www.w3.org/2000/svg" height="1.4in" viewBox="0 0 1202.04 1400" baseProfile="tiny" xmlns:svg="http://www.w3.org/2000/svg">
 <desc>Fritzing breadboard generated by brd2svg</desc>
 <g id="breadboard">
  <g id="icon">
   <path fill="#1F7A34" stroke="none" stroke-width="0" d="M0,0L0,670A30,30 0 0 1 0,730L0,1400L1202.04,1400L1202.04,0L0,0z"/>
   <g transform="translate(100,205.347)">
    <g stroke-width="0">
     <g stroke-width="0">
      <g stroke-width="0">
       <circle fill="#4D4D4D" cx="243.569" cy="357.917" r="479.625" stroke-width="0"/>
      </g>
      <g opacity="0.5" stroke-width="0">
       <path fill="#C6C6C6" stroke-width="0" d="M243.569,822.708c-55.75,0,-110.472,-9.31944,-162.611,-27.75c-4.20833,-1.5,-6.43056,-6.13889,-4.94444,-10.4028c1.47222,-4.20833,6.11111,-6.36111,10.3333,-4.91667c74.4167,26.3333,155.944,33.4028,233.792,20.6528c4.33333,-0.763889,8.56944,2.27778,9.29167,6.68056c0.736111,4.375,-2.27778,8.58333,-6.68056,9.29167C296.792,820.556,270.111,822.708,243.569,822.708z"/>
      </g>
      <g opacity="0.43" stroke-width="0">
       <g stroke-width="0">
        <path fill="#020202" stroke-width="0" d="M-184.625,302.306c0,-90.1111,73.0417,-163.181,163.167,-163.181c58.0278,0,108.833,30.3611,137.736,75.9722c-25.9444,-55.7083,-82.2639,-94.4444,-147.819,-94.4444c-90.1111,0,-163.153,73.0694,-163.153,163.194c0,32.0833,9.38889,61.9306,25.3889,87.1806C-179.042,350.125,-184.625,326.889,-184.625,302.306z"/>
       </g>
      </g>
      <g opacity="0.43" stroke-width="0">
       <g stroke-width="0">
        <path fill="#020202" stroke-width="0" d="M364.542,302.306c0,-90.1111,73.0278,-163.181,163.153,-163.181c58.0278,0,108.833,30.3611,137.736,75.9722c-25.9167,-55.7083,-82.2917,-94.4444,-147.833,-94.4444c-90.1111,0,-163.167,73.0694,-163.167,163.194c0,32.0833,9.38889,61.9306,25.4444,87.1806C370.125,350.125,364.542,326.889,364.542,302.306z"/>
       </g>
      </g>
      <g stroke-width="0">
       <g stroke-width="0">
        <g stroke-width="0">
         <path fill="#9B9B9B" stroke-width="0" d="M-107.125,241.847c0,-36.375,32.6944,-65.8333,73.0556,-65.8333c40.3472,0,73.0833,29.4583,73.0833,65.8333l0,77.7222L-107.125,319.569L-107.125,241.847z"/>
         <path fill="#9B9B9B" stroke-width="0" d="M442,241.847c0,-36.375,32.7083,-65.8333,73.125,-65.8333c40.3472,0,73.0833,29.4583,73.0833,65.8333l0,77.7222L442.056,319.569l0,-77.7222L442,241.847z"/>
        </g>
        <rect width="146.139" x="442" y="319.528" fill="#898989" height="350.472" stroke-width="0"/>
        <rect width="146.139" x="-107.125" y="319.528" fill="#898989" height="350.472" stroke-width="0"/>
        <g stroke-width="0">
         <path fill="#999999" stroke-width="0" d="M431.458,-128.806l0,-22.9583L47.75,-151.764l0,22.9583l-305.208,271.486l0,521.875c0,75.1389,60.0694,136.611,133.486,136.611c73.3889,0,171.764,-125.486,353.153,-125.486c181.389,0,283.111,125.486,360.597,125.486l13.9722,0c77.4444,0,140.833,-61.4722,140.833,-136.611L744.583,142.681L431.458,-128.806zM49.9444,413.819l0,251.347l-168.056,0L-118.111,413.819c-44.3056,-27.9722,-73.8611,-77.2222,-73.8611,-133.486c0,-87.2083,70.6806,-157.889,157.889,-157.889c87.2222,0,157.889,70.6806,157.889,157.889C123.806,336.611,94.3056,385.847,49.9444,413.819zM599.097,413.819l0,251.347L431.069,665.167L431.069,413.819c-44.3056,-27.9722,-73.875,-77.2222,-73.875,-133.486c0,-87.2083,70.6806,-157.889,157.875,-157.889c87.2083,0,157.889,70.6806,157.889,157.889C672.958,336.611,643.458,385.847,599.097,413.819z"/>
        </g>
        <rect width="383.708" x="47.75" opacity="0.3" y="-151.764" fill="#FFFFFF" height="22.9583" enable-background="new    " stroke-width="0"/>
        <g stroke-width="0">
         <path fill="none" stroke-width="0" d="M-34.0694,122.431c-87.1944,0,-157.903,70.6806,-157.903,157.875c0,56.3333,29.5417,105.583,73.875,133.514l0,251.347l168.056,0L49.9583,413.819c44.3194,-28,73.8472,-77.2222,73.8472,-133.486C123.806,193.125,53.125,122.431,-34.0694,122.431z"/>
         <path fill="none" stroke-width="0" d="M515.056,122.431c-87.1944,0,-157.875,70.6806,-157.875,157.875c0,56.3333,29.5417,105.583,73.875,133.514l0,251.347l168.069,0L599.125,413.819c44.3194,-28,73.8472,-77.2222,73.8472,-133.486C672.958,193.125,602.278,122.431,515.056,122.431z"/>
         <path fill="#898989" stroke-width="0" d="M-257.458,142.681l0,521.875c0,25.125,6.81944,48.5972,18.5,68.8611L-238.958,126.222L-257.458,142.681z"/>
         <path opacity="0.3" fill="#FFFFFF" enable-background="new    " stroke-width="0" d="M-257.458,142.681l0,521.875c0,25.125,6.81944,48.5972,18.5,68.8611L-238.958,126.222L-257.458,142.681z"/>
         <path fill="#898989" stroke-width="0" d="M744.583,142.681l-18.4583,-16.0139l0,605.111c11.7083,-19.8889,18.4583,-42.8194,18.4583,-67.2222L744.583,142.681z"/>
         <path opacity="0.3" fill="#FFFFFF" enable-background="new    " stroke-width="0" d="M744.583,142.681l-18.4583,-16.0139l0,605.111c11.7083,-19.8889,18.4583,-42.8194,18.4583,-67.2222L744.583,142.681z"/>
        </g>
        <g opacity="0.5" stroke-width="0">
         <path fill="#FFFFFF" stroke-width="0" d="M251.417,-77.4722l0,87.3889l84.25,0l0,14.3056l-84.25,0l0,88.0972l-15.3333,0L236.083,24.2083l-84.1944,0l0,-14.3056l84.1944,0l0,-87.3889L251.417,-77.4861z"/>
        </g>
       </g>
      </g>
      <g stroke-width="0">
       <path fill="#828282" stroke-width="0" d="M18.6111,324.736l-105.528,0c-4.45833,0,-8.09722,-3.625,-8.09722,-8.11111c0,-4.43056,3.625,-8.08333,8.09722,-8.08333L18.6111,308.542c4.48611,0,8.11111,3.65278,8.11111,8.08333C26.7222,321.111,23.0972,324.736,18.6111,324.736z"/>
      </g>
      <g stroke-width="0">
       <path fill="#828282" stroke-width="0" d="M567.847,324.736l-105.528,0c-4.47222,0,-8.11111,-3.625,-8.11111,-8.11111c0,-4.43056,3.63889,-8.08333,8.11111,-8.08333l105.528,0c4.45833,0,8.11111,3.65278,8.11111,8.08333C575.958,321.111,572.319,324.736,567.847,324.736z"/>
      </g>
     </g>
     <path opacity="0.3" fill="#FFFFFF" enable-background="new    " stroke-width="0" d="M-106.958,237.319c0,-33.6389,33.0417,-61.0556,72.9028,-61.0556c39.8472,0,72.625,27.375,72.625,61.0556c0,-29.0278,-37.4306,-52.625,-72.625,-52.625C-69.2639,184.694,-106.958,208.292,-106.958,237.319z"/>
     <path opacity="0.3" fill="#FFFFFF" enable-background="new    " stroke-width="0" d="M442.333,237.319c0,-33.6389,33.0417,-61.0556,72.8611,-61.0556c39.8472,0,72.6389,27.375,72.6389,61.0556c0,-29.0278,-37.4167,-52.625,-72.6389,-52.625C480,184.694,442.333,208.292,442.333,237.319z"/>
    </g>
   </g>
  </g>
  <g transform="translate(535.055,1334.05)">
   <rect width="31.93" x="0" y="0" fill="#8D8C8C" height="31.9" id="connector0pin" stroke-width="0"/>
   <rect width="16.4442" x="7.79153" y="7.73544" fill="#8C8663" height="16.4152" stroke-width="0"/>
   <polygon fill="#B8AF82" points="0,31.9,7.79153,24.1368,7.79153,6.97162,0,0" stroke-width="0"/>
   <polygon fill="#80795B" points="24.2079,7.76321,7.90264,7.76321,0,0,31.93,0" stroke-width="0"/>
   <polygon fill="#5E5B43" points="24.2079,24.1368,24.2079,7.76321,31.93,0,31.93,31.9" stroke-width="0"/>
   <polygon fill="#9A916C" points="0,31.9,7.87486,24.1368,24.2079,24.1368,31.93,31.9" stroke-width="0"/>
  </g>
  <g transform="translate(535.055,34.05)">
   <rect width="31.93" x="0" y="0" fill="#8D8C8C" height="31.9" id="" stroke-width="0"/>
   <rect width="16.4442" x="7.79153" y="7.73544" fill="#8C8663" height="16.4152" stroke-width="0"/>
   <polygon fill="#B8AF82" points="0,31.9,7.79153,24.1368,7.79153,6.97162,0,0" stroke-width="0"/>
   <polygon fill="#80795B" points="24.2079,7.76321,7.90264,7.76321,0,0,31.93,0" stroke-width="0"/>
   <polygon fill="#5E5B43" points="24.2079,24.1368,24.2079,7.76321,31.93,0,31.93,31.9" stroke-width="0"/>
   <polygon fill="#9A916C" points="0,31.9,7.87486,24.1368,24.2079,24.1368,31.93,31.9" stroke-width="0"/>
  </g>
  <g transform="translate(635.055,1334.05)">
   <rect width="31.93" x="0" y="0" fill="#8D8C8C" height="31.9" id="connector1pin" stroke-width="0"/>
   <rect width="16.4442" x="7.79153" y="7.73544" fill="#8C8663" height="16.4152" stroke-width="0"/>
   <polygon fill="#B8AF82" points="0,31.9,7.79153,24.1368,7.79153,6.97162,0,0" stroke-width="0"/>
   <polygon fill="#80795B" points="24.2079,7.76321,7.90264,7.76321,0,0,31.93,0" stroke-width="0"/>
   <polygon fill="#5E5B43" points="24.2079,24.1368,24.2079,7.76321,31.93,0,31.93,31.9" stroke-width="0"/>
   <polygon fill="#9A916C" points="0,31.9,7.87486,24.1368,24.2079,24.1368,31.93,31.9" stroke-width="0"/>
  </g>
  <g transform="translate(635.055,34.05)">
   <rect width="31.93" x="0" y="0" fill="#8D8C8C" height="31.9" id="connector2pin" stroke-width="0"/>
   <rect width="16.4442" x="7.79153" y="7.73544" fill="#8C8663" height="16.4152" stroke-width="0"/>
   <polygon fill="#B8AF82" points="0,31.9,7.79153,24.1368,7.79153,6.97162,0,0" stroke-width="0"/>
   <polygon fill="#80795B" points="24.2079,7.76321,7.90264,7.76321,0,0,31.93,0" stroke-width="0"/>
   <polygon fill="#5E5B43" points="24.2079,24.1368,24.2079,7.76321,31.93,0,31.93,31.9" stroke-width="0"/>
   <polygon fill="#9A916C" points="0,31.9,7.87486,24.1368,24.2079,24.1368,31.93,31.9" stroke-width="0"/>
  </g>
 </g>
 <text x="50" y="724.375" font-family="OCRA" fill="white" text-anchor="start" stroke="none" id="label" stroke-width="0" font-size="65">BATTCON_245MM</text>
 <g transform="translate(564.52,1326.05)">
  <g transform="rotate(-90)">
   <text x="0" y="0" font-family="OCRA" fill="white" text-anchor="start" stroke="none" stroke-width="0" font-size="45">1</text>
  </g>
 </g>
 <g transform="translate(564.52,73.95)">
  <g transform="rotate(-90)">
   <text x="0" y="0" font-family="OCRA" fill="white" text-anchor="end" stroke="none" stroke-width="0" font-size="45"/>
  </g>
 </g>
 <g transform="translate(664.52,1326.05)">
  <g transform="rotate(-90)">
   <text x="0" y="0" font-family="OCRA" fill="white" text-anchor="start" stroke="none" stroke-width="0" font-size="45">2</text>
  </g>
 </g>
 <g transform="translate(664.52,73.95)">
  <g transform="rotate(-90)">
   <text x="0" y="0" font-family="OCRA" fill="white" text-anchor="end" stroke="none" stroke-width="0" font-size="45">3</text>
  </g>
 </g>
</svg>
