<?xml version='1.0' encoding='UTF-8' standalone='no'?>
<!-- Created with Fritzing (http://www.fritzing.org/) -->
<svg width="0.890236in" x="0in" version="1.2" y="0in" xmlns="http://www.w3.org/2000/svg" height="1.2in" viewBox="0 0 890.236 1200" baseProfile="tiny" xmlns:svg="http://www.w3.org/2000/svg">
 <desc>Fritzing breadboard generated by brd2svg</desc>
 <g id="breadboard">
  <g id="icon">
   <path fill="#1F7A34" stroke="none" stroke-width="0" d="M0,0L0,570A30,30 0 0 1 0,630L0,1200L890.236,1200L890.236,0L0,0z"/>
   <g transform="translate(100,178.382)">
    <g stroke-width="0">
     <g stroke-width="0">
      <g stroke-width="0">
       <path fill="#F2F2F2" stroke-width="0" d="M679.694,441.125c5.80556,0,10.5556,4.75,10.5556,10.5278l0,38.8472c0,5.77778,-4.75,10.5278,-10.5556,10.5278l-17.0833,0l0,-59.9028L679.694,441.125z"/>
       <rect width="30.1944" x="649.125" y="441.125" fill="#CCCCCC" height="59.9028" stroke-width="0"/>
       <rect width="9.55556" x="669.764" y="441.125" fill="#E6E6E6" height="59.9028" stroke-width="0"/>
       <rect width="25.9306" x="653.389" opacity="0.02" y="441.125" fill="#808080" height="59.9028" enable-background="new    " stroke-width="0"/>
       <rect width="7.05556" x="649.125" y="441.125" fill="#E6E6E6" height="59.9028" stroke-width="0"/>
      </g>
      <g stroke-width="0">
       <path fill="#F2F2F2" stroke-width="0" d="M679.694,659.542c5.80556,0,10.5556,4.76389,10.5556,10.5417l0,38.8472c0,5.77778,-4.75,10.5417,-10.5556,10.5417l-17.0833,0l0,-59.9167L679.694,659.556z"/>
       <rect width="30.1944" x="649.125" y="659.542" fill="#CCCCCC" height="59.9167" stroke-width="0"/>
       <rect width="9.55556" x="669.764" y="659.542" fill="#E6E6E6" height="59.9167" stroke-width="0"/>
       <rect width="25.9306" x="653.389" opacity="0.02" y="659.542" fill="#808080" height="59.9167" enable-background="new    " stroke-width="0"/>
       <rect width="7.05556" x="649.125" y="659.542" fill="#E6E6E6" height="59.9167" stroke-width="0"/>
      </g>
      <g stroke-width="0">
       <path fill="#F2F2F2" stroke-width="0" d="M10.5417,719.431c-5.80556,0,-10.5556,-4.75,-10.5556,-10.5278l0,-38.8472c0,-5.77778,4.75,-10.5417,10.5556,-10.5417l17.0694,0l0,59.9028L10.5417,719.417z"/>
       <rect width="30.2083" x="10.9028" y="659.514" fill="#CCCCCC" height="59.9028" stroke-width="0"/>
       <rect width="9.55556" x="10.9028" y="659.514" fill="#E6E6E6" height="59.9028" stroke-width="0"/>
       <rect width="25.9167" x="10.9028" opacity="0.02" y="659.514" fill="#808080" height="59.9028" enable-background="new    " stroke-width="0"/>
       <rect width="7.06944" x="34.0417" y="659.514" fill="#E6E6E6" height="59.9028" stroke-width="0"/>
      </g>
      <g stroke-width="0">
       <path fill="#F2F2F2" stroke-width="0" d="M10.5417,500.958c-5.80556,0,-10.5556,-4.75,-10.5556,-10.5278l0,-38.8472c0,-5.77778,4.75,-10.5556,10.5556,-10.5556l17.0694,0l0,59.9028L10.5417,500.931L10.5417,500.958z"/>
       <rect width="30.2083" x="10.9028" y="441.069" fill="#CCCCCC" height="59.9167" stroke-width="0"/>
       <rect width="9.55556" x="10.9028" y="441.069" fill="#E6E6E6" height="59.9167" stroke-width="0"/>
       <rect width="25.9167" x="10.9028" opacity="0.02" y="441.069" fill="#808080" height="59.9167" enable-background="new    " stroke-width="0"/>
       <rect width="7.06944" x="34.0417" y="441.069" fill="#E6E6E6" height="59.9167" stroke-width="0"/>
      </g>
      <rect width="607.986" x="41.1111" y="90.1944" fill="#1A1A1A" height="244.792" stroke-width="0"/>
      <path fill="#B3B3B3" stroke-width="0" d="M191.597,193.764c0,-5.5,4.5,-10,10.0417,-10l36.8056,0c5.5,0,10.0417,4.5,10.0417,10l0,131.222c0,5.5,-4.5,10,-10.0417,10l-36.8056,0c-5.5,0,-10.0417,-4.5,-10.0417,-10L191.597,193.764z"/>
      <path fill="#B3B3B3" stroke-width="0" d="M441.694,193.764c0,-5.5,4.5,-10,10.0417,-10l36.8056,0c5.5,0,10.0417,4.5,10.0417,10l0,131.222c0,5.5,-4.5,10,-10.0417,10l-36.8056,0c-5.5,0,-10.0417,-4.5,-10.0417,-10L441.694,193.764z"/>
      <path fill="#CCCCCC" stroke-width="0" d="M191.597,193.764c0,-5.5,4.5,-10,10.0417,-10l36.8056,0c5.5,0,10.0417,4.5,10.0417,10l0,16.2083l-56.9028,0L191.597,193.764L191.597,193.764z"/>
      <path fill="#CCCCCC" stroke-width="0" d="M441.694,193.764c0,-5.5,4.5,-10,10.0417,-10l36.8056,0c5.5,0,10.0417,4.5,10.0417,10l0,16.2083l-56.8889,0L441.694,193.764z"/>
      <rect width="607.986" x="41.1111" y="323.347" fill="#E6E6E6" height="519.986" stroke-width="0"/>
      <polygon fill="#333333" points="633.097,743.889,633.097,355.819,57.1389,355.819,57.1389,743.889,191.778,743.889,191.778,824.264,498.458,824.264,498.458,743.889" stroke-width="0"/>
      <polygon points="70.2361,369.903,70.2361,734.042,201.847,734.042,201.847,771.097,270.472,771.097,270.472,824.264,419.764,824.264,419.764,771.097,488.375,771.097,488.375,734.042,620.014,734.042,620.014,369.903" stroke-width="0"/>
      <rect width="286.514" x="201.847" y="753.917" fill="#1A1A1A" height="17.1389" stroke-width="0"/>
      <rect width="149.306" x="270.472" y="817.319" fill="#1A1A1A" height="16.7639" stroke-width="0"/>
      <rect width="13.0417" x="620.014" y="510.056" height="80" stroke-width="0"/>
      <rect width="13.0972" x="57.1389" y="510.056" height="80" stroke-width="0"/>
      <g stroke-width="0">
       <rect width="26.2083" x="606.917" y="519.653" fill="#CCCCCC" height="60.8194" stroke-width="0"/>
       <rect width="13.9722" x="606.917" y="519.653" fill="#B3B3B3" height="60.8194" stroke-width="0"/>
       <rect width="10.5" x="606.917" y="519.653" fill="#999999" height="60.8194" stroke-width="0"/>
       <rect width="7.19444" x="606.944" y="519.653" fill="#808080" height="60.8194" stroke-width="0"/>
       <rect width="2.02778" x="610.306" y="519.653" fill="#CCCCCC" height="60.8194" stroke-width="0"/>
      </g>
      <g stroke-width="0">
       <rect width="26.2083" x="57.1389" y="519.653" fill="#CCCCCC" height="60.8194" stroke-width="0"/>
       <rect width="13.9722" x="69.3472" y="519.653" fill="#B3B3B3" height="60.8194" stroke-width="0"/>
       <rect width="10.5" x="72.8194" y="519.653" fill="#999999" height="60.8194" stroke-width="0"/>
       <rect width="7.20833" x="76.1111" y="519.653" fill="#808080" height="60.8194" stroke-width="0"/>
       <rect width="2.02778" x="77.875" y="519.653" fill="#CCCCCC" height="60.8194" stroke-width="0"/>
      </g>
      <rect width="56.9028" x="191.597" y="207.389" fill="#999999" height="56.4306" stroke-width="0"/>
      <rect width="56.8889" x="441.694" y="207.389" fill="#999999" height="56.4306" stroke-width="0"/>
      <rect width="56.9028" x="191.597" y="242.972" fill="#B3B3B3" height="53.8194" stroke-width="0"/>
      <rect width="56.8889" x="441.694" y="242.972" fill="#B3B3B3" height="53.8194" stroke-width="0"/>
      <rect width="56.9028" x="191.597" y="267.708" fill="#CCCCCC" height="20.4028" stroke-width="0"/>
      <rect width="56.8889" x="441.694" y="267.708" fill="#CCCCCC" height="20.4028" stroke-width="0"/>
      <rect width="56.9028" x="191.597" y="205.236" fill="#E6E6E6" height="4.30556" stroke-width="0"/>
      <rect width="56.9028" x="191.639" y="197.625" fill="#F2F2F2" height="6.81944" stroke-width="0"/>
      <path fill="#CCCCCC" stroke-width="0" d="M649.125,178.5L649.125,9.93056l0,-10l-10.0139,0L51.125,-0.0694444L41.1111,-0.0694444l0,10l0,168.569l4,0l0,144.847l6.04167,0l119.819,0l10,0l0.652778,-9.97222l4.66667,-70.8889l4.66667,-70.8889c0.361111,-5.48611,5.16667,-9.97222,10.7083,-9.97222l37.0278,0c5.5,0,10.2639,4.48611,10.6667,9.97222l4.66667,70.8889l4.66667,70.8889l0,0l0.666667,9.97222l10.0417,0l151.639,0l10.0139,0l0.680556,-9.95833l0,-0.0138889l4.77778,-70.8889l4.83333,-70.9028c0.347222,-5.48611,5.18056,-9.95833,10.6667,-9.95833l36.5139,0c5.5,0,10.2778,4.47222,10.7083,9.95833l4.80556,70.9028l4.77778,70.8889l0,0.0138889l0.666667,9.95833L519.444,323.347l119.819,0l6,0l0,-144.861L649.125,178.5L649.125,178.5z"/>
     </g>
     <g stroke-width="0">
      <g opacity="0.57" stroke-width="0">
       <g stroke-width="0">
        <rect width="17.3056" x="516.472" y="625.097" fill="#1A1A1A" height="108.944" stroke-width="0"/>
       </g>
       <g stroke-width="0">
        <rect width="17.3056" x="471.472" y="625.097" fill="#1A1A1A" height="128.819" stroke-width="0"/>
       </g>
       <g stroke-width="0">
        <rect width="17.3333" x="426.444" y="625.097" fill="#1A1A1A" height="128.819" stroke-width="0"/>
       </g>
       <g stroke-width="0">
        <rect width="17.3333" x="381.444" y="625.097" fill="#1A1A1A" height="128.819" stroke-width="0"/>
       </g>
       <g stroke-width="0">
        <rect width="17.3194" x="336.458" y="625.097" fill="#1A1A1A" height="128.819" stroke-width="0"/>
       </g>
       <g stroke-width="0">
        <rect width="17.3194" x="291.458" y="625.097" fill="#1A1A1A" height="128.819" stroke-width="0"/>
       </g>
       <g stroke-width="0">
        <rect width="17.3194" x="246.431" y="625.097" fill="#1A1A1A" height="128.819" stroke-width="0"/>
       </g>
       <g stroke-width="0">
        <rect width="17.3194" x="201.431" y="625.097" fill="#1A1A1A" height="128.819" stroke-width="0"/>
       </g>
       <g stroke-width="0">
        <rect width="17.3056" x="156.458" y="625.097" fill="#1A1A1A" height="108.944" stroke-width="0"/>
       </g>
      </g>
      <g opacity="0.51" stroke-width="0">
       <g stroke-width="0">
        <rect width="17.3333" x="516.472" y="369.903" fill="#1A1A1A" height="245.833" stroke-width="0"/>
       </g>
       <g stroke-width="0">
        <rect width="17.3333" x="471.472" y="369.903" fill="#1A1A1A" height="245.833" stroke-width="0"/>
       </g>
       <g stroke-width="0">
        <rect width="17.3056" x="426.472" y="369.903" fill="#1A1A1A" height="245.833" stroke-width="0"/>
       </g>
       <g stroke-width="0">
        <rect width="17.3056" x="381.472" y="369.903" fill="#1A1A1A" height="245.833" stroke-width="0"/>
       </g>
       <g stroke-width="0">
        <rect width="17.3333" x="336.472" y="369.903" fill="#1A1A1A" height="245.833" stroke-width="0"/>
       </g>
       <g stroke-width="0">
        <rect width="17.3194" x="291.472" y="369.903" fill="#1A1A1A" height="245.833" stroke-width="0"/>
       </g>
       <g stroke-width="0">
        <rect width="17.3194" x="246.444" y="369.903" fill="#1A1A1A" height="245.833" stroke-width="0"/>
       </g>
       <g stroke-width="0">
        <rect width="17.3194" x="201.444" y="369.903" fill="#1A1A1A" height="245.833" stroke-width="0"/>
       </g>
       <g stroke-width="0">
        <rect width="17.3056" x="156.458" y="369.903" fill="#1A1A1A" height="245.833" stroke-width="0"/>
       </g>
      </g>
      <g opacity="0.61" stroke-width="0">
       <g stroke-width="0">
        <g stroke-width="0">
         <rect width="17.3056" x="494.208" y="369.903" fill="#B5751F" height="207.264" stroke-width="0"/>
        </g>
        <g stroke-width="0">
         <rect width="17.3056" x="449.208" y="369.903" fill="#B5751F" height="207.264" stroke-width="0"/>
        </g>
        <g stroke-width="0">
         <rect width="17.3333" x="404.194" y="369.903" fill="#B5751F" height="207.264" stroke-width="0"/>
        </g>
        <g stroke-width="0">
         <rect width="17.3333" x="359.194" y="369.903" fill="#B5751F" height="207.264" stroke-width="0"/>
        </g>
        <g stroke-width="0">
         <rect width="17.3194" x="314.181" y="369.903" fill="#B5751F" height="207.264" stroke-width="0"/>
        </g>
        <g stroke-width="0">
         <rect width="17.3194" x="269.181" y="369.903" fill="#B5751F" height="207.264" stroke-width="0"/>
        </g>
        <g stroke-width="0">
         <rect width="17.3194" x="224.194" y="369.903" fill="#B5751F" height="207.264" stroke-width="0"/>
        </g>
        <g stroke-width="0">
         <rect width="17.3194" x="179.194" y="369.903" fill="#B5751F" height="207.264" stroke-width="0"/>
        </g>
       </g>
       <g stroke-width="0">
        <g stroke-width="0">
         <rect width="10.5278" x="497.597" y="369.903" fill="#C4914C" height="207.264" stroke-width="0"/>
        </g>
        <g stroke-width="0">
         <rect width="10.5556" x="452.597" y="369.903" fill="#C4914C" height="207.264" stroke-width="0"/>
        </g>
        <g stroke-width="0">
         <rect width="10.5" x="407.611" y="369.903" fill="#C4914C" height="207.264" stroke-width="0"/>
        </g>
        <g stroke-width="0">
         <rect width="10.5" x="362.611" y="369.903" fill="#C4914C" height="207.264" stroke-width="0"/>
        </g>
        <g stroke-width="0">
         <rect width="10.5139" x="317.583" y="369.903" fill="#C4914C" height="207.264" stroke-width="0"/>
        </g>
        <g stroke-width="0">
         <rect width="10.5139" x="272.583" y="369.903" fill="#C4914C" height="207.264" stroke-width="0"/>
        </g>
        <g stroke-width="0">
         <rect width="10.5278" x="227.583" y="369.903" fill="#C4914C" height="207.264" stroke-width="0"/>
        </g>
        <g stroke-width="0">
         <rect width="10.5139" x="182.597" y="369.903" fill="#C4914C" height="207.264" stroke-width="0"/>
        </g>
       </g>
       <g stroke-width="0">
        <g stroke-width="0">
         <rect width="5.23611" x="500.25" y="369.903" fill="#D3AC79" height="207.264" stroke-width="0"/>
        </g>
        <g stroke-width="0">
         <rect width="5.23611" x="455.25" y="369.903" fill="#D3AC79" height="207.264" stroke-width="0"/>
        </g>
        <g stroke-width="0">
         <rect width="5.20833" x="410.25" y="369.903" fill="#D3AC79" height="207.264" stroke-width="0"/>
        </g>
        <g stroke-width="0">
         <rect width="5.20833" x="365.25" y="369.903" fill="#D3AC79" height="207.264" stroke-width="0"/>
        </g>
        <g stroke-width="0">
         <rect width="5.22222" x="320.25" y="369.903" fill="#D3AC79" height="207.264" stroke-width="0"/>
        </g>
        <g stroke-width="0">
         <rect width="5.22222" x="275.25" y="369.903" fill="#D3AC79" height="207.264" stroke-width="0"/>
        </g>
        <g stroke-width="0">
         <rect width="5.22222" x="230.222" y="369.903" fill="#D3AC79" height="207.264" stroke-width="0"/>
        </g>
        <g stroke-width="0">
         <rect width="5.22222" x="185.222" y="369.903" fill="#D3AC79" height="207.264" stroke-width="0"/>
        </g>
       </g>
      </g>
     </g>
     <rect width="48.25" x="41.1111" opacity="0.37" y="-0.0833333" fill="#E6E6E6" height="335.069" enable-background="new    " stroke-width="0"/>
     <rect width="48.2083" x="600.917" opacity="0.37" y="-0.0833333" fill="#808080" height="335.069" enable-background="new    " stroke-width="0"/>
     <path opacity="0.45" fill="#E6E6E6" enable-background="new    " stroke-width="0" d="M220.028,323.347l-28.4306,0c0,0,0,-122.958,0,-129.597s6,-10,10.0417,-10s18.3889,0,18.3889,0L220.028,323.347z"/>
     <path opacity="0.45" fill="#E6E6E6" enable-background="new    " stroke-width="0" d="M470.111,323.347l-28.375,0c0,0,0,-122.958,0,-129.597s5.94444,-10,9.98611,-10s18.3889,0,18.3889,0L470.111,323.347z"/>
     <path opacity="0.45" fill="#B3B3B3" enable-background="new    " stroke-width="0" d="M470.167,323.347l28.4306,0c0,0,0,-122.958,0,-129.597s-6.02778,-10,-10.0694,-10s-18.3611,0,-18.3611,0L470.167,323.347z"/>
     <path opacity="0.45" fill="#B3B3B3" enable-background="new    " stroke-width="0" d="M220.028,323.347l28.4722,0c0,0,0,-122.958,0,-129.597s-6,-10,-10.0417,-10s-18.4306,0,-18.4306,0L220.028,323.347z"/>
     <rect width="56.9028" x="191.597" opacity="0.76" y="270.75" fill="#E6E6E6" height="11.2917" enable-background="new    " stroke-width="0"/>
     <rect width="56.8889" x="441.694" opacity="0.76" y="270.75" fill="#E6E6E6" height="11.2917" enable-background="new    " stroke-width="0"/>
     <rect width="56.8889" x="441.694" opacity="0.76" y="205.236" fill="#E6E6E6" height="4.30556" enable-background="new    " stroke-width="0"/>
     <rect width="56.8611" x="441.736" opacity="0.76" y="199.097" fill="#F2F2F2" height="5.70833" enable-background="new    " stroke-width="0"/>
     <rect width="607.986" x="41.1111" y="836.875" fill="#B3B3B3" height="6.29167" stroke-width="0"/>
     <rect width="6.20833" x="642.889" y="675.639" fill="#B3B3B3" height="161.208" stroke-width="0"/>
     <rect width="607.986" x="41.1111" opacity="0.42" y="323.347" fill="#CCCCCC" height="11.6389" enable-background="new    " stroke-width="0"/>
    </g>
   </g>
  </g>
  <g transform="translate(279.153,1134.05)">
   <rect width="31.93" x="0" y="0" fill="#8D8C8C" height="31.9" id="connector0pin" stroke-width="0"/>
   <rect width="16.4442" x="7.79153" y="7.73544" fill="#8C8663" height="16.4152" stroke-width="0"/>
   <polygon fill="#B8AF82" points="0,31.9,7.79153,24.1368,7.79153,6.97162,0,0" stroke-width="0"/>
   <polygon fill="#80795B" points="24.2079,7.76321,7.90264,7.76321,0,0,31.93,0" stroke-width="0"/>
   <polygon fill="#5E5B43" points="24.2079,24.1368,24.2079,7.76321,31.93,0,31.93,31.9" stroke-width="0"/>
   <polygon fill="#9A916C" points="0,31.9,7.87486,24.1368,24.2079,24.1368,31.93,31.9" stroke-width="0"/>
  </g>
  <g transform="translate(279.153,34.05)">
   <rect width="31.93" x="0" y="0" fill="#8D8C8C" height="31.9" id="connector7pin" stroke-width="0"/>
   <rect width="16.4442" x="7.79153" y="7.73544" fill="#8C8663" height="16.4152" stroke-width="0"/>
   <polygon fill="#B8AF82" points="0,31.9,7.79153,24.1368,7.79153,6.97162,0,0" stroke-width="0"/>
   <polygon fill="#80795B" points="24.2079,7.76321,7.90264,7.76321,0,0,31.93,0" stroke-width="0"/>
   <polygon fill="#5E5B43" points="24.2079,24.1368,24.2079,7.76321,31.93,0,31.93,31.9" stroke-width="0"/>
   <polygon fill="#9A916C" points="0,31.9,7.87486,24.1368,24.2079,24.1368,31.93,31.9" stroke-width="0"/>
  </g>
  <g transform="translate(379.153,1134.05)">
   <rect width="31.93" x="0" y="0" fill="#8D8C8C" height="31.9" id="connector1pin" stroke-width="0"/>
   <rect width="16.4442" x="7.79153" y="7.73544" fill="#8C8663" height="16.4152" stroke-width="0"/>
   <polygon fill="#B8AF82" points="0,31.9,7.79153,24.1368,7.79153,6.97162,0,0" stroke-width="0"/>
   <polygon fill="#80795B" points="24.2079,7.76321,7.90264,7.76321,0,0,31.93,0" stroke-width="0"/>
   <polygon fill="#5E5B43" points="24.2079,24.1368,24.2079,7.76321,31.93,0,31.93,31.9" stroke-width="0"/>
   <polygon fill="#9A916C" points="0,31.9,7.87486,24.1368,24.2079,24.1368,31.93,31.9" stroke-width="0"/>
  </g>
  <g transform="translate(379.153,34.05)">
   <rect width="31.93" x="0" y="0" fill="#8D8C8C" height="31.9" id="connector6pin" stroke-width="0"/>
   <rect width="16.4442" x="7.79153" y="7.73544" fill="#8C8663" height="16.4152" stroke-width="0"/>
   <polygon fill="#B8AF82" points="0,31.9,7.79153,24.1368,7.79153,6.97162,0,0" stroke-width="0"/>
   <polygon fill="#80795B" points="24.2079,7.76321,7.90264,7.76321,0,0,31.93,0" stroke-width="0"/>
   <polygon fill="#5E5B43" points="24.2079,24.1368,24.2079,7.76321,31.93,0,31.93,31.9" stroke-width="0"/>
   <polygon fill="#9A916C" points="0,31.9,7.87486,24.1368,24.2079,24.1368,31.93,31.9" stroke-width="0"/>
  </g>
  <g transform="translate(479.153,1134.05)">
   <rect width="31.93" x="0" y="0" fill="#8D8C8C" height="31.9" id="connector2pin" stroke-width="0"/>
   <rect width="16.4442" x="7.79153" y="7.73544" fill="#8C8663" height="16.4152" stroke-width="0"/>
   <polygon fill="#B8AF82" points="0,31.9,7.79153,24.1368,7.79153,6.97162,0,0" stroke-width="0"/>
   <polygon fill="#80795B" points="24.2079,7.76321,7.90264,7.76321,0,0,31.93,0" stroke-width="0"/>
   <polygon fill="#5E5B43" points="24.2079,24.1368,24.2079,7.76321,31.93,0,31.93,31.9" stroke-width="0"/>
   <polygon fill="#9A916C" points="0,31.9,7.87486,24.1368,24.2079,24.1368,31.93,31.9" stroke-width="0"/>
  </g>
  <g transform="translate(479.153,34.05)">
   <rect width="31.93" x="0" y="0" fill="#8D8C8C" height="31.9" id="connector5pin" stroke-width="0"/>
   <rect width="16.4442" x="7.79153" y="7.73544" fill="#8C8663" height="16.4152" stroke-width="0"/>
   <polygon fill="#B8AF82" points="0,31.9,7.79153,24.1368,7.79153,6.97162,0,0" stroke-width="0"/>
   <polygon fill="#80795B" points="24.2079,7.76321,7.90264,7.76321,0,0,31.93,0" stroke-width="0"/>
   <polygon fill="#5E5B43" points="24.2079,24.1368,24.2079,7.76321,31.93,0,31.93,31.9" stroke-width="0"/>
   <polygon fill="#9A916C" points="0,31.9,7.87486,24.1368,24.2079,24.1368,31.93,31.9" stroke-width="0"/>
  </g>
  <g transform="translate(579.153,1134.05)">
   <rect width="31.93" x="0" y="0" fill="#8D8C8C" height="31.9" id="connector3pin" stroke-width="0"/>
   <rect width="16.4442" x="7.79153" y="7.73544" fill="#8C8663" height="16.4152" stroke-width="0"/>
   <polygon fill="#B8AF82" points="0,31.9,7.79153,24.1368,7.79153,6.97162,0,0" stroke-width="0"/>
   <polygon fill="#80795B" points="24.2079,7.76321,7.90264,7.76321,0,0,31.93,0" stroke-width="0"/>
   <polygon fill="#5E5B43" points="24.2079,24.1368,24.2079,7.76321,31.93,0,31.93,31.9" stroke-width="0"/>
   <polygon fill="#9A916C" points="0,31.9,7.87486,24.1368,24.2079,24.1368,31.93,31.9" stroke-width="0"/>
  </g>
  <g transform="translate(579.153,34.05)">
   <rect width="31.93" x="0" y="0" fill="#8D8C8C" height="31.9" id="connector4pin" stroke-width="0"/>
   <rect width="16.4442" x="7.79153" y="7.73544" fill="#8C8663" height="16.4152" stroke-width="0"/>
   <polygon fill="#B8AF82" points="0,31.9,7.79153,24.1368,7.79153,6.97162,0,0" stroke-width="0"/>
   <polygon fill="#80795B" points="24.2079,7.76321,7.90264,7.76321,0,0,31.93,0" stroke-width="0"/>
   <polygon fill="#5E5B43" points="24.2079,24.1368,24.2079,7.76321,31.93,0,31.93,31.9" stroke-width="0"/>
   <polygon fill="#9A916C" points="0,31.9,7.87486,24.1368,24.2079,24.1368,31.93,31.9" stroke-width="0"/>
  </g>
 </g>
 <text x="50" y="624.375" font-family="OCRA" fill="white" text-anchor="start" stroke="none" id="label" stroke-width="0" font-size="65"/>
 <g transform="translate(308.618,1126.05)">
  <g transform="rotate(-90)">
   <text x="0" y="0" font-family="OCRA" fill="white" text-anchor="start" stroke="none" stroke-width="0" font-size="45"/>
  </g>
 </g>
 <g transform="translate(308.618,73.95)">
  <g transform="rotate(-90)">
   <text x="0" y="0" font-family="OCRA" fill="white" text-anchor="end" stroke="none" stroke-width="0" font-size="45"/>
  </g>
 </g>
 <g transform="translate(408.618,1126.05)">
  <g transform="rotate(-90)">
   <text x="0" y="0" font-family="OCRA" fill="white" text-anchor="start" stroke="none" stroke-width="0" font-size="45"/>
  </g>
 </g>
 <g transform="translate(408.618,73.95)">
  <g transform="rotate(-90)">
   <text x="0" y="0" font-family="OCRA" fill="white" text-anchor="end" stroke="none" stroke-width="0" font-size="45"/>
  </g>
 </g>
 <g transform="translate(508.618,1126.05)">
  <g transform="rotate(-90)">
   <text x="0" y="0" font-family="OCRA" fill="white" text-anchor="start" stroke="none" stroke-width="0" font-size="45"/>
  </g>
 </g>
 <g transform="translate(508.618,73.95)">
  <g transform="rotate(-90)">
   <text x="0" y="0" font-family="OCRA" fill="white" text-anchor="end" stroke="none" stroke-width="0" font-size="45"/>
  </g>
 </g>
 <g transform="translate(608.618,1126.05)">
  <g transform="rotate(-90)">
   <text x="0" y="0" font-family="OCRA" fill="white" text-anchor="start" stroke="none" stroke-width="0" font-size="45"/>
  </g>
 </g>
 <g transform="translate(608.618,73.95)">
  <g transform="rotate(-90)">
   <text x="0" y="0" font-family="OCRA" fill="white" text-anchor="end" stroke="none" stroke-width="0" font-size="45"/>
  </g>
 </g>
</svg>
