<?xml version="1.0" encoding="utf-8"?>
<!-- Generator: Adobe Illustrator 15.1.0, SVG Export Plug-In . SVG Version: 6.00 Build 0)  -->
<!DOCTYPE svg PUBLIC "-//W3C//DTD SVG 1.1//EN" "http://www.w3.org/Graphics/SVG/1.1/DTD/svg11.dtd">
<svg version="1.1" id="Ebene_1" xmlns:svg="http://www.w3.org/2000/svg"
	 xmlns="http://www.w3.org/2000/svg" xmlns:xlink="http://www.w3.org/1999/xlink" x="0px" y="0px" width="51.744px"
	 height="80.216px" viewBox="0 -13.582 51.744 80.216" enable-background="new 0 -13.582 51.744 80.216" xml:space="preserve">
<g id="breadboard">
	<circle id="connector5pin" fill="none" cx="40.272" cy="6.993" r="2.041"/>
	<circle id="connector6pin" fill="none" cx="33.072" cy="6.993" r="2.041"/>
	<circle id="connector7pin" fill="none" cx="25.872" cy="6.993" r="2.041"/>
	<circle id="connector8pin" fill="none" cx="18.672" cy="6.993" r="2.041"/>
	<circle id="connector9pin" fill="none" cx="11.471" cy="6.993" r="2.041"/>
	<circle id="connector0pin" fill="none" cx="11.471" cy="64.593" r="2.041"/>
	<circle id="connector1pin" fill="none" cx="18.672" cy="64.593" r="2.041"/>
	<circle id="connector2pin" fill="none" cx="25.872" cy="64.593" r="2.041"/>
	<circle id="connector3pin" fill="none" cx="33.072" cy="64.593" r="2.041"/>
	<circle id="connector4pin" fill="none" cx="40.272" cy="64.593" r="2.041"/>
</g>
<g>
	<g>
		<path fill="#4D4D4D" d="M41.048,61.024h-1.656v3.625c0,0,0.5,0.636,0.828,0.636s0.828-0.636,0.828-0.636V61.024z"/>
	</g>
	<g>
		<path fill="#4D4D4D" d="M33.847,61.024h-1.656v3.625c0,0,0.5,0.636,0.828,0.636s0.828-0.636,0.828-0.636V61.024z"/>
	</g>
	<g>
		<path fill="#4D4D4D" d="M26.647,61.024h-1.656v3.625c0,0,0.5,0.636,0.828,0.636s0.828-0.636,0.828-0.636V61.024z"/>
	</g>
	<g>
		<path fill="#4D4D4D" d="M19.447,61.024h-1.656v3.625c0,0,0.5,0.636,0.828,0.636s0.828-0.636,0.828-0.636V61.024z"/>
	</g>
	<g>
		<path fill="#4D4D4D" d="M12.247,61.024h-1.656v3.625c0,0,0.5,0.636,0.828,0.636s0.828-0.636,0.828-0.636V61.024z"/>
	</g>
</g>
<g>
	<polygon fill="#808080" points="51.718,58.892 51.744,58.894 51.744,-8.629 0,-8.629 0,63.371 47.227,63.371 	"/>
	<polygon fill="#333333" points="51.718,53.938 51.744,53.94 51.744,-13.582 0,-13.582 0,58.418 47.227,58.418 	"/>
	<g>
		<polygon fill="#646464" points="38.893,18.956 36.991,20.652 18.59,20.652 17.151,18.956 19.156,17.054 37.454,17.054 		"/>
		<path fill="#EF1818" d="M39.664,19.727l-2.056,1.954l-2.98,16.807l2.518,2.826c0,0,0.565-0.308,0.72-0.977
			c0.154-0.668,3.342-18.76,3.342-18.76L39.664,19.727z"/>
		<path fill="#EF1818" d="M39.972,18.031l-1.439-1.491l2.415-13.672l3.188-2.981c0,0,0.771,0.36,0.616,1.336
			c-0.154,0.977-2.725,15.06-2.725,15.06L39.972,18.031z"/>
		<path fill="#646464" d="M40.384,1.737H22.188l-2.673-2.93c0,0,0-0.565,1.08-0.565c1.079,0,20.559,0,21.382,0
			c0.821,0,1.438,0.822,1.438,0.822L40.384,1.737z"/>
		<path fill="#EF1818" d="M21.006,2.457l-2.519,13.672l-2.056,1.902l-1.336-1.696c0,0,2.621-15.316,2.724-15.985
			c0.104-0.668,0.72-0.925,0.72-0.925L21.006,2.457z"/>
		<path fill="#EF1818" d="M16.175,19.727l1.285,1.542l-3.032,16.859l-3.084,2.519c0,0-0.771-0.411-0.617-1.542
			s3.356-17.63,3.356-17.63L16.175,19.727z"/>
		<path fill="#EF1818" d="M33.599,38.949l2.569,2.982c0,0,0.052,0.514-1.284,0.514c-1.337,0-20.611,0-21.537,0
			c-0.925,0-1.285-0.771-1.285-0.771l3.033-2.725H33.599z"/>
		<circle fill="#EF1818" cx="44.719" cy="43.438" r="2.741"/>
		<circle fill="#646464" cx="7.025" cy="43.438" r="2.741"/>
	</g>
</g>
</svg>
