<?xml version='1.0' encoding='UTF-8' standalone='no'?>
<!-- Created with Fritzing (http://www.fritzing.org/) -->
<svg width="0.48511in" x="0in" version="1.2" y="0in" xmlns="http://www.w3.org/2000/svg" height="0.6in" viewBox="0 0 485.11 600" baseProfile="tiny" xmlns:svg="http://www.w3.org/2000/svg">
 <desc>Fritzing breadboard generated by brd2svg</desc>
 <g id="breadboard">
  <g id="icon">
   <path fill="#1F7A34" stroke="none" stroke-width="0" d="M0,0L0,270A30,30 0 0 1 0,330L0,600L485.11,600L485.11,0L0,0z"/>
   <g transform="translate(100,214.216)">
    <g stroke-width="0">
     <g stroke-width="0">
      <polygon fill="#B7B7B7" points="30.5832,171.569,54.5415,171.569,54.5415,131.819,30.5832,131.819" stroke-width="0"/>
      <polygon fill="#B7B7B7" points="130.583,171.569,154.513,171.569,154.513,131.819,130.583,131.819" stroke-width="0"/>
      <polygon fill="#B7B7B7" points="230.596,171.569,254.513,171.569,254.513,131.819,230.596,131.819" stroke-width="0"/>
     </g>
     <g stroke-width="0">
      <polygon fill="#B7B7B7" points="30.5832,39.736,54.5415,39.736,54.5415,0,30.5832,0" stroke-width="0"/>
      <polygon fill="#B7B7B7" points="130.583,39.736,154.513,39.736,154.513,0,130.583,0" stroke-width="0"/>
      <polygon fill="#B7B7B7" points="230.596,39.736,254.513,39.736,254.513,0,230.596,0" stroke-width="0"/>
     </g>
    </g>
    <rect width="285.11" x="0" y="17.5416" fill="#1E1E1E" height="136.486" stroke-width="0"/>
    <rect width="147.805" x="68.6525" y="27.4305" height="3.69443" stroke-width="0"/>
    <path fill="#898989" stroke-width="0" d="M263.916,56.8887c-3.16665,0,-2.81943,-2.65277,-2.81943,-5.91665L261.096,22.3749l-50.6942,0c-3.2361,0,-5.90275,2.65277,-5.90275,5.91665l0,30.7499c0,3.2361,-2.65277,5.90276,-5.90275,5.90276L86.5136,64.9443c-3.2361,0,-5.90275,-2.65277,-5.90275,-5.90276L80.6108,28.2916c0,-3.24999,-2.65277,-5.91665,-5.90275,-5.91665L24.0277,22.3749L24.0277,50.9721c0,3.24999,0.333332,5.91665,-2.81943,5.91665L3.45832,56.8887c-3.29165,0,-3.44443,2.65277,-3.44443,5.90276l0,54.0554c0,3.24999,0.152777,5.91665,3.44443,5.91665l17.7499,0c3.16665,0,2.81943,2.65277,2.81943,5.90276l0,25.4583l237.055,0L261.082,128.652c0,-3.2361,-0.333332,-5.90276,2.81943,-5.90276l17.736,0c3.30554,0,3.44443,-2.65277,3.44443,-5.91665L285.082,62.7915c0,-3.2361,-0.138888,-5.90276,-3.44443,-5.90276L263.916,56.8887z"/>
    <g stroke-width="0">
     <path opacity="0.3" fill="#FFFFFF" stroke-width="0" d="M3.45832,122.666l3.31943,0L6.77775,56.7915L3.45832,56.7915c-3.29165,0,-3.44443,2.65277,-3.44443,5.90276l0,54.0554C0.0138888,120.014,0.166666,122.666,3.45832,122.666z"/>
     <rect width="6.76386" x="6.77775" opacity="0.1" y="56.7915" fill="#FFFFFF" height="65.8748" stroke-width="0"/>
    </g>
    <g stroke-width="0">
     <path opacity="0.3" fill="#FFFFFF" stroke-width="0" d="M281.652,122.666L278.332,122.666L278.332,56.7915l3.31943,0c3.29165,0,3.44443,2.65277,3.44443,5.90276l0,54.0554C285.096,120.014,284.957,122.666,281.652,122.666z"/>
     <rect width="6.76386" x="271.568" opacity="0.1" y="56.7915" fill="#FFFFFF" height="65.8748" stroke-width="0"/>
    </g>
    <path fill="#898989" stroke-width="0" d="M237.43,135.361c0,4.01388,-3.47221,7.29165,-7.73608,7.29165L55.4165,142.652c-4.26387,0,-7.73608,-3.27777,-7.73608,-7.29165s3.47221,-7.29165,7.73608,-7.29165l174.277,0C233.957,128.069,237.43,131.347,237.43,135.361z"/>
    <g stroke-width="0">
     <path fill="#666666" stroke-width="0" d="M229.694,128.069L55.4165,128.069c-4.26387,0,-7.73608,3.27777,-7.73608,7.29165l3.29165,0c0,-2.19444,1.9861,-3.9861,4.43054,-3.9861l174.277,0c2.44443,0,4.43054,1.79166,4.43054,3.9861l3.29165,0C237.43,131.347,233.957,128.069,229.694,128.069z"/>
     <path opacity="0.3" fill="#FFFFFF" stroke-width="0" d="M229.694,139.347L55.4165,139.347c-2.45832,0,-4.43054,-1.79166,-4.43054,-3.9861L47.6943,135.361c0,4.01388,3.47221,7.29165,7.73608,7.29165l174.277,0c4.26387,0,7.73608,-3.27777,7.73608,-7.29165l-3.29165,0C234.124,137.555,232.138,139.347,229.694,139.347z"/>
    </g>
    <g stroke-width="0">
     <path opacity="0.3" fill="#FFFFFF" stroke-width="0" d="M0.0138888,17.5416l0,29.5138c0,2.19444,0.152777,3.9861,3.44443,3.9861l3.31943,0L6.77775,17.5416L0.0138888,17.5416z"/>
     <rect width="6.76386" x="6.77775" opacity="0.1" y="17.5416" fill="#FFFFFF" height="33.4999" stroke-width="0"/>
    </g>
    <g stroke-width="0">
     <path opacity="0.3" fill="#FFFFFF" stroke-width="0" d="M0.0138888,154.027L0.0138888,132.208c0,-2.19444,0.152777,-3.9861,3.44443,-3.9861l3.31943,0l0,25.8055L0.0138888,154.027z"/>
     <rect width="6.76386" x="6.77775" opacity="0.1" y="128.208" fill="#FFFFFF" height="25.8055" stroke-width="0"/>
    </g>
    <g stroke-width="0">
     <path opacity="0.3" fill="#FFFFFF" stroke-width="0" d="M285.11,17.5416l0,29.5138c0,2.19444,-0.152777,3.9861,-3.44443,3.9861l-3.31943,0L278.346,17.5416L285.11,17.5416z"/>
     <rect width="6.76386" x="271.582" opacity="0.1" y="17.5416" fill="#FFFFFF" height="33.4999" stroke-width="0"/>
    </g>
    <g stroke-width="0">
     <path opacity="0.3" fill="#FFFFFF" stroke-width="0" d="M285.11,154.027L285.11,132.208c0,-2.19444,-0.152777,-3.9861,-3.44443,-3.9861l-3.31943,0l0,25.8055L285.11,154.027z"/>
     <rect width="6.76386" x="271.582" opacity="0.1" y="128.208" fill="#FFFFFF" height="25.8055" stroke-width="0"/>
    </g>
    <path fill="#232323" stroke-width="0" d="M198.43,58.2915c0,2.16666,-1.77777,3.94443,-3.93054,3.94443l-49.4165,0c-2.16666,0,-3.94443,-1.76388,-3.94443,-3.94443L141.138,27.2916c0,-2.16666,1.76388,-3.94443,3.94443,-3.94443l49.4165,0c2.15277,0,3.93054,1.76388,3.93054,3.94443L198.43,58.2915z"/>
    <g opacity="0.2" stroke-width="0">
     <path fill="none" stroke="#FFFFFF" stroke-linecap="round" stroke-width="2.63749" d="M144.499,59.4443L144.499,28.5138c0,-1.29166,1.05555,-2.3611,2.3611,-2.3611l48.2081,0" stroke-miterlimit="10"/>
    </g>
    <g opacity="0.2" stroke-width="0">
     <path fill="none" stroke="#454545" stroke-linecap="round" stroke-width="2.63749" d="M195.069,26.1388l0,30.9305c0,1.29166,-1.05555,2.3611,-2.3611,2.3611l-48.2081,0" stroke-miterlimit="10"/>
    </g>
    <path opacity="0.2" fill="none" stroke="#FFFFFF" stroke-linecap="round" stroke-width="2.63749" d="M162.416,50.1665C158.333,46.0971,158.333,39.486,162.402,35.4166c4.06943,-4.08332,10.6944,-4.06943,14.7499,0" stroke-miterlimit="10"/>
    <path opacity="0.2" fill="none" stroke="#454545" stroke-linecap="round" stroke-width="2.63749" d="M177.152,35.4166c4.08332,4.06943,4.08332,10.6805,0.0138888,14.75c-4.06943,4.08332,-10.6944,4.06943,-14.7499,0" stroke-miterlimit="10"/>
   </g>
  </g>
  <g transform="translate(126.59,534.05)">
   <rect width="31.93" x="0" y="0" fill="#8D8C8C" height="31.9" id="connector0pin" stroke-width="0"/>
   <rect width="16.4442" x="7.79153" y="7.73544" fill="#8C8663" height="16.4152" stroke-width="0"/>
   <polygon fill="#B8AF82" points="0,31.9,7.79153,24.1368,7.79153,6.97162,0,0" stroke-width="0"/>
   <polygon fill="#80795B" points="24.2079,7.76321,7.90264,7.76321,0,0,31.93,0" stroke-width="0"/>
   <polygon fill="#5E5B43" points="24.2079,24.1368,24.2079,7.76321,31.93,0,31.93,31.9" stroke-width="0"/>
   <polygon fill="#9A916C" points="0,31.9,7.87486,24.1368,24.2079,24.1368,31.93,31.9" stroke-width="0"/>
  </g>
  <g transform="translate(126.59,34.05)">
   <rect width="31.93" x="0" y="0" fill="#8D8C8C" height="31.9" id="connector5pin" stroke-width="0"/>
   <rect width="16.4442" x="7.79153" y="7.73544" fill="#8C8663" height="16.4152" stroke-width="0"/>
   <polygon fill="#B8AF82" points="0,31.9,7.79153,24.1368,7.79153,6.97162,0,0" stroke-width="0"/>
   <polygon fill="#80795B" points="24.2079,7.76321,7.90264,7.76321,0,0,31.93,0" stroke-width="0"/>
   <polygon fill="#5E5B43" points="24.2079,24.1368,24.2079,7.76321,31.93,0,31.93,31.9" stroke-width="0"/>
   <polygon fill="#9A916C" points="0,31.9,7.87486,24.1368,24.2079,24.1368,31.93,31.9" stroke-width="0"/>
  </g>
  <g transform="translate(226.59,534.05)">
   <rect width="31.93" x="0" y="0" fill="#8D8C8C" height="31.9" id="connector1pin" stroke-width="0"/>
   <rect width="16.4442" x="7.79153" y="7.73544" fill="#8C8663" height="16.4152" stroke-width="0"/>
   <polygon fill="#B8AF82" points="0,31.9,7.79153,24.1368,7.79153,6.97162,0,0" stroke-width="0"/>
   <polygon fill="#80795B" points="24.2079,7.76321,7.90264,7.76321,0,0,31.93,0" stroke-width="0"/>
   <polygon fill="#5E5B43" points="24.2079,24.1368,24.2079,7.76321,31.93,0,31.93,31.9" stroke-width="0"/>
   <polygon fill="#9A916C" points="0,31.9,7.87486,24.1368,24.2079,24.1368,31.93,31.9" stroke-width="0"/>
  </g>
  <g transform="translate(226.59,34.05)">
   <rect width="31.93" x="0" y="0" fill="#8D8C8C" height="31.9" id="connector4pin" stroke-width="0"/>
   <rect width="16.4442" x="7.79153" y="7.73544" fill="#8C8663" height="16.4152" stroke-width="0"/>
   <polygon fill="#B8AF82" points="0,31.9,7.79153,24.1368,7.79153,6.97162,0,0" stroke-width="0"/>
   <polygon fill="#80795B" points="24.2079,7.76321,7.90264,7.76321,0,0,31.93,0" stroke-width="0"/>
   <polygon fill="#5E5B43" points="24.2079,24.1368,24.2079,7.76321,31.93,0,31.93,31.9" stroke-width="0"/>
   <polygon fill="#9A916C" points="0,31.9,7.87486,24.1368,24.2079,24.1368,31.93,31.9" stroke-width="0"/>
  </g>
  <g transform="translate(326.59,534.05)">
   <rect width="31.93" x="0" y="0" fill="#8D8C8C" height="31.9" id="connector2pin" stroke-width="0"/>
   <rect width="16.4442" x="7.79153" y="7.73544" fill="#8C8663" height="16.4152" stroke-width="0"/>
   <polygon fill="#B8AF82" points="0,31.9,7.79153,24.1368,7.79153,6.97162,0,0" stroke-width="0"/>
   <polygon fill="#80795B" points="24.2079,7.76321,7.90264,7.76321,0,0,31.93,0" stroke-width="0"/>
   <polygon fill="#5E5B43" points="24.2079,24.1368,24.2079,7.76321,31.93,0,31.93,31.9" stroke-width="0"/>
   <polygon fill="#9A916C" points="0,31.9,7.87486,24.1368,24.2079,24.1368,31.93,31.9" stroke-width="0"/>
  </g>
  <g transform="translate(326.59,34.05)">
   <rect width="31.93" x="0" y="0" fill="#8D8C8C" height="31.9" id="connector3pin" stroke-width="0"/>
   <rect width="16.4442" x="7.79153" y="7.73544" fill="#8C8663" height="16.4152" stroke-width="0"/>
   <polygon fill="#B8AF82" points="0,31.9,7.79153,24.1368,7.79153,6.97162,0,0" stroke-width="0"/>
   <polygon fill="#80795B" points="24.2079,7.76321,7.90264,7.76321,0,0,31.93,0" stroke-width="0"/>
   <polygon fill="#5E5B43" points="24.2079,24.1368,24.2079,7.76321,31.93,0,31.93,31.9" stroke-width="0"/>
   <polygon fill="#9A916C" points="0,31.9,7.87486,24.1368,24.2079,24.1368,31.93,31.9" stroke-width="0"/>
  </g>
 </g>
 <text x="50" y="324.375" font-family="OCRA" fill="white" text-anchor="start" stroke="none" id="label" stroke-width="0" font-size="65">AYZ0202</text>
 <g transform="translate(156.055,526.05)">
  <g transform="rotate(-90)">
   <text x="0" y="0" font-family="OCRA" fill="white" text-anchor="start" stroke="none" stroke-width="0" font-size="45">1</text>
  </g>
 </g>
 <g transform="translate(156.055,73.95)">
  <g transform="rotate(-90)">
   <text x="0" y="0" font-family="OCRA" fill="white" text-anchor="end" stroke="none" stroke-width="0" font-size="45">6</text>
  </g>
 </g>
 <g transform="translate(256.055,526.05)">
  <g transform="rotate(-90)">
   <text x="0" y="0" font-family="OCRA" fill="white" text-anchor="start" stroke="none" stroke-width="0" font-size="45">2</text>
  </g>
 </g>
 <g transform="translate(256.055,73.95)">
  <g transform="rotate(-90)">
   <text x="0" y="0" font-family="OCRA" fill="white" text-anchor="end" stroke="none" stroke-width="0" font-size="45">5</text>
  </g>
 </g>
 <g transform="translate(356.055,526.05)">
  <g transform="rotate(-90)">
   <text x="0" y="0" font-family="OCRA" fill="white" text-anchor="start" stroke="none" stroke-width="0" font-size="45">3</text>
  </g>
 </g>
 <g transform="translate(356.055,73.95)">
  <g transform="rotate(-90)">
   <text x="0" y="0" font-family="OCRA" fill="white" text-anchor="end" stroke="none" stroke-width="0" font-size="45">4</text>
  </g>
 </g>
</svg>
