<?xml version='1.0' encoding='UTF-8' standalone='no'?>
<!-- Created with Fritzing (http://www.fritzing.org/) -->
<svg width="0.426047in" x="0in" version="1.2" y="0in" xmlns="http://www.w3.org/2000/svg" height="0.8in" viewBox="0 0 426.047 800" baseProfile="tiny" xmlns:svg="http://www.w3.org/2000/svg">
 <desc>Fritzing breadboard generated by brd2svg</desc>
 <g id="breadboard">
  <g id="icon">
   <path fill="#1F7A34" stroke="none" stroke-width="0" d="M0,0L0,370A30,30 0 0 1 0,430L0,800L426.047,800L426.047,0L0,0z"/>
   <g transform="translate(-13.0236,68.5)">
    <g transform="matrix(0.5, 0, 0, 0.5, 113.024, 165.75)">
     <circle fill="none" cx="151.047" cy="154" connectorname="1" stroke="#F7BD13" r="22.5" stroke-width="9.99999"/>
     <circle fill="none" cx="201.047" cy="54" connectorname="2" stroke="#F7BD13" r="22.5" stroke-width="9.99999"/>
     <circle fill="none" cx="251.047" cy="154" connectorname="3" stroke="#F7BD13" r="22.5" stroke-width="9.99999"/>
     <circle fill="none" cx="301.047" cy="54" connectorname="4" stroke="#F7BD13" r="22.5" stroke-width="9.99999"/>
     <circle fill="black" cx="76.0472" cy="404" stroke="black" r="62.9921" id="nonconn0" stroke-width="0"/>
     <circle fill="black" cx="376.047" cy="404" stroke="black" r="62.9921" id="nonconn1" stroke-width="0"/>
     <rect width="452.094" x="0" y="0" fill="#303030" height="663" stroke="none" stroke-width="0"/>
     <polygon fill="#1f1f1f" points="0,0 452.094,0 442.094,10 10,10"/>
     <polygon fill="#1f1f1f" points="0,663 452.094,663 442.094,653 10,653"/>
     <polygon fill="#000000" points="0,0 0,663 10,653 10,10"/>
     <polygon fill="#3d3d3d" points="452.094,0 452.094,663 442.094,653 442.094,10"/>
     <circle fill="#1f1f1f" cx="30" cy="633" stroke="none" r="10" stroke-width="0"/>
    </g>
   </g>
   <text x="50" y="424.375" font-family="OCRA" fill="white" text-anchor="start" stroke="none" id="label" stroke-width="0" font-size="65">RJ9</text>
  </g>
 </g>
</svg>
