<?xml version='1.0' encoding='UTF-8' standalone='no'?>
<!-- Created with Fritzing (http://www.fritzing.org/) -->
<svg width="0.664569in" x="0in" version="1.2" y="0in" xmlns="http://www.w3.org/2000/svg" height="0.8in" viewBox="0 0 664.569 800" baseProfile="tiny" xmlns:svg="http://www.w3.org/2000/svg">
 <desc>Fritzing breadboard generated by brd2svg</desc>
 <g id="breadboard">
  <g id="icon">
   <path fill="#1F7A34" stroke="none" stroke-width="0" d="M0,0L0,370A30,30 0 0 1 0,430L0,800L664.569,800L664.569,0L0,0z"/>
   <g transform="translate(100,163.875)">
    <g id="silkscreen" stroke-width="0">
     <circle fill="#CCCCCC" cx="236.278" cy="239.958" r="232.292" stroke-width="0"/>
     <path opacity="0.79" enable-background="new    " stroke-width="0" d="M4,239.958c0,128.278,104,232.292,232.292,232.292c128.292,0,232.292,-103.986,232.292,-232.292l0,-3.68056c0,128.278,-104,232.292,-232.292,232.292c-128.292,0,-232.292,-104,-232.292,-232.292"/>
    </g>
    <g id="silkscreen_2_" stroke-width="0">
     <circle fill="#ED1C24" cx="236.278" cy="224.306" r="223.986" stroke-width="0"/>
     <circle opacity="0.35" cx="236.278" cy="224.306" enable-background="new    " r="223.986" stroke-width="0"/>
     <path opacity="0.24" fill="#FFFFFF" enable-background="new    " stroke-width="0" d="M12.2917,228.292c0,-123.694,100.292,-223.986,223.986,-223.986c123.694,0,223.972,100.292,223.972,223.986l0,-3.97222c0,-123.694,-100.292,-223.986,-223.972,-223.986c-123.694,0,-223.986,100.292,-223.986,223.986L12.2917,228.292z"/>
     <path opacity="0.52" enable-background="new    " stroke-width="0" d="M12.2917,231.847c0,123.694,100.292,223.972,223.986,223.972c123.694,0,223.972,-100.292,223.972,-223.972l0,-7.52778c0,123.708,-100.292,223.958,-223.972,223.958c-123.694,0,-223.986,-100.292,-223.986,-223.958L12.2917,231.847z"/>
    </g>
    <g id="silkscreen_1_" stroke-width="0">
     <circle fill="#ED1C24" cx="236.278" cy="207.5" r="205.472" stroke-width="0"/>
     <path opacity="0.7" fill="#FFFFFF" enable-background="new    " stroke-width="0" d="M78.6944,182.972c11.8194,-76.4167,77.8611,-6.97222,157.583,-6.97222c60.5278,0,113.208,-94.2083,140.208,-44.5c-26.9861,-49.7083,-79.6667,-83.4583,-140.208,-83.4583C156.569,48.0417,90.5139,106.556,78.6944,182.972z"/>
    </g>
   </g>
  </g>
  <g transform="translate(316.319,734.05)">
   <rect width="31.93" x="0" y="0" fill="#8D8C8C" height="31.9" id="connector0pin" stroke-width="0"/>
   <rect width="16.4442" x="7.79153" y="7.73544" fill="#8C8663" height="16.4152" stroke-width="0"/>
   <polygon fill="#B8AF82" points="0,31.9,7.79153,24.1368,7.79153,6.97162,0,0" stroke-width="0"/>
   <polygon fill="#80795B" points="24.2079,7.76321,7.90264,7.76321,0,0,31.93,0" stroke-width="0"/>
   <polygon fill="#5E5B43" points="24.2079,24.1368,24.2079,7.76321,31.93,0,31.93,31.9" stroke-width="0"/>
   <polygon fill="#9A916C" points="0,31.9,7.87486,24.1368,24.2079,24.1368,31.93,31.9" stroke-width="0"/>
  </g>
  <g transform="translate(316.319,34.05)">
   <rect width="31.93" x="0" y="0" fill="#8D8C8C" height="31.9" id="connector1pin" stroke-width="0"/>
   <rect width="16.4442" x="7.79153" y="7.73544" fill="#8C8663" height="16.4152" stroke-width="0"/>
   <polygon fill="#B8AF82" points="0,31.9,7.79153,24.1368,7.79153,6.97162,0,0" stroke-width="0"/>
   <polygon fill="#80795B" points="24.2079,7.76321,7.90264,7.76321,0,0,31.93,0" stroke-width="0"/>
   <polygon fill="#5E5B43" points="24.2079,24.1368,24.2079,7.76321,31.93,0,31.93,31.9" stroke-width="0"/>
   <polygon fill="#9A916C" points="0,31.9,7.87486,24.1368,24.2079,24.1368,31.93,31.9" stroke-width="0"/>
  </g>
 </g>
 <text x="50" y="424.375" font-family="OCRA" fill="white" text-anchor="start" stroke="none" id="label" stroke-width="0" font-size="65"/>
 <g transform="translate(345.784,726.05)">
  <g transform="rotate(-90)">
   <text x="0" y="0" font-family="OCRA" fill="white" text-anchor="start" stroke="none" stroke-width="0" font-size="45"/>
  </g>
 </g>
 <g transform="translate(345.784,73.95)">
  <g transform="rotate(-90)">
   <text x="0" y="0" font-family="OCRA" fill="white" text-anchor="end" stroke="none" stroke-width="0" font-size="45"/>
  </g>
 </g>
</svg>
