<?xml version='1.0' encoding='UTF-8' standalone='no'?>
<!-- Created with Fritzing (http://www.fritzing.org/) -->
<svg width="0.627153in" x="0in" version="1.2" y="0in" xmlns="http://www.w3.org/2000/svg" height="1.2in" viewBox="0 0 627.153 1200" baseProfile="tiny" xmlns:svg="http://www.w3.org/2000/svg">
 <desc>Fritzing breadboard generated by brd2svg</desc>
 <g id="breadboard">
  <g id="icon">
   <path fill="#1F7A34" stroke="none" stroke-width="0" d="M0,0L0,570A30,30 0 0 1 0,630L0,1200L627.153,1200L627.153,0L0,0z"/>
   <g transform="translate(100,200)">
    <g stroke-width="0">
     <rect width="427.153" x="0" y="38.1944" fill="#1A1A1A" height="245.264" stroke-width="0"/>
     <g stroke-width="0">
      <g stroke-width="0">
       <rect width="427.153" x="0" y="271.833" fill="#1A1A1A" height="528.167" stroke-width="0"/>
       <rect width="104.889" x="161.125" y="765.819" fill="#333333" height="6.94444" stroke-width="0"/>
       <rect width="7.80556" x="406.694" y="479" height="80" stroke-width="0"/>
       <rect width="7.79167" x="13.1667" y="479" height="80" stroke-width="0"/>
       <polygon points="314.236,318.403,112.931,318.403,112.931,359.736,20.4583,359.736,20.4583,678.25,112.931,678.25,112.931,682.542,112.931,719.597,161.125,719.597,161.125,772.764,266.028,772.764,266.028,719.597,314.222,719.597,314.222,682.542,314.236,682.542,314.236,678.25,406.694,678.25,406.694,359.736,314.236,359.736" stroke-width="0"/>
      </g>
      <rect width="427.153" x="0" y="793.556" height="6.29167" stroke-width="0"/>
      <rect width="4.34722" x="422.778" y="624.125" height="169.389" stroke-width="0"/>
      <rect width="427.153" x="0" opacity="0.42" y="271.833" fill="#CCCCCC" height="11.6389" enable-background="new    " stroke-width="0"/>
     </g>
     <rect width="32.25" x="0" opacity="0.16" y="0" fill="#B3B3B3" height="271.819" enable-background="new    " stroke-width="0"/>
     <rect width="32.2361" x="394.472" opacity="0.52" y="0" height="271.819" enable-background="new    " stroke-width="0"/>
     <g stroke-width="0">
      <g stroke-width="0">
       <g opacity="0.61" stroke-width="0">
        <g stroke-width="0">
         <g stroke-width="0">
          <rect width="7.40278" x="277.278" y="7.52778" fill="#B5751F" height="245.889" stroke-width="0"/>
         </g>
         <g stroke-width="0">
          <rect width="7.40278" x="232.264" y="7.52778" fill="#B5751F" height="245.889" stroke-width="0"/>
         </g>
         <g stroke-width="0">
          <rect width="7.40278" x="187.292" y="7.52778" fill="#B5751F" height="245.889" stroke-width="0"/>
         </g>
         <g stroke-width="0">
          <rect width="7.40278" x="142.292" y="7.52778" fill="#B5751F" height="245.889" stroke-width="0"/>
         </g>
        </g>
        <g stroke-width="0">
         <g stroke-width="0">
          <rect width="4" x="277.292" y="7.52778" fill="#C4914C" height="245.889" stroke-width="0"/>
         </g>
         <g stroke-width="0">
          <rect width="4" x="232.264" y="7.52778" fill="#C4914C" height="245.889" stroke-width="0"/>
         </g>
         <g stroke-width="0">
          <rect width="4.01389" x="187.264" y="7.52778" fill="#C4914C" height="245.889" stroke-width="0"/>
         </g>
         <g stroke-width="0">
          <rect width="4.01389" x="142.264" y="7.52778" fill="#C4914C" height="245.889" stroke-width="0"/>
         </g>
        </g>
        <g stroke-width="0">
         <g stroke-width="0">
          <rect width="2" x="276.667" y="7.52778" fill="#D3AC79" height="245.889" stroke-width="0"/>
         </g>
         <g stroke-width="0">
          <rect width="2.01389" x="231.639" y="7.52778" fill="#D3AC79" height="245.889" stroke-width="0"/>
         </g>
         <g stroke-width="0">
          <rect width="2.01389" x="186.611" y="7.52778" fill="#D3AC79" height="245.889" stroke-width="0"/>
         </g>
         <g stroke-width="0">
          <rect width="2.01389" x="141.611" y="7.52778" fill="#D3AC79" height="245.889" stroke-width="0"/>
         </g>
        </g>
       </g>
      </g>
      <g opacity="0.58" stroke-width="0">
       <g stroke-width="0">
        <g stroke-width="0">
         <rect width="17.3056" x="272" y="7.52778" height="246.833" stroke-width="0"/>
        </g>
        <g stroke-width="0">
         <rect width="17.3056" x="226.986" y="7.52778" height="246.833" stroke-width="0"/>
        </g>
        <g stroke-width="0">
         <rect width="17.3194" x="181.986" y="7.52778" height="246.833" stroke-width="0"/>
        </g>
        <g stroke-width="0">
         <rect width="17.3333" x="136.986" y="7.52778" height="246.833" stroke-width="0"/>
        </g>
       </g>
       <g stroke-width="0">
        <rect width="3.41667" x="136.986" y="7.52778" fill="#4D4D4D" height="246.833" stroke-width="0"/>
       </g>
       <g stroke-width="0">
        <rect width="3.41667" x="181.208" y="7.52778" fill="#4D4D4D" height="246.833" stroke-width="0"/>
       </g>
       <g stroke-width="0">
        <rect width="3.41667" x="226.972" y="7.52778" fill="#4D4D4D" height="246.833" stroke-width="0"/>
       </g>
       <g stroke-width="0">
        <rect width="3.41667" x="272" y="7.52778" fill="#4D4D4D" height="246.833" stroke-width="0"/>
       </g>
      </g>
      <rect width="0.513889" x="181.208" y="7.52778" fill="#999999" height="246.833" stroke-width="0"/>
      <rect width="0.513889" x="136.722" y="7.52778" fill="#999999" height="246.833" stroke-width="0"/>
      <rect width="0.486111" x="225.125" y="7.52778" fill="#999999" height="246.833" stroke-width="0"/>
      <rect width="0.513889" x="270.889" y="7.52778" fill="#999999" height="246.833" stroke-width="0"/>
     </g>
     <rect width="427.153" x="0" opacity="0.96" y="0" fill="#333333" height="38.1944" enable-background="new    " stroke-width="0"/>
     <rect width="427.153" x="0" opacity="0.76" y="38.1944" fill="#1A1A1A" height="245.264" enable-background="new    " stroke-width="0"/>
    </g>
    <g stroke-width="0">
     <g opacity="0.51" stroke-width="0">
      <g stroke-width="0">
       <rect width="17.3333" x="294.375" y="318.403" fill="#1A1A1A" height="245.833" stroke-width="0"/>
      </g>
      <g stroke-width="0">
       <rect width="17.3333" x="249.375" y="318.403" fill="#1A1A1A" height="245.833" stroke-width="0"/>
      </g>
      <g stroke-width="0">
       <rect width="17.3194" x="204.361" y="318.403" fill="#1A1A1A" height="245.833" stroke-width="0"/>
      </g>
      <g stroke-width="0">
       <rect width="17.3056" x="159.361" y="318.403" fill="#1A1A1A" height="245.833" stroke-width="0"/>
      </g>
      <g stroke-width="0">
       <rect width="17.3056" x="114.347" y="318.403" fill="#1A1A1A" height="245.833" stroke-width="0"/>
      </g>
     </g>
     <g opacity="0.61" stroke-width="0">
      <g stroke-width="0">
       <g stroke-width="0">
        <rect width="17.3056" x="272.111" y="318.403" fill="#B5751F" height="207.264" stroke-width="0"/>
       </g>
       <g stroke-width="0">
        <rect width="17.3056" x="227.069" y="318.403" fill="#B5751F" height="207.264" stroke-width="0"/>
       </g>
       <g stroke-width="0">
        <rect width="17.3194" x="182.097" y="318.403" fill="#B5751F" height="207.264" stroke-width="0"/>
       </g>
       <g stroke-width="0">
        <rect width="17.3333" x="137.083" y="318.403" fill="#B5751F" height="207.264" stroke-width="0"/>
       </g>
      </g>
      <g stroke-width="0">
       <g stroke-width="0">
        <rect width="10.5278" x="275.5" y="318.403" fill="#C4914C" height="207.264" stroke-width="0"/>
       </g>
       <g stroke-width="0">
        <rect width="10.5278" x="230.486" y="318.403" fill="#C4914C" height="207.264" stroke-width="0"/>
       </g>
       <g stroke-width="0">
        <rect width="10.5417" x="185.472" y="318.403" fill="#C4914C" height="207.264" stroke-width="0"/>
       </g>
       <g stroke-width="0">
        <rect width="10.5" x="140.5" y="318.403" fill="#C4914C" height="207.264" stroke-width="0"/>
       </g>
      </g>
      <g stroke-width="0">
       <g stroke-width="0">
        <rect width="5.26389" x="278.125" y="318.403" fill="#D3AC79" height="207.264" stroke-width="0"/>
       </g>
       <g stroke-width="0">
        <rect width="5.23611" x="233.153" y="318.403" fill="#D3AC79" height="207.264" stroke-width="0"/>
       </g>
       <g stroke-width="0">
        <rect width="5.20833" x="188.139" y="318.403" fill="#D3AC79" height="207.264" stroke-width="0"/>
       </g>
       <g stroke-width="0">
        <rect width="5.20833" x="143.139" y="318.403" fill="#D3AC79" height="207.264" stroke-width="0"/>
       </g>
      </g>
     </g>
    </g>
   </g>
  </g>
  <g transform="translate(247.612,1134.05)">
   <rect width="31.93" x="0" y="0" fill="#8D8C8C" height="31.9" id="connector0pin" stroke-width="0"/>
   <rect width="16.4442" x="7.79153" y="7.73544" fill="#8C8663" height="16.4152" stroke-width="0"/>
   <polygon fill="#B8AF82" points="0,31.9,7.79153,24.1368,7.79153,6.97162,0,0" stroke-width="0"/>
   <polygon fill="#80795B" points="24.2079,7.76321,7.90264,7.76321,0,0,31.93,0" stroke-width="0"/>
   <polygon fill="#5E5B43" points="24.2079,24.1368,24.2079,7.76321,31.93,0,31.93,31.9" stroke-width="0"/>
   <polygon fill="#9A916C" points="0,31.9,7.87486,24.1368,24.2079,24.1368,31.93,31.9" stroke-width="0"/>
  </g>
  <g transform="translate(247.612,34.05)">
   <rect width="31.93" x="0" y="0" fill="#8D8C8C" height="31.9" id="connector3pin" stroke-width="0"/>
   <rect width="16.4442" x="7.79153" y="7.73544" fill="#8C8663" height="16.4152" stroke-width="0"/>
   <polygon fill="#B8AF82" points="0,31.9,7.79153,24.1368,7.79153,6.97162,0,0" stroke-width="0"/>
   <polygon fill="#80795B" points="24.2079,7.76321,7.90264,7.76321,0,0,31.93,0" stroke-width="0"/>
   <polygon fill="#5E5B43" points="24.2079,24.1368,24.2079,7.76321,31.93,0,31.93,31.9" stroke-width="0"/>
   <polygon fill="#9A916C" points="0,31.9,7.87486,24.1368,24.2079,24.1368,31.93,31.9" stroke-width="0"/>
  </g>
  <g transform="translate(347.611,1134.05)">
   <rect width="31.93" x="0" y="0" fill="#8D8C8C" height="31.9" id="connector1pin" stroke-width="0"/>
   <rect width="16.4442" x="7.79153" y="7.73544" fill="#8C8663" height="16.4152" stroke-width="0"/>
   <polygon fill="#B8AF82" points="0,31.9,7.79153,24.1368,7.79153,6.97162,0,0" stroke-width="0"/>
   <polygon fill="#80795B" points="24.2079,7.76321,7.90264,7.76321,0,0,31.93,0" stroke-width="0"/>
   <polygon fill="#5E5B43" points="24.2079,24.1368,24.2079,7.76321,31.93,0,31.93,31.9" stroke-width="0"/>
   <polygon fill="#9A916C" points="0,31.9,7.87486,24.1368,24.2079,24.1368,31.93,31.9" stroke-width="0"/>
  </g>
  <g transform="translate(347.611,34.05)">
   <rect width="31.93" x="0" y="0" fill="#8D8C8C" height="31.9" id="connector2pin" stroke-width="0"/>
   <rect width="16.4442" x="7.79153" y="7.73544" fill="#8C8663" height="16.4152" stroke-width="0"/>
   <polygon fill="#B8AF82" points="0,31.9,7.79153,24.1368,7.79153,6.97162,0,0" stroke-width="0"/>
   <polygon fill="#80795B" points="24.2079,7.76321,7.90264,7.76321,0,0,31.93,0" stroke-width="0"/>
   <polygon fill="#5E5B43" points="24.2079,24.1368,24.2079,7.76321,31.93,0,31.93,31.9" stroke-width="0"/>
   <polygon fill="#9A916C" points="0,31.9,7.87486,24.1368,24.2079,24.1368,31.93,31.9" stroke-width="0"/>
  </g>
 </g>
 <text x="50" y="624.375" font-family="OCRA" fill="white" text-anchor="start" stroke="none" id="label" stroke-width="0" font-size="65">RJ9</text>
 <g transform="translate(277.077,1126.05)">
  <g transform="rotate(-90)">
   <text x="0" y="0" font-family="OCRA" fill="white" text-anchor="start" stroke="none" stroke-width="0" font-size="45">1</text>
  </g>
 </g>
 <g transform="translate(277.077,73.95)">
  <g transform="rotate(-90)">
   <text x="0" y="0" font-family="OCRA" fill="white" text-anchor="end" stroke="none" stroke-width="0" font-size="45">4</text>
  </g>
 </g>
 <g transform="translate(377.077,1126.05)">
  <g transform="rotate(-90)">
   <text x="0" y="0" font-family="OCRA" fill="white" text-anchor="start" stroke="none" stroke-width="0" font-size="45">2</text>
  </g>
 </g>
 <g transform="translate(377.077,73.95)">
  <g transform="rotate(-90)">
   <text x="0" y="0" font-family="OCRA" fill="white" text-anchor="end" stroke="none" stroke-width="0" font-size="45">3</text>
  </g>
 </g>
</svg>
