<?xml version='1.0' encoding='UTF-8' standalone='no'?>
<!-- Created with Fritzing (http://www.fritzing.org/) -->
<svg width="0.621361in" x="0in" version="1.2" y="0in" xmlns="http://www.w3.org/2000/svg" height="1in" viewBox="0 0 621.361 1000" baseProfile="tiny" xmlns:svg="http://www.w3.org/2000/svg">
 <desc>Fritzing breadboard generated by brd2svg</desc>
 <g id="breadboard">
  <g id="icon">
   <path fill="#1F7A34" stroke="none" stroke-width="0" d="M0,0L0,470A30,30 0 0 1 0,530L0,1000L621.361,1000L621.361,0L0,0z"/>
   <g transform="translate(100,227.604)">
    <g stroke-width="0">
     <g stroke-width="0">
      <g stroke-width="0">
       <path fill="#E6E6E6" stroke-width="0" d="M367.792,532.264c0,6.88889,-5.58333,12.5,-12.4444,12.5L66.0694,544.764c-6.875,0,-12.5,-5.61111,-12.5,-12.5L53.5694,304.111c0,-6.88889,5.625,-12.4861,12.5,-12.4861l289.278,0c6.86111,0,12.4444,5.59722,12.4444,12.4861L367.792,532.264z"/>
       <rect width="314.222" x="53.5694" y="20.7639" fill="#B3B3B3" height="278.653" stroke-width="0"/>
       <g stroke-width="0">
        <rect width="12" x="188.764" y="0.0138889" fill="#999999" height="20.7361" stroke-width="0"/>
        <rect width="12" x="156.833" y="0.0138889" fill="#999999" height="20.7361" stroke-width="0"/>
        <rect width="11.9583" x="251.347" y="0.0138889" fill="#999999" height="20.7361" stroke-width="0"/>
        <rect width="11.9861" x="219.847" y="0.0138889" fill="#999999" height="20.7361" stroke-width="0"/>
        <rect width="1.94444" x="156.833" y="0.0138889" fill="#CCCCCC" height="20.7361" stroke-width="0"/>
        <rect width="1.98611" x="219.847" y="0.0138889" fill="#CCCCCC" height="20.7361" stroke-width="0"/>
        <rect width="1.95833" x="251.347" y="0.0138889" fill="#CCCCCC" height="20.7361" stroke-width="0"/>
        <rect width="1.94444" x="188.764" y="0.0138889" fill="#CCCCCC" height="20.7361" stroke-width="0"/>
       </g>
      </g>
     </g>
     <polygon fill="#808080" points="153.486,324.861,91.1528,367.403,91.1528,520.472,330.25,520.472,330.25,367.403,267.917,324.861" stroke-width="0"/>
     <rect width="114" x="155.431" y="324.861" fill="#999999" height="73.7917" stroke-width="0"/>
     <g stroke-width="0">
      <g stroke-width="0">
       <rect width="16.7778" x="173.028" y="324.861" fill="#666666" height="65.9722" stroke-width="0"/>
       <rect width="16.7917" x="237.972" y="324.861" fill="#666666" height="65.9722" stroke-width="0"/>
      </g>
     </g>
     <g stroke-width="0">
      <g stroke-width="0">
       <rect width="16.7778" x="171.569" y="324.861" fill="#CCCCCC" height="65.9722" stroke-width="0"/>
       <rect width="16.7917" x="236.5" y="324.861" fill="#CCCCCC" height="65.9722" stroke-width="0"/>
      </g>
     </g>
     <rect width="114" x="155.431" y="398.653" fill="#CCCCCC" height="71.4722" stroke-width="0"/>
     <rect width="114" x="155.431" y="398.653" fill="#B3B3B3" height="7.81944" stroke-width="0"/>
     <rect width="19.8194" x="53.5694" y="20.7639" fill="#CCCCCC" height="278.653" stroke-width="0"/>
     <rect width="19.8333" x="348" y="20.7639" fill="#999999" height="278.653" stroke-width="0"/>
     <polygon fill="#666666" points="269.431,325.903,269.431,398.653,269.431,470.125,235.208,470.125,223.861,520.472,330.25,520.472,330.25,367.403" stroke-width="0"/>
     <polygon fill="#999999" points="261.486,470.125,269.431,470.125,269.431,398.653,261.486,406.458" stroke-width="0"/>
     <polygon fill="#E6E6E6" points="155.431,470.125,163.403,470.125,163.403,406.458,155.431,398.653" stroke-width="0"/>
     <rect width="53.5694" x="0" y="42.5694" fill="#B3B3B3" height="83.3333" stroke-width="0"/>
     <rect width="53.5417" x="367.792" y="42.5694" fill="#B3B3B3" height="83.3333" stroke-width="0"/>
    </g>
   </g>
  </g>
  <g transform="translate(194.715,934.05)">
   <rect width="31.93" x="0" y="0" fill="#8D8C8C" height="31.9" id="connector0pin" stroke-width="0"/>
   <rect width="16.4442" x="7.79153" y="7.73544" fill="#8C8663" height="16.4152" stroke-width="0"/>
   <polygon fill="#B8AF82" points="0,31.9,7.79153,24.1368,7.79153,6.97162,0,0" stroke-width="0"/>
   <polygon fill="#80795B" points="24.2079,7.76321,7.90264,7.76321,0,0,31.93,0" stroke-width="0"/>
   <polygon fill="#5E5B43" points="24.2079,24.1368,24.2079,7.76321,31.93,0,31.93,31.9" stroke-width="0"/>
   <polygon fill="#9A916C" points="0,31.9,7.87486,24.1368,24.2079,24.1368,31.93,31.9" stroke-width="0"/>
  </g>
  <g transform="translate(194.715,34.05)">
   <rect width="31.93" x="0" y="0" fill="#8D8C8C" height="31.9" id="connector5pin" stroke-width="0"/>
   <rect width="16.4442" x="7.79153" y="7.73544" fill="#8C8663" height="16.4152" stroke-width="0"/>
   <polygon fill="#B8AF82" points="0,31.9,7.79153,24.1368,7.79153,6.97162,0,0" stroke-width="0"/>
   <polygon fill="#80795B" points="24.2079,7.76321,7.90264,7.76321,0,0,31.93,0" stroke-width="0"/>
   <polygon fill="#5E5B43" points="24.2079,24.1368,24.2079,7.76321,31.93,0,31.93,31.9" stroke-width="0"/>
   <polygon fill="#9A916C" points="0,31.9,7.87486,24.1368,24.2079,24.1368,31.93,31.9" stroke-width="0"/>
  </g>
  <g transform="translate(294.716,934.05)">
   <rect width="31.93" x="0" y="0" fill="#8D8C8C" height="31.9" id="connector1pin" stroke-width="0"/>
   <rect width="16.4442" x="7.79153" y="7.73544" fill="#8C8663" height="16.4152" stroke-width="0"/>
   <polygon fill="#B8AF82" points="0,31.9,7.79153,24.1368,7.79153,6.97162,0,0" stroke-width="0"/>
   <polygon fill="#80795B" points="24.2079,7.76321,7.90264,7.76321,0,0,31.93,0" stroke-width="0"/>
   <polygon fill="#5E5B43" points="24.2079,24.1368,24.2079,7.76321,31.93,0,31.93,31.9" stroke-width="0"/>
   <polygon fill="#9A916C" points="0,31.9,7.87486,24.1368,24.2079,24.1368,31.93,31.9" stroke-width="0"/>
  </g>
  <g transform="translate(294.716,34.05)">
   <rect width="31.93" x="0" y="0" fill="#8D8C8C" height="31.9" id="connector4pin" stroke-width="0"/>
   <rect width="16.4442" x="7.79153" y="7.73544" fill="#8C8663" height="16.4152" stroke-width="0"/>
   <polygon fill="#B8AF82" points="0,31.9,7.79153,24.1368,7.79153,6.97162,0,0" stroke-width="0"/>
   <polygon fill="#80795B" points="24.2079,7.76321,7.90264,7.76321,0,0,31.93,0" stroke-width="0"/>
   <polygon fill="#5E5B43" points="24.2079,24.1368,24.2079,7.76321,31.93,0,31.93,31.9" stroke-width="0"/>
   <polygon fill="#9A916C" points="0,31.9,7.87486,24.1368,24.2079,24.1368,31.93,31.9" stroke-width="0"/>
  </g>
  <g transform="translate(394.716,934.05)">
   <rect width="31.93" x="0" y="0" fill="#8D8C8C" height="31.9" id="connector2pin" stroke-width="0"/>
   <rect width="16.4442" x="7.79153" y="7.73544" fill="#8C8663" height="16.4152" stroke-width="0"/>
   <polygon fill="#B8AF82" points="0,31.9,7.79153,24.1368,7.79153,6.97162,0,0" stroke-width="0"/>
   <polygon fill="#80795B" points="24.2079,7.76321,7.90264,7.76321,0,0,31.93,0" stroke-width="0"/>
   <polygon fill="#5E5B43" points="24.2079,24.1368,24.2079,7.76321,31.93,0,31.93,31.9" stroke-width="0"/>
   <polygon fill="#9A916C" points="0,31.9,7.87486,24.1368,24.2079,24.1368,31.93,31.9" stroke-width="0"/>
  </g>
  <g transform="translate(394.716,34.05)">
   <rect width="31.93" x="0" y="0" fill="#8D8C8C" height="31.9" id="connector3pin" stroke-width="0"/>
   <rect width="16.4442" x="7.79153" y="7.73544" fill="#8C8663" height="16.4152" stroke-width="0"/>
   <polygon fill="#B8AF82" points="0,31.9,7.79153,24.1368,7.79153,6.97162,0,0" stroke-width="0"/>
   <polygon fill="#80795B" points="24.2079,7.76321,7.90264,7.76321,0,0,31.93,0" stroke-width="0"/>
   <polygon fill="#5E5B43" points="24.2079,24.1368,24.2079,7.76321,31.93,0,31.93,31.9" stroke-width="0"/>
   <polygon fill="#9A916C" points="0,31.9,7.87486,24.1368,24.2079,24.1368,31.93,31.9" stroke-width="0"/>
  </g>
 </g>
 <text x="50" y="524.375" font-family="OCRA" fill="white" text-anchor="start" stroke="none" id="label" stroke-width="0" font-size="65">USB-B-SMT</text>
 <g transform="translate(224.18,926.05)">
  <g transform="rotate(-90)">
   <text x="0" y="0" font-family="OCRA" fill="white" text-anchor="start" stroke="none" stroke-width="0" font-size="45">5</text>
  </g>
 </g>
 <g transform="translate(224.18,73.95)">
  <g transform="rotate(-90)">
   <text x="0" y="0" font-family="OCRA" fill="white" text-anchor="end" stroke="none" stroke-width="0" font-size="45">VUSB</text>
  </g>
 </g>
 <g transform="translate(324.18,926.05)">
  <g transform="rotate(-90)">
   <text x="0" y="0" font-family="OCRA" fill="white" text-anchor="start" stroke="none" stroke-width="0" font-size="45">6</text>
  </g>
 </g>
 <g transform="translate(324.18,73.95)">
  <g transform="rotate(-90)">
   <text x="0" y="0" font-family="OCRA" fill="white" text-anchor="end" stroke="none" stroke-width="0" font-size="45">GND</text>
  </g>
 </g>
 <g transform="translate(424.18,926.05)">
  <g transform="rotate(-90)">
   <text x="0" y="0" font-family="OCRA" fill="white" text-anchor="start" stroke="none" stroke-width="0" font-size="45">D+</text>
  </g>
 </g>
 <g transform="translate(424.18,73.95)">
  <g transform="rotate(-90)">
   <text x="0" y="0" font-family="OCRA" fill="white" text-anchor="end" stroke="none" stroke-width="0" font-size="45">D-</text>
  </g>
 </g>
</svg>
