<?xml version="1.0" encoding="utf-8"?>
<!-- Generator: Adobe Illustrator 15.1.0, SVG Export Plug-In . SVG Version: 6.00 Build 0)  -->
<!DOCTYPE svg PUBLIC "-//W3C//DTD SVG 1.1//EN" "http://www.w3.org/Graphics/SVG/1.1/DTD/svg11.dtd">
<svg version="1.1" id="Ebene_1" xmlns:svg="http://www.w3.org/2000/svg"
	 xmlns="http://www.w3.org/2000/svg" xmlns:xlink="http://www.w3.org/1999/xlink" x="0px" y="0px" width="28.801px"
	 height="61.022px" viewBox="0 0 28.801 61.022" enable-background="new 0 0 28.801 61.022" xml:space="preserve">
<g>
	<g id="breadboard">
		<circle id="connector2pin" fill="none" stroke="#9A916C" stroke-width="0.254" cx="18" cy="8.424" r="1.494"/>
		<circle id="connector3pin" fill="none" stroke="#9A916C" stroke-width="0.254" cx="10.801" cy="8.424" r="1.494"/>
	</g>
	<rect x="0" fill="#CCCCCC" width="28.8" height="28.8"/>
	<rect x="0" y="20.787" fill="#808080" width="28.8" height="20.091"/>
	<circle fill="#CCCCCC" cx="14.4" cy="32.133" r="10.922"/>
	<rect x="3.479" y="31.714" fill="#CCCCCC" width="21.844" height="7.16"/>
	<g>
		<g>
			<polygon opacity="0.2" fill="#FFFFFF" enable-background="new    " points="0.462,20.324 0,20.787 0,0 0.462,0 			"/>
			<polygon opacity="0.2" fill="#FFFFFF" enable-background="new    " points="28.801,0 28.338,0.463 0.462,0.463 0.462,0 			"/>
		</g>
		<g>
			<polygon opacity="0.2" enable-background="new    " points="28.338,0.463 28.801,0 28.801,20.787 28.338,20.787 			"/>
			<polygon opacity="0.2" enable-background="new    " points="0,20.787 0.462,20.324 28.338,20.324 28.338,20.787 			"/>
		</g>
	</g>
	<g>
		<g>
			<polygon opacity="0.2" fill="#FFFFFF" enable-background="new    " points="0.462,40.429 0,40.892 0,20.787 0.462,20.787 			"/>
			<polygon opacity="0.2" fill="#FFFFFF" enable-background="new    " points="28.801,20.787 28.338,21.25 0.462,21.25 
				0.462,20.787 			"/>
		</g>
		<g>
			<polygon opacity="0.2" enable-background="new    " points="28.338,21.25 28.801,20.787 28.801,40.892 28.338,40.892 			"/>
			<polygon opacity="0.2" enable-background="new    " points="0,40.892 0.462,40.429 28.338,40.429 28.338,40.892 			"/>
		</g>
	</g>
	<g opacity="0.3">
		<g>
			<path fill="#FFFFFF" d="M14.734,43.12c-6.031,0-10.922-4.891-10.922-10.922s4.891-10.873,10.922-10.873H14.4
				c-6.031,0-10.922,4.841-10.922,10.873S8.369,43.12,14.4,43.12H14.734z"/>
		</g>
		<g>
			<path fill="#FFFFFF" d="M14.734,43.407c-6.031,0-10.922-4.891-10.922-10.922c0-6.03,4.891-10.872,10.922-10.872H14.4
				c-6.031,0-10.922,4.841-10.922,10.872c0,6.031,4.891,10.922,10.922,10.922H14.734z"/>
		</g>
		<g>
			<path fill="#FFFFFF" d="M14.734,43.696c-6.031,0-10.922-4.891-10.922-10.922c0-6.032,4.891-10.873,10.922-10.873H14.4
				c-6.031,0-10.922,4.841-10.922,10.873c0,6.031,4.891,10.922,10.922,10.922H14.734z"/>
		</g>
		<g>
			<path fill="#FFFFFF" d="M14.734,43.983c-6.031,0-10.922-4.891-10.922-10.922c0-6.031,4.891-10.872,10.922-10.872H14.4
				c-6.031,0-10.922,4.841-10.922,10.872c0,6.031,4.891,10.922,10.922,10.922H14.734z"/>
		</g>
		<g>
			<path fill="#FFFFFF" d="M14.734,44.272c-6.031,0-10.922-4.891-10.922-10.922c0-6.032,4.891-10.873,10.922-10.873H14.4
				c-6.031,0-10.922,4.841-10.922,10.873c0,6.031,4.891,10.922,10.922,10.922H14.734z"/>
		</g>
		<g>
			<path fill="#FFFFFF" d="M14.734,44.56c-6.031,0-10.922-4.891-10.922-10.922c0-6.031,4.891-10.872,10.922-10.872H14.4
				c-6.031,0-10.922,4.841-10.922,10.872c0,6.031,4.891,10.922,10.922,10.922H14.734z"/>
		</g>
		<g>
			<path fill="#FFFFFF" d="M14.734,44.849c-6.031,0-10.922-4.891-10.922-10.922c0-6.031,4.891-10.872,10.922-10.872H14.4
				c-6.031,0-10.922,4.841-10.922,10.872c0,6.031,4.891,10.922,10.922,10.922H14.734z"/>
		</g>
		<g>
			<path fill="#FFFFFF" d="M14.734,45.138c-6.031,0-10.922-4.891-10.922-10.922c0-6.032,4.891-10.873,10.922-10.873H14.4
				c-6.031,0-10.922,4.841-10.922,10.873c0,6.031,4.891,10.922,10.922,10.922H14.734z"/>
		</g>
		<g>
			<path fill="#FFFFFF" d="M14.734,45.425c-6.031,0-10.922-4.891-10.922-10.922s4.891-10.872,10.922-10.872H14.4
				c-6.031,0-10.922,4.841-10.922,10.872S8.369,45.425,14.4,45.425H14.734z"/>
		</g>
		<g>
			<path fill="#FFFFFF" d="M14.734,45.714c-6.031,0-10.922-4.893-10.922-10.922c0-6.032,4.891-10.873,10.922-10.873H14.4
				c-6.031,0-10.922,4.841-10.922,10.873c0,6.029,4.891,10.922,10.922,10.922H14.734z"/>
		</g>
		<g>
			<path fill="#FFFFFF" d="M14.734,46.001c-6.031,0-10.922-4.891-10.922-10.922s4.891-10.872,10.922-10.872H14.4
				c-6.031,0-10.922,4.841-10.922,10.872S8.369,46.001,14.4,46.001H14.734z"/>
		</g>
		<g>
			<path fill="#FFFFFF" d="M14.734,46.29c-6.031,0-10.922-4.893-10.922-10.924c0-6.03,4.891-10.872,10.922-10.872H14.4
				c-6.031,0-10.922,4.841-10.922,10.872c0,6.031,4.891,10.924,10.922,10.924H14.734z"/>
		</g>
		<g>
			<path fill="#FFFFFF" d="M14.734,46.577c-6.031,0-10.922-4.891-10.922-10.922s4.891-10.873,10.922-10.873H14.4
				c-6.031,0-10.922,4.841-10.922,10.873S8.369,46.577,14.4,46.577H14.734z"/>
		</g>
		<g>
			<path fill="#FFFFFF" d="M14.734,46.864c-6.031,0-10.922-4.891-10.922-10.922c0-6.031,4.891-10.872,10.922-10.872H14.4
				c-6.031,0-10.922,4.841-10.922,10.872c0,6.031,4.891,10.922,10.922,10.922H14.734z"/>
		</g>
		<g>
			<path fill="#FFFFFF" d="M14.734,47.153c-6.031,0-10.922-4.891-10.922-10.922c0-6.032,4.891-10.873,10.922-10.873H14.4
				c-6.031,0-10.922,4.841-10.922,10.873c0,6.031,4.891,10.922,10.922,10.922H14.734z"/>
		</g>
		<g>
			<path fill="#FFFFFF" d="M14.734,47.44c-6.031,0-10.922-4.891-10.922-10.922c0-6.031,4.891-10.872,10.922-10.872H14.4
				c-6.031,0-10.922,4.841-10.922,10.872c0,6.031,4.891,10.922,10.922,10.922H14.734z"/>
		</g>
		<g>
			<path fill="#FFFFFF" d="M14.734,47.729c-6.031,0-10.922-4.891-10.922-10.922c0-6.032,4.891-10.873,10.922-10.873H14.4
				c-6.031,0-10.922,4.841-10.922,10.873c0,6.031,4.891,10.922,10.922,10.922H14.734z"/>
		</g>
		<g>
			<path fill="#FFFFFF" d="M14.734,48.019c-6.031,0-10.922-4.891-10.922-10.922c0-6.032,4.891-10.873,10.922-10.873H14.4
				c-6.031,0-10.922,4.841-10.922,10.873c0,6.031,4.891,10.922,10.922,10.922H14.734z"/>
		</g>
		<g>
			<path fill="#FFFFFF" d="M14.734,48.306c-6.031,0-10.922-4.891-10.922-10.922s4.891-10.872,10.922-10.872H14.4
				c-6.031,0-10.922,4.841-10.922,10.872S8.369,48.306,14.4,48.306H14.734z"/>
		</g>
		<g>
			<path fill="#FFFFFF" d="M14.734,48.595c-6.031,0-10.922-4.893-10.922-10.922c0-6.031,4.891-10.873,10.922-10.873H14.4
				c-6.031,0-10.922,4.842-10.922,10.873c0,6.029,4.891,10.922,10.922,10.922H14.734z"/>
		</g>
		<g>
			<path fill="#FFFFFF" d="M14.734,48.882c-6.031,0-10.922-4.891-10.922-10.922s4.891-10.872,10.922-10.872H14.4
				c-6.031,0-10.922,4.841-10.922,10.872S8.369,48.882,14.4,48.882H14.734z"/>
		</g>
		<g>
			<path fill="#FFFFFF" d="M14.734,49.171c-6.031,0-10.922-4.893-10.922-10.922c0-6.031,4.891-10.873,10.922-10.873H14.4
				c-6.031,0-10.922,4.842-10.922,10.873c0,6.029,4.891,10.922,10.922,10.922H14.734z"/>
		</g>
		<g>
			<path fill="#FFFFFF" d="M14.734,49.458c-6.031,0-10.922-4.891-10.922-10.922s4.891-10.872,10.922-10.872H14.4
				c-6.031,0-10.922,4.841-10.922,10.872S8.369,49.458,14.4,49.458H14.734z"/>
		</g>
	</g>
	<g opacity="0.3">
		<g>
			<path fill="#808080" d="M14.066,21.326c6.032,0,10.922,4.891,10.922,10.923c0,6.029-4.89,10.871-10.922,10.871H14.4
				c6.033,0,10.921-4.842,10.921-10.871c0-6.032-4.888-10.923-10.921-10.923H14.066z"/>
		</g>
		<g>
			<path fill="#808080" d="M14.066,21.614c6.032,0,10.922,4.891,10.922,10.922s-4.89,10.871-10.922,10.871H14.4
				c6.033,0,10.921-4.84,10.921-10.871S20.434,21.614,14.4,21.614H14.066z"/>
		</g>
		<g>
			<path fill="#808080" d="M14.066,21.902c6.032,0,10.922,4.891,10.922,10.921c0,6.031-4.89,10.873-10.922,10.873H14.4
				c6.033,0,10.921-4.842,10.921-10.873c0-6.03-4.888-10.921-10.921-10.921H14.066z"/>
		</g>
		<g>
			<path fill="#808080" d="M14.066,22.19c6.032,0,10.922,4.891,10.922,10.922s-4.89,10.871-10.922,10.871H14.4
				c6.033,0,10.921-4.84,10.921-10.871S20.434,22.19,14.4,22.19H14.066z"/>
		</g>
		<g>
			<path fill="#808080" d="M14.066,22.478c6.032,0,10.922,4.891,10.922,10.921c0,6.031-4.89,10.873-10.922,10.873H14.4
				c6.033,0,10.921-4.842,10.921-10.873c0-6.031-4.888-10.921-10.921-10.921H14.066z"/>
		</g>
		<g>
			<path fill="#808080" d="M14.066,22.767c6.032,0,10.922,4.891,10.922,10.922c0,6.031-4.89,10.871-10.922,10.871H14.4
				c6.033,0,10.921-4.84,10.921-10.871c0-6.032-4.888-10.922-10.921-10.922H14.066z"/>
		</g>
		<g>
			<path fill="#808080" d="M14.066,23.055c6.032,0,10.922,4.891,10.922,10.923c0,6.031-4.89,10.871-10.922,10.871H14.4
				c6.033,0,10.921-4.84,10.921-10.871c0-6.032-4.888-10.923-10.921-10.923H14.066z"/>
		</g>
		<g>
			<path fill="#808080" d="M14.066,23.343c6.032,0,10.922,4.891,10.922,10.922c0,6.031-4.89,10.873-10.922,10.873H14.4
				c6.033,0,10.921-4.842,10.921-10.873c0-6.031-4.888-10.922-10.921-10.922H14.066z"/>
		</g>
		<g>
			<path fill="#808080" d="M14.066,23.631c6.032,0,10.922,4.891,10.922,10.923c0,6.031-4.89,10.871-10.922,10.871H14.4
				c6.033,0,10.921-4.84,10.921-10.871c0-6.032-4.888-10.923-10.921-10.923H14.066z"/>
		</g>
		<g>
			<path fill="#808080" d="M14.066,23.919c6.032,0,10.922,4.891,10.922,10.922s-4.89,10.873-10.922,10.873H14.4
				c6.033,0,10.921-4.842,10.921-10.873S20.434,23.919,14.4,23.919H14.066z"/>
		</g>
		<g>
			<path fill="#808080" d="M14.066,24.207c6.032,0,10.922,4.891,10.922,10.923c0,6.029-4.89,10.871-10.922,10.871H14.4
				c6.033,0,10.921-4.842,10.921-10.871c0-6.032-4.888-10.923-10.921-10.923H14.066z"/>
		</g>
		<g>
			<path fill="#808080" d="M14.066,24.495c6.032,0,10.922,4.891,10.922,10.922S20.099,46.29,14.066,46.29H14.4
				c6.033,0,10.921-4.842,10.921-10.873S20.434,24.495,14.4,24.495H14.066z"/>
		</g>
		<g>
			<path fill="#808080" d="M14.066,24.783c6.032,0,10.922,4.891,10.922,10.923c0,6.029-4.89,10.871-10.922,10.871H14.4
				c6.033,0,10.921-4.842,10.921-10.871c0-6.032-4.888-10.923-10.921-10.923H14.066z"/>
		</g>
		<g>
			<path fill="#808080" d="M14.066,25.071c6.032,0,10.922,4.891,10.922,10.922s-4.89,10.871-10.922,10.871H14.4
				c6.033,0,10.921-4.84,10.921-10.871S20.434,25.071,14.4,25.071H14.066z"/>
		</g>
		<g>
			<path fill="#808080" d="M14.066,25.359c6.032,0,10.922,4.891,10.922,10.921c0,6.031-4.89,10.873-10.922,10.873H14.4
				c6.033,0,10.921-4.842,10.921-10.873c0-6.03-4.888-10.921-10.921-10.921H14.066z"/>
		</g>
		<g>
			<path fill="#808080" d="M14.066,25.647c6.032,0,10.922,4.891,10.922,10.922S20.099,47.44,14.066,47.44H14.4
				c6.033,0,10.921-4.84,10.921-10.871S20.434,25.647,14.4,25.647H14.066z"/>
		</g>
		<g>
			<path fill="#808080" d="M14.066,25.935c6.032,0,10.922,4.891,10.922,10.922c0,6.031-4.89,10.873-10.922,10.873H14.4
				c6.033,0,10.921-4.842,10.921-10.873c0-6.031-4.888-10.922-10.921-10.922H14.066z"/>
		</g>
		<g>
			<path fill="#808080" d="M14.066,26.224c6.032,0,10.922,4.891,10.922,10.922s-4.89,10.873-10.922,10.873H14.4
				c6.033,0,10.921-4.842,10.921-10.873S20.434,26.224,14.4,26.224H14.066z"/>
		</g>
		<g>
			<path fill="#808080" d="M14.066,26.512c6.032,0,10.922,4.892,10.922,10.923s-4.89,10.871-10.922,10.871H14.4
				c6.033,0,10.921-4.84,10.921-10.871S20.434,26.512,14.4,26.512H14.066z"/>
		</g>
		<g>
			<path fill="#808080" d="M14.066,26.8c6.032,0,10.922,4.891,10.922,10.922s-4.89,10.873-10.922,10.873H14.4
				c6.033,0,10.921-4.842,10.921-10.873S20.434,26.8,14.4,26.8H14.066z"/>
		</g>
		<g>
			<path fill="#808080" d="M14.066,27.088c6.032,0,10.922,4.892,10.922,10.923s-4.89,10.871-10.922,10.871H14.4
				c6.033,0,10.921-4.84,10.921-10.871S20.434,27.088,14.4,27.088H14.066z"/>
		</g>
		<g>
			<path fill="#808080" d="M14.066,27.376c6.032,0,10.922,4.891,10.922,10.922s-4.89,10.873-10.922,10.873H14.4
				c6.033,0,10.921-4.842,10.921-10.873S20.434,27.376,14.4,27.376H14.066z"/>
		</g>
		<g>
			<path fill="#808080" d="M14.066,27.664c6.032,0,10.922,4.892,10.922,10.923c0,6.029-4.89,10.871-10.922,10.871H14.4
				c6.033,0,10.921-4.842,10.921-10.871c0-6.031-4.888-10.923-10.921-10.923H14.066z"/>
		</g>
	</g>
	<path fill="#CCCCCC" d="M25.322,38.823c0,6.031-4.891,10.924-10.922,10.924S3.479,44.854,3.479,38.823
		c0-6.029,4.891-10.872,10.922-10.872S25.322,32.794,25.322,38.823z"/>
	<g opacity="0.3">
		<path fill="#FFFFFF" d="M14.734,49.747c-6.031,0-10.922-4.893-10.922-10.924c0-6.029,4.891-10.872,10.922-10.872H14.4
			c-6.031,0-10.922,4.842-10.922,10.872c0,6.031,4.891,10.924,10.922,10.924H14.734z"/>
	</g>
	<g opacity="0.3">
		<path fill="#808080" d="M14.066,27.952c6.032,0,10.922,4.891,10.922,10.922s-4.89,10.873-10.922,10.873H14.4
			c6.033,0,10.921-4.842,10.921-10.873S20.434,27.952,14.4,27.952H14.066z"/>
	</g>
	<g>
		<path fill="#B3B3B3" d="M23.429,38.372c-0.263-4.766-4.198-8.552-9.028-8.552s-8.766,3.787-9.028,8.552v14.391h18.058
			L23.429,38.372z"/>
		<path opacity="0.14" fill="#F2F2F2" enable-background="new    " d="M5.682,50.308l4.563-6.385V31.014
			c-0.719,0.387-3.594,2.073-4.563,6.682V50.308z"/>
		<path opacity="0.43" fill="#FFFFFF" enable-background="new    " d="M8.266,46.409l0.656-1.574l0.01-12.902
			c-0.219,0.209-0.484,0.422-0.666,0.633V46.409z"/>
		<path opacity="0.23" fill="#1A1A1A" enable-background="new    " d="M14.066,29.82c4.83,0,8.766,3.787,9.027,8.552l0.002,14.391
			h0.334l-0.001-14.391c-0.263-4.766-4.198-8.552-9.028-8.552H14.066z"/>
		<path opacity="0.38" fill="#FFFFFF" enable-background="new    " d="M14.734,29.82c-4.83,0-8.766,3.787-9.028,8.552L5.706,52.763
			H5.372l0.001-14.391C5.635,33.606,9.57,29.82,14.4,29.82H14.734z"/>
		<rect x="4.279" y="42.007" fill="#999999" width="1.092" height="3.625"/>
		<rect x="23.438" y="42.007" fill="#999999" width="1.092" height="3.625"/>
	</g>
	<g>
		<circle fill="#CCCCCC" cx="14.4" cy="51.969" r="9.054"/>
		<circle fill="#808080" cx="14.4" cy="51.968" r="8.148"/>
		<path fill="#B3B3B3" d="M15.696,43.933c-0.423-0.068-0.854-0.113-1.296-0.113s-0.873,0.045-1.295,0.113v3.785h2.591V43.933z"/>
		<circle fill="#CCCCCC" cx="14.4" cy="47.719" r="1.296"/>
		<circle fill="#808080" cx="14.4" cy="47.719" r="0.876"/>
		<path opacity="0.32" fill="#333333" enable-background="new    " d="M14.504,48.595c-0.483,0-0.875-0.395-0.875-0.877
			c0-0.484,0.392-0.877,0.875-0.877H14.4c-0.484,0-0.876,0.393-0.876,0.877c0,0.482,0.392,0.877,0.876,0.877H14.504z"/>
	</g>
	<path opacity="0.52" fill="#333333" enable-background="new    " d="M13.105,45.505c-1.938,1.488-3.188,3.83-3.188,6.463
		c0,3.863,2.688,7.1,6.297,7.938c-0.799,0.246-1.814,0.211-1.814,0.211c-4.5,0-8.148-3.646-8.148-8.146
		c0-4.061,2.969-7.426,6.853-8.047V45.505z"/>
	<path opacity="0.3" fill="#FFFFFF" enable-background="new    " d="M14.771,61.021c-5,0-9.054-4.053-9.054-9.053
		s4.054-9.055,9.054-9.055H14.4c-5,0-9.054,4.055-9.054,9.055S9.4,61.021,14.4,61.021H14.771z"/>
	<path fill="#999999" d="M14.271,49.013c0.716,0,1.296-0.58,1.296-1.295s-0.58-1.295-1.296-1.295H14.4
		c0.717,0,1.296,0.58,1.296,1.295s-0.579,1.295-1.296,1.295H14.271z"/>
</g>
</svg>
