<?xml version='1.0' encoding='UTF-8' standalone='no'?>
<!-- Created with Fritzing (http://www.fritzing.org/) -->
<svg width="0.708in" x="0in" version="1.2" y="0in" xmlns="http://www.w3.org/2000/svg" height="0.8in" viewBox="0 0 708 800" baseProfile="tiny" xmlns:svg="http://www.w3.org/2000/svg">
 <desc>Fritzing breadboard generated by brd2svg</desc>
 <g id="breadboard">
  <g id="icon">
   <path fill="#1F7A34" stroke="none" stroke-width="0" d="M0,0L0,370A30,30 0 0 1 0,430L0,800L708,800L708,0L0,0z"/>
   <g transform="translate(100,162.438)">
    <g stroke-width="0">
     <g stroke-width="0">
      <rect width="8.26389" x="49.8611" y="467.694" fill="#CCCCCC" height="6.63889" stroke-width="0"/>
      <rect width="8.27778" x="349.861" y="467.694" fill="#CCCCCC" height="6.63889" stroke-width="0"/>
      <rect width="8.27778" x="449.861" y="467.694" fill="#CCCCCC" height="6.63889" stroke-width="0"/>
      <g stroke-width="0">
       <path fill="#1A1A1A" stroke-width="0" d="M508,454.681c0,7.65278,-6.25,13.8889,-13.8889,13.8889L13.8889,468.569c-7.63889,0,-13.8889,-6.23611,-13.8889,-13.8889l0,-157.639c0,-7.63889,6.25,-13.8889,13.8889,-13.8889l480.222,0c7.63889,0,13.8889,6.25,13.8889,13.8889L508,454.681z"/>
      </g>
      <g stroke-width="0">
       <path fill="#333333" stroke-width="0" d="M508,299.639c0,4.80556,-3.91667,8.72222,-8.70833,8.72222L8.70833,308.361C3.93056,308.361,0,304.444,0,299.639L0,8.70833C0,3.93056,3.93056,0,8.70833,0l490.583,0c4.79167,0,8.70833,3.93056,8.70833,8.70833L508,299.639L508,299.639z"/>
       <g stroke-width="0">
        <circle fill="#1A1A1A" cx="253.486" cy="154.181" r="35.2361" stroke-width="0"/>
        <circle cx="253.486" cy="157.806" r="8.27778" stroke-width="0"/>
        <path stroke-width="0" d="M253.486,126.222c18.2361,0,33.0278,13.875,34.8889,31.5833c0.111111,-1.20833,0.347222,-2.38889,0.347222,-3.63889c0,-19.4444,-15.7917,-35.2222,-35.2361,-35.2222c-19.4444,0,-35.2222,15.7778,-35.2222,35.2222c0,1.25,0.25,2.43056,0.361111,3.63889C220.472,140.097,235.264,126.222,253.486,126.222z"/>
       </g>
      </g>
      <g enable-background="new    " stroke-width="0">
       <path fill="#808080" stroke-width="0" d="M16.2083,32.5417c0,-3.75,1,-6.68056,3.01389,-8.80556s4.61111,-3.18056,7.79167,-3.18056c2.08333,0,3.97222,0.486111,5.63889,1.48611c1.68056,0.986111,2.94444,2.38889,3.81944,4.16667c0.875,1.77778,1.31944,3.79167,1.31944,6.06944c0,2.29167,-0.458333,4.34722,-1.38889,6.13889S34.1944,41.6111,32.5,42.5417c-1.69444,0.916667,-3.52778,1.38889,-5.48611,1.38889c-2.125,0,-4.02778,-0.5,-5.69444,-1.52778S18.375,39.9583,17.5139,38.1944C16.6389,36.4167,16.2083,34.5278,16.2083,32.5417zM19.2917,32.5972c0,2.70833,0.736111,4.86111,2.19444,6.43056c1.45833,1.55556,3.29167,2.34722,5.5,2.34722c2.25,0,4.09722,-0.791667,5.55556,-2.375C34,37.4167,34.7222,35.1806,34.7222,32.2778c0,-1.84722,-0.305556,-3.44444,-0.930556,-4.81944c-0.625,-1.375,-1.52778,-2.44444,-2.72222,-3.18056c-1.19444,-0.763889,-2.54167,-1.13889,-4.02778,-1.13889c-2.11111,0,-3.94444,0.736111,-5.47222,2.18056C20.0556,26.7639,19.2917,29.1944,19.2917,32.5972z"/>
       <path fill="#808080" stroke-width="0" d="M41.5694,43.5417L41.5694,20.9583l4.5,0l5.34722,15.9861c0.486111,1.48611,0.847222,2.61111,1.08333,3.33333C52.75,39.4722,53.1528,38.2639,53.6944,36.6667l5.40278,-15.7083l4.02778,0l0,22.5833L60.2361,43.5417L60.2361,24.6389L53.6806,43.5417L50.9722,43.5417L44.4444,24.3194l0,19.2222L41.5694,43.5417z"/>
       <path fill="#808080" stroke-width="0" d="M67.9861,43.5417L67.9861,20.9583l10.0139,0c2.01389,0,3.54167,0.208333,4.59722,0.611111s1.88889,1.125,2.51389,2.13889c0.625,1.02778,0.944444,2.16667,0.944444,3.40278c0,1.59722,-0.527778,2.95833,-1.55556,4.05556s-2.63889,1.80556,-4.80556,2.08333c0.791667,0.388889,1.38889,0.763889,1.79167,1.125c0.875,0.805556,1.70833,1.80556,2.48611,3.01389l3.93056,6.13889L84.125,43.5278L81.1389,38.8472C80.2639,37.5,79.5556,36.4583,78.9861,35.7361C78.4167,35.0139,77.9167,34.5139,77.4722,34.2222S76.5694,33.7361,76.0972,33.625c-0.333333,-0.0833333,-0.888889,-0.111111,-1.66667,-0.111111L70.9722,33.5139l0,10.0278L67.9861,43.5417zM70.9722,30.9306l6.43056,0c1.36111,0,2.43056,-0.152778,3.19444,-0.416667C81.375,30.2222,81.9583,29.7778,82.3611,29.1528s0.597222,-1.30556,0.597222,-2.02778c0,-1.05556,-0.388889,-1.94444,-1.15278,-2.625S79.7917,23.4583,78.125,23.4583L70.9722,23.4583L70.9722,30.9306z"/>
       <path fill="#808080" stroke-width="0" d="M89.8194,32.5417c0,-3.75,1,-6.68056,3.01389,-8.80556s4.61111,-3.18056,7.79167,-3.18056c2.08333,0,3.97222,0.486111,5.63889,1.48611c1.68056,0.986111,2.94444,2.38889,3.81944,4.16667C110.972,28,111.403,30.0278,111.403,32.2917c0,2.29167,-0.458333,4.34722,-1.38889,6.13889S107.792,41.6111,106.097,42.5417c-1.69444,0.916667,-3.52778,1.38889,-5.48611,1.38889c-2.125,0,-4.02778,-0.5,-5.69444,-1.52778S91.9722,39.9583,91.1111,38.1944C90.25,36.4167,89.8194,34.5278,89.8194,32.5417zM92.8889,32.5972c0,2.70833,0.736111,4.86111,2.19444,6.43056c1.45833,1.55556,3.29167,2.34722,5.5,2.34722c2.25,0,4.09722,-0.791667,5.55556,-2.375C107.611,37.4167,108.333,35.1806,108.333,32.2778c0,-1.84722,-0.305556,-3.44444,-0.930556,-4.81944c-0.625,-1.375,-1.52778,-2.44444,-2.72222,-3.18056C103.472,23.5139,102.139,23.1389,100.653,23.1389c-2.11111,0,-3.94444,0.736111,-5.47222,2.18056C93.6667,26.7639,92.8889,29.1944,92.8889,32.5972z"/>
       <path fill="#808080" stroke-width="0" d="M115.222,43.5417L115.222,20.9583l3.06944,0l11.8611,17.7222L130.153,20.9583l2.875,0l0,22.5833L129.958,43.5417L118.097,25.8056l0,17.7361L115.222,43.5417z"/>
      </g>
      <g enable-background="new    " stroke-width="0">
       <path fill="#808080" stroke-width="0" d="M27.6944,72.5556l0,-2.63889l9.56944,-0.0277778l0,8.38889C35.7917,79.4444,34.2778,80.3333,32.7083,80.9167C31.1528,81.5139,29.5417,81.7917,27.9028,81.7917c-2.22222,0,-4.23611,-0.472222,-6.05556,-1.43056C20.0417,79.4167,18.6806,78.0556,17.75,76.2639c-0.916667,-1.80556,-1.38889,-3.80556,-1.38889,-6.04167c0,-2.19444,0.458333,-4.25,1.375,-6.13889c0.916667,-1.91667,2.23611,-3.31944,3.97222,-4.25c1.72222,-0.916667,3.70833,-1.38889,5.95833,-1.38889c1.63889,0,3.11111,0.263889,4.43056,0.791667c1.31944,0.527778,2.34722,1.26389,3.11111,2.20833C35.9583,62.4028,36.5278,63.6389,36.9167,65.1528L34.2222,65.8889C33.875,64.7361,33.4583,63.8333,32.9583,63.1667C32.4583,62.5139,31.7361,61.9861,30.8056,61.5972S28.8333,61,27.6944,61c-1.36111,0,-2.55556,0.222222,-3.54167,0.625c-1,0.416667,-1.80556,0.958333,-2.41667,1.63889S20.6528,64.6944,20.3056,65.5C19.7361,66.9028,19.4444,68.4028,19.4444,70.0417c0,2.01389,0.347222,3.69444,1.04167,5.04167s1.70833,2.375,3.02778,3.02778C24.8472,78.7639,26.25,79.1111,27.7361,79.1111c1.29167,0,2.55556,-0.263889,3.79167,-0.75c1.22222,-0.5,2.16667,-1.02778,2.80556,-1.59722L34.3333,72.5556L27.6944,72.5556z"/>
       <path fill="#808080" stroke-width="0" d="M40.5278,75.5l2.90278,-0.25C43.6667,76.6667,44.1667,77.7361,44.9444,78.4444C45.7361,79.1667,46.6806,79.5139,47.7917,79.5139c1.33333,0,2.45833,-0.5,3.38889,-1.5c0.916667,-1,1.38889,-2.34722,1.38889,-4c0,-1.58333,-0.444444,-2.83333,-1.33333,-3.75C50.3472,69.3472,49.1806,68.8889,47.75,68.8889c-0.888889,0,-1.70833,0.208333,-2.41667,0.611111C44.5972,69.9028,44.0417,70.4306,43.6389,71.0833L41.0278,70.7361l2.18056,-11.5972L54.4444,59.1389l0,2.63889L45.4306,61.7778L44.2222,67.8611c1.36111,-0.944444,2.77778,-1.43056,4.26389,-1.43056c1.97222,0,3.63889,0.680556,4.98611,2.04167s2.02778,3.125,2.02778,5.27778c0,2.02778,-0.597222,3.79167,-1.79167,5.29167C52.2778,80.8889,50.2917,81.7917,47.7917,81.7917c-2.05556,0,-3.73611,-0.569444,-5.02778,-1.72222C41.4583,78.9167,40.7222,77.4028,40.5278,75.5z"/>
       <path fill="#808080" stroke-width="0" d="M65.6667,81.4167l-8.75,-22.5833L60.1389,58.8333l5.875,16.4167C66.4861,76.5556,66.875,77.7778,67.1944,78.9306c0.347222,-1.23611,0.75,-2.47222,1.20833,-3.69444l6.09722,-16.4167l3.04167,0L68.7222,81.4167L65.6667,81.4167z"/>
       <path fill="#808080" stroke-width="0" d="M77.0694,74.6389l0,-2.77778l8.51389,0l0,2.77778L77.0694,74.6389z"/>
       <path fill="#808080" stroke-width="0" d="M102.458,78.75l0,2.65278L87.5278,81.4028C87.5139,80.75,87.625,80.0972,87.8611,79.4861C88.2361,78.4722,88.8333,77.4722,89.6806,76.4861c0.833333,-0.986111,2.04167,-2.125,3.625,-3.43056c2.44444,-2.01389,4.11111,-3.59722,4.97222,-4.77778s1.29167,-2.29167,1.29167,-3.33333c0,-1.09722,-0.388889,-2.02778,-1.18056,-2.77778s-1.80556,-1.13889,-3.06944,-1.13889c-1.33333,0,-2.40278,0.402778,-3.19444,1.20833S90.9167,64.1528,90.9028,65.5556L88.0556,65.2778c0.194444,-2.125,0.930556,-3.75,2.20833,-4.875c1.27778,-1.11111,2.98611,-1.66667,5.125,-1.66667c2.16667,0,3.88889,0.611111,5.15278,1.80556C101.792,61.75,102.431,63.2361,102.431,65c0,0.902778,-0.180556,1.80556,-0.555556,2.66667C101.5,68.5417,100.889,69.4583,100.028,70.4306S97.75,72.7222,95.7639,74.4028c-1.66667,1.40278,-2.73611,2.34722,-3.20833,2.84722C92.0833,77.75,91.6944,78.2361,91.3889,78.75L102.458,78.75z"/>
      </g>
      <g enable-background="new    " stroke-width="0">
       <path fill="#808080" stroke-width="0" d="M17,249.667l0,-22.5833l8.47222,0c1.72222,0,3.11111,0.236111,4.15278,0.694444c1.04167,0.444444,1.86111,1.15278,2.44444,2.09722s0.888889,1.94444,0.888889,2.98611c0,0.958333,-0.263889,1.875,-0.791667,2.72222s-1.31944,1.54167,-2.375,2.05556c1.375,0.402778,2.41667,1.08333,3.15278,2.04167c0.736111,0.958333,1.09722,2.09722,1.09722,3.41667c0,1.05556,-0.222222,2.05556,-0.666667,2.94444c-0.444444,0.916667,-1,1.59722,-1.65278,2.11111c-0.652778,0.486111,-1.47222,0.875,-2.47222,1.11111c-1,0.25,-2.20833,0.375,-3.65278,0.375L17,249.639zM19.9861,236.569l4.88889,0c1.33333,0,2.27778,-0.0972222,2.86111,-0.277778c0.763889,-0.222222,1.33333,-0.597222,1.72222,-1.125c0.388889,-0.513889,0.583333,-1.18056,0.583333,-1.97222c0,-0.75,-0.180556,-1.41667,-0.541667,-1.98611s-0.875,-0.958333,-1.54167,-1.16667c-0.666667,-0.222222,-1.80556,-0.305556,-3.43056,-0.305556L19.9861,229.736L19.9861,236.569zM19.9861,247l5.625,0c0.972222,0,1.65278,-0.0555556,2.02778,-0.111111c0.694444,-0.138889,1.26389,-0.347222,1.73611,-0.625c0.458333,-0.291667,0.847222,-0.708333,1.13889,-1.25c0.291667,-0.569444,0.444444,-1.19444,0.444444,-1.91667c0,-0.847222,-0.222222,-1.56944,-0.652778,-2.19444c-0.430556,-0.611111,-1.02778,-1.04167,-1.79167,-1.30556c-0.763889,-0.263889,-1.875,-0.375,-3.30556,-0.375L19.9861,239.222L19.9861,247z"/>
       <path fill="#808080" stroke-width="0" d="M36.7778,241.472c0,-3.02778,0.847222,-5.27778,2.52778,-6.72222c1.40278,-1.22222,3.125,-1.81944,5.15278,-1.81944c2.25,0,4.08333,0.736111,5.51389,2.20833c1.43056,1.45833,2.13889,3.5,2.13889,6.09722c0,2.09722,-0.305556,3.75,-0.944444,4.97222c-0.625,1.19444,-1.55556,2.13889,-2.76389,2.79167c-1.20833,0.680556,-2.52778,1,-3.94444,1c-2.29167,0,-4.13889,-0.736111,-5.55556,-2.19444S36.7778,244.236,36.7778,241.472zM39.6389,241.472c0,2.08333,0.458333,3.65278,1.375,4.70833c0.916667,1.02778,2.05556,1.54167,3.45833,1.54167c1.375,0,2.51389,-0.513889,3.43056,-1.56944c0.916667,-1.02778,1.375,-2.63889,1.375,-4.77778c0,-2.02778,-0.458333,-3.55556,-1.375,-4.59722s-2.05556,-1.55556,-3.43056,-1.55556c-1.38889,0,-2.54167,0.513889,-3.45833,1.55556C40.0833,237.819,39.6389,239.375,39.6389,241.472z"/>
       <path fill="#808080" stroke-width="0" d="M61.4028,247.167l0.402778,2.47222c-0.777778,0.166667,-1.47222,0.25,-2.09722,0.25c-1,0,-1.77778,-0.166667,-2.33333,-0.486111s-0.944444,-0.736111,-1.16667,-1.25c-0.236111,-0.513889,-0.333333,-1.625,-0.333333,-3.27778l0,-9.40278L53.8333,235.472l0,-2.15278l2.02778,0l0,-4.05556l2.75,-1.65278l0,5.70833l2.79167,0l0,2.15278L58.625,235.472l0,9.56944c0,0.791667,0.0416667,1.30556,0.152778,1.51389c0.0972222,0.222222,0.263889,0.402778,0.472222,0.541667c0.222222,0.138889,0.541667,0.194444,0.944444,0.194444C60.5,247.278,60.9028,247.25,61.4028,247.167z"/>
       <path fill="#808080" stroke-width="0" d="M70.1667,247.167l0.402778,2.47222c-0.777778,0.166667,-1.47222,0.25,-2.09722,0.25c-1,0,-1.77778,-0.166667,-2.33333,-0.486111s-0.944444,-0.736111,-1.16667,-1.25c-0.236111,-0.513889,-0.333333,-1.625,-0.333333,-3.27778l0,-9.40278L62.5972,235.472l0,-2.15278l2.02778,0l0,-4.05556l2.75,-1.65278l0,5.70833l2.79167,0l0,2.15278L67.3889,235.472l0,9.56944c0,0.791667,0.0416667,1.30556,0.152778,1.51389c0.0972222,0.222222,0.263889,0.402778,0.472222,0.541667c0.222222,0.138889,0.541667,0.194444,0.944444,0.194444C69.2639,247.278,69.6667,247.25,70.1667,247.167z"/>
       <path fill="#808080" stroke-width="0" d="M71.8472,241.472c0,-3.02778,0.847222,-5.27778,2.52778,-6.72222c1.40278,-1.22222,3.125,-1.81944,5.15278,-1.81944c2.25,0,4.08333,0.736111,5.51389,2.20833c1.43056,1.45833,2.13889,3.5,2.13889,6.09722c0,2.09722,-0.305556,3.75,-0.944444,4.97222c-0.625,1.19444,-1.55556,2.13889,-2.76389,2.79167c-1.20833,0.680556,-2.52778,1,-3.94444,1c-2.29167,0,-4.13889,-0.736111,-5.55556,-2.19444S71.8472,244.236,71.8472,241.472zM74.7083,241.472c0,2.08333,0.458333,3.65278,1.375,4.70833c0.916667,1.02778,2.05556,1.54167,3.45833,1.54167c1.375,0,2.51389,-0.513889,3.43056,-1.56944c0.916667,-1.02778,1.375,-2.63889,1.375,-4.77778c0,-2.02778,-0.458333,-3.55556,-1.375,-4.59722s-2.05556,-1.55556,-3.43056,-1.55556c-1.38889,0,-2.54167,0.513889,-3.45833,1.55556C75.1667,237.819,74.7083,239.375,74.7083,241.472z"/>
       <path fill="#808080" stroke-width="0" d="M90.4306,249.667l0,-16.3611l2.47222,0l0,2.29167c0.513889,-0.805556,1.19444,-1.44444,2.04167,-1.93056c0.861111,-0.486111,1.81944,-0.736111,2.91667,-0.736111c1.20833,0,2.20833,0.25,2.97222,0.75c0.777778,0.5,1.31944,1.20833,1.63889,2.11111c1.29167,-1.91667,2.97222,-2.86111,5.05556,-2.86111c1.625,0,2.875,0.444444,3.75,1.34722s1.30556,2.27778,1.30556,4.15278l0,11.2361L109.847,249.667l0,-10.3194c0,-1.11111,-0.0972222,-1.90278,-0.277778,-2.38889c-0.180556,-0.486111,-0.513889,-0.875,-0.972222,-1.18056c-0.472222,-0.291667,-1.02778,-0.444444,-1.66667,-0.444444c-1.15278,0,-2.09722,0.375,-2.86111,1.13889c-0.763889,0.777778,-1.13889,2,-1.13889,3.68056l0,9.51389l-2.77778,0l0,-10.6389c0,-1.22222,-0.222222,-2.15278,-0.680556,-2.76389s-1.19444,-0.916667,-2.22222,-0.916667c-0.777778,0,-1.5,0.208333,-2.16667,0.611111c-0.666667,0.416667,-1.15278,1.01389,-1.44444,1.80556S93.1944,239.667,93.1944,241.167l0,8.5L90.4306,249.667z"/>
       <path fill="#808080" stroke-width="0" d="M132.278,249.667l-8.75,-22.5833l3.23611,0l5.875,16.4167c0.472222,1.31944,0.875,2.54167,1.18056,3.68056c0.347222,-1.22222,0.75,-2.47222,1.20833,-3.68056l6.09722,-16.4167l3.04167,0l-8.83333,22.5833L132.278,249.667z"/>
       <path fill="#808080" stroke-width="0" d="M145.958,230.264l0,-3.18056l2.77778,0l0,3.18056L145.958,230.264zM145.958,249.667l0,-16.3611l2.77778,0l0,16.3611L145.958,249.667z"/>
       <path fill="#808080" stroke-width="0" d="M164.153,244.389l2.86111,0.361111c-0.444444,1.65278,-1.29167,2.95833,-2.51389,3.875s-2.77778,1.38889,-4.68056,1.38889c-2.38889,0,-4.29167,-0.736111,-5.69444,-2.19444c-1.40278,-1.45833,-2.09722,-3.54167,-2.09722,-6.20833c0,-2.75,0.708333,-4.88889,2.125,-6.40278s3.25,-2.27778,5.51389,-2.27778c2.19444,0,3.97222,0.75,5.36111,2.22222c1.38889,1.48611,2.08333,3.59722,2.08333,6.29167c0,0.166667,0,0.402778,-0.0138889,0.736111l-12.1944,0c0.0972222,1.80556,0.611111,3.16667,1.52778,4.13889c0.902778,0.944444,2.05556,1.41667,3.41667,1.41667c1.01389,0,1.88889,-0.277778,2.61111,-0.791667C163.167,246.403,163.736,245.569,164.153,244.389zM155.056,239.903l9.125,0c-0.125,-1.375,-0.472222,-2.40278,-1.04167,-3.09722c-0.875,-1.06944,-2.02778,-1.59722,-3.43056,-1.59722c-1.27778,0,-2.34722,0.416667,-3.20833,1.27778S155.139,238.472,155.056,239.903z"/>
       <path fill="#808080" stroke-width="0" d="M173.514,249.667l-5,-16.3611l2.86111,0l2.61111,9.44444l0.972222,3.5c0.0416667,-0.166667,0.319444,-1.30556,0.847222,-3.375l2.61111,-9.56944l2.84722,0l2.44444,9.48611l0.819444,3.13889l0.930556,-3.16667l2.80556,-9.45833l2.69444,0l-5.11111,16.3611l-2.88889,0l-2.61111,-9.80556l-0.625,-2.79167l-3.30556,12.5972L173.514,249.667z"/>
      </g>
      <g enable-background="new    " stroke-width="0">
       <path fill="#808080" stroke-width="0" d="M16.3333,276.333l0,-15.9167l3.16667,0l3.76389,11.2917c0.347222,1.02778,0.597222,1.81944,0.763889,2.33333c0.180556,-0.569444,0.458333,-1.41667,0.847222,-2.55556l3.80556,-11.0694L31.5278,260.417l0,15.9167L29.4861,276.333l0,-13.3194l-4.625,13.3194L22.9722,276.333l-4.61111,-13.5417l0,13.5417L16.3333,276.333z"/>
       <path fill="#808080" stroke-width="0" d="M33.1667,276.333l6.11111,-15.9167l2.26389,0l6.51389,15.9167L45.6667,276.333l-1.86111,-4.83333L37.1528,271.5l-1.73611,4.83333L33.1667,276.333zM37.7639,269.792l5.38889,0l-1.66667,-4.38889c-0.5,-1.36111,-0.875,-2.44444,-1.125,-3.30556c-0.208333,1.02778,-0.486111,2.02778,-0.861111,3.04167L37.7639,269.792z"/>
       <path fill="#808080" stroke-width="0" d="M49.7361,276.333l0,-15.9167l5.48611,0c1.23611,0,2.18056,0.0833333,2.83333,0.25c0.916667,0.194444,1.69444,0.569444,2.33333,1.13889c0.847222,0.708333,1.47222,1.59722,1.88889,2.70833s0.625,2.36111,0.625,3.76389c0,1.22222,-0.138889,2.27778,-0.416667,3.22222c-0.291667,0.916667,-0.638889,1.70833,-1.08333,2.30556c-0.444444,0.625,-0.930556,1.08333,-1.44444,1.44444s-1.15278,0.625,-1.90278,0.819444c-0.736111,0.166667,-1.59722,0.277778,-2.55556,0.277778L49.7361,276.347zM51.8333,274.458l3.40278,0c1.05556,0,1.875,-0.111111,2.47222,-0.291667s1.06944,-0.486111,1.43056,-0.847222c0.5,-0.486111,0.888889,-1.16667,1.16667,-2.01389s0.416667,-1.875,0.416667,-3.06944c0,-1.65278,-0.277778,-2.93056,-0.819444,-3.81944c-0.541667,-0.888889,-1.20833,-1.48611,-1.98611,-1.79167c-0.569444,-0.222222,-1.47222,-0.319444,-2.72222,-0.319444L51.8333,262.306L51.8333,274.458z"/>
       <path fill="#808080" stroke-width="0" d="M65.8333,276.333l0,-15.9167l11.5,0l0,1.90278L67.9444,262.319l0,4.86111l8.79167,0l0,1.875L67.9444,269.056l0,5.43056l9.76389,0l0,1.875L65.8333,276.361z"/>
       <path fill="#808080" stroke-width="0" d="M87.1389,276.333l0,-15.9167l2.09722,0l0,15.9167L87.1389,276.333z"/>
       <path fill="#808080" stroke-width="0" d="M92.9306,276.333l0,-15.9167l2.15278,0l8.36111,12.5l0,-12.5l2.02778,0l0,15.9167L103.306,276.333l-8.36111,-12.5l0,12.5L92.9306,276.333z"/>
       <path fill="#808080" stroke-width="0" d="M126.528,270.736l2.11111,0.541667c-0.444444,1.70833,-1.23611,3.04167,-2.375,3.95833c-1.15278,0.888889,-2.55556,1.36111,-4.20833,1.36111c-1.72222,0,-3.11111,-0.347222,-4.18056,-1.05556C116.792,274.833,115.972,273.833,115.417,272.5c-0.555556,-1.30556,-0.847222,-2.73611,-0.847222,-4.26389c0,-1.65278,0.319444,-3.09722,0.944444,-4.34722c0.638889,-1.22222,1.52778,-2.16667,2.70833,-2.79167c1.16667,-0.652778,2.44444,-0.972222,3.84722,-0.972222c1.59722,0,2.93056,0.402778,4.01389,1.22222s1.84722,1.95833,2.27778,3.41667l-2.06944,0.486111c-0.361111,-1.16667,-0.902778,-2.01389,-1.61111,-2.52778c-0.694444,-0.541667,-1.58333,-0.791667,-2.63889,-0.791667c-1.22222,0,-2.25,0.291667,-3.06944,0.875c-0.819444,0.597222,-1.40278,1.38889,-1.73611,2.36111c-0.333333,1,-0.5,2.01389,-0.5,3.06944c0,1.36111,0.194444,2.52778,0.583333,3.52778c0.402778,1.02778,1.01389,1.76389,1.84722,2.27778c0.833333,0.486111,1.73611,0.736111,2.69444,0.736111c1.18056,0,2.18056,-0.319444,3,-1C125.681,273.097,126.236,272.069,126.528,270.736z"/>
       <path fill="#808080" stroke-width="0" d="M131.292,276.333l0,-15.9167l2.11111,0l0,6.54167L141.667,266.958l0,-6.54167l2.09722,0l0,15.9167L141.667,276.333l0,-7.51389L133.389,268.819l0,7.51389L131.292,276.333z"/>
       <path fill="#808080" stroke-width="0" d="M147.639,276.333l0,-15.9167l2.09722,0l0,15.9167L147.639,276.333z"/>
       <path fill="#808080" stroke-width="0" d="M153.431,276.333l0,-15.9167l2.15278,0l8.36111,12.5l0,-12.5l2.02778,0l0,15.9167l-2.16667,0l-8.36111,-12.5l0,12.5L153.431,276.333z"/>
       <path fill="#808080" stroke-width="0" d="M167.75,276.333l6.11111,-15.9167l2.26389,0l6.51389,15.9167l-2.38889,0l-1.86111,-4.83333l-6.65278,0l-1.73611,4.83333L167.75,276.333zM172.333,269.792l5.38889,0l-1.66667,-4.38889c-0.5,-1.36111,-0.875,-2.44444,-1.125,-3.30556c-0.208333,1.02778,-0.486111,2.02778,-0.861111,3.04167L172.333,269.792z"/>
      </g>
     </g>
     <path opacity="0.2" fill="#FFFFFF" enable-background="new    " stroke-width="0" d="M0,8.70833C0,3.93056,3.93056,0,8.70833,0l490.583,0c4.79167,0,8.70833,3.93056,8.70833,8.70833l0,4.36111c0,-4.79167,-3.91667,-8.70833,-8.70833,-8.70833L8.70833,4.36111C3.93056,4.36111,0,8.27778,0,13.0694L0,8.70833z"/>
     <path opacity="0.75" enable-background="new    " stroke-width="0" d="M508,299.639c0,4.80556,-3.91667,8.72222,-8.70833,8.72222L8.70833,308.361C3.93056,308.361,0,304.444,0,299.639l0,-4.34722c0,4.80556,3.93056,8.73611,8.70833,8.73611l490.583,0c4.79167,0,8.70833,-3.93056,8.70833,-8.73611L508,299.639L508,299.639z"/>
     <path opacity="0.75" enable-background="new    " stroke-width="0" d="M508,459.861c0,4.80556,-3.91667,8.70833,-8.70833,8.70833L8.70833,468.569C3.93056,468.569,0,464.667,0,459.861l0,-4.34722c0,4.81944,3.93056,8.72222,8.70833,8.72222l490.583,0c4.79167,0,8.70833,-3.90278,8.70833,-8.72222L508,459.861L508,459.861z"/>
    </g>
    <text x="0" y="0" fill="#808080" font-family="'ArialMT'" stroke-width="0" transform="matrix(1, 0, 0, 1, 53.9958, 210.904)" font-size="31.5472">12VDC</text>
    <g enable-background="new    " stroke-width="0">
     <path fill="#808080" stroke-width="0" d="M318.403,65.0694l-2.77778,0L315.625,47.4028c-0.666667,0.638889,-1.52778,1.27778,-2.61111,1.91667s-2.05556,1.11111,-2.93056,1.44444L310.083,48.0556c1.54167,-0.736111,2.90278,-1.61111,4.06944,-2.63889c1.16667,-1.04167,1.98611,-2.04167,2.47222,-3.02778l1.79167,0L318.417,65.0694z"/>
    </g>
    <g enable-background="new    " stroke-width="0">
     <path fill="#808080" stroke-width="0" d="M362.972,65.0694l0,-5.41667l-9.79167,0L353.181,57.125l10.3056,-14.6389l2.25,0l0,14.6389l3.05556,0l0,2.54167l-3.05556,0l0,5.41667L362.972,65.0833zM362.972,57.125L362.972,46.9306l-7.08333,10.1806L362.972,57.1111z"/>
    </g>
    <g enable-background="new    " stroke-width="0">
     <path fill="#808080" stroke-width="0" d="M419.722,48.0278l-2.76389,0.222222c-0.25,-1.09722,-0.597222,-1.88889,-1.04167,-2.375c-0.75,-0.805556,-1.66667,-1.19444,-2.77778,-1.19444c-0.875,0,-1.65278,0.263889,-2.31944,0.75c-0.875,0.638889,-1.55556,1.55556,-2.06944,2.77778c-0.486111,1.23611,-0.763889,2.97222,-0.791667,5.22222c0.680556,-1.01389,1.48611,-1.76389,2.47222,-2.26389c0.944444,-0.486111,1.97222,-0.736111,3.02778,-0.736111c1.86111,0,3.43056,0.680556,4.72222,2.02778c1.30556,1.375,1.95833,3.125,1.95833,5.27778c0,1.43056,-0.305556,2.73611,-0.916667,3.95833c-0.611111,1.20833,-1.44444,2.13889,-2.51389,2.79167c-1.06944,0.652778,-2.27778,0.958333,-3.63889,0.958333c-2.31944,0,-4.20833,-0.847222,-5.66667,-2.55556c-1.44444,-1.69444,-2.16667,-4.48611,-2.16667,-8.38889c0,-4.36111,0.805556,-7.54167,2.41667,-9.52778c1.41667,-1.72222,3.29167,-2.59722,5.68056,-2.59722c1.77778,0,3.22222,0.5,4.36111,1.48611C418.792,44.8889,419.472,46.2639,419.722,48.0278zM408.375,57.7639c0,0.944444,0.222222,1.86111,0.625,2.73611c0.402778,0.875,0.958333,1.52778,1.69444,2c0.722222,0.444444,1.48611,0.680556,2.29167,0.680556c1.16667,0,2.16667,-0.472222,3.01389,-1.41667c0.861111,-0.944444,1.27778,-2.22222,1.27778,-3.84722c0,-1.55556,-0.416667,-2.79167,-1.25,-3.69444c-0.847222,-0.888889,-1.875,-1.34722,-3.15278,-1.34722c-1.25,0,-2.30556,0.444444,-3.18056,1.34722S408.375,56.2917,408.375,57.7639z"/>
    </g>
    <g enable-background="new    " stroke-width="0">
     <path fill="#808080" stroke-width="0" d="M459.292,52.8194c-1.13889,-0.416667,-2.01389,-1.01389,-2.55556,-1.80556c-0.569444,-0.777778,-0.847222,-1.70833,-0.847222,-2.79167c0,-1.65278,0.597222,-3.02778,1.77778,-4.15278c1.18056,-1.11111,2.75,-1.68056,4.70833,-1.68056c1.98611,0,3.55556,0.569444,4.77778,1.72222c1.19444,1.13889,1.79167,2.54167,1.79167,4.18056c0,1.04167,-0.277778,1.97222,-0.819444,2.73611c-0.555556,0.777778,-1.38889,1.375,-2.51389,1.79167c1.38889,0.444444,2.44444,1.18056,3.16667,2.18056c0.736111,1.01389,1.08333,2.20833,1.08333,3.61111c0,1.93056,-0.680556,3.55556,-2.02778,4.875c-1.38889,1.31944,-3.18056,1.97222,-5.40278,1.97222s-4.02778,-0.652778,-5.40278,-1.98611c-1.36111,-1.31944,-2.02778,-2.95833,-2.02778,-4.93056c0,-1.45833,0.347222,-2.68056,1.11111,-3.69444C456.861,53.8472,457.917,53.1944,459.292,52.8194zM457.861,58.5556c0,0.791667,0.180556,1.54167,0.555556,2.29167c0.361111,0.736111,0.930556,1.31944,1.66667,1.70833c0.736111,0.402778,1.52778,0.611111,2.38889,0.611111c1.33333,0,2.41667,-0.416667,3.27778,-1.27778s1.30556,-1.94444,1.30556,-3.25c0,-1.33333,-0.458333,-2.43056,-1.34722,-3.30556c-0.875,-0.875,-2,-1.30556,-3.31944,-1.30556c-1.31944,0,-2.38889,0.430556,-3.25,1.29167C458.278,56.1806,457.861,57.2639,457.861,58.5556zM458.736,48.125c0,1.05556,0.333333,1.94444,1.04167,2.61111c0.680556,0.680556,1.56944,1.01389,2.66667,1.01389c1.06944,0,1.94444,-0.333333,2.61111,-1.01389c0.694444,-0.666667,1.02778,-1.48611,1.02778,-2.47222c0,-1.01389,-0.347222,-1.875,-1.05556,-2.56944s-1.56944,-1.04167,-2.625,-1.04167s-1.93056,0.333333,-2.625,1.01389C459.097,46.3611,458.736,47.1806,458.736,48.125z"/>
    </g>
    <g enable-background="new    " stroke-width="0">
     <path fill="#808080" stroke-width="0" d="M304.861,260.111l-2.77778,0l0,-17.6806c-0.666667,0.638889,-1.52778,1.27778,-2.61111,1.91667c-1.08333,0.625,-2.05556,1.125,-2.93056,1.44444l0,-2.69444c1.54167,-0.736111,2.90278,-1.61111,4.06944,-2.63889c1.16667,-1.04167,1.98611,-2.04167,2.47222,-3.02778l1.79167,0L304.875,260.111z"/>
     <path fill="#808080" stroke-width="0" d="M326.347,243.056l-2.76389,0.222222c-0.25,-1.09722,-0.597222,-1.88889,-1.02778,-2.375c-0.763889,-0.805556,-1.68056,-1.19444,-2.77778,-1.19444c-0.875,0,-1.66667,0.263889,-2.31944,0.75c-0.875,0.638889,-1.56944,1.55556,-2.06944,2.77778c-0.5,1.23611,-0.777778,2.95833,-0.791667,5.20833c0.666667,-1,1.47222,-1.76389,2.45833,-2.25c0.958333,-0.486111,1.98611,-0.736111,3.04167,-0.736111c1.84722,0,3.41667,0.680556,4.72222,2.02778s1.95833,3.125,1.95833,5.26389c0,1.44444,-0.305556,2.73611,-0.916667,3.95833c-0.625,1.22222,-1.44444,2.13889,-2.52778,2.79167c-1.05556,0.652778,-2.27778,0.972222,-3.63889,0.972222c-2.30556,0,-4.20833,-0.847222,-5.65278,-2.55556s-2.18056,-4.5,-2.18056,-8.40278c0,-4.36111,0.819444,-7.52778,2.41667,-9.51389c1.41667,-1.72222,3.30556,-2.59722,5.69444,-2.59722c1.76389,0,3.22222,0.5,4.36111,1.48611C325.444,239.917,326.111,241.292,326.347,243.056zM315.028,252.778c0,0.944444,0.208333,1.875,0.611111,2.73611s0.972222,1.54167,1.70833,2.01389c0.722222,0.430556,1.48611,0.680556,2.27778,0.680556c1.18056,0,2.18056,-0.486111,3.02778,-1.41667c0.861111,-0.944444,1.26389,-2.22222,1.26389,-3.84722c0,-1.56944,-0.402778,-2.79167,-1.25,-3.69444c-0.833333,-0.888889,-1.875,-1.36111,-3.15278,-1.36111c-1.25,0,-2.30556,0.458333,-3.18056,1.36111C315.458,250.153,315.028,251.319,315.028,252.778z"/>
    </g>
    <g enable-background="new    " stroke-width="0">
     <path fill="#808080" stroke-width="0" d="M348.889,259.556l-2.76389,0l0,-17.6806c-0.666667,0.638889,-1.54167,1.27778,-2.625,1.91667s-2.04167,1.125,-2.90278,1.44444l0,-2.69444c1.54167,-0.736111,2.90278,-1.61111,4.05556,-2.63889c1.15278,-1.04167,1.98611,-2.04167,2.47222,-3.02778l1.77778,0L348.903,259.556z"/>
     <path fill="#808080" stroke-width="0" d="M356.014,253.597l2.77778,-0.375c0.305556,1.56944,0.861111,2.70833,1.625,3.41667c0.763889,0.680556,1.68056,1.02778,2.79167,1.02778c1.30556,0,2.40278,-0.458333,3.29167,-1.36111c0.902778,-0.888889,1.34722,-2.02778,1.34722,-3.36111c0,-1.27778,-0.402778,-2.33333,-1.25,-3.15278c-0.833333,-0.819444,-1.88889,-1.25,-3.18056,-1.25c-0.513889,0,-1.16667,0.111111,-1.95833,0.319444l0.305556,-2.44444c0.180556,0.0277778,0.333333,0.0277778,0.444444,0.0277778c1.18056,0,2.25,-0.291667,3.18056,-0.916667s1.43056,-1.56944,1.43056,-2.86111c0,-1.01389,-0.347222,-1.86111,-1.02778,-2.52778c-0.708333,-0.666667,-1.58333,-1,-2.66667,-1c-1.06944,0,-1.98611,0.333333,-2.69444,1.01389s-1.18056,1.69444,-1.38889,3.05556l-2.76389,-0.486111c0.319444,-1.86111,1.11111,-3.29167,2.30556,-4.33333c1.19444,-1.01389,2.68056,-1.52778,4.47222,-1.52778c1.25,0,2.375,0.277778,3.41667,0.805556c1.02778,0.527778,1.81944,1.25,2.375,2.15278c0.555556,0.916667,0.833333,1.88889,0.833333,2.91667c0,0.972222,-0.277778,1.86111,-0.791667,2.65278c-0.527778,0.819444,-1.30556,1.44444,-2.33333,1.93056c1.33333,0.291667,2.375,0.944444,3.125,1.93056c0.736111,0.944444,1.11111,2.16667,1.11111,3.63889c0,1.98611,-0.736111,3.63889,-2.16667,5.01389c-1.44444,1.36111,-3.25,2.05556,-5.45833,2.05556c-1.98611,0,-3.625,-0.597222,-4.93056,-1.79167C356.944,257.014,356.194,255.472,356.014,253.597z"/>
    </g>
    <g enable-background="new    " stroke-width="0">
     <path fill="#808080" stroke-width="0" d="M406.542,259.514l-2.76389,0l0,-17.6667c-0.666667,0.638889,-1.54167,1.27778,-2.625,1.91667s-2.04167,1.11111,-2.90278,1.43056L398.25,242.5c1.54167,-0.736111,2.90278,-1.61111,4.05556,-2.63889c1.15278,-1.04167,1.98611,-2.04167,2.47222,-3.02778l1.77778,0L406.556,259.514z"/>
     <path fill="#808080" stroke-width="0" d="M421.75,259.514l-2.77778,0l0,-17.6667c-0.666667,0.638889,-1.52778,1.27778,-2.61111,1.91667s-2.05556,1.11111,-2.93056,1.43056L413.431,242.5c1.54167,-0.736111,2.90278,-1.61111,4.06944,-2.63889c1.16667,-1.04167,1.98611,-2.04167,2.47222,-3.02778l1.79167,0L421.764,259.514z"/>
    </g>
    <g enable-background="new    " stroke-width="0">
     <path fill="#808080" stroke-width="0" d="M455.444,254.306l2.65278,-0.25c0.25,1.25,0.666667,2.13889,1.30556,2.70833s1.44444,0.847222,2.44444,0.847222c0.875,0,1.59722,-0.194444,2.25,-0.569444c0.638889,-0.402778,1.16667,-0.916667,1.56944,-1.56944s0.763889,-1.51389,1.02778,-2.625c0.291667,-1.11111,0.416667,-2.25,0.416667,-3.38889c0,-0.138889,-0.0138889,-0.291667,-0.0138889,-0.569444c-0.555556,0.888889,-1.31944,1.59722,-2.27778,2.16667c-0.944444,0.541667,-2,0.819444,-3.125,0.819444c-1.875,0,-3.44444,-0.680556,-4.75,-2.02778c-1.29167,-1.36111,-1.93056,-3.15278,-1.93056,-5.36111c0,-2.27778,0.680556,-4.125,2.02778,-5.51389s3.04167,-2.09722,5.06944,-2.09722c1.47222,0,2.80556,0.388889,4.02778,1.19444c1.22222,0.791667,2.13889,1.91667,2.76389,3.375c0.638889,1.45833,0.944444,3.58333,0.944444,6.36111c0,2.875,-0.305556,5.18056,-0.930556,6.88889s-1.55556,3.01389,-2.79167,3.90278s-2.68056,1.33333,-4.34722,1.33333c-1.76389,0,-3.19444,-0.486111,-4.33333,-1.45833S455.681,256.069,455.444,254.306zM466.792,244.319c0,-1.58333,-0.416667,-2.84722,-1.26389,-3.77778c-0.861111,-0.930556,-1.875,-1.41667,-3.06944,-1.41667c-1.23611,0,-2.30556,0.513889,-3.22222,1.51389c-0.888889,1,-1.36111,2.30556,-1.36111,3.91667c0,1.44444,0.430556,2.61111,1.30556,3.5s1.93056,1.36111,3.19444,1.36111c1.29167,0,2.34722,-0.458333,3.18056,-1.36111C466.375,247.167,466.792,245.917,466.792,244.319z"/>
    </g>
    <g stroke-width="0">
     <rect width="31.9583" x="299.389" y="146.986" fill="none" height="14.375" stroke="#808080" stroke-width="3.47222" stroke-miterlimit="10"/>
     <g stroke-width="0">
      <line fill="none" stroke="#808080" y1="81.5833" stroke-width="3.47222" x1="315.347" y2="146.986" x2="315.347" stroke-miterlimit="10"/>
      <line fill="none" stroke="#808080" y1="81.5833" stroke-width="3.47222" x1="306.639" y2="81.5833" x2="324.069" stroke-miterlimit="10"/>
     </g>
     <g stroke-width="0">
      <g stroke-width="0">
       <polyline fill="none" points="378.736,81.5833,378.736,25.5278,434.958,25.5278,434.958,81.5833,422.319,135.208,412.736,135.208,412.736,81.5833" stroke="#808080" stroke-width="3.47222" stroke-miterlimit="10"/>
       <line fill="none" stroke="#808080" y1="81.5833" stroke-width="3.47222" x1="387.444" y2="81.5833" x2="370.028" stroke-miterlimit="10"/>
      </g>
      <line fill="none" stroke="#808080" y1="81.5833" stroke-width="3.47222" x1="404.014" y2="81.5833" x2="421.458" stroke-miterlimit="10"/>
     </g>
     <g stroke-width="0">
      <line fill="none" stroke="#808080" y1="81.5833" stroke-width="3.47222" x1="453.722" y2="81.5833" x2="471.167" stroke-miterlimit="10"/>
      <g stroke-width="0">
       <g stroke-width="0">
        <polyline fill="none" points="462.444,81.5833,462.444,135.208,446.75,135.208" stroke="#808080" stroke-width="3.47222" stroke-miterlimit="10"/>
        <g stroke-width="0">
         <polygon fill="#808080" points="447.708,131.944,442.014,135.236,447.708,138.528" stroke-width="0"/>
        </g>
       </g>
      </g>
     </g>
     <g stroke-width="0">
      <line fill="none" stroke="#808080" y1="226.778" stroke-width="3.47222" x1="315.347" y2="161.375" x2="315.347" stroke-miterlimit="10"/>
      <line fill="none" stroke="#808080" y1="226.778" stroke-width="3.47222" x1="306.639" y2="226.778" x2="324.069" stroke-miterlimit="10"/>
     </g>
     <g stroke-width="0">
      <g stroke-width="0">
       <polyline fill="none" points="378.736,226.778,378.736,282.833,434.958,282.833,434.958,226.778,422.319,173.153,412.736,173.153,412.736,226.778" stroke="#808080" stroke-width="3.47222" stroke-miterlimit="10"/>
       <line fill="none" stroke="#808080" y1="226.778" stroke-width="3.47222" x1="387.444" y2="226.778" x2="370.028" stroke-miterlimit="10"/>
      </g>
      <line fill="none" stroke="#808080" y1="226.778" stroke-width="3.47222" x1="404.014" y2="226.778" x2="421.458" stroke-miterlimit="10"/>
     </g>
     <g stroke-width="0">
      <line fill="none" stroke="#808080" y1="226.778" stroke-width="3.47222" x1="453.722" y2="226.778" x2="471.167" stroke-miterlimit="10"/>
      <g stroke-width="0">
       <g stroke-width="0">
        <polyline fill="none" points="462.444,226.778,462.444,173.153,446.75,173.153" stroke="#808080" stroke-width="3.47222" stroke-miterlimit="10"/>
        <g stroke-width="0">
         <polygon fill="#808080" points="447.708,169.875,442.014,173.167,447.708,176.458" stroke-width="0"/>
        </g>
       </g>
      </g>
     </g>
    </g>
    <rect width="54" x="0" y="134.75" fill="#1A1A1A" height="38.8611" stroke-width="0"/>
    <rect width="54" x="0" y="134.75" height="3.625" stroke-width="0"/>
   </g>
  </g>
  <g transform="translate(238.035,734.05)">
   <rect width="31.93" x="0" y="0" fill="#8D8C8C" height="31.9" id="connector0pin" stroke-width="0"/>
   <rect width="16.4442" x="7.79153" y="7.73544" fill="#8C8663" height="16.4152" stroke-width="0"/>
   <polygon fill="#B8AF82" points="0,31.9,7.79153,24.1368,7.79153,6.97162,0,0" stroke-width="0"/>
   <polygon fill="#80795B" points="24.2079,7.76321,7.90264,7.76321,0,0,31.93,0" stroke-width="0"/>
   <polygon fill="#5E5B43" points="24.2079,24.1368,24.2079,7.76321,31.93,0,31.93,31.9" stroke-width="0"/>
   <polygon fill="#9A916C" points="0,31.9,7.87486,24.1368,24.2079,24.1368,31.93,31.9" stroke-width="0"/>
  </g>
  <g transform="translate(238.035,34.05)">
   <rect width="31.93" x="0" y="0" fill="#8D8C8C" height="31.9" id="connector5pin" stroke-width="0"/>
   <rect width="16.4442" x="7.79153" y="7.73544" fill="#8C8663" height="16.4152" stroke-width="0"/>
   <polygon fill="#B8AF82" points="0,31.9,7.79153,24.1368,7.79153,6.97162,0,0" stroke-width="0"/>
   <polygon fill="#80795B" points="24.2079,7.76321,7.90264,7.76321,0,0,31.93,0" stroke-width="0"/>
   <polygon fill="#5E5B43" points="24.2079,24.1368,24.2079,7.76321,31.93,0,31.93,31.9" stroke-width="0"/>
   <polygon fill="#9A916C" points="0,31.9,7.87486,24.1368,24.2079,24.1368,31.93,31.9" stroke-width="0"/>
  </g>
  <g transform="translate(338.035,734.05)">
   <rect width="31.93" x="0" y="0" fill="#8D8C8C" height="31.9" id="connector1pin" stroke-width="0"/>
   <rect width="16.4442" x="7.79153" y="7.73544" fill="#8C8663" height="16.4152" stroke-width="0"/>
   <polygon fill="#B8AF82" points="0,31.9,7.79153,24.1368,7.79153,6.97162,0,0" stroke-width="0"/>
   <polygon fill="#80795B" points="24.2079,7.76321,7.90264,7.76321,0,0,31.93,0" stroke-width="0"/>
   <polygon fill="#5E5B43" points="24.2079,24.1368,24.2079,7.76321,31.93,0,31.93,31.9" stroke-width="0"/>
   <polygon fill="#9A916C" points="0,31.9,7.87486,24.1368,24.2079,24.1368,31.93,31.9" stroke-width="0"/>
  </g>
  <g transform="translate(338.035,34.05)">
   <rect width="31.93" x="0" y="0" fill="#8D8C8C" height="31.9" id="connector4pin" stroke-width="0"/>
   <rect width="16.4442" x="7.79153" y="7.73544" fill="#8C8663" height="16.4152" stroke-width="0"/>
   <polygon fill="#B8AF82" points="0,31.9,7.79153,24.1368,7.79153,6.97162,0,0" stroke-width="0"/>
   <polygon fill="#80795B" points="24.2079,7.76321,7.90264,7.76321,0,0,31.93,0" stroke-width="0"/>
   <polygon fill="#5E5B43" points="24.2079,24.1368,24.2079,7.76321,31.93,0,31.93,31.9" stroke-width="0"/>
   <polygon fill="#9A916C" points="0,31.9,7.87486,24.1368,24.2079,24.1368,31.93,31.9" stroke-width="0"/>
  </g>
  <g transform="translate(438.035,734.05)">
   <rect width="31.93" x="0" y="0" fill="#8D8C8C" height="31.9" id="connector2pin" stroke-width="0"/>
   <rect width="16.4442" x="7.79153" y="7.73544" fill="#8C8663" height="16.4152" stroke-width="0"/>
   <polygon fill="#B8AF82" points="0,31.9,7.79153,24.1368,7.79153,6.97162,0,0" stroke-width="0"/>
   <polygon fill="#80795B" points="24.2079,7.76321,7.90264,7.76321,0,0,31.93,0" stroke-width="0"/>
   <polygon fill="#5E5B43" points="24.2079,24.1368,24.2079,7.76321,31.93,0,31.93,31.9" stroke-width="0"/>
   <polygon fill="#9A916C" points="0,31.9,7.87486,24.1368,24.2079,24.1368,31.93,31.9" stroke-width="0"/>
  </g>
  <g transform="translate(438.035,34.05)">
   <rect width="31.93" x="0" y="0" fill="#8D8C8C" height="31.9" id="connector3pin" stroke-width="0"/>
   <rect width="16.4442" x="7.79153" y="7.73544" fill="#8C8663" height="16.4152" stroke-width="0"/>
   <polygon fill="#B8AF82" points="0,31.9,7.79153,24.1368,7.79153,6.97162,0,0" stroke-width="0"/>
   <polygon fill="#80795B" points="24.2079,7.76321,7.90264,7.76321,0,0,31.93,0" stroke-width="0"/>
   <polygon fill="#5E5B43" points="24.2079,24.1368,24.2079,7.76321,31.93,0,31.93,31.9" stroke-width="0"/>
   <polygon fill="#9A916C" points="0,31.9,7.87486,24.1368,24.2079,24.1368,31.93,31.9" stroke-width="0"/>
  </g>
 </g>
</svg>
