<?xml version='1.0' encoding='UTF-8' standalone='no'?>
<!-- Created with Fritzing (http://www.fritzing.org/) -->
<svg width="0.879542in" x="0in" version="1.2" y="0in" xmlns="http://www.w3.org/2000/svg" height="1.2in" viewBox="0 0 879.542 1200" baseProfile="tiny" xmlns:svg="http://www.w3.org/2000/svg">
 <desc>Fritzing breadboard generated by brd2svg</desc>
 <g id="breadboard">
  <g id="icon">
   <path fill="#1F7A34" stroke="none" stroke-width="0" d="M0,0L0,570A30,30 0 0 1 0,630L0,1200L879.542,1200L879.542,0L0,0z"/>
   <g transform="translate(100,247.805)">
    <g stroke-width="0">
     <path fill="#4D4D4D" stroke-width="0" d="M60.6389,830.278c0,2.19444,1.79167,4,4,4l564.153,0c2.19444,0,4,-1.80556,4,-4L632.792,134.569c0,-2.20833,-1.80556,-4,-4,-4L64.6528,130.569c-2.20833,0,-4,1.79167,-4,4L60.6528,830.278z"/>
    </g>
    <polygon opacity="0.59" fill="#1A1A1A" points="603.722,824.819,72.4722,824.819,72.4722,667.431,525.764,667.431" stroke-width="0"/>
    <rect width="560.333" x="72.4722" y="139.014" fill="#CCCCCC" height="118.111" stroke-width="0"/>
    <g stroke-width="0">
     <g stroke-width="0">
      <g enable-background="new    " stroke-width="0">
       <g stroke-width="0">
        <path fill="#808080" stroke-width="0" d="M517.028,594.528c0.0694444,0.638889,0.138889,1.26389,0.222222,1.88889C517.167,595.792,517.097,595.167,517.028,594.528M625.625,129.889l-5.5,24.0417c1.86111,-0.291667,3.70833,-0.416667,5.54167,-0.416667c59,0,106.806,147.125,106.806,328.486c0,0.0972222,0,0.194444,0,0.291667c0,0.0694444,0,0.138889,0,0.208333c0,181.125,-47.75,328.125,-106.667,328.125c-14.75,0,-28.7917,-9.19444,-41.5694,-25.8194c-29.1528,-37.7083,-51.7361,-114.014,-60.9306,-208.097l-5.56944,24.3194c-0.125,-1.02778,-0.25,-2.04167,-0.333333,-3.11111c15.5833,137.583,58.1667,236.361,108.222,236.361c63.2778,0,114.556,-157.736,114.556,-352.25c0,-172.153,-40.125,-314.986,-93.2778,-346.056C637.667,130.569,625.625,129.889,625.625,129.889"/>
        <path fill="#4D4D4D" stroke-width="0" d="M517.028,594.528c0.0694444,0.638889,0.138889,1.26389,0.222222,1.88889C517.167,595.792,517.097,595.167,517.028,594.528M673.139,187.667c35.1667,53.7639,59.3333,165.403,59.3333,294.333c0,0.0972222,0,0.194444,0,0.291667c0,0.0694444,0,0.138889,0,0.208333c0,181.125,-47.75,328.125,-106.667,328.125c-14.75,0,-28.7917,-9.19444,-41.5694,-25.8194c-29.1528,-37.7083,-51.7361,-114.014,-60.9306,-208.097l-5.56944,24.3194c-0.125,-1.02778,-0.25,-2.04167,-0.333333,-3.11111c15.5833,137.583,58.1667,236.361,108.222,236.361c63.2778,0,114.556,-157.736,114.556,-352.25c0,-133.736,-24.2083,-249.778,-59.9306,-309.486L673.139,187.667z"/>
        <path fill="#666666" stroke-width="0" d="M521.236,551.833c-0.0694444,0.0416667,-0.138889,0.0555556,-0.222222,0.0555556l-7.70833,0c0.930556,14.5694,2.19444,28.8056,3.72222,42.6389c0.0694444,0.638889,0.138889,1.26389,0.222222,1.88889c0.0555556,0.5,0.125,1,0.180556,1.48611c0.111111,1.04167,0.236111,2.05556,0.333333,3.11111l5.56944,-24.3194C522.528,568.528,521.833,560.25,521.236,551.833"/>
        <path fill="#CCCCCC" stroke-width="0" d="M625.625,129.889c-54.3472,0,-99.8889,116.361,-111.639,272.5l7.02778,0c0.333333,0,0.652778,0.388889,0.875,1.02778c11.0417,-138.111,50.5139,-241.958,98.2083,-249.472L625.625,129.889"/>
        <path fill="#1A1A1A" stroke-width="0" d="M625.667,153.514c-1.86111,0,-3.72222,0.152778,-5.54167,0.416667c-47.7222,7.51389,-87.1667,111.375,-98.2083,249.472c0.236111,0.638889,0.361111,1.51389,0.361111,2.47222l0,142.5c0,1.66667,-0.444444,3.13889,-1.04167,3.44444c0.597222,8.40278,1.31944,16.6944,2.09722,24.8611c9.19444,94.0833,31.7778,170.417,60.9306,208.097c-20.9861,-27.3194,-38.5139,-74.6944,-50.0972,-134.292l12.3472,-40.7361c-6.52778,-38.1667,-10.2222,-81.6528,-10.2222,-127.778c0,-151.625,40.0278,-274.611,89.3889,-274.611c0.347222,0,0.736111,0,1.09722,0.0138889c0.0972222,0,0.194444,0.0138889,0.291667,0.0138889c0.291667,0.0138889,0.541667,0.0277778,0.833333,0.0416667c0.111111,0.0138889,0.236111,0.0138889,0.319444,0.0277778c0.277778,0.0138889,0.513889,0.0416667,0.805556,0.0694444c0.0833333,0.0138889,0.180556,0.0138889,0.277778,0.0277778c0.291667,0.0277778,0.569444,0.0694444,0.875,0.111111c0.0694444,0.0138889,0.152778,0.0277778,0.25,0.0277778c8.98611,1.44444,17.6528,6.94444,25.75,16l-0.0277778,-0.0138889c1.83333,2.02778,3.63889,4.25,5.40278,6.63889l12.3611,-40.75c34.7917,53.9722,58.6667,164.75,58.6944,292.667c0,-0.111111,0,-0.208333,0,-0.291667C732.5,300.639,684.667,153.514,625.667,153.514"/>
        <path fill="#333333" stroke-width="0" d="M673.819,189.639l-12.3611,40.75c31.5,42.4861,53.5139,139.181,53.5139,251.625c0,151.75,-40.0139,274.75,-89.3472,274.75c-34.375,0,-64.1806,-59.5833,-79.1389,-146.972l-12.3472,40.7361c11.5833,59.5972,29.1389,106.972,50.0972,134.292c12.7778,16.625,26.8472,25.8194,41.5694,25.8194c58.9167,0,106.667,-147,106.667,-328.125l-0.0833333,0l0.0833333,0c0,-0.0694444,0,-0.138889,0,-0.208333C732.472,354.389,708.611,243.611,673.819,189.639"/>
        <path fill="#999999" stroke-width="0" d="M630.083,207.722c0.0694444,0.0138889,0.152778,0.0277778,0.25,0.0277778C630.236,207.75,630.153,207.736,630.083,207.722M628.944,207.583c0.0833333,0.0138889,0.180556,0.0138889,0.277778,0.0277778C629.125,207.597,629.028,207.597,628.944,207.583M627.819,207.472c0.125,0.0138889,0.236111,0.0138889,0.319444,0.0277778C628.056,207.486,627.931,207.486,627.819,207.472M626.722,207.403c0.0972222,0,0.194444,0.0138889,0.291667,0.0138889C626.917,207.417,626.819,207.417,626.722,207.403M615.139,705.111c-7.23611,-11.6528,-12.1944,-35,-12.1944,-61.8472c0,-38.4861,10.1389,-69.6389,22.6806,-69.6389c8.25,0,15.4444,13.5,19.3889,33.6806c2.88889,9.40278,3.40278,25.4583,3.23611,37.4444c-0.277778,37.8333,-10.2778,68.25,-22.6528,68.25c-3.16667,0,-6.13889,-1.98611,-8.90278,-5.54167c-0.5,-0.680556,-1.01389,-1.43056,-1.5,-2.19444C615.194,705.222,615.167,705.167,615.139,705.111M665.722,542.903c-6.93056,-11.9167,-11.625,-34.7361,-11.625,-60.8889c0,-38.375,10.1528,-69.625,22.6944,-69.625c8.91667,0,16.5694,15.7639,20.2778,38.6528c0.666667,3.44444,1.13889,7.31944,1.44444,11.3611c0.597222,6.22222,0.888889,12.7917,0.888889,19.5972c0,38.5,-10.125,69.75,-22.6389,69.75c-0.430556,0,-0.875,-0.0416667,-1.31944,-0.138889c-0.263889,-0.0277778,-0.5,-0.0694444,-0.763889,-0.125c-3.15278,-0.763889,-6.08333,-3.375,-8.66667,-7.5C665.903,543.764,665.792,543.389,665.722,542.903M625.625,390.514c-12.5139,0,-22.6806,-31.25,-22.6806,-69.7361c0,-38.5,10.1389,-69.6389,22.6806,-69.6389c8.15278,0,15.3194,13.2639,19.3056,33.1806c0.0416667,0.0972222,0.0694444,0.208333,0.0972222,0.319444c0.0416667,0.166667,0.111111,0.486111,0.166667,0.916667c1.98611,10.3194,3.11111,22.3333,3.11111,35.2083c0,0.888889,0,1.81944,-0.0138889,2.70833c0,0.888889,0,1.73611,-0.0277778,2.54167c-0.527778,21.5,-4.18056,39.9722,-9.48611,51.5694c-0.0138889,0.0277778,-0.0416667,0.0694444,-0.0555556,0.111111c-0.0972222,0.208333,-0.194444,0.402778,-0.291667,0.597222c-0.0833333,0.166667,-0.166667,0.319444,-0.25,0.5c-0.0416667,0.0555556,-0.0694444,0.0972222,-0.0833333,0.152778C634.542,386.25,630.236,390.514,625.625,390.514M625.625,207.389c-49.3611,0,-89.3889,122.986,-89.3889,274.611c0,46.125,3.72222,89.6111,10.2222,127.778c14.9583,87.3889,44.7917,146.972,79.1389,146.972c49.3333,0,89.3472,-122.986,89.3472,-274.75c0,-112.444,-22.0139,-209.153,-53.5139,-251.625c-1.76389,-2.38889,-3.56944,-4.61111,-5.41667,-6.63889L625.625,207.389"/>
        <path fill="#999999" stroke-width="0" d="M625.625,207.389l30.4167,16.3611l0.0277778,0.0138889c-8.11111,-9.05556,-16.7639,-14.5694,-25.75,-16c-0.0972222,0,-0.180556,-0.0138889,-0.25,-0.0277778c-0.291667,-0.0416667,-0.583333,-0.0833333,-0.875,-0.111111c-0.0972222,-0.0138889,-0.194444,-0.0138889,-0.277778,-0.0277778c-0.291667,-0.0277778,-0.527778,-0.0555556,-0.805556,-0.0694444c-0.111111,-0.0138889,-0.222222,-0.0138889,-0.319444,-0.0277778c-0.291667,-0.0138889,-0.541667,-0.0277778,-0.833333,-0.0416667c-0.0972222,0,-0.194444,0,-0.291667,-0.0138889C626.361,207.389,626,207.389,625.625,207.389"/>
        <path fill="#1A1A1A" stroke-width="0" d="M638.431,378.292c-0.0833333,0.166667,-0.166667,0.319444,-0.25,0.5C638.264,378.611,638.347,378.458,638.431,378.292M638.75,377.583c-0.0277778,0.0277778,-0.0416667,0.0694444,-0.0555556,0.111111C638.736,377.653,638.75,377.611,638.75,377.583M645.167,285.556c0.708333,4.91667,3.01389,25.8889,3.09722,37.9167c0.0138889,-0.888889,0.0138889,-1.80556,0.0138889,-2.70833C648.278,307.903,647.153,295.875,645.167,285.556M625.625,251.139c-12.5139,0,-22.6806,31.125,-22.6806,69.6389c0,38.4861,10.1389,69.7361,22.6806,69.7361c4.61111,0,8.91667,-4.26389,12.4722,-11.5694c-3.61111,7.30556,-7.88889,11.5139,-12.4583,11.5139c-0.569444,0,-1.13889,-0.0555556,-1.70833,-0.194444c-3.15278,-0.763889,-6.08333,-3.375,-8.66667,-7.5c-4.11111,-6.58333,25.0417,-98.7639,29.3194,-98.7639c0.152778,0,0.263889,0.111111,0.319444,0.305556C640.944,264.389,633.778,251.139,625.625,251.139"/>
        <path fill="#1A1A1A" stroke-width="0" d="M698.514,462.417c0.680556,8.55556,0.708333,17.8194,0.513889,24.9722c-0.888889,36.4861,-10.8472,64.3333,-22.5972,64.3333c-0.319444,0,-0.638889,-0.0277778,-0.958333,-0.0833333c0.430556,0.0972222,0.875,0.138889,1.31944,0.138889c12.5139,0,22.6389,-31.25,22.6389,-69.75C699.431,475.208,699.111,468.625,698.514,462.417M676.792,412.389c-12.5139,0,-22.6944,31.25,-22.6944,69.625c0,26.1528,4.69444,48.9583,11.625,60.8889c-1.65278,-12.3333,25.3472,-97.4722,29.6806,-97.4722c0.194444,0,0.319444,0.152778,0.416667,0.458333c0.472222,1.54167,0.888889,3.27778,1.25,5.15278C693.361,428.153,685.681,412.389,676.792,412.389"/>
        <path fill="#1A1A1A" stroke-width="0" d="M648.278,644.764c-0.0138889,1.31944,-0.0416667,2.58333,-0.0833333,3.76389c-0.875,36.6111,-10.8056,64.4583,-22.5833,64.4583c-0.569444,0,-1.15278,-0.0694444,-1.72222,-0.208333c-2.52778,-0.597222,-4.91667,-2.44444,-7.16667,-5.30556c2.73611,3.58333,5.73611,5.54167,8.90278,5.54167C638,713.014,648.014,682.583,648.278,644.764M625.625,573.639c-12.5139,0,-22.6806,31.125,-22.6806,69.6389c0,26.875,4.93056,50.1944,12.1944,61.8472c-3.66667,-7.77778,24.9444,-98.4444,29.4167,-98.4444c0.194444,0,0.305556,0.152778,0.402778,0.458333c0.0277778,0.0555556,0.0416667,0.125,0.0555556,0.180556C641.069,587.125,633.875,573.639,625.625,573.639"/>
        <path fill="#333333" stroke-width="0" d="M644.583,284c-4.30556,0,-33.4306,92.2083,-29.3194,98.7639c2.61111,4.125,5.51389,6.73611,8.66667,7.5c0.569444,0.138889,1.13889,0.194444,1.70833,0.194444c4.56944,0,8.875,-4.20833,12.4583,-11.5139c0.0138889,-0.0416667,0.0416667,-0.0972222,0.0833333,-0.152778c0.0833333,-0.180556,0.166667,-0.333333,0.25,-0.5c0.0972222,-0.194444,0.194444,-0.402778,0.291667,-0.597222c0.0138889,-0.0277778,0.0416667,-0.0694444,0.0555556,-0.111111c5.30556,-11.5833,8.95833,-30.0694,9.48611,-51.5694c0.0277778,-0.805556,0.0277778,-1.63889,0.0277778,-2.54167c-0.0833333,-12.0278,-2.38889,-33,-3.09722,-37.9167c-0.0555556,-0.430556,-0.125,-0.763889,-0.166667,-0.916667c-0.0277778,-0.138889,-0.0555556,-0.25,-0.0972222,-0.319444C644.847,284.097,644.736,284,644.583,284"/>
        <path fill="#333333" stroke-width="0" d="M695.403,445.431c-4.33333,0,-31.3333,85.1389,-29.6806,97.4722c0.0694444,0.486111,0.180556,0.875,0.319444,1.11111c2.61111,4.125,5.51389,6.73611,8.66667,7.5c0.263889,0.0555556,0.513889,0.0972222,0.763889,0.125c0.319444,0.0555556,0.638889,0.0833333,0.958333,0.0833333c11.75,0,21.7083,-27.8472,22.5972,-64.3333c0.194444,-7.16667,0.166667,-16.4167,-0.513889,-24.9722c-0.305556,-4.04167,-0.805556,-7.91667,-1.44444,-11.3611c-0.333333,-1.875,-0.777778,-3.61111,-1.25,-5.15278C695.722,445.583,695.569,445.431,695.403,445.431"/>
        <path fill="#333333" stroke-width="0" d="M644.556,606.667c-4.47222,0,-33.0833,90.6667,-29.4167,98.4444c0.0277778,0.0555556,0.0555556,0.111111,0.0833333,0.152778c0.486111,0.791667,1,1.51389,1.5,2.19444c2.22222,2.86111,4.63889,4.70833,7.16667,5.30556c0.569444,0.138889,1.15278,0.208333,1.72222,0.208333c11.7778,0,21.7083,-27.8472,22.5833,-64.4583c0.0416667,-1.18056,0.0694444,-2.44444,0.0833333,-3.76389c0.166667,-11.9861,-0.347222,-28.0694,-3.23611,-37.4444c-0.0138889,-0.0555556,-0.0277778,-0.125,-0.0555556,-0.180556C644.889,606.819,644.75,606.667,644.556,606.667"/>
        <path fill="#999999" stroke-width="0" d="M521.014,402.389l-7.02778,0l-11.3056,0c-0.652778,0,-1.22222,1.61111,-1.22222,3.5l0,142.5c0,1.88889,0.569444,3.5,1.22222,3.5l10.6528,0l7.70833,0c0.0833333,0,0.152778,-0.0138889,0.222222,-0.0555556c0.597222,-0.305556,1.04167,-1.77778,1.04167,-3.44444l0,-142.5c0,-0.944444,-0.152778,-1.83333,-0.361111,-2.47222C521.694,402.792,521.347,402.389,521.014,402.389"/>
       </g>
      </g>
     </g>
    </g>
   </g>
  </g>
 </g>
 <text x="50" y="624.375" font-family="OCRA" fill="white" text-anchor="start" stroke="none" id="label" stroke-width="0" font-size="65">XLR3_NC3FAH2</text>
</svg>
