<?xml version='1.0' encoding='UTF-8' standalone='no'?>
<!-- Created with Fritzing (http://www.fritzing.org/) -->
<svg width="0.676514in" x="0in" version="1.2" y="0in" xmlns="http://www.w3.org/2000/svg" height="1in" viewBox="0 0 676.514 1000" baseProfile="tiny" xmlns:svg="http://www.w3.org/2000/svg">
 <desc>Fritzing breadboard generated by brd2svg</desc>
 <g id="breadboard">
  <g id="icon">
   <path fill="#1F7A34" stroke="none" stroke-width="0" d="M0,0L0,470A30,30 0 0 1 0,530L0,1000L676.514,1000L676.514,0L0,0z"/>
   <g transform="translate(100,208.007)">
    <g stroke-width="0">
     <g stroke-width="0">
      <path fill="#999999" stroke-width="0" d="M476.5,296.514l0,28.6111l-19.7361,0l0,-28.6111l-19.7361,0l0,-18.6667l30.6944,0c4.84722,0,8.77778,3.93056,8.77778,8.77778L476.5,296.514z"/>
      <path fill="#808080" stroke-width="0" d="M476.5,285.667l-39.4722,0l0,-7.81944c0,0,29.5139,0,32.125,0C473.056,277.847,476.5,283.278,476.5,285.667z"/>
     </g>
     <g stroke-width="0">
      <g stroke-width="0">
       <g stroke-width="0">
        <path fill="#E6E6E6" stroke-width="0" d="M437.042,571.486c0,6.875,-5.59722,12.5,-12.4861,12.5L51.9583,583.986c-6.875,0,-12.5,-5.625,-12.5,-12.5L39.4583,343.306c0,-6.875,5.625,-12.5,12.5,-12.5l372.583,0c6.88889,0,12.4861,5.625,12.4861,12.5L437.028,571.486z"/>
        <rect width="397.569" x="39.4722" y="73.25" fill="#B3B3B3" height="265.375" stroke-width="0"/>
        <rect width="397.569" x="39.4722" y="0" fill="#999999" height="73.25" stroke-width="0"/>
       </g>
      </g>
      <polygon fill="#808080" points="181.042,364.056,118.708,406.611,118.708,559.681,357.819,559.681,357.819,406.611,295.472,364.056" stroke-width="0"/>
      <rect width="114" x="183" y="364.056" fill="#999999" height="73.7917" stroke-width="0"/>
      <g stroke-width="0">
       <g stroke-width="0">
        <rect width="16.7778" x="200.569" y="364.056" fill="#666666" height="65.9722" stroke-width="0"/>
        <rect width="16.7917" x="265.528" y="364.056" fill="#666666" height="65.9722" stroke-width="0"/>
       </g>
      </g>
      <g stroke-width="0">
       <g stroke-width="0">
        <rect width="16.7778" x="199.111" y="364.056" fill="#CCCCCC" height="65.9722" stroke-width="0"/>
        <rect width="16.7917" x="264.056" y="364.056" fill="#CCCCCC" height="65.9722" stroke-width="0"/>
       </g>
      </g>
      <rect width="114" x="183" y="437.861" fill="#CCCCCC" height="71.4722" stroke-width="0"/>
      <rect width="114" x="183" y="437.861" fill="#B3B3B3" height="7.81944" stroke-width="0"/>
      <rect width="19.8194" x="39.4722" opacity="0.5" y="0" fill="#CCCCCC" height="338.625" stroke-width="0"/>
      <rect width="19.8194" x="417.222" opacity="0.2" y="0" height="338.625" stroke-width="0"/>
      <polygon fill="#666666" points="297,365.111,297,437.861,297,509.333,262.764,509.333,251.417,559.681,357.819,559.681,357.819,406.611" stroke-width="0"/>
      <polygon fill="#999999" points="289.042,509.333,297,509.333,297,437.861,289.042,445.653" stroke-width="0"/>
      <polygon fill="#E6E6E6" points="183,509.333,190.944,509.333,190.944,445.653,183,437.861" stroke-width="0"/>
     </g>
     <g stroke-width="0">
      <path fill="#B3B3B3" stroke-width="0" d="M0,296.514l0,28.6111l19.7361,0l0,-28.6111l19.7361,0l0,-18.6667l-30.6944,0C3.91667,277.847,0,281.778,0,286.625L0,296.514z"/>
      <path fill="#E6E6E6" stroke-width="0" d="M0,285.667l39.4722,0l0,-7.81944c0,0,-29.5139,0,-32.125,0C3.44444,277.847,0,283.278,0,285.667z"/>
     </g>
    </g>
   </g>
  </g>
 </g>
 <text x="50" y="524.375" font-family="OCRA" fill="white" text-anchor="start" stroke="none" id="label" stroke-width="0" font-size="65">USB-B-PTH-VERTICAL</text>
</svg>
