<?xml version='1.0' encoding='UTF-8' standalone='no'?>
<!-- Created with Fritzing (http://www.fritzing.org/) -->
<svg width="0.483465in" x="0in" version="1.2" y="0in" xmlns="http://www.w3.org/2000/svg" height="0.6in" viewBox="0 0 483.465 600" baseProfile="tiny" xmlns:svg="http://www.w3.org/2000/svg">
 <desc>Fritzing breadboard generated by brd2svg</desc>
 <g id="breadboard">
  <g id="icon">
   <path fill="#1F7A34" stroke="none" stroke-width="0" d="M0,0L0,270A30,30 0 0 1 0,330L0,600L483.465,600L483.465,0L0,0z"/>
   <g transform="translate(-41.7323,30.252)">
    <g transform="matrix(0.5, 0, 0, 0.5, 141.732, 134.874)">
     <rect width="196.85" x="0" y="238.252" fill="#F7BD13" connectorname="-" height="62.9921" stroke="none" stroke-linecap="round" stroke-width="0"/>
     <rect width="196.85" x="370.079" y="238.252" fill="#F7BD13" connectorname="+" height="62.9921" stroke="none" stroke-linecap="round" stroke-width="0"/>
     <rect width="539.496" x="13.7165" y="0" fill="#303030" height="539.496" stroke="none" stroke-width="0"/>
     <polygon fill="#1f1f1f" points="13.7165,0 553.213,0 543.213,10 23.7165,10"/>
     <polygon fill="#1f1f1f" points="13.7165,539.496 553.213,539.496 543.213,529.496 23.7165,529.496"/>
     <polygon fill="#000000" points="13.7165,0 13.7165,539.496 23.7165,529.496 23.7165,10"/>
     <polygon fill="#3d3d3d" points="553.213,0 553.213,539.496 543.213,529.496 543.213,10"/>
     <circle fill="#1f1f1f" cx="43.7165" cy="509.496" stroke="none" r="10" stroke-width="0"/>
    </g>
   </g>
   <text x="50" y="324.375" font-family="OCRA" fill="white" text-anchor="start" stroke="none" id="label" stroke-width="0" font-size="65">PANASONIC_H13</text>
   <g transform="translate(255.232,526.05)">
    <g transform="rotate(-90)">
     <text x="0" y="0" font-family="OCRA" fill="white" text-anchor="start" stroke="none" stroke-width="0" font-size="45">+</text>
    </g>
   </g>
   <g transform="translate(255.232,73.95)">
    <g transform="rotate(-90)">
     <text x="0" y="0" font-family="OCRA" fill="white" text-anchor="end" stroke="none" stroke-width="0" font-size="45">-</text>
    </g>
   </g>
  </g>
  <g transform="translate(225.767,534.05)">
   <rect width="31.93" x="0" y="0" fill="#8D8C8C" height="31.9" id="connector0pin" stroke-width="0"/>
   <rect width="16.4442" x="7.79153" y="7.73544" fill="#8C8663" height="16.4152" stroke-width="0"/>
   <polygon fill="#B8AF82" points="0,31.9,7.79153,24.1368,7.79153,6.97162,0,0" stroke-width="0"/>
   <polygon fill="#80795B" points="24.2079,7.76321,7.90264,7.76321,0,0,31.93,0" stroke-width="0"/>
   <polygon fill="#5E5B43" points="24.2079,24.1368,24.2079,7.76321,31.93,0,31.93,31.9" stroke-width="0"/>
   <polygon fill="#9A916C" points="0,31.9,7.87486,24.1368,24.2079,24.1368,31.93,31.9" stroke-width="0"/>
  </g>
  <g transform="translate(225.767,34.05)">
   <rect width="31.93" x="0" y="0" fill="#8D8C8C" height="31.9" id="connector1pin" stroke-width="0"/>
   <rect width="16.4442" x="7.79153" y="7.73544" fill="#8C8663" height="16.4152" stroke-width="0"/>
   <polygon fill="#B8AF82" points="0,31.9,7.79153,24.1368,7.79153,6.97162,0,0" stroke-width="0"/>
   <polygon fill="#80795B" points="24.2079,7.76321,7.90264,7.76321,0,0,31.93,0" stroke-width="0"/>
   <polygon fill="#5E5B43" points="24.2079,24.1368,24.2079,7.76321,31.93,0,31.93,31.9" stroke-width="0"/>
   <polygon fill="#9A916C" points="0,31.9,7.87486,24.1368,24.2079,24.1368,31.93,31.9" stroke-width="0"/>
  </g>
 </g>
</svg>
