<?xml version='1.0' encoding='UTF-8' standalone='no'?>
<!-- Created with Fritzing (http://www.fritzing.org/) -->
<svg width="1.85354in" x="0in" version="1.2" y="0in" xmlns="http://www.w3.org/2000/svg" height="1.4in" viewBox="0 0 1853.54 1400" baseProfile="tiny" xmlns:svg="http://www.w3.org/2000/svg">
 <desc>Fritzing breadboard generated by brd2svg</desc>
 <g id="breadboard">
  <g id="icon">
   <path fill="#1F7A34" stroke="none" stroke-width="0" d="M0,0L0,670A30,30 0 0 1 0,730L0,1400L1853.54,1400L1853.54,0L0,0z"/>
   <g transform="translate(100,177.72)">
    <rect width="1653.54" x="-203.556" y="-134.181" height="941.444" stroke-width="0"/>
    <path fill="#333333" stroke-width="0" d="M-29.5694,-134.181l0,590.75l1305.56,0L1275.99,-134.181L-29.5694,-134.181zM431.931,387.917l-34.4722,0L397.458,-74.6806l34.4722,0L431.931,387.917zM848.972,387.917l-34.4722,0L814.5,-74.6806l34.4722,0L848.972,387.917z"/>
    <g stroke-width="0">
     <rect width="21.4444" x="1406.46" opacity="0.25" y="-133.486" fill="#1A1A1A" height="958.167" stroke-width="0"/>
     <rect width="21.4583" x="1385" opacity="0.5" y="-133.486" fill="#1A1A1A" height="958.167" stroke-width="0"/>
     <rect width="22.6944" x="1362.31" opacity="0.75" y="-133.944" fill="#1A1A1A" height="958.167" stroke-width="0"/>
     <rect width="22.7083" x="1339.6" y="-133.944" fill="#1A1A1A" height="958.167" stroke-width="0"/>
     <rect width="19.4028" x="1300.79" opacity="0.7" y="-133.486" fill="#333333" height="958.167" stroke-width="0"/>
     <rect width="19.3889" x="1320.21" opacity="0.66" y="-133.486" fill="#333333" height="958.167" stroke-width="0"/>
     <rect width="24.8056" x="1275.99" opacity="0.85" y="-133.486" fill="#333333" height="958.167" stroke-width="0"/>
    </g>
    <g stroke-width="0">
     <rect width="21.4444" x="-181.472" opacity="0.25" y="-133.986" fill="#1A1A1A" height="958.167" stroke-width="0"/>
     <rect width="21.4583" x="-160.028" opacity="0.5" y="-133.986" fill="#1A1A1A" height="958.167" stroke-width="0"/>
     <rect width="22.6944" x="-138.583" opacity="0.75" y="-133.542" fill="#1A1A1A" height="958.181" stroke-width="0"/>
     <rect width="22.7083" x="-115.889" y="-133.542" fill="#1A1A1A" height="958.181" stroke-width="0"/>
     <rect width="19.4028" x="-73.7917" opacity="0.7" y="-133.986" fill="#333333" height="958.167" stroke-width="0"/>
     <rect width="19.3889" x="-93.1806" opacity="0.66" y="-133.986" fill="#333333" height="958.167" stroke-width="0"/>
     <rect width="24.8056" x="-54.375" opacity="0.85" y="-133.986" fill="#333333" height="958.167" stroke-width="0"/>
    </g>
    <rect width="586.222" x="-203.556" opacity="0.23" y="-134.181" fill="#FFFFFF" height="9.15278" stroke-width="0"/>
    <rect width="1.73611" x="383.194" y="-133.819" fill="#4D4D4D" height="59.1389" stroke-width="0"/>
    <rect width="585.361" x="864.444" opacity="0.23" y="-134.181" fill="#FFFFFF" height="9.15278" stroke-width="0"/>
    <g stroke-width="0">
     <g stroke-width="0">
      <rect width="382.569" x="431.931" opacity="0.5" y="387.917" fill="#4D4D4D" height="30.4583" stroke-width="0"/>
      <rect width="382.569" x="431.931" opacity="0.5" y="408.833" fill="#333333" height="12.6806" stroke-width="0"/>
      <rect width="382.569" x="431.931" opacity="0.25" y="394.944" fill="#4D4D4D" height="7.02778" stroke-width="0"/>
      <rect width="382.569" x="431.931" opacity="0.5" y="388" fill="#4D4D4D" height="6.94444" stroke-width="0"/>
     </g>
     <g stroke-width="0">
      <rect width="30.4583" x="830.861" opacity="0.5" y="-133.806" fill="#4D4D4D" height="59.1111" stroke-width="0"/>
      <rect width="12.6667" x="851.778" opacity="0.5" y="-133.806" fill="#333333" height="59.1111" stroke-width="0"/>
      <rect width="7.02778" x="837.889" opacity="0.25" y="-133.806" fill="#4D4D4D" height="59.1111" stroke-width="0"/>
      <rect width="6.94444" x="830.944" opacity="0.5" y="-133.806" fill="#4D4D4D" height="59.1111" stroke-width="0"/>
     </g>
     <g stroke-width="0">
      <rect width="30.4583" x="384.917" opacity="0.5" y="-133.819" fill="#4D4D4D" height="59.1111" stroke-width="0"/>
      <rect width="11.2778" x="383.194" opacity="0.5" y="-133.819" fill="#333333" height="59.1111" stroke-width="0"/>
      <rect width="7.02778" x="401.333" opacity="0.25" y="-133.819" fill="#4D4D4D" height="59.1111" stroke-width="0"/>
      <rect width="6.94444" x="408.361" opacity="0.5" y="-133.819" fill="#4D4D4D" height="59.1111" stroke-width="0"/>
     </g>
     <polygon fill="#4D4D4D" points="831.028,-134.181,415.389,-134.181,415.389,-74.7083,431.931,-74.7083,431.931,387.917,814.5,387.917,814.5,-74.7083,831.028,-74.7083" stroke-width="0"/>
     <rect width="3.625" x="431.931" y="-74.6806" fill="#999999" height="462.597" stroke-width="0"/>
     <rect width="3.625" x="393.736" y="-74.6806" fill="#999999" height="462.597" stroke-width="0"/>
     <rect width="3.63889" x="849.125" y="-74.6806" fill="#4D4D4D" height="462.597" stroke-width="0"/>
     <rect width="3.625" x="431.931" opacity="0.31" y="387.917" fill="#999999" height="33.5972" stroke-width="0"/>
     <rect width="3.625" x="810.778" y="-74.6806" fill="#333333" height="462.597" stroke-width="0"/>
     <rect width="3.625" x="810.778" opacity="0.31" y="387.917" fill="#333333" height="33.5972" stroke-width="0"/>
    </g>
    <rect width="481.778" x="382.667" opacity="0.23" y="-134.181" fill="#FFFFFF" height="9.15278" stroke-width="0"/>
    <path stroke-width="0" d="M1348.07,519.764c-17.2222,-45.9167,-71.4306,-83.4861,-120.5,-83.4861L19.5556,436.278c-49.0417,0,-103.264,37.5694,-120.486,83.4861l-96.9306,258.639c-17.2083,45.9444,8.83333,83.5,57.8889,83.5L1387.1,861.903c49.0417,0,75.0972,-37.5556,57.875,-83.5L1348.07,519.764z"/>
    <path opacity="0.16" fill="#FFFFFF" stroke-width="0" d="M1354.94,538.111l90.0278,240.292c17.2222,45.9444,-8.83333,83.5,-57.875,83.5l-3.45833,0c49.0417,0,75.0972,-37.5556,57.875,-83.5L1352.14,539.861L1354.94,538.111z"/>
    <path opacity="0.16" fill="#FFFFFF" stroke-width="0" d="M-107.819,538.111l-90.0278,240.292c-17.2222,45.9444,8.83333,83.5,57.875,83.5l3.45833,0c-49.0417,0,-75.0972,-37.5556,-57.875,-83.5l89.3889,-238.542L-107.819,538.111z"/>
    <path opacity="0.39" fill="#B3B3B3" stroke-width="0" d="M-100.208,516.833c17.2222,-45.9167,69.4861,-85.4306,118.528,-85.4306l1208.01,0c49.0694,0,103.278,37.5694,120.5,83.4861l1.23611,4.88889c-17.2222,-45.9167,-71.4306,-83.4861,-120.5,-83.4861L19.5556,436.292c-49.0417,0,-103.264,37.5694,-120.486,83.4861L-100.208,516.833z"/>
    <g stroke-width="0">
     <path fill="#1A1A1A" stroke-width="0" d="M1426.17,802.819c0,59.1667,-48.375,107.569,-107.556,107.569L-72.1806,910.389c-59.1667,0,-107.569,-48.4028,-107.569,-107.569L-179.75,588.431c0,-59.1667,48.4028,-107.569,107.569,-107.569L1318.6,480.861c59.1806,0,107.556,48.4028,107.556,107.569L1426.15,802.819z"/>
     <path fill="#333333" stroke-width="0" d="M-179.75,588.431c0,-59.1667,48.4028,-107.569,107.569,-107.569L1318.6,480.861c59.1806,0,107.556,48.4028,107.556,107.569l0,-27.7639c0,-59.1667,-48.375,-107.569,-107.556,-107.569L-72.1806,453.097c-59.1667,0,-107.569,48.4028,-107.569,107.569L-179.75,588.431z"/>
     <g stroke-width="0">
      <g enable-background="new    " stroke-width="0">
       <defs>
        <rect width="1342.03" x="-47.8056" y="528.444" height="337.972" id="SVGID_1_" enable-background="new    " stroke-width="0"/>
       </defs>
       <clipPath id="SVGID_2_">
        <use overflow="visible" xmlns:xlink="http://www.w3.org/1999/xlink" xlink:href="#SVGID_1_"/>
       </clipPath>
       <g stroke-width="0" clip-path="url(#SVGID_2_)">
        <polyline fill="#4D4D4D" points="1294.24,582.444,1249.01,597.931,1249.53,597.931,1249.53,613.736,1202.94,613.736,1158.06,629.194,1158.06,582.444,1158.06,629.194,1294.24,629.194,1294.24,582.444" stroke-width="0"/>
        <polyline fill="#4D4D4D" points="1121.96,582.444,1076.74,597.931,1077.26,597.931,1077.26,613.736,1030.68,613.736,985.792,629.194,985.792,582.444,985.792,629.194,1121.96,629.194,1121.96,582.444" stroke-width="0"/>
        <polyline fill="#4D4D4D" points="949.528,582.444,904.403,597.931,905,597.931,905,613.736,858.444,613.736,813.514,629.194,813.514,582.444,813.514,629.194,949.528,629.194,949.528,582.444" stroke-width="0"/>
        <polyline fill="#4D4D4D" points="777.278,582.444,732.167,597.931,732.722,597.931,732.722,613.736,686.153,613.736,641.278,629.194,641.278,582.444,641.278,629.194,777.278,629.194,777.278,582.444" stroke-width="0"/>
        <polyline fill="#4D4D4D" points="605.014,582.444,559.903,597.931,560.472,597.931,560.472,613.736,513.903,613.736,468.986,629.194,468.986,582.444,468.986,629.194,605.014,629.194,605.014,582.444" stroke-width="0"/>
        <polyline fill="#4D4D4D" points="432.75,582.444,387.625,597.931,388.194,597.931,388.194,613.736,341.639,613.736,296.722,629.194,296.722,582.444,296.722,629.194,432.75,629.194,432.75,582.444" stroke-width="0"/>
        <polyline fill="#4D4D4D" points="260.5,582.444,215.347,597.931,215.931,597.931,215.931,613.736,169.361,613.736,124.458,629.194,124.458,582.444,124.458,629.194,260.5,629.194,260.5,582.444" stroke-width="0"/>
        <polyline fill="#4D4D4D" points="88.2361,582.444,43.1111,597.931,43.6806,597.931,43.6806,613.736,-2.88889,613.736,-47.8056,629.194,-47.8056,582.444,-47.8056,629.194,88.2361,629.194,88.2361,582.444" stroke-width="0"/>
        <polyline fill="#666666" points="1294.24,582.444,1249.01,597.931,1294.24,582.444" stroke-width="0"/>
        <polyline fill="#666666" points="1121.96,582.444,1076.74,597.931,1121.96,582.444" stroke-width="0"/>
        <polyline fill="#666666" points="949.528,582.444,904.403,597.931,949.528,582.444" stroke-width="0"/>
        <polyline fill="#666666" points="777.278,582.444,732.167,597.931,777.278,582.444" stroke-width="0"/>
        <polyline fill="#666666" points="605.014,582.444,559.903,597.931,605.014,582.444" stroke-width="0"/>
        <polyline fill="#666666" points="432.75,582.444,387.625,597.931,432.75,582.444" stroke-width="0"/>
        <polyline fill="#666666" points="260.5,582.444,215.347,597.931,260.5,582.444" stroke-width="0"/>
        <polyline fill="#666666" points="88.2361,582.444,43.1111,597.931,88.2361,582.444" stroke-width="0"/>
        <polyline fill="#666666" points="1294.24,582.444,1158.06,582.444,1158.06,629.194,1202.94,613.736,1202.75,613.736,1202.75,597.931,1249.01,597.931,1294.24,582.444" stroke-width="0"/>
        <polyline fill="#666666" points="1121.96,582.444,985.792,582.444,985.792,629.194,1030.68,613.736,1030.47,613.736,1030.47,597.931,1076.74,597.931,1121.96,582.444" stroke-width="0"/>
        <polyline fill="#666666" points="949.528,582.444,813.514,582.444,813.514,629.194,858.444,613.736,858.208,613.736,858.208,597.931,904.403,597.931,949.528,582.444" stroke-width="0"/>
        <polyline fill="#666666" points="777.278,582.444,641.278,582.444,641.278,629.194,686.153,613.736,685.958,613.736,685.958,597.931,732.167,597.931,777.278,582.444" stroke-width="0"/>
        <polyline fill="#666666" points="605.014,582.444,468.986,582.444,468.986,629.194,513.903,613.736,513.694,613.736,513.694,597.931,559.903,597.931,605.014,582.444" stroke-width="0"/>
        <polyline fill="#666666" points="432.75,582.444,296.722,582.444,296.722,629.194,341.639,613.736,341.431,613.736,341.431,597.931,387.625,597.931,432.75,582.444" stroke-width="0"/>
        <polyline fill="#666666" points="260.5,582.444,124.458,582.444,124.458,629.194,169.361,613.736,169.153,613.736,169.153,597.931,215.347,597.931,260.5,582.444" stroke-width="0"/>
        <polyline fill="#666666" points="88.2361,582.444,-47.8056,582.444,-47.8056,629.194,-2.88889,613.736,-3.11111,613.736,-3.11111,597.931,43.1111,597.931,88.2361,582.444" stroke-width="0"/>
        <polyline fill="#B3B3B3" points="1249.53,597.931,1249.01,597.931,1202.75,597.931,1202.75,613.736,1202.94,613.736,1249.53,613.736,1249.53,597.931" stroke-width="0"/>
        <polyline fill="#B3B3B3" points="1077.26,597.931,1076.74,597.931,1030.47,597.931,1030.47,613.736,1030.68,613.736,1077.26,613.736,1077.26,597.931" stroke-width="0"/>
        <polyline fill="#B3B3B3" points="905,597.931,904.403,597.931,858.208,597.931,858.208,613.736,858.444,613.736,905,613.736,905,597.931" stroke-width="0"/>
        <polyline fill="#B3B3B3" points="732.722,597.931,732.167,597.931,685.958,597.931,685.958,613.736,686.153,613.736,732.722,613.736,732.722,597.931" stroke-width="0"/>
        <polyline fill="#B3B3B3" points="560.472,597.931,559.903,597.931,513.694,597.931,513.694,613.736,513.903,613.736,560.472,613.736,560.472,597.931" stroke-width="0"/>
        <polyline fill="#B3B3B3" points="388.194,597.931,387.625,597.931,341.431,597.931,341.431,613.736,341.639,613.736,388.194,613.736,388.194,597.931" stroke-width="0"/>
        <polyline fill="#B3B3B3" points="215.931,597.931,215.347,597.931,169.153,597.931,169.153,613.736,169.361,613.736,215.931,613.736,215.931,597.931" stroke-width="0"/>
        <polyline fill="#B3B3B3" points="43.6806,597.931,43.1111,597.931,-3.11111,597.931,-3.11111,613.736,-2.88889,613.736,43.6806,613.736,43.6806,597.931" stroke-width="0"/>
        <polyline fill="#4D4D4D" points="1294.24,770.125,1249.01,785.653,1249.53,785.653,1249.53,801.458,1202.94,801.458,1158.06,816.875,1158.06,770.125,1158.06,816.875,1294.24,816.875,1294.24,770.125" stroke-width="0"/>
        <polyline fill="#4D4D4D" points="1121.96,770.125,1076.74,785.653,1077.26,785.653,1077.26,801.458,1030.68,801.458,985.792,816.875,985.792,770.125,985.792,816.875,1121.96,816.875,1121.96,770.125" stroke-width="0"/>
        <polyline fill="#4D4D4D" points="949.528,770.125,904.403,785.653,905,785.653,905,801.458,858.444,801.458,813.514,816.875,813.514,770.125,813.514,816.875,949.528,816.875,949.528,770.125" stroke-width="0"/>
        <polyline fill="#4D4D4D" points="777.278,770.125,732.167,785.653,732.722,785.653,732.722,801.458,686.153,801.458,641.278,816.875,641.278,770.125,641.278,816.875,777.278,816.875,777.278,770.125" stroke-width="0"/>
        <polyline fill="#4D4D4D" points="605.014,770.125,559.903,785.653,560.472,785.653,560.472,801.458,513.903,801.458,468.986,816.875,468.986,770.125,468.986,816.875,605.014,816.875,605.014,770.125" stroke-width="0"/>
        <polyline fill="#4D4D4D" points="432.75,770.125,387.625,785.653,388.194,785.653,388.194,801.458,341.639,801.458,296.722,816.875,296.722,770.125,296.722,816.875,432.75,816.875,432.75,770.125" stroke-width="0"/>
        <polyline fill="#4D4D4D" points="260.5,770.125,215.347,785.653,215.931,785.653,215.931,801.458,169.361,801.458,124.458,816.875,124.458,770.125,124.458,816.875,260.5,816.875,260.5,770.125" stroke-width="0"/>
        <polyline fill="#4D4D4D" points="88.2361,770.125,43.1111,785.653,43.6806,785.653,43.6806,801.458,-2.88889,801.458,-47.8056,816.875,-47.8056,770.125,-47.8056,816.875,88.2361,816.875,88.2361,770.125" stroke-width="0"/>
        <polyline fill="#666666" points="1294.24,770.125,1158.06,770.125,1158.06,816.875,1202.94,801.458,1202.75,801.458,1202.75,785.653,1249.01,785.653,1294.24,770.125" stroke-width="0"/>
        <polyline fill="#666666" points="1121.96,770.125,985.792,770.125,985.792,816.875,1030.68,801.458,1030.47,801.458,1030.47,785.653,1076.74,785.653,1121.96,770.125" stroke-width="0"/>
        <polyline fill="#666666" points="949.528,770.125,813.514,770.125,813.514,816.875,858.444,801.458,858.208,801.458,858.208,785.653,904.403,785.653,949.528,770.125" stroke-width="0"/>
        <polyline fill="#666666" points="777.278,770.125,641.278,770.125,641.278,816.875,686.153,801.458,685.958,801.458,685.958,785.653,732.167,785.653,777.278,770.125" stroke-width="0"/>
        <polyline fill="#666666" points="605.014,770.125,468.986,770.125,468.986,816.875,513.903,801.458,513.694,801.458,513.694,785.653,559.903,785.653,605.014,770.125" stroke-width="0"/>
        <polyline fill="#666666" points="432.75,770.125,296.722,770.125,296.722,816.875,341.639,801.458,341.431,801.458,341.431,785.653,387.625,785.653,432.75,770.125" stroke-width="0"/>
        <polyline fill="#666666" points="260.5,770.125,124.458,770.125,124.458,816.875,169.361,801.458,169.153,801.458,169.153,785.653,215.347,785.653,260.5,770.125" stroke-width="0"/>
        <polyline fill="#666666" points="88.2361,770.125,-47.8056,770.125,-47.8056,816.875,-2.88889,801.458,-3.11111,801.458,-3.11111,785.653,43.1111,785.653,88.2361,770.125" stroke-width="0"/>
        <polyline fill="#B3B3B3" points="1249.53,785.653,1249.01,785.653,1202.75,785.653,1202.75,801.458,1202.94,801.458,1249.53,801.458,1249.53,785.653" stroke-width="0"/>
        <polyline fill="#B3B3B3" points="1077.26,785.653,1076.74,785.653,1030.47,785.653,1030.47,801.458,1030.68,801.458,1077.26,801.458,1077.26,785.653" stroke-width="0"/>
        <polyline fill="#B3B3B3" points="905,785.653,904.403,785.653,858.208,785.653,858.208,801.458,858.444,801.458,905,801.458,905,785.653" stroke-width="0"/>
        <polyline fill="#B3B3B3" points="732.722,785.653,732.167,785.653,685.958,785.653,685.958,801.458,686.153,801.458,732.722,801.458,732.722,785.653" stroke-width="0"/>
        <polyline fill="#B3B3B3" points="560.472,785.653,559.903,785.653,513.694,785.653,513.694,801.458,513.903,801.458,560.472,801.458,560.472,785.653" stroke-width="0"/>
        <polyline fill="#B3B3B3" points="388.194,785.653,387.625,785.653,341.431,785.653,341.431,801.458,341.639,801.458,388.194,801.458,388.194,785.653" stroke-width="0"/>
        <polyline fill="#B3B3B3" points="215.931,785.653,215.347,785.653,169.153,785.653,169.153,801.458,169.361,801.458,215.931,801.458,215.931,785.653" stroke-width="0"/>
        <polyline fill="#B3B3B3" points="43.6806,785.653,43.1111,785.653,-3.11111,785.653,-3.11111,801.458,-2.88889,801.458,43.6806,801.458,43.6806,785.653" stroke-width="0"/>
        <polyline fill="#4D4D4D" points="1248.19,645.361,-16.9167,645.361,-16.9167,754.028,1248.19,754.028,1248.19,645.361" stroke-width="0"/>
        <polyline fill="#333333" points="1248.19,649.083,-16.9167,649.083,-16.9167,645.361,1248.19,645.361,1248.19,649.083" stroke-width="0"/>
        <path fill="#999999" stroke-width="0" d="M1208.4,559.903L1198.61,560.361c0.708333,3.20833,3.16667,5.68056,7.18056,7.44444c-3.04167,-1.68056,-4.79167,-3.90278,-5.58333,-6.63889l8.52778,-0.375C1208.58,560.5,1208.5,560.194,1208.4,559.903M1243,551.264c-0.541667,0.444444,-1.08333,0.833333,-1.70833,1.19444c-0.138889,1.77778,-0.666667,3.47222,-1.41667,5.20833c-1.06944,2.02778,-2.38889,3.65278,-3.86111,4.84722c-1.47222,1.16667,-3.41667,2.13889,-5.81944,2.83333c-2.375,0.75,-5,1.08333,-8.13889,1.08333c-3.47222,0,-6.27778,-0.416667,-8.58333,-1.33333c0.444444,0.25,0.861111,0.472222,1.31944,0.680556c2.375,1.02778,5.33333,1.48611,8.88889,1.48611c3.13889,0,5.95833,-0.305556,8.36111,-1.05556c2.19444,-0.722222,4.16667,-1.625,5.625,-2.90278c1.61111,-1.16667,2.80556,-2.72222,3.81944,-4.80556c1.06944,-2.02778,1.51389,-4.09722,1.51389,-6.18056L1243,551.264M1235.17,535.028c0.0694444,0.0416667,0.180556,0.0972222,0.25,0.166667c3.13889,1.69444,4.76389,4,4.76389,6.90278c0,2.875,-1.48611,5.19444,-4.59722,6.80556c-2.97222,1.65278,-6.83333,2.47222,-11.5972,2.47222c-4.08333,0,-7.66667,-0.652778,-10.6389,-1.93056c0.208333,0.111111,0.444444,0.236111,0.694444,0.361111c3.13889,1.625,7,2.45833,11.75,2.45833c4.58333,0,8.44444,-0.833333,11.5556,-2.45833c2.98611,-1.625,4.47222,-3.93056,4.47222,-6.83333c0,-2.95833,-1.48611,-5.26389,-4.61111,-6.97222C1236.53,535.625,1235.83,535.333,1235.17,535.028M1223.1,528.444c-7.40278,0,-13.6528,1.23611,-18.5556,3.76389c-5.05556,2.61111,-7.41667,5.95833,-7.41667,10.1667c0,4,2.36111,7.29167,7.125,9.80556c0.444444,0.236111,0.902778,0.472222,1.34722,0.680556c-4.56944,-2.44444,-6.83333,-5.66667,-6.83333,-9.65278c0,-4.15278,2.54167,-7.58333,7.43056,-10.1111c4.90278,-2.59722,11.125,-3.86111,18.5694,-3.86111c5.36111,0,10.25,0.75,14.6944,2.16667c1.23611,0.388889,2.40278,0.861111,3.47222,1.36111c-1.5,-0.847222,-3.22222,-1.58333,-5.13889,-2.18056C1233.35,529.083,1228.43,528.444,1223.1,528.444"/>
        <path fill="#999999" stroke-width="0" d="M1022.47,538.444c-0.555556,0.291667,-1.15278,0.527778,-1.80556,0.791667l0,30.7222l1.80556,0L1022.47,538.444M1030.94,528.444l-6.52778,0c-1.81944,1.77778,-4.77778,3.55556,-9.09722,5.5c-4.27778,1.90278,-9.16667,3.45833,-14.8194,4.80556l0,4.88889c0.527778,-0.0833333,1.06944,-0.208333,1.63889,-0.291667l0,-3.70833c5.77778,-1.30556,10.6806,-2.97222,14.8333,-4.81944c4.31944,-1.94444,7.27778,-3.79167,9.02778,-5.56944l4.93056,0L1030.93,528.444"/>
        <path fill="#999999" stroke-width="0" d="M1094.71,535.319c0.305556,0.180556,0.638889,0.388889,0.944444,0.638889c3.13889,2.27778,4.77778,6.70833,4.77778,13.5556c0,6.76389,-1.63889,11.2917,-4.77778,13.5417c-3.25,2.30556,-7.125,3.38889,-11.8611,3.38889c-3.19444,0,-6.02778,-0.513889,-8.54167,-1.61111c2.83333,1.61111,6.23611,2.45833,10.3194,2.45833c4.59722,0,8.61111,-1.11111,11.7222,-3.375c3.13889,-2.26389,4.77778,-6.72222,4.77778,-13.4861c0,-6.81944,-1.63889,-11.3472,-4.77778,-13.5972C1096.49,536.222,1095.64,535.722,1094.71,535.319M1083.81,528.444c-5.95833,0,-10.9861,0.736111,-14.8472,2.36111c-4,1.65278,-7,3.91667,-9.05556,6.91667c-1.94444,2.97222,-2.97222,6.88889,-2.97222,11.7917c0,7.80556,2.68056,13.375,8.15278,16.8056c0.652778,0.388889,1.36111,0.791667,2.05556,1.125c-0.111111,-0.0833333,-0.291667,-0.166667,-0.402778,-0.25c-5.36111,-3.51389,-8.19444,-9.04167,-8.19444,-16.7778c0,-4.90278,1.06944,-8.86111,3.125,-11.8333c1.94444,-3.04167,4.91667,-5.25,8.94444,-6.90278c3.98611,-1.625,8.875,-2.44444,14.9861,-2.44444c4.44444,0,8.30556,0.430556,11.7222,1.34722c1.38889,0.388889,2.70833,0.847222,3.88889,1.36111c-1.61111,-0.902778,-3.48611,-1.59722,-5.65278,-2.16667C1092.11,528.875,1088.26,528.444,1083.81,528.444"/>
        <path fill="#999999" stroke-width="0" d="M854.486,538.444c-0.541667,0.277778,-1.15278,0.5,-1.76389,0.777778l0,30.7361l1.76389,0L854.486,538.444M862.986,528.444l-6.55556,0c-1.77778,1.77778,-4.90278,3.55556,-9.04167,5.5c-4.31944,1.90278,-9.22222,3.45833,-14.8611,4.80556l0,4.88889c0.527778,-0.0833333,1.08333,-0.208333,1.63889,-0.291667l0,-3.70833c5.63889,-1.30556,10.6944,-2.97222,14.8194,-4.81944c4.33333,-1.94444,7.30556,-3.79167,9.09722,-5.56944l4.90278,0L862.986,528.444"/>
        <path fill="#999999" stroke-width="0" d="M910.208,538.444c-0.569444,0.277778,-1.16667,0.5,-1.79167,0.777778l0,30.7361l1.79167,0L910.208,538.444M918.514,528.444l-6.55556,0c-1.59722,1.77778,-4.72222,3.55556,-8.90278,5.5c-4.30556,1.90278,-9.19444,3.45833,-15.0139,4.80556l0,4.88889c0.583333,-0.0833333,1.19444,-0.208333,1.81944,-0.305556l0,-3.69444c5.63889,-1.30556,10.6667,-2.97222,14.8056,-4.81944c4.33333,-1.94444,7.27778,-3.79167,9.08333,-5.56944l4.75,0L918.5,528.444"/>
        <path fill="#999999" stroke-width="0" d="M677.944,538.444c-0.555556,0.291667,-1.125,0.527778,-1.77778,0.791667l0,30.7222l1.77778,0L677.944,538.444M686.403,528.444L679.861,528.444c-1.77778,1.77778,-4.73611,3.55556,-9.05556,5.5c-4.30556,1.90278,-9.20833,3.45833,-14.8472,4.80556l0,4.88889c0.541667,-0.0833333,1.09722,-0.208333,1.63889,-0.291667l0,-3.70833c5.76389,-1.30556,10.7083,-2.97222,14.8472,-4.81944c4.29167,-1.94444,7.26389,-3.79167,9.05556,-5.56944l4.90278,0L686.403,528.444"/>
        <path fill="#999999" stroke-width="0" d="M765.694,565.042l-37.6806,0c-0.388889,0.291667,-0.75,0.541667,-1.08333,0.805556l38.7639,0L765.694,565.042M751.903,535.222c2.125,1.30556,3.22222,2.81944,3.22222,4.56944c0,1.84722,-1.58333,3.94444,-4.70833,6.08333c-3.13889,2.13889,-9.22222,5.04167,-18.125,8.76389c-5.80556,2.36111,-10.25,4.47222,-13.375,6.22222c-3.125,1.79167,-5.36111,3.63889,-6.66667,5.5c-0.888889,1.11111,-1.19444,2.30556,-1.19444,3.58333l1.77778,0c0.0972222,-0.902778,0.513889,-1.83333,1.18056,-2.66667c1.33333,-1.875,3.55556,-3.72222,6.68056,-5.5c2.97222,-1.86111,7.44444,-3.94444,13.1944,-6.30556c9.06944,-3.65278,15.0139,-6.625,18.2778,-8.76389c3.125,-2.13889,4.79167,-4.15278,4.79167,-6.08333c0,-2.02778,-1.51389,-3.72222,-4.34722,-5.05556C752.375,535.458,752.153,535.361,751.903,535.222M739.875,528.444c-7.90278,0,-14.1389,0.972222,-18.8889,3.05556c-4.56944,1.98611,-7.23611,4.93056,-8,8.90278l1.93056,0.0972222c0.791667,-3.5,3.44444,-6.25,7.88889,-8.19444c4.59722,-2,10.8194,-3.05556,18.6806,-3.05556c8.04167,0,14.2778,1.11111,18.875,3.34722c0.0833333,0.0416667,0.0972222,0.0694444,0.152778,0.0833333c-0.541667,-0.319444,-1.13889,-0.680556,-1.77778,-0.986111C754.111,529.472,747.722,528.444,739.875,528.444"/>
        <path fill="#999999" stroke-width="0" d="M505.667,538.444c-0.541667,0.291667,-1.13889,0.527778,-1.76389,0.791667l0,30.7222l1.76389,0L505.667,538.444M514.139,528.444l-6.54167,0c-1.77778,1.77778,-4.75,3.55556,-9.06944,5.5c-4.30556,1.90278,-9.20833,3.45833,-14.8472,4.80556l0,4.88889c0.541667,-0.0833333,1.08333,-0.208333,1.65278,-0.291667l0,-3.70833c5.77778,-1.30556,10.6944,-2.97222,14.8472,-4.81944c4.30556,-1.94444,7.26389,-3.79167,9.04167,-5.56944l4.91667,0L514.139,528.444"/>
        <path fill="#999999" stroke-width="0" d="M550.361,558.347l-10.25,0.666667c0.736111,3.43056,3.40278,6.22222,8.15278,8.38889c0.236111,0.125,0.472222,0.208333,0.708333,0.291667c-4.08333,-2.05556,-6.54167,-4.69444,-7.06944,-7.86111l8.83333,-0.555556C550.611,558.944,550.486,558.667,550.361,558.347M580.181,552.722c2.19444,1.36111,3.29167,3.08333,3.29167,5.09722c0,2.47222,-1.625,4.47222,-4.90278,6.18056c-3.26389,1.625,-7.27778,2.43056,-12.0417,2.43056c-4,0,-7.41667,-0.652778,-10.2361,-1.93056l-0.0138889,0c0.513889,0.333333,1.05556,0.638889,1.63889,0.888889c2.81944,1.27778,6.23611,1.875,10.25,1.875c4.75,0,8.76389,-0.847222,12.1528,-2.45833c3.27778,-1.63889,4.91667,-3.70833,4.91667,-6.16667c0,-2.31944,-1.5,-4.23611,-4.625,-5.72222C580.514,552.861,580.347,552.778,580.181,552.722M582.069,548.014c-0.5,0.138889,-1.01389,0.291667,-1.54167,0.375c3.5,0.388889,6.47222,1.09722,8.875,2.13889C587.444,549.417,585.028,548.583,582.069,548.014M577.097,535.014c1.80556,1.08333,2.68056,2.48611,2.68056,4.05556c0,2.29167,-1.63889,4.06944,-5.19444,5.18056c-3.41667,1.09722,-7.29167,1.70833,-11.5833,1.70833l-1.63889,-0.0694444l-1.18056,4.44444c0.694444,-0.0972222,1.38889,-0.166667,2.04167,-0.263889l0.777778,-3.29167l1.63889,0c4.30556,0,8.31944,-0.513889,11.7222,-1.63889c3.43056,-1.18056,5.20833,-2.88889,5.20833,-5.26389c0,-1.875,-1.33333,-3.44444,-3.86111,-4.59722C577.5,535.181,577.292,535.069,577.097,535.014M566.111,528.444c-6.55556,0,-12.0278,0.875,-16.4861,2.72222c-4.45833,1.94444,-7.27778,4.52778,-8.47222,7.94444l2.04167,0.180556c1.29167,-3.05556,4.04167,-5.48611,8.20833,-7.23611c4.31944,-1.83333,9.80556,-2.80556,16.3333,-2.80556c4.625,0,8.61111,0.527778,12.4861,1.5c1.84722,0.430556,3.47222,1,4.88889,1.59722c-1.76389,-1,-4,-1.83333,-6.66667,-2.52778C574.722,528.875,570.569,528.444,566.111,528.444"/>
        <path fill="#999999" stroke-width="0" d="M333.403,538.444c-0.541667,0.291667,-1.13889,0.527778,-1.77778,0.791667l0,30.7222l1.77778,0L333.403,538.444M341.875,528.444l-6.54167,0c-1.77778,1.77778,-4.75,3.55556,-9.05556,5.5c-4.30556,1.90278,-9.22222,3.45833,-14.8611,4.80556l0,4.88889c0.541667,-0.0833333,1.09722,-0.208333,1.63889,-0.291667l0,-3.70833c5.80556,-1.30556,10.6944,-2.97222,14.8472,-4.81944c4.30556,-1.94444,7.27778,-3.79167,9.05556,-5.56944l4.91667,0L341.875,528.444"/>
        <path fill="#999999" stroke-width="0" d="M402.167,560.875l-1.79167,0l0,9.06944l1.79167,0L402.167,560.875M421.764,555.389l-9.51389,0l0,0.819444l9.51389,0L421.764,555.389M402.167,537.556l-1.79167,1.30556l0,16.5278l-23.0694,0l-1.15278,0.819444l26,0L402.153,537.556M410.472,528.583l-8.30556,0l-37.7222,26.8194l0,4.58333l1.76389,0l0,-3.76389l37.7361,-26.7917l6.52778,0L410.472,528.583"/>
        <path fill="#999999" stroke-width="0" d="M161.153,538.444c-0.555556,0.291667,-1.15278,0.527778,-1.79167,0.791667l0,30.7222l1.79167,0L161.153,538.444M169.597,528.444l-6.52778,0c-1.79167,1.77778,-4.75,3.55556,-9.06944,5.5c-4.30556,1.90278,-9.20833,3.45833,-14.8472,4.80556l0,4.88889c0.527778,-0.0833333,1.08333,-0.208333,1.625,-0.291667l0,-3.70833c5.79167,-1.30556,10.6944,-2.97222,14.8472,-4.81944c4.30556,-1.94444,7.26389,-3.79167,9.05556,-5.56944l4.90278,0L169.583,528.444"/>
        <path fill="#999999" stroke-width="0" d="M206.292,558.653l-10.6944,0.472222c0.583333,3.375,3.27778,6.06944,7.81944,8.20833c-3.51389,-1.97222,-5.55556,-4.44444,-6.18056,-7.41667l9.36111,-0.375C206.472,559.25,206.375,558.944,206.292,558.653M235.528,549.903c2.75,1.63889,4.02778,3.79167,4.02778,6.43056c0,3.06944,-1.65278,5.5,-5.05556,7.34722c-3.25,1.81944,-7.41667,2.75,-12.3194,2.75c-4.08333,0,-7.44444,-0.625,-10.25,-1.94444c0.458333,0.305556,0.944444,0.583333,1.48611,0.861111c2.97222,1.33333,6.375,1.93056,10.4028,1.93056c4.88889,0,9.05556,-0.902778,12.4583,-2.76389c3.43056,-1.84722,5.04167,-4.31944,5.04167,-7.33333c0,-2.91667,-1.625,-5.125,-4.88889,-6.83333C236.139,550.194,235.833,550.042,235.528,549.903M224.694,542.458c-4.63889,0,-9.09722,0.652778,-13.3056,1.88889l-0.652778,1.61111c5.05556,-1.70833,10.25,-2.59722,15.5972,-2.59722c7.125,0,13.0972,1.20833,17.9444,3.625c-0.430556,-0.236111,-0.861111,-0.5,-1.31944,-0.722222C238.083,543.736,231.972,542.458,224.694,542.458M246.528,529.083l-41.125,0l-8.02778,21.25l2.05556,0.152778l7.59722,-20.5l39.5,0L246.528,529.083"/>
        <path fill="#999999" stroke-width="0" d="M-11.125,538.444c-0.541667,0.291667,-1.13889,0.527778,-1.76389,0.791667l0,30.7222l1.76389,0L-11.125,538.444M-2.65278,528.444l-6.54167,0c-1.77778,1.77778,-4.73611,3.55556,-9.05556,5.5c-4.30556,1.90278,-9.20833,3.45833,-14.8472,4.80556l0,4.88889c0.527778,-0.0833333,1.08333,-0.208333,1.63889,-0.291667l0,-3.70833c5.79167,-1.30556,10.6944,-2.97222,15,-4.81944c4.15278,-1.94444,7.125,-3.79167,8.91667,-5.56944l4.90278,0L-2.63889,528.444"/>
        <path fill="#999999" stroke-width="0" d="M63.125,550.375c2.59722,1.61111,4,3.79167,4,6.41667c0,2.97222,-1.625,5.36111,-4.75,7.05556c-2.97222,1.72222,-6.68056,2.59722,-10.9861,2.59722c-2.98611,0,-5.79167,-0.416667,-8.47222,-1.25c-0.527778,-0.180556,-1.04167,-0.347222,-1.52778,-0.527778c0.986111,0.527778,2.06944,1,3.31944,1.44444c2.66667,0.819444,5.48611,1.18056,8.30556,1.18056c4.30556,0,8.01389,-0.847222,11.1389,-2.54167c3.125,-1.77778,4.61111,-4.15278,4.61111,-7.125c0,-2.81944,-1.48611,-5.05556,-4.61111,-6.68056C63.8194,550.736,63.4861,550.569,63.125,550.375M53.0278,543.056c-3.86111,0,-7.56944,0.541667,-11.1389,1.41667c-2.72222,0.694444,-5.09722,1.63889,-7.125,2.86111c-0.0833333,0.680556,-0.125,1.38889,-0.152778,2.125c2.52778,-1.84722,5.5,-3.27778,9.05556,-4.15278c3.55556,-0.930556,7.125,-1.34722,11.1528,-1.34722c5.75,0,10.8333,0.902778,15.1667,2.75C65.3056,544.292,59.75,543.056,53.0278,543.056M62.7222,535.125c1.34722,0.902778,2.45833,2.26389,3.23611,3.93056l1.15278,-0.0694444c-0.861111,-1.5,-2.01389,-2.61111,-3.375,-3.36111C63.3889,535.472,63.0694,535.292,62.7222,535.125M52.5833,528.444c-8.76389,0,-15.75,1.54167,-20.9444,4.66667c-5.79167,3.63889,-8.75,9.51389,-8.75,17.4583c0,7.11111,2.65278,12.25,8.01389,15.3611c0.5,0.277778,0.986111,0.569444,1.51389,0.805556c-5.26389,-3.11111,-7.90278,-8.20833,-7.90278,-15.2917c0,-8.01389,2.97222,-13.8056,8.91667,-17.4583c5.20833,-3.18056,12.0278,-4.75,20.8056,-4.75c6.51389,0,11.8472,0.875,15.9861,2.73611c-0.527778,-0.305556,-1.11111,-0.583333,-1.73611,-0.875C64.3056,529.319,58.9722,528.444,52.5833,528.444"/>
        <path fill="#999999" stroke-width="0" d="M1226.81,833.375c-0.5,0.25,-1.02778,0.486111,-1.61111,0.722222l0,30.7778l1.61111,0L1226.81,833.375M1235.25,823.375l-6.52778,0c-1.77778,1.76389,-4.76389,3.61111,-9.04167,5.47222c-4.18056,1.94444,-9.22222,3.56944,-14.8611,4.90278l0,4.91667c0.583333,-0.0972222,1.20833,-0.236111,1.79167,-0.375l0,-3.70833c5.65278,-1.34722,10.5556,-2.95833,14.8194,-4.83333c4.18056,-1.94444,7.29167,-3.77778,9.06944,-5.55556l4.75,0L1235.25,823.375"/>
        <path fill="#999999" stroke-width="0" d="M1078.18,859.958l-37.7222,0c-0.402778,0.305556,-0.847222,0.597222,-1.22222,0.916667l38.9444,0L1078.18,859.958M1064.6,830.319c1.97222,1.27778,2.98611,2.72222,2.98611,4.40278c0,1.93056,-1.59722,3.91667,-4.72222,6.08333c-3.15278,2.15278,-9.23611,5.04167,-18.2639,8.75c-5.77778,2.40278,-10.25,4.44444,-13.2222,6.23611c-3.125,1.875,-5.375,3.65278,-6.66667,5.51389c-0.902778,1.08333,-1.34722,2.29167,-1.16667,3.55556l1.68056,0c0.152778,-0.930556,0.555556,-1.81944,1.09722,-2.66667c1.51389,-1.86111,3.73611,-3.73611,6.69444,-5.5c3.11111,-1.86111,7.58333,-3.93056,13.375,-6.29167c8.90278,-3.65278,14.9861,-6.55556,18.125,-8.68056c3.25,-2.16667,4.73611,-4.26389,4.73611,-6.18056c0,-2,-1.31944,-3.72222,-4.29167,-5.04167C1064.83,830.444,1064.68,830.389,1064.6,830.319M1052.32,823.375c-7.84722,0,-14.2639,0.944444,-18.8611,3.02778c-4.59722,2.02778,-7.26389,4.95833,-8,8.93056l1.80556,0.0833333c0.875,-3.54167,3.55556,-6.22222,7.98611,-8.11111c4.61111,-2.06944,10.8333,-3.125,18.7361,-3.125c7.625,0,13.9028,1.05556,18.4583,3.16667c-0.430556,-0.236111,-0.902778,-0.486111,-1.41667,-0.722222C1066.43,824.458,1060.18,823.375,1052.32,823.375"/>
        <path fill="#999999" stroke-width="0" d="M862.653,853.306l-10.0972,0.652778c0.625,3.43056,3.41667,6.23611,8.20833,8.38889c0.125,0.0555556,0.291667,0.152778,0.472222,0.208333c-4.11111,-2.05556,-6.34722,-4.61111,-7.02778,-7.79167l8.88889,-0.569444C862.958,853.917,862.792,853.583,862.653,853.306M892.208,847.472c2.51389,1.44444,3.75,3.15278,3.75,5.29167c0,2.45833,-1.65278,4.45833,-4.91667,6.18056c-3.25,1.61111,-7.26389,2.43056,-12.1667,2.43056c-3.80556,0,-7.06944,-0.541667,-9.79167,-1.72222c0.402778,0.236111,0.875,0.5,1.33333,0.694444c2.81944,1.25,6.25,1.93056,10.2222,1.93056c4.76389,0,8.77778,-0.888889,12.0417,-2.52778c3.27778,-1.625,5.05556,-3.72222,5.05556,-6.15278c0,-2.30556,-1.65278,-4.25,-4.625,-5.70833C892.819,847.708,892.5,847.556,892.208,847.472M894.431,842.944c-0.444444,0.138889,-0.944444,0.277778,-1.45833,0.361111c3.44444,0.375,6.27778,1.09722,8.625,2.06944C899.681,844.319,897.278,843.5,894.431,842.944M889.042,829.736c2.08333,1.125,3.18056,2.56944,3.18056,4.25c0,2.36111,-1.76389,4.08333,-5.18056,5.18056c-3.43056,1.125,-7.41667,1.72222,-11.7361,1.72222l-1.63889,-0.0833333l-1.02778,4.44444c0.666667,-0.0833333,1.31944,-0.166667,1.91667,-0.222222l0.916667,-3.31944l1.59722,0.0555556c4.33333,0,8.19444,-0.597222,11.6111,-1.69444c3.54167,-1.125,5.19444,-2.88889,5.19444,-5.19444c0,-1.93056,-1.19444,-3.43056,-3.72222,-4.68056C889.792,830.042,889.458,829.861,889.042,829.736M878.403,823.375c-6.54167,0,-12,0.875,-16.3333,2.81944c-4.43056,1.86111,-7.27778,4.43056,-8.47222,7.86111l1.98611,0.152778c1.40278,-3.05556,4.15278,-5.5,8.15278,-7.23611c4.43056,-1.84722,9.93056,-2.80556,16.4583,-2.80556c4.44444,0,8.61111,0.541667,12.4861,1.47222c1.79167,0.486111,3.43056,1.02778,4.86111,1.65278c-1.76389,-1.01389,-3.97222,-1.875,-6.63889,-2.54167C887.167,823.792,883.042,823.375,878.403,823.375"/>
        <path fill="#999999" stroke-width="0" d="M714.458,855.792l-1.625,0l0,9.06944l1.625,0L714.458,855.792M734.083,850.319l-9.34722,0l0,0.805556l9.34722,0L734.083,850.319M714.458,832.486l-1.625,1.19444l0,16.625l-23.0833,0l-1.11111,0.805556l25.8194,0L714.458,832.486M722.917,823.514l-8.31944,0l-37.7083,26.8056l0,4.66667l1.77778,0L678.667,851.111l37.75,-26.7222l6.5,0L722.917,823.514"/>
        <path fill="#999999" stroke-width="0" d="M518.583,853.583l-10.5417,0.416667c0.583333,3.5,3.26389,6.26389,8,8.38889c0.180556,0.0972222,0.333333,0.152778,0.513889,0.208333c-3.95833,-1.98611,-6.20833,-4.59722,-6.88889,-7.77778l9.26389,-0.361111C518.806,854.167,518.708,853.889,518.583,853.583M547.431,844.625c3.04167,1.625,4.58333,3.875,4.58333,6.65278c0,3.05556,-1.63889,5.5,-5.05556,7.34722c-3.43056,1.86111,-7.56944,2.73611,-12.4583,2.73611c-3.70833,0,-6.875,-0.541667,-9.68056,-1.63889c0.333333,0.208333,0.680556,0.388889,1.06944,0.541667c2.81944,1.31944,6.375,2,10.3889,2c4.90278,0,9.05556,-0.944444,12.4722,-2.81944c3.27778,-1.77778,5.05556,-4.23611,5.05556,-7.25c0,-2.90278,-1.63889,-5.20833,-4.90278,-6.93056C548.417,845.042,547.931,844.819,547.431,844.625M537.153,837.458c-4.625,0,-9.02778,0.597222,-13.3194,1.81944l-0.638889,1.61111c4.91667,-1.72222,10.1111,-2.61111,15.5972,-2.61111c7.125,0,13.1111,1.23611,17.9583,3.65278c-0.416667,-0.263889,-0.861111,-0.513889,-1.31944,-0.75C550.361,838.75,544.278,837.458,537.153,837.458M558.972,824.111l-41.125,0l-8.02778,21.2361l1.90278,0.111111l7.75,-20.5417l39.5,0L558.972,824.111"/>
        <path fill="#999999" stroke-width="0" d="M375.611,845.361c2.55556,1.59722,3.83333,3.75,3.83333,6.36111c0,2.95833,-1.47222,5.36111,-4.59722,7.06944c-3.125,1.69444,-6.69444,2.58333,-11,2.58333c-2.97222,0,-5.79167,-0.361111,-8.47222,-1.23611c-0.513889,-0.180556,-1,-0.333333,-1.48611,-0.555556c0.972222,0.569444,2.05556,1.02778,3.26389,1.43056c2.66667,0.833333,5.5,1.26389,8.31944,1.26389c4.31944,0,8.02778,-0.888889,11.1389,-2.61111c2.95833,-1.79167,4.61111,-4.06944,4.61111,-7.05556c0,-2.88889,-1.47222,-5.09722,-4.61111,-6.75C376.306,845.667,375.958,845.528,375.611,845.361M365.472,838.069c-3.84722,0,-7.56944,0.458333,-11.1389,1.33333c-2.72222,0.694444,-5.09722,1.69444,-7.125,2.93056c-0.0694444,0.666667,-0.111111,1.31944,-0.138889,2.05556c2.52778,-1.86111,5.5,-3.20833,9.05556,-4.18056c3.41667,-0.888889,7.125,-1.33333,10.9861,-1.33333c5.88889,0,10.9861,0.916667,15.3333,2.75C377.736,839.194,372.042,838.069,365.472,838.069M375.167,830.056c1.31944,0.916667,2.31944,2.25,3.08333,4.01389l1.33333,-0.0694444c-0.861111,-1.52778,-2.02778,-2.69444,-3.41667,-3.43056C375.847,830.361,375.5,830.194,375.167,830.056M364.889,823.375c-8.625,0,-15.5972,1.52778,-20.8056,4.75c-5.93056,3.55556,-8.76389,9.43056,-8.76389,17.3889c0,7.18056,2.66667,12.3056,8.02778,15.3611c0.541667,0.291667,1.09722,0.597222,1.68056,0.875c-0.0138889,0,-0.0277778,-0.0138889,-0.0277778,-0.0138889c-5.34722,-3.125,-8.04167,-8.25,-8.04167,-15.375c0,-8,2.98611,-13.8056,8.91667,-17.4444c5.05556,-3.125,12.0278,-4.75,20.8056,-4.75c6.31944,0,11.5278,0.916667,15.625,2.58333c-0.444444,-0.208333,-0.902778,-0.444444,-1.375,-0.652778C376.764,824.264,371.417,823.375,364.889,823.375"/>
        <path fill="#999999" stroke-width="0" d="M206.292,829.736l-3.04167,0c-4.66667,2.76389,-9.09722,6.11111,-13.1389,10.0417c-4.61111,4.23611,-8.18056,8.69444,-10.5556,13.2778c-2.52778,4.61111,-3.70833,8.52778,-3.86111,11.8194l1.80556,0c0.208333,-3.08333,1.48611,-6.66667,3.69444,-10.9167c2.51389,-4.61111,5.94444,-9.05556,10.5417,-13.3472C196.333,836.264,201.236,832.708,206.292,829.736M217.708,824.028l-53.5972,0l0,4.90278l1.79167,0l0,-4.01389l51.8056,0L217.708,824.028"/>
        <path fill="#999999" stroke-width="0" d="M30.9167,847.347c2.875,1.52778,4.30556,3.5,4.30556,5.70833c0,2.45833,-1.63889,4.44444,-4.75,6.01389c-3.11111,1.56944,-7.13889,2.30556,-12.0278,2.30556c-3.125,0,-6.09722,-0.361111,-8.76389,-1.09722c-0.930556,-0.277778,-1.77778,-0.555556,-2.55556,-0.888889c1.13889,0.75,2.56944,1.31944,4.33333,1.79167c2.68056,0.722222,5.65278,1.09722,8.76389,1.09722c4.75,0,8.75,-0.805556,11.875,-2.38889c3.26389,-1.54167,4.75,-3.54167,4.75,-5.93056c0,-2.45833,-1.625,-4.43056,-4.75,-6.08333C31.7083,847.681,31.3056,847.514,30.9167,847.347M32.9306,843.014c-0.416667,0.0694444,-0.833333,0.166667,-1.27778,0.25c3.55556,0.597222,6.47222,1.43056,8.79167,2.45833C38.4444,844.597,35.9306,843.667,32.9306,843.014M5.54167,842.639c-4.40278,0.680556,-7.86111,1.83333,-10.4306,3.51389c-2.66667,1.80556,-4.01389,4.09722,-4.01389,6.76389c0,3.55556,2.52778,6.61111,7.41667,9.05556c0.375,0.180556,0.777778,0.361111,1.18056,0.513889c-4.63889,-2.33333,-6.97222,-5.27778,-6.97222,-8.76389c0,-2.68056,1.48611,-4.90278,4.15278,-6.75c2.66667,-1.80556,6.54167,-3.05556,11.5833,-3.72222C7.44444,843.069,6.47222,842.875,5.54167,842.639M28.7639,829.917c1.98611,1.18056,3.02778,2.58333,3.02778,4.23611c0,1.76389,-1.33333,3.25,-3.86111,4.5c-2.38889,1.20833,-5.63889,1.86111,-9.5,1.86111c-3.65278,0,-6.66667,-0.555556,-9.09722,-1.54167c0.291667,0.180556,0.583333,0.333333,0.916667,0.5c2.52778,1.27778,5.79167,1.86111,9.80556,1.86111c4,0,7.125,-0.583333,9.65278,-1.86111c2.52778,-1.19444,3.70833,-2.73611,3.70833,-4.5c0,-1.875,-1.18056,-3.41667,-3.84722,-4.69444C29.3056,830.139,29.0417,830.028,28.7639,829.917M18.125,823.375c-7.125,0,-12.9167,1.01389,-17.2222,3.02778c-4.31944,2.08333,-6.54167,4.61111,-6.54167,7.58333c0,2.02778,1.04167,3.70833,3.125,5.125c0.638889,0.5,1.47222,0.958333,2.40278,1.375c-0.277778,-0.166667,-0.541667,-0.333333,-0.777778,-0.486111c-1.93056,-1.41667,-2.97222,-3.125,-2.97222,-5.11111c0,-3.06944,2.06944,-5.58333,6.375,-7.58333c4.45833,-2.06944,10.1111,-3.125,17.3889,-3.125c7.125,0,12.9167,1.04167,17.375,3.18056c0.0277778,0.0416667,0.0694444,0.0555556,0.111111,0.0833333c-0.541667,-0.319444,-1.11111,-0.666667,-1.76389,-0.944444C31.1944,824.389,25.4167,823.375,18.125,823.375"/>
        <path fill="#666666" stroke-width="0" d="M1213.33,549.458c-2.83333,-1.61111,-4.20833,-3.63889,-4.20833,-6.08333c0,-2.91667,1.79167,-5.27778,5.05556,-7.13889c3.43056,-1.84722,7.23611,-2.75,11.7222,-2.75c3.54167,0,6.56944,0.513889,9.25,1.55556c0.680556,0.291667,1.375,0.597222,2.02778,0.972222c3.125,1.70833,4.61111,4.01389,4.61111,6.97222c0,2.90278,-1.48611,5.20833,-4.47222,6.83333c-3.11111,1.625,-6.97222,2.45833,-11.5556,2.45833c-4.75,0,-8.61111,-0.833333,-11.75,-2.45833C1213.79,549.681,1213.54,549.556,1213.33,549.458M1224.75,529.236c-7.44444,0,-13.6667,1.27778,-18.5694,3.86111c-4.90278,2.52778,-7.43056,5.95833,-7.43056,10.1111c0,3.98611,2.26389,7.22222,6.83333,9.65278c0.111111,0.0416667,0.208333,0.0972222,0.291667,0.138889c4.73611,2.54167,10.5417,3.72222,17.3889,3.72222c4.15278,0,7.86111,-0.444444,11.4028,-1.47222c2.65278,-0.791667,4.88889,-1.68056,6.625,-2.77778c0.625,-0.361111,1.16667,-0.75,1.70833,-1.19444l0,1.05556c0,2.08333,-0.444444,4.16667,-1.51389,6.18056c-1.01389,2.06944,-2.20833,3.63889,-3.81944,4.80556c-1.45833,1.27778,-3.43056,2.18056,-5.625,2.90278c-2.40278,0.75,-5.22222,1.05556,-8.36111,1.05556c-3.55556,0,-6.51389,-0.458333,-8.88889,-1.48611c-0.458333,-0.208333,-0.875,-0.430556,-1.31944,-0.680556c-1.625,-1.05556,-2.72222,-2.52778,-3.43056,-4.38889l-1.31944,0.0833333l-8.52778,0.375c0.805556,2.72222,2.55556,4.94444,5.58333,6.63889c0.597222,0.333333,1.19444,0.652778,1.84722,0.944444c4.19444,1.84722,9.36111,2.72222,15.9167,2.72222c6.08333,0,11.4444,-0.805556,15.8889,-2.43056c4.61111,-1.63889,8.01389,-4.06944,10.25,-7.22222c2.22222,-3.11111,3.40278,-7.34722,3.40278,-12.6111c0,-5.04167,-1.18056,-8.91667,-3.40278,-11.5833c-1.73611,-1.94444,-3.94444,-3.56944,-6.77778,-4.875c-1.06944,-0.5,-2.23611,-0.958333,-3.47222,-1.36111C1235,529.986,1230.1,529.236,1224.75,529.236"/>
        <path fill="#666666" stroke-width="0" d="M1032.56,529.236l-1.61111,0l-4.93056,0c-1.75,1.77778,-4.72222,3.63889,-9.02778,5.56944c-4.16667,1.84722,-9.05556,3.51389,-14.8333,4.81944l0,3.70833l0,1.22222c3.125,-0.597222,6.81944,-1.5,10.6806,-2.61111c3.11111,-0.888889,5.75,-1.83333,7.86111,-2.70833c0.652778,-0.263889,1.25,-0.5,1.80556,-0.791667l0,31.5139l0,0.805556l10.0833,0L1032.58,529.236"/>
        <path fill="#666666" stroke-width="0" d="M1075.26,564.819c-0.486111,-0.263889,-0.958333,-0.583333,-1.43056,-0.916667c-3.23611,-2.20833,-4.73611,-6.72222,-4.73611,-13.4861c0,-6.81944,1.59722,-11.4444,5.19444,-13.9861c2.79167,-1.97222,6.52778,-2.95833,11.125,-2.95833c3.54167,0,6.63889,0.611111,9.29167,1.84722c0.916667,0.402778,1.77778,0.902778,2.59722,1.48611c3.13889,2.25,4.77778,6.77778,4.77778,13.5972c0,6.75,-1.63889,11.2222,-4.77778,13.4861c-3.11111,2.26389,-7.125,3.375,-11.7222,3.375C1081.5,567.278,1078.1,566.431,1075.26,564.819M1085.58,529.236c-6.11111,0,-11,0.819444,-14.9861,2.44444c-4.02778,1.65278,-7,3.86111,-8.94444,6.90278c-2.04167,2.97222,-3.125,6.93056,-3.125,11.8333c0,7.73611,2.83333,13.2639,8.19444,16.7778c0.125,0.0833333,0.291667,0.166667,0.402778,0.25c4.56944,2.63889,10.6667,4.04167,18.4444,4.04167c6.08333,0,10.9861,-0.805556,14.9722,-2.43056c4.04167,-1.63889,7.01389,-3.93056,8.94444,-6.90278c2.05556,-2.98611,2.97222,-6.90278,2.97222,-11.7361c0,-4.15278,-0.583333,-7.43056,-1.79167,-9.80556c-1.18056,-2.44444,-2.95833,-4.44444,-5.20833,-6.13889c-1.20833,-0.986111,-2.61111,-1.81944,-4.27778,-2.52778c-1.18056,-0.513889,-2.51389,-0.958333,-3.88889,-1.36111C1093.89,529.681,1090.03,529.236,1085.58,529.236"/>
        <path fill="#666666" stroke-width="0" d="M864.583,529.236l-1.59722,0l-4.90278,0c-1.79167,1.77778,-4.77778,3.63889,-9.09722,5.56944c-4.13889,1.84722,-9.18056,3.51389,-14.8194,4.81944l0,3.70833l0,1.22222c3.11111,-0.597222,6.66667,-1.5,10.6944,-2.61111c3.125,-0.902778,5.69444,-1.84722,7.875,-2.72222c0.611111,-0.277778,1.22222,-0.5,1.76389,-0.777778l0,31.5139l0,0.805556l10.0972,0L864.597,529.236"/>
        <path fill="#666666" stroke-width="0" d="M920.278,529.236l-1.76389,0l-4.75,0c-1.80556,1.77778,-4.76389,3.63889,-9.08333,5.56944c-4.15278,1.84722,-9.16667,3.51389,-14.8056,4.81944l0,3.69444l0,1.23611c3.11111,-0.597222,6.66667,-1.5,10.6667,-2.61111c3.13889,-0.902778,5.69444,-1.84722,7.88889,-2.72222c0.625,-0.277778,1.22222,-0.5,1.79167,-0.777778l0,31.5139l0,0.805556l10.0694,0L920.292,529.236"/>
        <path fill="#666666" stroke-width="0" d="M688.014,529.236l-1.61111,0l-4.90278,0c-1.79167,1.77778,-4.77778,3.63889,-9.05556,5.56944c-4.15278,1.84722,-9.08333,3.51389,-14.8472,4.81944l0,3.70833l0,1.22222c3.125,-0.597222,6.83333,-1.5,10.7083,-2.61111c3.08333,-0.888889,5.69444,-1.83333,7.86111,-2.70833c0.652778,-0.263889,1.22222,-0.5,1.77778,-0.791667l0,31.5139l0,0.805556l10.0833,0L688.028,529.236"/>
        <path fill="#666666" stroke-width="0" d="M741.486,529.236c-7.84722,0,-14.0833,1.05556,-18.6806,3.05556c-4.44444,1.94444,-7.11111,4.69444,-7.88889,8.19444c-0.0833333,0.236111,-0.111111,0.444444,-0.138889,0.722222l10.3611,0.527778c0,-2.61111,1.48611,-4.61111,4.48611,-6.09722c2.95833,-1.47222,6.80556,-2.15278,11.7083,-2.15278c4.26389,0,7.73611,0.569444,10.5694,1.75c0.263889,0.138889,0.472222,0.236111,0.736111,0.319444c2.81944,1.34722,4.34722,3.04167,4.34722,5.05556c0,1.94444,-1.66667,3.94444,-4.79167,6.08333c-3.26389,2.13889,-9.20833,5.11111,-18.2778,8.76389c-5.75,2.36111,-10.2222,4.44444,-13.1944,6.30556c-3.13889,1.79167,-5.36111,3.63889,-6.68056,5.5c-0.666667,0.847222,-1.08333,1.76389,-1.18056,2.66667c-0.0416667,0.277778,-0.0416667,0.527778,0,0.805556l54.6667,0L767.528,565.833l-1.80556,0l-38.7639,0c0.333333,-0.263889,0.694444,-0.513889,1.08333,-0.805556c0.902778,-0.625,1.94444,-1.27778,3.11111,-1.91667c1.75,-0.902778,5.61111,-2.61111,11.7222,-5.20833c7.38889,-3.05556,12.6111,-5.5,15.7361,-7.27778c3.125,-1.72222,5.34722,-3.40278,6.69444,-5.04167c1.30556,-1.56944,2.06944,-3.19444,2.06944,-4.83333c0,-3.20833,-2.34722,-5.94444,-6.83333,-8.08333c-0.0555556,-0.0138889,-0.0694444,-0.0416667,-0.152778,-0.0833333C755.764,530.361,749.528,529.236,741.486,529.236"/>
        <path fill="#666666" stroke-width="0" d="M515.764,529.236l-1.625,0l-4.91667,0c-1.77778,1.77778,-4.75,3.63889,-9.04167,5.56944c-4.16667,1.84722,-9.06944,3.51389,-14.8472,4.81944l0,3.70833l0,1.22222c3.11111,-0.597222,6.81944,-1.5,10.6944,-2.61111c3.06944,-0.888889,5.73611,-1.83333,7.875,-2.70833c0.638889,-0.263889,1.23611,-0.5,1.76389,-0.791667l0,31.5139l0,0.805556l10.1111,0L515.778,529.236"/>
        <path fill="#666666" stroke-width="0" d="M567.736,529.236c-6.52778,0,-12.0139,0.972222,-16.3333,2.80556c-4.16667,1.76389,-6.91667,4.19444,-8.20833,7.23611c-0.0972222,0.222222,-0.180556,0.444444,-0.263889,0.638889l10.1111,0.972222c0.736111,-2.52778,2.375,-4.375,5.04167,-5.625c2.66667,-1.20833,5.93056,-1.88889,9.95833,-1.88889c3.55556,0,6.61111,0.597222,9.04167,1.61111c0.208333,0.0694444,0.402778,0.180556,0.597222,0.277778c2.52778,1.15278,3.86111,2.72222,3.86111,4.59722c0,2.375,-1.77778,4.08333,-5.20833,5.26389c-3.40278,1.125,-7.41667,1.63889,-11.7222,1.63889l-1.63889,0l-0.777778,3.29167l-0.263889,1.13889c2.81944,-0.416667,5.19444,-0.583333,7.125,-0.583333c4.36111,0,8.19444,0.638889,11.1111,2.08333c0.166667,0.0555556,0.333333,0.138889,0.472222,0.208333c3.11111,1.48611,4.625,3.40278,4.625,5.72222c0,2.47222,-1.63889,4.52778,-4.91667,6.16667c-3.40278,1.61111,-7.41667,2.45833,-12.1528,2.45833c-4.01389,0,-7.43056,-0.597222,-10.25,-1.875c-0.583333,-0.263889,-1.13889,-0.555556,-1.63889,-0.888889c-1.95833,-1.27778,-3.36111,-3.02778,-4.29167,-5.34722l-1.26389,0.111111l-8.83333,0.555556c0.541667,3.18056,2.98611,5.80556,7.06944,7.86111c0.347222,0.194444,0.708333,0.361111,1.09722,0.541667c4.75,2.15278,10.8333,3.23611,18.125,3.23611c8.01389,0,14.6944,-1.25,19.8889,-3.77778c5.34722,-2.51389,7.875,-5.54167,7.875,-9.09722c0,-2.68056,-1.34722,-4.91667,-4.02778,-6.69444c-0.75,-0.5,-1.61111,-0.944444,-2.54167,-1.36111c-2.38889,-1.04167,-5.375,-1.75,-8.875,-2.13889c0.527778,-0.0972222,1.04167,-0.25,1.54167,-0.375c3.08333,-0.847222,5.38889,-1.90278,7.06944,-3.18056c1.91667,-1.41667,2.80556,-3.04167,2.80556,-4.81944c0,-1.94444,-1.02778,-3.63889,-2.95833,-5.36111c-1.06944,-0.875,-2.34722,-1.66667,-3.875,-2.31944c-1.41667,-0.597222,-3.02778,-1.16667,-4.88889,-1.59722C576.347,529.778,572.347,529.236,567.736,529.236"/>
        <path fill="#666666" stroke-width="0" d="M343.5,529.236l-1.625,0l-4.91667,0c-1.77778,1.77778,-4.75,3.63889,-9.05556,5.56944c-4.15278,1.84722,-9.04167,3.51389,-14.8472,4.81944l0,3.70833l0,1.22222c3.125,-0.597222,6.83333,-1.5,10.6944,-2.61111c3.08333,-0.888889,5.73611,-1.83333,7.86111,-2.70833c0.652778,-0.263889,1.23611,-0.5,1.77778,-0.791667l0,31.5139l0,0.805556l10.0972,0L343.486,529.236"/>
        <path fill="#666666" stroke-width="0" d="M400.375,538.861l1.79167,-1.30556l0,18.6528l-26,0l1.15278,-0.819444L400.375,538.861M412.25,529.417l-1.77778,0l-6.52778,0l-37.7361,26.7917l0,3.76389l0,0.888889l34.1528,0l1.79167,0l0,9.06944l0,0.805556l10.0833,0l0,-9.875l11.1389,0l0,-4.66667l-1.63889,0l-9.51389,0l0,-0.819444L412.222,529.417"/>
        <path fill="#666666" stroke-width="0" d="M171.236,529.236l-1.63889,0l-4.90278,0c-1.77778,1.77778,-4.75,3.63889,-9.05556,5.56944c-4.15278,1.84722,-9.05556,3.51389,-14.8472,4.81944l0,3.70833l0,1.22222c3.26389,-0.597222,6.83333,-1.5,10.6944,-2.61111c3.08333,-0.888889,5.73611,-1.83333,7.86111,-2.70833c0.638889,-0.263889,1.23611,-0.5,1.79167,-0.791667l0,31.5139l0,0.805556l10.0972,0L171.236,529.236"/>
        <path fill="#666666" stroke-width="0" d="M248.167,529.986L246.528,529.986l-39.5,0l-7.59722,20.5l-0.277778,0.736111l9.5,0.597222c1.48611,-1.18056,3.55556,-2.125,6.08333,-2.90278c2.68056,-0.722222,5.63889,-1.08333,8.91667,-1.08333c4.86111,0,8.75,0.708333,11.8611,2.06944c0.305556,0.138889,0.597222,0.291667,0.888889,0.430556c3.26389,1.70833,4.88889,3.91667,4.88889,6.83333c0,3.02778,-1.625,5.5,-5.04167,7.33333c-3.41667,1.86111,-7.58333,2.76389,-12.4583,2.76389c-4.01389,0,-7.41667,-0.597222,-10.4028,-1.93056c-0.541667,-0.277778,-1.02778,-0.541667,-1.48611,-0.861111c-2.01389,-1.26389,-3.40278,-2.88889,-4.01389,-5.01389l-1.31944,0.0555556L197.222,559.903c0.625,2.97222,2.66667,5.45833,6.18056,7.41667c0.611111,0.333333,1.27778,0.680556,1.98611,0.958333c4.75,2.09722,11,3.18056,18.4167,3.18056c9.20833,0,16.4861,-1.69444,21.8333,-5.04167c4.31944,-2.75,6.54167,-5.93056,6.54167,-9.70833c0,-3.94444,-2.52778,-7.125,-7.58333,-9.56944c-0.0972222,-0.0555556,-0.194444,-0.0972222,-0.305556,-0.166667c-4.84722,-2.41667,-10.8333,-3.625,-17.9444,-3.625c-5.34722,0,-10.5417,0.875,-15.5972,2.59722l0.652778,-1.61111l3.80556,-9.52778l32.9861,0L248.194,529.986"/>
        <path fill="#666666" stroke-width="0" d="M-1.02778,529.236l-1.63889,0l-4.90278,0c-1.79167,1.77778,-4.76389,3.63889,-8.91667,5.56944c-4.30556,1.84722,-9.20833,3.51389,-15,4.81944l0,3.70833l0,1.22222c3.26389,-0.597222,6.81944,-1.5,10.6944,-2.61111c3.08333,-0.888889,5.73611,-1.83333,7.875,-2.70833c0.625,-0.263889,1.22222,-0.5,1.76389,-0.791667l0,31.5139l0,0.805556l10.1111,0L-1.04167,529.236"/>
        <path fill="#666666" stroke-width="0" d="M41.3889,564.653c-1.125,-0.652778,-2.125,-1.43056,-2.91667,-2.29167c-1.48611,-1.56944,-2.23611,-3.23611,-2.23611,-4.95833c0,-2.66667,1.63889,-4.84722,4.75,-6.47222c3.26389,-1.70833,7.125,-2.54167,11.7222,-2.54167c4.09722,0,7.58333,0.652778,10.4028,1.98611c0.347222,0.194444,0.694444,0.361111,1.02778,0.555556c3.125,1.625,4.61111,3.86111,4.61111,6.68056c0,2.97222,-1.48611,5.34722,-4.61111,7.125c-3.125,1.69444,-6.83333,2.54167,-11.1389,2.54167c-2.81944,0,-5.63889,-0.361111,-8.30556,-1.18056C43.4722,565.667,42.375,565.181,41.3889,564.653M54.2222,529.236c-8.76389,0,-15.5972,1.55556,-20.8056,4.75c-5.94444,3.65278,-8.91667,9.44444,-8.91667,17.4583c0,7.08333,2.63889,12.1806,7.90278,15.2917c0.0277778,0.0277778,0.0694444,0.0416667,0.125,0.0833333c5.34722,3.13889,12.3194,4.66667,20.7917,4.66667c4.90278,0,9.34722,-0.583333,13.2222,-1.76389c4,-1.18056,6.95833,-2.90278,9.20833,-5.125c2.22222,-2.22222,3.40278,-4.68056,3.40278,-7.27778c0,-3.91667,-2.36111,-7.11111,-7.125,-9.625c-0.652778,-0.347222,-1.34722,-0.694444,-2.04167,-0.958333c-4.33333,-1.84722,-9.41667,-2.75,-15.1667,-2.75c-4.02778,0,-7.59722,0.402778,-11.1528,1.34722c-3.56944,0.875,-6.54167,2.30556,-9.05556,4.15278c0.0277778,-0.75,0.0694444,-1.44444,0.152778,-2.125c0.347222,-3.15278,1.22222,-5.625,2.80556,-7.44444c1.79167,-2.23611,4.31944,-3.91667,7.58333,-5.05556c2.375,-0.958333,5.20833,-1.43056,8.45833,-1.43056c3.52778,0,6.58333,0.597222,9.09722,1.73611c0.347222,0.166667,0.680556,0.333333,1,0.5c1.375,0.763889,2.51389,1.86111,3.375,3.36111c0.166667,0.291667,0.347222,0.611111,0.486111,0.930556l10.0972,-0.361111c-0.736111,-3.23611,-3.26389,-5.79167,-7.41667,-7.56944c-0.0277778,-0.0138889,-0.0416667,-0.0138889,-0.0555556,-0.0138889C66.0556,530.125,60.7361,529.236,54.2222,529.236"/>
        <path fill="#666666" stroke-width="0" d="M1237.06,824.181l-1.80556,0l-4.75,0c-1.77778,1.77778,-4.90278,3.625,-9.06944,5.55556c-4.27778,1.875,-9.16667,3.48611,-14.8194,4.83333l0,3.70833l0,1.19444c3.11111,-0.583333,6.66667,-1.40278,10.5556,-2.59722c3.18056,-0.944444,5.81944,-1.86111,8.02778,-2.77778c0.583333,-0.236111,1.11111,-0.472222,1.61111,-0.722222l0,31.5l0,0.819444l10.25,0L1237.06,824.181"/>
        <path fill="#666666" stroke-width="0" d="M1053.97,824.181c-7.88889,0,-14.125,1.04167,-18.7361,3.125c-4.43056,1.88889,-7.11111,4.56944,-7.98611,8.11111c-0.0833333,0.263889,-0.138889,0.472222,-0.222222,0.722222l10.4167,0.527778c0.180556,-2.51389,1.65278,-4.61111,4.625,-6.08333c2.79167,-1.41667,6.81944,-2.13889,11.7222,-2.13889c4.40278,0,8.04167,0.611111,10.8056,1.90278c0.0833333,0.0694444,0.236111,0.125,0.347222,0.166667c2.97222,1.33333,4.29167,3.05556,4.29167,5.04167c0,1.93056,-1.47222,4.01389,-4.73611,6.18056c-3.13889,2.125,-9.22222,5.02778,-18.125,8.68056c-5.79167,2.36111,-10.2639,4.43056,-13.375,6.29167c-2.97222,1.77778,-5.18056,3.65278,-6.69444,5.5c-0.541667,0.861111,-0.944444,1.73611,-1.09722,2.66667c-0.0694444,0.25,-0.0694444,0.527778,-0.0694444,0.819444l54.6389,0l0,-4.80556l-1.59722,0l-38.9444,0c0.375,-0.319444,0.819444,-0.611111,1.22222,-0.916667c0.916667,-0.625,1.97222,-1.25,3.09722,-1.84722c1.77778,-0.972222,5.63889,-2.65278,11.7361,-5.19444c7.26389,-3.11111,12.4722,-5.56944,15.7361,-7.36111c3.125,-1.70833,5.34722,-3.41667,6.68056,-4.94444c1.33333,-1.65278,2.06944,-3.27778,2.06944,-4.91667c0,-3.27778,-2.34722,-6.02778,-6.95833,-8.18056c-0.152778,-0.0555556,-0.277778,-0.125,-0.388889,-0.180556C1067.88,825.236,1061.6,824.181,1053.97,824.181"/>
        <path fill="#666666" stroke-width="0" d="M880.181,824.181c-6.52778,0,-12.0139,0.958333,-16.4583,2.80556c-4,1.73611,-6.75,4.18056,-8.15278,7.23611c-0.152778,0.277778,-0.236111,0.472222,-0.319444,0.75l10.25,0.875c0.736111,-2.54167,2.375,-4.38889,5.05556,-5.56944c2.65278,-1.25,5.91667,-1.84722,9.79167,-1.84722c3.44444,0,6.33333,0.416667,8.68056,1.31944c0.416667,0.125,0.763889,0.291667,1.11111,0.458333c2.52778,1.25,3.72222,2.75,3.72222,4.68056c0,2.30556,-1.65278,4.06944,-5.19444,5.19444c-3.41667,1.09722,-7.27778,1.69444,-11.6111,1.69444l-1.59722,-0.0555556l-0.916667,3.31944l-0.277778,1.11111c2.95833,-0.361111,5.34722,-0.597222,7.26389,-0.597222c4.16667,0,7.70833,0.611111,10.6806,1.91667c0.291667,0.0972222,0.611111,0.25,0.888889,0.402778c2.97222,1.45833,4.625,3.40278,4.625,5.70833c0,2.44444,-1.77778,4.52778,-5.05556,6.15278c-3.26389,1.625,-7.27778,2.52778,-12.0417,2.52778c-3.97222,0,-7.40278,-0.680556,-10.2222,-1.93056c-0.458333,-0.194444,-0.916667,-0.458333,-1.33333,-0.694444c-2.125,-1.27778,-3.63889,-3.15278,-4.61111,-5.54167l-1.36111,0.0972222l-8.88889,0.569444c0.680556,3.18056,2.91667,5.72222,7.02778,7.79167c0.416667,0.208333,0.833333,0.388889,1.29167,0.625c4.73611,2.20833,10.8194,3.23611,18.0972,3.23611c8.04167,0,14.5833,-1.23611,19.9028,-3.70833c5.22222,-2.52778,7.88889,-5.625,7.88889,-9.20833c0,-2.65278,-1.36111,-4.91667,-4.02778,-6.66667c-0.847222,-0.527778,-1.76389,-1.01389,-2.79167,-1.44444c-2.34722,-0.972222,-5.18056,-1.69444,-8.625,-2.06944c0.513889,-0.0972222,1.01389,-0.236111,1.45833,-0.361111c3,-0.847222,5.31944,-1.88889,7,-3.09722c1.94444,-1.48611,2.95833,-3.13889,2.95833,-4.90278c0,-1.875,-1.01389,-3.66667,-3.125,-5.34722c-0.958333,-0.875,-2.26389,-1.625,-3.75,-2.30556c-1.43056,-0.625,-3.06944,-1.16667,-4.86111,-1.65278C888.792,824.722,884.625,824.181,880.181,824.181"/>
        <path fill="#666666" stroke-width="0" d="M712.833,833.681l1.625,-1.19444l0,18.625l-25.8194,0l1.11111,-0.805556L712.833,833.681M724.736,824.389L722.917,824.389l-6.5,0l-37.75,26.7222l0,3.86111l0,0.819444l34.1667,0l1.625,0l0,9.06944l0,0.819444l10.2639,0l0,-9.88889l11.1111,0L735.833,851.111l-1.76389,0l-9.34722,0l0,-0.805556L724.722,824.389"/>
        <path fill="#666666" stroke-width="0" d="M560.611,824.917l-1.63889,0l-39.5,0l-7.75,20.5417l-0.263889,0.694444l9.5,0.680556c1.625,-1.27778,3.70833,-2.16667,6.23611,-2.90278c2.66667,-0.75,5.63889,-1.11111,8.91667,-1.11111c4.45833,0,8.26389,0.597222,11.3194,1.80556c0.5,0.208333,0.986111,0.416667,1.45833,0.638889c3.25,1.72222,4.90278,4.02778,4.90278,6.93056c0,3.02778,-1.77778,5.48611,-5.05556,7.25c-3.41667,1.875,-7.56944,2.81944,-12.4722,2.81944c-4.01389,0,-7.56944,-0.680556,-10.3889,-2c-0.375,-0.152778,-0.722222,-0.333333,-1.06944,-0.541667c-2.25,-1.26389,-3.79167,-3.06944,-4.44444,-5.31944l-1.41667,0.0555556l-9.26389,0.361111c0.666667,3.18056,2.91667,5.79167,6.88889,7.77778c0.416667,0.25,0.847222,0.430556,1.29167,0.638889c4.75,2.13889,10.8333,3.18056,18.4167,3.18056c9.20833,0,16.4861,-1.70833,21.6806,-5.04167c4.45833,-2.73611,6.54167,-5.91667,6.54167,-9.63889c0,-3.93056,-2.52778,-7.20833,-7.41667,-9.63889c-0.111111,-0.0555556,-0.222222,-0.111111,-0.319444,-0.166667c-4.84722,-2.41667,-10.8333,-3.65278,-17.9583,-3.65278c-5.5,0,-10.6944,0.888889,-15.5972,2.61111l0.638889,-1.61111l3.80556,-9.54167l32.9722,0L560.625,824.917"/>
        <path fill="#666666" stroke-width="0" d="M353.889,859.583c-1.16667,-0.625,-2.15278,-1.38889,-2.95833,-2.27778c-1.48611,-1.55556,-2.22222,-3.29167,-2.22222,-4.97222c0,-2.66667,1.47222,-4.81944,4.75,-6.47222c3.26389,-1.625,7.125,-2.44444,11.7222,-2.44444c4.11111,0,7.61111,0.638889,10.4306,1.95833c0.347222,0.166667,0.694444,0.291667,1.01389,0.486111c3.125,1.65278,4.61111,3.86111,4.61111,6.75c0,2.98611,-1.63889,5.26389,-4.61111,7.05556c-3.11111,1.70833,-6.83333,2.61111,-11.1389,2.61111c-2.81944,0,-5.63889,-0.430556,-8.31944,-1.26389C355.958,860.611,354.861,860.153,353.889,859.583M366.681,824.181c-8.77778,0,-15.75,1.625,-20.8056,4.75c-5.93056,3.63889,-8.91667,9.44444,-8.91667,17.4444c0,7.13889,2.68056,12.2639,8.04167,15.375c0,0,0.0138889,0.0138889,0.0277778,0.0138889c5.33333,3.11111,12.1528,4.65278,20.5972,4.65278c5.04167,0,9.5,-0.597222,13.3611,-1.76389c3.86111,-1.20833,6.97222,-2.90278,9.19444,-5.125c2.23611,-2.22222,3.43056,-4.69444,3.43056,-7.20833c0,-4.01389,-2.38889,-7.22222,-7.125,-9.73611c-0.666667,-0.319444,-1.36111,-0.652778,-2.04167,-0.944444c-4.34722,-1.83333,-9.44444,-2.75,-15.3333,-2.75c-3.86111,0,-7.56944,0.430556,-10.9861,1.33333c-3.56944,0.958333,-6.52778,2.31944,-9.05556,4.18056c0.0277778,-0.75,0.0694444,-1.40278,0.138889,-2.05556c0.347222,-3.16667,1.19444,-5.625,2.68056,-7.44444c1.94444,-2.31944,4.44444,-4.02778,7.58333,-5.13889c2.51389,-0.888889,5.33333,-1.31944,8.61111,-1.31944c3.51389,0,6.58333,0.5,9.08333,1.625c0.333333,0.152778,0.680556,0.305556,1,0.513889c1.38889,0.736111,2.56944,1.90278,3.41667,3.43056c0.166667,0.277778,0.319444,0.569444,0.444444,0.875l10.1111,-0.375c-0.902778,-3.19444,-3.27778,-5.73611,-7.43056,-7.58333c-0.125,-0.0694444,-0.25,-0.111111,-0.402778,-0.166667C378.194,825.097,373,824.181,366.681,824.181"/>
        <path fill="#666666" stroke-width="0" d="M219.347,824.917l-1.63889,0l-51.8056,0l0,4.01389l0,0.819444l37.3333,0l3.04167,0c-5.05556,2.97222,-9.94444,6.52778,-14.5556,10.8611c-4.59722,4.29167,-8.02778,8.73611,-10.5417,13.3472c-2.19444,4.25,-3.47222,7.83333,-3.69444,10.9167c0,0.291667,-0.0277778,0.555556,-0.0277778,0.819444l10.4028,0c0.583333,-4.09722,1.76389,-7.86111,3.84722,-11.3472c2.83333,-4.90278,6.83333,-9.66667,12.0278,-14.3333c5.19444,-4.61111,10.3889,-8.31944,15.5833,-11.1528L219.319,824.917"/>
        <path fill="#666666" stroke-width="0" d="M7.11111,859.375c-0.666667,-0.402778,-1.25,-0.902778,-1.73611,-1.41667c-1.5,-1.34722,-2.09722,-2.75,-2.09722,-4.16667c0,-2.375,1.48611,-4.36111,4.61111,-5.93056c3.125,-1.54167,7.13889,-2.36111,11.8889,-2.36111c4.33333,0,8.08333,0.611111,11.1389,1.83333c0.402778,0.180556,0.791667,0.333333,1.18056,0.527778c3.125,1.63889,4.75,3.625,4.75,6.08333c0,2.38889,-1.47222,4.375,-4.75,5.93056c-3.125,1.58333,-7.13889,2.38889,-11.875,2.38889c-3.125,0,-6.08333,-0.375,-8.76389,-1.09722C9.66667,860.694,8.23611,860.125,7.11111,859.375M9.33333,838.958c-1.88889,-1.16667,-2.79167,-2.55556,-2.79167,-4.23611c0,-1.77778,1.18056,-3.27778,3.70833,-4.45833c2.66667,-1.25,5.79167,-1.84722,9.65278,-1.84722c3.47222,0,6.45833,0.472222,8.84722,1.48611c0.277778,0.111111,0.541667,0.222222,0.805556,0.347222c2.66667,1.27778,3.84722,2.81944,3.84722,4.69444c0,1.76389,-1.18056,3.30556,-3.70833,4.5c-2.52778,1.27778,-5.65278,1.86111,-9.65278,1.86111c-4.01389,0,-7.27778,-0.583333,-9.80556,-1.86111C9.91667,839.306,9.625,839.139,9.33333,838.958M19.9167,824.181c-7.27778,0,-12.9306,1.04167,-17.3889,3.125c-4.30556,2,-6.375,4.51389,-6.375,7.58333c0,2,1.04167,3.70833,2.97222,5.11111c0.25,0.152778,0.513889,0.319444,0.777778,0.486111c1.47222,0.847222,3.36111,1.58333,5.63889,2.15278c0.916667,0.236111,1.88889,0.430556,2.93056,0.625c-5.05556,0.666667,-8.91667,1.91667,-11.5833,3.72222c-2.66667,1.86111,-4.15278,4.06944,-4.15278,6.75c0,3.48611,2.33333,6.43056,6.97222,8.76389c0.194444,0.0833333,0.388889,0.194444,0.597222,0.319444c5.05556,2.43056,11.5833,3.59722,19.75,3.59722c8.16667,0,14.6944,-1.16667,19.7361,-3.59722C44.7222,860.389,47.2222,857.444,47.2222,853.889c0,-2.52778,-1.31944,-4.79167,-4,-6.65278c-0.791667,-0.541667,-1.75,-1.05556,-2.80556,-1.52778c-2.31944,-1.02778,-5.22222,-1.86111,-8.79167,-2.45833c0.444444,-0.0833333,0.875,-0.180556,1.27778,-0.25c3.51389,-0.736111,6.19444,-1.76389,7.93056,-3.02778c2.06944,-1.41667,2.97222,-3.05556,2.97222,-4.95833c0,-3.02778,-2.04167,-5.51389,-6.40278,-7.59722c-0.0416667,-0.0277778,-0.0833333,-0.0416667,-0.111111,-0.0833333C32.8333,825.222,27.0417,824.181,19.9167,824.181"/>
       </g>
      </g>
     </g>
     <path opacity="0.44" fill="#B3B3B3" stroke-width="0" d="M-179.75,560.736c0,-59.1667,48.4028,-107.569,107.569,-107.569L1318.6,453.167c59.1806,0,107.556,48.4028,107.556,107.569l0,6.94444c0,-59.1667,-48.375,-111.111,-107.556,-111.111L-72.1806,456.569c-59.1667,0,-107.569,51.9444,-107.569,111.111L-179.75,560.736z"/>
     <path opacity="0.44" fill="#B3B3B3" stroke-width="0" d="M-179.75,588.431c0,-59.1667,48.4028,-107.569,107.569,-107.569L1318.6,480.861c59.1806,0,107.556,48.4028,107.556,107.569l0,6.94444c0,-59.1667,-48.375,-111.111,-107.556,-111.111L-72.1806,484.264c-59.1667,0,-107.569,51.9444,-107.569,111.111L-179.75,588.431z"/>
     <path opacity="0.77" stroke-width="0" d="M1426.17,802.819c0,59.1667,-48.3889,107.569,-107.556,107.569L-72.1944,910.389c-59.1806,0,-107.556,-48.4028,-107.556,-107.569l0,-6.94444c0,59.1667,48.375,111.111,107.556,111.111L1318.6,906.986c59.1667,0,107.556,-51.9444,107.556,-111.111L1426.15,802.819z"/>
    </g>
   </g>
  </g>
  <g transform="translate(560.805,1334.05)">
   <rect width="31.93" x="0" y="0" fill="#8D8C8C" height="31.9" id="connector0pin" stroke-width="0"/>
   <rect width="16.4442" x="7.79153" y="7.73544" fill="#8C8663" height="16.4152" stroke-width="0"/>
   <polygon fill="#B8AF82" points="0,31.9,7.79153,24.1368,7.79153,6.97162,0,0" stroke-width="0"/>
   <polygon fill="#80795B" points="24.2079,7.76321,7.90264,7.76321,0,0,31.93,0" stroke-width="0"/>
   <polygon fill="#5E5B43" points="24.2079,24.1368,24.2079,7.76321,31.93,0,31.93,31.9" stroke-width="0"/>
   <polygon fill="#9A916C" points="0,31.9,7.87486,24.1368,24.2079,24.1368,31.93,31.9" stroke-width="0"/>
  </g>
  <g transform="translate(560.805,34.05)">
   <rect width="31.93" x="0" y="0" fill="#8D8C8C" height="31.9" id="connector15pin" stroke-width="0"/>
   <rect width="16.4442" x="7.79153" y="7.73544" fill="#8C8663" height="16.4152" stroke-width="0"/>
   <polygon fill="#B8AF82" points="0,31.9,7.79153,24.1368,7.79153,6.97162,0,0" stroke-width="0"/>
   <polygon fill="#80795B" points="24.2079,7.76321,7.90264,7.76321,0,0,31.93,0" stroke-width="0"/>
   <polygon fill="#5E5B43" points="24.2079,24.1368,24.2079,7.76321,31.93,0,31.93,31.9" stroke-width="0"/>
   <polygon fill="#9A916C" points="0,31.9,7.87486,24.1368,24.2079,24.1368,31.93,31.9" stroke-width="0"/>
  </g>
  <g transform="translate(660.805,1334.05)">
   <rect width="31.93" x="0" y="0" fill="#8D8C8C" height="31.9" id="connector1pin" stroke-width="0"/>
   <rect width="16.4442" x="7.79153" y="7.73544" fill="#8C8663" height="16.4152" stroke-width="0"/>
   <polygon fill="#B8AF82" points="0,31.9,7.79153,24.1368,7.79153,6.97162,0,0" stroke-width="0"/>
   <polygon fill="#80795B" points="24.2079,7.76321,7.90264,7.76321,0,0,31.93,0" stroke-width="0"/>
   <polygon fill="#5E5B43" points="24.2079,24.1368,24.2079,7.76321,31.93,0,31.93,31.9" stroke-width="0"/>
   <polygon fill="#9A916C" points="0,31.9,7.87486,24.1368,24.2079,24.1368,31.93,31.9" stroke-width="0"/>
  </g>
  <g transform="translate(660.805,34.05)">
   <rect width="31.93" x="0" y="0" fill="#8D8C8C" height="31.9" id="connector14pin" stroke-width="0"/>
   <rect width="16.4442" x="7.79153" y="7.73544" fill="#8C8663" height="16.4152" stroke-width="0"/>
   <polygon fill="#B8AF82" points="0,31.9,7.79153,24.1368,7.79153,6.97162,0,0" stroke-width="0"/>
   <polygon fill="#80795B" points="24.2079,7.76321,7.90264,7.76321,0,0,31.93,0" stroke-width="0"/>
   <polygon fill="#5E5B43" points="24.2079,24.1368,24.2079,7.76321,31.93,0,31.93,31.9" stroke-width="0"/>
   <polygon fill="#9A916C" points="0,31.9,7.87486,24.1368,24.2079,24.1368,31.93,31.9" stroke-width="0"/>
  </g>
  <g transform="translate(760.805,1334.05)">
   <rect width="31.93" x="0" y="0" fill="#8D8C8C" height="31.9" id="connector2pin" stroke-width="0"/>
   <rect width="16.4442" x="7.79153" y="7.73544" fill="#8C8663" height="16.4152" stroke-width="0"/>
   <polygon fill="#B8AF82" points="0,31.9,7.79153,24.1368,7.79153,6.97162,0,0" stroke-width="0"/>
   <polygon fill="#80795B" points="24.2079,7.76321,7.90264,7.76321,0,0,31.93,0" stroke-width="0"/>
   <polygon fill="#5E5B43" points="24.2079,24.1368,24.2079,7.76321,31.93,0,31.93,31.9" stroke-width="0"/>
   <polygon fill="#9A916C" points="0,31.9,7.87486,24.1368,24.2079,24.1368,31.93,31.9" stroke-width="0"/>
  </g>
  <g transform="translate(760.805,34.05)">
   <rect width="31.93" x="0" y="0" fill="#8D8C8C" height="31.9" id="connector13pin" stroke-width="0"/>
   <rect width="16.4442" x="7.79153" y="7.73544" fill="#8C8663" height="16.4152" stroke-width="0"/>
   <polygon fill="#B8AF82" points="0,31.9,7.79153,24.1368,7.79153,6.97162,0,0" stroke-width="0"/>
   <polygon fill="#80795B" points="24.2079,7.76321,7.90264,7.76321,0,0,31.93,0" stroke-width="0"/>
   <polygon fill="#5E5B43" points="24.2079,24.1368,24.2079,7.76321,31.93,0,31.93,31.9" stroke-width="0"/>
   <polygon fill="#9A916C" points="0,31.9,7.87486,24.1368,24.2079,24.1368,31.93,31.9" stroke-width="0"/>
  </g>
  <g transform="translate(860.805,1334.05)">
   <rect width="31.93" x="0" y="0" fill="#8D8C8C" height="31.9" id="connector3pin" stroke-width="0"/>
   <rect width="16.4442" x="7.79153" y="7.73544" fill="#8C8663" height="16.4152" stroke-width="0"/>
   <polygon fill="#B8AF82" points="0,31.9,7.79153,24.1368,7.79153,6.97162,0,0" stroke-width="0"/>
   <polygon fill="#80795B" points="24.2079,7.76321,7.90264,7.76321,0,0,31.93,0" stroke-width="0"/>
   <polygon fill="#5E5B43" points="24.2079,24.1368,24.2079,7.76321,31.93,0,31.93,31.9" stroke-width="0"/>
   <polygon fill="#9A916C" points="0,31.9,7.87486,24.1368,24.2079,24.1368,31.93,31.9" stroke-width="0"/>
  </g>
  <g transform="translate(860.805,34.05)">
   <rect width="31.93" x="0" y="0" fill="#8D8C8C" height="31.9" id="connector12pin" stroke-width="0"/>
   <rect width="16.4442" x="7.79153" y="7.73544" fill="#8C8663" height="16.4152" stroke-width="0"/>
   <polygon fill="#B8AF82" points="0,31.9,7.79153,24.1368,7.79153,6.97162,0,0" stroke-width="0"/>
   <polygon fill="#80795B" points="24.2079,7.76321,7.90264,7.76321,0,0,31.93,0" stroke-width="0"/>
   <polygon fill="#5E5B43" points="24.2079,24.1368,24.2079,7.76321,31.93,0,31.93,31.9" stroke-width="0"/>
   <polygon fill="#9A916C" points="0,31.9,7.87486,24.1368,24.2079,24.1368,31.93,31.9" stroke-width="0"/>
  </g>
  <g transform="translate(960.805,1334.05)">
   <rect width="31.93" x="0" y="0" fill="#8D8C8C" height="31.9" id="connector4pin" stroke-width="0"/>
   <rect width="16.4442" x="7.79153" y="7.73544" fill="#8C8663" height="16.4152" stroke-width="0"/>
   <polygon fill="#B8AF82" points="0,31.9,7.79153,24.1368,7.79153,6.97162,0,0" stroke-width="0"/>
   <polygon fill="#80795B" points="24.2079,7.76321,7.90264,7.76321,0,0,31.93,0" stroke-width="0"/>
   <polygon fill="#5E5B43" points="24.2079,24.1368,24.2079,7.76321,31.93,0,31.93,31.9" stroke-width="0"/>
   <polygon fill="#9A916C" points="0,31.9,7.87486,24.1368,24.2079,24.1368,31.93,31.9" stroke-width="0"/>
  </g>
  <g transform="translate(960.805,34.05)">
   <rect width="31.93" x="0" y="0" fill="#8D8C8C" height="31.9" id="connector11pin" stroke-width="0"/>
   <rect width="16.4442" x="7.79153" y="7.73544" fill="#8C8663" height="16.4152" stroke-width="0"/>
   <polygon fill="#B8AF82" points="0,31.9,7.79153,24.1368,7.79153,6.97162,0,0" stroke-width="0"/>
   <polygon fill="#80795B" points="24.2079,7.76321,7.90264,7.76321,0,0,31.93,0" stroke-width="0"/>
   <polygon fill="#5E5B43" points="24.2079,24.1368,24.2079,7.76321,31.93,0,31.93,31.9" stroke-width="0"/>
   <polygon fill="#9A916C" points="0,31.9,7.87486,24.1368,24.2079,24.1368,31.93,31.9" stroke-width="0"/>
  </g>
  <g transform="translate(1060.8,1334.05)">
   <rect width="31.93" x="0" y="0" fill="#8D8C8C" height="31.9" id="connector5pin" stroke-width="0"/>
   <rect width="16.4442" x="7.79153" y="7.73544" fill="#8C8663" height="16.4152" stroke-width="0"/>
   <polygon fill="#B8AF82" points="0,31.9,7.79153,24.1368,7.79153,6.97162,0,0" stroke-width="0"/>
   <polygon fill="#80795B" points="24.2079,7.76321,7.90264,7.76321,0,0,31.93,0" stroke-width="0"/>
   <polygon fill="#5E5B43" points="24.2079,24.1368,24.2079,7.76321,31.93,0,31.93,31.9" stroke-width="0"/>
   <polygon fill="#9A916C" points="0,31.9,7.87486,24.1368,24.2079,24.1368,31.93,31.9" stroke-width="0"/>
  </g>
  <g transform="translate(1060.8,34.05)">
   <rect width="31.93" x="0" y="0" fill="#8D8C8C" height="31.9" id="connector10pin" stroke-width="0"/>
   <rect width="16.4442" x="7.79153" y="7.73544" fill="#8C8663" height="16.4152" stroke-width="0"/>
   <polygon fill="#B8AF82" points="0,31.9,7.79153,24.1368,7.79153,6.97162,0,0" stroke-width="0"/>
   <polygon fill="#80795B" points="24.2079,7.76321,7.90264,7.76321,0,0,31.93,0" stroke-width="0"/>
   <polygon fill="#5E5B43" points="24.2079,24.1368,24.2079,7.76321,31.93,0,31.93,31.9" stroke-width="0"/>
   <polygon fill="#9A916C" points="0,31.9,7.87486,24.1368,24.2079,24.1368,31.93,31.9" stroke-width="0"/>
  </g>
  <g transform="translate(1160.8,1334.05)">
   <rect width="31.93" x="0" y="0" fill="#8D8C8C" height="31.9" id="connector6pin" stroke-width="0"/>
   <rect width="16.4442" x="7.79153" y="7.73544" fill="#8C8663" height="16.4152" stroke-width="0"/>
   <polygon fill="#B8AF82" points="0,31.9,7.79153,24.1368,7.79153,6.97162,0,0" stroke-width="0"/>
   <polygon fill="#80795B" points="24.2079,7.76321,7.90264,7.76321,0,0,31.93,0" stroke-width="0"/>
   <polygon fill="#5E5B43" points="24.2079,24.1368,24.2079,7.76321,31.93,0,31.93,31.9" stroke-width="0"/>
   <polygon fill="#9A916C" points="0,31.9,7.87486,24.1368,24.2079,24.1368,31.93,31.9" stroke-width="0"/>
  </g>
  <g transform="translate(1160.8,34.05)">
   <rect width="31.93" x="0" y="0" fill="#8D8C8C" height="31.9" id="connector9pin" stroke-width="0"/>
   <rect width="16.4442" x="7.79153" y="7.73544" fill="#8C8663" height="16.4152" stroke-width="0"/>
   <polygon fill="#B8AF82" points="0,31.9,7.79153,24.1368,7.79153,6.97162,0,0" stroke-width="0"/>
   <polygon fill="#80795B" points="24.2079,7.76321,7.90264,7.76321,0,0,31.93,0" stroke-width="0"/>
   <polygon fill="#5E5B43" points="24.2079,24.1368,24.2079,7.76321,31.93,0,31.93,31.9" stroke-width="0"/>
   <polygon fill="#9A916C" points="0,31.9,7.87486,24.1368,24.2079,24.1368,31.93,31.9" stroke-width="0"/>
  </g>
  <g transform="translate(1260.8,1334.05)">
   <rect width="31.93" x="0" y="0" fill="#8D8C8C" height="31.9" id="connector7pin" stroke-width="0"/>
   <rect width="16.4442" x="7.79153" y="7.73544" fill="#8C8663" height="16.4152" stroke-width="0"/>
   <polygon fill="#B8AF82" points="0,31.9,7.79153,24.1368,7.79153,6.97162,0,0" stroke-width="0"/>
   <polygon fill="#80795B" points="24.2079,7.76321,7.90264,7.76321,0,0,31.93,0" stroke-width="0"/>
   <polygon fill="#5E5B43" points="24.2079,24.1368,24.2079,7.76321,31.93,0,31.93,31.9" stroke-width="0"/>
   <polygon fill="#9A916C" points="0,31.9,7.87486,24.1368,24.2079,24.1368,31.93,31.9" stroke-width="0"/>
  </g>
  <g transform="translate(1260.8,34.05)">
   <rect width="31.93" x="0" y="0" fill="#8D8C8C" height="31.9" id="connector8pin" stroke-width="0"/>
   <rect width="16.4442" x="7.79153" y="7.73544" fill="#8C8663" height="16.4152" stroke-width="0"/>
   <polygon fill="#B8AF82" points="0,31.9,7.79153,24.1368,7.79153,6.97162,0,0" stroke-width="0"/>
   <polygon fill="#80795B" points="24.2079,7.76321,7.90264,7.76321,0,0,31.93,0" stroke-width="0"/>
   <polygon fill="#5E5B43" points="24.2079,24.1368,24.2079,7.76321,31.93,0,31.93,31.9" stroke-width="0"/>
   <polygon fill="#9A916C" points="0,31.9,7.87486,24.1368,24.2079,24.1368,31.93,31.9" stroke-width="0"/>
  </g>
 </g>
 <text x="50" y="724.375" font-family="OCRA" fill="white" text-anchor="start" stroke="none" id="label" stroke-width="0" font-size="65"/>
 <g transform="translate(590.27,1326.05)">
  <g transform="rotate(-90)">
   <text x="0" y="0" font-family="OCRA" fill="white" text-anchor="start" stroke="none" stroke-width="0" font-size="45"/>
  </g>
 </g>
 <g transform="translate(590.27,73.95)">
  <g transform="rotate(-90)">
   <text x="0" y="0" font-family="OCRA" fill="white" text-anchor="end" stroke="none" stroke-width="0" font-size="45"/>
  </g>
 </g>
 <g transform="translate(690.27,1326.05)">
  <g transform="rotate(-90)">
   <text x="0" y="0" font-family="OCRA" fill="white" text-anchor="start" stroke="none" stroke-width="0" font-size="45"/>
  </g>
 </g>
 <g transform="translate(690.27,73.95)">
  <g transform="rotate(-90)">
   <text x="0" y="0" font-family="OCRA" fill="white" text-anchor="end" stroke="none" stroke-width="0" font-size="45"/>
  </g>
 </g>
 <g transform="translate(790.27,1326.05)">
  <g transform="rotate(-90)">
   <text x="0" y="0" font-family="OCRA" fill="white" text-anchor="start" stroke="none" stroke-width="0" font-size="45"/>
  </g>
 </g>
 <g transform="translate(790.27,73.95)">
  <g transform="rotate(-90)">
   <text x="0" y="0" font-family="OCRA" fill="white" text-anchor="end" stroke="none" stroke-width="0" font-size="45"/>
  </g>
 </g>
 <g transform="translate(890.27,1326.05)">
  <g transform="rotate(-90)">
   <text x="0" y="0" font-family="OCRA" fill="white" text-anchor="start" stroke="none" stroke-width="0" font-size="45"/>
  </g>
 </g>
 <g transform="translate(890.27,73.95)">
  <g transform="rotate(-90)">
   <text x="0" y="0" font-family="OCRA" fill="white" text-anchor="end" stroke="none" stroke-width="0" font-size="45"/>
  </g>
 </g>
 <g transform="translate(990.27,1326.05)">
  <g transform="rotate(-90)">
   <text x="0" y="0" font-family="OCRA" fill="white" text-anchor="start" stroke="none" stroke-width="0" font-size="45"/>
  </g>
 </g>
 <g transform="translate(990.27,73.95)">
  <g transform="rotate(-90)">
   <text x="0" y="0" font-family="OCRA" fill="white" text-anchor="end" stroke="none" stroke-width="0" font-size="45"/>
  </g>
 </g>
 <g transform="translate(1090.27,1326.05)">
  <g transform="rotate(-90)">
   <text x="0" y="0" font-family="OCRA" fill="white" text-anchor="start" stroke="none" stroke-width="0" font-size="45"/>
  </g>
 </g>
 <g transform="translate(1090.27,73.95)">
  <g transform="rotate(-90)">
   <text x="0" y="0" font-family="OCRA" fill="white" text-anchor="end" stroke="none" stroke-width="0" font-size="45"/>
  </g>
 </g>
 <g transform="translate(1190.27,1326.05)">
  <g transform="rotate(-90)">
   <text x="0" y="0" font-family="OCRA" fill="white" text-anchor="start" stroke="none" stroke-width="0" font-size="45"/>
  </g>
 </g>
 <g transform="translate(1190.27,73.95)">
  <g transform="rotate(-90)">
   <text x="0" y="0" font-family="OCRA" fill="white" text-anchor="end" stroke="none" stroke-width="0" font-size="45"/>
  </g>
 </g>
 <g transform="translate(1290.27,1326.05)">
  <g transform="rotate(-90)">
   <text x="0" y="0" font-family="OCRA" fill="white" text-anchor="start" stroke="none" stroke-width="0" font-size="45"/>
  </g>
 </g>
 <g transform="translate(1290.27,73.95)">
  <g transform="rotate(-90)">
   <text x="0" y="0" font-family="OCRA" fill="white" text-anchor="end" stroke="none" stroke-width="0" font-size="45"/>
  </g>
 </g>
</svg>
