<?xml version='1.0' encoding='UTF-8' standalone='no'?>
<!-- Created with Fritzing (http://www.fritzing.org/) -->
<svg width="0.879528in" x="0in" version="1.2" y="0in" xmlns="http://www.w3.org/2000/svg" height="1.2in" viewBox="0 0 879.528 1200" baseProfile="tiny" xmlns:svg="http://www.w3.org/2000/svg">
 <desc>Fritzing breadboard generated by brd2svg</desc>
 <g id="breadboard">
  <g id="icon">
   <path fill="#1F7A34" stroke="none" stroke-width="0" d="M0,0L0,570A30,30 0 0 1 0,630L0,1200L879.528,1200L879.528,0L0,0z"/>
   <g transform="translate(100,247.812)">
    <g stroke-width="0">
     <g stroke-width="0">
      <path fill="#4D4D4D" stroke-width="0" d="M0,700.389c0,2.19444,1.79167,3.98611,4,3.98611l564.153,0c2.19444,0,4,-1.79167,4,-3.98611L572.153,4.68056c0,-2.20833,-1.80556,-4,-4,-4L4.01389,0.680556c-2.20833,0,-4,1.79167,-4,4L0,700.389L0,700.389z"/>
     </g>
     <polygon opacity="0.59" fill="#1A1A1A" points="543.069,694.944,11.8333,694.944,11.8333,537.556,465.125,537.556" enable-background="new    " stroke-width="0"/>
     <rect width="560.333" x="11.8333" y="9.125" fill="#CCCCCC" height="118.111" stroke-width="0"/>
     <g stroke-width="0">
      <g stroke-width="0">
       <g enable-background="new    " stroke-width="0">
        <g stroke-width="0">
         <path fill="#808080" stroke-width="0" d="M456.389,464.639c0.0694444,0.652778,0.138889,1.27778,0.236111,1.90278C456.528,465.903,456.458,465.278,456.389,464.639M564.986,0l-5.5,24.0417c1.875,-0.291667,3.72222,-0.416667,5.52778,-0.416667c59,0,106.806,147.125,106.806,328.472c0,0.111111,0,0.208333,0,0.291667c0,0.0694444,0,0.138889,0,0.208333c0,181.125,-47.75,328.125,-106.667,328.125c-14.75,0,-28.7917,-9.16667,-41.5694,-25.7917c-29.1667,-37.7083,-51.7361,-114.014,-60.9306,-208.111l-5.56944,24.3333c-0.125,-1.02778,-0.263889,-2.02778,-0.333333,-3.125c15.5972,137.583,58.1667,236.361,108.236,236.361c63.2778,0,114.556,-157.708,114.556,-352.25c0,-172.153,-40.1389,-314.986,-93.2917,-346.056C577.028,0.680556,564.986,0,564.986,0"/>
         <path fill="#4D4D4D" stroke-width="0" d="M456.389,464.639c0.0694444,0.652778,0.138889,1.27778,0.236111,1.90278C456.528,465.903,456.458,465.278,456.389,464.639M612.486,57.7778c35.1806,53.7639,59.3333,165.403,59.3333,294.319c0,0.111111,0,0.208333,0,0.291667c0,0.0694444,0,0.138889,0,0.208333c0,181.125,-47.75,328.125,-106.667,328.125c-14.75,0,-28.7917,-9.16667,-41.5694,-25.7917c-29.1667,-37.7083,-51.7361,-114.014,-60.9306,-208.111l-5.56944,24.3333c-0.125,-1.02778,-0.263889,-2.02778,-0.333333,-3.125c15.5972,137.583,58.1667,236.361,108.236,236.361c63.2778,0,114.556,-157.708,114.556,-352.25c0,-133.722,-24.2222,-249.764,-59.9306,-309.486L612.486,57.7778z"/>
         <path fill="#666666" stroke-width="0" d="M460.597,421.931c-0.0694444,0.0555556,-0.138889,0.0555556,-0.222222,0.0555556l-7.72222,0c0.930556,14.5972,2.19444,28.8056,3.73611,42.6389c0.0694444,0.652778,0.138889,1.27778,0.236111,1.90278c0.0555556,0.486111,0.111111,1,0.166667,1.48611c0.125,1.02778,0.25,2.02778,0.333333,3.09722l5.56944,-24.3056C461.875,438.653,461.194,430.375,460.597,421.931"/>
         <path fill="#CCCCCC" stroke-width="0" d="M564.986,0c-54.3611,0,-99.8889,116.361,-111.653,272.5l7.04167,0c0.333333,0,0.652778,0.388889,0.875,1.01389c11.0417,-138.097,50.5139,-241.944,98.1944,-249.458L564.986,0"/>
         <path fill="#1A1A1A" stroke-width="0" d="M565.014,23.625c-1.84722,0,-3.72222,0.152778,-5.52778,0.416667c-47.7222,7.51389,-87.1528,111.375,-98.1944,249.472c0.236111,0.625,0.347222,1.5,0.347222,2.47222l0,142.5c0,1.65278,-0.444444,3.15278,-1.04167,3.44444c0.597222,8.40278,1.31944,16.6806,2.09722,24.8472c9.19444,94.0972,31.7639,170.431,60.9306,208.111c-20.9861,-27.3194,-38.5139,-74.7083,-50.0972,-134.306l12.3611,-40.75c-6.52778,-38.1667,-10.2222,-81.6528,-10.2222,-127.778c0,-151.625,40.0278,-274.597,89.4028,-274.597c0.347222,0,0.736111,0,1.08333,0.0138889c0.111111,0,0.208333,0.0138889,0.291667,0.0138889c0.291667,0.0138889,0.541667,0.0277778,0.847222,0.0416667c0.111111,0.0138889,0.236111,0.0138889,0.305556,0.0277778c0.291667,0.0138889,0.513889,0.0416667,0.805556,0.0694444c0.0833333,0.0138889,0.194444,0.0138889,0.291667,0.0277778c0.291667,0.0277778,0.569444,0.0694444,0.875,0.111111c0.0555556,0.0138889,0.138889,0.0277778,0.25,0.0277778c8.97222,1.44444,17.6528,6.94444,25.75,16l-0.0277778,-0.0138889c1.84722,2.02778,3.63889,4.25,5.40278,6.63889l12.375,-40.75c34.7917,53.9722,58.6806,164.75,58.7083,292.667c0,-0.111111,0,-0.222222,0,-0.291667C671.875,170.75,624.014,23.625,565.014,23.625"/>
         <path fill="#333333" stroke-width="0" d="M613.181,59.75l-12.3611,40.75c31.5,42.4861,53.5139,139.181,53.5139,251.639c0,151.75,-40.0139,274.75,-89.3472,274.75c-34.3889,0,-64.1806,-59.5972,-79.1389,-146.972l-12.3611,40.75c11.5833,59.5972,29.1528,106.958,50.0972,134.278c12.7778,16.625,26.8611,25.8194,41.5694,25.8194c58.9028,0,106.667,-147,106.667,-328.125l-0.0833333,0l0.0833333,0c0,-0.0694444,0,-0.138889,0,-0.208333C671.833,224.5,647.972,113.722,613.181,59.75"/>
         <path fill="#999999" stroke-width="0" d="M569.444,77.8333c0.0833333,0.0138889,0.166667,0.0277778,0.25,0.0277778C569.597,77.8611,569.514,77.8472,569.444,77.8333M568.292,77.6944c0.0833333,0.0138889,0.194444,0.0138889,0.291667,0.0277778C568.486,77.7083,568.375,77.7083,568.292,77.6944M567.181,77.5833c0.111111,0.0138889,0.236111,0.0138889,0.305556,0.0277778C567.417,77.5972,567.292,77.5972,567.181,77.5833M566.069,77.5139c0.111111,0,0.208333,0.0138889,0.291667,0.0138889C566.278,77.5278,566.181,77.5278,566.069,77.5139M554.486,575.236c-7.23611,-11.6667,-12.1806,-35,-12.1806,-61.8472c0,-38.4861,10.125,-69.6389,22.6806,-69.6389c8.25,0,15.4306,13.4861,19.3889,33.6667c2.88889,9.41667,3.40278,25.4722,3.23611,37.4583c-0.291667,37.8194,-10.2778,68.25,-22.6528,68.25c-3.18056,0,-6.13889,-2.01389,-8.91667,-5.55556c-0.5,-0.680556,-1.01389,-1.41667,-1.5,-2.19444C554.542,575.333,554.514,575.278,554.486,575.236M605.083,413.014c-6.93056,-11.9028,-11.625,-34.7222,-11.625,-60.875c0,-38.3889,10.1528,-69.6389,22.6944,-69.6389c8.93056,0,16.5694,15.7639,20.2778,38.6528c0.666667,3.44444,1.13889,7.31944,1.44444,11.3611c0.597222,6.20833,0.875,12.7778,0.875,19.5833c0,38.5,-10.125,69.75,-22.6389,69.75c-0.430556,0,-0.875,-0.0277778,-1.33333,-0.138889c-0.263889,-0.0277778,-0.486111,-0.0555556,-0.763889,-0.111111c-3.15278,-0.791667,-6.08333,-3.38889,-8.65278,-7.51389C605.264,413.875,605.153,413.5,605.083,413.014M564.986,260.639c-12.5139,0,-22.6806,-31.25,-22.6806,-69.7361c0,-38.5,10.125,-69.6389,22.6806,-69.6389c8.13889,0,15.3194,13.2639,19.3056,33.1806c0.0416667,0.0972222,0.0694444,0.208333,0.0972222,0.319444c0.0416667,0.166667,0.111111,0.486111,0.166667,0.916667c2,10.3194,3.125,22.3333,3.125,35.2083c0,0.888889,0,1.81944,-0.0277778,2.70833c0,0.888889,0,1.73611,-0.0277778,2.54167c-0.513889,21.5,-4.18056,39.9722,-9.47222,51.5694c-0.0277778,0.0277778,-0.0555556,0.0694444,-0.0694444,0.111111c-0.0972222,0.222222,-0.194444,0.402778,-0.291667,0.597222c-0.0833333,0.166667,-0.166667,0.319444,-0.25,0.5c-0.0555556,0.0555556,-0.0833333,0.0972222,-0.0972222,0.152778C573.903,256.361,569.597,260.639,564.986,260.639M564.986,77.5c-49.375,0,-89.4028,122.986,-89.4028,274.597c0,46.125,3.73611,89.6111,10.2222,127.778c14.9583,87.4028,44.7917,146.972,79.1389,146.972c49.3333,0,89.3472,-122.972,89.3472,-274.75c0,-112.444,-22.0139,-209.153,-53.5139,-251.625C599.028,98.0972,597.222,95.875,595.375,93.8472L564.986,77.5"/>
         <path fill="#999999" stroke-width="0" d="M564.986,77.5l30.4028,16.3611l0.0277778,0.0138889c-8.11111,-9.05556,-16.7639,-14.5694,-25.75,-16c-0.111111,0,-0.194444,-0.0138889,-0.25,-0.0277778c-0.291667,-0.0416667,-0.597222,-0.0833333,-0.888889,-0.111111c-0.0833333,-0.0138889,-0.194444,-0.0138889,-0.277778,-0.0277778c-0.291667,-0.0277778,-0.513889,-0.0555556,-0.805556,-0.0694444c-0.125,-0.0138889,-0.236111,-0.0138889,-0.305556,-0.0277778c-0.291667,-0.0138889,-0.541667,-0.0277778,-0.847222,-0.0416667c-0.111111,0,-0.194444,0,-0.291667,-0.0138889C565.722,77.5,565.361,77.5,564.986,77.5"/>
         <path fill="#1A1A1A" stroke-width="0" d="M577.792,248.403c-0.0833333,0.166667,-0.166667,0.319444,-0.25,0.5C577.625,248.722,577.708,248.556,577.792,248.403M578.125,247.694c-0.0416667,0.0277778,-0.0555556,0.0694444,-0.0694444,0.111111C578.097,247.764,578.125,247.722,578.125,247.694M584.514,155.667c0.708333,4.91667,3.01389,25.8889,3.09722,37.9167c0.0277778,-0.888889,0.0277778,-1.80556,0.0277778,-2.70833C587.639,178.014,586.514,165.986,584.514,155.667M564.986,121.25c-12.5139,0,-22.6806,31.125,-22.6806,69.6389c0,38.4861,10.125,69.7361,22.6806,69.7361c4.61111,0,8.91667,-4.27778,12.4583,-11.5833c-3.61111,7.30556,-7.875,11.5139,-12.4583,11.5139c-0.569444,0,-1.13889,-0.0555556,-1.70833,-0.194444c-3.15278,-0.777778,-6.08333,-3.375,-8.65278,-7.5c-4.125,-6.59722,25.0417,-98.7639,29.3194,-98.7639c0.138889,0,0.263889,0.111111,0.305556,0.305556C580.306,134.5,573.125,121.25,564.986,121.25"/>
         <path fill="#1A1A1A" stroke-width="0" d="M637.875,332.514c0.680556,8.56944,0.708333,17.8194,0.513889,24.9861c-0.888889,36.4861,-10.8472,64.3194,-22.5972,64.3194c-0.319444,0,-0.652778,-0.0277778,-0.972222,-0.0833333c0.430556,0.111111,0.875,0.138889,1.33333,0.138889c12.5,0,22.6389,-31.25,22.6389,-69.75C638.792,345.319,638.472,338.736,637.875,332.514M616.153,282.5c-12.5,0,-22.6944,31.25,-22.6944,69.6389c0,26.1528,4.69444,48.9444,11.625,60.875c-1.65278,-12.3194,25.3333,-97.4722,29.6806,-97.4722c0.194444,0,0.319444,0.166667,0.416667,0.458333c0.472222,1.54167,0.875,3.27778,1.25,5.15278C632.722,298.264,625.042,282.5,616.153,282.5"/>
         <path fill="#1A1A1A" stroke-width="0" d="M587.639,514.875c-0.0277778,1.33333,-0.0555556,2.58333,-0.0833333,3.76389c-0.875,36.625,-10.8056,64.4583,-22.5972,64.4583c-0.569444,0,-1.13889,-0.0555556,-1.70833,-0.222222c-2.54167,-0.597222,-4.91667,-2.44444,-7.18056,-5.29167c2.73611,3.58333,5.73611,5.52778,8.91667,5.52778C577.361,583.125,587.375,552.681,587.639,514.875M564.986,443.75c-12.5139,0,-22.6806,31.1389,-22.6806,69.6389c0,26.8889,4.91667,50.2083,12.1806,61.8472c-3.66667,-7.76389,24.9583,-98.4444,29.4306,-98.4444c0.194444,0,0.291667,0.166667,0.388889,0.458333c0.0277778,0.0555556,0.0416667,0.138889,0.0555556,0.194444C580.431,457.222,573.236,443.75,564.986,443.75"/>
         <path fill="#333333" stroke-width="0" d="M583.944,154.111c-4.31944,0,-33.4444,92.2083,-29.3194,98.7639c2.61111,4.125,5.5,6.72222,8.65278,7.5c0.569444,0.138889,1.13889,0.194444,1.70833,0.194444c4.58333,0,8.88889,-4.20833,12.4583,-11.5139c0.0138889,-0.0416667,0.0416667,-0.0972222,0.0972222,-0.152778c0.0833333,-0.180556,0.166667,-0.333333,0.25,-0.5c0.0972222,-0.194444,0.194444,-0.402778,0.291667,-0.597222c0.0138889,-0.0277778,0.0416667,-0.0694444,0.0694444,-0.111111c5.29167,-11.5833,8.95833,-30.0694,9.47222,-51.5694c0.0277778,-0.805556,0.0277778,-1.63889,0.0277778,-2.54167c-0.0833333,-12.0278,-2.38889,-33,-3.09722,-37.9167c-0.0555556,-0.430556,-0.125,-0.763889,-0.166667,-0.916667c-0.0277778,-0.138889,-0.0555556,-0.25,-0.0972222,-0.319444C584.208,154.208,584.083,154.111,583.944,154.111"/>
         <path fill="#333333" stroke-width="0" d="M634.764,315.542c-4.34722,0,-31.3333,85.1528,-29.6806,97.4722c0.0694444,0.486111,0.180556,0.875,0.319444,1.11111c2.61111,4.125,5.5,6.72222,8.65278,7.51389c0.277778,0.0555556,0.513889,0.0833333,0.763889,0.111111c0.319444,0.0555556,0.652778,0.0833333,0.972222,0.0833333c11.75,0,21.7083,-27.8333,22.5972,-64.3194c0.194444,-7.16667,0.166667,-16.4167,-0.513889,-24.9861c-0.305556,-4.04167,-0.819444,-7.90278,-1.44444,-11.3472c-0.333333,-1.88889,-0.777778,-3.625,-1.25,-5.15278C635.083,315.694,634.917,315.542,634.764,315.542"/>
         <path fill="#333333" stroke-width="0" d="M583.917,476.792c-4.47222,0,-33.0972,90.6528,-29.4306,98.4444c0.0277778,0.0555556,0.0555556,0.111111,0.0833333,0.138889c0.486111,0.819444,1,1.51389,1.5,2.19444c2.22222,2.875,4.63889,4.72222,7.18056,5.31944c0.569444,0.138889,1.13889,0.222222,1.70833,0.222222c11.7917,0,21.7083,-27.8611,22.5972,-64.4861c0.0277778,-1.16667,0.0555556,-2.44444,0.0833333,-3.75c0.166667,-11.9861,-0.347222,-28.0694,-3.23611,-37.4583c-0.0138889,-0.0555556,-0.0277778,-0.111111,-0.0555556,-0.166667C584.25,476.917,584.111,476.792,583.917,476.792"/>
         <path fill="#999999" stroke-width="0" d="M460.375,272.5L453.333,272.5l-11.2917,0c-0.652778,0,-1.22222,1.61111,-1.22222,3.5l0,142.486c0,1.90278,0.569444,3.5,1.22222,3.5l10.6528,0l7.72222,0c0.0833333,0,0.152778,0,0.236111,-0.0555556c0.597222,-0.291667,1.02778,-1.76389,1.02778,-3.44444L461.681,276c0,-0.944444,-0.152778,-1.83333,-0.347222,-2.48611C461.056,272.889,460.708,272.5,460.375,272.5"/>
        </g>
       </g>
      </g>
     </g>
    </g>
   </g>
  </g>
  <g transform="translate(373.799,1134.05)">
   <rect width="31.93" x="0" y="0" fill="#8D8C8C" height="31.9" id="connector0pin" stroke-width="0"/>
   <rect width="16.4442" x="7.79153" y="7.73544" fill="#8C8663" height="16.4152" stroke-width="0"/>
   <polygon fill="#B8AF82" points="0,31.9,7.79153,24.1368,7.79153,6.97162,0,0" stroke-width="0"/>
   <polygon fill="#80795B" points="24.2079,7.76321,7.90264,7.76321,0,0,31.93,0" stroke-width="0"/>
   <polygon fill="#5E5B43" points="24.2079,24.1368,24.2079,7.76321,31.93,0,31.93,31.9" stroke-width="0"/>
   <polygon fill="#9A916C" points="0,31.9,7.87486,24.1368,24.2079,24.1368,31.93,31.9" stroke-width="0"/>
  </g>
  <g transform="translate(373.799,34.05)">
   <rect width="31.93" x="0" y="0" fill="#8D8C8C" height="31.9" id="connector3pin" stroke-width="0"/>
   <rect width="16.4442" x="7.79153" y="7.73544" fill="#8C8663" height="16.4152" stroke-width="0"/>
   <polygon fill="#B8AF82" points="0,31.9,7.79153,24.1368,7.79153,6.97162,0,0" stroke-width="0"/>
   <polygon fill="#80795B" points="24.2079,7.76321,7.90264,7.76321,0,0,31.93,0" stroke-width="0"/>
   <polygon fill="#5E5B43" points="24.2079,24.1368,24.2079,7.76321,31.93,0,31.93,31.9" stroke-width="0"/>
   <polygon fill="#9A916C" points="0,31.9,7.87486,24.1368,24.2079,24.1368,31.93,31.9" stroke-width="0"/>
  </g>
  <g transform="translate(473.799,1134.05)">
   <rect width="31.93" x="0" y="0" fill="#8D8C8C" height="31.9" id="connector1pin" stroke-width="0"/>
   <rect width="16.4442" x="7.79153" y="7.73544" fill="#8C8663" height="16.4152" stroke-width="0"/>
   <polygon fill="#B8AF82" points="0,31.9,7.79153,24.1368,7.79153,6.97162,0,0" stroke-width="0"/>
   <polygon fill="#80795B" points="24.2079,7.76321,7.90264,7.76321,0,0,31.93,0" stroke-width="0"/>
   <polygon fill="#5E5B43" points="24.2079,24.1368,24.2079,7.76321,31.93,0,31.93,31.9" stroke-width="0"/>
   <polygon fill="#9A916C" points="0,31.9,7.87486,24.1368,24.2079,24.1368,31.93,31.9" stroke-width="0"/>
  </g>
  <g transform="translate(473.799,34.05)">
   <rect width="31.93" x="0" y="0" fill="#8D8C8C" height="31.9" id="connector2pin" stroke-width="0"/>
   <rect width="16.4442" x="7.79153" y="7.73544" fill="#8C8663" height="16.4152" stroke-width="0"/>
   <polygon fill="#B8AF82" points="0,31.9,7.79153,24.1368,7.79153,6.97162,0,0" stroke-width="0"/>
   <polygon fill="#80795B" points="24.2079,7.76321,7.90264,7.76321,0,0,31.93,0" stroke-width="0"/>
   <polygon fill="#5E5B43" points="24.2079,24.1368,24.2079,7.76321,31.93,0,31.93,31.9" stroke-width="0"/>
   <polygon fill="#9A916C" points="0,31.9,7.87486,24.1368,24.2079,24.1368,31.93,31.9" stroke-width="0"/>
  </g>
 </g>
 <text x="50" y="624.375" font-family="OCRA" fill="white" text-anchor="start" stroke="none" id="label" stroke-width="0" font-size="65"/>
 <g transform="translate(403.264,1126.05)">
  <g transform="rotate(-90)">
   <text x="0" y="0" font-family="OCRA" fill="white" text-anchor="start" stroke="none" stroke-width="0" font-size="45"/>
  </g>
 </g>
 <g transform="translate(403.264,73.95)">
  <g transform="rotate(-90)">
   <text x="0" y="0" font-family="OCRA" fill="white" text-anchor="end" stroke="none" stroke-width="0" font-size="45"/>
  </g>
 </g>
 <g transform="translate(503.264,1126.05)">
  <g transform="rotate(-90)">
   <text x="0" y="0" font-family="OCRA" fill="white" text-anchor="start" stroke="none" stroke-width="0" font-size="45"/>
  </g>
 </g>
 <g transform="translate(503.264,73.95)">
  <g transform="rotate(-90)">
   <text x="0" y="0" font-family="OCRA" fill="white" text-anchor="end" stroke="none" stroke-width="0" font-size="45"/>
  </g>
 </g>
</svg>
