<?xml version='1.0' encoding='UTF-8' standalone='no'?>
<!-- Created with Fritzing (http://www.fritzing.org/) -->
<svg width="0.432283in" x="0in" version="1.2" y="0in" xmlns="http://www.w3.org/2000/svg" height="0.6in" viewBox="0 0 432.283 600" baseProfile="tiny" xmlns:svg="http://www.w3.org/2000/svg">
 <desc>Fritzing breadboard generated by brd2svg</desc>
 <g id="breadboard">
  <g id="icon">
   <path fill="#1F7A34" stroke="none" stroke-width="0" d="M0,0L0,270A30,30 0 0 1 0,330L0,600L432.283,600L432.283,0L0,0z"/>
   <g transform="translate(-16.1417,89.1996)">
    <g transform="matrix(0.5, 0, 0, 0.5, 116.142, 105.4)">
     <rect width="137.795" x="0" y="142.01" fill="#F7BD13" connectorname="-" height="78.7399" stroke="none" stroke-linecap="round" stroke-width="0"/>
     <rect width="137.795" x="326.772" y="142.01" fill="#F7BD13" connectorname="+" height="78.7399" stroke="none" stroke-linecap="round" stroke-width="0"/>
     <circle fill="black" cx="78.7402" cy="269.962" stroke="black" r="15.748" id="nonconn0" stroke-width="0"/>
     <circle fill="black" cx="320.866" cy="27.837" stroke="black" r="15.748" id="nonconn1" stroke-width="0"/>
     <rect width="338.709" x="62.9291" y="0" fill="#303030" height="421.601" stroke="none" stroke-width="0"/>
     <polygon fill="#1f1f1f" points="62.9291,0 401.638,0 391.638,10 72.9291,10"/>
     <polygon fill="#1f1f1f" points="62.9291,421.601 401.638,421.601 391.638,411.601 72.9291,411.601"/>
     <polygon fill="#000000" points="62.9291,0 62.9291,421.601 72.9291,411.601 72.9291,10"/>
     <polygon fill="#3d3d3d" points="401.638,0 401.638,421.601 391.638,411.601 391.638,10"/>
     <circle fill="#1f1f1f" cx="92.9291" cy="391.601" stroke="none" r="10" stroke-width="0"/>
    </g>
   </g>
   <text x="50" y="324.375" font-family="OCRA" fill="white" text-anchor="start" stroke="none" id="label" stroke-width="0" font-size="65">BUZZER-CCV-KIT</text>
   <g transform="translate(229.642,526.05)">
    <g transform="rotate(-90)">
     <text x="0" y="0" font-family="OCRA" fill="white" text-anchor="start" stroke="none" stroke-width="0" font-size="45">+</text>
    </g>
   </g>
   <g transform="translate(229.642,73.95)">
    <g transform="rotate(-90)">
     <text x="0" y="0" font-family="OCRA" fill="white" text-anchor="end" stroke="none" stroke-width="0" font-size="45">-</text>
    </g>
   </g>
  </g>
  <g transform="translate(200.177,534.05)">
   <rect width="31.93" x="0" y="0" fill="#8D8C8C" height="31.9" id="connector0pin" stroke-width="0"/>
   <rect width="16.4442" x="7.79153" y="7.73544" fill="#8C8663" height="16.4152" stroke-width="0"/>
   <polygon fill="#B8AF82" points="0,31.9,7.79153,24.1368,7.79153,6.97162,0,0" stroke-width="0"/>
   <polygon fill="#80795B" points="24.2079,7.76321,7.90264,7.76321,0,0,31.93,0" stroke-width="0"/>
   <polygon fill="#5E5B43" points="24.2079,24.1368,24.2079,7.76321,31.93,0,31.93,31.9" stroke-width="0"/>
   <polygon fill="#9A916C" points="0,31.9,7.87486,24.1368,24.2079,24.1368,31.93,31.9" stroke-width="0"/>
  </g>
  <g transform="translate(200.177,34.05)">
   <rect width="31.93" x="0" y="0" fill="#8D8C8C" height="31.9" id="connector1pin" stroke-width="0"/>
   <rect width="16.4442" x="7.79153" y="7.73544" fill="#8C8663" height="16.4152" stroke-width="0"/>
   <polygon fill="#B8AF82" points="0,31.9,7.79153,24.1368,7.79153,6.97162,0,0" stroke-width="0"/>
   <polygon fill="#80795B" points="24.2079,7.76321,7.90264,7.76321,0,0,31.93,0" stroke-width="0"/>
   <polygon fill="#5E5B43" points="24.2079,24.1368,24.2079,7.76321,31.93,0,31.93,31.9" stroke-width="0"/>
   <polygon fill="#9A916C" points="0,31.9,7.87486,24.1368,24.2079,24.1368,31.93,31.9" stroke-width="0"/>
  </g>
 </g>
</svg>
