<?xml version="1.0" encoding="utf-8"?>
<!-- Generator: Adobe Illustrator 15.1.0, SVG Export Plug-In . SVG Version: 6.00 Build 0)  -->
<!DOCTYPE svg PUBLIC "-//W3C//DTD SVG 1.1//EN" "http://www.w3.org/Graphics/SVG/1.1/DTD/svg11.dtd">
<svg version="1.1" id="Ebene_1" xmlns:svg="http://www.w3.org/2000/svg"
	 xmlns="http://www.w3.org/2000/svg" xmlns:xlink="http://www.w3.org/1999/xlink" x="0px" y="0px" width="54.936px"
	 height="70.775px" viewBox="0 0 54.936 70.775" enable-background="new 0 0 54.936 70.775" xml:space="preserve">
<g id="breadboard">
	<circle id="connector1pin" fill="none" stroke="#9A916C" stroke-width="0.254" cx="17.568" cy="46.368" r="2.628"/>
	<circle id="connector2pin" fill="none" stroke="#9A916C" stroke-width="0.254" cx="6.768" cy="35.568" r="2.052"/>
	<circle id="connector0pin" fill="none" stroke="#9A916C" stroke-width="0.254" cx="19.368" cy="24.768" r="2.628"/>
	<circle id="connector3pin" fill="none" stroke="#9A916C" stroke-width="0.254" cx="35.568" cy="12.168" r="2.052"/>
</g>
<g>
	<path fill="#808080" d="M7.195,52.748c-1.556-0.298-2.829-1.837-2.829-3.421V20.092c0-1.584,1.273-3.124,2.829-3.421l35.034-6.702
		c1.557-0.297,2.829-1.245,2.829,0.339v48.804c0,1.584-1.272,0.637-2.829,0.339L7.195,52.748z"/>
	<path fill="#CCCCCC" d="M7.366,19.717c0-0.828,1.275-1.734,2.834-2.015l32.023-5.764c1.559-0.281,2.411,0.715,1.895,2.212
		l-0.461,1.339c-0.517,1.498-2.23,2.833-3.809,2.967l-29.613,2.521C8.657,21.112,7.366,20.544,7.366,19.717z"/>
	<path fill="#666666" d="M45.058,58.379L8.049,51.464c-1.557-0.291-2.831-1.825-2.831-3.409l0-1.095c0-1.584,1.293-2.799,2.875-2.7
		l30.002,1.878c1.58,0.099,3.29,1.407,3.799,2.907L45.058,58.379"/>
	<g>
		<g enable-background="new    ">
			<g>
				<path fill="#4D4D4D" d="M37.226,42.806c0.005,0.046,0.01,0.091,0.015,0.136C37.236,42.897,37.231,42.852,37.226,42.806
					 M46.479,9.734c0.031,0.017,0.062,0.034,0.093,0.052C46.54,9.768,46.51,9.75,46.479,9.734 M46.381,9.683
					c0.017,0.009,0.034,0.017,0.051,0.026C46.415,9.7,46.398,9.691,46.381,9.683 M46.281,9.635c0.011,0.005,0.022,0.01,0.034,0.016
					C46.304,9.645,46.292,9.64,46.281,9.635 M46.192,9.595c0.004,0.001,0.007,0.003,0.01,0.004
					C46.198,9.598,46.196,9.596,46.192,9.595 M45.674,9.425c0.007,0.001,0.014,0.003,0.021,0.005
					C45.688,9.428,45.681,9.426,45.674,9.425 M45.562,9.401c0.011,0.002,0.021,0.004,0.031,0.006
					C45.582,9.405,45.573,9.403,45.562,9.401 M45.446,9.382c0.015,0.002,0.029,0.004,0.044,0.007
					C45.475,9.386,45.46,9.384,45.446,9.382 M45.329,9.367c0.017,0.001,0.034,0.003,0.051,0.005
					C45.363,9.371,45.346,9.369,45.329,9.367 M45.205,9.357c0.021,0.001,0.044,0.002,0.065,0.004
					C45.249,9.36,45.227,9.359,45.205,9.357 M45.045,9.352c0.038,0,0.075,0.001,0.113,0.002C45.12,9.353,45.083,9.352,45.045,9.352
					 M45.045,9.352l-0.396,1.732c0.133-0.021,0.266-0.031,0.399-0.031c4.248,0,7.691,10.593,7.691,23.652c0,0.007,0,0.014,0,0.021
					c0,0.005,0,0.01,0,0.015c0,13.041-3.438,23.625-7.68,23.625c-1.062,0-2.073-0.662-2.993-1.859
					c-2.099-2.715-3.725-8.209-4.387-14.984l-0.401,1.751c-0.009-0.074-0.018-0.147-0.025-0.223
					c1.122,9.906,4.188,17.017,7.792,17.017c4.556,0,8.248-11.357,8.248-25.362c0-12.395-2.893-22.709-6.716-24.916
					c0.114,0.066,0.227,0.14,0.339,0.22L45.045,9.352"/>
				<path fill="#666666" d="M45.045,9.352l1.871,0.657c-0.112-0.081-0.225-0.154-0.339-0.22c-0.002-0.001-0.004-0.002-0.006-0.003
					c-0.031-0.018-0.062-0.035-0.093-0.052c-0.016-0.008-0.031-0.017-0.047-0.024c-0.017-0.009-0.034-0.018-0.051-0.026
					c-0.022-0.011-0.044-0.021-0.065-0.032c-0.012-0.006-0.023-0.011-0.034-0.016c-0.026-0.012-0.054-0.024-0.08-0.036
					c-0.003-0.001-0.006-0.002-0.01-0.004c-0.164-0.07-0.33-0.125-0.497-0.166c-0.007-0.001-0.014-0.003-0.021-0.005
					c-0.026-0.006-0.054-0.012-0.081-0.017c-0.01-0.002-0.021-0.004-0.031-0.006c-0.024-0.004-0.048-0.009-0.072-0.013
					c-0.015-0.002-0.029-0.005-0.044-0.007c-0.022-0.003-0.044-0.006-0.065-0.009c-0.017-0.002-0.034-0.004-0.051-0.005
					c-0.02-0.002-0.039-0.004-0.059-0.006c-0.021-0.002-0.044-0.003-0.065-0.004c-0.016-0.001-0.031-0.002-0.047-0.003
					C45.12,9.353,45.083,9.352,45.045,9.352"/>
				<path fill="#CCCCCC" d="M37.529,39.732c-0.005,0.003-0.01,0.004-0.016,0.004h-0.555c0.068,1.049,0.158,2.074,0.268,3.07
					c0.005,0.046,0.01,0.091,0.015,0.136c0.004,0.036,0.009,0.072,0.013,0.108c0.008,0.075,0.017,0.148,0.025,0.223l0.401-1.751
					C37.622,40.934,37.572,40.338,37.529,39.732 M45.045,9.352c-3.913,0-7.192,8.378-8.038,19.62h0.506
					c0.024,0,0.047,0.029,0.063,0.075c0.795-9.945,3.637-17.421,7.072-17.962L45.045,9.352"/>
				<path fill="#1A1A1A" d="M45.048,11.053c-0.134,0-0.267,0.011-0.399,0.031c-3.436,0.541-6.277,8.018-7.072,17.962
					c0.017,0.046,0.027,0.109,0.027,0.177v10.26c0,0.12-0.032,0.226-0.075,0.248c0.043,0.606,0.094,1.202,0.151,1.79
					c0.662,6.775,2.288,12.27,4.387,14.984c-1.511-1.967-2.774-5.378-3.608-9.669l0.889-2.933c-0.47-2.748-0.736-5.879-0.736-9.2
					c0-10.917,2.881-19.773,6.435-19.773c0.026,0,0.053,0,0.079,0.001c0.007,0,0.014,0.001,0.021,0.001
					c0.02,0.001,0.039,0.002,0.059,0.003c0.008,0.001,0.017,0.001,0.024,0.002c0.019,0.001,0.037,0.003,0.057,0.005
					c0.006,0.001,0.013,0.001,0.02,0.002c0.021,0.002,0.041,0.005,0.063,0.008c0.005,0.001,0.011,0.002,0.018,0.002
					c0.647,0.103,1.271,0.5,1.854,1.152l-0.002-0.001c0.132,0.146,0.262,0.306,0.389,0.478l0.89-2.934
					c2.505,3.886,4.223,11.862,4.225,21.072c0-0.007,0-0.014,0-0.021C52.74,21.646,49.296,11.053,45.048,11.053"/>
				<path fill="#333333" d="M48.515,13.654l-0.89,2.934c2.268,3.058,3.853,10.021,3.853,18.117c0,10.926-2.881,19.782-6.433,19.782
					c-2.474,0-4.621-4.29-5.698-10.582l-0.889,2.933c0.834,4.291,2.098,7.702,3.608,9.669c0.92,1.197,1.932,1.859,2.993,1.859
					c4.242,0,7.68-10.584,7.68-23.625h-0.006h0.006c0-0.005,0-0.01,0-0.015C52.738,25.516,51.02,17.54,48.515,13.654"/>
				<path fill="#999999" d="M45.366,14.956c0.005,0.001,0.011,0.002,0.018,0.002C45.377,14.958,45.371,14.957,45.366,14.956
					 M45.284,14.946c0.006,0.001,0.013,0.001,0.02,0.002C45.297,14.947,45.29,14.947,45.284,14.946 M45.203,14.938
					c0.009,0.001,0.017,0.001,0.024,0.002C45.22,14.939,45.211,14.939,45.203,14.938 M45.124,14.933
					c0.007,0,0.014,0.001,0.021,0.001C45.138,14.934,45.131,14.934,45.124,14.933 M44.29,50.768
					c-0.521-0.839-0.878-2.519-0.878-4.453c0-2.771,0.731-5.013,1.633-5.013c0.594,0,1.112,0.971,1.397,2.424
					c0.208,0.677,0.245,1.833,0.233,2.697c-0.019,2.723-0.74,4.914-1.631,4.914c-0.227,0-0.442-0.143-0.64-0.4
					c-0.037-0.049-0.074-0.102-0.109-0.158C44.294,50.776,44.292,50.772,44.29,50.768 M47.932,39.089
					c-0.499-0.859-0.837-2.501-0.837-4.384c0-2.763,0.731-5.013,1.634-5.013c0.641,0,1.193,1.135,1.46,2.783
					c0.048,0.248,0.082,0.528,0.104,0.819c0.043,0.448,0.065,0.921,0.065,1.411c0,2.772-0.729,5.022-1.63,5.022
					c-0.031,0-0.063-0.003-0.095-0.009c-0.018-0.002-0.036-0.005-0.055-0.009c-0.226-0.055-0.437-0.243-0.624-0.54
					C47.945,39.151,47.937,39.124,47.932,39.089 M45.045,28.117c-0.901,0-1.633-2.25-1.633-5.022s0.731-5.013,1.633-5.013
					c0.587,0,1.103,0.955,1.39,2.388c0.003,0.007,0.005,0.015,0.007,0.024c0.003,0.012,0.007,0.035,0.011,0.066
					c0.143,0.743,0.224,1.609,0.224,2.535c0,0.065,0,0.131-0.001,0.196c0,0.064,0,0.125-0.002,0.182
					c-0.038,1.548-0.301,2.878-0.683,3.713c-0.001,0.002-0.002,0.005-0.003,0.008c-0.007,0.015-0.014,0.029-0.021,0.043
					c-0.006,0.012-0.012,0.024-0.018,0.036c-0.002,0.004-0.004,0.007-0.005,0.011C45.687,27.81,45.377,28.117,45.045,28.117
					 M45.045,14.932c-3.554,0-6.435,8.856-6.435,19.773c0,3.321,0.267,6.452,0.736,9.2c1.077,6.292,3.225,10.582,5.698,10.582
					c3.552,0,6.433-8.855,6.433-19.782c0-8.096-1.585-15.059-3.853-18.117c-0.127-0.172-0.257-0.332-0.389-0.478L45.045,14.932"/>
				<path fill="#999999" d="M45.045,14.932l2.191,1.178l0.002,0.001c-0.584-0.652-1.207-1.049-1.854-1.152
					c-0.007,0-0.013-0.001-0.018-0.002c-0.021-0.003-0.042-0.006-0.063-0.008c-0.007-0.001-0.014-0.001-0.02-0.002
					c-0.02-0.002-0.038-0.004-0.057-0.005c-0.008-0.001-0.016-0.001-0.024-0.002c-0.02-0.001-0.039-0.002-0.059-0.003
					c-0.007,0-0.014,0-0.021-0.001C45.098,14.932,45.072,14.932,45.045,14.932"/>
				<path fill="#1A1A1A" d="M45.967,27.237c-0.006,0.012-0.012,0.024-0.018,0.036C45.955,27.261,45.961,27.249,45.967,27.237
					 M45.99,27.186c-0.001,0.002-0.002,0.005-0.003,0.008C45.989,27.191,45.99,27.188,45.99,27.186 M46.452,20.56
					c0.051,0.355,0.217,1.865,0.223,2.731c0.001-0.065,0.001-0.13,0.001-0.196C46.676,22.169,46.595,21.303,46.452,20.56
					 M45.045,18.082c-0.901,0-1.633,2.241-1.633,5.013s0.731,5.022,1.633,5.022c0.332,0,0.642-0.307,0.899-0.833
					c-0.26,0.526-0.569,0.829-0.898,0.829c-0.041,0-0.082-0.004-0.123-0.014c-0.226-0.054-0.437-0.243-0.624-0.54
					c-0.296-0.473,1.803-7.111,2.111-7.111c0.011,0,0.019,0.008,0.024,0.022C46.148,19.036,45.632,18.082,45.045,18.082"/>
				<path fill="#1A1A1A" d="M50.293,33.294c0.049,0.616,0.051,1.283,0.037,1.798c-0.064,2.627-0.781,4.631-1.627,4.631
					c-0.023,0-0.046-0.002-0.069-0.005c0.031,0.006,0.063,0.009,0.095,0.009c0.901,0,1.63-2.25,1.63-5.022
					C50.359,34.215,50.336,33.741,50.293,33.294 M48.729,29.692c-0.902,0-1.634,2.25-1.634,5.013c0,1.883,0.338,3.525,0.837,4.384
					c-0.119-0.888,1.825-7.018,2.137-7.018c0.013,0,0.023,0.011,0.03,0.033c0.034,0.112,0.064,0.237,0.09,0.371
					C49.922,30.827,49.369,29.692,48.729,29.692"/>
				<path fill="#1A1A1A" d="M46.676,46.423c-0.001,0.094-0.003,0.185-0.006,0.27c-0.063,2.636-0.778,4.641-1.626,4.641
					c-0.041,0-0.083-0.005-0.124-0.015c-0.181-0.043-0.354-0.176-0.515-0.382c0.197,0.258,0.413,0.4,0.64,0.4
					C45.936,51.337,46.657,49.146,46.676,46.423 M45.045,41.302c-0.901,0-1.633,2.241-1.633,5.013c0,1.935,0.356,3.614,0.878,4.453
					c-0.263-0.559,1.796-7.088,2.118-7.088c0.014,0,0.023,0.011,0.03,0.034c0.002,0.004,0.003,0.008,0.004,0.012
					C46.157,42.273,45.639,41.302,45.045,41.302"/>
				<path fill="#333333" d="M46.41,20.448c-0.309,0-2.407,6.639-2.111,7.111c0.188,0.297,0.398,0.486,0.624,0.54
					c0.041,0.01,0.082,0.014,0.123,0.014c0.329,0,0.639-0.303,0.898-0.829c0.001-0.003,0.003-0.007,0.005-0.011
					c0.006-0.012,0.012-0.024,0.018-0.036c0.007-0.014,0.014-0.029,0.021-0.043c0.001-0.002,0.002-0.005,0.003-0.008
					c0.382-0.834,0.645-2.165,0.683-3.713c0.002-0.057,0.002-0.118,0.002-0.182c-0.006-0.866-0.172-2.376-0.223-2.731
					c-0.004-0.031-0.008-0.054-0.011-0.066c-0.002-0.01-0.004-0.018-0.007-0.024C46.429,20.455,46.421,20.448,46.41,20.448"/>
				<path fill="#333333" d="M50.069,32.071c-0.312,0-2.256,6.13-2.137,7.018c0.005,0.035,0.013,0.062,0.023,0.08
					c0.188,0.297,0.398,0.485,0.624,0.54c0.019,0.004,0.037,0.007,0.055,0.009c0.023,0.003,0.046,0.005,0.069,0.005
					c0.846,0,1.563-2.004,1.627-4.631c0.014-0.516,0.012-1.182-0.037-1.798c-0.022-0.291-0.057-0.571-0.104-0.819
					c-0.025-0.134-0.056-0.259-0.09-0.371C50.092,32.082,50.081,32.071,50.069,32.071"/>
				<path fill="#333333" d="M46.408,43.68c-0.322,0-2.381,6.529-2.118,7.088c0.002,0.004,0.004,0.008,0.006,0.011
					c0.035,0.057,0.072,0.109,0.109,0.158c0.16,0.206,0.334,0.339,0.515,0.382c0.041,0.01,0.083,0.015,0.124,0.015
					c0.848,0,1.563-2.005,1.626-4.641c0.003-0.085,0.005-0.176,0.006-0.27c0.012-0.864-0.025-2.021-0.233-2.697
					c-0.001-0.004-0.002-0.008-0.004-0.012C46.432,43.691,46.422,43.68,46.408,43.68"/>
				<path fill="#999999" d="M37.513,28.972h-0.506h-0.814c-0.047,0-0.088,0.117-0.088,0.252v10.26c0,0.136,0.041,0.252,0.088,0.252
					h0.766h0.555c0.006,0,0.011-0.001,0.016-0.004c0.043-0.022,0.075-0.128,0.075-0.248v-10.26c0-0.068-0.011-0.131-0.027-0.177
					S37.537,28.972,37.513,28.972"/>
			</g>
		</g>
	</g>
</g>
</svg>
