<?xml version="1.0" encoding="utf-8"?>
<!-- Generator: Adobe Illustrator 15.1.0, SVG Export Plug-In . SVG Version: 6.00 Build 0)  -->
<!DOCTYPE svg PUBLIC "-//W3C//DTD SVG 1.1//EN" "http://www.w3.org/Graphics/SVG/1.1/DTD/svg11.dtd">
<svg version="1.1"
	 id="svg2" xmlns:svg="http://www.w3.org/2000/svg" xmlns:dc="http://purl.org/dc/elements/1.1/" xmlns:rdf="http://www.w3.org/1999/02/22-rdf-syntax-ns#" xmlns:cc="http://creativecommons.org/ns#"
	 xmlns="http://www.w3.org/2000/svg" xmlns:xlink="http://www.w3.org/1999/xlink" x="0px" y="0px" width="27.556px"
	 height="27.066px" viewBox="0 0 27.556 27.066" enable-background="new 0 0 27.556 27.066" xml:space="preserve">
<g id="breadboard">
	<rect id="connector0terminal" x="5.671" y="25.875" fill="#8C8C8C" width="1.814" height="1.186"/>
	<rect id="connector1terminal" x="12.871" y="25.875" fill="#8C8C8C" width="1.816" height="1.186"/>
	<rect id="connector2terminal" x="20.069" y="25.875" fill="#8C8C8C" width="1.814" height="1.186"/>
	<rect id="connector0pin" x="5.671" y="21.711" fill="#8C8C8C" width="1.814" height="5.355"/>
	<rect id="connector1pin" x="12.871" y="21.711" fill="#8C8C8C" width="1.816" height="5.355"/>
	<rect id="connector2pin" x="20.069" y="21.711" fill="#8C8C8C" width="1.814" height="5.355"/>
</g>
<g>
	<g>
		<rect id="rect4_1_" x="5.668" y="12.076" fill="#8C8C8C" width="1.814" height="14.965"/>
		<rect id="rect6_1_" x="12.868" y="12.076" fill="#8C8C8C" width="1.815" height="14.965"/>
		<rect id="rect8_1_" x="20.067" y="12.076" fill="#8C8C8C" width="1.813" height="14.965"/>
		<polygon id="polygon21_1_" fill="#8C8C8C" points="9.097,19.379 7.483,20.098 5.669,20.098 4.056,19.379 4.056,10.611 
			9.097,10.611 		"/>
		<polygon id="polygon23_1_" fill="#8C8C8C" points="16.296,19.379 14.683,20.098 12.869,20.098 11.256,19.379 11.256,10.611 
			16.296,10.611 		"/>
		<polygon id="polygon25_1_" fill="#8C8C8C" points="23.495,19.379 21.88,20.098 20.068,20.098 18.456,19.379 18.456,10.611 
			23.495,10.611 		"/>
		<rect x="4.061" y="17.27" fill="#808080" width="5.037" height="0.492"/>
		<rect x="11.267" y="17.27" fill="#808080" width="5.037" height="0.492"/>
		<rect x="18.463" y="17.27" fill="#808080" width="5.037" height="0.492"/>
	</g>
	<rect id="rect27_3_" x="-0.001" y="3.969" fill="#B3B3B3" width="27.557" height="13.3"/>
	<rect id="rect49_3_" x="-0.001" y="6.565" fill="#E6E6E6" width="27.557" height="3.347"/>
	<rect id="rect51_3_" x="-0.001" y="3.865" fill="#F2F2F2" width="27.557" height="4.139"/>
	<rect id="rect49_2_" x="8.174" y="4.269" width="11.205" height="3.347"/>
	<rect id="rect27_2_" x="14.432" y="2.218" fill="#333333" width="4.798" height="5.279"/>
	<rect id="rect51_2_" x="14.432" y="0.025" fill="#666666" width="4.798" height="2.192"/>
	<rect x="0.232" y="4.214" opacity="0.2" fill="#FFFFFF" enable-background="new    " width="7.083" height="0.279"/>
	<rect x="19.815" y="7.371" opacity="0.1" enable-background="new    " width="7.272" height="0.279"/>
	<rect x="0.565" y="16.48" opacity="0.1" enable-background="new    " width="26.522" height="0.277"/>
</g>
</svg>
