<?xml version='1.0' encoding='UTF-8' standalone='no'?>
<!-- Created with Fritzing (http://www.fritzing.org/) -->
<svg width="0.656653in" x="0in" version="1.2" y="0in" xmlns="http://www.w3.org/2000/svg" height="1.2in" viewBox="0 0 656.653 1200" baseProfile="tiny" xmlns:svg="http://www.w3.org/2000/svg">
 <desc>Fritzing breadboard generated by brd2svg</desc>
 <g id="breadboard">
  <g id="icon">
   <path fill="#1F7A34" stroke="none" stroke-width="0" d="M0,0L0,570A30,30 0 0 1 0,630L0,1200L656.653,1200L656.653,0L0,0z"/>
   <g transform="translate(100,198.604)">
    <g stroke-width="0">
     <path fill="#808080" stroke-width="0" d="M12.4444,46.1806c-6.875,0,-12.5,5.59722,-12.5,12.4444l0,731.708c0,6.86111,5.625,12.4444,12.5,12.4444l431.694,0c6.88889,0,12.4722,-5.58333,12.4722,-12.4444L456.611,58.6667c0,-6.86111,-5.58333,-12.4583,-12.4722,-12.4583L12.4444,46.1806L12.4444,46.1806z"/>
     <path fill="#E6E6E6" stroke-width="0" d="M15.8194,657.292c-6.875,0,-12.5,5.58333,-12.5,12.4444L3.31944,784.722c0,6.88889,5.625,12.4722,12.5,12.4722l425.014,0c6.86111,0,12.4722,-5.58333,12.4722,-12.4722l0,-114.986c0,-6.83333,-5.61111,-12.4444,-12.4722,-12.4444L15.8194,657.292z"/>
     <g stroke-width="0">
      <g stroke-width="0">
       <rect width="31.25" x="77.2639" y="295.889" fill="#666666" height="478.694" stroke-width="0"/>
      </g>
      <g stroke-width="0">
       <rect width="31.25" x="169.278" y="295.889" fill="#666666" height="478.694" stroke-width="0"/>
      </g>
      <g stroke-width="0">
       <rect width="31.25" x="261.292" y="295.889" fill="#666666" height="478.694" stroke-width="0"/>
      </g>
      <g stroke-width="0">
       <rect width="31.25" x="353.278" y="295.889" fill="#666666" height="478.694" stroke-width="0"/>
      </g>
     </g>
     <g stroke-width="0">
      <g stroke-width="0">
       <rect width="31.25" x="73.7917" y="295.889" fill="#999999" height="478.694" stroke-width="0"/>
      </g>
      <g stroke-width="0">
       <rect width="31.25" x="165.806" y="295.889" fill="#999999" height="478.694" stroke-width="0"/>
      </g>
      <g stroke-width="0">
       <rect width="31.25" x="257.819" y="295.889" fill="#999999" height="478.694" stroke-width="0"/>
      </g>
      <g stroke-width="0">
       <rect width="31.25" x="349.806" y="295.889" fill="#999999" height="478.694" stroke-width="0"/>
      </g>
     </g>
     <rect width="456.681" x="-0.0277778" y="647.931" fill="#CCCCCC" height="58.1667" stroke-width="0"/>
     <g stroke-width="0">
      <g stroke-width="0">
       <rect width="31.25" x="73.7917" y="0" fill="#999999" height="46.1806" stroke-width="0"/>
      </g>
      <g stroke-width="0">
       <rect width="31.25" x="165.806" y="0" fill="#999999" height="46.1806" stroke-width="0"/>
      </g>
      <g stroke-width="0">
       <rect width="31.25" x="257.819" y="0" fill="#999999" height="46.1806" stroke-width="0"/>
      </g>
      <g stroke-width="0">
       <rect width="31.25" x="349.806" y="0" fill="#999999" height="46.1806" stroke-width="0"/>
      </g>
     </g>
     <rect width="385.417" x="45.4167" y="443.181" fill="#666666" height="24.875" stroke-width="0"/>
     <path fill="#CCCCCC" stroke-width="0" d="M13.1111,46.1806c-7.23611,0,-13.1528,5.93056,-13.1528,13.1389l0,627.611c0,7.23611,5.91667,13.1528,13.1528,13.1528l430.361,0c7.23611,0,13.1111,-5.94444,13.1111,-13.1528L456.583,59.3611c0,-7.23611,-5.94444,-13.1389,-13.1111,-13.1389L13.1111,46.1806L13.1111,46.1806zM147.458,532.806c0,7.23611,-5.94444,13.1806,-13.1806,13.1806L70.5972,545.986c-7.23611,0,-13.1389,-5.97222,-13.1389,-13.1806l0,-54.2222c0,-7.23611,5.93056,-13.1528,13.1389,-13.1528l63.6667,0c7.23611,0,13.1528,5.97222,13.1528,13.1528l0,54.2222L147.458,532.806zM399.194,532.806c0,7.23611,-5.95833,13.1806,-13.1806,13.1806l-63.6667,0c-7.23611,0,-13.125,-5.97222,-13.125,-13.1806l0,-54.2222c0,-7.23611,5.91667,-13.1528,13.125,-13.1528l63.6667,0c7.23611,0,13.1389,5.97222,13.1389,13.1528l0,54.2222L399.194,532.806z"/>
     <polygon fill="#E6E6E6" points="276.528,231.653,180.111,231.653,196.181,134.431,260.444,134.431" stroke-width="0"/>
     <polygon fill="#B3B3B3" points="196.181,134.431,180.111,231.653,184.903,231.653,199.056,134.431" stroke-width="0"/>
     <path fill="#F2F2F2" stroke-width="0" d="M273.444,212.972l3.09722,18.6944l-96.375,0l0.291667,-1.69444C180.361,229.958,271.681,224.972,273.444,212.972z"/>
     <path fill="#E6E6E6" stroke-width="0" d="M-0.0277778,706.042c0,0,0,-633.764,0,-644.097c0,-11.4861,5.5,-15.7917,12.4861,-15.7917s289.611,0,289.611,0s-101.542,4.34722,-132.792,4.34722c-83.0417,0,-137.472,10.4167,-148.75,13.8889c-26.0694,8.04167,0.458333,465.653,-7.38889,635.722C13.0139,703.056,13.1111,700.125,-0.0277778,706.042z"/>
     <path fill="#B3B3B3" stroke-width="0" d="M456.653,104.917c0,61.3472,0,622.403,0,622.403s1.38889,-27.1528,-12.4722,-27.1528c4.61111,-33.1528,-0.0277778,-646.694,-0.0277778,-646.694S456.653,43.5833,456.653,104.917z"/>
     <path fill="#808080" stroke-width="0" d="M444.153,707.069c3.09722,0,5.52778,2.5,5.52778,5.52778l0,77.7222c0,3.09722,-2.51389,5.5,-5.52778,5.5L12.4444,795.819c-3.08333,0,-5.55556,-2.5,-5.55556,-5.5l0,-77.7083c0,-3.09722,2.52778,-5.52778,5.55556,-5.52778L444.153,707.069M444.153,700.125L12.4444,700.125c-6.875,0,-12.5,5.58333,-12.5,12.4722l0,77.7222c0,6.86111,5.625,12.4444,12.5,12.4444l431.694,0c6.88889,0,12.4722,-5.58333,12.4722,-12.4444l0,-77.7083C456.653,705.764,451.042,700.125,444.153,700.125L444.153,700.125z"/>
     <path fill="#CCCCCC" stroke-width="0" d="M73.7917,0l0,46.1806l3,0c0,0,0.0833333,-28.9444,0,-42.1528c0,-2.61111,25.75,1.16667,28.25,-0.236111L105.042,0L79.8472,0l0,0l0,0l0,0L73.7917,0z"/>
     <path fill="#CCCCCC" stroke-width="0" d="M165.806,0l0,46.1806l3,0c0,0,0.0694444,-28.9444,0,-42.1528c-0.0138889,-2.61111,25.75,1.16667,28.25,-0.25L197.056,0l-25.2083,0l0,0l0,0l0,0L165.806,0z"/>
     <path fill="#808080" stroke-width="0" d="M289.069,0l0,46.1806l-3.01389,0c0,0,-0.0833333,-28.9444,0,-42.1528C286.083,1.43056,282.986,0,282.986,0l0,0l0,0l0,0L289.069,0z"/>
     <path fill="#808080" stroke-width="0" d="M381.056,0l0,46.1806l-2.98611,0c0,0,-0.111111,-28.9444,0,-42.1528c0,-2.61111,-3.09722,-4.02778,-3.09722,-4.02778l0,0l0,0l0,0L381.056,7.70989e-16z"/>
    </g>
   </g>
  </g>
  <g transform="translate(212.362,1134.05)">
   <rect width="31.93" x="0" y="0" fill="#8D8C8C" height="31.9" id="connector0pin" stroke-width="0"/>
   <rect width="16.4442" x="7.79153" y="7.73544" fill="#8C8663" height="16.4152" stroke-width="0"/>
   <polygon fill="#B8AF82" points="0,31.9,7.79153,24.1368,7.79153,6.97162,0,0" stroke-width="0"/>
   <polygon fill="#80795B" points="24.2079,7.76321,7.90264,7.76321,0,0,31.93,0" stroke-width="0"/>
   <polygon fill="#5E5B43" points="24.2079,24.1368,24.2079,7.76321,31.93,0,31.93,31.9" stroke-width="0"/>
   <polygon fill="#9A916C" points="0,31.9,7.87486,24.1368,24.2079,24.1368,31.93,31.9" stroke-width="0"/>
  </g>
  <g transform="translate(212.362,34.05)">
   <rect width="31.93" x="0" y="0" fill="#8D8C8C" height="31.9" id="connector5pin" stroke-width="0"/>
   <rect width="16.4442" x="7.79153" y="7.73544" fill="#8C8663" height="16.4152" stroke-width="0"/>
   <polygon fill="#B8AF82" points="0,31.9,7.79153,24.1368,7.79153,6.97162,0,0" stroke-width="0"/>
   <polygon fill="#80795B" points="24.2079,7.76321,7.90264,7.76321,0,0,31.93,0" stroke-width="0"/>
   <polygon fill="#5E5B43" points="24.2079,24.1368,24.2079,7.76321,31.93,0,31.93,31.9" stroke-width="0"/>
   <polygon fill="#9A916C" points="0,31.9,7.87486,24.1368,24.2079,24.1368,31.93,31.9" stroke-width="0"/>
  </g>
  <g transform="translate(312.361,1134.05)">
   <rect width="31.93" x="0" y="0" fill="#8D8C8C" height="31.9" id="connector1pin" stroke-width="0"/>
   <rect width="16.4442" x="7.79153" y="7.73544" fill="#8C8663" height="16.4152" stroke-width="0"/>
   <polygon fill="#B8AF82" points="0,31.9,7.79153,24.1368,7.79153,6.97162,0,0" stroke-width="0"/>
   <polygon fill="#80795B" points="24.2079,7.76321,7.90264,7.76321,0,0,31.93,0" stroke-width="0"/>
   <polygon fill="#5E5B43" points="24.2079,24.1368,24.2079,7.76321,31.93,0,31.93,31.9" stroke-width="0"/>
   <polygon fill="#9A916C" points="0,31.9,7.87486,24.1368,24.2079,24.1368,31.93,31.9" stroke-width="0"/>
  </g>
  <g transform="translate(312.361,34.05)">
   <rect width="31.93" x="0" y="0" fill="#8D8C8C" height="31.9" id="connector4pin" stroke-width="0"/>
   <rect width="16.4442" x="7.79153" y="7.73544" fill="#8C8663" height="16.4152" stroke-width="0"/>
   <polygon fill="#B8AF82" points="0,31.9,7.79153,24.1368,7.79153,6.97162,0,0" stroke-width="0"/>
   <polygon fill="#80795B" points="24.2079,7.76321,7.90264,7.76321,0,0,31.93,0" stroke-width="0"/>
   <polygon fill="#5E5B43" points="24.2079,24.1368,24.2079,7.76321,31.93,0,31.93,31.9" stroke-width="0"/>
   <polygon fill="#9A916C" points="0,31.9,7.87486,24.1368,24.2079,24.1368,31.93,31.9" stroke-width="0"/>
  </g>
  <g transform="translate(412.361,1134.05)">
   <rect width="31.93" x="0" y="0" fill="#8D8C8C" height="31.9" id="connector2pin" stroke-width="0"/>
   <rect width="16.4442" x="7.79153" y="7.73544" fill="#8C8663" height="16.4152" stroke-width="0"/>
   <polygon fill="#B8AF82" points="0,31.9,7.79153,24.1368,7.79153,6.97162,0,0" stroke-width="0"/>
   <polygon fill="#80795B" points="24.2079,7.76321,7.90264,7.76321,0,0,31.93,0" stroke-width="0"/>
   <polygon fill="#5E5B43" points="24.2079,24.1368,24.2079,7.76321,31.93,0,31.93,31.9" stroke-width="0"/>
   <polygon fill="#9A916C" points="0,31.9,7.87486,24.1368,24.2079,24.1368,31.93,31.9" stroke-width="0"/>
  </g>
  <g transform="translate(412.361,34.05)">
   <rect width="31.93" x="0" y="0" fill="#8D8C8C" height="31.9" id="connector3pin" stroke-width="0"/>
   <rect width="16.4442" x="7.79153" y="7.73544" fill="#8C8663" height="16.4152" stroke-width="0"/>
   <polygon fill="#B8AF82" points="0,31.9,7.79153,24.1368,7.79153,6.97162,0,0" stroke-width="0"/>
   <polygon fill="#80795B" points="24.2079,7.76321,7.90264,7.76321,0,0,31.93,0" stroke-width="0"/>
   <polygon fill="#5E5B43" points="24.2079,24.1368,24.2079,7.76321,31.93,0,31.93,31.9" stroke-width="0"/>
   <polygon fill="#9A916C" points="0,31.9,7.87486,24.1368,24.2079,24.1368,31.93,31.9" stroke-width="0"/>
  </g>
 </g>
 <text x="50" y="624.375" font-family="OCRA" fill="white" text-anchor="start" stroke="none" id="label" stroke-width="0" font-size="65">USB-A-H</text>
 <g transform="translate(241.827,1126.05)">
  <g transform="rotate(-90)">
   <text x="0" y="0" font-family="OCRA" fill="white" text-anchor="start" stroke="none" stroke-width="0" font-size="45">GND2</text>
  </g>
 </g>
 <g transform="translate(241.827,73.95)">
  <g transform="rotate(-90)">
   <text x="0" y="0" font-family="OCRA" fill="white" text-anchor="end" stroke="none" stroke-width="0" font-size="45">VBUS</text>
  </g>
 </g>
 <g transform="translate(341.827,1126.05)">
  <g transform="rotate(-90)">
   <text x="0" y="0" font-family="OCRA" fill="white" text-anchor="start" stroke="none" stroke-width="0" font-size="45">GND3</text>
  </g>
 </g>
 <g transform="translate(341.827,73.95)">
  <g transform="rotate(-90)">
   <text x="0" y="0" font-family="OCRA" fill="white" text-anchor="end" stroke="none" stroke-width="0" font-size="45">GND</text>
  </g>
 </g>
 <g transform="translate(441.827,1126.05)">
  <g transform="rotate(-90)">
   <text x="0" y="0" font-family="OCRA" fill="white" text-anchor="start" stroke="none" stroke-width="0" font-size="45">D+</text>
  </g>
 </g>
 <g transform="translate(441.827,73.95)">
  <g transform="rotate(-90)">
   <text x="0" y="0" font-family="OCRA" fill="white" text-anchor="end" stroke="none" stroke-width="0" font-size="45">D-</text>
  </g>
 </g>
</svg>
