<?xml version='1.0' encoding='UTF-8' standalone='no'?>
<!-- Created with Fritzing (http://www.fritzing.org/) -->
<svg width="0.782681in" x="0in" version="1.2" y="0in" xmlns="http://www.w3.org/2000/svg" height="0.8in" viewBox="0 0 782.681 800" baseProfile="tiny" xmlns:svg="http://www.w3.org/2000/svg">
 <desc>Fritzing breadboard generated by brd2svg</desc>
 <g id="breadboard">
  <g id="icon">
   <path fill="#1F7A34" stroke="none" stroke-width="0" d="M0,0L0,370A30,30 0 0 1 0,430L0,800L782.681,800L782.681,0L0,0z"/>
   <g transform="translate(100,222.833)">
    <g stroke-width="0">
     <g stroke-width="0">
      <rect width="457.917" x="23.625" y="12.3333" fill="#232323" height="329.625" stroke-width="0"/>
      <rect width="443.528" x="29.625" y="311.167" fill="#494949" height="22.8333" stroke-width="0"/>
      <rect width="443.528" x="29.625" y="236.542" fill="#3D3D3D" height="74.5694" fill-opacity="0.3" stroke-width="0"/>
      <rect width="457.931" x="29.625" y="19.5278" height="22.4861" stroke-width="0"/>
      <rect width="457.931" x="29.625" y="41.3194" fill="#0F0F0F" height="80.9444" fill-opacity="0.4" stroke-width="0"/>
     </g>
     <rect width="8.22222" x="23.625" opacity="0.2" y="12.3333" height="329.625" enable-background="new    " stroke-width="0"/>
    </g>
    <line opacity="0.5" fill="none" stroke="#000000" y1="12.3333" stroke-width="3.47222" x1="62.6528" y2="341.958" x2="62.6528" stroke-miterlimit="10"/>
    <g stroke-width="0">
     <rect width="17.875" x="432.986" opacity="0.25" y="12.0278" height="329.569" enable-background="new    " stroke-width="0"/>
     <path opacity="0.25" stroke="#565656" enable-background="new    " stroke-width="3.47222" d="M446.944,281.903L446.944,72.4444L262.25,72.4444c-57.8472,0,-104.736,46.8889,-104.736,104.736c0,57.8333,46.8889,104.736,104.736,104.736L446.944,281.903L446.944,281.903z" stroke-miterlimit="10"/>
    </g>
    <g stroke-width="0">
     <path fill="#232323" stroke-width="0" d="M446.944,281.903L446.944,72.4444L262.25,72.4444c-57.8472,0,-104.736,46.8889,-104.736,104.736c0,57.8333,46.8889,104.736,104.736,104.736L446.944,281.903L446.944,281.903z"/>
     <rect width="106.778" x="436.833" y="0" fill="#232323" height="354.333" stroke-width="0"/>
    </g>
    <rect width="23.625" x="0" y="137.486" fill="#6D6D6D" height="79.3472" stroke-width="0"/>
    <rect width="13.5417" x="10.0833" y="99.25" fill="#494949" height="155.833" stroke-width="0"/>
   </g>
  </g>
  <g transform="translate(325.375,734.05)">
   <rect width="31.93" x="0" y="0" fill="#8D8C8C" height="31.9" id="connector0pin" stroke-width="0"/>
   <rect width="16.4442" x="7.79153" y="7.73544" fill="#8C8663" height="16.4152" stroke-width="0"/>
   <polygon fill="#B8AF82" points="0,31.9,7.79153,24.1368,7.79153,6.97162,0,0" stroke-width="0"/>
   <polygon fill="#80795B" points="24.2079,7.76321,7.90264,7.76321,0,0,31.93,0" stroke-width="0"/>
   <polygon fill="#5E5B43" points="24.2079,24.1368,24.2079,7.76321,31.93,0,31.93,31.9" stroke-width="0"/>
   <polygon fill="#9A916C" points="0,31.9,7.87486,24.1368,24.2079,24.1368,31.93,31.9" stroke-width="0"/>
  </g>
  <g transform="translate(325.375,34.05)">
   <rect width="31.93" x="0" y="0" fill="#8D8C8C" height="31.9" id="connector3pin" stroke-width="0"/>
   <rect width="16.4442" x="7.79153" y="7.73544" fill="#8C8663" height="16.4152" stroke-width="0"/>
   <polygon fill="#B8AF82" points="0,31.9,7.79153,24.1368,7.79153,6.97162,0,0" stroke-width="0"/>
   <polygon fill="#80795B" points="24.2079,7.76321,7.90264,7.76321,0,0,31.93,0" stroke-width="0"/>
   <polygon fill="#5E5B43" points="24.2079,24.1368,24.2079,7.76321,31.93,0,31.93,31.9" stroke-width="0"/>
   <polygon fill="#9A916C" points="0,31.9,7.87486,24.1368,24.2079,24.1368,31.93,31.9" stroke-width="0"/>
  </g>
  <g transform="translate(425.375,734.05)">
   <rect width="31.93" x="0" y="0" fill="#8D8C8C" height="31.9" id="connector1pin" stroke-width="0"/>
   <rect width="16.4442" x="7.79153" y="7.73544" fill="#8C8663" height="16.4152" stroke-width="0"/>
   <polygon fill="#B8AF82" points="0,31.9,7.79153,24.1368,7.79153,6.97162,0,0" stroke-width="0"/>
   <polygon fill="#80795B" points="24.2079,7.76321,7.90264,7.76321,0,0,31.93,0" stroke-width="0"/>
   <polygon fill="#5E5B43" points="24.2079,24.1368,24.2079,7.76321,31.93,0,31.93,31.9" stroke-width="0"/>
   <polygon fill="#9A916C" points="0,31.9,7.87486,24.1368,24.2079,24.1368,31.93,31.9" stroke-width="0"/>
  </g>
  <g transform="translate(425.375,34.05)">
   <rect width="31.93" x="0" y="0" fill="#8D8C8C" height="31.9" id="connector2pin" stroke-width="0"/>
   <rect width="16.4442" x="7.79153" y="7.73544" fill="#8C8663" height="16.4152" stroke-width="0"/>
   <polygon fill="#B8AF82" points="0,31.9,7.79153,24.1368,7.79153,6.97162,0,0" stroke-width="0"/>
   <polygon fill="#80795B" points="24.2079,7.76321,7.90264,7.76321,0,0,31.93,0" stroke-width="0"/>
   <polygon fill="#5E5B43" points="24.2079,24.1368,24.2079,7.76321,31.93,0,31.93,31.9" stroke-width="0"/>
   <polygon fill="#9A916C" points="0,31.9,7.87486,24.1368,24.2079,24.1368,31.93,31.9" stroke-width="0"/>
  </g>
 </g>
 <text x="50" y="424.375" font-family="OCRA" fill="white" text-anchor="start" stroke="none" id="label" stroke-width="0" font-size="65">POWER_JACK_SMD</text>
 <g transform="translate(354.841,726.05)">
  <g transform="rotate(-90)">
   <text x="0" y="0" font-family="OCRA" fill="white" text-anchor="start" stroke="none" stroke-width="0" font-size="45">VIN0</text>
  </g>
 </g>
 <g transform="translate(354.841,73.95)">
  <g transform="rotate(-90)">
   <text x="0" y="0" font-family="OCRA" fill="white" text-anchor="end" stroke="none" stroke-width="0" font-size="45">GND</text>
  </g>
 </g>
 <g transform="translate(454.841,726.05)">
  <g transform="rotate(-90)">
   <text x="0" y="0" font-family="OCRA" fill="white" text-anchor="start" stroke="none" stroke-width="0" font-size="45">VIN1</text>
  </g>
 </g>
 <g transform="translate(454.841,73.95)">
  <g transform="rotate(-90)">
   <text x="0" y="0" font-family="OCRA" fill="white" text-anchor="end" stroke="none" stroke-width="0" font-size="45">P$4</text>
  </g>
 </g>
</svg>
