<?xml version='1.0' encoding='UTF-8' standalone='no'?>
<!-- Created with Fritzing (http://www.fritzing.org/) -->
<svg width="1.35621in" x="0in" version="1.2" y="0in" xmlns="http://www.w3.org/2000/svg" height="1.4in" viewBox="0 0 1356.21 1400" baseProfile="tiny" xmlns:svg="http://www.w3.org/2000/svg">
 <desc>Fritzing breadboard generated by brd2svg</desc>
 <g id="breadboard">
  <g id="icon">
   <path fill="#1F7A34" stroke="none" stroke-width="0" d="M0,0L0,670A30,30 0 0 1 0,730L0,1400L1356.21,1400L1356.21,0L0,0z"/>
   <g transform="translate(100,155.96)">
    <g stroke-width="0">
     <path fill="#666666" stroke-width="0" d="M1012.15,332.681C935.722,137.875,746.097,-0.152778,524.167,-0.152778C234.667,-0.152778,0,234.542,0,524.014c0,289.5,234.667,524.181,524.167,524.181c220.736,0,409.472,-136.514,486.736,-329.667l0,1.61111l145.292,0L1156.19,332.681L1012.15,332.681z"/>
     <g stroke-width="0">
      <g stroke-width="0">
       <path fill="#4D4D4D" stroke-width="0" d="M0,520.5c0,289.5,234.667,524.194,524.167,524.194c220.736,0,409.472,-136.5,486.736,-329.653l0,43.5278C933.653,951.708,744.903,1088.24,524.167,1088.24C234.667,1088.24,0,853.556,0,564.028L0,520.5z"/>
      </g>
      <path fill="#CCCCCC" stroke-width="0" d="M0,524.028C0,234.556,234.278,-0.138889,524.181,-0.138889C203.236,17.3889,7.45833,260.875,0,524.028z"/>
      <g stroke-width="0" transform="matrix(1, 0, 0, 1, 1388.89, 2383.88)">
       <path fill="#1A1A1A" stroke-width="0" d="M-866.694,-2364.26c279.861,0,506.75,226.903,506.75,506.792c0,279.833,-226.889,506.778,-506.75,506.778c-279.917,0,-506.806,-226.944,-506.806,-506.778C-1373.5,-2137.36,-1146.61,-2364.26,-866.694,-2364.26z"/>
       <path fill="#4D4D4D" stroke-width="0" d="M-382.375,-1839.85c0,267.486,-216.847,484.333,-484.319,484.333c-267.514,0,-484.361,-216.847,-484.361,-484.333"/>
       <circle fill="#B3B3B3" cx="-866.694" cy="-1857.47" r="484.347" stroke-width="0"/>
       <path fill="#FFFFFF" stroke-width="0" d="M-858.389,-1701.39l0,92.25l88.8333,0l0,15.0556l-88.8333,0l0,92.9583l-16.1944,0l0,-92.9583l-88.8611,0l0,-15.0556l88.8611,0l0,-92.25L-858.389,-1701.39z"/>
      </g>
      <path fill="#F2F2F2" stroke-width="0" d="M348.139,73.7083c0,0,58.9583,-19.6111,79.7917,-23.3194C458.125,37.4444,862.319,-30.5556,997.931,396.111c4.84722,15.2361,3.38889,36.75,3.38889,36.75l13.875,-3.59722c0,0,-11.3333,-44.0833,-12.4444,-47.3472C954.917,242.583,810.847,-14.5139,425.972,36.5556L348.139,73.7083z"/>
      <g stroke-width="0">
       <path fill="#F2F2F2" stroke-width="0" d="M348.667,978.986c0,0,58.9583,19.5694,79.7778,23.3056c30.2083,12.9583,431.375,80.3472,566.944,-346.333c4.84722,-15.25,6.44444,-36.1389,6.44444,-36.1389l13.9028,3.61111c0,0,-6.95833,31.6528,-12.4722,47.3056c-49.0139,138.889,-191.847,396.431,-576.75,345.347L348.667,978.986z"/>
       <path fill="none" stroke="#CCCCCC" stroke-linejoin="round" stroke-linecap="round" stroke-width="3.47222" d="M348.139,73.7083c0,0,58.9583,-19.6111,79.7917,-23.3194c30.1944,-12.9444,382.625,-74.9861,549.194,282.292c17.6528,37.8472,29.4028,102.611,29.4028,102.611" stroke-miterlimit="10"/>
       <path fill="none" stroke="#B3B3B3" stroke-linejoin="round" stroke-linecap="round" stroke-width="3.47222" d="M1015.74,623.444c0,0,-6.95833,31.6528,-12.4722,47.3056c-49.0139,138.889,-191.847,396.431,-576.75,345.347l-77.8333,-37.1389" stroke-miterlimit="10"/>
       <rect width="42.9861" x="996.042" y="425.986" fill="#F2F2F2" height="202.944" stroke-width="0"/>
       <rect width="145.292" x="1010.92" y="332.681" fill="#666666" height="387.458" stroke-width="0"/>
      </g>
      <rect width="145.292" x="1010.92" y="720.167" fill="#333333" height="38.4028" stroke-width="0"/>
      <path opacity="0.41" fill="none" stroke="#E6E6E6" stroke-linejoin="round" stroke-linecap="round" enable-background="new    " stroke-width="0" d="M73.5694,526.417c0,-247.75,200.847,-448.611,448.625,-448.611c247.736,0,448.597,200.847,448.597,448.611" stroke-miterlimit="10"/>
      <path opacity="0.41" fill="none" stroke="#999999" stroke-linejoin="round" stroke-linecap="round" enable-background="new    " stroke-width="0" d="M970.792,526.417c0,247.736,-200.861,448.639,-448.597,448.639c-247.778,0,-448.625,-200.903,-448.625,-448.639" stroke-miterlimit="10"/>
      <rect width="14.625" x="1141.58" y="332.681" fill="#4D4D4D" height="387.458" stroke-width="0"/>
      <rect width="14.625" x="1141.58" y="720.167" fill="#1A1A1A" height="38.4028" stroke-width="0"/>
     </g>
    </g>
   </g>
  </g>
  <g transform="translate(662.14,1334.05)">
   <rect width="31.93" x="0" y="0" fill="#8D8C8C" height="31.9" id="connector2pin" stroke-width="0"/>
   <rect width="16.4442" x="7.79153" y="7.73544" fill="#8C8663" height="16.4152" stroke-width="0"/>
   <polygon fill="#B8AF82" points="0,31.9,7.79153,24.1368,7.79153,6.97162,0,0" stroke-width="0"/>
   <polygon fill="#80795B" points="24.2079,7.76321,7.90264,7.76321,0,0,31.93,0" stroke-width="0"/>
   <polygon fill="#5E5B43" points="24.2079,24.1368,24.2079,7.76321,31.93,0,31.93,31.9" stroke-width="0"/>
   <polygon fill="#9A916C" points="0,31.9,7.87486,24.1368,24.2079,24.1368,31.93,31.9" stroke-width="0"/>
  </g>
 </g>
</svg>
