<?xml version='1.0' encoding='UTF-8' standalone='no'?>
<!-- Created with Fritzing (http://www.fritzing.org/) -->
<svg width="0.427666in" x="0in" version="1.2" y="0in" xmlns="http://www.w3.org/2000/svg" height="0.6in" viewBox="0 0 427.666 600" baseProfile="tiny" xmlns:svg="http://www.w3.org/2000/svg">
 <desc>Fritzing breadboard generated by brd2svg</desc>
 <g id="breadboard">
  <g id="icon">
   <path fill="#1F7A34" stroke="none" stroke-width="0" d="M0,0L0,270A30,30 0 0 1 0,330L0,600L427.666,600L427.666,0L0,0z"/>
   <g transform="translate(100,186.167)">
    <polygon fill="#6D6D6D" points="15.8611,180.222,47.4304,211.805,180.249,211.805,211.805,180.222,211.805,47.4026,180.249,15.8472,47.4304,15.8472,15.8611,47.4026" stroke-width="0"/>
    <rect width="132.819" x="47.4304" y="0" fill="#6D6D6D" height="227.666" stroke-width="0"/>
    <rect width="227.666" x="0" y="47.4026" fill="#6D6D6D" height="132.805" stroke-width="0"/>
    <polygon fill="#7F7F7F" points="25.3749,173.791,53.8748,202.291,173.791,202.291,202.305,173.791,202.305,53.8471,173.791,25.361,53.8748,25.361,25.3749,53.8471" stroke-width="0"/>
    <polyline opacity="0.2" fill="none" points="57.0137,29.9999,30.0138,56.9859,30.0138,170.652,57.0137,197.666,170.666,197.666" stroke="#FFFFFF" stroke-width="3.29027" stroke-miterlimit="10"/>
    <polyline opacity="0.2" fill="none" points="170.68,197.666,197.68,170.68,197.68,57.0137,170.68,29.9999,57.0276,29.9999" stroke="#606060" stroke-width="3.29027" stroke-miterlimit="10"/>
    <g stroke-width="0">
     <path fill="#BCA16A" stroke-width="0" d="M113.833,165.597c-28.5416,0,-51.7637,-23.2222,-51.7637,-51.7637c0,-28.5416,23.2222,-51.7776,51.7637,-51.7776s51.7637,23.2222,51.7637,51.7776C165.583,142.375,142.361,165.597,113.833,165.597z"/>
     <path fill="#606060" stroke-width="0" d="M113.833,65.5415c26.6666,0,48.2915,21.6249,48.2915,48.3054c0,26.6666,-21.6249,48.2915,-48.2915,48.2915s-48.2915,-21.6249,-48.2915,-48.2915C65.5415,87.1525,87.1664,65.5415,113.833,65.5415M113.833,58.5971c-30.4582,0,-55.2359,24.7777,-55.2359,55.2498c0,30.4444,24.7777,55.2359,55.2359,55.2359c30.4444,0,55.2359,-24.7777,55.2359,-55.2359C169.055,83.3748,144.277,58.5971,113.833,58.5971L113.833,58.5971z"/>
    </g>
    <path opacity="0.2" fill="#BCA16A" stroke="#FFFFFF" stroke-width="7.36665" d="M144.305,144.291c-16.8333,16.8333,-44.1249,16.8333,-60.9582,0c-16.8333,-16.8472,-16.8333,-44.1388,0,-60.972" stroke-miterlimit="10"/>
    <path opacity="0.2" fill="#BCA16A" stroke="#606060" stroke-width="7.36665" d="M83.347,83.3192c16.8333,-16.8333,44.1249,-16.8333,60.9582,0c16.8333,16.8472,16.8333,44.1249,0,60.972" stroke-miterlimit="10"/>
   </g>
  </g>
  <g transform="translate(147.868,534.05)">
   <rect width="31.93" x="0" y="0" fill="#8D8C8C" height="31.9" id="connector0pin" stroke-width="0"/>
   <rect width="16.4442" x="7.79153" y="7.73544" fill="#8C8663" height="16.4152" stroke-width="0"/>
   <polygon fill="#B8AF82" points="0,31.9,7.79153,24.1368,7.79153,6.97162,0,0" stroke-width="0"/>
   <polygon fill="#80795B" points="24.2079,7.76321,7.90264,7.76321,0,0,31.93,0" stroke-width="0"/>
   <polygon fill="#5E5B43" points="24.2079,24.1368,24.2079,7.76321,31.93,0,31.93,31.9" stroke-width="0"/>
   <polygon fill="#9A916C" points="0,31.9,7.87486,24.1368,24.2079,24.1368,31.93,31.9" stroke-width="0"/>
  </g>
  <g transform="translate(147.868,34.05)">
   <rect width="31.93" x="0" y="0" fill="#8D8C8C" height="31.9" id="connector3pin" stroke-width="0"/>
   <rect width="16.4442" x="7.79153" y="7.73544" fill="#8C8663" height="16.4152" stroke-width="0"/>
   <polygon fill="#B8AF82" points="0,31.9,7.79153,24.1368,7.79153,6.97162,0,0" stroke-width="0"/>
   <polygon fill="#80795B" points="24.2079,7.76321,7.90264,7.76321,0,0,31.93,0" stroke-width="0"/>
   <polygon fill="#5E5B43" points="24.2079,24.1368,24.2079,7.76321,31.93,0,31.93,31.9" stroke-width="0"/>
   <polygon fill="#9A916C" points="0,31.9,7.87486,24.1368,24.2079,24.1368,31.93,31.9" stroke-width="0"/>
  </g>
  <g transform="translate(247.868,534.05)">
   <rect width="31.93" x="0" y="0" fill="#8D8C8C" height="31.9" id="connector1pin" stroke-width="0"/>
   <rect width="16.4442" x="7.79153" y="7.73544" fill="#8C8663" height="16.4152" stroke-width="0"/>
   <polygon fill="#B8AF82" points="0,31.9,7.79153,24.1368,7.79153,6.97162,0,0" stroke-width="0"/>
   <polygon fill="#80795B" points="24.2079,7.76321,7.90264,7.76321,0,0,31.93,0" stroke-width="0"/>
   <polygon fill="#5E5B43" points="24.2079,24.1368,24.2079,7.76321,31.93,0,31.93,31.9" stroke-width="0"/>
   <polygon fill="#9A916C" points="0,31.9,7.87486,24.1368,24.2079,24.1368,31.93,31.9" stroke-width="0"/>
  </g>
  <g transform="translate(247.868,34.05)">
   <rect width="31.93" x="0" y="0" fill="#8D8C8C" height="31.9" id="connector2pin" stroke-width="0"/>
   <rect width="16.4442" x="7.79153" y="7.73544" fill="#8C8663" height="16.4152" stroke-width="0"/>
   <polygon fill="#B8AF82" points="0,31.9,7.79153,24.1368,7.79153,6.97162,0,0" stroke-width="0"/>
   <polygon fill="#80795B" points="24.2079,7.76321,7.90264,7.76321,0,0,31.93,0" stroke-width="0"/>
   <polygon fill="#5E5B43" points="24.2079,24.1368,24.2079,7.76321,31.93,0,31.93,31.9" stroke-width="0"/>
   <polygon fill="#9A916C" points="0,31.9,7.87486,24.1368,24.2079,24.1368,31.93,31.9" stroke-width="0"/>
  </g>
 </g>
 <text x="50" y="324.375" font-family="OCRA" fill="white" text-anchor="start" stroke="none" id="label" stroke-width="0" font-size="65">TACTILE_SWITCH_SMD</text>
 <g transform="translate(177.333,526.05)">
  <g transform="rotate(-90)">
   <text x="0" y="0" font-family="OCRA" fill="white" text-anchor="start" stroke="none" stroke-width="0" font-size="45">1</text>
  </g>
 </g>
 <g transform="translate(177.333,73.95)">
  <g transform="rotate(-90)">
   <text x="0" y="0" font-family="OCRA" fill="white" text-anchor="end" stroke="none" stroke-width="0" font-size="45">4</text>
  </g>
 </g>
 <g transform="translate(277.333,526.05)">
  <g transform="rotate(-90)">
   <text x="0" y="0" font-family="OCRA" fill="white" text-anchor="start" stroke="none" stroke-width="0" font-size="45">2</text>
  </g>
 </g>
 <g transform="translate(277.333,73.95)">
  <g transform="rotate(-90)">
   <text x="0" y="0" font-family="OCRA" fill="white" text-anchor="end" stroke="none" stroke-width="0" font-size="45">3</text>
  </g>
 </g>
</svg>
