<?xml version='1.0' encoding='UTF-8' standalone='no'?>
<!-- Created with Fritzing (http://www.fritzing.org/) -->
<svg width="0.839639in" x="0in" version="1.2" y="0in" xmlns="http://www.w3.org/2000/svg" height="0.6in" viewBox="0 0 839.639 600" baseProfile="tiny" xmlns:svg="http://www.w3.org/2000/svg">
 <desc>Fritzing breadboard generated by brd2svg</desc>
 <g id="breadboard">
  <g id="icon">
   <path fill="#1F7A34" stroke="none" stroke-width="0" d="M0,0L0,270A30,30 0 0 1 0,330L0,600L839.639,600L839.639,0L0,0z"/>
   <g transform="translate(100,167.5)">
    <polygon fill="#2B2B2B" points="593.792,75.0833,593.792,75.0833,593.792,190.014,593.792,190.014,593.792,216.375,653.097,216.375,653.097,48.6806,593.792,48.6806" stroke-width="0"/>
    <polygon fill="#292929" points="593.792,186.194,593.792,190.014,593.792,190.014,593.792,210.375,653.097,210.375,653.097,186.194" stroke-width="0"/>
    <polygon fill="#292929" points="593.792,83.0417,593.792,74.6111,593.792,74.6111,593.792,54.1944,653.097,54.1944,653.097,83.0417" stroke-width="0"/>
    <rect width="59.0278" x="593.792" y="102.389" fill="#333333" height="44.5694" stroke-width="0"/>
    <rect width="59.0278" x="593.792" y="115.222" fill="#383838" height="24.4722" stroke-width="0"/>
    <rect width="59.3194" x="593.792" y="210.361" fill="#212121" height="6.04167" stroke-width="0"/>
    <rect width="59.3194" x="593.792" y="48.7083" fill="#212121" height="5.5" stroke-width="0"/>
    <rect width="26.1528" x="652.861" y="48.7083" fill="#A1A1A1" height="167.639" stroke-width="0"/>
    <rect width="26.1528" x="652.861" y="83.0278" fill="#ABABAB" height="103.181" stroke-width="0"/>
    <rect width="26.1528" x="652.861" y="102.389" fill="#C7C7C7" height="44.5694" stroke-width="0"/>
    <rect width="26.1528" x="652.861" y="115.222" fill="#E6E6E6" height="24.4722" stroke-width="0"/>
    <rect width="26.1528" x="652.861" y="48.7083" fill="#737373" height="5.5" stroke-width="0"/>
    <rect width="26.1528" x="652.861" y="210.625" fill="#737373" height="5.5" stroke-width="0"/>
    <g stroke-width="0">
     <g stroke-width="0">
      <rect width="559.958" x="39.375" y="0" fill="#333333" height="265" stroke-width="0"/>
     </g>
    </g>
    <rect width="72.0972" x="448.25" y="0.111111" height="35.1111" stroke-width="0"/>
    <rect width="72.0972" x="376.139" y="229.875" height="35.125" stroke-width="0"/>
    <rect width="72.0972" x="448.25" y="0.111111" fill="#C7C7C7" height="11.5972" stroke-width="0"/>
    <rect width="72.0972" x="376.139" y="253.389" fill="#C7C7C7" height="11.6111" stroke-width="0"/>
   </g>
  </g>
  <g transform="translate(303.855,534.05)">
   <rect width="31.93" x="0" y="0" fill="#8D8C8C" height="31.9" id="connector0pin" stroke-width="0"/>
   <rect width="16.4442" x="7.79153" y="7.73544" fill="#8C8663" height="16.4152" stroke-width="0"/>
   <polygon fill="#B8AF82" points="0,31.9,7.79153,24.1368,7.79153,6.97162,0,0" stroke-width="0"/>
   <polygon fill="#80795B" points="24.2079,7.76321,7.90264,7.76321,0,0,31.93,0" stroke-width="0"/>
   <polygon fill="#5E5B43" points="24.2079,24.1368,24.2079,7.76321,31.93,0,31.93,31.9" stroke-width="0"/>
   <polygon fill="#9A916C" points="0,31.9,7.87486,24.1368,24.2079,24.1368,31.93,31.9" stroke-width="0"/>
  </g>
  <g transform="translate(303.855,34.05)">
   <rect width="31.93" x="0" y="0" fill="#8D8C8C" height="31.9" id="" stroke-width="0"/>
   <rect width="16.4442" x="7.79153" y="7.73544" fill="#8C8663" height="16.4152" stroke-width="0"/>
   <polygon fill="#B8AF82" points="0,31.9,7.79153,24.1368,7.79153,6.97162,0,0" stroke-width="0"/>
   <polygon fill="#80795B" points="24.2079,7.76321,7.90264,7.76321,0,0,31.93,0" stroke-width="0"/>
   <polygon fill="#5E5B43" points="24.2079,24.1368,24.2079,7.76321,31.93,0,31.93,31.9" stroke-width="0"/>
   <polygon fill="#9A916C" points="0,31.9,7.87486,24.1368,24.2079,24.1368,31.93,31.9" stroke-width="0"/>
  </g>
  <g transform="translate(403.855,534.05)">
   <rect width="31.93" x="0" y="0" fill="#8D8C8C" height="31.9" id="connector1pin" stroke-width="0"/>
   <rect width="16.4442" x="7.79153" y="7.73544" fill="#8C8663" height="16.4152" stroke-width="0"/>
   <polygon fill="#B8AF82" points="0,31.9,7.79153,24.1368,7.79153,6.97162,0,0" stroke-width="0"/>
   <polygon fill="#80795B" points="24.2079,7.76321,7.90264,7.76321,0,0,31.93,0" stroke-width="0"/>
   <polygon fill="#5E5B43" points="24.2079,24.1368,24.2079,7.76321,31.93,0,31.93,31.9" stroke-width="0"/>
   <polygon fill="#9A916C" points="0,31.9,7.87486,24.1368,24.2079,24.1368,31.93,31.9" stroke-width="0"/>
  </g>
  <g transform="translate(403.855,34.05)">
   <rect width="31.93" x="0" y="0" fill="#8D8C8C" height="31.9" id="connector4pin" stroke-width="0"/>
   <rect width="16.4442" x="7.79153" y="7.73544" fill="#8C8663" height="16.4152" stroke-width="0"/>
   <polygon fill="#B8AF82" points="0,31.9,7.79153,24.1368,7.79153,6.97162,0,0" stroke-width="0"/>
   <polygon fill="#80795B" points="24.2079,7.76321,7.90264,7.76321,0,0,31.93,0" stroke-width="0"/>
   <polygon fill="#5E5B43" points="24.2079,24.1368,24.2079,7.76321,31.93,0,31.93,31.9" stroke-width="0"/>
   <polygon fill="#9A916C" points="0,31.9,7.87486,24.1368,24.2079,24.1368,31.93,31.9" stroke-width="0"/>
  </g>
  <g transform="translate(503.855,534.05)">
   <rect width="31.93" x="0" y="0" fill="#8D8C8C" height="31.9" id="connector2pin" stroke-width="0"/>
   <rect width="16.4442" x="7.79153" y="7.73544" fill="#8C8663" height="16.4152" stroke-width="0"/>
   <polygon fill="#B8AF82" points="0,31.9,7.79153,24.1368,7.79153,6.97162,0,0" stroke-width="0"/>
   <polygon fill="#80795B" points="24.2079,7.76321,7.90264,7.76321,0,0,31.93,0" stroke-width="0"/>
   <polygon fill="#5E5B43" points="24.2079,24.1368,24.2079,7.76321,31.93,0,31.93,31.9" stroke-width="0"/>
   <polygon fill="#9A916C" points="0,31.9,7.87486,24.1368,24.2079,24.1368,31.93,31.9" stroke-width="0"/>
  </g>
  <g transform="translate(503.855,34.05)">
   <rect width="31.93" x="0" y="0" fill="#8D8C8C" height="31.9" id="connector3pin" stroke-width="0"/>
   <rect width="16.4442" x="7.79153" y="7.73544" fill="#8C8663" height="16.4152" stroke-width="0"/>
   <polygon fill="#B8AF82" points="0,31.9,7.79153,24.1368,7.79153,6.97162,0,0" stroke-width="0"/>
   <polygon fill="#80795B" points="24.2079,7.76321,7.90264,7.76321,0,0,31.93,0" stroke-width="0"/>
   <polygon fill="#5E5B43" points="24.2079,24.1368,24.2079,7.76321,31.93,0,31.93,31.9" stroke-width="0"/>
   <polygon fill="#9A916C" points="0,31.9,7.87486,24.1368,24.2079,24.1368,31.93,31.9" stroke-width="0"/>
  </g>
 </g>
 <text x="50" y="324.375" font-family="OCRA" fill="white" text-anchor="start" stroke="none" id="label" stroke-width="0" font-size="65">AUDIO-JACK-3.5MM-SMD</text>
 <g transform="translate(333.32,526.05)">
  <g transform="rotate(-90)">
   <text x="0" y="0" font-family="OCRA" fill="white" text-anchor="start" stroke="none" stroke-width="0" font-size="45">RING</text>
  </g>
 </g>
 <g transform="translate(333.32,73.95)">
  <g transform="rotate(-90)">
   <text x="0" y="0" font-family="OCRA" fill="white" text-anchor="end" stroke="none" stroke-width="0" font-size="45"/>
  </g>
 </g>
 <g transform="translate(433.32,526.05)">
  <g transform="rotate(-90)">
   <text x="0" y="0" font-family="OCRA" fill="white" text-anchor="start" stroke="none" stroke-width="0" font-size="45">RSH</text>
  </g>
 </g>
 <g transform="translate(433.32,73.95)">
  <g transform="rotate(-90)">
   <text x="0" y="0" font-family="OCRA" fill="white" text-anchor="end" stroke="none" stroke-width="0" font-size="45">TSH</text>
  </g>
 </g>
 <g transform="translate(533.32,526.05)">
  <g transform="rotate(-90)">
   <text x="0" y="0" font-family="OCRA" fill="white" text-anchor="start" stroke="none" stroke-width="0" font-size="45">SLEEVE</text>
  </g>
 </g>
 <g transform="translate(533.32,73.95)">
  <g transform="rotate(-90)">
   <text x="0" y="0" font-family="OCRA" fill="white" text-anchor="end" stroke="none" stroke-width="0" font-size="45">TIP</text>
  </g>
 </g>
</svg>
