<?xml version='1.0' encoding='UTF-8' standalone='no'?>
<!-- Created with Fritzing (http://www.fritzing.org/) -->
<svg width="0.792528in" x="0in" version="1.2" y="0in" xmlns="http://www.w3.org/2000/svg" height="0.6in" viewBox="0 0 792.528 600" baseProfile="tiny" xmlns:svg="http://www.w3.org/2000/svg">
 <desc>Fritzing breadboard generated by brd2svg</desc>
 <g id="breadboard">
  <g id="icon">
   <path fill="#1F7A34" stroke="none" stroke-width="0" d="M0,0L0,270A30,30 0 0 1 0,330L0,600L792.528,600L792.528,0L0,0z"/>
   <g transform="translate(100,130.382)">
    <g stroke-width="0">
     <g id="silkscreen_1_" stroke-width="0">
      <path fill="#1A1A1A" stroke-width="0" d="M296.264,339.236c-64.0556,-0.138889,-121.653,-39.0694,-145.667,-98.4167L150.597,122.708c24.0139,-59.375,81.6111,-98.2917,145.667,-98.4306c64.0417,0.138889,121.653,39.0556,145.667,98.4306l0,118.111C417.917,300.194,360.306,339.111,296.264,339.236z"/>
      <path stroke-width="0" d="M150.597,238.458c24.0139,59.3472,81.6111,98.2778,145.667,98.4167c64.0417,-0.138889,121.653,-39.0694,145.667,-98.4167l0,2.36111c-24.0139,59.3472,-81.625,98.2778,-145.667,98.4167c-64.0556,-0.138889,-121.653,-39.0694,-145.667,-98.4167L150.597,238.458z"/>
     </g>
     <g id="silkscreen" stroke-width="0">
      <path fill="#333333" stroke-width="0" d="M296.264,314.958c-64.0556,-0.138889,-121.653,-39.0694,-145.667,-98.4167L150.597,98.4306C174.611,39.0556,232.208,0.138889,296.264,0c64.0417,0.138889,121.653,39.0556,145.667,98.4306l0,118.111C417.917,275.931,360.306,314.819,296.264,314.958z"/>
      <path stroke-width="0" d="M150.597,213.611c24.0139,59.3472,81.6111,98.2778,145.667,98.4167c64.0417,-0.138889,121.653,-39.0694,145.667,-98.4167l0,2.93056c-24.0139,59.3472,-81.625,98.2778,-145.667,98.4167c-64.0556,-0.138889,-121.653,-39.0694,-145.667,-98.4167L150.597,213.611z"/>
      <path opacity="0.3" fill="#FFFFFF" enable-background="new    " stroke-width="0" d="M150.597,100.625c24.0139,-59.375,81.6111,-98.2917,145.667,-98.4306c64.0417,0.138889,121.653,39.0556,145.667,98.4306L441.931,98.4306C417.917,39.0556,360.306,0.138889,296.264,0c-64.0556,0.138889,-121.653,39.0556,-145.667,98.4306L150.597,100.625z"/>
     </g>
     <g stroke-width="0">
      <circle fill="#1A1A1A" cx="296.264" cy="157.486" r="132.333" stroke-width="0"/>
      <path opacity="0.89" fill="#4D4D4D" enable-background="new    " stroke-width="0" d="M298,253.569c25.25,0,47.3056,-1.98611,45.7222,29.2361c-0.388889,8.11111,-20.4722,14.7361,-45.7222,14.7361c-25.25,0,-45.7222,-6.61111,-45.7222,-14.7361C252.278,263.556,272.75,253.569,298,253.569z"/>
      <circle fill="#F2F2F2" cx="296.264" cy="157.5" r="126.611" stroke-width="0"/>
      <path opacity="0.13" enable-background="new    " stroke-width="0" d="M169.653,160.708c0,-69.9306,56.6944,-126.611,126.611,-126.611c69.9306,0,126.597,56.6806,126.597,126.611L422.861,157.5c0,-69.9306,-56.6667,-126.611,-126.597,-126.611s-126.611,56.6806,-126.611,126.611L169.653,160.708z"/>
      <circle fill="#E6E6E6" cx="296.264" cy="157.5" r="118.514" stroke-width="0"/>
      <rect width="122.694" x="234.917" y="88.25" fill="#F7FCB9" height="122.722" stroke-width="0"/>
      <line fill="none" stroke="#F7FCB9" y1="88.25" x1="296.264" y2="38.9861" stroke-width="0" x2="296.264" stroke-miterlimit="10"/>
      <path fill="#F7FCB9" stroke-width="0" d="M234.917,210.972c0,0,50.9306,8.75,61.3472,8.75s61.3472,-8.75,61.3472,-8.75L234.917,210.972z"/>
      <path fill="#B9BD8B" stroke-width="0" d="M234.917,213.611c0,0,50.9306,8.75,61.3472,8.75s61.3472,-8.75,61.3472,-8.75l0,-2.63889c0,0,-50.9306,8.75,-61.3472,8.75s-61.3472,-8.75,-61.3472,-8.75L234.917,213.611z"/>
      <rect width="104.75" x="243.903" y="98.4583" fill="#F4FC94" height="103.597" stroke-width="0"/>
      <rect width="104.75" x="243.903" y="202.056" fill="#B9BD8B" height="2.63889" stroke-width="0"/>
      <line fill="none" stroke="#F9FDC7" y1="276.042" x1="296.264" y2="204.722" stroke-width="0" x2="296.264" stroke-miterlimit="10"/>
      <circle opacity="0.2" fill="#F2F2F2" cx="296.25" cy="142.917" enable-background="new    " r="125.458" stroke-width="0"/>
      <path opacity="0.27" fill="#FFFFFF" enable-background="new    " stroke-width="0" d="M343.722,103.556l0,63.6806c0,0,-16.6389,-34.6528,-30.5278,-39.2639s-21.7083,-24.4167,-39.0694,-24.4167C288.889,103.403,343.722,103.556,343.722,103.556z"/>
      <path opacity="0.27" fill="#FFFFFF" enable-background="new    " stroke-width="0" d="M343.722,103.556l0,44.2778c0,0,-11.5694,-24.0972,-21.2222,-27.3056c-9.65278,-3.19444,-15.0972,-16.9861,-27.1667,-16.9861C305.583,103.444,343.722,103.556,343.722,103.556z"/>
      <path opacity="0.27" fill="#FFFFFF" enable-background="new    " stroke-width="0" d="M343.722,103.556l0,25.7361c0,0,-6.70833,-14,-12.3611,-15.875c-5.59722,-1.86111,-8.76389,-9.86111,-15.7917,-9.86111C321.542,103.486,343.722,103.556,343.722,103.556z"/>
      <path opacity="0.18" fill="#FFFFFF" enable-background="new    " stroke-width="0" d="M249.931,195.736L249.931,132.056c0,0,16.6389,34.6528,30.5278,39.2639s21.7083,24.4167,39.0694,24.4167C304.75,195.889,249.931,195.736,249.931,195.736z"/>
      <path opacity="0.18" fill="#FFFFFF" enable-background="new    " stroke-width="0" d="M249.931,195.736l0,-44.2778c0,0,11.5694,24.0972,21.2222,27.3056c9.66667,3.19444,15.0972,17,27.1667,17C288.069,195.847,249.931,195.736,249.931,195.736z"/>
      <path opacity="0.18" fill="#FFFFFF" enable-background="new    " stroke-width="0" d="M249.931,195.736L249.931,170c0,0,6.72222,14,12.3472,15.875c5.61111,1.875,8.76389,9.875,15.7917,9.875C272.097,195.792,249.931,195.736,249.931,195.736z"/>
      <path opacity="0.09" enable-background="new    " stroke-width="0" d="M177.75,154.375c0,65.4583,53.0556,118.514,118.514,118.514s118.514,-53.0556,118.514,-118.514l0,3.13889c0,65.4444,-53.0556,118.528,-118.514,118.528s-118.514,-53.0694,-118.514,-118.528L177.75,154.375z"/>
     </g>
     <path fill="#D1C690" stroke-width="0" d="M441.931,157.486l0,59.0278l31.4167,0l0,-59.0278L441.931,157.486zM465.125,198.236c0,4.125,-3.36111,7.5,-7.48611,7.5s-7.48611,-3.375,-7.48611,-7.5l0,-22.4861c0,-4.125,3.36111,-7.5,7.48611,-7.5s7.48611,3.375,7.48611,7.5L465.125,198.236z"/>
     <g stroke-width="0">
      <polygon fill="#D1C690" points="119.181,98.4583,119.181,107.486,127.861,107.486,127.861,148.444,119.181,148.444,119.181,157.486,150.597,157.486,150.597,98.4583" stroke-width="0"/>
      <rect width="31.4167" x="119.181" y="156.514" fill="#9A916C" height="2" stroke-width="0"/>
      <rect width="8.68056" x="119.181" y="107.306" fill="#9A916C" height="2" stroke-width="0"/>
     </g>
     <rect width="31.4167" x="441.931" y="216.667" fill="#9A916C" height="2" stroke-width="0"/>
     <path fill="#9A916C" stroke-width="0" d="M450.153,175.75c0,-4.125,3.36111,-7.5,7.48611,-7.5s7.48611,3.375,7.48611,7.5l0,2.01389c0,-4.125,-3.36111,-7.51389,-7.48611,-7.51389s-7.48611,3.375,-7.48611,7.51389L450.153,175.75z"/>
     <path fill="#FFFFFF" stroke-width="0" d="M201.889,83.7361c0,0,36.2083,-40.6528,69.75,-43.0139c33.5556,-2.34722,33.5556,-2.34722,33.5556,-2.34722c14.1667,3.38889,13.125,5.65278,-2.30556,5.01389c0,0,0,0,-33.4444,3.16667c-33.4444,3.16667,-64.8333,43.125,-71.2222,51.9028c-11.3611,15.5972,-14.7917,74.6806,-14.1806,42.9306C184.653,109.639,190.667,99.7083,201.889,83.7361z"/>
     <g stroke-width="0">
      <rect width="97.7222" x="0" y="180.764" fill="#D1C690" height="70.8611" stroke-width="0"/>
      <rect width="97.7222" x="0" y="251.625" fill="#9A916C" height="2" stroke-width="0"/>
      <rect width="39.1389" x="111.444" y="213.611" fill="#9A916C" height="2.01389" stroke-width="0"/>
      <rect width="38.3889" x="112.208" y="172.875" fill="#D1C690" height="40.75" stroke-width="0"/>
      <polygon fill="#D1C690" points="112.208,213.611,110.694,236.569,110.694,195.819,112.208,172.875" stroke-width="0"/>
      <polygon fill="#9A916C" points="112.208,238.556,113.722,213.611,112.208,213.611,110.694,238.556" stroke-width="0"/>
      <rect width="22.9722" x="87.7083" y="195.819" fill="#D1C690" height="40.75" stroke-width="0"/>
      <rect width="12.9722" x="97.7222" y="236.569" fill="#9A916C" height="2.01389" stroke-width="0"/>
      <rect width="97.7222" x="0" y="180.764" fill="#DAD1A6" height="1.98611" stroke-width="0"/>
      <rect width="37.625" x="112.972" y="172.875" fill="#DAD1A6" height="2.01389" stroke-width="0"/>
      <polygon fill="#DAD1A6" points="111.528,196.819,112.972,173.25,112.208,173.264,110.694,198.208" stroke-width="0"/>
      <rect width="12.9722" x="97.7222" y="195.819" fill="#DAD1A6" height="2.01389" stroke-width="0"/>
     </g>
     <g stroke-width="0">
      <rect width="97.7222" x="494.806" y="111.431" fill="#D1C690" height="70.8611" stroke-width="0"/>
      <rect width="97.7222" x="494.806" y="182.292" fill="#9A916C" height="2" stroke-width="0"/>
      <rect width="39.1389" x="441.931" y="144.292" fill="#9A916C" height="2.01389" stroke-width="0"/>
      <rect width="38.3889" x="441.931" y="103.556" fill="#D1C690" height="40.7361" stroke-width="0"/>
      <polygon fill="#D1C690" points="480.319,103.556,481.833,126.486,481.833,167.236,480.319,144.292" stroke-width="0"/>
      <polygon fill="#9A916C" points="481.833,169.236,480.319,144.292,478.806,144.292,480.319,169.236" stroke-width="0"/>
      <rect width="22.9722" x="481.833" y="126.486" fill="#D1C690" height="40.75" stroke-width="0"/>
      <rect width="12.9722" x="481.833" y="167.236" fill="#9A916C" height="2" stroke-width="0"/>
      <rect width="97.7222" x="494.806" y="111.431" fill="#DAD1A6" height="1.98611" stroke-width="0"/>
      <rect width="37.625" x="441.931" y="103.556" fill="#DAD1A6" height="2.01389" stroke-width="0"/>
      <polygon fill="#DAD1A6" points="481.833,128.875,480.319,103.931,479.556,103.917,481,127.5" stroke-width="0"/>
      <rect width="12.9722" x="481.833" y="126.486" fill="#DAD1A6" height="2.01389" stroke-width="0"/>
     </g>
     <rect width="31.4167" x="119.181" y="98.6111" fill="#DAD1A6" height="2.01389" stroke-width="0"/>
     <rect width="31.4167" x="441.931" y="157.5" fill="#DAD1A6" height="2.01389" stroke-width="0"/>
    </g>
   </g>
  </g>
  <g transform="translate(330.299,534.05)">
   <rect width="31.93" x="0" y="0" fill="#8D8C8C" height="31.9" id="connector0pin" stroke-width="0"/>
   <rect width="16.4442" x="7.79153" y="7.73544" fill="#8C8663" height="16.4152" stroke-width="0"/>
   <polygon fill="#B8AF82" points="0,31.9,7.79153,24.1368,7.79153,6.97162,0,0" stroke-width="0"/>
   <polygon fill="#80795B" points="24.2079,7.76321,7.90264,7.76321,0,0,31.93,0" stroke-width="0"/>
   <polygon fill="#5E5B43" points="24.2079,24.1368,24.2079,7.76321,31.93,0,31.93,31.9" stroke-width="0"/>
   <polygon fill="#9A916C" points="0,31.9,7.87486,24.1368,24.2079,24.1368,31.93,31.9" stroke-width="0"/>
  </g>
  <g transform="translate(430.299,534.05)">
   <rect width="31.93" x="0" y="0" fill="#8D8C8C" height="31.9" id="connector1pin" stroke-width="0"/>
   <rect width="16.4442" x="7.79153" y="7.73544" fill="#8C8663" height="16.4152" stroke-width="0"/>
   <polygon fill="#B8AF82" points="0,31.9,7.79153,24.1368,7.79153,6.97162,0,0" stroke-width="0"/>
   <polygon fill="#80795B" points="24.2079,7.76321,7.90264,7.76321,0,0,31.93,0" stroke-width="0"/>
   <polygon fill="#5E5B43" points="24.2079,24.1368,24.2079,7.76321,31.93,0,31.93,31.9" stroke-width="0"/>
   <polygon fill="#9A916C" points="0,31.9,7.87486,24.1368,24.2079,24.1368,31.93,31.9" stroke-width="0"/>
  </g>
  <g transform="translate(430.299,34.05)">
   <rect width="31.93" x="0" y="0" fill="#8D8C8C" height="31.9" id="connector2pin" stroke-width="0"/>
   <rect width="16.4442" x="7.79153" y="7.73544" fill="#8C8663" height="16.4152" stroke-width="0"/>
   <polygon fill="#B8AF82" points="0,31.9,7.79153,24.1368,7.79153,6.97162,0,0" stroke-width="0"/>
   <polygon fill="#80795B" points="24.2079,7.76321,7.90264,7.76321,0,0,31.93,0" stroke-width="0"/>
   <polygon fill="#5E5B43" points="24.2079,24.1368,24.2079,7.76321,31.93,0,31.93,31.9" stroke-width="0"/>
   <polygon fill="#9A916C" points="0,31.9,7.87486,24.1368,24.2079,24.1368,31.93,31.9" stroke-width="0"/>
  </g>
 </g>
</svg>
