<?xml version='1.0' encoding='UTF-8' standalone='no'?>
<!-- Created with Fritzing (http://www.fritzing.org/) -->
<svg width="0.783333in" x="0in" version="1.2" y="0in" xmlns="http://www.w3.org/2000/svg" height="1.2in" viewBox="0 0 783.333 1200" baseProfile="tiny" xmlns:svg="http://www.w3.org/2000/svg">
 <desc>Fritzing breadboard generated by brd2svg</desc>
 <g id="breadboard">
  <g id="icon">
   <path fill="#1F7A34" stroke="none" stroke-width="0" d="M0,0L0,570A30,30 0 0 1 0,630L0,1200L783.333,1200L783.333,0L0,0z"/>
   <g transform="translate(100,243.5)">
    <desc>Fritzing breadboard generated by brd2svg</desc>
    <g stroke-width="0">
     <path fill="#7A7A7A" stroke-width="0" d="M31.7778,143.889l0,536.306l22.1667,0l0,23.7083L286.389,703.903l1.61111,-15.2222l7.31944,0l1.61111,15.2222l232.694,0l0,-23.7083l22.1944,0L551.819,143.889L31.7778,143.889zM204.375,645.25c-0.736111,4.25,-5.48611,7.69444,-11.0417,7.69444L131.514,652.944c-5.52778,0,-10.5556,-3.5,-11.0972,-7.69444L81.4583,357.931c-0.708333,-4.23611,3.55556,-7.73611,8.97222,-7.73611l9.11111,0c5.5,0,10.4722,3.52778,11.0694,7.73611l29.4028,241.458c0.458333,4.30556,5.18056,7.75,11.0139,7.75l22.9444,0c5.31944,0,10.5556,-3.5,11.0694,-7.75l29.2361,-241.444c0.652778,-4.22222,5.18056,-7.72222,11.0694,-7.72222l9,-0.0277778c5.43056,0,9.625,3.52778,9.08333,7.72222L204.375,645.25zM463.167,645.25c-0.75,4.25,-5.5,7.69444,-11.0556,7.69444l-61.7778,0c-5.52778,0,-10.5833,-3.5,-11.1389,-7.69444l-38.9722,-287.319c-0.708333,-4.23611,3.54167,-7.73611,8.97222,-7.73611l9.08333,0c5.5,0,10.4861,3.52778,11.0694,7.73611l29.4028,241.458c0.472222,4.30556,5.18056,7.75,11,7.75l22.9583,0c5.31944,0,10.5556,-3.5,11.0694,-7.75l29.2639,-241.444c0.652778,-4.22222,5.18056,-7.72222,11.0417,-7.72222l8.97222,-0.0277778c5.45833,0,9.625,3.52778,9.09722,7.72222L463.167,645.25z"/>
     <rect width="447.056" x="68.1389" y="190.444" fill="#CCCCCC" height="464.417" stroke-width="0"/>
     <rect width="447.056" x="68.1389" y="654.861" fill="#F2F2F2" height="24.3056" stroke-width="0"/>
     <g stroke-width="0">
      <path fill="#B0B0B0" stroke-width="0" d="M532.097,614.861l13.8889,0c0,7.43056,1.36111,12.2917,3.73611,13.8611c0.930556,0.430556,8.70833,1.48611,14.0556,1.48611l0,9.36111l0,4.52778l0,45.9306l0,2.13889l0,11.75c-8.38889,0,-18.2917,-1.54167,-21.6667,-3.76389c-9.22222,-6.18056,-9.93056,-18.6111,-9.98611,-24.1389l-0.0277778,-0.0277778l0,-55.5556l0.25,0.138889C532.125,618.167,532.097,616.125,532.097,614.861z"/>
      <path fill="#8F8F8F" stroke-width="0" d="M548.069,626.792c-1.36111,-2.38889,-2.05556,-6.45833,-2.05556,-11.9583l-13.8889,0l0,59.7917c0,3.90278,0.0833333,14.375,5.94444,21.6667c1.73611,2,2.625,4.375,11.2639,6.26389C547.958,700.153,548.069,626.792,548.069,626.792z"/>
     </g>
     <g id="breadboard" stroke-width="0">
      <g id="icon" stroke-width="0">
       <g stroke-width="0" transform="matrix(1, 0, 0, 1, -1024.44, -537.785)">
        <g stroke-width="0" transform="matrix(0, 0, 0, 0, 2413.33, 3315.56)">
         <rect width="39.4028" x="1168.58" y="537.778" fill="#4D4D4D" height="255.903" stroke-width="0"/>
         <rect width="39.3611" x="1257.18" y="537.778" fill="#4D4D4D" height="255.903" stroke-width="0"/>
         <rect width="39.3889" x="1335.92" y="537.778" fill="#4D4D4D" height="255.903" stroke-width="0"/>
         <rect width="39.4167" x="1424.5" y="537.778" fill="#4D4D4D" height="255.903" stroke-width="0"/>
        </g>
       </g>
      </g>
     </g>
     <g stroke-width="0">
      <g stroke-width="0">
       <g stroke-width="0">
        <path fill="#B0B0B0" stroke-width="0" d="M51.6389,614.861l-13.8889,0c0,7.43056,-1.36111,12.2917,-3.72222,13.8611c-0.944444,0.430556,-8.70833,1.48611,-14.0556,1.48611l0,9.36111l0,4.52778l0,45.9306l0,2.13889l0,11.75c8.40278,0,18.3056,-1.54167,21.6528,-3.76389c9.23611,-6.18056,9.94444,-18.6111,10,-24.1389l0.0138889,-0.0277778l0,-55.5556l-0.236111,0.138889C51.625,618.167,51.6389,616.125,51.6389,614.861z"/>
        <path fill="#8F8F8F" stroke-width="0" d="M34.4306,702.542c8.59722,-1.88889,9.54167,-4.30556,11.2639,-6.26389c5.86111,-7.25,5.94444,-17.7222,5.94444,-21.6667l0,-59.7917l-13.8889,0c0,5.5,-0.763889,9.56944,-2.08333,11.9583C35.6667,626.792,35.7639,700.153,34.4306,702.542z"/>
       </g>
      </g>
      <g stroke-width="0">
       <g stroke-width="0">
        <path fill="#B3B3B3" stroke-width="0" d="M31.7778,84.1111l0,536.278l22.1667,0l0,23.7083l475.694,0l0,-23.7083l22.1806,0L551.819,84.1111L31.7778,84.1111zM204.375,585.444c-0.736111,4.25,-5.48611,7.69444,-11.0417,7.69444L131.514,593.139c-5.52778,0,-10.5556,-3.5,-11.0972,-7.69444L81.4583,298.139c-0.708333,-4.22222,3.55556,-7.72222,8.97222,-7.72222l9.11111,0c5.5,0,10.4722,3.51389,11.0694,7.72222l29.4028,241.472c0.458333,4.30556,5.18056,7.75,11.0139,7.75l22.9444,0c5.31944,0,10.5556,-3.51389,11.0694,-7.75l29.2361,-241.458c0.652778,-4.22222,5.18056,-7.70833,11.0694,-7.70833l9,-0.0277778c5.43056,0,9.625,3.51389,9.08333,7.70833L204.375,585.444zM463.167,585.444c-0.75,4.25,-5.5,7.69444,-11.0556,7.69444l-61.7778,0c-5.52778,0,-10.5833,-3.5,-11.1389,-7.69444l-38.9722,-287.319c-0.708333,-4.22222,3.54167,-7.72222,8.97222,-7.72222l9.08333,0c5.5,0,10.4861,3.51389,11.0694,7.72222l29.4028,241.472c0.472222,4.30556,5.18056,7.75,11,7.75l22.9583,0c5.31944,0,10.5556,-3.51389,11.0694,-7.75l29.2639,-241.458c0.652778,-4.22222,5.18056,-7.70833,11.0417,-7.70833l8.97222,-0.0277778c5.45833,0,9.625,3.51389,9.09722,7.70833L463.167,585.444z"/>
       </g>
       <g stroke-width="0">
        <polygon fill="none" points="140.764,547.153,183.972,547.153,186.528,524.5,138.514,524.5" stroke-width="0"/>
        <polygon fill="#939393" points="186.528,524.5,183.972,547.153,140.764,547.153,138.514,524.5" stroke-width="0"/>
        <polygon fill="#666666" points="186.528,524.5,187.694,515.014,137.181,515.014,138.514,524.5" stroke-width="0"/>
       </g>
       <g stroke-width="0">
        <polygon fill="none" points="399.556,547.153,442.736,547.153,445.292,524.5,397.278,524.5" stroke-width="0"/>
        <polygon fill="#939393" points="445.292,524.5,442.736,547.153,399.556,547.153,397.278,524.5" stroke-width="0"/>
        <polygon fill="#666666" points="445.292,524.5,446.458,515.014,395.944,515.014,397.278,524.5" stroke-width="0"/>
       </g>
       <line stroke-opacity="0.24" fill="none" stroke="#FFFFFF" stroke-linecap="round" y1="98.8889" stroke-width="11.2" x1="39.6528" y2="610.569" x2="39.6528"/>
       <line stroke-opacity="0.24" fill="none" stroke="#FFFFFF" stroke-linecap="round" y1="98.8889" stroke-width="11.2" x1="543.917" y2="612.653" x2="543.917"/>
       <line stroke-opacity="0.15" fill="none" stroke="#000000" stroke-linecap="round" y1="628.403" stroke-width="5.6" x1="526.583" y2="628.403" x2="56.9861"/>
       <rect width="475.694" x="53.9444" y="635.069" fill="#B0B0B0" height="9.02778" stroke-width="0"/>
      </g>
     </g>
     <g stroke-width="0">
      <polygon fill="#B0B0B0" points="286.389,703.917,53.9444,703.917,53.9444,713,285.431,713" stroke-width="0"/>
      <polygon fill="#B0B0B0" points="296.944,703.917,297.903,713,529.639,713,529.639,703.917" stroke-width="0"/>
     </g>
     <g stroke-width="0">
      <path fill="#999999" stroke-width="0" d="M583.333,218.431l0,28.6111l-19.7361,0l0,-28.6111l-11.8194,0l0,-18.6944l22.7778,0c4.84722,0,8.77778,3.93056,8.77778,8.79167L583.333,218.431z"/>
      <path fill="#808080" stroke-width="0" d="M583.333,207.569l-31.5417,0l0,-7.81944c0,0,21.5833,0,24.1667,0C579.889,199.736,583.333,205.167,583.333,207.569z"/>
     </g>
     <g stroke-width="0">
      <path fill="#B3B3B3" stroke-width="0" d="M0,218.431l0,28.6111l19.7361,0l0,-28.6111l12.0556,0l0,-18.6944L8.77778,199.736C3.91667,199.736,0,203.667,0,208.528L0,218.431z"/>
      <path fill="#E6E6E6" stroke-width="0" d="M0,207.569l31.7917,0l0,-7.81944c0,0,-21.8333,0,-24.4444,0C3.44444,199.736,0,205.167,0,207.569z"/>
     </g>
    </g>
   </g>
  </g>
  <g transform="translate(325.702,1134.05)">
   <rect width="31.93" x="0" y="0" fill="#8D8C8C" height="31.9" id="connector0pin" stroke-width="0"/>
   <rect width="16.4442" x="7.79153" y="7.73544" fill="#8C8663" height="16.4152" stroke-width="0"/>
   <polygon fill="#B8AF82" points="0,31.9,7.79153,24.1368,7.79153,6.97162,0,0" stroke-width="0"/>
   <polygon fill="#80795B" points="24.2079,7.76321,7.90264,7.76321,0,0,31.93,0" stroke-width="0"/>
   <polygon fill="#5E5B43" points="24.2079,24.1368,24.2079,7.76321,31.93,0,31.93,31.9" stroke-width="0"/>
   <polygon fill="#9A916C" points="0,31.9,7.87486,24.1368,24.2079,24.1368,31.93,31.9" stroke-width="0"/>
  </g>
  <g transform="translate(325.702,34.05)">
   <rect width="31.93" x="0" y="0" fill="#8D8C8C" height="31.9" id="connector3pin" stroke-width="0"/>
   <rect width="16.4442" x="7.79153" y="7.73544" fill="#8C8663" height="16.4152" stroke-width="0"/>
   <polygon fill="#B8AF82" points="0,31.9,7.79153,24.1368,7.79153,6.97162,0,0" stroke-width="0"/>
   <polygon fill="#80795B" points="24.2079,7.76321,7.90264,7.76321,0,0,31.93,0" stroke-width="0"/>
   <polygon fill="#5E5B43" points="24.2079,24.1368,24.2079,7.76321,31.93,0,31.93,31.9" stroke-width="0"/>
   <polygon fill="#9A916C" points="0,31.9,7.87486,24.1368,24.2079,24.1368,31.93,31.9" stroke-width="0"/>
  </g>
  <g transform="translate(425.702,1134.05)">
   <rect width="31.93" x="0" y="0" fill="#8D8C8C" height="31.9" id="connector1pin" stroke-width="0"/>
   <rect width="16.4442" x="7.79153" y="7.73544" fill="#8C8663" height="16.4152" stroke-width="0"/>
   <polygon fill="#B8AF82" points="0,31.9,7.79153,24.1368,7.79153,6.97162,0,0" stroke-width="0"/>
   <polygon fill="#80795B" points="24.2079,7.76321,7.90264,7.76321,0,0,31.93,0" stroke-width="0"/>
   <polygon fill="#5E5B43" points="24.2079,24.1368,24.2079,7.76321,31.93,0,31.93,31.9" stroke-width="0"/>
   <polygon fill="#9A916C" points="0,31.9,7.87486,24.1368,24.2079,24.1368,31.93,31.9" stroke-width="0"/>
  </g>
  <g transform="translate(425.702,34.05)">
   <rect width="31.93" x="0" y="0" fill="#8D8C8C" height="31.9" id="connector2pin" stroke-width="0"/>
   <rect width="16.4442" x="7.79153" y="7.73544" fill="#8C8663" height="16.4152" stroke-width="0"/>
   <polygon fill="#B8AF82" points="0,31.9,7.79153,24.1368,7.79153,6.97162,0,0" stroke-width="0"/>
   <polygon fill="#80795B" points="24.2079,7.76321,7.90264,7.76321,0,0,31.93,0" stroke-width="0"/>
   <polygon fill="#5E5B43" points="24.2079,24.1368,24.2079,7.76321,31.93,0,31.93,31.9" stroke-width="0"/>
   <polygon fill="#9A916C" points="0,31.9,7.87486,24.1368,24.2079,24.1368,31.93,31.9" stroke-width="0"/>
  </g>
 </g>
 <text x="50" y="624.375" font-family="OCRA" fill="white" text-anchor="start" stroke="none" id="label" stroke-width="0" font-size="65">USB-A-PCB</text>
 <g transform="translate(355.166,1126.05)">
  <g transform="rotate(-90)">
   <text x="0" y="0" font-family="OCRA" fill="white" text-anchor="start" stroke="none" stroke-width="0" font-size="45">5V</text>
  </g>
 </g>
 <g transform="translate(355.166,73.95)">
  <g transform="rotate(-90)">
   <text x="0" y="0" font-family="OCRA" fill="white" text-anchor="end" stroke="none" stroke-width="0" font-size="45">USB_P</text>
  </g>
 </g>
 <g transform="translate(455.166,1126.05)">
  <g transform="rotate(-90)">
   <text x="0" y="0" font-family="OCRA" fill="white" text-anchor="start" stroke="none" stroke-width="0" font-size="45">GND</text>
  </g>
 </g>
 <g transform="translate(455.166,73.95)">
  <g transform="rotate(-90)">
   <text x="0" y="0" font-family="OCRA" fill="white" text-anchor="end" stroke="none" stroke-width="0" font-size="45">USB_M</text>
  </g>
 </g>
</svg>
