<?xml version='1.0' encoding='UTF-8' standalone='no'?>
<!-- Created with Fritzing (http://www.fritzing.org/) -->
<svg width="0.5815in" x="0in" version="1.2" y="0in" xmlns="http://www.w3.org/2000/svg" height="0.8in" viewBox="0 0 581.5 800" baseProfile="tiny" xmlns:svg="http://www.w3.org/2000/svg">
 <desc>Fritzing breadboard generated by brd2svg</desc>
 <g id="breadboard">
  <g id="icon">
   <path fill="#1F7A34" stroke="none" stroke-width="0" d="M0,0L0,370A30,30 0 0 1 0,430L0,800L581.5,800L581.5,0L0,0z"/>
   <g transform="translate(-90.75,-91.5)">
    <g transform="matrix(0.5, 0, 0, 0.5, 190.75, 245.75)">
     <circle fill="none" cx="244" cy="644" connectorname="2" stroke="#F7BD13" r="36.5" stroke-width="10"/>
     <circle fill="none" cx="94" cy="494" connectorname="3" stroke="#F7BD13" r="28.5" stroke-width="10"/>
     <circle fill="none" cx="269" cy="344" connectorname="1" stroke="#F7BD13" r="36.5" stroke-width="10"/>
     <circle fill="none" cx="494" cy="169" connectorname="G" stroke="#F7BD13" r="28.5" stroke-width="10"/>
     <circle fill="black" cx="419" cy="644" stroke="black" r="31.5" id="nonconn0" stroke-width="0"/>
     <circle fill="black" cx="619" cy="344" stroke="black" r="31.5" id="nonconn1" stroke-width="0"/>
     <rect width="763" x="0" y="0" fill="#303030" height="983" stroke="none" stroke-width="0"/>
     <polygon fill="#1f1f1f" points="0,0 763,0 753,10 10,10"/>
     <polygon fill="#1f1f1f" points="0,983 763,983 753,973 10,973"/>
     <polygon fill="#000000" points="0,0 0,983 10,973 10,10"/>
     <polygon fill="#3d3d3d" points="763,0 763,983 753,973 753,10"/>
     <circle fill="#1f1f1f" cx="30" cy="953" stroke="none" r="10" stroke-width="0"/>
    </g>
   </g>
   <text x="50" y="424.375" font-family="OCRA" fill="white" text-anchor="start" stroke="none" id="label" stroke-width="0" font-size="65">XLR3_NC3FAH2</text>
  </g>
 </g>
</svg>
