<?xml version='1.0' encoding='UTF-8' standalone='no'?>
<!-- Created with Fritzing (http://www.fritzing.org/) -->
<svg width="0.688167in" x="0in" version="1.2" y="0in" xmlns="http://www.w3.org/2000/svg" height="0.8in" viewBox="0 0 688.167 800" baseProfile="tiny" xmlns:svg="http://www.w3.org/2000/svg">
 <desc>Fritzing breadboard generated by brd2svg</desc>
 <g id="breadboard">
  <g id="icon">
   <path fill="#1F7A34" stroke="none" stroke-width="0" d="M0,0L0,370A30,30 0 0 1 0,430L0,800L688.167,800L688.167,0L0,0z"/>
   <g transform="translate(100,215.889)">
    <g stroke-width="0">
     <rect width="39.5833" x="106.069" y="0" fill="#B3B3B3" height="29.5972" stroke-width="0"/>
     <rect width="6.125" x="106.069" y="0" fill="#E6E6E6" height="29.5972" stroke-width="0"/>
    </g>
    <g stroke-width="0">
     <rect width="39.5833" x="184.042" y="0" fill="#B3B3B3" height="29.5972" stroke-width="0"/>
     <rect width="6.125" x="184.042" y="0" fill="#E6E6E6" height="29.5972" stroke-width="0"/>
    </g>
    <g stroke-width="0">
     <rect width="39.5833" x="263.681" y="0" fill="#B3B3B3" height="29.5972" stroke-width="0"/>
     <rect width="6.125" x="263.681" y="0" fill="#E6E6E6" height="29.5972" stroke-width="0"/>
    </g>
    <g stroke-width="0">
     <rect width="39.5833" x="342.417" y="0" fill="#B3B3B3" height="29.5972" stroke-width="0"/>
     <rect width="6.125" x="342.417" y="0" fill="#E6E6E6" height="29.5972" stroke-width="0"/>
    </g>
    <g id="Ebene_1_1_" stroke-width="0">
     <rect width="488.167" x="0" y="166.736" fill="#808080" height="122.847" stroke-width="0"/>
     <rect width="425.194" x="31.5" y="218.778" fill="#808080" height="124.167" stroke-width="0"/>
     <polygon opacity="0.34" fill="#1A1A1A" points="51.375,342.667,134.639,342.667,233.097,236.181,51.375,236.181" enable-background="new    " stroke-width="0"/>
     <g stroke-width="0">
      <g stroke-width="0">
       <rect width="12.1528" x="341.389" y="201.389" fill="#999999" height="94.5" stroke-width="0"/>
      </g>
      <g stroke-width="0">
       <rect width="12.1528" x="238.014" y="201.389" fill="#999999" height="94.5" stroke-width="0"/>
      </g>
      <g stroke-width="0">
       <rect width="12.1528" x="134.639" y="201.389" fill="#999999" height="94.5" stroke-width="0"/>
      </g>
     </g>
     <polygon fill="#CCCCCC" points="0,27.7778,0,201.389,31.5,201.389,31.5,236.181,173.347,236.181,314.833,236.181,456.681,236.181,456.681,201.389,488.181,201.389,488.181,27.7778" stroke-width="0"/>
     <rect width="29.5139" x="62.9861" y="27.7778" fill="#999999" height="114.653" stroke-width="0"/>
     <rect width="5.80556" x="86.6944" opacity="0.34" y="27.7778" fill="#FFFFFF" height="114.653" enable-background="new    " stroke-width="0"/>
     <rect width="29.5139" x="395.681" y="27.7778" fill="#999999" height="114.625" stroke-width="0"/>
     <rect width="5.80556" x="419.389" opacity="0.34" y="27.7778" fill="#FFFFFF" height="114.653" enable-background="new    " stroke-width="0"/>
     <rect width="29.5139" x="62.9861" y="201.389" fill="#E6E6E6" height="34.8056" stroke-width="0"/>
     <rect width="29.5139" x="395.681" y="201.389" fill="#E6E6E6" height="34.8056" stroke-width="0"/>
     <rect width="29.5139" x="62.9861" y="214.778" fill="#999999" height="21.4028" stroke-width="0"/>
     <rect width="29.5139" x="395.681" y="214.778" fill="#999999" height="21.4028" stroke-width="0"/>
     <rect width="425.194" x="31.5" y="342.958" fill="#E6E6E6" height="25.25" stroke-width="0"/>
     <rect width="19.8889" x="436.806" y="236.181" fill="#E6E6E6" height="106.778" stroke-width="0"/>
     <rect width="19.9028" x="31.5" y="236.181" fill="#E6E6E6" height="106.778" stroke-width="0"/>
     <g stroke-width="0">
      <g stroke-width="0">
       <rect width="19.6806" x="376" y="281.375" fill="#E6E6E6" height="19.7083" stroke-width="0"/>
       <rect width="19.6806" x="376" y="214.458" fill="#CCCCCC" height="66.9028" stroke-width="0"/>
      </g>
      <g stroke-width="0">
       <rect width="19.6806" x="281.5" y="281.375" fill="#E6E6E6" height="19.7083" stroke-width="0"/>
       <rect width="19.6806" x="281.5" y="214.458" fill="#CCCCCC" height="66.9028" stroke-width="0"/>
      </g>
      <g stroke-width="0">
       <rect width="19.6806" x="187" y="281.375" fill="#E6E6E6" height="19.7083" stroke-width="0"/>
       <rect width="19.6806" x="187" y="214.458" fill="#CCCCCC" height="66.9028" stroke-width="0"/>
      </g>
      <g stroke-width="0">
       <rect width="19.6806" x="92.5" y="281.375" fill="#E6E6E6" height="19.7083" stroke-width="0"/>
       <rect width="19.6806" x="92.5" y="214.458" fill="#CCCCCC" height="66.9028" stroke-width="0"/>
      </g>
     </g>
     <polygon fill="#E6E6E6" points="31.5,228.347,31.5,249.264,173.347,249.264,173.347,235.375,314.833,235.375,314.833,249.264,456.681,249.264,456.681,228.347" stroke-width="0"/>
     <rect width="31.5" x="0" y="201.389" fill="#E6E6E6" height="26.9583" stroke-width="0"/>
     <rect width="31.5" x="456.681" y="201.389" fill="#E6E6E6" height="26.9583" stroke-width="0"/>
     <rect width="15.75" x="15.75" y="289.569" fill="#B3B3B3" height="66.0139" stroke-width="0"/>
     <rect width="15.7361" x="456.681" y="289.569" fill="#B3B3B3" height="66.0139" stroke-width="0"/>
     <g stroke-width="0">
      <rect width="31.5" x="456.681" y="289.569" fill="#E6E6E6" height="12.5694" stroke-width="0"/>
      <rect width="15.75" x="472.431" y="302.153" fill="#E6E6E6" height="40.8056" stroke-width="0"/>
     </g>
     <g stroke-width="0">
      <rect width="31.5" x="0" y="289.569" fill="#E6E6E6" height="12.5694" stroke-width="0"/>
      <rect width="15.75" x="0" y="302.153" fill="#E6E6E6" height="40.8056" stroke-width="0"/>
     </g>
     <rect width="7.86111" x="0" opacity="0.34" y="27.7778" fill="#FFFFFF" height="173.611" enable-background="new    " stroke-width="0"/>
     <rect width="7.86111" x="480.319" opacity="0.34" y="27.7778" fill="#333333" height="173.611" enable-background="new    " stroke-width="0"/>
     <rect width="7.875" x="456.681" opacity="0.34" y="201.264" fill="#333333" height="27.0556" enable-background="new    " stroke-width="0"/>
     <rect width="7.875" x="456.681" opacity="0.34" y="289.569" fill="#333333" height="12.5694" enable-background="new    " stroke-width="0"/>
     <rect width="7.875" x="472.417" opacity="0.34" y="302.153" fill="#333333" height="40.5139" enable-background="new    " stroke-width="0"/>
     <rect width="5.80556" x="86.6944" opacity="0.34" y="214.778" fill="#FFFFFF" height="13.5833" enable-background="new    " stroke-width="0"/>
     <rect width="5.80556" x="419.389" opacity="0.34" y="214.778" fill="#FFFFFF" height="13.5833" enable-background="new    " stroke-width="0"/>
    </g>
   </g>
  </g>
  <g transform="translate(228.119,734.05)">
   <rect width="31.93" x="0" y="0" fill="#8D8C8C" height="31.9" id="connector0pin" stroke-width="0"/>
   <rect width="16.4442" x="7.79153" y="7.73544" fill="#8C8663" height="16.4152" stroke-width="0"/>
   <polygon fill="#B8AF82" points="0,31.9,7.79153,24.1368,7.79153,6.97162,0,0" stroke-width="0"/>
   <polygon fill="#80795B" points="24.2079,7.76321,7.90264,7.76321,0,0,31.93,0" stroke-width="0"/>
   <polygon fill="#5E5B43" points="24.2079,24.1368,24.2079,7.76321,31.93,0,31.93,31.9" stroke-width="0"/>
   <polygon fill="#9A916C" points="0,31.9,7.87486,24.1368,24.2079,24.1368,31.93,31.9" stroke-width="0"/>
  </g>
  <g transform="translate(228.119,34.05)">
   <rect width="31.93" x="0" y="0" fill="#8D8C8C" height="31.9" id="connector5pin" stroke-width="0"/>
   <rect width="16.4442" x="7.79153" y="7.73544" fill="#8C8663" height="16.4152" stroke-width="0"/>
   <polygon fill="#B8AF82" points="0,31.9,7.79153,24.1368,7.79153,6.97162,0,0" stroke-width="0"/>
   <polygon fill="#80795B" points="24.2079,7.76321,7.90264,7.76321,0,0,31.93,0" stroke-width="0"/>
   <polygon fill="#5E5B43" points="24.2079,24.1368,24.2079,7.76321,31.93,0,31.93,31.9" stroke-width="0"/>
   <polygon fill="#9A916C" points="0,31.9,7.87486,24.1368,24.2079,24.1368,31.93,31.9" stroke-width="0"/>
  </g>
  <g transform="translate(328.119,734.05)">
   <rect width="31.93" x="0" y="0" fill="#8D8C8C" height="31.9" id="connector1pin" stroke-width="0"/>
   <rect width="16.4442" x="7.79153" y="7.73544" fill="#8C8663" height="16.4152" stroke-width="0"/>
   <polygon fill="#B8AF82" points="0,31.9,7.79153,24.1368,7.79153,6.97162,0,0" stroke-width="0"/>
   <polygon fill="#80795B" points="24.2079,7.76321,7.90264,7.76321,0,0,31.93,0" stroke-width="0"/>
   <polygon fill="#5E5B43" points="24.2079,24.1368,24.2079,7.76321,31.93,0,31.93,31.9" stroke-width="0"/>
   <polygon fill="#9A916C" points="0,31.9,7.87486,24.1368,24.2079,24.1368,31.93,31.9" stroke-width="0"/>
  </g>
  <g transform="translate(328.119,34.05)">
   <rect width="31.93" x="0" y="0" fill="#8D8C8C" height="31.9" id="connector4pin" stroke-width="0"/>
   <rect width="16.4442" x="7.79153" y="7.73544" fill="#8C8663" height="16.4152" stroke-width="0"/>
   <polygon fill="#B8AF82" points="0,31.9,7.79153,24.1368,7.79153,6.97162,0,0" stroke-width="0"/>
   <polygon fill="#80795B" points="24.2079,7.76321,7.90264,7.76321,0,0,31.93,0" stroke-width="0"/>
   <polygon fill="#5E5B43" points="24.2079,24.1368,24.2079,7.76321,31.93,0,31.93,31.9" stroke-width="0"/>
   <polygon fill="#9A916C" points="0,31.9,7.87486,24.1368,24.2079,24.1368,31.93,31.9" stroke-width="0"/>
  </g>
  <g transform="translate(428.119,734.05)">
   <rect width="31.93" x="0" y="0" fill="#8D8C8C" height="31.9" id="connector2pin" stroke-width="0"/>
   <rect width="16.4442" x="7.79153" y="7.73544" fill="#8C8663" height="16.4152" stroke-width="0"/>
   <polygon fill="#B8AF82" points="0,31.9,7.79153,24.1368,7.79153,6.97162,0,0" stroke-width="0"/>
   <polygon fill="#80795B" points="24.2079,7.76321,7.90264,7.76321,0,0,31.93,0" stroke-width="0"/>
   <polygon fill="#5E5B43" points="24.2079,24.1368,24.2079,7.76321,31.93,0,31.93,31.9" stroke-width="0"/>
   <polygon fill="#9A916C" points="0,31.9,7.87486,24.1368,24.2079,24.1368,31.93,31.9" stroke-width="0"/>
  </g>
  <g transform="translate(428.119,34.05)">
   <rect width="31.93" x="0" y="0" fill="#8D8C8C" height="31.9" id="connector3pin" stroke-width="0"/>
   <rect width="16.4442" x="7.79153" y="7.73544" fill="#8C8663" height="16.4152" stroke-width="0"/>
   <polygon fill="#B8AF82" points="0,31.9,7.79153,24.1368,7.79153,6.97162,0,0" stroke-width="0"/>
   <polygon fill="#80795B" points="24.2079,7.76321,7.90264,7.76321,0,0,31.93,0" stroke-width="0"/>
   <polygon fill="#5E5B43" points="24.2079,24.1368,24.2079,7.76321,31.93,0,31.93,31.9" stroke-width="0"/>
   <polygon fill="#9A916C" points="0,31.9,7.87486,24.1368,24.2079,24.1368,31.93,31.9" stroke-width="0"/>
  </g>
 </g>
 <text x="50" y="424.375" font-family="OCRA" fill="white" text-anchor="start" stroke="none" id="label" stroke-width="0" font-size="65"/>
 <g transform="translate(257.584,726.05)">
  <g transform="rotate(-90)">
   <text x="0" y="0" font-family="OCRA" fill="white" text-anchor="start" stroke="none" stroke-width="0" font-size="45"/>
  </g>
 </g>
 <g transform="translate(257.584,73.95)">
  <g transform="rotate(-90)">
   <text x="0" y="0" font-family="OCRA" fill="white" text-anchor="end" stroke="none" stroke-width="0" font-size="45"/>
  </g>
 </g>
 <g transform="translate(357.584,726.05)">
  <g transform="rotate(-90)">
   <text x="0" y="0" font-family="OCRA" fill="white" text-anchor="start" stroke="none" stroke-width="0" font-size="45"/>
  </g>
 </g>
 <g transform="translate(357.584,73.95)">
  <g transform="rotate(-90)">
   <text x="0" y="0" font-family="OCRA" fill="white" text-anchor="end" stroke="none" stroke-width="0" font-size="45"/>
  </g>
 </g>
 <g transform="translate(457.584,726.05)">
  <g transform="rotate(-90)">
   <text x="0" y="0" font-family="OCRA" fill="white" text-anchor="start" stroke="none" stroke-width="0" font-size="45"/>
  </g>
 </g>
 <g transform="translate(457.584,73.95)">
  <g transform="rotate(-90)">
   <text x="0" y="0" font-family="OCRA" fill="white" text-anchor="end" stroke="none" stroke-width="0" font-size="45"/>
  </g>
 </g>
</svg>
