<?xml version='1.0' encoding='UTF-8' standalone='no'?>
<!-- Created with Fritzing (http://www.fritzing.org/) -->
<svg width="0.655403in" x="0in" version="1.2" y="0in" xmlns="http://www.w3.org/2000/svg" height="0.6in" viewBox="0 0 655.403 600" baseProfile="tiny" xmlns:svg="http://www.w3.org/2000/svg">
 <desc>Fritzing breadboard generated by brd2svg</desc>
 <g id="breadboard">
  <g id="icon">
   <path fill="#1F7A34" stroke="none" stroke-width="0" d="M0,0L0,270A30,30 0 0 1 0,330L0,600L655.403,600L655.403,0L0,0z"/>
   <g transform="translate(100,185.257)">
    <circle fill="#808080" cx="332.736" cy="0" r="20.4028" stroke-width="0"/>
    <circle fill="#808080" cx="332.736" cy="188.681" r="20.4028" stroke-width="0"/>
    <polygon fill="#333333" points="120.611,0,120.611,25.8889,0,25.8889,0,162.347,120.611,162.347,120.611,188.667,398.667,188.667,398.667,0" stroke-width="0"/>
    <polygon fill="#2B2B2B" points="394.722,53.4444,394.722,53.4444,394.722,135.25,394.722,135.25,394.722,154.056,436.944,154.056,436.944,34.6528,394.722,34.6528" stroke-width="0"/>
    <polygon fill="#292929" points="394.722,132.542,394.722,135.25,394.722,135.25,394.722,149.764,436.944,149.764,436.944,132.542" stroke-width="0"/>
    <polygon fill="#292929" points="394.722,59.1111,394.722,53.1111,394.722,53.1111,394.722,38.5833,436.944,38.5833,436.944,59.1111" stroke-width="0"/>
    <rect width="42.0139" x="394.722" y="72.8889" fill="#333333" height="31.75" stroke-width="0"/>
    <rect width="42.0139" x="394.722" y="82.0278" fill="#383838" height="17.4167" stroke-width="0"/>
    <rect width="42.2361" x="394.722" y="149.736" fill="#212121" height="4.33333" stroke-width="0"/>
    <rect width="42.2361" x="394.722" y="34.6667" fill="#212121" height="3.91667" stroke-width="0"/>
    <rect width="18.625" x="436.778" y="34.6667" fill="#A1A1A1" height="119.333" stroke-width="0"/>
    <rect width="18.625" x="436.778" y="59.0972" fill="#ABABAB" height="73.4722" stroke-width="0"/>
    <rect width="18.625" x="436.778" y="72.8889" fill="#C7C7C7" height="31.75" stroke-width="0"/>
    <rect width="18.625" x="436.778" y="82.0278" fill="#E6E6E6" height="17.4167" stroke-width="0"/>
    <rect width="18.625" x="436.778" y="34.6667" fill="#737373" height="3.91667" stroke-width="0"/>
    <rect width="18.625" x="436.778" y="149.931" fill="#737373" height="3.93056" stroke-width="0"/>
    <rect width="51.2917" x="291.125" y="0.0555556" height="25" stroke-width="0"/>
    <rect width="51.3472" x="239.75" y="163.653" height="25.0139" stroke-width="0"/>
    <rect width="51.2917" x="291.125" y="0.0555556" fill="#C7C7C7" height="8.26389" stroke-width="0"/>
    <rect width="51.3472" x="239.75" y="180.389" fill="#C7C7C7" height="8.27778" stroke-width="0"/>
   </g>
  </g>
 </g>
 <text x="50" y="324.375" font-family="OCRA" fill="white" text-anchor="start" stroke="none" id="label" stroke-width="0" font-size="65">STEREOJACK2.5MM_SPECIA_POGOPINS</text>
</svg>
