<?xml version='1.0' encoding='UTF-8' standalone='no'?>
<!-- Created with Fritzing (http://www.fritzing.org/) -->
<svg width="0.928583in" x="0in" version="1.2" y="0in" xmlns="http://www.w3.org/2000/svg" height="1in" viewBox="0 0 928.583 1000" baseProfile="tiny" xmlns:svg="http://www.w3.org/2000/svg">
 <desc>Fritzing breadboard generated by brd2svg</desc>
 <g id="breadboard">
  <g id="icon">
   <path fill="#1F7A34" stroke="none" stroke-width="0" d="M0,0L0,470A30,30 0 0 1 0,530L0,1000L928.583,1000L928.583,0L0,0z"/>
   <g transform="translate(100,159.577)">
    <g stroke-width="0">
     <g stroke-width="0">
      <g stroke-width="0">
       <g stroke-width="0">
        <rect width="39.9306" x="444.153" y="5.19444" fill="#CCCCCC" height="48.25" stroke-width="0"/>
        <rect width="7.51389" x="444.153" y="5.19444" fill="#E6E6E6" height="48.25" stroke-width="0"/>
        <rect width="7.51389" x="477.139" y="5.19444" fill="#B3B3B3" height="48.25" stroke-width="0"/>
       </g>
       <g stroke-width="0">
        <rect width="39.9306" x="244.139" y="5.19444" fill="#CCCCCC" height="48.25" stroke-width="0"/>
        <rect width="7.52778" x="244.139" y="5.19444" fill="#E6E6E6" height="48.25" stroke-width="0"/>
        <rect width="7.52778" x="277.125" y="5.19444" fill="#B3B3B3" height="48.25" stroke-width="0"/>
       </g>
      </g>
      <polygon fill="#666666" points="112.903,53.4306,112.903,13.5,37.7778,13.5,37.7778,66.3333,37.9861,66.3333,37.9861,170.486,690.819,170.486,690.819,53.4306" stroke-width="0"/>
      <rect width="185" x="271.903" y="53.4306" fill="#4D4D4D" height="117.069" stroke-width="0"/>
      <circle cx="364.403" cy="170.486" r="65.3611" stroke-width="0"/>
      <rect width="185" x="271.903" y="53.4306" fill="#333333" height="51.7361" stroke-width="0"/>
      <polyline fill="#333333" points="728.583,180.708,728.583,680.833,0.236111,680.833,0.236111,180.708,728.583,180.708" stroke-width="0"/>
      <polygon fill="#4D4D4D" points="98.5556,245.736,97.1667,256.083,631.222,253.389,629.486,245.736" stroke-width="0"/>
      <polygon fill="#4D4D4D" points="98.5556,615.792,97.1667,605.458,631.222,608.139,629.486,615.792" stroke-width="0"/>
      <path stroke-width="0" d="M637.319,430.778c0,-96.4583,-3.5,-182.014,-7.81944,-182.014L99.3333,248.764c-4.33333,0,-7.81944,85.5556,-7.81944,182.014c0,96.4583,3.48611,182.014,7.81944,182.014l530.181,0C633.819,612.806,637.319,527.25,637.319,430.778z"/>
      <polyline fill="#333333" points="728.389,152.431,0,152.431,0,180.708,728.389,180.708,728.389,152.431" stroke-width="0"/>
      <path fill="#1A1A1A" stroke-width="0" d="M559.625,256.083L104.347,256.083c-4.33333,0,-7.81944,78.2222,-7.81944,174.681c0,96.4861,3.48611,174.667,7.81944,174.667l455.278,0L559.625,256.083L559.625,256.083z"/>
      <text x="0" y="0" fill="#F8F8F8" font-family="'ArialMT'" stroke-width="0" transform="matrix(-4.44222e-08, 1.0163, -1, -4.37114e-08, 124.56, 420.976)" font-size="69.4444">I</text>
      <g stroke-width="0">
       <polyline fill="#333333" points="582.639,256.083,582.639,605.458,195.486,605.458,195.486,256.083,582.639,256.083" stroke-width="0"/>
       <polyline fill="#4D4D4D" points="572.792,256.083,572.792,605.458,269.931,605.458,269.931,256.083,572.792,256.083" stroke-width="0"/>
       <polyline fill="#666666" points="575.694,256.083,575.694,605.458,376.042,605.458,376.042,256.083,575.694,256.083" stroke-width="0"/>
       <path fill="#808080" stroke-width="0" d="M461.569,605.458L461.569,256.083l121.472,0c5.5,0,10.0417,4.5,10.0417,10.0417l0,329.319c0,5.48611,-4.5,10.0139,-10.0417,10.0139L461.569,605.458L461.569,605.458z"/>
      </g>
      <text x="0" y="0" fill="#F8F8F8" font-family="'ArialMT'" stroke-width="0" transform="matrix(-4.44222e-08, 1.0163, -1, -4.37114e-08, 506.246, 403.344)" font-size="69.4444">O</text>
      <path fill="#808080" stroke-width="0" d="M590.875,601.569c4.31944,0,7.81944,-74.3611,7.81944,-170.819c0,-96.4583,-3.5,-170.806,-7.81944,-170.806"/>
      <path opacity="0.15" fill="#FFFFFF" enable-background="new    " stroke-width="0" d="M582.639,256.083c0,0,6.45833,0.875,9.41667,5.19444L102.431,261.278c0.597222,-2.15278,1.90278,-5.19444,1.90278,-5.19444L582.639,256.083z"/>
      <g stroke-width="0">
       <polygon opacity="0.24" points="728.583,680.833,728.583,666.889,14.1806,666.889,0.222222,680.833" enable-background="new    " stroke-width="0"/>
       <polygon opacity="0.24" fill="#F2F2F2" points="714.639,194.667,728.583,180.708,0.222222,180.708,0.222222,194.667" enable-background="new    " stroke-width="0"/>
       <polygon opacity="0.24" fill="#F2F2F2" points="14.1806,666.889,0.222222,680.833,0.222222,194.667,14.1806,194.667" enable-background="new    " stroke-width="0"/>
       <polygon opacity="0.24" points="728.583,180.708,714.639,194.667,714.639,666.889,728.583,666.889" enable-background="new    " stroke-width="0"/>
      </g>
      <rect width="75.1389" x="615.681" y="13.5" fill="#666666" height="52.8472" stroke-width="0"/>
      <polygon fill="#4D4D4D" points="18.0556,152.431,37.9861,152.431,37.9861,79.2917" stroke-width="0"/>
      <polygon fill="#4D4D4D" points="690.819,152.431,710.722,152.431,690.819,79.2917" stroke-width="0"/>
     </g>
     <g stroke-width="0">
      <polygon fill="#CCCCCC" points="278.75,0.0138889,250.028,0.0138889,244.139,5.19444,284.653,5.19444" stroke-width="0"/>
      <polygon fill="#E6E6E6" points="244.139,5.19444,251.667,5.19444,251.667,0.0555556,250.028,0.0277778" stroke-width="0"/>
      <polygon fill="#B3B3B3" points="277.125,5.19444,284.653,5.19444,278.75,0.0277778,277.125,0.0555556" stroke-width="0"/>
     </g>
     <g stroke-width="0">
      <polygon fill="#CCCCCC" points="478.764,0.0138889,450.042,0.0138889,444.153,5.19444,484.681,5.19444" stroke-width="0"/>
      <polygon fill="#E6E6E6" points="444.153,5.19444,451.694,5.19444,451.694,0.0555556,450.042,0.0277778" stroke-width="0"/>
      <polygon fill="#B3B3B3" points="477.139,5.19444,484.681,5.19444,478.764,0.0277778,477.139,0.0555556" stroke-width="0"/>
     </g>
    </g>
   </g>
  </g>
  <g transform="translate(398.327,934.05)">
   <rect width="31.93" x="0" y="0" fill="#8D8C8C" height="31.9" id="connector0pin" stroke-width="0"/>
   <rect width="16.4442" x="7.79153" y="7.73544" fill="#8C8663" height="16.4152" stroke-width="0"/>
   <polygon fill="#B8AF82" points="0,31.9,7.79153,24.1368,7.79153,6.97162,0,0" stroke-width="0"/>
   <polygon fill="#80795B" points="24.2079,7.76321,7.90264,7.76321,0,0,31.93,0" stroke-width="0"/>
   <polygon fill="#5E5B43" points="24.2079,24.1368,24.2079,7.76321,31.93,0,31.93,31.9" stroke-width="0"/>
   <polygon fill="#9A916C" points="0,31.9,7.87486,24.1368,24.2079,24.1368,31.93,31.9" stroke-width="0"/>
  </g>
  <g transform="translate(398.327,34.05)">
   <rect width="31.93" x="0" y="0" fill="#8D8C8C" height="31.9" id="connector3pin" stroke-width="0"/>
   <rect width="16.4442" x="7.79153" y="7.73544" fill="#8C8663" height="16.4152" stroke-width="0"/>
   <polygon fill="#B8AF82" points="0,31.9,7.79153,24.1368,7.79153,6.97162,0,0" stroke-width="0"/>
   <polygon fill="#80795B" points="24.2079,7.76321,7.90264,7.76321,0,0,31.93,0" stroke-width="0"/>
   <polygon fill="#5E5B43" points="24.2079,24.1368,24.2079,7.76321,31.93,0,31.93,31.9" stroke-width="0"/>
   <polygon fill="#9A916C" points="0,31.9,7.87486,24.1368,24.2079,24.1368,31.93,31.9" stroke-width="0"/>
  </g>
  <g transform="translate(498.327,934.05)">
   <rect width="31.93" x="0" y="0" fill="#8D8C8C" height="31.9" id="connector1pin" stroke-width="0"/>
   <rect width="16.4442" x="7.79153" y="7.73544" fill="#8C8663" height="16.4152" stroke-width="0"/>
   <polygon fill="#B8AF82" points="0,31.9,7.79153,24.1368,7.79153,6.97162,0,0" stroke-width="0"/>
   <polygon fill="#80795B" points="24.2079,7.76321,7.90264,7.76321,0,0,31.93,0" stroke-width="0"/>
   <polygon fill="#5E5B43" points="24.2079,24.1368,24.2079,7.76321,31.93,0,31.93,31.9" stroke-width="0"/>
   <polygon fill="#9A916C" points="0,31.9,7.87486,24.1368,24.2079,24.1368,31.93,31.9" stroke-width="0"/>
  </g>
  <g transform="translate(498.327,34.05)">
   <rect width="31.93" x="0" y="0" fill="#8D8C8C" height="31.9" id="connector2pin" stroke-width="0"/>
   <rect width="16.4442" x="7.79153" y="7.73544" fill="#8C8663" height="16.4152" stroke-width="0"/>
   <polygon fill="#B8AF82" points="0,31.9,7.79153,24.1368,7.79153,6.97162,0,0" stroke-width="0"/>
   <polygon fill="#80795B" points="24.2079,7.76321,7.90264,7.76321,0,0,31.93,0" stroke-width="0"/>
   <polygon fill="#5E5B43" points="24.2079,24.1368,24.2079,7.76321,31.93,0,31.93,31.9" stroke-width="0"/>
   <polygon fill="#9A916C" points="0,31.9,7.87486,24.1368,24.2079,24.1368,31.93,31.9" stroke-width="0"/>
  </g>
 </g>
 <text x="50" y="524.375" font-family="OCRA" fill="white" text-anchor="start" stroke="none" id="label" stroke-width="0" font-size="65"/>
 <g transform="translate(427.791,926.05)">
  <g transform="rotate(-90)">
   <text x="0" y="0" font-family="OCRA" fill="white" text-anchor="start" stroke="none" stroke-width="0" font-size="45"/>
  </g>
 </g>
 <g transform="translate(427.791,73.95)">
  <g transform="rotate(-90)">
   <text x="0" y="0" font-family="OCRA" fill="white" text-anchor="end" stroke="none" stroke-width="0" font-size="45"/>
  </g>
 </g>
 <g transform="translate(527.792,926.05)">
  <g transform="rotate(-90)">
   <text x="0" y="0" font-family="OCRA" fill="white" text-anchor="start" stroke="none" stroke-width="0" font-size="45"/>
  </g>
 </g>
 <g transform="translate(527.792,73.95)">
  <g transform="rotate(-90)">
   <text x="0" y="0" font-family="OCRA" fill="white" text-anchor="end" stroke="none" stroke-width="0" font-size="45"/>
  </g>
 </g>
</svg>
