<?xml version='1.0' encoding='UTF-8' standalone='no'?>
<!-- Created with Fritzing (http://www.fritzing.org/) -->
<!--svg width="2.725in" x="0in" version="1.2" y="0in" xmlns="http://www.w3.org/2000/svg" height="2.32943in" viewBox="0 0 196.2 167.719" baseProfile="tiny" xmlns:svg="http://www.w3.org/2000/svg"-->
<svg width="2.725in" x="0in" version="1.2" y="0in" xmlns="http://www.w3.org/2000/svg" height="2.32943in" baseProfile="tiny" xmlns:svg="http://www.w3.org/2000/svg">
<g id="viewport">
	 <g  id="watermark" stroke-width="0">
  <g  stroke-width="0">
   <path fill="#8C8C8C"  stroke-width="0" d="M88.383,165.391L86.458,159.827L86.423,159.827c0.017,0.214,0.032,0.427,0.044,0.64c0.012,0.183,0.021,0.375,0.028,0.574c0.007,0.203,0.011,0.385,0.011,0.551l0,3.8L85.758,165.392L85.758,159.036l1.199,0l1.791,5.181l0.025,0l1.8,-5.181L91.773,159.036l0,6.354L90.964,165.39l0,-3.854c0,-0.15,0.003,-0.324,0.009,-0.518s0.013,-0.38,0.021,-0.557c0.012,-0.207,0.021,-0.416,0.029,-0.625L90.991,159.836L89.047,165.391L88.383,165.391z"/>
   <path fill="#8C8C8C"  stroke-width="0" d="M96.083,165.391l-0.16,-0.661l-0.035,0c-0.095,0.131,-0.19,0.243,-0.286,0.338c-0.095,0.095,-0.2,0.172,-0.313,0.231c-0.113,0.062,-0.239,0.106,-0.378,0.136c-0.141,0.028,-0.3,0.042,-0.482,0.042c-0.2,0,-0.384,-0.026,-0.552,-0.084c-0.168,-0.057,-0.314,-0.144,-0.438,-0.261c-0.122,-0.116,-0.219,-0.265,-0.288,-0.443S93.047,164.301,93.047,164.056c0,-0.475,0.167,-0.841,0.501,-1.095c0.335,-0.256,0.845,-0.394,1.528,-0.418l0.799,-0.029l0,-0.301c0,-0.193,-0.021,-0.356,-0.063,-0.486s-0.103,-0.234,-0.183,-0.314s-0.178,-0.138,-0.295,-0.172c-0.117,-0.035,-0.251,-0.052,-0.402,-0.052c-0.241,0,-0.464,0.034,-0.671,0.104c-0.207,0.068,-0.407,0.152,-0.597,0.25L93.385,160.95c0.214,-0.117,0.453,-0.217,0.717,-0.298c0.264,-0.079,0.54,-0.12,0.83,-0.12c0.296,0,0.551,0.029,0.768,0.09c0.216,0.059,0.395,0.151,0.534,0.28c0.141,0.13,0.247,0.294,0.316,0.494c0.07,0.199,0.104,0.44,0.104,0.726l0,3.269L96.083,165.391L96.083,165.391zM94.632,164.84c0.178,0,0.341,-0.028,0.491,-0.084c0.149,-0.055,0.282,-0.138,0.391,-0.249c0.11,-0.111,0.196,-0.252,0.258,-0.422c0.063,-0.17,0.094,-0.369,0.094,-0.599l0,-0.43l-0.621,0.03c-0.262,0.012,-0.48,0.041,-0.656,0.086c-0.175,0.047,-0.317,0.113,-0.423,0.193c-0.105,0.084,-0.183,0.185,-0.229,0.301c-0.046,0.117,-0.068,0.25,-0.068,0.398c0,0.268,0.069,0.462,0.211,0.586C94.219,164.777,94.403,164.84,94.632,164.84z"/>
   <path fill="#8C8C8C"  stroke-width="0" d="M101.065,164.752l-0.034,0c-0.063,0.099,-0.139,0.191,-0.224,0.281c-0.085,0.088,-0.184,0.165,-0.296,0.231c-0.111,0.066,-0.237,0.118,-0.376,0.156c-0.139,0.037,-0.295,0.056,-0.47,0.056c-0.271,0,-0.517,-0.051,-0.738,-0.154c-0.223,-0.105,-0.416,-0.262,-0.575,-0.469s-0.282,-0.464,-0.369,-0.771c-0.087,-0.309,-0.13,-0.664,-0.13,-1.069c0,-0.408,0.043,-0.767,0.13,-1.076c0.086,-0.31,0.209,-0.567,0.369,-0.774c0.159,-0.209,0.352,-0.367,0.575,-0.473c0.222,-0.105,0.469,-0.158,0.738,-0.158c0.171,0,0.327,0.02,0.466,0.057s0.264,0.088,0.376,0.152c0.112,0.063,0.211,0.137,0.297,0.221s0.163,0.172,0.227,0.266l0.052,0c-0.009,-0.1,-0.018,-0.191,-0.026,-0.283c-0.006,-0.074,-0.012,-0.152,-0.018,-0.232c-0.005,-0.078,-0.009,-0.143,-0.009,-0.188L101.03,158.628l0.792,0l0,6.763l-0.641,0L101.065,164.752zM99.817,164.823c0.221,0,0.407,-0.033,0.56,-0.102c0.151,-0.065,0.274,-0.168,0.37,-0.304c0.094,-0.136,0.163,-0.308,0.209,-0.512c0.044,-0.204,0.069,-0.442,0.076,-0.716l0,-0.177c0,-0.292,-0.02,-0.552,-0.059,-0.78c-0.04,-0.229,-0.105,-0.418,-0.2,-0.574c-0.094,-0.154,-0.219,-0.271,-0.376,-0.351c-0.156,-0.08,-0.352,-0.119,-0.586,-0.119c-0.391,0,-0.679,0.157,-0.861,0.474c-0.185,0.315,-0.277,0.771,-0.277,1.359c0,0.605,0.092,1.058,0.277,1.354C99.13,164.673,99.42,164.823,99.817,164.823z"/>
   <path fill="#8C8C8C"  stroke-width="0" d="M105.219,165.477c-0.318,0,-0.609,-0.053,-0.874,-0.16c-0.263,-0.106,-0.49,-0.264,-0.68,-0.469c-0.19,-0.207,-0.338,-0.461,-0.442,-0.766c-0.104,-0.306,-0.156,-0.651,-0.156,-1.045s0.049,-0.744,0.144,-1.055c0.096,-0.311,0.229,-0.574,0.405,-0.789c0.174,-0.216,0.382,-0.381,0.623,-0.492c0.241,-0.113,0.51,-0.17,0.802,-0.17c0.287,0,0.545,0.051,0.772,0.153c0.229,0.104,0.423,0.248,0.583,0.435c0.159,0.188,0.282,0.412,0.367,0.674c0.087,0.263,0.13,0.554,0.13,0.873l0,0.49l-3.008,0c0.015,0.559,0.133,0.971,0.354,1.234c0.222,0.263,0.551,0.396,0.987,0.396c0.149,0,0.285,-0.008,0.411,-0.021s0.248,-0.035,0.365,-0.063c0.118,-0.026,0.23,-0.063,0.342,-0.104s0.222,-0.089,0.334,-0.142l0,0.704c-0.116,0.055,-0.229,0.104,-0.341,0.144c-0.112,0.041,-0.226,0.074,-0.343,0.102c-0.117,0.024,-0.239,0.045,-0.365,0.056S105.368,165.477,105.219,165.477zM105.024,161.189c-0.331,0,-0.592,0.112,-0.783,0.339c-0.193,0.227,-0.307,0.555,-0.338,0.985l2.14,0c0,-0.196,-0.021,-0.378,-0.06,-0.541c-0.039,-0.164,-0.1,-0.304,-0.183,-0.419s-0.187,-0.205,-0.315,-0.27C105.357,161.219,105.204,161.189,105.024,161.189z"/>
   <path fill="#8C8C8C"  stroke-width="0" d="M114.033,165.391l-0.729,-2.678c-0.012,-0.053,-0.026,-0.111,-0.044,-0.176c-0.017,-0.065,-0.034,-0.136,-0.051,-0.207c-0.019,-0.072,-0.036,-0.146,-0.055,-0.223c-0.02,-0.074,-0.037,-0.148,-0.055,-0.222c-0.041,-0.169,-0.083,-0.341,-0.126,-0.521l-0.024,0c-0.041,0.182,-0.08,0.356,-0.117,0.524c-0.032,0.146,-0.066,0.294,-0.104,0.448c-0.037,0.152,-0.069,0.283,-0.103,0.391l-0.75,2.66l-0.917,0l-1.221,-4.771l0.83,0l0.57,2.539c0.029,0.129,0.059,0.27,0.086,0.423c0.028,0.151,0.057,0.303,0.082,0.452c0.026,0.148,0.05,0.288,0.07,0.421c0.02,0.132,0.037,0.238,0.049,0.322l0.025,0c0.015,-0.074,0.034,-0.177,0.059,-0.302c0.025,-0.126,0.052,-0.26,0.083,-0.399c0.031,-0.141,0.063,-0.28,0.093,-0.417c0.032,-0.139,0.063,-0.254,0.091,-0.351l0.778,-2.69l0.853,0l0.748,2.69c0.025,0.098,0.056,0.215,0.089,0.348c0.033,0.135,0.065,0.27,0.098,0.407c0.032,0.139,0.061,0.271,0.087,0.397c0.025,0.127,0.045,0.231,0.056,0.315l0.026,0c0.01,-0.074,0.022,-0.177,0.042,-0.302c0.02,-0.126,0.042,-0.265,0.067,-0.415c0.025,-0.149,0.054,-0.306,0.084,-0.464c0.03,-0.157,0.062,-0.306,0.094,-0.44L115.393,160.618l0.809,0l-1.234,4.771L114.033,165.389L114.033,165.391z"/>
   <path fill="#8C8C8C"  stroke-width="0" d="M116.988,159.328c0,-0.175,0.045,-0.3,0.133,-0.379c0.088,-0.078,0.197,-0.117,0.328,-0.117c0.063,0,0.123,0.011,0.181,0.028c0.056,0.019,0.104,0.049,0.147,0.089c0.042,0.041,0.075,0.092,0.101,0.154c0.023,0.063,0.037,0.137,0.037,0.224c0,0.168,-0.045,0.293,-0.138,0.376c-0.092,0.083,-0.2,0.123,-0.327,0.123c-0.131,0,-0.24,-0.04,-0.328,-0.12C117.034,159.625,116.988,159.498,116.988,159.328zM117.84,165.391l-0.791,0L117.049,160.618l0.791,0L117.84,165.391z"/>
   <path fill="#8C8C8C"  stroke-width="0" d="M120.796,164.83c0.052,0,0.111,-0.003,0.176,-0.01c0.066,-0.006,0.128,-0.013,0.189,-0.021c0.061,-0.009,0.116,-0.019,0.167,-0.031c0.051,-0.011,0.089,-0.021,0.115,-0.028l0,0.6c-0.037,0.017,-0.085,0.035,-0.144,0.052c-0.059,0.018,-0.122,0.033,-0.191,0.046c-0.068,0.015,-0.142,0.022,-0.217,0.03s-0.148,0.011,-0.221,0.011c-0.18,0,-0.347,-0.021,-0.5,-0.068c-0.153,-0.048,-0.286,-0.126,-0.397,-0.239c-0.111,-0.112,-0.198,-0.267,-0.263,-0.458c-0.063,-0.192,-0.095,-0.437,-0.095,-0.729L119.415,161.214l-0.674,0L118.741,160.862l0.673,-0.339l0.339,-0.999l0.456,0l0,1.096l1.199,0l0,0.596l-1.199,0l0,2.769c0,0.281,0.045,0.492,0.137,0.636C120.438,164.759,120.587,164.83,120.796,164.83z"/>
   <path fill="#8C8C8C"  stroke-width="0" d="M125.351,165.391l0,-3.073c0,-0.377,-0.076,-0.659,-0.228,-0.848c-0.152,-0.188,-0.391,-0.282,-0.715,-0.282c-0.234,0,-0.433,0.037,-0.592,0.111c-0.158,0.076,-0.286,0.188,-0.384,0.336c-0.097,0.148,-0.166,0.328,-0.208,0.544c-0.042,0.214,-0.063,0.461,-0.063,0.739l0,2.473l-0.791,0L122.37,158.628l0.791,0l0,2.008l-0.034,0.626l0.044,0c0.072,-0.124,0.158,-0.232,0.258,-0.323s0.209,-0.167,0.328,-0.229c0.118,-0.061,0.245,-0.104,0.378,-0.135c0.133,-0.027,0.27,-0.043,0.408,-0.043c0.531,0,0.93,0.139,1.198,0.416c0.268,0.275,0.401,0.719,0.401,1.326l0,3.117L125.351,165.391L125.351,165.391z"/>
  </g>
  <g  stroke-width="0">
   <path fill="#8C8C8C"  stroke-width="0" d="M147.111,165.375l-1.324,0L145.787,159.021l3.642,0l0,1.104l-2.316,0l0,1.639l2.156,0l0,1.1l-2.156,0L147.111,165.375L147.111,165.375z"/>
   <path fill="#8C8C8C"  stroke-width="0" d="M153.144,160.425c0.035,0,0.074,0.002,0.116,0.002c0.042,0.002,0.083,0.006,0.12,0.01c0.041,0.005,0.076,0.009,0.11,0.014c0.031,0.004,0.059,0.01,0.075,0.016l0,1.244c-0.022,-0.008,-0.056,-0.012,-0.095,-0.018c-0.04,-0.007,-0.083,-0.012,-0.128,-0.018c-0.045,-0.004,-0.09,-0.006,-0.133,-0.008c-0.044,-0.002,-0.08,-0.002,-0.108,-0.002c-0.171,0,-0.328,0.021,-0.472,0.064c-0.146,0.043,-0.269,0.113,-0.37,0.211s-0.183,0.225,-0.239,0.383c-0.057,0.157,-0.084,0.352,-0.084,0.581l0,2.474l-1.326,0L150.61,160.516l1.005,0l0.194,0.73l0.066,0c0.068,-0.125,0.145,-0.238,0.226,-0.34c0.081,-0.103,0.172,-0.189,0.272,-0.259c0.1,-0.071,0.212,-0.126,0.338,-0.165C152.837,160.445,152.983,160.425,153.144,160.425z"/>
   <path fill="#8C8C8C"  stroke-width="0" d="M154.462,159.26c0,-0.125,0.018,-0.228,0.056,-0.311c0.038,-0.084,0.089,-0.15,0.154,-0.2c0.065,-0.051,0.142,-0.086,0.229,-0.106c0.088,-0.02,0.184,-0.03,0.281,-0.03c0.099,0,0.191,0.01,0.277,0.03c0.088,0.02,0.164,0.055,0.229,0.106c0.066,0.05,0.117,0.116,0.156,0.2c0.04,0.083,0.059,0.186,0.059,0.311c0,0.122,-0.019,0.225,-0.059,0.309c-0.039,0.084,-0.09,0.151,-0.156,0.203c-0.063,0.05,-0.142,0.086,-0.229,0.108c-0.086,0.021,-0.18,0.032,-0.277,0.032c-0.099,0,-0.191,-0.012,-0.281,-0.032c-0.088,-0.021,-0.164,-0.059,-0.229,-0.108c-0.065,-0.051,-0.116,-0.119,-0.154,-0.203C154.481,159.485,154.462,159.382,154.462,159.26zM155.844,165.375l-1.325,0L154.519,160.516l1.325,0L155.844,165.375z"/>
   <path fill="#8C8C8C"  stroke-width="0" d="M159.253,164.406c0.13,0,0.254,-0.016,0.371,-0.045c0.117,-0.027,0.235,-0.064,0.357,-0.107l0,0.986c-0.124,0.063,-0.278,0.116,-0.463,0.157c-0.184,0.042,-0.385,0.063,-0.603,0.063c-0.211,0,-0.408,-0.024,-0.59,-0.073c-0.185,-0.05,-0.342,-0.137,-0.476,-0.259c-0.133,-0.123,-0.237,-0.288,-0.313,-0.495c-0.077,-0.208,-0.114,-0.468,-0.114,-0.781L157.422,161.511l-0.636,0L156.786,160.95l0.729,-0.443l0.383,-1.024l0.848,0l0,1.034l1.184,0l0,0.995l-1.184,0l0,2.343c0,0.188,0.048,0.327,0.141,0.417C158.98,164.361,159.102,164.406,159.253,164.406z"/>
   <path fill="#8C8C8C"  stroke-width="0" d="M164.126,165.375L160.553,165.375l0,-0.781l1.985,-3.064l-1.853,0L160.685,160.516l3.355,0l0,0.859l-1.92,2.985l2.004,0L164.126,165.375L164.126,165.375z"/>
   <path fill="#8C8C8C"  stroke-width="0" d="M165.065,159.26c0,-0.125,0.02,-0.228,0.057,-0.311c0.038,-0.084,0.09,-0.15,0.153,-0.2c0.065,-0.051,0.144,-0.086,0.23,-0.106s0.182,-0.03,0.28,-0.03c0.098,0,0.19,0.01,0.277,0.03c0.088,0.02,0.164,0.055,0.229,0.106c0.064,0.05,0.117,0.116,0.156,0.2c0.038,0.083,0.059,0.186,0.059,0.311c0,0.122,-0.021,0.225,-0.059,0.309c-0.039,0.084,-0.092,0.151,-0.156,0.203c-0.064,0.05,-0.143,0.086,-0.229,0.108c-0.086,0.021,-0.18,0.032,-0.277,0.032c-0.099,0,-0.192,-0.012,-0.28,-0.032c-0.088,-0.021,-0.165,-0.059,-0.23,-0.108c-0.063,-0.051,-0.115,-0.119,-0.153,-0.203C165.084,159.485,165.065,159.382,165.065,159.26zM166.447,165.375L165.123,165.375L165.123,160.516l1.324,0L166.447,165.375z"/>
   <path fill="#8C8C8C"  stroke-width="0" d="M172.097,165.375L170.773,165.375l0,-2.839c0,-0.351,-0.053,-0.613,-0.158,-0.787c-0.105,-0.176,-0.274,-0.265,-0.508,-0.265c-0.173,0,-0.317,0.035,-0.434,0.104c-0.116,0.07,-0.209,0.173,-0.276,0.31c-0.066,0.136,-0.115,0.304,-0.146,0.504c-0.029,0.2,-0.043,0.429,-0.043,0.687l0,2.286L167.883,165.375L167.883,160.516l1.012,0l0.181,0.621l0.073,0c0.069,-0.124,0.153,-0.23,0.253,-0.321c0.102,-0.089,0.21,-0.163,0.328,-0.221s0.245,-0.103,0.378,-0.128c0.136,-0.028,0.271,-0.043,0.409,-0.043c0.237,0,0.454,0.033,0.647,0.104c0.194,0.067,0.36,0.174,0.5,0.318c0.141,0.146,0.247,0.328,0.321,0.555c0.075,0.225,0.113,0.492,0.113,0.807l0,3.168L172.097,165.375L172.097,165.375z"/>
   <path fill="#8C8C8C"  stroke-width="0" d="M177.527,160.525l0,0.722l-0.708,0.221c0.059,0.1,0.1,0.201,0.122,0.308c0.021,0.106,0.033,0.22,0.033,0.343c0,0.246,-0.039,0.471,-0.116,0.676c-0.078,0.203,-0.193,0.379,-0.349,0.522c-0.152,0.146,-0.346,0.258,-0.578,0.337c-0.23,0.08,-0.5,0.119,-0.808,0.119c-0.067,0,-0.141,-0.003,-0.218,-0.012c-0.078,-0.007,-0.137,-0.015,-0.175,-0.021c-0.057,0.049,-0.104,0.101,-0.137,0.152c-0.033,0.054,-0.049,0.117,-0.049,0.193c0,0.061,0.018,0.108,0.056,0.146s0.087,0.065,0.147,0.087c0.06,0.022,0.133,0.036,0.214,0.044s0.165,0.012,0.251,0.012l0.756,0c0.236,0,0.446,0.025,0.631,0.081c0.186,0.055,0.342,0.135,0.472,0.246c0.129,0.109,0.229,0.249,0.299,0.419c0.069,0.169,0.104,0.372,0.104,0.605c0,0.275,-0.054,0.523,-0.164,0.745c-0.109,0.224,-0.274,0.41,-0.494,0.565c-0.219,0.154,-0.488,0.273,-0.813,0.355c-0.324,0.082,-0.699,0.123,-1.126,0.123c-0.329,0,-0.618,-0.031,-0.864,-0.094c-0.247,-0.063,-0.451,-0.15,-0.617,-0.27c-0.165,-0.116,-0.288,-0.258,-0.371,-0.424c-0.084,-0.164,-0.125,-0.353,-0.125,-0.561c0,-0.177,0.031,-0.33,0.093,-0.46c0.061,-0.131,0.143,-0.243,0.243,-0.336c0.102,-0.093,0.218,-0.168,0.347,-0.227c0.129,-0.058,0.262,-0.103,0.396,-0.134c-0.061,-0.026,-0.12,-0.063,-0.181,-0.109c-0.059,-0.047,-0.113,-0.1,-0.161,-0.159c-0.047,-0.063,-0.086,-0.129,-0.116,-0.203c-0.031,-0.072,-0.047,-0.15,-0.047,-0.23c0,-0.093,0.015,-0.178,0.04,-0.252c0.029,-0.076,0.068,-0.146,0.12,-0.212c0.052,-0.064,0.117,-0.126,0.196,-0.184c0.078,-0.06,0.166,-0.117,0.264,-0.18c-0.254,-0.11,-0.456,-0.287,-0.604,-0.53c-0.15,-0.244,-0.225,-0.529,-0.225,-0.859c0,-0.26,0.04,-0.494,0.121,-0.699c0.081,-0.207,0.2,-0.381,0.356,-0.523c0.155,-0.144,0.35,-0.252,0.582,-0.328c0.231,-0.076,0.499,-0.113,0.801,-0.113c0.057,0,0.122,0.004,0.194,0.012s0.145,0.018,0.216,0.025c0.07,0.01,0.137,0.021,0.196,0.033c0.061,0.01,0.109,0.021,0.146,0.029L177.527,160.525L177.527,160.525zM174.05,166.062c0,0.073,0.017,0.145,0.047,0.211c0.03,0.068,0.08,0.129,0.15,0.182c0.068,0.052,0.16,0.094,0.272,0.124c0.113,0.03,0.252,0.046,0.417,0.046c0.452,0,0.792,-0.063,1.021,-0.191c0.229,-0.127,0.343,-0.298,0.343,-0.514c0,-0.183,-0.07,-0.304,-0.213,-0.364c-0.143,-0.06,-0.361,-0.091,-0.66,-0.091l-0.613,0c-0.077,0,-0.162,0.009,-0.252,0.027c-0.09,0.018,-0.172,0.052,-0.248,0.099c-0.075,0.046,-0.139,0.108,-0.188,0.184S174.05,165.947,174.05,166.062zM174.529,162.107c0,0.263,0.049,0.468,0.147,0.612c0.098,0.146,0.248,0.217,0.447,0.217c0.209,0,0.358,-0.07,0.451,-0.217c0.094,-0.145,0.14,-0.35,0.14,-0.612c0,-0.261,-0.046,-0.468,-0.137,-0.622c-0.092,-0.152,-0.243,-0.229,-0.454,-0.229C174.726,161.255,174.529,161.538,174.529,162.107z"/>
   <path fill="#8C8C8C"  stroke-width="0" d="M178.277,164.754c0,-0.136,0.02,-0.251,0.059,-0.346c0.04,-0.095,0.094,-0.172,0.163,-0.229c0.069,-0.058,0.149,-0.101,0.244,-0.126c0.092,-0.026,0.191,-0.039,0.299,-0.039c0.102,0,0.198,0.013,0.289,0.039c0.092,0.025,0.172,0.068,0.242,0.126c0.068,0.057,0.123,0.134,0.163,0.229c0.041,0.095,0.062,0.21,0.062,0.346c0,0.13,-0.021,0.242,-0.062,0.335c-0.04,0.093,-0.095,0.17,-0.163,0.229c-0.07,0.062,-0.15,0.104,-0.242,0.133c-0.091,0.027,-0.188,0.042,-0.289,0.042c-0.106,0,-0.207,-0.015,-0.299,-0.042c-0.095,-0.027,-0.175,-0.071,-0.244,-0.133c-0.069,-0.061,-0.123,-0.138,-0.163,-0.229C178.295,164.996,178.277,164.884,178.277,164.754z"/>
   <path fill="#8C8C8C"  stroke-width="0" d="M185.236,162.936c0,0.406,-0.052,0.767,-0.153,1.079c-0.104,0.313,-0.251,0.576,-0.443,0.79c-0.192,0.215,-0.428,0.378,-0.704,0.489c-0.277,0.111,-0.587,0.167,-0.933,0.167c-0.321,0,-0.617,-0.056,-0.886,-0.167c-0.271,-0.112,-0.503,-0.274,-0.698,-0.489c-0.195,-0.214,-0.35,-0.479,-0.458,-0.79c-0.11,-0.313,-0.165,-0.673,-0.165,-1.079c0,-0.402,0.051,-0.76,0.154,-1.072c0.103,-0.314,0.25,-0.576,0.442,-0.789C181.584,160.861,181.818,160.7,182.093,160.591s0.587,-0.164,0.937,-0.164c0.319,0,0.615,0.055,0.886,0.164c0.27,0.111,0.502,0.271,0.695,0.484c0.197,0.213,0.351,0.477,0.459,0.789C185.18,162.176,185.236,162.534,185.236,162.936zM182.15,162.936c0,0.484,0.068,0.851,0.205,1.093c0.137,0.246,0.357,0.368,0.664,0.368c0.306,0,0.524,-0.123,0.66,-0.37c0.137,-0.245,0.205,-0.608,0.205,-1.091s-0.068,-0.846,-0.205,-1.084c-0.136,-0.238,-0.358,-0.357,-0.668,-0.357c-0.305,0,-0.523,0.119,-0.659,0.357C182.217,162.091,182.15,162.454,182.15,162.936z"/>
   <path fill="#8C8C8C"  stroke-width="0" d="M188.956,160.425c0.035,0,0.073,0.002,0.115,0.002c0.042,0.002,0.083,0.006,0.12,0.01c0.04,0.005,0.076,0.009,0.109,0.014c0.033,0.004,0.059,0.01,0.076,0.016l0,1.244c-0.023,-0.008,-0.055,-0.012,-0.095,-0.018c-0.041,-0.007,-0.083,-0.012,-0.13,-0.018c-0.045,-0.004,-0.089,-0.006,-0.132,-0.008c-0.045,-0.002,-0.08,-0.002,-0.108,-0.002c-0.171,0,-0.328,0.021,-0.473,0.064c-0.144,0.043,-0.267,0.113,-0.37,0.211c-0.102,0.098,-0.182,0.225,-0.237,0.383c-0.058,0.157,-0.084,0.352,-0.084,0.581l0,2.474l-1.326,0L186.421,160.516l1.004,0l0.195,0.73l0.065,0c0.068,-0.125,0.146,-0.238,0.226,-0.34c0.081,-0.103,0.172,-0.189,0.271,-0.259c0.101,-0.071,0.213,-0.126,0.339,-0.165C188.65,160.445,188.794,160.425,188.956,160.425z"/>
   <path fill="#8C8C8C"  stroke-width="0" d="M194.264,160.525l0,0.722l-0.708,0.221c0.058,0.1,0.099,0.201,0.121,0.308s0.034,0.22,0.034,0.343c0,0.246,-0.039,0.471,-0.116,0.676c-0.079,0.203,-0.194,0.379,-0.349,0.522c-0.153,0.146,-0.348,0.258,-0.578,0.337c-0.232,0.08,-0.501,0.119,-0.809,0.119c-0.067,0,-0.141,-0.003,-0.219,-0.012c-0.078,-0.007,-0.135,-0.015,-0.173,-0.021c-0.058,0.049,-0.104,0.101,-0.137,0.152c-0.034,0.054,-0.05,0.117,-0.05,0.193c0,0.061,0.019,0.108,0.057,0.146c0.037,0.037,0.086,0.065,0.146,0.087c0.062,0.021,0.133,0.036,0.215,0.044c0.08,0.008,0.164,0.012,0.251,0.012l0.756,0c0.234,0,0.445,0.025,0.63,0.081c0.186,0.055,0.343,0.135,0.472,0.246c0.129,0.109,0.229,0.249,0.298,0.419c0.07,0.169,0.104,0.372,0.104,0.605c0,0.275,-0.054,0.523,-0.165,0.745c-0.109,0.224,-0.275,0.41,-0.493,0.565c-0.219,0.154,-0.489,0.273,-0.815,0.355c-0.323,0.082,-0.698,0.123,-1.125,0.123c-0.329,0,-0.617,-0.031,-0.864,-0.094c-0.246,-0.063,-0.451,-0.15,-0.617,-0.27c-0.164,-0.116,-0.287,-0.258,-0.371,-0.424c-0.083,-0.164,-0.124,-0.353,-0.124,-0.561c0,-0.177,0.03,-0.33,0.091,-0.46c0.063,-0.131,0.144,-0.243,0.244,-0.336c0.103,-0.093,0.217,-0.168,0.346,-0.227c0.129,-0.058,0.263,-0.103,0.398,-0.134c-0.062,-0.026,-0.121,-0.063,-0.182,-0.109c-0.06,-0.047,-0.113,-0.1,-0.16,-0.159c-0.047,-0.063,-0.087,-0.129,-0.117,-0.203c-0.03,-0.073,-0.045,-0.151,-0.045,-0.231c0,-0.093,0.014,-0.178,0.04,-0.252c0.027,-0.076,0.067,-0.146,0.12,-0.212c0.051,-0.064,0.117,-0.126,0.194,-0.184c0.078,-0.06,0.166,-0.117,0.266,-0.18c-0.255,-0.109,-0.456,-0.287,-0.606,-0.529c-0.148,-0.244,-0.223,-0.531,-0.223,-0.861c0,-0.26,0.039,-0.493,0.121,-0.698c0.081,-0.207,0.199,-0.382,0.354,-0.524c0.156,-0.143,0.351,-0.252,0.583,-0.328c0.231,-0.074,0.499,-0.111,0.8,-0.111c0.059,0,0.123,0.003,0.195,0.011s0.146,0.017,0.215,0.026c0.072,0.009,0.138,0.021,0.198,0.031c0.062,0.012,0.108,0.021,0.145,0.03L194.264,160.524L194.264,160.525zM190.788,166.062c0,0.073,0.017,0.145,0.046,0.211c0.031,0.068,0.081,0.129,0.149,0.182c0.07,0.052,0.161,0.094,0.273,0.124c0.114,0.03,0.252,0.046,0.418,0.046c0.451,0,0.792,-0.063,1.021,-0.191c0.229,-0.127,0.343,-0.298,0.343,-0.514c0,-0.183,-0.071,-0.304,-0.214,-0.364s-0.361,-0.091,-0.66,-0.091l-0.612,0c-0.079,0,-0.163,0.009,-0.252,0.027c-0.09,0.019,-0.173,0.052,-0.248,0.099c-0.076,0.046,-0.139,0.108,-0.188,0.184C190.814,165.849,190.788,165.947,190.788,166.062zM191.265,162.107c0,0.263,0.049,0.468,0.148,0.612c0.099,0.146,0.248,0.217,0.447,0.217c0.209,0,0.358,-0.07,0.451,-0.217c0.094,-0.145,0.141,-0.35,0.141,-0.612c0,-0.261,-0.046,-0.468,-0.138,-0.622c-0.092,-0.152,-0.243,-0.229,-0.454,-0.229C191.463,161.255,191.265,161.538,191.265,162.107z"/>
  </g>
  <g  stroke-width="0">
   <path fill="#8C8C8C"  stroke-width="0" d="M139.858,157.645l-8.146,0c-0.532,0,-0.965,0.432,-0.965,0.964l0,8.146c0,0.531,0.433,0.964,0.965,0.964l5.55,0l3.557,-3.558L140.819,158.609C140.822,158.076,140.39,157.645,139.858,157.645zM138.181,161.374l-1.075,0l0,0.401l1.075,0l0,1.601l-2.196,0l0,2.058l-2.572,0l0,-4.67l0.988,-0.99l3.779,0l0,1.603l0.001,0L138.181,161.374z"/>
  </g>
 </g>
 <g id="board" stroke-width="0">
  <path fill="#338040" fill-opacity="0.5" id="boardoutline" stroke-width="0" d="M186.956,36.4096L186.956,4.3672L183.389,0.8008L0.800042,0.8L0.801642,150.501L186.958,150.501L186.958,144.674L195.4,136.232L195.4,43.5456L186.956,36.4096z"/>
  <rect width="118.616" x="65.7823" y="4.60546" stroke-opacity="0.5" fill="none" height="6.4" stroke="#338040" style="stroke-miterlimit:4;stroke-dasharray:none;" fill-opacity="1" id="pinguide1" stroke-width="1.20006"/>
  <rect width="91.8895" x="92.4274" y="141.271" stroke-opacity="0.5" fill="none" height="6.4" stroke="#338040" style="stroke-miterlimit:4;stroke-dasharray:none;" fill-opacity="1" id="pinguide2" stroke-width="1.20006"/>
  <rect width="23.9014" x="1.60008" y="27.5948" stroke-opacity="0.5" fill="none" height="31.9789" stroke="#338040" style="stroke-miterlimit:4;stroke-dasharray:none;" fill-opacity="1" id="usbconnector" stroke-width="1.20006"/>
 </g>
 <g transform="translate(59.284,141.41)">
  <g fill="#ffffff" font-family="'OCRA'" stroke="none" font-style="normal" fill-opacity="1" font-weight="normal" id="silkscreenLabel" font-size="5">
   <text x="0" y="3.75">Arduino1</text>
  </g>
 </g>
 <g transform="translate(65.0094,4.6104)">
  <g  id="copper0" stroke-width="0">
   <circle fill="none" cx="2.484"  cy="2.484" stroke="#FFBF00" id="connector0pin" r="1.98" stroke-width="1.44"/>
   <circle fill="none" cx="9.684"  cy="2.484" stroke="#FFBF00" id="connector1pin" r="1.98" stroke-width="1.44"/>
   <circle fill="none" cx="16.884"  cy="2.484" stroke="#FFBF00" id="connector2pin" r="1.98" stroke-width="1.44"/>
   <circle fill="none" cx="24.084"  cy="2.484" stroke="#FFBF00" id="connector3pin" r="1.98" stroke-width="1.44"/>
   <circle fill="none" cx="31.284"  cy="2.484" stroke="#FFBF00" id="connector4pin" r="1.98" stroke-width="1.44"/>
   <circle fill="none" cx="38.484"  cy="2.484" stroke="#FFBF00" id="connector5pin" r="1.98" stroke-width="1.44"/>
   <circle fill="none" cx="45.684"  cy="2.484" stroke="#FFBF00" id="connector6pin" r="1.98" stroke-width="1.44"/>
   <circle fill="none" cx="52.884"  cy="2.484" stroke="#FFBF00" id="connector7pin" r="1.98" stroke-width="1.44"/>
   <circle fill="none" cx="65.124"  cy="2.484" stroke="#FFBF00" id="connector8pin" r="1.98" stroke-width="1.44"/>
   <circle fill="none" cx="72.324"  cy="2.484" stroke="#FFBF00" id="connector9pin" r="1.98" stroke-width="1.44"/>
   <circle fill="none" cx="79.524"  cy="2.484" stroke="#FFBF00" id="connector10pin" r="1.98" stroke-width="1.44"/>
   <circle fill="none" cx="86.724"  cy="2.484" stroke="#FFBF00" id="connector11pin" r="1.98" stroke-width="1.44"/>
   <circle fill="none" cx="93.924"  cy="2.484" stroke="#FFBF00" id="connector12pin" r="1.98" stroke-width="1.44"/>
   <circle fill="none" cx="101.124"  cy="2.484" stroke="#FFBF00" id="connector13pin" r="1.98" stroke-width="1.44"/>
   <circle fill="none" cx="108.324"  cy="2.484" stroke="#FFBF00" id="connector14pin" r="1.98" stroke-width="1.44"/>
   <circle fill="none" cx="115.524"  cy="2.484" stroke="#FFBF00" id="connector15pin" r="1.98" stroke-width="1.44"/>
   <circle fill="none" cx="29.124"  cy="139.284" stroke="#FFBF00" id="connector16pin" r="1.98" stroke-width="1.44"/>
   <circle fill="none" cx="36.324"  cy="139.284" stroke="#FFBF00" id="connector17pin" r="1.98" stroke-width="1.44"/>
   <circle fill="none" cx="43.524"  cy="139.284" stroke="#FFBF00" id="connector18pin" r="1.98" stroke-width="1.44"/>
   <circle fill="none" cx="50.724"  cy="139.284" stroke="#FFBF00" id="connector19pin" r="1.98" stroke-width="1.44"/>
   <circle fill="none" cx="57.924"  cy="139.284" stroke="#FFBF00" id="connector20pin" r="1.98" stroke-width="1.44"/>
   <circle fill="none" cx="65.124"  cy="139.284" stroke="#FFBF00" id="connector21pin" r="1.98" stroke-width="1.44"/>
   <circle fill="none" cx="79.524"  cy="139.284" stroke="#FFBF00" id="connector22pin" r="1.98" stroke-width="1.44"/>
   <circle fill="none" cx="86.724"  cy="139.284" stroke="#FFBF00" id="connector23pin" r="1.98" stroke-width="1.44"/>
   <circle fill="none" cx="93.924"  cy="139.284" stroke="#FFBF00" id="connector24pin" r="1.98" stroke-width="1.44"/>
   <circle fill="none" cx="101.124"  cy="139.284" stroke="#FFBF00" id="connector25pin" r="1.98" stroke-width="1.44"/>
   <circle fill="none" cx="108.324"  cy="139.284" stroke="#FFBF00" id="connector26pin" r="1.98" stroke-width="1.44"/>
   <circle fill="none" cx="115.524"  cy="139.284" stroke="#FFBF00" id="connector27pin" r="1.98" stroke-width="1.44"/>
  </g>
 </g>
 <g transform="translate(75.474,67.4456)">
  <g fill="#ffffff" font-family="'OCRA'" stroke="none" font-style="normal" fill-opacity="1" font-weight="normal" id="silkscreenLabel" font-size="5">
   <text x="0" y="3.75">Segment2</text>
  </g>
 </g>
 <g transform="translate(72.8074,50.6456)">
  <g  id="copper0" stroke-width="0">
   <g  id="copper1" stroke-width="0">
    <circle fill="none" cx="3.325"  cy="46.449" stroke="#F7BD13" id="connector1pin" r="2.052" stroke-width="1.224"/>
    <rect width="4.104" x="1.272" y="44.397" fill="none"  height="4.104" stroke="#F7BD13" stroke-width="1.224"/>
    <circle fill="none" cx="10.524"  cy="46.449" stroke="#F7BD13" id="connector2pin" r="2.052" stroke-width="1.224"/>
    <circle fill="none" cx="17.726"  cy="46.449" stroke="#F7BD13" id="connector3pin" r="2.052" stroke-width="1.224"/>
    <circle fill="none" cx="24.925"  cy="46.449" stroke="#F7BD13" id="connector4pin" r="2.052" stroke-width="1.224"/>
    <circle fill="none" cx="32.045"  cy="46.446" stroke="#F7BD13" id="connector5pin" r="2.052" stroke-width="1.224"/>
    <circle fill="none" cx="10.625"  cy="3.249" stroke="#F7BD13" id="connector9pin" r="2.052" stroke-width="1.224"/>
    <circle fill="none" cx="17.826"  cy="3.249" stroke="#F7BD13" id="connector8pin" r="2.052" stroke-width="1.224"/>
    <circle fill="none" cx="25.025"  cy="3.249" stroke="#F7BD13" id="connector7pin" r="2.052" stroke-width="1.224"/>
    <circle fill="none" cx="32.146"  cy="3.246" stroke="#F7BD13" id="connector6pin" r="2.052" stroke-width="1.224"/>
    <circle fill="none" cx="3.401"  cy="3.219" stroke="#F7BD13" id="connector10pin" r="2.052" stroke-width="1.224"/>
   </g>
  </g>
 </g>
 <g transform="translate(41.074,73.5784)">
  <g fill="#ffffff" font-family="'OCRA'" stroke="none" font-style="normal" fill-opacity="1" font-weight="normal" id="silkscreenLabel" font-size="5">
   <text x="0" y="3.75">Segment1</text>
  </g>
 </g>
 <g transform="translate(36.8074,50.6456)">
  <g  id="copper0" stroke-width="0">
   <g  id="copper1" stroke-width="0">
    <circle fill="none" cx="3.325"  cy="46.449" stroke="#F7BD13" id="connector1pin" r="2.052" stroke-width="1.224"/>
    <rect width="4.104" x="1.272" y="44.397" fill="none"  height="4.104" stroke="#F7BD13" stroke-width="1.224"/>
    <circle fill="none" cx="10.524"  cy="46.449" stroke="#F7BD13" id="connector2pin" r="2.052" stroke-width="1.224"/>
    <circle fill="none" cx="17.726"  cy="46.449" stroke="#F7BD13" id="connector3pin" r="2.052" stroke-width="1.224"/>
    <circle fill="none" cx="24.925"  cy="46.449" stroke="#F7BD13" id="connector4pin" r="2.052" stroke-width="1.224"/>
    <circle fill="none" cx="32.045"  cy="46.446" stroke="#F7BD13" id="connector5pin" r="2.052" stroke-width="1.224"/>
    <circle fill="none" cx="10.625"  cy="3.249" stroke="#F7BD13" id="connector9pin" r="2.052" stroke-width="1.224"/>
    <circle fill="none" cx="17.826"  cy="3.249" stroke="#F7BD13" id="connector8pin" r="2.052" stroke-width="1.224"/>
    <circle fill="none" cx="25.025"  cy="3.249" stroke="#F7BD13" id="connector7pin" r="2.052" stroke-width="1.224"/>
    <circle fill="none" cx="32.146"  cy="3.246" stroke="#F7BD13" id="connector6pin" r="2.052" stroke-width="1.224"/>
    <circle fill="none" cx="3.401"  cy="3.219" stroke="#F7BD13" id="connector10pin" r="2.052" stroke-width="1.224"/>
   </g>
  </g>
 </g>
 <g transform="translate(160.787,29.1528)">
  <g fill="#ffffff" font-family="'OCRA'" stroke="none" font-style="normal" fill-opacity="1" font-weight="normal" id="silkscreenLabel" font-size="5">
   <text x="0" y="3.75">Q4</text>
  </g>
 </g>
 <g transform="translate(144.533,31.2864)">
  <g  id="copper0" stroke-width="0">
   <rect width="3.96" x="16.02" y="6.228" fill="none"  height="3.96" stroke="#ffbf00" id="rect10" stroke-width="1.44"/>
   <circle fill="none" cx="3.6"  cy="8.208" stroke="#ffbf00" id="connector0pin" r="1.98" stroke-width="1.44"/>
   <circle fill="none" cx="10.8"  cy="8.208" stroke="#ffbf00" id="connector1pin" r="1.98" stroke-width="1.44"/>
   <circle fill="none" cx="18"  cy="8.208" stroke="#ffbf00" id="connector2pin" r="1.98" stroke-width="1.44"/>
  </g>
 </g>
 <g transform="translate(141.853,73.1528)">
  <g fill="#ffffff" font-family="'OCRA'" stroke="none" font-style="normal" fill-opacity="1" font-weight="normal" id="silkscreenLabel" font-size="5">
   <text x="0" y="3.75">Q3</text>
  </g>
 </g>
 <g transform="translate(122.933,60.0864)">
  <g  id="copper0" stroke-width="0">
   <rect width="3.96" x="16.02" y="6.228" fill="none"  height="3.96" stroke="#ffbf00" id="rect10" stroke-width="1.44"/>
   <circle fill="none" cx="3.6"  cy="8.208" stroke="#ffbf00" id="connector0pin" r="1.98" stroke-width="1.44"/>
   <circle fill="none" cx="10.8"  cy="8.208" stroke="#ffbf00" id="connector1pin" r="1.98" stroke-width="1.44"/>
   <circle fill="none" cx="18"  cy="8.208" stroke="#ffbf00" id="connector2pin" r="1.98" stroke-width="1.44"/>
  </g>
 </g>
 <g transform="translate(24.6534,68.8864)">
  <g fill="#ffffff" font-family="'OCRA'" stroke="none" font-style="normal" fill-opacity="1" font-weight="normal" id="silkscreenLabel" font-size="5">
   <text x="0" y="3.75">Q2</text>
  </g>
 </g>
 <g transform="translate(24.6534,91.4064)">
  <g transform="matrix(-1,0,0,-1,0,0)">
   <g  id="copper0" stroke-width="0">
    <rect width="3.96" x="16.02" y="6.228" fill="none"  height="3.96" stroke="#ffbf00" id="rect10" stroke-width="1.44"/>
    <circle fill="none" cx="3.6"  cy="8.208" stroke="#ffbf00" id="connector0pin" r="1.98" stroke-width="1.44"/>
    <circle fill="none" cx="10.8"  cy="8.208" stroke="#ffbf00" id="connector1pin" r="1.98" stroke-width="1.44"/>
    <circle fill="none" cx="18"  cy="8.208" stroke="#ffbf00" id="connector2pin" r="1.98" stroke-width="1.44"/>
   </g>
  </g>
 </g>
 <g transform="translate(44.3787,33.8408)">
  <g fill="#ffffff" font-family="'OCRA'" stroke="none" font-style="normal" fill-opacity="1" font-weight="normal" id="silkscreenLabel" font-size="5">
   <text x="0" y="3.75">Q1</text>
  </g>
 </g>
 <g transform="translate(49.9254,39.4944)">
  <g transform="matrix(0,-1,1,0,0,0)">
   <g  id="copper0" stroke-width="0">
    <rect width="3.96" x="16.02" y="6.228" fill="none"  height="3.96" stroke="#ffbf00" id="rect10" stroke-width="1.44"/>
    <circle fill="none" cx="3.6"  cy="8.208" stroke="#ffbf00" id="connector0pin" r="1.98" stroke-width="1.44"/>
    <circle fill="none" cx="10.8"  cy="8.208" stroke="#ffbf00" id="connector1pin" r="1.98" stroke-width="1.44"/>
    <circle fill="none" cx="18"  cy="8.208" stroke="#ffbf00" id="connector2pin" r="1.98" stroke-width="1.44"/>
   </g>
  </g>
 </g>
 <g transform="translate(138.833,16.932)">
  <g fill="#ffffff" font-family="'OCRA'" stroke="none" font-style="normal" fill-opacity="1" font-weight="normal" id="silkscreenLabel" font-size="5">
   <text x="0" y="3.75">R3</text>
  </g>
 </g>
 <g transform="translate(123.833,21.9984)">
  <g  id="copper0" stroke-width="0">
   <g  id="copper1" stroke-width="0">
    <rect width="3.96" x="0.72" y="1.116" fill="none"  height="3.96" stroke="rgb(255, 191, 0)" stroke-width="1.44"/>
    <circle fill="none" cx="2.7"  cy="3.096" stroke="rgb(255, 191, 0)" r="1.98" id="connector0pin" stroke-width="1.44"/>
    <circle fill="none" cx="31.5"  cy="3.096" stroke="rgb(255, 191, 0)" r="1.98" id="connector1pin" stroke-width="1.44"/>
   </g>
  </g>
 </g>
 <g transform="translate(83.1,21.332)">
  <g fill="#ffffff" font-family="'OCRA'" stroke="none" font-style="normal" fill-opacity="1" font-weight="normal" id="silkscreenLabel" font-size="5">
   <text x="0" y="3.75">R1</text>
  </g>
 </g>
 <g transform="translate(66.2334,25.5984)">
  <g  id="copper0" stroke-width="0">
   <g  id="copper1" stroke-width="0">
    <rect width="3.96" x="0.72" y="1.116" fill="none"  height="3.96" stroke="rgb(255, 191, 0)" stroke-width="1.44"/>
    <circle fill="none" cx="2.7"  cy="3.096" stroke="rgb(255, 191, 0)" r="1.98" id="connector0pin" stroke-width="1.44"/>
    <circle fill="none" cx="31.5"  cy="3.096" stroke="rgb(255, 191, 0)" r="1.98" id="connector1pin" stroke-width="1.44"/>
   </g>
  </g>
 </g>
 <g transform="translate(133.9,49.332)">
  <g fill="#ffffff" font-family="'OCRA'" stroke="none" font-style="normal" fill-opacity="1" font-weight="normal" id="silkscreenLabel" font-size="5">
   <text x="0" y="3.75">R4</text>
  </g>
 </g>
 <g transform="translate(154.433,60.5904)">
  <g transform="matrix(-1,0,0,-1,0,0)">
   <g  id="copper0" stroke-width="0">
    <g  id="copper1" stroke-width="0">
     <rect width="3.96" x="0.72" y="1.116" fill="none"  height="3.96" stroke="rgb(255, 191, 0)" stroke-width="1.44"/>
     <circle fill="none" cx="2.7"  cy="3.096" stroke="rgb(255, 191, 0)" r="1.98" id="connector0pin" stroke-width="1.44"/>
     <circle fill="none" cx="31.5"  cy="3.096" stroke="rgb(255, 191, 0)" r="1.98" id="connector1pin" stroke-width="1.44"/>
    </g>
   </g>
  </g>
 </g>
 <g transform="translate(28.3,13.5984)">
  <g fill="#ffffff" font-family="'OCRA'" stroke="none" font-style="normal" fill-opacity="1" font-weight="normal" id="silkscreenLabel" font-size="5">
   <text x="0" y="3.75">R2</text>
  </g>
 </g>
 <g transform="translate(46.4334,24.5904)">
  <g transform="matrix(-1,0,0,-1,0,0)">
   <g  id="copper0" stroke-width="0">
    <g  id="copper1" stroke-width="0">
     <rect width="3.96" x="0.72" y="1.116" fill="none"  height="3.96" stroke="rgb(255, 191, 0)" stroke-width="1.44"/>
     <circle fill="none" cx="2.7"  cy="3.096" stroke="rgb(255, 191, 0)" r="1.98" id="connector0pin" stroke-width="1.44"/>
     <circle fill="none" cx="31.5"  cy="3.096" stroke="rgb(255, 191, 0)" r="1.98" id="connector1pin" stroke-width="1.44"/>
    </g>
   </g>
  </g>
 </g>
 <g transform="translate(169.774,68.192)">
  <g fill="#ffffff" font-family="'OCRA'" stroke="none" font-style="normal" fill-opacity="1" font-weight="normal" id="silkscreenLabel" font-size="5">
   <text x="0" y="3.75">RE1</text>
  </g>
 </g>
 <g transform="translate(134.856,85.2168)">
  <g fill="#ffffff" font-family="'OCRA'" stroke="none" font-style="normal" fill-opacity="1" font-weight="normal" id="silkscreenLabel" font-size="5">
   <text x="0" y="3.75">S1</text>
  </g>
 </g>
 <g transform="translate(140.179,91.0737)">
  <g transform="matrix(0,1,-1,0,0,0)">
   <g  id="copper0" stroke-width="0">
    <circle fill="none" cx="20.8462"  cy="15.6024" stroke="rgb(255, 191, 0)" id="connector0pad" r="1.98" stroke-width="1.44"/>
    <circle fill="none" cx="2.42064"  cy="15.6024" stroke="rgb(255, 191, 0)" id="connector1pad" r="1.98" stroke-width="1.44"/>
    <circle fill="none" cx="20.8462"  cy="2.84616" stroke="rgb(255, 191, 0)" id="connector2pad" r="1.98" stroke-width="1.44"/>
    <circle fill="none" cx="2.42064"  cy="2.84616" stroke="rgb(255, 191, 0)" id="connector3pad" r="1.98" stroke-width="1.44"/>
   </g>
  </g>
 </g>
 <g transform="translate(159.5,62.528)">
  <g fill="#ffffff" font-family="'OCRA'" stroke="none" font-style="normal" fill-opacity="1" font-weight="normal" id="silkscreenLabel" font-size="5">
   <text x="0" y="3.75">R5</text>
  </g>
 </g>
 <g transform="translate(174.833,36.7944)">
  <g transform="matrix(0,1,-1,0,0,0)">
   <g  id="copper0" stroke-width="0">
    <g  id="copper1" stroke-width="0">
     <rect width="3.96" x="0.72" y="0.72" fill="none"  height="3.96" stroke="rgb(255, 191, 0)" stroke-width="1.44"/>
     <circle fill="none" cx="2.7"  cy="2.7" stroke="rgb(255, 191, 0)" r="1.98" id="connector0pin" stroke-width="1.44"/>
     <circle fill="none" cx="24.3"  cy="2.7" stroke="rgb(255, 191, 0)" r="1.98" id="connector1pin" stroke-width="1.44"/>
    </g>
   </g>
  </g>
 </g>
 <g transform="translate(44.6334,79.9944)">
  <g  id="copper0" stroke-width="0">
   <circle fill="none" cx="2.7"  cy="2.7" stroke="#F28A00" r="1.98" id="connector0pin" stroke-width="1.44"/>
   <circle fill="black" cx="2.7"  cy="2.7" drill="0" r="1.26" stroke-width="0"/>
  </g>
 </g>
 <line stroke="#f28a00" stroke-linecap="round" y1="111.92" x1="139.393" y2="111.92" stroke-width="1.728" x2="151.733"/>
 <line stroke="#f28a00" stroke-linecap="round" y1="99.9712" x1="151.733" y2="99.9712" stroke-width="1.728" x2="172.133"/>
 <line stroke="#f28a00" stroke-linecap="round" y1="111.92" x1="151.733" y2="99.9713" stroke-width="1.728" x2="151.733"/>
 <line stroke="#f28a00" stroke-linecap="round" y1="99.9712" x1="172.133" y2="63.1543" stroke-width="1.728" x2="172.133"/>
 <line stroke="#f28a00" stroke-linecap="round" y1="141.834" x1="144.533" y2="134.336" stroke-width="1.728" x2="144.533"/>
 <line stroke="#f28a00" stroke-linecap="round" y1="134.336" x1="144.533" y2="134.336" stroke-width="1.728" x2="174.935"/>
 <line stroke="#f28a00" stroke-linecap="round" y1="134.336" x1="174.935" y2="114.653" stroke-width="1.728" x2="174.935"/>
 <line stroke="#f28a00" stroke-linecap="round" y1="113.98" x1="124.577" y2="125.761" stroke-width="1.728" x2="124.577"/>
 <line stroke="#f28a00" stroke-linecap="round" y1="125.761" x1="124.577" y2="125.761" stroke-width="1.728" x2="108.534"/>
 <line stroke="#f28a00" stroke-linecap="round" y1="125.761" x1="108.533" y2="141.834" stroke-width="1.728" x2="108.533"/>
 <line stroke="#f28a00" stroke-linecap="round" y1="14.2944" x1="112.267" y2="75.6278" stroke-width="1.728" x2="112.267"/>
 <line stroke="#f28a00" stroke-linecap="round" y1="9.10691" x1="111.133" y2="14.2944" stroke-width="1.728" x2="112.267"/>
 <line stroke="#f28a00" stroke-linecap="round" y1="75.628" x1="112.267" y2="75.628" stroke-width="1.728" x2="97.7326"/>
 <line stroke="#f28a00" stroke-linecap="round" y1="75.628" x1="97.7326" y2="94.8546" stroke-width="1.728" x2="97.7326"/>
 <line stroke="#f28a00" stroke-linecap="round" y1="51.6544" x1="83.4429" y2="46.561" stroke-width="1.728" x2="83.4667"/>
 <line stroke="#f28a00" stroke-linecap="round" y1="46.5608" x1="83.4667" y2="46.8275" stroke-width="1.728" x2="47.4667"/>
 <line stroke="#f28a00" stroke-linecap="round" y1="46.828" x1="47.4667" y2="51.6547" stroke-width="1.728" x2="47.4433"/>
 <line stroke="#f28a00" stroke-linecap="round" y1="99.3308" x1="104.897" y2="107.894" stroke-width="1.728" x2="105.067"/>
 <line stroke="#f28a00" stroke-linecap="round" y1="107.894" x1="105.067" y2="107.894" stroke-width="1.728" x2="68.8526"/>
 <line stroke="#f28a00" stroke-linecap="round" y1="107.894" x1="68.8524" y2="99.3314" stroke-width="1.728" x2="68.8524"/>
 <line stroke="#f28a00" stroke-linecap="round" y1="9.1544" x1="117.893" y2="97.0912" stroke-width="1.728" x2="117.893"/>
 <line stroke="#f28a00" stroke-linecap="round" y1="97.0912" x1="117.893" y2="97.0912" stroke-width="1.728" x2="107.092"/>
 <line stroke="#f28a00" stroke-linecap="round" y1="9.1544" x1="103.493" y2="25.0944" stroke-width="1.728" x2="103.493"/>
 <line stroke="#f28a00" stroke-linecap="round" y1="25.0944" x1="103.493" y2="27.6026" stroke-width="1.728" x2="99.4802"/>
 <line stroke="#f28a00" stroke-linecap="round" y1="94.8548" x1="83.3727" y2="89.7611" stroke-width="1.728" x2="83.4667"/>
 <line stroke="#f28a00" stroke-linecap="round" y1="89.7608" x1="83.4667" y2="89.7608" stroke-width="1.728" x2="47.4667"/>
 <line stroke="#f28a00" stroke-linecap="round" y1="89.7608" x1="47.4667" y2="94.8545" stroke-width="1.728" x2="47.3727"/>
 <line stroke="#f28a00" stroke-linecap="round" y1="97.0944" x1="37.8924" y2="97.0944" stroke-width="1.728" x2="33.0667"/>
 <line stroke="#f28a00" stroke-linecap="round" y1="97.0944" x1="33.0667" y2="14.2944" stroke-width="1.728" x2="33.0667"/>
 <line stroke="#f28a00" stroke-linecap="round" y1="14.2944" x1="33.0667" y2="14.2944" stroke-width="1.728" x2="89.0934"/>
 <line stroke="#f28a00" stroke-linecap="round" y1="14.2944" x1="89.0934" y2="9.1544" stroke-width="1.728" x2="89.0934"/>
 <line stroke="#f28a00" stroke-linecap="round" y1="9.1544" x1="130.133" y2="25.0944" stroke-width="1.728" x2="130.133"/>
 <line stroke="#f28a00" stroke-linecap="round" y1="25.0944" x1="130.133" y2="25.0944" stroke-width="1.728" x2="128.593"/>
 <line stroke="#f28a00" stroke-linecap="round" y1="41.5544" x1="162.533" y2="82.561" stroke-width="1.728" x2="162.533"/>
 <line stroke="#f28a00" stroke-linecap="round" y1="82.5608" x1="162.533" y2="82.5608" stroke-width="1.728" x2="130.133"/>
 <line stroke="#f28a00" stroke-linecap="round" y1="82.5608" x1="130.133" y2="133.227" stroke-width="1.728" x2="130.133"/>
 <line stroke="#f28a00" stroke-linecap="round" y1="133.228" x1="130.133" y2="133.228" stroke-width="1.728" x2="115.733"/>
 <line stroke="#f28a00" stroke-linecap="round" y1="133.228" x1="115.733" y2="141.835" stroke-width="1.728" x2="115.733"/>
 <line stroke="#f28a00" stroke-linecap="round" y1="56.1344" x1="97.8397" y2="64.6944" stroke-width="1.728" x2="97.8669"/>
 <line stroke="#f28a00" stroke-linecap="round" y1="64.6944" x1="97.867" y2="64.6944" stroke-width="1.728" x2="61.867"/>
 <line stroke="#f28a00" stroke-linecap="round" y1="64.6944" x1="61.8667" y2="56.1344" stroke-width="1.728" x2="61.8395"/>
 <line stroke="#f28a00" stroke-linecap="round" y1="99.3344" x1="54.5334" y2="111.628" stroke-width="1.728" x2="54.5334"/>
 <line stroke="#f28a00" stroke-linecap="round" y1="111.628" x1="54.5334" y2="111.628" stroke-width="1.728" x2="21.0534"/>
 <line stroke="#f28a00" stroke-linecap="round" y1="111.628" x1="21.0534" y2="85.2586" stroke-width="1.728" x2="21.0534"/>
 <line stroke="#f28a00" stroke-linecap="round" y1="84.754" x1="47.3722" y2="89.7611" stroke-width="1.728" x2="47.4667"/>
 <g transform="translate(65.0094,4.6104)">
  <g  id="copper1" stroke-width="0">
   <g  id="copper0" stroke-width="0">
    <circle fill="none" cx="2.484"  cy="2.484" stroke="#FFBF00" id="connector0pin" r="1.98" stroke-width="1.44"/>
    <circle fill="none" cx="9.684"  cy="2.484" stroke="#FFBF00" id="connector1pin" r="1.98" stroke-width="1.44"/>
    <circle fill="none" cx="16.884"  cy="2.484" stroke="#FFBF00" id="connector2pin" r="1.98" stroke-width="1.44"/>
    <circle fill="none" cx="24.084"  cy="2.484" stroke="#FFBF00" id="connector3pin" r="1.98" stroke-width="1.44"/>
    <circle fill="none" cx="31.284"  cy="2.484" stroke="#FFBF00" id="connector4pin" r="1.98" stroke-width="1.44"/>
    <circle fill="none" cx="38.484"  cy="2.484" stroke="#FFBF00" id="connector5pin" r="1.98" stroke-width="1.44"/>
    <circle fill="none" cx="45.684"  cy="2.484" stroke="#FFBF00" id="connector6pin" r="1.98" stroke-width="1.44"/>
    <circle fill="none" cx="52.884"  cy="2.484" stroke="#FFBF00" id="connector7pin" r="1.98" stroke-width="1.44"/>
    <circle fill="none" cx="65.124"  cy="2.484" stroke="#FFBF00" id="connector8pin" r="1.98" stroke-width="1.44"/>
    <circle fill="none" cx="72.324"  cy="2.484" stroke="#FFBF00" id="connector9pin" r="1.98" stroke-width="1.44"/>
    <circle fill="none" cx="79.524"  cy="2.484" stroke="#FFBF00" id="connector10pin" r="1.98" stroke-width="1.44"/>
    <circle fill="none" cx="86.724"  cy="2.484" stroke="#FFBF00" id="connector11pin" r="1.98" stroke-width="1.44"/>
    <circle fill="none" cx="93.924"  cy="2.484" stroke="#FFBF00" id="connector12pin" r="1.98" stroke-width="1.44"/>
    <circle fill="none" cx="101.124"  cy="2.484" stroke="#FFBF00" id="connector13pin" r="1.98" stroke-width="1.44"/>
    <circle fill="none" cx="108.324"  cy="2.484" stroke="#FFBF00" id="connector14pin" r="1.98" stroke-width="1.44"/>
    <circle fill="none" cx="115.524"  cy="2.484" stroke="#FFBF00" id="connector15pin" r="1.98" stroke-width="1.44"/>
    <circle fill="none" cx="29.124"  cy="139.284" stroke="#FFBF00" id="connector16pin" r="1.98" stroke-width="1.44"/>
    <circle fill="none" cx="36.324"  cy="139.284" stroke="#FFBF00" id="connector17pin" r="1.98" stroke-width="1.44"/>
    <circle fill="none" cx="43.524"  cy="139.284" stroke="#FFBF00" id="connector18pin" r="1.98" stroke-width="1.44"/>
    <circle fill="none" cx="50.724"  cy="139.284" stroke="#FFBF00" id="connector19pin" r="1.98" stroke-width="1.44"/>
    <circle fill="none" cx="57.924"  cy="139.284" stroke="#FFBF00" id="connector20pin" r="1.98" stroke-width="1.44"/>
    <circle fill="none" cx="65.124"  cy="139.284" stroke="#FFBF00" id="connector21pin" r="1.98" stroke-width="1.44"/>
    <circle fill="none" cx="79.524"  cy="139.284" stroke="#FFBF00" id="connector22pin" r="1.98" stroke-width="1.44"/>
    <circle fill="none" cx="86.724"  cy="139.284" stroke="#FFBF00" id="connector23pin" r="1.98" stroke-width="1.44"/>
    <circle fill="none" cx="93.924"  cy="139.284" stroke="#FFBF00" id="connector24pin" r="1.98" stroke-width="1.44"/>
    <circle fill="none" cx="101.124"  cy="139.284" stroke="#FFBF00" id="connector25pin" r="1.98" stroke-width="1.44"/>
    <circle fill="none" cx="108.324"  cy="139.284" stroke="#FFBF00" id="connector26pin" r="1.98" stroke-width="1.44"/>
    <circle fill="none" cx="115.524"  cy="139.284" stroke="#FFBF00" id="connector27pin" r="1.98" stroke-width="1.44"/>
   </g>
  </g>
 </g>
 <g transform="translate(72.8074,50.6456)">
  <g  id="copper1" stroke-width="0">
   <circle fill="none" cx="3.325"  cy="46.449" stroke="#F7BD13" id="connector1pin" r="2.052" stroke-width="1.224"/>
   <rect width="4.104" x="1.272" y="44.397" fill="none"  height="4.104" stroke="#F7BD13" stroke-width="1.224"/>
   <circle fill="none" cx="10.524"  cy="46.449" stroke="#F7BD13" id="connector2pin" r="2.052" stroke-width="1.224"/>
   <circle fill="none" cx="17.726"  cy="46.449" stroke="#F7BD13" id="connector3pin" r="2.052" stroke-width="1.224"/>
   <circle fill="none" cx="24.925"  cy="46.449" stroke="#F7BD13" id="connector4pin" r="2.052" stroke-width="1.224"/>
   <circle fill="none" cx="32.045"  cy="46.446" stroke="#F7BD13" id="connector5pin" r="2.052" stroke-width="1.224"/>
   <circle fill="none" cx="10.625"  cy="3.249" stroke="#F7BD13" id="connector9pin" r="2.052" stroke-width="1.224"/>
   <circle fill="none" cx="17.826"  cy="3.249" stroke="#F7BD13" id="connector8pin" r="2.052" stroke-width="1.224"/>
   <circle fill="none" cx="25.025"  cy="3.249" stroke="#F7BD13" id="connector7pin" r="2.052" stroke-width="1.224"/>
   <circle fill="none" cx="32.146"  cy="3.246" stroke="#F7BD13" id="connector6pin" r="2.052" stroke-width="1.224"/>
   <circle fill="none" cx="3.401"  cy="3.219" stroke="#F7BD13" id="connector10pin" r="2.052" stroke-width="1.224"/>
  </g>
 </g>
 <g transform="translate(36.8074,50.6456)">
  <g  id="copper1" stroke-width="0">
   <circle fill="none" cx="3.325"  cy="46.449" stroke="#F7BD13" id="connector1pin" r="2.052" stroke-width="1.224"/>
   <rect width="4.104" x="1.272" y="44.397" fill="none"  height="4.104" stroke="#F7BD13" stroke-width="1.224"/>
   <circle fill="none" cx="10.524"  cy="46.449" stroke="#F7BD13" id="connector2pin" r="2.052" stroke-width="1.224"/>
   <circle fill="none" cx="17.726"  cy="46.449" stroke="#F7BD13" id="connector3pin" r="2.052" stroke-width="1.224"/>
   <circle fill="none" cx="24.925"  cy="46.449" stroke="#F7BD13" id="connector4pin" r="2.052" stroke-width="1.224"/>
   <circle fill="none" cx="32.045"  cy="46.446" stroke="#F7BD13" id="connector5pin" r="2.052" stroke-width="1.224"/>
   <circle fill="none" cx="10.625"  cy="3.249" stroke="#F7BD13" id="connector9pin" r="2.052" stroke-width="1.224"/>
   <circle fill="none" cx="17.826"  cy="3.249" stroke="#F7BD13" id="connector8pin" r="2.052" stroke-width="1.224"/>
   <circle fill="none" cx="25.025"  cy="3.249" stroke="#F7BD13" id="connector7pin" r="2.052" stroke-width="1.224"/>
   <circle fill="none" cx="32.146"  cy="3.246" stroke="#F7BD13" id="connector6pin" r="2.052" stroke-width="1.224"/>
   <circle fill="none" cx="3.401"  cy="3.219" stroke="#F7BD13" id="connector10pin" r="2.052" stroke-width="1.224"/>
  </g>
 </g>
 <g transform="translate(144.533,31.2864)">
  <g  id="copper1" stroke-width="0">
   <g  id="copper0" stroke-width="0">
    <rect width="3.96" x="16.02" y="6.228" fill="none"  height="3.96" stroke="#ffbf00" id="rect10" stroke-width="1.44"/>
    <circle fill="none" cx="3.6"  cy="8.208" stroke="#ffbf00" id="connector0pin" r="1.98" stroke-width="1.44"/>
    <circle fill="none" cx="10.8"  cy="8.208" stroke="#ffbf00" id="connector1pin" r="1.98" stroke-width="1.44"/>
    <circle fill="none" cx="18"  cy="8.208" stroke="#ffbf00" id="connector2pin" r="1.98" stroke-width="1.44"/>
   </g>
  </g>
 </g>
 <g transform="translate(122.933,60.0864)">
  <g  id="copper1" stroke-width="0">
   <g  id="copper0" stroke-width="0">
    <rect width="3.96" x="16.02" y="6.228" fill="none"  height="3.96" stroke="#ffbf00" id="rect10" stroke-width="1.44"/>
    <circle fill="none" cx="3.6"  cy="8.208" stroke="#ffbf00" id="connector0pin" r="1.98" stroke-width="1.44"/>
    <circle fill="none" cx="10.8"  cy="8.208" stroke="#ffbf00" id="connector1pin" r="1.98" stroke-width="1.44"/>
    <circle fill="none" cx="18"  cy="8.208" stroke="#ffbf00" id="connector2pin" r="1.98" stroke-width="1.44"/>
   </g>
  </g>
 </g>
 <g transform="translate(24.6534,91.4064)">
  <g transform="matrix(-1,0,0,-1,0,0)">
   <g  id="copper1" stroke-width="0">
    <g  id="copper0" stroke-width="0">
     <rect width="3.96" x="16.02" y="6.228" fill="none"  height="3.96" stroke="#ffbf00" id="rect10" stroke-width="1.44"/>
     <circle fill="none" cx="3.6"  cy="8.208" stroke="#ffbf00" id="connector0pin" r="1.98" stroke-width="1.44"/>
     <circle fill="none" cx="10.8"  cy="8.208" stroke="#ffbf00" id="connector1pin" r="1.98" stroke-width="1.44"/>
     <circle fill="none" cx="18"  cy="8.208" stroke="#ffbf00" id="connector2pin" r="1.98" stroke-width="1.44"/>
    </g>
   </g>
  </g>
 </g>
 <g transform="translate(49.9254,39.4944)">
  <g transform="matrix(0,-1,1,0,0,0)">
   <g  id="copper1" stroke-width="0">
    <g  id="copper0" stroke-width="0">
     <rect width="3.96" x="16.02" y="6.228" fill="none"  height="3.96" stroke="#ffbf00" id="rect10" stroke-width="1.44"/>
     <circle fill="none" cx="3.6"  cy="8.208" stroke="#ffbf00" id="connector0pin" r="1.98" stroke-width="1.44"/>
     <circle fill="none" cx="10.8"  cy="8.208" stroke="#ffbf00" id="connector1pin" r="1.98" stroke-width="1.44"/>
     <circle fill="none" cx="18"  cy="8.208" stroke="#ffbf00" id="connector2pin" r="1.98" stroke-width="1.44"/>
    </g>
   </g>
  </g>
 </g>
 <g transform="translate(123.833,21.9984)">
  <g  id="copper1" stroke-width="0">
   <rect width="3.96" x="0.72" y="1.116" fill="none"  height="3.96" stroke="rgb(255, 191, 0)" stroke-width="1.44"/>
   <circle fill="none" cx="2.7"  cy="3.096" stroke="rgb(255, 191, 0)" r="1.98" id="connector0pin" stroke-width="1.44"/>
   <circle fill="none" cx="31.5"  cy="3.096" stroke="rgb(255, 191, 0)" r="1.98" id="connector1pin" stroke-width="1.44"/>
  </g>
 </g>
 <g transform="translate(66.2334,25.5984)">
  <g  id="copper1" stroke-width="0">
   <rect width="3.96" x="0.72" y="1.116" fill="none"  height="3.96" stroke="rgb(255, 191, 0)" stroke-width="1.44"/>
   <circle fill="none" cx="2.7"  cy="3.096" stroke="rgb(255, 191, 0)" r="1.98" id="connector0pin" stroke-width="1.44"/>
   <circle fill="none" cx="31.5"  cy="3.096" stroke="rgb(255, 191, 0)" r="1.98" id="connector1pin" stroke-width="1.44"/>
  </g>
 </g>
 <g transform="translate(154.433,60.5904)">
  <g transform="matrix(-1,0,0,-1,0,0)">
   <g  id="copper1" stroke-width="0">
    <rect width="3.96" x="0.72" y="1.116" fill="none"  height="3.96" stroke="rgb(255, 191, 0)" stroke-width="1.44"/>
    <circle fill="none" cx="2.7"  cy="3.096" stroke="rgb(255, 191, 0)" r="1.98" id="connector0pin" stroke-width="1.44"/>
    <circle fill="none" cx="31.5"  cy="3.096" stroke="rgb(255, 191, 0)" r="1.98" id="connector1pin" stroke-width="1.44"/>
   </g>
  </g>
 </g>
 <g transform="translate(46.4334,24.5904)">
  <g transform="matrix(-1,0,0,-1,0,0)">
   <g  id="copper1" stroke-width="0">
    <rect width="3.96" x="0.72" y="1.116" fill="none"  height="3.96" stroke="rgb(255, 191, 0)" stroke-width="1.44"/>
    <circle fill="none" cx="2.7"  cy="3.096" stroke="rgb(255, 191, 0)" r="1.98" id="connector0pin" stroke-width="1.44"/>
    <circle fill="none" cx="31.5"  cy="3.096" stroke="rgb(255, 191, 0)" r="1.98" id="connector1pin" stroke-width="1.44"/>
   </g>
  </g>
 </g>
 <g transform="translate(140.179,91.0737)">
  <g transform="matrix(0,1,-1,0,0,0)">
   <g  id="copper1" stroke-width="0">
    <g  id="copper0" stroke-width="0">
     <circle fill="none" cx="20.8462"  cy="15.6024" stroke="rgb(255, 191, 0)" id="connector0pad" r="1.98" stroke-width="1.44"/>
     <circle fill="none" cx="2.42064"  cy="15.6024" stroke="rgb(255, 191, 0)" id="connector1pad" r="1.98" stroke-width="1.44"/>
     <circle fill="none" cx="20.8462"  cy="2.84616" stroke="rgb(255, 191, 0)" id="connector2pad" r="1.98" stroke-width="1.44"/>
     <circle fill="none" cx="2.42064"  cy="2.84616" stroke="rgb(255, 191, 0)" id="connector3pad" r="1.98" stroke-width="1.44"/>
    </g>
   </g>
  </g>
 </g>
 <g transform="translate(174.833,36.7944)">
  <g transform="matrix(0,1,-1,0,0,0)">
   <g  id="copper1" stroke-width="0">
    <rect width="3.96" x="0.72" y="0.72" fill="none"  height="3.96" stroke="rgb(255, 191, 0)" stroke-width="1.44"/>
    <circle fill="none" cx="2.7"  cy="2.7" stroke="rgb(255, 191, 0)" r="1.98" id="connector0pin" stroke-width="1.44"/>
    <circle fill="none" cx="24.3"  cy="2.7" stroke="rgb(255, 191, 0)" r="1.98" id="connector1pin" stroke-width="1.44"/>
   </g>
  </g>
 </g>
 <g transform="translate(44.6334,79.9944)">
  <g  id="copper1" stroke-width="0">
   <circle fill="none" cx="2.7"  cy="2.7" stroke="#FFCB33" r="1.98" id="connector0pin" stroke-width="1.44"/>
   <circle fill="black" cx="2.7"  cy="2.7" drill="0" r="1.26" stroke-width="0"/>
  </g>
 </g>
 <line stroke="#ffcb33" stroke-linecap="round" y1="29.7384" x1="180.533" y2="53.7608" stroke-width="1.728" x2="180.533"/>
 <line stroke="#ffcb33" stroke-linecap="round" y1="21.4944" x1="60.1934" y2="21.4944" stroke-width="1.728" x2="74.6934"/>
 <line stroke="#ffcb33" stroke-linecap="round" y1="21.4944" x1="74.6934" y2="9.1544" stroke-width="1.728" x2="74.6934"/>
 <line stroke="#ffcb33" stroke-linecap="round" y1="14.2944" x1="166.133" y2="29.7384" stroke-width="1.728" x2="180.533"/>
 <line stroke="#ffcb33" stroke-linecap="round" y1="9.1544" x1="166.133" y2="14.2944" stroke-width="1.728" x2="166.133"/>
 <line stroke="#ffcb33" stroke-linecap="round" y1="39.4944" x1="170.073" y2="39.4944" stroke-width="1.728" x2="164.593"/>
 <line stroke="#ffcb33" stroke-linecap="round" y1="104.428" x1="168" y2="110.737" stroke-width="1.728" x2="167.797"/>
 <line stroke="#ffcb33" stroke-linecap="round" y1="100.961" x1="157.867" y2="100.694" stroke-width="1.728" x2="163.734"/>
 <line stroke="#ffcb33" stroke-linecap="round" y1="121.761" x1="153.333" y2="104.694" stroke-width="1.728" x2="153.6"/>
 <line stroke="#ffcb33" stroke-linecap="round" y1="132.961" x1="151.733" y2="123.094" stroke-width="1.728" x2="160.534"/>
 <line stroke="#ffcb33" stroke-linecap="round" y1="133.228" x1="144.533" y2="121.761" stroke-width="1.728" x2="153.333"/>
 <line stroke="#ffcb33" stroke-linecap="round" y1="133.228" x1="115.733" y2="133.228" stroke-width="1.728" x2="144.533"/>
 <line stroke="#ffcb33" stroke-linecap="round" y1="8.81485" x1="143.4" y2="18.0278" stroke-width="1.728" x2="137.333"/>
 <line stroke="#ffcb33" stroke-linecap="round" y1="100.694" x1="163.733" y2="104.428" stroke-width="1.728" x2="168"/>
 <line stroke="#ffcb33" stroke-linecap="round" y1="104.694" x1="153.6" y2="100.961" stroke-width="1.728" x2="157.866"/>
 <line stroke="#ffcb33" stroke-linecap="round" y1="53.7608" x1="180.533" y2="59.7396" stroke-width="1.728" x2="173.685"/>
 <line stroke="#ffcb33" stroke-linecap="round" y1="141.834" x1="115.733" y2="133.228" stroke-width="1.728" x2="115.733"/>
 <line stroke="#ffcb33" stroke-linecap="round" y1="123.094" x1="160.533" y2="114.653" stroke-width="1.728" x2="160.533"/>
 <line stroke="#ffcb33" stroke-linecap="round" y1="141.834" x1="151.733" y2="132.961" stroke-width="1.728" x2="151.733"/>
 <line stroke="#ffcb33" stroke-linecap="round" y1="43.0944" x1="133.867" y2="43.0944" stroke-width="1.728" x2="115.734"/>
 <line stroke="#ffcb33" stroke-linecap="round" y1="18.028" x1="119.467" y2="21.4947" stroke-width="1.728" x2="115.734"/>
 <line stroke="#ffcb33" stroke-linecap="round" y1="21.4944" x1="115.733" y2="28.6944" stroke-width="1.728" x2="115.733"/>
 <line stroke="#ffcb33" stroke-linecap="round" y1="28.6944" x1="115.733" y2="46.8278" stroke-width="1.728" x2="97.8667"/>
 <line stroke="#ffcb33" stroke-linecap="round" y1="46.828" x1="97.867" y2="46.5613" stroke-width="1.728" x2="83.467"/>
 <line stroke="#ffcb33" stroke-linecap="round" y1="61.228" x1="69.0667" y2="56.1314" stroke-width="1.728" x2="68.988"/>
 <line stroke="#ffcb33" stroke-linecap="round" y1="61.228" x1="104.953" y2="61.228" stroke-width="1.728" x2="69.0667"/>
 <line stroke="#ffcb33" stroke-linecap="round" y1="56.1312" x1="104.953" y2="61.2275" stroke-width="1.728" x2="104.953"/>
 <line stroke="#ffcb33" stroke-linecap="round" y1="43.0944" x1="115.733" y2="52.3063" stroke-width="1.728" x2="106.536"/>
 <line stroke="#ffcb33" stroke-linecap="round" y1="8.78495" x1="157.756" y2="43.0944" stroke-width="1.728" x2="133.867"/>
 <line stroke="#ffcb33" stroke-linecap="round" y1="46.5608" x1="83.4667" y2="51.6542" stroke-width="1.728" x2="83.4429"/>
 <line stroke="#ffcb33" stroke-linecap="round" y1="18.028" x1="137.333" y2="18.028" stroke-width="1.728" x2="119.467"/>
 <line stroke="#ffcb33" stroke-linecap="round" y1="90.028" x1="94.1334" y2="89.7613" stroke-width="1.728" x2="65.3334"/>
 <line stroke="#ffcb33" stroke-linecap="round" y1="89.7608" x1="65.3334" y2="92.4829" stroke-width="1.728" x2="61.7326"/>
 <line stroke="#ffcb33" stroke-linecap="round" y1="82.828" x1="124.577" y2="82.5613" stroke-width="1.728" x2="112.267"/>
 <line stroke="#ffcb33" stroke-linecap="round" y1="92.4832" x1="97.7326" y2="90.0277" stroke-width="1.728" x2="94.1334"/>
 <line stroke="#ffcb33" stroke-linecap="round" y1="94.8544" x1="97.7327" y2="92.4832" stroke-width="1.728" x2="97.7328"/>
 <line stroke="#ffcb33" stroke-linecap="round" y1="104.428" x1="40.1324" y2="99.3347" stroke-width="1.728" x2="40.1324"/>
 <line stroke="#ffcb33" stroke-linecap="round" y1="104.428" x1="76.2667" y2="104.428" stroke-width="1.728" x2="40.1324"/>
 <line stroke="#ffcb33" stroke-linecap="round" y1="99.334" x1="76.1734" y2="104.428" stroke-width="1.728" x2="76.2667"/>
 <line stroke="#ffcb33" stroke-linecap="round" y1="90.028" x1="11.4667" y2="84.8825" stroke-width="1.728" x2="7.84011"/>
 <line stroke="#ffcb33" stroke-linecap="round" y1="91.4344" x1="124.577" y2="82.8278" stroke-width="1.728" x2="124.577"/>
 <line stroke="#ffcb33" stroke-linecap="round" y1="75.628" x1="126.667" y2="80.2827" stroke-width="1.728" x2="129.222"/>
 <line stroke="#ffcb33" stroke-linecap="round" y1="35.8944" x1="43.7334" y2="35.8944" stroke-width="1.728" x2="56.0734"/>
 <line stroke="#ffcb33" stroke-linecap="round" y1="41.5544" x1="148.133" y2="44.1384" stroke-width="1.728" x2="148.133"/>
 <line stroke="#ffcb33" stroke-linecap="round" y1="104.428" x1="90.5334" y2="99.3347" stroke-width="1.728" x2="90.5334"/>
 <line stroke="#ffcb33" stroke-linecap="round" y1="61.228" x1="133.867" y2="66.235" stroke-width="1.728" x2="133.772"/>
 <line stroke="#ffcb33" stroke-linecap="round" y1="104.428" x1="129.221" y2="104.428" stroke-width="1.728" x2="90.5334"/>
 <line stroke="#ffcb33" stroke-linecap="round" y1="80.2824" x1="129.221" y2="104.428" stroke-width="1.728" x2="129.221"/>
 <line stroke="#ffcb33" stroke-linecap="round" y1="70.3541" x1="126.571" y2="75.6277" stroke-width="1.728" x2="126.667"/>
 <line stroke="#ffcb33" stroke-linecap="round" y1="92.4832" x1="61.7326" y2="94.8544" stroke-width="1.728" x2="61.7325"/>
 <line stroke="#ffcb33" stroke-linecap="round" y1="50.2944" x1="133.6" y2="50.2944" stroke-width="1.728" x2="119.466"/>
 <line stroke="#ffcb33" stroke-linecap="round" y1="82.5608" x1="58.1334" y2="90.0275" stroke-width="1.728" x2="50.9334"/>
 <line stroke="#ffcb33" stroke-linecap="round" y1="90.028" x1="50.9334" y2="90.028" stroke-width="1.728" x2="11.4667"/>
 <line stroke="#ffcb33" stroke-linecap="round" y1="21.4944" x1="13.8534" y2="21.4944" stroke-width="1.728" x2="12.8734"/>
 <line stroke="#ffcb33" stroke-linecap="round" y1="35.8944" x1="130.133" y2="35.8944" stroke-width="1.728" x2="115.733"/>
 <line stroke="#ffcb33" stroke-linecap="round" y1="50.2944" x1="119.467" y2="57.4944" stroke-width="1.728" x2="112.267"/>
 <line stroke="#ffcb33" stroke-linecap="round" y1="23.5544" x1="43.7334" y2="35.8944" stroke-width="1.728" x2="43.7334"/>
 <line stroke="#ffcb33" stroke-linecap="round" y1="46.5608" x1="151.733" y2="55.4342" stroke-width="1.728" x2="151.733"/>
 <line stroke="#ffcb33" stroke-linecap="round" y1="44.1384" x1="148.133" y2="46.5611" stroke-width="1.728" x2="151.733"/>
 <line stroke="#ffcb33" stroke-linecap="round" y1="43.0944" x1="69.0667" y2="43.0944" stroke-width="1.728" x2="36.5334"/>
 <line stroke="#ffcb33" stroke-linecap="round" y1="57.4944" x1="130.133" y2="61.2277" stroke-width="1.728" x2="133.867"/>
 <line stroke="#ffcb33" stroke-linecap="round" y1="81.1384" x1="13.8534" y2="21.4944" stroke-width="1.728" x2="13.8534"/>
 <line stroke="#ffcb33" stroke-linecap="round" y1="82.5608" x1="112.267" y2="82.5608" stroke-width="1.728" x2="58.1336"/>
 <line stroke="#ffcb33" stroke-linecap="round" y1="57.4944" x1="112.267" y2="82.561" stroke-width="1.728" x2="112.267"/>
 <line stroke="#ffcb33" stroke-linecap="round" y1="57.4944" x1="141.067" y2="50.2944" stroke-width="1.728" x2="133.6"/>
 <line stroke="#ffcb33" stroke-linecap="round" y1="66.2346" x1="140.959" y2="57.4944" stroke-width="1.728" x2="141.067"/>
 <line stroke="#ffcb33" stroke-linecap="round" y1="28.6944" x1="66.8734" y2="28.6944" stroke-width="1.728" x2="60.1934"/>
 <line stroke="#ffcb33" stroke-linecap="round" y1="37.4344" x1="155.333" y2="27.1544" stroke-width="1.728" x2="155.333"/>
 <line stroke="#ffcb33" stroke-linecap="round" y1="57.4944" x1="124.993" y2="57.4944" stroke-width="1.728" x2="130.133"/>
 <line stroke="#ffcb33" stroke-linecap="round" y1="43.0944" x1="36.5334" y2="50.2944" stroke-width="1.728" x2="29.3334"/>
 <line stroke="#ffcb33" stroke-linecap="round" y1="35.8944" x1="115.733" y2="52.3061" stroke-width="1.728" x2="99.4119"/>
 <line stroke="#ffcb33" stroke-linecap="round" y1="8.7424" x1="150.497" y2="35.8944" stroke-width="1.728" x2="130.133"/>
 <line stroke="#ffcb33" stroke-linecap="round" y1="14.2944" x1="115.733" y2="14.2944" stroke-width="1.728" x2="133.867"/>
 <line stroke="#ffcb33" stroke-linecap="round" y1="21.4944" x1="108.533" y2="14.2944" stroke-width="1.728" x2="115.733"/>
 <line stroke="#ffcb33" stroke-linecap="round" y1="28.6944" x1="108.533" y2="21.4944" stroke-width="1.728" x2="108.533"/>
 <line stroke="#ffcb33" stroke-linecap="round" y1="39.3608" x1="79.7334" y2="39.3608" stroke-width="1.728" x2="97.8667"/>
 <line stroke="#ffcb33" stroke-linecap="round" y1="46.828" x1="76.2667" y2="43.0947" stroke-width="1.728" x2="76.2667"/>
 <line stroke="#ffcb33" stroke-linecap="round" y1="46.828" x1="40.2667" y2="46.828" stroke-width="1.728" x2="76.2667"/>
 <line stroke="#ffcb33" stroke-linecap="round" y1="51.6249" x1="40.227" y2="46.8281" stroke-width="1.728" x2="40.2667"/>
 <line stroke="#ffcb33" stroke-linecap="round" y1="50.2944" x1="29.3334" y2="64.6944" stroke-width="1.728" x2="29.3334"/>
 <line stroke="#ffcb33" stroke-linecap="round" y1="64.6944" x1="29.3334" y2="81.2378" stroke-width="1.728" x2="45.8767"/>
 <line stroke="#ffcb33" stroke-linecap="round" y1="8.73742" x1="95.0507" y2="43.0944" stroke-width="1.728" x2="69.0667"/>
 <line stroke="#ffcb33" stroke-linecap="round" y1="43.0944" x1="76.2667" y2="39.3611" stroke-width="1.728" x2="79.7334"/>
 <line stroke="#ffcb33" stroke-linecap="round" y1="39.3608" x1="97.867" y2="28.6942" stroke-width="1.728" x2="108.534"/>
 <line stroke="#ffcb33" stroke-linecap="round" y1="14.2944" x1="133.867" y2="8.95046" stroke-width="1.728" x2="136.44"/>
 <line stroke="#ffcb33" stroke-linecap="round" y1="51.6248" x1="76.2205" y2="43.0948" stroke-width="1.728" x2="76.2667"/>
 <g transform="translate(72.8074,50.6456)">
  <g  id="silkscreen" stroke-width="0">
   <rect width="35.149" x="0.162" y="0.161" fill="none"  height="49.607" stroke="#FFFFFF" stroke-width="0.7087"/>
  </g>
 </g>
 <g transform="translate(36.8074,50.6456)">
  <g  id="silkscreen" stroke-width="0">
   <rect width="35.149" x="0.162" y="0.161" fill="none"  height="49.607" stroke="#FFFFFF" stroke-width="0.7087"/>
  </g>
 </g>
 <g transform="translate(144.533,31.2864)">
  <g  id="silkscreen" stroke-width="0">
   <line  stroke="#ffffff" id="line7" y1="3.6" x1="5.76" y2="3.6" stroke-width="0.72" x2="15.84"/>
   <path stroke-opacity="1" fill="none"  stroke="#ffffff" style="opacity:1;fill-rule:nonzero;stroke-linecap:round;stroke-linejoin:round;stroke-miterlimit:4;stroke-dasharray:none;" fill-opacity="1" id="path2413" stroke-width="0.72" d="M16.7479,11.2431A6.11074,3.79092,0,0,1,4.52687,11.2864"/>
  </g>
 </g>
 <g transform="translate(122.933,60.0864)">
  <g  id="silkscreen" stroke-width="0">
   <line  stroke="#ffffff" id="line7" y1="3.6" x1="5.76" y2="3.6" stroke-width="0.72" x2="15.84"/>
   <path stroke-opacity="1" fill="none"  stroke="#ffffff" style="opacity:1;fill-rule:nonzero;stroke-linecap:round;stroke-linejoin:round;stroke-miterlimit:4;stroke-dasharray:none;" fill-opacity="1" id="path2413" stroke-width="0.72" d="M16.7479,11.2431A6.11074,3.79092,0,0,1,4.52687,11.2864"/>
  </g>
 </g>
 <g transform="translate(24.6534,91.4064)">
  <g transform="matrix(-1,0,0,-1,0,0)">
   <g  id="silkscreen" stroke-width="0">
    <line  stroke="#ffffff" id="line7" y1="3.6" x1="5.76" y2="3.6" stroke-width="0.72" x2="15.84"/>
    <path stroke-opacity="1" fill="none"  stroke="#ffffff" style="opacity:1;fill-rule:nonzero;stroke-linecap:round;stroke-linejoin:round;stroke-miterlimit:4;stroke-dasharray:none;" fill-opacity="1" id="path2413" stroke-width="0.72" d="M16.7479,11.2431A6.11074,3.79092,0,0,1,4.52687,11.2864"/>
   </g>
  </g>
 </g>
 <g transform="translate(49.9254,39.4944)">
  <g transform="matrix(0,-1,1,0,0,0)">
   <g  id="silkscreen" stroke-width="0">
    <line  stroke="#ffffff" id="line7" y1="3.6" x1="5.76" y2="3.6" stroke-width="0.72" x2="15.84"/>
    <path stroke-opacity="1" fill="none"  stroke="#ffffff" style="opacity:1;fill-rule:nonzero;stroke-linecap:round;stroke-linejoin:round;stroke-miterlimit:4;stroke-dasharray:none;" fill-opacity="1" id="path2413" stroke-width="0.72" d="M16.7479,11.2431A6.11074,3.79092,0,0,1,4.52687,11.2864"/>
   </g>
  </g>
 </g>
 <g transform="translate(123.833,21.9984)">
  <g  id="silkscreen" stroke-width="0">
   <line  stroke="white" y1="3.096" x1="5.4" y2="3.096" stroke-width="0.72" x2="10.584"/>
   <line  stroke="white" y1="3.096" x1="24.984" y2="3.096" stroke-width="0.72" x2="28.8"/>
   <line  stroke="white" y1="0.72" x1="10.584" y2="0.72" stroke-width="0.72" x2="24.984"/>
   <line  stroke="white" y1="0.72" x1="24.984" y2="5.472" stroke-width="0.72" x2="24.984"/>
   <line  stroke="white" y1="5.472" x1="24.984" y2="5.472" stroke-width="0.72" x2="10.584"/>
   <line  stroke="white" y1="5.472" x1="10.584" y2="0.72" stroke-width="0.72" x2="10.584"/>
  </g>
 </g>
 <g transform="translate(66.2334,25.5984)">
  <g  id="silkscreen" stroke-width="0">
   <line  stroke="white" y1="3.096" x1="5.4" y2="3.096" stroke-width="0.72" x2="10.584"/>
   <line  stroke="white" y1="3.096" x1="24.984" y2="3.096" stroke-width="0.72" x2="28.8"/>
   <line  stroke="white" y1="0.72" x1="10.584" y2="0.72" stroke-width="0.72" x2="24.984"/>
   <line  stroke="white" y1="0.72" x1="24.984" y2="5.472" stroke-width="0.72" x2="24.984"/>
   <line  stroke="white" y1="5.472" x1="24.984" y2="5.472" stroke-width="0.72" x2="10.584"/>
   <line  stroke="white" y1="5.472" x1="10.584" y2="0.72" stroke-width="0.72" x2="10.584"/>
  </g>
 </g>
 <g id="silkscreen" stroke-width="0">
  <path fill="none" stroke="#ffffff" style="stroke-linecap:round;stroke-linejoin:round;stroke-miterlimit:10" id="outline" stroke-width="0.800042" d="M186.956,36.4096L186.956,4.3672L183.389,0.8008L0.800042,0.8L0.801642,150.501L186.958,150.501L186.958,144.674L195.4,136.232L195.4,43.5456L186.956,36.4096z" stroke-miterlimit="10"/>
 </g>
 <g transform="translate(154.433,60.5904)">
  <g transform="matrix(-1,0,0,-1,0,0)">
   <g  id="silkscreen" stroke-width="0">
    <line  stroke="white" y1="3.096" x1="5.4" y2="3.096" stroke-width="0.72" x2="10.584"/>
    <line  stroke="white" y1="3.096" x1="24.984" y2="3.096" stroke-width="0.72" x2="28.8"/>
    <line  stroke="white" y1="0.72" x1="10.584" y2="0.72" stroke-width="0.72" x2="24.984"/>
    <line  stroke="white" y1="0.72" x1="24.984" y2="5.472" stroke-width="0.72" x2="24.984"/>
    <line  stroke="white" y1="5.472" x1="24.984" y2="5.472" stroke-width="0.72" x2="10.584"/>
    <line  stroke="white" y1="5.472" x1="10.584" y2="0.72" stroke-width="0.72" x2="10.584"/>
   </g>
  </g>
 </g>
 <g transform="translate(46.4334,24.5904)">
  <g transform="matrix(-1,0,0,-1,0,0)">
   <g  id="silkscreen" stroke-width="0">
    <line  stroke="white" y1="3.096" x1="5.4" y2="3.096" stroke-width="0.72" x2="10.584"/>
    <line  stroke="white" y1="3.096" x1="24.984" y2="3.096" stroke-width="0.72" x2="28.8"/>
    <line  stroke="white" y1="0.72" x1="10.584" y2="0.72" stroke-width="0.72" x2="24.984"/>
    <line  stroke="white" y1="0.72" x1="24.984" y2="5.472" stroke-width="0.72" x2="24.984"/>
    <line  stroke="white" y1="5.472" x1="24.984" y2="5.472" stroke-width="0.72" x2="10.584"/>
    <line  stroke="white" y1="5.472" x1="10.584" y2="0.72" stroke-width="0.72" x2="10.584"/>
   </g>
  </g>
 </g>
 <g transform="translate(140.179,91.0737)">
  <g transform="matrix(0,1,-1,0,0,0)">
   <g  id="silkscreen" stroke-width="0">
    <line  stroke="white" y1="6.38928" stroke-width="0.72" x1="20.137" y2="12.0586" x2="20.137"/>
    <line  stroke="white" y1="0.72" stroke-width="0.72" x1="5.96376" y2="0.72" x2="18.0115"/>
    <line  stroke="white" y1="17.7278" stroke-width="0.72" x1="5.96376" y2="17.7278" x2="18.0115"/>
    <line  stroke="white" y1="6.38928" stroke-width="0.72" x1="3.12912" y2="12.0586" x2="3.12912"/>
    <line  stroke="white" y1="7.80696" stroke-width="0.72" x1="11.633" y2="10.6416" x2="11.633"/>
    <line  stroke="white" y1="9.22392" stroke-width="0.72" x1="13.0507" y2="9.22392" x2="10.2161"/>
   </g>
  </g>
 </g>
 <g transform="translate(174.833,36.7944)">
  <g transform="matrix(0,1,-1,0,0,0)">
   <g  id="silkscreen" stroke-width="0">
    <line  stroke="white" y1="2.736" x1="5.4" y2="2.736" stroke-width="0.72" x2="8.064"/>
    <line  stroke="white" y1="2.736" x1="18.864" y2="2.736" stroke-width="0.72" x2="21.6"/>
    <line  stroke="white" y1="0.936" x1="8.064" y2="0.936" stroke-width="0.72" x2="18.864"/>
    <line  stroke="white" y1="0.936" x1="18.864" y2="4.536" stroke-width="0.72" x2="18.864"/>
    <line  stroke="white" y1="4.536" x1="18.864" y2="4.536" stroke-width="0.72" x2="8.064"/>
    <line  stroke="white" y1="4.536" x1="8.064" y2="0.936" stroke-width="0.72" x2="8.064"/>
   </g>
  </g>
 </g></g>
</svg>
