<svg
   xmlns:svg="http://www.w3.org/2000/svg"
   xmlns="http://www.w3.org/2000/svg"
   version="1.2" baseProfile="tiny"
   x="0px" y="0px" 
   width=".38in" height=".17in" 
	  xml:space="preserve">

<rect id="connector0pin" y="11.738" fill="#B3B3B3" width="3" height="3.141"/>
<rect id="connector1pin" x="30.001" y="11.738" fill="#B3B3B3" width="3" height="3.141"/>

<g id="breadboard" style="display:inline">
	<g>
	<path fill="#B3B3B3" d="M30.001,14.879v-4.811c-0.006-0.516-0.132-0.718-0.227-0.816l0,0c-0.099-0.095-0.297-0.239-0.899-0.248l0,0
		H3.814c-0.34,0-0.557,0.046-0.647,0.079l0,0c-0.081,0.021-0.064,0.033-0.068,0.03l0,0c0.002,0-0.012,0.015-0.035,0.083l0,0
		c-0.03,0.091-0.065,0.277-0.065,0.559l0,0v5.124h0.002H0V9.755c-0.004-0.974,0.216-2.011,0.998-2.782l0,0
		c0.788-0.762,1.817-0.97,2.816-0.968l0,0h25.061c1.147-0.008,2.263,0.349,3.039,1.145l0,0c0.779,0.791,1.091,1.869,1.085,2.919l0,0
		l0.002,4.811L30.001,14.879L30.001,14.879z"/>
	<path d="M6.361,7.59c0,3.025,1.332,5.732,3.434,7.59h13.41c2.102-1.857,3.434-4.564,3.434-7.59c0-3.024-1.332-5.732-3.434-7.59
		H9.795C7.693,1.857,6.361,4.565,6.361,7.59z"/>
	<rect x="9.795" width="13.41" height="15.18"/>
	<path fill="#CCCCCC" d="M23.227,14.316c0,0-3.26,0.312-6.727,0.312s-6.727-0.312-6.727-0.312S9.461,11.058,9.461,7.59
		c0-3.467,0.312-6.727,0.312-6.727s3.26-0.311,6.727-0.311s6.727,0.311,6.727,0.311s0.312,3.26,0.312,6.727
		C23.539,11.058,23.227,14.316,23.227,14.316z"/>
	<path fill="#8F0000" d="M22.496,1.889l-0.043-0.252l-0.251-0.042c-0.026-0.005-2.737-0.45-5.702-0.45
		c-1.541,0-3.004,0.12-3.959,0.221c-0.961,0.102-1.461,0.158-1.73,0.227c-0.08,0.001-0.146,0.016-0.201,0.07
		c-0.086,0.052-0.104,0.117-0.108,0.205c-0.083,0.26-0.151,0.763-0.249,1.753c-0.074,0.749-0.197,2.263-0.197,3.971
		c0,2.966,0.445,5.676,0.449,5.702l0.043,0.252l0.251,0.042c0.026,0.005,2.737,0.45,5.702,0.45s5.676-0.445,5.702-0.45l0.251-0.042
		l0.043-0.252c0.004-0.026,0.449-2.736,0.449-5.702C22.946,4.626,22.5,1.915,22.496,1.889z M11.17,12.922
		c-0.107-0.729-0.402-2.944-0.402-5.331c0-2.499,0.262-4.698,0.376-5.331c0.254-0.039,0.732-0.104,1.339-0.169
		c-0.01,0.058-0.027,0.108-0.027,0.172c0,0.424,0.262,1.14,0.292,1.22c0.062,0.165,0.233,0.261,0.407,0.225
		c0.016-0.003,1.607-0.326,3.346-0.326c1.652,0,3.156,0.289,3.316,0.32c0.004,0.006,0.015,0.027,0.015,0.084
		c0,0.144-0.067,0.375-0.138,0.578c-0.395-0.068-1.136-0.174-1.992-0.174c-1.232,0-2.41,0.219-2.46,0.229
		c-0.103,0.02-0.192,0.084-0.244,0.175c-0.023,0.042-0.142,0.272-0.142,0.714c0,0.4,0.098,0.918,0.102,0.939
		c0.018,0.094,0.072,0.176,0.15,0.229c0.079,0.055,0.176,0.074,0.27,0.055c0.005,0,0.54-0.104,1.123-0.104
		c0.362,0,0.689,0.039,0.899,0.068c0.017,0.092,0.03,0.205,0.03,0.336c0,0.141-0.016,0.283-0.034,0.403H16.5h-1.192
		c-0.165,0-0.308,0.112-0.347,0.272c-0.004,0.018-0.105,0.436-0.105,0.846c0,0.418,0.103,0.73,0.114,0.766
		c0.041,0.12,0.144,0.209,0.269,0.234C15.264,9.356,15.845,9.47,16.5,9.47c0.343,0,0.66-0.03,0.894-0.062
		c0.019,0.148,0.036,0.318,0.036,0.466c0,0.102-0.011,0.165-0.021,0.225c-0.388,0.062-1.244,0.18-2.109,0.18
		c-1.156,0-2.131-0.212-2.141-0.214c-0.137-0.03-0.277,0.021-0.361,0.134c-0.033,0.044-0.326,0.446-0.326,0.923
		c0,0.479,0.294,0.875,0.328,0.919c0.052,0.068,0.127,0.115,0.211,0.133c0.067,0.014,1.676,0.341,3.49,0.341
		c1.368,0,2.617-0.186,3.18-0.283c0.076,0.246,0.151,0.532,0.151,0.688c0,0.115-0.044,0.193-0.084,0.248
		c-0.937,0.086-2.069,0.157-3.247,0.157C14.113,13.323,11.898,13.029,11.17,12.922z M21.83,12.922
		c-0.264,0.039-0.723,0.102-1.312,0.166c0.01-0.057,0.027-0.105,0.027-0.17c0-0.423-0.262-1.139-0.292-1.219
		c-0.062-0.166-0.233-0.262-0.407-0.226C19.83,11.476,18.239,11.8,16.5,11.8c-1.447,0-2.779-0.223-3.199-0.299
		c-0.055-0.1-0.115-0.244-0.115-0.381c0-0.107,0.036-0.217,0.078-0.311c0.382,0.068,1.147,0.182,2.035,0.182
		c1.232,0,2.41-0.22,2.46-0.229c0.103-0.02,0.192-0.084,0.244-0.175c0.023-0.042,0.142-0.271,0.142-0.715
		c0-0.4-0.098-0.917-0.102-0.938c-0.018-0.094-0.072-0.176-0.15-0.229c-0.079-0.054-0.176-0.073-0.27-0.055
		c-0.005,0.001-0.54,0.104-1.123,0.104c-0.362,0-0.689-0.039-0.899-0.069c-0.017-0.091-0.03-0.204-0.03-0.335
		c0-0.141,0.016-0.283,0.034-0.404H16.5h1.192c0.165,0,0.308-0.113,0.347-0.272c0.004-0.018,0.105-0.437,0.105-0.845
		c0-0.419-0.103-0.73-0.114-0.766c-0.041-0.121-0.144-0.21-0.269-0.234c-0.025-0.006-0.606-0.119-1.262-0.119
		c-0.343,0-0.66,0.031-0.894,0.062c-0.019-0.148-0.036-0.318-0.036-0.466c0-0.102,0.011-0.164,0.021-0.225
		c0.389-0.061,1.244-0.18,2.109-0.18c1.156,0,2.131,0.213,2.141,0.215c0.166,0.037,0.335-0.049,0.403-0.205
		c0.03-0.069,0.3-0.693,0.3-1.127c0-0.523-0.363-0.737-0.555-0.777c-0.067-0.014-1.676-0.341-3.49-0.341
		c-1.368,0-2.617,0.187-3.18,0.284c-0.076-0.247-0.151-0.532-0.151-0.688c0-0.114,0.043-0.192,0.083-0.247
		c0.946-0.086,2.08-0.157,3.248-0.157c2.387,0,4.602,0.294,5.33,0.401c0.107,0.729,0.402,2.944,0.402,5.331
		C22.23,9.977,21.938,12.192,21.83,12.922z"/>
	<circle fill="#B2B2B2" cx="8.541" cy="7.592" r="1.916"/>
	<circle fill="#B2B2B2" cx="24.459" cy="7.59" r="1.916"/>
	<path opacity="0.2" enable-background="new    " d="M23.205,0H9.795C7.693,1.857,6.361,4.565,6.361,7.59s1.332,5.732,3.434,7.59
		h13.41c2.102-1.857,3.434-4.564,3.434-7.59C26.639,4.565,25.307,1.857,23.205,0z M16.089,13.418c-3.452,0-6.251-2.799-6.251-6.25
		c0-3.452,2.799-6.251,6.251-6.251c3.452,0,6.251,2.799,6.251,6.251C22.34,10.619,19.541,13.418,16.089,13.418z"/>
	<circle opacity="0.8" fill="#FFFFFF" enable-background="new    " cx="13.99" cy="4.72" r="1.625"/>
</g></g>

</svg>
