<svg
   xmlns:svg="http://www.w3.org/2000/svg"
   xmlns="http://www.w3.org/2000/svg"
   version="1.2" baseProfile="tiny"
   x="0px" y="0px" 
   width=".2in" height=".59in" 
	  xml:space="preserve">


<rect id="connector0terminal" x="2.5" y="44.765" fill="#B3B3B3" width="3" height="3.14"/>
<rect id="connector1terminal" x="12.5" y="44.765" fill="#B3B3B3" width="3" height="3.14"/>
<rect id="connector1pin" x="12.5" y="37.905" fill="#B3B3B3" width="3" height="10"/>
<rect id="connector0pin" x="2.5" y="37.905" fill="#B3B3B3" width="3" height="10"/>

<g id="breadboard" style="display:inline">
	<g>
<rect x="2.5" y="44.765" fill="#B3B3B3" width="3" height="3.14"/>
<rect x="12.5" y="44.765" fill="#B3B3B3" width="3" height="3.14"/>
<rect x="12.5" y="27.905" fill="#B3B3B3" width="3" height="20"/>
<rect x="2.5" y="27.905" fill="#B3B3B3" width="3" height="20"/>
<path fill="none" stroke="#B3B3B3" stroke-width="3" d="M4,27.905c0-1.649-0.539-4.171-1.459-5.09
	c-0.939-0.938-1.458-2.048-1.458-3.007c0-1.5,0.292-3.125,1.792-4.625s2.875-2.875,2.875-2.875"/>
<path fill="none" stroke="#B3B3B3" stroke-width="3" d="M14,27.905c0-1.649,0.539-4.171,1.459-5.09
	c0.939-0.938,1.458-2.048,1.458-3.007c0-1.5-0.292-3.125-1.792-4.625s-2.875-2.875-2.875-2.875"/>
<path fill="#165696" d="M17.312,15.065c-0.699-0.856-1.646-2.049-1.646-3.923V5.454c0-1.667-0.871-2.375-2.104-2.375
	c-1.729,0-2.25,0.604-4.125,0.604H8.562c-1.875,0-2.396-0.604-4.125-0.604c-1.233,0-2.104,0.708-2.104,2.375v5.688
	c0,1.874-1.001,2.941-1.646,3.84c-0.561,0.781-1,1.91-1,2.473c1.397-0.604,2.5-0.25,3.312,0.562
	c1.125-1.688,3.125-3.236,4.875-3.236h2.25c1.75,0,3.75,1.549,4.875,3.236c0.812-0.812,1.915-1.166,3.312-0.562
	C18.312,16.892,18.094,16.023,17.312,15.065z"/>
<path opacity="0.16" enable-background="new    " d="M18.312,17.454c0-0.562-0.22-1.432-1-2.39
	c-0.699-0.856-1.646-2.049-1.646-3.923V5.454c0-0.871-0.241-1.474-0.645-1.856C15.018,3.628,15,3.658,15,3.69
	c0,0.281,0.219,0.531,0.281,0.844c0.074,0.373-0.094,1-0.375,1.531s-1,1.656-1,2.656c0,1.155,0.219,2.219,0.531,2.969
	c0.297,0.712,0.844,1.625,1.594,2.344s1,1.594,1.062,1.938c0.062,0.344-0.155,0.594-0.594,0.812s-1.22,0.156-1.562,0.031
	c-0.344-0.125-1.125-0.812-1.47-1.25c-0.344-0.438-0.719-1.188-1.25-1.812c-0.5-0.588-1.625-1.405-3.125-1.405
	s-2.969,1.03-3.719,1.78s-1.281,1.72-1.562,2c-0.281,0.281-0.656,0.595-1.031,0.656c-0.375,0.062-0.75-0.125-1.062-0.125
	c-0.258,0-0.497,0.143-0.765,0.503C1.768,17.138,2.452,17.469,3,18.017c1.125-1.688,3.125-3.236,4.875-3.236h2.25
	c1.75,0,3.75,1.549,4.875,3.236C15.812,17.204,16.915,16.851,18.312,17.454z"/>
<path opacity="0.3" fill="#FFFFFF" enable-background="new    " d="M5.209,5.085c0,0.512-0.74,1.047-1.048,1.047
	c-0.563,0-0.9-0.575-0.9-1.141c0-0.562,0.457-1.021,1.021-1.021C4.846,3.971,5.209,4.522,5.209,5.085z"/>
<path opacity="0.2" fill="#FFFFFF" enable-background="new    " d="M0.855,16.023c0-0.271,0.083-0.604,0.271-0.854
	c0.258-0.344,0.82-0.896,1.083-1.271c0.292-0.416,0.396-0.791,0.459-1.146c0.051-0.288,0.26-0.625,0.479-0.625
	c0.219,0,0.417,0.345,0.417,0.688s-0.098,0.771-0.354,1.188c-0.271,0.438-0.729,0.833-1.062,1.104
	C1.81,15.38,1.584,15.71,1.501,15.919c-0.054,0.137-0.188,0.333-0.396,0.333C0.878,16.252,0.855,16.144,0.855,16.023z"/>
<path opacity="0.2" fill="#FFFFFF" enable-background="new    " d="M11.688,4.336c0-0.446,0.438-0.646,0.791-0.688
	c0.541-0.062,0.959-0.125,1.334-0.125s0.666,0.073,0.666,0.292s-0.358,0.271-0.688,0.271S12.917,4.2,12.667,4.294
	c-0.25,0.095-0.354,0.417-0.604,0.417C11.834,4.711,11.688,4.544,11.688,4.336z"/>
    </g>
  </g>
</svg>
