<?xml version="1.0" encoding="utf-8"?>

<svg
   xmlns:svg="http://www.w3.org/2000/svg"
   xmlns="http://www.w3.org/2000/svg"
   version="1.2" baseProfile="tiny"
   x="0px" y="0px" 
   width=".27in" height=".50in" 
	  xml:space="preserve">



<rect
   id="connector0pin"
   x="0.63305414"
   y="35.596512"
   width="3"
   height="8.2589998"
   style="fill:#b3b3b3" />
<rect
   id="connector1pin"
   x="10.607054"
   y="35.596512"
   width="3"
   height="8.2589998"
   style="fill:#b3b3b3" />
<rect
   id="connector2pin"
   x="20.588055"
   y="35.596512"
   width="3"
   height="8.2589998"
   style="fill:#b3b3b3" />
<rect
   id="connector0terminal"
   x="0.63305414"
   y="43.297512"
   width="3"
   height="0.55800003"
   style="fill:#b3b3b3" />
<rect
   id="connector1terminal"
   x="10.607054"
   y="43.297512"
   width="3"
   height="0.55800003"
   style="fill:#b3b3b3" />
<rect
   id="connector2terminal"
   x="20.588055"
   y="43.297512"
   width="3"
   height="0.55800003"
   style="fill:#b3b3b3" />


<g
   id="breadboard"
   style="display:inline"
   transform="matrix(2.3972928,0,0,2.4022782,-966.56317,-155.90572)">
	<g
   id="g11">
		<g
   id="Transistor_legs">
			<rect
   id="rect9479"
   x="407.612"
   y="78.984001"
   width="1.248"
   height="4.158"
   style="fill:#b3b3b3" />
			<rect
   id="rect9481"
   x="403.45401"
   y="78.984001"
   width="1.248"
   height="4.158"
   style="fill:#b3b3b3" />
			<rect
   id="rect9483"
   x="411.771"
   y="78.984001"
   width="1.248"
   height="4.158"
   style="fill:#b3b3b3" />
		</g>
		<g
   id="Transistor_pins_1_">
			<g
   id="g9504">
				<rect
   id="rect9506"
   x="407.612"
   y="73.578003"
   width="1.248"
   height="5.4060001"
   style="fill:#b3b3b3" />
			</g>
			<g
   id="g9508">
				<path
   id="path9510"
   d="M 405.358,73.578 L 405.358,75.495 C 405.358,75.74 404.905,76.107 404.664,76.319 C 404.07,76.834 403.454,77.371 403.454,78.049 L 403.454,78.985 L 404.702,78.985 C 404.702,78.985 404.702,78.407 404.702,78.286 C 404.702,77.987 405.226,77.483 405.484,77.263 C 406.062,76.76 406.611,76.286 406.611,75.674 L 406.611,73.578 L 405.358,73.578 L 405.358,73.578 z"
   style="fill:#b3b3b3" />
			</g>
			<g
   id="g9512">
				<path
   id="path9514"
   d="M 411.113,73.578 L 411.113,75.495 C 411.113,75.74 411.566,76.107 411.808,76.319 C 412.403,76.834 413.018,77.371 413.018,78.049 L 413.018,78.985 L 411.77,78.985 C 411.77,78.985 411.77,78.407 411.77,78.286 C 411.77,77.987 411.246,77.483 410.988,77.263 C 410.41,76.76 409.861,76.286 409.861,75.674 L 409.861,73.578 L 411.113,73.578 L 411.113,73.578 z"
   style="fill:#b3b3b3" />
			</g>
		</g>
		<rect
   id="rect9553"
   x="404.38901"
   y="67.755997"
   width="7.6929998"
   height="5.822"
   style="fill:#1a1a1a" />
		<path
   id="path9555"
   d="M 411.5,67.756 L 411.5,69.174 L 411.5,73.931 L 411.5,74.996 C 411.866,74.584 412.082,74.098 412.082,73.578 L 412.082,73.578 L 412.082,67.756 L 411.5,67.756 z"
   style="fill:#141414" />
		<path
   id="path9557"
   d="M 404.972,67.756 L 404.39,67.756 L 404.39,73.578 L 404.39,73.578 C 404.39,74.098 404.606,74.584 404.972,74.996 L 404.972,73.931 L 404.972,69.174 L 404.972,67.756 z"
   style="fill:#242424" />
		<path
   id="path9559"
   d="M 404.389,67.756 L 404.389,67.756 C 404.389,68.276 404.605,68.762 404.971,69.174 L 411.504,69.174 C 411.87,68.762 412.086,68.276 412.086,67.756 L 412.086,67.756 L 404.389,67.756 z"
   style="fill:#1f1f1f" />
		<path
   id="path9561"
   d="M 408.236,65.062 C 406.111,65.062 404.389,66.268 404.389,67.757 L 412.082,67.757 C 412.082,66.268 410.361,65.062 408.236,65.062 z"
   style="fill:#141414" />
		<rect
   id="rect9563"
   x="404.97198"
   y="69.174004"
   width="6.533"
   height="5.822" />
	</g>
	<path fill="#999999" d="M406.345,73.364v-3.122h1.251v0.624h0.626v0.624h0.626v-1.249h1.251v3.122h-1.251v-0.624h-0.626v-0.624
		h-0.626v1.249H406.345z"/>

</g>

</svg>

