<?xml version="1.0" encoding="UTF-8" standalone="no"?>
<!-- Generator: Adobe Illustrator 13.0.0, SVG Export Plug-In . SVG Version: 6.00 Build 14948)  -->
<svg
   xmlns:dc="http://purl.org/dc/elements/1.1/"
   xmlns:cc="http://creativecommons.org/ns#"
   xmlns:rdf="http://www.w3.org/1999/02/22-rdf-syntax-ns#"
   xmlns:svg="http://www.w3.org/2000/svg"
   xmlns="http://www.w3.org/2000/svg"
   xmlns:sodipodi="http://sodipodi.sourceforge.net/DTD/sodipodi-0.dtd"
   xmlns:inkscape="http://www.inkscape.org/namespaces/inkscape"
   version="1.2"
   baseProfile="tiny"
   id="svg2"
   inkscape:output_extension="org.inkscape.output.svg.inkscape"
   inkscape:version="0.46"
   sodipodi:docname="basic_toggle_switch.svg"
   sodipodi:version="0.32"
   x="0px"
   y="0px"
   width="0.43in"
   height="0.43in"
   xml:space="preserve"><metadata
   id="metadata25"><rdf:RDF><cc:Work
       rdf:about=""><dc:format>image/svg+xml</dc:format><dc:type
         rdf:resource="http://purl.org/dc/dcmitype/StillImage" /></cc:Work></rdf:RDF></metadata><defs
   id="defs23"><inkscape:perspective
     sodipodi:type="inkscape:persp3d"
     inkscape:vp_x="0 : 19.5 : 1"
     inkscape:vp_y="0 : 1000 : 0"
     inkscape:vp_z="38.98 : 19.5 : 1"
     inkscape:persp3d-origin="19.49 : 13 : 1"
     id="perspective27" /></defs><sodipodi:namedview
   inkscape:window-height="701"
   inkscape:window-width="640"
   inkscape:pageshadow="2"
   inkscape:pageopacity="0.0"
   guidetolerance="10.0"
   gridtolerance="10.0"
   objecttolerance="10.0"
   borderopacity="1.0"
   bordercolor="#666666"
   pagecolor="#ffffff"
   id="base"
   showgrid="false"
   inkscape:zoom="6.3846154"
   inkscape:cx="19.032034"
   inkscape:cy="11.183543"
   inkscape:window-x="0"
   inkscape:window-y="22"
   inkscape:current-layer="svg2" />

<rect
   id="connector0terminal"
   x="8.468873"
   y="36.772179"
   width="2.52"
   height="1.65"
   style="fill:#b3b3b3" />
<rect
   id="connector1terminal"
   x="18.467873"
   y="36.772179"
   width="2.5209999"
   height="1.65"
   style="fill:#b3b3b3" />
<rect
   id="connector2terminal"
   x="28.465872"
   y="36.772179"
   width="2.5209999"
   height="1.65"
   style="fill:#b3b3b3" />
<rect
   id="connector0pin"
   x="8.468873"
   y="30.98818"
   width="2.52"
   height="7.4359999"
   style="fill:#b3b3b3" />
<rect
   id="connector1pin"
   x="18.467873"
   y="30.98818"
   width="2.5209999"
   height="7.4359999"
   style="fill:#b3b3b3" />
<rect
   id="connector2pin"
   x="28.465872"
   y="30.98818"
   width="2.5209999"
   height="7.4359999"
   style="fill:#b3b3b3" />
<g
   id="breadboard"
   transform="translate(30.333672,6.5456771)">
	<rect
   id="rect4"
   x="-21.877001"
   y="11.025"
   width="2.52"
   height="20.785"
   style="fill:#b3b3b3" />
	<rect
   id="rect6"
   x="-11.878"
   y="11.025"
   width="2.5209999"
   height="20.785"
   style="fill:#b3b3b3" />
	<rect
   id="rect8"
   x="-1.88"
   y="11.025"
   width="2.5209999"
   height="20.785"
   style="fill:#b3b3b3" />
	<polygon
   id="polygon21"
   points="-17.117,21.169 -19.357,22.169 -21.876,22.169 -24.117,21.169 -24.117,8.99 -17.117,8.99 -17.117,21.169 "
   style="fill:#b3b3b3" />
	<polygon
   id="polygon23"
   points="-7.118,21.169 -9.357,22.169 -11.877,22.169 -14.118,21.169 -14.118,8.99 -7.118,8.99 -7.118,21.169 "
   style="fill:#b3b3b3" />
	<polygon
   id="polygon25"
   points="2.88,21.169 0.641,22.169 -1.878,22.169 -4.119,21.169 -4.119,8.99 2.88,8.99 2.88,21.169 "
   style="fill:#b3b3b3" />
	<rect
   id="rect27"
   x="-29.115999"
   y="-0.233"
   width="36.997002"
   height="18.471001"
   style="fill:#1a1a1a" />
	<rect
   id="rect49"
   x="-29.115999"
   y="3.3699999"
   width="36.997002"
   height="4.6490002" />
	<rect
   id="rect51"
   x="-29.115999"
   y="-0.37900001"
   width="36.997002"
   height="5.7480001"
   style="fill:#333333" />
	<rect
   id="rect49_1_"
   x="-17.761999"
   y="0.182"
   width="15.56"
   height="4.6490002" />
	<rect
   id="rect27_1_"
   x="-9.0719995"
   y="-2.6659999"
   width="6.6630001"
   height="7.3319998"
   style="fill:#1a1a1a" />
	<rect
   id="rect51_1_"
   x="-9.0719995"
   y="-5.7119999"
   width="6.6630001"
   height="3.046"
   style="fill:#333333" />
</g>
</svg>