<?xml version="1.0" encoding="UTF-8" standalone="no"?>
<svg
   xmlns:dc="http://purl.org/dc/elements/1.1/"
   xmlns:cc="http://creativecommons.org/ns#"
   xmlns:rdf="http://www.w3.org/1999/02/22-rdf-syntax-ns#"
   xmlns:svg="http://www.w3.org/2000/svg"
   xmlns="http://www.w3.org/2000/svg"
   xmlns:sodipodi="http://sodipodi.sourceforge.net/DTD/sodipodi-0.dtd"
   xmlns:inkscape="http://www.inkscape.org/namespaces/inkscape"
   version="1.2"
   baseProfile="tiny"
   x="0px"
   y="0px"
   width=".34in"
   height=".36in"
   xml:space="preserve"
   id="svg2"
   sodipodi:version="0.32"
   inkscape:version="0.46"
   sodipodi:docname="basic_poti_sm.svg"
   inkscape:output_extension="org.inkscape.output.svg.inkscape"><metadata
   id="metadata62"><rdf:RDF><cc:Work
       rdf:about=""><dc:format>image/svg+xml</dc:format><dc:type
         rdf:resource="http://purl.org/dc/dcmitype/StillImage" /></cc:Work></rdf:RDF></metadata><defs
   id="defs60"><inkscape:perspective
     sodipodi:type="inkscape:persp3d"
     inkscape:vp_x="0 : 16.200001 : 1"
     inkscape:vp_y="0 : 1000 : 0"
     inkscape:vp_z="30.6 : 16.200001 : 1"
     inkscape:persp3d-origin="15.3 : 10.800001 : 1"
     id="perspective64" /></defs><sodipodi:namedview
   inkscape:window-height="701"
   inkscape:window-width="640"
   inkscape:pageshadow="2"
   inkscape:pageopacity="0.0"
   guidetolerance="10.0"
   gridtolerance="10.0"
   objecttolerance="10.0"
   borderopacity="1.0"
   bordercolor="#666666"
   pagecolor="#ffffff"
   id="base"
   showgrid="false"
   inkscape:zoom="15.37037"
   inkscape:cx="15.3"
   inkscape:cy="9.6255031"
   inkscape:window-x="0"
   inkscape:window-y="22"
   inkscape:current-layer="breadboard" />

<rect
   id="connector0pin"
   x="4.2892652"
   y="30.942772"
   width="2.431"
   height="1.5930001"
   style="fill:#b3b3b3" />
<rect
   id="connector1pin"
   x="14.124326"
   y="-0.2102298"
   width="2.4300001"
   height="1.5930001"
   style="fill:#b3b3b3" />
<rect
   id="connector2pin"
   x="24.152264"
   y="30.942772"
   width="2.4300001"
   height="1.5930001"
   style="fill:#b3b3b3" />

<g
   id="breadboard"
   transform="matrix(0.7846527,0,0,0.7846527,4.3175756,-6.8808051)">
	<rect
   x="19.948999"
   y="42.146"
   width="8.1560001"
   height="3.2390001"
   id="rect8"
   style="fill:#b3b3b3" />
	<rect
   x="0.105"
   y="42.146"
   width="8.158"
   height="3.2390001"
   id="rect10"
   style="fill:#b3b3b3" />
	<rect
   x="10.837"
   y="13.404"
   width="6.3400002"
   height="2.8659999"
   id="rect12"
   style="fill:#b3b3b3" />
	<rect
   x="-0.11807867"
   y="44.410275"
   width="3.563"
   height="5.8573785"
   id="rect14"
   style="fill:#b3b3b3" />
	<rect
   x="24.81233"
   y="44.445999"
   width="3.563"
   height="5.6915469"
   id="rect16"
   style="fill:#b3b3b3" />
	<rect
   x="12.228"
   y="8.7682848"
   width="3.563"
   height="5.2617149"
   id="rect18"
   style="fill:#b3b3b3" />
	<path
   d="M 14.005,13.768 C 5.498,13.768 -1.401,20.667 -1.401,29.178 L -1.401,44.584 L 14.005,44.584 L 29.415,44.584 L 29.415,29.177 C 29.416,20.667 22.516,13.768 14.005,13.768 z M 5.371,35.037 L 5.371,23.319 L 22.642,23.319 L 22.642,35.037 L 5.371,35.037 z"
   id="path20"
   style="fill:#808080" />
	
		<linearGradient
   id="SVGID_1_"
   gradientUnits="userSpaceOnUse"
   x1="-897.22412"
   y1="-1454.1877"
   x2="-889.62152"
   y2="-1391.3206"
   gradientTransform="matrix(0.3109,-8.4e-2,-8.4e-2,-0.3109,172.3131,-488.146)">
		<stop
   offset="0"
   style="stop-color:#FFFFFF"
   id="stop23" />
		<stop
   offset="1"
   style="stop-color:#666666"
   id="stop25" />
	</linearGradient>
	<path
   d="M 11.348,19.323 C 5.915,20.79 2.699,26.388 4.164,31.821 C 5.635,37.257 11.227,40.472 16.666,39.009 C 22.103,37.538 25.318,31.944 23.849,26.507 C 22.379,21.07 16.788,17.853 11.348,19.323 z M 10.434,31.873 L 10.877,28.268 L 16.262,26.813 L 18.459,29.705 L 10.434,31.873 z"
   id="path27"
   style="fill:url(#SVGID_1_)" />
	<g
   id="g29">
		<rect
   x="13.467"
   y="30.693001"
   transform="matrix(0.9653,-0.2613,0.2613,0.9653,-8.2005,5.1198)"
   width="3.3670001"
   height="5.4029999"
   id="rect31" />
		<polygon
   points="16.262,26.813 18.459,29.705 14.482,24.465 13.785,21.885 10.539,22.764 11.232,25.344 10.434,31.873 10.877,28.268 16.262,26.813 "
   id="polygon33" />
	</g>
	<g
   id="g35">
		<polygon
   points="6.73,29.388 7.605,32.635 10.434,31.873 10.877,28.268 6.73,29.388 "
   id="polygon37"
   style="fill:#4d4d4d" />
		<polygon
   points="16.262,26.813 18.459,29.705 21.289,28.943 20.409,25.693 16.262,26.813 "
   id="polygon39"
   style="fill:#4d4d4d" />
	</g>
	<path
   enable-background="new    "
   d="M 28.201,29.576 C 28.147,28.629 28,27.67 27.746,26.72 C 27.514,25.865 27.2,25.062 26.828,24.296 L 26.161,24.522 L 25.161,23.197 C 24.877,22.764 24.56,22.352 24.228,21.964 L 23.18,20.578 L 23.748,20.15 C 20.357,17.03 15.502,15.653 10.724,16.942 C 5.953,18.232 2.447,21.867 1.088,26.269 L 1.794,26.351 L 1.584,28.078 C 1.495,28.583 1.431,29.094 1.4,29.614 L 1.203,31.263 L 0.511,31.4 C 0.579,32.251 0.712,33.103 0.943,33.959 C 1.204,34.909 1.556,35.811 1.986,36.656 L 2.713,36.069 C 3.56,37.791 4.764,39.255 6.2,40.414 L 5.471,40.997 C 8.825,43.786 13.431,44.961 17.964,43.739 C 22.491,42.513 25.882,39.18 27.375,35.083 L 26.453,34.944 C 27.113,33.219 27.416,31.35 27.278,29.436 L 28.201,29.576 z M 16.699,39.054 C 11.887,40.354 6.928,37.505 5.628,32.693 C 4.332,27.88 7.177,22.922 11.99,21.626 C 16.806,20.324 21.761,23.173 23.06,27.983 C 24.363,32.801 21.511,37.754 16.699,39.054 z"
   id="path41"
   style="opacity:0.3" />
	<path
   d="M 10.628,16.647 C 3.71,18.512 -0.382,25.631 1.488,32.544 C 3.354,39.459 10.473,43.555 17.39,41.685 C 24.303,39.818 28.397,32.699 26.526,25.783 C 24.66,18.87 17.542,14.777 10.628,16.647 z M 16.667,39.009 C 11.229,40.473 5.632,37.261 4.165,31.824 C 2.695,26.384 5.912,20.786 11.349,19.32 C 16.788,17.853 22.384,21.07 23.854,26.507 C 25.319,31.943 22.103,37.542 16.667,39.009 z"
   id="path43" />
	<path
   d="M 27.864,28.403 C 27.809,27.455 27.665,26.496 27.406,25.545 C 27.178,24.696 26.866,23.889 26.49,23.121 L 25.824,23.345 L 22.844,19.404 L 23.411,18.976 C 20.024,15.856 15.168,14.479 10.392,15.769 C 5.613,17.059 2.111,20.693 0.753,25.096 L 1.455,25.18 L 0.868,30.09 L 0.176,30.231 C 0.241,31.081 0.378,31.935 0.607,32.784 C 0.865,33.736 1.217,34.636 1.652,35.483 L 3.617,33.901 L 7.109,38.238 L 5.135,39.827 C 8.485,42.613 13.091,43.787 17.624,42.564 C 22.155,41.344 25.546,38.007 27.038,33.911 L 24.537,33.534 L 25.362,28.029 L 27.864,28.403 z M 16.361,37.882 C 11.548,39.18 6.59,36.332 5.292,31.518 C 3.994,26.705 6.838,21.748 11.654,20.452 C 16.469,19.151 21.422,21.997 22.722,26.814 C 24.023,31.626 21.173,36.58 16.361,37.882 z"
   id="path45"
   style="fill:#1a1a1a" />
	<circle
   enable-background="new    "
   cx="3.608"
   cy="23.306"
   r="1.039"
   id="circle47"
   sodipodi:cx="3.608"
   sodipodi:cy="23.306"
   sodipodi:rx="1.039"
   sodipodi:ry="1.039"
   style="opacity:0.38999999;fill:#ffffff" />
	<circle
   enable-background="new    "
   cx="20.045"
   cy="18.868"
   r="1.04"
   id="circle49"
   sodipodi:cx="20.045"
   sodipodi:cy="18.868"
   sodipodi:rx="1.04"
   sodipodi:ry="1.04"
   style="opacity:0.38999999;fill:#ffffff" />
	<g
   id="g51"
   style="opacity:0.38999999">
		<path
   d="M 11.108,39.432 L 10.673,39.328 L 10.778,38.887 L 11.212,38.988 L 11.316,38.555 L 12.194,38.764 L 11.358,42.275 L 10.479,42.066 L 11.108,39.432 z"
   id="path53"
   style="fill:#ffffff" />
		<path
   d="M 18.285,41.869 L 16.533,42.311 L 16.422,41.872 L 15.988,41.981 L 15.324,39.353 L 15.758,39.243 L 15.647,38.809 L 17.403,38.367 L 17.508,38.803 L 17.953,38.692 L 18.616,41.318 L 18.172,41.429 L 18.285,41.869 z M 17.739,41.536 L 17.074,38.911 L 16.201,39.134 L 16.863,41.76 L 17.739,41.536 z"
   id="path55"
   style="fill:#ffffff" />
		<path
   d="M 23.11,37.049 L 23.427,36.737 L 23.748,37.056 L 23.432,37.372 L 24.069,38.014 L 23.423,38.656 L 22.786,38.017 L 21.827,38.968 L 21.19,38.327 L 21.506,38.014 L 20.872,37.368 L 21.191,37.049 L 21.831,37.69 L 21.506,38.014 L 21.822,38.332 L 22.465,37.693 L 20.875,36.094 L 21.521,35.451 L 23.11,37.049 z"
   id="path57"
   style="fill:#ffffff" />
	</g>
</g>

</svg>