<?xml version="1.0" encoding="UTF-8" standalone="no"?>
<svg
   xmlns:dc="http://purl.org/dc/elements/1.1/"
   xmlns:cc="http://creativecommons.org/ns#"
   xmlns:rdf="http://www.w3.org/1999/02/22-rdf-syntax-ns#"
   xmlns:svg="http://www.w3.org/2000/svg"
   xmlns="http://www.w3.org/2000/svg"
   xmlns:sodipodi="http://sodipodi.sourceforge.net/DTD/sodipodi-0.dtd"
   xmlns:inkscape="http://www.inkscape.org/namespaces/inkscape"
   version="1.2"
   baseProfile="tiny"
   x="0px"
   y="0px"
   width=".43in"
   height=".87in"
   xml:space="preserve"
   id="svg2"
   sodipodi:version="0.32"
   inkscape:version="0.46"
   sodipodi:docname="basic_power_transistor_npn.svg"
   inkscape:output_extension="org.inkscape.output.svg.inkscape"><metadata
   id="metadata45"><rdf:RDF><cc:Work
       rdf:about=""><dc:format>image/svg+xml</dc:format><dc:type
         rdf:resource="http://purl.org/dc/dcmitype/StillImage" /></cc:Work></rdf:RDF></metadata><defs
   id="defs43"><inkscape:perspective
     sodipodi:type="inkscape:persp3d"
     inkscape:vp_x="0 : 39.150002 : 1"
     inkscape:vp_y="0 : 1000 : 0"
     inkscape:vp_z="38.700001 : 39.150002 : 1"
     inkscape:persp3d-origin="19.35 : 26.100001 : 1"
     id="perspective47" /></defs><sodipodi:namedview
   inkscape:window-height="701"
   inkscape:window-width="640"
   inkscape:pageshadow="2"
   inkscape:pageopacity="0.0"
   guidetolerance="10.0"
   gridtolerance="10.0"
   objecttolerance="10.0"
   borderopacity="1.0"
   bordercolor="#666666"
   pagecolor="#ffffff"
   id="base"
   showgrid="false"
   inkscape:zoom="6.360153"
   inkscape:cx="19.35"
   inkscape:cy="39.150002"
   inkscape:window-x="0"
   inkscape:window-y="22"
   inkscape:current-layer="svg2" />

<rect
   id="connector0terminal"
   x="8.3441715"
   y="75.733627"
   width="2.52"
   height="1.652"
   style="fill:#b3b3b3" />
<rect
   id="connector1terminal"
   x="18.343172"
   y="75.733627"
   width="2.52"
   height="1.652"
   style="fill:#b3b3b3" />
<rect
   id="connector2terminal"
   x="28.341171"
   y="75.733627"
   width="2.52"
   height="1.652"
   style="fill:#b3b3b3" />
<rect
   id="connector0pin"
   x="8.3441715"
   y="69.949631"
   width="2.52"
   height="7.4359999"
   style="fill:#b3b3b3" />
<rect
   id="connector1pin"
   x="18.343172"
   y="69.949631"
   width="2.52"
   height="7.4359999"
   style="fill:#b3b3b3" />
<rect
   id="connector2pin"
   x="28.341171"
   y="69.949631"
   width="2.52"
   height="7.4359999"
   style="fill:#b3b3b3" />


<g
   id="breadboard"
   transform="translate(26.221171,27.574629)">
	<rect
   x="-17.877001"
   y="19.025"
   width="2.52"
   height="30.785999"
   id="rect4"
   style="fill:#b3b3b3" />
	<rect
   x="-7.8779998"
   y="19.025"
   width="2.52"
   height="30.785999"
   id="rect6"
   style="fill:#b3b3b3" />
	<rect
   x="2.1199999"
   y="19.025"
   width="2.52"
   height="30.785999"
   id="rect8"
   style="fill:#b3b3b3" />
	<polygon
   points="-25.116,-22.981 -25.116,-9.641 -21.616,-9.641 -21.616,-27.005 -25.116,-22.981 "
   id="polygon10"
   style="fill:#cccccc" />
	<polygon
   points="11.88,-22.981 8.38,-27.005 8.38,-9.641 11.88,-9.641 11.88,-22.981 "
   id="polygon12"
   style="fill:#999999" />
	
		<linearGradient
   id="SVGID_1_"
   gradientUnits="userSpaceOnUse"
   x1="-1111.4099"
   y1="-234.8201"
   x2="-1141.4099"
   y2="-234.8201"
   gradientTransform="matrix(0.9999,0,0,-0.9999,1119.6646,-250.9921)">
		<stop
   offset="0"
   style="stop-color:#FFFFFF"
   id="stop15" />
		<stop
   offset="1"
   style="stop-color:#000000"
   id="stop17" />
	</linearGradient>
	<path
   d="M -21.616,-27.005 L -21.616,-5.392 L 8.38,-5.392 L 8.38,-27.005 L -21.616,-27.005 z M -6.618,-13.479 C -10.968,-13.479 -14.492,-15.947 -14.492,-18.992 C -14.492,-22.036 -10.968,-24.503 -6.618,-24.503 C -2.268,-24.503 1.256,-22.035 1.256,-18.992 C 1.255,-15.948 -2.269,-13.479 -6.618,-13.479 z"
   id="path19"
   style="fill:url(#SVGID_1_)" />
	<polygon
   points="-13.117,29.169 -15.357,30.169 -17.876,30.169 -20.117,29.169 -20.117,16.989 -13.117,16.989 -13.117,29.169 "
   id="polygon21"
   style="fill:#b3b3b3" />
	<polygon
   points="-3.118,29.169 -5.359,30.169 -7.877,30.169 -10.118,29.169 -10.118,16.989 -3.118,16.989 -3.118,29.169 "
   id="polygon23"
   style="fill:#b3b3b3" />
	<polygon
   points="6.88,29.169 4.64,30.169 2.122,30.169 -0.119,29.169 -0.119,16.989 6.88,16.989 6.88,29.169 "
   id="polygon25"
   style="fill:#b3b3b3" />
	<rect
   x="-25.115999"
   y="4.0170002"
   width="36.997002"
   height="22.221001"
   id="rect27"
   style="fill:#1a1a1a" />
	
		<linearGradient
   id="SVGID_2_"
   gradientUnits="userSpaceOnUse"
   x1="-1139.7854"
   y1="-268.5134"
   x2="-1144.9104"
   y2="-268.5134"
   gradientTransform="matrix(0.9999,0,0,-0.9999,1119.6646,-250.9921)">
		<stop
   offset="0"
   style="stop-color:#4D4D4D"
   id="stop30" />
		<stop
   offset="0.0238"
   style="stop-color:#4B4B4B"
   id="stop32" />
		<stop
   offset="0.3557"
   style="stop-color:#373737"
   id="stop34" />
		<stop
   offset="0.6835"
   style="stop-color:#2A2A2A"
   id="stop36" />
		<stop
   offset="1"
   style="stop-color:#262626"
   id="stop38" />
	</linearGradient>
	<path
   d="M -25.116,13.903 L -25.116,21.079 C -22.286,21.079 -19.991,19.472 -19.991,17.491 C -19.991,15.51 -22.286,13.903 -25.116,13.903 z"
   id="path40"
   style="fill:url(#SVGID_2_)" />
	
		<linearGradient
   id="SVGID_3_"
   gradientUnits="userSpaceOnUse"
   x1="-1113.0344"
   y1="-268.51389"
   x2="-1107.9094"
   y2="-268.51389"
   gradientTransform="matrix(0.9999,0,0,-0.9999,1119.6646,-250.9921)">
		<stop
   offset="0"
   style="stop-color:#333333"
   id="stop43" />
		<stop
   offset="1"
   style="stop-color:#000000"
   id="stop45" />
	</linearGradient>
	<path
   d="M 11.88,13.903 C 9.05,13.903 6.755,15.509 6.755,17.491 C 6.755,19.47 9.05,21.079 11.88,21.079 L 11.88,13.903 z"
   id="path47"
   style="fill:url(#SVGID_3_)" />
	<rect
   x="-25.115999"
   y="-0.63300002"
   width="36.997002"
   height="4.6500001"
   id="rect49" />
	<rect
   x="-25.115999"
   y="-6.382"
   width="36.997002"
   height="5.7490001"
   id="rect51"
   style="fill:#333333" />
	<rect
   x="-21.615999"
   y="-27.004999"
   width="29.997"
   height="4.25"
   id="rect53"
   style="fill:#b2b2b2" />
	<path
   d="M 8.38,-23.746 L -21.617,-23.746 L -25.117,-19.721 L -25.117,-6.382 L 11.88,-6.382 L 11.88,-19.721 L 8.38,-23.746 z M -6.618,-10.219 C -10.968,-10.219 -14.492,-12.687 -14.492,-15.732 C -14.492,-18.776 -10.968,-21.243 -6.618,-21.243 C -2.268,-21.243 1.256,-18.775 1.256,-15.732 C 1.255,-12.688 -2.269,-10.219 -6.618,-10.219 z"
   id="path55"
   style="fill:#8c8c8c" />
	<path
   d="M -13.652,10.134 L -13.652,6.366 L -12.187,6.366 L -12.187,7.132 L -11.418,7.132 L -11.418,7.9 L -10.721,7.9 L -10.721,6.366 L -9.185,6.366 L -9.185,10.134 L -10.721,10.134 L -10.721,9.365 L -11.418,9.365 L -11.418,8.599 L -12.187,8.599 L -12.187,10.133 L -13.652,10.133 L -13.652,10.134 z"
   id="path57"
   style="fill:#6d6d6d" />
	<path
   d="M -4.719,7.132 L -4.022,7.132 L -4.022,8.599 L -4.719,8.599 L -4.719,9.365 L -6.952,9.365 L -6.952,10.133 L -8.488,10.133 L -8.488,6.366 L -4.718,6.366 L -4.718,7.132 L -4.719,7.132 z M -5.487,7.132 L -6.952,7.132 L -6.952,8.599 L -5.487,8.599 L -5.487,7.132 z"
   id="path59"
   style="fill:#6d6d6d" />
	<path
   d="M -3.254,10.134 L -3.254,6.366 L -1.788,6.366 L -1.788,7.132 L -1.02,7.132 L -1.02,7.9 L -0.251,7.9 L -0.251,6.366 L 1.214,6.366 L 1.214,10.134 L -0.251,10.134 L -0.251,9.365 L -1.02,9.365 L -1.02,8.599 L -1.788,8.599 L -1.788,10.133 L -3.254,10.133 L -3.254,10.134 z"
   id="path61"
   style="fill:#6d6d6d" />
</g>

</svg>