<?xml version="1.0" encoding="UTF-8" standalone="no"?>
<svg
   xmlns:dc="http://purl.org/dc/elements/1.1/"
   xmlns:cc="http://creativecommons.org/ns#"
   xmlns:rdf="http://www.w3.org/1999/02/22-rdf-syntax-ns#"
   xmlns:svg="http://www.w3.org/2000/svg"
   xmlns="http://www.w3.org/2000/svg"
   xmlns:sodipodi="http://sodipodi.sourceforge.net/DTD/sodipodi-0.dtd"
   xmlns:inkscape="http://www.inkscape.org/namespaces/inkscape"
   version="1.2"
   baseProfile="tiny"
   x="0px"
   y="0px"
   width="0.49in"
   height="0.14in"
   xml:space="preserve"
   id="svg2"
   sodipodi:version="0.32"
   inkscape:version="0.46"
   sodipodi:docname="basic-diode.svg"
   inkscape:output_extension="org.inkscape.output.svg.inkscape"><defs
   id="defs16"><inkscape:perspective
     sodipodi:type="inkscape:persp3d"
     inkscape:vp_x="0 : 6.3000002 : 1"
     inkscape:vp_y="0 : 1000 : 0"
     inkscape:vp_z="44.100002 : 6.3000002 : 1"
     inkscape:persp3d-origin="22.050001 : 4.2000001 : 1"
     id="perspective18" /></defs><sodipodi:namedview
   inkscape:window-height="748"
   inkscape:window-width="1037"
   inkscape:pageshadow="2"
   inkscape:pageopacity="0.0"
   guidetolerance="10.0"
   gridtolerance="10.0"
   objecttolerance="10.0"
   borderopacity="1.0"
   bordercolor="#666666"
   pagecolor="#ffffff"
   id="base"
   showgrid="false"
   inkscape:zoom="11.313709"
   inkscape:cx="22.856534"
   inkscape:cy="8.182799"
   inkscape:window-x="24"
   inkscape:window-y="77"
   inkscape:current-layer="breadboard" /><metadata
   id="metadata23"><rdf:RDF><cc:Work
       rdf:about=""><dc:format>image/svg+xml</dc:format><dc:type
         rdf:resource="http://purl.org/dc/dcmitype/StillImage" /></cc:Work></rdf:RDF></metadata>
<g
   id="breadboard"
   style="display:inline">











<rect
   y="4.2971067"
   width="2.5"
   height="2.9100001"
   id="connector0pin"
   x="1.1490484"
   style="fill:#868584" /><rect
   x="41.566048"
   y="4.2971067"
   width="2.5"
   height="2.9100001"
   id="connector1pin"
   style="fill:#868584" /><rect
   y="4.2971067"
   width="44.066048"
   height="2.9100001"
   id="rect7"
   x="-2.0934836e-08"
   style="fill:#868584" /><path
   id="Body_1_"
   d="M 14.586048,0.70710675 L 11.586048,0.70710675 C 10.930617,0.70710675 11.045473,10.707107 11.586048,10.707107 L 14.586048,10.707107 C 15.136048,10.707107 30.037048,10.707107 30.588048,10.707107 L 33.588048,10.707107 C 34.300908,10.707107 34.358336,0.70710675 33.588048,0.70710675 L 30.588048,0.70710675 C 30.037048,0.70710675 15.136048,0.70710675 14.586048,0.70710675 z"
   sodipodi:nodetypes="ccccccccc"
   style="fill:#1a1a1a" /><rect
   x="15.457807"
   width="2.7733099"
   height="10"
   id="rect16"
   style="opacity:0.73999999;fill:#ffffff"
   y="0.70710677" /><path
   id="Reflex_1_"
   d="M 11.992298,1.2071067 C 12.992298,1.2071067 13.586048,1.2071067 14.586048,1.2071067 C 15.586048,1.2071067 29.587048,1.2071067 30.587048,1.2071067 C 30.629048,1.2071067 30.899048,1.2071067 31.263048,1.2071067 C 32.043048,1.2071067 32.754048,1.2071067 33.087048,1.2071067 C 33.587048,1.2071067 34.681048,1.7071067 32.587048,1.7071067 C 31.087048,1.7071067 31.587048,1.7071067 30.587048,1.7071067 C 29.587048,1.7071067 15.586048,1.7071067 14.586048,1.7071067 C 13.586048,1.7071067 12.992298,1.7071067 11.992298,1.7071067 C 11.492298,1.7071067 10.992298,1.2071067 11.992298,1.2071067 z"
   sodipodi:nodetypes="csssssssss"
   style="opacity:0.4;fill:#ffffff" /><path
   id="Shaddow_1_"
   d="M 33.587048,10.707107 C 32.587236,10.726519 31.587048,10.707107 30.587048,10.707107 C 29.328048,10.707107 12.589767,10.707107 11.589767,10.707107 C 11.464579,10.707107 11.304173,9.7071067 11.339954,9.7071067 C 13.137454,9.7071067 13.586048,9.7071067 14.586048,9.7071067 C 15.586048,9.7071067 29.587048,9.7071067 30.587048,9.7071067 C 31.587048,9.7071067 32.908647,9.7071067 33.908647,9.7071067 C 33.939897,9.7071067 33.79215,10.703201 33.587048,10.707107 z"
   sodipodi:nodetypes="csssssss"
   style="opacity:0.4" />



  </g>
</svg>