<svg
   xmlns:svg="http://www.w3.org/2000/svg"
   xmlns="http://www.w3.org/2000/svg"
   version="1.2" baseProfile="tiny"
   x="0px" y="0px" 
   width=".28in" height=".37in" 
	  xml:space="preserve">

<rect id="connector0pin" x="0.744" y="-0.001" fill="#B3B3B3" width="2.998" height="3.14"/>
<rect id="connector1pin" x="20.773" y="-0.002" fill="#B3B3B3" width="2.999" height="3.14"/>
<rect id="connector2pin" x="0.786" y="29.841" fill="#B3B3B3" width="2.998" height="3.139"/>
<rect id="connector3pin" x="20.814" y="29.839" fill="#B3B3B3" width="2.999" height="3.139"/>

<g id="breadboard" style="display:inline">
	<g>
	<polygon fill="#B3B3B3" points="20.651,32.978 20.651,21.485 23.867,21.485 23.867,32.978 	"/>
	<polygon fill="#B3B3B3" points="0.661,11.491 0.661,-0.001 3.877,-0.001 3.877,11.491 	"/>
	<polygon fill="#B3B3B3" points="20.651,11.492 20.651,-0.002 23.867,-0.002 23.867,11.492 	"/>
	<polygon fill="#B3B3B3" points="0.662,32.979 0.662,21.486 3.879,21.486 3.879,32.979 	"/>
	<rect x="0.006" y="4.23" width="24.518" height="24.519"/>
	<path fill="#999999" d="M24.523,26.75c0,1.1-0.898,1.999-1.999,1.999H2.005c-1.1,0-1.999-0.899-1.999-1.999V6.228
		c0-1.099,0.899-1.998,1.999-1.998h20.52c1.101,0,1.999,0.899,1.999,1.998V26.75z"/>
	<circle cx="3.577" cy="7.801" r="2.124"/>
	<circle cx="21.011" cy="7.838" r="2.124"/>
	<circle cx="20.974" cy="25.273" r="2.124"/>
	<circle cx="3.54" cy="25.235" r="2.124"/>
	<circle fill="#3F3F3F" cx="12.264" cy="16.489" r="7.15"/>
	
		<linearGradient id="SVGID_1_" gradientUnits="userSpaceOnUse" x1="12.2903" y1="31.2361" x2="12.2903" y2="16.9285" gradientTransform="matrix(0.9994 0 0 -0.9994 -0.0181 40.5569)">
		<stop  offset="0" style="stop-color:#333333"/>
		<stop  offset="1" style="stop-color:#4D4D4D"/>
	</linearGradient>
	<circle fill="url(#SVGID_1_)" cx="12.264" cy="16.489" r="7.15"/>
	<circle opacity="0.6" enable-background="new    " cx="12.389" cy="17.339" r="6.292"/>
	<circle fill="#735348" cx="12.273" cy="16.531" r="6.132"/>
	<path opacity="0.5" fill="#FFFFFF" enable-background="new    " d="M3.302,7.69C3.344,7.59,3.421,7.513,3.529,7.493L3.321,6.155
		C3.24,6.169,3.156,6.158,3.076,6.182L3.074,6.176C2.579,6.329,2.209,6.697,2.02,7.169L3.302,7.69z"/>
	<path opacity="0.5" fill="#FFFFFF" enable-background="new    " d="M20.737,7.726c0.041-0.101,0.118-0.178,0.227-0.197
		l-0.207-1.338c-0.082,0.014-0.166,0.002-0.245,0.027l-0.003-0.007c-0.493,0.153-0.864,0.521-1.053,0.993L20.737,7.726z"/>
	<path opacity="0.5" fill="#FFFFFF" enable-background="new    " d="M20.701,25.161c0.041-0.1,0.118-0.178,0.227-0.197l-0.208-1.337
		c-0.082,0.014-0.166,0.002-0.245,0.027l-0.003-0.009c-0.493,0.154-0.864,0.521-1.052,0.994L20.701,25.161z"/>
	<path opacity="0.5" fill="#FFFFFF" enable-background="new    " d="M3.265,25.124c0.041-0.1,0.118-0.176,0.228-0.196L3.284,23.59
		c-0.082,0.015-0.166,0.002-0.245,0.027l-0.002-0.006c-0.495,0.151-0.865,0.521-1.054,0.993L3.265,25.124z"/>
	<path opacity="0.6" fill="#FFFFFF" enable-background="new    " d="M14.467,10.816c-0.475-0.184-0.975-0.319-1.504-0.378
		c-1.316-0.148-2.576,0.144-3.653,0.742l-0.134,0.348c1.203-0.642,2.603-0.942,4.061-0.779c0.449,0.052,0.881,0.153,1.298,0.284
		L14.467,10.816z"/>
</g></g>

</svg>
