<?xml version="1.0" encoding="UTF-8" standalone="no"?>
<svg
   xmlns:svg="http://www.w3.org/2000/svg"
   xmlns="http://www.w3.org/2000/svg"
   version="1.2" baseProfile="tiny"
	 x="0px" y="0px" width="0.26in" height="0.56in"
	 id="svg2">

  <g
     id="schematic"
     style="display:inline">
    <g>

<rect id="connector0pin" x="11.108" y="30.124" width="1.375" height="19.75"/>
<rect id="connector1pin" x="11.108" y="1.332" width="1.375" height="19.75"/>
<rect id="connector1terminal" x="11.411" y="0.934" width="0.749" height="0.799"/>
<rect id="connector0terminal" x="11.411" y="49.216" width="0.749" height="0.799"/>



<path d="M10.783,22.719V1.667c0-0.553,0.448-0.999,1.001-0.999l0,0c0.553,0,0.999,0.446,0.999,0.999l0,0v21.052
	c0,0.553-0.446,1.001-0.999,1.001l0,0C11.231,23.719,10.783,23.271,10.783,22.719L10.783,22.719z"/>
<path d="M10.784,49.385V28.333c0-0.554,0.448-1.001,0.999-1.001l0,0c0.553,0,1.001,0.447,1.001,1.001l0,0v21.052
	c0,0.551-0.448,0.998-1.001,0.998l0,0C11.232,50.383,10.784,49.935,10.784,49.385L10.784,49.385z"/>

<path d="M1,28.7c-0.554,0-1-0.446-1-0.998l0,0c0-0.554,0.447-1,1-1l0,0h21.051c0.552,0,1.001,0.446,1.001,1l0,0
	c0,0.552-0.449,0.998-1.001,0.998l0,0H1L1,28.7z"/>
<path d="M1,24.097c-0.554,0-1-0.446-1-0.998l0,0c0-0.554,0.447-1,1-1l0,0h21.051c0.552,0,1.001,0.446,1.001,1l0,0
	c0,0.552-0.449,0.998-1.001,0.998l0,0H1L1,24.097z"/>

</g>
</g>
</svg>
