<?xml version='1.0' encoding='utf-8'?>
<!DOCTYPE svg PUBLIC '-//W3C//DTD SVG 1.1 Basic//EN' 'http://www.w3.org/Graphics/SVG/1.1/DTD/svg11-basic.dtd'>
<!-- Generator: Adobe Illustrator 14.0.0, SVG Export Plug-In . SVG Version: 6.00 Build 43363)  -->
<svg xmlns="http://www.w3.org/2000/svg" width="1.8in" xml:space="preserve" xmlns:xml="http://www.w3.org/XML/1998/namespace" x="0px" version="1.1" y="0px" height="3.28in" viewBox="0 0 129.6 236.16" baseProfile="basic" id="svg" >
 <rect xmlns="http://www.w3.org/2000/svg" width="9.962" x="0.001" y="20.323" fill="none" height="1.992" id="connector0pin" />
 <rect xmlns="http://www.w3.org/2000/svg" width="1.992" x="0.001" y="20.323" fill="none" height="1.992" id="connector0terminal" />
 <rect xmlns="http://www.w3.org/2000/svg" width="9.962" x="0.001" y="41.523" fill="none" height="1.992" id="connector1pin" />
 <rect xmlns="http://www.w3.org/2000/svg" width="1.992" x="0.001" y="41.523" fill="none" height="1.992" id="connector1terminal" />
 <rect xmlns="http://www.w3.org/2000/svg" width="9.963" x="0" y="62.722" fill="none" height="1.992" id="connector2pin" />
 <rect xmlns="http://www.w3.org/2000/svg" width="1.992" x="0" y="62.722" fill="none" height="1.992" id="connector2terminal" />
 <rect xmlns="http://www.w3.org/2000/svg" width="9.962" x="0.001" y="83.955" fill="none" height="1.993" id="connector3pin" />
 <rect xmlns="http://www.w3.org/2000/svg" width="1.992" x="0.001" y="83.955" fill="none" height="1.993" id="connector3terminal" />
 <rect xmlns="http://www.w3.org/2000/svg" width="9.962" x="0.001" y="105.156" fill="none" height="1.992" id="connector4pin" />
 <rect xmlns="http://www.w3.org/2000/svg" width="1.992" x="0.001" y="105.156" fill="none" height="1.992" id="connector4terminal" />
 <rect xmlns="http://www.w3.org/2000/svg" width="9.963" x="0" y="126.287" fill="none" height="1.992" id="connector5pin" />
 <rect xmlns="http://www.w3.org/2000/svg" width="1.991" x="0" y="126.287" fill="none" height="1.992" id="connector5terminal" />
 <rect xmlns="http://www.w3.org/2000/svg" width="9.963" x="0" y="147.488" fill="none" height="1.992" id="connector6pin" />
 <rect xmlns="http://www.w3.org/2000/svg" width="1.991" x="0" y="147.488" fill="none" height="1.992" id="connector6terminal" />
 <rect xmlns="http://www.w3.org/2000/svg" width="9.963" x="0" y="168.688" fill="none" height="1.994" id="connector7pin" />
 <rect xmlns="http://www.w3.org/2000/svg" width="1.992" x="0" y="168.688" fill="none" height="1.994" id="connector7terminal" />
 <rect xmlns="http://www.w3.org/2000/svg" width="9.963" x="0" y="189.922" fill="none" height="1.992" id="connector8pin" />
 <rect xmlns="http://www.w3.org/2000/svg" width="1.991" x="0" y="189.922" fill="none" height="1.992" id="connector8terminal" />
 <rect xmlns="http://www.w3.org/2000/svg" width="9.963" x="117.245" y="189.871" fill="none" height="1.992" id="connector9pin" />
 <rect xmlns="http://www.w3.org/2000/svg" width="1.992" x="117.245" y="189.871" fill="none" height="1.992" id="connector9terminal" />
 <rect xmlns="http://www.w3.org/2000/svg" width="9.963" x="117.245" y="168.67" fill="none" height="1.992" id="connector10pin" />
 <rect xmlns="http://www.w3.org/2000/svg" width="1.992" x="117.245" y="168.67" fill="none" height="1.992" id="connector10terminal" />
 <rect xmlns="http://www.w3.org/2000/svg" width="1.992" x="62.581" y="223.424" fill="none" height="9.963" id="connector11pin" />
 <rect xmlns="http://www.w3.org/2000/svg" width="1.992" x="62.581" y="231.396" fill="none" height="1.99" id="connector11terminal" />
 <rect xmlns="http://www.w3.org/2000/svg" width="9.963" x="117.245" y="147.467" fill="none" height="1.992" id="connector12pin" />
 <rect xmlns="http://www.w3.org/2000/svg" width="1.992" x="117.245" y="147.467" fill="none" height="1.992" id="connector12terminal" />
 <rect xmlns="http://www.w3.org/2000/svg" width="9.963" x="117.245" y="126.305" fill="none" height="1.992" id="connector13pin" />
 <rect xmlns="http://www.w3.org/2000/svg" width="1.992" x="117.245" y="126.305" fill="none" height="1.992" id="connector13terminal" />
 <rect xmlns="http://www.w3.org/2000/svg" width="9.963" x="117.245" y="105.104" fill="none" height="1.993" id="connector14pin" />
 <rect xmlns="http://www.w3.org/2000/svg" width="1.992" x="117.245" y="105.104" fill="none" height="1.993" id="connector14terminal" />
 <rect xmlns="http://www.w3.org/2000/svg" width="9.963" x="117.245" y="83.904" fill="none" height="1.992" id="connector15pin" />
 <rect xmlns="http://www.w3.org/2000/svg" width="1.992" x="117.245" y="83.904" fill="none" height="1.992" id="connector15terminal" />
 <rect xmlns="http://www.w3.org/2000/svg" width="9.963" x="117.245" y="62.704" fill="none" height="1.993" id="connector16pin" />
 <rect xmlns="http://www.w3.org/2000/svg" width="1.992" x="117.245" y="62.704" fill="none" height="1.993" id="connector16terminal" />
 <rect xmlns="http://www.w3.org/2000/svg" width="9.963" x="117.245" y="41.522" fill="none" height="1.991" id="connector17pin" />
 <rect xmlns="http://www.w3.org/2000/svg" width="1.992" x="117.245" y="41.522" fill="none" height="1.991" id="connector17terminal" />
 <g xmlns="http://www.w3.org/2000/svg" id="schematic" >
  <line xmlns="http://www.w3.org/2000/svg" fill="none" stroke="#000000" stroke-linecap="round" y1="21.315" stroke-width="2.4" x1="21.202" y2="21.315" x2="0.001" />
  <line xmlns="http://www.w3.org/2000/svg" fill="none" stroke="#000000" stroke-linecap="round" y1="42.519" stroke-width="2.4" x1="21.206" y2="42.519" x2="0.005" />
  <line xmlns="http://www.w3.org/2000/svg" fill="none" stroke="#000000" stroke-linecap="round" y1="63.719" stroke-width="2.4" x1="21.206" y2="63.719" x2="0.005" />
  <line xmlns="http://www.w3.org/2000/svg" fill="none" stroke="#000000" stroke-linecap="round" y1="84.918" stroke-width="2.4" x1="21.206" y2="84.918" x2="0.005" />
  <line xmlns="http://www.w3.org/2000/svg" fill="none" stroke="#000000" stroke-linecap="round" y1="212.186" stroke-width="2.4" x1="63.578" y2="233.387" x2="63.578" />
  <line xmlns="http://www.w3.org/2000/svg" fill="none" stroke="#000000" stroke-linecap="round" y1="42.519" stroke-width="2.4" x1="127.208" y2="42.519" x2="106.007" />
  <line xmlns="http://www.w3.org/2000/svg" fill="none" stroke="#000000" stroke-linecap="round" y1="63.719" stroke-width="2.4" x1="127.208" y2="63.719" x2="106.007" />
  <line xmlns="http://www.w3.org/2000/svg" fill="none" stroke="#000000" stroke-linecap="round" y1="84.918" stroke-width="2.4" x1="127.208" y2="84.918" x2="106.007" />
  <line xmlns="http://www.w3.org/2000/svg" fill="none" stroke="#000000" stroke-linecap="round" y1="106.08" stroke-width="2.4" x1="21.202" y2="106.08" x2="0.001" />
  <line xmlns="http://www.w3.org/2000/svg" fill="none" stroke="#000000" stroke-linecap="round" y1="127.283" stroke-width="2.4" x1="21.206" y2="127.283" x2="0.005" />
  <line xmlns="http://www.w3.org/2000/svg" fill="none" stroke="#000000" stroke-linecap="round" y1="148.484" stroke-width="2.4" x1="21.206" y2="148.484" x2="0.005" />
  <line xmlns="http://www.w3.org/2000/svg" fill="none" stroke="#000000" stroke-linecap="round" y1="169.684" stroke-width="2.4" x1="21.206" y2="169.684" x2="0.005" />
  <line xmlns="http://www.w3.org/2000/svg" fill="none" stroke="#000000" stroke-linecap="round" y1="190.918" stroke-width="2.4" x1="21.206" y2="190.918" x2="0.005" />
  <line xmlns="http://www.w3.org/2000/svg" fill="none" stroke="#000000" stroke-linecap="round" y1="106.084" stroke-width="2.4" x1="127.208" y2="106.084" x2="106.007" />
  <line xmlns="http://www.w3.org/2000/svg" fill="none" stroke="#000000" stroke-linecap="round" y1="127.283" stroke-width="2.4" x1="127.208" y2="127.283" x2="106.007" />
  <line xmlns="http://www.w3.org/2000/svg" fill="none" stroke="#000000" stroke-linecap="round" y1="148.484" stroke-width="2.4" x1="127.208" y2="148.484" x2="106.007" />
  <line xmlns="http://www.w3.org/2000/svg" fill="none" stroke="#000000" stroke-linecap="round" y1="169.684" stroke-width="2.4" x1="127.208" y2="169.684" x2="106.007" />
  <line xmlns="http://www.w3.org/2000/svg" fill="none" stroke="#000000" stroke-linecap="round" y1="190.918" stroke-width="2.4" x1="127.208" y2="190.918" x2="106.007" />
  <polygon xmlns="http://www.w3.org/2000/svg" fill="none" points="21.206,0.118 106.007,0.118 105.978,212.186 21.178,212.186 &#x9;&#xd;&#xa;&#x9;&#x9;" stroke="#000000" stroke-width="2.4016" />
  <g xmlns="http://www.w3.org/2000/svg">
   <path xmlns="http://www.w3.org/2000/svg" d="M79.011,65.768l-0.842,7.992L65.112,90.288l0.84-7.993L79.011,65.768" />
   <path xmlns="http://www.w3.org/2000/svg" d="M48.604,65.666l9.584,16.526l-0.86,8.199l-9.584-16.527L48.604,65.666" />
   <path xmlns="http://www.w3.org/2000/svg" d="M64.017,100.717l9.582,16.526l-0.861,8.195l-9.583-16.527L64.017,100.717" />
   <path xmlns="http://www.w3.org/2000/svg" d="M56.233,100.819l-0.841,7.989l-13.059,16.527l0.841-7.99L56.233,100.819" />
   <path xmlns="http://www.w3.org/2000/svg" d="M62.959,99.438l-2.866,27.267h-5.387l2.865-27.267H62.959" />
   <path xmlns="http://www.w3.org/2000/svg" d="M66.64,64.402l-2.866,27.27H58.39l2.865-27.27H66.64" />
   <path xmlns="http://www.w3.org/2000/svg" d="M60.36,92.856l-0.567,5.396H44.785l-2.374-2.655l3.029-2.741H60.36" />
   <path xmlns="http://www.w3.org/2000/svg" d="M76.556,92.856l2.377,2.652l-3.029,2.744H60.983l0.569-5.396H76.556" />
   <path xmlns="http://www.w3.org/2000/svg" d="M84.531,60.337c0.924,1.262,1.334,2.84,1.156,4.509l-2.85,27.131l-3.025,2.736l-2.371-2.648l2.848-27.095&#xd;&#xa;&#x9;&#x9;&#x9;c0.023-0.246-0.004-0.488-0.086-0.714L84.531,60.337" />
   <path xmlns="http://www.w3.org/2000/svg" d="M79.724,96.395l2.371,2.647l-2.846,27.09c-0.184,1.715-0.957,3.342-2.201,4.633l-3.424-3.822&#xd;&#xa;&#x9;&#x9;&#x9;c0.121-0.213,0.197-0.445,0.223-0.686l2.85-27.126L79.724,96.395" />
   <path xmlns="http://www.w3.org/2000/svg" d="M88.392,126.932c1.752,0,3.176,1.426,3.176,3.176c0,1.752-1.424,3.178-3.176,3.178c-1.75,0-3.178-1.426-3.178-3.178&#xd;&#xa;&#x9;&#x9;&#x9;C85.216,128.357,86.642,126.932,88.392,126.932" />
   <path xmlns="http://www.w3.org/2000/svg" d="M41.531,96.395l2.371,2.65l-2.848,27.091c-0.025,0.242,0.005,0.484,0.086,0.709l-4.328,3.916&#xd;&#xa;&#x9;&#x9;&#x9;c-0.924-1.258-1.332-2.836-1.157-4.502l2.852-27.127L41.531,96.395" />
   <path xmlns="http://www.w3.org/2000/svg" d="M41.934,127.73c0.215,0.104,0.452,0.158,0.695,0.158h14.05l-0.566,5.395H41.937c-1.667,0-3.183-0.578-4.333-1.637&#xd;&#xa;&#x9;&#x9;&#x9;L41.934,127.73" />
   <path xmlns="http://www.w3.org/2000/svg" d="M72.741,127.738l3.426,3.826c-1.41,1.111-3.102,1.721-4.816,1.721H57.305l0.566-5.395h14.171&#xd;&#xa;&#x9;&#x9;&#x9;C72.282,127.889,72.519,127.838,72.741,127.738" />
   <path xmlns="http://www.w3.org/2000/svg" d="M44.299,60.335l3.421,3.826c-0.121,0.21-0.198,0.444-0.225,0.686l-2.85,27.131l-3.025,2.736l-2.371-2.648l2.848-27.095&#xd;&#xa;&#x9;&#x9;&#x9;C42.278,63.254,43.054,61.629,44.299,60.335" />
   <path xmlns="http://www.w3.org/2000/svg" d="M79.406,57.82c1.668,0,3.186,0.577,4.334,1.635l-4.33,3.918c-0.215-0.104-0.451-0.156-0.695-0.156h-14.05l0.567-5.397&#xd;&#xa;&#x9;&#x9;&#x9;L79.406,57.82" />
   <path xmlns="http://www.w3.org/2000/svg" d="M64.04,57.82l-0.565,5.397H49.302c-0.239,0-0.478,0.052-0.699,0.147l-3.425-3.829c1.412-1.111,3.101-1.717,4.813-1.717&#xd;&#xa;&#x9;&#x9;&#x9;L64.04,57.82" />
  </g>
 </g>
</svg>
