<?xml version='1.0' encoding='UTF-8' standalone='no'?>
<svg xmlns="http://www.w3.org/2000/svg" width="1.52222in" x="0in" version="1.2" y="0in"  height="2.12222in" viewBox="0 0 1522.22 2122.22" baseProfile="tiny" xmlns:svg="http://www.w3.org/2000/svg" >
 <g  id="schematic" >
  <rect width="1200" x="315" y="15" fill="none"  height="2100" stroke="#000000" stroke-linejoin="round" stroke-linecap="round" stroke-width="30" />
  <text x="915" y="1065" fill="#000000" font-family="DroidSans"  text-anchor="middle" stroke="none" id="label" stroke-width="0" font-size="235" >ADXL3xx</text>
  <line fill="none"  stroke="#000000" stroke-linejoin="round" stroke-linecap="round" y1="315" stroke-width="30" x1="15" y2="315" x2="300" />
  <rect width="300" x="0" y="300" fill="none"  height="30" id="connector0pin" stroke-width="0" />
  <rect width="30" x="0" y="300" fill="none"  height="30" id="connector0terminal" stroke-width="0" />
  <text x="390" y="350" font-family="DroidSans" fill="#000000"  text-anchor="start" stroke="none" id="label0" stroke-width="0" font-size="130" >ST</text>
  <line fill="none"  stroke="#000000" stroke-linejoin="round" stroke-linecap="round" y1="615" stroke-width="30" x1="15" y2="615" x2="300" />
  <rect width="300" x="0" y="600" fill="none"  height="30" id="connector1pin" stroke-width="0" />
  <rect width="30" x="0" y="600" fill="none"  height="30" id="connector1terminal" stroke-width="0" />
  <text x="390" y="650" font-family="DroidSans" fill="#000000"  text-anchor="start" stroke="none" id="label1" stroke-width="0" font-size="130" >Z</text>
  <line fill="none"  stroke="#000000" stroke-linejoin="round" stroke-linecap="round" y1="915" stroke-width="30" x1="15" y2="915" x2="300" />
  <rect width="300" x="0" y="900" fill="none"  height="30" id="connector2pin" stroke-width="0" />
  <rect width="30" x="0" y="900" fill="none"  height="30" id="connector2terminal" stroke-width="0" />
  <text x="390" y="950" font-family="DroidSans" fill="#000000"  text-anchor="start" stroke="none" id="label2" stroke-width="0" font-size="130" >Y</text>
  <line fill="none"  stroke="#000000" stroke-linejoin="round" stroke-linecap="round" y1="1215" stroke-width="30" x1="15" y2="1215" x2="300" />
  <rect width="300" x="0" y="1200" fill="none"  height="30" id="connector3pin" stroke-width="0" />
  <rect width="30" x="0" y="1200" fill="none"  height="30" id="connector3terminal" stroke-width="0" />
  <text x="390" y="1250" font-family="DroidSans" fill="#000000"  text-anchor="start" stroke="none" id="label3" stroke-width="0" font-size="130" >X</text>
  <line fill="none"  stroke="#000000" stroke-linejoin="round" stroke-linecap="round" y1="1515" stroke-width="30" x1="15" y2="1515" x2="300" />
  <rect width="300" x="0" y="1500" fill="none"  height="30" id="connector4pin" stroke-width="0" />
  <rect width="30" x="0" y="1500" fill="none"  height="30" id="connector4terminal" stroke-width="0" />
  <text x="390" y="1550" font-family="DroidSans" fill="#000000"  text-anchor="start" stroke="none" id="label4" stroke-width="0" font-size="130" >GND</text>
  <line fill="none"  stroke="#000000" stroke-linejoin="round" stroke-linecap="round" y1="1815" stroke-width="30" x1="15" y2="1815" x2="300" />
  <rect width="300" x="0" y="1800" fill="none"  height="30" id="connector5pin" stroke-width="0" />
  <rect width="30" x="0" y="1800" fill="none"  height="30" id="connector5terminal" stroke-width="0" />
  <text x="390" y="1850" font-family="DroidSans" fill="#000000"  text-anchor="start" stroke="none" id="label5" stroke-width="0" font-size="130" >VCC</text>
 </g>
</svg>
