<?xml version="1.0" encoding="utf-8"?>
<!-- Generator: Adobe Illustrator 14.0.0, SVG Export Plug-In . SVG Version: 6.00 Build 43363)  -->
<!DOCTYPE svg PUBLIC "-//W3C//DTD SVG 1.1//EN" "http://www.w3.org/Graphics/SVG/1.1/DTD/svg11.dtd">
<svg version="1.1" id="Layer_3" xmlns="http://www.w3.org/2000/svg" xmlns:xlink="http://www.w3.org/1999/xlink" x="0px" y="0px"
	 width="214.92px" height="405.359px" viewBox="-190.18 623.625 214.92 405.359"
	 enable-background="new -190.18 623.625 214.92 405.359" xml:space="preserve">
<g id="schematic">
	<rect id="connector12pin" x="-190.141" y="708.629" fill="none" width="10.488" height="2.101"/>
	<rect id="connector27pin" x="11.726" y="687.18" fill="none" width="10.488" height="2.101"/>
	<rect id="connector26pin" x="11.732" y="708.417" fill="none" width="10.488" height="2.1"/>
	<rect id="connector25pin" x="11.732" y="729.654" fill="none" width="10.488" height="2.1"/>
	<rect id="connector24pin" x="11.732" y="750.891" fill="none" width="10.488" height="2.1"/>
	<rect id="connector23pin" x="11.732" y="772.127" fill="none" width="10.488" height="2.1"/>
	<rect id="connector22pin" x="11.732" y="793.364" fill="none" width="10.488" height="2.099"/>
	<rect id="connector21pin" x="11.732" y="814.599" fill="none" width="10.488" height="2.101"/>
	<rect id="connector20pin" x="11.732" y="835.836" fill="none" width="10.488" height="2.101"/>
	<rect id="connector19pin" x="11.732" y="857.073" fill="none" width="10.488" height="2.1"/>
	<rect id="connector18pin" x="11.732" y="878.308" fill="none" width="10.488" height="2.1"/>
	<rect id="connector17pin" x="11.732" y="899.545" fill="none" width="10.488" height="2.101"/>
	<rect id="connector16pin" x="11.732" y="920.782" fill="none" width="10.488" height="2.098"/>
	<rect id="connector9pin" x="11.732" y="942.015" fill="none" width="10.488" height="2.102"/>
	<rect id="connector10pin" x="11.732" y="963.252" fill="none" width="10.488" height="2.101"/>
	<rect id="connector8pin" x="-190.15" y="687.392" fill="none" width="10.488" height="2.101"/>
	<rect id="connector14pin" x="-86.21" y="624.599" fill="none" width="2.1" height="10.487"/>
	<rect id="connector13pin" x="-85.033" y="1017.521" fill="none" width="2.097" height="10.487"/>
	<rect id="connector15pin" x="-85.029" y="1017.521" fill="none" width="2.099" height="10.487"/>
	<rect id="connector7pin" x="-190.18" y="814.76" fill="none" width="10.488" height="2.101"/>
	<rect id="connector6pin" x="-190.18" y="835.998" fill="none" width="10.488" height="2.101"/>
	<rect id="connector5pin" x="-190.18" y="857.234" fill="none" width="10.488" height="2.099"/>
	<rect id="connector4pin" x="-190.18" y="878.469" fill="none" width="10.488" height="2.1"/>
	<rect id="connector3pin" x="-190.18" y="899.709" fill="none" width="10.488" height="2.099"/>
	<rect id="connector2pin" x="-190.18" y="920.944" fill="none" width="10.488" height="2.099"/>
	<rect id="connector12terminal" x="-190.141" y="708.629" fill="none" width="1.995" height="2.101"/>
	<rect id="connector27terminal" x="20.22" y="687.18" fill="none" width="1.995" height="2.101"/>
	<rect id="connector26terminal" x="20.228" y="708.417" fill="none" width="1.994" height="2.1"/>
	<rect id="connector25terminal" x="20.228" y="729.654" fill="none" width="1.994" height="2.1"/>
	<rect id="connector24terminal" x="20.228" y="750.891" fill="none" width="1.994" height="2.1"/>
	<rect id="connector23terminal" x="20.228" y="772.127" fill="none" width="1.994" height="2.1"/>
	<rect id="connector22terminal" x="20.228" y="793.364" fill="none" width="1.994" height="2.099"/>
	<rect id="connector21terminal" x="20.228" y="814.599" fill="none" width="1.994" height="2.101"/>
	<rect id="connector20terminal" x="20.228" y="835.836" fill="none" width="1.994" height="2.101"/>
	<rect id="connector19terminal" x="20.228" y="857.073" fill="none" width="1.994" height="2.1"/>
	<rect id="connector18terminal" x="20.228" y="878.308" fill="none" width="1.994" height="2.1"/>
	<rect id="connector17terminal" x="20.228" y="899.545" fill="none" width="1.994" height="2.101"/>
	<rect id="connector16terminal" x="20.228" y="920.782" fill="none" width="1.994" height="2.098"/>
	<rect id="connector9terminal" x="20.228" y="942.015" fill="none" width="1.994" height="2.102"/>
	<rect id="connector10terminal" x="20.228" y="963.252" fill="none" width="1.994" height="2.101"/>
	<rect id="connector8terminal" x="-190.15" y="687.392" fill="none" width="1.995" height="2.101"/>
	<rect id="connector14terminal" x="-86.21" y="624.599" fill="none" width="2.1" height="1.994"/>
	<rect id="connector13terminal" x="-85.033" y="1026.017" fill="none" width="2.097" height="1.991"/>
	<rect id="connector15terminal" x="-85.029" y="1026.017" fill="none" width="2.099" height="1.991"/>
	<rect id="connector7terminal" x="-190.18" y="814.76" fill="none" width="1.995" height="2.101"/>
	<rect id="connector6terminal" x="-190.18" y="835.998" fill="none" width="1.995" height="2.101"/>
	<rect id="connector5terminal" x="-190.18" y="857.234" fill="none" width="1.995" height="2.099"/>
	<rect id="connector4terminal" x="-190.18" y="878.469" fill="none" width="1.995" height="2.1"/>
	<rect id="connector3terminal" x="-190.18" y="899.709" fill="none" width="1.995" height="2.099"/>
	<rect id="connector2terminal" x="-190.18" y="920.944" fill="none" width="1.995" height="2.099"/>
	<rect id="connector11pin" x="-86.211" y="623.625" fill="none" width="2.101" height="10.488"/>
	<rect id="connector11terminal" x="-86.211" y="623.625" fill="none" width="2.101" height="1.995"/>
	<rect id="connector1pin" x="-190.18" y="941.709" fill="none" width="10.488" height="2.099"/>
	<rect id="connector0pin" x="-190.18" y="962.944" fill="none" width="10.488" height="2.099"/>
	<rect id="connector1terminal" x="-190.18" y="941.709" fill="none" width="1.995" height="2.099"/>
	<rect id="connector0terminal" x="-190.18" y="962.944" fill="none" width="1.995" height="2.099"/>
	<g>
		
			<rect x="-168.993" y="645.836" fill="none" stroke="#000000" stroke-width="2.415" stroke-linecap="round" stroke-linejoin="round" width="169.971" height="360.937"/>
		
			<line fill="none" stroke="#000000" stroke-width="2.2495" stroke-linecap="round" stroke-linejoin="round" x1="-190.148" y1="688.275" x2="-168.912" y2="688.275"/>
		
			<line fill="none" stroke="#000000" stroke-width="2.415" stroke-linecap="round" stroke-linejoin="round" x1="-190.141" y1="709.51" x2="-168.993" y2="709.51"/>
		
			<line fill="none" stroke="#000000" stroke-width="2.415" stroke-linecap="round" stroke-linejoin="round" x1="-190.18" y1="815.642" x2="-168.993" y2="815.642"/>
		
			<line fill="none" stroke="#000000" stroke-width="2.415" stroke-linecap="round" stroke-linejoin="round" x1="-190.18" y1="836.879" x2="-168.993" y2="836.879"/>
		
			<line fill="none" stroke="#000000" stroke-width="2.415" stroke-linecap="round" stroke-linejoin="round" x1="-190.18" y1="858.115" x2="-168.993" y2="858.115"/>
		
			<line fill="none" stroke="#000000" stroke-width="2.415" stroke-linecap="round" stroke-linejoin="round" x1="-190.18" y1="879.349" x2="-168.993" y2="879.349"/>
		
			<line fill="none" stroke="#000000" stroke-width="2.415" stroke-linecap="round" stroke-linejoin="round" x1="-190.18" y1="900.588" x2="-168.993" y2="900.588"/>
		
			<line fill="none" stroke="#000000" stroke-width="2.415" stroke-linecap="round" stroke-linejoin="round" x1="-190.18" y1="921.825" x2="-168.993" y2="921.825"/>
		
			<line fill="none" stroke="#000000" stroke-width="1.9517" stroke-linecap="round" stroke-linejoin="round" x1="22.214" y1="688.399" x2="0.979" y2="688.399"/>
		
			<line fill="none" stroke="#000000" stroke-width="2.415" stroke-linecap="round" stroke-linejoin="round" x1="22.221" y1="709.635" x2="0.979" y2="709.635"/>
		
			<line fill="none" stroke="#000000" stroke-width="2.415" stroke-linecap="round" stroke-linejoin="round" x1="22.221" y1="730.872" x2="0.979" y2="730.872"/>
		
			<line fill="none" stroke="#000000" stroke-width="2.415" stroke-linecap="round" stroke-linejoin="round" x1="22.221" y1="752.108" x2="0.979" y2="752.108"/>
		
			<line fill="none" stroke="#000000" stroke-width="2.415" stroke-linecap="round" stroke-linejoin="round" x1="22.221" y1="773.344" x2="0.979" y2="773.344"/>
		
			<line fill="none" stroke="#000000" stroke-width="2.415" stroke-linecap="round" stroke-linejoin="round" x1="22.221" y1="794.581" x2="0.979" y2="794.581"/>
		
			<line fill="none" stroke="#000000" stroke-width="2.415" stroke-linecap="round" stroke-linejoin="round" x1="22.221" y1="815.817" x2="0.979" y2="815.817"/>
		
			<line fill="none" stroke="#000000" stroke-width="2.415" stroke-linecap="round" stroke-linejoin="round" x1="22.221" y1="837.052" x2="0.979" y2="837.052"/>
		
			<line fill="none" stroke="#000000" stroke-width="2.415" stroke-linecap="round" stroke-linejoin="round" x1="22.221" y1="858.29" x2="0.979" y2="858.29"/>
		
			<line fill="none" stroke="#000000" stroke-width="2.415" stroke-linecap="round" stroke-linejoin="round" x1="22.221" y1="879.526" x2="0.979" y2="879.526"/>
		
			<line fill="none" stroke="#000000" stroke-width="2.415" stroke-linecap="round" stroke-linejoin="round" x1="22.221" y1="900.76" x2="0.979" y2="900.76"/>
		
			<line fill="none" stroke="#000000" stroke-width="2.415" stroke-linecap="round" stroke-linejoin="round" x1="22.221" y1="922" x2="0.979" y2="922"/>
		
			<line fill="none" stroke="#000000" stroke-width="2.415" stroke-linecap="round" stroke-linejoin="round" x1="22.221" y1="943.235" x2="0.979" y2="943.235"/>
		
			<line fill="none" stroke="#000000" stroke-width="2.415" stroke-linecap="round" stroke-linejoin="round" x1="22.221" y1="964.47" x2="0.979" y2="964.47"/>
		<text transform="matrix(1 0 0 1 -161.0193 690.9919)" font-family="'DroidSans'" font-size="9.9889">D</text>
		<text transform="matrix(1 0 0 1 -154.4846 690.9919)" font-family="'DroidSans'" font-size="9.9889">T</text>
		<text transform="matrix(1 0 0 1 -149.2996 690.9919)" font-family="'DroidSans'" font-size="9.9889">R</text>
		<text transform="matrix(1 0 0 1 -161.0178 712.0603)" font-family="'DroidSans'" font-size="9.9889">AREF</text>
		<text transform="matrix(1 0 0 1 -159.1472 818.1345)" font-family="'DroidSans'" font-size="9.9889">A0</text>
		<text transform="matrix(1 0 0 1 -159.1472 839.5701)" font-family="'DroidSans'" font-size="9.9889">A1</text>
		<text transform="matrix(1 0 0 1 -159.1472 861.0095)" font-family="'DroidSans'" font-size="9.9889">A2</text>
		<text transform="matrix(1 0 0 1 -159.1472 882.447)" font-family="'DroidSans'" font-size="9.9889">A3</text>
		<text transform="matrix(1 0 0 1 -159.1472 903.8845)" font-family="'DroidSans'" font-size="9.9889">A4</text>
		<text transform="matrix(1 0 0 1 -159.1472 925.323)" font-family="'DroidSans'" font-size="9.9889">A5</text>
		
			<line fill="none" stroke="#000000" stroke-width="2.415" stroke-linecap="round" stroke-linejoin="round" x1="-190.18" y1="942.588" x2="-168.993" y2="942.588"/>
		
			<line fill="none" stroke="#000000" stroke-width="2.415" stroke-linecap="round" stroke-linejoin="round" x1="-190.18" y1="963.825" x2="-168.993" y2="963.825"/>
		<text transform="matrix(1 0 0 1 -159.1472 945.8845)" font-family="'DroidSans'" font-size="9.9889">A6</text>
		<text transform="matrix(1 0 0 1 -159.1472 967.323)" font-family="'DroidSans'" font-size="9.9889">A7</text>
		
			<line fill="none" stroke="#000000" stroke-width="1.9517" stroke-linecap="round" stroke-linejoin="round" x1="-85.206" y1="645.836" x2="-85.206" y2="624.599"/>
		<text transform="matrix(1 0 0 1 -93.5481 662.9958)" font-family="'DroidSans'" font-size="9.9889">3V3</text>
		<text transform="matrix(0 1 -1 0 -134.1033 861.9021)" font-family="'DroidSans'" font-size="9.9889">Analog Input</text>
		<text transform="matrix(1 0 0 1 -28.7263 733.3083)" font-family="'DroidSans'" font-size="9.9889">D11</text>
		<text transform="matrix(1 0 0 1 -28.7263 754.9177)" font-family="'DroidSans'" font-size="9.9889">D10</text>
		<text transform="matrix(1 0 0 1 -23.2244 776.0994)" font-family="'DroidSans'" font-size="9.9889">D9</text>
		<text transform="matrix(1 0 0 1 -23.2244 796.8572)" font-family="'DroidSans'" font-size="9.9889">D8</text>
		<text transform="matrix(1 0 0 1 -23.2244 818.4666)" font-family="'DroidSans'" font-size="9.9889">D7</text>
		<text transform="matrix(1 0 0 1 -23.2244 839.2244)" font-family="'DroidSans'" font-size="9.9889">D6</text>
		<text transform="matrix(1 0 0 1 -23.2244 860.8308)" font-family="'DroidSans'" font-size="9.9889">D5</text>
		<text transform="matrix(1 0 0 1 -23.2244 882.0134)" font-family="'DroidSans'" font-size="9.9889">D4</text>
		<text transform="matrix(1 0 0 1 -23.2244 903.6208)" font-family="'DroidSans'" font-size="9.9889">D3</text>
		<text transform="matrix(1 0 0 1 4.2659 897.5623)" font-family="'DroidSans'" font-size="6.9922">PWM</text>
		<text transform="matrix(1 0 0 1 5.2581 939.7224)" font-family="'DroidSans'" font-size="6.9922">TX</text>
		<text transform="matrix(1 0 0 1 5.2581 960.1189)" font-family="'DroidSans'" font-size="6.9922">RX</text>
		<text transform="matrix(1 0 0 1 4.2659 770.4255)" font-family="'DroidSans'" font-size="6.9922">PWM</text>
		<text transform="matrix(1 0 0 1 4.2659 749.0876)" font-family="'DroidSans'" font-size="6.9922">PWM</text>
		<text transform="matrix(1 0 0 1 4.2659 855.0505)" font-family="'DroidSans'" font-size="6.9922">PWM</text>
		<text transform="matrix(1 0 0 1 4.2659 833.7126)" font-family="'DroidSans'" font-size="6.9922">PWM</text>
		<text transform="matrix(1 0 0 1 4.2659 727.9607)" font-family="'DroidSans'" font-size="6.9922">PWM</text>
		<text transform="matrix(1 0 0 1 -23.2244 924.3787)" font-family="'DroidSans'" font-size="9.9889">D2</text>
		<text transform="matrix(1 0 0 1 -23.2244 945.9861)" font-family="'DroidSans'" font-size="9.9889">T</text>
		<text transform="matrix(1 0 0 1 -18.0388 945.9861)" font-family="'DroidSans'" font-size="9.9889">X</text>
		<text transform="matrix(1 0 0 1 -12.7771 945.9861)" font-family="'DroidSans'" font-size="9.9889">O</text>
		<text transform="matrix(1 0 0 1 -28.7263 690.9431)" font-family="'DroidSans'" font-size="9.9889">D13</text>
		<text transform="matrix(1 0 0 1 -28.7263 712.1248)" font-family="'DroidSans'" font-size="9.9889">D12</text>
		<text transform="matrix(1 0 0 1 -23.2244 967.1687)" font-family="'DroidSans'" font-size="9.9889">RXI</text>
		<text transform="matrix(0 -1 1 0 -34.5056 866.0583)" font-family="'DroidSans'" font-size="9.9889">Digital Input/Output</text>
		<text transform="matrix(1 0 0 1 -98.1594 677.5427)" font-family="'DroidSans'" font-size="9.9889">Power</text>
		<text transform="matrix(1 0 0 1 -118.7634 735.7458)" font-family="'DroidSans'" font-size="17.98">Arduino </text>
		<text transform="matrix(1 0 0 1 -96.2634 755.2458)" font-family="'DroidSans'" font-size="17.98">Fio</text>
		
			<line fill="none" stroke="#000000" stroke-width="1.9517" stroke-linecap="round" stroke-linejoin="round" x1="-83.981" y1="1028.01" x2="-83.981" y2="1006.771"/>
		<text transform="matrix(1 0 0 1 -94.5125 996.5847)" font-family="'DroidSans'" font-size="9.9889">GND</text>
		<polygon points="14.906,934.825 19.61,937.542 14.906,940.258 		"/>
		<polygon points="19.61,960.87 14.906,958.149 19.61,955.433 		"/>
	</g>
</g>
</svg>
