<?xml version="1.0" encoding="UTF-8" standalone="no"?>
<!-- Generated by the Fritzing Team. http://www.fritzing.org. CreativeCommons:BY -->
<!-- This file was created through a template.-->
<svg
   xmlns:dc="http://purl.org/dc/elements/1.1/"
   xmlns:cc="http://creativecommons.org/ns#"
   xmlns:rdf="http://www.w3.org/1999/02/22-rdf-syntax-ns#"
   xmlns:svg="http://www.w3.org/2000/svg"
   xmlns="http://www.w3.org/2000/svg"
   xmlns:sodipodi="http://sodipodi.sourceforge.net/DTD/sodipodi-0.dtd"
   xmlns:inkscape="http://www.inkscape.org/namespaces/inkscape"
   version="1.2"
   baseProfile="tiny"
   id="Layer_1"
   x="0px"
   y="0px"
   width="174.3px"
   height="370.3px"
   viewBox="0 0 174.3 370.3"
   xml:space="preserve"
   sodipodi:version="0.32"
   inkscape:version="0.46"
   sodipodi:docname="atmega168_schematic.svg"
   inkscape:output_extension="org.inkscape.output.svg.inkscape"><metadata
   id="metadata180"><rdf:RDF><cc:Work
       rdf:about=""><dc:format>image/svg+xml</dc:format><dc:type
         rdf:resource="http://purl.org/dc/dcmitype/StillImage" /></cc:Work></rdf:RDF></metadata><defs
   id="defs178"><inkscape:perspective
     sodipodi:type="inkscape:persp3d"
     inkscape:vp_x="0 : 185.14999 : 1"
     inkscape:vp_y="0 : 1000 : 0"
     inkscape:vp_z="174.3 : 185.14999 : 1"
     inkscape:persp3d-origin="87.150002 : 123.43333 : 1"
     id="perspective182" /></defs><sodipodi:namedview
   inkscape:window-height="480"
   inkscape:window-width="640"
   inkscape:pageshadow="2"
   inkscape:pageopacity="0.0"
   guidetolerance="10.0"
   gridtolerance="10.0"
   objecttolerance="10.0"
   borderopacity="1.0"
   bordercolor="#666666"
   pagecolor="#ffffff"
   id="base"
   showgrid="false" />
	
<rect
   id="connector0pin"
   fill="none"
   x="1.15"
   y="15.15"
   width="10"
   height="2" />
<rect
   id="connector1pin"
   fill="none"
   x="1.15"
   y="41.15"
   width="10"
   height="2" />
<rect
   id="connector2pin"
   fill="none"
   x="1.15"
   y="67.15"
   width="10"
   height="2" />
<rect
   id="connector3pin"
   fill="none"
   x="1.15"
   y="93.15"
   width="10"
   height="2" />
<rect
   id="connector4pin"
   fill="none"
   x="1.15"
   y="119.15"
   width="10"
   height="2" />
<rect
   id="connector5pin"
   fill="none"
   x="1.15"
   y="145.15"
   width="10"
   height="2" />
<rect
   id="connector6pin"
   fill="none"
   x="1.15"
   y="171.15"
   width="10"
   height="2" />
<rect
   id="connector7pin"
   fill="none"
   x="1.15"
   y="197.15"
   width="10"
   height="2" />
<rect
   id="connector8pin"
   fill="none"
   x="1.15"
   y="223.15"
   width="10"
   height="2" />
<rect
   id="connector9pin"
   fill="none"
   x="1.15"
   y="249.15"
   width="10"
   height="2" />
<rect
   id="connector10pin"
   fill="none"
   x="1.15"
   y="275.15"
   width="10"
   height="2" />
<rect
   id="connector11pin"
   fill="none"
   x="1.15"
   y="301.15"
   width="10"
   height="2" />
<rect
   id="connector12pin"
   fill="none"
   x="1.15"
   y="327.15"
   width="10"
   height="2" />
<rect
   id="connector13pin"
   fill="none"
   x="1.15"
   y="353.15"
   width="10"
   height="2" />
<rect
   id="connector14pin"
   fill="none"
   x="163.15"
   y="353.15"
   width="10"
   height="2" />
<rect
   id="connector15pin"
   fill="none"
   x="163.15"
   y="327.15"
   width="10"
   height="2" />
<rect
   id="connector16pin"
   fill="none"
   x="163.15"
   y="301.15"
   width="10"
   height="2" />
<rect
   id="connector17pin"
   fill="none"
   x="163.15"
   y="275.15"
   width="10"
   height="2" />
<rect
   id="connector18pin"
   fill="none"
   x="163.15"
   y="249.15"
   width="10"
   height="2" />
<rect
   id="connector19pin"
   fill="none"
   x="163.15"
   y="223.15"
   width="10"
   height="2" />
<rect
   id="connector20pin"
   fill="none"
   x="163.15"
   y="197.15"
   width="10"
   height="2" />
<rect
   id="connector21pin"
   fill="none"
   x="163.15"
   y="171.15"
   width="10"
   height="2" />
<rect
   id="connector22pin"
   fill="none"
   x="163.15"
   y="145.15"
   width="10"
   height="2" />
<rect
   id="connector23pin"
   fill="none"
   x="163.15"
   y="119.15"
   width="10"
   height="2" />
<rect
   id="connector24pin"
   fill="none"
   x="163.15"
   y="93.15"
   width="10"
   height="2" />
<rect
   id="connector25pin"
   fill="none"
   x="163.15"
   y="67.15"
   width="10"
   height="2" />
<rect
   id="connector26pin"
   fill="none"
   x="163.15"
   y="41.15"
   width="10"
   height="2" />
<rect
   id="connector27pin"
   fill="none"
   x="163.15"
   y="15.15"
   width="10"
   height="2" />
<rect
   id="connector0terminal"
   fill="none"
   x="1.15"
   y="15.15"
   width="2"
   height="2" />
<rect
   id="connector1terminal"
   fill="none"
   x="1.15"
   y="41.15"
   width="2"
   height="2" />
<rect
   id="connector2terminal"
   fill="none"
   x="1.15"
   y="67.15"
   width="2"
   height="2" />
<rect
   id="connector3terminal"
   fill="none"
   x="1.15"
   y="93.15"
   width="2"
   height="2" />
<rect
   id="connector4terminal"
   fill="none"
   x="1.15"
   y="119.15"
   width="2"
   height="2" />
<rect
   id="connector5terminal"
   fill="none"
   x="1.15"
   y="145.15"
   width="2"
   height="2" />
<rect
   id="connector6terminal"
   fill="none"
   x="1.15"
   y="171.15"
   width="2"
   height="2" />
<rect
   id="connector7terminal"
   fill="none"
   x="1.15"
   y="197.15"
   width="2"
   height="2" />
<rect
   id="connector8terminal"
   fill="none"
   x="1.15"
   y="223.15"
   width="2"
   height="2" />
<rect
   id="connector9terminal"
   fill="none"
   x="1.15"
   y="249.15"
   width="2"
   height="2" />
<rect
   id="connector10terminal"
   fill="none"
   x="1.15"
   y="275.15"
   width="2"
   height="2" />
<rect
   id="connector11terminal"
   fill="none"
   x="1.15"
   y="301.15"
   width="2"
   height="2" />
<rect
   id="connector12terminal"
   fill="none"
   x="1.15"
   y="327.15"
   width="2"
   height="2" />
<rect
   id="connector13terminal"
   fill="none"
   x="1.15"
   y="353.15"
   width="2"
   height="2" />
<rect
   id="connector14terminal"
   fill="none"
   x="171.15"
   y="353.15"
   width="2"
   height="2" />
<rect
   id="connector15terminal"
   fill="none"
   x="171.15"
   y="327.15"
   width="2"
   height="2" />
<rect
   id="connector16terminal"
   fill="none"
   x="171.15"
   y="301.15"
   width="2"
   height="2" />
<rect
   id="connector17terminal"
   fill="none"
   x="171.15"
   y="275.15"
   width="2"
   height="2" />
<rect
   id="connector18terminal"
   fill="none"
   x="171.15"
   y="249.15"
   width="2"
   height="2" />
<rect
   id="connector19terminal"
   fill="none"
   x="171.15"
   y="223.15"
   width="2"
   height="2" />
<rect
   id="connector20terminal"
   fill="none"
   x="171.15"
   y="197.15"
   width="2"
   height="2" />
<rect
   id="connector21terminal"
   fill="none"
   x="171.15"
   y="171.15"
   width="2"
   height="2" />
<rect
   id="connector22terminal"
   fill="none"
   x="171.15"
   y="145.15"
   width="2"
   height="2" />
<rect
   id="connector23terminal"
   fill="none"
   x="171.15"
   y="119.15"
   width="2"
   height="2" />
<rect
   id="connector24terminal"
   fill="none"
   x="171.15"
   y="93.15"
   width="2"
   height="2" />
<rect
   id="connector25terminal"
   fill="none"
   x="171.15"
   y="67.15"
   width="2"
   height="2" />
<rect
   id="connector26terminal"
   fill="none"
   x="171.15"
   y="41.15"
   width="2"
   height="2" />
<rect
   id="connector27terminal"
   fill="none"
   x="171.15"
   y="15.15"
   width="2"
   height="2" />
<g
   id="schematic">
	<rect
   id="box"
   x="32.15"
   y="1.15"
   fill="none"
   stroke="#000000"
   stroke-width="2.3"
   stroke-linecap="round"
   stroke-linejoin="round"
   width="110"
   height="368" />
	<line
   fill="none"
   stroke="#000000"
   stroke-width="2.3"
   stroke-linecap="round"
   stroke-linejoin="round"
   x1="1.15"
   y1="16.15"
   x2="32.15"
   y2="16.15"
   id="line61" />
	<line
   fill="none"
   stroke="#000000"
   stroke-width="2.3"
   stroke-linecap="round"
   stroke-linejoin="round"
   x1="1.15"
   y1="42.15"
   x2="32.15"
   y2="42.15"
   id="line63" />
	<line
   fill="none"
   stroke="#000000"
   stroke-width="2.3"
   stroke-linecap="round"
   stroke-linejoin="round"
   x1="1.15"
   y1="68.15"
   x2="32.15"
   y2="68.15"
   id="line65" />
	<line
   fill="none"
   stroke="#000000"
   stroke-width="2.3"
   stroke-linecap="round"
   stroke-linejoin="round"
   x1="1.15"
   y1="94.15"
   x2="32.15"
   y2="94.15"
   id="line67" />
	<line
   fill="none"
   stroke="#000000"
   stroke-width="2.3"
   stroke-linecap="round"
   stroke-linejoin="round"
   x1="1.15"
   y1="120.15"
   x2="32.15"
   y2="120.15"
   id="line69" />
	<line
   fill="none"
   stroke="#000000"
   stroke-width="2.3"
   stroke-linecap="round"
   stroke-linejoin="round"
   x1="1.15"
   y1="146.15"
   x2="32.15"
   y2="146.15"
   id="line71" />
	<line
   fill="none"
   stroke="#000000"
   stroke-width="2.3"
   stroke-linecap="round"
   stroke-linejoin="round"
   x1="1.15"
   y1="172.15"
   x2="32.15"
   y2="172.15"
   id="line73" />
	<line
   fill="none"
   stroke="#000000"
   stroke-width="2.3"
   stroke-linecap="round"
   stroke-linejoin="round"
   x1="1.15"
   y1="198.15"
   x2="32.15"
   y2="198.15"
   id="line75" />
	<line
   fill="none"
   stroke="#000000"
   stroke-width="2.3"
   stroke-linecap="round"
   stroke-linejoin="round"
   x1="1.15"
   y1="224.15"
   x2="32.15"
   y2="224.15"
   id="line77" />
	<line
   fill="none"
   stroke="#000000"
   stroke-width="2.3"
   stroke-linecap="round"
   stroke-linejoin="round"
   x1="1.15"
   y1="250.15"
   x2="32.15"
   y2="250.15"
   id="line79" />
	<line
   fill="none"
   stroke="#000000"
   stroke-width="2.3"
   stroke-linecap="round"
   stroke-linejoin="round"
   x1="1.15"
   y1="276.15"
   x2="32.15"
   y2="276.15"
   id="line81" />
	<line
   fill="none"
   stroke="#000000"
   stroke-width="2.3"
   stroke-linecap="round"
   stroke-linejoin="round"
   x1="1.15"
   y1="302.15"
   x2="32.15"
   y2="302.15"
   id="line83" />
	<line
   fill="none"
   stroke="#000000"
   stroke-width="2.3"
   stroke-linecap="round"
   stroke-linejoin="round"
   x1="1.15"
   y1="328.15"
   x2="32.15"
   y2="328.15"
   id="line85" />
	<line
   fill="none"
   stroke="#000000"
   stroke-width="2.3"
   stroke-linecap="round"
   stroke-linejoin="round"
   x1="1.15"
   y1="354.15"
   x2="32.15"
   y2="354.15"
   id="line87" />
	<line
   fill="none"
   stroke="#000000"
   stroke-width="2.3"
   stroke-linecap="round"
   stroke-linejoin="round"
   x1="142.15"
   y1="354.15"
   x2="173.15"
   y2="354.15"
   id="line89" />
	<line
   fill="none"
   stroke="#000000"
   stroke-width="2.3"
   stroke-linecap="round"
   stroke-linejoin="round"
   x1="142.15"
   y1="328.15"
   x2="173.15"
   y2="328.15"
   id="line91" />
	<line
   fill="none"
   stroke="#000000"
   stroke-width="2.3"
   stroke-linecap="round"
   stroke-linejoin="round"
   x1="142.15"
   y1="302.15"
   x2="173.15"
   y2="302.15"
   id="line93" />
	<line
   fill="none"
   stroke="#000000"
   stroke-width="2.3"
   stroke-linecap="round"
   stroke-linejoin="round"
   x1="142.15"
   y1="276.15"
   x2="173.15"
   y2="276.15"
   id="line95" />
	<line
   fill="none"
   stroke="#000000"
   stroke-width="2.3"
   stroke-linecap="round"
   stroke-linejoin="round"
   x1="142.15"
   y1="250.15"
   x2="173.15"
   y2="250.15"
   id="line97" />
	<line
   fill="none"
   stroke="#000000"
   stroke-width="2.3"
   stroke-linecap="round"
   stroke-linejoin="round"
   x1="142.15"
   y1="224.15"
   x2="173.15"
   y2="224.15"
   id="line99" />
	<line
   fill="none"
   stroke="#000000"
   stroke-width="2.3"
   stroke-linecap="round"
   stroke-linejoin="round"
   x1="142.15"
   y1="198.15"
   x2="173.15"
   y2="198.15"
   id="line101" />
	<line
   fill="none"
   stroke="#000000"
   stroke-width="2.3"
   stroke-linecap="round"
   stroke-linejoin="round"
   x1="142.15"
   y1="172.15"
   x2="173.15"
   y2="172.15"
   id="line103" />
	<line
   fill="none"
   stroke="#000000"
   stroke-width="2.3"
   stroke-linecap="round"
   stroke-linejoin="round"
   x1="142.15"
   y1="146.15"
   x2="173.15"
   y2="146.15"
   id="line105" />
	<line
   fill="none"
   stroke="#000000"
   stroke-width="2.3"
   stroke-linecap="round"
   stroke-linejoin="round"
   x1="142.15"
   y1="120.15"
   x2="173.15"
   y2="120.15"
   id="line107" />
	<line
   fill="none"
   stroke="#000000"
   stroke-width="2.3"
   stroke-linecap="round"
   stroke-linejoin="round"
   x1="142.15"
   y1="94.15"
   x2="173.15"
   y2="94.15"
   id="line109" />
	<line
   fill="none"
   stroke="#000000"
   stroke-width="2.3"
   stroke-linecap="round"
   stroke-linejoin="round"
   x1="142.15"
   y1="68.15"
   x2="173.15"
   y2="68.15"
   id="line111" />
	<line
   fill="none"
   stroke="#000000"
   stroke-width="2.3"
   stroke-linecap="round"
   stroke-linejoin="round"
   x1="142.15"
   y1="42.15"
   x2="173.15"
   y2="42.15"
   id="line113" />
	<line
   fill="none"
   stroke="#000000"
   stroke-width="2.3"
   stroke-linecap="round"
   stroke-linejoin="round"
   x1="142.15"
   y1="16.15"
   x2="173.15"
   y2="16.15"
   id="line115" />
	<path
   style="font-size:18px;text-anchor:middle;font-family:TheSans-B6SemiBold"
   d="M 55.75547,170.62695 L 53.347267,177.15723 L 58.172462,177.15723 L 55.75547,170.62695 M 54.753517,168.87793 L 56.766212,168.87793 L 61.767189,182 L 59.921486,182 L 58.726173,178.63379 L 52.811134,178.63379 L 51.615822,182 L 49.743752,182 L 54.753517,168.87793 M 60.44883,168.87793 L 71.549416,168.87793 L 71.549416,170.37207 L 66.891212,170.37207 L 66.891212,182 L 65.107033,182 L 65.107033,170.37207 L 60.44883,170.37207 L 60.44883,168.87793 M 73.272072,168.87793 L 75.91758,168.87793 L 79.266212,177.80762 L 82.632423,168.87793 L 85.277931,168.87793 L 85.277931,182 L 83.546486,182 L 83.546486,170.47754 L 80.162697,179.47754 L 78.378517,179.47754 L 74.994728,170.47754 L 74.994728,182 L 73.272072,182 L 73.272072,168.87793 M 88.811134,168.87793 L 97.108009,168.87793 L 97.108009,170.37207 L 90.586525,170.37207 L 90.586525,174.25684 L 96.835548,174.25684 L 96.835548,175.75098 L 90.586525,175.75098 L 90.586525,180.50586 L 97.266212,180.50586 L 97.266212,182 L 88.811134,182 L 88.811134,168.87793 M 109.14902,180.12793 L 109.14902,176.60352 L 106.24863,176.60352 L 106.24863,175.14453 L 110.90684,175.14453 L 110.90684,180.77832 C 110.22128,181.26465 109.46542,181.63379 108.63926,181.88574 C 107.81308,182.13184 106.93124,182.25488 105.99375,182.25488 C 103.94296,182.25488 102.3375,181.65723 101.17735,180.46191 C 100.02305,179.26074 99.445899,177.59082 99.4459,175.45215 C 99.445899,173.30763 100.02305,171.63771 101.17735,170.44238 C 102.3375,169.24122 103.94296,168.64064 105.99375,168.64062 C 106.84921,168.64064 107.66073,168.74611 108.42832,168.95703 C 109.20175,169.16798 109.91366,169.47853 110.56406,169.88867 L 110.56406,171.77832 C 109.9078,171.22169 109.21054,170.80275 108.47227,170.52148 C 107.73398,170.24025 106.95761,170.09962 106.14317,170.09961 C 104.53769,170.09962 103.33066,170.54786 102.52207,171.44434 C 101.71933,172.34083 101.31797,173.67677 101.31797,175.45215 C 101.31797,177.22168 101.71933,178.55469 102.52207,179.45117 C 103.33066,180.34766 104.53769,180.7959 106.14317,180.7959 C 106.77011,180.7959 107.32968,180.74317 107.82188,180.6377 C 108.31405,180.52637 108.75644,180.35645 109.14902,180.12793 M 118.54453,170.62695 L 116.13633,177.15723 L 120.96152,177.15723 L 118.54453,170.62695 M 117.54258,168.87793 L 119.55527,168.87793 L 124.55625,182 L 122.71055,182 L 121.51524,178.63379 L 115.6002,178.63379 L 114.40488,182 L 112.53281,182 L 117.54258,168.87793"
   id="text117" /><path
   style="font-size:18px;text-anchor:middle;font-family:TheSans-B6SemiBold"
   d="M 72.191017,198.50586 L 75.091408,198.50586 L 75.091408,188.49512 L 71.936134,189.12793 L 71.936134,187.51074 L 75.07383,186.87793 L 76.84922,186.87793 L 76.84922,198.50586 L 79.749611,198.50586 L 79.749611,200 L 72.191017,200 L 72.191017,198.50586 M 87.360939,192.73145 C 86.564059,192.73145 85.931247,193.00391 85.462502,193.54883 C 84.999607,194.09376 84.768162,194.84083 84.768166,195.79004 C 84.768162,196.7334 84.999607,197.48047 85.462502,198.03125 C 85.931247,198.57617 86.564059,198.84863 87.360939,198.84863 C 88.157807,198.84863 88.787689,198.57617 89.250587,198.03125 C 89.719329,197.48047 89.953704,196.7334 89.953712,195.79004 C 89.953704,194.84083 89.719329,194.09376 89.250587,193.54883 C 88.787689,193.00391 88.157807,192.73145 87.360939,192.73145 M 90.885353,187.16797 L 90.885353,188.78516 C 90.440032,188.57423 89.98886,188.4131 89.531837,188.30176 C 89.080658,188.19044 88.632416,188.13478 88.187111,188.13477 C 87.01523,188.13478 86.118747,188.53028 85.497658,189.32129 C 84.88242,190.11231 84.530858,191.30763 84.44297,192.90723 C 84.78867,192.39747 85.222263,192.00782 85.743752,191.73828 C 86.265231,191.4629 86.839449,191.3252 87.466408,191.3252 C 88.78476,191.3252 89.824798,191.72657 90.586525,192.5293 C 91.354093,193.32618 91.737882,194.41309 91.737892,195.79004 C 91.737882,197.1377 91.339445,198.21875 90.54258,199.0332 C 89.745696,199.84766 88.685151,200.25488 87.360939,200.25488 C 85.843356,200.25488 84.683201,199.67481 83.88047,198.51465 C 83.077734,197.34864 82.676367,195.66114 82.676369,193.45215 C 82.676367,191.37794 83.168554,189.7256 84.152931,188.49512 C 85.137302,187.2588 86.45859,186.64064 88.116798,186.64062 C 88.562104,186.64064 89.010345,186.68458 89.461525,186.77246 C 89.918548,186.86036 90.393157,186.9922 90.885353,187.16797 M 98.60215,193.76855 C 97.758395,193.76856 97.093357,193.99415 96.607033,194.44531 C 96.126561,194.89649 95.886327,195.51758 95.88633,196.30859 C 95.886327,197.09961 96.126561,197.72071 96.607033,198.17188 C 97.093357,198.62305 97.758395,198.84863 98.60215,198.84863 C 99.445893,198.84863 100.11093,198.62305 100.59727,198.17188 C 101.08359,197.71485 101.32675,197.09375 101.32676,196.30859 C 101.32675,195.51758 101.08359,194.89649 100.59727,194.44531 C 100.11679,193.99415 99.451753,193.76856 98.60215,193.76855 M 96.826759,193.0127 C 96.065037,192.8252 95.470311,192.47071 95.04258,191.94922 C 94.620703,191.42774 94.409766,190.792 94.409767,190.04199 C 94.409766,188.99318 94.781836,188.16407 95.525978,187.55469 C 96.275975,186.94533 97.301364,186.64064 98.60215,186.64062 C 99.908784,186.64064 100.93417,186.94533 101.67832,187.55469 C 102.42245,188.16407 102.79452,188.99318 102.79453,190.04199 C 102.79452,190.792 102.58066,191.42774 102.15293,191.94922 C 101.73105,192.47071 101.14218,192.8252 100.38633,193.0127 C 101.24179,193.21192 101.90683,193.60157 102.38145,194.18164 C 102.86191,194.76172 103.10214,195.47071 103.10215,196.30859 C 103.10214,197.58008 102.71249,198.55567 101.9332,199.23535 C 101.15976,199.91504 100.04941,200.25488 98.60215,200.25488 C 97.15488,200.25488 96.0416,199.91504 95.262306,199.23535 C 94.488867,198.55567 94.102149,197.58008 94.10215,196.30859 C 94.102149,195.47071 94.342383,194.76172 94.822853,194.18164 C 95.303319,193.60157 95.971287,193.21192 96.826759,193.0127 M 96.176369,190.20898 C 96.176365,190.88868 96.387303,191.41895 96.809181,191.7998 C 97.236911,192.18067 97.834567,192.3711 98.60215,192.37109 C 99.363862,192.3711 99.958588,192.18067 100.38633,191.7998 C 100.81992,191.41895 101.03671,190.88868 101.03672,190.20898 C 101.03671,189.52931 100.81992,188.99903 100.38633,188.61816 C 99.958588,188.23732 99.363862,188.04689 98.60215,188.04688 C 97.834567,188.04689 97.236911,188.23732 96.809181,188.61816 C 96.387303,188.99903 96.176365,189.52931 96.176369,190.20898"
   id="text2555" />
	<g
   id="numbersOnPins">
		<text
   x="28"
   y="13"
   text-anchor="end"
   font-family="'TheSans-B5Plain'"
   font-size="12"
   id="text120">1</text>

		<text
   x="28"
   y="39"
   text-anchor="end"
   font-family="'TheSans-B5Plain'"
   font-size="12"
   id="text122">2</text>

		<text
   x="28"
   y="65"
   text-anchor="end"
   font-family="'TheSans-B5Plain'"
   font-size="12"
   id="text124">3</text>

		<text
   x="28"
   y="91"
   text-anchor="end"
   font-family="'TheSans-B5Plain'"
   font-size="12"
   id="text126">4</text>

		<text
   x="28"
   y="117"
   text-anchor="end"
   font-family="'TheSans-B5Plain'"
   font-size="12"
   id="text128">5</text>

		<text
   x="28"
   y="143"
   text-anchor="end"
   font-family="'TheSans-B5Plain'"
   font-size="12"
   id="text130">6</text>

		<text
   x="28"
   y="169"
   text-anchor="end"
   font-family="'TheSans-B5Plain'"
   font-size="12"
   id="text132">7</text>

		<text
   x="28"
   y="195"
   text-anchor="end"
   font-family="'TheSans-B5Plain'"
   font-size="12"
   id="text134">8</text>

		<text
   x="28"
   y="221"
   text-anchor="end"
   font-family="'TheSans-B5Plain'"
   font-size="12"
   id="text136">9</text>

		<text
   x="28"
   y="247"
   text-anchor="end"
   font-family="'TheSans-B5Plain'"
   font-size="12"
   id="text138">10</text>

		<text
   x="28"
   y="273"
   text-anchor="end"
   font-family="'TheSans-B5Plain'"
   font-size="12"
   id="text140">11</text>

		<text
   x="28"
   y="299"
   text-anchor="end"
   font-family="'TheSans-B5Plain'"
   font-size="12"
   id="text142">12</text>

		<text
   x="28"
   y="325"
   text-anchor="end"
   font-family="'TheSans-B5Plain'"
   font-size="12"
   id="text144">13</text>

		<text
   x="28"
   y="351"
   text-anchor="end"
   font-family="'TheSans-B5Plain'"
   font-size="12"
   id="text146">14</text>

		<text
   x="146"
   y="351"
   text-anchor="start"
   font-family="'TheSans-B5Plain'"
   font-size="12"
   id="text148">15</text>

		<text
   x="146"
   y="325"
   text-anchor="start"
   font-family="'TheSans-B5Plain'"
   font-size="12"
   id="text150">16</text>

		<text
   x="146"
   y="299"
   text-anchor="start"
   font-family="'TheSans-B5Plain'"
   font-size="12"
   id="text152">17</text>

		<text
   x="146"
   y="273"
   text-anchor="start"
   font-family="'TheSans-B5Plain'"
   font-size="12"
   id="text154">18</text>

		<text
   x="146"
   y="247"
   text-anchor="start"
   font-family="'TheSans-B5Plain'"
   font-size="12"
   id="text156">19</text>

		<text
   x="146"
   y="221"
   text-anchor="start"
   font-family="'TheSans-B5Plain'"
   font-size="12"
   id="text158">20</text>

		<text
   x="146"
   y="195"
   text-anchor="start"
   font-family="'TheSans-B5Plain'"
   font-size="12"
   id="text160">21</text>

		<text
   x="146"
   y="169"
   text-anchor="start"
   font-family="'TheSans-B5Plain'"
   font-size="12"
   id="text162">22</text>

		<text
   x="146"
   y="143"
   text-anchor="start"
   font-family="'TheSans-B5Plain'"
   font-size="12"
   id="text164">23</text>

		<text
   x="146"
   y="117"
   text-anchor="start"
   font-family="'TheSans-B5Plain'"
   font-size="12"
   id="text166">24</text>

		<text
   x="146"
   y="91"
   text-anchor="start"
   font-family="'TheSans-B5Plain'"
   font-size="12"
   id="text168">25</text>

		<text
   x="146"
   y="65"
   text-anchor="start"
   font-family="'TheSans-B5Plain'"
   font-size="12"
   id="text170">26</text>

		<text
   x="146"
   y="39"
   text-anchor="start"
   font-family="'TheSans-B5Plain'"
   font-size="12"
   id="text172">27</text>

		<text
   x="146"
   y="13"
   text-anchor="start"
   font-family="'TheSans-B5Plain'"
   font-size="12"
   id="text174">28</text>

	</g>
	<g
   id="textOnPins">
	</g>
</g>
</svg>