<?xml version="1.0" encoding="UTF-8" standalone="no"?>
<svg
   xmlns:dc="http://purl.org/dc/elements/1.1/"
   xmlns:cc="http://creativecommons.org/ns#"
   xmlns:rdf="http://www.w3.org/1999/02/22-rdf-syntax-ns#"
   xmlns:svg="http://www.w3.org/2000/svg"
   xmlns="http://www.w3.org/2000/svg"
   xmlns:sodipodi="http://sodipodi.sourceforge.net/DTD/sodipodi-0.dtd"
   xmlns:inkscape="http://www.inkscape.org/namespaces/inkscape"
   version="1.2"
   baseProfile="tiny"
   x="0px"
   y="0px"
   width="0.26in"
   height="0.56in"
   id="svg2"
   sodipodi:version="0.32"
   inkscape:version="0.46"
   sodipodi:docname="capacitor_polar.svg"
   inkscape:output_extension="org.inkscape.output.svg.inkscape">
  <metadata
     id="metadata21">
    <rdf:RDF>
      <cc:Work
         rdf:about="">
        <dc:format>image/svg+xml</dc:format>
        <dc:type
           rdf:resource="http://purl.org/dc/dcmitype/StillImage" />
      </cc:Work>
    </rdf:RDF>
  </metadata>
  <defs
     id="defs19">
    <inkscape:perspective
       sodipodi:type="inkscape:persp3d"
       inkscape:vp_x="0 : 25.200001 : 1"
       inkscape:vp_y="0 : 1000 : 0"
       inkscape:vp_z="23.4 : 25.200001 : 1"
       inkscape:persp3d-origin="11.7 : 16.800001 : 1"
       id="perspective23" />
  </defs>
  <sodipodi:namedview
     inkscape:window-height="728"
     inkscape:window-width="1135"
     inkscape:pageshadow="2"
     inkscape:pageopacity="0.0"
     guidetolerance="10.0"
     gridtolerance="10.0"
     objecttolerance="10.0"
     borderopacity="1.0"
     bordercolor="#666666"
     pagecolor="#ffffff"
     id="base"
     showgrid="false"
     inkscape:zoom="1"
     inkscape:cx="11.526"
     inkscape:cy="24.874502"
     inkscape:window-x="50"
     inkscape:window-y="25"
     inkscape:current-layer="svg2" />
  <g
     id="schematic"
     style="display:inline">
    <g
       id="g4">
      <rect
         id="connector0pin"
         x="11.108"
         y="30.124"
         width="1.375"
         height="19.75" />
      <rect
         id="connector1pin"
         x="11.108"
         y="1.332"
         width="1.375"
         height="19.75" />
      <rect
         id="connector1terminal"
         x="11.411"
         y="0.934"
         width="0.749"
         height="0.799" />
      <rect
         id="connector0terminal"
         x="11.411"
         y="49.216"
         width="0.749"
         height="0.799" />
      <path
         d="M10.783,22.719V1.667c0-0.553,0.448-0.999,1.001-0.999l0,0c0.553,0,0.999,0.446,0.999,0.999l0,0v21.052  c0,0.553-0.446,1.001-0.999,1.001l0,0C11.231,23.719,10.783,23.271,10.783,22.719L10.783,22.719z"
         id="path10" />
      <path
         d="M10.784,49.385V28.333c0-0.554,0.448-1.001,0.999-1.001l0,0c0.553,0,1.001,0.447,1.001,1.001l0,0v21.052  c0,0.551-0.448,0.998-1.001,0.998l0,0C11.232,50.383,10.784,49.935,10.784,49.385L10.784,49.385z"
         id="path12" />
      <path
         d="M1,28.7c-0.554,0-1-0.446-1-0.998l0,0c0-0.554,0.447-1,1-1l0,0h21.051c0.552,0,1.001,0.446,1.001,1l0,0  c0,0.552-0.449,0.998-1.001,0.998l0,0H1L1,28.7z"
         id="path14" />
      <path
         style="display:inline"
         d="M 2.7748991,17.688568 L 2.7748991,11.26467 C 2.7748991,11.095925 3.2228991,10.959831 3.7758991,10.959831 L 3.7758991,10.959831 C 4.3288991,10.959831 4.7748991,11.095925 4.7748991,11.26467 L 4.7748991,11.26467 L 4.7748991,17.688568 C 4.7748991,17.857312 4.3288991,17.994017 3.7758991,17.994017 L 3.7758991,17.994017 C 3.2228991,17.993712 2.7748991,17.857007 2.7748991,17.688568 L 2.7748991,17.688568 z"
         id="path2418" />
      <path
         style="display:inline"
         d="M 0.79145555,15.526936 C 0.63711715,15.526936 0.51286625,15.080936 0.51286625,14.528936 L 0.51286625,14.528936 C 0.51286625,13.974936 0.63739565,13.528936 0.79145555,13.528936 L 0.79145555,13.528936 L 6.6560388,13.528936 C 6.8098201,13.528936 6.9349067,13.974936 6.9349067,14.528936 L 6.9349067,14.528936 C 6.9349067,15.080936 6.8098201,15.526936 6.6560388,15.526936 L 6.6560388,15.526936 L 0.79145555,15.526936 L 0.79145555,15.526936 z"
         id="path2416" />
      <path
         style="display:inline"
         d="M 0.84246793,35.748798 C 0.68812953,35.748798 0.56387863,35.302798 0.56387863,34.750798 L 0.56387863,34.750798 C 0.56387863,34.196798 0.68840803,33.750798 0.84246793,33.750798 L 0.84246793,33.750798 L 6.7070512,33.750798 C 6.8608325,33.750798 6.9859191,34.196798 6.9859191,34.750798 L 6.9859191,34.750798 C 6.9859191,35.302798 6.8608325,35.748798 6.7070512,35.748798 L 6.7070512,35.748798 L 0.84246793,35.748798 L 0.84246793,35.748798 z"
         id="path2420" />
      <path
         d="M1,24.097c-0.554,0-1-0.446-1-0.998l0,0c0-0.554,0.447-1,1-1l0,0h21.051c0.552,0,1.001,0.446,1.001,1l0,0  c0,0.552-0.449,0.998-1.001,0.998l0,0H1L1,24.097z"
         id="path16" />
    </g>
  </g>
</svg>
