<?xml version='1.0' encoding='utf-8'?>
<!-- Generator: Adobe Illustrator 13.0.0, SVG Export Plug-In . SVG Version: 6.00 Build 14948)  -->
<svg xmlns="http://www.w3.org/2000/svg" width="0.754167in" xml:space="preserve" xmlns:xml="http://www.w3.org/XML/1998/namespace" x="0px" version="1.2" y="0px" height="1.24722in" viewBox="0 0 54.3 89.8" baseProfile="tiny" id="Layer_1" >
 <rect xmlns="http://www.w3.org/2000/svg" width="2" x="26.65" y="78.65" fill="none" height="10" id="connector0pin" />
 <rect xmlns="http://www.w3.org/2000/svg" width="2" x="26.65" y="1.15" fill="none" height="10" id="connector1pin" />
 <rect xmlns="http://www.w3.org/2000/svg" width="2" x="26.65" y="86.65" fill="none" height="2" id="connector0terminal" />
 <rect xmlns="http://www.w3.org/2000/svg" width="2" x="26.65" y="1.15" fill="none" height="2" id="connector1terminal" />
 <g xmlns="http://www.w3.org/2000/svg" id="schematic" >
  <g xmlns="http://www.w3.org/2000/svg" id="text" >
   <g xmlns="http://www.w3.org/2000/svg">
    <path xmlns="http://www.w3.org/2000/svg" d="M19.31,62.981h1.114v6.597H19.31V62.981z" />
   </g>
   <g xmlns="http://www.w3.org/2000/svg">
    <path xmlns="http://www.w3.org/2000/svg" d="M19.333,25.547h-2.34v-1.211h2.34v-2.195H20.4v2.195h2.326v1.211H20.4v2.207h-1.066L19.333,25.547L19.333,25.547z" />
   </g>
  </g>
  <g xmlns="http://www.w3.org/2000/svg" id="diagram" >
   <line xmlns="http://www.w3.org/2000/svg" fill="none" stroke="#000000" stroke-linejoin="round" stroke-linecap="round" y1="1.15" stroke-width="2.3" x1="27.65" y2="32.15" x2="27.65" />
   <line xmlns="http://www.w3.org/2000/svg" fill="none" stroke="#000000" stroke-linejoin="round" stroke-linecap="round" y1="57.65" stroke-width="2.3" x1="27.65" y2="88.65" x2="27.65" />
   <line xmlns="http://www.w3.org/2000/svg" fill="none" stroke="#000000" stroke-linejoin="round" stroke-linecap="round" y1="32.15" stroke-width="2.3" x1="53.15" y2="32.15" x2="1.15" />
   <line xmlns="http://www.w3.org/2000/svg" fill="none" stroke="#000000" stroke-linejoin="round" stroke-linecap="round" y1="40.65" stroke-width="2.3" x1="41.817" y2="40.65" x2="12.483" />
   <line xmlns="http://www.w3.org/2000/svg" fill="none" stroke="#000000" stroke-linejoin="round" stroke-linecap="round" y1="49.15" stroke-width="2.3" x1="53.15" y2="49.15" x2="1.15" />
   <line xmlns="http://www.w3.org/2000/svg" fill="none" stroke="#000000" stroke-linejoin="round" stroke-linecap="round" y1="57.65" stroke-width="2.3" x1="41.817" y2="57.65" x2="12.483" />
  </g>
 </g>
</svg>
