<?xml version="1.0" encoding="utf-8"?>
<!DOCTYPE svg PUBLIC "-//W3C//DTD SVG 1.1 Basic//EN" "http://www.w3.org/Graphics/SVG/1.1/DTD/svg11-basic.dtd">
<svg version="1.1" baseProfile="basic" id="svg2" xmlns:xml="http://www.w3.org/XML/1998/namespace"
	 xmlns="http://www.w3.org/2000/svg" xmlns:xlink="http://www.w3.org/1999/xlink" x="0px" y="0px" width="1.796in"
	 height="2.345in" viewBox="0 0 129.383 168.84" xml:space="preserve">
<rect id="connector1pin" x="21.228" y="0" fill="none" width="1.895" height="5.169"/>
<rect id="connector1terminal" x="21.234" y="0" fill="none" width="1.889" height="0.685"/>
<rect id="connector2pin" x="42.482" y="0" fill="none" width="1.895" height="5.169"/>
<rect id="connector2terminal" x="42.482" y="0" fill="none" width="1.895" height="0.686"/>
<rect id="connector3pin" x="63.745" y="0" fill="none" width="1.894" height="5.169"/>
<rect id="connector3terminal" x="63.745" y="0" fill="none" width="1.894" height="0.688"/>
<rect id="connector4pin" x="84.973" y="0" fill="none" width="1.895" height="5.169"/>
<rect id="connector4terminal" x="84.973" y="0" fill="none" width="1.895" height="0.686"/>
<rect id="connector5pin" x="106.237" y="0" fill="none" width="1.893" height="5.169"/>
<rect id="connector5terminal" x="106.237" y="0" fill="none" width="1.893" height="0.688"/>
<rect id="connector6pin" x="63.777" y="159.059" fill="none" width="1.894" height="9.781"/>
<rect id="connector6terminal" x="63.777" y="168.152" fill="none" width="1.894" height="0.688"/>
<rect id="connector7pin" x="63.777" y="159.059" fill="none" width="1.894" height="9.781"/>
<rect id="connector7terminal" x="63.777" y="168.152" fill="none" width="1.894" height="0.688"/>
<rect id="connector8pin" x="63.777" y="159.059" fill="none" width="1.894" height="9.781"/>
<rect id="connector8terminal" x="63.777" y="168.152" fill="none" width="1.894" height="0.688"/>
<rect id="connector9pin" x="63.777" y="159.059" fill="none" width="1.894" height="9.781"/>
<rect id="connector9terminal" x="63.777" y="168.152" fill="none" width="1.894" height="0.688"/>
<g id="schematic">
	<circle fill="none" stroke="#000000" stroke-width="2.4" cx="64.691" cy="84.658" r="63.485"/>
	<circle fill="none" stroke="#000000" stroke-width="2.4" cx="64.691" cy="36.045" r="5.999"/>
	<circle fill="none" stroke="#000000" stroke-width="2.4" cx="40.385" cy="42.559" r="5.999"/>
	<circle fill="none" stroke="#000000" stroke-width="2.4" cx="22.593" cy="60.351" r="5.999"/>
	<path fill="none" stroke="#000000" stroke-width="2.4" d="M109.788,65.542c-2.867,1.656-6.535,0.674-8.191-2.19
		c-1.658-2.875-0.674-6.542,2.197-8.195c2.869-1.656,6.533-0.678,8.189,2.194C113.641,60.219,112.661,63.889,109.788,65.542z"/>
	<path fill="none" stroke="#000000" stroke-width="2.4" d="M94.188,45.556c-1.654,2.869-5.32,3.851-8.188,2.198
		c-2.875-1.659-3.854-5.33-2.195-8.194c1.658-2.869,5.32-3.854,8.191-2.194C94.864,39.02,95.85,42.688,94.188,45.556z"/>
	<g id="Ebene_3">
	</g>
	<line fill="none" stroke="#000000" stroke-width="2.4" x1="22.176" y1="54.352" x2="22.176" y2="0"/>
	<line fill="none" stroke="#000000" stroke-width="2.4" x1="107.182" y1="54.352" x2="107.182" y2="0"/>
	<line fill="none" stroke="#000000" stroke-width="2.4" x1="64.723" y1="30.046" x2="64.723" y2="0"/>
	<polyline fill="none" stroke="#000000" stroke-width="2.4" points="85.92,0 85.92,21.172 88.997,29.125 88.997,36.558 	"/>
	<polyline fill="none" stroke="#000000" stroke-width="2.4" points="43.429,0 43.429,21.172 40.353,29.125 40.353,36.558 	"/>
	<line fill="none" stroke="#000000" stroke-width="2.4" x1="64.723" y1="148.012" x2="64.723" y2="168.84"/>
</g>
</svg>
