<?xml version="1.0" encoding="UTF-8" standalone="no"?>
<svg
   xmlns:dc="http://purl.org/dc/elements/1.1/"
   xmlns:cc="http://creativecommons.org/ns#"
   xmlns:rdf="http://www.w3.org/1999/02/22-rdf-syntax-ns#"
   xmlns:svg="http://www.w3.org/2000/svg"
   xmlns="http://www.w3.org/2000/svg"
   xmlns:sodipodi="http://sodipodi.sourceforge.net/DTD/sodipodi-0.dtd"
   xmlns:inkscape="http://www.inkscape.org/namespaces/inkscape"
   version="1.0"
   baseProfile="tiny"
   x="0px"
   y="0px"
   width="23.309504"
   height="61.882812"
   id="svg2"
   sodipodi:version="0.32"
   inkscape:version="0.46"
   sodipodi:docname="diode.svg"
   inkscape:output_extension="org.inkscape.output.svg.inkscape">
  <metadata
     id="metadata33">
    <rdf:RDF>
      <cc:Work
         rdf:about="">
        <dc:format>image/svg+xml</dc:format>
        <dc:type
           rdf:resource="http://purl.org/dc/dcmitype/StillImage" />
      </cc:Work>
    </rdf:RDF>
  </metadata>
  <defs
     id="defs31">
    <inkscape:perspective
       sodipodi:type="inkscape:persp3d"
       inkscape:vp_x="0 : 31.5 : 1"
       inkscape:vp_y="0 : 1000 : 0"
       inkscape:vp_z="36 : 31.5 : 1"
       inkscape:persp3d-origin="18 : 21 : 1"
       id="perspective35" />
  </defs>
  <sodipodi:namedview
     inkscape:window-height="728"
     inkscape:window-width="953"
     inkscape:pageshadow="2"
     inkscape:pageopacity="0.0"
     guidetolerance="10.0"
     gridtolerance="10.0"
     objecttolerance="10.0"
     borderopacity="1.0"
     bordercolor="#666666"
     pagecolor="#ffffff"
     id="base"
     showgrid="false"
     inkscape:zoom="7.8412698"
     inkscape:cx="-4.5091093"
     inkscape:cy="31.5"
     inkscape:window-x="50"
     inkscape:window-y="25"
     inkscape:current-layer="schematic" />
  <rect
     id="connector1terminal"
     x="11.680176"
     y="0.89550781"
     width="0.2080078"
     height="0.2080078" />
  <rect
     id="connector0terminal"
     x="11.695801"
     y="60.795898"
     width="0.2080078"
     height="0.2080078" />
  <rect
     id="connector1pin"
     x="11.075195"
     y="0.79101562"
     width="1.375"
     height="19.75" />
  <rect
     id="connector0pin"
     x="11.075684"
     y="41.499023"
     width="1.375"
     height="19.75" />
  <g
     id="schematic"
     style="display:inline">
    <g
       id="g8">
      <path
         style="opacity:1;fill:#000000;fill-opacity:1;fill-rule:nonzero;stroke:none;stroke-width:2;stroke-linecap:round;stroke-linejoin:round;stroke-miterlimit:4;stroke-dasharray:none;stroke-opacity:1"
         id="path3202"
         inkscape:flatsided="false"
         inkscape:rounded="0"
         inkscape:randomized="0"
         d="M 2.6781381,34.846375 L -2.4575328,25.951132 L -7.5932042,17.05589 L 2.6781379,17.05589 L 12.949479,17.055889 L 7.8138082,25.951132 L 2.6781381,34.846375 z"
         transform="translate(8.9271255,4.5910931)" />
      <path
         d="M 22.309082,21.290039 C 22.669434,21.290039 23.000488,21.483398 23.178223,21.79834 L 23.178223,21.79834 C 23.356934,22.111328 23.353027,22.494141 23.16748,22.803223 L 23.16748,22.803223 L 12.64209,40.443359 C 12.462891,40.744141 12.135742,40.930664 11.783691,40.930664 L 11.783691,40.930664 C 11.433594,40.930664 11.104004,40.746094 10.925293,40.445312 L 10.925293,40.445312 L 0.3745117,22.805176 C 0.1894531,22.494141 0.1850586,22.111328 0.3623047,21.79834 L 0.3623047,21.79834 C 0.5395508,21.483399 0.8706055,21.290039 1.2329102,21.290039 L 1.2329102,21.290039 L 22.309082,21.290039 M 11.781738,37.981445 L 20.547363,23.291016 L 2.9951172,23.291016 L 11.781738,37.981445 L 11.781738,37.981445 z"
         id="path10"
         style="fill:#000000;fill-rule:nonzero;stroke:none;stroke-opacity:1" />
      <path
         d="M 1.0004883,40.930664 C 0.4467773,40.930664 0,40.484375 0,39.932617 L 0,39.932617 C 0,39.378906 0.4467773,38.932617 1.0004883,38.932617 L 1.0004883,38.932617 L 22.05127,38.932617 C 22.603027,38.932617 23.052246,39.378906 23.052246,39.932617 L 23.052246,39.932617 C 23.052246,40.484375 22.603027,40.930664 22.05127,40.930664 L 22.05127,40.930664 L 1.0004883,40.930664 L 1.0004883,40.930664 z"
         id="path12" />
      <path
         d="M 10.783203,22.050781 L 10.783203,0.9990234 C 10.783203,0.4462891 11.231445,0 11.78418,0 L 11.78418,0 C 12.337402,0 12.783203,0.4462891 12.783203,0.9990234 L 12.783203,0.9990234 L 12.783203,22.050781 C 12.783203,22.603516 12.337402,23.051758 11.78418,23.051758 L 11.78418,23.051758 C 11.231445,23.051758 10.783203,22.603516 10.783203,22.050781 L 10.783203,22.050781 z"
         id="path14" />
      <path
         d="M 10.78418,60.884766 L 10.78418,39.833008 C 10.78418,39.279297 11.231934,38.832031 11.783203,38.832031 L 11.783203,38.832031 C 12.336426,38.832031 12.78418,39.279297 12.78418,39.833008 L 12.78418,39.833008 L 12.78418,60.884766 C 12.78418,61.435547 12.336426,61.882812 11.783203,61.882812 L 11.783203,61.882812 C 11.231934,61.882812 10.78418,61.435547 10.78418,60.884766 L 10.78418,60.884766 z"
         id="path16" />
    </g>
  </g>
</svg>
