<?xml version="1.0" encoding="UTF-8" standalone="no"?>
<svg
   xmlns:svg="http://www.w3.org/2000/svg"
   xmlns="http://www.w3.org/2000/svg"
   version="1.0"
   width="1.53in"
   height="14.73in"
   viewBox="0 0 1530 14730"
   id="svg2">
  <g id="schematic">
    <rect x="315" y="15" fill="none" width="1200" height="14700" stroke="#000000" stroke-linejoin="round" stroke-linecap="round" stroke-width="30" />
    <text id="label" x="915" y="7365.0" fill="#000000" stroke="none" font-family="DroidSans" text-anchor="middle" font-size="235" >IC</text> 
  	<line fill="none" stroke="#000000" stroke-linejoin="round" stroke-linecap="round" stroke-width="30" x1="15" y1="315" x2="300" y2="315"  />
      <rect x="0" y="300" fill="none" width="300" height="30" id="connector0pin" stroke-width="0" />
      <rect x="0" y="300" fill="none" width="30" height="30" id="connector0terminal" stroke-width="0" />
      <text id="label0" x="390" y="350" font-family="DroidSans" stroke="none" fill="#000000" text-anchor="start" font-size="130" >1</text>
  	<line fill="none" stroke="#000000" stroke-linejoin="round" stroke-linecap="round" stroke-width="30" x1="15" y1="615" x2="300" y2="615"  />
      <rect x="0" y="600" fill="none" width="300" height="30" id="connector1pin" stroke-width="0" />
      <rect x="0" y="600" fill="none" width="30" height="30" id="connector1terminal" stroke-width="0" />
      <text id="label1" x="390" y="650" font-family="DroidSans" stroke="none" fill="#000000" text-anchor="start" font-size="130" >2</text>
  	<line fill="none" stroke="#000000" stroke-linejoin="round" stroke-linecap="round" stroke-width="30" x1="15" y1="915" x2="300" y2="915"  />
      <rect x="0" y="900" fill="none" width="300" height="30" id="connector2pin" stroke-width="0" />
      <rect x="0" y="900" fill="none" width="30" height="30" id="connector2terminal" stroke-width="0" />
      <text id="label2" x="390" y="950" font-family="DroidSans" stroke="none" fill="#000000" text-anchor="start" font-size="130" >3</text>
  	<line fill="none" stroke="#000000" stroke-linejoin="round" stroke-linecap="round" stroke-width="30" x1="15" y1="1215" x2="300" y2="1215"  />
      <rect x="0" y="1200" fill="none" width="300" height="30" id="connector3pin" stroke-width="0" />
      <rect x="0" y="1200" fill="none" width="30" height="30" id="connector3terminal" stroke-width="0" />
      <text id="label3" x="390" y="1250" font-family="DroidSans" stroke="none" fill="#000000" text-anchor="start" font-size="130" >4</text>
  	<line fill="none" stroke="#000000" stroke-linejoin="round" stroke-linecap="round" stroke-width="30" x1="15" y1="1515" x2="300" y2="1515"  />
      <rect x="0" y="1500" fill="none" width="300" height="30" id="connector4pin" stroke-width="0" />
      <rect x="0" y="1500" fill="none" width="30" height="30" id="connector4terminal" stroke-width="0" />
      <text id="label4" x="390" y="1550" font-family="DroidSans" stroke="none" fill="#000000" text-anchor="start" font-size="130" >5</text>
  	<line fill="none" stroke="#000000" stroke-linejoin="round" stroke-linecap="round" stroke-width="30" x1="15" y1="1815" x2="300" y2="1815"  />
      <rect x="0" y="1800" fill="none" width="300" height="30" id="connector5pin" stroke-width="0" />
      <rect x="0" y="1800" fill="none" width="30" height="30" id="connector5terminal" stroke-width="0" />
      <text id="label5" x="390" y="1850" font-family="DroidSans" stroke="none" fill="#000000" text-anchor="start" font-size="130" >6</text>
  	<line fill="none" stroke="#000000" stroke-linejoin="round" stroke-linecap="round" stroke-width="30" x1="15" y1="2115" x2="300" y2="2115"  />
      <rect x="0" y="2100" fill="none" width="300" height="30" id="connector6pin" stroke-width="0" />
      <rect x="0" y="2100" fill="none" width="30" height="30" id="connector6terminal" stroke-width="0" />
      <text id="label6" x="390" y="2150" font-family="DroidSans" stroke="none" fill="#000000" text-anchor="start" font-size="130" >7</text>
  	<line fill="none" stroke="#000000" stroke-linejoin="round" stroke-linecap="round" stroke-width="30" x1="15" y1="2415" x2="300" y2="2415"  />
      <rect x="0" y="2400" fill="none" width="300" height="30" id="connector7pin" stroke-width="0" />
      <rect x="0" y="2400" fill="none" width="30" height="30" id="connector7terminal" stroke-width="0" />
      <text id="label7" x="390" y="2450" font-family="DroidSans" stroke="none" fill="#000000" text-anchor="start" font-size="130" >8</text>
  	<line fill="none" stroke="#000000" stroke-linejoin="round" stroke-linecap="round" stroke-width="30" x1="15" y1="2715" x2="300" y2="2715"  />
      <rect x="0" y="2700" fill="none" width="300" height="30" id="connector8pin" stroke-width="0" />
      <rect x="0" y="2700" fill="none" width="30" height="30" id="connector8terminal" stroke-width="0" />
      <text id="label8" x="390" y="2750" font-family="DroidSans" stroke="none" fill="#000000" text-anchor="start" font-size="130" >9</text>
  	<line fill="none" stroke="#000000" stroke-linejoin="round" stroke-linecap="round" stroke-width="30" x1="15" y1="3015" x2="300" y2="3015"  />
      <rect x="0" y="3000" fill="none" width="300" height="30" id="connector9pin" stroke-width="0" />
      <rect x="0" y="3000" fill="none" width="30" height="30" id="connector9terminal" stroke-width="0" />
      <text id="label9" x="390" y="3050" font-family="DroidSans" stroke="none" fill="#000000" text-anchor="start" font-size="130" >10</text>
  	<line fill="none" stroke="#000000" stroke-linejoin="round" stroke-linecap="round" stroke-width="30" x1="15" y1="3315" x2="300" y2="3315"  />
      <rect x="0" y="3300" fill="none" width="300" height="30" id="connector10pin" stroke-width="0" />
      <rect x="0" y="3300" fill="none" width="30" height="30" id="connector10terminal" stroke-width="0" />
      <text id="label10" x="390" y="3350" font-family="DroidSans" stroke="none" fill="#000000" text-anchor="start" font-size="130" >11</text>
  	<line fill="none" stroke="#000000" stroke-linejoin="round" stroke-linecap="round" stroke-width="30" x1="15" y1="3615" x2="300" y2="3615"  />
      <rect x="0" y="3600" fill="none" width="300" height="30" id="connector11pin" stroke-width="0" />
      <rect x="0" y="3600" fill="none" width="30" height="30" id="connector11terminal" stroke-width="0" />
      <text id="label11" x="390" y="3650" font-family="DroidSans" stroke="none" fill="#000000" text-anchor="start" font-size="130" >12</text>
  	<line fill="none" stroke="#000000" stroke-linejoin="round" stroke-linecap="round" stroke-width="30" x1="15" y1="3915" x2="300" y2="3915"  />
      <rect x="0" y="3900" fill="none" width="300" height="30" id="connector12pin" stroke-width="0" />
      <rect x="0" y="3900" fill="none" width="30" height="30" id="connector12terminal" stroke-width="0" />
      <text id="label12" x="390" y="3950" font-family="DroidSans" stroke="none" fill="#000000" text-anchor="start" font-size="130" >13</text>
  	<line fill="none" stroke="#000000" stroke-linejoin="round" stroke-linecap="round" stroke-width="30" x1="15" y1="4215" x2="300" y2="4215"  />
      <rect x="0" y="4200" fill="none" width="300" height="30" id="connector13pin" stroke-width="0" />
      <rect x="0" y="4200" fill="none" width="30" height="30" id="connector13terminal" stroke-width="0" />
      <text id="label13" x="390" y="4250" font-family="DroidSans" stroke="none" fill="#000000" text-anchor="start" font-size="130" >14</text>
  	<line fill="none" stroke="#000000" stroke-linejoin="round" stroke-linecap="round" stroke-width="30" x1="15" y1="4515" x2="300" y2="4515"  />
      <rect x="0" y="4500" fill="none" width="300" height="30" id="connector14pin" stroke-width="0" />
      <rect x="0" y="4500" fill="none" width="30" height="30" id="connector14terminal" stroke-width="0" />
      <text id="label14" x="390" y="4550" font-family="DroidSans" stroke="none" fill="#000000" text-anchor="start" font-size="130" >15</text>
  	<line fill="none" stroke="#000000" stroke-linejoin="round" stroke-linecap="round" stroke-width="30" x1="15" y1="4815" x2="300" y2="4815"  />
      <rect x="0" y="4800" fill="none" width="300" height="30" id="connector15pin" stroke-width="0" />
      <rect x="0" y="4800" fill="none" width="30" height="30" id="connector15terminal" stroke-width="0" />
      <text id="label15" x="390" y="4850" font-family="DroidSans" stroke="none" fill="#000000" text-anchor="start" font-size="130" >16</text>
  	<line fill="none" stroke="#000000" stroke-linejoin="round" stroke-linecap="round" stroke-width="30" x1="15" y1="5115" x2="300" y2="5115"  />
      <rect x="0" y="5100" fill="none" width="300" height="30" id="connector16pin" stroke-width="0" />
      <rect x="0" y="5100" fill="none" width="30" height="30" id="connector16terminal" stroke-width="0" />
      <text id="label16" x="390" y="5150" font-family="DroidSans" stroke="none" fill="#000000" text-anchor="start" font-size="130" >17</text>
  	<line fill="none" stroke="#000000" stroke-linejoin="round" stroke-linecap="round" stroke-width="30" x1="15" y1="5415" x2="300" y2="5415"  />
      <rect x="0" y="5400" fill="none" width="300" height="30" id="connector17pin" stroke-width="0" />
      <rect x="0" y="5400" fill="none" width="30" height="30" id="connector17terminal" stroke-width="0" />
      <text id="label17" x="390" y="5450" font-family="DroidSans" stroke="none" fill="#000000" text-anchor="start" font-size="130" >18</text>
  	<line fill="none" stroke="#000000" stroke-linejoin="round" stroke-linecap="round" stroke-width="30" x1="15" y1="5715" x2="300" y2="5715"  />
      <rect x="0" y="5700" fill="none" width="300" height="30" id="connector18pin" stroke-width="0" />
      <rect x="0" y="5700" fill="none" width="30" height="30" id="connector18terminal" stroke-width="0" />
      <text id="label18" x="390" y="5750" font-family="DroidSans" stroke="none" fill="#000000" text-anchor="start" font-size="130" >19</text>
  	<line fill="none" stroke="#000000" stroke-linejoin="round" stroke-linecap="round" stroke-width="30" x1="15" y1="6015" x2="300" y2="6015"  />
      <rect x="0" y="6000" fill="none" width="300" height="30" id="connector19pin" stroke-width="0" />
      <rect x="0" y="6000" fill="none" width="30" height="30" id="connector19terminal" stroke-width="0" />
      <text id="label19" x="390" y="6050" font-family="DroidSans" stroke="none" fill="#000000" text-anchor="start" font-size="130" >20</text>
  	<line fill="none" stroke="#000000" stroke-linejoin="round" stroke-linecap="round" stroke-width="30" x1="15" y1="6315" x2="300" y2="6315"  />
      <rect x="0" y="6300" fill="none" width="300" height="30" id="connector20pin" stroke-width="0" />
      <rect x="0" y="6300" fill="none" width="30" height="30" id="connector20terminal" stroke-width="0" />
      <text id="label20" x="390" y="6350" font-family="DroidSans" stroke="none" fill="#000000" text-anchor="start" font-size="130" >21</text>
  	<line fill="none" stroke="#000000" stroke-linejoin="round" stroke-linecap="round" stroke-width="30" x1="15" y1="6615" x2="300" y2="6615"  />
      <rect x="0" y="6600" fill="none" width="300" height="30" id="connector21pin" stroke-width="0" />
      <rect x="0" y="6600" fill="none" width="30" height="30" id="connector21terminal" stroke-width="0" />
      <text id="label21" x="390" y="6650" font-family="DroidSans" stroke="none" fill="#000000" text-anchor="start" font-size="130" >22</text>
  	<line fill="none" stroke="#000000" stroke-linejoin="round" stroke-linecap="round" stroke-width="30" x1="15" y1="6915" x2="300" y2="6915"  />
      <rect x="0" y="6900" fill="none" width="300" height="30" id="connector22pin" stroke-width="0" />
      <rect x="0" y="6900" fill="none" width="30" height="30" id="connector22terminal" stroke-width="0" />
      <text id="label22" x="390" y="6950" font-family="DroidSans" stroke="none" fill="#000000" text-anchor="start" font-size="130" >23</text>
  	<line fill="none" stroke="#000000" stroke-linejoin="round" stroke-linecap="round" stroke-width="30" x1="15" y1="7215" x2="300" y2="7215"  />
      <rect x="0" y="7200" fill="none" width="300" height="30" id="connector23pin" stroke-width="0" />
      <rect x="0" y="7200" fill="none" width="30" height="30" id="connector23terminal" stroke-width="0" />
      <text id="label23" x="390" y="7250" font-family="DroidSans" stroke="none" fill="#000000" text-anchor="start" font-size="130" >24</text>
  	<line fill="none" stroke="#000000" stroke-linejoin="round" stroke-linecap="round" stroke-width="30" x1="15" y1="7515" x2="300" y2="7515"  />
      <rect x="0" y="7500" fill="none" width="300" height="30" id="connector24pin" stroke-width="0" />
      <rect x="0" y="7500" fill="none" width="30" height="30" id="connector24terminal" stroke-width="0" />
      <text id="label24" x="390" y="7550" font-family="DroidSans" stroke="none" fill="#000000" text-anchor="start" font-size="130" >25</text>
  	<line fill="none" stroke="#000000" stroke-linejoin="round" stroke-linecap="round" stroke-width="30" x1="15" y1="7815" x2="300" y2="7815"  />
      <rect x="0" y="7800" fill="none" width="300" height="30" id="connector25pin" stroke-width="0" />
      <rect x="0" y="7800" fill="none" width="30" height="30" id="connector25terminal" stroke-width="0" />
      <text id="label25" x="390" y="7850" font-family="DroidSans" stroke="none" fill="#000000" text-anchor="start" font-size="130" >26</text>
  	<line fill="none" stroke="#000000" stroke-linejoin="round" stroke-linecap="round" stroke-width="30" x1="15" y1="8115" x2="300" y2="8115"  />
      <rect x="0" y="8100" fill="none" width="300" height="30" id="connector26pin" stroke-width="0" />
      <rect x="0" y="8100" fill="none" width="30" height="30" id="connector26terminal" stroke-width="0" />
      <text id="label26" x="390" y="8150" font-family="DroidSans" stroke="none" fill="#000000" text-anchor="start" font-size="130" >27</text>
  	<line fill="none" stroke="#000000" stroke-linejoin="round" stroke-linecap="round" stroke-width="30" x1="15" y1="8415" x2="300" y2="8415"  />
      <rect x="0" y="8400" fill="none" width="300" height="30" id="connector27pin" stroke-width="0" />
      <rect x="0" y="8400" fill="none" width="30" height="30" id="connector27terminal" stroke-width="0" />
      <text id="label27" x="390" y="8450" font-family="DroidSans" stroke="none" fill="#000000" text-anchor="start" font-size="130" >28</text>
  	<line fill="none" stroke="#000000" stroke-linejoin="round" stroke-linecap="round" stroke-width="30" x1="15" y1="8715" x2="300" y2="8715"  />
      <rect x="0" y="8700" fill="none" width="300" height="30" id="connector28pin" stroke-width="0" />
      <rect x="0" y="8700" fill="none" width="30" height="30" id="connector28terminal" stroke-width="0" />
      <text id="label28" x="390" y="8750" font-family="DroidSans" stroke="none" fill="#000000" text-anchor="start" font-size="130" >29</text>
  	<line fill="none" stroke="#000000" stroke-linejoin="round" stroke-linecap="round" stroke-width="30" x1="15" y1="9015" x2="300" y2="9015"  />
      <rect x="0" y="9000" fill="none" width="300" height="30" id="connector29pin" stroke-width="0" />
      <rect x="0" y="9000" fill="none" width="30" height="30" id="connector29terminal" stroke-width="0" />
      <text id="label29" x="390" y="9050" font-family="DroidSans" stroke="none" fill="#000000" text-anchor="start" font-size="130" >30</text>
  	<line fill="none" stroke="#000000" stroke-linejoin="round" stroke-linecap="round" stroke-width="30" x1="15" y1="9315" x2="300" y2="9315"  />
      <rect x="0" y="9300" fill="none" width="300" height="30" id="connector30pin" stroke-width="0" />
      <rect x="0" y="9300" fill="none" width="30" height="30" id="connector30terminal" stroke-width="0" />
      <text id="label30" x="390" y="9350" font-family="DroidSans" stroke="none" fill="#000000" text-anchor="start" font-size="130" >31</text>
  	<line fill="none" stroke="#000000" stroke-linejoin="round" stroke-linecap="round" stroke-width="30" x1="15" y1="9615" x2="300" y2="9615"  />
      <rect x="0" y="9600" fill="none" width="300" height="30" id="connector31pin" stroke-width="0" />
      <rect x="0" y="9600" fill="none" width="30" height="30" id="connector31terminal" stroke-width="0" />
      <text id="label31" x="390" y="9650" font-family="DroidSans" stroke="none" fill="#000000" text-anchor="start" font-size="130" >32</text>
  	<line fill="none" stroke="#000000" stroke-linejoin="round" stroke-linecap="round" stroke-width="30" x1="15" y1="9915" x2="300" y2="9915"  />
      <rect x="0" y="9900" fill="none" width="300" height="30" id="connector32pin" stroke-width="0" />
      <rect x="0" y="9900" fill="none" width="30" height="30" id="connector32terminal" stroke-width="0" />
      <text id="label32" x="390" y="9950" font-family="DroidSans" stroke="none" fill="#000000" text-anchor="start" font-size="130" >33</text>
  	<line fill="none" stroke="#000000" stroke-linejoin="round" stroke-linecap="round" stroke-width="30" x1="15" y1="10215" x2="300" y2="10215"  />
      <rect x="0" y="10200" fill="none" width="300" height="30" id="connector33pin" stroke-width="0" />
      <rect x="0" y="10200" fill="none" width="30" height="30" id="connector33terminal" stroke-width="0" />
      <text id="label33" x="390" y="10250" font-family="DroidSans" stroke="none" fill="#000000" text-anchor="start" font-size="130" >34</text>
  	<line fill="none" stroke="#000000" stroke-linejoin="round" stroke-linecap="round" stroke-width="30" x1="15" y1="10515" x2="300" y2="10515"  />
      <rect x="0" y="10500" fill="none" width="300" height="30" id="connector34pin" stroke-width="0" />
      <rect x="0" y="10500" fill="none" width="30" height="30" id="connector34terminal" stroke-width="0" />
      <text id="label34" x="390" y="10550" font-family="DroidSans" stroke="none" fill="#000000" text-anchor="start" font-size="130" >35</text>
  	<line fill="none" stroke="#000000" stroke-linejoin="round" stroke-linecap="round" stroke-width="30" x1="15" y1="10815" x2="300" y2="10815"  />
      <rect x="0" y="10800" fill="none" width="300" height="30" id="connector35pin" stroke-width="0" />
      <rect x="0" y="10800" fill="none" width="30" height="30" id="connector35terminal" stroke-width="0" />
      <text id="label35" x="390" y="10850" font-family="DroidSans" stroke="none" fill="#000000" text-anchor="start" font-size="130" >36</text>
  	<line fill="none" stroke="#000000" stroke-linejoin="round" stroke-linecap="round" stroke-width="30" x1="15" y1="11115" x2="300" y2="11115"  />
      <rect x="0" y="11100" fill="none" width="300" height="30" id="connector36pin" stroke-width="0" />
      <rect x="0" y="11100" fill="none" width="30" height="30" id="connector36terminal" stroke-width="0" />
      <text id="label36" x="390" y="11150" font-family="DroidSans" stroke="none" fill="#000000" text-anchor="start" font-size="130" >37</text>
  	<line fill="none" stroke="#000000" stroke-linejoin="round" stroke-linecap="round" stroke-width="30" x1="15" y1="11415" x2="300" y2="11415"  />
      <rect x="0" y="11400" fill="none" width="300" height="30" id="connector37pin" stroke-width="0" />
      <rect x="0" y="11400" fill="none" width="30" height="30" id="connector37terminal" stroke-width="0" />
      <text id="label37" x="390" y="11450" font-family="DroidSans" stroke="none" fill="#000000" text-anchor="start" font-size="130" >38</text>
  	<line fill="none" stroke="#000000" stroke-linejoin="round" stroke-linecap="round" stroke-width="30" x1="15" y1="11715" x2="300" y2="11715"  />
      <rect x="0" y="11700" fill="none" width="300" height="30" id="connector38pin" stroke-width="0" />
      <rect x="0" y="11700" fill="none" width="30" height="30" id="connector38terminal" stroke-width="0" />
      <text id="label38" x="390" y="11750" font-family="DroidSans" stroke="none" fill="#000000" text-anchor="start" font-size="130" >39</text>
  	<line fill="none" stroke="#000000" stroke-linejoin="round" stroke-linecap="round" stroke-width="30" x1="15" y1="12015" x2="300" y2="12015"  />
      <rect x="0" y="12000" fill="none" width="300" height="30" id="connector39pin" stroke-width="0" />
      <rect x="0" y="12000" fill="none" width="30" height="30" id="connector39terminal" stroke-width="0" />
      <text id="label39" x="390" y="12050" font-family="DroidSans" stroke="none" fill="#000000" text-anchor="start" font-size="130" >40</text>
  	<line fill="none" stroke="#000000" stroke-linejoin="round" stroke-linecap="round" stroke-width="30" x1="15" y1="12315" x2="300" y2="12315"  />
      <rect x="0" y="12300" fill="none" width="300" height="30" id="connector40pin" stroke-width="0" />
      <rect x="0" y="12300" fill="none" width="30" height="30" id="connector40terminal" stroke-width="0" />
      <text id="label40" x="390" y="12350" font-family="DroidSans" stroke="none" fill="#000000" text-anchor="start" font-size="130" >41</text>
  	<line fill="none" stroke="#000000" stroke-linejoin="round" stroke-linecap="round" stroke-width="30" x1="15" y1="12615" x2="300" y2="12615"  />
      <rect x="0" y="12600" fill="none" width="300" height="30" id="connector41pin" stroke-width="0" />
      <rect x="0" y="12600" fill="none" width="30" height="30" id="connector41terminal" stroke-width="0" />
      <text id="label41" x="390" y="12650" font-family="DroidSans" stroke="none" fill="#000000" text-anchor="start" font-size="130" >42</text>
  	<line fill="none" stroke="#000000" stroke-linejoin="round" stroke-linecap="round" stroke-width="30" x1="15" y1="12915" x2="300" y2="12915"  />
      <rect x="0" y="12900" fill="none" width="300" height="30" id="connector42pin" stroke-width="0" />
      <rect x="0" y="12900" fill="none" width="30" height="30" id="connector42terminal" stroke-width="0" />
      <text id="label42" x="390" y="12950" font-family="DroidSans" stroke="none" fill="#000000" text-anchor="start" font-size="130" >43</text>
  	<line fill="none" stroke="#000000" stroke-linejoin="round" stroke-linecap="round" stroke-width="30" x1="15" y1="13215" x2="300" y2="13215"  />
      <rect x="0" y="13200" fill="none" width="300" height="30" id="connector43pin" stroke-width="0" />
      <rect x="0" y="13200" fill="none" width="30" height="30" id="connector43terminal" stroke-width="0" />
      <text id="label43" x="390" y="13250" font-family="DroidSans" stroke="none" fill="#000000" text-anchor="start" font-size="130" >44</text>
  	<line fill="none" stroke="#000000" stroke-linejoin="round" stroke-linecap="round" stroke-width="30" x1="15" y1="13515" x2="300" y2="13515"  />
      <rect x="0" y="13500" fill="none" width="300" height="30" id="connector44pin" stroke-width="0" />
      <rect x="0" y="13500" fill="none" width="30" height="30" id="connector44terminal" stroke-width="0" />
      <text id="label44" x="390" y="13550" font-family="DroidSans" stroke="none" fill="#000000" text-anchor="start" font-size="130" >45</text>
  	<line fill="none" stroke="#000000" stroke-linejoin="round" stroke-linecap="round" stroke-width="30" x1="15" y1="13815" x2="300" y2="13815"  />
      <rect x="0" y="13800" fill="none" width="300" height="30" id="connector45pin" stroke-width="0" />
      <rect x="0" y="13800" fill="none" width="30" height="30" id="connector45terminal" stroke-width="0" />
      <text id="label45" x="390" y="13850" font-family="DroidSans" stroke="none" fill="#000000" text-anchor="start" font-size="130" >46</text>
  	<line fill="none" stroke="#000000" stroke-linejoin="round" stroke-linecap="round" stroke-width="30" x1="15" y1="14115" x2="300" y2="14115"  />
      <rect x="0" y="14100" fill="none" width="300" height="30" id="connector46pin" stroke-width="0" />
      <rect x="0" y="14100" fill="none" width="30" height="30" id="connector46terminal" stroke-width="0" />
      <text id="label46" x="390" y="14150" font-family="DroidSans" stroke="none" fill="#000000" text-anchor="start" font-size="130" >47</text>
  	<line fill="none" stroke="#000000" stroke-linejoin="round" stroke-linecap="round" stroke-width="30" x1="15" y1="14415" x2="300" y2="14415"  />
      <rect x="0" y="14400" fill="none" width="300" height="30" id="connector47pin" stroke-width="0" />
      <rect x="0" y="14400" fill="none" width="30" height="30" id="connector47terminal" stroke-width="0" />
      <text id="label47" x="390" y="14450" font-family="DroidSans" stroke="none" fill="#000000" text-anchor="start" font-size="130" >48</text>
  </g>
</svg>
