<?xml version="1.0" encoding="UTF-8" standalone="no"?>
<svg
   xmlns:svg="http://www.w3.org/2000/svg"
   xmlns="http://www.w3.org/2000/svg"
   version="1.0"
   width="1.53in"
   height="3.63in"
   viewBox="0 0 1530 3630"
   id="svg2">
  <g id="schematic">
    <rect x="315" y="15" fill="none" width="1200" height="3600" stroke="#000000" stroke-linejoin="round" stroke-linecap="round" stroke-width="30" />
    <text id="label" x="915" y="1815.0" fill="#000000" stroke="none" font-family="DroidSans" text-anchor="middle" font-size="235" >IC</text> 
  	<line fill="none" stroke="#000000" stroke-linejoin="round" stroke-linecap="round" stroke-width="30" x1="15" y1="315" x2="300" y2="315"  />
      <rect x="0" y="300" fill="none" width="300" height="30" id="connector0pin" stroke-width="0" />
      <rect x="0" y="300" fill="none" width="30" height="30" id="connector0terminal" stroke-width="0" />
      <text id="label0" x="390" y="350" font-family="DroidSans" stroke="none" fill="#000000" text-anchor="start" font-size="130" >1</text>
  	<line fill="none" stroke="#000000" stroke-linejoin="round" stroke-linecap="round" stroke-width="30" x1="15" y1="615" x2="300" y2="615"  />
      <rect x="0" y="600" fill="none" width="300" height="30" id="connector1pin" stroke-width="0" />
      <rect x="0" y="600" fill="none" width="30" height="30" id="connector1terminal" stroke-width="0" />
      <text id="label1" x="390" y="650" font-family="DroidSans" stroke="none" fill="#000000" text-anchor="start" font-size="130" >2</text>
  	<line fill="none" stroke="#000000" stroke-linejoin="round" stroke-linecap="round" stroke-width="30" x1="15" y1="915" x2="300" y2="915"  />
      <rect x="0" y="900" fill="none" width="300" height="30" id="connector2pin" stroke-width="0" />
      <rect x="0" y="900" fill="none" width="30" height="30" id="connector2terminal" stroke-width="0" />
      <text id="label2" x="390" y="950" font-family="DroidSans" stroke="none" fill="#000000" text-anchor="start" font-size="130" >3</text>
  	<line fill="none" stroke="#000000" stroke-linejoin="round" stroke-linecap="round" stroke-width="30" x1="15" y1="1215" x2="300" y2="1215"  />
      <rect x="0" y="1200" fill="none" width="300" height="30" id="connector3pin" stroke-width="0" />
      <rect x="0" y="1200" fill="none" width="30" height="30" id="connector3terminal" stroke-width="0" />
      <text id="label3" x="390" y="1250" font-family="DroidSans" stroke="none" fill="#000000" text-anchor="start" font-size="130" >4</text>
  	<line fill="none" stroke="#000000" stroke-linejoin="round" stroke-linecap="round" stroke-width="30" x1="15" y1="1515" x2="300" y2="1515"  />
      <rect x="0" y="1500" fill="none" width="300" height="30" id="connector4pin" stroke-width="0" />
      <rect x="0" y="1500" fill="none" width="30" height="30" id="connector4terminal" stroke-width="0" />
      <text id="label4" x="390" y="1550" font-family="DroidSans" stroke="none" fill="#000000" text-anchor="start" font-size="130" >5</text>
  	<line fill="none" stroke="#000000" stroke-linejoin="round" stroke-linecap="round" stroke-width="30" x1="15" y1="1815" x2="300" y2="1815"  />
      <rect x="0" y="1800" fill="none" width="300" height="30" id="connector5pin" stroke-width="0" />
      <rect x="0" y="1800" fill="none" width="30" height="30" id="connector5terminal" stroke-width="0" />
      <text id="label5" x="390" y="1850" font-family="DroidSans" stroke="none" fill="#000000" text-anchor="start" font-size="130" >6</text>
  	<line fill="none" stroke="#000000" stroke-linejoin="round" stroke-linecap="round" stroke-width="30" x1="15" y1="2115" x2="300" y2="2115"  />
      <rect x="0" y="2100" fill="none" width="300" height="30" id="connector6pin" stroke-width="0" />
      <rect x="0" y="2100" fill="none" width="30" height="30" id="connector6terminal" stroke-width="0" />
      <text id="label6" x="390" y="2150" font-family="DroidSans" stroke="none" fill="#000000" text-anchor="start" font-size="130" >7</text>
  	<line fill="none" stroke="#000000" stroke-linejoin="round" stroke-linecap="round" stroke-width="30" x1="15" y1="2415" x2="300" y2="2415"  />
      <rect x="0" y="2400" fill="none" width="300" height="30" id="connector7pin" stroke-width="0" />
      <rect x="0" y="2400" fill="none" width="30" height="30" id="connector7terminal" stroke-width="0" />
      <text id="label7" x="390" y="2450" font-family="DroidSans" stroke="none" fill="#000000" text-anchor="start" font-size="130" >8</text>
  	<line fill="none" stroke="#000000" stroke-linejoin="round" stroke-linecap="round" stroke-width="30" x1="15" y1="2715" x2="300" y2="2715"  />
      <rect x="0" y="2700" fill="none" width="300" height="30" id="connector8pin" stroke-width="0" />
      <rect x="0" y="2700" fill="none" width="30" height="30" id="connector8terminal" stroke-width="0" />
      <text id="label8" x="390" y="2750" font-family="DroidSans" stroke="none" fill="#000000" text-anchor="start" font-size="130" >9</text>
  	<line fill="none" stroke="#000000" stroke-linejoin="round" stroke-linecap="round" stroke-width="30" x1="15" y1="3015" x2="300" y2="3015"  />
      <rect x="0" y="3000" fill="none" width="300" height="30" id="connector9pin" stroke-width="0" />
      <rect x="0" y="3000" fill="none" width="30" height="30" id="connector9terminal" stroke-width="0" />
      <text id="label9" x="390" y="3050" font-family="DroidSans" stroke="none" fill="#000000" text-anchor="start" font-size="130" >10</text>
  	<line fill="none" stroke="#000000" stroke-linejoin="round" stroke-linecap="round" stroke-width="30" x1="15" y1="3315" x2="300" y2="3315"  />
      <rect x="0" y="3300" fill="none" width="300" height="30" id="connector10pin" stroke-width="0" />
      <rect x="0" y="3300" fill="none" width="30" height="30" id="connector10terminal" stroke-width="0" />
      <text id="label10" x="390" y="3350" font-family="DroidSans" stroke="none" fill="#000000" text-anchor="start" font-size="130" >11</text>
  </g>
</svg>
