<?xml version="1.0" encoding="UTF-8" standalone="no"?>
<svg
   xmlns:svg="http://www.w3.org/2000/svg"
   xmlns="http://www.w3.org/2000/svg"
   version="1.0"
   width="1.53in"
   height="2.13in"
   viewBox="0 0 1530 2130"
   id="svg2">
  <g id="schematic">
    <rect x="315" y="15" fill="none" width="1200" height="2100" stroke="#000000" stroke-linejoin="round" stroke-linecap="round" stroke-width="30" />
    <text id="label" x="915" y="1065.0" fill="#000000" stroke="none" font-family="Droid Sans" text-anchor="middle" font-size="235" >IC</text> 
  	<line fill="none" stroke="#000000" stroke-linejoin="round" stroke-linecap="round" stroke-width="30" x1="15" y1="315" x2="300" y2="315"  />
      <rect x="0" y="300" fill="none" width="300" height="30" id="connector0pin" stroke-width="0" />
      <rect x="0" y="300" fill="none" width="30" height="30" id="connector0terminal" stroke-width="0" />
      <text id="label0" x="390" y="350" font-family="'DroidSans'" stroke="none" fill="#000000" text-anchor="start" font-size="130" >0</text>
  	<line fill="none" stroke="#000000" stroke-linejoin="round" stroke-linecap="round" stroke-width="30" x1="15" y1="615" x2="300" y2="615"  />
      <rect x="0" y="600" fill="none" width="300" height="30" id="connector1pin" stroke-width="0" />
      <rect x="0" y="600" fill="none" width="30" height="30" id="connector1terminal" stroke-width="0" />
      <text id="label1" x="390" y="650" font-family="'DroidSans'" stroke="none" fill="#000000" text-anchor="start" font-size="130" >1</text>
  	<line fill="none" stroke="#000000" stroke-linejoin="round" stroke-linecap="round" stroke-width="30" x1="15" y1="915" x2="300" y2="915"  />
      <rect x="0" y="900" fill="none" width="300" height="30" id="connector2pin" stroke-width="0" />
      <rect x="0" y="900" fill="none" width="30" height="30" id="connector2terminal" stroke-width="0" />
      <text id="label2" x="390" y="950" font-family="'DroidSans'" stroke="none" fill="#000000" text-anchor="start" font-size="130" >2</text>
  	<line fill="none" stroke="#000000" stroke-linejoin="round" stroke-linecap="round" stroke-width="30" x1="15" y1="1215" x2="300" y2="1215"  />
      <rect x="0" y="1200" fill="none" width="300" height="30" id="connector3pin" stroke-width="0" />
      <rect x="0" y="1200" fill="none" width="30" height="30" id="connector3terminal" stroke-width="0" />
      <text id="label3" x="390" y="1250" font-family="'DroidSans'" stroke="none" fill="#000000" text-anchor="start" font-size="130" >3</text>
  	<line fill="none" stroke="#000000" stroke-linejoin="round" stroke-linecap="round" stroke-width="30" x1="15" y1="1515" x2="300" y2="1515"  />
      <rect x="0" y="1500" fill="none" width="300" height="30" id="connector4pin" stroke-width="0" />
      <rect x="0" y="1500" fill="none" width="30" height="30" id="connector4terminal" stroke-width="0" />
      <text id="label4" x="390" y="1550" font-family="'DroidSans'" stroke="none" fill="#000000" text-anchor="start" font-size="130" >4</text>
  	<line fill="none" stroke="#000000" stroke-linejoin="round" stroke-linecap="round" stroke-width="30" x1="15" y1="1815" x2="300" y2="1815"  />
      <rect x="0" y="1800" fill="none" width="300" height="30" id="connector5pin" stroke-width="0" />
      <rect x="0" y="1800" fill="none" width="30" height="30" id="connector5terminal" stroke-width="0" />
      <text id="label5" x="390" y="1850" font-family="'DroidSans'" stroke="none" fill="#000000" text-anchor="start" font-size="130" >5</text>
  </g>
</svg>
