<?xml version="1.0" encoding="utf-8"?>
<!DOCTYPE svg PUBLIC "-//W3C//DTD SVG 1.1 Basic//EN" "http://www.w3.org/Graphics/SVG/1.1/DTD/svg11-basic.dtd">
<svg version="1.1" baseProfile="basic" id="svg2" xmlns:svg="http://www.w3.org/2000/svg"
	 xmlns="http://www.w3.org/2000/svg" xmlns:xlink="http://www.w3.org/1999/xlink" x="0px" y="0px" width="0.87in"
	 height="13.77in" viewBox="0 0 62.641 991.389" xml:space="preserve">
	 

<g id="schematic" >
	<line id="connector0pin" fill="none" stroke="#000000" stroke-width="2" stroke-linecap="round" stroke-linejoin="round" x1="0.998" y1="9.722" x2="17.846" y2="9.722"/>
	<rect id="connector0terminal" x="0" y="8.724" width="0.998" height="1.997"/>
	<polyline fill="none" stroke="#000000" stroke-width="2" stroke-linecap="round" stroke-linejoin="round" points="61.641,16.406 
		46.597,9.722 61.641,3.034"/>
	
	<line id="line" fill="none" stroke="#000000" stroke-width="2" stroke-linecap="round" stroke-linejoin="round" x1="47.219" y1="9.722" x2="16.452" y2="9.722"/>
	<line id="connector1pin" fill="none" stroke="#000000" stroke-width="2" stroke-linecap="round" stroke-linejoin="round" x1="0.998" y1="29.161" x2="17.846" y2="29.161"/>
	<rect id="connector1terminal" x="0" y="28.163" width="0.998" height="1.997"/>
	<polyline fill="none" stroke="#000000" stroke-width="2" stroke-linecap="round" stroke-linejoin="round" points="61.641,35.845 
		46.597,29.161 61.641,22.473"/>
	
	<line id="line" fill="none" stroke="#000000" stroke-width="2" stroke-linecap="round" stroke-linejoin="round" x1="47.219" y1="29.161" x2="16.452" y2="29.161"/>
	<line id="connector2pin" fill="none" stroke="#000000" stroke-width="2" stroke-linecap="round" stroke-linejoin="round" x1="0.998" y1="48.6" x2="17.846" y2="48.6"/>
	<rect id="connector2terminal" x="0" y="47.602" width="0.998" height="1.997"/>
	<polyline fill="none" stroke="#000000" stroke-width="2" stroke-linecap="round" stroke-linejoin="round" points="61.641,55.284 
		46.597,48.6 61.641,41.912"/>
	
	<line id="line" fill="none" stroke="#000000" stroke-width="2" stroke-linecap="round" stroke-linejoin="round" x1="47.219" y1="48.6" x2="16.452" y2="48.6"/>
	<line id="connector3pin" fill="none" stroke="#000000" stroke-width="2" stroke-linecap="round" stroke-linejoin="round" x1="0.998" y1="68.039" x2="17.846" y2="68.039"/>
	<rect id="connector3terminal" x="0" y="67.041" width="0.998" height="1.997"/>
	<polyline fill="none" stroke="#000000" stroke-width="2" stroke-linecap="round" stroke-linejoin="round" points="61.641,74.723 
		46.597,68.039 61.641,61.351"/>
	
	<line id="line" fill="none" stroke="#000000" stroke-width="2" stroke-linecap="round" stroke-linejoin="round" x1="47.219" y1="68.039" x2="16.452" y2="68.039"/>
	<line id="connector4pin" fill="none" stroke="#000000" stroke-width="2" stroke-linecap="round" stroke-linejoin="round" x1="0.998" y1="87.478" x2="17.846" y2="87.478"/>
	<rect id="connector4terminal" x="0" y="86.48" width="0.998" height="1.997"/>
	<polyline fill="none" stroke="#000000" stroke-width="2" stroke-linecap="round" stroke-linejoin="round" points="61.641,94.162 
		46.597,87.478 61.641,80.79"/>
	
	<line id="line" fill="none" stroke="#000000" stroke-width="2" stroke-linecap="round" stroke-linejoin="round" x1="47.219" y1="87.478" x2="16.452" y2="87.478"/>
	<line id="connector5pin" fill="none" stroke="#000000" stroke-width="2" stroke-linecap="round" stroke-linejoin="round" x1="0.998" y1="106.917" x2="17.846" y2="106.917"/>
	<rect id="connector5terminal" x="0" y="105.919" width="0.998" height="1.997"/>
	<polyline fill="none" stroke="#000000" stroke-width="2" stroke-linecap="round" stroke-linejoin="round" points="61.641,113.601 
		46.597,106.917 61.641,100.229"/>
	
	<line id="line" fill="none" stroke="#000000" stroke-width="2" stroke-linecap="round" stroke-linejoin="round" x1="47.219" y1="106.917" x2="16.452" y2="106.917"/>
	<line id="connector6pin" fill="none" stroke="#000000" stroke-width="2" stroke-linecap="round" stroke-linejoin="round" x1="0.998" y1="126.356" x2="17.846" y2="126.356"/>
	<rect id="connector6terminal" x="0" y="125.358" width="0.998" height="1.997"/>
	<polyline fill="none" stroke="#000000" stroke-width="2" stroke-linecap="round" stroke-linejoin="round" points="61.641,133.04 
		46.597,126.356 61.641,119.668"/>
	
	<line id="line" fill="none" stroke="#000000" stroke-width="2" stroke-linecap="round" stroke-linejoin="round" x1="47.219" y1="126.356" x2="16.452" y2="126.356"/>
	<line id="connector7pin" fill="none" stroke="#000000" stroke-width="2" stroke-linecap="round" stroke-linejoin="round" x1="0.998" y1="145.795" x2="17.846" y2="145.795"/>
	<rect id="connector7terminal" x="0" y="144.797" width="0.998" height="1.997"/>
	<polyline fill="none" stroke="#000000" stroke-width="2" stroke-linecap="round" stroke-linejoin="round" points="61.641,152.479 
		46.597,145.795 61.641,139.107"/>
	
	<line id="line" fill="none" stroke="#000000" stroke-width="2" stroke-linecap="round" stroke-linejoin="round" x1="47.219" y1="145.795" x2="16.452" y2="145.795"/>
	<line id="connector8pin" fill="none" stroke="#000000" stroke-width="2" stroke-linecap="round" stroke-linejoin="round" x1="0.998" y1="165.234" x2="17.846" y2="165.234"/>
	<rect id="connector8terminal" x="0" y="164.236" width="0.998" height="1.997"/>
	<polyline fill="none" stroke="#000000" stroke-width="2" stroke-linecap="round" stroke-linejoin="round" points="61.641,171.918 
		46.597,165.234 61.641,158.546"/>
	
	<line id="line" fill="none" stroke="#000000" stroke-width="2" stroke-linecap="round" stroke-linejoin="round" x1="47.219" y1="165.234" x2="16.452" y2="165.234"/>
	<line id="connector9pin" fill="none" stroke="#000000" stroke-width="2" stroke-linecap="round" stroke-linejoin="round" x1="0.998" y1="184.673" x2="17.846" y2="184.673"/>
	<rect id="connector9terminal" x="0" y="183.675" width="0.998" height="1.997"/>
	<polyline fill="none" stroke="#000000" stroke-width="2" stroke-linecap="round" stroke-linejoin="round" points="61.641,191.357 
		46.597,184.673 61.641,177.985"/>
	
	<line id="line" fill="none" stroke="#000000" stroke-width="2" stroke-linecap="round" stroke-linejoin="round" x1="47.219" y1="184.673" x2="16.452" y2="184.673"/>
	<line id="connector10pin" fill="none" stroke="#000000" stroke-width="2" stroke-linecap="round" stroke-linejoin="round" x1="0.998" y1="204.112" x2="17.846" y2="204.112"/>
	<rect id="connector10terminal" x="0" y="203.114" width="0.998" height="1.997"/>
	<polyline fill="none" stroke="#000000" stroke-width="2" stroke-linecap="round" stroke-linejoin="round" points="61.641,210.796 
		46.597,204.112 61.641,197.424"/>
	
	<line id="line" fill="none" stroke="#000000" stroke-width="2" stroke-linecap="round" stroke-linejoin="round" x1="47.219" y1="204.112" x2="16.452" y2="204.112"/>
	<line id="connector11pin" fill="none" stroke="#000000" stroke-width="2" stroke-linecap="round" stroke-linejoin="round" x1="0.998" y1="223.551" x2="17.846" y2="223.551"/>
	<rect id="connector11terminal" x="0" y="222.553" width="0.998" height="1.997"/>
	<polyline fill="none" stroke="#000000" stroke-width="2" stroke-linecap="round" stroke-linejoin="round" points="61.641,230.235 
		46.597,223.551 61.641,216.863"/>
	
	<line id="line" fill="none" stroke="#000000" stroke-width="2" stroke-linecap="round" stroke-linejoin="round" x1="47.219" y1="223.551" x2="16.452" y2="223.551"/>
	<line id="connector12pin" fill="none" stroke="#000000" stroke-width="2" stroke-linecap="round" stroke-linejoin="round" x1="0.998" y1="242.99" x2="17.846" y2="242.99"/>
	<rect id="connector12terminal" x="0" y="241.992" width="0.998" height="1.997"/>
	<polyline fill="none" stroke="#000000" stroke-width="2" stroke-linecap="round" stroke-linejoin="round" points="61.641,249.674 
		46.597,242.99 61.641,236.302"/>
	
	<line id="line" fill="none" stroke="#000000" stroke-width="2" stroke-linecap="round" stroke-linejoin="round" x1="47.219" y1="242.99" x2="16.452" y2="242.99"/>
	<line id="connector13pin" fill="none" stroke="#000000" stroke-width="2" stroke-linecap="round" stroke-linejoin="round" x1="0.998" y1="262.429" x2="17.846" y2="262.429"/>
	<rect id="connector13terminal" x="0" y="261.431" width="0.998" height="1.997"/>
	<polyline fill="none" stroke="#000000" stroke-width="2" stroke-linecap="round" stroke-linejoin="round" points="61.641,269.113 
		46.597,262.429 61.641,255.741"/>
	
	<line id="line" fill="none" stroke="#000000" stroke-width="2" stroke-linecap="round" stroke-linejoin="round" x1="47.219" y1="262.429" x2="16.452" y2="262.429"/>
	<line id="connector14pin" fill="none" stroke="#000000" stroke-width="2" stroke-linecap="round" stroke-linejoin="round" x1="0.998" y1="281.868" x2="17.846" y2="281.868"/>
	<rect id="connector14terminal" x="0" y="280.87" width="0.998" height="1.997"/>
	<polyline fill="none" stroke="#000000" stroke-width="2" stroke-linecap="round" stroke-linejoin="round" points="61.641,288.552 
		46.597,281.868 61.641,275.18"/>
	
	<line id="line" fill="none" stroke="#000000" stroke-width="2" stroke-linecap="round" stroke-linejoin="round" x1="47.219" y1="281.868" x2="16.452" y2="281.868"/>
	<line id="connector15pin" fill="none" stroke="#000000" stroke-width="2" stroke-linecap="round" stroke-linejoin="round" x1="0.998" y1="301.307" x2="17.846" y2="301.307"/>
	<rect id="connector15terminal" x="0" y="300.309" width="0.998" height="1.997"/>
	<polyline fill="none" stroke="#000000" stroke-width="2" stroke-linecap="round" stroke-linejoin="round" points="61.641,307.991 
		46.597,301.307 61.641,294.619"/>
	
	<line id="line" fill="none" stroke="#000000" stroke-width="2" stroke-linecap="round" stroke-linejoin="round" x1="47.219" y1="301.307" x2="16.452" y2="301.307"/>
	<line id="connector16pin" fill="none" stroke="#000000" stroke-width="2" stroke-linecap="round" stroke-linejoin="round" x1="0.998" y1="320.746" x2="17.846" y2="320.746"/>
	<rect id="connector16terminal" x="0" y="319.748" width="0.998" height="1.997"/>
	<polyline fill="none" stroke="#000000" stroke-width="2" stroke-linecap="round" stroke-linejoin="round" points="61.641,327.43 
		46.597,320.746 61.641,314.058"/>
	
	<line id="line" fill="none" stroke="#000000" stroke-width="2" stroke-linecap="round" stroke-linejoin="round" x1="47.219" y1="320.746" x2="16.452" y2="320.746"/>
	<line id="connector17pin" fill="none" stroke="#000000" stroke-width="2" stroke-linecap="round" stroke-linejoin="round" x1="0.998" y1="340.185" x2="17.846" y2="340.185"/>
	<rect id="connector17terminal" x="0" y="339.187" width="0.998" height="1.997"/>
	<polyline fill="none" stroke="#000000" stroke-width="2" stroke-linecap="round" stroke-linejoin="round" points="61.641,346.869 
		46.597,340.185 61.641,333.497"/>
	
	<line id="line" fill="none" stroke="#000000" stroke-width="2" stroke-linecap="round" stroke-linejoin="round" x1="47.219" y1="340.185" x2="16.452" y2="340.185"/>
	<line id="connector18pin" fill="none" stroke="#000000" stroke-width="2" stroke-linecap="round" stroke-linejoin="round" x1="0.998" y1="359.624" x2="17.846" y2="359.624"/>
	<rect id="connector18terminal" x="0" y="358.626" width="0.998" height="1.997"/>
	<polyline fill="none" stroke="#000000" stroke-width="2" stroke-linecap="round" stroke-linejoin="round" points="61.641,366.308 
		46.597,359.624 61.641,352.936"/>
	
	<line id="line" fill="none" stroke="#000000" stroke-width="2" stroke-linecap="round" stroke-linejoin="round" x1="47.219" y1="359.624" x2="16.452" y2="359.624"/>
	<line id="connector19pin" fill="none" stroke="#000000" stroke-width="2" stroke-linecap="round" stroke-linejoin="round" x1="0.998" y1="379.063" x2="17.846" y2="379.063"/>
	<rect id="connector19terminal" x="0" y="378.065" width="0.998" height="1.997"/>
	<polyline fill="none" stroke="#000000" stroke-width="2" stroke-linecap="round" stroke-linejoin="round" points="61.641,385.747 
		46.597,379.063 61.641,372.375"/>
	
	<line id="line" fill="none" stroke="#000000" stroke-width="2" stroke-linecap="round" stroke-linejoin="round" x1="47.219" y1="379.063" x2="16.452" y2="379.063"/>
	<line id="connector20pin" fill="none" stroke="#000000" stroke-width="2" stroke-linecap="round" stroke-linejoin="round" x1="0.998" y1="398.502" x2="17.846" y2="398.502"/>
	<rect id="connector20terminal" x="0" y="397.504" width="0.998" height="1.997"/>
	<polyline fill="none" stroke="#000000" stroke-width="2" stroke-linecap="round" stroke-linejoin="round" points="61.641,405.186 
		46.597,398.502 61.641,391.814"/>
	
	<line id="line" fill="none" stroke="#000000" stroke-width="2" stroke-linecap="round" stroke-linejoin="round" x1="47.219" y1="398.502" x2="16.452" y2="398.502"/>
	<line id="connector21pin" fill="none" stroke="#000000" stroke-width="2" stroke-linecap="round" stroke-linejoin="round" x1="0.998" y1="417.941" x2="17.846" y2="417.941"/>
	<rect id="connector21terminal" x="0" y="416.943" width="0.998" height="1.997"/>
	<polyline fill="none" stroke="#000000" stroke-width="2" stroke-linecap="round" stroke-linejoin="round" points="61.641,424.625 
		46.597,417.941 61.641,411.253"/>
	
	<line id="line" fill="none" stroke="#000000" stroke-width="2" stroke-linecap="round" stroke-linejoin="round" x1="47.219" y1="417.941" x2="16.452" y2="417.941"/>
	<line id="connector22pin" fill="none" stroke="#000000" stroke-width="2" stroke-linecap="round" stroke-linejoin="round" x1="0.998" y1="437.38" x2="17.846" y2="437.38"/>
	<rect id="connector22terminal" x="0" y="436.382" width="0.998" height="1.997"/>
	<polyline fill="none" stroke="#000000" stroke-width="2" stroke-linecap="round" stroke-linejoin="round" points="61.641,444.064 
		46.597,437.38 61.641,430.692"/>
	
	<line id="line" fill="none" stroke="#000000" stroke-width="2" stroke-linecap="round" stroke-linejoin="round" x1="47.219" y1="437.38" x2="16.452" y2="437.38"/>
	<line id="connector23pin" fill="none" stroke="#000000" stroke-width="2" stroke-linecap="round" stroke-linejoin="round" x1="0.998" y1="456.819" x2="17.846" y2="456.819"/>
	<rect id="connector23terminal" x="0" y="455.821" width="0.998" height="1.997"/>
	<polyline fill="none" stroke="#000000" stroke-width="2" stroke-linecap="round" stroke-linejoin="round" points="61.641,463.503 
		46.597,456.819 61.641,450.131"/>
	
	<line id="line" fill="none" stroke="#000000" stroke-width="2" stroke-linecap="round" stroke-linejoin="round" x1="47.219" y1="456.819" x2="16.452" y2="456.819"/>
	<line id="connector24pin" fill="none" stroke="#000000" stroke-width="2" stroke-linecap="round" stroke-linejoin="round" x1="0.998" y1="476.258" x2="17.846" y2="476.258"/>
	<rect id="connector24terminal" x="0" y="475.26" width="0.998" height="1.997"/>
	<polyline fill="none" stroke="#000000" stroke-width="2" stroke-linecap="round" stroke-linejoin="round" points="61.641,482.942 
		46.597,476.258 61.641,469.57"/>
	
	<line id="line" fill="none" stroke="#000000" stroke-width="2" stroke-linecap="round" stroke-linejoin="round" x1="47.219" y1="476.258" x2="16.452" y2="476.258"/>
	<line id="connector25pin" fill="none" stroke="#000000" stroke-width="2" stroke-linecap="round" stroke-linejoin="round" x1="0.998" y1="495.697" x2="17.846" y2="495.697"/>
	<rect id="connector25terminal" x="0" y="494.699" width="0.998" height="1.997"/>
	<polyline fill="none" stroke="#000000" stroke-width="2" stroke-linecap="round" stroke-linejoin="round" points="61.641,502.381 
		46.597,495.697 61.641,489.009"/>
	
	<line id="line" fill="none" stroke="#000000" stroke-width="2" stroke-linecap="round" stroke-linejoin="round" x1="47.219" y1="495.697" x2="16.452" y2="495.697"/>
	<line id="connector26pin" fill="none" stroke="#000000" stroke-width="2" stroke-linecap="round" stroke-linejoin="round" x1="0.998" y1="515.136" x2="17.846" y2="515.136"/>
	<rect id="connector26terminal" x="0" y="514.138" width="0.998" height="1.997"/>
	<polyline fill="none" stroke="#000000" stroke-width="2" stroke-linecap="round" stroke-linejoin="round" points="61.641,521.82 
		46.597,515.136 61.641,508.448"/>
	
	<line id="line" fill="none" stroke="#000000" stroke-width="2" stroke-linecap="round" stroke-linejoin="round" x1="47.219" y1="515.136" x2="16.452" y2="515.136"/>
	<line id="connector27pin" fill="none" stroke="#000000" stroke-width="2" stroke-linecap="round" stroke-linejoin="round" x1="0.998" y1="534.575" x2="17.846" y2="534.575"/>
	<rect id="connector27terminal" x="0" y="533.577" width="0.998" height="1.997"/>
	<polyline fill="none" stroke="#000000" stroke-width="2" stroke-linecap="round" stroke-linejoin="round" points="61.641,541.259 
		46.597,534.575 61.641,527.887"/>
	
	<line id="line" fill="none" stroke="#000000" stroke-width="2" stroke-linecap="round" stroke-linejoin="round" x1="47.219" y1="534.575" x2="16.452" y2="534.575"/>
	<line id="connector28pin" fill="none" stroke="#000000" stroke-width="2" stroke-linecap="round" stroke-linejoin="round" x1="0.998" y1="554.014" x2="17.846" y2="554.014"/>
	<rect id="connector28terminal" x="0" y="553.016" width="0.998" height="1.997"/>
	<polyline fill="none" stroke="#000000" stroke-width="2" stroke-linecap="round" stroke-linejoin="round" points="61.641,560.698 
		46.597,554.014 61.641,547.326"/>
	
	<line id="line" fill="none" stroke="#000000" stroke-width="2" stroke-linecap="round" stroke-linejoin="round" x1="47.219" y1="554.014" x2="16.452" y2="554.014"/>
	<line id="connector29pin" fill="none" stroke="#000000" stroke-width="2" stroke-linecap="round" stroke-linejoin="round" x1="0.998" y1="573.453" x2="17.846" y2="573.453"/>
	<rect id="connector29terminal" x="0" y="572.455" width="0.998" height="1.997"/>
	<polyline fill="none" stroke="#000000" stroke-width="2" stroke-linecap="round" stroke-linejoin="round" points="61.641,580.137 
		46.597,573.453 61.641,566.765"/>
	
	<line id="line" fill="none" stroke="#000000" stroke-width="2" stroke-linecap="round" stroke-linejoin="round" x1="47.219" y1="573.453" x2="16.452" y2="573.453"/>
	<line id="connector30pin" fill="none" stroke="#000000" stroke-width="2" stroke-linecap="round" stroke-linejoin="round" x1="0.998" y1="592.892" x2="17.846" y2="592.892"/>
	<rect id="connector30terminal" x="0" y="591.894" width="0.998" height="1.997"/>
	<polyline fill="none" stroke="#000000" stroke-width="2" stroke-linecap="round" stroke-linejoin="round" points="61.641,599.576 
		46.597,592.892 61.641,586.204"/>
	
	<line id="line" fill="none" stroke="#000000" stroke-width="2" stroke-linecap="round" stroke-linejoin="round" x1="47.219" y1="592.892" x2="16.452" y2="592.892"/>
	<line id="connector31pin" fill="none" stroke="#000000" stroke-width="2" stroke-linecap="round" stroke-linejoin="round" x1="0.998" y1="612.331" x2="17.846" y2="612.331"/>
	<rect id="connector31terminal" x="0" y="611.333" width="0.998" height="1.997"/>
	<polyline fill="none" stroke="#000000" stroke-width="2" stroke-linecap="round" stroke-linejoin="round" points="61.641,619.015 
		46.597,612.331 61.641,605.643"/>
	
	<line id="line" fill="none" stroke="#000000" stroke-width="2" stroke-linecap="round" stroke-linejoin="round" x1="47.219" y1="612.331" x2="16.452" y2="612.331"/>
	<line id="connector32pin" fill="none" stroke="#000000" stroke-width="2" stroke-linecap="round" stroke-linejoin="round" x1="0.998" y1="631.77" x2="17.846" y2="631.77"/>
	<rect id="connector32terminal" x="0" y="630.772" width="0.998" height="1.997"/>
	<polyline fill="none" stroke="#000000" stroke-width="2" stroke-linecap="round" stroke-linejoin="round" points="61.641,638.454 
		46.597,631.77 61.641,625.082"/>
	
	<line id="line" fill="none" stroke="#000000" stroke-width="2" stroke-linecap="round" stroke-linejoin="round" x1="47.219" y1="631.77" x2="16.452" y2="631.77"/>
	<line id="connector33pin" fill="none" stroke="#000000" stroke-width="2" stroke-linecap="round" stroke-linejoin="round" x1="0.998" y1="651.209" x2="17.846" y2="651.209"/>
	<rect id="connector33terminal" x="0" y="650.211" width="0.998" height="1.997"/>
	<polyline fill="none" stroke="#000000" stroke-width="2" stroke-linecap="round" stroke-linejoin="round" points="61.641,657.893 
		46.597,651.209 61.641,644.521"/>
	
	<line id="line" fill="none" stroke="#000000" stroke-width="2" stroke-linecap="round" stroke-linejoin="round" x1="47.219" y1="651.209" x2="16.452" y2="651.209"/>
	<line id="connector34pin" fill="none" stroke="#000000" stroke-width="2" stroke-linecap="round" stroke-linejoin="round" x1="0.998" y1="670.648" x2="17.846" y2="670.648"/>
	<rect id="connector34terminal" x="0" y="669.65" width="0.998" height="1.997"/>
	<polyline fill="none" stroke="#000000" stroke-width="2" stroke-linecap="round" stroke-linejoin="round" points="61.641,677.332 
		46.597,670.648 61.641,663.96"/>
	
	<line id="line" fill="none" stroke="#000000" stroke-width="2" stroke-linecap="round" stroke-linejoin="round" x1="47.219" y1="670.648" x2="16.452" y2="670.648"/>
	<line id="connector35pin" fill="none" stroke="#000000" stroke-width="2" stroke-linecap="round" stroke-linejoin="round" x1="0.998" y1="690.087" x2="17.846" y2="690.087"/>
	<rect id="connector35terminal" x="0" y="689.089" width="0.998" height="1.997"/>
	<polyline fill="none" stroke="#000000" stroke-width="2" stroke-linecap="round" stroke-linejoin="round" points="61.641,696.771 
		46.597,690.087 61.641,683.399"/>
	
	<line id="line" fill="none" stroke="#000000" stroke-width="2" stroke-linecap="round" stroke-linejoin="round" x1="47.219" y1="690.087" x2="16.452" y2="690.087"/>
	<line id="connector36pin" fill="none" stroke="#000000" stroke-width="2" stroke-linecap="round" stroke-linejoin="round" x1="0.998" y1="709.526" x2="17.846" y2="709.526"/>
	<rect id="connector36terminal" x="0" y="708.528" width="0.998" height="1.997"/>
	<polyline fill="none" stroke="#000000" stroke-width="2" stroke-linecap="round" stroke-linejoin="round" points="61.641,716.21 
		46.597,709.526 61.641,702.838"/>
	
	<line id="line" fill="none" stroke="#000000" stroke-width="2" stroke-linecap="round" stroke-linejoin="round" x1="47.219" y1="709.526" x2="16.452" y2="709.526"/>
	<line id="connector37pin" fill="none" stroke="#000000" stroke-width="2" stroke-linecap="round" stroke-linejoin="round" x1="0.998" y1="728.965" x2="17.846" y2="728.965"/>
	<rect id="connector37terminal" x="0" y="727.967" width="0.998" height="1.997"/>
	<polyline fill="none" stroke="#000000" stroke-width="2" stroke-linecap="round" stroke-linejoin="round" points="61.641,735.649 
		46.597,728.965 61.641,722.277"/>
	
	<line id="line" fill="none" stroke="#000000" stroke-width="2" stroke-linecap="round" stroke-linejoin="round" x1="47.219" y1="728.965" x2="16.452" y2="728.965"/>
	<line id="connector38pin" fill="none" stroke="#000000" stroke-width="2" stroke-linecap="round" stroke-linejoin="round" x1="0.998" y1="748.404" x2="17.846" y2="748.404"/>
	<rect id="connector38terminal" x="0" y="747.406" width="0.998" height="1.997"/>
	<polyline fill="none" stroke="#000000" stroke-width="2" stroke-linecap="round" stroke-linejoin="round" points="61.641,755.088 
		46.597,748.404 61.641,741.716"/>
	
	<line id="line" fill="none" stroke="#000000" stroke-width="2" stroke-linecap="round" stroke-linejoin="round" x1="47.219" y1="748.404" x2="16.452" y2="748.404"/>
	<line id="connector39pin" fill="none" stroke="#000000" stroke-width="2" stroke-linecap="round" stroke-linejoin="round" x1="0.998" y1="767.843" x2="17.846" y2="767.843"/>
	<rect id="connector39terminal" x="0" y="766.845" width="0.998" height="1.997"/>
	<polyline fill="none" stroke="#000000" stroke-width="2" stroke-linecap="round" stroke-linejoin="round" points="61.641,774.527 
		46.597,767.843 61.641,761.155"/>
	
	<line id="line" fill="none" stroke="#000000" stroke-width="2" stroke-linecap="round" stroke-linejoin="round" x1="47.219" y1="767.843" x2="16.452" y2="767.843"/>
	<line id="connector40pin" fill="none" stroke="#000000" stroke-width="2" stroke-linecap="round" stroke-linejoin="round" x1="0.998" y1="787.282" x2="17.846" y2="787.282"/>
	<rect id="connector40terminal" x="0" y="786.284" width="0.998" height="1.997"/>
	<polyline fill="none" stroke="#000000" stroke-width="2" stroke-linecap="round" stroke-linejoin="round" points="61.641,793.966 
		46.597,787.282 61.641,780.594"/>
	
	<line id="line" fill="none" stroke="#000000" stroke-width="2" stroke-linecap="round" stroke-linejoin="round" x1="47.219" y1="787.282" x2="16.452" y2="787.282"/>
	<line id="connector41pin" fill="none" stroke="#000000" stroke-width="2" stroke-linecap="round" stroke-linejoin="round" x1="0.998" y1="806.721" x2="17.846" y2="806.721"/>
	<rect id="connector41terminal" x="0" y="805.723" width="0.998" height="1.997"/>
	<polyline fill="none" stroke="#000000" stroke-width="2" stroke-linecap="round" stroke-linejoin="round" points="61.641,813.405 
		46.597,806.721 61.641,800.033"/>
	
	<line id="line" fill="none" stroke="#000000" stroke-width="2" stroke-linecap="round" stroke-linejoin="round" x1="47.219" y1="806.721" x2="16.452" y2="806.721"/>
	<line id="connector42pin" fill="none" stroke="#000000" stroke-width="2" stroke-linecap="round" stroke-linejoin="round" x1="0.998" y1="826.16" x2="17.846" y2="826.16"/>
	<rect id="connector42terminal" x="0" y="825.162" width="0.998" height="1.997"/>
	<polyline fill="none" stroke="#000000" stroke-width="2" stroke-linecap="round" stroke-linejoin="round" points="61.641,832.844 
		46.597,826.16 61.641,819.472"/>
	
	<line id="line" fill="none" stroke="#000000" stroke-width="2" stroke-linecap="round" stroke-linejoin="round" x1="47.219" y1="826.16" x2="16.452" y2="826.16"/>
	<line id="connector43pin" fill="none" stroke="#000000" stroke-width="2" stroke-linecap="round" stroke-linejoin="round" x1="0.998" y1="845.599" x2="17.846" y2="845.599"/>
	<rect id="connector43terminal" x="0" y="844.601" width="0.998" height="1.997"/>
	<polyline fill="none" stroke="#000000" stroke-width="2" stroke-linecap="round" stroke-linejoin="round" points="61.641,852.283 
		46.597,845.599 61.641,838.911"/>
	
	<line id="line" fill="none" stroke="#000000" stroke-width="2" stroke-linecap="round" stroke-linejoin="round" x1="47.219" y1="845.599" x2="16.452" y2="845.599"/>
	<line id="connector44pin" fill="none" stroke="#000000" stroke-width="2" stroke-linecap="round" stroke-linejoin="round" x1="0.998" y1="865.038" x2="17.846" y2="865.038"/>
	<rect id="connector44terminal" x="0" y="864.04" width="0.998" height="1.997"/>
	<polyline fill="none" stroke="#000000" stroke-width="2" stroke-linecap="round" stroke-linejoin="round" points="61.641,871.722 
		46.597,865.038 61.641,858.35"/>
	
	<line id="line" fill="none" stroke="#000000" stroke-width="2" stroke-linecap="round" stroke-linejoin="round" x1="47.219" y1="865.038" x2="16.452" y2="865.038"/>
	<line id="connector45pin" fill="none" stroke="#000000" stroke-width="2" stroke-linecap="round" stroke-linejoin="round" x1="0.998" y1="884.477" x2="17.846" y2="884.477"/>
	<rect id="connector45terminal" x="0" y="883.479" width="0.998" height="1.997"/>
	<polyline fill="none" stroke="#000000" stroke-width="2" stroke-linecap="round" stroke-linejoin="round" points="61.641,891.161 
		46.597,884.477 61.641,877.789"/>
	
	<line id="line" fill="none" stroke="#000000" stroke-width="2" stroke-linecap="round" stroke-linejoin="round" x1="47.219" y1="884.477" x2="16.452" y2="884.477"/>
	<line id="connector46pin" fill="none" stroke="#000000" stroke-width="2" stroke-linecap="round" stroke-linejoin="round" x1="0.998" y1="903.916" x2="17.846" y2="903.916"/>
	<rect id="connector46terminal" x="0" y="902.918" width="0.998" height="1.997"/>
	<polyline fill="none" stroke="#000000" stroke-width="2" stroke-linecap="round" stroke-linejoin="round" points="61.641,910.6 
		46.597,903.916 61.641,897.228"/>
	
	<line id="line" fill="none" stroke="#000000" stroke-width="2" stroke-linecap="round" stroke-linejoin="round" x1="47.219" y1="903.916" x2="16.452" y2="903.916"/>
	<line id="connector47pin" fill="none" stroke="#000000" stroke-width="2" stroke-linecap="round" stroke-linejoin="round" x1="0.998" y1="923.355" x2="17.846" y2="923.355"/>
	<rect id="connector47terminal" x="0" y="922.357" width="0.998" height="1.997"/>
	<polyline fill="none" stroke="#000000" stroke-width="2" stroke-linecap="round" stroke-linejoin="round" points="61.641,930.039 
		46.597,923.355 61.641,916.667"/>
	
	<line id="line" fill="none" stroke="#000000" stroke-width="2" stroke-linecap="round" stroke-linejoin="round" x1="47.219" y1="923.355" x2="16.452" y2="923.355"/>
	<line id="connector48pin" fill="none" stroke="#000000" stroke-width="2" stroke-linecap="round" stroke-linejoin="round" x1="0.998" y1="942.794" x2="17.846" y2="942.794"/>
	<rect id="connector48terminal" x="0" y="941.796" width="0.998" height="1.997"/>
	<polyline fill="none" stroke="#000000" stroke-width="2" stroke-linecap="round" stroke-linejoin="round" points="61.641,949.478 
		46.597,942.794 61.641,936.106"/>
	
	<line id="line" fill="none" stroke="#000000" stroke-width="2" stroke-linecap="round" stroke-linejoin="round" x1="47.219" y1="942.794" x2="16.452" y2="942.794"/>
	<line id="connector49pin" fill="none" stroke="#000000" stroke-width="2" stroke-linecap="round" stroke-linejoin="round" x1="0.998" y1="962.233" x2="17.846" y2="962.233"/>
	<rect id="connector49terminal" x="0" y="961.235" width="0.998" height="1.997"/>
	<polyline fill="none" stroke="#000000" stroke-width="2" stroke-linecap="round" stroke-linejoin="round" points="61.641,968.917 
		46.597,962.233 61.641,955.545"/>
	
	<line id="line" fill="none" stroke="#000000" stroke-width="2" stroke-linecap="round" stroke-linejoin="round" x1="47.219" y1="962.233" x2="16.452" y2="962.233"/>
	<line id="connector50pin" fill="none" stroke="#000000" stroke-width="2" stroke-linecap="round" stroke-linejoin="round" x1="0.998" y1="981.672" x2="17.846" y2="981.672"/>
	<rect id="connector50terminal" x="0" y="980.674" width="0.998" height="1.997"/>
	<polyline fill="none" stroke="#000000" stroke-width="2" stroke-linecap="round" stroke-linejoin="round" points="61.641,988.356 
		46.597,981.672 61.641,974.984"/>
	
	<line id="line" fill="none" stroke="#000000" stroke-width="2" stroke-linecap="round" stroke-linejoin="round" x1="47.219" y1="981.672" x2="16.452" y2="981.672"/>
</g>

</svg>
