<?xml version='1.0' encoding='UTF-8' standalone='no'?>
<!-- Created with Fritzing (http://www.fritzing.org/) -->
<svg xmlns="http://www.w3.org/2000/svg" width="2.98609in" x="0in" version="1.2" y="0in" height="4.46247in" viewBox="0 0 214.998 321.298" baseProfile="tiny">
 <desc >Fritzing schematic generated by brd2svg</desc>
 <g  id="schematic" stroke-width="0">
  <rect  width="170.078" x="22.4598" y="22.4598" fill="none" height="276.378" stroke="#000000" stroke-linejoin="round" stroke-linecap="round" stroke-width="2.4"/>
  <text  x="107.499" y="64.9795" font-family="DroidSans" fill="#000000" text-anchor="middle" stroke="none" id="label" stroke-width="0" font-size="18">Arduino</text>
  <text  x="107.499" y="86.2394" font-family="DroidSans" fill="#000000" text-anchor="middle" stroke="none" id="label" stroke-width="0" font-size="18">GPS</text>
  <text  x="107.499" y="107.499" font-family="DroidSans" fill="#000000" text-anchor="middle" stroke="none" id="label" stroke-width="0" font-size="18">Shield</text>
  <rect  width="7.2e-06" x="107.499" y="300.038" fill="none" height="7.2e-06" stroke="none" id="connector133pin" stroke-width="0" connectorName="N$2"/>
  <rect  width="7.2e-06" x="107.499" y="300.038" fill="none" height="7.2e-06" stroke="none" id="connector133terminal" stroke-width="0"/>
  <rect  width="7.2e-06" x="107.499" y="300.038" fill="none" height="7.2e-06" stroke="none" id="connector134pin" stroke-width="0" connectorName="N$4"/>
  <rect  width="7.2e-06" x="107.499" y="300.038" fill="none" height="7.2e-06" stroke="none" id="connector134terminal" stroke-width="0"/>
  <rect  width="7.2e-06" x="107.499" y="300.038" fill="none" height="7.2e-06" stroke="none" id="connector135pin" stroke-width="0" connectorName="N$6"/>
  <rect  width="7.2e-06" x="107.499" y="300.038" fill="none" height="7.2e-06" stroke="none" id="connector135terminal" stroke-width="0"/>
  <rect  width="7.2e-06" x="107.499" y="300.038" fill="none" height="7.2e-06" stroke="none" id="connector136pin" stroke-width="0" connectorName="N$7"/>
  <rect  width="7.2e-06" x="107.499" y="300.038" fill="none" height="7.2e-06" stroke="none" id="connector136terminal" stroke-width="0"/>
  <rect  width="7.2e-06" x="107.499" y="300.038" fill="none" height="7.2e-06" stroke="none" id="connector137pin" stroke-width="0" connectorName="N$8"/>
  <rect  width="7.2e-06" x="107.499" y="300.038" fill="none" height="7.2e-06" stroke="none" id="connector137terminal" stroke-width="0"/>
  <rect  width="7.2e-06" x="107.499" y="300.038" fill="none" height="7.2e-06" stroke="none" id="connector138pin" stroke-width="0" connectorName="N$9"/>
  <rect  width="7.2e-06" x="107.499" y="300.038" fill="none" height="7.2e-06" stroke="none" id="connector138terminal" stroke-width="0"/>
  <rect  width="7.2e-06" x="107.499" y="300.038" fill="none" height="7.2e-06" stroke="none" id="connector139pin" stroke-width="0" connectorName="N$10"/>
  <rect  width="7.2e-06" x="107.499" y="300.038" fill="none" height="7.2e-06" stroke="none" id="connector139terminal" stroke-width="0"/>
  <rect  width="7.2e-06" x="107.499" y="300.038" fill="none" height="7.2e-06" stroke="none" id="connector140pin" stroke-width="0" connectorName="N$11"/>
  <rect  width="7.2e-06" x="107.499" y="300.038" fill="none" height="7.2e-06" stroke="none" id="connector140terminal" stroke-width="0"/>
  <rect  width="7.2e-06" x="107.499" y="300.038" fill="none" height="7.2e-06" stroke="none" id="connector141pin" stroke-width="0" connectorName="N$13"/>
  <rect  width="7.2e-06" x="107.499" y="300.038" fill="none" height="7.2e-06" stroke="none" id="connector141terminal" stroke-width="0"/>
  <rect  width="7.2e-06" x="107.499" y="300.038" fill="none" height="7.2e-06" stroke="none" id="connector142pin" stroke-width="0" connectorName="N$15"/>
  <rect  width="7.2e-06" x="107.499" y="300.038" fill="none" height="7.2e-06" stroke="none" id="connector142terminal" stroke-width="0"/>
  <rect  width="7.2e-06" x="107.499" y="300.038" fill="none" height="7.2e-06" stroke="none" id="connector143pin" stroke-width="0" connectorName="N$16"/>
  <rect  width="7.2e-06" x="107.499" y="300.038" fill="none" height="7.2e-06" stroke="none" id="connector143terminal" stroke-width="0"/>
  <rect  width="7.2e-06" x="107.499" y="300.038" fill="none" height="7.2e-06" stroke="none" id="connector144pin" stroke-width="0" connectorName="N$17"/>
  <rect  width="7.2e-06" x="107.499" y="300.038" fill="none" height="7.2e-06" stroke="none" id="connector144terminal" stroke-width="0"/>
  <rect  width="7.2e-06" x="107.499" y="300.038" fill="none" height="7.2e-06" stroke="none" id="connector145pin" stroke-width="0" connectorName="N$18"/>
  <rect  width="7.2e-06" x="107.499" y="300.038" fill="none" height="7.2e-06" stroke="none" id="connector145terminal" stroke-width="0"/>
  <rect  width="7.2e-06" x="107.499" y="300.038" fill="none" height="7.2e-06" stroke="none" id="connector146pin" stroke-width="0" connectorName="N$19"/>
  <rect  width="7.2e-06" x="107.499" y="300.038" fill="none" height="7.2e-06" stroke="none" id="connector146terminal" stroke-width="0"/>
  <rect  width="7.2e-06" x="107.499" y="300.038" fill="none" height="7.2e-06" stroke="none" id="connector147pin" stroke-width="0" connectorName="N$20"/>
  <rect  width="7.2e-06" x="107.499" y="300.038" fill="none" height="7.2e-06" stroke="none" id="connector147terminal" stroke-width="0"/>
  <rect  width="7.2e-06" x="107.499" y="300.038" fill="none" height="7.2e-06" stroke="none" id="connector148pin" stroke-width="0" connectorName="N$21"/>
  <rect  width="7.2e-06" x="107.499" y="300.038" fill="none" height="7.2e-06" stroke="none" id="connector148terminal" stroke-width="0"/>
  <rect  width="7.2e-06" x="107.499" y="300.038" fill="none" height="7.2e-06" stroke="none" id="connector149pin" stroke-width="0" connectorName="N$23"/>
  <rect  width="7.2e-06" x="107.499" y="300.038" fill="none" height="7.2e-06" stroke="none" id="connector149terminal" stroke-width="0"/>
  <rect  width="7.2e-06" x="107.499" y="300.038" fill="none" height="7.2e-06" stroke="none" id="connector150pin" stroke-width="0" connectorName="N$25"/>
  <rect  width="7.2e-06" x="107.499" y="300.038" fill="none" height="7.2e-06" stroke="none" id="connector150terminal" stroke-width="0"/>
  <rect  width="7.2e-06" x="107.499" y="300.038" fill="none" height="7.2e-06" stroke="none" id="connector151pin" stroke-width="0" connectorName="N$27"/>
  <rect  width="7.2e-06" x="107.499" y="300.038" fill="none" height="7.2e-06" stroke="none" id="connector151terminal" stroke-width="0"/>
  <rect  width="7.2e-06" x="107.499" y="300.038" fill="none" height="7.2e-06" stroke="none" id="connector152pin" stroke-width="0" connectorName="N$28"/>
  <rect  width="7.2e-06" x="107.499" y="300.038" fill="none" height="7.2e-06" stroke="none" id="connector152terminal" stroke-width="0"/>
  <rect  width="7.2e-06" x="107.499" y="300.038" fill="none" height="7.2e-06" stroke="none" id="connector153pin" stroke-width="0" connectorName="N$29"/>
  <rect  width="7.2e-06" x="107.499" y="300.038" fill="none" height="7.2e-06" stroke="none" id="connector153terminal" stroke-width="0"/>
  <rect  width="7.2e-06" x="107.499" y="300.038" fill="none" height="7.2e-06" stroke="none" id="connector154pin" stroke-width="0" connectorName="N$30"/>
  <rect  width="7.2e-06" x="107.499" y="300.038" fill="none" height="7.2e-06" stroke="none" id="connector154terminal" stroke-width="0"/>
  <rect  width="7.2e-06" x="107.499" y="300.038" fill="none" height="7.2e-06" stroke="none" id="connector155pin" stroke-width="0" connectorName="N$31"/>
  <rect  width="7.2e-06" x="107.499" y="300.038" fill="none" height="7.2e-06" stroke="none" id="connector155terminal" stroke-width="0"/>
  <rect  width="7.2e-06" x="107.499" y="300.038" fill="none" height="7.2e-06" stroke="none" id="connector156pin" stroke-width="0" connectorName="N$32"/>
  <rect  width="7.2e-06" x="107.499" y="300.038" fill="none" height="7.2e-06" stroke="none" id="connector156terminal" stroke-width="0"/>
  <rect  width="7.2e-06" x="107.499" y="300.038" fill="none" height="7.2e-06" stroke="none" id="connector157pin" stroke-width="0" connectorName="N$33"/>
  <rect  width="7.2e-06" x="107.499" y="300.038" fill="none" height="7.2e-06" stroke="none" id="connector157terminal" stroke-width="0"/>
  <rect  width="7.2e-06" x="107.499" y="300.038" fill="none" height="7.2e-06" stroke="none" id="connector158pin" stroke-width="0" connectorName="N$40"/>
  <rect  width="7.2e-06" x="107.499" y="300.038" fill="none" height="7.2e-06" stroke="none" id="connector158terminal" stroke-width="0"/>
  <rect  width="7.2e-06" x="107.499" y="300.038" fill="none" height="7.2e-06" stroke="none" id="connector159pin" stroke-width="0" connectorName="N$41"/>
  <rect  width="7.2e-06" x="107.499" y="300.038" fill="none" height="7.2e-06" stroke="none" id="connector159terminal" stroke-width="0"/>
  <rect  width="7.2e-06" x="107.499" y="300.038" fill="none" height="7.2e-06" stroke="none" id="connector160pin" stroke-width="0" connectorName="N$42"/>
  <rect  width="7.2e-06" x="107.499" y="300.038" fill="none" height="7.2e-06" stroke="none" id="connector160terminal" stroke-width="0"/>
  <rect  width="7.2e-06" x="107.499" y="300.038" fill="none" height="7.2e-06" stroke="none" id="connector161pin" stroke-width="0" connectorName="N$43"/>
  <rect  width="7.2e-06" x="107.499" y="300.038" fill="none" height="7.2e-06" stroke="none" id="connector161terminal" stroke-width="0"/>
  <rect  width="7.2e-06" x="107.499" y="300.038" fill="none" height="7.2e-06" stroke="none" id="connector162pin" stroke-width="0" connectorName="N$44"/>
  <rect  width="7.2e-06" x="107.499" y="300.038" fill="none" height="7.2e-06" stroke="none" id="connector162terminal" stroke-width="0"/>
  <rect  width="7.2e-06" x="107.499" y="300.038" fill="none" height="7.2e-06" stroke="none" id="connector163pin" stroke-width="0" connectorName="N$45"/>
  <rect  width="7.2e-06" x="107.499" y="300.038" fill="none" height="7.2e-06" stroke="none" id="connector163terminal" stroke-width="0"/>
  <rect  width="7.2e-06" x="107.499" y="300.038" fill="none" height="7.2e-06" stroke="none" id="connector164pin" stroke-width="0" connectorName="N$52"/>
  <rect  width="7.2e-06" x="107.499" y="300.038" fill="none" height="7.2e-06" stroke="none" id="connector164terminal" stroke-width="0"/>
  <rect  width="7.2e-06" x="107.499" y="300.038" fill="none" height="7.2e-06" stroke="none" id="connector165pin" stroke-width="0" connectorName="N$53"/>
  <rect  width="7.2e-06" x="107.499" y="300.038" fill="none" height="7.2e-06" stroke="none" id="connector165terminal" stroke-width="0"/>
  <rect  width="7.2e-06" x="107.499" y="300.038" fill="none" height="7.2e-06" stroke="none" id="connector166pin" stroke-width="0" connectorName="N$54"/>
  <rect  width="7.2e-06" x="107.499" y="300.038" fill="none" height="7.2e-06" stroke="none" id="connector166terminal" stroke-width="0"/>
  <rect  width="7.2e-06" x="107.499" y="300.038" fill="none" height="7.2e-06" stroke="none" id="connector167pin" stroke-width="0" connectorName="N$55"/>
  <rect  width="7.2e-06" x="107.499" y="300.038" fill="none" height="7.2e-06" stroke="none" id="connector167terminal" stroke-width="0"/>
  <rect  width="7.2e-06" x="107.499" y="300.038" fill="none" height="7.2e-06" stroke="none" id="connector168pin" stroke-width="0" connectorName="N$56"/>
  <rect  width="7.2e-06" x="107.499" y="300.038" fill="none" height="7.2e-06" stroke="none" id="connector168terminal" stroke-width="0"/>
  <rect  width="7.2e-06" x="107.499" y="300.038" fill="none" height="7.2e-06" stroke="none" id="connector169pin" stroke-width="0" connectorName="N$57"/>
  <rect  width="7.2e-06" x="107.499" y="300.038" fill="none" height="7.2e-06" stroke="none" id="connector169terminal" stroke-width="0"/>
  <rect  width="7.2e-06" x="107.499" y="300.038" fill="none" height="7.2e-06" stroke="none" id="connector170pin" stroke-width="0" connectorName="N$64"/>
  <rect  width="7.2e-06" x="107.499" y="300.038" fill="none" height="7.2e-06" stroke="none" id="connector170terminal" stroke-width="0"/>
  <rect  width="7.2e-06" x="107.499" y="300.038" fill="none" height="7.2e-06" stroke="none" id="connector171pin" stroke-width="0" connectorName="N$65"/>
  <rect  width="7.2e-06" x="107.499" y="300.038" fill="none" height="7.2e-06" stroke="none" id="connector171terminal" stroke-width="0"/>
  <rect  width="7.2e-06" x="107.499" y="300.038" fill="none" height="7.2e-06" stroke="none" id="connector172pin" stroke-width="0" connectorName="N$66"/>
  <rect  width="7.2e-06" x="107.499" y="300.038" fill="none" height="7.2e-06" stroke="none" id="connector172terminal" stroke-width="0"/>
  <rect  width="7.2e-06" x="107.499" y="300.038" fill="none" height="7.2e-06" stroke="none" id="connector173pin" stroke-width="0" connectorName="N$67"/>
  <rect  width="7.2e-06" x="107.499" y="300.038" fill="none" height="7.2e-06" stroke="none" id="connector173terminal" stroke-width="0"/>
  <rect  width="7.2e-06" x="107.499" y="300.038" fill="none" height="7.2e-06" stroke="none" id="connector174pin" stroke-width="0" connectorName="N$68"/>
  <rect  width="7.2e-06" x="107.499" y="300.038" fill="none" height="7.2e-06" stroke="none" id="connector174terminal" stroke-width="0"/>
  <rect  width="7.2e-06" x="107.499" y="300.038" fill="none" height="7.2e-06" stroke="none" id="connector175pin" stroke-width="0" connectorName="N$69"/>
  <rect  width="7.2e-06" x="107.499" y="300.038" fill="none" height="7.2e-06" stroke="none" id="connector175terminal" stroke-width="0"/>
  <rect  width="7.2e-06" x="107.499" y="300.038" fill="none" height="7.2e-06" stroke="none" id="connector176pin" stroke-width="0" connectorName="N$76"/>
  <rect  width="7.2e-06" x="107.499" y="300.038" fill="none" height="7.2e-06" stroke="none" id="connector176terminal" stroke-width="0"/>
  <rect  width="7.2e-06" x="107.499" y="300.038" fill="none" height="7.2e-06" stroke="none" id="connector177pin" stroke-width="0" connectorName="N$77"/>
  <rect  width="7.2e-06" x="107.499" y="300.038" fill="none" height="7.2e-06" stroke="none" id="connector177terminal" stroke-width="0"/>
  <rect  width="7.2e-06" x="107.499" y="300.038" fill="none" height="7.2e-06" stroke="none" id="connector178pin" stroke-width="0" connectorName="N$78"/>
  <rect  width="7.2e-06" x="107.499" y="300.038" fill="none" height="7.2e-06" stroke="none" id="connector178terminal" stroke-width="0"/>
  <rect  width="7.2e-06" x="107.499" y="300.038" fill="none" height="7.2e-06" stroke="none" id="connector179pin" stroke-width="0" connectorName="N$79"/>
  <rect  width="7.2e-06" x="107.499" y="300.038" fill="none" height="7.2e-06" stroke="none" id="connector179terminal" stroke-width="0"/>
  <rect  width="7.2e-06" x="107.499" y="300.038" fill="none" height="7.2e-06" stroke="none" id="connector180pin" stroke-width="0" connectorName="N$80"/>
  <rect  width="7.2e-06" x="107.499" y="300.038" fill="none" height="7.2e-06" stroke="none" id="connector180terminal" stroke-width="0"/>
  <rect  width="7.2e-06" x="107.499" y="300.038" fill="none" height="7.2e-06" stroke="none" id="connector181pin" stroke-width="0" connectorName="N$81"/>
  <rect  width="7.2e-06" x="107.499" y="300.038" fill="none" height="7.2e-06" stroke="none" id="connector181terminal" stroke-width="0"/>
  <line  fill="none" stroke="#000000" stroke-linejoin="round" stroke-linecap="round" y1="64.9795" stroke-width="2.4" x1="1.2" y2="64.9795" x2="21.2599"/>
  <rect  width="21.2599" x="0" y="63.7795" fill="none" height="2.4" id="connector10pin" stroke-width="0" connectorName="PSEL"/>
  <rect  width="2.4" x="0" y="63.7795" fill="none" height="2.4" id="connector10terminal" stroke-width="0"/>
  <text  x="27.7399" y="67.3795" font-family="DroidSans" fill="#000000" text-anchor="start" stroke="none" id="label10" stroke-width="0" font-size="9.936">PSEL</text>
  <line  fill="none" stroke="#000000" stroke-linejoin="round" stroke-linecap="round" y1="86.2394" stroke-width="2.4" x1="1.2" y2="86.2394" x2="21.2599"/>
  <rect  width="21.2599" x="0" y="85.0392" fill="none" height="2.4" id="connector12pin" stroke-width="0" connectorName="PPS"/>
  <rect  width="2.4" x="0" y="85.0392" fill="none" height="2.4" id="connector12terminal" stroke-width="0"/>
  <text  x="27.7399" y="88.6392" font-family="DroidSans" fill="#000000" text-anchor="start" stroke="none" id="label12" stroke-width="0" font-size="9.936">PPS</text>
  <line  fill="none" stroke="#000000" stroke-linejoin="round" stroke-linecap="round" y1="107.499" stroke-width="2.4" x1="1.2" y2="107.499" x2="21.2599"/>
  <rect  width="21.2599" x="0" y="106.299" fill="none" height="2.4" id="connector14pin" stroke-width="0" connectorName="TX2"/>
  <rect  width="2.4" x="0" y="106.299" fill="none" height="2.4" id="connector14terminal" stroke-width="0"/>
  <text  x="27.7399" y="109.899" font-family="DroidSans" fill="#000000" text-anchor="start" stroke="none" id="label14" stroke-width="0" font-size="9.936">TX2</text>
  <line  fill="none" stroke="#000000" stroke-linejoin="round" stroke-linecap="round" y1="128.759" stroke-width="2.4" x1="1.2" y2="128.759" x2="21.2599"/>
  <rect  width="21.2599" x="0" y="127.559" fill="none" height="2.4" id="connector16pin" stroke-width="0" connectorName="TX"/>
  <rect  width="2.4" x="0" y="127.559" fill="none" height="2.4" id="connector16terminal" stroke-width="0"/>
  <text  x="27.7399" y="131.159" font-family="DroidSans" fill="#000000" text-anchor="start" stroke="none" id="label16" stroke-width="0" font-size="9.936">TX</text>
  <line  fill="none" stroke="#000000" stroke-linejoin="round" stroke-linecap="round" y1="150.019" stroke-width="2.4" x1="1.2" y2="150.019" x2="21.2599"/>
  <rect  width="21.2599" x="0" y="148.819" fill="none" height="2.4" id="connector13pin" stroke-width="0" connectorName="RX2"/>
  <rect  width="2.4" x="0" y="148.819" fill="none" height="2.4" id="connector13terminal" stroke-width="0"/>
  <text  x="27.7399" y="152.419" font-family="DroidSans" fill="#000000" text-anchor="start" stroke="none" id="label13" stroke-width="0" font-size="9.936">RX2</text>
  <line  fill="none" stroke="#000000" stroke-linejoin="round" stroke-linecap="round" y1="171.279" stroke-width="2.4" x1="1.2" y2="171.279" x2="21.2599"/>
  <rect  width="21.2599" x="0" y="170.078" fill="none" height="2.4" id="connector15pin" stroke-width="0" connectorName="RX"/>
  <rect  width="2.4" x="0" y="170.078" fill="none" height="2.4" id="connector15terminal" stroke-width="0"/>
  <text  x="27.7399" y="173.678" font-family="DroidSans" fill="#000000" text-anchor="start" stroke="none" id="label15" stroke-width="0" font-size="9.936">RX</text>
  <line  fill="none" stroke="#000000" stroke-linejoin="round" stroke-linecap="round" y1="192.539" stroke-width="2.4" x1="1.2" y2="192.539" x2="21.2599"/>
  <rect  width="21.2599" x="0" y="191.339" fill="none" height="2.4" id="connector17pin" stroke-width="0" connectorName="EN"/>
  <rect  width="2.4" x="0" y="191.339" fill="none" height="2.4" id="connector17terminal" stroke-width="0"/>
  <text  x="27.7399" y="194.939" font-family="DroidSans" fill="#000000" text-anchor="start" stroke="none" id="label17" stroke-width="0" font-size="9.936">EN</text>
  <line  fill="none" stroke="#000000" stroke-linejoin="round" stroke-linecap="round" y1="235.058" stroke-width="2.4" x1="1.2" y2="235.058" x2="21.2599"/>
  <rect  width="21.2599" x="0" y="233.858" fill="none" height="2.4" id="connector83pin" stroke-width="0" connectorName="RES"/>
  <rect  width="2.4" x="0" y="233.858" fill="none" height="2.4" id="connector83terminal" stroke-width="0"/>
  <text  x="27.7399" y="237.458" font-family="DroidSans" fill="#000000" text-anchor="start" stroke="none" id="label83" stroke-width="0" font-size="9.936">RES</text>
  <line  fill="none" stroke="#000000" stroke-linejoin="round" stroke-linecap="round" y1="64.9795" stroke-width="2.4" x1="192.539" y2="64.9795" x2="213.798"/>
  <rect  width="21.2599" x="193.738" y="63.7795" fill="none" connectorname="D_TX" height="2.4" id="connector23pin" stroke-width="0"/>
  <rect  width="2.4" x="212.599" y="63.7795" fill="none" height="2.4" id="connector23terminal" stroke-width="0"/>
  <text  x="187.258" y="67.3795" font-family="DroidSans" fill="#000000" text-anchor="end" stroke="none" id="label23" stroke-width="0" font-size="9.936">D_TX</text>
  <line  fill="none" stroke="#000000" stroke-linejoin="round" stroke-linecap="round" y1="86.2394" stroke-width="2.4" x1="192.539" y2="86.2394" x2="213.798"/>
  <rect  width="21.2599" x="193.738" y="85.0392" fill="none" connectorname="D_RX" height="2.4" id="connector22pin" stroke-width="0"/>
  <rect  width="2.4" x="212.599" y="85.0392" fill="none" height="2.4" id="connector22terminal" stroke-width="0"/>
  <text  x="187.258" y="88.6392" font-family="DroidSans" fill="#000000" text-anchor="end" stroke="none" id="label22" stroke-width="0" font-size="9.936">D_RX</text>
  <line  fill="none" stroke="#000000" stroke-linejoin="round" stroke-linecap="round" y1="107.499" stroke-width="2.4" x1="192.539" y2="107.499" x2="213.798"/>
  <rect  width="21.2599" x="193.738" y="106.299" fill="none" connectorname="UART_TX" height="2.4" id="connector21pin" stroke-width="0"/>
  <rect  width="2.4" x="212.599" y="106.299" fill="none" height="2.4" id="connector21terminal" stroke-width="0"/>
  <text  x="187.258" y="109.899" font-family="DroidSans" fill="#000000" text-anchor="end" stroke="none" id="label21" stroke-width="0" font-size="9.936">UART_TX</text>
  <line  fill="none" stroke="#000000" stroke-linejoin="round" stroke-linecap="round" y1="128.759" stroke-width="2.4" x1="192.539" y2="128.759" x2="213.798"/>
  <rect  width="21.2599" x="193.738" y="127.559" fill="none" connectorname="UART_RX" height="2.4" id="connector20pin" stroke-width="0"/>
  <rect  width="2.4" x="212.599" y="127.559" fill="none" height="2.4" id="connector20terminal" stroke-width="0"/>
  <text  x="187.258" y="131.159" font-family="DroidSans" fill="#000000" text-anchor="end" stroke="none" id="label20" stroke-width="0" font-size="9.936">UART_RX</text>
  <line  fill="none" stroke="#000000" stroke-linejoin="round" stroke-linecap="round" y1="1.2" stroke-width="2.4" x1="54.3496" y2="21.2599" x2="54.3496"/>
  <rect  width="2.4" x="53.1496" y="0" fill="none" connectorname="3.3V" height="21.2599" id="connector18pin" stroke-width="0"/>
  <rect  width="2.4" x="53.1496" y="0" fill="none" height="0" id="connector18terminal" stroke-width="0"/>
  <text  x="54.3496" y="33.8599" font-family="DroidSans" fill="#000000" text-anchor="middle" stroke="none" id="label18" stroke-width="0" font-size="9.936">3.3V</text>
  <line  fill="none" stroke="#000000" stroke-linejoin="round" stroke-linecap="round" y1="1.2" stroke-width="2.4" x1="75.6094" y2="21.2599" x2="75.6094"/>
  <rect  width="2.4" x="74.4091" y="0" fill="none" connectorname="5V" height="21.2599" id="connector19pin" stroke-width="0"/>
  <rect  width="2.4" x="74.4091" y="0" fill="none" height="0" id="connector19terminal" stroke-width="0"/>
  <text  x="75.6094" y="33.8599" font-family="DroidSans" fill="#000000" text-anchor="middle" stroke="none" id="label19" stroke-width="0" font-size="9.936">5V</text>
  <line  fill="none" stroke="#000000" stroke-linejoin="round" stroke-linecap="round" y1="1.2" stroke-width="2.4" x1="96.8695" y2="21.2599" x2="96.8695"/>
  <rect  width="2.4" x="95.6693" y="0" fill="none" connectorname="3.3VIN" height="21.2599" id="connector59pin" stroke-width="0"/>
  <rect  width="2.4" x="95.6693" y="0" fill="none" height="0" id="connector59terminal" stroke-width="0"/>
  <text  x="96.8695" y="33.8599" font-family="DroidSans" fill="#000000" text-anchor="middle" stroke="none" id="label59" stroke-width="0" font-size="9.936">3.3VIN</text>
  <line  fill="none" stroke="#000000" stroke-linejoin="round" stroke-linecap="round" y1="1.2" stroke-width="2.4" x1="118.129" y2="21.2599" x2="118.129"/>
  <rect  width="2.4" x="116.929" y="0" fill="none" connectorname="5VIN" height="21.2599" id="connector60pin" stroke-width="0"/>
  <rect  width="2.4" x="116.929" y="0" fill="none" height="0" id="connector60terminal" stroke-width="0"/>
  <text  x="118.129" y="33.8599" font-family="DroidSans" fill="#000000" text-anchor="middle" stroke="none" id="label60" stroke-width="0" font-size="9.936">5VIN</text>
  <line  fill="none" stroke="#000000" stroke-linejoin="round" stroke-linecap="round" y1="1.2" stroke-width="2.4" x1="139.389" y2="21.2599" x2="139.389"/>
  <rect  width="2.4" x="138.189" y="0" fill="none" connectorname="BATT" height="21.2599" id="connector11pin" stroke-width="0"/>
  <rect  width="2.4" x="138.189" y="0" fill="none" height="0" id="connector11terminal" stroke-width="0"/>
  <text  x="139.389" y="33.8599" font-family="DroidSans" fill="#000000" text-anchor="middle" stroke="none" id="label11" stroke-width="0" font-size="9.936">BATT</text>
  <line  fill="none" stroke="#000000" stroke-linejoin="round" stroke-linecap="round" y1="300.038" stroke-width="2.4" x1="107.499" y2="320.098" x2="107.499"/>
  <rect  width="2.4" x="106.299" y="300.038" fill="none" connectorname="GND" height="21.2599" id="connector9pin" stroke-width="0"/>
  <rect  width="2.4" x="106.299" y="321.298" fill="none" height="0" id="connector9terminal" stroke-width="0"/>
  <text  x="107.499" y="294.278" font-family="DroidSans" fill="#000000" text-anchor="middle" stroke="none" id="label9" stroke-width="0" font-size="9.936">GND</text>
  <rect  width="2.4" x="106.299" y="300.038" fill="none" connectorname="GND" height="21.2599" id="connector28pin" stroke-width="0"/>
  <rect  width="2.4" x="106.299" y="321.298" fill="none" height="0" id="connector28terminal" stroke-width="0"/>
  <rect  width="2.4" x="106.299" y="300.038" fill="none" connectorname="GND" height="21.2599" id="connector29pin" stroke-width="0"/>
  <rect  width="2.4" x="106.299" y="321.298" fill="none" height="0" id="connector29terminal" stroke-width="0"/>
  <rect  width="2.4" x="106.299" y="300.038" fill="none" connectorname="GND" height="21.2599" id="connector30pin" stroke-width="0"/>
  <rect  width="2.4" x="106.299" y="321.298" fill="none" height="0" id="connector30terminal" stroke-width="0"/>
  <rect  width="2.4" x="106.299" y="300.038" fill="none" connectorname="GND" height="21.2599" id="connector31pin" stroke-width="0"/>
  <rect  width="2.4" x="106.299" y="321.298" fill="none" height="0" id="connector31terminal" stroke-width="0"/>
  <rect  width="2.4" x="106.299" y="300.038" fill="none" connectorname="GND" height="21.2599" id="connector32pin" stroke-width="0"/>
  <rect  width="2.4" x="106.299" y="321.298" fill="none" height="0" id="connector32terminal" stroke-width="0"/>
  <rect  width="2.4" x="106.299" y="300.038" fill="none" connectorname="GND" height="21.2599" id="connector33pin" stroke-width="0"/>
  <rect  width="2.4" x="106.299" y="321.298" fill="none" height="0" id="connector33terminal" stroke-width="0"/>
  <rect  width="2.4" x="106.299" y="300.038" fill="none" connectorname="GND" height="21.2599" id="connector34pin" stroke-width="0"/>
  <rect  width="2.4" x="106.299" y="321.298" fill="none" height="0" id="connector34terminal" stroke-width="0"/>
  <rect  width="2.4" x="106.299" y="300.038" fill="none" connectorname="GND" height="21.2599" id="connector80pin" stroke-width="0"/>
  <rect  width="2.4" x="106.299" y="321.298" fill="none" height="0" id="connector80terminal" stroke-width="0"/>
  <rect  width="2.4" x="106.299" y="300.038" fill="none" connectorname="GND" height="21.2599" id="connector81pin" stroke-width="0"/>
  <rect  width="2.4" x="106.299" y="321.298" fill="none" height="0" id="connector81terminal" stroke-width="0"/>
  <rect  width="2.4" x="106.299" y="300.038" fill="none" connectorname="GND" height="21.2599" id="connector82pin" stroke-width="0"/>
  <rect  width="2.4" x="106.299" y="321.298" fill="none" height="0" id="connector82terminal" stroke-width="0"/>
  <rect  width="21.2599" x="193.738" y="63.7795" fill="none" connectorname="D_TX" height="2.4" id="connector69pin" stroke-width="0"/>
  <rect  width="2.4" x="212.599" y="63.7795" fill="none" height="2.4" id="connector69terminal" stroke-width="0"/>
  <rect  width="21.2599" x="193.738" y="85.0392" fill="none" connectorname="D_RX" height="2.4" id="connector68pin" stroke-width="0"/>
  <rect  width="2.4" x="212.599" y="85.0392" fill="none" height="2.4" id="connector68terminal" stroke-width="0"/>
  <rect  width="21.2599" x="193.738" y="106.299" fill="none" connectorname="UART_TX" height="2.4" id="connector85pin" stroke-width="0"/>
  <rect  width="2.4" x="212.599" y="106.299" fill="none" height="2.4" id="connector85terminal" stroke-width="0"/>
  <rect  width="21.2599" x="193.738" y="127.559" fill="none" connectorname="UART_RX" height="2.4" id="connector84pin" stroke-width="0"/>
  <rect  width="2.4" x="212.599" y="127.559" fill="none" height="2.4" id="connector84terminal" stroke-width="0"/>
 </g>
</svg>
