<?xml version="1.0" encoding="utf-8"?>
<!-- Generator: Adobe Illustrator 13.0.0, SVG Export Plug-In . SVG Version: 6.00 Build 14948)  -->
<svg version="1.2" baseProfile="tiny" id="Layer_1" xmlns="http://www.w3.org/2000/svg" xmlns:xlink="http://www.w3.org/1999/xlink"
	 x="0px" y="0px" width="174.3px" height="258.375px" viewBox="0 0 174.3 258.375" xml:space="preserve">
<rect id="connector0pin" x="1.15" y="59.226" fill="none" width="10" height="2"/>
<rect id="connector1pin" x="1.15" y="85.226" fill="none" width="10" height="2"/>
<rect id="connector2pin" x="1.15" y="111.226" fill="none" width="10" height="2"/>
<rect id="connector3pin" x="1.15" y="137.227" fill="none" width="10" height="2"/>
<rect id="connector4pin" x="1.15" y="163.227" fill="none" width="10" height="2"/>
<rect id="connector5pin" x="1.15" y="189.227" fill="none" width="10" height="2"/>
<rect id="connector6pin" x="1.15" y="215.227" fill="none" width="10" height="2"/>
<rect id="connector7pin" x="1.15" y="241.227" fill="none" width="10" height="2"/>
<rect id="connector8pin" x="163.15" y="241.227" fill="none" width="10" height="2"/>
<rect id="connector9pin" x="163.15" y="215.227" fill="none" width="10" height="2"/>
<rect id="connector10pin" x="163.15" y="189.227" fill="none" width="10" height="2"/>
<rect id="connector11pin" x="163.15" y="163.227" fill="none" width="10" height="2"/>
<rect id="connector12pin" x="163.15" y="137.227" fill="none" width="10" height="2"/>
<rect id="connector13pin" x="163.15" y="111.226" fill="none" width="10" height="2"/>
<rect id="connector14pin" x="163.15" y="85.226" fill="none" width="10" height="2"/>
<rect id="connector15pin" x="163.15" y="59.226" fill="none" width="10" height="2"/>
<rect id="connector0terminal" x="1.15" y="59.226" fill="none" width="2" height="2"/>
<rect id="connector1terminal" x="1.15" y="85.226" fill="none" width="2" height="2"/>
<rect id="connector2terminal" x="1.15" y="111.226" fill="none" width="2" height="2"/>
<rect id="connector3terminal" x="1.15" y="137.227" fill="none" width="2" height="2"/>
<rect id="connector4terminal" x="1.15" y="163.227" fill="none" width="2" height="2"/>
<rect id="connector5terminal" x="1.15" y="189.227" fill="none" width="2" height="2"/>
<rect id="connector6terminal" x="1.15" y="215.227" fill="none" width="2" height="2"/>
<rect id="connector7terminal" x="1.15" y="241.227" fill="none" width="2" height="2"/>
<rect id="connector8terminal" x="171.15" y="241.227" fill="none" width="2" height="2"/>
<rect id="connector9terminal" x="171.15" y="215.227" fill="none" width="2" height="2"/>
<rect id="connector10terminal" x="171.15" y="189.227" fill="none" width="2" height="2"/>
<rect id="connector11terminal" x="171.15" y="163.227" fill="none" width="2" height="2"/>
<rect id="connector12terminal" x="171.15" y="137.227" fill="none" width="2" height="2"/>
<rect id="connector13terminal" x="171.15" y="111.226" fill="none" width="2" height="2"/>
<rect id="connector14terminal" x="171.15" y="85.226" fill="none" width="2" height="2"/>
<rect id="connector15terminal" x="171.15" y="59.226" fill="none" width="2" height="2"/>
<g id="schematic">
	
		<rect id="box" x="32.15" y="45.226" fill="none" stroke="#000000" stroke-width="2.3" stroke-linecap="round" stroke-linejoin="round" width="110" height="212"/>
	
		<line fill="none" stroke="#000000" stroke-width="2.3" stroke-linecap="round" stroke-linejoin="round" x1="1.15" y1="60.226" x2="32.15" y2="60.226"/>
	
		<line fill="none" stroke="#000000" stroke-width="2.3" stroke-linecap="round" stroke-linejoin="round" x1="1.15" y1="86.226" x2="32.15" y2="86.226"/>
	
		<line fill="none" stroke="#000000" stroke-width="2.3" stroke-linecap="round" stroke-linejoin="round" x1="1.15" y1="112.226" x2="32.15" y2="112.226"/>
	
		<line fill="none" stroke="#000000" stroke-width="2.3" stroke-linecap="round" stroke-linejoin="round" x1="1.15" y1="138.227" x2="32.15" y2="138.227"/>
	
		<line fill="none" stroke="#000000" stroke-width="2.3" stroke-linecap="round" stroke-linejoin="round" x1="1.15" y1="164.227" x2="32.15" y2="164.227"/>
	
		<line fill="none" stroke="#000000" stroke-width="2.3" stroke-linecap="round" stroke-linejoin="round" x1="1.15" y1="190.227" x2="32.15" y2="190.227"/>
	
		<line fill="none" stroke="#000000" stroke-width="2.3" stroke-linecap="round" stroke-linejoin="round" x1="1.15" y1="216.227" x2="32.15" y2="216.227"/>
	
		<line fill="none" stroke="#000000" stroke-width="2.3" stroke-linecap="round" stroke-linejoin="round" x1="1.15" y1="242.227" x2="32.15" y2="242.227"/>
	
		<line fill="none" stroke="#000000" stroke-width="2.3" stroke-linecap="round" stroke-linejoin="round" x1="142.15" y1="242.227" x2="173.15" y2="242.227"/>
	
		<line fill="none" stroke="#000000" stroke-width="2.3" stroke-linecap="round" stroke-linejoin="round" x1="142.15" y1="216.227" x2="173.15" y2="216.227"/>
	
		<line fill="none" stroke="#000000" stroke-width="2.3" stroke-linecap="round" stroke-linejoin="round" x1="142.15" y1="190.227" x2="173.15" y2="190.227"/>
	
		<line fill="none" stroke="#000000" stroke-width="2.3" stroke-linecap="round" stroke-linejoin="round" x1="142.15" y1="164.227" x2="173.15" y2="164.227"/>
	
		<line fill="none" stroke="#000000" stroke-width="2.3" stroke-linecap="round" stroke-linejoin="round" x1="142.15" y1="138.227" x2="173.15" y2="138.227"/>
	
		<line fill="none" stroke="#000000" stroke-width="2.3" stroke-linecap="round" stroke-linejoin="round" x1="142.15" y1="112.226" x2="173.15" y2="112.226"/>
	
		<line fill="none" stroke="#000000" stroke-width="2.3" stroke-linecap="round" stroke-linejoin="round" x1="142.15" y1="86.226" x2="173.15" y2="86.226"/>
	
		<line fill="none" stroke="#000000" stroke-width="2.3" stroke-linecap="round" stroke-linejoin="round" x1="142.15" y1="60.226" x2="173.15" y2="60.226"/>
	<g>
		<path d="M32.248,15.257c-3.691,0-5.474-2.395-5.474-6.121c0-4.033,2.629-6.393,5.834-6.393c3.277,0,5.474,2.035,5.474,6.104
			C38.082,12.881,35.471,15.257,32.248,15.257z M32.428,4.472c-1.873,0-3.565,1.513-3.565,4.43c0,2.755,1.134,4.609,3.529,4.609
			c1.801,0,3.601-1.44,3.601-4.466C35.993,6.11,34.697,4.472,32.428,4.472z M31.708,18.03v-1.747
			c3.025-0.359,4.105,0.937,7.022,0.54v1.729C35.525,19.038,34.337,17.67,31.708,18.03z"/>
		<path d="M45.82,15.077c0-0.486,0.036-1.261,0.126-1.765h-0.018c-0.522,1.152-1.603,1.944-3.115,1.944
			c-2.035,0-2.665-1.296-2.665-2.862V6.129h1.909v5.743c0,1.116,0.306,1.782,1.333,1.782c1.35,0,2.34-1.422,2.34-3.223V6.129h1.927
			v8.948H45.82z"/>
		<path d="M55.234,15.077c0-0.576,0.018-1.17,0.09-1.656l-0.018-0.019c-0.432,1.062-1.549,1.854-2.971,1.854
			c-1.53,0-2.502-1.026-2.502-2.484c0-2.017,1.999-3.115,5.275-3.115V9.136c0-1.099-0.468-1.693-1.873-1.693
			c-0.828,0-1.836,0.271-2.557,0.648L50.3,6.543c0.9-0.343,2.107-0.595,3.259-0.595c2.719,0,3.475,1.188,3.475,2.971v3.709
			c0,0.774,0.018,1.693,0.054,2.449H55.234z M55.108,10.954c-2.683,0-3.421,0.738-3.421,1.584c0,0.685,0.468,1.207,1.224,1.207
			c1.314,0,2.197-1.261,2.197-2.539V10.954z"/>
		<path d="M65.278,15.077c0-0.468,0.036-1.17,0.126-1.675h-0.036c-0.486,1.099-1.53,1.854-2.917,1.854
			c-2.196,0-3.295-1.62-3.295-4.213c0-3.079,1.783-5.06,4.682-5.06c0.432,0,0.864,0.036,1.35,0.072V1.934h1.909v13.144H65.278z
			 M65.188,7.677c-0.486-0.107-0.954-0.162-1.422-0.162c-1.53,0-2.575,0.937-2.575,3.35c0,1.8,0.558,2.809,1.783,2.809
			c1.422,0,2.214-1.692,2.214-3.223V7.677z"/>
		<path d="M74.476,7.857c-1.783-0.343-2.647,0.899-2.647,3.583v3.637h-1.927V6.129h1.836c0,0.504-0.054,1.296-0.18,1.98h0.036
			c0.396-1.207,1.296-2.323,2.971-2.143L74.476,7.857z"/>
		<path d="M81.964,15.077c0-0.486,0.036-1.261,0.126-1.765h-0.018c-0.522,1.152-1.603,1.944-3.115,1.944
			c-2.035,0-2.665-1.296-2.665-2.862V6.129h1.909v5.743c0,1.116,0.306,1.782,1.333,1.782c1.35,0,2.34-1.422,2.34-3.223V6.129H83.8
			v8.948H81.964z"/>
		<path d="M89.883,15.203c-0.505,0-0.882-0.018-1.351-0.108v4.376h-1.927V6.129h1.819c0,0.468-0.019,1.188-0.109,1.674h0.037
			c0.504-1.134,1.53-1.854,2.898-1.854c2.125,0,3.295,1.513,3.295,4.214C94.546,13.312,92.873,15.203,89.883,15.203z M90.748,7.533
			c-1.44,0-2.215,1.692-2.215,3.223v2.755c0.414,0.126,0.864,0.18,1.404,0.18c1.53,0,2.574-0.936,2.574-3.349
			C92.511,8.541,91.954,7.533,90.748,7.533z"/>
		<path d="M96.65,15.077V1.934h1.927v13.144H96.65z"/>
		<path d="M108.352,10.756h-5.708c-0.054,2.034,0.864,2.953,2.646,2.953c0.865,0,1.766-0.181,2.575-0.54l0.252,1.512
			c-0.937,0.379-2.052,0.576-3.169,0.576c-2.754,0-4.285-1.44-4.285-4.591c0-2.701,1.477-4.718,4.088-4.718
			c2.557,0,3.654,1.747,3.654,3.871C108.406,10.071,108.388,10.378,108.352,10.756z M104.679,7.371c-1.08,0-1.837,0.792-1.999,2.053
			h3.8C106.515,8.146,105.813,7.371,104.679,7.371z"/>
		<path d="M120.105,15.077V9.333c0-1.116-0.306-1.782-1.332-1.782c-1.351,0-2.341,1.423-2.341,3.223v4.304h-1.927V1.934h1.927v4.069
			c0,0.558-0.036,1.296-0.162,1.8l0.036,0.019c0.521-1.135,1.584-1.873,3.043-1.873c2.034,0,2.664,1.297,2.664,2.863v6.266H120.105z
			"/>
		<path d="M129.591,15.077c0-0.576,0.018-1.17,0.09-1.656l-0.018-0.019c-0.433,1.062-1.549,1.854-2.972,1.854
			c-1.53,0-2.503-1.026-2.503-2.484c0-2.017,1.999-3.115,5.275-3.115V9.136c0-1.099-0.468-1.693-1.872-1.693
			c-0.828,0-1.837,0.271-2.557,0.648l-0.378-1.548c0.9-0.343,2.106-0.595,3.259-0.595c2.719,0,3.476,1.188,3.476,2.971v3.709
			c0,0.774,0.018,1.693,0.053,2.449H129.591z M129.464,10.954c-2.682,0-3.42,0.738-3.42,1.584c0,0.685,0.468,1.207,1.224,1.207
			c1.314,0,2.196-1.261,2.196-2.539V10.954z"/>
		<path d="M134.233,15.077V1.934h1.927v13.144H134.233z"/>
		<path d="M144.224,3.554c-0.396-0.126-0.828-0.18-1.225-0.18c-1.152,0-1.674,0.63-1.674,2.034v0.721h2.322v1.494h-2.322v7.454
			h-1.908V7.623h-1.711V6.129h1.711V5.444c0-2.449,1.17-3.637,3.492-3.637c0.504,0,0.99,0.054,1.459,0.162L144.224,3.554z"/>
	</g>
	<g>
		<path d="M59.797,36.676V31.22h-5.744v5.456h-1.963V24.522h1.963v5.023h5.744v-5.023h1.944v12.153H59.797z"/>
		<path d="M63.988,32.354v-1.549h4.321v1.549H63.988z"/>
		<path d="M73.728,36.82c-1.26,0-2.215-0.127-3.187-0.379V23.532h1.927v4.123c0,0.522-0.054,1.242-0.162,1.71h0.036
			c0.468-1.116,1.53-1.818,2.845-1.818c2.125,0,3.295,1.513,3.295,4.214C78.481,34.857,76.698,36.82,73.728,36.82z M74.682,29.149
			c-1.44,0-2.214,1.675-2.214,3.188v2.772c0.396,0.126,0.846,0.18,1.404,0.18c1.531,0,2.575-0.936,2.575-3.349
			C76.446,30.14,75.888,29.149,74.682,29.149z"/>
		<path d="M85.158,29.456c-1.783-0.343-2.647,0.899-2.647,3.583v3.637h-1.927v-8.948h1.836c0,0.504-0.054,1.296-0.18,1.98h0.036
			c0.396-1.207,1.296-2.323,2.971-2.143L85.158,29.456z"/>
		<path d="M87.947,26.143c-0.685,0-1.243-0.522-1.243-1.206c0-0.666,0.558-1.207,1.243-1.207c0.666,0,1.225,0.541,1.225,1.207
			S88.613,26.143,87.947,26.143z M86.974,36.676v-8.948h1.927v8.948H86.974z"/>
		<path d="M97.11,36.676c0-0.468,0.036-1.17,0.126-1.675H97.2c-0.485,1.099-1.53,1.854-2.917,1.854c-2.196,0-3.295-1.62-3.295-4.213
			c0-3.079,1.783-5.06,4.682-5.06c0.432,0,0.864,0.036,1.35,0.072v-4.123h1.909v13.144H97.11z M97.019,29.275
			c-0.485-0.107-0.953-0.162-1.422-0.162c-1.53,0-2.574,0.937-2.574,3.35c0,1.8,0.558,2.809,1.782,2.809
			c1.423,0,2.214-1.692,2.214-3.223V29.275z"/>
		<path d="M104.794,41.249c-2.34,0-3.799-0.937-3.799-2.683c0-0.99,0.685-1.873,1.459-2.305c-0.541-0.234-0.883-0.738-0.883-1.351
			c0-0.648,0.414-1.261,1.026-1.548c-0.828-0.469-1.333-1.279-1.333-2.449c0-1.801,1.333-3.367,3.872-3.367
			c0.522,0,0.882,0.072,1.351,0.181h3.043v1.512h-1.369c0.379,0.324,0.594,0.828,0.594,1.423c0,1.872-1.26,3.241-3.799,3.241
			c-0.324,0-0.558-0.036-0.846-0.108c-0.342,0.162-0.522,0.432-0.522,0.666c0,0.469,0.415,0.595,1.477,0.648l1.513,0.054
			c1.944,0.072,3.025,0.937,3.025,2.593C109.603,39.683,107.675,41.249,104.794,41.249z M106.037,36.693l-1.638-0.054
			c-0.162,0-0.343,0-0.486,0c-0.612,0.433-1.009,0.973-1.009,1.585c0,0.954,0.9,1.53,2.197,1.53c1.674,0,2.593-0.757,2.593-1.729
			C107.694,37.252,107.189,36.748,106.037,36.693z M105.046,28.97c-1.205,0-1.908,0.774-1.908,1.8c0,1.117,0.666,1.783,1.873,1.783
			c1.17,0,1.891-0.666,1.891-1.783C106.902,29.672,106.236,28.97,105.046,28.97z"/>
		<path d="M118.476,32.354h-5.707c-0.055,2.034,0.863,2.953,2.646,2.953c0.863,0,1.764-0.181,2.574-0.54l0.252,1.512
			c-0.936,0.379-2.053,0.576-3.168,0.576c-2.756,0-4.286-1.44-4.286-4.591c0-2.701,1.477-4.718,4.087-4.718
			c2.557,0,3.656,1.747,3.656,3.871C118.531,31.67,118.512,31.977,118.476,32.354z M114.802,28.97c-1.08,0-1.836,0.792-1.998,2.053
			h3.799C116.64,29.744,115.937,28.97,114.802,28.97z"/>
	</g>
	<g id="numbersOnPins">
		<g>
			<path d="M22.288,57.077v-0.972h2.099v-5.732l-1.919,0.755l-0.192-1.007l2.363-0.84h0.863v6.824h1.847v0.972H22.288z"/>
		</g>
		<g>
			<path d="M22.096,83.077v-0.876l1.715-1.69c1.643-1.607,1.931-2.159,1.931-2.915c0-0.815-0.552-1.463-1.547-1.463
				c-0.708,0-1.367,0.3-1.763,0.612l-0.264-0.936c0.588-0.372,1.355-0.636,2.219-0.636c1.703,0,2.531,1.067,2.531,2.242
				c0,1.02-0.372,1.799-1.919,3.263l-1.451,1.379v0.012c0.503-0.012,1.379-0.023,2.471-0.023h1.187v1.031H22.096z"/>
		</g>
		<g>
			<path d="M23.811,109.197c-0.54,0-1.091-0.084-1.487-0.192l0.12-0.971c0.432,0.144,0.936,0.239,1.475,0.239
				c1.307,0,1.991-0.588,1.991-1.439s-0.672-1.391-1.943-1.391c-0.432,0-0.768,0.012-1.175,0.06v-0.863h0.276
				c1.679,0,2.687-0.456,2.687-1.439c0-0.707-0.563-1.14-1.475-1.14c-0.66,0-1.223,0.181-1.715,0.444l-0.108-0.947
				c0.563-0.229,1.223-0.396,2.015-0.396c1.607,0,2.423,0.804,2.423,1.871c0,0.924-0.552,1.548-1.487,1.823l-0.012,0.012
				c0.972,0.097,1.691,0.888,1.691,1.823C27.085,108.226,25.802,109.197,23.811,109.197z"/>
		</g>
		<g>
			<path d="M26.45,133.278v1.799h-1.067v-1.799H21.76l-0.084-0.876l3.31-5.121h1.463v5.014h1.283v0.983H26.45z M25.394,128.36
				h-0.012l-2.603,3.971c0.719-0.036,2.135-0.036,2.614-0.036V128.36z"/>
		</g>
		<g>
			<path d="M23.859,161.186c-0.527,0-0.971-0.049-1.439-0.156v-0.995c0.444,0.144,0.947,0.228,1.523,0.228
				c1.283,0,1.991-0.624,1.991-1.607c0-0.959-0.804-1.463-2.039-1.463c-0.504,0-0.996,0.048-1.307,0.096v-4.006h4.222v1.031h-3.214
				v2.039c0.204-0.012,0.479-0.023,0.66-0.023c1.859,0,2.842,0.959,2.842,2.194C27.097,160.13,25.802,161.186,23.859,161.186z"/>
		</g>
		<g>
			<path d="M24.747,187.197c-1.691,0-2.723-1.199-2.723-3.286c0-3.334,1.655-4.737,3.982-4.737c0.252,0,0.54,0.012,0.708,0.036
				v0.947c-0.24-0.036-0.479-0.061-0.792-0.061c-1.595,0-2.423,0.924-2.734,2.507c-0.024,0.12-0.072,0.336-0.108,0.588h0.012
				c0.396-0.66,1.116-1.02,1.943-1.02c1.56,0,2.423,1.008,2.423,2.278C27.457,186.105,26.377,187.197,24.747,187.197z
				 M24.807,183.06c-1.008,0-1.595,0.815-1.595,1.487c0,0.971,0.563,1.763,1.631,1.763c0.959,0,1.511-0.695,1.511-1.679
				C26.354,183.707,25.826,183.06,24.807,183.06z"/>
		</g>
		<g>
			<path d="M24.339,213.077H23.08c0.792-2.171,1.871-4.665,3.01-6.765c-0.276,0.013-1.847,0.024-2.962,0.024h-1.055v-1.056h5.265
				v0.936C26.126,208.472,25.034,211.038,24.339,213.077z"/>
		</g>
		<g>
			<path d="M24.626,239.197c-1.559,0-2.579-0.768-2.579-1.955c0-0.995,0.792-1.595,1.667-2.099c-0.912-0.468-1.476-1.02-1.476-1.919
				c0-1.188,1.02-2.063,2.519-2.063c1.499,0,2.386,0.792,2.386,1.896c0,0.899-0.684,1.451-1.487,1.931
				c0.863,0.443,1.679,0.995,1.679,2.087C27.337,238.382,26.162,239.197,24.626,239.197z M24.615,235.563
				c-0.756,0.419-1.439,0.863-1.439,1.595c0,0.672,0.552,1.163,1.559,1.163c0.828,0,1.476-0.42,1.476-1.139
				C26.21,236.331,25.454,235.947,24.615,235.563z M24.675,232.025c-0.84,0-1.319,0.503-1.319,1.103
				c0,0.648,0.443,0.984,1.403,1.452c0.695-0.396,1.283-0.792,1.283-1.428C26.042,232.444,25.502,232.025,24.675,232.025z"/>
		</g>
		<g>
			<path d="M147.931,239.186c-0.312,0-0.648-0.024-0.96-0.084v-0.972c0.335,0.084,0.72,0.12,1.079,0.12
				c1.535,0,2.375-0.792,2.65-2.339c0.036-0.229,0.061-0.372,0.108-0.576h-0.013c-0.383,0.552-1.043,0.888-1.871,0.888
				c-1.535,0-2.387-1.008-2.387-2.351c0-1.644,1.128-2.711,2.688-2.711c1.631,0,2.698,0.996,2.698,3.286
				C151.924,237.854,150.234,239.186,147.931,239.186z M149.142,232.049c-0.947,0-1.512,0.731-1.512,1.655
				c0,0.972,0.552,1.595,1.512,1.595c1.02,0,1.583-0.684,1.583-1.499C150.725,232.793,150.173,232.049,149.142,232.049z"/>
		</g>
		<g>
			<path d="M146.887,213.077v-0.972h2.099v-5.732l-1.919,0.755l-0.192-1.007l2.363-0.84h0.863v6.824h1.848v0.972H146.887z"/>
			<path d="M155.826,213.197c-1.715,0-2.663-1.056-2.663-4.054c0-2.734,1.176-3.982,2.807-3.982c1.548,0,2.65,0.924,2.65,3.935
				C158.62,212.082,157.241,213.197,155.826,213.197z M155.885,206.073c-0.888,0-1.56,0.768-1.56,2.998
				c0,2.207,0.408,3.202,1.56,3.202c0.983,0,1.571-0.995,1.571-3.106C157.457,206.853,156.953,206.073,155.885,206.073z"/>
		</g>
		<g>
			<path d="M146.887,187.077v-0.972h2.099v-5.732l-1.919,0.755l-0.192-1.007l2.363-0.84h0.863v6.824h1.848v0.972H146.887z"/>
			<path d="M153.487,187.077v-0.972h2.099v-5.732l-1.919,0.755l-0.192-1.007l2.363-0.84h0.863v6.824h1.848v0.972H153.487z"/>
		</g>
		<g>
			<path d="M146.887,161.077v-0.972h2.099v-5.732l-1.919,0.755l-0.192-1.007l2.363-0.84h0.863v6.824h1.848v0.972H146.887z"/>
			<path d="M153.294,161.077v-0.876l1.715-1.69c1.644-1.607,1.932-2.159,1.932-2.915c0-0.815-0.552-1.463-1.547-1.463
				c-0.708,0-1.367,0.3-1.764,0.612l-0.264-0.936c0.588-0.372,1.355-0.636,2.219-0.636c1.703,0,2.531,1.067,2.531,2.242
				c0,1.02-0.373,1.799-1.92,3.263l-1.451,1.379v0.012c0.504-0.012,1.379-0.023,2.471-0.023h1.188v1.031H153.294z"/>
		</g>
		<g>
			<path d="M146.887,135.077v-0.972h2.099v-5.732l-1.919,0.755l-0.192-1.007l2.363-0.84h0.863v6.824h1.848v0.972H146.887z"/>
			<path d="M155.009,135.197c-0.539,0-1.091-0.084-1.486-0.192l0.119-0.971c0.432,0.144,0.936,0.239,1.476,0.239
				c1.308,0,1.991-0.588,1.991-1.439s-0.672-1.391-1.943-1.391c-0.432,0-0.768,0.012-1.176,0.06v-0.863h0.276
				c1.679,0,2.687-0.456,2.687-1.439c0-0.707-0.563-1.14-1.475-1.14c-0.66,0-1.224,0.181-1.715,0.444l-0.108-0.947
				c0.563-0.229,1.224-0.396,2.015-0.396c1.607,0,2.423,0.804,2.423,1.871c0,0.924-0.552,1.548-1.487,1.823l-0.012,0.012
				c0.971,0.097,1.691,0.888,1.691,1.823C158.285,134.226,157,135.197,155.009,135.197z"/>
		</g>
		<g>
			<path d="M146.887,109.077v-0.972h2.099v-5.732l-1.919,0.755l-0.192-1.007l2.363-0.84h0.863v6.824h1.848v0.972H146.887z"/>
			<path d="M157.648,107.278v1.799h-1.066v-1.799h-3.623l-0.084-0.876l3.311-5.121h1.463v5.014h1.283v0.983H157.648z
				 M156.593,102.36h-0.012l-2.604,3.971c0.72-0.036,2.135-0.036,2.615-0.036V102.36z"/>
		</g>
		<g>
			<path d="M146.887,83.077v-0.972h2.099v-5.732l-1.919,0.755l-0.192-1.007l2.363-0.84h0.863v6.824h1.848v0.972H146.887z"/>
			<path d="M155.058,83.186c-0.527,0-0.972-0.049-1.439-0.156v-0.995c0.443,0.144,0.947,0.228,1.523,0.228
				c1.283,0,1.99-0.624,1.99-1.607c0-0.959-0.803-1.463-2.039-1.463c-0.504,0-0.995,0.048-1.307,0.096v-4.006h4.222v1.031h-3.214
				v2.039c0.203-0.012,0.479-0.023,0.659-0.023c1.858,0,2.843,0.959,2.843,2.194C158.296,82.13,157,83.186,155.058,83.186z"/>
		</g>
		<g>
			<path d="M146.887,57.077v-0.972h2.099v-5.732l-1.919,0.755l-0.192-1.007l2.363-0.84h0.863v6.824h1.848v0.972H146.887z"/>
			<path d="M155.945,57.197c-1.69,0-2.723-1.199-2.723-3.286c0-3.334,1.656-4.737,3.982-4.737c0.252,0,0.539,0.012,0.707,0.036
				v0.947c-0.239-0.036-0.479-0.061-0.791-0.061c-1.596,0-2.423,0.924-2.734,2.507c-0.023,0.12-0.072,0.336-0.107,0.588h0.012
				c0.396-0.66,1.115-1.02,1.942-1.02c1.56,0,2.423,1.008,2.423,2.278C158.656,56.105,157.576,57.197,155.945,57.197z
				 M156.005,53.06c-1.008,0-1.596,0.815-1.596,1.487c0,0.971,0.564,1.763,1.631,1.763c0.96,0,1.512-0.695,1.512-1.679
				C157.552,53.707,157.025,53.06,156.005,53.06z"/>
		</g>
	</g>
	<g id="textOnPins">
		<g id="numbersOnPins_1_">
			<g>
				<path d="M37.288,63.077v-0.972h2.099v-5.732l-1.919,0.755l-0.192-1.007l2.363-0.84h0.863v6.824h1.847v0.972H37.288z"/>
				<path d="M43.768,64.924l-0.456-0.407c0.768-0.828,0.792-1.38,0.516-1.728c-0.336-0.42-0.06-1.067,0.516-1.067
					C45.231,61.722,45.626,63.233,43.768,64.924z"/>
				<path d="M46.432,63.077v-0.876l1.715-1.69c1.643-1.607,1.931-2.159,1.931-2.915c0-0.815-0.552-1.463-1.547-1.463
					c-0.708,0-1.367,0.3-1.763,0.612l-0.264-0.936c0.588-0.372,1.355-0.636,2.219-0.636c1.703,0,2.531,1.067,2.531,2.242
					c0,1.02-0.372,1.799-1.919,3.263l-1.451,1.379v0.012c0.503-0.012,1.379-0.023,2.471-0.023h1.187v1.031H46.432z"/>
				<path d="M53.355,63.077v-8.096h4.162v0.912h-3.058v2.566h2.914v0.888h-2.914v2.806h3.058v0.924H53.355z"/>
				<path d="M64.369,63.077l-3.082-5.014c-0.372-0.587-0.66-1.139-0.923-1.679c0.048,0.863,0.083,2.807,0.083,4.09v2.603h-1.079
					v-8.096h1.451l3.01,4.857c0.36,0.576,0.696,1.199,0.996,1.775c-0.048-0.996-0.084-2.986-0.084-4.33v-2.303h1.067v8.096H64.369z"
					/>
			</g>
			<g>
				<path d="M37.288,89.077v-0.972h2.099v-5.732l-1.919,0.755l-0.192-1.007l2.363-0.84h0.863v6.824h1.847v0.972H37.288z"/>
				<path d="M49.033,89.077l-0.672-1.895h-3.442l-0.672,1.895H43.12l2.95-8.096h1.223l2.975,8.096H49.033z M46.994,83.32
					c-0.144-0.396-0.251-0.756-0.348-1.104h-0.024c-0.096,0.348-0.204,0.708-0.336,1.092l-1.079,2.998h2.866L46.994,83.32z"/>
			</g>
			<g>
				<path d="M37.288,115.077v-0.972h2.099v-5.732l-1.919,0.755l-0.192-1.007l2.363-0.84h0.863v6.824h1.847v0.972H37.288z"/>
				<path d="M46.742,112.163v2.914h-1.104v-2.914l-2.531-5.182h1.211l1.283,2.734c0.228,0.48,0.432,0.947,0.612,1.403h0.012
					c0.192-0.491,0.444-1.02,0.696-1.547l1.247-2.591h1.151L46.742,112.163z"/>
			</g>
			<g>
				<path d="M64.927,147.077v-3.729h-4.125v3.729h-1.104v-8.096h1.104v3.431h4.125v-3.431h1.104v8.096H64.927z"/>
				<path d="M68.074,147.077v-8.096h4.162v0.912h-3.058v2.566h2.914v0.888h-2.914v2.806h3.058v0.924H68.074z"/>
				<path d="M79.099,147.077l-0.672-1.895h-3.442l-0.672,1.895h-1.127l2.95-8.096h1.223l2.975,8.096H79.099z M77.06,141.32
					c-0.144-0.396-0.251-0.756-0.348-1.104h-0.024c-0.096,0.348-0.204,0.708-0.336,1.092l-1.079,2.998h2.866L77.06,141.32z"/>
				<path d="M84.092,139.905v7.172h-1.104v-7.172h-2.327v-0.924h5.769v0.924H84.092z"/>
				<path d="M89.097,147.186c-0.66,0-1.271-0.084-1.775-0.229l0.132-1.056c0.516,0.204,1.104,0.324,1.703,0.324
					c0.936,0,1.751-0.384,1.751-1.379c0-1.823-3.658-1.104-3.658-3.683c0-1.331,1.007-2.29,2.83-2.29
					c0.469,0,1.008,0.048,1.464,0.155l-0.132,0.972c-0.432-0.132-0.924-0.216-1.391-0.216c-1.104,0-1.632,0.492-1.632,1.26
					c0,1.751,3.706,1.115,3.706,3.657C92.095,146.153,90.908,147.186,89.097,147.186z"/>
				<path d="M93.694,147.077v-8.096h1.104v8.096H93.694z"/>
				<path d="M101.839,147.077l-3.082-5.014c-0.373-0.587-0.66-1.139-0.924-1.679c0.048,0.863,0.084,2.807,0.084,4.09v2.603h-1.08
					v-8.096h1.451l3.011,4.857c0.36,0.576,0.696,1.199,0.995,1.775c-0.047-0.996-0.084-2.986-0.084-4.33v-2.303h1.068v8.096H101.839
					z"/>
				<path d="M109.626,147.077l-3.201-4.006v4.006h-1.104v-8.096h1.104v3.814l3.213-3.814h1.355l-3.418,3.91l3.551,4.186H109.626z"/>
			</g>
			<g>
				<path d="M53.611,161.478l-0.672-1.895h-3.442l-0.672,1.895h-1.127l2.95-8.096h1.223l2.975,8.096H53.611z M51.572,155.721
					c-0.144-0.396-0.251-0.756-0.348-1.104h-0.024c-0.096,0.348-0.204,0.708-0.336,1.092l-1.079,2.998h2.866L51.572,155.721z"/>
				<path d="M60.979,161.478l-3.082-5.014c-0.372-0.587-0.66-1.139-0.924-1.679c0.048,0.863,0.084,2.807,0.084,4.09v2.603h-1.079
					v-8.096h1.451l3.01,4.857c0.36,0.576,0.696,1.199,0.996,1.775c-0.048-0.996-0.084-2.986-0.084-4.33v-2.303h1.067v8.096H60.979z"
					/>
				<path d="M66.513,161.525c-0.815,0-1.451-0.048-2.051-0.048v-8.084c0.624-0.012,1.535-0.048,2.422-0.048
					c2.591,0,4.138,1.212,4.138,3.994C71.022,160.11,69.163,161.525,66.513,161.525z M66.776,154.245
					c-0.419,0-0.911,0.024-1.211,0.036v6.237c0.3,0.048,0.743,0.071,1.067,0.071c1.895,0,3.226-0.983,3.226-3.178
					C69.859,155.349,68.875,154.245,66.776,154.245z"/>
				<path d="M78.728,161.586c-2.447,0-4.018-1.487-4.018-3.994c0-2.482,1.655-4.317,4.354-4.317c0.792,0,1.547,0.132,2.243,0.348
					l-0.24,0.995c-0.66-0.252-1.367-0.396-2.099-0.396c-1.667,0-3.083,1.079-3.083,3.238c0,2.015,1.175,3.166,2.999,3.166
					c0.54,0,0.996-0.084,1.427-0.216v-3.059h1.091v3.767C80.598,161.418,79.615,161.586,78.728,161.586z"/>
				<path d="M87.295,161.478l-2.651-3.634h-0.144v3.634h-1.104v-8.096c0.552-0.036,1.139-0.048,2.027-0.048
					c1.595,0,2.747,0.563,2.747,2.111c0,1.379-1.092,2.183-2.375,2.278c0.228,0.288,0.492,0.588,0.696,0.863l2.207,2.891H87.295z
					 M85.232,154.233c-0.276,0-0.516,0.012-0.731,0.024v2.758c0.12,0.013,0.359,0.024,0.684,0.024c1.163,0,1.835-0.588,1.835-1.451
					C87.02,154.617,86.408,154.233,85.232,154.233z"/>
				<path d="M93.128,161.598c-2.436,0-3.61-1.619-3.61-4.078c0-2.698,1.728-4.258,3.838-4.258c2.183,0,3.61,1.416,3.61,4.078
					C96.966,160.038,95.239,161.598,93.128,161.598z M93.236,154.233c-1.344,0-2.543,1.092-2.543,3.131
					c0,1.931,0.816,3.25,2.531,3.25c1.318,0,2.566-1.056,2.566-3.143C95.791,155.396,94.855,154.233,93.236,154.233z"/>
				<path d="M101.527,161.598c-2.53,0-3.033-1.403-3.033-2.843v-5.373h1.104v5.289c0,1.115,0.371,2.015,2.002,2.015
					c1.416,0,2.075-0.587,2.075-2.219v-5.085h1.079v5.001C104.753,160.506,103.638,161.598,101.527,161.598z"/>
				<path d="M111.81,161.478l-3.082-5.014c-0.372-0.587-0.66-1.139-0.924-1.679c0.049,0.863,0.084,2.807,0.084,4.09v2.603h-1.079
					v-8.096h1.451l3.011,4.857c0.359,0.576,0.695,1.199,0.995,1.775c-0.048-0.996-0.084-2.986-0.084-4.33v-2.303h1.067v8.096H111.81
					z"/>
				<path d="M117.343,161.525c-0.814,0-1.451-0.048-2.051-0.048v-8.084c0.624-0.012,1.535-0.048,2.423-0.048
					c2.591,0,4.138,1.212,4.138,3.994C121.853,160.11,119.994,161.525,117.343,161.525z M117.607,154.245
					c-0.419,0-0.91,0.024-1.211,0.036v6.237c0.301,0.048,0.744,0.071,1.068,0.071c1.895,0,3.226-0.983,3.226-3.178
					C120.69,155.349,119.707,154.245,117.607,154.245z"/>
			</g>
			<g>
				<path d="M37.096,193.077v-0.876l1.715-1.69c1.643-1.607,1.931-2.159,1.931-2.915c0-0.815-0.552-1.463-1.547-1.463
					c-0.708,0-1.367,0.3-1.763,0.612l-0.264-0.936c0.588-0.372,1.355-0.636,2.219-0.636c1.703,0,2.531,1.067,2.531,2.242
					c0,1.02-0.372,1.799-1.919,3.263l-1.451,1.379v0.012c0.503-0.012,1.379-0.023,2.471-0.023h1.187v1.031H37.096z"/>
				<path d="M46.742,190.163v2.914h-1.104v-2.914l-2.531-5.182h1.211l1.283,2.734c0.228,0.48,0.432,0.947,0.612,1.403h0.012
					c0.192-0.491,0.444-1.02,0.696-1.547l1.247-2.591h1.151L46.742,190.163z"/>
			</g>
			<g>
				<path d="M37.096,219.077v-0.876l1.715-1.69c1.643-1.607,1.931-2.159,1.931-2.915c0-0.815-0.552-1.463-1.547-1.463
					c-0.708,0-1.367,0.3-1.763,0.612l-0.264-0.936c0.588-0.372,1.355-0.636,2.219-0.636c1.703,0,2.531,1.067,2.531,2.242
					c0,1.02-0.372,1.799-1.919,3.263l-1.451,1.379v0.012c0.503-0.012,1.379-0.023,2.471-0.023h1.187v1.031H37.096z"/>
				<path d="M49.033,219.077l-0.672-1.895h-3.442l-0.672,1.895H43.12l2.95-8.096h1.223l2.975,8.096H49.033z M46.994,213.32
					c-0.144-0.396-0.251-0.756-0.348-1.104h-0.024c-0.096,0.348-0.204,0.708-0.336,1.092l-1.079,2.998h2.866L46.994,213.32z"/>
			</g>
			<g>
				<path d="M40.682,245.077h-1.235l-2.915-8.096h1.224l1.811,5.205c0.156,0.468,0.372,1.104,0.516,1.655h0.024
					c0.144-0.552,0.348-1.163,0.563-1.739l1.859-5.121h1.127L40.682,245.077z"/>
			</g>
			<g>
				<path d="M47.344,248.157c-2.168,0-3.068-1.379-3.068-3.288c0-2.06,1.019-3.599,3.298-3.599c0.52,0,1.069,0.07,1.549,0.21
					l-0.15,0.84c-0.47-0.16-0.99-0.26-1.499-0.26c-1.54,0-2.199,1.18-2.199,2.658c0,1.659,0.72,2.619,2.289,2.619
					c0.49,0,1.079-0.141,1.479-0.34l0.15,0.799C48.684,248.007,48.024,248.157,47.344,248.157z"/>
				<path d="M53.174,248.157c-2.168,0-3.068-1.379-3.068-3.288c0-2.06,1.019-3.599,3.298-3.599c0.52,0,1.069,0.07,1.549,0.21
					l-0.15,0.84c-0.47-0.16-0.99-0.26-1.499-0.26c-1.54,0-2.199,1.18-2.199,2.658c0,1.659,0.72,2.619,2.289,2.619
					c0.49,0,1.079-0.141,1.479-0.34l0.15,0.799C54.514,248.007,53.854,248.157,53.174,248.157z"/>
				<path d="M56.056,248.077v-0.729l1.429-1.409c1.369-1.34,1.609-1.799,1.609-2.429c0-0.68-0.46-1.22-1.29-1.22
					c-0.589,0-1.139,0.25-1.469,0.51l-0.22-0.779c0.49-0.31,1.129-0.529,1.849-0.529c1.419,0,2.109,0.889,2.109,1.868
					c0,0.85-0.31,1.5-1.599,2.719l-1.209,1.149v0.01c0.42-0.01,1.149-0.02,2.059-0.02h0.99v0.859H56.056z"/>
			</g>
			<g>
				<path d="M108.978,245.197c-0.539,0-1.091-0.084-1.486-0.192l0.119-0.971c0.432,0.144,0.936,0.239,1.476,0.239
					c1.308,0,1.991-0.588,1.991-1.439s-0.672-1.391-1.943-1.391c-0.432,0-0.768,0.012-1.176,0.06v-0.863h0.276
					c1.679,0,2.687-0.456,2.687-1.439c0-0.707-0.563-1.14-1.475-1.14c-0.66,0-1.224,0.181-1.715,0.444l-0.108-0.947
					c0.563-0.229,1.224-0.396,2.015-0.396c1.607,0,2.423,0.804,2.423,1.871c0,0.924-0.552,1.548-1.487,1.823l-0.012,0.012
					c0.971,0.097,1.691,0.888,1.691,1.823C112.253,244.226,110.969,245.197,108.978,245.197z"/>
				<path d="M113.935,246.924l-0.455-0.407c0.768-0.828,0.791-1.38,0.516-1.728c-0.336-0.42-0.061-1.067,0.516-1.067
					C115.398,243.722,115.794,245.233,113.935,246.924z"/>
				<path d="M120.953,243.278v1.799h-1.066v-1.799h-3.623l-0.084-0.876l3.311-5.121h1.463v5.014h1.283v0.983H120.953z
					 M119.898,238.36h-0.012l-2.604,3.971c0.72-0.036,2.135-0.036,2.615-0.036V238.36z"/>
				<path d="M123.523,245.077v-8.096h4.162v0.912h-3.059v2.566h2.914v0.888h-2.914v2.806h3.059v0.924H123.523z"/>
				<path d="M134.537,245.077l-3.082-5.014c-0.373-0.587-0.66-1.139-0.924-1.679c0.048,0.863,0.084,2.807,0.084,4.09v2.603h-1.08
					v-8.096h1.451l3.011,4.857c0.36,0.576,0.696,1.199,0.995,1.775c-0.048-0.996-0.084-2.986-0.084-4.33v-2.303h1.068v8.096H134.537
					z"/>
			</g>
			<g>
				<path d="M125.431,219.197c-0.539,0-1.091-0.084-1.486-0.192l0.119-0.971c0.432,0.144,0.936,0.239,1.476,0.239
					c1.308,0,1.991-0.588,1.991-1.439s-0.672-1.391-1.943-1.391c-0.432,0-0.768,0.012-1.176,0.06v-0.863h0.276
					c1.679,0,2.687-0.456,2.687-1.439c0-0.707-0.563-1.14-1.475-1.14c-0.66,0-1.224,0.181-1.715,0.444l-0.108-0.947
					c0.563-0.229,1.224-0.396,2.015-0.396c1.607,0,2.423,0.804,2.423,1.871c0,0.924-0.552,1.548-1.487,1.823l-0.012,0.012
					c0.971,0.097,1.691,0.888,1.691,1.823C128.707,218.226,127.422,219.197,125.431,219.197z"/>
				<path d="M135.654,219.077l-0.672-1.895h-3.442l-0.672,1.895h-1.127l2.95-8.096h1.223l2.975,8.096H135.654z M133.615,213.32
					c-0.145-0.396-0.252-0.756-0.348-1.104h-0.024c-0.097,0.348-0.204,0.708-0.336,1.092l-1.079,2.998h2.866L133.615,213.32z"/>
			</g>
			<g>
				<path d="M126.367,193.197c-0.539,0-1.091-0.084-1.486-0.192l0.119-0.971c0.432,0.144,0.936,0.239,1.476,0.239
					c1.308,0,1.991-0.588,1.991-1.439s-0.672-1.391-1.943-1.391c-0.432,0-0.768,0.012-1.176,0.06v-0.863h0.276
					c1.679,0,2.687-0.456,2.687-1.439c0-0.707-0.563-1.14-1.475-1.14c-0.66,0-1.224,0.181-1.715,0.444l-0.108-0.947
					c0.563-0.229,1.224-0.396,2.015-0.396c1.607,0,2.423,0.804,2.423,1.871c0,0.924-0.552,1.548-1.487,1.823l-0.012,0.012
					c0.971,0.097,1.691,0.888,1.691,1.823C129.642,192.226,128.358,193.197,126.367,193.197z"/>
				<path d="M134.298,190.163v2.914h-1.104v-2.914l-2.531-5.182h1.212l1.283,2.734c0.228,0.48,0.432,0.947,0.612,1.403h0.012
					c0.191-0.491,0.443-1.02,0.695-1.547l1.247-2.591h1.151L134.298,190.163z"/>
			</g>
			<g>
				<path d="M129.005,113.278v1.799h-1.066v-1.799h-3.623l-0.084-0.876l3.311-5.121h1.463v5.014h1.283v0.983H129.005z
					 M127.951,108.36h-0.012l-2.604,3.971c0.72-0.036,2.135-0.036,2.615-0.036V108.36z"/>
				<path d="M134.298,112.163v2.914h-1.104v-2.914l-2.531-5.182h1.212l1.283,2.734c0.228,0.48,0.432,0.947,0.612,1.403h0.012
					c0.191-0.491,0.443-1.02,0.695-1.547l1.247-2.591h1.151L134.298,112.163z"/>
			</g>
			<g>
				<path d="M128.07,87.278v1.799h-1.066v-1.799h-3.623l-0.084-0.876l3.311-5.121h1.463v5.014h1.283v0.983H128.07z M127.015,82.36
					h-0.012l-2.604,3.971c0.72-0.036,2.135-0.036,2.615-0.036V82.36z"/>
				<path d="M135.654,89.077l-0.672-1.895h-3.442l-0.672,1.895h-1.127l2.95-8.096h1.223l2.975,8.096H135.654z M133.615,83.32
					c-0.145-0.396-0.252-0.756-0.348-1.104h-0.024c-0.097,0.348-0.204,0.708-0.336,1.092l-1.079,2.998h2.866L133.615,83.32z"/>
			</g>
			<g>
				<path d="M116.707,63.077h-1.236l-2.914-8.096h1.224l1.811,5.205c0.156,0.468,0.372,1.104,0.517,1.655h0.023
					c0.145-0.552,0.348-1.163,0.563-1.739l1.858-5.121h1.128L116.707,63.077z"/>
			</g>
			<g>
				<path d="M123.369,65.157c-2.169,0-3.068-1.379-3.068-3.288c0-2.06,1.02-3.599,3.298-3.599c0.521,0,1.069,0.07,1.55,0.21
					l-0.15,0.84c-0.47-0.16-0.99-0.26-1.499-0.26c-1.54,0-2.199,1.18-2.199,2.658c0,1.659,0.72,2.619,2.289,2.619
					c0.489,0,1.079-0.141,1.479-0.34l0.149,0.799C124.708,65.007,124.048,65.157,123.369,65.157z"/>
				<path d="M129.199,65.157c-2.169,0-3.068-1.379-3.068-3.288c0-2.06,1.02-3.599,3.298-3.599c0.521,0,1.069,0.07,1.55,0.21
					l-0.15,0.84c-0.47-0.16-0.99-0.26-1.499-0.26c-1.54,0-2.199,1.18-2.199,2.658c0,1.659,0.72,2.619,2.289,2.619
					c0.489,0,1.079-0.141,1.479-0.34l0.149,0.799C130.538,65.007,129.878,65.157,129.199,65.157z"/>
				<path d="M132.24,65.077v-0.81h1.749V59.49l-1.599,0.63l-0.16-0.84l1.969-0.699h0.719v5.687h1.54v0.81H132.24z"/>
			</g>
		</g>
		<polyline fill="none" stroke="#000000" points="36.65,138.227 39.65,138.227 43.9,151.227 39.65,164.227 36.65,164.227 		"/>
		<polyline fill="none" stroke="#000000" points="137.9,164.227 134.9,164.227 130.65,151.227 134.9,138.227 137.9,138.227 		"/>
	</g>
</g>
</svg>
