<?xml version="1.0" encoding="utf-8"?>
<!DOCTYPE svg PUBLIC "-//W3C//DTD SVG 1.1 Basic//EN" "http://www.w3.org/Graphics/SVG/1.1/DTD/svg11-basic.dtd">
<svg version="1.1" baseProfile="basic" id="svg" xmlns:xml="http://www.w3.org/XML/1998/namespace"
	 xmlns="http://www.w3.org/2000/svg" xmlns:xlink="http://www.w3.org/1999/xlink" x="0px" y="0px" width="1.5087in"
	 height="1.8048in" viewBox="0 0 108.633 129.947" xml:space="preserve">
<rect id="connector2pin" x="96.568" y="63.88" width="9.781" height="1.896"/>
<rect id="connector2terminal" x="105.627" y="64.395" width="0.688" height="0.866"/>
<rect id="connector0pin" x="0.82" y="63.884" width="9.783" height="1.893"/>
<rect id="connector0terminal" x="0.207" y="64.363" width="0.688" height="0.867"/>
<rect id="connector1pin" x="0.681" y="85.69" width="9.783" height="1.895"/>
<rect id="connector1terminal" y="86.239" width="0.686" height="0.865"/>
<g id="schematic">
	<g>
		<polyline fill="#FFFFFF" stroke="#000000" stroke-width="2.4" stroke-linecap="round" points="106.309,64.812 63.381,64.812 
			61.518,68.312 57.482,61.065 53.448,68.312 49.416,61.065 45.381,68.312 41.347,61.065 39.175,64.812 0.207,64.812 		"/>
		<polygon points="61.01,46.948 58.922,56.983 53.661,54.095 		"/>
		<polyline fill="none" stroke="#000000" stroke-width="2.4" stroke-linecap="round" points="58.2,52.013 39.723,86.638 
			0.076,86.632 		"/>
	</g>
	
		<rect x="21.438" y="1.201" fill="none" stroke="#000000" stroke-width="2.4" stroke-linecap="round" width="63.796" height="127.546"/>
	<g>
		<g>
			<g id="schematic_2_">
				<g>
					<polygon points="37.396,14.64 39.04,19.19 34.966,16.578 36.18,15.608 					"/>
					<path d="M33.545,16.648l2.115-1.688l1.215-0.968l0.901-0.722l2.868,7.938L33.545,16.648L33.545,16.648z"/>
					<path d="M37.918,19.114l-7.794-9.766c-0.283-0.359-0.228-0.88,0.135-1.166l0,0c0.354-0.285,0.879-0.227,1.162,0.132l0,0
						l7.794,9.767c0.285,0.359,0.229,0.879-0.133,1.165l0,0c-0.15,0.122-0.337,0.181-0.517,0.181l0,0
						C38.322,19.426,38.082,19.319,37.918,19.114L37.918,19.114z"/>
					<polygon points="42.75,9.818 44.393,14.368 40.32,11.756 41.535,10.787 					"/>
					<path d="M38.899,11.828l2.117-1.689l1.215-0.968l0.901-0.721l2.875,7.939L38.899,11.828L38.899,11.828z"/>
					<path d="M43.272,14.293L37.2,6.685c-0.284-0.359-0.227-0.88,0.133-1.166l0,0c0.354-0.286,0.883-0.226,1.164,0.132l0,0
						l6.07,7.609c0.286,0.356,0.229,0.878-0.131,1.164l0,0c-0.153,0.122-0.335,0.181-0.519,0.181l0,0
						C43.676,14.605,43.435,14.498,43.272,14.293L43.272,14.293z"/>
				</g>
			</g>
		</g>
		<g>
			<polygon fill="none" stroke="#000000" stroke-width="2.4" stroke-linecap="round" stroke-linejoin="round" points="
				43.453,35.446 52.751,19.353 62.042,35.446 			"/>
			
				<line fill="none" stroke="#000000" stroke-width="2.4" stroke-linecap="round" stroke-linejoin="round" x1="43.453" y1="19.353" x2="62.042" y2="19.353"/>
		</g>
		<g id="schematic_3_">
			<g>
				<polygon points="73.479,116.483 75.122,121.036 71.049,118.423 72.264,117.454 				"/>
				<path d="M69.627,118.493l2.115-1.688l1.215-0.972l0.902-0.725l2.867,7.938L69.627,118.493L69.627,118.493z"/>
				<path d="M74,120.96l-7.793-9.77c-0.283-0.355-0.229-0.881,0.135-1.166l0,0c0.354-0.281,0.879-0.229,1.162,0.135l0,0l7.795,9.768
					c0.283,0.359,0.229,0.881-0.135,1.164l0,0c-0.148,0.123-0.336,0.184-0.516,0.184l0,0C74.404,121.272,74.165,121.165,74,120.96
					L74,120.96z"/>
				<path d="M62.782,120.048l2.116-1.688l1.215-0.968l0.9-0.723l2.875,7.938L62.782,120.048L62.782,120.048z"/>
				<path d="M67.154,122.517l-6.069-7.606c-0.283-0.358-0.229-0.883,0.133-1.166l0,0c0.354-0.285,0.882-0.228,1.166,0.133l0,0
					l6.064,7.607c0.286,0.354,0.229,0.877-0.132,1.161l0,0c-0.149,0.123-0.334,0.185-0.516,0.185l0,0
					C67.559,122.825,67.316,122.72,67.154,122.517L67.154,122.517z"/>
			</g>
		</g>
		<g>
			<polygon fill="none" stroke="#000000" stroke-width="2.4" stroke-linecap="round" stroke-linejoin="round" points="
				62.042,94.362 52.751,110.456 43.453,94.362 			"/>
			
				<line fill="none" stroke="#000000" stroke-width="2.4" stroke-linecap="round" stroke-linejoin="round" x1="62.042" y1="110.456" x2="43.453" y2="110.456"/>
		</g>
	</g>
</g>
</svg>
