<?xml version='1.0' encoding='UTF-8' standalone='no'?>
<!-- Created with Fritzing (http://www.fritzing.org/) -->
<svg xmlns="http://www.w3.org/2000/svg" width="2.69081in" x="0in" version="1.2" y="0in" height="6.82467in" viewBox="0 0 193.738 491.376" baseProfile="tiny">
 <desc >Fritzing schematic generated by brd2svg</desc>
 <g  id="schematic" stroke-width="0">
  <rect  width="148.819" x="22.4598" y="1.2" fill="none" height="488.976" stroke="#000000" stroke-linejoin="round" stroke-linecap="round" stroke-width="2.4"/>
  <text  x="96.8695" y="43.7197" font-family="DroidSans" fill="#000000" text-anchor="middle" stroke="none" id="label" stroke-width="0" font-size="18">jlpcb-089</text>
  <line  fill="none" stroke="#000000" stroke-linejoin="round" stroke-linecap="round" y1="43.7197" stroke-width="2.4" x1="1.2" y2="43.7197" x2="21.2599"/>
  <rect  width="21.2599" x="0" y="42.5197" fill="none" height="2.4" id="connector0pin" stroke-width="0" connectorName="1"/>
  <rect  width="2.4" x="0" y="42.5197" fill="none" height="2.4" id="connector0terminal" stroke-width="0"/>
  <text  x="27.7399" y="46.1197" font-family="DroidSans" fill="#000000" text-anchor="start" stroke="none" id="label0" stroke-width="0" font-size="9.936">1</text>
  <line  fill="none" stroke="#000000" stroke-linejoin="round" stroke-linecap="round" y1="64.9795" stroke-width="2.4" x1="1.2" y2="64.9795" x2="21.2599"/>
  <rect  width="21.2599" x="0" y="63.7795" fill="none" height="2.4" id="connector1pin" stroke-width="0" connectorName="2"/>
  <rect  width="2.4" x="0" y="63.7795" fill="none" height="2.4" id="connector1terminal" stroke-width="0"/>
  <text  x="27.7399" y="67.3795" font-family="DroidSans" fill="#000000" text-anchor="start" stroke="none" id="label1" stroke-width="0" font-size="9.936">2</text>
  <line  fill="none" stroke="#000000" stroke-linejoin="round" stroke-linecap="round" y1="86.2394" stroke-width="2.4" x1="1.2" y2="86.2394" x2="21.2599"/>
  <rect  width="21.2599" x="0" y="85.0392" fill="none" height="2.4" id="connector7pin" stroke-width="0" connectorName="2"/>
  <rect  width="2.4" x="0" y="85.0392" fill="none" height="2.4" id="connector7terminal" stroke-width="0"/>
  <text  x="27.7399" y="88.6392" font-family="DroidSans" fill="#000000" text-anchor="start" stroke="none" id="label7" stroke-width="0" font-size="9.936">2</text>
  <line  fill="none" stroke="#000000" stroke-linejoin="round" stroke-linecap="round" y1="107.499" stroke-width="2.4" x1="1.2" y2="107.499" x2="21.2599"/>
  <rect  width="21.2599" x="0" y="106.299" fill="none" height="2.4" id="connector8pin" stroke-width="0" connectorName="3"/>
  <rect  width="2.4" x="0" y="106.299" fill="none" height="2.4" id="connector8terminal" stroke-width="0"/>
  <text  x="27.7399" y="109.899" font-family="DroidSans" fill="#000000" text-anchor="start" stroke="none" id="label8" stroke-width="0" font-size="9.936">3</text>
  <line  fill="none" stroke="#000000" stroke-linejoin="round" stroke-linecap="round" y1="128.759" stroke-width="2.4" x1="1.2" y2="128.759" x2="21.2599"/>
  <rect  width="21.2599" x="0" y="127.559" fill="none" height="2.4" id="connector2pin" stroke-width="0" connectorName="3"/>
  <rect  width="2.4" x="0" y="127.559" fill="none" height="2.4" id="connector2terminal" stroke-width="0"/>
  <text  x="27.7399" y="131.159" font-family="DroidSans" fill="#000000" text-anchor="start" stroke="none" id="label2" stroke-width="0" font-size="9.936">3</text>
  <line  fill="none" stroke="#000000" stroke-linejoin="round" stroke-linecap="round" y1="150.019" stroke-width="2.4" x1="1.2" y2="150.019" x2="21.2599"/>
  <rect  width="21.2599" x="0" y="148.819" fill="none" height="2.4" id="connector9pin" stroke-width="0" connectorName="4"/>
  <rect  width="2.4" x="0" y="148.819" fill="none" height="2.4" id="connector9terminal" stroke-width="0"/>
  <text  x="27.7399" y="152.419" font-family="DroidSans" fill="#000000" text-anchor="start" stroke="none" id="label9" stroke-width="0" font-size="9.936">4</text>
  <line  fill="none" stroke="#000000" stroke-linejoin="round" stroke-linecap="round" y1="43.7197" stroke-width="2.4" x1="171.279" y2="43.7197" x2="192.539"/>
  <rect  width="21.2599" x="172.479" y="42.5197" fill="none" connectorname="N$12" height="2.4" id="connector6pin" stroke-width="0"/>
  <rect  width="2.4" x="191.339" y="42.5197" fill="none" height="2.4" id="connector6terminal" stroke-width="0"/>
  <text  x="165.999" y="46.1197" font-family="DroidSans" fill="#000000" text-anchor="end" stroke="none" id="label6" stroke-width="0" font-size="9.936">N$12</text>
  <line  fill="none" stroke="#000000" stroke-linejoin="round" stroke-linecap="round" y1="64.9795" stroke-width="2.4" x1="171.279" y2="64.9795" x2="192.539"/>
  <rect  width="21.2599" x="172.479" y="63.7795" fill="none" connectorname="6" height="2.4" id="connector5pin" stroke-width="0"/>
  <rect  width="2.4" x="191.339" y="63.7795" fill="none" height="2.4" id="connector5terminal" stroke-width="0"/>
  <text  x="165.999" y="67.3795" font-family="DroidSans" fill="#000000" text-anchor="end" stroke="none" id="label5" stroke-width="0" font-size="9.936">6</text>
  <line  fill="none" stroke="#000000" stroke-linejoin="round" stroke-linecap="round" y1="86.2394" stroke-width="2.4" x1="171.279" y2="86.2394" x2="192.539"/>
  <rect  width="21.2599" x="172.479" y="85.0392" fill="none" connectorname="6" height="2.4" id="connector11pin" stroke-width="0"/>
  <rect  width="2.4" x="191.339" y="85.0392" fill="none" height="2.4" id="connector11terminal" stroke-width="0"/>
  <text  x="165.999" y="88.6392" font-family="DroidSans" fill="#000000" text-anchor="end" stroke="none" id="label11" stroke-width="0" font-size="9.936">6</text>
  <line  fill="none" stroke="#000000" stroke-linejoin="round" stroke-linecap="round" y1="107.499" stroke-width="2.4" x1="171.279" y2="107.499" x2="192.539"/>
  <rect  width="21.2599" x="172.479" y="106.299" fill="none" connectorname="5" height="2.4" id="connector10pin" stroke-width="0"/>
  <rect  width="2.4" x="191.339" y="106.299" fill="none" height="2.4" id="connector10terminal" stroke-width="0"/>
  <text  x="165.999" y="109.899" font-family="DroidSans" fill="#000000" text-anchor="end" stroke="none" id="label10" stroke-width="0" font-size="9.936">5</text>
  <line  fill="none" stroke="#000000" stroke-linejoin="round" stroke-linecap="round" y1="128.759" stroke-width="2.4" x1="171.279" y2="128.759" x2="192.539"/>
  <rect  width="21.2599" x="172.479" y="127.559" fill="none" connectorname="5" height="2.4" id="connector4pin" stroke-width="0"/>
  <rect  width="2.4" x="191.339" y="127.559" fill="none" height="2.4" id="connector4terminal" stroke-width="0"/>
  <text  x="165.999" y="131.159" font-family="DroidSans" fill="#000000" text-anchor="end" stroke="none" id="label4" stroke-width="0" font-size="9.936">5</text>
  <line  fill="none" stroke="#000000" stroke-linejoin="round" stroke-linecap="round" y1="150.019" stroke-width="2.4" x1="171.279" y2="150.019" x2="192.539"/>
  <rect  width="21.2599" x="172.479" y="148.819" fill="none" connectorname="4" height="2.4" id="connector3pin" stroke-width="0"/>
  <rect  width="2.4" x="191.339" y="148.819" fill="none" height="2.4" id="connector3terminal" stroke-width="0"/>
  <text  x="165.999" y="152.419" font-family="DroidSans" fill="#000000" text-anchor="end" stroke="none" id="label3" stroke-width="0" font-size="9.936">4</text>
  <line  fill="none" stroke="#000000" stroke-linejoin="round" stroke-linecap="round" y1="171.279" stroke-width="2.4" x1="171.279" y2="171.279" x2="192.539"/>
  <rect  width="21.2599" x="172.479" y="170.078" fill="none" connectorname="PWR" height="2.4" id="connector50pin" stroke-width="0"/>
  <rect  width="2.4" x="191.339" y="170.078" fill="none" height="2.4" id="connector50terminal" stroke-width="0"/>
  <text  x="165.999" y="173.678" font-family="DroidSans" fill="#000000" text-anchor="end" stroke="none" id="label50" stroke-width="0" font-size="9.936">PWR</text>
  <line  fill="none" stroke="#000000" stroke-linejoin="round" stroke-linecap="round" y1="192.539" stroke-width="2.4" x1="171.279" y2="192.539" x2="192.539"/>
  <rect  width="21.2599" x="172.479" y="191.339" fill="none" connectorname="GND" height="2.4" id="connector51pin" stroke-width="0"/>
  <rect  width="2.4" x="191.339" y="191.339" fill="none" height="2.4" id="connector51terminal" stroke-width="0"/>
  <text  x="165.999" y="194.939" font-family="DroidSans" fill="#000000" text-anchor="end" stroke="none" id="label51" stroke-width="0" font-size="9.936">GND</text>
  <line  fill="none" stroke="#000000" stroke-linejoin="round" stroke-linecap="round" y1="213.798" stroke-width="2.4" x1="171.279" y2="213.798" x2="192.539"/>
  <rect  width="21.2599" x="172.479" y="212.599" fill="none" connectorname="1" height="2.4" id="connector52pin" stroke-width="0"/>
  <rect  width="2.4" x="191.339" y="212.599" fill="none" height="2.4" id="connector52terminal" stroke-width="0"/>
  <text  x="165.999" y="216.199" font-family="DroidSans" fill="#000000" text-anchor="end" stroke="none" id="label52" stroke-width="0" font-size="9.936">1</text>
  <line  fill="none" stroke="#000000" stroke-linejoin="round" stroke-linecap="round" y1="235.058" stroke-width="2.4" x1="171.279" y2="235.058" x2="192.539"/>
  <rect  width="21.2599" x="172.479" y="233.858" fill="none" connectorname="N$19" height="2.4" id="connector53pin" stroke-width="0"/>
  <rect  width="2.4" x="191.339" y="233.858" fill="none" height="2.4" id="connector53terminal" stroke-width="0"/>
  <text  x="165.999" y="237.458" font-family="DroidSans" fill="#000000" text-anchor="end" stroke="none" id="label53" stroke-width="0" font-size="9.936">N$19</text>
  <line  fill="none" stroke="#000000" stroke-linejoin="round" stroke-linecap="round" y1="256.318" stroke-width="2.4" x1="171.279" y2="256.318" x2="192.539"/>
  <rect  width="21.2599" x="172.479" y="255.118" fill="none" connectorname="N$13" height="2.4" id="connector54pin" stroke-width="0"/>
  <rect  width="2.4" x="191.339" y="255.118" fill="none" height="2.4" id="connector54terminal" stroke-width="0"/>
  <text  x="165.999" y="258.718" font-family="DroidSans" fill="#000000" text-anchor="end" stroke="none" id="label54" stroke-width="0" font-size="9.936">N$13</text>
  <line  fill="none" stroke="#000000" stroke-linejoin="round" stroke-linecap="round" y1="277.578" stroke-width="2.4" x1="171.279" y2="277.578" x2="192.539"/>
  <rect  width="21.2599" x="172.479" y="276.378" fill="none" connectorname="1" height="2.4" id="connector93pin" stroke-width="0"/>
  <rect  width="2.4" x="191.339" y="276.378" fill="none" height="2.4" id="connector93terminal" stroke-width="0"/>
  <text  x="165.999" y="279.978" font-family="DroidSans" fill="#000000" text-anchor="end" stroke="none" id="label93" stroke-width="0" font-size="9.936">1</text>
  <line  fill="none" stroke="#000000" stroke-linejoin="round" stroke-linecap="round" y1="298.837" stroke-width="2.4" x1="171.279" y2="298.837" x2="192.539"/>
  <rect  width="21.2599" x="172.479" y="297.638" fill="none" connectorname="1" height="2.4" id="connector94pin" stroke-width="0"/>
  <rect  width="2.4" x="191.339" y="297.638" fill="none" height="2.4" id="connector94terminal" stroke-width="0"/>
  <text  x="165.999" y="301.238" font-family="DroidSans" fill="#000000" text-anchor="end" stroke="none" id="label94" stroke-width="0" font-size="9.936">1</text>
  <line  fill="none" stroke="#000000" stroke-linejoin="round" stroke-linecap="round" y1="320.098" stroke-width="2.4" x1="171.279" y2="320.098" x2="192.539"/>
  <rect  width="21.2599" x="172.479" y="318.897" fill="none" connectorname="VCC" height="2.4" id="connector95pin" stroke-width="0"/>
  <rect  width="2.4" x="191.339" y="318.897" fill="none" height="2.4" id="connector95terminal" stroke-width="0"/>
  <text  x="165.999" y="322.497" font-family="DroidSans" fill="#000000" text-anchor="end" stroke="none" id="label95" stroke-width="0" font-size="9.936">VCC</text>
  <line  fill="none" stroke="#000000" stroke-linejoin="round" stroke-linecap="round" y1="341.358" stroke-width="2.4" x1="171.279" y2="341.358" x2="192.539"/>
  <rect  width="21.2599" x="172.479" y="340.158" fill="none" connectorname="IRQ" height="2.4" id="connector97pin" stroke-width="0"/>
  <rect  width="2.4" x="191.339" y="340.158" fill="none" height="2.4" id="connector97terminal" stroke-width="0"/>
  <text  x="165.999" y="343.758" font-family="DroidSans" fill="#000000" text-anchor="end" stroke="none" id="label97" stroke-width="0" font-size="9.936">IRQ</text>
  <line  fill="none" stroke="#000000" stroke-linejoin="round" stroke-linecap="round" y1="362.617" stroke-width="2.4" x1="171.279" y2="362.617" x2="192.539"/>
  <rect  width="21.2599" x="172.479" y="361.418" fill="none" connectorname="N$14" height="2.4" id="connector98pin" stroke-width="0"/>
  <rect  width="2.4" x="191.339" y="361.418" fill="none" height="2.4" id="connector98terminal" stroke-width="0"/>
  <text  x="165.999" y="365.018" font-family="DroidSans" fill="#000000" text-anchor="end" stroke="none" id="label98" stroke-width="0" font-size="9.936">N$14</text>
  <line  fill="none" stroke="#000000" stroke-linejoin="round" stroke-linecap="round" y1="383.877" stroke-width="2.4" x1="171.279" y2="383.877" x2="192.539"/>
  <rect  width="21.2599" x="172.479" y="382.677" fill="none" connectorname="PWR1" height="2.4" id="connector99pin" stroke-width="0"/>
  <rect  width="2.4" x="191.339" y="382.677" fill="none" height="2.4" id="connector99terminal" stroke-width="0"/>
  <text  x="165.999" y="386.277" font-family="DroidSans" fill="#000000" text-anchor="end" stroke="none" id="label99" stroke-width="0" font-size="9.936">PWR1</text>
  <line  fill="none" stroke="#000000" stroke-linejoin="round" stroke-linecap="round" y1="405.137" stroke-width="2.4" x1="171.279" y2="405.137" x2="192.539"/>
  <rect  width="21.2599" x="172.479" y="403.937" fill="none" connectorname="GND1" height="2.4" id="connector100pin" stroke-width="0"/>
  <rect  width="2.4" x="191.339" y="403.937" fill="none" height="2.4" id="connector100terminal" stroke-width="0"/>
  <text  x="165.999" y="407.537" font-family="DroidSans" fill="#000000" text-anchor="end" stroke="none" id="label100" stroke-width="0" font-size="9.936">GND1</text>
  <line  fill="none" stroke="#000000" stroke-linejoin="round" stroke-linecap="round" y1="426.397" stroke-width="2.4" x1="171.279" y2="426.397" x2="192.539"/>
  <rect  width="21.2599" x="172.479" y="425.197" fill="none" connectorname="VCC1" height="2.4" id="connector101pin" stroke-width="0"/>
  <rect  width="2.4" x="191.339" y="425.197" fill="none" height="2.4" id="connector101terminal" stroke-width="0"/>
  <text  x="165.999" y="428.797" font-family="DroidSans" fill="#000000" text-anchor="end" stroke="none" id="label101" stroke-width="0" font-size="9.936">VCC1</text>
  <line  fill="none" stroke="#000000" stroke-linejoin="round" stroke-linecap="round" y1="447.656" stroke-width="2.4" x1="171.279" y2="447.656" x2="192.539"/>
  <rect  width="21.2599" x="172.479" y="446.457" fill="none" connectorname="N$18" height="2.4" id="connector114pin" stroke-width="0"/>
  <rect  width="2.4" x="191.339" y="446.457" fill="none" height="2.4" id="connector114terminal" stroke-width="0"/>
  <text  x="165.999" y="450.057" font-family="DroidSans" fill="#000000" text-anchor="end" stroke="none" id="label114" stroke-width="0" font-size="9.936">N$18</text>
  <rect  width="21.2599" x="172.479" y="42.5197" fill="none" connectorname="N$12" height="2.4" id="connector55pin" stroke-width="0"/>
  <rect  width="2.4" x="191.339" y="42.5197" fill="none" height="2.4" id="connector55terminal" stroke-width="0"/>
  <rect  width="21.2599" x="0" y="85.0392" fill="none" height="2.4" id="connector56pin" stroke-width="0" connectorName="2"/>
  <rect  width="2.4" x="0" y="85.0392" fill="none" height="2.4" id="connector56terminal" stroke-width="0"/>
  <rect  width="21.2599" x="0" y="106.299" fill="none" height="2.4" id="connector57pin" stroke-width="0" connectorName="3"/>
  <rect  width="2.4" x="0" y="106.299" fill="none" height="2.4" id="connector57terminal" stroke-width="0"/>
  <rect  width="21.2599" x="0" y="148.819" fill="none" height="2.4" id="connector58pin" stroke-width="0" connectorName="4"/>
  <rect  width="2.4" x="0" y="148.819" fill="none" height="2.4" id="connector58terminal" stroke-width="0"/>
  <rect  width="21.2599" x="172.479" y="106.299" fill="none" connectorname="5" height="2.4" id="connector59pin" stroke-width="0"/>
  <rect  width="2.4" x="191.339" y="106.299" fill="none" height="2.4" id="connector59terminal" stroke-width="0"/>
  <rect  width="21.2599" x="172.479" y="170.078" fill="none" connectorname="PWR" height="2.4" id="connector91pin" stroke-width="0"/>
  <rect  width="2.4" x="191.339" y="170.078" fill="none" height="2.4" id="connector91terminal" stroke-width="0"/>
  <rect  width="21.2599" x="172.479" y="191.339" fill="none" connectorname="GND" height="2.4" id="connector92pin" stroke-width="0"/>
  <rect  width="2.4" x="191.339" y="191.339" fill="none" height="2.4" id="connector92terminal" stroke-width="0"/>
  <rect  width="21.2599" x="172.479" y="318.897" fill="none" connectorname="VCC" height="2.4" id="connector96pin" stroke-width="0"/>
  <rect  width="2.4" x="191.339" y="318.897" fill="none" height="2.4" id="connector96terminal" stroke-width="0"/>
  <rect  width="21.2599" x="172.479" y="85.0392" fill="none" connectorname="6" height="2.4" id="connector102pin" stroke-width="0"/>
  <rect  width="2.4" x="191.339" y="85.0392" fill="none" height="2.4" id="connector102terminal" stroke-width="0"/>
  <rect  width="21.2599" x="0" y="42.5197" fill="none" height="2.4" id="connector103pin" stroke-width="0" connectorName="1"/>
  <rect  width="2.4" x="0" y="42.5197" fill="none" height="2.4" id="connector103terminal" stroke-width="0"/>
  <rect  width="21.2599" x="0" y="63.7795" fill="none" height="2.4" id="connector104pin" stroke-width="0" connectorName="2"/>
  <rect  width="2.4" x="0" y="63.7795" fill="none" height="2.4" id="connector104terminal" stroke-width="0"/>
  <rect  width="21.2599" x="0" y="127.559" fill="none" height="2.4" id="connector105pin" stroke-width="0" connectorName="3"/>
  <rect  width="2.4" x="0" y="127.559" fill="none" height="2.4" id="connector105terminal" stroke-width="0"/>
  <rect  width="21.2599" x="172.479" y="148.819" fill="none" connectorname="4" height="2.4" id="connector106pin" stroke-width="0"/>
  <rect  width="2.4" x="191.339" y="148.819" fill="none" height="2.4" id="connector106terminal" stroke-width="0"/>
  <rect  width="21.2599" x="172.479" y="127.559" fill="none" connectorname="5" height="2.4" id="connector107pin" stroke-width="0"/>
  <rect  width="2.4" x="191.339" y="127.559" fill="none" height="2.4" id="connector107terminal" stroke-width="0"/>
  <rect  width="21.2599" x="172.479" y="340.158" fill="none" connectorname="IRQ" height="2.4" id="connector113pin" stroke-width="0"/>
  <rect  width="2.4" x="191.339" y="340.158" fill="none" height="2.4" id="connector113terminal" stroke-width="0"/>
  <rect  width="21.2599" x="172.479" y="63.7795" fill="none" connectorname="6" height="2.4" id="connector115pin" stroke-width="0"/>
  <rect  width="2.4" x="191.339" y="63.7795" fill="none" height="2.4" id="connector115terminal" stroke-width="0"/>
 </g>
</svg>
