<?xml version='1.0' encoding='UTF-8' standalone='no'?>
<!-- Created with Fritzing (http://www.fritzing.org/) -->
<svg xmlns="http://www.w3.org/2000/svg" width="2.10026in" x="0in" version="1.2" y="0in" height="2.69081in" viewBox="0 0 151.219 193.738" baseProfile="tiny">
 <desc >Fritzing schematic generated by brd2svg</desc>
 <g  id="schematic" stroke-width="0">
  <rect  width="106.299" x="22.4598" y="22.4598" fill="none" height="148.819" stroke="#000000" stroke-linejoin="round" stroke-linecap="round" stroke-width="2.4"/>
  <text  x="75.6094" y="64.9795" font-family="DroidSans" fill="#000000" text-anchor="middle" stroke="none" id="label" stroke-width="0" font-size="18">Arduino</text>
  <text  x="75.6094" y="86.2394" font-family="DroidSans" fill="#000000" text-anchor="middle" stroke="none" id="label" stroke-width="0" font-size="18">Musical</text>
  <text  x="75.6094" y="107.499" font-family="DroidSans" fill="#000000" text-anchor="middle" stroke="none" id="label" stroke-width="0" font-size="18">Instrument</text>
  <text  x="75.6094" y="128.759" font-family="DroidSans" fill="#000000" text-anchor="middle" stroke="none" id="label" stroke-width="0" font-size="18">Shield</text>
  <rect  width="7.2e-06" x="75.6094" y="172.479" fill="none" height="7.2e-06" stroke="none" id="connector161pin" stroke-width="0" connectorName="N$4"/>
  <rect  width="7.2e-06" x="75.6094" y="172.479" fill="none" height="7.2e-06" stroke="none" id="connector161terminal" stroke-width="0"/>
  <rect  width="7.2e-06" x="75.6094" y="172.479" fill="none" height="7.2e-06" stroke="none" id="connector162pin" stroke-width="0" connectorName="N$16"/>
  <rect  width="7.2e-06" x="75.6094" y="172.479" fill="none" height="7.2e-06" stroke="none" id="connector162terminal" stroke-width="0"/>
  <rect  width="7.2e-06" x="75.6094" y="172.479" fill="none" height="7.2e-06" stroke="none" id="connector163pin" stroke-width="0" connectorName="N$17"/>
  <rect  width="7.2e-06" x="75.6094" y="172.479" fill="none" height="7.2e-06" stroke="none" id="connector163terminal" stroke-width="0"/>
  <rect  width="7.2e-06" x="75.6094" y="172.479" fill="none" height="7.2e-06" stroke="none" id="connector164pin" stroke-width="0" connectorName="N$18"/>
  <rect  width="7.2e-06" x="75.6094" y="172.479" fill="none" height="7.2e-06" stroke="none" id="connector164terminal" stroke-width="0"/>
  <rect  width="7.2e-06" x="75.6094" y="172.479" fill="none" height="7.2e-06" stroke="none" id="connector165pin" stroke-width="0" connectorName="N$19"/>
  <rect  width="7.2e-06" x="75.6094" y="172.479" fill="none" height="7.2e-06" stroke="none" id="connector165terminal" stroke-width="0"/>
  <rect  width="7.2e-06" x="75.6094" y="172.479" fill="none" height="7.2e-06" stroke="none" id="connector166pin" stroke-width="0" connectorName="N$20"/>
  <rect  width="7.2e-06" x="75.6094" y="172.479" fill="none" height="7.2e-06" stroke="none" id="connector166terminal" stroke-width="0"/>
  <rect  width="7.2e-06" x="75.6094" y="172.479" fill="none" height="7.2e-06" stroke="none" id="connector167pin" stroke-width="0" connectorName="N$28"/>
  <rect  width="7.2e-06" x="75.6094" y="172.479" fill="none" height="7.2e-06" stroke="none" id="connector167terminal" stroke-width="0"/>
  <rect  width="7.2e-06" x="75.6094" y="172.479" fill="none" height="7.2e-06" stroke="none" id="connector168pin" stroke-width="0" connectorName="N$29"/>
  <rect  width="7.2e-06" x="75.6094" y="172.479" fill="none" height="7.2e-06" stroke="none" id="connector168terminal" stroke-width="0"/>
  <rect  width="7.2e-06" x="75.6094" y="172.479" fill="none" height="7.2e-06" stroke="none" id="connector169pin" stroke-width="0" connectorName="N$30"/>
  <rect  width="7.2e-06" x="75.6094" y="172.479" fill="none" height="7.2e-06" stroke="none" id="connector169terminal" stroke-width="0"/>
  <rect  width="7.2e-06" x="75.6094" y="172.479" fill="none" height="7.2e-06" stroke="none" id="connector170pin" stroke-width="0" connectorName="N$31"/>
  <rect  width="7.2e-06" x="75.6094" y="172.479" fill="none" height="7.2e-06" stroke="none" id="connector170terminal" stroke-width="0"/>
  <rect  width="7.2e-06" x="75.6094" y="172.479" fill="none" height="7.2e-06" stroke="none" id="connector171pin" stroke-width="0" connectorName="N$32"/>
  <rect  width="7.2e-06" x="75.6094" y="172.479" fill="none" height="7.2e-06" stroke="none" id="connector171terminal" stroke-width="0"/>
  <rect  width="7.2e-06" x="75.6094" y="172.479" fill="none" height="7.2e-06" stroke="none" id="connector172pin" stroke-width="0" connectorName="N$40"/>
  <rect  width="7.2e-06" x="75.6094" y="172.479" fill="none" height="7.2e-06" stroke="none" id="connector172terminal" stroke-width="0"/>
  <rect  width="7.2e-06" x="75.6094" y="172.479" fill="none" height="7.2e-06" stroke="none" id="connector173pin" stroke-width="0" connectorName="N$41"/>
  <rect  width="7.2e-06" x="75.6094" y="172.479" fill="none" height="7.2e-06" stroke="none" id="connector173terminal" stroke-width="0"/>
  <rect  width="7.2e-06" x="75.6094" y="172.479" fill="none" height="7.2e-06" stroke="none" id="connector174pin" stroke-width="0" connectorName="N$42"/>
  <rect  width="7.2e-06" x="75.6094" y="172.479" fill="none" height="7.2e-06" stroke="none" id="connector174terminal" stroke-width="0"/>
  <rect  width="7.2e-06" x="75.6094" y="172.479" fill="none" height="7.2e-06" stroke="none" id="connector175pin" stroke-width="0" connectorName="N$43"/>
  <rect  width="7.2e-06" x="75.6094" y="172.479" fill="none" height="7.2e-06" stroke="none" id="connector175terminal" stroke-width="0"/>
  <rect  width="7.2e-06" x="75.6094" y="172.479" fill="none" height="7.2e-06" stroke="none" id="connector176pin" stroke-width="0" connectorName="N$44"/>
  <rect  width="7.2e-06" x="75.6094" y="172.479" fill="none" height="7.2e-06" stroke="none" id="connector176terminal" stroke-width="0"/>
  <rect  width="7.2e-06" x="75.6094" y="172.479" fill="none" height="7.2e-06" stroke="none" id="connector177pin" stroke-width="0" connectorName="N$52"/>
  <rect  width="7.2e-06" x="75.6094" y="172.479" fill="none" height="7.2e-06" stroke="none" id="connector177terminal" stroke-width="0"/>
  <rect  width="7.2e-06" x="75.6094" y="172.479" fill="none" height="7.2e-06" stroke="none" id="connector178pin" stroke-width="0" connectorName="N$53"/>
  <rect  width="7.2e-06" x="75.6094" y="172.479" fill="none" height="7.2e-06" stroke="none" id="connector178terminal" stroke-width="0"/>
  <rect  width="7.2e-06" x="75.6094" y="172.479" fill="none" height="7.2e-06" stroke="none" id="connector179pin" stroke-width="0" connectorName="N$54"/>
  <rect  width="7.2e-06" x="75.6094" y="172.479" fill="none" height="7.2e-06" stroke="none" id="connector179terminal" stroke-width="0"/>
  <rect  width="7.2e-06" x="75.6094" y="172.479" fill="none" height="7.2e-06" stroke="none" id="connector180pin" stroke-width="0" connectorName="N$55"/>
  <rect  width="7.2e-06" x="75.6094" y="172.479" fill="none" height="7.2e-06" stroke="none" id="connector180terminal" stroke-width="0"/>
  <rect  width="7.2e-06" x="75.6094" y="172.479" fill="none" height="7.2e-06" stroke="none" id="connector181pin" stroke-width="0" connectorName="N$56"/>
  <rect  width="7.2e-06" x="75.6094" y="172.479" fill="none" height="7.2e-06" stroke="none" id="connector181terminal" stroke-width="0"/>
  <rect  width="7.2e-06" x="75.6094" y="172.479" fill="none" height="7.2e-06" stroke="none" id="connector182pin" stroke-width="0" connectorName="N$64"/>
  <rect  width="7.2e-06" x="75.6094" y="172.479" fill="none" height="7.2e-06" stroke="none" id="connector182terminal" stroke-width="0"/>
  <rect  width="7.2e-06" x="75.6094" y="172.479" fill="none" height="7.2e-06" stroke="none" id="connector183pin" stroke-width="0" connectorName="N$65"/>
  <rect  width="7.2e-06" x="75.6094" y="172.479" fill="none" height="7.2e-06" stroke="none" id="connector183terminal" stroke-width="0"/>
  <rect  width="7.2e-06" x="75.6094" y="172.479" fill="none" height="7.2e-06" stroke="none" id="connector184pin" stroke-width="0" connectorName="N$66"/>
  <rect  width="7.2e-06" x="75.6094" y="172.479" fill="none" height="7.2e-06" stroke="none" id="connector184terminal" stroke-width="0"/>
  <rect  width="7.2e-06" x="75.6094" y="172.479" fill="none" height="7.2e-06" stroke="none" id="connector185pin" stroke-width="0" connectorName="N$67"/>
  <rect  width="7.2e-06" x="75.6094" y="172.479" fill="none" height="7.2e-06" stroke="none" id="connector185terminal" stroke-width="0"/>
  <rect  width="7.2e-06" x="75.6094" y="172.479" fill="none" height="7.2e-06" stroke="none" id="connector186pin" stroke-width="0" connectorName="N$68"/>
  <rect  width="7.2e-06" x="75.6094" y="172.479" fill="none" height="7.2e-06" stroke="none" id="connector186terminal" stroke-width="0"/>
  <rect  width="7.2e-06" x="75.6094" y="172.479" fill="none" height="7.2e-06" stroke="none" id="connector187pin" stroke-width="0" connectorName="N$76"/>
  <rect  width="7.2e-06" x="75.6094" y="172.479" fill="none" height="7.2e-06" stroke="none" id="connector187terminal" stroke-width="0"/>
  <rect  width="7.2e-06" x="75.6094" y="172.479" fill="none" height="7.2e-06" stroke="none" id="connector188pin" stroke-width="0" connectorName="N$77"/>
  <rect  width="7.2e-06" x="75.6094" y="172.479" fill="none" height="7.2e-06" stroke="none" id="connector188terminal" stroke-width="0"/>
  <rect  width="7.2e-06" x="75.6094" y="172.479" fill="none" height="7.2e-06" stroke="none" id="connector189pin" stroke-width="0" connectorName="N$78"/>
  <rect  width="7.2e-06" x="75.6094" y="172.479" fill="none" height="7.2e-06" stroke="none" id="connector189terminal" stroke-width="0"/>
  <rect  width="7.2e-06" x="75.6094" y="172.479" fill="none" height="7.2e-06" stroke="none" id="connector190pin" stroke-width="0" connectorName="N$79"/>
  <rect  width="7.2e-06" x="75.6094" y="172.479" fill="none" height="7.2e-06" stroke="none" id="connector190terminal" stroke-width="0"/>
  <rect  width="7.2e-06" x="75.6094" y="172.479" fill="none" height="7.2e-06" stroke="none" id="connector191pin" stroke-width="0" connectorName="N$80"/>
  <rect  width="7.2e-06" x="75.6094" y="172.479" fill="none" height="7.2e-06" stroke="none" id="connector191terminal" stroke-width="0"/>
  <rect  width="7.2e-06" x="75.6094" y="172.479" fill="none" height="7.2e-06" stroke="none" id="connector192pin" stroke-width="0" connectorName="N$88"/>
  <rect  width="7.2e-06" x="75.6094" y="172.479" fill="none" height="7.2e-06" stroke="none" id="connector192terminal" stroke-width="0"/>
  <rect  width="7.2e-06" x="75.6094" y="172.479" fill="none" height="7.2e-06" stroke="none" id="connector193pin" stroke-width="0" connectorName="N$89"/>
  <rect  width="7.2e-06" x="75.6094" y="172.479" fill="none" height="7.2e-06" stroke="none" id="connector193terminal" stroke-width="0"/>
  <rect  width="7.2e-06" x="75.6094" y="172.479" fill="none" height="7.2e-06" stroke="none" id="connector194pin" stroke-width="0" connectorName="N$90"/>
  <rect  width="7.2e-06" x="75.6094" y="172.479" fill="none" height="7.2e-06" stroke="none" id="connector194terminal" stroke-width="0"/>
  <rect  width="7.2e-06" x="75.6094" y="172.479" fill="none" height="7.2e-06" stroke="none" id="connector195pin" stroke-width="0" connectorName="N$91"/>
  <rect  width="7.2e-06" x="75.6094" y="172.479" fill="none" height="7.2e-06" stroke="none" id="connector195terminal" stroke-width="0"/>
  <rect  width="7.2e-06" x="75.6094" y="172.479" fill="none" height="7.2e-06" stroke="none" id="connector196pin" stroke-width="0" connectorName="N$92"/>
  <rect  width="7.2e-06" x="75.6094" y="172.479" fill="none" height="7.2e-06" stroke="none" id="connector196terminal" stroke-width="0"/>
  <rect  width="7.2e-06" x="75.6094" y="172.479" fill="none" height="7.2e-06" stroke="none" id="connector197pin" stroke-width="0" connectorName="N$95"/>
  <rect  width="7.2e-06" x="75.6094" y="172.479" fill="none" height="7.2e-06" stroke="none" id="connector197terminal" stroke-width="0"/>
  <rect  width="7.2e-06" x="75.6094" y="172.479" fill="none" height="7.2e-06" stroke="none" id="connector198pin" stroke-width="0" connectorName="N$96"/>
  <rect  width="7.2e-06" x="75.6094" y="172.479" fill="none" height="7.2e-06" stroke="none" id="connector198terminal" stroke-width="0"/>
  <rect  width="7.2e-06" x="75.6094" y="172.479" fill="none" height="7.2e-06" stroke="none" id="connector199pin" stroke-width="0" connectorName="N$97"/>
  <rect  width="7.2e-06" x="75.6094" y="172.479" fill="none" height="7.2e-06" stroke="none" id="connector199terminal" stroke-width="0"/>
  <rect  width="7.2e-06" x="75.6094" y="172.479" fill="none" height="7.2e-06" stroke="none" id="connector200pin" stroke-width="0" connectorName="N$99"/>
  <rect  width="7.2e-06" x="75.6094" y="172.479" fill="none" height="7.2e-06" stroke="none" id="connector200terminal" stroke-width="0"/>
  <rect  width="7.2e-06" x="75.6094" y="172.479" fill="none" height="7.2e-06" stroke="none" id="connector201pin" stroke-width="0" connectorName="N$100"/>
  <rect  width="7.2e-06" x="75.6094" y="172.479" fill="none" height="7.2e-06" stroke="none" id="connector201terminal" stroke-width="0"/>
  <rect  width="7.2e-06" x="75.6094" y="172.479" fill="none" height="7.2e-06" stroke="none" id="connector202pin" stroke-width="0" connectorName="N$101"/>
  <rect  width="7.2e-06" x="75.6094" y="172.479" fill="none" height="7.2e-06" stroke="none" id="connector202terminal" stroke-width="0"/>
  <rect  width="7.2e-06" x="75.6094" y="172.479" fill="none" height="7.2e-06" stroke="none" id="connector203pin" stroke-width="0" connectorName="N$102"/>
  <rect  width="7.2e-06" x="75.6094" y="172.479" fill="none" height="7.2e-06" stroke="none" id="connector203terminal" stroke-width="0"/>
  <rect  width="7.2e-06" x="75.6094" y="172.479" fill="none" height="7.2e-06" stroke="none" id="connector204pin" stroke-width="0" connectorName="N$103"/>
  <rect  width="7.2e-06" x="75.6094" y="172.479" fill="none" height="7.2e-06" stroke="none" id="connector204terminal" stroke-width="0"/>
  <rect  width="7.2e-06" x="75.6094" y="172.479" fill="none" height="7.2e-06" stroke="none" id="connector205pin" stroke-width="0" connectorName="N$104"/>
  <rect  width="7.2e-06" x="75.6094" y="172.479" fill="none" height="7.2e-06" stroke="none" id="connector205terminal" stroke-width="0"/>
  <rect  width="7.2e-06" x="75.6094" y="172.479" fill="none" height="7.2e-06" stroke="none" id="connector206pin" stroke-width="0" connectorName="N$105"/>
  <rect  width="7.2e-06" x="75.6094" y="172.479" fill="none" height="7.2e-06" stroke="none" id="connector206terminal" stroke-width="0"/>
  <rect  width="7.2e-06" x="75.6094" y="172.479" fill="none" height="7.2e-06" stroke="none" id="connector207pin" stroke-width="0" connectorName="N$106"/>
  <rect  width="7.2e-06" x="75.6094" y="172.479" fill="none" height="7.2e-06" stroke="none" id="connector207terminal" stroke-width="0"/>
  <rect  width="7.2e-06" x="75.6094" y="172.479" fill="none" height="7.2e-06" stroke="none" id="connector208pin" stroke-width="0" connectorName="N$107"/>
  <rect  width="7.2e-06" x="75.6094" y="172.479" fill="none" height="7.2e-06" stroke="none" id="connector208terminal" stroke-width="0"/>
  <rect  width="7.2e-06" x="75.6094" y="172.479" fill="none" height="7.2e-06" stroke="none" id="connector209pin" stroke-width="0" connectorName="N$110"/>
  <rect  width="7.2e-06" x="75.6094" y="172.479" fill="none" height="7.2e-06" stroke="none" id="connector209terminal" stroke-width="0"/>
  <rect  width="7.2e-06" x="75.6094" y="172.479" fill="none" height="7.2e-06" stroke="none" id="connector210pin" stroke-width="0" connectorName="N$111"/>
  <rect  width="7.2e-06" x="75.6094" y="172.479" fill="none" height="7.2e-06" stroke="none" id="connector210terminal" stroke-width="0"/>
  <rect  width="7.2e-06" x="75.6094" y="172.479" fill="none" height="7.2e-06" stroke="none" id="connector211pin" stroke-width="0" connectorName="N$112"/>
  <rect  width="7.2e-06" x="75.6094" y="172.479" fill="none" height="7.2e-06" stroke="none" id="connector211terminal" stroke-width="0"/>
  <rect  width="7.2e-06" x="75.6094" y="172.479" fill="none" height="7.2e-06" stroke="none" id="connector212pin" stroke-width="0" connectorName="N$113"/>
  <rect  width="7.2e-06" x="75.6094" y="172.479" fill="none" height="7.2e-06" stroke="none" id="connector212terminal" stroke-width="0"/>
  <rect  width="7.2e-06" x="75.6094" y="172.479" fill="none" height="7.2e-06" stroke="none" id="connector213pin" stroke-width="0" connectorName="N$114"/>
  <rect  width="7.2e-06" x="75.6094" y="172.479" fill="none" height="7.2e-06" stroke="none" id="connector213terminal" stroke-width="0"/>
  <rect  width="7.2e-06" x="75.6094" y="172.479" fill="none" height="7.2e-06" stroke="none" id="connector214pin" stroke-width="0" connectorName="N$115"/>
  <rect  width="7.2e-06" x="75.6094" y="172.479" fill="none" height="7.2e-06" stroke="none" id="connector214terminal" stroke-width="0"/>
  <rect  width="7.2e-06" x="75.6094" y="172.479" fill="none" height="7.2e-06" stroke="none" id="connector215pin" stroke-width="0" connectorName="N$116"/>
  <rect  width="7.2e-06" x="75.6094" y="172.479" fill="none" height="7.2e-06" stroke="none" id="connector215terminal" stroke-width="0"/>
  <rect  width="7.2e-06" x="75.6094" y="172.479" fill="none" height="7.2e-06" stroke="none" id="connector216pin" stroke-width="0" connectorName="N$122"/>
  <rect  width="7.2e-06" x="75.6094" y="172.479" fill="none" height="7.2e-06" stroke="none" id="connector216terminal" stroke-width="0"/>
  <rect  width="7.2e-06" x="75.6094" y="172.479" fill="none" height="7.2e-06" stroke="none" id="connector217pin" stroke-width="0" connectorName="N$123"/>
  <rect  width="7.2e-06" x="75.6094" y="172.479" fill="none" height="7.2e-06" stroke="none" id="connector217terminal" stroke-width="0"/>
  <rect  width="7.2e-06" x="75.6094" y="172.479" fill="none" height="7.2e-06" stroke="none" id="connector218pin" stroke-width="0" connectorName="N$124"/>
  <rect  width="7.2e-06" x="75.6094" y="172.479" fill="none" height="7.2e-06" stroke="none" id="connector218terminal" stroke-width="0"/>
  <rect  width="7.2e-06" x="75.6094" y="172.479" fill="none" height="7.2e-06" stroke="none" id="connector219pin" stroke-width="0" connectorName="N$125"/>
  <rect  width="7.2e-06" x="75.6094" y="172.479" fill="none" height="7.2e-06" stroke="none" id="connector219terminal" stroke-width="0"/>
  <rect  width="7.2e-06" x="75.6094" y="172.479" fill="none" height="7.2e-06" stroke="none" id="connector220pin" stroke-width="0" connectorName="N$126"/>
  <rect  width="7.2e-06" x="75.6094" y="172.479" fill="none" height="7.2e-06" stroke="none" id="connector220terminal" stroke-width="0"/>
  <rect  width="7.2e-06" x="75.6094" y="172.479" fill="none" height="7.2e-06" stroke="none" id="connector221pin" stroke-width="0" connectorName="N$127"/>
  <rect  width="7.2e-06" x="75.6094" y="172.479" fill="none" height="7.2e-06" stroke="none" id="connector221terminal" stroke-width="0"/>
  <rect  width="7.2e-06" x="75.6094" y="172.479" fill="none" height="7.2e-06" stroke="none" id="connector222pin" stroke-width="0" connectorName="N$130"/>
  <rect  width="7.2e-06" x="75.6094" y="172.479" fill="none" height="7.2e-06" stroke="none" id="connector222terminal" stroke-width="0"/>
  <rect  width="7.2e-06" x="75.6094" y="172.479" fill="none" height="7.2e-06" stroke="none" id="connector223pin" stroke-width="0" connectorName="N$131"/>
  <rect  width="7.2e-06" x="75.6094" y="172.479" fill="none" height="7.2e-06" stroke="none" id="connector223terminal" stroke-width="0"/>
  <rect  width="7.2e-06" x="75.6094" y="172.479" fill="none" height="7.2e-06" stroke="none" id="connector224pin" stroke-width="0" connectorName="N$132"/>
  <rect  width="7.2e-06" x="75.6094" y="172.479" fill="none" height="7.2e-06" stroke="none" id="connector224terminal" stroke-width="0"/>
  <rect  width="7.2e-06" x="75.6094" y="172.479" fill="none" height="7.2e-06" stroke="none" id="connector225pin" stroke-width="0" connectorName="N$133"/>
  <rect  width="7.2e-06" x="75.6094" y="172.479" fill="none" height="7.2e-06" stroke="none" id="connector225terminal" stroke-width="0"/>
  <line  fill="none" stroke="#000000" stroke-linejoin="round" stroke-linecap="round" y1="1.2" stroke-width="2.4" x1="75.6094" y2="21.2599" x2="75.6094"/>
  <rect  width="2.4" x="74.4091" y="0" fill="none" connectorname="VCC" height="21.2599" id="connector85pin" stroke-width="0"/>
  <rect  width="2.4" x="74.4091" y="0" fill="none" height="0" id="connector85terminal" stroke-width="0"/>
  <text  x="75.6094" y="33.8599" font-family="DroidSans" fill="#000000" text-anchor="middle" stroke="none" id="label85" stroke-width="0" font-size="9.936">VCC</text>
  <line  fill="none" stroke="#000000" stroke-linejoin="round" stroke-linecap="round" y1="172.479" stroke-width="2.4" x1="75.6094" y2="192.539" x2="75.6094"/>
  <rect  width="2.4" x="74.4091" y="172.479" fill="none" connectorname="GND" height="21.2599" id="connector105pin" stroke-width="0"/>
  <rect  width="2.4" x="74.4091" y="193.738" fill="none" height="0" id="connector105terminal" stroke-width="0"/>
  <text  x="75.6094" y="166.719" font-family="DroidSans" fill="#000000" text-anchor="middle" stroke="none" id="label105" stroke-width="0" font-size="9.936">GND</text>
  <rect  width="2.4" x="74.4091" y="172.479" fill="none" connectorname="GND" height="21.2599" id="connector106pin" stroke-width="0"/>
  <rect  width="2.4" x="74.4091" y="193.738" fill="none" height="0" id="connector106terminal" stroke-width="0"/>
  <rect  width="2.4" x="74.4091" y="172.479" fill="none" connectorname="GND" height="21.2599" id="connector107pin" stroke-width="0"/>
  <rect  width="2.4" x="74.4091" y="193.738" fill="none" height="0" id="connector107terminal" stroke-width="0"/>
 </g>
</svg>
