<?xml version='1.0' encoding='UTF-8' standalone='no'?>
<!-- Created with Fritzing (http://www.fritzing.org/) -->
<svg xmlns="http://www.w3.org/2000/svg" width="2.98609in" x="0in" version="1.2" y="0in" height="2.39554in" viewBox="0 0 214.998 172.479" baseProfile="tiny">
 <desc >Fritzing schematic generated by brd2svg</desc>
 <g  id="schematic" stroke-width="0">
  <rect  width="170.078" x="22.4598" y="22.4598" fill="none" height="127.559" stroke="#000000" stroke-linejoin="round" stroke-linecap="round" stroke-width="2.4"/>
  <text  x="107.499" y="64.9795" font-family="DroidSans" fill="#000000" text-anchor="middle" stroke="none" id="label" stroke-width="0" font-size="18">MP3</text>
  <text  x="107.499" y="86.2394" font-family="DroidSans" fill="#000000" text-anchor="middle" stroke="none" id="label" stroke-width="0" font-size="18">Trigger</text>
  <line  fill="none" stroke="#000000" stroke-linejoin="round" stroke-linecap="round" y1="64.9795" stroke-width="2.4" x1="1.2" y2="64.9795" x2="21.2599"/>
  <rect  width="21.2599" x="0" y="63.7795" fill="none" height="2.4" id="connector56pin" stroke-width="0" connectorName="TRIG18"/>
  <rect  width="2.4" x="0" y="63.7795" fill="none" height="2.4" id="connector56terminal" stroke-width="0"/>
  <text  x="27.7399" y="67.3795" font-family="DroidSans" fill="#000000" text-anchor="start" stroke="none" id="label56" stroke-width="0" font-size="9.936">TRIG18</text>
  <line  fill="none" stroke="#000000" stroke-linejoin="round" stroke-linecap="round" y1="86.2394" stroke-width="2.4" x1="1.2" y2="86.2394" x2="21.2599"/>
  <rect  width="21.2599" x="0" y="85.0392" fill="none" height="2.4" id="connector57pin" stroke-width="0" connectorName="TRIG17"/>
  <rect  width="2.4" x="0" y="85.0392" fill="none" height="2.4" id="connector57terminal" stroke-width="0"/>
  <text  x="27.7399" y="88.6392" font-family="DroidSans" fill="#000000" text-anchor="start" stroke="none" id="label57" stroke-width="0" font-size="9.936">TRIG17</text>
  <line  fill="none" stroke="#000000" stroke-linejoin="round" stroke-linecap="round" y1="64.9795" stroke-width="2.4" x1="192.539" y2="64.9795" x2="213.798"/>
  <rect  width="21.2599" x="193.738" y="63.7795" fill="none" connectorname="XRES" height="2.4" id="connector55pin" stroke-width="0"/>
  <rect  width="2.4" x="212.599" y="63.7795" fill="none" height="2.4" id="connector55terminal" stroke-width="0"/>
  <text  x="187.258" y="67.3795" font-family="DroidSans" fill="#000000" text-anchor="end" stroke="none" id="label55" stroke-width="0" font-size="9.936">XRES</text>
  <line  fill="none" stroke="#000000" stroke-linejoin="round" stroke-linecap="round" y1="86.2394" stroke-width="2.4" x1="192.539" y2="86.2394" x2="213.798"/>
  <rect  width="21.2599" x="193.738" y="85.0392" fill="none" connectorname="USBVCC" height="2.4" id="connector46pin" stroke-width="0"/>
  <rect  width="2.4" x="212.599" y="85.0392" fill="none" height="2.4" id="connector46terminal" stroke-width="0"/>
  <text  x="187.258" y="88.6392" font-family="DroidSans" fill="#000000" text-anchor="end" stroke="none" id="label46" stroke-width="0" font-size="9.936">USBVCC</text>
  <line  fill="none" stroke="#000000" stroke-linejoin="round" stroke-linecap="round" y1="107.499" stroke-width="2.4" x1="192.539" y2="107.499" x2="213.798"/>
  <rect  width="21.2599" x="193.738" y="106.299" fill="none" connectorname="TX" height="2.4" id="connector44pin" stroke-width="0"/>
  <rect  width="2.4" x="212.599" y="106.299" fill="none" height="2.4" id="connector44terminal" stroke-width="0"/>
  <text  x="187.258" y="109.899" font-family="DroidSans" fill="#000000" text-anchor="end" stroke="none" id="label44" stroke-width="0" font-size="9.936">TX</text>
  <line  fill="none" stroke="#000000" stroke-linejoin="round" stroke-linecap="round" y1="1.2" stroke-width="2.4" x1="107.499" y2="21.2599" x2="107.499"/>
  <rect  width="2.4" x="106.299" y="0" fill="none" connectorname="VBUS" height="21.2599" id="connector53pin" stroke-width="0"/>
  <rect  width="2.4" x="106.299" y="0" fill="none" height="0" id="connector53terminal" stroke-width="0"/>
  <text  x="107.499" y="33.8599" font-family="DroidSans" fill="#000000" text-anchor="middle" stroke="none" id="label53" stroke-width="0" font-size="9.936">VBUS</text>
  <line  fill="none" stroke="#000000" stroke-linejoin="round" stroke-linecap="round" y1="151.219" stroke-width="2.4" x1="107.499" y2="171.279" x2="107.499"/>
  <rect  width="2.4" x="106.299" y="151.219" fill="none" connectorname="GND" height="21.2599" id="connector48pin" stroke-width="0"/>
  <rect  width="2.4" x="106.299" y="172.479" fill="none" height="0" id="connector48terminal" stroke-width="0"/>
  <text  x="107.499" y="145.459" font-family="DroidSans" fill="#000000" text-anchor="middle" stroke="none" id="label48" stroke-width="0" font-size="9.936">GND</text>
  <rect  width="2.4" x="106.299" y="151.219" fill="none" connectorname="GND" height="21.2599" id="connector54pin" stroke-width="0"/>
  <rect  width="2.4" x="106.299" y="172.479" fill="none" height="0" id="connector54terminal" stroke-width="0"/>
  <rect  width="2.4" x="106.299" y="151.219" fill="none" connectorname="GND" height="21.2599" id="connector265pin" stroke-width="0"/>
  <rect  width="2.4" x="106.299" y="172.479" fill="none" height="0" id="connector265terminal" stroke-width="0"/>
  <rect  width="2.4" x="106.299" y="151.219" fill="none" connectorname="GND" height="21.2599" id="connector266pin" stroke-width="0"/>
  <rect  width="2.4" x="106.299" y="172.479" fill="none" height="0" id="connector266terminal" stroke-width="0"/>
  <rect  width="2.4" x="106.299" y="151.219" fill="none" connectorname="GND" height="21.2599" id="connector267pin" stroke-width="0"/>
  <rect  width="2.4" x="106.299" y="172.479" fill="none" height="0" id="connector267terminal" stroke-width="0"/>
  <rect  width="2.4" x="106.299" y="151.219" fill="none" connectorname="GND" height="21.2599" id="connector268pin" stroke-width="0"/>
  <rect  width="2.4" x="106.299" y="172.479" fill="none" height="0" id="connector268terminal" stroke-width="0"/>
  <rect  width="2.4" x="106.299" y="151.219" fill="none" connectorname="GND" height="21.2599" id="connector269pin" stroke-width="0"/>
  <rect  width="2.4" x="106.299" y="172.479" fill="none" height="0" id="connector269terminal" stroke-width="0"/>
  <rect  width="2.4" x="106.299" y="151.219" fill="none" connectorname="GND" height="21.2599" id="connector270pin" stroke-width="0"/>
  <rect  width="2.4" x="106.299" y="172.479" fill="none" height="0" id="connector270terminal" stroke-width="0"/>
  <rect  width="2.4" x="106.299" y="151.219" fill="none" connectorname="GND" height="21.2599" id="connector271pin" stroke-width="0"/>
  <rect  width="2.4" x="106.299" y="172.479" fill="none" height="0" id="connector271terminal" stroke-width="0"/>
  <rect  width="2.4" x="106.299" y="151.219" fill="none" connectorname="GND" height="21.2599" id="connector272pin" stroke-width="0"/>
  <rect  width="2.4" x="106.299" y="172.479" fill="none" height="0" id="connector272terminal" stroke-width="0"/>
  <rect  width="2.4" x="106.299" y="151.219" fill="none" connectorname="GND" height="21.2599" id="connector273pin" stroke-width="0"/>
  <rect  width="2.4" x="106.299" y="172.479" fill="none" height="0" id="connector273terminal" stroke-width="0"/>
  <rect  width="2.4" x="106.299" y="151.219" fill="none" connectorname="GND" height="21.2599" id="connector274pin" stroke-width="0"/>
  <rect  width="2.4" x="106.299" y="172.479" fill="none" height="0" id="connector274terminal" stroke-width="0"/>
  <rect  width="2.4" x="106.299" y="151.219" fill="none" connectorname="GND" height="21.2599" id="connector275pin" stroke-width="0"/>
  <rect  width="2.4" x="106.299" y="172.479" fill="none" height="0" id="connector275terminal" stroke-width="0"/>
  <rect  width="2.4" x="106.299" y="151.219" fill="none" connectorname="GND" height="21.2599" id="connector276pin" stroke-width="0"/>
  <rect  width="2.4" x="106.299" y="172.479" fill="none" height="0" id="connector276terminal" stroke-width="0"/>
  <rect  width="2.4" x="106.299" y="151.219" fill="none" connectorname="GND" height="21.2599" id="connector277pin" stroke-width="0"/>
  <rect  width="2.4" x="106.299" y="172.479" fill="none" height="0" id="connector277terminal" stroke-width="0"/>
  <rect  width="2.4" x="106.299" y="151.219" fill="none" connectorname="GND" height="21.2599" id="connector278pin" stroke-width="0"/>
  <rect  width="2.4" x="106.299" y="172.479" fill="none" height="0" id="connector278terminal" stroke-width="0"/>
  <rect  width="2.4" x="106.299" y="151.219" fill="none" connectorname="GND" height="21.2599" id="connector279pin" stroke-width="0"/>
  <rect  width="2.4" x="106.299" y="172.479" fill="none" height="0" id="connector279terminal" stroke-width="0"/>
  <rect  width="2.4" x="106.299" y="151.219" fill="none" connectorname="GND" height="21.2599" id="connector280pin" stroke-width="0"/>
  <rect  width="2.4" x="106.299" y="172.479" fill="none" height="0" id="connector280terminal" stroke-width="0"/>
  <rect  width="2.4" x="106.299" y="151.219" fill="none" connectorname="GND" height="21.2599" id="connector281pin" stroke-width="0"/>
  <rect  width="2.4" x="106.299" y="172.479" fill="none" height="0" id="connector281terminal" stroke-width="0"/>
  <rect  width="2.4" x="106.299" y="151.219" fill="none" connectorname="GND" height="21.2599" id="connector282pin" stroke-width="0"/>
  <rect  width="2.4" x="106.299" y="172.479" fill="none" height="0" id="connector282terminal" stroke-width="0"/>
 </g>
</svg>
