<?xml version="1.0" encoding="UTF-8" standalone="no"?>
<svg
   xmlns:svg="http://www.w3.org/2000/svg"
   xmlns="http://www.w3.org/2000/svg"
   version="1.0"
   width="69.321533"
   height="180.957275"
   id="svg2">
  <g id="schematic">
    <path
       style="font-size:144px;font-style:normal;font-weight:bold;line-height:125%;fill:#000000;fill-opacity:1;stroke:none;stroke-width:1px;stroke-linecap:butt;stroke-linejoin:miter;stroke-opacity:1;font-family:Bitstream Vera Sans;-inkscape-font-specification:Sans Bold"
       id="questionmark"
       d="M 43.74983,31.74978 C 43.93298,31.70908 44.1263,31.71926 44.32982,31.78031 C 44.85892,31.92276 45.20487,32.26872 45.36768,32.81818 C 45.38802,32.89958 45.3982,33.02168 45.39821,33.18448 C 45.3982,33.34728 45.38802,33.46939 45.36768,33.55079 C 45.20487,34.10025 44.84874,34.45638 44.29929,34.61918 C 44.21788,34.63954 44.09578,34.64971 43.93298,34.64971 C 43.79052,34.64971 43.6786,34.63954 43.5972,34.61918 C 43.21054,34.49708 42.92563,34.29358 42.74249,34.00868 C 42.57968,33.76447 42.49828,33.48974 42.49829,33.18448 C 42.49828,32.98098 42.53898,32.78766 42.62039,32.6045 C 42.82388,32.1161 43.20036,31.83119 43.74983,31.74978 M 45.86614,7.28597 C 46.25279,7.22494 46.59874,7.29617 46.90401,7.49965 C 46.96505,7.54037 51.0099,10.98588 51.99172,11.89124 C 53.15733,12.96514 53.91852,13.47505 53.97588,13.65826 L 54.03693,14.01286 L 54.03693,15.52378 L 54.03693,16.989 L 53.97588,17.14163 C 53.91481,17.3248 53.73186,17.36072 53.60978,17.5235 C 53.54871,17.60492 52.33746,18.58734 49.51916,21.2931 L 45.39821,24.80353 L 45.39821,25.74982 C 45.3982,26.46209 45.36767,28.60566 45.30663,28.78881 C 45.24557,28.95162 45.14382,29.11442 45.00138,29.27722 C 44.77752,29.52143 44.50279,29.66388 44.17719,29.70457 C 43.79052,29.78598 43.43439,29.71475 43.1088,29.4909 C 42.78318,29.2467 42.57968,28.93127 42.49829,28.5446 C 42.47793,28.44286 42.46775,26.24841 42.46776,25.35299 C 42.4881,24.45759 42.49828,23.959 42.49829,23.85724 C 42.55933,23.57234 42.70178,23.31796 42.92564,23.0941 C 43.02739,22.99236 44.42138,21.80186 47.10764,19.52262 L 51.10648,16.07324 L 51.10648,15.52378 L 51.10648,14.97432 L 50.7707,14.66906 L 46.47665,10.97956 L 46.11035,10.64378 L 42.2336,13.94054 C 39.6491,16.15874 40.57401,15.3501 40.51296,15.39079 C 40.06525,15.6757 39.58701,15.69606 39.07826,15.45184 C 38.54915,15.1873 38.28459,14.75994 38.2846,14.16977 C 38.28459,13.74242 38.43722,13.3863 38.74248,13.10138 C 38.78317,13.06069 37.96003,13.77775 40.76838,11.37639 C 43.59707,8.95472 45.07247,7.693 45.19458,7.59123 C 45.39807,7.42845 45.62193,7.3267 45.86614,7.28597" transform="translate(0,70.4786375)" />
      <line
         x1="23.25"
         y1="19.401056"
         x2="1.0000005"
         y2="19.401056"
         id="connector0pin"
         style="fill:none;stroke:#000000;stroke-width:2;stroke-linecap:round;stroke-linejoin:round" />
      <rect
         width="1"
         height="2"
         x="4.1992186e-07"
         y="18.244013"
         id="connector0terminal"
         style="fill:none" />
      <line
         x1="23.25"
         y1="39.401056"
         x2="1.0000005"
         y2="39.401056"
         id="connector1pin"
         style="fill:none;stroke:#000000;stroke-width:2;stroke-linecap:round;stroke-linejoin:round" />
      <rect
         width="1"
         height="2"
         x="4.1992186e-07"
         y="38.244013"
         id="connector1terminal"
         style="fill:none" />
      <line
         x1="23.25"
         y1="59.401056"
         x2="1.0000005"
         y2="59.401056"
         id="connector2pin"
         style="fill:none;stroke:#000000;stroke-width:2;stroke-linecap:round;stroke-linejoin:round" />
      <rect
         width="1"
         height="2"
         x="4.1992186e-07"
         y="58.244013"
         id="connector2terminal"
         style="fill:none" />
      <line
         x1="23.25"
         y1="79.401056"
         x2="1.0000005"
         y2="79.401056"
         id="connector3pin"
         style="fill:none;stroke:#000000;stroke-width:2;stroke-linecap:round;stroke-linejoin:round" />
      <rect
         width="1"
         height="2"
         x="4.1992186e-07"
         y="78.244013"
         id="connector3terminal"
         style="fill:none" />
      <line
         x1="23.25"
         y1="99.401056"
         x2="1.0000005"
         y2="99.401056"
         id="connector4pin"
         style="fill:none;stroke:#000000;stroke-width:2;stroke-linecap:round;stroke-linejoin:round" />
      <rect
         width="1"
         height="2"
         x="4.1992186e-07"
         y="98.244013"
         id="connector4terminal"
         style="fill:none" />
      <line
         x1="23.25"
         y1="119.401056"
         x2="1.0000005"
         y2="119.401056"
         id="connector5pin"
         style="fill:none;stroke:#000000;stroke-width:2;stroke-linecap:round;stroke-linejoin:round" />
      <rect
         width="1"
         height="2"
         x="4.1992186e-07"
         y="118.244013"
         id="connector5terminal"
         style="fill:none" />
      <line
         x1="23.25"
         y1="139.401056"
         x2="1.0000005"
         y2="139.401056"
         id="connector6pin"
         style="fill:none;stroke:#000000;stroke-width:2;stroke-linecap:round;stroke-linejoin:round" />
      <rect
         width="1"
         height="2"
         x="4.1992186e-07"
         y="138.244013"
         id="connector6terminal"
         style="fill:none" />
      <line
         x1="23.25"
         y1="159.401056"
         x2="1.0000005"
         y2="159.401056"
         id="connector7pin"
         style="fill:none;stroke:#000000;stroke-width:2;stroke-linecap:round;stroke-linejoin:round" />
      <rect
         width="1"
         height="2"
         x="4.1992186e-07"
         y="158.244013"
         id="connector7terminal"
         style="fill:none" />

      <rect
       style="fill:none;stroke:#000000;stroke-width:2;stroke-linecap:round;stroke-linejoin:round;stroke-miterlimit:4;stroke-dasharray:none"
       id="box"
       y="0.99999511"
       x="24.06868"
       height="178.957275"
       width="43.957275" />
  </g>
</svg>
