<?xml version="1.0" encoding="UTF-8" standalone="no"?>
<svg
   xmlns:dc="http://purl.org/dc/elements/1.1/"
   xmlns:cc="http://creativecommons.org/ns#"
   xmlns:rdf="http://www.w3.org/1999/02/22-rdf-syntax-ns#"
   xmlns:svg="http://www.w3.org/2000/svg"
   xmlns="http://www.w3.org/2000/svg"
   xmlns:sodipodi="http://sodipodi.sourceforge.net/DTD/sodipodi-0.dtd"
   xmlns:inkscape="http://www.inkscape.org/namespaces/inkscape"
   version="1.0"
   width="69.321533"
   height="80.957275"
   id="svg2"
   sodipodi:version="0.32"
   inkscape:version="0.46"
   sodipodi:docname="mystery_part3.svg"
   inkscape:output_extension="org.inkscape.output.svg.inkscape">
  <metadata
     id="metadata15">
    <rdf:RDF>
      <cc:Work
         rdf:about="">
        <dc:format>image/svg+xml</dc:format>
        <dc:type
           rdf:resource="http://purl.org/dc/dcmitype/StillImage" />
      </cc:Work>
    </rdf:RDF>
  </metadata>
  <sodipodi:namedview
     inkscape:window-height="726"
     inkscape:window-width="645"
     inkscape:pageshadow="2"
     inkscape:pageopacity="0.0"
     guidetolerance="10.0"
     gridtolerance="10.0"
     objecttolerance="10.0"
     borderopacity="1.0"
     bordercolor="#666666"
     pagecolor="#ffffff"
     id="base"
     showgrid="false"
     inkscape:zoom="6.101984"
     inkscape:cx="34.660767"
     inkscape:cy="40.478638"
     inkscape:window-x="140"
     inkscape:window-y="60"
     inkscape:current-layer="svg2" />
  <defs
     id="defs4">
    <inkscape:perspective
       sodipodi:type="inkscape:persp3d"
       inkscape:vp_x="0 : 40.478638 : 1"
       inkscape:vp_y="0 : 1000 : 0"
       inkscape:vp_z="69.321533 : 40.478638 : 1"
       inkscape:persp3d-origin="34.660767 : 26.985758 : 1"
       id="perspective17" />
  </defs>
  <g
     id="schematic">
    <path
       style="font-size:144px;font-style:normal;font-weight:bold;line-height:125%;fill:#000000;fill-opacity:1;stroke:none;stroke-width:1px;stroke-linecap:butt;stroke-linejoin:miter;stroke-opacity:1;font-family:Bitstream Vera Sans;-inkscape-font-specification:Sans Bold"
       id="questionmark"
       d="M 43.74983,51.74978 C 43.93298,51.70908 44.1263,51.71926 44.32982,51.78031 C 44.85892,51.92276 45.20487,52.26872 45.36768,52.81818 C 45.38802,52.89958 45.3982,53.02168 45.39821,53.18448 C 45.3982,53.34728 45.38802,53.46939 45.36768,53.55079 C 45.20487,54.10025 44.84874,54.45638 44.29929,54.61918 C 44.21788,54.63954 44.09578,54.64971 43.93298,54.64971 C 43.79052,54.64971 43.6786,54.63954 43.5972,54.61918 C 43.21054,54.49708 42.92563,54.29358 42.74249,54.00868 C 42.57968,53.76447 42.49828,53.48974 42.49829,53.18448 C 42.49828,52.98098 42.53898,52.78766 42.62039,52.6045 C 42.82388,52.1161 43.20036,51.83119 43.74983,51.74978 M 45.86614,27.28597 C 46.25279,27.22494 46.59874,27.29617 46.90401,27.49965 C 46.96505,27.54037 51.0099,30.98588 51.99172,31.89124 C 53.15733,32.96514 53.91852,33.47505 53.97588,33.65826 L 54.03693,34.01286 L 54.03693,35.52378 L 54.03693,36.989 L 53.97588,37.14163 C 53.91481,37.3248 53.73186,37.36072 53.60978,37.5235 C 53.54871,37.60492 52.33746,38.58734 49.51916,41.2931 L 45.39821,44.80353 L 45.39821,45.74982 C 45.3982,46.46209 45.36767,48.60566 45.30663,48.78881 C 45.24557,48.95162 45.14382,49.11442 45.00138,49.27722 C 44.77752,49.52143 44.50279,49.66388 44.17719,49.70457 C 43.79052,49.78598 43.43439,49.71475 43.1088,49.4909 C 42.78318,49.2467 42.57968,48.93127 42.49829,48.5446 C 42.47793,48.44286 42.46775,46.24841 42.46776,45.35299 C 42.4881,44.45759 42.49828,43.959 42.49829,43.85724 C 42.55933,43.57234 42.70178,43.31796 42.92564,43.0941 C 43.02739,42.99236 44.42138,41.80186 47.10764,39.52262 L 51.10648,36.07324 L 51.10648,35.52378 L 51.10648,34.97432 L 50.7707,34.66906 L 46.47665,30.97956 L 46.11035,30.64378 L 42.2336,33.94054 C 39.6491,36.15874 40.57401,35.3501 40.51296,35.39079 C 40.06525,35.6757 39.58701,35.69606 39.07826,35.45184 C 38.54915,35.1873 38.28459,34.75994 38.2846,34.16977 C 38.28459,33.74242 38.43722,33.3863 38.74248,33.10138 C 38.78317,33.06069 37.96003,33.77775 40.76838,31.37639 C 43.59707,28.95472 45.07247,27.693 45.19458,27.59123 C 45.39807,27.42845 45.62193,27.3267 45.86614,27.28597" />
    <line
       style="fill:none;stroke:#000000;stroke-width:2;stroke-linecap:round;stroke-linejoin:round"
       id="connector0pin"
       y2="19.401056"
       x2="1.0000005"
       y1="19.401056"
       x1="23.25" />
    <rect
       style="fill:none"
       id="connector0terminal"
       y="18.244013"
       x="4.1992186e-07"
       height="2"
       width="1" />
    <line
       style="fill:none;stroke:#000000;stroke-width:2;stroke-linecap:round;stroke-linejoin:round"
       id="connector1pin"
       y2="39.401058"
       x2="1.0000005"
       y1="39.401058"
       x1="23.25" />
    <rect
       style="fill:none"
       id="connector1terminal"
       y="38.244015"
       x="4.1992186e-07"
       height="2"
       width="1" />
    <line
       style="fill:none;stroke:#000000;stroke-width:2;stroke-linecap:round;stroke-linejoin:round"
       id="connector2pin"
       y2="59.401058"
       x2="1.0000005"
       y1="59.401058"
       x1="23.25" />
    <rect
       style="fill:none"
       id="connector2terminal"
       y="58.244015"
       x="4.1992186e-07"
       height="2"
       width="1" />
    <rect
       style="fill:none;stroke:#000000;stroke-width:2;stroke-linecap:round;stroke-linejoin:round;stroke-miterlimit:4;stroke-dasharray:none"
       id="box"
       y="0.99999511"
       x="24.06868"
       height="78.957275"
       width="43.957275" />
  </g>
</svg>
