<?xml version="1.0" encoding="UTF-8" standalone="no"?>
<svg id="svg" xmlns:rdf="http://www.w3.org/1999/02/22-rdf-syntax-ns#" xmlns="http://www.w3.org/2000/svg" xml:space="preserve" height="3.9333in" width="2.6871in" version="1.2" y="0px" x="0px" xmlns:cc="http://creativecommons.org/ns#" xmlns:dc="http://purl.org/dc/elements/1.1/" viewBox="0 0 193.468 283.199"><rect id="connector0pin" y="21.6" width="21.6" height="2.16" fill="none"/><rect id="connector0terminal" y="21.6" width="2.16" height="2.16" fill="none"/><rect id="connector1pin" y="43.2" width="21.6" height="2.159" fill="none"/><rect id="connector1terminal" y="43.2" width="2.16" height="2.159" fill="none"/><rect id="connector2pin" y="64.8" width="21.6" height="2.16" fill="none"/><rect id="connector2terminal" y="64.8" width="2.16" height="2.16" fill="none"/><rect id="connector3pin" y="86.4" width="21.6" height="2.16" fill="none"/><rect id="connector3terminal" y="86.4" width="2.16" height="2.16" fill="none"/><rect id="connector4pin" y="108" width="21.6" height="2.16" fill="none"/><rect id="connector4terminal" y="108" width="2.16" height="2.16" fill="none"/><rect id="connector5pin" y="129.6" width="21.6" height="2.16" fill="none"/><rect id="connector5terminal" y="129.6" width="2.16" height="2.16" fill="none"/><rect id="connector6pin" y="151.2" width="21.6" height="2.159" fill="none"/><rect id="connector6terminal" y="151.2" width="2.16" height="2.159" fill="none"/><rect id="connector7pin" y="172.8" width="21.6" height="2.16" fill="none"/><rect id="connector7terminal" y="172.8" width="2.16" height="2.16" fill="none"/><rect id="connector8pin" y="194.4" width="21.6" height="2.16" fill="none"/><rect id="connector8terminal" y="194.4" width="2.16" height="2.16" fill="none"/><rect id="connector9pin" y="216" width="21.6" height="2.16" fill="none"/><rect id="connector9terminal" y="216" width="2.16" height="2.16" fill="none"/><rect id="connector10pin" y="237.6" width="21.6" height="2.16" fill="none"/><rect id="connector10terminal" y="237.6" width="2.16" height="2.16" fill="none"/><rect id="connector11pin" y="259.2" width="21.6" height="2.159" fill="none"/><rect id="connector11terminal" y="259.2" width="2.16" height="2.159" fill="none"/><rect id="connector12pin" height="2.159" width="21.6" y="259.2" x="169.59" fill="none"/><rect id="connector12terminal" height="2.159" width="2.16" y="259.2" x="191.19" fill="none"/><rect id="connector13pin" height="2.16" width="21.6" y="237.6" x="169.59" fill="none"/><rect id="connector13terminal" height="2.16" width="2.16" y="237.6" x="191.19" fill="none"/><rect id="connector14pin" height="2.16" width="21.6" y="216" x="169.59" fill="none"/><rect id="connector14terminal" height="2.16" width="2.16" y="216" x="191.19" fill="none"/><rect id="connector15pin" height="2.16" width="21.6" y="194.4" x="169.59" fill="none"/><rect id="connector15terminal" height="2.16" width="2.16" y="194.4" x="191.19" fill="none"/><rect id="connector16pin" height="2.16" width="21.6" y="172.8" x="169.59" fill="none"/><rect id="connector16terminal" height="2.16" width="2.16" y="172.8" x="191.19" fill="none"/><rect id="connector17pin" height="2.159" width="21.6" y="151.2" x="169.59" fill="none"/><rect id="connector17terminal" height="2.159" width="2.16" y="151.2" x="191.19" fill="none"/><rect id="connector18pin" height="2.16" width="21.6" y="129.6" x="169.59" fill="none"/><rect id="connector18terminal" height="2.16" width="2.16" y="129.6" x="191.19" fill="none"/><rect id="connector19pin" height="2.16" width="21.6" y="108" x="169.59" fill="none"/><rect id="connector19terminal" height="2.16" width="2.16" y="108" x="191.19" fill="none"/><rect id="connector20pin" height="2.16" width="21.6" y="86.4" x="169.59" fill="none"/><rect id="connector20terminal" height="2.16" width="2.16" y="86.4" x="191.19" fill="none"/><rect id="connector21pin" height="2.16" width="21.6" y="64.8" x="169.59" fill="none"/><rect id="connector21terminal" height="2.16" width="2.16" y="64.8" x="191.19" fill="none"/><rect id="connector22pin" height="2.159" width="21.6" y="43.2" x="169.59" fill="none"/><rect id="connector22terminal" height="2.159" width="2.16" y="43.2" x="191.19" fill="none"/><rect id="connector23pin" height="2.16" width="21.6" y="21.6" x="169.59" fill="none"/><rect id="connector23terminal" height="2.16" width="2.16" y="21.6" x="191.19" fill="none"/>
<g id="schematic">
<rect id="rect0" stroke-linejoin="round" height="280.8" width="146.91" stroke="#000" stroke-linecap="round" y="1.08" x="22.68" stroke-width="2.4" fill="none"/>
<line id="line1" stroke-linejoin="round" x1="1.08" fill="none" y1="22.68" stroke="#000" stroke-linecap="round" x2="21.6" y2="22.68" stroke-width="2.4"/><line id="line2" stroke-linejoin="round" x1="1.08" fill="none" y1="44.28" stroke="#000" stroke-linecap="round" x2="21.6" y2="44.28" stroke-width="2.4"/><line id="line3" stroke-linejoin="round" x1="1.08" fill="none" y1="65.88" stroke="#000" stroke-linecap="round" x2="21.6" y2="65.88" stroke-width="2.4"/><line id="line4" stroke-linejoin="round" x1="1.08" fill="none" y1="87.48" stroke="#000" stroke-linecap="round" x2="21.6" y2="87.48" stroke-width="2.4"/><line id="line5" stroke-linejoin="round" x1="1.08" fill="none" y1="109.08" stroke="#000" stroke-linecap="round" x2="21.6" y2="109.08" stroke-width="2.4"/><line id="line6" stroke-linejoin="round" x1="1.08" fill="none" y1="130.68" stroke="#000" stroke-linecap="round" x2="21.6" y2="130.68" stroke-width="2.4"/><line id="line7" stroke-linejoin="round" x1="1.08" fill="none" y1="152.28" stroke="#000" stroke-linecap="round" x2="21.6" y2="152.28" stroke-width="2.4"/><line id="line8" stroke-linejoin="round" x1="1.08" fill="none" y1="173.88" stroke="#000" stroke-linecap="round" x2="21.6" y2="173.88" stroke-width="2.4"/><line id="line9" stroke-linejoin="round" x1="1.08" fill="none" y1="195.48" stroke="#000" stroke-linecap="round" x2="21.6" y2="195.48" stroke-width="2.4"/><line id="line10" stroke-linejoin="round" x1="1.08" fill="none" y1="217.08" stroke="#000" stroke-linecap="round" x2="21.6" y2="217.08" stroke-width="2.4"/><line id="line11" stroke-linejoin="round" x1="1.08" fill="none" y1="238.68" stroke="#000" stroke-linecap="round" x2="21.6" y2="238.68" stroke-width="2.4"/><line id="line12" stroke-linejoin="round" x1="1.08" fill="none" y1="260.28" stroke="#000" stroke-linecap="round" x2="21.6" y2="260.28" stroke-width="2.4"/><line id="line13" stroke-linejoin="round" y2="260.28" fill="none" y1="260.28" stroke="#000" stroke-linecap="round" x2="191.19" x1="169.59" stroke-width="2.4"/><line id="line14" stroke-linejoin="round" y2="238.68" fill="none" y1="238.68" stroke="#000" stroke-linecap="round" x2="191.19" x1="169.59" stroke-width="2.4"/><line id="line15" stroke-linejoin="round" y2="217.08" fill="none" y1="217.08" stroke="#000" stroke-linecap="round" x2="191.19" x1="169.59" stroke-width="2.4"/><line id="line16" stroke-linejoin="round" y2="195.48" fill="none" y1="195.48" stroke="#000" stroke-linecap="round" x2="191.19" x1="169.59" stroke-width="2.4"/><line id="line17" stroke-linejoin="round" y2="173.88" fill="none" y1="173.88" stroke="#000" stroke-linecap="round" x2="191.19" x1="169.59" stroke-width="2.4"/><line id="line18" stroke-linejoin="round" y2="152.28" fill="none" y1="152.28" stroke="#000" stroke-linecap="round" x2="191.19" x1="169.59" stroke-width="2.4"/><line id="line19" stroke-linejoin="round" y2="130.68" fill="none" y1="130.68" stroke="#000" stroke-linecap="round" x2="191.19" x1="169.59" stroke-width="2.4"/><line id="line20" stroke-linejoin="round" y2="109.08" fill="none" y1="109.08" stroke="#000" stroke-linecap="round" x2="191.19" x1="169.59" stroke-width="2.4"/><line id="line21" stroke-linejoin="round" y2="87.48" fill="none" y1="87.48" stroke="#000" stroke-linecap="round" x2="191.19" x1="169.59" stroke-width="2.4"/><line id="line22" stroke-linejoin="round" y2="65.88" fill="none" y1="65.88" stroke="#000" stroke-linecap="round" x2="191.19" x1="169.59" stroke-width="2.4"/><line id="line23" stroke-linejoin="round" y2="44.28" fill="none" y1="44.28" stroke="#000" stroke-linecap="round" x2="191.19" x1="169.59" stroke-width="2.4"/><line id="line24" stroke-linejoin="round" y2="22.68" fill="none" y1="22.68" stroke="#000" stroke-linecap="round" x2="191.19" x1="169.59" stroke-width="2.4"/><text id="label1-3" transform="matrix(0,-1,1,0,0,0)" font-size="14.39999771px" y="40.476498" x="-68.942375" font-family="DroidSans">RS-232</text>
<text id="label4" font-size="9.35999966px" y="90.000198" x="27.848143" font-family="DroidSans">GND</text>
<text id="label5" font-size="9.35999966px" y="111.5999" x="29.557831" font-family="DroidSans">5</text>
<text id="label6" font-size="9.35999966px" y="133.20039" x="29.594393" font-family="DroidSans">6</text>
<text id="label7" font-size="9.35999966px" y="154.8" x="29.502987" font-family="DroidSans">7</text>
<text id="label8" font-size="9.35999966px" y="176.4006" x="29.566971" font-family="DroidSans">8</text>
<text id="label9" font-size="9.35999966px" y="198.0002" x="29.557831" font-family="DroidSans">9</text>
<text id="label10" font-size="9.35999966px" y="219.5999" x="27.327127" font-family="DroidSans">10</text>
<text id="label11" font-size="9.35999966px" y="241.19949" x="27.327127" font-family="DroidSans">11</text>
<text id="label12" font-size="9.35999966px" y="262.79999" x="27.327127" font-family="DroidSans">12</text>
<text id="label13" style="text-anchor:start;text-align:start;" font-size="9.35999966px" y="262.79999" x="151.68614" font-family="DroidSans">13</text>
<text id="label14" style="text-anchor:start;text-align:start;" font-size="9.35999966px" y="241.19949" x="151.68614" font-family="DroidSans">14</text>
<text id="label15" style="text-anchor:start;text-align:start;" font-size="9.35999966px" y="219.5999" x="151.68614" font-family="DroidSans">15</text>
<text id="label16" style="text-anchor:start;text-align:start;" font-size="9.35999966px" y="198.0002" x="151.68614" font-family="DroidSans">16</text>
<text id="label17" font-size="9.35999966px" y="176.4006" x="151.68614" font-family="DroidSans">17</text>
<text id="label18" font-size="9.35999966px" y="154.8" x="151.68614" font-family="DroidSans">18</text>
<text id="label19" font-size="9.35999966px" y="133.20039" x="151.68614" font-family="DroidSans">19</text>
<text id="label20" font-size="9.35999966px" y="111.5999" x="152.43111" font-family="DroidSans">20</text>
<text id="label21" font-size="9.35999966px" y="90.000198" x="152.31685" font-family="DroidSans">5V</text>
<g id="label22"><text id="text116" font-size="9.35999966px" y="68.400597" x="146.07719" font-family="DroidSans">RST</text>
<line id="line118" stroke-linejoin="round" x1="146.77" fill="none" y1="59.812" stroke="#000" stroke-linecap="round" x2="164.1" y2="59.812" stroke-width="0.80506"/></g><text id="label23" font-size="9.35999966px" y="46.799999" x="144.76439" font-family="DroidSans">GND</text>
<text id="label24" font-size="9.35999966px" y="26.000011" x="147.9644" font-family="DroidSans">VIN</text>
<g id="g1"><text id="1" style="writing-mode:lr-tb;text-anchor:start;text-align:start;" font-size="6.9921999px" line-height="125%" y="19.821253" x="6.9906197" font-family="DroidSans"><tspan id="tspan4100-6" y="19.821253" x="6.9906197">TX1</tspan></text>
<polygon id="ar1" points="206.34,311.2,211.05,313.92,206.34,316.63" transform="matrix(-1,0,0,1,211.68198,-296.2767)"/></g><g id="g2"><text id="2" style="writing-mode:lr-tb;text-anchor:start;text-align:start;" font-size="6.9921999px" line-height="125%" y="41.566097" x="6.9903312" font-family="DroidSans"><tspan id="tspan4104-1" y="41.566097" x="6.9903312">RX1</tspan></text>
<polygon id="ar2" points="211.05,337.24,206.34,334.52,211.05,331.81" transform="matrix(-1,0,0,1,211.68198,-295.46915)"/></g><text id="3" style="writing-mode:lr-tb;text-anchor:start;text-align:start;" font-size="6.9921999px" line-height="125%" y="63.481335" x="4.5514402" font-family="DroidSans"><tspan id="tspan3925" y="63.481335" x="4.5514402">DTR</tspan></text>
<text id="5" font-size="6.9921999px" y="106.19151" x="5.1018295" font-family="DroidSans">AD0</text>
<text id="6" font-size="6.9921999px" y="127.68006" x="5.1018295" font-family="DroidSans">AD1</text>
<text id="7" font-size="6.9921999px" y="149.3918" x="5.1018295" font-family="DroidSans">AD2</text>
<text id="8" font-size="6.9921999px" y="170.88031" x="5.1018295" font-family="DroidSans">AD3</text>
<text id="9" font-size="6.9921999px" style="writing-mode:lr-tb;text-anchor:start;text-align:start;" y="192.27156" x="2.9584367" font-family="DroidSans" line-height="125%"><tspan id="tspan4096-7-6" y="192.27156" x="2.9584367">TWD</tspan></text>
<text id="10" font-size="6.9921999px" style="writing-mode:lr-tb;text-anchor:start;text-align:start;" y="214.26805" x="-0.2415387" font-family="DroidSans" line-height="125%"><tspan id="tspan4092-0-3" y="214.26805" x="-0.2415387">TWCK</tspan></text>
<g id="g11"><text id="11" style="writing-mode:lr-tb;text-anchor:start;text-align:start;" font-size="6.9921999px" line-height="125%" y="236.02776" x="6.9904294" font-family="DroidSans"><tspan id="tspan4096-6" y="236.02776" x="6.9904294">TX0</tspan></text>
<polygon id="ar11" points="211.05,313.92,206.34,316.63,206.34,311.2" transform="matrix(-1,0,0,1,211.68259,-80.070497)"/></g><g id="g12"><text id="12" style="writing-mode:lr-tb;text-anchor:start;text-align:start;" font-size="6.9921999px" line-height="125%" y="258.02423" x="6.9904294" font-family="DroidSans"><tspan id="tspan4092-8" y="258.02423" x="6.9904294">RX0</tspan></text>
<polygon id="ar12" points="211.05,337.24,206.34,334.52,211.05,331.81" transform="matrix(-1,0,0,1,211.68259,-78.470497)"/></g><text id="13" font-size="6.9921999px" y="257.50485" x="171.69189" font-family="DroidSans">CS0</text>
<text id="14" font-size="6.9921999px" y="236.24825" x="171.52119" font-family="DroidSans">MOSI</text>
<text id="15" font-size="6.9921999px" y="214.30449" x="171.52119" font-family="DroidSans">MISO</text>
<text id="16" font-size="6.9921999px" y="192.36755" x="171.72604" font-family="DroidSans">SPCK</text>
<text id="17" font-size="6.9921999px" y="170.88031" x="171.50186" font-family="DroidSans">PWM0</text>
<text id="18" font-size="6.9921999px" y="149.3918" x="171.50186" font-family="DroidSans">PWM1</text>
<text id="19" font-size="6.9921999px" y="127.68006" x="171.50186" font-family="DroidSans">PWM2</text>
<text id="20" font-size="6.9921999px" y="106.19151" x="171.50186" font-family="DroidSans">PWM3</text>
<text id="label" font-size="18px" y="54.31324" x="59.733101" font-family="DroidSans">Netduino</text>
<text id="label_1_" font-size="18px" y="74.313232" x="79.556831" font-family="DroidSans">Mini</text></g></svg>
