<?xml version="1.0" encoding="UTF-8" standalone="no"?>

<!-- Created with Inkscape (http://www.inkscape.org/) -->

<svg id="Layer_3" xmlns:rdf="http://www.w3.org/1999/02/22-rdf-syntax-ns#" xmlns="http://www.w3.org/2000/svg" xml:space="preserve" height="5.63in" width="2.985in" version="1.1" xmlns:cc="http://creativecommons.org/ns#" xmlns:dc="http://purl.org/dc/elements/1.1/" viewBox="0 0 214.92 405.36"><metadata id="metadata3132"><rdf:RDF><cc:Work rdf:about=""><dc:format>image/svg+xml</dc:format><dc:type rdf:resource="http://purl.org/dc/dcmitype/StillImage"/><dc:title/></cc:Work></rdf:RDF></metadata>
<g id="schematic"><rect id="connector0pin" height="2.1" width="10.488" y="85.004" x="1.299" fill="none"/><rect id="connector1pin" height="10.488" width="2.099" y="393.9" x="106.41" fill="none"/><rect id="connector2pin" height="2.099" width="10.488" y="63.556" x="203.16" fill="none"/><rect id="connector3pin" height="2.099" width="10.488" y="84.792" x="203.17" fill="none"/><rect id="connector4pin" height="2.099" width="10.488" y="106.03" x="203.17" fill="none"/><rect id="connector5pin" height="2.098" width="10.488" y="127.27" x="203.17" fill="none"/><rect id="connector6pin" height="2.099" width="10.488" y="148.5" x="203.17" fill="none"/><rect id="connector7pin" height="2.099" width="10.488" y="169.74" x="203.17" fill="none"/><rect id="connector8pin" height="2.099" width="10.488" y="190.98" x="203.17" fill="none"/><rect id="connector9pin" height="2.1" width="10.488" y="212.21" x="203.17" fill="none"/><rect id="connector10pin" height="2.1" width="10.488" y="233.45" x="203.17" fill="none"/><rect id="connector11pin" height="2.098" width="10.488" y="254.68" x="203.17" fill="none"/><rect id="connector12pin" height="2.1" width="10.488" y="275.92" x="203.17" fill="none"/><rect id="connector13pin" height="2.098" width="10.488" y="297.16" x="203.17" fill="none"/><rect id="connector14pin" height="2.1" width="10.488" y="318.39" x="203.17" fill="none"/><rect id="connector15pin" height="2.1" width="10.488" y="339.63" x="203.17" fill="none"/><rect id="connector16pin" height="2.099" width="10.488" y="63.768" x="1.289" fill="none"/><rect id="connector17pin" height="10.488" width="2.099" y="0.975" x="63.896" fill="none"/><rect id="connector18pin" height="10.488" width="2.098" y="0.975" x="85.132" fill="none"/><rect id="connector19pin" height="10.488" width="2.097" y="393.9" x="106.41" fill="none"/><rect id="connector20pin" height="10.488" width="2.099" y="393.9" x="106.41" fill="none"/><rect id="connector21pin" height="10.488" width="2.1" y="0.975" x="148.84" fill="none"/><rect id="connector22pin" height="2.099" width="10.488" y="233.64" x="1.26" fill="none"/><rect id="connector23pin" height="2.1" width="10.488" y="254.87" x="1.26" fill="none"/><rect id="connector24pin" height="2.098" width="10.488" y="276.11" x="1.26" fill="none"/><rect id="connector25pin" height="2.098" width="10.488" y="297.34" x="1.26" fill="none"/><rect id="connector26pin" height="2.098" width="10.488" y="318.58" x="1.26" fill="none"/><rect id="connector27pin" height="2.098" width="10.488" y="339.82" x="1.26" fill="none"/><rect id="connector0terminal" height="2.1" width="1.995" y="85.004" x="1.299" fill="none"/><rect id="connector1terminal" height="1.992" width="2.099" y="402.39" x="106.41" fill="none"/><rect id="connector2terminal" height="2.099" width="1.995" y="63.556" x="211.66" fill="none"/><rect id="connector3terminal" height="2.099" width="1.994" y="84.792" x="211.67" fill="none"/><rect id="connector4terminal" height="2.099" width="1.994" y="106.03" x="211.67" fill="none"/><rect id="connector5terminal" height="2.098" width="1.994" y="127.27" x="211.67" fill="none"/><rect id="connector6terminal" height="2.099" width="1.994" y="148.5" x="211.67" fill="none"/><rect id="connector7terminal" height="2.099" width="1.994" y="169.74" x="211.67" fill="none"/><rect id="connector8terminal" height="2.099" width="1.994" y="190.98" x="211.67" fill="none"/><rect id="connector9terminal" height="2.1" width="1.994" y="212.21" x="211.67" fill="none"/><rect id="connector10terminal" height="2.1" width="1.994" y="233.45" x="211.67" fill="none"/><rect id="connector11terminal" height="2.098" width="1.994" y="254.68" x="211.67" fill="none"/><rect id="connector12terminal" height="2.1" width="1.994" y="275.92" x="211.67" fill="none"/><rect id="connector13terminal" height="2.098" width="1.994" y="297.16" x="211.67" fill="none"/><rect id="connector14terminal" height="2.1" width="1.994" y="318.39" x="211.67" fill="none"/><rect id="connector15terminal" height="2.1" width="1.994" y="339.63" x="211.67" fill="none"/><rect id="connector16terminal" height="2.099" width="1.995" y="63.768" x="1.289" fill="none"/><rect id="connector17terminal" height="1.995" width="2.099" y="0.975" x="63.896" fill="none"/><rect id="connector18terminal" height="1.995" width="2.098" y="0.975" x="85.132" fill="none"/><rect id="connector19terminal" height="1.992" width="2.097" y="402.39" x="106.41" fill="none"/><rect id="connector20terminal" height="1.992" width="2.099" y="402.39" x="106.41" fill="none"/><rect id="connector21terminal" height="1.995" width="2.1" y="0.975" x="148.84" fill="none"/><rect id="connector22terminal" height="2.099" width="1.995" y="233.64" x="1.26" fill="none"/><rect id="connector23terminal" height="2.1" width="1.995" y="254.87" x="1.26" fill="none"/><rect id="connector24terminal" height="2.098" width="1.995" y="276.11" x="1.26" fill="none"/><rect id="connector25terminal" height="2.098" width="1.995" y="297.34" x="1.26" fill="none"/><rect id="connector26terminal" height="2.098" width="1.995" y="318.58" x="1.26" fill="none"/><rect id="connector27terminal" height="2.098" width="1.995" y="339.82" x="1.26" fill="none"/><g id="g4194" transform="translate(-9.3221663e-7,-2.450943e-6)"><rect id="rect2876" stroke-linejoin="round" height="360.94" width="169.97" stroke="#000" stroke-linecap="round" y="22.211" x="22.446" stroke-width="2.415" fill="none"/><line id="line2878" stroke-linejoin="round" y2="64.65" fill="none" x2="22.527" stroke="#000" stroke-linecap="round" y1="64.65" x1="1.291" stroke-width="2.2495"/><line id="line2880" stroke-linejoin="round" y2="85.887" fill="none" x2="22.446" stroke="#000" stroke-linecap="round" y1="85.887" x1="1.299" stroke-width="2.415"/><line id="line2882" stroke-linejoin="round" y2="234.52" fill="none" x2="22.446" stroke="#000" stroke-linecap="round" y1="234.52" x1="1.26" stroke-width="2.415"/><line id="line2884" stroke-linejoin="round" y2="255.75" fill="none" x2="22.446" stroke="#000" stroke-linecap="round" y1="255.75" x1="1.26" stroke-width="2.415"/><line id="line2886" stroke-linejoin="round" y2="276.99" fill="none" x2="22.446" stroke="#000" stroke-linecap="round" y1="276.99" x1="1.26" stroke-width="2.415"/><line id="line2888" stroke-linejoin="round" y2="298.23" fill="none" x2="22.446" stroke="#000" stroke-linecap="round" y1="298.23" x1="1.26" stroke-width="2.415"/><line id="line2890" stroke-linejoin="round" y2="319.46" fill="none" x2="22.446" stroke="#000" stroke-linecap="round" y1="319.46" x1="1.26" stroke-width="2.415"/><line id="line2892" stroke-linejoin="round" y2="340.7" fill="none" x2="22.446" stroke="#000" stroke-linecap="round" y1="340.7" x1="1.26" stroke-width="2.415"/><line id="line2894" stroke-linejoin="round" y2="64.774" fill="none" x2="192.42" stroke="#000" stroke-linecap="round" y1="64.774" x1="213.65" stroke-width="1.9517"/><line id="line2896" stroke-linejoin="round" y2="86.01" fill="none" x2="192.42" stroke="#000" stroke-linecap="round" y1="86.01" x1="213.66" stroke-width="2.415"/><line id="line2898" stroke-linejoin="round" y2="107.25" fill="none" x2="192.42" stroke="#000" stroke-linecap="round" y1="107.25" x1="213.66" stroke-width="2.415"/><line id="line2900" stroke-linejoin="round" y2="128.48" fill="none" x2="192.42" stroke="#000" stroke-linecap="round" y1="128.48" x1="213.66" stroke-width="2.415"/><line id="line2902" stroke-linejoin="round" y2="149.72" fill="none" x2="192.42" stroke="#000" stroke-linecap="round" y1="149.72" x1="213.66" stroke-width="2.415"/><line id="line2904" stroke-linejoin="round" y2="170.96" fill="none" x2="192.42" stroke="#000" stroke-linecap="round" y1="170.96" x1="213.66" stroke-width="2.415"/><line id="line2906" stroke-linejoin="round" y2="192.19" fill="none" x2="192.42" stroke="#000" stroke-linecap="round" y1="192.19" x1="213.66" stroke-width="2.415"/><line id="line2908" stroke-linejoin="round" y2="213.43" fill="none" x2="192.42" stroke="#000" stroke-linecap="round" y1="213.43" x1="213.66" stroke-width="2.415"/><line id="line2910" stroke-linejoin="round" y2="234.66" fill="none" x2="192.42" stroke="#000" stroke-linecap="round" y1="234.66" x1="213.66" stroke-width="2.415"/><line id="line2912" stroke-linejoin="round" y2="255.9" fill="none" x2="192.42" stroke="#000" stroke-linecap="round" y1="255.9" x1="213.66" stroke-width="2.415"/><line id="line2914" stroke-linejoin="round" y2="277.14" fill="none" x2="192.42" stroke="#000" stroke-linecap="round" y1="277.14" x1="213.66" stroke-width="2.415"/><line id="line2916" stroke-linejoin="round" y2="298.38" fill="none" x2="192.42" stroke="#000" stroke-linecap="round" y1="298.38" x1="213.66" stroke-width="2.415"/><line id="line2918" stroke-linejoin="round" y2="319.61" fill="none" x2="192.42" stroke="#000" stroke-linecap="round" y1="319.61" x1="213.66" stroke-width="2.415"/><line id="line2920" stroke-linejoin="round" y2="340.85" fill="none" x2="192.42" stroke="#000" stroke-linecap="round" y1="340.85" x1="213.66" stroke-width="2.415"/><text id="text2924" font-size="9.98890018px" y="88.435097" x="30.422398" font-family="DroidSans">AREF</text>
<text id="text2926" font-size="9.98890018px" y="237.00929" x="32.2925" font-family="DroidSans">A0</text>
<text id="text2928" font-size="9.98890018px" y="258.4458" x="32.2925" font-family="DroidSans">A1</text>
<text id="text2930" font-size="9.98890018px" y="279.88431" x="32.2925" font-family="DroidSans">A2</text>
<text id="text2932" font-size="9.98890018px" y="301.32181" x="32.2925" font-family="DroidSans">A3</text>
<text id="text2934" font-size="9.98890018px" y="322.75931" x="32.2925" font-family="DroidSans">A4</text>
<text id="text2936" font-size="9.98890018px" y="344.19781" x="32.2925" font-family="DroidSans">A5</text>
<line id="line2938" stroke-linejoin="round" y2="0.975" fill="none" x2="64.9" stroke="#000" stroke-linecap="round" y1="22.211" x1="64.9" stroke-width="1.9517"/><line id="line2940" stroke-linejoin="round" y2="0.975" fill="none" x2="86.136" stroke="#000" stroke-linecap="round" y1="22.211" x1="86.136" stroke-width="1.9517"/><line id="line2942" stroke-linejoin="round" y2="0.975" fill="none" x2="149.84" stroke="#000" stroke-linecap="round" y1="22.211" x1="149.84" stroke-width="1.9517"/><text id="text2944" font-size="9.98890018px" y="39.371593" x="56.558098" font-family="DroidSans">3V3</text>
<text id="text2946" font-size="9.98890018px" y="39.371593" x="80.550797" font-family="DroidSans">5V</text>
<text id="text2948" font-size="9.98890018px" y="39.371593" x="141.74899" font-family="DroidSans">Vin</text>
<text id="text2950" transform="matrix(0,1,-1,0,0,0)" font-size="9.98890018px" y="-57.335899" x="264.11179" font-family="DroidSans">Analog Input</text>
<text id="text2952" font-size="9.98890018px" y="109.6831" x="162.7148" font-family="DroidSans">D11</text>
<text id="text2954" font-size="9.98890018px" y="131.2925" x="162.7148" font-family="DroidSans">D10</text>
<text id="text2956" font-size="9.98890018px" y="152.4751" x="168.21581" font-family="DroidSans">D9</text>
<text id="text2958" font-size="9.98890018px" y="173.2319" x="168.21581" font-family="DroidSans">D8</text>
<text id="text2960" font-size="9.98890018px" y="194.84129" x="168.21581" font-family="DroidSans">D7</text>
<text id="text2962" font-size="9.98890018px" y="215.6001" x="168.21581" font-family="DroidSans">D6</text>
<text id="text2964" font-size="9.98890018px" y="237.2065" x="168.21581" font-family="DroidSans">D5</text>
<text id="text2966" font-size="9.98890018px" y="258.38821" x="168.21581" font-family="DroidSans">D4</text>
<text id="text2968" font-size="9.98890018px" y="279.99561" x="168.21581" font-family="DroidSans">D3</text>
<text id="text2986" font-size="9.98890018px" y="300.75339" x="168.21581" font-family="DroidSans">D2</text>
<text id="text2988" font-size="9.98890018px" y="322.36179" x="168.21581" font-family="DroidSans">D1</text>
<text id="text2990" font-size="9.98890018px" y="67.318794" x="162.7148" font-family="DroidSans">D13</text>
<text id="text2992" font-size="9.98890018px" y="88.500496" x="162.7148" font-family="DroidSans">D12</text>
<text id="text2994" font-size="9.98890018px" y="343.5444" x="168.21581" font-family="DroidSans">D0</text>
<text id="text2996" transform="matrix(0,-1,1,0,0,0)" font-size="9.98890018px" y="156.9346" x="-242.4321" font-family="DroidSans">Digital Input/Output</text>
<text id="text2998" font-size="9.98890018px" y="53.917496" x="93.280296" font-family="DroidSans">Power</text>
<line id="line3002" stroke-linejoin="round" y2="383.15" fill="none" x2="107.46" stroke="#000" stroke-linecap="round" y1="404.39" x1="107.46" stroke-width="1.9517"/><text id="text3004" font-size="9.98890018px" y="372.96039" x="96.9282" font-family="DroidSans">GND</text>
<text id="text3781-1" style="writing-mode:lr-tb;text-anchor:start;text-align:start;" font-size="9.98890018px" line-height="125%" y="67.366684" x="30.42041" font-family="DroidSans"><tspan id="tspan4070-8" y="67.366684" x="30.42041">/RESET</tspan></text>
<text id="text3859-8" style="writing-mode:lr-tb;text-anchor:start;text-align:start;" font-size="17.97999954px" line-height="125%" y="112.12058" x="70.76255" font-family="DroidSans"><tspan id="tspan4068-0" y="112.12058" x="70.76255">Netduino</tspan></text>
<text id="text3831-1-9" style="writing-mode:lr-tb;text-anchor:start;text-align:start;" font-size="6.9921999px" line-height="125%" y="315.13541" x="1.9712048" font-family="DroidSans"><tspan id="tspan4096-7-6" y="315.13541" x="1.9712048">TWD</tspan></text>
<text id="text3833-4-8" style="writing-mode:lr-tb;text-anchor:start;text-align:start;" font-size="6.9921999px" line-height="125%" y="337.1319" x="0.37120527" font-family="DroidSans"><tspan id="tspan4092-0-3" y="337.1319" x="0.37120527">TWCK</tspan></text>
<text id="text3831-0" style="writing-mode:lr-tb;text-anchor:start;text-align:start;" font-size="6.9921999px" line-height="125%" y="316.09811" x="195.09819" font-family="DroidSans"><tspan id="tspan4096-6" y="316.09811" x="195.09819">TX0</tspan></text>
<text id="text3833-1" style="writing-mode:lr-tb;text-anchor:start;text-align:start;" font-size="6.9921999px" line-height="125%" y="338.0946" x="195.09819" font-family="DroidSans"><tspan id="tspan4092-8" y="338.0946" x="195.09819">RX0</tspan></text>
<text id="text3839-9" font-size="6.9921999px" y="231.42529" x="195.7061" font-family="DroidSans">PWM0</text>
<text id="text4074-3" font-size="6.9921999px" y="253.13693" x="195.7061" font-family="DroidSans">CS0</text>
<text id="text4076-8" font-size="6.9921999px" y="189.13667" x="195.7061" font-family="DroidSans">RTS1</text>
<text id="text4078-3" font-size="6.9921999px" y="146.62495" x="195.7061" font-family="DroidSans">PWM2</text>
<text id="text4080-7" font-size="6.9921999px" y="209.93677" x="195.7061" font-family="DroidSans">PWM1</text>
<text id="text4082-1" font-size="6.9921999px" y="166.73659" x="195.7061" font-family="DroidSans">CTS1</text>
<text id="text4084-0" font-size="6.9921999px" y="104.33645" x="195.7061" font-family="DroidSans">MOSI</text>
<text id="text4086-7" font-size="6.9921999px" y="61.824928" x="195.7061" font-family="DroidSans">SPCK</text>
<text id="text4088-3" font-size="6.9921999px" y="125.13644" x="195.7061" font-family="DroidSans">PWM3</text>
<text id="text4090-4" font-size="6.9921999px" y="83.536469" x="195.7061" font-family="DroidSans">MISO</text>
<text id="text4098-9" style="writing-mode:lr-tb;text-anchor:start;text-align:start;" font-size="6.9921999px" line-height="125%" y="274.49796" x="195.09819" font-family="DroidSans"><tspan id="tspan4100-6" y="274.49796" x="195.09819">TX1</tspan></text>
<text id="text4102-5" style="writing-mode:lr-tb;text-anchor:start;text-align:start;" font-size="6.9921999px" line-height="125%" y="295.78647" x="195.09819" font-family="DroidSans"><tspan id="tspan4104-1" y="295.78647" x="195.09819">RX1</tspan></text>
<polygon id="polygon3865-7" points="206.34,311.2,211.05,313.92,206.34,316.63" transform="translate(3.2000079,-1.3080267e-5)"/><polygon id="polygon3867-8" points="211.05,331.81,211.05,337.24,206.34,334.52" transform="translate(3.2000079,1.5999869)"/><polygon id="polygon4106-0" points="211.05,313.92,206.34,316.63,206.34,311.2" transform="translate(3.2000079,-41.600012)"/><polygon id="polygon4108-9" points="206.34,334.52,211.05,331.81,211.05,337.24" transform="translate(3.2000079,-41.248791)"/></g></g></svg>

