<?xml version="1.0" encoding="utf-8"?>
<!-- Generator: Adobe Illustrator 14.0.0, SVG Export Plug-In . SVG Version: 6.00 Build 43363)  -->
<!DOCTYPE svg PUBLIC "-//W3C//DTD SVG 1.1//EN" "http://www.w3.org/Graphics/SVG/1.1/DTD/svg11.dtd">
<svg version="1.1"
	 id="svg2" xmlns:svg="http://www.w3.org/2000/svg" sodipodi:docname="peltier_sensor.svg" xmlns:dc="http://purl.org/dc/elements/1.1/" xmlns:inkscape="http://www.inkscape.org/namespaces/inkscape" xmlns:sodipodi="http://sodipodi.sourceforge.net/DTD/sodipodi-0.dtd" xmlns:rdf="http://www.w3.org/1999/02/22-rdf-syntax-ns#" xmlns:cc="http://creativecommons.org/ns#" sodipodi:version="0.32" inkscape:version="0.46" inkscape:output_extension="org.inkscape.output.svg.inkscape"
	 xmlns="http://www.w3.org/2000/svg" xmlns:xlink="http://www.w3.org/1999/xlink" x="0px" y="0px" width="69.321px"
	 height="60.957px" viewBox="0 0 69.321 60.957" enable-background="new 0 0 69.321 60.957" xml:space="preserve">
<sodipodi:namedview  id="base" inkscape:pageopacity="0.0" objecttolerance="10.0" borderopacity="1.0" bordercolor="#666666" gridtolerance="10.0" inkscape:window-width="640" guidetolerance="10.0" inkscape:pageshadow="2" inkscape:current-layer="svg2" inkscape:window-height="701" showgrid="false" pagecolor="#ffffff" inkscape:zoom="3.41" inkscape:cy="55.083087" inkscape:cx="-1.6622692" inkscape:window-y="42" inkscape:window-x="20">
	</sodipodi:namedview>
<defs>
	
	
		<inkscape:perspective  id="perspective15" inkscape:vp_x="0 : 30.478638 : 1" sodipodi:type="inkscape:persp3d" inkscape:vp_z="69.321533 : 30.478638 : 1" inkscape:persp3d-origin="34.660767 : 20.319092 : 1" inkscape:vp_y="0 : 1000 : 0">
		</inkscape:perspective>
</defs>
<g id="schematic">
	
		<line id="connector0pin" fill="none" stroke="#000000" stroke-width="2" stroke-linecap="round" stroke-linejoin="round" x1="23.25" y1="19.401" x2="1" y2="19.401"/>
	<rect id="connector0terminal" y="18.244" fill="none" width="1" height="2"/>
	
		<line id="connector1pin" fill="none" stroke="#000000" stroke-width="2" stroke-linecap="round" stroke-linejoin="round" x1="23.25" y1="39.4" x2="1" y2="39.4"/>
	<rect id="connector1terminal" y="38.244" fill="none" width="1" height="2"/>
	
		<rect id="box" x="24.069" y="1" fill="none" stroke="#000000" stroke-width="2" stroke-linecap="round" stroke-linejoin="round" width="43.957" height="58.957"/>
</g>
<g>
	
		<line fill="none" stroke="#000000" stroke-width="1.2207" stroke-linecap="round" x1="58.935" y1="34.863" x2="32.892" y2="34.863"/>
	
		<line fill="none" stroke="#000000" stroke-width="1.2207" stroke-linecap="round" x1="45.695" y1="34.852" x2="39.243" y2="45.979"/>
	
		<line fill="none" stroke="#000000" stroke-width="1.2207" stroke-linecap="round" x1="45.666" y1="34.794" x2="52.453" y2="46.141"/>
	
		<line fill="none" stroke="#000000" stroke-width="1.2207" stroke-linecap="round" x1="54.603" y1="34.864" x2="57.595" y2="40.048"/>
	
		<line fill="none" stroke="#000000" stroke-width="1.2207" stroke-linecap="round" x1="34.233" y1="40.048" x2="37.224" y2="34.863"/>
	<polyline fill="none" stroke="#000000" stroke-width="1.2207" stroke-linecap="round" points="44.561,47.572 41.569,42.389 
		35.584,42.389 	"/>
	<polyline fill="none" stroke="#000000" stroke-width="1.2207" stroke-linecap="round" points="56.242,42.389 50.258,42.389 
		47.265,47.572 	"/>
	<polygon points="39.021,19.04 40.897,14.649 42.773,19.04 	"/>
	<path fill="none" stroke="#000000" stroke-width="1.2987" stroke-linecap="round" d="M38.62,30.916
		c0-1.948,2.339-1.948,2.339-3.896c0-1.948-2.339-1.948-2.339-3.896c0-1.948,2.339-1.948,2.339-3.896"/>
	<path fill="none" stroke="#000000" stroke-width="1.2987" stroke-linecap="round" d="M40.958,30.979"/>
	<polygon points="45.07,19.04 46.946,14.649 48.823,19.04 	"/>
	<path fill="none" stroke="#000000" stroke-width="1.2987" stroke-linecap="round" d="M44.669,30.916
		c0-1.948,2.338-1.948,2.338-3.896c0-1.948-2.338-1.948-2.338-3.896c0-1.948,2.338-1.948,2.338-3.896"/>
	<path fill="none" stroke="#000000" stroke-width="1.2987" stroke-linecap="round" d="M47.007,30.979"/>
	<polygon points="51.12,19.04 52.995,14.649 54.872,19.04 	"/>
	<path fill="none" stroke="#000000" stroke-width="1.2987" stroke-linecap="round" d="M50.719,30.916
		c0-1.948,2.337-1.948,2.337-3.896c0-1.948-2.337-1.948-2.337-3.896c0-1.948,2.337-1.948,2.337-3.896"/>
	<path fill="none" stroke="#000000" stroke-width="1.2987" stroke-linecap="round" d="M53.056,30.979"/>
</g>
</svg>
