<?xml version="1.0" encoding="utf-8"?>
<!-- Generator: Adobe Illustrator 14.0.0, SVG Export Plug-In . SVG Version: 6.00 Build 43363)  -->
<svg version="1.2" baseProfile="tiny" id="svg2" xmlns:svg="http://www.w3.org/2000/svg"
	 xmlns="http://www.w3.org/2000/svg" xmlns:xlink="http://www.w3.org/1999/xlink" x="0px" y="0px" width="143.25px" height="93.5px"
	 viewBox="-10.642 -14.858 143.25 93.5" xml:space="preserve">
<path fill="none" stroke="#000000" stroke-linecap="round" stroke-linejoin="round" stroke-miterlimit="12" d="M23.95,12.302
	c-2.692,0-4.856,2.178-4.856,4.87c0,2.688,2.164,4.871,4.856,4.871c-2.692,0-4.856,2.182-4.856,4.871
	c0,2.688,2.164,4.869,4.856,4.869c-2.692,0-4.856,2.182-4.856,4.868c0,2.682,2.18,4.866,4.87,4.866c-2.689,0-4.87,2.184-4.87,4.87
	c0,2.688,2.164,4.87,4.856,4.87"/>
<line fill="none" stroke="#000000" stroke-linecap="round" x1="119.87" y1="-5.437" x2="119.87" y2="68.85"/>
<polyline fill="none" stroke="#000000" stroke-linecap="round" stroke-linejoin="round" points="119.859,30.24 101.242,30.248 
	78.502,38.341 "/>
<line fill="none" stroke="#000000" stroke-linecap="round" x1="-0.005" y1="69.218" x2="-0.005" y2="60.525"/>
<line fill="none" stroke="#000000" stroke-linecap="round" x1="24.12" y1="69.218" x2="24.12" y2="51.349"/>
<polyline fill="none" stroke="#000000" stroke-linecap="round" stroke-linejoin="round" points="0,60.432 58.181,60.432 
	58.181,41.838 77.181,41.838 "/>
<path id="path2400" sodipodi:type="arc" sodipodi:ry="2.1042509" sodipodi:rx="2.1042509" sodipodi:cy="20" sodipodi:cx="5" d="
	M77.207,39.738c1.162,0,2.104,0.941,2.104,2.104s-0.942,2.105-2.104,2.105l0,0c-1.162,0-2.104-0.943-2.104-2.105
	S76.045,39.738,77.207,39.738z"/>
<path id="path2402" sodipodi:type="arc" sodipodi:ry="2.1042509" sodipodi:rx="2.1042509" sodipodi:cy="20" sodipodi:cx="25" d="
	M77.207,19.737c1.162,0,2.104,0.941,2.104,2.104s-0.942,2.105-2.104,2.105s-2.104-0.943-2.104-2.105S76.045,19.737,77.207,19.737
	L77.207,19.737z"/>
<polyline fill="none" stroke="#000000" stroke-linecap="round" stroke-linejoin="round" points="0,3.35 58.181,3.35 58.181,21.944 
	77.181,21.944 "/>
<line fill="none" stroke="#000000" stroke-linecap="round" x1="24.12" y1="-5.437" x2="24.12" y2="12.434"/>
<line fill="none" stroke="#000000" stroke-linecap="round" x1="-0.005" y1="-5.437" x2="-0.005" y2="3.258"/>
<rect x="-10.1" y="-5.4" fill="none" stroke="#000000" stroke-linecap="round" width="142.25" height="74.25"/>
<line id="connector0pin" fill="none" stroke="#000000" stroke-width="2" stroke-linecap="round" x1="-0.005" y1="77.63" x2="-0.005" y2="69.546"/>
<rect id="connector0terminal_5_" x="-0.114" y="77.654" width="0.208" height="0.207"/>
<line id="connector1pin" fill="none" stroke="#000000" stroke-width="2" stroke-linecap="round" x1="24.12" y1="77.63" x2="24.12" y2="69.896"/>
<rect id="connector1terminal" x="24.004" y="77.654" width="0.208" height="0.207"/>
<line id="connector2pin" fill="none" stroke="#000000" stroke-width="2" stroke-linecap="round" x1="119.87" y1="77.63" x2="119.87" y2="69.896"/>
<rect id="connector2terminal" x="119.765" y="77.654" width="0.208" height="0.207"/>
<line id="connector3pin" fill="none" stroke="#000000" stroke-width="2" stroke-linecap="round" x1="119.87" y1="-13.848" x2="119.87" y2="-6.114"/>
<rect id="connector3terminal" x="119.765" y="-14.079" width="0.208" height="0.207"/>
<line id="connector4pin" fill="none" stroke="#000000" stroke-width="2" stroke-linecap="round" x1="24.12" y1="-13.848" x2="24.12" y2="-6.114"/>
<rect id="connector4terminal" x="24.004" y="-14.079" width="0.208" height="0.207"/>
<line id="connector5pin" fill="none" stroke="#000000" stroke-width="2" stroke-linecap="round" x1="-0.005" y1="-13.848" x2="-0.005" y2="-5.765"/>
<rect id="connector5terminal" x="-0.114" y="-14.079" width="0.208" height="0.207"/>
</svg>
