<?xml version='1.0' encoding='utf-8'?>
<!DOCTYPE svg PUBLIC '-//W3C//DTD SVG 1.1 Basic//EN' 'http://www.w3.org/Graphics/SVG/1.1/DTD/svg11-basic.dtd'>
<!-- Generator: Adobe Illustrator 14.0.0, SVG Export Plug-In . SVG Version: 6.00 Build 43363)  -->
<svg xmlns="http://www.w3.org/2000/svg" width="1.49385in" xml:space="preserve" xmlns:xml="http://www.w3.org/XML/1998/namespace" x="0px" version="1.1" y="0px" height="1.76378in" viewBox="0 0 107.557 126.992" baseProfile="basic" id="svg" >
 <rect xmlns="http://www.w3.org/2000/svg" width="1.881" x="70.522" y="0.025" height="9.691" id="connector0pin" />
 <rect xmlns="http://www.w3.org/2000/svg" width="0.855" x="71.034" y="0.058" height="0.682" id="connector0terminal" />
 <rect xmlns="http://www.w3.org/2000/svg" width="1.88" x="34.148" y="0.025" height="9.691" id="connector5pin" />
 <rect xmlns="http://www.w3.org/2000/svg" width="0.856" x="34.659" y="0.058" height="0.682" id="connector5terminal" />
 <rect xmlns="http://www.w3.org/2000/svg" width="9.693" x="97.86" y="62.373" height="1.876" id="connector1pin" />
 <rect xmlns="http://www.w3.org/2000/svg" width="0.686" x="106.87" y="62.917" height="0.858" id="connector1terminal" />
 <rect xmlns="http://www.w3.org/2000/svg" width="9.693" y="62.377" height="1.876" id="connector4pin" />
 <rect xmlns="http://www.w3.org/2000/svg" width="0.684" y="62.852" height="0.858" id="connector4terminal" />
 <rect xmlns="http://www.w3.org/2000/svg" width="1.881" x="70.522" y="117.324" height="9.691" id="connector2pin" />
 <rect xmlns="http://www.w3.org/2000/svg" width="0.856" x="71.067" y="126.333" height="0.684" id="connector2terminal" />
 <rect xmlns="http://www.w3.org/2000/svg" width="1.88" x="34.148" y="117.324" height="9.691" id="connector3pin" />
 <rect xmlns="http://www.w3.org/2000/svg" width="0.857" x="34.692" y="126.333" height="0.684" id="connector3terminal" />
 <g xmlns="http://www.w3.org/2000/svg" id="schematic" >
  <rect xmlns="http://www.w3.org/2000/svg" width="65.357" x="21.26" y="20.987" fill="none" height="84.771" stroke="#000000" stroke-linecap="round" stroke-width="2.4" />
  <line xmlns="http://www.w3.org/2000/svg" fill="none" stroke="#000000" stroke-linejoin="round" stroke-linecap="round" y1="44.67" stroke-width="1.7008" x1="77.067" y2="44.67" x2="65.856" />
  <polygon xmlns="http://www.w3.org/2000/svg" fill="none" points="77.067,34.964 71.458,44.67 65.856,34.964 " stroke="#000000" stroke-linejoin="round" stroke-linecap="round" stroke-width="1.7008" />
  <g xmlns="http://www.w3.org/2000/svg" id="schematic_3_" >
   <g xmlns="http://www.w3.org/2000/svg">
    <polygon xmlns="http://www.w3.org/2000/svg" points="59.69,48.894 60.423,49.478 57.966,51.052 58.956,48.305 " />
    <path xmlns="http://www.w3.org/2000/svg" d="M61.28,49.519l-4.281,2.746l1.729-4.789l0.544,0.438l0.733,0.588L61.28,49.519L61.28,49.519z" />
    <path xmlns="http://www.w3.org/2000/svg" d="M58.642,51.008c-0.101,0.121-0.241,0.187-0.389,0.188l0,0c-0.11,0-0.226-0.037-0.313-0.109l0,0c-0.221-0.171-0.252-0.486-0.082-0.702l4.702-5.894l0,0c0.171-0.221,0.488-0.252,0.701-0.082l0,0c0.222,0.173,0.253,0.49,0.083,0.705L58.642,51.008L58.642,51.008z" />
    <path xmlns="http://www.w3.org/2000/svg" d="M65.409,50.457l-4.285,2.749l1.734-4.787l0.543,0.436l0.731,0.584L65.409,50.457L65.409,50.457z" />
    <path xmlns="http://www.w3.org/2000/svg" d="M62.772,51.946c-0.098,0.123-0.242,0.185-0.388,0.188l0,0c-0.11,0-0.224-0.038-0.313-0.112l0,0c-0.218-0.172-0.252-0.486-0.08-0.699l3.656-4.588l0,0c0.172-0.219,0.49-0.252,0.705-0.08l0,0c0.219,0.17,0.251,0.488,0.08,0.703L62.772,51.946L62.772,51.946z" />
   </g>
  </g>
  <line xmlns="http://www.w3.org/2000/svg" fill="none" stroke="#000000" stroke-linejoin="round" stroke-linecap="round" y1="44.67" stroke-width="1.7008" x1="40.694" y2="44.67" x2="29.483" />
  <polygon xmlns="http://www.w3.org/2000/svg" fill="none" points="40.694,34.964 35.092,44.67 29.483,34.964 " stroke="#000000" stroke-linejoin="round" stroke-linecap="round" stroke-width="1.7008" />
  <g xmlns="http://www.w3.org/2000/svg" id="schematic" >
   <g xmlns="http://www.w3.org/2000/svg">
    <polygon xmlns="http://www.w3.org/2000/svg" points="47.594,48.305 48.585,51.052 46.127,49.478 46.86,48.894 " />
    <path xmlns="http://www.w3.org/2000/svg" d="M45.27,49.519l1.275-1.017l0.733-0.588l0.544-0.438l1.729,4.789L45.27,49.519L45.27,49.519z" />
    <path xmlns="http://www.w3.org/2000/svg" d="M47.909,51.008l-4.702-5.894c-0.17-0.215-0.138-0.532,0.083-0.705l0,0c0.213-0.17,0.53-0.139,0.701,0.082l0,0l4.702,5.894c0.17,0.216,0.139,0.531-0.082,0.702l0,0c-0.088,0.072-0.203,0.109-0.313,0.109l0,0C48.151,51.194,48.008,51.129,47.909,51.008L47.909,51.008z" />
    <path xmlns="http://www.w3.org/2000/svg" d="M41.141,50.457l1.276-1.019l0.732-0.584l0.542-0.436l1.734,4.787L41.141,50.457L41.141,50.457z" />
    <path xmlns="http://www.w3.org/2000/svg" d="M43.779,51.946l-3.66-4.588c-0.171-0.215-0.138-0.533,0.08-0.703l0,0c0.215-0.172,0.534-0.139,0.705,0.08l0,0l3.656,4.588c0.173,0.213,0.138,0.527-0.08,0.699l0,0c-0.09,0.074-0.202,0.112-0.313,0.112l0,0C44.022,52.131,43.876,52.069,43.779,51.946L43.779,51.946z" />
   </g>
  </g>
  <line xmlns="http://www.w3.org/2000/svg" fill="none" stroke="#000000" stroke-linejoin="round" stroke-linecap="round" y1="79.75" stroke-width="1.7008" x1="65.856" y2="79.75" x2="77.067" />
  <polygon xmlns="http://www.w3.org/2000/svg" fill="none" points="65.856,89.456 71.458,79.75 77.067,89.456 " stroke="#000000" stroke-linejoin="round" stroke-linecap="round" stroke-width="1.7008" />
  <g xmlns="http://www.w3.org/2000/svg" id="schematic_4_" >
   <g xmlns="http://www.w3.org/2000/svg">
    <polygon xmlns="http://www.w3.org/2000/svg" points="58.956,76.115 57.966,73.368 60.423,74.943 59.69,75.527 " />
    <path xmlns="http://www.w3.org/2000/svg" d="M61.28,74.902l-1.274,1.018l-0.733,0.588l-0.544,0.438l-1.729-4.789L61.28,74.902L61.28,74.902z" />
    <path xmlns="http://www.w3.org/2000/svg" d="M58.642,73.412l4.702,5.895c0.17,0.215,0.139,0.531-0.083,0.705l0,0c-0.213,0.17-0.53,0.139-0.701-0.082l0,0l-4.702-5.895c-0.17-0.216-0.139-0.531,0.082-0.701l0,0c0.088-0.072,0.203-0.109,0.313-0.109l0,0C58.399,73.226,58.542,73.291,58.642,73.412L58.642,73.412z" />
    <path xmlns="http://www.w3.org/2000/svg" d="M65.409,73.962l-1.275,1.02l-0.732,0.584l-0.541,0.436l-1.734-4.787L65.409,73.962L65.409,73.962z" />
    <path xmlns="http://www.w3.org/2000/svg" d="M62.772,72.474l3.66,4.588c0.171,0.215,0.139,0.533-0.08,0.703l0,0c-0.215,0.172-0.533,0.139-0.705-0.08l0,0l-3.656-4.588c-0.172-0.213-0.138-0.527,0.08-0.699l0,0c0.09-0.074,0.203-0.112,0.313-0.112l0,0C62.528,72.289,62.674,72.351,62.772,72.474L62.772,72.474z" />
   </g>
  </g>
  <line xmlns="http://www.w3.org/2000/svg" fill="none" stroke="#000000" stroke-linejoin="round" stroke-linecap="round" y1="79.75" stroke-width="1.7008" x1="29.483" y2="79.75" x2="40.694" />
  <polygon xmlns="http://www.w3.org/2000/svg" fill="none" points="29.483,89.456 35.092,79.75 40.694,89.456 " stroke="#000000" stroke-linejoin="round" stroke-linecap="round" stroke-width="1.7008" />
  <g xmlns="http://www.w3.org/2000/svg" id="schematic_2_" >
   <g xmlns="http://www.w3.org/2000/svg">
    <polygon xmlns="http://www.w3.org/2000/svg" points="46.86,75.527 46.127,74.943 48.585,73.368 47.594,76.115 " />
    <path xmlns="http://www.w3.org/2000/svg" d="M45.27,74.902l4.282-2.746l-1.729,4.789l-0.544-0.438l-0.733-0.588L45.27,74.902L45.27,74.902z" />
    <path xmlns="http://www.w3.org/2000/svg" d="M47.909,73.412c0.1-0.121,0.242-0.187,0.389-0.188l0,0c0.11,0,0.226,0.037,0.313,0.109l0,0c0.221,0.17,0.252,0.485,0.082,0.701l-4.702,5.895l0,0c-0.171,0.221-0.488,0.252-0.701,0.082l0,0c-0.221-0.174-0.253-0.49-0.083-0.705L47.909,73.412L47.909,73.412z" />
    <path xmlns="http://www.w3.org/2000/svg" d="M41.141,73.962l4.285-2.748l-1.734,4.787l-0.542-0.437l-0.732-0.584L41.141,73.962L41.141,73.962z" />
    <path xmlns="http://www.w3.org/2000/svg" d="M43.779,72.474c0.098-0.123,0.243-0.186,0.388-0.188l0,0c0.111,0,0.224,0.038,0.313,0.112l0,0c0.218,0.172,0.253,0.486,0.08,0.699l-3.656,4.588l0,0c-0.171,0.219-0.49,0.252-0.705,0.08l0,0c-0.218-0.17-0.251-0.488-0.08-0.703L43.779,72.474L43.779,72.474z" />
   </g>
  </g>
  <line xmlns="http://www.w3.org/2000/svg" fill="none" stroke="#000000" stroke-linejoin="round" y1="63.315" stroke-width="1.7008" x1="71.462" y2="63.315" x2="86.618" />
  <line xmlns="http://www.w3.org/2000/svg" fill="none" stroke="#000000" stroke-linejoin="round" y1="63.315" stroke-width="2.8426" x1="86.296" y2="63.315" x2="107.557" />
  <line xmlns="http://www.w3.org/2000/svg" fill="none" stroke="#000000" stroke-linejoin="round" y1="63.315" stroke-width="2.8426" x1="0" y2="63.315" x2="21.26" />
  <line xmlns="http://www.w3.org/2000/svg" fill="none" stroke="#000000" stroke-linejoin="round" y1="0.025" stroke-width="2.8426" x1="35.088" y2="21.285" x2="35.088" />
  <line xmlns="http://www.w3.org/2000/svg" fill="none" stroke="#000000" stroke-linejoin="round" y1="0.025" stroke-width="2.8426" x1="71.462" y2="21.285" x2="71.462" />
  <line xmlns="http://www.w3.org/2000/svg" fill="none" stroke="#000000" stroke-linejoin="round" y1="105.757" stroke-width="2.8426" x1="35.088" y2="127.017" x2="35.088" />
  <line xmlns="http://www.w3.org/2000/svg" fill="none" stroke="#000000" stroke-linejoin="round" y1="105.757" stroke-width="2.8426" x1="71.462" y2="127.017" x2="71.462" />
  <line xmlns="http://www.w3.org/2000/svg" fill="none" stroke="#000000" stroke-linejoin="round" stroke-linecap="round" y1="63.315" stroke-width="1.7008" x1="21.26" y2="63.315" x2="35.088" />
  <line xmlns="http://www.w3.org/2000/svg" fill="none" stroke="#000000" stroke-linejoin="round" stroke-linecap="round" y1="34.964" stroke-width="1.7008" x1="71.462" y2="20.987" x2="71.462" />
  <line xmlns="http://www.w3.org/2000/svg" fill="none" stroke="#000000" stroke-linejoin="round" stroke-linecap="round" y1="34.964" stroke-width="1.7008" x1="35.088" y2="20.987" x2="35.088" />
  <line xmlns="http://www.w3.org/2000/svg" fill="none" stroke="#000000" stroke-linejoin="round" stroke-linecap="round" y1="105.757" stroke-width="1.7008" x1="35.088" y2="89.455" x2="35.088" />
  <line xmlns="http://www.w3.org/2000/svg" fill="none" stroke="#000000" stroke-linejoin="round" stroke-linecap="round" y1="105.757" stroke-width="1.7008" x1="71.462" y2="89.455" x2="71.462" />
  <line xmlns="http://www.w3.org/2000/svg" fill="none" stroke="#000000" stroke-linejoin="round" stroke-linecap="round" y1="79.75" stroke-width="1.7008" x1="71.462" y2="43.995" x2="71.462" />
  <line xmlns="http://www.w3.org/2000/svg" fill="none" stroke="#000000" stroke-linejoin="round" stroke-linecap="round" y1="79.75" stroke-width="1.7008" x1="35.088" y2="43.995" x2="35.088" />
 </g>
</svg>
