<?xml version="1.0" encoding="utf-8"?>
<!-- Generator: Adobe Illustrator 14.0.0, SVG Export Plug-In . SVG Version: 6.00 Build 43363)  -->
<!DOCTYPE svg PUBLIC "-//W3C//DTD SVG 1.1//EN" "http://www.w3.org/Graphics/SVG/1.1/DTD/svg11.dtd">
<svg version="1.1"
	 id="Layer_1" xmlns:cc="http://creativecommons.org/ns#" xmlns:rdf="http://www.w3.org/1999/02/22-rdf-syntax-ns#" xmlns:sodipodi="http://sodipodi.sourceforge.net/DTD/sodipodi-0.dtd" xmlns:svg="http://www.w3.org/2000/svg" xmlns:inkscape="http://www.inkscape.org/namespaces/inkscape" xmlns:dc="http://purl.org/dc/elements/1.1/" inkscape:output_extension="org.inkscape.output.svg.inkscape" inkscape:version="0.46" sodipodi:version="0.32" sodipodi:docname="lm358_schematic.svg"
	 xmlns="http://www.w3.org/2000/svg" xmlns:xlink="http://www.w3.org/1999/xlink" x="0px" y="0px" width="174.3px" height="208.3px"
	 enable-background="new 0 0 174.3 208.3" xml:space="preserve">
<sodipodi:namedview  pagecolor="#ffffff" showgrid="false" bordercolor="#666666" borderopacity="1.0" id="base" inkscape:cy="104.14999" inkscape:pageopacity="0.0" inkscape:window-width="645" inkscape:cx="87.149994" inkscape:current-layer="Layer_1" objecttolerance="10.0" inkscape:window-x="1330" gridtolerance="10.0" inkscape:window-y="0" inkscape:window-height="726" guidetolerance="10.0" inkscape:pageshadow="2" inkscape:zoom="2.3715796">
	</sodipodi:namedview>
<defs>
	
	
		<inkscape:perspective  id="perspective43" inkscape:vp_x="0 : 104.14999 : 1" sodipodi:type="inkscape:persp3d" inkscape:vp_y="0 : 1000 : 0" inkscape:vp_z="174.29999 : 104.14999 : 1" inkscape:persp3d-origin="87.149994 : 69.433329 : 1">
		</inkscape:perspective>
</defs>
<g id="schematic">
	<rect id="connector2pin" x="9.07" y="118.15" width="10" height="2"/>
	<rect id="connector0pin" x="9.07" y="52.15" width="10" height="2"/>
	<rect id="connector1pin" x="9.07" y="85.179" width="10" height="2"/>
	<rect id="connector0terminal" x="7.92" y="52.15" width="2" height="2"/>
	<rect id="connector1terminal" x="7.92" y="85.179" width="2" height="2"/>
	<rect id="connector2terminal" x="7.92" y="118.15" width="2" height="2"/>
	
		<rect id="rect2707" x="40.07" y="32.15" fill="none" stroke="#000000" stroke-width="1.9988" stroke-linecap="round" stroke-linejoin="round" width="110" height="108"/>
	
		<line id="line2711" fill="none" stroke="#000000" stroke-width="2.3" stroke-linecap="round" stroke-linejoin="round" x1="9.07" y1="86.179" x2="39.351" y2="86.179"/>
	
		<line id="line2713" fill="none" stroke="#000000" stroke-width="2.3" stroke-linecap="round" stroke-linejoin="round" x1="9.07" y1="53.15" x2="39.351" y2="53.15"/>
	
		<line id="line2715" fill="none" stroke="#000000" stroke-width="2.3" stroke-linecap="round" stroke-linejoin="round" x1="9.07" y1="119.208" x2="39.351" y2="119.208"/>
	<polyline id="line2956" fill="none" stroke="#000000" stroke-linecap="round" stroke-linejoin="round" points="59.069,111.351 
		62.67,111.351 66.271,111.351 66.271,96.95 95.069,96.95 95.069,111.351 123.871,111.351 123.871,96.95 131.07,96.95 	"/>
	<polyline id="line2956_2_" fill="none" stroke="#000000" stroke-linecap="round" stroke-linejoin="round" points="59.07,75.351 
		80.67,75.351 80.67,60.95 109.47,60.95 109.47,75.351 131.07,75.351 	"/>
	
		<line fill="none" stroke="#000000" stroke-linecap="round" stroke-linejoin="round" stroke-dasharray="2,3" x1="123.871" y1="118.55" x2="123.871" y2="53.75"/>
	
		<line fill="none" stroke="#000000" stroke-linecap="round" stroke-linejoin="round" stroke-dasharray="2,3" x1="109.47" y1="118.55" x2="109.47" y2="53.75"/>
	
		<line fill="none" stroke="#000000" stroke-linecap="round" stroke-linejoin="round" stroke-dasharray="2,3" x1="95.07" y1="118.55" x2="95.07" y2="53.75"/>
	
		<line fill="none" stroke="#000000" stroke-linecap="round" stroke-linejoin="round" stroke-dasharray="2,3" x1="80.67" y1="118.55" x2="80.67" y2="53.75"/>
	
		<line fill="none" stroke="#000000" stroke-linecap="round" stroke-linejoin="round" stroke-dasharray="2,3" x1="66.271" y1="118.55" x2="66.271" y2="53.75"/>
	<text transform="matrix(1 0 0 1 41.0703 28.5508)" font-family="'DroidSans'" font-size="8">rotary encoder</text>
	<text transform="matrix(1 0 0 1 43.4893 55.75)" font-family="'DroidSans'" font-size="8">A</text>
	<text transform="matrix(1 0 0 1 43.4375 121.9897)" font-family="'DroidSans'" font-size="8">B</text>
	<text transform="matrix(1 0 0 1 43.5098 88.75)" font-family="'DroidSans'" font-size="8">C</text>
</g>
</svg>
