<?xml version="1.0" encoding="utf-8"?>
<svg version="1.2" baseProfile="tiny" id="Layer_3" xmlns="http://www.w3.org/2000/svg" xmlns:xlink="http://www.w3.org/1999/xlink"
	 x="0px" y="0px" width="2.98in" height="5.63in" viewBox="0 0 215.053 405.811" xml:space="preserve">
 <g id="schematic">
<rect id="connector0pin" x="1.247" y="85.099" fill="none" width="10.5" height="2.102"/>
<rect id="connector1pin" x="106.475" y="394.335" fill="none" width="2.101" height="10.5"/>
<rect id="connector2pin" x="203.338" y="63.627" fill="none" width="10.5" height="2.101"/>
<rect id="connector3pin" x="203.345" y="84.887" fill="none" width="10.5" height="2.101"/>
<rect id="connector4pin" x="203.345" y="106.147" fill="none" width="10.5" height="2.101"/>
<rect id="connector5pin" x="203.345" y="127.408" fill="none" width="10.5" height="2.1"/>
<rect id="connector6pin" x="203.345" y="148.667" fill="none" width="10.5" height="2.101"/>
<rect id="connector7pin" x="203.345" y="169.927" fill="none" width="10.5" height="2.101"/>
<rect id="connector8pin" x="203.345" y="191.187" fill="none" width="10.5" height="2.101"/>
<rect id="connector9pin" x="203.345" y="212.447" fill="none" width="10.5" height="2.102"/>
<rect id="connector10pin" x="203.345" y="233.708" fill="none" width="10.5" height="2.101"/>
<rect id="connector11pin" x="203.345" y="254.967" fill="none" width="10.5" height="2.101"/>
<rect id="connector12pin" x="203.345" y="276.227" fill="none" width="10.5" height="2.102"/>
<rect id="connector13pin" x="203.345" y="297.488" fill="none" width="10.5" height="2.1"/>
<rect id="connector14pin" x="203.345" y="318.746" fill="none" width="10.5" height="2.102"/>
<rect id="connector15pin" x="203.345" y="340.006" fill="none" width="10.5" height="2.102"/>
<rect id="connector16pin" x="1.237" y="63.839" fill="none" width="10.5" height="2.101"/>
<rect id="connector17pin" x="63.914" y="0.976" fill="none" width="2.101" height="10.5"/>
<rect id="connector18pin" x="85.174" y="0.976" fill="none" width="2.1" height="10.5"/>
<rect id="connector19pin" x="106.471" y="394.335" fill="none" width="2.1" height="10.5"/>
<rect id="connector20pin" x="106.475" y="394.335" fill="none" width="2.101" height="10.5"/>
<rect id="connector21pin" x="148.954" y="0.976" fill="none" width="2.101" height="10.5"/>
<rect id="connector22pin" x="1.208" y="233.897" fill="none" width="10.5" height="2.101"/>
<rect id="connector23pin" x="1.208" y="255.156" fill="none" width="10.5" height="2.102"/>
<rect id="connector24pin" x="1.208" y="276.416" fill="none" width="10.5" height="2.1"/>
<rect id="connector25pin" x="1.208" y="297.676" fill="none" width="10.5" height="2.1"/>
<rect id="connector26pin" x="1.208" y="318.938" fill="none" width="10.5" height="2.1"/>
<rect id="connector27pin" x="1.208" y="340.197" fill="none" width="10.5" height="2.1"/>
<rect id="connector0terminal" x="1.247" y="85.099" fill="none" width="1.997" height="2.102"/>
<rect id="connector1terminal" x="106.475" y="402.84" fill="none" width="2.101" height="1.995"/>
<rect id="connector2terminal" x="211.842" y="63.627" fill="none" width="1.997" height="2.101"/>
<rect id="connector3terminal" x="211.849" y="84.887" fill="none" width="1.997" height="2.101"/>
<rect id="connector4terminal" x="211.849" y="106.147" fill="none" width="1.997" height="2.101"/>
<rect id="connector5terminal" x="211.849" y="127.408" fill="none" width="1.997" height="2.1"/>
<rect id="connector6terminal" x="211.849" y="148.667" fill="none" width="1.997" height="2.101"/>
<rect id="connector7terminal" x="211.849" y="169.927" fill="none" width="1.997" height="2.101"/>
<rect id="connector8terminal" x="211.849" y="191.187" fill="none" width="1.997" height="2.101"/>
<rect id="connector9terminal" x="211.849" y="212.447" fill="none" width="1.997" height="2.102"/>
<rect id="connector10terminal" x="211.849" y="233.708" fill="none" width="1.997" height="2.101"/>
<rect id="connector11terminal" x="211.849" y="254.967" fill="none" width="1.997" height="2.101"/>
<rect id="connector12terminal" x="211.849" y="276.227" fill="none" width="1.997" height="2.102"/>
<rect id="connector13terminal" x="211.849" y="297.488" fill="none" width="1.997" height="2.1"/>
<rect id="connector14terminal" x="211.849" y="318.746" fill="none" width="1.997" height="2.102"/>
<rect id="connector15terminal" x="211.849" y="340.006" fill="none" width="1.997" height="2.102"/>
<rect id="connector16terminal" x="1.237" y="63.839" fill="none" width="1.997" height="2.101"/>
<rect id="connector17terminal" x="63.914" y="0.976" fill="none" width="2.101" height="1.997"/>
<rect id="connector18terminal" x="85.174" y="0.976" fill="none" width="2.1" height="1.997"/>
<rect id="connector19terminal" x="106.471" y="402.84" fill="none" width="2.1" height="1.995"/>
<rect id="connector20terminal" x="106.475" y="402.84" fill="none" width="2.101" height="1.995"/>
<rect id="connector21terminal" x="148.954" y="0.976" fill="none" width="2.101" height="1.997"/>
<rect id="connector22terminal" x="1.208" y="233.897" fill="none" width="1.997" height="2.101"/>
<rect id="connector23terminal" x="1.208" y="255.156" fill="none" width="1.997" height="2.102"/>
<rect id="connector24terminal" x="1.208" y="276.416" fill="none" width="1.997" height="2.1"/>
<rect id="connector25terminal" x="1.208" y="297.676" fill="none" width="1.997" height="2.1"/>
<rect id="connector26terminal" x="1.208" y="318.938" fill="none" width="1.997" height="2.1"/>
<rect id="connector27terminal" x="1.208" y="340.197" fill="none" width="1.997" height="2.1"/>
<g>
	
		<rect x="22.418" y="22.236" fill="none" stroke="#000000" stroke-width="2.415" stroke-linecap="round" stroke-linejoin="round" width="170.16" height="361.338"/>
	
		<line fill="none" stroke="#000000" stroke-width="2.2495" stroke-linecap="round" stroke-linejoin="round" x1="1.239" y1="64.722" x2="22.499" y2="64.722"/>
	
		<line fill="none" stroke="#000000" stroke-width="2.415" stroke-linecap="round" stroke-linejoin="round" x1="1.247" y1="85.982" x2="22.418" y2="85.982"/>
	
		<line fill="none" stroke="#000000" stroke-width="2.415" stroke-linecap="round" stroke-linejoin="round" x1="1.208" y1="234.779" x2="22.418" y2="234.779"/>
	
		<line fill="none" stroke="#000000" stroke-width="2.415" stroke-linecap="round" stroke-linejoin="round" x1="1.208" y1="256.039" x2="22.418" y2="256.039"/>
	
		<line fill="none" stroke="#000000" stroke-width="2.415" stroke-linecap="round" stroke-linejoin="round" x1="1.208" y1="277.297" x2="22.418" y2="277.297"/>
	
		<line fill="none" stroke="#000000" stroke-width="2.415" stroke-linecap="round" stroke-linejoin="round" x1="1.208" y1="298.557" x2="22.418" y2="298.557"/>
	
		<line fill="none" stroke="#000000" stroke-width="2.415" stroke-linecap="round" stroke-linejoin="round" x1="1.208" y1="319.818" x2="22.418" y2="319.818"/>
	
		<line fill="none" stroke="#000000" stroke-width="2.415" stroke-linecap="round" stroke-linejoin="round" x1="1.208" y1="341.078" x2="22.418" y2="341.078"/>
	
		<line fill="none" stroke="#000000" stroke-width="1.9517" stroke-linecap="round" stroke-linejoin="round" x1="213.838" y1="64.846" x2="192.579" y2="64.846"/>
	
		<line fill="none" stroke="#000000" stroke-width="2.415" stroke-linecap="round" stroke-linejoin="round" x1="213.845" y1="86.106" x2="192.579" y2="86.106"/>
	
		<line fill="none" stroke="#000000" stroke-width="2.415" stroke-linecap="round" stroke-linejoin="round" x1="213.845" y1="107.366" x2="192.579" y2="107.366"/>
	
		<line fill="none" stroke="#000000" stroke-width="2.415" stroke-linecap="round" stroke-linejoin="round" x1="213.845" y1="128.626" x2="192.579" y2="128.626"/>
	
		<line fill="none" stroke="#000000" stroke-width="2.415" stroke-linecap="round" stroke-linejoin="round" x1="213.845" y1="149.886" x2="192.579" y2="149.886"/>
	
		<line fill="none" stroke="#000000" stroke-width="2.415" stroke-linecap="round" stroke-linejoin="round" x1="213.845" y1="171.146" x2="192.579" y2="171.146"/>
	
		<line fill="none" stroke="#000000" stroke-width="2.415" stroke-linecap="round" stroke-linejoin="round" x1="213.845" y1="192.406" x2="192.579" y2="192.406"/>
	
		<line fill="none" stroke="#000000" stroke-width="2.415" stroke-linecap="round" stroke-linejoin="round" x1="213.845" y1="213.666" x2="192.579" y2="213.666"/>
	
		<line fill="none" stroke="#000000" stroke-width="2.415" stroke-linecap="round" stroke-linejoin="round" x1="213.845" y1="234.926" x2="192.579" y2="234.926"/>
	
		<line fill="none" stroke="#000000" stroke-width="2.415" stroke-linecap="round" stroke-linejoin="round" x1="213.845" y1="256.186" x2="192.579" y2="256.186"/>
	
		<line fill="none" stroke="#000000" stroke-width="2.415" stroke-linecap="round" stroke-linejoin="round" x1="213.845" y1="277.445" x2="192.579" y2="277.445"/>
	
		<line fill="none" stroke="#000000" stroke-width="2.415" stroke-linecap="round" stroke-linejoin="round" x1="213.845" y1="298.707" x2="192.579" y2="298.707"/>
	
		<line fill="none" stroke="#000000" stroke-width="2.415" stroke-linecap="round" stroke-linejoin="round" x1="213.845" y1="319.965" x2="192.579" y2="319.965"/>
	
		<line fill="none" stroke="#000000" stroke-width="2.415" stroke-linecap="round" stroke-linejoin="round" x1="213.845" y1="341.225" x2="192.579" y2="341.225"/>
	<text transform="matrix(1 0 0 1 30.4014 67.4419)" font-family="'DroidSans'" font-size="10">RST</text>
	<text transform="matrix(1 0 0 1 30.4033 88.5337)" font-family="'DroidSans'" font-size="10">AREF</text>
	<text transform="matrix(1 0 0 1 32.2754 237.2729)" font-family="'DroidSans'" font-size="10">A0</text>
	<text transform="matrix(1 0 0 1 32.2754 258.7334)" font-family="'DroidSans'" font-size="10">A1</text>
	<text transform="matrix(1 0 0 1 32.2754 280.1953)" font-family="'DroidSans'" font-size="10">A2</text>
	<text transform="matrix(1 0 0 1 32.2754 301.6562)" font-family="'DroidSans'" font-size="10">A3</text>
	<text transform="matrix(1 0 0 1 32.2754 323.1191)" font-family="'DroidSans'" font-size="10">A4</text>
	<text transform="matrix(1 0 0 1 32.2754 344.5801)" font-family="'DroidSans'" font-size="10">A5</text>
	
		<line fill="none" stroke="#000000" stroke-width="1.9517" stroke-linecap="round" stroke-linejoin="round" x1="64.919" y1="22.236" x2="64.919" y2="0.976"/>
	
		<line fill="none" stroke="#000000" stroke-width="1.9517" stroke-linecap="round" stroke-linejoin="round" x1="86.179" y1="22.236" x2="86.179" y2="0.976"/>
	
		<line fill="none" stroke="#000000" stroke-width="1.9517" stroke-linecap="round" stroke-linejoin="round" x1="149.959" y1="22.236" x2="149.959" y2="0.976"/>
	<text transform="matrix(1 0 0 1 56.5679 39.4155)" font-family="'DroidSans'" font-size="10">3V3</text>
	<text transform="matrix(1 0 0 1 80.5879 39.4155)" font-family="'DroidSans'" font-size="10">5V</text>
	<text transform="matrix(1 0 0 1 141.8535 39.4155)" font-family="'DroidSans'" font-size="10">Vin </text>
	<text transform="matrix(0 1 -1 0 57.3452 264.4062)" font-family="'DroidSans'" font-size="10">Analog Input</text>
	<text transform="matrix(1 0 0 1 162.8428 109.8052)" font-family="'DroidSans'" font-size="10">D11</text>
	<text transform="matrix(1 0 0 1 162.8428 131.439)" font-family="'DroidSans'" font-size="10">D10</text>
	<text transform="matrix(1 0 0 1 168.3506 152.645)" font-family="'DroidSans'" font-size="10">D9</text>
	<text transform="matrix(1 0 0 1 168.3506 173.4248)" font-family="'DroidSans'" font-size="10">D8</text>
	<text transform="matrix(1 0 0 1 168.3506 195.0576)" font-family="'DroidSans'" font-size="10">D7</text>
	<text transform="matrix(1 0 0 1 168.3506 215.8398)" font-family="'DroidSans'" font-size="10">D6</text>
	<text transform="matrix(1 0 0 1 168.3506 237.4707)" font-family="'DroidSans'" font-size="10">D5</text>
	<text transform="matrix(1 0 0 1 168.3506 258.6758)" font-family="'DroidSans'" font-size="10">D4</text>
	<text transform="matrix(1 0 0 1 168.3506 280.3066)" font-family="'DroidSans'" font-size="10">D3</text>
	<text transform="matrix(1 0 0 1 195.8711 274.2422)" font-family="'DroidSans'" font-size="7">PWM</text>
	<text transform="matrix(1 0 0 1 196.8633 316.4492)" font-family="'DroidSans'" font-size="7">TX</text>
	<text transform="matrix(1 0 0 1 196.8633 336.8691)" font-family="'DroidSans'" font-size="7">RX</text>
	<text transform="matrix(1 0 0 1 195.8711 146.9648)" font-family="'DroidSans'" font-size="7">PWM</text>
	<text transform="matrix(1 0 0 1 195.8711 125.6016)" font-family="'DroidSans'" font-size="7">PWM</text>
	<text transform="matrix(1 0 0 1 195.8711 231.6826)" font-family="'DroidSans'" font-size="7">PWM</text>
	<text transform="matrix(1 0 0 1 195.8711 210.3208)" font-family="'DroidSans'" font-size="7">PWM</text>
	<text transform="matrix(1 0 0 1 195.8711 104.4521)" font-family="'DroidSans'" font-size="7">PWM</text>
	<text transform="matrix(1 0 0 1 168.3506 301.0879)" font-family="'DroidSans'" font-size="10">D2</text>
	<text transform="matrix(1 0 0 1 168.3506 322.7207)" font-family="'DroidSans'" font-size="10">D1</text>
	<text transform="matrix(1 0 0 1 162.8428 67.394)" font-family="'DroidSans'" font-size="10">D13</text>
	<text transform="matrix(1 0 0 1 162.8428 88.5991)" font-family="'DroidSans'" font-size="10">D12</text>
	<text transform="matrix(1 0 0 1 168.3506 343.9258)" font-family="'DroidSans'" font-size="10">D0</text>
	<text transform="matrix(0 -1 1 0 157.0557 242.7002)" font-family="'DroidSans'" font-size="10">Digital Input/Output</text>
	<text transform="matrix(1 0 0 1 93.3311 53.9771)" font-family="'DroidSans'" font-size="10">Power</text>
	<text transform="matrix(1 0 0 1 72.7051 112.2451)" font-family="'DroidSans'" font-size="18">Arduino </text>
	
		<line fill="none" stroke="#000000" stroke-width="1.9517" stroke-linecap="round" stroke-linejoin="round" x1="107.525" y1="404.835" x2="107.525" y2="383.574"/>
	<text transform="matrix(1 0 0 1 96.9829 373.375)" font-family="'DroidSans'" font-size="10">GND</text>
	<polygon points="206.521,311.545 211.232,314.266 206.521,316.986 	"/>
	<polygon points="211.232,337.619 206.521,334.896 211.232,332.178 	"/>
</g>
</g>
</svg>
