<?xml version="1.0" encoding="utf-8"?>
<!DOCTYPE svg PUBLIC "-//W3C//DTD SVG 1.1 Basic//EN" "http://www.w3.org/Graphics/SVG/1.1/DTD/svg11-basic.dtd">
<svg version="1.1" baseProfile="basic" id="svg2" xmlns:svg="http://www.w3.org/2000/svg"
	 xmlns="http://www.w3.org/2000/svg" xmlns:xlink="http://www.w3.org/1999/xlink" x="0px" y="0px" width="0.87in"
	 height="7.83in" viewBox="0 0 62.641 563.731" xml:space="preserve">
	 
<g id="schematic">
	<line id="connector0pin" fill="none" stroke="#000000" stroke-width="2" stroke-linecap="round" stroke-linejoin="round" x1="0.998" y1="9.723" x2="17.845" y2="9.723"/>
	<rect id="connector0terminal" x="0" y="8.725" width="0.998" height="1.997"/>
  <circle fill="none" stroke-width="2" stroke="#000000" cx="52.9215" cy="9.723" r="8.7195" />
	
	<line id="line" fill="none" stroke="#000000" stroke-width="2" stroke-linecap="round" stroke-linejoin="round" x1="43.202" y1="9.723" x2="16.452" y2="9.723"/>
	<line id="connector1pin" fill="none" stroke="#000000" stroke-width="2" stroke-linecap="round" stroke-linejoin="round" x1="0.998" y1="29.162" x2="17.845" y2="29.162"/>
	<rect id="connector1terminal" x="0" y="28.164" width="0.998" height="1.997"/>
  <circle fill="none" stroke-width="2" stroke="#000000" cx="52.9215" cy="29.162" r="8.7195" />
	
	<line id="line" fill="none" stroke="#000000" stroke-width="2" stroke-linecap="round" stroke-linejoin="round" x1="43.202" y1="29.162" x2="16.452" y2="29.162"/>
	<line id="connector2pin" fill="none" stroke="#000000" stroke-width="2" stroke-linecap="round" stroke-linejoin="round" x1="0.998" y1="48.601" x2="17.845" y2="48.601"/>
	<rect id="connector2terminal" x="0" y="47.603" width="0.998" height="1.997"/>
  <circle fill="none" stroke-width="2" stroke="#000000" cx="52.9215" cy="48.601" r="8.7195" />
	
	<line id="line" fill="none" stroke="#000000" stroke-width="2" stroke-linecap="round" stroke-linejoin="round" x1="43.202" y1="48.601" x2="16.452" y2="48.601"/>
	<line id="connector3pin" fill="none" stroke="#000000" stroke-width="2" stroke-linecap="round" stroke-linejoin="round" x1="0.998" y1="68.04" x2="17.845" y2="68.04"/>
	<rect id="connector3terminal" x="0" y="67.042" width="0.998" height="1.997"/>
  <circle fill="none" stroke-width="2" stroke="#000000" cx="52.9215" cy="68.04" r="8.7195" />
	
	<line id="line" fill="none" stroke="#000000" stroke-width="2" stroke-linecap="round" stroke-linejoin="round" x1="43.202" y1="68.04" x2="16.452" y2="68.04"/>
	<line id="connector4pin" fill="none" stroke="#000000" stroke-width="2" stroke-linecap="round" stroke-linejoin="round" x1="0.998" y1="87.479" x2="17.845" y2="87.479"/>
	<rect id="connector4terminal" x="0" y="86.481" width="0.998" height="1.997"/>
  <circle fill="none" stroke-width="2" stroke="#000000" cx="52.9215" cy="87.479" r="8.7195" />
	
	<line id="line" fill="none" stroke="#000000" stroke-width="2" stroke-linecap="round" stroke-linejoin="round" x1="43.202" y1="87.479" x2="16.452" y2="87.479"/>
	<line id="connector5pin" fill="none" stroke="#000000" stroke-width="2" stroke-linecap="round" stroke-linejoin="round" x1="0.998" y1="106.918" x2="17.845" y2="106.918"/>
	<rect id="connector5terminal" x="0" y="105.92" width="0.998" height="1.997"/>
  <circle fill="none" stroke-width="2" stroke="#000000" cx="52.9215" cy="106.918" r="8.7195" />
	
	<line id="line" fill="none" stroke="#000000" stroke-width="2" stroke-linecap="round" stroke-linejoin="round" x1="43.202" y1="106.918" x2="16.452" y2="106.918"/>
	<line id="connector6pin" fill="none" stroke="#000000" stroke-width="2" stroke-linecap="round" stroke-linejoin="round" x1="0.998" y1="126.357" x2="17.845" y2="126.357"/>
	<rect id="connector6terminal" x="0" y="125.359" width="0.998" height="1.997"/>
  <circle fill="none" stroke-width="2" stroke="#000000" cx="52.9215" cy="126.357" r="8.7195" />
	
	<line id="line" fill="none" stroke="#000000" stroke-width="2" stroke-linecap="round" stroke-linejoin="round" x1="43.202" y1="126.357" x2="16.452" y2="126.357"/>
	<line id="connector7pin" fill="none" stroke="#000000" stroke-width="2" stroke-linecap="round" stroke-linejoin="round" x1="0.998" y1="145.796" x2="17.845" y2="145.796"/>
	<rect id="connector7terminal" x="0" y="144.798" width="0.998" height="1.997"/>
  <circle fill="none" stroke-width="2" stroke="#000000" cx="52.9215" cy="145.796" r="8.7195" />
	
	<line id="line" fill="none" stroke="#000000" stroke-width="2" stroke-linecap="round" stroke-linejoin="round" x1="43.202" y1="145.796" x2="16.452" y2="145.796"/>
	<line id="connector8pin" fill="none" stroke="#000000" stroke-width="2" stroke-linecap="round" stroke-linejoin="round" x1="0.998" y1="165.235" x2="17.845" y2="165.235"/>
	<rect id="connector8terminal" x="0" y="164.237" width="0.998" height="1.997"/>
  <circle fill="none" stroke-width="2" stroke="#000000" cx="52.9215" cy="165.235" r="8.7195" />
	
	<line id="line" fill="none" stroke="#000000" stroke-width="2" stroke-linecap="round" stroke-linejoin="round" x1="43.202" y1="165.235" x2="16.452" y2="165.235"/>
	<line id="connector9pin" fill="none" stroke="#000000" stroke-width="2" stroke-linecap="round" stroke-linejoin="round" x1="0.998" y1="184.674" x2="17.845" y2="184.674"/>
	<rect id="connector9terminal" x="0" y="183.676" width="0.998" height="1.997"/>
  <circle fill="none" stroke-width="2" stroke="#000000" cx="52.9215" cy="184.674" r="8.7195" />
	
	<line id="line" fill="none" stroke="#000000" stroke-width="2" stroke-linecap="round" stroke-linejoin="round" x1="43.202" y1="184.674" x2="16.452" y2="184.674"/>
	<line id="connector10pin" fill="none" stroke="#000000" stroke-width="2" stroke-linecap="round" stroke-linejoin="round" x1="0.998" y1="204.113" x2="17.845" y2="204.113"/>
	<rect id="connector10terminal" x="0" y="203.115" width="0.998" height="1.997"/>
  <circle fill="none" stroke-width="2" stroke="#000000" cx="52.9215" cy="204.113" r="8.7195" />
	
	<line id="line" fill="none" stroke="#000000" stroke-width="2" stroke-linecap="round" stroke-linejoin="round" x1="43.202" y1="204.113" x2="16.452" y2="204.113"/>
	<line id="connector11pin" fill="none" stroke="#000000" stroke-width="2" stroke-linecap="round" stroke-linejoin="round" x1="0.998" y1="223.552" x2="17.845" y2="223.552"/>
	<rect id="connector11terminal" x="0" y="222.554" width="0.998" height="1.997"/>
  <circle fill="none" stroke-width="2" stroke="#000000" cx="52.9215" cy="223.552" r="8.7195" />
	
	<line id="line" fill="none" stroke="#000000" stroke-width="2" stroke-linecap="round" stroke-linejoin="round" x1="43.202" y1="223.552" x2="16.452" y2="223.552"/>
	<line id="connector12pin" fill="none" stroke="#000000" stroke-width="2" stroke-linecap="round" stroke-linejoin="round" x1="0.998" y1="242.991" x2="17.845" y2="242.991"/>
	<rect id="connector12terminal" x="0" y="241.993" width="0.998" height="1.997"/>
  <circle fill="none" stroke-width="2" stroke="#000000" cx="52.9215" cy="242.991" r="8.7195" />
	
	<line id="line" fill="none" stroke="#000000" stroke-width="2" stroke-linecap="round" stroke-linejoin="round" x1="43.202" y1="242.991" x2="16.452" y2="242.991"/>
	<line id="connector13pin" fill="none" stroke="#000000" stroke-width="2" stroke-linecap="round" stroke-linejoin="round" x1="0.998" y1="262.43" x2="17.845" y2="262.43"/>
	<rect id="connector13terminal" x="0" y="261.432" width="0.998" height="1.997"/>
  <circle fill="none" stroke-width="2" stroke="#000000" cx="52.9215" cy="262.43" r="8.7195" />
	
	<line id="line" fill="none" stroke="#000000" stroke-width="2" stroke-linecap="round" stroke-linejoin="round" x1="43.202" y1="262.43" x2="16.452" y2="262.43"/>
	<line id="connector14pin" fill="none" stroke="#000000" stroke-width="2" stroke-linecap="round" stroke-linejoin="round" x1="0.998" y1="281.869" x2="17.845" y2="281.869"/>
	<rect id="connector14terminal" x="0" y="280.871" width="0.998" height="1.997"/>
  <circle fill="none" stroke-width="2" stroke="#000000" cx="52.9215" cy="281.869" r="8.7195" />
	
	<line id="line" fill="none" stroke="#000000" stroke-width="2" stroke-linecap="round" stroke-linejoin="round" x1="43.202" y1="281.869" x2="16.452" y2="281.869"/>
	<line id="connector15pin" fill="none" stroke="#000000" stroke-width="2" stroke-linecap="round" stroke-linejoin="round" x1="0.998" y1="301.308" x2="17.845" y2="301.308"/>
	<rect id="connector15terminal" x="0" y="300.31" width="0.998" height="1.997"/>
  <circle fill="none" stroke-width="2" stroke="#000000" cx="52.9215" cy="301.308" r="8.7195" />
	
	<line id="line" fill="none" stroke="#000000" stroke-width="2" stroke-linecap="round" stroke-linejoin="round" x1="43.202" y1="301.308" x2="16.452" y2="301.308"/>
	<line id="connector16pin" fill="none" stroke="#000000" stroke-width="2" stroke-linecap="round" stroke-linejoin="round" x1="0.998" y1="320.747" x2="17.845" y2="320.747"/>
	<rect id="connector16terminal" x="0" y="319.749" width="0.998" height="1.997"/>
  <circle fill="none" stroke-width="2" stroke="#000000" cx="52.9215" cy="320.747" r="8.7195" />
	
	<line id="line" fill="none" stroke="#000000" stroke-width="2" stroke-linecap="round" stroke-linejoin="round" x1="43.202" y1="320.747" x2="16.452" y2="320.747"/>
	<line id="connector17pin" fill="none" stroke="#000000" stroke-width="2" stroke-linecap="round" stroke-linejoin="round" x1="0.998" y1="340.186" x2="17.845" y2="340.186"/>
	<rect id="connector17terminal" x="0" y="339.188" width="0.998" height="1.997"/>
  <circle fill="none" stroke-width="2" stroke="#000000" cx="52.9215" cy="340.186" r="8.7195" />
	
	<line id="line" fill="none" stroke="#000000" stroke-width="2" stroke-linecap="round" stroke-linejoin="round" x1="43.202" y1="340.186" x2="16.452" y2="340.186"/>
	<line id="connector18pin" fill="none" stroke="#000000" stroke-width="2" stroke-linecap="round" stroke-linejoin="round" x1="0.998" y1="359.625" x2="17.845" y2="359.625"/>
	<rect id="connector18terminal" x="0" y="358.627" width="0.998" height="1.997"/>
  <circle fill="none" stroke-width="2" stroke="#000000" cx="52.9215" cy="359.625" r="8.7195" />
	
	<line id="line" fill="none" stroke="#000000" stroke-width="2" stroke-linecap="round" stroke-linejoin="round" x1="43.202" y1="359.625" x2="16.452" y2="359.625"/>
	<line id="connector19pin" fill="none" stroke="#000000" stroke-width="2" stroke-linecap="round" stroke-linejoin="round" x1="0.998" y1="379.064" x2="17.845" y2="379.064"/>
	<rect id="connector19terminal" x="0" y="378.066" width="0.998" height="1.997"/>
  <circle fill="none" stroke-width="2" stroke="#000000" cx="52.9215" cy="379.064" r="8.7195" />
	
	<line id="line" fill="none" stroke="#000000" stroke-width="2" stroke-linecap="round" stroke-linejoin="round" x1="43.202" y1="379.064" x2="16.452" y2="379.064"/>
	<line id="connector20pin" fill="none" stroke="#000000" stroke-width="2" stroke-linecap="round" stroke-linejoin="round" x1="0.998" y1="398.503" x2="17.845" y2="398.503"/>
	<rect id="connector20terminal" x="0" y="397.505" width="0.998" height="1.997"/>
  <circle fill="none" stroke-width="2" stroke="#000000" cx="52.9215" cy="398.503" r="8.7195" />
	
	<line id="line" fill="none" stroke="#000000" stroke-width="2" stroke-linecap="round" stroke-linejoin="round" x1="43.202" y1="398.503" x2="16.452" y2="398.503"/>
	<line id="connector21pin" fill="none" stroke="#000000" stroke-width="2" stroke-linecap="round" stroke-linejoin="round" x1="0.998" y1="417.942" x2="17.845" y2="417.942"/>
	<rect id="connector21terminal" x="0" y="416.944" width="0.998" height="1.997"/>
  <circle fill="none" stroke-width="2" stroke="#000000" cx="52.9215" cy="417.942" r="8.7195" />
	
	<line id="line" fill="none" stroke="#000000" stroke-width="2" stroke-linecap="round" stroke-linejoin="round" x1="43.202" y1="417.942" x2="16.452" y2="417.942"/>
	<line id="connector22pin" fill="none" stroke="#000000" stroke-width="2" stroke-linecap="round" stroke-linejoin="round" x1="0.998" y1="437.381" x2="17.845" y2="437.381"/>
	<rect id="connector22terminal" x="0" y="436.383" width="0.998" height="1.997"/>
  <circle fill="none" stroke-width="2" stroke="#000000" cx="52.9215" cy="437.381" r="8.7195" />
	
	<line id="line" fill="none" stroke="#000000" stroke-width="2" stroke-linecap="round" stroke-linejoin="round" x1="43.202" y1="437.381" x2="16.452" y2="437.381"/>
	<line id="connector23pin" fill="none" stroke="#000000" stroke-width="2" stroke-linecap="round" stroke-linejoin="round" x1="0.998" y1="456.82" x2="17.845" y2="456.82"/>
	<rect id="connector23terminal" x="0" y="455.822" width="0.998" height="1.997"/>
  <circle fill="none" stroke-width="2" stroke="#000000" cx="52.9215" cy="456.82" r="8.7195" />
	
	<line id="line" fill="none" stroke="#000000" stroke-width="2" stroke-linecap="round" stroke-linejoin="round" x1="43.202" y1="456.82" x2="16.452" y2="456.82"/>
	<line id="connector24pin" fill="none" stroke="#000000" stroke-width="2" stroke-linecap="round" stroke-linejoin="round" x1="0.998" y1="476.259" x2="17.845" y2="476.259"/>
	<rect id="connector24terminal" x="0" y="475.261" width="0.998" height="1.997"/>
  <circle fill="none" stroke-width="2" stroke="#000000" cx="52.9215" cy="476.259" r="8.7195" />
	
	<line id="line" fill="none" stroke="#000000" stroke-width="2" stroke-linecap="round" stroke-linejoin="round" x1="43.202" y1="476.259" x2="16.452" y2="476.259"/>
	<line id="connector25pin" fill="none" stroke="#000000" stroke-width="2" stroke-linecap="round" stroke-linejoin="round" x1="0.998" y1="495.698" x2="17.845" y2="495.698"/>
	<rect id="connector25terminal" x="0" y="494.7" width="0.998" height="1.997"/>
  <circle fill="none" stroke-width="2" stroke="#000000" cx="52.9215" cy="495.698" r="8.7195" />
	
	<line id="line" fill="none" stroke="#000000" stroke-width="2" stroke-linecap="round" stroke-linejoin="round" x1="43.202" y1="495.698" x2="16.452" y2="495.698"/>
	<line id="connector26pin" fill="none" stroke="#000000" stroke-width="2" stroke-linecap="round" stroke-linejoin="round" x1="0.998" y1="515.137" x2="17.845" y2="515.137"/>
	<rect id="connector26terminal" x="0" y="514.139" width="0.998" height="1.997"/>
  <circle fill="none" stroke-width="2" stroke="#000000" cx="52.9215" cy="515.137" r="8.7195" />
	
	<line id="line" fill="none" stroke="#000000" stroke-width="2" stroke-linecap="round" stroke-linejoin="round" x1="43.202" y1="515.137" x2="16.452" y2="515.137"/>
	<line id="connector27pin" fill="none" stroke="#000000" stroke-width="2" stroke-linecap="round" stroke-linejoin="round" x1="0.998" y1="534.576" x2="17.845" y2="534.576"/>
	<rect id="connector27terminal" x="0" y="533.578" width="0.998" height="1.997"/>
  <circle fill="none" stroke-width="2" stroke="#000000" cx="52.9215" cy="534.576" r="8.7195" />
	
	<line id="line" fill="none" stroke="#000000" stroke-width="2" stroke-linecap="round" stroke-linejoin="round" x1="43.202" y1="534.576" x2="16.452" y2="534.576"/>
	<line id="connector28pin" fill="none" stroke="#000000" stroke-width="2" stroke-linecap="round" stroke-linejoin="round" x1="0.998" y1="554.015" x2="17.845" y2="554.015"/>
	<rect id="connector28terminal" x="0" y="553.017" width="0.998" height="1.997"/>
  <circle fill="none" stroke-width="2" stroke="#000000" cx="52.9215" cy="554.015" r="8.7195" />
	
	<line id="line" fill="none" stroke="#000000" stroke-width="2" stroke-linecap="round" stroke-linejoin="round" x1="43.202" y1="554.015" x2="16.452" y2="554.015"/>
</g>
</svg>
