<?xml version="1.0" encoding="utf-8"?>
<!DOCTYPE svg PUBLIC "-//W3C//DTD SVG 1.1 Basic//EN" "http://www.w3.org/Graphics/SVG/1.1/DTD/svg11-basic.dtd">
<svg version="1.1" baseProfile="basic" id="svg2" xmlns:svg="http://www.w3.org/2000/svg"
	 xmlns="http://www.w3.org/2000/svg" xmlns:xlink="http://www.w3.org/1999/xlink" x="0px" y="0px" width="0.87in"
	 height="3.51in" viewBox="0 0 62.641 252.707" xml:space="preserve">
	 
<g id="schematic">
	<line id="connector0pin" fill="none" stroke="#000000" stroke-width="2" stroke-linecap="round" stroke-linejoin="round" x1="0.998" y1="9.723" x2="17.845" y2="9.723"/>
	<rect id="connector0terminal" x="0" y="8.725" width="0.998" height="1.997"/>
  <circle fill="none" stroke-width="2" stroke="#000000" cx="52.9215" cy="9.723" r="8.7195" />
	
	<line id="line" fill="none" stroke="#000000" stroke-width="2" stroke-linecap="round" stroke-linejoin="round" x1="43.202" y1="9.723" x2="16.452" y2="9.723"/>
	<line id="connector1pin" fill="none" stroke="#000000" stroke-width="2" stroke-linecap="round" stroke-linejoin="round" x1="0.998" y1="29.162" x2="17.845" y2="29.162"/>
	<rect id="connector1terminal" x="0" y="28.164" width="0.998" height="1.997"/>
  <circle fill="none" stroke-width="2" stroke="#000000" cx="52.9215" cy="29.162" r="8.7195" />
	
	<line id="line" fill="none" stroke="#000000" stroke-width="2" stroke-linecap="round" stroke-linejoin="round" x1="43.202" y1="29.162" x2="16.452" y2="29.162"/>
	<line id="connector2pin" fill="none" stroke="#000000" stroke-width="2" stroke-linecap="round" stroke-linejoin="round" x1="0.998" y1="48.601" x2="17.845" y2="48.601"/>
	<rect id="connector2terminal" x="0" y="47.603" width="0.998" height="1.997"/>
  <circle fill="none" stroke-width="2" stroke="#000000" cx="52.9215" cy="48.601" r="8.7195" />
	
	<line id="line" fill="none" stroke="#000000" stroke-width="2" stroke-linecap="round" stroke-linejoin="round" x1="43.202" y1="48.601" x2="16.452" y2="48.601"/>
	<line id="connector3pin" fill="none" stroke="#000000" stroke-width="2" stroke-linecap="round" stroke-linejoin="round" x1="0.998" y1="68.04" x2="17.845" y2="68.04"/>
	<rect id="connector3terminal" x="0" y="67.042" width="0.998" height="1.997"/>
  <circle fill="none" stroke-width="2" stroke="#000000" cx="52.9215" cy="68.04" r="8.7195" />
	
	<line id="line" fill="none" stroke="#000000" stroke-width="2" stroke-linecap="round" stroke-linejoin="round" x1="43.202" y1="68.04" x2="16.452" y2="68.04"/>
	<line id="connector4pin" fill="none" stroke="#000000" stroke-width="2" stroke-linecap="round" stroke-linejoin="round" x1="0.998" y1="87.479" x2="17.845" y2="87.479"/>
	<rect id="connector4terminal" x="0" y="86.481" width="0.998" height="1.997"/>
  <circle fill="none" stroke-width="2" stroke="#000000" cx="52.9215" cy="87.479" r="8.7195" />
	
	<line id="line" fill="none" stroke="#000000" stroke-width="2" stroke-linecap="round" stroke-linejoin="round" x1="43.202" y1="87.479" x2="16.452" y2="87.479"/>
	<line id="connector5pin" fill="none" stroke="#000000" stroke-width="2" stroke-linecap="round" stroke-linejoin="round" x1="0.998" y1="106.918" x2="17.845" y2="106.918"/>
	<rect id="connector5terminal" x="0" y="105.92" width="0.998" height="1.997"/>
  <circle fill="none" stroke-width="2" stroke="#000000" cx="52.9215" cy="106.918" r="8.7195" />
	
	<line id="line" fill="none" stroke="#000000" stroke-width="2" stroke-linecap="round" stroke-linejoin="round" x1="43.202" y1="106.918" x2="16.452" y2="106.918"/>
	<line id="connector6pin" fill="none" stroke="#000000" stroke-width="2" stroke-linecap="round" stroke-linejoin="round" x1="0.998" y1="126.357" x2="17.845" y2="126.357"/>
	<rect id="connector6terminal" x="0" y="125.359" width="0.998" height="1.997"/>
  <circle fill="none" stroke-width="2" stroke="#000000" cx="52.9215" cy="126.357" r="8.7195" />
	
	<line id="line" fill="none" stroke="#000000" stroke-width="2" stroke-linecap="round" stroke-linejoin="round" x1="43.202" y1="126.357" x2="16.452" y2="126.357"/>
	<line id="connector7pin" fill="none" stroke="#000000" stroke-width="2" stroke-linecap="round" stroke-linejoin="round" x1="0.998" y1="145.796" x2="17.845" y2="145.796"/>
	<rect id="connector7terminal" x="0" y="144.798" width="0.998" height="1.997"/>
  <circle fill="none" stroke-width="2" stroke="#000000" cx="52.9215" cy="145.796" r="8.7195" />
	
	<line id="line" fill="none" stroke="#000000" stroke-width="2" stroke-linecap="round" stroke-linejoin="round" x1="43.202" y1="145.796" x2="16.452" y2="145.796"/>
	<line id="connector8pin" fill="none" stroke="#000000" stroke-width="2" stroke-linecap="round" stroke-linejoin="round" x1="0.998" y1="165.235" x2="17.845" y2="165.235"/>
	<rect id="connector8terminal" x="0" y="164.237" width="0.998" height="1.997"/>
  <circle fill="none" stroke-width="2" stroke="#000000" cx="52.9215" cy="165.235" r="8.7195" />
	
	<line id="line" fill="none" stroke="#000000" stroke-width="2" stroke-linecap="round" stroke-linejoin="round" x1="43.202" y1="165.235" x2="16.452" y2="165.235"/>
	<line id="connector9pin" fill="none" stroke="#000000" stroke-width="2" stroke-linecap="round" stroke-linejoin="round" x1="0.998" y1="184.674" x2="17.845" y2="184.674"/>
	<rect id="connector9terminal" x="0" y="183.676" width="0.998" height="1.997"/>
  <circle fill="none" stroke-width="2" stroke="#000000" cx="52.9215" cy="184.674" r="8.7195" />
	
	<line id="line" fill="none" stroke="#000000" stroke-width="2" stroke-linecap="round" stroke-linejoin="round" x1="43.202" y1="184.674" x2="16.452" y2="184.674"/>
	<line id="connector10pin" fill="none" stroke="#000000" stroke-width="2" stroke-linecap="round" stroke-linejoin="round" x1="0.998" y1="204.113" x2="17.845" y2="204.113"/>
	<rect id="connector10terminal" x="0" y="203.115" width="0.998" height="1.997"/>
  <circle fill="none" stroke-width="2" stroke="#000000" cx="52.9215" cy="204.113" r="8.7195" />
	
	<line id="line" fill="none" stroke="#000000" stroke-width="2" stroke-linecap="round" stroke-linejoin="round" x1="43.202" y1="204.113" x2="16.452" y2="204.113"/>
	<line id="connector11pin" fill="none" stroke="#000000" stroke-width="2" stroke-linecap="round" stroke-linejoin="round" x1="0.998" y1="223.552" x2="17.845" y2="223.552"/>
	<rect id="connector11terminal" x="0" y="222.554" width="0.998" height="1.997"/>
  <circle fill="none" stroke-width="2" stroke="#000000" cx="52.9215" cy="223.552" r="8.7195" />
	
	<line id="line" fill="none" stroke="#000000" stroke-width="2" stroke-linecap="round" stroke-linejoin="round" x1="43.202" y1="223.552" x2="16.452" y2="223.552"/>
	<line id="connector12pin" fill="none" stroke="#000000" stroke-width="2" stroke-linecap="round" stroke-linejoin="round" x1="0.998" y1="242.991" x2="17.845" y2="242.991"/>
	<rect id="connector12terminal" x="0" y="241.993" width="0.998" height="1.997"/>
  <circle fill="none" stroke-width="2" stroke="#000000" cx="52.9215" cy="242.991" r="8.7195" />
	
	<line id="line" fill="none" stroke="#000000" stroke-width="2" stroke-linecap="round" stroke-linejoin="round" x1="43.202" y1="242.991" x2="16.452" y2="242.991"/>
</g>
</svg>
