<?xml version="1.0" encoding="utf-8"?>
<!DOCTYPE svg PUBLIC "-//W3C//DTD SVG 1.1 Basic//EN" "http://www.w3.org/Graphics/SVG/1.1/DTD/svg11-basic.dtd">
<svg version="1.1" baseProfile="basic" id="svg2" xmlns:svg="http://www.w3.org/2000/svg"
	 xmlns="http://www.w3.org/2000/svg" xmlns:xlink="http://www.w3.org/1999/xlink" x="0px" y="0px" width="0.87in"
	 height="15.39in" viewBox="0 0 62.641 1108.023" xml:space="preserve">
	 
<g id="schematic">
	<line id="connector0pin" fill="none" stroke="#000000" stroke-width="2" stroke-linecap="round" stroke-linejoin="round" x1="0.998" y1="9.723" x2="17.845" y2="9.723"/>
	<rect id="connector0terminal" x="0" y="8.725" width="0.998" height="1.997"/>
  <circle fill="none" stroke-width="2" stroke="#000000" cx="52.9215" cy="9.723" r="8.7195" />
	
	<line id="line" fill="none" stroke="#000000" stroke-width="2" stroke-linecap="round" stroke-linejoin="round" x1="43.202" y1="9.723" x2="16.452" y2="9.723"/>
	<line id="connector1pin" fill="none" stroke="#000000" stroke-width="2" stroke-linecap="round" stroke-linejoin="round" x1="0.998" y1="29.162" x2="17.845" y2="29.162"/>
	<rect id="connector1terminal" x="0" y="28.164" width="0.998" height="1.997"/>
  <circle fill="none" stroke-width="2" stroke="#000000" cx="52.9215" cy="29.162" r="8.7195" />
	
	<line id="line" fill="none" stroke="#000000" stroke-width="2" stroke-linecap="round" stroke-linejoin="round" x1="43.202" y1="29.162" x2="16.452" y2="29.162"/>
	<line id="connector2pin" fill="none" stroke="#000000" stroke-width="2" stroke-linecap="round" stroke-linejoin="round" x1="0.998" y1="48.601" x2="17.845" y2="48.601"/>
	<rect id="connector2terminal" x="0" y="47.603" width="0.998" height="1.997"/>
  <circle fill="none" stroke-width="2" stroke="#000000" cx="52.9215" cy="48.601" r="8.7195" />
	
	<line id="line" fill="none" stroke="#000000" stroke-width="2" stroke-linecap="round" stroke-linejoin="round" x1="43.202" y1="48.601" x2="16.452" y2="48.601"/>
	<line id="connector3pin" fill="none" stroke="#000000" stroke-width="2" stroke-linecap="round" stroke-linejoin="round" x1="0.998" y1="68.04" x2="17.845" y2="68.04"/>
	<rect id="connector3terminal" x="0" y="67.042" width="0.998" height="1.997"/>
  <circle fill="none" stroke-width="2" stroke="#000000" cx="52.9215" cy="68.04" r="8.7195" />
	
	<line id="line" fill="none" stroke="#000000" stroke-width="2" stroke-linecap="round" stroke-linejoin="round" x1="43.202" y1="68.04" x2="16.452" y2="68.04"/>
	<line id="connector4pin" fill="none" stroke="#000000" stroke-width="2" stroke-linecap="round" stroke-linejoin="round" x1="0.998" y1="87.479" x2="17.845" y2="87.479"/>
	<rect id="connector4terminal" x="0" y="86.481" width="0.998" height="1.997"/>
  <circle fill="none" stroke-width="2" stroke="#000000" cx="52.9215" cy="87.479" r="8.7195" />
	
	<line id="line" fill="none" stroke="#000000" stroke-width="2" stroke-linecap="round" stroke-linejoin="round" x1="43.202" y1="87.479" x2="16.452" y2="87.479"/>
	<line id="connector5pin" fill="none" stroke="#000000" stroke-width="2" stroke-linecap="round" stroke-linejoin="round" x1="0.998" y1="106.918" x2="17.845" y2="106.918"/>
	<rect id="connector5terminal" x="0" y="105.92" width="0.998" height="1.997"/>
  <circle fill="none" stroke-width="2" stroke="#000000" cx="52.9215" cy="106.918" r="8.7195" />
	
	<line id="line" fill="none" stroke="#000000" stroke-width="2" stroke-linecap="round" stroke-linejoin="round" x1="43.202" y1="106.918" x2="16.452" y2="106.918"/>
	<line id="connector6pin" fill="none" stroke="#000000" stroke-width="2" stroke-linecap="round" stroke-linejoin="round" x1="0.998" y1="126.357" x2="17.845" y2="126.357"/>
	<rect id="connector6terminal" x="0" y="125.359" width="0.998" height="1.997"/>
  <circle fill="none" stroke-width="2" stroke="#000000" cx="52.9215" cy="126.357" r="8.7195" />
	
	<line id="line" fill="none" stroke="#000000" stroke-width="2" stroke-linecap="round" stroke-linejoin="round" x1="43.202" y1="126.357" x2="16.452" y2="126.357"/>
	<line id="connector7pin" fill="none" stroke="#000000" stroke-width="2" stroke-linecap="round" stroke-linejoin="round" x1="0.998" y1="145.796" x2="17.845" y2="145.796"/>
	<rect id="connector7terminal" x="0" y="144.798" width="0.998" height="1.997"/>
  <circle fill="none" stroke-width="2" stroke="#000000" cx="52.9215" cy="145.796" r="8.7195" />
	
	<line id="line" fill="none" stroke="#000000" stroke-width="2" stroke-linecap="round" stroke-linejoin="round" x1="43.202" y1="145.796" x2="16.452" y2="145.796"/>
	<line id="connector8pin" fill="none" stroke="#000000" stroke-width="2" stroke-linecap="round" stroke-linejoin="round" x1="0.998" y1="165.235" x2="17.845" y2="165.235"/>
	<rect id="connector8terminal" x="0" y="164.237" width="0.998" height="1.997"/>
  <circle fill="none" stroke-width="2" stroke="#000000" cx="52.9215" cy="165.235" r="8.7195" />
	
	<line id="line" fill="none" stroke="#000000" stroke-width="2" stroke-linecap="round" stroke-linejoin="round" x1="43.202" y1="165.235" x2="16.452" y2="165.235"/>
	<line id="connector9pin" fill="none" stroke="#000000" stroke-width="2" stroke-linecap="round" stroke-linejoin="round" x1="0.998" y1="184.674" x2="17.845" y2="184.674"/>
	<rect id="connector9terminal" x="0" y="183.676" width="0.998" height="1.997"/>
  <circle fill="none" stroke-width="2" stroke="#000000" cx="52.9215" cy="184.674" r="8.7195" />
	
	<line id="line" fill="none" stroke="#000000" stroke-width="2" stroke-linecap="round" stroke-linejoin="round" x1="43.202" y1="184.674" x2="16.452" y2="184.674"/>
	<line id="connector10pin" fill="none" stroke="#000000" stroke-width="2" stroke-linecap="round" stroke-linejoin="round" x1="0.998" y1="204.113" x2="17.845" y2="204.113"/>
	<rect id="connector10terminal" x="0" y="203.115" width="0.998" height="1.997"/>
  <circle fill="none" stroke-width="2" stroke="#000000" cx="52.9215" cy="204.113" r="8.7195" />
	
	<line id="line" fill="none" stroke="#000000" stroke-width="2" stroke-linecap="round" stroke-linejoin="round" x1="43.202" y1="204.113" x2="16.452" y2="204.113"/>
	<line id="connector11pin" fill="none" stroke="#000000" stroke-width="2" stroke-linecap="round" stroke-linejoin="round" x1="0.998" y1="223.552" x2="17.845" y2="223.552"/>
	<rect id="connector11terminal" x="0" y="222.554" width="0.998" height="1.997"/>
  <circle fill="none" stroke-width="2" stroke="#000000" cx="52.9215" cy="223.552" r="8.7195" />
	
	<line id="line" fill="none" stroke="#000000" stroke-width="2" stroke-linecap="round" stroke-linejoin="round" x1="43.202" y1="223.552" x2="16.452" y2="223.552"/>
	<line id="connector12pin" fill="none" stroke="#000000" stroke-width="2" stroke-linecap="round" stroke-linejoin="round" x1="0.998" y1="242.991" x2="17.845" y2="242.991"/>
	<rect id="connector12terminal" x="0" y="241.993" width="0.998" height="1.997"/>
  <circle fill="none" stroke-width="2" stroke="#000000" cx="52.9215" cy="242.991" r="8.7195" />
	
	<line id="line" fill="none" stroke="#000000" stroke-width="2" stroke-linecap="round" stroke-linejoin="round" x1="43.202" y1="242.991" x2="16.452" y2="242.991"/>
	<line id="connector13pin" fill="none" stroke="#000000" stroke-width="2" stroke-linecap="round" stroke-linejoin="round" x1="0.998" y1="262.43" x2="17.845" y2="262.43"/>
	<rect id="connector13terminal" x="0" y="261.432" width="0.998" height="1.997"/>
  <circle fill="none" stroke-width="2" stroke="#000000" cx="52.9215" cy="262.43" r="8.7195" />
	
	<line id="line" fill="none" stroke="#000000" stroke-width="2" stroke-linecap="round" stroke-linejoin="round" x1="43.202" y1="262.43" x2="16.452" y2="262.43"/>
	<line id="connector14pin" fill="none" stroke="#000000" stroke-width="2" stroke-linecap="round" stroke-linejoin="round" x1="0.998" y1="281.869" x2="17.845" y2="281.869"/>
	<rect id="connector14terminal" x="0" y="280.871" width="0.998" height="1.997"/>
  <circle fill="none" stroke-width="2" stroke="#000000" cx="52.9215" cy="281.869" r="8.7195" />
	
	<line id="line" fill="none" stroke="#000000" stroke-width="2" stroke-linecap="round" stroke-linejoin="round" x1="43.202" y1="281.869" x2="16.452" y2="281.869"/>
	<line id="connector15pin" fill="none" stroke="#000000" stroke-width="2" stroke-linecap="round" stroke-linejoin="round" x1="0.998" y1="301.308" x2="17.845" y2="301.308"/>
	<rect id="connector15terminal" x="0" y="300.31" width="0.998" height="1.997"/>
  <circle fill="none" stroke-width="2" stroke="#000000" cx="52.9215" cy="301.308" r="8.7195" />
	
	<line id="line" fill="none" stroke="#000000" stroke-width="2" stroke-linecap="round" stroke-linejoin="round" x1="43.202" y1="301.308" x2="16.452" y2="301.308"/>
	<line id="connector16pin" fill="none" stroke="#000000" stroke-width="2" stroke-linecap="round" stroke-linejoin="round" x1="0.998" y1="320.747" x2="17.845" y2="320.747"/>
	<rect id="connector16terminal" x="0" y="319.749" width="0.998" height="1.997"/>
  <circle fill="none" stroke-width="2" stroke="#000000" cx="52.9215" cy="320.747" r="8.7195" />
	
	<line id="line" fill="none" stroke="#000000" stroke-width="2" stroke-linecap="round" stroke-linejoin="round" x1="43.202" y1="320.747" x2="16.452" y2="320.747"/>
	<line id="connector17pin" fill="none" stroke="#000000" stroke-width="2" stroke-linecap="round" stroke-linejoin="round" x1="0.998" y1="340.186" x2="17.845" y2="340.186"/>
	<rect id="connector17terminal" x="0" y="339.188" width="0.998" height="1.997"/>
  <circle fill="none" stroke-width="2" stroke="#000000" cx="52.9215" cy="340.186" r="8.7195" />
	
	<line id="line" fill="none" stroke="#000000" stroke-width="2" stroke-linecap="round" stroke-linejoin="round" x1="43.202" y1="340.186" x2="16.452" y2="340.186"/>
	<line id="connector18pin" fill="none" stroke="#000000" stroke-width="2" stroke-linecap="round" stroke-linejoin="round" x1="0.998" y1="359.625" x2="17.845" y2="359.625"/>
	<rect id="connector18terminal" x="0" y="358.627" width="0.998" height="1.997"/>
  <circle fill="none" stroke-width="2" stroke="#000000" cx="52.9215" cy="359.625" r="8.7195" />
	
	<line id="line" fill="none" stroke="#000000" stroke-width="2" stroke-linecap="round" stroke-linejoin="round" x1="43.202" y1="359.625" x2="16.452" y2="359.625"/>
	<line id="connector19pin" fill="none" stroke="#000000" stroke-width="2" stroke-linecap="round" stroke-linejoin="round" x1="0.998" y1="379.064" x2="17.845" y2="379.064"/>
	<rect id="connector19terminal" x="0" y="378.066" width="0.998" height="1.997"/>
  <circle fill="none" stroke-width="2" stroke="#000000" cx="52.9215" cy="379.064" r="8.7195" />
	
	<line id="line" fill="none" stroke="#000000" stroke-width="2" stroke-linecap="round" stroke-linejoin="round" x1="43.202" y1="379.064" x2="16.452" y2="379.064"/>
	<line id="connector20pin" fill="none" stroke="#000000" stroke-width="2" stroke-linecap="round" stroke-linejoin="round" x1="0.998" y1="398.503" x2="17.845" y2="398.503"/>
	<rect id="connector20terminal" x="0" y="397.505" width="0.998" height="1.997"/>
  <circle fill="none" stroke-width="2" stroke="#000000" cx="52.9215" cy="398.503" r="8.7195" />
	
	<line id="line" fill="none" stroke="#000000" stroke-width="2" stroke-linecap="round" stroke-linejoin="round" x1="43.202" y1="398.503" x2="16.452" y2="398.503"/>
	<line id="connector21pin" fill="none" stroke="#000000" stroke-width="2" stroke-linecap="round" stroke-linejoin="round" x1="0.998" y1="417.942" x2="17.845" y2="417.942"/>
	<rect id="connector21terminal" x="0" y="416.944" width="0.998" height="1.997"/>
  <circle fill="none" stroke-width="2" stroke="#000000" cx="52.9215" cy="417.942" r="8.7195" />
	
	<line id="line" fill="none" stroke="#000000" stroke-width="2" stroke-linecap="round" stroke-linejoin="round" x1="43.202" y1="417.942" x2="16.452" y2="417.942"/>
	<line id="connector22pin" fill="none" stroke="#000000" stroke-width="2" stroke-linecap="round" stroke-linejoin="round" x1="0.998" y1="437.381" x2="17.845" y2="437.381"/>
	<rect id="connector22terminal" x="0" y="436.383" width="0.998" height="1.997"/>
  <circle fill="none" stroke-width="2" stroke="#000000" cx="52.9215" cy="437.381" r="8.7195" />
	
	<line id="line" fill="none" stroke="#000000" stroke-width="2" stroke-linecap="round" stroke-linejoin="round" x1="43.202" y1="437.381" x2="16.452" y2="437.381"/>
	<line id="connector23pin" fill="none" stroke="#000000" stroke-width="2" stroke-linecap="round" stroke-linejoin="round" x1="0.998" y1="456.82" x2="17.845" y2="456.82"/>
	<rect id="connector23terminal" x="0" y="455.822" width="0.998" height="1.997"/>
  <circle fill="none" stroke-width="2" stroke="#000000" cx="52.9215" cy="456.82" r="8.7195" />
	
	<line id="line" fill="none" stroke="#000000" stroke-width="2" stroke-linecap="round" stroke-linejoin="round" x1="43.202" y1="456.82" x2="16.452" y2="456.82"/>
	<line id="connector24pin" fill="none" stroke="#000000" stroke-width="2" stroke-linecap="round" stroke-linejoin="round" x1="0.998" y1="476.259" x2="17.845" y2="476.259"/>
	<rect id="connector24terminal" x="0" y="475.261" width="0.998" height="1.997"/>
  <circle fill="none" stroke-width="2" stroke="#000000" cx="52.9215" cy="476.259" r="8.7195" />
	
	<line id="line" fill="none" stroke="#000000" stroke-width="2" stroke-linecap="round" stroke-linejoin="round" x1="43.202" y1="476.259" x2="16.452" y2="476.259"/>
	<line id="connector25pin" fill="none" stroke="#000000" stroke-width="2" stroke-linecap="round" stroke-linejoin="round" x1="0.998" y1="495.698" x2="17.845" y2="495.698"/>
	<rect id="connector25terminal" x="0" y="494.7" width="0.998" height="1.997"/>
  <circle fill="none" stroke-width="2" stroke="#000000" cx="52.9215" cy="495.698" r="8.7195" />
	
	<line id="line" fill="none" stroke="#000000" stroke-width="2" stroke-linecap="round" stroke-linejoin="round" x1="43.202" y1="495.698" x2="16.452" y2="495.698"/>
	<line id="connector26pin" fill="none" stroke="#000000" stroke-width="2" stroke-linecap="round" stroke-linejoin="round" x1="0.998" y1="515.137" x2="17.845" y2="515.137"/>
	<rect id="connector26terminal" x="0" y="514.139" width="0.998" height="1.997"/>
  <circle fill="none" stroke-width="2" stroke="#000000" cx="52.9215" cy="515.137" r="8.7195" />
	
	<line id="line" fill="none" stroke="#000000" stroke-width="2" stroke-linecap="round" stroke-linejoin="round" x1="43.202" y1="515.137" x2="16.452" y2="515.137"/>
	<line id="connector27pin" fill="none" stroke="#000000" stroke-width="2" stroke-linecap="round" stroke-linejoin="round" x1="0.998" y1="534.576" x2="17.845" y2="534.576"/>
	<rect id="connector27terminal" x="0" y="533.578" width="0.998" height="1.997"/>
  <circle fill="none" stroke-width="2" stroke="#000000" cx="52.9215" cy="534.576" r="8.7195" />
	
	<line id="line" fill="none" stroke="#000000" stroke-width="2" stroke-linecap="round" stroke-linejoin="round" x1="43.202" y1="534.576" x2="16.452" y2="534.576"/>
	<line id="connector28pin" fill="none" stroke="#000000" stroke-width="2" stroke-linecap="round" stroke-linejoin="round" x1="0.998" y1="554.015" x2="17.845" y2="554.015"/>
	<rect id="connector28terminal" x="0" y="553.017" width="0.998" height="1.997"/>
  <circle fill="none" stroke-width="2" stroke="#000000" cx="52.9215" cy="554.015" r="8.7195" />
	
	<line id="line" fill="none" stroke="#000000" stroke-width="2" stroke-linecap="round" stroke-linejoin="round" x1="43.202" y1="554.015" x2="16.452" y2="554.015"/>
	<line id="connector29pin" fill="none" stroke="#000000" stroke-width="2" stroke-linecap="round" stroke-linejoin="round" x1="0.998" y1="573.454" x2="17.845" y2="573.454"/>
	<rect id="connector29terminal" x="0" y="572.456" width="0.998" height="1.997"/>
  <circle fill="none" stroke-width="2" stroke="#000000" cx="52.9215" cy="573.454" r="8.7195" />
	
	<line id="line" fill="none" stroke="#000000" stroke-width="2" stroke-linecap="round" stroke-linejoin="round" x1="43.202" y1="573.454" x2="16.452" y2="573.454"/>
	<line id="connector30pin" fill="none" stroke="#000000" stroke-width="2" stroke-linecap="round" stroke-linejoin="round" x1="0.998" y1="592.893" x2="17.845" y2="592.893"/>
	<rect id="connector30terminal" x="0" y="591.895" width="0.998" height="1.997"/>
  <circle fill="none" stroke-width="2" stroke="#000000" cx="52.9215" cy="592.893" r="8.7195" />
	
	<line id="line" fill="none" stroke="#000000" stroke-width="2" stroke-linecap="round" stroke-linejoin="round" x1="43.202" y1="592.893" x2="16.452" y2="592.893"/>
	<line id="connector31pin" fill="none" stroke="#000000" stroke-width="2" stroke-linecap="round" stroke-linejoin="round" x1="0.998" y1="612.332" x2="17.845" y2="612.332"/>
	<rect id="connector31terminal" x="0" y="611.334" width="0.998" height="1.997"/>
  <circle fill="none" stroke-width="2" stroke="#000000" cx="52.9215" cy="612.332" r="8.7195" />
	
	<line id="line" fill="none" stroke="#000000" stroke-width="2" stroke-linecap="round" stroke-linejoin="round" x1="43.202" y1="612.332" x2="16.452" y2="612.332"/>
	<line id="connector32pin" fill="none" stroke="#000000" stroke-width="2" stroke-linecap="round" stroke-linejoin="round" x1="0.998" y1="631.771" x2="17.845" y2="631.771"/>
	<rect id="connector32terminal" x="0" y="630.773" width="0.998" height="1.997"/>
  <circle fill="none" stroke-width="2" stroke="#000000" cx="52.9215" cy="631.771" r="8.7195" />
	
	<line id="line" fill="none" stroke="#000000" stroke-width="2" stroke-linecap="round" stroke-linejoin="round" x1="43.202" y1="631.771" x2="16.452" y2="631.771"/>
	<line id="connector33pin" fill="none" stroke="#000000" stroke-width="2" stroke-linecap="round" stroke-linejoin="round" x1="0.998" y1="651.21" x2="17.845" y2="651.21"/>
	<rect id="connector33terminal" x="0" y="650.212" width="0.998" height="1.997"/>
  <circle fill="none" stroke-width="2" stroke="#000000" cx="52.9215" cy="651.21" r="8.7195" />
	
	<line id="line" fill="none" stroke="#000000" stroke-width="2" stroke-linecap="round" stroke-linejoin="round" x1="43.202" y1="651.21" x2="16.452" y2="651.21"/>
	<line id="connector34pin" fill="none" stroke="#000000" stroke-width="2" stroke-linecap="round" stroke-linejoin="round" x1="0.998" y1="670.649" x2="17.845" y2="670.649"/>
	<rect id="connector34terminal" x="0" y="669.651" width="0.998" height="1.997"/>
  <circle fill="none" stroke-width="2" stroke="#000000" cx="52.9215" cy="670.649" r="8.7195" />
	
	<line id="line" fill="none" stroke="#000000" stroke-width="2" stroke-linecap="round" stroke-linejoin="round" x1="43.202" y1="670.649" x2="16.452" y2="670.649"/>
	<line id="connector35pin" fill="none" stroke="#000000" stroke-width="2" stroke-linecap="round" stroke-linejoin="round" x1="0.998" y1="690.088" x2="17.845" y2="690.088"/>
	<rect id="connector35terminal" x="0" y="689.09" width="0.998" height="1.997"/>
  <circle fill="none" stroke-width="2" stroke="#000000" cx="52.9215" cy="690.088" r="8.7195" />
	
	<line id="line" fill="none" stroke="#000000" stroke-width="2" stroke-linecap="round" stroke-linejoin="round" x1="43.202" y1="690.088" x2="16.452" y2="690.088"/>
	<line id="connector36pin" fill="none" stroke="#000000" stroke-width="2" stroke-linecap="round" stroke-linejoin="round" x1="0.998" y1="709.527" x2="17.845" y2="709.527"/>
	<rect id="connector36terminal" x="0" y="708.529" width="0.998" height="1.997"/>
  <circle fill="none" stroke-width="2" stroke="#000000" cx="52.9215" cy="709.527" r="8.7195" />
	
	<line id="line" fill="none" stroke="#000000" stroke-width="2" stroke-linecap="round" stroke-linejoin="round" x1="43.202" y1="709.527" x2="16.452" y2="709.527"/>
	<line id="connector37pin" fill="none" stroke="#000000" stroke-width="2" stroke-linecap="round" stroke-linejoin="round" x1="0.998" y1="728.966" x2="17.845" y2="728.966"/>
	<rect id="connector37terminal" x="0" y="727.968" width="0.998" height="1.997"/>
  <circle fill="none" stroke-width="2" stroke="#000000" cx="52.9215" cy="728.966" r="8.7195" />
	
	<line id="line" fill="none" stroke="#000000" stroke-width="2" stroke-linecap="round" stroke-linejoin="round" x1="43.202" y1="728.966" x2="16.452" y2="728.966"/>
	<line id="connector38pin" fill="none" stroke="#000000" stroke-width="2" stroke-linecap="round" stroke-linejoin="round" x1="0.998" y1="748.405" x2="17.845" y2="748.405"/>
	<rect id="connector38terminal" x="0" y="747.407" width="0.998" height="1.997"/>
  <circle fill="none" stroke-width="2" stroke="#000000" cx="52.9215" cy="748.405" r="8.7195" />
	
	<line id="line" fill="none" stroke="#000000" stroke-width="2" stroke-linecap="round" stroke-linejoin="round" x1="43.202" y1="748.405" x2="16.452" y2="748.405"/>
	<line id="connector39pin" fill="none" stroke="#000000" stroke-width="2" stroke-linecap="round" stroke-linejoin="round" x1="0.998" y1="767.844" x2="17.845" y2="767.844"/>
	<rect id="connector39terminal" x="0" y="766.846" width="0.998" height="1.997"/>
  <circle fill="none" stroke-width="2" stroke="#000000" cx="52.9215" cy="767.844" r="8.7195" />
	
	<line id="line" fill="none" stroke="#000000" stroke-width="2" stroke-linecap="round" stroke-linejoin="round" x1="43.202" y1="767.844" x2="16.452" y2="767.844"/>
	<line id="connector40pin" fill="none" stroke="#000000" stroke-width="2" stroke-linecap="round" stroke-linejoin="round" x1="0.998" y1="787.283" x2="17.845" y2="787.283"/>
	<rect id="connector40terminal" x="0" y="786.285" width="0.998" height="1.997"/>
  <circle fill="none" stroke-width="2" stroke="#000000" cx="52.9215" cy="787.283" r="8.7195" />
	
	<line id="line" fill="none" stroke="#000000" stroke-width="2" stroke-linecap="round" stroke-linejoin="round" x1="43.202" y1="787.283" x2="16.452" y2="787.283"/>
	<line id="connector41pin" fill="none" stroke="#000000" stroke-width="2" stroke-linecap="round" stroke-linejoin="round" x1="0.998" y1="806.722" x2="17.845" y2="806.722"/>
	<rect id="connector41terminal" x="0" y="805.724" width="0.998" height="1.997"/>
  <circle fill="none" stroke-width="2" stroke="#000000" cx="52.9215" cy="806.722" r="8.7195" />
	
	<line id="line" fill="none" stroke="#000000" stroke-width="2" stroke-linecap="round" stroke-linejoin="round" x1="43.202" y1="806.722" x2="16.452" y2="806.722"/>
	<line id="connector42pin" fill="none" stroke="#000000" stroke-width="2" stroke-linecap="round" stroke-linejoin="round" x1="0.998" y1="826.161" x2="17.845" y2="826.161"/>
	<rect id="connector42terminal" x="0" y="825.163" width="0.998" height="1.997"/>
  <circle fill="none" stroke-width="2" stroke="#000000" cx="52.9215" cy="826.161" r="8.7195" />
	
	<line id="line" fill="none" stroke="#000000" stroke-width="2" stroke-linecap="round" stroke-linejoin="round" x1="43.202" y1="826.161" x2="16.452" y2="826.161"/>
	<line id="connector43pin" fill="none" stroke="#000000" stroke-width="2" stroke-linecap="round" stroke-linejoin="round" x1="0.998" y1="845.6" x2="17.845" y2="845.6"/>
	<rect id="connector43terminal" x="0" y="844.602" width="0.998" height="1.997"/>
  <circle fill="none" stroke-width="2" stroke="#000000" cx="52.9215" cy="845.6" r="8.7195" />
	
	<line id="line" fill="none" stroke="#000000" stroke-width="2" stroke-linecap="round" stroke-linejoin="round" x1="43.202" y1="845.6" x2="16.452" y2="845.6"/>
	<line id="connector44pin" fill="none" stroke="#000000" stroke-width="2" stroke-linecap="round" stroke-linejoin="round" x1="0.998" y1="865.039" x2="17.845" y2="865.039"/>
	<rect id="connector44terminal" x="0" y="864.041" width="0.998" height="1.997"/>
  <circle fill="none" stroke-width="2" stroke="#000000" cx="52.9215" cy="865.039" r="8.7195" />
	
	<line id="line" fill="none" stroke="#000000" stroke-width="2" stroke-linecap="round" stroke-linejoin="round" x1="43.202" y1="865.039" x2="16.452" y2="865.039"/>
	<line id="connector45pin" fill="none" stroke="#000000" stroke-width="2" stroke-linecap="round" stroke-linejoin="round" x1="0.998" y1="884.478" x2="17.845" y2="884.478"/>
	<rect id="connector45terminal" x="0" y="883.48" width="0.998" height="1.997"/>
  <circle fill="none" stroke-width="2" stroke="#000000" cx="52.9215" cy="884.478" r="8.7195" />
	
	<line id="line" fill="none" stroke="#000000" stroke-width="2" stroke-linecap="round" stroke-linejoin="round" x1="43.202" y1="884.478" x2="16.452" y2="884.478"/>
	<line id="connector46pin" fill="none" stroke="#000000" stroke-width="2" stroke-linecap="round" stroke-linejoin="round" x1="0.998" y1="903.917" x2="17.845" y2="903.917"/>
	<rect id="connector46terminal" x="0" y="902.919" width="0.998" height="1.997"/>
  <circle fill="none" stroke-width="2" stroke="#000000" cx="52.9215" cy="903.917" r="8.7195" />
	
	<line id="line" fill="none" stroke="#000000" stroke-width="2" stroke-linecap="round" stroke-linejoin="round" x1="43.202" y1="903.917" x2="16.452" y2="903.917"/>
	<line id="connector47pin" fill="none" stroke="#000000" stroke-width="2" stroke-linecap="round" stroke-linejoin="round" x1="0.998" y1="923.356" x2="17.845" y2="923.356"/>
	<rect id="connector47terminal" x="0" y="922.358" width="0.998" height="1.997"/>
  <circle fill="none" stroke-width="2" stroke="#000000" cx="52.9215" cy="923.356" r="8.7195" />
	
	<line id="line" fill="none" stroke="#000000" stroke-width="2" stroke-linecap="round" stroke-linejoin="round" x1="43.202" y1="923.356" x2="16.452" y2="923.356"/>
	<line id="connector48pin" fill="none" stroke="#000000" stroke-width="2" stroke-linecap="round" stroke-linejoin="round" x1="0.998" y1="942.795" x2="17.845" y2="942.795"/>
	<rect id="connector48terminal" x="0" y="941.797" width="0.998" height="1.997"/>
  <circle fill="none" stroke-width="2" stroke="#000000" cx="52.9215" cy="942.795" r="8.7195" />
	
	<line id="line" fill="none" stroke="#000000" stroke-width="2" stroke-linecap="round" stroke-linejoin="round" x1="43.202" y1="942.795" x2="16.452" y2="942.795"/>
	<line id="connector49pin" fill="none" stroke="#000000" stroke-width="2" stroke-linecap="round" stroke-linejoin="round" x1="0.998" y1="962.234" x2="17.845" y2="962.234"/>
	<rect id="connector49terminal" x="0" y="961.236" width="0.998" height="1.997"/>
  <circle fill="none" stroke-width="2" stroke="#000000" cx="52.9215" cy="962.234" r="8.7195" />
	
	<line id="line" fill="none" stroke="#000000" stroke-width="2" stroke-linecap="round" stroke-linejoin="round" x1="43.202" y1="962.234" x2="16.452" y2="962.234"/>
	<line id="connector50pin" fill="none" stroke="#000000" stroke-width="2" stroke-linecap="round" stroke-linejoin="round" x1="0.998" y1="981.673" x2="17.845" y2="981.673"/>
	<rect id="connector50terminal" x="0" y="980.675" width="0.998" height="1.997"/>
  <circle fill="none" stroke-width="2" stroke="#000000" cx="52.9215" cy="981.673" r="8.7195" />
	
	<line id="line" fill="none" stroke="#000000" stroke-width="2" stroke-linecap="round" stroke-linejoin="round" x1="43.202" y1="981.673" x2="16.452" y2="981.673"/>
	<line id="connector51pin" fill="none" stroke="#000000" stroke-width="2" stroke-linecap="round" stroke-linejoin="round" x1="0.998" y1="1001.112" x2="17.845" y2="1001.112"/>
	<rect id="connector51terminal" x="0" y="1000.114" width="0.998" height="1.997"/>
  <circle fill="none" stroke-width="2" stroke="#000000" cx="52.9215" cy="1001.112" r="8.7195" />
	
	<line id="line" fill="none" stroke="#000000" stroke-width="2" stroke-linecap="round" stroke-linejoin="round" x1="43.202" y1="1001.112" x2="16.452" y2="1001.112"/>
	<line id="connector52pin" fill="none" stroke="#000000" stroke-width="2" stroke-linecap="round" stroke-linejoin="round" x1="0.998" y1="1020.551" x2="17.845" y2="1020.551"/>
	<rect id="connector52terminal" x="0" y="1019.553" width="0.998" height="1.997"/>
  <circle fill="none" stroke-width="2" stroke="#000000" cx="52.9215" cy="1020.551" r="8.7195" />
	
	<line id="line" fill="none" stroke="#000000" stroke-width="2" stroke-linecap="round" stroke-linejoin="round" x1="43.202" y1="1020.551" x2="16.452" y2="1020.551"/>
	<line id="connector53pin" fill="none" stroke="#000000" stroke-width="2" stroke-linecap="round" stroke-linejoin="round" x1="0.998" y1="1039.99" x2="17.845" y2="1039.99"/>
	<rect id="connector53terminal" x="0" y="1038.992" width="0.998" height="1.997"/>
  <circle fill="none" stroke-width="2" stroke="#000000" cx="52.9215" cy="1039.99" r="8.7195" />
	
	<line id="line" fill="none" stroke="#000000" stroke-width="2" stroke-linecap="round" stroke-linejoin="round" x1="43.202" y1="1039.99" x2="16.452" y2="1039.99"/>
	<line id="connector54pin" fill="none" stroke="#000000" stroke-width="2" stroke-linecap="round" stroke-linejoin="round" x1="0.998" y1="1059.429" x2="17.845" y2="1059.429"/>
	<rect id="connector54terminal" x="0" y="1058.431" width="0.998" height="1.997"/>
  <circle fill="none" stroke-width="2" stroke="#000000" cx="52.9215" cy="1059.429" r="8.7195" />
	
	<line id="line" fill="none" stroke="#000000" stroke-width="2" stroke-linecap="round" stroke-linejoin="round" x1="43.202" y1="1059.429" x2="16.452" y2="1059.429"/>
	<line id="connector55pin" fill="none" stroke="#000000" stroke-width="2" stroke-linecap="round" stroke-linejoin="round" x1="0.998" y1="1078.868" x2="17.845" y2="1078.868"/>
	<rect id="connector55terminal" x="0" y="1077.87" width="0.998" height="1.997"/>
  <circle fill="none" stroke-width="2" stroke="#000000" cx="52.9215" cy="1078.868" r="8.7195" />
	
	<line id="line" fill="none" stroke="#000000" stroke-width="2" stroke-linecap="round" stroke-linejoin="round" x1="43.202" y1="1078.868" x2="16.452" y2="1078.868"/>
	<line id="connector56pin" fill="none" stroke="#000000" stroke-width="2" stroke-linecap="round" stroke-linejoin="round" x1="0.998" y1="1098.307" x2="17.845" y2="1098.307"/>
	<rect id="connector56terminal" x="0" y="1097.309" width="0.998" height="1.997"/>
  <circle fill="none" stroke-width="2" stroke="#000000" cx="52.9215" cy="1098.307" r="8.7195" />
	
	<line id="line" fill="none" stroke="#000000" stroke-width="2" stroke-linecap="round" stroke-linejoin="round" x1="43.202" y1="1098.307" x2="16.452" y2="1098.307"/>
</g>
</svg>
