<?xml version="1.0" encoding="UTF-8" standalone="no"?>
<svg xmlns:svg="http://www.w3.org/2000/svg" xmlns="http://www.w3.org/2000/svg" version="1.2" baseProfile="tiny" 
     width="4.32964in" height="0.7in" viewBox="0 0 4329.64 700" >
  <g id="schematic" >
   <circle fill="none" cx="133.758" cy="137.74" stroke="#000000" r="119.981" stroke-width="27.5534" />
   <line x1="133.758" y1="258.775" x2="133.758" y2="547.292" fill="none" stroke="#000000" stroke-width="27.5534"  />
   <line x1="133.758" y1="688.882" x2="133.758" y2="454.761" id="connector0pin" fill="none" stroke="#000000" stroke-linejoin="round" stroke-linecap="square" stroke-width="27.5534" />
   <rect x="119.9813" y="684.949" width="27.5534" height="13.8699" id="connector0terminal" stroke-width="0" />
   <circle fill="none" cx="446.228" cy="137.74" stroke="#000000" r="119.981" stroke-width="27.5534" />
   <line x1="446.228" y1="258.775" x2="446.228" y2="547.292" fill="none" stroke="#000000" stroke-width="27.5534"  />
   <line x1="446.228" y1="688.882" x2="446.228" y2="454.761" id="connector1pin" fill="none" stroke="#000000" stroke-linejoin="round" stroke-linecap="square" stroke-width="27.5534" />
   <rect x="432.4513" y="684.949" width="27.5534" height="13.8699" id="connector1terminal" stroke-width="0" />
   <circle fill="none" cx="758.698" cy="137.74" stroke="#000000" r="119.981" stroke-width="27.5534" />
   <line x1="758.698" y1="258.775" x2="758.698" y2="547.292" fill="none" stroke="#000000" stroke-width="27.5534"  />
   <line x1="758.698" y1="688.882" x2="758.698" y2="454.761" id="connector2pin" fill="none" stroke="#000000" stroke-linejoin="round" stroke-linecap="square" stroke-width="27.5534" />
   <rect x="744.9213" y="684.949" width="27.5534" height="13.8699" id="connector2terminal" stroke-width="0" />
   <circle fill="none" cx="1071.168" cy="137.74" stroke="#000000" r="119.981" stroke-width="27.5534" />
   <line x1="1071.168" y1="258.775" x2="1071.168" y2="547.292" fill="none" stroke="#000000" stroke-width="27.5534"  />
   <line x1="1071.168" y1="688.882" x2="1071.168" y2="454.761" id="connector3pin" fill="none" stroke="#000000" stroke-linejoin="round" stroke-linecap="square" stroke-width="27.5534" />
   <rect x="1057.3913" y="684.949" width="27.5534" height="13.8699" id="connector3terminal" stroke-width="0" />
   <circle fill="none" cx="1383.638" cy="137.74" stroke="#000000" r="119.981" stroke-width="27.5534" />
   <line x1="1383.638" y1="258.775" x2="1383.638" y2="547.292" fill="none" stroke="#000000" stroke-width="27.5534"  />
   <line x1="1383.638" y1="688.882" x2="1383.638" y2="454.761" id="connector4pin" fill="none" stroke="#000000" stroke-linejoin="round" stroke-linecap="square" stroke-width="27.5534" />
   <rect x="1369.8613" y="684.949" width="27.5534" height="13.8699" id="connector4terminal" stroke-width="0" />
   <circle fill="none" cx="1696.108" cy="137.74" stroke="#000000" r="119.981" stroke-width="27.5534" />
   <line x1="1696.108" y1="258.775" x2="1696.108" y2="547.292" fill="none" stroke="#000000" stroke-width="27.5534"  />
   <line x1="1696.108" y1="688.882" x2="1696.108" y2="454.761" id="connector5pin" fill="none" stroke="#000000" stroke-linejoin="round" stroke-linecap="square" stroke-width="27.5534" />
   <rect x="1682.3313" y="684.949" width="27.5534" height="13.8699" id="connector5terminal" stroke-width="0" />
   <circle fill="none" cx="2008.578" cy="137.74" stroke="#000000" r="119.981" stroke-width="27.5534" />
   <line x1="2008.578" y1="258.775" x2="2008.578" y2="547.292" fill="none" stroke="#000000" stroke-width="27.5534"  />
   <line x1="2008.578" y1="688.882" x2="2008.578" y2="454.761" id="connector6pin" fill="none" stroke="#000000" stroke-linejoin="round" stroke-linecap="square" stroke-width="27.5534" />
   <rect x="1994.8013" y="684.949" width="27.5534" height="13.8699" id="connector6terminal" stroke-width="0" />
   <circle fill="none" cx="2321.048" cy="137.74" stroke="#000000" r="119.981" stroke-width="27.5534" />
   <line x1="2321.048" y1="258.775" x2="2321.048" y2="547.292" fill="none" stroke="#000000" stroke-width="27.5534"  />
   <line x1="2321.048" y1="688.882" x2="2321.048" y2="454.761" id="connector7pin" fill="none" stroke="#000000" stroke-linejoin="round" stroke-linecap="square" stroke-width="27.5534" />
   <rect x="2307.2713" y="684.949" width="27.5534" height="13.8699" id="connector7terminal" stroke-width="0" />
   <circle fill="none" cx="2633.518" cy="137.74" stroke="#000000" r="119.981" stroke-width="27.5534" />
   <line x1="2633.518" y1="258.775" x2="2633.518" y2="547.292" fill="none" stroke="#000000" stroke-width="27.5534"  />
   <line x1="2633.518" y1="688.882" x2="2633.518" y2="454.761" id="connector8pin" fill="none" stroke="#000000" stroke-linejoin="round" stroke-linecap="square" stroke-width="27.5534" />
   <rect x="2619.7413" y="684.949" width="27.5534" height="13.8699" id="connector8terminal" stroke-width="0" />
   <circle fill="none" cx="2945.988" cy="137.74" stroke="#000000" r="119.981" stroke-width="27.5534" />
   <line x1="2945.988" y1="258.775" x2="2945.988" y2="547.292" fill="none" stroke="#000000" stroke-width="27.5534"  />
   <line x1="2945.988" y1="688.882" x2="2945.988" y2="454.761" id="connector9pin" fill="none" stroke="#000000" stroke-linejoin="round" stroke-linecap="square" stroke-width="27.5534" />
   <rect x="2932.2113" y="684.949" width="27.5534" height="13.8699" id="connector9terminal" stroke-width="0" />
   <circle fill="none" cx="3258.458" cy="137.74" stroke="#000000" r="119.981" stroke-width="27.5534" />
   <line x1="3258.458" y1="258.775" x2="3258.458" y2="547.292" fill="none" stroke="#000000" stroke-width="27.5534"  />
   <line x1="3258.458" y1="688.882" x2="3258.458" y2="454.761" id="connector10pin" fill="none" stroke="#000000" stroke-linejoin="round" stroke-linecap="square" stroke-width="27.5534" />
   <rect x="3244.6813" y="684.949" width="27.5534" height="13.8699" id="connector10terminal" stroke-width="0" />
   <circle fill="none" cx="3570.928" cy="137.74" stroke="#000000" r="119.981" stroke-width="27.5534" />
   <line x1="3570.928" y1="258.775" x2="3570.928" y2="547.292" fill="none" stroke="#000000" stroke-width="27.5534"  />
   <line x1="3570.928" y1="688.882" x2="3570.928" y2="454.761" id="connector11pin" fill="none" stroke="#000000" stroke-linejoin="round" stroke-linecap="square" stroke-width="27.5534" />
   <rect x="3557.1513" y="684.949" width="27.5534" height="13.8699" id="connector11terminal" stroke-width="0" />
   <circle fill="none" cx="3883.398" cy="137.74" stroke="#000000" r="119.981" stroke-width="27.5534" />
   <line x1="3883.398" y1="258.775" x2="3883.398" y2="547.292" fill="none" stroke="#000000" stroke-width="27.5534"  />
   <line x1="3883.398" y1="688.882" x2="3883.398" y2="454.761" id="connector12pin" fill="none" stroke="#000000" stroke-linejoin="round" stroke-linecap="square" stroke-width="27.5534" />
   <rect x="3869.6213" y="684.949" width="27.5534" height="13.8699" id="connector12terminal" stroke-width="0" />
   <circle fill="none" cx="4195.868" cy="137.74" stroke="#000000" r="119.981" stroke-width="27.5534" />
   <line x1="4195.868" y1="258.775" x2="4195.868" y2="547.292" fill="none" stroke="#000000" stroke-width="27.5534"  />
   <line x1="4195.868" y1="688.882" x2="4195.868" y2="454.761" id="connector13pin" fill="none" stroke="#000000" stroke-linejoin="round" stroke-linecap="square" stroke-width="27.5534" />
   <rect x="4182.0913" y="684.949" width="27.5534" height="13.8699" id="connector13terminal" stroke-width="0" />
</g>
</svg>