<?xml version='1.0' encoding='UTF-8' standalone='no'?>
<!-- Created with Fritzing (http://www.fritzing.org/) -->
<svg xmlns="http://www.w3.org/2000/svg" width="3.28136in" x="0in" version="1.2" y="0in" height="10.368in" viewBox="0 0 236.258 746.496" baseProfile="tiny">
 <desc >Fritzing schematic generated by brd2svg</desc>
 <g  id="schematic" stroke-width="0">
  <rect  width="191.339" x="22.4598" y="22.4598" fill="none" height="701.574" stroke="#000000" stroke-linejoin="round" stroke-linecap="round" stroke-width="2.4"/>
  <text  x="118.129" y="64.9795" font-family="DroidSans" fill="#000000" text-anchor="middle" stroke="none" id="label" stroke-width="0" font-size="18">wiringboard</text>
  <line  fill="none" stroke="#000000" stroke-linejoin="round" stroke-linecap="round" y1="64.9795" stroke-width="2.4" x1="1.2" y2="64.9795" x2="21.2599"/>
  <rect  width="21.2599" x="0" y="63.7795" fill="none" height="2.4" id="connector94pin" stroke-width="0" connectorName="1"/>
  <rect  width="2.4" x="0" y="63.7795" fill="none" height="2.4" id="connector94terminal" stroke-width="0"/>
  <text  x="27.7399" y="67.3795" font-family="DroidSans" fill="#000000" text-anchor="start" stroke="none" id="label94" stroke-width="0" font-size="9.936">1</text>
  <line  fill="none" stroke="#000000" stroke-linejoin="round" stroke-linecap="round" y1="86.2394" stroke-width="2.4" x1="1.2" y2="86.2394" x2="21.2599"/>
  <rect  width="21.2599" x="0" y="85.0392" fill="none" height="2.4" id="connector70pin" stroke-width="0" connectorName="1"/>
  <rect  width="2.4" x="0" y="85.0392" fill="none" height="2.4" id="connector70terminal" stroke-width="0"/>
  <text  x="27.7399" y="88.6392" font-family="DroidSans" fill="#000000" text-anchor="start" stroke="none" id="label70" stroke-width="0" font-size="9.936">1</text>
  <line  fill="none" stroke="#000000" stroke-linejoin="round" stroke-linecap="round" y1="107.499" stroke-width="2.4" x1="1.2" y2="107.499" x2="21.2599"/>
  <rect  width="21.2599" x="0" y="106.299" fill="none" height="2.4" id="connector54pin" stroke-width="0" connectorName="1"/>
  <rect  width="2.4" x="0" y="106.299" fill="none" height="2.4" id="connector54terminal" stroke-width="0"/>
  <text  x="27.7399" y="109.899" font-family="DroidSans" fill="#000000" text-anchor="start" stroke="none" id="label54" stroke-width="0" font-size="9.936">1</text>
  <line  fill="none" stroke="#000000" stroke-linejoin="round" stroke-linecap="round" y1="128.759" stroke-width="2.4" x1="1.2" y2="128.759" x2="21.2599"/>
  <rect  width="21.2599" x="0" y="127.559" fill="none" height="2.4" id="connector86pin" stroke-width="0" connectorName="1"/>
  <rect  width="2.4" x="0" y="127.559" fill="none" height="2.4" id="connector86terminal" stroke-width="0"/>
  <text  x="27.7399" y="131.159" font-family="DroidSans" fill="#000000" text-anchor="start" stroke="none" id="label86" stroke-width="0" font-size="9.936">1</text>
  <line  fill="none" stroke="#000000" stroke-linejoin="round" stroke-linecap="round" y1="150.019" stroke-width="2.4" x1="1.2" y2="150.019" x2="21.2599"/>
  <rect  width="21.2599" x="0" y="148.819" fill="none" height="2.4" id="connector102pin" stroke-width="0" connectorName="1"/>
  <rect  width="2.4" x="0" y="148.819" fill="none" height="2.4" id="connector102terminal" stroke-width="0"/>
  <text  x="27.7399" y="152.419" font-family="DroidSans" fill="#000000" text-anchor="start" stroke="none" id="label102" stroke-width="0" font-size="9.936">1</text>
  <line  fill="none" stroke="#000000" stroke-linejoin="round" stroke-linecap="round" y1="171.279" stroke-width="2.4" x1="1.2" y2="171.279" x2="21.2599"/>
  <rect  width="21.2599" x="0" y="170.078" fill="none" height="2.4" id="connector62pin" stroke-width="0" connectorName="1"/>
  <rect  width="2.4" x="0" y="170.078" fill="none" height="2.4" id="connector62terminal" stroke-width="0"/>
  <text  x="27.7399" y="173.678" font-family="DroidSans" fill="#000000" text-anchor="start" stroke="none" id="label62" stroke-width="0" font-size="9.936">1</text>
  <line  fill="none" stroke="#000000" stroke-linejoin="round" stroke-linecap="round" y1="192.539" stroke-width="2.4" x1="1.2" y2="192.539" x2="21.2599"/>
  <rect  width="21.2599" x="0" y="191.339" fill="none" height="2.4" id="connector87pin" stroke-width="0" connectorName="2"/>
  <rect  width="2.4" x="0" y="191.339" fill="none" height="2.4" id="connector87terminal" stroke-width="0"/>
  <text  x="27.7399" y="194.939" font-family="DroidSans" fill="#000000" text-anchor="start" stroke="none" id="label87" stroke-width="0" font-size="9.936">2</text>
  <line  fill="none" stroke="#000000" stroke-linejoin="round" stroke-linecap="round" y1="213.798" stroke-width="2.4" x1="1.2" y2="213.798" x2="21.2599"/>
  <rect  width="21.2599" x="0" y="212.599" fill="none" height="2.4" id="connector103pin" stroke-width="0" connectorName="2"/>
  <rect  width="2.4" x="0" y="212.599" fill="none" height="2.4" id="connector103terminal" stroke-width="0"/>
  <text  x="27.7399" y="216.199" font-family="DroidSans" fill="#000000" text-anchor="start" stroke="none" id="label103" stroke-width="0" font-size="9.936">2</text>
  <line  fill="none" stroke="#000000" stroke-linejoin="round" stroke-linecap="round" y1="235.058" stroke-width="2.4" x1="1.2" y2="235.058" x2="21.2599"/>
  <rect  width="21.2599" x="0" y="233.858" fill="none" height="2.4" id="connector55pin" stroke-width="0" connectorName="N$26"/>
  <rect  width="2.4" x="0" y="233.858" fill="none" height="2.4" id="connector55terminal" stroke-width="0"/>
  <text  x="27.7399" y="237.458" font-family="DroidSans" fill="#000000" text-anchor="start" stroke="none" id="label55" stroke-width="0" font-size="9.936">N$26</text>
  <line  fill="none" stroke="#000000" stroke-linejoin="round" stroke-linecap="round" y1="256.318" stroke-width="2.4" x1="1.2" y2="256.318" x2="21.2599"/>
  <rect  width="21.2599" x="0" y="255.118" fill="none" height="2.4" id="connector71pin" stroke-width="0" connectorName="2"/>
  <rect  width="2.4" x="0" y="255.118" fill="none" height="2.4" id="connector71terminal" stroke-width="0"/>
  <text  x="27.7399" y="258.718" font-family="DroidSans" fill="#000000" text-anchor="start" stroke="none" id="label71" stroke-width="0" font-size="9.936">2</text>
  <line  fill="none" stroke="#000000" stroke-linejoin="round" stroke-linecap="round" y1="277.578" stroke-width="2.4" x1="1.2" y2="277.578" x2="21.2599"/>
  <rect  width="21.2599" x="0" y="276.378" fill="none" height="2.4" id="connector95pin" stroke-width="0" connectorName="2"/>
  <rect  width="2.4" x="0" y="276.378" fill="none" height="2.4" id="connector95terminal" stroke-width="0"/>
  <text  x="27.7399" y="279.978" font-family="DroidSans" fill="#000000" text-anchor="start" stroke="none" id="label95" stroke-width="0" font-size="9.936">2</text>
  <line  fill="none" stroke="#000000" stroke-linejoin="round" stroke-linecap="round" y1="298.837" stroke-width="2.4" x1="1.2" y2="298.837" x2="21.2599"/>
  <rect  width="21.2599" x="0" y="297.638" fill="none" height="2.4" id="connector104pin" stroke-width="0" connectorName="3"/>
  <rect  width="2.4" x="0" y="297.638" fill="none" height="2.4" id="connector104terminal" stroke-width="0"/>
  <text  x="27.7399" y="301.238" font-family="DroidSans" fill="#000000" text-anchor="start" stroke="none" id="label104" stroke-width="0" font-size="9.936">3</text>
  <line  fill="none" stroke="#000000" stroke-linejoin="round" stroke-linecap="round" y1="320.098" stroke-width="2.4" x1="1.2" y2="320.098" x2="21.2599"/>
  <rect  width="21.2599" x="0" y="318.897" fill="none" height="2.4" id="connector72pin" stroke-width="0" connectorName="N$35"/>
  <rect  width="2.4" x="0" y="318.897" fill="none" height="2.4" id="connector72terminal" stroke-width="0"/>
  <text  x="27.7399" y="322.497" font-family="DroidSans" fill="#000000" text-anchor="start" stroke="none" id="label72" stroke-width="0" font-size="9.936">N$35</text>
  <line  fill="none" stroke="#000000" stroke-linejoin="round" stroke-linecap="round" y1="341.358" stroke-width="2.4" x1="1.2" y2="341.358" x2="21.2599"/>
  <rect  width="21.2599" x="0" y="340.158" fill="none" height="2.4" id="connector64pin" stroke-width="0" connectorName="3"/>
  <rect  width="2.4" x="0" y="340.158" fill="none" height="2.4" id="connector64terminal" stroke-width="0"/>
  <text  x="27.7399" y="343.758" font-family="DroidSans" fill="#000000" text-anchor="start" stroke="none" id="label64" stroke-width="0" font-size="9.936">3</text>
  <line  fill="none" stroke="#000000" stroke-linejoin="round" stroke-linecap="round" y1="362.617" stroke-width="2.4" x1="1.2" y2="362.617" x2="21.2599"/>
  <rect  width="21.2599" x="0" y="361.418" fill="none" height="2.4" id="connector80pin" stroke-width="0" connectorName="3"/>
  <rect  width="2.4" x="0" y="361.418" fill="none" height="2.4" id="connector80terminal" stroke-width="0"/>
  <text  x="27.7399" y="365.018" font-family="DroidSans" fill="#000000" text-anchor="start" stroke="none" id="label80" stroke-width="0" font-size="9.936">3</text>
  <line  fill="none" stroke="#000000" stroke-linejoin="round" stroke-linecap="round" y1="383.877" stroke-width="2.4" x1="1.2" y2="383.877" x2="21.2599"/>
  <rect  width="21.2599" x="0" y="382.677" fill="none" height="2.4" id="connector56pin" stroke-width="0" connectorName="3"/>
  <rect  width="2.4" x="0" y="382.677" fill="none" height="2.4" id="connector56terminal" stroke-width="0"/>
  <text  x="27.7399" y="386.277" font-family="DroidSans" fill="#000000" text-anchor="start" stroke="none" id="label56" stroke-width="0" font-size="9.936">3</text>
  <line  fill="none" stroke="#000000" stroke-linejoin="round" stroke-linecap="round" y1="405.137" stroke-width="2.4" x1="1.2" y2="405.137" x2="21.2599"/>
  <rect  width="21.2599" x="0" y="403.937" fill="none" height="2.4" id="connector96pin" stroke-width="0" connectorName="3"/>
  <rect  width="2.4" x="0" y="403.937" fill="none" height="2.4" id="connector96terminal" stroke-width="0"/>
  <text  x="27.7399" y="407.537" font-family="DroidSans" fill="#000000" text-anchor="start" stroke="none" id="label96" stroke-width="0" font-size="9.936">3</text>
  <line  fill="none" stroke="#000000" stroke-linejoin="round" stroke-linecap="round" y1="426.397" stroke-width="2.4" x1="1.2" y2="426.397" x2="21.2599"/>
  <rect  width="21.2599" x="0" y="425.197" fill="none" height="2.4" id="connector97pin" stroke-width="0" connectorName="4"/>
  <rect  width="2.4" x="0" y="425.197" fill="none" height="2.4" id="connector97terminal" stroke-width="0"/>
  <text  x="27.7399" y="428.797" font-family="DroidSans" fill="#000000" text-anchor="start" stroke="none" id="label97" stroke-width="0" font-size="9.936">4</text>
  <line  fill="none" stroke="#000000" stroke-linejoin="round" stroke-linecap="round" y1="447.656" stroke-width="2.4" x1="1.2" y2="447.656" x2="21.2599"/>
  <rect  width="21.2599" x="0" y="446.457" fill="none" height="2.4" id="connector105pin" stroke-width="0" connectorName="4"/>
  <rect  width="2.4" x="0" y="446.457" fill="none" height="2.4" id="connector105terminal" stroke-width="0"/>
  <text  x="27.7399" y="450.057" font-family="DroidSans" fill="#000000" text-anchor="start" stroke="none" id="label105" stroke-width="0" font-size="9.936">4</text>
  <line  fill="none" stroke="#000000" stroke-linejoin="round" stroke-linecap="round" y1="468.917" stroke-width="2.4" x1="1.2" y2="468.917" x2="21.2599"/>
  <rect  width="21.2599" x="0" y="467.716" fill="none" height="2.4" id="connector57pin" stroke-width="0" connectorName="4"/>
  <rect  width="2.4" x="0" y="467.716" fill="none" height="2.4" id="connector57terminal" stroke-width="0"/>
  <text  x="27.7399" y="471.316" font-family="DroidSans" fill="#000000" text-anchor="start" stroke="none" id="label57" stroke-width="0" font-size="9.936">4</text>
  <line  fill="none" stroke="#000000" stroke-linejoin="round" stroke-linecap="round" y1="490.177" stroke-width="2.4" x1="1.2" y2="490.177" x2="21.2599"/>
  <rect  width="21.2599" x="0" y="488.976" fill="none" height="2.4" id="connector81pin" stroke-width="0" connectorName="N$42"/>
  <rect  width="2.4" x="0" y="488.976" fill="none" height="2.4" id="connector81terminal" stroke-width="0"/>
  <text  x="27.7399" y="492.576" font-family="DroidSans" fill="#000000" text-anchor="start" stroke="none" id="label81" stroke-width="0" font-size="9.936">N$42</text>
  <line  fill="none" stroke="#000000" stroke-linejoin="round" stroke-linecap="round" y1="511.436" stroke-width="2.4" x1="1.2" y2="511.436" x2="21.2599"/>
  <rect  width="21.2599" x="0" y="510.236" fill="none" height="2.4" id="connector65pin" stroke-width="0" connectorName="4"/>
  <rect  width="2.4" x="0" y="510.236" fill="none" height="2.4" id="connector65terminal" stroke-width="0"/>
  <text  x="27.7399" y="513.836" font-family="DroidSans" fill="#000000" text-anchor="start" stroke="none" id="label65" stroke-width="0" font-size="9.936">4</text>
  <line  fill="none" stroke="#000000" stroke-linejoin="round" stroke-linecap="round" y1="532.696" stroke-width="2.4" x1="1.2" y2="532.696" x2="21.2599"/>
  <rect  width="21.2599" x="0" y="531.496" fill="none" height="2.4" id="connector73pin" stroke-width="0" connectorName="4"/>
  <rect  width="2.4" x="0" y="531.496" fill="none" height="2.4" id="connector73terminal" stroke-width="0"/>
  <text  x="27.7399" y="535.096" font-family="DroidSans" fill="#000000" text-anchor="start" stroke="none" id="label73" stroke-width="0" font-size="9.936">4</text>
  <line  fill="none" stroke="#000000" stroke-linejoin="round" stroke-linecap="round" y1="553.956" stroke-width="2.4" x1="1.2" y2="553.956" x2="21.2599"/>
  <rect  width="21.2599" x="0" y="552.756" fill="none" height="2.4" id="connector82pin" stroke-width="0" connectorName="5"/>
  <rect  width="2.4" x="0" y="552.756" fill="none" height="2.4" id="connector82terminal" stroke-width="0"/>
  <text  x="27.7399" y="556.356" font-family="DroidSans" fill="#000000" text-anchor="start" stroke="none" id="label82" stroke-width="0" font-size="9.936">5</text>
  <line  fill="none" stroke="#000000" stroke-linejoin="round" stroke-linecap="round" y1="575.216" stroke-width="2.4" x1="1.2" y2="575.216" x2="21.2599"/>
  <rect  width="21.2599" x="0" y="574.016" fill="none" height="2.4" id="connector74pin" stroke-width="0" connectorName="5"/>
  <rect  width="2.4" x="0" y="574.016" fill="none" height="2.4" id="connector74terminal" stroke-width="0"/>
  <text  x="27.7399" y="577.616" font-family="DroidSans" fill="#000000" text-anchor="start" stroke="none" id="label74" stroke-width="0" font-size="9.936">5</text>
  <line  fill="none" stroke="#000000" stroke-linejoin="round" stroke-linecap="round" y1="596.475" stroke-width="2.4" x1="1.2" y2="596.475" x2="21.2599"/>
  <rect  width="21.2599" x="0" y="595.276" fill="none" height="2.4" id="connector66pin" stroke-width="0" connectorName="5"/>
  <rect  width="2.4" x="0" y="595.276" fill="none" height="2.4" id="connector66terminal" stroke-width="0"/>
  <text  x="27.7399" y="598.876" font-family="DroidSans" fill="#000000" text-anchor="start" stroke="none" id="label66" stroke-width="0" font-size="9.936">5</text>
  <line  fill="none" stroke="#000000" stroke-linejoin="round" stroke-linecap="round" y1="617.736" stroke-width="2.4" x1="1.2" y2="617.736" x2="21.2599"/>
  <rect  width="21.2599" x="0" y="616.535" fill="none" height="2.4" id="connector58pin" stroke-width="0" connectorName="5"/>
  <rect  width="2.4" x="0" y="616.535" fill="none" height="2.4" id="connector58terminal" stroke-width="0"/>
  <text  x="27.7399" y="620.135" font-family="DroidSans" fill="#000000" text-anchor="start" stroke="none" id="label58" stroke-width="0" font-size="9.936">5</text>
  <line  fill="none" stroke="#000000" stroke-linejoin="round" stroke-linecap="round" y1="638.995" stroke-width="2.4" x1="1.2" y2="638.995" x2="21.2599"/>
  <rect  width="21.2599" x="0" y="637.795" fill="none" height="2.4" id="connector106pin" stroke-width="0" connectorName="5"/>
  <rect  width="2.4" x="0" y="637.795" fill="none" height="2.4" id="connector106terminal" stroke-width="0"/>
  <text  x="27.7399" y="641.395" font-family="DroidSans" fill="#000000" text-anchor="start" stroke="none" id="label106" stroke-width="0" font-size="9.936">5</text>
  <line  fill="none" stroke="#000000" stroke-linejoin="round" stroke-linecap="round" y1="660.255" stroke-width="2.4" x1="1.2" y2="660.255" x2="21.2599"/>
  <rect  width="21.2599" x="0" y="659.055" fill="none" height="2.4" id="connector98pin" stroke-width="0" connectorName="N$50"/>
  <rect  width="2.4" x="0" y="659.055" fill="none" height="2.4" id="connector98terminal" stroke-width="0"/>
  <text  x="27.7399" y="662.655" font-family="DroidSans" fill="#000000" text-anchor="start" stroke="none" id="label98" stroke-width="0" font-size="9.936">N$50</text>
  <line  fill="none" stroke="#000000" stroke-linejoin="round" stroke-linecap="round" y1="681.515" stroke-width="2.4" x1="1.2" y2="681.515" x2="21.2599"/>
  <rect  width="21.2599" x="0" y="680.315" fill="none" height="2.4" id="connector75pin" stroke-width="0" connectorName="6"/>
  <rect  width="2.4" x="0" y="680.315" fill="none" height="2.4" id="connector75terminal" stroke-width="0"/>
  <text  x="27.7399" y="683.915" font-family="DroidSans" fill="#000000" text-anchor="start" stroke="none" id="label75" stroke-width="0" font-size="9.936">6</text>
  <line  fill="none" stroke="#000000" stroke-linejoin="round" stroke-linecap="round" y1="64.9795" stroke-width="2.4" x1="213.798" y2="64.9795" x2="235.058"/>
  <rect  width="21.2599" x="214.998" y="63.7795" fill="none" connectorname="TX1" height="2.4" id="connector48pin" stroke-width="0"/>
  <rect  width="2.4" x="233.858" y="63.7795" fill="none" height="2.4" id="connector48terminal" stroke-width="0"/>
  <text  x="208.518" y="67.3795" font-family="DroidSans" fill="#000000" text-anchor="end" stroke="none" id="label48" stroke-width="0" font-size="9.936">TX1</text>
  <line  fill="none" stroke="#000000" stroke-linejoin="round" stroke-linecap="round" y1="86.2394" stroke-width="2.4" x1="213.798" y2="86.2394" x2="235.058"/>
  <rect  width="21.2599" x="214.998" y="85.0392" fill="none" connectorname="TX0" height="2.4" id="connector107pin" stroke-width="0"/>
  <rect  width="2.4" x="233.858" y="85.0392" fill="none" height="2.4" id="connector107terminal" stroke-width="0"/>
  <text  x="208.518" y="88.6392" font-family="DroidSans" fill="#000000" text-anchor="end" stroke="none" id="label107" stroke-width="0" font-size="9.936">TX0</text>
  <line  fill="none" stroke="#000000" stroke-linejoin="round" stroke-linecap="round" y1="107.499" stroke-width="2.4" x1="213.798" y2="107.499" x2="235.058"/>
  <rect  width="21.2599" x="214.998" y="106.299" fill="none" connectorname="SDA" height="2.4" id="connector79pin" stroke-width="0"/>
  <rect  width="2.4" x="233.858" y="106.299" fill="none" height="2.4" id="connector79terminal" stroke-width="0"/>
  <text  x="208.518" y="109.899" font-family="DroidSans" fill="#000000" text-anchor="end" stroke="none" id="label79" stroke-width="0" font-size="9.936">SDA</text>
  <line  fill="none" stroke="#000000" stroke-linejoin="round" stroke-linecap="round" y1="128.759" stroke-width="2.4" x1="213.798" y2="128.759" x2="235.058"/>
  <rect  width="21.2599" x="214.998" y="127.559" fill="none" connectorname="SCL" height="2.4" id="connector78pin" stroke-width="0"/>
  <rect  width="2.4" x="233.858" y="127.559" fill="none" height="2.4" id="connector78terminal" stroke-width="0"/>
  <text  x="208.518" y="131.159" font-family="DroidSans" fill="#000000" text-anchor="end" stroke="none" id="label78" stroke-width="0" font-size="9.936">SCL</text>
  <line  fill="none" stroke="#000000" stroke-linejoin="round" stroke-linecap="round" y1="150.019" stroke-width="2.4" x1="213.798" y2="150.019" x2="235.058"/>
  <rect  width="21.2599" x="214.998" y="148.819" fill="none" connectorname="SCK" height="2.4" id="connector50pin" stroke-width="0"/>
  <rect  width="2.4" x="233.858" y="148.819" fill="none" height="2.4" id="connector50terminal" stroke-width="0"/>
  <text  x="208.518" y="152.419" font-family="DroidSans" fill="#000000" text-anchor="end" stroke="none" id="label50" stroke-width="0" font-size="9.936">SCK</text>
  <line  fill="none" stroke="#000000" stroke-linejoin="round" stroke-linecap="round" y1="171.279" stroke-width="2.4" x1="213.798" y2="171.279" x2="235.058"/>
  <rect  width="21.2599" x="214.998" y="170.078" fill="none" connectorname="RX1" height="2.4" id="connector51pin" stroke-width="0"/>
  <rect  width="2.4" x="233.858" y="170.078" fill="none" height="2.4" id="connector51terminal" stroke-width="0"/>
  <text  x="208.518" y="173.678" font-family="DroidSans" fill="#000000" text-anchor="end" stroke="none" id="label51" stroke-width="0" font-size="9.936">RX1</text>
  <line  fill="none" stroke="#000000" stroke-linejoin="round" stroke-linecap="round" y1="192.539" stroke-width="2.4" x1="213.798" y2="192.539" x2="235.058"/>
  <rect  width="21.2599" x="214.998" y="191.339" fill="none" connectorname="RX0" height="2.4" id="connector85pin" stroke-width="0"/>
  <rect  width="2.4" x="233.858" y="191.339" fill="none" height="2.4" id="connector85terminal" stroke-width="0"/>
  <text  x="208.518" y="194.939" font-family="DroidSans" fill="#000000" text-anchor="end" stroke="none" id="label85" stroke-width="0" font-size="9.936">RX0</text>
  <line  fill="none" stroke="#000000" stroke-linejoin="round" stroke-linecap="round" y1="213.798" stroke-width="2.4" x1="213.798" y2="213.798" x2="235.058"/>
  <rect  width="21.2599" x="214.998" y="212.599" fill="none" connectorname="RESET" height="2.4" id="connector52pin" stroke-width="0"/>
  <rect  width="2.4" x="233.858" y="212.599" fill="none" height="2.4" id="connector52terminal" stroke-width="0"/>
  <text  x="208.518" y="216.199" font-family="DroidSans" fill="#000000" text-anchor="end" stroke="none" id="label52" stroke-width="0" font-size="9.936">RESET</text>
  <line  fill="none" stroke="#000000" stroke-linejoin="round" stroke-linecap="round" y1="235.058" stroke-width="2.4" x1="213.798" y2="235.058" x2="235.058"/>
  <rect  width="21.2599" x="214.998" y="233.858" fill="none" connectorname="PWM5" height="2.4" id="connector69pin" stroke-width="0"/>
  <rect  width="2.4" x="233.858" y="233.858" fill="none" height="2.4" id="connector69terminal" stroke-width="0"/>
  <text  x="208.518" y="237.458" font-family="DroidSans" fill="#000000" text-anchor="end" stroke="none" id="label69" stroke-width="0" font-size="9.936">PWM5</text>
  <line  fill="none" stroke="#000000" stroke-linejoin="round" stroke-linecap="round" y1="256.318" stroke-width="2.4" x1="213.798" y2="256.318" x2="235.058"/>
  <rect  width="21.2599" x="214.998" y="255.118" fill="none" connectorname="PWM4" height="2.4" id="connector68pin" stroke-width="0"/>
  <rect  width="2.4" x="233.858" y="255.118" fill="none" height="2.4" id="connector68terminal" stroke-width="0"/>
  <text  x="208.518" y="258.718" font-family="DroidSans" fill="#000000" text-anchor="end" stroke="none" id="label68" stroke-width="0" font-size="9.936">PWM4</text>
  <line  fill="none" stroke="#000000" stroke-linejoin="round" stroke-linecap="round" y1="277.578" stroke-width="2.4" x1="213.798" y2="277.578" x2="235.058"/>
  <rect  width="21.2599" x="214.998" y="276.378" fill="none" connectorname="PWM3" height="2.4" id="connector67pin" stroke-width="0"/>
  <rect  width="2.4" x="233.858" y="276.378" fill="none" height="2.4" id="connector67terminal" stroke-width="0"/>
  <text  x="208.518" y="279.978" font-family="DroidSans" fill="#000000" text-anchor="end" stroke="none" id="label67" stroke-width="0" font-size="9.936">PWM3</text>
  <line  fill="none" stroke="#000000" stroke-linejoin="round" stroke-linecap="round" y1="298.837" stroke-width="2.4" x1="213.798" y2="298.837" x2="235.058"/>
  <rect  width="21.2599" x="214.998" y="297.638" fill="none" connectorname="PWM2" height="2.4" id="connector88pin" stroke-width="0"/>
  <rect  width="2.4" x="233.858" y="297.638" fill="none" height="2.4" id="connector88terminal" stroke-width="0"/>
  <text  x="208.518" y="301.238" font-family="DroidSans" fill="#000000" text-anchor="end" stroke="none" id="label88" stroke-width="0" font-size="9.936">PWM2</text>
  <line  fill="none" stroke="#000000" stroke-linejoin="round" stroke-linecap="round" y1="320.098" stroke-width="2.4" x1="213.798" y2="320.098" x2="235.058"/>
  <rect  width="21.2599" x="214.998" y="318.897" fill="none" connectorname="PWM1" height="2.4" id="connector89pin" stroke-width="0"/>
  <rect  width="2.4" x="233.858" y="318.897" fill="none" height="2.4" id="connector89terminal" stroke-width="0"/>
  <text  x="208.518" y="322.497" font-family="DroidSans" fill="#000000" text-anchor="end" stroke="none" id="label89" stroke-width="0" font-size="9.936">PWM1</text>
  <line  fill="none" stroke="#000000" stroke-linejoin="round" stroke-linecap="round" y1="341.358" stroke-width="2.4" x1="213.798" y2="341.358" x2="235.058"/>
  <rect  width="21.2599" x="214.998" y="340.158" fill="none" connectorname="PWM0" height="2.4" id="connector90pin" stroke-width="0"/>
  <rect  width="2.4" x="233.858" y="340.158" fill="none" height="2.4" id="connector90terminal" stroke-width="0"/>
  <text  x="208.518" y="343.758" font-family="DroidSans" fill="#000000" text-anchor="end" stroke="none" id="label90" stroke-width="0" font-size="9.936">PWM0</text>
  <line  fill="none" stroke="#000000" stroke-linejoin="round" stroke-linecap="round" y1="362.617" stroke-width="2.4" x1="213.798" y2="362.617" x2="235.058"/>
  <rect  width="21.2599" x="214.998" y="361.418" fill="none" connectorname="AREF" height="2.4" id="connector112pin" stroke-width="0"/>
  <rect  width="2.4" x="233.858" y="361.418" fill="none" height="2.4" id="connector112terminal" stroke-width="0"/>
  <text  x="208.518" y="365.018" font-family="DroidSans" fill="#000000" text-anchor="end" stroke="none" id="label112" stroke-width="0" font-size="9.936">AREF</text>
  <line  fill="none" stroke="#000000" stroke-linejoin="round" stroke-linecap="round" y1="383.877" stroke-width="2.4" x1="213.798" y2="383.877" x2="235.058"/>
  <rect  width="21.2599" x="214.998" y="382.677" fill="none" connectorname="8" height="2.4" id="connector101pin" stroke-width="0"/>
  <rect  width="2.4" x="233.858" y="382.677" fill="none" height="2.4" id="connector101terminal" stroke-width="0"/>
  <text  x="208.518" y="386.277" font-family="DroidSans" fill="#000000" text-anchor="end" stroke="none" id="label101" stroke-width="0" font-size="9.936">8</text>
  <line  fill="none" stroke="#000000" stroke-linejoin="round" stroke-linecap="round" y1="405.137" stroke-width="2.4" x1="213.798" y2="405.137" x2="235.058"/>
  <rect  width="21.2599" x="214.998" y="403.937" fill="none" connectorname="8" height="2.4" id="connector61pin" stroke-width="0"/>
  <rect  width="2.4" x="233.858" y="403.937" fill="none" height="2.4" id="connector61terminal" stroke-width="0"/>
  <text  x="208.518" y="407.537" font-family="DroidSans" fill="#000000" text-anchor="end" stroke="none" id="label61" stroke-width="0" font-size="9.936">8</text>
  <line  fill="none" stroke="#000000" stroke-linejoin="round" stroke-linecap="round" y1="426.397" stroke-width="2.4" x1="213.798" y2="426.397" x2="235.058"/>
  <rect  width="21.2599" x="214.998" y="425.197" fill="none" connectorname="8" height="2.4" id="connector77pin" stroke-width="0"/>
  <rect  width="2.4" x="233.858" y="425.197" fill="none" height="2.4" id="connector77terminal" stroke-width="0"/>
  <text  x="208.518" y="428.797" font-family="DroidSans" fill="#000000" text-anchor="end" stroke="none" id="label77" stroke-width="0" font-size="9.936">8</text>
  <line  fill="none" stroke="#000000" stroke-linejoin="round" stroke-linecap="round" y1="447.656" stroke-width="2.4" x1="213.798" y2="447.656" x2="235.058"/>
  <rect  width="21.2599" x="214.998" y="446.457" fill="none" connectorname="7" height="2.4" id="connector76pin" stroke-width="0"/>
  <rect  width="2.4" x="233.858" y="446.457" fill="none" height="2.4" id="connector76terminal" stroke-width="0"/>
  <text  x="208.518" y="450.057" font-family="DroidSans" fill="#000000" text-anchor="end" stroke="none" id="label76" stroke-width="0" font-size="9.936">7</text>
  <line  fill="none" stroke="#000000" stroke-linejoin="round" stroke-linecap="round" y1="468.917" stroke-width="2.4" x1="213.798" y2="468.917" x2="235.058"/>
  <rect  width="21.2599" x="214.998" y="467.716" fill="none" connectorname="7" height="2.4" id="connector84pin" stroke-width="0"/>
  <rect  width="2.4" x="233.858" y="467.716" fill="none" height="2.4" id="connector84terminal" stroke-width="0"/>
  <text  x="208.518" y="471.316" font-family="DroidSans" fill="#000000" text-anchor="end" stroke="none" id="label84" stroke-width="0" font-size="9.936">7</text>
  <line  fill="none" stroke="#000000" stroke-linejoin="round" stroke-linecap="round" y1="490.177" stroke-width="2.4" x1="213.798" y2="490.177" x2="235.058"/>
  <rect  width="21.2599" x="214.998" y="488.976" fill="none" connectorname="7" height="2.4" id="connector60pin" stroke-width="0"/>
  <rect  width="2.4" x="233.858" y="488.976" fill="none" height="2.4" id="connector60terminal" stroke-width="0"/>
  <text  x="208.518" y="492.576" font-family="DroidSans" fill="#000000" text-anchor="end" stroke="none" id="label60" stroke-width="0" font-size="9.936">7</text>
  <line  fill="none" stroke="#000000" stroke-linejoin="round" stroke-linecap="round" y1="511.436" stroke-width="2.4" x1="213.798" y2="511.436" x2="235.058"/>
  <rect  width="21.2599" x="214.998" y="510.236" fill="none" connectorname="7" height="2.4" id="connector100pin" stroke-width="0"/>
  <rect  width="2.4" x="233.858" y="510.236" fill="none" height="2.4" id="connector100terminal" stroke-width="0"/>
  <text  x="208.518" y="513.836" font-family="DroidSans" fill="#000000" text-anchor="end" stroke="none" id="label100" stroke-width="0" font-size="9.936">7</text>
  <line  fill="none" stroke="#000000" stroke-linejoin="round" stroke-linecap="round" y1="532.696" stroke-width="2.4" x1="213.798" y2="532.696" x2="235.058"/>
  <rect  width="21.2599" x="214.998" y="531.496" fill="none" connectorname="6" height="2.4" id="connector59pin" stroke-width="0"/>
  <rect  width="2.4" x="233.858" y="531.496" fill="none" height="2.4" id="connector59terminal" stroke-width="0"/>
  <text  x="208.518" y="535.096" font-family="DroidSans" fill="#000000" text-anchor="end" stroke="none" id="label59" stroke-width="0" font-size="9.936">6</text>
  <line  fill="none" stroke="#000000" stroke-linejoin="round" stroke-linecap="round" y1="553.956" stroke-width="2.4" x1="213.798" y2="553.956" x2="235.058"/>
  <rect  width="21.2599" x="214.998" y="552.756" fill="none" connectorname="6" height="2.4" id="connector83pin" stroke-width="0"/>
  <rect  width="2.4" x="233.858" y="552.756" fill="none" height="2.4" id="connector83terminal" stroke-width="0"/>
  <text  x="208.518" y="556.356" font-family="DroidSans" fill="#000000" text-anchor="end" stroke="none" id="label83" stroke-width="0" font-size="9.936">6</text>
  <line  fill="none" stroke="#000000" stroke-linejoin="round" stroke-linecap="round" y1="575.216" stroke-width="2.4" x1="213.798" y2="575.216" x2="235.058"/>
  <rect  width="21.2599" x="214.998" y="574.016" fill="none" connectorname="6" height="2.4" id="connector99pin" stroke-width="0"/>
  <rect  width="2.4" x="233.858" y="574.016" fill="none" height="2.4" id="connector99terminal" stroke-width="0"/>
  <text  x="208.518" y="577.616" font-family="DroidSans" fill="#000000" text-anchor="end" stroke="none" id="label99" stroke-width="0" font-size="9.936">6</text>
  <line  fill="none" stroke="#000000" stroke-linejoin="round" stroke-linecap="round" y1="596.475" stroke-width="2.4" x1="213.798" y2="596.475" x2="235.058"/>
  <rect  width="21.2599" x="214.998" y="595.276" fill="none" connectorname="6" height="2.4" id="connector91pin" stroke-width="0"/>
  <rect  width="2.4" x="233.858" y="595.276" fill="none" height="2.4" id="connector91terminal" stroke-width="0"/>
  <text  x="208.518" y="598.876" font-family="DroidSans" fill="#000000" text-anchor="end" stroke="none" id="label91" stroke-width="0" font-size="9.936">6</text>
  <line  fill="none" stroke="#000000" stroke-linejoin="round" stroke-linecap="round" y1="1.2" stroke-width="2.4" x1="86.2394" y2="21.2599" x2="86.2394"/>
  <rect  width="2.4" x="85.0392" y="0" fill="none" connectorname="5V" height="21.2599" id="connector49pin" stroke-width="0"/>
  <rect  width="2.4" x="85.0392" y="0" fill="none" height="0" id="connector49terminal" stroke-width="0"/>
  <text  x="86.2394" y="33.8599" font-family="DroidSans" fill="#000000" text-anchor="middle" stroke="none" id="label49" stroke-width="0" font-size="9.936">5V</text>
  <line  fill="none" stroke="#000000" stroke-linejoin="round" stroke-linecap="round" y1="1.2" stroke-width="2.4" x1="107.499" y2="21.2599" x2="107.499"/>
  <rect  width="2.4" x="106.299" y="0" fill="none" connectorname="3.3V" height="21.2599" id="connector110pin" stroke-width="0"/>
  <rect  width="2.4" x="106.299" y="0" fill="none" height="0" id="connector110terminal" stroke-width="0"/>
  <text  x="107.499" y="33.8599" font-family="DroidSans" fill="#000000" text-anchor="middle" stroke="none" id="label110" stroke-width="0" font-size="9.936">3.3V</text>
  <line  fill="none" stroke="#000000" stroke-linejoin="round" stroke-linecap="round" y1="1.2" stroke-width="2.4" x1="128.759" y2="21.2599" x2="128.759"/>
  <rect  width="2.4" x="127.559" y="0" fill="none" connectorname="VIN" height="21.2599" id="connector117pin" stroke-width="0"/>
  <rect  width="2.4" x="127.559" y="0" fill="none" height="0" id="connector117terminal" stroke-width="0"/>
  <text  x="128.759" y="33.8599" font-family="DroidSans" fill="#000000" text-anchor="middle" stroke="none" id="label117" stroke-width="0" font-size="9.936">VIN</text>
  <line  fill="none" stroke="#000000" stroke-linejoin="round" stroke-linecap="round" y1="725.234" stroke-width="2.4" x1="118.129" y2="745.294" x2="118.129"/>
  <rect  width="2.4" x="116.929" y="725.234" fill="none" connectorname="GND" height="21.2599" id="connector53pin" stroke-width="0"/>
  <rect  width="2.4" x="116.929" y="746.496" fill="none" height="0" id="connector53terminal" stroke-width="0"/>
  <text  x="118.129" y="719.474" font-family="DroidSans" fill="#000000" text-anchor="middle" stroke="none" id="label53" stroke-width="0" font-size="9.936">GND</text>
  <rect  width="2.4" x="85.0392" y="0" fill="none" connectorname="5V" height="21.2599" id="connector108pin" stroke-width="0"/>
  <rect  width="2.4" x="85.0392" y="0" fill="none" height="0" id="connector108terminal" stroke-width="0"/>
  <rect  width="2.4" x="106.299" y="0" fill="none" connectorname="3.3V" height="21.2599" id="connector116pin" stroke-width="0"/>
  <rect  width="2.4" x="106.299" y="0" fill="none" height="0" id="connector116terminal" stroke-width="0"/>
  <rect  width="2.4" x="85.0392" y="0" fill="none" connectorname="5V" height="21.2599" id="connector120pin" stroke-width="0"/>
  <rect  width="2.4" x="85.0392" y="0" fill="none" height="0" id="connector120terminal" stroke-width="0"/>
  <rect  width="2.4" x="116.929" y="725.234" fill="none" connectorname="GND" height="21.2599" id="connector109pin" stroke-width="0"/>
  <rect  width="2.4" x="116.929" y="746.496" fill="none" height="0" id="connector109terminal" stroke-width="0"/>
  <rect  width="2.4" x="116.929" y="725.234" fill="none" connectorname="GND" height="21.2599" id="connector111pin" stroke-width="0"/>
  <rect  width="2.4" x="116.929" y="746.496" fill="none" height="0" id="connector111terminal" stroke-width="0"/>
  <rect  width="2.4" x="116.929" y="725.234" fill="none" connectorname="GND" height="21.2599" id="connector113pin" stroke-width="0"/>
  <rect  width="2.4" x="116.929" y="746.496" fill="none" height="0" id="connector113terminal" stroke-width="0"/>
  <rect  width="2.4" x="116.929" y="725.234" fill="none" connectorname="GND" height="21.2599" id="connector115pin" stroke-width="0"/>
  <rect  width="2.4" x="116.929" y="746.496" fill="none" height="0" id="connector115terminal" stroke-width="0"/>
  <rect  width="2.4" x="116.929" y="725.234" fill="none" connectorname="GND" height="21.2599" id="connector118pin" stroke-width="0"/>
  <rect  width="2.4" x="116.929" y="746.496" fill="none" height="0" id="connector118terminal" stroke-width="0"/>
  <rect  width="2.4" x="116.929" y="725.234" fill="none" connectorname="GND" height="21.2599" id="connector119pin" stroke-width="0"/>
  <rect  width="2.4" x="116.929" y="746.496" fill="none" height="0" id="connector119terminal" stroke-width="0"/>
  <rect  width="21.2599" x="214.998" y="63.7795" fill="none" connectorname="TX1" height="2.4" id="connector92pin" stroke-width="0"/>
  <rect  width="2.4" x="233.858" y="63.7795" fill="none" height="2.4" id="connector92terminal" stroke-width="0"/>
  <rect  width="21.2599" x="214.998" y="148.819" fill="none" connectorname="SCK" height="2.4" id="connector63pin" stroke-width="0"/>
  <rect  width="2.4" x="233.858" y="148.819" fill="none" height="2.4" id="connector63terminal" stroke-width="0"/>
  <rect  width="21.2599" x="214.998" y="170.078" fill="none" connectorname="RX1" height="2.4" id="connector93pin" stroke-width="0"/>
  <rect  width="2.4" x="233.858" y="170.078" fill="none" height="2.4" id="connector93terminal" stroke-width="0"/>
  <rect  width="21.2599" x="214.998" y="212.599" fill="none" connectorname="RESET" height="2.4" id="connector114pin" stroke-width="0"/>
  <rect  width="2.4" x="233.858" y="212.599" fill="none" height="2.4" id="connector114terminal" stroke-width="0"/>
 </g>
</svg>
