<?xml version="1.0" encoding="utf-8"?>
<!-- Generator: Adobe Illustrator 13.0.0, SVG Export Plug-In . SVG Version: 6.00 Build 14948)  -->
<svg version="1.2" baseProfile="tiny" id="svg2" xmlns:svg="http://www.w3.org/2000/svg"
	 xmlns="http://www.w3.org/2000/svg" xmlns:xlink="http://www.w3.org/1999/xlink" x="0px" y="0px" width="32.754px" height="63.5px"
	 viewBox="0 0 32.754 63.5" xml:space="preserve">
<rect id="connector2pin" x="17.797" y="1.824" width="1.894" height="9.783"/>
<rect id="connector2terminal" x="18.276" y="1.14" width="0.867" height="0.684"/>
<rect id="connector0pin" x="17.801" y="52.541" width="1.893" height="9.783"/>
<rect id="connector0terminal" x="18.28" y="62.253" width="0.867" height="0.687"/>
<rect id="connector1pin" x="29.861" y="42.203" width="1.894" height="9.783"/>
<rect id="connector1terminal" x="30.409" y="51.986" width="0.866" height="0.684"/>
<g id="schematic">
	<g>
		<polyline fill="#FFFFFF" stroke="#000000" stroke-width="2.2284" stroke-linecap="round" points="18.729,1.866 18.729,19.923 
			22.229,21.785 14.979,25.82 22.229,29.854 14.979,33.889 22.229,37.923 14.979,41.958 18.729,44.13 18.729,62.033 		"/>
		<polygon points="0.862,22.294 10.897,24.382 8.009,29.642 		"/>
		<polyline fill="none" stroke="#000000" stroke-width="2.2284" stroke-linecap="round" points="5.927,25.103 30.803,38.76 
			30.803,51.686 		"/>
	</g>
</g>
</svg>
