<?xml version="1.0" encoding="UTF-8" standalone="no"?>
<svg
   xmlns:svg="http://www.w3.org/2000/svg"
   xmlns="http://www.w3.org/2000/svg"
   version="1.2" baseProfile="tiny"
	 x="0px" y="0px" width=".40in" height=".70in" 
	 id="svg2">


<rect id="connector1terminal" x="11.6801758" y="0.8955078" width="0.2080078" height="0.2080078"/>
<rect id="connector0terminal" x="11.6958008" y="60.7958984" width="0.2080078" height="0.2080078"/>
<rect id="connector1pin" x="11.0751953" y="0.7910156" width="1.375" height="19.75"/>
<rect id="connector0pin" x="11.0756836" y="41.4990234" width="1.375" height="19.75"/>



  <g
     id="schematic"
     style="display:inline">
    <g>

<path d="M22.309082,21.2900391c0.3603516,0,0.6914062,0.1933594,0.8691406,0.5083008l0,0
	c0.1787109,0.3129883,0.1748047,0.6958008-0.0107422,1.0048828l0,0L12.6420898,40.4433594
	c-0.1791992,0.3007812-0.5063477,0.4873047-0.8583984,0.4873047l0,0c-0.3500977,0-0.6796875-0.1845703-0.8583984-0.4853516l0,0
	L0.3745117,22.8051758c-0.1850586-0.3110352-0.1894531-0.6938477-0.012207-1.0068359l0,0
	c0.1772461-0.3149414,0.5083008-0.5083008,0.8706055-0.5083008l0,0H22.309082 M11.7817383,37.9814453l8.765625-14.6904297H2.9951172
	L11.7817383,37.9814453L11.7817383,37.9814453z"/>
<path d="M1.0004883,40.9306641C0.4467773,40.9306641,0,40.484375,0,39.9326172l0,0c0-0.5537109,0.4467773-1,1.0004883-1l0,0
	h21.0507812c0.5517578,0,1.0009766,0.4462891,1.0009766,1l0,0c0,0.5517578-0.4492188,0.9980469-1.0009766,0.9980469l0,0H1.0004883
	L1.0004883,40.9306641z"/>
<path d="M10.7832031,22.0507812V0.9990234C10.7832031,0.4462891,11.2314453,0,11.7841797,0l0,0
	c0.5532227,0,0.9990234,0.4462891,0.9990234,0.9990234l0,0v21.0517578c0,0.5527344-0.4458008,1.0009766-0.9990234,1.0009766l0,0
	C11.2314453,23.0517578,10.7832031,22.6035156,10.7832031,22.0507812L10.7832031,22.0507812z"/>
<path d="M10.7841797,60.8847656V39.8330078c0-0.5537109,0.4477539-1.0009766,0.9990234-1.0009766l0,0
	c0.5532227,0,1.0009766,0.4472656,1.0009766,1.0009766l0,0v21.0517578c0,0.5507812-0.4477539,0.9980469-1.0009766,0.9980469l0,0
	C11.2319336,61.8828125,10.7841797,61.4355469,10.7841797,60.8847656L10.7841797,60.8847656z"/>
<polygon points="31.456543,42.5957031 33.4389648,48.0869141 28.5249023,44.9345703 29.9907227,43.7646484 "/>
<path d="M26.8100586,45.0195312l2.5566406-2.0371094l1.4648438-1.1689453l1.0908203-0.8710938l3.4609375,9.5800781
	L26.8100586,45.0195312L26.8100586,45.0195312z"/>
<path d="M32.0864258,47.9951172l-9.40625-11.7861328c-0.34375-0.4326172-0.2714844-1.0615234,0.1591797-1.40625l0,0
	c0.4326172-0.34375,1.0615234-0.2734375,1.4052734,0.1591797l0,0l9.4042969,11.7861328
	c0.3447266,0.4335938,0.2744141,1.0615234-0.1582031,1.40625l0,0c-0.1845703,0.1464844-0.4042969,0.2177734-0.6220703,0.2177734l0,0
	C32.574707,48.3720703,32.2836914,48.2431641,32.0864258,47.9951172L32.0864258,47.9951172z"/>
<polygon points="24.9057617,47.5849609 26.8901367,53.0751953 21.9760742,49.9228516 23.440918,48.7539062 "/>
<path d="M20.2612305,50.0097656l2.5556641-2.0390625l1.4638672-1.1679688l1.0888672-0.8701172l3.46875,9.5810547
	L20.2612305,50.0097656L20.2612305,50.0097656z"/>
<path d="M25.5375977,52.9853516l-7.3271484-9.1826172c-0.3447266-0.4326172-0.2724609-1.0615234,0.1582031-1.40625l0,0
	c0.4306641-0.3447266,1.0625-0.2724609,1.40625,0.1591797l0,0l7.3251953,9.1826172
	c0.3447266,0.4306641,0.2744141,1.0595703-0.1582031,1.4042969l0,0c-0.1845703,0.1474609-0.4042969,0.21875-0.6230469,0.21875l0,0
	C26.0258789,53.3613281,25.7348633,53.2324219,25.5375977,52.9853516L25.5375977,52.9853516z"/>
</g>
</g>
</svg>
