<?xml version="1.0" encoding="utf-8"?>
<!-- Generator: Adobe Illustrator 13.0.0, SVG Export Plug-In . SVG Version: 6.00 Build 14948)  -->
<svg version="1.2" baseProfile="tiny" id="svg2" xmlns:svg="http://www.w3.org/2000/svg"
	 xmlns="http://www.w3.org/2000/svg" xmlns:xlink="http://www.w3.org/1999/xlink" x="0px" y="0px" width="52.333px" height="65px"
	 viewBox="-17.833 -0.914 52.333 65" xml:space="preserve">
<g>
	<g>
		<path d="M24.464,61.909V44.004c0-0.615,0.498-1.112,1.113-1.112l0,0c0.615,0,1.113,0.497,1.113,1.112l0,0v17.905
			c0,0.615-0.498,1.112-1.113,1.112l0,0C24.962,63.021,24.464,62.524,24.464,61.909L24.464,61.909z"/>
	</g>
	<g>
		<path d="M24.463,19.799V1.742c0-0.616,0.498-1.114,1.115-1.114l0,0c0.615,0,1.113,0.498,1.113,1.114l0,0v18.057
			c0,0.615-0.498,1.113-1.113,1.113l0,0C24.961,20.912,24.463,20.414,24.463,19.799L24.463,19.799z"/>
	</g>
	<g>
		<polygon points="9.719,45.658 9.719,17.954 11.947,17.954 11.947,45.658 9.719,45.658 		"/>
	</g>
	<circle fill="none" stroke="#000000" stroke-width="1.8499" cx="16.557" cy="31.807" r="14.953"/>
	<g>
		<path d="M-15.345,33c-0.689,0-1.249-0.558-1.249-1.247l0,0c0-0.691,0.56-1.249,1.249-1.249l0,0h25.678
			c0.689,0,1.249,0.558,1.249,1.249l0,0c0,0.689-0.56,1.247-1.249,1.247l0,0H-15.345L-15.345,33z"/>
	</g>
	<g>
		<g>
			<path d="M20.024,35.706"/>
		</g>
		<g>
			<polygon points="10.339,32.678 11.657,31.172 19.455,37.998 18.139,39.502 10.339,32.678 			"/>
		</g>
		<g>
			<polygon points="20.024,35.706 25.265,44.41 15.942,40.371 			"/>
		</g>
	</g>
	<g>
		<polygon points="10.168,30.921 24.929,19.084 26.18,20.644 11.419,32.48 10.168,30.921 		"/>
	</g>
</g>
<rect id="connector0pin" x="24.633" y="1.237" width="1.893" height="9.783"/>
<rect id="connector0terminal" x="25.141" y="0.876" width="0.867" height="0.684"/>
<rect id="connector2pin" x="24.623" y="52.569" width="1.893" height="9.781"/>
<rect id="connector2terminal" x="25.144" y="62.131" width="0.867" height="0.686"/>
<rect id="connector1pin_1_" x="-15.943" y="30.747" width="9.781" height="1.893"/>
<rect id="connector1terminal_1_" x="-16.409" y="31.268" width="0.686" height="0.867"/>
</svg>
