<?xml version="1.0" encoding="utf-8"?>
<!-- Generator: Adobe Illustrator 14.0.0, SVG Export Plug-In  -->
<!DOCTYPE svg [
	<!ENTITY ns_flows "http://ns.adobe.com/Flows/1.0/">
]>
<svg version="1.2" baseProfile="tiny"
	 xmlns="http://www.w3.org/2000/svg" xmlns:xlink="http://www.w3.org/1999/xlink" xmlns:a="http://ns.adobe.com/AdobeSVGViewerExtensions/3.0/"
	 x="0px" y="0px" width="256px" height="347px" viewBox="0 0 256 347" xml:space="preserve">
<defs>
</defs>
<line fill="none" stroke="#D1C7C7" stroke-width="0.5" x1="141.958" y1="21.434" x2="141.75" y2="39.149"/>
<polyline fill="none" stroke="#D1C7C7" stroke-width="0.5" points="156.358,21.435 222.669,21.435 224.419,22.961 224.419,53.711 
	"/>
<polyline fill="none" stroke="#D1C7C7" stroke-width="0.5" points="141.96,324.734 144.995,321.586 177.544,321.586 
	179.169,319.961 179.169,292.336 "/>
<polyline fill="none" stroke="#D1C7C7" stroke-width="0.5" points="156.36,324.734 204.044,324.734 208.419,320.836 
	208.419,306.211 "/>
<line fill="none" stroke="#D1C7C7" stroke-width="0.5" x1="113.16" y1="324.734" x2="113.16" y2="306.211"/>
<polyline fill="none" stroke="#D1C7C7" stroke-width="0.5" points="98.76,324.734 31.294,324.734 28.044,320.961 28.044,288.961 "/>
<polyline fill="none" stroke="#D1C7C7" stroke-width="0.5" points="98.758,21.434 34.044,21.435 31.044,24.461 31.044,164.711 
	36.044,169.461 65.839,169.461 "/>
<polyline fill="none" stroke="#D1C7C7" stroke-width="0.5" points="113.158,21.434 109.344,23.961 76.294,23.961 72.102,27.211 
	72.102,58.461 "/>
<polyline fill="none" stroke="#D1C7C7" stroke-width="0.5" points="127.559,21.434 127.559,17.461 132.044,13.461 241.044,13.461 
	244.044,17.447 244.082,325.634 241.441,327.461 129.794,327.461 127.561,324.734 "/>
<polygon fill="#EF1818" points="90.382,28.8 213.064,28.8 221.244,36.963 204.877,61.495 98.555,61.495 82.215,36.963 "/>
<polygon fill="#D1C7C7" points="229.424,45.127 237.6,61.495 221.244,151.482 204.877,167.818 188.533,151.482 204.877,69.669 "/>
<polygon fill="#D1C7C7" points="204.877,176.005 213.064,192.352 196.709,282.327 180.349,298.688 163.993,282.327 180.349,200.552 
	"/>
<polygon fill="#D1C7C7" points="163.993,315.031 41.307,315.031 33.127,306.839 49.491,282.327 155.824,282.327 172.162,306.859 "/>
<polygon fill="#EF1818" points="24.94,298.688 16.772,282.327 33.127,192.352 49.491,176.005 65.839,192.352 49.491,274.142 "/>
<polygon fill="#EF1818" points="49.491,167.818 41.307,151.482 57.667,61.495 74.026,45.127 90.382,61.495 74.026,143.301 "/>
<polyline fill="#EF1818" points="57.667,167.818 74.026,151.482 180.349,151.482 196.709,167.818 180.349,184.173 74.026,184.173 
	"/>
<path fill="#D1C7C7" d="M234.959,298.667c0,9.502-7.717,17.219-17.23,17.219c-9.51,0-17.227-7.717-17.227-17.219
	c0-9.525,7.717-17.243,17.227-17.243C227.243,281.424,234.959,289.142,234.959,298.667z"/>
<rect x="155.458" y="20.535" fill="#8C8C8C" width="1.799" height="1.799"/>
<rect x="141.059" y="20.533" fill="#8C8C8C" width="1.799" height="1.801"/>
<rect x="126.66" y="20.533" fill="#8C8C8C" width="1.799" height="1.801"/>
<rect x="112.258" y="20.533" fill="#8C8C8C" width="1.799" height="1.801"/>
<rect x="97.859" y="20.533" fill="#8C8C8C" width="1.799" height="1.801"/>
<rect x="155.46" y="323.835" fill="#8C8C8C" width="1.799" height="1.799"/>
<rect x="141.061" y="323.835" fill="#8C8C8C" width="1.799" height="1.799"/>
<rect x="126.662" y="323.835" fill="#8C8C8C" width="1.799" height="1.799"/>
<rect x="112.26" y="323.835" fill="#8C8C8C" width="1.799" height="1.799"/>
<rect x="97.861" y="323.835" fill="#8C8C8C" width="1.799" height="1.799"/>
<path fill="#9B9B9B" d="M253.532,0.45v343.841H0.45V0.45H253.532 M253.982,0H0v344.741h253.982V0L253.982,0z"/>
<polygon fill="#9B9B9B" points="0,344.741 1.158,345.827 255.118,345.827 255.118,1.089 253.96,0 253.96,344.741 "/>
<line fill="none" stroke="#D1C7C7" stroke-width="0.5" x1="61.205" y1="185.607" x2="61.205" y2="174.291"/>
</svg>
