<?xml version="1.0" encoding="utf-8"?>
<!-- Generator: Adobe Illustrator 14.0.0, SVG Export Plug-In  -->
<!DOCTYPE svg [
	<!ENTITY ns_flows "http://ns.adobe.com/Flows/1.0/">
]>
<svg version="1.2" baseProfile="tiny"
	 xmlns="http://www.w3.org/2000/svg" xmlns:xlink="http://www.w3.org/1999/xlink" xmlns:a="http://ns.adobe.com/AdobeSVGViewerExtensions/3.0/"
	 x="0px" y="0px" width="138px" height="200px" viewBox="0 0 138 200" xml:space="preserve">

<polygon fill="#EF1818" points="46.976,19.148 115.158,19.148 119.704,23.686 110.608,37.319 51.518,37.319 42.437,23.686 "/>
<polygon fill="#D1C7C7" points="124.25,28.223 128.794,37.319 119.704,87.331 110.608,96.41 101.524,87.331 110.608,41.862 "/>
<polygon fill="#D1C7C7" points="110.608,100.96 115.158,110.045 106.068,160.05 96.977,169.143 87.886,160.05 96.977,114.603 "/>
<polygon fill="#D1C7C7" points="87.886,178.227 19.702,178.227 15.156,173.672 24.25,160.05 83.346,160.05 92.426,173.684 "/>
<polygon fill="#EF1818" points="10.605,169.143 6.066,160.05 15.156,110.045 24.25,100.96 33.336,110.045 24.25,155.5 "/>
<polygon fill="#EF1818" points="24.25,96.41 19.702,87.331 28.794,37.319 37.886,28.223 46.976,37.319 37.886,82.784 "/>
<polyline fill="#EF1818" points="28.794,96.41 37.886,87.331 96.977,87.331 106.068,96.41 96.977,105.499 37.886,105.499 "/>
<path fill="#D1C7C7" d="M127.327,169.131c0,5.28-4.289,9.569-9.576,9.569c-5.285,0-9.574-4.289-9.574-9.569
	c0-5.294,4.289-9.583,9.574-9.583C123.038,159.548,127.327,163.837,127.327,169.131z"/>
<rect x="81.838" y="13.447" fill="#8C8C8C" width="1.799" height="1.799"/>
<rect x="74.639" y="13.445" fill="#8C8C8C" width="1.799" height="1.801"/>
<rect x="67.44" y="13.445" fill="#8C8C8C" width="1.799" height="1.801"/>
<rect x="60.239" y="13.445" fill="#8C8C8C" width="1.799" height="1.801"/>
<rect x="53.04" y="13.445" fill="#8C8C8C" width="1.799" height="1.801"/>
<rect x="81.84" y="183.809" fill="#8C8C8C" width="1.799" height="1.799"/>
<rect x="74.641" y="183.809" fill="#8C8C8C" width="1.799" height="1.799"/>
<rect x="67.442" y="183.809" fill="#8C8C8C" width="1.799" height="1.799"/>
<rect x="60.241" y="183.809" fill="#8C8C8C" width="1.799" height="1.799"/>
<rect x="53.042" y="183.809" fill="#8C8C8C" width="1.799" height="1.799"/>
<path fill="#9B9B9B" d="M135.813,0.25v197.926H0.25V0.25H135.813 M136.063,0H0v198.426h136.063V0L136.063,0z"/>
<polygon fill="#9B9B9B" points="0,198.426 0.62,199.051 136.671,199.051 136.671,0.627 136.051,0 136.051,198.426 "/>
<line fill="none" stroke="#D1C7C7" stroke-width="0.5" x1="75.539" y1="14.346" x2="75.539" y2="23.728"/>
<polyline fill="none" stroke="#D1C7C7" stroke-width="0.5" points="82.738,14.347 121.813,14.346 123.23,16.062 123.23,31.312 "/>
<polyline fill="none" stroke="#D1C7C7" stroke-width="0.5" points="100.286,163.351 100.286,179.101 97.136,182.25 77.786,182.25 
	75.541,184.708 "/>
<line fill="none" stroke="#D1C7C7" stroke-width="0.5" x1="61.14" y1="184.708" x2="61.14" y2="173.392"/>
<polyline fill="none" stroke="#D1C7C7" stroke-width="0.5" points="53.941,184.708 10.312,184.708 8.062,181.892 8.062,160.892 "/>
<polyline fill="none" stroke="#D1C7C7" stroke-width="0.5" points="61.138,14.346 57.536,10.8 44.063,10.8 40.479,14.346 
	40.479,34.058 "/>
<polyline fill="none" stroke="#D1C7C7" stroke-width="0.5" points="53.939,14.346 47.697,7.729 19.702,7.729 16.146,10.8 
	15.146,93.895 18.48,98.101 49.646,98.101 "/>
<polyline fill="none" stroke="#D1C7C7" stroke-width="0.5" points="82.736,184.5 107.936,184.5 110.636,181.8 110.636,170.101 "/>
<polyline fill="none" stroke="#D1C7C7" stroke-width="0.5" points="68.339,14.346 68.335,7.65 71.036,5.4 128.186,5.4 131.786,8.55 
	130.886,186.75 128.186,189.45 71.486,189 68.341,184.708 "/>
</svg>
