<?xml version="1.0" encoding="UTF-8" standalone="no"?>
<svg
   xmlns:svg="http://www.w3.org/2000/svg"
   xmlns="http://www.w3.org/2000/svg"
   version="1.2" baseProfile="tiny"
	 x="0px" y="0px" width="68.8mm" height="53.4mm"
	 id="svg2">
	<g id="board">
		<path fill="#800000" fill-opacity="0.35" d="M233.57,45.438V5.385l-6.241-4.459H0.888L0.89,188.052h232.683v-8.918l8.918-8.918
			V54.358L233.57,45.438z M233.534,59.915c1.877,0,3.401,1.523,3.401,3.4c0.002,1.878-1.521,3.403-3.401,3.403
			s-3.402-1.523-3.402-3.403C230.132,61.436,231.657,59.915,233.534,59.915z M226.764,8.861c0.896,0,1.793,0.875,1.793,1.813
			c0,1.01-0.828,1.793-1.793,1.793c-0.957,0-1.812-0.856-1.812-1.793C224.952,9.773,225.805,8.857,226.764,8.861z M55.251,15.419
			c-3.102,0-5.61-2.512-5.61-5.611c0-3.098,2.512-5.608,5.61-5.608c3.1,0,5.609,2.514,5.609,5.608
			C60.86,12.906,58.349,15.419,55.251,15.419z M87.612,12.467c-0.955,0-1.812-0.856-1.812-1.793c0-0.901,0.852-1.817,1.812-1.813
			c0.893,0,1.793,0.875,1.793,1.813C89.405,11.684,88.579,12.467,87.612,12.467z M96.515,12.467c-0.957,0-1.813-0.856-1.813-1.793
			c0-0.901,0.853-1.817,1.813-1.813c0.894,0,1.792,0.875,1.792,1.813C98.307,11.684,97.481,12.467,96.515,12.467z M105.406,12.467
			c-0.958,0-1.812-0.856-1.812-1.793c0-0.901,0.856-1.817,1.812-1.813c0.891,0,1.793,0.875,1.793,1.813
			C107.199,11.684,106.371,12.467,105.406,12.467z M114.339,12.467c-0.957,0-1.813-0.856-1.813-1.793
			c0-0.901,0.856-1.817,1.813-1.813c0.89,0,1.793,0.875,1.793,1.813C116.132,11.684,115.305,12.467,114.339,12.467z
			 M119.822,181.733c-0.959,0-1.812-0.856-1.812-1.793c0-0.899,0.856-1.815,1.812-1.813c0.895,0,1.795,0.875,1.795,1.813
			C121.617,180.949,120.789,181.733,119.822,181.733z M123.273,12.467c-0.957,0-1.812-0.856-1.812-1.793
			c0-0.901,0.851-1.817,1.812-1.813c0.896,0,1.793,0.875,1.793,1.813C125.066,11.684,124.243,12.467,123.273,12.467z
			 M128.714,181.733c-0.955,0-1.813-0.856-1.813-1.793c0-0.899,0.859-1.815,1.813-1.813c0.892,0,1.795,0.875,1.795,1.813
			C130.509,180.949,129.682,181.733,128.714,181.733z M132.204,12.467c-0.957,0-1.812-0.856-1.812-1.793
			c0-0.901,0.856-1.817,1.812-1.813c0.896,0,1.795,0.875,1.795,1.813C133.999,11.684,133.175,12.467,132.204,12.467z
			 M137.65,181.733c-0.959,0-1.812-0.856-1.812-1.793c0-0.899,0.852-1.815,1.812-1.813c0.894,0,1.793,0.875,1.793,1.813
			C139.443,180.949,138.62,181.733,137.65,181.733z M141.059,12.467c-0.957,0-1.812-0.856-1.812-1.793
			c0-0.901,0.854-1.817,1.812-1.813c0.895,0,1.795,0.875,1.795,1.813C142.854,11.684,142.027,12.467,141.059,12.467z
			 M146.583,181.733c-0.957,0-1.813-0.856-1.813-1.793c0-0.899,0.855-1.815,1.813-1.813c0.892,0,1.793,0.875,1.793,1.813
			C148.376,180.949,147.548,181.733,146.583,181.733z M150.072,12.467c-0.959,0-1.812-0.856-1.812-1.793
			c0-0.901,0.854-1.817,1.812-1.813c0.896,0,1.797,0.875,1.797,1.813C151.869,11.684,151.043,12.467,150.072,12.467z
			 M155.516,181.733c-0.957,0-1.812-0.856-1.812-1.793c0-0.899,0.853-1.815,1.812-1.813c0.894,0,1.793,0.875,1.793,1.813
			C157.309,180.949,156.48,181.733,155.516,181.733z M164.303,8.861c0.896,0,1.797,0.875,1.797,1.813
			c0,1.01-0.826,1.793-1.797,1.793c-0.957,0-1.812-0.856-1.812-1.793C162.491,9.773,163.346,8.857,164.303,8.861z M164.366,181.733
			c-0.957,0-1.812-0.856-1.812-1.793c0-0.899,0.856-1.815,1.812-1.813c0.895,0,1.795,0.875,1.795,1.813
			C166.161,180.949,165.333,181.733,164.366,181.733z M173.204,12.467c-0.957,0-1.812-0.856-1.812-1.793
			c0-0.901,0.856-1.817,1.812-1.813c0.896,0,1.795,0.875,1.795,1.813C174.999,11.684,174.175,12.467,173.204,12.467z M182.1,8.861
			c0.894,0,1.793,0.875,1.793,1.813c0,1.01-0.828,1.793-1.793,1.793c-0.957,0-1.812-0.856-1.812-1.793
			C180.288,9.773,181.141,8.857,182.1,8.861z M182.139,181.733c-0.957,0-1.812-0.856-1.812-1.793c0-0.899,0.854-1.815,1.812-1.813
			c0.895,0,1.795,0.875,1.795,1.813C183.934,180.949,183.107,181.733,182.139,181.733z M191.031,181.733
			c-0.957,0-1.812-0.856-1.812-1.793c0-0.899,0.856-1.815,1.812-1.813c0.895,0,1.795,0.875,1.795,1.813
			C192.826,180.949,191.998,181.733,191.031,181.733z M191.031,12.467c-0.957,0-1.812-0.856-1.812-1.793
			c0-0.901,0.856-1.817,1.812-1.813c0.895,0,1.795,0.875,1.795,1.813C192.826,11.684,191.998,12.467,191.031,12.467z
			 M199.962,181.733c-0.955,0-1.813-0.856-1.813-1.793c0-0.899,0.857-1.815,1.813-1.813c0.894,0,1.795,0.875,1.795,1.813
			C201.757,180.949,200.932,181.733,199.962,181.733z M199.962,12.467c-0.955,0-1.813-0.856-1.813-1.793
			c0-0.901,0.857-1.817,1.813-1.813c0.894,0,1.795,0.875,1.795,1.813C201.757,11.684,200.932,12.467,199.962,12.467z
			 M208.898,181.733c-0.959,0-1.812-0.856-1.812-1.793c0-0.899,0.854-1.815,1.812-1.813c0.894,0,1.795,0.875,1.795,1.813
			C210.693,180.949,209.868,181.733,208.898,181.733z M208.898,12.467c-0.959,0-1.812-0.856-1.812-1.793
			c0-0.901,0.854-1.817,1.812-1.813c0.894,0,1.795,0.875,1.795,1.813C210.693,11.684,209.868,12.467,208.898,12.467z M217.75,8.861
			c0.893,0,1.793,0.875,1.793,1.813c0,1.01-0.826,1.793-1.793,1.793c-0.958,0-1.812-0.856-1.812-1.793
			C215.938,9.773,216.793,8.857,217.75,8.861z M217.831,181.733c-0.958,0-1.812-0.856-1.812-1.793c0-0.899,0.854-1.815,1.812-1.813
			c0.894,0,1.793,0.875,1.793,1.813C219.624,180.949,218.8,181.733,217.831,181.733z M226.684,181.733
			c-0.957,0-1.812-0.856-1.812-1.793c0-0.899,0.853-1.815,1.812-1.813c0.896,0,1.793,0.875,1.793,1.813
			C228.477,180.949,227.65,181.733,226.684,181.733z M233.534,166.944c-3.099,0-5.611-2.512-5.611-5.606
			c0-3.103,2.519-5.609,5.611-5.609s5.61,2.514,5.61,5.609S236.634,166.944,233.534,166.944z"/>

			<path id="outline" fill="none" stroke="#800000" stroke-width="2" stroke-linecap="round" stroke-linejoin="round" stroke-miterlimit="10" d="
			M233.57,45.438V5.385l-6.241-4.459H0.888L0.89,188.052h232.683v-8.918l8.918-8.918V54.358L233.57,45.438z"/>
	</g>
	<g id="copper0">
		<g id="g40">
			<path id="connector0pin" fill="#FFBF00" d="M90.264,7.72v6.002c0,0,0,2.214-2.651,2.214c-2.712,0-2.712-2.214-2.712-2.214V7.72
				c0,0,0-2.312,2.712-2.312C90.264,5.406,90.264,7.72,90.264,7.72z M85.8,10.674c0,0.937,0.857,1.793,1.812,1.793
				c0.967,0,1.793-0.783,1.793-1.793c0-0.938-0.9-1.813-1.793-1.813C86.652,8.857,85.8,9.773,85.8,10.674z"/>
			<path id="connector1pin" fill="#FFBF00" d="M99.169,7.72v6.002c0,0,0,2.214-2.652,2.214c-2.713,0-2.713-2.214-2.713-2.214V7.72
				c0,0,0-2.312,2.713-2.312C99.169,5.406,99.169,7.72,99.169,7.72z M94.702,10.674c0,0.937,0.856,1.793,1.813,1.793
				c0.966,0,1.792-0.783,1.792-1.793c0-0.938-0.897-1.813-1.792-1.813C95.555,8.857,94.702,9.773,94.702,10.674z"/>
			<path id="connector2pin" fill="#FFBF00" d="M108.061,7.72v6.002c0,0,0,2.214-2.646,2.214c-2.713,0-2.713-2.214-2.713-2.214V7.72
				c0,0,0-2.312,2.713-2.312C108.061,5.406,108.061,7.72,108.061,7.72z M103.594,10.674c0,0.937,0.854,1.793,1.812,1.793
				c0.965,0,1.793-0.783,1.793-1.793c0-0.938-0.902-1.813-1.793-1.813C104.45,8.857,103.594,9.773,103.594,10.674z"/>
			<path id="connector3pin" fill="#FFBF00" d="M116.995,7.72v6.002c0,0,0,2.214-2.649,2.214c-2.714,0-2.714-2.214-2.714-2.214V7.72
				c0,0,0-2.312,2.714-2.312C116.995,5.406,116.995,7.72,116.995,7.72z M112.525,10.674c0,0.937,0.856,1.793,1.813,1.793
				c0.966,0,1.793-0.783,1.793-1.793c0-0.938-0.903-1.813-1.793-1.813C113.382,8.857,112.525,9.773,112.525,10.674z"/>
			<path id="connector4pin" fill="#FFBF00" d="M125.927,7.72v6.002c0,0,0,2.214-2.653,2.214c-2.713,0-2.713-2.214-2.713-2.214V7.72
				c0,0,0-2.312,2.713-2.312C125.927,5.406,125.927,7.72,125.927,7.72z M121.462,10.674c0,0.937,0.854,1.793,1.812,1.793
				c0.97,0,1.793-0.783,1.793-1.793c0-0.938-0.897-1.813-1.793-1.813C122.312,8.857,121.462,9.773,121.462,10.674z"/>
			<path id="connector5pin" fill="#FFBF00" d="M134.857,7.72v6.002c0,0,0,2.214-2.646,2.214c-2.713,0-2.713-2.214-2.713-2.214V7.72
				c0,0,0-2.312,2.713-2.312C134.857,5.406,134.857,7.72,134.857,7.72z M130.393,10.674c0,0.937,0.854,1.793,1.812,1.793
				c0.971,0,1.795-0.783,1.795-1.793c0-0.938-0.899-1.813-1.795-1.813C131.249,8.857,130.393,9.773,130.393,10.674z"/>
			<path id="connector6pin" fill="#FFBF00" d="M143.713,7.72v6.002c0,0,0,2.214-2.648,2.214c-2.711,0-2.711-2.214-2.711-2.214V7.72
				c0,0,0-2.312,2.711-2.312C143.713,5.406,143.713,7.72,143.713,7.72z M139.247,10.674c0,0.937,0.854,1.793,1.812,1.793
				c0.969,0,1.795-0.783,1.795-1.793c0-0.938-0.9-1.813-1.795-1.813C140.102,8.857,139.247,9.773,139.247,10.674z"/>
			<path id="connector7pin" fill="#FFBF00" d="M152.725,7.72v6.002c0,0,0,2.214-2.647,2.214c-2.714,0-2.714-2.214-2.714-2.214V7.72
				c0,0,0-2.312,2.714-2.312C152.725,5.406,152.725,7.72,152.725,7.72z M148.26,10.674c0,0.937,0.854,1.793,1.812,1.793
				c0.971,0,1.797-0.783,1.797-1.793c0-0.938-0.9-1.813-1.797-1.813C149.113,8.857,148.26,9.773,148.26,10.674z"/>
			<path id="connector8pin" fill="#FFBF00" d="M166.958,7.72v6.002c0,0,0,2.214-2.647,2.214c-2.709,0-2.709-2.214-2.709-2.214V7.72
				c0,0,0-2.312,2.709-2.312C166.958,5.406,166.958,7.72,166.958,7.72z M162.491,10.674c0,0.937,0.854,1.793,1.812,1.793
				c0.971,0,1.797-0.783,1.797-1.793c0-0.938-0.901-1.813-1.797-1.813C163.346,8.857,162.491,9.773,162.491,10.674z"/>
			<path id="connector9pin" fill="#FFBF00" d="M175.861,7.72v6.002c0,0,0,2.214-2.649,2.214c-2.713,0-2.713-2.214-2.713-2.214V7.72
				c0,0,0-2.312,2.713-2.312C175.861,5.406,175.861,7.72,175.861,7.72z M171.393,10.674c0,0.937,0.854,1.793,1.812,1.793
				c0.971,0,1.795-0.783,1.795-1.793c0-0.938-0.899-1.813-1.795-1.813C172.249,8.857,171.393,9.773,171.393,10.674z"/>
			<path id="connector10pin" fill="#FFBF00" d="M184.754,7.72v6.002c0,0,0,2.214-2.648,2.214c-2.713,0-2.713-2.214-2.713-2.214V7.72
				c0,0,0-2.312,2.713-2.312C184.754,5.406,184.754,7.72,184.754,7.72z M180.288,10.674c0,0.937,0.854,1.793,1.812,1.793
				c0.965,0,1.793-0.783,1.793-1.793c0-0.938-0.899-1.813-1.793-1.813C181.141,8.857,180.288,9.773,180.288,10.674z"/>
			<path id="connector11pin" fill="#FFBF00" d="M193.686,7.72v6.002c0,0,0,2.214-2.647,2.214c-2.711,0-2.711-2.214-2.711-2.214V7.72
				c0,0,0-2.312,2.711-2.312C193.686,5.406,193.686,7.72,193.686,7.72z M189.219,10.674c0,0.937,0.855,1.793,1.812,1.793
				c0.967,0,1.795-0.783,1.795-1.793c0-0.938-0.9-1.813-1.795-1.813C190.075,8.857,189.219,9.773,189.219,10.674z"/>
			<path id="connector12pin" fill="#FFBF00" d="M202.62,7.72v6.002c0,0,0,2.214-2.647,2.214c-2.712,0-2.712-2.214-2.712-2.214V7.72
				c0,0,0-2.312,2.712-2.312C202.62,5.406,202.62,7.72,202.62,7.72z M198.148,10.674c0,0.937,0.858,1.793,1.813,1.793
				c0.97,0,1.795-0.783,1.795-1.793c0-0.938-0.901-1.813-1.795-1.813C199.006,8.857,198.148,9.773,198.148,10.674z"/>
			<path id="connector13pin" fill="#FFBF00" d="M211.551,7.72v6.002c0,0,0,2.214-2.65,2.214c-2.709,0-2.709-2.214-2.709-2.214V7.72
				c0,0,0-2.312,2.709-2.312C211.551,5.406,211.551,7.72,211.551,7.72z M207.086,10.674c0,0.937,0.854,1.793,1.812,1.793
				c0.97,0,1.795-0.783,1.795-1.793c0-0.938-0.901-1.813-1.795-1.813C207.939,8.857,207.086,9.773,207.086,10.674z"/>
			<path id="connector14pin" fill="#FFBF00" d="M220.407,7.72v6.002c0,0,0,2.214-2.65,2.214c-2.715,0-2.715-2.214-2.715-2.214V7.72
				c0,0,0-2.312,2.715-2.312C220.407,5.406,220.407,7.72,220.407,7.72z M215.938,10.674c0,0.937,0.854,1.793,1.812,1.793
				c0.967,0,1.793-0.783,1.793-1.793c0-0.938-0.9-1.813-1.793-1.813C216.793,8.857,215.938,9.773,215.938,10.674z"/>
			<path id="connector15pin" fill="#FFBF00" d="M229.418,7.72v6.002c0,0,0,2.214-2.648,2.214c-2.713,0-2.713-2.214-2.713-2.214V7.72
				c0,0,0-2.312,2.713-2.312C229.418,5.406,229.418,7.72,229.418,7.72z M224.952,10.674c0,0.937,0.854,1.793,1.812,1.793
				c0.965,0,1.793-0.783,1.793-1.793c0-0.938-0.897-1.813-1.793-1.813C225.805,8.857,224.952,9.773,224.952,10.674z"/>
			<path id="connector22pin" fill="#FFBF00" d="M184.793,176.987v6.003c0,0,0,2.213-2.648,2.213c-2.709,0-2.709-2.213-2.709-2.213
				v-6.003c0,0,0-2.312,2.709-2.312C184.793,174.675,184.793,176.987,184.793,176.987z M180.327,179.94
				c0,0.937,0.854,1.793,1.812,1.793c0.969,0,1.795-0.784,1.795-1.793c0-0.938-0.9-1.813-1.795-1.813
				C181.182,178.125,180.327,179.041,180.327,179.94z"/>
			<path id="connector23pin" fill="#FFBF00" d="M193.686,176.987v6.003c0,0,0,2.213-2.647,2.213c-2.711,0-2.711-2.213-2.711-2.213
				v-6.003c0,0,0-2.312,2.711-2.312C193.686,174.675,193.686,176.987,193.686,176.987z M189.219,179.94
				c0,0.937,0.855,1.793,1.812,1.793c0.967,0,1.795-0.784,1.795-1.793c0-0.938-0.9-1.813-1.795-1.813
				C190.075,178.125,189.219,179.041,189.219,179.94z"/>
			<path id="connector24pin" fill="#FFBF00" d="M202.62,176.987v6.003c0,0,0,2.213-2.647,2.213c-2.712,0-2.712-2.213-2.712-2.213
				v-6.003c0,0,0-2.312,2.712-2.312C202.62,174.675,202.62,176.987,202.62,176.987z M198.148,179.94
				c0,0.937,0.858,1.793,1.813,1.793c0.97,0,1.795-0.784,1.795-1.793c0-0.938-0.901-1.813-1.795-1.813
				C199.006,178.125,198.148,179.041,198.148,179.94z"/>
			<path id="connector25pin" fill="#FFBF00" d="M211.551,176.987v6.003c0,0,0,2.213-2.65,2.213c-2.709,0-2.709-2.213-2.709-2.213
				v-6.003c0,0,0-2.312,2.709-2.312C211.551,174.675,211.551,176.987,211.551,176.987z M207.086,179.94
				c0,0.937,0.854,1.793,1.812,1.793c0.97,0,1.795-0.784,1.795-1.793c0-0.938-0.901-1.813-1.795-1.813
				C207.939,178.125,207.086,179.041,207.086,179.94z"/>
			<path id="connector26pin" fill="#FFBF00" d="M220.48,176.987v6.003c0,0,0,2.213-2.646,2.213c-2.715,0-2.715-2.213-2.715-2.213
				v-6.003c0,0,0-2.312,2.715-2.312C220.48,174.675,220.48,176.987,220.48,176.987z M216.02,179.94c0,0.937,0.854,1.793,1.812,1.793
				c0.969,0,1.793-0.784,1.793-1.793c0-0.938-0.899-1.813-1.793-1.813C216.874,178.125,216.02,179.041,216.02,179.94z"/>
			<path id="connector27pin" fill="#FFBF00" d="M229.338,176.987v6.003c0,0,0,2.213-2.648,2.213c-2.713,0-2.713-2.213-2.713-2.213
				v-6.003c0,0,0-2.312,2.713-2.312C229.338,174.675,229.338,176.987,229.338,176.987z M224.872,179.94
				c0,0.937,0.854,1.793,1.812,1.793c0.967,0,1.793-0.784,1.793-1.793c0-0.938-0.897-1.813-1.793-1.813
				C225.725,178.125,224.872,179.041,224.872,179.94z"/>
			<path id="connector16pin" fill="#FFBF00" d="M122.479,176.987v6.003c0,0,0,2.213-2.648,2.213c-2.713,0-2.713-2.213-2.713-2.213
				v-6.003c0,0,0-2.312,2.713-2.312C122.479,174.675,122.479,176.987,122.479,176.987z M118.01,179.94
				c0,0.937,0.854,1.793,1.812,1.793c0.967,0,1.795-0.784,1.795-1.793c0-0.938-0.9-1.813-1.795-1.813
				C118.866,178.125,118.01,179.041,118.01,179.94z"/>
			<path id="connector17pin" fill="#FFBF00" d="M131.372,176.987v6.003c0,0,0,2.213-2.649,2.213c-2.709,0-2.709-2.213-2.709-2.213
				v-6.003c0,0,0-2.312,2.709-2.312C131.372,174.675,131.372,176.987,131.372,176.987z M126.9,179.94
				c0,0.937,0.858,1.793,1.813,1.793c0.968,0,1.795-0.784,1.795-1.793c0-0.938-0.903-1.813-1.795-1.813
				C127.76,178.125,126.9,179.041,126.9,179.94z"/>
			<path id="connector18pin" fill="#FFBF00" d="M140.301,176.987v6.003c0,0,0,2.213-2.648,2.213c-2.711,0-2.711-2.213-2.711-2.213
				v-6.003c0,0,0-2.312,2.711-2.312C140.301,174.675,140.301,176.987,140.301,176.987z M135.838,179.94
				c0,0.937,0.854,1.793,1.812,1.793c0.97,0,1.793-0.784,1.793-1.793c0-0.938-0.899-1.813-1.793-1.813
				C136.689,178.125,135.838,179.041,135.838,179.94z"/>
			<path id="connector19pin" fill="#FFBF00" d="M149.232,176.987v6.003c0,0,0,2.213-2.646,2.213c-2.713,0-2.713-2.213-2.713-2.213
				v-6.003c0,0,0-2.312,2.713-2.312C149.232,174.675,149.232,176.987,149.232,176.987z M144.77,179.94
				c0,0.937,0.856,1.793,1.813,1.793c0.965,0,1.793-0.784,1.793-1.793c0-0.938-0.901-1.813-1.793-1.813
				C145.625,178.125,144.77,179.041,144.77,179.94z"/>
			<path id="connector20pin" fill="#FFBF00" d="M158.17,176.987v6.003c0,0,0,2.213-2.65,2.213c-2.711,0-2.711-2.213-2.711-2.213
				v-6.003c0,0,0-2.312,2.711-2.312C158.17,174.675,158.17,176.987,158.17,176.987z M153.704,179.94
				c0,0.937,0.854,1.793,1.812,1.793c0.965,0,1.793-0.784,1.793-1.793c0-0.938-0.899-1.813-1.793-1.813
				C154.557,178.125,153.704,179.041,153.704,179.94z"/>
			<path id="connector21pin" fill="#FFBF00" d="M167.021,176.987v6.003c0,0,0,2.213-2.647,2.213c-2.711,0-2.711-2.213-2.711-2.213
				v-6.003c0,0,0-2.312,2.711-2.312C167.021,174.675,167.021,176.987,167.021,176.987z M162.555,179.94
				c0,0.937,0.854,1.793,1.812,1.793c0.967,0,1.795-0.784,1.795-1.793c0-0.938-0.9-1.813-1.795-1.813
				C163.411,178.125,162.555,179.041,162.555,179.94z"/>
		</g>

			<polygon id="polygon45" fill="none" stroke="#000000" stroke-width="0.48" stroke-linecap="round" stroke-linejoin="round" stroke-miterlimit="10" points="
			233.57,45.438 233.57,5.385 227.329,0.927 0.888,0.927 0.89,188.052 233.57,188.052 233.57,179.134 242.489,170.216 
			242.489,54.358 		"/>
	</g>
</svg>
