<?xml version="1.0" encoding="utf-8"?>
<!-- Generator: Adobe Illustrator 15.0.1, SVG Export Plug-In . SVG Version: 6.00 Build 0)  -->
<!DOCTYPE svg PUBLIC "-//W3C//DTD SVG 1.1//EN" "http://www.w3.org/Graphics/SVG/1.1/DTD/svg11.dtd">
<svg version="1.1" id="Ebene_1" xmlns="http://www.w3.org/2000/svg" xmlns:xlink="http://www.w3.org/1999/xlink" x="0px" y="0px"
	 width="44.027px" height="3.975px" viewBox="0 0 44.027 3.975" enable-background="new 0 0 44.027 3.975" xml:space="preserve">
<g id="layer1" transform="translate(-408.28125,-819.37145)" inkscape:groupmode="layer" inkscape:label="Calque 1">
	<g id="g3037" transform="matrix(1.25,0,0,-1.25,433.92788,821.54983)">
		<path id="path3039" inkscape:connector-curvature="0" fill="#FFFFFF" d="M-16.009,1.709h1.479l1.794-2.263h0.009v2.263h0.955
			v-3.114h-1.48l-1.793,2.261h-0.009v-2.261h-0.955V1.709z"/>
	</g>
	<g id="g3041" transform="matrix(1.25,0,0,-1.25,508.49812,821.54983)">
		<path id="path3043" inkscape:connector-curvature="0" fill="#FFFFFF" d="M-61.448,1.709h3.639V0.934h-1.342v-2.339h-0.954v2.339
			h-1.343V1.709z"/>
	</g>
	<g id="g3045" transform="matrix(1.25,0,0,-1.25,426.02625,827.88645)">
		<path id="path3047" inkscape:connector-curvature="0" fill="#FFFFFF" d="M-11.194,5.57L-11.194,5.57h-0.099h-1.456h-0.196
			c-0.151,0-0.273,0.122-0.273,0.273c0,0.15,0.122,0.273,0.273,0.273h0.09h2.44v0.697h-2.529h-0.187
			c-0.589,0-1.066-0.432-1.066-0.966c0-0.533,0.477-0.966,1.066-0.966h0.099h1.456h0.196c0.15,0,0.273-0.121,0.273-0.273
			c0-0.15-0.123-0.272-0.273-0.272h-0.09h-2.586V3.638h2.675h0.188c0.588,0,1.065,0.432,1.065,0.966
			C-10.129,5.137-10.605,5.57-11.194,5.57"/>
	</g>
	<g id="g3049" transform="matrix(1.25,0,0,-1.25,529.7665,821.54983)">
		<path id="path3051" inkscape:connector-curvature="0" fill="#FFFFFF" d="M-74.406,1.709h0.955v-2.314h2.145v-0.799h-3.1V1.709z"/>
	</g>
	<g id="g3053" transform="matrix(1.25,0,0,-1.25,556.57063,831.4777)">
		<path id="path3055" inkscape:connector-curvature="0" fill="#FFFFFF" d="M-90.739,7.758h1.222l-0.619,1.17L-90.739,7.758z
			 M-90.756,9.651h1.243l1.712-3.114h-1.063l-0.297,0.55h-1.934l-0.28-0.55h-1.066L-90.756,9.651z"/>
	</g>
	<g id="g3057" transform="matrix(1.25,0,0,-1.25,578.78987,834.22795)">
		<path id="path3059" inkscape:connector-curvature="0" fill="#FFFFFF" d="M-104.277,9.434V9.98h1.837
			c0.152,0,0.273-0.121,0.273-0.273c0-0.15-0.122-0.273-0.273-0.273H-104.277z M-104.277,10.67v0.516h1.429h0.086
			c0.143,0,0.257-0.116,0.257-0.259c0-0.143-0.114-0.258-0.257-0.258H-104.277z M-101.687,10.519
			c0.067,0.124,0.109,0.264,0.109,0.411c0,0.506-0.452,0.918-1.009,0.918h-2.65V8.738h0.96h1.834h0.188
			c0.588,0,1.066,0.432,1.066,0.966C-101.189,10.047-101.389,10.348-101.687,10.519"/>
	</g>
	<g id="g3061" transform="matrix(1.25,0,0,-1.25,476.77212,830.65258)">
		<path id="path3063" inkscape:connector-curvature="0" fill="#FFFFFF" d="M-42.115,7.256c0-0.48-0.1-0.663-0.575-0.663h-1.288
			c-0.476,0-0.576,0.183-0.576,0.663v0.178v0.177c0,0.479,0.1,0.663,0.576,0.663h1.288c0.476,0,0.575-0.184,0.575-0.663V7.434V7.256
			z M-42.569,9.024H-44.1c-0.86,0-1.371-0.215-1.371-1.127V7.434V6.969c0-0.911,0.512-1.126,1.371-1.126h1.531
			c0.86,0,1.372,0.215,1.372,1.126v0.464v0.464C-41.197,8.809-41.709,9.024-42.569,9.024"/>
	</g>
	<g id="g3065" transform="matrix(1.25,0,0,-1.25,501.86125,830.65258)">
		<path id="path3067" inkscape:connector-curvature="0" fill="#FFFFFF" d="M-57.403,7.256c0-0.48-0.1-0.663-0.576-0.663h-1.287
			c-0.477,0-0.577,0.183-0.577,0.663v0.178v0.178c0,0.48,0.1,0.662,0.577,0.662h1.287c0.476,0,0.576-0.183,0.576-0.662V7.434V7.256z
			 M-57.858,9.024h-1.532c-0.859,0-1.371-0.215-1.371-1.127V7.434V6.969c0-0.911,0.512-1.126,1.371-1.126h1.532
			c0.861,0,1.372,0.215,1.372,1.126v0.464v0.464C-56.486,8.809-56.997,9.024-57.858,9.024"/>
	</g>
</g>
</svg>
