<?xml version="1.0" encoding="utf-8"?>
<!-- Generator: Adobe Illustrator 15.0.1, SVG Export Plug-In . SVG Version: 6.00 Build 0)  -->
<!DOCTYPE svg PUBLIC "-//W3C//DTD SVG 1.1//EN" "http://www.w3.org/Graphics/SVG/1.1/DTD/svg11.dtd">
<svg version="1.1" id="Ebene_1" xmlns="http://www.w3.org/2000/svg" xmlns:xlink="http://www.w3.org/1999/xlink" x="0px" y="0px"
	 width="75.117px" height="71.146px" viewBox="0 0 75.117 71.146" enable-background="new 0 0 75.117 71.146" xml:space="preserve">
<g>
	<path fill="#606060" d="M7.654,64.063v7.086h67.463V1.702l-0.002-0.004l-0.697,0.004V0l0,0H0.699l0,0l0,0l0,0l0,0l0,0v1.702H0l0,0
		l0,0l0,0l0,0l0,0l0,0l0,0l0,0l0,0l0,0l0,0l0,0l0,0v62.36L7.654,64.063L7.654,64.063z"/>
	<g opacity="0.15">
		<rect y="1.702" fill="#FFFFFF" width="0.699" height="62.36"/>
	</g>
	<g opacity="0.15">
		<rect x="7.686" y="64.063" fill="#FFFFFF" width="0.699" height="7.086"/>
	</g>
	<g opacity="0.15">
		<rect x="74.418" y="1.702" fill="#FFFFFF" width="0.699" height="69.445"/>
	</g>
</g>
</svg>
