<?xml version="1.0" encoding="utf-8"?>
<!-- Generator: Adobe Illustrator 15.1.0, SVG Export Plug-In . SVG Version: 6.00 Build 0)  -->
<!DOCTYPE svg PUBLIC "-//W3C//DTD SVG 1.1//EN" "http://www.w3.org/Graphics/SVG/1.1/DTD/svg11.dtd">
<svg version="1.1" id="Ebene_1" xmlns:svg="http://www.w3.org/2000/svg"
	 xmlns="http://www.w3.org/2000/svg" xmlns:xlink="http://www.w3.org/1999/xlink" x="0px" y="0px" width="67.624px"
	 height="42.443px" viewBox="-10.232 -26.666 67.624 42.443" enable-background="new -10.232 -26.666 67.624 42.443"
	 xml:space="preserve">
<g id="breadboard">
	<g>
		<g>
			<g>
				<rect x="37.98" y="-26.666" fill="#C7A663" width="0.588" height="2.333"/>
				<rect x="37.98" y="-26.666" opacity="0.7" fill="#999999" width="0.119" height="2.333"/>
				<rect x="38.449" y="-26.666" opacity="0.7" fill="#4D4D4D" width="0.119" height="2.333"/>
			</g>
			<g>
				<rect x="30.78" y="-26.666" fill="#C7A663" width="0.588" height="2.333"/>
				<rect x="30.78" y="-26.666" opacity="0.7" fill="#999999" width="0.119" height="2.333"/>
				<rect x="31.249" y="-26.666" opacity="0.7" fill="#4D4D4D" width="0.119" height="2.333"/>
			</g>
			<g>
				<rect x="23.581" y="-26.666" fill="#C7A663" width="0.587" height="2.333"/>
				<rect x="23.581" y="-26.666" opacity="0.7" fill="#999999" width="0.119" height="2.333"/>
				<rect x="24.049" y="-26.666" opacity="0.7" fill="#4D4D4D" width="0.119" height="2.333"/>
			</g>
			<g>
				<rect x="16.38" y="-26.666" fill="#C7A663" width="0.587" height="2.333"/>
				<rect x="16.38" y="-26.666" opacity="0.7" fill="#999999" width="0.119" height="2.333"/>
				<rect x="16.849" y="-26.666" opacity="0.7" fill="#4D4D4D" width="0.119" height="2.333"/>
			</g>
			<g>
				<rect x="9.18" y="-26.666" fill="#C7A663" width="0.587" height="2.333"/>
				<rect x="9.18" y="-26.666" opacity="0.7" fill="#999999" width="0.119" height="2.333"/>
				<rect x="9.649" y="-26.666" opacity="0.7" fill="#4D4D4D" width="0.119" height="2.333"/>
			</g>
		</g>
		<g>
			<g>
				<rect x="34.38" y="-26.078" fill="#7B6231" width="0.588" height="1.745"/>
				<rect x="34.38" y="-26.078" opacity="0.7" fill="#999999" width="0.119" height="1.745"/>
				<rect x="34.849" y="-26.078" opacity="0.7" fill="#4D4D4D" width="0.119" height="1.745"/>
			</g>
			<g>
				<rect x="27.18" y="-26.078" fill="#7B6231" width="0.588" height="1.745"/>
				<rect x="27.18" y="-26.078" opacity="0.7" fill="#999999" width="0.119" height="1.745"/>
				<rect x="27.648" y="-26.078" opacity="0.7" fill="#4D4D4D" width="0.119" height="1.745"/>
			</g>
			<g>
				<rect x="19.98" y="-26.078" fill="#7B6231" width="0.587" height="1.745"/>
				<rect x="19.98" y="-26.078" opacity="0.7" fill="#999999" width="0.119" height="1.745"/>
				<rect x="20.449" y="-26.078" opacity="0.7" fill="#4D4D4D" width="0.119" height="1.745"/>
			</g>
			<g>
				<rect x="12.78" y="-26.078" fill="#7B6231" width="0.587" height="1.745"/>
				<rect x="12.78" y="-26.078" opacity="0.7" fill="#999999" width="0.119" height="1.745"/>
				<rect x="13.249" y="-26.078" opacity="0.7" fill="#4D4D4D" width="0.119" height="1.745"/>
			</g>
		</g>
		<path fill="#666666" d="M-10.232-24.333V2.48h67.624v-26.813H-10.232z M-4.719-4.394c-1.427,0-2.583-1.157-2.583-2.583
			c0-1.426,1.157-2.583,2.583-2.583c1.426,0,2.583,1.157,2.583,2.583C-2.136-5.551-3.292-4.394-4.719-4.394z M51.878-4.394
			c-1.427,0-2.583-1.157-2.583-2.583c0-1.426,1.156-2.583,2.583-2.583s2.583,1.157,2.583,2.583
			C54.461-5.551,53.305-4.394,51.878-4.394z"/>
		<path fill="#4D4D4D" d="M-10.232-17.821V3.867H0.795v-21.688H-10.232z M-4.719-4.394c-1.427,0-2.583-1.157-2.583-2.583
			c0-1.426,1.157-2.583,2.583-2.583c1.426,0,2.583,1.157,2.583,2.583C-2.136-5.551-3.292-4.394-4.719-4.394z"/>
		<path fill="#4D4D4D" d="M46.364-17.821V3.867h11.027v-21.688H46.364z M51.878-4.394c-1.427,0-2.583-1.157-2.583-2.583
			c0-1.426,1.156-2.583,2.583-2.583s2.583,1.157,2.583,2.583C54.461-5.551,53.305-4.394,51.878-4.394z"/>
	</g>
	<polygon opacity="0.84" fill="#808080" points="3.9,-5.822 1.455,-18.645 -9.67,-18.645 -9.67,-24.333 -10.232,-24.333 
		-10.232,-17.821 0.795,-17.821 0.804,-3.889 	"/>
	<polygon opacity="0.68" fill="#4D4D4D" points="44.1,-5.822 45.704,-18.645 56.829,-18.645 56.829,-24.333 57.392,-24.333 
		57.392,-17.821 46.364,-17.821 46.355,-3.889 	"/>
	<polyline fill="#4D4D4D" points="43.259,2.577 46.364,2.48 46.364,-3.645 45.268,-2.27 43.259,2.577 	"/>
	<polyline fill="#4D4D4D" points="3.9,2.577 0.795,2.48 0.795,-3.645 1.892,-2.27 3.9,2.577 	"/>
	<g>
		<path fill="#333333" d="M0.878-3.028C0.494-4.564,1.476-5.822,3.06-5.822H44.1c1.584,0,2.565,1.257,2.182,2.794l-4.004,16.012
			c-0.384,1.537-1.994,2.793-3.578,2.793H8.46c-1.584,0-3.194-1.256-3.579-2.793L0.878-3.028z"/>
		<path fill="#1A1A1A" d="M2.723-2.094C2.335-3.629,3.314-4.886,4.898-4.886h37.363c1.584,0,2.563,1.257,2.176,2.792l-3.568,14.142
			c-0.387,1.537-2,2.793-3.584,2.793H9.874c-1.584,0-3.197-1.256-3.584-2.793L2.723-2.094z"/>
		<path d="M5.96-0.828c-0.327-1.297,0.5-2.359,1.838-2.359h31.563c1.339,0,2.166,1.062,1.839,2.359l-3.016,11.947
			c-0.326,1.298-1.688,2.361-3.026,2.361H12.002c-1.338,0-2.701-1.063-3.027-2.361L5.96-0.828z"/>
		<g>
			<g>
				<circle fill="#746D51" cx="34.381" cy="6.665" r="1.2"/>
			</g>
			<g>
				<circle fill="#746D51" cx="27.181" cy="6.665" r="1.2"/>
			</g>
			<g>
				<circle fill="#746D51" cx="19.981" cy="6.665" r="1.2"/>
			</g>
			<g>
				<circle fill="#746D51" cx="12.781" cy="6.665" r="1.2"/>
			</g>
		</g>
		<g>
			<g>
				<rect x="33.182" y="6.665" fill="#746D51" width="2.374" height="2.014"/>
			</g>
			<g>
				<rect x="25.981" y="6.665" fill="#746D51" width="2.374" height="2.014"/>
			</g>
			<g>
				<rect x="18.782" y="6.665" fill="#746D51" width="2.374" height="2.014"/>
			</g>
			<g>
				<rect x="11.582" y="6.665" fill="#746D51" width="2.374" height="2.014"/>
			</g>
		</g>
		<g>
			<g>
				<circle fill="#9A916C" cx="34.38" cy="8.577" r="1.2"/>
			</g>
			<g>
				<circle fill="#9A916C" cx="27.18" cy="8.577" r="1.2"/>
			</g>
			<g>
				<circle fill="#9A916C" cx="19.98" cy="8.577" r="1.2"/>
			</g>
			<g>
				<circle fill="#9A916C" cx="12.78" cy="8.577" r="1.2"/>
			</g>
		</g>
		<g>
			<g>
				<circle fill="#746D51" cx="37.981" cy="-0.534" r="1.2"/>
			</g>
			<g>
				<circle fill="#746D51" cx="30.781" cy="-0.534" r="1.2"/>
			</g>
			<g>
				<circle fill="#746D51" cx="23.581" cy="-0.534" r="1.2"/>
			</g>
			<g>
				<circle fill="#746D51" cx="16.38" cy="-0.534" r="1.2"/>
			</g>
			<g>
				<circle fill="#746D51" cx="9.18" cy="-0.534" r="1.2"/>
			</g>
		</g>
		<g>
			<g>
				<rect x="36.781" y="-0.534" fill="#746D51" width="2.373" height="2.014"/>
			</g>
			<g>
				<rect x="29.581" y="-0.534" fill="#746D51" width="2.373" height="2.014"/>
			</g>
			<g>
				<rect x="22.381" y="-0.534" fill="#746D51" width="2.373" height="2.014"/>
			</g>
			<g>
				<rect x="15.181" y="-0.534" fill="#746D51" width="2.374" height="2.014"/>
			</g>
			<g>
				<rect x="7.98" y="-0.534" fill="#746D51" width="2.374" height="2.014"/>
			</g>
		</g>
		<g>
			<g>
				<path fill="#9A916C" d="M37.065-1.307c0.222-0.229,0.438-0.324,0.753-0.432L37.804,1.48h-0.738V-1.307z"/>
			</g>
			<g>
				<path fill="#9A916C" d="M29.865-1.307c0.222-0.229,0.438-0.324,0.753-0.432L30.604,1.48h-0.738V-1.307z"/>
			</g>
			<g>
				<path fill="#9A916C" d="M22.666-1.307c0.221-0.229,0.438-0.324,0.752-0.432L23.403,1.48h-0.738V-1.307z"/>
			</g>
			<g>
				<path fill="#9A916C" d="M15.465-1.307c0.221-0.229,0.438-0.324,0.752-0.432L16.203,1.48h-0.738V-1.307z"/>
			</g>
			<g>
				<path fill="#9A916C" d="M8.265-1.307c0.221-0.229,0.438-0.324,0.752-0.432L9.003,1.48H8.265V-1.307z"/>
			</g>
		</g>
		<g>
			<g>
				<path fill="#9A916C" d="M33.422,5.955c0.149-0.194,0.399-0.397,0.688-0.489l0.051,3.276h-0.738V5.955z"/>
			</g>
			<g>
				<path fill="#9A916C" d="M26.222,5.955c0.149-0.194,0.399-0.397,0.688-0.489l0.051,3.276h-0.738V5.955z"/>
			</g>
			<g>
				<path fill="#9A916C" d="M19.022,5.955c0.149-0.194,0.399-0.397,0.687-0.489l0.051,3.276h-0.738V5.955z"/>
			</g>
			<g>
				<path fill="#9A916C" d="M11.822,5.955c0.149-0.194,0.399-0.397,0.687-0.489l0.051,3.276h-0.738V5.955z"/>
			</g>
		</g>
		<g>
			<g>
				<circle fill="#9A916C" cx="37.981" cy="1.378" r="1.2"/>
			</g>
			<g>
				<circle fill="#9A916C" cx="30.781" cy="1.378" r="1.2"/>
			</g>
			<g>
				<circle fill="#9A916C" cx="23.581" cy="1.378" r="1.2"/>
			</g>
			<g>
				<circle fill="#9A916C" cx="16.38" cy="1.378" r="1.2"/>
			</g>
			<g>
				<circle fill="#9A916C" cx="9.18" cy="1.378" r="1.2"/>
			</g>
		</g>
	</g>
</g>
<g>
	<g opacity="0.68">
		<g>
			<path fill="#746D51" d="M37.98,1.378l0.001,1.199c1.181,0,1.338-1.361,1.077-1.717L37.98,1.378z"/>
		</g>
		<g>
			<path fill="#746D51" d="M30.78,1.378l0.001,1.199c1.181,0,1.338-1.361,1.077-1.717L30.78,1.378z"/>
		</g>
		<g>
			<path fill="#746D51" d="M23.581,1.378l0,1.199c1.181,0,1.338-1.361,1.077-1.717L23.581,1.378z"/>
		</g>
		<g>
			<path fill="#746D51" d="M16.38,1.378l0,1.199c1.181,0,1.338-1.361,1.078-1.717L16.38,1.378z"/>
		</g>
		<g>
			<path fill="#746D51" d="M9.18,1.378l0,1.199c1.181,0,1.338-1.361,1.078-1.717L9.18,1.378z"/>
		</g>
	</g>
	<g opacity="0.68">
		<g>
			<path fill="#746D51" d="M37.98,1.378l-0.717,0.96c0.945,0.707,1.887-0.289,1.891-0.73L37.98,1.378z"/>
		</g>
		<g>
			<path fill="#746D51" d="M30.78,1.378l-0.717,0.96c0.945,0.707,1.887-0.289,1.891-0.73L30.78,1.378z"/>
		</g>
		<g>
			<path fill="#746D51" d="M23.581,1.378l-0.717,0.96c0.945,0.707,1.887-0.289,1.891-0.73L23.581,1.378z"/>
		</g>
		<g>
			<path fill="#746D51" d="M16.38,1.378l-0.717,0.96c0.945,0.707,1.887-0.289,1.891-0.73L16.38,1.378z"/>
		</g>
		<g>
			<path fill="#746D51" d="M9.18,1.378l-0.717,0.96c0.945,0.707,1.887-0.289,1.891-0.73L9.18,1.378z"/>
		</g>
	</g>
	<g opacity="0.68">
		<g>
			<path fill="#AEA789" d="M37.981,1.377l-0.091-1.196c-1.177,0.088-1.232,1.457-0.946,1.793L37.981,1.377z"/>
		</g>
		<g>
			<path fill="#AEA789" d="M30.781,1.377L30.69,0.182c-1.177,0.088-1.232,1.457-0.946,1.793L30.781,1.377z"/>
		</g>
		<g>
			<path fill="#AEA789" d="M23.581,1.377l-0.09-1.196c-1.177,0.088-1.233,1.457-0.946,1.793L23.581,1.377z"/>
		</g>
		<g>
			<path fill="#AEA789" d="M16.381,1.377l-0.09-1.196c-1.177,0.088-1.233,1.457-0.946,1.793L16.381,1.377z"/>
		</g>
		<g>
			<path fill="#AEA789" d="M9.181,1.377L9.09,0.182C7.913,0.27,7.857,1.639,8.144,1.975L9.181,1.377z"/>
		</g>
	</g>
	<g opacity="0.68">
		<g>
			<path fill="#AEA789" d="M37.981,1.377l0.644-1.011c-0.996-0.635-1.86,0.429-1.832,0.869L37.981,1.377z"/>
		</g>
		<g>
			<path fill="#AEA789" d="M30.781,1.377l0.644-1.011c-0.996-0.635-1.86,0.429-1.832,0.869L30.781,1.377z"/>
		</g>
		<g>
			<path fill="#AEA789" d="M23.581,1.377l0.644-1.011c-0.996-0.635-1.86,0.429-1.832,0.869L23.581,1.377z"/>
		</g>
		<g>
			<path fill="#AEA789" d="M16.381,1.377l0.644-1.011c-0.996-0.635-1.86,0.429-1.832,0.869L16.381,1.377z"/>
		</g>
		<g>
			<path fill="#AEA789" d="M9.181,1.377l0.644-1.011c-0.996-0.635-1.86,0.429-1.832,0.869L9.181,1.377z"/>
		</g>
	</g>
</g>
<g>
	<g opacity="0.68">
		<g>
			<path fill="#746D51" d="M34.381,8.578l0.001,1.199c1.181,0,1.338-1.361,1.077-1.717L34.381,8.578z"/>
		</g>
		<g>
			<path fill="#746D51" d="M27.181,8.578l0.001,1.199c1.181,0,1.338-1.361,1.077-1.717L27.181,8.578z"/>
		</g>
		<g>
			<path fill="#746D51" d="M19.981,8.578l0,1.199c1.181,0,1.338-1.361,1.078-1.717L19.981,8.578z"/>
		</g>
		<g>
			<path fill="#746D51" d="M12.781,8.578l0,1.199c1.181,0,1.338-1.361,1.078-1.717L12.781,8.578z"/>
		</g>
	</g>
	<g opacity="0.68">
		<g>
			<path fill="#746D51" d="M34.381,8.578l-0.717,0.96c0.945,0.707,1.887-0.289,1.891-0.73L34.381,8.578z"/>
		</g>
		<g>
			<path fill="#746D51" d="M27.181,8.578l-0.717,0.96c0.945,0.707,1.887-0.289,1.891-0.73L27.181,8.578z"/>
		</g>
		<g>
			<path fill="#746D51" d="M19.981,8.578l-0.717,0.96c0.945,0.707,1.887-0.289,1.891-0.73L19.981,8.578z"/>
		</g>
		<g>
			<path fill="#746D51" d="M12.781,8.578l-0.717,0.96c0.945,0.707,1.887-0.289,1.891-0.73L12.781,8.578z"/>
		</g>
	</g>
	<g opacity="0.68">
		<g>
			<path fill="#AEA789" d="M34.382,8.578l-0.091-1.196c-1.177,0.088-1.232,1.457-0.946,1.793L34.382,8.578z"/>
		</g>
		<g>
			<path fill="#AEA789" d="M27.182,8.578l-0.091-1.196c-1.177,0.088-1.232,1.457-0.946,1.793L27.182,8.578z"/>
		</g>
		<g>
			<path fill="#AEA789" d="M19.981,8.578l-0.09-1.196c-1.177,0.088-1.233,1.457-0.946,1.793L19.981,8.578z"/>
		</g>
		<g>
			<path fill="#AEA789" d="M12.781,8.578l-0.09-1.196c-1.177,0.088-1.233,1.457-0.946,1.793L12.781,8.578z"/>
		</g>
	</g>
	<g opacity="0.68">
		<g>
			<path fill="#AEA789" d="M34.382,8.578l0.644-1.011c-0.996-0.635-1.86,0.429-1.832,0.869L34.382,8.578z"/>
		</g>
		<g>
			<path fill="#AEA789" d="M27.182,8.578l0.644-1.011c-0.996-0.635-1.86,0.429-1.832,0.869L27.182,8.578z"/>
		</g>
		<g>
			<path fill="#AEA789" d="M19.981,8.578l0.644-1.011c-0.996-0.635-1.86,0.429-1.832,0.869L19.981,8.578z"/>
		</g>
		<g>
			<path fill="#AEA789" d="M12.781,8.578l0.644-1.011c-0.996-0.635-1.86,0.429-1.832,0.869L12.781,8.578z"/>
		</g>
	</g>
</g>
<path fill="#333333" d="M-4.719-7.226c-0.903,0-1.696-0.465-2.158-1.167c-0.268,0.407-0.426,0.893-0.426,1.416
	c0,1.427,1.157,2.583,2.583,2.583c1.426,0,2.583-1.157,2.583-2.583c0-0.523-0.158-1.009-0.426-1.416
	C-3.023-7.691-3.816-7.226-4.719-7.226z"/>
<path fill="#333333" d="M51.879-7.226c-0.904,0-1.696-0.465-2.158-1.167c-0.268,0.407-0.426,0.893-0.426,1.416
	c0,1.427,1.156,2.583,2.584,2.583c1.426,0,2.582-1.157,2.582-2.583c0-0.523-0.158-1.009-0.426-1.416
	C53.574-7.691,52.781-7.226,51.879-7.226z"/>
<rect x="46.364" y="2.855" fill="#333333" width="11.027" height="1.012"/>
<rect x="-10.232" y="2.855" fill="#333333" width="11.027" height="1.012"/>
</svg>
