<?xml version="1.0" encoding="utf-8"?>
<!-- Generator: Adobe Illustrator 15.1.0, SVG Export Plug-In . SVG Version: 6.00 Build 0)  -->
<!DOCTYPE svg PUBLIC "-//W3C//DTD SVG 1.1//EN" "http://www.w3.org/Graphics/SVG/1.1/DTD/svg11.dtd">
<svg version="1.1" id="Ebene_1" xmlns:svg="http://www.w3.org/2000/svg"
	 xmlns="http://www.w3.org/2000/svg" xmlns:xlink="http://www.w3.org/1999/xlink" x="0px" y="0px" width="72.147px"
	 height="71.23px" viewBox="-18.537 -10.927 72.147 71.23" enable-background="new -18.537 -10.927 72.147 71.23"
	 xml:space="preserve">
<g>
	<g>
		<g>
			<circle fill="#4D4D4D" cx="17.537" cy="25.77" r="34.533"/>
		</g>
		<g opacity="0.5">
			<path fill="#C6C6C6" d="M17.537,59.235c-4.014,0-7.954-0.671-11.708-1.998c-0.303-0.108-0.463-0.442-0.356-0.749
				c0.106-0.303,0.44-0.458,0.744-0.354c5.358,1.896,11.228,2.405,16.833,1.487c0.312-0.055,0.617,0.164,0.669,0.481
				c0.053,0.315-0.164,0.618-0.481,0.669C21.369,59.08,19.448,59.235,17.537,59.235z"/>
		</g>
		<g opacity="0.43">
			<g>
				<path fill="#020202" d="M-13.293,21.766c0-6.488,5.259-11.749,11.748-11.749c4.178,0,7.836,2.186,9.917,5.47
					c-1.868-4.011-5.923-6.8-10.643-6.8c-6.488,0-11.747,5.261-11.747,11.75c0,2.31,0.676,4.459,1.828,6.277
					C-12.891,25.209-13.293,23.536-13.293,21.766z"/>
			</g>
		</g>
		<g opacity="0.43">
			<g>
				<path fill="#020202" d="M26.247,21.766c0-6.488,5.258-11.749,11.747-11.749c4.178,0,7.836,2.186,9.917,5.47
					c-1.866-4.011-5.925-6.8-10.644-6.8c-6.488,0-11.748,5.261-11.748,11.75c0,2.31,0.676,4.459,1.832,6.277
					C26.649,25.209,26.247,23.536,26.247,21.766z"/>
			</g>
		</g>
		<g>
			<g>
				<g>
					<path fill="#9B9B9B" d="M-7.713,17.413c0-2.619,2.354-4.74,5.26-4.74c2.905,0,5.262,2.121,5.262,4.74v5.596H-7.713V17.413z"/>
					<path fill="#9B9B9B" d="M31.824,17.413c0-2.619,2.355-4.74,5.265-4.74c2.905,0,5.262,2.121,5.262,4.74v5.596H31.828v-5.596
						H31.824z"/>
				</g>
				<rect x="31.824" y="23.006" fill="#898989" width="10.522" height="25.234"/>
				<rect x="-7.713" y="23.006" fill="#898989" width="10.522" height="25.234"/>
				<g>
					<path fill="#999999" d="M31.065-9.274v-1.653H3.438v1.653l-21.975,19.547v37.575c0,5.41,4.325,9.836,9.611,9.836
						c5.284,0,12.367-9.035,25.427-9.035c13.06,0,20.384,9.035,25.963,9.035h1.006c5.576,0,10.14-4.426,10.14-9.836V10.273
						L31.065-9.274z M3.596,29.795v18.097h-12.1V29.795c-3.19-2.014-5.318-5.56-5.318-9.611c0-6.279,5.089-11.368,11.368-11.368
						c6.28,0,11.368,5.089,11.368,11.368C8.914,24.236,6.79,27.781,3.596,29.795z M43.135,29.795v18.097H31.037V29.795
						c-3.19-2.014-5.319-5.56-5.319-9.611c0-6.279,5.089-11.368,11.367-11.368c6.279,0,11.368,5.089,11.368,11.368
						C48.453,24.236,46.329,27.781,43.135,29.795z"/>
				</g>
				<rect x="3.438" y="-10.927" opacity="0.3" fill="#FFFFFF" enable-background="new    " width="27.627" height="1.653"/>
				<g>
					<path fill="none" d="M-2.453,8.815c-6.278,0-11.369,5.089-11.369,11.367c0,4.056,2.127,7.602,5.319,9.613v18.097h12.1V29.795
						c3.191-2.016,5.317-5.56,5.317-9.611C8.914,13.905,3.825,8.815-2.453,8.815z"/>
					<path fill="none" d="M37.084,8.815c-6.278,0-11.367,5.089-11.367,11.367c0,4.056,2.127,7.602,5.319,9.613v18.097h12.101V29.795
						c3.191-2.016,5.317-5.56,5.317-9.611C48.453,13.905,43.364,8.815,37.084,8.815z"/>
					<path fill="#898989" d="M-18.537,10.273v37.575c0,1.809,0.491,3.499,1.332,4.958V9.088L-18.537,10.273z"/>
					<path opacity="0.3" fill="#FFFFFF" enable-background="new    " d="M-18.537,10.273v37.575c0,1.809,0.491,3.499,1.332,4.958
						V9.088L-18.537,10.273z"/>
					<path fill="#898989" d="M53.61,10.273l-1.329-1.153v43.568c0.843-1.432,1.329-3.083,1.329-4.84V10.273z"/>
					<path opacity="0.3" fill="#FFFFFF" enable-background="new    " d="M53.61,10.273l-1.329-1.153v43.568
						c0.843-1.432,1.329-3.083,1.329-4.84V10.273z"/>
				</g>
				<g opacity="0.5">
					<path fill="#FFFFFF" d="M18.102-5.578v6.292h6.066v1.03h-6.066v6.343h-1.104V1.743h-6.062v-1.03h6.062v-6.292H18.102z"/>
				</g>
			</g>
		</g>
		<g>
			<path fill="#828282" d="M1.34,23.381h-7.598c-0.321,0-0.583-0.261-0.583-0.584c0-0.319,0.261-0.582,0.583-0.582H1.34
				c0.323,0,0.584,0.263,0.584,0.582C1.924,23.12,1.663,23.381,1.34,23.381z"/>
		</g>
		<g>
			<path fill="#828282" d="M40.885,23.381h-7.598c-0.322,0-0.584-0.261-0.584-0.584c0-0.319,0.262-0.582,0.584-0.582h7.598
				c0.321,0,0.584,0.263,0.584,0.582C41.469,23.12,41.207,23.381,40.885,23.381z"/>
		</g>
	</g>
	<path opacity="0.3" fill="#FFFFFF" enable-background="new    " d="M-7.701,17.087c0-2.422,2.379-4.396,5.249-4.396
		c2.869,0,5.229,1.971,5.229,4.396c0-2.09-2.695-3.789-5.229-3.789C-4.987,13.298-7.701,14.997-7.701,17.087z"/>
	<path opacity="0.3" fill="#FFFFFF" enable-background="new    " d="M31.848,17.087c0-2.422,2.379-4.396,5.246-4.396
		c2.869,0,5.23,1.971,5.23,4.396c0-2.09-2.694-3.789-5.23-3.789C34.56,13.298,31.848,14.997,31.848,17.087z"/>
</g>
</svg>
