<?xml version="1.0" encoding="utf-8"?>
<!-- Generator: Adobe Illustrator 15.1.0, SVG Export Plug-In . SVG Version: 6.00 Build 0)  -->
<!DOCTYPE svg PUBLIC "-//W3C//DTD SVG 1.1//EN" "http://www.w3.org/Graphics/SVG/1.1/DTD/svg11.dtd">
<svg version="1.1" id="Ebene_1" xmlns:svg="http://www.w3.org/2000/svg"
	 xmlns="http://www.w3.org/2000/svg" xmlns:xlink="http://www.w3.org/1999/xlink" x="0px" y="0px" width="53.018px"
	 height="56.475px" viewBox="0 -3.457 53.018 56.475" enable-background="new 0 -3.457 53.018 56.475" xml:space="preserve">
<circle fill="#999999" cx="26.747" cy="26.558" r="26.459"/>
<circle fill="#E6E6E6" cx="26.747" cy="23.002" r="26.459"/>
<path fill="#F2F2F2" d="M22.214,2.65c13.382,0,27.812,7.076,28.253,20.352c0.011-0.279,0.042-0.551,0.042-0.831
	c0-13.664-11.076-24.739-24.739-24.739c-13.664,0-24.74,11.076-24.74,24.739c0,0.28,0.033,0.552,0.042,0.831
	C1.514,9.726,8.831,2.65,22.214,2.65z"/>
<path fill="#CCCCCC" d="M30.303,44.242c-13.383,0-27.813-7.075-28.254-20.352c-0.01,0.278-0.042,0.55-0.042,0.83
	c0,13.665,11.076,24.739,24.739,24.739c13.664,0,24.74-11.074,24.74-24.739c0-0.28-0.033-0.552-0.042-0.83
	C51.002,37.167,43.684,44.242,30.303,44.242z"/>
<circle id="nonconn2_1_" fill="#B3B3B3" cx="26.747" cy="23.002" r="6.299"/>
<rect x="20.447" y="19.446" fill="#B3B3B3" width="12.6" height="3.952"/>
<circle id="nonconn2_2_" fill="#F2F2F2" cx="26.747" cy="19.445" r="6.3"/>
</svg>
