<?xml version="1.0" encoding="utf-8"?>
<!-- Generator: Adobe Illustrator 15.1.0, SVG Export Plug-In . SVG Version: 6.00 Build 0)  -->
<!DOCTYPE svg PUBLIC "-//W3C//DTD SVG 1.1//EN" "http://www.w3.org/Graphics/SVG/1.1/DTD/svg11.dtd">
<svg version="1.1" id="Ebene_1" xmlns:svg="http://www.w3.org/2000/svg"
	 xmlns="http://www.w3.org/2000/svg" xmlns:xlink="http://www.w3.org/1999/xlink" x="0px" y="0px" width="30.34px"
	 height="32.052px" viewBox="0 -1.712 30.34 32.052" enable-background="new 0 -1.712 30.34 32.052" xml:space="preserve">
<circle fill="#999999" cx="15.17" cy="15.17" r="14.882"/>
<circle fill="#E6E6E6" cx="15.17" cy="13.17" r="14.882"/>
<path fill="#F2F2F2" d="M12.62,1.723c7.526,0,15.643,3.98,15.891,11.447c0.006-0.157,0.023-0.31,0.023-0.467
	c0-7.685-6.229-13.915-13.914-13.915c-7.685,0-13.915,6.229-13.915,13.915c0,0.158,0.019,0.311,0.024,0.467
	C0.978,5.703,5.093,1.723,12.62,1.723z"/>
<path fill="#CCCCCC" d="M17.17,25.116c-7.527,0-15.643-3.979-15.891-11.447c-0.006,0.157-0.023,0.31-0.023,0.467
	c0,7.686,6.229,13.914,13.914,13.914c7.685,0,13.915-6.229,13.915-13.914c0-0.158-0.019-0.311-0.023-0.467
	C28.812,21.137,24.696,25.116,17.17,25.116z"/>
<g>
	<path fill="#999999" d="M15.17,11.096c1.705,0,3.126,1.205,3.465,2.809c0.05-0.237,0.078-0.482,0.078-0.734
		c0-1.957-1.586-3.543-3.543-3.543s-3.543,1.586-3.543,3.543c0,0.252,0.028,0.497,0.078,0.733
		C12.044,12.3,13.465,11.096,15.17,11.096z"/>
	<path fill="#F2F2F2" d="M15.17,16.713c1.705,0,3.126-1.205,3.465-2.809c-0.339-1.604-1.76-2.809-3.465-2.809
		c-1.705,0-3.126,1.204-3.465,2.808C12.043,15.508,13.465,16.713,15.17,16.713z"/>
</g>
</svg>
