<?xml version="1.0" encoding="utf-8"?>
<!-- Generator: Adobe Illustrator 15.1.0, SVG Export Plug-In . SVG Version: 6.00 Build 0)  -->
<!DOCTYPE svg PUBLIC "-//W3C//DTD SVG 1.1//EN" "http://www.w3.org/Graphics/SVG/1.1/DTD/svg11.dtd">
<svg version="1.1" id="Ebene_1" xmlns:svg="http://www.w3.org/2000/svg"
	 xmlns="http://www.w3.org/2000/svg" xmlns:xlink="http://www.w3.org/1999/xlink" x="0px" y="0px" width="53.018px"
	 height="56.475px" viewBox="0 -3.457 53.018 56.475" enable-background="new 0 -3.457 53.018 56.475" xml:space="preserve">
<circle fill="#999999" cx="26.868" cy="26.695" r="26.58"/>
<circle fill="#E6E6E6" cx="26.868" cy="23.123" r="26.58"/>
<path fill="#F2F2F2" d="M22.314,2.678c13.443,0,27.939,7.109,28.382,20.445c0.011-0.28,0.042-0.553,0.042-0.834
	c0-13.726-11.127-24.853-24.852-24.853C12.16-2.564,1.033,8.562,1.033,22.288c0,0.282,0.033,0.555,0.043,0.834
	C1.52,9.787,8.87,2.678,22.314,2.678z"/>
<path fill="#CCCCCC" d="M30.44,44.46c-13.443,0-27.94-7.107-28.383-20.445c-0.01,0.28-0.042,0.553-0.042,0.835
	c0,13.727,11.126,24.852,24.852,24.852c13.726,0,24.852-11.125,24.852-24.852c0-0.282-0.033-0.555-0.042-0.835
	C51.233,37.352,43.883,44.46,30.44,44.46z"/>
<g>
	<path fill="#999999" d="M26.868,19.418c3.046,0,5.583,2.151,6.188,5.017c0.089-0.424,0.14-0.862,0.14-1.312
		c0-3.495-2.833-6.328-6.328-6.328s-6.328,2.833-6.328,6.328c0,0.45,0.051,0.887,0.14,1.31
		C21.285,21.569,23.823,19.418,26.868,19.418z"/>
	<path fill="#F2F2F2" d="M26.868,29.451c3.046,0,5.583-2.151,6.188-5.016c-0.605-2.865-3.143-5.017-6.188-5.017
		c-3.044,0-5.583,2.151-6.188,5.015C21.283,27.299,23.823,29.451,26.868,29.451z"/>
</g>
</svg>
