<?xml version="1.0" encoding="utf-8"?>
<!-- Generator: Adobe Illustrator 15.1.0, SVG Export Plug-In . SVG Version: 6.00 Build 0)  -->
<!DOCTYPE svg PUBLIC "-//W3C//DTD SVG 1.1//EN" "http://www.w3.org/Graphics/SVG/1.1/DTD/svg11.dtd">
<svg version="1.1" id="Ebene_1" xmlns:svg="http://www.w3.org/2000/svg"
	 xmlns="http://www.w3.org/2000/svg" xmlns:xlink="http://www.w3.org/1999/xlink" x="0px" y="0px" width="87.883px"
	 height="32.68px" viewBox="0 0 87.883 32.68" enable-background="new 0 0 87.883 32.68" xml:space="preserve">
<g>
	<path fill="#333333" d="M4.432,8.268c0-3.196,2.591-5.788,5.787-5.788c3.195,0,5.786,2.592,5.786,5.788V7.792
		c0-3.196-2.591-5.788-5.786-5.788c-3.196,0-5.787,2.592-5.787,5.788V8.268z"/>
	<path fill="#333333" d="M71.879,8.268c0-3.196,2.59-5.788,5.786-5.788c3.194,0,5.786,2.592,5.786,5.788V7.792
		c0-3.196-2.592-5.788-5.786-5.788c-3.196,0-5.786,2.592-5.786,5.788V8.268z"/>
	<path fill="#1A1A1A" d="M19.643,1.154H1.976c-0.394,0-0.717,0.355-0.717,0.79v8.46c0,0.435,19.102,0.435,19.102,0v-8.46
		C20.36,1.51,20.038,1.154,19.643,1.154z M16.005,8.505H4.432V7.792c0-3.196,2.591-5.788,5.787-5.788
		c3.195,0,5.786,2.592,5.786,5.788V8.505z"/>
	<path fill="#1A1A1A" d="M85.908,1.154H67.741c-0.394,0-0.716,0.355-0.716,0.79v8.46c0,0.435,19.6,0.435,19.6,0v-8.46
		C86.625,1.51,86.303,1.154,85.908,1.154z M83.451,8.505H71.879V7.792c0-3.196,2.59-5.788,5.787-5.788
		c3.193,0,5.785,2.592,5.785,5.788V8.505L83.451,8.505z"/>
	<path fill="#B3B3B3" d="M15.537,7.602V4.768c0-0.394-0.323-0.716-0.716-0.716h-2.284c-0.395,0-0.717,0.322-0.717,0.716v2.834H8.651
		V4.768c0-0.394-0.322-0.716-0.716-0.716H5.651c-0.395,0-0.718,0.322-0.718,0.716v2.834H2.518v1.417h15.435V7.602H15.537z"/>
	<path fill="#B3B3B3" d="M82.984,7.602V4.768c0-0.394-0.322-0.716-0.717-0.716h-2.283c-0.396,0-0.717,0.322-0.717,0.716v2.834h-3.17
		V4.768c0-0.394-0.322-0.716-0.716-0.716h-2.284c-0.395,0-0.717,0.322-0.717,0.716v2.834h-2.416v1.417H85.4V7.602H82.984z"/>
	<rect y="8.116" fill="#B3B3B3" width="25.076" height="20.417"/>
	<rect x="62.807" y="8.116" fill="#B3B3B3" width="25.076" height="20.417"/>
	<g>
		<rect x="86.625" y="7.856" opacity="0.47" fill="#808080" enable-background="new    " width="1.258" height="20.678"/>
		<rect x="61.609" y="27.275" opacity="0.47" fill="#808080" enable-background="new    " width="25.017" height="1.259"/>
	</g>
	<g>
		<polygon opacity="0.47" fill="#E6E6E6" enable-background="new    " points="0,7.856 1.258,7.856 1.258,27.275 0,28.533 		"/>
		<polygon opacity="0.47" fill="#808080" enable-background="new    " points="0,28.533 1.258,27.275 26.275,27.275 26.275,28.533 
					"/>
	</g>
	<path fill="#4D4D4D" d="M68.705,0.791c0-0.396-0.322-0.719-0.717-0.719H19.894c-0.394,0-0.716,0.323-0.716,0.719v4.583h49.527
		V0.791z"/>
	<path fill="#808080" d="M68.705,1.15c0-0.395-0.322-0.718-0.717-0.718H19.894c-0.394,0-0.716,0.323-0.716,0.718V0.791
		c0-0.396,0.322-0.719,0.716-0.719H67.99c0.394,0,0.716,0.323,0.716,0.719L68.705,1.15L68.705,1.15z"/>
	<g>
		<path fill="#4D4D4D" d="M87.883,8.095c0,0.396-0.324,0.72-0.72,0.72H0.72C0.324,8.815,0,8.491,0,8.095V6.094
			c0-0.396,0.324-0.72,0.72-0.72h86.443c0.396,0,0.72,0.323,0.72,0.72V8.095z"/>
	</g>
	<rect y="4.648" fill="#4D4D4D" width="87.883" height="1.887"/>
	<rect y="5.209" fill="#999999" width="87.883" height="0.33"/>
	<rect y="5.417" fill="#808080" width="87.883" height="0.33"/>
	<rect x="87.262" y="5.747" opacity="0.1" fill="#1A1A1A" enable-background="new    " width="0.621" height="2.349"/>
	<g>
		<path fill="#CCCCCC" d="M7.101,25.583c-0.197,0-0.439-0.142-0.537-0.312l-3.118-5.399c-0.099-0.171-0.099-0.45,0-0.621
			l3.118-5.399c0.098-0.171,0.34-0.31,0.537-0.31h6.235c0.197,0,0.438,0.139,0.537,0.31l3.118,5.399c0.098,0.171,0.098,0.45,0,0.621
			l-3.118,5.399c-0.099,0.17-0.34,0.312-0.537,0.312H7.101z"/>
		<rect x="3.406" y="19.419" fill="#CCCCCC" width="13.658" height="4.464"/>
		<polygon opacity="0.65" fill="#999999" enable-background="new    " points="17.065,19.419 16.549,18.484 16.549,23.883 
			17.065,23.883 		"/>
		<polygon fill="#F2F2F2" points="3.888,18.484 3.372,19.419 3.372,23.883 3.888,23.883 		"/>
		<g>
			<g>
				<defs>
					<polygon id="SVGID_1_" points="6.743,25.583 3.266,19.563 6.743,13.542 13.694,13.542 17.171,19.563 13.694,25.583 					"/>
				</defs>
				<clipPath id="SVGID_2_">
					<use xlink:href="#SVGID_1_"  overflow="visible"/>
				</clipPath>
				<rect x="12.875" y="13.542" clip-path="url(#SVGID_2_)" fill="#E6E6E6" width="1.244" height="6.021"/>
			</g>
			<g>
				<defs>
					<polygon id="SVGID_3_" points="6.743,25.583 3.266,19.563 6.743,13.542 13.694,13.542 17.171,19.563 13.694,25.583 					"/>
				</defs>
				<clipPath id="SVGID_4_">
					<use xlink:href="#SVGID_3_"  overflow="visible"/>
				</clipPath>
				<rect x="6.072" y="13.542" clip-path="url(#SVGID_4_)" fill="#E6E6E6" width="1.244" height="6.021"/>
			</g>
			<g>
				<defs>
					<polygon id="SVGID_5_" points="6.743,25.583 3.266,19.563 6.743,13.542 13.694,13.542 17.171,19.563 13.694,25.583 					"/>
				</defs>
				<clipPath id="SVGID_6_">
					<use xlink:href="#SVGID_5_"  overflow="visible"/>
				</clipPath>
				<rect x="13.166" y="13.542" clip-path="url(#SVGID_6_)" fill="#F2F2F2" width="0.661" height="6.021"/>
			</g>
			<g>
				<defs>
					<polygon id="SVGID_7_" points="6.743,25.583 3.266,19.563 6.743,13.542 13.694,13.542 17.171,19.563 13.694,25.583 					"/>
				</defs>
				<clipPath id="SVGID_8_">
					<use xlink:href="#SVGID_7_"  overflow="visible"/>
				</clipPath>
				<rect x="6.364" y="13.542" clip-path="url(#SVGID_8_)" fill="#F2F2F2" width="0.661" height="6.021"/>
			</g>
		</g>
		<g>
			<path fill="#CCCCCC" d="M7.103,29.903c-0.198,0-0.441-0.141-0.54-0.312l-3.116-5.397c-0.099-0.171-0.099-0.451,0-0.623
				l3.116-5.396c0.099-0.171,0.342-0.313,0.54-0.313h6.231c0.198,0,0.441,0.142,0.54,0.313l3.116,5.396
				c0.099,0.172,0.099,0.452,0,0.623l-3.116,5.397c-0.099,0.171-0.342,0.312-0.54,0.312H7.103z"/>
		</g>
		<g>
			<path fill="#B3B3B3" d="M7.257,29.635c-0.198,0-0.441-0.141-0.54-0.313l-2.961-5.129c-0.099-0.171-0.099-0.451,0-0.623
				l2.961-5.13c0.099-0.171,0.342-0.312,0.54-0.312h5.923c0.198,0,0.441,0.141,0.54,0.312l2.961,5.13
				c0.099,0.172,0.099,0.452,0,0.623l-2.961,5.129c-0.099,0.172-0.342,0.313-0.54,0.313H7.257z"/>
		</g>
		<circle fill="#808080" cx="10.218" cy="23.883" r="4.846"/>
	</g>
	<g>
		<path fill="#CCCCCC" d="M74.566,25.583c-0.196,0-0.438-0.142-0.537-0.312l-3.118-5.399c-0.099-0.171-0.099-0.45,0-0.621
			l3.118-5.399c0.099-0.171,0.341-0.31,0.537-0.31h6.234c0.197,0,0.439,0.139,0.537,0.31l3.119,5.399
			c0.098,0.171,0.098,0.45,0,0.621l-3.119,5.399c-0.098,0.17-0.34,0.312-0.537,0.312H74.566z"/>
		<rect x="70.871" y="19.419" fill="#CCCCCC" width="13.658" height="4.464"/>
		<polygon opacity="0.65" fill="#999999" enable-background="new    " points="84.529,19.419 84.014,18.484 84.014,23.883 
			84.529,23.883 		"/>
		<polygon fill="#F2F2F2" points="71.354,18.484 70.837,19.419 70.837,23.883 71.354,23.883 		"/>
		<g>
			<g>
				<defs>
					<polygon id="SVGID_9_" points="74.208,25.583 70.732,19.563 74.208,13.542 81.159,13.542 84.637,19.563 81.159,25.583 					"/>
				</defs>
				<clipPath id="SVGID_10_">
					<use xlink:href="#SVGID_9_"  overflow="visible"/>
				</clipPath>
				<rect x="80.34" y="13.542" clip-path="url(#SVGID_10_)" fill="#E6E6E6" width="1.244" height="6.021"/>
			</g>
			<g>
				<defs>
					<polygon id="SVGID_11_" points="74.208,25.583 70.732,19.563 74.208,13.542 81.159,13.542 84.637,19.563 81.159,25.583 					
						"/>
				</defs>
				<clipPath id="SVGID_12_">
					<use xlink:href="#SVGID_11_"  overflow="visible"/>
				</clipPath>
				<rect x="73.537" y="13.542" clip-path="url(#SVGID_12_)" fill="#E6E6E6" width="1.244" height="6.021"/>
			</g>
			<g>
				<defs>
					<polygon id="SVGID_13_" points="74.208,25.583 70.732,19.563 74.208,13.542 81.159,13.542 84.637,19.563 81.159,25.583 					
						"/>
				</defs>
				<clipPath id="SVGID_14_">
					<use xlink:href="#SVGID_13_"  overflow="visible"/>
				</clipPath>
				<rect x="80.631" y="13.542" clip-path="url(#SVGID_14_)" fill="#F2F2F2" width="0.661" height="6.021"/>
			</g>
			<g>
				<defs>
					<polygon id="SVGID_15_" points="74.208,25.583 70.732,19.563 74.208,13.542 81.159,13.542 84.637,19.563 81.159,25.583 					
						"/>
				</defs>
				<clipPath id="SVGID_16_">
					<use xlink:href="#SVGID_15_"  overflow="visible"/>
				</clipPath>
				<rect x="73.829" y="13.542" clip-path="url(#SVGID_16_)" fill="#F2F2F2" width="0.661" height="6.021"/>
			</g>
		</g>
		<g>
			<path fill="#CCCCCC" d="M74.568,29.903c-0.197,0-0.44-0.141-0.541-0.312l-3.114-5.397c-0.101-0.171-0.101-0.451,0-0.623
				l3.114-5.396c0.101-0.171,0.344-0.313,0.541-0.313h6.23c0.198,0,0.441,0.142,0.541,0.313l3.115,5.396
				c0.1,0.172,0.1,0.452,0,0.623l-3.115,5.397c-0.1,0.171-0.343,0.312-0.541,0.312H74.568z"/>
		</g>
		<g>
			<path fill="#B3B3B3" d="M74.723,29.635c-0.197,0-0.44-0.141-0.541-0.313l-2.961-5.129c-0.1-0.171-0.1-0.451,0-0.623l2.961-5.13
				c0.101-0.171,0.344-0.312,0.541-0.312h5.922c0.198,0,0.441,0.141,0.541,0.312l2.961,5.13c0.1,0.172,0.1,0.452,0,0.623
				l-2.961,5.129c-0.1,0.172-0.343,0.313-0.541,0.313H74.723z"/>
		</g>
		<circle fill="#4D4D4D" cx="77.684" cy="23.883" r="4.846"/>
		<circle fill="#4D4D4D" cx="10.218" cy="23.883" r="4.846"/>
		<path fill="#808080" d="M10.218,24.603c-1.936,0-3.593-1.143-4.369-2.782c-0.297,0.627-0.477,1.321-0.477,2.063
			c0,2.677,2.169,4.846,4.846,4.846c2.677,0,4.846-2.169,4.846-4.846c0-0.741-0.179-1.436-0.477-2.063
			C13.811,23.46,12.153,24.603,10.218,24.603z"/>
		<path fill="#808080" d="M77.684,24.603c-1.936,0-3.594-1.143-4.37-2.782c-0.297,0.627-0.477,1.321-0.477,2.063
			c0,2.677,2.17,4.846,4.847,4.846c2.676,0,4.846-2.169,4.846-4.846c0-0.741-0.18-1.436-0.477-2.063
			C81.276,23.46,79.619,24.603,77.684,24.603z"/>
	</g>
	<path fill="#4D4D4D" d="M68.705,3.932"/>
	<rect x="68.705" y="4.651" opacity="0.63" fill="#E6E6E6" enable-background="new    " width="17.92" height="0.2"/>
	<rect x="1.276" y="4.651" opacity="0.63" fill="#E6E6E6" enable-background="new    " width="17.92" height="0.2"/>
	<g>
		<g>
			<defs>
				<path id="SVGID_17_" d="M87.883,8.095c0,0.396-0.324,0.72-0.72,0.72H0.72C0.324,8.815,0,8.491,0,8.095V6.094
					c0-0.396,0.324-0.72,0.72-0.72h86.443c0.396,0,0.72,0.323,0.72,0.72V8.095z"/>
			</defs>
			<clipPath id="SVGID_18_">
				<use xlink:href="#SVGID_17_"  overflow="visible"/>
			</clipPath>
			
				<rect y="8.095" opacity="0.47" clip-path="url(#SVGID_18_)" fill="#999999" enable-background="new    " width="35.854" height="0.72"/>
		</g>
		<g>
			<defs>
				<path id="SVGID_19_" d="M87.883,8.095c0,0.396-0.324,0.72-0.72,0.72H0.72C0.324,8.815,0,8.491,0,8.095V6.094
					c0-0.396,0.324-0.72,0.72-0.72h86.443c0.396,0,0.72,0.323,0.72,0.72V8.095z"/>
			</defs>
			<clipPath id="SVGID_20_">
				<use xlink:href="#SVGID_19_"  overflow="visible"/>
			</clipPath>
			
				<rect y="8.527" opacity="0.47" clip-path="url(#SVGID_20_)" fill="#999999" enable-background="new    " width="35.854" height="0.288"/>
		</g>
		<g>
			<defs>
				<path id="SVGID_21_" d="M87.883,8.095c0,0.396-0.324,0.72-0.72,0.72H0.72C0.324,8.815,0,8.491,0,8.095V6.094
					c0-0.396,0.324-0.72,0.72-0.72h86.443c0.396,0,0.72,0.323,0.72,0.72V8.095z"/>
			</defs>
			<clipPath id="SVGID_22_">
				<use xlink:href="#SVGID_21_"  overflow="visible"/>
			</clipPath>
			
				<rect x="48.859" y="8.095" opacity="0.1" clip-path="url(#SVGID_22_)" fill="#1A1A1A" enable-background="new    " width="39.023" height="0.72"/>
		</g>
		<g>
			<defs>
				<path id="SVGID_23_" d="M87.883,8.095c0,0.396-0.324,0.72-0.72,0.72H0.72C0.324,8.815,0,8.491,0,8.095V6.094
					c0-0.396,0.324-0.72,0.72-0.72h86.443c0.396,0,0.72,0.323,0.72,0.72V8.095z"/>
			</defs>
			<clipPath id="SVGID_24_">
				<use xlink:href="#SVGID_23_"  overflow="visible"/>
			</clipPath>
			
				<rect x="48.859" y="8.527" opacity="0.2" clip-path="url(#SVGID_24_)" fill="#1A1A1A" enable-background="new    " width="39.023" height="0.288"/>
		</g>
	</g>
	<rect x="21.258" y="7.856" fill="#4D4D4D" width="46.24" height="4.806"/>
	<polygon opacity="0.36" fill="#E6E6E6" enable-background="new    " points="23.556,10.766 21.26,12.856 21.258,8.116 	"/>
	<polygon opacity="0.36" fill="#E6E6E6" enable-background="new    " points="65.199,10.766 67.494,12.856 67.497,8.116 	"/>
	<g>
		<path fill="#999999" d="M21.342,13.6c-0.389-1.559,0.607-2.834,2.214-2.834h41.639c1.609,0,2.604,1.274,2.217,2.834l-4.064,16.246
			c-0.39,1.56-2.021,2.834-3.627,2.834H29.035c-1.607,0-3.24-1.274-3.63-2.834L21.342,13.6z"/>
		<path fill="#1A1A1A" d="M23.215,14.547c-0.394-1.558,0.6-2.832,2.207-2.832h37.911c1.606,0,2.601,1.274,2.207,2.832l-3.62,14.349
			c-0.393,1.562-2.029,2.835-3.637,2.835H30.47c-1.607,0-3.243-1.273-3.637-2.835L23.215,14.547z"/>
		<g>
			<g>
				<path fill="#4D4D4D" d="M55.337,23.792c0.873,0,1.58,0.707,1.58,1.581s-0.707,1.584-1.58,1.584c-0.876,0-1.586-0.71-1.586-1.584
					S54.461,23.792,55.337,23.792z"/>
			</g>
			<g>
				<circle fill="#4D4D4D" cx="48.029" cy="25.375" r="1.583"/>
			</g>
			<g>
				<circle fill="#4D4D4D" cx="40.722" cy="25.375" r="1.583"/>
			</g>
			<g>
				<circle fill="#4D4D4D" cx="33.418" cy="25.375" r="1.583"/>
			</g>
		</g>
		<g>
			<g>
				<circle cx="55.336" cy="25.374" r="1.218"/>
			</g>
			<g>
				<circle cx="48.031" cy="25.374" r="1.218"/>
			</g>
			<g>
				<circle cx="40.724" cy="25.374" r="1.218"/>
			</g>
			<g>
				<circle cx="33.418" cy="25.374" r="1.218"/>
			</g>
		</g>
		<g>
			<g>
				<circle fill="#4D4D4D" cx="58.988" cy="18.07" r="1.582"/>
			</g>
			<g>
				<circle fill="#4D4D4D" cx="51.686" cy="18.07" r="1.582"/>
			</g>
			<g>
				<circle fill="#4D4D4D" cx="44.377" cy="18.07" r="1.582"/>
			</g>
			<g>
				<circle fill="#4D4D4D" cx="37.071" cy="18.07" r="1.582"/>
			</g>
			<g>
				<circle fill="#4D4D4D" cx="29.766" cy="18.07" r="1.582"/>
			</g>
		</g>
		<g>
			<g>
				<circle cx="58.988" cy="18.07" r="1.217"/>
			</g>
			<g>
				<circle cx="51.684" cy="18.07" r="1.217"/>
			</g>
			<g>
				<circle cx="44.377" cy="18.07" r="1.217"/>
			</g>
			<g>
				<circle cx="37.071" cy="18.07" r="1.217"/>
			</g>
			<g>
				<circle cx="29.766" cy="18.07" r="1.217"/>
			</g>
		</g>
	</g>
	<g>
		<g>
			<polygon opacity="0.53" fill="#E6E6E6" enable-background="new    " points="3.372,19.368 6.743,13.542 6.743,13.931 
				3.372,19.757 			"/>
			<polygon opacity="0.53" fill="#808080" enable-background="new    " points="17.065,19.368 13.694,13.542 13.694,13.931 
				17.065,19.757 			"/>
		</g>
		<rect x="6.743" y="13.542" opacity="0.25" fill="#F2F2F2" enable-background="new    " width="6.951" height="0.377"/>
	</g>
	<g>
		<g>
			<polygon opacity="0.53" fill="#E6E6E6" enable-background="new    " points="70.818,19.368 74.189,13.542 74.189,13.931 
				70.818,19.757 			"/>
			<polygon opacity="0.53" fill="#808080" enable-background="new    " points="84.512,19.368 81.141,13.542 81.141,13.931 
				84.512,19.757 			"/>
		</g>
		<rect x="74.189" y="13.542" opacity="0.25" fill="#F2F2F2" enable-background="new    " width="6.951" height="0.377"/>
	</g>
	<path opacity="0.2" fill="#E6E6E6" enable-background="new    " d="M1.259,2.339c0-0.436,0.323-0.79,0.717-0.79h17.202V1.154H1.976
		c-0.394,0-0.717,0.355-0.717,0.79V2.339z"/>
	<path opacity="0.2" fill="#E6E6E6" enable-background="new    " d="M86.625,1.944c0-0.435-0.324-0.79-0.718-0.79H68.705v0.396
		h17.202c0.394,0,0.718,0.354,0.718,0.79V1.944z"/>
</g>
</svg>
