<?xml version="1.0" encoding="utf-8"?>
<!-- Generator: Adobe Illustrator 15.1.0, SVG Export Plug-In . SVG Version: 6.00 Build 0)  -->
<!DOCTYPE svg PUBLIC "-//W3C//DTD SVG 1.1//EN" "http://www.w3.org/Graphics/SVG/1.1/DTD/svg11.dtd">
<svg version="1.1" id="Ebene_1" xmlns:svg="http://www.w3.org/2000/svg"
	 xmlns="http://www.w3.org/2000/svg" xmlns:xlink="http://www.w3.org/1999/xlink" x="0px" y="0px" width="87.883px"
	 height="32.68px" viewBox="0 0 87.883 32.68" enable-background="new 0 0 87.883 32.68" xml:space="preserve">
<g>
	<path fill="#B3B3B3" d="M0,8.116v20.417h25.076V8.116H0z M10.208,23.17c-2.677,0-4.846-2.168-4.846-4.847
		c0-2.676,2.169-4.845,4.846-4.845c2.677,0,4.846,2.169,4.846,4.845C15.054,21.002,12.885,23.17,10.208,23.17z"/>
	<path fill="#B3B3B3" d="M62.807,8.116v20.417h25.076V8.116H62.807z M77.674,23.17c-2.677,0-4.847-2.168-4.847-4.847
		c0-2.676,2.17-4.845,4.847-4.845c2.676,0,4.846,2.169,4.846,4.845C82.52,21.002,80.35,23.17,77.674,23.17z"/>
	<path fill="#808080" d="M10.208,19.31c-1.99,0-3.695-1.2-4.441-2.915c-0.257,0.592-0.404,1.243-0.404,1.931
		c0,2.678,2.169,4.846,4.846,4.846c2.677,0,4.846-2.168,4.846-4.846c0-0.688-0.147-1.339-0.404-1.931
		C13.903,18.11,12.198,19.31,10.208,19.31z"/>
	<path fill="#808080" d="M77.673,19.31c-1.989,0-3.694-1.2-4.44-2.915c-0.258,0.592-0.404,1.243-0.404,1.931
		c0,2.678,2.169,4.846,4.846,4.846c2.678,0,4.846-2.168,4.846-4.846c0-0.688-0.146-1.339-0.403-1.931
		C81.367,18.11,79.662,19.31,77.673,19.31z"/>
	<g>
		<rect x="86.625" y="7.856" opacity="0.47" fill="#808080" enable-background="new    " width="1.258" height="20.679"/>
		<rect x="61.609" y="27.275" opacity="0.47" fill="#808080" enable-background="new    " width="25.017" height="1.26"/>
	</g>
	<g>
		<polygon opacity="0.47" fill="#E6E6E6" enable-background="new    " points="0,7.856 1.258,7.856 1.258,27.275 0,28.533 		"/>
		<polygon opacity="0.47" fill="#808080" enable-background="new    " points="0,28.533 1.258,27.275 26.275,27.275 26.275,28.533 
					"/>
	</g>
	<path fill="#4D4D4D" d="M68.705,0.791c0-0.396-0.322-0.72-0.717-0.72H19.894c-0.394,0-0.716,0.323-0.716,0.72v4.583h49.527V0.791z"
		/>
	<path fill="#808080" d="M68.704,1.15c0-0.395-0.322-0.718-0.718-0.718H19.894c-0.395,0-0.716,0.323-0.716,0.718V0.791
		c0-0.396,0.321-0.72,0.716-0.72H67.99c0.394,0,0.716,0.323,0.716,0.72L68.704,1.15L68.704,1.15z"/>
	<g>
		<path fill="#4D4D4D" d="M87.883,8.095c0,0.396-0.324,0.72-0.72,0.72H0.72C0.324,8.815,0,8.491,0,8.095V6.094
			c0-0.396,0.324-0.72,0.72-0.72h86.443c0.396,0,0.72,0.322,0.72,0.72V8.095z"/>
	</g>
	<rect y="4.648" fill="#4D4D4D" width="87.883" height="1.888"/>
	<rect y="5.209" fill="#999999" width="87.883" height="0.33"/>
	<rect y="5.417" fill="#808080" width="87.883" height="0.33"/>
	<rect x="87.262" y="5.747" opacity="0.1" fill="#1A1A1A" enable-background="new    " width="0.621" height="2.349"/>
	<rect x="68.705" y="4.651" opacity="0.63" fill="#E6E6E6" enable-background="new    " width="17.92" height="0.2"/>
	<rect x="1.276" y="4.651" opacity="0.63" fill="#E6E6E6" enable-background="new    " width="17.92" height="0.2"/>
	<g>
		<g>
			<g>
				<defs>
					<path id="SVGID_1_" d="M87.883,8.095c0,0.396-0.324,0.72-0.72,0.72H0.72C0.324,8.815,0,8.491,0,8.095V6.094
						c0-0.396,0.324-0.72,0.72-0.72h86.443c0.396,0,0.72,0.322,0.72,0.72V8.095z"/>
				</defs>
				<clipPath id="SVGID_2_">
					<use xlink:href="#SVGID_1_"  overflow="visible"/>
				</clipPath>
				
					<rect y="8.095" opacity="0.47" clip-path="url(#SVGID_2_)" fill="#999999" enable-background="new    " width="35.854" height="0.72"/>
			</g>
		</g>
		<g>
			<g>
				<defs>
					<path id="SVGID_3_" d="M87.883,8.095c0,0.396-0.324,0.72-0.72,0.72H0.72C0.324,8.815,0,8.491,0,8.095V6.094
						c0-0.396,0.324-0.72,0.72-0.72h86.443c0.396,0,0.72,0.322,0.72,0.72V8.095z"/>
				</defs>
				<clipPath id="SVGID_4_">
					<use xlink:href="#SVGID_3_"  overflow="visible"/>
				</clipPath>
				
					<rect y="8.527" opacity="0.47" clip-path="url(#SVGID_4_)" fill="#999999" enable-background="new    " width="35.854" height="0.288"/>
			</g>
		</g>
		<g>
			<g>
				<defs>
					<path id="SVGID_5_" d="M87.883,8.095c0,0.396-0.324,0.72-0.72,0.72H0.72C0.324,8.815,0,8.491,0,8.095V6.094
						c0-0.396,0.324-0.72,0.72-0.72h86.443c0.396,0,0.72,0.322,0.72,0.72V8.095z"/>
				</defs>
				<clipPath id="SVGID_6_">
					<use xlink:href="#SVGID_5_"  overflow="visible"/>
				</clipPath>
				
					<rect x="48.859" y="8.095" opacity="0.1" clip-path="url(#SVGID_6_)" fill="#1A1A1A" enable-background="new    " width="39.022" height="0.72"/>
			</g>
		</g>
		<g>
			<g>
				<defs>
					<path id="SVGID_7_" d="M87.883,8.095c0,0.396-0.324,0.72-0.72,0.72H0.72C0.324,8.815,0,8.491,0,8.095V6.094
						c0-0.396,0.324-0.72,0.72-0.72h86.443c0.396,0,0.72,0.322,0.72,0.72V8.095z"/>
				</defs>
				<clipPath id="SVGID_8_">
					<use xlink:href="#SVGID_7_"  overflow="visible"/>
				</clipPath>
				
					<rect x="48.859" y="8.527" opacity="0.2" clip-path="url(#SVGID_8_)" fill="#1A1A1A" enable-background="new    " width="39.022" height="0.288"/>
			</g>
		</g>
	</g>
	<g>
		<rect x="20.821" y="7.856" fill="#4D4D4D" width="46.24" height="4.807"/>
		<polygon opacity="0.36" fill="#E6E6E6" enable-background="new    " points="23.12,10.766 20.823,12.856 20.821,8.116 		"/>
		<polygon opacity="0.36" fill="#E6E6E6" enable-background="new    " points="64.764,10.766 67.059,12.856 67.061,8.116 		"/>
	</g>
	<g>
		<path fill="#999999" d="M20.906,13.6c-0.389-1.559,0.607-2.834,2.214-2.834h41.64c1.609,0,2.604,1.274,2.217,2.834l-4.063,16.246
			c-0.39,1.56-2.021,2.834-3.627,2.834H28.6c-1.607,0-3.24-1.274-3.63-2.834L20.906,13.6z"/>
		<path fill="#1A1A1A" d="M22.779,14.547c-0.394-1.559,0.6-2.832,2.207-2.832h37.913c1.605,0,2.601,1.273,2.207,2.832l-3.621,14.349
			c-0.393,1.563-2.028,2.835-3.637,2.835H30.034c-1.607,0-3.243-1.272-3.637-2.835L22.779,14.547z"/>
	</g>
</g>
<g>
	<path d="M26.321,16.277c-0.327-1.297,0.5-2.356,1.838-2.356h31.563c1.34,0,2.166,1.062,1.84,2.356l-3.019,11.947
		c-0.326,1.298-1.688,2.361-3.024,2.361H32.363c-1.338,0-2.701-1.063-3.027-2.361L26.321,16.277z"/>
	<g>
		<g>
			<g>
				<circle fill="#CCCCCC" cx="58.341" cy="17.696" r="1.2"/>
			</g>
			<g>
				<circle fill="#CCCCCC" cx="51.143" cy="17.696" r="1.2"/>
			</g>
			<g>
				<circle fill="#CCCCCC" cx="43.941" cy="17.696" r="1.2"/>
			</g>
			<g>
				<circle fill="#CCCCCC" cx="36.74" cy="17.696" r="1.2"/>
			</g>
			<g>
				<circle fill="#CCCCCC" cx="29.541" cy="17.696" r="1.2"/>
			</g>
		</g>
		<g>
			<g>
				<rect x="57.143" y="17.696" fill="#CCCCCC" width="2.373" height="2.017"/>
			</g>
			<g>
				<rect x="49.943" y="17.696" fill="#CCCCCC" width="2.373" height="2.017"/>
			</g>
			<g>
				<rect x="42.742" y="17.696" fill="#CCCCCC" width="2.373" height="2.017"/>
			</g>
			<g>
				<rect x="35.542" y="17.696" fill="#CCCCCC" width="2.374" height="2.017"/>
			</g>
			<g>
				<rect x="28.341" y="17.696" fill="#CCCCCC" width="2.374" height="2.017"/>
			</g>
		</g>
		<g>
			<g>
				<path fill="#B3B3B3" d="M57.425,16.923c0.224-0.229,0.438-0.324,0.755-0.432l-0.015,3.219h-0.738v-2.787H57.425z"/>
			</g>
			<g>
				<path fill="#B3B3B3" d="M50.227,16.923c0.224-0.229,0.438-0.324,0.754-0.432l-0.017,3.219h-0.735v-2.787H50.227z"/>
			</g>
			<g>
				<path fill="#B3B3B3" d="M43.027,16.923c0.221-0.229,0.438-0.324,0.752-0.432l-0.016,3.219h-0.738L43.027,16.923L43.027,16.923z"
					/>
			</g>
			<g>
				<path fill="#B3B3B3" d="M35.826,16.923c0.221-0.229,0.438-0.324,0.752-0.432l-0.014,3.219h-0.738V16.923z"/>
			</g>
			<g>
				<path fill="#B3B3B3" d="M28.626,16.923c0.221-0.229,0.438-0.324,0.752-0.432l-0.014,3.219h-0.738V16.923z"/>
			</g>
		</g>
		<g>
			<g>
				<circle fill="#CCCCCC" cx="58.341" cy="19.608" r="1.2"/>
			</g>
			<g>
				<circle fill="#CCCCCC" cx="51.143" cy="19.608" r="1.2"/>
			</g>
			<g>
				<circle fill="#CCCCCC" cx="43.941" cy="19.608" r="1.2"/>
			</g>
			<g>
				<circle fill="#CCCCCC" cx="36.74" cy="19.608" r="1.2"/>
			</g>
			<g>
				<circle fill="#CCCCCC" cx="29.541" cy="19.608" r="1.2"/>
			</g>
		</g>
		<g>
			<g opacity="0.68">
				<g>
					<path fill="#FFFFFF" d="M58.341,19.608v1.199c1.183,0,1.339-1.361,1.078-1.717L58.341,19.608z"/>
				</g>
				<g>
					<path fill="#FFFFFF" d="M51.141,19.608l0.002,1.199c1.183,0,1.338-1.361,1.075-1.717L51.141,19.608z"/>
				</g>
				<g>
					<path fill="#FFFFFF" d="M43.941,19.608v1.199c1.182,0,1.34-1.361,1.079-1.717L43.941,19.608z"/>
				</g>
				<g>
					<path fill="#FFFFFF" d="M36.74,19.608v1.199c1.182,0,1.339-1.361,1.078-1.717L36.74,19.608z"/>
				</g>
				<g>
					<path fill="#FFFFFF" d="M29.541,19.608v1.199c1.181,0,1.338-1.361,1.078-1.717L29.541,19.608z"/>
				</g>
			</g>
			<g opacity="0.68">
				<g>
					<path fill="#FFFFFF" d="M58.341,19.608l-0.717,0.96c0.944,0.707,1.888-0.289,1.892-0.729L58.341,19.608z"/>
				</g>
				<g>
					<path fill="#FFFFFF" d="M51.141,19.608l-0.718,0.96c0.944,0.707,1.89-0.289,1.894-0.729L51.141,19.608z"/>
				</g>
				<g>
					<path fill="#FFFFFF" d="M43.941,19.608l-0.717,0.96c0.945,0.707,1.889-0.289,1.893-0.729L43.941,19.608z"/>
				</g>
				<g>
					<path fill="#FFFFFF" d="M36.74,19.608l-0.717,0.96c0.945,0.707,1.888-0.289,1.892-0.729L36.74,19.608z"/>
				</g>
				<g>
					<path fill="#FFFFFF" d="M29.541,19.608l-0.717,0.96c0.945,0.707,1.887-0.289,1.891-0.729L29.541,19.608z"/>
				</g>
			</g>
			<g opacity="0.68">
				<g>
					<path fill="#FFFFFF" d="M58.341,19.607l-0.09-1.193c-1.179,0.088-1.231,1.457-0.946,1.793L58.341,19.607z"/>
				</g>
				<g>
					<path fill="#FFFFFF" d="M51.143,19.607l-0.093-1.192c-1.176,0.088-1.229,1.457-0.944,1.793L51.143,19.607z"/>
				</g>
				<g>
					<path fill="#FFFFFF" d="M43.941,19.607l-0.09-1.193c-1.177,0.088-1.232,1.457-0.945,1.793L43.941,19.607z"/>
				</g>
				<g>
					<path fill="#FFFFFF" d="M36.742,19.607l-0.09-1.193c-1.178,0.088-1.233,1.457-0.946,1.793L36.742,19.607z"/>
				</g>
				<g>
					<path fill="#FFFFFF" d="M29.542,19.607l-0.091-1.192c-1.177,0.088-1.233,1.457-0.946,1.793L29.542,19.607z"/>
				</g>
			</g>
			<g opacity="0.68">
				<g>
					<path fill="#FFFFFF" d="M58.341,19.607l0.646-1.011c-0.995-0.635-1.858,0.429-1.832,0.869L58.341,19.607z"/>
				</g>
				<g>
					<path fill="#FFFFFF" d="M51.143,19.607l0.646-1.011c-0.996-0.635-1.861,0.429-1.832,0.869L51.143,19.607z"/>
				</g>
				<g>
					<path fill="#FFFFFF" d="M43.941,19.607l0.645-1.011c-0.996-0.635-1.859,0.429-1.832,0.869L43.941,19.607z"/>
				</g>
				<g>
					<path fill="#FFFFFF" d="M36.742,19.607l0.644-1.011c-0.995-0.635-1.86,0.429-1.832,0.869L36.742,19.607z"/>
				</g>
				<g>
					<path fill="#FFFFFF" d="M29.542,19.607l0.644-1.011c-0.996-0.635-1.86,0.429-1.832,0.869L29.542,19.607z"/>
				</g>
			</g>
		</g>
		<g>
			<g>
				<circle fill="#CCCCCC" cx="54.718" cy="24.899" r="1.2"/>
			</g>
			<g>
				<circle fill="#CCCCCC" cx="47.518" cy="24.899" r="1.2"/>
			</g>
			<g>
				<circle fill="#CCCCCC" cx="40.315" cy="24.899" r="1.2"/>
			</g>
			<g>
				<circle fill="#CCCCCC" cx="33.116" cy="24.899" r="1.2"/>
			</g>
		</g>
		<g>
			<g>
				<rect x="53.52" y="24.899" fill="#CCCCCC" width="2.373" height="2.017"/>
			</g>
			<g>
				<rect x="46.316" y="24.899" fill="#CCCCCC" width="2.373" height="2.017"/>
			</g>
			<g>
				<rect x="39.117" y="24.899" fill="#CCCCCC" width="2.374" height="2.017"/>
			</g>
			<g>
				<rect x="31.916" y="24.899" fill="#CCCCCC" width="2.374" height="2.017"/>
			</g>
		</g>
		<g>
			<g>
				<path fill="#B3B3B3" d="M53.802,24.126c0.224-0.229,0.438-0.324,0.755-0.433l-0.019,3.22h-0.733v-2.787H53.802z"/>
			</g>
			<g>
				<path fill="#B3B3B3" d="M46.604,24.126c0.221-0.229,0.438-0.324,0.752-0.433l-0.017,3.22h-0.737L46.604,24.126L46.604,24.126z"
					/>
			</g>
			<g>
				<path fill="#B3B3B3" d="M39.401,24.126c0.221-0.229,0.438-0.324,0.752-0.433l-0.014,3.22h-0.738V24.126z"/>
			</g>
			<g>
				<path fill="#B3B3B3" d="M32.201,24.126c0.221-0.229,0.438-0.324,0.752-0.433l-0.014,3.22h-0.738V24.126z"/>
			</g>
		</g>
		<g>
			<g>
				<circle fill="#CCCCCC" cx="54.718" cy="26.811" r="1.2"/>
			</g>
			<g>
				<circle fill="#CCCCCC" cx="47.518" cy="26.811" r="1.2"/>
			</g>
			<g>
				<circle fill="#CCCCCC" cx="40.315" cy="26.811" r="1.2"/>
			</g>
			<g>
				<circle fill="#CCCCCC" cx="33.116" cy="26.811" r="1.2"/>
			</g>
		</g>
		<g>
			<g opacity="0.68">
				<g>
					<path fill="#FFFFFF" d="M54.716,26.811l0.002,1.199c1.183,0,1.339-1.361,1.074-1.717L54.716,26.811z"/>
				</g>
				<g>
					<path fill="#FFFFFF" d="M47.518,26.811v1.199c1.182,0,1.34-1.361,1.078-1.717L47.518,26.811z"/>
				</g>
				<g>
					<path fill="#FFFFFF" d="M40.315,26.811v1.199c1.182,0,1.339-1.361,1.078-1.717L40.315,26.811z"/>
				</g>
				<g>
					<path fill="#FFFFFF" d="M33.116,26.811v1.199c1.181,0,1.338-1.361,1.078-1.717L33.116,26.811z"/>
				</g>
			</g>
			<g opacity="0.68">
				<g>
					<path fill="#FFFFFF" d="M54.716,26.811l-0.719,0.96c0.944,0.707,1.892-0.289,1.896-0.729L54.716,26.811z"/>
				</g>
				<g>
					<path fill="#FFFFFF" d="M47.518,26.811l-0.718,0.96c0.945,0.707,1.89-0.289,1.894-0.729L47.518,26.811z"/>
				</g>
				<g>
					<path fill="#FFFFFF" d="M40.315,26.811l-0.717,0.96c0.945,0.707,1.888-0.289,1.892-0.729L40.315,26.811z"/>
				</g>
				<g>
					<path fill="#FFFFFF" d="M33.116,26.811l-0.717,0.96c0.945,0.707,1.887-0.289,1.891-0.729L33.116,26.811z"/>
				</g>
			</g>
			<g opacity="0.68">
				<g>
					<path fill="#FFFFFF" d="M54.718,26.81l-0.094-1.192c-1.176,0.088-1.229,1.456-0.942,1.793L54.718,26.81z"/>
				</g>
				<g>
					<path fill="#FFFFFF" d="M47.518,26.81l-0.091-1.193c-1.178,0.088-1.231,1.456-0.944,1.793L47.518,26.81z"/>
				</g>
				<g>
					<path fill="#FFFFFF" d="M40.317,26.81l-0.09-1.193c-1.178,0.088-1.233,1.456-0.946,1.793L40.317,26.81z"/>
				</g>
				<g>
					<path fill="#FFFFFF" d="M33.117,26.81l-0.091-1.192c-1.177,0.088-1.233,1.456-0.946,1.793L33.117,26.81z"/>
				</g>
			</g>
			<g opacity="0.68">
				<g>
					<path fill="#FFFFFF" d="M54.718,26.81l0.646-1.011c-0.996-0.635-1.861,0.429-1.832,0.869L54.718,26.81z"/>
				</g>
				<g>
					<path fill="#FFFFFF" d="M47.518,26.81l0.645-1.011c-0.996-0.635-1.859,0.429-1.832,0.869L47.518,26.81z"/>
				</g>
				<g>
					<path fill="#FFFFFF" d="M40.317,26.81l0.644-1.011c-0.995-0.635-1.86,0.429-1.832,0.869L40.317,26.81z"/>
				</g>
				<g>
					<path fill="#FFFFFF" d="M33.117,26.81l0.644-1.011c-0.996-0.635-1.86,0.429-1.832,0.869L33.117,26.81z"/>
				</g>
			</g>
		</g>
	</g>
</g>
</svg>
