<?xml version="1.0" encoding="utf-8"?>
<!-- Generator: Adobe Illustrator 15.1.0, SVG Export Plug-In . SVG Version: 6.00 Build 0)  -->
<!DOCTYPE svg PUBLIC "-//W3C//DTD SVG 1.1//EN" "http://www.w3.org/Graphics/SVG/1.1/DTD/svg11.dtd">
<svg version="1.1" id="Ebene_1" xmlns:svg="http://www.w3.org/2000/svg"
	 xmlns="http://www.w3.org/2000/svg" xmlns:xlink="http://www.w3.org/1999/xlink" x="0px" y="0px" width="45.943px"
	 height="55.768px" viewBox="0 0 45.943 55.768" enable-background="new 0 0 45.943 55.768" xml:space="preserve">
<g>
	<g>
		<rect x="0" y="9.942" fill="#999999" width="45.943" height="44.531"/>
		<rect x="0" y="11.236" fill="#4D4D4D" width="45.943" height="44.531"/>
		<g>
			<circle cx="22.972" cy="33.502" r="17.713"/>
			<circle fill="#666666" cx="22.972" cy="33.502" r="17.713"/>
			<circle cx="22.972" cy="33.502" r="16.955"/>
			<path fill="#333333" d="M22.972,16.547c-11.354,0-15.398,9.847-15.398,9.847v6.326h30.908v-6.076
				C38.483,26.643,34.534,16.547,22.972,16.547z"/>
			<g>
				<path fill="#808080" d="M32.011,39.499h5.191c0.821-1.892,1.279-3.978,1.279-6.17c0-7.447-5.251-13.666-12.25-15.164v3.401
					h-6.521v-3.401c-7,1.498-12.251,7.717-12.251,15.164c0,2.192,0.458,4.278,1.279,6.17h5.194v6.431
					c2.545,1.83,5.665,2.91,9.039,2.91c3.373,0,6.491-1.08,9.038-2.909V39.499z"/>
				<g>
					<g>
						<g>
							<rect x="29.105" y="24.805" fill="#4D4D4D" width="4.578" height="4.578"/>
							<rect x="29.675" y="25.375" width="3.438" height="3.438"/>
						</g>
						<g>
							<rect x="20.832" y="24.805" fill="#4D4D4D" width="4.578" height="4.578"/>
							<rect x="21.402" y="25.375" width="3.438" height="3.438"/>
						</g>
						<g>
							<rect x="12.56" y="24.805" fill="#4D4D4D" width="4.577" height="4.578"/>
							<rect x="13.13" y="25.375" width="3.438" height="3.438"/>
						</g>
					</g>
					<g>
						<g>
							<rect x="30.526" y="32.719" fill="#4D4D4D" width="4.577" height="4.577"/>
							<rect x="31.095" y="33.29" width="3.438" height="3.438"/>
						</g>
						<g>
							<rect x="19.262" y="32.719" fill="#4D4D4D" width="7.659" height="4.577"/>
							<rect x="19.832" y="33.29" width="6.52" height="3.438"/>
						</g>
						<g>
							<rect x="10.841" y="32.719" fill="#4D4D4D" width="4.578" height="4.577"/>
							<rect x="11.41" y="33.29" width="3.438" height="3.438"/>
						</g>
					</g>
					<g>
						<rect x="16.206" y="39.46" fill="#4D4D4D" width="4.578" height="4.578"/>
						<rect x="16.776" y="40.03" width="3.438" height="3.438"/>
					</g>
					<g>
						<rect x="24.063" y="39.46" fill="#4D4D4D" width="4.577" height="4.578"/>
						<rect x="24.633" y="40.03" width="3.438" height="3.438"/>
					</g>
				</g>
			</g>
			<path fill="#1A1A1A" d="M22.972,14.129c-10.7,0-19.374,8.673-19.374,19.373c0,10.701,8.673,19.373,19.374,19.373
				c10.7,0,19.373-8.672,19.373-19.373C42.345,22.802,33.673,14.129,22.972,14.129z M22.972,51.854
				c-10.137,0-18.354-8.217-18.354-18.353c0-10.137,8.217-18.354,18.354-18.354c10.135,0,18.352,8.217,18.352,18.354
				C41.324,43.637,33.108,51.854,22.972,51.854z"/>
			<path fill="#B3B3B3" d="M22.972,14.803c-10.327,0-18.699,8.371-18.699,18.698c0,10.328,8.372,18.697,18.699,18.697
				S41.67,43.829,41.67,33.501C41.67,23.175,33.3,14.803,22.972,14.803z M22.972,51.215c-9.783,0-17.714-7.931-17.714-17.713
				s7.931-17.713,17.714-17.713c9.781,0,17.712,7.931,17.712,17.713S32.754,51.215,22.972,51.215z"/>
			<path fill="#333333" d="M18.722,17.291c1.364-0.317,2.787-0.485,4.25-0.485c1.477,0,2.915,0.171,4.293,0.495v-2.002
				c-1.379-0.324-2.816-0.495-4.293-0.495c-1.463,0-2.886,0.168-4.25,0.485V17.291z"/>
		</g>
	</g>
	<polygon fill="#1A1A1A" points="26.657,55.75 19.287,55.75 19.287,51.93 23.03,52.555 26.657,51.93 	"/>
	<rect x="1.712" y="0" fill="#808080" width="42.521" height="9.941"/>
	<rect x="20.421" y="0" fill="#666666" width="5.103" height="9.941"/>
	<rect x="22.388" y="0" fill="#4D4D4D" width="1.167" height="9.941"/>
	<rect x="1.712" y="0" fill="#B3B3B3" width="1.167" height="9.941"/>
	<rect x="43.065" y="0" fill="#666666" width="1.167" height="9.941"/>
	<g opacity="0.25">
		<polygon fill="#1A1A1A" points="45.944,55.75 44.722,55.75 44.722,12.459 45.944,11.219 		"/>
		<polygon fill="#1A1A1A" points="0,55.75 1.222,54.527 45.753,54.527 45.753,55.75 		"/>
	</g>
	<g opacity="0.23">
		<polygon fill="#E6E6E6" points="1.222,54.527 0,55.767 0,11.236 1.222,11.236 		"/>
		<polygon fill="#E6E6E6" points="1.222,12.459 1.222,11.236 45.944,11.236 44.722,12.459 		"/>
	</g>
</g>
</svg>
