<?xml version="1.0" encoding="utf-8"?>
<!-- Generator: Adobe Illustrator 15.1.0, SVG Export Plug-In . SVG Version: 6.00 Build 0)  -->
<!DOCTYPE svg PUBLIC "-//W3C//DTD SVG 1.1//EN" "http://www.w3.org/Graphics/SVG/1.1/DTD/svg11.dtd">
<svg version="1.1" id="Ebene_1" xmlns:svg="http://www.w3.org/2000/svg"
	 xmlns="http://www.w3.org/2000/svg" xmlns:xlink="http://www.w3.org/1999/xlink" x="0px" y="0px" width="23.742px"
	 height="18.656px" viewBox="0 0 23.742 18.656" enable-background="new 0 0 23.742 18.656" xml:space="preserve">
<g>
	<g>
		<g>
			<rect x="18.685" y="0" fill="#E6E6E6" width="0.885" height="3.305"/>
		</g>
		<g>
			<rect x="18.685" y="0.616" fill="#CCCCCC" width="0.885" height="2.688"/>
		</g>
	</g>
	<g>
		<g>
			<rect x="15.841" y="0" fill="#E6E6E6" width="0.886" height="3.305"/>
		</g>
		<g>
			<rect x="15.841" y="0.616" fill="#CCCCCC" width="0.886" height="2.688"/>
		</g>
	</g>
	<g>
		<g>
			<rect x="12.999" y="0" fill="#E6E6E6" width="0.885" height="3.305"/>
		</g>
		<g>
			<rect x="12.999" y="0.616" fill="#CCCCCC" width="0.885" height="2.688"/>
		</g>
	</g>
	<g>
		<g>
			<rect x="10.156" y="0" fill="#E6E6E6" width="0.885" height="3.305"/>
		</g>
		<g>
			<rect x="10.156" y="0.616" fill="#CCCCCC" width="0.885" height="2.688"/>
		</g>
	</g>
	<g>
		<g>
			<rect x="7.313" y="0" fill="#E6E6E6" width="0.885" height="3.305"/>
		</g>
		<g>
			<rect x="7.313" y="0.616" fill="#CCCCCC" width="0.885" height="2.688"/>
		</g>
	</g>
	<g>
		<g>
			<rect x="4.47" y="0" fill="#E6E6E6" width="0.886" height="3.305"/>
		</g>
		<g>
			<rect x="4.47" y="0.616" fill="#CCCCCC" width="0.886" height="2.688"/>
		</g>
	</g>
	<g>
		<g>
			<g id="silkscreen">
				<rect x="0" y="1.438" fill="#E6E6E6" width="23.742" height="12.047"/>
			</g>
			<g id="silkscreen_1_">
				<rect x="0.255" y="13.485" fill="#808080" width="22.804" height="4.318"/>
			</g>
			<path fill="#CCCCCC" d="M23.74,13.485H0v5.168h23.742v-5.168H23.74z M1.899,17.804v-1.096H0.851v-0.977H1.9v-1.397h19.908v1.397
				h1.084v0.977h-1.084v1.096H1.899z"/>
			<g>
				<g>
					<rect x="19.149" y="15.771" fill="#E6E6E6" width="0.721" height="0.72"/>
					<rect x="19.149" y="14.336" fill="#999999" width="0.721" height="1.436"/>
				</g>
				<g>
					<rect x="16.104" y="15.771" fill="#E6E6E6" width="0.722" height="0.72"/>
					<rect x="16.104" y="14.336" fill="#999999" width="0.722" height="1.436"/>
				</g>
				<g>
					<rect x="13.059" y="15.771" fill="#E6E6E6" width="0.72" height="0.72"/>
					<rect x="13.059" y="14.336" fill="#999999" width="0.72" height="1.436"/>
				</g>
				<g>
					<rect x="10.015" y="15.771" fill="#E6E6E6" width="0.72" height="0.72"/>
					<rect x="10.015" y="14.336" fill="#999999" width="0.72" height="1.436"/>
				</g>
				<g>
					<rect x="6.97" y="15.771" fill="#E6E6E6" width="0.72" height="0.72"/>
					<rect x="6.97" y="14.336" fill="#999999" width="0.72" height="1.436"/>
				</g>
				<g>
					<rect x="3.925" y="15.771" fill="#E6E6E6" width="0.72" height="0.72"/>
					<rect x="3.925" y="14.336" fill="#999999" width="0.72" height="1.436"/>
				</g>
			</g>
		</g>
	</g>
	<g>
		<rect x="0" y="11.491" fill="#999999" width="0.851" height="1.994"/>
		<rect x="0" y="12.913" fill="#808080" width="0.851" height="1.994"/>
	</g>
	<g>
		<rect x="22.892" y="11.491" fill="#999999" width="0.85" height="1.994"/>
		<rect x="22.892" y="12.913" fill="#808080" width="0.85" height="1.994"/>
	</g>
	<rect x="0" y="1.438" opacity="0.3" fill="#FFFFFF" enable-background="new    " width="0.255" height="10.053"/>
	<rect x="0.851" y="11.491" opacity="0.3" fill="#FFFFFF" enable-background="new    " width="0.255" height="1.994"/>
	<rect x="1.38" y="3.304" opacity="0.3" fill="#FFFFFF" enable-background="new    " width="0.255" height="10.182"/>
	<rect x="0.595" y="15.732" opacity="0.3" fill="#FFFFFF" enable-background="new    " width="0.255" height="0.977"/>
	<rect x="22.892" y="15.732" opacity="0.3" fill="#FFFFFF" enable-background="new    " width="0.256" height="0.977"/>
	<rect x="1.635" y="14.336" opacity="0.3" fill="#FFFFFF" enable-background="new    " width="0.255" height="1.396"/>
	<rect x="21.797" y="14.08" opacity="0.3" fill="#FFFFFF" enable-background="new    " width="0.257" height="1.652"/>
	<rect x="0.256" y="11.235" opacity="0.3" fill="#FFFFFF" enable-background="new    " width="0.851" height="0.256"/>
	<rect x="1.107" y="13.229" opacity="0.3" fill="#FFFFFF" enable-background="new    " width="0.273" height="0.256"/>
	<rect x="0.595" y="15.477" opacity="0.3" fill="#FFFFFF" enable-background="new    " width="1.04" height="0.256"/>
	<rect x="22.054" y="15.477" opacity="0.3" fill="#FFFFFF" enable-background="new    " width="1.094" height="0.256"/>
	<rect x="1.891" y="17.804" opacity="0.3" fill="#FFFFFF" enable-background="new    " width="19.908" height="0.256"/>
	<rect x="1.635" y="14.08" opacity="0.3" fill="#FFFFFF" enable-background="new    " width="20.164" height="0.256"/>
	<polygon opacity="0.3" fill="#FFFFFF" enable-background="new    " points="23.742,1.438 23.487,1.693 0.256,1.693 0.256,1.438 	
		"/>
	<polygon opacity="0.3" fill="#FFFFFF" enable-background="new    " points="22.312,3.049 22.056,3.305 1.38,3.305 1.38,3.049 	"/>
	<polygon opacity="0.1" enable-background="new    " points="23.742,11.491 23.487,11.491 23.487,1.693 23.742,1.438 	"/>
	<polygon opacity="0.1" enable-background="new    " points="22.31,13.485 22.054,13.485 22.054,3.305 22.31,3.049 	"/>
	<rect x="22.631" y="11.491" opacity="0.1" enable-background="new    " width="0.261" height="1.994"/>
	<rect x="22.631" y="11.232" opacity="0.1" enable-background="new    " width="0.855" height="0.259"/>
	<rect x="23.483" y="14.91" opacity="0.1" enable-background="new    " width="0.26" height="3.746"/>
	<rect x="0.002" y="18.393" opacity="0.1" enable-background="new    " width="23.482" height="0.259"/>
	<rect x="1.635" y="3.304" opacity="0.42" fill="#CCCCCC" enable-background="new    " width="20.419" height="10.182"/>
	<rect x="0.851" y="15.732" fill="#666666" width="1.049" height="0.977"/>
	<rect x="21.787" y="15.732" fill="#666666" width="1.104" height="0.977"/>
</g>
<g opacity="0.3">
	<g>
		<rect x="19.149" y="14.336" fill="#FFFFFF" width="0.257" height="1.46"/>
	</g>
	<g>
		<rect x="16.104" y="14.336" fill="#FFFFFF" width="0.256" height="1.46"/>
	</g>
	<g>
		<rect x="13.059" y="14.336" fill="#FFFFFF" width="0.255" height="1.46"/>
	</g>
	<g>
		<rect x="10.015" y="14.336" fill="#FFFFFF" width="0.256" height="1.46"/>
	</g>
	<g>
		<rect x="6.97" y="14.336" fill="#FFFFFF" width="0.256" height="1.46"/>
	</g>
	<g>
		<rect x="3.925" y="14.336" fill="#FFFFFF" width="0.255" height="1.46"/>
	</g>
</g>
<g opacity="0.3">
	<g>
		<rect x="18.685" y="0" fill="#FFFFFF" width="0.256" height="1.46"/>
	</g>
	<g>
		<rect x="15.841" y="0" fill="#FFFFFF" width="0.257" height="1.46"/>
	</g>
	<g>
		<rect x="12.999" y="0" fill="#FFFFFF" width="0.256" height="1.46"/>
	</g>
	<g>
		<rect x="10.156" y="0" fill="#FFFFFF" width="0.256" height="1.46"/>
	</g>
	<g>
		<rect x="7.313" y="0" fill="#FFFFFF" width="0.256" height="1.46"/>
	</g>
	<g>
		<rect x="4.47" y="0" fill="#FFFFFF" width="0.256" height="1.46"/>
	</g>
</g>
</svg>
