<?xml version="1.0" encoding="utf-8"?>
<!-- Generator: Adobe Illustrator 15.1.0, SVG Export Plug-In . SVG Version: 6.00 Build 0)  -->
<!DOCTYPE svg PUBLIC "-//W3C//DTD SVG 1.1//EN" "http://www.w3.org/Graphics/SVG/1.1/DTD/svg11.dtd">
<svg version="1.1" id="Ebene_1" xmlns:svg="http://www.w3.org/2000/svg"
	 xmlns="http://www.w3.org/2000/svg" xmlns:xlink="http://www.w3.org/1999/xlink" x="0px" y="0px" width="150.912px"
	 height="34.93px" viewBox="0 0 150.912 34.93" enable-background="new 0 0 150.912 34.93" xml:space="preserve">
<g>
	<path fill="#333333" d="M4.432,10.518c0-3.196,2.592-5.788,5.787-5.788c3.195,0,5.786,2.592,5.786,5.788v-0.476
		c0-3.196-2.591-5.788-5.786-5.788c-3.195,0-5.787,2.592-5.787,5.788V10.518z"/>
	<path fill="#333333" d="M135.229,10.518c0-3.196,2.59-5.788,5.785-5.788c3.193,0,5.785,2.592,5.785,5.788v-0.476
		c0-3.196-2.592-5.788-5.785-5.788c-3.195,0-5.785,2.592-5.785,5.788V10.518z"/>
	<path fill="#1A1A1A" d="M19.643,3.403H1.977c-0.395,0-0.718,0.355-0.718,0.79v8.46c0,0.437,19.103,0.437,19.103,0v-8.46
		C20.359,3.76,20.038,3.403,19.643,3.403z M16.005,10.755H4.432v-0.713c0-3.196,2.592-5.788,5.787-5.788
		c3.195,0,5.786,2.592,5.786,5.788V10.755z"/>
	<path fill="#1A1A1A" d="M149.258,3.403h-18.167c-0.395,0-0.716,0.355-0.716,0.79v8.46c0,0.437,19.601,0.437,19.601,0v-8.46
		C149.976,3.76,149.651,3.403,149.258,3.403z M146.801,10.755h-11.571v-0.713c0-3.196,2.59-5.788,5.787-5.788
		c3.192,0,5.784,2.592,5.784,5.788V10.755L146.801,10.755z"/>
	<path fill="#B3B3B3" d="M15.537,9.852V7.018c0-0.394-0.323-0.716-0.717-0.716h-2.283c-0.395,0-0.717,0.322-0.717,0.716v2.834H8.65
		V7.018c0-0.394-0.321-0.716-0.715-0.716H5.65c-0.395,0-0.717,0.322-0.717,0.716v2.834H2.518v1.417h15.436V9.852H15.537z"/>
	<path fill="#B3B3B3" d="M146.334,9.852V7.018c0-0.394-0.321-0.716-0.717-0.716h-2.283c-0.396,0-0.717,0.322-0.717,0.716v2.834
		h-3.171V7.018c0-0.394-0.321-0.716-0.715-0.716h-2.285c-0.396,0-0.717,0.322-0.717,0.716v2.834h-2.416v1.417h15.437V9.852H146.334z
		"/>
	<rect y="10.366" fill="#B3B3B3" width="25.076" height="20.417"/>
	<rect x="126.156" y="10.366" fill="#B3B3B3" width="25.075" height="20.417"/>
	<rect x="149.976" y="10.105" opacity="0.47" fill="#808080" enable-background="new    " width="1.258" height="20.68"/>
	<rect x="124.959" y="29.524" opacity="0.47" fill="#808080" enable-background="new    " width="25.017" height="1.261"/>
	<polygon opacity="0.47" fill="#E6E6E6" enable-background="new    " points="0,10.105 1.258,10.105 1.258,29.524 0,30.783 	"/>
	<polygon opacity="0.47" fill="#808080" enable-background="new    " points="0,30.783 1.258,29.524 26.275,29.524 26.275,30.783 	
		"/>
	<path fill="#4D4D4D" d="M132.056,3.041c0-0.396-0.322-0.721-0.718-0.721H19.895c-0.395,0-0.717,0.323-0.717,0.721v4.583h112.877
		V3.041L132.056,3.041z"/>
	<path fill="#808080" d="M132.056,3.399c0-0.395-0.322-0.718-0.718-0.718H19.895c-0.395,0-0.717,0.323-0.717,0.718V3.041
		c0-0.396,0.322-0.721,0.717-0.721H131.34c0.394,0,0.716,0.323,0.716,0.721V3.399L132.056,3.399z"/>
	<path fill="#4D4D4D" d="M151.231,10.345c0,0.396-0.323,0.72-0.719,0.72H0.721C0.324,11.064,0,10.741,0,10.345V8.344
		c0-0.396,0.324-0.72,0.721-0.72h149.792c0.396,0,0.721,0.321,0.721,0.72v2.001H151.231z"/>
	<rect y="6.897" fill="#4D4D4D" width="151.231" height="1.889"/>
	<rect y="7.459" fill="#999999" width="151.231" height="0.33"/>
	<rect y="7.667" fill="#808080" width="151.231" height="0.33"/>
	<rect x="150.61" y="7.997" opacity="0.1" fill="#1A1A1A" enable-background="new    " width="0.621" height="2.349"/>
	<path fill="#CCCCCC" d="M7.102,27.833c-0.197,0-0.439-0.144-0.537-0.313l-3.119-5.397c-0.098-0.171-0.098-0.45,0-0.621l3.119-5.399
		c0.098-0.171,0.34-0.31,0.537-0.31h6.234c0.197,0,0.438,0.139,0.537,0.31l3.118,5.399c0.098,0.171,0.098,0.45,0,0.621l-3.118,5.397
		c-0.1,0.17-0.34,0.313-0.537,0.313H7.102z"/>
	<rect x="3.406" y="21.669" fill="#CCCCCC" width="13.658" height="4.464"/>
	<polygon opacity="0.65" fill="#999999" enable-background="new    " points="17.064,21.669 16.549,20.733 16.549,26.133 
		17.064,26.133 	"/>
	<polygon fill="#F2F2F2" points="3.889,20.733 3.372,21.669 3.372,26.133 3.889,26.133 	"/>
	<g>
		<defs>
			<polygon id="SVGID_1_" points="6.743,27.833 3.266,21.813 6.743,15.792 13.693,15.792 17.171,21.813 13.693,27.833 			"/>
		</defs>
		<clipPath id="SVGID_2_">
			<use xlink:href="#SVGID_1_"  overflow="visible"/>
		</clipPath>
		<rect x="12.875" y="15.792" clip-path="url(#SVGID_2_)" fill="#E6E6E6" width="1.244" height="6.021"/>
	</g>
	<g>
		<defs>
			<polygon id="SVGID_3_" points="6.743,27.833 3.266,21.813 6.743,15.792 13.693,15.792 17.171,21.813 13.693,27.833 			"/>
		</defs>
		<clipPath id="SVGID_4_">
			<use xlink:href="#SVGID_3_"  overflow="visible"/>
		</clipPath>
		<rect x="6.072" y="15.792" clip-path="url(#SVGID_4_)" fill="#E6E6E6" width="1.244" height="6.021"/>
	</g>
	<g>
		<defs>
			<polygon id="SVGID_5_" points="6.743,27.833 3.266,21.813 6.743,15.792 13.693,15.792 17.171,21.813 13.693,27.833 			"/>
		</defs>
		<clipPath id="SVGID_6_">
			<use xlink:href="#SVGID_5_"  overflow="visible"/>
		</clipPath>
		<rect x="13.166" y="15.792" clip-path="url(#SVGID_6_)" fill="#F2F2F2" width="0.661" height="6.021"/>
	</g>
	<g>
		<defs>
			<polygon id="SVGID_7_" points="6.743,27.833 3.266,21.813 6.743,15.792 13.693,15.792 17.171,21.813 13.693,27.833 			"/>
		</defs>
		<clipPath id="SVGID_8_">
			<use xlink:href="#SVGID_7_"  overflow="visible"/>
		</clipPath>
		<rect x="6.363" y="15.792" clip-path="url(#SVGID_8_)" fill="#F2F2F2" width="0.662" height="6.021"/>
	</g>
	<path fill="#CCCCCC" d="M7.104,32.152c-0.199,0-0.441-0.141-0.541-0.312l-3.115-5.397c-0.1-0.171-0.1-0.449,0-0.623l3.115-5.396
		c0.1-0.171,0.342-0.313,0.541-0.313h6.23c0.198,0,0.441,0.144,0.54,0.313l3.116,5.396c0.099,0.174,0.099,0.452,0,0.623
		l-3.116,5.397c-0.099,0.171-0.342,0.312-0.54,0.312H7.104z"/>
	<path fill="#B3B3B3" d="M7.257,31.885c-0.198,0-0.44-0.141-0.54-0.313l-2.961-5.129c-0.099-0.171-0.099-0.449,0-0.623l2.961-5.13
		c0.1-0.171,0.342-0.312,0.54-0.312h5.923c0.198,0,0.441,0.141,0.541,0.312l2.961,5.13c0.098,0.174,0.098,0.452,0,0.623
		l-2.961,5.129c-0.1,0.174-0.343,0.313-0.541,0.313H7.257z"/>
	<path fill="#CCCCCC" d="M137.916,27.833c-0.196,0-0.438-0.144-0.537-0.313l-3.118-5.397c-0.099-0.171-0.099-0.45,0-0.621
		l3.118-5.399c0.099-0.171,0.341-0.31,0.537-0.31h6.233c0.197,0,0.438,0.139,0.537,0.31l3.119,5.399c0.098,0.171,0.098,0.45,0,0.621
		l-3.119,5.397c-0.099,0.17-0.34,0.313-0.537,0.313H137.916z"/>
	<rect x="134.222" y="21.669" fill="#CCCCCC" width="13.657" height="4.464"/>
	<polygon opacity="0.65" fill="#999999" enable-background="new    " points="147.879,21.669 147.362,20.733 147.362,26.133 
		147.879,26.133 	"/>
	<polygon fill="#F2F2F2" points="134.703,20.733 134.187,21.669 134.187,26.133 134.703,26.133 	"/>
	<g>
		<defs>
			<polygon id="SVGID_9_" points="137.558,27.833 134.082,21.813 137.558,15.792 144.509,15.792 147.985,21.813 144.509,27.833 			
				"/>
		</defs>
		<clipPath id="SVGID_10_">
			<use xlink:href="#SVGID_9_"  overflow="visible"/>
		</clipPath>
		<rect x="143.688" y="15.792" clip-path="url(#SVGID_10_)" fill="#E6E6E6" width="1.244" height="6.021"/>
	</g>
	<g>
		<defs>
			<polygon id="SVGID_11_" points="137.558,27.833 134.082,21.813 137.558,15.792 144.509,15.792 147.985,21.813 144.509,27.833 			
				"/>
		</defs>
		<clipPath id="SVGID_12_">
			<use xlink:href="#SVGID_11_"  overflow="visible"/>
		</clipPath>
		<rect x="136.888" y="15.792" clip-path="url(#SVGID_12_)" fill="#E6E6E6" width="1.243" height="6.021"/>
	</g>
	<g>
		<defs>
			<polygon id="SVGID_13_" points="137.558,27.833 134.082,21.813 137.558,15.792 144.509,15.792 147.985,21.813 144.509,27.833 			
				"/>
		</defs>
		<clipPath id="SVGID_14_">
			<use xlink:href="#SVGID_13_"  overflow="visible"/>
		</clipPath>
		<rect x="143.979" y="15.792" clip-path="url(#SVGID_14_)" fill="#F2F2F2" width="0.662" height="6.021"/>
	</g>
	<g>
		<defs>
			<polygon id="SVGID_15_" points="137.558,27.833 134.082,21.813 137.558,15.792 144.509,15.792 147.985,21.813 144.509,27.833 			
				"/>
		</defs>
		<clipPath id="SVGID_16_">
			<use xlink:href="#SVGID_15_"  overflow="visible"/>
		</clipPath>
		<rect x="137.179" y="15.792" clip-path="url(#SVGID_16_)" fill="#F2F2F2" width="0.661" height="6.021"/>
	</g>
	<path fill="#CCCCCC" d="M137.918,32.152c-0.196,0-0.44-0.141-0.541-0.312l-3.114-5.397c-0.101-0.171-0.101-0.449,0-0.623
		l3.114-5.396c0.101-0.171,0.345-0.313,0.541-0.313h6.229c0.199,0,0.44,0.144,0.541,0.313l3.115,5.396c0.1,0.174,0.1,0.452,0,0.623
		l-3.115,5.397c-0.101,0.171-0.342,0.312-0.541,0.312H137.918z"/>
	<path fill="#B3B3B3" d="M138.071,31.885c-0.196,0-0.439-0.141-0.54-0.313l-2.962-5.129c-0.101-0.171-0.101-0.449,0-0.623
		l2.962-5.13c0.101-0.171,0.344-0.312,0.54-0.312h5.923c0.198,0,0.44,0.141,0.541,0.312l2.961,5.13c0.101,0.174,0.101,0.452,0,0.623
		l-2.961,5.129c-0.101,0.174-0.343,0.313-0.541,0.313H138.071z"/>
	<path fill="#4D4D4D" d="M132.056,6.182"/>
	<rect x="132.056" y="6.9" opacity="0.63" fill="#E6E6E6" enable-background="new    " width="17.92" height="0.2"/>
	<rect x="1.275" y="6.9" opacity="0.63" fill="#E6E6E6" enable-background="new    " width="17.92" height="0.2"/>
	<g>
		<defs>
			<path id="SVGID_17_" d="M151.231,10.345c0,0.396-0.323,0.72-0.719,0.72H0.721C0.324,11.064,0,10.741,0,10.345V8.344
				c0-0.396,0.324-0.72,0.721-0.72h149.792c0.396,0,0.721,0.321,0.721,0.72v2.001H151.231z"/>
		</defs>
		<clipPath id="SVGID_18_">
			<use xlink:href="#SVGID_17_"  overflow="visible"/>
		</clipPath>
		
			<rect y="10.345" opacity="0.47" clip-path="url(#SVGID_18_)" fill="#999999" enable-background="new    " width="35.854" height="0.72"/>
	</g>
	<g>
		<defs>
			<path id="SVGID_19_" d="M151.231,10.345c0,0.396-0.323,0.72-0.719,0.72H0.721C0.324,11.064,0,10.741,0,10.345V8.344
				c0-0.396,0.324-0.72,0.721-0.72h149.792c0.396,0,0.721,0.321,0.721,0.72v2.001H151.231z"/>
		</defs>
		<clipPath id="SVGID_20_">
			<use xlink:href="#SVGID_19_"  overflow="visible"/>
		</clipPath>
		
			<rect y="10.776" opacity="0.47" clip-path="url(#SVGID_20_)" fill="#999999" enable-background="new    " width="35.854" height="0.288"/>
	</g>
	<g>
		<defs>
			<path id="SVGID_21_" d="M151.231,10.345c0,0.396-0.323,0.72-0.719,0.72H0.721C0.324,11.064,0,10.741,0,10.345V8.344
				c0-0.396,0.324-0.72,0.721-0.72h149.792c0.396,0,0.721,0.321,0.721,0.72v2.001H151.231z"/>
		</defs>
		<clipPath id="SVGID_22_">
			<use xlink:href="#SVGID_21_"  overflow="visible"/>
		</clipPath>
		
			<rect x="48.859" y="10.345" opacity="0.1" clip-path="url(#SVGID_22_)" fill="#1A1A1A" enable-background="new    " width="102.373" height="0.72"/>
	</g>
	<g>
		<defs>
			<path id="SVGID_23_" d="M151.231,10.345c0,0.396-0.323,0.72-0.719,0.72H0.721C0.324,11.064,0,10.741,0,10.345V8.344
				c0-0.396,0.324-0.72,0.721-0.72h149.792c0.396,0,0.721,0.321,0.721,0.72v2.001H151.231z"/>
		</defs>
		<clipPath id="SVGID_24_">
			<use xlink:href="#SVGID_23_"  overflow="visible"/>
		</clipPath>
		
			<rect x="48.859" y="10.776" opacity="0.2" clip-path="url(#SVGID_24_)" fill="#1A1A1A" enable-background="new    " width="102.373" height="0.288"/>
	</g>
	<rect x="21.258" y="10.105" fill="#4D4D4D" width="109.591" height="4.808"/>
	<polygon opacity="0.36" fill="#E6E6E6" enable-background="new    " points="23.557,13.016 21.26,15.105 21.258,10.366 	"/>
	<polygon opacity="0.36" fill="#E6E6E6" enable-background="new    " points="128.549,13.016 130.844,15.105 130.847,10.366 	"/>
	<path fill="#999999" d="M21.342,15.85c-0.389-1.559,0.607-2.834,2.215-2.834h104.988c1.608,0,2.604,1.274,2.218,2.834
		l-4.063,16.246c-0.392,1.56-2.021,2.834-3.628,2.834H29.035c-1.607,0-3.24-1.274-3.631-2.834L21.342,15.85z"/>
	<path fill="#1A1A1A" d="M23.215,16.797c-0.395-1.56,0.6-2.832,2.207-2.832h101.261c1.606,0,2.603,1.272,2.207,2.832l-3.619,14.349
		c-0.394,1.563-2.028,2.835-3.638,2.835H30.471c-1.607,0-3.244-1.271-3.638-2.835L23.215,16.797z"/>
	<polygon opacity="0.53" fill="#E6E6E6" enable-background="new    " points="3.372,21.618 6.743,15.792 6.743,16.181 3.372,22.007 
			"/>
	<polygon opacity="0.53" fill="#808080" enable-background="new    " points="17.064,21.618 13.693,15.792 13.693,16.181 
		17.064,22.007 	"/>
	<rect x="6.743" y="15.792" opacity="0.25" fill="#F2F2F2" enable-background="new    " width="6.95" height="0.377"/>
	<polygon opacity="0.53" fill="#E6E6E6" enable-background="new    " points="134.168,21.618 137.539,15.792 137.539,16.181 
		134.168,22.007 	"/>
	<polygon opacity="0.53" fill="#808080" enable-background="new    " points="147.86,21.618 144.49,15.792 144.49,16.181 
		147.86,22.007 	"/>
	<rect x="137.539" y="15.792" opacity="0.25" fill="#F2F2F2" enable-background="new    " width="6.951" height="0.377"/>
	<path opacity="0.2" fill="#E6E6E6" enable-background="new    " d="M1.259,4.589c0-0.438,0.323-0.79,0.718-0.79h17.201V3.403H1.977
		c-0.395,0-0.718,0.355-0.718,0.79V4.589z"/>
	<path opacity="0.2" fill="#E6E6E6" enable-background="new    " d="M149.976,4.193c0-0.435-0.324-0.79-0.719-0.79h-17.201v0.396
		h17.201c0.395,0,0.719,0.354,0.719,0.79V4.193z"/>
	<circle fill="#4D4D4D" cx="122.179" cy="19.888" r="1.582"/>
	<circle cx="122.179" cy="19.889" r="1.218"/>
	<circle fill="#4D4D4D" cx="114.358" cy="19.888" r="1.582"/>
	<circle cx="114.358" cy="19.889" r="1.218"/>
	<circle fill="#4D4D4D" cx="106.539" cy="19.888" r="1.582"/>
	<circle cx="106.539" cy="19.889" r="1.218"/>
	<circle fill="#4D4D4D" cx="98.72" cy="19.888" r="1.582"/>
	<circle cx="98.72" cy="19.889" r="1.218"/>
	<circle fill="#4D4D4D" cx="90.899" cy="19.888" r="1.582"/>
	<circle cx="90.899" cy="19.889" r="1.218"/>
	<circle fill="#4D4D4D" cx="83.081" cy="19.888" r="1.582"/>
	<circle cx="83.081" cy="19.889" r="1.218"/>
	<circle fill="#4D4D4D" cx="75.262" cy="19.888" r="1.582"/>
	<circle cx="75.262" cy="19.889" r="1.218"/>
	<circle fill="#4D4D4D" cx="67.442" cy="19.888" r="1.582"/>
	<circle cx="67.442" cy="19.889" r="1.218"/>
	<circle fill="#4D4D4D" cx="59.623" cy="19.888" r="1.582"/>
	<circle cx="59.623" cy="19.889" r="1.218"/>
	<circle fill="#4D4D4D" cx="51.804" cy="19.888" r="1.582"/>
	<circle cx="51.804" cy="19.889" r="1.218"/>
	<circle fill="#4D4D4D" cx="43.984" cy="19.888" r="1.582"/>
	<circle cx="43.984" cy="19.889" r="1.218"/>
	<circle fill="#4D4D4D" cx="36.165" cy="19.888" r="1.582"/>
	<circle cx="36.165" cy="19.889" r="1.218"/>
	<circle fill="#4D4D4D" cx="28.346" cy="19.888" r="1.582"/>
	<circle cx="28.346" cy="19.889" r="1.218"/>
	<circle fill="#4D4D4D" cx="118.272" cy="28.058" r="1.582"/>
	<circle cx="118.272" cy="28.058" r="1.217"/>
	<circle fill="#4D4D4D" cx="110.454" cy="28.058" r="1.582"/>
	<circle cx="110.454" cy="28.058" r="1.217"/>
	<circle fill="#4D4D4D" cx="102.635" cy="28.058" r="1.582"/>
	<circle cx="102.635" cy="28.058" r="1.217"/>
	<circle fill="#4D4D4D" cx="94.815" cy="28.058" r="1.582"/>
	<circle cx="94.815" cy="28.058" r="1.217"/>
	<circle fill="#4D4D4D" cx="86.996" cy="28.058" r="1.582"/>
	<circle cx="86.996" cy="28.058" r="1.217"/>
	<circle fill="#4D4D4D" cx="79.177" cy="28.058" r="1.582"/>
	<circle cx="79.177" cy="28.058" r="1.217"/>
	<circle fill="#4D4D4D" cx="71.357" cy="28.058" r="1.582"/>
	<circle cx="71.357" cy="28.058" r="1.217"/>
	<circle fill="#4D4D4D" cx="63.538" cy="28.058" r="1.582"/>
	<circle cx="63.538" cy="28.058" r="1.217"/>
	<circle fill="#4D4D4D" cx="55.719" cy="28.058" r="1.582"/>
	<circle cx="55.719" cy="28.058" r="1.217"/>
	<circle fill="#4D4D4D" cx="47.899" cy="28.058" r="1.582"/>
	<circle cx="47.899" cy="28.058" r="1.217"/>
	<circle fill="#4D4D4D" cx="40.08" cy="28.058" r="1.582"/>
	<circle cx="40.08" cy="28.058" r="1.217"/>
	<circle fill="#4D4D4D" cx="32.261" cy="28.058" r="1.582"/>
	<circle cx="32.261" cy="28.058" r="1.217"/>
	<rect x="118.169" y="0" fill="#C7A663" width="0.587" height="2.333"/>
	<rect x="118.169" y="0" opacity="0.7" fill="#999999" enable-background="new    " width="0.119" height="2.333"/>
	<rect x="118.638" y="0" opacity="0.7" fill="#4D4D4D" enable-background="new    " width="0.119" height="2.333"/>
	<rect x="110.969" y="0" fill="#C7A663" width="0.587" height="2.333"/>
	<rect x="110.969" y="0" opacity="0.7" fill="#999999" enable-background="new    " width="0.119" height="2.333"/>
	<rect x="111.438" y="0" opacity="0.7" fill="#4D4D4D" enable-background="new    " width="0.119" height="2.333"/>
	<rect x="103.769" y="0" fill="#C7A663" width="0.588" height="2.333"/>
	<rect x="103.769" y="0" opacity="0.7" fill="#999999" enable-background="new    " width="0.119" height="2.333"/>
	<rect x="104.237" y="0" opacity="0.7" fill="#4D4D4D" enable-background="new    " width="0.119" height="2.333"/>
	<rect x="96.567" y="0" fill="#C7A663" width="0.588" height="2.333"/>
	<rect x="96.567" y="0" opacity="0.7" fill="#999999" enable-background="new    " width="0.119" height="2.333"/>
	<rect x="97.037" y="0" opacity="0.7" fill="#4D4D4D" enable-background="new    " width="0.119" height="2.333"/>
	<rect x="89.368" y="0" fill="#C7A663" width="0.587" height="2.333"/>
	<rect x="89.368" y="0" opacity="0.7" fill="#999999" enable-background="new    " width="0.119" height="2.333"/>
	<rect x="89.837" y="0" opacity="0.7" fill="#4D4D4D" enable-background="new    " width="0.119" height="2.333"/>
	<rect x="82.168" y="0" fill="#C7A663" width="0.587" height="2.333"/>
	<rect x="82.168" y="0" opacity="0.7" fill="#999999" enable-background="new    " width="0.119" height="2.333"/>
	<rect x="82.638" y="0" opacity="0.7" fill="#4D4D4D" enable-background="new    " width="0.118" height="2.333"/>
	<rect x="74.968" y="0" fill="#C7A663" width="0.587" height="2.333"/>
	<rect x="74.968" y="0" opacity="0.7" fill="#999999" enable-background="new    " width="0.119" height="2.333"/>
	<rect x="75.437" y="0" opacity="0.7" fill="#4D4D4D" enable-background="new    " width="0.119" height="2.333"/>
	<rect x="67.768" y="0" fill="#C7A663" width="0.587" height="2.333"/>
	<rect x="67.768" y="0" opacity="0.7" fill="#999999" enable-background="new    " width="0.119" height="2.333"/>
	<rect x="68.236" y="0" opacity="0.7" fill="#4D4D4D" enable-background="new    " width="0.119" height="2.333"/>
	<rect x="60.567" y="0" fill="#C7A663" width="0.587" height="2.333"/>
	<rect x="60.567" y="0" opacity="0.7" fill="#999999" enable-background="new    " width="0.119" height="2.333"/>
	<rect x="61.036" y="0" opacity="0.7" fill="#4D4D4D" enable-background="new    " width="0.119" height="2.333"/>
	<rect x="53.367" y="0" fill="#C7A663" width="0.587" height="2.333"/>
	<rect x="53.367" y="0" opacity="0.7" fill="#999999" enable-background="new    " width="0.119" height="2.333"/>
	<rect x="53.836" y="0" opacity="0.7" fill="#4D4D4D" enable-background="new    " width="0.119" height="2.333"/>
	<rect x="46.167" y="0" fill="#C7A663" width="0.587" height="2.333"/>
	<rect x="46.167" y="0" opacity="0.7" fill="#999999" enable-background="new    " width="0.119" height="2.333"/>
	<rect x="46.636" y="0" opacity="0.7" fill="#4D4D4D" enable-background="new    " width="0.119" height="2.333"/>
	<rect x="38.967" y="0" fill="#C7A663" width="0.587" height="2.333"/>
	<rect x="38.967" y="0" opacity="0.7" fill="#999999" enable-background="new    " width="0.119" height="2.333"/>
	<rect x="39.436" y="0" opacity="0.7" fill="#4D4D4D" enable-background="new    " width="0.119" height="2.333"/>
	<rect x="31.767" y="0" fill="#C7A663" width="0.587" height="2.333"/>
	<rect x="31.767" y="0" opacity="0.7" fill="#999999" enable-background="new    " width="0.119" height="2.333"/>
	<rect x="32.235" y="0" opacity="0.7" fill="#4D4D4D" enable-background="new    " width="0.119" height="2.333"/>
	<rect x="114.567" y="0.588" fill="#7B6231" width="0.589" height="1.745"/>
	<rect x="114.567" y="0.588" opacity="0.7" fill="#999999" enable-background="new    " width="0.119" height="1.745"/>
	<rect x="115.037" y="0.588" opacity="0.7" fill="#4D4D4D" enable-background="new    " width="0.119" height="1.745"/>
	<rect x="107.369" y="0.588" fill="#7B6231" width="0.586" height="1.745"/>
	<rect x="107.369" y="0.588" opacity="0.7" fill="#999999" enable-background="new    " width="0.116" height="1.745"/>
	<rect x="107.838" y="0.588" opacity="0.7" fill="#4D4D4D" enable-background="new    " width="0.119" height="1.745"/>
	<rect x="100.168" y="0.588" fill="#7B6231" width="0.588" height="1.745"/>
	<rect x="100.168" y="0.588" opacity="0.7" fill="#999999" enable-background="new    " width="0.119" height="1.745"/>
	<rect x="100.638" y="0.588" opacity="0.7" fill="#4D4D4D" enable-background="new    " width="0.118" height="1.745"/>
	<rect x="92.969" y="0.588" fill="#7B6231" width="0.587" height="1.745"/>
	<rect x="92.969" y="0.588" opacity="0.7" fill="#999999" enable-background="new    " width="0.117" height="1.745"/>
	<rect x="93.438" y="0.588" opacity="0.7" fill="#4D4D4D" enable-background="new    " width="0.119" height="1.745"/>
	<rect x="85.769" y="0.588" fill="#7B6231" width="0.588" height="1.745"/>
	<rect x="85.769" y="0.588" opacity="0.7" fill="#999999" enable-background="new    " width="0.119" height="1.745"/>
	<rect x="86.235" y="0.588" opacity="0.7" fill="#4D4D4D" enable-background="new    " width="0.119" height="1.745"/>
	<rect x="78.567" y="0.588" fill="#7B6231" width="0.586" height="1.745"/>
	<rect x="78.567" y="0.588" opacity="0.7" fill="#999999" enable-background="new    " width="0.119" height="1.745"/>
	<rect x="79.037" y="0.588" opacity="0.7" fill="#4D4D4D" enable-background="new    " width="0.119" height="1.745"/>
	<rect x="71.368" y="0.588" fill="#7B6231" width="0.587" height="1.745"/>
	<rect x="71.368" y="0.588" opacity="0.7" fill="#999999" enable-background="new    " width="0.119" height="1.745"/>
	<rect x="71.836" y="0.588" opacity="0.7" fill="#4D4D4D" enable-background="new    " width="0.119" height="1.745"/>
	<rect x="64.167" y="0.588" fill="#7B6231" width="0.587" height="1.745"/>
	<rect x="64.167" y="0.588" opacity="0.7" fill="#999999" enable-background="new    " width="0.119" height="1.745"/>
	<rect x="64.636" y="0.588" opacity="0.7" fill="#4D4D4D" enable-background="new    " width="0.119" height="1.745"/>
	<rect x="56.967" y="0.588" fill="#7B6231" width="0.587" height="1.745"/>
	<rect x="56.967" y="0.588" opacity="0.7" fill="#999999" enable-background="new    " width="0.119" height="1.745"/>
	<rect x="57.436" y="0.588" opacity="0.7" fill="#4D4D4D" enable-background="new    " width="0.119" height="1.745"/>
	<rect x="49.767" y="0.588" fill="#7B6231" width="0.587" height="1.745"/>
	<rect x="49.767" y="0.588" opacity="0.7" fill="#999999" enable-background="new    " width="0.119" height="1.745"/>
	<rect x="50.236" y="0.588" opacity="0.7" fill="#4D4D4D" enable-background="new    " width="0.119" height="1.745"/>
	<rect x="42.567" y="0.588" fill="#7B6231" width="0.587" height="1.745"/>
	<rect x="42.567" y="0.588" opacity="0.7" fill="#999999" enable-background="new    " width="0.119" height="1.745"/>
	<rect x="43.036" y="0.588" opacity="0.7" fill="#4D4D4D" enable-background="new    " width="0.119" height="1.745"/>
	<rect x="35.367" y="0.588" fill="#7B6231" width="0.587" height="1.745"/>
	<rect x="35.367" y="0.588" opacity="0.7" fill="#999999" enable-background="new    " width="0.119" height="1.745"/>
	<rect x="35.835" y="0.588" opacity="0.7" fill="#4D4D4D" enable-background="new    " width="0.119" height="1.745"/>
	<circle fill="#4D4D4D" cx="10.218" cy="26.133" r="4.846"/>
	<path fill="#808080" d="M10.218,26.853c-1.936,0-3.593-1.143-4.369-2.782c-0.297,0.627-0.477,1.321-0.477,2.063
		c0,2.677,2.169,4.846,4.846,4.846c2.677,0,4.846-2.169,4.846-4.846c0-0.741-0.179-1.437-0.477-2.063
		C13.811,25.71,12.153,26.853,10.218,26.853z"/>
	<circle fill="#4D4D4D" cx="141.05" cy="26.133" r="4.846"/>
	<path fill="#808080" d="M141.05,26.853c-1.936,0-3.593-1.143-4.369-2.782c-0.297,0.627-0.477,1.321-0.477,2.063
		c0,2.677,2.17,4.846,4.846,4.846c2.678,0,4.846-2.169,4.846-4.846c0-0.741-0.179-1.437-0.477-2.063
		C144.644,25.71,142.985,26.853,141.05,26.853z"/>
</g>
</svg>
