<?xml version="1.0" encoding="utf-8"?>
<!-- Generator: Adobe Illustrator 15.1.0, SVG Export Plug-In . SVG Version: 6.00 Build 0)  -->
<!DOCTYPE svg PUBLIC "-//W3C//DTD SVG 1.1//EN" "http://www.w3.org/Graphics/SVG/1.1/DTD/svg11.dtd">
<svg version="1.1" id="Ebene_1" xmlns:svg="http://www.w3.org/2000/svg"
	 xmlns="http://www.w3.org/2000/svg" xmlns:xlink="http://www.w3.org/1999/xlink" x="0px" y="0px" width="150.912px"
	 height="34.93px" viewBox="0 0 150.912 34.93" enable-background="new 0 0 150.912 34.93" xml:space="preserve">
<g>
	<path fill="#333333" d="M4.432,10.518c0-3.196,2.592-5.788,5.787-5.788c3.195,0,5.786,2.592,5.786,5.788v-0.476
		c0-3.196-2.591-5.788-5.786-5.788c-3.195,0-5.787,2.592-5.787,5.788V10.518z"/>
	<path fill="#333333" d="M135.229,10.518c0-3.196,2.59-5.788,5.785-5.788c3.192,0,5.784,2.592,5.784,5.788v-0.476
		c0-3.196-2.592-5.788-5.784-5.788c-3.195,0-5.785,2.592-5.785,5.788V10.518z"/>
	<path fill="#1A1A1A" d="M19.643,3.403H1.977c-0.395,0-0.718,0.355-0.718,0.79v8.46c0,0.438,19.103,0.438,19.103,0v-8.46
		C20.359,3.76,20.038,3.403,19.643,3.403z M16.005,10.755H4.432v-0.713c0-3.196,2.592-5.788,5.787-5.788
		c3.195,0,5.786,2.592,5.786,5.788V10.755z"/>
	<path fill="#1A1A1A" d="M149.258,3.403h-18.167c-0.395,0-0.716,0.355-0.716,0.79v8.46c0,0.438,19.601,0.438,19.601,0v-8.46
		C149.976,3.76,149.651,3.403,149.258,3.403z M146.801,10.755h-11.571v-0.713c0-3.196,2.59-5.788,5.787-5.788
		c3.192,0,5.784,2.592,5.784,5.788V10.755L146.801,10.755z"/>
	<path fill="#B3B3B3" d="M15.537,9.852V7.018c0-0.394-0.323-0.716-0.717-0.716h-2.283c-0.395,0-0.717,0.322-0.717,0.716v2.834H8.65
		V7.018c0-0.394-0.321-0.716-0.715-0.716H5.65c-0.395,0-0.717,0.322-0.717,0.716v2.834H2.518v1.417h15.436V9.852H15.537z"/>
	<path fill="#B3B3B3" d="M146.334,9.852V7.018c0-0.394-0.321-0.716-0.717-0.716h-2.283c-0.396,0-0.717,0.322-0.717,0.716v2.834
		h-3.171V7.018c0-0.394-0.321-0.716-0.715-0.716h-2.285c-0.396,0-0.717,0.322-0.717,0.716v2.834h-2.416v1.417h15.437V9.852H146.334z
		"/>
	<rect y="10.366" fill="#B3B3B3" width="25.076" height="20.417"/>
	<rect x="126.156" y="10.366" fill="#B3B3B3" width="25.075" height="20.417"/>
	<rect x="149.976" y="10.105" opacity="0.47" fill="#808080" enable-background="new    " width="1.258" height="20.681"/>
	<rect x="124.959" y="29.524" opacity="0.47" fill="#808080" enable-background="new    " width="25.017" height="1.262"/>
	<polygon opacity="0.47" fill="#E6E6E6" enable-background="new    " points="0,10.105 1.258,10.105 1.258,29.524 0,30.783 	"/>
	<polygon opacity="0.47" fill="#808080" enable-background="new    " points="0,30.783 1.258,29.524 26.275,29.524 26.275,30.783 	
		"/>
	<path fill="#4D4D4D" d="M132.056,3.041c0-0.396-0.322-0.722-0.718-0.722H19.895c-0.395,0-0.717,0.323-0.717,0.722v4.583h112.877
		V3.041L132.056,3.041z"/>
	<path fill="#808080" d="M132.056,3.399c0-0.395-0.322-0.718-0.718-0.718H19.895c-0.395,0-0.717,0.323-0.717,0.718V3.041
		c0-0.396,0.322-0.722,0.717-0.722H131.34c0.394,0,0.716,0.323,0.716,0.722V3.399L132.056,3.399z"/>
	<path fill="#4D4D4D" d="M151.231,10.345c0,0.396-0.323,0.72-0.719,0.72H0.721C0.324,11.064,0,10.741,0,10.345V8.344
		c0-0.396,0.324-0.72,0.721-0.72h149.792c0.396,0,0.721,0.32,0.721,0.72v2.001H151.231z"/>
	<rect y="6.897" fill="#4D4D4D" width="151.231" height="1.89"/>
	<rect y="7.459" fill="#999999" width="151.231" height="0.33"/>
	<rect y="7.667" fill="#808080" width="151.231" height="0.33"/>
	<rect x="150.61" y="7.997" opacity="0.1" fill="#1A1A1A" enable-background="new    " width="0.621" height="2.349"/>
	<path fill="#4D4D4D" d="M132.056,6.182"/>
	<rect x="132.056" y="6.9" opacity="0.63" fill="#E6E6E6" enable-background="new    " width="17.92" height="0.2"/>
	<g>
		<path opacity="0.1" fill="#1A1A1A" enable-background="new    " d="M150.513,11.065c0.396,0,0.719-0.323,0.719-0.72H48.859v0.72
			h99.891H150.513z"/>
		<path opacity="0.47" fill="#999999" enable-background="new    " d="M0,10.345c0,0.396,0.324,0.719,0.721,0.72h3.711h31.422v-0.72
			H0z"/>
		<path opacity="0.47" fill="#999999" enable-background="new    " d="M0.159,10.776c0.131,0.17,0.327,0.286,0.557,0.288h35.138
			v-0.288H0.159z"/>
		<path opacity="0.2" fill="#1A1A1A" enable-background="new    " d="M151.073,10.776H48.859v0.288h101.659
			C150.747,11.062,150.942,10.946,151.073,10.776z"/>
	</g>
	<rect x="1.275" y="6.9" opacity="0.63" fill="#E6E6E6" enable-background="new    " width="17.92" height="0.2"/>
	<rect x="21.258" y="10.105" fill="#4D4D4D" width="109.591" height="4.809"/>
	<polygon opacity="0.36" fill="#E6E6E6" enable-background="new    " points="23.557,13.016 21.26,15.105 21.258,10.366 	"/>
	<polygon opacity="0.36" fill="#E6E6E6" enable-background="new    " points="128.549,13.016 130.844,15.105 130.847,10.366 	"/>
	<path fill="#999999" d="M21.342,15.85c-0.389-1.559,0.607-2.834,2.215-2.834h104.988c1.608,0,2.604,1.274,2.218,2.834L126.7,32.096
		c-0.393,1.56-2.021,2.834-3.629,2.834H29.035c-1.607,0-3.24-1.274-3.631-2.834L21.342,15.85z"/>
	<path fill="#1A1A1A" d="M23.215,16.797c-0.395-1.561,0.6-2.832,2.207-2.832h101.261c1.606,0,2.604,1.271,2.207,2.832l-3.619,14.349
		c-0.394,1.563-2.027,2.835-3.638,2.835H30.471c-1.607,0-3.244-1.271-3.638-2.835L23.215,16.797z"/>
	<path opacity="0.2" fill="#E6E6E6" enable-background="new    " d="M1.259,4.589c0-0.438,0.323-0.79,0.718-0.79h17.201V3.403H1.977
		c-0.395,0-0.718,0.355-0.718,0.79V4.589z"/>
	<path opacity="0.2" fill="#E6E6E6" enable-background="new    " d="M149.976,4.193c0-0.435-0.324-0.79-0.719-0.79h-17.201v0.396
		h17.201c0.395,0,0.719,0.354,0.719,0.79V4.193z"/>
	<circle fill="#4D4D4D" cx="122.179" cy="19.888" r="1.582"/>
	<circle cx="122.179" cy="19.889" r="1.218"/>
	<circle fill="#4D4D4D" cx="114.358" cy="19.888" r="1.582"/>
	<circle cx="114.358" cy="19.889" r="1.218"/>
	<circle fill="#4D4D4D" cx="106.539" cy="19.888" r="1.582"/>
	<circle cx="106.539" cy="19.889" r="1.218"/>
	<circle fill="#4D4D4D" cx="98.72" cy="19.888" r="1.582"/>
	<circle cx="98.72" cy="19.889" r="1.218"/>
	<circle fill="#4D4D4D" cx="90.899" cy="19.888" r="1.582"/>
	<circle cx="90.899" cy="19.889" r="1.218"/>
	<circle fill="#4D4D4D" cx="83.081" cy="19.888" r="1.582"/>
	<circle cx="83.081" cy="19.889" r="1.218"/>
	<circle fill="#4D4D4D" cx="75.262" cy="19.888" r="1.582"/>
	<circle cx="75.262" cy="19.889" r="1.218"/>
	<circle fill="#4D4D4D" cx="67.442" cy="19.888" r="1.582"/>
	<circle cx="67.442" cy="19.889" r="1.218"/>
	<circle fill="#4D4D4D" cx="59.623" cy="19.888" r="1.582"/>
	<circle cx="59.623" cy="19.889" r="1.218"/>
	<circle fill="#4D4D4D" cx="51.804" cy="19.888" r="1.582"/>
	<circle cx="51.804" cy="19.889" r="1.218"/>
	<circle fill="#4D4D4D" cx="43.984" cy="19.888" r="1.582"/>
	<circle cx="43.984" cy="19.889" r="1.218"/>
	<circle fill="#4D4D4D" cx="36.165" cy="19.888" r="1.582"/>
	<circle cx="36.165" cy="19.889" r="1.218"/>
	<circle fill="#4D4D4D" cx="28.346" cy="19.888" r="1.582"/>
	<circle cx="28.346" cy="19.889" r="1.218"/>
	<circle fill="#4D4D4D" cx="118.272" cy="28.058" r="1.582"/>
	<circle cx="118.272" cy="28.058" r="1.217"/>
	<circle fill="#4D4D4D" cx="110.454" cy="28.058" r="1.582"/>
	<circle cx="110.454" cy="28.058" r="1.217"/>
	<circle fill="#4D4D4D" cx="102.635" cy="28.058" r="1.582"/>
	<circle cx="102.635" cy="28.058" r="1.217"/>
	<circle fill="#4D4D4D" cx="94.815" cy="28.058" r="1.582"/>
	<circle cx="94.815" cy="28.058" r="1.217"/>
	<circle fill="#4D4D4D" cx="86.996" cy="28.058" r="1.582"/>
	<circle cx="86.996" cy="28.058" r="1.217"/>
	<circle fill="#4D4D4D" cx="79.177" cy="28.058" r="1.582"/>
	<circle cx="79.177" cy="28.058" r="1.217"/>
	<circle fill="#4D4D4D" cx="71.357" cy="28.058" r="1.582"/>
	<circle cx="71.357" cy="28.058" r="1.217"/>
	<circle fill="#4D4D4D" cx="63.538" cy="28.058" r="1.582"/>
	<circle cx="63.538" cy="28.058" r="1.217"/>
	<circle fill="#4D4D4D" cx="55.719" cy="28.058" r="1.582"/>
	<circle cx="55.719" cy="28.058" r="1.217"/>
	<circle fill="#4D4D4D" cx="47.899" cy="28.058" r="1.582"/>
	<circle cx="47.899" cy="28.058" r="1.217"/>
	<circle fill="#4D4D4D" cx="40.08" cy="28.058" r="1.582"/>
	<circle cx="40.08" cy="28.058" r="1.217"/>
	<circle fill="#4D4D4D" cx="32.261" cy="28.058" r="1.582"/>
	<circle cx="32.261" cy="28.058" r="1.217"/>
	<rect x="118.169" y="0" fill="#C7A663" width="0.587" height="2.333"/>
	<rect x="118.169" y="0" opacity="0.7" fill="#999999" enable-background="new    " width="0.119" height="2.333"/>
	<rect x="118.638" y="0" opacity="0.7" fill="#4D4D4D" enable-background="new    " width="0.119" height="2.333"/>
	<rect x="110.969" y="0" fill="#C7A663" width="0.587" height="2.333"/>
	<rect x="110.969" y="0" opacity="0.7" fill="#999999" enable-background="new    " width="0.119" height="2.333"/>
	<rect x="111.438" y="0" opacity="0.7" fill="#4D4D4D" enable-background="new    " width="0.119" height="2.333"/>
	<rect x="103.769" y="0" fill="#C7A663" width="0.588" height="2.333"/>
	<rect x="103.769" y="0" opacity="0.7" fill="#999999" enable-background="new    " width="0.119" height="2.333"/>
	<rect x="104.237" y="0" opacity="0.7" fill="#4D4D4D" enable-background="new    " width="0.119" height="2.333"/>
	<rect x="96.567" y="0" fill="#C7A663" width="0.588" height="2.333"/>
	<rect x="96.567" y="0" opacity="0.7" fill="#999999" enable-background="new    " width="0.119" height="2.333"/>
	<rect x="97.037" y="0" opacity="0.7" fill="#4D4D4D" enable-background="new    " width="0.119" height="2.333"/>
	<rect x="89.368" y="0" fill="#C7A663" width="0.587" height="2.333"/>
	<rect x="89.368" y="0" opacity="0.7" fill="#999999" enable-background="new    " width="0.119" height="2.333"/>
	<rect x="89.837" y="0" opacity="0.7" fill="#4D4D4D" enable-background="new    " width="0.119" height="2.333"/>
	<rect x="82.168" y="0" fill="#C7A663" width="0.587" height="2.333"/>
	<rect x="82.168" y="0" opacity="0.7" fill="#999999" enable-background="new    " width="0.119" height="2.333"/>
	<rect x="82.638" y="0" opacity="0.7" fill="#4D4D4D" enable-background="new    " width="0.118" height="2.333"/>
	<rect x="74.968" y="0" fill="#C7A663" width="0.587" height="2.333"/>
	<rect x="74.968" y="0" opacity="0.7" fill="#999999" enable-background="new    " width="0.119" height="2.333"/>
	<rect x="75.437" y="0" opacity="0.7" fill="#4D4D4D" enable-background="new    " width="0.119" height="2.333"/>
	<rect x="67.768" y="0" fill="#C7A663" width="0.587" height="2.333"/>
	<rect x="67.768" y="0" opacity="0.7" fill="#999999" enable-background="new    " width="0.119" height="2.333"/>
	<rect x="68.236" y="0" opacity="0.7" fill="#4D4D4D" enable-background="new    " width="0.119" height="2.333"/>
	<rect x="60.567" y="0" fill="#C7A663" width="0.587" height="2.333"/>
	<rect x="60.567" y="0" opacity="0.7" fill="#999999" enable-background="new    " width="0.119" height="2.333"/>
	<rect x="61.036" y="0" opacity="0.7" fill="#4D4D4D" enable-background="new    " width="0.119" height="2.333"/>
	<rect x="53.367" y="0" fill="#C7A663" width="0.587" height="2.333"/>
	<rect x="53.367" y="0" opacity="0.7" fill="#999999" enable-background="new    " width="0.119" height="2.333"/>
	<rect x="53.836" y="0" opacity="0.7" fill="#4D4D4D" enable-background="new    " width="0.119" height="2.333"/>
	<rect x="46.167" y="0" fill="#C7A663" width="0.587" height="2.333"/>
	<rect x="46.167" y="0" opacity="0.7" fill="#999999" enable-background="new    " width="0.119" height="2.333"/>
	<rect x="46.636" y="0" opacity="0.7" fill="#4D4D4D" enable-background="new    " width="0.119" height="2.333"/>
	<rect x="38.967" y="0" fill="#C7A663" width="0.587" height="2.333"/>
	<rect x="38.967" y="0" opacity="0.7" fill="#999999" enable-background="new    " width="0.119" height="2.333"/>
	<rect x="39.436" y="0" opacity="0.7" fill="#4D4D4D" enable-background="new    " width="0.119" height="2.333"/>
	<rect x="31.767" y="0" fill="#C7A663" width="0.587" height="2.333"/>
	<rect x="31.767" y="0" opacity="0.7" fill="#999999" enable-background="new    " width="0.119" height="2.333"/>
	<rect x="32.235" y="0" opacity="0.7" fill="#4D4D4D" enable-background="new    " width="0.119" height="2.333"/>
	<rect x="114.567" y="0.588" fill="#7B6231" width="0.589" height="1.745"/>
	<rect x="114.567" y="0.588" opacity="0.7" fill="#999999" enable-background="new    " width="0.119" height="1.745"/>
	<rect x="115.037" y="0.588" opacity="0.7" fill="#4D4D4D" enable-background="new    " width="0.119" height="1.745"/>
	<rect x="107.369" y="0.588" fill="#7B6231" width="0.586" height="1.745"/>
	<rect x="107.369" y="0.588" opacity="0.7" fill="#999999" enable-background="new    " width="0.116" height="1.745"/>
	<rect x="107.838" y="0.588" opacity="0.7" fill="#4D4D4D" enable-background="new    " width="0.119" height="1.745"/>
	<rect x="100.168" y="0.588" fill="#7B6231" width="0.588" height="1.745"/>
	<rect x="100.168" y="0.588" opacity="0.7" fill="#999999" enable-background="new    " width="0.119" height="1.745"/>
	<rect x="100.638" y="0.588" opacity="0.7" fill="#4D4D4D" enable-background="new    " width="0.118" height="1.745"/>
	<rect x="92.969" y="0.588" fill="#7B6231" width="0.587" height="1.745"/>
	<rect x="92.969" y="0.588" opacity="0.7" fill="#999999" enable-background="new    " width="0.117" height="1.745"/>
	<rect x="93.438" y="0.588" opacity="0.7" fill="#4D4D4D" enable-background="new    " width="0.119" height="1.745"/>
	<rect x="85.769" y="0.588" fill="#7B6231" width="0.588" height="1.745"/>
	<rect x="85.769" y="0.588" opacity="0.7" fill="#999999" enable-background="new    " width="0.119" height="1.745"/>
	<rect x="86.235" y="0.588" opacity="0.7" fill="#4D4D4D" enable-background="new    " width="0.119" height="1.745"/>
	<rect x="78.567" y="0.588" fill="#7B6231" width="0.586" height="1.745"/>
	<rect x="78.567" y="0.588" opacity="0.7" fill="#999999" enable-background="new    " width="0.119" height="1.745"/>
	<rect x="79.037" y="0.588" opacity="0.7" fill="#4D4D4D" enable-background="new    " width="0.119" height="1.745"/>
	<rect x="71.368" y="0.588" fill="#7B6231" width="0.587" height="1.745"/>
	<rect x="71.368" y="0.588" opacity="0.7" fill="#999999" enable-background="new    " width="0.119" height="1.745"/>
	<rect x="71.836" y="0.588" opacity="0.7" fill="#4D4D4D" enable-background="new    " width="0.119" height="1.745"/>
	<rect x="64.167" y="0.588" fill="#7B6231" width="0.587" height="1.745"/>
	<rect x="64.167" y="0.588" opacity="0.7" fill="#999999" enable-background="new    " width="0.119" height="1.745"/>
	<rect x="64.636" y="0.588" opacity="0.7" fill="#4D4D4D" enable-background="new    " width="0.119" height="1.745"/>
	<rect x="56.967" y="0.588" fill="#7B6231" width="0.587" height="1.745"/>
	<rect x="56.967" y="0.588" opacity="0.7" fill="#999999" enable-background="new    " width="0.119" height="1.745"/>
	<rect x="57.436" y="0.588" opacity="0.7" fill="#4D4D4D" enable-background="new    " width="0.119" height="1.745"/>
	<rect x="49.767" y="0.588" fill="#7B6231" width="0.587" height="1.745"/>
	<rect x="49.767" y="0.588" opacity="0.7" fill="#999999" enable-background="new    " width="0.119" height="1.745"/>
	<rect x="50.236" y="0.588" opacity="0.7" fill="#4D4D4D" enable-background="new    " width="0.119" height="1.745"/>
	<rect x="42.567" y="0.588" fill="#7B6231" width="0.587" height="1.745"/>
	<rect x="42.567" y="0.588" opacity="0.7" fill="#999999" enable-background="new    " width="0.119" height="1.745"/>
	<rect x="43.036" y="0.588" opacity="0.7" fill="#4D4D4D" enable-background="new    " width="0.119" height="1.745"/>
	<rect x="35.367" y="0.588" fill="#7B6231" width="0.587" height="1.745"/>
	<rect x="35.367" y="0.588" opacity="0.7" fill="#999999" enable-background="new    " width="0.119" height="1.745"/>
	<rect x="35.835" y="0.588" opacity="0.7" fill="#4D4D4D" enable-background="new    " width="0.119" height="1.745"/>
	<g>
		<path fill="#CCCCCC" d="M7.101,27.833c-0.196,0-0.438-0.143-0.537-0.313l-3.118-5.398c-0.099-0.171-0.099-0.45,0-0.621
			l3.118-5.399c0.099-0.171,0.341-0.31,0.537-0.31h6.233c0.197,0,0.438,0.139,0.537,0.31l3.119,5.399
			c0.099,0.171,0.099,0.45,0,0.621l-3.119,5.398c-0.099,0.17-0.34,0.313-0.537,0.313H7.101z"/>
		<rect x="3.405" y="21.669" fill="#CCCCCC" width="13.658" height="4.464"/>
		<polygon opacity="0.65" fill="#999999" enable-background="new    " points="17.063,21.669 16.548,20.734 16.548,26.133 
			17.063,26.133 		"/>
		<polygon fill="#F2F2F2" points="3.888,20.734 3.371,21.669 3.371,26.133 3.888,26.133 		"/>
		<g>
			<path fill="#E6E6E6" d="M6.563,16.102l-0.492,0.853v4.858h1.244v-6.021H7.101C6.904,15.792,6.662,15.931,6.563,16.102z"/>
			<path fill="#E6E6E6" d="M13.871,16.102c-0.099-0.171-0.34-0.31-0.537-0.31h-0.46v6.021h1.244V16.53L13.871,16.102z"/>
			<path opacity="0.25" fill="#F2F2F2" enable-background="new    " d="M13.334,15.792H7.101c-0.129,0-0.263,0.069-0.377,0.158
				v0.219h6.951v-0.253C13.567,15.844,13.447,15.792,13.334,15.792z"/>
			<path opacity="0.53" fill="#E6E6E6" enable-background="new    " d="M6.563,16.102l-3.118,5.399
				c-0.067,0.117-0.071,0.276-0.047,0.426l3.325-5.746v-0.23C6.663,15.998,6.598,16.043,6.563,16.102z"/>
			<path fill="#F2F2F2" d="M6.563,16.102l-0.2,0.347v5.364h0.661v-5.998C6.845,15.844,6.649,15.952,6.563,16.102z"/>
			<path fill="#F2F2F2" d="M13.334,15.792h-0.169v6.021h0.661v-5.753C13.714,15.911,13.512,15.792,13.334,15.792z"/>
			<path opacity="0.53" fill="#808080" enable-background="new    " d="M17.046,21.889v-0.154c-0.008-0.07-0.02-0.14-0.047-0.197
				l-3.166-5.471c-0.041-0.057-0.095-0.107-0.158-0.15v0.265l3.352,5.792C17.033,21.944,17.043,21.918,17.046,21.889z"/>
		</g>
		<g>
			<path fill="#CCCCCC" d="M7.103,32.153c-0.197,0-0.44-0.141-0.541-0.312l-3.114-5.397c-0.101-0.171-0.101-0.45,0-0.623
				l3.114-5.396c0.101-0.171,0.344-0.313,0.541-0.313h6.229c0.198,0,0.441,0.143,0.541,0.313l3.115,5.396
				c0.101,0.173,0.101,0.452,0,0.623l-3.115,5.397c-0.1,0.171-0.343,0.312-0.541,0.312H7.103z"/>
		</g>
		<g>
			<path fill="#B3B3B3" d="M7.257,31.885c-0.197,0-0.439-0.141-0.541-0.313l-2.961-5.129c-0.1-0.171-0.1-0.45,0-0.623l2.961-5.13
				c0.102-0.171,0.344-0.312,0.541-0.312h5.922c0.198,0,0.441,0.141,0.541,0.312l2.961,5.13c0.101,0.173,0.101,0.452,0,0.623
				l-2.961,5.129c-0.1,0.173-0.343,0.313-0.541,0.313H7.257z"/>
		</g>
		<circle fill="#4D4D4D" cx="10.218" cy="26.133" r="4.846"/>
		<path fill="#808080" d="M10.218,26.853c-1.936,0-3.594-1.143-4.369-2.782c-0.297,0.627-0.478,1.321-0.478,2.063
			c0,2.677,2.17,4.846,4.847,4.846c2.676,0,4.846-2.169,4.846-4.846c0-0.741-0.18-1.437-0.477-2.063
			C13.81,25.71,12.153,26.853,10.218,26.853z"/>
	</g>
	<g>
		<path fill="#CCCCCC" d="M137.933,27.833c-0.196,0-0.438-0.143-0.537-0.313l-3.118-5.398c-0.099-0.171-0.099-0.45,0-0.621
			l3.118-5.399c0.099-0.171,0.341-0.31,0.537-0.31h6.233c0.197,0,0.438,0.139,0.537,0.31l3.119,5.399
			c0.099,0.171,0.099,0.45,0,0.621l-3.119,5.398c-0.099,0.17-0.34,0.313-0.537,0.313H137.933z"/>
		<rect x="134.237" y="21.669" fill="#CCCCCC" width="13.658" height="4.464"/>
		<polygon opacity="0.65" fill="#999999" enable-background="new    " points="147.896,21.669 147.38,20.734 147.38,26.133 
			147.896,26.133 		"/>
		<polygon fill="#F2F2F2" points="134.72,20.734 134.203,21.669 134.203,26.133 134.72,26.133 		"/>
		<g>
			<path fill="#E6E6E6" d="M137.396,16.102l-0.492,0.853v4.858h1.244v-6.021h-0.215C137.736,15.792,137.494,15.931,137.396,16.102z"
				/>
			<path fill="#E6E6E6" d="M144.703,16.102c-0.099-0.171-0.34-0.31-0.537-0.31h-0.46v6.021h1.244V16.53L144.703,16.102z"/>
			<path opacity="0.25" fill="#F2F2F2" enable-background="new    " d="M144.166,15.792h-6.233c-0.129,0-0.263,0.069-0.377,0.158
				v0.219h6.951v-0.253C144.399,15.844,144.279,15.792,144.166,15.792z"/>
			<path opacity="0.53" fill="#E6E6E6" enable-background="new    " d="M137.396,16.102l-3.118,5.399
				c-0.067,0.117-0.071,0.276-0.047,0.426l3.325-5.746v-0.23C137.495,15.998,137.43,16.043,137.396,16.102z"/>
			<path fill="#F2F2F2" d="M137.396,16.102l-0.2,0.347v5.364h0.661v-5.998C137.677,15.844,137.481,15.952,137.396,16.102z"/>
			<path fill="#F2F2F2" d="M144.166,15.792h-0.169v6.021h0.661v-5.753C144.546,15.911,144.344,15.792,144.166,15.792z"/>
			<path opacity="0.53" fill="#808080" enable-background="new    " d="M147.878,21.889v-0.154c-0.008-0.07-0.02-0.14-0.047-0.197
				l-3.166-5.471c-0.041-0.057-0.095-0.107-0.158-0.15v0.265l3.352,5.792C147.865,21.944,147.875,21.918,147.878,21.889z"/>
		</g>
		<g>
			<path fill="#CCCCCC" d="M137.935,32.153c-0.197,0-0.44-0.141-0.541-0.312l-3.114-5.397c-0.101-0.171-0.101-0.45,0-0.623
				l3.114-5.396c0.101-0.171,0.344-0.313,0.541-0.313h6.229c0.198,0,0.441,0.143,0.541,0.313l3.115,5.396
				c0.101,0.173,0.101,0.452,0,0.623l-3.115,5.397c-0.1,0.171-0.343,0.312-0.541,0.312H137.935z"/>
		</g>
		<g>
			<path fill="#B3B3B3" d="M138.089,31.885c-0.197,0-0.439-0.141-0.541-0.313l-2.961-5.129c-0.1-0.171-0.1-0.45,0-0.623l2.961-5.13
				c0.102-0.171,0.344-0.312,0.541-0.312h5.922c0.198,0,0.441,0.141,0.541,0.312l2.961,5.13c0.101,0.173,0.101,0.452,0,0.623
				l-2.961,5.129c-0.1,0.173-0.343,0.313-0.541,0.313H138.089z"/>
		</g>
		<circle fill="#4D4D4D" cx="141.05" cy="26.133" r="4.846"/>
		<path fill="#808080" d="M141.05,26.853c-1.936,0-3.594-1.143-4.369-2.782c-0.297,0.627-0.478,1.321-0.478,2.063
			c0,2.677,2.17,4.846,4.847,4.846c2.676,0,4.846-2.169,4.846-4.846c0-0.741-0.18-1.437-0.477-2.063
			C144.642,25.71,142.985,26.853,141.05,26.853z"/>
	</g>
</g>
</svg>
