<?xml version="1.0" encoding="utf-8"?>
<!-- Generator: Adobe Illustrator 15.1.0, SVG Export Plug-In . SVG Version: 6.00 Build 0)  -->
<!DOCTYPE svg PUBLIC "-//W3C//DTD SVG 1.1//EN" "http://www.w3.org/Graphics/SVG/1.1/DTD/svg11.dtd">
<svg version="1.1" id="Ebene_1" xmlns:svg="http://www.w3.org/2000/svg"
	 xmlns="http://www.w3.org/2000/svg" xmlns:xlink="http://www.w3.org/1999/xlink" x="0px" y="0px" width="70.016px"
	 height="25.881px" viewBox="0 0 70.016 25.881" enable-background="new 0 0 70.016 25.881" xml:space="preserve">
<path fill="#808080" d="M68.516,11.062v-0.17c0-0.5,0.673-0.906,1.5-0.906v-0.25c-0.827,0-1.5,0.406-1.5,0.906v0.17V11.062z"/>
<rect x="4.858" y="7.096" fill="#666666" width="60.386" height="18.776"/>
<rect x="5.038" y="25.521" fill="#CCCCCC" width="59.94" height="0.36"/>
<g>
	<g>
		<rect x="55.09" y="0.288" fill="#E1CC5F" width="0.991" height="4.96"/>
	</g>
	<g>
		<rect x="53.672" y="0.288" fill="#E1CC5F" width="0.991" height="4.96"/>
	</g>
	<g>
		<rect x="52.254" y="0.288" fill="#E1CC5F" width="0.991" height="4.96"/>
	</g>
	<g>
		<rect x="50.836" y="0.288" fill="#E1CC5F" width="0.991" height="4.96"/>
	</g>
	<g>
		<rect x="49.418" y="0.288" fill="#E1CC5F" width="0.991" height="4.96"/>
	</g>
	<g>
		<rect x="48" y="0.288" fill="#E1CC5F" width="0.991" height="4.96"/>
	</g>
	<g>
		<rect x="46.582" y="0.288" fill="#E1CC5F" width="0.991" height="4.96"/>
	</g>
	<g>
		<rect x="45.164" y="0.288" fill="#E1CC5F" width="0.99" height="4.96"/>
	</g>
	<g>
		<rect x="43.746" y="0.288" fill="#E1CC5F" width="0.99" height="4.96"/>
	</g>
	<g>
		<rect x="42.328" y="0.288" fill="#E1CC5F" width="0.99" height="4.96"/>
	</g>
	<g>
		<rect x="40.91" y="0.288" fill="#E1CC5F" width="0.99" height="4.96"/>
	</g>
	<g>
		<rect x="39.492" y="0.288" fill="#E1CC5F" width="0.99" height="4.96"/>
	</g>
	<g>
		<rect x="38.074" y="0.288" fill="#E1CC5F" width="0.99" height="4.96"/>
	</g>
	<g>
		<rect x="36.656" y="0.288" fill="#E1CC5F" width="0.991" height="4.96"/>
	</g>
	<g>
		<rect x="35.238" y="0.288" fill="#E1CC5F" width="0.992" height="4.96"/>
	</g>
	<g>
		<rect x="33.819" y="0.288" fill="#E1CC5F" width="0.992" height="4.96"/>
	</g>
	<g>
		<rect x="32.401" y="0.288" fill="#E1CC5F" width="0.992" height="4.96"/>
	</g>
	<g>
		<rect x="30.982" y="0.288" fill="#E1CC5F" width="0.992" height="4.96"/>
	</g>
	<g>
		<rect x="29.564" y="0.288" fill="#E1CC5F" width="0.992" height="4.96"/>
	</g>
	<g>
		<rect x="28.146" y="0.288" fill="#E1CC5F" width="0.992" height="4.96"/>
	</g>
	<g>
		<rect x="26.727" y="0.288" fill="#E1CC5F" width="0.992" height="4.96"/>
	</g>
	<g>
		<rect x="25.309" y="0.288" fill="#E1CC5F" width="0.992" height="4.96"/>
	</g>
	<g>
		<rect x="23.89" y="0.288" fill="#E1CC5F" width="0.992" height="4.96"/>
	</g>
	<g>
		<rect x="22.472" y="0.288" fill="#E1CC5F" width="0.992" height="4.96"/>
	</g>
	<g>
		<rect x="21.053" y="0.288" fill="#E1CC5F" width="0.992" height="4.96"/>
	</g>
	<g>
		<rect x="19.635" y="0.288" fill="#E1CC5F" width="0.992" height="4.96"/>
	</g>
	<g>
		<rect x="18.216" y="0.288" fill="#E1CC5F" width="0.992" height="4.96"/>
	</g>
	<g>
		<rect x="16.798" y="0.288" fill="#E1CC5F" width="0.992" height="4.96"/>
	</g>
	<g>
		<rect x="15.379" y="0.288" fill="#E1CC5F" width="0.992" height="4.96"/>
	</g>
	<g>
		<rect x="13.961" y="0.288" fill="#E1CC5F" width="0.992" height="4.96"/>
	</g>
</g>
<g>
	<g>
		<rect x="55.09" y="2.768" fill="#E1C639" width="0.991" height="2.48"/>
	</g>
	<g>
		<rect x="53.672" y="2.768" fill="#E1C639" width="0.991" height="2.48"/>
	</g>
	<g>
		<rect x="52.254" y="2.768" fill="#E1C639" width="0.991" height="2.48"/>
	</g>
	<g>
		<rect x="50.836" y="2.768" fill="#E1C639" width="0.991" height="2.48"/>
	</g>
	<g>
		<rect x="49.418" y="2.768" fill="#E1C639" width="0.991" height="2.48"/>
	</g>
	<g>
		<rect x="48" y="2.768" fill="#E1C639" width="0.991" height="2.48"/>
	</g>
	<g>
		<rect x="46.582" y="2.768" fill="#E1C639" width="0.991" height="2.48"/>
	</g>
	<g>
		<rect x="45.164" y="2.768" fill="#E1C639" width="0.99" height="2.48"/>
	</g>
	<g>
		<rect x="43.746" y="2.768" fill="#E1C639" width="0.99" height="2.48"/>
	</g>
	<g>
		<rect x="42.328" y="2.768" fill="#E1C639" width="0.99" height="2.48"/>
	</g>
	<g>
		<rect x="40.91" y="2.768" fill="#E1C639" width="0.99" height="2.48"/>
	</g>
	<g>
		<rect x="39.492" y="2.768" fill="#E1C639" width="0.99" height="2.48"/>
	</g>
	<g>
		<rect x="38.074" y="2.768" fill="#E1C639" width="0.99" height="2.48"/>
	</g>
	<g>
		<rect x="36.656" y="2.768" fill="#E1C639" width="0.991" height="2.48"/>
	</g>
	<g>
		<rect x="35.238" y="2.768" fill="#E1C639" width="0.992" height="2.48"/>
	</g>
	<g>
		<rect x="33.819" y="2.768" fill="#E1C639" width="0.992" height="2.48"/>
	</g>
	<g>
		<rect x="32.401" y="2.768" fill="#E1C639" width="0.992" height="2.48"/>
	</g>
	<g>
		<rect x="30.982" y="2.768" fill="#E1C639" width="0.992" height="2.48"/>
	</g>
	<g>
		<rect x="29.564" y="2.768" fill="#E1C639" width="0.992" height="2.48"/>
	</g>
	<g>
		<rect x="28.146" y="2.768" fill="#E1C639" width="0.992" height="2.48"/>
	</g>
	<g>
		<rect x="26.727" y="2.768" fill="#E1C639" width="0.992" height="2.48"/>
	</g>
	<g>
		<rect x="25.309" y="2.768" fill="#E1C639" width="0.992" height="2.48"/>
	</g>
	<g>
		<rect x="23.89" y="2.768" fill="#E1C639" width="0.992" height="2.48"/>
	</g>
	<g>
		<rect x="22.472" y="2.768" fill="#E1C639" width="0.992" height="2.48"/>
	</g>
	<g>
		<rect x="21.053" y="2.768" fill="#E1C639" width="0.992" height="2.48"/>
	</g>
	<g>
		<rect x="19.635" y="2.768" fill="#E1C639" width="0.992" height="2.48"/>
	</g>
	<g>
		<rect x="18.216" y="2.768" fill="#E1C639" width="0.992" height="2.48"/>
	</g>
	<g>
		<rect x="16.798" y="2.768" fill="#E1C639" width="0.992" height="2.48"/>
	</g>
	<g>
		<rect x="15.379" y="2.768" fill="#E1C639" width="0.992" height="2.48"/>
	</g>
	<g>
		<rect x="13.961" y="2.768" fill="#E1C639" width="0.992" height="2.48"/>
	</g>
</g>
<path fill="#E6E6E6" d="M4.678,4.217v17.15h60.66V4.217H4.678z M10.87,19.552H9.07V8.901h1.801V19.552z M60.945,19.552h-1.8V8.901
	h1.8V19.552z"/>
<rect x="8.664" y="9.603" fill="#E6E6E6" width="1.318" height="9.07"/>
<rect x="9.623" y="9.603" fill="#CCCCCC" width="0.359" height="9.07"/>
<rect x="9.803" y="9.603" fill="#B3B3B3" width="0.18" height="9.07"/>
<rect x="60.021" y="9.603" fill="#E6E6E6" width="1.112" height="9.07"/>
<rect x="9.07" y="18.673" fill="#B3B3B3" width="0.913" height="0.144"/>
<rect x="60.021" y="18.673" fill="#B3B3B3" width="0.913" height="0.144"/>
<rect x="60.021" y="9.603" fill="#CCCCCC" width="0.36" height="9.07"/>
<rect x="60.021" y="9.603" fill="#B3B3B3" width="0.181" height="9.07"/>
<g>
	<rect x="12.748" y="23.542" fill="#666666" width="44.094" height="1.275"/>
	<rect x="12.748" y="21.546" width="44.094" height="1.995"/>
	<polygon fill="#1A1A1A" points="14.522,24.81 14.522,24.44 14.745,24.44 14.745,24.81 15.902,24.81 15.902,24.44 16.125,24.44 
		16.125,24.81 17.282,24.81 17.282,24.44 17.506,24.44 17.506,24.81 18.664,24.81 18.664,24.44 18.885,24.44 18.885,24.81 
		20.046,24.81 20.046,24.44 20.267,24.44 20.267,24.81 21.426,24.81 21.426,24.44 21.647,24.44 21.647,24.81 22.806,24.81 
		22.806,24.44 23.026,24.44 23.026,24.81 24.188,24.81 24.188,24.44 24.409,24.44 24.409,24.81 25.567,24.81 25.567,24.44 
		25.788,24.44 25.788,24.81 26.947,24.81 26.947,24.44 27.17,24.44 27.17,24.81 28.328,24.81 28.328,24.44 28.551,24.44 
		28.551,24.81 29.709,24.81 29.709,24.44 29.93,24.44 29.93,24.81 31.089,24.81 31.089,24.44 31.311,24.44 31.311,24.81 
		32.47,24.81 32.47,24.44 32.691,24.44 32.691,24.81 33.851,24.81 33.851,24.44 34.072,24.44 34.072,24.81 35.231,24.81 
		35.231,24.44 35.452,24.44 35.452,24.81 36.61,24.81 36.61,24.44 36.832,24.44 36.832,24.81 37.991,24.81 37.991,24.44 
		38.213,24.44 38.213,24.81 39.372,24.81 39.372,24.44 39.594,24.44 39.594,24.81 40.752,24.81 40.752,24.44 40.975,24.44 
		40.975,24.81 42.133,24.81 42.133,24.44 42.355,24.44 42.355,24.81 43.513,24.81 43.513,24.44 43.735,24.44 43.735,24.81 
		44.894,24.81 44.894,24.44 45.116,24.44 45.116,24.81 46.273,24.81 46.273,24.44 46.496,24.44 46.496,24.81 47.655,24.81 
		47.655,24.44 47.877,24.44 47.877,24.81 49.035,24.81 49.035,24.44 49.258,24.44 49.258,24.81 50.416,24.81 50.416,24.44 
		50.638,24.44 50.638,24.81 51.796,24.81 51.796,24.44 52.019,24.44 52.019,24.81 53.177,24.81 53.177,24.44 53.399,24.44 
		53.399,24.81 54.557,24.81 54.557,24.44 54.779,24.44 54.779,24.81 56.842,24.81 56.842,23.504 12.748,23.504 12.748,24.81 	"/>
	<polygon fill="#333333" points="14.522,24.81 14.522,23.899 14.745,23.899 14.745,24.81 15.902,24.81 15.902,23.899 16.125,23.899 
		16.125,24.81 17.282,24.81 17.282,23.899 17.506,23.899 17.506,24.81 18.664,24.81 18.664,23.899 18.885,23.899 18.885,24.81 
		20.046,24.81 20.046,23.899 20.267,23.899 20.267,24.81 21.426,24.81 21.426,23.899 21.647,23.899 21.647,24.81 22.806,24.81 
		22.806,23.899 23.026,23.899 23.026,24.81 24.188,24.81 24.188,23.899 24.409,23.899 24.409,24.81 25.567,24.81 25.567,23.899 
		25.788,23.899 25.788,24.81 26.947,24.81 26.947,23.899 27.17,23.899 27.17,24.81 28.328,24.81 28.328,23.899 28.551,23.899 
		28.551,24.81 29.709,24.81 29.709,23.899 29.93,23.899 29.93,24.81 31.089,24.81 31.089,23.899 31.311,23.899 31.311,24.81 
		32.47,24.81 32.47,23.899 32.691,23.899 32.691,24.81 33.851,24.81 33.851,23.899 34.072,23.899 34.072,24.81 35.231,24.81 
		35.231,23.899 35.452,23.899 35.452,24.81 36.61,24.81 36.61,23.899 36.832,23.899 36.832,24.81 37.991,24.81 37.991,23.899 
		38.213,23.899 38.213,24.81 39.372,24.81 39.372,23.899 39.594,23.899 39.594,24.81 40.752,24.81 40.752,23.899 40.975,23.899 
		40.975,24.81 42.133,24.81 42.133,23.899 42.355,23.899 42.355,24.81 43.513,24.81 43.513,23.899 43.735,23.899 43.735,24.81 
		44.894,24.81 44.894,23.899 45.116,23.899 45.116,24.81 46.273,24.81 46.273,23.899 46.496,23.899 46.496,24.81 47.655,24.81 
		47.655,23.899 47.877,23.899 47.877,24.81 49.035,24.81 49.035,23.899 49.258,23.899 49.258,24.81 50.416,24.81 50.416,23.899 
		50.638,23.899 50.638,24.81 51.796,24.81 51.796,23.899 52.019,23.899 52.019,24.81 53.177,24.81 53.177,23.899 53.399,23.899 
		53.399,24.81 54.557,24.81 54.557,23.899 54.779,23.899 54.779,24.81 56.842,24.81 56.842,23.504 12.748,23.504 12.748,24.81 	"/>
</g>
<rect x="4.678" y="21.728" fill="#CCCCCC" width="0.36" height="4.145"/>
<rect x="64.979" y="21.728" fill="#CCCCCC" width="0.359" height="4.145"/>
<rect x="4.678" y="21.367" fill="#CCCCCC" width="60.66" height="0.36"/>
<path fill="#CCCCCC" d="M63.008,25.418V24.61c0-0.25,0.191-0.453,0.426-0.453c0,0,0.935,0,1.185,0s0.219-0.538,0.219-0.538h-2.703
	v1.901h0.895C63.02,25.487,63.008,25.455,63.008,25.418z"/>
<path fill="#CCCCCC" d="M6.976,24.61c0-0.25-0.19-0.453-0.426-0.453c0,0-0.934,0-1.184,0s-0.22-0.538-0.22-0.538H7.85v1.901H6.956
	C6.964,25.487,6.976,24.61,6.976,24.61z"/>
<path fill="#B3B3B3" d="M5.147,23.8c0,0-0.03,0.538,0.22,0.538s1.184,0,1.184,0c0.235,0,0.426,0.203,0.426,0.453V24.61
	c0-0.25-0.19-0.453-0.426-0.453c0,0-0.934,0-1.184,0s-0.22-0.538-0.22-0.538V23.8z"/>
<path fill="#B3B3B3" d="M64.837,23.619c0,0,0.03,0.538-0.22,0.538s-1.184,0-1.184,0c-0.235,0-0.426,0.203-0.426,0.453v0.181
	c0-0.25,0.19-0.453,0.426-0.453c0,0,0.934,0,1.184,0s0.22-0.538,0.22-0.538V23.619z"/>
<path fill="#999999" d="M68.516,10.812v-0.17c0-0.5,0.673-0.906,1.5-0.906V7.822h-4.678v5.811h4.678v-1.915
	C69.188,11.718,68.516,11.313,68.516,10.812z"/>
<path fill="#999999" d="M0,7.822v1.914c0.827,0,1.5,0.406,1.5,0.906v0.17c0,0.501-0.673,0.906-1.5,0.906v1.915h4.678V7.822H0z"/>
<path fill="#808080" d="M4.678,13.784H0v-0.151h4.678V13.784z"/>
<path fill="#808080" d="M70.016,13.784h-4.678v-0.151h4.678V13.784z"/>
<g>
	<rect x="4.008" y="7.822" fill="#B3B3B3" width="0.67" height="5.811"/>
	<rect x="4.221" y="7.822" fill="#CCCCCC" width="0.457" height="5.811"/>
	<rect x="4.449" y="7.822" fill="#E6E6E6" width="0.229" height="5.811"/>
</g>
<g>
	<rect x="65.349" y="7.822" fill="#B3B3B3" width="0.67" height="5.812"/>
	<rect x="65.349" y="7.822" fill="#CCCCCC" width="0.443" height="5.812"/>
	<rect x="65.349" y="7.822" fill="#E6E6E6" width="0.222" height="5.812"/>
</g>
<polygon opacity="0.2" fill="#FFFFFF" points="64.74,4.815 4.678,4.815 4.678,4.217 65.349,4.217 "/>
<rect x="4.678" y="4.815" opacity="0.2" fill="#FFFFFF" width="0.599" height="16.552"/>
<rect x="8.771" y="8.901" opacity="0.3" fill="#FFFFFF" width="0.299" height="10.651"/>
<rect x="10.87" y="8.901" opacity="0.3" fill="#FFFFFF" width="0.299" height="10.651"/>
<rect x="58.845" y="8.901" opacity="0.3" fill="#FFFFFF" width="0.299" height="10.651"/>
<rect x="60.945" y="8.901" opacity="0.3" fill="#FFFFFF" width="0.299" height="10.651"/>
<polygon opacity="0.2" fill="#999999" points="64.74,21.367 64.74,4.815 65.338,4.217 65.338,21.367 "/>
<path fill="#808080" d="M1.5,10.798v-0.17c0-0.5-0.673-0.906-1.5-0.906v0.25c0.827,0,1.5,0.406,1.5,0.906v0.17V10.798z"/>
<rect x="9.07" y="8.901" fill="#CCCCCC" width="1.801" height="0.248"/>
<rect x="59.145" y="8.901" fill="#CCCCCC" width="1.8" height="0.248"/>
<rect x="0" y="7.822" opacity="0.2" fill="#F2F2F2" width="4.678" height="0.369"/>
<rect x="65.338" y="7.822" opacity="0.2" fill="#F2F2F2" width="4.678" height="0.369"/>
</svg>
