<?xml version="1.0" encoding="utf-8"?>
<!-- Generator: Adobe Illustrator 15.1.0, SVG Export Plug-In . SVG Version: 6.00 Build 0)  -->
<!DOCTYPE svg PUBLIC "-//W3C//DTD SVG 1.1//EN" "http://www.w3.org/Graphics/SVG/1.1/DTD/svg11.dtd">
<svg version="1.1" id="Ebene_1" xmlns:svg="http://www.w3.org/2000/svg"
	 xmlns="http://www.w3.org/2000/svg" xmlns:xlink="http://www.w3.org/1999/xlink" x="0px" y="0px" width="53.834px"
	 height="16.673px" viewBox="0 0 53.834 16.673" enable-background="new 0 0 53.834 16.673" xml:space="preserve">
<path fill="#E6E6E6" d="M53.834,2.16c0-1.188-0.972-2.16-2.16-2.16H2.16C0.972,0,0,0.972,0,2.16v0.967v2.379v2.869
	c0-1.188,0.972-2.16,2.16-2.16h49.514c1.123,0,2.041,0.87,2.141,1.968V5.664c0.006-0.054,0.02-0.092,0.02-0.158V2.16z"/>
<g>
	<path fill="#B3B3B3" d="M53.834,8.375c0-1.188-0.972-2.16-2.16-2.16H2.16C0.972,6.215,0,7.187,0,8.375v3.346
		c0,1.188,0.972,2.16,2.16,2.16h49.514c1.188,0,2.16-0.972,2.16-2.16V8.375z"/>
	<path fill="#999999" d="M0,11.43c0,1.188,0.972,2.16,2.16,2.16h49.514c1.188,0,2.16-0.972,2.16-2.16v0.291
		c0,1.188-0.972,2.16-2.16,2.16H2.16c-1.188,0-2.16-0.972-2.16-2.16V11.43z"/>
	<path opacity="0.52" fill="#E6E6E6" d="M53.834,8.666c0-1.188-0.972-2.16-2.16-2.16H2.16C0.972,6.506,0,7.478,0,8.666V8.375
		c0-1.188,0.972-2.16,2.16-2.16h49.514c1.188,0,2.16,0.972,2.16,2.16V8.666z"/>
	<g>
		<polygon fill="#666666" points="52.386,11.583 51.73,12.653 51.73,11.299 52.386,11.299 		"/>
		<polyline fill="#CCCCCC" points="51.73,11.054 52.386,11.299 51.73,12.367 		"/>
	</g>
	<rect x="2.105" y="8.365" fill="#E6E6E6" width="49.625" height="5.465"/>
	<g>
		<rect x="4.563" y="13.298" fill="#1A1A1A" width="44.768" height="2.375"/>
	</g>
	<polygon fill="#808080" points="47.212,14.481 47.212,15.398 46.988,15.398 46.988,14.481 45.822,14.481 45.822,15.398 
		45.597,15.398 45.597,14.481 44.43,14.481 44.43,15.398 44.205,15.398 44.205,14.481 43.038,14.481 43.038,15.398 42.815,15.398 
		42.815,14.481 41.646,14.481 41.646,15.398 41.423,15.398 41.423,14.481 40.255,14.481 40.255,15.398 40.031,15.398 40.031,14.481 
		38.864,14.481 38.864,15.398 38.641,15.398 38.641,14.481 37.472,14.481 37.472,15.398 37.248,15.398 37.248,14.481 36.081,14.481 
		36.081,15.398 35.858,15.398 35.858,14.481 34.691,14.481 34.691,15.398 34.466,15.398 34.466,14.481 33.299,14.481 33.299,15.398 
		33.074,15.398 33.074,14.481 31.907,14.481 31.907,15.398 31.684,15.398 31.684,14.481 30.517,14.481 30.517,15.398 30.293,15.398 
		30.293,14.481 29.125,14.481 29.125,15.398 28.902,15.398 28.902,14.481 27.734,14.481 27.734,15.398 27.51,15.398 27.51,14.481 
		26.342,14.481 26.342,15.398 26.119,15.398 26.119,14.481 24.952,14.481 24.952,15.398 24.728,15.398 24.728,14.481 23.56,14.481 
		23.56,15.398 23.337,15.398 23.337,14.481 22.169,14.481 22.169,15.398 21.945,15.398 21.945,14.481 20.778,14.481 20.778,15.398 
		20.553,15.398 20.553,14.481 19.386,14.481 19.386,15.398 19.162,15.398 19.162,14.481 17.995,14.481 17.995,15.398 17.771,15.398 
		17.771,14.481 16.604,14.481 16.604,15.398 16.38,15.398 16.38,14.481 15.213,14.481 15.213,15.398 14.989,15.398 14.989,14.481 
		13.821,14.481 13.821,15.398 13.597,15.398 13.597,14.481 12.43,14.481 12.43,15.398 12.206,15.398 12.206,14.481 11.038,14.481 
		11.038,15.398 10.815,15.398 10.815,14.481 9.648,14.481 9.648,15.398 9.424,15.398 9.424,14.481 8.256,14.481 8.256,15.398 
		8.032,15.398 8.032,14.481 6.865,14.481 6.865,15.398 6.641,15.398 6.641,14.481 4.563,14.481 4.563,16.494 49,16.494 49,14.481 	
		"/>
	<rect x="3.917" y="11.097" fill="#B3B3B3" width="0.416" height="2.493"/>
	<rect x="49.501" y="11.097" fill="#B3B3B3" width="0.416" height="2.493"/>
	<rect x="3.917" y="11.097" fill="#999999" width="0.416" height="0.292"/>
	<rect x="49.501" y="11.097" fill="#999999" width="0.416" height="0.292"/>
	<g>
		<g>
			<g>
				<g>
					<path fill="#CCCCCC" d="M47.258,10.405c0-0.079,0.049-0.144,0.108-0.144s0.108,0.064,0.108,0.144v1.747
						c0,0.079-0.049,0.144-0.108,0.144s-0.108-0.064-0.108-0.144V10.405z"/>
				</g>
			</g>
			<g>
				<g>
					<path fill="#CCCCCC" d="M46.321,10.405c0-0.079,0.049-0.144,0.108-0.144s0.108,0.064,0.108,0.144v1.747
						c0,0.079-0.049,0.144-0.108,0.144s-0.108-0.064-0.108-0.144V10.405z"/>
				</g>
			</g>
		</g>
		<g>
			<g>
				<g>
					<path fill="#CCCCCC" d="M7.297,10.405c0-0.079,0.049-0.144,0.108-0.144s0.108,0.064,0.108,0.144v1.747
						c0,0.079-0.049,0.144-0.108,0.144s-0.108-0.064-0.108-0.144V10.405z"/>
				</g>
			</g>
			<g>
				<g>
					<path fill="#CCCCCC" d="M6.359,10.405c0-0.079,0.049-0.144,0.108-0.144s0.108,0.064,0.108,0.144v1.747
						c0,0.079-0.049,0.144-0.108,0.144s-0.108-0.064-0.108-0.144V10.405z"/>
				</g>
			</g>
		</g>
	</g>
	<path fill="#CCCCCC" d="M49.917,12.986v0.604h-0.416v-0.604H4.333v0.604H3.917v-0.604H2.105v2.688h1.087
		c0.159,0,0.288,0.13,0.288,0.288v0.712h46.867l0.008-0.712c0-0.158,0.129-0.288,0.288-0.288h1.087v-2.688H49.917z M4.87,16.33
		v-3.032h44.094v3.032H4.87z"/>
	<g>
		<rect x="48.625" y="16.315" fill="#808080" width="0.339" height="0.358"/>
		<rect x="48.625" y="12.986" fill="#808080" width="0.339" height="0.313"/>
	</g>
	<g>
		<rect x="4.867" y="16.315" fill="#808080" width="0.339" height="0.358"/>
		<rect x="4.867" y="12.986" fill="#808080" width="0.339" height="0.313"/>
	</g>
</g>
<polygon opacity="0.2" fill="#FFFFFF" points="51.73,8.365 2.105,8.365 2.105,8.727 51.422,8.727 "/>
<polygon opacity="0.2" fill="#FFFFFF" points="2.452,12.999 2.452,8.727 2.105,8.727 2.105,12.971 "/>
<rect x="3.709" y="11.097" opacity="0.2" fill="#FFFFFF" width="0.208" height="1.889"/>
<rect x="49.279" y="11.097" opacity="0.2" fill="#FFFFFF" width="0.209" height="1.889"/>
<g>
	<polygon fill="#666666" points="1.448,11.583 2.105,12.653 2.105,11.299 1.448,11.299 	"/>
	<polyline fill="#CCCCCC" points="2.105,11.054 1.448,11.299 2.105,12.367 	"/>
</g>
<polygon opacity="0.2" fill="#999999" points="51.422,12.986 51.73,12.986 51.73,8.365 51.422,8.727 "/>
<rect x="51.422" y="12.986" opacity="0.2" fill="#999999" width="0.308" height="2.688"/>
<rect x="3.473" y="16.529" opacity="0.2" fill="#999999" width="46.829" height="0.144"/>
<g>
	<defs>
		<path id="SVGID_1_" d="M53.834,2.16c0-1.188-0.972-2.16-2.16-2.16H2.16C0.972,0,0,0.972,0,2.16v0.967v2.379v2.869
			c0-1.188,0.972-2.16,2.16-2.16h49.514c1.123,0,2.041,0.87,2.141,1.968V5.664c0.006-0.054,0.02-0.092,0.02-0.158V2.16z"/>
	</defs>
	<clipPath id="SVGID_2_">
		<use xlink:href="#SVGID_1_"  overflow="visible"/>
	</clipPath>
	<rect x="0" y="0" opacity="0.2" clip-path="url(#SVGID_2_)" fill="#FFFFFF" width="0.813" height="8.002"/>
	<rect x="0" y="0" opacity="0.2" clip-path="url(#SVGID_2_)" fill="#FFFFFF" width="1.757" height="8.002"/>
	<rect x="1.757" y="0" opacity="0.2" clip-path="url(#SVGID_2_)" fill="#FFFFFF" width="50.302" height="0.398"/>
	<rect x="53.002" y="0" opacity="0.2" clip-path="url(#SVGID_2_)" fill="#999999" width="0.813" height="8.002"/>
	<rect x="52.059" y="0" opacity="0.2" clip-path="url(#SVGID_2_)" fill="#999999" width="1.756" height="8.002"/>
</g>
</svg>
