<?xml version="1.0" encoding="utf-8"?>
<!-- Generator: Adobe Illustrator 15.1.0, SVG Export Plug-In . SVG Version: 6.00 Build 0)  -->
<!DOCTYPE svg PUBLIC "-//W3C//DTD SVG 1.1//EN" "http://www.w3.org/Graphics/SVG/1.1/DTD/svg11.dtd">
<svg version="1.1" xmlns="http://www.w3.org/2000/svg" xmlns:xlink="http://www.w3.org/1999/xlink" x="0px" y="0px"
	 width="35.149px" height="26.511px" viewBox="0 0 35.149 26.511" enable-background="new 0 0 35.149 26.511" xml:space="preserve">
<g id="Ebene_2">
	<g id="copper1">
		<rect id="connector0pad" x="24.661" fill="#B3B3B3" width="2.835" height="13.039"/>
		<rect id="connector1pad" x="18.992" fill="#B3B3B3" width="2.835" height="13.039"/>
		<rect id="connector2pad" x="13.322" fill="#B3B3B3" width="2.834" height="13.039"/>
		<rect id="connector3pad" x="7.652" fill="#B3B3B3" width="2.835" height="13.039"/>
		<rect id="connector3pad_1_" x="7.653" fill="#E6E6E6" width="0.425" height="13.039"/>
		<rect id="connector3pad_2_" x="13.251" fill="#E6E6E6" width="0.425" height="13.039"/>
		<rect id="connector3pad_3_" x="18.993" fill="#E6E6E6" width="0.425" height="13.039"/>
		<rect id="connector3pad_4_" x="24.661" fill="#E6E6E6" width="0.425" height="13.039"/>
		<g id="copper0">
		</g>
	</g>
</g>
<g id="Ebene_1" xmlns:svg="http://www.w3.org/2000/svg">
	<rect y="12.005" fill="#808080" width="35.149" height="8.844"/>
	<rect x="2.268" y="15.752" fill="#808080" width="30.614" height="8.94"/>
	<polygon opacity="0.34" fill="#1A1A1A" points="3.699,24.672 9.694,24.672 16.783,17.005 3.699,17.005 	"/>
	<g>
		<g>
			<rect x="24.58" y="14.5" fill="#999999" width="0.875" height="6.803"/>
		</g>
		<g>
			<rect x="17.137" y="14.5" fill="#999999" width="0.875" height="6.803"/>
		</g>
		<g>
			<rect x="9.694" y="14.5" fill="#999999" width="0.875" height="6.803"/>
		</g>
	</g>
	<polygon fill="#CCCCCC" points="0,2 0,14.5 2.268,14.5 2.268,17.005 12.481,17.005 22.668,17.005 32.881,17.005 32.881,14.5 
		35.149,14.5 35.149,2 	"/>
	<rect x="4.535" y="2" fill="#999999" width="2.125" height="8.255"/>
	<rect x="6.242" y="2" opacity="0.34" fill="#FFFFFF" width="0.418" height="8.255"/>
	<rect x="28.489" y="2" fill="#999999" width="2.125" height="8.253"/>
	<rect x="30.196" y="2" opacity="0.34" fill="#FFFFFF" width="0.418" height="8.255"/>
	<rect x="4.535" y="14.5" fill="#E6E6E6" width="2.125" height="2.506"/>
	<rect x="28.489" y="14.5" fill="#E6E6E6" width="2.125" height="2.506"/>
	<rect x="4.535" y="15.464" fill="#999999" width="2.125" height="1.541"/>
	<rect x="28.489" y="15.464" fill="#999999" width="2.125" height="1.541"/>
	<rect x="2.268" y="24.693" fill="#E6E6E6" width="30.614" height="1.818"/>
	<rect x="31.45" y="17.005" fill="#E6E6E6" width="1.432" height="7.688"/>
	<rect x="2.268" y="17.005" fill="#E6E6E6" width="1.432" height="7.688"/>
	<g>
		<g>
			<rect x="27.072" y="20.259" fill="#E6E6E6" width="1.417" height="1.418"/>
			<rect x="27.072" y="15.441" fill="#CCCCCC" width="1.417" height="4.818"/>
		</g>
		<g>
			<rect x="20.268" y="20.259" fill="#E6E6E6" width="1.417" height="1.418"/>
			<rect x="20.268" y="15.441" fill="#CCCCCC" width="1.417" height="4.818"/>
		</g>
		<g>
			<rect x="13.464" y="20.259" fill="#E6E6E6" width="1.417" height="1.418"/>
			<rect x="13.464" y="15.441" fill="#CCCCCC" width="1.417" height="4.818"/>
		</g>
		<g>
			<rect x="6.66" y="20.259" fill="#E6E6E6" width="1.417" height="1.418"/>
			<rect x="6.66" y="15.441" fill="#CCCCCC" width="1.417" height="4.818"/>
		</g>
	</g>
	<polygon fill="#E6E6E6" points="2.268,16.441 2.268,17.947 12.481,17.947 12.481,16.947 22.668,16.947 22.668,17.947 
		32.881,17.947 32.881,16.441 	"/>
	<rect y="14.5" fill="#E6E6E6" width="2.268" height="1.941"/>
	<rect x="32.881" y="14.5" fill="#E6E6E6" width="2.268" height="1.941"/>
	<rect x="1.134" y="20.849" fill="#B3B3B3" width="1.134" height="4.753"/>
	<rect x="32.881" y="20.849" fill="#B3B3B3" width="1.133" height="4.753"/>
	<g>
		<rect x="32.881" y="20.849" fill="#E6E6E6" width="2.268" height="0.906"/>
		<rect x="34.015" y="21.755" fill="#E6E6E6" width="1.134" height="2.938"/>
	</g>
	<g>
		<rect y="20.849" fill="#E6E6E6" width="2.268" height="0.906"/>
		<rect y="21.755" fill="#E6E6E6" width="1.134" height="2.938"/>
	</g>
	<rect y="2" opacity="0.34" fill="#FFFFFF" width="0.567" height="12.5"/>
	<rect x="34.583" y="2" opacity="0.34" fill="#333333" width="0.567" height="12.5"/>
	<rect x="32.881" y="14.491" opacity="0.34" fill="#333333" width="0.567" height="1.948"/>
	<rect x="32.881" y="20.849" opacity="0.34" fill="#333333" width="0.567" height="0.906"/>
	<rect x="34.014" y="21.755" opacity="0.34" fill="#333333" width="0.567" height="2.917"/>
	<rect x="6.242" y="15.464" opacity="0.34" fill="#FFFFFF" width="0.418" height="0.977"/>
	<rect x="30.196" y="15.464" opacity="0.34" fill="#FFFFFF" width="0.418" height="0.977"/>
</g>
</svg>
