<?xml version="1.0" encoding="utf-8"?>
<!-- Generator: Adobe Illustrator 15.0.1, SVG Export Plug-In . SVG Version: 6.00 Build 0)  -->
<!DOCTYPE svg PUBLIC "-//W3C//DTD SVG 1.1//EN" "http://www.w3.org/Graphics/SVG/1.1/DTD/svg11.dtd">
<svg version="1.1" id="Ebene_1" xmlns="http://www.w3.org/2000/svg" xmlns:xlink="http://www.w3.org/1999/xlink" x="0px" y="0px"
	 width="44.023px" height="3.978px" viewBox="0 0 44.023 3.978" enable-background="new 0 0 44.023 3.978" xml:space="preserve">
<g id="logo_snoot_txt_h1.7" transform="matrix(1, 0, 0, 1, 159.44, 220.785)">
	<g id="layer1" transform="matrix(1, 0, 0, 1, -408.281, -819.374)">
		<g id="g3037" transform="matrix(1.25, 0, 0, -1.25, 433.928, 821.549)">
			<path id="path3039" fill="#FFFFFF" d="M-143.56,178.333h1.479l1.794-2.263h0.009v2.263h0.955v-3.114h-1.48l-1.792,2.261h-0.009
				v-2.261h-0.955V178.333z"/>
		</g>
		<g id="g3041" transform="matrix(1.25, 0, 0, -1.25, 508.498, 821.549)">
			<path id="path3043" fill="#FFFFFF" d="M-188.999,178.333h3.639v-0.775h-1.342v-2.339h-0.955v2.339h-1.342V178.333z"/>
		</g>
		<g id="g3045" transform="matrix(1.25, 0, 0, -1.25, 426.026, 827.885)">
			<path id="path3047" fill="#FFFFFF" d="M-138.745,182.194L-138.745,182.194h-0.1h-1.455h-0.196c-0.152,0-0.273,0.122-0.273,0.273
				c0,0.15,0.122,0.273,0.273,0.273h0.09h2.44v0.697h-2.529h-0.187c-0.589,0-1.066-0.432-1.066-0.966
				c0-0.533,0.477-0.966,1.066-0.966h0.098h1.456h0.196c0.15,0,0.273-0.121,0.273-0.273c0-0.15-0.123-0.272-0.273-0.272h-0.09
				h-2.586v-0.698h2.675h0.188c0.588,0,1.066,0.432,1.066,0.966C-137.681,181.761-138.157,182.194-138.745,182.194"/>
		</g>
		<g id="g3049" transform="matrix(1.25, 0, 0, -1.25, 529.767, 821.549)">
			<path id="path3051" fill="#FFFFFF" d="M-201.958,178.333h0.955v-2.314h2.145v-0.798h-3.1V178.333z"/>
		</g>
		<g id="g3053" transform="matrix(1.25, 0, 0, -1.25, 556.571, 831.478)">
			<path id="path3055" fill="#FFFFFF" d="M-218.29,184.382h1.222l-0.619,1.17L-218.29,184.382z M-218.307,186.275h1.243l1.712-3.114
				h-1.062l-0.297,0.55h-1.934l-0.28-0.55h-1.066L-218.307,186.275z"/>
		</g>
		<g id="g3057" transform="matrix(1.25, 0, 0, -1.25, 578.79, 834.228)">
			<path id="path3059" fill="#FFFFFF" d="M-231.828,186.057v0.547h1.836c0.152,0,0.273-0.122,0.273-0.273
				c0-0.15-0.122-0.273-0.273-0.273H-231.828z M-231.828,187.293v0.516h1.428h0.086c0.144,0,0.258-0.116,0.258-0.259
				c0-0.144-0.114-0.258-0.258-0.258H-231.828L-231.828,187.293z M-229.239,187.143c0.067,0.123,0.109,0.264,0.109,0.411
				c0,0.505-0.452,0.917-1.009,0.917h-2.65v-3.109h0.961h1.834h0.188c0.588,0,1.066,0.431,1.066,0.966
				C-228.74,186.671-228.94,186.971-229.239,187.143"/>
		</g>
		<g id="g3061" transform="matrix(1.25, 0, 0, -1.25, 476.772, 830.65)">
			<path id="path3063" fill="#FFFFFF" d="M-169.667,183.879c0-0.48-0.1-0.663-0.575-0.663h-1.288c-0.477,0-0.577,0.183-0.577,0.663
				v0.178v0.177c0,0.479,0.1,0.663,0.577,0.663h1.288c0.477,0,0.575-0.184,0.575-0.663v-0.177V183.879z M-170.121,185.648h-1.53
				c-0.861,0-1.372-0.216-1.372-1.127v-0.463v-0.464c0-0.912,0.512-1.127,1.372-1.127h1.53c0.86,0,1.373,0.215,1.373,1.127v0.463
				v0.464C-168.748,185.432-169.26,185.648-170.121,185.648"/>
		</g>
		<g id="g3065" transform="matrix(1.25, 0, 0, -1.25, 501.862, 830.65)">
			<path id="path3067" fill="#FFFFFF" d="M-184.954,183.879c0-0.48-0.1-0.663-0.577-0.663h-1.287c-0.477,0-0.577,0.183-0.577,0.663
				v0.178v0.178c0,0.48,0.1,0.662,0.577,0.662h1.287c0.477,0,0.577-0.183,0.577-0.662v-0.178V183.879z M-185.409,185.648h-1.533
				c-0.859,0-1.37-0.216-1.37-1.127v-0.463v-0.464c0-0.912,0.512-1.127,1.37-1.127h1.533c0.861,0,1.372,0.215,1.372,1.127v0.463
				v0.464C-184.037,185.432-184.548,185.648-185.409,185.648"/>
		</g>
	</g>
</g>
</svg>
