<?xml version="1.0" encoding="utf-8"?>
<!-- Generator: Adobe Illustrator 15.0.1, SVG Export Plug-In . SVG Version: 6.00 Build 0)  -->
<!DOCTYPE svg PUBLIC "-//W3C//DTD SVG 1.1//EN" "http://www.w3.org/Graphics/SVG/1.1/DTD/svg11.dtd">
<svg version="1.1" id="Ebene_2" xmlns="http://www.w3.org/2000/svg" xmlns:xlink="http://www.w3.org/1999/xlink" x="0px" y="0px"
	 width="59.035px" height="14.541px" viewBox="0 0 59.035 14.541" enable-background="new 0 0 59.035 14.541" xml:space="preserve">
<g id="g2250" transform="matrix(7.9086488,0,0,7.9086488,-1202.9984,30.866715)">
	<polygon id="polygon2252" fill="#FFFFFF" points="153.102,-2.745 153.414,-2.745 153.792,-2.268 153.794,-2.268 153.794,-2.745 
		153.995,-2.745 153.995,-2.088 153.683,-2.088 153.305,-2.565 153.303,-2.565 153.303,-2.088 153.102,-2.088 	"/>
	<polygon id="polygon2254" fill="#FFFFFF" points="156.1,-2.745 156.867,-2.745 156.867,-2.582 156.584,-2.582 156.584,-2.088 
		156.383,-2.088 156.383,-2.582 156.1,-2.582 	"/>
	<path id="path2256" fill="#FFFFFF" d="M156.027-2.694c0-0.413,0.155-0.683,0.155-0.683c-0.141,0.127-0.296,0.092-0.296,0.092
		c0.248-0.201,0.128-0.618,0.128-0.618s-0.125,0.248-0.504,0.317c-0.34,0.061-0.438,0.195-0.438,0.195v-0.308
		c-0.46,0.151-0.618,0.45-0.618,0.45l-0.068-0.201c-0.289,0.356-0.269,0.981-0.269,0.981v0.151c0,0.192,0.108,0.238,0.289,0.238
		h0.323c0.181,0,0.289-0.045,0.289-0.238v-0.196c0-0.029,0.024-0.052,0.053-0.052c0.03,0,0.053,0.024,0.053,0.052v0.196
		c0,0.192,0.108,0.238,0.289,0.238h0.323c0.181,0,0.289-0.045,0.289-0.238L156.027-2.694L156.027-2.694z M154.825-2.379
		c0,0.101-0.021,0.14-0.122,0.14h-0.272c-0.1,0-0.121-0.039-0.121-0.14v-0.075c0-0.087,0.021-0.14,0.133-0.14h0.249
		c0.112,0,0.133,0.053,0.133,0.14V-2.379z M155.833-2.379c0,0.101-0.021,0.14-0.122,0.14h-0.272c-0.1,0-0.121-0.039-0.121-0.14
		v-0.075c0-0.087,0.021-0.14,0.133-0.14h0.249c0.112,0,0.133,0.053,0.133,0.14V-2.379L155.833-2.379z"/>
	<path id="path2258" fill="#FFFFFF" d="M152.784-2.083c0.124,0,0.225-0.091,0.225-0.204s-0.101-0.204-0.225-0.204l0,0h-0.388
		c-0.032,0-0.058-0.026-0.058-0.058s0.026-0.058,0.058-0.058h0.001h0.309h0.001c0.032,0,0.058,0.026,0.058,0.058l0.206-0.001
		c0-0.112-0.101-0.204-0.225-0.204h-0.388c-0.124,0-0.225,0.091-0.225,0.204s0.101,0.204,0.225,0.204v0h0.388
		c0.032,0,0.058,0.026,0.058,0.058c0,0.032-0.026,0.058-0.058,0.058h-0.37c-0.032,0-0.058-0.026-0.058-0.058l-0.206,0.001
		c0,0.112,0.101,0.204,0.225,0.204H152.784L152.784-2.083z"/>
	<polygon id="polygon2260" fill="#FFFFFF" points="156.955,-2.745 157.157,-2.745 157.157,-2.257 157.609,-2.257 157.609,-2.088 
		156.955,-2.088 	"/>
	<path id="path2262" fill="#FFFFFF" d="M158.029-2.745h0.262l0.361,0.657h-0.224l-0.063-0.116h-0.408l-0.059,0.116h-0.225
		L158.029-2.745z M158.033-2.346h0.258l-0.131-0.247L158.033-2.346z"/>
	<path id="path2264" fill="#FFFFFF" d="M155.578-2.522L155.578-2.522l0,0.106l-0.075-0.075c-0.019,0.019-0.031,0.046-0.031,0.075
		c0,0.058,0.047,0.106,0.106,0.106c0.058,0,0.106-0.047,0.106-0.106S155.636-2.522,155.578-2.522"/>
	<path id="path2266" fill="#FFFFFF" d="M154.569-2.522L154.569-2.522v0.106l-0.075-0.075c-0.019,0.019-0.031,0.046-0.031,0.075
		c0,0.058,0.047,0.106,0.106,0.106c0.058,0,0.106-0.047,0.106-0.106S154.628-2.522,154.569-2.522"/>
	<path id="path2268" fill="#FFFFFF" d="M159.473-2.464c0.015-0.026,0.023-0.056,0.023-0.087c0-0.107-0.095-0.193-0.213-0.193h-0.559
		v0.656h0.202h0.387h0.04c0.124,0,0.225-0.091,0.225-0.204C159.578-2.365,159.536-2.428,159.473-2.464 M158.927-2.496v-0.109h0.302
		h0.018c0.03,0,0.054,0.024,0.054,0.055c0,0.03-0.024,0.054-0.054,0.054H158.927z M158.927-2.235V-2.35h0.387
		c0.032,0,0.058,0.026,0.058,0.058c0,0.032-0.026,0.057-0.058,0.057L158.927-2.235L158.927-2.235z"/>
</g>
</svg>
