<?xml version="1.0" encoding="utf-8"?>
<!-- Generator: Adobe Illustrator 15.1.0, SVG Export Plug-In . SVG Version: 6.00 Build 0)  -->
<!DOCTYPE svg PUBLIC "-//W3C//DTD SVG 1.1//EN" "http://www.w3.org/Graphics/SVG/1.1/DTD/svg11.dtd">
<svg version="1.1" id="Ebene_1" xmlns:svg="http://www.w3.org/2000/svg"
	 xmlns="http://www.w3.org/2000/svg" xmlns:xlink="http://www.w3.org/1999/xlink" x="0px" y="0px" width="150.912px"
	 height="34.93px" viewBox="0 0 150.912 34.93" enable-background="new 0 0 150.912 34.93" xml:space="preserve">
<g>
	<g>
		<path fill="#B3B3B3" d="M0,10.366v20.417h25.076V10.366H0z M10.218,25.42c-2.676,0-4.846-2.168-4.846-4.848
			c0-2.676,2.169-4.845,4.846-4.845c2.677,0,4.846,2.169,4.846,4.845C15.064,23.252,12.895,25.42,10.218,25.42z"/>
		<path fill="#B3B3B3" d="M126.156,10.366v20.417h25.075V10.366H126.156z M141.033,25.42c-2.677,0-4.847-2.168-4.847-4.848
			c0-2.676,2.17-4.845,4.847-4.845s4.846,2.169,4.846,4.845C145.879,23.252,143.71,25.42,141.033,25.42z"/>
		<g>
			<rect x="149.976" y="10.105" opacity="0.47" fill="#808080" enable-background="new    " width="1.258" height="20.681"/>
			<rect x="124.959" y="29.524" opacity="0.47" fill="#808080" enable-background="new    " width="25.017" height="1.262"/>
		</g>
		<g>
			<polygon opacity="0.47" fill="#E6E6E6" enable-background="new    " points="0,10.105 1.258,10.105 1.258,29.524 0,30.783 			"/>
			<polygon opacity="0.47" fill="#808080" enable-background="new    " points="0,30.783 1.258,29.524 26.275,29.524 26.275,30.783 
							"/>
		</g>
		<path fill="#4D4D4D" d="M131.896,3.041c0-0.396-0.321-0.722-0.719-0.722H19.734c-0.396,0-0.717,0.323-0.717,0.722v4.583h112.876
			V3.041H131.896z"/>
		<path fill="#808080" d="M131.896,3.399c0-0.395-0.321-0.718-0.719-0.718H19.734c-0.396,0-0.717,0.323-0.717,0.718V3.041
			c0-0.396,0.321-0.722,0.717-0.722h111.445c0.393,0,0.715,0.323,0.715,0.722v0.356L131.896,3.399L131.896,3.399z"/>
		<g>
			<path fill="#4D4D4D" d="M151.231,10.345c0,0.396-0.323,0.72-0.719,0.72H0.721C0.324,11.064,0,10.741,0,10.345V8.344
				c0-0.396,0.324-0.72,0.721-0.72h149.792c0.396,0,0.721,0.32,0.721,0.72v2.001H151.231z"/>
		</g>
		<rect y="6.897" fill="#4D4D4D" width="151.231" height="1.89"/>
		<rect y="7.459" fill="#999999" width="151.231" height="0.33"/>
		<rect y="7.667" fill="#808080" width="151.231" height="0.33"/>
		<rect x="150.61" y="7.997" opacity="0.1" fill="#1A1A1A" enable-background="new    " width="0.621" height="2.349"/>
		<g>
			<g>
				<g>
					<g>
						<g>
							<defs>
								<path id="SVGID_1_" d="M151.231,10.345c0,0.396-0.323,0.72-0.719,0.72H0.721C0.324,11.064,0,10.741,0,10.345V8.344
									c0-0.396,0.324-0.72,0.721-0.72h149.792c0.396,0,0.721,0.32,0.721,0.72v2.001H151.231z"/>
							</defs>
							<clipPath id="SVGID_2_">
								<use xlink:href="#SVGID_1_"  overflow="visible"/>
							</clipPath>
							
								<rect y="10.345" opacity="0.47" clip-path="url(#SVGID_2_)" fill="#999999" enable-background="new    " width="35.854" height="0.72"/>
						</g>
					</g>
				</g>
			</g>
			<g>
				<g>
					<g>
						<g>
							<defs>
								<path id="SVGID_3_" d="M151.231,10.345c0,0.396-0.323,0.72-0.719,0.72H0.721C0.324,11.064,0,10.741,0,10.345V8.344
									c0-0.396,0.324-0.72,0.721-0.72h149.792c0.396,0,0.721,0.32,0.721,0.72v2.001H151.231z"/>
							</defs>
							<clipPath id="SVGID_4_">
								<use xlink:href="#SVGID_3_"  overflow="visible"/>
							</clipPath>
							
								<rect y="10.776" opacity="0.47" clip-path="url(#SVGID_4_)" fill="#999999" enable-background="new    " width="35.854" height="0.288"/>
						</g>
					</g>
				</g>
			</g>
			<g>
				<g>
					<g>
						<g>
							<defs>
								<path id="SVGID_5_" d="M151.231,10.345c0,0.396-0.323,0.72-0.719,0.72H0.721C0.324,11.064,0,10.741,0,10.345V8.344
									c0-0.396,0.324-0.72,0.721-0.72h149.792c0.396,0,0.721,0.32,0.721,0.72v2.001H151.231z"/>
							</defs>
							<clipPath id="SVGID_6_">
								<use xlink:href="#SVGID_5_"  overflow="visible"/>
							</clipPath>
							
								<rect x="48.859" y="10.345" opacity="0.1" clip-path="url(#SVGID_6_)" fill="#1A1A1A" enable-background="new    " width="102.373" height="0.72"/>
						</g>
					</g>
				</g>
			</g>
			<g>
				<g>
					<g>
						<g>
							<defs>
								<path id="SVGID_7_" d="M151.231,10.345c0,0.396-0.323,0.72-0.719,0.72H0.721C0.324,11.064,0,10.741,0,10.345V8.344
									c0-0.396,0.324-0.72,0.721-0.72h149.792c0.396,0,0.721,0.32,0.721,0.72v2.001H151.231z"/>
							</defs>
							<clipPath id="SVGID_8_">
								<use xlink:href="#SVGID_7_"  overflow="visible"/>
							</clipPath>
							
								<rect x="48.859" y="10.776" opacity="0.2" clip-path="url(#SVGID_8_)" fill="#1A1A1A" enable-background="new    " width="102.373" height="0.288"/>
						</g>
					</g>
				</g>
			</g>
		</g>
		<g>
			<rect x="20.661" y="10.105" fill="#4D4D4D" width="109.59" height="4.809"/>
			<polygon opacity="0.36" fill="#E6E6E6" enable-background="new    " points="22.96,13.016 20.663,15.105 20.661,10.366 			"/>
			<polygon opacity="0.36" fill="#E6E6E6" enable-background="new    " points="127.952,13.016 130.247,15.105 130.249,10.366 			
				"/>
		</g>
		<g>
			<path fill="#999999" d="M20.746,15.85c-0.389-1.559,0.607-2.834,2.215-2.834h104.988c1.608,0,2.604,1.274,2.218,2.834
				l-4.064,16.246c-0.391,1.56-2.021,2.834-3.627,2.834H28.439c-1.607,0-3.24-1.274-3.631-2.834L20.746,15.85z"/>
			<path fill="#1A1A1A" d="M22.619,16.797c-0.395-1.561,0.6-2.832,2.207-2.832h101.261c1.605,0,2.602,1.271,2.207,2.832
				l-3.619,14.349c-0.394,1.563-2.029,2.835-3.638,2.835H29.875c-1.607,0-3.244-1.271-3.638-2.835L22.619,16.797z"/>
		</g>
		<path fill="#808080" d="M10.218,22.311c-2.129,0-3.917-1.381-4.568-3.291c-0.167,0.491-0.278,1.008-0.278,1.557
			c0,2.678,2.169,4.846,4.846,4.846c2.677,0,4.846-2.168,4.846-4.846c0-0.549-0.111-1.063-0.278-1.557
			C14.136,20.93,12.347,22.311,10.218,22.311z"/>
		<path fill="#808080" d="M141.033,22.311c-2.13,0-3.918-1.381-4.568-3.291c-0.168,0.491-0.278,1.008-0.278,1.557
			c0,2.678,2.17,4.846,4.849,4.846c2.677,0,4.846-2.168,4.846-4.846c0-0.549-0.108-1.063-0.276-1.557
			C144.951,20.93,143.163,22.311,141.033,22.311z"/>
	</g>
	<g>
		<g>
			<rect x="118.169" y="0" fill="#C7A663" width="0.587" height="2.333"/>
			<rect x="118.169" y="0" opacity="0.7" fill="#999999" enable-background="new    " width="0.119" height="2.333"/>
			<rect x="118.638" y="0" opacity="0.7" fill="#4D4D4D" enable-background="new    " width="0.119" height="2.333"/>
		</g>
		<g>
			<rect x="110.969" y="0" fill="#C7A663" width="0.587" height="2.333"/>
			<rect x="110.969" y="0" opacity="0.7" fill="#999999" enable-background="new    " width="0.119" height="2.333"/>
			<rect x="111.438" y="0" opacity="0.7" fill="#4D4D4D" enable-background="new    " width="0.119" height="2.333"/>
		</g>
		<g>
			<rect x="103.769" y="0" fill="#C7A663" width="0.588" height="2.333"/>
			<rect x="103.769" y="0" opacity="0.7" fill="#999999" enable-background="new    " width="0.119" height="2.333"/>
			<rect x="104.237" y="0" opacity="0.7" fill="#4D4D4D" enable-background="new    " width="0.119" height="2.333"/>
		</g>
		<g>
			<rect x="96.567" y="0" fill="#C7A663" width="0.588" height="2.333"/>
			<rect x="96.567" y="0" opacity="0.7" fill="#999999" enable-background="new    " width="0.119" height="2.333"/>
			<rect x="97.037" y="0" opacity="0.7" fill="#4D4D4D" enable-background="new    " width="0.119" height="2.333"/>
		</g>
		<g>
			<rect x="89.368" y="0" fill="#C7A663" width="0.587" height="2.333"/>
			<rect x="89.368" y="0" opacity="0.7" fill="#999999" enable-background="new    " width="0.119" height="2.333"/>
			<rect x="89.837" y="0" opacity="0.7" fill="#4D4D4D" enable-background="new    " width="0.119" height="2.333"/>
		</g>
		<g>
			<rect x="82.168" y="0" fill="#C7A663" width="0.587" height="2.333"/>
			<rect x="82.168" y="0" opacity="0.7" fill="#999999" enable-background="new    " width="0.119" height="2.333"/>
			<rect x="82.638" y="0" opacity="0.7" fill="#4D4D4D" enable-background="new    " width="0.118" height="2.333"/>
		</g>
		<g>
			<rect x="74.968" y="0" fill="#C7A663" width="0.587" height="2.333"/>
			<rect x="74.968" y="0" opacity="0.7" fill="#999999" enable-background="new    " width="0.119" height="2.333"/>
			<rect x="75.437" y="0" opacity="0.7" fill="#4D4D4D" enable-background="new    " width="0.119" height="2.333"/>
		</g>
		<g>
			<rect x="67.768" y="0" fill="#C7A663" width="0.587" height="2.333"/>
			<rect x="67.768" y="0" opacity="0.7" fill="#999999" enable-background="new    " width="0.119" height="2.333"/>
			<rect x="68.236" y="0" opacity="0.7" fill="#4D4D4D" enable-background="new    " width="0.119" height="2.333"/>
		</g>
		<g>
			<rect x="60.567" y="0" fill="#C7A663" width="0.587" height="2.333"/>
			<rect x="60.567" y="0" opacity="0.7" fill="#999999" enable-background="new    " width="0.119" height="2.333"/>
			<rect x="61.036" y="0" opacity="0.7" fill="#4D4D4D" enable-background="new    " width="0.119" height="2.333"/>
		</g>
		<g>
			<rect x="53.367" y="0" fill="#C7A663" width="0.587" height="2.333"/>
			<rect x="53.367" y="0" opacity="0.7" fill="#999999" enable-background="new    " width="0.119" height="2.333"/>
			<rect x="53.836" y="0" opacity="0.7" fill="#4D4D4D" enable-background="new    " width="0.119" height="2.333"/>
		</g>
		<g>
			<rect x="46.167" y="0" fill="#C7A663" width="0.587" height="2.333"/>
			<rect x="46.167" y="0" opacity="0.7" fill="#999999" enable-background="new    " width="0.119" height="2.333"/>
			<rect x="46.636" y="0" opacity="0.7" fill="#4D4D4D" enable-background="new    " width="0.119" height="2.333"/>
		</g>
		<g>
			<rect x="38.967" y="0" fill="#C7A663" width="0.587" height="2.333"/>
			<rect x="38.967" y="0" opacity="0.7" fill="#999999" enable-background="new    " width="0.119" height="2.333"/>
			<rect x="39.436" y="0" opacity="0.7" fill="#4D4D4D" enable-background="new    " width="0.119" height="2.333"/>
		</g>
		<g>
			<rect x="31.767" y="0" fill="#C7A663" width="0.587" height="2.333"/>
			<rect x="31.767" y="0" opacity="0.7" fill="#999999" enable-background="new    " width="0.119" height="2.333"/>
			<rect x="32.235" y="0" opacity="0.7" fill="#4D4D4D" enable-background="new    " width="0.119" height="2.333"/>
		</g>
	</g>
	<g>
		<g>
			<rect x="114.567" y="0.588" fill="#7B6231" width="0.589" height="1.745"/>
			<rect x="114.567" y="0.588" opacity="0.7" fill="#999999" enable-background="new    " width="0.119" height="1.745"/>
			<rect x="115.037" y="0.588" opacity="0.7" fill="#4D4D4D" enable-background="new    " width="0.119" height="1.745"/>
		</g>
		<g>
			<rect x="107.369" y="0.588" fill="#7B6231" width="0.586" height="1.745"/>
			<rect x="107.369" y="0.588" opacity="0.7" fill="#999999" enable-background="new    " width="0.116" height="1.745"/>
			<rect x="107.838" y="0.588" opacity="0.7" fill="#4D4D4D" enable-background="new    " width="0.119" height="1.745"/>
		</g>
		<g>
			<rect x="100.168" y="0.588" fill="#7B6231" width="0.588" height="1.745"/>
			<rect x="100.168" y="0.588" opacity="0.7" fill="#999999" enable-background="new    " width="0.119" height="1.745"/>
			<rect x="100.638" y="0.588" opacity="0.7" fill="#4D4D4D" enable-background="new    " width="0.118" height="1.745"/>
		</g>
		<g>
			<rect x="92.969" y="0.588" fill="#7B6231" width="0.587" height="1.745"/>
			<rect x="92.969" y="0.588" opacity="0.7" fill="#999999" enable-background="new    " width="0.117" height="1.745"/>
			<rect x="93.438" y="0.588" opacity="0.7" fill="#4D4D4D" enable-background="new    " width="0.119" height="1.745"/>
		</g>
		<g>
			<rect x="85.769" y="0.588" fill="#7B6231" width="0.588" height="1.745"/>
			<rect x="85.769" y="0.588" opacity="0.7" fill="#999999" enable-background="new    " width="0.119" height="1.745"/>
			<rect x="86.235" y="0.588" opacity="0.7" fill="#4D4D4D" enable-background="new    " width="0.119" height="1.745"/>
		</g>
		<g>
			<rect x="78.567" y="0.588" fill="#7B6231" width="0.586" height="1.745"/>
			<rect x="78.567" y="0.588" opacity="0.7" fill="#999999" enable-background="new    " width="0.119" height="1.745"/>
			<rect x="79.037" y="0.588" opacity="0.7" fill="#4D4D4D" enable-background="new    " width="0.119" height="1.745"/>
		</g>
		<g>
			<rect x="71.368" y="0.588" fill="#7B6231" width="0.587" height="1.745"/>
			<rect x="71.368" y="0.588" opacity="0.7" fill="#999999" enable-background="new    " width="0.119" height="1.745"/>
			<rect x="71.836" y="0.588" opacity="0.7" fill="#4D4D4D" enable-background="new    " width="0.119" height="1.745"/>
		</g>
		<g>
			<rect x="64.167" y="0.588" fill="#7B6231" width="0.587" height="1.745"/>
			<rect x="64.167" y="0.588" opacity="0.7" fill="#999999" enable-background="new    " width="0.119" height="1.745"/>
			<rect x="64.636" y="0.588" opacity="0.7" fill="#4D4D4D" enable-background="new    " width="0.119" height="1.745"/>
		</g>
		<g>
			<rect x="56.967" y="0.588" fill="#7B6231" width="0.587" height="1.745"/>
			<rect x="56.967" y="0.588" opacity="0.7" fill="#999999" enable-background="new    " width="0.119" height="1.745"/>
			<rect x="57.436" y="0.588" opacity="0.7" fill="#4D4D4D" enable-background="new    " width="0.119" height="1.745"/>
		</g>
		<g>
			<rect x="49.767" y="0.588" fill="#7B6231" width="0.587" height="1.745"/>
			<rect x="49.767" y="0.588" opacity="0.7" fill="#999999" enable-background="new    " width="0.119" height="1.745"/>
			<rect x="50.236" y="0.588" opacity="0.7" fill="#4D4D4D" enable-background="new    " width="0.119" height="1.745"/>
		</g>
		<g>
			<rect x="42.567" y="0.588" fill="#7B6231" width="0.587" height="1.745"/>
			<rect x="42.567" y="0.588" opacity="0.7" fill="#999999" enable-background="new    " width="0.119" height="1.745"/>
			<rect x="43.036" y="0.588" opacity="0.7" fill="#4D4D4D" enable-background="new    " width="0.119" height="1.745"/>
		</g>
		<g>
			<rect x="35.367" y="0.588" fill="#7B6231" width="0.587" height="1.745"/>
			<rect x="35.367" y="0.588" opacity="0.7" fill="#999999" enable-background="new    " width="0.119" height="1.745"/>
			<rect x="35.835" y="0.588" opacity="0.7" fill="#4D4D4D" enable-background="new    " width="0.119" height="1.745"/>
		</g>
	</g>
</g>
<g>
	<path d="M25.188,17.996c-0.326-1.296,0.5-2.356,1.839-2.356h96.858c1.341,0,2.166,1.063,1.841,2.356l-3.02,11.945
		c-0.326,1.301-1.688,2.361-3.023,2.361H31.23c-1.338,0-2.701-1.063-3.027-2.361L25.188,17.996z"/>
	<g>
		<g>
			<g>
				<circle fill="#CCCCCC" cx="122.371" cy="19.029" r="1.199"/>
			</g>
			<g>
				<circle fill="#CCCCCC" cx="114.554" cy="19.029" r="1.199"/>
			</g>
			<g>
				<circle fill="#CCCCCC" cx="106.731" cy="19.029" r="1.199"/>
			</g>
			<g>
				<circle fill="#CCCCCC" cx="98.914" cy="19.029" r="1.199"/>
			</g>
			<g>
				<circle fill="#CCCCCC" cx="91.094" cy="19.029" r="1.199"/>
			</g>
			<g>
				<circle fill="#CCCCCC" cx="83.274" cy="19.029" r="1.199"/>
			</g>
			<g>
				<circle fill="#CCCCCC" cx="75.456" cy="19.029" r="1.199"/>
			</g>
			<g>
				<circle fill="#CCCCCC" cx="67.637" cy="19.029" r="1.199"/>
			</g>
			<g>
				<circle fill="#CCCCCC" cx="59.817" cy="19.029" r="1.199"/>
			</g>
			<g>
				<circle fill="#CCCCCC" cx="51.998" cy="19.029" r="1.199"/>
			</g>
			<g>
				<circle fill="#CCCCCC" cx="44.179" cy="19.029" r="1.199"/>
			</g>
			<g>
				<circle fill="#CCCCCC" cx="36.359" cy="19.029" r="1.199"/>
			</g>
			<g>
				<circle fill="#CCCCCC" cx="28.54" cy="19.029" r="1.199"/>
			</g>
		</g>
		<g>
			<g>
				<rect x="121.172" y="19.029" fill="#CCCCCC" width="2.373" height="2.018"/>
			</g>
			<g>
				<rect x="113.353" y="19.029" fill="#CCCCCC" width="2.375" height="2.018"/>
			</g>
			<g>
				<rect x="105.533" y="19.029" fill="#CCCCCC" width="2.373" height="2.018"/>
			</g>
			<g>
				<rect x="97.713" y="19.029" fill="#CCCCCC" width="2.375" height="2.018"/>
			</g>
			<g>
				<rect x="89.896" y="19.029" fill="#CCCCCC" width="2.373" height="2.018"/>
			</g>
			<g>
				<rect x="82.074" y="19.029" fill="#CCCCCC" width="2.375" height="2.018"/>
			</g>
			<g>
				<rect x="74.256" y="19.029" fill="#CCCCCC" width="2.373" height="2.018"/>
			</g>
			<g>
				<rect x="66.437" y="19.029" fill="#CCCCCC" width="2.374" height="2.018"/>
			</g>
			<g>
				<rect x="58.617" y="19.029" fill="#CCCCCC" width="2.374" height="2.018"/>
			</g>
			<g>
				<rect x="50.798" y="19.029" fill="#CCCCCC" width="2.374" height="2.018"/>
			</g>
			<g>
				<rect x="42.979" y="19.029" fill="#CCCCCC" width="2.374" height="2.018"/>
			</g>
			<g>
				<rect x="35.159" y="19.029" fill="#CCCCCC" width="2.374" height="2.018"/>
			</g>
			<g>
				<rect x="27.34" y="19.029" fill="#CCCCCC" width="2.374" height="2.018"/>
			</g>
		</g>
		<g>
			<g>
				<path fill="#B3B3B3" d="M121.457,18.255c0.222-0.229,0.438-0.324,0.752-0.434l-0.017,3.221h-0.735V18.255z"/>
			</g>
			<g>
				<path fill="#B3B3B3" d="M113.638,18.255c0.223-0.229,0.438-0.324,0.752-0.434l-0.015,3.221h-0.737V18.255z"/>
			</g>
			<g>
				<path fill="#B3B3B3" d="M105.817,18.255c0.222-0.229,0.438-0.324,0.752-0.434l-0.016,3.221h-0.736V18.255z"/>
			</g>
			<g>
				<path fill="#B3B3B3" d="M97.998,18.255c0.224-0.229,0.438-0.324,0.752-0.434l-0.015,3.221h-0.737V18.255z"/>
			</g>
			<g>
				<path fill="#B3B3B3" d="M90.181,18.255c0.221-0.229,0.438-0.324,0.752-0.434l-0.017,3.221h-0.735V18.255z"/>
			</g>
			<g>
				<path fill="#B3B3B3" d="M82.358,18.255c0.224-0.229,0.438-0.324,0.752-0.434l-0.014,3.221h-0.738V18.255z"/>
			</g>
			<g>
				<path fill="#B3B3B3" d="M74.541,18.255c0.222-0.229,0.438-0.324,0.752-0.434l-0.015,3.221h-0.737V18.255z"/>
			</g>
			<g>
				<path fill="#B3B3B3" d="M66.722,18.255c0.222-0.229,0.438-0.324,0.752-0.434l-0.015,3.221h-0.737V18.255z"/>
			</g>
			<g>
				<path fill="#B3B3B3" d="M58.902,18.255c0.222-0.229,0.438-0.324,0.752-0.434l-0.015,3.221h-0.737V18.255z"/>
			</g>
			<g>
				<path fill="#B3B3B3" d="M51.083,18.255c0.222-0.229,0.438-0.324,0.752-0.434l-0.015,3.221h-0.737V18.255z"/>
			</g>
			<g>
				<path fill="#B3B3B3" d="M43.264,18.255c0.222-0.229,0.438-0.324,0.752-0.434l-0.015,3.221h-0.737V18.255z"/>
			</g>
			<g>
				<path fill="#B3B3B3" d="M35.444,18.255c0.222-0.229,0.438-0.324,0.752-0.434l-0.015,3.221h-0.737V18.255z"/>
			</g>
			<g>
				<path fill="#B3B3B3" d="M27.625,18.255c0.222-0.229,0.438-0.324,0.752-0.434l-0.015,3.221h-0.737V18.255z"/>
			</g>
		</g>
		<g>
			<g>
				<circle fill="#CCCCCC" cx="122.371" cy="20.941" r="1.199"/>
			</g>
			<g>
				<circle fill="#CCCCCC" cx="114.554" cy="20.941" r="1.199"/>
			</g>
			<g>
				<circle fill="#CCCCCC" cx="106.731" cy="20.941" r="1.199"/>
			</g>
			<g>
				<circle fill="#CCCCCC" cx="98.914" cy="20.941" r="1.199"/>
			</g>
			<g>
				<circle fill="#CCCCCC" cx="91.094" cy="20.941" r="1.199"/>
			</g>
			<g>
				<circle fill="#CCCCCC" cx="83.274" cy="20.941" r="1.199"/>
			</g>
			<g>
				<circle fill="#CCCCCC" cx="75.456" cy="20.941" r="1.199"/>
			</g>
			<g>
				<circle fill="#CCCCCC" cx="67.637" cy="20.941" r="1.199"/>
			</g>
			<g>
				<circle fill="#CCCCCC" cx="59.817" cy="20.941" r="1.199"/>
			</g>
			<g>
				<circle fill="#CCCCCC" cx="51.998" cy="20.941" r="1.199"/>
			</g>
			<g>
				<circle fill="#CCCCCC" cx="44.179" cy="20.941" r="1.199"/>
			</g>
			<g>
				<circle fill="#CCCCCC" cx="36.359" cy="20.941" r="1.199"/>
			</g>
			<g>
				<circle fill="#CCCCCC" cx="28.54" cy="20.941" r="1.199"/>
			</g>
		</g>
		<g>
			<g>
				<g opacity="0.68">
					<path fill="#FFFFFF" d="M122.371,20.941v1.199c1.183,0,1.338-1.361,1.078-1.717L122.371,20.941z"/>
				</g>
				<g opacity="0.68">
					<path fill="#FFFFFF" d="M122.371,20.941l-0.718,0.959c0.945,0.707,1.888-0.289,1.892-0.729L122.371,20.941z"/>
				</g>
				<g opacity="0.68">
					<path fill="#FFFFFF" d="M122.373,20.939l-0.092-1.189c-1.179,0.088-1.232,1.457-0.945,1.793L122.373,20.939z"/>
				</g>
				<g opacity="0.68">
					<path fill="#FFFFFF" d="M122.373,20.939l0.644-1.01c-0.996-0.635-1.858,0.428-1.832,0.869L122.373,20.939z"/>
				</g>
			</g>
			<g>
				<g opacity="0.68">
					<path fill="#FFFFFF" d="M114.554,20.941v1.199c1.182,0,1.338-1.361,1.077-1.717L114.554,20.941z"/>
				</g>
				<g opacity="0.68">
					<path fill="#FFFFFF" d="M114.554,20.941l-0.718,0.959c0.945,0.707,1.888-0.289,1.892-0.729L114.554,20.941z"/>
				</g>
				<g opacity="0.68">
					<path fill="#FFFFFF" d="M114.554,20.939l-0.091-1.189c-1.178,0.088-1.233,1.457-0.946,1.793L114.554,20.939z"/>
				</g>
				<g opacity="0.68">
					<path fill="#FFFFFF" d="M114.554,20.939l0.646-1.01c-0.996-0.635-1.859,0.428-1.832,0.869L114.554,20.939z"/>
				</g>
			</g>
			<g>
				<g opacity="0.68">
					<path fill="#FFFFFF" d="M106.731,20.941v1.199c1.183,0,1.338-1.361,1.078-1.717L106.731,20.941z"/>
				</g>
				<g opacity="0.68">
					<path fill="#FFFFFF" d="M106.731,20.941l-0.717,0.959c0.944,0.707,1.887-0.289,1.892-0.729L106.731,20.941z"/>
				</g>
				<g opacity="0.68">
					<path fill="#FFFFFF" d="M106.733,20.939l-0.092-1.189c-1.179,0.088-1.231,1.457-0.945,1.793L106.733,20.939z"/>
				</g>
				<g opacity="0.68">
					<path fill="#FFFFFF" d="M106.733,20.939l0.644-1.01c-0.996-0.635-1.858,0.428-1.832,0.869L106.733,20.939z"/>
				</g>
			</g>
			<g>
				<g opacity="0.68">
					<path fill="#FFFFFF" d="M98.914,20.941v1.199c1.183,0,1.338-1.361,1.078-1.717L98.914,20.941z"/>
				</g>
				<g opacity="0.68">
					<path fill="#FFFFFF" d="M98.914,20.941L98.196,21.9c0.945,0.707,1.888-0.289,1.892-0.729L98.914,20.941z"/>
				</g>
				<g opacity="0.68">
					<path fill="#FFFFFF" d="M98.914,20.939l-0.09-1.189c-1.179,0.088-1.234,1.457-0.947,1.793L98.914,20.939z"/>
				</g>
				<g opacity="0.68">
					<path fill="#FFFFFF" d="M98.914,20.939l0.646-1.01c-0.996-0.635-1.858,0.428-1.832,0.869L98.914,20.939z"/>
				</g>
			</g>
			<g>
				<g opacity="0.68">
					<path fill="#FFFFFF" d="M91.094,20.941v1.199c1.183,0,1.339-1.361,1.078-1.717L91.094,20.941z"/>
				</g>
				<g opacity="0.68">
					<path fill="#FFFFFF" d="M91.094,20.941L90.377,21.9c0.944,0.707,1.888-0.289,1.892-0.729L91.094,20.941z"/>
				</g>
				<g opacity="0.68">
					<path fill="#FFFFFF" d="M91.097,20.939l-0.093-1.189c-1.178,0.088-1.231,1.457-0.944,1.793L91.097,20.939z"/>
				</g>
				<g opacity="0.68">
					<path fill="#FFFFFF" d="M91.097,20.939l0.644-1.01c-0.996-0.635-1.859,0.428-1.832,0.869L91.097,20.939z"/>
				</g>
			</g>
			<g>
				<g opacity="0.68">
					<path fill="#FFFFFF" d="M83.274,20.941v1.199c1.183,0,1.338-1.361,1.078-1.717L83.274,20.941z"/>
				</g>
				<g opacity="0.68">
					<path fill="#FFFFFF" d="M83.274,20.941L82.56,21.9c0.944,0.707,1.887-0.289,1.892-0.729L83.274,20.941z"/>
				</g>
				<g opacity="0.68">
					<path fill="#FFFFFF" d="M83.274,20.939l-0.09-1.189c-1.179,0.088-1.233,1.457-0.947,1.793L83.274,20.939z"/>
				</g>
				<g opacity="0.68">
					<path fill="#FFFFFF" d="M83.274,20.939l0.646-1.01c-0.996-0.635-1.858,0.428-1.832,0.869L83.274,20.939z"/>
				</g>
			</g>
			<g>
				<g opacity="0.68">
					<path fill="#FFFFFF" d="M75.456,20.941v1.199c1.182,0,1.337-1.361,1.077-1.717L75.456,20.941z"/>
				</g>
				<g opacity="0.68">
					<path fill="#FFFFFF" d="M75.456,20.941L74.739,21.9c0.945,0.707,1.886-0.289,1.89-0.729L75.456,20.941z"/>
				</g>
				<g opacity="0.68">
					<path fill="#FFFFFF" d="M75.457,20.939l-0.091-1.189c-1.178,0.088-1.233,1.457-0.946,1.793L75.457,20.939z"/>
				</g>
				<g opacity="0.68">
					<path fill="#FFFFFF" d="M75.457,20.939l0.644-1.01c-0.996-0.635-1.857,0.428-1.832,0.869L75.457,20.939z"/>
				</g>
			</g>
			<g>
				<g opacity="0.68">
					<path fill="#FFFFFF" d="M67.637,20.941v1.199c1.182,0,1.338-1.361,1.078-1.717L67.637,20.941z"/>
				</g>
				<g opacity="0.68">
					<path fill="#FFFFFF" d="M67.637,20.941L66.92,21.9c0.945,0.707,1.887-0.289,1.891-0.729L67.637,20.941z"/>
				</g>
				<g opacity="0.68">
					<path fill="#FFFFFF" d="M67.638,20.939l-0.091-1.189c-1.178,0.088-1.233,1.457-0.946,1.793L67.638,20.939z"/>
				</g>
				<g opacity="0.68">
					<path fill="#FFFFFF" d="M67.638,20.939l0.644-1.01c-0.996-0.635-1.859,0.428-1.832,0.869L67.638,20.939z"/>
				</g>
			</g>
			<g>
				<g opacity="0.68">
					<path fill="#FFFFFF" d="M59.817,20.941v1.199c1.182,0,1.338-1.361,1.078-1.717L59.817,20.941z"/>
				</g>
				<g opacity="0.68">
					<path fill="#FFFFFF" d="M59.817,20.941L59.101,21.9c0.945,0.707,1.887-0.289,1.891-0.729L59.817,20.941z"/>
				</g>
				<g opacity="0.68">
					<path fill="#FFFFFF" d="M59.818,20.939l-0.091-1.189c-1.178,0.088-1.233,1.457-0.946,1.793L59.818,20.939z"/>
				</g>
				<g opacity="0.68">
					<path fill="#FFFFFF" d="M59.818,20.939l0.644-1.01c-0.996-0.635-1.859,0.428-1.832,0.869L59.818,20.939z"/>
				</g>
			</g>
			<g>
				<g opacity="0.68">
					<path fill="#FFFFFF" d="M51.998,20.941v1.199c1.182,0,1.338-1.361,1.078-1.717L51.998,20.941z"/>
				</g>
				<g opacity="0.68">
					<path fill="#FFFFFF" d="M51.998,20.941L51.281,21.9c0.945,0.707,1.887-0.289,1.891-0.729L51.998,20.941z"/>
				</g>
				<g opacity="0.68">
					<path fill="#FFFFFF" d="M51.999,20.939l-0.091-1.189c-1.178,0.088-1.233,1.457-0.946,1.793L51.999,20.939z"/>
				</g>
				<g opacity="0.68">
					<path fill="#FFFFFF" d="M51.999,20.939l0.644-1.01c-0.996-0.635-1.859,0.428-1.832,0.869L51.999,20.939z"/>
				</g>
			</g>
			<g>
				<g opacity="0.68">
					<path fill="#FFFFFF" d="M44.179,20.941v1.199c1.182,0,1.338-1.361,1.078-1.717L44.179,20.941z"/>
				</g>
				<g opacity="0.68">
					<path fill="#FFFFFF" d="M44.179,20.941L43.462,21.9c0.945,0.707,1.887-0.289,1.891-0.729L44.179,20.941z"/>
				</g>
				<g opacity="0.68">
					<path fill="#FFFFFF" d="M44.18,20.939l-0.091-1.189c-1.178,0.088-1.233,1.457-0.946,1.793L44.18,20.939z"/>
				</g>
				<g opacity="0.68">
					<path fill="#FFFFFF" d="M44.18,20.939l0.644-1.01c-0.996-0.635-1.859,0.428-1.832,0.869L44.18,20.939z"/>
				</g>
			</g>
			<g>
				<g opacity="0.68">
					<path fill="#FFFFFF" d="M36.359,20.941v1.199c1.182,0,1.338-1.361,1.078-1.717L36.359,20.941z"/>
				</g>
				<g opacity="0.68">
					<path fill="#FFFFFF" d="M36.359,20.941L35.643,21.9c0.945,0.707,1.887-0.289,1.891-0.729L36.359,20.941z"/>
				</g>
				<g opacity="0.68">
					<path fill="#FFFFFF" d="M36.36,20.939l-0.091-1.189c-1.178,0.088-1.233,1.457-0.946,1.793L36.36,20.939z"/>
				</g>
				<g opacity="0.68">
					<path fill="#FFFFFF" d="M36.36,20.939l0.644-1.01c-0.996-0.635-1.859,0.428-1.832,0.869L36.36,20.939z"/>
				</g>
			</g>
			<g>
				<g opacity="0.68">
					<path fill="#FFFFFF" d="M28.54,20.941v1.199c1.182,0,1.338-1.361,1.078-1.717L28.54,20.941z"/>
				</g>
				<g opacity="0.68">
					<path fill="#FFFFFF" d="M28.54,20.941L27.823,21.9c0.945,0.707,1.887-0.289,1.891-0.729L28.54,20.941z"/>
				</g>
				<g opacity="0.68">
					<path fill="#FFFFFF" d="M28.541,20.939l-0.091-1.189c-1.178,0.088-1.233,1.457-0.946,1.793L28.541,20.939z"/>
				</g>
				<g opacity="0.68">
					<path fill="#FFFFFF" d="M28.541,20.939l0.644-1.01c-0.996-0.635-1.859,0.428-1.832,0.869L28.541,20.939z"/>
				</g>
			</g>
		</g>
		<g>
			<g>
				<circle fill="#CCCCCC" cx="118.469" cy="27.006" r="1.199"/>
			</g>
			<g>
				<circle fill="#CCCCCC" cx="110.649" cy="27.006" r="1.199"/>
			</g>
			<g>
				<circle fill="#CCCCCC" cx="102.83" cy="27.006" r="1.199"/>
			</g>
			<g>
				<circle fill="#CCCCCC" cx="95.011" cy="27.006" r="1.199"/>
			</g>
			<g>
				<circle fill="#CCCCCC" cx="87.19" cy="27.006" r="1.199"/>
			</g>
			<g>
				<circle fill="#CCCCCC" cx="79.372" cy="27.006" r="1.199"/>
			</g>
			<g>
				<circle fill="#CCCCCC" cx="71.553" cy="27.006" r="1.199"/>
			</g>
			<g>
				<circle fill="#CCCCCC" cx="63.734" cy="27.006" r="1.199"/>
			</g>
			<g>
				<circle fill="#CCCCCC" cx="55.915" cy="27.006" r="1.199"/>
			</g>
			<g>
				<circle fill="#CCCCCC" cx="48.095" cy="27.006" r="1.199"/>
			</g>
			<g>
				<circle fill="#CCCCCC" cx="40.276" cy="27.006" r="1.199"/>
			</g>
			<g>
				<circle fill="#CCCCCC" cx="32.457" cy="27.006" r="1.199"/>
			</g>
		</g>
		<g>
			<g>
				<rect x="117.269" y="27.006" fill="#CCCCCC" width="2.375" height="2.016"/>
			</g>
			<g>
				<rect x="109.449" y="27.006" fill="#CCCCCC" width="2.374" height="2.016"/>
			</g>
			<g>
				<rect x="101.63" y="27.006" fill="#CCCCCC" width="2.374" height="2.016"/>
			</g>
			<g>
				<rect x="93.812" y="27.006" fill="#CCCCCC" width="2.373" height="2.016"/>
			</g>
			<g>
				<rect x="85.991" y="27.006" fill="#CCCCCC" width="2.374" height="2.016"/>
			</g>
			<g>
				<rect x="78.172" y="27.006" fill="#CCCCCC" width="2.374" height="2.016"/>
			</g>
			<g>
				<rect x="70.353" y="27.006" fill="#CCCCCC" width="2.374" height="2.016"/>
			</g>
			<g>
				<rect x="62.534" y="27.006" fill="#CCCCCC" width="2.374" height="2.016"/>
			</g>
			<g>
				<rect x="54.714" y="27.006" fill="#CCCCCC" width="2.374" height="2.016"/>
			</g>
			<g>
				<rect x="46.895" y="27.006" fill="#CCCCCC" width="2.374" height="2.016"/>
			</g>
			<g>
				<rect x="39.076" y="27.006" fill="#CCCCCC" width="2.374" height="2.016"/>
			</g>
			<g>
				<rect x="31.256" y="27.006" fill="#CCCCCC" width="2.374" height="2.016"/>
			</g>
		</g>
		<g>
			<g>
				<circle fill="#CCCCCC" cx="118.469" cy="28.918" r="1.199"/>
			</g>
			<g>
				<circle fill="#CCCCCC" cx="110.649" cy="28.918" r="1.199"/>
			</g>
			<g>
				<circle fill="#CCCCCC" cx="102.83" cy="28.918" r="1.199"/>
			</g>
			<g>
				<circle fill="#CCCCCC" cx="95.011" cy="28.918" r="1.199"/>
			</g>
			<g>
				<circle fill="#CCCCCC" cx="87.19" cy="28.918" r="1.199"/>
			</g>
			<g>
				<circle fill="#CCCCCC" cx="79.372" cy="28.918" r="1.199"/>
			</g>
			<g>
				<circle fill="#CCCCCC" cx="71.553" cy="28.918" r="1.199"/>
			</g>
			<g>
				<circle fill="#CCCCCC" cx="63.734" cy="28.918" r="1.199"/>
			</g>
			<g>
				<circle fill="#CCCCCC" cx="55.915" cy="28.918" r="1.199"/>
			</g>
			<g>
				<circle fill="#CCCCCC" cx="48.095" cy="28.918" r="1.199"/>
			</g>
			<g>
				<circle fill="#CCCCCC" cx="40.276" cy="28.918" r="1.199"/>
			</g>
			<g>
				<circle fill="#CCCCCC" cx="32.457" cy="28.918" r="1.199"/>
			</g>
		</g>
		<g>
			<g>
				<g opacity="0.68">
					<path fill="#FFFFFF" d="M118.469,28.918v1.199c1.183,0,1.339-1.361,1.078-1.719L118.469,28.918z"/>
				</g>
				<g opacity="0.68">
					<path fill="#FFFFFF" d="M118.469,28.918l-0.717,0.959c0.944,0.707,1.888-0.289,1.892-0.729L118.469,28.918z"/>
				</g>
				<g opacity="0.68">
					<path fill="#FFFFFF" d="M118.47,28.916l-0.091-1.191c-1.178,0.088-1.233,1.457-0.946,1.793L118.47,28.916z"/>
				</g>
				<g opacity="0.68">
					<path fill="#FFFFFF" d="M118.47,28.916l0.646-1.012c-0.996-0.635-1.859,0.43-1.832,0.869L118.47,28.916z"/>
				</g>
			</g>
			<g>
				<g opacity="0.68">
					<path fill="#FFFFFF" d="M110.649,28.918v1.199c1.182,0,1.338-1.361,1.078-1.719L110.649,28.918z"/>
				</g>
				<g opacity="0.68">
					<path fill="#FFFFFF" d="M110.649,28.918l-0.717,0.959c0.943,0.707,1.887-0.289,1.891-0.729L110.649,28.918z"/>
				</g>
				<g opacity="0.68">
					<path fill="#FFFFFF" d="M110.649,28.916l-0.09-1.191c-1.18,0.088-1.233,1.457-0.947,1.793L110.649,28.916z"/>
				</g>
				<g opacity="0.68">
					<path fill="#FFFFFF" d="M110.649,28.916l0.645-1.012c-0.996-0.635-1.859,0.43-1.832,0.869L110.649,28.916z"/>
				</g>
			</g>
			<g>
				<g opacity="0.68">
					<path fill="#FFFFFF" d="M102.83,28.918v1.199c1.183,0,1.338-1.361,1.078-1.719L102.83,28.918z"/>
				</g>
				<g opacity="0.68">
					<path fill="#FFFFFF" d="M102.83,28.918l-0.718,0.959c0.945,0.707,1.888-0.289,1.892-0.729L102.83,28.918z"/>
				</g>
				<g opacity="0.68">
					<path fill="#FFFFFF" d="M102.831,28.916l-0.091-1.191c-1.179,0.088-1.233,1.457-0.946,1.793L102.831,28.916z"/>
				</g>
				<g opacity="0.68">
					<path fill="#FFFFFF" d="M102.831,28.916l0.645-1.012c-0.996-0.635-1.858,0.43-1.832,0.869L102.831,28.916z"/>
				</g>
			</g>
			<g>
				<g opacity="0.68">
					<path fill="#FFFFFF" d="M95.011,28.918v1.199c1.182,0,1.338-1.361,1.078-1.719L95.011,28.918z"/>
				</g>
				<g opacity="0.68">
					<path fill="#FFFFFF" d="M95.011,28.918l-0.717,0.959c0.945,0.707,1.887-0.289,1.891-0.729L95.011,28.918z"/>
				</g>
				<g opacity="0.68">
					<path fill="#FFFFFF" d="M95.013,28.916l-0.092-1.191c-1.178,0.088-1.232,1.457-0.945,1.793L95.013,28.916z"/>
				</g>
				<g opacity="0.68">
					<path fill="#FFFFFF" d="M95.013,28.916l0.645-1.012c-0.996-0.635-1.859,0.43-1.832,0.869L95.013,28.916z"/>
				</g>
			</g>
			<g>
				<g opacity="0.68">
					<path fill="#FFFFFF" d="M87.19,28.918v1.199c1.183,0,1.338-1.361,1.078-1.719L87.19,28.918z"/>
				</g>
				<g opacity="0.68">
					<path fill="#FFFFFF" d="M87.19,28.918l-0.717,0.959c0.944,0.707,1.887-0.289,1.892-0.729L87.19,28.918z"/>
				</g>
				<g opacity="0.68">
					<path fill="#FFFFFF" d="M87.192,28.916l-0.092-1.191c-1.179,0.088-1.232,1.457-0.945,1.793L87.192,28.916z"/>
				</g>
				<g opacity="0.68">
					<path fill="#FFFFFF" d="M87.192,28.916l0.644-1.012c-0.996-0.635-1.858,0.43-1.832,0.869L87.192,28.916z"/>
				</g>
			</g>
			<g>
				<g opacity="0.68">
					<path fill="#FFFFFF" d="M79.372,28.918v1.199c1.182,0,1.338-1.361,1.078-1.719L79.372,28.918z"/>
				</g>
				<g opacity="0.68">
					<path fill="#FFFFFF" d="M79.372,28.918l-0.717,0.959c0.945,0.707,1.887-0.289,1.891-0.729L79.372,28.918z"/>
				</g>
				<g opacity="0.68">
					<path fill="#FFFFFF" d="M79.373,28.916l-0.091-1.191c-1.178,0.088-1.233,1.457-0.946,1.793L79.373,28.916z"/>
				</g>
				<g opacity="0.68">
					<path fill="#FFFFFF" d="M79.373,28.916l0.644-1.012c-0.996-0.635-1.857,0.43-1.832,0.869L79.373,28.916z"/>
				</g>
			</g>
			<g>
				<g opacity="0.68">
					<path fill="#FFFFFF" d="M71.553,28.918v1.199c1.182,0,1.338-1.361,1.078-1.719L71.553,28.918z"/>
				</g>
				<g opacity="0.68">
					<path fill="#FFFFFF" d="M71.553,28.918l-0.717,0.959c0.945,0.707,1.887-0.289,1.891-0.729L71.553,28.918z"/>
				</g>
				<g opacity="0.68">
					<path fill="#FFFFFF" d="M71.554,28.916l-0.091-1.191c-1.178,0.088-1.233,1.457-0.946,1.793L71.554,28.916z"/>
				</g>
				<g opacity="0.68">
					<path fill="#FFFFFF" d="M71.554,28.916l0.644-1.012c-0.996-0.635-1.859,0.43-1.832,0.869L71.554,28.916z"/>
				</g>
			</g>
			<g>
				<g opacity="0.68">
					<path fill="#FFFFFF" d="M63.734,28.918v1.199c1.182,0,1.338-1.361,1.078-1.719L63.734,28.918z"/>
				</g>
				<g opacity="0.68">
					<path fill="#FFFFFF" d="M63.734,28.918l-0.717,0.959c0.945,0.707,1.887-0.289,1.891-0.729L63.734,28.918z"/>
				</g>
				<g opacity="0.68">
					<path fill="#FFFFFF" d="M63.735,28.916l-0.091-1.191c-1.178,0.088-1.233,1.457-0.946,1.793L63.735,28.916z"/>
				</g>
				<g opacity="0.68">
					<path fill="#FFFFFF" d="M63.735,28.916l0.644-1.012c-0.996-0.635-1.859,0.43-1.832,0.869L63.735,28.916z"/>
				</g>
			</g>
			<g>
				<g opacity="0.68">
					<path fill="#FFFFFF" d="M55.915,28.918v1.199c1.182,0,1.338-1.361,1.078-1.719L55.915,28.918z"/>
				</g>
				<g opacity="0.68">
					<path fill="#FFFFFF" d="M55.915,28.918l-0.717,0.959c0.945,0.707,1.887-0.289,1.891-0.729L55.915,28.918z"/>
				</g>
				<g opacity="0.68">
					<path fill="#FFFFFF" d="M55.916,28.916l-0.091-1.191c-1.178,0.088-1.233,1.457-0.946,1.793L55.916,28.916z"/>
				</g>
				<g opacity="0.68">
					<path fill="#FFFFFF" d="M55.916,28.916l0.644-1.012c-0.996-0.635-1.859,0.43-1.832,0.869L55.916,28.916z"/>
				</g>
			</g>
			<g>
				<g opacity="0.68">
					<path fill="#FFFFFF" d="M48.095,28.918v1.199c1.182,0,1.338-1.361,1.078-1.719L48.095,28.918z"/>
				</g>
				<g opacity="0.68">
					<path fill="#FFFFFF" d="M48.095,28.918l-0.717,0.959c0.945,0.707,1.887-0.289,1.891-0.729L48.095,28.918z"/>
				</g>
				<g opacity="0.68">
					<path fill="#FFFFFF" d="M48.096,28.916l-0.091-1.191c-1.178,0.088-1.233,1.457-0.946,1.793L48.096,28.916z"/>
				</g>
				<g opacity="0.68">
					<path fill="#FFFFFF" d="M48.096,28.916l0.644-1.012c-0.996-0.635-1.859,0.43-1.832,0.869L48.096,28.916z"/>
				</g>
			</g>
			<g>
				<g opacity="0.68">
					<path fill="#FFFFFF" d="M40.276,28.918v1.199c1.182,0,1.338-1.361,1.078-1.719L40.276,28.918z"/>
				</g>
				<g opacity="0.68">
					<path fill="#FFFFFF" d="M40.276,28.918l-0.717,0.959c0.945,0.707,1.887-0.289,1.891-0.729L40.276,28.918z"/>
				</g>
				<g opacity="0.68">
					<path fill="#FFFFFF" d="M40.277,28.916l-0.091-1.191c-1.178,0.088-1.233,1.457-0.946,1.793L40.277,28.916z"/>
				</g>
				<g opacity="0.68">
					<path fill="#FFFFFF" d="M40.277,28.916l0.644-1.012c-0.996-0.635-1.859,0.43-1.832,0.869L40.277,28.916z"/>
				</g>
			</g>
			<g>
				<g opacity="0.68">
					<path fill="#FFFFFF" d="M32.457,28.918v1.199c1.182,0,1.338-1.361,1.078-1.719L32.457,28.918z"/>
				</g>
				<g opacity="0.68">
					<path fill="#FFFFFF" d="M32.457,28.918l-0.717,0.959c0.945,0.707,1.887-0.289,1.891-0.729L32.457,28.918z"/>
				</g>
				<g opacity="0.68">
					<path fill="#FFFFFF" d="M32.458,28.916l-0.091-1.191c-1.178,0.088-1.233,1.457-0.946,1.793L32.458,28.916z"/>
				</g>
				<g opacity="0.68">
					<path fill="#FFFFFF" d="M32.458,28.916l0.644-1.012c-0.996-0.635-1.859,0.43-1.832,0.869L32.458,28.916z"/>
				</g>
			</g>
		</g>
	</g>
</g>
<g>
	<g>
		<path fill="#808080" d="M116.04,10.345c-0.119,0-0.216,0.097-0.216,0.216v1.959c0,0.119,0.089,0.216,0.198,0.216
			c0.108,0,0.197-0.097,0.197-0.216v-1.527c0-0.119,0.098-0.217,0.217-0.217h3.893c0.119,0,0.216,0.098,0.216,0.217v1.527
			c0,0.119,0.089,0.216,0.198,0.216s0.197-0.097,0.197-0.216v-1.959c0-0.119-0.097-0.216-0.215-0.216H116.04z"/>
	</g>
	<g>
		<path fill="#808080" d="M101.731,10.345c-0.119,0-0.217,0.097-0.217,0.216v1.959c0,0.119,0.09,0.216,0.198,0.216
			s0.198-0.097,0.198-0.216v-1.527c0-0.119,0.097-0.217,0.216-0.217h3.894c0.119,0,0.215,0.098,0.215,0.217v1.527
			c0,0.119,0.09,0.216,0.199,0.216c0.108,0,0.197-0.097,0.197-0.216v-1.959c0-0.119-0.097-0.216-0.216-0.216H101.731z"/>
	</g>
	<g>
		<path fill="#808080" d="M87.422,10.345c-0.118,0-0.216,0.097-0.216,0.216v1.959c0,0.119,0.09,0.216,0.197,0.216
			c0.109,0,0.199-0.097,0.199-0.216v-1.527c0-0.119,0.098-0.217,0.215-0.217h3.894c0.119,0,0.216,0.098,0.216,0.217v1.527
			c0,0.119,0.09,0.216,0.198,0.216s0.198-0.097,0.198-0.216v-1.959c0-0.119-0.098-0.216-0.217-0.216H87.422z"/>
	</g>
	<g>
		<path fill="#808080" d="M73.113,10.345c-0.119,0-0.216,0.097-0.216,0.216v1.959c0,0.119,0.089,0.216,0.198,0.216
			c0.109,0,0.198-0.097,0.198-0.216v-1.527c0-0.119,0.097-0.217,0.216-0.217h3.893c0.119,0,0.217,0.098,0.217,0.217v1.527
			c0,0.119,0.089,0.216,0.197,0.216c0.109,0,0.199-0.097,0.199-0.216v-1.959c0-0.119-0.098-0.216-0.217-0.216H73.113z"/>
	</g>
	<g>
		<path fill="#808080" d="M58.804,10.345c-0.119,0-0.216,0.097-0.216,0.216v1.959c0,0.119,0.089,0.216,0.198,0.216
			c0.109,0,0.198-0.097,0.198-0.216v-1.527c0-0.119,0.097-0.217,0.216-0.217h3.893c0.119,0,0.216,0.098,0.216,0.217v1.527
			c0,0.119,0.089,0.216,0.198,0.216c0.109,0,0.198-0.097,0.198-0.216v-1.959c0-0.119-0.097-0.216-0.216-0.216H58.804z"/>
	</g>
	<g>
		<path fill="#808080" d="M44.496,10.345c-0.119,0-0.216,0.097-0.216,0.216v1.959c0,0.119,0.089,0.216,0.198,0.216
			s0.198-0.097,0.198-0.216v-1.527c0-0.119,0.097-0.217,0.216-0.217h3.893c0.119,0,0.216,0.098,0.216,0.217v1.527
			c0,0.119,0.089,0.216,0.198,0.216c0.109,0,0.198-0.097,0.198-0.216v-1.959c0-0.119-0.097-0.216-0.216-0.216H44.496z"/>
	</g>
	<g>
		<path fill="#808080" d="M30.187,10.345c-0.119,0-0.216,0.097-0.216,0.216v1.959c0,0.119,0.089,0.216,0.198,0.216
			s0.198-0.097,0.198-0.216v-1.527c0-0.119,0.097-0.217,0.216-0.217h3.893c0.119,0,0.216,0.098,0.216,0.217v1.527
			c0,0.119,0.089,0.216,0.198,0.216s0.198-0.097,0.198-0.216v-1.959c0-0.119-0.097-0.216-0.216-0.216H30.187z"/>
	</g>
</g>
</svg>
