<?xml version="1.0" encoding="utf-8"?>
<!-- Generator: Adobe Illustrator 15.0.1, SVG Export Plug-In . SVG Version: 6.00 Build 0)  -->
<!DOCTYPE svg PUBLIC "-//W3C//DTD SVG 1.1//EN" "http://www.w3.org/Graphics/SVG/1.1/DTD/svg11.dtd">
<svg version="1.1" id="Ebene_1" xmlns="http://www.w3.org/2000/svg" xmlns:xlink="http://www.w3.org/1999/xlink" x="0px" y="0px"
	 width="43.199px" height="60.109px" viewBox="8.455 -8.455 43.199 60.109" enable-background="new 8.455 -8.455 43.199 60.109"
	 xml:space="preserve">
<g>
	<g>
		<g>
			<path fill="#7A7A7A" d="M8.455-8.455v60.109h43.199V-8.455C51.464-8.455,8.648-8.455,8.455-8.455z"/>
		</g>
	</g>
	<g>
		
			<line fill="none" stroke="#FFFFFF" stroke-width="0.8064" stroke-linecap="round" stroke-opacity="0.5" x1="51.088" y1="51.088" x2="51.088" y2="17.209"/>
		
			<line fill="none" stroke="#FFFFFF" stroke-width="0.8064" stroke-linecap="round" stroke-opacity="0.5" x1="9.021" y1="51.088" x2="9.021" y2="17.209"/>
	</g>
</g>
<g>
	<path fill="#666666" d="M39.549,0.371l0.098-7.992c0.027-0.303,0.258-0.552,0.559-0.553l0.16-0.001l-6.801,0.012h0.168
		c0.282,0,0.536,0.25,0.562,0.551l0.121,7.992L39.549,0.371z"/>
	<path d="M40.363-8.176c0.278,0,0.5,0.25,0.48,0.551l-0.463,23.212c-0.025,0.586-0.423,1.07-0.928,1.071l-4.906,0.008
		c-0.501,0.001-0.924-0.491-0.936-1.066L33.089-7.612c-0.03-0.303,0.194-0.552,0.474-0.553h0.166c0.283,0,0.537,0.25,0.562,0.551
		l0.4,19.815c0.016,0.617,0.482,1.133,1.1,1.132l2.429-0.004c0.562-0.001,1.082-0.523,1.099-1.135l0.324-19.816
		c0.028-0.303,0.258-0.552,0.561-0.553L40.363-8.176L40.363-8.176z"/>
	<g>
		<path fill="#666666" d="M35.83,13.333l2.304-0.004c0.533,0,1.054-0.503,1.104-1.106l0.082-0.987h-4.633l0.036,0.995
			C34.773,12.838,35.244,13.334,35.83,13.333z"/>
	</g>
	<g>
		<path fill="#999999" d="M34.674,11.592c0.05,0.629,0.557,1.141,1.15,1.14l2.341-0.004c0.54-0.001,1.099-0.521,1.151-1.144
			l-0.064,0.639c-0.051,0.604-0.572,1.106-1.104,1.106l-2.305,0.004c-0.585,0.001-1.057-0.495-1.105-1.104L34.674,11.592z"/>
	</g>
</g>
<g>
	<path fill="#666666" d="M25.355,0.371l0.098-7.992c0.029-0.303,0.259-0.552,0.562-0.553l0.16-0.001l-6.802,0.012h0.167
		c0.282,0,0.536,0.25,0.562,0.551l0.121,7.992L25.355,0.371z"/>
	<path d="M26.171-8.176c0.278,0,0.501,0.25,0.481,0.551l-0.463,23.212c-0.025,0.586-0.425,1.07-0.93,1.071l-4.906,0.008
		c-0.501,0.001-0.925-0.491-0.935-1.066L18.896-7.612c-0.029-0.303,0.193-0.552,0.473-0.553h0.166c0.283,0,0.537,0.25,0.562,0.551
		L20.5,12.202c0.014,0.617,0.48,1.133,1.099,1.132l2.429-0.004c0.562-0.001,1.082-0.523,1.1-1.135l0.324-19.816
		c0.026-0.303,0.258-0.552,0.56-0.553L26.171-8.176L26.171-8.176z"/>
	<g>
		<path fill="#666666" d="M21.637,13.333l2.304-0.004c0.533,0,1.055-0.503,1.104-1.106l0.083-0.987h-4.633l0.035,0.995
			C20.58,12.838,21.052,13.334,21.637,13.333z"/>
	</g>
	<g>
		<path fill="#999999" d="M20.48,11.592c0.051,0.629,0.559,1.141,1.152,1.14l2.34-0.004c0.541-0.001,1.1-0.521,1.15-1.144
			l-0.064,0.639c-0.05,0.604-0.57,1.106-1.104,1.106l-2.305,0.004c-0.586,0.001-1.058-0.495-1.105-1.104L20.48,11.592z"/>
	</g>
</g>
<g>
	<g>
		<path fill="none" stroke="#7A7A7A" stroke-width="0.75" stroke-miterlimit="10" d="M8.982-7.123
			C7.707-2.451,5.499-1.169,5.499,5.424c0,2.833,0,4.708,0,5.375s-0.375,3.833-1.417,3.833"/>
		<path fill="#CCCCCC" d="M4.844,14.621l-0.391-0.727c-0.117,0.222-0.243,0.363-0.373,0.363v0.75
			C4.383,15.007,4.634,14.86,4.844,14.621z"/>
	</g>
	<g>
		<path fill="none" stroke="#7A7A7A" stroke-width="0.75" stroke-miterlimit="10" d="M51.129-7.123
			c1.275,4.672,3.484,5.953,3.484,12.547c0,2.833,0,4.708,0,5.375s0.375,3.833,1.416,3.833"/>
		<path fill="#CCCCCC" d="M55.266,14.621l0.39-0.727c0.119,0.222,0.244,0.363,0.373,0.363v0.75
			C55.727,15.007,55.476,14.86,55.266,14.621z"/>
	</g>
</g>
<line fill="none" stroke="#FFFFFF" stroke-width="0.8064" stroke-linecap="round" stroke-opacity="0.5" x1="49.804" y1="51.088" x2="10.304" y2="51.088"/>
<g>
	
		<line fill="none" stroke="#4D4D4D" stroke-width="0.8064" stroke-linecap="round" x1="46.912" y1="50.666" x2="32.183" y2="50.666"/>
	
		<line fill="none" stroke="#4D4D4D" stroke-width="0.8064" stroke-linecap="round" x1="27.927" y1="50.666" x2="13.197" y2="50.666"/>
</g>
</svg>
