<?xml version="1.0" encoding="utf-8"?>
<!-- Generator: Adobe Illustrator 15.1.0, SVG Export Plug-In . SVG Version: 6.00 Build 0)  -->
<!DOCTYPE svg PUBLIC "-//W3C//DTD SVG 1.1//EN" "http://www.w3.org/Graphics/SVG/1.1/DTD/svg11.dtd">
<svg version="1.1" id="Ebene_1" xmlns:svg="http://www.w3.org/2000/svg"
	 xmlns="http://www.w3.org/2000/svg" xmlns:xlink="http://www.w3.org/1999/xlink" x="0px" y="0px" width="41.244px"
	 height="45.79px" viewBox="0 0 41.244 45.79" enable-background="new 0 0 41.244 45.79" xml:space="preserve">
<polygon fill="#404040" points="38.997,44.406 38.997,41.161 41.244,41.161 41.244,0.077 1.984,0.077 1.984,20.766 0,20.766 
	0,42.119 3.09,42.119 3.09,27.921 29.997,27.921 29.997,45.644 41.244,45.644 41.244,44.406 "/>
<polygon fill="#808080" points="39.138,45.79 29.995,45.79 29.997,45.644 39.158,45.644 "/>
<rect x="1.984" y="27.921" fill="#202020" width="28.013" height="0.254"/>
<g>
	<g>
		<g>
			<rect x="25.267" y="25.425" fill="#999999" width="2.267" height="2.496"/>
			<rect x="25.267" y="25.28" fill="#CCCCCC" width="2.267" height="2.496"/>
			<rect x="25.744" y="25.425" fill="#D6D6D6" width="1.224" height="8"/>
			<rect x="25.744" y="28.846" fill="#C2C2C2" width="1.224" height="0.929"/>
			<rect x="25.744" y="28.332" fill="#ADADAD" width="1.224" height="0.604"/>
			<rect x="25.744" y="24.103" fill="#999999" width="1.224" height="4.229"/>
		</g>
	</g>
	<g>
		<g>
			<rect x="22.099" y="25.425" fill="#999999" width="2.267" height="2.496"/>
			<rect x="22.099" y="25.28" fill="#CCCCCC" width="2.267" height="2.496"/>
			<rect x="22.576" y="25.425" fill="#D6D6D6" width="1.224" height="8"/>
			<rect x="22.576" y="28.846" fill="#C2C2C2" width="1.224" height="0.929"/>
			<rect x="22.576" y="28.332" fill="#ADADAD" width="1.224" height="0.604"/>
			<rect x="22.576" y="24.103" fill="#999999" width="1.224" height="4.229"/>
		</g>
	</g>
	<g>
		<g>
			<rect x="18.93" y="25.425" fill="#999999" width="2.267" height="2.496"/>
			<rect x="18.93" y="25.28" fill="#CCCCCC" width="2.267" height="2.496"/>
			<rect x="19.408" y="25.425" fill="#D6D6D6" width="1.224" height="8"/>
			<rect x="19.408" y="28.846" fill="#C2C2C2" width="1.224" height="0.929"/>
			<rect x="19.408" y="28.332" fill="#ADADAD" width="1.224" height="0.604"/>
			<rect x="19.408" y="24.103" fill="#999999" width="1.224" height="4.229"/>
		</g>
	</g>
	<g>
		<g>
			<rect x="15.762" y="25.425" fill="#999999" width="2.267" height="2.496"/>
			<rect x="15.762" y="25.28" fill="#CCCCCC" width="2.267" height="2.496"/>
			<rect x="16.24" y="25.425" fill="#D6D6D6" width="1.224" height="8"/>
			<rect x="16.24" y="28.846" fill="#C2C2C2" width="1.224" height="0.929"/>
			<rect x="16.24" y="28.332" fill="#ADADAD" width="1.224" height="0.604"/>
			<rect x="16.24" y="24.103" fill="#999999" width="1.224" height="4.229"/>
		</g>
	</g>
	<g>
		<g>
			<rect x="12.594" y="25.425" fill="#999999" width="2.267" height="2.496"/>
			<rect x="12.594" y="25.28" fill="#CCCCCC" width="2.267" height="2.496"/>
			<rect x="13.072" y="25.425" fill="#D6D6D6" width="1.224" height="8"/>
			<rect x="13.072" y="28.846" fill="#C2C2C2" width="1.224" height="0.929"/>
			<rect x="13.072" y="28.332" fill="#ADADAD" width="1.224" height="0.604"/>
			<rect x="13.072" y="24.103" fill="#999999" width="1.224" height="4.229"/>
		</g>
	</g>
	<g>
		<g>
			<rect x="9.426" y="25.425" fill="#999999" width="2.267" height="2.496"/>
			<rect x="9.426" y="25.28" fill="#CCCCCC" width="2.267" height="2.496"/>
			<rect x="9.904" y="25.425" fill="#D6D6D6" width="1.224" height="8"/>
			<rect x="9.904" y="28.846" fill="#C2C2C2" width="1.224" height="0.929"/>
			<rect x="9.904" y="28.332" fill="#ADADAD" width="1.224" height="0.604"/>
			<rect x="9.904" y="24.103" fill="#999999" width="1.224" height="4.229"/>
		</g>
	</g>
	<g>
		<g>
			<rect x="6.258" y="25.425" fill="#999999" width="2.267" height="2.496"/>
			<rect x="6.258" y="25.28" fill="#CCCCCC" width="2.267" height="2.496"/>
			<rect x="6.736" y="25.425" fill="#D6D6D6" width="1.224" height="8"/>
			<rect x="6.736" y="28.846" fill="#C2C2C2" width="1.224" height="0.929"/>
			<rect x="6.736" y="28.332" fill="#ADADAD" width="1.224" height="0.604"/>
			<rect x="6.736" y="24.103" fill="#999999" width="1.224" height="4.229"/>
		</g>
	</g>
	<g>
		<g>
			<rect x="3.09" y="25.425" fill="#999999" width="2.267" height="2.496"/>
			<rect x="3.09" y="25.28" fill="#CCCCCC" width="2.267" height="2.496"/>
			<rect x="3.568" y="25.425" fill="#D6D6D6" width="1.224" height="8"/>
			<rect x="3.568" y="28.846" fill="#C2C2C2" width="1.224" height="0.929"/>
			<rect x="3.568" y="28.332" fill="#ADADAD" width="1.224" height="0.604"/>
			<rect x="3.568" y="24.103" fill="#999999" width="1.224" height="4.229"/>
		</g>
	</g>
</g>
<path fill="#808080" d="M0,41.481h2.455c0,0,0.906-1.462,2.221-1.462c1.314,0,24.544,0,24.544,0c1.598,0.04,2.883,1.324,2.922,2.923
	c-0.008,0.096-0.008,0.194,0,0.291c0.081,1.049,0.995,1.84,2.045,1.76h4.811v-2.142l-2.375-0.001v-1.688h2.375v0.941l2.247,0.003
	v-1.389h-4.622v2.688l2.375,0.001v1.142h-4.811c-1.05,0.08-1.964-0.711-2.045-1.76c-0.008-0.097-0.008-0.195,0-0.291
	c-0.039-1.599-1.324-2.883-2.922-2.923c0,0-23.229,0-24.544,0c-1.315,0-2.221,1.462-2.221,1.462H0V41.481z"/>
<rect x="38.747" y="44.793" fill="#808080" width="0.25" height="0.851"/>
<rect x="0" y="41.269" fill="#808080" width="0.188" height="0.851"/>
<rect id="connector11pad_1_" x="38.997" y="43.649" fill="#AF7418" width="2.247" height="2.142"/>
<rect id="connector11pad" x="38.997" y="43.502" fill="#F7BD13" width="2.247" height="2.142"/>
<path fill="#808080" d="M3.09,27.393c0-0.396,0.324-0.72,0.72-0.72h8.592c0.396,0,0.72,0.324,0.72,0.72v-0.279
	c0-0.396-0.324-0.72-0.72-0.72H3.81c-0.396,0-0.72,0.324-0.72,0.72V27.393z"/>
<path fill="#808080" d="M15.606,27.393c0-0.396,0.324-0.72,0.72-0.72h8.593c0.396,0,0.72,0.324,0.72,0.72v-0.279
	c0-0.396-0.324-0.72-0.72-0.72h-8.593c-0.396,0-0.72,0.324-0.72,0.72V27.393z"/>
<g>
	<path fill="#808080" d="M33.872,10.989c0-0.396,0.324-0.72,0.72-0.72h6.652v0.146h-6.652c-0.396,0-0.72,0.324-0.72,0.72V10.989z"/>
</g>
<rect x="0" y="42.119" fill="#808080" width="3.09" height="0.167"/>
<rect x="38.854" y="10.415" fill="#333333" width="2.39" height="20.766"/>
<path fill="#D1D1D1" d="M34.592,10.269h6.652V0.077h-2.821v0.412c0,0.27-0.219,0.489-0.488,0.489s-0.488-0.219-0.488-0.489V0.077
	H25.229v16.215c0,0.396-0.324,0.72-0.72,0.72H24.46l-0.6-16.035h-2.365l-0.6,16.035h-0.048c-0.396,0-0.72-0.324-0.72-0.72V0.077
	H9.072v16.218c0,0.396-0.324,0.72-0.72,0.72H8.303l-0.6-16.038H5.338l-0.6,16.038H4.689c-0.396,0-0.72-0.324-0.72-0.72V0.077H0
	v41.199h2.455c0,0,0.906-1.462,2.221-1.462c1.314,0,24.544,0,24.544,0c1.598,0.04,2.883,1.324,2.922,2.923
	c-0.008,0.096-0.008,0.194,0,0.291c0.081,1.049,0.995,1.84,2.045,1.76h4.811v-2.142l-2.375-0.001v-1.688h4.622v-9.775h-1.956V20.394
	h0.211c0.396,0,0.72-0.324,0.72-0.72v-2.685c0-0.396-0.324-0.72-0.72-0.72h-3.186c-0.396,0-0.72,0.324-0.72,0.72v2.685
	c0,0.396,0.324,0.72,0.72,0.72h0.212v10.787h-1.934c-0.396,0-0.72-0.324-0.72-0.72V10.989
	C33.872,10.593,34.196,10.269,34.592,10.269z M13.122,32.587c0,0.396-0.324,0.72-0.72,0.72H3.81c-0.396,0-0.72-0.324-0.72-0.72
	v-5.474c0-0.396,0.324-0.72,0.72-0.72h8.592c0.396,0,0.72,0.324,0.72,0.72V32.587z M25.639,32.587c0,0.396-0.324,0.72-0.72,0.72
	h-8.593c-0.396,0-0.72-0.324-0.72-0.72v-5.474c0-0.396,0.324-0.72,0.72-0.72h8.593c0.396,0,0.72,0.324,0.72,0.72V32.587z"/>
<g>
	<path fill="#DADADA" d="M39.288,29.775v-9.381h0.211c0.396,0,0.72-0.324,0.72-0.72v-2.685c0-0.396-0.324-0.72-0.72-0.72h-3.186
		c-0.396,0-0.72,0.324-0.72,0.72v2.685c0,0.396,0.324,0.72,0.72,0.72h0.212v9.381"/>
	<path fill="#E3E3E3" d="M39.288,24.103v-3.709h0.211c0.396,0,0.72-0.324,0.72-0.72v-2.685c0-0.396-0.324-0.72-0.72-0.72h-3.186
		c-0.396,0-0.72,0.324-0.72,0.72v2.685c0,0.396,0.324,0.72,0.72,0.72h0.212v3.709"/>
</g>
</svg>
