<?xml version="1.0" encoding="utf-8"?>
<!-- Generator: Adobe Illustrator 15.1.0, SVG Export Plug-In . SVG Version: 6.00 Build 0)  -->
<!DOCTYPE svg PUBLIC "-//W3C//DTD SVG 1.1//EN" "http://www.w3.org/Graphics/SVG/1.1/DTD/svg11.dtd">
<svg version="1.1" id="Ebene_1" xmlns:svg="http://www.w3.org/2000/svg"
	 xmlns="http://www.w3.org/2000/svg" xmlns:xlink="http://www.w3.org/1999/xlink" x="0px" y="0px" width="43.229px"
	 height="51.782px" viewBox="0 0 43.229 51.782" enable-background="new 0 0 43.229 51.782" xml:space="preserve">
<polygon fill="#4D4D4D" points="0,1.657 0,10.97 1.98,10.97 1.98,20.845 0,20.845 0,48.877 6.683,48.877 6.683,35.782 
	31.323,35.782 31.323,51.782 43.229,51.782 43.229,1.657 "/>
<path fill="#999999" d="M5.385,26.064c0-0.357,0.292-0.648,0.648-0.648h3.815c0.356,0,0.648,0.291,0.648,0.648V25.74
	c0-0.356-0.292-0.648-0.648-0.648H6.033c-0.356,0-0.648,0.292-0.648,0.648V26.064z"/>
<path fill="#999999" d="M25.81,26.064c0-0.357,0.291-0.648,0.648-0.648h3.814c0.357,0,0.648,0.291,0.648,0.648V25.74
	c0-0.356-0.291-0.648-0.648-0.648h-3.814c-0.357,0-0.648,0.292-0.648,0.648V26.064z"/>
<polygon fill="#808080" points="42.421,3.532 41.635,3.532 36.239,3.532 36.239,5.532 41.635,5.532 41.635,48.877 43.208,48.877 
	43.208,3.532 "/>
<path fill="#999999" d="M36.527,20.689c0-0.357,0.291-0.648,0.648-0.648h4.139c0.357,0,0.648,0.291,0.648,0.648v-0.324
	c0-0.356-0.291-0.648-0.648-0.648h-4.139c-0.357,0-0.648,0.292-0.648,0.648V20.689z"/>
<rect x="34.844" y="3.498" fill="#999999" width="8.364" height="0.23"/>
<g id="copper1" display="none">
	<rect id="connector8pad" x="0.284" y="43.654" display="inline" fill="#F7BD13" width="4.252" height="3.827"/>
	<rect id="connector9pad" x="38.977" y="46.489" display="inline" fill="#F7BD13" width="4.252" height="3.826"/>
	<rect id="connector10pad" y="35.574" display="inline" fill="#F7BD13" width="3.969" height="2.835"/>
	<rect id="connector11pad" x="2.197" y="0.425" display="inline" fill="#F7BD13" width="2.835" height="3.686"/>
	<rect id="connector7pad" x="6.378" y="0" display="inline" fill="#F7BD13" width="2.126" height="4.252"/>
	<rect id="connector6pad" x="9.496" y="0" display="inline" fill="#F7BD13" width="2.126" height="4.252"/>
	<rect id="connector5pad" x="12.614" y="0" display="inline" fill="#F7BD13" width="2.126" height="4.252"/>
	<rect id="connector4pad" x="15.732" y="0" display="inline" fill="#F7BD13" width="2.126" height="4.252"/>
	<rect id="connector3pad" x="18.851" y="0" display="inline" fill="#F7BD13" width="2.126" height="4.252"/>
	<rect id="connector2pad" x="21.969" y="0" display="inline" fill="#F7BD13" width="2.126" height="4.252"/>
	<rect id="connector1pad" x="25.087" y="0" display="inline" fill="#F7BD13" width="2.125" height="4.252"/>
	<rect id="connector0pad" x="28.204" y="0" display="inline" fill="#F7BD13" width="2.127" height="4.252"/>
	<g id="copper0" display="inline">
	</g>
</g>
<rect y="0.281" fill="#CCCCCC" width="36.989" height="1.376"/>
<path fill="#B3B3B3" d="M43.229,3.532V0h-6.271c0.009,0.054,0.032,0.102,0.032,0.158v0.123c0,0.551-0.45,1.001-1.001,1.001H0v9.688
	h1.984v9.875H0v18.703h3.339v1.124H2.591v1.485h0.748v1.125H0v4.202l1.984-0.004c7.255-3.073,28.68-4.107,35.816,0.834v2.091h5.428
	v-2.373h-2.239v-3.125h2.239v-34.75h-7.989V3.532H43.229z M10.489,36.676c0,0.356-0.292,0.648-0.648,0.648H9.184L8.531,27.22
	c0-0.967-0.56-1-1.25-1s-1.25,0.033-1.25,1l0.653,10.104H6.026c-0.356,0-0.648-0.292-0.648-0.648v-10.87
	c0-0.357,0.292-0.648,0.648-0.648h3.815c0.356,0,0.648,0.292,0.648,0.648V36.676z M40.239,47.907h-1.625v-1.75h1.625V47.907z
	 M36.527,20.43c0-0.356,0.292-0.648,0.648-0.648h4.04c0.356,0,0.648,0.292,0.648,0.648v15.913c0,0.356-0.292,0.648-0.648,0.648
	h-0.789V25.407l0.676-1.125v-1.875l-2.801-1.25c0,0-1.125,1-1.125,2.125l1.8,2.125v11.584h-1.464c-0.356,0-0.648-0.292-0.648-0.648
	V24.314l-0.337-1.156V20.43z M30.92,36.676c0,0.356-0.292,0.648-0.648,0.648h-0.657l0.75-9.917c0-0.967-0.56-1-1.25-1
	s-1.25,0.033-1.25,1l-0.75,9.917h-0.657c-0.356,0-0.648-0.292-0.648-0.648v-10.87c0-0.357,0.292-0.648,0.648-0.648h3.814
	c0.356,0,0.648,0.292,0.648,0.648V36.676z"/>
<path fill="#808080" d="M16.899,40.446c-0.356,0-0.502-0.253-0.324-0.562l1.477-2.558c0.178-0.309,0.47-0.309,0.647,0l1.477,2.558
	c0.178,0.309,0.032,0.562-0.324,0.562H16.899z"/>
<path fill="#999999" d="M16.899,40.672c-0.356,0-0.502-0.253-0.324-0.562l1.477-2.558c0.178-0.309,0.47-0.309,0.647,0l1.477,2.558
	c0.178,0.309,0.032,0.562-0.324,0.562H16.899z"/>
<rect x="35.239" y="4.907" fill="#CCCCCC" width="1" height="4.25"/>
<path fill="#808080" d="M12.489,15.181c0,1.249-0.744,2.271-1.653,2.271s-1.653-1.022-1.653-2.271V15.03
	c0-1.249,0.744-2.271,1.653-2.271s1.653,1.022,1.653,2.271V15.181z"/>
<path fill="#808080" d="M27.114,15.18c0,1.25-0.744,2.271-1.652,2.271c-0.909,0-1.653-1.022-1.653-2.271V15.03
	c0-1.249,0.744-2.271,1.653-2.271c0.908,0,1.652,1.022,1.652,2.271V15.18z"/>
<path fill="#999999" d="M12.489,15.292c0,1.188-0.744,2.16-1.653,2.16s-1.653-0.972-1.653-2.16v-0.144
	c0-1.188,0.744-2.16,1.653-2.16s1.653,0.972,1.653,2.16V15.292z"/>
<path fill="#999999" d="M27.114,15.292c0,1.188-0.744,2.16-1.652,2.16c-0.909,0-1.653-0.972-1.653-2.16v-0.144
	c0-1.188,0.744-2.16,1.653-2.16c0.908,0,1.652,0.972,1.652,2.16V15.292z"/>
<path fill="#808080" d="M9.586,41.127c0,1.188-0.744,2.16-1.653,2.16s-1.653-0.972-1.653-2.16v-0.145c0-1.188,0.744-2.16,1.653-2.16
	s1.653,0.972,1.653,2.16V41.127z"/>
<path fill="#808080" d="M32.573,41.127c0,1.188-0.744,2.16-1.652,2.16c-0.909,0-1.653-0.972-1.653-2.16v-0.145
	c0-1.188,0.744-2.16,1.653-2.16c0.908,0,1.652,0.972,1.652,2.16V41.127z"/>
<path fill="#999999" d="M9.586,41.357c0,1.188-0.744,2.16-1.653,2.16s-1.653-0.972-1.653-2.16v-0.145c0-1.188,0.744-2.16,1.653-2.16
	s1.653,0.972,1.653,2.16V41.357z"/>
<path fill="#999999" d="M32.573,41.357c0,1.188-0.744,2.16-1.652,2.16c-0.909,0-1.653-0.972-1.653-2.16v-0.145
	c0-1.188,0.744-2.16,1.653-2.16c0.908,0,1.652,0.972,1.652,2.16V41.357z"/>
<path opacity="0.75" fill="#FBB03B" d="M43.229,44.907v-3.623H2.591v0.873h0.748v1.125H0.043L0,47.485l1.984-0.004
	c7.255-3.073,28.68-4.107,35.816,0.834v2.091h5.428v-2.373h-2.239v-3.125H43.229z M40.239,47.907h-1.625v-1.75h1.625V47.907z"/>
<path fill="#999999" d="M0,47.718h0.333c0,0-0.157,0.317-0.157,0.579s0.157,0.58,0.157,0.58H0V47.718z"/>
<path fill="#999999" d="M43.229,51.782H42.9c0,0,0.155-0.313,0.155-0.571S42.9,50.64,42.9,50.64h0.328V51.782z"/>
<rect y="39.56" fill="#999999" width="3.339" height="0.23"/>
<path fill="#999999" d="M0,47.719l1.984-0.004c7.255-3.073,28.68-4.107,35.816,0.834v2.091h5.428v-0.234h-5.428v-2.091
	c-7.137-4.941-28.562-3.907-35.816-0.834L0,47.485V47.719z"/>
<rect y="48.647" fill="#999999" width="6.683" height="0.23"/>
<rect x="31.323" y="51.554" fill="#999999" width="11.905" height="0.229"/>
<rect x="38.614" y="46.157" fill="#999999" width="1.625" height="0.23"/>
<rect x="40.989" y="44.892" fill="#999999" width="2.239" height="0.23"/>
<rect y="10.97" fill="#999999" width="1.984" height="0.23"/>
</svg>
