<?xml version="1.0" encoding="utf-8"?>
<!-- Generator: Adobe Illustrator 15.1.0, SVG Export Plug-In . SVG Version: 6.00 Build 0)  -->
<!DOCTYPE svg PUBLIC "-//W3C//DTD SVG 1.1//EN" "http://www.w3.org/Graphics/SVG/1.1/DTD/svg11.dtd">
<svg version="1.1" id="Ebene_1" xmlns:svg="http://www.w3.org/2000/svg"
	 xmlns="http://www.w3.org/2000/svg" xmlns:xlink="http://www.w3.org/1999/xlink" x="0px" y="0px" width="43.229px"
	 height="51.781px" viewBox="0 0 43.229 51.781" enable-background="new 0 0 43.229 51.781" xml:space="preserve">
<g id="copper1" display="none">
	<rect id="connector8pad" x="0.284" y="43.654" display="inline" fill="#F7BD13" width="4.252" height="3.827"/>
	<rect id="connector9pad" x="38.977" y="46.489" display="inline" fill="#F7BD13" width="4.252" height="3.826"/>
	<rect id="connector10pad" x="0" y="35.573" display="inline" fill="#F7BD13" width="3.969" height="2.836"/>
	<rect id="connector11pad" x="2.197" y="0.425" display="inline" fill="#F7BD13" width="2.836" height="3.686"/>
	<rect id="connector7pad" x="6.378" y="0" display="inline" fill="#F7BD13" width="2.126" height="4.252"/>
	<rect id="connector6pad" x="9.496" y="0" display="inline" fill="#F7BD13" width="2.126" height="4.252"/>
	<rect id="connector5pad" x="12.614" y="0" display="inline" fill="#F7BD13" width="2.127" height="4.252"/>
	<rect id="connector4pad" x="15.732" y="0" display="inline" fill="#F7BD13" width="2.126" height="4.252"/>
	<rect id="connector3pad" x="18.851" y="0" display="inline" fill="#F7BD13" width="2.126" height="4.252"/>
	<rect id="connector2pad" x="21.969" y="0" display="inline" fill="#F7BD13" width="2.126" height="4.252"/>
	<rect id="connector1pad" x="25.087" y="0" display="inline" fill="#F7BD13" width="2.125" height="4.252"/>
	<rect id="connector0pad" x="28.204" y="0" display="inline" fill="#F7BD13" width="2.127" height="4.252"/>
	<g id="copper0" display="inline">
	</g>
</g>
<g>
	<polygon fill="#4D4D4D" points="0,1.656 0,10.969 1.98,10.969 1.98,20.844 0,20.844 0,48.876 6.683,48.876 6.683,35.781 
		31.323,35.781 31.323,51.781 43.229,51.781 43.229,1.656 	"/>
	<path fill="#999999" d="M19.059,26.063c0-0.356,0.292-0.647,0.648-0.647h3.814c0.356,0,0.648,0.291,0.648,0.647v-0.324
		c0-0.355-0.292-0.647-0.648-0.647h-3.814c-0.356,0-0.648,0.292-0.648,0.647V26.063z"/>
	<path fill="#999999" d="M19.059,26.063c0-0.356,0.291-0.647,0.648-0.647h3.813c0.357,0,0.648,0.291,0.648,0.647v-0.324
		c0-0.355-0.291-0.647-0.648-0.647h-3.813c-0.357,0-0.648,0.292-0.648,0.647V26.063z"/>
	<polygon fill="#808080" points="24.312,3.531 23.527,3.531 18.13,3.531 18.13,5.531 23.527,5.531 23.527,48.876 25.099,48.876 
		25.099,3.531 	"/>
	<path fill="#999999" d="M18.897,20.688c0-0.356,0.291-0.647,0.648-0.647h4.139c0.357,0,0.648,0.291,0.648,0.647v-0.324
		c0-0.355-0.291-0.647-0.648-0.647h-4.139c-0.357,0-0.648,0.292-0.648,0.647V20.688z"/>
	<rect x="17.432" y="3.497" fill="#999999" width="8.364" height="0.229"/>
	<rect x="3.12" y="0.28" fill="#CCCCCC" width="36.988" height="1.376"/>
	<path fill="#B3B3B3" d="M43.229,3.531v-3.531h-6.271c0.009,0.054,0.032,0.102,0.032,0.158V0.28c0,0.552-0.45,1.001-1.002,1.001H0
		v9.688h1.983v9.875H0v18.703h3.339v1.124H2.591v1.484h0.748v1.125H0v4.202l1.983-0.004c7.255-3.073,28.681-4.106,35.816,0.834
		v2.091h5.428v-2.373H40.99v-3.125h2.238v-34.75h-7.989V3.531H43.229z M10.489,36.675c0,0.355-0.292,0.647-0.647,0.647H9.184
		L8.531,27.219c0-0.967-0.56-1-1.25-1c-0.689,0-1.25,0.033-1.25,1l0.653,10.104H6.026c-0.355,0-0.647-0.292-0.647-0.647v-10.87
		c0-0.357,0.292-0.647,0.647-0.647h3.815c0.355,0,0.647,0.292,0.647,0.647V36.675z M40.239,47.906h-1.625v-1.75h1.625V47.906z
		 M36.527,20.429c0-0.356,0.292-0.648,0.648-0.648h4.04c0.355,0,0.647,0.292,0.647,0.648v15.913c0,0.355-0.292,0.648-0.647,0.648
		h-0.789V25.406l0.676-1.125v-1.875l-2.801-1.25c0,0-1.125,1-1.125,2.125l1.8,2.125V36.99h-1.464c-0.355,0-0.648-0.292-0.648-0.647
		V24.313l-0.337-1.155V20.429z M30.92,36.675c0,0.355-0.292,0.647-0.648,0.647h-0.656l0.75-9.917c0-0.967-0.561-1-1.25-1
		c-0.69,0-1.25,0.033-1.25,1l-0.75,9.917h-0.657c-0.356,0-0.648-0.292-0.648-0.647v-10.87c0-0.357,0.292-0.647,0.648-0.647h3.813
		c0.356,0,0.648,0.292,0.648,0.647V36.675z"/>
	<path fill="#808080" d="M20.138,40.445c-0.355,0-0.502-0.253-0.323-0.562l1.477-2.558c0.178-0.31,0.47-0.31,0.647,0l1.477,2.558
		c0.178,0.309,0.032,0.562-0.324,0.562H20.138z"/>
	<path fill="#999999" d="M20.138,40.671c-0.355,0-0.502-0.253-0.323-0.563l1.477-2.558c0.178-0.309,0.47-0.309,0.647,0l1.477,2.558
		c0.178,0.31,0.032,0.563-0.324,0.563H20.138z"/>
	<rect x="21.115" y="4.906" fill="#CCCCCC" width="1" height="4.25"/>
	<path fill="#808080" d="M23.267,15.18c0,1.249-0.742,2.271-1.652,2.271c-0.909,0-1.653-1.022-1.653-2.271v-0.151
		c0-1.249,0.744-2.271,1.653-2.271c0.91,0,1.652,1.021,1.652,2.271V15.18z"/>
	<path fill="#808080" d="M23.267,15.179c0,1.25-0.743,2.271-1.651,2.271c-0.909,0-1.653-1.022-1.653-2.271v-0.15
		c0-1.249,0.744-2.271,1.653-2.271c0.908,0,1.651,1.021,1.651,2.271V15.179z"/>
	<path fill="#999999" d="M23.267,15.291c0,1.188-0.742,2.16-1.652,2.16c-0.909,0-1.653-0.973-1.653-2.16v-0.145
		c0-1.188,0.744-2.16,1.653-2.16c0.91,0,1.652,0.973,1.652,2.16V15.291z"/>
	<path fill="#999999" d="M23.267,15.291c0,1.188-0.743,2.16-1.651,2.16c-0.909,0-1.653-0.973-1.653-2.16v-0.145
		c0-1.188,0.744-2.16,1.653-2.16c0.908,0,1.651,0.973,1.651,2.16V15.291z"/>
	<path fill="#808080" d="M23.268,41.126c0,1.188-0.744,2.16-1.653,2.16s-1.653-0.973-1.653-2.16v-0.146
		c0-1.188,0.744-2.16,1.653-2.16s1.653,0.973,1.653,2.16V41.126z"/>
	<path fill="#808080" d="M23.267,41.126c0,1.188-0.744,2.16-1.652,2.16c-0.909,0-1.653-0.973-1.653-2.16v-0.146
		c0-1.188,0.744-2.16,1.653-2.16c0.908,0,1.652,0.973,1.652,2.16V41.126z"/>
	<path fill="#999999" d="M23.268,41.356c0,1.188-0.744,2.16-1.653,2.16s-1.653-0.972-1.653-2.16v-0.145
		c0-1.188,0.744-2.16,1.653-2.16s1.653,0.972,1.653,2.16V41.356z"/>
	<path fill="#999999" d="M23.267,41.356c0,1.188-0.744,2.16-1.652,2.16c-0.909,0-1.653-0.972-1.653-2.16v-0.145
		c0-1.188,0.744-2.16,1.653-2.16c0.908,0,1.652,0.972,1.652,2.16V41.356z"/>
	<path opacity="0.75" fill="#FBB03B" enable-background="new    " d="M43.229,44.906v-3.622H2.591v0.872h0.748v1.125H0.043L0,47.484
		l1.983-0.004c7.255-3.072,28.681-4.106,35.816,0.834v2.091h5.428v-2.372H40.99v-3.125h2.239V44.906z M40.239,47.906h-1.625v-1.75
		h1.625V47.906z"/>
	<path fill="#999999" d="M21.448,47.717h0.333c0,0-0.157,0.317-0.157,0.579s0.157,0.58,0.157,0.58h-0.333V47.717z"/>
	<path fill="#999999" d="M21.779,51.781H21.45c0,0,0.155-0.313,0.155-0.57s-0.155-0.571-0.155-0.571h0.328L21.779,51.781
		L21.779,51.781z"/>
	<rect x="19.945" y="39.559" fill="#999999" width="3.339" height="0.23"/>
	<path fill="#999999" d="M0.001,47.718l1.983-0.004c7.255-3.073,28.681-4.107,35.816,0.834v2.091h5.428v-0.234H37.8v-2.091
		c-7.137-4.94-28.562-3.906-35.816-0.834l-1.983,0.004V47.718z"/>
	<rect x="18.273" y="48.646" fill="#999999" width="6.683" height="0.23"/>
	<rect x="15.662" y="51.553" fill="#999999" width="11.904" height="0.229"/>
	<rect x="20.802" y="46.156" fill="#999999" width="1.625" height="0.23"/>
	<rect x="20.495" y="44.891" fill="#999999" width="2.239" height="0.23"/>
	<rect x="20.623" y="10.969" fill="#999999" width="1.984" height="0.23"/>
</g>
</svg>
