<?xml version="1.0" encoding="utf-8"?>
<!-- Generator: Adobe Illustrator 15.1.0, SVG Export Plug-In . SVG Version: 6.00 Build 0)  -->
<!DOCTYPE svg PUBLIC "-//W3C//DTD SVG 1.1//EN" "http://www.w3.org/Graphics/SVG/1.1/DTD/svg11.dtd">
<svg version="1.1" id="Ebene_1" xmlns:svg="http://www.w3.org/2000/svg"
	 xmlns="http://www.w3.org/2000/svg" xmlns:xlink="http://www.w3.org/1999/xlink" x="0px" y="0px" width="30.647px"
	 height="35.726px" viewBox="0 0 30.647 35.726" enable-background="new 0 0 30.647 35.726" xml:space="preserve">
<g>
	<g>
		<rect x="0" y="5.12" fill="#999999" width="30.647" height="29.706"/>
		<rect x="0" y="5.984" fill="#4D4D4D" width="30.647" height="29.706"/>
		<g>
			<circle cx="15.324" cy="20.837" r="11.816"/>
			<circle fill="#666666" cx="15.324" cy="20.837" r="11.816"/>
			<circle cx="15.324" cy="20.837" r="11.311"/>
			<path d="M15.324,9.527c-7.574,0-10.271,6.568-10.271,6.568v4.221h20.618v-4.054C25.671,16.261,23.036,9.527,15.324,9.527z"/>
			<g>
				<path fill="#808080" d="M21.354,24.838h3.463c0.549-1.263,0.854-2.654,0.854-4.116c0-4.969-3.504-9.117-8.171-10.116v2.269
					h-4.35v-2.269c-4.67,0.999-8.173,5.147-8.173,10.116c0,1.462,0.306,2.854,0.854,4.116h3.465v4.289
					c1.698,1.221,3.779,1.94,6.03,1.94c2.25,0,4.33-0.72,6.029-1.939V24.838z"/>
				<g>
					<g>
						<g>
							<g>
								<path fill="#4D4D4D" d="M19.415,16.562c0-0.84,0.687-1.527,1.527-1.527c0.838,0,1.525,0.687,1.525,1.527
									s-0.688,1.527-1.525,1.527C20.102,18.089,19.415,17.402,19.415,16.562z"/>
							</g>
							<g>
								<path d="M19.796,16.562c0-0.631,0.515-1.147,1.146-1.147s1.146,0.516,1.146,1.147c0,0.63-0.516,1.146-1.146,1.146
									S19.796,17.192,19.796,16.562z"/>
							</g>
						</g>
						<g>
							<g>
								<path fill="#4D4D4D" d="M8.378,16.562c0-0.84,0.688-1.527,1.526-1.527c0.84,0,1.527,0.687,1.527,1.527
									s-0.687,1.527-1.527,1.527C9.066,18.089,8.378,17.402,8.378,16.562z"/>
							</g>
							<g>
								<path d="M8.759,16.562c0-0.631,0.516-1.147,1.146-1.147c0.631,0,1.147,0.516,1.147,1.147c0,0.63-0.517,1.146-1.147,1.146
									C9.275,17.708,8.759,17.192,8.759,16.562z"/>
							</g>
						</g>
					</g>
					<g>
						<g>
							<g>
								<path fill="#4D4D4D" d="M20.362,21.842c0-0.841,0.688-1.527,1.527-1.527s1.525,0.687,1.525,1.527
									c0,0.839-0.686,1.527-1.525,1.527S20.362,22.681,20.362,21.842z"/>
							</g>
							<g>
								<path d="M20.743,21.843c0-0.632,0.516-1.147,1.146-1.147s1.146,0.516,1.146,1.147c0,0.63-0.516,1.146-1.146,1.146
									S20.743,22.473,20.743,21.843z"/>
							</g>
						</g>
						<g>
							<rect x="13.877" y="13.259" fill="#4D4D4D" width="3.052" height="8.118"/>
							<rect x="14.257" y="13.639" width="2.293" height="7.356"/>
						</g>
						<g>
							<g>
								<path fill="#4D4D4D" d="M7.232,21.842c0-0.841,0.687-1.527,1.527-1.527c0.839,0,1.527,0.687,1.527,1.527
									c0,0.839-0.688,1.527-1.527,1.527C7.919,23.37,7.232,22.681,7.232,21.842z"/>
							</g>
							<g>
								<path d="M7.611,21.843c0-0.632,0.516-1.147,1.147-1.147c0.63,0,1.146,0.516,1.146,1.147c0,0.63-0.516,1.146-1.146,1.146
									C8.127,22.99,7.611,22.473,7.611,21.843z"/>
							</g>
						</g>
					</g>
					<g>
						<g>
							<path fill="#4D4D4D" d="M10.81,26.339c0-0.841,0.688-1.528,1.527-1.528c0.84,0,1.527,0.688,1.527,1.528
								c0,0.84-0.687,1.526-1.527,1.526C11.498,27.866,10.81,27.179,10.81,26.339z"/>
						</g>
						<g>
							<path d="M11.191,26.337c0-0.63,0.516-1.146,1.146-1.146c0.631,0,1.147,0.516,1.147,1.146c0,0.632-0.516,1.147-1.147,1.147
								C11.707,27.485,11.191,26.969,11.191,26.337z"/>
						</g>
					</g>
					<g>
						<g>
							<path fill="#4D4D4D" d="M16.052,26.339c0-0.841,0.686-1.528,1.527-1.528c0.838,0,1.525,0.688,1.525,1.528
								c0,0.84-0.688,1.526-1.525,1.526C16.738,27.866,16.052,27.179,16.052,26.339z"/>
						</g>
						<g>
							<path d="M16.431,26.337c0-0.63,0.518-1.146,1.148-1.146c0.629,0,1.146,0.516,1.146,1.146c0,0.632-0.518,1.147-1.146,1.147
								C16.948,27.485,16.431,26.969,16.431,26.337z"/>
						</g>
					</g>
				</g>
			</g>
			<path fill="#1A1A1A" d="M15.324,7.914C8.186,7.914,2.4,13.7,2.4,20.835c0,7.14,5.786,12.925,12.924,12.925
				c7.137,0,12.924-5.785,12.924-12.925C28.249,13.7,22.462,7.914,15.324,7.914z M15.324,33.079c-6.762,0-12.244-5.48-12.244-12.243
				c0-6.761,5.481-12.242,12.244-12.242c6.76,0,12.241,5.481,12.241,12.242C27.565,27.598,22.085,33.079,15.324,33.079z"/>
			<path fill="#CCCCCC" d="M15.324,8.501c-6.813,0-12.336,5.522-12.336,12.334c0,6.814,5.522,12.336,12.336,12.336
				c6.813,0,12.336-5.521,12.336-12.336C27.661,14.024,22.137,8.501,15.324,8.501z M15.324,32.522
				c-6.455,0-11.687-5.231-11.687-11.687c0-6.454,5.232-11.686,11.687-11.686c6.454,0,11.684,5.232,11.684,11.686
				C27.009,27.291,21.778,32.522,15.324,32.522z"/>
		</g>
	</g>
	<polygon fill="#1A1A1A" points="17.782,35.677 12.865,35.677 12.865,33.13 15.363,33.545 17.782,33.13 	"/>
	<rect x="1.141" fill="#808080" width="28.365" height="5.12"/>
	<rect x="13.622" fill="#666666" width="3.404" height="5.12"/>
	<rect x="14.934" fill="#4D4D4D" width="0.778" height="5.12"/>
	<rect x="1.141" fill="#B3B3B3" width="0.779" height="5.12"/>
	<rect x="28.729" fill="#666666" width="0.777" height="5.12"/>
	<g opacity="0.25">
		<polygon fill="#1A1A1A" points="30.647,35.677 29.833,35.677 29.833,6.8 30.647,5.973 		"/>
		<polygon fill="#1A1A1A" points="0,35.677 0.815,34.864 30.52,34.864 30.52,35.677 		"/>
	</g>
	<g opacity="0.23">
		<polygon fill="#E6E6E6" points="0.815,34.864 0,35.69 0,5.984 0.815,5.984 		"/>
		<polygon fill="#E6E6E6" points="0.815,6.8 0.815,5.984 30.647,5.984 29.833,6.8 		"/>
	</g>
	<g>
		<path d="M8.336,11.918c1.616-1.296,3.896-2.391,6.989-2.391c3.103,0,5.381,1.089,7,2.392v-1.406c-1.996-1.357-4.406-2.149-7-2.149
			c-2.583,0-4.984,0.786-6.974,2.13L8.336,11.918z"/>
	</g>
</g>
</svg>
