<?xml version="1.0" encoding="utf-8"?>
<!-- Generator: Adobe Illustrator 15.1.0, SVG Export Plug-In . SVG Version: 6.00 Build 0)  -->
<!DOCTYPE svg PUBLIC "-//W3C//DTD SVG 1.1//EN" "http://www.w3.org/Graphics/SVG/1.1/DTD/svg11.dtd">
<svg version="1.1" id="Ebene_1" xmlns:svg="http://www.w3.org/2000/svg"
	 xmlns="http://www.w3.org/2000/svg" xmlns:xlink="http://www.w3.org/1999/xlink" x="0px" y="0px" width="119.055px"
	 height="75.208px" viewBox="-14.656 -9.661 119.055 75.208" enable-background="new -14.656 -9.661 119.055 75.208"
	 xml:space="preserve">
<rect x="-14.656" y="-9.661" width="119.055" height="67.784"/>
<path fill="#333333" d="M-2.129-9.661v42.534h94V-9.661H-2.129z M31.099,27.93h-2.482V-5.377h2.482V27.93z M61.126,27.93h-2.482
	V-5.377h2.482V27.93z"/>
<g>
	<rect x="101.265" y="-9.611" opacity="0.25" fill="#1A1A1A" width="1.544" height="68.988"/>
	<rect x="99.72" y="-9.611" opacity="0.5" fill="#1A1A1A" width="1.545" height="68.988"/>
	<rect x="98.086" y="-9.644" opacity="0.75" fill="#1A1A1A" width="1.634" height="68.988"/>
	<rect x="96.451" y="-9.644" fill="#1A1A1A" width="1.635" height="68.988"/>
	<rect x="93.657" y="-9.611" opacity="0.7" fill="#333333" width="1.397" height="68.988"/>
	<rect x="95.055" y="-9.611" opacity="0.66" fill="#333333" width="1.396" height="68.988"/>
	<rect x="91.871" y="-9.611" opacity="0.85" fill="#333333" width="1.786" height="68.988"/>
</g>
<g>
	<rect x="-13.066" y="-9.647" opacity="0.25" fill="#1A1A1A" width="1.544" height="68.988"/>
	<rect x="-11.522" y="-9.647" opacity="0.5" fill="#1A1A1A" width="1.545" height="68.988"/>
	<rect x="-9.978" y="-9.615" opacity="0.75" fill="#1A1A1A" width="1.634" height="68.989"/>
	<rect x="-8.344" y="-9.615" fill="#1A1A1A" width="1.635" height="68.989"/>
	<rect x="-5.313" y="-9.647" opacity="0.7" fill="#333333" width="1.397" height="68.988"/>
	<rect x="-6.709" y="-9.647" opacity="0.66" fill="#333333" width="1.396" height="68.988"/>
	<rect x="-3.915" y="-9.647" opacity="0.85" fill="#333333" width="1.786" height="68.988"/>
</g>
<rect x="-14.656" y="-9.661" opacity="0.23" fill="#FFFFFF" width="42.208" height="0.659"/>
<rect x="27.59" y="-9.635" fill="#4D4D4D" width="0.125" height="4.258"/>
<rect x="62.24" y="-9.661" opacity="0.23" fill="#FFFFFF" width="42.146" height="0.659"/>
<g>
	<g>
		<rect x="31.099" y="27.93" opacity="0.5" fill="#4D4D4D" width="27.545" height="2.193"/>
		<rect x="31.099" y="29.436" opacity="0.5" fill="#333333" width="27.545" height="0.913"/>
		<rect x="31.099" y="28.436" opacity="0.25" fill="#4D4D4D" width="27.545" height="0.506"/>
		<rect x="31.099" y="27.936" opacity="0.5" fill="#4D4D4D" width="27.545" height="0.5"/>
	</g>
	<g>
		<rect x="59.822" y="-9.634" opacity="0.5" fill="#4D4D4D" width="2.193" height="4.256"/>
		<rect x="61.328" y="-9.634" opacity="0.5" fill="#333333" width="0.912" height="4.256"/>
		<rect x="60.328" y="-9.634" opacity="0.25" fill="#4D4D4D" width="0.506" height="4.256"/>
		<rect x="59.828" y="-9.634" opacity="0.5" fill="#4D4D4D" width="0.5" height="4.256"/>
	</g>
	<g>
		<rect x="27.714" y="-9.635" opacity="0.5" fill="#4D4D4D" width="2.193" height="4.256"/>
		<rect x="27.59" y="-9.635" opacity="0.5" fill="#333333" width="0.812" height="4.256"/>
		<rect x="28.896" y="-9.635" opacity="0.25" fill="#4D4D4D" width="0.506" height="4.256"/>
		<rect x="29.402" y="-9.635" opacity="0.5" fill="#4D4D4D" width="0.5" height="4.256"/>
	</g>
	<polygon fill="#4D4D4D" points="59.834,-9.661 29.908,-9.661 29.908,-5.379 31.099,-5.379 31.099,27.93 58.644,27.93 
		58.644,-5.379 59.834,-5.379 	"/>
	<rect x="31.099" y="-5.377" fill="#999999" width="0.261" height="33.307"/>
	<rect x="28.349" y="-5.377" fill="#999999" width="0.261" height="33.307"/>
	<rect x="61.137" y="-5.377" fill="#4D4D4D" width="0.262" height="33.307"/>
	<rect x="31.099" y="27.93" opacity="0.31" fill="#999999" width="0.261" height="2.419"/>
	<rect x="58.376" y="-5.377" fill="#333333" width="0.261" height="33.307"/>
	<rect x="58.376" y="27.93" opacity="0.31" fill="#333333" width="0.261" height="2.419"/>
</g>
<rect x="27.552" y="-9.661" opacity="0.23" fill="#FFFFFF" width="34.688" height="0.659"/>
<path d="M97.061,37.423c-1.24-3.306-5.143-6.011-8.676-6.011H1.408c-3.531,0-7.435,2.705-8.675,6.011l-6.979,18.622
	c-1.239,3.308,0.636,6.012,4.168,6.012H99.871c3.531,0,5.407-2.704,4.167-6.012L97.061,37.423z"/>
<path opacity="0.16" fill="#FFFFFF" d="M97.556,38.744l6.482,17.301c1.24,3.308-0.636,6.012-4.167,6.012h-0.249
	c3.531,0,5.407-2.704,4.167-6.012L97.354,38.87L97.556,38.744z"/>
<path opacity="0.16" fill="#FFFFFF" d="M-7.763,38.744l-6.482,17.301c-1.24,3.308,0.636,6.012,4.167,6.012h0.249
	c-3.531,0-5.407-2.704-4.167-6.012l6.436-17.175L-7.763,38.744z"/>
<path opacity="0.39" fill="#B3B3B3" d="M-7.215,37.212c1.24-3.306,5.003-6.151,8.534-6.151h86.977c3.533,0,7.436,2.705,8.676,6.011
	l0.089,0.352c-1.24-3.306-5.143-6.011-8.676-6.011H1.408c-3.531,0-7.435,2.705-8.675,6.011L-7.215,37.212z"/>
<g>
	<path fill="#1A1A1A" d="M102.684,57.803c0,4.26-3.483,7.745-7.744,7.745H-5.197c-4.26,0-7.745-3.485-7.745-7.745V42.367
		c0-4.26,3.485-7.745,7.745-7.745H94.939c4.261,0,7.744,3.485,7.744,7.745V57.803z"/>
	<path fill="#333333" d="M-12.942,42.367c0-4.26,3.485-7.745,7.745-7.745H94.939c4.261,0,7.744,3.485,7.744,7.745v-1.999
		c0-4.26-3.483-7.745-7.744-7.745H-5.197c-4.26,0-7.745,3.485-7.745,7.745V42.367z"/>
	<g>
		<g enable-background="new    ">
			<defs>
				<rect id="SVGID_1_" x="-3.442" y="38.048" enable-background="new    " width="96.626" height="24.334"/>
			</defs>
			<clipPath id="SVGID_2_">
				<use xlink:href="#SVGID_1_"  overflow="visible"/>
			</clipPath>
			<g clip-path="url(#SVGID_2_)">
				<polyline fill="#4D4D4D" points="93.185,41.936 89.929,43.051 89.966,43.051 89.966,44.189 86.612,44.189 83.38,45.302 
					83.38,41.936 83.38,45.302 93.185,45.302 93.185,41.936 				"/>
				<polyline fill="#4D4D4D" points="80.781,41.936 77.525,43.051 77.563,43.051 77.563,44.189 74.209,44.189 70.977,45.302 
					70.977,41.936 70.977,45.302 80.781,45.302 80.781,41.936 				"/>
				<polyline fill="#4D4D4D" points="68.366,41.936 65.117,43.051 65.16,43.051 65.16,44.189 61.808,44.189 58.573,45.302 
					58.573,41.936 58.573,45.302 68.366,45.302 68.366,41.936 				"/>
				<polyline fill="#4D4D4D" points="55.964,41.936 52.716,43.051 52.756,43.051 52.756,44.189 49.403,44.189 46.172,45.302 
					46.172,41.936 46.172,45.302 55.964,45.302 55.964,41.936 				"/>
				<polyline fill="#4D4D4D" points="43.561,41.936 40.313,43.051 40.354,43.051 40.354,44.189 37.001,44.189 33.767,45.302 
					33.767,41.936 33.767,45.302 43.561,45.302 43.561,41.936 				"/>
				<polyline fill="#4D4D4D" points="31.158,41.936 27.909,43.051 27.95,43.051 27.95,44.189 24.598,44.189 21.364,45.302 
					21.364,41.936 21.364,45.302 31.158,45.302 31.158,41.936 				"/>
				<polyline fill="#4D4D4D" points="18.756,41.936 15.505,43.051 15.547,43.051 15.547,44.189 12.194,44.189 8.961,45.302 
					8.961,41.936 8.961,45.302 18.756,45.302 18.756,41.936 				"/>
				<polyline fill="#4D4D4D" points="6.353,41.936 3.104,43.051 3.145,43.051 3.145,44.189 -0.208,44.189 -3.442,45.302 
					-3.442,41.936 -3.442,45.302 6.353,45.302 6.353,41.936 				"/>
				<polyline fill="#666666" points="93.185,41.936 89.929,43.051 93.185,41.936 				"/>
				<polyline fill="#666666" points="80.781,41.936 77.525,43.051 80.781,41.936 				"/>
				<polyline fill="#666666" points="68.366,41.936 65.117,43.051 68.366,41.936 				"/>
				<polyline fill="#666666" points="55.964,41.936 52.716,43.051 55.964,41.936 				"/>
				<polyline fill="#666666" points="43.561,41.936 40.313,43.051 43.561,41.936 				"/>
				<polyline fill="#666666" points="31.158,41.936 27.909,43.051 31.158,41.936 				"/>
				<polyline fill="#666666" points="18.756,41.936 15.505,43.051 18.756,41.936 				"/>
				<polyline fill="#666666" points="6.353,41.936 3.104,43.051 6.353,41.936 				"/>
				<polyline fill="#666666" points="93.185,41.936 83.38,41.936 83.38,45.302 86.612,44.189 86.598,44.189 86.598,43.051 
					89.929,43.051 93.185,41.936 				"/>
				<polyline fill="#666666" points="80.781,41.936 70.977,41.936 70.977,45.302 74.209,44.189 74.194,44.189 74.194,43.051 
					77.525,43.051 80.781,41.936 				"/>
				<polyline fill="#666666" points="68.366,41.936 58.573,41.936 58.573,45.302 61.808,44.189 61.791,44.189 61.791,43.051 
					65.117,43.051 68.366,41.936 				"/>
				<polyline fill="#666666" points="55.964,41.936 46.172,41.936 46.172,45.302 49.403,44.189 49.389,44.189 49.389,43.051 
					52.716,43.051 55.964,41.936 				"/>
				<polyline fill="#666666" points="43.561,41.936 33.767,41.936 33.767,45.302 37.001,44.189 36.986,44.189 36.986,43.051 
					40.313,43.051 43.561,41.936 				"/>
				<polyline fill="#666666" points="31.158,41.936 21.364,41.936 21.364,45.302 24.598,44.189 24.583,44.189 24.583,43.051 
					27.909,43.051 31.158,41.936 				"/>
				<polyline fill="#666666" points="18.756,41.936 8.961,41.936 8.961,45.302 12.194,44.189 12.179,44.189 12.179,43.051 
					15.505,43.051 18.756,41.936 				"/>
				<polyline fill="#666666" points="6.353,41.936 -3.442,41.936 -3.442,45.302 -0.208,44.189 -0.224,44.189 -0.224,43.051 
					3.104,43.051 6.353,41.936 				"/>
				<polyline fill="#B3B3B3" points="89.966,43.051 89.929,43.051 86.598,43.051 86.598,44.189 86.612,44.189 89.966,44.189 
					89.966,43.051 				"/>
				<polyline fill="#B3B3B3" points="77.563,43.051 77.525,43.051 74.194,43.051 74.194,44.189 74.209,44.189 77.563,44.189 
					77.563,43.051 				"/>
				<polyline fill="#B3B3B3" points="65.16,43.051 65.117,43.051 61.791,43.051 61.791,44.189 61.808,44.189 65.16,44.189 
					65.16,43.051 				"/>
				<polyline fill="#B3B3B3" points="52.756,43.051 52.716,43.051 49.389,43.051 49.389,44.189 49.403,44.189 52.756,44.189 
					52.756,43.051 				"/>
				<polyline fill="#B3B3B3" points="40.354,43.051 40.313,43.051 36.986,43.051 36.986,44.189 37.001,44.189 40.354,44.189 
					40.354,43.051 				"/>
				<polyline fill="#B3B3B3" points="27.95,43.051 27.909,43.051 24.583,43.051 24.583,44.189 24.598,44.189 27.95,44.189 
					27.95,43.051 				"/>
				<polyline fill="#B3B3B3" points="15.547,43.051 15.505,43.051 12.179,43.051 12.179,44.189 12.194,44.189 15.547,44.189 
					15.547,43.051 				"/>
				<polyline fill="#B3B3B3" points="3.145,43.051 3.104,43.051 -0.224,43.051 -0.224,44.189 -0.208,44.189 3.145,44.189 
					3.145,43.051 				"/>
				<polyline fill="#4D4D4D" points="93.185,55.449 89.929,56.567 89.966,56.567 89.966,57.705 86.612,57.705 83.38,58.815 
					83.38,55.449 83.38,58.815 93.185,58.815 93.185,55.449 				"/>
				<polyline fill="#4D4D4D" points="80.781,55.449 77.525,56.567 77.563,56.567 77.563,57.705 74.209,57.705 70.977,58.815 
					70.977,55.449 70.977,58.815 80.781,58.815 80.781,55.449 				"/>
				<polyline fill="#4D4D4D" points="68.366,55.449 65.117,56.567 65.16,56.567 65.16,57.705 61.808,57.705 58.573,58.815 
					58.573,55.449 58.573,58.815 68.366,58.815 68.366,55.449 				"/>
				<polyline fill="#4D4D4D" points="55.964,55.449 52.716,56.567 52.756,56.567 52.756,57.705 49.403,57.705 46.172,58.815 
					46.172,55.449 46.172,58.815 55.964,58.815 55.964,55.449 				"/>
				<polyline fill="#4D4D4D" points="43.561,55.449 40.313,56.567 40.354,56.567 40.354,57.705 37.001,57.705 33.767,58.815 
					33.767,55.449 33.767,58.815 43.561,58.815 43.561,55.449 				"/>
				<polyline fill="#4D4D4D" points="31.158,55.449 27.909,56.567 27.95,56.567 27.95,57.705 24.598,57.705 21.364,58.815 
					21.364,55.449 21.364,58.815 31.158,58.815 31.158,55.449 				"/>
				<polyline fill="#4D4D4D" points="18.756,55.449 15.505,56.567 15.547,56.567 15.547,57.705 12.194,57.705 8.961,58.815 
					8.961,55.449 8.961,58.815 18.756,58.815 18.756,55.449 				"/>
				<polyline fill="#4D4D4D" points="6.353,55.449 3.104,56.567 3.145,56.567 3.145,57.705 -0.208,57.705 -3.442,58.815 
					-3.442,55.449 -3.442,58.815 6.353,58.815 6.353,55.449 				"/>
				<polyline fill="#666666" points="93.185,55.449 83.38,55.449 83.38,58.815 86.612,57.705 86.598,57.705 86.598,56.567 
					89.929,56.567 93.185,55.449 				"/>
				<polyline fill="#666666" points="80.781,55.449 70.977,55.449 70.977,58.815 74.209,57.705 74.194,57.705 74.194,56.567 
					77.525,56.567 80.781,55.449 				"/>
				<polyline fill="#666666" points="68.366,55.449 58.573,55.449 58.573,58.815 61.808,57.705 61.791,57.705 61.791,56.567 
					65.117,56.567 68.366,55.449 				"/>
				<polyline fill="#666666" points="55.964,55.449 46.172,55.449 46.172,58.815 49.403,57.705 49.389,57.705 49.389,56.567 
					52.716,56.567 55.964,55.449 				"/>
				<polyline fill="#666666" points="43.561,55.449 33.767,55.449 33.767,58.815 37.001,57.705 36.986,57.705 36.986,56.567 
					40.313,56.567 43.561,55.449 				"/>
				<polyline fill="#666666" points="31.158,55.449 21.364,55.449 21.364,58.815 24.598,57.705 24.583,57.705 24.583,56.567 
					27.909,56.567 31.158,55.449 				"/>
				<polyline fill="#666666" points="18.756,55.449 8.961,55.449 8.961,58.815 12.194,57.705 12.179,57.705 12.179,56.567 
					15.505,56.567 18.756,55.449 				"/>
				<polyline fill="#666666" points="6.353,55.449 -3.442,55.449 -3.442,58.815 -0.208,57.705 -0.224,57.705 -0.224,56.567 
					3.104,56.567 6.353,55.449 				"/>
				<polyline fill="#B3B3B3" points="89.966,56.567 89.929,56.567 86.598,56.567 86.598,57.705 86.612,57.705 89.966,57.705 
					89.966,56.567 				"/>
				<polyline fill="#B3B3B3" points="77.563,56.567 77.525,56.567 74.194,56.567 74.194,57.705 74.209,57.705 77.563,57.705 
					77.563,56.567 				"/>
				<polyline fill="#B3B3B3" points="65.16,56.567 65.117,56.567 61.791,56.567 61.791,57.705 61.808,57.705 65.16,57.705 
					65.16,56.567 				"/>
				<polyline fill="#B3B3B3" points="52.756,56.567 52.716,56.567 49.389,56.567 49.389,57.705 49.403,57.705 52.756,57.705 
					52.756,56.567 				"/>
				<polyline fill="#B3B3B3" points="40.354,56.567 40.313,56.567 36.986,56.567 36.986,57.705 37.001,57.705 40.354,57.705 
					40.354,56.567 				"/>
				<polyline fill="#B3B3B3" points="27.95,56.567 27.909,56.567 24.583,56.567 24.583,57.705 24.598,57.705 27.95,57.705 
					27.95,56.567 				"/>
				<polyline fill="#B3B3B3" points="15.547,56.567 15.505,56.567 12.179,56.567 12.179,57.705 12.194,57.705 15.547,57.705 
					15.547,56.567 				"/>
				<polyline fill="#B3B3B3" points="3.145,56.567 3.104,56.567 -0.224,56.567 -0.224,57.705 -0.208,57.705 3.145,57.705 
					3.145,56.567 				"/>
				<polyline fill="#4D4D4D" points="89.87,46.466 -1.218,46.466 -1.218,54.29 89.87,54.29 89.87,46.466 				"/>
				<polyline fill="#333333" points="89.87,46.734 -1.218,46.734 -1.218,46.466 89.87,46.466 89.87,46.734 				"/>
				<path fill="#999999" d="M87.005,40.313L86.3,40.346c0.051,0.231,0.228,0.409,0.517,0.536c-0.219-0.121-0.345-0.281-0.402-0.478
					l0.614-0.027C87.018,40.356,87.012,40.334,87.005,40.313 M89.496,39.691c-0.039,0.032-0.078,0.06-0.123,0.086
					c-0.01,0.128-0.048,0.25-0.102,0.375c-0.077,0.146-0.172,0.263-0.278,0.349c-0.106,0.084-0.246,0.154-0.419,0.204
					c-0.171,0.054-0.36,0.078-0.586,0.078c-0.25,0-0.452-0.03-0.618-0.096c0.032,0.018,0.062,0.034,0.095,0.049
					c0.171,0.074,0.384,0.107,0.64,0.107c0.226,0,0.429-0.022,0.602-0.076c0.158-0.052,0.3-0.117,0.405-0.209
					c0.116-0.084,0.202-0.196,0.275-0.346c0.077-0.146,0.109-0.295,0.109-0.445V39.691 M88.932,38.522
					c0.005,0.003,0.013,0.007,0.018,0.012c0.226,0.122,0.343,0.288,0.343,0.497c0,0.207-0.107,0.374-0.331,0.49
					c-0.214,0.119-0.492,0.178-0.835,0.178c-0.294,0-0.552-0.047-0.766-0.139c0.015,0.008,0.032,0.017,0.05,0.026
					c0.226,0.117,0.504,0.177,0.846,0.177c0.33,0,0.608-0.06,0.832-0.177c0.215-0.117,0.322-0.283,0.322-0.492
					c0-0.213-0.107-0.379-0.332-0.502C89.03,38.565,88.98,38.544,88.932,38.522 M88.063,38.048c-0.533,0-0.983,0.089-1.336,0.271
					c-0.364,0.188-0.534,0.429-0.534,0.732c0,0.288,0.17,0.525,0.513,0.706c0.032,0.017,0.065,0.034,0.097,0.049
					c-0.329-0.176-0.492-0.408-0.492-0.695c0-0.299,0.183-0.546,0.535-0.728c0.353-0.187,0.801-0.278,1.337-0.278
					c0.386,0,0.738,0.054,1.058,0.156c0.089,0.028,0.173,0.062,0.25,0.098c-0.108-0.061-0.232-0.114-0.37-0.157
					C88.801,38.094,88.447,38.048,88.063,38.048"/>
				<path fill="#999999" d="M73.618,38.768c-0.04,0.021-0.083,0.038-0.13,0.057v2.212h0.13V38.768 M74.228,38.048h-0.47
					c-0.131,0.128-0.344,0.256-0.655,0.396c-0.308,0.137-0.66,0.249-1.067,0.346v0.352c0.038-0.006,0.077-0.015,0.118-0.021v-0.267
					c0.416-0.094,0.769-0.214,1.068-0.347c0.311-0.14,0.524-0.273,0.65-0.401h0.355V38.048"/>
				<path fill="#999999" d="M78.819,38.543c0.022,0.013,0.046,0.028,0.068,0.046c0.226,0.164,0.344,0.483,0.344,0.976
					c0,0.487-0.118,0.813-0.344,0.975c-0.234,0.166-0.513,0.244-0.854,0.244c-0.23,0-0.434-0.037-0.615-0.116
					c0.204,0.116,0.449,0.177,0.743,0.177c0.331,0,0.62-0.08,0.844-0.243c0.226-0.163,0.344-0.484,0.344-0.971
					c0-0.491-0.118-0.817-0.344-0.979C78.947,38.608,78.886,38.572,78.819,38.543 M78.034,38.048c-0.429,0-0.791,0.053-1.069,0.17
					c-0.288,0.119-0.504,0.282-0.652,0.498c-0.14,0.214-0.214,0.496-0.214,0.849c0,0.562,0.193,0.963,0.587,1.21
					c0.047,0.028,0.098,0.057,0.148,0.081c-0.008-0.006-0.021-0.012-0.029-0.018c-0.386-0.253-0.59-0.651-0.59-1.208
					c0-0.353,0.077-0.638,0.225-0.852c0.14-0.219,0.354-0.378,0.644-0.497c0.287-0.117,0.639-0.176,1.079-0.176
					c0.32,0,0.598,0.031,0.844,0.097c0.1,0.028,0.195,0.061,0.28,0.098c-0.116-0.065-0.251-0.115-0.407-0.156
					C78.632,38.079,78.355,38.048,78.034,38.048"/>
				<path fill="#999999" d="M61.523,38.768c-0.039,0.02-0.083,0.036-0.127,0.056v2.213h0.127V38.768 M62.135,38.048h-0.472
					c-0.128,0.128-0.353,0.256-0.651,0.396c-0.311,0.137-0.664,0.249-1.07,0.346v0.352c0.038-0.006,0.078-0.015,0.118-0.021v-0.267
					c0.406-0.094,0.77-0.214,1.067-0.347c0.312-0.14,0.526-0.273,0.655-0.401h0.353V38.048"/>
				<path fill="#999999" d="M65.535,38.768c-0.041,0.02-0.084,0.036-0.129,0.056v2.213h0.129V38.768 M66.133,38.048h-0.472
					c-0.115,0.128-0.34,0.256-0.641,0.396c-0.31,0.137-0.662,0.249-1.081,0.346v0.352c0.042-0.006,0.086-0.015,0.131-0.022v-0.266
					c0.406-0.094,0.768-0.214,1.066-0.347c0.312-0.14,0.524-0.273,0.654-0.401h0.342V38.048"/>
				<path fill="#999999" d="M48.812,38.768c-0.04,0.021-0.081,0.038-0.128,0.057v2.212h0.128V38.768 M49.421,38.048H48.95
					c-0.128,0.128-0.341,0.256-0.652,0.396c-0.31,0.137-0.663,0.249-1.069,0.346v0.352c0.039-0.006,0.079-0.015,0.118-0.021v-0.267
					c0.415-0.094,0.771-0.214,1.069-0.347c0.309-0.14,0.523-0.273,0.652-0.401h0.353V38.048"/>
				<path fill="#999999" d="M55.13,40.683h-2.713c-0.028,0.021-0.054,0.039-0.078,0.058h2.791V40.683 M54.137,38.536
					c0.153,0.094,0.232,0.203,0.232,0.329c0,0.133-0.114,0.284-0.339,0.438c-0.226,0.154-0.664,0.363-1.305,0.631
					c-0.418,0.17-0.738,0.322-0.963,0.448c-0.225,0.129-0.386,0.262-0.48,0.396c-0.064,0.08-0.086,0.166-0.086,0.258h0.128
					c0.007-0.065,0.037-0.132,0.085-0.192c0.096-0.135,0.256-0.268,0.481-0.396c0.214-0.134,0.536-0.284,0.95-0.454
					c0.653-0.263,1.081-0.477,1.316-0.631c0.225-0.154,0.345-0.299,0.345-0.438c0-0.146-0.109-0.268-0.313-0.364
					C54.171,38.553,54.155,38.546,54.137,38.536 M53.271,38.048c-0.569,0-1.018,0.07-1.36,0.22
					c-0.329,0.143-0.521,0.355-0.576,0.641l0.139,0.007c0.057-0.252,0.248-0.45,0.568-0.59c0.331-0.144,0.779-0.22,1.345-0.22
					c0.579,0,1.028,0.08,1.359,0.241c0.006,0.003,0.007,0.005,0.011,0.006c-0.039-0.023-0.082-0.049-0.128-0.071
					C54.296,38.122,53.836,38.048,53.271,38.048"/>
				<path fill="#999999" d="M36.408,38.768c-0.039,0.021-0.082,0.038-0.127,0.057v2.212h0.127V38.768 M37.018,38.048h-0.471
					c-0.128,0.128-0.342,0.256-0.653,0.396c-0.31,0.137-0.663,0.249-1.069,0.346v0.352c0.039-0.006,0.078-0.015,0.119-0.021v-0.267
					c0.416-0.094,0.77-0.214,1.069-0.347c0.31-0.14,0.523-0.273,0.651-0.401h0.354V38.048"/>
				<path fill="#999999" d="M39.626,40.201l-0.738,0.048c0.053,0.247,0.245,0.448,0.587,0.604c0.017,0.009,0.034,0.015,0.051,0.021
					c-0.294-0.148-0.471-0.338-0.509-0.566l0.636-0.04C39.644,40.244,39.635,40.224,39.626,40.201 M41.773,39.796
					c0.158,0.098,0.237,0.222,0.237,0.367c0,0.178-0.117,0.322-0.353,0.445c-0.235,0.117-0.524,0.175-0.867,0.175
					c-0.288,0-0.534-0.047-0.737-0.139h-0.001c0.037,0.024,0.076,0.046,0.118,0.064c0.203,0.092,0.449,0.135,0.738,0.135
					c0.342,0,0.631-0.061,0.875-0.177c0.236-0.118,0.354-0.267,0.354-0.444c0-0.167-0.108-0.305-0.333-0.412
					C41.797,39.806,41.785,39.8,41.773,39.796 M41.909,39.457c-0.036,0.01-0.073,0.021-0.111,0.027
					c0.252,0.028,0.466,0.079,0.639,0.154C42.296,39.558,42.122,39.498,41.909,39.457 M41.551,38.521
					c0.13,0.078,0.193,0.179,0.193,0.292c0,0.165-0.118,0.293-0.374,0.373c-0.246,0.079-0.525,0.123-0.834,0.123l-0.118-0.005
					l-0.085,0.32c0.05-0.007,0.1-0.012,0.147-0.019l0.056-0.237h0.118c0.31,0,0.599-0.037,0.844-0.118
					c0.247-0.085,0.375-0.208,0.375-0.379c0-0.135-0.096-0.248-0.278-0.331C41.58,38.533,41.565,38.525,41.551,38.521 M40.76,38.048
					c-0.472,0-0.866,0.063-1.187,0.196c-0.321,0.14-0.524,0.326-0.61,0.572l0.147,0.013c0.093-0.22,0.291-0.395,0.591-0.521
					c0.311-0.132,0.706-0.202,1.176-0.202c0.333,0,0.62,0.038,0.899,0.108c0.133,0.031,0.25,0.072,0.352,0.115
					c-0.127-0.072-0.288-0.132-0.48-0.182C41.38,38.079,41.081,38.048,40.76,38.048"/>
				<path fill="#999999" d="M24.005,38.768c-0.039,0.021-0.082,0.038-0.128,0.057v2.212h0.128V38.768 M24.615,38.048h-0.471
					c-0.128,0.128-0.342,0.256-0.652,0.396c-0.31,0.137-0.664,0.249-1.07,0.346v0.352c0.039-0.006,0.079-0.015,0.118-0.021v-0.267
					c0.418-0.094,0.77-0.214,1.069-0.347c0.31-0.14,0.524-0.273,0.652-0.401h0.354V38.048"/>
				<path fill="#999999" d="M28.956,40.383h-0.129v0.653h0.129V40.383 M30.367,39.988h-0.685v0.059h0.685V39.988 M28.956,38.704
					l-0.129,0.094v1.19h-1.661l-0.083,0.059h1.872V38.704 M29.554,38.058h-0.598l-2.716,1.931v0.33h0.127v-0.271l2.717-1.929h0.47
					V38.058"/>
				<path fill="#999999" d="M11.603,38.768c-0.04,0.021-0.083,0.038-0.129,0.057v2.212h0.129V38.768 M12.211,38.048h-0.47
					c-0.129,0.128-0.342,0.256-0.653,0.396c-0.31,0.137-0.663,0.249-1.069,0.346v0.352c0.038-0.006,0.078-0.015,0.117-0.021v-0.267
					c0.417-0.094,0.77-0.214,1.069-0.347c0.31-0.14,0.523-0.273,0.652-0.401h0.353V38.048"/>
				<path fill="#999999" d="M14.853,40.223l-0.77,0.034c0.042,0.243,0.236,0.437,0.563,0.591c-0.253-0.142-0.4-0.32-0.445-0.534
					l0.674-0.027C14.866,40.266,14.859,40.244,14.853,40.223 M16.958,39.593c0.198,0.118,0.29,0.273,0.29,0.463
					c0,0.221-0.119,0.396-0.364,0.529c-0.234,0.131-0.534,0.198-0.887,0.198c-0.294,0-0.536-0.045-0.738-0.14
					c0.033,0.022,0.068,0.042,0.107,0.062c0.214,0.096,0.459,0.139,0.749,0.139c0.352,0,0.652-0.065,0.897-0.199
					c0.247-0.133,0.363-0.311,0.363-0.528c0-0.21-0.117-0.369-0.352-0.492C17.002,39.614,16.98,39.603,16.958,39.593 M16.178,39.057
					c-0.334,0-0.655,0.047-0.958,0.136l-0.047,0.116c0.364-0.123,0.738-0.187,1.123-0.187c0.513,0,0.943,0.087,1.292,0.261
					c-0.031-0.017-0.062-0.036-0.095-0.052C17.142,39.149,16.702,39.057,16.178,39.057 M17.75,38.094h-2.961l-0.578,1.53
					l0.148,0.011l0.547-1.476h2.844V38.094"/>
				<path fill="#999999" d="M-0.801,38.768c-0.039,0.021-0.082,0.038-0.127,0.057v2.212h0.127V38.768 M-0.191,38.048h-0.471
					c-0.128,0.128-0.341,0.256-0.652,0.396c-0.31,0.137-0.663,0.249-1.069,0.346v0.352c0.038-0.006,0.078-0.015,0.118-0.021v-0.267
					c0.417-0.094,0.77-0.214,1.08-0.347c0.299-0.14,0.513-0.273,0.642-0.401h0.353V38.048"/>
				<path fill="#999999" d="M4.545,39.627c0.187,0.116,0.288,0.273,0.288,0.462c0,0.214-0.117,0.386-0.342,0.508
					c-0.214,0.124-0.481,0.187-0.791,0.187c-0.215,0-0.417-0.03-0.61-0.09c-0.038-0.013-0.075-0.025-0.11-0.038
					c0.071,0.038,0.149,0.072,0.239,0.104c0.192,0.059,0.395,0.085,0.598,0.085c0.31,0,0.577-0.061,0.802-0.183
					c0.225-0.128,0.332-0.299,0.332-0.513c0-0.203-0.107-0.364-0.332-0.481C4.595,39.653,4.571,39.641,4.545,39.627 M3.818,39.1
					c-0.278,0-0.545,0.039-0.802,0.102c-0.196,0.05-0.367,0.118-0.513,0.206c-0.006,0.049-0.009,0.1-0.011,0.153
					c0.182-0.133,0.396-0.236,0.652-0.299c0.256-0.067,0.513-0.097,0.803-0.097c0.414,0,0.78,0.065,1.092,0.198
					C4.702,39.189,4.302,39.1,3.818,39.1 M4.516,38.529c0.097,0.065,0.177,0.163,0.233,0.283l0.083-0.005
					c-0.062-0.108-0.145-0.188-0.243-0.242C4.564,38.554,4.541,38.541,4.516,38.529 M3.786,38.048c-0.631,0-1.134,0.111-1.508,0.336
					c-0.417,0.262-0.63,0.685-0.63,1.257c0,0.512,0.191,0.882,0.577,1.106c0.036,0.02,0.071,0.041,0.109,0.058
					c-0.379-0.224-0.569-0.591-0.569-1.101c0-0.577,0.214-0.994,0.642-1.257c0.375-0.229,0.866-0.342,1.498-0.342
					c0.469,0,0.853,0.063,1.151,0.197c-0.038-0.022-0.08-0.042-0.125-0.063C4.63,38.111,4.246,38.048,3.786,38.048"/>
				<path fill="#999999" d="M88.33,60.003c-0.036,0.018-0.074,0.035-0.116,0.052v2.216h0.116V60.003 M88.938,59.283h-0.47
					c-0.128,0.127-0.343,0.26-0.651,0.394c-0.301,0.14-0.664,0.257-1.07,0.353v0.354c0.042-0.007,0.087-0.017,0.129-0.027v-0.267
					c0.407-0.097,0.76-0.213,1.067-0.348c0.301-0.14,0.525-0.272,0.653-0.4h0.342V59.283"/>
				<path fill="#999999" d="M77.629,61.917h-2.716c-0.029,0.022-0.061,0.043-0.088,0.066h2.804V61.917 M76.651,59.783
					c0.142,0.092,0.215,0.196,0.215,0.317c0,0.139-0.115,0.282-0.34,0.438c-0.227,0.155-0.665,0.363-1.315,0.63
					c-0.416,0.173-0.738,0.32-0.952,0.449c-0.225,0.135-0.387,0.263-0.48,0.397c-0.065,0.078-0.097,0.165-0.084,0.256h0.121
					c0.011-0.067,0.04-0.131,0.079-0.192c0.109-0.134,0.269-0.269,0.482-0.396c0.224-0.134,0.546-0.283,0.963-0.453
					c0.641-0.263,1.079-0.472,1.305-0.625c0.234-0.156,0.341-0.307,0.341-0.445c0-0.144-0.095-0.268-0.309-0.363
					C76.668,59.792,76.657,59.788,76.651,59.783 M75.767,59.283c-0.565,0-1.027,0.068-1.358,0.218
					c-0.331,0.146-0.523,0.357-0.576,0.643l0.13,0.006c0.063-0.255,0.256-0.448,0.575-0.584c0.332-0.149,0.78-0.225,1.349-0.225
					c0.549,0,1.001,0.076,1.329,0.228c-0.031-0.017-0.065-0.035-0.102-0.052C76.783,59.361,76.333,59.283,75.767,59.283"/>
				<path fill="#999999" d="M62.111,61.438l-0.727,0.047c0.045,0.247,0.246,0.449,0.591,0.604c0.009,0.004,0.021,0.011,0.034,0.015
					c-0.296-0.148-0.457-0.332-0.506-0.561l0.64-0.041C62.133,61.482,62.121,61.458,62.111,61.438 M64.239,61.018
					c0.181,0.104,0.27,0.227,0.27,0.381c0,0.177-0.119,0.321-0.354,0.445c-0.234,0.116-0.523,0.175-0.876,0.175
					c-0.274,0-0.509-0.039-0.705-0.124c0.029,0.017,0.063,0.036,0.096,0.05c0.203,0.09,0.45,0.139,0.736,0.139
					c0.343,0,0.632-0.064,0.867-0.182c0.236-0.117,0.364-0.268,0.364-0.443c0-0.166-0.119-0.306-0.333-0.411
					C64.283,61.035,64.26,61.024,64.239,61.018 M64.399,60.692c-0.032,0.01-0.068,0.02-0.105,0.026
					c0.248,0.027,0.452,0.079,0.621,0.149C64.777,60.791,64.604,60.732,64.399,60.692 M64.011,59.741
					c0.15,0.081,0.229,0.185,0.229,0.306c0,0.17-0.127,0.294-0.373,0.373c-0.247,0.081-0.534,0.124-0.845,0.124l-0.118-0.006
					l-0.074,0.32c0.048-0.006,0.095-0.012,0.138-0.016l0.066-0.239l0.115,0.004c0.312,0,0.59-0.043,0.836-0.122
					c0.255-0.081,0.374-0.208,0.374-0.374c0-0.139-0.086-0.247-0.268-0.337C64.065,59.763,64.041,59.75,64.011,59.741
					 M63.245,59.283c-0.471,0-0.864,0.063-1.176,0.203c-0.319,0.134-0.524,0.319-0.61,0.566l0.143,0.011
					c0.101-0.22,0.299-0.396,0.587-0.521c0.319-0.133,0.715-0.202,1.185-0.202c0.32,0,0.62,0.039,0.899,0.106
					c0.129,0.035,0.247,0.074,0.35,0.119c-0.127-0.073-0.286-0.135-0.478-0.183C63.876,59.313,63.579,59.283,63.245,59.283"/>
				<path fill="#999999" d="M51.441,61.617h-0.117v0.653h0.117V61.617 M52.854,61.223h-0.673v0.058h0.673V61.223 M51.441,59.939
					l-0.117,0.086v1.197h-1.662l-0.08,0.058h1.859V59.939 M52.05,59.293h-0.599l-2.715,1.93v0.336h0.128V61.28l2.718-1.924h0.468
					V59.293"/>
				<path fill="#999999" d="M37.338,61.458l-0.759,0.03c0.042,0.252,0.235,0.451,0.576,0.604c0.013,0.007,0.024,0.011,0.037,0.015
					c-0.285-0.143-0.447-0.331-0.496-0.56l0.667-0.026C37.354,61.5,37.347,61.48,37.338,61.458 M39.415,60.813
					c0.219,0.117,0.33,0.279,0.33,0.479c0,0.22-0.118,0.396-0.364,0.529c-0.247,0.134-0.545,0.197-0.897,0.197
					c-0.267,0-0.495-0.039-0.697-0.118c0.024,0.015,0.049,0.028,0.077,0.039c0.203,0.095,0.459,0.144,0.748,0.144
					c0.353,0,0.652-0.068,0.898-0.203c0.236-0.128,0.364-0.305,0.364-0.522c0-0.209-0.118-0.375-0.353-0.499
					C39.486,60.843,39.451,60.827,39.415,60.813 M38.675,60.297c-0.333,0-0.65,0.043-0.959,0.131l-0.046,0.116
					c0.354-0.124,0.728-0.188,1.123-0.188c0.513,0,0.944,0.089,1.293,0.263c-0.03-0.019-0.062-0.037-0.095-0.054
					C39.626,60.39,39.188,60.297,38.675,60.297 M40.246,59.336h-2.961l-0.578,1.529l0.137,0.008l0.558-1.479h2.844V59.336"/>
				<path fill="#999999" d="M27.044,60.866c0.184,0.115,0.276,0.27,0.276,0.458c0,0.213-0.106,0.386-0.331,0.509
					c-0.225,0.122-0.482,0.186-0.792,0.186c-0.214,0-0.417-0.026-0.61-0.089c-0.037-0.013-0.072-0.024-0.107-0.04
					c0.07,0.041,0.148,0.074,0.235,0.103c0.192,0.06,0.396,0.091,0.599,0.091c0.311,0,0.578-0.064,0.802-0.188
					c0.213-0.129,0.332-0.293,0.332-0.508c0-0.208-0.106-0.367-0.332-0.486C27.094,60.888,27.069,60.878,27.044,60.866
					 M26.314,60.341c-0.277,0-0.545,0.033-0.802,0.096c-0.196,0.05-0.367,0.122-0.513,0.211c-0.005,0.048-0.008,0.095-0.01,0.148
					c0.182-0.134,0.396-0.231,0.652-0.301c0.246-0.064,0.513-0.096,0.791-0.096c0.424,0,0.791,0.066,1.104,0.198
					C27.197,60.422,26.787,60.341,26.314,60.341 M27.012,59.764c0.095,0.066,0.167,0.162,0.222,0.289l0.096-0.005
					c-0.062-0.11-0.146-0.194-0.246-0.247C27.061,59.786,27.036,59.774,27.012,59.764 M26.272,59.283
					c-0.621,0-1.123,0.11-1.498,0.342c-0.427,0.256-0.631,0.679-0.631,1.252c0,0.517,0.192,0.886,0.578,1.106
					c0.039,0.021,0.079,0.043,0.121,0.063c-0.001,0-0.002-0.001-0.002-0.001c-0.385-0.225-0.579-0.594-0.579-1.107
					c0-0.576,0.215-0.994,0.642-1.256c0.364-0.225,0.866-0.342,1.498-0.342c0.455,0,0.83,0.066,1.125,0.186
					c-0.032-0.015-0.065-0.032-0.099-0.047C27.127,59.347,26.742,59.283,26.272,59.283"/>
				<path fill="#999999" d="M14.853,59.741h-0.219c-0.336,0.199-0.655,0.44-0.946,0.723c-0.332,0.305-0.589,0.626-0.76,0.956
					c-0.182,0.332-0.267,0.614-0.278,0.851h0.13c0.015-0.222,0.107-0.48,0.266-0.786c0.181-0.332,0.428-0.652,0.759-0.961
					C14.136,60.211,14.489,59.955,14.853,59.741 M15.675,59.33h-3.859v0.353h0.129v-0.289h3.73V59.33"/>
				<path fill="#999999" d="M2.226,61.009c0.207,0.11,0.31,0.252,0.31,0.411c0,0.177-0.118,0.32-0.342,0.433
					c-0.224,0.113-0.514,0.166-0.866,0.166c-0.225,0-0.439-0.026-0.631-0.079c-0.067-0.02-0.128-0.04-0.184-0.064
					c0.082,0.054,0.185,0.095,0.312,0.129c0.193,0.052,0.407,0.079,0.631,0.079c0.342,0,0.63-0.058,0.855-0.172
					c0.235-0.111,0.342-0.255,0.342-0.427c0-0.177-0.117-0.319-0.342-0.438C2.283,61.033,2.254,61.021,2.226,61.009 M2.371,60.697
					c-0.03,0.005-0.06,0.012-0.092,0.018c0.256,0.043,0.466,0.103,0.633,0.177C2.768,60.811,2.587,60.744,2.371,60.697 M0.399,60.67
					c-0.317,0.049-0.566,0.132-0.751,0.253c-0.192,0.13-0.289,0.295-0.289,0.487c0,0.256,0.182,0.476,0.534,0.652
					c0.027,0.013,0.056,0.026,0.085,0.037c-0.334-0.168-0.502-0.38-0.502-0.631c0-0.193,0.107-0.353,0.299-0.486
					c0.192-0.13,0.471-0.22,0.834-0.268C0.536,60.701,0.466,60.687,0.399,60.67 M2.071,59.754c0.143,0.085,0.218,0.186,0.218,0.305
					c0,0.127-0.096,0.234-0.278,0.324c-0.172,0.087-0.406,0.134-0.684,0.134c-0.263,0-0.48-0.04-0.655-0.111
					c0.021,0.013,0.042,0.024,0.066,0.036c0.182,0.092,0.417,0.134,0.706,0.134c0.288,0,0.513-0.042,0.695-0.134
					c0.182-0.086,0.267-0.197,0.267-0.324c0-0.135-0.085-0.246-0.277-0.338C2.11,59.77,2.091,59.762,2.071,59.754 M1.305,59.283
					c-0.513,0-0.93,0.073-1.24,0.218c-0.311,0.15-0.471,0.332-0.471,0.546c0,0.146,0.075,0.267,0.225,0.369
					c0.046,0.036,0.106,0.069,0.173,0.099c-0.02-0.012-0.039-0.024-0.056-0.035c-0.139-0.102-0.214-0.225-0.214-0.368
					c0-0.221,0.149-0.402,0.459-0.546c0.321-0.149,0.728-0.225,1.252-0.225c0.513,0,0.93,0.075,1.251,0.229
					c0.002,0.003,0.005,0.004,0.008,0.006c-0.039-0.023-0.08-0.048-0.127-0.068C2.246,59.356,1.83,59.283,1.305,59.283"/>
				<path fill="#666666" d="M87.36,39.561c-0.204-0.116-0.303-0.262-0.303-0.438c0-0.21,0.129-0.38,0.364-0.514
					c0.247-0.133,0.521-0.198,0.844-0.198c0.255,0,0.473,0.037,0.666,0.112c0.049,0.021,0.099,0.043,0.146,0.07
					c0.225,0.123,0.332,0.289,0.332,0.502c0,0.209-0.107,0.375-0.322,0.492c-0.224,0.117-0.502,0.177-0.832,0.177
					c-0.342,0-0.62-0.06-0.846-0.177C87.393,39.577,87.375,39.568,87.36,39.561 M88.182,38.105c-0.536,0-0.984,0.092-1.337,0.278
					c-0.353,0.182-0.535,0.429-0.535,0.728c0,0.287,0.163,0.52,0.492,0.695c0.008,0.003,0.015,0.007,0.021,0.01
					c0.341,0.183,0.759,0.268,1.252,0.268c0.299,0,0.566-0.032,0.821-0.106c0.191-0.057,0.352-0.121,0.477-0.2
					c0.045-0.026,0.084-0.054,0.123-0.086v0.076c0,0.15-0.032,0.3-0.109,0.445c-0.073,0.149-0.159,0.262-0.275,0.346
					c-0.105,0.092-0.247,0.157-0.405,0.209c-0.173,0.054-0.376,0.076-0.602,0.076c-0.256,0-0.469-0.033-0.64-0.107
					c-0.033-0.015-0.063-0.031-0.095-0.049c-0.117-0.076-0.196-0.182-0.247-0.316l-0.095,0.006l-0.614,0.027
					c0.058,0.196,0.184,0.356,0.402,0.478c0.043,0.024,0.086,0.047,0.133,0.068c0.302,0.133,0.674,0.196,1.146,0.196
					c0.438,0,0.824-0.058,1.144-0.175c0.332-0.118,0.577-0.293,0.738-0.52c0.16-0.224,0.245-0.529,0.245-0.908
					c0-0.363-0.085-0.642-0.245-0.834c-0.125-0.14-0.284-0.257-0.488-0.351c-0.077-0.036-0.161-0.069-0.25-0.098
					C88.92,38.159,88.567,38.105,88.182,38.105"/>
				<path fill="#666666" d="M74.344,38.105h-0.116h-0.355c-0.126,0.128-0.34,0.262-0.65,0.401c-0.3,0.133-0.652,0.253-1.068,0.347
					v0.267v0.088c0.225-0.043,0.491-0.108,0.769-0.188c0.224-0.064,0.414-0.132,0.566-0.195c0.047-0.019,0.09-0.036,0.13-0.057
					v2.269v0.058h0.726V38.105"/>
				<path fill="#666666" d="M77.419,40.667c-0.035-0.019-0.069-0.042-0.103-0.066c-0.233-0.159-0.341-0.484-0.341-0.971
					c0-0.491,0.115-0.824,0.374-1.007c0.201-0.142,0.47-0.213,0.801-0.213c0.255,0,0.478,0.044,0.669,0.133
					c0.066,0.029,0.128,0.065,0.187,0.107c0.226,0.162,0.344,0.488,0.344,0.979c0,0.486-0.118,0.808-0.344,0.971
					c-0.224,0.163-0.513,0.243-0.844,0.243C77.868,40.844,77.623,40.783,77.419,40.667 M78.162,38.105
					c-0.44,0-0.792,0.059-1.079,0.176c-0.29,0.119-0.504,0.278-0.644,0.497c-0.147,0.214-0.225,0.499-0.225,0.852
					c0,0.557,0.204,0.955,0.59,1.208c0.009,0.006,0.021,0.012,0.029,0.018c0.329,0.19,0.768,0.291,1.328,0.291
					c0.438,0,0.791-0.058,1.078-0.175c0.291-0.118,0.505-0.283,0.644-0.497c0.148-0.215,0.214-0.497,0.214-0.845
					c0-0.299-0.042-0.535-0.129-0.706c-0.085-0.176-0.213-0.32-0.375-0.442c-0.087-0.071-0.188-0.131-0.308-0.182
					c-0.085-0.037-0.181-0.069-0.28-0.098C78.76,38.137,78.482,38.105,78.162,38.105"/>
				<path fill="#666666" d="M62.25,38.105h-0.115h-0.353c-0.129,0.128-0.344,0.262-0.655,0.401
					c-0.298,0.133-0.661,0.253-1.067,0.347v0.267v0.088c0.224-0.043,0.48-0.108,0.77-0.188c0.225-0.065,0.41-0.133,0.567-0.196
					c0.044-0.02,0.088-0.036,0.127-0.056v2.269v0.058h0.727V38.105"/>
				<path fill="#666666" d="M66.26,38.105h-0.127h-0.342c-0.13,0.128-0.343,0.262-0.654,0.401c-0.299,0.133-0.66,0.253-1.066,0.347
					v0.266v0.089c0.224-0.043,0.48-0.108,0.768-0.188c0.226-0.065,0.41-0.133,0.568-0.196c0.045-0.02,0.088-0.036,0.129-0.056v2.269
					v0.058h0.725V38.105"/>
				<path fill="#666666" d="M49.537,38.105h-0.116h-0.353c-0.129,0.128-0.344,0.262-0.652,0.401
					c-0.299,0.133-0.654,0.253-1.069,0.347v0.267v0.088c0.225-0.043,0.492-0.108,0.771-0.188c0.222-0.064,0.41-0.132,0.566-0.195
					c0.047-0.019,0.088-0.036,0.128-0.057v2.269v0.058h0.726V38.105"/>
				<path fill="#666666" d="M53.387,38.105c-0.565,0-1.014,0.076-1.345,0.22c-0.32,0.14-0.512,0.338-0.568,0.59
					c-0.006,0.017-0.008,0.032-0.01,0.052l0.746,0.038c0-0.188,0.107-0.332,0.323-0.439c0.213-0.106,0.49-0.155,0.843-0.155
					c0.307,0,0.557,0.041,0.761,0.126c0.019,0.01,0.034,0.017,0.053,0.023c0.203,0.097,0.313,0.219,0.313,0.364
					c0,0.14-0.12,0.284-0.345,0.438c-0.235,0.154-0.663,0.368-1.316,0.631c-0.414,0.17-0.736,0.32-0.95,0.454
					c-0.226,0.129-0.386,0.262-0.481,0.396c-0.048,0.061-0.078,0.127-0.085,0.192c-0.003,0.02-0.003,0.038,0,0.058h3.936V40.74
					h-0.13h-2.791c0.024-0.019,0.05-0.037,0.078-0.058c0.065-0.045,0.14-0.092,0.224-0.138c0.126-0.065,0.404-0.188,0.844-0.375
					c0.532-0.22,0.908-0.396,1.133-0.524c0.225-0.124,0.385-0.245,0.482-0.363c0.094-0.113,0.149-0.23,0.149-0.348
					c0-0.231-0.169-0.428-0.492-0.582c-0.004-0.001-0.005-0.003-0.011-0.006C54.415,38.186,53.966,38.105,53.387,38.105"/>
				<path fill="#666666" d="M37.135,38.105h-0.117h-0.354c-0.128,0.128-0.342,0.262-0.651,0.401c-0.3,0.133-0.653,0.253-1.069,0.347
					v0.267v0.088c0.224-0.043,0.491-0.108,0.77-0.188c0.221-0.064,0.413-0.132,0.567-0.195c0.046-0.019,0.089-0.036,0.127-0.057
					v2.269v0.058h0.728V38.105"/>
				<path fill="#666666" d="M40.877,38.105c-0.47,0-0.865,0.07-1.176,0.202c-0.3,0.127-0.498,0.302-0.591,0.521
					c-0.007,0.016-0.013,0.032-0.019,0.046l0.728,0.07c0.053-0.182,0.171-0.315,0.363-0.405c0.192-0.087,0.427-0.136,0.717-0.136
					c0.256,0,0.476,0.043,0.651,0.116c0.015,0.005,0.029,0.013,0.043,0.02c0.182,0.083,0.278,0.196,0.278,0.331
					c0,0.171-0.128,0.294-0.375,0.379c-0.245,0.081-0.534,0.118-0.844,0.118h-0.118l-0.056,0.237l-0.019,0.082
					c0.203-0.03,0.374-0.042,0.513-0.042c0.314,0,0.59,0.046,0.8,0.15c0.012,0.004,0.024,0.01,0.034,0.015
					c0.224,0.107,0.333,0.245,0.333,0.412c0,0.178-0.118,0.326-0.354,0.444c-0.245,0.116-0.534,0.177-0.875,0.177
					c-0.289,0-0.535-0.043-0.738-0.135c-0.042-0.019-0.082-0.04-0.118-0.064c-0.141-0.092-0.242-0.218-0.309-0.385l-0.091,0.008
					l-0.636,0.04c0.039,0.229,0.215,0.418,0.509,0.566c0.025,0.014,0.051,0.026,0.079,0.039c0.342,0.155,0.78,0.233,1.305,0.233
					c0.577,0,1.058-0.09,1.432-0.272c0.385-0.181,0.567-0.399,0.567-0.655c0-0.193-0.097-0.354-0.29-0.482
					c-0.054-0.036-0.116-0.068-0.183-0.098c-0.172-0.075-0.387-0.126-0.639-0.154c0.038-0.007,0.075-0.018,0.111-0.027
					c0.222-0.061,0.388-0.137,0.509-0.229c0.138-0.102,0.202-0.219,0.202-0.347c0-0.14-0.074-0.262-0.213-0.386
					c-0.077-0.063-0.169-0.12-0.279-0.167c-0.102-0.043-0.218-0.084-0.352-0.115C41.497,38.144,41.209,38.105,40.877,38.105"/>
				<path fill="#666666" d="M24.732,38.105h-0.117h-0.354c-0.128,0.128-0.342,0.262-0.652,0.401
					c-0.299,0.133-0.651,0.253-1.069,0.347v0.267v0.088c0.225-0.043,0.492-0.108,0.77-0.188c0.222-0.064,0.413-0.132,0.566-0.195
					c0.047-0.019,0.089-0.036,0.128-0.057v2.269v0.058h0.727V38.105"/>
				<path fill="#666666" d="M28.827,38.798l0.129-0.094v1.343h-1.872l0.083-0.059L28.827,38.798 M29.682,38.118h-0.128h-0.47
					l-2.717,1.929v0.271v0.064h2.459h0.129v0.653v0.058h0.726v-0.711h0.802v-0.336h-0.118h-0.685v-0.059V38.118"/>
				<path fill="#666666" d="M12.329,38.105h-0.118h-0.353c-0.128,0.128-0.342,0.262-0.652,0.401
					c-0.299,0.133-0.652,0.253-1.069,0.347v0.267v0.088c0.235-0.043,0.492-0.108,0.77-0.188c0.222-0.064,0.413-0.132,0.566-0.195
					c0.046-0.019,0.089-0.036,0.129-0.057v2.269v0.058h0.727V38.105"/>
				<path fill="#666666" d="M17.868,38.159H17.75h-2.844l-0.547,1.476l-0.02,0.053l0.684,0.043c0.107-0.085,0.256-0.153,0.438-0.209
					c0.193-0.052,0.406-0.078,0.642-0.078c0.35,0,0.63,0.051,0.854,0.149c0.022,0.01,0.043,0.021,0.064,0.031
					c0.235,0.123,0.352,0.282,0.352,0.492c0,0.218-0.117,0.396-0.363,0.528c-0.246,0.134-0.546,0.199-0.897,0.199
					c-0.289,0-0.534-0.043-0.749-0.139c-0.039-0.02-0.074-0.039-0.107-0.062c-0.145-0.091-0.245-0.208-0.289-0.361l-0.095,0.004
					L14.2,40.313c0.045,0.214,0.192,0.393,0.445,0.534c0.044,0.024,0.092,0.049,0.143,0.069c0.342,0.151,0.792,0.229,1.326,0.229
					c0.663,0,1.187-0.122,1.572-0.363c0.311-0.198,0.471-0.427,0.471-0.699c0-0.284-0.182-0.513-0.546-0.689
					c-0.007-0.004-0.014-0.007-0.022-0.012c-0.349-0.174-0.78-0.261-1.292-0.261c-0.385,0-0.759,0.063-1.123,0.187l0.047-0.116
					l0.274-0.686h2.375V38.159"/>
				<path fill="#666666" d="M-0.074,38.105h-0.118h-0.353c-0.129,0.128-0.343,0.262-0.642,0.401c-0.31,0.133-0.663,0.253-1.08,0.347
					v0.267v0.088c0.235-0.043,0.491-0.108,0.77-0.188c0.222-0.064,0.413-0.132,0.567-0.195c0.045-0.019,0.088-0.036,0.127-0.057
					v2.269v0.058h0.728V38.105"/>
				<path fill="#666666" d="M2.98,40.655c-0.081-0.047-0.153-0.103-0.21-0.165c-0.107-0.113-0.161-0.233-0.161-0.357
					c0-0.192,0.118-0.349,0.342-0.466c0.235-0.123,0.513-0.183,0.844-0.183c0.295,0,0.546,0.047,0.749,0.143
					c0.025,0.014,0.05,0.026,0.074,0.04c0.225,0.117,0.332,0.278,0.332,0.481c0,0.214-0.107,0.385-0.332,0.513
					c-0.225,0.122-0.492,0.183-0.802,0.183c-0.203,0-0.406-0.026-0.598-0.085C3.13,40.728,3.051,40.693,2.98,40.655 M3.904,38.105
					c-0.631,0-1.123,0.112-1.498,0.342c-0.428,0.263-0.642,0.68-0.642,1.257c0,0.51,0.19,0.877,0.569,1.101
					c0.002,0.002,0.005,0.003,0.009,0.006c0.385,0.226,0.887,0.336,1.497,0.336c0.353,0,0.673-0.042,0.952-0.127
					c0.288-0.085,0.501-0.209,0.663-0.369c0.16-0.16,0.245-0.337,0.245-0.524c0-0.282-0.17-0.512-0.513-0.693
					c-0.047-0.025-0.097-0.05-0.147-0.069c-0.312-0.133-0.678-0.198-1.092-0.198c-0.29,0-0.547,0.029-0.803,0.097
					c-0.257,0.063-0.471,0.166-0.652,0.299c0.002-0.054,0.005-0.104,0.011-0.153c0.025-0.227,0.088-0.405,0.202-0.536
					c0.129-0.161,0.311-0.282,0.546-0.364c0.171-0.069,0.375-0.103,0.609-0.103c0.254,0,0.474,0.043,0.655,0.125
					c0.025,0.012,0.049,0.024,0.072,0.036c0.099,0.055,0.181,0.134,0.243,0.242c0.012,0.021,0.025,0.044,0.035,0.067l0.727-0.026
					c-0.053-0.233-0.235-0.417-0.534-0.545c-0.002-0.001-0.003-0.001-0.004-0.001C4.756,38.169,4.373,38.105,3.904,38.105"/>
				<path fill="#666666" d="M89.068,59.341h-0.13h-0.342c-0.128,0.128-0.353,0.261-0.653,0.4c-0.308,0.135-0.66,0.251-1.067,0.348
					v0.267v0.086c0.224-0.042,0.48-0.101,0.76-0.187c0.229-0.068,0.419-0.134,0.578-0.2c0.042-0.017,0.08-0.034,0.116-0.052v2.268
					v0.059h0.738V59.341"/>
				<path fill="#666666" d="M75.886,59.341c-0.568,0-1.017,0.075-1.349,0.225c-0.319,0.136-0.512,0.329-0.575,0.584
					c-0.006,0.019-0.01,0.034-0.016,0.052l0.75,0.038c0.013-0.181,0.119-0.332,0.333-0.438c0.201-0.102,0.491-0.154,0.844-0.154
					c0.317,0,0.579,0.044,0.778,0.137c0.006,0.005,0.017,0.009,0.025,0.012c0.214,0.096,0.309,0.22,0.309,0.363
					c0,0.139-0.106,0.289-0.341,0.445c-0.226,0.153-0.664,0.362-1.305,0.625c-0.417,0.17-0.739,0.319-0.963,0.453
					c-0.214,0.128-0.373,0.263-0.482,0.396c-0.039,0.062-0.068,0.125-0.079,0.192c-0.005,0.018-0.005,0.038-0.005,0.059h3.934
					v-0.346h-0.115h-2.804c0.027-0.023,0.059-0.044,0.088-0.066c0.066-0.045,0.142-0.09,0.223-0.133
					c0.128-0.07,0.406-0.191,0.845-0.374c0.523-0.224,0.898-0.401,1.133-0.53c0.225-0.123,0.385-0.246,0.481-0.356
					c0.096-0.119,0.149-0.236,0.149-0.354c0-0.236-0.169-0.434-0.501-0.589c-0.011-0.004-0.02-0.009-0.028-0.013
					C76.887,59.417,76.435,59.341,75.886,59.341"/>
				<path fill="#666666" d="M63.373,59.341c-0.47,0-0.865,0.069-1.185,0.202c-0.288,0.125-0.486,0.301-0.587,0.521
					c-0.011,0.02-0.017,0.034-0.023,0.054l0.738,0.063c0.053-0.183,0.171-0.316,0.364-0.401c0.191-0.09,0.426-0.133,0.705-0.133
					c0.248,0,0.456,0.03,0.625,0.095c0.03,0.009,0.055,0.021,0.08,0.033c0.182,0.09,0.268,0.198,0.268,0.337
					c0,0.166-0.119,0.293-0.374,0.374c-0.246,0.079-0.524,0.122-0.836,0.122l-0.115-0.004l-0.066,0.239l-0.02,0.08
					c0.213-0.026,0.385-0.043,0.523-0.043c0.3,0,0.555,0.044,0.769,0.138c0.021,0.007,0.044,0.018,0.064,0.029
					c0.214,0.105,0.333,0.245,0.333,0.411c0,0.176-0.128,0.326-0.364,0.443c-0.235,0.117-0.524,0.182-0.867,0.182
					c-0.286,0-0.533-0.049-0.736-0.139c-0.033-0.014-0.066-0.033-0.096-0.05c-0.153-0.092-0.262-0.227-0.332-0.399l-0.098,0.007
					l-0.64,0.041c0.049,0.229,0.21,0.412,0.506,0.561c0.03,0.015,0.06,0.028,0.093,0.045c0.341,0.159,0.779,0.233,1.303,0.233
					c0.579,0,1.05-0.089,1.433-0.267c0.376-0.182,0.568-0.405,0.568-0.663c0-0.191-0.098-0.354-0.29-0.48
					c-0.061-0.038-0.127-0.073-0.201-0.104c-0.169-0.07-0.373-0.122-0.621-0.149c0.037-0.007,0.073-0.017,0.105-0.026
					c0.216-0.061,0.383-0.136,0.504-0.223c0.14-0.107,0.213-0.226,0.213-0.353c0-0.135-0.073-0.264-0.225-0.385
					c-0.069-0.063-0.163-0.117-0.27-0.166c-0.103-0.045-0.221-0.084-0.35-0.119C63.993,59.38,63.693,59.341,63.373,59.341"/>
				<path fill="#666666" d="M51.324,60.025l0.117-0.086v1.341h-1.859l0.08-0.058L51.324,60.025 M52.181,59.356H52.05h-0.468
					l-2.718,1.924v0.278v0.059h2.46h0.117v0.653v0.059h0.739v-0.712h0.8V61.28h-0.127h-0.673v-0.058V59.356"/>
				<path fill="#666666" d="M40.364,59.394h-0.118h-2.844l-0.558,1.479l-0.019,0.05l0.684,0.049
					c0.117-0.092,0.267-0.156,0.449-0.209c0.192-0.054,0.406-0.08,0.642-0.08c0.321,0,0.595,0.043,0.815,0.13
					c0.036,0.015,0.071,0.03,0.105,0.046c0.234,0.124,0.353,0.29,0.353,0.499c0,0.218-0.128,0.395-0.364,0.522
					c-0.246,0.135-0.545,0.203-0.898,0.203c-0.289,0-0.545-0.049-0.748-0.144c-0.027-0.011-0.052-0.024-0.077-0.039
					c-0.162-0.091-0.273-0.221-0.32-0.383l-0.102,0.004l-0.667,0.026c0.048,0.229,0.21,0.417,0.496,0.56
					c0.03,0.018,0.061,0.031,0.093,0.046c0.342,0.154,0.78,0.229,1.326,0.229c0.663,0,1.187-0.123,1.561-0.363
					c0.321-0.197,0.471-0.426,0.471-0.694c0-0.283-0.182-0.519-0.534-0.694c-0.008-0.004-0.016-0.008-0.023-0.012
					c-0.349-0.174-0.78-0.263-1.293-0.263c-0.396,0-0.77,0.064-1.123,0.188l0.046-0.116l0.274-0.687h2.374V59.394"/>
				<path fill="#666666" d="M25.48,61.89c-0.084-0.045-0.155-0.1-0.213-0.164c-0.107-0.112-0.16-0.237-0.16-0.358
					c0-0.192,0.106-0.347,0.342-0.466c0.235-0.117,0.513-0.176,0.844-0.176c0.296,0,0.548,0.046,0.751,0.141
					c0.025,0.012,0.05,0.021,0.073,0.035c0.225,0.119,0.332,0.278,0.332,0.486c0,0.215-0.118,0.379-0.332,0.508
					c-0.224,0.123-0.492,0.188-0.802,0.188c-0.203,0-0.406-0.031-0.599-0.091C25.629,61.964,25.55,61.931,25.48,61.89
					 M26.401,59.341c-0.632,0-1.134,0.117-1.498,0.342c-0.427,0.262-0.642,0.68-0.642,1.256c0,0.514,0.193,0.883,0.579,1.107
					c0,0,0.001,0.001,0.002,0.001c0.384,0.224,0.875,0.335,1.483,0.335c0.363,0,0.684-0.043,0.962-0.127
					c0.278-0.087,0.502-0.209,0.662-0.369c0.161-0.16,0.247-0.338,0.247-0.519c0-0.289-0.172-0.52-0.513-0.701
					c-0.048-0.023-0.098-0.047-0.147-0.068c-0.313-0.132-0.68-0.198-1.104-0.198c-0.278,0-0.545,0.031-0.791,0.096
					c-0.257,0.069-0.47,0.167-0.652,0.301c0.002-0.054,0.005-0.101,0.01-0.148c0.025-0.228,0.086-0.405,0.193-0.536
					c0.14-0.167,0.32-0.29,0.546-0.37c0.181-0.064,0.384-0.095,0.62-0.095c0.253,0,0.474,0.036,0.654,0.117
					c0.024,0.011,0.049,0.022,0.072,0.037c0.1,0.053,0.185,0.137,0.246,0.247c0.012,0.02,0.023,0.041,0.032,0.063l0.728-0.027
					c-0.065-0.23-0.236-0.413-0.535-0.546c-0.009-0.005-0.018-0.008-0.029-0.012C27.23,59.407,26.856,59.341,26.401,59.341"/>
				<path fill="#666666" d="M15.793,59.394h-0.118h-3.73v0.289v0.059h2.688h0.219c-0.364,0.214-0.716,0.47-1.048,0.782
					c-0.331,0.309-0.578,0.629-0.759,0.961c-0.158,0.306-0.25,0.564-0.266,0.786c0,0.021-0.002,0.04-0.002,0.059h0.749
					c0.042-0.295,0.127-0.566,0.277-0.817c0.204-0.353,0.492-0.696,0.866-1.032c0.374-0.332,0.748-0.599,1.122-0.803V59.394"/>
				<path fill="#666666" d="M0.512,61.875c-0.048-0.029-0.09-0.065-0.125-0.102c-0.108-0.097-0.151-0.198-0.151-0.3
					c0-0.171,0.107-0.314,0.332-0.427c0.225-0.111,0.514-0.17,0.856-0.17c0.312,0,0.582,0.044,0.802,0.132
					c0.029,0.013,0.057,0.024,0.085,0.038c0.225,0.118,0.342,0.261,0.342,0.438c0,0.172-0.106,0.315-0.342,0.427
					c-0.225,0.114-0.514,0.172-0.855,0.172c-0.225,0-0.438-0.027-0.631-0.079C0.696,61.97,0.593,61.929,0.512,61.875 M0.672,60.405
					c-0.136-0.084-0.201-0.184-0.201-0.305c0-0.128,0.085-0.236,0.267-0.321c0.192-0.09,0.417-0.133,0.695-0.133
					c0.25,0,0.465,0.034,0.637,0.107c0.02,0.008,0.039,0.016,0.058,0.025c0.192,0.092,0.277,0.203,0.277,0.338
					c0,0.127-0.085,0.238-0.267,0.324c-0.182,0.092-0.407,0.134-0.695,0.134c-0.289,0-0.524-0.042-0.706-0.134
					C0.714,60.43,0.693,60.418,0.672,60.405 M1.434,59.341c-0.524,0-0.931,0.075-1.252,0.225c-0.31,0.144-0.459,0.325-0.459,0.546
					c0,0.144,0.075,0.267,0.214,0.368c0.018,0.011,0.037,0.023,0.056,0.035c0.106,0.061,0.242,0.114,0.406,0.155
					c0.066,0.017,0.136,0.031,0.211,0.045c-0.364,0.048-0.642,0.138-0.834,0.268c-0.192,0.134-0.299,0.293-0.299,0.486
					c0,0.251,0.168,0.463,0.502,0.631c0.014,0.006,0.028,0.014,0.043,0.023c0.364,0.175,0.834,0.259,1.422,0.259
					c0.588,0,1.058-0.084,1.421-0.259C3.22,61.948,3.4,61.736,3.4,61.48c0-0.182-0.095-0.345-0.288-0.479
					c-0.057-0.039-0.126-0.076-0.202-0.11c-0.167-0.074-0.376-0.134-0.633-0.177c0.032-0.006,0.063-0.013,0.092-0.018
					c0.253-0.053,0.446-0.127,0.571-0.218c0.149-0.102,0.214-0.22,0.214-0.357c0-0.218-0.147-0.397-0.461-0.547
					c-0.003-0.002-0.006-0.003-0.008-0.006C2.364,59.416,1.947,59.341,1.434,59.341"/>
			</g>
		</g>
	</g>
	<path opacity="0.44" fill="#B3B3B3" d="M-12.942,40.373c0-4.26,3.485-7.745,7.745-7.745H94.939c4.261,0,7.744,3.485,7.744,7.745
		v0.5c0-4.26-3.483-8-7.744-8H-5.197c-4.26,0-7.745,3.74-7.745,8V40.373z"/>
	<path opacity="0.44" fill="#B3B3B3" d="M-12.942,42.367c0-4.26,3.485-7.745,7.745-7.745H94.939c4.261,0,7.744,3.485,7.744,7.745
		v0.5c0-4.26-3.483-8-7.744-8H-5.197c-4.26,0-7.745,3.74-7.745,8V42.367z"/>
	<path opacity="0.77" d="M102.684,57.803c0,4.26-3.484,7.745-7.744,7.745H-5.198c-4.261,0-7.744-3.485-7.744-7.745v-0.5
		c0,4.26,3.483,8,7.744,8H94.939c4.26,0,7.744-3.74,7.744-8V57.803z"/>
</g>
</svg>
