<?xml version="1.0" encoding="utf-8"?>
<!-- Generator: Adobe Illustrator 15.1.0, SVG Export Plug-In . SVG Version: 6.00 Build 0)  -->
<!DOCTYPE svg PUBLIC "-//W3C//DTD SVG 1.1//EN" "http://www.w3.org/Graphics/SVG/1.1/DTD/svg11.dtd">
<svg version="1.1" id="Ebene_1" xmlns="http://www.w3.org/2000/svg" xmlns:xlink="http://www.w3.org/1999/xlink" x="0px" y="0px"
	 width="25.512px" height="51.857px" viewBox="0 0 25.512 51.857" enable-background="new 0 0 25.512 51.857" xml:space="preserve">
<g>
	<g>
		<rect x="0.891" y="1.701" fill="#232323" width="23.733" height="32.97"/>
		<rect x="1.464" y="2.133" fill="#494949" width="1.645" height="31.934"/>
		<rect x="3.112" y="2.133" fill="#3D3D3D" fill-opacity="0.3" width="5.369" height="31.934"/>
		<rect x="22.487" y="2.133" width="1.619" height="32.971"/>
		<rect x="16.709" y="2.133" fill="#0F0F0F" fill-opacity="0.4" width="5.828" height="32.971"/>
	</g>
	<rect x="0.891" y="1.701" opacity="0.2" enable-background="new    " width="23.733" height="0.592"/>
</g>
<line opacity="0.5" fill="none" stroke="#000000" stroke-width="0.25" stroke-miterlimit="10" enable-background="new    " x1="24.624" y1="4.511" x2="0.891" y2="4.511"/>
<g>
	<rect x="0.917" y="31.175" opacity="0.25" enable-background="new    " width="23.729" height="1.287"/>
	<path opacity="0.25" stroke="#565656" stroke-width="0.25" stroke-miterlimit="10" enable-background="new    " d="M5.215,32.18
		h15.081V18.882c0-4.165-3.376-7.541-7.541-7.541c-4.164,0-7.541,3.376-7.541,7.541L5.215,32.18L5.215,32.18z"/>
</g>
<g>
	<path fill="#232323" d="M5.215,32.18h15.081V18.882c0-4.165-3.376-7.541-7.541-7.541c-4.164,0-7.541,3.376-7.541,7.541L5.215,32.18
		L5.215,32.18z"/>
	<rect y="31.452" fill="#232323" width="25.512" height="7.688"/>
</g>
<rect x="9.9" y="0" fill="#6D6D6D" width="5.713" height="1.701"/>
<rect x="7.146" y="0.726" fill="#494949" width="11.221" height="0.975"/>
<g>
	<g enable-background="new    ">
		<defs>
			<rect id="SVGID_1_" x="0.028" y="39.106" enable-background="new    " width="25.506" height="12.752"/>
		</defs>
		<clipPath id="SVGID_2_">
			<use xlink:href="#SVGID_1_"  overflow="visible"/>
		</clipPath>
		<g clip-path="url(#SVGID_2_)">
			<path fill="#1A1A1A" d="M5.43,49.145c-1.869-0.939-3.025-2.232-3.025-3.663c0-2.862,4.644-5.188,10.377-5.188
				c5.733,0,10.376,2.326,10.376,5.188c0,0.163-0.016,0.324-0.045,0.483c-0.313,2.721-4.83,4.885-10.359,4.885
				c-5.733,0-10.377-2.326-10.377-5.188v-0.193C2.377,46.905,3.544,48.205,5.43,49.145 M2.404,45.455v-0.189
				c0-2.867,4.644-5.188,10.377-5.188c5.733,0,10.376,2.321,10.376,5.188v0.189c0-2.867-4.644-5.189-10.376-5.189
				C7.048,40.266,2.404,42.588,2.404,45.455 M25.534,39.106H0.028v12.752h25.506V39.106"/>
			<path d="M14.986,40.803v4.679c0,0.249-0.163,0.478-0.438,0.662c-0.288,0.339-0.958,0.575-1.74,0.575
				c-0.694,0-1.303-0.189-1.629-0.473c-0.379-0.199-0.612-0.468-0.612-0.765v-4.678c-4.242,0.5-7.398,2.403-7.398,4.678
				c0,2.655,4.302,4.806,9.612,4.806s9.612-2.15,9.612-4.806C22.394,43.206,19.233,41.301,14.986,40.803"/>
			<path fill="#808080" d="M12.782,40.676c-0.762,0-1.503,0.045-2.214,0.128v4.678c0-0.607,0.99-1.103,2.214-1.103
				c1.215,0,2.205,0.495,2.205,1.103v-4.679C14.279,40.72,13.54,40.676,12.782,40.676"/>
			<path fill="#333333" d="M12.782,40.676c0.758,0,1.497,0.044,2.205,0.127c4.247,0.498,7.407,2.403,7.407,4.679
				c0,2.655-4.302,4.806-9.612,4.806s-9.612-2.15-9.612-4.806c0-2.274,3.156-4.178,7.398-4.678
				C11.278,40.721,12.02,40.676,12.782,40.676 M12.782,40.293c-5.733,0-10.377,2.326-10.377,5.188c0,1.431,1.156,2.724,3.025,3.663
				c1.876,0.934,4.465,1.512,7.325,1.512c5.733,0,10.377-2.322,10.377-5.188v0.193c0,0.102-0.007,0.202-0.019,0.303
				c0.029-0.159,0.045-0.32,0.045-0.483C23.158,42.619,18.515,40.293,12.782,40.293"/>
			<path fill="#B3B3B3" d="M12.782,44.379c-1.224,0-2.214,0.495-2.214,1.103c0,0.297,0.233,0.565,0.612,0.765
				c-0.16-0.139-0.252-0.301-0.252-0.473c0-0.521,0.846-0.939,1.881-0.939c1.044,0,1.89,0.418,1.89,0.939
				c0,0.132-0.054,0.257-0.15,0.37c0.275-0.185,0.438-0.413,0.438-0.662C14.986,44.874,13.997,44.379,12.782,44.379"/>
			<path fill="#CCCCCC" d="M12.809,44.834c-1.035,0-1.881,0.418-1.881,0.939c0,0.172,0.092,0.334,0.252,0.473
				c0.326,0.283,0.935,0.473,1.629,0.473c0.782,0,1.453-0.236,1.74-0.575c0.096-0.113,0.15-0.238,0.15-0.37
				C14.699,45.252,13.853,44.834,12.809,44.834"/>
			<path fill="#4D4D4D" d="M12.782,40.077c-5.733,0-10.377,2.321-10.377,5.188v0.189c0-2.867,4.644-5.189,10.377-5.189
				c5.733,0,10.376,2.322,10.376,5.189v-0.189C23.158,42.399,18.515,40.077,12.782,40.077"/>
			<path d="M23.132,45.469c0,2.865-4.645,5.188-10.377,5.188c-2.859,0-5.448-0.578-7.325-1.512c-1.886-0.939-3.052-2.24-3.052-3.676
				v0.193c0,2.861,4.644,5.188,10.377,5.188c5.529,0,10.045-2.164,10.359-4.885c0.012-0.101,0.019-0.201,0.019-0.303V45.469"/>
		</g>
	</g>
</g>
<rect x="0.414" y="32.18" fill="#494949" width="1.05" height="6.264"/>
<rect x="24.1" y="32.18" width="1.05" height="6.264"/>
</svg>
