<?xml version="1.0" encoding="utf-8"?>
<!-- Generator: Adobe Illustrator 15.1.0, SVG Export Plug-In . SVG Version: 6.00 Build 0)  -->
<!DOCTYPE svg PUBLIC "-//W3C//DTD SVG 1.1//EN" "http://www.w3.org/Graphics/SVG/1.1/DTD/svg11.dtd">
<svg version="1.1" id="Ebene_1" xmlns:svg="http://www.w3.org/2000/svg"
	 xmlns="http://www.w3.org/2000/svg" xmlns:xlink="http://www.w3.org/1999/xlink" x="0px" y="0px" width="52.458px"
	 height="49.021px" viewBox="0 0 52.458 49.021" enable-background="new 0 0 52.458 49.021" xml:space="preserve">
<g>
	<g>
		<g>
			<g>
				<rect x="31.979" y="0.374" fill="#CCCCCC" width="2.875" height="3.474"/>
				<rect x="31.979" y="0.374" fill="#E6E6E6" width="0.541" height="3.474"/>
				<rect x="34.354" y="0.374" fill="#B3B3B3" width="0.541" height="3.474"/>
			</g>
			<g>
				<rect x="17.578" y="0.374" fill="#CCCCCC" width="2.875" height="3.474"/>
				<rect x="17.578" y="0.374" fill="#E6E6E6" width="0.542" height="3.474"/>
				<rect x="19.953" y="0.374" fill="#B3B3B3" width="0.542" height="3.474"/>
			</g>
		</g>
		<polygon fill="#666666" points="8.129,3.847 8.129,0.972 2.72,0.972 2.72,4.776 2.735,4.776 2.735,12.275 49.739,12.275 
			49.739,3.847 		"/>
		<rect x="19.577" y="3.847" fill="#4D4D4D" width="13.32" height="8.429"/>
		<circle cx="26.237" cy="12.275" r="4.706"/>
		<rect x="19.577" y="3.847" fill="#333333" width="13.32" height="3.725"/>
		<polyline fill="#333333" points="52.458,13.011 52.458,49.02 0.017,49.02 0.017,13.011 52.458,13.011 		"/>
		<polygon fill="#4D4D4D" points="7.096,17.693 6.996,18.438 45.448,18.244 45.323,17.693 		"/>
		<polygon fill="#4D4D4D" points="7.096,44.337 6.996,43.593 45.448,43.786 45.323,44.337 		"/>
		<path d="M45.887,31.016c0-6.945-0.252-13.105-0.563-13.105H7.152c-0.312,0-0.563,6.16-0.563,13.105
			c0,6.945,0.251,13.105,0.563,13.105h38.173C45.635,44.122,45.887,37.962,45.887,31.016z"/>
		<polyline fill="#333333" points="52.444,10.975 0,10.975 0,13.011 52.444,13.011 52.444,10.975 		"/>
		<path fill="#1A1A1A" d="M40.293,18.438H7.513c-0.312,0-0.563,5.632-0.563,12.577c0,6.947,0.251,12.576,0.563,12.576h32.78V18.438
			L40.293,18.438z"/>
		
			<text transform="matrix(-4.442216e-008 1.0163 -1 -4.371139e-008 8.9683 30.3103)" fill="#F8F8F8" font-family="'ArialMT'" font-size="5">I</text>
		<g>
			<polyline fill="#333333" points="41.95,18.438 41.95,43.593 14.075,43.593 14.075,18.438 41.95,18.438 			"/>
			<polyline fill="#4D4D4D" points="41.241,18.438 41.241,43.593 19.435,43.593 19.435,18.438 41.241,18.438 			"/>
			<polyline fill="#666666" points="41.45,18.438 41.45,43.593 27.075,43.593 27.075,18.438 41.45,18.438 			"/>
			<path fill="#808080" d="M33.233,43.593V18.438h8.746c0.396,0,0.723,0.324,0.723,0.723v23.711c0,0.395-0.324,0.721-0.723,0.721
				H33.233L33.233,43.593z"/>
		</g>
		
			<text transform="matrix(-4.442216e-008 1.0163 -1 -4.371139e-008 36.4497 29.0408)" fill="#F8F8F8" font-family="'ArialMT'" font-size="5">O</text>
		<path fill="#808080" d="M42.543,43.313c0.311,0,0.563-5.354,0.563-12.299c0-6.945-0.252-12.298-0.563-12.298"/>
		<path opacity="0.15" fill="#FFFFFF" enable-background="new    " d="M41.95,18.438c0,0,0.465,0.063,0.678,0.374H7.375
			c0.043-0.155,0.137-0.374,0.137-0.374H41.95z"/>
		<g>
			<polygon opacity="0.24" enable-background="new    " points="52.458,49.02 52.458,48.016 1.021,48.016 0.016,49.02 			"/>
			<polygon opacity="0.24" fill="#F2F2F2" enable-background="new    " points="51.454,14.016 52.458,13.011 0.016,13.011 
				0.016,14.016 			"/>
			<polygon opacity="0.24" fill="#F2F2F2" enable-background="new    " points="1.021,48.016 0.016,49.02 0.016,14.016 
				1.021,14.016 			"/>
			<polygon opacity="0.24" enable-background="new    " points="52.458,13.011 51.454,14.016 51.454,48.016 52.458,48.016 			"/>
		</g>
		<rect x="44.329" y="0.972" fill="#666666" width="5.41" height="3.805"/>
		<polygon fill="#4D4D4D" points="1.3,10.975 2.735,10.975 2.735,5.709 		"/>
		<polygon fill="#4D4D4D" points="49.739,10.975 51.172,10.975 49.739,5.709 		"/>
	</g>
	<g>
		<polygon fill="#CCCCCC" points="20.07,0.001 18.002,0.001 17.578,0.374 20.495,0.374 		"/>
		<polygon fill="#E6E6E6" points="17.578,0.374 18.12,0.374 18.12,0.004 18.002,0.002 		"/>
		<polygon fill="#B3B3B3" points="19.953,0.374 20.495,0.374 20.07,0.002 19.953,0.004 		"/>
	</g>
	<g>
		<polygon fill="#CCCCCC" points="34.471,0.001 32.403,0.001 31.979,0.374 34.897,0.374 		"/>
		<polygon fill="#E6E6E6" points="31.979,0.374 32.522,0.374 32.522,0.004 32.403,0.002 		"/>
		<polygon fill="#B3B3B3" points="34.354,0.374 34.897,0.374 34.471,0.002 34.354,0.004 		"/>
	</g>
</g>
</svg>
