<?xml version="1.0" encoding="utf-8"?>
<!-- Generator: Adobe Illustrator 15.1.0, SVG Export Plug-In . SVG Version: 6.00 Build 0)  -->
<!DOCTYPE svg PUBLIC "-//W3C//DTD SVG 1.1//EN" "http://www.w3.org/Graphics/SVG/1.1/DTD/svg11.dtd">
<svg version="1.1" id="Ebene_1" xmlns:svg="http://www.w3.org/2000/svg"
	 xmlns="http://www.w3.org/2000/svg" xmlns:xlink="http://www.w3.org/1999/xlink" x="0px" y="0px" width="39.457px"
	 height="44.855px" viewBox="0 0 39.457 44.855" enable-background="new 0 0 39.457 44.855" xml:space="preserve">
<rect y="-9.406" fill="#1A1A1A" width="39.457" height="17.66"/>
<g>
	<g>
		<rect y="7.416" fill="#1A1A1A" width="39.457" height="37.439"/>
		<rect x="14.884" y="42.983" fill="#333333" width="9.689" height="0.5"/>
		<rect x="37.569" y="22.332" width="0.72" height="5.76"/>
		<rect x="1.216" y="22.332" width="0.72" height="5.76"/>
		<polygon points="29.027,10.769 10.432,10.769 10.432,13.745 1.891,13.745 1.891,36.678 10.432,36.678 10.432,36.987 
			10.432,39.655 14.884,39.655 14.884,43.483 24.574,43.483 24.574,39.655 29.026,39.655 29.026,36.987 29.027,36.987 
			29.027,36.678 37.569,36.678 37.569,13.745 29.027,13.745 		"/>
	</g>
	<rect y="44.391" width="39.457" height="0.453"/>
	<rect x="39.054" y="32.781" width="0.402" height="11.607"/>
	<rect y="7.416" opacity="0.42" fill="#CCCCCC" enable-background="new    " width="39.457" height="0.838"/>
</g>
<g>
	<g opacity="0.51">
		<g>
			<rect x="28.827" y="10.769" fill="#1A1A1A" width="1.246" height="17.7"/>
		</g>
		<g>
			<rect x="25.586" y="10.769" fill="#1A1A1A" width="1.246" height="17.7"/>
		</g>
		<g>
			<rect x="22.345" y="10.769" fill="#1A1A1A" width="1.249" height="17.7"/>
		</g>
		<g>
			<rect x="19.105" y="10.769" fill="#1A1A1A" width="1.248" height="17.7"/>
		</g>
		<g>
			<rect x="15.865" y="10.769" fill="#1A1A1A" width="1.246" height="17.7"/>
		</g>
		<g>
			<rect x="12.625" y="10.769" fill="#1A1A1A" width="1.246" height="17.7"/>
		</g>
		<g>
			<rect x="9.384" y="10.769" fill="#1A1A1A" width="1.246" height="17.7"/>
		</g>
	</g>
	<g opacity="0.61">
		<g>
			<g>
				<rect x="27.223" y="10.769" fill="#B5751F" width="1.248" height="14.923"/>
			</g>
			<g>
				<rect x="23.983" y="10.769" fill="#B5751F" width="1.248" height="14.923"/>
			</g>
			<g>
				<rect x="20.742" y="10.769" fill="#B5751F" width="1.246" height="14.923"/>
			</g>
			<g>
				<rect x="17.501" y="10.769" fill="#B5751F" width="1.246" height="14.923"/>
			</g>
			<g>
				<rect x="14.261" y="10.769" fill="#B5751F" width="1.248" height="14.923"/>
			</g>
			<g>
				<rect x="11.021" y="10.769" fill="#B5751F" width="1.248" height="14.923"/>
			</g>
		</g>
		<g>
			<g>
				<rect x="27.469" y="10.769" fill="#C4914C" width="0.756" height="14.923"/>
			</g>
			<g>
				<rect x="24.229" y="10.769" fill="#C4914C" width="0.756" height="14.923"/>
			</g>
			<g>
				<rect x="20.986" y="10.769" fill="#C4914C" width="0.758" height="14.923"/>
			</g>
			<g>
				<rect x="17.746" y="10.769" fill="#C4914C" width="0.758" height="14.923"/>
			</g>
			<g>
				<rect x="14.505" y="10.769" fill="#C4914C" width="0.758" height="14.923"/>
			</g>
			<g>
				<rect x="11.267" y="10.769" fill="#C4914C" width="0.756" height="14.923"/>
			</g>
		</g>
		<g>
			<g>
				<rect x="27.659" y="10.769" fill="#D3AC79" width="0.375" height="14.923"/>
			</g>
			<g>
				<rect x="24.418" y="10.769" fill="#D3AC79" width="0.375" height="14.923"/>
			</g>
			<g>
				<rect x="21.177" y="10.769" fill="#D3AC79" width="0.377" height="14.923"/>
			</g>
			<g>
				<rect x="17.937" y="10.769" fill="#D3AC79" width="0.377" height="14.923"/>
			</g>
			<g>
				<rect x="14.697" y="10.769" fill="#D3AC79" width="0.375" height="14.923"/>
			</g>
			<g>
				<rect x="11.457" y="10.769" fill="#D3AC79" width="0.375" height="14.923"/>
			</g>
		</g>
	</g>
</g>
<g>
	<g opacity="0.61">
		<g>
			<g>
				<rect x="27.937" y="-11.614" fill="#B5751F" width="0.534" height="17.705"/>
			</g>
			<g>
				<rect x="24.698" y="-11.614" fill="#B5751F" width="0.533" height="17.705"/>
			</g>
			<g>
				<rect x="21.455" y="-11.614" fill="#B5751F" width="0.533" height="17.705"/>
			</g>
			<g>
				<rect x="18.215" y="-11.614" fill="#B5751F" width="0.533" height="17.705"/>
			</g>
			<g>
				<rect x="14.977" y="-11.614" fill="#B5751F" width="0.533" height="17.705"/>
			</g>
			<g>
				<rect x="11.736" y="-11.614" fill="#B5751F" width="0.533" height="17.705"/>
			</g>
		</g>
		<g>
			<g>
				<rect x="27.937" y="-11.614" fill="#C4914C" width="0.288" height="17.705"/>
			</g>
			<g>
				<rect x="24.697" y="-11.614" fill="#C4914C" width="0.288" height="17.705"/>
			</g>
			<g>
				<rect x="21.456" y="-11.614" fill="#C4914C" width="0.288" height="17.705"/>
			</g>
			<g>
				<rect x="18.215" y="-11.614" fill="#C4914C" width="0.288" height="17.705"/>
			</g>
			<g>
				<rect x="14.975" y="-11.614" fill="#C4914C" width="0.288" height="17.705"/>
			</g>
			<g>
				<rect x="11.735" y="-11.614" fill="#C4914C" width="0.288" height="17.705"/>
			</g>
		</g>
		<g>
			<g>
				<rect x="27.89" y="-11.614" fill="#D3AC79" width="0.144" height="17.705"/>
			</g>
			<g>
				<rect x="24.65" y="-11.614" fill="#D3AC79" width="0.144" height="17.705"/>
			</g>
			<g>
				<rect x="21.411" y="-11.614" fill="#D3AC79" width="0.144" height="17.705"/>
			</g>
			<g>
				<rect x="18.17" y="-11.614" fill="#D3AC79" width="0.144" height="17.705"/>
			</g>
			<g>
				<rect x="14.928" y="-11.614" fill="#D3AC79" width="0.144" height="17.705"/>
			</g>
			<g>
				<rect x="11.688" y="-11.614" fill="#D3AC79" width="0.144" height="17.705"/>
			</g>
		</g>
	</g>
</g>
<g opacity="0.58">
	<g>
		<g>
			<rect x="27.223" y="-11.614" width="1.248" height="17.773"/>
		</g>
		<g>
			<rect x="23.983" y="-11.614" width="1.248" height="17.773"/>
		</g>
		<g>
			<rect x="20.742" y="-11.614" width="1.246" height="17.773"/>
		</g>
		<g>
			<rect x="17.501" y="-11.614" width="1.246" height="17.773"/>
		</g>
		<g>
			<rect x="14.261" y="-11.614" width="1.248" height="17.773"/>
		</g>
		<g>
			<rect x="11.021" y="-11.614" width="1.248" height="17.773"/>
		</g>
	</g>
	<g>
		<rect x="11.021" y="-11.614" fill="#4D4D4D" width="0.246" height="17.773"/>
	</g>
	<g>
		<rect x="14.205" y="-11.614" fill="#4D4D4D" width="0.246" height="17.773"/>
	</g>
	<g>
		<rect x="17.5" y="-11.614" fill="#4D4D4D" width="0.246" height="17.773"/>
	</g>
	<g>
		<rect x="20.742" y="-11.614" fill="#4D4D4D" width="0.246" height="17.773"/>
	</g>
	<g>
		<rect x="23.983" y="-11.614" fill="#4D4D4D" width="0.246" height="17.773"/>
	</g>
	<g>
		<rect x="27.223" y="-11.614" fill="#4D4D4D" width="0.246" height="17.773"/>
	</g>
</g>
<rect y="-12.156" opacity="0.16" fill="#B3B3B3" width="2.978" height="19.572"/>
<rect x="36.439" y="-12.156" opacity="0.52" width="2.979" height="19.572"/>
<rect x="11.026" y="-11.614" fill="#999999" width="0.036" height="17.773"/>
<rect x="14.187" y="-11.614" fill="#999999" width="0.036" height="17.773"/>
<rect x="17.483" y="-11.614" fill="#999999" width="0.036" height="17.773"/>
<rect x="20.723" y="-11.614" fill="#999999" width="0.036" height="17.773"/>
<rect x="23.965" y="-11.614" fill="#999999" width="0.036" height="17.773"/>
<rect x="27.206" y="-11.614" fill="#999999" width="0.036" height="17.773"/>
<rect y="-12.156" opacity="0.96" fill="#333333" width="39.457" height="2.75"/>
<rect y="-9.406" opacity="0.76" fill="#1A1A1A" width="39.457" height="17.66"/>
</svg>
