<?xml version="1.0" encoding="utf-8"?>
<!-- Generator: Adobe Illustrator 15.1.0, SVG Export Plug-In . SVG Version: 6.00 Build 0)  -->
<!DOCTYPE svg PUBLIC "-//W3C//DTD SVG 1.1//EN" "http://www.w3.org/Graphics/SVG/1.1/DTD/svg11.dtd">
<svg version="1.1" id="Ebene_1" xmlns:svg="http://www.w3.org/2000/svg"
	 xmlns="http://www.w3.org/2000/svg" xmlns:xlink="http://www.w3.org/1999/xlink" x="0px" y="0px" width="49.697px"
	 height="60.713px" viewBox="0 0 49.697 60.713" enable-background="new 0 0 49.697 60.713" xml:space="preserve">
<g>
	<g>
		<g>
			<path fill="#F2F2F2" d="M48.938,31.761c0.418,0,0.76,0.342,0.76,0.758v2.797c0,0.416-0.342,0.758-0.76,0.758h-1.23v-4.313H48.938
				z"/>
			<rect x="46.737" y="31.761" fill="#CCCCCC" width="2.174" height="4.313"/>
			<rect x="48.223" y="31.761" fill="#E6E6E6" width="0.688" height="4.313"/>
			<rect x="47.044" y="31.761" opacity="0.02" fill="#808080" enable-background="new    " width="1.867" height="4.313"/>
			<rect x="46.737" y="31.761" fill="#E6E6E6" width="0.508" height="4.313"/>
		</g>
		<g>
			<path fill="#F2F2F2" d="M48.938,44.333c0.418,0,0.76,0.342,0.76,0.758v2.797c0,0.416-0.342,0.758-0.76,0.758h-1.23v-4.313H48.938
				z"/>
			<rect x="46.737" y="44.333" fill="#CCCCCC" width="2.174" height="4.314"/>
			<rect x="48.223" y="44.333" fill="#E6E6E6" width="0.688" height="4.314"/>
			<rect x="47.044" y="44.333" opacity="0.02" fill="#808080" enable-background="new    " width="1.867" height="4.314"/>
			<rect x="46.737" y="44.333" fill="#E6E6E6" width="0.508" height="4.314"/>
		</g>
		<g>
			<path fill="#F2F2F2" d="M0.759,48.644c-0.418,0-0.76-0.342-0.76-0.758v-2.797c0-0.416,0.342-0.758,0.76-0.758h1.229v4.313H0.759z
				"/>
			<rect x="0.785" y="44.331" fill="#CCCCCC" width="2.175" height="4.313"/>
			<rect x="0.785" y="44.331" fill="#E6E6E6" width="0.688" height="4.313"/>
			<rect x="0.785" y="44.331" opacity="0.02" fill="#808080" enable-background="new    " width="1.866" height="4.313"/>
			<rect x="2.451" y="44.331" fill="#E6E6E6" width="0.509" height="4.313"/>
		</g>
		<g>
			<path fill="#F2F2F2" d="M0.759,36.069c-0.418,0-0.76-0.342-0.76-0.758v-2.797c0-0.416,0.342-0.758,0.76-0.758h1.229v4.314H0.759
				V36.069z"/>
			<rect x="0.785" y="31.757" fill="#CCCCCC" width="2.175" height="4.314"/>
			<rect x="0.785" y="31.757" fill="#E6E6E6" width="0.688" height="4.314"/>
			<rect x="0.785" y="31.757" opacity="0.02" fill="#808080" enable-background="new    " width="1.866" height="4.314"/>
			<rect x="2.451" y="31.757" fill="#E6E6E6" width="0.509" height="4.314"/>
		</g>
		<rect x="2.96" y="6.494" fill="#1A1A1A" width="43.775" height="17.625"/>
		<path fill="#B3B3B3" d="M13.795,13.951c0-0.396,0.324-0.72,0.721-0.72h2.652c0.396,0,0.721,0.324,0.721,0.72v9.448
			c0,0.396-0.324,0.72-0.721,0.72h-2.652c-0.396,0-0.721-0.324-0.721-0.72V13.951z"/>
		<path fill="#B3B3B3" d="M31.802,13.951c0-0.396,0.324-0.72,0.721-0.72h2.652c0.396,0,0.721,0.324,0.721,0.72v9.448
			c0,0.396-0.324,0.72-0.721,0.72h-2.652c-0.396,0-0.721-0.324-0.721-0.72V13.951z"/>
		<path fill="#CCCCCC" d="M13.795,13.951c0-0.396,0.324-0.72,0.721-0.72h2.652c0.396,0,0.721,0.324,0.721,0.72v1.167h-4.095
			L13.795,13.951L13.795,13.951z"/>
		<path fill="#CCCCCC" d="M31.802,13.951c0-0.396,0.324-0.72,0.721-0.72h2.652c0.396,0,0.721,0.324,0.721,0.72v1.167h-4.094V13.951z
			"/>
		<rect x="2.96" y="23.281" fill="#E6E6E6" width="43.775" height="37.439"/>
		<rect x="4.114" y="53.56" fill="#1A1A1A" width="9.694" height="5.787"/>
		<rect x="35.889" y="53.56" fill="#1A1A1A" width="9.693" height="5.787"/>
		<rect x="5.003" y="54.282" fill="#FBB03B" width="7.914" height="4.34"/>
		<rect x="36.78" y="54.282" fill="#009245" width="7.914" height="4.34"/>
		<polygon fill="#333333" points="45.583,53.56 45.583,25.619 4.114,25.619 4.114,53.56 13.808,53.56 13.808,59.347 35.889,59.347 
			35.889,53.56 		"/>
		<polygon points="5.057,26.633 5.057,52.851 14.533,52.851 14.533,55.519 19.474,55.519 19.474,59.347 30.223,59.347 
			30.223,55.519 35.163,55.519 35.163,52.851 44.641,52.851 44.641,26.633 		"/>
		<rect x="14.533" y="54.282" fill="#1A1A1A" width="20.629" height="1.234"/>
		<rect x="19.474" y="58.847" fill="#1A1A1A" width="10.75" height="1.207"/>
		<rect x="44.641" y="35.13" width="0.941" height="5.76"/>
		<rect x="4.114" y="35.13" width="0.943" height="5.76"/>
		<g>
			<rect x="43.698" y="35.821" fill="#CCCCCC" width="1.887" height="4.379"/>
			<rect x="43.698" y="35.821" fill="#B3B3B3" width="1.006" height="4.379"/>
			<rect x="43.698" y="35.821" fill="#999999" width="0.756" height="4.379"/>
			<rect x="43.7" y="35.821" fill="#808080" width="0.518" height="4.379"/>
			<rect x="43.942" y="35.821" fill="#CCCCCC" width="0.148" height="4.379"/>
		</g>
		<g>
			<rect x="4.114" y="35.821" fill="#CCCCCC" width="1.887" height="4.379"/>
			<rect x="4.993" y="35.821" fill="#B3B3B3" width="1.006" height="4.379"/>
			<rect x="5.243" y="35.821" fill="#999999" width="0.756" height="4.379"/>
			<rect x="5.48" y="35.821" fill="#808080" width="0.519" height="4.379"/>
			<rect x="5.607" y="35.821" fill="#CCCCCC" width="0.147" height="4.379"/>
		</g>
		<rect x="13.795" y="14.932" fill="#999999" width="4.095" height="4.063"/>
		<rect x="31.802" y="14.932" fill="#999999" width="4.094" height="4.063"/>
		<rect x="13.795" y="17.494" fill="#B3B3B3" width="4.095" height="3.875"/>
		<rect x="31.802" y="17.494" fill="#B3B3B3" width="4.094" height="3.875"/>
		<rect x="13.795" y="19.275" fill="#CCCCCC" width="4.095" height="1.469"/>
		<rect x="31.802" y="19.275" fill="#CCCCCC" width="4.094" height="1.469"/>
		<rect x="13.795" y="14.777" fill="#E6E6E6" width="4.095" height="0.31"/>
		<rect x="13.798" y="14.229" fill="#F2F2F2" width="4.095" height="0.491"/>
		<path fill="#CCCCCC" d="M46.737,12.852V0.715v-0.72h-0.721H3.681H2.96v0.72v12.137h0.288v10.429h0.433h8.627h0.72l0.047-0.718
			l0.336-5.104l0.336-5.104c0.026-0.395,0.372-0.718,0.769-0.718h2.666c0.396,0,0.741,0.323,0.768,0.718l0.336,5.104l0.336,5.104
			l0,0l0.048,0.718h0.721h10.918h0.721l0.049-0.717v-0.001l0.344-5.104l0.346-5.105c0.027-0.395,0.373-0.717,0.768-0.717h2.629
			c0.396,0,0.74,0.322,0.77,0.717l0.346,5.105l0.344,5.104v0.001l0.047,0.717h0.721h8.627h0.432v-10.43L46.737,12.852L46.737,12.852
			z"/>
	</g>
	<g>
		<g opacity="0.57">
			<g>
				<rect x="37.186" y="45.007" fill="#1A1A1A" width="1.246" height="7.844"/>
			</g>
			<g>
				<rect x="33.946" y="45.007" fill="#1A1A1A" width="1.246" height="9.275"/>
			</g>
			<g>
				<rect x="30.704" y="45.007" fill="#1A1A1A" width="1.248" height="9.275"/>
			</g>
			<g>
				<rect x="27.464" y="45.007" fill="#1A1A1A" width="1.248" height="9.275"/>
			</g>
			<g>
				<rect x="24.225" y="45.007" fill="#1A1A1A" width="1.247" height="9.275"/>
			</g>
			<g>
				<rect x="20.985" y="45.007" fill="#1A1A1A" width="1.247" height="9.275"/>
			</g>
			<g>
				<rect x="17.743" y="45.007" fill="#1A1A1A" width="1.247" height="9.275"/>
			</g>
			<g>
				<rect x="14.503" y="45.007" fill="#1A1A1A" width="1.247" height="9.275"/>
			</g>
			<g>
				<rect x="11.265" y="45.007" fill="#1A1A1A" width="1.246" height="7.844"/>
			</g>
		</g>
		<g opacity="0.51">
			<g>
				<rect x="37.186" y="26.633" fill="#1A1A1A" width="1.248" height="17.7"/>
			</g>
			<g>
				<rect x="33.946" y="26.633" fill="#1A1A1A" width="1.248" height="17.7"/>
			</g>
			<g>
				<rect x="30.706" y="26.633" fill="#1A1A1A" width="1.246" height="17.7"/>
			</g>
			<g>
				<rect x="27.466" y="26.633" fill="#1A1A1A" width="1.246" height="17.7"/>
			</g>
			<g>
				<rect x="24.226" y="26.633" fill="#1A1A1A" width="1.248" height="17.7"/>
			</g>
			<g>
				<rect x="20.986" y="26.633" fill="#1A1A1A" width="1.247" height="17.7"/>
			</g>
			<g>
				<rect x="17.744" y="26.633" fill="#1A1A1A" width="1.247" height="17.7"/>
			</g>
			<g>
				<rect x="14.504" y="26.633" fill="#1A1A1A" width="1.247" height="17.7"/>
			</g>
			<g>
				<rect x="11.265" y="26.633" fill="#1A1A1A" width="1.246" height="17.7"/>
			</g>
		</g>
		<g opacity="0.61">
			<g>
				<g>
					<rect x="35.583" y="26.633" fill="#B5751F" width="1.246" height="14.923"/>
				</g>
				<g>
					<rect x="32.343" y="26.633" fill="#B5751F" width="1.246" height="14.923"/>
				</g>
				<g>
					<rect x="29.102" y="26.633" fill="#B5751F" width="1.248" height="14.923"/>
				</g>
				<g>
					<rect x="25.862" y="26.633" fill="#B5751F" width="1.248" height="14.923"/>
				</g>
				<g>
					<rect x="22.621" y="26.633" fill="#B5751F" width="1.247" height="14.923"/>
				</g>
				<g>
					<rect x="19.381" y="26.633" fill="#B5751F" width="1.247" height="14.923"/>
				</g>
				<g>
					<rect x="16.142" y="26.633" fill="#B5751F" width="1.247" height="14.923"/>
				</g>
				<g>
					<rect x="12.902" y="26.633" fill="#B5751F" width="1.247" height="14.923"/>
				</g>
			</g>
			<g>
				<g>
					<rect x="35.827" y="26.633" fill="#C4914C" width="0.758" height="14.923"/>
				</g>
				<g>
					<rect x="32.587" y="26.633" fill="#C4914C" width="0.758" height="14.923"/>
				</g>
				<g>
					<rect x="29.348" y="26.633" fill="#C4914C" width="0.756" height="14.923"/>
				</g>
				<g>
					<rect x="26.108" y="26.633" fill="#C4914C" width="0.756" height="14.923"/>
				</g>
				<g>
					<rect x="22.866" y="26.633" fill="#C4914C" width="0.757" height="14.923"/>
				</g>
				<g>
					<rect x="19.626" y="26.633" fill="#C4914C" width="0.757" height="14.923"/>
				</g>
				<g>
					<rect x="16.386" y="26.633" fill="#C4914C" width="0.758" height="14.923"/>
				</g>
				<g>
					<rect x="13.147" y="26.633" fill="#C4914C" width="0.757" height="14.923"/>
				</g>
			</g>
			<g>
				<g>
					<rect x="36.018" y="26.633" fill="#D3AC79" width="0.377" height="14.923"/>
				</g>
				<g>
					<rect x="32.778" y="26.633" fill="#D3AC79" width="0.377" height="14.923"/>
				</g>
				<g>
					<rect x="29.538" y="26.633" fill="#D3AC79" width="0.375" height="14.923"/>
				</g>
				<g>
					<rect x="26.298" y="26.633" fill="#D3AC79" width="0.375" height="14.923"/>
				</g>
				<g>
					<rect x="23.058" y="26.633" fill="#D3AC79" width="0.376" height="14.923"/>
				</g>
				<g>
					<rect x="19.818" y="26.633" fill="#D3AC79" width="0.376" height="14.923"/>
				</g>
				<g>
					<rect x="16.576" y="26.633" fill="#D3AC79" width="0.376" height="14.923"/>
				</g>
				<g>
					<rect x="13.336" y="26.633" fill="#D3AC79" width="0.376" height="14.923"/>
				</g>
			</g>
		</g>
	</g>
	<rect x="2.96" y="-0.006" opacity="0.37" fill="#E6E6E6" enable-background="new    " width="3.472" height="24.125"/>
	<rect x="43.266" y="-0.006" opacity="0.37" fill="#808080" enable-background="new    " width="3.471" height="24.125"/>
	<path opacity="0.45" fill="#E6E6E6" enable-background="new    " d="M15.842,23.281h-2.047c0,0,0-8.853,0-9.331
		s0.43-0.72,0.721-0.72s1.326,0,1.326,0V23.281z"/>
	<path opacity="0.45" fill="#E6E6E6" enable-background="new    " d="M33.848,23.281h-2.043c0,0,0-8.853,0-9.331
		s0.428-0.72,0.719-0.72s1.324,0,1.324,0V23.281z"/>
	<path opacity="0.45" fill="#B3B3B3" enable-background="new    " d="M33.852,23.281h2.047c0,0,0-8.853,0-9.331
		s-0.432-0.72-0.723-0.72s-1.324,0-1.324,0V23.281z"/>
	<path opacity="0.45" fill="#B3B3B3" enable-background="new    " d="M15.842,23.281h2.048c0,0,0-8.853,0-9.331
		s-0.43-0.72-0.721-0.72s-1.327,0-1.327,0V23.281z"/>
	<rect x="13.795" y="19.494" opacity="0.76" fill="#E6E6E6" enable-background="new    " width="4.095" height="0.813"/>
	<rect x="31.802" y="19.494" opacity="0.76" fill="#E6E6E6" enable-background="new    " width="4.094" height="0.813"/>
	<rect x="31.802" y="14.777" opacity="0.76" fill="#E6E6E6" enable-background="new    " width="4.094" height="0.31"/>
	<rect x="31.805" y="14.335" opacity="0.76" fill="#F2F2F2" enable-background="new    " width="4.094" height="0.411"/>
	<rect x="2.96" y="60.255" fill="#B3B3B3" width="43.775" height="0.453"/>
	<rect x="46.288" y="48.646" fill="#B3B3B3" width="0.447" height="11.607"/>
	<path opacity="0.19" fill="#666666" enable-background="new    " d="M8.649,54.433H5.16v3.141c0,0,0.672-1.766,1.375-2.055
		s0.547-0.086,1.516-0.305C9.021,54.993,9.136,54.433,8.649,54.433z"/>
	<path opacity="0.19" fill="#666666" enable-background="new    " d="M7.941,54.433H5.16v2.502c0,0,0.535-1.406,1.096-1.637
		s0.437-0.068,1.208-0.242C8.237,54.88,8.328,54.433,7.941,54.433z"/>
	<path opacity="0.19" fill="#666666" enable-background="new    " d="M7.087,54.433H5.16v1.734c0,0,0.371-0.977,0.759-1.137
		c0.389-0.16,0.303-0.047,0.837-0.168C7.291,54.741,7.357,54.433,7.087,54.433z"/>
	<path opacity="0.33" fill="#CCCCCC" enable-background="new    " d="M12.724,55.519v2.914H6.426c0,0,0.453-0.906,1.798-1.219
		c1.344-0.314,2.375-0.453,3.125-0.846C12.099,55.978,11.865,55.493,12.724,55.519z"/>
	<path opacity="0.33" fill="#CCCCCC" enable-background="new    " d="M12.724,56.038v2.395H7.552c0,0,0.372-0.744,1.477-1.002
		c1.104-0.256,1.95-0.371,2.565-0.691C12.21,56.417,12.018,56.021,12.724,56.038z"/>
	<path opacity="0.33" fill="#CCCCCC" enable-background="new    " d="M12.724,56.696v1.734H8.977c0,0,0.27-0.539,1.068-0.727
		c0.799-0.186,1.413-0.27,1.859-0.502C12.351,56.972,12.212,56.685,12.724,56.696z"/>
	<path opacity="0.41" fill="#666666" enable-background="new    " d="M41.03,58.433h3.488v-3.141c0,0-0.672,1.766-1.375,2.055
		s-0.547,0.086-1.516,0.305S40.542,58.433,41.03,58.433z"/>
	<path opacity="0.16" fill="#1A1A1A" enable-background="new    " d="M41.03,58.433h3.488v-3.141c0,0-0.672,1.766-1.375,2.055
		s-0.547,0.086-1.516,0.305S40.542,58.433,41.03,58.433z"/>
	<path opacity="0.16" fill="#1A1A1A" enable-background="new    " d="M42.001,58.433h2.518v-2.266c0,0-0.484,1.271-0.992,1.48
		c-0.506,0.209-0.395,0.064-1.092,0.221C41.735,58.026,41.651,58.433,42.001,58.433z"/>
	<path opacity="0.16" enable-background="new    " d="M42.819,58.433h1.699v-1.531c0,0-0.326,0.861-0.67,1.002
		c-0.344,0.143-0.268,0.041-0.738,0.148C42.635,58.157,42.579,58.433,42.819,58.433z"/>
	<path opacity="0.21" fill="#CCCCCC" enable-background="new    " d="M36.956,57.347v-2.914h6.297c0,0-0.453,0.906-1.797,1.219
		s-2.375,0.453-3.125,0.844S37.815,57.368,36.956,57.347z"/>
	<path opacity="0.21" fill="#CCCCCC" enable-background="new    " d="M36.956,56.628v-2.195H41.7c0,0-0.34,0.682-1.354,0.92
		c-1.014,0.232-1.789,0.34-2.355,0.633C37.427,56.278,37.604,56.646,36.956,56.628z"/>
	<path opacity="0.21" fill="#CCCCCC" enable-background="new    " d="M36.956,55.784v-1.354h2.922c0,0-0.209,0.422-0.832,0.566
		c-0.625,0.145-1.104,0.211-1.451,0.391C37.245,55.569,37.354,55.796,36.956,55.784z"/>
	<rect x="2.96" y="23.281" opacity="0.42" fill="#CCCCCC" enable-background="new    " width="43.775" height="0.838"/>
</g>
</svg>
