<?xml version="1.0" encoding="utf-8"?>
<!-- Generator: Adobe Illustrator 15.1.0, SVG Export Plug-In . SVG Version: 6.00 Build 0)  -->
<!DOCTYPE svg PUBLIC "-//W3C//DTD SVG 1.1//EN" "http://www.w3.org/Graphics/SVG/1.1/DTD/svg11.dtd">
<svg version="1.1" id="Ebene_1" xmlns:svg="http://www.w3.org/2000/svg"
	 xmlns="http://www.w3.org/2000/svg" xmlns:xlink="http://www.w3.org/1999/xlink" x="0px" y="0px" width="30.338px"
	 height="39.224px" viewBox="-3.813 7.221 30.338 39.224" enable-background="new -3.813 7.221 30.338 39.224" xml:space="preserve"
	>
<g>
	<g>
		<g>
			<path fill="#E6E6E6" d="M22.669,45.545c0,0.495-0.404,0.9-0.899,0.9H0.944c-0.495,0-0.9-0.405-0.9-0.9V29.116
				c0-0.495,0.405-0.9,0.9-0.9H21.77c0.495,0,0.899,0.405,0.899,0.9V45.545z"/>
			<rect x="0.044" y="8.716" fill="#B3B3B3" width="22.625" height="20.063"/>
			<g>
				<rect x="9.778" y="7.221" fill="#999999" width="0.864" height="1.494"/>
				<rect x="7.479" y="7.221" fill="#999999" width="0.864" height="1.494"/>
				<rect x="14.283" y="7.221" fill="#999999" width="0.861" height="1.494"/>
				<rect x="12.016" y="7.221" fill="#999999" width="0.863" height="1.494"/>
				<rect x="7.479" y="7.221" fill="#CCCCCC" width="0.14" height="1.494"/>
				<rect x="12.016" y="7.221" fill="#CCCCCC" width="0.141" height="1.494"/>
				<rect x="14.283" y="7.221" fill="#CCCCCC" width="0.141" height="1.494"/>
				<rect x="9.778" y="7.221" fill="#CCCCCC" width="0.14" height="1.494"/>
			</g>
		</g>
	</g>
	<polygon fill="#808080" points="7.238,30.61 2.749,33.674 2.749,44.695 19.966,44.695 19.966,33.674 15.476,30.61 	"/>
	<rect x="7.378" y="30.61" fill="#999999" width="8.208" height="5.313"/>
	<g>
		<g>
			<rect x="8.643" y="30.61" fill="#666666" width="1.208" height="4.75"/>
			<rect x="13.32" y="30.61" fill="#666666" width="1.209" height="4.75"/>
		</g>
	</g>
	<g>
		<g>
			<rect x="8.538" y="30.61" fill="#CCCCCC" width="1.208" height="4.75"/>
			<rect x="13.215" y="30.61" fill="#CCCCCC" width="1.209" height="4.75"/>
		</g>
	</g>
	<rect x="7.378" y="35.924" fill="#CCCCCC" width="8.208" height="5.146"/>
	<rect x="7.378" y="35.924" fill="#B3B3B3" width="8.208" height="0.563"/>
	<rect x="0.044" y="8.716" fill="#CCCCCC" width="1.427" height="20.063"/>
	<rect x="21.242" y="8.716" fill="#999999" width="1.427" height="20.063"/>
	<polygon fill="#666666" points="15.586,30.685 15.586,35.924 15.586,41.07 13.121,41.07 12.305,44.695 19.966,44.695 
		19.966,33.674 	"/>
	<polygon fill="#999999" points="15.014,41.07 15.586,41.07 15.586,35.924 15.014,36.485 	"/>
	<polygon fill="#E6E6E6" points="7.378,41.07 7.95,41.07 7.95,36.485 7.378,35.924 	"/>
	<rect x="-3.813" y="10.285" fill="#B3B3B3" width="3.857" height="6"/>
	<rect x="22.669" y="10.285" fill="#B3B3B3" width="3.856" height="6"/>
</g>
</svg>
