<?xml version="1.0" encoding="utf-8"?>
<!-- Generator: Adobe Illustrator 15.1.0, SVG Export Plug-In . SVG Version: 6.00 Build 0)  -->
<!DOCTYPE svg PUBLIC "-//W3C//DTD SVG 1.1//EN" "http://www.w3.org/Graphics/SVG/1.1/DTD/svg11.dtd">
<svg version="1.1" id="Ebene_1" xmlns:svg="http://www.w3.org/2000/svg"
	 xmlns="http://www.w3.org/2000/svg" xmlns:xlink="http://www.w3.org/1999/xlink" x="0px" y="0px" width="46.762px"
	 height="46.293px" viewBox="0 0 46.762 46.293" enable-background="new 0 0 46.762 46.293" xml:space="preserve">
<g>
	<path fill="#7A7A7A" d="M4.652,5.317v38.615h1.598v1.707h16.734l0.116-1.096h0.526l0.116,1.096h16.754v-1.707h1.597V5.317H4.652z
		 M17.079,41.414c-0.055,0.307-0.396,0.555-0.795,0.555h-4.451c-0.397,0-0.76-0.254-0.799-0.555L8.229,20.729
		c-0.051-0.305,0.256-0.557,0.646-0.557H9.53c0.396,0,0.756,0.254,0.799,0.557l2.115,17.384c0.033,0.31,0.373,0.558,0.793,0.558
		h1.652c0.383,0,0.76-0.252,0.797-0.558l2.104-17.384c0.047-0.303,0.373-0.555,0.797-0.555l0.646-0.002
		c0.393,0,0.693,0.254,0.654,0.555L17.079,41.414z M35.712,41.414c-0.054,0.307-0.396,0.555-0.796,0.555h-4.449
		c-0.397,0-0.761-0.254-0.801-0.555L26.86,20.729c-0.05-0.305,0.257-0.557,0.646-0.557h0.654c0.396,0,0.755,0.254,0.797,0.557
		l2.117,17.384c0.032,0.31,0.371,0.558,0.792,0.558h1.651c0.383,0,0.76-0.252,0.797-0.558l2.106-17.384
		c0.048-0.303,0.373-0.555,0.795-0.555l0.646-0.002c0.394,0,0.694,0.254,0.655,0.555L35.712,41.414z"/>
	<rect x="7.286" y="8.669" fill="#CCCCCC" width="32.188" height="33.438"/>
	<rect x="7.286" y="42.107" fill="#F2F2F2" width="32.188" height="1.75"/>
	<path fill="#B0B0B0" d="M40.674,39.227h1c0,0.535,0.099,0.885,0.27,0.998c0.066,0.031,0.627,0.107,1.014,0.107v0.674v0.326v3.307
		v0.154v0.846c-0.604,0-1.316-0.111-1.562-0.271c-0.664-0.445-0.715-1.341-0.72-1.738l-0.002-0.002v-4l0.019,0.011
		C40.676,39.465,40.674,39.318,40.674,39.227z"/>
	<path fill="#8F8F8F" d="M41.825,40.086c-0.099-0.172-0.149-0.465-0.149-0.861h-1v4.305c0,0.281,0.007,1.035,0.429,1.563
		c0.125,0.145,0.189,0.313,0.813,0.45C41.817,45.367,41.825,40.086,41.825,40.086z"/>
	<rect x="12.742" fill="#4D4D4D" width="2.837" height="1.834"/>
	<rect x="19.121" fill="#4D4D4D" width="2.834" height="1.834"/>
	<rect x="24.79" fill="#4D4D4D" width="2.834" height="1.834"/>
	<rect x="31.168" fill="#4D4D4D" width="2.839" height="1.834"/>
	<path fill="#B0B0B0" d="M6.082,39.227h-1c0,0.535-0.1,0.885-0.27,0.998c-0.066,0.031-0.627,0.107-1.013,0.107v0.674v0.326v3.307
		v0.154v0.846c0.604,0,1.318-0.111,1.56-0.271c0.665-0.445,0.718-1.341,0.722-1.738l0.001-0.002v-4l-0.019,0.011
		C6.081,39.465,6.082,39.318,6.082,39.227z"/>
	<path fill="#8F8F8F" d="M4.843,45.539c0.619-0.135,0.688-0.309,0.812-0.451c0.424-0.521,0.43-1.275,0.43-1.559v-4.305h-1
		c0,0.396-0.057,0.688-0.149,0.858C4.932,40.086,4.939,45.367,4.843,45.539z"/>
	<path fill="#B3B3B3" d="M4.652,1.012v38.613h1.598v1.707h34.25v-1.707h1.596V1.012H4.652z M17.079,37.109
		c-0.055,0.306-0.396,0.554-0.795,0.554h-4.451c-0.397,0-0.76-0.252-0.799-0.554L8.229,16.423c-0.051-0.304,0.256-0.556,0.646-0.556
		H9.53c0.396,0,0.756,0.253,0.799,0.556l2.115,17.386c0.033,0.312,0.373,0.56,0.793,0.56h1.652c0.383,0,0.76-0.255,0.797-0.56
		l2.104-17.385c0.047-0.304,0.373-0.555,0.797-0.555l0.646-0.002c0.393,0,0.693,0.253,0.654,0.555L17.079,37.109z M35.712,37.109
		c-0.054,0.306-0.396,0.554-0.796,0.554h-4.449c-0.397,0-0.761-0.252-0.801-0.554L26.86,16.423c-0.05-0.304,0.257-0.556,0.646-0.556
		h0.654c0.396,0,0.755,0.253,0.797,0.556l2.117,17.386c0.032,0.312,0.371,0.56,0.792,0.56h1.651c0.383,0,0.76-0.255,0.797-0.56
		l2.106-17.385c0.048-0.304,0.373-0.555,0.795-0.555l0.646-0.002c0.394,0,0.694,0.253,0.655,0.555L35.712,37.109z"/>
	<polygon fill="none" points="12.499,34.352 15.61,34.352 15.794,32.721 12.337,32.721 	"/>
	<polygon fill="#939393" points="15.794,32.721 15.61,34.352 12.499,34.352 12.337,32.721 	"/>
	<polygon fill="#666666" points="15.794,32.721 15.878,32.037 12.241,32.037 12.337,32.721 	"/>
	<polygon fill="none" points="31.131,34.352 34.241,34.352 34.424,32.721 30.969,32.721 	"/>
	<polygon fill="#939393" points="34.424,32.721 34.241,34.352 31.131,34.352 30.969,32.721 	"/>
	<polygon fill="#666666" points="34.424,32.721 34.508,32.037 30.872,32.037 30.969,32.721 	"/>
	
		<line fill="none" stroke="#FFFFFF" stroke-width="0.8064" stroke-linecap="round" stroke-opacity="0.24" x1="5.219" y1="2.077" x2="5.219" y2="38.918"/>
	
		<line fill="none" stroke="#FFFFFF" stroke-width="0.8064" stroke-linecap="round" stroke-opacity="0.24" x1="41.526" y1="2.077" x2="41.526" y2="39.068"/>
	
		<line fill="none" stroke="#000000" stroke-width="0.4032" stroke-linecap="round" stroke-opacity="0.15" x1="40.278" y1="40.201" x2="6.467" y2="40.201"/>
	<rect x="6.248" y="40.682" fill="#B0B0B0" width="34.25" height="0.65"/>
	<polygon fill="#B0B0B0" points="22.984,45.639 6.248,45.639 6.248,46.293 22.915,46.293 	"/>
	<polygon fill="#B0B0B0" points="23.744,45.639 23.813,46.293 40.498,46.293 40.498,45.639 	"/>
	<rect x="0" y="8.077" fill="#4D4D4D" width="4.65" height="6.548"/>
	<rect x="42.108" y="8.077" fill="#4D4D4D" width="4.651" height="6.548"/>
</g>
</svg>
