<?xml version="1.0" encoding="utf-8"?>
<!-- Generator: Adobe Illustrator 15.1.0, SVG Export Plug-In . SVG Version: 6.00 Build 0)  -->
<!DOCTYPE svg PUBLIC "-//W3C//DTD SVG 1.1//EN" "http://www.w3.org/Graphics/SVG/1.1/DTD/svg11.dtd">
<svg version="1.1" id="Ebene_1" xmlns:svg="http://www.w3.org/2000/svg"
	 xmlns="http://www.w3.org/2000/svg" xmlns:xlink="http://www.w3.org/1999/xlink" x="0px" y="0px" width="42px" height="51.336px"
	 viewBox="0 0 42 51.336" enable-background="new 0 0 42 51.336" xml:space="preserve">
<path fill="#7A7A7A" d="M2.288,10.36v38.615h1.596v1.707H20.62l0.116-1.097h0.527l0.116,1.097h16.754v-1.707h1.598V10.36H2.288z
	 M14.715,46.458c-0.053,0.306-0.395,0.554-0.795,0.554H9.469c-0.398,0-0.76-0.252-0.799-0.554L5.865,25.771
	c-0.051-0.305,0.256-0.557,0.646-0.557h0.656c0.396,0,0.754,0.254,0.797,0.557l2.117,17.385c0.033,0.31,0.373,0.558,0.793,0.558
	h1.652c0.383,0,0.76-0.252,0.797-0.558l2.105-17.384c0.047-0.304,0.373-0.556,0.797-0.556l0.648-0.002
	c0.391,0,0.693,0.254,0.654,0.556L14.715,46.458z M33.348,46.458c-0.054,0.306-0.396,0.554-0.796,0.554h-4.448
	c-0.397,0-0.762-0.252-0.802-0.554l-2.806-20.687c-0.051-0.305,0.255-0.557,0.646-0.557h0.653c0.396,0,0.755,0.254,0.797,0.557
	l2.117,17.385c0.034,0.31,0.373,0.558,0.792,0.558h1.652c0.384,0,0.761-0.252,0.798-0.558l2.106-17.384
	c0.047-0.304,0.373-0.556,0.795-0.556l0.646-0.002c0.393,0,0.693,0.254,0.654,0.556L33.348,46.458z"/>
<rect x="4.906" y="13.712" fill="#CCCCCC" width="32.188" height="33.438"/>
<rect x="4.906" y="47.15" fill="#F2F2F2" width="32.188" height="1.75"/>
<path fill="#B0B0B0" d="M38.311,44.27h1c0,0.535,0.099,0.885,0.27,0.998c0.066,0.031,0.627,0.107,1.012,0.107v0.674v0.326v3.307
	v0.154v0.846c-0.604,0-1.316-0.111-1.56-0.271c-0.664-0.445-0.716-1.341-0.72-1.738l-0.002-0.002v-4l0.019,0.011
	C38.313,44.508,38.311,44.361,38.311,44.27z"/>
<path fill="#8F8F8F" d="M39.461,45.129c-0.098-0.172-0.148-0.465-0.148-0.861h-1v4.305c0,0.281,0.006,1.035,0.429,1.561
	c0.125,0.145,0.188,0.314,0.811,0.451C39.453,50.411,39.461,45.129,39.461,45.129z"/>
<rect x="10.378" y="0" fill="#4D4D4D" width="2.837" height="7.127"/>
<rect x="16.757" y="0" fill="#4D4D4D" width="2.834" height="7.127"/>
<rect x="22.426" y="0" fill="#4D4D4D" width="2.836" height="7.127"/>
<rect x="28.805" y="0" fill="#4D4D4D" width="2.838" height="7.127"/>
<path fill="#B0B0B0" d="M3.718,44.27h-1c0,0.535-0.098,0.885-0.268,0.998c-0.068,0.031-0.627,0.107-1.012,0.107v0.674v0.326v3.307
	v0.154v0.846c0.605,0,1.318-0.111,1.559-0.271c0.665-0.445,0.716-1.341,0.72-1.738l0.001-0.002v-4l-0.017,0.011
	C3.717,44.508,3.718,44.361,3.718,44.27z"/>
<path fill="#8F8F8F" d="M2.479,50.583c0.619-0.136,0.687-0.31,0.811-0.451c0.422-0.522,0.428-1.276,0.428-1.56v-4.305h-1
	c0,0.396-0.055,0.688-0.15,0.86C2.568,45.129,2.575,50.411,2.479,50.583z"/>
<path fill="#B3B3B3" d="M2.288,6.056v38.612h1.596v1.707h34.25v-1.707h1.597V6.056H2.288z M14.715,42.152
	c-0.053,0.306-0.395,0.554-0.795,0.554H9.469c-0.398,0-0.76-0.252-0.799-0.554L5.865,21.466c-0.051-0.304,0.256-0.556,0.646-0.556
	h0.656c0.396,0,0.754,0.253,0.797,0.556l2.117,17.386c0.033,0.311,0.373,0.559,0.793,0.559h1.652c0.383,0,0.76-0.254,0.797-0.559
	l2.105-17.385c0.047-0.304,0.373-0.555,0.797-0.555l0.648-0.002c0.391,0,0.693,0.253,0.654,0.555L14.715,42.152z M33.348,42.152
	c-0.054,0.306-0.396,0.554-0.796,0.554h-4.448c-0.397,0-0.762-0.252-0.802-0.554l-2.806-20.688
	c-0.051-0.304,0.255-0.556,0.646-0.556h0.653c0.396,0,0.755,0.253,0.797,0.556l2.117,17.387c0.034,0.31,0.373,0.558,0.792,0.558
	h1.652c0.384,0,0.761-0.253,0.798-0.558l2.106-17.386c0.047-0.304,0.373-0.555,0.795-0.555l0.646-0.002
	c0.393,0,0.693,0.253,0.654,0.555L33.348,42.152z"/>
<polygon fill="none" points="10.135,39.395 13.246,39.395 13.43,37.764 9.973,37.764 "/>
<polygon fill="#939393" points="13.43,37.764 13.246,39.395 10.135,39.395 9.973,37.764 "/>
<polygon fill="#666666" points="13.43,37.764 13.514,37.081 9.877,37.081 9.973,37.764 "/>
<polygon fill="none" points="28.768,39.395 31.877,39.395 32.061,37.764 28.604,37.764 "/>
<polygon fill="#939393" points="32.061,37.764 31.877,39.395 28.768,39.395 28.604,37.764 "/>
<polygon fill="#666666" points="32.061,37.764 32.145,37.081 28.508,37.081 28.604,37.764 "/>
<line fill="none" stroke="#FFFFFF" stroke-width="0.8064" stroke-linecap="round" stroke-opacity="0.24" x1="2.855" y1="7.12" x2="2.855" y2="43.961"/>
<line fill="none" stroke="#FFFFFF" stroke-width="0.8064" stroke-linecap="round" stroke-opacity="0.24" x1="39.162" y1="7.12" x2="39.162" y2="44.111"/>
<line fill="none" stroke="#000000" stroke-width="0.4032" stroke-linecap="round" stroke-opacity="0.15" x1="37.914" y1="45.245" x2="4.103" y2="45.245"/>
<rect x="3.884" y="45.725" fill="#B0B0B0" width="34.25" height="0.65"/>
<polygon fill="#B0B0B0" points="20.62,50.682 3.884,50.682 3.884,51.336 20.551,51.336 "/>
<polygon fill="#B0B0B0" points="21.38,50.682 21.449,51.336 38.134,51.336 38.134,50.682 "/>
<path fill="#999999" d="M42,15.727v2.06h-1.421v-2.06h-0.851v-1.346h1.64c0.349,0,0.632,0.283,0.632,0.633V15.727z"/>
<path fill="#808080" d="M42,14.945h-2.271v-0.563c0,0,1.555,0,1.74,0C41.752,14.381,42,14.772,42,14.945z"/>
<path fill="#B3B3B3" d="M0,15.727v2.06h1.421v-2.06h0.868v-1.346H0.632C0.282,14.381,0,14.664,0,15.014V15.727z"/>
<path fill="#E6E6E6" d="M0,14.945h2.289v-0.563c0,0-1.572,0-1.76,0C0.248,14.381,0,14.772,0,14.945z"/>
</svg>
