<?xml version="1.0" encoding="utf-8"?>
<!-- Generator: Adobe Illustrator 15.1.0, SVG Export Plug-In . SVG Version: 6.00 Build 0)  -->
<!DOCTYPE svg PUBLIC "-//W3C//DTD SVG 1.1//EN" "http://www.w3.org/Graphics/SVG/1.1/DTD/svg11.dtd">
<svg version="1.1" id="Ebene_1" xmlns:svg="http://www.w3.org/2000/svg"
	 xmlns="http://www.w3.org/2000/svg" xmlns:xlink="http://www.w3.org/1999/xlink" x="0px" y="0px" width="30.338px"
	 height="39.225px" viewBox="0 0 30.338 39.225" enable-background="new 0 0 30.338 39.225" xml:space="preserve">
<g>
	<g>
		<g>
			<path fill="#E6E6E6" d="M26.481,38.323c0,0.496-0.402,0.9-0.896,0.9H4.757c-0.495,0-0.9-0.404-0.9-0.9V21.896
				c0-0.496,0.405-0.899,0.9-0.899h20.828c0.494,0,0.896,0.403,0.896,0.899V38.323z"/>
			<rect x="3.857" y="1.495" fill="#B3B3B3" width="22.624" height="20.063"/>
			<g>
				<rect x="13.591" y="0.001" fill="#999999" width="0.864" height="1.493"/>
				<rect x="11.292" y="0.001" fill="#999999" width="0.864" height="1.493"/>
				<rect x="18.097" y="0.001" fill="#999999" width="0.861" height="1.493"/>
				<rect x="15.829" y="0.001" fill="#999999" width="0.863" height="1.493"/>
				<rect x="11.292" y="0.001" fill="#CCCCCC" width="0.14" height="1.493"/>
				<rect x="15.829" y="0.001" fill="#CCCCCC" width="0.143" height="1.493"/>
				<rect x="18.097" y="0.001" fill="#CCCCCC" width="0.141" height="1.493"/>
				<rect x="13.591" y="0.001" fill="#CCCCCC" width="0.14" height="1.493"/>
			</g>
		</g>
	</g>
	<polygon fill="#808080" points="11.051,23.39 6.563,26.453 6.563,37.474 23.778,37.474 23.778,26.453 19.29,23.39 	"/>
	<rect x="11.191" y="23.39" fill="#999999" width="8.208" height="5.313"/>
	<g>
		<g>
			<rect x="12.458" y="23.39" fill="#666666" width="1.208" height="4.75"/>
			<rect x="17.134" y="23.39" fill="#666666" width="1.209" height="4.75"/>
		</g>
	</g>
	<g>
		<g>
			<rect x="12.353" y="23.39" fill="#CCCCCC" width="1.208" height="4.75"/>
			<rect x="17.028" y="23.39" fill="#CCCCCC" width="1.209" height="4.75"/>
		</g>
	</g>
	<rect x="11.191" y="28.703" fill="#CCCCCC" width="8.208" height="5.146"/>
	<rect x="11.191" y="28.703" fill="#B3B3B3" width="8.208" height="0.563"/>
	<rect x="3.857" y="1.495" fill="#CCCCCC" width="1.427" height="20.063"/>
	<rect x="25.056" y="1.495" fill="#999999" width="1.428" height="20.063"/>
	<polygon fill="#666666" points="19.399,23.465 19.399,28.703 19.399,33.849 16.935,33.849 16.118,37.474 23.778,37.474 
		23.778,26.453 	"/>
	<polygon fill="#999999" points="18.827,33.849 19.399,33.849 19.399,28.703 18.827,29.265 	"/>
	<polygon fill="#E6E6E6" points="11.191,33.849 11.765,33.849 11.765,29.265 11.191,28.703 	"/>
	<rect x="0" y="3.065" fill="#B3B3B3" width="3.857" height="6"/>
	<rect x="26.481" y="3.065" fill="#B3B3B3" width="3.855" height="6"/>
</g>
</svg>
