<?xml version="1.0" encoding="utf-8"?>
<!-- Generator: Adobe Illustrator 15.1.0, SVG Export Plug-In . SVG Version: 6.00 Build 0)  -->
<!DOCTYPE svg PUBLIC "-//W3C//DTD SVG 1.1//EN" "http://www.w3.org/Graphics/SVG/1.1/DTD/svg11.dtd">
<svg version="1.1" id="Ebene_1" xmlns:svg="http://www.w3.org/2000/svg"
	 xmlns="http://www.w3.org/2000/svg" xmlns:xlink="http://www.w3.org/1999/xlink" x="0px" y="0px" width="46.761px"
	 height="51.336px" viewBox="0 0 46.761 51.336" enable-background="new 0 0 46.761 51.336" xml:space="preserve">
<g>
	<path fill="#7A7A7A" d="M4.652,10.36v38.615h1.596v1.707h16.736l0.116-1.096h0.527l0.116,1.096h16.754v-1.707h1.597V10.36H4.652z
		 M17.079,46.457c-0.053,0.307-0.395,0.555-0.795,0.555h-4.451c-0.398,0-0.76-0.254-0.799-0.555L8.229,25.772
		c-0.051-0.305,0.256-0.557,0.646-0.557h0.656c0.396,0,0.754,0.254,0.797,0.557l2.117,17.385c0.033,0.309,0.373,0.557,0.793,0.557
		h1.652c0.383,0,0.76-0.252,0.797-0.557l2.105-17.385c0.047-0.303,0.373-0.555,0.797-0.555l0.648-0.002
		c0.391,0,0.693,0.254,0.654,0.555L17.079,46.457z M35.712,46.457c-0.054,0.307-0.396,0.555-0.796,0.555h-4.449
		c-0.398,0-0.761-0.254-0.801-0.555L26.86,25.772c-0.05-0.305,0.255-0.557,0.647-0.557h0.654c0.396,0,0.755,0.254,0.797,0.557
		l2.117,17.385c0.034,0.309,0.373,0.557,0.792,0.557h1.653c0.383,0,0.76-0.252,0.797-0.557l2.107-17.385
		c0.047-0.303,0.373-0.555,0.795-0.555l0.647-0.002c0.392,0,0.694,0.254,0.655,0.555L35.712,46.457z"/>
	<g>
		<rect x="7.286" y="13.712" fill="#CCCCCC" width="32.188" height="33.438"/>
		<rect x="7.286" y="47.151" fill="#F2F2F2" width="32.188" height="1.75"/>
	</g>
	<g>
		<path fill="#B0B0B0" d="M40.674,44.27h1c0,0.535,0.098,0.885,0.269,0.998c0.067,0.031,0.627,0.107,1.012,0.107v0.674v0.326v3.307
			v0.154v0.846c-0.604,0-1.317-0.111-1.56-0.271c-0.664-0.445-0.715-1.34-0.719-1.738l-0.002-0.002v-4l0.018,0.01
			C40.676,44.508,40.674,44.362,40.674,44.27z"/>
		<path fill="#8F8F8F" d="M41.825,45.129c-0.097-0.172-0.149-0.465-0.149-0.861h-1v4.305c0,0.281,0.006,1.035,0.428,1.559
			c0.125,0.143,0.19,0.316,0.811,0.451C41.817,50.41,41.825,45.129,41.825,45.129z"/>
	</g>
	<g id="breadboard_1_">
		<g id="icon">
			<g transform="translate(-73.7598,-38.7205)">
				<g transform="matrix(0, 0, 0, 0, 173.76, 238.72)">
					<rect x="86.502" y="38.72" fill="#4D4D4D" width="2.837" height="18.425"/>
					<rect x="92.881" y="38.72" fill="#4D4D4D" width="2.834" height="18.425"/>
					<rect x="98.55" y="38.72" fill="#4D4D4D" width="2.834" height="18.425"/>
					<rect x="104.928" y="38.72" fill="#4D4D4D" width="2.838" height="18.425"/>
				</g>
			</g>
		</g>
	</g>
	<g>
		<g>
			<g>
				<path fill="#B0B0B0" d="M6.082,44.27h-1c0,0.535-0.098,0.885-0.268,0.998c-0.068,0.031-0.627,0.107-1.012,0.107v0.674v0.326
					v3.307v0.154v0.846c0.605,0,1.318-0.111,1.559-0.271c0.665-0.445,0.716-1.34,0.72-1.738l0.001-0.002v-4l-0.017,0.01
					C6.081,44.508,6.082,44.362,6.082,44.27z"/>
				<path fill="#8F8F8F" d="M4.843,50.582c0.619-0.135,0.687-0.309,0.811-0.451c0.422-0.521,0.428-1.275,0.428-1.559v-4.305h-1
					c0,0.396-0.055,0.689-0.15,0.861C4.932,45.129,4.939,50.41,4.843,50.582z"/>
			</g>
		</g>
		<g>
			<g>
				<path fill="#B3B3B3" d="M4.652,6.055v38.613h1.596v1.707h34.25v-1.707h1.596V6.055H4.652z M17.079,42.153
					c-0.053,0.305-0.395,0.553-0.795,0.553h-4.451c-0.398,0-0.76-0.252-0.799-0.553L8.229,21.466
					c-0.051-0.304,0.256-0.556,0.646-0.556h0.656c0.396,0,0.754,0.253,0.797,0.556l2.117,17.386
					c0.033,0.309,0.373,0.557,0.793,0.557h1.652c0.383,0,0.76-0.252,0.797-0.557l2.105-17.385c0.047-0.304,0.373-0.555,0.797-0.555
					l0.648-0.002c0.391,0,0.693,0.253,0.654,0.555L17.079,42.153z M35.712,42.153c-0.054,0.305-0.396,0.553-0.796,0.553h-4.449
					c-0.398,0-0.761-0.252-0.801-0.553L26.86,21.466c-0.05-0.304,0.255-0.556,0.647-0.556h0.654c0.396,0,0.755,0.253,0.797,0.556
					l2.117,17.386c0.034,0.309,0.373,0.557,0.792,0.557h1.653c0.383,0,0.76-0.252,0.797-0.557l2.107-17.385
					c0.047-0.304,0.373-0.555,0.795-0.555l0.647-0.002c0.392,0,0.694,0.253,0.655,0.555L35.712,42.153z"/>
			</g>
			<g>
				<polygon fill="none" points="12.499,39.395 15.61,39.395 15.794,37.764 12.337,37.764 				"/>
				<polygon fill="#939393" points="15.794,37.764 15.61,39.395 12.499,39.395 12.337,37.764 				"/>
				<polygon fill="#666666" points="15.794,37.764 15.878,37.08 12.241,37.08 12.337,37.764 				"/>
			</g>
			<g>
				<polygon fill="none" points="31.131,39.395 34.241,39.395 34.424,37.764 30.969,37.764 				"/>
				<polygon fill="#939393" points="34.424,37.764 34.241,39.395 31.131,39.395 30.969,37.764 				"/>
				<polygon fill="#666666" points="34.424,37.764 34.508,37.08 30.872,37.08 30.969,37.764 				"/>
			</g>
			
				<line fill="none" stroke="#FFFFFF" stroke-width="0.8064" stroke-linecap="round" stroke-opacity="0.24" x1="5.219" y1="7.12" x2="5.219" y2="43.961"/>
			
				<line fill="none" stroke="#FFFFFF" stroke-width="0.8064" stroke-linecap="round" stroke-opacity="0.24" x1="41.526" y1="7.12" x2="41.526" y2="44.112"/>
			
				<line fill="none" stroke="#000000" stroke-width="0.4032" stroke-linecap="round" stroke-opacity="0.15" x1="40.278" y1="45.244" x2="6.467" y2="45.244"/>
			<rect x="6.248" y="45.725" fill="#B0B0B0" width="34.25" height="0.65"/>
		</g>
	</g>
	<g>
		<polygon fill="#B0B0B0" points="22.984,50.682 6.248,50.682 6.248,51.336 22.915,51.336 		"/>
		<polygon fill="#B0B0B0" points="23.744,50.682 23.813,51.336 40.498,51.336 40.498,50.682 		"/>
	</g>
	<rect x="0" y="13.12" fill="#4D4D4D" width="4.652" height="6.548"/>
	<rect x="42.108" y="13.12" fill="#4D4D4D" width="4.652" height="6.548"/>
</g>
</svg>
