<?xml version="1.0" encoding="utf-8"?>
<!-- Generator: Adobe Illustrator 15.1.0, SVG Export Plug-In . SVG Version: 6.00 Build 0)  -->
<!DOCTYPE svg PUBLIC "-//W3C//DTD SVG 1.1//EN" "http://www.w3.org/Graphics/SVG/1.1/DTD/svg11.dtd">
<svg version="1.1" id="Ebene_1" xmlns:svg="http://www.w3.org/2000/svg"
	 xmlns="http://www.w3.org/2000/svg" xmlns:xlink="http://www.w3.org/1999/xlink" x="0px" y="0px" width="30.338px"
	 height="39.225px" viewBox="0 0 30.338 39.225" enable-background="new 0 0 30.338 39.225" xml:space="preserve">
<g>
	<g>
		<g>
			<path fill="#E6E6E6" d="M26.482,38.323c0,0.496-0.404,0.9-0.898,0.9H4.757c-0.495,0-0.9-0.404-0.9-0.9V21.895
				c0-0.496,0.405-0.9,0.9-0.9h20.827c0.494,0,0.898,0.404,0.898,0.9V38.323z"/>
			<rect x="3.857" y="1.494" fill="#B3B3B3" width="22.625" height="20.063"/>
			<g>
				<rect x="13.591" y="0" fill="#999999" width="0.864" height="1.493"/>
				<rect x="11.292" y="0" fill="#999999" width="0.864" height="1.493"/>
				<rect x="18.097" y="0" fill="#999999" width="0.861" height="1.493"/>
				<rect x="15.829" y="0" fill="#999999" width="0.863" height="1.493"/>
				<rect x="11.292" y="0" fill="#CCCCCC" width="0.14" height="1.493"/>
				<rect x="15.829" y="0" fill="#CCCCCC" width="0.142" height="1.493"/>
				<rect x="18.097" y="0" fill="#CCCCCC" width="0.141" height="1.493"/>
				<rect x="13.591" y="0" fill="#CCCCCC" width="0.14" height="1.493"/>
			</g>
		</g>
	</g>
	<polygon fill="#808080" points="11.051,23.389 6.563,26.452 6.563,37.473 23.779,37.473 23.779,26.452 19.29,23.389 	"/>
	<rect x="11.191" y="23.389" fill="#999999" width="8.208" height="5.313"/>
	<g>
		<g>
			<rect x="12.457" y="23.389" fill="#666666" width="1.208" height="4.75"/>
			<rect x="17.134" y="23.389" fill="#666666" width="1.209" height="4.75"/>
		</g>
	</g>
	<g>
		<g>
			<rect x="12.352" y="23.389" fill="#CCCCCC" width="1.208" height="4.75"/>
			<rect x="17.028" y="23.389" fill="#CCCCCC" width="1.209" height="4.75"/>
		</g>
	</g>
	<rect x="11.191" y="28.702" fill="#CCCCCC" width="8.208" height="5.146"/>
	<rect x="11.191" y="28.702" fill="#B3B3B3" width="8.208" height="0.564"/>
	<rect x="3.857" y="1.494" fill="#CCCCCC" width="1.427" height="20.063"/>
	<rect x="25.056" y="1.494" fill="#999999" width="1.427" height="20.063"/>
	<polygon fill="#666666" points="19.399,23.464 19.399,28.702 19.399,33.848 16.935,33.848 16.118,37.473 23.779,37.473 
		23.779,26.452 	"/>
	<polygon fill="#999999" points="18.827,33.848 19.399,33.848 19.399,28.702 18.827,29.264 	"/>
	<polygon fill="#E6E6E6" points="11.191,33.848 11.764,33.848 11.764,29.264 11.191,28.702 	"/>
	<rect x="0" y="3.064" fill="#B3B3B3" width="3.857" height="6"/>
	<rect x="26.482" y="3.064" fill="#B3B3B3" width="3.855" height="6"/>
</g>
</svg>
