<?xml version="1.0" encoding="utf-8"?>
<!-- Generator: Adobe Illustrator 15.1.0, SVG Export Plug-In . SVG Version: 6.00 Build 0)  -->
<!DOCTYPE svg PUBLIC "-//W3C//DTD SVG 1.1//EN" "http://www.w3.org/Graphics/SVG/1.1/DTD/svg11.dtd">
<svg version="1.1" id="Ebene_1" xmlns:svg="http://www.w3.org/2000/svg"
	 xmlns="http://www.w3.org/2000/svg" xmlns:xlink="http://www.w3.org/1999/xlink" x="0px" y="0px" width="32.879px"
	 height="57.801px" viewBox="3.935 1.102 32.879 57.801" enable-background="new 3.935 1.102 32.879 57.801" xml:space="preserve">
<g>
	<path fill="#808080" d="M4.834,4.427c-0.495,0-0.9,0.403-0.9,0.896v52.682c0,0.494,0.405,0.897,0.9,0.897h31.082
		c0.496,0,0.898-0.403,0.898-0.897V5.325c0-0.494-0.402-0.897-0.898-0.897L4.834,4.427L4.834,4.427z"/>
	<path fill="#E6E6E6" d="M5.076,48.427c-0.495,0-0.9,0.402-0.9,0.896v8.279c0,0.496,0.405,0.898,0.9,0.898h30.601
		c0.494,0,0.898-0.402,0.898-0.898v-8.279c0-0.493-0.404-0.896-0.898-0.896H5.076z"/>
	<g>
		<g>
			<rect x="9.501" y="22.406" fill="#666666" width="2.25" height="34.465"/>
		</g>
		<g>
			<rect x="16.125" y="22.406" fill="#666666" width="2.25" height="34.465"/>
		</g>
		<g>
			<rect x="22.75" y="22.406" fill="#666666" width="2.25" height="34.465"/>
		</g>
		<g>
			<rect x="29.373" y="22.406" fill="#666666" width="2.25" height="34.465"/>
		</g>
	</g>
	<g>
		<g>
			<rect x="9.251" y="22.406" fill="#999999" width="2.25" height="34.465"/>
		</g>
		<g>
			<rect x="15.875" y="22.406" fill="#999999" width="2.25" height="34.465"/>
		</g>
		<g>
			<rect x="22.5" y="22.406" fill="#999999" width="2.25" height="34.465"/>
		</g>
		<g>
			<rect x="29.123" y="22.406" fill="#999999" width="2.25" height="34.465"/>
		</g>
	</g>
	<rect x="3.935" y="47.752" fill="#CCCCCC" width="32.881" height="4.188"/>
	<g>
		<g>
			<rect x="9.251" y="1.102" fill="#999999" width="2.25" height="3.325"/>
		</g>
		<g>
			<rect x="15.875" y="1.102" fill="#999999" width="2.25" height="3.325"/>
		</g>
		<g>
			<rect x="22.5" y="1.102" fill="#999999" width="2.25" height="3.325"/>
		</g>
		<g>
			<rect x="29.123" y="1.102" fill="#999999" width="2.25" height="3.325"/>
		</g>
	</g>
	<rect x="7.207" y="33.011" fill="#666666" width="27.75" height="1.791"/>
	<path fill="#CCCCCC" d="M4.882,4.427c-0.521,0-0.947,0.427-0.947,0.946v45.188c0,0.521,0.426,0.947,0.947,0.947h30.986
		c0.521,0,0.945-0.428,0.945-0.947V5.375c0-0.521-0.428-0.946-0.945-0.946L4.882,4.427L4.882,4.427z M14.554,39.463
		c0,0.521-0.428,0.949-0.949,0.949H9.021c-0.521,0-0.946-0.429-0.946-0.949v-3.904c0-0.521,0.427-0.947,0.946-0.947h4.584
		c0.521,0,0.947,0.429,0.947,0.947v3.904H14.554z M32.679,39.463c0,0.521-0.428,0.949-0.949,0.949h-4.584
		c-0.521,0-0.945-0.429-0.945-0.949v-3.904c0-0.521,0.426-0.947,0.945-0.947h4.584c0.521,0,0.947,0.429,0.947,0.947v3.904H32.679z"
		/>
	<polygon fill="#E6E6E6" points="23.847,17.781 16.906,17.781 18.062,10.781 22.689,10.781 	"/>
	<polygon fill="#B3B3B3" points="18.062,10.781 16.906,17.781 17.25,17.781 18.269,10.781 	"/>
	<path fill="#F2F2F2" d="M23.625,16.436l0.223,1.346h-6.94l0.021-0.123C16.924,17.658,23.498,17.3,23.625,16.436z"/>
	<path fill="#E6E6E6" d="M3.935,51.937c0,0,0-45.631,0-46.375c0-0.827,0.396-1.137,0.899-1.137s20.851,0,20.851,0
		s-7.31,0.313-9.56,0.313c-5.979,0-9.898,0.75-10.71,1C3.538,6.317,5.448,39.265,4.883,51.51
		C4.874,51.722,4.882,51.511,3.935,51.937z"/>
	<path fill="#B3B3B3" d="M36.816,8.656c0,4.417,0,44.813,0,44.813s0.1-1.955-0.898-1.955c0.332-2.387-0.002-46.562-0.002-46.562
		S36.816,4.24,36.816,8.656z"/>
	<path fill="#808080" d="M35.916,52.011c0.223,0,0.398,0.18,0.398,0.398v5.596c0,0.223-0.18,0.397-0.398,0.397H4.834
		c-0.222,0-0.4-0.18-0.4-0.397V52.41c0-0.222,0.182-0.398,0.4-0.398L35.916,52.011 M35.916,51.511H4.834
		c-0.495,0-0.9,0.402-0.9,0.898v5.596c0,0.494,0.405,0.897,0.9,0.897h31.082c0.496,0,0.898-0.403,0.898-0.897V52.41
		C36.816,51.916,36.412,51.511,35.916,51.511L35.916,51.511z"/>
	<path fill="#CCCCCC" d="M9.251,1.102v3.325h0.216c0,0,0.006-2.084,0-3.035c0-0.188,1.854,0.084,2.034-0.017V1.102H9.686l0,0l0,0
		l0,0H9.251z"/>
	<path fill="#CCCCCC" d="M15.875,1.102v3.325h0.216c0,0,0.005-2.084,0-3.035c-0.001-0.188,1.854,0.084,2.034-0.018V1.102H16.31l0,0
		l0,0l0,0H15.875z"/>
	<path fill="#808080" d="M24.75,1.102v3.325h-0.217c0,0-0.005-2.084,0-3.035c0.002-0.188-0.221-0.29-0.221-0.29l0,0l0,0l0,0H24.75z"
		/>
	<path fill="#808080" d="M31.373,1.102v3.325h-0.215c0,0-0.008-2.084,0-3.035c0-0.188-0.223-0.29-0.223-0.29l0,0l0,0l0,0H31.373z"/>
</g>
</svg>
