<?xml version="1.0" encoding="utf-8"?>
<!-- Generator: Adobe Illustrator 15.1.0, SVG Export Plug-In . SVG Version: 6.00 Build 0)  -->
<!DOCTYPE svg PUBLIC "-//W3C//DTD SVG 1.1//EN" "http://www.w3.org/Graphics/SVG/1.1/DTD/svg11.dtd">
<svg version="1.1" id="Ebene_1" xmlns="http://www.w3.org/2000/svg" xmlns:xlink="http://www.w3.org/1999/xlink" x="0px" y="0px"
	 width="53.54px" height="29.774px" viewBox="-10.956 1.183 53.54 29.774" enable-background="new -10.956 1.183 53.54 29.774"
	 xml:space="preserve">
<rect x="5.014" y="17.002" fill="#4D4D4D" width="21.6" height="1.914"/>
<path fill="#666666" d="M42.584,17.917v1.567h-3.525c-1.947,0-3.526,1.579-3.526,3.525c0,1.948,1.579,3.526,3.526,3.526h3.525v1.567
	H26.613V17.917H42.584z"/>
<path fill="#808080" d="M26.614,21.134c0,0.396-0.324,0.72-0.72,0.72H5.734c-0.396,0-0.72-0.324-0.72-0.72v-5.154
	c0-0.396,0.324-0.72,0.72-0.72h20.16c0.396,0,0.72,0.324,0.72,0.72V21.134z"/>
<rect x="6.623" y="4.4" fill="#B3B3B3" width="18.384" height="25.016"/>
<g>
	<path fill="#999999" d="M6.623,3.267c0-0.079,0.046-0.189,0.103-0.245l1.775-1.735c0.057-0.055,0.168-0.101,0.247-0.101
		l14.329-0.003c0.079,0,0.188,0.047,0.241,0.105l1.59,1.71c0.054,0.058,0.098,0.17,0.098,0.25v1.196
		c0,0.079-0.064,0.144-0.144,0.144H6.767c-0.079,0-0.144-0.065-0.144-0.144V3.267z"/>
</g>
<g>
	<path fill="#333333" d="M7.255,3.25c0-0.079,0.046-0.189,0.103-0.245l1.338-1.308c0.057-0.055,0.168-0.101,0.247-0.101h13.899
		c0.079,0,0.188,0.047,0.241,0.105l1.191,1.281c0.054,0.058,0.098,0.17,0.098,0.25v0.79c0,0.079-0.064,0.144-0.144,0.144H7.399
		c-0.079,0-0.144-0.065-0.144-0.144V3.25z"/>
</g>
<g>
	<path fill="#4D4D4D" d="M7.255,3.25c0-0.079,0.046-0.189,0.103-0.245l1.338-1.308c0.057-0.055,0.168-0.101,0.247-0.101h13.899
		c0.079,0,0.079,0.004,0,0.009c0,0-8.913,0.548-11.987,0.789S7.309,3.829,7.309,3.829c-0.029,0.074-0.053,0.069-0.053-0.01V3.25z"/>
</g>
<rect x="10.221" y="3.106" width="11.188" height="1.06"/>
<g>
	<g>
		<rect x="20.205" y="2.625" width="0.271" height="0.482"/>
	</g>
	<g>
		<rect x="17.942" y="2.625" width="0.271" height="0.482"/>
	</g>
	<g>
		<rect x="15.679" y="2.625" width="0.271" height="0.482"/>
	</g>
	<g>
		<rect x="13.416" y="2.625" width="0.271" height="0.482"/>
	</g>
	<g>
		<rect x="11.153" y="2.625" width="0.271" height="0.482"/>
	</g>
</g>
<g>
	<g>
		<rect x="20.269" y="2.865" fill="#FCEE21" width="0.144" height="1.301"/>
	</g>
	<g>
		<rect x="18.006" y="2.865" fill="#FCEE21" width="0.144" height="1.301"/>
	</g>
	<g>
		<rect x="15.743" y="2.865" fill="#FCEE21" width="0.144" height="1.301"/>
	</g>
	<g>
		<rect x="13.479" y="2.865" fill="#FCEE21" width="0.144" height="1.301"/>
	</g>
	<g>
		<rect x="11.217" y="2.865" fill="#FCEE21" width="0.144" height="1.301"/>
	</g>
</g>
<g>
	<g>
		<g>
			<g>
				<path fill="#E6E6E6" d="M10.538,11.212c0,0.198-0.094,0.36-0.208,0.36s-0.208-0.162-0.208-0.36V6.213
					c0-0.198,0.094-0.36,0.208-0.36s0.208,0.162,0.208,0.36V11.212z"/>
			</g>
			<g>
				<path fill="#CCCCCC" d="M10.538,11.212c0,0.198-0.077,0.36-0.172,0.36s-0.172-0.162-0.172-0.36V6.213
					c0-0.198,0.077-0.36,0.172-0.36s0.172,0.162,0.172,0.36V11.212z"/>
			</g>
		</g>
		<g>
			<g>
				<path fill="#E6E6E6" d="M16.022,11.212c0,0.198-0.094,0.36-0.208,0.36s-0.208-0.162-0.208-0.36V6.213
					c0-0.198,0.094-0.36,0.208-0.36s0.208,0.162,0.208,0.36V11.212z"/>
			</g>
			<g>
				<path fill="#CCCCCC" d="M16.022,11.212c0,0.198-0.077,0.36-0.172,0.36s-0.172-0.162-0.172-0.36V6.213
					c0-0.198,0.077-0.36,0.172-0.36s0.172,0.162,0.172,0.36V11.212z"/>
			</g>
		</g>
		<g>
			<g>
				<path fill="#E6E6E6" d="M21.507,11.212c0,0.198-0.094,0.36-0.208,0.36s-0.208-0.162-0.208-0.36V6.213
					c0-0.198,0.094-0.36,0.208-0.36s0.208,0.162,0.208,0.36V11.212z"/>
			</g>
			<g>
				<path fill="#CCCCCC" d="M21.507,11.212c0,0.198-0.077,0.36-0.172,0.36s-0.172-0.162-0.172-0.36V6.213
					c0-0.198,0.077-0.36,0.172-0.36s0.172,0.162,0.172,0.36V11.212z"/>
			</g>
		</g>
	</g>
</g>
<g>
	<path fill="#E6E6E6" d="M20.443,15.213c0,0.146-0.162,0.266-0.36,0.266h-8.538c-0.198,0-0.36-0.12-0.36-0.266
		s0.162-0.266,0.36-0.266h8.538C20.281,14.947,20.443,15.067,20.443,15.213z"/>
</g>
<path fill="#999999" d="M25.006,15.26h0.889c0.396,0,0.72,0.324,0.72,0.72c0,0-0.526-0.082-1.608-0.126V15.26z"/>
<g>
	<path fill="#CCCCCC" d="M20.443,15.26c0,0.12-0.162,0.219-0.36,0.219h-8.538c-0.198,0-0.36-0.099-0.36-0.219
		s0.162-0.219,0.36-0.219h8.538C20.281,15.041,20.443,15.14,20.443,15.26z"/>
</g>
<g>
	<rect x="5.014" y="21.072" fill="#333333" width="21.6" height="9.031"/>
</g>
<g>
	<g>
		<rect x="19.73" y="30.104" fill="#CCCCCC" width="0.27" height="0.854"/>
	</g>
	<g>
		<rect x="17.705" y="30.104" fill="#CCCCCC" width="0.27" height="0.854"/>
	</g>
	<g>
		<rect x="15.679" y="30.104" fill="#CCCCCC" width="0.271" height="0.854"/>
	</g>
	<g>
		<rect x="13.653" y="30.104" fill="#CCCCCC" width="0.271" height="0.854"/>
	</g>
	<g>
		<rect x="11.628" y="30.104" fill="#CCCCCC" width="0.271" height="0.854"/>
	</g>
</g>
<rect x="-10.957" y="28.104" fill="#333333" width="17.856" height="2.854"/>
<rect x="24.728" y="28.104" fill="#333333" width="17.856" height="2.854"/>
<path fill="#666666" d="M-10.956,17.917v1.567h3.526c1.947,0,3.526,1.579,3.526,3.525c0,1.948-1.579,3.526-3.526,3.526h-3.526v1.567
	h15.97V17.917H-10.956z"/>
<g>
	<path fill="#333333" d="M-7.43,19.484h-3.526v2.438h3.526c1.517,0,2.799,0.963,3.296,2.307c0.141-0.381,0.229-0.788,0.229-1.219
		C-3.904,21.063-5.483,19.484-7.43,19.484z"/>
</g>
<g>
	<path fill="#333333" d="M39.059,19.484h3.525v2.438h-3.525c-1.518,0-2.8,0.963-3.297,2.307c-0.141-0.381-0.229-0.788-0.229-1.219
		C35.532,21.063,37.111,19.484,39.059,19.484z"/>
</g>
<rect x="25.006" y="15.854" fill="#333333" width="0.809" height="6"/>
<path fill="#808080" d="M5.014,20.291v0.843c0,0.396,0.324,0.72,0.72,0.72h0.08v-1.563H5.014z"/>
<path fill="#808080" d="M25.814,20.291v1.563h0.08c0.396,0,0.72-0.324,0.72-0.72v-0.843H25.814z"/>
<polygon fill="#808080" points="22.971,20.291 22.971,21.072 22.221,21.072 22.221,20.291 9.408,20.291 9.408,21.072 8.658,21.072 
	8.658,20.291 6.623,20.291 6.623,21.854 25.006,21.854 25.006,20.291 "/>
<rect x="25.124" y="19.484" fill="#B3B3B3" width="0.57" height="10.272"/>
<rect x="25.006" y="18.916" fill="#CCCCCC" width="0.688" height="0.568"/>
<rect x="25.124" y="27.784" fill="#E6E6E6" width="0.57" height="1.973"/>
<polygon fill="#4D4D4D" points="25.814,26.813 25.814,29.757 25.007,29.757 25.007,26.813 24.752,26.813 24.752,30.104 
	26.637,30.104 26.637,26.813 "/>
<polygon fill="#4D4D4D" points="6.602,26.813 6.602,29.757 5.794,29.757 5.794,26.813 5.014,26.813 5.014,30.104 6.898,30.104 
	6.898,26.813 "/>
<path fill="#CCCCCC" d="M-10.956,18.727c8.479-0.432,15.896,0.758,15.896,0.758l0.075-1.567h-15.97V18.727z"/>
<path fill="#808080" d="M-10.956,18.727c8.479-0.432,15.896,4.283,15.896,4.283l0.075-5.093h-15.97V18.727z"/>
<path fill="#808080" d="M26.637,19.484l9.457,5.432c0,0-1.041-1.396-0.285-3.268c0.57-1.411,1.975-2.164,3.162-2.164
	c1.797,0,3.613,0,3.613,0v-1.567h-15.97L26.637,19.484z"/>
<path fill="#999999" d="M6.623,16.882C5.617,18.08,5.014,21.2,5.014,21.134v-5.154c0-0.396,0.324-0.72,0.72-0.72h0.889"/>
<rect x="5.814" y="15.854" fill="#333333" width="0.809" height="6"/>
<rect x="5.913" y="19.484" fill="#B3B3B3" width="0.57" height="10.272"/>
<rect x="5.913" y="18.916" fill="#CCCCCC" width="0.71" height="0.568"/>
<rect x="5.913" y="27.784" fill="#E6E6E6" width="0.57" height="1.973"/>
<rect x="6.623" y="21.854" fill="#4D4D4D" width="18.383" height="8.25"/>
<polygon opacity="0.11" points="6.624,20.291 10.195,21.878 14.721,30.104 26.614,30.104 26.614,19.744 25.006,18.682 
	25.006,20.291 "/>
</svg>
