<?xml version="1.0" encoding="utf-8"?>
<!-- Generator: Adobe Illustrator 15.0.1, SVG Export Plug-In . SVG Version: 6.00 Build 0)  -->
<!DOCTYPE svg PUBLIC "-//W3C//DTD SVG 1.1//EN" "http://www.w3.org/Graphics/SVG/1.1/DTD/svg11.dtd">
<svg version="1.1" id="Ebene_1" xmlns="http://www.w3.org/2000/svg" xmlns:xlink="http://www.w3.org/1999/xlink" x="0px" y="0px"
	 width="40.32px" height="37.439px" viewBox="0 0 40.32 37.439" enable-background="new 0 0 40.32 37.439" xml:space="preserve">
<g>
	<g>
		<g>
			<g>
				<path fill="#B0B0B0" d="M40.32,38.289h-1c0-0.384-0.076-0.944-0.109-1.012c-0.114-0.17-0.462-0.267-0.997-0.267v-1
					c0.334,0,1.351,0,1.835,0.721C40.21,36.971,40.32,37.683,40.32,38.289z"/>
			</g>
		</g>
		<g>
			<path fill="#8F8F8F" d="M39.77,36.438c-0.523-0.422-1.277-0.428-1.558-0.428v1c0.397,0,0.69,0.054,0.862,0.15
				C39.3,36.788,39.488,36.587,39.77,36.438z"/>
		</g>
	</g>
	<g>
		<g>
			<g>
				<path fill="#B0B0B0" d="M40.32-0.851h-1c0,0.384-0.076,0.946-0.109,1.012c-0.114,0.17-0.462,0.268-0.997,0.268v1
					c0.334,0,1.351,0,1.835-0.722C40.21,0.467,40.32-0.246,40.32-0.851z"/>
			</g>
		</g>
		<g>
			<path fill="#8F8F8F" d="M39.77,1c-0.523,0.422-1.277,0.429-1.558,0.429v-1c0.397,0,0.69-0.055,0.862-0.151
				C39.3,0.65,39.488,0.851,39.77,1z"/>
		</g>
	</g>
</g>
<g>
	<polygon fill="#7A7A7A" points="38.613,35.844 40.32,35.844 40.32,1.594 38.613,1.594 38.613,-0.001 0,-0.001 0,37.439 
		38.613,37.439 	"/>
	<g>
		<path d="M14.855,4.222c0-0.391,0.252-0.694,0.554-0.655l20.687,2.814c0.305,0.053,0.553,0.395,0.553,0.795v4.451
			c0,0.398-0.253,0.759-0.553,0.799L15.41,15.232c-0.304,0.05-0.555-0.255-0.555-0.647v-0.656c0-0.396,0.252-0.754,0.555-0.796
			l17.386-2.118c0.307-0.034,0.556-0.373,0.556-0.792V8.569c0-0.382-0.252-0.759-0.556-0.796L15.411,5.666
			c-0.304-0.047-0.555-0.373-0.555-0.796L14.855,4.222L14.855,4.222z"/>
		<g>
			<polygon fill="none" points="33.339,10.962 33.339,7.851 31.707,7.668 31.707,11.123 			"/>
			<polygon fill="#939393" points="31.707,7.668 33.339,7.851 33.339,10.962 31.707,11.123 			"/>
			<polygon fill="#666666" points="31.707,7.668 31.023,7.584 31.023,11.22 31.707,11.123 			"/>
		</g>
	</g>
	<g>
		<path d="M14.855,22.854c0-0.391,0.252-0.693,0.554-0.654l20.687,2.814c0.305,0.053,0.553,0.395,0.553,0.795v4.451
			c0,0.398-0.253,0.76-0.553,0.799L15.41,33.864c-0.304,0.051-0.555-0.256-0.555-0.647V32.56c0-0.396,0.252-0.754,0.555-0.796
			l17.386-2.117c0.307-0.034,0.556-0.373,0.556-0.793v-1.652c0-0.383-0.252-0.76-0.556-0.797l-17.385-2.106
			c-0.304-0.047-0.555-0.373-0.555-0.796L14.855,22.854L14.855,22.854z"/>
		<g>
			<polygon fill="none" points="33.339,29.594 33.339,26.483 31.707,26.3 31.707,29.756 			"/>
			<polygon fill="#939393" points="31.707,26.3 33.339,26.483 33.339,29.594 31.707,29.756 			"/>
			<polygon fill="#666666" points="31.707,26.3 31.023,26.216 31.023,29.852 31.707,29.756 			"/>
		</g>
	</g>
	
		<line fill="none" stroke="#FFFFFF" stroke-width="0.8064" stroke-linecap="round" stroke-opacity="0.24" x1="1.064" y1="36.873" x2="37.906" y2="36.873"/>
	
		<line fill="none" stroke="#FFFFFF" stroke-width="0.8064" stroke-linecap="round" stroke-opacity="0.24" x1="1.064" y1="0.566" x2="38.054" y2="0.566"/>
	
		<line fill="none" stroke="#000000" stroke-width="0.4032" stroke-linecap="round" stroke-opacity="0.15" x1="39.188" y1="1.814" x2="39.188" y2="35.625"/>
	<rect x="39.669" y="1.594" fill="#B0B0B0" width="0.651" height="34.25"/>
</g>
</svg>
