<?xml version="1.0" encoding="utf-8"?>
<!-- Generator: Adobe Illustrator 15.1.0, SVG Export Plug-In . SVG Version: 6.00 Build 0)  -->
<!DOCTYPE svg PUBLIC "-//W3C//DTD SVG 1.1//EN" "http://www.w3.org/Graphics/SVG/1.1/DTD/svg11.dtd">
<svg version="1.1" id="Ebene_1" xmlns:svg="http://www.w3.org/2000/svg"
	 xmlns="http://www.w3.org/2000/svg" xmlns:xlink="http://www.w3.org/1999/xlink" x="0px" y="0px" width="32.879px"
	 height="57.801px" viewBox="0 0 32.879 57.801" enable-background="new 0 0 32.879 57.801" xml:space="preserve">
<g>
	<path fill="#808080" d="M0.896,3.325c-0.495,0-0.9,0.403-0.9,0.896v52.683c0,0.494,0.405,0.896,0.9,0.896h31.082
		c0.496,0,0.898-0.402,0.898-0.896V4.224c0-0.494-0.402-0.897-0.898-0.897L0.896,3.325L0.896,3.325z"/>
	<path fill="#E6E6E6" d="M1.139,47.325c-0.495,0-0.9,0.402-0.9,0.896V56.5c0,0.496,0.405,0.898,0.9,0.898h30.601
		c0.494,0,0.898-0.402,0.898-0.898v-8.279c0-0.492-0.404-0.896-0.898-0.896H1.139z"/>
	<g>
		<g>
			<rect x="5.563" y="21.304" fill="#666666" width="2.25" height="34.466"/>
		</g>
		<g>
			<rect x="12.188" y="21.304" fill="#666666" width="2.25" height="34.466"/>
		</g>
		<g>
			<rect x="18.813" y="21.304" fill="#666666" width="2.25" height="34.466"/>
		</g>
		<g>
			<rect x="25.436" y="21.304" fill="#666666" width="2.25" height="34.466"/>
		</g>
	</g>
	<g>
		<g>
			<rect x="5.313" y="21.304" fill="#999999" width="2.25" height="34.466"/>
		</g>
		<g>
			<rect x="11.938" y="21.304" fill="#999999" width="2.25" height="34.466"/>
		</g>
		<g>
			<rect x="18.563" y="21.304" fill="#999999" width="2.25" height="34.466"/>
		</g>
		<g>
			<rect x="25.186" y="21.304" fill="#999999" width="2.25" height="34.466"/>
		</g>
	</g>
	<rect x="-0.002" y="46.651" fill="#CCCCCC" width="32.881" height="4.188"/>
	<g>
		<g>
			<rect x="5.313" y="0" fill="#999999" width="2.25" height="3.325"/>
		</g>
		<g>
			<rect x="11.938" y="0" fill="#999999" width="2.25" height="3.325"/>
		</g>
		<g>
			<rect x="18.563" y="0" fill="#999999" width="2.25" height="3.325"/>
		</g>
		<g>
			<rect x="25.186" y="0" fill="#999999" width="2.25" height="3.325"/>
		</g>
	</g>
	<rect x="3.27" y="31.909" fill="#666666" width="27.75" height="1.791"/>
	<path fill="#CCCCCC" d="M0.944,3.325c-0.521,0-0.947,0.427-0.947,0.946v45.188c0,0.521,0.426,0.947,0.947,0.947h30.986
		c0.521,0,0.944-0.428,0.944-0.947V4.274c0-0.521-0.428-0.946-0.944-0.946L0.944,3.325L0.944,3.325z M10.617,38.362
		c0,0.521-0.428,0.949-0.949,0.949H5.083c-0.521,0-0.946-0.43-0.946-0.949v-3.904c0-0.521,0.427-0.947,0.946-0.947h4.584
		c0.521,0,0.947,0.43,0.947,0.947v3.904H10.617z M28.742,38.362c0,0.521-0.429,0.949-0.949,0.949h-4.584
		c-0.521,0-0.945-0.43-0.945-0.949v-3.904c0-0.521,0.426-0.947,0.945-0.947h4.584c0.521,0,0.946,0.43,0.946,0.947v3.904H28.742z"/>
	<polygon fill="#E6E6E6" points="19.91,16.679 12.968,16.679 14.125,9.679 18.752,9.679 	"/>
	<polygon fill="#B3B3B3" points="14.125,9.679 12.968,16.679 13.313,16.679 14.332,9.679 	"/>
	<path fill="#F2F2F2" d="M19.688,15.334l0.223,1.346h-6.939l0.021-0.122C12.986,16.557,19.561,16.198,19.688,15.334z"/>
	<path fill="#E6E6E6" d="M-0.002,50.835c0,0,0-45.631,0-46.375c0-0.827,0.396-1.137,0.899-1.137s20.852,0,20.852,0
		s-7.311,0.313-9.561,0.313c-5.979,0-9.898,0.75-10.71,1c-1.877,0.579,0.033,33.527-0.532,45.772
		C0.937,50.62,0.944,50.409-0.002,50.835z"/>
	<path fill="#B3B3B3" d="M32.879,7.554c0,4.417,0,44.813,0,44.813s0.1-1.955-0.898-1.955c0.332-2.387-0.002-46.562-0.002-46.562
		S32.879,3.138,32.879,7.554z"/>
	<path fill="#808080" d="M31.979,50.909c0.223,0,0.398,0.18,0.398,0.398v5.596c0,0.223-0.181,0.396-0.398,0.396H0.896
		c-0.222,0-0.4-0.18-0.4-0.396v-5.595c0-0.223,0.182-0.398,0.4-0.398L31.979,50.909 M31.979,50.409H0.896
		c-0.495,0-0.9,0.402-0.9,0.898v5.596c0,0.494,0.405,0.896,0.9,0.896h31.082c0.496,0,0.898-0.402,0.898-0.896v-5.595
		C32.879,50.815,32.475,50.409,31.979,50.409L31.979,50.409z"/>
	<path fill="#CCCCCC" d="M5.313,0v3.325h0.216c0,0,0.006-2.084,0-3.035c0-0.188,1.854,0.084,2.034-0.017V0H5.749l0,0l0,0l0,0H5.313z
		"/>
	<path fill="#CCCCCC" d="M11.938,0v3.325h0.216c0,0,0.005-2.084,0-3.035c-0.001-0.188,1.854,0.084,2.034-0.018V0h-1.815l0,0l0,0l0,0
		H11.938z"/>
	<path fill="#808080" d="M20.813,0v3.325h-0.217c0,0-0.006-2.084,0-3.035C20.598,0.103,20.375,0,20.375,0l0,0l0,0l0,0H20.813z"/>
	<path fill="#808080" d="M27.436,0v3.325h-0.215c0,0-0.008-2.084,0-3.035c0-0.188-0.223-0.29-0.223-0.29l0,0l0,0l0,0H27.436z"/>
</g>
</svg>
