<?xml version="1.0" encoding="utf-8"?>
<!-- Generator: Adobe Illustrator 15.1.0, SVG Export Plug-In . SVG Version: 6.00 Build 0)  -->
<!DOCTYPE svg PUBLIC "-//W3C//DTD SVG 1.1//EN" "http://www.w3.org/Graphics/SVG/1.1/DTD/svg11.dtd">
<svg version="1.1" id="Ebene_1" xmlns="http://www.w3.org/2000/svg" xmlns:xlink="http://www.w3.org/1999/xlink" x="0px" y="0px"
	 width="31.629px" height="30.957px" viewBox="-496.056 401.528 31.629 30.957"
	 enable-background="new -496.056 401.528 31.629 30.957" xml:space="preserve">
<path fill="#4D4D4D" d="M-488.781,432.125c0,0.198,0.162,0.36,0.36,0.36h16.353c0.198,0,0.36-0.162,0.36-0.36v-0.811
	c0-0.198,0.146-0.433,0.322-0.52l1.492-0.738c0.177-0.087,0.322-0.321,0.322-0.52v-2.489c0-0.198-0.162-0.36-0.36-0.36h-20.627
	c-0.198,0-0.36,0.162-0.36,0.36v2.489c0,0.198,0.145,0.433,0.323,0.52l1.492,0.738c0.178,0.087,0.323,0.321,0.323,0.52V432.125z"/>
<g>
	<rect x="-496.056" y="402.474" fill="#666666" width="6.594" height="6.254"/>
	<rect x="-496.056" y="414.581" fill="#666666" width="6.594" height="7.237"/>
</g>
<rect x="-487.024" y="427.375" fill="#1A1A1A" width="13.563" height="1.548"/>
<g>
	<rect x="-471.023" y="402.474" fill="#666666" width="6.596" height="6.254"/>
	<rect x="-471.023" y="414.581" fill="#666666" width="6.596" height="7.237"/>
</g>
<g>
	<polygon fill="#999999" points="-476.041,405.081 -476.866,403.985 -470.597,403.985 -470.597,403.022 -489.947,403.022 
		-489.947,403.985 -483.622,403.985 -484.448,405.081 -490.919,405.081 -490.919,427.923 -469.572,427.923 -469.572,405.081 	"/>
</g>
<path d="M-484.79,414.01c0.156,0,0.271,0.127,0.256,0.281l-1.097,10.495c-0.017,0.154-0.153,0.281-0.312,0.281h-1.743
	c-0.154,0-0.297-0.127-0.312-0.281l-1.1-10.495c-0.018-0.154,0.102-0.281,0.254-0.281h0.256c0.153,0,0.297,0.127,0.311,0.281
	l0.83,9.541c0.011,0.154,0.15,0.281,0.308,0.281h0.649c0.153,0,0.295-0.127,0.31-0.281l0.829-9.541
	c0.013-0.154,0.151-0.281,0.31-0.281H-484.79z"/>
<path d="M-471.648,414.01c0.152,0,0.271,0.127,0.256,0.281l-1.102,10.496c-0.021,0.154-0.153,0.281-0.312,0.281h-1.742
	c-0.155,0-0.297-0.127-0.312-0.281l-1.1-10.496c-0.019-0.154,0.101-0.281,0.254-0.281h0.257c0.155,0,0.295,0.127,0.313,0.281
	l0.828,9.541c0.014,0.154,0.146,0.281,0.311,0.281h0.646c0.15,0,0.297-0.127,0.312-0.281l0.825-9.541
	c0.019-0.154,0.146-0.281,0.312-0.281H-471.648z"/>
<g>
	<polygon fill="none" points="-474.285,424.108 -473.068,424.108 -472.996,423.28 -474.349,423.28 	"/>
	<polygon fill="#939393" points="-472.996,423.28 -473.068,424.108 -474.285,424.108 -474.349,423.28 	"/>
	<polygon fill="#545454" points="-472.996,423.28 -472.964,422.931 -474.387,422.931 -474.349,423.28 	"/>
</g>
<g>
	<polygon fill="none" points="-487.428,424.108 -486.204,424.108 -486.137,423.28 -487.491,423.28 	"/>
	<polygon fill="#939393" points="-486.137,423.28 -486.204,424.108 -487.428,424.108 -487.491,423.28 	"/>
	<polygon fill="#545454" points="-486.137,423.28 -486.102,422.931 -487.529,422.931 -487.491,423.28 	"/>
</g>
<rect x="-483.152" y="415.54" fill="#808080" width="5.555" height="2.014"/>
<rect x="-483.152" y="414.426" fill="#545454" width="5.555" height="1.115"/>
<path d="M-483.488,426.024c0.154,0,0.293-0.127,0.301-0.282l0.699-11.605c0.01-0.154,0.146-0.282,0.301-0.282h3.889
	c0.155,0,0.291,0.128,0.305,0.282l0.69,11.605c0.009,0.155,0.146,0.282,0.302,0.282h0.52c0.154,0,0.271-0.127,0.267-0.282
	l-0.96-13.192c-0.016-0.154-0.146-0.283-0.309-0.283h-5.52c-0.154,0-0.295,0.129-0.309,0.283l-0.956,13.193
	c-0.011,0.154,0.108,0.282,0.263,0.282L-483.488,426.024L-483.488,426.024z"/>
<line fill="none" stroke="#FFFFFF" stroke-linecap="round" stroke-opacity="0.24" x1="-490.288" y1="405.658" x2="-490.288" y2="426.891"/>
<line fill="none" stroke="#FFFFFF" stroke-width="0.5" stroke-linecap="round" stroke-opacity="0.15" x1="-469.946" y1="405.658" x2="-469.946" y2="427.375"/>
<line fill="none" stroke="#FFFFFF" stroke-linecap="round" stroke-opacity="0.3" x1="-482.941" y1="404.088" x2="-477.552" y2="404.088"/>
<g>
	<path fill="#E6E6E6" d="M-469.932,427.937c0.06,0,0.11,0.051,0.11,0.11v1.489c0,0.104-0.091,0.25-0.184,0.296l-1.491,0.737
		c-0.264,0.13-0.462,0.449-0.462,0.744v0.811c0,0.06-0.051,0.11-0.11,0.11h-16.353c-0.06,0-0.11-0.051-0.11-0.11v-0.811
		c0-0.295-0.199-0.615-0.462-0.743l-1.493-0.739c-0.092-0.045-0.183-0.191-0.183-0.295v-1.489c0-0.06,0.05-0.11,0.11-0.11H-469.932
		 M-469.932,427.687h-20.627c-0.198,0-0.36,0.162-0.36,0.36v1.489c0,0.198,0.145,0.433,0.323,0.52l1.492,0.738
		c0.178,0.087,0.323,0.321,0.323,0.52v0.811c0,0.198,0.162,0.36,0.36,0.36h16.353c0.198,0,0.36-0.162,0.36-0.36v-0.811
		c0-0.198,0.146-0.433,0.322-0.52l1.492-0.738c0.177-0.087,0.322-0.321,0.322-0.52v-1.489
		C-469.572,427.849-469.734,427.687-469.932,427.687L-469.932,427.687z"/>
</g>
<path fill="#333333" d="M-473.461,430.031c0,0.198-0.162,0.36-0.36,0.36h-12.842c-0.198,0-0.36-0.162-0.36-0.36v-1.123h13.563
	V430.031z"/>
<g>
	<g>
		<rect x="-475.773" y="429.235" fill="#1A1A1A" width="1.141" height="0.688"/>
	</g>
	<g>
		<rect x="-478.292" y="429.235" fill="#1A1A1A" width="1.141" height="0.688"/>
	</g>
	<g>
		<rect x="-480.813" y="429.235" fill="#1A1A1A" width="1.141" height="0.688"/>
	</g>
	<g>
		<rect x="-483.333" y="429.235" fill="#1A1A1A" width="1.141" height="0.688"/>
	</g>
	<g>
		<rect x="-485.853" y="429.235" fill="#1A1A1A" width="1.141" height="0.688"/>
	</g>
</g>
<g>
	<g>
		<rect x="-475.46" y="429.235" fill="#E6E6E6" width="0.516" height="0.234"/>
	</g>
	<g>
		<rect x="-477.98" y="429.235" fill="#E6E6E6" width="0.516" height="0.234"/>
	</g>
	<g>
		<rect x="-480.5" y="429.235" fill="#E6E6E6" width="0.516" height="0.234"/>
	</g>
	<g>
		<rect x="-483.02" y="429.235" fill="#E6E6E6" width="0.516" height="0.234"/>
	</g>
	<g>
		<rect x="-485.54" y="429.235" fill="#E6E6E6" width="0.516" height="0.234"/>
	</g>
</g>
<g>
	<g>
		<rect x="-477.289" y="401.528" fill="#666666" width="0.863" height="1.494"/>
		<rect x="-477.289" y="401.528" fill="#CCCCCC" width="0.139" height="1.494"/>
	</g>
	<g>
		<rect x="-478.981" y="401.528" fill="#666666" width="0.863" height="1.494"/>
		<rect x="-478.981" y="401.528" fill="#CCCCCC" width="0.139" height="1.494"/>
	</g>
	<g>
		<rect x="-480.673" y="401.528" fill="#666666" width="0.863" height="1.494"/>
		<rect x="-480.673" y="401.528" fill="#CCCCCC" width="0.139" height="1.494"/>
	</g>
	<g>
		<rect x="-482.365" y="401.528" fill="#666666" width="0.864" height="1.494"/>
		<rect x="-482.365" y="401.528" fill="#CCCCCC" width="0.14" height="1.494"/>
	</g>
	<g>
		<rect x="-484.057" y="401.528" fill="#666666" width="0.864" height="1.494"/>
		<rect x="-484.057" y="401.528" fill="#CCCCCC" width="0.141" height="1.494"/>
	</g>
</g>
</svg>
