<?xml version="1.0" encoding="utf-8"?>
<!-- Generator: Adobe Illustrator 15.1.0, SVG Export Plug-In . SVG Version: 6.00 Build 0)  -->
<!DOCTYPE svg PUBLIC "-//W3C//DTD SVG 1.1//EN" "http://www.w3.org/Graphics/SVG/1.1/DTD/svg11.dtd">
<svg version="1.1" id="Ebene_1" xmlns:svg="http://www.w3.org/2000/svg"
	 xmlns="http://www.w3.org/2000/svg" xmlns:xlink="http://www.w3.org/1999/xlink" x="0px" y="0px" width="48.927px"
	 height="50.716px" viewBox="4.366 9.352 48.927 50.716" enable-background="new 4.366 9.352 48.927 50.716" xml:space="preserve">
<g>
	<path fill="#4D4D4D" d="M4.366,59.78c0,0.158,0.129,0.288,0.288,0.288h40.619c0.158,0,0.288-0.13,0.288-0.288V9.689
		c0-0.159-0.13-0.288-0.288-0.288H4.655c-0.159,0-0.288,0.129-0.288,0.288V59.78z"/>
</g>
<polygon opacity="0.59" fill="#1A1A1A" points="43.468,59.387 5.218,59.387 5.218,48.055 37.855,48.055 "/>
<rect x="5.218" y="10.009" fill="#CCCCCC" width="40.344" height="8.504"/>
<g>
	<g>
		<g enable-background="new    ">
			<g>
				<path fill="#808080" d="M37.226,42.806c0.005,0.046,0.01,0.091,0.016,0.136C37.236,42.897,37.231,42.852,37.226,42.806
					 M45.045,9.352l-0.396,1.731c0.134-0.021,0.267-0.03,0.399-0.03c4.248,0,7.69,10.593,7.69,23.651c0,0.007,0,0.014,0,0.021
					c0,0.005,0,0.01,0,0.015c0,13.041-3.438,23.625-7.68,23.625c-1.062,0-2.073-0.662-2.993-1.859
					c-2.099-2.715-3.725-8.209-4.387-14.983l-0.401,1.751c-0.009-0.074-0.018-0.147-0.024-0.224
					c1.122,9.906,4.188,17.018,7.792,17.018c4.556,0,8.248-11.357,8.248-25.362c0-12.395-2.889-22.679-6.716-24.916
					C45.912,9.401,45.045,9.352,45.045,9.352"/>
				<path fill="#4D4D4D" d="M37.226,42.806c0.005,0.046,0.01,0.091,0.016,0.136C37.236,42.897,37.231,42.852,37.226,42.806
					 M48.466,13.512c2.532,3.871,4.272,11.909,4.272,21.192c0,0.007,0,0.014,0,0.021c0,0.005,0,0.01,0,0.015
					c0,13.041-3.438,23.625-7.68,23.625c-1.062,0-2.073-0.662-2.993-1.859c-2.099-2.715-3.725-8.209-4.387-14.983l-0.401,1.751
					c-0.009-0.074-0.018-0.147-0.024-0.224c1.122,9.906,4.188,17.018,7.792,17.018c4.556,0,8.248-11.357,8.248-25.362
					c0-9.629-1.743-17.984-4.315-22.283L48.466,13.512z"/>
				<path fill="#666666" d="M37.529,39.732c-0.005,0.003-0.01,0.004-0.016,0.004h-0.555c0.067,1.049,0.158,2.074,0.268,3.07
					c0.005,0.046,0.01,0.091,0.016,0.136c0.004,0.036,0.009,0.072,0.013,0.107c0.008,0.075,0.017,0.148,0.024,0.224l0.401-1.751
					C37.622,40.934,37.572,40.338,37.529,39.732"/>
				<path fill="#CCCCCC" d="M45.045,9.352c-3.913,0-7.192,8.378-8.038,19.62h0.506c0.024,0,0.047,0.028,0.063,0.074
					c0.795-9.944,3.637-17.421,7.071-17.962L45.045,9.352"/>
				<path fill="#1A1A1A" d="M45.048,11.053c-0.134,0-0.268,0.011-0.399,0.03c-3.436,0.541-6.276,8.019-7.071,17.962
					c0.017,0.046,0.026,0.109,0.026,0.178v10.26c0,0.12-0.032,0.226-0.075,0.248c0.043,0.605,0.095,1.202,0.151,1.79
					c0.662,6.774,2.288,12.27,4.387,14.983c-1.511-1.967-2.773-5.378-3.607-9.669l0.889-2.933c-0.47-2.748-0.736-5.879-0.736-9.2
					c0-10.917,2.882-19.772,6.436-19.772c0.025,0,0.053,0,0.079,0.001c0.007,0,0.014,0.001,0.021,0.001
					c0.021,0.001,0.039,0.002,0.06,0.003c0.008,0.001,0.017,0.001,0.023,0.002c0.02,0.001,0.037,0.003,0.058,0.005
					c0.006,0.001,0.013,0.001,0.02,0.002c0.021,0.002,0.041,0.005,0.063,0.008c0.005,0.001,0.011,0.002,0.018,0.002
					c0.647,0.104,1.271,0.5,1.854,1.152l-0.002-0.001c0.132,0.146,0.262,0.306,0.389,0.478l0.89-2.934
					c2.505,3.886,4.224,11.862,4.226,21.072c0-0.008,0-0.015,0-0.021C52.74,21.646,49.296,11.053,45.048,11.053"/>
				<path fill="#333333" d="M48.515,13.654l-0.89,2.934c2.268,3.059,3.853,10.021,3.853,18.117c0,10.926-2.881,19.782-6.433,19.782
					c-2.475,0-4.621-4.29-5.698-10.582l-0.889,2.933c0.834,4.291,2.098,7.702,3.607,9.669c0.92,1.197,1.933,1.859,2.993,1.859
					c4.242,0,7.68-10.584,7.68-23.625h-0.006h0.006c0-0.005,0-0.01,0-0.015C52.738,25.516,51.02,17.54,48.515,13.654"/>
				<path fill="#999999" d="M45.366,14.956c0.005,0.001,0.011,0.002,0.018,0.002C45.377,14.958,45.371,14.957,45.366,14.956
					 M45.284,14.946c0.006,0.001,0.013,0.001,0.02,0.002C45.297,14.947,45.29,14.947,45.284,14.946 M45.203,14.938
					c0.009,0.001,0.017,0.001,0.023,0.002C45.22,14.939,45.211,14.939,45.203,14.938 M45.124,14.933
					c0.007,0,0.014,0.001,0.021,0.001C45.138,14.934,45.131,14.934,45.124,14.933 M44.29,50.768
					c-0.521-0.839-0.878-2.52-0.878-4.453c0-2.771,0.73-5.014,1.633-5.014c0.594,0,1.112,0.972,1.396,2.425
					c0.208,0.677,0.245,1.833,0.233,2.696c-0.02,2.724-0.74,4.914-1.631,4.914c-0.228,0-0.442-0.143-0.641-0.399
					c-0.036-0.049-0.073-0.103-0.108-0.158C44.294,50.776,44.292,50.772,44.29,50.768 M47.932,39.089
					c-0.499-0.858-0.837-2.501-0.837-4.384c0-2.763,0.731-5.013,1.634-5.013c0.642,0,1.193,1.135,1.46,2.783
					c0.048,0.248,0.082,0.527,0.104,0.818c0.043,0.448,0.064,0.921,0.064,1.411c0,2.772-0.729,5.022-1.63,5.022
					c-0.031,0-0.063-0.003-0.095-0.01c-0.019-0.002-0.036-0.005-0.055-0.009c-0.227-0.055-0.438-0.243-0.624-0.54
					C47.945,39.151,47.937,39.124,47.932,39.089 M45.045,28.117c-0.901,0-1.633-2.25-1.633-5.021c0-2.772,0.73-5.014,1.633-5.014
					c0.587,0,1.103,0.955,1.39,2.389c0.003,0.007,0.005,0.015,0.007,0.023c0.003,0.012,0.008,0.035,0.012,0.066
					c0.143,0.743,0.224,1.608,0.224,2.535c0,0.064,0,0.131-0.001,0.195c0,0.064,0,0.125-0.002,0.183
					c-0.038,1.548-0.301,2.878-0.683,3.713c-0.001,0.002-0.003,0.005-0.004,0.008c-0.007,0.015-0.014,0.029-0.021,0.043
					c-0.006,0.012-0.012,0.023-0.018,0.036c-0.003,0.004-0.005,0.007-0.006,0.011C45.687,27.81,45.377,28.117,45.045,28.117
					 M45.045,14.932c-3.554,0-6.436,8.855-6.436,19.772c0,3.321,0.268,6.452,0.736,9.2c1.077,6.292,3.225,10.582,5.698,10.582
					c3.552,0,6.433-8.855,6.433-19.782c0-8.096-1.585-15.059-3.853-18.117c-0.127-0.172-0.257-0.332-0.39-0.478L45.045,14.932"/>
				<path fill="#999999" d="M45.045,14.932l2.19,1.178l0.002,0.001c-0.584-0.652-1.207-1.049-1.854-1.152
					c-0.007,0-0.013-0.001-0.018-0.002c-0.021-0.003-0.042-0.006-0.063-0.008c-0.007-0.001-0.014-0.001-0.02-0.002
					c-0.021-0.002-0.038-0.004-0.058-0.005c-0.008-0.001-0.016-0.001-0.023-0.002c-0.021-0.001-0.039-0.002-0.06-0.003
					c-0.007,0-0.014,0-0.021-0.001C45.098,14.932,45.072,14.932,45.045,14.932"/>
				<path fill="#1A1A1A" d="M45.967,27.237c-0.006,0.012-0.012,0.023-0.018,0.036C45.955,27.26,45.961,27.249,45.967,27.237
					 M45.99,27.186c-0.002,0.002-0.003,0.005-0.004,0.008C45.989,27.191,45.99,27.188,45.99,27.186 M46.452,20.56
					c0.051,0.354,0.217,1.864,0.223,2.73c0.001-0.064,0.001-0.13,0.001-0.195C46.676,22.169,46.595,21.303,46.452,20.56
					 M45.045,18.082c-0.901,0-1.633,2.241-1.633,5.014c0,2.771,0.73,5.021,1.633,5.021c0.332,0,0.642-0.307,0.898-0.833
					c-0.26,0.526-0.568,0.829-0.897,0.829c-0.041,0-0.082-0.004-0.123-0.014c-0.227-0.055-0.438-0.243-0.624-0.54
					c-0.296-0.474,1.803-7.111,2.111-7.111c0.011,0,0.019,0.008,0.023,0.022C46.148,19.036,45.632,18.082,45.045,18.082"/>
				<path fill="#1A1A1A" d="M50.293,33.294c0.049,0.616,0.051,1.283,0.037,1.798c-0.064,2.627-0.781,4.632-1.627,4.632
					c-0.023,0-0.046-0.002-0.069-0.006c0.031,0.007,0.063,0.01,0.095,0.01c0.901,0,1.63-2.25,1.63-5.022
					C50.359,34.215,50.336,33.741,50.293,33.294 M48.729,29.692c-0.901,0-1.634,2.25-1.634,5.013c0,1.883,0.338,3.525,0.837,4.384
					c-0.119-0.888,1.825-7.018,2.137-7.018c0.014,0,0.023,0.011,0.03,0.033c0.034,0.111,0.064,0.236,0.09,0.371
					C49.922,30.827,49.369,29.692,48.729,29.692"/>
				<path fill="#1A1A1A" d="M46.676,46.423c-0.001,0.095-0.003,0.186-0.006,0.271c-0.063,2.636-0.778,4.641-1.626,4.641
					c-0.041,0-0.083-0.005-0.124-0.015c-0.182-0.043-0.354-0.176-0.516-0.382c0.197,0.258,0.413,0.399,0.641,0.399
					C45.936,51.337,46.657,49.146,46.676,46.423 M45.045,41.302c-0.901,0-1.633,2.241-1.633,5.014c0,1.935,0.355,3.614,0.878,4.453
					c-0.264-0.56,1.796-7.088,2.118-7.088c0.014,0,0.022,0.011,0.029,0.033c0.002,0.004,0.003,0.009,0.004,0.013
					C46.157,42.273,45.639,41.302,45.045,41.302"/>
				<path fill="#333333" d="M46.41,20.448c-0.31,0-2.407,6.639-2.111,7.111c0.188,0.297,0.397,0.485,0.624,0.54
					c0.041,0.01,0.082,0.014,0.123,0.014c0.329,0,0.639-0.303,0.897-0.829c0.001-0.003,0.003-0.007,0.006-0.011
					c0.006-0.013,0.012-0.024,0.018-0.036c0.007-0.014,0.014-0.029,0.021-0.043c0.001-0.002,0.003-0.005,0.004-0.008
					c0.382-0.834,0.645-2.165,0.683-3.713c0.002-0.058,0.002-0.118,0.002-0.183c-0.006-0.866-0.172-2.376-0.223-2.73
					c-0.004-0.031-0.009-0.055-0.012-0.066c-0.002-0.01-0.004-0.018-0.007-0.023C46.429,20.455,46.421,20.448,46.41,20.448"/>
				<path fill="#333333" d="M50.069,32.071c-0.312,0-2.256,6.13-2.137,7.018c0.005,0.035,0.013,0.063,0.023,0.08
					c0.188,0.297,0.397,0.485,0.624,0.54c0.019,0.004,0.037,0.007,0.055,0.009c0.023,0.004,0.046,0.006,0.069,0.006
					c0.846,0,1.563-2.005,1.627-4.632c0.014-0.516,0.012-1.182-0.037-1.798c-0.022-0.291-0.058-0.57-0.104-0.818
					c-0.024-0.135-0.056-0.26-0.09-0.371C50.092,32.082,50.081,32.071,50.069,32.071"/>
				<path fill="#333333" d="M46.408,43.68c-0.322,0-2.382,6.528-2.118,7.088c0.002,0.004,0.004,0.008,0.006,0.011
					c0.035,0.057,0.072,0.109,0.108,0.158c0.16,0.206,0.334,0.339,0.516,0.382c0.041,0.01,0.083,0.015,0.124,0.015
					c0.848,0,1.563-2.005,1.626-4.641c0.003-0.085,0.005-0.176,0.006-0.271c0.012-0.863-0.025-2.021-0.233-2.696
					c-0.001-0.004-0.002-0.009-0.004-0.013C46.432,43.691,46.422,43.68,46.408,43.68"/>
				<path fill="#999999" d="M37.513,28.972h-0.506h-0.814c-0.047,0-0.088,0.116-0.088,0.252v10.26c0,0.136,0.041,0.252,0.088,0.252
					h0.767h0.555c0.006,0,0.011-0.001,0.016-0.004c0.043-0.022,0.075-0.128,0.075-0.248v-10.26c0-0.068-0.011-0.132-0.026-0.178
					C37.562,29.001,37.537,28.972,37.513,28.972"/>
			</g>
		</g>
	</g>
</g>
</svg>
