<?xml version="1.0" encoding="UTF-8" standalone="no"?>
<svg
   xmlns:svg="http://www.w3.org/2000/svg"
   xmlns="http://www.w3.org/2000/svg"
   version="1.2" baseProfile="tiny"
   width="10mm"
   height="29.88mm"
   id="svg2">
  <g
     id="layer12"
     style="display:inline"
     transform="matrix(0.3543307,0,0,0.3543307,2.7853936e-6,-267.00893)">
    <g
       transform="matrix(4.5955649,0,0,4.5955649,-919.6185,294.09397)"
       id="breadboard">
      <rect
         width="3"
         height="30"
         x="203.5"
         y="135"
         id="rect10774"
         style="fill:#b3b3b3" />
      <rect
         width="3"
         height="30"
         x="213.5"
         y="135"
         id="rect10776"
         style="fill:#b3b3b3" />
      <rect
         width="3"
         height="10"
         x="203.5"
         y="125"
         id="rect10791"
         style="fill:#b3b3b3" />
      <rect
         width="3"
         height="10"
         x="213.5"
         y="125"
         id="rect10793"
         style="fill:#b3b3b3" />
      <path
         d="M 220.07,118.28 L 220.07,109.96 C 220.07,104.45 215.6,99.98 210.09,99.98 C 204.58,99.98 200.11,104.45 200.11,109.96 L 200.11,129.17 C 202.19,131.49 205.88,133.05 210.09,133.05 C 216.6,133.05 221.87,129.36 221.87,124.8 L 221.87,122.65 C 221.88,121.05 221.21,119.55 220.07,118.28 z"
         id="path10810"
         style="opacity:0.31000001;fill:#e60000" />
      <path
         d="M 220.07,118.28 L 220.07,109.96 C 220.07,104.45 215.6,99.98 210.09,99.98 C 204.58,99.98 200.11,104.45 200.11,109.96 L 200.11,129.17 C 202.19,131.49 205.88,133.05 210.09,133.05 C 216.6,133.05 221.87,129.36 221.87,124.8 L 221.87,122.65 C 221.88,121.05 221.21,119.55 220.07,118.28 z"
         id="path10819"
         style="opacity:0.5;fill:#e6e6e6" />
      <path
         d="M 220.07,118.28 L 220.07,122.65 C 220.07,126.51 215.6,129.63 210.09,129.63 C 204.58,129.63 200.11,126.5 200.11,122.65 L 200.11,127.02 L 200.11,129.17 C 202.19,131.49 205.88,133.05 210.09,133.05 C 216.6,133.05 221.87,129.36 221.87,124.8 L 221.87,122.65 C 221.88,121.05 221.21,119.55 220.07,118.28 z"
         id="path10826"
         style="opacity:0.9;fill:#d1d1d1" />
      <path
         d="M 220.07,118.28 L 220.07,122.65 C 220.07,126.51 215.6,129.63 210.09,129.63 C 204.58,129.63 200.11,126.5 200.11,122.65 L 200.11,127.02 L 200.11,129.17 C 202.19,131.49 205.88,133.05 210.09,133.05 C 216.6,133.05 221.87,129.36 221.87,124.8 L 221.87,122.65 C 221.88,121.05 221.21,119.55 220.07,118.28 z"
         id="path10835"
         style="opacity:0.7;fill:#e60000" />
      <path
         d="M 220.07,118.28 L 220.07,122.65 C 220.07,126.51 215.6,129.63 210.09,129.63 C 204.58,129.63 200.11,126.5 200.11,122.65 L 200.11,127.02 C 202.19,129.34 205.88,130.9 210.09,130.9 C 216.6,130.9 221.87,127.21 221.87,122.65 C 221.88,121.05 221.21,119.55 220.07,118.28 z"
         id="path10844"
         style="opacity:0.23999999" />
      <ellipse
         cx="210.10001"
         cy="122.65"
         rx="9.9799995"
         ry="6.98"
         id="ellipse10853"
         style="opacity:0.25;fill:#e6e6e6"/>
      <ellipse
         cx="210.10001"
         cy="122.65"
         rx="9.9799995"
         ry="6.98"
         id="ellipse10862"
         style="opacity:0.25;fill:#e60000"/>
      <g
         id="g10871">
        <polygon
           points="203.22,113.56 203.22,122.65 204.62,122.65 204.62,118.41 208.59,118.41 214.22,112.37 204.92,112.37 203.22,113.56 "
           id="polygon10873"
           style="fill:#666666" />
        <polygon
           points="215.29,111.98 215.91,112.69 210.55,118.41 215.69,118.41 215.69,122.65 216.98,122.65 216.98,111.98 215.29,111.98 "
           id="polygon10875"
           style="fill:#666666" />
      </g>
      <path
         d="M 220.07,118.28 L 220.07,109.96 C 220.07,104.45 215.6,99.98 210.09,99.98 C 204.58,99.98 200.11,104.45 200.11,109.96 L 200.11,129.17 C 202.19,131.49 205.88,133.05 210.09,133.05 C 216.6,133.05 221.87,129.36 221.87,124.8 L 221.87,122.65 C 221.88,121.05 221.21,119.55 220.07,118.28 z"
         id="path10898"
         style="opacity:0.65;fill:#e60000" />
      <path
         d="M 214.75,105.26 L 216.78,104.88 C 215.6,103.28 213.85,102.12 211.8,101.73 L 212.15,103.25 C 213.21,103.63 214.12,104.35 214.75,105.26 z"
         id="path10905"
         style="opacity:0.5;fill:#ffffff" />
      <path
         d="M 201.2,128.03 L 201.2,130.18 C 202.12,130.92 203.21,131.55 204.45,132.03 L 204.45,129.88 C 203.21,129.41 202.12,128.78 201.2,128.03 z"
         id="path10907"
         style="opacity:0.5;fill:#ffffff" />
      <path
         d="M 215.71,128.43 C 215.35,128.6 214.96,128.75 214.57,128.89 C 214.49,128.92 214.4,128.95 214.32,128.97 C 213.53,129.23 212.68,129.42 211.79,129.52 C 211.68,129.53 211.58,129.54 211.47,129.55 C 211.02,129.59 210.57,129.62 210.1,129.62 C 209.89,129.62 209.67,129.61 209.44,129.59 C 207.74,129.51 206.16,129.15 204.8,128.55 L 204.8,116.74 L 204.8,109.95 C 204.8,107.88 205.99,106.11 207.72,105.23 L 207.69,105.16 L 205.93,103.03 C 203.58,104.45 202,107 202,109.95 L 202,126.71 C 201.93,126.64 201.56,126.28 201.33,125.97 L 200.9,126.94 C 202.88,129.03 206.26,130.41 210.11,130.41 C 212.48,130.41 214.66,129.89 216.46,129 L 215.71,128.43 C 215.71,128.43 215.71,128.43 215.71,128.43 z"
         id="path10935"
         style="opacity:0.5;fill:#ffffff" />
    </g>
  </g>
</svg>
