<?xml version="1.0" encoding="utf-8"?>
<!DOCTYPE svg PUBLIC "-//W3C//DTD SVG 1.1 Basic//EN" "http://www.w3.org/Graphics/SVG/1.1/DTD/svg11-basic.dtd">
<svg version="1.1" baseProfile="basic" id="svg" xmlns:xml="http://www.w3.org/XML/1998/namespace"
	 xmlns="http://www.w3.org/2000/svg" xmlns:xlink="http://www.w3.org/1999/xlink" x="0px" y="0px" width="0.7292in"
	 height="1.016in" viewBox="0.032 0.047 52.504 73.214" xml:space="preserve">
<rect id="connector0pin" x="0.033" y="6.758" fill="none" width="3.142" height="2.137"/>
<rect id="connector0terminal" x="0.032" y="6.758" fill="none" width="0.399" height="2.137"/>
<rect id="connector1pin" x="0.033" y="13.962" fill="none" width="3.142" height="2.135"/>
<rect id="connector1terminal" x="0.032" y="13.962" fill="none" width="0.399" height="2.135"/>
<rect id="connector2pin" x="0.034" y="21.124" fill="none" width="3.142" height="2.155"/>
<rect id="connector2terminal" x="0.033" y="21.124" fill="none" width="0.399" height="2.155"/>
<rect id="connector3pin" x="0.033" y="28.344" fill="none" width="3.142" height="2.138"/>
<rect id="connector3terminal" x="0.032" y="28.344" fill="none" width="0.399" height="2.138"/>
<rect id="connector4pin" x="0.034" y="35.505" fill="none" width="3.142" height="2.155"/>
<rect id="connector4terminal" x="0.033" y="35.505" fill="none" width="0.399" height="2.155"/>
<rect id="connector5pin" x="0.033" y="42.734" fill="none" width="3.142" height="2.136"/>
<rect id="connector5terminal" x="0.032" y="42.734" fill="none" width="0.399" height="2.136"/>
<rect id="connector6pin" x="0.034" y="49.895" fill="none" width="3.142" height="2.152"/>
<rect id="connector6terminal" x="0.033" y="49.895" fill="none" width="0.399" height="2.152"/>
<rect id="connector7pin" x="0.033" y="57.115" fill="none" width="3.142" height="2.14"/>
<rect id="connector7terminal" x="0.032" y="57.115" fill="none" width="0.399" height="2.14"/>
<rect id="connector8pin" x="0.034" y="64.277" fill="none" width="3.142" height="2.155"/>
<rect id="connector8terminal" x="0.033" y="64.277" fill="none" width="0.399" height="2.155"/>
<rect id="connector17pin" x="49.39" y="6.758" fill="none" width="3.142" height="2.137"/>
<rect id="connector17terminal" x="52.13" y="6.758" fill="none" width="0.399" height="2.137"/>
<rect id="connector16pin" x="49.39" y="13.962" fill="none" width="3.142" height="2.135"/>
<rect id="connector16terminal" x="52.13" y="13.962" fill="none" width="0.399" height="2.135"/>
<rect id="connector15pin" x="49.386" y="21.124" fill="none" width="3.142" height="2.155"/>
<rect id="connector15terminal" x="52.129" y="21.124" fill="none" width="0.396" height="2.155"/>
<rect id="connector14pin" x="49.39" y="28.344" fill="none" width="3.142" height="2.138"/>
<rect id="connector14terminal" x="52.13" y="28.344" fill="none" width="0.399" height="2.138"/>
<rect id="connector13pin" x="49.386" y="35.505" fill="none" width="3.142" height="2.155"/>
<rect id="connector13terminal" x="52.129" y="35.505" fill="none" width="0.396" height="2.155"/>
<rect id="connector12pin" x="49.39" y="42.734" fill="none" width="3.142" height="2.136"/>
<rect id="connector12terminal" x="52.13" y="42.734" fill="none" width="0.399" height="2.136"/>
<rect id="connector11pin" x="49.386" y="49.895" fill="none" width="3.142" height="2.152"/>
<rect id="connector11terminal" x="52.129" y="49.895" fill="none" width="0.396" height="2.152"/>
<rect id="connector10pin" x="49.39" y="57.115" fill="none" width="3.142" height="2.14"/>
<rect id="connector10terminal" x="52.13" y="57.115" fill="none" width="0.399" height="2.14"/>
<rect id="connector9pin" x="49.386" y="64.277" fill="none" width="3.142" height="2.155"/>
<rect id="connector9terminal" x="52.129" y="64.277" fill="none" width="0.396" height="2.155"/>
<g id="breadboard">
	<g id="rounded_pins">
		<g>
			<path fill="#919191" d="M3.175,7.607c0-0.467-0.383-0.851-0.85-0.851H0.883c-0.468,0-0.85,0.384-0.85,0.851v0.438
				c0,0.468,0.382,0.852,0.85,0.852h1.442c0.467,0,0.85-0.384,0.85-0.852V7.607z"/>
		</g>
		<g>
			<path fill="#919191" d="M3.175,14.811c0-0.472-0.383-0.854-0.85-0.854H0.883c-0.468,0-0.85,0.382-0.85,0.854v0.438
				c0,0.468,0.382,0.853,0.85,0.853h1.442c0.467,0,0.85-0.385,0.85-0.853V14.811z"/>
		</g>
		<g>
			<path fill="#919191" d="M0.034,22.428c0,0.469,0.382,0.854,0.85,0.854h1.442c0.467,0,0.85-0.386,0.85-0.854v-0.456
				c0-0.471-0.383-0.854-0.85-0.854H0.884c-0.468,0-0.85,0.383-0.85,0.854V22.428z"/>
		</g>
		<g>
			<path fill="#919191" d="M3.175,29.194c0-0.469-0.383-0.854-0.85-0.854H0.883c-0.468,0-0.85,0.385-0.85,0.854v0.438
				c0,0.47,0.382,0.854,0.85,0.854h1.442c0.467,0,0.85-0.384,0.85-0.854V29.194z"/>
		</g>
		<g>
			<path fill="#919191" d="M0.034,36.811c0,0.472,0.382,0.854,0.85,0.854h1.442c0.467,0,0.85-0.382,0.85-0.854v-0.456
				c0-0.468-0.383-0.854-0.85-0.854H0.884c-0.468,0-0.85,0.386-0.85,0.854V36.811z"/>
		</g>
		<g>
			<path fill="#919191" d="M3.175,43.585c0-0.472-0.383-0.854-0.85-0.854H0.883c-0.468,0-0.85,0.382-0.85,0.854v0.438
				c0,0.469,0.382,0.853,0.85,0.853h1.442c0.467,0,0.85-0.384,0.85-0.853V43.585z"/>
		</g>
		<g>
			<path fill="#919191" d="M0.034,51.202c0,0.468,0.382,0.853,0.85,0.853h1.442c0.467,0,0.85-0.385,0.85-0.853v-0.456
				c0-0.472-0.383-0.854-0.85-0.854H0.884c-0.468,0-0.85,0.383-0.85,0.854V51.202z"/>
		</g>
		<g>
			<path fill="#919191" d="M3.175,57.966c0-0.472-0.383-0.854-0.85-0.854H0.883c-0.468,0-0.85,0.383-0.85,0.854v0.438
				c0,0.467,0.382,0.854,0.85,0.854h1.442c0.467,0,0.85-0.387,0.85-0.854V57.966z"/>
		</g>
		<g>
			<path fill="#919191" d="M0.034,65.584c0,0.467,0.382,0.853,0.85,0.853h1.442c0.467,0,0.85-0.386,0.85-0.853v-0.457
				c0-0.471-0.383-0.854-0.85-0.854H0.884c-0.468,0-0.85,0.383-0.85,0.854V65.584z"/>
		</g>
		<g>
			<path fill="#919191" d="M50.237,6.758c-0.465,0-0.853,0.384-0.853,0.851v0.438c0,0.468,0.388,0.852,0.853,0.852h1.441
				c0.469,0,0.854-0.384,0.854-0.852V7.607c0-0.467-0.385-0.851-0.854-0.851L50.237,6.758L50.237,6.758z"/>
		</g>
		<g>
			<path fill="#919191" d="M49.39,15.247c0,0.468,0.384,0.85,0.849,0.85h1.443c0.467,0,0.854-0.382,0.854-0.85V14.81
				c0-0.472-0.387-0.854-0.854-0.854h-1.443c-0.465,0-0.849,0.382-0.849,0.854V15.247z"/>
		</g>
		<g>
			<path fill="#919191" d="M52.528,21.972c0-0.471-0.383-0.854-0.854-0.854h-1.439c-0.465,0-0.853,0.383-0.853,0.854v0.456
				c0,0.469,0.388,0.854,0.853,0.854h1.439c0.471,0,0.854-0.386,0.854-0.854V21.972z"/>
		</g>
		<g>
			<path fill="#919191" d="M49.39,29.629c0,0.467,0.384,0.853,0.849,0.853h1.443c0.467,0,0.854-0.386,0.854-0.853V29.19
				c0-0.47-0.387-0.853-0.854-0.853h-1.443c-0.465,0-0.849,0.383-0.849,0.853V29.629z"/>
		</g>
		<g>
			<path fill="#919191" d="M52.528,36.354c0-0.468-0.383-0.854-0.854-0.854h-1.439c-0.465,0-0.853,0.386-0.853,0.854v0.456
				c0,0.469,0.388,0.854,0.853,0.854h1.439c0.471,0,0.854-0.385,0.854-0.854V36.354z"/>
		</g>
		<g>
			<path fill="#919191" d="M49.39,44.019c0,0.472,0.384,0.854,0.849,0.854h1.443c0.467,0,0.854-0.383,0.854-0.854v-0.437
				c0-0.472-0.387-0.854-0.854-0.854h-1.443c-0.465,0-0.849,0.383-0.849,0.854V44.019z"/>
		</g>
		<g>
			<path fill="#919191" d="M52.528,50.746c0-0.472-0.383-0.854-0.854-0.854h-1.439c-0.465,0-0.853,0.383-0.853,0.854v0.456
				c0,0.468,0.388,0.853,0.853,0.853h1.439c0.471,0,0.854-0.385,0.854-0.853V50.746z"/>
		</g>
		<g>
			<path fill="#919191" d="M49.39,58.402c0,0.467,0.384,0.854,0.849,0.854h1.443c0.467,0,0.854-0.387,0.854-0.854v-0.438
				c0-0.472-0.387-0.854-0.854-0.854h-1.443c-0.465,0-0.849,0.383-0.849,0.854V58.402z"/>
		</g>
		<g>
			<path fill="#919191" d="M49.386,65.584c0,0.467,0.386,0.853,0.853,0.853h1.441c0.469,0,0.854-0.386,0.854-0.853v-0.457
				c0-0.471-0.385-0.854-0.854-0.854h-1.441c-0.467,0-0.853,0.383-0.853,0.854V65.584L49.386,65.584z"/>
		</g>
	</g>
	<polygon fill="#ADADAD" points="1.573,73.26 1.545,0.047 51.045,0.047 51.073,73.26 	"/>
	<g>
		<g>
			<polygon fill="#FF034B" points="27.031,36.071 37.328,23.043 38.094,15.767 27.793,28.798 			"/>
			<polygon fill="#FF034B" points="22.337,36.071 14.78,23.043 15.543,15.767 23.101,28.798 			"/>
			<polygon fill="#FF034B" points="26.54,40.765 34.094,53.798 33.33,61.073 25.773,48.042 			"/>
			<polygon fill="#FF034B" points="21.844,40.765 11.547,53.798 10.784,61.073 21.079,48.042 			"/>
			<polygon fill="#FF034B" points="24.403,61.061 19.71,61.061 21.844,40.765 26.54,40.765 			"/>
			<polygon fill="#FF034B" points="27.031,36.071 22.337,36.071 24.471,15.778 29.164,15.778 			"/>
			<polygon fill="#FF034B" points="24.191,40.765 24.684,36.071 13.41,36.071 10.815,38.419 12.916,40.765 			"/>
			<polygon fill="#FF034B" points="24.684,36.071 24.191,40.765 35.466,40.765 35.466,40.765 38.058,38.419 35.958,36.071 			"/>
			<path fill="#FF034B" d="M42.704,16.564c0.156-1.511-0.314-2.881-1.2-3.871l-3.668,3.319c0.128,0.145,0.2,0.338,0.176,0.557
				l-2.053,19.507l2.101,2.345l2.595-2.345L42.704,16.564z"/>
			<path fill="#FF034B" d="M33.413,60.277c-0.021,0.209-0.131,0.409-0.29,0.554l2.97,3.32c1.095-0.992,1.853-2.359,2.013-3.867
				l2.051-19.512l-2.099-2.347l-2.595,2.347L33.413,60.277z"/>
			<circle fill="#FF034B" cx="44.211" cy="63.065" r="2.688"/>
			<path fill="#FF034B" d="M10.866,60.277l2.05-19.512l-2.1-2.347l-2.595,2.347l-2.05,19.512c-0.158,1.508,0.313,2.88,1.2,3.868
				l3.668-3.323C10.912,60.683,10.841,60.487,10.866,60.277z"/>
			<path fill="#FF034B" d="M11.565,61.061c-0.211,0-0.399-0.092-0.527-0.235L7.37,64.148c0.886,0.995,2.191,1.606,3.701,1.606
				h10.491l0.494-4.693H11.565z"/>
			<path fill="#FF034B" d="M32.548,61.061H22.06l-0.495,4.693h10.489c1.511,0,2.947-0.611,4.04-1.606l-2.97-3.322
				C32.965,60.969,32.764,61.061,32.548,61.061z"/>
			<path fill="#FF034B" d="M15.459,16.564c0.021-0.212,0.134-0.412,0.291-0.556l-2.972-3.321c-1.095,0.992-1.854,2.36-2.011,3.871
				l-2.052,19.51l2.099,2.343l2.594-2.343L15.459,16.564z"/>
			<path fill="#FF034B" d="M37.307,15.778c0.211,0,0.397,0.091,0.527,0.232l3.668-3.32c-0.883-0.995-2.191-1.607-3.7-1.607H27.309
				l-0.49,4.694L37.307,15.778L37.307,15.778z"/>
			<path fill="#FF034B" d="M16.327,15.778h10.489l0.493-4.694H16.82c-1.508,0-2.944,0.612-4.041,1.608l2.971,3.319
				C15.91,15.867,16.113,15.778,16.327,15.778z"/>
		</g>
		<g opacity="0.29">
			<path fill="#4D4D4D" d="M37.519,17.176l-0.601,5.699l-9.313,11.787l0.603-5.697L37.519,17.176 M38.094,15.767l-10.299,13.03
				l-0.763,7.275l10.292-13.027L38.094,15.767L38.094,15.767z"/>
			<path fill="#4D4D4D" d="M15.829,17.102l6.836,11.787l-0.615,5.846l-6.836-11.788L15.829,17.102 M15.543,15.767l-0.764,7.278
				l7.559,13.027l0.763-7.274L15.543,15.767L15.543,15.767z"/>
			<path fill="#4D4D4D" d="M26.826,42.104l6.835,11.786l-0.612,5.845l-6.841-11.789L26.826,42.104 M26.54,40.765l-0.764,7.275
				l7.559,13.026l0.767-7.274L26.54,40.765L26.54,40.765z"/>
			<path fill="#4D4D4D" d="M21.27,42.174l-0.6,5.698l-9.315,11.792l0.6-5.698L21.27,42.174 M21.844,40.765L11.546,53.795
				l-0.764,7.272l10.297-13.026L21.844,40.765L21.844,40.765z"/>
			<path fill="#4D4D4D" d="M26.069,41.19l-2.045,19.447h-3.841l2.044-19.446L26.069,41.19 M26.54,40.765h-4.692l-2.135,20.294h4.696
				L26.54,40.765L26.54,40.765z"/>
			<path fill="#4D4D4D" d="M28.696,16.203l-2.043,19.446h-3.841l2.043-19.446H28.696 M29.164,15.778h-4.693l-2.131,20.293h4.693
				L29.164,15.778L29.164,15.778z"/>
			<path fill="#4D4D4D" d="M24.213,36.495l-0.406,3.851H13.104l-1.694-1.897l2.162-1.955L24.213,36.495 M24.684,36.071H13.41
				l-2.595,2.343l2.1,2.349h11.273L24.684,36.071L24.684,36.071z"/>
			<path fill="#4D4D4D" d="M35.768,36.495l1.693,1.897l-2.162,1.955H24.656l0.406-3.85L35.768,36.495 M35.958,36.071H24.684
				l-0.493,4.696h11.273l2.595-2.346L35.958,36.071L35.958,36.071z"/>
			<path fill="#4D4D4D" d="M41.457,13.303c0.657,0.9,0.952,2.026,0.825,3.214l-2.033,19.347l-2.159,1.954l-1.688-1.893L38.433,16.6
				c0.019-0.173-0.005-0.347-0.066-0.509L41.457,13.303 M41.502,12.692l-3.671,3.319c0.131,0.145,0.199,0.338,0.177,0.556
				l-2.054,19.508l2.102,2.347l2.597-2.347l2.05-19.509C42.86,15.05,42.389,13.68,41.502,12.692L41.502,12.692z"/>
			<path fill="#4D4D4D" d="M38.029,39.018l1.688,1.893l-2.03,19.323c-0.13,1.228-0.685,2.385-1.57,3.304l-2.442-2.727
				c0.088-0.153,0.143-0.318,0.158-0.488l2.031-19.348L38.029,39.018 M38.058,38.419l-2.595,2.347l-2.051,19.512
				c-0.021,0.209-0.133,0.409-0.29,0.554l2.969,3.32c1.096-0.992,1.854-2.359,2.011-3.867l2.052-19.512L38.058,38.419L38.058,38.419
				z"/>
			<path fill="#4D4D4D" d="M44.211,60.8c1.25,0,2.264,1.016,2.264,2.266c0,1.248-1.014,2.262-2.264,2.262
				c-1.251,0-2.265-1.014-2.265-2.262C41.946,61.815,42.962,60.8,44.211,60.8 M44.211,60.378c-1.485,0-2.69,1.203-2.69,2.69
				c0,1.484,1.205,2.689,2.69,2.689s2.688-1.205,2.688-2.689C46.899,61.581,45.697,60.378,44.211,60.378L44.211,60.378z"/>
			<path fill="#4D4D4D" d="M10.784,39.018l1.691,1.894l-2.031,19.323c-0.019,0.174,0.003,0.344,0.061,0.511l-3.087,2.788
				c-0.657-0.897-0.952-2.025-0.826-3.212l2.034-19.349L10.784,39.018 M10.815,38.419l-2.595,2.347L6.171,60.277
				c-0.158,1.508,0.313,2.88,1.2,3.868l3.668-3.323c-0.127-0.143-0.198-0.336-0.176-0.552l2.051-19.511L10.815,38.419L10.815,38.419
				z"/>
			<path fill="#4D4D4D" d="M11.07,61.37c0.153,0.07,0.324,0.111,0.496,0.111h10.023l-0.405,3.849H11.072
				c-1.188,0-2.271-0.411-3.09-1.167L11.07,61.37 M11.039,60.83L7.37,64.15c0.886,0.995,2.191,1.607,3.701,1.607h10.491l0.494-4.694
				H11.563C11.355,61.061,11.167,60.969,11.039,60.83L11.039,60.83z"/>
			<path fill="#4D4D4D" d="M33.048,61.377l2.438,2.728c-1.006,0.794-2.209,1.228-3.436,1.228h-10.02l0.404-3.849h10.109
				C32.72,61.483,32.888,61.447,33.048,61.377 M33.125,60.83c-0.156,0.142-0.36,0.233-0.574,0.233H22.062l-0.495,4.694h10.489
				c1.511,0,2.947-0.612,4.039-1.607L33.125,60.83L33.125,60.83z"/>
			<path fill="#4D4D4D" d="M12.758,13.3l2.44,2.728c-0.084,0.154-0.141,0.317-0.159,0.49l-2.032,19.347l-2.159,1.954l-1.691-1.893
				l2.032-19.324C11.316,15.384,11.869,14.224,12.758,13.3 M12.779,12.692c-1.095,0.992-1.854,2.36-2.011,3.871L8.715,36.07
				l2.099,2.343l2.594-2.343l2.051-19.511c0.021-0.212,0.134-0.41,0.291-0.553L12.779,12.692L12.779,12.692z"/>
			<path fill="#4D4D4D" d="M37.8,11.509c1.188,0,2.271,0.411,3.093,1.164l-3.091,2.793c-0.152-0.069-0.324-0.111-0.495-0.111h-10.02
				l0.405-3.852L37.8,11.509 M37.8,11.084H27.309l-0.49,4.694h10.488c0.211,0,0.397,0.091,0.527,0.232l3.668-3.32
				C40.618,11.698,39.311,11.084,37.8,11.084L37.8,11.084z"/>
			<path fill="#4D4D4D" d="M26.837,11.509l-0.404,3.847H16.325c-0.171,0-0.339,0.038-0.498,0.108l-2.441-2.729
				c1.006-0.791,2.212-1.227,3.434-1.227L26.837,11.509 M27.309,11.084h-10.49c-1.508,0-2.944,0.612-4.041,1.608l2.971,3.319
				c0.158-0.141,0.362-0.232,0.575-0.232h10.49L27.309,11.084L27.309,11.084z"/>
		</g>
	</g>
</g>
</svg>
