<?xml version="1.0" encoding="UTF-8" standalone="no"?>
<!-- Created with Inkscape (http://www.inkscape.org/) -->

<svg
   xmlns:svg="http://www.w3.org/2000/svg"
   xmlns="http://www.w3.org/2000/svg"
   xmlns:inkscape="http://www.inkscape.org/namespaces/inkscape"
   version="1.2"
   width="0.40000001in"
   height="0.33000001in"
   viewBox="0 0 40 33"
   id="svg2"
   xml:space="preserve"><defs
   id="defs3460"><inkscape:perspective
     id="perspective2900" /><inkscape:perspective
     id="perspective3464" /></defs>

<g
   id="breadboard">
  <rect
   width="40"
   height="27"
   x="0"
   y="3"
   id="middle"
   style="fill:#303030" />
  <rect
   width="40"
   height="2.46"
   x="0"
   y="3"
   id="top"
   style="fill:#3d3d3d" />
  <rect
   width="40"
   height="2.46"
   x="0"
   y="27.540001"
   id="bottom"
   style="fill:#000000" />
	<polygon
   points="39.25,5.46 39.25,27.54 40,30 40,3 "
   id="right"
   style="fill:#141414" /> 
	<polygon
   points="0.75,5.46 0.75,27.54 0,30 0,3 "
   id="left"
   style="fill:#1f1f1f" />
  
	<polygon
   points="0.75,11.46 0.56,13.58 0.56,16.5 5,16.5 5,11.5 "
   id="left-upper-rect"
   style="fill:#1c1c1c" />
	<polygon
   points="5,21.55 5,16.5 0.56,16.5 0.56,19.42 0.75,21.55 "
   id="left-lower-rect"
   style="fill:#383838" />

  <path
   d="m 0.56,13.58 v 5.83 c 1.47,-0.17 2.62,-1.4 2.62,-2.92 0,-1.52 -1.14,-2.74 -2.62,-2.91 z"
   id="slot"
   style="fill:#262626" />
  <path
   d="m 0.75,5.46 v 5.99 c 2.38,0.45 4.19,2.53 4.19,5.04 0,2.51 -1.8,4.6 -4.19,5.05 v 0.01 h 5 V 5.46 h -5 z"
   id="cover"
   style="fill:#303030" />
  
	<circle
   cx="6.5"
   cy="23.469999"
   r="2.0599999"
   id="circle3423"
   style="fill:#212121" />
 
  <text
   x="5.3135319"
   y="23.34194"
   id="label"
   style="font-size:8px;text-align:start;line-height:125%;writing-mode:lr-tb;text-anchor:start;fill:#e6e6e6;stroke:none;font-family:OCRA"><tspan
     x="5.3135319"
     y="23.34194"
     id="tspan2952">128</tspan></text>










	<rect
   width="3"
   height="4.3400002"
   x="3.5"
   y="28.66"
   id="connector0pin"
   style="fill:#8c8c8c" />
  <rect
   width="3"
   height="3"
   x="3.5"
   y="30"
   id="connector0terminal"
   style="fill:#8c8c8c" />
	<polygon
   points="3.5,30.66 6.5,30.66 8.5,29.74 8.5,28.66 3.5,28.66 "
   id="polygon3428"
   style="fill:#8c8c8c" />
  <rect
   width="3"
   height="4.3400002"
   x="3.5"
   y="0"
   id="connector7pin"
   style="fill:#8c8c8c" />
  <rect
   width="3"
   height="3"
   x="3.5"
   y="0"
   id="connector7terminal"
   style="fill:#8c8c8c" />
	<polygon
   points="8.5,3.26 6.5,2.34 3.5,2.34 3.5,4.34 8.5,4.34 "
   id="polygon3432"
   style="fill:#8c8c8c" />
  <rect
   width="3"
   height="4.3400002"
   x="33.5"
   y="28.66"
   id="connector3pin"
   style="fill:#8c8c8c" />
  <rect
   width="3"
   height="3"
   x="33.5"
   y="30"
   id="connector3terminal"
   style="fill:#8c8c8c" />
	<polygon
   points="31.5,29.74 33.5,30.66 36.5,30.66 36.5,28.66 31.5,28.66 "
   id="polygon3436"
   style="fill:#8c8c8c" />
  <rect
   width="3"
   height="4.3400002"
   x="33.5"
   y="0"
   id="connector4pin"
   style="fill:#8c8c8c" />
  <rect
   width="3"
   height="3"
   x="33.5"
   y="0"
   id="connector4terminal"
   style="fill:#8c8c8c" />
	<polygon
   points="36.5,2.34 33.5,2.34 31.5,3.26 31.5,4.34 36.5,4.34 "
   id="polygon3440"
   style="fill:#8c8c8c" />

        <rect
   width="3"
   height="4.3400002"
   x="13.5"
   y="28.66"
   id="connector1pin"
   style="fill:#8c8c8c" />
        <rect
   width="3"
   height="3"
   x="13.5"
   y="30"
   id="connector1terminal"
   style="fill:#8c8c8c" />
        <polygon
   points="11.5,29.74 13.5,30.66 16.5,30.66 18.5,29.74 18.5,28.66 11.5,28.66 "
   id="polygon3444"
   style="fill:#8c8c8c" />            
        <rect
   width="3"
   height="4.3400002"
   x="13.5"
   y="0"
   id="connector6pin"
   style="fill:#8c8c8c" />
        <rect
   width="3"
   height="3"
   x="13.5"
   y="0"
   id="connector6terminal"
   style="fill:#8c8c8c" />
        <polygon
   points="18.5,3.26 16.5,2.34 13.5,2.34 11.5,3.26 11.5,4.34 18.5,4.34 "
   id="polygon3448"
   style="fill:#8c8c8c" />
        <rect
   width="3"
   height="4.3400002"
   x="23.5"
   y="28.66"
   id="connector2pin"
   style="fill:#8c8c8c" />
        <rect
   width="3"
   height="3"
   x="23.5"
   y="30"
   id="connector2terminal"
   style="fill:#8c8c8c" />
        <polygon
   points="21.5,29.74 23.5,30.66 26.5,30.66 28.5,29.74 28.5,28.66 21.5,28.66 "
   id="polygon3452"
   style="fill:#8c8c8c" />            
        <rect
   width="3"
   height="4.3400002"
   x="23.5"
   y="0"
   id="connector5pin"
   style="fill:#8c8c8c" />
        <rect
   width="3"
   height="3"
   x="23.5"
   y="0"
   id="connector5terminal"
   style="fill:#8c8c8c" />
        <polygon
   points="28.5,3.26 26.5,2.34 23.5,2.34 21.5,3.26 21.5,4.34 28.5,4.34 "
   id="polygon3456"
   style="fill:#8c8c8c" />
        

<text
   x="5.2038975"
   y="14.680809"
   id="label-1"
   style="font-size:8px;text-align:start;line-height:125%;writing-mode:lr-tb;text-anchor:start;fill:#e6e6e6;stroke:none;font-family:OCRA"><tspan
     x="5.2038975"
     y="14.680809"
     id="tspan2936">25LC</tspan></text>



</g>
</svg>