<?xml version='1.0' encoding='UTF-8' standalone='no'?>
<!-- Created with Fritzing (http://www.fritzing.org/) -->
<svg xmlns="http://www.w3.org/2000/svg" width="0.9in" x="0in" version="1.2" y="0in" height="0.75in" viewBox="0 0 64.8 54" baseProfile="tiny">
 <desc >Fritzing breadboard generated by brd2svg</desc>
 <g  id="breadboard" stroke-width="0">
  <g  id="icon" stroke-width="0">
   <path  fill="#C62717" stroke="none" stroke-width="0" d="M0,54L64.8,54L64.8,0L0,0L0,54M2.52,7.2a4.68,4.68,0,1,1,9.36,0,4.68,4.68,0,1,1,-9.36,0zM52.92,7.2a4.68,4.68,0,1,1,9.36,0,4.68,4.68,0,1,1,-9.36,0zM59.76,50.4a1.44,1.44,0,1,1,2.88,0,1.44,1.44,0,1,1,-2.88,0zM52.56,50.4a1.44,1.44,0,1,1,2.88,0,1.44,1.44,0,1,1,-2.88,0zM45.36,50.4a1.44,1.44,0,1,1,2.88,0,1.44,1.44,0,1,1,-2.88,0zM38.16,50.4a1.44,1.44,0,1,1,2.88,0,1.44,1.44,0,1,1,-2.88,0zM30.96,50.4a1.44,1.44,0,1,1,2.88,0,1.44,1.44,0,1,1,-2.88,0zM23.76,50.4a1.44,1.44,0,1,1,2.88,0,1.44,1.44,0,1,1,-2.88,0zM16.56,50.4a1.44,1.44,0,1,1,2.88,0,1.44,1.44,0,1,1,-2.88,0zM9.36,50.4a1.44,1.44,0,1,1,2.88,0,1.44,1.44,0,1,1,-2.88,0zM2.16,50.4a1.44,1.44,0,1,1,2.88,0,1.44,1.44,0,1,1,-2.88,0zM20.16,3.6a1.44,1.44,0,1,1,2.88,0,1.44,1.44,0,1,1,-2.88,0zM27.36,3.6a1.44,1.44,0,1,1,2.88,0,1.44,1.44,0,1,1,-2.88,0zM34.56,3.6a1.44,1.44,0,1,1,2.88,0,1.44,1.44,0,1,1,-2.88,0zM41.76,3.6a1.44,1.44,0,1,1,2.88,0,1.44,1.44,0,1,1,-2.88,0z"/>
   <g  stroke-width="0">
    <title >layer 21</title>
    <line  stroke="white" stroke-linecap="round" y1="19.728" x1="38.088" y2="13.248" stroke-width="0.576" x2="38.088"/>
    <line  stroke="white" stroke-linecap="round" y1="13.248" x1="38.088" y2="14.688" stroke-width="0.576" x2="36.648"/>
    <line  stroke="white" stroke-linecap="round" y1="13.248" x1="38.088" y2="14.688" stroke-width="0.576" x2="39.528"/>
    <line  stroke="white" stroke-linecap="round" y1="40.896" x1="38.808" y2="42.336" stroke-width="0.576" x2="40.248"/>
    <line  stroke="white" stroke-linecap="round" y1="40.896" x1="38.808" y2="39.456" stroke-width="0.576" x2="40.248"/>
    <path  fill="none" stroke="white" stroke-width="0.576" d="M40.392,18.36A2.16,2.16,0,1,0,36.072,18.36"/>
    <path  fill="none" stroke="white" stroke-width="0.576" d="M42.48,43.128A2.16,2.16,0,1,0,42.48,38.808"/>
    <line  stroke="white" stroke-linecap="round" y1="18.216" x1="39.24" y2="18.8127" stroke-width="0.72" x2="40.6684"/>
    <line  stroke="white" stroke-linecap="round" y1="18.8127" x1="40.6684" y2="17.496" stroke-width="0.72" x2="41.4"/>
    <line  stroke="white" stroke-linecap="round" y1="42.071" x1="42.7788" y2="43.2508" stroke-width="0.72" x2="41.9527"/>
    <line  stroke="white" stroke-linecap="round" y1="43.2508" x1="41.9527" y2="44.0765" stroke-width="0.72" x2="43.1325"/>
    <line  stroke="white" stroke-linecap="round" y1="40.824" x1="38.952" y2="40.824" stroke-width="0.576" x2="45.792"/>
    <line  stroke="white" stroke-linecap="round" y1="36.144" x1="61.848" y2="34.704" stroke-width="0.576" x2="60.408"/>
    <line  stroke="white" stroke-linecap="round" y1="36.144" x1="61.848" y2="37.584" stroke-width="0.576" x2="60.408"/>
    <line  stroke="white" stroke-linecap="round" y1="36.216" x1="61.704" y2="36.216" stroke-width="0.576" x2="55.728"/>
    <line  stroke="white" stroke-linecap="round" y1="45.576" x1="54.792" y2="44.136" stroke-width="0.576" x2="56.232"/>
    <line  stroke="white" stroke-linecap="round" y1="45.576" x1="54.792" y2="44.136" stroke-width="0.576" x2="53.352"/>
    <line  stroke="white" stroke-linecap="round" y1="45.432" x1="54.72" y2="39.312" stroke-width="0.576" x2="54.72"/>
    <circle  fill="none" cx="58.896" cy="41.112" stroke="white" r="0.144" stroke-width="0.576"/>
    <circle  fill="none" cx="58.896" cy="41.112" stroke="white" r="1.47713" stroke-width="0.576"/>
    <g  stroke-width="0">
     <title >text:5DOF</title>
     <g  stroke-width="0" transform="matrix(1, 0, 0, 1, 63.144, 28.368)">
      <g  stroke-width="0" transform="rotate(-90)">
       <text  x="0" y="0" font-family="OCRA" fill="white" text-anchor="start" stroke="none" stroke-width="0" font-size="5.0112">5DOF</text>
      </g>
     </g>
    </g>
    <g  stroke-width="0">
     <title >text:XR</title>
     <g  stroke-width="0" transform="matrix(1, 0, 0, 1, 39.7152, 7.992)">
      <g  stroke-width="0" transform="rotate(-90)">
       <text  x="0" y="0" font-family="OCRA" fill="white" text-anchor="end" stroke="none" stroke-width="0" font-size="2.9232">XR</text>
      </g>
     </g>
    </g>
    <g  stroke-width="0">
     <title >text:YR</title>
     <g  stroke-width="0" transform="matrix(1, 0, 0, 1, 37.296, 42.912)">
      <g  stroke-width="0" transform="rotate(-90)">
       <text  x="0" y="0" font-family="OCRA" fill="white" text-anchor="start" stroke="none" stroke-width="0" font-size="2.9232">YR</text>
      </g>
     </g>
    </g>
    <g  stroke-width="0">
     <title >text:Z</title>
     <g  stroke-width="0" transform="matrix(1, 0, 0, 1, 61.704, 45.144)">
      <g  stroke-width="0" transform="rotate(-90)">
       <text  x="0" y="0" font-family="OCRA" fill="white" text-anchor="start" stroke="none" stroke-width="0" font-size="3.3408">Z</text>
      </g>
     </g>
    </g>
    <g  stroke-width="0">
     <title >text:X</title>
     <g  stroke-width="0" transform="matrix(1, 0, 0, 1, 53.928, 42.12)">
      <g  stroke-width="0" transform="rotate(-90)">
       <text  x="0" y="0" font-family="OCRA" fill="white" text-anchor="start" stroke="none" stroke-width="0" font-size="3.3408">X</text>
      </g>
     </g>
    </g>
    <g  stroke-width="0">
     <title >text:Y</title>
     <g  stroke-width="0" transform="matrix(1, 0, 0, 1, 59.472, 35.496)">
      <g  stroke-width="0" transform="rotate(-90)">
       <text  x="0" y="0" font-family="OCRA" fill="white" text-anchor="start" stroke="none" stroke-width="0" font-size="3.3408">Y</text>
      </g>
     </g>
    </g>
    <g  stroke-width="0">
     <title >element:C2</title>
     <g  stroke-width="0">
      <title >package:0402-CAP</title>
      <line  stroke="white" stroke-linecap="round" y1="25.1135" x1="32.4" y2="25.2865" stroke-width="1.152" x2="32.4"/>
     </g>
    </g>
    <g  stroke-width="0">
     <title >element:C3</title>
     <g  stroke-width="0">
      <title >package:0402-CAP</title>
      <line  stroke="white" stroke-linecap="round" y1="16.1135" x1="46.8" y2="16.2865" stroke-width="1.152" x2="46.8"/>
     </g>
    </g>
    <g  stroke-width="0">
     <title >element:C4</title>
     <g  stroke-width="0">
      <title >package:0402-CAP</title>
      <line  stroke="white" stroke-linecap="round" y1="34.2865" x1="46.8" y2="34.1135" stroke-width="1.152" x2="46.8"/>
     </g>
    </g>
    <g  stroke-width="0">
     <title >element:C5</title>
     <g  stroke-width="0">
      <title >package:0402-CAP</title>
      <line  stroke="white" stroke-linecap="round" y1="28.8" x1="55.8865" y2="28.8" stroke-width="1.152" x2="55.7135"/>
     </g>
    </g>
    <g  stroke-width="0">
     <title >element:C6</title>
     <g  stroke-width="0">
      <title >package:0402-CAP</title>
      <line  stroke="white" stroke-linecap="round" y1="21.6" x1="55.7135" y2="21.6" stroke-width="1.152" x2="55.8865"/>
     </g>
    </g>
    <g  stroke-width="0">
     <title >element:C12</title>
     <g  stroke-width="0">
      <title >package:0402-CAP</title>
      <line  stroke="white" stroke-linecap="round" y1="21.5135" x1="32.4" y2="21.6865" stroke-width="1.152" x2="32.4"/>
     </g>
    </g>
    <g  stroke-width="0">
     <title >element:C13</title>
     <g  stroke-width="0">
      <title >package:0402-CAP</title>
      <line  stroke="white" stroke-linecap="round" y1="14.3135" x1="32.4" y2="14.4865" stroke-width="1.152" x2="32.4"/>
     </g>
    </g>
    <g  stroke-width="0">
     <title >element:C14</title>
     <g  stroke-width="0">
      <title >package:0402-CAP</title>
      <line  stroke="white" stroke-linecap="round" y1="32.3135" x1="32.4" y2="32.4865" stroke-width="1.152" x2="32.4"/>
     </g>
    </g>
    <g  stroke-width="0">
     <title >element:C16</title>
     <g  stroke-width="0">
      <title >package:0402-CAP</title>
      <line  stroke="white" stroke-linecap="round" y1="42.7535" x1="28.8" y2="42.9265" stroke-width="1.152" x2="28.8"/>
     </g>
    </g>
    <g  stroke-width="0">
     <title >element:C17</title>
     <g  stroke-width="0">
      <title >package:0402-CAP</title>
      <line  stroke="white" stroke-linecap="round" y1="39.5135" x1="28.8" y2="39.6865" stroke-width="1.152" x2="28.8"/>
     </g>
    </g>
    <g  stroke-width="0">
     <title >element:C18</title>
     <g  stroke-width="0">
      <title >package:0402-CAP</title>
      <line  stroke="white" stroke-linecap="round" y1="9.576" x1="15.5375" y2="9.576" stroke-width="1.152" x2="15.7105"/>
     </g>
    </g>
    <g  stroke-width="0">
     <title >element:C19</title>
     <g  stroke-width="0">
      <title >package:0402-CAP</title>
      <line  stroke="white" stroke-linecap="round" y1="29.304" x1="3.54246" y2="29.304" stroke-width="1.152" x2="3.36954"/>
     </g>
    </g>
    <g  stroke-width="0">
     <title >element:C20</title>
     <g  stroke-width="0">
      <title >package:EIA3216</title>
      <line  stroke="white" stroke-linecap="round" y1="36.1984" x1="13.6346" y2="36.1984" stroke-width="0.576" x2="17.8866"/>
      <line  stroke="white" stroke-linecap="round" y1="36.1984" x1="17.8866" y2="43.0016" stroke-width="0.576" x2="17.8866"/>
      <line  stroke="white" stroke-linecap="round" y1="43.0016" x1="17.8866" y2="43.0016" stroke-width="0.576" x2="13.6346"/>
      <line  stroke="white" stroke-linecap="round" y1="36.1984" x1="7.96536" y2="36.1984" stroke-width="0.576" x2="4.84724"/>
      <line  stroke="white" stroke-linecap="round" y1="36.1984" x1="4.84724" y2="37.3323" stroke-width="0.576" x2="3.71339"/>
      <line  stroke="white" stroke-linecap="round" y1="37.3323" x1="3.71339" y2="41.8677" stroke-width="0.576" x2="3.71339"/>
      <line  stroke="white" stroke-linecap="round" y1="41.8677" x1="3.71339" y2="43.0016" stroke-width="0.576" x2="4.84724"/>
      <line  stroke="white" stroke-linecap="round" y1="43.0016" x1="4.84724" y2="43.0016" stroke-width="0.576" x2="7.96536"/>
     </g>
    </g>
    <g  stroke-width="0">
     <title >element:JP1</title>
     <g  stroke-width="0">
      <title >package:1X09</title>
      <line  stroke="white" stroke-linecap="round" y1="54" x1="19.8" y2="54" stroke-width="0.576" x2="16.2"/>
      <line  stroke="white" stroke-linecap="round" y1="54" x1="16.2" y2="52.2" stroke-width="0.576" x2="14.4"/>
      <line  stroke="white" stroke-linecap="round" y1="48.6" x1="14.4" y2="46.8" stroke-width="0.576" x2="16.2"/>
      <line  stroke="white" stroke-linecap="round" y1="52.2" x1="28.8" y2="54" stroke-width="0.576" x2="27"/>
      <line  stroke="white" stroke-linecap="round" y1="54" x1="27" y2="54" stroke-width="0.576" x2="23.4"/>
      <line  stroke="white" stroke-linecap="round" y1="54" x1="23.4" y2="52.2" stroke-width="0.576" x2="21.6"/>
      <line  stroke="white" stroke-linecap="round" y1="48.6" x1="21.6" y2="46.8" stroke-width="0.576" x2="23.4"/>
      <line  stroke="white" stroke-linecap="round" y1="46.8" x1="23.4" y2="46.8" stroke-width="0.576" x2="27"/>
      <line  stroke="white" stroke-linecap="round" y1="46.8" x1="27" y2="48.6" stroke-width="0.576" x2="28.8"/>
      <line  stroke="white" stroke-linecap="round" y1="54" x1="19.8" y2="52.2" stroke-width="0.576" x2="21.6"/>
      <line  stroke="white" stroke-linecap="round" y1="48.6" x1="21.6" y2="46.8" stroke-width="0.576" x2="19.8"/>
      <line  stroke="white" stroke-linecap="round" y1="46.8" x1="16.2" y2="46.8" stroke-width="0.576" x2="19.8"/>
      <line  stroke="white" stroke-linecap="round" y1="54" x1="41.4" y2="54" stroke-width="0.576" x2="37.8"/>
      <line  stroke="white" stroke-linecap="round" y1="54" x1="37.8" y2="52.2" stroke-width="0.576" x2="36"/>
      <line  stroke="white" stroke-linecap="round" y1="48.6" x1="36" y2="46.8" stroke-width="0.576" x2="37.8"/>
      <line  stroke="white" stroke-linecap="round" y1="52.2" x1="36" y2="54" stroke-width="0.576" x2="34.2"/>
      <line  stroke="white" stroke-linecap="round" y1="54" x1="34.2" y2="54" stroke-width="0.576" x2="30.6"/>
      <line  stroke="white" stroke-linecap="round" y1="54" x1="30.6" y2="52.2" stroke-width="0.576" x2="28.8"/>
      <line  stroke="white" stroke-linecap="round" y1="48.6" x1="28.8" y2="46.8" stroke-width="0.576" x2="30.6"/>
      <line  stroke="white" stroke-linecap="round" y1="46.8" x1="30.6" y2="46.8" stroke-width="0.576" x2="34.2"/>
      <line  stroke="white" stroke-linecap="round" y1="46.8" x1="34.2" y2="48.6" stroke-width="0.576" x2="36"/>
      <line  stroke="white" stroke-linecap="round" y1="52.2" x1="50.4" y2="54" stroke-width="0.576" x2="48.6"/>
      <line  stroke="white" stroke-linecap="round" y1="54" x1="48.6" y2="54" stroke-width="0.576" x2="45"/>
      <line  stroke="white" stroke-linecap="round" y1="54" x1="45" y2="52.2" stroke-width="0.576" x2="43.2"/>
      <line  stroke="white" stroke-linecap="round" y1="48.6" x1="43.2" y2="46.8" stroke-width="0.576" x2="45"/>
      <line  stroke="white" stroke-linecap="round" y1="46.8" x1="45" y2="46.8" stroke-width="0.576" x2="48.6"/>
      <line  stroke="white" stroke-linecap="round" y1="46.8" x1="48.6" y2="48.6" stroke-width="0.576" x2="50.4"/>
      <line  stroke="white" stroke-linecap="round" y1="54" x1="41.4" y2="52.2" stroke-width="0.576" x2="43.2"/>
      <line  stroke="white" stroke-linecap="round" y1="48.6" x1="43.2" y2="46.8" stroke-width="0.576" x2="41.4"/>
      <line  stroke="white" stroke-linecap="round" y1="46.8" x1="37.8" y2="46.8" stroke-width="0.576" x2="41.4"/>
      <line  stroke="white" stroke-linecap="round" y1="54" x1="63" y2="54" stroke-width="0.576" x2="59.4"/>
      <line  stroke="white" stroke-linecap="round" y1="54" x1="59.4" y2="52.2" stroke-width="0.576" x2="57.6"/>
      <line  stroke="white" stroke-linecap="round" y1="48.6" x1="57.6" y2="46.8" stroke-width="0.576" x2="59.4"/>
      <line  stroke="white" stroke-linecap="round" y1="52.2" x1="57.6" y2="54" stroke-width="0.576" x2="55.8"/>
      <line  stroke="white" stroke-linecap="round" y1="54" x1="55.8" y2="54" stroke-width="0.576" x2="52.2"/>
      <line  stroke="white" stroke-linecap="round" y1="54" x1="52.2" y2="52.2" stroke-width="0.576" x2="50.4"/>
      <line  stroke="white" stroke-linecap="round" y1="48.6" x1="50.4" y2="46.8" stroke-width="0.576" x2="52.2"/>
      <line  stroke="white" stroke-linecap="round" y1="46.8" x1="52.2" y2="46.8" stroke-width="0.576" x2="55.8"/>
      <line  stroke="white" stroke-linecap="round" y1="46.8" x1="55.8" y2="48.6" stroke-width="0.576" x2="57.6"/>
      <line  stroke="white" stroke-linecap="round" y1="52.2" x1="64.8" y2="48.6" stroke-width="0.576" x2="64.8"/>
      <line  stroke="white" stroke-linecap="round" y1="54" x1="63" y2="52.2" stroke-width="0.576" x2="64.8"/>
      <line  stroke="white" stroke-linecap="round" y1="48.6" x1="64.8" y2="46.8" stroke-width="0.576" x2="63"/>
      <line  stroke="white" stroke-linecap="round" y1="46.8" x1="59.4" y2="46.8" stroke-width="0.576" x2="63"/>
      <line  stroke="white" stroke-linecap="round" y1="54" x1="12.6" y2="54" stroke-width="0.576" x2="9"/>
      <line  stroke="white" stroke-linecap="round" y1="54" x1="9" y2="52.2" stroke-width="0.576" x2="7.2"/>
      <line  stroke="white" stroke-linecap="round" y1="48.6" x1="7.2" y2="46.8" stroke-width="0.576" x2="9"/>
      <line  stroke="white" stroke-linecap="round" y1="54" x1="12.6" y2="52.2" stroke-width="0.576" x2="14.4"/>
      <line  stroke="white" stroke-linecap="round" y1="48.6" x1="14.4" y2="46.8" stroke-width="0.576" x2="12.6"/>
      <line  stroke="white" stroke-linecap="round" y1="46.8" x1="9" y2="46.8" stroke-width="0.576" x2="12.6"/>
      <line  stroke="white" stroke-linecap="round" y1="54" x1="5.4" y2="54" stroke-width="0.576" x2="1.8"/>
      <line  stroke="white" stroke-linecap="round" y1="54" x1="1.8" y2="52.2" stroke-width="0.576" x2="0"/>
      <line  stroke="white" stroke-linecap="round" y1="48.6" x1="0" y2="46.8" stroke-width="0.576" x2="1.8"/>
      <line  stroke="white" stroke-linecap="round" y1="54" x1="5.4" y2="52.2" stroke-width="0.576" x2="7.2"/>
      <line  stroke="white" stroke-linecap="round" y1="48.6" x1="7.2" y2="46.8" stroke-width="0.576" x2="5.4"/>
      <line  stroke="white" stroke-linecap="round" y1="46.8" x1="1.8" y2="46.8" stroke-width="0.576" x2="5.4"/>
      <line  stroke="white" stroke-linecap="round" y1="52.2" x1="0" y2="48.6" stroke-width="0.576" x2="0"/>
     </g>
    </g>
    <g  stroke-width="0">
     <title >element:JP2</title>
     <g  stroke-width="0">
      <title >package:1X04</title>
      <line  stroke="white" stroke-linecap="round" y1="0" x1="41.4" y2="0" stroke-width="0.576" x2="45"/>
      <line  stroke="white" stroke-linecap="round" y1="0" x1="45" y2="1.8" stroke-width="0.576" x2="46.8"/>
      <line  stroke="white" stroke-linecap="round" y1="5.4" x1="46.8" y2="7.2" stroke-width="0.576" x2="45"/>
      <line  stroke="white" stroke-linecap="round" y1="1.8" x1="32.4" y2="0" stroke-width="0.576" x2="34.2"/>
      <line  stroke="white" stroke-linecap="round" y1="0" x1="34.2" y2="0" stroke-width="0.576" x2="37.8"/>
      <line  stroke="white" stroke-linecap="round" y1="0" x1="37.8" y2="1.8" stroke-width="0.576" x2="39.6"/>
      <line  stroke="white" stroke-linecap="round" y1="5.4" x1="39.6" y2="7.2" stroke-width="0.576" x2="37.8"/>
      <line  stroke="white" stroke-linecap="round" y1="7.2" x1="37.8" y2="7.2" stroke-width="0.576" x2="34.2"/>
      <line  stroke="white" stroke-linecap="round" y1="7.2" x1="34.2" y2="5.4" stroke-width="0.576" x2="32.4"/>
      <line  stroke="white" stroke-linecap="round" y1="0" x1="41.4" y2="1.8" stroke-width="0.576" x2="39.6"/>
      <line  stroke="white" stroke-linecap="round" y1="5.4" x1="39.6" y2="7.2" stroke-width="0.576" x2="41.4"/>
      <line  stroke="white" stroke-linecap="round" y1="7.2" x1="45" y2="7.2" stroke-width="0.576" x2="41.4"/>
      <line  stroke="white" stroke-linecap="round" y1="0" x1="19.8" y2="0" stroke-width="0.576" x2="23.4"/>
      <line  stroke="white" stroke-linecap="round" y1="0" x1="23.4" y2="1.8" stroke-width="0.576" x2="25.2"/>
      <line  stroke="white" stroke-linecap="round" y1="5.4" x1="25.2" y2="7.2" stroke-width="0.576" x2="23.4"/>
      <line  stroke="white" stroke-linecap="round" y1="1.8" x1="25.2" y2="0" stroke-width="0.576" x2="27"/>
      <line  stroke="white" stroke-linecap="round" y1="0" x1="27" y2="0" stroke-width="0.576" x2="30.6"/>
      <line  stroke="white" stroke-linecap="round" y1="0" x1="30.6" y2="1.8" stroke-width="0.576" x2="32.4"/>
      <line  stroke="white" stroke-linecap="round" y1="5.4" x1="32.4" y2="7.2" stroke-width="0.576" x2="30.6"/>
      <line  stroke="white" stroke-linecap="round" y1="7.2" x1="30.6" y2="7.2" stroke-width="0.576" x2="27"/>
      <line  stroke="white" stroke-linecap="round" y1="7.2" x1="27" y2="5.4" stroke-width="0.576" x2="25.2"/>
      <line  stroke="white" stroke-linecap="round" y1="1.8" x1="18" y2="5.4" stroke-width="0.576" x2="18"/>
      <line  stroke="white" stroke-linecap="round" y1="0" x1="19.8" y2="1.8" stroke-width="0.576" x2="18"/>
      <line  stroke="white" stroke-linecap="round" y1="5.4" x1="18" y2="7.2" stroke-width="0.576" x2="19.8"/>
      <line  stroke="white" stroke-linecap="round" y1="7.2" x1="23.4" y2="7.2" stroke-width="0.576" x2="19.8"/>
      <line  stroke="white" stroke-linecap="round" y1="1.8" x1="46.8" y2="5.4" stroke-width="0.576" x2="46.8"/>
     </g>
    </g>
    <g  stroke-width="0">
     <title >element:R1</title>
     <g  stroke-width="0">
      <title >package:0402-RES</title>
     </g>
    </g>
    <g  stroke-width="0">
     <title >element:R4</title>
     <g  stroke-width="0">
      <title >package:0402-RES</title>
     </g>
    </g>
    <g  stroke-width="0">
     <title >element:R5</title>
     <g  stroke-width="0">
      <title >package:0402-RES</title>
     </g>
    </g>
    <g  stroke-width="0">
     <title >element:U$1</title>
     <g  stroke-width="0">
      <title >package:SFE-LOGO-FLAME</title>
     </g>
    </g>
    <g  stroke-width="0">
     <title >element:U$2</title>
     <g  stroke-width="0">
      <title >package:LFCSP-16</title>
      <line  stroke="white" stroke-linecap="round" y1="19.5307" x1="42.548" y2="20.948" stroke-width="0.576" x2="41.1307"/>
      <line  stroke="white" stroke-linecap="round" y1="19.5307" x1="51.052" y2="19.5307" stroke-width="0.576" x2="52.4693"/>
      <line  stroke="white" stroke-linecap="round" y1="19.5307" x1="52.4693" y2="20.948" stroke-width="0.576" x2="52.4693"/>
      <line  stroke="white" stroke-linecap="round" y1="29.452" x1="52.4693" y2="30.8693" stroke-width="0.576" x2="52.4693"/>
      <line  stroke="white" stroke-linecap="round" y1="30.8693" x1="52.4693" y2="30.8693" stroke-width="0.576" x2="51.052"/>
      <line  stroke="white" stroke-linecap="round" y1="30.8693" x1="42.548" y2="30.8693" stroke-width="0.576" x2="41.1307"/>
      <line  stroke="white" stroke-linecap="round" y1="30.8693" x1="41.1307" y2="29.452" stroke-width="0.576" x2="41.1307"/>
     </g>
    </g>
    <g  stroke-width="0">
     <title >element:U$3</title>
     <g  stroke-width="0">
      <title >package:STAND-OFF</title>
     </g>
    </g>
    <g  stroke-width="0">
     <title >element:U$4</title>
     <g  stroke-width="0">
      <title >package:STAND-OFF</title>
     </g>
    </g>
    <g  stroke-width="0">
     <title >element:U$5</title>
     <g  stroke-width="0">
      <title >package:FIDUCIAL-1X2</title>
     </g>
    </g>
    <g  stroke-width="0">
     <title >element:U$6</title>
     <g  stroke-width="0">
      <title >package:FIDUCIAL-1X2</title>
     </g>
    </g>
    <g  stroke-width="0">
     <title >element:U2</title>
     <g  stroke-width="0">
      <title >package:SPARKFUN_IDG500</title>
      <line  stroke="white" stroke-linecap="round" y1="32.2866" x1="15.9307" y2="32.2866" stroke-width="0.576" x2="16.7811"/>
      <line  stroke="white" stroke-linecap="round" y1="32.2866" x1="15.9307" y2="31.4362" stroke-width="0.576" x2="15.9307"/>
      <line  stroke="white" stroke-linecap="round" y1="18.1134" x1="15.9307" y2="18.9638" stroke-width="0.576" x2="15.9307"/>
      <line  stroke="white" stroke-linecap="round" y1="18.1134" x1="15.9307" y2="18.1134" stroke-width="0.576" x2="16.7811"/>
      <line  stroke="white" stroke-linecap="round" y1="18.1134" x1="27.2693" y2="18.1134" stroke-width="0.576" x2="26.4189"/>
      <line  stroke="white" stroke-linecap="round" y1="18.1134" x1="27.2693" y2="18.9638" stroke-width="0.576" x2="27.2693"/>
      <line  stroke="white" stroke-linecap="round" y1="32.2866" x1="27.2693" y2="32.2866" stroke-width="0.576" x2="26.4189"/>
      <line  stroke="white" stroke-linecap="round" y1="32.2866" x1="27.2693" y2="31.4362" stroke-width="0.576" x2="27.2693"/>
      <circle  fill="none" cx="18.9184" cy="29.2762" stroke="white" r="0.566929" stroke-width="0.576"/>
     </g>
    </g>
    <g  stroke-width="0">
     <title >element:U3</title>
     <g  stroke-width="0">
      <title >package:SOT23-5</title>
      <line  stroke="white" stroke-linecap="round" y1="21.5212" x1="2.16" y2="19.0868" stroke-width="0.576" x2="2.16"/>
      <line  stroke="white" stroke-linecap="round" y1="19.0868" x1="10.224" y2="21.5212" stroke-width="0.576" x2="10.224"/>
      <line  stroke="white" stroke-linecap="round" y1="22.6012" x1="6.95282" y2="22.6012" stroke-width="0.576" x2="5.43118"/>
     </g>
    </g>
   </g>
   <rect  width="14.1732" x="3.71339" y="36.1984" fill="#ffffff" height="6.80315" stroke="none" fill-opacity="0.15" stroke-width="0"/>
   <rect  width="1.152" x="6.48" y="28.296" fill="#ffffff" height="2.016" stroke="none" fill-opacity="0.15" stroke-width="0"/>
   <rect  width="1.152" x="21.024" y="38.592" fill="#ffffff" height="2.016" stroke="none" fill-opacity="0.15" stroke-width="0"/>
   <rect  width="1.152" x="22.824" y="9" fill="#ffffff" height="2.016" stroke="none" fill-opacity="0.15" stroke-width="0"/>
   <rect  width="11.3386" x="41.1307" y="19.5307" fill="#ffffff" height="11.3386" stroke="none" fill-opacity="0.15" stroke-width="0"/>
   <rect  width="11.3386" x="15.9307" y="18.1134" fill="#ffffff" height="14.1732" stroke="none" fill-opacity="0.15" stroke-width="0"/>
   <rect  width="8.064" x="2.16" y="19.0868" fill="#ffffff" height="3.51439" stroke="none" fill-opacity="0.15" stroke-width="0"/>
   <circle  fill="none" cx="61.2" cy="50.4" connectorname="XOUT" stroke="#9A916C" r="2.052" id="connector26pin" stroke-width="1.224"/>
   <circle  fill="none" cx="54" cy="50.4" connectorname="YOUT" stroke="#9A916C" r="2.052" id="connector27pin" stroke-width="1.224"/>
   <circle  fill="none" cx="46.8" cy="50.4" connectorname="ZOUT" stroke="#9A916C" r="2.052" id="connector28pin" stroke-width="1.224"/>
   <circle  fill="none" cx="39.6" cy="50.4" connectorname="ST" stroke="#9A916C" r="2.052" id="connector29pin" stroke-width="1.224"/>
   <circle  fill="none" cx="32.4" cy="50.4" connectorname="VREF" stroke="#9A916C" r="2.052" id="connector30pin" stroke-width="1.224"/>
   <circle  fill="none" cx="25.2" cy="50.4" connectorname="YRATE" stroke="#9A916C" r="2.052" id="connector31pin" stroke-width="1.224"/>
   <circle  fill="none" cx="18" cy="50.4" connectorname="XRATE" stroke="#9A916C" r="2.052" id="connector32pin" stroke-width="1.224"/>
   <circle  fill="none" cx="10.8" cy="50.4" connectorname="GND" stroke="#9A916C" r="2.052" id="connector33pin" stroke-width="1.224"/>
   <circle  fill="none" cx="3.6" cy="50.4" connectorname="3.3V" stroke="#9A916C" r="2.052" id="connector34pin" stroke-width="1.224"/>
   <circle  fill="none" cx="21.6" cy="3.6" connectorname="AZ" stroke="#9A916C" r="2.052" id="connector35pin" stroke-width="1.224"/>
   <rect  width="4.104" x="19.548" y="1.548" fill="none" height="4.104" stroke="#9A916C" stroke-width="1.224"/>
   <circle  fill="none" cx="28.8" cy="3.6" connectorname="PTATS" stroke="#9A916C" r="2.052" id="connector36pin" stroke-width="1.224"/>
   <circle  fill="none" cx="36" cy="3.6" connectorname="Y4.5OUT" stroke="#9A916C" r="2.052" id="connector37pin" stroke-width="1.224"/>
   <circle  fill="none" cx="43.2" cy="3.6" connectorname="X4.5OUT" stroke="#9A916C" r="2.052" id="connector38pin" stroke-width="1.224"/>
  </g>
  <g  id="1x09" stroke-width="0" transform="matrix(1, 0, 0, 1, 0.00113386, 46.8079)">
   <g  stroke-width="0" transform="matrix(-1, 0, 0, -1, 64.8, 7.2)">
    <rect  width="64.8" x="0" y="0" fill="#404040" height="7.199" stroke-width="0"/>
    <rect  width="2.781" x="2.21" y="2.209" height="2.782" stroke-width="0"/>
    <polygon  fill="#2A2A29" points="1.185,1.184,2.208,2.209,4.992,2.209,6.017,1.184" stroke-width="0"/>
    <polygon  fill="#474747" points="6.017,1.184,4.992,2.212,4.992,4.993,6.017,6.016" stroke-width="0"/>
    <polygon  fill="#595959" points="6.016,6.016,4.991,4.993,2.208,4.993,1.185,6.016" stroke-width="0"/>
    <polygon  fill="#373737" points="1.183,6.016,2.208,4.991,2.208,2.209,1.183,1.184" stroke-width="0"/>
    <rect  width="2.781" x="9.41098" y="2.209" height="2.782" stroke-width="0"/>
    <polygon  fill="#2A2A29" points="8.38397,1.184,9.40802,2.209,12.191,2.209,13.216,1.184" stroke-width="0"/>
    <polygon  fill="#474747" points="13.216,1.184,12.191,2.212,12.191,4.993,13.216,6.016" stroke-width="0"/>
    <polygon  fill="#595959" points="13.215,6.016,12.19,4.993,9.40802,4.993,8.38397,6.016" stroke-width="0"/>
    <polygon  fill="#373737" points="8.38202,6.016,9.40802,4.991,9.40802,2.209,8.38202,1.184" stroke-width="0"/>
    <rect  width="2.781" x="16.61" y="2.209" height="2.782" stroke-width="0"/>
    <polygon  fill="#2A2A29" points="15.584,1.184,16.608,2.209,19.392,2.209,20.417,1.184" stroke-width="0"/>
    <polygon  fill="#474747" points="20.417,1.184,19.392,2.212,19.392,4.993,20.417,6.016" stroke-width="0"/>
    <polygon  fill="#595959" points="20.416,6.016,19.391,4.993,16.608,4.993,15.584,6.016" stroke-width="0"/>
    <polygon  fill="#373737" points="15.583,6.016,16.608,4.991,16.608,2.209,15.583,1.184" stroke-width="0"/>
    <rect  width="2.781" x="23.811" y="2.209" height="2.782" stroke-width="0"/>
    <polygon  fill="#2A2A29" points="22.785,1.184,23.809,2.209,26.592,2.209,27.617,1.184" stroke-width="0"/>
    <polygon  fill="#474747" points="27.617,1.184,26.592,2.212,26.592,4.993,27.617,6.016" stroke-width="0"/>
    <polygon  fill="#595959" points="27.616,6.016,26.59,4.993,23.809,4.993,22.785,6.016" stroke-width="0"/>
    <polygon  fill="#373737" points="22.782,6.016,23.809,4.991,23.809,2.209,22.782,1.184" stroke-width="0"/>
    <rect  width="2.781" x="31.01" y="2.209" height="2.782" stroke-width="0"/>
    <polygon  fill="#2A2A29" points="29.984,1.184,31.008,2.209,33.792,2.209,34.816,1.184" stroke-width="0"/>
    <polygon  fill="#474747" points="34.816,1.184,33.792,2.212,33.792,4.993,34.816,6.016" stroke-width="0"/>
    <polygon  fill="#595959" points="34.816,6.016,33.791,4.993,31.008,4.993,29.984,6.016" stroke-width="0"/>
    <polygon  fill="#373737" points="29.982,6.016,31.008,4.991,31.008,2.209,29.982,1.184" stroke-width="0"/>
    <rect  width="2.781" x="38.21" y="2.209" height="2.782" stroke-width="0"/>
    <polygon  fill="#2A2A29" points="37.185,1.184,38.208,2.209,40.992,2.209,42.017,1.184" stroke-width="0"/>
    <polygon  fill="#474747" points="42.017,1.184,40.992,2.212,40.992,4.993,42.017,6.016" stroke-width="0"/>
    <polygon  fill="#595959" points="42.015,6.016,40.991,4.993,38.208,4.993,37.185,6.016" stroke-width="0"/>
    <polygon  fill="#373737" points="37.183,6.016,38.208,4.991,38.208,2.209,37.183,1.184" stroke-width="0"/>
    <rect  width="2.78" x="45.411" y="2.209" height="2.782" stroke-width="0"/>
    <polygon  fill="#2A2A29" points="44.384,1.184,45.408,2.209,48.191,2.209,49.216,1.184" stroke-width="0"/>
    <polygon  fill="#474747" points="49.216,1.184,48.191,2.212,48.191,4.993,49.216,6.016" stroke-width="0"/>
    <polygon  fill="#595959" points="49.215,6.016,48.191,4.993,45.408,4.993,44.384,6.016" stroke-width="0"/>
    <polygon  fill="#373737" points="44.382,6.016,45.408,4.991,45.408,2.209,44.382,1.184" stroke-width="0"/>
    <rect  width="2.781" x="52.611" y="2.209" height="2.782" stroke-width="0"/>
    <polygon  fill="#2A2A29" points="51.584,1.184,52.609,2.209,55.392,2.209,56.417,1.184" stroke-width="0"/>
    <polygon  fill="#474747" points="56.417,1.184,55.392,2.212,55.392,4.993,56.417,6.016" stroke-width="0"/>
    <polygon  fill="#595959" points="56.416,6.016,55.39,4.993,52.609,4.993,51.584,6.016" stroke-width="0"/>
    <polygon  fill="#373737" points="51.583,6.016,52.609,4.991,52.609,2.209,51.583,1.184" stroke-width="0"/>
    <rect  width="2.781" x="59.81" y="2.209" height="2.782" stroke-width="0"/>
    <polygon  fill="#2A2A29" points="58.785,1.184,59.808,2.209,62.591,2.209,63.617,1.184" stroke-width="0"/>
    <polygon  fill="#474747" points="63.617,1.184,62.591,2.212,62.591,4.993,63.617,6.016" stroke-width="0"/>
    <polygon  fill="#595959" points="63.616,6.016,62.59,4.993,59.808,4.993,58.785,6.016" stroke-width="0"/>
    <polygon  fill="#373737" points="58.783,6.016,59.808,4.991,59.808,2.209,58.783,1.184" stroke-width="0"/>
   </g>
  </g>
  <g  id="1x04" stroke-width="0" transform="matrix(1, 0, 0, 1, 18.0012, 0.00226771)">
   <rect  width="28.8" x="0" y="0" fill="#404040" height="7.199" stroke-width="0"/>
   <rect  width="2.781" x="2.21" y="2.209" height="2.782" stroke-width="0"/>
   <polygon  fill="#2A2A29" points="1.185,1.184,2.208,2.209,4.992,2.209,6.017,1.184" stroke-width="0"/>
   <polygon  fill="#474747" points="6.017,1.184,4.992,2.212,4.992,4.993,6.017,6.016" stroke-width="0"/>
   <polygon  fill="#595959" points="6.016,6.016,4.991,4.993,2.208,4.993,1.185,6.016" stroke-width="0"/>
   <polygon  fill="#373737" points="1.183,6.016,2.208,4.991,2.208,2.209,1.183,1.184" stroke-width="0"/>
   <rect  width="2.781" x="9.41098" y="2.209" height="2.782" stroke-width="0"/>
   <polygon  fill="#2A2A29" points="8.38397,1.184,9.40802,2.209,12.191,2.209,13.217,1.184" stroke-width="0"/>
   <polygon  fill="#474747" points="13.217,1.184,12.191,2.212,12.191,4.993,13.217,6.016" stroke-width="0"/>
   <polygon  fill="#595959" points="13.215,6.016,12.19,4.993,9.40802,4.993,8.38397,6.016" stroke-width="0"/>
   <polygon  fill="#373737" points="8.38202,6.016,9.40802,4.991,9.40802,2.209,8.38202,1.184" stroke-width="0"/>
   <rect  width="2.781" x="16.611" y="2.209" height="2.782" stroke-width="0"/>
   <polygon  fill="#2A2A29" points="15.584,1.184,16.609,2.209,19.392,2.209,20.417,1.184" stroke-width="0"/>
   <polygon  fill="#474747" points="20.417,1.184,19.392,2.212,19.392,4.993,20.417,6.016" stroke-width="0"/>
   <polygon  fill="#595959" points="20.416,6.016,19.39,4.993,16.609,4.993,15.584,6.016" stroke-width="0"/>
   <polygon  fill="#373737" points="15.583,6.016,16.609,4.991,16.609,2.209,15.583,1.184" stroke-width="0"/>
   <rect  width="2.781" x="23.81" y="2.209" height="2.782" stroke-width="0"/>
   <polygon  fill="#2A2A29" points="22.785,1.184,23.808,2.209,26.591,2.209,27.617,1.184" stroke-width="0"/>
   <polygon  fill="#474747" points="27.617,1.184,26.591,2.212,26.591,4.993,27.617,6.016" stroke-width="0"/>
   <polygon  fill="#595959" points="27.616,6.016,26.59,4.993,23.808,4.993,22.785,6.016" stroke-width="0"/>
   <polygon  fill="#373737" points="22.783,6.016,23.808,4.991,23.808,2.209,22.783,1.184" stroke-width="0"/>
  </g>
  <g  id="sfe-logo-flame" stroke-width="0" transform="matrix(1, 0, 0, 1, 34.6562, 22.7078)">
   <g  stroke-width="0" transform="matrix(0, 1, -1, 0, 6.68652, 1.32751)">
    <g  stroke-width="0">
     <title >element:JP2</title>
     <g  stroke-width="0">
      <title >package:SFE-LOGO-FLAME</title>
      <title >polygon</title>
     </g>
    </g>
    <path  fill="#FFFFFF" stroke-width="0" d="M5.357,3.235c0,-0.001,0,-0.002,0,-0.003c0,-0.001,0,-0.003,0,-0.005L5.355,3.166c0,-0.001,0,-0.003,0,-0.004c0,-0.002,0,-0.004,-0.001,-0.007L5.349,2.947c0,-0.001,0,-0.001,0,-0.002c0,-0.001,0,-0.003,0,-0.005L5.343,2.757c0,-0.001,0,-0.001,0,-0.002c0,0,0,0,0,0c0,-0.001,-0.001,-0.003,-0.001,-0.005L5.336,2.724c0,-0.001,0,-0.003,0,-0.004L5.294,2.512c0,-0.004,-0.001,-0.009,-0.003,-0.013L5.282,2.457c0,-0.001,0,-0.003,-0.001,-0.005c0,0,0,0,0,0l0,0L5.276,2.437C5.275,2.431,5.273,2.425,5.271,2.42L5.249,2.359C5.248,2.358,5.247,2.356,5.247,2.354L5.181,2.168c0,0,-0.001,-0.001,-0.001,-0.002C5.179,2.165,5.179,2.163,5.178,2.162L5.165,2.138C5.164,2.136,5.163,2.135,5.162,2.133L5.088,1.996C5.087,1.993,5.086,1.99,5.084,1.988L5.049,1.922C5.048,1.92,5.047,1.918,5.046,1.917l-0.01,-0.019C5.035,1.897,5.035,1.896,5.034,1.896C5.033,1.894,5.032,1.893,5.031,1.892L4.823,1.631C4.821,1.627,4.819,1.625,4.816,1.622L4.775,1.571C4.774,1.57,4.774,1.569,4.773,1.568C4.772,1.567,4.771,1.565,4.77,1.564L4.665,1.479C4.663,1.478,4.662,1.476,4.66,1.475L4.579,1.409c-0.003,-0.003,-0.006,-0.006,-0.01,-0.00799999L4.492,1.338c-0.003,-0.004,-0.00799999,-0.00799999,-0.013,-0.01L4.45,1.304c-0.00799999,-0.006,-0.019,-0.01,-0.024,-0.00799999L4.425,1.296c-0.005,0,-0.009,0.002,-0.013,0.004c-0.001,0,-0.001,0,-0.001,0c-0.004,0.002,-0.007,0.005,-0.01,0.00799999c0,0,0,0,0,0c0,0,0,0,-0.001,0c0,0,0,0,0,0c0,0,0,0,-0.001,0C4.398,1.311,4.397,1.312,4.396,1.314l0,0c0,0,0,0,0,0c0,0,-0.001,0,-0.001,0s0,0,0,0C4.393,1.321,4.392,1.327,4.392,1.333l0,0.245L4.387,1.615L4.38,1.632C4.379,1.634,4.378,1.636,4.378,1.638L4.335,1.694C4.332,1.697,4.33,1.7,4.328,1.703l-0.03,0.038l-0.03,0.021C4.266,1.763,4.264,1.764,4.262,1.766L4.195,1.812L4.146,1.83L3.993,1.847L3.844,1.818L3.705,1.748L3.53,1.621C3.529,1.62,3.527,1.619,3.525,1.618L3.449,1.562L3.353,1.48C3.352,1.479,3.35,1.477,3.348,1.476l-0.06,-0.064C3.288,1.41,3.287,1.409,3.285,1.407l-0.051,-0.06C3.232,1.343,3.229,1.339,3.226,1.335L3.153,1.217L3.148,1.206c0,-0.002,-0.001,-0.004,-0.002,-0.005L3.119,1.134C3.118,1.132,3.117,1.129,3.116,1.127l-0.021,-0.05l0,-0.003c0,-0.005,-0.001,-0.009,-0.002,-0.013L3.078,0.992002l0.003,-0.0859997l0.044,-0.146l0.015,-0.025c0.001,-0.001,0.002,-0.003,0.003,-0.005l0.062,-0.101l0.11,-0.103c0.001,0,0.002,-0.001,0.002,-0.002l0.136,-0.072l0.139,-0.039l0.145,-0.016l0.171,0c0.005,0,0.011,-0.001,0.015,-0.003c0.001,0,0.001,0,0.001,0l0,0c0.001,0,0.001,0,0.001,0l0,0c0.003,-0.001,0.005,-0.003,0.007,-0.005c0.005,-0.003,0.00799999,-0.00799999,0.01,-0.013l0,0l0,0c0.002,-0.003,0.002,-0.006,0.003,-0.01c0,-0.00799999,-0.002,-0.016,-0.006,-0.022l0,0c0,0,-0.001,0,-0.001,0C3.938,0.339,3.938,0.337,3.937,0.336L3.93,0.33c0,-0.001,-0.001,-0.001,-0.001,-0.002L3.928,0.328C3.927,0.325,3.927,0.325,3.924,0.324L3.802,0.229C3.798,0.224,3.795,0.224,3.793,0.224L3.65,0.162l0,0c0,0,0,0,-0.001,0l-0.1,-0.042L3.521,0.105C3.519,0.104,3.517,0.103,3.514,0.103L3.485,0.0889999c-0.002,0,-0.004,-0.001,-0.006,-0.002c0,0,0,0,0,0l0,0L3.253,0.031C3.25,0.03,3.246,0.029,3.242,0.029L3.231,0.026C3.229,0.025,3.226,0.025,3.225,0.025L2.97,0C2.969,0,2.967,0,2.966,0l0,0C2.965,0,2.963,0,2.962,0L2.717,0.019c0,0,-0.001,0,-0.001,0c-0.002,0,-0.005,0,-0.007,0.001L2.678,0.029c-0.003,0,-0.007,0.001,-0.01,0.003L2.473,0.0850003C2.47,0.0859997,2.468,0.09,2.465,0.0879998L2.288,0.177c0,0,0,0,-0.001,0L2.245,0.198c-0.001,0,-0.001,0,-0.002,0.001c0,0,0,0,0,0C2.242,0.2,2.24,0.201,2.239,0.202L2.02,0.359C2.018,0.36,2.017,0.361,2.015,0.363L1.829,0.54C1.827,0.541,1.825,0.543,1.823,0.545L1.818,0.55c0,0.001,-0.001,0.002,-0.002,0.002C1.815,0.553,1.814,0.555,1.813,0.556L1.716,0.691c0,0,0,0,0,0.001L1.692,0.725998C1.691,0.726998,1.69,0.727999,1.69,0.729C1.688,0.731002,1.688,0.733003,1.687,0.734998L1.673,0.770998c0,0.001,-0.001,0.002,-0.001,0.004L1.646,0.841003c0,0.001,-0.001,0.003,-0.002,0.005L1.612,0.930002C1.611,0.931997,1.611,0.933998,1.61,0.936c0,0.001,0,0.002,0,0.004L1.584,1.147c0,0.001,0,0.003,0,0.004c0,0.002,0,0.004,0,0.006l0.00799999,0.059c0,0.003,0,0.006,0.001,0.009l0.00799999,0.061c0,0,0,0.001,0,0.002c0,0.004,0.001,0.00799999,0.002,0.012l0.009,0.063c0,0.001,0,0.002,0,0.004c0,0.002,0.001,0.003,0.002,0.005l0,0c0,0,0,0,0,0L1.643,1.44c0.001,0.004,0.002,0.00799999,0.004,0.012l0.025,0.063c0,0.002,0.001,0.005,0.003,0.007l0.019,0.046c0,0.002,0.001,0.004,0.003,0.006c0,0,0,0.001,0.001,0.002l0.157,0.233c0.001,0.003,0.003,0.005,0.005,0.00799999l0.043,0.064C1.906,1.884,1.908,1.887,1.91,1.889L2,2.022c0.002,0.005,0.004,0.009,0.00799999,0.012l0.026,0.039c0.002,0.003,0.003,0.004,0.004,0.005l0.022,0.024c0.001,0.002,0.003,0.004,0.006,0.006l0.062,0.066C2.13,2.176,2.132,2.178,2.133,2.179l0.13,0.139C2.266,2.32,2.268,2.323,2.271,2.325l0.062,0.066c0.001,0.002,0.003,0.003,0.005,0.005l0.064,0.068c0,0,0.001,0.001,0.001,0.001l0.122,0.139c0.002,0.002,0.004,0.004,0.006,0.006l0.023,0.027l0.068,0.142L2.64,2.874c0,0.004,0.001,0.007,0.002,0.011l0.01,0.052L2.639,3.094L2.587,3.242L2.498,3.373L2.377,3.476L2.223,3.56L2.057,3.615L1.884,3.644l-0.201,-0.01L1.676,3.631c-0.001,0,-0.002,0,-0.003,0L1.49,3.574L1.354,3.492C1.352,3.49,1.35,3.489,1.347,3.488L1.319,3.471L1.231,3.377L1.172,3.263L1.148,3.158c0,-0.003,-0.001,-0.006,-0.002,-0.009l0,-0.124c0,-0.001,0,-0.002,0,-0.003l0.026,-0.115l0.021,-0.04l0.033,-0.032L1.23,2.832C1.232,2.831,1.234,2.83,1.236,2.828l0.224,-0.162l0.038,-0.021l0.039,-0.00799999l0.044,0.004c0.001,0,0.002,0,0.003,0c0.019,0,0.034,-0.014,0.036,-0.033c0.001,-0.012,-0.003,-0.023,-0.012,-0.03l0,0l0,0c0,0,0,0,0,0l0,0c0,0,0,0,0,0c0,0,0,0,0,0s0,0,0,0c0,0,0,0,0,0s0,0,0,0s0,0,0,0l0,0C1.6,2.574,1.595,2.572,1.589,2.571L1.453,2.549c0,0,0,0,-0.001,0c-0.001,0,-0.001,0,-0.002,0L1.184,2.528c-0.001,0,-0.002,0,-0.003,0s-0.002,0,-0.003,0L0.912002,2.549c-0.001,0,-0.002,0,-0.003,0c0,0,0,0,0,0l0,0c-0.001,0,-0.002,0,-0.003,0L0.707,2.602c0,0,-0.001,0,-0.002,0.001c0,0,0,0,0,0c-0.002,0,-0.004,0.001,-0.005,0.002l-0.182,0.09C0.515,2.696,0.513,2.697,0.51,2.7L0.349,2.825C0.348,2.826,0.347,2.826,0.346,2.827C0.344,2.828,0.343,2.83,0.342,2.831L0.21,2.986c0,0,0,0,-0.001,0.001l0,0C0.208,2.99,0.206,2.991,0.205,2.993L0.204,2.997C0.202,2.999,0.201,3,0.2,3.002L0.0930002,3.199c0,0,-0.001,0.001,-0.001,0.003C0.09,3.204,0.09,3.206,0.0889999,3.207L0.0859997,3.219C0.0850003,3.221,0.0840002,3.223,0.0840002,3.226L0.021,3.433c0,0.001,0,0.001,-0.001,0.002c0,0.002,0,0.004,-0.001,0.006L0.00799999,3.585c0,0.002,-0.001,0.005,-0.001,0.00799999c0,0,0,0.001,0,0.002L0.002,3.658c0,0.002,-0.001,0.005,-0.001,0.007c0,0,0,0.001,0,0.001l0,0.011l0,0C0,3.678,0,3.679,0,3.68l0,4.296C0,7.97897,0,7.97998,0,7.98199c0,0.001,0,0.001,0,0.001c0,0.002,0.001,0.004,0.001,0.006l0,0L0.001,7.98998C0.004,7.99502,0.00799999,7.99999,0.012,8.00503c0.007,0.006,0.016,0.009,0.024,0.009c0.001,0,0.003,0,0.004,0c0,0,0,0,0,0c0.007,-0.004,0.013,-0.006,0.02,-0.01c0.001,-0.001,0.002,-0.002,0.003,-0.003L0.118,7.94002C0.12,7.938,0.122,7.93598,0.124,7.93397l0.25,-0.281C0.375,7.65,0.377,7.64698,0.379,7.64597L0.437,7.58002C0.44,7.578,0.442,7.57498,0.444,7.57202l0.123,-0.139c0.001,0,0.001,-0.001,0.002,-0.002l0.061,-0.068C0.631,7.362,0.633,7.35998,0.635,7.35703l0.185,-0.208c0.004,-0.002,0.007,-0.006,0.01,-0.011l0.057,-0.063C0.887998,7.073,0.888998,7.072,0.891,7.07l0.185,-0.209c0.004,-0.003,0.007,-0.006,0.01,-0.01l0.057,-0.064c0.002,-0.002,0.003,-0.003,0.005,-0.005l0.059,-0.066C1.208,6.714,1.21,6.711,1.211,6.708l0.057,-0.062C1.271,6.643,1.273,6.64,1.275,6.637l0.056,-0.063c0.003,-0.003,0.007,-0.006,0.009,-0.01l0.057,-0.064c0.001,-0.002,0.003,-0.003,0.004,-0.005l0.042,-0.047L1.54,6.359c0.004,-0.002,0.007,-0.005,0.01,-0.009l0.136,-0.124l0.257,-0.153C1.944,6.072,1.946,6.071,1.947,6.07l0.02,-0.012l0.099,-0.035L2.17,6.005l0.645,0c0,-0.001,0.002,-0.001,0.004,0L3.204,5.97c0.001,0,0.003,0,0.004,-0.001c0,0,0,0,0,0c0.001,0,0.002,0,0.003,-0.001l0.373,-0.104c0.001,-0.001,0.003,-0.001,0.005,-0.002c0,0,0.001,-0.001,0.002,-0.001l0.004,-0.002c0.003,-0.001,0.006,-0.003,0.009,-0.004l0.139,-0.068c0.004,-0.001,0.007,-0.003,0.01,-0.005l0.141,-0.068c0.001,0,0.003,-0.001,0.004,-0.002l0.041,-0.021c0.002,0,0.003,-0.001,0.005,-0.002c0.001,0,0.001,-0.001,0.002,-0.001l0.168,-0.119c0.004,-0.002,0.007,-0.004,0.01,-0.007l0.149,-0.105c0.002,-0.001,0.004,-0.002,0.005,-0.004l0.292,-0.274c0.002,-0.002,0.003,-0.003,0.004,-0.005l0.0940003,-0.117c0.001,-0.001,0.001,-0.001,0.001,-0.002l0.056,-0.069C4.725,4.984,4.727,4.982,4.728,4.98L4.78,4.914C4.782,4.912,4.784,4.91,4.785,4.907l0.037,-0.046c0.001,-0.002,0.002,-0.003,0.003,-0.005c0,0,0,0,0.001,0L4.826,4.855l0.05,-0.0879998c0.002,-0.003,0.004,-0.006,0.005,-0.01L4.959,4.62C4.96,4.619,4.96,4.617,4.961,4.616L4.998,4.55C5,4.547,5.002,4.544,5.003,4.542l0.036,-0.063c0.002,-0.002,0.003,-0.004,0.004,-0.007l0.036,-0.064c0.002,-0.003,0.004,-0.006,0.006,-0.01l0.01,-0.018c0,-0.001,0.001,-0.001,0.001,-0.002c0,0.001,0.002,-0.002,0.002,-0.004l0.039,-0.113c0.002,-0.004,0.004,-0.00799999,0.004,-0.013l0.021,-0.062C5.163,4.182,5.164,4.18,5.165,4.177l0.047,-0.136c0.001,-0.003,0.002,-0.006,0.003,-0.009l0.022,-0.063c0.001,-0.002,0.001,-0.004,0.002,-0.007l0.021,-0.062c0.002,-0.004,0.004,-0.00799999,0.005,-0.013l0.01,-0.029c0,-0.001,0.001,-0.002,0.001,-0.004c0,-0.001,0,-0.002,0.001,-0.003l0.004,-0.03c0.001,-0.003,0.002,-0.007,0.002,-0.01l0.01,-0.064c0,-0.002,0.001,-0.004,0.001,-0.007l0.01,-0.065c0,-0.002,0.001,-0.004,0.001,-0.005l0.042,-0.281c0.001,-0.003,0.002,-0.006,0.002,-0.01l0.01,-0.064c0,-0.003,0.001,-0.006,0.001,-0.009c0,-0.001,0,-0.002,0,-0.003L5.357,3.235z"/>
   </g>
  </g>
 </g>
</svg>
