<?xml version='1.0' encoding='utf-8'?>
<!DOCTYPE svg PUBLIC '-//W3C//DTD SVG 1.1 Basic//EN' 'http://www.w3.org/Graphics/SVG/1.1/DTD/svg11-basic.dtd'>
<!-- Generator: Adobe Illustrator 14.0.0, SVG Export Plug-In . SVG Version: 6.00 Build 43363)  -->
<svg xmlns="http://www.w3.org/2000/svg" width="0.482in" xml:space="preserve" xmlns:xml="http://www.w3.org/XML/1998/namespace" x="0px" version="1.1" y="0px" height="0.720833in" viewBox="0 0 34.704 51.9" baseProfile="basic" id="svg" >
 <rect xmlns="http://www.w3.org/2000/svg" width="2.157" x="1.911" y="1.904" fill="none" height="3.146" id="connector9pin" />
 <rect xmlns="http://www.w3.org/2000/svg" width="2.157" x="1.911" y="1.902" fill="none" height="0.401" id="connector9terminal" />
 <rect xmlns="http://www.w3.org/2000/svg" width="2.157" x="9.087" y="1.904" fill="none" height="3.146" id="connector8pin" />
 <rect xmlns="http://www.w3.org/2000/svg" width="2.157" x="9.087" y="1.902" fill="none" height="0.401" id="connector8terminal" />
 <rect xmlns="http://www.w3.org/2000/svg" width="2.156" x="16.303" y="1.904" fill="none" height="3.146" id="connector7pin" />
 <rect xmlns="http://www.w3.org/2000/svg" width="2.156" x="16.303" y="1.902" fill="none" height="0.401" id="connector7terminal" />
 <rect xmlns="http://www.w3.org/2000/svg" width="2.157" x="23.48" y="1.904" fill="none" height="3.146" id="connector6pin" />
 <rect xmlns="http://www.w3.org/2000/svg" width="2.157" x="23.48" y="1.902" fill="none" height="0.401" id="connector6terminal" />
 <rect xmlns="http://www.w3.org/2000/svg" width="2.156" x="30.645" y="1.904" fill="none" height="3.146" id="connector5pin" />
 <rect xmlns="http://www.w3.org/2000/svg" width="2.156" x="30.645" y="1.902" fill="none" height="0.401" id="connector5terminal" />
 <rect xmlns="http://www.w3.org/2000/svg" width="2.156" x="30.635" y="50.654" fill="none" height="3.146" id="connector4pin" />
 <rect xmlns="http://www.w3.org/2000/svg" width="2.156" x="30.635" y="53.398" fill="none" height="0.402" id="connector4terminal" />
 <rect xmlns="http://www.w3.org/2000/svg" width="2.156" x="23.45" y="50.654" fill="none" height="3.146" id="connector3pin" />
 <rect xmlns="http://www.w3.org/2000/svg" width="2.156" x="23.45" y="53.398" fill="none" height="0.402" id="connector3terminal" />
 <rect xmlns="http://www.w3.org/2000/svg" width="2.157" x="16.244" y="50.654" fill="none" height="3.146" id="connector2pin" />
 <rect xmlns="http://www.w3.org/2000/svg" width="2.157" x="16.244" y="53.398" fill="none" height="0.402" id="connector2terminal" />
 <rect xmlns="http://www.w3.org/2000/svg" width="2.157" x="9.067" y="50.654" fill="none" height="3.146" id="connector1pin" />
 <rect xmlns="http://www.w3.org/2000/svg" width="2.157" x="9.067" y="53.398" fill="none" height="0.402" id="connector1terminal" />
 <rect xmlns="http://www.w3.org/2000/svg" width="2.157" x="1.911" y="50.654" fill="none" height="3.146" id="connector0pin" />
 <rect xmlns="http://www.w3.org/2000/svg" width="2.157" x="1.911" y="53.398" fill="none" height="0.402" id="connector0terminal" />
 <g xmlns="http://www.w3.org/2000/svg" id="breadboard" >
  <g xmlns="http://www.w3.org/2000/svg">
   <path xmlns="http://www.w3.org/2000/svg" fill="#919191" d="M1.911,4.198c0,0.469,0.383,0.852,0.851,0.852h0.457c0.467,0,0.85-0.383,0.85-0.852V2.754&#xd;&#xa;&#x9;&#x9;&#x9;c0-0.468-0.383-0.854-0.85-0.854H2.761c-0.468,0-0.851,0.386-0.851,0.854L1.911,4.198L1.911,4.198z" />
   <path xmlns="http://www.w3.org/2000/svg" fill="#919191" d="M11.234,2.753c0-0.468-0.383-0.854-0.851-0.854H9.948c-0.467,0-0.85,0.386-0.85,0.854v1.44&#xd;&#xa;&#x9;&#x9;&#x9;c0,0.471,0.383,0.854,0.85,0.854h0.437c0.468,0,0.851-0.383,0.851-0.854L11.234,2.753L11.234,2.753z" />
   <path xmlns="http://www.w3.org/2000/svg" fill="#919191" d="M16.302,4.198c0,0.469,0.383,0.852,0.851,0.852h0.457c0.467,0,0.85-0.383,0.85-0.852V2.754&#xd;&#xa;&#x9;&#x9;&#x9;c0-0.468-0.383-0.854-0.85-0.854h-0.457c-0.468,0-0.851,0.386-0.851,0.854V4.198z" />
   <path xmlns="http://www.w3.org/2000/svg" fill="#919191" d="M25.625,2.753c0-0.468-0.383-0.854-0.853-0.854h-0.438c-0.469,0-0.852,0.386-0.852,0.854v1.44&#xd;&#xa;&#x9;&#x9;&#x9;c0,0.471,0.383,0.854,0.852,0.854h0.438c0.47,0,0.853-0.383,0.853-0.854V2.753z" />
   <path xmlns="http://www.w3.org/2000/svg" fill="#919191" d="M32.792,2.753c0-0.468-0.383-0.854-0.85-0.854h-0.438c-0.467,0-0.853,0.386-0.853,0.854v1.44&#xd;&#xa;&#x9;&#x9;&#x9;c0,0.471,0.386,0.854,0.853,0.854h0.438c0.467,0,0.85-0.383,0.85-0.854V2.753z" />
  </g>
  <g xmlns="http://www.w3.org/2000/svg">
   <path xmlns="http://www.w3.org/2000/svg" fill="#919191" d="M32.792,51.506c0-0.469-0.383-0.854-0.85-0.854h-0.457c-0.468,0-0.852,0.386-0.852,0.854v1.442&#xd;&#xa;&#x9;&#x9;&#x9;c0,0.468,0.384,0.851,0.852,0.851h0.457c0.467,0,0.85-0.383,0.85-0.851V51.506z" />
   <path xmlns="http://www.w3.org/2000/svg" fill="#919191" d="M23.469,52.949c0,0.468,0.383,0.851,0.85,0.851h0.438c0.47,0,0.853-0.383,0.853-0.851v-1.443&#xd;&#xa;&#x9;&#x9;&#x9;c0-0.467-0.383-0.85-0.853-0.85h-0.438c-0.467,0-0.85,0.383-0.85,0.85V52.949z" />
   <path xmlns="http://www.w3.org/2000/svg" fill="#919191" d="M18.401,51.506c0-0.469-0.383-0.854-0.851-0.854h-0.457c-0.468,0-0.851,0.386-0.851,0.854v1.442&#xd;&#xa;&#x9;&#x9;&#x9;c0,0.468,0.383,0.851,0.851,0.851h0.457c0.468,0,0.851-0.383,0.851-0.851V51.506z" />
   <path xmlns="http://www.w3.org/2000/svg" fill="#919191" d="M9.078,52.949c0,0.468,0.383,0.851,0.851,0.851h0.437c0.468,0,0.851-0.383,0.851-0.851v-1.443&#xd;&#xa;&#x9;&#x9;&#x9;c0-0.467-0.383-0.85-0.851-0.85H9.928c-0.468,0-0.851,0.383-0.851,0.85L9.078,52.949L9.078,52.949z" />
   <path xmlns="http://www.w3.org/2000/svg" fill="#919191" d="M1.911,52.949c0,0.468,0.383,0.851,0.851,0.851h0.437c0.468,0,0.85-0.383,0.85-0.851v-1.443&#xd;&#xa;&#x9;&#x9;&#x9;c0-0.467-0.382-0.85-0.85-0.85H2.761c-0.468,0-0.851,0.383-0.851,0.85L1.911,52.949L1.911,52.949z" />
  </g>
  <g xmlns="http://www.w3.org/2000/svg">
   <rect xmlns="http://www.w3.org/2000/svg" width="34.704" y="3.474" fill="#ADADAD" height="48.752" />
   <g xmlns="http://www.w3.org/2000/svg">
    <g xmlns="http://www.w3.org/2000/svg">
     <path xmlns="http://www.w3.org/2000/svg" fill="#FF034B" d="M25.815,10.495l-1.809,14.729L25.561,27l1.99-1.772l1.809-14.729c0.141-1.144-0.195-2.178-0.854-2.924&#xd;&#xa;&#x9;&#x9;&#x9;&#x9;&#x9;l-2.814,2.507C25.786,10.186,25.836,10.335,25.815,10.495z" />
     <path xmlns="http://www.w3.org/2000/svg" fill="#FF034B" d="M11.497,9.903h13.8c0.158,0,0.301,0.067,0.395,0.179l2.814-2.507c-0.656-0.749-1.635-1.216-2.773-1.216&#xd;&#xa;&#x9;&#x9;&#x9;&#x9;&#x9;H11.932c-1.142,0-2.232,0.468-3.073,1.216l2.199,2.507C11.18,9.97,11.335,9.903,11.497,9.903z" />
     <polygon xmlns="http://www.w3.org/2000/svg" fill="#FF034B" points="9.021,25.228 7.033,27 8.588,28.771 23.572,28.771 23.572,28.771 25.561,27 24.006,25.228 &#x9;&#x9;&#x9;&#x9;&#xd;&#xa;&#x9;&#x9;&#x9;&#x9;&#x9;" />
     <path xmlns="http://www.w3.org/2000/svg" fill="#FF034B" d="M23.572,28.771l-1.81,14.731c-0.021,0.161-0.105,0.31-0.227,0.417l2.194,2.508&#xd;&#xa;&#x9;&#x9;&#x9;&#x9;&#x9;c0.845-0.749,1.437-1.783,1.572-2.925l1.812-14.731L25.561,27L23.572,28.771z" />
     <path xmlns="http://www.w3.org/2000/svg" fill="#FF034B" d="M21.098,44.097H7.297c-0.16,0-0.3-0.064-0.395-0.177l-2.815,2.508c0.658,0.748,1.634,1.213,2.774,1.213&#xd;&#xa;&#x9;&#x9;&#x9;&#x9;&#x9;h13.802c1.143,0,2.23-0.465,3.071-1.213l-2.198-2.508C21.415,44.029,21.258,44.097,21.098,44.097z" />
     <path xmlns="http://www.w3.org/2000/svg" fill="#FF034B" d="M6.779,43.504l1.809-14.73L7.033,27l-1.99,1.771L3.234,43.503c-0.141,1.142,0.197,2.176,0.854,2.925&#xd;&#xa;&#x9;&#x9;&#x9;&#x9;&#x9;l2.815-2.508C6.808,43.812,6.759,43.665,6.779,43.504z" />
     <path xmlns="http://www.w3.org/2000/svg" fill="#FF034B" d="M9.021,25.228L9.021,25.228l1.81-14.729c0.02-0.16,0.105-0.312,0.227-0.417L8.86,7.573&#xd;&#xa;&#x9;&#x9;&#x9;&#x9;&#x9;c-0.841,0.75-1.432,1.781-1.572,2.924L5.477,25.227L7.033,27L9.021,25.228z" />
     <circle xmlns="http://www.w3.org/2000/svg" fill="#FF034B" cx="29.391" cy="45.153" r="2.108" />
    </g>
    <g xmlns="http://www.w3.org/2000/svg" opacity="0.29" >
     <path xmlns="http://www.w3.org/2000/svg" fill="#4D4D4D" d="M28.442,8.233c0.402,0.629,0.569,1.397,0.471,2.207l-1.787,14.563l-1.521,1.354l-1.122-1.275&#xd;&#xa;&#x9;&#x9;&#x9;&#x9;&#x9;l1.782-14.527c0.019-0.123,0.01-0.247-0.021-0.364L28.442,8.233 M28.506,7.573l-2.814,2.507&#xd;&#xa;&#x9;&#x9;&#x9;&#x9;&#x9;c0.094,0.104,0.145,0.257,0.123,0.417l-1.809,14.729L25.561,27l1.99-1.772l1.809-14.729C29.5,9.355,29.165,8.321,28.506,7.573&#xd;&#xa;&#x9;&#x9;&#x9;&#x9;&#x9;L28.506,7.573z" />
     <path xmlns="http://www.w3.org/2000/svg" fill="#4D4D4D" d="M25.731,6.809c0.811,0,1.547,0.262,2.116,0.745l-2.202,1.961c-0.109-0.042-0.229-0.062-0.35-0.062&#xd;&#xa;&#x9;&#x9;&#x9;&#x9;&#x9;H11.497c-0.115,0-0.23,0.02-0.34,0.057l-1.65-1.882c0.727-0.53,1.572-0.818,2.424-0.818L25.731,6.809 M25.731,6.358H11.932&#xd;&#xa;&#x9;&#x9;&#x9;&#x9;&#x9;c-1.142,0-2.232,0.468-3.073,1.213l2.199,2.51c0.122-0.108,0.277-0.179,0.439-0.179h13.798c0.16,0,0.302,0.067,0.396,0.179&#xd;&#xa;&#x9;&#x9;&#x9;&#x9;&#x9;l2.813-2.51C27.849,6.823,26.874,6.358,25.731,6.358L25.731,6.358z" />
     <path xmlns="http://www.w3.org/2000/svg" fill="#4D4D4D" d="M23.801,25.679l1.125,1.282L23.4,28.321H8.792l-1.124-1.279l1.526-1.36L23.801,25.679 M24.006,25.228&#xd;&#xa;&#x9;&#x9;&#x9;&#x9;&#x9;H9.021L7.033,27l1.555,1.771h14.984L25.561,27L24.006,25.228L24.006,25.228z" />
     <path xmlns="http://www.w3.org/2000/svg" fill="#4D4D4D" d="M25.522,27.64l1.122,1.278l-1.785,14.53c-0.104,0.854-0.491,1.661-1.101,2.32l-1.646-1.879&#xd;&#xa;&#x9;&#x9;&#x9;&#x9;&#x9;c0.051-0.104,0.084-0.219,0.1-0.334L24,28.996L25.522,27.64 M25.561,27l-1.989,1.771l-1.81,14.731&#xd;&#xa;&#x9;&#x9;&#x9;&#x9;&#x9;c-0.021,0.161-0.105,0.31-0.227,0.417l2.194,2.508c0.845-0.749,1.437-1.783,1.572-2.925l1.812-14.731L25.561,27L25.561,27z" />
     <path xmlns="http://www.w3.org/2000/svg" fill="#4D4D4D" d="M6.948,44.484c0.11,0.042,0.229,0.062,0.35,0.062H21.1c0.115,0,0.229-0.021,0.339-0.056l1.647,1.88&#xd;&#xa;&#x9;&#x9;&#x9;&#x9;&#x9;c-0.729,0.526-1.57,0.815-2.424,0.815H6.862c-0.81,0-1.545-0.263-2.116-0.746L6.948,44.484 M21.536,43.921&#xd;&#xa;&#x9;&#x9;&#x9;&#x9;&#x9;c-0.121,0.105-0.273,0.177-0.438,0.177H7.297c-0.16,0-0.3-0.065-0.395-0.177l-2.815,2.507c0.658,0.748,1.634,1.213,2.774,1.213&#xd;&#xa;&#x9;&#x9;&#x9;&#x9;&#x9;h13.802c1.143,0,2.23-0.465,3.071-1.213L21.536,43.921L21.536,43.921z" />
     <path xmlns="http://www.w3.org/2000/svg" fill="#4D4D4D" d="M6.994,27.64l1.123,1.278l-1.786,14.53c-0.016,0.118-0.008,0.241,0.02,0.356l-2.199,1.959&#xd;&#xa;&#x9;&#x9;&#x9;&#x9;&#x9;c-0.404-0.629-0.569-1.396-0.47-2.207L5.47,28.996L6.994,27.64 M7.033,27l-1.99,1.771L3.234,43.503&#xd;&#xa;&#x9;&#x9;&#x9;&#x9;&#x9;c-0.141,1.142,0.197,2.176,0.854,2.925l2.815-2.508c-0.095-0.107-0.145-0.256-0.124-0.417l1.809-14.731L7.033,27L7.033,27z" />
     <path xmlns="http://www.w3.org/2000/svg" fill="#4D4D4D" d="M8.834,8.228l1.647,1.878c-0.05,0.105-0.083,0.222-0.098,0.333L8.595,25.004L7.072,26.36l-1.123-1.276&#xd;&#xa;&#x9;&#x9;&#x9;&#x9;&#x9;L7.734,10.55C7.839,9.7,8.225,8.889,8.834,8.228 M8.858,7.573c-0.84,0.75-1.432,1.781-1.572,2.924l-1.81,14.729L7.033,27&#xd;&#xa;&#x9;&#x9;&#x9;&#x9;&#x9;l1.989-1.772l1.81-14.729c0.02-0.16,0.105-0.312,0.227-0.417L8.858,7.573L8.858,7.573z" />
     <path xmlns="http://www.w3.org/2000/svg" fill="#4D4D4D" d="M29.391,43.496c0.914,0,1.658,0.744,1.658,1.654c0,0.914-0.744,1.657-1.658,1.657&#xd;&#xa;&#x9;&#x9;&#x9;&#x9;&#x9;s-1.658-0.743-1.658-1.657C27.733,44.24,28.477,43.496,29.391,43.496 M29.391,43.045c-1.164,0-2.107,0.94-2.107,2.105&#xd;&#xa;&#x9;&#x9;&#x9;&#x9;&#x9;s0.943,2.108,2.107,2.108c1.166,0,2.109-0.943,2.109-2.108S30.557,43.045,29.391,43.045L29.391,43.045z" />
    </g>
   </g>
  </g>
 </g>
</svg>
