<?xml version='1.0' encoding='utf-8'?>
<!DOCTYPE svg PUBLIC '-//W3C//DTD SVG 1.1//EN' 'http://www.w3.org/Graphics/SVG/1.1/DTD/svg11.dtd'>
<!-- Generator: Adobe Illustrator 15.0.1, SVG Export Plug-In . SVG Version: 6.00 Build 0)  -->
<svg xmlns="http://www.w3.org/2000/svg" width="1.14299in" xml:space="preserve" xmlns:xml="http://www.w3.org/XML/1998/namespace" x="0px" version="1.1" y="0px" height="2.1in" viewBox="0 0 82.295 151.2" id="Ebene_1" enable-background="new 0 0 82.295 151.2">
 <desc >Fritzing breadboard generated by brd2svg</desc>
 <g  id="breadboard">
  <g  id="icon">
   <circle  fill="none" cx="67.351" cy="21.6" stroke="#9A916C" id="connector22pin" r="1.843" stroke-width="1.1339"/>
   <circle  fill="none" cx="67.351" cy="28.8" stroke="#9A916C" id="connector23pin" r="1.843" stroke-width="1.1339"/>
   <circle  fill="none" cx="67.351" cy="36" stroke="#9A916C" id="connector24pin" r="1.843" stroke-width="1.1339"/>
   <circle  fill="none" cx="67.351" cy="43.2" stroke="#9A916C" id="connector25pin" r="1.843" stroke-width="1.1339"/>
   <circle  fill="none" cx="67.351" cy="57.6" stroke="#9A916C" id="connector26pin" r="1.843" stroke-width="1.1339"/>
   <circle  fill="none" cx="67.351" cy="64.8" stroke="#9A916C" id="connector27pin" r="1.843" stroke-width="1.1339"/>
   <circle  fill="none" cx="67.351" cy="79.2" stroke="#9A916C" id="connector28pin" r="1.842" stroke-width="1.1339"/>
   <circle  fill="none" cx="67.351" cy="86.4" stroke="#9A916C" id="connector29pin" r="1.843" stroke-width="1.1339"/>
   <circle  fill="none" cx="67.351" cy="93.6" stroke="#9A916C" id="connector30pin" r="1.842" stroke-width="1.1339"/>
   <circle  fill="none" cx="67.351" cy="100.8" stroke="#9A916C" id="connector31pin" r="1.843" stroke-width="1.1339"/>
   <circle  fill="none" cx="16.951" cy="100.8" stroke="#9A916C" id="connector32pin" r="1.843" stroke-width="1.1339"/>
   <circle  fill="none" cx="16.951" cy="93.6" stroke="#9A916C" id="connector33pin" r="1.842" stroke-width="1.1339"/>
   <circle  fill="none" cx="16.951" cy="86.4" stroke="#9A916C" id="connector34pin" r="1.843" stroke-width="1.1339"/>
   <circle  fill="none" cx="16.951" cy="79.2" stroke="#9A916C" id="connector35pin" r="1.842" stroke-width="1.1339"/>
   <circle  fill="none" cx="16.951" cy="64.8" stroke="#9A916C" id="connector36pin" r="1.843" stroke-width="1.1339"/>
   <circle  fill="none" cx="16.951" cy="57.6" stroke="#9A916C" id="connector37pin" r="1.843" stroke-width="1.1339"/>
   <circle  fill="none" cx="16.951" cy="43.2" stroke="#9A916C" id="connector38pin" r="1.843" stroke-width="1.1339"/>
   <circle  fill="none" cx="16.951" cy="36" stroke="#9A916C" id="connector39pin" r="1.843" stroke-width="1.1339"/>
   <circle  fill="none" cx="16.951" cy="28.8" stroke="#9A916C" id="connector40pin" r="1.843" stroke-width="1.1339"/>
   <circle  fill="none" cx="16.951" cy="21.6" stroke="#9A916C" id="connector41pin" r="1.843" stroke-width="1.1339"/>
  </g>
 </g>
 <g  id="breadboard_1_">
  <g  id="icon_1_">
   <path  fill="#C62717" d="M9.751,151.2h64.8V0h-64.8V151.2 M12.271,7.2c-0.001-2.585,2.095-4.681,4.679-4.683c2.585-0.001,4.682,2.093,4.683,4.678c0,0.001,0,0.003,0,0.005c0.001,2.584-2.095,4.68-4.679,4.681c-2.585,0-4.682-2.095-4.683-4.679C12.271,7.201,12.271,7.201,12.271,7.2z M62.671,7.2c-0.002-2.585,2.092-4.682,4.678-4.684c2.584-0.002,4.683,2.092,4.685,4.676c0,0.002,0,0.005,0,0.008c0,2.584-2.097,4.68-4.683,4.68C64.767,11.88,62.671,9.785,62.671,7.2z M66.075,21.6c-0.001-0.705,0.567-1.276,1.272-1.277c0.705,0,1.276,0.57,1.277,1.274c0,0.001,0,0.002,0,0.003c0,0.705-0.57,1.276-1.273,1.277c-0.705,0.001-1.275-0.569-1.276-1.274C66.075,21.602,66.075,21.601,66.075,21.6z M66.075,28.8c-0.001-0.704,0.567-1.276,1.272-1.277s1.276,0.569,1.277,1.274c0,0.001,0,0.002,0,0.003c0,0.705-0.57,1.276-1.273,1.277c-0.705,0.001-1.275-0.569-1.276-1.274C66.075,28.802,66.075,28.801,66.075,28.8z M66.075,36c-0.001-0.705,0.567-1.276,1.272-1.277c0.705,0,1.276,0.57,1.277,1.274c0,0.001,0,0.002,0,0.003c0,0.705-0.57,1.276-1.273,1.277c-0.705,0-1.275-0.57-1.276-1.274C66.075,36.002,66.075,36.001,66.075,36z M66.075,43.2c-0.001-0.705,0.567-1.276,1.272-1.277s1.276,0.569,1.277,1.274c0,0.001,0,0.002,0,0.003c0,0.704-0.57,1.276-1.273,1.277c-0.705,0.001-1.275-0.569-1.276-1.274C66.075,43.202,66.075,43.201,66.075,43.2z M66.075,57.6c-0.001-0.705,0.567-1.276,1.272-1.277c0.705,0,1.276,0.57,1.277,1.274c0,0.001,0,0.002,0,0.003c0,0.705-0.57,1.276-1.273,1.277c-0.705,0.001-1.275-0.569-1.276-1.274C66.075,57.602,66.075,57.601,66.075,57.6z M66.075,64.8c-0.001-0.704,0.567-1.276,1.272-1.277s1.276,0.569,1.277,1.274c0,0.001,0,0.002,0,0.003c0,0.705-0.57,1.276-1.273,1.277c-0.705,0.001-1.275-0.569-1.276-1.274C66.075,64.802,66.075,64.801,66.075,64.8z M66.075,79.2c-0.001-0.703,0.567-1.275,1.272-1.277c0.705,0,1.276,0.57,1.277,1.275V79.2c0,0.705-0.57,1.276-1.273,1.277c-0.705,0.001-1.275-0.568-1.276-1.273C66.075,79.202,66.075,79.202,66.075,79.2z M66.075,86.4c-0.001-0.704,0.567-1.276,1.272-1.276c0.705-0.002,1.276,0.568,1.277,1.273c0,0.001,0,0.002,0,0.003c0,0.704-0.57,1.276-1.273,1.276c-0.705,0.002-1.275-0.568-1.276-1.273C66.075,86.403,66.075,86.401,66.075,86.4z M66.075,93.6c-0.001-0.705,0.567-1.275,1.272-1.277c0.705,0,1.276,0.57,1.277,1.273c0,0.002,0,0.003,0,0.004c0,0.705-0.57,1.275-1.273,1.277c-0.705,0-1.275-0.57-1.276-1.274C66.075,93.602,66.075,93.601,66.075,93.6z M66.075,100.799c-0.001-0.703,0.567-1.275,1.272-1.276s1.276,0.569,1.277,1.274v0.002c0,0.705-0.57,1.277-1.273,1.277c-0.705,0.002-1.275-0.568-1.276-1.273C66.075,100.801,66.075,100.801,66.075,100.799z M15.676,100.799c0-0.703,0.57-1.275,1.275-1.275c0.704,0,1.274,0.572,1.274,1.275c0,0.705-0.57,1.275-1.274,1.275C16.246,102.077,15.676,101.504,15.676,100.799z M15.676,93.6c0-0.705,0.57-1.275,1.275-1.275c0.704,0,1.274,0.57,1.274,1.275l0,0c0,0.705-0.57,1.275-1.274,1.275C16.246,94.875,15.676,94.305,15.676,93.6z M15.676,86.4c0-0.704,0.57-1.274,1.275-1.274c0.704,0,1.274,0.57,1.274,1.274s-0.57,1.276-1.274,1.276C16.246,87.676,15.676,87.104,15.676,86.4z M15.676,79.2c0-0.703,0.57-1.275,1.275-1.275c0.704,0,1.274,0.572,1.274,1.275l0,0c0,0.705-0.57,1.275-1.274,1.275C16.246,80.475,15.676,79.905,15.676,79.2z M15.676,64.8c0-0.704,0.57-1.275,1.275-1.275c0.704,0,1.274,0.571,1.274,1.275c0,0.705-0.57,1.276-1.274,1.276C16.246,66.076,15.676,65.504,15.676,64.8z M15.676,57.6c0-0.705,0.57-1.276,1.275-1.276c0.704,0,1.274,0.571,1.274,1.276l0,0c0,0.705-0.57,1.275-1.274,1.275C16.246,58.875,15.676,58.305,15.676,57.6z M15.676,43.2c0-0.705,0.57-1.276,1.275-1.276c0.704,0,1.274,0.571,1.274,1.276c0,0.704-0.57,1.275-1.274,1.275C16.246,44.476,15.676,43.904,15.676,43.2z M15.676,36c0-0.705,0.57-1.275,1.275-1.275c0.704,0,1.274,0.571,1.274,1.275s-0.57,1.275-1.274,1.275C16.246,37.275,15.676,36.705,15.676,36z M15.676,28.8c0-0.704,0.57-1.275,1.275-1.275c0.704,0,1.274,0.571,1.274,1.275l0,0c0,0.705-0.57,1.276-1.274,1.276C16.246,30.076,15.676,29.504,15.676,28.8z M15.676,21.6c0-0.705,0.57-1.276,1.275-1.276c0.704,0,1.274,0.571,1.274,1.276s-0.57,1.275-1.274,1.275C16.246,22.875,15.676,22.305,15.676,21.6z"/>
   <g >
    <title >layer 21</title>
    <g >
     <title >text:AlphaNumeric</title>
     <text  fill="#FFFFFF" font-family="OCRA" transform="matrix(1 0 0 1 20.1921 84.2388)" font-size="5.0112">AlphaNumeric</text>
    </g>
    <g >
     <title >text:Display</title>
     <text  fill="#FFFFFF" font-family="OCRA" transform="matrix(1 0 0 1 29.9119 90.7183)" font-size="5.0112">Display</text>
    </g>
    <g >
     <title >text:Driver</title>
     <text  fill="#FFFFFF" font-family="OCRA" transform="matrix(1 0 0 1 32.0715 97.1997)" font-size="5.0112">Driver</text>
    </g>
    <g >
     <title >text:LE</title>
     <text  fill="#FFFFFF" font-family="OCRA" transform="matrix(1 0 0 1 20.9119 127.1812)" font-size="3.3408">LE</text>
    </g>
    <g >
     <title >text:CLK</title>
     <text  fill="#FFFFFF" font-family="OCRA" transform="matrix(1 0 0 1 19.4714 119.981)" font-size="3.3408">CLK</text>
    </g>
    <g >
     <title >text:SDO</title>
     <text  fill="#FFFFFF" font-family="OCRA" transform="matrix(1 0 0 1 19.4714 112.7808)" font-size="3.3408">SDO</text>
    </g>
    <g >
     <title >text:OE</title>
     <text  fill="#FFFFFF" font-family="OCRA" transform="matrix(1 0 0 1 20.9119 134.3794)" font-size="3.3408">OE</text>
    </g>
    <g >
     <title >text:VCC</title>
     <text  fill="#FFFFFF" font-family="OCRA" transform="matrix(1 0 0 1 19.4714 141.5806)" font-size="3.3408">VCC</text>
    </g>
    <g >
     <title >text:GND</title>
     <text  fill="#FFFFFF" font-family="OCRA" transform="matrix(1 0 0 1 19.4714 148.7808)" font-size="3.3408">GND</text>
    </g>
    <g >
     <title >text:LE</title>
     <text  fill="#FFFFFF" font-family="OCRA" transform="matrix(1 0 0 1 59.593 127.2368)" font-size="3.3408">LE</text>
    </g>
    <g >
     <title >text:CLK</title>
     <text  fill="#FFFFFF" font-family="OCRA" transform="matrix(1 0 0 1 58.1516 120.0376)" font-size="3.3408">CLK</text>
    </g>
    <g >
     <title >text:SDI</title>
     <text  fill="#FFFFFF" font-family="OCRA" transform="matrix(1 0 0 1 58.5129 112.8384)" font-size="3.3408">SDI</text>
    </g>
    <g >
     <title >text:OE</title>
     <text  fill="#FFFFFF" font-family="OCRA" transform="matrix(1 0 0 1 59.593 134.438)" font-size="3.3408">OE</text>
    </g>
    <g >
     <title >text:VCC</title>
     <text  fill="#FFFFFF" font-family="OCRA" transform="matrix(1 0 0 1 58.1516 141.6372)" font-size="3.3408">VCC</text>
    </g>
    <g >
     <title >text:GND</title>
     <text  fill="#FFFFFF" font-family="OCRA" transform="matrix(1 0 0 1 58.1516 148.8384)" font-size="3.3408">GND</text>
    </g>
    <g >
     <title >element:C1</title>
     <g >
      <title >package:EIA3216</title>
      <line  fill="none" stroke="#FFFFFF" stroke-linecap="round" y1="18.198" stroke-width="0.576" x1="55.785" y2="18.198" x2="60.037"/>
      <line  fill="none" stroke="#FFFFFF" stroke-linecap="round" y1="18.198" stroke-width="0.576" x1="60.037" y2="25.001" x2="60.037"/>
      <line  fill="none" stroke="#FFFFFF" stroke-linecap="round" y1="25.001" stroke-width="0.576" x1="60.037" y2="25.001" x2="55.785"/>
      <line  fill="none" stroke="#FFFFFF" stroke-linecap="round" y1="18.198" stroke-width="0.576" x1="50.116" y2="18.198" x2="46.998"/>
      <line  fill="none" stroke="#FFFFFF" stroke-linecap="round" y1="18.198" stroke-width="0.576" x1="46.998" y2="19.332" x2="45.865"/>
      <line  fill="none" stroke="#FFFFFF" stroke-linecap="round" y1="19.332" stroke-width="0.576" x1="45.865" y2="23.868" x2="45.865"/>
      <line  fill="none" stroke="#FFFFFF" stroke-linecap="round" y1="23.868" stroke-width="0.576" x1="45.865" y2="25.001" x2="46.998"/>
      <line  fill="none" stroke="#FFFFFF" stroke-linecap="round" y1="25.001" stroke-width="0.576" x1="46.998" y2="25.001" x2="50.116"/>
      <line  fill="none" stroke="#FFFFFF" stroke-linecap="round" y1="24.48" stroke-width="0.36" x1="51.871" y2="18.72" x2="51.871"/>
     </g>
    </g>
    <g >
     <title >element:C2</title>
     <g >
      <title >package:0402-CAP</title>
      <line  fill="none" stroke="#FFFFFF" stroke-linecap="round" y1="21.6" stroke-width="1.152" x1="27.664" y2="21.6" x2="27.837"/>
     </g>
    </g>
    <g >
     <title >element:JP1</title>
     <g >
      <title >package:SFE-LOGO-FLAME</title>
      <title >polygon</title>
     </g>
    </g>
    <g >
     <path  fill="#FFFFFF" d="M20.107,52.217c0,0-0.481,0.113-0.55-0.251c-0.045-0.254,0.206-0.663,0.457-0.869c0.31-0.255,0.554-0.223,0.771-0.023c0.326,0.297,0.199,0.805,0.199,0.805s0.818-0.932,0.149-1.902c-0.595-0.863-1.406-0.615-2.113,0.162c-0.64,0.703-1.341,0.145-1.249-0.563c0.062-0.486,0.45-0.686,0.69-0.568c0.205,0.103,0.33,0.449,0.33,0.449s0.163-0.4-0.017-0.871c-0.157-0.423-0.508-0.771-1.383-0.744h-4.06c0,0,0.54,0.438,1.088,0.95c0.618,0.577,1.036,0.839,0.985,1.43c-0.067,1.119,0.43,1.928,1.227,2.477C18.165,53.752,19.878,52.926,20.107,52.217z"/>
    </g>
    <g >
     <title >element:JP2</title>
     <g >
      <title >package:STAND-OFF</title>
     </g>
    </g>
    <g >
     <title >element:JP3</title>
     <g >
      <title >package:STAND-OFF</title>
     </g>
    </g>
    <g >
     <title >element:JP4</title>
     <g >
      <title >package:SFE-NEW-WEB</title>
      <title >polygon</title>
      <title >polygon</title>
      <title >polygon</title>
      <title >polygon</title>
      <title >polygon</title>
      <title >polygon</title>
      <title >polygon</title>
      <title >polygon</title>
      <title >polygon</title>
     </g>
    </g>
    <g >
     <title >element:JP5</title>
     <g >
      <title >package:SFE-LOGO-FLAME</title>
      <title >polygon</title>
     </g>
    </g>
    <g >
     <title >element:JP6</title>
     <g >
      <title >package:FIDUCIAL-1X2</title>
     </g>
    </g>
    <g >
     <title >element:JP7</title>
     <g >
      <title >package:FIDUCIAL-1X2</title>
     </g>
    </g>
    <g >
     <title >element:OUTPUT</title>
     <g >
      <title >package:1X06-SMD</title>
     </g>
    </g>
    <g >
     <title >element:R1</title>
     <g >
      <title >package:0402-RES</title>
     </g>
    </g>
    <g >
     <title >element:R2</title>
     <g >
      <title >package:1/6W-RES</title>
      <line  fill="none" stroke="#FFFFFF" stroke-linecap="round" y1="63.609" stroke-width="0.576" x1="46.545" y2="58.791" x2="46.545"/>
      <line  fill="none" stroke="#FFFFFF" stroke-linecap="round" y1="58.791" stroke-width="0.576" x1="46.545" y2="58.791" x2="37.757"/>
      <line  fill="none" stroke="#FFFFFF" stroke-linecap="round" y1="58.791" stroke-width="0.576" x1="37.757" y2="63.609" x2="37.757"/>
      <line  fill="none" stroke="#FFFFFF" stroke-linecap="round" y1="63.609" stroke-width="0.576" x1="37.757" y2="63.609" x2="46.545"/>
     </g>
    </g>
    <g >
     <title >element:U1</title>
     <g >
      <title >package:ALPHANUMERIC</title>
     </g>
    </g>
    <g >
     <title >element:U2</title>
     <g >
      <title >package:SOT23-5</title>
      <line  fill="none" stroke="#FFFFFF" stroke-linecap="round" y1="20.383" stroke-width="0.576" x1="42.583" y2="22.817" x2="42.583"/>
      <line  fill="none" stroke="#FFFFFF" stroke-linecap="round" y1="22.817" stroke-width="0.576" x1="34.519" y2="20.383" x2="34.519"/>
      <line  fill="none" stroke="#FFFFFF" stroke-linecap="round" y1="19.303" stroke-width="0.576" x1="37.79" y2="19.303" x2="39.312"/>
     </g>
    </g>
    <g >
     <title >element:U3</title>
     <g >
      <title >package:TSSOP-24</title>
      <line  fill="none" stroke="#FFFFFF" stroke-linecap="round" y1="54.255" stroke-width="0.576" x1="47.822" y2="54.255" x2="36.482"/>
      <line  fill="none" stroke="#FFFFFF" stroke-linecap="round" y1="32.145" stroke-width="0.576" x1="36.482" y2="32.145" x2="47.822"/>
      <circle  fill="none" cx="46.058" cy="52.146" stroke="#FFFFFF" r="0.632" stroke-width="0.576"/>
     </g>
    </g>
    <g >
     <path  fill="#FFFFFF" d="M64.23,48.579c0,0,0.481-0.113,0.55,0.251c0.045,0.254-0.206,0.663-0.457,0.869c-0.31,0.255-0.554,0.223-0.771,0.023c-0.326-0.297-0.199-0.805-0.199-0.805s-0.818,0.932-0.149,1.902c0.595,0.863,1.406,0.615,2.113-0.162c0.64-0.703,1.341-0.145,1.249,0.563c-0.062,0.486-0.45,0.686-0.69,0.568c-0.205-0.103-0.33-0.449-0.33-0.449s-0.163,0.4,0.017,0.871c0.157,0.423,0.508,0.771,1.383,0.744h4.06c0,0-0.54-0.438-1.088-0.95c-0.618-0.577-1.036-0.839-0.985-1.43c0.067-1.119-0.43-1.928-1.227-2.477C66.171,47.044,64.458,47.87,64.23,48.579z"/>
    </g>
    <g >
     <g >
      <g >
       <g >
        <g >
         <path  fill="#FFFFFF" d="M26.044,75.426c0,0.528,0.47,0.754,0.947,0.754c0.347,0,0.808-0.137,0.808-0.572c0-0.374-0.521-0.514-1.398-0.691c-0.721-0.166-1.424-0.4-1.424-1.199c0-1.146,0.989-1.442,1.953-1.442c0.973,0,1.884,0.331,1.98,1.437h-1.172c-0.036-0.479-0.4-0.609-0.843-0.609c-0.278,0-0.687,0.044-0.687,0.418c0,0.44,0.705,0.503,1.399,0.667c0.72,0.167,1.424,0.427,1.424,1.261c0,1.181-1.034,1.562-2.05,1.562c-1.041,0-2.065-0.389-2.109-1.58h1.172V75.426z"/>
         <path  fill="#FFFFFF" d="M29.523,72.604l1.173-0.209v0.573h0.017c0.304-0.486,0.781-0.695,1.337-0.695c1.406,0,2.04,1.141,2.04,2.413c0,1.2-0.651,2.319-1.971,2.319c-0.547,0-1.042-0.234-1.345-0.676h-0.017v3.23l-1.234-1.096V72.604z M32.857,74.653c0-0.722-0.286-1.449-1.075-1.449c-0.808,0-1.068,0.722-1.068,1.449c0,0.729,0.277,1.424,1.076,1.424C32.597,76.076,32.857,75.382,32.857,74.653z"/>
         <path  fill="#FFFFFF" d="M34.583,73.776c0.069-1.146,1.103-1.504,2.11-1.504c0.895,0,1.971,0.201,1.971,1.277v2.336c0,0.408,0.044,0.814,0.156,0.998h-1.25c-0.043-0.139-0.078-0.287-0.088-0.434c-0.39,0.406-0.955,0.555-1.511,0.555c-0.859,0-1.527-0.424-1.527-1.345c0.017-2.039,3.038-0.946,2.986-1.952c0-0.522-0.365-0.609-0.798-0.609c-0.478,0-0.773,0.191-0.816,0.679H34.583z M37.431,74.686c-0.208,0.187-0.642,0.192-1.024,0.264c-0.382,0.068-0.73,0.209-0.73,0.658c0,0.45,0.356,0.573,0.756,0.573c0.963,0,0.998-0.755,0.998-1.034V74.686z"/>
         <path  fill="#FFFFFF" d="M39.362,72.604l1.173-0.209v0.834h0.016c0.235-0.562,0.817-0.956,1.432-0.956c0.097,0,0.183,0.021,0.271,0.045v1.146c-0.112-0.025-0.295-0.045-0.442-0.045c-0.912,0-1.215,0.643-1.215,1.44v2.024h-1.233v-4.281L39.362,72.604L39.362,72.604z"/>
         <path  fill="#FFFFFF" d="M42.73,71.361l1.232-0.677v3.326l1.555-1.616h1.459l-1.693,1.65l1.883,2.838h-1.493l-1.231-2.005l-0.479,0.46v1.545H42.73V71.361z"/>
         <path  fill="#FFFFFF" d="M47.915,73.219h-1.216l0.84-0.824h0.375V72.05c0-0.8,0.496-1.364,1.502-1.364c0.217,0,0.443,0.026,0.65,0.034v0.921c-0.146-0.017-0.303-0.024-0.45-0.024c-0.339,0-0.47,0.139-0.47,0.513v0.268h0.852v0.824h-0.852v3.665h-1.232L47.915,73.219L47.915,73.219z"/>
         <path  fill="#FFFFFF" d="M54.555,76.885h-1.17v-0.627h-0.027c-0.312,0.512-0.851,0.746-1.371,0.746c-1.312,0-1.641-0.736-1.641-1.847v-2.763h1.232v2.535c0,0.739,0.208,1.104,0.789,1.104c0.669,0,0.955-0.373,0.955-1.284v-2.355h1.232V76.885L54.555,76.885z"/>
         <path  fill="#FFFFFF" d="M55.237,72.395h1.173v0.625h0.026c0.312-0.511,0.85-0.747,1.369-0.747c1.312,0,1.643,0.739,1.643,1.853v2.76h-1.233v-2.534c0-0.739-0.209-1.104-0.789-1.104c-0.67,0-0.954,0.374-0.954,1.285v2.352h-1.234V72.395L55.237,72.395z"/>
        </g>
       </g>
      </g>
     </g>
    </g>
   </g>
   <rect  width="14.173" x="45.865" y="18.198" fill="#FFFFFF" height="6.803" fill-opacity="0.15"/>
   <rect  width="1.149" x="41.575" y="60.192" fill="#FFFFFF" height="2.016" fill-opacity="0.15"/>
   <rect  width="8.788" x="37.757" y="58.791" fill="#FFFFFF" height="4.819" fill-opacity="0.15"/>
   <rect  width="8.064" x="34.519" y="19.303" fill="#FFFFFF" height="3.515" fill-opacity="0.15"/>
   <rect  width="11.34" x="36.482" y="32.145" fill="#FFFFFF" height="22.11" fill-opacity="0.15"/>
   <g  transform="matrix(0, -1, 1, 0, -62.0447, 161.155)">
    <rect  width="2.834" x="48.138" y="131.488" fill="#9A916C" height="2.836" id="connector4pin" transform="matrix(-2.547107e-06 -1 1 -2.547107e-06 -83.3513 182.4615)"/>
   </g>
   <g  transform="matrix(0, -1, 1, 0, -69.2447, 168.355)">
    <rect  width="2.834" x="48.138" y="138.689" fill="#9A916C" height="2.834" id="connector5pin" transform="matrix(-2.547107e-06 -1 1 -2.547107e-06 -90.5515 189.6613)"/>
   </g>
   <g  transform="matrix(0, -1, 1, 0, -76.4446, 175.555)">
    <rect  width="2.834" x="48.138" y="145.888" fill="#9A916C" height="2.834" id="connector6pin" transform="matrix(-2.547107e-06 -1 1 -2.547107e-06 -97.7506 196.8601)"/>
   </g>
   <g  transform="matrix(0, -1, 1, 0, -83.6446, 182.755)">
    <rect  width="2.834" x="48.137" y="153.089" fill="#9A916C" height="2.836" id="connector7pin" transform="matrix(-2.547107e-06 -1 1 -2.547107e-06 -104.9527 204.0619)"/>
   </g>
   <g  transform="matrix(0, -1, 1, 0, -90.8446, 189.955)">
    <rect  width="2.835" x="48.137" y="160.29" fill="#9A916C" height="2.834" id="connector8pin" transform="matrix(-2.547107e-06 -1 1 -2.547107e-06 -112.1524 211.2612)"/>
   </g>
   <g  transform="matrix(0, -1, 1, 0, -98.0446, 197.155)">
    <rect  width="2.834" x="48.138" y="167.488" fill="#9A916C" height="2.836" id="connector9pin" transform="matrix(-2.547107e-06 -1 1 -2.547107e-06 -119.3512 218.4615)"/>
   </g>
   <rect  width="2.835" x="11.933" y="110.183" fill="#9A916C" height="2.834" id="connector12pin"/>
   <rect  width="2.835" x="11.933" y="117.381" fill="#9A916C" height="2.836" id="connector13pin"/>
   <rect  width="2.835" x="11.933" y="124.583" fill="#9A916C" height="2.834" id="connector14pin"/>
   <rect  width="2.835" x="11.933" y="131.784" fill="#9A916C" height="2.834" id="connector15pin"/>
   <rect  width="2.835" x="11.933" y="138.983" fill="#9A916C" height="2.835" id="connector16pin"/>
   <rect  width="2.835" x="11.933" y="146.183" fill="#9A916C" height="2.834" id="connector17pin"/>
   <circle  fill="none" cx="67.351" cy="21.6" stroke="#9A916C" id="connector22pin_1_" r="1.843" stroke-width="1.1339"/>
   <circle  fill="none" cx="67.351" cy="28.8" stroke="#9A916C" id="connector23pin_1_" r="1.843" stroke-width="1.1339"/>
   <circle  fill="none" cx="67.351" cy="36" stroke="#9A916C" id="connector24pin_1_" r="1.843" stroke-width="1.1339"/>
   <circle  fill="none" cx="67.351" cy="43.2" stroke="#9A916C" id="connector25pin_1_" r="1.843" stroke-width="1.1339"/>
   <circle  fill="none" cx="67.351" cy="57.6" stroke="#9A916C" id="connector26pin_1_" r="1.843" stroke-width="1.1339"/>
   <circle  fill="none" cx="67.351" cy="64.8" stroke="#9A916C" id="connector27pin_1_" r="1.843" stroke-width="1.1339"/>
   <circle  fill="none" cx="67.351" cy="79.2" stroke="#9A916C" id="connector28pin_1_" r="1.842" stroke-width="1.1339"/>
   <circle  fill="none" cx="67.351" cy="86.4" stroke="#9A916C" id="connector29pin_1_" r="1.843" stroke-width="1.1339"/>
   <circle  fill="none" cx="67.351" cy="93.6" stroke="#9A916C" id="connector30pin_1_" r="1.842" stroke-width="1.1339"/>
   <circle  fill="none" cx="67.351" cy="100.8" stroke="#9A916C" id="connector31pin_1_" r="1.843" stroke-width="1.1339"/>
   <circle  fill="none" cx="16.951" cy="100.8" stroke="#9A916C" id="connector32pin_1_" r="1.843" stroke-width="1.1339"/>
   <circle  fill="none" cx="16.951" cy="93.6" stroke="#9A916C" id="connector33pin_1_" r="1.842" stroke-width="1.1339"/>
   <circle  fill="none" cx="16.951" cy="86.4" stroke="#9A916C" id="connector34pin_1_" r="1.843" stroke-width="1.1339"/>
   <circle  fill="none" cx="16.951" cy="79.2" stroke="#9A916C" id="connector35pin_1_" r="1.842" stroke-width="1.1339"/>
   <circle  fill="none" cx="16.951" cy="64.8" stroke="#9A916C" id="connector36pin_1_" r="1.843" stroke-width="1.1339"/>
   <circle  fill="none" cx="16.951" cy="57.6" stroke="#9A916C" id="connector37pin_1_" r="1.843" stroke-width="1.1339"/>
   <circle  fill="none" cx="16.951" cy="43.2" stroke="#9A916C" id="connector38pin_1_" r="1.843" stroke-width="1.1339"/>
   <circle  fill="none" cx="16.951" cy="36" stroke="#9A916C" id="connector39pin_1_" r="1.843" stroke-width="1.1339"/>
   <circle  fill="none" cx="16.951" cy="28.8" stroke="#9A916C" id="connector40pin_1_" r="1.843" stroke-width="1.1339"/>
   <circle  fill="none" cx="16.951" cy="21.6" stroke="#9A916C" id="connector41pin_1_" r="1.843" stroke-width="1.1339"/>
   <g >
    <rect  width="7.198" x="67.289" y="108" fill="#404040" height="43.199"/>
    <rect  width="2.78" x="69.498" y="110.209" height="2.781"/>
    <polygon  fill="#2A2A29" points="73.306,109.185 72.281,110.208 72.281,112.993 73.306,114.017 "/>
    <polygon  fill="#474747" points="73.306,114.017 72.279,112.993 69.496,112.993 68.474,114.017 "/>
    <polygon  fill="#595959" points="68.474,114.016 69.496,112.991 69.496,110.208 68.474,109.185 "/>
    <polygon  fill="#373737" points="68.474,109.183 69.498,110.208 72.281,110.208 73.306,109.183 "/>
    <rect  width="2.78" x="69.498" y="117.411" height="2.781"/>
    <polygon  fill="#2A2A29" points="73.306,116.383 72.281,117.409 72.281,120.191 73.306,121.215 "/>
    <polygon  fill="#474747" points="73.306,121.215 72.279,120.191 69.496,120.191 68.474,121.215 "/>
    <polygon  fill="#595959" points="68.474,121.215 69.496,120.19 69.496,117.409 68.474,116.383 "/>
    <polygon  fill="#373737" points="68.474,116.381 69.498,117.409 72.281,117.409 73.306,116.381 "/>
    <rect  width="2.78" x="69.498" y="124.61" height="2.781"/>
    <polygon  fill="#2A2A29" points="73.306,123.584 72.281,124.608 72.281,127.392 73.306,128.417 "/>
    <polygon  fill="#474747" points="73.306,128.417 72.279,127.392 69.496,127.392 68.474,128.417 "/>
    <polygon  fill="#595959" points="68.474,128.417 69.496,127.391 69.496,124.608 68.474,123.584 "/>
    <polygon  fill="#373737" points="68.474,123.583 69.498,124.608 72.281,124.608 73.306,123.583 "/>
    <rect  width="2.78" x="69.498" y="131.811" height="2.781"/>
    <polygon  fill="#2A2A29" points="73.306,130.786 72.281,131.809 72.281,134.592 73.306,135.618 "/>
    <polygon  fill="#474747" points="73.306,135.618 72.279,134.592 69.496,134.592 68.474,135.618 "/>
    <polygon  fill="#595959" points="68.474,135.616 69.496,134.59 69.496,131.809 68.474,130.786 "/>
    <polygon  fill="#373737" points="68.474,130.782 69.498,131.809 72.281,131.809 73.306,130.782 "/>
    <rect  width="2.78" x="69.498" y="139.01" height="2.781"/>
    <polygon  fill="#2A2A29" points="73.306,137.985 72.281,139.008 72.281,141.792 73.306,142.817 "/>
    <polygon  fill="#474747" points="73.306,142.817 72.279,141.792 69.496,141.792 68.474,142.817 "/>
    <polygon  fill="#595959" points="68.474,142.815 69.496,141.792 69.496,139.008 68.474,137.985 "/>
    <polygon  fill="#373737" points="68.474,137.983 69.498,139.008 72.281,139.008 73.306,137.983 "/>
    <rect  width="2.78" x="69.498" y="146.209" height="2.781"/>
    <polygon  fill="#2A2A29" points="73.306,145.184 72.281,146.208 72.281,148.993 73.306,150.016 "/>
    <polygon  fill="#474747" points="73.306,150.016 72.279,148.993 69.496,148.993 68.474,150.016 "/>
    <polygon  fill="#595959" points="68.474,150.016 69.496,148.991 69.496,146.208 68.474,145.184 "/>
    <polygon  fill="#373737" points="68.474,145.182 69.498,146.208 72.281,146.208 73.306,145.182 "/>
   </g>
   <g >
    <polygon  fill="#404040" points="9.751,149.637 11.316,151.2 15.388,151.2 16.95,149.637 16.95,145.564 15.388,144 11.316,144 9.751,145.564 "/>
    <rect  width="2.3" x="12.2" y="146.452" fill="#8D8C8C" height="2.297"/>
    <rect  width="1.185" x="12.759" y="147.008" fill="#8C8663" height="1.182"/>
    <polygon  fill="#B8AF82" points="12.2,148.749 12.759,148.19 12.759,147.008 12.2,146.452 "/>
    <polygon  fill="#80795B" points="13.941,147.008 12.759,147.008 12.2,146.452 14.5,146.452 "/>
    <polygon  fill="#5E5B43" points="13.941,148.19 13.941,147.008 14.5,146.452 14.5,148.749 "/>
    <polygon  fill="#9A916C" points="12.2,148.749 12.759,148.19 13.941,148.19 14.5,148.749 "/>
    <polygon  fill="#404040" points="9.751,142.436 11.316,144 15.388,144 16.95,142.436 16.95,138.364 15.388,136.799 11.316,136.799 9.751,138.364 "/>
    <rect  width="2.3" x="12.2" y="139.25" fill="#8D8C8C" height="2.297"/>
    <rect  width="1.185" x="12.759" y="139.808" fill="#8C8663" height="1.183"/>
    <polygon  fill="#B8AF82" points="12.2,141.547 12.759,140.991 12.759,139.809 12.2,139.25 "/>
    <polygon  fill="#80795B" points="13.941,139.809 12.759,139.809 12.2,139.25 14.5,139.25 "/>
    <polygon  fill="#5E5B43" points="13.941,140.991 13.941,139.809 14.5,139.25 14.5,141.547 "/>
    <polygon  fill="#9A916C" points="12.2,141.547 12.759,140.991 13.941,140.991 14.5,141.547 "/>
    <polygon  fill="#404040" points="9.751,135.237 11.316,136.799 15.388,136.799 16.95,135.237 16.95,131.165 15.388,129.6 11.316,129.6 9.751,131.165 "/>
    <rect  width="2.3" x="12.2" y="132.051" fill="#8D8C8C" height="2.297"/>
    <rect  width="1.185" x="12.759" y="132.608" fill="#8C8663" height="1.184"/>
    <polygon  fill="#B8AF82" points="12.2,134.348 12.759,133.792 12.759,132.609 12.2,132.051 "/>
    <polygon  fill="#80795B" points="13.941,132.609 12.759,132.609 12.2,132.051 14.5,132.051 "/>
    <polygon  fill="#5E5B43" points="13.941,133.792 13.941,132.609 14.5,132.051 14.5,134.348 "/>
    <polygon  fill="#9A916C" points="12.2,134.348 12.759,133.792 13.941,133.792 14.5,134.348 "/>
    <polygon  fill="#404040" points="9.751,128.038 11.316,129.6 15.388,129.6 16.95,128.038 16.95,123.963 15.388,122.401 11.316,122.401 9.751,123.963 "/>
    <rect  width="2.3" x="12.2" y="124.852" fill="#8D8C8C" height="2.297"/>
    <rect  width="1.185" x="12.759" y="125.409" fill="#8C8663" height="1.182"/>
    <polygon  fill="#B8AF82" points="12.2,127.149 12.759,126.59 12.759,125.409 12.2,124.852 "/>
    <polygon  fill="#80795B" points="13.941,125.409 12.759,125.409 12.2,124.852 14.5,124.852 "/>
    <polygon  fill="#5E5B43" points="13.941,126.59 13.941,125.409 14.5,124.852 14.5,127.149 "/>
    <polygon  fill="#9A916C" points="12.2,127.149 12.759,126.59 13.941,126.59 14.5,127.149 "/>
    <polygon  fill="#404040" points="9.751,120.836 11.316,122.401 15.388,122.401 16.95,120.836 16.95,116.764 15.388,115.2 11.316,115.2 9.751,116.764 "/>
    <rect  width="2.3" x="12.2" y="117.651" fill="#8D8C8C" height="2.297"/>
    <rect  width="1.185" x="12.759" y="118.208" fill="#8C8663" height="1.186"/>
    <polygon  fill="#B8AF82" points="12.2,119.948 12.759,119.391 12.759,118.209 12.2,117.651 "/>
    <polygon  fill="#80795B" points="13.941,118.209 12.759,118.209 12.2,117.651 14.5,117.651 "/>
    <polygon  fill="#5E5B43" points="13.941,119.391 13.941,118.209 14.5,117.651 14.5,119.948 "/>
    <polygon  fill="#9A916C" points="12.2,119.948 12.759,119.391 13.941,119.391 14.5,119.948 "/>
    <polygon  fill="#404040" points="9.751,113.637 11.316,115.2 15.388,115.2 16.95,113.637 16.95,109.565 15.388,108 11.316,108 9.751,109.565 "/>
    <rect  width="2.3" x="12.2" y="110.452" fill="#8D8C8C" height="2.297"/>
    <rect  width="1.185" x="12.759" y="111.008" fill="#8C8663" height="1.182"/>
    <polygon  fill="#B8AF82" points="12.2,112.749 12.759,112.19 12.759,111.01 12.2,110.452 "/>
    <polygon  fill="#80795B" points="13.941,111.01 12.759,111.01 12.2,110.452 14.5,110.452 "/>
    <polygon  fill="#5E5B43" points="13.941,112.19 13.941,111.01 14.5,110.452 14.5,112.749 "/>
    <polygon  fill="#9A916C" points="12.2,112.749 12.759,112.19 13.941,112.19 14.5,112.749 "/>
   </g>
  </g>
 </g>
</svg>
