<?xml version='1.0' encoding='utf-8'?>
<!DOCTYPE svg PUBLIC '-//W3C//DTD SVG 1.1//EN' 'http://www.w3.org/Graphics/SVG/1.1/DTD/svg11.dtd'>
<!-- Generator: Adobe Illustrator 15.0.1, SVG Export Plug-In . SVG Version: 6.00 Build 0)  -->
<svg xmlns="http://www.w3.org/2000/svg" width="1.14299in" xml:space="preserve" xmlns:xml="http://www.w3.org/XML/1998/namespace" x="0px" version="1.1" y="0px" height="2.1in" viewBox="0 0 82.295 151.2" id="Ebene_1" enable-background="new 0 0 82.295 151.2">
 <desc >Fritzing breadboard generated by brd2svg</desc>
 <g  id="breadboard">
  <g  id="icon">
   <path  fill="#C62717" d="M9.751,151.2h64.8V0h-64.8V151.2 M12.271,7.2c-0.001-2.585,2.095-4.681,4.679-4.683c2.585-0.001,4.682,2.093,4.683,4.678c0,0.001,0,0.003,0,0.005c0.001,2.584-2.095,4.68-4.679,4.681c-2.585,0-4.682-2.095-4.683-4.679C12.271,7.201,12.271,7.201,12.271,7.2z M62.671,7.2c-0.002-2.585,2.092-4.682,4.678-4.684c2.584-0.002,4.683,2.092,4.685,4.676c0,0.002,0,0.005,0,0.008c0,2.584-2.097,4.68-4.683,4.68C64.767,11.88,62.671,9.785,62.671,7.2z M66.075,21.6c-0.001-0.705,0.567-1.276,1.272-1.277c0.705,0,1.276,0.57,1.277,1.274c0,0.001,0,0.002,0,0.003c0,0.705-0.57,1.276-1.273,1.277c-0.705,0.001-1.275-0.569-1.276-1.274C66.075,21.602,66.075,21.601,66.075,21.6z M66.075,28.8c-0.001-0.704,0.567-1.276,1.272-1.277s1.276,0.569,1.277,1.274c0,0.001,0,0.002,0,0.003c0,0.705-0.57,1.276-1.273,1.277c-0.705,0.001-1.275-0.569-1.276-1.274C66.075,28.802,66.075,28.801,66.075,28.8z M66.075,36c-0.001-0.705,0.567-1.276,1.272-1.277c0.705,0,1.276,0.57,1.277,1.274c0,0.001,0,0.002,0,0.003c0,0.705-0.57,1.276-1.273,1.277c-0.705,0-1.275-0.57-1.276-1.274C66.075,36.002,66.075,36.001,66.075,36z M66.075,43.2c-0.001-0.705,0.567-1.276,1.272-1.277s1.276,0.569,1.277,1.274c0,0.001,0,0.002,0,0.003c0,0.704-0.57,1.276-1.273,1.277c-0.705,0.001-1.275-0.569-1.276-1.274C66.075,43.202,66.075,43.201,66.075,43.2z M66.075,57.6c-0.001-0.705,0.567-1.276,1.272-1.277c0.705,0,1.276,0.57,1.277,1.274c0,0.001,0,0.002,0,0.003c0,0.705-0.57,1.276-1.273,1.277c-0.705,0.001-1.275-0.569-1.276-1.274C66.075,57.602,66.075,57.601,66.075,57.6z M66.075,64.8c-0.001-0.704,0.567-1.276,1.272-1.277s1.276,0.569,1.277,1.274c0,0.001,0,0.002,0,0.003c0,0.705-0.57,1.276-1.273,1.277c-0.705,0.001-1.275-0.569-1.276-1.274C66.075,64.802,66.075,64.801,66.075,64.8z M66.075,79.2c-0.001-0.703,0.567-1.275,1.272-1.277c0.705,0,1.276,0.57,1.277,1.275V79.2c0,0.705-0.57,1.276-1.273,1.277c-0.705,0.001-1.275-0.568-1.276-1.273C66.075,79.202,66.075,79.202,66.075,79.2z M66.075,86.4c-0.001-0.704,0.567-1.276,1.272-1.276c0.705-0.002,1.276,0.568,1.277,1.273c0,0.001,0,0.002,0,0.003c0,0.704-0.57,1.276-1.273,1.276c-0.705,0.002-1.275-0.568-1.276-1.273C66.075,86.403,66.075,86.401,66.075,86.4z M66.075,93.6c-0.001-0.705,0.567-1.275,1.272-1.277c0.705,0,1.276,0.57,1.277,1.273c0,0.002,0,0.003,0,0.004c0,0.705-0.57,1.275-1.273,1.277c-0.705,0-1.275-0.57-1.276-1.274C66.075,93.602,66.075,93.601,66.075,93.6z M66.075,100.799c-0.001-0.703,0.567-1.275,1.272-1.276s1.276,0.569,1.277,1.274v0.002c0,0.705-0.57,1.277-1.273,1.277c-0.705,0.002-1.275-0.568-1.276-1.273C66.075,100.801,66.075,100.801,66.075,100.799z M15.676,100.799c0-0.703,0.57-1.275,1.275-1.275c0.704,0,1.274,0.572,1.274,1.275c0,0.705-0.57,1.275-1.274,1.275C16.246,102.077,15.676,101.504,15.676,100.799z M15.676,93.6c0-0.705,0.57-1.275,1.275-1.275c0.704,0,1.274,0.57,1.274,1.275l0,0c0,0.705-0.57,1.275-1.274,1.275C16.246,94.875,15.676,94.305,15.676,93.6z M15.676,86.4c0-0.704,0.57-1.274,1.275-1.274c0.704,0,1.274,0.57,1.274,1.274s-0.57,1.276-1.274,1.276C16.246,87.676,15.676,87.104,15.676,86.4z M15.676,79.2c0-0.703,0.57-1.275,1.275-1.275c0.704,0,1.274,0.572,1.274,1.275l0,0c0,0.705-0.57,1.275-1.274,1.275C16.246,80.475,15.676,79.905,15.676,79.2z M15.676,64.8c0-0.704,0.57-1.275,1.275-1.275c0.704,0,1.274,0.571,1.274,1.275c0,0.705-0.57,1.276-1.274,1.276C16.246,66.076,15.676,65.504,15.676,64.8z M15.676,57.6c0-0.705,0.57-1.276,1.275-1.276c0.704,0,1.274,0.571,1.274,1.276l0,0c0,0.705-0.57,1.275-1.274,1.275C16.246,58.875,15.676,58.305,15.676,57.6z M15.676,43.2c0-0.705,0.57-1.276,1.275-1.276c0.704,0,1.274,0.571,1.274,1.276c0,0.704-0.57,1.275-1.274,1.275C16.246,44.476,15.676,43.904,15.676,43.2z M15.676,36c0-0.705,0.57-1.275,1.275-1.275c0.704,0,1.274,0.571,1.274,1.275s-0.57,1.275-1.274,1.275C16.246,37.275,15.676,36.705,15.676,36z M15.676,28.8c0-0.704,0.57-1.275,1.275-1.275c0.704,0,1.274,0.571,1.274,1.275l0,0c0,0.705-0.57,1.276-1.274,1.276C16.246,30.076,15.676,29.504,15.676,28.8z M15.676,21.6c0-0.705,0.57-1.276,1.275-1.276c0.704,0,1.274,0.571,1.274,1.276s-0.57,1.275-1.274,1.275C16.246,22.875,15.676,22.305,15.676,21.6z"/>
   <g >
    <title >layer 21</title>
    <g >
     <title >text:AlphaNumeric</title>
     <text  fill="#FFFFFF" font-family="OCRA" transform="matrix(1 0 0 1 20.1921 84.2388)" font-size="5.0112">AlphaNumeric</text>
    </g>
    <g >
     <title >text:Display</title>
     <text  fill="#FFFFFF" font-family="OCRA" transform="matrix(1 0 0 1 29.9119 90.7183)" font-size="5.0112">Display</text>
    </g>
    <g >
     <title >text:Driver</title>
     <text  fill="#FFFFFF" font-family="OCRA" transform="matrix(1 0 0 1 32.0715 97.1997)" font-size="5.0112">Driver</text>
    </g>
    <g >
     <title >text:LE</title>
     <text  fill="#FFFFFF" font-family="OCRA" transform="matrix(1 0 0 1 20.9119 127.1812)" font-size="3.3408">LE</text>
    </g>
    <g >
     <title >text:CLK</title>
     <text  fill="#FFFFFF" font-family="OCRA" transform="matrix(1 0 0 1 19.4714 119.981)" font-size="3.3408">CLK</text>
    </g>
    <g >
     <title >text:SDO</title>
     <text  fill="#FFFFFF" font-family="OCRA" transform="matrix(1 0 0 1 19.4714 112.7808)" font-size="3.3408">SDO</text>
    </g>
    <g >
     <title >text:OE</title>
     <text  fill="#FFFFFF" font-family="OCRA" transform="matrix(1 0 0 1 20.9119 134.3794)" font-size="3.3408">OE</text>
    </g>
    <g >
     <title >text:VCC</title>
     <text  fill="#FFFFFF" font-family="OCRA" transform="matrix(1 0 0 1 19.4714 141.5806)" font-size="3.3408">VCC</text>
    </g>
    <g >
     <title >text:GND</title>
     <text  fill="#FFFFFF" font-family="OCRA" transform="matrix(1 0 0 1 19.4714 148.7808)" font-size="3.3408">GND</text>
    </g>
    <g >
     <title >text:LE</title>
     <text  fill="#FFFFFF" font-family="OCRA" transform="matrix(1 0 0 1 59.593 127.2368)" font-size="3.3408">LE</text>
    </g>
    <g >
     <title >text:CLK</title>
     <text  fill="#FFFFFF" font-family="OCRA" transform="matrix(1 0 0 1 58.1516 120.0376)" font-size="3.3408">CLK</text>
    </g>
    <g >
     <title >text:SDI</title>
     <text  fill="#FFFFFF" font-family="OCRA" transform="matrix(1 0 0 1 58.5129 112.8384)" font-size="3.3408">SDI</text>
    </g>
    <g >
     <title >text:OE</title>
     <text  fill="#FFFFFF" font-family="OCRA" transform="matrix(1 0 0 1 59.593 134.438)" font-size="3.3408">OE</text>
    </g>
    <g >
     <title >text:VCC</title>
     <text  fill="#FFFFFF" font-family="OCRA" transform="matrix(1 0 0 1 58.1516 141.6372)" font-size="3.3408">VCC</text>
    </g>
    <g >
     <title >text:GND</title>
     <text  fill="#FFFFFF" font-family="OCRA" transform="matrix(1 0 0 1 58.1516 148.8384)" font-size="3.3408">GND</text>
    </g>
    <g >
     <title >element:C1</title>
     <g >
      <title >package:EIA3216</title>
      <line  fill="none" stroke="#FFFFFF" stroke-linecap="round" y1="18.198" stroke-width="0.576" x1="55.785" y2="18.198" x2="60.037"/>
      <line  fill="none" stroke="#FFFFFF" stroke-linecap="round" y1="18.198" stroke-width="0.576" x1="60.037" y2="25.001" x2="60.037"/>
      <line  fill="none" stroke="#FFFFFF" stroke-linecap="round" y1="25.001" stroke-width="0.576" x1="60.037" y2="25.001" x2="55.785"/>
      <line  fill="none" stroke="#FFFFFF" stroke-linecap="round" y1="18.198" stroke-width="0.576" x1="50.116" y2="18.198" x2="46.998"/>
      <line  fill="none" stroke="#FFFFFF" stroke-linecap="round" y1="18.198" stroke-width="0.576" x1="46.998" y2="19.332" x2="45.865"/>
      <line  fill="none" stroke="#FFFFFF" stroke-linecap="round" y1="19.332" stroke-width="0.576" x1="45.865" y2="23.868" x2="45.865"/>
      <line  fill="none" stroke="#FFFFFF" stroke-linecap="round" y1="23.868" stroke-width="0.576" x1="45.865" y2="25.001" x2="46.998"/>
      <line  fill="none" stroke="#FFFFFF" stroke-linecap="round" y1="25.001" stroke-width="0.576" x1="46.998" y2="25.001" x2="50.116"/>
      <line  fill="none" stroke="#FFFFFF" stroke-linecap="round" y1="24.48" stroke-width="0.36" x1="51.871" y2="18.72" x2="51.871"/>
     </g>
    </g>
    <g >
     <title >element:C2</title>
     <g >
      <title >package:0402-CAP</title>
      <line  fill="none" stroke="#FFFFFF" stroke-linecap="round" y1="21.6" stroke-width="1.152" x1="27.664" y2="21.6" x2="27.837"/>
     </g>
    </g>
    <g >
     <title >element:JP1</title>
     <g >
      <title >package:SFE-LOGO-FLAME</title>
      <title >polygon</title>
     </g>
    </g>
    <g >
     <title >element:JP2</title>
     <g >
      <title >package:STAND-OFF</title>
     </g>
    </g>
    <g >
     <title >element:JP3</title>
     <g >
      <title >package:STAND-OFF</title>
     </g>
    </g>
    <g >
     <title >element:JP4</title>
     <g >
      <title >package:SFE-NEW-WEB</title>
      <title >polygon</title>
      <title >polygon</title>
      <title >polygon</title>
      <title >polygon</title>
      <title >polygon</title>
      <title >polygon</title>
      <title >polygon</title>
      <title >polygon</title>
      <title >polygon</title>
     </g>
    </g>
    <g >
     <path  fill="#FFFFFF" d="M29.009,75.459c0-0.001,0-0.002,0-0.003c0-0.003,0-0.006-0.001-0.01l-0.005-0.062c0-0.002,0-0.004,0-0.006l-0.006-0.062c0-0.001,0-0.002,0-0.003c0-0.003,0-0.007-0.001-0.01L28.99,75.24c0-0.002,0-0.004,0-0.005l-0.004-0.05c0-0.002,0-0.005-0.001-0.007l0,0c0,0,0-0.001,0-0.002l-0.006-0.014c0-0.002-0.001-0.005-0.002-0.007l-0.088-0.262c-0.001-0.002-0.002-0.005-0.004-0.008l0,0l-0.01-0.017c-0.001-0.003-0.003-0.006-0.006-0.009l-0.038-0.062c-0.001-0.003-0.003-0.007-0.006-0.01l-0.012-0.018c0,0-0.001-0.001-0.001-0.002c-0.001-0.002-0.002-0.003-0.004-0.004l-0.045-0.048c0,0-0.001-0.001-0.001-0.002l-0.047-0.049l-0.001-0.001c-0.001-0.001-0.003-0.002-0.004-0.003l-0.023-0.017c-0.003-0.003-0.006-0.005-0.01-0.007l-0.087-0.062c-0.003-0.003-0.007-0.006-0.011-0.008l-0.062-0.046c-0.002-0.001-0.003-0.001-0.005-0.003l-0.039-0.021c-0.001,0-0.001,0-0.002-0.001l-0.131-0.07c-0.001-0.001-0.002-0.001-0.003-0.001L28.3,74.401c-0.001-0.001-0.003-0.002-0.005-0.002l-0.468-0.173c-0.001,0-0.003-0.001-0.006-0.001l-0.487-0.108l0,0l0,0l-0.287-0.058h-0.001l-0.285-0.057l-0.214-0.077l-0.002-0.001c-0.003-0.003-0.007-0.005-0.011-0.007l-0.111-0.068c0,0-0.001,0-0.001-0.001L26.348,73.8l-0.021-0.021c-0.002-0.003-0.004-0.005-0.007-0.007l-0.053-0.054c-0.001-0.004-0.003-0.007-0.005-0.011l-0.046-0.091l-0.019-0.104l0.013-0.104l0.009-0.021c0.001-0.002,0.002-0.004,0.003-0.006l0.033-0.071l0.048-0.057c0.003-0.002,0.006-0.006,0.009-0.01l0.082-0.058c0.003-0.001,0.006-0.003,0.008-0.005l0.125-0.046l0.089-0.017c0.002,0,0.005-0.001,0.008-0.002l0.271-0.019l0.24,0.013l0.142,0.029l0.132,0.053l0.094,0.06c0.003,0.003,0.007,0.006,0.012,0.008l0.069,0.062c0.001,0.001,0.002,0.002,0.004,0.004l0.019,0.018l0.031,0.045c0,0.001,0.001,0.002,0.002,0.003l0.028,0.041l0.043,0.099l0.012,0.055c0,0.005,0.001,0.009,0.003,0.013l0.004,0.058c0,0.001,0,0.003,0,0.004v0.012c0.001,0.019,0.018,0.034,0.036,0.034l0,0h1.102l0,0c0.002,0,0.004,0.001,0.003,0c0.003,0,0.006-0.001,0.009-0.002l0,0l0,0l0,0c0.004-0.002,0.009-0.005,0.012-0.009l0,0c0.003-0.004,0.006-0.008,0.007-0.014c0,0,0.001,0,0,0l0,0c0.001-0.004,0.001-0.008,0.001-0.013l0,0l0,0l-0.016-0.154l0,0c0-0.003,0-0.005-0.001-0.008l-0.004-0.039c0-0.001,0-0.001,0-0.002l0,0c0-0.001-0.001-0.003-0.001-0.004c0,0,0,0,0-0.001l0,0l0,0c0.001-0.003,0.001-0.007,0.001-0.011c0-0.004-0.001-0.007-0.002-0.011l-0.053-0.145c0-0.004-0.002-0.007-0.003-0.01l-0.001-0.002c0,0,0,0,0-0.001l0,0V73.28l-0.028-0.062c-0.001-0.002-0.002-0.004-0.003-0.006l-0.062-0.138c-0.001-0.002-0.002-0.004-0.003-0.006l-0.005-0.011c-0.001-0.002-0.002-0.004-0.003-0.006l-0.035-0.053c-0.001-0.002-0.002-0.004-0.004-0.007l-0.042-0.063v-0.001l0,0l0,0c0,0,0,0-0.001-0.001c-0.002-0.004-0.005-0.008-0.009-0.011l-0.055-0.062c-0.003-0.003-0.005-0.006-0.008-0.008l-0.027-0.032c-0.001-0.001-0.003-0.003-0.004-0.004l0,0c0,0,0,0-0.001,0l-0.133-0.104c-0.002-0.003-0.005-0.005-0.009-0.007l-0.13-0.104c-0.002-0.001-0.006-0.004-0.008-0.005l-0.219-0.107c-0.002-0.001-0.003-0.002-0.005-0.003l-0.085-0.042c-0.005-0.002-0.005-0.003-0.008-0.002l-0.104-0.028c-0.001,0-0.001,0-0.002-0.001l-0.258-0.07c-0.004-0.001-0.007-0.002-0.01-0.002l-0.009-0.002c0,0-0.001,0-0.002,0s-0.003,0-0.004-0.001l-0.396-0.039c-0.001,0-0.003,0-0.004,0l0,0h-0.51l0,0c-0.002,0-0.003,0-0.004,0l-0.394,0.042c-0.002,0-0.004,0-0.007,0.001h-0.004c-0.002,0-0.005,0.001-0.007,0.001l-0.39,0.117c-0.002,0-0.005,0.001-0.007,0.003l-0.051,0.025l-0.001,0.001l-0.31,0.158c-0.002,0.001-0.006,0.002-0.007,0.004l-0.134,0.104c-0.002,0.001-0.004,0.003-0.007,0.006l-0.109,0.128c-0.001,0.001-0.001,0.001-0.002,0.002l0,0c-0.001,0.001-0.001,0.002-0.002,0.003l-0.062,0.109c-0.001,0.001-0.002,0.003-0.003,0.006l-0.019,0.032c-0.001,0.001-0.002,0.003-0.002,0.005c0,0.001-0.001,0.002-0.001,0.003l-0.103,0.305c0,0.001,0,0.003-0.001,0.004s0,0.003,0,0.004l-0.018,0.155c-0.001,0.003-0.001,0.006-0.001,0.01v0.001l-0.007,0.062c0,0.002-0.001,0.005-0.001,0.007l-0.01,0.084c0,0.002,0,0.004,0,0.006c0,0.001,0,0.001,0,0.002l0.004,0.051c0,0.002,0,0.004,0.001,0.007l0.006,0.061c0,0.001,0,0.003,0,0.004c0,0.004,0,0.007,0.002,0.011l0.005,0.058c0,0.001,0,0.002,0,0.003c0,0.003,0,0.007,0.001,0.01l0.005,0.062v0.001c0,0.003,0,0.005,0.001,0.008v0.039c0,0.002,0,0.003,0.001,0.005c0,0.001,0,0.002,0.001,0.003l0.042,0.138c0,0.002,0.001,0.003,0.002,0.005c0,0.001,0.001,0.002,0.001,0.003l0.013,0.023c0.001,0.002,0.002,0.004,0.004,0.006l0.054,0.096c0.001,0.002,0.002,0.004,0.004,0.006l0,0l0.001,0.001l0.095,0.108c0.001,0.002,0.003,0.003,0.005,0.005l0.005,0.004c0.002,0.002,0.004,0.004,0.006,0.005l0.087,0.068c0.001,0.001,0.002,0.001,0.003,0.002l0.09,0.072c0.001,0,0.002,0.001,0.003,0.002l0,0l0,0c0,0,0.001,0.001,0.002,0.001l0.212,0.121c0.002,0.001,0.004,0.002,0.006,0.003l0.229,0.086c0.002,0,0.003,0.001,0.005,0.001l0.935,0.222c0.001,0,0.003,0.001,0.005,0.001l0.421,0.108l0.314,0.133l0.057,0.039c0.002,0.002,0.004,0.003,0.006,0.004l0.032,0.022l0.034,0.039c0.001,0.002,0.003,0.003,0.004,0.005l0.037,0.042l0.008,0.017c0.001,0.002,0.002,0.004,0.003,0.006l0.032,0.063c0.001,0.004,0.003,0.008,0.006,0.011l0.012,0.053c0,0.003,0.002,0.007,0.003,0.01l0.011,0.054l-0.004,0.115l-0.034,0.109l-0.029,0.048c-0.001,0.001-0.002,0.003-0.003,0.005l-0.025,0.044l-0.082,0.08l-0.146,0.089l-0.16,0.055c-0.001,0-0.002,0-0.003,0l-0.169,0.021H26.76l-0.16-0.021l-0.167-0.061l-0.005-0.003c-0.002-0.002-0.005-0.003-0.007-0.004l-0.138-0.088l-0.125-0.125L26.123,75.8c-0.001-0.002-0.002-0.004-0.003-0.006l-0.033-0.053l0,0c0-0.005-0.002-0.011-0.004-0.015l-0.021-0.061c0-0.003-0.001-0.005-0.002-0.008l-0.015-0.047v-0.004c0-0.002,0-0.004,0-0.006c0-0.003,0-0.007-0.001-0.011l-0.004-0.058c0-0.001,0-0.002,0-0.003c0-0.002,0-0.005-0.001-0.008l-0.003-0.064c0-0.02-0.017-0.036-0.036-0.036h-1.093c0,0,0,0-0.001,0c-0.006,0-0.014,0.002-0.02,0.005c-0.004,0.003-0.008,0.006-0.011,0.011c0,0,0,0,0,0.001l0,0c0,0.001,0,0.002-0.001,0.003c-0.001,0.002-0.002,0.003-0.003,0.006l0,0l0,0l0,0c0,0.001-0.001,0.001-0.001,0.002l0,0c0,0.003,0,0.005,0,0.008l0.007,0.099c0,0.002,0,0.003,0,0.005l0.006,0.036v0.001c0,0.005,0.001,0.009,0.003,0.014l0.01,0.057v0.001c0,0.005,0.001,0.009,0.004,0.014l0.007,0.042c0,0.001,0,0.002,0.001,0.003c0,0.001,0,0.002,0.001,0.003l0.005,0.016c0.001,0.003,0.002,0.007,0.004,0.01l0.021,0.062c0.001,0.004,0.003,0.007,0.004,0.01l0.021,0.062c0.001,0.004,0.002,0.008,0.004,0.011l0.021,0.061c0.001,0.003,0.002,0.007,0.003,0.01l0.021,0.062c0.001,0.004,0.002,0.008,0.004,0.011l0.016,0.044c0,0.002,0.001,0.004,0.002,0.006l0.008,0.017c0.001,0.003,0.003,0.007,0.005,0.011l0.07,0.135c0.001,0.005,0.003,0.008,0.005,0.011c0,0,0.002,0.003,0.003,0.005l0.053,0.062c0.001,0.002,0.002,0.004,0.004,0.006l0.053,0.064c0.002,0.004,0.004,0.008,0.007,0.01l0.003,0.004c0,0,0.001,0,0.001,0.002l0,0c0.001,0,0.002,0.002,0.004,0.004l0.144,0.121c0.001,0,0.003,0.002,0.004,0.002l0.134,0.086c0.001,0,0.003,0.003,0.004,0.003l0.107,0.067c0.002,0.002,0.004,0.004,0.006,0.004l0.088,0.058c0.001,0,0.004,0.002,0.005,0.003l0.027,0.014c0.002,0.002,0.004,0.002,0.006,0.004l0.148,0.066c0.003,0.002,0.006,0.003,0.009,0.004l0.05,0.021c0.001,0.002,0.002,0.002,0.004,0.002l0,0c0.002,0,0.003,0.002,0.005,0.002l0.26,0.062c0.001,0,0.002,0,0.003,0c0,0.001,0,0.001,0,0.001c0.001,0,0.002,0,0.003,0l0.727,0.053c0,0,0,0,0.001,0c0.002,0,0.002,0,0.003,0s0.001,0,0.002,0l0.374-0.016h0.001c0.001,0,0.002,0,0.003-0.001l0.372-0.051c0.002-0.003,0.004-0.003,0.006-0.003l0.247-0.068c0.005-0.001,0.01-0.002,0.014-0.004l0.021-0.006c0-0.001,0.002-0.001,0.003-0.001c0.002-0.001,0.003-0.001,0.005-0.002l0.126-0.062c0.004,0,0.007-0.002,0.01-0.006l0.127-0.062c0.002,0,0.003-0.002,0.005-0.002l0,0c0-0.002,0.001-0.002,0.001-0.002l0.238-0.172c0.002-0.002,0.005-0.002,0.006-0.004l0.117-0.121c0.003-0.002,0.005-0.004,0.007-0.006l0.062-0.066c0.003-0.002,0.006-0.004,0.008-0.008l0.01-0.01c0.001,0,0.003-0.002,0.005-0.006l0.035-0.052c0.002-0.003,0.004-0.006,0.006-0.009l0.044-0.065c0.001-0.002,0.002-0.003,0.003-0.004l0.02-0.028c0.002-0.002,0.004-0.004,0.004-0.006l0.073-0.177c0-0.001,0.001-0.002,0.001-0.003s0.001-0.003,0.001-0.005l0.001-0.006c0-0.001,0.002-0.003,0.002-0.005l0.037-0.177c0-0.001,0-0.004,0.001-0.006l0.003-0.031c0-0.002,0.001-0.005,0.001-0.007c0,0,0-0.001,0-0.002l0.009-0.133c0.001-0.003,0.001-0.006,0.001-0.009c0-0.001,0-0.002,0-0.004L29,75.53c0-0.002,0-0.004,0-0.006c0,0,0,0,0-0.001l0.003-0.039l0,0c0-0.002,0-0.004,0-0.006L29.009,75.459z"/>
     <path  fill="#FFFFFF" d="M34.069,74.519c0-0.002,0-0.005-0.001-0.007l-0.019-0.137c0-0.002,0-0.004-0.001-0.006l-0.018-0.138c0-0.002,0-0.003-0.001-0.005l-0.009-0.063v-0.001c0-0.004,0-0.007-0.002-0.011l-0.008-0.064c0-0.001,0-0.002,0-0.003l-0.015-0.111c0-0.001,0-0.003-0.001-0.005c0-0.001,0-0.001,0-0.002l-0.031-0.097c0-0.003-0.002-0.007-0.003-0.01L33.94,73.79c0-0.001,0-0.001-0.001-0.002l-0.021-0.065c0-0.004-0.002-0.008-0.003-0.011l-0.042-0.132c0-0.004-0.002-0.009-0.004-0.013l-0.021-0.063c0-0.002-0.001-0.003-0.002-0.005l-0.02-0.062c0-0.005-0.002-0.009-0.004-0.014l-0.019-0.058c0-0.001-0.001-0.002-0.001-0.004s-0.001-0.003-0.002-0.004l-0.043-0.077c0-0.001-0.001-0.002-0.002-0.003l-0.078-0.14c-0.001-0.001-0.001-0.003-0.002-0.005l-0.039-0.069l0,0l0,0l0,0l0,0l0,0l0,0l0,0l0,0l0,0l0,0l0,0l0,0c-0.001-0.001-0.002-0.002-0.003-0.003l-0.223-0.251c-0.001-0.001-0.001-0.002-0.002-0.002l0,0c-0.001,0-0.002-0.001-0.003-0.002l-0.134-0.104c-0.002-0.002-0.005-0.004-0.008-0.006l-0.093-0.074c-0.001-0.001-0.003-0.002-0.005-0.003l-0.107-0.064c-0.002-0.001-0.004-0.003-0.006-0.004l-0.112-0.067c-0.004-0.002-0.007-0.004-0.01-0.005l-0.019-0.011c-0.001-0.001-0.003-0.002-0.005-0.003c0,0,0,0-0.001,0l-0.289-0.113c0,0,0,0-0.001,0s0,0,0,0c-0.002-0.001-0.005-0.001-0.007-0.002l-0.094-0.016c-0.001,0-0.002,0-0.002,0l-0.21-0.035c-0.002,0-0.003-0.001-0.005-0.001c-0.001,0-0.001,0-0.002,0l-0.56,0.007l0,0c-0.003,0-0.005,0.001-0.009,0.001l-0.135,0.028c-0.003,0-0.005,0.001-0.008,0.002l-0.176,0.071c-0.001,0-0.002,0.001-0.004,0.001l-0.17,0.069c-0.004,0.001-0.009,0.002-0.013,0.005l-0.01,0.004c-0.001,0-0.002,0.002-0.006,0.003l-0.105,0.062c-0.004,0.002-0.009,0.004-0.012,0.008l-0.078,0.068c-0.001,0.001-0.003,0.002-0.004,0.003l-0.015,0.013l-0.001,0.001c0,0-0.001,0.001-0.002,0.002l-0.048,0.052c-0.005,0.003-0.008,0.007-0.011,0.011l-0.057,0.062c-0.003,0.002-0.007,0.006-0.009,0.01l-0.059,0.062c-0.003,0.002-0.006,0.005-0.008,0.009l-0.062,0.067l0,0l-0.038,0.042l0.005-0.375c0-0.002-0.001-0.003,0-0.004v-0.067c0-0.001,0-0.002,0-0.004c0-0.001,0-0.002,0-0.003v-0.064c0-0.001,0-0.003,0-0.005s0-0.002,0-0.004v-0.017c0-0.001,0-0.002,0-0.003c0-0.005-0.002-0.01-0.004-0.014l0,0c-0.002-0.004-0.006-0.008-0.01-0.011l0,0c-0.004-0.002-0.009-0.005-0.013-0.006l0,0c-0.003-0.001-0.006-0.001-0.01-0.001s-0.005,0.001-0.007,0.001l-0.494,0.094l-0.607,0.115c-0.003,0.001-0.006,0.002-0.009,0.003l0,0c-0.004,0.002-0.008,0.005-0.012,0.009l0,0l0,0c-0.002,0.003-0.004,0.007-0.006,0.011l0,0l0,0c-0.001,0.003-0.001,0.007-0.001,0.011v5.833c0,0,0,0.002,0,0.004c0,0.004,0.001,0.007,0.002,0.01c0.001,0.004,0.003,0.007,0.006,0.01l0,0v0.001c0.001,0.001,0.002,0.002,0.003,0.003l0.508,0.457c0.001,0.002,0.004,0.004,0.006,0.006l0.66,0.596l0,0l0,0l0,0c0,0.002,0,0.002,0,0.002c0.006,0.004,0.016,0.009,0.022,0.009c0.003-0.001,0.01-0.001,0.016-0.005l0,0l0,0c0.002-0.002,0.004-0.004,0.006-0.004c0,0,0,0,0-0.002c0.008-0.006,0.014-0.016,0.014-0.025v-3.146l0.146,0.199c0.002,0.002,0.004,0.006,0.006,0.008l0.15,0.133c0.001,0.002,0.002,0.002,0.003,0.004l0.033,0.029c0.001,0,0.003,0.002,0.005,0.004c0.001,0,0.001,0,0.002,0l0.066,0.039c0.003,0.002,0.006,0.004,0.01,0.004l0.118,0.067c0.002,0.003,0.005,0.005,0.009,0.005l0.014,0.01c0.001,0,0.002,0,0.004,0.002l0,0c0.001,0,0.003,0,0.004,0l0.238,0.076c0.001,0,0.002,0,0.003,0c0,0,0.002,0,0.004,0.002l0.344,0.043c0.002,0,0.004,0,0.006,0l0.348-0.004c0.001,0,0.002,0,0.003,0s0.002,0,0.003-0.002l0.342-0.053c0.002-0.001,0.005-0.001,0.007-0.002l0.219-0.07c0.004,0,0.008,0,0.011-0.002l0.029-0.011c0.001,0,0.002-0.001,0.004-0.001l0,0c0.001-0.001,0.001-0.001,0.002-0.002l0.112-0.059c0.001-0.002,0.004-0.002,0.006-0.004l0.125-0.063c0.002-0.001,0.004-0.003,0.006-0.004l0.005-0.005c0.001,0,0.003-0.002,0.004-0.002l0.091-0.07c0.001,0,0.002-0.001,0.002-0.002l0.114-0.086c0.001-0.008,0.004-0.004,0.005-0.005l0.186-0.199c0-0.001,0.001-0.002,0.001-0.002s0,0,0-0.001l0,0c0-0.001,0-0.001,0-0.001l0,0V76.34l0,0c0-0.002,0-0.002,0.002-0.002l0.043-0.066c0.002-0.002,0.004-0.005,0.005-0.008l0.042-0.064c0.001-0.002,0.002-0.005,0.003-0.006l0.123-0.189c0.001-0.001,0.001-0.003,0.002-0.004c0-0.001,0.001-0.001,0.001-0.002l0.008-0.02c0.002-0.003,0.003-0.006,0.004-0.009l0.058-0.135c0.003-0.003,0.004-0.006,0.005-0.01l0.027-0.065c0-0.001,0.001-0.003,0.002-0.004l0.027-0.064c0.002-0.003,0.004-0.007,0.005-0.011l0.021-0.05c0-0.001,0.001-0.002,0.001-0.003l0,0c0-0.001,0.001-0.002,0.001-0.003l0.002-0.011c0.001-0.002,0.002-0.005,0.002-0.008l0.031-0.134c0.001-0.004,0.003-0.008,0.004-0.012l0.015-0.063c0-0.002,0.001-0.004,0.001-0.006l0.032-0.135c0.001-0.004,0.002-0.008,0.003-0.012l0.001-0.008c0-0.002,0.001-0.003,0.001-0.005c0-0.001,0-0.001,0-0.002l0.01-0.199c0-0.001,0-0.003,0-0.004l0,0l0.003-0.065c0-0.002,0-0.004,0-0.006c0,0,0-0.001,0-0.002l0.003-0.064c0-0.002,0-0.004,0-0.006c0-0.001,0-0.001,0-0.002l0.003-0.062c0-0.002,0.001-0.005,0.001-0.007c0-0.001,0-0.002,0-0.003l0.003-0.061c0-0.002,0.001-0.005,0.001-0.008c0-0.001,0-0.002,0-0.004l0.003-0.06c0-0.002,0.001-0.005,0.001-0.008c0-0.001,0-0.003,0-0.004l0.004-0.059c0-0.002,0-0.004,0-0.005l0,0c0,0,0-0.001,0-0.002V74.519z M30.833,75.424c0-0.001,0-0.002,0-0.003l0,0c0-0.002,0-0.004-0.001-0.005l-0.062-0.181c-0.001-0.004-0.002-0.007-0.003-0.01l-0.009-0.056c0-0.004-0.001-0.008-0.002-0.011l-0.01-0.064c0-0.001,0-0.003,0-0.004l-0.013-0.082l-0.004-0.27c0-0.001,0-0.001,0-0.002l-0.005-0.45l0.031-0.231l0.056-0.165c0.002-0.003,0.003-0.006,0.005-0.01l0.015-0.044l0.008-0.013c0.001-0.002,0.003-0.004,0.004-0.007l0.038-0.065c0.001-0.002,0.002-0.004,0.003-0.006l0.037-0.062c0.003-0.004,0.006-0.009,0.008-0.014l0.021-0.033l0.021-0.024c0.001-0.001,0.001-0.002,0.002-0.003l0.06-0.067c0.002-0.002,0.005-0.005,0.007-0.007l0.057-0.065c0.002-0.002,0.004-0.004,0.006-0.007l0.071-0.061c0.002-0.001,0.005-0.003,0.007-0.005l0.142-0.11l0.055-0.026c0.001,0,0.002-0.001,0.003-0.001l0.038-0.018l0.104-0.021l0.306-0.014l0.16,0.013l0.146,0.042c0.003,0.001,0.006,0.002,0.009,0.002l0.143,0.074l0.214,0.178l0.124,0.162c0.001,0.003,0.003,0.006,0.006,0.008l0.04,0.053l0.001,0.002c0.001,0.004,0.002,0.008,0.005,0.011L32.7,73.81c0.001,0.003,0.002,0.006,0.004,0.009l0.027,0.063c0.001,0.003,0.003,0.006,0.005,0.009l0.028,0.064c0.001,0.002,0.001,0.004,0.003,0.006l0.013,0.028l0.021,0.103c0,0.002,0,0.003,0.001,0.005l0.027,0.138c0,0.002,0,0.005,0.001,0.007l0.004,0.06c0,0.002,0,0.003,0,0.005v0.065c0,0.001,0,0.002,0,0.004s0,0.002,0,0.004v0.063c0,0.001,0,0.003,0,0.005c0,0.002,0,0.003,0,0.005v0.061c0,0.002,0,0.004,0,0.006s0,0.004,0,0.006v0.297l-0.007,0.046c-0.001,0.003-0.002,0.007-0.002,0.011l-0.021,0.133c-0.001,0.003-0.002,0.007-0.002,0.011l-0.021,0.133c-0.001,0.004-0.002,0.007-0.002,0.011l-0.021,0.133c-0.001,0.003-0.002,0.007-0.002,0.011l-0.01,0.062l-0.05,0.133c-0.003,0.004-0.006,0.01-0.007,0.016l-0.023,0.062c0,0.001,0,0.002-0.001,0.003l-0.041,0.057c-0.003,0.003-0.006,0.007-0.008,0.011l-0.045,0.062c-0.002,0.003-0.004,0.006-0.007,0.009l-0.034,0.049l-0.012,0.009c-0.002,0.001-0.004,0.003-0.006,0.005l-0.16,0.132l-0.005,0.002c-0.003,0.001-0.006,0.002-0.009,0.004l-0.151,0.069c-0.001,0-0.002,0-0.003,0.001l-0.042,0.019L31.9,76.066c-0.003,0-0.007,0.001-0.01,0.002l-0.258-0.002l-0.205-0.042L31.372,76c-0.001,0-0.002-0.001-0.004-0.001l-0.128-0.056l-0.016-0.011c-0.001-0.001-0.003-0.002-0.004-0.003l-0.125-0.089l-0.103-0.118c-0.001-0.001-0.002-0.003-0.003-0.004l-0.036-0.06c-0.001-0.002-0.002-0.005-0.004-0.007l-0.034-0.064c-0.001-0.003-0.002-0.006-0.004-0.008l-0.018-0.032l0,0l0,0c0-0.001-0.001-0.002-0.002-0.003l-0.014-0.021l-0.008-0.011c-0.001-0.002-0.002-0.004-0.004-0.006l-0.003-0.027c0-0.009-0.003-0.019-0.012-0.026c-0.005-0.005-0.011-0.008-0.017-0.01v-0.001l0,0c0-0.002,0-0.004,0-0.007L30.833,75.424z"/>
     <path  fill="#FFFFFF" d="M38.8,76.838l-0.021-0.055l-0.01-0.033c0-0.006-0.002-0.01-0.004-0.016l-0.016-0.062c0-0.004-0.001-0.008-0.003-0.01l-0.018-0.062c0-0.003-0.001-0.006-0.002-0.011l-0.018-0.064c0-0.001,0-0.002-0.001-0.003l-0.029-0.106l-0.007-0.1c0-0.001,0-0.002,0-0.003l-0.01-0.14c0,0,0,0,0-0.002s0-0.004-0.001-0.006l-0.01-0.131l0.003-0.507c0-0.002,0-0.003,0-0.005l0.002-0.355c0-0.001,0-0.002,0-0.003l0.002-0.358l0,0l0,0l0,0l0,0l0,0l0,0l0,0l0,0c0,0,0,0,0-0.001s0,0,0,0l0,0l0,0l0,0l0,0l0,0l0,0l0,0l0,0l0,0l0,0l0,0l0,0l0,0l0,0l0,0l0,0l0,0l0,0l0,0l0,0l0,0l0,0l0,0l0,0l0,0l0,0l0,0l0,0l0,0l0,0l0,0l0,0l0,0l0,0l0,0l0,0l0,0l0,0l0,0l0,0l0,0c0-0.002,0.001-0.004,0.001-0.007v-1.368c0-0.001,0-0.002,0-0.004v-0.001l-0.023-0.183c0-0.002,0-0.005-0.001-0.007l-0.002-0.018c0-0.001,0-0.003-0.001-0.005c0-0.001,0-0.003-0.001-0.004l-0.045-0.119c0-0.002-0.001-0.003-0.002-0.005l-0.026-0.069c-0.001-0.002-0.002-0.005-0.003-0.007c0,0-0.001-0.001-0.001-0.002l-0.048-0.069c-0.001-0.001-0.002-0.002-0.002-0.003l-0.07-0.099c-0.001-0.002-0.002-0.003-0.004-0.005c0-0.001-0.001-0.001-0.002-0.002l-0.158-0.136c-0.003-0.003-0.006-0.004-0.008-0.005l-0.092-0.049c-0.001-0.001-0.002-0.001-0.003-0.002l-0.264-0.14c-0.003-0.002-0.008-0.005-0.012-0.006c-0.003-0.004-0.005-0.002-0.006-0.002l-0.229-0.069c-0.001,0-0.003-0.001-0.005-0.001l-0.165-0.049c-0.001,0-0.002,0-0.002-0.001l0,0c-0.001,0-0.002,0-0.003,0l-0.159-0.021c-0.002,0-0.004-0.001-0.007-0.001l-0.326-0.043c-0.001,0-0.002,0-0.003,0l0,0h-0.001l0,0l-0.496-0.002l0,0l0,0l0,0c-0.001,0-0.003,0-0.004,0l-0.371,0.045c-0.002,0-0.004,0-0.007,0.001l-0.114,0.014c-0.002,0-0.004,0.001-0.006,0.001l-0.349,0.094c-0.001,0-0.003,0.001-0.005,0.002l0,0c0,0,0,0-0.001,0l-0.327,0.149c-0.002,0.001-0.003,0.002-0.005,0.003c0,0-0.001,0-0.001,0.001l-0.04,0.028h-0.001l-0.099,0.069c-0.002,0.001-0.005,0.003-0.007,0.005l-0.084,0.059c-0.002,0.001-0.003,0.001-0.002,0.002l0,0c-0.001,0.001-0.002,0.002-0.005,0.004l-0.007,0.008c-0.001,0.001-0.002,0.002-0.003,0.004l-0.183,0.194c-0.001,0.001-0.001,0.001-0.002,0.003c-0.001,0.001-0.002,0.002-0.003,0.004l-0.146,0.241c0,0-0.001,0.001-0.001,0.002c-0.001,0.002-0.002,0.003-0.002,0.005l-0.021,0.061c-0.001,0.002-0.002,0.005-0.003,0.007l-0.024,0.068v0.001l-0.045,0.128c0,0.001-0.001,0.003-0.001,0.005l0,0c0,0.001,0,0.002,0,0.003l-0.035,0.252l-0.001,0.001l0,0l0,0c-0.002,0.003-0.004,0.006-0.006,0.009l0,0l0,0c-0.002,0.004-0.003,0.009-0.003,0.014c0,0.006,0.001,0.012,0.004,0.017l0,0l0,0l0,0c0,0,0,0.001,0.001,0.001l0,0l0,0l0,0c0.001-0.001,0,0,0,0l0,0l0,0l0,0l0,0l0,0l0,0c0.002,0.002,0.001,0.001,0.001,0.001l0.006,0.007c0.005,0.006,0.013,0.011,0.022,0.012c0.007,0.003,0.013,0,0.018-0.002l0,0c0.003-0.001,0.005-0.002,0.008-0.004h1.173c0.021,0,0.036-0.016,0.036-0.036l0.002-0.034c0.001-0.003,0.001-0.006,0.001-0.009l0,0l0.009-0.063c0-0.002,0.001-0.005,0.001-0.008l0.006-0.048l0.052-0.14l0.083-0.125l0.021-0.018c0.003-0.002,0.006-0.004,0.008-0.006l0.083-0.076l0.132-0.072l0.159-0.046l0.089-0.008c0.002,0,0.004,0,0.006,0l0.072-0.007l0.189,0.007c0,0,0.001,0,0.002,0l0.191,0.007l0.104,0.017l0.099,0.036l0.007,0.004c0.001,0.001,0.003,0.002,0.004,0.003l0.078,0.047l0.02,0.019c0.001,0,0.001,0.001,0.002,0.002l0.049,0.046l0.059,0.079v0.001c0.001,0.003,0.002,0.006,0.004,0.009l0.027,0.062c0.001,0.003,0.002,0.007,0.004,0.01l0.027,0.127c0,0.003,0.001,0.007,0.002,0.01l0.004,0.167l-0.021,0.099c0,0.001,0,0.002-0.001,0.003l-0.01,0.045l-0.013,0.027l-0.017,0.025l-0.08,0.074l-0.03,0.018c-0.003,0.001-0.005,0.002-0.008,0.004l-0.083,0.048l-0.133,0.047l-0.371,0.064l-0.625,0.065c-0.001,0-0.002,0-0.003,0l-0.313,0.057c-0.003,0-0.006,0.001-0.008,0.001l-0.112,0.021c-0.001,0-0.002,0-0.003,0.001c-0.001,0-0.001,0-0.002,0L35.172,74.5c-0.003,0.001-0.006,0.001-0.007,0.003l-0.107,0.057c-0.001,0-0.002,0.001-0.003,0.002l-0.085,0.045c-0.001,0-0.002,0.001-0.004,0.002s-0.002,0.001-0.003,0.002l-0.116,0.094c-0.002,0.002-0.005,0.004-0.007,0.006l-0.048,0.04c-0.001,0.001-0.002,0.002-0.004,0.003c-0.001,0-0.001,0.001-0.002,0.002l-0.079,0.096c-0.003,0.002-0.005,0.005-0.007,0.009l-0.056,0.067c0,0,0,0.001-0.001,0.001l0,0c-0.001,0.002-0.002,0.004-0.003,0.006l-0.033,0.066c-0.002,0.003-0.004,0.007-0.005,0.01l-0.065,0.135c-0.002,0.002-0.003,0.005-0.004,0.009l-0.012,0.021c-0.001,0.002-0.002,0.005-0.003,0.007c0,0.001,0,0.002,0,0.003l-0.009,0.041c-0.001,0.002-0.001,0.004-0.001,0.006l-0.015,0.068v0.001l-0.033,0.15c0,0.001,0,0.003-0.001,0.005l0,0c0,0.001,0,0.002,0,0.003l-0.001,0.3c0,0.001,0,0.001,0,0.002l0,0c0,0.001,0,0.003,0.001,0.005l0.021,0.121c0,0.001,0,0.003,0,0.004l0.013,0.064c0,0.004,0.001,0.007,0.002,0.011l0.017,0.094c0,0.001,0,0.002,0.001,0.003l0,0c0,0.001,0,0.003,0.001,0.004l0.042,0.11c0,0.004,0.002,0.008,0.004,0.011l0.024,0.063c0,0.002,0.001,0.004,0.002,0.006l0.034,0.091c0.001,0.003,0.003,0.007,0.004,0.008l0.083,0.138c0,0,0.003,0.004,0.004,0.006l0.105,0.117c0.001,0,0.001,0.002,0.002,0.002l0,0c0.001,0.002,0.002,0.002,0.004,0.004l0.009,0.006c0.002,0.002,0.005,0.006,0.008,0.006l0.085,0.064c0.003,0.004,0.008,0.008,0.013,0.01l0.013,0.01c0.002,0.002,0.005,0.003,0.008,0.005l0.113,0.054c0.004,0.004,0.008,0.006,0.013,0.008l0.138,0.065c0.003,0.002,0.008,0.004,0.014,0.006l0.082,0.039c0.001,0.002,0.005,0.003,0.009,0.003l0.388,0.087c0.003,0.001,0.005,0.001,0.008,0.001L36.177,77c0,0,0,0,0.001,0s0.004,0,0.006-0.002l0.456-0.066c0.003,0,0.005-0.002,0.008-0.002l0.202-0.069c0.007-0.001,0.014-0.003,0.02-0.007l0.071-0.023c0.002,0,0.004-0.002,0.005-0.002l0,0c0,0,0.001-0.002,0.002-0.002l0.069-0.039c0.005-0.002,0.011-0.004,0.015-0.009l0.115-0.065c0.003,0,0.006-0.002,0.008-0.004l0.062-0.033c0.001-0.002,0.003-0.002,0.005-0.004c0,0,0.001-0.002,0.002-0.002l0.233-0.197l0.007-0.006l0.023,0.072c0,0.002,0.001,0.006,0.002,0.01l0.013,0.062c0,0.007,0.001,0.011,0.003,0.015l0.014,0.062c0,0.002,0,0.004,0.001,0.006l0.015,0.062c0,0.004,0.001,0.01,0.002,0.014l0,0c0,0.001,0,0.002,0,0.003l0.017,0.062c0,0.002,0.001,0.004,0.002,0.006l0.002,0.012c0,0.002,0.001,0.004,0.002,0.006c0,0.002,0.001,0.003,0.002,0.005l0.005,0.011c0.001,0.002,0.004,0.004,0.006,0.006l0,0c0.002,0.004,0.005,0.006,0.009,0.008l0.01,0.005c0.007,0.004,0.015,0.008,0.023,0.004l1.148-0.001c0,0,0,0,0.001,0c0.006,0,0.012-0.001,0.018-0.006l0,0c0.005-0.002,0.01-0.006,0.013-0.012c0.002-0.004,0.004-0.008,0.005-0.015c0-0.004,0-0.009,0-0.013C38.802,76.842,38.801,76.84,38.8,76.838z M35.684,75.666l-0.001-0.085l0.021-0.115c0-0.002,0.001-0.003,0.001-0.005l0.008-0.042l0.008-0.02c0,0,0.001-0.001,0.001-0.002l0.055-0.132v-0.001c0.002-0.001,0.003-0.003,0.004-0.006l0.053-0.078l0.059-0.054c0.002-0.002,0.004-0.003,0.006-0.006L36,75.056c0.001-0.001,0.003-0.002,0.005-0.003l0.039-0.021l0.116-0.044c0.001,0,0.002,0,0.003-0.001l0.027-0.011l0.157-0.03l0.409-0.043c0.001,0,0.002,0,0.003,0l0.28-0.048c0.002,0,0.003-0.001,0.003-0.001s0.001,0,0.002,0l0.027-0.008c0.003,0,0.006-0.001,0.009-0.003l0.236-0.07c0.003,0,0.004-0.003,0.007-0.003l0.057-0.029c0.001,0,0.002-0.001,0.004-0.002c0.002-0.001,0.004-0.003,0.005-0.004l0.039-0.036v0.083c0,0.005,0.001,0.01,0.003,0.015c-0.002,0.004-0.003,0.009-0.003,0.014l-0.007,0.354c0,0.002,0,0.003,0,0.005c0,0,0,0,0,0.001l-0.011,0.184l-0.003,0.017c-0.002,0.004-0.003,0.009-0.003,0.014l0,0l-0.012,0.06c-0.001,0.003-0.002,0.007-0.002,0.011l-0.012,0.062c-0.001,0.002-0.001,0.005-0.001,0.008l-0.026,0.132l-0.014,0.046l-0.009,0.022c-0.002,0.003-0.003,0.006-0.004,0.01l-0.018,0.038l-0.012,0.018c-0.002,0.002-0.004,0.005-0.006,0.009l-0.024,0.036l-0.023,0.023c-0.002,0.002-0.005,0.004-0.007,0.006l-0.068,0.065c-0.002,0.002-0.004,0.004-0.006,0.006l-0.106,0.103l-0.083,0.052l-0.092,0.036l-0.295,0.043l-0.433-0.017l-0.131-0.024l-0.118-0.06l-0.104-0.084l-0.033-0.043c-0.001-0.002-0.003-0.005-0.005-0.007l-0.016-0.02l-0.019-0.039c-0.001-0.002-0.002-0.004-0.003-0.007l-0.017-0.035l-0.021-0.087c0-0.002,0-0.004,0-0.006l-0.001-0.064c0-0.001,0-0.003,0-0.004C35.685,75.67,35.684,75.668,35.684,75.666z"/>
     <path  fill="#FFFFFF" d="M41.829,72.288L41.829,72.288c-0.002,0-0.002,0-0.002,0c-0.002,0-0.004,0-0.006,0l-0.196,0.023c-0.002,0-0.005,0-0.007,0.001l0,0l-0.19,0.063c-0.002,0.001-0.005,0.001-0.008,0.003l-0.155,0.09c-0.004,0.001-0.007,0.003-0.01,0.006l-0.006,0.004c-0.001,0-0.001,0-0.002,0.001l-0.095,0.062c-0.004,0.001-0.007,0.003-0.01,0.006l-0.147,0.097c-0.001,0.001-0.002,0.001-0.002,0.002l-0.054,0.04c-0.002,0.001-0.005,0.003-0.007,0.006l-0.051,0.039c-0.002,0.001-0.003,0.003-0.005,0.004c-0.001,0-0.001,0.001-0.002,0.002l-0.022,0.027c-0.001,0.001-0.002,0.002-0.003,0.004l-0.063,0.077c-0.001,0.001-0.002,0.002-0.003,0.004l-0.136,0.206c-0.001,0.001-0.003,0.004-0.004,0.006l-0.055,0.083l-0.05,0.076l-0.012,0.004V72.44c0-0.002,0-0.004,0-0.005l0,0c0-0.003-0.001-0.006-0.002-0.009c-0.003-0.004-0.006-0.008-0.009-0.012l0,0l0,0c-0.005-0.004-0.012-0.008-0.019-0.009c-0.002,0-0.005,0-0.007,0s-0.004,0-0.006,0.001l-0.359,0.062c-0.004,0-0.008,0.001-0.012,0.002l-0.396,0.07c-0.002,0-0.005,0.001-0.008,0.001l-0.319,0.057c-0.002,0-0.005,0.001-0.007,0.002l0,0c-0.006,0.002-0.011,0.006-0.014,0.011l0,0c-0.003,0.004-0.005,0.009-0.007,0.015l0,0c0,0.002-0.001,0.005-0.001,0.007v0.224c0,0.002,0,0.004,0,0.006c0,0.002,0,0.004,0,0.006v0.06c0,0.001,0,0.003,0,0.005s0,0.003,0,0.005v0.062c0,0.001,0,0.003,0,0.004s0,0.003,0,0.004v0.064c-0.001,0.002-0.001,0.004,0,0.006v0.068c0,0.001,0,0.001,0,0.002v0.136c0,0.002-0.001,0.005-0.001,0.007s0,0.005,0.001,0.007v0.059c0,0.002-0.001,0.004-0.001,0.006c0,0.002,0,0.004,0,0.006v0.06c0,0.002,0,0.004,0,0.006s0,0.004,0,0.006v0.062c0,0.001,0,0.003,0,0.005s0,0.003,0,0.005v0.063c0,0.001,0,0.002,0,0.004s0,0.002,0,0.004v0.066c0,0.001,0,0.003,0,0.004v0.134c0,0.002-0.001,0.005-0.001,0.007s0,0.005,0.001,0.007v0.058c0,0.002-0.001,0.004-0.001,0.007s0,0.004,0.001,0.007v0.059c0,0.002,0,0.004,0,0.006s0,0.004,0,0.006v0.061c0,0.002,0,0.003,0,0.005c0,0.002,0,0.003,0,0.005v0.062c0,0.001,0,0.003,0,0.004s0,0.003,0,0.004v0.065c0,0.002,0,0.004,0,0.005v0.279c0,0.002,0,0.004,0,0.006s0,0.004,0,0.006v0.06c0,0.001,0,0.003,0,0.005c0,0.002,0,0.003,0,0.005v0.062c0,0.001,0,0.003,0,0.004s0,0.003,0,0.004v0.064c-0.001,0.002-0.001,0.004,0,0.006v0.068c0,0,0,0,0,0.001l0,0v0.355c0,0.001,0,0.003,0,0.005s0,0.003,0,0.005v0.063c0,0.001,0,0.002,0,0.004c0,0.002,0,0.002,0,0.003v0.067c0,0.001,0,0.003,0,0.004v0.353c0,0.002,0,0.003,0,0.005s0,0.003,0,0.005v0.062c0,0.001,0,0.003,0,0.004s0,0.003,0,0.004v0.065c0,0.002,0,0.004,0,0.005v0.352c0,0.001,0,0.003,0,0.005s0,0.004,0,0.005v0.063c0,0.002,0,0.004,0,0.006s0,0.002,0,0.004v0.063c-0.001,0.002-0.001,0.004,0,0.006v0.065c0,0.002,0,0.002,0,0.002s0,0,0,0.002v0.428c-0.001,0.002-0.001,0.004,0,0.01v0.064c0,0.002,0,0.002,0,0.004v0.023c0,0,0,0,0,0.002c0,0.017,0.012,0.029,0.026,0.033l0,0l0,0l0,0l0,0l0,0l0,0l0,0l0,0c0.002,0,0,0.002,0,0.002l0,0l0,0l0,0l0,0l0,0l0,0l0,0l0,0l0,0l0,0h1.183c0.02,0,0.035-0.018,0.035-0.037v-2.213l0.004-0.038c0-0.002,0.001-0.005,0.001-0.007l0,0l0.005-0.065c0-0.001,0-0.003,0-0.005l0.01-0.124l0.002-0.008c0.001-0.003,0.002-0.005,0.002-0.008l0.015-0.062c0.001-0.004,0.002-0.007,0.002-0.011l0.016-0.061c0.001-0.004,0.002-0.008,0.003-0.012l0.014-0.059c0.001-0.004,0.003-0.008,0.003-0.013l0.025-0.055c0.002-0.003,0.004-0.007,0.005-0.012l0.029-0.063c0-0.001,0.001-0.003,0.002-0.004l0.029-0.066c0.001-0.002,0.002-0.005,0.003-0.008l0.04-0.058c0.001-0.002,0.004-0.004,0.005-0.006l0.052-0.068c0,0,0.001-0.001,0.002-0.002l0.051-0.068c0.001-0.001,0.003-0.003,0.004-0.005l0.158-0.135c0.001,0,0.001-0.001,0.002-0.002l0.03-0.025l0.136-0.074l0.147-0.051l0.152-0.026h0.432l0.17,0.035l0,0l0,0c0.002,0,0.002,0,0.002,0l0.042,0.007c0.002,0.001,0.006,0,0.007,0.001h0.001h0.007c0.021,0,0.036-0.016,0.036-0.036v-1.094c0-0.02-0.018-0.035-0.035-0.036L41.829,72.288z"/>
     <path  fill="#FFFFFF" d="M47.019,76.661L47.019,76.661l-0.047-0.068c0-0.002-0.003-0.006-0.005-0.008l-0.094-0.141c0,0,0-0.001-0.001-0.001l-0.094-0.144c0,0,0,0-0.002,0l-0.095-0.143c0,0,0-0.003-0.002-0.003l-0.045-0.068c-0.001-0.002-0.003-0.005-0.005-0.007l-0.188-0.284c0,0,0,0-0.003-0.001l-0.047-0.071c0,0,0,0,0-0.001l-0.045-0.068c-0.002-0.002-0.004-0.005-0.006-0.007l-0.188-0.284c0,0,0,0,0-0.001l-0.048-0.071c0,0,0,0-0.002-0.001l-0.047-0.071c0,0,0,0,0-0.001l-0.239-0.359c0,0,0,0,0-0.001l-0.048-0.071l0,0l-0.289-0.432l0,0l-0.047-0.071c0,0,0,0-0.002-0.001l-0.16-0.241c0.002-0.001,0.005-0.003,0.005-0.005l0.36-0.353c0.004-0.002,0.006-0.005,0.008-0.007l0.584-0.572l0.002-0.001l0.654-0.64l0,0l0,0c0.002,0,0.002,0,0.002,0l0,0l0,0l0,0l0,0c0.002-0.002,0.004-0.004,0.006-0.007l0,0l0,0c0.002-0.004,0.004-0.01,0.004-0.016c0-0.02-0.018-0.036-0.036-0.036h-1.324c-0.008,0-0.015,0.002-0.021,0.006l0,0c-0.002,0-0.002,0-0.002,0l0,0l0,0l0,0c0.002,0-0.002,0-0.002,0l0,0l0,0l0,0l0,0H45.51l0,0l0,0l0,0l0,0l-0.061,0.06c-0.005,0.002-0.007,0.006-0.012,0.01l-0.135,0.136c-0.003,0.002-0.005,0.004-0.007,0.006l-0.063,0.064c-0.004,0.002-0.008,0.006-0.01,0.009l-0.062,0.062c-0.004,0.002-0.008,0.005-0.01,0.009l-0.138,0.137c-0.002,0.001-0.004,0.002-0.005,0.004l-0.064,0.066c-0.005,0.002-0.007,0.005-0.009,0.008l-0.063,0.064c-0.003,0.002-0.005,0.004-0.008,0.007l-0.066,0.066c-0.001,0.001-0.001,0.002-0.002,0.002l-0.07,0.071c0,0,0,0-0.002,0.001l-0.065,0.068c-0.004,0.002-0.006,0.004-0.008,0.007l-0.281,0.282c-0.002,0.001-0.004,0.003-0.006,0.005l-0.211,0.211c-0.002,0.001-0.005,0.002-0.005,0.004l-0.067,0.069c-0.002,0.001-0.003,0.002-0.004,0.003l-0.116,0.117V70.72c0-0.003,0-0.006-0.001-0.009l0,0c-0.001-0.004-0.003-0.008-0.006-0.012l0,0c-0.003-0.004-0.008-0.007-0.013-0.01l0,0c-0.004-0.002-0.01-0.003-0.015-0.004c-0.007-0.001-0.009,0-0.011,0c-0.001,0-0.001,0-0.001,0c-0.004,0.001-0.009,0.002-0.011,0.004l-0.341,0.193c0,0-0.002,0.001-0.002,0.002l-0.373,0.213c-0.004,0.001-0.006,0.002-0.008,0.004l-0.451,0.256c0,0.001-0.002,0.002-0.004,0.003c-0.004,0.002-0.007,0.005-0.009,0.009c-0.003,0.005-0.005,0.011-0.006,0.017c0,0.001,0,0.002,0,0.003v5.479c0,0.01,0.004,0.021,0.011,0.025l0.017,0.016c0.007,0.006,0.017,0.01,0.024,0.01l0,0h1.174c0.021,0,0.035-0.017,0.035-0.035v-1.532l0.239-0.232c0.001-0.001,0.002-0.002,0.003-0.003l0.145-0.14c0.003-0.001,0.005-0.003,0.007-0.005l0.069-0.068c0-0.001,0.002-0.002,0.002-0.003l0.004-0.003l0.435,0.714c0.002,0.002,0.003,0.005,0.005,0.007l0.126,0.208c0.002,0.003,0.003,0.005,0.005,0.008l0.04,0.065c0.001,0.002,0.002,0.005,0.004,0.007l0.172,0.281c0,0.003,0.002,0.005,0.004,0.008l0.039,0.065c0.002,0.002,0.002,0.004,0.004,0.006l0.082,0.138c0.002,0.003,0.005,0.007,0.007,0.009l0.17,0.278c0.002,0.003,0.003,0.007,0.005,0.009l0.04,0.064c0.001,0.002,0.002,0.004,0.004,0.006l0.04,0.064c0.001,0.002,0.002,0.004,0.003,0.006l0.02,0.033c0.002,0,0.002,0.002,0.002,0.002c0.004,0.004,0.009,0.01,0.013,0.012c0.007,0.004,0.014,0.005,0.019,0.005h0.001l1.439,0.008c0.003,0,0.006-0.001,0.009-0.001c0,0,0,0,0.001,0c0-0.001,0-0.001,0-0.001c0.005-0.001,0.009-0.003,0.012-0.006c0.006-0.003,0.008-0.007,0.01-0.013c0.005-0.004,0.007-0.01,0.007-0.016c0-0.002,0-0.004,0-0.006v-0.001c-0.002-0.006-0.004-0.011-0.009-0.017L47.019,76.661z"/>
     <path  fill="#FFFFFF" d="M49.656,70.704c0,0-0.001,0-0.003,0h-0.438c-0.001,0-0.001,0-0.001,0c-0.001,0-0.002,0-0.003,0c0,0-0.002,0-0.004,0l-0.205,0.035c-0.001,0-0.003,0-0.005,0l-0.075,0.013c-0.002,0.001-0.005,0.002-0.009,0.002l-0.271,0.104H48.64c-0.002,0.001-0.004,0.002-0.007,0.003l-0.243,0.155c-0.002,0-0.002,0.001-0.004,0.002l0,0c-0.002,0.001-0.003,0.002-0.004,0.003l-0.011,0.01c-0.002,0.002-0.005,0.004-0.006,0.006l-0.069,0.065c-0.002,0.002-0.005,0.004-0.007,0.007l-0.069,0.068c-0.002,0-0.003,0.001-0.004,0.002l-0.043,0.041c-0.001,0.001-0.003,0.003-0.004,0.004c0,0-0.001,0.001-0.001,0.002l-0.071,0.1c0,0.001,0,0.001-0.002,0.002l-0.021,0.033c0,0,0,0-0.001,0.001c-0.002,0.002-0.002,0.004-0.004,0.005l-0.017,0.036c0,0-0.002,0.001-0.002,0.002l-0.031,0.067c-0.002,0.002-0.002,0.006-0.004,0.009L48,71.521c-0.001,0.001-0.001,0.003-0.002,0.005c0,0.001-0.001,0.002-0.001,0.002l-0.025,0.099c0,0.003-0.002,0.006-0.003,0.009l-0.013,0.052c-0.001,0.002-0.001,0.004-0.002,0.006l0,0l0,0v0.007c-0.001,0.003-0.002,0.007-0.002,0.01c0,0.001,0,0.003,0,0.004l-0.006,0.059c0,0.003,0,0.006,0,0.009c0,0.001,0,0.002,0,0.003l-0.007,0.061c0,0.002,0,0.005,0,0.008c0,0,0,0.001,0,0.002l-0.006,0.063c0,0.002,0,0.004,0,0.007l0,0l-0.03,0.37c0,0.001,0,0.002,0,0.004v0.094H47.55c-0.01,0-0.02,0.004-0.025,0.011l-0.066,0.068c-0.003,0.002-0.005,0.004-0.007,0.007l-0.142,0.14c0,0,0,0-0.002,0.001l-0.065,0.068c-0.004,0.002-0.006,0.004-0.008,0.007l-0.214,0.212l0,0l-0.066,0.068c-0.003,0.002-0.005,0.004-0.007,0.007l-0.142,0.14l0,0l-0.037,0.036c-0.006,0.006-0.011,0.016-0.011,0.026c0,0.006,0.002,0.012,0.005,0.018l0,0l0,0h0.002l0,0c0,0.001,0.002,0.002,0.002,0.003l0,0l0,0c0.002,0.001,0.002,0.002,0.002,0.003c0,0,0,0,0.002,0l0,0l0,0c0.007,0.006,0.017,0.009,0.023,0.009l1.096,0.007v3.649c0,0.021,0.017,0.037,0.035,0.037h1.182c0.021,0,0.035-0.019,0.035-0.037v-3.656h0.813c0.021,0,0.036-0.016,0.036-0.036v-0.756c0-0.02-0.019-0.036-0.036-0.036h-0.807v-0.357l0.005-0.033c0,0,0.002-0.001,0.002-0.002l0.009-0.069c0-0.001,0.001-0.002,0.001-0.004l0.003-0.023l0.044-0.106c0.002-0.002,0.003-0.005,0.003-0.008l0.056-0.072l0.065-0.048c0.002,0,0.003-0.001,0.004-0.001l0.077-0.026l0.255-0.024l0.261,0.024l0,0l0.078,0.007c0.002,0,0.002,0,0.002,0c0.002,0,0.002,0,0.002,0l0,0h0.021c0.02,0,0.035-0.016,0.035-0.036v-0.857c0-0.02-0.017-0.036-0.035-0.036L49.656,70.704z"/>
     <path  fill="#FFFFFF" d="M53.347,72.396c-0.02,0-0.035,0.016-0.035,0.036l-0.006,2.442c0,0.001,0,0.003,0,0.005c0,0,0,0,0,0.001l-0.009,0.138c-0.001,0.001-0.001,0.003-0.001,0.005v0.001l-0.007,0.109l-0.004,0.022c-0.001,0.003-0.002,0.007-0.002,0.01l-0.038,0.207c-0.001,0.002-0.002,0.005-0.002,0.008l-0.019,0.094l-0.015,0.037c-0.001,0.002-0.002,0.004-0.003,0.007l-0.043,0.113l-0.092,0.137l-0.021,0.019c-0.002,0.001-0.004,0.003-0.005,0.005l-0.098,0.089l-0.082,0.046c-0.001,0.001-0.003,0.002-0.005,0.003l-0.06,0.033l-0.195,0.06l-0.204,0.02L52.2,76.02l-0.195-0.063l-0.046-0.026c-0.001-0.001-0.002-0.001-0.004-0.002l-0.062-0.035l-0.03-0.028c-0.002-0.002-0.005-0.004-0.007-0.006l-0.06-0.051l-0.007-0.01c-0.002-0.002-0.003-0.004-0.005-0.006l-0.063-0.087L51.7,75.664c-0.001-0.003-0.002-0.007-0.005-0.01l-0.026-0.062c-0.001-0.004-0.003-0.007-0.005-0.011l-0.027-0.06c0-0.005-0.003-0.009-0.006-0.013l-0.01-0.021l-0.005-0.031c0-0.003-0.001-0.007-0.002-0.011l-0.012-0.061c0-0.004-0.002-0.008-0.002-0.012l-0.012-0.06c0-0.004-0.001-0.008-0.002-0.012l-0.009-0.048v-2.834c0-0.02-0.018-0.036-0.036-0.036H50.37c-0.021,0-0.036,0.016-0.036,0.036v3.06l0,0c0,0.001,0,0.002,0,0.003l0.019,0.187c0,0.001,0,0.002,0,0.003c0,0.003,0,0.007,0.002,0.01l0.005,0.059c0,0.001,0,0.002,0,0.003c0,0.003,0.002,0.007,0.002,0.01l0.004,0.039c0,0,0,0.001,0,0.002h0.001c0,0.001,0,0.003,0.001,0.005l0.005,0.02c0.001,0.004,0.002,0.008,0.004,0.012l0.019,0.062c0,0.002,0,0.005,0.002,0.007l0.037,0.135c0,0.004,0.002,0.007,0.002,0.01l0.017,0.052c0.001,0.002,0.001,0.004,0.002,0.006c0,0,0.001,0.001,0.001,0.002l0.04,0.081c0.001,0.003,0.003,0.006,0.004,0.009l0.095,0.19c0,0.002,0.002,0.005,0.002,0.004c0,0.001,0.001,0.002,0.003,0.003l0.188,0.25c0.001,0.001,0.002,0.002,0.003,0.003s0.002,0.002,0.003,0.003l0.062,0.056c0.002,0.002,0.004,0.002,0.007,0.004l0.004,0.004c0.002,0.002,0.004,0.002,0.005,0.004c0.001,0,0.002,0.002,0.003,0.002l0.104,0.062c0.004,0.004,0.006,0.006,0.011,0.006l0.11,0.065c0.004,0.003,0.008,0.005,0.015,0.007l0.015,0.01c0.002,0.002,0.005,0.004,0.007,0.004l0.278,0.098c0.006,0,0.006,0,0.009,0.002l0.291,0.039c0.002,0.002,0.004,0.002,0.006,0.002c0.001,0,0.001,0,0.001,0l0.423-0.008c0.002,0,0.002,0,0.004,0L52.144,77l0.418-0.062c0.002-0.001,0.004-0.001,0.007-0.002l0.019-0.006c0.003,0,0.006-0.002,0.009-0.002l0.047-0.016h0.002l0,0l0,0c0.002,0,0.004-0.002,0.004-0.002l0.069-0.033h0.001v-0.002c0.001,0,0.001,0,0.001,0c0.001,0,0.003,0,0.005-0.002l0.027-0.021c0.001-0.001,0.002-0.001,0.003-0.002l0.101-0.071l0,0l0.132-0.094c0.002,0,0.002,0,0.002-0.001l0,0c0.002-0.001,0.003-0.002,0.004-0.003l0.231-0.224c0.002,0,0.002-0.002,0.004-0.004l0.145-0.181v0.582c0,0.021,0.017,0.036,0.036,0.036h1.138c0.021,0,0.036-0.018,0.036-0.036v-4.428c0-0.02-0.019-0.036-0.036-0.036h-1.198v0.005H53.347z"/>
     <path  fill="#FFFFFF" d="M59.413,73.543c0-0.001,0-0.003-0.001-0.005v-0.001l-0.068-0.312c0-0.002-0.001-0.004-0.001-0.006c0,0,0,0-0.001,0l-0.028-0.079c0-0.001-0.002-0.001-0.002-0.002l-0.045-0.119c0-0.001-0.002-0.003-0.002-0.005v-0.001l-0.014-0.02c-0.001-0.002-0.002-0.004-0.003-0.006l-0.022-0.039c-0.011-0.019-0.021-0.037-0.032-0.056l-0.037-0.063c-0.002-0.003-0.004-0.004-0.004-0.006l-0.14-0.162c0-0.001-0.002-0.002-0.003-0.002c-0.001-0.001-0.003-0.002-0.004-0.003l-0.222-0.174c-0.001-0.001-0.002-0.002-0.003-0.003h-0.001c-0.002-0.001-0.004-0.001-0.004-0.002l-0.087-0.04c-0.026-0.014-0.056-0.027-0.084-0.039l-0.086-0.04c-0.002-0.001-0.004-0.002-0.006-0.002l0,0h-0.002l-0.136-0.029c-0.003-0.001-0.006-0.001-0.009-0.001l-0.133-0.028c-0.003,0-0.007,0-0.009-0.001l-0.566-0.014l0,0c0,0,0,0-0.001,0c0,0,0,0-0.001,0s-0.001,0-0.001,0c-0.001,0-0.002,0-0.004,0l-0.288,0.042c-0.003,0-0.005,0-0.008,0.001h-0.002c-0.004,0-0.006,0.001-0.01,0.002l-0.09,0.033c-0.033,0.011-0.066,0.023-0.1,0.037l-0.093,0.034c-0.002,0.001-0.004,0.002-0.006,0.003c-0.002,0-0.002,0-0.002,0l-0.059,0.037c-0.001,0.001-0.002,0.001-0.003,0.002l-0.192,0.121c0,0,0,0.001-0.002,0.001c0,0-0.001,0-0.002,0.001l0,0c0,0-0.001,0-0.001,0.001S56.8,72.6,56.8,72.6l-0.101,0.091c-0.003,0.001-0.005,0.003-0.005,0.004l-0.024,0.022c-0.001,0.001-0.003,0.002-0.004,0.004l-0.099,0.117c-0.003,0.001-0.005,0.003-0.007,0.006l-0.01,0.011c0,0-0.001,0.001-0.002,0.002l-0.04,0.055c-0.002,0.002-0.003,0.004-0.005,0.006l-0.049,0.065c-0.002,0.001-0.003,0.003-0.005,0.005l-0.014,0.015l-0.012,0.008v-0.586c0-0.02-0.017-0.036-0.035-0.036h-1.146c-0.021,0-0.036,0.016-0.036,0.036v4.457c0,0.021,0.018,0.037,0.036,0.037h1.193c0.021,0,0.037-0.018,0.037-0.037V74.42v-0.192v-0.003c0.002-0.144,0.03-0.286,0.08-0.422l0.013-0.021c0.053-0.13,0.134-0.249,0.239-0.341c0.054-0.046,0.114-0.081,0.181-0.109c0.003-0.001,0.006-0.001,0.008-0.003l0.04-0.016c0.064-0.023,0.135-0.041,0.205-0.043l0,0h0.002l0.312-0.014l0.09,0.004c0.004,0.001,0.009,0.002,0.012,0.002l0.074,0.021l0.094,0.046c0.003,0.002,0.006,0.003,0.009,0.004l0.021,0.011l0.104,0.087l0.084,0.11l0.002,0.003c0.047,0.079,0.081,0.163,0.105,0.25l0.005,0.015c0,0.002,0.002,0.005,0.003,0.007l0.009,0.034c0.021,0.083,0.034,0.169,0.035,0.256l0.002,2.75c0,0.02,0.018,0.036,0.036,0.036h1.158c0.021,0,0.035-0.017,0.035-0.036v-2.987l0,0c0-0.001,0-0.001,0-0.003L59.413,73.543z"/>
    </g>
    <g >
     <title >element:JP5</title>
     <g >
      <title >package:SFE-LOGO-FLAME</title>
      <title >polygon</title>
     </g>
    </g>
    <g >
     <title >element:JP6</title>
     <g >
      <title >package:FIDUCIAL-1X2</title>
     </g>
    </g>
    <g >
     <title >element:JP7</title>
     <g >
      <title >package:FIDUCIAL-1X2</title>
     </g>
    </g>
    <g >
     <title >element:OUTPUT</title>
     <g >
      <title >package:1X06-SMD</title>
     </g>
    </g>
    <g >
     <title >element:R1</title>
     <g >
      <title >package:0402-RES</title>
     </g>
    </g>
    <g >
     <title >element:R2</title>
     <g >
      <title >package:1/6W-RES</title>
      <line  fill="none" stroke="#FFFFFF" stroke-linecap="round" y1="63.609" stroke-width="0.576" x1="46.545" y2="58.791" x2="46.545"/>
      <line  fill="none" stroke="#FFFFFF" stroke-linecap="round" y1="58.791" stroke-width="0.576" x1="46.545" y2="58.791" x2="37.757"/>
      <line  fill="none" stroke="#FFFFFF" stroke-linecap="round" y1="58.791" stroke-width="0.576" x1="37.757" y2="63.609" x2="37.757"/>
      <line  fill="none" stroke="#FFFFFF" stroke-linecap="round" y1="63.609" stroke-width="0.576" x1="37.757" y2="63.609" x2="46.545"/>
     </g>
    </g>
    <g >
     <title >element:U1</title>
     <g >
      <title >package:ALPHANUMERIC</title>
     </g>
    </g>
    <g >
     <title >element:U2</title>
     <g >
      <title >package:SOT23-5</title>
      <line  fill="none" stroke="#FFFFFF" stroke-linecap="round" y1="20.383" stroke-width="0.576" x1="42.583" y2="22.817" x2="42.583"/>
      <line  fill="none" stroke="#FFFFFF" stroke-linecap="round" y1="22.817" stroke-width="0.576" x1="34.519" y2="20.383" x2="34.519"/>
      <line  fill="none" stroke="#FFFFFF" stroke-linecap="round" y1="19.303" stroke-width="0.576" x1="37.79" y2="19.303" x2="39.312"/>
     </g>
    </g>
    <g >
     <title >element:U3</title>
     <g >
      <title >package:TSSOP-24</title>
      <line  fill="none" stroke="#FFFFFF" stroke-linecap="round" y1="54.255" stroke-width="0.576" x1="47.822" y2="54.255" x2="36.482"/>
      <line  fill="none" stroke="#FFFFFF" stroke-linecap="round" y1="32.145" stroke-width="0.576" x1="36.482" y2="32.145" x2="47.822"/>
      <circle  fill="none" cx="46.058" cy="52.146" stroke="#FFFFFF" r="0.632" stroke-width="0.576"/>
     </g>
    </g>
   </g>
   <rect  width="14.173" x="45.865" y="18.198" fill="#FFFFFF" height="6.803" fill-opacity="0.15"/>
   <rect  width="1.149" x="41.575" y="60.192" fill="#FFFFFF" height="2.016" fill-opacity="0.15"/>
   <rect  width="8.788" x="37.757" y="58.791" fill="#FFFFFF" height="4.819" fill-opacity="0.15"/>
   <rect  width="8.064" x="34.519" y="19.303" fill="#FFFFFF" height="3.515" fill-opacity="0.15"/>
   <rect  width="11.34" x="36.482" y="32.145" fill="#FFFFFF" height="22.11" fill-opacity="0.15"/>
   <rect  width="2.781" x="69.561" y="110.209" fill="none" height="2.78" id="connector4pin"/>
   <rect  width="2.781" x="69.561" y="117.41" fill="none" height="2.78" id="connector5pin"/>
   <rect  width="2.781" x="69.561" y="124.609" fill="none" height="2.781" id="connector6pin"/>
   <rect  width="2.781" x="69.561" y="131.809" fill="none" height="2.781" id="connector7pin"/>
   <rect  width="2.781" x="69.561" y="139.009" fill="none" height="2.781" id="connector8pin"/>
   <rect  width="2.781" x="69.561" y="146.209" fill="none" height="2.78" id="connector9pin"/>
   <rect  width="2.78" x="11.927" y="110.208" fill="none" height="2.781" id="connector12pin"/>
   <rect  width="2.78" x="11.927" y="117.409" fill="none" height="2.781" id="connector13pin"/>
   <rect  width="2.78" x="11.927" y="124.609" fill="none" height="2.781" id="connector14pin"/>
   <rect  width="2.78" x="11.927" y="131.809" fill="none" height="2.78" id="connector15pin"/>
   <rect  width="2.78" x="11.927" y="139.009" fill="none" height="2.78" id="connector16pin"/>
   <rect  width="2.78" x="11.927" y="146.208" fill="none" height="2.781" id="connector17pin"/>
   <circle  fill="none" cx="67.351" cy="21.6" stroke="#9A916C" id="connector22pin" r="1.843" stroke-width="1.1339"/>
   <circle  fill="none" cx="67.351" cy="28.8" stroke="#9A916C" id="connector23pin" r="1.843" stroke-width="1.1339"/>
   <circle  fill="none" cx="67.351" cy="36" stroke="#9A916C" id="connector24pin" r="1.843" stroke-width="1.1339"/>
   <circle  fill="none" cx="67.351" cy="43.2" stroke="#9A916C" id="connector25pin" r="1.843" stroke-width="1.1339"/>
   <circle  fill="none" cx="67.351" cy="57.6" stroke="#9A916C" id="connector26pin" r="1.843" stroke-width="1.1339"/>
   <circle  fill="none" cx="67.351" cy="64.8" stroke="#9A916C" id="connector27pin" r="1.843" stroke-width="1.1339"/>
   <circle  fill="none" cx="67.351" cy="79.2" stroke="#9A916C" id="connector28pin" r="1.842" stroke-width="1.1339"/>
   <circle  fill="none" cx="67.351" cy="86.4" stroke="#9A916C" id="connector29pin" r="1.843" stroke-width="1.1339"/>
   <circle  fill="none" cx="67.351" cy="93.6" stroke="#9A916C" id="connector30pin" r="1.842" stroke-width="1.1339"/>
   <circle  fill="none" cx="67.351" cy="100.8" stroke="#9A916C" id="connector31pin" r="1.843" stroke-width="1.1339"/>
   <circle  fill="none" cx="16.951" cy="100.8" stroke="#9A916C" id="connector32pin" r="1.843" stroke-width="1.1339"/>
   <circle  fill="none" cx="16.951" cy="93.6" stroke="#9A916C" id="connector33pin" r="1.842" stroke-width="1.1339"/>
   <circle  fill="none" cx="16.951" cy="86.4" stroke="#9A916C" id="connector34pin" r="1.843" stroke-width="1.1339"/>
   <circle  fill="none" cx="16.951" cy="79.2" stroke="#9A916C" id="connector35pin" r="1.842" stroke-width="1.1339"/>
   <circle  fill="none" cx="16.951" cy="64.8" stroke="#9A916C" id="connector36pin" r="1.843" stroke-width="1.1339"/>
   <circle  fill="none" cx="16.951" cy="57.6" stroke="#9A916C" id="connector37pin" r="1.843" stroke-width="1.1339"/>
   <circle  fill="none" cx="16.951" cy="43.2" stroke="#9A916C" id="connector38pin" r="1.843" stroke-width="1.1339"/>
   <circle  fill="none" cx="16.951" cy="36" stroke="#9A916C" id="connector39pin" r="1.843" stroke-width="1.1339"/>
   <circle  fill="none" cx="16.951" cy="28.8" stroke="#9A916C" id="connector40pin" r="1.843" stroke-width="1.1339"/>
   <circle  fill="none" cx="16.951" cy="21.6" stroke="#9A916C" id="connector41pin" r="1.843" stroke-width="1.1339"/>
  </g>
  <g  id="sfe-logo-flame" transform="matrix(1, 0, 0, 1, 14.655, 46.5427)">
   <g  transform="matrix(0, -1, 1, 0, -1.32751, 6.68652)">
    <g >
     <title >element:JP2</title>
     <g >
      <title >package:SFE-LOGO-FLAME</title>
      <title >polygon</title>
     </g>
    </g>
    <g >
     <path  fill="#FFFFFF" d="M4.378,1.29c0,0,0.113,0.482-0.251,0.55C3.873,1.885,3.464,1.634,3.258,1.383c-0.255-0.31-0.223-0.554-0.024-0.771c0.297-0.327,0.805-0.2,0.805-0.2S3.107-0.406,2.136,0.263C1.273,0.858,1.521,1.669,2.299,2.376c0.703,0.64,0.144,1.341-0.564,1.249C1.249,3.563,1.05,3.175,1.167,2.935c0.102-0.205,0.449-0.33,0.449-0.33s-0.4-0.163-0.871,0.016C0.322,2.779-0.027,3.129,0.001,4.004v4.061c0,0,0.438-0.54,0.95-1.088C1.528,6.358,1.79,5.94,2.381,5.99C3.5,6.058,4.308,5.561,4.857,4.764C5.913,3.232,5.087,1.519,4.378,1.29z"/>
    </g>
   </g>
  </g>
  <g  id="sfe-logo-flame_1_" transform="matrix(1, 0, 0, 1, 64.2907, 46.2524)">
   <g  transform="matrix(0, 1, -1, 0, 6.68652, 1.32751)">
    <g >
     <title >element:JP2</title>
     <g >
      <title >package:SFE-LOGO-FLAME</title>
      <title >polygon</title>
     </g>
    </g>
    <g >
     <path  fill="#FFFFFF" d="M4.378,1.29c0,0,0.113,0.481-0.251,0.55C3.873,1.885,3.464,1.634,3.258,1.383C3.003,1.073,3.035,0.829,3.234,0.612c0.297-0.327,0.805-0.2,0.805-0.2S3.107-0.406,2.136,0.263C1.273,0.858,1.521,1.669,2.299,2.376c0.703,0.64,0.144,1.341-0.564,1.249c-0.486-0.062-0.685-0.45-0.568-0.69c0.102-0.205,0.449-0.33,0.449-0.33s-0.4-0.163-0.871,0.016C0.322,2.779-0.027,3.129,0.001,4.004v4.06c0,0,0.438-0.54,0.95-1.088C1.528,6.358,1.79,5.94,2.381,5.99C3.5,6.058,4.308,5.561,4.857,4.764C5.913,3.232,5.087,1.519,4.378,1.29z"/>
    </g>
   </g>
  </g>
  <g >
   <rect  width="7.198" x="67.289" y="108" fill="#404040" height="43.199"/>
   <rect  width="2.78" x="69.498" y="110.209" height="2.781"/>
   <polygon  fill="#2A2A29" points="73.306,109.185 72.281,110.208 72.281,112.993 73.306,114.017 "/>
   <polygon  fill="#474747" points="73.306,114.017 72.279,112.993 69.496,112.993 68.474,114.017 "/>
   <polygon  fill="#595959" points="68.474,114.016 69.496,112.991 69.496,110.208 68.474,109.185 "/>
   <polygon  fill="#373737" points="68.474,109.183 69.498,110.208 72.281,110.208 73.306,109.183 "/>
   <rect  width="2.78" x="69.498" y="117.411" height="2.781"/>
   <polygon  fill="#2A2A29" points="73.306,116.383 72.281,117.409 72.281,120.191 73.306,121.215 "/>
   <polygon  fill="#474747" points="73.306,121.215 72.279,120.191 69.496,120.191 68.474,121.215 "/>
   <polygon  fill="#595959" points="68.474,121.215 69.496,120.19 69.496,117.409 68.474,116.383 "/>
   <polygon  fill="#373737" points="68.474,116.381 69.498,117.409 72.281,117.409 73.306,116.381 "/>
   <rect  width="2.78" x="69.498" y="124.61" height="2.781"/>
   <polygon  fill="#2A2A29" points="73.306,123.584 72.281,124.608 72.281,127.392 73.306,128.417 "/>
   <polygon  fill="#474747" points="73.306,128.417 72.279,127.392 69.496,127.392 68.474,128.417 "/>
   <polygon  fill="#595959" points="68.474,128.417 69.496,127.391 69.496,124.608 68.474,123.584 "/>
   <polygon  fill="#373737" points="68.474,123.583 69.498,124.608 72.281,124.608 73.306,123.583 "/>
   <rect  width="2.78" x="69.498" y="131.811" height="2.781"/>
   <polygon  fill="#2A2A29" points="73.306,130.786 72.281,131.809 72.281,134.592 73.306,135.618 "/>
   <polygon  fill="#474747" points="73.306,135.618 72.279,134.592 69.496,134.592 68.474,135.618 "/>
   <polygon  fill="#595959" points="68.474,135.616 69.496,134.59 69.496,131.809 68.474,130.786 "/>
   <polygon  fill="#373737" points="68.474,130.782 69.498,131.809 72.281,131.809 73.306,130.782 "/>
   <rect  width="2.78" x="69.498" y="139.01" height="2.781"/>
   <polygon  fill="#2A2A29" points="73.306,137.985 72.281,139.008 72.281,141.792 73.306,142.817 "/>
   <polygon  fill="#474747" points="73.306,142.817 72.279,141.792 69.496,141.792 68.474,142.817 "/>
   <polygon  fill="#595959" points="68.474,142.815 69.496,141.792 69.496,139.008 68.474,137.985 "/>
   <polygon  fill="#373737" points="68.474,137.983 69.498,139.008 72.281,139.008 73.306,137.983 "/>
   <rect  width="2.78" x="69.498" y="146.209" height="2.781"/>
   <polygon  fill="#2A2A29" points="73.306,145.184 72.281,146.208 72.281,148.993 73.306,150.016 "/>
   <polygon  fill="#474747" points="73.306,150.016 72.279,148.993 69.496,148.993 68.474,150.016 "/>
   <polygon  fill="#595959" points="68.474,150.016 69.496,148.991 69.496,146.208 68.474,145.184 "/>
   <polygon  fill="#373737" points="68.474,145.182 69.498,146.208 72.281,146.208 73.306,145.182 "/>
  </g>
  <g >
   <polygon  fill="#404040" points="9.751,149.637 11.316,151.2 15.388,151.2 16.95,149.637 16.95,145.564 15.388,144 11.316,144 9.751,145.564 "/>
   <rect  width="2.3" x="12.2" y="146.452" fill="#8D8C8C" height="2.297"/>
   <rect  width="1.185" x="12.759" y="147.008" fill="#8C8663" height="1.182"/>
   <polygon  fill="#B8AF82" points="12.2,148.749 12.759,148.19 12.759,147.008 12.2,146.452 "/>
   <polygon  fill="#80795B" points="13.941,147.008 12.759,147.008 12.2,146.452 14.5,146.452 "/>
   <polygon  fill="#5E5B43" points="13.941,148.19 13.941,147.008 14.5,146.452 14.5,148.749 "/>
   <polygon  fill="#9A916C" points="12.2,148.749 12.759,148.19 13.941,148.19 14.5,148.749 "/>
   <polygon  fill="#404040" points="9.751,142.436 11.316,144 15.388,144 16.95,142.436 16.95,138.364 15.388,136.799 11.316,136.799 9.751,138.364 "/>
   <rect  width="2.3" x="12.2" y="139.25" fill="#8D8C8C" height="2.297"/>
   <rect  width="1.185" x="12.759" y="139.808" fill="#8C8663" height="1.183"/>
   <polygon  fill="#B8AF82" points="12.2,141.547 12.759,140.991 12.759,139.809 12.2,139.25 "/>
   <polygon  fill="#80795B" points="13.941,139.809 12.759,139.809 12.2,139.25 14.5,139.25 "/>
   <polygon  fill="#5E5B43" points="13.941,140.991 13.941,139.809 14.5,139.25 14.5,141.547 "/>
   <polygon  fill="#9A916C" points="12.2,141.547 12.759,140.991 13.941,140.991 14.5,141.547 "/>
   <polygon  fill="#404040" points="9.751,135.237 11.316,136.799 15.388,136.799 16.95,135.237 16.95,131.165 15.388,129.6 11.316,129.6 9.751,131.165 "/>
   <rect  width="2.3" x="12.2" y="132.051" fill="#8D8C8C" height="2.297"/>
   <rect  width="1.185" x="12.759" y="132.608" fill="#8C8663" height="1.184"/>
   <polygon  fill="#B8AF82" points="12.2,134.348 12.759,133.792 12.759,132.609 12.2,132.051 "/>
   <polygon  fill="#80795B" points="13.941,132.609 12.759,132.609 12.2,132.051 14.5,132.051 "/>
   <polygon  fill="#5E5B43" points="13.941,133.792 13.941,132.609 14.5,132.051 14.5,134.348 "/>
   <polygon  fill="#9A916C" points="12.2,134.348 12.759,133.792 13.941,133.792 14.5,134.348 "/>
   <polygon  fill="#404040" points="9.751,128.038 11.316,129.6 15.388,129.6 16.95,128.038 16.95,123.963 15.388,122.401 11.316,122.401 9.751,123.963 "/>
   <rect  width="2.3" x="12.2" y="124.852" fill="#8D8C8C" height="2.297"/>
   <rect  width="1.185" x="12.759" y="125.409" fill="#8C8663" height="1.182"/>
   <polygon  fill="#B8AF82" points="12.2,127.149 12.759,126.59 12.759,125.409 12.2,124.852 "/>
   <polygon  fill="#80795B" points="13.941,125.409 12.759,125.409 12.2,124.852 14.5,124.852 "/>
   <polygon  fill="#5E5B43" points="13.941,126.59 13.941,125.409 14.5,124.852 14.5,127.149 "/>
   <polygon  fill="#9A916C" points="12.2,127.149 12.759,126.59 13.941,126.59 14.5,127.149 "/>
   <polygon  fill="#404040" points="9.751,120.836 11.316,122.401 15.388,122.401 16.95,120.836 16.95,116.764 15.388,115.2 11.316,115.2 9.751,116.764 "/>
   <rect  width="2.3" x="12.2" y="117.651" fill="#8D8C8C" height="2.297"/>
   <rect  width="1.185" x="12.759" y="118.208" fill="#8C8663" height="1.186"/>
   <polygon  fill="#B8AF82" points="12.2,119.948 12.759,119.391 12.759,118.209 12.2,117.651 "/>
   <polygon  fill="#80795B" points="13.941,118.209 12.759,118.209 12.2,117.651 14.5,117.651 "/>
   <polygon  fill="#5E5B43" points="13.941,119.391 13.941,118.209 14.5,117.651 14.5,119.948 "/>
   <polygon  fill="#9A916C" points="12.2,119.948 12.759,119.391 13.941,119.391 14.5,119.948 "/>
   <polygon  fill="#404040" points="9.751,113.637 11.316,115.2 15.388,115.2 16.95,113.637 16.95,109.565 15.388,108 11.316,108 9.751,109.565 "/>
   <rect  width="2.3" x="12.2" y="110.452" fill="#8D8C8C" height="2.297"/>
   <rect  width="1.185" x="12.759" y="111.008" fill="#8C8663" height="1.182"/>
   <polygon  fill="#B8AF82" points="12.2,112.749 12.759,112.19 12.759,111.01 12.2,110.452 "/>
   <polygon  fill="#80795B" points="13.941,111.01 12.759,111.01 12.2,110.452 14.5,110.452 "/>
   <polygon  fill="#5E5B43" points="13.941,112.19 13.941,111.01 14.5,110.452 14.5,112.749 "/>
   <polygon  fill="#9A916C" points="12.2,112.749 12.759,112.19 13.941,112.19 14.5,112.749 "/>
  </g>
 </g>
</svg>
