<?xml version='1.0' encoding='UTF-8' standalone='no'?>
<!-- Created with Fritzing (http://www.fritzing.org/) -->
<svg xmlns="http://www.w3.org/2000/svg" width="0.65in" x="0in" version="1.2" y="0in" height="0.4in" viewBox="0 0 46.8 28.8" baseProfile="tiny">
 <desc >Fritzing breadboard generated by brd2svg</desc>
 <g  id="breadboard" stroke-width="0">
  <g  id="icon" stroke-width="0">
   <path  fill="#C62717" stroke="none" stroke-width="0" d="M0,28.8L46.8,28.8L46.8,0L0,0L0,28.8M41.76,21.6a1.44,1.44,0,1,1,2.88,0,1.44,1.44,0,1,1,-2.88,0zM41.76,14.4a1.44,1.44,0,1,1,2.88,0,1.44,1.44,0,1,1,-2.88,0zM41.76,7.2a1.44,1.44,0,1,1,2.88,0,1.44,1.44,0,1,1,-2.88,0z"/>
   <g  stroke-width="0">
    <title >layer 21</title>
    <g  stroke-width="0">
     <title >element:C1</title>
     <g  stroke-width="0">
      <title >package:0402-CAP</title>
      <line  stroke="white" stroke-linecap="round" y1="3.51354" x1="14.76" y2="3.68646" stroke-width="1.152" x2="14.76"/>
     </g>
    </g>
    <g  stroke-width="0">
     <title >element:C2</title>
     <g  stroke-width="0">
      <title >package:0402-CAP</title>
      <line  stroke="white" stroke-linecap="round" y1="13.68" x1="37.1665" y2="13.68" stroke-width="1.152" x2="36.9935"/>
     </g>
    </g>
    <g  stroke-width="0">
     <title >element:C3</title>
     <g  stroke-width="0">
      <title >package:0402-CAP</title>
      <line  stroke="white" stroke-linecap="round" y1="3.51354" x1="25.2" y2="3.68646" stroke-width="1.152" x2="25.2"/>
     </g>
    </g>
    <g  stroke-width="0">
     <title >element:C4</title>
     <g  stroke-width="0">
      <title >package:0402-CAP</title>
      <line  stroke="white" stroke-linecap="round" y1="17.9135" x1="14.76" y2="18.0865" stroke-width="1.152" x2="14.76"/>
     </g>
    </g>
    <g  stroke-width="0">
     <title >element:JP1</title>
     <g  stroke-width="0">
      <title >package:1X03</title>
      <line  stroke="white" stroke-linecap="round" y1="10.8" x1="41.4" y2="9" stroke-width="0.576" x2="39.6"/>
      <line  stroke="white" stroke-linecap="round" y1="9" x1="39.6" y2="5.4" stroke-width="0.576" x2="39.6"/>
      <line  stroke="white" stroke-linecap="round" y1="5.4" x1="39.6" y2="3.6" stroke-width="0.576" x2="41.4"/>
      <line  stroke="white" stroke-linecap="round" y1="3.6" x1="45" y2="5.4" stroke-width="0.576" x2="46.8"/>
      <line  stroke="white" stroke-linecap="round" y1="5.4" x1="46.8" y2="9" stroke-width="0.576" x2="46.8"/>
      <line  stroke="white" stroke-linecap="round" y1="9" x1="46.8" y2="10.8" stroke-width="0.576" x2="45"/>
      <line  stroke="white" stroke-linecap="round" y1="23.4" x1="39.6" y2="19.8" stroke-width="0.576" x2="39.6"/>
      <line  stroke="white" stroke-linecap="round" y1="19.8" x1="39.6" y2="18" stroke-width="0.576" x2="41.4"/>
      <line  stroke="white" stroke-linecap="round" y1="18" x1="45" y2="19.8" stroke-width="0.576" x2="46.8"/>
      <line  stroke="white" stroke-linecap="round" y1="18" x1="41.4" y2="16.2" stroke-width="0.576" x2="39.6"/>
      <line  stroke="white" stroke-linecap="round" y1="16.2" x1="39.6" y2="12.6" stroke-width="0.576" x2="39.6"/>
      <line  stroke="white" stroke-linecap="round" y1="12.6" x1="39.6" y2="10.8" stroke-width="0.576" x2="41.4"/>
      <line  stroke="white" stroke-linecap="round" y1="10.8" x1="45" y2="12.6" stroke-width="0.576" x2="46.8"/>
      <line  stroke="white" stroke-linecap="round" y1="12.6" x1="46.8" y2="16.2" stroke-width="0.576" x2="46.8"/>
      <line  stroke="white" stroke-linecap="round" y1="16.2" x1="46.8" y2="18" stroke-width="0.576" x2="45"/>
      <line  stroke="white" stroke-linecap="round" y1="25.2" x1="41.4" y2="25.2" stroke-width="0.576" x2="45"/>
      <line  stroke="white" stroke-linecap="round" y1="23.4" x1="39.6" y2="25.2" stroke-width="0.576" x2="41.4"/>
      <line  stroke="white" stroke-linecap="round" y1="25.2" x1="45" y2="23.4" stroke-width="0.576" x2="46.8"/>
      <line  stroke="white" stroke-linecap="round" y1="19.8" x1="46.8" y2="23.4" stroke-width="0.576" x2="46.8"/>
      <line  stroke="white" stroke-linecap="round" y1="3.6" x1="41.4" y2="3.6" stroke-width="0.576" x2="45"/>
     </g>
    </g>
    <g  stroke-width="0">
     <title >element:JP2</title>
     <g  stroke-width="0">
      <title >package:FIDUCIAL-1X2</title>
     </g>
    </g>
    <g  stroke-width="0">
     <title >element:JP3</title>
     <g  stroke-width="0">
      <title >package:FIDUCIAL-1X2</title>
     </g>
    </g>
    <g  stroke-width="0">
     <title >element:M1</title>
     <g  stroke-width="0">
      <title >package:MIC-9.7MM</title>
     </g>
    </g>
    <g  stroke-width="0">
     <title >element:R1</title>
     <g  stroke-width="0">
      <title >package:0402-RES</title>
     </g>
    </g>
    <g  stroke-width="0">
     <title >element:R2</title>
     <g  stroke-width="0">
      <title >package:0402-RES</title>
     </g>
    </g>
    <g  stroke-width="0">
     <title >element:R3</title>
     <g  stroke-width="0">
      <title >package:0402-RES</title>
     </g>
    </g>
    <g  stroke-width="0">
     <title >element:R4</title>
     <g  stroke-width="0">
      <title >package:0402-RES</title>
     </g>
    </g>
    <g  stroke-width="0">
     <title >element:R5</title>
     <g  stroke-width="0">
      <title >package:0402-RES</title>
     </g>
    </g>
    <g  stroke-width="0">
     <title >element:U$1</title>
     <g  stroke-width="0">
      <title >package:SFE-LOGO-FLAME</title>
      <g  stroke-width="0">
       <title >polygon</title>
       <path  fill="none" stroke="white" stroke-linecap="round" stroke-width="0.072" d="M17.6615,24.0117L17.64,24.1487M17.64,24.1487L17.619,24.4151M17.619,24.4151L17.64,24.6815M17.64,24.6815L17.6921,24.8797M17.6921,24.8797L17.7831,25.0633M17.7831,25.0633L17.909,25.2252M17.909,25.2252L18.0649,25.3582M18.0649,25.3582L18.2724,25.4719M18.2724,25.4719L18.4989,25.5401M18.4989,25.5401L18.7345,25.5597M18.7345,25.5597L23.0329,25.5597M23.0329,25.5597L21.4775,24.1775M21.4775,24.1775L21.2522,23.9315M21.2522,23.9315L21.0815,23.6447M21.0815,23.6447L21.0433,23.5392M21.0433,23.5392L21.024,23.4287M21.024,23.4287L21.024,22.7807M21.024,22.7807L20.9889,22.3942M20.9889,22.3942L20.8845,22.0204M20.8845,22.0204L20.7145,21.6717M20.7145,21.6717L20.4828,21.3438M20.4828,21.3438L20.2073,21.0512M20.2073,21.0512L19.8935,20.8007M19.8935,20.8007L19.417,20.5322M19.417,20.5322L18.9,20.3542M18.9,20.3542L18.3594,20.2725M18.3594,20.2725L17.8129,20.2895M17.8129,20.2895L17.5181,20.3482M17.5181,20.3482L17.2352,20.4497M17.2352,20.4497L16.9705,20.5917M16.9705,20.5917L16.6481,20.8488M16.6481,20.8488L16.3871,21.1677M16.3871,21.1677L16.6391,21.1677M16.6391,21.1677L16.6802,21.1734M16.6802,21.1734L16.7185,21.1895M16.7185,21.1895L16.8225,21.2738M16.8225,21.2738L16.8985,21.3837M16.8985,21.3837L16.92,21.4415M16.92,21.4415L16.9376,21.6037M16.9376,21.6037L16.9078,21.7642M16.9078,21.7642L16.8335,21.9095M16.8335,21.9095L16.6465,22.1687M16.6465,22.1687L16.5433,22.2885M16.5433,22.2885L16.4231,22.3917M16.4231,22.3917L16.2884,22.4748M16.2884,22.4748L16.1425,22.5357M16.1425,22.5357L16.0497,22.5541M16.0497,22.5541L15.9551,22.5502M15.9551,22.5502L15.7992,22.5031M15.7992,22.5031L15.6606,22.4172M15.6606,22.4172L15.5495,22.2982M15.5495,22.2982L15.4729,22.1542M15.4729,22.1542L15.4321,22.009M15.4321,22.009L15.4151,21.8591M15.4151,21.8591L15.4151,21.6862M15.4151,21.6862L15.4151,21.6865M15.4151,21.6865L15.408,21.6935M15.408,21.6935L15.3122,21.8169M15.3122,21.8169L15.2495,21.9597M15.2495,21.9597L15.2065,22.0607M15.2065,22.0607L15.1775,22.1255M15.1775,22.1255L15.1155,22.3744M15.1155,22.3744L15.0911,22.6295M15.0911,22.6295L15.1098,22.8758M15.1098,22.8758L15.1756,23.114M15.1756,23.114L15.2855,23.3351M15.2855,23.3351L15.4443,23.5553M15.4443,23.5553L15.6311,23.7527M15.6311,23.7527L15.8023,23.8748M15.8023,23.8748L15.9985,23.9505M15.9985,23.9505L16.2073,23.9751M16.2073,23.9751L16.4157,23.9468M16.4157,23.9468L16.6105,23.8677M16.6105,23.8677L17.1091,23.5315M17.1091,23.5315L17.5465,23.1191M17.5465,23.1191L17.674,23.0106M17.674,23.0106L17.8251,22.9386M17.8251,22.9386L17.9895,22.9079M17.9895,22.9079L18.1565,22.9209M18.1565,22.9209L18.3144,22.9765M18.3144,22.9765L18.4524,23.0712M18.4524,23.0712L18.5615,23.1982M18.5615,23.1982L18.6477,23.358M18.6477,23.358L18.7058,23.5301M18.7058,23.5301L18.7345,23.7095M18.7345,23.7095L18.724,23.9193M18.724,23.9193L18.6628,24.12M18.6628,24.12L18.5545,24.2997M18.5545,24.2997L18.4541,24.395M18.4541,24.395L18.3311,24.4582M18.3311,24.4582L18.2049,24.4863M18.2049,24.4863L18.0757,24.4863M18.0757,24.4863L17.9495,24.4582M17.9495,24.4582L17.9011,24.4327M17.9011,24.4327L17.8631,24.3935M17.8631,24.3935L17.6905,24.1557M17.6905,24.1557L17.6666,24.1112M17.6666,24.1112L17.6567,24.0619M17.6567,24.0619L17.6615,24.0117M22.968,25.5597L22.968,25.5022M22.896,25.5597L22.896,25.4381M22.824,25.5597L22.824,25.3743M22.752,25.5597L22.752,25.3102M22.68,25.5597L22.68,25.2462M22.608,25.5597L22.608,25.1821M22.536,25.5597L22.536,25.1184M22.464,25.5597L22.464,25.0543M22.392,25.5597L22.392,24.9903M22.32,25.5597L22.32,24.9265M22.248,25.5597L22.248,24.8624M22.176,25.5597L22.176,24.7983M22.104,25.5597L22.104,24.7342M22.032,25.5597L22.032,24.6705M21.96,25.5597L21.96,24.6064M21.888,25.5597L21.888,24.5424M21.816,25.5597L21.816,24.4786M21.744,25.5597L21.744,24.4146M21.672,25.5597L21.672,24.3505M21.6,25.5597L21.6,24.2864M21.528,25.5597L21.528,24.2226M21.456,25.5597L21.456,24.1543M21.384,25.5597L21.384,24.0755M21.312,25.5597L21.312,23.997M21.24,25.5597L21.24,23.9111M21.168,25.5597L21.168,23.79M21.096,25.5597L21.096,23.669M21.024,25.5597L21.024,22.7807M20.952,25.5597L20.952,22.2625M20.88,25.5597L20.88,22.0113M20.808,25.5597L20.808,21.8636M20.736,25.5597L20.736,21.7159M20.664,25.5597L20.664,21.6003M20.592,25.5597L20.592,21.4986M20.52,25.5597L20.52,21.3965M20.448,25.5597L20.448,21.3069M20.376,25.5597L20.376,21.2304M20.304,25.5597L20.304,21.1541M20.232,25.5597L20.232,21.0776M20.16,25.5597L20.16,21.0135M20.088,25.5597L20.088,20.956M20.016,25.5597L20.016,20.8984M19.944,25.5597L19.944,20.8412M19.872,25.5597L19.872,20.7887M19.8,25.5597L19.8,20.7482M19.728,25.5597L19.728,20.7076M19.656,25.5597L19.656,20.6668M19.584,25.5597L19.584,20.6263M19.512,25.5597L19.512,20.5857M19.44,25.5597L19.44,20.5452M19.368,25.5597L19.368,20.5155M19.296,25.5597L19.296,20.4906M19.224,25.5597L19.224,20.4659M19.152,25.5597L19.152,20.4412M19.08,25.5597L19.08,20.4162M19.008,25.5597L19.008,20.3916M18.936,25.5597L18.936,20.3666M18.864,25.5597L18.864,20.3488M18.792,25.5597L18.792,20.338M18.72,25.5583L18.72,23.9321M18.72,23.6188L18.72,20.3273M18.648,25.5524L18.648,24.1444M18.648,23.3586L18.648,20.3162M18.576,25.5464L18.576,24.2637M18.576,23.2248L18.576,20.3054M18.504,25.5404L18.504,24.3473M18.504,23.131L18.504,20.2946M18.432,25.5198L18.432,24.4063M18.432,23.057L18.432,20.2836M18.36,25.4982L18.36,24.4431M18.36,23.0077L18.36,20.2728M18.288,25.4764L18.288,24.4675M18.288,22.9671L18.288,20.2746M18.216,25.4407L18.216,24.4837M18.216,22.9416L18.216,20.2768M18.144,25.4012L18.144,24.4863M18.144,22.9198L18.144,20.2791M18.072,25.3619L18.072,24.4857M18.072,22.9141L18.072,20.2813M18,25.3026L18,24.4695M18,22.9085L18,20.2836M17.928,25.2414L17.928,24.4468M17.928,22.9195L17.928,20.2859M17.856,25.1569L17.856,24.3839M17.856,22.9329L17.856,20.2882M17.784,25.0642L17.784,24.2847M17.784,22.9584L17.784,20.2952M17.712,24.9196L17.712,24.1854M17.712,22.9927L17.712,20.3094M17.64,24.6815L17.64,24.1487M17.64,23.0397L17.64,20.3239M17.568,23.1009L17.568,20.338M17.496,23.1667L17.496,20.3558M17.424,23.2348L17.424,20.382M17.352,23.3025L17.352,20.4078M17.28,23.3706L17.28,20.4335M17.208,23.4382L17.208,20.4641M17.136,23.5063L17.136,20.5027M17.064,23.5621L17.064,20.5412M16.992,23.6106L16.992,20.5801M16.92,23.6591L16.92,21.6984M16.92,21.4415L16.92,20.6317M16.848,23.7076L16.848,21.8812M16.848,21.3106L16.848,20.6892M16.776,23.7563L16.776,21.9892M16.776,21.236L16.776,20.7468M16.704,23.8048L16.704,22.0887M16.704,21.1833L16.704,20.804M16.632,23.8532L16.632,22.1854M16.632,21.1677L16.632,20.8684M16.56,23.8884L16.56,22.269M16.56,21.1677L16.56,20.9562M16.488,23.9176L16.488,22.3358M16.488,21.1677L16.488,21.0444M16.416,23.9468L16.416,22.396M16.416,21.1677L16.416,21.1323M16.344,23.9567L16.344,22.4405M16.272,23.9664L16.272,22.4816M16.2,23.974L16.2,22.5116M16.128,23.9655L16.128,22.5385M16.056,23.957L16.056,22.5527M15.984,23.9448L15.984,22.5516M15.912,23.917L15.912,22.5374M15.84,23.8892L15.84,22.5156M15.768,23.8501L15.768,22.4839M15.696,23.7988L15.696,22.4393M15.624,23.745L15.624,22.3781M15.552,23.669L15.552,22.301M15.48,23.593L15.48,22.1678M15.408,23.5049L15.408,21.6935M15.336,23.4048L15.336,21.786M15.264,23.2917L15.264,21.9265M15.192,23.1468L15.192,22.0929M15.12,22.9127L15.12,22.356"/>
      </g>
     </g>
    </g>
    <g  stroke-width="0">
     <title >element:U1</title>
     <g  stroke-width="0">
      <title >package:SOT23-5</title>
      <line  stroke="white" stroke-linecap="round" y1="10.368" x1="23.9828" y2="10.368" stroke-width="0.576" x2="26.4172"/>
      <line  stroke="white" stroke-linecap="round" y1="18.432" x1="26.4172" y2="18.432" stroke-width="0.576" x2="23.9828"/>
      <line  stroke="white" stroke-linecap="round" y1="15.1608" x1="22.9028" y2="13.6392" stroke-width="0.576" x2="22.9028"/>
     </g>
    </g>
   </g>
   <rect  width="1.152" x="13.464" y="9.792" fill="#ffffff" height="2.016" stroke="none" fill-opacity="0.15" stroke-width="0"/>
   <rect  width="1.152" x="24.624" y="20.592" fill="#ffffff" height="2.016" stroke="none" fill-opacity="0.15" stroke-width="0"/>
   <rect  width="1.152" x="32.544" y="12.672" fill="#ffffff" height="2.016" stroke="none" fill-opacity="0.15" stroke-width="0"/>
   <rect  width="1.152" x="17.064" y="9.792" fill="#ffffff" height="2.016" stroke="none" fill-opacity="0.15" stroke-width="0"/>
   <rect  width="1.152" x="24.624" y="6.192" fill="#ffffff" height="2.016" stroke="none" fill-opacity="0.15" stroke-width="0"/>
   <rect  width="3.51439" x="22.9028" y="10.368" fill="#ffffff" height="8.064" stroke="none" fill-opacity="0.15" stroke-width="0"/>
   <circle  fill="none" cx="43.2" cy="21.6" connectorname="VCC" stroke="#9A916C" r="2.052" id="connector8pin" stroke-width="1.224"/>
   <circle  fill="none" cx="43.2" cy="14.4" connectorname="GND" stroke="#9A916C" r="2.052" id="connector9pin" stroke-width="1.224"/>
   <circle  fill="none" cx="43.2" cy="7.2" connectorname="AUD" stroke="#9A916C" r="2.052" id="connector10pin" stroke-width="1.224"/>
  </g>
  <g  id="mic-9.7mm" stroke-width="0" transform="matrix(1, 0, 0, 1, 0.656531, 0.647461)">
   <g  stroke-width="0" transform="matrix(-1, 0, 0, -1, 27.496, 27.496)">
    <g  id="Ebene_1" stroke-width="0">
     <circle  fill="#C1C1C1" cx="13.748" cy="13.748" r="13.748" stroke-width="0"/>
     <g  stroke-width="0">
      <path  fill="#212121" stroke-width="0" d="M13.748,26.229c-6.882,0,-12.48,-5.6,-12.48,-12.481s5.599,-12.48,12.48,-12.48s12.481,5.599,12.481,12.48S20.63,26.229,13.748,26.229z"/>
      <path  fill="#3A3A3A" stroke-width="0" d="M13.748,1.417c6.81,0,12.331,5.521,12.331,12.331c0,6.81,-5.521,12.331,-12.331,12.331c-6.81,0,-12.331,-5.521,-12.331,-12.331C1.417,6.938,6.938,1.417,13.748,1.417M13.748,1.118c-6.964,0,-12.63,5.666,-12.63,12.63c0,6.965,5.666,12.631,12.63,12.631c6.965,0,12.631,-5.666,12.631,-12.631C26.379,6.784,20.713,1.118,13.748,1.118L13.748,1.118z"/>
     </g>
     <g  stroke-width="0">
      <path  fill="none" stroke-width="0" d="M18.332,24.537c0.282,0,0.531,0.136,0.692,0.343c0.919001,-0.437,1.78,-0.969998,2.557,-1.61c-0.0959998,-0.14,-0.152,-0.311,-0.152,-0.494c0,-0.487,0.395,-0.880999,0.880999,-0.880999c0.195,0,0.374,0.065,0.52,0.174c0.311,-0.338,0.601,-0.691,0.871999,-1.062c-0.024,0.001,-0.047,0.007,-0.07,0.007c-0.487,0,-0.880999,-0.395,-0.880999,-0.880999s0.394,-0.879998,0.880999,-0.879998c0.385,0,0.707,0.247,0.826999,0.59c0.276,-0.483,0.519,-0.984002,0.729,-1.505c-0.0730001,0.02,-0.148,0.034,-0.228,0.034c-0.486,0,-0.880999,-0.396,-0.880999,-0.882s0.395,-0.879998,0.880999,-0.879998c0.279,0,0.525,0.132,0.687,0.334c0.113,-0.423,0.203,-0.855,0.272,-1.295c-0.306,-0.139,-0.518,-0.444,-0.518,-0.801c0,-0.412,0.283,-0.754999,0.665,-0.850997c0.003,-0.0840002,0.014,-0.166,0.014,-0.25c0,-2.226,-0.598,-4.308,-1.63,-6.11c-0.191,-0.136,-0.323,-0.346,-0.357,-0.589c-0.627,-0.965002,-1.385,-1.834,-2.249,-2.587C21.759,4.86,21.405,5.16,20.981,5.16c-0.487,0,-0.880999,-0.394,-0.880999,-0.879998c0,-0.347,0.202,-0.643,0.492,-0.787003c-0.870998,-0.583,-1.825,-1.048,-2.834,-1.396c-0.155,0.252,-0.431,0.421,-0.748001,0.421c-0.481,0,-0.870998,-0.387,-0.879998,-0.867002c-0.296,-0.058,-0.598,-0.101,-0.901001,-0.137c0.005,0.04,0.012,0.081,0.012,0.123c0,0.487,-0.394,0.880999,-0.879998,0.880999c-0.487,0,-0.880999,-0.395,-0.880999,-0.880999c0,-0.072,0.011,-0.141,0.027,-0.208c-0.279,0.005,-0.556,0.018,-0.831002,0.041c0.011,0.054,0.017,0.109,0.017,0.167c0,0.487,-0.394,0.880999,-0.880999,0.880999c-0.448,0,-0.813002,-0.335,-0.868997,-0.769003c-0.335,0.0779998,-0.666,0.164,-0.988999,0.268C9.81202,2.312,9.51401,2.519,9.16402,2.519c-0.122,0,-0.238,-0.025,-0.344,-0.07c-1,0.436,-1.929,1.002,-2.769,1.676C6.06,4.175,6.066,4.226,6.066,4.28c0,0.487,-0.394,0.879998,-0.879998,0.879998c-0.0840002,0,-0.165,-0.016,-0.242,-0.038C4.646,5.425,4.368,5.746,4.103,6.078c0.37,0.104,0.642,0.44,0.642,0.843998c0,0.486,-0.394,0.879998,-0.879998,0.879998c-0.289,0,-0.542,-0.14,-0.703,-0.355C2.924,7.84699,2.705,8.25898,2.513,8.68702c0.00799999,-0.001,0.016,-0.003,0.023,-0.003c0.487,0,0.880999,0.394,0.880999,0.879998c0,0.487,-0.394,0.880999,-0.880999,0.880999c-0.231,0,-0.439,-0.0910001,-0.597,-0.238c-0.121,0.402,-0.22,0.814003,-0.299,1.232c0.271,0.15,0.455,0.436,0.455,0.767002c0,0.404,-0.273,0.740002,-0.644,0.843998c-0.013,0.232,-0.035,0.461,-0.035,0.697c0,1.077,0.152,2.117,0.412,3.112c0.164,0.16,0.266,0.384,0.266,0.63c0,0.068,-0.009,0.135,-0.024,0.198c0.186,0.549,0.409,1.078,0.667,1.59c0.388,0.0910001,0.678,0.438,0.678,0.853999c0,0.0930002,-0.019,0.179,-0.044,0.263c0.641,0.996998,1.42,1.896,2.313,2.668c-0.032,-0.09,-0.052,-0.187,-0.052,-0.288c0,-0.487,0.394,-0.880999,0.879998,-0.880999s0.880999,0.394,0.880999,0.880999c0,0.486,-0.394,0.880999,-0.880999,0.880999c-0.033,0,-0.065,-0.007,-0.0969998,-0.01c0.438,0.325,0.893002,0.629,1.373,0.895997c0.015,-0.001,0.03,-0.005,0.045,-0.005c0.304,0,0.572,0.153,0.730001,0.388c0.341,0.159,0.689,0.3,1.046,0.427c0.034,-0.455,0.409,-0.814003,0.874001,-0.814003c0.487,0,0.880999,0.394,0.880999,0.879998c0,0.149,-0.041,0.287,-0.105,0.41c0.403,0.0830002,0.814003,0.146,1.23,0.188c-0.146,-0.156,-0.237,-0.366,-0.237,-0.598c0,-0.486,0.394,-0.879998,0.879998,-0.879998c0.487,0,0.880999,0.394,0.880999,0.879998c0,0.265,-0.119,0.498,-0.302,0.659c0.011,0,0.023,0.003,0.035,0.003c0.435,0,0.864,-0.024,1.287,-0.068c-0.145,-0.157,-0.233,-0.364,-0.233,-0.594c0,-0.486,0.394,-0.879998,0.879998,-0.879998c0.487,0,0.880999,0.394,0.880999,0.879998c0,0.123,-0.024,0.238,-0.069,0.344c0.326,-0.0740002,0.65,-0.154,0.967003,-0.254c-0.003,-0.03,-0.009,-0.059,-0.009,-0.09C17.451,24.931,17.845,24.537,18.332,24.537zM17.451,20.133c0,-0.486,0.394,-0.879998,0.880999,-0.879998c0.486,0,0.879998,0.394,0.879998,0.879998s-0.394,0.880999,-0.879998,0.880999C17.845,21.014,17.451,20.619,17.451,20.133zM5.634,12.207c0,-0.487,0.394,-0.879998,0.879998,-0.879998s0.880999,0.394,0.880999,0.879998s-0.394,0.879998,-0.880999,0.879998S5.634,12.693,5.634,12.207zM6.066,14.849c0,0.486,-0.394,0.880999,-0.879998,0.880999s-0.879998,-0.395,-0.879998,-0.880999c0,-0.487,0.394,-0.879998,0.879998,-0.879998S6.066,14.361,6.066,14.849zM21.861,14.849c0,0.486,-0.394,0.880999,-0.879998,0.880999c-0.487,0,-0.880999,-0.395,-0.880999,-0.880999c0,-0.487,0.394,-0.879998,0.880999,-0.879998C21.468,13.969,21.861,14.361,21.861,14.849zM21.429,12.207c0,-0.487,0.395,-0.879998,0.880999,-0.879998s0.880999,0.394,0.880999,0.879998s-0.395,0.879998,-0.880999,0.879998S21.429,12.693,21.429,12.207zM19.66,16.61c0.486,0,0.880999,0.394,0.880999,0.879998s-0.395,0.882,-0.880999,0.882c-0.487,0,-0.880999,-0.396,-0.880999,-0.882S19.173,16.61,19.66,16.61zM18.332,15.729c-0.487,0,-0.880999,-0.395,-0.880999,-0.880999c0,-0.487,0.394,-0.879998,0.880999,-0.879998c0.486,0,0.879998,0.393,0.879998,0.879998C19.212,15.335,18.818,15.729,18.332,15.729zM19.66,13.087c-0.487,0,-0.880999,-0.394,-0.880999,-0.879998s0.394,-0.879998,0.880999,-0.879998c0.486,0,0.880999,0.394,0.880999,0.879998S20.146,13.087,19.66,13.087zM18.332,10.445c-0.487,0,-0.880999,-0.395,-0.880999,-0.880999c0,-0.486,0.394,-0.879998,0.880999,-0.879998c0.486,0,0.879998,0.394,0.879998,0.879998C19.212,10.051,18.818,10.445,18.332,10.445zM17.891,12.207c0,0.487,-0.394,0.879998,-0.879998,0.879998c-0.487,0,-0.880999,-0.394,-0.880999,-0.879998s0.394,-0.879998,0.880999,-0.879998C17.497,11.326,17.891,11.72,17.891,12.207zM15.682,10.445c-0.486,0,-0.879998,-0.395,-0.879998,-0.880999c0,-0.486,0.394,-0.879998,0.879998,-0.879998c0.487,0,0.880999,0.394,0.880999,0.879998C16.562,10.051,16.169,10.445,15.682,10.445zM15.241,12.207c0,0.487,-0.394,0.879998,-0.879998,0.879998c-0.487,0,-0.880999,-0.394,-0.880999,-0.879998s0.394,-0.879998,0.880999,-0.879998C14.848,11.326,15.241,11.72,15.241,12.207zM13.134,10.445c-0.486,0,-0.879998,-0.395,-0.879998,-0.880999c0,-0.486,0.394,-0.879998,0.879998,-0.879998c0.487,0,0.880999,0.394,0.880999,0.879998C14.015,10.051,13.621,10.445,13.134,10.445zM12.694,12.207c0,0.487,-0.394,0.879998,-0.880999,0.879998c-0.486,0,-0.879998,-0.394,-0.879998,-0.879998s0.394,-0.879998,0.879998,-0.879998C12.3,11.326,12.694,11.72,12.694,12.207zM10.485,10.445c-0.486,0,-0.880999,-0.395,-0.880999,-0.880999c0,-0.486,0.395,-0.879998,0.880999,-0.879998c0.487,0,0.880999,0.394,0.880999,0.879998C11.366,10.051,10.972,10.445,10.485,10.445zM10.044,12.207c0,0.487,-0.394,0.879998,-0.880999,0.879998c-0.486,0,-0.879998,-0.394,-0.879998,-0.879998s0.394,-0.879998,0.879998,-0.879998C9.65102,11.326,10.044,11.72,10.044,12.207zM7.83497,10.445c-0.487,0,-0.879998,-0.395,-0.879998,-0.880999c0,-0.486,0.394,-0.879998,0.879998,-0.879998c0.486,0,0.880999,0.394,0.880999,0.879998C8.71603,10.051,8.32198,10.445,7.83497,10.445zM7.83497,13.969c0.486,0,0.880999,0.393,0.880999,0.879998c0,0.486,-0.395,0.880999,-0.880999,0.880999c-0.487,0,-0.879998,-0.395,-0.879998,-0.880999C6.955,14.361,7.34897,13.969,7.83497,13.969zM9.16402,16.61c0.487,0,0.880999,0.394,0.880999,0.879998s-0.394,0.882,-0.880999,0.882c-0.486,0,-0.879998,-0.396,-0.879998,-0.882S8.67701,16.61,9.16402,16.61zM9.60401,14.849c0,-0.487,0.395,-0.879998,0.880999,-0.879998c0.487,0,0.880999,0.393,0.880999,0.879998c0,0.486,-0.394,0.880999,-0.880999,0.880999C9.999,15.729,9.60401,15.335,9.60401,14.849zM11.813,16.61c0.487,0,0.880999,0.394,0.880999,0.879998s-0.394,0.882,-0.880999,0.882c-0.486,0,-0.879998,-0.396,-0.879998,-0.882S11.327,16.61,11.813,16.61zM12.254,14.849c0,-0.487,0.394,-0.879998,0.879998,-0.879998c0.487,0,0.880999,0.393,0.880999,0.879998c0,0.486,-0.394,0.880999,-0.880999,0.880999C12.648,15.729,12.254,15.335,12.254,14.849zM14.361,16.61c0.486,0,0.879998,0.394,0.879998,0.879998s-0.394,0.882,-0.879998,0.882c-0.487,0,-0.880999,-0.396,-0.880999,-0.882S13.874,16.61,14.361,16.61zM14.802,14.849c0,-0.487,0.394,-0.879998,0.879998,-0.879998c0.487,0,0.880999,0.393,0.880999,0.879998c0,0.486,-0.394,0.880999,-0.880999,0.880999C15.195,15.729,14.802,15.335,14.802,14.849zM17.011,16.61c0.486,0,0.879998,0.394,0.879998,0.879998s-0.394,0.882,-0.879998,0.882c-0.487,0,-0.880999,-0.396,-0.880999,-0.882S16.523,16.61,17.011,16.61zM19.66,23.656c-0.487,0,-0.880999,-0.395,-0.880999,-0.880999c0,-0.487,0.394,-0.880999,0.880999,-0.880999c0.486,0,0.880999,0.394,0.880999,0.880999C20.541,23.262,20.146,23.656,19.66,23.656zM20.981,21.014c-0.487,0,-0.880999,-0.395,-0.880999,-0.880999s0.394,-0.879998,0.880999,-0.879998c0.486,0,0.879998,0.394,0.879998,0.879998S21.468,21.014,20.981,21.014zM22.31,18.372c-0.486,0,-0.880999,-0.396,-0.880999,-0.882s0.395,-0.879998,0.880999,-0.879998s0.880999,0.394,0.880999,0.879998S22.796,18.372,22.31,18.372zM23.631,15.729c-0.487,0,-0.880999,-0.395,-0.880999,-0.880999c0,-0.487,0.394,-0.879998,0.880999,-0.879998c0.486,0,0.879998,0.393,0.879998,0.879998C24.511,15.335,24.117,15.729,23.631,15.729zM25.84,12.207c0,0.487,-0.395,0.879998,-0.880999,0.879998s-0.880999,-0.394,-0.880999,-0.879998s0.395,-0.879998,0.880999,-0.879998S25.84,11.72,25.84,12.207zM24.511,9.56398c0,0.487,-0.394,0.880999,-0.879998,0.880999c-0.487,0,-0.880999,-0.395,-0.880999,-0.880999c0,-0.486,0.394,-0.879998,0.880999,-0.879998C24.117,8.68399,24.511,9.07798,24.511,9.56398zM22.31,6.041c0.486,0,0.880999,0.394,0.880999,0.880999c0,0.486,-0.395,0.879998,-0.880999,0.879998s-0.880999,-0.395,-0.880999,-0.879998C21.429,6.435,21.823,6.041,22.31,6.041zM21.861,9.56398c0,0.487,-0.394,0.880999,-0.879998,0.880999c-0.487,0,-0.880999,-0.395,-0.880999,-0.880999c0,-0.486,0.394,-0.879998,0.880999,-0.879998C21.468,8.68399,21.861,9.07798,21.861,9.56398zM20.541,6.922c0,0.486,-0.395,0.879998,-0.880999,0.879998c-0.487,0,-0.880999,-0.395,-0.880999,-0.879998c0,-0.487,0.394,-0.880999,0.880999,-0.880999C20.146,6.041,20.541,6.435,20.541,6.922zM18.332,3.399c0.486,0,0.879998,0.394,0.879998,0.879998s-0.394,0.879998,-0.879998,0.879998c-0.487,0,-0.880999,-0.394,-0.880999,-0.879998S17.845,3.399,18.332,3.399zM17.891,6.922c0,0.486,-0.394,0.879998,-0.879998,0.879998c-0.487,0,-0.880999,-0.395,-0.880999,-0.879998c0,-0.487,0.394,-0.880999,0.880999,-0.880999C17.497,6.041,17.891,6.435,17.891,6.922zM15.682,3.399c0.487,0,0.880999,0.394,0.880999,0.879998s-0.394,0.879998,-0.880999,0.879998c-0.486,0,-0.879998,-0.394,-0.879998,-0.879998S15.195,3.399,15.682,3.399zM15.241,6.922c0,0.486,-0.394,0.879998,-0.879998,0.879998c-0.487,0,-0.880999,-0.395,-0.880999,-0.879998c0,-0.487,0.394,-0.880999,0.880999,-0.880999C14.848,6.041,15.241,6.435,15.241,6.922zM13.134,3.399c0.487,0,0.880999,0.394,0.880999,0.879998s-0.394,0.879998,-0.880999,0.879998c-0.486,0,-0.879998,-0.394,-0.879998,-0.879998S12.648,3.399,13.134,3.399zM12.694,6.922c0,0.486,-0.394,0.879998,-0.880999,0.879998c-0.486,0,-0.879998,-0.395,-0.879998,-0.879998c0,-0.487,0.394,-0.880999,0.879998,-0.880999C12.3,6.041,12.694,6.435,12.694,6.922zM10.485,3.399c0.487,0,0.880999,0.394,0.880999,0.879998s-0.394,0.879998,-0.880999,0.879998c-0.486,0,-0.880999,-0.394,-0.880999,-0.879998S9.999,3.399,10.485,3.399zM10.044,6.922c0,0.486,-0.394,0.879998,-0.880999,0.879998c-0.486,0,-0.879998,-0.395,-0.879998,-0.879998c0,-0.487,0.394,-0.880999,0.879998,-0.880999C9.65102,6.041,10.044,6.435,10.044,6.922zM7.83497,3.399c0.486,0,0.880999,0.394,0.880999,0.879998S8.32198,5.16,7.83497,5.16c-0.487,0,-0.879998,-0.394,-0.879998,-0.879998S7.34897,3.399,7.83497,3.399zM6.514,6.041c0.487,0,0.880999,0.394,0.880999,0.880999c0,0.486,-0.394,0.879998,-0.880999,0.879998s-0.879998,-0.395,-0.879998,-0.879998C5.634,6.435,6.027,6.041,6.514,6.041zM5.186,8.68399c0.487,0,0.879998,0.394,0.879998,0.879998c0,0.487,-0.394,0.880999,-0.879998,0.880999s-0.879998,-0.395,-0.879998,-0.880999C4.306,9.07798,4.699,8.68399,5.186,8.68399zM3.865,11.326c0.486,0,0.879998,0.394,0.879998,0.879998s-0.394,0.879998,-0.879998,0.879998c-0.487,0,-0.880999,-0.394,-0.880999,-0.879998S3.378,11.326,3.865,11.326zM1.656,14.849c0,-0.487,0.394,-0.879998,0.879998,-0.879998c0.487,0,0.880999,0.393,0.880999,0.879998c0,0.486,-0.394,0.880999,-0.880999,0.880999C2.05,15.729,1.656,15.335,1.656,14.849zM2.984,17.49c0,-0.486,0.394,-0.879998,0.880999,-0.879998c0.486,0,0.879998,0.394,0.879998,0.879998s-0.394,0.882,-0.879998,0.882C3.378,18.372,2.984,17.977,2.984,17.49zM5.186,21.014c-0.487,0,-0.879998,-0.395,-0.879998,-0.880999s0.394,-0.879998,0.879998,-0.879998s0.879998,0.394,0.879998,0.879998S5.673,21.014,5.186,21.014zM5.634,17.49c0,-0.486,0.394,-0.879998,0.879998,-0.879998s0.880999,0.394,0.880999,0.879998s-0.394,0.882,-0.880999,0.882S5.634,17.977,5.634,17.49zM6.955,20.133c0,-0.486,0.394,-0.879998,0.879998,-0.879998c0.486,0,0.880999,0.394,0.880999,0.879998s-0.395,0.880999,-0.880999,0.880999C7.34897,21.014,6.955,20.619,6.955,20.133zM9.16402,23.656c-0.486,0,-0.879998,-0.395,-0.879998,-0.880999c0,-0.487,0.394,-0.880999,0.879998,-0.880999c0.487,0,0.880999,0.394,0.880999,0.880999C10.044,23.262,9.65102,23.656,9.16402,23.656zM9.60401,20.133c0,-0.486,0.395,-0.879998,0.880999,-0.879998c0.487,0,0.880999,0.394,0.880999,0.879998s-0.394,0.880999,-0.880999,0.880999C9.999,21.014,9.60401,20.619,9.60401,20.133zM11.813,23.656c-0.486,0,-0.879998,-0.395,-0.879998,-0.880999c0,-0.487,0.394,-0.880999,0.879998,-0.880999c0.487,0,0.880999,0.394,0.880999,0.880999C12.694,23.262,12.3,23.656,11.813,23.656zM12.254,20.133c0,-0.486,0.394,-0.879998,0.879998,-0.879998c0.487,0,0.880999,0.394,0.880999,0.879998s-0.394,0.880999,-0.880999,0.880999C12.648,21.014,12.254,20.619,12.254,20.133zM14.361,23.656c-0.487,0,-0.880999,-0.395,-0.880999,-0.880999c0,-0.487,0.394,-0.880999,0.880999,-0.880999c0.486,0,0.879998,0.394,0.879998,0.880999C15.241,23.262,14.848,23.656,14.361,23.656zM14.802,20.133c0,-0.486,0.394,-0.879998,0.879998,-0.879998c0.487,0,0.880999,0.394,0.880999,0.879998s-0.394,0.880999,-0.880999,0.880999C15.195,21.014,14.802,20.619,14.802,20.133zM16.13,22.775c0,-0.487,0.394,-0.880999,0.880999,-0.880999c0.486,0,0.879998,0.394,0.879998,0.880999c0,0.486,-0.394,0.880999,-0.879998,0.880999C16.523,23.656,16.13,23.262,16.13,22.775z"/>
      <g  stroke-width="0">
       <path  fill="#595959" stroke-width="0" d="M7.83497,24.537c-0.015,0,-0.03,0.004,-0.045,0.005c0.252,0.139,0.513,0.261,0.775001,0.383C8.40802,24.69,8.13902,24.537,7.83497,24.537z"/>
       <path  fill="#595959" stroke-width="0" d="M10.485,24.537c-0.464,0,-0.840002,0.359,-0.874001,0.814003c0.536,0.191,1.082,0.359,1.649,0.476c0.065,-0.123,0.105,-0.261,0.105,-0.41C11.366,24.931,10.972,24.537,10.485,24.537z"/>
       <path  fill="#595959" stroke-width="0" d="M14.015,25.417c0,-0.486,-0.394,-0.879998,-0.880999,-0.879998c-0.486,0,-0.879998,0.394,-0.879998,0.879998c0,0.231,0.0910001,0.441,0.237,0.598c0.402,0.041,0.81,0.061,1.223,0.062C13.896,25.915,14.015,25.682,14.015,25.417z"/>
       <path  fill="#595959" stroke-width="0" d="M7.39498,22.775c0,-0.487,-0.394,-0.880999,-0.880999,-0.880999s-0.879998,0.394,-0.879998,0.880999c0,0.102,0.021,0.198,0.052,0.288c0.235,0.204,0.48,0.396,0.731002,0.583c0.032,0.003,0.063,0.01,0.0969998,0.01C7.001,23.656,7.39498,23.262,7.39498,22.775z"/>
       <circle  fill="#595959" cx="9.16402" cy="22.775" r="0.880999" stroke-width="0"/>
       <circle  fill="#595959" cx="11.813" cy="22.775" r="0.880999" stroke-width="0"/>
       <path  fill="#595959" stroke-width="0" d="M2.739,19.278c0.192,0.384,0.403,0.757001,0.634,1.117c0.025,-0.0840002,0.044,-0.17,0.044,-0.263C3.417,19.717,3.127,19.369,2.739,19.278z"/>
       <circle  fill="#595959" cx="5.186" cy="20.133" r="0.879998" stroke-width="0"/>
       <circle  fill="#595959" cx="7.83598" cy="20.133" r="0.880999" stroke-width="0"/>
       <circle  fill="#595959" cx="10.485" cy="20.133" r="0.880999" stroke-width="0"/>
       <circle  fill="#595959" cx="13.135" cy="20.133" r="0.880999" stroke-width="0"/>
       <path  fill="#595959" stroke-width="0" d="M15.682,24.537c-0.486,0,-0.879998,0.394,-0.879998,0.879998c0,0.229,0.0889999,0.437,0.233,0.594c0.496,-0.052,0.979999,-0.142,1.458,-0.25c0.045,-0.105,0.069,-0.221,0.069,-0.344C16.562,24.931,16.169,24.537,15.682,24.537z"/>
       <path  fill="#595959" stroke-width="0" d="M18.332,24.537c-0.487,0,-0.880999,0.394,-0.880999,0.879998c0,0.031,0.006,0.06,0.009,0.09c0.54,-0.17,1.059,-0.387,1.564,-0.627C18.863,24.673,18.614,24.537,18.332,24.537z"/>
       <circle  fill="#595959" cx="14.361" cy="22.775" r="0.880999" stroke-width="0"/>
       <circle  fill="#595959" cx="17.01" cy="22.775" r="0.879998" stroke-width="0"/>
       <circle  fill="#595959" cx="19.66" cy="22.775" r="0.880999" stroke-width="0"/>
       <path  fill="#595959" stroke-width="0" d="M21.429,22.775c0,0.184,0.057,0.354,0.152,0.494c0.446,-0.367,0.857002,-0.774,1.248,-1.201c-0.146,-0.108,-0.324,-0.174,-0.52,-0.174C21.823,21.895,21.429,22.288,21.429,22.775z"/>
       <circle  fill="#595959" cx="15.682" cy="20.133" r="0.879998" stroke-width="0"/>
       <circle  fill="#595959" cx="18.332" cy="20.133" r="0.879998" stroke-width="0"/>
       <circle  fill="#595959" cx="20.981" cy="20.133" r="0.879998" stroke-width="0"/>
       <path  fill="#595959" stroke-width="0" d="M23.631,19.253c-0.487,0,-0.880999,0.394,-0.880999,0.879998s0.394,0.880999,0.880999,0.880999c0.023,0,0.046,-0.006,0.07,-0.007c0.271,-0.374,0.526,-0.760003,0.757001,-1.164C24.338,19.5,24.016,19.253,23.631,19.253z"/>
       <path  fill="#595959" stroke-width="0" d="M1.83,16.86c0.0730001,0.28,0.151,0.556,0.242,0.828c0.015,-0.063,0.024,-0.13,0.024,-0.198C2.096,17.244,1.993,17.021,1.83,16.86z"/>
       <circle  fill="#595959" cx="3.865" cy="17.49" r="0.879998" stroke-width="0"/>
       <circle  fill="#595959" cx="6.514" cy="17.49" r="0.880999" stroke-width="0"/>
       <circle  fill="#595959" cx="9.16402" cy="17.491" r="0.880999" stroke-width="0"/>
       <circle  fill="#595959" cx="11.813" cy="17.491" r="0.880999" stroke-width="0"/>
       <circle  fill="#595959" cx="2.537" cy="14.849" r="0.879998" stroke-width="0"/>
       <circle  fill="#595959" cx="5.186" cy="14.849" r="0.879998" stroke-width="0"/>
       <circle  fill="#595959" cx="7.83497" cy="14.849" r="0.879998" stroke-width="0"/>
       <circle  fill="#595959" cx="10.485" cy="14.849" r="0.880999" stroke-width="0"/>
       <circle  fill="#595959" cx="13.135" cy="14.849" r="0.880999" stroke-width="0"/>
       <path  fill="#595959" stroke-width="0" d="M2.096,12.207c0,-0.331,-0.185,-0.617,-0.455,-0.767002c-0.099,0.526,-0.158,1.064,-0.188,1.611C1.823,12.947,2.096,12.61,2.096,12.207z"/>
       <circle  fill="#595959" cx="3.865" cy="12.207" r="0.879998" stroke-width="0"/>
       <circle  fill="#595959" cx="6.514" cy="12.207" r="0.880999" stroke-width="0"/>
       <circle  fill="#595959" cx="9.16402" cy="12.207" r="0.880999" stroke-width="0"/>
       <circle  fill="#595959" cx="11.813" cy="12.207" r="0.879998" stroke-width="0"/>
       <path  fill="#595959" stroke-width="0" d="M3.417,9.56398c0,-0.486,-0.394,-0.879998,-0.880999,-0.879998c-0.00799999,0,-0.016,0.002,-0.023,0.003c-0.222,0.491,-0.417,0.997999,-0.573,1.521c0.157,0.146,0.366,0.238,0.597,0.238C3.023,10.445,3.417,10.051,3.417,9.56398z"/>
       <circle  fill="#595959" cx="5.186" cy="9.56398" r="0.880999" stroke-width="0"/>
       <circle  fill="#595959" cx="7.83497" cy="9.56398" r="0.880999" stroke-width="0"/>
       <circle  fill="#595959" cx="10.485" cy="9.56398" r="0.880999" stroke-width="0"/>
       <circle  fill="#595959" cx="13.134" cy="9.56398" r="0.880999" stroke-width="0"/>
       <circle  fill="#595959" cx="15.682" cy="14.849" r="0.879998" stroke-width="0"/>
       <circle  fill="#595959" cx="18.332" cy="14.849" r="0.879998" stroke-width="0"/>
       <circle  fill="#595959" cx="20.981" cy="14.849" r="0.879998" stroke-width="0"/>
       <circle  fill="#595959" cx="23.631" cy="14.849" r="0.879998" stroke-width="0"/>
       <path  fill="#595959" stroke-width="0" d="M25.4,14.849c0,0.356,0.212,0.662,0.518,0.801c0.0830002,-0.541,0.137,-1.091,0.147,-1.652C25.684,14.093,25.4,14.437,25.4,14.849z"/>
       <circle  fill="#595959" cx="14.361" cy="12.207" r="0.879998" stroke-width="0"/>
       <circle  fill="#595959" cx="17.01" cy="12.207" r="0.879998" stroke-width="0"/>
       <circle  fill="#595959" cx="19.66" cy="12.207" r="0.879998" stroke-width="0"/>
       <circle  fill="#595959" cx="22.31" cy="12.207" r="0.879998" stroke-width="0"/>
       <circle  fill="#595959" cx="24.959" cy="12.207" r="0.880999" stroke-width="0"/>
       <circle  fill="#595959" cx="15.682" cy="9.56398" r="0.880999" stroke-width="0"/>
       <circle  fill="#595959" cx="18.332" cy="9.56398" r="0.880999" stroke-width="0"/>
       <circle  fill="#595959" cx="20.981" cy="9.56398" r="0.879998" stroke-width="0"/>
       <circle  fill="#595959" cx="23.63" cy="9.56398" r="0.879998" stroke-width="0"/>
       <path  fill="#595959" stroke-width="0" d="M3.865,7.803c0.486,0,0.879998,-0.395,0.879998,-0.879998c0,-0.404,-0.272,-0.740002,-0.642,-0.843998C3.759,6.512,3.447,6.97,3.162,7.44797C3.323,7.66303,3.576,7.803,3.865,7.803z"/>
       <circle  fill="#595959" cx="6.514" cy="6.922" r="0.880999" stroke-width="0"/>
       <circle  fill="#595959" cx="9.16402" cy="6.922" r="0.880999" stroke-width="0"/>
       <circle  fill="#595959" cx="11.813" cy="6.922" r="0.879998" stroke-width="0"/>
       <path  fill="#595959" stroke-width="0" d="M6.066,4.28c0,-0.054,-0.006,-0.105,-0.016,-0.156C5.662,4.435,5.292,4.767,4.944,5.123C5.021,5.144,5.102,5.16,5.186,5.16C5.673,5.16,6.066,4.767,6.066,4.28z"/>
       <circle  fill="#595959" cx="7.83497" cy="4.28" r="0.879998" stroke-width="0"/>
       <circle  fill="#595959" cx="10.485" cy="4.28" r="0.879998" stroke-width="0"/>
       <circle  fill="#595959" cx="13.134" cy="4.28" r="0.879998" stroke-width="0"/>
       <path  fill="#595959" stroke-width="0" d="M9.95501,2.017C9.567,2.143,9.189,2.287,8.82,2.448c0.105,0.045,0.222,0.07,0.344,0.07C9.51401,2.519,9.81202,2.312,9.95501,2.017z"/>
       <path  fill="#595959" stroke-width="0" d="M11.813,2.519c0.487,0,0.880999,-0.395,0.880999,-0.880999c0,-0.057,-0.006,-0.112,-0.017,-0.167c-0.591,0.052,-1.168,0.147,-1.732,0.279C11,2.183,11.365,2.519,11.813,2.519z"/>
       <circle  fill="#595959" cx="14.361" cy="6.922" r="0.879998" stroke-width="0"/>
       <circle  fill="#595959" cx="17.01" cy="6.922" r="0.879998" stroke-width="0"/>
       <circle  fill="#595959" cx="19.66" cy="6.922" r="0.880999" stroke-width="0"/>
       <circle  fill="#595959" cx="22.31" cy="6.922" r="0.880999" stroke-width="0"/>
       <path  fill="#595959" stroke-width="0" d="M24.449,7.63798c-0.114,-0.2,-0.232,-0.396,-0.357,-0.589C24.126,7.29202,24.258,7.50197,24.449,7.63798z"/>
       <circle  fill="#595959" cx="15.682" cy="4.28" r="0.879998" stroke-width="0"/>
       <circle  fill="#595959" cx="18.332" cy="4.28" r="0.879998" stroke-width="0"/>
       <path  fill="#595959" stroke-width="0" d="M20.101,4.28c0,0.487,0.394,0.879998,0.880999,0.879998c0.424,0,0.777002,-0.3,0.860998,-0.699c-0.397,-0.347,-0.811001,-0.674,-1.25,-0.967997C20.303,3.637,20.101,3.933,20.101,4.28z"/>
       <path  fill="#595959" stroke-width="0" d="M14.361,2.519c0.486,0,0.879998,-0.395,0.879998,-0.880999c0,-0.042,-0.007,-0.0830002,-0.012,-0.123c-0.486,-0.059,-0.978998,-0.0969998,-1.481,-0.0969998c-0.0820001,0,-0.159,0.01,-0.24,0.012c-0.017,0.066,-0.027,0.136,-0.027,0.208C13.48,2.124,13.874,2.519,14.361,2.519z"/>
       <path  fill="#595959" stroke-width="0" d="M17.011,2.519c0.317,0,0.593,-0.169,0.748001,-0.421c-0.528,-0.182,-1.069,-0.335,-1.628,-0.445C16.14,2.132,16.529,2.519,17.011,2.519z"/>
       <circle  fill="#595959" cx="14.361" cy="17.491" r="0.880999" stroke-width="0"/>
       <circle  fill="#595959" cx="17.011" cy="17.491" r="0.880999" stroke-width="0"/>
       <circle  fill="#595959" cx="19.66" cy="17.491" r="0.880999" stroke-width="0"/>
       <circle  fill="#595959" cx="22.31" cy="17.491" r="0.880999" stroke-width="0"/>
       <path  fill="#595959" stroke-width="0" d="M24.959,16.61c-0.486,0,-0.880999,0.394,-0.880999,0.879998s0.395,0.882,0.880999,0.882c0.0789998,0,0.154,-0.015,0.228,-0.034c0.181,-0.451,0.331,-0.916999,0.459,-1.394C25.484,16.742,25.238,16.61,24.959,16.61z"/>
      </g>
     </g>
     <circle  fill="none" cx="13.748" cy="13.748" stroke="#FDFFFD" r="13.443" stroke-width="0.5" stroke-miterlimit="10"/>
    </g>
    <g  id="Ebene_2" stroke-width="0"/>
   </g>
  </g>
 </g>
</svg>
