<?xml version="1.0" encoding="utf-8"?>
<!DOCTYPE svg PUBLIC "-//W3C//DTD SVG 1.1 Basic//EN" "http://www.w3.org/Graphics/SVG/1.1/DTD/svg11-basic.dtd">
<svg version="1.1" baseProfile="basic" id="svg" xmlns="http://www.w3.org/2000/svg" xmlns:xlink="http://www.w3.org/1999/xlink"
	 x="0px" y="0px" width="0.56in" height="1.71in" viewBox="0.036 0 39.966 122.972" xml:space="preserve">
<rect id="connector0pin" x="34.395" y="120.531" fill="none" width="5.604" height="2.038"/>
<rect id="connector0terminal" x="39.232" y="120.531" fill="none" width="0.771" height="2.037"/>
<g id="breadboard">
	<rect x="27.121" y="120.531" fill="#FFD500" width="7.274" height="2.038"/>
	<path d="M17.616,96.881c0-2.088-1.285-4.034-1.302-6.55v-9.229H12.25v9.18c0,2.54-1.303,4.498-1.303,6.6v0.976
		c0,2.101,1.303,4.059,1.303,6.599v8.278h4.063v-8.328c0.017-2.516,1.302-4.462,1.302-6.549V96.881z"/>
	<g>
		<polygon fill="#1E1E1E" points="15.614,76.919 12.949,76.919 12.949,9.377 15.614,9.377 		"/>
	</g>
	<g>
		<g>
			<g>
				
					<line fill="none" stroke="#1E1E1E" stroke-width="0.8908" stroke-linecap="round" x1="16.313" y1="82.409" x2="12.25" y2="82.409"/>
				
					<line fill="none" stroke="#1E1E1E" stroke-width="0.8908" stroke-linecap="round" x1="16.313" y1="83.541" x2="12.25" y2="83.541"/>
				
					<line fill="none" stroke="#1E1E1E" stroke-width="0.8908" stroke-linecap="round" x1="16.313" y1="84.674" x2="12.25" y2="84.674"/>
				
					<line fill="none" stroke="#1E1E1E" stroke-width="0.8908" stroke-linecap="round" x1="16.313" y1="85.807" x2="12.25" y2="85.807"/>
				
					<line fill="none" stroke="#1E1E1E" stroke-width="0.8908" stroke-linecap="round" x1="16.313" y1="86.94" x2="12.25" y2="86.94"/>
				
					<line fill="none" stroke="#1E1E1E" stroke-width="0.8908" stroke-linecap="round" x1="16.313" y1="88.073" x2="12.25" y2="88.073"/>
				
					<line fill="none" stroke="#1E1E1E" stroke-width="0.8908" stroke-linecap="round" x1="16.313" y1="89.205" x2="12.25" y2="89.205"/>
				
					<line fill="none" stroke="#1E1E1E" stroke-width="0.8908" stroke-linecap="round" x1="16.313" y1="90.339" x2="12.249" y2="90.339"/>
				
					<line fill="none" stroke="#1E1E1E" stroke-width="0.8908" stroke-linecap="round" x1="16.407" y1="91.471" x2="12.157" y2="91.471"/>
				
					<line fill="none" stroke="#1E1E1E" stroke-width="0.8908" stroke-linecap="round" x1="16.639" y1="92.605" x2="11.925" y2="92.605"/>
				
					<line fill="none" stroke="#1E1E1E" stroke-width="0.8908" stroke-linecap="round" x1="16.961" y1="93.737" x2="11.602" y2="93.737"/>
				
					<line fill="none" stroke="#1E1E1E" stroke-width="0.8908" stroke-linecap="round" x1="17.296" y1="94.87" x2="11.267" y2="94.87"/>
				
					<line fill="none" stroke="#1E1E1E" stroke-width="0.8908" stroke-linecap="round" x1="17.543" y1="96.002" x2="11.019" y2="96.002"/>
				
					<line fill="none" stroke="#1E1E1E" stroke-width="0.8908" stroke-linecap="round" x1="10.946" y1="97.135" x2="17.616" y2="97.135"/>
				
					<line fill="none" stroke="#1E1E1E" stroke-width="0.8908" stroke-linecap="round" x1="17.599" y1="98.268" x2="10.964" y2="98.268"/>
				
					<line fill="none" stroke="#1E1E1E" stroke-width="0.8908" stroke-linecap="round" x1="11.147" y1="99.402" x2="17.416" y2="99.402"/>
				
					<line fill="none" stroke="#1E1E1E" stroke-width="0.8908" stroke-linecap="round" x1="11.459" y1="100.533" x2="17.104" y2="100.533"/>
				
					<line fill="none" stroke="#1E1E1E" stroke-width="0.8908" stroke-linecap="round" x1="11.798" y1="101.667" x2="16.766" y2="101.667"/>
				
					<line fill="none" stroke="#1E1E1E" stroke-width="0.8908" stroke-linecap="round" x1="12.076" y1="102.799" x2="16.489" y2="102.799"/>
				
					<line fill="none" stroke="#1E1E1E" stroke-width="0.8908" stroke-linecap="round" x1="12.231" y1="103.932" x2="16.332" y2="103.932"/>
				
					<line fill="none" stroke="#1E1E1E" stroke-width="0.8908" stroke-linecap="round" x1="12.25" y1="105.065" x2="16.313" y2="105.065"/>
				
					<line fill="none" stroke="#1E1E1E" stroke-width="0.8908" stroke-linecap="round" x1="12.25" y1="106.198" x2="16.313" y2="106.198"/>
				
					<line fill="none" stroke="#1E1E1E" stroke-width="0.8908" stroke-linecap="round" x1="12.25" y1="107.329" x2="16.313" y2="107.329"/>
				
					<line fill="none" stroke="#1E1E1E" stroke-width="0.8908" stroke-linecap="round" x1="12.25" y1="108.464" x2="16.313" y2="108.464"/>
				
					<line fill="none" stroke="#1E1E1E" stroke-width="0.8908" stroke-linecap="round" x1="12.25" y1="109.596" x2="16.313" y2="109.596"/>
				
					<line fill="none" stroke="#1E1E1E" stroke-width="0.8908" stroke-linecap="round" x1="12.25" y1="110.729" x2="16.313" y2="110.729"/>
				
					<line fill="none" stroke="#1E1E1E" stroke-width="0.8908" stroke-linecap="round" x1="12.25" y1="111.862" x2="16.313" y2="111.862"/>
			</g>
			<g>
				
					<line fill="none" stroke="#808080" stroke-width="0.6804" stroke-linecap="round" stroke-linejoin="round" x1="12.699" y1="82.409" x2="13.014" y2="82.409"/>
				
					<line fill="none" stroke="#808080" stroke-width="0.6804" stroke-linecap="round" stroke-linejoin="round" x1="12.699" y1="83.542" x2="13.014" y2="83.542"/>
				
					<line fill="none" stroke="#808080" stroke-width="0.6804" stroke-linecap="round" stroke-linejoin="round" x1="12.699" y1="84.674" x2="13.014" y2="84.674"/>
				
					<line fill="none" stroke="#808080" stroke-width="0.6804" stroke-linecap="round" stroke-linejoin="round" x1="12.699" y1="85.808" x2="13.014" y2="85.808"/>
				
					<line fill="none" stroke="#808080" stroke-width="0.6804" stroke-linecap="round" stroke-linejoin="round" x1="12.699" y1="86.94" x2="13.014" y2="86.94"/>
				
					<line fill="none" stroke="#808080" stroke-width="0.6804" stroke-linecap="round" stroke-linejoin="round" x1="12.699" y1="88.074" x2="13.014" y2="88.074"/>
				
					<line fill="none" stroke="#808080" stroke-width="0.6804" stroke-linecap="round" stroke-linejoin="round" x1="12.699" y1="89.206" x2="13.014" y2="89.206"/>
				
					<line fill="none" stroke="#808080" stroke-width="0.6804" stroke-linecap="round" stroke-linejoin="round" x1="12.699" y1="90.339" x2="13.013" y2="90.339"/>
				
					<line fill="none" stroke="#808080" stroke-width="0.6804" stroke-linecap="round" stroke-linejoin="round" x1="12.636" y1="91.472" x2="12.957" y2="91.472"/>
				
					<line fill="none" stroke="#808080" stroke-width="0.6804" stroke-linecap="round" stroke-linejoin="round" x1="12.481" y1="92.605" x2="12.814" y2="92.605"/>
				
					<line fill="none" stroke="#808080" stroke-width="0.6804" stroke-linecap="round" stroke-linejoin="round" x1="12.169" y1="93.738" x2="12.777" y2="93.738"/>
				
					<line fill="none" stroke="#808080" stroke-width="0.6804" stroke-linecap="round" stroke-linejoin="round" x1="11.945" y1="94.87" x2="12.572" y2="94.87"/>
				
					<line fill="none" stroke="#808080" stroke-width="0.6804" stroke-linecap="round" stroke-linejoin="round" x1="11.683" y1="96.002" x2="12.42" y2="96.002"/>
				
					<line fill="none" stroke="#808080" stroke-width="0.6804" stroke-linecap="round" stroke-linejoin="round" x1="12.376" y1="97.136" x2="11.54" y2="97.136"/>
				
					<line fill="none" stroke="#808080" stroke-width="0.6804" stroke-linecap="round" stroke-linejoin="round" x1="11.55" y1="98.268" x2="12.387" y2="98.268"/>
				
					<line fill="none" stroke="#808080" stroke-width="0.6804" stroke-linecap="round" stroke-linejoin="round" x1="12.499" y1="99.402" x2="11.769" y2="99.402"/>
				
					<line fill="none" stroke="#808080" stroke-width="0.6804" stroke-linecap="round" stroke-linejoin="round" x1="12.689" y1="100.534" x2="12.073" y2="100.534"/>
				
					<line fill="none" stroke="#808080" stroke-width="0.6804" stroke-linecap="round" stroke-linejoin="round" x1="12.897" y1="101.667" x2="12.3" y2="101.667"/>
				
					<line fill="none" stroke="#808080" stroke-width="0.6804" stroke-linecap="round" stroke-linejoin="round" x1="12.987" y1="102.8" x2="12.581" y2="102.8"/>
				
					<line fill="none" stroke="#808080" stroke-width="0.6804" stroke-linecap="round" stroke-linejoin="round" x1="13.002" y1="103.933" x2="12.686" y2="103.933"/>
				
					<line fill="none" stroke="#808080" stroke-width="0.6804" stroke-linecap="round" stroke-linejoin="round" x1="13.014" y1="105.065" x2="12.699" y2="105.065"/>
				
					<line fill="none" stroke="#808080" stroke-width="0.6804" stroke-linecap="round" stroke-linejoin="round" x1="13.014" y1="106.198" x2="12.699" y2="106.198"/>
				
					<line fill="none" stroke="#808080" stroke-width="0.6804" stroke-linecap="round" stroke-linejoin="round" x1="13.014" y1="107.33" x2="12.699" y2="107.33"/>
				
					<line fill="none" stroke="#808080" stroke-width="0.6804" stroke-linecap="round" stroke-linejoin="round" x1="13.014" y1="108.464" x2="12.699" y2="108.464"/>
				
					<line fill="none" stroke="#808080" stroke-width="0.6804" stroke-linecap="round" stroke-linejoin="round" x1="13.014" y1="109.597" x2="12.699" y2="109.597"/>
				
					<line fill="none" stroke="#808080" stroke-width="0.6804" stroke-linecap="round" stroke-linejoin="round" x1="13.014" y1="110.73" x2="12.699" y2="110.73"/>
				
					<line fill="none" stroke="#808080" stroke-width="0.6804" stroke-linecap="round" stroke-linejoin="round" x1="13.014" y1="111.863" x2="12.699" y2="111.863"/>
			</g>
		</g>
	</g>
	<path fill="#1E1E1E" d="M15.879,75.381c0.458,0,0.83,0.471,0.83,1.053v4.765c0,0.277-0.178,0.502-0.396,0.502l0,0H12.25
		c-0.219,0-0.396-0.225-0.396-0.502v-4.765c0-0.581,0.372-1.053,0.83-1.053H15.879z"/>
	<path fill="#808080" d="M13.349,75.797c-0.113,0-0.096,0.439-0.096,1.02v4.193c0,0.278-0.178,0.502-0.396,0.502h-0.141
		c-0.219,0-0.396-0.224-0.396-0.502l-0.001-4.193c0-0.581,0.175-1.02,0.633-1.02H13.349z"/>
	<g>
		<path fill="#1E1E1E" d="M28.524,119.991c-0.001,0-0.207-0.099-0.454-0.217l-7.041-3.406c-0.248-0.12-0.589-0.396-0.758-0.612
			l-2.407-3.093c-0.169-0.217-0.532-0.396-0.807-0.396h-5.551c-0.275,0-0.639,0.179-0.808,0.396l-2.409,3.093
			c-0.169,0.217-0.51,0.493-0.758,0.612l-7.042,3.406c-0.248,0.119-0.452,0.217-0.453,0.217s-0.001,0-0.001,0.001l0,0
			c0,0.001,0,0.001,0,0.001s0,0.226,0,0.5v1.979c0,0.275,0.226,0.5,0.5,0.5h27.49c0.275,0,0.5-0.225,0.5-0.5v-1.98
			C28.527,120.217,28.525,119.991,28.524,119.991z"/>
		<path fill="#1E1E1E" d="M28.524,119.991c-0.001,0-0.207-0.099-0.454-0.217l-7.041-3.406c-0.248-0.12-0.589-0.396-0.758-0.612
			l-2.407-3.093c-0.169-0.217-0.532-0.396-0.807-0.396h-5.551c-0.275,0-0.639,0.179-0.808,0.396l-2.409,3.093
			c-0.169,0.217-0.51,0.493-0.758,0.612l-7.042,3.406c-0.248,0.119-0.452,0.217-0.453,0.217s-0.001,0-0.001,0.001l0,0
			c0,0.001,0,0.001,0,0.001s0,0.226,0,0.5v1.979c0,0.275,0.226,0.5,0.5,0.5h27.49c0.275,0,0.5-0.225,0.5-0.5v-1.98
			C28.527,120.217,28.525,119.991,28.524,119.991z"/>
	</g>
	<polygon fill="#757575" points="9.167,116.153 11.407,112.905 12.952,112.905 12.146,116.153 	"/>
	<polygon fill="#4D4D4D" points="8.896,116.7 1.538,119.994 8.783,119.993 11.809,116.7 	"/>
	<rect x="1.102" y="120.43" fill="#2B2B2B" width="7.245" height="2.132"/>
	
		<line fill="none" stroke="#4D4D4D" stroke-width="0.1916" stroke-linecap="round" x1="12.18" y1="116.462" x2="20.06" y2="116.462"/>
	
		<line fill="none" stroke="#4D4D4D" stroke-width="0.1916" stroke-linecap="round" x1="8.877" y1="120.227" x2="27.387" y2="120.227"/>
	
		<line fill="none" stroke="#808080" stroke-width="0.6345" stroke-linecap="round" x1="13.558" y1="11.85" x2="13.558" y2="74.774"/>
	<path fill="#1E1E1E" d="M15.919,10.449c0,0.415-0.339,0.755-0.755,0.755h-1.766c-0.415,0-0.755-0.339-0.755-0.755V0.756
		C12.643,0.34,12.983,0,13.398,0h1.766c0.415,0,0.755,0.339,0.755,0.755V10.449z"/>
	<path fill="#808080" d="M14.047,10.979c-0.172,0-0.313-0.311-0.313-0.691v-9.31c0-0.382,0.141-0.693,0.313-0.693h-0.618
		c-0.274,0-0.497,0.311-0.497,0.693v9.31c0,0.381,0.223,0.691,0.497,0.691H14.047z"/>
	<rect x="34.395" y="120.531" fill="#8C8C8C" width="5.607" height="2.038"/>
</g>
</svg>
