<?xml version='1.0' encoding='utf-8'?>
<!DOCTYPE svg PUBLIC '-//W3C//DTD SVG 1.1//EN' 'http://www.w3.org/Graphics/SVG/1.1/DTD/svg11.dtd'>
<!-- Generator: Adobe Illustrator 15.0.1, SVG Export Plug-In . SVG Version: 6.00 Build 0)  -->
<svg xmlns="http://www.w3.org/2000/svg" width="0.7in" xml:space="preserve" xmlns:xml="http://www.w3.org/XML/1998/namespace" x="0px" version="1.1" y="0px" height="1.3in" viewBox="0 0 50.4 93.6" id="Ebene_1" enable-background="new 0 0 50.4 93.6">
 <desc >Fritzing breadboard generated by brd2svg</desc>
 <g  id="breadboard">
  <g  id="icon">
   <path  fill="#147390" d="M0,0v93.6h50.4V0H0 M41.76,3.6c0-0.795,0.646-1.438,1.44-1.438s1.44,0.645,1.44,1.438c0,0.796-0.646,1.44-1.44,1.44S41.76,4.396,41.76,3.6z M34.56,3.6c0-0.795,0.645-1.438,1.438-1.438c0.796,0,1.44,0.645,1.44,1.438c0,0.796-0.646,1.44-1.44,1.44C35.205,5.04,34.56,4.396,34.56,3.6z M27.36,3.6c0-0.795,0.645-1.438,1.438-1.438c0.797,0,1.44,0.645,1.44,1.438c0,0.796-0.645,1.44-1.44,1.44C28.005,5.04,27.36,4.396,27.36,3.6z M20.16,3.6c0-0.795,0.646-1.438,1.44-1.438s1.438,0.645,1.438,1.438c0,0.796-0.645,1.44-1.438,1.44C20.804,5.04,20.16,4.396,20.16,3.6z M12.96,3.6c0-0.795,0.646-1.438,1.44-1.438s1.438,0.645,1.438,1.438c0,0.796-0.645,1.44-1.438,1.44C13.604,5.04,12.96,4.396,12.96,3.6z M5.76,3.6c0-0.795,0.646-1.438,1.44-1.438S8.64,2.805,8.64,3.6c0,0.796-0.646,1.44-1.44,1.44S5.76,4.396,5.76,3.6z M37.44,43.2c0-0.797,0.645-1.44,1.438-1.44c0.796,0,1.44,0.646,1.44,1.44s-0.646,1.438-1.44,1.438C38.085,44.64,37.44,43.995,37.44,43.2z M37.44,36c0-0.796,0.645-1.44,1.438-1.44c0.796,0,1.44,0.646,1.44,1.44s-0.646,1.438-1.44,1.438C38.085,37.44,37.44,36.795,37.44,36z M45.36,10.8c0-0.795,0.645-1.44,1.438-1.44c0.797,0,1.44,0.646,1.44,1.44s-0.646,1.44-1.44,1.44C46.005,12.24,45.36,11.595,45.36,10.8z M45.36,18c0-0.796,0.645-1.44,1.438-1.44c0.797,0,1.44,0.646,1.44,1.44s-0.646,1.438-1.44,1.438C46.005,19.44,45.36,18.795,45.36,18z M45.36,25.2c0-0.797,0.645-1.44,1.438-1.44c0.797,0,1.44,0.646,1.44,1.44s-0.646,1.438-1.44,1.438C46.005,26.64,45.36,25.995,45.36,25.2z M45.36,32.4c0-0.795,0.645-1.438,1.438-1.438c0.797,0,1.44,0.645,1.44,1.438c0,0.796-0.646,1.44-1.44,1.44C46.005,33.84,45.36,33.196,45.36,32.4z M45.36,39.6c0-0.795,0.645-1.438,1.438-1.438c0.797,0,1.44,0.645,1.44,1.438c0,0.796-0.646,1.44-1.44,1.44C46.005,41.04,45.36,40.396,45.36,39.6z M45.36,46.8c0-0.795,0.645-1.44,1.438-1.44c0.797,0,1.44,0.646,1.44,1.44s-0.646,1.44-1.44,1.44C46.005,48.24,45.36,47.595,45.36,46.8z M45.36,54c0-0.796,0.645-1.44,1.438-1.44c0.797,0,1.44,0.646,1.44,1.44s-0.646,1.438-1.44,1.438C46.005,55.44,45.36,54.795,45.36,54z M45.36,61.2c0-0.797,0.645-1.44,1.438-1.44c0.797,0,1.44,0.646,1.44,1.44l0,0c0,0.795-0.646,1.438-1.44,1.438C46.005,62.64,45.36,61.995,45.36,61.2z M45.36,68.4c0-0.795,0.645-1.438,1.438-1.438c0.797,0,1.44,0.645,1.44,1.438l0,0c0,0.796-0.646,1.44-1.44,1.44C46.005,69.84,45.36,69.196,45.36,68.4z M45.36,75.6c0-0.795,0.645-1.438,1.438-1.438c0.797,0,1.44,0.645,1.44,1.438c0,0.796-0.646,1.44-1.44,1.44C46.005,77.04,45.36,76.396,45.36,75.6z M45.36,82.8c0-0.795,0.645-1.44,1.438-1.44c0.797,0,1.44,0.646,1.44,1.44s-0.646,1.44-1.44,1.44C46.005,84.24,45.36,83.595,45.36,82.8z M45.36,90c0-0.796,0.645-1.44,1.438-1.44c0.797,0,1.44,0.646,1.44,1.44s-0.646,1.438-1.44,1.438C46.005,91.44,45.36,90.795,45.36,90z M2.16,90c0-0.796,0.646-1.44,1.439-1.44c0.796-0.001,1.439,0.645,1.439,1.439c0,0,0,0,0,0.001c0,0.795-0.645,1.438-1.438,1.438C2.804,91.44,2.16,90.795,2.16,90z M2.16,82.8c0-0.795,0.646-1.44,1.439-1.44c0.796,0,1.439,0.646,1.439,1.439V82.8c0,0.795-0.645,1.44-1.438,1.44C2.804,84.24,2.16,83.595,2.16,82.8z M2.16,75.6c0-0.795,0.646-1.439,1.439-1.439c0.796,0,1.439,0.645,1.439,1.438c0,0.001,0,0.001,0,0.001c0,0.796-0.645,1.44-1.438,1.44C2.804,77.04,2.16,76.396,2.16,75.6z M2.16,68.4c0-0.795,0.646-1.438,1.439-1.439c0.796,0,1.439,0.645,1.439,1.438c0,0.001,0,0.001,0,0.001c0,0.796-0.645,1.44-1.438,1.44C2.804,69.84,2.16,69.196,2.16,68.4z M2.16,61.2c0-0.797,0.646-1.44,1.439-1.44c0.796-0.001,1.439,0.644,1.439,1.439c0,0,0,0,0,0.001c0,0.795-0.645,1.438-1.438,1.438C2.804,62.64,2.16,61.995,2.16,61.2z M2.16,54c0-0.796,0.646-1.44,1.439-1.44c0.796-0.001,1.439,0.645,1.439,1.439c0,0,0,0,0,0.001c0,0.795-0.645,1.438-1.438,1.438C2.804,55.44,2.16,54.795,2.16,54z M2.16,46.8c0-0.795,0.646-1.44,1.439-1.44c0.796,0,1.439,0.646,1.439,1.439V46.8c0,0.795-0.645,1.44-1.438,1.44C2.804,48.24,2.16,47.595,2.16,46.8z M2.16,39.6c0-0.795,0.646-1.439,1.439-1.439c0.796,0,1.439,0.645,1.439,1.438c0,0.001,0,0.001,0,0.001c0,0.796-0.645,1.44-1.438,1.44C2.804,41.04,2.16,40.396,2.16,39.6z M2.16,32.4c0-0.795,0.646-1.438,1.439-1.439c0.796,0,1.439,0.645,1.439,1.438c0,0.001,0,0.001,0,0.001c0,0.796-0.645,1.44-1.438,1.44C2.804,33.84,2.16,33.196,2.16,32.4z M2.16,25.2c0-0.797,0.646-1.44,1.439-1.44c0.796-0.001,1.439,0.644,1.439,1.439c0,0,0,0,0,0.001c0,0.795-0.645,1.438-1.438,1.438C2.804,26.64,2.16,25.995,2.16,25.2L2.16,25.2z M2.16,18c0-0.796,0.646-1.44,1.439-1.44c0.796-0.001,1.439,0.645,1.439,1.439c0,0,0,0,0,0.001c0,0.795-0.645,1.438-1.438,1.438C2.804,19.44,2.16,18.795,2.16,18z M2.16,10.8c0-0.795,0.646-1.44,1.439-1.44c0.796,0,1.439,0.646,1.439,1.439V10.8c0,0.795-0.645,1.44-1.438,1.44C2.804,12.24,2.16,11.595,2.16,10.8z"/>
   <g >
    <title >layer 21</title>
    <g >
     <title >text:Reset</title>
     <text  fill="#FFFFFF" font-family="OCRA" transform="matrix(1 0 0 1 18.3591 74.1604)" font-size="3.9458">Reset</text>
    </g>
    <g >
     <title >text:9</title>
     <g  transform="matrix(1, 0, 0, 1, 9.36, 91.08)">
      <g  transform="rotate(-90)">
       <text  fill="#FFFFFF" font-family="OCRA" transform="matrix(1 0 0 1 -3.051758e-04 1.220703e-04)" font-size="3.3408">9</text>
      </g>
     </g>
    </g>
    <g >
     <title >text:8</title>
     <g  transform="matrix(1, 0, 0, 1, 9.504, 83.88)">
      <g  transform="rotate(-90)">
       <text  fill="#FFFFFF" font-family="OCRA" transform="matrix(1 0 0 1 -1.220703e-04 -3.356934e-04)" font-size="3.3408">8</text>
      </g>
     </g>
    </g>
    <g >
     <title >text:7</title>
     <g  transform="matrix(1, 0, 0, 1, 9.504, 76.32)">
      <g  transform="rotate(-90)">
       <text  fill="#FFFFFF" font-family="OCRA" transform="matrix(1 0 0 1 -5.493164e-04 -3.356934e-04)" font-size="3.3408">7</text>
      </g>
     </g>
    </g>
    <g >
     <title >text:6</title>
     <g  transform="matrix(1, 0, 0, 1, 9.504, 69.48)">
      <g  transform="rotate(-90)">
       <text  fill="#FFFFFF" font-family="OCRA" transform="matrix(1 0 0 1 -7.019043e-04 -3.356934e-04)" font-size="3.3408">6</text>
      </g>
     </g>
    </g>
    <g >
     <title >text:5</title>
     <g  transform="matrix(1, 0, 0, 1, 9.504, 62.28)">
      <g  transform="rotate(-90)">
       <text  fill="#FFFFFF" font-family="OCRA" transform="matrix(1 0 0 1 -5.187988e-04 -3.356934e-04)" font-size="3.3408">5</text>
      </g>
     </g>
    </g>
    <g >
     <title >text:4</title>
     <g  transform="matrix(1, 0, 0, 1, 9.36, 55.08)">
      <g  transform="rotate(-90)">
       <text  fill="#FFFFFF" font-family="OCRA" transform="matrix(1 0 0 1 -3.051758e-04 1.220703e-04)" font-size="3.3408">4</text>
      </g>
     </g>
    </g>
    <g >
     <title >text:3</title>
     <g  transform="matrix(1, 0, 0, 1, 9.36, 47.88)">
      <g  transform="rotate(-90)">
       <text  fill="#FFFFFF" font-family="OCRA" transform="matrix(1 0 0 1 -1.220703e-04 1.220703e-04)" font-size="3.3408">3</text>
      </g>
     </g>
    </g>
    <g >
     <title >text:2</title>
     <g  transform="matrix(1, 0, 0, 1, 9, 40.32)">
      <g  transform="rotate(-90)">
       <text  fill="#FFFFFF" font-family="OCRA" transform="matrix(1 0 0 1 -5.493164e-04 -2.441406e-04)" font-size="2.6726">2</text>
      </g>
     </g>
    </g>
    <g >
     <title >text:GND</title>
     <g  transform="matrix(1, 0, 0, 1, 9, 35.64)">
      <g  transform="rotate(-90)">
       <text  fill="#FFFFFF" font-family="OCRA" transform="matrix(1 0 0 1 -8.544922e-04 -2.441406e-04)" font-size="2.6726">GND</text>
      </g>
     </g>
    </g>
    <g >
     <title >text:RST</title>
     <g  transform="matrix(1, 0, 0, 1, 9, 28.08)">
      <g  transform="rotate(-90)">
       <text  fill="#FFFFFF" font-family="OCRA" transform="matrix(1 0 0 1 -3.356934e-04 -2.441406e-04)" font-size="2.6726">RST</text>
      </g>
     </g>
    </g>
    <g >
     <title >text:RXI</title>
     <g  transform="matrix(1, 0, 0, 1, 9, 20.88)">
      <g  transform="rotate(-90)">
       <text  fill="#FFFFFF" font-family="OCRA" transform="matrix(1 0 0 1 -1.220703e-04 -2.441406e-04)" font-size="2.6726">RXI</text>
      </g>
     </g>
    </g>
    <g >
     <title >text:TXO</title>
     <g  transform="matrix(1, 0, 0, 1, 9, 13.68)">
      <g  transform="rotate(-90)">
       <text  fill="#FFFFFF" font-family="OCRA" transform="matrix(1 0 0 1 6.103516e-05 -2.441406e-04)" font-size="2.6726">TXO</text>
      </g>
     </g>
    </g>
    <g >
     <title >text:TXO</title>
     <text  fill="#FFFFFF" font-family="OCRA" transform="matrix(1 0 0 1 33.1199 8.6399)" font-size="2.6726">TXO</text>
    </g>
    <g >
     <title >text:RXI</title>
     <text  fill="#FFFFFF" font-family="OCRA" transform="matrix(1 0 0 1 26.28 8.6399)" font-size="2.6726">RXI</text>
    </g>
    <g >
     <title >text:RAW</title>
     <g  transform="matrix(1, 0, 0, 1, 43.92, 13.68)">
      <g  transform="rotate(-90)">
       <text  fill="#FFFFFF" font-family="OCRA" transform="matrix(1 0 0 1 6.103516e-05 -3.051758e-04)" font-size="2.6726">RAW</text>
      </g>
     </g>
    </g>
    <g >
     <title >text:GND</title>
     <g  transform="matrix(1, 0, 0, 1, 43.92, 20.88)">
      <g  transform="rotate(-90)">
       <text  fill="#FFFFFF" font-family="OCRA" transform="matrix(1 0 0 1 -1.220703e-04 -3.051758e-04)" font-size="2.6726">GND</text>
      </g>
     </g>
    </g>
    <g >
     <title >text:RST</title>
     <g  transform="matrix(1, 0, 0, 1, 43.92, 28.08)">
      <g  transform="rotate(-90)">
       <text  fill="#FFFFFF" font-family="OCRA" transform="matrix(1 0 0 1 -3.356934e-04 -3.051758e-04)" font-size="2.6726">RST</text>
      </g>
     </g>
    </g>
    <g >
     <title >text:VCC</title>
     <g  transform="matrix(1, 0, 0, 1, 43.92, 35.28)">
      <g  transform="rotate(-90)">
       <text  fill="#FFFFFF" font-family="OCRA" transform="matrix(1 0 0 1 -5.187988e-04 -3.051758e-04)" font-size="2.6726">VCC</text>
      </g>
     </g>
    </g>
    <g >
     <title >text:A3</title>
     <g  transform="matrix(1, 0, 0, 1, 43.92, 41.4)">
      <g  transform="rotate(-90)">
       <text  fill="#FFFFFF" font-family="OCRA" transform="matrix(1 0 0 1 -6.408691e-04 -3.051758e-04)" font-size="2.6726">A3</text>
      </g>
     </g>
    </g>
    <g >
     <title >text:A2</title>
     <g  transform="matrix(1, 0, 0, 1, 43.92, 48.6)">
      <g  transform="rotate(-90)">
       <text  fill="#FFFFFF" font-family="OCRA" transform="matrix(1 0 0 1 1.525879e-04 -3.051758e-04)" font-size="2.6726">A2</text>
      </g>
     </g>
    </g>
    <g >
     <title >text:A1</title>
     <g  transform="matrix(1, 0, 0, 1, 43.92, 56.16)">
      <g  transform="rotate(-90)">
       <text  fill="#FFFFFF" font-family="OCRA" transform="matrix(1 0 0 1 -3.967285e-04 -3.051758e-04)" font-size="3.3408">A1</text>
      </g>
     </g>
    </g>
    <g >
     <title >text:A0</title>
     <g  transform="matrix(1, 0, 0, 1, 43.92, 63.36)">
      <g  transform="rotate(-90)">
       <text  fill="#FFFFFF" font-family="OCRA" transform="matrix(1 0 0 1 3.662109e-04 -3.051758e-04)" font-size="3.3408">A0</text>
      </g>
     </g>
    </g>
    <g >
     <title >text:13</title>
     <g  transform="matrix(1, 0, 0, 1, 43.92, 70.56)">
      <g  transform="rotate(-90)">
       <text  fill="#FFFFFF" font-family="OCRA" transform="matrix(1 0 0 1 -7.934570e-04 -3.051758e-04)" font-size="3.3408">13</text>
      </g>
     </g>
    </g>
    <g >
     <title >text:12</title>
     <g  transform="matrix(1, 0, 0, 1, 43.92, 77.76)">
      <g  transform="rotate(-90)">
       <text  fill="#FFFFFF" font-family="OCRA" transform="matrix(1 0 0 1 0 -3.051758e-04)" font-size="3.3408">12</text>
      </g>
     </g>
    </g>
    <g >
     <title >text:11</title>
     <g  transform="matrix(1, 0, 0, 1, 43.92, 84.96)">
      <g  transform="rotate(-90)">
       <text  fill="#FFFFFF" font-family="OCRA" transform="matrix(1 0 0 1 -2.136230e-04 -3.051758e-04)" font-size="3.3408">11</text>
      </g>
     </g>
    </g>
    <g >
     <title >text:10</title>
     <g  transform="matrix(1, 0, 0, 1, 43.92, 92.16)">
      <g  transform="rotate(-90)">
       <text  fill="#FFFFFF" font-family="OCRA" transform="matrix(1 0 0 1 -3.967285e-04 -3.051758e-04)" font-size="3.3408">10</text>
      </g>
     </g>
    </g>
    <g >
     <title >text:VCC</title>
     <text  fill="#FFFFFF" font-family="OCRA" transform="matrix(1 0 0 1 18.72 8.6399)" font-size="2.6726">VCC</text>
    </g>
    <g >
     <title >text:GND</title>
     <text  fill="#FFFFFF" font-family="OCRA" transform="matrix(1 0 0 1 11.5198 8.6399)" font-size="2.6726">GND</text>
    </g>
    <g >
     <title >text:BLK</title>
     <g  transform="matrix(1, 0, 0, 1, 3.6, 6.48)">
      <g  transform="rotate(-90)">
       <text  fill="#FFFFFF" font-family="OCRA" transform="matrix(1 0 0 1 -7.019043e-04 -6.408691e-04)" font-size="2.6726">BLK</text>
      </g>
     </g>
    </g>
    <g >
     <title >text:GRN</title>
     <g  transform="matrix(1, 0, 0, 1, 48.96, 6.48)">
      <g  transform="rotate(-90)">
       <text  fill="#FFFFFF" font-family="OCRA" transform="matrix(1 0 0 1 -7.019043e-04 -3.051758e-04)" font-size="2.6726">GRN</text>
      </g>
     </g>
    </g>
    <g >
     <title >text:Arduino Pro</title>
     <text  fill="#FFFFFF" font-family="OCRA" transform="matrix(1 0 0 1 11.8791 15.8401)" font-size="3.3408">Arduino Pro</text>
    </g>
    <g >
     <title >text:Mini</title>
     <text  fill="#FFFFFF" font-family="OCRA" transform="matrix(1 0 0 1 21.24 12.2405)" font-size="3.3408">Mini</text>
    </g>
    <g >
     <title >text:Released under the Creative Commons Attribution Share-Alike 3.0 License</title>
     <text  fill="#FFFFFF" font-family="OCRA" transform="matrix(1 0 0 1 -122.4007 108.0002)" font-size="5.8464">Released under the Creative Commons Attribution Share-Alike 3.0 License</text>
    </g>
    <g >
     <title >text:http://creativecommons.org/licenses/by-sa/3.0</title>
     <text  fill="#FFFFFF" font-family="OCRA" transform="matrix(1 0 0 1 -72.0008 115.2004)" font-size="5.8464">http://creativecommons.org/licenses/by-sa/3.0</text>
    </g>
    <g >
     <title >element:C1</title>
     <g >
      <title >package:C0402</title>
     </g>
    </g>
    <g >
     <title >element:C2</title>
     <g >
      <title >package:C0402</title>
     </g>
    </g>
    <g >
     <title >element:C3</title>
     <g >
      <title >package:C0402</title>
     </g>
    </g>
    <g >
     <title >element:C10</title>
     <g >
      <title >package:C0402</title>
     </g>
    </g>
    <g >
     <title >element:C13</title>
     <g >
      <title >package:EIA3216</title>
      <line  fill="none" stroke="#FFFFFF" stroke-linecap="round" y1="28.034" stroke-width="0.576" x1="17.801" y2="32.286" x2="17.801"/>
      <line  fill="none" stroke="#FFFFFF" stroke-linecap="round" y1="32.286" stroke-width="0.576" x1="17.801" y2="32.286" x2="10.999"/>
      <line  fill="none" stroke="#FFFFFF" stroke-linecap="round" y1="32.286" stroke-width="0.576" x1="10.999" y2="28.034" x2="10.999"/>
      <line  fill="none" stroke="#FFFFFF" stroke-linecap="round" y1="22.365" stroke-width="0.576" x1="17.801" y2="19.247" x2="17.801"/>
      <line  fill="none" stroke="#FFFFFF" stroke-linecap="round" y1="19.247" stroke-width="0.576" x1="17.801" y2="18.115" x2="16.668"/>
      <line  fill="none" stroke="#FFFFFF" stroke-linecap="round" y1="18.115" stroke-width="0.576" x1="16.668" y2="18.115" x2="12.133"/>
      <line  fill="none" stroke="#FFFFFF" stroke-linecap="round" y1="18.115" stroke-width="0.576" x1="12.133" y2="19.247" x2="10.999"/>
      <line  fill="none" stroke="#FFFFFF" stroke-linecap="round" y1="19.247" stroke-width="0.576" x1="10.999" y2="22.365" x2="10.999"/>
     </g>
    </g>
    <g >
     <title >element:C19</title>
     <g >
      <title >package:EIA3216</title>
      <line  fill="none" stroke="#FFFFFF" stroke-linecap="round" y1="28.034" stroke-width="0.576" x1="40.842" y2="32.286" x2="40.842"/>
      <line  fill="none" stroke="#FFFFFF" stroke-linecap="round" y1="32.286" stroke-width="0.576" x1="40.842" y2="32.286" x2="34.039"/>
      <line  fill="none" stroke="#FFFFFF" stroke-linecap="round" y1="32.286" stroke-width="0.576" x1="34.039" y2="28.034" x2="34.039"/>
      <line  fill="none" stroke="#FFFFFF" stroke-linecap="round" y1="22.365" stroke-width="0.576" x1="40.842" y2="19.247" x2="40.842"/>
      <line  fill="none" stroke="#FFFFFF" stroke-linecap="round" y1="19.247" stroke-width="0.576" x1="40.842" y2="18.115" x2="39.708"/>
      <line  fill="none" stroke="#FFFFFF" stroke-linecap="round" y1="18.115" stroke-width="0.576" x1="39.708" y2="18.115" x2="35.173"/>
      <line  fill="none" stroke="#FFFFFF" stroke-linecap="round" y1="18.115" stroke-width="0.576" x1="35.173" y2="19.247" x2="34.039"/>
      <line  fill="none" stroke="#FFFFFF" stroke-linecap="round" y1="19.247" stroke-width="0.576" x1="34.039" y2="22.365" x2="34.039"/>
     </g>
    </g>
    <g >
     <title >element:D3</title>
     <g >
      <title >package:LED-0603</title>
      <line  fill="none" stroke="#FFFFFF" stroke-linecap="round" y1="86.882" stroke-width="0.576" x1="37.576" y2="86.882" x2="38.88"/>
      <line  fill="none" stroke="#FFFFFF" stroke-linecap="round" y1="86.882" stroke-width="0.576" x1="40.184" y2="86.882" x2="38.88"/>
      <line  fill="none" stroke="#FFFFFF" stroke-linecap="round" y1="86.882" stroke-width="0.576" x1="38.88" y2="86.003" x2="38.001"/>
      <line  fill="none" stroke="#FFFFFF" stroke-linecap="round" y1="86.91" stroke-width="0.576" x1="38.88" y2="86.003" x2="39.787"/>
      <line  fill="none" stroke="#FFFFFF" stroke-linecap="round" y1="86.003" stroke-width="0.576" x1="39.787" y2="86.003" x2="38.001"/>
     </g>
    </g>
    <g >
     <title >element:JP1</title>
     <g >
      <title >package:1X06</title>
     </g>
    </g>
    <g >
     <title >element:JP2</title>
     <g >
      <title >package:1X02</title>
     </g>
    </g>
    <g >
     <title >element:JP6</title>
     <g >
      <title >package:1X12</title>
     </g>
    </g>
    <g >
     <title >element:JP7</title>
     <g >
      <title >package:1X12</title>
     </g>
    </g>
    <g >
     <title >element:LED1</title>
     <g >
      <title >package:LED-0603</title>
      <line  fill="none" stroke="#FFFFFF" stroke-linecap="round" y1="33.704" stroke-width="0.576" x1="25.682" y2="32.4" x2="25.682"/>
      <line  fill="none" stroke="#FFFFFF" stroke-linecap="round" y1="31.096" stroke-width="0.576" x1="25.682" y2="32.4" x2="25.682"/>
      <line  fill="none" stroke="#FFFFFF" stroke-linecap="round" y1="32.4" stroke-width="0.576" x1="25.682" y2="33.279" x2="24.803"/>
      <line  fill="none" stroke="#FFFFFF" stroke-linecap="round" y1="32.4" stroke-width="0.576" x1="25.711" y2="31.493" x2="24.803"/>
      <line  fill="none" stroke="#FFFFFF" stroke-linecap="round" y1="31.493" stroke-width="0.576" x1="24.803" y2="33.279" x2="24.803"/>
     </g>
    </g>
    <g >
     <title >element:Q1</title>
     <g >
      <title >package:RESONATOR-SMD</title>
      <line  fill="none" stroke="#FFFFFF" stroke-linecap="round" y1="33.701" stroke-width="0.576" x1="10.397" y2="33.417" x2="10.397"/>
      <line  fill="none" stroke="#FFFFFF" stroke-linecap="round" y1="33.417" stroke-width="0.576" x1="10.397" y2="33.417" x2="14.083"/>
      <line  fill="none" stroke="#FFFFFF" stroke-linecap="round" y1="33.417" stroke-width="0.576" x1="14.083" y2="33.701" x2="14.083"/>
      <line  fill="none" stroke="#FFFFFF" stroke-linecap="round" y1="43.339" stroke-width="0.576" x1="14.083" y2="43.764" x2="14.083"/>
      <line  fill="none" stroke="#FFFFFF" stroke-linecap="round" y1="43.764" stroke-width="0.576" x1="14.083" y2="43.764" x2="10.397"/>
      <line  fill="none" stroke="#FFFFFF" stroke-linecap="round" y1="43.764" stroke-width="0.576" x1="10.397" y2="43.339" x2="10.397"/>
     </g>
    </g>
    <g >
     <title >element:R2</title>
     <g >
      <title >package:C0402</title>
     </g>
    </g>
    <g >
     <title >element:R6</title>
     <g >
      <title >package:C0402</title>
     </g>
    </g>
    <g >
     <title >element:R11</title>
     <g >
      <title >package:C0402</title>
     </g>
    </g>
    <g >
     <title >element:S2</title>
     <g >
      <title >package:TACTILE_SWITCH_SMD</title>
      <line  fill="none" stroke="#FFFFFF" stroke-linecap="round" y1="79.285" stroke-width="0.576" x1="32.4" y2="86.4" x2="32.4"/>
      <line  fill="none" stroke="#FFFFFF" stroke-linecap="round" y1="90" stroke-width="0.576" x1="29.565" y2="90" x2="20.835"/>
      <line  fill="none" stroke="#FFFFFF" stroke-linecap="round" y1="86.315" stroke-width="0.576" x1="18" y2="79.285" x2="18"/>
      <line  fill="none" stroke="#FFFFFF" stroke-linecap="round" y1="75.6" stroke-width="0.576" x1="20.835" y2="75.6" x2="29.565"/>
      <circle  fill="none" cx="25.2" cy="82.8" stroke="#FFFFFF" r="3.6" stroke-width="0.576"/>
     </g>
    </g>
    <g >
     <title >element:U$1</title>
     <g >
      <title >package:SFE-LOGO-FLAME</title>
      <g >
       <title >polygon</title>
       <path  fill="none" stroke="#FFFFFF" stroke-linecap="round" stroke-width="0.072" d="M13.428,70.942l-0.138-0.021 M13.292,70.92l-0.267-0.021 M13.025,70.899l-0.268,0.021 M12.759,70.92l-0.197,0.052 M12.56,70.972l-0.185,0.091 M12.377,71.063l-0.162,0.126 M12.215,71.189l-0.133,0.156 M12.082,71.345l-0.112,0.207 M11.967,71.552L11.9,71.779 M11.9,71.779l-0.021,0.236 M11.881,72.015v4.298 M11.881,76.313l1.383-1.555 M13.262,74.758l0.245-0.226 M13.509,74.532l0.287-0.172 M13.796,74.362l0.105-0.037 M13.901,74.323l0.11-0.021 M14.011,74.304h0.646 M14.659,74.304l0.387-0.035 M15.046,74.269l0.374-0.104 M15.42,74.164l0.35-0.17 M15.768,73.994l0.328-0.231 M16.096,73.763l0.292-0.275 M16.388,73.488l0.251-0.312 M16.639,73.174l0.269-0.477 M16.908,72.698l0.178-0.519 M17.086,72.18l0.082-0.54 M17.168,71.64l-0.018-0.547 M17.15,71.093l-0.06-0.295 M17.092,70.798l-0.102-0.283 M16.99,70.515l-0.142-0.265 M16.848,70.25l-0.258-0.322 M16.592,69.928l-0.318-0.261 M16.272,69.667v0.252 M16.272,69.919l-0.006,0.041 M16.266,69.96l-0.017,0.038 M16.251,69.998l-0.085,0.104 M16.166,70.103l-0.108,0.076 M16.056,70.179L15.999,70.2 M15.999,70.2l-0.162,0.018 M15.837,70.218l-0.161-0.03 M15.676,70.188l-0.146-0.073 M15.53,70.115l-0.259-0.188 M15.271,69.927l-0.12-0.104 M15.151,69.823l-0.104-0.12 M15.049,69.703l-0.083-0.136 M14.966,69.569l-0.062-0.146 M14.904,69.422l-0.02-0.093 M14.884,69.329l0.005-0.095 M14.889,69.236l0.048-0.155 M14.937,69.079l0.086-0.14 M15.023,68.941l0.118-0.11 M15.141,68.829l0.145-0.076 M15.286,68.753l0.146-0.041 M15.431,68.712l0.148-0.018 M15.581,68.696h0.173 M15.754,68.696L15.754,68.696 M15.754,68.696l-0.007-0.008 M15.747,68.688l-0.124-0.096 M15.623,68.592l-0.143-0.062 M15.48,68.531l-0.102-0.044 M15.38,68.487l-0.064-0.028 M15.314,68.457l-0.249-0.062 M15.065,68.396l-0.255-0.023 M14.81,68.371l-0.246,0.019 M14.564,68.39l-0.238,0.065 M14.326,68.455l-0.221,0.109 M14.105,68.566l-0.222,0.158 M13.884,68.724l-0.196,0.188 M13.687,68.911l-0.122,0.171 M13.565,69.082l-0.076,0.195 M13.489,69.279l-0.024,0.209 M13.465,69.488l0.028,0.208 M13.493,69.696l0.079,0.195 M13.572,69.891l0.337,0.498 M13.909,70.389l0.412,0.438 M14.321,70.826l0.108,0.128 M14.429,70.954l0.071,0.149 M14.502,71.105l0.03,0.165 M14.532,71.27l-0.013,0.167 M14.519,71.437l-0.057,0.157 M14.464,71.594l-0.095,0.139 M14.369,71.733l-0.127,0.108 M14.242,71.841l-0.16,0.087 M14.082,71.928l-0.172,0.058 M13.91,71.986l-0.18,0.029 M13.73,72.015l-0.21-0.011 M13.52,72.004l-0.2-0.062 M13.32,71.943l-0.18-0.107 M13.14,71.834l-0.097-0.101 M13.045,71.735l-0.062-0.123 M12.982,71.612l-0.028-0.127 M12.954,71.485v-0.129 M12.954,71.356l0.028-0.126 M12.982,71.23l0.024-0.049 M13.008,71.181l0.039-0.038 M13.047,71.143l0.237-0.172 M13.284,70.971l0.045-0.023 M13.329,70.948l0.049-0.011 M13.378,70.937l0.052,0.005 M11.881,76.248h0.059 M11.881,76.176h0.121 M11.881,76.104h0.187 M11.881,76.032h0.249 M11.881,75.96h0.313 M11.881,75.888h0.377 M11.881,75.816h0.441 M11.881,75.744h0.506 M11.881,75.672h0.569 M11.881,75.6h0.634 M11.881,75.528h0.697 M11.881,75.456h0.762 M11.881,75.384h0.825 M11.881,75.312h0.89 M11.881,75.24h0.953 M11.881,75.168h1.018 M11.881,75.096h1.081 M11.881,75.024h1.146 M11.881,74.952h1.209 M11.881,74.88h1.273 M11.881,74.808h1.337 M11.881,74.736h1.405 M11.881,74.664h1.483 M11.881,74.592h1.562 M11.881,74.52h1.648 M11.881,74.448h1.771 M11.881,74.376h1.892 M11.881,74.304h2.778 M11.881,74.232h3.298 M11.881,74.16h3.549 M11.881,74.088h3.695 M11.881,74.016h3.845 M11.881,73.944h3.959 M11.881,73.872h4.062 M11.881,73.8h4.163 M11.881,73.728h4.253 M11.881,73.656h4.329 M11.881,73.584h4.405 M11.881,73.512h4.481 M11.881,73.44h4.546 M11.881,73.368h4.604 M11.881,73.296h4.661 M11.881,73.224h4.719 M11.881,73.152h4.771 M11.881,73.08h4.812 M11.881,73.008h4.853 M11.881,72.936h4.894 M11.881,72.865h4.934 M11.881,72.792h4.975 M11.881,72.72h5.016 M11.881,72.648h5.044 M11.881,72.576h5.068 M11.881,72.504h5.095 M11.881,72.432h5.118 M11.881,72.36h5.145 M11.881,72.288h5.168 M11.881,72.216h5.192 M11.881,72.144h5.211 M11.881,72.073h5.223 M11.882,72h1.626 M13.821,72h3.292 M11.887,71.928h1.407 M14.082,71.928h3.042 M11.893,71.856h1.282 M14.216,71.856h2.919 M11.899,71.784h1.192 M14.309,71.784h2.836 M11.921,71.712h1.113 M14.383,71.712h2.773 M11.942,71.64h1.055 M14.432,71.64h2.733 M11.964,71.568h1.01 M14.472,71.568h2.692 M12,71.496h0.956 M14.499,71.496h2.664 M12.039,71.424h0.915 M14.52,71.424h2.641 M12.078,71.352h0.876 M14.526,71.352h2.633 M12.137,71.281h0.833 M14.532,71.281h2.624 M12.199,71.208h0.794 M14.52,71.208h2.634 M12.283,71.136h0.773 M14.508,71.136h2.646 M12.376,71.064h0.779 M14.481,71.064h2.664 M12.52,70.992h0.733 M14.447,70.992h2.684 M12.759,70.92h0.533 M14.4,70.92h2.716 M14.339,70.848h2.765 M14.273,70.776h2.811 M14.205,70.704h2.854 M14.137,70.632h2.895 M14.069,70.56h2.938 M14.002,70.488h2.976 M13.933,70.416h3.004 M13.878,70.344h3.021 M13.83,70.272h3.03 M13.781,70.2h1.961 M15.999,70.2h0.811 M13.732,70.128h1.826 M16.13,70.128h0.621 M13.683,70.056h1.768 M16.204,70.056h0.489 M13.634,69.984h1.717 M16.257,69.984h0.381 M13.587,69.912h1.668 M16.272,69.912h0.3 M13.551,69.84h1.619 M16.272,69.84h0.212 M13.522,69.768h1.582 M16.272,69.768h0.123 M13.493,69.696h1.551 M16.272,69.696h0.035 M13.483,69.624H15 M13.473,69.552h1.484 M13.466,69.48h1.464 M13.474,69.408h1.427 M13.483,69.336h1.404 M13.495,69.264h1.395 M13.523,69.192h1.38 M13.551,69.12h1.374 M13.59,69.048h1.366 M13.641,68.976H15 M13.695,68.904h1.367 M13.771,68.832h1.368 M13.847,68.76h1.425 M13.935,68.688h1.812 M14.035,68.616h1.619 M14.148,68.544h1.365 M14.293,68.472h1.056 M14.527,68.4h0.557"/>
      </g>
     </g>
    </g>
    <g >
     <title >element:U$2</title>
     <g >
      <title >package:FIDUCIAL-1X2</title>
     </g>
    </g>
    <g >
     <title >element:U$4</title>
     <g >
      <title >package:FIDUCIAL-1X2</title>
     </g>
    </g>
    <g >
     <title >element:U$11</title>
     <g >
      <title >package:SFE-NEW-WEBLOGO</title>
     </g>
    </g>
    <g >
     <title >element:U1</title>
     <g >
      <title >package:TQFP32-08</title>
      <line  fill="none" stroke="#FFFFFF" stroke-linecap="round" y1="54" stroke-width="0.432" x1="39.251" y2="68.051" x2="25.2"/>
      <line  fill="none" stroke="#FFFFFF" stroke-linecap="round" y1="68.051" stroke-width="0.432" x1="25.2" y2="54" x2="11.149"/>
      <line  fill="none" stroke="#FFFFFF" stroke-linecap="round" y1="54" stroke-width="0.432" x1="11.149" y2="40.661" x2="24.488"/>
      <line  fill="none" stroke="#FFFFFF" stroke-linecap="round" y1="40.661" stroke-width="0.432" x1="25.912" y2="54" x2="39.251"/>
      <line  fill="none" stroke="#FFFFFF" stroke-linecap="round" y1="40.661" stroke-width="0.432" x1="25.912" y2="40.661" x2="24.488"/>
      <circle  fill="none" cx="25.2" cy="43.004" stroke="#FFFFFF" r="1.018" stroke-width="0.432"/>
     </g>
    </g>
    <g >
     <title >element:U2</title>
     <g >
      <title >package:SOT23-5</title>
      <line  fill="none" stroke="#FFFFFF" stroke-linecap="round" y1="21.168" stroke-width="0.432" x1="22.903" y2="21.168" x2="27.497"/>
      <line  fill="none" stroke="#FFFFFF" stroke-linecap="round" y1="29.232" stroke-width="0.432" x1="27.497" y2="29.232" x2="22.903"/>
      <line  fill="none" stroke="#FFFFFF" stroke-linecap="round" y1="26.681" stroke-width="0.432" x1="22.903" y2="23.719" x2="22.903"/>
      <line  fill="none" stroke="#FFFFFF" stroke-linecap="round" y1="26.412" stroke-width="0.432" x1="27.497" y2="26.681" x2="27.497"/>
      <line  fill="none" stroke="#FFFFFF" stroke-linecap="round" y1="23.719" stroke-width="0.432" x1="27.497" y2="23.988" x2="27.497"/>
      <line  fill="none" stroke="#FFFFFF" stroke-linecap="round" y1="28.963" stroke-width="0.432" x1="27.497" y2="29.232" x2="27.497"/>
      <line  fill="none" stroke="#FFFFFF" stroke-linecap="round" y1="21.168" stroke-width="0.432" x1="27.497" y2="21.437" x2="27.497"/>
      <line  fill="none" stroke="#FFFFFF" stroke-linecap="round" y1="21.437" stroke-width="0.432" x1="22.903" y2="21.168" x2="22.903"/>
      <line  fill="none" stroke="#FFFFFF" stroke-linecap="round" y1="29.232" stroke-width="0.432" x1="22.903" y2="28.963" x2="22.903"/>
     </g>
    </g>
   </g>
   <rect  width="6.803" x="10.999" y="18.115" fill="#FFFFFF" height="14.173" fill-opacity="0.15"/>
   <rect  width="6.803" x="34.039" y="18.115" fill="#FFFFFF" height="14.173" fill-opacity="0.15"/>
   <rect  width="2.608" x="37.576" y="86.003" fill="#FFFFFF" height="0.907" fill-opacity="0.15"/>
   <rect  width="0.905" x="24.803" y="31.096" fill="#FFFFFF" height="2.608" fill-opacity="0.15"/>
   <rect  width="3.686" x="10.397" y="33.417" fill="#FFFFFF" height="10.347" fill-opacity="0.15"/>
   <rect  width="4.594" x="22.903" y="21.168" fill="#FFFFFF" height="8.062" fill-opacity="0.15"/>
   <polygon  fill="#FFFFFF" points="25.537,40.661 24.488,40.661 10.981,54.168 25.022,68.21 39.053,54.179 " fill-opacity="0.15"/>
   <circle  fill="none" cx="43.2" cy="3.6" stroke="#9A916C" id="connector14pad" r="1.872" stroke-width="0.864"/>
   <circle  fill="none" cx="36" cy="3.6" stroke="#9A916C" id="connector15pad" r="1.872" stroke-width="0.864"/>
   <circle  fill="none" cx="28.8" cy="3.6" stroke="#9A916C" id="connector16pad" r="1.872" stroke-width="0.864"/>
   <circle  fill="none" cx="21.6" cy="3.6" stroke="#9A916C" id="connector17pad" r="1.872" stroke-width="0.864"/>
   <circle  fill="none" cx="14.4" cy="3.6" stroke="#9A916C" id="connector18pad" r="1.872" stroke-width="0.864"/>
   <circle  fill="none" cx="7.2" cy="3.6" stroke="#9A916C" id="connector19pad" r="1.872" stroke-width="0.864"/>
   <circle  fill="none" cx="38.88" cy="43.2" stroke="#9A916C" id="connector20pad" r="1.872" stroke-width="0.864"/>
   <circle  fill="none" cx="38.88" cy="36" stroke="#9A916C" id="connector21pad" r="1.872" stroke-width="0.864"/>
   <circle  fill="none" cx="46.8" cy="10.8" stroke="#9A916C" id="connector22pad" r="1.872" stroke-width="0.864"/>
   <circle  fill="none" cx="46.8" cy="18" stroke="#9A916C" id="connector23pad" r="1.872" stroke-width="0.864"/>
   <circle  fill="none" cx="46.8" cy="25.2" stroke="#9A916C" id="connector24pad" r="1.872" stroke-width="0.864"/>
   <circle  fill="none" cx="46.8" cy="32.4" stroke="#9A916C" id="connector25pad" r="1.872" stroke-width="0.864"/>
   <circle  fill="none" cx="46.8" cy="39.6" stroke="#9A916C" id="connector26pad" r="1.872" stroke-width="0.864"/>
   <circle  fill="none" cx="46.8" cy="46.8" stroke="#9A916C" id="connector27pad" r="1.872" stroke-width="0.864"/>
   <circle  fill="none" cx="46.8" cy="54" stroke="#9A916C" id="connector28pad" r="1.872" stroke-width="0.864"/>
   <circle  fill="none" cx="46.8" cy="61.2" stroke="#9A916C" id="connector29pad" r="1.872" stroke-width="0.864"/>
   <circle  fill="none" cx="46.8" cy="68.4" stroke="#9A916C" id="connector30pad" r="1.872" stroke-width="0.864"/>
   <circle  fill="none" cx="46.8" cy="75.6" stroke="#9A916C" id="connector31pad" r="1.872" stroke-width="0.864"/>
   <circle  fill="none" cx="46.8" cy="82.8" stroke="#9A916C" id="connector32pad" r="1.872" stroke-width="0.864"/>
   <circle  fill="none" cx="46.8" cy="90" stroke="#9A916C" id="connector33pad" r="1.872" stroke-width="0.864"/>
   <circle  fill="none" cx="3.6" cy="90" stroke="#9A916C" id="connector34pad" r="1.872" stroke-width="0.864"/>
   <circle  fill="none" cx="3.6" cy="82.8" stroke="#9A916C" id="connector35pad" r="1.872" stroke-width="0.864"/>
   <circle  fill="none" cx="3.6" cy="75.6" stroke="#9A916C" id="connector36pad" r="1.872" stroke-width="0.864"/>
   <circle  fill="none" cx="3.6" cy="68.4" stroke="#9A916C" id="connector37pad" r="1.872" stroke-width="0.864"/>
   <circle  fill="none" cx="3.6" cy="61.2" stroke="#9A916C" id="connector38pad" r="1.872" stroke-width="0.864"/>
   <circle  fill="none" cx="3.6" cy="54" stroke="#9A916C" id="connector39pad" r="1.872" stroke-width="0.864"/>
   <circle  fill="none" cx="3.6" cy="46.8" stroke="#9A916C" id="connector40pad" r="1.872" stroke-width="0.864"/>
   <circle  fill="none" cx="3.6" cy="39.6" stroke="#9A916C" id="connector41pad" r="1.872" stroke-width="0.864"/>
   <circle  fill="none" cx="3.6" cy="32.4" stroke="#9A916C" id="connector42pad" r="1.872" stroke-width="0.864"/>
   <circle  fill="none" cx="3.6" cy="25.2" stroke="#9A916C" id="connector43pad" r="1.872" stroke-width="0.864"/>
   <circle  fill="none" cx="3.6" cy="18" stroke="#9A916C" id="connector44pad" r="1.872" stroke-width="0.864"/>
   <circle  fill="none" cx="3.6" cy="10.8" stroke="#9A916C" id="connector45pad" r="1.872" stroke-width="0.864"/>
  </g>
  <g  id="tactile_switch_smd" transform="matrix(1, 0, 0, 1, 17.021, 74.628)">
   <g  transform="matrix(-1, 0, 0, -1, 16.392, 16.392)">
    <polygon  fill="#6D6D6D" points="1.142,12.976 3.415,15.25 12.978,15.25 15.25,12.976 15.25,3.413 12.978,1.141 3.415,1.141 1.142,3.413 "/>
    <rect  width="9.562" x="3.415" y="0" fill="#6D6D6D" height="16.392"/>
    <rect  width="16.392" x="0" y="3.413" fill="#6D6D6D" height="9.562"/>
    <polygon  fill="#7F7F7F" points="1.827,12.513 3.879,14.565 12.513,14.565 14.566,12.513 14.566,3.877 12.513,1.826 3.879,1.826 1.827,3.877 "/>
    <polyline  opacity="0.2" fill="none" points="4.105,2.16 2.161,4.103 2.161,12.287 4.105,14.232 12.288,14.232 " stroke="#FFFFFF" enable-background="new    " stroke-width="0.2369" stroke-miterlimit="10"/>
    <polyline  opacity="0.2" fill="none" points="12.289,14.232 14.233,12.289 14.233,4.105 12.289,2.16 4.106,2.16 " stroke="#606060" enable-background="new    " stroke-width="0.2369" stroke-miterlimit="10"/>
    <g >
     <path  fill="#BCA16A" d="M8.196,11.923c-2.057,0-3.729-1.672-3.729-3.729c0-2.055,1.672-3.728,3.729-3.728c2.055,0,3.727,1.672,3.727,3.728C11.922,10.251,10.25,11.923,8.196,11.923z"/>
     <path  fill="#606060" d="M8.196,4.719c1.92,0,3.477,1.557,3.477,3.478c0,1.922-1.557,3.479-3.477,3.479c-1.922,0-3.479-1.557-3.479-3.479C4.719,6.275,6.276,4.719,8.196,4.719 M8.196,4.219c-2.193,0-3.979,1.784-3.979,3.978c0,2.192,1.784,3.979,3.979,3.979c2.19,0,3.977-1.784,3.977-3.979C12.172,6.003,10.388,4.219,8.196,4.219L8.196,4.219z"/>
    </g>
    <path  opacity="0.2" fill="#BCA16A" stroke="#FFFFFF" enable-background="new    " stroke-width="0.5304" d="M10.39,10.389c-1.212,1.212-3.177,1.212-4.389,0c-1.212-1.213-1.212-3.178,0-4.39" stroke-miterlimit="10"/>
    <path  opacity="0.2" fill="#BCA16A" stroke="#606060" enable-background="new    " stroke-width="0.5304" d="M6.001,5.999c1.212-1.212,3.177-1.212,4.389,0c1.212,1.213,1.212,3.177,0,4.39" stroke-miterlimit="10"/>
   </g>
  </g>
 </g>
</svg>
