<?xml version='1.0' encoding='utf-8'?>
<!DOCTYPE svg PUBLIC '-//W3C//DTD SVG 1.1//EN' 'http://www.w3.org/Graphics/SVG/1.1/DTD/svg11.dtd'>
<!-- Generator: Adobe Illustrator 15.0.1, SVG Export Plug-In . SVG Version: 6.00 Build 0)  -->
<svg xmlns="http://www.w3.org/2000/svg" width="0.7in" xml:space="preserve" xmlns:xml="http://www.w3.org/XML/1998/namespace" x="0px" version="1.1" y="0px" height="1.3in" viewBox="0 0 50.4 93.6" id="Ebene_1" enable-background="new 0 0 50.4 93.6">
 <desc >Fritzing breadboard generated by brd2svg</desc>
 <g  id="breadboard">
  <g  id="icon">
   <path  fill="#147390" d="M0,0v93.6h50.4V0H0 M41.76,3.6c0-0.795,0.646-1.439,1.44-1.439s1.44,0.645,1.44,1.439c0,0.796-0.646,1.44-1.44,1.44S41.76,4.396,41.76,3.6z M34.56,3.6c0-0.795,0.645-1.439,1.439-1.439c0.796,0,1.44,0.645,1.44,1.439c0,0.796-0.645,1.44-1.44,1.44C35.205,5.04,34.56,4.396,34.56,3.6z M27.36,3.6c0-0.795,0.645-1.439,1.439-1.439c0.796,0,1.44,0.645,1.44,1.439c0,0.796-0.645,1.44-1.44,1.44C28.005,5.04,27.36,4.396,27.36,3.6z M20.16,3.6c0-0.795,0.645-1.439,1.44-1.439c0.795,0,1.439,0.645,1.439,1.439c0,0.796-0.645,1.44-1.439,1.44C20.804,5.04,20.16,4.396,20.16,3.6z M12.96,3.6c0-0.795,0.645-1.439,1.44-1.439c0.795,0,1.439,0.645,1.439,1.439c0,0.796-0.645,1.44-1.439,1.44C13.604,5.04,12.96,4.396,12.96,3.6z M5.76,3.6c0-0.795,0.646-1.439,1.44-1.439S8.64,2.805,8.64,3.6c0,0.796-0.646,1.44-1.44,1.44S5.76,4.396,5.76,3.6z M37.44,43.2c0-0.796,0.645-1.44,1.439-1.44c0.796,0,1.44,0.645,1.44,1.44c0,0.795-0.645,1.439-1.44,1.439C38.085,44.64,37.44,43.995,37.44,43.2z M37.44,36c0-0.796,0.645-1.44,1.439-1.44c0.796,0,1.44,0.645,1.44,1.44c0,0.795-0.645,1.439-1.44,1.439C38.085,37.44,37.44,36.795,37.44,36z M45.36,10.8c0-0.795,0.645-1.44,1.439-1.44c0.796,0,1.44,0.646,1.44,1.44s-0.645,1.44-1.44,1.44C46.005,12.24,45.36,11.595,45.36,10.8z M45.36,18c0-0.796,0.645-1.44,1.439-1.44c0.796,0,1.44,0.645,1.44,1.44c0,0.795-0.645,1.439-1.44,1.439C46.005,19.44,45.36,18.795,45.36,18z M45.36,25.2c0-0.796,0.645-1.44,1.439-1.44c0.796,0,1.44,0.645,1.44,1.44c0,0.795-0.645,1.439-1.44,1.439C46.005,26.64,45.36,25.995,45.36,25.2z M45.36,32.4c0-0.795,0.645-1.439,1.439-1.439c0.796,0,1.44,0.645,1.44,1.439c0,0.796-0.645,1.44-1.44,1.44C46.005,33.84,45.36,33.196,45.36,32.4z M45.36,39.6c0-0.795,0.645-1.439,1.439-1.439c0.796,0,1.44,0.645,1.44,1.439c0,0.796-0.645,1.44-1.44,1.44C46.005,41.04,45.36,40.396,45.36,39.6z M45.36,46.8c0-0.795,0.645-1.44,1.439-1.44c0.796,0,1.44,0.646,1.44,1.44s-0.645,1.44-1.44,1.44C46.005,48.24,45.36,47.595,45.36,46.8z M45.36,54c0-0.796,0.645-1.44,1.439-1.44c0.796,0,1.44,0.645,1.44,1.44c0,0.795-0.645,1.439-1.44,1.439C46.005,55.44,45.36,54.795,45.36,54z M45.36,61.2c0-0.796,0.645-1.44,1.439-1.44c0.796,0,1.44,0.645,1.44,1.44l0,0c0,0.795-0.645,1.439-1.44,1.439C46.005,62.64,45.36,61.995,45.36,61.2z M45.36,68.4c0-0.795,0.645-1.439,1.439-1.439c0.796,0,1.44,0.645,1.44,1.439l0,0c0,0.796-0.645,1.44-1.44,1.44C46.005,69.84,45.36,69.196,45.36,68.4z M45.36,75.6c0-0.795,0.645-1.439,1.439-1.439c0.796,0,1.44,0.645,1.44,1.439c0,0.796-0.645,1.44-1.44,1.44C46.005,77.04,45.36,76.396,45.36,75.6z M45.36,82.8c0-0.795,0.645-1.44,1.439-1.44c0.796,0,1.44,0.646,1.44,1.44s-0.645,1.44-1.44,1.44C46.005,84.24,45.36,83.595,45.36,82.8z M45.36,90c0-0.796,0.645-1.44,1.439-1.44c0.796,0,1.44,0.645,1.44,1.44c0,0.795-0.645,1.439-1.44,1.439C46.005,91.44,45.36,90.795,45.36,90z M2.16,90c0-0.796,0.645-1.44,1.439-1.44c0.796-0.001,1.44,0.644,1.44,1.439c0,0,0,0,0,0.001c0,0.795-0.645,1.439-1.439,1.439C2.804,91.44,2.16,90.795,2.16,90z M2.16,82.8c0-0.795,0.645-1.44,1.439-1.44c0.796,0,1.44,0.645,1.44,1.439V82.8c0,0.795-0.645,1.44-1.439,1.44C2.804,84.24,2.16,83.595,2.16,82.8z M2.16,75.6c0-0.795,0.645-1.44,1.439-1.44c0.796,0,1.44,0.645,1.44,1.439c0,0.001,0,0.001,0,0.001c0,0.796-0.645,1.44-1.439,1.44C2.804,77.04,2.16,76.396,2.16,75.6z M2.16,68.4c0-0.795,0.645-1.439,1.439-1.44c0.796,0,1.44,0.645,1.44,1.439c0,0.001,0,0.001,0,0.001c0,0.796-0.645,1.44-1.439,1.44C2.804,69.84,2.16,69.196,2.16,68.4z M2.16,61.2c0-0.796,0.645-1.44,1.439-1.44c0.796-0.001,1.44,0.644,1.44,1.439c0,0,0,0,0,0.001c0,0.795-0.645,1.439-1.439,1.439C2.804,62.64,2.16,61.995,2.16,61.2z M2.16,54c0-0.796,0.645-1.44,1.439-1.44c0.796-0.001,1.44,0.644,1.44,1.439c0,0,0,0,0,0.001c0,0.795-0.645,1.439-1.439,1.439C2.804,55.44,2.16,54.795,2.16,54z M2.16,46.8c0-0.795,0.645-1.44,1.439-1.44c0.796,0,1.44,0.645,1.44,1.439V46.8c0,0.795-0.645,1.44-1.439,1.44C2.804,48.24,2.16,47.595,2.16,46.8z M2.16,39.6c0-0.795,0.645-1.44,1.439-1.44c0.796,0,1.44,0.645,1.44,1.439c0,0.001,0,0.001,0,0.001c0,0.796-0.645,1.44-1.439,1.44C2.804,41.04,2.16,40.396,2.16,39.6z M2.16,32.4c0-0.795,0.645-1.439,1.439-1.44c0.796,0,1.44,0.645,1.44,1.439c0,0.001,0,0.001,0,0.001c0,0.796-0.645,1.44-1.439,1.44C2.804,33.84,2.16,33.196,2.16,32.4z M2.16,25.2c0-0.796,0.645-1.44,1.439-1.44c0.796-0.001,1.44,0.644,1.44,1.439c0,0,0,0,0,0.001c0,0.795-0.645,1.439-1.439,1.439C2.804,26.64,2.16,25.995,2.16,25.2L2.16,25.2z M2.16,18c0-0.796,0.645-1.44,1.439-1.44c0.796-0.001,1.44,0.644,1.44,1.439c0,0,0,0,0,0.001c0,0.795-0.645,1.439-1.439,1.439C2.804,19.44,2.16,18.795,2.16,18z M2.16,10.8c0-0.795,0.645-1.44,1.439-1.44c0.796,0,1.44,0.645,1.44,1.439V10.8c0,0.795-0.645,1.44-1.439,1.44C2.804,12.24,2.16,11.595,2.16,10.8z"/>
   <g >
    <title >layer 21</title>
    <g >
     <title >text:Reset</title>
     <text  fill="#FFFFFF" font-family="OCRA" transform="matrix(1 0 0 1 18.3596 74.1604)" font-size="3.9458">Reset</text>
    </g>
    <g >
     <title >text:9</title>
     <g  transform="matrix(1, 0, 0, 1, 9.36, 91.08)">
      <g  transform="rotate(-90)">
       <text  fill="#FFFFFF" font-family="OCRA" transform="matrix(1 0 0 1 -3.051758e-04 1.220703e-04)" font-size="3.3408">9</text>
      </g>
     </g>
    </g>
    <g >
     <title >text:8</title>
     <g  transform="matrix(1, 0, 0, 1, 9.504, 83.88)">
      <g  transform="rotate(-90)">
       <text  fill="#FFFFFF" font-family="OCRA" transform="matrix(1 0 0 1 -1.220703e-04 -3.356934e-04)" font-size="3.3408">8</text>
      </g>
     </g>
    </g>
    <g >
     <title >text:7</title>
     <g  transform="matrix(1, 0, 0, 1, 9.504, 76.32)">
      <g  transform="rotate(-90)">
       <text  fill="#FFFFFF" font-family="OCRA" transform="matrix(1 0 0 1 4.272461e-04 -3.356934e-04)" font-size="3.3408">7</text>
      </g>
     </g>
    </g>
    <g >
     <title >text:6</title>
     <g  transform="matrix(1, 0, 0, 1, 9.504, 69.48)">
      <g  transform="rotate(-90)">
       <text  fill="#FFFFFF" font-family="OCRA" transform="matrix(1 0 0 1 2.746582e-04 -3.356934e-04)" font-size="3.3408">6</text>
      </g>
     </g>
    </g>
    <g >
     <title >text:5</title>
     <g  transform="matrix(1, 0, 0, 1, 9.504, 62.28)">
      <g  transform="rotate(-90)">
       <text  fill="#FFFFFF" font-family="OCRA" transform="matrix(1 0 0 1 -5.187988e-04 -3.356934e-04)" font-size="3.3408">5</text>
      </g>
     </g>
    </g>
    <g >
     <title >text:4</title>
     <g  transform="matrix(1, 0, 0, 1, 9.36, 55.08)">
      <g  transform="rotate(-90)">
       <text  fill="#FFFFFF" font-family="OCRA" transform="matrix(1 0 0 1 -3.051758e-04 1.220703e-04)" font-size="3.3408">4</text>
      </g>
     </g>
    </g>
    <g >
     <title >text:3</title>
     <g  transform="matrix(1, 0, 0, 1, 9.36, 47.88)">
      <g  transform="rotate(-90)">
       <text  fill="#FFFFFF" font-family="OCRA" transform="matrix(1 0 0 1 -1.220703e-04 1.220703e-04)" font-size="3.3408">3</text>
      </g>
     </g>
    </g>
    <g >
     <title >text:2</title>
     <g  transform="matrix(1, 0, 0, 1, 9, 40.32)">
      <g  transform="rotate(-90)">
       <text  fill="#FFFFFF" font-family="OCRA" transform="matrix(1 0 0 1 4.272461e-04 -2.441406e-04)" font-size="2.6726">2</text>
      </g>
     </g>
    </g>
    <g >
     <title >text:GND</title>
     <g  transform="matrix(1, 0, 0, 1, 9, 35.64)">
      <g  transform="rotate(-90)">
       <text  fill="#FFFFFF" font-family="OCRA" transform="matrix(1 0 0 1 1.220703e-04 -2.441406e-04)" font-size="2.6726">GND</text>
      </g>
     </g>
    </g>
    <g >
     <title >text:RST</title>
     <g  transform="matrix(1, 0, 0, 1, 9, 28.08)">
      <g  transform="rotate(-90)">
       <text  fill="#FFFFFF" font-family="OCRA" transform="matrix(1 0 0 1 -3.356934e-04 -2.441406e-04)" font-size="2.6726">RST</text>
      </g>
     </g>
    </g>
    <g >
     <title >text:RXI</title>
     <g  transform="matrix(1, 0, 0, 1, 9, 20.88)">
      <g  transform="rotate(-90)">
       <text  fill="#FFFFFF" font-family="OCRA" transform="matrix(1 0 0 1 -1.220703e-04 -2.441406e-04)" font-size="2.6726">RXI</text>
      </g>
     </g>
    </g>
    <g >
     <title >text:TXO</title>
     <g  transform="matrix(1, 0, 0, 1, 9, 13.68)">
      <g  transform="rotate(-90)">
       <text  fill="#FFFFFF" font-family="OCRA" transform="matrix(1 0 0 1 -9.155273e-04 -2.441406e-04)" font-size="2.6726">TXO</text>
      </g>
     </g>
    </g>
    <g >
     <title >text:TXO</title>
     <text  fill="#FFFFFF" font-family="OCRA" transform="matrix(1 0 0 1 33.1199 8.6399)" font-size="2.6726">TXO</text>
    </g>
    <g >
     <title >text:RXI</title>
     <text  fill="#FFFFFF" font-family="OCRA" transform="matrix(1 0 0 1 26.28 8.6399)" font-size="2.6726">RXI</text>
    </g>
    <g >
     <title >text:RAW</title>
     <g  transform="matrix(1, 0, 0, 1, 43.92, 13.68)">
      <g  transform="rotate(-90)">
       <text  fill="#FFFFFF" font-family="OCRA" transform="matrix(1 0 0 1 -9.155273e-04 -3.051758e-04)" font-size="2.6726">RAW</text>
      </g>
     </g>
    </g>
    <g >
     <title >text:GND</title>
     <g  transform="matrix(1, 0, 0, 1, 43.92, 20.88)">
      <g  transform="rotate(-90)">
       <text  fill="#FFFFFF" font-family="OCRA" transform="matrix(1 0 0 1 -1.220703e-04 -3.051758e-04)" font-size="2.6726">GND</text>
      </g>
     </g>
    </g>
    <g >
     <title >text:RST</title>
     <g  transform="matrix(1, 0, 0, 1, 43.92, 28.08)">
      <g  transform="rotate(-90)">
       <text  fill="#FFFFFF" font-family="OCRA" transform="matrix(1 0 0 1 -3.356934e-04 -3.051758e-04)" font-size="2.6726">RST</text>
      </g>
     </g>
    </g>
    <g >
     <title >text:VCC</title>
     <g  transform="matrix(1, 0, 0, 1, 43.92, 35.28)">
      <g  transform="rotate(-90)">
       <text  fill="#FFFFFF" font-family="OCRA" transform="matrix(1 0 0 1 -5.187988e-04 -3.051758e-04)" font-size="2.6726">VCC</text>
      </g>
     </g>
    </g>
    <g >
     <title >text:A3</title>
     <g  transform="matrix(1, 0, 0, 1, 43.92, 41.4)">
      <g  transform="rotate(-90)">
       <text  fill="#FFFFFF" font-family="OCRA" transform="matrix(1 0 0 1 3.356934e-04 -3.051758e-04)" font-size="2.6726">A3</text>
      </g>
     </g>
    </g>
    <g >
     <title >text:A2</title>
     <g  transform="matrix(1, 0, 0, 1, 43.92, 48.6)">
      <g  transform="rotate(-90)">
       <text  fill="#FFFFFF" font-family="OCRA" transform="matrix(1 0 0 1 -8.239746e-04 -3.051758e-04)" font-size="2.6726">A2</text>
      </g>
     </g>
    </g>
    <g >
     <title >text:A1</title>
     <g  transform="matrix(1, 0, 0, 1, 43.92, 56.16)">
      <g  transform="rotate(-90)">
       <text  fill="#FFFFFF" font-family="OCRA" transform="matrix(1 0 0 1 -3.967285e-04 -3.051758e-04)" font-size="3.3408">A1</text>
      </g>
     </g>
    </g>
    <g >
     <title >text:A0</title>
     <g  transform="matrix(1, 0, 0, 1, 43.92, 63.36)">
      <g  transform="rotate(-90)">
       <text  fill="#FFFFFF" font-family="OCRA" transform="matrix(1 0 0 1 -6.103516e-04 -3.051758e-04)" font-size="3.3408">A0</text>
      </g>
     </g>
    </g>
    <g >
     <title >text:13</title>
     <g  transform="matrix(1, 0, 0, 1, 43.92, 70.56)">
      <g  transform="rotate(-90)">
       <text  fill="#FFFFFF" font-family="OCRA" transform="matrix(1 0 0 1 1.831055e-04 -3.051758e-04)" font-size="3.3408">13</text>
      </g>
     </g>
    </g>
    <g >
     <title >text:12</title>
     <g  transform="matrix(1, 0, 0, 1, 43.92, 77.76)">
      <g  transform="rotate(-90)">
       <text  fill="#FFFFFF" font-family="OCRA" transform="matrix(1 0 0 1 0 -3.051758e-04)" font-size="3.3408">12</text>
      </g>
     </g>
    </g>
    <g >
     <title >text:11</title>
     <g  transform="matrix(1, 0, 0, 1, 43.92, 84.96)">
      <g  transform="rotate(-90)">
       <text  fill="#FFFFFF" font-family="OCRA" transform="matrix(1 0 0 1 -2.136230e-04 -3.051758e-04)" font-size="3.3408">11</text>
      </g>
     </g>
    </g>
    <g >
     <title >text:10</title>
     <g  transform="matrix(1, 0, 0, 1, 43.92, 92.16)">
      <g  transform="rotate(-90)">
       <text  fill="#FFFFFF" font-family="OCRA" transform="matrix(1 0 0 1 -3.967285e-04 -3.051758e-04)" font-size="3.3408">10</text>
      </g>
     </g>
    </g>
    <g >
     <title >text:VCC</title>
     <text  fill="#FFFFFF" font-family="OCRA" transform="matrix(1 0 0 1 18.72 8.6399)" font-size="2.6726">VCC</text>
    </g>
    <g >
     <title >text:GND</title>
     <text  fill="#FFFFFF" font-family="OCRA" transform="matrix(1 0 0 1 11.5198 8.6399)" font-size="2.6726">GND</text>
    </g>
    <g >
     <title >text:BLK</title>
     <g  transform="matrix(1, 0, 0, 1, 3.6, 6.48)">
      <g  transform="rotate(-90)">
       <text  fill="#FFFFFF" font-family="OCRA" transform="matrix(1 0 0 1 2.746582e-04 -6.408691e-04)" font-size="2.6726">BLK</text>
      </g>
     </g>
    </g>
    <g >
     <title >text:GRN</title>
     <g  transform="matrix(1, 0, 0, 1, 48.96, 6.48)">
      <g  transform="rotate(-90)">
       <text  fill="#FFFFFF" font-family="OCRA" transform="matrix(1 0 0 1 2.746582e-04 -3.051758e-04)" font-size="2.6726">GRN</text>
      </g>
     </g>
    </g>
    <g >
     <title >text:Arduino Pro</title>
     <text  fill="#FFFFFF" font-family="OCRA" transform="matrix(1 0 0 1 11.8796 15.8401)" font-size="3.3408">Arduino Pro</text>
    </g>
    <g >
     <title >text:Mini</title>
     <text  fill="#FFFFFF" font-family="OCRA" transform="matrix(1 0 0 1 21.24 12.2405)" font-size="3.3408">Mini</text>
    </g>
    <g >
     <title >element:C1</title>
     <g >
      <title >package:C0402</title>
     </g>
    </g>
    <g >
     <title >element:C2</title>
     <g >
      <title >package:C0402</title>
     </g>
    </g>
    <g >
     <title >element:C3</title>
     <g >
      <title >package:C0402</title>
     </g>
    </g>
    <g >
     <title >element:C10</title>
     <g >
      <title >package:C0402</title>
     </g>
    </g>
    <g >
     <title >element:C13</title>
     <g >
      <title >package:EIA3216</title>
      <line  fill="none" stroke="#FFFFFF" stroke-linecap="round" y1="28.034" stroke-width="0.576" x1="17.801" y2="32.286" x2="17.801"/>
      <line  fill="none" stroke="#FFFFFF" stroke-linecap="round" y1="32.286" stroke-width="0.576" x1="17.801" y2="32.286" x2="10.999"/>
      <line  fill="none" stroke="#FFFFFF" stroke-linecap="round" y1="32.286" stroke-width="0.576" x1="10.999" y2="28.034" x2="10.999"/>
      <line  fill="none" stroke="#FFFFFF" stroke-linecap="round" y1="22.365" stroke-width="0.576" x1="17.801" y2="19.247" x2="17.801"/>
      <line  fill="none" stroke="#FFFFFF" stroke-linecap="round" y1="19.247" stroke-width="0.576" x1="17.801" y2="18.114" x2="16.668"/>
      <line  fill="none" stroke="#FFFFFF" stroke-linecap="round" y1="18.114" stroke-width="0.576" x1="16.668" y2="18.114" x2="12.133"/>
      <line  fill="none" stroke="#FFFFFF" stroke-linecap="round" y1="18.114" stroke-width="0.576" x1="12.133" y2="19.247" x2="10.999"/>
      <line  fill="none" stroke="#FFFFFF" stroke-linecap="round" y1="19.247" stroke-width="0.576" x1="10.999" y2="22.365" x2="10.999"/>
     </g>
    </g>
    <g >
     <title >element:C19</title>
     <g >
      <title >package:EIA3216</title>
      <line  fill="none" stroke="#FFFFFF" stroke-linecap="round" y1="28.034" stroke-width="0.576" x1="40.842" y2="32.286" x2="40.842"/>
      <line  fill="none" stroke="#FFFFFF" stroke-linecap="round" y1="32.286" stroke-width="0.576" x1="40.842" y2="32.286" x2="34.039"/>
      <line  fill="none" stroke="#FFFFFF" stroke-linecap="round" y1="32.286" stroke-width="0.576" x1="34.039" y2="28.034" x2="34.039"/>
      <line  fill="none" stroke="#FFFFFF" stroke-linecap="round" y1="22.365" stroke-width="0.576" x1="40.842" y2="19.247" x2="40.842"/>
      <line  fill="none" stroke="#FFFFFF" stroke-linecap="round" y1="19.247" stroke-width="0.576" x1="40.842" y2="18.114" x2="39.708"/>
      <line  fill="none" stroke="#FFFFFF" stroke-linecap="round" y1="18.114" stroke-width="0.576" x1="39.708" y2="18.114" x2="35.173"/>
      <line  fill="none" stroke="#FFFFFF" stroke-linecap="round" y1="18.114" stroke-width="0.576" x1="35.173" y2="19.247" x2="34.039"/>
      <line  fill="none" stroke="#FFFFFF" stroke-linecap="round" y1="19.247" stroke-width="0.576" x1="34.039" y2="22.365" x2="34.039"/>
     </g>
    </g>
    <g >
     <title >element:D3</title>
     <g >
      <title >package:LED-0603</title>
      <line  fill="none" stroke="#FFFFFF" stroke-linecap="round" y1="86.882" stroke-width="0.576" x1="37.576" y2="86.882" x2="38.88"/>
      <line  fill="none" stroke="#FFFFFF" stroke-linecap="round" y1="86.882" stroke-width="0.576" x1="40.184" y2="86.882" x2="38.88"/>
      <line  fill="none" stroke="#FFFFFF" stroke-linecap="round" y1="86.882" stroke-width="0.576" x1="38.88" y2="86.003" x2="38.001"/>
      <line  fill="none" stroke="#FFFFFF" stroke-linecap="round" y1="86.91" stroke-width="0.576" x1="38.88" y2="86.003" x2="39.787"/>
      <line  fill="none" stroke="#FFFFFF" stroke-linecap="round" y1="86.003" stroke-width="0.576" x1="39.787" y2="86.003" x2="38.001"/>
     </g>
    </g>
    <g >
     <title >element:JP1</title>
     <g >
      <title >package:1X06</title>
     </g>
    </g>
    <g >
     <title >element:JP2</title>
     <g >
      <title >package:1X02</title>
     </g>
    </g>
    <g >
     <title >element:JP6</title>
     <g >
      <title >package:1X12</title>
     </g>
    </g>
    <g >
     <title >element:JP7</title>
     <g >
      <title >package:1X12</title>
     </g>
    </g>
    <g >
     <title >element:LED1</title>
     <g >
      <title >package:LED-0603</title>
      <line  fill="none" stroke="#FFFFFF" stroke-linecap="round" y1="33.704" stroke-width="0.576" x1="25.682" y2="32.4" x2="25.682"/>
      <line  fill="none" stroke="#FFFFFF" stroke-linecap="round" y1="31.096" stroke-width="0.576" x1="25.682" y2="32.4" x2="25.682"/>
      <line  fill="none" stroke="#FFFFFF" stroke-linecap="round" y1="32.4" stroke-width="0.576" x1="25.682" y2="33.279" x2="24.803"/>
      <line  fill="none" stroke="#FFFFFF" stroke-linecap="round" y1="32.4" stroke-width="0.576" x1="25.711" y2="31.493" x2="24.803"/>
      <line  fill="none" stroke="#FFFFFF" stroke-linecap="round" y1="31.493" stroke-width="0.576" x1="24.803" y2="33.279" x2="24.803"/>
     </g>
    </g>
    <g >
     <title >element:Q1</title>
     <g >
      <title >package:RESONATOR-SMD</title>
      <line  fill="none" stroke="#FFFFFF" stroke-linecap="round" y1="33.701" stroke-width="0.576" x1="10.397" y2="33.417" x2="10.397"/>
      <line  fill="none" stroke="#FFFFFF" stroke-linecap="round" y1="33.417" stroke-width="0.576" x1="10.397" y2="33.417" x2="14.083"/>
      <line  fill="none" stroke="#FFFFFF" stroke-linecap="round" y1="33.417" stroke-width="0.576" x1="14.083" y2="33.701" x2="14.083"/>
      <line  fill="none" stroke="#FFFFFF" stroke-linecap="round" y1="43.339" stroke-width="0.576" x1="14.083" y2="43.764" x2="14.083"/>
      <line  fill="none" stroke="#FFFFFF" stroke-linecap="round" y1="43.764" stroke-width="0.576" x1="14.083" y2="43.764" x2="10.397"/>
      <line  fill="none" stroke="#FFFFFF" stroke-linecap="round" y1="43.764" stroke-width="0.576" x1="10.397" y2="43.339" x2="10.397"/>
     </g>
    </g>
    <g >
     <title >element:R2</title>
     <g >
      <title >package:C0402</title>
     </g>
    </g>
    <g >
     <title >element:R6</title>
     <g >
      <title >package:C0402</title>
     </g>
    </g>
    <g >
     <title >element:R11</title>
     <g >
      <title >package:C0402</title>
     </g>
    </g>
    <g >
     <title >element:S2</title>
     <g >
      <title >package:TACTILE_SWITCH_SMD</title>
      <line  fill="none" stroke="#FFFFFF" stroke-linecap="round" y1="79.285" stroke-width="0.576" x1="32.4" y2="86.4" x2="32.4"/>
      <line  fill="none" stroke="#FFFFFF" stroke-linecap="round" y1="90" stroke-width="0.576" x1="29.565" y2="90" x2="20.835"/>
      <line  fill="none" stroke="#FFFFFF" stroke-linecap="round" y1="86.315" stroke-width="0.576" x1="18" y2="79.285" x2="18"/>
      <line  fill="none" stroke="#FFFFFF" stroke-linecap="round" y1="75.6" stroke-width="0.576" x1="20.835" y2="75.6" x2="29.565"/>
      <circle  fill="none" cx="25.2" cy="82.8" stroke="#FFFFFF" r="3.6" stroke-width="0.576"/>
     </g>
    </g>
    <g  id="sfe-logo-flame" transform="matrix(1, 0, 0, 1, 11.8339, 68.2946)">
     <g >
      <title >element:JP2</title>
      <g >
       <title >package:SFE-LOGO-FLAME</title>
       <title >polygon</title>
      </g>
     </g>
     <g >
      <path  fill="#FFFFFF" d="M4.378,1.29c0,0,0.113,0.482-0.251,0.551C3.873,1.885,3.464,1.634,3.258,1.383C3.003,1.073,3.035,0.829,3.234,0.612c0.297-0.327,0.805-0.2,0.805-0.2S3.107-0.406,2.136,0.263C1.273,0.858,1.521,1.669,2.299,2.376c0.703,0.641,0.145,1.342-0.563,1.249C1.249,3.563,1.05,3.175,1.167,2.935c0.103-0.205,0.449-0.33,0.449-0.33s-0.4-0.163-0.871,0.016C0.322,2.779-0.027,3.129,0.001,4.004v4.06c0,0,0.438-0.54,0.95-1.088C1.528,6.358,1.79,5.94,2.381,5.99C3.5,6.058,4.308,5.561,4.857,4.764C5.913,3.232,5.087,1.519,4.378,1.29z"/>
     </g>
    </g>
    <g >
     <title >element:U$2</title>
     <g >
      <title >package:FIDUCIAL-1X2</title>
     </g>
    </g>
    <g >
     <title >element:U$4</title>
     <g >
      <title >package:FIDUCIAL-1X2</title>
     </g>
    </g>
    <g >
     <title >element:U$11</title>
     <g >
      <title >package:SFE-NEW-WEBLOGO</title>
     </g>
    </g>
    <g >
     <title >element:U1</title>
     <g >
      <title >package:TQFP32-08</title>
      <line  fill="none" stroke="#FFFFFF" stroke-linecap="round" y1="54" stroke-width="0.432" x1="39.251" y2="68.051" x2="25.2"/>
      <line  fill="none" stroke="#FFFFFF" stroke-linecap="round" y1="68.051" stroke-width="0.432" x1="25.2" y2="54" x2="11.149"/>
      <line  fill="none" stroke="#FFFFFF" stroke-linecap="round" y1="54" stroke-width="0.432" x1="11.149" y2="40.661" x2="24.488"/>
      <line  fill="none" stroke="#FFFFFF" stroke-linecap="round" y1="40.661" stroke-width="0.432" x1="25.912" y2="54" x2="39.251"/>
      <line  fill="none" stroke="#FFFFFF" stroke-linecap="round" y1="40.661" stroke-width="0.432" x1="25.912" y2="40.661" x2="24.488"/>
      <circle  fill="none" cx="25.2" cy="43.004" stroke="#FFFFFF" r="1.018" stroke-width="0.432"/>
     </g>
    </g>
    <g >
     <title >element:U2</title>
     <g >
      <title >package:SOT23-5</title>
      <line  fill="none" stroke="#FFFFFF" stroke-linecap="round" y1="21.168" stroke-width="0.432" x1="22.903" y2="21.168" x2="27.497"/>
      <line  fill="none" stroke="#FFFFFF" stroke-linecap="round" y1="29.232" stroke-width="0.432" x1="27.497" y2="29.232" x2="22.903"/>
      <line  fill="none" stroke="#FFFFFF" stroke-linecap="round" y1="26.681" stroke-width="0.432" x1="22.903" y2="23.719" x2="22.903"/>
      <line  fill="none" stroke="#FFFFFF" stroke-linecap="round" y1="26.412" stroke-width="0.432" x1="27.497" y2="26.681" x2="27.497"/>
      <line  fill="none" stroke="#FFFFFF" stroke-linecap="round" y1="23.719" stroke-width="0.432" x1="27.497" y2="23.988" x2="27.497"/>
      <line  fill="none" stroke="#FFFFFF" stroke-linecap="round" y1="28.963" stroke-width="0.432" x1="27.497" y2="29.232" x2="27.497"/>
      <line  fill="none" stroke="#FFFFFF" stroke-linecap="round" y1="21.168" stroke-width="0.432" x1="27.497" y2="21.437" x2="27.497"/>
      <line  fill="none" stroke="#FFFFFF" stroke-linecap="round" y1="21.437" stroke-width="0.432" x1="22.903" y2="21.168" x2="22.903"/>
      <line  fill="none" stroke="#FFFFFF" stroke-linecap="round" y1="29.232" stroke-width="0.432" x1="22.903" y2="28.963" x2="22.903"/>
     </g>
    </g>
   </g>
   <rect  width="6.803" x="10.999" y="18.114" fill="#FFFFFF" height="14.173" fill-opacity="0.15"/>
   <rect  width="6.803" x="34.039" y="18.114" fill="#FFFFFF" height="14.173" fill-opacity="0.15"/>
   <rect  width="2.608" x="37.576" y="86.003" fill="#FFFFFF" height="0.907" fill-opacity="0.15"/>
   <rect  width="0.906" x="24.803" y="31.096" fill="#FFFFFF" height="2.608" fill-opacity="0.15"/>
   <rect  width="3.686" x="10.397" y="33.417" fill="#FFFFFF" height="10.347" fill-opacity="0.15"/>
   <rect  width="19.836" x="15.272" y="44.14" fill="#FFFFFF" height="19.774" fill-opacity="0.15" transform="matrix(-0.7071 0.7071 -0.7071 -0.7071 81.2036 74.4176)"/>
   <rect  width="4.594" x="22.903" y="21.168" fill="#FFFFFF" height="8.063" fill-opacity="0.15"/>
   <circle  fill="none" cx="43.2" cy="3.6" stroke="#9A916C" id="connector14pin" r="1.872" stroke-width="0.864"/>
   <circle  fill="none" cx="36" cy="3.6" stroke="#9A916C" id="connector15pin" r="1.872" stroke-width="0.864"/>
   <circle  fill="none" cx="28.8" cy="3.6" stroke="#9A916C" id="connector16pin" r="1.872" stroke-width="0.864"/>
   <circle  fill="none" cx="21.6" cy="3.6" stroke="#9A916C" id="connector17pin" r="1.872" stroke-width="0.864"/>
   <circle  fill="none" cx="14.4" cy="3.6" stroke="#9A916C" id="connector18pin" r="1.872" stroke-width="0.864"/>
   <circle  fill="none" cx="7.2" cy="3.6" stroke="#9A916C" id="connector19pin" r="1.872" stroke-width="0.864"/>
   <circle  fill="none" cx="38.88" cy="43.2" stroke="#9A916C" id="connector20pin" r="1.872" stroke-width="0.864"/>
   <circle  fill="none" cx="38.88" cy="36" stroke="#9A916C" id="connector21pin" r="1.872" stroke-width="0.864"/>
   <circle  fill="none" cx="46.8" cy="10.8" stroke="#9A916C" id="connector22pin" r="1.872" stroke-width="0.864"/>
   <circle  fill="none" cx="46.8" cy="18" stroke="#9A916C" id="connector23pin" r="1.872" stroke-width="0.864"/>
   <circle  fill="none" cx="46.8" cy="25.2" stroke="#9A916C" id="connector24pin" r="1.872" stroke-width="0.864"/>
   <circle  fill="none" cx="46.8" cy="32.4" stroke="#9A916C" id="connector25pin" r="1.872" stroke-width="0.864"/>
   <circle  fill="none" cx="46.8" cy="39.6" stroke="#9A916C" id="connector26pin" r="1.872" stroke-width="0.864"/>
   <circle  fill="none" cx="46.8" cy="46.8" stroke="#9A916C" id="connector27pin" r="1.872" stroke-width="0.864"/>
   <circle  fill="none" cx="46.8" cy="54" stroke="#9A916C" id="connector28pin" r="1.872" stroke-width="0.864"/>
   <circle  fill="none" cx="46.8" cy="61.2" stroke="#9A916C" id="connector29pin" r="1.872" stroke-width="0.864"/>
   <circle  fill="none" cx="46.8" cy="68.4" stroke="#9A916C" id="connector30pin" r="1.872" stroke-width="0.864"/>
   <circle  fill="none" cx="46.8" cy="75.6" stroke="#9A916C" id="connector31pin" r="1.872" stroke-width="0.864"/>
   <circle  fill="none" cx="46.8" cy="82.8" stroke="#9A916C" id="connector32pin" r="1.872" stroke-width="0.864"/>
   <circle  fill="none" cx="46.8" cy="90" stroke="#9A916C" id="connector33pin" r="1.872" stroke-width="0.864"/>
   <circle  fill="none" cx="3.6" cy="90" stroke="#9A916C" id="connector34pin" r="1.872" stroke-width="0.864"/>
   <circle  fill="none" cx="3.6" cy="82.8" stroke="#9A916C" id="connector35pin" r="1.872" stroke-width="0.864"/>
   <circle  fill="none" cx="3.6" cy="75.6" stroke="#9A916C" id="connector36pin" r="1.872" stroke-width="0.864"/>
   <circle  fill="none" cx="3.6" cy="68.4" stroke="#9A916C" id="connector37pin" r="1.872" stroke-width="0.864"/>
   <circle  fill="none" cx="3.6" cy="61.2" stroke="#9A916C" id="connector38pin" r="1.872" stroke-width="0.864"/>
   <circle  fill="none" cx="3.6" cy="54" stroke="#9A916C" id="connector39pin" r="1.872" stroke-width="0.864"/>
   <circle  fill="none" cx="3.6" cy="46.8" stroke="#9A916C" id="connector40pin" r="1.872" stroke-width="0.864"/>
   <circle  fill="none" cx="3.6" cy="39.6" stroke="#9A916C" id="connector41pin" r="1.872" stroke-width="0.864"/>
   <circle  fill="none" cx="3.6" cy="32.4" stroke="#9A916C" id="connector42pin" r="1.872" stroke-width="0.864"/>
   <circle  fill="none" cx="3.6" cy="25.2" stroke="#9A916C" id="connector43pin" r="1.872" stroke-width="0.864"/>
   <circle  fill="none" cx="3.6" cy="18" stroke="#9A916C" id="connector44pin" r="1.872" stroke-width="0.864"/>
   <circle  fill="none" cx="3.6" cy="10.8" stroke="#9A916C" id="connector45pin" r="1.872" stroke-width="0.864"/>
  </g>
  <g  id="tactile_switch_smd" transform="matrix(1, 0, 0, 1, 17.021, 74.628)">
   <g  transform="matrix(-1, 0, 0, -1, 16.392, 16.392)">
    <polygon  fill="#6D6D6D" points="1.142,12.976 3.415,15.25 12.978,15.25 15.25,12.976 15.25,3.413 12.978,1.141 3.415,1.141 1.142,3.413 "/>
    <rect  width="9.562" x="3.415" y="0" fill="#6D6D6D" height="16.392"/>
    <rect  width="16.392" x="0" y="3.413" fill="#6D6D6D" height="9.562"/>
    <polygon  fill="#7F7F7F" points="1.827,12.513 3.879,14.565 12.513,14.565 14.566,12.513 14.566,3.877 12.513,1.826 3.879,1.826 1.827,3.877 "/>
    <polyline  opacity="0.2" fill="none" points="4.105,2.16 2.161,4.103 2.161,12.287 4.105,14.232 12.288,14.232 " stroke="#FFFFFF" enable-background="new    " stroke-width="0.2369" stroke-miterlimit="10"/>
    <polyline  opacity="0.2" fill="none" points="12.289,14.232 14.233,12.289 14.233,4.105 12.289,2.16 4.106,2.16 " stroke="#606060" enable-background="new    " stroke-width="0.2369" stroke-miterlimit="10"/>
    <g >
     <path  fill="#BCA16A" d="M8.196,11.923c-2.056,0-3.728-1.672-3.728-3.728c0-2.055,1.672-3.728,3.728-3.728c2.055,0,3.727,1.672,3.727,3.728C11.922,10.251,10.25,11.923,8.196,11.923z"/>
     <path  fill="#606060" d="M8.196,4.719c1.92,0,3.477,1.557,3.477,3.478s-1.557,3.478-3.477,3.478c-1.921,0-3.478-1.557-3.478-3.478C4.719,6.275,6.276,4.719,8.196,4.719 M8.196,4.219c-2.193,0-3.978,1.784-3.978,3.978c0,2.192,1.784,3.978,3.978,3.978c2.191,0,3.977-1.784,3.977-3.978C12.172,6.003,10.388,4.219,8.196,4.219L8.196,4.219z"/>
    </g>
    <path  opacity="0.2" fill="#BCA16A" stroke="#FFFFFF" enable-background="new    " stroke-width="0.5304" d="M10.39,10.389c-1.212,1.212-3.177,1.212-4.389,0c-1.212-1.213-1.212-3.178,0-4.39" stroke-miterlimit="10"/>
    <path  opacity="0.2" fill="#BCA16A" stroke="#606060" enable-background="new    " stroke-width="0.5304" d="M6.001,5.999c1.212-1.212,3.177-1.212,4.389,0c1.212,1.213,1.212,3.177,0,4.39" stroke-miterlimit="10"/>
   </g>
  </g>
 </g>
</svg>
