<?xml version="1.0" encoding="UTF-8" standalone="no"?>
<!-- Generated by the Fritzing Team. http://www.fritzing.org. CreativeCommons:BY -->
<!-- This file was created through a template.-->
<svg
   xmlns:dc="http://purl.org/dc/elements/1.1/"
   xmlns:cc="http://creativecommons.org/ns#"
   xmlns:rdf="http://www.w3.org/1999/02/22-rdf-syntax-ns#"
   xmlns:svg="http://www.w3.org/2000/svg"
   xmlns="http://www.w3.org/2000/svg"
   xmlns:sodipodi="http://sodipodi.sourceforge.net/DTD/sodipodi-0.dtd"
   xmlns:inkscape="http://www.inkscape.org/namespaces/inkscape"
   version="1.2"
   baseProfile="tiny"
   id="svg2"
   x="0px"
   y="0px"
   width="1.40in"
   height="0.33in"
   viewBox="0 0 140 33"
   xml:space="preserve"
   sodipodi:version="0.32"
   inkscape:version="0.46"
   sodipodi:docname="atmega168.svg"
   inkscape:output_extension="org.inkscape.output.svg.inkscape"><metadata
   id="metadata196"><rdf:RDF><cc:Work
       rdf:about=""><dc:format>image/svg+xml</dc:format><dc:type
         rdf:resource="http://purl.org/dc/dcmitype/StillImage" /></cc:Work></rdf:RDF></metadata><defs
   id="defs194"><inkscape:perspective
     sodipodi:type="inkscape:persp3d"
     inkscape:vp_x="0 : 14.85 : 1"
     inkscape:vp_y="0 : 1000 : 0"
     inkscape:vp_z="126 : 14.85 : 1"
     inkscape:persp3d-origin="63 : 9.9000003 : 1"
     id="perspective198" /></defs><sodipodi:namedview
   inkscape:window-height="726"
   inkscape:window-width="645"
   inkscape:pageshadow="2"
   inkscape:pageopacity="0.0"
   guidetolerance="10.0"
   gridtolerance="10.0"
   objecttolerance="10.0"
   borderopacity="1.0"
   bordercolor="#666666"
   pagecolor="#ffffff"
   id="base"
   showgrid="false"
   inkscape:zoom="4.3174603"
   inkscape:cx="63"
   inkscape:cy="14.85"
   inkscape:window-x="1024"
   inkscape:window-y="0"
   inkscape:current-layer="svg2" />

<rect
   id="connector0pin"
   x="3.5"
   y="28.66"
   fill="none"
   width="3"
   height="4.34" />
<rect
   id="connector1pin"
   x="13.5"
   y="28.66"
   fill="none"
   width="3"
   height="4.34" />
<rect
   id="connector2pin"
   x="23.5"
   y="28.66"
   fill="none"
   width="3"
   height="4.34" />
<rect
   id="connector3pin"
   x="33.5"
   y="28.66"
   fill="none"
   width="3"
   height="4.34" />
<rect
   id="connector4pin"
   x="43.5"
   y="28.66"
   fill="none"
   width="3"
   height="4.34" />
<rect
   id="connector5pin"
   x="53.5"
   y="28.66"
   fill="none"
   width="3"
   height="4.34" />
<rect
   id="connector6pin"
   x="63.5"
   y="28.66"
   fill="none"
   width="3"
   height="4.34" />
<rect
   id="connector7pin"
   x="73.5"
   y="28.66"
   fill="none"
   width="3"
   height="4.34" />
<rect
   id="connector8pin"
   x="83.5"
   y="28.66"
   fill="none"
   width="3"
   height="4.34" />
<rect
   id="connector9pin"
   x="93.5"
   y="28.66"
   fill="none"
   width="3"
   height="4.34" />
<rect
   id="connector10pin"
   x="103.5"
   y="28.66"
   fill="none"
   width="3"
   height="4.34" />
<rect
   id="connector11pin"
   x="113.5"
   y="28.66"
   fill="none"
   width="3"
   height="4.34" />
<rect
   id="connector12pin"
   x="123.5"
   y="28.66"
   fill="none"
   width="3"
   height="4.34" />
<rect
   id="connector13pin"
   x="133.5"
   y="28.66"
   fill="none"
   width="3"
   height="4.34" />
<rect
   id="connector14pin"
   x="133.5"
   y="0"
   fill="none"
   width="3"
   height="4.34" />
<rect
   id="connector15pin"
   x="123.5"
   y="0"
   fill="none"
   width="3"
   height="4.34" />
<rect
   id="connector16pin"
   x="113.5"
   y="0"
   fill="none"
   width="3"
   height="4.34" />
<rect
   id="connector17pin"
   x="103.5"
   y="0"
   fill="none"
   width="3"
   height="4.34" />
<rect
   id="connector18pin"
   x="93.5"
   y="0"
   fill="none"
   width="3"
   height="4.34" />
<rect
   id="connector19pin"
   x="83.5"
   y="0"
   fill="none"
   width="3"
   height="4.34" />
<rect
   id="connector20pin"
   x="73.5"
   y="0"
   fill="none"
   width="3"
   height="4.34" />
<rect
   id="connector21pin"
   x="63.5"
   y="0"
   fill="none"
   width="3"
   height="4.34" />
<rect
   id="connector22pin"
   x="53.5"
   y="0"
   fill="none"
   width="3"
   height="4.34" />
<rect
   id="connector23pin"
   x="43.5"
   y="0"
   fill="none"
   width="3"
   height="4.34" />
<rect
   id="connector24pin"
   x="33.5"
   y="0"
   fill="none"
   width="3"
   height="4.34" />
<rect
   id="connector25pin"
   x="23.5"
   y="0"
   fill="none"
   width="3"
   height="4.34" />
<rect
   id="connector26pin"
   x="13.5"
   y="0"
   fill="none"
   width="3"
   height="4.34" />
<rect
   id="connector27pin"
   x="3.5"
   y="0"
   fill="none"
   width="3"
   height="4.34" />
<rect
   id="connector0terminal"
   x="3.5"
   y="30"
   fill="none"
   width="3"
   height="3" />
<rect
   id="connector1terminal"
   x="13.5"
   y="30"
   fill="none"
   width="3"
   height="3" />
<rect
   id="connector2terminal"
   x="23.5"
   y="30"
   fill="none"
   width="3"
   height="3" />
<rect
   id="connector3terminal"
   x="33.5"
   y="30"
   fill="none"
   width="3"
   height="3" />
<rect
   id="connector4terminal"
   x="43.5"
   y="30"
   fill="none"
   width="3"
   height="3" />
<rect
   id="connector5terminal"
   x="53.5"
   y="30"
   fill="none"
   width="3"
   height="3" />
<rect
   id="connector6terminal"
   x="63.5"
   y="30"
   fill="none"
   width="3"
   height="3" />
<rect
   id="connector7terminal"
   x="73.5"
   y="30"
   fill="none"
   width="3"
   height="3" />
<rect
   id="connector8terminal"
   x="83.5"
   y="30"
   fill="none"
   width="3"
   height="3" />
<rect
   id="connector9terminal"
   x="93.5"
   y="30"
   fill="none"
   width="3"
   height="3" />
<rect
   id="connector10terminal"
   x="103.5"
   y="30"
   fill="none"
   width="3"
   height="3" />
<rect
   id="connector11terminal"
   x="113.5"
   y="30"
   fill="none"
   width="3"
   height="3" />
<rect
   id="connector12terminal"
   x="123.5"
   y="30"
   fill="none"
   width="3"
   height="3" />
<rect
   id="connector13terminal"
   x="133.5"
   y="30"
   fill="none"
   width="3"
   height="3" />
<rect
   id="connector14terminal"
   x="133.5"
   y="0"
   fill="none"
   width="3"
   height="3" />
<rect
   id="connector15terminal"
   x="123.5"
   y="0"
   fill="none"
   width="3"
   height="3" />
<rect
   id="connector16terminal"
   x="113.5"
   y="0"
   fill="none"
   width="3"
   height="3" />
<rect
   id="connector17terminal"
   x="103.5"
   y="0"
   fill="none"
   width="3"
   height="3" />
<rect
   id="connector18terminal"
   x="93.5"
   y="0"
   fill="none"
   width="3"
   height="3" />
<rect
   id="connector19terminal"
   x="83.5"
   y="0"
   fill="none"
   width="3"
   height="3" />
<rect
   id="connector20terminal"
   x="73.5"
   y="0"
   fill="none"
   width="3"
   height="3" />
<rect
   id="connector21terminal"
   x="63.5"
   y="0"
   fill="none"
   width="3"
   height="3" />
<rect
   id="connector22terminal"
   x="53.5"
   y="0"
   fill="none"
   width="3"
   height="3" />
<rect
   id="connector23terminal"
   x="43.5"
   y="0"
   fill="none"
   width="3"
   height="3" />
<rect
   id="connector24terminal"
   x="33.5"
   y="0"
   fill="none"
   width="3"
   height="3" />
<rect
   id="connector25terminal"
   x="23.5"
   y="0"
   fill="none"
   width="3"
   height="3" />
<rect
   id="connector26terminal"
   x="13.5"
   y="0"
   fill="none"
   width="3"
   height="3" />
<rect
   id="connector27terminal"
   x="3.5"
   y="0"
   fill="none"
   width="3"
   height="3" />
<g
   id="breadboard">
	<rect
   x="3.5"
   y="26.32"
   fill="#8C8C8C"
   width="3"
   height="6.68"
   id="rect60" />
	<rect
   x="13.5"
   y="26.32"
   fill="#8C8C8C"
   width="3"
   height="6.68"
   id="rect62" />
	<rect
   x="23.5"
   y="26.32"
   fill="#8C8C8C"
   width="3"
   height="6.68"
   id="rect64" />
	<rect
   x="33.5"
   y="26.32"
   fill="#8C8C8C"
   width="3"
   height="6.68"
   id="rect66" />
	<rect
   x="43.5"
   y="26.32"
   fill="#8C8C8C"
   width="3"
   height="6.68"
   id="rect68" />
	<rect
   x="53.5"
   y="26.32"
   fill="#8C8C8C"
   width="3"
   height="6.68"
   id="rect70" />
	<rect
   x="63.5"
   y="26.32"
   fill="#8C8C8C"
   width="3"
   height="6.68"
   id="rect72" />
	<rect
   x="73.5"
   y="26.32"
   fill="#8C8C8C"
   width="3"
   height="6.68"
   id="rect74" />
	<rect
   x="83.5"
   y="26.32"
   fill="#8C8C8C"
   width="3"
   height="6.68"
   id="rect76" />
	<rect
   x="93.5"
   y="26.32"
   fill="#8C8C8C"
   width="3"
   height="6.68"
   id="rect78" />
	<rect
   x="103.5"
   y="26.32"
   fill="#8C8C8C"
   width="3"
   height="6.68"
   id="rect80" />
	<rect
   x="113.5"
   y="26.32"
   fill="#8C8C8C"
   width="3"
   height="6.68"
   id="rect82" />
	<rect
   x="123.5"
   y="26.32"
   fill="#8C8C8C"
   width="3"
   height="6.68"
   id="rect84" />
	<rect
   x="133.5"
   y="26.32"
   fill="#8C8C8C"
   width="3"
   height="6.68"
   id="rect86" />
	<rect
   x="133.5"
   y="0"
   fill="#8C8C8C"
   width="3"
   height="6.68"
   id="rect88" />
	<rect
   x="123.5"
   y="0"
   fill="#8C8C8C"
   width="3"
   height="6.68"
   id="rect90" />
	<rect
   x="113.5"
   y="0"
   fill="#8C8C8C"
   width="3"
   height="6.68"
   id="rect92" />
	<rect
   x="103.5"
   y="0"
   fill="#8C8C8C"
   width="3"
   height="6.68"
   id="rect94" />
	<rect
   x="93.5"
   y="0"
   fill="#8C8C8C"
   width="3"
   height="6.68"
   id="rect96" />
	<rect
   x="83.5"
   y="0"
   fill="#8C8C8C"
   width="3"
   height="6.68"
   id="rect98" />
	<rect
   x="73.5"
   y="0"
   fill="#8C8C8C"
   width="3"
   height="6.68"
   id="rect100" />
	<rect
   x="63.5"
   y="0"
   fill="#8C8C8C"
   width="3"
   height="6.68"
   id="rect102" />
	<rect
   x="53.5"
   y="0"
   fill="#8C8C8C"
   width="3"
   height="6.68"
   id="rect104" />
	<rect
   x="43.5"
   y="0"
   fill="#8C8C8C"
   width="3"
   height="6.68"
   id="rect106" />
	<rect
   x="33.5"
   y="0"
   fill="#8C8C8C"
   width="3"
   height="6.68"
   id="rect108" />
	<rect
   x="23.5"
   y="0"
   fill="#8C8C8C"
   width="3"
   height="6.68"
   id="rect110" />
	<rect
   x="13.5"
   y="0"
   fill="#8C8C8C"
   width="3"
   height="6.68"
   id="rect112" />
	<rect
   x="3.5"
   y="0"
   fill="#8C8C8C"
   width="3"
   height="6.68"
   id="rect114" />
	<polygon
   fill="#3D3D3D"
   points="0,3 140,3 139.25,11.5 0,11.5  "
   id="polygon116" />
	<polygon
   points="0,21.5 139.25,21.5 140,30 0,30  "
   id="polygon118" />
	<polygon
   fill="#8C8C8C"
   points="8.5,4.34 8.5,3.26 6.5,2.34 3.5,2.34 3.5,4.34  "
   id="polygon120" />
	<polygon
   fill="#8C8C8C"
   points="136.5,4.34 136.5,2.34 133.5,2.34 131.5,3.26 131.5,4.34  "
   id="polygon122" />
	<polygon
   fill="#8C8C8C"
   points="3.5,28.66 3.5,30.66 6.5,30.66 8.5,29.74 8.5,28.66  "
   id="polygon124" />
	<polygon
   fill="#8C8C8C"
   points="131.5,28.66 131.5,29.74 133.5,30.66 136.5,30.66 136.5,28.66  "
   id="polygon126" />
	<polygon
   fill="#8C8C8C"
   points="18.5,4.34 18.5,3.26 16.5,2.34 13.5,2.34 11.5,3.26 11.5,4.34"
   id="polygon128" />
	<polygon
   fill="#8C8C8C"
   points="11.5,28.66 11.5,29.74 13.5,30.66 16.5,30.66 18.5,29.74 18.5,28.66"
   id="polygon130" />
	<polygon
   fill="#8C8C8C"
   points="28.5,4.34 28.5,3.26 26.5,2.34 23.5,2.34 21.5,3.26 21.5,4.34"
   id="polygon132" />
	<polygon
   fill="#8C8C8C"
   points="21.5,28.66 21.5,29.74 23.5,30.66 26.5,30.66 28.5,29.74 28.5,28.66"
   id="polygon134" />
	<polygon
   fill="#8C8C8C"
   points="38.5,4.34 38.5,3.26 36.5,2.34 33.5,2.34 31.5,3.26 31.5,4.34"
   id="polygon136" />
	<polygon
   fill="#8C8C8C"
   points="31.5,28.66 31.5,29.74 33.5,30.66 36.5,30.66 38.5,29.74 38.5,28.66"
   id="polygon138" />
	<polygon
   fill="#8C8C8C"
   points="48.5,4.34 48.5,3.26 46.5,2.34 43.5,2.34 41.5,3.26 41.5,4.34"
   id="polygon140" />
	<polygon
   fill="#8C8C8C"
   points="41.5,28.66 41.5,29.74 43.5,30.66 46.5,30.66 48.5,29.74 48.5,28.66"
   id="polygon142" />
	<polygon
   fill="#8C8C8C"
   points="58.5,4.34 58.5,3.26 56.5,2.34 53.5,2.34 51.5,3.26 51.5,4.34"
   id="polygon144" />
	<polygon
   fill="#8C8C8C"
   points="51.5,28.66 51.5,29.74 53.5,30.66 56.5,30.66 58.5,29.74 58.5,28.66"
   id="polygon146" />
	<polygon
   fill="#8C8C8C"
   points="68.5,4.34 68.5,3.26 66.5,2.34 63.5,2.34 61.5,3.26 61.5,4.34"
   id="polygon148" />
	<polygon
   fill="#8C8C8C"
   points="61.5,28.66 61.5,29.74 63.5,30.66 66.5,30.66 68.5,29.74 68.5,28.66"
   id="polygon150" />
	<polygon
   fill="#8C8C8C"
   points="78.5,4.34 78.5,3.26 76.5,2.34 73.5,2.34 71.5,3.26 71.5,4.34"
   id="polygon152" />
	<polygon
   fill="#8C8C8C"
   points="71.5,28.66 71.5,29.74 73.5,30.66 76.5,30.66 78.5,29.74 78.5,28.66"
   id="polygon154" />
	<polygon
   fill="#8C8C8C"
   points="88.5,4.34 88.5,3.26 86.5,2.34 83.5,2.34 81.5,3.26 81.5,4.34"
   id="polygon156" />
	<polygon
   fill="#8C8C8C"
   points="81.5,28.66 81.5,29.74 83.5,30.66 86.5,30.66 88.5,29.74 88.5,28.66"
   id="polygon158" />
	<polygon
   fill="#8C8C8C"
   points="98.5,4.34 98.5,3.26 96.5,2.34 93.5,2.34 91.5,3.26 91.5,4.34"
   id="polygon160" />
	<polygon
   fill="#8C8C8C"
   points="91.5,28.66 91.5,29.74 93.5,30.66 96.5,30.66 98.5,29.74 98.5,28.66"
   id="polygon162" />
	<polygon
   fill="#8C8C8C"
   points="108.5,4.34 108.5,3.26 106.5,2.34 103.5,2.34 101.5,3.26 101.5,4.34"
   id="polygon164" />
	<polygon
   fill="#8C8C8C"
   points="101.5,28.66 101.5,29.74 103.5,30.66 106.5,30.66 108.5,29.74 108.5,28.66"
   id="polygon166" />
	<polygon
   fill="#8C8C8C"
   points="118.5,4.34 118.5,3.26 116.5,2.34 113.5,2.34 111.5,3.26 111.5,4.34"
   id="polygon168" />
	<polygon
   fill="#8C8C8C"
   points="111.5,28.66 111.5,29.74 113.5,30.66 116.5,30.66 118.5,29.74 118.5,28.66"
   id="polygon170" />
	<polygon
   fill="#8C8C8C"
   points="128.5,4.34 128.5,3.26 126.5,2.34 123.5,2.34 121.5,3.26 121.5,4.34"
   id="polygon172" />
	<polygon
   fill="#8C8C8C"
   points="121.5,28.66 121.5,29.74 123.5,30.66 126.5,30.66 128.5,29.74 128.5,28.66"
   id="polygon174" />
	<polygon
   fill="#141414"
   points="140,3 139.25,5.46 137.853,5.46 137.853,27.53 139.25,27.54 140,30 "
   id="polygon176" />
	<polygon
   fill="#1F1F1F"
   points="0,3 0.75,5.46 0.75,11.5 5,11.5 5,21.5 0.75,21.5 0.75,27.54 0,30  "
   id="polygon178" />
	<polygon
   fill="#1C1C1C"
   points="5,11.5 0.75,11.5 0.56,13.6 0.56,16.5 5,16.5  "
   id="polygon180" />
	<polygon
   fill="#383838"
   points="0.75,21.5 5,21.5 5,16.5 0.56,16.5 0.56,19.4  "
   id="polygon182" />
	<path
   fill="#303030"
   d="M0.75,5.46 v6.0 c2.38,0.45,4.19,2.53,4.19,5.04 c0,2.51-1.8,4.6-4.19,5.05 v6.0 h138.5 V5.46 H0.75 z"
   id="path184" />
	<path
   fill="#262626"
   d="M0.56,13.6 v5.83 c1.47-0.17,2.62-1.4,2.62-2.92 C3.18,15.0,2.04,13.75,0.56,13.6 z"
   id="path186" />
	<circle
   fill="#212121"
   cx="6.5"
   cy="23.47"
   r="2.06"
   id="circle188" />
	<g
   id="icpackage_text_layer">
		<path
   style="font-size:10px;fill:#665e55;font-family:'04b11'"
   d="M 42.917969,12.681641 L 41.580078,16.30957 L 44.260742,16.30957 L 42.917969,12.681641 M 42.361328,11.709961 L 43.479492,11.709961 L 46.257812,19 L 45.232422,19 L 44.568359,17.129883 L 41.282227,17.129883 L 40.618164,19 L 39.578125,19 L 42.361328,11.709961 M 45.525391,11.709961 L 51.692383,11.709961 L 51.692383,12.540039 L 49.104492,12.540039 L 49.104492,19 L 48.113281,19 L 48.113281,12.540039 L 45.525391,12.540039 L 45.525391,11.709961 M 52.649414,11.709961 L 54.119141,11.709961 L 55.979492,16.670898 L 57.849609,11.709961 L 59.319336,11.709961 L 59.319336,19 L 58.357422,19 L 58.357422,12.598633 L 56.477539,17.598633 L 55.486328,17.598633 L 53.606445,12.598633 L 53.606445,19 L 52.649414,19 L 52.649414,11.709961 M 61.282227,11.709961 L 65.891602,11.709961 L 65.891602,12.540039 L 62.268555,12.540039 L 62.268555,14.698242 L 65.740234,14.698242 L 65.740234,15.52832 L 62.268555,15.52832 L 62.268555,18.169922 L 65.979492,18.169922 L 65.979492,19 L 61.282227,19 L 61.282227,11.709961 M 72.581055,17.959961 L 72.581055,16.001953 L 70.969727,16.001953 L 70.969727,15.191406 L 73.557617,15.191406 L 73.557617,18.321289 C 73.176751,18.591472 72.75683,18.79655 72.297852,18.936523 C 71.838862,19.073242 71.348954,19.141601 70.828125,19.141602 C 69.688799,19.141601 68.796873,18.809571 68.152344,18.145508 C 67.511067,17.478192 67.190429,16.550458 67.19043,15.362305 C 67.190429,14.170903 67.511067,13.24317 68.152344,12.579102 C 68.796873,11.911791 69.688799,11.578132 70.828125,11.578125 C 71.303381,11.578132 71.754227,11.636726 72.180664,11.753906 C 72.610346,11.871101 73.005853,12.043627 73.367188,12.271484 L 73.367188,13.321289 C 73.002598,13.01205 72.615228,12.779303 72.205078,12.623047 C 71.794917,12.466803 71.363602,12.388678 70.911133,12.388672 C 70.019202,12.388678 69.34863,12.637702 68.899414,13.135742 C 68.453449,13.633794 68.230467,14.375981 68.230469,15.362305 C 68.230467,16.34538 68.453449,17.085939 68.899414,17.583984 C 69.34863,18.082032 70.019202,18.331055 70.911133,18.331055 C 71.259435,18.331055 71.570308,18.301759 71.84375,18.243164 C 72.117182,18.181316 72.36295,18.086915 72.581055,17.959961 M 77.800781,12.681641 L 76.462891,16.30957 L 79.143555,16.30957 L 77.800781,12.681641 M 77.244141,11.709961 L 78.362305,11.709961 L 81.140625,19 L 80.115234,19 L 79.451172,17.129883 L 76.165039,17.129883 L 75.500977,19 L 74.460938,19 L 77.244141,11.709961 M 82.458984,18.169922 L 84.070312,18.169922 L 84.070312,12.608398 L 82.317383,12.959961 L 82.317383,12.061523 L 84.060547,11.709961 L 85.046875,11.709961 L 85.046875,18.169922 L 86.658203,18.169922 L 86.658203,19 L 82.458984,19 L 82.458984,18.169922 M 90.886719,14.961914 C 90.444008,14.961918 90.092445,15.113285 89.832031,15.416016 C 89.574868,15.718753 89.446287,16.133792 89.446289,16.661133 C 89.446287,17.185223 89.574868,17.600262 89.832031,17.90625 C 90.092445,18.208985 90.444008,18.360352 90.886719,18.360352 C 91.329423,18.360352 91.679358,18.208985 91.936523,17.90625 C 92.196935,17.600262 92.327144,17.185223 92.327148,16.661133 C 92.327144,16.133792 92.196935,15.718753 91.936523,15.416016 C 91.679358,15.113285 91.329423,14.961918 90.886719,14.961914 M 92.844727,11.871094 L 92.844727,12.769531 C 92.597326,12.65235 92.346675,12.562832 92.092773,12.500977 C 91.842118,12.439134 91.593095,12.40821 91.345703,12.408203 C 90.694658,12.40821 90.196612,12.627936 89.851562,13.067383 C 89.509764,13.506841 89.314451,14.170903 89.265625,15.05957 C 89.45768,14.776371 89.698566,14.5599 89.988281,14.410156 C 90.277992,14.257166 90.597002,14.180669 90.945312,14.180664 C 91.67773,14.180669 92.255529,14.40365 92.678711,14.849609 C 93.105138,15.292321 93.318354,15.896162 93.318359,16.661133 C 93.318354,17.409832 93.097,18.010418 92.654297,18.462891 C 92.211584,18.915365 91.622392,19.141601 90.886719,19.141602 C 90.043617,19.141601 89.399087,18.819336 88.953125,18.174805 C 88.507161,17.52702 88.284179,16.589521 88.28418,15.362305 C 88.284179,14.209966 88.557616,13.291998 89.104492,12.608398 C 89.651365,11.921557 90.385414,11.578132 91.306641,11.578125 C 91.554032,11.578132 91.803056,11.602546 92.053711,11.651367 C 92.307612,11.700203 92.571284,11.773445 92.844727,11.871094 M 97.131836,15.538086 C 96.663083,15.538089 96.293617,15.663415 96.023438,15.914062 C 95.756509,16.164716 95.623045,16.509768 95.623047,16.949219 C 95.623045,17.388673 95.756509,17.733725 96.023438,17.984375 C 96.293617,18.235027 96.663083,18.360352 97.131836,18.360352 C 97.600582,18.360352 97.970048,18.235027 98.240234,17.984375 C 98.510412,17.73047 98.645503,17.385418 98.645508,16.949219 C 98.645503,16.509768 98.510412,16.164716 98.240234,15.914062 C 97.973303,15.663415 97.603837,15.538089 97.131836,15.538086 M 96.145508,15.118164 C 95.722329,15.014001 95.391926,14.817061 95.154297,14.527344 C 94.919921,14.237635 94.802734,13.884445 94.802734,13.467773 C 94.802734,12.885097 95.009439,12.424486 95.422852,12.085938 C 95.839516,11.747403 96.409177,11.578132 97.131836,11.578125 C 97.857743,11.578132 98.427404,11.747403 98.84082,12.085938 C 99.254226,12.424486 99.460932,12.885097 99.460938,13.467773 C 99.460932,13.884445 99.342117,14.237635 99.104492,14.527344 C 98.870112,14.817061 98.542964,15.014001 98.123047,15.118164 C 98.598303,15.228845 98.967768,15.445316 99.231445,15.767578 C 99.498367,16.089847 99.63183,16.483726 99.631836,16.949219 C 99.63183,17.6556 99.415359,18.197592 98.982422,18.575195 C 98.55273,18.9528 97.935868,19.141601 97.131836,19.141602 C 96.327797,19.141601 95.709308,18.9528 95.276367,18.575195 C 94.846679,18.197592 94.631835,17.6556 94.631836,16.949219 C 94.631835,16.483726 94.765299,16.089847 95.032227,15.767578 C 95.299152,15.445316 95.670246,15.228845 96.145508,15.118164 M 95.78418,13.560547 C 95.784178,13.938156 95.901365,14.232752 96.135742,14.444336 C 96.37337,14.655929 96.705401,14.761723 97.131836,14.761719 C 97.555009,14.761723 97.885413,14.655929 98.123047,14.444336 C 98.363928,14.232752 98.48437,13.938156 98.484375,13.560547 C 98.48437,13.182949 98.363928,12.888352 98.123047,12.676758 C 97.885413,12.465176 97.555009,12.359382 97.131836,12.359375 C 96.705401,12.359382 96.37337,12.465176 96.135742,12.676758 C 95.901365,12.888352 95.784178,13.182949 95.78418,13.560547"
   id="text191" />
	</g>
</g>
</svg>