<?xml version="1.0" encoding="utf-8"?>
<!DOCTYPE svg PUBLIC "-//W3C//DTD SVG 1.1//EN" "http://www.w3.org/Graphics/SVG/1.1/DTD/svg11.dtd">
<svg version="1.1" id="Layer_1" xmlns="http://www.w3.org/2000/svg" xmlns:xlink="http://www.w3.org/1999/xlink"
	 width="2.35in" height="1.5in" viewBox="0 0 211.5 135"
	 xml:space="preserve">

<rect id="connectorGnd1" x="13" y="35" fill="none" width="1" height="1"/>
<rect id="connectorVcc1" x="13" y="44" fill="none" width="1" height="1"/>

<rect id="connectorGnd3" x="13" y="8" fill="none" width="1" height="1"/>
<rect id="connectorD13" x="22" y="8" fill="none" width="1" height="1"/>
<rect id="connectorD12" x="31" y="8" fill="none" width="1" height="1"/>
<rect id="connectorD11" x="40" y="8" fill="none" width="1" height="1"/>
<rect id="connectorD10" x="49" y="8" fill="none" width="1" height="1"/>
<rect id="connectorD9" x="58" y="8" fill="none" width="1" height="1"/>
<rect id="connectorD8" x="67" y="8" fill="none" width="1" height="1"/>
<rect id="connectorD7" x="76" y="8" fill="none" width="1" height="1"/>
<rect id="connectorD6" x="85" y="8" fill="none" width="1" height="1"/>
<rect id="connectorD5" x="94" y="8" fill="none" width="1" height="1"/>
<rect id="connectorD4" x="103" y="8" fill="none" width="1" height="1"/>
<rect id="connectorD3" x="112" y="8" fill="none" width="1" height="1"/>
<rect id="connectorD2" x="121" y="8" fill="none" width="1" height="1"/>
<rect id="connectorD1" x="130" y="8" fill="none" width="1" height="1"/>
<rect id="connectorD0" x="139" y="8" fill="none" width="1" height="1"/>

<rect id="connectorVcc2" x="148" y="8" fill="none" width="1" height="1"/>
<rect id="connectorGnd2" x="157" y="8" fill="none" width="1" height="1"/>
<rect id="connectorRst" x="166" y="8" fill="none" width="1" height="1"/>

<rect id="connectorAS0" x="184" y="8" fill="none" width="1" height="1"/>
<rect id="connectorAV0" x="193" y="8" fill="none" width="1" height="1"/>
<rect id="connectorAG0" x="202" y="8" fill="none" width="1" height="1"/>

<g id="breadboard">
    <rect
       width="2.35in"
       height="1.5in"
       x="0"
       y="0"
       style="fill:#ffffff;stroke:#000000;stroke-opacity:1;stroke-width:1;stroke-miterlimit:4" />

	<text fill="#000000" font-family="Droid Sans" font-size="6" x="-165" y="-40" transform="scale(-1,-1)">BARE-BONES</text>
	<text fill="#000000" font-family="Droid Sans" font-size="6" x="-165" y="-33" transform="scale(-1,-1)">BOARD</text>


	<text fill="#000000" font-family="Droid Sans" font-size="5" transform="matrix(0,1,-1,0,5,28)">GND</text>
    <circle
       id="Gnd1Hole"
       r="2"
       cx="13.5"
       cy="35.5"
       style="fill:#000000;stroke:#808080;stroke-width:1;stroke-opacity:1" />
	<text fill="#000000" font-family="Droid Sans" font-size="5" transform="matrix(0,1,-1,0,5,41)">+V</text>
    <circle
       id="Pwr1Hole"
       r="2"
       cx="13.5"
       cy="44.5"
       style="fill:#000000;stroke:#808080;stroke-width:1;stroke-opacity:1" />
       
	<text fill="#000000" font-family="Droid Sans" font-size="5" transform="matrix(0,1,-1,0,5,3)">GND</text>
    <circle
       id="Gnd3Hole"
       r="2"
       cx="13.5"
       cy="8.5"
       style="fill:#000000;stroke:#808080;stroke-width:1;stroke-opacity:1" />
	<text fill="#000000" font-family="Droid Sans" font-size="5" transform="matrix(0,1,-1,0,21,14)">13</text>
    <circle
       id="D13Hole"
       r="2"
       cx="22.5"
       cy="8.5"
       style="fill:#000000;stroke:#808080;stroke-width:1;stroke-opacity:1" />
	<text fill="#000000" font-family="Droid Sans" font-size="5" transform="matrix(0,1,-1,0,30,14)">12</text>
    <circle
       id="D12Hole"
       r="2"
       cx="31.5"
       cy="8.5"
       style="fill:#000000;stroke:#808080;stroke-width:1;stroke-opacity:1" />
	<text fill="#000000" font-family="Droid Sans" font-size="5" transform="matrix(0,1,-1,0,39,14)">11</text>
    <circle
       id="D11Hole"
       r="2"
       cx="40.5"
       cy="8.5"
       style="fill:#000000;stroke:#808080;stroke-width:1;stroke-opacity:1" />
	<text fill="#000000" font-family="Droid Sans" font-size="5" transform="matrix(0,1,-1,0,48,14)">10</text>
    <circle
       id="D10Hole"
       r="2"
       cx="49.5"
       cy="8.5"
       style="fill:#000000;stroke:#808080;stroke-width:1;stroke-opacity:1" />

	<text fill="#000000" font-family="Droid Sans" font-size="5" transform="matrix(0,1,-1,0,57,14)">9</text>
    <circle
       id="D9Hole"
       r="2"
       cx="58.5"
       cy="8.5"
       style="fill:#000000;stroke:#808080;stroke-width:1;stroke-opacity:1" />
	<text fill="#000000" font-family="Droid Sans" font-size="5" transform="matrix(0,1,-1,0,66,14)">8</text>
    <circle
       id="D8Hole"
       r="2"
       cx="67.5"
       cy="8.5"
       style="fill:#000000;stroke:#808080;stroke-width:1;stroke-opacity:1" />
	<text fill="#000000" font-family="Droid Sans" font-size="5" transform="matrix(0,1,-1,0,75,14)">7</text>
    <circle
       id="D7Hole"
       r="2"
       cx="76.5"
       cy="8.5"
       style="fill:#000000;stroke:#808080;stroke-width:1;stroke-opacity:1" />
	<text fill="#000000" font-family="Droid Sans" font-size="5" transform="matrix(0,1,-1,0,84,14)">6</text>
    <circle
       id="D6Hole"
       r="2"
       cx="85.5"
       cy="8.5"
       style="fill:#000000;stroke:#808080;stroke-width:1;stroke-opacity:1" />
	<text fill="#000000" font-family="Droid Sans" font-size="5" transform="matrix(0,1,-1,0,93,14)">5</text>
    <circle
       id="D5Hole"
       r="2"
       cx="94.5"
       cy="8.5"
       style="fill:#000000;stroke:#808080;stroke-width:1;stroke-opacity:1" />
       
	<text fill="#000000" font-family="Droid Sans" font-size="5" transform="matrix(0,1,-1,0,102,14)">4</text>
    <circle
       id="D4Hole"
       r="2"
       cx="103.5"
       cy="8.5"
       style="fill:#000000;stroke:#808080;stroke-width:1;stroke-opacity:1" />
	<text fill="#000000" font-family="Droid Sans" font-size="5" transform="matrix(0,1,-1,0,111,14)">3</text>
    <circle
       id="D3Hole"
       r="2"
       cx="112.5"
       cy="8.5"
       style="fill:#000000;stroke:#808080;stroke-width:1;stroke-opacity:1" />
	<text fill="#000000" font-family="Droid Sans" font-size="5" transform="matrix(0,1,-1,0,120,14)">2</text>
    <circle
       id="D2Hole"
       r="2"
       cx="121.5"
       cy="8.5"
       style="fill:#000000;stroke:#808080;stroke-width:1;stroke-opacity:1" />
	<text fill="#000000" font-family="Droid Sans" font-size="5" transform="matrix(0,1,-1,0,129,14)">1</text>
    <circle
       id="D1Hole"
       r="2"
       cx="130.5"
       cy="8.5"
       style="fill:#000000;stroke:#808080;stroke-width:1;stroke-opacity:1" />
	<text fill="#000000" font-family="Droid Sans" font-size="5" transform="matrix(0,1,-1,0,138,14)">0</text>
    <circle
       id="D0Hole"
       r="2"
       cx="139.5"
       cy="8.5"
       style="fill:#000000;stroke:#808080;stroke-width:1;stroke-opacity:1" />

	<text fill="#000000" font-family="Droid Sans" font-size="5" transform="matrix(0,1,-1,0,147,14)">+5</text>
    <circle
       id="Vcc2Hole"
       r="2"
       cx="148.5"
       cy="8.5"
       style="fill:#000000;stroke:#808080;stroke-width:1;stroke-opacity:1" />
	<text fill="#000000" font-family="Droid Sans" font-size="5" transform="matrix(0,1,-1,0,156,14)">GND</text>
    <circle
       id="Gnd2Hole"
       r="2"
       cx="157.5"
       cy="8.5"
       style="fill:#000000;stroke:#808080;stroke-width:1;stroke-opacity:1" />
	<text fill="#000000" font-family="Droid Sans" font-size="5" transform="matrix(0,1,-1,0,165,14)">RST</text>
    <circle
       id="RstHole"
       r="2"
       cx="166.5"
       cy="8.5"
       style="fill:#000000;stroke:#808080;stroke-width:1;stroke-opacity:1" />

	<text fill="#000000" font-family="Droid Sans" font-size="5" x="-180" y="-7" transform="scale(-1,-1)">A0</text>
    <circle
       id="AS0Hole"
       r="2"
       cx="184.5"
       cy="8.5"
       style="fill:#000000;stroke:#808080;stroke-width:1;stroke-opacity:1" />
    <circle
       id="AV0Hole"
       r="2"
       cx="193.5"
       cy="8.5"
       style="fill:#000000;stroke:#808080;stroke-width:1;stroke-opacity:1" />
    <circle
       id="AG0Hole"
       r="2"
       cx="202.5"
       cy="8.5"
       style="fill:#000000;stroke:#808080;stroke-width:1;stroke-opacity:1" />

	<text fill="#000000" font-family="Droid Sans" font-size="5" x="-180" y="-16" transform="scale(-1,-1)">A1</text>
    <circle
       id="AS1Hole"
       r="2"
       cx="184.5"
       cy="17.5"
       style="fill:#000000;stroke:#808080;stroke-width:1;stroke-opacity:1" />
    <circle
       id="AV1Hole"
       r="2"
       cx="193.5"
       cy="17.5"
       style="fill:#000000;stroke:#808080;stroke-width:1;stroke-opacity:1" />
    <circle
       id="AG1Hole"
       r="2"
       cx="202.5"
       cy="17.5"
       style="fill:#000000;stroke:#808080;stroke-width:1;stroke-opacity:1" />

	<text fill="#000000" font-family="Droid Sans" font-size="5" x="-180" y="-25" transform="scale(-1,-1)">A2</text>
    <circle
       id="AS2Hole"
       r="2"
       cx="184.5"
       cy="26.5"
       style="fill:#000000;stroke:#808080;stroke-width:1;stroke-opacity:1" />
    <circle
       id="AV2Hole"
       r="2"
       cx="193.5"
       cy="26.5"
       style="fill:#000000;stroke:#808080;stroke-width:1;stroke-opacity:1" />
    <circle
       id="AG2Hole"
       r="2"
       cx="202.5"
       cy="26.5"
       style="fill:#000000;stroke:#808080;stroke-width:1;stroke-opacity:1" />

	<text fill="#000000" font-family="Droid Sans" font-size="5" x="-180" y="-34" transform="scale(-1,-1)">A3</text>
    <circle
       id="AS3Hole"
       r="2"
       cx="184.5"
       cy="35.5"
       style="fill:#000000;stroke:#808080;stroke-width:1;stroke-opacity:1" />
    <circle
       id="AV3Hole"
       r="2"
       cx="193.5"
       cy="35.5"
       style="fill:#000000;stroke:#808080;stroke-width:1;stroke-opacity:1" />
    <circle
       id="AG3Hole"
       r="2"
       cx="202.5"
       cy="35.5"
       style="fill:#000000;stroke:#808080;stroke-width:1;stroke-opacity:1" />

	<text fill="#000000" font-family="Droid Sans" font-size="5" x="-180" y="-43" transform="scale(-1,-1)">A4</text>
    <circle
       id="AS4Hole"
       r="2"
       cx="184.5"
       cy="44.5"
       style="fill:#000000;stroke:#808080;stroke-width:1;stroke-opacity:1" />
    <circle
       id="AV4Hole"
       r="2"
       cx="193.5"
       cy="44.5"
       style="fill:#000000;stroke:#808080;stroke-width:1;stroke-opacity:1" />
    <circle
       id="AG4Hole"
       r="2"
       cx="202.5"
       cy="44.5"
       style="fill:#000000;stroke:#808080;stroke-width:1;stroke-opacity:1" />

	<text fill="#000000" font-family="Droid Sans" font-size="5" x="-180" y="-52" transform="scale(-1,-1)">A5</text>
    <circle
       id="AS5Hole"
       r="2"
       cx="184.5"
       cy="53.5"
       style="fill:#000000;stroke:#808080;stroke-width:1;stroke-opacity:1" />
    <circle
       id="AV5Hole"
       r="2"
       cx="193.5"
       cy="53.5"
       style="fill:#000000;stroke:#808080;stroke-width:1;stroke-opacity:1" />
    <circle
       id="AG5Hole"
       r="2"
       cx="202.5"
       cy="53.5"
       style="fill:#000000;stroke:#808080;stroke-width:1;stroke-opacity:1" />

	<text fill="#000000" font-family="Droid Sans" font-size="5" x="-180" y="-61" transform="scale(-1,-1)">AR</text>
    <circle
       id="ARRHole"
       r="2"
       cx="184.5"
       cy="62.5"
       style="fill:#000000;stroke:#808080;stroke-width:1;stroke-opacity:1" />
    <circle
       id="AVRHole"
       r="2"
       cx="193.5"
       cy="62.5"
       style="fill:#000000;stroke:#808080;stroke-width:1;stroke-opacity:1" />
    <circle
       id="AGRHole"
       r="2"
       cx="202.5"
       cy="62.5"
       style="fill:#000000;stroke:#808080;stroke-width:1;stroke-opacity:1" />

    <circle
       id="AV7Hole"
       r="2"
       cx="193.5"
       cy="71.5"
       style="fill:#000000;stroke:#808080;stroke-width:1;stroke-opacity:1" />
    <circle
       id="AG7Hole"
       r="2"
       cx="202.5"
       cy="71.5"
       style="fill:#000000;stroke:#808080;stroke-width:1;stroke-opacity:1" />
	<text fill="#000000" font-family="Droid Sans" font-size="5" transform="matrix(0,-1,1,0,204.5,88)">GND</text>
	<text fill="#000000" font-family="Droid Sans" font-size="5" transform="matrix(0,-1,1,0,195,87)">+5V</text>

</g>
</svg>
