<?xml version="1.0" encoding="utf-8"?>
<!DOCTYPE svg PUBLIC "-//W3C//DTD SVG 1.1//EN" "http://www.w3.org/Graphics/SVG/1.1/DTD/svg11.dtd">
<svg version="1.1" id="Layer_1" xmlns:svg="http://www.w3.org/2000/svg"
	 xmlns="http://www.w3.org/2000/svg" xmlns:xlink="http://www.w3.org/1999/xlink" x="0px" y="0px" width="0.17008in"
	 height="0.40463" viewBox="0 0 17.008 40.463" enable-background="new 0 0 17.008 40.463" xml:space="preserve">
<rect id="connector0terminal" x="2.052" y="37.323" fill="#8C8C8C" width="3" height="3.14"/>
<rect id="connector1terminal" x="12.052" y="37.323" fill="#8C8C8C" width="3" height="3.14"/>
<rect id="connector1pin" x="12.052" y="33.388" fill="#8C8C8C" width="3" height="7.075"/>
<rect id="connector0pin" x="2.052" y="33.388" fill="#8C8C8C" width="3" height="7.075"/>
<g id="breadboard">
	<g>
		<rect id="connector0pin_3_" x="2.557" y="33.411" fill="#8C8C8C" width="1.552" height="5.014"/>
		<rect id="connector1pin_3_" x="12.901" y="33.411" fill="#8C8C8C" width="1.551" height="5.014"/>
		<rect x="2.052" y="28.083" fill="#8C8C8C" width="3" height="10.342"/>
		<rect x="12.052" y="28.083" fill="#8C8C8C" width="3" height="10.342"/>
		<ellipse fill="#0D0033" cx="8.505" cy="27.434" rx="8.503" ry="5.953"/>
		<rect x="0" y="26.221" fill="#0D0033" width="17.001" height="1.214"/>
		<ellipse fill="#100040" cx="8.505" cy="26.471" rx="8.503" ry="5.953"/>
		<ellipse fill="#0D0033" cx="8.505" cy="22.333" rx="8.503" ry="5.953"/>
		<rect x="0" y="6.042" fill="#0D0033" width="17.007" height="16.291"/>
		<ellipse fill="#0D0033" cx="8.505" cy="6.042" rx="8.503" ry="5.953"/>
		<ellipse fill="#100040" cx="8.505" cy="5.514" rx="7.876" ry="5.515"/>
		<ellipse fill="#B2B2B2" cx="8.505" cy="5.195" rx="5.772" ry="4.042"/>
		<path fill="#D2EEFF" d="M1.662,2.508C0.619,3.496,0,4.719,0,6.042v3.289h1.138V9.013l0.014-0.119c0,0,0,0.062,0-0.16
			c0-0.398,0.189-0.654,0.51-0.782C1.97,7.831,1.947,5.653,1.947,5.653L1.662,2.508z"/>
		<path fill="#D2EEFF" d="M2.733,5.195c0-0.717,0.268-1.388,0.734-1.971L1.662,2.505C1.006,3.309,0.628,4.237,0.628,5.229
			c0,0.991,0.379,1.92,1.034,2.724L3.51,7.216C3.019,6.622,2.733,5.933,2.733,5.195z"/>
		<rect x="0" y="8.894" fill="#D2EEFF" width="1.151" height="13.439"/>
		<rect x="0" y="18.356" fill="#D2EEFF" width="1.151" height="1.958"/>
		<path fill="#D2EEFF" d="M0,26.472v0.962c0,1.089,0.42,2.109,1.151,2.988v-0.963v-5.015v-0.962C0.42,24.362,0,25.382,0,26.472z"/>
		<path fill="#D2EEFF" d="M1.152,19.345C0.42,20.223,0,21.243,0,22.333s0.42,2.108,1.151,2.988V19.345z"/>
		<path fill="#D2EEFF" d="M1.152,29.959c0,0,0-0.22,0-0.5c0-0.281,0.06-1.249,0.155-1.68c0.157-0.713,0.485-1.204,0.485-1.957
			c0-0.254-0.144-0.611-0.36-0.828c-0.214-0.213-0.285-0.547-0.285-0.897c0-0.351,0-0.796,0-0.796l-0.494,0.016l0.054,6.135
			L1.152,29.959z"/>
		<path opacity="0.35" enable-background="new    " d="M8.505,1.345c3.142,0,5.692,1.759,5.766,3.947
			c0.001-0.033,0.009-0.063,0.009-0.096c0-2.231-2.585-4.042-5.773-4.042c-3.187,0-5.772,1.81-5.772,4.042
			c0,0.033,0.005,0.063,0.007,0.096C2.812,3.104,5.362,1.345,8.505,1.345z"/>
		<path opacity="0.35" enable-background="new    " d="M10.989,12.059v4.58v7.157c0,0,0,3.667,0,3.815
			c0,0.145-0.048,0.266-0.107,0.38c-0.069,0.132-0.229,0.337-0.229,0.337c2.265-0.485,4.258-1.794,5.285-3.261
			c0.071-0.091,0.145-0.283,0.171-0.367c0.025-0.084,0.035-0.169,0.035-0.169v-0.736v-4.077V8.981
			C15.117,10.448,13.253,11.576,10.989,12.059z"/>
		<path opacity="0.35" enable-background="new    " d="M16.012,28.533c-0.079-0.212-0.309-0.48-0.309-0.48
			c-1.026,1.467-2.816,2.25-5.083,2.732c0,0,0.205,0.345,0.292,0.641c0.086,0.293,0.076,0.737,0.076,0.737v0.964
			c2.266-0.483,4.13-1.612,5.156-3.079c0,0,0-0.67,0-0.846C16.145,29.004,16.08,28.709,16.012,28.533z"/>
		<path opacity="0.2" fill="#FFFFFF" enable-background="new    " d="M8.123,30.341c-0.014-0.206-0.055-0.386-0.107-0.542
			c-3.613-0.159-6.549-2.047-7.146-4.494c-0.114,0.091-0.246,0.215-0.324,0.355c-0.063,0.116-0.121,0.287-0.169,0.449
			c0.578,2.684,3.792,4.756,7.741,4.885C8.133,30.813,8.14,30.596,8.123,30.341z"/>
		<path opacity="0.2" fill="#FFFFFF" enable-background="new    " d="M11.674,10.345c0.007-0.131-0.095-0.221-0.178-0.257
			c-0.088-0.038-0.233-0.097-0.508-0.024h-0.023c-0.771,0.191-1.595,0.301-2.459,0.301c-4.078,0-7.385-2.314-7.385-5.169
			c0-0.081,0.013-0.16,0.017-0.239C1.137,4.949,1.13,4.945,1.13,4.937c0-0.128-0.05-0.293-0.158-0.311
			C0.848,4.605,0.788,4.707,0.727,4.835c-0.031,0.064-0.053,0.154-0.07,0.26C0.655,5.109,0.652,5.124,0.651,5.137
			C0.648,5.152,0.648,5.168,0.646,5.184c-0.013,0.11-0.019,0.219-0.019,0.33c0,3.046,3.526,5.515,7.877,5.515
			c1.092,0,2.122-0.167,3.065-0.448C11.66,10.535,11.669,10.458,11.674,10.345z"/>
		<path fill="#FFFFFF" d="M0.546,25.66c-0.063,0.116-0.121,0.287-0.169,0.449c0.144,0.667,0.452,1.297,0.893,1.869
			c0.012-0.076,0.024-0.142,0.037-0.2C1.383,27.427,1.5,27.133,1.6,26.835c-0.344-0.476-0.599-0.989-0.729-1.531
			C0.756,25.395,0.625,25.521,0.546,25.66z"/>
		<path fill="#FFFFFF" d="M1.121,5.195c0-0.081,0.013-0.16,0.017-0.239c-0.001-0.008-0.008-0.011-0.008-0.02
			c0-0.128-0.05-0.293-0.158-0.311C0.848,4.605,0.788,4.707,0.727,4.835c-0.031,0.064-0.054,0.154-0.07,0.26
			C0.654,5.109,0.651,5.124,0.65,5.137C0.648,5.152,0.647,5.168,0.646,5.184c-0.012,0.11-0.018,0.219-0.018,0.33
			c0,0.911,0.321,1.768,0.879,2.524c0.048-0.031,0.097-0.062,0.154-0.085l0.449-0.18C1.485,7.014,1.121,6.136,1.121,5.195z"/>
	</g>
</g>
</svg>
