<?xml version="1.0" encoding="utf-8"?>
<!DOCTYPE svg PUBLIC "-//W3C//DTD SVG 1.1 Basic//EN" "http://www.w3.org/Graphics/SVG/1.1/DTD/svg11-basic.dtd">
<svg version="1.1" baseProfile="basic"
	 id="svg2" xmlns:rdf="http://www.w3.org/1999/02/22-rdf-syntax-ns#" xmlns:cc="http://creativecommons.org/ns#" xmlns:svg="http://www.w3.org/2000/svg" xmlns:dc="http://purl.org/dc/elements/1.1/"
	 xmlns="http://www.w3.org/2000/svg" xmlns:xlink="http://www.w3.org/1999/xlink" x="0px" y="0px" width="0.42917in"
	 height="0.10008in" viewBox="0 0 42.917 10.008" xml:space="preserve">
<g id="breadboard">
	<rect id="connector0pin" y="3.59" fill="#868584" width="2.5" height="2.911"/>
	<rect id="connector1pin" x="40.417" y="3.59" fill="#868584" width="2.5" height="2.911"/>
	<rect id="rect7" y="3.59" fill="#8C8C8C" width="42.917" height="2.911"/>
	<path id="Body_1_" fill="#1A1A1A" d="M13.437,0h-3c-0.655,0-0.541,10,0,10h3c0.55,0,15.45,0,16.001,0h3c0.713,0,0.771-10,0-10h-3
		C28.887,0,13.987,0,13.437,0z"/>
	<rect id="rect16" x="14.309" opacity="0.74" fill="#FFFFFF" width="2.772" height="10"/>
	<path id="Reflex_1_" opacity="0.4" fill="#FFFFFF" d="M10.843,0.5c1,0,1.594,0,2.594,0s15.001,0,16.001,0c0.041,0,0.312,0,0.676,0
		c0.779,0,1.49,0,1.824,0c0.5,0,1.594,0.5-0.5,0.5c-1.5,0-1,0-2,0S14.437,1,13.437,1s-1.594,0-2.594,0
		C10.343,1,9.843,0.5,10.843,0.5z"/>
	<path id="Shaddow_1_" opacity="0.4" d="M32.438,10c-1,0.02-2,0-3,0c-1.26,0-17.997,0-18.997,0c-0.126,0-0.286-1-0.25-1
		c1.798,0,2.246,0,3.246,0s15.001,0,16.001,0s2.32,0,3.32,0C32.791,9,32.643,9.997,32.438,10z"/>
</g>
</svg>
