<?xml version="1.0" encoding="UTF-8" standalone="no"?>
<svg
   xmlns:dc="http://purl.org/dc/elements/1.1/"
   xmlns:cc="http://creativecommons.org/ns#"
   xmlns:rdf="http://www.w3.org/1999/02/22-rdf-syntax-ns#"
   xmlns:svg="http://www.w3.org/2000/svg"
   xmlns="http://www.w3.org/2000/svg"
   version="1.2"
   baseProfile="tiny"
   x="0px"
   y="0px"
   width="0.49in"
   height="0.14in"
   xml:space="preserve"
   id="svg2"><metadata
   id="metadata23"><rdf:RDF><cc:Work
       rdf:about=""><dc:format>image/svg+xml</dc:format><dc:type
         rdf:resource="http://purl.org/dc/dcmitype/StillImage" /></cc:Work></rdf:RDF></metadata>
<g
   id="breadboard"
   style="display:inline">

<rect
   y="3.59"
   fill="#868584"
   width="2.5"
   height="2.91"
   id="connector0pin" />
<rect
   x="40.417"
   y="3.59"
   fill="#868584"
   width="2.5"
   height="2.91"
   id="connector1pin" />

<rect
   y="3.59"
   fill="#868584"
   width="42.917"
   height="2.91"
   id="rect7" />
<path
   id="Body_1_"
   fill="#D9B578"
   d="M15.347,0.414C14.847,0.186,13.987,0,13.437,0h-3c-1,0-2,1-2,2v6c0,1,1,2,2,2h3  c0.55,0,1.409-0.187,1.91-0.414l0.103-0.047c0.501-0.228,1.36-0.414,1.91-0.414h8.155c0.549,0,1.408,0.187,1.91,0.414l0.104,0.047  c0.5,0.228,1.359,0.414,1.91,0.414h3c1,0,2-1,2-2V2c0-1-1-2-2-2h-3c-0.551,0-1.41,0.186-1.91,0.413L27.425,0.46  c-0.5,0.228-1.361,0.413-1.91,0.413H17.36c-0.55,0-1.41-0.186-1.91-0.414L15.347,0.414z" />
<path
   d="M 13.62,0.006 C 13.961,0.006 14.437,0.128 14.437,0.128 L 14.437,9.872 C 14.437,9.872 13.949,9.985 13.728,9.985 C 13.507,9.985 11.437,9.999 11.437,9.999 L 11.437,0 C 11.437,0 13.279,0.006 13.62,0.006 z"
   id="stripe1"
   style="fill:#FFD500" />
<path
   d="M 17.372,0.873 C 17.789,0.873 19.437,0.874 19.437,0.874 L 19.437,9.125 C 19.437,9.125 17.664,9.125 17.351,9.125 C 17.038,9.125 16.437,9.235 16.437,9.235 L 16.437,0.761 C 16.437,0.761 16.956,0.873 17.372,0.873 z"
   id="stripe2" style="fill:#8210D2" />
<rect
   x="21.438"
   y="0.87400001"
   width="3"
   height="8.2510004"
   id="stripe3"
   style="fill:#000000" />
<rect
   x="30.114"
   opacity="0.5"
   fill="#F5E731"
   width="1.149"
   height="10"
   id="rect16" />
<path
   id="Reflex_1_"
   opacity="0.4"
   fill="#FFFFFF"
   d="M8.937,4.5c0,0,0-2,0-2.5s0.5-1.5,1.5-1.5s2,0,3,0s3,1,3.5,1s8.001,0,9.001,0  s2.5-1,3.5-1c0.042,0,0.312,0,0.676,0c0.78,0,1.991,0,2.324,0c0.5,0,1.5,0.5,1.5,1c0,1.5,0.094-0.5-2-0.5c-1.5,0-1.5,0-2.5,0  s-2.5,1-3.5,1s-8.001,0-9.001,0s-2.5-1-3.5-1s-2,0-3,0c-0.5,0-1,0.5-1,1S9.437,4,8.937,4.5z" />
<path
   id="Shaddow_1_"
   opacity="0.4"
   d="M34.438,5.5c0,0,0,2,0,2.5c0,1-1,2-2,2s-2,0-3,0c-1.259,0-2.806-0.891-3.728-0.891  c-0.5,0-7.273,0.016-8.273,0.016c-1.414,0-2.633,0.875-3.633,0.875c-0.133,0-2.88,0-3.367,0c-0.676,0-2-0.781-2-2  c0-0.09,0-0.402,0-0.5c0-1.5,0.405,1.5,2.5,1.5c1.5,0,1.5,0,2.5,0s2.5-1,3.5-1s8.001,0,9.001,0s2.5,1,3.5,1s1,0,2,0c0.5,0,2,0,2-1.5  C33.438,7,33.938,5.5,34.438,5.5z" />



  </g>
</svg>