<?xml version="1.0" encoding="utf-8"?>
<!DOCTYPE svg PUBLIC "-//W3C//DTD SVG 1.1//EN" "http://www.w3.org/Graphics/SVG/1.1/DTD/svg11.dtd">
<svg version="1.1" id="Layer_1" xmlns:svg="http://www.w3.org/2000/svg"
	 xmlns="http://www.w3.org/2000/svg" xmlns:xlink="http://www.w3.org/1999/xlink" x="0px" y="0px" width="0.28346in"
	 height="0.61021in" viewBox="0 0 28.346 61.021" enable-background="new 0 0 28.346 61.021" xml:space="preserve">
<rect id="connector0terminal" x="7.721" y="57.881" fill="#8C8C8C" width="3" height="3.14"/>
<rect id="connector1terminal" x="17.721" y="57.881" fill="#8C8C8C" width="3" height="3.14"/>
<rect id="connector1pin" x="17.721" y="53.946" fill="#8C8C8C" width="3" height="7.075"/>
<rect id="connector0pin" x="7.721" y="53.946" fill="#8C8C8C" width="3" height="7.075"/>
<g id="breadboard">
	<g>
		<rect id="connector0pin_3_" x="8.226" y="53.969" fill="#8C8C8C" width="1.552" height="5.014"/>
		<rect id="connector1pin_3_" x="18.57" y="53.969" fill="#8C8C8C" width="1.551" height="5.014"/>
		<rect x="7.721" y="48.641" fill="#8C8C8C" width="3" height="10.342"/>
		<rect x="17.721" y="48.641" fill="#8C8C8C" width="3" height="10.342"/>
		<ellipse fill="#0D0033" cx="14.174" cy="44.024" rx="14.172" ry="9.921"/>
		<rect x="0" y="42.002" fill="#0D0033" width="28.335" height="2.023"/>
		<ellipse fill="#100040" cx="14.174" cy="42.418" rx="14.172" ry="9.921"/>
		<ellipse fill="#0D0033" cx="14.174" cy="35.522" rx="14.172" ry="9.921"/>
		<rect x="0" y="10.071" fill="#0D0033" width="28.345" height="25.451"/>
		<ellipse fill="#0D0033" cx="14.174" cy="10.071" rx="14.172" ry="9.921"/>
		<ellipse fill="#100040" cx="14.174" cy="9.192" rx="13.128" ry="9.191"/>
		<ellipse fill="#B2B2B2" cx="14.174" cy="8.66" rx="9.621" ry="6.736"/>
		<path fill="#D2EEFF" d="M2.768,4.182C1.031,5.828,0,7.866,0,10.071v5.481h1.896v-0.529l0.022-0.198c0,0,0,0.103,0-0.267
			c0-0.664,0.315-1.09,0.849-1.303c0.515-0.203,0.476-3.832,0.476-3.832L2.768,4.182z"/>
		<path fill="#D2EEFF" d="M4.554,8.66c0-1.194,0.447-2.313,1.225-3.285l-3.01-1.198C1.676,5.515,1.046,7.062,1.046,8.715
			c0,1.652,0.631,3.199,1.722,4.54l3.082-1.227C5.03,11.037,4.554,9.889,4.554,8.66z"/>
		<rect x="0" y="14.825" fill="#D2EEFF" width="1.918" height="20.697"/>
		<rect x="0" y="28.894" fill="#D2EEFF" width="1.918" height="3.263"/>
		<path fill="#D2EEFF" d="M0,42.419v1.604c0,1.816,0.699,3.515,1.918,4.98V47.4v-8.359v-1.604C0.7,38.904,0,40.604,0,42.419z"/>
		<path fill="#D2EEFF" d="M1.919,30.542C0.7,32.004,0,33.705,0,35.522s0.699,3.514,1.918,4.98V30.542z"/>
		<path fill="#D2EEFF" d="M1.919,48.232c0,0,0-0.366,0-0.833c0-0.469,0.1-2.082,0.258-2.801c0.261-1.188,0.808-2.005,0.808-3.26
			c0-0.424-0.24-1.02-0.6-1.38c-0.357-0.355-0.476-0.912-0.476-1.496c0-0.585,0-1.327,0-1.327l-0.822,0.026l0.09,10.226
			L1.919,48.232z"/>
		<path opacity="0.35" enable-background="new    " d="M14.174,2.242c5.238,0,9.487,2.932,9.609,6.578
			c0.002-0.054,0.015-0.106,0.015-0.16c0-3.719-4.309-6.736-9.622-6.736c-5.312,0-9.62,3.017-9.62,6.736
			c0,0.054,0.009,0.106,0.012,0.16C4.687,5.174,8.937,2.242,14.174,2.242z"/>
		<path opacity="0.35" enable-background="new    " d="M18.313,20.099v5.933V37.96c0,0,0,6.113,0,6.358
			c0,0.242-0.08,0.443-0.178,0.633c-0.116,0.221-0.382,0.562-0.382,0.562c3.775-0.808,7.097-2.99,8.809-5.435
			c0.118-0.151,0.241-0.472,0.284-0.611c0.043-0.141,0.058-0.282,0.058-0.282V37.96v-6.795V14.969
			C25.195,17.415,22.088,19.293,18.313,20.099z"/>
		<path opacity="0.35" enable-background="new    " d="M26.686,45.856c-0.131-0.354-0.515-0.8-0.515-0.8
			c-1.709,2.445-4.693,3.749-8.471,4.554c0,0,0.341,0.575,0.488,1.067c0.143,0.489,0.125,1.229,0.125,1.229v1.606
			c3.776-0.805,6.884-2.686,8.593-5.132c0,0,0-1.118,0-1.41C26.908,46.641,26.799,46.148,26.686,45.856z"/>
		<path opacity="0.2" fill="#FFFFFF" enable-background="new    " d="M13.538,48.869c-0.023-0.343-0.091-0.644-0.178-0.903
			c-6.021-0.264-10.915-3.412-11.91-7.491c-0.19,0.152-0.409,0.358-0.541,0.592c-0.106,0.192-0.201,0.478-0.282,0.747
			c0.963,4.474,6.32,7.928,12.901,8.142C13.555,49.655,13.566,49.293,13.538,48.869z"/>
		<path opacity="0.2" fill="#FFFFFF" enable-background="new    " d="M19.456,17.243c0.011-0.219-0.159-0.368-0.298-0.428
			c-0.146-0.063-0.389-0.162-0.846-0.041h-0.039c-1.285,0.319-2.659,0.501-4.1,0.501c-6.796,0-12.307-3.858-12.307-8.615
			c0-0.134,0.021-0.266,0.028-0.397C1.894,8.249,1.883,8.243,1.883,8.229c0-0.213-0.083-0.488-0.264-0.517
			C1.413,7.677,1.312,7.846,1.21,8.06C1.16,8.167,1.122,8.317,1.094,8.494c-0.002,0.023-0.008,0.047-0.01,0.069
			C1.08,8.587,1.079,8.615,1.077,8.64C1.056,8.823,1.044,9.005,1.044,9.19c0,5.077,5.878,9.192,13.129,9.192
			c1.819,0,3.537-0.28,5.108-0.748C19.432,17.559,19.447,17.431,19.456,17.243z"/>
		<path fill="#FFFFFF" d="M0.909,41.067c-0.106,0.192-0.201,0.478-0.282,0.747c0.239,1.112,0.752,2.163,1.487,3.116
			c0.02-0.126,0.04-0.236,0.062-0.334c0.128-0.583,0.323-1.075,0.49-1.571c-0.574-0.793-0.998-1.649-1.215-2.551
			C1.259,40.625,1.041,40.835,0.909,41.067z"/>
		<path fill="#FFFFFF" d="M1.867,8.66c0-0.134,0.021-0.266,0.028-0.397C1.893,8.249,1.881,8.243,1.881,8.229
			c0-0.213-0.083-0.488-0.263-0.517C1.413,7.677,1.312,7.846,1.21,8.06C1.159,8.167,1.121,8.317,1.094,8.494
			C1.09,8.517,1.085,8.541,1.083,8.562C1.079,8.587,1.078,8.615,1.075,8.64c-0.02,0.183-0.031,0.365-0.031,0.55
			c0,1.519,0.536,2.947,1.465,4.208c0.08-0.052,0.161-0.105,0.257-0.143l0.749-0.299C2.474,11.691,1.867,10.227,1.867,8.66z"/>
	</g>
</g>
</svg>
