<?xml version="1.0" encoding="utf-8"?>
<!DOCTYPE svg PUBLIC "-//W3C//DTD SVG 1.1//EN" "http://www.w3.org/Graphics/SVG/1.1/DTD/svg11.dtd">
<svg version="1.1" id="Layer_1" xmlns:svg="http://www.w3.org/2000/svg"
	 xmlns="http://www.w3.org/2000/svg" xmlns:xlink="http://www.w3.org/1999/xlink" x="0px" y="0px" width="0.33in" height="0.15182in"
	 viewBox="0 0 33 15.182" enable-background="new 0 0 33 15.182" xml:space="preserve">
<rect id="connector0pin" y="11.737" fill="#B3B3B3" width="3" height="3.142"/>
<rect id="connector1pin" x="30" y="11.737" fill="#B3B3B3" width="3" height="3.142"/>
<g id="breadboard">
	<g>
		<path fill="#8C8C8C" d="M30,14.879v-4.812c-0.006-0.517-0.131-0.717-0.228-0.815l0,0c-0.099-0.095-0.297-0.238-0.897-0.248l0,0
			H3.814c-0.34,0-0.557,0.046-0.646,0.079l0,0C3.086,9.104,3.103,9.116,3.099,9.112l0,0c0.002,0-0.012,0.016-0.035,0.084l0,0
			c-0.03,0.091-0.065,0.278-0.065,0.559l0,0v5.124h0.002H0V9.755c-0.004-0.974,0.216-2.011,0.998-2.78l0,0
			c0.788-0.764,1.816-0.972,2.815-0.97l0,0h25.062c1.146-0.008,2.263,0.35,3.039,1.146l0,0c0.777,0.791,1.09,1.869,1.084,2.92l0,0
			L33,14.881L30,14.879L30,14.879z"/>
		<path d="M6.361,7.59c0,3.025,1.332,5.732,3.435,7.592h13.41c2.103-1.857,3.435-4.564,3.435-7.592c0-3.023-1.332-5.731-3.435-7.59
			H9.795C7.693,1.857,6.361,4.565,6.361,7.59z"/>
		<rect x="9.795" y="0" width="13.411" height="15.182"/>
		<path fill="#CCCCCC" d="M23.227,14.315c0,0-3.26,0.312-6.727,0.312c-3.467,0-6.728-0.312-6.728-0.312S9.461,11.058,9.461,7.59
			c0-3.467,0.312-6.727,0.312-6.727s3.261-0.312,6.728-0.312c3.466,0,6.727,0.312,6.727,0.312s0.312,3.26,0.312,6.727
			C23.54,11.058,23.227,14.315,23.227,14.315z"/>
		<path fill="#8F0000" d="M22.497,1.889l-0.043-0.252l-0.252-0.043C22.176,1.59,19.465,1.145,16.5,1.145
			c-1.541,0-3.004,0.12-3.959,0.221c-0.961,0.102-1.461,0.158-1.73,0.227c-0.08,0.001-0.146,0.017-0.201,0.07
			c-0.086,0.052-0.104,0.117-0.107,0.205c-0.083,0.26-0.151,0.763-0.249,1.753c-0.074,0.749-0.197,2.263-0.197,3.971
			c0,2.967,0.445,5.678,0.449,5.702l0.043,0.252l0.251,0.042c0.026,0.005,2.737,0.45,5.702,0.45c2.965,0,5.676-0.445,5.702-0.45
			l0.252-0.042l0.043-0.252c0.004-0.024,0.447-2.735,0.447-5.702C22.946,4.626,22.5,1.915,22.497,1.889z M11.17,12.922
			c-0.107-0.729-0.402-2.943-0.402-5.331c0-2.499,0.262-4.697,0.376-5.331c0.254-0.038,0.732-0.104,1.339-0.169
			c-0.01,0.059-0.026,0.108-0.026,0.173c0,0.424,0.262,1.14,0.292,1.22c0.062,0.165,0.232,0.261,0.406,0.225
			c0.017-0.003,1.607-0.326,3.347-0.326c1.651,0,3.157,0.289,3.315,0.32c0.004,0.006,0.016,0.027,0.016,0.084
			c0,0.145-0.066,0.375-0.139,0.578c-0.395-0.068-1.136-0.174-1.99-0.174c-1.232,0-2.411,0.219-2.46,0.229
			c-0.104,0.021-0.192,0.084-0.244,0.175c-0.023,0.042-0.143,0.272-0.143,0.715c0,0.399,0.099,0.918,0.103,0.938
			c0.018,0.094,0.071,0.176,0.149,0.229c0.079,0.055,0.177,0.073,0.271,0.055c0.005,0,0.54-0.104,1.123-0.104
			c0.361,0,0.688,0.039,0.898,0.068c0.019,0.092,0.03,0.205,0.03,0.336c0,0.142-0.016,0.283-0.034,0.402H16.5h-1.192
			c-0.165,0-0.308,0.113-0.347,0.271c-0.004,0.02-0.105,0.438-0.105,0.848c0,0.418,0.104,0.729,0.114,0.766
			c0.041,0.119,0.144,0.209,0.269,0.234c0.025,0.004,0.606,0.117,1.261,0.117c0.343,0,0.661-0.028,0.894-0.062
			c0.021,0.147,0.036,0.317,0.036,0.466c0,0.103-0.012,0.165-0.021,0.226c-0.389,0.062-1.244,0.18-2.109,0.18
			c-1.156,0-2.131-0.211-2.141-0.213c-0.138-0.03-0.277,0.021-0.361,0.134c-0.033,0.044-0.326,0.446-0.326,0.923
			c0,0.479,0.294,0.875,0.328,0.919c0.052,0.067,0.127,0.115,0.211,0.133c0.067,0.016,1.676,0.342,3.49,0.342
			c1.369,0,2.617-0.187,3.18-0.283c0.075,0.246,0.151,0.533,0.151,0.688c0,0.115-0.045,0.192-0.084,0.248
			c-0.938,0.086-2.069,0.157-3.248,0.157C14.113,13.323,11.898,13.028,11.17,12.922z M21.831,12.922
			c-0.266,0.039-0.725,0.104-1.312,0.166c0.01-0.057,0.027-0.104,0.027-0.17c0-0.423-0.262-1.14-0.293-1.219
			c-0.062-0.166-0.232-0.263-0.406-0.226C19.831,11.476,18.239,11.8,16.5,11.8c-1.447,0-2.779-0.223-3.199-0.299
			c-0.055-0.1-0.115-0.244-0.115-0.381c0-0.106,0.036-0.217,0.078-0.311c0.382,0.066,1.147,0.182,2.035,0.182
			c1.231,0,2.411-0.221,2.459-0.229c0.104-0.021,0.193-0.086,0.244-0.177c0.022-0.042,0.143-0.271,0.143-0.715
			c0-0.399-0.098-0.917-0.102-0.938c-0.02-0.096-0.072-0.178-0.15-0.229c-0.079-0.054-0.176-0.073-0.27-0.056
			C17.618,8.65,17.083,8.752,16.5,8.752c-0.362,0-0.689-0.039-0.899-0.068c-0.017-0.092-0.03-0.203-0.03-0.334
			c0-0.143,0.017-0.283,0.034-0.404H16.5h1.191c0.165,0,0.31-0.113,0.349-0.272c0.004-0.018,0.104-0.437,0.104-0.845
			c0-0.419-0.104-0.729-0.114-0.766c-0.041-0.121-0.144-0.21-0.269-0.234c-0.025-0.006-0.606-0.119-1.262-0.119
			c-0.344,0-0.66,0.031-0.895,0.062c-0.019-0.148-0.036-0.318-0.036-0.466c0-0.103,0.012-0.164,0.021-0.226
			c0.389-0.061,1.244-0.18,2.109-0.18c1.155,0,2.132,0.213,2.142,0.215c0.166,0.037,0.334-0.049,0.402-0.205
			c0.029-0.069,0.301-0.693,0.301-1.127c0-0.523-0.363-0.737-0.557-0.777c-0.066-0.014-1.676-0.341-3.489-0.341
			c-1.368,0-2.617,0.188-3.181,0.284c-0.075-0.247-0.15-0.532-0.15-0.688c0-0.113,0.043-0.191,0.083-0.246
			c0.945-0.087,2.08-0.157,3.248-0.157c2.387,0,4.602,0.294,5.331,0.4c0.105,0.729,0.4,2.944,0.4,5.331
			C22.23,9.978,21.938,12.192,21.831,12.922z"/>
		<circle fill="#8C8C8C" cx="8.541" cy="7.592" r="1.916"/>
		<circle fill="#8C8C8C" cx="24.459" cy="7.59" r="1.916"/>
		<path opacity="0.2" enable-background="new    " d="M23.206,0H9.795C7.693,1.857,6.361,4.565,6.361,7.59
			c0,3.025,1.332,5.732,3.435,7.592h13.41c2.103-1.857,3.435-4.564,3.435-7.592C26.639,4.565,25.307,1.857,23.206,0z M16.089,13.418
			c-3.452,0-6.251-2.799-6.251-6.25c0-3.452,2.799-6.251,6.251-6.251c3.453,0,6.251,2.799,6.251,6.251
			C22.34,10.619,19.542,13.418,16.089,13.418z"/>
		<circle opacity="0.8" fill="#FFFFFF" enable-background="new    " cx="13.99" cy="4.719" r="1.625"/>
	</g>
</g>
</svg>
