<?xml version="1.0" encoding="utf-8"?>
<!DOCTYPE svg PUBLIC "-//W3C//DTD SVG 1.1//EN" "http://www.w3.org/Graphics/SVG/1.1/DTD/svg11.dtd">
<svg version="1.1"
	 id="svg2" xmlns:rdf="http://www.w3.org/1999/02/22-rdf-syntax-ns#" xmlns:svg="http://www.w3.org/2000/svg" xmlns:dc="http://purl.org/dc/elements/1.1/" xmlns:cc="http://creativecommons.org/ns#"
	 xmlns="http://www.w3.org/2000/svg" xmlns:xlink="http://www.w3.org/1999/xlink" x="0px" y="0px" width="0.32984in"
	 height="0.09866in" viewBox="0 0 32.984 9.866" enable-background="new 0 0 32.984 9.866" xml:space="preserve">
<rect id="connector0pin" x="29.841" y="3.387" fill="#B3B3B3" width="3.143" height="2.998"/>
<rect id="connector1pin" y="3.429" fill="#B3B3B3" width="3.14" height="2.999"/>
<polygon id="polygon13" fill="#8C8C8C" points="21.49,3.304 32.981,3.304 32.981,6.52 21.49,6.52 "/>
<polygon id="polygon17" fill="#8C8C8C" points="0.001,3.305 11.494,3.305 11.494,6.522 0.001,6.522 "/>
<g>
	<path id="path21_8_" fill="#474747" d="M5.631,9.867c-1.101,0-1.521-0.391-1.522-0.868V3.687C4.104,3.208,4.465,2.818,5.566,2.818
		h21.593c1.101,0,1.467,0.393,1.471,0.869v5.312c0.004,0.479-0.374,0.866-1.47,0.866L5.631,9.867L5.631,9.867z"/>
	<path id="path21_7_" fill="#666666" d="M5.631,8.351c-1.101,0-1.521-0.391-1.522-0.868V0.87C4.104,0.391,4.465,0,5.566,0h21.593
		c1.101,0,1.467,0.393,1.471,0.869v6.613c0.004,0.479-0.374,0.866-1.47,0.866L5.631,8.351L5.631,8.351z"/>
	<path id="path21_6_" fill="#C4C4C4" d="M11.102,7.05c-0.819,0-1.157-0.291-1.16-0.646V2.25c-0.004-0.354,0.267-0.647,1.085-0.647
		h10.672c0.819,0,1.092,0.293,1.095,0.647v4.156c0.003,0.354-0.353,0.646-1.168,0.646L11.102,7.05L11.102,7.05z"/>
	<path id="path21_5_" fill="#EDEDED" d="M11.102,5.89c-0.819,0-1.157-0.291-1.16-0.646V1.389c-0.004-0.354,0.267-0.646,1.085-0.646
		h10.672c0.819,0,1.092,0.292,1.095,0.646v3.855c0.003,0.354-0.353,0.646-1.168,0.646L11.102,5.89L11.102,5.89z"/>
	<g>
		<ellipse cx="6.863" cy="4.165" rx="0.898" ry="0.677"/>
		<ellipse cx="25.801" cy="4.165" rx="0.9" ry="0.677"/>
	</g>
	<path id="path21_10_" fill="none" stroke="#333333" stroke-width="0.4" d="M23.008,2.433V6.44c0.003,0.354-0.353,0.795-1.168,0.795
		H10.885c-0.817,0-1.155-0.439-1.158-0.797V2.433"/>
</g>
</svg>
