<?xml version="1.0" encoding="utf-8"?>
<!DOCTYPE svg PUBLIC "-//W3C//DTD SVG 1.1//EN" "http://www.w3.org/Graphics/SVG/1.1/DTD/svg11.dtd">
<svg version="1.1" id="Layer_1" xmlns:svg="http://www.w3.org/2000/svg"
	 xmlns="http://www.w3.org/2000/svg" xmlns:xlink="http://www.w3.org/1999/xlink" x="0px" y="0px" width="0.22676in"
	 height="0.4734in" viewBox="0 0 22.676 47.34" enable-background="new 0 0 22.676 47.34" xml:space="preserve">
<rect id="connector0terminal" x="4.886" y="44.2" fill="#8C8C8C" width="3" height="3.14"/>
<rect id="connector1terminal" x="14.886" y="44.2" fill="#8C8C8C" width="3" height="3.14"/>
<rect id="connector1pin" x="14.886" y="40.265" fill="#8C8C8C" width="3" height="7.075"/>
<rect id="connector0pin" x="4.886" y="40.265" fill="#8C8C8C" width="3" height="7.075"/>
<g id="breadboard">
	<g>
		<rect id="connector0pin_3_" x="5.391" y="40.288" fill="#8C8C8C" width="1.552" height="5.014"/>
		<rect id="connector1pin_3_" x="15.735" y="40.288" fill="#8C8C8C" width="1.551" height="5.014"/>
		<rect x="4.886" y="34.96" fill="#8C8C8C" width="3" height="10.342"/>
		<rect x="14.886" y="34.96" fill="#8C8C8C" width="3" height="10.342"/>
		<ellipse fill="#0D0033" cx="11.339" cy="32.327" rx="11.337" ry="7.937"/>
		<rect y="30.71" fill="#0D0033" width="22.668" height="1.619"/>
		<ellipse fill="#100040" cx="11.339" cy="31.043" rx="11.337" ry="7.937"/>
		<ellipse fill="#0D0033" cx="11.339" cy="25.526" rx="11.337" ry="7.937"/>
		<rect y="8.056" fill="#0D0033" width="22.676" height="17.468"/>
		<ellipse fill="#0D0033" cx="11.339" cy="8.056" rx="11.337" ry="7.937"/>
		<ellipse fill="#100040" cx="11.339" cy="7.353" rx="10.501" ry="7.353"/>
		<ellipse fill="#B2B2B2" cx="11.339" cy="6.927" rx="7.697" ry="5.389"/>
		<path fill="#D2EEFF" d="M2.214,3.345C0.824,4.662,0,6.292,0,8.056v4.385h1.517v-0.423l0.018-0.159c0,0,0,0.083,0-0.214
			c0-0.531,0.252-0.872,0.68-1.042c0.411-0.162,0.38-3.065,0.38-3.065L2.214,3.345z"/>
		<path fill="#D2EEFF" d="M3.643,6.928C3.643,5.972,4,5.077,4.623,4.3L2.215,3.342c-0.874,1.07-1.378,2.309-1.378,3.63
			c0,1.321,0.505,2.56,1.378,3.632L4.68,9.623C4.023,8.829,3.643,7.91,3.643,6.928z"/>
		<rect y="11.859" fill="#D2EEFF" width="1.535" height="13.667"/>
		<rect y="20.223" fill="#D2EEFF" width="1.535" height="2.61"/>
		<path fill="#D2EEFF" d="M0,31.044v1.283c0,1.453,0.56,2.812,1.535,3.984v-1.283V28.34v-1.283C0.56,28.231,0,29.591,0,31.044z"/>
		<path fill="#D2EEFF" d="M1.535,21.542C0.56,22.712,0,24.072,0,25.526c0,1.453,0.56,2.811,1.535,3.983V21.542z"/>
		<path fill="#D2EEFF" d="M1.535,35.694c0,0,0-0.293,0-0.666c0-0.375,0.08-1.666,0.207-2.242c0.208-0.949,0.646-1.604,0.646-2.607
			c0-0.339-0.192-0.816-0.479-1.104c-0.286-0.285-0.381-0.73-0.381-1.197c0-0.469,0-1.062,0-1.062L0.87,26.837l0.072,8.181
			L1.535,35.694z"/>
		<path opacity="0.35" enable-background="new    " d="M11.339,1.793c4.19,0,7.59,2.346,7.688,5.262
			c0.002-0.043,0.013-0.085,0.013-0.128c0-2.976-3.449-5.389-7.699-5.389c-4.249,0-7.696,2.414-7.696,5.389
			c0,0.043,0.007,0.084,0.01,0.128C3.749,4.139,7.149,1.793,11.339,1.793z"/>
		<path opacity="0.35" enable-background="new    " d="M14.651,16.08v1.854v9.542c0,0,0,4.892,0,5.086
			c0,0.193-0.064,0.354-0.143,0.507c-0.094,0.178-0.305,0.45-0.305,0.45c3.02-0.646,5.676-2.392,7.047-4.348
			c0.094-0.122,0.191-0.378,0.227-0.489c0.034-0.113,0.046-0.227,0.046-0.227v-0.98v-5.435V11.974
			C20.156,13.931,17.67,15.434,14.651,16.08z"/>
		<path opacity="0.35" enable-background="new    " d="M21.348,33.793c-0.105-0.283-0.412-0.64-0.412-0.64
			c-1.368,1.955-3.754,3-6.775,3.643c0,0,0.271,0.46,0.389,0.854c0.115,0.391,0.102,0.983,0.102,0.983v1.285
			c3.021-0.645,5.508-2.149,6.874-4.105c0,0,0-0.894,0-1.128C21.526,34.421,21.439,34.026,21.348,33.793z"/>
		<path opacity="0.2" fill="#FFFFFF" enable-background="new    " d="M10.83,36.202c-0.019-0.273-0.073-0.515-0.143-0.723
			c-4.816-0.211-8.732-2.729-9.528-5.992c-0.152,0.121-0.328,0.286-0.433,0.474c-0.084,0.153-0.161,0.382-0.226,0.598
			c0.771,3.579,5.058,6.343,10.322,6.515C10.843,36.831,10.853,36.543,10.83,36.202z"/>
		<path opacity="0.2" fill="#FFFFFF" enable-background="new    " d="M15.564,13.794c0.009-0.175-0.127-0.294-0.237-0.343
			c-0.117-0.05-0.312-0.129-0.677-0.033h-0.03c-1.029,0.255-2.127,0.401-3.281,0.401c-5.437,0-9.846-3.086-9.846-6.892
			c0-0.108,0.017-0.213,0.023-0.318c-0.001-0.011-0.01-0.015-0.01-0.026c0-0.171-0.067-0.39-0.21-0.414
			C1.13,6.141,1.05,6.276,0.968,6.448C0.927,6.533,0.897,6.654,0.875,6.795C0.873,6.814,0.869,6.833,0.867,6.85
			C0.864,6.87,0.863,6.892,0.861,6.912c-0.017,0.147-0.025,0.292-0.025,0.44c0,4.061,4.702,7.353,10.503,7.353
			c1.457,0,2.83-0.224,4.085-0.598C15.545,14.047,15.558,13.945,15.564,13.794z"/>
		<path fill="#FFFFFF" d="M0.727,29.962c-0.084,0.154-0.161,0.382-0.226,0.598c0.191,0.891,0.603,1.73,1.19,2.492
			c0.016-0.102,0.032-0.189,0.05-0.268C1.843,32.317,2,31.926,2.132,31.528c-0.458-0.634-0.798-1.318-0.972-2.041
			C1.007,29.608,0.833,29.776,0.727,29.962z"/>
		<path fill="#FFFFFF" d="M1.493,6.928c0-0.108,0.017-0.213,0.023-0.318C1.514,6.599,1.505,6.595,1.505,6.584
			c0-0.171-0.067-0.39-0.21-0.414C1.13,6.141,1.05,6.276,0.968,6.448C0.926,6.533,0.896,6.654,0.875,6.795
			C0.872,6.814,0.868,6.833,0.866,6.85C0.863,6.87,0.862,6.892,0.86,6.912c-0.016,0.147-0.024,0.292-0.024,0.44
			c0,1.215,0.429,2.357,1.172,3.366c0.064-0.042,0.129-0.084,0.206-0.114l0.599-0.239C1.979,9.352,1.493,8.181,1.493,6.928z"/>
	</g>
</g>
</svg>
