<?xml version="1.0" encoding="utf-8"?>
<!DOCTYPE svg PUBLIC "-//W3C//DTD SVG 1.1//EN" "http://www.w3.org/Graphics/SVG/1.1/DTD/svg11.dtd">
<svg version="1.1" id="Layer_1" xmlns:svg="http://www.w3.org/2000/svg"
	 xmlns="http://www.w3.org/2000/svg" xmlns:xlink="http://www.w3.org/1999/xlink" x="0px" y="0px" width="0.3685in"
	 height="0.74879in" viewBox="0 0 36.85 74.879" enable-background="new 0 0 36.85 74.879" xml:space="preserve">
<rect id="connector0terminal" x="11.973" y="71.739" fill="#8C8C8C" width="3" height="3.14"/>
<rect id="connector1terminal" x="21.973" y="71.739" fill="#8C8C8C" width="3" height="3.14"/>
<rect id="connector1pin" x="21.973" y="67.804" fill="#8C8C8C" width="3" height="7.075"/>
<rect id="connector0pin" x="11.973" y="67.804" fill="#8C8C8C" width="3" height="7.075"/>
<g id="breadboard">
	<g>
		<rect id="connector0pin_3_" x="12.478" y="67.827" fill="#8C8C8C" width="1.552" height="5.014"/>
		<rect id="connector1pin_3_" x="22.822" y="67.827" fill="#8C8C8C" width="1.551" height="5.014"/>
		<rect x="11.973" y="62.499" fill="#8C8C8C" width="3" height="10.342"/>
		<rect x="21.973" y="62.499" fill="#8C8C8C" width="3" height="10.342"/>
		<ellipse fill="#0D0033" cx="18.427" cy="54.906" rx="18.424" ry="12.897"/>
		<rect x="0" y="52.277" fill="#0D0033" width="36.836" height="2.63"/>
		<ellipse fill="#100040" cx="18.427" cy="52.818" rx="18.424" ry="12.898"/>
		<ellipse fill="#0D0033" cx="18.427" cy="43.853" rx="18.424" ry="12.898"/>
		<rect x="0" y="13.091" fill="#0D0033" width="36.849" height="30.762"/>
		<ellipse fill="#0D0033" cx="18.427" cy="13.091" rx="18.424" ry="12.897"/>
		<ellipse fill="#100040" cx="18.427" cy="11.948" rx="17.066" ry="11.948"/>
		<ellipse fill="#B2B2B2" cx="18.427" cy="11.257" rx="12.507" ry="8.757"/>
		<path fill="#D2EEFF" d="M3.599,5.436C1.34,7.575,0,10.225,0,13.091v7.125h2.465v-0.688l0.029-0.258c0,0,0,0.134,0-0.347
			c0-0.862,0.41-1.417,1.104-1.693c0.669-0.264,0.619-4.981,0.619-4.981L3.599,5.436z"/>
		<path fill="#D2EEFF" d="M5.92,11.257c0-1.553,0.581-3.008,1.592-4.271L3.599,5.429c-1.42,1.74-2.239,3.751-2.239,5.9
			c0,2.147,0.821,4.159,2.239,5.901l4.006-1.594C6.539,14.348,5.92,12.854,5.92,11.257z"/>
		<rect x="0" y="19.271" fill="#D2EEFF" width="2.494" height="24.582"/>
		<rect x="0" y="35.236" fill="#D2EEFF" width="2.494" height="4.242"/>
		<path fill="#D2EEFF" d="M0,52.82v2.086c0,2.36,0.909,4.57,2.494,6.475v-2.086V48.428v-2.085C0.909,48.25,0,50.459,0,52.82z"/>
		<path fill="#D2EEFF" d="M2.494,37.379C0.909,39.281,0,41.491,0,43.853c0,2.363,0.909,4.568,2.494,6.475V37.379z"/>
		<path fill="#D2EEFF" d="M2.494,60.376c0,0,0-0.476,0-1.082c0-0.61,0.13-2.707,0.336-3.642c0.339-1.544,1.05-2.607,1.05-4.238
			c0-0.551-0.312-1.325-0.779-1.794c-0.464-0.462-0.618-1.186-0.618-1.944c0-0.76,0-1.726,0-1.726l-1.069,0.034l0.117,13.293
			L2.494,60.376z"/>
		<path opacity="0.35" enable-background="new    " d="M18.427,2.914c6.809,0,12.333,3.812,12.492,8.551
			c0.003-0.07,0.02-0.137,0.02-0.208c0-4.835-5.602-8.757-12.509-8.757c-6.905,0-12.505,3.922-12.505,8.757
			c0,0.07,0.011,0.137,0.016,0.208C6.092,6.726,11.617,2.914,18.427,2.914z"/>
		<path opacity="0.35" enable-background="new    " d="M23.808,26.128v5.388v15.506c0,0,0,7.947,0,8.266
			c0,0.314-0.104,0.576-0.232,0.823c-0.151,0.288-0.497,0.731-0.497,0.731c4.907-1.05,9.226-3.887,11.451-7.065
			c0.153-0.197,0.313-0.614,0.37-0.794c0.056-0.184,0.075-0.367,0.075-0.367v-1.594v-8.834v-18.73
			C32.753,22.639,28.715,25.081,23.808,26.128z"/>
		<path opacity="0.35" enable-background="new    " d="M34.691,57.287c-0.171-0.459-0.669-1.04-0.669-1.04
			c-2.223,3.178-6.102,4.874-11.012,5.92c0,0,0.443,0.748,0.634,1.388c0.186,0.635,0.164,1.598,0.164,1.598v2.088
			c4.909-1.046,8.949-3.492,11.17-6.671c0,0,0-1.453,0-1.834C34.979,58.307,34.839,57.667,34.691,57.287z"/>
		<path opacity="0.2" fill="#FFFFFF" enable-background="new    " d="M17.599,61.204c-0.031-0.445-0.119-0.836-0.232-1.174
			C9.54,59.687,3.177,55.595,1.884,50.292c-0.248,0.197-0.532,0.466-0.703,0.77c-0.138,0.25-0.262,0.622-0.366,0.972
			c1.252,5.815,8.216,10.305,16.771,10.583C17.621,62.227,17.636,61.756,17.599,61.204z"/>
		<path opacity="0.2" fill="#FFFFFF" enable-background="new    " d="M25.292,22.415c0.015-0.285-0.206-0.479-0.387-0.557
			c-0.191-0.082-0.506-0.21-1.1-0.053h-0.05c-1.671,0.414-3.457,0.652-5.329,0.652c-8.835,0-16-5.015-16-11.199
			c0-0.175,0.027-0.346,0.037-0.518c-0.001-0.017-0.017-0.024-0.017-0.043c0-0.277-0.108-0.634-0.342-0.672
			c-0.269-0.045-0.398,0.175-0.531,0.453c-0.066,0.139-0.115,0.334-0.152,0.563c-0.003,0.031-0.01,0.061-0.013,0.09
			c-0.005,0.032-0.006,0.069-0.009,0.101c-0.027,0.238-0.042,0.475-0.042,0.715c0,6.6,7.641,11.949,17.067,11.949
			c2.365,0,4.598-0.363,6.641-0.972C25.261,22.826,25.282,22.66,25.292,22.415z"/>
		<path fill="#FFFFFF" d="M1.181,51.062c-0.138,0.25-0.262,0.622-0.366,0.972c0.311,1.446,0.978,2.811,1.933,4.05
			C2.774,55.92,2.8,55.776,2.829,55.65c0.167-0.759,0.42-1.397,0.637-2.042c-0.746-1.031-1.297-2.144-1.58-3.317
			C1.636,50.488,1.353,50.76,1.181,51.062z"/>
		<path fill="#FFFFFF" d="M2.427,11.257c0-0.175,0.027-0.346,0.037-0.518c-0.003-0.017-0.018-0.024-0.018-0.043
			c0-0.277-0.109-0.634-0.342-0.672c-0.268-0.045-0.397,0.175-0.53,0.453c-0.067,0.139-0.117,0.334-0.152,0.563
			c-0.005,0.031-0.012,0.061-0.015,0.09c-0.005,0.032-0.006,0.069-0.009,0.101c-0.026,0.238-0.04,0.475-0.04,0.715
			c0,1.975,0.696,3.831,1.905,5.469c0.104-0.067,0.209-0.136,0.334-0.185l0.973-0.389C3.216,15.198,2.427,13.295,2.427,11.257z"/>
	</g>
</g>
</svg>
