<?xml version="1.0" encoding="utf-8"?>
<!DOCTYPE svg PUBLIC "-//W3C//DTD SVG 1.1//EN" "http://www.w3.org/Graphics/SVG/1.1/DTD/svg11.dtd">
<svg version="1.1" id="Layer_1" xmlns:svg="http://www.w3.org/2000/svg"
	 xmlns="http://www.w3.org/2000/svg" xmlns:xlink="http://www.w3.org/1999/xlink" x="0px" y="0px" width="0.51024in"
	 height="0.112907in" viewBox="0 0 51.024 112.907" enable-background="new 0 0 51.024 112.907" xml:space="preserve">
<rect id="connector0terminal" x="19.059" y="109.767" fill="#B3B3B3" width="3" height="3.14"/>
<rect id="connector1terminal" x="29.059" y="109.767" fill="#B3B3B3" width="3" height="3.14"/>
<rect id="connector1pin" x="29.059" y="105.832" fill="#B3B3B3" width="3" height="7.075"/>
<rect id="connector0pin" x="19.059" y="105.832" fill="#B3B3B3" width="3" height="7.075"/>
<g id="breadboard">
	<g>
		<rect id="connector0pin_3_" x="19.564" y="105.855" fill="#B3B3B3" width="1.552" height="5.014"/>
		<rect id="connector1pin_3_" x="29.908" y="105.855" fill="#B3B3B3" width="1.551" height="5.014"/>
		<rect x="19.059" y="100.527" fill="#B3B3B3" width="3" height="10.342"/>
		<rect x="29.059" y="100.527" fill="#B3B3B3" width="3" height="10.342"/>
		<ellipse fill="#0D0033" cx="25.513" cy="87.973" rx="25.51" ry="17.858"/>
		<rect x="0" y="84.334" fill="#0D0033" width="51.004" height="3.642"/>
		<ellipse fill="#100040" cx="25.513" cy="85.083" rx="25.51" ry="17.858"/>
		<ellipse fill="#0D0033" cx="25.513" cy="72.67" rx="25.51" ry="17.858"/>
		<rect x="0" y="18.127" fill="#0D0033" width="51.021" height="54.543"/>
		<ellipse fill="#0D0033" cx="25.513" cy="18.126" rx="25.51" ry="17.858"/>
		<ellipse fill="#100040" cx="25.513" cy="16.545" rx="23.63" ry="16.544"/>
		<ellipse fill="#B2B2B2" cx="25.513" cy="15.587" rx="17.317" ry="12.125"/>
		<path fill="#D2EEFF" d="M4.982,7.527C1.854,10.49,0,14.158,0,18.127v9.866h3.413v-0.952l0.04-0.357c0,0,0,0.187,0-0.48
			c0-1.194,0.567-1.962,1.529-2.345c0.926-0.366,0.857-6.897,0.857-6.897L4.982,7.527z"/>
		<path fill="#D2EEFF" d="M8.196,15.587c0-2.15,0.804-4.165,2.204-5.913L4.982,7.518c-1.966,2.409-3.101,5.194-3.101,8.169
			c0,2.974,1.136,5.759,3.101,8.171l5.547-2.208C9.053,19.866,8.196,17.799,8.196,15.587z"/>
		<rect x="0" y="26.684" fill="#D2EEFF" width="3.453" height="45.987"/>
		<rect x="0" y="60.739" fill="#D2EEFF" width="3.453" height="5.873"/>
		<path fill="#D2EEFF" d="M0,85.085v2.888c0,3.268,1.259,6.327,3.453,8.964V94.05V79.004v-2.887C1.258,78.758,0,81.816,0,85.085z"/>
		<path fill="#D2EEFF" d="M3.453,63.706C1.258,66.338,0,69.399,0,72.67c0,3.271,1.259,6.325,3.453,8.964V63.706z"/>
		<path fill="#D2EEFF" d="M3.453,95.548c0,0,0-0.659,0-1.499c0-0.844,0.18-3.748,0.465-5.042c0.47-2.139,1.454-3.61,1.454-5.869
			c0-0.763-0.432-1.835-1.079-2.484c-0.643-0.641-0.856-1.643-0.856-2.692c0-1.053,0-2.389,0-2.389l-1.48,0.046l0.163,18.406
			L3.453,95.548z"/>
		<path opacity="0.35" enable-background="new    " d="M25.513,4.036c9.427,0,17.077,5.278,17.297,11.84
			c0.004-0.098,0.027-0.19,0.027-0.288c0-6.695-7.757-12.125-17.319-12.125c-9.561,0-17.315,5.43-17.315,12.125
			c0,0.098,0.015,0.19,0.021,0.288C8.435,9.313,16.084,4.036,25.513,4.036z"/>
		<path opacity="0.35" enable-background="new    " d="M32.963,36.178v19.409v21.471c0,0,0,11.003,0,11.445
			c0,0.435-0.144,0.797-0.321,1.139c-0.209,0.398-0.687,1.013-0.687,1.013c6.794-1.455,12.774-5.381,15.855-9.783
			c0.212-0.272,0.434-0.85,0.512-1.099c0.077-0.254,0.104-0.508,0.104-0.508v-2.208V64.827V26.943
			C45.35,31.347,39.758,34.729,32.963,36.178z"/>
		<path opacity="0.35" enable-background="new    " d="M48.033,91.271c-0.237-0.636-0.926-1.44-0.926-1.44
			c-3.078,4.401-8.448,6.748-15.247,8.197c0,0,0.613,1.036,0.877,1.922c0.258,0.88,0.226,2.212,0.226,2.212v2.892
			c6.797-1.449,12.391-4.835,15.467-9.237c0,0,0-2.012,0-2.539C48.433,92.683,48.238,91.798,48.033,91.271z"/>
		<path opacity="0.2" fill="#FFFFFF" enable-background="new    " d="M24.367,96.695c-0.042-0.617-0.165-1.158-0.321-1.625
			C13.208,94.593,4.398,88.928,2.607,81.586c-0.343,0.272-0.737,0.645-0.973,1.066c-0.19,0.346-0.362,0.86-0.507,1.345
			c1.733,8.052,11.376,14.27,23.221,14.654C24.397,98.11,24.418,97.458,24.367,96.695z"/>
		<path opacity="0.2" fill="#FFFFFF" enable-background="new    " d="M35.02,31.036c0.021-0.394-0.286-0.662-0.536-0.771
			c-0.264-0.114-0.7-0.291-1.522-0.074h-0.069c-2.313,0.574-4.786,0.903-7.379,0.903C13.28,31.095,3.36,24.15,3.36,15.587
			c0-0.242,0.038-0.479,0.051-0.716c-0.002-0.024-0.023-0.033-0.023-0.06c0-0.384-0.15-0.877-0.474-0.931
			c-0.373-0.062-0.552,0.241-0.736,0.627c-0.091,0.192-0.159,0.463-0.21,0.78c-0.004,0.042-0.014,0.084-0.019,0.125
			c-0.006,0.044-0.009,0.095-0.013,0.14c-0.038,0.33-0.057,0.658-0.057,0.99c0,9.138,10.58,16.545,23.631,16.545
			c3.275,0,6.366-0.503,9.195-1.345C34.977,31.605,35.004,31.376,35.02,31.036z"/>
		<path fill="#FFFFFF" d="M1.635,82.652c-0.19,0.346-0.362,0.86-0.507,1.345c0.431,2.002,1.354,3.893,2.677,5.608
			c0.036-0.226,0.072-0.425,0.112-0.601c0.23-1.051,0.582-1.935,0.882-2.828c-1.032-1.427-1.795-2.968-2.187-4.593
			C2.265,81.856,1.873,82.233,1.635,82.652z"/>
		<path fill="#FFFFFF" d="M3.36,15.587c0-0.242,0.038-0.479,0.051-0.716c-0.004-0.024-0.025-0.033-0.025-0.06
			c0-0.384-0.15-0.877-0.474-0.931c-0.37-0.062-0.55,0.241-0.733,0.627c-0.093,0.192-0.162,0.463-0.21,0.78
			c-0.008,0.042-0.017,0.084-0.021,0.125c-0.006,0.044-0.008,0.095-0.013,0.14c-0.036,0.33-0.055,0.658-0.055,0.99
			c0,2.733,0.964,5.304,2.637,7.573c0.144-0.093,0.29-0.188,0.463-0.256l1.347-0.539C4.452,21.043,3.36,18.409,3.36,15.587z"/>
	</g>
</g>
</svg>
