<?xml version="1.0" encoding="utf-8"?>
<!DOCTYPE svg PUBLIC "-//W3C//DTD SVG 1.1//EN" "http://www.w3.org/Graphics/SVG/1.1/DTD/svg11.dtd">
<svg version="1.1" id="Layer_1" xmlns:svg="http://www.w3.org/2000/svg"
	 xmlns="http://www.w3.org/2000/svg" xmlns:xlink="http://www.w3.org/1999/xlink" x="0px" y="0px" width="0.14173in"
	 height="0.38867in" viewBox="0 0 14.173 38.867" enable-background="new 0 0 14.173 38.867" xml:space="preserve">
<rect id="connector0terminal" x="0.634" y="35.727" fill="#8C8C8C" width="3" height="3.14"/>
<rect id="connector1terminal" x="10.634" y="35.727" fill="#8C8C8C" width="3" height="3.14"/>
<rect id="connector1pin" x="10.634" y="31.792" fill="#8C8C8C" width="3" height="7.075"/>
<rect id="connector0pin" x="0.634" y="31.792" fill="#8C8C8C" width="3" height="7.075"/>
<g id="breadboard">
	<g>
		<rect id="connector0pin_3_" x="1.139" y="31.815" fill="#8C8C8C" width="1.552" height="5.014"/>
		<rect id="connector1pin_3_" x="11.483" y="31.815" fill="#8C8C8C" width="1.551" height="5.014"/>
		<rect x="0.634" y="26.487" fill="#8C8C8C" width="3" height="10.342"/>
		<rect x="10.634" y="26.487" fill="#8C8C8C" width="3" height="10.342"/>
		<ellipse fill="#0D0033" cx="7.087" cy="26.831" rx="7.086" ry="4.96"/>
		<rect y="25.82" fill="#0D0033" width="14.168" height="1.011"/>
		<ellipse fill="#100040" cx="7.087" cy="26.028" rx="7.086" ry="4.961"/>
		<ellipse fill="#0D0033" cx="7.087" cy="22.58" rx="7.086" ry="4.961"/>
		<rect y="5.036" fill="#0D0033" width="14.173" height="17.544"/>
		<ellipse fill="#0D0033" cx="7.087" cy="5.035" rx="7.086" ry="4.961"/>
		<ellipse fill="#100040" cx="7.087" cy="4.596" rx="6.564" ry="4.596"/>
		<ellipse fill="#B2B2B2" cx="7.087" cy="4.33" rx="4.811" ry="3.368"/>
		<path fill="#D2EEFF" d="M1.384,2.091C0.515,2.914,0,3.933,0,5.036v2.74h0.948V7.512l0.011-0.1c0,0,0,0.052,0-0.133
			c0-0.332,0.157-0.545,0.424-0.651c0.257-0.102,0.238-1.916,0.238-1.916L1.384,2.091z"/>
		<path fill="#D2EEFF" d="M2.277,4.33c0-0.598,0.223-1.157,0.612-1.643L1.384,2.088C0.838,2.758,0.523,3.531,0.523,4.357
			s0.315,1.6,0.861,2.27l1.541-0.613C2.515,5.519,2.277,4.944,2.277,4.33z"/>
		<rect y="7.412" fill="#D2EEFF" width="0.959" height="15.167"/>
		<rect y="19.265" fill="#D2EEFF" width="0.959" height="1.631"/>
		<path fill="#D2EEFF" d="M0,26.028v0.802c0,0.908,0.35,1.758,0.959,2.49v-0.802v-4.18v-0.802C0.35,24.271,0,25.12,0,26.028z"/>
		<path fill="#D2EEFF" d="M0.959,20.089C0.35,20.821,0,21.671,0,22.58s0.35,1.757,0.959,2.49V20.089z"/>
		<path fill="#D2EEFF" d="M0.959,28.935c0,0,0-0.184,0-0.417c0-0.234,0.05-1.041,0.129-1.4c0.13-0.594,0.404-1.003,0.404-1.63
			c0-0.212-0.12-0.51-0.3-0.69c-0.178-0.178-0.238-0.457-0.238-0.748c0-0.292,0-0.664,0-0.664l-0.411,0.013l0.045,5.113
			L0.959,28.935z"/>
		<path opacity="0.35" enable-background="new    " d="M7.087,1.121c2.619,0,4.744,1.466,4.805,3.289
			c0.001-0.027,0.008-0.053,0.008-0.08c0-1.86-2.155-3.368-4.811-3.368c-2.656,0-4.81,1.508-4.81,3.368
			c0,0.027,0.004,0.053,0.006,0.08C2.343,2.587,4.468,1.121,7.087,1.121z"/>
		<path opacity="0.35" enable-background="new    " d="M9.157,10.05v7.785v5.964c0,0,0,3.057,0,3.179
			c0,0.121-0.04,0.222-0.089,0.317c-0.058,0.11-0.191,0.281-0.191,0.281c1.888-0.404,3.548-1.495,4.404-2.718
			c0.059-0.076,0.121-0.236,0.142-0.305c0.021-0.071,0.029-0.141,0.029-0.141v-0.613v-3.397V7.484
			C12.597,8.708,11.044,9.647,9.157,10.05z"/>
		<path opacity="0.35" enable-background="new    " d="M13.343,27.747c-0.066-0.177-0.257-0.4-0.257-0.4
			c-0.855,1.223-2.347,1.875-4.235,2.277c0,0,0.17,0.288,0.244,0.534c0.072,0.245,0.063,0.615,0.063,0.615v0.803
			c1.888-0.402,3.442-1.343,4.296-2.565c0,0,0-0.559,0-0.706C13.454,28.139,13.399,27.893,13.343,27.747z"/>
		<path opacity="0.2" fill="#FFFFFF" enable-background="new    " d="M6.769,29.253c-0.012-0.171-0.045-0.321-0.089-0.451
			c-3.011-0.132-5.458-1.706-5.955-3.746c-0.095,0.076-0.205,0.179-0.271,0.296c-0.053,0.097-0.101,0.239-0.141,0.374
			c0.481,2.236,3.16,3.963,6.45,4.07C6.777,29.646,6.783,29.465,6.769,29.253z"/>
		<path opacity="0.2" fill="#FFFFFF" enable-background="new    " d="M9.728,8.621c0.005-0.109-0.08-0.184-0.149-0.214
			C9.506,8.375,9.385,8.326,9.156,8.387h-0.02c-0.643,0.159-1.33,0.251-2.05,0.251c-3.398,0-6.153-1.929-6.153-4.308
			c0-0.067,0.01-0.133,0.014-0.199C0.947,4.125,0.941,4.122,0.941,4.114c0-0.106-0.042-0.244-0.132-0.258
			C0.706,3.838,0.656,3.923,0.605,4.03C0.58,4.083,0.561,4.159,0.547,4.247C0.545,4.258,0.543,4.27,0.542,4.281
			C0.54,4.293,0.54,4.308,0.538,4.32c-0.01,0.091-0.016,0.183-0.016,0.275c0,2.538,2.939,4.596,6.564,4.596
			c0.91,0,1.769-0.14,2.554-0.374C9.716,8.779,9.724,8.716,9.728,8.621z"/>
		<path fill="#FFFFFF" d="M0.454,25.352c-0.053,0.097-0.101,0.239-0.141,0.374c0.12,0.556,0.376,1.081,0.744,1.558
			c0.01-0.063,0.02-0.118,0.031-0.167c0.064-0.292,0.162-0.537,0.245-0.785c-0.287-0.396-0.499-0.825-0.607-1.276
			C0.629,25.131,0.521,25.236,0.454,25.352z"/>
		<path fill="#FFFFFF" d="M0.934,4.33c0-0.067,0.01-0.133,0.014-0.199C0.946,4.125,0.94,4.122,0.94,4.114
			c0-0.106-0.042-0.244-0.131-0.258C0.706,3.838,0.656,3.923,0.605,4.03C0.579,4.083,0.561,4.159,0.547,4.247
			C0.545,4.258,0.542,4.27,0.541,4.281C0.54,4.293,0.539,4.308,0.538,4.32c-0.01,0.091-0.016,0.183-0.016,0.275
			c0,0.759,0.268,1.473,0.733,2.104c0.04-0.026,0.081-0.052,0.128-0.071l0.375-0.15C1.237,5.846,0.934,5.114,0.934,4.33z"/>
	</g>
</g>
</svg>
