<?xml version='1.0' encoding='utf-8'?>
<!DOCTYPE svg PUBLIC '-//W3C//DTD SVG 1.1 Basic//EN' 'http://www.w3.org/Graphics/SVG/1.1/DTD/svg11-basic.dtd'>
<!-- Generator: Adobe Illustrator 14.0.0, SVG Export Plug-In . SVG Version: 6.00 Build 43363)  -->
<svg xmlns="http://www.w3.org/2000/svg" width="0.368278in" xml:space="preserve" xmlns:xml="http://www.w3.org/XML/1998/namespace" x="0px" version="1.1" y="0px" height="0.0986667in" viewBox="0 0 26.516 7.104" baseProfile="basic" id="svg" >
 <rect xmlns="http://www.w3.org/2000/svg" width="1.545" x="24.972" y="2.355" fill="none" height="2.396" id="connector0terminal" />
 <polygon xmlns="http://www.w3.org/2000/svg" fill="none" points="21.538,2.355 26.517,2.355 26.517,4.747 21.538,4.747 " id="connector0pin" />
 <rect xmlns="http://www.w3.org/2000/svg" width="1.544" x="0" y="2.355" fill="none" height="2.396" id="connector1terminal" />
 <polygon xmlns="http://www.w3.org/2000/svg" fill="none" points="0.001,2.355 5.019,2.355 5.019,4.747 0.001,4.747 " id="connector1pin" />
 <g xmlns="http://www.w3.org/2000/svg" id="breadboard" >
  <polygon xmlns="http://www.w3.org/2000/svg" fill="#8C8C8C" points="0.001,2.355 26.517,2.355 26.517,4.747 0.001,4.747 " id="wefwf" />
  <path xmlns="http://www.w3.org/2000/svg" fill="#474747" id="path21_8_" d="M5.83,7.103c-0.792,0-0.812-0.271-0.812-0.625V2.656c-0.002-0.35,0.258-0.631,1.05-0.631h14.408c0.799,0,1.062,0.283,1.062,0.646v3.81c0.006,0.354-0.271,0.623-1.062,0.623L5.83,7.103L5.83,7.103z" />
  <path xmlns="http://www.w3.org/2000/svg" fill="#666666" id="path21_7_" d="M5.83,6.012c-0.792,0-0.812-0.281-0.812-0.625V0.625c-0.002-0.344,0.258-0.626,1.05-0.626h14.408c0.799,0,1.062,0.283,1.062,0.625v4.762c0.006,0.344-0.271,0.623-1.062,0.623L5.83,6.012L5.83,6.012z" />
  <g xmlns="http://www.w3.org/2000/svg">
   <ellipse xmlns="http://www.w3.org/2000/svg" cx="6.72" cy="2.998" rx="0.646" ry="0.488" />
   <ellipse xmlns="http://www.w3.org/2000/svg" cx="19.785" cy="2.998" rx="0.646" ry="0.488" />
  </g>
  <path xmlns="http://www.w3.org/2000/svg" fill="none" stroke="#333333" id="path21_10_" stroke-width="0.4" d="M18.057,1.751v2.885c0.002,0.255-0.254,0.572-0.84,0.572H9.329c-0.588,0-0.832-0.315-0.834-0.573V1.751" />
  <path xmlns="http://www.w3.org/2000/svg" fill="#C4C4C4" id="path21_6_" d="M9.487,5.075c-0.595,0-0.833-0.21-0.836-0.479V1.619c0-0.254,0.194-0.468,0.783-0.468h7.688c0.592,0,0.785,0.229,0.787,0.479V4.61c0.004,0.271-0.254,0.479-0.845,0.479L9.487,5.075L9.487,5.075z" />
  <path xmlns="http://www.w3.org/2000/svg" fill="#EDEDED" id="path21_5_" d="M9.487,4.24c-0.595,0-0.833-0.21-0.836-0.479V0.999c0-0.255,0.194-0.465,0.783-0.465h7.688c0.592,0,0.785,0.21,0.787,0.465V3.77c0.004,0.271-0.254,0.479-0.845,0.479L9.487,4.24L9.487,4.24z" />
 </g>
</svg>
