<?xml version="1.0" encoding="utf-8"?>
<!-- Generator: Adobe Illustrator 14.0.0, SVG Export Plug-In . SVG Version: 6.00 Build 43363)  -->
<svg version="1.2" baseProfile="tiny"
	 id="breadboard" inkscape:output_extension="org.inkscape.output.svg.inkscape" xmlns:svg="http://www.w3.org/2000/svg" xmlns:dc="http://purl.org/dc/elements/1.1/" xmlns:sodipodi="http://sodipodi.sourceforge.net/DTD/sodipodi-0.dtd" xmlns:inkscape="http://www.inkscape.org/namespaces/inkscape" xmlns:rdf="http://www.w3.org/1999/02/22-rdf-syntax-ns#" xmlns:cc="http://creativecommons.org/ns#" inkscape:version="0.46" sodipodi:docname="basic_toggle_switch.svg" sodipodi:version="0.32"
	 xmlns="http://www.w3.org/2000/svg" xmlns:xlink="http://www.w3.org/1999/xlink" x="0px" y="0px" width="44.641px"
	 height="59.04px" viewBox="0 0 44.641 59.04" xml:space="preserve">
<defs>
	
	
		<inkscape:perspective  id="perspective27" sodipodi:type="inkscape:persp3d" inkscape:vp_x="0 : 19.5 : 1" inkscape:vp_y="0 : 1000 : 0" inkscape:vp_z="38.98 : 19.5 : 1" inkscape:persp3d-origin="19.49 : 13 : 1">
		</inkscape:perspective>
</defs>
<sodipodi:namedview  id="base" showgrid="false" guidetolerance="10.0" inkscape:zoom="6.3846154" gridtolerance="10.0" objecttolerance="10.0" inkscape:cx="19.032034" borderopacity="1.0" inkscape:cy="11.183543" bordercolor="#666666" pagecolor="#ffffff" inkscape:window-height="701" inkscape:window-width="640" inkscape:pageshadow="2" inkscape:pageopacity="0.0" inkscape:window-x="0" inkscape:window-y="22" inkscape:current-layer="svg2">
	</sodipodi:namedview>
<rect id="connector0terminal" x="5.909" y="57.375" fill="#B3B3B3" width="2.002" height="1.31"/>
<rect id="connector1terminal" x="37.68" y="57.375" fill="#B3B3B3" width="2.002" height="1.31"/>
<rect id="connector0pin" x="5.909" y="52.782" fill="#B3B3B3" width="2.002" height="5.906"/>
<rect id="connector1pin" x="37.68" y="52.782" fill="#B3B3B3" width="2.002" height="5.906"/>
<rect id="rect4" x="5.899" y="42.125" fill="#B3B3B3" width="2.002" height="16.506"/>
<rect id="rect6" x="37.67" y="42.125" fill="#B3B3B3" width="2.002" height="16.506"/>
<rect x="-0.031" y="0.352" fill="#D8F2FD" width="44.6" height="44.6"/>
<rect x="0.009" y="43.971" fill="#6A8395" width="44.601" height="1.283"/>
<rect x="-0.031" y="45.167" fill="#FCDAD3" width="44.6" height="5.614"/>
<g>
	<rect x="21.036" y="46.681" fill="#545E68" width="2.466" height="4.483"/>
	<rect x="24.211" y="46.681" fill="#545E68" width="2.467" height="4.483"/>
	<rect x="27.389" y="46.681" fill="#545E68" width="2.465" height="4.483"/>
	<rect x="17.859" y="46.681" fill="#545E68" width="2.466" height="4.483"/>
	<rect x="14.681" y="46.681" fill="#545E68" width="2.466" height="4.483"/>
	<rect x="11.504" y="46.681" fill="#545E68" width="2.466" height="4.483"/>
	<rect x="30.565" y="46.681" fill="#545E68" width="2.467" height="4.483"/>
	<rect x="8.328" y="46.681" fill="#545E68" width="2.466" height="4.483"/>
	<rect x="33.742" y="46.681" fill="#545E68" width="2.467" height="4.483"/>
	<rect x="5.151" y="46.681" fill="#545E68" width="2.466" height="4.483"/>
	<rect x="36.92" y="46.681" fill="#545E68" width="2.467" height="4.483"/>
	<rect x="1.973" y="46.681" fill="#545E68" width="2.466" height="4.483"/>
	<rect x="40.098" y="46.681" fill="#545E68" width="2.465" height="4.483"/>
</g>
<rect x="-0.031" y="50.958" fill="#B78374" width="44.599" height="1.281"/>
<g>
	<polygon fill="#FFFFFF" points="2.072,43.729 33.563,0.481 37.524,0.47 5.969,43.743 	"/>
</g>
<g>
	<polygon fill="#FFFFFF" points="9.219,43.663 40.711,0.415 43.084,0.404 11.529,43.676 	"/>
</g>
</svg>
