<?xml version="1.0" encoding="utf-8"?>
<!DOCTYPE svg PUBLIC "-//W3C//DTD SVG 1.1//EN" "http://www.w3.org/Graphics/SVG/1.1/DTD/svg11.dtd">
<svg version="1.1"
	 id="svg2" xmlns:rdf="http://www.w3.org/1999/02/22-rdf-syntax-ns#" xmlns:svg="http://www.w3.org/2000/svg" xmlns:dc="http://purl.org/dc/elements/1.1/" xmlns:cc="http://creativecommons.org/ns#"
	 xmlns="http://www.w3.org/2000/svg" xmlns:xlink="http://www.w3.org/1999/xlink" x="0px" y="0px" width="0.24179in"
	 height="0.32771in" viewBox="0 0 24.179 32.771" enable-background="new 0 0 24.179 32.771" xml:space="preserve">
<rect id="connector0pin" x="1.07" y="31.152" fill="#B3B3B3" width="2.433" height="1.594"/>
<rect id="connector1pin" x="10.906" fill="#B3B3B3" width="2.431" height="1.593"/>
<rect id="connector2pin" x="20.933" y="31.152" fill="#B3B3B3" width="2.43" height="1.594"/>
<g id="breadboard" transform="matrix(0.7846527,0,0,0.7846527,4.3175756,-6.8808051)">
	<rect id="rect8" x="15.847" y="42.413" fill="#B3B3B3" width="8.156" height="3.24"/>
	<rect id="rect10" x="-3.998" y="42.413" fill="#B3B3B3" width="8.158" height="3.24"/>
	<rect id="rect12" x="6.735" y="13.672" fill="#B3B3B3" width="6.341" height="2.866"/>
	<rect id="rect14" x="-4.22" y="44.678" fill="#B3B3B3" width="3.562" height="5.857"/>
	<rect id="rect16" x="20.711" y="44.714" fill="#B3B3B3" width="3.563" height="5.691"/>
	<rect id="rect18" x="8.125" y="9.036" fill="#B3B3B3" width="3.563" height="5.262"/>
	<path id="path20" fill="#808080" d="M9.902,14.036c-8.507,0-15.404,6.899-15.404,15.41v15.407H9.902h15.411V29.444
		C25.314,20.934,18.414,14.036,9.902,14.036z M1.268,35.305V23.587H18.54v11.718H1.268z"/>
	<path id="path27" fill="#CECECE" d="M7.245,19.591c-5.433,1.467-8.649,7.065-7.184,12.498c1.471,5.435,7.063,8.651,12.502,7.187
		c5.439-1.471,8.652-7.064,7.185-12.503C18.277,21.338,12.685,18.12,7.245,19.591z M6.331,32.14l0.443-3.604l5.386-1.455
		l2.197,2.891L6.331,32.14z"/>
	<g id="g29">
		
			<rect id="rect31" x="9.364" y="30.966" transform="matrix(0.9653 -0.261 0.261 0.9653 -8.4032 4.0497)" width="3.367" height="5.402"/>
		<polygon id="polygon33" points="12.16,27.081 14.357,29.972 10.38,24.733 9.682,22.153 6.436,23.031 7.129,25.612 6.331,32.14 
			6.774,28.536 		"/>
	</g>
	<g id="g35">
		<polygon id="polygon37" fill="#4D4D4D" points="2.627,29.656 3.502,32.903 6.331,32.14 6.774,28.536 		"/>
		<polygon id="polygon39" fill="#4D4D4D" points="12.16,27.081 14.357,29.972 17.187,29.21 16.307,25.961 		"/>
	</g>
	<path id="path41" opacity="0.3" enable-background="new    " d="M24.099,29.844c-0.055-0.947-0.202-1.905-0.456-2.856
		c-0.232-0.855-0.546-1.658-0.919-2.424l-0.667,0.226l-0.998-1.325c-0.284-0.433-0.601-0.845-0.933-1.233l-1.048-1.386l0.569-0.428
		c-3.39-3.12-8.247-4.497-13.025-3.208c-4.77,1.29-8.276,4.925-9.635,9.328l0.706,0.082l-0.209,1.727
		c-0.088,0.504-0.153,1.016-0.184,1.536l-0.197,1.648l-0.692,0.137c0.067,0.851,0.202,1.705,0.432,2.559
		c0.26,0.951,0.614,1.852,1.043,2.698l0.727-0.586c0.848,1.723,2.051,3.185,3.487,4.345L1.37,41.266
		c3.354,2.788,7.96,3.964,12.494,2.742c4.528-1.226,7.918-4.559,9.41-8.655l-0.921-0.139c0.66-1.725,0.962-3.594,0.824-5.51
		L24.099,29.844z M12.597,39.321c-4.813,1.302-9.772-1.548-11.072-6.36c-1.297-4.814,1.548-9.772,6.361-11.068
		c4.818-1.302,9.772,1.547,11.072,6.357C20.261,33.068,17.409,38.022,12.597,39.321z"/>
	<path id="path43" d="M6.525,16.914c-6.919,1.865-11.01,8.984-9.14,15.898c1.866,6.915,8.985,11.012,15.903,9.14
		c6.914-1.867,11.007-8.986,9.136-15.901C20.557,19.138,13.44,15.044,6.525,16.914z M12.565,39.276
		C7.127,40.74,1.53,37.529,0.062,32.091c-1.47-5.44,1.747-11.038,7.184-12.504c5.439-1.467,11.036,1.75,12.506,7.187
		C21.217,32.211,18.001,37.81,12.565,39.276z"/>
	<path id="path45" fill="#1A1A1A" d="M23.762,28.67c-0.055-0.947-0.199-1.907-0.458-2.859c-0.228-0.849-0.54-1.656-0.916-2.424
		l-0.666,0.224l-2.982-3.941l0.569-0.428c-3.388-3.12-8.243-4.497-13.021-3.207c-4.778,1.29-8.279,4.924-9.638,9.327l0.703,0.084
		l-0.587,4.91l-0.692,0.141c0.065,0.851,0.202,1.705,0.431,2.554c0.258,0.953,0.61,1.852,1.045,2.698l1.965-1.582l3.491,4.336
		l-1.974,1.592c3.349,2.784,7.957,3.958,12.489,2.736c4.531-1.22,7.922-4.556,9.414-8.652l-2.499-0.377l0.824-5.505L23.762,28.67z
		 M12.259,38.149c-4.813,1.299-9.772-1.549-11.07-6.362c-1.297-4.814,1.547-9.771,6.362-11.067
		c4.816-1.301,9.769,1.545,11.069,6.362C19.921,31.894,17.071,36.847,12.259,38.149z"/>
	<circle id="circle47" opacity="0.39" fill="#FFFFFF" enable-background="new    " cx="-0.495" cy="23.574" r="1.039"/>
	<circle id="circle49" opacity="0.39" fill="#FFFFFF" enable-background="new    " cx="15.943" cy="19.136" r="1.04"/>
	<g id="g51" opacity="0.39">
		<path id="path53" fill="#FFFFFF" d="M7.006,39.7L6.57,39.595l0.104-0.441l0.434,0.102l0.105-0.433l0.877,0.209l-0.836,3.51
			l-0.879-0.209L7.006,39.7z"/>
		<path id="path55" fill="#FFFFFF" d="M14.183,42.136l-1.752,0.443l-0.111-0.441l-0.433,0.11l-0.665-2.629l0.434-0.11l-0.111-0.433
			l1.755-0.443l0.106,0.436l0.444-0.11l0.662,2.626l-0.443,0.11L14.183,42.136z M13.636,41.803l-0.666-2.624l-0.871,0.222
			l0.662,2.626L13.636,41.803z"/>
		<path id="path57" fill="#FFFFFF" d="M19.008,37.317l0.317-0.314l0.321,0.32L19.33,37.64l0.637,0.641l-0.647,0.642l-0.636-0.638
			l-0.961,0.951l-0.637-0.641l0.316-0.314l-0.632-0.645l0.319-0.319l0.64,0.64l-0.325,0.324l0.316,0.319l0.643-0.637l-1.592-1.599
			l0.646-0.642L19.008,37.317z"/>
	</g>
</g>
</svg>
