<?xml version="1.0" encoding="utf-8"?>
<!DOCTYPE svg PUBLIC "-//W3C//DTD SVG 1.1//EN" "http://www.w3.org/Graphics/SVG/1.1/DTD/svg11.dtd">
<svg version="1.1" id="Layer_1" xmlns:svg="http://www.w3.org/2000/svg"
	 xmlns="http://www.w3.org/2000/svg" xmlns:xlink="http://www.w3.org/1999/xlink" x="0px" y="0px" width="0.22955in"
	 height="0.43464px" viewBox="0 0 22.955 43.464" enable-background="new 0 0 22.955 43.464" xml:space="preserve">
<rect id="connector0pin" y="35.207" fill="#8C8C8C" width="3" height="8.258"/>
<rect id="connector1pin" x="9.974" y="35.207" fill="#8C8C8C" width="3" height="8.258"/>
<rect id="connector2pin" x="19.955" y="35.207" fill="#8C8C8C" width="3" height="8.258"/>
<rect id="connector0terminal" y="42.906" fill="#8C8C8C" width="3" height="0.559"/>
<rect id="connector1terminal" x="9.974" y="42.906" fill="#8C8C8C" width="3" height="0.559"/>
<rect id="connector2terminal" x="19.955" y="42.906" fill="#8C8C8C" width="3" height="0.559"/>
<g id="breadboard" transform="matrix(2.3972928,0,0,2.4022782,-966.56317,-155.90572)">
	<g id="g11">
		<g id="Transistor_legs">
			<rect id="rect9479" x="407.348" y="78.821" fill="#8C8C8C" width="1.248" height="4.158"/>
			<rect id="rect9481" x="403.19" y="78.821" fill="#8C8C8C" width="1.248" height="4.158"/>
			<rect id="rect9483" x="411.507" y="78.821" fill="#8C8C8C" width="1.248" height="4.158"/>
		</g>
		<g id="Transistor_pins_1_">
			<g id="g9504">
				<rect id="rect9506" x="407.348" y="73.416" fill="#8C8C8C" width="1.248" height="5.406"/>
			</g>
			<g id="g9508">
				<path id="path9510" fill="#8C8C8C" d="M405.094,73.416v1.917c0,0.245-0.453,0.612-0.694,0.824
					c-0.594,0.515-1.21,1.052-1.21,1.73v0.936h1.248c0,0,0-0.578,0-0.699c0-0.299,0.524-0.803,0.782-1.023
					c0.578-0.503,1.127-0.977,1.127-1.589v-2.096H405.094L405.094,73.416z"/>
			</g>
			<g id="g9512">
				<path id="path9514" fill="#8C8C8C" d="M410.849,73.416v1.917c0,0.245,0.453,0.612,0.695,0.824c0.595,0.515,1.21,1.052,1.21,1.73
					v0.936h-1.248c0,0,0-0.578,0-0.699c0-0.299-0.524-0.803-0.782-1.023c-0.578-0.503-1.127-0.977-1.127-1.589v-2.096H410.849
					L410.849,73.416z"/>
			</g>
		</g>
		<rect id="rect9553" x="404.125" y="67.593" fill="#1A1A1A" width="7.693" height="5.822"/>
		<path id="path9555" fill="#141414" d="M411.236,67.593v1.418v4.757v1.065c0.366-0.412,0.582-0.898,0.582-1.418l0,0v-5.822H411.236
			z"/>
		<path id="path9557" fill="#242424" d="M404.708,67.593h-0.582v5.822l0,0c0,0.52,0.216,1.006,0.582,1.418v-1.065v-4.757V67.593z"/>
		<path id="path9559" fill="#1F1F1F" d="M404.125,67.593L404.125,67.593c0,0.52,0.216,1.006,0.582,1.418h6.533
			c0.366-0.412,0.582-0.898,0.582-1.418l0,0H404.125z"/>
		<path id="path9561" fill="#141414" d="M407.972,64.899c-2.125,0-3.847,1.206-3.847,2.695h7.693
			C411.818,66.105,410.097,64.899,407.972,64.899z"/>
		<rect id="rect9563" x="404.708" y="69.011" width="6.533" height="5.822"/>
	</g>
	<path fill="#999999" d="M406.081,73.201v-3.122h1.251v0.624h0.626v0.624h0.626v-1.249h1.251V73.2h-1.251v-0.624h-0.626v-0.624
		h-0.626v1.249H406.081z"/>
</g>
</svg>
