<?xml version="1.0" encoding="utf-8"?>

<svg
   xmlns:svg="http://www.w3.org/2000/svg"
   xmlns="http://www.w3.org/2000/svg"
   version="1.2" baseProfile="tiny"
   x="0px" y="0px" 
    width="0.27in" height="0.49in" 
	  xml:space="preserve">

<rect id="connector0pin" y="39.609" fill="#B3B3B3" width="3" height="3.141"/>
<rect id="connector1pin" x="20" y="39.609" fill="#B3B3B3" width="3" height="3.141"/>

<g id="breadboard" style="display:inline">
	<g>
<path fill="none" stroke="#B3B3B3" stroke-width="3" d="M1.5,22.75c0-4.402,0.125-6.09,1.812-7.777S5,13.285,5,13.285"/>
<path fill="none" stroke="#B3B3B3" stroke-width="3" d="M21.5,22.75c0-4.402-0.125-6.09-1.812-7.777S18,13.285,18,13.285"/>
<rect y="22.75" fill="#B3B3B3" width="3" height="20"/>
<rect x="20" y="22.75" fill="#B3B3B3" width="3" height="20"/>
<circle fill="#CC7720" cx="11.5" cy="9.035" r="9.035"/>
<path d="M11.5,2.583c1.915,0,3.775-0.232,5.561-0.66C15.526,0.723,13.6,0,11.5,0S7.474,0.723,5.939,1.923
	C7.725,2.351,9.585,2.583,11.5,2.583z"/>
<path fill="#CC7720" d="M2.75,11.223c0.135,0.489-0.063,0.72-0.281,1.062C2.25,12.629,1.957,12.83,1.531,13.41
	c-0.344,0.469-0.53,0.948-0.688,1.5c-0.158,0.552-0.03,0.938-0.03,0.938l2.562,1.781c0,0,0.257-0.104,0.481-0.356
	c0.146-0.164,0.476-0.443,0.644-0.612c0.344-0.344,0.562-0.419,0.937-0.419c0.392,0,0.619,0.005,0.994,0.273
	c0.423,0.303,2.049-1.417,2.049-1.417L4.876,12.66l-1.604-1.958C3.271,10.702,2.615,10.733,2.75,11.223z"/>
<path fill="#CC7720" d="M20.25,11.223c-0.135,0.489,0.062,0.72,0.281,1.062c0.219,0.344,0.512,0.545,0.938,1.125
	c0.344,0.469,0.53,0.948,0.688,1.5c0.156,0.552,0.029,0.938,0.029,0.938l-2.562,1.781c0,0-0.256-0.104-0.48-0.356
	c-0.146-0.164-0.477-0.443-0.645-0.612c-0.344-0.344-0.562-0.419-0.937-0.419c-0.392,0-0.619,0.005-0.994,0.273
	c-0.423,0.303-2.049-1.417-2.049-1.417l3.604-2.438l1.604-1.958C19.729,10.702,20.384,10.733,20.25,11.223z"/>
<path opacity="0.1" enable-background="new    " d="M18.32,16.501c-0.307-0.62-1.32-1.403-1.914-1.403
	c-0.594,0-2.906,0.437-3.906,0.437s-3.438-0.5-4.219-0.5c-0.836,0-1.688,0.125-2.281,0.312c-0.536,0.169-1.083,0.375-1.708,1.312
	c-0.159,0.239-0.265,0.395-0.335,0.51c0.165-0.163,0.405-0.372,0.543-0.51c0.344-0.344,0.562-0.419,0.937-0.419
	c0.392,0,0.619,0.005,0.994,0.273h0.001c1.445,0.981,3.189,1.556,5.068,1.556s3.623-0.574,5.068-1.556h0.001
	c0.375-0.269,0.603-0.273,0.994-0.273C17.869,16.241,18.071,16.299,18.32,16.501z"/>
<path opacity="0.1" enable-background="new    " d="M19.908,12.806c0.404,0.188,1.705,0.916,2.191,1.928
	c-0.146-0.479-0.326-0.906-0.633-1.323c-0.426-0.58-0.719-0.781-0.938-1.125c-0.207-0.327-0.389-0.558-0.287-1.003
	c0.184-0.72,0.293-1.47,0.293-2.247c0-1.62-0.434-3.136-1.18-4.451c0.061,0.322,0.102,0.642,0.102,0.951
	c0,0.958-0.164,2.433-0.275,3.321c-0.1,0.784-0.494,1.471-0.494,2.408C18.688,12.046,19.666,12.695,19.908,12.806z"/>
<path opacity="0.55" fill="#FFFFFF" enable-background="new    " d="M9.375,1.42C8.762,1.409,8.259,1.673,8.254,2.007
	C8.252,2.151,8.356,2.282,8.513,2.39c0.479,0.061,0.962,0.107,1.449,0.14c0.301-0.103,0.513-0.275,0.517-0.485
	C10.483,1.709,9.99,1.43,9.375,1.42z"/>
<rect x="10.166" y="6.758" opacity="0.1" enable-background="new    " width="2.918" height="3.062"/>
<rect x="10.042" y="7.383" opacity="0.1" enable-background="new    " width="2.167" height="3.688"/>
<rect x="8.209" y="6.758" opacity="0.1" enable-background="new    " width="0.916" height="4.25"/>
<rect x="7.667" y="7.383" opacity="0.1" enable-background="new    " width="1.083" height="3.062"/>
<rect x="13.084" y="6.758" opacity="0.1" enable-background="new    " width="2.084" height="4.25"/>
<rect x="13.459" y="7.383" opacity="0.1" enable-background="new    " width="2.166" height="0.938"/>
<rect x="13.459" y="8.897" opacity="0.1" enable-background="new    " width="2.166" height="1.377"/>

</g>
</g>
</svg>
