<?xml version="1.0" encoding="utf-8"?>
<!-- Generator: Adobe Illustrator 14.0.0, SVG Export Plug-In . SVG Version: 6.00 Build 43363)  -->
<!DOCTYPE svg PUBLIC "-//W3C//DTD SVG 1.1//EN" "http://www.w3.org/Graphics/SVG/1.1/DTD/svg11.dtd">
<svg version="1.1" id="Layer_1" xmlns="http://www.w3.org/2000/svg" xmlns:xlink="http://www.w3.org/1999/xlink" x="0px" y="0px"
	 width="0.415in" height="0.1in" viewBox="0 0 29.879 7.2" enable-background="new 0 0 29.879 7.2" xml:space="preserve">
<g id="svg" xmlns:xml="http://www.w3.org/XML/1998/namespace">
	<rect id="connector0terminal" x="0.021" y="2.582" fill="none" width="0.002" height="2.094"/>
	<rect id="connector0pin" x="0.558" y="2.582" fill="none" width="0" height="2.094"/>
	<rect id="connector1terminal" x="29.855" y="2.582" fill="none" width="0.003" height="2.094"/>
	<rect id="connector1pin" x="29.326" y="2.582" fill="none" width="0" height="2.094"/>
	<g id="breadboard">
		<rect id="rect7" x="0.023" y="2.582" fill="#8C8C8C" width="29.833" height="2.094"/>
		<g>
			<path id="Body_1_" fill="#1A1A1A" d="M9.148,0H6.991c-0.475,0-0.393,7.194,0,7.194h2.157c0.396,0,11.113,0,11.508,0h2.158
				c0.515,0,0.558-7.194,0-7.194h-2.158C20.259,0,9.542,0,9.148,0z"/>
			<rect id="rect16" x="9.772" opacity="0.74" fill="#FFFFFF" enable-background="new    " width="1.992" height="7.194"/>
			<path id="Reflex_1_" opacity="0.4" fill="#FFFFFF" enable-background="new    " d="M7.278,0.359c0.726,0,1.145,0,1.866,0
				c0.719,0,10.786,0,11.508,0c0.022,0,0.229,0,0.479,0c0.563,0,1.067,0,1.311,0c0.354,0,1.145,0.36-0.354,0.36
				c-1.08,0-0.725,0-1.438,0c-0.716,0-10.79,0-11.508,0c-0.723,0-1.145,0-1.866,0C6.92,0.719,6.561,0.359,7.278,0.359z"/>
			<path id="Shaddow_1_" opacity="0.4" enable-background="new    " d="M22.811,7.194c-0.726,0.014-1.437,0-2.157,0
				c-0.903,0-12.942,0-13.667,0c-0.091,0-0.202-0.723-0.182-0.723c1.293,0,1.613,0,2.336,0s10.788,0,11.509,0s1.67,0,2.392,0
				C23.064,6.471,22.958,7.192,22.811,7.194z"/>
		</g>
	</g>
</g>
</svg>
