<svg
   xmlns:svg="http://www.w3.org/2000/svg"
   xmlns="http://www.w3.org/2000/svg"
   version="1.2" baseProfile="tiny"
   x="0px" y="0px" 
width="0.27in" height="0.59in"
	  xml:space="preserve">





<rect id="connector0terminal" x="5.059" y="49.131" fill="#B3B3B3" width="3" height="3.14"/>
<rect id="connector1terminal" x="15.059" y="49.131" fill="#B3B3B3" width="3" height="3.14"/>
<rect id="connector1pin" x="15.059" y="45.196" fill="#B3B3B3" width="3" height="7.075"/>
<rect id="connector0pin" x="5.059" y="45.196" fill="#B3B3B3" width="3" height="7.075"/>

<g id="breadboard" style="display:inline">
	<g>
<rect id="connector0pin_3_" x="5.564" y="45.219" fill="#B3B3B3" width="1.552" height="5.014"/>

<rect id="connector1pin_3_" x="15.908" y="45.219" fill="#B3B3B3" width="1.551" height="5.014"/>
<rect x="5.059" y="39.891" fill="#B3B3B3" width="3" height="10.342"/>
<rect x="15.059" y="39.891" fill="#B3B3B3" width="3" height="10.342"/>
<ellipse fill="#0D0033" cx="11.512" cy="37.137" rx="11.511" ry="8.058"/>
<rect y="35.495" fill="#0D0033" width="23.014" height="1.643"/>
<ellipse fill="#100040" cx="11.512" cy="35.833" rx="11.511" ry="8.058"/>
<ellipse fill="#0D0033" cx="11.512" cy="30.232" rx="11.511" ry="8.058"/>
<rect y="8.179" fill="#0D0033" width="23.022" height="22.053"/>
<ellipse fill="#0D0033" cx="11.512" cy="8.179" rx="11.511" ry="8.058"/>
<ellipse fill="#100040" cx="11.512" cy="7.465" rx="10.663" ry="7.465"/>
<ellipse fill="#B2B2B2" cx="11.512" cy="7.033" rx="7.814" ry="5.471"/>
<path fill="#D2EEFF" d="M2.248,3.396C0.837,4.733,0,6.388,0,8.179v4.452h1.54v-0.43l0.018-0.161c0,0,0,0.084,0-0.217
	c0-0.539,0.256-0.885,0.69-1.058C2.666,10.6,2.635,7.653,2.635,7.653L2.248,3.396z"/>
<path fill="#D2EEFF" d="M3.698,7.033c0-0.97,0.363-1.879,0.995-2.668L2.248,3.392C1.361,4.479,0.849,5.736,0.849,7.078
	c0,1.342,0.513,2.599,1.399,3.687l2.503-0.996C4.085,8.964,3.698,8.031,3.698,7.033z"/>
<rect y="12.04" fill="#D2EEFF" width="1.558" height="18.192"/>
<rect y="24.848" fill="#D2EEFF" width="1.558" height="2.65"/>
<path fill="#D2EEFF" d="M0,35.834v1.303c0,1.475,0.568,2.855,1.558,4.045v-1.303V33.09v-1.303C0.568,32.979,0,34.359,0,35.834z"/>
<path fill="#D2EEFF" d="M1.558,26.187C0.568,27.375,0,28.756,0,30.232s0.568,2.854,1.558,4.045V26.187z"/>
<path fill="#D2EEFF" d="M1.558,40.555c0,0,0-0.297,0-0.676c0-0.381,0.081-1.691,0.21-2.275c0.212-0.965,0.656-1.629,0.656-2.648
	c0-0.344-0.195-0.828-0.487-1.121c-0.29-0.289-0.386-0.741-0.386-1.215c0-0.475,0-1.078,0-1.078l-0.668,0.021l0.073,8.305
	L1.558,40.555z"/>
<path opacity="0.35" enable-background="new    " d="M11.512,1.821c4.254,0,7.706,2.381,7.805,5.342
	c0.002-0.044,0.012-0.086,0.012-0.13c0-3.021-3.5-5.471-7.815-5.471c-4.314,0-7.813,2.45-7.813,5.471c0,0.044,0.007,0.086,0.01,0.13
	C3.806,4.202,7.258,1.821,11.512,1.821z"/>
<path opacity="0.35" enable-background="new    " d="M14.874,16.324v6.2v9.688c0,0,0,4.965,0,5.164c0,0.196-0.065,0.36-0.145,0.514
	c-0.094,0.18-0.31,0.457-0.31,0.457c3.066-0.656,5.764-2.428,7.154-4.414c0.096-0.123,0.196-0.383,0.231-0.496
	c0.035-0.115,0.047-0.229,0.047-0.229v-0.996v-5.519V12.157C20.463,14.144,17.94,15.67,14.874,16.324z"/>
<path opacity="0.35" enable-background="new    " d="M21.674,38.625c-0.107-0.287-0.418-0.65-0.418-0.65
	c-1.389,1.986-3.812,3.045-6.88,3.699c0,0,0.277,0.467,0.396,0.867c0.116,0.397,0.102,0.998,0.102,0.998v1.305
	c3.067-0.654,5.591-2.182,6.979-4.168c0,0,0-0.908,0-1.146C21.854,39.262,21.766,38.863,21.674,38.625z"/>
<path opacity="0.2" fill="#FFFFFF" enable-background="new    " d="M10.995,41.072c-0.019-0.278-0.074-0.522-0.145-0.733
	c-4.89-0.215-8.865-2.771-9.673-6.084c-0.155,0.123-0.333,0.291-0.439,0.481c-0.086,0.156-0.164,0.388-0.229,0.607
	c0.782,3.633,5.133,6.438,10.478,6.612C11.009,41.711,11.018,41.417,10.995,41.072z"/>
<path opacity="0.2" fill="#FFFFFF" enable-background="new    " d="M15.802,14.004c0.009-0.178-0.129-0.299-0.242-0.348
	c-0.119-0.051-0.316-0.131-0.687-0.033h-0.031c-1.044,0.259-2.16,0.407-3.33,0.407c-5.52,0-9.996-3.133-9.996-6.997
	c0-0.109,0.017-0.216,0.023-0.323c-0.001-0.011-0.01-0.015-0.01-0.027c0-0.173-0.068-0.396-0.214-0.42
	C1.147,6.235,1.066,6.372,0.983,6.546C0.942,6.633,0.911,6.755,0.888,6.898C0.886,6.917,0.882,6.936,0.88,6.954
	c-0.003,0.02-0.004,0.043-0.006,0.063C0.857,7.166,0.848,7.314,0.848,7.464c0,4.123,4.774,7.465,10.663,7.465
	c1.478,0,2.873-0.227,4.149-0.607C15.782,14.261,15.795,14.157,15.802,14.004z"/>
<path fill="#FFFFFF" d="M0.738,34.736c-0.086,0.156-0.164,0.388-0.229,0.607c0.194,0.903,0.611,1.756,1.208,2.53
	c0.016-0.102,0.032-0.192,0.05-0.271c0.104-0.474,0.263-0.873,0.398-1.276c-0.466-0.644-0.81-1.339-0.987-2.072
	C1.022,34.377,0.845,34.547,0.738,34.736z"/>
<path fill="#FFFFFF" d="M1.516,7.033c0-0.109,0.017-0.216,0.023-0.323C1.537,6.699,1.528,6.695,1.528,6.683
	c0-0.173-0.068-0.396-0.214-0.42C1.147,6.235,1.066,6.372,0.983,6.546C0.941,6.633,0.91,6.755,0.888,6.898
	C0.885,6.917,0.881,6.936,0.879,6.954c-0.003,0.02-0.004,0.043-0.006,0.063C0.857,7.166,0.848,7.314,0.848,7.464
	c0,1.233,0.435,2.393,1.19,3.417c0.065-0.042,0.131-0.085,0.209-0.116l0.608-0.243C2.009,9.495,1.516,8.306,1.516,7.033z"/>

</g></g>
</svg>
