<?xml version='1.0' encoding='UTF-8' standalone='no'?>
<!-- Created with Fritzing (http://www.fritzing.org/) -->
<svg xmlns="http://www.w3.org/2000/svg" width="0.6in" x="0in" version="1.2" y="0in" height="0.6in" viewBox="0 0 43.2 43.2" baseProfile="tiny">
 <desc >Fritzing breadboard generated by brd2svg</desc>
 <g  id="breadboard" stroke-width="0">
  <g  id="icon" stroke-width="0">
   <path  fill="#C62717" stroke="none" stroke-width="0" d="M0,43.2L43.2,43.2L43.2,0L0,0L0,43.2M2.16,3.6a1.44,1.44,0,1,1,2.88,0,1.44,1.44,0,1,1,-2.88,0zM9.36,3.6a1.44,1.44,0,1,1,2.88,0,1.44,1.44,0,1,1,-2.88,0zM16.56,3.6a1.44,1.44,0,1,1,2.88,0,1.44,1.44,0,1,1,-2.88,0zM23.76,3.6a1.44,1.44,0,1,1,2.88,0,1.44,1.44,0,1,1,-2.88,0zM30.96,3.6a1.44,1.44,0,1,1,2.88,0,1.44,1.44,0,1,1,-2.88,0zM38.16,3.6a1.44,1.44,0,1,1,2.88,0,1.44,1.44,0,1,1,-2.88,0z"/>
   <g  stroke-width="0">
    <title >layer 21</title>
    <g  stroke-width="0">
     <title >text:BMP085 Breakout</title>
     <text  x="2.88" y="42.12" font-family="OCRA" fill="white" text-anchor="start" stroke="none" stroke-width="0" font-size="3.3408">BMP085 Breakout</text>
    </g>
    <g  stroke-width="0">
     <title >element:C1</title>
     <g  stroke-width="0">
      <title >package:0603-CAP</title>
      <line  stroke="white" stroke-linecap="round" y1="21.6" x1="3.68646" y2="21.6" stroke-width="1.584" x2="3.51354"/>
     </g>
    </g>
    <g  stroke-width="0">
     <title >element:C2</title>
     <g  stroke-width="0">
      <title >package:0603-CAP</title>
      <line  stroke="white" stroke-linecap="round" y1="32.4" x1="3.51354" y2="32.4" stroke-width="1.584" x2="3.68646"/>
     </g>
    </g>
    <g  stroke-width="0">
     <title >element:JP1</title>
     <g  stroke-width="0">
      <title >package:1X01NS</title>
     </g>
    </g>
    <g  stroke-width="0">
     <title >element:JP2</title>
     <g  stroke-width="0">
      <title >package:1X06</title>
      <line  stroke="white" stroke-linecap="round" y1="1.8" x1="36" y2="0" stroke-width="0.576" x2="37.8"/>
      <line  stroke="white" stroke-linecap="round" y1="0" x1="37.8" y2="0" stroke-width="0.576" x2="41.4"/>
      <line  stroke="white" stroke-linecap="round" y1="0" x1="41.4" y2="1.8" stroke-width="0.576" x2="43.2"/>
      <line  stroke="white" stroke-linecap="round" y1="5.4" x1="43.2" y2="7.2" stroke-width="0.576" x2="41.4"/>
      <line  stroke="white" stroke-linecap="round" y1="7.2" x1="41.4" y2="7.2" stroke-width="0.576" x2="37.8"/>
      <line  stroke="white" stroke-linecap="round" y1="7.2" x1="37.8" y2="5.4" stroke-width="0.576" x2="36"/>
      <line  stroke="white" stroke-linecap="round" y1="0" x1="23.4" y2="0" stroke-width="0.576" x2="27"/>
      <line  stroke="white" stroke-linecap="round" y1="0" x1="27" y2="1.8" stroke-width="0.576" x2="28.8"/>
      <line  stroke="white" stroke-linecap="round" y1="5.4" x1="28.8" y2="7.2" stroke-width="0.576" x2="27"/>
      <line  stroke="white" stroke-linecap="round" y1="1.8" x1="28.8" y2="0" stroke-width="0.576" x2="30.6"/>
      <line  stroke="white" stroke-linecap="round" y1="0" x1="30.6" y2="0" stroke-width="0.576" x2="34.2"/>
      <line  stroke="white" stroke-linecap="round" y1="0" x1="34.2" y2="1.8" stroke-width="0.576" x2="36"/>
      <line  stroke="white" stroke-linecap="round" y1="5.4" x1="36" y2="7.2" stroke-width="0.576" x2="34.2"/>
      <line  stroke="white" stroke-linecap="round" y1="7.2" x1="34.2" y2="7.2" stroke-width="0.576" x2="30.6"/>
      <line  stroke="white" stroke-linecap="round" y1="7.2" x1="30.6" y2="5.4" stroke-width="0.576" x2="28.8"/>
      <line  stroke="white" stroke-linecap="round" y1="1.8" x1="14.4" y2="0" stroke-width="0.576" x2="16.2"/>
      <line  stroke="white" stroke-linecap="round" y1="0" x1="16.2" y2="0" stroke-width="0.576" x2="19.8"/>
      <line  stroke="white" stroke-linecap="round" y1="0" x1="19.8" y2="1.8" stroke-width="0.576" x2="21.6"/>
      <line  stroke="white" stroke-linecap="round" y1="5.4" x1="21.6" y2="7.2" stroke-width="0.576" x2="19.8"/>
      <line  stroke="white" stroke-linecap="round" y1="7.2" x1="19.8" y2="7.2" stroke-width="0.576" x2="16.2"/>
      <line  stroke="white" stroke-linecap="round" y1="7.2" x1="16.2" y2="5.4" stroke-width="0.576" x2="14.4"/>
      <line  stroke="white" stroke-linecap="round" y1="0" x1="23.4" y2="1.8" stroke-width="0.576" x2="21.6"/>
      <line  stroke="white" stroke-linecap="round" y1="5.4" x1="21.6" y2="7.2" stroke-width="0.576" x2="23.4"/>
      <line  stroke="white" stroke-linecap="round" y1="7.2" x1="27" y2="7.2" stroke-width="0.576" x2="23.4"/>
      <line  stroke="white" stroke-linecap="round" y1="0" x1="1.8" y2="0" stroke-width="0.576" x2="5.4"/>
      <line  stroke="white" stroke-linecap="round" y1="0" x1="5.4" y2="1.8" stroke-width="0.576" x2="7.2"/>
      <line  stroke="white" stroke-linecap="round" y1="5.4" x1="7.2" y2="7.2" stroke-width="0.576" x2="5.4"/>
      <line  stroke="white" stroke-linecap="round" y1="1.8" x1="7.2" y2="0" stroke-width="0.576" x2="9"/>
      <line  stroke="white" stroke-linecap="round" y1="0" x1="9" y2="0" stroke-width="0.576" x2="12.6"/>
      <line  stroke="white" stroke-linecap="round" y1="0" x1="12.6" y2="1.8" stroke-width="0.576" x2="14.4"/>
      <line  stroke="white" stroke-linecap="round" y1="5.4" x1="14.4" y2="7.2" stroke-width="0.576" x2="12.6"/>
      <line  stroke="white" stroke-linecap="round" y1="7.2" x1="12.6" y2="7.2" stroke-width="0.576" x2="9"/>
      <line  stroke="white" stroke-linecap="round" y1="7.2" x1="9" y2="5.4" stroke-width="0.576" x2="7.2"/>
      <line  stroke="white" stroke-linecap="round" y1="1.8" x1="0" y2="5.4" stroke-width="0.576" x2="0"/>
      <line  stroke="white" stroke-linecap="round" y1="0" x1="1.8" y2="1.8" stroke-width="0.576" x2="0"/>
      <line  stroke="white" stroke-linecap="round" y1="5.4" x1="0" y2="7.2" stroke-width="0.576" x2="1.8"/>
      <line  stroke="white" stroke-linecap="round" y1="7.2" x1="5.4" y2="7.2" stroke-width="0.576" x2="1.8"/>
      <line  stroke="white" stroke-linecap="round" y1="1.8" x1="43.2" y2="5.4" stroke-width="0.576" x2="43.2"/>
     </g>
    </g>
    <g  stroke-width="0">
     <title >element:JP3</title>
     <g  stroke-width="0">
      <title >package:SFE-LOGO-FLAME</title>
      <g  stroke-width="0">
       <title >polygon</title>
       <path  fill="none" stroke="white" stroke-linecap="round" stroke-width="0.072" d="M35.3883,30.6215L35.2513,30.6M35.2513,30.6L34.9849,30.579M34.9849,30.579L34.7185,30.6M34.7185,30.6L34.5203,30.6521M34.5203,30.6521L34.3367,30.7431M34.3367,30.7431L34.1748,30.869M34.1748,30.869L34.0418,31.0249M34.0418,31.0249L33.9281,31.2324M33.9281,31.2324L33.8599,31.4589M33.8599,31.4589L33.8403,31.6945M33.8403,31.6945L33.8403,35.9929M33.8403,35.9929L35.2225,34.4375M35.2225,34.4375L35.4685,34.2122M35.4685,34.2122L35.7553,34.0415M35.7553,34.0415L35.8608,34.0033M35.8608,34.0033L35.9713,33.984M35.9713,33.984L36.6193,33.984M36.6193,33.984L37.0058,33.9489M37.0058,33.9489L37.3796,33.8445M37.3796,33.8445L37.7283,33.6745M37.7283,33.6745L38.0562,33.4428M38.0562,33.4428L38.3488,33.1673M38.3488,33.1673L38.5993,32.8535M38.5993,32.8535L38.8678,32.377M38.8678,32.377L39.0458,31.86M39.0458,31.86L39.1275,31.3194M39.1275,31.3194L39.1105,30.7729M39.1105,30.7729L39.0518,30.4781M39.0518,30.4781L38.9503,30.1952M38.9503,30.1952L38.8083,29.9305M38.8083,29.9305L38.5512,29.6081M38.5512,29.6081L38.2323,29.3471M38.2323,29.3471L38.2323,29.5991M38.2323,29.5991L38.2266,29.6402M38.2266,29.6402L38.2105,29.6785M38.2105,29.6785L38.1262,29.7825M38.1262,29.7825L38.0163,29.8585M38.0163,29.8585L37.9585,29.88M37.9585,29.88L37.7963,29.8976M37.7963,29.8976L37.6358,29.8678M37.6358,29.8678L37.4905,29.7935M37.4905,29.7935L37.2313,29.6065M37.2313,29.6065L37.1115,29.5033M37.1115,29.5033L37.0083,29.3831M37.0083,29.3831L36.9252,29.2484M36.9252,29.2484L36.8643,29.1025M36.8643,29.1025L36.8459,29.0097M36.8459,29.0097L36.8498,28.9151M36.8498,28.9151L36.8969,28.7592M36.8969,28.7592L36.9828,28.6206M36.9828,28.6206L37.1018,28.5095M37.1018,28.5095L37.2458,28.4329M37.2458,28.4329L37.391,28.3921M37.391,28.3921L37.5409,28.3751M37.5409,28.3751L37.7138,28.3751M37.7138,28.3751L37.7135,28.3751M37.7135,28.3751L37.7065,28.368M37.7065,28.368L37.5831,28.2722M37.5831,28.2722L37.4403,28.2095M37.4403,28.2095L37.3393,28.1665M37.3393,28.1665L37.2745,28.1375M37.2745,28.1375L37.0256,28.0755M37.0256,28.0755L36.7705,28.0511M36.7705,28.0511L36.5242,28.0698M36.5242,28.0698L36.286,28.1356M36.286,28.1356L36.0649,28.2455M36.0649,28.2455L35.8447,28.4043M35.8447,28.4043L35.6473,28.5911M35.6473,28.5911L35.5252,28.7623M35.5252,28.7623L35.4495,28.9585M35.4495,28.9585L35.4249,29.1673M35.4249,29.1673L35.4532,29.3757M35.4532,29.3757L35.5323,29.5705M35.5323,29.5705L35.8685,30.0691M35.8685,30.0691L36.2809,30.5065M36.2809,30.5065L36.3894,30.634M36.3894,30.634L36.4614,30.7851M36.4614,30.7851L36.4921,30.9495M36.4921,30.9495L36.4791,31.1165M36.4791,31.1165L36.4235,31.2744M36.4235,31.2744L36.3288,31.4124M36.3288,31.4124L36.2018,31.5215M36.2018,31.5215L36.042,31.6077M36.042,31.6077L35.8699,31.6658M35.8699,31.6658L35.6905,31.6945M35.6905,31.6945L35.4807,31.684M35.4807,31.684L35.28,31.6228M35.28,31.6228L35.1003,31.5145M35.1003,31.5145L35.005,31.4141M35.005,31.4141L34.9418,31.2911M34.9418,31.2911L34.9137,31.1649M34.9137,31.1649L34.9137,31.0357M34.9137,31.0357L34.9418,30.9095M34.9418,30.9095L34.9673,30.8611M34.9673,30.8611L35.0065,30.8231M35.0065,30.8231L35.2443,30.6505M35.2443,30.6505L35.2888,30.6266M35.2888,30.6266L35.3381,30.6167M35.3381,30.6167L35.3883,30.6215M33.8403,35.928L33.8978,35.928M33.8403,35.856L33.9619,35.856M33.8403,35.784L34.0257,35.784M33.8403,35.712L34.0898,35.712M33.8403,35.64L34.1538,35.64M33.8403,35.568L34.2179,35.568M33.8403,35.496L34.2816,35.496M33.8403,35.424L34.3457,35.424M33.8403,35.352L34.4097,35.352M33.8403,35.28L34.4735,35.28M33.8403,35.208L34.5376,35.208M33.8403,35.136L34.6017,35.136M33.8403,35.064L34.6658,35.064M33.8403,34.992L34.7295,34.992M33.8403,34.92L34.7936,34.92M33.8403,34.848L34.8576,34.848M33.8403,34.776L34.9214,34.776M33.8403,34.704L34.9854,34.704M33.8403,34.632L35.0495,34.632M33.8403,34.56L35.1136,34.56M33.8403,34.488L35.1774,34.488M33.8403,34.416L35.2457,34.416M33.8403,34.344L35.3245,34.344M33.8403,34.272L35.403,34.272M33.8403,34.2L35.4889,34.2M33.8403,34.128L35.61,34.128M33.8403,34.056L35.731,34.056M33.8403,33.984L36.6193,33.984M33.8403,33.912L37.1375,33.912M33.8403,33.84L37.3887,33.84M33.8403,33.768L37.5364,33.768M33.8403,33.696L37.6841,33.696M33.8403,33.624L37.7997,33.624M33.8403,33.552L37.9014,33.552M33.8403,33.48L38.0035,33.48M33.8403,33.408L38.0931,33.408M33.8403,33.336L38.1696,33.336M33.8403,33.264L38.2459,33.264M33.8403,33.192L38.3224,33.192M33.8403,33.12L38.3865,33.12M33.8403,33.048L38.444,33.048M33.8403,32.976L38.5016,32.976M33.8403,32.904L38.5588,32.904M33.8403,32.832L38.6113,32.832M33.8403,32.76L38.6518,32.76M33.8403,32.688L38.6924,32.688M33.8403,32.616L38.7332,32.616M33.8403,32.544L38.7737,32.544M33.8403,32.472L38.8143,32.472M33.8403,32.4L38.8548,32.4M33.8403,32.328L38.8845,32.328M33.8403,32.256L38.9094,32.256M33.8403,32.184L38.9341,32.184M33.8403,32.112L38.9588,32.112M33.8403,32.04L38.9838,32.04M33.8403,31.968L39.0084,31.968M33.8403,31.896L39.0334,31.896M33.8403,31.824L39.0512,31.824M33.8403,31.752L39.062,31.752M33.8417,31.68L35.4679,31.68M35.7812,31.68L39.0727,31.68M33.8476,31.608L35.2556,31.608M36.0414,31.608L39.0838,31.608M33.8536,31.536L35.1363,31.536M36.1752,31.536L39.0946,31.536M33.8596,31.464L35.0527,31.464M36.269,31.464L39.1054,31.464M33.8802,31.392L34.9937,31.392M36.343,31.392L39.1164,31.392M33.9018,31.32L34.9569,31.32M36.3923,31.32L39.1272,31.32M33.9236,31.248L34.9325,31.248M36.4329,31.248L39.1254,31.248M33.9593,31.176L34.9163,31.176M36.4584,31.176L39.1232,31.176M33.9988,31.104L34.9137,31.104M36.4802,31.104L39.1209,31.104M34.0381,31.032L34.9143,31.032M36.4859,31.032L39.1187,31.032M34.0974,30.96L34.9305,30.96M36.4915,30.96L39.1164,30.96M34.1586,30.888L34.9532,30.888M36.4805,30.888L39.1141,30.888M34.2431,30.816L35.0161,30.816M36.4671,30.816L39.1118,30.816M34.3358,30.744L35.1153,30.744M36.4416,30.744L39.1048,30.744M34.4804,30.672L35.2146,30.672M36.4073,30.672L39.0906,30.672M34.7185,30.6L35.2513,30.6M36.3603,30.6L39.0761,30.6M36.2991,30.528L39.062,30.528M36.2333,30.456L39.0442,30.456M36.1652,30.384L39.018,30.384M36.0975,30.312L38.9922,30.312M36.0294,30.24L38.9665,30.24M35.9618,30.168L38.9359,30.168M35.8937,30.096L38.8973,30.096M35.8379,30.024L38.8588,30.024M35.7894,29.952L38.8199,29.952M35.7409,29.88L37.7016,29.88M37.9585,29.88L38.7683,29.88M35.6924,29.808L37.5188,29.808M38.0894,29.808L38.7108,29.808M35.6437,29.736L37.4108,29.736M38.164,29.736L38.6532,29.736M35.5952,29.664L37.3113,29.664M38.2167,29.664L38.596,29.664M35.5468,29.592L37.2146,29.592M38.2323,29.592L38.5316,29.592M35.5116,29.52L37.131,29.52M38.2323,29.52L38.4438,29.52M35.4824,29.448L37.0642,29.448M38.2323,29.448L38.3556,29.448M35.4532,29.376L37.004,29.376M38.2323,29.376L38.2677,29.376M35.4433,29.304L36.9595,29.304M35.4336,29.232L36.9184,29.232M35.426,29.16L36.8884,29.16M35.4345,29.088L36.8615,29.088M35.443,29.016L36.8473,29.016M35.4552,28.944L36.8484,28.944M35.483,28.872L36.8626,28.872M35.5108,28.8L36.8844,28.8M35.5499,28.728L36.9161,28.728M35.6012,28.656L36.9607,28.656M35.655,28.584L37.0219,28.584M35.731,28.512L37.099,28.512M35.807,28.44L37.2322,28.44M35.8951,28.368L37.7065,28.368M35.9952,28.296L37.614,28.296M36.1083,28.224L37.4735,28.224M36.2532,28.152L37.3071,28.152M36.4873,28.08L37.044,28.08"/>
      </g>
     </g>
    </g>
    <g  stroke-width="0">
     <title >element:R1</title>
     <g  stroke-width="0">
      <title >package:0603-RES</title>
     </g>
    </g>
    <g  stroke-width="0">
     <title >element:R2</title>
     <g  stroke-width="0">
      <title >package:0603-RES</title>
     </g>
    </g>
    <g  stroke-width="0">
     <title >element:U$1</title>
     <g  stroke-width="0">
      <title >package:BMP085</title>
      <line  stroke="white" stroke-linecap="round" y1="14.5134" x1="14.5134" y2="16.2142" stroke-width="0.36" x2="14.5134"/>
      <line  stroke="white" stroke-linecap="round" y1="14.5134" x1="14.5134" y2="14.5134" stroke-width="0.36" x2="16.2142"/>
      <line  stroke="white" stroke-linecap="round" y1="14.5134" x1="28.6866" y2="14.5134" stroke-width="0.36" x2="26.9858"/>
      <line  stroke="white" stroke-linecap="round" y1="14.5134" x1="28.6866" y2="16.2142" stroke-width="0.36" x2="28.6866"/>
      <line  stroke="white" stroke-linecap="round" y1="28.6866" x1="14.5134" y2="26.9858" stroke-width="0.36" x2="14.5134"/>
      <line  stroke="white" stroke-linecap="round" y1="28.6866" x1="14.5134" y2="28.6866" stroke-width="0.36" x2="16.4976"/>
      <line  stroke="white" stroke-linecap="round" y1="28.6866" x1="28.6866" y2="28.6866" stroke-width="0.36" x2="26.7024"/>
      <line  stroke="white" stroke-linecap="round" y1="28.6866" x1="28.6866" y2="26.9858" stroke-width="0.36" x2="28.6866"/>
      <circle  fill="none" cx="15.6473" cy="15.6473" stroke="white" r="0.566929" stroke-width="0.36"/>
     </g>
    </g>
   </g>
   <rect  width="1.296" x="38.952" y="20.52" fill="#ffffff" height="2.16" stroke="none" fill-opacity="0.15" stroke-width="0"/>
   <rect  width="1.296" x="35.352" y="20.52" fill="#ffffff" height="2.16" stroke="none" fill-opacity="0.15" stroke-width="0"/>
   <rect  width="14.1732" x="14.5134" y="14.5134" fill="#ffffff" height="14.1732" stroke="none" fill-opacity="0.15" stroke-width="0"/>
   <circle  fill="none" cx="3.6" cy="3.6" connectorname="VCC" stroke="#9A916C" r="2.052" id="connector5pin" stroke-width="1.224"/>
   <circle  fill="none" cx="10.8" cy="3.6" connectorname="GND" stroke="#9A916C" r="2.052" id="connector6pin" stroke-width="1.224"/>
   <circle  fill="none" cx="18" cy="3.6" connectorname="EOC" stroke="#9A916C" r="2.052" id="connector7pin" stroke-width="1.224"/>
   <circle  fill="none" cx="25.2" cy="3.6" connectorname="XCLR" stroke="#9A916C" r="2.052" id="connector8pin" stroke-width="1.224"/>
   <circle  fill="none" cx="32.4" cy="3.6" connectorname="SCL" stroke="#9A916C" r="2.052" id="connector9pin" stroke-width="1.224"/>
   <circle  fill="none" cx="39.6" cy="3.6" connectorname="SDA" stroke="#9A916C" r="2.052" id="connector10pin" stroke-width="1.224"/>
  </g>
  <g  id="sfe-logo-flame" stroke-width="0" transform="matrix(1, 0, 0, 1, 33.8216, 27.9814)">
   <g  stroke-width="0">
    <title >element:JP2</title>
    <g  stroke-width="0">
     <title >package:SFE-LOGO-FLAME</title>
     <title >polygon</title>
    </g>
   </g>
   <path  fill="#FFFFFF" stroke-width="0" d="M5.357,3.235c0,-0.001,0,-0.002,0,-0.003c0,-0.001,0,-0.003,0,-0.005L5.355,3.166c0,-0.001,0,-0.003,0,-0.004c0,-0.002,0,-0.004,-0.001,-0.007L5.349,2.947c0,-0.001,0,-0.001,0,-0.002c0,-0.001,0,-0.003,0,-0.005L5.343,2.757c0,-0.001,0,-0.001,0,-0.002c0,0,0,0,0,0c0,-0.001,-0.001,-0.003,-0.001,-0.005L5.336,2.724c0,-0.001,0,-0.003,0,-0.004L5.294,2.512c0,-0.004,-0.001,-0.009,-0.003,-0.013L5.282,2.457c0,-0.001,0,-0.003,-0.001,-0.005c0,0,0,0,0,0l0,0L5.276,2.437C5.275,2.431,5.273,2.425,5.271,2.42L5.249,2.359C5.248,2.358,5.247,2.356,5.247,2.354L5.181,2.168c0,0,-0.001,-0.001,-0.001,-0.002C5.179,2.165,5.179,2.163,5.178,2.162L5.165,2.138C5.164,2.136,5.163,2.135,5.162,2.133L5.088,1.996C5.087,1.993,5.086,1.99,5.084,1.988L5.049,1.922C5.048,1.92,5.047,1.918,5.046,1.917l-0.01,-0.019C5.035,1.897,5.035,1.896,5.034,1.896C5.033,1.894,5.032,1.893,5.031,1.892L4.823,1.631C4.821,1.627,4.819,1.625,4.816,1.622L4.775,1.571C4.774,1.57,4.774,1.569,4.773,1.568C4.772,1.567,4.771,1.565,4.77,1.564L4.665,1.479C4.663,1.478,4.662,1.476,4.66,1.475L4.579,1.409c-0.003,-0.003,-0.006,-0.006,-0.01,-0.00799999L4.492,1.338c-0.003,-0.004,-0.00799999,-0.00799999,-0.013,-0.01L4.45,1.304c-0.00799999,-0.006,-0.019,-0.01,-0.024,-0.00799999L4.425,1.296c-0.005,0,-0.009,0.002,-0.013,0.004c-0.001,0,-0.001,0,-0.001,0c-0.004,0.002,-0.007,0.005,-0.01,0.00799999c0,0,0,0,0,0c0,0,0,0,-0.001,0c0,0,0,0,0,0c0,0,0,0,-0.001,0C4.398,1.311,4.397,1.312,4.396,1.314l0,0c0,0,0,0,0,0c0,0,-0.001,0,-0.001,0s0,0,0,0C4.393,1.321,4.392,1.327,4.392,1.333l0,0.245L4.387,1.615L4.38,1.632C4.379,1.634,4.378,1.636,4.378,1.638L4.335,1.694C4.332,1.697,4.33,1.7,4.328,1.703l-0.03,0.038l-0.03,0.021C4.266,1.763,4.264,1.764,4.262,1.766L4.195,1.812L4.146,1.83L3.993,1.847L3.844,1.818L3.705,1.748L3.53,1.621C3.529,1.62,3.527,1.619,3.525,1.618L3.449,1.562L3.353,1.48C3.352,1.479,3.35,1.477,3.348,1.476l-0.06,-0.064C3.288,1.41,3.287,1.409,3.285,1.407l-0.051,-0.06C3.232,1.343,3.229,1.339,3.226,1.335L3.153,1.217L3.148,1.206c0,-0.002,-0.001,-0.004,-0.002,-0.005L3.119,1.134C3.118,1.132,3.117,1.129,3.116,1.127l-0.021,-0.05l0,-0.003c0,-0.005,-0.001,-0.009,-0.002,-0.013L3.078,0.992002l0.003,-0.0859997l0.044,-0.146l0.015,-0.025c0.001,-0.001,0.002,-0.003,0.003,-0.005l0.062,-0.101l0.11,-0.103c0.001,0,0.002,-0.001,0.002,-0.002l0.136,-0.072l0.139,-0.039l0.145,-0.016l0.171,0c0.005,0,0.011,-0.001,0.015,-0.003c0.001,0,0.001,0,0.001,0l0,0c0.001,0,0.001,0,0.001,0l0,0c0.003,-0.001,0.005,-0.003,0.007,-0.005c0.005,-0.003,0.00799999,-0.00799999,0.01,-0.013l0,0l0,0c0.002,-0.003,0.002,-0.006,0.003,-0.01c0,-0.00799999,-0.002,-0.016,-0.006,-0.022l0,0c0,0,-0.001,0,-0.001,0C3.938,0.339,3.938,0.337,3.937,0.336L3.93,0.33c0,-0.001,-0.001,-0.001,-0.001,-0.002L3.928,0.328C3.927,0.325,3.927,0.325,3.924,0.324L3.802,0.229C3.798,0.224,3.795,0.224,3.793,0.224L3.65,0.162l0,0c0,0,0,0,-0.001,0l-0.1,-0.042L3.521,0.105C3.519,0.104,3.517,0.103,3.514,0.103L3.485,0.0889999c-0.002,0,-0.004,-0.001,-0.006,-0.002c0,0,0,0,0,0l0,0L3.253,0.031C3.25,0.03,3.246,0.029,3.242,0.029L3.231,0.026C3.229,0.025,3.226,0.025,3.225,0.025L2.97,0C2.969,0,2.967,0,2.966,0l0,0C2.965,0,2.963,0,2.962,0L2.717,0.019c0,0,-0.001,0,-0.001,0c-0.002,0,-0.005,0,-0.007,0.001L2.678,0.029c-0.003,0,-0.007,0.001,-0.01,0.003L2.473,0.0850003C2.47,0.0859997,2.468,0.09,2.465,0.0879998L2.288,0.177c0,0,0,0,-0.001,0L2.245,0.198c-0.001,0,-0.001,0,-0.002,0.001c0,0,0,0,0,0C2.242,0.2,2.24,0.201,2.239,0.202L2.02,0.359C2.018,0.36,2.017,0.361,2.015,0.363L1.829,0.54C1.827,0.541,1.825,0.543,1.823,0.545L1.818,0.55c0,0.001,-0.001,0.002,-0.002,0.002C1.815,0.553,1.814,0.555,1.813,0.556L1.716,0.691c0,0,0,0,0,0.001L1.692,0.725998C1.691,0.726998,1.69,0.727999,1.69,0.729C1.688,0.731002,1.688,0.733003,1.687,0.734998L1.673,0.770998c0,0.001,-0.001,0.002,-0.001,0.004L1.646,0.841003c0,0.001,-0.001,0.003,-0.002,0.005L1.612,0.930002C1.611,0.931997,1.611,0.933998,1.61,0.936c0,0.001,0,0.002,0,0.004L1.584,1.147c0,0.001,0,0.003,0,0.004c0,0.002,0,0.004,0,0.006l0.00799999,0.059c0,0.003,0,0.006,0.001,0.009l0.00799999,0.061c0,0,0,0.001,0,0.002c0,0.004,0.001,0.00799999,0.002,0.012l0.009,0.063c0,0.001,0,0.002,0,0.004c0,0.002,0.001,0.003,0.002,0.005l0,0c0,0,0,0,0,0L1.643,1.44c0.001,0.004,0.002,0.00799999,0.004,0.012l0.025,0.063c0,0.002,0.001,0.005,0.003,0.007l0.019,0.046c0,0.002,0.001,0.004,0.003,0.006c0,0,0,0.001,0.001,0.002l0.157,0.233c0.001,0.003,0.003,0.005,0.005,0.00799999l0.043,0.064C1.906,1.884,1.908,1.887,1.91,1.889L2,2.022c0.002,0.005,0.004,0.009,0.00799999,0.012l0.026,0.039c0.002,0.003,0.003,0.004,0.004,0.005l0.022,0.024c0.001,0.002,0.003,0.004,0.006,0.006l0.062,0.066C2.13,2.176,2.132,2.178,2.133,2.179l0.13,0.139C2.266,2.32,2.268,2.323,2.271,2.325l0.062,0.066c0.001,0.002,0.003,0.003,0.005,0.005l0.064,0.068c0,0,0.001,0.001,0.001,0.001l0.122,0.139c0.002,0.002,0.004,0.004,0.006,0.006l0.023,0.027l0.068,0.142L2.64,2.874c0,0.004,0.001,0.007,0.002,0.011l0.01,0.052L2.639,3.094L2.587,3.242L2.498,3.373L2.377,3.476L2.223,3.56L2.057,3.615L1.884,3.644l-0.201,-0.01L1.676,3.631c-0.001,0,-0.002,0,-0.003,0L1.49,3.574L1.354,3.492C1.352,3.49,1.35,3.489,1.347,3.488L1.319,3.471L1.231,3.377L1.172,3.263L1.148,3.158c0,-0.003,-0.001,-0.006,-0.002,-0.009l0,-0.124c0,-0.001,0,-0.002,0,-0.003l0.026,-0.115l0.021,-0.04l0.033,-0.032L1.23,2.832C1.232,2.831,1.234,2.83,1.236,2.828l0.224,-0.162l0.038,-0.021l0.039,-0.00799999l0.044,0.004c0.001,0,0.002,0,0.003,0c0.019,0,0.034,-0.014,0.036,-0.033c0.001,-0.012,-0.003,-0.023,-0.012,-0.03l0,0l0,0c0,0,0,0,0,0l0,0c0,0,0,0,0,0c0,0,0,0,0,0s0,0,0,0c0,0,0,0,0,0s0,0,0,0s0,0,0,0l0,0C1.6,2.574,1.595,2.572,1.589,2.571L1.453,2.549c0,0,0,0,-0.001,0c-0.001,0,-0.001,0,-0.002,0L1.184,2.528c-0.001,0,-0.002,0,-0.003,0s-0.002,0,-0.003,0L0.912002,2.549c-0.001,0,-0.002,0,-0.003,0c0,0,0,0,0,0l0,0c-0.001,0,-0.002,0,-0.003,0L0.707,2.602c0,0,-0.001,0,-0.002,0.001c0,0,0,0,0,0c-0.002,0,-0.004,0.001,-0.005,0.002l-0.182,0.09C0.515,2.696,0.513,2.697,0.51,2.7L0.349,2.825C0.348,2.826,0.347,2.826,0.346,2.827C0.344,2.828,0.343,2.83,0.342,2.831L0.21,2.986c0,0,0,0,-0.001,0.001l0,0C0.208,2.99,0.206,2.991,0.205,2.993L0.204,2.997C0.202,2.999,0.201,3,0.2,3.002L0.0930002,3.199c0,0,-0.001,0.001,-0.001,0.003C0.09,3.204,0.09,3.206,0.0889999,3.207L0.0859997,3.219C0.0850003,3.221,0.0840002,3.223,0.0840002,3.226L0.021,3.433c0,0.001,0,0.001,-0.001,0.002c0,0.002,0,0.004,-0.001,0.006L0.00799999,3.585c0,0.002,-0.001,0.005,-0.001,0.00799999c0,0,0,0.001,0,0.002L0.002,3.658c0,0.002,-0.001,0.005,-0.001,0.007c0,0,0,0.001,0,0.001l0,0.011l0,0C0,3.678,0,3.679,0,3.68l0,4.296C0,7.97897,0,7.97998,0,7.98199c0,0.001,0,0.001,0,0.001c0,0.002,0.001,0.004,0.001,0.006l0,0L0.001,7.98998C0.004,7.99502,0.00799999,7.99999,0.012,8.00503c0.007,0.006,0.016,0.009,0.024,0.009c0.001,0,0.003,0,0.004,0c0,0,0,0,0,0c0.007,-0.004,0.013,-0.006,0.02,-0.01c0.001,-0.001,0.002,-0.002,0.003,-0.003L0.118,7.94002C0.12,7.938,0.122,7.93598,0.124,7.93397l0.25,-0.281C0.375,7.65,0.377,7.64698,0.379,7.64597L0.437,7.58002C0.44,7.578,0.442,7.57498,0.444,7.57202l0.123,-0.139c0.001,0,0.001,-0.001,0.002,-0.002l0.061,-0.068C0.631,7.362,0.633,7.35998,0.635,7.35703l0.185,-0.208c0.004,-0.002,0.007,-0.006,0.01,-0.011l0.057,-0.063C0.887998,7.073,0.888998,7.072,0.891,7.07l0.185,-0.209c0.004,-0.003,0.007,-0.006,0.01,-0.01l0.057,-0.064c0.002,-0.002,0.003,-0.003,0.005,-0.005l0.059,-0.066C1.208,6.714,1.21,6.711,1.211,6.708l0.057,-0.062C1.271,6.643,1.273,6.64,1.275,6.637l0.056,-0.063c0.003,-0.003,0.007,-0.006,0.009,-0.01l0.057,-0.064c0.001,-0.002,0.003,-0.003,0.004,-0.005l0.042,-0.047L1.54,6.359c0.004,-0.002,0.007,-0.005,0.01,-0.009l0.136,-0.124l0.257,-0.153C1.944,6.072,1.946,6.071,1.947,6.07l0.02,-0.012l0.099,-0.035L2.17,6.005l0.645,0c0,-0.001,0.002,-0.001,0.004,0L3.204,5.97c0.001,0,0.003,0,0.004,-0.001c0,0,0,0,0,0c0.001,0,0.002,0,0.003,-0.001l0.373,-0.104c0.001,-0.001,0.003,-0.001,0.005,-0.002c0,0,0.001,-0.001,0.002,-0.001l0.004,-0.002c0.003,-0.001,0.006,-0.003,0.009,-0.004l0.139,-0.068c0.004,-0.001,0.007,-0.003,0.01,-0.005l0.141,-0.068c0.001,0,0.003,-0.001,0.004,-0.002l0.041,-0.021c0.002,0,0.003,-0.001,0.005,-0.002c0.001,0,0.001,-0.001,0.002,-0.001l0.168,-0.119c0.004,-0.002,0.007,-0.004,0.01,-0.007l0.149,-0.105c0.002,-0.001,0.004,-0.002,0.005,-0.004l0.292,-0.274c0.002,-0.002,0.003,-0.003,0.004,-0.005l0.0940003,-0.117c0.001,-0.001,0.001,-0.001,0.001,-0.002l0.056,-0.069C4.725,4.984,4.727,4.982,4.728,4.98L4.78,4.914C4.782,4.912,4.784,4.91,4.785,4.907l0.037,-0.046c0.001,-0.002,0.002,-0.003,0.003,-0.005c0,0,0,0,0.001,0L4.826,4.855l0.05,-0.0879998c0.002,-0.003,0.004,-0.006,0.005,-0.01L4.959,4.62C4.96,4.619,4.96,4.617,4.961,4.616L4.998,4.55C5,4.547,5.002,4.544,5.003,4.542l0.036,-0.063c0.002,-0.002,0.003,-0.004,0.004,-0.007l0.036,-0.064c0.002,-0.003,0.004,-0.006,0.006,-0.01l0.01,-0.018c0,-0.001,0.001,-0.001,0.001,-0.002c0,0.001,0.002,-0.002,0.002,-0.004l0.039,-0.113c0.002,-0.004,0.004,-0.00799999,0.004,-0.013l0.021,-0.062C5.163,4.182,5.164,4.18,5.165,4.177l0.047,-0.136c0.001,-0.003,0.002,-0.006,0.003,-0.009l0.022,-0.063c0.001,-0.002,0.001,-0.004,0.002,-0.007l0.021,-0.062c0.002,-0.004,0.004,-0.00799999,0.005,-0.013l0.01,-0.029c0,-0.001,0.001,-0.002,0.001,-0.004c0,-0.001,0,-0.002,0.001,-0.003l0.004,-0.03c0.001,-0.003,0.002,-0.007,0.002,-0.01l0.01,-0.064c0,-0.002,0.001,-0.004,0.001,-0.007l0.01,-0.065c0,-0.002,0.001,-0.004,0.001,-0.005l0.042,-0.281c0.001,-0.003,0.002,-0.006,0.002,-0.01l0.01,-0.064c0,-0.003,0.001,-0.006,0.001,-0.009c0,-0.001,0,-0.002,0,-0.003L5.357,3.235z"/>
  </g>
 </g>
</svg>
