<?xml version='1.0' encoding='utf-8'?>
<!DOCTYPE svg PUBLIC '-//W3C//DTD SVG 1.1//EN' 'http://www.w3.org/Graphics/SVG/1.1/DTD/svg11.dtd'>
<!-- Generator: Adobe Illustrator 15.0.1, SVG Export Plug-In . SVG Version: 6.00 Build 0)  -->
<svg xmlns="http://www.w3.org/2000/svg" width="0.787403in" xml:space="preserve" xmlns:xml="http://www.w3.org/XML/1998/namespace" x="0px" version="1.1" y="0px" height="0.787403in" viewBox="0 0 56.693 56.693" id="Ebene_1" enable-background="new 0 0 56.693 56.693">
 <desc >Fritzing breadboard generated by brd2svg</desc>
 <g  id="breadboard">
  <g  id="icon">
   <path  fill="#672E58" d="M0,28.346c-0.029,15.655,12.638,28.37,28.293,28.399c15.656,0.029,28.371-12.638,28.4-28.293c0-0.035,0-0.071,0-0.106C56.722,12.691,44.055-0.024,28.4-0.053C12.744-0.082,0.029,12.585,0,28.24C0,28.275,0,28.311,0,28.346z M16.157,34.724c0-0.626,0.507-1.134,1.134-1.135c0.626,0,1.134,0.507,1.135,1.133c0,0.001,0,0.001,0,0.002c0,0.626-0.507,1.134-1.134,1.135c-0.626,0-1.134-0.507-1.135-1.133C16.157,34.725,16.157,34.725,16.157,34.724z M33.591,17.292c-0.001-0.627,0.507-1.135,1.133-1.135c0.626-0.001,1.135,0.506,1.135,1.133c0,0,0,0.001,0,0.002c0.001,0.626-0.507,1.134-1.133,1.134C34.099,18.427,33.591,17.92,33.591,17.292L33.591,17.292z M6.803,17.717c-0.001-1.723,1.395-3.119,3.116-3.119c1.723-0.001,3.119,1.395,3.12,3.116c0,0.001,0,0.002,0,0.003c0,1.722-1.396,3.118-3.118,3.118C8.199,20.835,6.803,19.438,6.803,17.717z M43.625,38.976c0-1.722,1.396-3.118,3.118-3.118c1.723,0,3.118,1.396,3.118,3.118s-1.396,3.118-3.118,3.118C45.021,42.094,43.625,40.698,43.625,38.976z"/>
   <g >
    <title >layer 1</title>
    <g >
     <title >element:B1</title>
     <g >
      <title >package:BUZZER-CCV</title>
     </g>
    </g>
    <g >
     <title >element:U$1</title>
     <g >
      <title >package:PETAL-NOHOLE-2SIDE</title>
      <g >
       <title >polygon</title>
       <g >
        <path  fill="#FFFFFF" d="M48.7,24.747c-0.03,0-0.062-0.005-0.092-0.015l0,0h-0.001h-0.001l0,0c-0.001,0-0.001,0-0.001,0h-0.001l0,0h-0.001l0,0c-0.002-0.001-0.005-0.002-0.007-0.003l0,0h-0.001l0,0h-0.001c0,0,0,0-0.002,0l0,0h-0.001l0,0c-0.029-0.013-0.057-0.028-0.079-0.048l0,0c0,0,0,0-0.001,0c-0.021-0.02-0.041-0.041-0.058-0.067l0,0l0,0c-0.001,0-0.001-0.001-0.002-0.002l0,0c-0.001-0.002-0.002-0.004-0.004-0.006l0,0l0,0l0,0c-0.001,0-0.001,0-0.001-0.001l0,0l0,0c0,0,0,0-0.001,0c-0.021-0.037-0.031-0.076-0.034-0.115c-0.003-0.036,0.001-0.072,0.012-0.108l0,0l0,0c0.001-0.004,0.003-0.007,0.005-0.011l0.388-1.125l0.221-1.149l0.056-1.171l-0.111-1.166l-0.276-1.138l-0.435-1.087l-0.586-1.014L46.96,15.6l-0.847-0.81l-0.954-0.679l-1.041-0.537l-1.105-0.384l-1.17-0.228c-0.04-0.008-0.078-0.023-0.11-0.047c-0.028-0.02-0.054-0.045-0.074-0.076l0,0l0,0c-0.008-0.011-0.015-0.022-0.021-0.035c-0.011-0.021-0.018-0.042-0.021-0.063l0,0l0,0c-0.008-0.036-0.008-0.075-0.001-0.114c0.009-0.042,0.025-0.079,0.048-0.111c0.021-0.028,0.046-0.055,0.077-0.074c0.004-0.002,0.007-0.004,0.01-0.006l0.873-0.53c0.009-0.005,0.019-0.011,0.026-0.015c0.008-0.003,0.015-0.008,0.021-0.011l0.941-0.39c0.009-0.004,0.018-0.007,0.027-0.01c0.008-0.002,0.017-0.005,0.024-0.007l0.99-0.24c0.008-0.002,0.016-0.004,0.023-0.005c0.01-0.002,0.02-0.003,0.028-0.004l1.015-0.087c0.011-0.001,0.024-0.007,0.029-0.001c0.009,0,0.018,0,0.025,0.001l1.016,0.069c0.009,0,0.02,0.001,0.028,0.003c0.009,0.001,0.017,0.003,0.025,0.005l0.993,0.225c0.01,0.002,0.02,0.004,0.027,0.007c0.009,0.002,0.017,0.005,0.024,0.009l0.946,0.373c0.01,0.003,0.02,0.007,0.027,0.012c0.008,0.004,0.015,0.009,0.021,0.013l0.882,0.515c0.007,0.004,0.014,0.008,0.021,0.013c0.008,0.007,0.017,0.013,0.023,0.019l0.791,0.642c0.007,0.005,0.014,0.011,0.02,0.018c0.007,0.007,0.014,0.014,0.021,0.021l0.683,0.755c0.007,0.007,0.013,0.015,0.019,0.022c0.006,0.007,0.011,0.014,0.016,0.021l0.561,0.853c0.004,0.006,0.008,0.012,0.012,0.018s0.007,0.012,0.011,0.02l0.457,0.911c0.004,0.009,0.008,0.017,0.012,0.023c0.003,0.009,0.007,0.018,0.009,0.027l0.312,0.969c0.003,0.008,0.005,0.016,0.007,0.024l0,0l0,0c0.003,0.009,0.005,0.019,0.006,0.027l0.161,1.006c0.002,0.01,0.003,0.019,0.004,0.027s0.001,0.019,0.001,0.028l0.005,1.018c0,0.009,0,0.02-0.001,0.028s-0.002,0.018-0.003,0.025L52.76,19.89c-0.002,0.009-0.003,0.017-0.005,0.025s-0.005,0.02-0.008,0.027l-0.304,0.973c-0.002,0.008-0.005,0.018-0.009,0.024c-0.003,0.009-0.007,0.018-0.012,0.025l-0.447,0.914c-0.004,0.01-0.009,0.018-0.014,0.025s-0.01,0.015-0.015,0.021l-0.582,0.836c-0.005,0.007-0.011,0.015-0.017,0.021c-0.007,0.007-0.013,0.014-0.019,0.021l-0.704,0.736c-0.006,0.007-0.013,0.014-0.02,0.021s-0.015,0.012-0.021,0.017l-0.807,0.62c-0.007,0.005-0.014,0.01-0.021,0.015c-0.007,0.005-0.016,0.011-0.023,0.015l-0.897,0.492c-0.036,0.021-0.074,0.031-0.112,0.035h-0.001l0,0C48.717,24.746,48.708,24.747,48.7,24.747z"/>
       </g>
      </g>
     </g>
    </g>
    <g >
     <title >element:U$2</title>
     <g >
      <title >package:LOGO-LILYPAD</title>
     </g>
    </g>
    <g >
     <title >element:U$4</title>
     <g >
      <title >package:PETAL-NOHOLE-2SIDE</title>
      <g >
       <title >polygon</title>
       <g >
        <path  fill="#FFFFFF" d="M35.149,9.075c-0.031-0.001-0.084-0.009-0.123-0.027l0,0l0,0c-0.034-0.016-0.065-0.039-0.092-0.068l0,0c0.001,0.001-0.001-0.001-0.003-0.004l-0.78-0.898L33.265,7.31L32.28,6.677l-1.065-0.486l-1.124-0.329l-1.157-0.167H27.76l-1.157,0.167l-1.124,0.329l-1.066,0.486L23.427,7.31l-0.886,0.766l-0.779,0.898c-0.002,0.002-0.004,0.004-0.004,0.004l0,0c-0.025,0.028-0.057,0.052-0.09,0.066c-0.037,0.02-0.077,0.029-0.125,0.029c-0.037,0-0.07-0.007-0.104-0.019l0,0h-0.001c-0.022-0.01-0.043-0.021-0.062-0.034l0,0c0,0,0-0.001-0.001-0.001l0,0c-0.009-0.007-0.018-0.015-0.025-0.021c-0.028-0.025-0.051-0.057-0.066-0.09c-0.015-0.032-0.025-0.068-0.027-0.104c0-0.005,0-0.009,0-0.013L21.233,7.77c0-0.008,0-0.017,0-0.024c0-0.01,0.001-0.021,0.003-0.03l0.134-1.009c0.001-0.009,0.002-0.019,0.005-0.027c0.001-0.009,0.004-0.018,0.006-0.025l0.286-0.978c0.002-0.009,0.005-0.019,0.009-0.027c0.004-0.008,0.007-0.016,0.011-0.022l0.432-0.923c0.004-0.008,0.008-0.016,0.013-0.023c0.004-0.009,0.01-0.017,0.016-0.023l0.567-0.845c0.007-0.01,0.013-0.018,0.02-0.025c0.005-0.006,0.01-0.012,0.015-0.017l0.692-0.749C23.445,3.012,23.451,3.006,23.458,3c0.006-0.006,0.014-0.012,0.021-0.018l0.796-0.634c0.008-0.007,0.016-0.013,0.023-0.019c0.008-0.004,0.015-0.009,0.021-0.013l0.885-0.505c0.007-0.004,0.016-0.01,0.023-0.014s0.017-0.007,0.024-0.011l0.952-0.363c0.008-0.003,0.018-0.006,0.025-0.009c0.009-0.003,0.018-0.005,0.026-0.007l0.995-0.213c0.011-0.002,0.021-0.004,0.029-0.005c0.008-0.001,0.017-0.002,0.025-0.002l1.018-0.06c0.007,0,0.021-0.001,0.021-0.001c0.001,0.001,0.014,0,0.021,0.001l1.018,0.06c0.01,0,0.018,0.001,0.025,0.002c0.01,0.001,0.021,0.003,0.028,0.005l0.996,0.213c0.009,0.002,0.018,0.004,0.026,0.007c0.008,0.002,0.018,0.005,0.024,0.009l0.951,0.363c0.009,0.003,0.018,0.007,0.025,0.011s0.017,0.009,0.023,0.014l0.885,0.505c0.007,0.004,0.014,0.008,0.021,0.013c0.008,0.006,0.016,0.012,0.022,0.019l0.797,0.634C33.221,2.988,33.228,2.993,33.235,3s0.013,0.014,0.019,0.02l0.691,0.749c0.006,0.005,0.011,0.011,0.016,0.017c0.007,0.008,0.014,0.017,0.02,0.025l0.567,0.845c0.006,0.007,0.011,0.015,0.016,0.022c0.004,0.009,0.009,0.017,0.012,0.024l0.433,0.922c0.005,0.008,0.008,0.017,0.012,0.024c0.003,0.009,0.006,0.018,0.008,0.025l0.288,0.979c0.002,0.008,0.004,0.016,0.006,0.023l0,0l0,0c0.002,0.01,0.004,0.02,0.005,0.029l0.134,1.009c0.001,0.01,0.002,0.02,0.003,0.028c0,0.009,0,0.018,0,0.027L35.44,8.79c0,0.004,0,0.008-0.001,0.012c-0.002,0.037-0.011,0.071-0.025,0.104c-0.017,0.036-0.041,0.07-0.073,0.098c-0.002,0.001-0.004,0.003-0.006,0.005l0,0c0,0-0.001,0-0.001,0.001l0,0c-0.023,0.021-0.051,0.035-0.078,0.046c-0.001,0-0.001,0-0.001,0h-0.001C35.219,9.068,35.185,9.075,35.149,9.075z"/>
       </g>
      </g>
     </g>
    </g>
    <g >
     <title >element:U$6</title>
     <g >
      <title >package:PETAL-NOHOLE-2SIDE</title>
      <g >
       <title >polygon</title>
       <g >
        <path  fill="#FFFFFF" d="M28.347,55.563C28.346,55.563,28.346,55.563,28.347,55.563c0,0.001-0.015,0-0.021-0.001l-1.018-0.059c-0.01-0.001-0.019-0.001-0.026-0.003c-0.01-0.001-0.019-0.003-0.028-0.005l-0.995-0.215c-0.01-0.001-0.02-0.004-0.028-0.007c-0.008-0.002-0.016-0.005-0.023-0.008l-0.951-0.364c-0.009-0.003-0.018-0.007-0.025-0.011s-0.017-0.009-0.023-0.013l-0.885-0.505c-0.008-0.005-0.017-0.01-0.025-0.016c-0.007-0.005-0.014-0.01-0.02-0.016l-0.797-0.634c-0.007-0.006-0.016-0.012-0.022-0.019c-0.006-0.006-0.012-0.013-0.018-0.02l-0.691-0.749c-0.006-0.007-0.012-0.013-0.018-0.02c-0.006-0.008-0.011-0.017-0.017-0.023l-0.567-0.845c-0.005-0.008-0.01-0.015-0.016-0.023c-0.005-0.008-0.009-0.016-0.013-0.023l-0.432-0.922c-0.003-0.008-0.007-0.017-0.011-0.023c-0.004-0.009-0.007-0.019-0.009-0.027l-0.286-0.978c-0.002-0.008-0.005-0.017-0.007-0.024c-0.002-0.009-0.003-0.02-0.004-0.027l-0.134-1.01c-0.001-0.011-0.002-0.021-0.003-0.029c0-0.009,0-0.017,0-0.025l0.022-1.022c0-0.002,0-0.004,0-0.006c0.001-0.038,0.011-0.075,0.025-0.107c0.017-0.037,0.041-0.07,0.074-0.099c0.028-0.025,0.062-0.044,0.097-0.057c0.023-0.008,0.048-0.013,0.074-0.014l0,0c0.004,0.002,0.012-0.001,0.017-0.001c0.004,0,0.01,0,0.015,0c0.038,0.002,0.073,0.012,0.105,0.026c0.036,0.017,0.07,0.041,0.099,0.072l0.779,0.9l0.887,0.766l0.984,0.633l1.066,0.486l1.124,0.329l1.158,0.167h1.172l1.157-0.167l1.124-0.329l1.065-0.486l0.985-0.633l0.886-0.766l0.78-0.9c0.026-0.03,0.06-0.056,0.096-0.071c0.033-0.017,0.069-0.025,0.107-0.027c0.012,0,0.021-0.001,0.03,0.001c0,0,0,0,0.001,0l0,0c0.025,0.001,0.05,0.006,0.073,0.014c0.001,0,0.001,0,0.001,0l0,0c0.03,0.012,0.059,0.025,0.084,0.046h0.001l0,0c0.005,0.005,0.009,0.008,0.013,0.012c0.031,0.026,0.056,0.06,0.071,0.095c0.016,0.033,0.025,0.07,0.027,0.11c0,0.002,0,0.004,0,0.006l0.022,1.022c0,0.01,0,0.019,0,0.026c-0.001,0.01-0.002,0.02-0.003,0.028l-0.134,1.009c-0.001,0.01-0.003,0.02-0.005,0.029l0,0l0,0c-0.002,0.009-0.004,0.017-0.006,0.023l-0.288,0.979c-0.002,0.009-0.005,0.018-0.008,0.025c-0.004,0.009-0.008,0.018-0.012,0.024l-0.433,0.922c-0.004,0.009-0.008,0.017-0.012,0.023c-0.005,0.01-0.011,0.017-0.016,0.023l-0.567,0.845c-0.005,0.009-0.012,0.017-0.018,0.023s-0.012,0.013-0.018,0.02l-0.691,0.749c-0.006,0.007-0.012,0.014-0.018,0.02c-0.007,0.007-0.016,0.013-0.022,0.019l-0.797,0.634c-0.006,0.006-0.013,0.011-0.02,0.016c-0.009,0.006-0.018,0.011-0.025,0.016l-0.884,0.505c-0.008,0.004-0.017,0.009-0.023,0.013c-0.009,0.005-0.018,0.008-0.025,0.011l-0.951,0.364c-0.008,0.003-0.017,0.006-0.023,0.008c-0.01,0.003-0.019,0.006-0.027,0.007l-0.996,0.215c-0.009,0.002-0.02,0.004-0.028,0.005c-0.009,0.002-0.018,0.002-0.025,0.003l-1.019,0.059C28.361,55.563,28.354,55.563,28.347,55.563z"/>
       </g>
      </g>
     </g>
    </g>
    <g >
     <title >element:U$7</title>
     <g >
      <title >package:PETAL-NOHOLE-2SIDE</title>
      <g >
       <title >polygon</title>
       <g >
        <path  fill="#FFFFFF" d="M10.941,45.563c-0.008,0-0.017,0-0.024-0.001l-1.016-0.069c-0.009-0.001-0.02-0.002-0.028-0.003c-0.009-0.002-0.018-0.003-0.025-0.005L8.853,45.26c-0.009-0.002-0.019-0.004-0.027-0.007s-0.017-0.006-0.025-0.01L7.854,44.87c-0.009-0.003-0.018-0.007-0.025-0.011s-0.016-0.008-0.023-0.013l-0.88-0.516c-0.008-0.004-0.016-0.009-0.022-0.015c-0.007-0.005-0.015-0.01-0.021-0.017l-0.791-0.642c-0.007-0.005-0.014-0.011-0.021-0.017c-0.007-0.008-0.013-0.015-0.021-0.021l-0.682-0.756c-0.007-0.008-0.014-0.016-0.02-0.023c-0.006-0.006-0.01-0.013-0.015-0.02l-0.561-0.853c-0.004-0.006-0.008-0.012-0.011-0.019c-0.004-0.006-0.008-0.012-0.011-0.019L4.294,41.02c-0.005-0.01-0.009-0.019-0.013-0.027c-0.003-0.008-0.006-0.015-0.008-0.021l-0.312-0.971c-0.003-0.008-0.005-0.016-0.007-0.023l0,0l0,0c-0.002-0.011-0.004-0.02-0.005-0.028l-0.162-1.006c-0.001-0.009-0.002-0.019-0.003-0.026c0-0.009-0.001-0.019-0.001-0.027l-0.005-1.019c0-0.009,0-0.019,0.001-0.027c0-0.009,0.001-0.019,0.003-0.026l0.15-1.007c0.001-0.011,0.003-0.021,0.006-0.03c0.001-0.008,0.004-0.016,0.006-0.022l0.304-0.974c0.002-0.008,0.005-0.017,0.008-0.024c0.003-0.009,0.008-0.018,0.013-0.024l0.446-0.915c0.005-0.009,0.01-0.018,0.015-0.025c0.004-0.007,0.009-0.015,0.014-0.021l0.582-0.835c0.005-0.008,0.011-0.016,0.016-0.022c0.007-0.007,0.013-0.014,0.019-0.02l0.704-0.738c0.006-0.006,0.012-0.012,0.018-0.018c0.007-0.008,0.016-0.014,0.023-0.02l0.807-0.62c0.007-0.006,0.015-0.011,0.023-0.016c0.007-0.005,0.015-0.01,0.021-0.014l0.898-0.493c0.036-0.021,0.075-0.03,0.112-0.034c0,0,0,0,0.001,0l0,0c0.038-0.004,0.075,0.002,0.113,0.013c0.009,0.003,0.019,0.007,0.026,0.01c0,0,0,0,0,0.001l0,0c0,0,0,0,0.001,0l0,0c0.023,0.012,0.046,0.024,0.064,0.04c0.025,0.021,0.048,0.047,0.065,0.074c0,0.001,0,0.001,0,0.001l0,0v0.001l0,0c0,0.001,0,0.001,0,0.001l0,0c0,0.001,0,0.001,0,0.001l0,0c0,0.001,0,0.001,0.001,0.001c0,0,0,0,0,0.001l0,0c0,0.001,0,0.001,0,0.001s0,0,0,0.001l0,0c0,0,0,0,0,0.001l0,0c0,0,0.003-0.009,0,0.002l0,0l0,0c0.02,0.037,0.031,0.076,0.035,0.115c0.003,0.035,0,0.072-0.012,0.108l0,0l0,0c-0.001,0.004-0.003,0.007-0.004,0.011l-0.388,1.124l-0.221,1.15L7.6,35.774l0.111,1.166l0.276,1.138l0.435,1.087l0.586,1.015L9.733,41.1l0.847,0.809l0.954,0.68l1.041,0.536l1.107,0.384l1.169,0.228c0.041,0.009,0.078,0.023,0.108,0.047c0.032,0.021,0.062,0.051,0.082,0.087c0.021,0.034,0.034,0.07,0.039,0.108l0,0l0,0c0.003,0.022,0.004,0.047,0.001,0.07l0,0l0,0c-0.001,0.012-0.003,0.021-0.005,0.03c0,0.001,0,0.001,0,0.001l0,0c-0.008,0.038-0.022,0.072-0.044,0.104c-0.021,0.03-0.049,0.058-0.083,0.079v0.001c-0.001,0.001-0.003,0.002-0.005,0.003l-0.873,0.529c-0.009,0.006-0.018,0.012-0.027,0.016c-0.007,0.004-0.014,0.007-0.021,0.01l-0.941,0.39c-0.009,0.004-0.018,0.008-0.026,0.012c-0.01,0.003-0.018,0.005-0.025,0.007l-0.991,0.238c-0.008,0.004-0.016,0.005-0.022,0.007c-0.011,0.001-0.021,0.003-0.03,0.003l-1.014,0.087C10.961,45.562,10.955,45.564,10.941,45.563z"/>
       </g>
      </g>
     </g>
    </g>
    <g >
     <title >element:U$8</title>
     <g >
      <title >package:PETAL-SMALL-2SIDE</title>
      <g >
       <title >polygon</title>
       <g >
        <path  fill="#FFFFFF" d="M7.993,24.747c-0.008,0-0.016,0-0.023-0.001l0,0l0,0c-0.037-0.003-0.074-0.014-0.109-0.032l0,0c0,0,0,0-0.001,0l0,0c0.001,0-0.002,0-0.004-0.002l-0.897-0.492c-0.007-0.004-0.015-0.008-0.021-0.013c-0.008-0.005-0.017-0.011-0.023-0.017l-0.809-0.62c-0.008-0.006-0.017-0.013-0.023-0.021c-0.006-0.005-0.012-0.011-0.018-0.017L5.36,22.795c-0.006-0.006-0.013-0.013-0.02-0.021c-0.006-0.007-0.011-0.015-0.016-0.021l-0.582-0.835c-0.005-0.007-0.01-0.014-0.014-0.021c-0.005-0.008-0.009-0.018-0.015-0.025l-0.446-0.914c-0.004-0.008-0.009-0.017-0.013-0.025c-0.003-0.009-0.006-0.017-0.008-0.024l-0.304-0.973c-0.002-0.008-0.005-0.016-0.007-0.023c-0.002-0.01-0.004-0.02-0.005-0.03l-0.15-1.007c-0.001-0.009-0.002-0.018-0.003-0.026c-0.001-0.01-0.001-0.019-0.001-0.027l0.005-1.019c0-0.009,0-0.019,0.001-0.028c0.001-0.009,0.002-0.018,0.003-0.025l0.162-1.007c0.001-0.009,0.003-0.019,0.005-0.028l0,0l0,0c0.002-0.008,0.004-0.016,0.007-0.023l0.312-0.969c0.002-0.009,0.005-0.017,0.008-0.023c0.004-0.01,0.008-0.02,0.013-0.028l0.458-0.911c0.003-0.006,0.006-0.012,0.011-0.018c0.003-0.006,0.007-0.013,0.011-0.019l0.561-0.853c0.004-0.007,0.009-0.014,0.016-0.021c0.006-0.009,0.012-0.016,0.019-0.021l0.682-0.755c0.007-0.007,0.014-0.014,0.021-0.021c0.006-0.006,0.013-0.011,0.02-0.017l0.791-0.642c0.008-0.007,0.017-0.014,0.024-0.019c0.007-0.005,0.014-0.009,0.021-0.013l0.881-0.515c0.008-0.005,0.016-0.01,0.023-0.014s0.018-0.008,0.025-0.011l0.946-0.373c0.009-0.003,0.018-0.006,0.026-0.009c0.008-0.002,0.018-0.005,0.026-0.007l0.994-0.225c0.009-0.002,0.018-0.004,0.025-0.005c0.009-0.001,0.02-0.002,0.028-0.002l1.016-0.07c0.011,0,0.022,0.003,0.027-0.001c0.009,0,0.019,0,0.028,0.001l1.014,0.087c0.01,0.002,0.02,0.003,0.03,0.005c0.008,0.001,0.016,0.003,0.022,0.005l0.991,0.239c0.008,0.003,0.017,0.005,0.025,0.008s0.018,0.006,0.026,0.01l0.941,0.39c0.008,0.003,0.015,0.006,0.021,0.01c0.01,0.006,0.019,0.011,0.027,0.016l0.873,0.53c0.004,0.002,0.008,0.005,0.012,0.007l0,0l0,0c0.03,0.02,0.056,0.045,0.075,0.072c0.021,0.031,0.038,0.066,0.046,0.104l0,0l0,0c0.002,0.01,0.004,0.021,0.005,0.031l0,0l0,0c0.002,0.023,0.002,0.048-0.001,0.07l0,0l0,0c-0.005,0.037-0.018,0.074-0.039,0.108c-0.021,0.035-0.048,0.063-0.08,0.085c-0.031,0.023-0.069,0.04-0.111,0.048l-1.169,0.228l-1.107,0.384l-1.041,0.537l-0.954,0.679l-1.992-0.09l-0.724,0.92L7.279,16.63l-0.435,1.087l0.868,2.036L7.6,20.919l0.056,1.17l0.221,1.15l0.389,1.125c0.001,0.003,0.002,0.007,0.003,0.011l0,0l0,0c0.011,0.036,0.015,0.073,0.012,0.108c-0.003,0.039-0.015,0.078-0.035,0.115l0,0l0,0c0,0,0,0,0,0.001l0,0l0,0l0,0l0,0c0,0,0,0,0,0.001l0,0c0,0,0,0,0,0.001l0,0c0,0,0,0.001-0.001,0.001l0,0v0.001l0,0c0,0,0,0,0,0.001l0,0c0,0,0,0,0,0.001l0,0l0,0c-0.017,0.026-0.037,0.051-0.06,0.07c-0.024,0.021-0.052,0.037-0.082,0.049l0,0c0,0,0,0-0.001,0l0,0c0,0,0.001,0-0.001,0l0,0H8.099l0,0c0,0,0,0-0.001,0l0,0c0,0,0,0-0.001,0l0,0c-0.001,0-0.002,0.001-0.002,0.001l0,0c0,0,0,0-0.002,0l0,0H8.093C8.056,24.742,8.024,24.747,7.993,24.747z"/>
       </g>
      </g>
     </g>
    </g>
    <g >
     <title >element:U$9</title>
     <g >
      <title >package:PETAL-SMALL-2SIDE</title>
      <g >
       <title >polygon</title>
       <g >
        <path  fill="#FFFFFF" d="M45.723,45.563c-0.003-0.004-0.021-0.001-0.03-0.002l-1.014-0.087c-0.011,0-0.021-0.002-0.029-0.003c-0.008-0.003-0.017-0.004-0.023-0.007l-0.989-0.238c-0.01-0.002-0.019-0.004-0.025-0.008c-0.01-0.003-0.02-0.007-0.027-0.011l-0.94-0.39c-0.008-0.003-0.016-0.006-0.022-0.01c-0.009-0.004-0.018-0.01-0.025-0.016l-0.872-0.529c-0.004-0.003-0.009-0.006-0.013-0.008c0-0.001-0.001-0.001-0.001-0.001l0,0c-0.029-0.021-0.056-0.045-0.075-0.072c-0.021-0.03-0.036-0.065-0.046-0.104l0,0c0,0,0,0,0-0.001c-0.002-0.008-0.004-0.017-0.005-0.025v-0.001l0,0V44.05l0,0c-0.003-0.027-0.002-0.058,0.003-0.085l0,0l0,0c0-0.001,0-0.001,0-0.001l0,0c0.005-0.024,0.014-0.051,0.025-0.074l0,0l0,0c0.005-0.011,0.01-0.021,0.017-0.028c0.021-0.032,0.045-0.059,0.074-0.078c0.032-0.023,0.07-0.04,0.112-0.049l1.169-0.228l1.105-0.384l1.041-0.536l0.954-0.68l2.278,0.09l0.724-0.921l0.586-1.014l0.436-1.087l-1.155-2.036l0.112-1.166l-0.057-1.17l-0.221-1.15L48.4,32.331c-0.002-0.006-0.004-0.011-0.005-0.016l0,0v-0.001c-0.011-0.033-0.015-0.066-0.012-0.101c0.003-0.04,0.015-0.08,0.034-0.117l0,0l0,0c0.003-0.006,0.006-0.011,0.009-0.016l0,0c0-0.001,0-0.001,0.002-0.001l0,0l0,0c0.015-0.022,0.031-0.044,0.052-0.061v-0.001l0,0c0.027-0.024,0.061-0.044,0.098-0.058c0.039-0.014,0.077-0.021,0.118-0.015c0.037,0.003,0.075,0.014,0.11,0.032c0,0.001,0,0.001,0,0.001c0.001,0,0.001,0,0.001,0c0.001,0.001,0.002,0.001,0.003,0.002l0.896,0.492c0.008,0.004,0.017,0.009,0.022,0.014c0.009,0.005,0.016,0.01,0.022,0.016l0.808,0.62c0.008,0.006,0.016,0.012,0.022,0.02c0.006,0.006,0.012,0.012,0.019,0.018l0.704,0.738c0.006,0.006,0.012,0.013,0.018,0.02c0.006,0.008,0.012,0.016,0.017,0.022l0.582,0.835c0.005,0.007,0.011,0.015,0.016,0.021c0.005,0.01,0.009,0.019,0.013,0.025l0.448,0.915c0.004,0.008,0.008,0.016,0.011,0.023c0.003,0.009,0.006,0.018,0.009,0.025l0.305,0.973c0.003,0.009,0.005,0.017,0.007,0.023c0.002,0.011,0.004,0.021,0.006,0.03l0.148,1.007c0.001,0.009,0.003,0.019,0.003,0.026c0.002,0.01,0.002,0.02,0.002,0.027l-0.006,1.019c0,0.01,0,0.02-0.001,0.027s-0.002,0.019-0.004,0.026l-0.161,1.006c-0.001,0.01-0.003,0.019-0.006,0.028l0,0c0,0,0,0,0,0.001c-0.002,0.008-0.004,0.016-0.007,0.022l-0.312,0.971c-0.002,0.008-0.006,0.015-0.009,0.021c-0.004,0.01-0.008,0.02-0.013,0.027l-0.458,0.911c-0.003,0.007-0.006,0.013-0.01,0.02c-0.003,0.006-0.007,0.012-0.011,0.019l-0.562,0.852c-0.004,0.007-0.009,0.014-0.014,0.02c-0.006,0.009-0.014,0.017-0.021,0.023l-0.683,0.756c-0.006,0.007-0.013,0.014-0.021,0.021c-0.006,0.006-0.013,0.012-0.02,0.017l-0.791,0.642c-0.007,0.007-0.015,0.012-0.021,0.017c-0.008,0.006-0.016,0.011-0.022,0.015l-0.88,0.516c-0.007,0.004-0.016,0.009-0.022,0.012c-0.009,0.005-0.018,0.009-0.025,0.012l-0.947,0.373c-0.009,0.004-0.017,0.007-0.025,0.01c-0.008,0.003-0.018,0.005-0.025,0.007l-0.994,0.226c-0.009,0.002-0.019,0.003-0.026,0.005c-0.01,0.001-0.019,0.002-0.026,0.003l-1.017,0.069C45.74,45.563,45.732,45.563,45.723,45.563z"/>
       </g>
      </g>
     </g>
    </g>
   </g>
   <g >
    <title >layer 21</title>
    <g >
     <title >text:-</title>
     <text  fill="#FFFFFF" font-family="OCRA" transform="matrix(1 0 0 1 16.1062 19.3464)" font-size="5.8464">-</text>
    </g>
    <g >
     <title >text:+</title>
     <text  fill="#FFFFFF" font-family="OCRA" transform="matrix(1 0 0 1 37.3464 42.3865)" font-size="5.8464">+</text>
    </g>
    <g >
     <title >element:B1</title>
     <g >
      <title >package:BUZZER-CCV</title>
      <path  fill="none" stroke="#FFFFFF" stroke-width="0.576" d="M31.946,16.106c-6.39-1.911-13.168,1.457-15.505,7.705"/>
      <path  fill="none" stroke="#FFFFFF" stroke-width="0.576" d="M40.226,23.667c-0.715-1.784-1.822-3.383-3.24-4.681"/>
      <path  fill="none" stroke="#FFFFFF" stroke-width="0.576" d="M35.717,38.835c2.033-1.526,3.604-3.587,4.535-5.953"/>
      <path  fill="none" stroke="#FFFFFF" stroke-width="0.576" d="M18.986,36.986c0.603,0.595,1.271,1.12,1.99,1.565"/>
      <line  fill="none" stroke="#FFFFFF" stroke-linecap="round" y1="45.354" stroke-width="0.576" x1="20.976" y2="45.354" x2="35.717"/>
      <line  fill="none" stroke="#FFFFFF" stroke-linecap="round" y1="45.354" stroke-width="0.576" x1="35.717" y2="38.835" x2="35.717"/>
      <line  fill="none" stroke="#FFFFFF" stroke-linecap="round" y1="45.354" stroke-width="0.576" x1="20.976" y2="38.552" x2="20.976"/>
     </g>
    </g>
    <g >
     <title >element:U$1</title>
     <g >
      <title >package:PETAL-NOHOLE-2SIDE</title>
     </g>
    </g>
    <g >
     <title >element:U$2</title>
     <g >
      <title >package:LOGO-LILYPAD</title>
     </g>
    </g>
    <g >
     <title >element:U$4</title>
     <g >
      <title >package:PETAL-NOHOLE-2SIDE</title>
     </g>
    </g>
    <g >
     <title >element:U$6</title>
     <g >
      <title >package:PETAL-NOHOLE-2SIDE</title>
     </g>
    </g>
    <g >
     <title >element:U$7</title>
     <g >
      <title >package:PETAL-NOHOLE-2SIDE</title>
     </g>
    </g>
    <g >
     <title >element:U$8</title>
     <g >
      <title >package:PETAL-SMALL-2SIDE</title>
     </g>
    </g>
    <g >
     <title >element:U$9</title>
     <g >
      <title >package:PETAL-SMALL-2SIDE</title>
     </g>
    </g>
   </g>
   <g  opacity="0.15">
    <g >
     <path  fill="#FFFFFF" d="M39.448,28.318c0-6.085-4.933-11.02-11.02-11.02c-6.086,0-11.02,4.935-11.02,11.02c0,3.785,1.91,7.123,4.818,9.105v6.808H34.63v-6.806C37.538,35.442,39.448,32.104,39.448,28.318z"/>
    </g>
   </g>
   <g  id="connector2pin">
    <path  fill="#9A916C" d="M9.922,15.319c1.322,0,2.398,1.076,2.398,2.398s-1.076,2.398-2.398,2.398c-1.323,0-2.399-1.076-2.399-2.398S8.599,15.319,9.922,15.319 M9.922,13.879c-2.12,0-3.839,1.718-3.839,3.838s1.719,3.838,3.839,3.838c2.119,0,3.838-1.718,3.838-3.838S12.041,13.879,9.922,13.879L9.922,13.879z"/>
   </g>
   <g  id="connector3pin">
    <path  fill="#9A916C" d="M46.743,36.579c1.322,0,2.398,1.075,2.398,2.397s-1.076,2.397-2.398,2.397s-2.397-1.075-2.397-2.397S45.421,36.579,46.743,36.579 M46.743,35.138c-2.119,0-3.838,1.718-3.838,3.838s1.719,3.838,3.838,3.838c2.12,0,3.839-1.718,3.839-3.838S48.863,35.138,46.743,35.138L46.743,35.138z"/>
   </g>
  </g>
 </g>
</svg>
