<?xml version="1.0" encoding="utf-8"?>
<!DOCTYPE svg PUBLIC "-//W3C//DTD SVG 1.1 Tiny//EN" "http://www.w3.org/Graphics/SVG/1.1/DTD/svg11-tiny.dtd">
<svg version="1.1" baseProfile="tiny" id="svg" xmlns="http://www.w3.org/2000/svg" xmlns:xlink="http://www.w3.org/1999/xlink"
	 x="0px" y="0px" width="4.32in" height="2.056in" viewBox="0 0 311.098 148.032" xml:space="preserve">
<rect id="connector0pin" x="82.638" y="4.11" width="2.774" height="2.773"/>
<rect id="connector1pin" x="89.815" y="4.11" width="2.773" height="2.773"/>
<rect id="connector2pin" x="96.993" y="4.11" width="2.773" height="2.773"/>
<rect id="connector3pin" x="104.17" y="4.11" width="2.774" height="2.773"/>
<rect id="connector4pin" x="111.349" y="4.11" width="2.773" height="2.773"/>
<rect id="connector5pin" x="118.525" y="4.11" width="2.773" height="2.773"/>
<rect id="connector6pin" x="125.704" y="4.11" width="2.774" height="2.773"/>
<rect id="connector7pin" x="132.882" y="4.11" width="2.773" height="2.773"/>
<rect id="connector8pin" x="147.428" y="4.11" width="2.772" height="2.773"/>
<rect id="connector9pin" x="154.604" y="4.11" width="2.774" height="2.773"/>
<rect id="connector10pin" x="161.782" y="4.11" width="2.773" height="2.773"/>
<rect id="connector11pin" x="168.96" y="4.11" width="2.772" height="2.773"/>
<rect id="connector12pin" x="176.137" y="4.11" width="2.774" height="2.773"/>
<rect id="connector13pin" x="183.314" y="4.11" width="2.773" height="2.773"/>
<rect id="connector14pin" x="190.492" y="4.11" width="2.772" height="2.773"/>
<rect id="connector15pin" x="197.67" y="4.11" width="2.774" height="2.773"/>
<rect id="connector16pin" x="111.433" y="140.887" width="2.774" height="2.771"/>
<rect id="connector17pin" x="118.632" y="140.887" width="2.774" height="2.771"/>
<rect id="connector18pin" x="125.83" y="140.887" width="2.774" height="2.771"/>
<rect id="connector19pin" x="133.009" y="140.887" width="2.771" height="2.771"/>
<rect id="connector20pin" x="140.186" y="140.887" width="2.774" height="2.771"/>
<rect id="connector21pin" x="147.362" y="140.887" width="2.774" height="2.771"/>
<rect id="connector22pin" x="161.825" y="140.887" width="2.772" height="2.772"/>
<rect id="connector23pin" x="169.002" y="140.887" width="2.774" height="2.772"/>
<rect id="connector24pin" x="176.18" y="140.887" width="2.773" height="2.772"/>
<rect id="connector25pin" x="183.357" y="140.887" width="2.772" height="2.772"/>
<rect id="connector26pin" x="190.534" y="140.887" width="2.774" height="2.772"/>
<rect id="connector27pin" x="197.712" y="140.887" width="2.773" height="2.772"/>
<rect id="connector28pin" x="212.262" y="4.11" width="2.773" height="2.772"/>
<rect id="connector29pin" x="219.438" y="4.11" width="2.773" height="2.772"/>
<rect id="connector30pin" x="226.616" y="4.11" width="2.773" height="2.772"/>
<rect id="connector31pin" x="233.793" y="4.11" width="2.773" height="2.772"/>
<rect id="connector32pin" x="240.971" y="4.11" width="2.773" height="2.772"/>
<rect id="connector33pin" x="248.148" y="4.11" width="2.773" height="2.772"/>
<rect id="connector34pin" x="255.326" y="4.11" width="2.773" height="2.772"/>
<rect id="connector35pin" x="262.505" y="4.11" width="2.773" height="2.772"/>
<rect id="connector36pin" x="288.415" y="14.692" width="2.773" height="2.772"/>
<rect id="connector37pin" x="295.593" y="14.692" width="2.773" height="2.772"/>
<rect id="connector38pin" x="288.415" y="21.871" width="2.773" height="2.772"/>
<rect id="connector39pin" x="295.593" y="21.871" width="2.773" height="2.772"/>
<rect id="connector40pin" x="288.415" y="29.048" width="2.773" height="2.772"/>
<rect id="connector41pin" x="295.593" y="29.048" width="2.773" height="2.772"/>
<rect id="connector42pin" x="288.415" y="36.226" width="2.773" height="2.772"/>
<rect id="connector43pin" x="295.593" y="36.226" width="2.773" height="2.772"/>
<rect id="connector44pin" x="288.415" y="43.403" width="2.773" height="2.772"/>
<rect id="connector45pin" x="295.593" y="43.403" width="2.773" height="2.772"/>
<rect id="connector46pin" x="288.415" y="50.581" width="2.773" height="2.772"/>
<rect id="connector47pin" x="295.593" y="50.581" width="2.773" height="2.772"/>
<rect id="connector48pin" x="288.416" y="57.758" width="2.773" height="2.772"/>
<rect id="connector49pin" x="295.593" y="57.758" width="2.773" height="2.772"/>
<rect id="connector50pin" x="288.414" y="64.938" width="2.773" height="2.772"/>
<rect id="connector51pin" x="295.593" y="64.938" width="2.773" height="2.772"/>
<rect id="connector52pin" x="288.413" y="72.117" width="2.773" height="2.772"/>
<rect id="connector53pin" x="295.593" y="72.117" width="2.773" height="2.772"/>
<rect id="connector54pin" x="288.418" y="79.292" width="2.773" height="2.773"/>
<rect id="connector55pin" x="295.593" y="79.292" width="2.773" height="2.773"/>
<rect id="connector56pin" x="288.419" y="86.465" width="2.773" height="2.773"/>
<rect id="connector57pin" x="295.593" y="86.465" width="2.773" height="2.773"/>
<rect id="connector58pin" x="288.416" y="93.642" width="2.773" height="2.773"/>
<rect id="connector59pin" x="295.593" y="93.642" width="2.773" height="2.773"/>
<rect id="connector60pin" x="288.415" y="100.82" width="2.773" height="2.773"/>
<rect id="connector61pin" x="295.593" y="100.82" width="2.773" height="2.773"/>
<rect id="connector62pin" x="288.415" y="107.999" width="2.773" height="2.773"/>
<rect id="connector63pin" x="295.593" y="107.999" width="2.773" height="2.773"/>
<rect id="connector64pin" x="288.416" y="115.175" width="2.773" height="2.773"/>
<rect id="connector65pin" x="295.593" y="115.175" width="2.773" height="2.773"/>
<rect id="connector66pin" x="288.415" y="122.352" width="2.773" height="2.773"/>
<rect id="connector67pin" x="295.593" y="122.352" width="2.773" height="2.773"/>
<rect id="connector68pin" x="288.416" y="129.533" width="2.773" height="2.773"/>
<rect id="connector69pin" x="295.593" y="129.533" width="2.773" height="2.773"/>
<rect id="connector70pin" x="204.89" y="140.886" width="2.773" height="2.773"/>
<rect id="connector71pin" x="212.067" y="140.886" width="2.773" height="2.773"/>
<rect id="connector72pin" x="226.527" y="140.886" width="2.773" height="2.773"/>
<rect id="connector73pin" x="233.707" y="140.886" width="2.773" height="2.773"/>
<rect id="connector74pin" x="240.884" y="140.886" width="2.773" height="2.773"/>
<rect id="connector75pin" x="248.061" y="140.886" width="2.773" height="2.773"/>
<rect id="connector76pin" x="255.237" y="140.886" width="2.773" height="2.773"/>
<rect id="connector77pin" x="262.416" y="140.886" width="2.773" height="2.773"/>
<rect id="connector78pin" x="269.57" y="140.886" width="2.773" height="2.773"/>
<rect id="connector79pin" x="276.771" y="140.886" width="2.773" height="2.773"/>
<g id="breadboard">
	<path fill="#0F7391" d="M304.173,35.918V3.694L300.186,0H21.964v148.032h282.211v-5.033l6.923-7.135V42.507L304.173,35.918z
		 M64.761,10.87c-2.525,0-4.574-2.049-4.574-4.574s2.049-4.574,4.574-4.574s4.574,2.049,4.574,4.574S67.286,10.87,64.761,10.87z
		 M272.844,2.56c1.62,0,2.936,1.317,2.936,2.938c0,1.623-1.315,2.936-2.936,2.936c-1.623,0-2.939-1.313-2.939-2.936
		C269.904,3.877,271.221,2.56,272.844,2.56z M298.077,146.552c-2.363,0-4.278-1.916-4.278-4.277c0-2.367,1.915-4.281,4.278-4.281
		c2.364,0,4.277,1.914,4.277,4.281C302.356,144.636,300.441,146.552,298.077,146.552z"/>
	<path fill="#02809E" d="M100.361,91.176c0-1.004-0.736-1.831-1.697-1.984v-0.029h-6.86c-1.112,0-2.014,0.901-2.014,2.014
		c0,1.111,0.901,2.015,2.014,2.015h6.86v-0.032C99.623,93.006,100.361,92.182,100.361,91.176z"/>
	<path fill="#02809E" d="M100.361,83.204c0-1.003-0.736-1.829-1.697-1.982V81.19h-6.86c-1.112,0-2.014,0.903-2.014,2.014
		c0,1.114,0.901,2.016,2.014,2.016h6.86v-0.031C99.623,85.036,100.361,84.208,100.361,83.204z"/>
	<path fill="#02809E" d="M100.361,99.148c0-1.002-0.736-1.828-1.697-1.982v-0.031h-6.86c-1.112,0-2.014,0.903-2.014,2.014
		c0,1.115,0.901,2.016,2.014,2.016h6.86v-0.031C99.623,100.98,100.361,100.154,100.361,99.148z"/>
	<path fill="#02809E" d="M100.361,75.234c0-1.004-0.736-1.829-1.697-1.982V73.22h-6.86c-1.112,0-2.014,0.903-2.014,2.014
		c0,1.112,0.901,2.014,2.014,2.014h6.86v-0.031C99.623,77.063,100.361,76.238,100.361,75.234z"/>
	<path fill="#02809E" d="M224.643,63.915c0-1.004-0.735-1.831-1.697-1.982v-0.031h-6.859c-1.112,0-2.014,0.901-2.014,2.014
		s0.901,2.014,2.014,2.014h6.859v-0.031C223.906,65.745,224.643,64.918,224.643,63.915z"/>
	<path fill="#02809E" d="M224.643,76.392c0-1.004-0.735-1.831-1.697-1.983v-0.03h-6.859c-1.112,0-2.014,0.902-2.014,2.013
		c0,1.113,0.901,2.016,2.014,2.016h6.859v-0.031C223.906,78.224,224.643,77.396,224.643,76.392z"/>
	<path fill="#02809E" d="M228.415,63.915c0-1.004,0.735-1.831,1.697-1.982v-0.031h6.858c1.112,0,2.013,0.901,2.013,2.014
		s-0.9,2.014-2.013,2.014h-6.858v-0.031C229.151,65.745,228.415,64.918,228.415,63.915z"/>
	<path fill="#02809E" d="M228.415,76.392c0-1.004,0.735-1.831,1.697-1.983v-0.03h6.858c1.112,0,2.013,0.902,2.013,2.013
		c0,1.113-0.9,2.016-2.013,2.016h-6.858v-0.031C229.151,78.224,228.415,77.396,228.415,76.392z"/>
	<path fill="#02809E" d="M100.361,115.091c0-1.004-0.736-1.828-1.697-1.98v-0.033h-6.86c-1.112,0-2.014,0.902-2.014,2.014
		c0,1.113,0.901,2.018,2.014,2.018h6.86v-0.035C99.623,116.923,100.361,116.099,100.361,115.091z"/>
	<path fill="#02809E" d="M100.361,107.12c0-1.004-0.736-1.828-1.697-1.98v-0.033h-6.86c-1.112,0-2.014,0.902-2.014,2.014
		c0,1.113,0.901,2.018,2.014,2.018h6.86v-0.035C99.623,108.952,100.361,108.127,100.361,107.12z"/>
	<path fill="#02809E" d="M133.891,110.999c0-1.004-0.736-1.831-1.697-1.984v-0.029h-6.861c-1.111,0-2.014,0.901-2.014,2.014
		c0,1.111,0.902,2.015,2.014,2.015h6.861v-0.032C133.152,112.829,133.891,112.004,133.891,110.999z"/>
	<path fill="#02809E" d="M133.891,118.97c0-1.002-0.736-1.828-1.697-1.982v-0.031h-6.861c-1.111,0-2.014,0.903-2.014,2.014
		c0,1.115,0.902,2.016,2.014,2.016h6.861v-0.031C133.152,120.802,133.891,119.976,133.891,118.97z"/>
	<path fill="#02809E" d="M133.891,126.942c0-1.004-0.736-1.828-1.697-1.98v-0.033h-6.861c-1.111,0-2.014,0.902-2.014,2.014
		c0,1.113,0.902,2.018,2.014,2.018h6.861v-0.035C133.152,128.774,133.891,127.95,133.891,126.942z"/>
	<path fill="#02809E" d="M100.361,35.373c0-1.004-0.736-1.829-1.697-1.981v-0.033h-6.86c-1.112,0-2.014,0.901-2.014,2.014
		s0.901,2.016,2.014,2.016h6.86v-0.034C99.623,37.204,100.361,36.379,100.361,35.373z"/>
	<path fill="#02809E" d="M100.361,27.401c0-1.004-0.736-1.829-1.697-1.981v-0.033h-6.86c-1.112,0-2.014,0.901-2.014,2.014
		s0.901,2.016,2.014,2.016h6.86v-0.034C99.623,29.231,100.361,28.407,100.361,27.401z"/>
	<path fill="#02809E" d="M66.887,21.901c0-1.004-0.736-1.829-1.697-1.981v-0.032H58.33c-1.112,0-2.015,0.901-2.015,2.013
		c0,1.112,0.902,2.017,2.015,2.017h6.859v-0.034C66.149,23.732,66.887,22.908,66.887,21.901z"/>
	<path fill="#02809E" d="M79.665,21.901c0-1.004-0.737-1.829-1.698-1.981v-0.032h-6.859c-1.112,0-2.015,0.901-2.015,2.013
		c0,1.112,0.902,2.017,2.015,2.017h6.859v-0.034C78.927,23.732,79.665,22.908,79.665,21.901z"/>
	<path fill="#02809E" d="M100.361,51.318c0-1.004-0.736-1.829-1.697-1.982v-0.031h-6.86c-1.112,0-2.014,0.901-2.014,2.014
		s0.901,2.015,2.014,2.015h6.86v-0.031C99.623,53.148,100.361,52.323,100.361,51.318z"/>
	<path fill="#02809E" d="M72.172,115.092c0-1.004-0.735-1.829-1.697-1.98v-0.033h-6.86c-1.113,0-2.014,0.902-2.014,2.014
		c0,1.113,0.9,2.016,2.014,2.016h6.859v-0.032C71.435,116.922,72.172,116.097,72.172,115.092z"/>
	<path fill="#02809E" d="M72.172,107.38c0-1.005-0.735-1.829-1.697-1.981v-0.032h-6.86c-1.113,0-2.014,0.901-2.014,2.014
		s0.9,2.016,2.014,2.016h6.859v-0.032C71.435,109.211,72.172,108.385,72.172,107.38z"/>
	<path fill="#02809E" d="M85.598,115.092c0-1.004-0.735-1.829-1.697-1.98v-0.033h-6.86c-1.113,0-2.014,0.902-2.014,2.014
		c0,1.113,0.9,2.016,2.014,2.016h6.859v-0.032C84.86,116.922,85.598,116.097,85.598,115.092z"/>
	<path fill="#02809E" d="M85.598,107.38c0-1.005-0.735-1.829-1.697-1.981v-0.032h-6.86c-1.113,0-2.014,0.901-2.014,2.014
		s0.9,2.016,2.014,2.016h6.859v-0.032C84.86,109.211,85.598,108.385,85.598,107.38z"/>
	<path fill="#02809E" d="M72.172,76.333c0-1.004-0.735-1.828-1.697-1.98V74.32h-6.86c-1.113,0-2.014,0.901-2.014,2.013
		s0.9,2.015,2.014,2.015h6.859v-0.032C71.435,78.163,72.172,77.336,72.172,76.333z"/>
	<path fill="#02809E" d="M85.598,76.333c0-1.004-0.735-1.828-1.697-1.98V74.32h-6.86c-1.113,0-2.014,0.901-2.014,2.013
		s0.9,2.015,2.014,2.015h6.859v-0.032C84.86,78.163,85.598,77.336,85.598,76.333z"/>
	<path fill="#02809E" d="M254.567,51.461c0-1.005-0.737-1.832-1.699-1.983v-0.029h-6.86c-1.111,0-2.014,0.899-2.014,2.013
		c0,1.111,0.902,2.014,2.014,2.014h6.86v-0.03C253.829,53.291,254.567,52.464,254.567,51.461z"/>
	<path fill="#02809E" d="M254.567,58.687c0-1.005-0.737-1.832-1.699-1.984v-0.029h-6.86c-1.111,0-2.014,0.9-2.014,2.013
		c0,1.111,0.902,2.014,2.014,2.014h6.86V60.67C253.829,60.517,254.567,59.689,254.567,58.687z"/>
	<path fill="#02809E" d="M254.567,44.235c0-1.005-0.737-1.832-1.699-1.984v-0.029h-6.86c-1.111,0-2.014,0.9-2.014,2.013
		c0,1.111,0.902,2.014,2.014,2.014h6.86v-0.031C253.829,46.064,254.567,45.237,254.567,44.235z"/>
	<path fill="#02809E" d="M56.561,94.259c0-1.005-0.737-1.832-1.699-1.983v-0.033h-6.859c-1.114,0-2.016,0.901-2.016,2.017
		c0,1.109,0.901,2.014,2.016,2.014h6.858v-0.031C55.822,96.088,56.561,95.262,56.561,94.259z"/>
	<path fill="#02809E" d="M56.561,100.805c0-1.005-0.737-1.83-1.699-1.984v-0.029h-6.859c-1.114,0-2.016,0.898-2.016,2.014
		c0,1.109,0.901,2.014,2.016,2.014h6.858v-0.031C55.822,102.632,56.561,101.808,56.561,100.805z"/>
	<path fill="#02809E" d="M56.561,107.35c0-1.005-0.737-1.83-1.699-1.982v-0.031h-6.859c-1.114,0-2.016,0.902-2.016,2.014
		c0,1.112,0.901,2.014,2.016,2.014h6.858v-0.031C55.822,109.18,56.561,108.356,56.561,107.35z"/>
	<rect x="29.874" y="90.8" fill="#02809E" width="20.308" height="19.302"/>
	<rect x="26.35" y="93.149" fill="#02809E" width="5.036" height="14.602"/>
	<path fill="#02809E" d="M53.726,71.425c0-1.005-0.737-1.832-1.699-1.983v-0.033h-4.025c-1.114,0-2.016,0.901-2.016,2.017
		c0,1.109,0.901,2.014,2.016,2.014h4.024v-0.031C52.988,73.254,53.726,72.428,53.726,71.425z"/>
	<path fill="#02809E" d="M53.726,77.971c0-1.005-0.737-1.83-1.699-1.984v-0.029h-4.025c-1.114,0-2.016,0.898-2.016,2.014
		c0,1.109,0.901,2.014,2.016,2.014h4.024v-0.031C52.988,79.798,53.726,78.974,53.726,77.971z"/>
	<path fill="#02809E" d="M53.726,84.516c0-1.005-0.737-1.83-1.699-1.982v-0.031h-4.025c-1.114,0-2.016,0.902-2.016,2.014
		c0,1.112,0.901,2.014,2.016,2.014h4.024v-0.031C52.988,86.346,53.726,85.522,53.726,84.516z"/>
	<rect x="38.377" y="67.966" fill="#02809E" width="8.97" height="19.302"/>
	<rect x="33.401" y="72.927" fill="#02809E" width="6.488" height="9.377"/>
	<circle fill="#02809E" cx="74.809" cy="6.078" r="1.762"/>
	<path fill="#02809E" d="M74.809,1.633c-2.457,0-4.449,1.991-4.449,4.446c0,2.458,1.992,4.447,4.449,4.447
		c2.456,0,4.448-1.99,4.448-4.447C79.256,3.623,77.265,1.633,74.809,1.633z M74.809,10.064c-2.203,0-3.987-1.785-3.987-3.986
		c0-2.201,1.785-3.986,3.987-3.986s3.985,1.785,3.985,3.986C78.794,8.28,77.01,10.064,74.809,10.064z"/>
	<circle fill="#02809E" cx="28.953" cy="141.398" r="1.762"/>
	<path fill="#02809E" d="M28.954,136.952c-2.457,0-4.45,1.992-4.45,4.447c0,2.457,1.993,4.447,4.45,4.447
		c2.454,0,4.447-1.99,4.447-4.447C33.401,138.944,31.41,136.952,28.954,136.952z M28.954,145.384c-2.204,0-3.987-1.784-3.987-3.985
		c0-2.202,1.785-3.986,3.987-3.986c2.201,0,3.984,1.784,3.984,3.986C32.939,143.6,31.155,145.384,28.954,145.384z"/>
	<circle fill="#02809E" cx="30.294" cy="24.842" r="4.28"/>
	<circle fill="#02809E" cx="30.294" cy="59.583" r="4.28"/>
	<rect x="54.797" y="33.454" fill="#02809E" width="29.952" height="20.729"/>
	<rect x="66.373" y="120.772" fill="#02809E" width="7.972" height="14.38"/>
	<rect x="93.099" y="124.844" fill="#02809E" width="11.164" height="19.077"/>
	<rect x="78.442" y="124.844" fill="#02809E" width="11.164" height="19.077"/>
	<rect x="67.987" y="83.095" fill="#02809E" width="11.865" height="16.163"/>
	<rect x="63.16" y="57.493" fill="#02809E" width="11.865" height="8.71"/>
	<rect x="139.497" y="43.478" fill="#02809E" width="46.092" height="43.271"/>
	<circle fill="#02809E" cx="52.574" cy="125.919" r="5.665"/>
	<circle fill="#02809E" cx="45.189" cy="139.682" r="5.664"/>
	<g>
		<path fill="#8D8C8C" d="M100.361,59.29c0-1.004-0.736-1.829-1.697-1.982v-0.031h-6.86c-1.112,0-2.014,0.901-2.014,2.013
			s0.901,2.015,2.014,2.015h6.86v-0.032C99.623,61.12,100.361,60.295,100.361,59.29z"/>
		<rect x="93.312" y="57.653" fill="#FBBE0E" width="3.649" height="3.21"/>
	</g>
	<g>
		<path fill="#8D8C8C" d="M100.361,43.346c0-1.004-0.736-1.829-1.697-1.982v-0.031h-6.86c-1.112,0-2.014,0.901-2.014,2.014
			s0.901,2.015,2.014,2.015h6.86v-0.032C99.623,45.176,100.361,44.351,100.361,43.346z"/>
		<rect x="93.312" y="41.709" fill="#FBBE0E" width="3.649" height="3.21"/>
	</g>
	<path fill="#8D8C8C" d="M231.132,51.461c0,1.004,0.737,1.83,1.698,1.981v0.032h6.859c1.113,0,2.015-0.901,2.015-2.014
		c0-1.112-0.901-2.015-2.015-2.015h-6.859v0.032C231.871,49.631,231.132,50.458,231.132,51.461z"/>
	<rect x="234.532" y="49.885" fill="#FBBE0E" width="3.648" height="3.21"/>
	<g>
		<path fill="#8D8C8C" d="M100.361,67.262c0-1.004-0.736-1.83-1.697-1.983v-0.031h-6.86c-1.112,0-2.014,0.903-2.014,2.014
			c0,1.113,0.901,2.015,2.014,2.015h6.86v-0.032C99.623,69.093,100.361,68.267,100.361,67.262z"/>
		<rect x="93.312" y="65.625" fill="#FBBE0E" width="3.649" height="3.21"/>
	</g>
	<rect x="218.535" y="61.594" fill="#8D8C8C" width="16.615" height="16.992"/>
	<path fill="#404040" d="M234.774,63.984c0,0.835-0.677,1.513-1.513,1.513c-0.834,0-1.512-0.675-1.512-1.513
		c0-0.832,0.675-1.513,1.512-1.513C234.098,62.474,234.774,63.153,234.774,63.984z"/>
	<path fill="#404040" d="M222.061,63.984c0,0.835-0.676,1.513-1.512,1.513c-0.837,0-1.513-0.675-1.513-1.513
		c0-0.832,0.675-1.513,1.513-1.513C221.384,62.474,222.061,63.153,222.061,63.984z"/>
	<circle fill="#404040" cx="220.549" cy="76.7" r="1.511"/>
	<circle fill="#404040" cx="233.264" cy="76.7" r="1.511"/>
	<circle fill="#404040" cx="226.528" cy="70.09" r="4.909"/>
	<polygon fill="#404040" points="208.363,59.78 204.431,59.78 201.09,59.78 197.157,59.78 195.646,61.289 195.646,65.223 
		197.157,66.732 201.09,66.732 204.431,66.732 208.363,66.732 209.875,65.223 209.875,61.289 	"/>
	<polygon fill="#404040" points="208.363,66.961 204.431,66.961 201.09,66.961 197.157,66.961 195.646,68.471 195.646,72.403 
		197.157,73.915 201.09,73.915 204.431,73.915 208.363,73.915 209.875,72.403 209.875,68.471 	"/>
	<polygon fill="#404040" points="208.363,74.14 204.431,74.14 201.09,74.14 197.157,74.14 195.646,75.651 195.646,79.584 
		197.157,81.094 201.09,81.094 204.431,81.094 208.363,81.094 209.875,79.584 209.875,75.651 	"/>
	<polygon fill="#404040" points="208.363,59.78 204.431,59.78 201.09,59.78 197.157,59.78 195.646,61.289 195.646,65.223 
		197.157,66.732 201.09,66.732 204.431,66.732 208.363,66.732 209.875,65.223 209.875,61.289 	"/>
	<polygon fill="#404040" points="208.363,66.961 204.431,66.961 201.09,66.961 197.157,66.961 195.646,68.471 195.646,72.403 
		197.157,73.915 201.09,73.915 204.431,73.915 208.363,73.915 209.875,72.403 209.875,68.471 	"/>
	<polygon fill="#404040" points="208.363,74.14 204.431,74.14 201.09,74.14 197.157,74.14 195.646,75.651 195.646,79.584 
		197.157,81.094 201.09,81.094 204.431,81.094 208.363,81.094 209.875,79.584 209.875,75.651 	"/>
	<rect x="198.055" y="76.334" fill="#8D8C8C" width="2.298" height="2.299"/>
	<rect x="205.254" y="76.334" fill="#8D8C8C" width="2.297" height="2.299"/>
	<rect x="198.055" y="69.136" fill="#8D8C8C" width="2.298" height="2.298"/>
	<rect x="205.254" y="69.136" fill="#8D8C8C" width="2.297" height="2.298"/>
	<rect x="198.055" y="61.937" fill="#8D8C8C" width="2.298" height="2.298"/>
	<rect x="205.254" y="61.937" fill="#8D8455" width="2.297" height="2.298"/>
	<rect x="205.812" y="62.495" fill="#8C8663" width="1.182" height="1.182"/>
	<polygon fill="#B8AF82" points="205.254,61.937 205.812,62.495 206.993,62.495 207.552,61.937 	"/>
	<polygon fill="#80795B" points="206.993,63.677 206.993,62.495 207.552,61.937 207.552,64.235 	"/>
	<polygon fill="#5E5B43" points="205.812,63.677 206.993,63.677 207.552,64.235 205.254,64.235 	"/>
	<polygon fill="#9A916C" points="205.254,61.937 205.812,62.495 205.812,63.677 205.254,64.235 	"/>
	<rect x="198.613" y="62.495" fill="#8C8663" width="1.182" height="1.182"/>
	<polygon fill="#B8AF82" points="198.055,61.937 198.613,62.495 199.794,62.495 200.353,61.937 	"/>
	<polygon fill="#80795B" points="199.794,63.677 199.794,62.495 200.353,61.937 200.353,64.235 	"/>
	<polygon fill="#5E5B43" points="198.613,63.677 199.794,63.677 200.353,64.235 198.055,64.235 	"/>
	<polygon fill="#9A916C" points="198.055,61.937 198.613,62.495 198.613,63.677 198.055,64.235 	"/>
	<rect x="205.812" y="69.693" fill="#8C8663" width="1.182" height="1.182"/>
	<polygon fill="#B8AF82" points="205.254,69.136 205.812,69.693 206.993,69.693 207.552,69.136 	"/>
	<polygon fill="#80795B" points="206.993,70.875 206.993,69.693 207.552,69.136 207.552,71.434 	"/>
	<polygon fill="#5E5B43" points="205.812,70.875 206.993,70.875 207.552,71.434 205.254,71.434 	"/>
	<polygon fill="#9A916C" points="205.254,69.136 205.812,69.693 205.812,70.875 205.254,71.434 	"/>
	<rect x="198.613" y="69.693" fill="#8C8663" width="1.182" height="1.182"/>
	<polygon fill="#B8AF82" points="198.055,69.136 198.613,69.693 199.794,69.693 200.353,69.136 	"/>
	<polygon fill="#80795B" points="199.794,70.875 199.794,69.693 200.353,69.136 200.353,71.434 	"/>
	<polygon fill="#5E5B43" points="198.613,70.875 199.794,70.875 200.353,71.434 198.055,71.434 	"/>
	<polygon fill="#9A916C" points="198.055,69.136 198.613,69.693 198.613,70.875 198.055,71.434 	"/>
	<rect x="205.812" y="76.892" fill="#8C8663" width="1.182" height="1.183"/>
	<polygon fill="#B8AF82" points="205.254,76.334 205.812,76.892 206.993,76.892 207.552,76.334 	"/>
	<polygon fill="#80795B" points="206.993,78.075 206.993,76.892 207.552,76.334 207.552,78.633 	"/>
	<polygon fill="#5E5B43" points="205.812,78.075 206.993,78.075 207.552,78.633 205.254,78.633 	"/>
	<polygon fill="#9A916C" points="205.254,76.334 205.812,76.892 205.812,78.075 205.254,78.633 	"/>
	<rect x="198.613" y="76.892" fill="#8C8663" width="1.182" height="1.183"/>
	<polygon fill="#B8AF82" points="198.055,76.334 198.613,76.892 199.794,76.892 200.353,76.334 	"/>
	<polygon fill="#80795B" points="199.794,78.075 199.794,76.892 200.353,76.334 200.353,78.633 	"/>
	<polygon fill="#5E5B43" points="198.613,78.075 199.794,78.075 200.353,78.633 198.055,78.633 	"/>
	<polygon fill="#9A916C" points="198.055,76.334 198.613,76.892 198.613,78.075 198.055,78.633 	"/>
	<path fill="#FFFFFF" d="M102.481,51.889v0.184c0,0.164-0.073,0.256-0.254,0.256c-0.185,0-0.255-0.093-0.255-0.256v-0.696h2.528
		v0.696c0,0.164-0.072,0.256-0.255,0.256s-0.255-0.093-0.255-0.256v-0.184h-0.495v3.215c0,0.164-0.073,0.256-0.256,0.256
		c-0.185,0-0.255-0.092-0.255-0.256v-3.215H102.481z"/>
	<path fill="#FFFFFF" d="M106.625,53.369l-0.912-1.566c-0.038-0.057-0.062-0.113-0.062-0.185c0-0.133,0.122-0.24,0.251-0.24
		c0.169,0,0.225,0.128,0.297,0.251l0.717,1.223l0.717-1.223c0.072-0.123,0.128-0.251,0.297-0.251c0.128,0,0.251,0.107,0.251,0.24
		c0,0.072-0.024,0.128-0.062,0.185l-0.913,1.566l0.913,1.566c0.037,0.056,0.062,0.112,0.062,0.185c0,0.133-0.123,0.24-0.251,0.24
		c-0.169,0-0.225-0.128-0.297-0.251l-0.717-1.223l-0.717,1.223c-0.073,0.123-0.128,0.251-0.297,0.251
		c-0.129,0-0.251-0.107-0.251-0.24c0-0.072,0.023-0.128,0.062-0.185L106.625,53.369z"/>
	<path fill="#FFFFFF" d="M104.243,42.61c0.134,0,0.254,0.072,0.254,0.255s-0.122,0.255-0.254,0.255h-2.273v-3.727
		c0-0.164,0.072-0.255,0.255-0.255c0.184,0,0.255,0.092,0.255,0.255v3.215L104.243,42.61L104.243,42.61z"/>
	<path fill="#FFFFFF" d="M102.481,60.965c0,0.165-0.073,0.256-0.254,0.256c-0.185,0-0.255-0.092-0.255-0.256v-3.727h1.72
		c0.405,0,0.809,0.287,0.809,0.742v0.353c0,0.482-0.399,0.728-0.809,0.728h-0.469l1.151,1.648c0.057,0.076,0.129,0.173,0.129,0.271
		c0,0.143-0.118,0.24-0.259,0.24c-0.104,0-0.169-0.061-0.226-0.144l-1.412-2.017h-0.118v1.904H102.481z M102.481,58.549h1.137
		c0.144,0,0.37-0.01,0.37-0.215v-0.353c0-0.205-0.211-0.23-0.364-0.23h-1.142L102.481,58.549L102.481,58.549z"/>
	<path fill="#FFFFFF" d="M106.625,59.23l-0.912-1.566c-0.038-0.057-0.062-0.113-0.062-0.185c0-0.133,0.122-0.24,0.251-0.24
		c0.169,0,0.225,0.128,0.297,0.251l0.717,1.223l0.717-1.223c0.072-0.123,0.128-0.251,0.297-0.251c0.128,0,0.251,0.107,0.251,0.24
		c0,0.072-0.024,0.128-0.062,0.185l-0.913,1.566l0.913,1.566c0.037,0.056,0.062,0.112,0.062,0.185c0,0.133-0.123,0.24-0.251,0.24
		c-0.169,0-0.225-0.128-0.297-0.251l-0.717-1.223l-0.717,1.223c-0.073,0.124-0.128,0.251-0.297,0.251
		c-0.129,0-0.251-0.107-0.251-0.24c0-0.072,0.023-0.128,0.062-0.185L106.625,59.23z"/>
	<rect y="25.387" fill="#676666" width="37.929" height="33.902"/>
	<rect x="37.93" y="25.387" fill="#676666" width="8.055" height="33.902"/>
	<rect x="15.104" y="115.471" width="37.26" height="23.83"/>
	<rect x="14.77" y="114.129" width="7.721" height="26.182"/>
	<rect x="80.435" y="1.908" fill="#404040" width="7.179" height="7.178"/>
	<rect x="82.638" y="4.11" width="2.774" height="2.773"/>
	<polygon fill="#2A2A29" points="81.615,3.087 82.638,4.11 85.411,4.11 86.433,3.087 	"/>
	<polygon fill="#474747" points="86.434,3.087 85.411,4.113 85.411,6.885 86.434,7.906 	"/>
	<polygon fill="#595959" points="86.433,7.906 85.411,6.885 82.637,6.885 81.615,7.906 	"/>
	<polygon fill="#373737" points="81.614,7.906 82.637,6.883 82.637,4.11 81.614,3.087 	"/>
	<rect x="87.613" y="1.908" fill="#404040" width="7.177" height="7.178"/>
	<rect x="89.815" y="4.11" width="2.773" height="2.773"/>
	<polygon fill="#2A2A29" points="88.792,3.087 89.814,4.11 92.588,4.11 93.611,3.087 	"/>
	<polygon fill="#474747" points="93.611,3.087 92.588,4.113 92.588,6.885 93.611,7.906 	"/>
	<polygon fill="#595959" points="93.609,7.906 92.588,6.885 89.814,6.885 88.792,7.906 	"/>
	<polygon fill="#373737" points="88.791,7.906 89.814,6.883 89.814,4.11 88.791,3.087 	"/>
	<rect x="94.79" y="1.908" fill="#404040" width="7.18" height="7.178"/>
	<rect x="96.993" y="4.11" width="2.773" height="2.773"/>
	<polygon fill="#2A2A29" points="95.97,3.087 96.992,4.11 99.767,4.11 100.789,3.087 	"/>
	<polygon fill="#474747" points="100.789,3.087 99.767,4.113 99.767,6.885 100.789,7.906 	"/>
	<polygon fill="#595959" points="100.788,7.906 99.766,6.885 96.991,6.885 95.97,7.906 	"/>
	<polygon fill="#373737" points="95.969,7.906 96.991,6.883 96.991,4.11 95.969,3.087 	"/>
	<rect x="101.968" y="1.908" fill="#404040" width="7.178" height="7.178"/>
	<rect x="104.17" y="4.11" width="2.774" height="2.773"/>
	<polygon fill="#2A2A29" points="103.147,3.087 104.17,4.11 106.943,4.11 107.967,3.087 	"/>
	<polygon fill="#474747" points="107.967,3.087 106.943,4.113 106.943,6.885 107.967,7.906 	"/>
	<polygon fill="#595959" points="107.965,7.906 106.943,6.885 104.169,6.885 103.147,7.906 	"/>
	<polygon fill="#373737" points="103.146,7.906 104.169,6.883 104.169,4.11 103.146,3.087 	"/>
	<rect x="123.628" y="138.684" fill="#404040" width="7.178" height="7.178"/>
	<rect x="125.83" y="140.887" width="2.774" height="2.771"/>
	<polygon fill="#2A2A29" points="124.807,139.864 125.829,140.885 128.604,140.885 129.625,139.864 	"/>
	<polygon fill="#474747" points="129.626,139.864 128.604,140.889 128.604,143.661 129.626,144.682 	"/>
	<polygon fill="#595959" points="129.625,144.682 128.604,143.661 125.829,143.661 124.807,144.682 	"/>
	<polygon fill="#373737" points="124.807,144.682 125.829,143.659 125.829,140.885 124.807,139.864 	"/>
	<rect x="116.43" y="138.684" fill="#404040" width="7.177" height="7.178"/>
	<rect x="118.632" y="140.887" width="2.774" height="2.771"/>
	<polygon fill="#2A2A29" points="117.608,139.864 118.63,140.885 121.404,140.885 122.426,139.864 	"/>
	<polygon fill="#474747" points="122.428,139.864 121.404,140.889 121.404,143.661 122.428,144.682 	"/>
	<polygon fill="#595959" points="122.426,144.682 121.404,143.661 118.63,143.661 117.608,144.682 	"/>
	<polygon fill="#373737" points="117.608,144.682 118.63,143.659 118.63,140.885 117.608,139.864 	"/>
	<rect x="109.23" y="138.684" fill="#404040" width="7.178" height="7.178"/>
	<rect x="111.433" y="140.887" width="2.774" height="2.771"/>
	<polygon fill="#2A2A29" points="110.409,139.864 111.432,140.885 114.206,140.885 115.228,139.864 	"/>
	<polygon fill="#474747" points="115.229,139.864 114.206,140.889 114.206,143.661 115.229,144.682 	"/>
	<polygon fill="#595959" points="115.228,144.682 114.206,143.661 111.432,143.661 110.409,144.682 	"/>
	<polygon fill="#373737" points="110.409,144.682 111.432,143.659 111.432,140.885 110.409,139.864 	"/>
	<rect x="130.805" y="138.684" fill="#404040" width="7.178" height="7.178"/>
	<rect x="133.009" y="140.887" width="2.771" height="2.771"/>
	<polygon fill="#2A2A29" points="131.984,139.864 133.007,140.885 135.78,140.885 136.803,139.864 	"/>
	<polygon fill="#474747" points="136.805,139.864 135.78,140.889 135.78,143.661 136.805,144.682 	"/>
	<polygon fill="#595959" points="136.803,144.682 135.78,143.661 133.005,143.661 131.984,144.682 	"/>
	<polygon fill="#373737" points="131.984,144.682 133.005,143.659 133.005,140.885 131.984,139.864 	"/>
	<rect x="137.982" y="138.684" fill="#404040" width="7.18" height="7.178"/>
	<rect x="140.186" y="140.887" width="2.774" height="2.771"/>
	<polygon fill="#2A2A29" points="139.162,139.864 140.184,140.885 142.96,140.885 143.98,139.864 	"/>
	<polygon fill="#474747" points="143.98,139.864 142.96,140.889 142.96,143.661 143.98,144.682 	"/>
	<polygon fill="#595959" points="143.98,144.682 142.96,143.661 140.184,143.661 139.162,144.682 	"/>
	<polygon fill="#373737" points="139.162,144.682 140.184,143.659 140.184,140.885 139.162,139.864 	"/>
	<rect x="145.16" y="138.684" fill="#404040" width="7.179" height="7.178"/>
	<rect x="147.362" y="140.887" width="2.774" height="2.771"/>
	<polygon fill="#2A2A29" points="146.338,139.864 147.362,140.885 150.137,140.885 151.158,139.864 	"/>
	<polygon fill="#474747" points="151.159,139.864 150.137,140.889 150.137,143.661 151.159,144.682 	"/>
	<polygon fill="#595959" points="151.158,144.682 150.135,143.661 147.362,143.661 146.338,144.682 	"/>
	<polygon fill="#373737" points="146.338,144.682 147.362,143.659 147.362,140.885 146.338,139.864 	"/>
	<rect x="109.146" y="1.908" fill="#404040" width="7.178" height="7.178"/>
	<rect x="111.349" y="4.11" width="2.773" height="2.773"/>
	<polygon fill="#2A2A29" points="110.325,3.087 111.348,4.11 114.122,4.11 115.144,3.087 	"/>
	<polygon fill="#474747" points="115.144,3.087 114.122,4.113 114.122,6.885 115.144,7.906 	"/>
	<polygon fill="#595959" points="115.144,7.906 114.12,6.885 111.348,6.885 110.325,7.906 	"/>
	<polygon fill="#373737" points="110.323,7.906 111.348,6.883 111.348,4.11 110.323,3.087 	"/>
	<rect x="116.323" y="1.908" fill="#404040" width="7.179" height="7.178"/>
	<rect x="118.525" y="4.11" width="2.773" height="2.773"/>
	<polygon fill="#2A2A29" points="117.503,3.087 118.525,4.11 121.299,4.11 122.321,3.087 	"/>
	<polygon fill="#474747" points="122.321,3.087 121.299,4.113 121.299,6.885 122.321,7.906 	"/>
	<polygon fill="#595959" points="122.321,7.906 121.298,6.885 118.524,6.885 117.503,7.906 	"/>
	<polygon fill="#373737" points="117.502,7.906 118.524,6.883 118.524,4.11 117.502,3.087 	"/>
	<rect x="123.501" y="1.908" fill="#404040" width="7.178" height="7.178"/>
	<rect x="125.704" y="4.11" width="2.774" height="2.773"/>
	<polygon fill="#2A2A29" points="124.682,3.087 125.702,4.11 128.478,4.11 129.5,3.087 	"/>
	<polygon fill="#474747" points="129.5,3.087 128.478,4.113 128.478,6.885 129.5,7.906 	"/>
	<polygon fill="#595959" points="129.499,7.906 128.477,6.885 125.702,6.885 124.682,7.906 	"/>
	<polygon fill="#373737" points="124.68,7.906 125.702,6.883 125.702,4.11 124.68,3.087 	"/>
	<rect x="130.678" y="1.908" fill="#404040" width="7.179" height="7.178"/>
	<rect x="132.882" y="4.11" width="2.773" height="2.773"/>
	<polygon fill="#2A2A29" points="131.858,3.087 132.88,4.11 135.654,4.11 136.677,3.087 	"/>
	<polygon fill="#474747" points="136.677,3.087 135.654,4.113 135.654,6.885 136.677,7.906 	"/>
	<polygon fill="#595959" points="136.676,7.906 135.653,6.885 132.88,6.885 131.858,7.906 	"/>
	<polygon fill="#373737" points="131.856,7.906 132.88,6.883 132.88,4.11 131.856,3.087 	"/>
	<rect x="145.224" y="1.908" fill="#404040" width="7.18" height="7.178"/>
	<rect x="147.428" y="4.11" width="2.772" height="2.773"/>
	<polygon fill="#2A2A29" points="146.403,3.087 147.426,4.11 150.2,4.11 151.222,3.087 	"/>
	<polygon fill="#474747" points="151.222,3.087 150.2,4.113 150.2,6.885 151.222,7.906 	"/>
	<polygon fill="#595959" points="151.222,7.906 150.199,6.885 147.426,6.885 146.403,7.906 	"/>
	<polygon fill="#373737" points="146.403,7.906 147.426,6.883 147.426,4.11 146.403,3.087 	"/>
	<rect x="152.402" y="1.908" fill="#404040" width="7.176" height="7.178"/>
	<rect x="154.604" y="4.11" width="2.774" height="2.773"/>
	<polygon fill="#2A2A29" points="153.581,3.087 154.604,4.11 157.378,4.11 158.399,3.087 	"/>
	<polygon fill="#474747" points="158.401,3.087 157.378,4.113 157.378,6.885 158.401,7.906 	"/>
	<polygon fill="#595959" points="158.399,7.906 157.378,6.885 154.604,6.885 153.581,7.906 	"/>
	<polygon fill="#373737" points="153.581,7.906 154.604,6.883 154.604,4.11 153.581,3.087 	"/>
	<rect x="159.578" y="1.908" fill="#404040" width="7.181" height="7.178"/>
	<rect x="161.782" y="4.11" width="2.773" height="2.773"/>
	<polygon fill="#2A2A29" points="160.759,3.087 161.782,4.11 164.555,4.11 165.578,3.087 	"/>
	<polygon fill="#474747" points="165.578,3.087 164.555,4.113 164.555,6.885 165.578,7.906 	"/>
	<polygon fill="#595959" points="165.576,7.906 164.555,6.885 161.78,6.885 160.759,7.906 	"/>
	<polygon fill="#373737" points="160.758,7.906 161.78,6.883 161.78,4.11 160.758,3.087 	"/>
	<rect x="166.757" y="1.908" fill="#404040" width="7.179" height="7.178"/>
	<rect x="168.96" y="4.11" width="2.772" height="2.773"/>
	<polygon fill="#2A2A29" points="167.937,3.087 168.958,4.11 171.733,4.11 172.755,3.087 	"/>
	<polygon fill="#474747" points="172.755,3.087 171.733,4.113 171.733,6.885 172.755,7.906 	"/>
	<polygon fill="#595959" points="172.755,7.906 171.731,6.885 168.958,6.885 167.937,7.906 	"/>
	<polygon fill="#373737" points="167.937,7.906 168.958,6.883 168.958,4.11 167.937,3.087 	"/>
	<rect x="173.935" y="1.908" fill="#404040" width="7.178" height="7.178"/>
	<rect x="176.137" y="4.11" width="2.774" height="2.773"/>
	<polygon fill="#2A2A29" points="175.113,3.087 176.136,4.11 178.91,4.11 179.932,3.087 	"/>
	<polygon fill="#474747" points="179.932,3.087 178.91,4.113 178.91,6.885 179.932,7.906 	"/>
	<polygon fill="#595959" points="179.932,7.906 178.91,6.885 176.136,6.885 175.113,7.906 	"/>
	<polygon fill="#373737" points="175.113,7.906 176.136,6.883 176.136,4.11 175.113,3.087 	"/>
	<rect x="181.112" y="1.908" fill="#404040" width="7.179" height="7.178"/>
	<rect x="183.314" y="4.11" width="2.773" height="2.773"/>
	<polygon fill="#2A2A29" points="182.292,3.087 183.314,4.11 186.087,4.11 187.11,3.087 	"/>
	<polygon fill="#474747" points="187.11,3.087 186.087,4.113 186.087,6.885 187.11,7.906 	"/>
	<polygon fill="#595959" points="187.11,7.906 186.087,6.885 183.314,6.885 182.292,7.906 	"/>
	<polygon fill="#373737" points="182.29,7.906 183.314,6.883 183.314,4.11 182.29,3.087 	"/>
	<rect x="188.29" y="1.908" fill="#404040" width="7.178" height="7.178"/>
	<rect x="190.492" y="4.11" width="2.772" height="2.773"/>
	<polygon fill="#2A2A29" points="189.47,3.087 190.492,4.11 193.265,4.11 194.288,3.087 	"/>
	<polygon fill="#474747" points="194.289,3.087 193.265,4.113 193.265,6.885 194.289,7.906 	"/>
	<polygon fill="#595959" points="194.288,7.906 193.265,6.885 190.491,6.885 189.47,7.906 	"/>
	<polygon fill="#373737" points="189.466,7.906 190.491,6.883 190.491,4.11 189.466,3.087 	"/>
	<rect x="195.467" y="1.908" fill="#404040" width="7.179" height="7.178"/>
	<rect x="197.67" y="4.11" width="2.774" height="2.773"/>
	<polygon fill="#2A2A29" points="196.647,3.087 197.669,4.11 200.443,4.11 201.466,3.087 	"/>
	<polygon fill="#474747" points="201.466,3.087 200.443,4.113 200.443,6.885 201.466,7.906 	"/>
	<polygon fill="#595959" points="201.464,7.906 200.442,6.885 197.669,6.885 196.647,7.906 	"/>
	<polygon fill="#373737" points="196.646,7.906 197.669,6.883 197.669,4.11 196.646,3.087 	"/>
	<rect x="159.621" y="138.684" fill="#404040" width="7.18" height="7.178"/>
	<rect x="161.825" y="140.887" width="2.772" height="2.772"/>
	<polygon fill="#2A2A29" points="160.801,139.864 161.823,140.887 164.598,140.887 165.619,139.864 	"/>
	<polygon fill="#474747" points="165.619,139.864 164.598,140.889 164.598,143.662 165.619,144.682 	"/>
	<polygon fill="#595959" points="165.619,144.682 164.597,143.662 161.823,143.662 160.801,144.682 	"/>
	<polygon fill="#373737" points="160.801,144.682 161.823,143.66 161.823,140.887 160.801,139.864 	"/>
	<rect x="166.8" y="138.684" fill="#404040" width="7.176" height="7.178"/>
	<rect x="169.002" y="140.887" width="2.774" height="2.772"/>
	<polygon fill="#2A2A29" points="167.979,139.864 169.002,140.887 171.775,140.887 172.797,139.864 	"/>
	<polygon fill="#474747" points="172.799,139.864 171.775,140.889 171.775,143.662 172.799,144.682 	"/>
	<polygon fill="#595959" points="172.797,144.682 171.775,143.662 169.001,143.662 167.979,144.682 	"/>
	<polygon fill="#373737" points="167.979,144.682 169.001,143.66 169.001,140.887 167.979,139.864 	"/>
	<rect x="173.976" y="138.684" fill="#404040" width="7.181" height="7.178"/>
	<rect x="176.18" y="140.887" width="2.773" height="2.772"/>
	<polygon fill="#2A2A29" points="175.156,139.864 176.18,140.887 178.952,140.887 179.976,139.864 	"/>
	<polygon fill="#474747" points="179.976,139.864 178.952,140.889 178.952,143.662 179.976,144.682 	"/>
	<polygon fill="#595959" points="179.974,144.682 178.952,143.662 176.178,143.662 175.156,144.682 	"/>
	<polygon fill="#373737" points="175.155,144.682 176.178,143.66 176.178,140.887 175.155,139.864 	"/>
	<rect x="181.154" y="138.684" fill="#404040" width="7.179" height="7.178"/>
	<rect x="183.357" y="140.887" width="2.772" height="2.772"/>
	<polygon fill="#2A2A29" points="182.334,139.864 183.355,140.887 186.131,140.887 187.152,139.864 	"/>
	<polygon fill="#474747" points="187.152,139.864 186.131,140.889 186.131,143.662 187.152,144.682 	"/>
	<polygon fill="#595959" points="187.152,144.682 186.129,143.662 183.355,143.662 182.334,144.682 	"/>
	<polygon fill="#373737" points="182.334,144.682 183.355,143.66 183.355,140.887 182.334,139.864 	"/>
	<rect x="188.332" y="138.684" fill="#404040" width="7.178" height="7.178"/>
	<rect x="190.534" y="140.887" width="2.774" height="2.772"/>
	<polygon fill="#2A2A29" points="189.511,139.864 190.533,140.887 193.308,140.887 194.329,139.864 	"/>
	<polygon fill="#474747" points="194.329,139.864 193.308,140.889 193.308,143.662 194.329,144.682 	"/>
	<polygon fill="#595959" points="194.329,144.682 193.308,143.662 190.533,143.662 189.511,144.682 	"/>
	<polygon fill="#373737" points="189.511,144.682 190.533,143.66 190.533,140.887 189.511,139.864 	"/>
	<rect x="195.51" y="138.684" fill="#404040" width="7.179" height="7.178"/>
	<rect x="197.712" y="140.887" width="2.773" height="2.772"/>
	<polygon fill="#2A2A29" points="196.689,139.864 197.712,140.887 200.484,140.887 201.508,139.864 	"/>
	<polygon fill="#474747" points="201.508,139.864 200.484,140.889 200.484,143.662 201.508,144.682 	"/>
	<polygon fill="#595959" points="201.508,144.682 200.484,143.662 197.712,143.662 196.689,144.682 	"/>
	<polygon fill="#373737" points="196.688,144.682 197.712,143.66 197.712,140.887 196.688,139.864 	"/>
	<rect x="202.688" y="138.684" fill="#404040" width="7.178" height="7.178"/>
	<rect x="204.89" y="140.887" width="2.772" height="2.772"/>
	<polygon fill="#2A2A29" points="203.867,139.864 204.89,140.887 207.662,140.887 208.686,139.864 	"/>
	<polygon fill="#474747" points="208.687,139.864 207.662,140.889 207.662,143.662 208.687,144.682 	"/>
	<polygon fill="#595959" points="208.686,144.682 207.662,143.662 204.889,143.662 203.867,144.682 	"/>
	<polygon fill="#373737" points="203.863,144.682 204.889,143.66 204.889,140.887 203.863,139.864 	"/>
	<rect x="209.864" y="138.684" fill="#404040" width="7.179" height="7.178"/>
	<rect x="212.067" y="140.887" width="2.774" height="2.772"/>
	<polygon fill="#2A2A29" points="211.045,139.864 212.066,140.887 214.841,140.887 215.863,139.864 	"/>
	<polygon fill="#474747" points="215.863,139.864 214.841,140.889 214.841,143.662 215.863,144.682 	"/>
	<polygon fill="#595959" points="215.861,144.682 214.84,143.662 212.066,143.662 211.045,144.682 	"/>
	<polygon fill="#373737" points="211.043,144.682 212.066,143.66 212.066,140.887 211.043,139.864 	"/>
	<rect x="224.325" y="138.684" fill="#404040" width="7.18" height="7.178"/>
	<rect x="226.529" y="140.887" width="2.772" height="2.772"/>
	<polygon fill="#2A2A29" points="225.505,139.864 226.527,140.887 229.302,140.887 230.323,139.864 	"/>
	<polygon fill="#474747" points="230.323,139.864 229.302,140.889 229.302,143.662 230.323,144.682 	"/>
	<polygon fill="#595959" points="230.323,144.682 229.301,143.662 226.527,143.662 225.505,144.682 	"/>
	<polygon fill="#373737" points="225.505,144.682 226.527,143.66 226.527,140.887 225.505,139.864 	"/>
	<rect x="231.504" y="138.684" fill="#404040" width="7.176" height="7.178"/>
	<rect x="233.706" y="140.887" width="2.774" height="2.772"/>
	<polygon fill="#2A2A29" points="232.683,139.864 233.706,140.887 236.479,140.887 237.501,139.864 	"/>
	<polygon fill="#474747" points="237.503,139.864 236.479,140.889 236.479,143.662 237.503,144.682 	"/>
	<polygon fill="#595959" points="237.501,144.682 236.479,143.662 233.705,143.662 232.683,144.682 	"/>
	<polygon fill="#373737" points="232.683,144.682 233.705,143.66 233.705,140.887 232.683,139.864 	"/>
	<rect x="238.68" y="138.684" fill="#404040" width="7.181" height="7.178"/>
	<rect x="240.884" y="140.887" width="2.773" height="2.772"/>
	<polygon fill="#2A2A29" points="239.86,139.864 240.884,140.887 243.656,140.887 244.68,139.864 	"/>
	<polygon fill="#474747" points="244.68,139.864 243.656,140.889 243.656,143.662 244.68,144.682 	"/>
	<polygon fill="#595959" points="244.678,144.682 243.656,143.662 240.882,143.662 239.86,144.682 	"/>
	<polygon fill="#373737" points="239.859,144.682 240.882,143.66 240.882,140.887 239.859,139.864 	"/>
	<rect x="245.858" y="138.684" fill="#404040" width="7.179" height="7.178"/>
	<rect x="248.062" y="140.887" width="2.772" height="2.772"/>
	<polygon fill="#2A2A29" points="247.038,139.864 248.06,140.887 250.835,140.887 251.856,139.864 	"/>
	<polygon fill="#474747" points="251.856,139.864 250.835,140.889 250.835,143.662 251.856,144.682 	"/>
	<polygon fill="#595959" points="251.856,144.682 250.833,143.662 248.06,143.662 247.038,144.682 	"/>
	<polygon fill="#373737" points="247.038,144.682 248.06,143.66 248.06,140.887 247.038,139.864 	"/>
	<rect x="253.036" y="138.684" fill="#404040" width="7.178" height="7.178"/>
	<rect x="255.238" y="140.887" width="2.774" height="2.772"/>
	<polygon fill="#2A2A29" points="254.215,139.864 255.237,140.887 258.012,140.887 259.033,139.864 	"/>
	<polygon fill="#474747" points="259.033,139.864 258.012,140.889 258.012,143.662 259.033,144.682 	"/>
	<polygon fill="#595959" points="259.033,144.682 258.012,143.662 255.237,143.662 254.215,144.682 	"/>
	<polygon fill="#373737" points="254.215,144.682 255.237,143.66 255.237,140.887 254.215,139.864 	"/>
	<rect x="260.214" y="138.684" fill="#404040" width="7.179" height="7.178"/>
	<rect x="262.416" y="140.887" width="2.773" height="2.772"/>
	<polygon fill="#2A2A29" points="261.394,139.864 262.416,140.887 265.188,140.887 266.212,139.864 	"/>
	<polygon fill="#474747" points="266.212,139.864 265.188,140.889 265.188,143.662 266.212,144.682 	"/>
	<polygon fill="#595959" points="266.212,144.682 265.188,143.662 262.416,143.662 261.394,144.682 	"/>
	<polygon fill="#373737" points="261.392,144.682 262.416,143.66 262.416,140.887 261.392,139.864 	"/>
	<rect x="267.392" y="138.684" fill="#404040" width="7.178" height="7.178"/>
	<rect x="269.594" y="140.887" width="2.772" height="2.772"/>
	<polygon fill="#2A2A29" points="268.571,139.864 269.594,140.887 272.366,140.887 273.39,139.864 	"/>
	<polygon fill="#474747" points="273.391,139.864 272.366,140.889 272.366,143.662 273.391,144.682 	"/>
	<polygon fill="#595959" points="273.39,144.682 272.366,143.662 269.593,143.662 268.571,144.682 	"/>
	<polygon fill="#373737" points="268.567,144.682 269.593,143.66 269.593,140.887 268.567,139.864 	"/>
	<rect x="274.568" y="138.684" fill="#404040" width="7.179" height="7.178"/>
	<rect x="276.771" y="140.887" width="2.774" height="2.772"/>
	<polygon fill="#2A2A29" points="275.749,139.864 276.771,140.887 279.545,140.887 280.567,139.864 	"/>
	<polygon fill="#474747" points="280.567,139.864 279.545,140.889 279.545,143.662 280.567,144.682 	"/>
	<polygon fill="#595959" points="280.565,144.682 279.544,143.662 276.771,143.662 275.749,144.682 	"/>
	<polygon fill="#373737" points="275.747,144.682 276.771,143.66 276.771,140.887 275.747,139.864 	"/>
	<rect x="210.058" y="1.908" fill="#404040" width="7.18" height="7.178"/>
	<rect x="212.262" y="4.11" width="2.772" height="2.773"/>
	<polygon fill="#2A2A29" points="211.237,3.087 212.26,4.11 215.034,4.11 216.056,3.087 	"/>
	<polygon fill="#474747" points="216.056,3.087 215.034,4.113 215.034,6.885 216.056,7.906 	"/>
	<polygon fill="#595959" points="216.056,7.906 215.033,6.885 212.26,6.885 211.237,7.906 	"/>
	<polygon fill="#373737" points="211.237,7.906 212.26,6.883 212.26,4.11 211.237,3.087 	"/>
	<rect x="217.236" y="1.908" fill="#404040" width="7.176" height="7.178"/>
	<rect x="219.438" y="4.11" width="2.774" height="2.773"/>
	<polygon fill="#2A2A29" points="218.415,3.087 219.438,4.11 222.212,4.11 223.233,3.087 	"/>
	<polygon fill="#474747" points="223.235,3.087 222.212,4.113 222.212,6.885 223.235,7.906 	"/>
	<polygon fill="#595959" points="223.233,7.906 222.212,6.885 219.438,6.885 218.415,7.906 	"/>
	<polygon fill="#373737" points="218.415,7.906 219.438,6.883 219.438,4.11 218.415,3.087 	"/>
	<rect x="224.412" y="1.908" fill="#404040" width="7.181" height="7.178"/>
	<rect x="226.616" y="4.11" width="2.773" height="2.773"/>
	<polygon fill="#2A2A29" points="225.593,3.087 226.616,4.11 229.389,4.11 230.412,3.087 	"/>
	<polygon fill="#474747" points="230.412,3.087 229.389,4.113 229.389,6.885 230.412,7.906 	"/>
	<polygon fill="#595959" points="230.41,7.906 229.389,6.885 226.614,6.885 225.593,7.906 	"/>
	<polygon fill="#373737" points="225.592,7.906 226.614,6.883 226.614,4.11 225.592,3.087 	"/>
	<rect x="231.591" y="1.908" fill="#404040" width="7.179" height="7.178"/>
	<rect x="233.794" y="4.11" width="2.772" height="2.773"/>
	<polygon fill="#2A2A29" points="232.771,3.087 233.792,4.11 236.567,4.11 237.589,3.087 	"/>
	<polygon fill="#474747" points="237.589,3.087 236.567,4.113 236.567,6.885 237.589,7.906 	"/>
	<polygon fill="#595959" points="237.589,7.906 236.565,6.885 233.792,6.885 232.771,7.906 	"/>
	<polygon fill="#373737" points="232.771,7.906 233.792,6.883 233.792,4.11 232.771,3.087 	"/>
	<rect x="238.769" y="1.908" fill="#404040" width="7.178" height="7.178"/>
	<rect x="240.971" y="4.11" width="2.774" height="2.773"/>
	<polygon fill="#2A2A29" points="239.947,3.087 240.97,4.11 243.744,4.11 244.766,3.087 	"/>
	<polygon fill="#474747" points="244.766,3.087 243.744,4.113 243.744,6.885 244.766,7.906 	"/>
	<polygon fill="#595959" points="244.766,7.906 243.744,6.885 240.97,6.885 239.947,7.906 	"/>
	<polygon fill="#373737" points="239.947,7.906 240.97,6.883 240.97,4.11 239.947,3.087 	"/>
	<rect x="245.946" y="1.908" fill="#404040" width="7.179" height="7.178"/>
	<rect x="248.148" y="4.11" width="2.773" height="2.773"/>
	<polygon fill="#2A2A29" points="247.126,3.087 248.148,4.11 250.921,4.11 251.944,3.087 	"/>
	<polygon fill="#474747" points="251.944,3.087 250.921,4.113 250.921,6.885 251.944,7.906 	"/>
	<polygon fill="#595959" points="251.944,7.906 250.921,6.885 248.148,6.885 247.126,7.906 	"/>
	<polygon fill="#373737" points="247.124,7.906 248.148,6.883 248.148,4.11 247.124,3.087 	"/>
	<rect x="253.124" y="1.908" fill="#404040" width="7.178" height="7.178"/>
	<rect x="255.326" y="4.11" width="2.772" height="2.773"/>
	<polygon fill="#2A2A29" points="254.304,3.087 255.326,4.11 258.099,4.11 259.122,3.087 	"/>
	<polygon fill="#474747" points="259.123,3.087 258.099,4.113 258.099,6.885 259.123,7.906 	"/>
	<polygon fill="#595959" points="259.122,7.906 258.099,6.885 255.325,6.885 254.304,7.906 	"/>
	<polygon fill="#373737" points="254.3,7.906 255.325,6.883 255.325,4.11 254.3,3.087 	"/>
	<rect x="260.301" y="1.908" fill="#404040" width="7.179" height="7.178"/>
	<rect x="262.504" y="4.11" width="2.774" height="2.773"/>
	<polygon fill="#2A2A29" points="261.481,3.087 262.503,4.11 265.277,4.11 266.3,3.087 	"/>
	<polygon fill="#474747" points="266.3,3.087 265.277,4.113 265.277,6.885 266.3,7.906 	"/>
	<polygon fill="#595959" points="266.298,7.906 265.276,6.885 262.503,6.885 261.481,7.906 	"/>
	<polygon fill="#373737" points="261.479,7.906 262.503,6.883 262.503,4.11 261.479,3.087 	"/>
	<rect x="286.213" y="5.312" fill="#404040" width="7.178" height="7.18"/>
	<rect x="288.415" y="7.517" width="2.773" height="2.772"/>
	<polygon fill="#2A2A29" points="292.211,6.492 291.188,7.514 291.188,10.289 292.211,11.31 	"/>
	<polygon fill="#474747" points="292.211,11.31 291.186,10.289 288.413,10.289 287.393,11.31 	"/>
	<polygon fill="#595959" points="287.393,11.31 288.413,10.288 288.413,7.514 287.393,6.492 	"/>
	<polygon fill="#373737" points="287.393,6.492 288.415,7.514 291.188,7.514 292.211,6.492 	"/>
	<rect x="286.213" y="12.491" fill="#404040" width="7.178" height="7.176"/>
	<rect x="288.415" y="14.693" width="2.773" height="2.774"/>
	<polygon fill="#2A2A29" points="292.211,13.669 291.188,14.693 291.188,17.466 292.211,18.488 	"/>
	<polygon fill="#474747" points="292.211,18.49 291.186,17.466 288.413,17.466 287.393,18.49 	"/>
	<polygon fill="#595959" points="287.393,18.488 288.413,17.466 288.413,14.692 287.393,13.669 	"/>
	<polygon fill="#373737" points="287.393,13.669 288.415,14.692 291.188,14.692 292.211,13.669 	"/>
	<rect x="286.213" y="19.667" fill="#404040" width="7.178" height="7.181"/>
	<rect x="288.415" y="21.871" width="2.773" height="2.773"/>
	<polygon fill="#2A2A29" points="292.211,20.847 291.188,21.871 291.188,24.643 292.211,25.667 	"/>
	<polygon fill="#474747" points="292.211,25.667 291.186,24.643 288.413,24.643 287.393,25.667 	"/>
	<polygon fill="#595959" points="287.393,25.665 288.413,24.643 288.413,21.869 287.393,20.847 	"/>
	<polygon fill="#373737" points="287.393,20.846 288.415,21.869 291.188,21.869 292.211,20.846 	"/>
	<rect x="286.213" y="26.845" fill="#404040" width="7.178" height="7.179"/>
	<rect x="288.415" y="29.049" width="2.773" height="2.772"/>
	<polygon fill="#2A2A29" points="292.211,28.025 291.188,29.046 291.188,31.822 292.211,32.843 	"/>
	<polygon fill="#474747" points="292.211,32.843 291.186,31.822 288.413,31.822 287.393,32.843 	"/>
	<polygon fill="#595959" points="287.393,32.843 288.413,31.82 288.413,29.046 287.393,28.025 	"/>
	<polygon fill="#373737" points="287.393,28.025 288.415,29.046 291.188,29.046 292.211,28.025 	"/>
	<rect x="286.213" y="34.023" fill="#404040" width="7.178" height="7.178"/>
	<rect x="288.415" y="36.226" width="2.773" height="2.774"/>
	<polygon fill="#2A2A29" points="292.211,35.202 291.188,36.224 291.188,38.999 292.211,40.02 	"/>
	<polygon fill="#474747" points="292.211,40.02 291.186,38.999 288.413,38.999 287.393,40.02 	"/>
	<polygon fill="#595959" points="287.393,40.02 288.413,38.999 288.413,36.224 287.393,35.202 	"/>
	<polygon fill="#373737" points="287.393,35.202 288.415,36.224 291.188,36.224 292.211,35.202 	"/>
	<rect x="286.213" y="41.201" fill="#404040" width="7.178" height="7.179"/>
	<rect x="288.415" y="43.403" width="2.773" height="2.773"/>
	<polygon fill="#2A2A29" points="292.211,42.38 291.188,43.403 291.188,46.175 292.211,47.199 	"/>
	<polygon fill="#474747" points="292.211,47.199 291.186,46.175 288.413,46.175 287.393,47.199 	"/>
	<polygon fill="#595959" points="287.393,47.199 288.413,46.175 288.413,43.403 287.393,42.38 	"/>
	<polygon fill="#373737" points="287.393,42.378 288.415,43.403 291.188,43.403 292.211,42.378 	"/>
	<rect x="286.213" y="48.378" fill="#404040" width="7.178" height="7.178"/>
	<rect x="288.415" y="50.581" width="2.773" height="2.772"/>
	<polygon fill="#2A2A29" points="292.211,49.558 291.188,50.581 291.188,53.353 292.211,54.376 	"/>
	<polygon fill="#474747" points="292.211,54.377 291.186,53.353 288.413,53.353 287.393,54.377 	"/>
	<polygon fill="#595959" points="287.393,54.376 288.413,53.353 288.413,50.58 287.393,49.558 	"/>
	<polygon fill="#373737" points="287.393,49.554 288.415,50.58 291.188,50.58 292.211,49.554 	"/>
	<rect x="286.213" y="55.555" fill="#404040" width="7.178" height="7.179"/>
	<rect x="288.415" y="57.759" width="2.773" height="2.774"/>
	<polygon fill="#2A2A29" points="292.211,56.736 291.188,57.757 291.188,60.532 292.211,61.554 	"/>
	<polygon fill="#474747" points="292.211,61.554 291.186,60.532 288.413,60.532 287.393,61.554 	"/>
	<polygon fill="#595959" points="287.393,61.552 288.413,60.531 288.413,57.757 287.393,56.736 	"/>
	<polygon fill="#373737" points="287.393,56.734 288.415,57.757 291.188,57.757 292.211,56.734 	"/>
	<rect x="286.213" y="62.734" fill="#404040" width="7.178" height="7.179"/>
	<rect x="288.415" y="64.938" width="2.773" height="2.774"/>
	<polygon fill="#2A2A29" points="292.211,63.915 291.188,64.936 291.188,67.71 292.211,68.733 	"/>
	<polygon fill="#474747" points="292.211,68.733 291.186,67.71 288.413,67.71 287.393,68.733 	"/>
	<polygon fill="#595959" points="287.393,68.731 288.413,67.709 288.413,64.936 287.393,63.915 	"/>
	<polygon fill="#373737" points="287.393,63.913 288.415,64.936 291.188,64.936 292.211,63.913 	"/>
	<rect x="286.213" y="69.913" fill="#404040" width="7.178" height="7.176"/>
	<rect x="288.415" y="72.117" width="2.773" height="2.772"/>
	<polygon fill="#2A2A29" points="292.211,71.092 291.188,72.115 291.188,74.889 292.211,75.909 	"/>
	<polygon fill="#474747" points="292.211,75.909 291.186,74.889 288.413,74.889 287.393,75.909 	"/>
	<polygon fill="#595959" points="287.393,75.909 288.413,74.888 288.413,72.115 287.393,71.092 	"/>
	<polygon fill="#373737" points="287.393,71.092 288.415,72.115 291.188,72.115 292.211,71.092 	"/>
	<rect x="286.213" y="77.087" fill="#404040" width="7.178" height="7.174"/>
	<rect x="288.415" y="79.288" width="2.773" height="2.774"/>
	<polygon fill="#2A2A29" points="292.211,78.264 291.188,79.288 291.188,82.061 292.211,83.083 	"/>
	<polygon fill="#474747" points="292.211,83.084 291.186,82.061 288.413,82.061 287.393,83.084 	"/>
	<polygon fill="#595959" points="287.393,83.083 288.413,82.061 288.413,79.287 287.393,78.264 	"/>
	<polygon fill="#373737" points="287.393,78.264 288.415,79.287 291.188,79.287 292.211,78.264 	"/>
	<rect x="286.213" y="84.261" fill="#404040" width="7.178" height="7.181"/>
	<rect x="288.415" y="86.465" width="2.773" height="2.773"/>
	<polygon fill="#2A2A29" points="292.211,85.442 291.188,86.465 291.188,89.238 292.211,90.261 	"/>
	<polygon fill="#474747" points="292.211,90.261 291.186,89.238 288.413,89.238 287.393,90.261 	"/>
	<polygon fill="#595959" points="287.393,90.259 288.413,89.238 288.413,86.463 287.393,85.442 	"/>
	<polygon fill="#373737" points="287.393,85.441 288.415,86.463 291.188,86.463 292.211,85.441 	"/>
	<rect x="286.213" y="91.44" fill="#404040" width="7.178" height="7.179"/>
	<rect x="288.415" y="93.643" width="2.773" height="2.772"/>
	<polygon fill="#2A2A29" points="292.211,92.62 291.188,93.641 291.188,96.417 292.211,97.438 	"/>
	<polygon fill="#474747" points="292.211,97.438 291.186,96.417 288.413,96.417 287.393,97.438 	"/>
	<polygon fill="#595959" points="287.393,97.438 288.413,96.415 288.413,93.641 287.393,92.62 	"/>
	<polygon fill="#373737" points="287.393,92.62 288.415,93.641 291.188,93.641 292.211,92.62 	"/>
	<rect x="286.213" y="98.618" fill="#404040" width="7.178" height="7.178"/>
	<rect x="288.415" y="100.82" width="2.773" height="2.774"/>
	<polygon fill="#2A2A29" points="292.211,99.796 291.188,100.819 291.188,103.593 292.211,104.615 	"/>
	<polygon fill="#474747" points="292.211,104.615 291.186,103.593 288.413,103.593 287.393,104.615 	"/>
	<polygon fill="#595959" points="287.393,104.615 288.413,103.593 288.413,100.819 287.393,99.796 	"/>
	<polygon fill="#373737" points="287.393,99.796 288.415,100.819 291.188,100.819 292.211,99.796 	"/>
	<rect x="286.213" y="105.795" fill="#404040" width="7.178" height="7.179"/>
	<rect x="288.415" y="107.998" width="2.773" height="2.773"/>
	<polygon fill="#2A2A29" points="292.211,106.975 291.188,107.998 291.188,110.77 292.211,111.793 	"/>
	<polygon fill="#474747" points="292.211,111.793 291.186,110.77 288.413,110.77 287.393,111.793 	"/>
	<polygon fill="#595959" points="287.393,111.793 288.413,110.77 288.413,107.998 287.393,106.975 	"/>
	<polygon fill="#373737" points="287.393,106.973 288.415,107.998 291.188,107.998 292.211,106.973 	"/>
	<rect x="286.213" y="112.973" fill="#404040" width="7.178" height="7.178"/>
	<rect x="288.415" y="115.175" width="2.773" height="2.772"/>
	<polygon fill="#2A2A29" points="292.211,114.153 291.188,115.175 291.188,117.948 292.211,118.971 	"/>
	<polygon fill="#474747" points="292.211,118.972 291.186,117.948 288.413,117.948 287.393,118.972 	"/>
	<polygon fill="#595959" points="287.393,118.971 288.413,117.948 288.413,115.174 287.393,114.153 	"/>
	<polygon fill="#373737" points="287.393,114.149 288.415,115.174 291.188,115.174 292.211,114.149 	"/>
	<rect x="286.213" y="120.15" fill="#404040" width="7.178" height="7.179"/>
	<rect x="288.415" y="122.353" width="2.773" height="2.774"/>
	<polygon fill="#2A2A29" points="292.211,121.331 291.188,122.352 291.188,125.126 292.211,126.149 	"/>
	<polygon fill="#474747" points="292.211,126.149 291.186,125.126 288.413,125.126 287.393,126.149 	"/>
	<polygon fill="#595959" points="287.393,126.147 288.413,125.125 288.413,122.352 287.393,121.331 	"/>
	<polygon fill="#373737" points="287.393,121.329 288.415,122.352 291.188,122.352 292.211,121.329 	"/>
	<rect x="286.213" y="127.329" fill="#404040" width="7.178" height="7.179"/>
	<rect x="288.415" y="129.532" width="2.773" height="2.774"/>
	<polygon fill="#2A2A29" points="292.211,128.509 291.188,129.531 291.188,132.305 292.211,133.328 	"/>
	<polygon fill="#474747" points="292.211,133.328 291.186,132.305 288.413,132.305 287.393,133.328 	"/>
	<polygon fill="#595959" points="287.393,133.326 288.413,132.304 288.413,129.531 287.393,128.509 	"/>
	<polygon fill="#373737" points="287.393,128.507 288.415,129.531 291.188,129.531 292.211,128.507 	"/>
	<rect x="293.391" y="5.312" fill="#404040" width="7.178" height="7.18"/>
	<rect x="295.593" y="7.517" width="2.773" height="2.772"/>
	<polygon fill="#2A2A29" points="299.389,6.492 298.366,7.514 298.366,10.289 299.389,11.31 	"/>
	<polygon fill="#474747" points="299.389,11.31 298.363,10.289 295.591,10.289 294.57,11.31 	"/>
	<polygon fill="#595959" points="294.57,11.31 295.591,10.288 295.591,7.514 294.57,6.492 	"/>
	<polygon fill="#373737" points="294.57,6.492 295.593,7.514 298.366,7.514 299.389,6.492 	"/>
	<rect x="293.391" y="12.491" fill="#404040" width="7.178" height="7.176"/>
	<rect x="295.593" y="14.693" width="2.773" height="2.774"/>
	<polygon fill="#2A2A29" points="299.389,13.669 298.366,14.693 298.366,17.466 299.389,18.488 	"/>
	<polygon fill="#474747" points="299.389,18.49 298.363,17.466 295.591,17.466 294.57,18.49 	"/>
	<polygon fill="#595959" points="294.57,18.488 295.591,17.466 295.591,14.692 294.57,13.669 	"/>
	<polygon fill="#373737" points="294.57,13.669 295.593,14.692 298.366,14.692 299.389,13.669 	"/>
	<rect x="293.391" y="19.667" fill="#404040" width="7.178" height="7.181"/>
	<rect x="295.593" y="21.871" width="2.773" height="2.773"/>
	<polygon fill="#2A2A29" points="299.389,20.847 298.366,21.871 298.366,24.643 299.389,25.667 	"/>
	<polygon fill="#474747" points="299.389,25.667 298.363,24.643 295.591,24.643 294.57,25.667 	"/>
	<polygon fill="#595959" points="294.57,25.665 295.591,24.643 295.591,21.869 294.57,20.847 	"/>
	<polygon fill="#373737" points="294.57,20.846 295.593,21.869 298.366,21.869 299.389,20.846 	"/>
	<rect x="293.391" y="26.845" fill="#404040" width="7.178" height="7.179"/>
	<rect x="295.593" y="29.049" width="2.773" height="2.772"/>
	<polygon fill="#2A2A29" points="299.389,28.025 298.366,29.046 298.366,31.822 299.389,32.843 	"/>
	<polygon fill="#474747" points="299.389,32.843 298.363,31.822 295.591,31.822 294.57,32.843 	"/>
	<polygon fill="#595959" points="294.57,32.843 295.591,31.82 295.591,29.046 294.57,28.025 	"/>
	<polygon fill="#373737" points="294.57,28.025 295.593,29.046 298.366,29.046 299.389,28.025 	"/>
	<rect x="293.391" y="34.023" fill="#404040" width="7.178" height="7.178"/>
	<rect x="295.593" y="36.226" width="2.773" height="2.774"/>
	<polygon fill="#2A2A29" points="299.389,35.202 298.366,36.224 298.366,38.999 299.389,40.02 	"/>
	<polygon fill="#474747" points="299.389,40.02 298.363,38.999 295.591,38.999 294.57,40.02 	"/>
	<polygon fill="#595959" points="294.57,40.02 295.591,38.999 295.591,36.224 294.57,35.202 	"/>
	<polygon fill="#373737" points="294.57,35.202 295.593,36.224 298.366,36.224 299.389,35.202 	"/>
	<rect x="293.391" y="41.201" fill="#404040" width="7.178" height="7.179"/>
	<rect x="295.593" y="43.403" width="2.773" height="2.773"/>
	<polygon fill="#2A2A29" points="299.389,42.38 298.366,43.403 298.366,46.175 299.389,47.199 	"/>
	<polygon fill="#474747" points="299.389,47.199 298.363,46.175 295.591,46.175 294.57,47.199 	"/>
	<polygon fill="#595959" points="294.57,47.199 295.591,46.175 295.591,43.403 294.57,42.38 	"/>
	<polygon fill="#373737" points="294.57,42.378 295.593,43.403 298.366,43.403 299.389,42.378 	"/>
	<rect x="293.391" y="48.378" fill="#404040" width="7.178" height="7.178"/>
	<rect x="295.593" y="50.581" width="2.773" height="2.772"/>
	<polygon fill="#2A2A29" points="299.389,49.558 298.366,50.581 298.366,53.353 299.389,54.376 	"/>
	<polygon fill="#474747" points="299.389,54.377 298.363,53.353 295.591,53.353 294.57,54.377 	"/>
	<polygon fill="#595959" points="294.57,54.376 295.591,53.353 295.591,50.58 294.57,49.558 	"/>
	<polygon fill="#373737" points="294.57,49.554 295.593,50.58 298.366,50.58 299.389,49.554 	"/>
	<rect x="293.391" y="55.555" fill="#404040" width="7.178" height="7.179"/>
	<rect x="295.593" y="57.759" width="2.773" height="2.774"/>
	<polygon fill="#2A2A29" points="299.389,56.736 298.366,57.757 298.366,60.532 299.389,61.554 	"/>
	<polygon fill="#474747" points="299.389,61.554 298.363,60.532 295.591,60.532 294.57,61.554 	"/>
	<polygon fill="#595959" points="294.57,61.552 295.591,60.531 295.591,57.757 294.57,56.736 	"/>
	<polygon fill="#373737" points="294.57,56.734 295.593,57.757 298.366,57.757 299.389,56.734 	"/>
	<rect x="293.391" y="62.734" fill="#404040" width="7.178" height="7.179"/>
	<rect x="295.593" y="64.938" width="2.773" height="2.774"/>
	<polygon fill="#2A2A29" points="299.389,63.915 298.366,64.936 298.366,67.71 299.389,68.733 	"/>
	<polygon fill="#474747" points="299.389,68.733 298.363,67.71 295.591,67.71 294.57,68.733 	"/>
	<polygon fill="#595959" points="294.57,68.731 295.591,67.709 295.591,64.936 294.57,63.915 	"/>
	<polygon fill="#373737" points="294.57,63.913 295.593,64.936 298.366,64.936 299.389,63.913 	"/>
	<rect x="293.391" y="69.913" fill="#404040" width="7.178" height="7.176"/>
	<rect x="295.593" y="72.117" width="2.773" height="2.772"/>
	<polygon fill="#2A2A29" points="299.389,71.092 298.366,72.115 298.366,74.889 299.389,75.909 	"/>
	<polygon fill="#474747" points="299.389,75.909 298.363,74.889 295.591,74.889 294.57,75.909 	"/>
	<polygon fill="#595959" points="294.57,75.909 295.591,74.888 295.591,72.115 294.57,71.092 	"/>
	<polygon fill="#373737" points="294.57,71.092 295.593,72.115 298.366,72.115 299.389,71.092 	"/>
	<rect x="293.391" y="77.087" fill="#404040" width="7.178" height="7.174"/>
	<rect x="295.593" y="79.288" width="2.773" height="2.774"/>
	<polygon fill="#2A2A29" points="299.389,78.264 298.366,79.288 298.366,82.061 299.389,83.083 	"/>
	<polygon fill="#474747" points="299.389,83.084 298.363,82.061 295.591,82.061 294.57,83.084 	"/>
	<polygon fill="#595959" points="294.57,83.083 295.591,82.061 295.591,79.287 294.57,78.264 	"/>
	<polygon fill="#373737" points="294.57,78.264 295.593,79.287 298.366,79.287 299.389,78.264 	"/>
	<rect x="293.391" y="84.261" fill="#404040" width="7.178" height="7.181"/>
	<rect x="295.593" y="86.465" width="2.773" height="2.773"/>
	<polygon fill="#2A2A29" points="299.389,85.442 298.366,86.465 298.366,89.238 299.389,90.261 	"/>
	<polygon fill="#474747" points="299.389,90.261 298.363,89.238 295.591,89.238 294.57,90.261 	"/>
	<polygon fill="#595959" points="294.57,90.259 295.591,89.238 295.591,86.463 294.57,85.442 	"/>
	<polygon fill="#373737" points="294.57,85.441 295.593,86.463 298.366,86.463 299.389,85.441 	"/>
	<rect x="293.391" y="91.44" fill="#404040" width="7.178" height="7.179"/>
	<rect x="295.593" y="93.643" width="2.773" height="2.772"/>
	<polygon fill="#2A2A29" points="299.389,92.62 298.366,93.641 298.366,96.417 299.389,97.438 	"/>
	<polygon fill="#474747" points="299.389,97.438 298.363,96.417 295.591,96.417 294.57,97.438 	"/>
	<polygon fill="#595959" points="294.57,97.438 295.591,96.415 295.591,93.641 294.57,92.62 	"/>
	<polygon fill="#373737" points="294.57,92.62 295.593,93.641 298.366,93.641 299.389,92.62 	"/>
	<rect x="293.391" y="98.618" fill="#404040" width="7.178" height="7.178"/>
	<rect x="295.593" y="100.82" width="2.773" height="2.774"/>
	<polygon fill="#2A2A29" points="299.389,99.796 298.366,100.819 298.366,103.593 299.389,104.615 	"/>
	<polygon fill="#474747" points="299.389,104.615 298.363,103.593 295.591,103.593 294.57,104.615 	"/>
	<polygon fill="#595959" points="294.57,104.615 295.591,103.593 295.591,100.819 294.57,99.796 	"/>
	<polygon fill="#373737" points="294.57,99.796 295.593,100.819 298.366,100.819 299.389,99.796 	"/>
	<rect x="293.391" y="105.795" fill="#404040" width="7.178" height="7.179"/>
	<rect x="295.593" y="107.998" width="2.773" height="2.773"/>
	<polygon fill="#2A2A29" points="299.389,106.975 298.366,107.998 298.366,110.77 299.389,111.793 	"/>
	<polygon fill="#474747" points="299.389,111.793 298.363,110.77 295.591,110.77 294.57,111.793 	"/>
	<polygon fill="#595959" points="294.57,111.793 295.591,110.77 295.591,107.998 294.57,106.975 	"/>
	<polygon fill="#373737" points="294.57,106.973 295.593,107.998 298.366,107.998 299.389,106.973 	"/>
	<rect x="293.391" y="112.973" fill="#404040" width="7.178" height="7.178"/>
	<rect x="295.593" y="115.175" width="2.773" height="2.772"/>
	<polygon fill="#2A2A29" points="299.389,114.153 298.366,115.175 298.366,117.948 299.389,118.971 	"/>
	<polygon fill="#474747" points="299.389,118.972 298.363,117.948 295.591,117.948 294.57,118.972 	"/>
	<polygon fill="#595959" points="294.57,118.971 295.591,117.948 295.591,115.174 294.57,114.153 	"/>
	<polygon fill="#373737" points="294.57,114.149 295.593,115.174 298.366,115.174 299.389,114.149 	"/>
	<rect x="293.391" y="120.15" fill="#404040" width="7.178" height="7.179"/>
	<rect x="295.593" y="122.353" width="2.773" height="2.774"/>
	<polygon fill="#2A2A29" points="299.389,121.331 298.366,122.352 298.366,125.126 299.389,126.149 	"/>
	<polygon fill="#474747" points="299.389,126.149 298.363,125.126 295.591,125.126 294.57,126.149 	"/>
	<polygon fill="#595959" points="294.57,126.147 295.591,125.125 295.591,122.352 294.57,121.331 	"/>
	<polygon fill="#373737" points="294.57,121.329 295.593,122.352 298.366,122.352 299.389,121.329 	"/>
	<rect x="293.391" y="127.329" fill="#404040" width="7.178" height="7.179"/>
	<rect x="295.593" y="129.532" width="2.773" height="2.774"/>
	<polygon fill="#2A2A29" points="299.389,128.509 298.366,129.531 298.366,132.305 299.389,133.328 	"/>
	<polygon fill="#474747" points="299.389,133.328 298.363,132.305 295.591,132.305 294.57,133.328 	"/>
	<polygon fill="#595959" points="294.57,133.326 295.591,132.304 295.591,129.531 294.57,128.509 	"/>
	<polygon fill="#373737" points="294.57,128.507 295.593,129.531 298.366,129.531 299.389,128.507 	"/>
	<text transform="matrix(1 0 0 1 172.7256 107.811)" fill="#FFFFFF" font-family="'ocra10'" font-size="8.4782">A</text>
	<text transform="matrix(1 0 0 1 178.1094 107.811)" fill="#FFFFFF" font-family="'ocra10'" font-size="8.4782">r</text>
	<text transform="matrix(1 0 0 1 183.4932 107.811)" fill="#FFFFFF" font-family="'ocra10'" font-size="8.4782">d</text>
	<text transform="matrix(1 0 0 1 188.877 107.811)" fill="#FFFFFF" font-family="'ocra10'" font-size="8.4782">u</text>
	<text transform="matrix(1 0 0 1 194.2607 107.811)" fill="#FFFFFF" font-family="'ocra10'" font-size="8.4782">i</text>
	<text transform="matrix(1 0 0 1 199.6445 107.811)" fill="#FFFFFF" font-family="'ocra10'" font-size="8.4782">n</text>
	<text transform="matrix(1 0 0 1 205.0273 107.811)" fill="#FFFFFF" font-family="'ocra10'" font-size="8.4782">o</text>
	<text transform="matrix(1 0 0 1 210.4111 107.811)" fill="#FFFFFF" font-family="'ocra10'" font-size="8.4782"> </text>
	<text transform="matrix(1 0 0 1 215.7949 107.811)" fill="#FFFFFF" font-family="'ocra10'" font-size="8.4782">M</text>
	<text transform="matrix(1 0 0 1 221.1787 107.811)" fill="#FFFFFF" font-family="'ocra10'" font-size="8.4782">E</text>
	<text transform="matrix(1 0 0 1 226.5625 107.811)" fill="#FFFFFF" font-family="'ocra10'" font-size="8.4782">G</text>
	<text transform="matrix(1 0 0 1 231.9463 107.811)" fill="#FFFFFF" font-family="'ocra10'" font-size="8.4782">A</text>
	<text transform="matrix(1 0 0 1 183.1328 113.7456)" fill="#FFFFFF" font-family="'ocra10'" font-size="4.9456">w</text>
	<text transform="matrix(1 0 0 1 186.2734 113.7456)" fill="#FFFFFF" font-family="'ocra10'" font-size="4.9456">w</text>
	<text transform="matrix(1 0 0 1 189.4141 113.7456)" fill="#FFFFFF" font-family="'ocra10'" font-size="4.9456">w</text>
	<text transform="matrix(1 0 0 1 192.5537 113.7456)" fill="#FFFFFF" font-family="'ocra10'" font-size="4.9456">.</text>
	<text transform="matrix(1 0 0 1 195.6943 113.7456)" fill="#FFFFFF" font-family="'ocra10'" font-size="4.9456">a</text>
	<text transform="matrix(1 0 0 1 198.835 113.7456)" fill="#FFFFFF" font-family="'ocra10'" font-size="4.9456">r</text>
	<text transform="matrix(1 0 0 1 201.9756 113.7456)" fill="#FFFFFF" font-family="'ocra10'" font-size="4.9456">d</text>
	<text transform="matrix(1 0 0 1 205.1152 113.7456)" fill="#FFFFFF" font-family="'ocra10'" font-size="4.9456">u</text>
	<text transform="matrix(1 0 0 1 208.2559 113.7456)" fill="#FFFFFF" font-family="'ocra10'" font-size="4.9456">i</text>
	<text transform="matrix(1 0 0 1 211.3965 113.7456)" fill="#FFFFFF" font-family="'ocra10'" font-size="4.9456">n</text>
	<text transform="matrix(1 0 0 1 214.5371 113.7456)" fill="#FFFFFF" font-family="'ocra10'" font-size="4.9456">o</text>
	<text transform="matrix(1 0 0 1 217.6777 113.7456)" fill="#FFFFFF" font-family="'ocra10'" font-size="4.9456">.</text>
	<text transform="matrix(1 0 0 1 220.8174 113.7456)" fill="#FFFFFF" font-family="'ocra10'" font-size="4.9456">c</text>
	<text transform="matrix(1 0 0 1 223.958 113.7456)" fill="#FFFFFF" font-family="'ocra10'" font-size="4.9456">c</text>
	<text transform="matrix(0 -1 1 0 85.978 24.2261)" fill="#FFFFFF" font-family="'ocra10'" font-size="5">AREF</text>
	<text transform="matrix(0 -1 1 0 93.1279 20.8013)" fill="#FFFFFF" font-family="'ocra10'" font-size="5">GND</text>
	<text transform="matrix(0 -1 1 0 100.2778 17.3755)" fill="#FFFFFF" font-family="'ocra10'" font-size="5">13</text>
	<text transform="matrix(0 -1 1 0 107.4277 17.3755)" fill="#FFFFFF" font-family="'ocra10'" font-size="5">12</text>
	<text transform="matrix(0 -1 1 0 114.5781 17.3755)" fill="#FFFFFF" font-family="'ocra10'" font-size="5">11</text>
	<text transform="matrix(0 -1 1 0 121.7285 17.3755)" fill="#FFFFFF" font-family="'ocra10'" font-size="5">10</text>
	<text transform="matrix(0 -1 1 0 128.8789 13.9507)" fill="#FFFFFF" font-family="'ocra10'" font-size="5">9</text>
	<text transform="matrix(0 -1 1 0 136.0273 13.9507)" fill="#FFFFFF" font-family="'ocra10'" font-size="5">8</text>
	<text transform="matrix(0 -1 1 0 150.2754 13.9507)" fill="#FFFFFF" font-family="'ocra10'" font-size="5">7</text>
	<text transform="matrix(0 -1 1 0 157.4766 13.9507)" fill="#FFFFFF" font-family="'ocra10'" font-size="5">6</text>
	<text transform="matrix(0 -1 1 0 164.6758 13.9507)" fill="#FFFFFF" font-family="'ocra10'" font-size="5">5</text>
	<text transform="matrix(0 -1 1 0 171.876 13.9507)" fill="#FFFFFF" font-family="'ocra10'" font-size="5">4</text>
	<text transform="matrix(0 -1 1 0 179.0762 13.9507)" fill="#FFFFFF" font-family="'ocra10'" font-size="5">3</text>
	<text transform="matrix(0 -1 1 0 186.2754 13.9507)" fill="#FFFFFF" font-family="'ocra10'" font-size="5">2</text>
	<text transform="matrix(0 -1 1 0 193.4766 33.0757)" fill="#FFFFFF" font-family="'ocra10'" font-size="5"> </text>
	<text transform="matrix(0 -1 1 0 193.4766 29.6509)" fill="#FFFFFF" font-family="'ocra10'" font-size="5">T</text>
	<text transform="matrix(0 -1 1 0 193.4766 26.2261)" fill="#FFFFFF" font-family="'ocra10'" font-size="5">X</text>
	<text transform="matrix(0 -1 1 0 193.4766 22.8013)" fill="#FFFFFF" font-family="'ocra10'" font-size="5"> </text>
	<text transform="matrix(0 -1 1 0 193.4766 18.3765)" fill="#FFFFFF" font-family="'ocra10'" font-size="5"> </text>
	<text transform="matrix(0 -1 1 0 193.4766 13.9517)" fill="#FFFFFF" font-family="'ocra10'" font-size="5">1</text>
	<text transform="matrix(0 -1 1 0 200.6758 33.0757)" fill="#FFFFFF" font-family="'ocra10'" font-size="5"> </text>
	<text transform="matrix(0 -1 1 0 200.6758 29.6509)" fill="#FFFFFF" font-family="'ocra10'" font-size="5">R</text>
	<text transform="matrix(0 -1 1 0 200.6758 26.2261)" fill="#FFFFFF" font-family="'ocra10'" font-size="5">X</text>
	<text transform="matrix(0 -1 1 0 200.6758 22.8013)" fill="#FFFFFF" font-family="'ocra10'" font-size="5"> </text>
	<text transform="matrix(0 -1 1 0 200.6758 18.3765)" fill="#FFFFFF" font-family="'ocra10'" font-size="5"> </text>
	<text transform="matrix(0 -1 1 0 200.6758 13.9517)" fill="#FFFFFF" font-family="'ocra10'" font-size="5">0</text>
	<text transform="matrix(0 -1 1 0 165.0508 136.9517)" fill="#FFFFFF" font-family="'ocra10'" font-size="5">0</text>
	<text transform="matrix(0 -1 1 0 172.2002 136.9517)" fill="#FFFFFF" font-family="'ocra10'" font-size="5">1</text>
	<text transform="matrix(0 -1 1 0 179.3496 136.9517)" fill="#FFFFFF" font-family="'ocra10'" font-size="5">2</text>
	<text transform="matrix(0 -1 1 0 186.5 136.9517)" fill="#FFFFFF" font-family="'ocra10'" font-size="5">3</text>
	<text transform="matrix(0 -1 1 0 193.6504 136.9517)" fill="#FFFFFF" font-family="'ocra10'" font-size="5">4</text>
	<text transform="matrix(0 -1 1 0 200.8008 136.9517)" fill="#FFFFFF" font-family="'ocra10'" font-size="5">5</text>
	<text transform="matrix(0 -1 1 0 207.9512 136.9517)" fill="#FFFFFF" font-family="'ocra10'" font-size="5">6</text>
	<text transform="matrix(0 -1 1 0 215.0996 136.9517)" fill="#FFFFFF" font-family="'ocra10'" font-size="5">7</text>
	<text transform="matrix(0 -1 1 0 114.5488 136.9517)" fill="#FFFFFF" font-family="'ocra10'" font-size="5">RESET</text>
	<text transform="matrix(0 -1 1 0 121.6992 136.9517)" fill="#FFFFFF" font-family="'ocra10'" font-size="5">3V3</text>
	<text transform="matrix(0 -1 1 0 229.3477 136.9517)" fill="#FFFFFF" font-family="'ocra10'" font-size="5">8</text>
	<text transform="matrix(0 -1 1 0 236.5488 136.9517)" fill="#FFFFFF" font-family="'ocra10'" font-size="5">9</text>
	<text transform="matrix(0 -1 1 0 243.748 136.9517)" fill="#FFFFFF" font-family="'ocra10'" font-size="5">1</text>
	<text transform="matrix(0 -1 1 0 243.748 134.0269)" fill="#FFFFFF" font-family="'ocra10'" font-size="5">0</text>
	<text transform="matrix(0 -1 1 0 250.9482 136.9517)" fill="#FFFFFF" font-family="'ocra10'" font-size="5">1</text>
	<text transform="matrix(0 -1 1 0 250.9482 134.0269)" fill="#FFFFFF" font-family="'ocra10'" font-size="5">1</text>
	<text transform="matrix(0 -1 1 0 258.1484 136.9517)" fill="#FFFFFF" font-family="'ocra10'" font-size="5">1</text>
	<text transform="matrix(0 -1 1 0 258.1484 134.0269)" fill="#FFFFFF" font-family="'ocra10'" font-size="5">2</text>
	<text transform="matrix(0 -1 1 0 265.3477 136.9517)" fill="#FFFFFF" font-family="'ocra10'" font-size="5">1</text>
	<text transform="matrix(0 -1 1 0 265.3477 134.0269)" fill="#FFFFFF" font-family="'ocra10'" font-size="5">3</text>
	<text transform="matrix(0 -1 1 0 272.5488 136.9517)" fill="#FFFFFF" font-family="'ocra10'" font-size="5">1</text>
	<text transform="matrix(0 -1 1 0 272.5488 134.0269)" fill="#FFFFFF" font-family="'ocra10'" font-size="5">4</text>
	<text transform="matrix(0 -1 1 0 279.748 136.9517)" fill="#FFFFFF" font-family="'ocra10'" font-size="5">1</text>
	<text transform="matrix(0 -1 1 0 279.748 134.0269)" fill="#FFFFFF" font-family="'ocra10'" font-size="5">5</text>
	<text transform="matrix(1 0 0 1 277.002 18.2036)" fill="#FFFFFF" font-family="'ocra10'" font-size="5">22</text>
	<text transform="matrix(1 0 0 1 277.002 25.4038)" fill="#FFFFFF" font-family="'ocra10'" font-size="5">24</text>
	<text transform="matrix(1 0 0 1 277.002 32.6035)" fill="#FFFFFF" font-family="'ocra10'" font-size="5">26</text>
	<text transform="matrix(1 0 0 1 277.002 39.8037)" fill="#FFFFFF" font-family="'ocra10'" font-size="5">28</text>
	<text transform="matrix(1 0 0 1 277.002 47.0034)" fill="#FFFFFF" font-family="'ocra10'" font-size="5">30</text>
	<text transform="matrix(1 0 0 1 277.002 54.2036)" fill="#FFFFFF" font-family="'ocra10'" font-size="5">32</text>
	<text transform="matrix(1 0 0 1 277.002 61.4038)" fill="#FFFFFF" font-family="'ocra10'" font-size="5">34</text>
	<text transform="matrix(1 0 0 1 277.002 68.604)" fill="#FFFFFF" font-family="'ocra10'" font-size="5">36</text>
	<text transform="matrix(1 0 0 1 277.002 75.8032)" fill="#FFFFFF" font-family="'ocra10'" font-size="5">38</text>
	<text transform="matrix(1 0 0 1 277.002 83.0034)" fill="#FFFFFF" font-family="'ocra10'" font-size="5">40</text>
	<text transform="matrix(1 0 0 1 277.002 90.2036)" fill="#FFFFFF" font-family="'ocra10'" font-size="5">42</text>
	<text transform="matrix(1 0 0 1 277.002 97.4038)" fill="#FFFFFF" font-family="'ocra10'" font-size="5">44</text>
	<text transform="matrix(1 0 0 1 277.002 104.604)" fill="#FFFFFF" font-family="'ocra10'" font-size="5">46</text>
	<text transform="matrix(1 0 0 1 277.002 111.8032)" fill="#FFFFFF" font-family="'ocra10'" font-size="5">48</text>
	<text transform="matrix(1 0 0 1 277.002 119.0034)" fill="#FFFFFF" font-family="'ocra10'" font-size="5">50</text>
	<text transform="matrix(1 0 0 1 277.002 126.2036)" fill="#FFFFFF" font-family="'ocra10'" font-size="5">52</text>
	<text transform="matrix(1 0 0 1 302.252 46.6851)" fill="#FFFFFF" font-family="'ocra10'" font-size="5">31</text>
	<text transform="matrix(1 0 0 1 302.252 53.8853)" fill="#FFFFFF" font-family="'ocra10'" font-size="5">33</text>
	<text transform="matrix(1 0 0 1 302.252 61.085)" fill="#FFFFFF" font-family="'ocra10'" font-size="5">35</text>
	<text transform="matrix(1 0 0 1 302.252 68.2852)" fill="#FFFFFF" font-family="'ocra10'" font-size="5">37</text>
	<text transform="matrix(1 0 0 1 302.252 75.4849)" fill="#FFFFFF" font-family="'ocra10'" font-size="5">39</text>
	<text transform="matrix(1 0 0 1 302.252 82.6851)" fill="#FFFFFF" font-family="'ocra10'" font-size="5">41</text>
	<text transform="matrix(1 0 0 1 302.252 89.8853)" fill="#FFFFFF" font-family="'ocra10'" font-size="5">43</text>
	<text transform="matrix(1 0 0 1 302.252 97.0854)" fill="#FFFFFF" font-family="'ocra10'" font-size="5">45</text>
	<text transform="matrix(1 0 0 1 302.252 104.2847)" fill="#FFFFFF" font-family="'ocra10'" font-size="5">47</text>
	<text transform="matrix(1 0 0 1 302.252 111.4849)" fill="#FFFFFF" font-family="'ocra10'" font-size="5">49</text>
	<text transform="matrix(1 0 0 1 302.252 118.6851)" fill="#FFFFFF" font-family="'ocra10'" font-size="5">51</text>
	<text transform="matrix(1 0 0 1 302.252 125.8853)" fill="#FFFFFF" font-family="'ocra10'" font-size="5">53</text>
	<text transform="matrix(0 -1 1 0 215.5449 31.0757)" fill="#FFFFFF" font-family="'ocra10'" font-size="5">TX3 14</text>
	<text transform="matrix(0 -1 1 0 222.7461 31.0757)" fill="#FFFFFF" font-family="'ocra10'" font-size="5">RX3 15</text>
	<text transform="matrix(0 -1 1 0 229.9453 31.0757)" fill="#FFFFFF" font-family="'ocra10'" font-size="5">TX2 16</text>
	<text transform="matrix(0 -1 1 0 237.1455 31.0757)" fill="#FFFFFF" font-family="'ocra10'" font-size="5">RX2 17</text>
	<text transform="matrix(0 -1 1 0 244.3457 31.0757)" fill="#FFFFFF" font-family="'ocra10'" font-size="5">TX1 18</text>
	<text transform="matrix(0 -1 1 0 251.5449 31.0757)" fill="#FFFFFF" font-family="'ocra10'" font-size="5">RX1 19</text>
	<text transform="matrix(0 -1 1 0 258.7461 31.0757)" fill="#FFFFFF" font-family="'ocra10'" font-size="5">SDA 20</text>
	<text transform="matrix(0 -1 1 0 265.9453 31.0757)" fill="#FFFFFF" font-family="'ocra10'" font-size="5">SCL 21</text>
	<polygon fill="#FFFFFF" points="189.388,19.711 191.435,16.166 193.481,19.711 	"/>
	<polygon fill="#FFFFFF" points="196.647,19.711 198.694,16.166 200.741,19.711 	"/>
	<text transform="matrix(1 0 0 1 135.7734 24.9253)" fill="#FFFFFF" font-family="'ocra10'" font-size="6">PWM</text>
	<text transform="matrix(1 0 0 1 215.6465 53.1519)" fill="#FFFFFF" font-family="'ocra10'" font-size="6">PWR</text>
	<polyline fill="none" stroke="#FFFFFF" points="273.72,122.399 270.941,119.621 270.941,86.82 	"/>
	<polyline fill="none" stroke="#FFFFFF" points="273.721,17.217 270.941,19.995 270.941,52.796 	"/>
	<polyline fill="none" stroke="#FFFFFF" points="190.611,34.549 193.391,37.329 199.057,37.329 	"/>
	<polyline fill="none" stroke="#FFFFFF" points="265.289,34.549 262.51,37.329 256.844,37.329 	"/>
	<polyline fill="none" stroke="#FFFFFF" points="183.602,20.195 180.822,22.974 149.853,22.974 	"/>
	<polyline fill="none" stroke="#FFFFFF" points="98.378,20.195 101.158,22.974 132.882,22.974 	"/>
	<text transform="matrix(0 -1 1 0 273.1074 83.4575)" fill="#FFFFFF" font-family="'ocra10'" font-size="6">DIGITAL</text>
	<g>
		<polyline fill="none" stroke="#FFFFFF" points="197.199,125.942 165.179,125.942 162.401,128.72 		"/>
		<polyline fill="none" stroke="#FFFFFF" points="276.421,128.721 273.643,125.942 242.27,125.942 		"/>
	</g>
	<text transform="matrix(1 0 0 1 201.9609 128.1079)" fill="#FFFFFF" font-family="'ocra10'" font-size="6">ANALOG IN</text>
	<text transform="matrix(1 0 0 1 201.084 39.1187)" fill="#FFFFFF" font-family="'ocra10'" font-size="6">COMMUNICATION</text>
	<text transform="matrix(1 0 0 1 123.6064 135.9536)" fill="#FFFFFF" font-family="'ocra10'" font-size="5">5V</text>
	<text transform="matrix(1 0 0 1 133.0088 135.9536)" fill="#FFFFFF" font-family="'ocra10'" font-size="5">GND</text>
	<text transform="matrix(1 0 0 1 301.1484 136.9517)" fill="#FFFFFF" font-family="'ocra10'" font-size="5">G</text>
	<text transform="matrix(1 0 0 1 304.0723 136.9517)" fill="#FFFFFF" font-family="'ocra10'" font-size="5">N</text>
	<text transform="matrix(1 0 0 1 306.998 136.9517)" fill="#FFFFFF" font-family="'ocra10'" font-size="5">D</text>
	<text transform="matrix(1 0 0 1 145.3379 135.9536)" fill="#FFFFFF" font-family="'ocra10'" font-size="5">VIN</text>
	<text transform="matrix(1 0 0 1 196.457 86.9077)" fill="#FFFFFF" font-family="'ocra10'" font-size="5.5">I</text>
	<text transform="matrix(1 0 0 1 199.6738 86.9077)" fill="#FFFFFF" font-family="'ocra10'" font-size="5.5">C</text>
	<text transform="matrix(1 0 0 1 202.8926 86.9077)" fill="#FFFFFF" font-family="'ocra10'" font-size="5.5">S</text>
	<text transform="matrix(1 0 0 1 206.1094 86.9077)" fill="#FFFFFF" font-family="'ocra10'" font-size="5.5">P</text>
	<text transform="matrix(1 0 0 1 196.0723 58.0386)" fill="#FFFFFF" font-family="'ocra10'" font-size="5.5">1</text>
	<polyline fill="none" stroke="#FFFFFF" points="296.979,135.067 296.979,136.57 289.802,136.57 289.802,135.067 	"/>
	<path fill="#02809E" d="M143.548,120.931c3.033,0,5.528-2.229,5.988-5.133h0.094V98.276c0-3.358-2.723-6.082-6.082-6.082
		s-6.083,2.724-6.083,6.082v17.522h0.095C138.02,118.704,140.516,120.931,143.548,120.931z"/>
</g>
</svg>
