<?xml version="1.0" encoding="utf-8"?>
<!-- Generator: Adobe Illustrator 14.0.0, SVG Export Plug-In . SVG Version: 6.00 Build 43363)  -->
<!DOCTYPE svg PUBLIC "-//W3C//DTD SVG 1.1//EN" "http://www.w3.org/Graphics/SVG/1.1/DTD/svg11.dtd">
<svg version="1.1" id="Layer_1" xmlns="http://www.w3.org/2000/svg" xmlns:xlink="http://www.w3.org/1999/xlink" x="0px" y="0px"
	 width="50.4px" height="86.645px" viewBox="0 0 50.4 86.645" enable-background="new 0 0 50.4 86.645" xml:space="preserve">
<circle id="connector34pin" fill="none" cx="18.081" cy="82.788" r="1.387"/>
<circle id="connector33pin" fill="none" cx="10.881" cy="82.788" r="1.387"/>
<circle id="connector32pin" fill="none" cx="18.081" cy="75.588" r="1.387"/>
<circle id="connector31pin" fill="none" cx="10.881" cy="75.588" r="1.387"/>
<rect id="connector30pin_11_" x="3.093" y="82.206" fill="none" width="1.184" height="1.185"/>
<rect id="connector29pin" x="3.093" y="75.006" fill="none" width="1.184" height="1.185"/>
<rect id="connector28pin" x="3.093" y="67.807" fill="none" width="1.184" height="1.184"/>
<rect id="connector27pin" x="3.093" y="60.605" fill="none" width="1.184" height="1.184"/>
<rect id="connector26pin" x="3.093" y="53.405" fill="none" width="1.184" height="1.185"/>
<rect id="connector25pin" x="3.093" y="46.205" fill="none" width="1.184" height="1.185"/>
<rect id="connector24pin" x="3.093" y="39.005" fill="none" width="1.184" height="1.184"/>
<rect id="connector23pin" x="3.093" y="31.805" fill="none" width="1.184" height="1.184"/>
<rect id="connector22pin" x="3.093" y="24.605" fill="none" width="1.184" height="1.184"/>
<rect id="connector21pin" x="3.093" y="17.404" fill="none" width="1.184" height="1.184"/>
<rect id="connector20pin" x="3.093" y="10.205" fill="none" width="1.184" height="1.184"/>
<rect id="connector19pin" x="3.093" y="3.004" fill="none" width="1.184" height="1.184"/>
<circle id="connector18pin" fill="none" cx="10.881" cy="3.592" r="1.387"/>
<circle id="connector17pin" fill="none" cx="18.081" cy="3.592" r="1.387"/>
<circle id="connector16pin" fill="none" cx="25.28" cy="3.592" r="1.387"/>
<circle id="connector15pin" fill="none" cx="32.479" cy="3.592" r="1.387"/>
<circle id="connector14pin" fill="none" cx="39.679" cy="3.592" r="1.387"/>
<rect id="connector13pin" x="46.299" y="3.004" fill="none" width="1.185" height="1.184"/>
<rect id="connector12pin" x="46.299" y="10.205" fill="none" width="1.185" height="1.184"/>
<rect id="connector11pin" x="46.299" y="17.404" fill="none" width="1.185" height="1.184"/>
<rect id="connector10pin" x="46.299" y="24.605" fill="none" width="1.185" height="1.184"/>
<rect id="connector9pin" x="46.299" y="31.805" fill="none" width="1.185" height="1.184"/>
<rect id="connector8pin" x="46.299" y="39.005" fill="none" width="1.185" height="1.184"/>
<rect id="connector7pin" x="46.299" y="46.205" fill="none" width="1.185" height="1.185"/>
<rect id="connector6pin" x="46.299" y="53.405" fill="none" width="1.185" height="1.185"/>
<rect id="connector5pin" x="46.299" y="60.605" fill="none" width="1.185" height="1.184"/>
<rect id="connector4pin" x="46.299" y="67.807" fill="none" width="1.185" height="1.184"/>
<rect id="connector3pin" x="46.299" y="75.006" fill="none" width="1.185" height="1.185"/>
<rect id="connector2pin" x="46.299" y="82.206" fill="none" width="1.185" height="1.185"/>
<circle id="connector1pin" fill="none" cx="39.679" cy="82.788" r="1.387"/>
<circle id="connector0pin" fill="none" cx="32.479" cy="82.788" r="1.387"/>
<g id="breadboard">
	<g>
		<path fill="#0F7391" d="M0.001,0.124V86.52h50.398V0.124H0.001z M10.881,84.175c-0.766,0-1.387-0.621-1.387-1.387
			c0-0.767,0.621-1.388,1.387-1.388s1.387,0.621,1.387,1.388C12.267,83.554,11.646,84.175,10.881,84.175z M10.881,76.975
			c-0.766,0-1.387-0.62-1.387-1.387c0-0.766,0.621-1.387,1.387-1.387s1.387,0.621,1.387,1.387
			C12.267,76.354,11.646,76.975,10.881,76.975z M10.881,4.979c-0.766,0-1.387-0.621-1.387-1.387s0.621-1.387,1.387-1.387
			s1.387,0.621,1.387,1.387S11.646,4.979,10.881,4.979z M18.081,84.175c-0.767,0-1.388-0.621-1.388-1.387
			c0-0.767,0.621-1.388,1.388-1.388c0.766,0,1.387,0.621,1.387,1.388C19.468,83.554,18.846,84.175,18.081,84.175z M18.081,76.975
			c-0.767,0-1.388-0.62-1.388-1.387c0-0.766,0.621-1.387,1.388-1.387c0.766,0,1.387,0.621,1.387,1.387
			C19.468,76.354,18.846,76.975,18.081,76.975z M18.081,4.979c-0.767,0-1.388-0.621-1.388-1.387s0.621-1.387,1.388-1.387
			c0.766,0,1.387,0.621,1.387,1.387S18.846,4.979,18.081,4.979z M25.28,4.979c-0.766,0-1.387-0.621-1.387-1.387
			s0.621-1.387,1.387-1.387s1.387,0.621,1.387,1.387S26.046,4.979,25.28,4.979z M32.479,84.175c-0.766,0-1.387-0.621-1.387-1.387
			c0-0.767,0.621-1.388,1.387-1.388c0.767,0,1.388,0.621,1.388,1.388C33.867,83.554,33.246,84.175,32.479,84.175z M32.479,4.979
			c-0.766,0-1.387-0.621-1.387-1.387s0.621-1.387,1.387-1.387c0.767,0,1.388,0.621,1.388,1.387S33.246,4.979,32.479,4.979z
			 M39.679,84.175c-0.766,0-1.387-0.621-1.387-1.387c0-0.767,0.62-1.388,1.387-1.388c0.766,0,1.387,0.621,1.387,1.388
			C41.066,83.554,40.445,84.175,39.679,84.175z M39.679,4.979c-0.766,0-1.387-0.621-1.387-1.387s0.62-1.387,1.387-1.387
			c0.766,0,1.387,0.621,1.387,1.387S40.445,4.979,39.679,4.979z"/>
	</g>
	<path fill="none" stroke="#FFFFFF" stroke-width="0.25" d="M14.4,84.958l1.563,1.562h4.07l1.564-1.562V73.686l-1.564-1.564h-4.07
		L14.4,73.686h-0.001l-1.563-1.564H8.764l-1.563,1.564v11.271l1.562,1.562h4.071L14.4,84.958L14.4,84.958z"/>
	<rect x="2.531" y="2.44" fill="#8D8C8C" width="2.298" height="2.299"/>
	<rect x="3.09" y="2.999" fill="#8C8663" width="1.183" height="1.182"/>
	<polygon fill="#B8AF82" points="2.531,2.44 3.09,2.999 4.271,2.999 4.829,2.44 	"/>
	<polygon fill="#80795B" points="4.271,4.181 4.271,2.999 4.829,2.44 4.829,4.739 	"/>
	<polygon fill="#5E5B43" points="3.09,4.181 4.271,4.181 4.829,4.739 2.531,4.739 	"/>
	<polygon fill="#9A916C" points="2.531,2.44 3.09,2.999 3.09,4.181 2.531,4.739 	"/>
	<rect x="2.531" y="9.642" fill="#8D8C8C" width="2.298" height="2.299"/>
	<rect x="3.09" y="10.197" fill="#8C8663" width="1.183" height="1.184"/>
	<polygon fill="#B8AF82" points="2.531,9.642 3.09,10.197 4.271,10.197 4.829,9.642 	"/>
	<polygon fill="#80795B" points="4.271,11.381 4.271,10.197 4.829,9.642 4.829,11.939 	"/>
	<polygon fill="#5E5B43" points="3.09,11.381 4.271,11.381 4.829,11.939 2.531,11.939 	"/>
	<polygon fill="#9A916C" points="2.531,9.642 3.09,10.197 3.09,11.381 2.531,11.939 	"/>
	<rect x="2.531" y="16.84" fill="#8D8C8C" width="2.298" height="2.299"/>
	<rect x="3.09" y="17.398" fill="#8C8663" width="1.183" height="1.182"/>
	<polygon fill="#B8AF82" points="2.531,16.84 3.09,17.398 4.271,17.398 4.829,16.84 	"/>
	<polygon fill="#80795B" points="4.271,18.58 4.271,17.398 4.829,16.84 4.829,19.139 	"/>
	<polygon fill="#5E5B43" points="3.09,18.58 4.271,18.58 4.829,19.139 2.531,19.139 	"/>
	<polygon fill="#9A916C" points="2.531,16.84 3.09,17.398 3.09,18.58 2.531,19.139 	"/>
	<rect x="2.531" y="24.041" fill="#8D8C8C" width="2.298" height="2.299"/>
	<rect x="3.09" y="24.598" fill="#8C8663" width="1.183" height="1.184"/>
	<polygon fill="#B8AF82" points="2.531,24.041 3.09,24.598 4.271,24.598 4.829,24.041 	"/>
	<polygon fill="#80795B" points="4.271,25.781 4.271,24.598 4.829,24.041 4.829,26.34 	"/>
	<polygon fill="#5E5B43" points="3.09,25.781 4.271,25.781 4.829,26.34 2.531,26.34 	"/>
	<polygon fill="#9A916C" points="2.531,24.041 3.09,24.598 3.09,25.781 2.531,26.34 	"/>
	<rect x="2.531" y="31.239" fill="#8D8C8C" width="2.298" height="2.299"/>
	<rect x="3.09" y="31.798" fill="#8C8663" width="1.183" height="1.182"/>
	<polygon fill="#B8AF82" points="2.531,31.239 3.09,31.798 4.271,31.798 4.829,31.239 	"/>
	<polygon fill="#80795B" points="4.271,32.979 4.271,31.798 4.829,31.239 4.829,33.539 	"/>
	<polygon fill="#5E5B43" points="3.09,32.979 4.271,32.979 4.829,33.539 2.531,33.539 	"/>
	<polygon fill="#9A916C" points="2.531,31.239 3.09,31.798 3.09,32.979 2.531,33.539 	"/>
	<rect x="2.531" y="38.44" fill="#8D8C8C" width="2.298" height="2.299"/>
	<rect x="3.09" y="38.997" fill="#8C8663" width="1.183" height="1.184"/>
	<polygon fill="#B8AF82" points="2.531,38.44 3.09,38.997 4.271,38.997 4.829,38.44 	"/>
	<polygon fill="#80795B" points="4.271,40.181 4.271,38.997 4.829,38.44 4.829,40.739 	"/>
	<polygon fill="#5E5B43" points="3.09,40.181 4.271,40.181 4.829,40.739 2.531,40.739 	"/>
	<polygon fill="#9A916C" points="2.531,38.44 3.09,38.997 3.09,40.181 2.531,40.739 	"/>
	<rect x="2.531" y="45.64" fill="#8D8C8C" width="2.298" height="2.299"/>
	<rect x="3.09" y="46.197" fill="#8C8663" width="1.183" height="1.183"/>
	<polygon fill="#B8AF82" points="2.531,45.64 3.09,46.197 4.271,46.197 4.829,45.64 	"/>
	<polygon fill="#80795B" points="4.271,47.38 4.271,46.197 4.829,45.64 4.829,47.938 	"/>
	<polygon fill="#5E5B43" points="3.09,47.38 4.271,47.38 4.829,47.938 2.531,47.938 	"/>
	<polygon fill="#9A916C" points="2.531,45.64 3.09,46.197 3.09,47.38 2.531,47.938 	"/>
	<rect x="2.531" y="52.84" fill="#8D8C8C" width="2.298" height="2.299"/>
	<rect x="3.09" y="53.396" fill="#8C8663" width="1.183" height="1.184"/>
	<polygon fill="#B8AF82" points="2.531,52.84 3.09,53.396 4.271,53.396 4.829,52.84 	"/>
	<polygon fill="#80795B" points="4.271,54.58 4.271,53.396 4.829,52.84 4.829,55.139 	"/>
	<polygon fill="#5E5B43" points="3.09,54.58 4.271,54.58 4.829,55.139 2.531,55.139 	"/>
	<polygon fill="#9A916C" points="2.531,52.84 3.09,53.396 3.09,54.58 2.531,55.139 	"/>
	<rect x="2.531" y="60.039" fill="#8D8C8C" width="2.298" height="2.299"/>
	<rect x="3.09" y="60.598" fill="#8C8663" width="1.183" height="1.183"/>
	<polygon fill="#B8AF82" points="2.531,60.039 3.09,60.598 4.271,60.598 4.829,60.039 	"/>
	<polygon fill="#80795B" points="4.271,61.779 4.271,60.598 4.829,60.039 4.829,62.338 	"/>
	<polygon fill="#5E5B43" points="3.09,61.779 4.271,61.779 4.829,62.338 2.531,62.338 	"/>
	<polygon fill="#9A916C" points="2.531,60.039 3.09,60.598 3.09,61.779 2.531,62.338 	"/>
	<rect x="2.531" y="67.24" fill="#8D8C8C" width="2.298" height="2.299"/>
	<rect x="3.09" y="67.797" fill="#8C8663" width="1.183" height="1.184"/>
	<polygon fill="#B8AF82" points="2.531,67.24 3.09,67.797 4.271,67.797 4.829,67.24 	"/>
	<polygon fill="#80795B" points="4.271,68.979 4.271,67.797 4.829,67.24 4.829,69.539 	"/>
	<polygon fill="#5E5B43" points="3.09,68.979 4.271,68.979 4.829,69.539 2.531,69.539 	"/>
	<polygon fill="#9A916C" points="2.531,67.24 3.09,67.797 3.09,68.979 2.531,69.539 	"/>
	<rect x="2.531" y="74.438" fill="#8D8C8C" width="2.298" height="2.299"/>
	<rect x="3.09" y="74.998" fill="#8C8663" width="1.183" height="1.182"/>
	<polygon fill="#B8AF82" points="2.531,74.438 3.09,74.998 4.271,74.998 4.829,74.438 	"/>
	<polygon fill="#80795B" points="4.271,76.18 4.271,74.998 4.829,74.438 4.829,76.737 	"/>
	<polygon fill="#5E5B43" points="3.09,76.18 4.271,76.18 4.829,76.737 2.531,76.737 	"/>
	<polygon fill="#9A916C" points="2.531,74.438 3.09,74.998 3.09,76.18 2.531,76.737 	"/>
	<rect x="2.531" y="81.641" fill="#8D8C8C" width="2.298" height="2.299"/>
	<rect x="3.09" y="82.195" fill="#8C8663" width="1.183" height="1.185"/>
	<polygon fill="#B8AF82" points="2.531,81.641 3.09,82.195 4.271,82.195 4.829,81.641 	"/>
	<polygon fill="#80795B" points="4.271,83.38 4.271,82.195 4.829,81.641 4.829,83.938 	"/>
	<polygon fill="#5E5B43" points="3.09,83.38 4.271,83.38 4.829,83.938 2.531,83.938 	"/>
	<polygon fill="#9A916C" points="2.531,81.641 3.09,82.195 3.09,83.38 2.531,83.938 	"/>
	<path fill="#FFFFFF" d="M5.532,0.374L6.95,1.792v3.865L5.459,7.146L5.282,7.323L5.459,7.5L6.95,8.991v3.865l-1.491,1.489
		l-0.073,0.075v0.104v0.104L5.459,14.7l1.491,1.491v3.865l-1.491,1.489l-0.177,0.177l0.177,0.177L6.95,23.39v3.865l-1.491,1.489
		l-0.073,0.075v0.104v0.104L5.459,29.1L6.95,30.59v3.865l-1.491,1.489l-0.177,0.177l0.177,0.177l1.491,1.491v3.865l-1.491,1.489
		l-0.073,0.075v0.104v0.104l0.073,0.073L6.95,44.99v3.864l-1.491,1.489l-0.177,0.177l0.177,0.177l1.491,1.491v3.864l-1.491,1.489
		l-0.073,0.075v0.104v0.104l0.073,0.073l1.491,1.49v3.865l-1.491,1.488L5.282,64.92l0.177,0.177l1.491,1.491v3.865l-1.491,1.488
		l-0.073,0.075v0.104v0.104l0.073,0.072l1.491,1.492v3.864l-1.491,1.489l-0.177,0.177l0.177,0.177l1.491,1.491v3.864l-1.418,1.416
		H1.668l-1.417-1.414v-3.864l1.49-1.491l0.177-0.177l-0.177-0.177l-1.49-1.489v-3.864l1.49-1.492l0.073-0.074v-0.104v-0.104
		l-0.073-0.073l-1.49-1.488V66.59l1.49-1.491l0.177-0.177l-0.177-0.177l-1.49-1.489v-3.865l1.49-1.49l0.073-0.075v-0.104v-0.104
		l-0.073-0.073l-1.49-1.489V52.19l1.49-1.491l0.177-0.177l-0.177-0.177l-1.49-1.489v-3.864l1.49-1.491l0.073-0.075v-0.104v-0.104
		l-0.073-0.074l-1.49-1.489V37.79l1.49-1.491l0.177-0.177l-0.177-0.177l-1.49-1.489v-3.865l1.49-1.491l0.073-0.075v-0.104v-0.104
		l-0.073-0.073l-1.49-1.489v-3.865l1.49-1.492l0.177-0.177l-0.177-0.176l-1.49-1.489v-3.865l1.49-1.491l0.073-0.075v-0.104v-0.104
		l-0.073-0.073l-1.49-1.489V8.991L1.741,7.5l0.177-0.177L1.741,7.146l-1.49-1.489V1.792l1.417-1.418H5.532 M5.635,0.124H1.564
		L0.001,1.688V5.76l1.563,1.562L0.001,8.888v4.072l1.563,1.562v0.002l-1.563,1.565v4.072l1.563,1.562l-1.563,1.565v4.071
		l1.563,1.562v0.002l-1.563,1.564v4.072l1.563,1.562l-1.563,1.565v4.072l1.563,1.562v0.002l-1.563,1.566v4.071l1.563,1.562
		l-1.563,1.564v4.072l1.563,1.562v0.002l-1.563,1.564v4.072l1.563,1.562l-1.563,1.565v4.071l1.563,1.562v0.002l-1.563,1.565v4.071
		l1.563,1.562l-1.563,1.566v4.071l1.563,1.562h4.07l1.564-1.562v-4.071l-1.564-1.564l1.564-1.562v-4.073l-1.564-1.563v-0.002
		l1.564-1.562v-4.072l-1.564-1.563l1.564-1.562v-4.074l-1.564-1.564v-0.002l1.564-1.562v-4.071l-1.564-1.564l1.564-1.562v-4.073
		l-1.564-1.564v-0.002l1.564-1.562v-4.072l-1.564-1.564l1.564-1.562v-4.072l-1.564-1.564v-0.002l1.564-1.562v-4.072l-1.564-1.564
		l1.564-1.562v-4.072l-1.564-1.564v-0.002l1.564-1.562V8.888L5.635,7.323L7.2,5.761V1.688L5.635,0.124L5.635,0.124z"/>
	<g>
		<rect x="45.73" y="2.44" fill="#8D8C8C" width="2.297" height="2.299"/>
		<rect x="46.289" y="2.999" fill="#8C8663" width="1.182" height="1.182"/>
		<polygon fill="#B8AF82" points="45.73,2.44 46.289,2.999 47.468,2.999 48.027,2.44 		"/>
		<polygon fill="#80795B" points="47.468,4.181 47.468,2.999 48.027,2.44 48.027,4.739 		"/>
		<polygon fill="#5E5B43" points="46.289,4.181 47.468,4.181 48.027,4.739 45.73,4.739 		"/>
		<polygon fill="#9A916C" points="45.73,2.44 46.289,2.999 46.289,4.181 45.73,4.739 		"/>
		<rect x="45.73" y="9.642" fill="#8D8C8C" width="2.297" height="2.299"/>
		<rect x="46.289" y="10.197" fill="#8C8663" width="1.182" height="1.184"/>
		<polygon fill="#B8AF82" points="45.73,9.642 46.289,10.197 47.468,10.197 48.027,9.642 		"/>
		<polygon fill="#80795B" points="47.468,11.381 47.468,10.197 48.027,9.642 48.027,11.939 		"/>
		<polygon fill="#5E5B43" points="46.289,11.381 47.468,11.381 48.027,11.939 45.73,11.939 		"/>
		<polygon fill="#9A916C" points="45.73,9.642 46.289,10.197 46.289,11.381 45.73,11.939 		"/>
		<rect x="45.73" y="16.84" fill="#8D8C8C" width="2.297" height="2.299"/>
		<rect x="46.289" y="17.398" fill="#8C8663" width="1.182" height="1.182"/>
		<polygon fill="#B8AF82" points="45.73,16.84 46.289,17.398 47.468,17.398 48.027,16.84 		"/>
		<polygon fill="#80795B" points="47.468,18.58 47.468,17.398 48.027,16.84 48.027,19.139 		"/>
		<polygon fill="#5E5B43" points="46.289,18.58 47.468,18.58 48.027,19.139 45.73,19.139 		"/>
		<polygon fill="#9A916C" points="45.73,16.84 46.289,17.398 46.289,18.58 45.73,19.139 		"/>
		<rect x="45.73" y="24.041" fill="#8D8C8C" width="2.297" height="2.299"/>
		<rect x="46.289" y="24.598" fill="#8C8663" width="1.182" height="1.184"/>
		<polygon fill="#B8AF82" points="45.73,24.041 46.289,24.598 47.468,24.598 48.027,24.041 		"/>
		<polygon fill="#80795B" points="47.468,25.781 47.468,24.598 48.027,24.041 48.027,26.34 		"/>
		<polygon fill="#5E5B43" points="46.289,25.781 47.468,25.781 48.027,26.34 45.73,26.34 		"/>
		<polygon fill="#9A916C" points="45.73,24.041 46.289,24.598 46.289,25.781 45.73,26.34 		"/>
		<rect x="45.73" y="31.239" fill="#8D8C8C" width="2.297" height="2.299"/>
		<rect x="46.289" y="31.798" fill="#8C8663" width="1.182" height="1.182"/>
		<polygon fill="#B8AF82" points="45.73,31.239 46.289,31.798 47.468,31.798 48.027,31.239 		"/>
		<polygon fill="#80795B" points="47.468,32.979 47.468,31.798 48.027,31.239 48.027,33.539 		"/>
		<polygon fill="#5E5B43" points="46.289,32.979 47.468,32.979 48.027,33.539 45.73,33.539 		"/>
		<polygon fill="#9A916C" points="45.73,31.239 46.289,31.798 46.289,32.979 45.73,33.539 		"/>
		<rect x="45.73" y="38.44" fill="#8D8C8C" width="2.297" height="2.299"/>
		<rect x="46.289" y="38.997" fill="#8C8663" width="1.182" height="1.184"/>
		<polygon fill="#B8AF82" points="45.73,38.44 46.289,38.997 47.468,38.997 48.027,38.44 		"/>
		<polygon fill="#80795B" points="47.468,40.181 47.468,38.997 48.027,38.44 48.027,40.739 		"/>
		<polygon fill="#5E5B43" points="46.289,40.181 47.468,40.181 48.027,40.739 45.73,40.739 		"/>
		<polygon fill="#9A916C" points="45.73,38.44 46.289,38.997 46.289,40.181 45.73,40.739 		"/>
		<rect x="45.73" y="45.64" fill="#8D8C8C" width="2.297" height="2.299"/>
		<rect x="46.289" y="46.197" fill="#8C8663" width="1.182" height="1.183"/>
		<polygon fill="#B8AF82" points="45.73,45.64 46.289,46.197 47.468,46.197 48.027,45.64 		"/>
		<polygon fill="#80795B" points="47.468,47.38 47.468,46.197 48.027,45.64 48.027,47.938 		"/>
		<polygon fill="#5E5B43" points="46.289,47.38 47.468,47.38 48.027,47.938 45.73,47.938 		"/>
		<polygon fill="#9A916C" points="45.73,45.64 46.289,46.197 46.289,47.38 45.73,47.938 		"/>
		<rect x="45.73" y="52.84" fill="#8D8C8C" width="2.297" height="2.299"/>
		<rect x="46.289" y="53.396" fill="#8C8663" width="1.182" height="1.184"/>
		<polygon fill="#B8AF82" points="45.73,52.84 46.289,53.396 47.468,53.396 48.027,52.84 		"/>
		<polygon fill="#80795B" points="47.468,54.58 47.468,53.396 48.027,52.84 48.027,55.139 		"/>
		<polygon fill="#5E5B43" points="46.289,54.58 47.468,54.58 48.027,55.139 45.73,55.139 		"/>
		<polygon fill="#9A916C" points="45.73,52.84 46.289,53.396 46.289,54.58 45.73,55.139 		"/>
		<rect x="45.73" y="60.039" fill="#8D8C8C" width="2.297" height="2.299"/>
		<rect x="46.289" y="60.598" fill="#8C8663" width="1.182" height="1.183"/>
		<polygon fill="#B8AF82" points="45.73,60.039 46.289,60.598 47.468,60.598 48.027,60.039 		"/>
		<polygon fill="#80795B" points="47.468,61.779 47.468,60.598 48.027,60.039 48.027,62.338 		"/>
		<polygon fill="#5E5B43" points="46.289,61.779 47.468,61.779 48.027,62.338 45.73,62.338 		"/>
		<polygon fill="#9A916C" points="45.73,60.039 46.289,60.598 46.289,61.779 45.73,62.338 		"/>
		<rect x="45.73" y="67.24" fill="#8D8C8C" width="2.297" height="2.299"/>
		<rect x="46.289" y="67.797" fill="#8C8663" width="1.182" height="1.184"/>
		<polygon fill="#B8AF82" points="45.73,67.24 46.289,67.797 47.468,67.797 48.027,67.24 		"/>
		<polygon fill="#80795B" points="47.468,68.979 47.468,67.797 48.027,67.24 48.027,69.539 		"/>
		<polygon fill="#5E5B43" points="46.289,68.979 47.468,68.979 48.027,69.539 45.73,69.539 		"/>
		<polygon fill="#9A916C" points="45.73,67.24 46.289,67.797 46.289,68.979 45.73,69.539 		"/>
		<rect x="45.73" y="74.438" fill="#8D8C8C" width="2.297" height="2.299"/>
		<rect x="46.289" y="74.998" fill="#8C8663" width="1.182" height="1.182"/>
		<polygon fill="#B8AF82" points="45.73,74.438 46.289,74.998 47.468,74.998 48.027,74.438 		"/>
		<polygon fill="#80795B" points="47.468,76.18 47.468,74.998 48.027,74.438 48.027,76.737 		"/>
		<polygon fill="#5E5B43" points="46.289,76.18 47.468,76.18 48.027,76.737 45.73,76.737 		"/>
		<polygon fill="#9A916C" points="45.73,74.438 46.289,74.998 46.289,76.18 45.73,76.737 		"/>
		<rect x="45.73" y="81.641" fill="#8D8C8C" width="2.297" height="2.299"/>
		<rect x="46.289" y="82.195" fill="#8C8663" width="1.182" height="1.185"/>
		<polygon fill="#B8AF82" points="45.73,81.641 46.289,82.195 47.468,82.195 48.027,81.641 		"/>
		<polygon fill="#80795B" points="47.468,83.38 47.468,82.195 48.027,81.641 48.027,83.938 		"/>
		<polygon fill="#5E5B43" points="46.289,83.38 47.468,83.38 48.027,83.938 45.73,83.938 		"/>
		<polygon fill="#9A916C" points="45.73,81.641 46.289,82.195 46.289,83.38 45.73,83.938 		"/>
		<path fill="#FFFFFF" d="M48.73,0.374l1.418,1.418v3.865l-1.491,1.489L48.48,7.323L48.657,7.5l1.491,1.491v3.865l-1.491,1.489
			l-0.073,0.075v0.104v0.104l0.073,0.073l1.491,1.491v3.865l-1.491,1.489l-0.177,0.177l0.177,0.177l1.491,1.491v3.865l-1.491,1.489
			l-0.073,0.075v0.104v0.104l0.073,0.073l1.491,1.491v3.865l-1.491,1.489l-0.177,0.177l0.177,0.177l1.491,1.491v3.865l-1.491,1.489
			l-0.073,0.075v0.104v0.104l0.073,0.073l1.491,1.491v3.864l-1.491,1.489l-0.177,0.177l0.177,0.177l1.491,1.491v3.864l-1.491,1.489
			l-0.073,0.075v0.104v0.104l0.073,0.073l1.491,1.49v3.865l-1.491,1.488L48.48,64.92l0.177,0.177l1.491,1.491v3.865l-1.491,1.488
			l-0.073,0.075v0.104v0.104l0.073,0.072l1.491,1.492v3.864l-1.491,1.489l-0.177,0.177l0.177,0.177l1.491,1.491v3.864l-1.418,1.416
			h-3.863l-1.418-1.416v-3.864l1.491-1.491l0.177-0.177l-0.177-0.177l-1.491-1.489v-3.864l1.491-1.492l0.073-0.074v-0.104v-0.104
			l-0.073-0.073l-1.491-1.488v-3.865l1.491-1.491l0.177-0.177l-0.177-0.178l-1.491-1.488v-3.865l1.491-1.49l0.073-0.075v-0.104
			v-0.102l-0.073-0.073l-1.491-1.489V52.19l1.491-1.491l0.177-0.177l-0.177-0.177l-1.491-1.489v-3.864l1.491-1.491l0.073-0.075
			v-0.104v-0.104l-0.073-0.073l-1.491-1.489v-3.865L44.94,36.3l0.177-0.177l-0.177-0.177l-1.491-1.489v-3.865l1.491-1.491
			l0.073-0.075v-0.104v-0.104l-0.073-0.073l-1.491-1.489v-3.865l1.491-1.491l0.177-0.177l-0.177-0.177l-1.491-1.489v-3.865
			l1.491-1.491l0.073-0.075v-0.104v-0.104l-0.073-0.073l-1.491-1.489V8.991L44.94,7.5l0.177-0.177L44.94,7.146l-1.491-1.489V1.792
			l1.418-1.418H48.73 M48.833,0.124h-4.069l-1.564,1.564V5.76l1.564,1.562l-1.564,1.566v4.072l1.564,1.562v0.002l-1.564,1.565v4.072
			l1.564,1.562l-1.564,1.565v4.071l1.564,1.562v0.002l-1.564,1.564v4.072l1.564,1.562l-1.564,1.565v4.072l1.564,1.562v0.002
			l-1.564,1.566v4.071l1.564,1.562l-1.564,1.564v4.072l1.564,1.562v0.002l-1.564,1.564v4.072l1.564,1.562l-1.564,1.565v4.071
			l1.564,1.562v0.002l-1.564,1.565v4.071l1.564,1.562l-1.564,1.566v4.071l1.564,1.562h4.069l1.564-1.562v-4.071l-1.564-1.564
			l1.564-1.562v-4.073l-1.564-1.563v-0.002l1.564-1.562v-4.072l-1.564-1.563l1.564-1.562v-4.074l-1.564-1.564v-0.002l1.564-1.562
			v-4.071l-1.564-1.564l1.564-1.562v-4.073l-1.564-1.564v-0.002l1.564-1.562v-4.072l-1.564-1.564l1.564-1.562v-4.072l-1.564-1.564
			v-0.002l1.564-1.562v-4.072l-1.564-1.564l1.564-1.562v-4.072l-1.564-1.564v-0.002l1.564-1.562V8.888l-1.564-1.564l1.564-1.562
			V1.688L48.833,0.124L48.833,0.124z"/>
	</g>
	<path fill="none" stroke="#FFFFFF" stroke-width="0.25" d="M36,84.958l1.563,1.562h4.071l1.562-1.562v-4.071l-1.562-1.564h-4.071
		L36,80.887l0,0l-1.563-1.564h-4.07L28.8,80.887v4.071l1.564,1.562h4.07L36,84.958L36,84.958z"/>
	<g>
		<path fill="#9A916C" d="M10.881,73.179c-1.332,0-2.41,1.077-2.41,2.409c0,1.33,1.078,2.41,2.41,2.41c1.33,0,2.41-1.08,2.41-2.41
			C13.291,74.256,12.211,73.179,10.881,73.179z M10.881,76.975c-0.766,0-1.387-0.62-1.387-1.387c0-0.766,0.621-1.387,1.387-1.387
			s1.387,0.621,1.387,1.387C12.267,76.354,11.646,76.975,10.881,76.975z"/>
	</g>
	<g>
		<path fill="#9A916C" d="M18.081,73.179c-1.332,0-2.41,1.077-2.41,2.409c0,1.33,1.078,2.41,2.41,2.41
			c1.329,0,2.409-1.08,2.409-2.41C20.49,74.256,19.41,73.179,18.081,73.179z M18.081,76.975c-0.767,0-1.388-0.62-1.388-1.387
			c0-0.766,0.621-1.387,1.388-1.387c0.766,0,1.387,0.621,1.387,1.387C19.468,76.354,18.846,76.975,18.081,76.975z"/>
	</g>
	<g>
		<path fill="#9A916C" d="M18.081,80.378c-1.332,0-2.41,1.078-2.41,2.41c0,1.33,1.078,2.409,2.41,2.409
			c1.329,0,2.409-1.079,2.409-2.409C20.49,81.456,19.41,80.378,18.081,80.378z M18.081,84.175c-0.767,0-1.388-0.621-1.388-1.387
			c0-0.767,0.621-1.388,1.388-1.388c0.766,0,1.387,0.621,1.387,1.388C19.468,83.554,18.846,84.175,18.081,84.175z"/>
	</g>
	<g>
		<path fill="#9A916C" d="M8.47,80.378v2.41v2.409h4.82v-2.409v-2.41H8.47z M10.881,84.175c-0.766,0-1.387-0.621-1.387-1.387
			c0-0.767,0.621-1.388,1.387-1.388s1.387,0.621,1.387,1.388C12.267,83.554,11.646,84.175,10.881,84.175z"/>
	</g>
	<g>
		<path fill="#9A916C" d="M30.07,82.788c0,1.33,1.08,2.409,2.409,2.409c1.332,0,2.41-1.079,2.41-2.409c0-1.332-1.078-2.41-2.41-2.41
			C31.15,80.378,30.07,81.456,30.07,82.788z M31.093,82.788c0-0.767,0.621-1.388,1.387-1.388c0.767,0,1.388,0.621,1.388,1.388
			c0,0.766-0.621,1.387-1.388,1.387C31.714,84.175,31.093,83.554,31.093,82.788z"/>
	</g>
	<g>
		<path fill="#9A916C" d="M37.269,80.378v2.41v2.409h4.82v-2.409v-2.41H37.269z M38.293,82.788c0-0.767,0.62-1.388,1.387-1.388
			c0.766,0,1.387,0.621,1.387,1.388c0,0.766-0.621,1.387-1.387,1.387C38.913,84.175,38.293,83.554,38.293,82.788z"/>
	</g>
	<g>
		<path fill="#9A916C" d="M30.07,3.592c0,1.33,1.08,2.41,2.409,2.41c1.332,0,2.41-1.08,2.41-2.41c0-1.332-1.078-2.41-2.41-2.41
			C31.15,1.182,30.07,2.26,30.07,3.592z M31.093,3.592c0-0.766,0.621-1.387,1.387-1.387c0.767,0,1.388,0.621,1.388,1.387
			s-0.621,1.387-1.388,1.387C31.714,4.979,31.093,4.357,31.093,3.592z"/>
	</g>
	<g>
		<path fill="#9A916C" d="M37.269,3.592c0,1.33,1.08,2.41,2.41,2.41c1.332,0,2.41-1.08,2.41-2.41c0-1.332-1.078-2.41-2.41-2.41
			C38.349,1.182,37.269,2.26,37.269,3.592z M38.293,3.592c0-0.766,0.62-1.387,1.387-1.387c0.766,0,1.387,0.621,1.387,1.387
			s-0.621,1.387-1.387,1.387C38.913,4.979,38.293,4.357,38.293,3.592z"/>
	</g>
	<g>
		<path fill="#9A916C" d="M25.28,1.182c-1.332,0-2.41,1.078-2.41,2.41c0,1.33,1.078,2.41,2.41,2.41c1.33,0,2.41-1.08,2.41-2.41
			C27.69,2.26,26.61,1.182,25.28,1.182z M25.28,4.979c-0.766,0-1.387-0.621-1.387-1.387s0.621-1.387,1.387-1.387
			s1.387,0.621,1.387,1.387S26.046,4.979,25.28,4.979z"/>
	</g>
	<g>
		<path fill="#9A916C" d="M18.081,1.182c-1.332,0-2.41,1.078-2.41,2.41c0,1.33,1.078,2.41,2.41,2.41c1.329,0,2.409-1.08,2.409-2.41
			C20.49,2.26,19.41,1.182,18.081,1.182z M18.081,4.979c-0.767,0-1.388-0.621-1.388-1.387s0.621-1.387,1.388-1.387
			c0.766,0,1.387,0.621,1.387,1.387S18.846,4.979,18.081,4.979z"/>
	</g>
	<polygon fill="none" stroke="#FFFFFF" stroke-width="0.25" points="14.4,5.762 15.966,7.324 20.036,7.324 21.6,5.762 21.601,5.762 
		23.165,7.324 27.236,7.324 28.799,5.762 30.365,7.324 34.435,7.324 36,5.762 36,5.762 37.564,7.324 41.635,7.324 43.199,5.762 
		43.199,1.689 41.635,0.125 37.564,0.125 36,1.689 36,1.689 34.435,0.125 30.365,0.125 28.799,1.689 27.236,0.125 23.165,0.125 
		21.601,1.689 21.6,1.689 20.036,0.125 15.966,0.125 14.4,1.689 14.399,1.689 12.837,0.125 8.765,0.125 7.201,1.689 7.201,5.762 
		8.765,7.324 12.837,7.324 14.399,5.762 	"/>
	<g>
		<path fill="#9A916C" d="M8.47,1.182v2.41v2.41h4.82v-2.41v-2.41H8.47z M10.881,4.979c-0.766,0-1.387-0.621-1.387-1.387
			s0.621-1.387,1.387-1.387s1.387,0.621,1.387,1.387S11.646,4.979,10.881,4.979z"/>
	</g>
	<path fill="#02809E" d="M41.035,63.385c0-2.13-1.563-3.882-3.604-4.205v-0.065H13.795c-2.357,0-4.269,1.911-4.269,4.271
		c0,2.357,1.911,4.27,4.269,4.27h23.637v-0.065C39.471,67.265,41.035,65.513,41.035,63.385z"/>
	<rect x="33.185" y="11.392" fill="#02809E" width="6.988" height="9.102"/>
	
		<rect x="14.098" y="28.393" transform="matrix(-0.7071 0.7071 -0.7071 -0.7071 71.0663 49.6527)" fill="#02809E" width="22.303" height="22.303"/>
	<circle fill="#02809E" cx="13.291" cy="13.413" r="2.101"/>
	
		<text transform="matrix(0.6947 0.7193 -0.7193 0.6947 28.1257 24.4624)" fill="#FFFFFF" font-family="'OCRA'" font-size="3.4998">Arduino</text>
	<text transform="matrix(0.6947 0.7193 -0.7193 0.6947 8.3635 43.9297)" fill="#FFFFFF" font-family="'OCRA'" font-size="3.4998">MINI 04</text>
	<text transform="matrix(1 0 0 1 29.9597 77.998)" fill="#FFFFFF" font-family="'OCRA'" font-size="3.4998">5V</text>
	<text transform="matrix(1 0 0 1 45.2546 81.3643)" fill="#FFFFFF" font-family="'OCRA'" font-size="1.9999">10</text>
	<text transform="matrix(1 0 0 1 45.2546 74.1768)" fill="#FFFFFF" font-family="'OCRA'" font-size="1.9999">11</text>
	<text transform="matrix(1 0 0 1 45.2546 66.9277)" fill="#FFFFFF" font-family="'OCRA'" font-size="1.9999">12</text>
	<text transform="matrix(1 0 0 1 45.2546 59.3652)" fill="#FFFFFF" font-family="'OCRA'" font-size="1.9999">13</text>
	<text transform="matrix(1 0 0 1 44.5339 52.6826)" fill="#FFFFFF" font-family="'OCRA'" font-size="1.9999">AD0</text>
	<text transform="matrix(1 0 0 1 8.6526 71.1133)" fill="#FFFFFF" font-family="'OCRA'" font-size="1.9999">AD6</text>
	<text transform="matrix(1 0 0 1 15.7805 71.1133)" fill="#FFFFFF" font-family="'OCRA'" font-size="1.9999">AD7</text>
	<text transform="matrix(1 0 0 1 8.6526 80.2207)" fill="#FFFFFF" font-family="'OCRA'" font-size="1.9999">AD4</text>
	<text transform="matrix(1 0 0 1 15.7805 80.2207)" fill="#FFFFFF" font-family="'OCRA'" font-size="1.9999">AD5</text>
	<text transform="matrix(1 0 0 1 44.5339 45.4961)" fill="#FFFFFF" font-family="'OCRA'" font-size="1.9999">AD1</text>
	<text transform="matrix(1 0 0 1 44.5339 38.1357)" fill="#FFFFFF" font-family="'OCRA'" font-size="1.9999">AD2</text>
	<text transform="matrix(1 0 0 1 44.5339 30.8223)" fill="#FFFFFF" font-family="'OCRA'" font-size="1.9999">AD3</text>
	<text transform="matrix(1 0 0 1 44.5339 23.5439)" fill="#FFFFFF" font-family="'OCRA'" font-size="1.9999">+5V</text>
	<text transform="matrix(1 0 0 1 44.5339 16.5107)" fill="#FFFFFF" font-family="'OCRA'" font-size="1.9999">RST</text>
	<text transform="matrix(1 0 0 1 44.5339 9.3242)" fill="#FFFFFF" font-family="'OCRA'" font-size="1.9999">GND</text>
	<text transform="matrix(1 0 0 1 44.5339 2.3574)" fill="#FFFFFF" font-family="'OCRA'" font-size="1.9999">+9V</text>
	<text transform="matrix(1 0 0 1 2.8098 81.3643)" fill="#FFFFFF" font-family="'OCRA'" font-size="1.9999">9</text>
	<text transform="matrix(1 0 0 1 2.8098 74.1768)" fill="#FFFFFF" font-family="'OCRA'" font-size="1.9999">8</text>
	<text transform="matrix(1 0 0 1 2.8098 66.9277)" fill="#FFFFFF" font-family="'OCRA'" font-size="1.9999">7</text>
	<text transform="matrix(1 0 0 1 2.8098 59.3652)" fill="#FFFFFF" font-family="'OCRA'" font-size="1.9999">6</text>
	<text transform="matrix(1 0 0 1 2.8098 52.6826)" fill="#FFFFFF" font-family="'OCRA'" font-size="1.9999">5</text>
	<text transform="matrix(1 0 0 1 2.8098 45.4961)" fill="#FFFFFF" font-family="'OCRA'" font-size="1.9999">4</text>
	<text transform="matrix(1 0 0 1 2.8098 38.1357)" fill="#FFFFFF" font-family="'OCRA'" font-size="1.9999">3</text>
	<text transform="matrix(1 0 0 1 2.8098 30.8223)" fill="#FFFFFF" font-family="'OCRA'" font-size="1.9999">2</text>
	<text transform="matrix(1 0 0 1 1.3699 23.5439)" fill="#FFFFFF" font-family="'OCRA'" font-size="1.9999">GND</text>
	<text transform="matrix(1 0 0 1 1.3699 16.5107)" fill="#FFFFFF" font-family="'OCRA'" font-size="1.9999">RST</text>
	<text transform="matrix(1 0 0 1 2.0901 9.3242)" fill="#FFFFFF" font-family="'OCRA'" font-size="1.9999">RX</text>
	<text transform="matrix(1 0 0 1 2.0901 2.3574)" fill="#FFFFFF" font-family="'OCRA'" font-size="1.9999">TX</text>
	<text transform="matrix(1 0 0 1 38.3884 77.998)" fill="#FFFFFF" font-family="'OCRA'" font-size="3.4998">-</text>
	<text transform="matrix(1 0 0 1 8.5872 9.7266)" fill="#FFFFFF" font-family="'OCRA'" font-size="1.9999">IO7 </text>
	<text transform="matrix(1 0 0 1 16.3928 9.7266)" fill="#FFFFFF" font-family="'OCRA'" font-size="1.9999">TX</text>
	<text transform="matrix(1 0 0 1 23.6086 9.7266)" fill="#FFFFFF" font-family="'OCRA'" font-size="1.9999">RX</text>
	<text transform="matrix(1 0 0 1 30.1042 9.7266)" fill="#FFFFFF" font-family="'OCRA'" font-size="1.9999">+5V</text>
	<text transform="matrix(1 0 0 1 37.321 9.7266)" fill="#FFFFFF" font-family="'OCRA'" font-size="1.9999">GND</text>
</g>
</svg>
