<?xml version="1.0" encoding="utf-8"?>
<!-- Generator: Adobe Illustrator 14.0.0, SVG Export Plug-In . SVG Version: 6.00 Build 43363)  -->
<!DOCTYPE svg PUBLIC "-//W3C//DTD SVG 1.1 Basic//EN" "http://www.w3.org/Graphics/SVG/1.1/DTD/svg11-basic.dtd">
<svg version="1.1" baseProfile="basic" id="breadboard_1_"
	 xmlns="http://www.w3.org/2000/svg" xmlns:xlink="http://www.w3.org/1999/xlink" x="0px" y="0px" width="93.542px"
	 height="51.023px" viewBox="0 0 93.542 51.023" xml:space="preserve">
<g id="graphic">
	<g>
		<path fill="#147390" d="M0,0v51.023h93.542V0H0z M3.653,45.261c-1,0-1.811-0.811-1.811-1.809c0-1,0.811-1.812,1.811-1.812
			c0.998,0,1.809,0.812,1.809,1.812C5.462,44.45,4.651,45.261,3.653,45.261z M3.653,38.085c-1,0-1.811-0.812-1.811-1.81
			c0-1,0.811-1.811,1.811-1.811c0.998,0,1.809,0.811,1.809,1.811C5.462,37.274,4.651,38.085,3.653,38.085z M3.653,30.909
			c-1,0-1.811-0.812-1.811-1.81c0-1,0.811-1.811,1.811-1.811c0.998,0,1.809,0.811,1.809,1.811
			C5.462,30.099,4.651,30.909,3.653,30.909z M3.653,23.734c-1,0-1.811-0.811-1.811-1.809c0-1,0.811-1.811,1.811-1.811
			c0.998,0,1.809,0.811,1.809,1.811C5.462,22.924,4.651,23.734,3.653,23.734z M3.653,16.559c-1,0-1.811-0.811-1.811-1.809
			c0-1,0.811-1.812,1.811-1.812c0.998,0,1.809,0.812,1.809,1.812C5.462,15.748,4.651,16.559,3.653,16.559z M3.653,9.385
			c-1,0-1.811-0.811-1.811-1.811c0-0.998,0.811-1.81,1.811-1.81c0.998,0,1.809,0.812,1.809,1.81
			C5.462,8.574,4.651,9.385,3.653,9.385z M10.863,49.241c-0.999,0-1.81-0.812-1.81-1.812c0-0.999,0.811-1.81,1.81-1.81
			s1.81,0.811,1.81,1.81C12.673,48.431,11.862,49.241,10.863,49.241z M10.863,5.404c-0.999,0-1.81-0.811-1.81-1.811
			c0-0.999,0.811-1.81,1.81-1.81s1.81,0.811,1.81,1.81C12.673,4.594,11.862,5.404,10.863,5.404z M18.039,49.241
			c-0.999,0-1.81-0.812-1.81-1.812c0-0.999,0.811-1.81,1.81-1.81s1.81,0.811,1.81,1.81C19.849,48.431,19.038,49.241,18.039,49.241z
			 M18.039,5.404c-0.999,0-1.81-0.811-1.81-1.811c0-0.999,0.811-1.81,1.81-1.81s1.81,0.811,1.81,1.81
			C19.849,4.594,19.038,5.404,18.039,5.404z M25.215,49.241c-0.999,0-1.81-0.812-1.81-1.812c0-0.999,0.811-1.81,1.81-1.81
			s1.81,0.811,1.81,1.81C27.024,48.431,26.214,49.241,25.215,49.241z M25.215,5.404c-0.999,0-1.81-0.811-1.81-1.811
			c0-0.999,0.811-1.81,1.81-1.81s1.81,0.811,1.81,1.81C27.024,4.594,26.214,5.404,25.215,5.404z M32.39,49.241
			c-0.998,0-1.809-0.812-1.809-1.812c0-0.999,0.811-1.81,1.809-1.81c1,0,1.811,0.811,1.811,1.81
			C34.2,48.431,33.39,49.241,32.39,49.241z M32.392,5.404c-1,0-1.811-0.811-1.811-1.811c0-0.999,0.811-1.81,1.811-1.81
			c0.999,0,1.809,0.811,1.809,1.81C34.2,4.594,33.391,5.404,32.392,5.404z M39.565,49.241c-0.998,0-1.809-0.812-1.809-1.812
			c0-0.999,0.811-1.81,1.809-1.81c1,0,1.811,0.811,1.811,1.81C41.376,48.431,40.565,49.241,39.565,49.241z M39.567,5.404
			c-1,0-1.811-0.811-1.811-1.811c0-0.999,0.811-1.81,1.811-1.81c0.999,0,1.809,0.811,1.809,1.81
			C41.376,4.594,40.566,5.404,39.567,5.404z M46.742,49.241c-0.999,0-1.809-0.812-1.809-1.812c0-0.999,0.811-1.81,1.809-1.81
			c1,0,1.81,0.811,1.81,1.81C48.552,48.431,47.742,49.241,46.742,49.241z M46.743,5.404c-1,0-1.81-0.811-1.81-1.811
			c0-0.999,0.811-1.81,1.81-1.81c0.999,0,1.81,0.811,1.81,1.81C48.553,4.594,47.742,5.404,46.743,5.404z M35.979,13.475
			c-1,0-1.811-0.811-1.811-1.811c0-0.999,0.811-1.811,1.811-1.811c0.999,0,1.809,0.812,1.809,1.811
			C37.788,12.664,36.978,13.475,35.979,13.475z M43.154,13.475c-1,0-1.81-0.811-1.81-1.811c0-0.999,0.811-1.811,1.81-1.811
			s1.81,0.812,1.81,1.811C44.964,12.664,44.154,13.475,43.154,13.475z M53.917,49.241c-1,0-1.811-0.812-1.811-1.812
			c0-0.999,0.811-1.81,1.811-1.81c0.998,0,1.81,0.811,1.81,1.81C55.727,48.431,54.916,49.241,53.917,49.241z M53.919,5.404
			c-1,0-1.811-0.811-1.811-1.811c0-0.999,0.811-1.81,1.811-1.81c0.998,0,1.81,0.811,1.81,1.81
			C55.729,4.594,54.917,5.404,53.919,5.404z M61.094,49.241c-1,0-1.812-0.812-1.812-1.812c0-0.999,0.812-1.81,1.812-1.81
			c0.997,0,1.809,0.811,1.809,1.81C62.902,48.431,62.091,49.241,61.094,49.241z M61.095,5.404c-1,0-1.811-0.811-1.811-1.811
			c0-0.999,0.811-1.81,1.811-1.81c0.998,0,1.809,0.811,1.809,1.81C62.903,4.594,62.093,5.404,61.095,5.404z M68.27,49.241
			c-1,0-1.812-0.812-1.812-1.812c0-0.999,0.812-1.81,1.812-1.81c0.998,0,1.81,0.811,1.81,1.81
			C70.078,48.431,69.268,49.241,68.27,49.241z M68.271,5.404c-1,0-1.811-0.811-1.811-1.811c0-0.999,0.811-1.81,1.811-1.81
			c0.998,0,1.809,0.811,1.809,1.81C70.08,4.594,69.269,5.404,68.271,5.404z M75.445,49.241c-1,0-1.811-0.812-1.811-1.812
			c0-0.999,0.811-1.81,1.811-1.81c0.998,0,1.809,0.811,1.809,1.81C77.253,48.431,76.443,49.241,75.445,49.241z M75.445,5.404
			c-1,0-1.811-0.811-1.811-1.811c0-0.999,0.811-1.81,1.811-1.81c0.998,0,1.809,0.811,1.809,1.81
			C77.253,4.594,76.443,5.404,75.445,5.404z M82.621,49.241c-1,0-1.811-0.812-1.811-1.812c0-0.999,0.811-1.81,1.811-1.81
			c0.998,0,1.81,0.811,1.81,1.81C84.43,48.431,83.619,49.241,82.621,49.241z M82.621,5.404c-1,0-1.811-0.811-1.811-1.811
			c0-0.999,0.811-1.81,1.811-1.81c0.998,0,1.81,0.811,1.81,1.81C84.43,4.594,83.619,5.404,82.621,5.404z M89.796,49.241
			c-1,0-1.811-0.812-1.811-1.812c0-0.999,0.811-1.81,1.811-1.81c0.998,0,1.81,0.811,1.81,1.81
			C91.605,48.431,90.794,49.241,89.796,49.241z M89.796,5.404c-1,0-1.811-0.811-1.811-1.811c0-0.999,0.811-1.81,1.811-1.81
			c0.998,0,1.81,0.811,1.81,1.81C91.605,4.594,90.794,5.404,89.796,5.404z"/>
		<g>
			<g>
				<g>
					<path fill="#9A916C" d="M10.863,1.042c-1.408,0-2.552,1.144-2.552,2.552c0,1.409,1.144,2.552,2.552,2.552
						c1.409,0,2.552-1.143,2.552-2.552C13.415,2.186,12.272,1.042,10.863,1.042z M10.863,5.403c-0.999,0-1.81-0.811-1.81-1.81
						s0.811-1.81,1.81-1.81s1.81,0.811,1.81,1.81S11.862,5.403,10.863,5.403z"/>
					<path fill="#9A916C" d="M18.039,1.042c-1.408,0-2.552,1.144-2.552,2.552c0,1.409,1.144,2.552,2.552,2.552
						c1.409,0,2.552-1.143,2.552-2.552C20.591,2.186,19.448,1.042,18.039,1.042z M18.039,5.403c-0.999,0-1.81-0.811-1.81-1.81
						s0.811-1.81,1.81-1.81s1.81,0.811,1.81,1.81S19.038,5.403,18.039,5.403z"/>
					<path fill="#9A916C" d="M25.215,1.042c-1.408,0-2.552,1.144-2.552,2.552c0,1.409,1.144,2.552,2.552,2.552
						c1.409,0,2.552-1.143,2.552-2.552C27.767,2.186,26.624,1.042,25.215,1.042z M25.215,5.403c-0.999,0-1.81-0.811-1.81-1.81
						s0.811-1.81,1.81-1.81s1.81,0.811,1.81,1.81S26.214,5.403,25.215,5.403z"/>
					<path fill="#9A916C" d="M32.392,1.042c-1.408,0-2.552,1.144-2.552,2.552c0,1.409,1.144,2.552,2.552,2.552
						c1.408,0,2.551-1.143,2.551-2.552C34.942,2.186,33.8,1.042,32.392,1.042z M32.392,5.403c-1,0-1.811-0.811-1.811-1.81
						s0.811-1.81,1.811-1.81c0.999,0,1.809,0.811,1.809,1.81S33.391,5.403,32.392,5.403z"/>
					<path fill="#9A916C" d="M39.567,1.042c-1.408,0-2.552,1.144-2.552,2.552c0,1.409,1.144,2.552,2.552,2.552
						c1.408,0,2.551-1.143,2.551-2.552C42.118,2.186,40.976,1.042,39.567,1.042z M39.567,5.403c-1,0-1.811-0.811-1.811-1.81
						s0.811-1.81,1.811-1.81c0.999,0,1.809,0.811,1.809,1.81S40.566,5.403,39.567,5.403z"/>
					<path fill="#9A916C" d="M46.743,1.042c-1.408,0-2.551,1.144-2.551,2.552c0,1.409,1.144,2.552,2.551,2.552
						c1.409,0,2.551-1.143,2.551-2.552C49.294,2.186,48.151,1.042,46.743,1.042z M46.743,5.403c-1,0-1.81-0.811-1.81-1.81
						s0.811-1.81,1.81-1.81c0.999,0,1.81,0.811,1.81,1.81S47.742,5.403,46.743,5.403z"/>
					<path fill="#9A916C" d="M35.979,9.118c-1.408,0-2.552,1.144-2.552,2.552c0,1.409,1.144,2.552,2.552,2.552
						s2.551-1.143,2.551-2.552C38.53,10.262,37.388,9.118,35.979,9.118z M35.979,13.479c-1,0-1.811-0.811-1.811-1.81
						s0.811-1.811,1.811-1.811c0.999,0,1.809,0.812,1.809,1.811S36.979,13.479,35.979,13.479z"/>
					<path fill="#9A916C" d="M43.155,9.118c-1.408,0-2.551,1.144-2.551,2.552c0,1.409,1.144,2.552,2.551,2.552
						c1.409,0,2.551-1.143,2.551-2.552C45.706,10.262,44.563,9.118,43.155,9.118z M43.155,13.479c-1,0-1.81-0.811-1.81-1.81
						s0.811-1.811,1.81-1.811s1.81,0.812,1.81,1.811S44.154,13.479,43.155,13.479z"/>
					<path fill="#9A916C" d="M53.919,1.042c-1.408,0-2.553,1.144-2.553,2.552c0,1.409,1.145,2.552,2.553,2.552
						s2.552-1.143,2.552-2.552C56.471,2.186,55.328,1.042,53.919,1.042z M53.919,5.403c-1,0-1.811-0.811-1.811-1.81
						s0.811-1.81,1.811-1.81c0.998,0,1.81,0.811,1.81,1.81S54.917,5.403,53.919,5.403z"/>
					<path fill="#9A916C" d="M61.095,1.042c-1.408,0-2.553,1.144-2.553,2.552c0,1.409,1.145,2.552,2.553,2.552
						s2.551-1.143,2.551-2.552C63.646,2.186,62.503,1.042,61.095,1.042z M61.095,5.403c-1,0-1.811-0.811-1.811-1.81
						s0.811-1.81,1.811-1.81c0.998,0,1.809,0.811,1.809,1.81S62.093,5.403,61.095,5.403z"/>
					<path fill="#9A916C" d="M68.271,1.042c-1.408,0-2.553,1.144-2.553,2.552c0,1.409,1.145,2.552,2.553,2.552
						s2.551-1.143,2.551-2.552C70.821,2.186,69.679,1.042,68.271,1.042z M68.271,5.403c-1,0-1.811-0.811-1.811-1.81
						s0.811-1.81,1.811-1.81c0.998,0,1.809,0.811,1.809,1.81S69.269,5.403,68.271,5.403z"/>
					<path fill="#9A916C" d="M75.445,1.042c-1.408,0-2.553,1.144-2.553,2.552c0,1.409,1.145,2.552,2.553,2.552
						s2.551-1.143,2.551-2.552C77.996,2.186,76.854,1.042,75.445,1.042z M75.445,5.403c-1,0-1.811-0.811-1.811-1.81
						s0.811-1.81,1.811-1.81c0.998,0,1.809,0.811,1.809,1.81S76.443,5.403,75.445,5.403z"/>
					<path fill="#9A916C" d="M82.621,1.042c-1.408,0-2.553,1.144-2.553,2.552c0,1.409,1.145,2.552,2.553,2.552
						s2.551-1.143,2.551-2.552C85.171,2.186,84.029,1.042,82.621,1.042z M82.621,5.403c-1,0-1.811-0.811-1.811-1.81
						s0.811-1.81,1.811-1.81c0.998,0,1.81,0.811,1.81,1.81S83.619,5.403,82.621,5.403z"/>
					<path fill="#9A916C" d="M89.796,1.042c-1.407,0-2.553,1.144-2.553,2.552c0,1.409,1.146,2.552,2.553,2.552
						c1.408,0,2.552-1.143,2.552-2.552C92.348,2.186,91.205,1.042,89.796,1.042z M89.796,5.403c-1,0-1.811-0.811-1.811-1.81
						s0.811-1.81,1.811-1.81c0.998,0,1.81,0.811,1.81,1.81S90.794,5.403,89.796,5.403z"/>
				</g>
				<g>
					<path fill="#9A916C" d="M10.863,44.88c-1.408,0-2.552,1.143-2.552,2.551s1.144,2.552,2.552,2.552
						c1.409,0,2.552-1.144,2.552-2.552S12.272,44.88,10.863,44.88z M10.863,49.241c-0.999,0-1.81-0.812-1.81-1.812
						c0-0.999,0.811-1.81,1.81-1.81s1.81,0.811,1.81,1.81C12.673,48.431,11.862,49.241,10.863,49.241z"/>
					<path fill="#9A916C" d="M18.039,44.88c-1.408,0-2.552,1.143-2.552,2.551s1.144,2.552,2.552,2.552
						c1.409,0,2.552-1.144,2.552-2.552S19.448,44.88,18.039,44.88z M18.039,49.241c-0.999,0-1.81-0.812-1.81-1.812
						c0-0.999,0.811-1.81,1.81-1.81s1.81,0.811,1.81,1.81C19.849,48.431,19.038,49.241,18.039,49.241z"/>
					<path fill="#9A916C" d="M25.215,44.88c-1.408,0-2.552,1.143-2.552,2.551s1.144,2.552,2.552,2.552
						c1.409,0,2.552-1.144,2.552-2.552S26.624,44.88,25.215,44.88z M25.215,49.241c-0.999,0-1.81-0.812-1.81-1.812
						c0-0.999,0.811-1.81,1.81-1.81s1.81,0.811,1.81,1.81C27.024,48.431,26.214,49.241,25.215,49.241z"/>
					<path fill="#9A916C" d="M32.39,44.88c-1.408,0-2.551,1.143-2.551,2.551s1.143,2.552,2.551,2.552
						c1.409,0,2.552-1.144,2.552-2.552S33.799,44.88,32.39,44.88z M32.39,49.241c-0.998,0-1.809-0.812-1.809-1.812
						c0-0.999,0.811-1.81,1.809-1.81c1,0,1.811,0.811,1.811,1.81C34.2,48.431,33.39,49.241,32.39,49.241z"/>
					<path fill="#9A916C" d="M39.565,44.88c-1.408,0-2.551,1.143-2.551,2.551s1.143,2.552,2.551,2.552
						c1.409,0,2.552-1.144,2.552-2.552S40.975,44.88,39.565,44.88z M39.565,49.241c-0.998,0-1.809-0.812-1.809-1.812
						c0-0.999,0.811-1.81,1.809-1.81c1,0,1.811,0.811,1.811,1.81C41.376,48.431,40.565,49.241,39.565,49.241z"/>
					<path fill="#9A916C" d="M46.742,44.88c-1.409,0-2.551,1.143-2.551,2.551s1.143,2.552,2.551,2.552
						c1.408,0,2.55-1.144,2.55-2.552S48.15,44.88,46.742,44.88z M46.742,49.241c-0.999,0-1.809-0.812-1.809-1.812
						c0-0.999,0.811-1.81,1.809-1.81c1,0,1.81,0.811,1.81,1.81C48.552,48.431,47.742,49.241,46.742,49.241z"/>
					<path fill="#9A916C" d="M53.917,44.88c-1.408,0-2.553,1.143-2.553,2.551s1.145,2.552,2.553,2.552s2.552-1.144,2.552-2.552
						S55.326,44.88,53.917,44.88z M53.917,49.241c-1,0-1.811-0.812-1.811-1.812c0-0.999,0.811-1.81,1.811-1.81
						c0.998,0,1.81,0.811,1.81,1.81C55.727,48.431,54.916,49.241,53.917,49.241z"/>
					<path fill="#9A916C" d="M61.094,44.88c-1.408,0-2.554,1.143-2.554,2.551s1.146,2.552,2.554,2.552
						c1.407,0,2.551-1.144,2.551-2.552S62.501,44.88,61.094,44.88z M61.094,49.241c-1,0-1.812-0.812-1.812-1.812
						c0-0.999,0.812-1.81,1.812-1.81c0.997,0,1.809,0.811,1.809,1.81C62.902,48.431,62.091,49.241,61.094,49.241z"/>
					<path fill="#9A916C" d="M68.27,44.88c-1.408,0-2.554,1.143-2.554,2.551s1.146,2.552,2.554,2.552s2.551-1.144,2.551-2.552
						S69.678,44.88,68.27,44.88z M68.27,49.241c-1,0-1.812-0.812-1.812-1.812c0-0.999,0.812-1.81,1.812-1.81
						c0.998,0,1.81,0.811,1.81,1.81C70.078,48.431,69.268,49.241,68.27,49.241z"/>
					<path fill="#9A916C" d="M75.445,44.88c-1.408,0-2.553,1.143-2.553,2.551s1.145,2.552,2.553,2.552s2.551-1.144,2.551-2.552
						S76.854,44.88,75.445,44.88z M75.445,49.241c-1,0-1.811-0.812-1.811-1.812c0-0.999,0.811-1.81,1.811-1.81
						c0.998,0,1.809,0.811,1.809,1.81C77.253,48.431,76.443,49.241,75.445,49.241z"/>
					<path fill="#9A916C" d="M82.621,44.88c-1.408,0-2.553,1.143-2.553,2.551s1.145,2.552,2.553,2.552s2.551-1.144,2.551-2.552
						S84.029,44.88,82.621,44.88z M82.621,49.241c-1,0-1.811-0.812-1.811-1.812c0-0.999,0.811-1.81,1.811-1.81
						c0.998,0,1.81,0.811,1.81,1.81C84.43,48.431,83.619,49.241,82.621,49.241z"/>
					<path fill="#9A916C" d="M89.796,44.88c-1.407,0-2.553,1.143-2.553,2.551s1.146,2.552,2.553,2.552
						c1.408,0,2.552-1.144,2.552-2.552S91.205,44.88,89.796,44.88z M89.796,49.241c-1,0-1.811-0.812-1.811-1.812
						c0-0.999,0.811-1.81,1.811-1.81c0.998,0,1.81,0.811,1.81,1.81C91.605,48.431,90.794,49.241,89.796,49.241z"/>
				</g>
			</g>
			<g>
				<path fill="#9A916C" d="M6.204,7.575c0-1.408-1.143-2.554-2.551-2.554C2.244,5.022,1.1,6.167,1.1,7.575
					c0,1.407,1.144,2.551,2.553,2.551C5.062,10.126,6.204,8.983,6.204,7.575z M1.843,7.575c0-1,0.811-1.812,1.811-1.812
					c0.998,0,1.809,0.812,1.809,1.812c0,0.998-0.811,1.809-1.809,1.809C2.653,9.384,1.843,8.573,1.843,7.575z"/>
				<path fill="#9A916C" d="M6.204,14.751c0-1.408-1.143-2.553-2.551-2.553c-1.409,0-2.553,1.145-2.553,2.553
					s1.144,2.551,2.553,2.551C5.062,17.302,6.204,16.159,6.204,14.751z M1.843,14.751c0-1,0.811-1.812,1.811-1.812
					c0.998,0,1.809,0.812,1.809,1.812c0,0.998-0.811,1.809-1.809,1.809C2.653,16.56,1.843,15.749,1.843,14.751z"/>
				<path fill="#9A916C" d="M6.204,21.927c0-1.408-1.143-2.553-2.551-2.553c-1.409,0-2.553,1.145-2.553,2.553
					s1.144,2.551,2.553,2.551C5.062,24.478,6.204,23.335,6.204,21.927z M1.843,21.927c0-1,0.811-1.811,1.811-1.811
					c0.998,0,1.809,0.811,1.809,1.811c0,0.998-0.811,1.809-1.809,1.809C2.653,23.735,1.843,22.925,1.843,21.927z"/>
				<path fill="#9A916C" d="M6.204,29.101c0-1.408-1.143-2.553-2.551-2.553c-1.409,0-2.553,1.145-2.553,2.553
					s1.144,2.551,2.553,2.551C5.062,31.651,6.204,30.509,6.204,29.101z M1.843,29.101c0-1,0.811-1.811,1.811-1.811
					c0.998,0,1.809,0.811,1.809,1.811c0,0.998-0.811,1.81-1.809,1.81C2.653,30.909,1.843,30.099,1.843,29.101z"/>
				<path fill="#9A916C" d="M6.204,36.276c0-1.407-1.143-2.553-2.551-2.553c-1.409,0-2.553,1.146-2.553,2.553
					c0,1.408,1.144,2.552,2.553,2.552C5.062,38.827,6.204,37.685,6.204,36.276z M1.843,36.276c0-1,0.811-1.811,1.811-1.811
					c0.998,0,1.809,0.811,1.809,1.811c0,0.998-0.811,1.81-1.809,1.81C2.653,38.085,1.843,37.274,1.843,36.276z"/>
				<path fill="#9A916C" d="M6.204,43.452c0-1.408-1.143-2.554-2.551-2.554c-1.409,0-2.553,1.146-2.553,2.554
					c0,1.407,1.144,2.551,2.553,2.551C5.062,46.003,6.204,44.86,6.204,43.452z M1.843,43.452c0-1,0.811-1.812,1.811-1.812
					c0.998,0,1.809,0.812,1.809,1.812c0,0.998-0.811,1.809-1.809,1.809C2.653,45.261,1.843,44.45,1.843,43.452z"/>
			</g>
		</g>
		<g>
			<g>
				<rect x="21.515" y="11.243" fill="#02809E" width="9.176" height="4.436"/>
				<rect x="21.515" y="35.345" fill="#02809E" width="9.176" height="4.438"/>
			</g>
			<g>
				<rect x="22.016" y="23.925" fill="#02809E" width="7.471" height="4.436"/>
			</g>
		</g>
		
			<rect x="44.666" y="16.258" transform="matrix(-0.7071 0.7071 -0.7071 -0.7071 110.0835 5.4251)" fill="#02809E" width="18.504" height="18.506"/>
		
			<text transform="matrix(8.979319e-11 -1 1 8.979319e-11 15.2998 30.3069)" fill="#FFFFFF" font-family="'OCRA'" font-size="3.5">Mini</text>
		
			<text transform="matrix(8.979319e-11 -1 1 8.979319e-11 73.3159 31.5061)" fill="#FFFFFF" font-family="'OCRA'" font-size="3.5">Reset</text>
		<g>
			<polygon fill="#6D6D6D" points="76.272,29.769 78.296,31.794 86.813,31.794 88.837,29.769 88.837,21.253 86.813,19.229 
				78.296,19.229 76.272,21.253 			"/>
			<g>
				<rect x="78.296" y="18.214" fill="#6D6D6D" width="8.518" height="14.596"/>
				<rect x="75.255" y="21.253" fill="#6D6D6D" width="14.599" height="8.516"/>
			</g>
			<polygon fill="#7F7F7F" points="76.882,29.356 78.71,31.185 86.399,31.185 88.228,29.356 88.228,21.667 86.399,19.839 
				78.71,19.839 76.882,21.667 			"/>
			<circle fill="#BCA16A" cx="82.555" cy="25.513" r="3.097"/>
		</g>
		
			<text transform="matrix(4.489659e-11 -1 1 4.489659e-11 19.2803 38.6975)" fill="#FFFFFF" font-family="'OCRA'" font-size="3.5">Arduino Pro</text>
	</g>
	<g>
		<text transform="matrix(-1 0 0 -1 91.7749 6.7131)" fill="#FFFFFF" font-family="'OCRA'" font-size="3">10</text>
		<text transform="matrix(-1 0 0 -1 84.5991 6.7131)" fill="#FFFFFF" font-family="'OCRA'" font-size="3">11</text>
		<text transform="matrix(-1 0 0 -1 77.4233 6.7131)" fill="#FFFFFF" font-family="'OCRA'" font-size="3">12</text>
		<text transform="matrix(-1 0 0 -1 70.2476 6.7131)" fill="#FFFFFF" font-family="'OCRA'" font-size="3">13</text>
		<text transform="matrix(-1 0 0 -1 63.0718 6.7131)" fill="#FFFFFF" font-family="'OCRA'" font-size="3">A0</text>
		<text transform="matrix(-1 0 0 -1 55.896 6.7131)" fill="#FFFFFF" font-family="'OCRA'" font-size="3">A1</text>
		<text transform="matrix(-1 0 0 -1 48.7202 6.7131)" fill="#FFFFFF" font-family="'OCRA'" font-size="3">A2</text>
		<text transform="matrix(-1 0 0 -1 41.5444 6.7131)" fill="#FFFFFF" font-family="'OCRA'" font-size="3">A3</text>
		<text transform="matrix(-1 0 0 -1 45.1343 14.7659)" fill="#FFFFFF" font-family="'OCRA'" font-size="3">A4</text>
		<text transform="matrix(-1 0 0 -1 37.9585 14.7659)" fill="#FFFFFF" font-family="'OCRA'" font-size="3">A5</text>
		<text transform="matrix(-1 0 0 -1 35.3218 6.7131)" fill="#FFFFFF" font-family="'OCRA'" font-size="3">VCC</text>
		<text transform="matrix(-1 0 0 -1 28.146 6.7131)" fill="#FFFFFF" font-family="'OCRA'" font-size="3">RST</text>
		<text transform="matrix(-1 0 0 -1 20.9702 6.7131)" fill="#FFFFFF" font-family="'OCRA'" font-size="3">GND</text>
		<text transform="matrix(-1 0 0 -1 13.7964 6.7131)" fill="#FFFFFF" font-family="'OCRA'" font-size="3">RAW</text>
	</g>
	<g>
		<text transform="matrix(-1 0 0 -1 90.8237 41.762)" fill="#FFFFFF" font-family="'OCRA'" font-size="3">9</text>
		<text transform="matrix(-1 0 0 -1 83.6479 41.762)" fill="#FFFFFF" font-family="'OCRA'" font-size="3">8</text>
		<text transform="matrix(-1 0 0 -1 76.4722 41.762)" fill="#FFFFFF" font-family="'OCRA'" font-size="3">7</text>
		<text transform="matrix(-1 0 0 -1 69.2964 41.762)" fill="#FFFFFF" font-family="'OCRA'" font-size="3">6</text>
		<text transform="matrix(-1 0 0 -1 62.1206 41.762)" fill="#FFFFFF" font-family="'OCRA'" font-size="3">5</text>
		<text transform="matrix(-1 0 0 -1 54.9448 41.762)" fill="#FFFFFF" font-family="'OCRA'" font-size="3">4</text>
		<text transform="matrix(-1 0 0 -1 47.769 41.762)" fill="#FFFFFF" font-family="'OCRA'" font-size="3">3</text>
		<text transform="matrix(-1 0 0 -1 40.5933 41.762)" fill="#FFFFFF" font-family="'OCRA'" font-size="3">2</text>
		<text transform="matrix(-1 0 0 -1 35.3218 41.762)" fill="#FFFFFF" font-family="'OCRA'" font-size="3">GND</text>
		<text transform="matrix(-1 0 0 -1 28.146 41.762)" fill="#FFFFFF" font-family="'OCRA'" font-size="3">RST</text>
		<text transform="matrix(-1 0 0 -1 20.9702 41.762)" fill="#FFFFFF" font-family="'OCRA'" font-size="3">RXT</text>
		<text transform="matrix(-1 0 0 -1 13.7964 41.762)" fill="#FFFFFF" font-family="'OCRA'" font-size="3">TX0</text>
	</g>
	<g>
		<text transform="matrix(8.979319e-11 -1 1 8.979319e-11 9.4424 39.1506)" fill="#FFFFFF" font-family="'OCRA'" font-size="3">TX0</text>
		<text transform="matrix(8.979319e-11 -1 1 8.979319e-11 9.4424 31.9749)" fill="#FFFFFF" font-family="'OCRA'" font-size="3">RXI</text>
		<text transform="matrix(8.979319e-11 -1 1 8.979319e-11 9.4424 24.7991)" fill="#FFFFFF" font-family="'OCRA'" font-size="3">VCC</text>
		<text transform="matrix(8.979319e-11 -1 1 8.979319e-11 9.4424 17.6233)" fill="#FFFFFF" font-family="'OCRA'" font-size="3">GND</text>
	</g>
	<text transform="matrix(-1 0 0 -1 6.5854 46.8538)" fill="#FFFFFF" font-family="'OCRA'" font-size="3">GRN</text>
	<text transform="matrix(-1 0 0 -1 6.5854 1.9592)" fill="#FFFFFF" font-family="'OCRA'" font-size="3">BLK</text>
</g>
<g id="connectors">
	<circle id="connector32pin" fill="none" cx="89.796" cy="47.431" r="1.81"/>
	<circle id="connector31pin" fill="none" cx="82.621" cy="47.431" r="1.81"/>
	<circle id="connector30pin" fill="none" cx="75.443" cy="47.431" r="1.81"/>
	<circle id="connector29pin" fill="none" cx="68.268" cy="47.431" r="1.81"/>
	<circle id="connector28pin" fill="none" cx="61.091" cy="47.431" r="1.81"/>
	<circle id="connector27pin" fill="none" cx="53.916" cy="47.431" r="1.81"/>
	<circle id="connector26pin" fill="none" cx="46.741" cy="47.431" r="1.81"/>
	<circle id="connector25pin" fill="none" cx="39.564" cy="47.431" r="1.81"/>
	<circle id="connector24pin" fill="none" cx="32.389" cy="47.431" r="1.81"/>
	<circle id="connector23pin" fill="none" cx="25.212" cy="47.431" r="1.81"/>
	<circle id="connector22pin" fill="none" cx="18.037" cy="47.431" r="1.81"/>
	<circle id="connector21pin" fill="none" cx="10.862" cy="47.431" r="1.81"/>
	<circle id="connector20pin" fill="none" cx="3.652" cy="43.451" r="1.81"/>
	<circle id="connector19pin" fill="none" cx="3.652" cy="36.275" r="1.81"/>
	<circle id="connector18pin" fill="none" cx="3.653" cy="29.102" r="1.81"/>
	<circle id="connector17pin" fill="none" cx="3.653" cy="21.926" r="1.81"/>
	<circle id="connector16pin" fill="none" cx="3.653" cy="14.75" r="1.81"/>
	<circle id="connector15pin" fill="none" cx="3.653" cy="7.575" r="1.81"/>
	<circle id="connector14pin" fill="none" cx="10.864" cy="3.594" r="1.81"/>
	<circle id="connector13pin" fill="none" cx="18.04" cy="3.594" r="1.81"/>
	<circle id="connector12pin" fill="none" cx="25.215" cy="3.594" r="1.81"/>
	<circle id="connector11pin" fill="none" cx="32.391" cy="3.594" r="1.81"/>
	<circle id="connector10pin" fill="none" cx="35.98" cy="11.669" r="1.81"/>
	<circle id="connector9pin" fill="none" cx="43.156" cy="11.669" r="1.81"/>
	<circle id="connector8pin" fill="none" cx="39.567" cy="3.594" r="1.81"/>
	<circle id="connector7pin" fill="none" cx="46.743" cy="3.594" r="1.81"/>
	<circle id="connector6pin" fill="none" cx="53.919" cy="3.594" r="1.81"/>
	<circle id="connector5pin" fill="none" cx="61.095" cy="3.594" r="1.81"/>
	<circle id="connector4pin" fill="none" cx="68.271" cy="3.594" r="1.81"/>
	<circle id="connector3pin" fill="none" cx="75.445" cy="3.594" r="1.81"/>
	<circle id="connector2pin" fill="none" cx="82.621" cy="3.594" r="1.81"/>
	<path id="connector1pin" fill="none" d="M89.796,5.404c-1,0-1.811-0.811-1.811-1.811c0-0.999,0.811-1.81,1.811-1.81
		c0.998,0,1.81,0.811,1.81,1.81C91.605,4.594,90.794,5.404,89.796,5.404z"/>
</g>
</svg>
