<?xml version="1.0" encoding="utf-8"?>
<!DOCTYPE svg PUBLIC "-//W3C//DTD SVG 1.1 Basic//EN" "http://www.w3.org/Graphics/SVG/1.1/DTD/svg11-basic.dtd">
<svg version="1.1" baseProfile="basic" id="Layer_1"
	 xmlns="http://www.w3.org/2000/svg" xmlns:xlink="http://www.w3.org/1999/xlink" x="0px" y="0px" width="1.39in"
	 height="0.773in" viewBox="0 0 100.748 55.721" xml:space="preserve">
<rect id="connector0pin" y="10.986" fill="#8C8C8C" width="8.258" height="3"/>
<rect id="connector1pin" y="41.757" fill="#8C8C8C" width="8.258" height="3"/>
<rect id="connector0terminal" y="10.986" fill="#8C8C8C" width="0.559" height="3"/>
<rect id="connector1terminal" y="41.757" fill="#8C8C8C" width="0.559" height="3"/>
<g>
	<path fill="#ED8F66" d="M9.811,10.968v2.992h9.36v-2.992H9.811z M12.102,13.531c-0.589,0-1.065-0.477-1.065-1.064
		s0.478-1.068,1.065-1.068s1.067,0.479,1.067,1.068S12.69,13.531,12.102,13.531z"/>
	<path fill="#ED8F66" d="M9.811,41.761v2.992h9.36v-2.992H9.811z M12.102,44.326c-0.589,0-1.065-0.479-1.065-1.066
		s0.478-1.066,1.065-1.066s1.067,0.479,1.067,1.066C13.169,43.847,12.69,44.326,12.102,44.326z"/>
</g>
<g id="breadboard">
	<g>
		<rect x="87.773" y="25.221" fill="#878787" width="12.975" height="4.562"/>
		<rect x="87.773" y="25.221" fill="#2D2D2D" width="0.451" height="4.562"/>
		<rect x="87.773" y="29.258" opacity="0.35" width="12.975" height="0.522"/>
		<path opacity="0.35" fill="#FFFFFF" d="M100.451,26.478c0,0.255-0.275,0.461-0.617,0.461H87.396c-0.34,0-0.617-0.188-0.617-0.443
			v-0.369c0-0.256,0.277-0.479,0.617-0.479h12.438c0.342,0,0.617,0.207,0.617,0.461V26.478z"/>
	</g>
	<g>
		<path fill="#6D6D6D" stroke="#6D6D6D" d="M87.303,7.465c0-1.561-1.275-2.834-2.834-2.834h-0.031c-1.561,0-2.836-0.93-2.836-2.062
			s-1.273-2.061-2.834-2.061H9.123v54.701h69.645c1.561,0,2.834-0.93,2.834-2.062s1.275-2.061,2.836-2.061h0.031
			c1.559,0,2.834-1.275,2.834-2.836V7.465z"/>
	</g>
	<path opacity="0.35" d="M84.896,47.815h-0.029c-1.551,0-3.102,0.606-3.102,1.346c0,0.738-0.982,1.346-2.531,1.346H14.836v4.453
		h63.833c1.547,0,2.812-0.926,2.812-2.055s1.27-2.055,2.816-2.055h0.031c1.549,0,2.814-1.271,2.814-2.824v-2.061
		C87.146,46.983,86.445,47.815,84.896,47.815z"/>
	<rect x="4.521" y="26.34" fill="#878787" width="0.94" height="3.041"/>
	<rect x="8.258" y="25.069" fill="#E5E500" width="10.242" height="5.584"/>
	<g>
		<rect x="5.463" y="18.866" fill="#E5E500" width="2.795" height="17.988"/>
		<polygon fill="#F3FF00" points="15.774,25.069 15.774,0 8.258,0 8.258,26 18.5,26 18.5,29.719 8.258,29.719 8.258,55.721 
			15.774,55.721 15.774,30.653 18.5,30.653 18.5,25.069 		"/>
	</g>
	<path opacity="0.5" fill="#686868" d="M82.34,28.065c0,13.27-0.758,24.021-0.758,24.021V4.047
		C81.582,4.047,82.34,14.803,82.34,28.065z"/>
	<path opacity="0.16" fill="#FFFFFF" d="M80.435,17.839c0,1.417-1.425,2.564-3.181,2.564H21.735c-1.757,0-3.181-1.049-3.181-2.467
		V5.144c0-1.418,1.424-2.668,3.181-2.668h55.519c1.756,0,3.181,1.15,3.181,2.568V17.839z"/>
	<g opacity="0.16">
		<path fill="#FFFFFF" d="M86.211,18.178c0,0.78-0.639,1.417-1.417,1.417h-0.352c-0.777,0-1.417-0.638-1.417-1.417V7.685
			c0-0.78,0.64-1.417,1.417-1.417h0.352c0.778,0,1.417,0.638,1.417,1.417V18.178z"/>
	</g>
	<g>
		<path d="M72.665,24.66c-1.034,0-1.876-0.841-1.876-1.875v-8.422c0-1.035,0.842-1.877,1.876-1.877s1.876,0.842,1.876,1.877v8.422
			C74.541,23.818,73.699,24.66,72.665,24.66L72.665,24.66z"/>
		<path fill="#6B6B6B" d="M72.665,12.986c0.759,0,1.376,0.618,1.376,1.377v8.422c0,0.76-0.617,1.375-1.376,1.375
			s-1.376-0.615-1.376-1.375v-8.422C71.289,13.603,71.906,12.986,72.665,12.986 M72.665,11.986c-1.312,0-2.376,1.064-2.376,2.377
			v8.422c0,1.312,1.062,2.375,2.376,2.375c1.312,0,2.376-1.062,2.376-2.375v-8.422C75.041,13.05,73.977,11.986,72.665,11.986
			L72.665,11.986z"/>
	</g>
	<g>
		<path d="M72.665,43.234c-1.034,0-1.876-0.842-1.876-1.876v-8.421c0-1.035,0.842-1.877,1.876-1.877s1.876,0.842,1.876,1.877v8.421
			C74.541,42.392,73.699,43.234,72.665,43.234L72.665,43.234z"/>
		<path fill="#6B6B6B" d="M72.665,31.56c0.759,0,1.376,0.618,1.376,1.377v8.421c0,0.759-0.617,1.376-1.376,1.376
			s-1.376-0.617-1.376-1.376v-8.421C71.289,32.178,71.906,31.56,72.665,31.56 M72.665,30.56c-1.312,0-2.376,1.064-2.376,2.377v8.421
			c0,1.312,1.062,2.376,2.376,2.376c1.312,0,2.376-1.062,2.376-2.376v-8.421C75.041,31.625,73.977,30.56,72.665,30.56L72.665,30.56z
			"/>
	</g>
	<g>
		<path d="M72.665,6.086c-1.034,0-1.876-0.843-1.876-1.875V0.5h3.752v3.711C74.541,5.245,73.699,6.086,72.665,6.086L72.665,6.086z"
			/>
		<path fill="#6B6B6B" d="M74.041,1v3.211c0,0.758-0.617,1.375-1.376,1.375s-1.376-0.617-1.376-1.375V1H74.041 M75.041,0h-4.752
			v4.211c0,1.312,1.062,2.375,2.376,2.375c1.312,0,2.376-1.063,2.376-2.375V0L75.041,0z"/>
	</g>
	<g>
		<path d="M70.789,55.221V51.51c0-1.035,0.842-1.877,1.876-1.877s1.876,0.842,1.876,1.877v3.711H70.789z"/>
		<path fill="#6B6B6B" d="M72.665,50.133c0.759,0,1.376,0.618,1.376,1.377v3.211h-2.752V51.51
			C71.289,50.751,71.906,50.133,72.665,50.133 M72.665,49.133c-1.312,0-2.376,1.062-2.376,2.377v4.211h4.752V51.51
			C75.041,50.198,73.977,49.133,72.665,49.133L72.665,49.133z"/>
	</g>
</g>
</svg>
