<?xml version='1.0' encoding='UTF-8' standalone='no'?>
<!-- Created with Fritzing (http://www.fritzing.org/) -->
<svg xmlns="http://www.w3.org/2000/svg" width="0.8in" x="0in" version="1.2" y="0in" height="0.8in" viewBox="0 0 57.6 57.6" baseProfile="tiny">
 <desc >Fritzing breadboard generated by brd2svg</desc>
 <g  id="breadboard" stroke-width="0">
  <g  id="icon" stroke-width="0">
   <path  fill="#C62717" stroke="none" stroke-width="0" d="M0,57.6L57.6,57.6L57.6,0L43.2,0A17.0739,17.0739,0,0,0,14.4,0L0,0L0,57.6M5.76,54a1.44,1.44,0,1,1,2.88,0,1.44,1.44,0,1,1,-2.88,0zM12.96,54a1.44,1.44,0,1,1,2.88,0,1.44,1.44,0,1,1,-2.88,0zM20.16,54a1.44,1.44,0,1,1,2.88,0,1.44,1.44,0,1,1,-2.88,0zM27.36,54a1.44,1.44,0,1,1,2.88,0,1.44,1.44,0,1,1,-2.88,0zM34.56,54a1.44,1.44,0,1,1,2.88,0,1.44,1.44,0,1,1,-2.88,0zM41.76,54a1.44,1.44,0,1,1,2.88,0,1.44,1.44,0,1,1,-2.88,0zM48.96,54a1.44,1.44,0,1,1,2.88,0,1.44,1.44,0,1,1,-2.88,0z"/>
   <g  stroke-width="0">
    <title >layer 21</title>
    <g  stroke-width="0">
     <title >text:DeadOn RTC</title>
     <g  stroke-width="0" transform="matrix(1, 0, 0, 1, 5.976, 12.6)">
      <g  stroke-width="0" transform="rotate(-90)">
       <text  x="0" y="0" font-family="OCRA" fill="white" text-anchor="end" stroke="none" stroke-width="0" font-size="4.176">DeadOn RTC</text>
      </g>
     </g>
    </g>
    <g  stroke-width="0">
     <title >text:DS3234</title>
     <g  stroke-width="0" transform="matrix(1, 0, 0, 1, 9, 18.36)">
      <g  stroke-width="0" transform="rotate(-90)">
       <text  x="0" y="0" font-family="OCRA" fill="white" text-anchor="start" stroke="none" stroke-width="0" font-size="3.3408">DS3234</text>
      </g>
     </g>
    </g>
    <g  stroke-width="0">
     <title >element:BAT1</title>
     <g  stroke-width="0">
      <title >package:BATTCON_12MM_CURVED</title>
     </g>
    </g>
    <g  stroke-width="0">
     <title >element:C1</title>
     <g  stroke-width="0">
      <title >package:0402-CAP</title>
      <line  stroke="white" stroke-linecap="round" y1="25.2" x1="50.4865" y2="25.2" stroke-width="1.152" x2="50.3135"/>
     </g>
    </g>
    <g  stroke-width="0">
     <title >element:JP1</title>
     <g  stroke-width="0">
      <title >package:1X07</title>
      <line  stroke="white" stroke-linecap="round" y1="50.4" x1="48.6" y2="50.4" stroke-width="0.576" x2="52.2"/>
      <line  stroke="white" stroke-linecap="round" y1="50.4" x1="52.2" y2="52.2" stroke-width="0.576" x2="54"/>
      <line  stroke="white" stroke-linecap="round" y1="55.8" x1="54" y2="57.6" stroke-width="0.576" x2="52.2"/>
      <line  stroke="white" stroke-linecap="round" y1="52.2" x1="39.6" y2="50.4" stroke-width="0.576" x2="41.4"/>
      <line  stroke="white" stroke-linecap="round" y1="50.4" x1="41.4" y2="50.4" stroke-width="0.576" x2="45"/>
      <line  stroke="white" stroke-linecap="round" y1="50.4" x1="45" y2="52.2" stroke-width="0.576" x2="46.8"/>
      <line  stroke="white" stroke-linecap="round" y1="55.8" x1="46.8" y2="57.6" stroke-width="0.576" x2="45"/>
      <line  stroke="white" stroke-linecap="round" y1="57.6" x1="45" y2="57.6" stroke-width="0.576" x2="41.4"/>
      <line  stroke="white" stroke-linecap="round" y1="57.6" x1="41.4" y2="55.8" stroke-width="0.576" x2="39.6"/>
      <line  stroke="white" stroke-linecap="round" y1="50.4" x1="48.6" y2="52.2" stroke-width="0.576" x2="46.8"/>
      <line  stroke="white" stroke-linecap="round" y1="55.8" x1="46.8" y2="57.6" stroke-width="0.576" x2="48.6"/>
      <line  stroke="white" stroke-linecap="round" y1="57.6" x1="52.2" y2="57.6" stroke-width="0.576" x2="48.6"/>
      <line  stroke="white" stroke-linecap="round" y1="50.4" x1="27" y2="50.4" stroke-width="0.576" x2="30.6"/>
      <line  stroke="white" stroke-linecap="round" y1="50.4" x1="30.6" y2="52.2" stroke-width="0.576" x2="32.4"/>
      <line  stroke="white" stroke-linecap="round" y1="55.8" x1="32.4" y2="57.6" stroke-width="0.576" x2="30.6"/>
      <line  stroke="white" stroke-linecap="round" y1="52.2" x1="32.4" y2="50.4" stroke-width="0.576" x2="34.2"/>
      <line  stroke="white" stroke-linecap="round" y1="50.4" x1="34.2" y2="50.4" stroke-width="0.576" x2="37.8"/>
      <line  stroke="white" stroke-linecap="round" y1="50.4" x1="37.8" y2="52.2" stroke-width="0.576" x2="39.6"/>
      <line  stroke="white" stroke-linecap="round" y1="55.8" x1="39.6" y2="57.6" stroke-width="0.576" x2="37.8"/>
      <line  stroke="white" stroke-linecap="round" y1="57.6" x1="37.8" y2="57.6" stroke-width="0.576" x2="34.2"/>
      <line  stroke="white" stroke-linecap="round" y1="57.6" x1="34.2" y2="55.8" stroke-width="0.576" x2="32.4"/>
      <line  stroke="white" stroke-linecap="round" y1="52.2" x1="18" y2="50.4" stroke-width="0.576" x2="19.8"/>
      <line  stroke="white" stroke-linecap="round" y1="50.4" x1="19.8" y2="50.4" stroke-width="0.576" x2="23.4"/>
      <line  stroke="white" stroke-linecap="round" y1="50.4" x1="23.4" y2="52.2" stroke-width="0.576" x2="25.2"/>
      <line  stroke="white" stroke-linecap="round" y1="55.8" x1="25.2" y2="57.6" stroke-width="0.576" x2="23.4"/>
      <line  stroke="white" stroke-linecap="round" y1="57.6" x1="23.4" y2="57.6" stroke-width="0.576" x2="19.8"/>
      <line  stroke="white" stroke-linecap="round" y1="57.6" x1="19.8" y2="55.8" stroke-width="0.576" x2="18"/>
      <line  stroke="white" stroke-linecap="round" y1="50.4" x1="27" y2="52.2" stroke-width="0.576" x2="25.2"/>
      <line  stroke="white" stroke-linecap="round" y1="55.8" x1="25.2" y2="57.6" stroke-width="0.576" x2="27"/>
      <line  stroke="white" stroke-linecap="round" y1="57.6" x1="30.6" y2="57.6" stroke-width="0.576" x2="27"/>
      <line  stroke="white" stroke-linecap="round" y1="50.4" x1="5.4" y2="50.4" stroke-width="0.576" x2="9"/>
      <line  stroke="white" stroke-linecap="round" y1="50.4" x1="9" y2="52.2" stroke-width="0.576" x2="10.8"/>
      <line  stroke="white" stroke-linecap="round" y1="55.8" x1="10.8" y2="57.6" stroke-width="0.576" x2="9"/>
      <line  stroke="white" stroke-linecap="round" y1="52.2" x1="10.8" y2="50.4" stroke-width="0.576" x2="12.6"/>
      <line  stroke="white" stroke-linecap="round" y1="50.4" x1="12.6" y2="50.4" stroke-width="0.576" x2="16.2"/>
      <line  stroke="white" stroke-linecap="round" y1="50.4" x1="16.2" y2="52.2" stroke-width="0.576" x2="18"/>
      <line  stroke="white" stroke-linecap="round" y1="55.8" x1="18" y2="57.6" stroke-width="0.576" x2="16.2"/>
      <line  stroke="white" stroke-linecap="round" y1="57.6" x1="16.2" y2="57.6" stroke-width="0.576" x2="12.6"/>
      <line  stroke="white" stroke-linecap="round" y1="57.6" x1="12.6" y2="55.8" stroke-width="0.576" x2="10.8"/>
      <line  stroke="white" stroke-linecap="round" y1="52.2" x1="3.6" y2="55.8" stroke-width="0.576" x2="3.6"/>
      <line  stroke="white" stroke-linecap="round" y1="50.4" x1="5.4" y2="52.2" stroke-width="0.576" x2="3.6"/>
      <line  stroke="white" stroke-linecap="round" y1="55.8" x1="3.6" y2="57.6" stroke-width="0.576" x2="5.4"/>
      <line  stroke="white" stroke-linecap="round" y1="57.6" x1="9" y2="57.6" stroke-width="0.576" x2="5.4"/>
      <line  stroke="white" stroke-linecap="round" y1="52.2" x1="54" y2="55.8" stroke-width="0.576" x2="54"/>
     </g>
    </g>
    <g  stroke-width="0">
     <title >element:JP3</title>
     <g  stroke-width="0">
      <title >package:FIDUCIAL-1X2</title>
     </g>
    </g>
    <g  stroke-width="0">
     <title >element:JP4</title>
     <g  stroke-width="0">
      <title >package:FIDUCIAL-1X2</title>
     </g>
    </g>
    <g  stroke-width="0">
     <title >element:R1</title>
     <g  stroke-width="0">
      <title >package:0402-RES</title>
     </g>
    </g>
    <g  stroke-width="0">
     <title >element:U1</title>
     <g  stroke-width="0">
      <title >package:DS3234</title>
      <line  stroke="white" stroke-linecap="round" y1="39.4299" x1="10.3748" y2="18.1701" stroke-width="0.72" x2="10.3748"/>
      <line  stroke="white" stroke-linecap="round" y1="39.4299" x1="47.2252" y2="18.1701" stroke-width="0.72" x2="47.2252"/>
      <circle  fill="none" cx="44.9574" cy="25.9654" stroke="white" r="0.566929" stroke-width="0.72"/>
     </g>
    </g>
   </g>
   <rect  width="1.152" x="49.824" y="31.392" fill="#ffffff" height="2.016" stroke="none" fill-opacity="0.15" stroke-width="0"/>
   <rect  width="36.8504" x="10.3748" y="18.1701" fill="#ffffff" height="21.2599" stroke="none" fill-opacity="0.15" stroke-width="0"/>
   <circle  fill="none" cx="7.2" cy="54" connectorname="SS" stroke="#9A916C" r="2.052" id="connector5pin" stroke-width="1.224"/>
   <circle  fill="none" cx="14.4" cy="54" connectorname="MOSI" stroke="#9A916C" r="2.052" id="connector6pin" stroke-width="1.224"/>
   <circle  fill="none" cx="21.6" cy="54" connectorname="MISO" stroke="#9A916C" r="2.052" id="connector7pin" stroke-width="1.224"/>
   <circle  fill="none" cx="28.8" cy="54" connectorname="SCLK" stroke="#9A916C" r="2.052" id="connector8pin" stroke-width="1.224"/>
   <circle  fill="none" cx="36" cy="54" connectorname="INT/SQW" stroke="#9A916C" r="2.052" id="connector9pin" stroke-width="1.224"/>
   <circle  fill="none" cx="43.2" cy="54" connectorname="VCC" stroke="#9A916C" r="2.052" id="connector10pin" stroke-width="1.224"/>
   <circle  fill="none" cx="50.4" cy="54" connectorname="GND" stroke="#9A916C" r="2.052" id="connector11pin" stroke-width="1.224"/>
  </g>
  <g  id="sfe-logo-flame" stroke-width="0" transform="matrix(1, 0, 0, 1, 47.7182, 2.72357)">
   <g  stroke-width="0" transform="matrix(0, 1, -1, 0, 6.68652, 1.32751)">
    <g  stroke-width="0">
     <title >element:JP2</title>
     <g  stroke-width="0">
      <title >package:SFE-LOGO-FLAME</title>
      <title >polygon</title>
     </g>
    </g>
    <path  fill="#FFFFFF" stroke-width="0" d="M5.357,3.235c0,-0.001,0,-0.002,0,-0.003c0,-0.001,0,-0.003,0,-0.005L5.355,3.166c0,-0.001,0,-0.003,0,-0.004c0,-0.002,0,-0.004,-0.001,-0.007L5.349,2.947c0,-0.001,0,-0.001,0,-0.002c0,-0.001,0,-0.003,0,-0.005L5.343,2.757c0,-0.001,0,-0.001,0,-0.002c0,0,0,0,0,0c0,-0.001,-0.001,-0.003,-0.001,-0.005L5.336,2.724c0,-0.001,0,-0.003,0,-0.004L5.294,2.512c0,-0.004,-0.001,-0.009,-0.003,-0.013L5.282,2.457c0,-0.001,0,-0.003,-0.001,-0.005c0,0,0,0,0,0l0,0L5.276,2.437C5.275,2.431,5.273,2.425,5.271,2.42L5.249,2.359C5.248,2.358,5.247,2.356,5.247,2.354L5.181,2.168c0,0,-0.001,-0.001,-0.001,-0.002C5.179,2.165,5.179,2.163,5.178,2.162L5.165,2.138C5.164,2.136,5.163,2.135,5.162,2.133L5.088,1.996C5.087,1.993,5.086,1.99,5.084,1.988L5.049,1.922C5.048,1.92,5.047,1.918,5.046,1.917l-0.01,-0.019C5.035,1.897,5.035,1.896,5.034,1.896C5.033,1.894,5.032,1.893,5.031,1.892L4.823,1.631C4.821,1.627,4.819,1.625,4.816,1.622L4.775,1.571C4.774,1.57,4.774,1.569,4.773,1.568C4.772,1.567,4.771,1.565,4.77,1.564L4.665,1.479C4.663,1.478,4.662,1.476,4.66,1.475L4.579,1.409c-0.003,-0.003,-0.006,-0.006,-0.01,-0.00799999L4.492,1.338c-0.003,-0.004,-0.00799999,-0.00799999,-0.013,-0.01L4.45,1.304c-0.00799999,-0.006,-0.019,-0.01,-0.024,-0.00799999L4.425,1.296c-0.005,0,-0.009,0.002,-0.013,0.004c-0.001,0,-0.001,0,-0.001,0c-0.004,0.002,-0.007,0.005,-0.01,0.00799999c0,0,0,0,0,0c0,0,0,0,-0.001,0c0,0,0,0,0,0c0,0,0,0,-0.001,0C4.398,1.311,4.397,1.312,4.396,1.314l0,0c0,0,0,0,0,0c0,0,-0.001,0,-0.001,0s0,0,0,0C4.393,1.321,4.392,1.327,4.392,1.333l0,0.245L4.387,1.615L4.38,1.632C4.379,1.634,4.378,1.636,4.378,1.638L4.335,1.694C4.332,1.697,4.33,1.7,4.328,1.703l-0.03,0.038l-0.03,0.021C4.266,1.763,4.264,1.764,4.262,1.766L4.195,1.812L4.146,1.83L3.993,1.847L3.844,1.818L3.705,1.748L3.53,1.621C3.529,1.62,3.527,1.619,3.525,1.618L3.449,1.562L3.353,1.48C3.352,1.479,3.35,1.477,3.348,1.476l-0.06,-0.064C3.288,1.41,3.287,1.409,3.285,1.407l-0.051,-0.06C3.232,1.343,3.229,1.339,3.226,1.335L3.153,1.217L3.148,1.206c0,-0.002,-0.001,-0.004,-0.002,-0.005L3.119,1.134C3.118,1.132,3.117,1.129,3.116,1.127l-0.021,-0.05l0,-0.003c0,-0.005,-0.001,-0.009,-0.002,-0.013L3.078,0.992002l0.003,-0.0859997l0.044,-0.146l0.015,-0.025c0.001,-0.001,0.002,-0.003,0.003,-0.005l0.062,-0.101l0.11,-0.103c0.001,0,0.002,-0.001,0.002,-0.002l0.136,-0.072l0.139,-0.039l0.145,-0.016l0.171,0c0.005,0,0.011,-0.001,0.015,-0.003c0.001,0,0.001,0,0.001,0l0,0c0.001,0,0.001,0,0.001,0l0,0c0.003,-0.001,0.005,-0.003,0.007,-0.005c0.005,-0.003,0.00799999,-0.00799999,0.01,-0.013l0,0l0,0c0.002,-0.003,0.002,-0.006,0.003,-0.01c0,-0.00799999,-0.002,-0.016,-0.006,-0.022l0,0c0,0,-0.001,0,-0.001,0C3.938,0.339,3.938,0.337,3.937,0.336L3.93,0.33c0,-0.001,-0.001,-0.001,-0.001,-0.002L3.928,0.328C3.927,0.325,3.927,0.325,3.924,0.324L3.802,0.229C3.798,0.224,3.795,0.224,3.793,0.224L3.65,0.162l0,0c0,0,0,0,-0.001,0l-0.1,-0.042L3.521,0.105C3.519,0.104,3.517,0.103,3.514,0.103L3.485,0.0889999c-0.002,0,-0.004,-0.001,-0.006,-0.002c0,0,0,0,0,0l0,0L3.253,0.031C3.25,0.03,3.246,0.029,3.242,0.029L3.231,0.026C3.229,0.025,3.226,0.025,3.225,0.025L2.97,0C2.969,0,2.967,0,2.966,0l0,0C2.965,0,2.963,0,2.962,0L2.717,0.019c0,0,-0.001,0,-0.001,0c-0.002,0,-0.005,0,-0.007,0.001L2.678,0.029c-0.003,0,-0.007,0.001,-0.01,0.003L2.473,0.0850003C2.47,0.0859997,2.468,0.09,2.465,0.0879998L2.288,0.177c0,0,0,0,-0.001,0L2.245,0.198c-0.001,0,-0.001,0,-0.002,0.001c0,0,0,0,0,0C2.242,0.2,2.24,0.201,2.239,0.202L2.02,0.359C2.018,0.36,2.017,0.361,2.015,0.363L1.829,0.54C1.827,0.541,1.825,0.543,1.823,0.545L1.818,0.55c0,0.001,-0.001,0.002,-0.002,0.002C1.815,0.553,1.814,0.555,1.813,0.556L1.716,0.691c0,0,0,0,0,0.001L1.692,0.725998C1.691,0.726998,1.69,0.727999,1.69,0.729C1.688,0.731002,1.688,0.733003,1.687,0.734998L1.673,0.770998c0,0.001,-0.001,0.002,-0.001,0.004L1.646,0.841003c0,0.001,-0.001,0.003,-0.002,0.005L1.612,0.930002C1.611,0.931997,1.611,0.933998,1.61,0.936c0,0.001,0,0.002,0,0.004L1.584,1.147c0,0.001,0,0.003,0,0.004c0,0.002,0,0.004,0,0.006l0.00799999,0.059c0,0.003,0,0.006,0.001,0.009l0.00799999,0.061c0,0,0,0.001,0,0.002c0,0.004,0.001,0.00799999,0.002,0.012l0.009,0.063c0,0.001,0,0.002,0,0.004c0,0.002,0.001,0.003,0.002,0.005l0,0c0,0,0,0,0,0L1.643,1.44c0.001,0.004,0.002,0.00799999,0.004,0.012l0.025,0.063c0,0.002,0.001,0.005,0.003,0.007l0.019,0.046c0,0.002,0.001,0.004,0.003,0.006c0,0,0,0.001,0.001,0.002l0.157,0.233c0.001,0.003,0.003,0.005,0.005,0.00799999l0.043,0.064C1.906,1.884,1.908,1.887,1.91,1.889L2,2.022c0.002,0.005,0.004,0.009,0.00799999,0.012l0.026,0.039c0.002,0.003,0.003,0.004,0.004,0.005l0.022,0.024c0.001,0.002,0.003,0.004,0.006,0.006l0.062,0.066C2.13,2.176,2.132,2.178,2.133,2.179l0.13,0.139C2.266,2.32,2.268,2.323,2.271,2.325l0.062,0.066c0.001,0.002,0.003,0.003,0.005,0.005l0.064,0.068c0,0,0.001,0.001,0.001,0.001l0.122,0.139c0.002,0.002,0.004,0.004,0.006,0.006l0.023,0.027l0.068,0.142L2.64,2.874c0,0.004,0.001,0.007,0.002,0.011l0.01,0.052L2.639,3.094L2.587,3.242L2.498,3.373L2.377,3.476L2.223,3.56L2.057,3.615L1.884,3.644l-0.201,-0.01L1.676,3.631c-0.001,0,-0.002,0,-0.003,0L1.49,3.574L1.354,3.492C1.352,3.49,1.35,3.489,1.347,3.488L1.319,3.471L1.231,3.377L1.172,3.263L1.148,3.158c0,-0.003,-0.001,-0.006,-0.002,-0.009l0,-0.124c0,-0.001,0,-0.002,0,-0.003l0.026,-0.115l0.021,-0.04l0.033,-0.032L1.23,2.832C1.232,2.831,1.234,2.83,1.236,2.828l0.224,-0.162l0.038,-0.021l0.039,-0.00799999l0.044,0.004c0.001,0,0.002,0,0.003,0c0.019,0,0.034,-0.014,0.036,-0.033c0.001,-0.012,-0.003,-0.023,-0.012,-0.03l0,0l0,0c0,0,0,0,0,0l0,0c0,0,0,0,0,0c0,0,0,0,0,0s0,0,0,0c0,0,0,0,0,0s0,0,0,0s0,0,0,0l0,0C1.6,2.574,1.595,2.572,1.589,2.571L1.453,2.549c0,0,0,0,-0.001,0c-0.001,0,-0.001,0,-0.002,0L1.184,2.528c-0.001,0,-0.002,0,-0.003,0s-0.002,0,-0.003,0L0.912002,2.549c-0.001,0,-0.002,0,-0.003,0c0,0,0,0,0,0l0,0c-0.001,0,-0.002,0,-0.003,0L0.707,2.602c0,0,-0.001,0,-0.002,0.001c0,0,0,0,0,0c-0.002,0,-0.004,0.001,-0.005,0.002l-0.182,0.09C0.515,2.696,0.513,2.697,0.51,2.7L0.349,2.825C0.348,2.826,0.347,2.826,0.346,2.827C0.344,2.828,0.343,2.83,0.342,2.831L0.21,2.986c0,0,0,0,-0.001,0.001l0,0C0.208,2.99,0.206,2.991,0.205,2.993L0.204,2.997C0.202,2.999,0.201,3,0.2,3.002L0.0930002,3.199c0,0,-0.001,0.001,-0.001,0.003C0.09,3.204,0.09,3.206,0.0889999,3.207L0.0859997,3.219C0.0850003,3.221,0.0840002,3.223,0.0840002,3.226L0.021,3.433c0,0.001,0,0.001,-0.001,0.002c0,0.002,0,0.004,-0.001,0.006L0.00799999,3.585c0,0.002,-0.001,0.005,-0.001,0.00799999c0,0,0,0.001,0,0.002L0.002,3.658c0,0.002,-0.001,0.005,-0.001,0.007c0,0,0,0.001,0,0.001l0,0.011l0,0C0,3.678,0,3.679,0,3.68l0,4.296C0,7.97897,0,7.97998,0,7.98199c0,0.001,0,0.001,0,0.001c0,0.002,0.001,0.004,0.001,0.006l0,0L0.001,7.98998C0.004,7.99502,0.00799999,7.99999,0.012,8.00503c0.007,0.006,0.016,0.009,0.024,0.009c0.001,0,0.003,0,0.004,0c0,0,0,0,0,0c0.007,-0.004,0.013,-0.006,0.02,-0.01c0.001,-0.001,0.002,-0.002,0.003,-0.003L0.118,7.94002C0.12,7.938,0.122,7.93598,0.124,7.93397l0.25,-0.281C0.375,7.65,0.377,7.64698,0.379,7.64597L0.437,7.58002C0.44,7.578,0.442,7.57498,0.444,7.57202l0.123,-0.139c0.001,0,0.001,-0.001,0.002,-0.002l0.061,-0.068C0.631,7.362,0.633,7.35998,0.635,7.35703l0.185,-0.208c0.004,-0.002,0.007,-0.006,0.01,-0.011l0.057,-0.063C0.887998,7.073,0.888998,7.072,0.891,7.07l0.185,-0.209c0.004,-0.003,0.007,-0.006,0.01,-0.01l0.057,-0.064c0.002,-0.002,0.003,-0.003,0.005,-0.005l0.059,-0.066C1.208,6.714,1.21,6.711,1.211,6.708l0.057,-0.062C1.271,6.643,1.273,6.64,1.275,6.637l0.056,-0.063c0.003,-0.003,0.007,-0.006,0.009,-0.01l0.057,-0.064c0.001,-0.002,0.003,-0.003,0.004,-0.005l0.042,-0.047L1.54,6.359c0.004,-0.002,0.007,-0.005,0.01,-0.009l0.136,-0.124l0.257,-0.153C1.944,6.072,1.946,6.071,1.947,6.07l0.02,-0.012l0.099,-0.035L2.17,6.005l0.645,0c0,-0.001,0.002,-0.001,0.004,0L3.204,5.97c0.001,0,0.003,0,0.004,-0.001c0,0,0,0,0,0c0.001,0,0.002,0,0.003,-0.001l0.373,-0.104c0.001,-0.001,0.003,-0.001,0.005,-0.002c0,0,0.001,-0.001,0.002,-0.001l0.004,-0.002c0.003,-0.001,0.006,-0.003,0.009,-0.004l0.139,-0.068c0.004,-0.001,0.007,-0.003,0.01,-0.005l0.141,-0.068c0.001,0,0.003,-0.001,0.004,-0.002l0.041,-0.021c0.002,0,0.003,-0.001,0.005,-0.002c0.001,0,0.001,-0.001,0.002,-0.001l0.168,-0.119c0.004,-0.002,0.007,-0.004,0.01,-0.007l0.149,-0.105c0.002,-0.001,0.004,-0.002,0.005,-0.004l0.292,-0.274c0.002,-0.002,0.003,-0.003,0.004,-0.005l0.0940003,-0.117c0.001,-0.001,0.001,-0.001,0.001,-0.002l0.056,-0.069C4.725,4.984,4.727,4.982,4.728,4.98L4.78,4.914C4.782,4.912,4.784,4.91,4.785,4.907l0.037,-0.046c0.001,-0.002,0.002,-0.003,0.003,-0.005c0,0,0,0,0.001,0L4.826,4.855l0.05,-0.0879998c0.002,-0.003,0.004,-0.006,0.005,-0.01L4.959,4.62C4.96,4.619,4.96,4.617,4.961,4.616L4.998,4.55C5,4.547,5.002,4.544,5.003,4.542l0.036,-0.063c0.002,-0.002,0.003,-0.004,0.004,-0.007l0.036,-0.064c0.002,-0.003,0.004,-0.006,0.006,-0.01l0.01,-0.018c0,-0.001,0.001,-0.001,0.001,-0.002c0,0.001,0.002,-0.002,0.002,-0.004l0.039,-0.113c0.002,-0.004,0.004,-0.00799999,0.004,-0.013l0.021,-0.062C5.163,4.182,5.164,4.18,5.165,4.177l0.047,-0.136c0.001,-0.003,0.002,-0.006,0.003,-0.009l0.022,-0.063c0.001,-0.002,0.001,-0.004,0.002,-0.007l0.021,-0.062c0.002,-0.004,0.004,-0.00799999,0.005,-0.013l0.01,-0.029c0,-0.001,0.001,-0.002,0.001,-0.004c0,-0.001,0,-0.002,0.001,-0.003l0.004,-0.03c0.001,-0.003,0.002,-0.007,0.002,-0.01l0.01,-0.064c0,-0.002,0.001,-0.004,0.001,-0.007l0.01,-0.065c0,-0.002,0.001,-0.004,0.001,-0.005l0.042,-0.281c0.001,-0.003,0.002,-0.006,0.002,-0.01l0.01,-0.064c0,-0.003,0.001,-0.006,0.001,-0.009c0,-0.001,0,-0.002,0,-0.003L5.357,3.235z"/>
   </g>
  </g>
 </g>
</svg>
