<?xml version="1.0" encoding="utf-8"?>
<!DOCTYPE svg PUBLIC "-//W3C//DTD SVG 1.1 Basic//EN" "http://www.w3.org/Graphics/SVG/1.1/DTD/svg11-basic.dtd">
<svg version="1.1" baseProfile="basic" id="breadboard"
	 xmlns="http://www.w3.org/2000/svg" xmlns:xlink="http://www.w3.org/1999/xlink" x="0px" y="0px" width="0.647in"
	 height="0.547in" viewBox="0 0 46.649 39.39" xml:space="preserve">
<rect id="connector1pin" x="43.477" y="7.176" fill="none" width="3.173" height="3.401"/>
<rect id="connector1terminal" x="46.243" y="7.176" fill="none" width="0.404" height="3.401"/>
<rect id="connector2pin" x="22.015" y="7.199" fill="none" width="3" height="3.216"/>
<rect id="connector2terminal" x="22.015" y="7.201" fill="none" width="3" height="0.404"/>
<rect id="connector3pin" x="0" y="7.159" fill="none" width="3.683" height="3.436"/>
<rect id="connector3terminal" x="0.002" y="7.159" fill="none" width="0.463" height="3.436"/>
<rect id="connector4pin" x="7.421" y="0" fill="none" width="3" height="3.216"/>
<rect id="connector4terminal" x="7.421" y="0.001" fill="none" width="3" height="0.404"/>
<rect id="connector5pin" x="36.267" y="0" fill="none" width="3" height="3.216"/>
<rect id="connector5terminal" x="36.267" y="0.001" fill="none" width="3" height="0.404"/>
<rect id="connector6pin" x="7.44" y="36.174" fill="none" width="3" height="3.216"/>
<rect id="connector6terminal" x="7.44" y="38.983" fill="none" width="3" height="0.404"/>
<rect id="connector7pin" x="14.621" y="36.174" fill="none" width="3" height="3.216"/>
<rect id="connector7terminal" x="14.621" y="38.983" fill="none" width="3" height="0.404"/>
<rect id="connector8pin" x="29.102" y="36.174" fill="none" width="3.001" height="3.216"/>
<rect id="connector8terminal" x="29.102" y="38.983" fill="none" width="3.001" height="0.404"/>
<rect id="connector9pin" x="36.303" y="36.174" fill="none" width="3" height="3.216"/>
<rect id="connector9terminal" x="36.303" y="38.983" fill="none" width="3" height="0.404"/>
<g id="svg">
	<g>
		<path fill="#262626" d="M33.841,0c-1.169,0-2.555,0.855-3.079,1.9L29.07,5.275c-0.524,1.045-1.91,1.9-3.079,1.9h-5.314
			c-1.169,0-2.555-0.855-3.079-1.9L15.905,1.9C15.381,0.855,13.996,0,12.826,0h-10.7C0.957,0,0,0.957,0,2.126v35.138
			c0,1.169,0.957,2.126,2.126,2.126h42.397c1.169,0,2.126-0.957,2.126-2.126V2.126C46.649,0.957,45.692,0,44.523,0H33.841z"/>
		<path fill="#262626" d="M33.841,0c-1.169,0-2.555,0.855-3.079,1.9L29.07,5.275c-0.524,1.045-1.91,1.9-3.079,1.9h-5.314
			c-1.169,0-2.555-0.855-3.079-1.9L15.905,1.9C15.381,0.855,13.996,0,12.826,0h-10.7C0.957,0,0,0.957,0,2.126v35.138
			c0,1.169,0.957,2.126,2.126,2.126h42.397c1.169,0,2.126-0.957,2.126-2.126V2.126C46.649,0.957,45.692,0,44.523,0H33.841z"/>
	</g>
	<rect x="6.938" width="3.965" height="3.683"/>
	<rect x="21.532" y="7.199" width="3.965" height="3.683"/>
	<rect y="6.895" width="3.683" height="3.965"/>
	<rect x="42.967" y="6.895" width="3.683" height="3.965"/>
	<rect x="35.784" width="3.965" height="3.683"/>
	<rect x="21.813" y="7.199" fill="#8C8C8C" width="3.402" height="3.4"/>
	<g>
		<polyline fill="none" stroke="#000000" stroke-width="2" stroke-linecap="round" stroke-linejoin="round" points="8.921,1.7 
			8.921,6.817 12.249,10.146 		"/>
		<polyline fill="none" stroke="#8C8C8C" stroke-width="1.5" stroke-linecap="round" stroke-linejoin="round" points="8.921,1.7 
			8.921,6.817 12.249,10.146 		"/>
	</g>
	<g>
		<polyline fill="none" stroke="#000000" stroke-width="2" stroke-linecap="round" stroke-linejoin="round" points="37.767,1.7 
			37.767,6.817 34.438,10.146 		"/>
		<polyline fill="none" stroke="#8C8C8C" stroke-width="1.5" stroke-linecap="round" stroke-linejoin="round" points="37.767,1.7 
			37.767,6.817 34.438,10.146 		"/>
	</g>
	<g>
		<polyline fill="none" stroke="#000000" stroke-width="2" stroke-linecap="round" stroke-linejoin="round" points="1.7,8.896 
			6.817,8.896 10.146,12.225 		"/>
		<polyline fill="none" stroke="#8C8C8C" stroke-width="1.5" stroke-linecap="round" stroke-linejoin="round" points="1.7,8.896 
			6.817,8.896 10.146,12.225 		"/>
	</g>
	<g>
		<polyline fill="none" stroke="#000000" stroke-width="2" stroke-linecap="round" stroke-linejoin="round" points="44.937,8.877 
			39.819,8.877 36.49,12.205 		"/>
		<polyline fill="none" stroke="#8C8C8C" stroke-width="1.5" stroke-linecap="round" stroke-linejoin="round" points="44.937,8.877 
			39.819,8.877 36.49,12.205 		"/>
	</g>
	<g>
		<g>
			<path d="M35.276,23.669c0-6.601-5.354-11.951-11.957-11.951c-6.602,0-11.954,5.351-11.954,11.951
				c0,5.405,3.589,9.963,8.508,11.445v0.688h6.896v-0.688C31.688,33.632,35.276,29.073,35.276,23.669z"/>
			<g opacity="0.3">
				<path fill="#1A1A1A" d="M23.319,11.718c6.604,0,11.957,5.351,11.957,11.951c0,5.404-3.588,9.963-8.508,11.445v0.688h-6.896
					v-0.688c-4.919-1.482-8.508-6.04-8.508-11.445C11.365,17.068,16.718,11.718,23.319,11.718 M23.319,11.253
					c-6.848,0-12.419,5.569-12.419,12.416c0,5.403,3.404,10.097,8.508,11.786v0.347v0.465h0.465h6.896h0.465v-0.465v-0.347
					c5.104-1.689,8.508-6.383,8.508-11.786C35.741,16.822,30.169,11.253,23.319,11.253L23.319,11.253z"/>
			</g>
		</g>
		<g>
			<g>
				<polygon points="6.893,35.801 6.893,39.106 10.893,39.106 10.893,38.275 14.149,38.275 14.149,39.106 18.1,39.106 18.1,38.275 
					28.603,38.275 28.603,39.106 32.601,39.106 32.601,38.275 35.857,38.275 35.857,39.106 39.83,39.106 39.83,35.801 				"/>
			</g>
			<g opacity="0.3">
				<polygon fill="none" stroke="#1A1A1A" stroke-width="0.4651" points="6.893,35.801 6.893,39.106 10.893,39.106 10.893,38.275 
					14.149,38.275 14.149,39.106 18.1,39.106 18.1,38.275 28.603,38.275 28.603,39.106 32.601,39.106 32.601,38.275 35.857,38.275 
					35.857,39.106 39.83,39.106 39.83,35.801 				"/>
			</g>
		</g>
		<g>
			<path fill="#353535" d="M25.628,13.878v2.349h-4.613v-2.349c-4.447,1.046-7.762,5.023-7.762,9.791
				c0,5.561,4.506,10.069,10.066,10.069c5.563,0,10.07-4.509,10.07-10.069C33.39,18.901,30.074,14.924,25.628,13.878z"/>
			<g opacity="0.3">
				<path fill="#515151" d="M20.55,14.483v1.743v0.465h0.465h4.613h0.465v-0.465v-1.743c4.052,1.214,6.832,4.911,6.832,9.186
					c0,5.296-4.31,9.604-9.605,9.604c-5.294,0-9.602-4.309-9.602-9.604C13.718,19.394,16.499,15.697,20.55,14.483 M25.628,13.878
					v2.349h-4.613v-2.349c-4.447,1.046-7.762,5.023-7.762,9.791c0,5.561,4.506,10.069,10.066,10.069
					c5.563,0,10.07-4.509,10.07-10.069C33.39,18.901,30.074,14.924,25.628,13.878L25.628,13.878z"/>
			</g>
		</g>
		<g>
			<path d="M24.95,29.678c0-0.508-0.26-0.956-0.654-1.218v-2.064h-1.617v2.064c-0.394,0.263-0.654,0.71-0.654,1.218
				c0,0.51,0.261,0.958,0.654,1.22v2.068h1.617v-2.067C24.69,30.636,24.95,30.188,24.95,29.678z"/>
		</g>
		<g>
			<g>
				<polygon fill="#B8AF82" points="23.058,26.74 23.058,27.389 23.919,27.389 23.919,26.74 				"/>
				<polygon fill="#9A916C" points="23.058,28.633 23.919,28.633 23.919,28.31 23.058,28.31 				"/>
				<polygon fill="#E2D6A1" points="23.058,28.31 23.919,28.31 23.919,27.389 23.058,27.389 				"/>
			</g>
			<g>
				<polygon fill="#B8AF82" points="23.917,32.619 23.917,31.973 23.058,31.973 23.058,32.619 				"/>
				<polygon fill="#9A916C" points="23.917,30.726 23.058,30.726 23.058,31.047 23.917,31.047 				"/>
				<polygon fill="#E2D6A1" points="23.917,31.047 23.058,31.047 23.058,31.973 23.917,31.973 				"/>
			</g>
		</g>
		<g>
			<path d="M30.03,30.242l-1.033-1.789c0.211-0.425,0.213-0.943-0.041-1.386c-0.256-0.439-0.705-0.695-1.178-0.725l-1.033-1.789
				l-1.398,0.809l1.033,1.788c-0.211,0.423-0.214,0.939,0.041,1.38c0.255,0.442,0.705,0.701,1.179,0.73l1.032,1.786L30.03,30.242z"
				/>
		</g>
		<g>
			<g>
				<polygon fill="#B8AF82" points="25.846,25.473 26.168,26.03 26.913,25.601 26.591,25.041 				"/>
				<polygon fill="#9A916C" points="26.794,27.112 27.539,26.681 27.376,26.399 26.629,26.831 				"/>
				<polygon fill="#E2D6A1" points="26.629,26.831 27.376,26.399 26.913,25.601 26.168,26.03 				"/>
			</g>
			<g>
				<polygon fill="#B8AF82" points="29.528,30.131 29.207,29.572 28.46,30.002 28.784,30.563 				"/>
				<polygon fill="#9A916C" points="28.581,28.492 27.837,28.922 27.999,29.203 28.746,28.771 				"/>
				<polygon fill="#E2D6A1" points="28.746,28.771 27.999,29.203 28.46,30.002 29.207,29.572 				"/>
			</g>
		</g>
		<g>
			<path d="M31.673,25.943l-1.034-1.79c0.21-0.425,0.211-0.942-0.043-1.385c-0.255-0.438-0.703-0.695-1.175-0.726l-1.034-1.79
				l-1.399,0.809l1.033,1.79c-0.21,0.424-0.212,0.941,0.042,1.382c0.255,0.441,0.704,0.698,1.176,0.729l1.033,1.789L31.673,25.943z"
				/>
		</g>
		<g>
			<g>
				<polygon fill="#B8AF82" points="27.487,21.173 27.812,21.731 28.556,21.304 28.231,20.742 				"/>
				<polygon fill="#9A916C" points="28.438,22.815 29.181,22.382 29.019,22.103 28.272,22.531 				"/>
				<polygon fill="#E2D6A1" points="28.272,22.531 29.019,22.103 28.556,21.304 27.812,21.731 				"/>
			</g>
			<g>
				<polygon fill="#B8AF82" points="31.172,25.832 30.85,25.272 30.101,25.703 30.425,26.264 				"/>
				<polygon fill="#9A916C" points="30.224,24.192 29.478,24.62 29.64,24.905 30.388,24.476 				"/>
				<polygon fill="#E2D6A1" points="30.388,24.476 29.64,24.905 30.101,25.703 30.85,25.272 				"/>
			</g>
		</g>
		<g>
			<path d="M21.297,25.362l-1.4-0.809l-1.034,1.789c-0.472,0.029-0.921,0.285-1.176,0.725c-0.255,0.442-0.252,0.96-0.042,1.385
				l-1.034,1.79l1.4,0.805l1.032-1.786c0.474-0.029,0.923-0.288,1.177-0.73c0.254-0.44,0.252-0.955,0.042-1.378L21.297,25.362z"/>
		</g>
		<g>
			<g>
				<polygon fill="#B8AF82" points="20.796,25.473 20.474,26.03 19.728,25.601 20.052,25.041 				"/>
				<polygon fill="#9A916C" points="19.847,27.112 19.102,26.681 19.266,26.399 20.011,26.831 				"/>
				<polygon fill="#E2D6A1" points="20.011,26.831 19.266,26.399 19.728,25.601 20.474,26.03 				"/>
			</g>
			<g>
				<polygon fill="#B8AF82" points="17.11,30.131 17.435,29.572 18.181,30.002 17.858,30.563 				"/>
				<polygon fill="#9A916C" points="18.061,28.492 18.805,28.922 18.642,29.203 17.896,28.771 				"/>
				<polygon fill="#E2D6A1" points="17.896,28.771 18.642,29.203 18.181,30.002 17.435,29.572 				"/>
			</g>
		</g>
		<g>
			<path d="M19.653,21.062l-1.4-0.809l-1.033,1.79c-0.471,0.03-0.92,0.287-1.175,0.726c-0.254,0.442-0.253,0.961-0.043,1.385
				l-1.033,1.79l1.401,0.808l1.032-1.789c0.472-0.03,0.92-0.287,1.175-0.729c0.254-0.44,0.253-0.958,0.043-1.382L19.653,21.062z"/>
		</g>
		<g>
			<g>
				<polygon fill="#B8AF82" points="19.154,21.173 18.831,21.731 18.085,21.304 18.409,20.742 				"/>
				<polygon fill="#9A916C" points="18.206,22.815 17.46,22.382 17.624,22.103 18.37,22.531 				"/>
				<polygon fill="#E2D6A1" points="18.37,22.531 17.624,22.103 18.085,21.304 18.831,21.731 				"/>
			</g>
			<g>
				<polygon fill="#B8AF82" points="15.468,25.832 15.792,25.272 16.54,25.703 16.216,26.264 				"/>
				<polygon fill="#9A916C" points="16.419,24.192 17.164,24.62 16.999,24.905 16.254,24.476 				"/>
				<polygon fill="#E2D6A1" points="16.254,24.476 16.999,24.905 16.54,25.703 15.792,25.272 				"/>
			</g>
		</g>
	</g>
	<g>
		<polygon fill="#8C8C8C" points="26.197,35.134 20.444,35.134 19.874,37.879 26.767,37.879 		"/>
	</g>
	<g>
		<rect x="7.22" y="37.162" fill="#8C8C8C" width="3.401" height="2.228"/>
		<g>
			<rect x="7.22" y="38.697" fill="#707070" width="3.401" height="0.692"/>
		</g>
	</g>
	<g>
		<rect x="14.421" y="37.162" fill="#8C8C8C" width="3.4" height="2.228"/>
		<g>
			<rect x="14.421" y="38.697" fill="#707070" width="3.4" height="0.692"/>
		</g>
	</g>
	<rect x="28.901" y="37.162" fill="#8C8C8C" width="3.402" height="2.228"/>
	<g>
		<rect x="28.901" y="38.697" fill="#707070" width="3.402" height="0.692"/>
	</g>
	<g>
		<rect x="21.813" y="7.199" fill="#707070" width="3.402" height="0.692"/>
	</g>
	<g>
		<rect x="43.247" y="7.176" fill="#8C8C8C" width="3.402" height="3.402"/>
		<rect x="36.019" fill="#8C8C8C" width="3.402" height="3.4"/>
		<rect x="7.22" fill="#8C8C8C" width="3.401" height="3.4"/>
		<rect y="7.195" fill="#8C8C8C" width="3.4" height="3.401"/>
		<g>
			<rect x="36.019" fill="#707070" width="3.402" height="0.692"/>
		</g>
		<g>
			<rect x="7.219" fill="#707070" width="3.402" height="0.692"/>
		</g>
		<g>
			<rect y="7.198" fill="#707070" width="0.692" height="3.402"/>
		</g>
		<g>
			<rect x="45.957" y="7.176" fill="#707070" width="0.692" height="3.402"/>
		</g>
	</g>
	<g>
		<rect x="36.103" y="37.162" fill="#8C8C8C" width="3.401" height="2.228"/>
		<g>
			<rect x="36.103" y="38.697" fill="#707070" width="3.401" height="0.692"/>
		</g>
	</g>
	<rect x="7.22" y="36.312" fill="#8C8C8C" width="32.284" height="1.633"/>
</g>
</svg>
