<?xml version='1.0' encoding='utf-8'?>
<!DOCTYPE svg PUBLIC '-//W3C//DTD SVG 1.1//EN' 'http://www.w3.org/Graphics/SVG/1.1/DTD/svg11.dtd'>
<!-- Generator: Adobe Illustrator 15.0.1, SVG Export Plug-In . SVG Version: 6.00 Build 0)  -->
<svg xmlns="http://www.w3.org/2000/svg" width="1.08228in" xml:space="preserve" xmlns:xml="http://www.w3.org/XML/1998/namespace" x="0px" version="1.1" y="0px" height="0.6in" viewBox="0 0 77.924 43.2" id="Ebene_1" enable-background="new 0 0 77.924 43.2">
 <desc >Fritzing breadboard generated by brd2svg</desc>
 <g  id="breadboard">
  <g  id="icon">
   <path  fill="#C62717" d="M0,0h75.6v43.2H0V0 M59.924,27.836c-0.001,0.704,0.57,1.275,1.274,1.277c0.704,0,1.276-0.57,1.277-1.274c0-0.001,0-0.002,0-0.003c0.001-0.705-0.569-1.276-1.274-1.277c-0.704-0.001-1.276,0.569-1.277,1.273C59.924,27.834,59.924,27.834,59.924,27.836z M59.924,15.364c-0.001,0.705,0.57,1.276,1.274,1.277c0.704,0,1.276-0.57,1.277-1.274c0-0.001,0-0.002,0-0.003c0.001-0.705-0.569-1.276-1.274-1.277c-0.704-0.001-1.276,0.569-1.277,1.274C59.924,15.362,59.924,15.363,59.924,15.364z"/>
   <g >
    <title >layer 21</title>
    <g >
     <title >text:VCC</title>
     <g  transform="matrix(1, 0, 0, 1, 13.32, 20.88)">
      <g  transform="rotate(-90)">
       <text  fill="#FFFFFF" font-family="OCRA" transform="matrix(1 0 0 1 6.103516e-04 -2.267)" font-size="2.6726">VCC</text>
      </g>
     </g>
    </g>
    <g >
     <title >text:TXO</title>
     <g  transform="matrix(1, 0, 0, 1, 13.32, 28.08)">
      <g  transform="rotate(-90)">
       <text  fill="#FFFFFF" font-family="OCRA" transform="matrix(1 0 0 1 3.967285e-04 -2.267)" font-size="2.6726">TXO</text>
      </g>
     </g>
    </g>
    <g >
     <title >text:RXI</title>
     <g  transform="matrix(1, 0, 0, 1, 13.32, 35.28)">
      <g  transform="rotate(-90)">
       <text  fill="#FFFFFF" font-family="OCRA" transform="matrix(1 0 0 1 2.136230e-04 -2.267)" font-size="2.6726">RXI</text>
      </g>
     </g>
    </g>
    <g >
     <title >text:GND</title>
     <g  transform="matrix(1, 0, 0, 1, 13.32, 6.84)">
      <g  transform="rotate(-90)">
       <text  fill="#FFFFFF" font-family="OCRA" transform="matrix(1 0 0 1 6.408691e-04 -2.267)" font-size="2.6726">GND</text>
      </g>
     </g>
    </g>
    <g >
     <title >text:FTDI Basic</title>
     <text  fill="#FFFFFF" font-family="OCRA" transform="matrix(1 0 0 1 46.8 4.3198)" font-size="3.3408">FTDI Basic</text>
    </g>
    <g >
     <title >text:DTR</title>
     <g  transform="matrix(1, 0, 0, 1, 13.32, 42.48)">
      <g  transform="rotate(-90)">
       <text  fill="#FFFFFF" font-family="OCRA" transform="matrix(1 0 0 1 0.001 -2.267)" font-size="2.6726">DTR</text>
      </g>
     </g>
    </g>
    <g >
     <title >text:RX</title>
     <text  fill="#FFFFFF" font-family="OCRA" transform="matrix(1 0 0 1 29.8801 8.6392)" font-size="3.3408">RX</text>
    </g>
    <g >
     <title >text:TX</title>
     <text  fill="#FFFFFF" font-family="OCRA" transform="matrix(1 0 0 1 22.6804 8.6392)" font-size="3.3408">TX</text>
    </g>
    <g >
     <title >text:CTS</title>
     <g  transform="matrix(1, 0, 0, 1, 13.32, 13.68)">
      <g  transform="rotate(-90)">
       <text  fill="#FFFFFF" font-family="OCRA" transform="matrix(1 0 0 1 -1.831055e-04 -2.267)" font-size="2.6726">CTS</text>
      </g>
     </g>
    </g>
    <g >
     <title >text:BLK</title>
     <g  transform="matrix(1, 0, 0, 1, 3.6, 6.84)">
      <g  transform="rotate(-90)">
       <text  fill="#FFFFFF" font-family="OCRA" transform="matrix(1 0 0 1 6.408691e-04 11.7918)" font-size="2.6726">BLK</text>
      </g>
     </g>
    </g>
    <g >
     <title >text:GRN</title>
     <g  transform="matrix(1, 0, 0, 1, 3.6, 42.48)">
      <g  transform="rotate(-90)">
       <text  fill="#FFFFFF" font-family="OCRA" transform="matrix(1 0 0 1 0.001 11.7918)" font-size="2.6726">GRN</text>
      </g>
     </g>
    </g>
    <g >
     <title >element:C1</title>
     <g >
      <title >package:C0402</title>
     </g>
    </g>
    <g >
     <title >element:C2</title>
     <g >
      <title >package:C0402</title>
     </g>
    </g>
    <g >
     <title >element:C5</title>
     <g >
      <title >package:EIA3216</title>
      <line  fill="none" stroke="#FFFFFF" stroke-linecap="round" y1="41.922" stroke-width="0.576" x1="39.285" y2="41.922" x2="35.033"/>
      <line  fill="none" stroke="#FFFFFF" stroke-linecap="round" y1="41.922" stroke-width="0.576" x1="35.033" y2="35.118" x2="35.033"/>
      <line  fill="none" stroke="#FFFFFF" stroke-linecap="round" y1="35.118" stroke-width="0.576" x1="35.033" y2="35.118" x2="39.285"/>
      <line  fill="none" stroke="#FFFFFF" stroke-linecap="round" y1="41.922" stroke-width="0.576" x1="44.954" y2="41.922" x2="48.073"/>
      <line  fill="none" stroke="#FFFFFF" stroke-linecap="round" y1="41.922" stroke-width="0.576" x1="48.073" y2="40.788" x2="49.206"/>
      <line  fill="none" stroke="#FFFFFF" stroke-linecap="round" y1="40.788" stroke-width="0.576" x1="49.206" y2="36.252" x2="49.206"/>
      <line  fill="none" stroke="#FFFFFF" stroke-linecap="round" y1="36.252" stroke-width="0.576" x1="49.206" y2="35.118" x2="48.073"/>
      <line  fill="none" stroke="#FFFFFF" stroke-linecap="round" y1="35.118" stroke-width="0.576" x1="48.073" y2="35.118" x2="44.954"/>
     </g>
    </g>
    <g >
     <title >element:JP1</title>
     <g >
      <title >package:1X06</title>
     </g>
    </g>
    <g >
     <title >element:LED1</title>
     <g >
      <title >package:LED-0603</title>
      <line  fill="none" stroke="#FFFFFF" stroke-linecap="round" y1="4.904" stroke-width="0.576" x1="25.682" y2="3.6" x2="25.682"/>
      <line  fill="none" stroke="#FFFFFF" stroke-linecap="round" y1="2.296" stroke-width="0.576" x1="25.682" y2="3.6" x2="25.682"/>
      <line  fill="none" stroke="#FFFFFF" stroke-linecap="round" y1="3.6" stroke-width="0.576" x1="25.682" y2="4.479" x2="24.803"/>
      <line  fill="none" stroke="#FFFFFF" stroke-linecap="round" y1="3.6" stroke-width="0.576" x1="25.71" y2="2.693" x2="24.803"/>
      <line  fill="none" stroke="#FFFFFF" stroke-linecap="round" y1="2.693" stroke-width="0.576" x1="24.803" y2="4.479" x2="24.803"/>
     </g>
    </g>
    <g >
     <title >element:LED2</title>
     <g >
      <title >package:LED-0603</title>
      <line  fill="none" stroke="#FFFFFF" stroke-linecap="round" y1="2.296" stroke-width="0.576" x1="31.918" y2="3.6" x2="31.918"/>
      <line  fill="none" stroke="#FFFFFF" stroke-linecap="round" y1="4.904" stroke-width="0.576" x1="31.918" y2="3.6" x2="31.918"/>
      <line  fill="none" stroke="#FFFFFF" stroke-linecap="round" y1="3.6" stroke-width="0.576" x1="31.918" y2="2.721" x2="32.797"/>
      <line  fill="none" stroke="#FFFFFF" stroke-linecap="round" y1="3.6" stroke-width="0.576" x1="31.89" y2="4.507" x2="32.797"/>
      <line  fill="none" stroke="#FFFFFF" stroke-linecap="round" y1="4.507" stroke-width="0.576" x1="32.797" y2="2.721" x2="32.797"/>
     </g>
    </g>
    <g >
     <title >element:R1</title>
     <g >
      <title >package:C0402</title>
     </g>
    </g>
    <g >
     <title >element:R2</title>
     <g >
      <title >package:C0402</title>
     </g>
    </g>
    <g >
     <title >element:SJ1</title>
     <g >
      <title >package:SJ_2S-NOTRACE</title>
      <line  fill="none" stroke="#FFFFFF" stroke-linecap="round" y1="35.325" stroke-width="0.576" x1="21.853" y2="35.325" x2="26.388"/>
      <path  fill="none" stroke="#FFFFFF" stroke-width="0.576" d="M21.285,40.144c-0.078,0.392,0.175,0.772,0.566,0.851c0,0,0,0,0.001,0"/>
      <path  fill="none" stroke="#FFFFFF" stroke-width="0.576" d="M26.388,40.995c0.391-0.078,0.645-0.459,0.566-0.85c0,0,0,0,0-0.001"/>
      <path  fill="none" stroke="#FFFFFF" stroke-width="0.576" d="M26.954,36.176c0.078-0.392-0.175-0.772-0.566-0.852l0,0"/>
      <path  fill="none" stroke="#FFFFFF" stroke-width="0.576" d="M21.853,35.325c-0.392,0.078-0.646,0.459-0.567,0.85c0,0.001,0,0.002,0,0.002"/>
      <line  fill="none" stroke="#FFFFFF" stroke-linecap="round" y1="40.995" stroke-width="0.576" x1="26.388" y2="40.995" x2="21.853"/>
     </g>
    </g>
    <g >
     <title >element:U$2</title>
     <g >
      <title >package:SFE-NEW-WEBLOGO</title>
     </g>
    </g>
    <g >
     <title >element:U$6</title>
     <g >
      <title >package:FIDUCIAL-1X2</title>
     </g>
    </g>
    <g >
     <title >element:U$7</title>
     <g >
      <title >package:FIDUCIAL-1X2</title>
     </g>
    </g>
    <g >
     <title >element:U1</title>
     <g >
      <title >package:SSOP28DB</title>
      <line  fill="none" stroke="#FFFFFF" stroke-linecap="round" y1="13.309" stroke-width="0.432" x1="17.659" y2="13.309" x2="47.14"/>
      <line  fill="none" stroke="#FFFFFF" stroke-linecap="round" y1="13.309" stroke-width="0.432" x1="47.14" y2="29.891" x2="47.14"/>
      <line  fill="none" stroke="#FFFFFF" stroke-linecap="round" y1="29.891" stroke-width="0.432" x1="47.14" y2="29.891" x2="17.659"/>
      <line  fill="none" stroke="#FFFFFF" stroke-linecap="round" y1="29.891" stroke-width="0.432" x1="17.659" y2="13.309" x2="17.659"/>
      <circle  fill="none" cx="20.424" cy="27.127" stroke="#FFFFFF" r="1.303" stroke-width="0.432"/>
     </g>
    </g>
    <g >
     <title >element:X2</title>
     <g >
      <title >package:USB-MINIB</title>
      <line  fill="none" stroke="#FFFFFF" stroke-linecap="round" y1="32.372" stroke-width="0.576" x1="64.885" y2="32.372" x2="58.932"/>
      <line  fill="none" stroke="#FFFFFF" stroke-linecap="round" y1="30.387" stroke-width="0.576" x1="51.846" y2="27.836" x2="51.846"/>
      <line  fill="none" stroke="#FFFFFF" stroke-linecap="round" y1="15.364" stroke-width="0.576" x1="51.846" y2="12.812" x2="51.846"/>
      <line  fill="none" stroke="#FFFFFF" stroke-linecap="round" y1="10.828" stroke-width="0.576" x1="58.932" y2="10.828" x2="64.885"/>
     </g>
    </g>
   </g>
   <rect  width="14.173" x="35.033" y="35.118" fill="#FFFFFF" height="6.804" fill-opacity="0.15"/>
   <rect  width="0.907" x="24.803" y="2.296" fill="#FFFFFF" height="2.608" fill-opacity="0.15"/>
   <rect  width="0.907" x="31.89" y="2.296" fill="#FFFFFF" height="2.608" fill-opacity="0.15"/>
   <rect  width="5.698" x="21.271" y="35.325" fill="#FFFFFF" height="5.67" fill-opacity="0.15"/>
   <rect  width="29.48" x="17.659" y="13.309" fill="#FFFFFF" height="16.583" fill-opacity="0.15"/>
   <rect  width="2.783" x="2.207" y="38.208" fill="none" height="2.783" id="connector6pin"/>
   <rect  width="2.783" x="2.207" y="31.008" fill="none" height="2.783" id="connector7pin"/>
   <rect  width="2.783" x="2.207" y="23.809" fill="none" height="2.783" id="connector8pin"/>
   <rect  width="2.783" x="2.207" y="16.608" fill="none" height="2.783" id="connector9pin"/>
   <rect  width="2.783" x="2.207" y="9.408" fill="none" height="2.783" id="connector10pin"/>
   <rect  width="2.783" x="2.207" y="2.208" fill="none" height="2.783" id="connector11pin"/>
  </g>
  <g  id="_x31_x06" transform="matrix(1, 0, 0, 1, -11.3318, 18.7007)">
   <g  transform="matrix(0, 1, -1, 0, 25.2, -18)">
    <rect  width="7.199" x="17.314" y="-11.332" fill="#404040" height="43.2" transform="matrix(2.578893e-06 1 -1 2.578893e-06 31.1819 -10.6452)"/>
    <rect  width="2.782" x="1.523" y="8.878" height="2.781" transform="matrix(2.578893e-06 1 -1 2.578893e-06 13.1829 7.3548)"/>
    <polygon  fill="#2A2A29" points="0.499,7.853 1.521,8.878 4.306,8.878 5.331,7.853 "/>
    <polygon  fill="#474747" points="5.331,7.853 4.306,8.881 4.306,11.662 5.331,12.685 "/>
    <polygon  fill="#595959" points="5.33,12.685 4.305,11.662 1.521,11.662 0.499,12.685 "/>
    <polygon  fill="#373737" points="0.497,12.685 1.521,11.66 1.521,8.878 0.497,7.853 "/>
    <rect  width="2.782" x="8.724" y="8.878" height="2.781" transform="matrix(2.578893e-06 1 -1 2.578893e-06 20.3838 0.1539)"/>
    <polygon  fill="#2A2A29" points="7.697,7.853 8.722,8.878 11.504,8.878 12.529,7.853 "/>
    <polygon  fill="#474747" points="12.529,7.853 11.504,8.881 11.504,11.662 12.529,12.685 "/>
    <polygon  fill="#595959" points="12.528,12.685 11.503,11.662 8.722,11.662 7.697,12.685 "/>
    <polygon  fill="#373737" points="7.695,12.685 8.722,11.66 8.722,8.878 7.695,7.853 "/>
    <rect  width="2.782" x="15.923" y="8.878" height="2.781" transform="matrix(2.578893e-06 1 -1 2.578893e-06 27.5827 -7.0451)"/>
    <polygon  fill="#2A2A29" points="14.897,7.853 15.921,8.878 18.706,8.878 19.73,7.853 "/>
    <polygon  fill="#474747" points="19.73,7.853 18.706,8.881 18.706,11.662 19.73,12.685 "/>
    <polygon  fill="#595959" points="19.729,12.685 18.705,11.662 15.921,11.662 14.897,12.685 "/>
    <polygon  fill="#373737" points="14.896,12.685 15.921,11.66 15.921,8.878 14.896,7.853 "/>
    <rect  width="2.782" x="23.124" y="8.879" height="2.78" transform="matrix(2.578893e-06 1 -1 2.578893e-06 34.7839 -14.2463)"/>
    <polygon  fill="#2A2A29" points="22.099,7.853 23.123,8.878 25.905,8.878 26.931,7.853 "/>
    <polygon  fill="#474747" points="26.931,7.853 25.905,8.881 25.905,11.662 26.931,12.685 "/>
    <polygon  fill="#595959" points="26.93,12.685 25.903,11.662 23.123,11.662 22.099,12.685 "/>
    <polygon  fill="#373737" points="22.096,12.685 23.123,11.66 23.123,8.878 22.096,7.853 "/>
    <rect  width="2.782" x="30.323" y="8.879" height="2.78" transform="matrix(2.578893e-06 1 -1 2.578893e-06 41.9831 -21.4455)"/>
    <polygon  fill="#2A2A29" points="29.299,7.853 30.321,8.878 33.105,8.878 34.131,7.853 "/>
    <polygon  fill="#474747" points="34.131,7.853 33.105,8.881 33.105,11.662 34.131,12.685 "/>
    <polygon  fill="#595959" points="34.129,12.685 33.104,11.662 30.321,11.662 29.299,12.685 "/>
    <polygon  fill="#373737" points="29.297,12.685 30.321,11.66 30.321,8.878 29.297,7.853 "/>
    <rect  width="2.782" x="37.523" y="8.878" height="2.781" transform="matrix(2.578893e-06 1 -1 2.578893e-06 49.1828 -28.6452)"/>
    <polygon  fill="#2A2A29" points="36.498,7.853 37.521,8.878 40.306,8.878 41.33,7.853 "/>
    <polygon  fill="#474747" points="41.33,7.853 40.306,8.881 40.306,11.662 41.33,12.685 "/>
    <polygon  fill="#595959" points="41.33,12.685 40.305,11.662 37.521,11.662 36.498,12.685 "/>
    <polygon  fill="#373737" points="36.496,12.685 37.521,11.66 37.521,8.878 36.496,7.853 "/>
   </g>
  </g>
  <g  id="usb-minib" transform="matrix(1, 0, 0, 1, 48.814, 4.58334)">
   <g  transform="matrix(-1, 0, 0, -1, 30.888, 34.056)">
    <g >
     <rect  width="6.254" x="21.797" y="1.216" fill="#8D8C8C" height="6.593"/>
     <rect  width="7.238" x="8.708" y="1.216" fill="#8D8C8C" height="6.593"/>
    </g>
    <g >
     <rect  width="6.254" x="21.797" y="26.249" fill="#8D8C8C" height="6.595"/>
     <rect  width="7.238" x="8.708" y="26.249" fill="#8D8C8C" height="6.595"/>
    </g>
    <g >
     <polygon  fill="#404040" points="25.464,21.231 26.55,20.405 26.55,26.674 27.505,26.674 27.505,7.324 26.55,7.324 26.55,13.65 25.464,12.822 25.464,6.352 2.839,6.352 2.839,27.7 25.464,27.7 "/>
    </g>
    <path  d="M16.515,12.482c0,0.155-0.127,0.271-0.281,0.255L5.739,11.641c-0.154-0.018-0.281-0.154-0.281-0.312V9.586c0-0.154,0.127-0.297,0.281-0.312l10.496-1.099c0.153-0.019,0.28,0.101,0.28,0.254v0.256c0,0.153-0.127,0.296-0.28,0.31l-9.542,0.83c-0.154,0.012-0.281,0.151-0.281,0.309v0.648c0,0.154,0.127,0.295,0.281,0.311l9.542,0.828c0.153,0.014,0.28,0.152,0.28,0.311V12.482z"/>
    <path  d="M16.515,25.624c0,0.152-0.127,0.271-0.281,0.255L5.738,24.779c-0.154-0.021-0.281-0.154-0.281-0.312v-1.742c0-0.155,0.127-0.297,0.281-0.312l10.497-1.099c0.153-0.019,0.28,0.1,0.28,0.254v0.257c0,0.155-0.127,0.295-0.28,0.312l-9.542,0.828c-0.154,0.014-0.281,0.147-0.281,0.311v0.646c0,0.151,0.127,0.297,0.281,0.312l9.542,0.825c0.153,0.019,0.28,0.146,0.28,0.312V25.624z"/>
    <g >
     <polygon  fill="none" points="6.418,22.987 6.418,24.204 7.246,24.275 7.246,22.923 "/>
     <polygon  fill="#939393" points="7.246,24.275 6.418,24.204 6.418,22.987 7.246,22.923 "/>
     <polygon  fill="#545454" points="7.246,24.275 7.594,24.307 7.594,22.884 7.246,22.923 "/>
    </g>
    <g >
     <polygon  fill="none" points="6.418,9.844 6.418,11.067 7.246,11.135 7.246,9.779 "/>
     <polygon  fill="#939393" points="7.246,11.135 6.418,11.067 6.418,9.844 7.246,9.779 "/>
     <polygon  fill="#545454" points="7.246,11.135 7.594,11.17 7.594,9.742 7.246,9.779 "/>
    </g>
    <rect  width="2.015" x="12.972" y="14.119" fill="#939393" height="5.555"/>
    <rect  width="1.114" x="14.986" y="14.119" fill="#545454" height="5.555"/>
    <path  d="M4.502,13.783c0,0.155,0.127,0.293,0.282,0.301l11.605,0.699c0.154,0.01,0.282,0.146,0.282,0.301v3.889c0,0.155-0.128,0.291-0.282,0.305l-11.605,0.69c-0.155,0.009-0.282,0.146-0.282,0.302v0.519c0,0.155,0.127,0.271,0.282,0.267l13.192-0.96c0.154-0.016,0.283-0.146,0.283-0.309v-5.519c0-0.155-0.129-0.295-0.283-0.31L4.783,13.004c-0.154-0.012-0.282,0.107-0.282,0.263L4.502,13.783L4.502,13.783z"/>
    <line  fill="none" y1="6.983" x1="24.868" y2="6.983" x2="3.151"/>
    <line  stroke-opacity="0.15" fill="none" stroke="#FFFFFF" stroke-linecap="round" y1="27.326" stroke-width="0.5" x1="24.868" y2="27.326" x2="3.151"/>
    <line  fill="none" y1="14.33" x1="26.438" y2="19.719" x2="26.438"/>
   </g>
  </g>
 </g>
</svg>
