<?xml version='1.0' encoding='utf-8'?>
<!DOCTYPE svg PUBLIC '-//W3C//DTD SVG 1.1//EN' 'http://www.w3.org/Graphics/SVG/1.1/DTD/svg11.dtd'>
<!-- Generator: Adobe Illustrator 15.0.1, SVG Export Plug-In . SVG Version: 6.00 Build 0)  -->
<svg xmlns="http://www.w3.org/2000/svg" width="1.08228in" xml:space="preserve" xmlns:xml="http://www.w3.org/XML/1998/namespace" x="0px" version="1.1" y="0px" height="0.6in" viewBox="0 0 77.924 43.2" id="Ebene_1" enable-background="new 0 0 77.924 43.2">
 <desc >Fritzing breadboard generated by brd2svg</desc>
 <g  id="breadboard">
  <g  id="icon">
   <path  fill="#C62717" d="M0,0h75.6v43.2H0V0 M59.924,27.836c-0.001,0.704,0.57,1.275,1.274,1.277c0.704,0,1.276-0.57,1.277-1.274c0-0.001,0-0.002,0-0.003c0.001-0.705-0.569-1.276-1.274-1.277c-0.704-0.001-1.276,0.569-1.277,1.273C59.924,27.834,59.924,27.834,59.924,27.836z M59.924,15.364c-0.001,0.705,0.57,1.276,1.274,1.277c0.704,0,1.276-0.57,1.277-1.274c0-0.001,0-0.002,0-0.003c0.001-0.705-0.569-1.276-1.274-1.277c-0.704-0.001-1.276,0.569-1.277,1.274C59.924,15.362,59.924,15.363,59.924,15.364z"/>
   <g >
    <title >layer 21</title>
    <g >
     <title >text:VCC</title>
     <g  transform="matrix(1, 0, 0, 1, 13.32, 20.88)">
      <g  transform="rotate(-90)">
       <text  fill="#FFFFFF" font-family="OCRA" transform="matrix(1 0 0 1 -3.662109e-04 -1.9838)" font-size="2.6726">VCC</text>
      </g>
     </g>
    </g>
    <g >
     <title >text:TXO</title>
     <g  transform="matrix(1, 0, 0, 1, 13.32, 28.08)">
      <g  transform="rotate(-90)">
       <text  fill="#FFFFFF" font-family="OCRA" transform="matrix(1 0 0 1 -5.798340e-04 -1.9838)" font-size="2.6726">TXO</text>
      </g>
     </g>
    </g>
    <g >
     <title >text:RXI</title>
     <g  transform="matrix(1, 0, 0, 1, 13.32, 35.28)">
      <g  transform="rotate(-90)">
       <text  fill="#FFFFFF" font-family="OCRA" transform="matrix(1 0 0 1 -7.629395e-04 -1.9838)" font-size="2.6726">RXI</text>
      </g>
     </g>
    </g>
    <g >
     <title >text:GND</title>
     <g  transform="matrix(1, 0, 0, 1, 13.32, 6.84)">
      <g  transform="rotate(-90)">
       <text  fill="#FFFFFF" font-family="OCRA" transform="matrix(1 0 0 1 -3.356934e-04 -1.9838)" font-size="2.6726">GND</text>
      </g>
     </g>
    </g>
    <g >
     <title >text:FTDI Basic</title>
     <text  fill="#FFFFFF" font-family="OCRA" transform="matrix(1 0 0 1 46.8 4.3208)" font-size="3.3408">FTDI Basic</text>
    </g>
    <g >
     <title >text:DTR</title>
     <g  transform="matrix(1, 0, 0, 1, 13.32, 42.48)">
      <g  transform="rotate(-90)">
       <text  fill="#FFFFFF" font-family="OCRA" transform="matrix(1 0 0 1 -9.460449e-04 -1.9838)" font-size="2.6726">DTR</text>
      </g>
     </g>
    </g>
    <g >
     <title >text:RX</title>
     <text  fill="#FFFFFF" font-family="OCRA" transform="matrix(1 0 0 1 29.8801 8.6401)" font-size="3.3408">RX</text>
    </g>
    <g >
     <title >text:TX</title>
     <text  fill="#FFFFFF" font-family="OCRA" transform="matrix(1 0 0 1 22.6804 8.6401)" font-size="3.3408">TX</text>
    </g>
    <g >
     <title >text:CTS</title>
     <g  transform="matrix(1, 0, 0, 1, 13.32, 13.68)">
      <g  transform="rotate(-90)">
       <text  fill="#FFFFFF" font-family="OCRA" transform="matrix(1 0 0 1 -1.831055e-04 -1.9838)" font-size="2.6726">CTS</text>
      </g>
     </g>
    </g>
    <g >
     <title >text:BLK</title>
     <g  transform="matrix(1, 0, 0, 1, 3.6, 6.84)">
      <g  transform="rotate(-90)">
       <text  fill="#FFFFFF" font-family="OCRA" transform="matrix(1 0 0 1 -3.356934e-04 12.3329)" font-size="2.6726">BLK</text>
      </g>
     </g>
    </g>
    <g >
     <title >text:GRN</title>
     <g  transform="matrix(1, 0, 0, 1, 3.6, 42.48)">
      <g  transform="rotate(-90)">
       <text  fill="#FFFFFF" font-family="OCRA" transform="matrix(1 0 0 1 -9.460449e-04 12.3329)" font-size="2.6726">GRN</text>
      </g>
     </g>
    </g>
    <g >
     <title >element:C1</title>
     <g >
      <title >package:C0402</title>
     </g>
    </g>
    <g >
     <title >element:C2</title>
     <g >
      <title >package:C0402</title>
     </g>
    </g>
    <g >
     <title >element:C5</title>
     <g >
      <title >package:EIA3216</title>
      <line  fill="none" stroke="#FFFFFF" stroke-linecap="round" y1="41.922" stroke-width="0.576" x1="39.285" y2="41.922" x2="35.033"/>
      <line  fill="none" stroke="#FFFFFF" stroke-linecap="round" y1="41.922" stroke-width="0.576" x1="35.033" y2="35.118" x2="35.033"/>
      <line  fill="none" stroke="#FFFFFF" stroke-linecap="round" y1="35.118" stroke-width="0.576" x1="35.033" y2="35.118" x2="39.285"/>
      <line  fill="none" stroke="#FFFFFF" stroke-linecap="round" y1="41.922" stroke-width="0.576" x1="44.954" y2="41.922" x2="48.073"/>
      <line  fill="none" stroke="#FFFFFF" stroke-linecap="round" y1="41.922" stroke-width="0.576" x1="48.073" y2="40.788" x2="49.206"/>
      <line  fill="none" stroke="#FFFFFF" stroke-linecap="round" y1="40.788" stroke-width="0.576" x1="49.206" y2="36.252" x2="49.206"/>
      <line  fill="none" stroke="#FFFFFF" stroke-linecap="round" y1="36.252" stroke-width="0.576" x1="49.206" y2="35.118" x2="48.073"/>
      <line  fill="none" stroke="#FFFFFF" stroke-linecap="round" y1="35.118" stroke-width="0.576" x1="48.073" y2="35.118" x2="44.954"/>
     </g>
    </g>
    <g >
     <title >element:JP1</title>
     <g >
      <title >package:1X06</title>
     </g>
    </g>
    <g >
     <title >element:LED1</title>
     <g >
      <title >package:LED-0603</title>
      <line  fill="none" stroke="#FFFFFF" stroke-linecap="round" y1="4.904" stroke-width="0.576" x1="25.682" y2="3.6" x2="25.682"/>
      <line  fill="none" stroke="#FFFFFF" stroke-linecap="round" y1="2.296" stroke-width="0.576" x1="25.682" y2="3.6" x2="25.682"/>
      <line  fill="none" stroke="#FFFFFF" stroke-linecap="round" y1="3.6" stroke-width="0.576" x1="25.682" y2="4.479" x2="24.803"/>
      <line  fill="none" stroke="#FFFFFF" stroke-linecap="round" y1="3.6" stroke-width="0.576" x1="25.71" y2="2.693" x2="24.803"/>
      <line  fill="none" stroke="#FFFFFF" stroke-linecap="round" y1="2.693" stroke-width="0.576" x1="24.803" y2="4.479" x2="24.803"/>
     </g>
    </g>
    <g >
     <title >element:LED2</title>
     <g >
      <title >package:LED-0603</title>
      <line  fill="none" stroke="#FFFFFF" stroke-linecap="round" y1="2.296" stroke-width="0.576" x1="31.918" y2="3.6" x2="31.918"/>
      <line  fill="none" stroke="#FFFFFF" stroke-linecap="round" y1="4.904" stroke-width="0.576" x1="31.918" y2="3.6" x2="31.918"/>
      <line  fill="none" stroke="#FFFFFF" stroke-linecap="round" y1="3.6" stroke-width="0.576" x1="31.918" y2="2.721" x2="32.797"/>
      <line  fill="none" stroke="#FFFFFF" stroke-linecap="round" y1="3.6" stroke-width="0.576" x1="31.89" y2="4.507" x2="32.797"/>
      <line  fill="none" stroke="#FFFFFF" stroke-linecap="round" y1="4.507" stroke-width="0.576" x1="32.797" y2="2.721" x2="32.797"/>
     </g>
    </g>
    <g >
     <title >element:R1</title>
     <g >
      <title >package:C0402</title>
     </g>
    </g>
    <g >
     <title >element:R2</title>
     <g >
      <title >package:C0402</title>
     </g>
    </g>
    <g >
     <title >element:SJ1</title>
     <g >
      <title >package:SJ_2S-NOTRACE</title>
      <line  fill="none" stroke="#FFFFFF" stroke-linecap="round" y1="35.325" stroke-width="0.576" x1="21.853" y2="35.325" x2="26.388"/>
      <path  fill="none" stroke="#FFFFFF" stroke-width="0.576" d="M21.285,40.144c-0.078,0.392,0.175,0.772,0.566,0.851c0,0,0,0,0.001,0"/>
      <path  fill="none" stroke="#FFFFFF" stroke-width="0.576" d="M26.388,40.995c0.391-0.078,0.645-0.459,0.566-0.85c0,0,0,0,0-0.001"/>
      <path  fill="none" stroke="#FFFFFF" stroke-width="0.576" d="M26.954,36.176c0.078-0.392-0.175-0.772-0.566-0.852l0,0"/>
      <path  fill="none" stroke="#FFFFFF" stroke-width="0.576" d="M21.853,35.325c-0.392,0.078-0.646,0.459-0.567,0.85c0,0.001,0,0.002,0,0.002"/>
      <line  fill="none" stroke="#FFFFFF" stroke-linecap="round" y1="40.995" stroke-width="0.576" x1="26.388" y2="40.995" x2="21.853"/>
     </g>
    </g>
    <g >
     <title >element:U$2</title>
     <g >
      <title >package:SFE-NEW-WEBLOGO</title>
     </g>
    </g>
    <g >
     <title >element:U$6</title>
     <g >
      <title >package:FIDUCIAL-1X2</title>
     </g>
    </g>
    <g >
     <title >element:U$7</title>
     <g >
      <title >package:FIDUCIAL-1X2</title>
     </g>
    </g>
    <g >
     <title >element:U1</title>
     <g >
      <title >package:SSOP28DB</title>
      <line  fill="none" stroke="#FFFFFF" stroke-linecap="round" y1="13.309" stroke-width="0.432" x1="17.659" y2="13.309" x2="47.14"/>
      <line  fill="none" stroke="#FFFFFF" stroke-linecap="round" y1="13.309" stroke-width="0.432" x1="47.14" y2="29.891" x2="47.14"/>
      <line  fill="none" stroke="#FFFFFF" stroke-linecap="round" y1="29.891" stroke-width="0.432" x1="47.14" y2="29.891" x2="17.659"/>
      <line  fill="none" stroke="#FFFFFF" stroke-linecap="round" y1="29.891" stroke-width="0.432" x1="17.659" y2="13.309" x2="17.659"/>
      <circle  fill="none" cx="20.424" cy="27.127" stroke="#FFFFFF" r="1.303" stroke-width="0.432"/>
     </g>
    </g>
    <g >
     <title >element:X2</title>
     <g >
      <title >package:USB-MINIB</title>
      <line  fill="none" stroke="#FFFFFF" stroke-linecap="round" y1="32.372" stroke-width="0.576" x1="64.885" y2="32.372" x2="58.932"/>
      <line  fill="none" stroke="#FFFFFF" stroke-linecap="round" y1="30.387" stroke-width="0.576" x1="51.846" y2="27.836" x2="51.846"/>
      <line  fill="none" stroke="#FFFFFF" stroke-linecap="round" y1="15.364" stroke-width="0.576" x1="51.846" y2="12.812" x2="51.846"/>
      <line  fill="none" stroke="#FFFFFF" stroke-linecap="round" y1="10.828" stroke-width="0.576" x1="58.932" y2="10.828" x2="64.885"/>
     </g>
    </g>
   </g>
   <rect  width="14.173" x="35.033" y="35.118" fill="#FFFFFF" height="6.804" fill-opacity="0.15"/>
   <rect  width="0.907" x="24.803" y="2.296" fill="#FFFFFF" height="2.608" fill-opacity="0.15"/>
   <rect  width="0.907" x="31.89" y="2.296" fill="#FFFFFF" height="2.608" fill-opacity="0.15"/>
   <rect  width="5.698" x="21.271" y="35.325" fill="#FFFFFF" height="5.67" fill-opacity="0.15"/>
   <rect  width="29.48" x="17.659" y="13.309" fill="#FFFFFF" height="16.583" fill-opacity="0.15"/>
   <rect  width="2.78" x="2.21" y="38.209" fill="none" height="2.781" id="connector6pad"/>
   <rect  width="2.78" x="2.21" y="31.009" fill="none" height="2.781" id="connector7pad"/>
   <rect  width="2.78" x="2.21" y="23.81" fill="none" height="2.781" id="connector8pad"/>
   <rect  width="2.78" x="2.21" y="16.61" fill="none" height="2.78" id="connector9pad"/>
   <rect  width="2.78" x="2.21" y="9.41" fill="none" height="2.78" id="connector10pad"/>
   <rect  width="2.78" x="2.21" y="2.209" fill="none" height="2.781" id="connector11pad"/>
  </g>
  <g  id="usb-minib" transform="matrix(1, 0, 0, 1, 48.814, 4.58334)">
   <g  transform="matrix(-1, 0, 0, -1, 30.888, 34.056)">
    <g >
     <rect  width="6.254" x="21.797" y="1.216" fill="#8D8C8C" height="6.593"/>
     <rect  width="7.238" x="8.708" y="1.216" fill="#8D8C8C" height="6.593"/>
    </g>
    <g >
     <rect  width="6.254" x="21.797" y="26.249" fill="#8D8C8C" height="6.595"/>
     <rect  width="7.238" x="8.708" y="26.249" fill="#8D8C8C" height="6.595"/>
    </g>
    <g >
     <polygon  fill="#404040" points="25.464,21.231 26.55,20.405 26.55,26.674 27.505,26.674 27.505,7.324 26.55,7.324 26.55,13.65 25.464,12.822 25.464,6.352 2.839,6.352 2.839,27.7 25.464,27.7 "/>
    </g>
    <path  d="M16.515,12.482c0,0.155-0.127,0.271-0.281,0.255L5.739,11.641c-0.154-0.018-0.281-0.154-0.281-0.312V9.586c0-0.154,0.127-0.297,0.281-0.312l10.496-1.099c0.153-0.019,0.28,0.101,0.28,0.254v0.256c0,0.153-0.127,0.296-0.28,0.31l-9.542,0.83c-0.154,0.012-0.281,0.151-0.281,0.309v0.648c0,0.154,0.127,0.295,0.281,0.311l9.542,0.828c0.153,0.014,0.28,0.152,0.28,0.311V12.482z"/>
    <path  d="M16.515,25.624c0,0.152-0.127,0.271-0.281,0.255L5.738,24.779c-0.154-0.021-0.281-0.154-0.281-0.312v-1.742c0-0.155,0.127-0.297,0.281-0.312l10.497-1.099c0.153-0.019,0.28,0.1,0.28,0.254v0.257c0,0.155-0.127,0.295-0.28,0.312l-9.542,0.828c-0.154,0.014-0.281,0.147-0.281,0.311v0.646c0,0.151,0.127,0.297,0.281,0.312l9.542,0.825c0.153,0.019,0.28,0.146,0.28,0.312V25.624z"/>
    <g >
     <polygon  fill="none" points="6.418,22.987 6.418,24.204 7.246,24.275 7.246,22.923 "/>
     <polygon  fill="#939393" points="7.246,24.275 6.418,24.204 6.418,22.987 7.246,22.923 "/>
     <polygon  fill="#545454" points="7.246,24.275 7.594,24.307 7.594,22.884 7.246,22.923 "/>
    </g>
    <g >
     <polygon  fill="none" points="6.418,9.844 6.418,11.067 7.246,11.135 7.246,9.779 "/>
     <polygon  fill="#939393" points="7.246,11.135 6.418,11.067 6.418,9.844 7.246,9.779 "/>
     <polygon  fill="#545454" points="7.246,11.135 7.594,11.17 7.594,9.742 7.246,9.779 "/>
    </g>
    <rect  width="2.015" x="12.972" y="14.119" fill="#939393" height="5.555"/>
    <rect  width="1.114" x="14.986" y="14.119" fill="#545454" height="5.555"/>
    <path  d="M4.502,13.783c0,0.155,0.127,0.293,0.282,0.301l11.605,0.699c0.154,0.01,0.282,0.146,0.282,0.301v3.889c0,0.155-0.128,0.291-0.282,0.305l-11.605,0.69c-0.155,0.009-0.282,0.146-0.282,0.302v0.519c0,0.155,0.127,0.271,0.282,0.267l13.192-0.96c0.154-0.016,0.283-0.146,0.283-0.309v-5.519c0-0.155-0.129-0.295-0.283-0.31L4.783,13.004c-0.154-0.012-0.282,0.107-0.282,0.263L4.502,13.783L4.502,13.783z"/>
    <line  fill="none" y1="6.983" x1="24.868" y2="6.983" x2="3.151"/>
    <line  stroke-opacity="0.15" fill="none" stroke="#FFFFFF" stroke-linecap="round" y1="27.326" stroke-width="0.5" x1="24.868" y2="27.326" x2="3.151"/>
    <line  fill="none" y1="14.33" x1="26.438" y2="19.719" x2="26.438"/>
   </g>
  </g>
  <g >
   <rect  width="7.199" x="0" fill="#404040" height="43.2"/>
   <rect  width="2.781" x="2.209" y="2.21" height="2.781"/>
   <polygon  fill="#2A2A29" points="6.016,1.185 4.99,2.208 4.99,4.991 6.016,6.017 "/>
   <polygon  fill="#474747" points="6.016,6.017 4.988,4.991 2.207,4.991 1.184,6.017 "/>
   <polygon  fill="#595959" points="1.184,6.016 2.207,4.99 2.207,2.208 1.184,1.185 "/>
   <polygon  fill="#373737" points="1.184,1.183 2.209,2.208 4.99,2.208 6.016,1.183 "/>
   <rect  width="2.781" x="2.209" y="9.41" height="2.781"/>
   <polygon  fill="#2A2A29" points="6.016,8.384 4.99,9.408 4.99,12.191 6.016,13.216 "/>
   <polygon  fill="#474747" points="6.016,13.216 4.988,12.191 2.207,12.191 1.184,13.216 "/>
   <polygon  fill="#595959" points="1.184,13.215 2.207,12.19 2.207,9.408 1.184,8.384 "/>
   <polygon  fill="#373737" points="1.184,8.382 2.209,9.408 4.99,9.408 6.016,8.382 "/>
   <rect  width="2.781" x="2.209" y="16.61" height="2.781"/>
   <polygon  fill="#2A2A29" points="6.016,15.584 4.99,16.608 4.99,19.392 6.016,20.416 "/>
   <polygon  fill="#474747" points="6.016,20.416 4.988,19.392 2.207,19.392 1.184,20.416 "/>
   <polygon  fill="#595959" points="1.184,20.415 2.207,19.391 2.207,16.608 1.184,15.584 "/>
   <polygon  fill="#373737" points="1.184,15.582 2.209,16.608 4.99,16.608 6.016,15.582 "/>
   <rect  width="2.781" x="2.209" y="23.809" height="2.781"/>
   <polygon  fill="#2A2A29" points="6.016,22.784 4.99,23.807 4.99,26.59 6.016,27.616 "/>
   <polygon  fill="#474747" points="6.016,27.616 4.988,26.59 2.207,26.59 1.184,27.616 "/>
   <polygon  fill="#595959" points="1.184,27.616 2.207,26.59 2.207,23.807 1.184,22.784 "/>
   <polygon  fill="#373737" points="1.184,22.782 2.209,23.807 4.99,23.807 6.016,22.782 "/>
   <rect  width="2.781" x="2.209" y="31.01" height="2.781"/>
   <polygon  fill="#2A2A29" points="6.016,29.983 4.99,31.008 4.99,33.792 6.016,34.815 "/>
   <polygon  fill="#474747" points="6.016,34.815 4.988,33.792 2.207,33.792 1.184,34.815 "/>
   <polygon  fill="#595959" points="1.184,34.815 2.207,33.79 2.207,31.008 1.184,29.983 "/>
   <polygon  fill="#373737" points="1.184,29.981 2.209,31.008 4.99,31.008 6.016,29.981 "/>
   <rect  width="2.781" x="2.209" y="38.209" height="2.781"/>
   <polygon  fill="#2A2A29" points="6.016,37.184 4.99,38.208 4.99,40.991 6.016,42.016 "/>
   <polygon  fill="#474747" points="6.016,42.016 4.988,40.991 2.207,40.991 1.184,42.016 "/>
   <polygon  fill="#595959" points="1.184,42.014 2.207,40.991 2.207,38.208 1.184,37.184 "/>
   <polygon  fill="#373737" points="1.184,37.182 2.209,38.208 4.99,38.208 6.016,37.182 "/>
  </g>
 </g>
</svg>
