<?xml version='1.0' encoding='UTF-8' standalone='no'?>
<!-- Created with Fritzing (http://www.fritzing.org/) -->
<svg xmlns="http://www.w3.org/2000/svg" width="0.661417in" x="0in" version="1.2" y="0in" height="0.661417in" viewBox="0 0 47.622 47.622" baseProfile="tiny">
 <desc >Fritzing breadboard generated by brd2svg</desc>
 <g  id="breadboard" stroke-width="0">
  <g  id="icon" stroke-width="0">
   <path  fill="#C62717" stroke="none" stroke-width="0.576" d="M0,23.811a23.811,23.811,0,1,0,47.622,0,23.811,23.811,0,1,0,-47.622,0zM19.5591,23.811a4.25197,4.25197,0,1,1,8.50392,0,4.25197,4.25197,0,1,1,-8.50392,0zM12.875,14.315a1.44,1.44,0,1,1,2.88,0,1.44,1.44,0,1,1,-2.88,0zM12.875,33.3071a1.44,1.44,0,1,1,2.88,0,1.44,1.44,0,1,1,-2.88,0zM31.8671,14.315a1.44,1.44,0,1,1,2.88,0,1.44,1.44,0,1,1,-2.88,0zM31.8671,33.3071a1.44,1.44,0,1,1,2.88,0,1.44,1.44,0,1,1,-2.88,0zM8.90647,23.811a1.44,1.44,0,1,1,2.88,0,1.44,1.44,0,1,1,-2.88,0zM35.8356,23.811a1.44,1.44,0,1,1,2.88,0,1.44,1.44,0,1,1,-2.88,0zM25.971,5.81103a1.44,1.44,0,1,1,2.88,0,1.44,1.44,0,1,1,-2.88,0zM18.771,5.81103a1.44,1.44,0,1,1,2.88,0,1.44,1.44,0,1,1,-2.88,0zM18.771,41.811a1.44,1.44,0,1,1,2.88,0,1.44,1.44,0,1,1,-2.88,0zM25.971,41.811a1.44,1.44,0,1,1,2.88,0,1.44,1.44,0,1,1,-2.88,0z"/>
   <g  stroke-width="0">
    <title >layer 21</title>
    <g  stroke-width="0">
     <title >element:U$1</title>
     <g  stroke-width="0">
      <title >package:SFE-LOGO-FLAME</title>
     </g>
    </g>
    <g  stroke-width="0">
     <title >element:U$2</title>
     <g  stroke-width="0">
      <title >package:SFE-LOGO-FLAME</title>
     </g>
    </g>
    <g  stroke-width="0">
     <title >element:U1</title>
     <g  stroke-width="0">
      <title >package:MQ-3</title>
      <circle  fill="none" cx="23.811" cy="23.811" stroke="white" r="23.811" stroke-width="0.283465"/>
     </g>
    </g>
    <g  stroke-width="0">
     <title >element:U2</title>
     <g  stroke-width="0">
      <title >package:1X02</title>
     </g>
    </g>
    <g  stroke-width="0">
     <title >element:U3</title>
     <g  stroke-width="0">
      <title >package:1X02</title>
     </g>
    </g>
   </g>
   <g  stroke-width="0">
    <title >layer 22</title>
    <g  stroke-width="0">
     <title >text:GND</title>
     <g  stroke-width="0" transform="matrix(1, 0, 0, 1, 30.147, 37.491)">
      <g  stroke-width="0" transform="rotate(-90)">
       <text  x="0" y="0" font-family="OCRA" fill="white" text-anchor="start" stroke="none" stroke-width="0" font-size="4.176">GND</text>
      </g>
     </g>
    </g>
    <g  stroke-width="0">
     <title >text:H1</title>
     <g  stroke-width="0" transform="matrix(1, 0, 0, 1, 29.571, 9.41105)">
      <g  stroke-width="0" transform="rotate(-90)">
       <text  x="0" y="0" font-family="OCRA" fill="white" text-anchor="end" stroke="none" stroke-width="0" font-size="4.176">H1</text>
      </g>
     </g>
    </g>
    <g  stroke-width="0">
     <title >text:A1</title>
     <g  stroke-width="0" transform="matrix(1, 0, 0, 1, 22.371, 9.41105)">
      <g  stroke-width="0" transform="rotate(-90)">
       <text  x="0" y="0" font-family="OCRA" fill="white" text-anchor="end" stroke="none" stroke-width="0" font-size="4.176">A1</text>
      </g>
     </g>
    </g>
    <g  stroke-width="0">
     <title >text:B1</title>
     <g  stroke-width="0" transform="matrix(1, 0, 0, 1, 22.947, 37.491)">
      <g  stroke-width="0" transform="rotate(-90)">
       <text  x="0" y="0" font-family="OCRA" fill="white" text-anchor="start" stroke="none" stroke-width="0" font-size="4.176">B1</text>
      </g>
     </g>
    </g>
    <g  stroke-width="0">
     <title >text:Sensor</title>
     <g  stroke-width="0" transform="matrix(1, 0, 0, 1, 7.25105, 13.731)">
      <g  stroke-width="0" transform="rotate(-90)">
       <text  x="0" y="0" font-family="OCRA" fill="white" text-anchor="end" stroke="none" stroke-width="0" font-size="4.176">Sensor</text>
      </g>
     </g>
    </g>
    <g  stroke-width="0">
     <title >text:Gas</title>
     <g  stroke-width="0" transform="matrix(1, 0, 0, 1, 18.051, 18.771)">
      <g  stroke-width="0" transform="rotate(-90)">
       <text  x="0" y="0" font-family="OCRA" fill="white" text-anchor="end" stroke="none" stroke-width="0" font-size="4.176">Gas</text>
      </g>
     </g>
    </g>
    <g  stroke-width="0">
     <title >element:U$1</title>
     <g  stroke-width="0">
      <title >package:SFE-LOGO-FLAME</title>
      <g  stroke-width="0">
       <title >polygon</title>
       <path  fill="none" stroke="white" stroke-linecap="round" stroke-width="0.072" d="M41.4294,17.2228L41.451,17.3596M41.451,17.3596L41.472,17.6261M41.472,17.6261L41.451,17.8926M41.451,17.8926L41.3988,18.0907M41.3988,18.0907L41.3078,18.2744M41.3078,18.2744L41.182,18.4362M41.182,18.4362L41.0261,18.5692M41.0261,18.5692L40.8186,18.6828M40.8186,18.6828L40.5922,18.7512M40.5922,18.7512L40.3566,18.7708M40.3566,18.7708L36.0581,18.7708M36.0581,18.7708L37.6134,17.3886M37.6134,17.3886L37.8388,17.1426M37.8388,17.1426L38.0094,16.8556M38.0094,16.8556L38.0478,16.7502M38.0478,16.7502L38.067,16.6396M38.067,16.6396L38.067,15.9916M38.067,15.9916L38.1022,15.6053M38.1022,15.6053L38.2065,15.2314M38.2065,15.2314L38.3766,14.8828M38.3766,14.8828L38.6081,14.5548M38.6081,14.5548L38.8837,14.2623M38.8837,14.2623L39.1974,14.0116M39.1974,14.0116L39.674,13.7432M39.674,13.7432L40.191,13.5652M40.191,13.5652L40.7316,13.4836M40.7316,13.4836L41.2781,13.5006M41.2781,13.5006L41.5729,13.5593M41.5729,13.5593L41.8558,13.6607M41.8558,13.6607L42.1206,13.8028M42.1206,13.8028L42.4428,14.0599M42.4428,14.0599L42.7039,14.3788M42.7039,14.3788L42.4519,14.3788M42.4519,14.3788L42.4108,14.3844M42.4108,14.3844L42.3726,14.4006M42.3726,14.4006L42.2685,14.4847M42.2685,14.4847L42.1926,14.5948M42.1926,14.5948L42.171,14.6526M42.171,14.6526L42.1535,14.8147M42.1535,14.8147L42.1832,14.9751M42.1832,14.9751L42.2574,15.1206M42.2574,15.1206L42.4446,15.3796M42.4446,15.3796L42.5478,15.4996M42.5478,15.4996L42.6679,15.6028M42.6679,15.6028L42.8026,15.6858M42.8026,15.6858L42.9486,15.7468M42.9486,15.7468L43.0412,15.7652M43.0412,15.7652L43.1359,15.7612M43.1359,15.7612L43.2919,15.7141M43.2919,15.7141L43.4305,15.6282M43.4305,15.6282L43.5416,15.5092M43.5416,15.5092L43.6181,15.3652M43.6181,15.3652L43.6589,15.2201M43.6589,15.2201L43.6759,15.0701M43.6759,15.0701L43.6759,14.8972M43.6759,14.8972L43.6759,14.8974M43.6759,14.8974L43.683,14.9046M43.683,14.9046L43.7788,15.0278M43.7788,15.0278L43.8414,15.1708M43.8414,15.1708L43.8846,15.2716M43.8846,15.2716L43.9134,15.3366M43.9134,15.3366L43.9756,15.5855M43.9756,15.5855L43.9999,15.8406M43.9999,15.8406L43.9812,16.0869M43.9812,16.0869L43.9155,16.325M43.9155,16.325L43.8054,16.5461M43.8054,16.5461L43.6468,16.7664M43.6468,16.7664L43.4599,16.9636M43.4599,16.9636L43.2887,17.0858M43.2887,17.0858L43.0926,17.1615M43.0926,17.1615L42.8836,17.1862M42.8836,17.1862L42.6753,17.1578M42.6753,17.1578L42.4806,17.0788M42.4806,17.0788L41.982,16.7425M41.982,16.7425L41.5446,16.3301M41.5446,16.3301L41.417,16.2215M41.417,16.2215L41.2659,16.1495M41.2659,16.1495L41.1015,16.1189M41.1015,16.1189L40.9345,16.132M40.9345,16.132L40.7767,16.1875M40.7767,16.1875L40.6386,16.2822M40.6386,16.2822L40.5294,16.4092M40.5294,16.4092L40.4433,16.5691M40.4433,16.5691L40.3852,16.7412M40.3852,16.7412L40.3566,16.9206M40.3566,16.9206L40.3671,17.1303M40.3671,17.1303L40.4283,17.331M40.4283,17.331L40.5366,17.5108M40.5366,17.5108L40.6369,17.606M40.6369,17.606L40.7599,17.6692M40.7599,17.6692L40.8861,17.6972M40.8861,17.6972L41.0153,17.6972M41.0153,17.6972L41.1414,17.6692M41.1414,17.6692L41.19,17.6437M41.19,17.6437L41.2279,17.6046M41.2279,17.6046L41.4006,17.3668M41.4006,17.3668L41.4244,17.3223M41.4244,17.3223L41.4343,17.2729M41.4343,17.2729L41.4294,17.2228"/>
      </g>
     </g>
    </g>
    <g  stroke-width="0">
     <title >element:U$2</title>
     <g  stroke-width="0">
      <title >package:SFE-LOGO-FLAME</title>
      <g  stroke-width="0">
       <title >polygon</title>
       <path  fill="none" stroke="white" stroke-linecap="round" stroke-width="0.072" d="M38.5926,28.9593L38.571,28.8224M38.571,28.8224L38.55,28.5559M38.55,28.5559L38.571,28.2894M38.571,28.2894L38.6232,28.0913M38.6232,28.0913L38.7142,27.9076M38.7142,27.9076L38.84,27.7458M38.84,27.7458L38.9959,27.6129M38.9959,27.6129L39.2034,27.4992M39.2034,27.4992L39.4299,27.4308M39.4299,27.4308L39.6654,27.4113M39.6654,27.4113L43.9639,27.4113M43.9639,27.4113L42.4086,28.7934M42.4086,28.7934L42.1832,29.0395M42.1832,29.0395L42.0126,29.3264M42.0126,29.3264L41.9743,29.4319M41.9743,29.4319L41.955,29.5424M41.955,29.5424L41.955,30.1904M41.955,30.1904L41.9198,30.5767M41.9198,30.5767L41.8156,30.9506M41.8156,30.9506L41.6454,31.2993M41.6454,31.2993L41.4139,31.6273M41.4139,31.6273L41.1384,31.9198M41.1384,31.9198L40.8246,32.1704M40.8246,32.1704L40.3481,32.4388M40.3481,32.4388L39.831,32.6169M39.831,32.6169L39.2905,32.6985M39.2905,32.6985L38.7439,32.6814M38.7439,32.6814L38.4492,32.6228M38.4492,32.6228L38.1663,32.5213M38.1663,32.5213L37.9014,32.3793M37.9014,32.3793L37.5792,32.1222M37.5792,32.1222L37.3181,31.8033M37.3181,31.8033L37.5701,31.8033M37.5701,31.8033L37.6112,31.7976M37.6112,31.7976L37.6494,31.7814M37.6494,31.7814L37.7535,31.6973M37.7535,31.6973L37.8294,31.5873M37.8294,31.5873L37.851,31.5294M37.851,31.5294L37.8686,31.3673M37.8686,31.3673L37.8388,31.2069M37.8388,31.2069L37.7646,31.0614M37.7646,31.0614L37.5774,30.8024M37.5774,30.8024L37.4743,30.6825M37.4743,30.6825L37.3541,30.5793M37.3541,30.5793L37.2195,30.4962M37.2195,30.4962L37.0734,30.4353M37.0734,30.4353L36.9808,30.4169M36.9808,30.4169L36.8861,30.4209M36.8861,30.4209L36.7302,30.4679M36.7302,30.4679L36.5916,30.5538M36.5916,30.5538L36.4805,30.6729M36.4805,30.6729L36.4039,30.8169M36.4039,30.8169L36.3631,30.962M36.3631,30.962L36.3461,31.1119M36.3461,31.1119L36.3461,31.2849M36.3461,31.2849L36.3461,31.2846M36.3461,31.2846L36.339,31.2774M36.339,31.2774L36.2432,31.1542M36.2432,31.1542L36.1806,31.0113M36.1806,31.0113L36.1374,30.9104M36.1374,30.9104L36.1086,30.8454M36.1086,30.8454L36.0465,30.5966M36.0465,30.5966L36.0221,30.3414M36.0221,30.3414L36.0408,30.0951M36.0408,30.0951L36.1066,29.857M36.1066,29.857L36.2166,29.6359M36.2166,29.6359L36.3753,29.4157M36.3753,29.4157L36.5621,29.2184M36.5621,29.2184L36.7333,29.0962M36.7333,29.0962L36.9294,29.0205M36.9294,29.0205L37.1384,28.9958M37.1384,28.9958L37.3468,29.0242M37.3468,29.0242L37.5414,29.1033M37.5414,29.1033L38.0401,29.4395M38.0401,29.4395L38.4774,29.8519M38.4774,29.8519L38.605,29.9605M38.605,29.9605L38.7562,30.0325M38.7562,30.0325L38.9205,30.0631M38.9205,30.0631L39.0875,30.0501M39.0875,30.0501L39.2454,29.9946M39.2454,29.9946L39.3834,29.8999M39.3834,29.8999L39.4926,29.7729M39.4926,29.7729L39.5788,29.613M39.5788,29.613L39.6369,29.4409M39.6369,29.4409L39.6654,29.2614M39.6654,29.2614L39.655,29.0517M39.655,29.0517L39.5937,28.851M39.5937,28.851L39.4854,28.6713M39.4854,28.6713L39.3852,28.5761M39.3852,28.5761L39.2621,28.5129M39.2621,28.5129L39.136,28.4848M39.136,28.4848L39.0067,28.4848M39.0067,28.4848L38.8806,28.5129M38.8806,28.5129L38.8321,28.5384M38.8321,28.5384L38.7941,28.5774M38.7941,28.5774L38.6214,28.8153M38.6214,28.8153L38.5977,28.8598M38.5977,28.8598L38.5878,28.9092M38.5878,28.9092L38.5926,28.9593"/>
      </g>
     </g>
    </g>
    <g  stroke-width="0">
     <title >element:U1</title>
     <g  stroke-width="0">
      <title >package:MQ-3</title>
     </g>
    </g>
    <g  stroke-width="0">
     <title >element:U2</title>
     <g  stroke-width="0">
      <title >package:1X02</title>
      <line  stroke="white" stroke-linecap="round" y1="2.21103" x1="29.211" y2="2.21103" stroke-width="0.576" x2="25.611"/>
      <line  stroke="white" stroke-linecap="round" y1="2.21103" x1="25.611" y2="4.01103" stroke-width="0.576" x2="23.811"/>
      <line  stroke="white" stroke-linecap="round" y1="7.61105" x1="23.811" y2="9.41105" stroke-width="0.576" x2="25.611"/>
      <line  stroke="white" stroke-linecap="round" y1="4.01103" x1="23.811" y2="2.21103" stroke-width="0.576" x2="22.011"/>
      <line  stroke="white" stroke-linecap="round" y1="2.21103" x1="22.011" y2="2.21103" stroke-width="0.576" x2="18.411"/>
      <line  stroke="white" stroke-linecap="round" y1="2.21103" x1="18.411" y2="4.01103" stroke-width="0.576" x2="16.611"/>
      <line  stroke="white" stroke-linecap="round" y1="7.61105" x1="16.611" y2="9.41105" stroke-width="0.576" x2="18.411"/>
      <line  stroke="white" stroke-linecap="round" y1="9.41105" x1="18.411" y2="9.41105" stroke-width="0.576" x2="22.011"/>
      <line  stroke="white" stroke-linecap="round" y1="9.41105" x1="22.011" y2="7.61105" stroke-width="0.576" x2="23.811"/>
      <line  stroke="white" stroke-linecap="round" y1="4.01103" x1="31.011" y2="7.61105" stroke-width="0.576" x2="31.011"/>
      <line  stroke="white" stroke-linecap="round" y1="2.21103" x1="29.211" y2="4.01103" stroke-width="0.576" x2="31.011"/>
      <line  stroke="white" stroke-linecap="round" y1="7.61105" x1="31.011" y2="9.41105" stroke-width="0.576" x2="29.211"/>
      <line  stroke="white" stroke-linecap="round" y1="9.41105" x1="25.611" y2="9.41105" stroke-width="0.576" x2="29.211"/>
      <line  stroke="white" stroke-linecap="round" y1="4.01103" x1="16.611" y2="7.61105" stroke-width="0.576" x2="16.611"/>
     </g>
    </g>
    <g  stroke-width="0">
     <title >element:U3</title>
     <g  stroke-width="0">
      <title >package:1X02</title>
      <line  stroke="white" stroke-linecap="round" y1="45.411" x1="18.411" y2="45.411" stroke-width="0.576" x2="22.011"/>
      <line  stroke="white" stroke-linecap="round" y1="45.411" x1="22.011" y2="43.611" stroke-width="0.576" x2="23.811"/>
      <line  stroke="white" stroke-linecap="round" y1="40.011" x1="23.811" y2="38.211" stroke-width="0.576" x2="22.011"/>
      <line  stroke="white" stroke-linecap="round" y1="43.611" x1="23.811" y2="45.411" stroke-width="0.576" x2="25.611"/>
      <line  stroke="white" stroke-linecap="round" y1="45.411" x1="25.611" y2="45.411" stroke-width="0.576" x2="29.211"/>
      <line  stroke="white" stroke-linecap="round" y1="45.411" x1="29.211" y2="43.611" stroke-width="0.576" x2="31.011"/>
      <line  stroke="white" stroke-linecap="round" y1="40.011" x1="31.011" y2="38.211" stroke-width="0.576" x2="29.211"/>
      <line  stroke="white" stroke-linecap="round" y1="38.211" x1="29.211" y2="38.211" stroke-width="0.576" x2="25.611"/>
      <line  stroke="white" stroke-linecap="round" y1="38.211" x1="25.611" y2="40.011" stroke-width="0.576" x2="23.811"/>
      <line  stroke="white" stroke-linecap="round" y1="43.611" x1="16.611" y2="40.011" stroke-width="0.576" x2="16.611"/>
      <line  stroke="white" stroke-linecap="round" y1="45.411" x1="18.411" y2="43.611" stroke-width="0.576" x2="16.611"/>
      <line  stroke="white" stroke-linecap="round" y1="40.011" x1="16.611" y2="38.211" stroke-width="0.576" x2="18.411"/>
      <line  stroke="white" stroke-linecap="round" y1="38.211" x1="22.011" y2="38.211" stroke-width="0.576" x2="18.411"/>
      <line  stroke="white" stroke-linecap="round" y1="43.611" x1="31.011" y2="40.011" stroke-width="0.576" x2="31.011"/>
     </g>
    </g>
   </g>
   <circle  fill="none" cx="14.315" cy="14.315" connectorname="A1" stroke="#9A916C" r="1.872" id="connector0pin" stroke-width="0.864"/>
   <circle  fill="none" cx="14.315" cy="33.3071" connectorname="A2" stroke="#9A916C" r="1.872" id="connector1pin" stroke-width="0.864"/>
   <circle  fill="none" cx="33.3071" cy="14.315" connectorname="B1" stroke="#9A916C" r="1.872" id="connector2pin" stroke-width="0.864"/>
   <circle  fill="none" cx="33.3071" cy="33.3071" connectorname="B2" stroke="#9A916C" r="1.872" id="connector3pin" stroke-width="0.864"/>
   <circle  fill="none" cx="10.3465" cy="23.811" connectorname="H1" stroke="#9A916C" r="1.872" id="connector4pin" stroke-width="0.864"/>
   <circle  fill="none" cx="37.2756" cy="23.811" connectorname="GND" stroke="#9A916C" r="1.872" id="connector5pin" stroke-width="0.864"/>
   <circle  fill="none" cx="27.411" cy="5.81103" connectorname="H1" stroke="#9A916C" r="1.872" id="connector6pin" stroke-width="0.864"/>
   <circle  fill="none" cx="20.211" cy="5.81103" connectorname="A1" stroke="#9A916C" r="1.872" id="connector7pin" stroke-width="0.864"/>
   <circle  fill="none" cx="20.211" cy="41.811" connectorname="B1" stroke="#9A916C" r="1.872" id="connector8pin" stroke-width="0.864"/>
   <circle  fill="none" cx="27.411" cy="41.811" connectorname="GND" stroke="#9A916C" r="1.872" id="connector9pin" stroke-width="0.864"/>
  </g>
  <g  id="sfe-logo-flame" stroke-width="0" transform="matrix(1, 0, 0, 1, 37.3502, 12.1119)">
   <g  stroke-width="0" transform="matrix(0, 1, -1, 0, 6.68652, 1.32751)">
    <g  stroke-width="0">
     <title >element:JP2</title>
     <g  stroke-width="0">
      <title >package:SFE-LOGO-FLAME</title>
      <title >polygon</title>
     </g>
    </g>
    <g  stroke-width="0">
     <path  fill="#FFFFFF" stroke-width="0" d="M4.378,1.29c0,0,0.113,0.482,-0.251,0.55C3.873,1.885,3.464,1.634,3.258,1.383c-0.255,-0.31,-0.223,-0.554,-0.024,-0.770998c0.297,-0.327,0.805003,-0.2,0.805003,-0.2S3.107,-0.406,2.136,0.263C1.273,0.858002,1.521,1.669,2.299,2.376c0.703,0.64,0.144,1.341,-0.564,1.249c-0.486,-0.062,-0.685,-0.45,-0.568,-0.69c0.102,-0.205,0.449,-0.33,0.449,-0.33s-0.4,-0.163,-0.870998,0.016C0.322,2.779,-0.027,3.129,0.001,4.004l0,4.06c0,0,0.438,-0.54,0.949997,-1.088C1.528,6.358,1.79,5.94,2.381,5.99C3.5,6.058,4.308,5.561,4.857,4.764C5.913,3.232,5.087,1.519,4.378,1.29z"/>
    </g>
   </g>
  </g>
  <g  id="sfe-logo-flame" stroke-width="0" transform="matrix(1, 0, 0, 1, 37.2776, 26.0448)">
   <g  stroke-width="0" transform="matrix(0, -1, 1, 0, -1.32751, 6.68652)">
    <g  stroke-width="0">
     <title >element:JP2</title>
     <g  stroke-width="0">
      <title >package:SFE-LOGO-FLAME</title>
      <title >polygon</title>
     </g>
    </g>
    <g  stroke-width="0">
     <path  fill="#FFFFFF" stroke-width="0" d="M4.378,1.29c0,0,0.113,0.482,-0.251,0.55C3.873,1.885,3.464,1.634,3.258,1.383c-0.255,-0.31,-0.223,-0.554,-0.024,-0.770998c0.297,-0.327,0.805003,-0.2,0.805003,-0.2S3.107,-0.406,2.136,0.263C1.273,0.858002,1.521,1.669,2.299,2.376c0.703,0.64,0.144,1.341,-0.564,1.249c-0.486,-0.062,-0.685,-0.45,-0.568,-0.69c0.102,-0.205,0.449,-0.33,0.449,-0.33s-0.4,-0.163,-0.870998,0.016C0.322,2.779,-0.027,3.129,0.001,4.004l0,4.06c0,0,0.438,-0.54,0.949997,-1.088C1.528,6.358,1.79,5.94,2.381,5.99C3.5,6.058,4.308,5.561,4.857,4.764C5.913,3.232,5.087,1.519,4.378,1.29z"/>
    </g>
   </g>
  </g>
 </g>
</svg>
