<?xml version="1.0" encoding="utf-8"?>
<svg version="1.2" baseProfile="tiny" id="svg2" xmlns="http://www.w3.org/2000/svg" xmlns:xlink="http://www.w3.org/1999/xlink"
	 width="0.2in" height="0.63in" viewBox="0 0 20.0 63.0" xml:space="preserve">

<g id="breadboard">
  <rect id="middle" x="0" y="3" fill="#303030" width="20.0" height="57.0" />
  <rect id="top" x="0" y="3.0" fill="#3D3D3D" width="20.0" height="2.46"/>
  <rect id="bottom" x="0" y="57.54" fill="#000000" width="20.0" height="2.46"/>
	<polygon id="right" fill="#141414" points="20.0,3 19.25,5.46 19.25,57.54 20.0,60.0"/> 
	<polygon id="left" fill="#1F1F1F" points="0,3 0.75,5.46 0.75,57.54 0,60.0"/>
  
	<polygon id="left-upper-rect" fill="#1C1C1C" points="5,26.5 0.75,26.46 0.56,28.58 0.56,31.5 5,31.5"/>
	<polygon id="left-lower-rect" fill="#383838" points="0.75,36.55 5,36.55 5,31.5 0.56,31.5 0.56,34.42"/>

  <path id="slot" fill="#262626" d="M0.56,28.58v5.83c1.47-0.17,2.62-1.4,2.62-2.92C3.18,29.97,2.04,28.75,0.56,28.58z"/>
  <path id="cover" fill="#303030" d="M0.75,5.46V26.45c2.38,0.45,4.19,2.53,4.19,5.04c0,2.51-1.8,4.6-4.19,5.05V36.55h5.0V5.46H0.75z"/>
  
	<circle fill="#212121" cx="6.5" cy="53.47" r="2.06"/>
 
  <text id="label" x="6.5" y="31.5" fill="#e6e6e6" stroke="none" font-family="ocra10" text-anchor="start" font-size="8" >IC</text>

	<rect id="connector0pin" x="3.5" y="58.66" fill="#8C8C8C" width="3" height="4.34"/>
  <rect id="connector0terminal" x="3.5" y="60.0" fill="#8C8C8C" width="3" height="3"/>
	<polygon fill="#8C8C8C" points="3.5,58.66 3.5,60.66 6.5,60.66 8.5,59.74 8.5,58.66 	"/>
  <rect id="connector3pin" x="3.5" fill="#8C8C8C" width="3" height="4.34"/>
  <rect id="connector3terminal" x="3.5" fill="#8C8C8C" width="3" height="3"/>
	<polygon fill="#8C8C8C" points="8.5,4.34 8.5,3.26 6.5,2.34 3.5,2.34 3.5,4.34"/>
  <rect id="connector1pin" x="13.5" y="58.66" fill="#8C8C8C" width="3" height="4.34"/>
  <rect id="connector1terminal" x="13.5" y="60.0" fill="#8C8C8C" width="3" height="3"/>
	<polygon fill="#8C8C8C" points="11.5,58.66 11.5,59.74 13.5,60.66 16.5,60.66 16.5,58.66"/>
  <rect id="connector2pin" x="13.5" y="0" fill="#8C8C8C" width="3" height="4.34"/>
  <rect id="connector2terminal" x="13.5" y="0" fill="#8C8C8C" width="3" height="3"/>
	<polygon fill="#8C8C8C" points="16.5,4.34 16.5,2.34 13.5,2.34 11.5,3.26 11.5,4.34 	"/>

        

</g>
</svg>
