<?xml version="1.0" encoding="utf-8"?>
<svg version="1.2" baseProfile="tiny" id="svg2" xmlns="http://www.w3.org/2000/svg" xmlns:xlink="http://www.w3.org/1999/xlink"
	 width="3.1in" height="0.63in" viewBox="0 0 310.0 63.0" xml:space="preserve">

<g id="breadboard">
  <rect id="middle" x="0" y="3" fill="#303030" width="310.0" height="57.0" />
  <rect id="top" x="0" y="3.0" fill="#3D3D3D" width="310.0" height="2.46"/>
  <rect id="bottom" x="0" y="57.54" fill="#000000" width="310.0" height="2.46"/>
	<polygon id="right" fill="#141414" points="310.0,3 309.25,5.46 309.25,57.54 310.0,60.0"/> 
	<polygon id="left" fill="#1F1F1F" points="0,3 0.75,5.46 0.75,57.54 0,60.0"/>
  
	<polygon id="left-upper-rect" fill="#1C1C1C" points="5,26.5 0.75,26.46 0.56,28.58 0.56,31.5 5,31.5"/>
	<polygon id="left-lower-rect" fill="#383838" points="0.75,36.55 5,36.55 5,31.5 0.56,31.5 0.56,34.42"/>

  <path id="slot" fill="#262626" d="M0.56,28.58v5.83c1.47-0.17,2.62-1.4,2.62-2.92C3.18,29.97,2.04,28.75,0.56,28.58z"/>
  <path id="cover" fill="#303030" d="M0.75,5.46V26.45c2.38,0.45,4.19,2.53,4.19,5.04c0,2.51-1.8,4.6-4.19,5.05V36.55h5.0V5.46H0.75z"/>
  
	<circle fill="#212121" cx="6.5" cy="53.47" r="2.06"/>
 
  <text id="label" x="6.5" y="31.5" fill="#e6e6e6" stroke="none" font-family="OCRA" text-anchor="start" font-size="8" >IC</text>

	<rect id="connector0pin" x="3.5" y="58.66" fill="#8C8C8C" width="3" height="4.34"/>
  <rect id="connector0terminal" x="3.5" y="60.0" fill="#8C8C8C" width="3" height="3"/>
	<polygon fill="#8C8C8C" points="3.5,58.66 3.5,60.66 6.5,60.66 8.5,59.74 8.5,58.66 	"/>
  <rect id="connector61pin" x="3.5" fill="#8C8C8C" width="3" height="4.34"/>
  <rect id="connector61terminal" x="3.5" fill="#8C8C8C" width="3" height="3"/>
	<polygon fill="#8C8C8C" points="8.5,4.34 8.5,3.26 6.5,2.34 3.5,2.34 3.5,4.34"/>
  <rect id="connector30pin" x="303.5" y="58.66" fill="#8C8C8C" width="3" height="4.34"/>
  <rect id="connector30terminal" x="303.5" y="60.0" fill="#8C8C8C" width="3" height="3"/>
	<polygon fill="#8C8C8C" points="301.5,58.66 301.5,59.74 303.5,60.66 306.5,60.66 306.5,58.66"/>
  <rect id="connector31pin" x="303.5" y="0" fill="#8C8C8C" width="3" height="4.34"/>
  <rect id="connector31terminal" x="303.5" y="0" fill="#8C8C8C" width="3" height="3"/>
	<polygon fill="#8C8C8C" points="306.5,4.34 306.5,2.34 303.5,2.34 301.5,3.26 301.5,4.34 	"/>

        <rect id="connector1pin" x="13.5" y="58.66" fill="#8C8C8C" width="3" height="4.34"/>
        <rect id="connector1terminal" x="13.5" y="60.0" fill="#8C8C8C" width="3" height="3"/>
        <polygon fill="#8C8C8C" points="11.5,58.66 11.5,59.74 13.5,60.66 16.5,60.66 18.5,59.74 18.5,58.66"/>            
        <rect id="connector60pin" x="13.5" y="0" fill="#8C8C8C" width="3" height="4.34"/>
        <rect id="connector60terminal" x="13.5" fill="#8C8C8C" width="3" height="3"/>
        <polygon fill="#8C8C8C" points="18.5,4.34 18.5,3.26 16.5,2.34 13.5,2.34 11.5,3.26 11.5,4.34"/>
        <rect id="connector2pin" x="23.5" y="58.66" fill="#8C8C8C" width="3" height="4.34"/>
        <rect id="connector2terminal" x="23.5" y="60.0" fill="#8C8C8C" width="3" height="3"/>
        <polygon fill="#8C8C8C" points="21.5,58.66 21.5,59.74 23.5,60.66 26.5,60.66 28.5,59.74 28.5,58.66"/>            
        <rect id="connector59pin" x="23.5" y="0" fill="#8C8C8C" width="3" height="4.34"/>
        <rect id="connector59terminal" x="23.5" fill="#8C8C8C" width="3" height="3"/>
        <polygon fill="#8C8C8C" points="28.5,4.34 28.5,3.26 26.5,2.34 23.5,2.34 21.5,3.26 21.5,4.34"/>
        <rect id="connector3pin" x="33.5" y="58.66" fill="#8C8C8C" width="3" height="4.34"/>
        <rect id="connector3terminal" x="33.5" y="60.0" fill="#8C8C8C" width="3" height="3"/>
        <polygon fill="#8C8C8C" points="31.5,58.66 31.5,59.74 33.5,60.66 36.5,60.66 38.5,59.74 38.5,58.66"/>            
        <rect id="connector58pin" x="33.5" y="0" fill="#8C8C8C" width="3" height="4.34"/>
        <rect id="connector58terminal" x="33.5" fill="#8C8C8C" width="3" height="3"/>
        <polygon fill="#8C8C8C" points="38.5,4.34 38.5,3.26 36.5,2.34 33.5,2.34 31.5,3.26 31.5,4.34"/>
        <rect id="connector4pin" x="43.5" y="58.66" fill="#8C8C8C" width="3" height="4.34"/>
        <rect id="connector4terminal" x="43.5" y="60.0" fill="#8C8C8C" width="3" height="3"/>
        <polygon fill="#8C8C8C" points="41.5,58.66 41.5,59.74 43.5,60.66 46.5,60.66 48.5,59.74 48.5,58.66"/>            
        <rect id="connector57pin" x="43.5" y="0" fill="#8C8C8C" width="3" height="4.34"/>
        <rect id="connector57terminal" x="43.5" fill="#8C8C8C" width="3" height="3"/>
        <polygon fill="#8C8C8C" points="48.5,4.34 48.5,3.26 46.5,2.34 43.5,2.34 41.5,3.26 41.5,4.34"/>
        <rect id="connector5pin" x="53.5" y="58.66" fill="#8C8C8C" width="3" height="4.34"/>
        <rect id="connector5terminal" x="53.5" y="60.0" fill="#8C8C8C" width="3" height="3"/>
        <polygon fill="#8C8C8C" points="51.5,58.66 51.5,59.74 53.5,60.66 56.5,60.66 58.5,59.74 58.5,58.66"/>            
        <rect id="connector56pin" x="53.5" y="0" fill="#8C8C8C" width="3" height="4.34"/>
        <rect id="connector56terminal" x="53.5" fill="#8C8C8C" width="3" height="3"/>
        <polygon fill="#8C8C8C" points="58.5,4.34 58.5,3.26 56.5,2.34 53.5,2.34 51.5,3.26 51.5,4.34"/>
        <rect id="connector6pin" x="63.5" y="58.66" fill="#8C8C8C" width="3" height="4.34"/>
        <rect id="connector6terminal" x="63.5" y="60.0" fill="#8C8C8C" width="3" height="3"/>
        <polygon fill="#8C8C8C" points="61.5,58.66 61.5,59.74 63.5,60.66 66.5,60.66 68.5,59.74 68.5,58.66"/>            
        <rect id="connector55pin" x="63.5" y="0" fill="#8C8C8C" width="3" height="4.34"/>
        <rect id="connector55terminal" x="63.5" fill="#8C8C8C" width="3" height="3"/>
        <polygon fill="#8C8C8C" points="68.5,4.34 68.5,3.26 66.5,2.34 63.5,2.34 61.5,3.26 61.5,4.34"/>
        <rect id="connector7pin" x="73.5" y="58.66" fill="#8C8C8C" width="3" height="4.34"/>
        <rect id="connector7terminal" x="73.5" y="60.0" fill="#8C8C8C" width="3" height="3"/>
        <polygon fill="#8C8C8C" points="71.5,58.66 71.5,59.74 73.5,60.66 76.5,60.66 78.5,59.74 78.5,58.66"/>            
        <rect id="connector54pin" x="73.5" y="0" fill="#8C8C8C" width="3" height="4.34"/>
        <rect id="connector54terminal" x="73.5" fill="#8C8C8C" width="3" height="3"/>
        <polygon fill="#8C8C8C" points="78.5,4.34 78.5,3.26 76.5,2.34 73.5,2.34 71.5,3.26 71.5,4.34"/>
        <rect id="connector8pin" x="83.5" y="58.66" fill="#8C8C8C" width="3" height="4.34"/>
        <rect id="connector8terminal" x="83.5" y="60.0" fill="#8C8C8C" width="3" height="3"/>
        <polygon fill="#8C8C8C" points="81.5,58.66 81.5,59.74 83.5,60.66 86.5,60.66 88.5,59.74 88.5,58.66"/>            
        <rect id="connector53pin" x="83.5" y="0" fill="#8C8C8C" width="3" height="4.34"/>
        <rect id="connector53terminal" x="83.5" fill="#8C8C8C" width="3" height="3"/>
        <polygon fill="#8C8C8C" points="88.5,4.34 88.5,3.26 86.5,2.34 83.5,2.34 81.5,3.26 81.5,4.34"/>
        <rect id="connector9pin" x="93.5" y="58.66" fill="#8C8C8C" width="3" height="4.34"/>
        <rect id="connector9terminal" x="93.5" y="60.0" fill="#8C8C8C" width="3" height="3"/>
        <polygon fill="#8C8C8C" points="91.5,58.66 91.5,59.74 93.5,60.66 96.5,60.66 98.5,59.74 98.5,58.66"/>            
        <rect id="connector52pin" x="93.5" y="0" fill="#8C8C8C" width="3" height="4.34"/>
        <rect id="connector52terminal" x="93.5" fill="#8C8C8C" width="3" height="3"/>
        <polygon fill="#8C8C8C" points="98.5,4.34 98.5,3.26 96.5,2.34 93.5,2.34 91.5,3.26 91.5,4.34"/>
        <rect id="connector10pin" x="103.5" y="58.66" fill="#8C8C8C" width="3" height="4.34"/>
        <rect id="connector10terminal" x="103.5" y="60.0" fill="#8C8C8C" width="3" height="3"/>
        <polygon fill="#8C8C8C" points="101.5,58.66 101.5,59.74 103.5,60.66 106.5,60.66 108.5,59.74 108.5,58.66"/>            
        <rect id="connector51pin" x="103.5" y="0" fill="#8C8C8C" width="3" height="4.34"/>
        <rect id="connector51terminal" x="103.5" fill="#8C8C8C" width="3" height="3"/>
        <polygon fill="#8C8C8C" points="108.5,4.34 108.5,3.26 106.5,2.34 103.5,2.34 101.5,3.26 101.5,4.34"/>
        <rect id="connector11pin" x="113.5" y="58.66" fill="#8C8C8C" width="3" height="4.34"/>
        <rect id="connector11terminal" x="113.5" y="60.0" fill="#8C8C8C" width="3" height="3"/>
        <polygon fill="#8C8C8C" points="111.5,58.66 111.5,59.74 113.5,60.66 116.5,60.66 118.5,59.74 118.5,58.66"/>            
        <rect id="connector50pin" x="113.5" y="0" fill="#8C8C8C" width="3" height="4.34"/>
        <rect id="connector50terminal" x="113.5" fill="#8C8C8C" width="3" height="3"/>
        <polygon fill="#8C8C8C" points="118.5,4.34 118.5,3.26 116.5,2.34 113.5,2.34 111.5,3.26 111.5,4.34"/>
        <rect id="connector12pin" x="123.5" y="58.66" fill="#8C8C8C" width="3" height="4.34"/>
        <rect id="connector12terminal" x="123.5" y="60.0" fill="#8C8C8C" width="3" height="3"/>
        <polygon fill="#8C8C8C" points="121.5,58.66 121.5,59.74 123.5,60.66 126.5,60.66 128.5,59.74 128.5,58.66"/>            
        <rect id="connector49pin" x="123.5" y="0" fill="#8C8C8C" width="3" height="4.34"/>
        <rect id="connector49terminal" x="123.5" fill="#8C8C8C" width="3" height="3"/>
        <polygon fill="#8C8C8C" points="128.5,4.34 128.5,3.26 126.5,2.34 123.5,2.34 121.5,3.26 121.5,4.34"/>
        <rect id="connector13pin" x="133.5" y="58.66" fill="#8C8C8C" width="3" height="4.34"/>
        <rect id="connector13terminal" x="133.5" y="60.0" fill="#8C8C8C" width="3" height="3"/>
        <polygon fill="#8C8C8C" points="131.5,58.66 131.5,59.74 133.5,60.66 136.5,60.66 138.5,59.74 138.5,58.66"/>            
        <rect id="connector48pin" x="133.5" y="0" fill="#8C8C8C" width="3" height="4.34"/>
        <rect id="connector48terminal" x="133.5" fill="#8C8C8C" width="3" height="3"/>
        <polygon fill="#8C8C8C" points="138.5,4.34 138.5,3.26 136.5,2.34 133.5,2.34 131.5,3.26 131.5,4.34"/>
        <rect id="connector14pin" x="143.5" y="58.66" fill="#8C8C8C" width="3" height="4.34"/>
        <rect id="connector14terminal" x="143.5" y="60.0" fill="#8C8C8C" width="3" height="3"/>
        <polygon fill="#8C8C8C" points="141.5,58.66 141.5,59.74 143.5,60.66 146.5,60.66 148.5,59.74 148.5,58.66"/>            
        <rect id="connector47pin" x="143.5" y="0" fill="#8C8C8C" width="3" height="4.34"/>
        <rect id="connector47terminal" x="143.5" fill="#8C8C8C" width="3" height="3"/>
        <polygon fill="#8C8C8C" points="148.5,4.34 148.5,3.26 146.5,2.34 143.5,2.34 141.5,3.26 141.5,4.34"/>
        <rect id="connector15pin" x="153.5" y="58.66" fill="#8C8C8C" width="3" height="4.34"/>
        <rect id="connector15terminal" x="153.5" y="60.0" fill="#8C8C8C" width="3" height="3"/>
        <polygon fill="#8C8C8C" points="151.5,58.66 151.5,59.74 153.5,60.66 156.5,60.66 158.5,59.74 158.5,58.66"/>            
        <rect id="connector46pin" x="153.5" y="0" fill="#8C8C8C" width="3" height="4.34"/>
        <rect id="connector46terminal" x="153.5" fill="#8C8C8C" width="3" height="3"/>
        <polygon fill="#8C8C8C" points="158.5,4.34 158.5,3.26 156.5,2.34 153.5,2.34 151.5,3.26 151.5,4.34"/>
        <rect id="connector16pin" x="163.5" y="58.66" fill="#8C8C8C" width="3" height="4.34"/>
        <rect id="connector16terminal" x="163.5" y="60.0" fill="#8C8C8C" width="3" height="3"/>
        <polygon fill="#8C8C8C" points="161.5,58.66 161.5,59.74 163.5,60.66 166.5,60.66 168.5,59.74 168.5,58.66"/>            
        <rect id="connector45pin" x="163.5" y="0" fill="#8C8C8C" width="3" height="4.34"/>
        <rect id="connector45terminal" x="163.5" fill="#8C8C8C" width="3" height="3"/>
        <polygon fill="#8C8C8C" points="168.5,4.34 168.5,3.26 166.5,2.34 163.5,2.34 161.5,3.26 161.5,4.34"/>
        <rect id="connector17pin" x="173.5" y="58.66" fill="#8C8C8C" width="3" height="4.34"/>
        <rect id="connector17terminal" x="173.5" y="60.0" fill="#8C8C8C" width="3" height="3"/>
        <polygon fill="#8C8C8C" points="171.5,58.66 171.5,59.74 173.5,60.66 176.5,60.66 178.5,59.74 178.5,58.66"/>            
        <rect id="connector44pin" x="173.5" y="0" fill="#8C8C8C" width="3" height="4.34"/>
        <rect id="connector44terminal" x="173.5" fill="#8C8C8C" width="3" height="3"/>
        <polygon fill="#8C8C8C" points="178.5,4.34 178.5,3.26 176.5,2.34 173.5,2.34 171.5,3.26 171.5,4.34"/>
        <rect id="connector18pin" x="183.5" y="58.66" fill="#8C8C8C" width="3" height="4.34"/>
        <rect id="connector18terminal" x="183.5" y="60.0" fill="#8C8C8C" width="3" height="3"/>
        <polygon fill="#8C8C8C" points="181.5,58.66 181.5,59.74 183.5,60.66 186.5,60.66 188.5,59.74 188.5,58.66"/>            
        <rect id="connector43pin" x="183.5" y="0" fill="#8C8C8C" width="3" height="4.34"/>
        <rect id="connector43terminal" x="183.5" fill="#8C8C8C" width="3" height="3"/>
        <polygon fill="#8C8C8C" points="188.5,4.34 188.5,3.26 186.5,2.34 183.5,2.34 181.5,3.26 181.5,4.34"/>
        <rect id="connector19pin" x="193.5" y="58.66" fill="#8C8C8C" width="3" height="4.34"/>
        <rect id="connector19terminal" x="193.5" y="60.0" fill="#8C8C8C" width="3" height="3"/>
        <polygon fill="#8C8C8C" points="191.5,58.66 191.5,59.74 193.5,60.66 196.5,60.66 198.5,59.74 198.5,58.66"/>            
        <rect id="connector42pin" x="193.5" y="0" fill="#8C8C8C" width="3" height="4.34"/>
        <rect id="connector42terminal" x="193.5" fill="#8C8C8C" width="3" height="3"/>
        <polygon fill="#8C8C8C" points="198.5,4.34 198.5,3.26 196.5,2.34 193.5,2.34 191.5,3.26 191.5,4.34"/>
        <rect id="connector20pin" x="203.5" y="58.66" fill="#8C8C8C" width="3" height="4.34"/>
        <rect id="connector20terminal" x="203.5" y="60.0" fill="#8C8C8C" width="3" height="3"/>
        <polygon fill="#8C8C8C" points="201.5,58.66 201.5,59.74 203.5,60.66 206.5,60.66 208.5,59.74 208.5,58.66"/>            
        <rect id="connector41pin" x="203.5" y="0" fill="#8C8C8C" width="3" height="4.34"/>
        <rect id="connector41terminal" x="203.5" fill="#8C8C8C" width="3" height="3"/>
        <polygon fill="#8C8C8C" points="208.5,4.34 208.5,3.26 206.5,2.34 203.5,2.34 201.5,3.26 201.5,4.34"/>
        <rect id="connector21pin" x="213.5" y="58.66" fill="#8C8C8C" width="3" height="4.34"/>
        <rect id="connector21terminal" x="213.5" y="60.0" fill="#8C8C8C" width="3" height="3"/>
        <polygon fill="#8C8C8C" points="211.5,58.66 211.5,59.74 213.5,60.66 216.5,60.66 218.5,59.74 218.5,58.66"/>            
        <rect id="connector40pin" x="213.5" y="0" fill="#8C8C8C" width="3" height="4.34"/>
        <rect id="connector40terminal" x="213.5" fill="#8C8C8C" width="3" height="3"/>
        <polygon fill="#8C8C8C" points="218.5,4.34 218.5,3.26 216.5,2.34 213.5,2.34 211.5,3.26 211.5,4.34"/>
        <rect id="connector22pin" x="223.5" y="58.66" fill="#8C8C8C" width="3" height="4.34"/>
        <rect id="connector22terminal" x="223.5" y="60.0" fill="#8C8C8C" width="3" height="3"/>
        <polygon fill="#8C8C8C" points="221.5,58.66 221.5,59.74 223.5,60.66 226.5,60.66 228.5,59.74 228.5,58.66"/>            
        <rect id="connector39pin" x="223.5" y="0" fill="#8C8C8C" width="3" height="4.34"/>
        <rect id="connector39terminal" x="223.5" fill="#8C8C8C" width="3" height="3"/>
        <polygon fill="#8C8C8C" points="228.5,4.34 228.5,3.26 226.5,2.34 223.5,2.34 221.5,3.26 221.5,4.34"/>
        <rect id="connector23pin" x="233.5" y="58.66" fill="#8C8C8C" width="3" height="4.34"/>
        <rect id="connector23terminal" x="233.5" y="60.0" fill="#8C8C8C" width="3" height="3"/>
        <polygon fill="#8C8C8C" points="231.5,58.66 231.5,59.74 233.5,60.66 236.5,60.66 238.5,59.74 238.5,58.66"/>            
        <rect id="connector38pin" x="233.5" y="0" fill="#8C8C8C" width="3" height="4.34"/>
        <rect id="connector38terminal" x="233.5" fill="#8C8C8C" width="3" height="3"/>
        <polygon fill="#8C8C8C" points="238.5,4.34 238.5,3.26 236.5,2.34 233.5,2.34 231.5,3.26 231.5,4.34"/>
        <rect id="connector24pin" x="243.5" y="58.66" fill="#8C8C8C" width="3" height="4.34"/>
        <rect id="connector24terminal" x="243.5" y="60.0" fill="#8C8C8C" width="3" height="3"/>
        <polygon fill="#8C8C8C" points="241.5,58.66 241.5,59.74 243.5,60.66 246.5,60.66 248.5,59.74 248.5,58.66"/>            
        <rect id="connector37pin" x="243.5" y="0" fill="#8C8C8C" width="3" height="4.34"/>
        <rect id="connector37terminal" x="243.5" fill="#8C8C8C" width="3" height="3"/>
        <polygon fill="#8C8C8C" points="248.5,4.34 248.5,3.26 246.5,2.34 243.5,2.34 241.5,3.26 241.5,4.34"/>
        <rect id="connector25pin" x="253.5" y="58.66" fill="#8C8C8C" width="3" height="4.34"/>
        <rect id="connector25terminal" x="253.5" y="60.0" fill="#8C8C8C" width="3" height="3"/>
        <polygon fill="#8C8C8C" points="251.5,58.66 251.5,59.74 253.5,60.66 256.5,60.66 258.5,59.74 258.5,58.66"/>            
        <rect id="connector36pin" x="253.5" y="0" fill="#8C8C8C" width="3" height="4.34"/>
        <rect id="connector36terminal" x="253.5" fill="#8C8C8C" width="3" height="3"/>
        <polygon fill="#8C8C8C" points="258.5,4.34 258.5,3.26 256.5,2.34 253.5,2.34 251.5,3.26 251.5,4.34"/>
        <rect id="connector26pin" x="263.5" y="58.66" fill="#8C8C8C" width="3" height="4.34"/>
        <rect id="connector26terminal" x="263.5" y="60.0" fill="#8C8C8C" width="3" height="3"/>
        <polygon fill="#8C8C8C" points="261.5,58.66 261.5,59.74 263.5,60.66 266.5,60.66 268.5,59.74 268.5,58.66"/>            
        <rect id="connector35pin" x="263.5" y="0" fill="#8C8C8C" width="3" height="4.34"/>
        <rect id="connector35terminal" x="263.5" fill="#8C8C8C" width="3" height="3"/>
        <polygon fill="#8C8C8C" points="268.5,4.34 268.5,3.26 266.5,2.34 263.5,2.34 261.5,3.26 261.5,4.34"/>
        <rect id="connector27pin" x="273.5" y="58.66" fill="#8C8C8C" width="3" height="4.34"/>
        <rect id="connector27terminal" x="273.5" y="60.0" fill="#8C8C8C" width="3" height="3"/>
        <polygon fill="#8C8C8C" points="271.5,58.66 271.5,59.74 273.5,60.66 276.5,60.66 278.5,59.74 278.5,58.66"/>            
        <rect id="connector34pin" x="273.5" y="0" fill="#8C8C8C" width="3" height="4.34"/>
        <rect id="connector34terminal" x="273.5" fill="#8C8C8C" width="3" height="3"/>
        <polygon fill="#8C8C8C" points="278.5,4.34 278.5,3.26 276.5,2.34 273.5,2.34 271.5,3.26 271.5,4.34"/>
        <rect id="connector28pin" x="283.5" y="58.66" fill="#8C8C8C" width="3" height="4.34"/>
        <rect id="connector28terminal" x="283.5" y="60.0" fill="#8C8C8C" width="3" height="3"/>
        <polygon fill="#8C8C8C" points="281.5,58.66 281.5,59.74 283.5,60.66 286.5,60.66 288.5,59.74 288.5,58.66"/>            
        <rect id="connector33pin" x="283.5" y="0" fill="#8C8C8C" width="3" height="4.34"/>
        <rect id="connector33terminal" x="283.5" fill="#8C8C8C" width="3" height="3"/>
        <polygon fill="#8C8C8C" points="288.5,4.34 288.5,3.26 286.5,2.34 283.5,2.34 281.5,3.26 281.5,4.34"/>
        <rect id="connector29pin" x="293.5" y="58.66" fill="#8C8C8C" width="3" height="4.34"/>
        <rect id="connector29terminal" x="293.5" y="60.0" fill="#8C8C8C" width="3" height="3"/>
        <polygon fill="#8C8C8C" points="291.5,58.66 291.5,59.74 293.5,60.66 296.5,60.66 298.5,59.74 298.5,58.66"/>            
        <rect id="connector32pin" x="293.5" y="0" fill="#8C8C8C" width="3" height="4.34"/>
        <rect id="connector32terminal" x="293.5" fill="#8C8C8C" width="3" height="3"/>
        <polygon fill="#8C8C8C" points="298.5,4.34 298.5,3.26 296.5,2.34 293.5,2.34 291.5,3.26 291.5,4.34"/>
        

</g>
</svg>
