<?xml version="1.0" encoding="utf-8"?>
<!DOCTYPE svg PUBLIC "-//W3C//DTD SVG 1.1 Basic//EN" "http://www.w3.org/Graphics/SVG/1.1/DTD/svg11-basic.dtd">
<svg version="1.1" baseProfile="basic" id="svg" xmlns="http://www.w3.org/2000/svg" xmlns:xlink="http://www.w3.org/1999/xlink"
	 x="0px" y="0px" width="5.9in" height="0.10in" viewBox="0 0 424.741 7.199" xml:space="preserve">

<g id="breadboard">
<rect id="connector0pin" x="2.204" y="2.204" fill="none" width="2.791" height="2.791"/>
<rect id="connector0terminal" x="2.518" y="2.469" fill="none" width="2.164" height="2.262"/>
<rect id="connector1pin" x="9.403" y="2.204" fill="none" width="2.791" height="2.791"/>
<rect id="connector1terminal" x="9.717" y="2.469" fill="none" width="2.164" height="2.262"/>
<rect id="connector2pin" x="16.602" y="2.204" fill="none" width="2.791" height="2.791"/>
<rect id="connector2terminal" x="16.916" y="2.469" fill="none" width="2.164" height="2.262"/>
<rect id="connector3pin" x="23.801" y="2.204" fill="none" width="2.791" height="2.791"/>
<rect id="connector3terminal" x="24.115" y="2.469" fill="none" width="2.164" height="2.262"/>
<rect id="connector4pin" x="31.0" y="2.204" fill="none" width="2.791" height="2.791"/>
<rect id="connector4terminal" x="31.314" y="2.469" fill="none" width="2.164" height="2.262"/>
<rect id="connector5pin" x="38.199" y="2.204" fill="none" width="2.791" height="2.791"/>
<rect id="connector5terminal" x="38.513" y="2.469" fill="none" width="2.164" height="2.262"/>
<rect id="connector6pin" x="45.398" y="2.204" fill="none" width="2.791" height="2.791"/>
<rect id="connector6terminal" x="45.712" y="2.469" fill="none" width="2.164" height="2.262"/>
<rect id="connector7pin" x="52.597" y="2.204" fill="none" width="2.791" height="2.791"/>
<rect id="connector7terminal" x="52.911" y="2.469" fill="none" width="2.164" height="2.262"/>
<rect id="connector8pin" x="59.796" y="2.204" fill="none" width="2.791" height="2.791"/>
<rect id="connector8terminal" x="60.11" y="2.469" fill="none" width="2.164" height="2.262"/>
<rect id="connector9pin" x="66.995" y="2.204" fill="none" width="2.791" height="2.791"/>
<rect id="connector9terminal" x="67.309" y="2.469" fill="none" width="2.164" height="2.262"/>
<rect id="connector10pin" x="74.194" y="2.204" fill="none" width="2.791" height="2.791"/>
<rect id="connector10terminal" x="74.508" y="2.469" fill="none" width="2.164" height="2.262"/>
<rect id="connector11pin" x="81.393" y="2.204" fill="none" width="2.791" height="2.791"/>
<rect id="connector11terminal" x="81.707" y="2.469" fill="none" width="2.164" height="2.262"/>
<rect id="connector12pin" x="88.592" y="2.204" fill="none" width="2.791" height="2.791"/>
<rect id="connector12terminal" x="88.906" y="2.469" fill="none" width="2.164" height="2.262"/>
<rect id="connector13pin" x="95.791" y="2.204" fill="none" width="2.791" height="2.791"/>
<rect id="connector13terminal" x="96.105" y="2.469" fill="none" width="2.164" height="2.262"/>
<rect id="connector14pin" x="102.99" y="2.204" fill="none" width="2.791" height="2.791"/>
<rect id="connector14terminal" x="103.304" y="2.469" fill="none" width="2.164" height="2.262"/>
<rect id="connector15pin" x="110.189" y="2.204" fill="none" width="2.791" height="2.791"/>
<rect id="connector15terminal" x="110.503" y="2.469" fill="none" width="2.164" height="2.262"/>
<rect id="connector16pin" x="117.388" y="2.204" fill="none" width="2.791" height="2.791"/>
<rect id="connector16terminal" x="117.702" y="2.469" fill="none" width="2.164" height="2.262"/>
<rect id="connector17pin" x="124.587" y="2.204" fill="none" width="2.791" height="2.791"/>
<rect id="connector17terminal" x="124.901" y="2.469" fill="none" width="2.164" height="2.262"/>
<rect id="connector18pin" x="131.786" y="2.204" fill="none" width="2.791" height="2.791"/>
<rect id="connector18terminal" x="132.1" y="2.469" fill="none" width="2.164" height="2.262"/>
<rect id="connector19pin" x="138.985" y="2.204" fill="none" width="2.791" height="2.791"/>
<rect id="connector19terminal" x="139.299" y="2.469" fill="none" width="2.164" height="2.262"/>
<rect id="connector20pin" x="146.184" y="2.204" fill="none" width="2.791" height="2.791"/>
<rect id="connector20terminal" x="146.498" y="2.469" fill="none" width="2.164" height="2.262"/>
<rect id="connector21pin" x="153.383" y="2.204" fill="none" width="2.791" height="2.791"/>
<rect id="connector21terminal" x="153.697" y="2.469" fill="none" width="2.164" height="2.262"/>
<rect id="connector22pin" x="160.582" y="2.204" fill="none" width="2.791" height="2.791"/>
<rect id="connector22terminal" x="160.896" y="2.469" fill="none" width="2.164" height="2.262"/>
<rect id="connector23pin" x="167.781" y="2.204" fill="none" width="2.791" height="2.791"/>
<rect id="connector23terminal" x="168.095" y="2.469" fill="none" width="2.164" height="2.262"/>
<rect id="connector24pin" x="174.98" y="2.204" fill="none" width="2.791" height="2.791"/>
<rect id="connector24terminal" x="175.294" y="2.469" fill="none" width="2.164" height="2.262"/>
<rect id="connector25pin" x="182.179" y="2.204" fill="none" width="2.791" height="2.791"/>
<rect id="connector25terminal" x="182.493" y="2.469" fill="none" width="2.164" height="2.262"/>
<rect id="connector26pin" x="189.378" y="2.204" fill="none" width="2.791" height="2.791"/>
<rect id="connector26terminal" x="189.692" y="2.469" fill="none" width="2.164" height="2.262"/>
<rect id="connector27pin" x="196.577" y="2.204" fill="none" width="2.791" height="2.791"/>
<rect id="connector27terminal" x="196.891" y="2.469" fill="none" width="2.164" height="2.262"/>
<rect id="connector28pin" x="203.776" y="2.204" fill="none" width="2.791" height="2.791"/>
<rect id="connector28terminal" x="204.09" y="2.469" fill="none" width="2.164" height="2.262"/>
<rect id="connector29pin" x="210.975" y="2.204" fill="none" width="2.791" height="2.791"/>
<rect id="connector29terminal" x="211.289" y="2.469" fill="none" width="2.164" height="2.262"/>
<rect id="connector30pin" x="218.174" y="2.204" fill="none" width="2.791" height="2.791"/>
<rect id="connector30terminal" x="218.488" y="2.469" fill="none" width="2.164" height="2.262"/>
<rect id="connector31pin" x="225.373" y="2.204" fill="none" width="2.791" height="2.791"/>
<rect id="connector31terminal" x="225.687" y="2.469" fill="none" width="2.164" height="2.262"/>
<rect id="connector32pin" x="232.572" y="2.204" fill="none" width="2.791" height="2.791"/>
<rect id="connector32terminal" x="232.886" y="2.469" fill="none" width="2.164" height="2.262"/>
<rect id="connector33pin" x="239.771" y="2.204" fill="none" width="2.791" height="2.791"/>
<rect id="connector33terminal" x="240.085" y="2.469" fill="none" width="2.164" height="2.262"/>
<rect id="connector34pin" x="246.97" y="2.204" fill="none" width="2.791" height="2.791"/>
<rect id="connector34terminal" x="247.284" y="2.469" fill="none" width="2.164" height="2.262"/>
<rect id="connector35pin" x="254.169" y="2.204" fill="none" width="2.791" height="2.791"/>
<rect id="connector35terminal" x="254.483" y="2.469" fill="none" width="2.164" height="2.262"/>
<rect id="connector36pin" x="261.368" y="2.204" fill="none" width="2.791" height="2.791"/>
<rect id="connector36terminal" x="261.682" y="2.469" fill="none" width="2.164" height="2.262"/>
<rect id="connector37pin" x="268.567" y="2.204" fill="none" width="2.791" height="2.791"/>
<rect id="connector37terminal" x="268.881" y="2.469" fill="none" width="2.164" height="2.262"/>
<rect id="connector38pin" x="275.766" y="2.204" fill="none" width="2.791" height="2.791"/>
<rect id="connector38terminal" x="276.08" y="2.469" fill="none" width="2.164" height="2.262"/>
<rect id="connector39pin" x="282.965" y="2.204" fill="none" width="2.791" height="2.791"/>
<rect id="connector39terminal" x="283.279" y="2.469" fill="none" width="2.164" height="2.262"/>
<rect id="connector40pin" x="290.164" y="2.204" fill="none" width="2.791" height="2.791"/>
<rect id="connector40terminal" x="290.478" y="2.469" fill="none" width="2.164" height="2.262"/>
<rect id="connector41pin" x="297.363" y="2.204" fill="none" width="2.791" height="2.791"/>
<rect id="connector41terminal" x="297.677" y="2.469" fill="none" width="2.164" height="2.262"/>
<rect id="connector42pin" x="304.562" y="2.204" fill="none" width="2.791" height="2.791"/>
<rect id="connector42terminal" x="304.876" y="2.469" fill="none" width="2.164" height="2.262"/>
<rect id="connector43pin" x="311.761" y="2.204" fill="none" width="2.791" height="2.791"/>
<rect id="connector43terminal" x="312.075" y="2.469" fill="none" width="2.164" height="2.262"/>
<rect id="connector44pin" x="318.96" y="2.204" fill="none" width="2.791" height="2.791"/>
<rect id="connector44terminal" x="319.274" y="2.469" fill="none" width="2.164" height="2.262"/>
<rect id="connector45pin" x="326.159" y="2.204" fill="none" width="2.791" height="2.791"/>
<rect id="connector45terminal" x="326.473" y="2.469" fill="none" width="2.164" height="2.262"/>
<rect id="connector46pin" x="333.358" y="2.204" fill="none" width="2.791" height="2.791"/>
<rect id="connector46terminal" x="333.672" y="2.469" fill="none" width="2.164" height="2.262"/>
<rect id="connector47pin" x="340.557" y="2.204" fill="none" width="2.791" height="2.791"/>
<rect id="connector47terminal" x="340.871" y="2.469" fill="none" width="2.164" height="2.262"/>
<rect id="connector48pin" x="347.756" y="2.204" fill="none" width="2.791" height="2.791"/>
<rect id="connector48terminal" x="348.07" y="2.469" fill="none" width="2.164" height="2.262"/>
<rect id="connector49pin" x="354.955" y="2.204" fill="none" width="2.791" height="2.791"/>
<rect id="connector49terminal" x="355.269" y="2.469" fill="none" width="2.164" height="2.262"/>
<rect id="connector50pin" x="362.154" y="2.204" fill="none" width="2.791" height="2.791"/>
<rect id="connector50terminal" x="362.468" y="2.469" fill="none" width="2.164" height="2.262"/>
<rect id="connector51pin" x="369.353" y="2.204" fill="none" width="2.791" height="2.791"/>
<rect id="connector51terminal" x="369.667" y="2.469" fill="none" width="2.164" height="2.262"/>
<rect id="connector52pin" x="376.552" y="2.204" fill="none" width="2.791" height="2.791"/>
<rect id="connector52terminal" x="376.866" y="2.469" fill="none" width="2.164" height="2.262"/>
<rect id="connector53pin" x="383.751" y="2.204" fill="none" width="2.791" height="2.791"/>
<rect id="connector53terminal" x="384.065" y="2.469" fill="none" width="2.164" height="2.262"/>
<rect id="connector54pin" x="390.95" y="2.204" fill="none" width="2.791" height="2.791"/>
<rect id="connector54terminal" x="391.264" y="2.469" fill="none" width="2.164" height="2.262"/>
<rect id="connector55pin" x="398.149" y="2.204" fill="none" width="2.791" height="2.791"/>
<rect id="connector55terminal" x="398.463" y="2.469" fill="none" width="2.164" height="2.262"/>
<rect id="connector56pin" x="405.348" y="2.204" fill="none" width="2.791" height="2.791"/>
<rect id="connector56terminal" x="405.662" y="2.469" fill="none" width="2.164" height="2.262"/>
<rect id="connector57pin" x="412.547" y="2.204" fill="none" width="2.791" height="2.791"/>
<rect id="connector57terminal" x="412.861" y="2.469" fill="none" width="2.164" height="2.262"/>
<rect id="connector58pin" x="419.746" y="2.204" fill="none" width="2.791" height="2.791"/>
<rect id="connector58terminal" x="420.06" y="2.469" fill="none" width="2.164" height="2.262"/>

	<g>
		<polygon fill="#404040" points="1.563,0 0.0,1.564 0.0,5.637 1.563,7.199 5.635,7.199 7.199,5.637 7.199,1.564 5.635,0 1.563,0"/>
	</g>
	<g>
		<rect x="2.451" y="2.45" fill="#8D8C8C" width="2.297" height="2.299"/>
		<rect x="3.009" y="3.008" fill="#8C8663" width="1.182" height="1.183"/>
		<polygon fill="#B8AF82" points="2.451,2.45 3.009,3.008 4.19,3.008 4.748,2.45"/>
		<polygon fill="#80795B" points="4.19,4.19 4.19,3.008 4.748,2.45 4.748,4.749 		"/>
		<polygon fill="#5E5B43" points="3.009,4.19 4.19,4.19 4.748,4.749 2.451,4.749 		"/>
		<polygon fill="#9A916C" points="2.451,2.45 3.009,3.008 3.009,4.19 2.451,4.749 		"/>
	</g>
	<g>
		<polygon fill="#404040" points="8.762,0 7.199,1.564 7.199,5.637 8.762,7.199 12.834,7.199 14.398,5.637 14.398,1.564 12.834,0 8.762,0"/>
	</g>
	<g>
		<rect x="9.65" y="2.45" fill="#8D8C8C" width="2.297" height="2.299"/>
		<rect x="10.208" y="3.008" fill="#8C8663" width="1.182" height="1.183"/>
		<polygon fill="#B8AF82" points="9.65,2.45 10.208,3.008 11.389,3.008 11.947,2.45"/>
		<polygon fill="#80795B" points="11.389,4.19 11.389,3.008 11.947,2.45 11.947,4.749 		"/>
		<polygon fill="#5E5B43" points="10.208,4.19 11.389,4.19 11.947,4.749 9.65,4.749 		"/>
		<polygon fill="#9A916C" points="9.65,2.45 10.208,3.008 10.208,4.19 9.65,4.749 		"/>
	</g>
	<g>
		<polygon fill="#404040" points="15.961,0 14.398,1.564 14.398,5.637 15.961,7.199 20.033,7.199 21.597,5.637 21.597,1.564 20.033,0 15.961,0"/>
	</g>
	<g>
		<rect x="16.849" y="2.45" fill="#8D8C8C" width="2.297" height="2.299"/>
		<rect x="17.407" y="3.008" fill="#8C8663" width="1.182" height="1.183"/>
		<polygon fill="#B8AF82" points="16.849,2.45 17.407,3.008 18.588,3.008 19.146,2.45"/>
		<polygon fill="#80795B" points="18.588,4.19 18.588,3.008 19.146,2.45 19.146,4.749 		"/>
		<polygon fill="#5E5B43" points="17.407,4.19 18.588,4.19 19.146,4.749 16.849,4.749 		"/>
		<polygon fill="#9A916C" points="16.849,2.45 17.407,3.008 17.407,4.19 16.849,4.749 		"/>
	</g>
	<g>
		<polygon fill="#404040" points="23.16,0 21.597,1.564 21.597,5.637 23.16,7.199 27.232,7.199 28.796,5.637 28.796,1.564 27.232,0 23.16,0"/>
	</g>
	<g>
		<rect x="24.048" y="2.45" fill="#8D8C8C" width="2.297" height="2.299"/>
		<rect x="24.606" y="3.008" fill="#8C8663" width="1.182" height="1.183"/>
		<polygon fill="#B8AF82" points="24.048,2.45 24.606,3.008 25.787,3.008 26.345,2.45"/>
		<polygon fill="#80795B" points="25.787,4.19 25.787,3.008 26.345,2.45 26.345,4.749 		"/>
		<polygon fill="#5E5B43" points="24.606,4.19 25.787,4.19 26.345,4.749 24.048,4.749 		"/>
		<polygon fill="#9A916C" points="24.048,2.45 24.606,3.008 24.606,4.19 24.048,4.749 		"/>
	</g>
	<g>
		<polygon fill="#404040" points="30.359,0 28.796,1.564 28.796,5.637 30.359,7.199 34.431,7.199 35.995,5.637 35.995,1.564 34.431,0 30.359,0"/>
	</g>
	<g>
		<rect x="31.247" y="2.45" fill="#8D8C8C" width="2.297" height="2.299"/>
		<rect x="31.805" y="3.008" fill="#8C8663" width="1.182" height="1.183"/>
		<polygon fill="#B8AF82" points="31.247,2.45 31.805,3.008 32.986,3.008 33.544,2.45"/>
		<polygon fill="#80795B" points="32.986,4.19 32.986,3.008 33.544,2.45 33.544,4.749 		"/>
		<polygon fill="#5E5B43" points="31.805,4.19 32.986,4.19 33.544,4.749 31.247,4.749 		"/>
		<polygon fill="#9A916C" points="31.247,2.45 31.805,3.008 31.805,4.19 31.247,4.749 		"/>
	</g>
	<g>
		<polygon fill="#404040" points="37.558,0 35.995,1.564 35.995,5.637 37.558,7.199 41.63,7.199 43.194,5.637 43.194,1.564 41.63,0 37.558,0"/>
	</g>
	<g>
		<rect x="38.446" y="2.45" fill="#8D8C8C" width="2.297" height="2.299"/>
		<rect x="39.004" y="3.008" fill="#8C8663" width="1.182" height="1.183"/>
		<polygon fill="#B8AF82" points="38.446,2.45 39.004,3.008 40.185,3.008 40.743,2.45"/>
		<polygon fill="#80795B" points="40.185,4.19 40.185,3.008 40.743,2.45 40.743,4.749 		"/>
		<polygon fill="#5E5B43" points="39.004,4.19 40.185,4.19 40.743,4.749 38.446,4.749 		"/>
		<polygon fill="#9A916C" points="38.446,2.45 39.004,3.008 39.004,4.19 38.446,4.749 		"/>
	</g>
	<g>
		<polygon fill="#404040" points="44.757,0 43.194,1.564 43.194,5.637 44.757,7.199 48.829,7.199 50.393,5.637 50.393,1.564 48.829,0 44.757,0"/>
	</g>
	<g>
		<rect x="45.645" y="2.45" fill="#8D8C8C" width="2.297" height="2.299"/>
		<rect x="46.203" y="3.008" fill="#8C8663" width="1.182" height="1.183"/>
		<polygon fill="#B8AF82" points="45.645,2.45 46.203,3.008 47.384,3.008 47.942,2.45"/>
		<polygon fill="#80795B" points="47.384,4.19 47.384,3.008 47.942,2.45 47.942,4.749 		"/>
		<polygon fill="#5E5B43" points="46.203,4.19 47.384,4.19 47.942,4.749 45.645,4.749 		"/>
		<polygon fill="#9A916C" points="45.645,2.45 46.203,3.008 46.203,4.19 45.645,4.749 		"/>
	</g>
	<g>
		<polygon fill="#404040" points="51.956,0 50.393,1.564 50.393,5.637 51.956,7.199 56.028,7.199 57.592,5.637 57.592,1.564 56.028,0 51.956,0"/>
	</g>
	<g>
		<rect x="52.844" y="2.45" fill="#8D8C8C" width="2.297" height="2.299"/>
		<rect x="53.402" y="3.008" fill="#8C8663" width="1.182" height="1.183"/>
		<polygon fill="#B8AF82" points="52.844,2.45 53.402,3.008 54.583,3.008 55.141,2.45"/>
		<polygon fill="#80795B" points="54.583,4.19 54.583,3.008 55.141,2.45 55.141,4.749 		"/>
		<polygon fill="#5E5B43" points="53.402,4.19 54.583,4.19 55.141,4.749 52.844,4.749 		"/>
		<polygon fill="#9A916C" points="52.844,2.45 53.402,3.008 53.402,4.19 52.844,4.749 		"/>
	</g>
	<g>
		<polygon fill="#404040" points="59.155,0 57.592,1.564 57.592,5.637 59.155,7.199 63.227,7.199 64.791,5.637 64.791,1.564 63.227,0 59.155,0"/>
	</g>
	<g>
		<rect x="60.043" y="2.45" fill="#8D8C8C" width="2.297" height="2.299"/>
		<rect x="60.601" y="3.008" fill="#8C8663" width="1.182" height="1.183"/>
		<polygon fill="#B8AF82" points="60.043,2.45 60.601,3.008 61.782,3.008 62.34,2.45"/>
		<polygon fill="#80795B" points="61.782,4.19 61.782,3.008 62.34,2.45 62.34,4.749 		"/>
		<polygon fill="#5E5B43" points="60.601,4.19 61.782,4.19 62.34,4.749 60.043,4.749 		"/>
		<polygon fill="#9A916C" points="60.043,2.45 60.601,3.008 60.601,4.19 60.043,4.749 		"/>
	</g>
	<g>
		<polygon fill="#404040" points="66.354,0 64.791,1.564 64.791,5.637 66.354,7.199 70.426,7.199 71.99,5.637 71.99,1.564 70.426,0 66.354,0"/>
	</g>
	<g>
		<rect x="67.242" y="2.45" fill="#8D8C8C" width="2.297" height="2.299"/>
		<rect x="67.8" y="3.008" fill="#8C8663" width="1.182" height="1.183"/>
		<polygon fill="#B8AF82" points="67.242,2.45 67.8,3.008 68.981,3.008 69.539,2.45"/>
		<polygon fill="#80795B" points="68.981,4.19 68.981,3.008 69.539,2.45 69.539,4.749 		"/>
		<polygon fill="#5E5B43" points="67.8,4.19 68.981,4.19 69.539,4.749 67.242,4.749 		"/>
		<polygon fill="#9A916C" points="67.242,2.45 67.8,3.008 67.8,4.19 67.242,4.749 		"/>
	</g>
	<g>
		<polygon fill="#404040" points="73.553,0 71.99,1.564 71.99,5.637 73.553,7.199 77.625,7.199 79.189,5.637 79.189,1.564 77.625,0 73.553,0"/>
	</g>
	<g>
		<rect x="74.441" y="2.45" fill="#8D8C8C" width="2.297" height="2.299"/>
		<rect x="74.999" y="3.008" fill="#8C8663" width="1.182" height="1.183"/>
		<polygon fill="#B8AF82" points="74.441,2.45 74.999,3.008 76.18,3.008 76.738,2.45"/>
		<polygon fill="#80795B" points="76.18,4.19 76.18,3.008 76.738,2.45 76.738,4.749 		"/>
		<polygon fill="#5E5B43" points="74.999,4.19 76.18,4.19 76.738,4.749 74.441,4.749 		"/>
		<polygon fill="#9A916C" points="74.441,2.45 74.999,3.008 74.999,4.19 74.441,4.749 		"/>
	</g>
	<g>
		<polygon fill="#404040" points="80.752,0 79.189,1.564 79.189,5.637 80.752,7.199 84.824,7.199 86.388,5.637 86.388,1.564 84.824,0 80.752,0"/>
	</g>
	<g>
		<rect x="81.64" y="2.45" fill="#8D8C8C" width="2.297" height="2.299"/>
		<rect x="82.198" y="3.008" fill="#8C8663" width="1.182" height="1.183"/>
		<polygon fill="#B8AF82" points="81.64,2.45 82.198,3.008 83.379,3.008 83.937,2.45"/>
		<polygon fill="#80795B" points="83.379,4.19 83.379,3.008 83.937,2.45 83.937,4.749 		"/>
		<polygon fill="#5E5B43" points="82.198,4.19 83.379,4.19 83.937,4.749 81.64,4.749 		"/>
		<polygon fill="#9A916C" points="81.64,2.45 82.198,3.008 82.198,4.19 81.64,4.749 		"/>
	</g>
	<g>
		<polygon fill="#404040" points="87.951,0 86.388,1.564 86.388,5.637 87.951,7.199 92.023,7.199 93.587,5.637 93.587,1.564 92.023,0 87.951,0"/>
	</g>
	<g>
		<rect x="88.839" y="2.45" fill="#8D8C8C" width="2.297" height="2.299"/>
		<rect x="89.397" y="3.008" fill="#8C8663" width="1.182" height="1.183"/>
		<polygon fill="#B8AF82" points="88.839,2.45 89.397,3.008 90.578,3.008 91.136,2.45"/>
		<polygon fill="#80795B" points="90.578,4.19 90.578,3.008 91.136,2.45 91.136,4.749 		"/>
		<polygon fill="#5E5B43" points="89.397,4.19 90.578,4.19 91.136,4.749 88.839,4.749 		"/>
		<polygon fill="#9A916C" points="88.839,2.45 89.397,3.008 89.397,4.19 88.839,4.749 		"/>
	</g>
	<g>
		<polygon fill="#404040" points="95.15,0 93.587,1.564 93.587,5.637 95.15,7.199 99.222,7.199 100.786,5.637 100.786,1.564 99.222,0 95.15,0"/>
	</g>
	<g>
		<rect x="96.038" y="2.45" fill="#8D8C8C" width="2.297" height="2.299"/>
		<rect x="96.596" y="3.008" fill="#8C8663" width="1.182" height="1.183"/>
		<polygon fill="#B8AF82" points="96.038,2.45 96.596,3.008 97.777,3.008 98.335,2.45"/>
		<polygon fill="#80795B" points="97.777,4.19 97.777,3.008 98.335,2.45 98.335,4.749 		"/>
		<polygon fill="#5E5B43" points="96.596,4.19 97.777,4.19 98.335,4.749 96.038,4.749 		"/>
		<polygon fill="#9A916C" points="96.038,2.45 96.596,3.008 96.596,4.19 96.038,4.749 		"/>
	</g>
	<g>
		<polygon fill="#404040" points="102.349,0 100.786,1.564 100.786,5.637 102.349,7.199 106.421,7.199 107.985,5.637 107.985,1.564 106.421,0 102.349,0"/>
	</g>
	<g>
		<rect x="103.237" y="2.45" fill="#8D8C8C" width="2.297" height="2.299"/>
		<rect x="103.795" y="3.008" fill="#8C8663" width="1.182" height="1.183"/>
		<polygon fill="#B8AF82" points="103.237,2.45 103.795,3.008 104.976,3.008 105.534,2.45"/>
		<polygon fill="#80795B" points="104.976,4.19 104.976,3.008 105.534,2.45 105.534,4.749 		"/>
		<polygon fill="#5E5B43" points="103.795,4.19 104.976,4.19 105.534,4.749 103.237,4.749 		"/>
		<polygon fill="#9A916C" points="103.237,2.45 103.795,3.008 103.795,4.19 103.237,4.749 		"/>
	</g>
	<g>
		<polygon fill="#404040" points="109.548,0 107.985,1.564 107.985,5.637 109.548,7.199 113.62,7.199 115.184,5.637 115.184,1.564 113.62,0 109.548,0"/>
	</g>
	<g>
		<rect x="110.436" y="2.45" fill="#8D8C8C" width="2.297" height="2.299"/>
		<rect x="110.994" y="3.008" fill="#8C8663" width="1.182" height="1.183"/>
		<polygon fill="#B8AF82" points="110.436,2.45 110.994,3.008 112.175,3.008 112.733,2.45"/>
		<polygon fill="#80795B" points="112.175,4.19 112.175,3.008 112.733,2.45 112.733,4.749 		"/>
		<polygon fill="#5E5B43" points="110.994,4.19 112.175,4.19 112.733,4.749 110.436,4.749 		"/>
		<polygon fill="#9A916C" points="110.436,2.45 110.994,3.008 110.994,4.19 110.436,4.749 		"/>
	</g>
	<g>
		<polygon fill="#404040" points="116.747,0 115.184,1.564 115.184,5.637 116.747,7.199 120.819,7.199 122.383,5.637 122.383,1.564 120.819,0 116.747,0"/>
	</g>
	<g>
		<rect x="117.635" y="2.45" fill="#8D8C8C" width="2.297" height="2.299"/>
		<rect x="118.193" y="3.008" fill="#8C8663" width="1.182" height="1.183"/>
		<polygon fill="#B8AF82" points="117.635,2.45 118.193,3.008 119.374,3.008 119.932,2.45"/>
		<polygon fill="#80795B" points="119.374,4.19 119.374,3.008 119.932,2.45 119.932,4.749 		"/>
		<polygon fill="#5E5B43" points="118.193,4.19 119.374,4.19 119.932,4.749 117.635,4.749 		"/>
		<polygon fill="#9A916C" points="117.635,2.45 118.193,3.008 118.193,4.19 117.635,4.749 		"/>
	</g>
	<g>
		<polygon fill="#404040" points="123.946,0 122.383,1.564 122.383,5.637 123.946,7.199 128.018,7.199 129.582,5.637 129.582,1.564 128.018,0 123.946,0"/>
	</g>
	<g>
		<rect x="124.834" y="2.45" fill="#8D8C8C" width="2.297" height="2.299"/>
		<rect x="125.392" y="3.008" fill="#8C8663" width="1.182" height="1.183"/>
		<polygon fill="#B8AF82" points="124.834,2.45 125.392,3.008 126.573,3.008 127.131,2.45"/>
		<polygon fill="#80795B" points="126.573,4.19 126.573,3.008 127.131,2.45 127.131,4.749 		"/>
		<polygon fill="#5E5B43" points="125.392,4.19 126.573,4.19 127.131,4.749 124.834,4.749 		"/>
		<polygon fill="#9A916C" points="124.834,2.45 125.392,3.008 125.392,4.19 124.834,4.749 		"/>
	</g>
	<g>
		<polygon fill="#404040" points="131.145,0 129.582,1.564 129.582,5.637 131.145,7.199 135.217,7.199 136.781,5.637 136.781,1.564 135.217,0 131.145,0"/>
	</g>
	<g>
		<rect x="132.033" y="2.45" fill="#8D8C8C" width="2.297" height="2.299"/>
		<rect x="132.591" y="3.008" fill="#8C8663" width="1.182" height="1.183"/>
		<polygon fill="#B8AF82" points="132.033,2.45 132.591,3.008 133.772,3.008 134.33,2.45"/>
		<polygon fill="#80795B" points="133.772,4.19 133.772,3.008 134.33,2.45 134.33,4.749 		"/>
		<polygon fill="#5E5B43" points="132.591,4.19 133.772,4.19 134.33,4.749 132.033,4.749 		"/>
		<polygon fill="#9A916C" points="132.033,2.45 132.591,3.008 132.591,4.19 132.033,4.749 		"/>
	</g>
	<g>
		<polygon fill="#404040" points="138.344,0 136.781,1.564 136.781,5.637 138.344,7.199 142.416,7.199 143.98,5.637 143.98,1.564 142.416,0 138.344,0"/>
	</g>
	<g>
		<rect x="139.232" y="2.45" fill="#8D8C8C" width="2.297" height="2.299"/>
		<rect x="139.79" y="3.008" fill="#8C8663" width="1.182" height="1.183"/>
		<polygon fill="#B8AF82" points="139.232,2.45 139.79,3.008 140.971,3.008 141.529,2.45"/>
		<polygon fill="#80795B" points="140.971,4.19 140.971,3.008 141.529,2.45 141.529,4.749 		"/>
		<polygon fill="#5E5B43" points="139.79,4.19 140.971,4.19 141.529,4.749 139.232,4.749 		"/>
		<polygon fill="#9A916C" points="139.232,2.45 139.79,3.008 139.79,4.19 139.232,4.749 		"/>
	</g>
	<g>
		<polygon fill="#404040" points="145.543,0 143.98,1.564 143.98,5.637 145.543,7.199 149.615,7.199 151.179,5.637 151.179,1.564 149.615,0 145.543,0"/>
	</g>
	<g>
		<rect x="146.431" y="2.45" fill="#8D8C8C" width="2.297" height="2.299"/>
		<rect x="146.989" y="3.008" fill="#8C8663" width="1.182" height="1.183"/>
		<polygon fill="#B8AF82" points="146.431,2.45 146.989,3.008 148.17,3.008 148.728,2.45"/>
		<polygon fill="#80795B" points="148.17,4.19 148.17,3.008 148.728,2.45 148.728,4.749 		"/>
		<polygon fill="#5E5B43" points="146.989,4.19 148.17,4.19 148.728,4.749 146.431,4.749 		"/>
		<polygon fill="#9A916C" points="146.431,2.45 146.989,3.008 146.989,4.19 146.431,4.749 		"/>
	</g>
	<g>
		<polygon fill="#404040" points="152.742,0 151.179,1.564 151.179,5.637 152.742,7.199 156.814,7.199 158.378,5.637 158.378,1.564 156.814,0 152.742,0"/>
	</g>
	<g>
		<rect x="153.63" y="2.45" fill="#8D8C8C" width="2.297" height="2.299"/>
		<rect x="154.188" y="3.008" fill="#8C8663" width="1.182" height="1.183"/>
		<polygon fill="#B8AF82" points="153.63,2.45 154.188,3.008 155.369,3.008 155.927,2.45"/>
		<polygon fill="#80795B" points="155.369,4.19 155.369,3.008 155.927,2.45 155.927,4.749 		"/>
		<polygon fill="#5E5B43" points="154.188,4.19 155.369,4.19 155.927,4.749 153.63,4.749 		"/>
		<polygon fill="#9A916C" points="153.63,2.45 154.188,3.008 154.188,4.19 153.63,4.749 		"/>
	</g>
	<g>
		<polygon fill="#404040" points="159.941,0 158.378,1.564 158.378,5.637 159.941,7.199 164.013,7.199 165.577,5.637 165.577,1.564 164.013,0 159.941,0"/>
	</g>
	<g>
		<rect x="160.829" y="2.45" fill="#8D8C8C" width="2.297" height="2.299"/>
		<rect x="161.387" y="3.008" fill="#8C8663" width="1.182" height="1.183"/>
		<polygon fill="#B8AF82" points="160.829,2.45 161.387,3.008 162.568,3.008 163.126,2.45"/>
		<polygon fill="#80795B" points="162.568,4.19 162.568,3.008 163.126,2.45 163.126,4.749 		"/>
		<polygon fill="#5E5B43" points="161.387,4.19 162.568,4.19 163.126,4.749 160.829,4.749 		"/>
		<polygon fill="#9A916C" points="160.829,2.45 161.387,3.008 161.387,4.19 160.829,4.749 		"/>
	</g>
	<g>
		<polygon fill="#404040" points="167.14,0 165.577,1.564 165.577,5.637 167.14,7.199 171.212,7.199 172.776,5.637 172.776,1.564 171.212,0 167.14,0"/>
	</g>
	<g>
		<rect x="168.028" y="2.45" fill="#8D8C8C" width="2.297" height="2.299"/>
		<rect x="168.586" y="3.008" fill="#8C8663" width="1.182" height="1.183"/>
		<polygon fill="#B8AF82" points="168.028,2.45 168.586,3.008 169.767,3.008 170.325,2.45"/>
		<polygon fill="#80795B" points="169.767,4.19 169.767,3.008 170.325,2.45 170.325,4.749 		"/>
		<polygon fill="#5E5B43" points="168.586,4.19 169.767,4.19 170.325,4.749 168.028,4.749 		"/>
		<polygon fill="#9A916C" points="168.028,2.45 168.586,3.008 168.586,4.19 168.028,4.749 		"/>
	</g>
	<g>
		<polygon fill="#404040" points="174.339,0 172.776,1.564 172.776,5.637 174.339,7.199 178.411,7.199 179.975,5.637 179.975,1.564 178.411,0 174.339,0"/>
	</g>
	<g>
		<rect x="175.227" y="2.45" fill="#8D8C8C" width="2.297" height="2.299"/>
		<rect x="175.785" y="3.008" fill="#8C8663" width="1.182" height="1.183"/>
		<polygon fill="#B8AF82" points="175.227,2.45 175.785,3.008 176.966,3.008 177.524,2.45"/>
		<polygon fill="#80795B" points="176.966,4.19 176.966,3.008 177.524,2.45 177.524,4.749 		"/>
		<polygon fill="#5E5B43" points="175.785,4.19 176.966,4.19 177.524,4.749 175.227,4.749 		"/>
		<polygon fill="#9A916C" points="175.227,2.45 175.785,3.008 175.785,4.19 175.227,4.749 		"/>
	</g>
	<g>
		<polygon fill="#404040" points="181.538,0 179.975,1.564 179.975,5.637 181.538,7.199 185.61,7.199 187.174,5.637 187.174,1.564 185.61,0 181.538,0"/>
	</g>
	<g>
		<rect x="182.426" y="2.45" fill="#8D8C8C" width="2.297" height="2.299"/>
		<rect x="182.984" y="3.008" fill="#8C8663" width="1.182" height="1.183"/>
		<polygon fill="#B8AF82" points="182.426,2.45 182.984,3.008 184.165,3.008 184.723,2.45"/>
		<polygon fill="#80795B" points="184.165,4.19 184.165,3.008 184.723,2.45 184.723,4.749 		"/>
		<polygon fill="#5E5B43" points="182.984,4.19 184.165,4.19 184.723,4.749 182.426,4.749 		"/>
		<polygon fill="#9A916C" points="182.426,2.45 182.984,3.008 182.984,4.19 182.426,4.749 		"/>
	</g>
	<g>
		<polygon fill="#404040" points="188.737,0 187.174,1.564 187.174,5.637 188.737,7.199 192.809,7.199 194.373,5.637 194.373,1.564 192.809,0 188.737,0"/>
	</g>
	<g>
		<rect x="189.625" y="2.45" fill="#8D8C8C" width="2.297" height="2.299"/>
		<rect x="190.183" y="3.008" fill="#8C8663" width="1.182" height="1.183"/>
		<polygon fill="#B8AF82" points="189.625,2.45 190.183,3.008 191.364,3.008 191.922,2.45"/>
		<polygon fill="#80795B" points="191.364,4.19 191.364,3.008 191.922,2.45 191.922,4.749 		"/>
		<polygon fill="#5E5B43" points="190.183,4.19 191.364,4.19 191.922,4.749 189.625,4.749 		"/>
		<polygon fill="#9A916C" points="189.625,2.45 190.183,3.008 190.183,4.19 189.625,4.749 		"/>
	</g>
	<g>
		<polygon fill="#404040" points="195.936,0 194.373,1.564 194.373,5.637 195.936,7.199 200.008,7.199 201.572,5.637 201.572,1.564 200.008,0 195.936,0"/>
	</g>
	<g>
		<rect x="196.824" y="2.45" fill="#8D8C8C" width="2.297" height="2.299"/>
		<rect x="197.382" y="3.008" fill="#8C8663" width="1.182" height="1.183"/>
		<polygon fill="#B8AF82" points="196.824,2.45 197.382,3.008 198.563,3.008 199.121,2.45"/>
		<polygon fill="#80795B" points="198.563,4.19 198.563,3.008 199.121,2.45 199.121,4.749 		"/>
		<polygon fill="#5E5B43" points="197.382,4.19 198.563,4.19 199.121,4.749 196.824,4.749 		"/>
		<polygon fill="#9A916C" points="196.824,2.45 197.382,3.008 197.382,4.19 196.824,4.749 		"/>
	</g>
	<g>
		<polygon fill="#404040" points="203.135,0 201.572,1.564 201.572,5.637 203.135,7.199 207.207,7.199 208.771,5.637 208.771,1.564 207.207,0 203.135,0"/>
	</g>
	<g>
		<rect x="204.023" y="2.45" fill="#8D8C8C" width="2.297" height="2.299"/>
		<rect x="204.581" y="3.008" fill="#8C8663" width="1.182" height="1.183"/>
		<polygon fill="#B8AF82" points="204.023,2.45 204.581,3.008 205.762,3.008 206.32,2.45"/>
		<polygon fill="#80795B" points="205.762,4.19 205.762,3.008 206.32,2.45 206.32,4.749 		"/>
		<polygon fill="#5E5B43" points="204.581,4.19 205.762,4.19 206.32,4.749 204.023,4.749 		"/>
		<polygon fill="#9A916C" points="204.023,2.45 204.581,3.008 204.581,4.19 204.023,4.749 		"/>
	</g>
	<g>
		<polygon fill="#404040" points="210.334,0 208.771,1.564 208.771,5.637 210.334,7.199 214.406,7.199 215.97,5.637 215.97,1.564 214.406,0 210.334,0"/>
	</g>
	<g>
		<rect x="211.222" y="2.45" fill="#8D8C8C" width="2.297" height="2.299"/>
		<rect x="211.78" y="3.008" fill="#8C8663" width="1.182" height="1.183"/>
		<polygon fill="#B8AF82" points="211.222,2.45 211.78,3.008 212.961,3.008 213.519,2.45"/>
		<polygon fill="#80795B" points="212.961,4.19 212.961,3.008 213.519,2.45 213.519,4.749 		"/>
		<polygon fill="#5E5B43" points="211.78,4.19 212.961,4.19 213.519,4.749 211.222,4.749 		"/>
		<polygon fill="#9A916C" points="211.222,2.45 211.78,3.008 211.78,4.19 211.222,4.749 		"/>
	</g>
	<g>
		<polygon fill="#404040" points="217.533,0 215.97,1.564 215.97,5.637 217.533,7.199 221.605,7.199 223.169,5.637 223.169,1.564 221.605,0 217.533,0"/>
	</g>
	<g>
		<rect x="218.421" y="2.45" fill="#8D8C8C" width="2.297" height="2.299"/>
		<rect x="218.979" y="3.008" fill="#8C8663" width="1.182" height="1.183"/>
		<polygon fill="#B8AF82" points="218.421,2.45 218.979,3.008 220.16,3.008 220.718,2.45"/>
		<polygon fill="#80795B" points="220.16,4.19 220.16,3.008 220.718,2.45 220.718,4.749 		"/>
		<polygon fill="#5E5B43" points="218.979,4.19 220.16,4.19 220.718,4.749 218.421,4.749 		"/>
		<polygon fill="#9A916C" points="218.421,2.45 218.979,3.008 218.979,4.19 218.421,4.749 		"/>
	</g>
	<g>
		<polygon fill="#404040" points="224.732,0 223.169,1.564 223.169,5.637 224.732,7.199 228.804,7.199 230.368,5.637 230.368,1.564 228.804,0 224.732,0"/>
	</g>
	<g>
		<rect x="225.62" y="2.45" fill="#8D8C8C" width="2.297" height="2.299"/>
		<rect x="226.178" y="3.008" fill="#8C8663" width="1.182" height="1.183"/>
		<polygon fill="#B8AF82" points="225.62,2.45 226.178,3.008 227.359,3.008 227.917,2.45"/>
		<polygon fill="#80795B" points="227.359,4.19 227.359,3.008 227.917,2.45 227.917,4.749 		"/>
		<polygon fill="#5E5B43" points="226.178,4.19 227.359,4.19 227.917,4.749 225.62,4.749 		"/>
		<polygon fill="#9A916C" points="225.62,2.45 226.178,3.008 226.178,4.19 225.62,4.749 		"/>
	</g>
	<g>
		<polygon fill="#404040" points="231.931,0 230.368,1.564 230.368,5.637 231.931,7.199 236.003,7.199 237.567,5.637 237.567,1.564 236.003,0 231.931,0"/>
	</g>
	<g>
		<rect x="232.819" y="2.45" fill="#8D8C8C" width="2.297" height="2.299"/>
		<rect x="233.377" y="3.008" fill="#8C8663" width="1.182" height="1.183"/>
		<polygon fill="#B8AF82" points="232.819,2.45 233.377,3.008 234.558,3.008 235.116,2.45"/>
		<polygon fill="#80795B" points="234.558,4.19 234.558,3.008 235.116,2.45 235.116,4.749 		"/>
		<polygon fill="#5E5B43" points="233.377,4.19 234.558,4.19 235.116,4.749 232.819,4.749 		"/>
		<polygon fill="#9A916C" points="232.819,2.45 233.377,3.008 233.377,4.19 232.819,4.749 		"/>
	</g>
	<g>
		<polygon fill="#404040" points="239.13,0 237.567,1.564 237.567,5.637 239.13,7.199 243.202,7.199 244.766,5.637 244.766,1.564 243.202,0 239.13,0"/>
	</g>
	<g>
		<rect x="240.018" y="2.45" fill="#8D8C8C" width="2.297" height="2.299"/>
		<rect x="240.576" y="3.008" fill="#8C8663" width="1.182" height="1.183"/>
		<polygon fill="#B8AF82" points="240.018,2.45 240.576,3.008 241.757,3.008 242.315,2.45"/>
		<polygon fill="#80795B" points="241.757,4.19 241.757,3.008 242.315,2.45 242.315,4.749 		"/>
		<polygon fill="#5E5B43" points="240.576,4.19 241.757,4.19 242.315,4.749 240.018,4.749 		"/>
		<polygon fill="#9A916C" points="240.018,2.45 240.576,3.008 240.576,4.19 240.018,4.749 		"/>
	</g>
	<g>
		<polygon fill="#404040" points="246.329,0 244.766,1.564 244.766,5.637 246.329,7.199 250.401,7.199 251.965,5.637 251.965,1.564 250.401,0 246.329,0"/>
	</g>
	<g>
		<rect x="247.217" y="2.45" fill="#8D8C8C" width="2.297" height="2.299"/>
		<rect x="247.775" y="3.008" fill="#8C8663" width="1.182" height="1.183"/>
		<polygon fill="#B8AF82" points="247.217,2.45 247.775,3.008 248.956,3.008 249.514,2.45"/>
		<polygon fill="#80795B" points="248.956,4.19 248.956,3.008 249.514,2.45 249.514,4.749 		"/>
		<polygon fill="#5E5B43" points="247.775,4.19 248.956,4.19 249.514,4.749 247.217,4.749 		"/>
		<polygon fill="#9A916C" points="247.217,2.45 247.775,3.008 247.775,4.19 247.217,4.749 		"/>
	</g>
	<g>
		<polygon fill="#404040" points="253.528,0 251.965,1.564 251.965,5.637 253.528,7.199 257.6,7.199 259.164,5.637 259.164,1.564 257.6,0 253.528,0"/>
	</g>
	<g>
		<rect x="254.416" y="2.45" fill="#8D8C8C" width="2.297" height="2.299"/>
		<rect x="254.974" y="3.008" fill="#8C8663" width="1.182" height="1.183"/>
		<polygon fill="#B8AF82" points="254.416,2.45 254.974,3.008 256.155,3.008 256.713,2.45"/>
		<polygon fill="#80795B" points="256.155,4.19 256.155,3.008 256.713,2.45 256.713,4.749 		"/>
		<polygon fill="#5E5B43" points="254.974,4.19 256.155,4.19 256.713,4.749 254.416,4.749 		"/>
		<polygon fill="#9A916C" points="254.416,2.45 254.974,3.008 254.974,4.19 254.416,4.749 		"/>
	</g>
	<g>
		<polygon fill="#404040" points="260.727,0 259.164,1.564 259.164,5.637 260.727,7.199 264.799,7.199 266.363,5.637 266.363,1.564 264.799,0 260.727,0"/>
	</g>
	<g>
		<rect x="261.615" y="2.45" fill="#8D8C8C" width="2.297" height="2.299"/>
		<rect x="262.173" y="3.008" fill="#8C8663" width="1.182" height="1.183"/>
		<polygon fill="#B8AF82" points="261.615,2.45 262.173,3.008 263.354,3.008 263.912,2.45"/>
		<polygon fill="#80795B" points="263.354,4.19 263.354,3.008 263.912,2.45 263.912,4.749 		"/>
		<polygon fill="#5E5B43" points="262.173,4.19 263.354,4.19 263.912,4.749 261.615,4.749 		"/>
		<polygon fill="#9A916C" points="261.615,2.45 262.173,3.008 262.173,4.19 261.615,4.749 		"/>
	</g>
	<g>
		<polygon fill="#404040" points="267.926,0 266.363,1.564 266.363,5.637 267.926,7.199 271.998,7.199 273.562,5.637 273.562,1.564 271.998,0 267.926,0"/>
	</g>
	<g>
		<rect x="268.814" y="2.45" fill="#8D8C8C" width="2.297" height="2.299"/>
		<rect x="269.372" y="3.008" fill="#8C8663" width="1.182" height="1.183"/>
		<polygon fill="#B8AF82" points="268.814,2.45 269.372,3.008 270.553,3.008 271.111,2.45"/>
		<polygon fill="#80795B" points="270.553,4.19 270.553,3.008 271.111,2.45 271.111,4.749 		"/>
		<polygon fill="#5E5B43" points="269.372,4.19 270.553,4.19 271.111,4.749 268.814,4.749 		"/>
		<polygon fill="#9A916C" points="268.814,2.45 269.372,3.008 269.372,4.19 268.814,4.749 		"/>
	</g>
	<g>
		<polygon fill="#404040" points="275.125,0 273.562,1.564 273.562,5.637 275.125,7.199 279.197,7.199 280.761,5.637 280.761,1.564 279.197,0 275.125,0"/>
	</g>
	<g>
		<rect x="276.013" y="2.45" fill="#8D8C8C" width="2.297" height="2.299"/>
		<rect x="276.571" y="3.008" fill="#8C8663" width="1.182" height="1.183"/>
		<polygon fill="#B8AF82" points="276.013,2.45 276.571,3.008 277.752,3.008 278.31,2.45"/>
		<polygon fill="#80795B" points="277.752,4.19 277.752,3.008 278.31,2.45 278.31,4.749 		"/>
		<polygon fill="#5E5B43" points="276.571,4.19 277.752,4.19 278.31,4.749 276.013,4.749 		"/>
		<polygon fill="#9A916C" points="276.013,2.45 276.571,3.008 276.571,4.19 276.013,4.749 		"/>
	</g>
	<g>
		<polygon fill="#404040" points="282.324,0 280.761,1.564 280.761,5.637 282.324,7.199 286.396,7.199 287.96,5.637 287.96,1.564 286.396,0 282.324,0"/>
	</g>
	<g>
		<rect x="283.212" y="2.45" fill="#8D8C8C" width="2.297" height="2.299"/>
		<rect x="283.77" y="3.008" fill="#8C8663" width="1.182" height="1.183"/>
		<polygon fill="#B8AF82" points="283.212,2.45 283.77,3.008 284.951,3.008 285.509,2.45"/>
		<polygon fill="#80795B" points="284.951,4.19 284.951,3.008 285.509,2.45 285.509,4.749 		"/>
		<polygon fill="#5E5B43" points="283.77,4.19 284.951,4.19 285.509,4.749 283.212,4.749 		"/>
		<polygon fill="#9A916C" points="283.212,2.45 283.77,3.008 283.77,4.19 283.212,4.749 		"/>
	</g>
	<g>
		<polygon fill="#404040" points="289.523,0 287.96,1.564 287.96,5.637 289.523,7.199 293.595,7.199 295.159,5.637 295.159,1.564 293.595,0 289.523,0"/>
	</g>
	<g>
		<rect x="290.411" y="2.45" fill="#8D8C8C" width="2.297" height="2.299"/>
		<rect x="290.969" y="3.008" fill="#8C8663" width="1.182" height="1.183"/>
		<polygon fill="#B8AF82" points="290.411,2.45 290.969,3.008 292.15,3.008 292.708,2.45"/>
		<polygon fill="#80795B" points="292.15,4.19 292.15,3.008 292.708,2.45 292.708,4.749 		"/>
		<polygon fill="#5E5B43" points="290.969,4.19 292.15,4.19 292.708,4.749 290.411,4.749 		"/>
		<polygon fill="#9A916C" points="290.411,2.45 290.969,3.008 290.969,4.19 290.411,4.749 		"/>
	</g>
	<g>
		<polygon fill="#404040" points="296.722,0 295.159,1.564 295.159,5.637 296.722,7.199 300.794,7.199 302.358,5.637 302.358,1.564 300.794,0 296.722,0"/>
	</g>
	<g>
		<rect x="297.61" y="2.45" fill="#8D8C8C" width="2.297" height="2.299"/>
		<rect x="298.168" y="3.008" fill="#8C8663" width="1.182" height="1.183"/>
		<polygon fill="#B8AF82" points="297.61,2.45 298.168,3.008 299.349,3.008 299.907,2.45"/>
		<polygon fill="#80795B" points="299.349,4.19 299.349,3.008 299.907,2.45 299.907,4.749 		"/>
		<polygon fill="#5E5B43" points="298.168,4.19 299.349,4.19 299.907,4.749 297.61,4.749 		"/>
		<polygon fill="#9A916C" points="297.61,2.45 298.168,3.008 298.168,4.19 297.61,4.749 		"/>
	</g>
	<g>
		<polygon fill="#404040" points="303.921,0 302.358,1.564 302.358,5.637 303.921,7.199 307.993,7.199 309.557,5.637 309.557,1.564 307.993,0 303.921,0"/>
	</g>
	<g>
		<rect x="304.809" y="2.45" fill="#8D8C8C" width="2.297" height="2.299"/>
		<rect x="305.367" y="3.008" fill="#8C8663" width="1.182" height="1.183"/>
		<polygon fill="#B8AF82" points="304.809,2.45 305.367,3.008 306.548,3.008 307.106,2.45"/>
		<polygon fill="#80795B" points="306.548,4.19 306.548,3.008 307.106,2.45 307.106,4.749 		"/>
		<polygon fill="#5E5B43" points="305.367,4.19 306.548,4.19 307.106,4.749 304.809,4.749 		"/>
		<polygon fill="#9A916C" points="304.809,2.45 305.367,3.008 305.367,4.19 304.809,4.749 		"/>
	</g>
	<g>
		<polygon fill="#404040" points="311.12,0 309.557,1.564 309.557,5.637 311.12,7.199 315.192,7.199 316.756,5.637 316.756,1.564 315.192,0 311.12,0"/>
	</g>
	<g>
		<rect x="312.008" y="2.45" fill="#8D8C8C" width="2.297" height="2.299"/>
		<rect x="312.566" y="3.008" fill="#8C8663" width="1.182" height="1.183"/>
		<polygon fill="#B8AF82" points="312.008,2.45 312.566,3.008 313.747,3.008 314.305,2.45"/>
		<polygon fill="#80795B" points="313.747,4.19 313.747,3.008 314.305,2.45 314.305,4.749 		"/>
		<polygon fill="#5E5B43" points="312.566,4.19 313.747,4.19 314.305,4.749 312.008,4.749 		"/>
		<polygon fill="#9A916C" points="312.008,2.45 312.566,3.008 312.566,4.19 312.008,4.749 		"/>
	</g>
	<g>
		<polygon fill="#404040" points="318.319,0 316.756,1.564 316.756,5.637 318.319,7.199 322.391,7.199 323.955,5.637 323.955,1.564 322.391,0 318.319,0"/>
	</g>
	<g>
		<rect x="319.207" y="2.45" fill="#8D8C8C" width="2.297" height="2.299"/>
		<rect x="319.765" y="3.008" fill="#8C8663" width="1.182" height="1.183"/>
		<polygon fill="#B8AF82" points="319.207,2.45 319.765,3.008 320.946,3.008 321.504,2.45"/>
		<polygon fill="#80795B" points="320.946,4.19 320.946,3.008 321.504,2.45 321.504,4.749 		"/>
		<polygon fill="#5E5B43" points="319.765,4.19 320.946,4.19 321.504,4.749 319.207,4.749 		"/>
		<polygon fill="#9A916C" points="319.207,2.45 319.765,3.008 319.765,4.19 319.207,4.749 		"/>
	</g>
	<g>
		<polygon fill="#404040" points="325.518,0 323.955,1.564 323.955,5.637 325.518,7.199 329.59,7.199 331.154,5.637 331.154,1.564 329.59,0 325.518,0"/>
	</g>
	<g>
		<rect x="326.406" y="2.45" fill="#8D8C8C" width="2.297" height="2.299"/>
		<rect x="326.964" y="3.008" fill="#8C8663" width="1.182" height="1.183"/>
		<polygon fill="#B8AF82" points="326.406,2.45 326.964,3.008 328.145,3.008 328.703,2.45"/>
		<polygon fill="#80795B" points="328.145,4.19 328.145,3.008 328.703,2.45 328.703,4.749 		"/>
		<polygon fill="#5E5B43" points="326.964,4.19 328.145,4.19 328.703,4.749 326.406,4.749 		"/>
		<polygon fill="#9A916C" points="326.406,2.45 326.964,3.008 326.964,4.19 326.406,4.749 		"/>
	</g>
	<g>
		<polygon fill="#404040" points="332.717,0 331.154,1.564 331.154,5.637 332.717,7.199 336.789,7.199 338.353,5.637 338.353,1.564 336.789,0 332.717,0"/>
	</g>
	<g>
		<rect x="333.605" y="2.45" fill="#8D8C8C" width="2.297" height="2.299"/>
		<rect x="334.163" y="3.008" fill="#8C8663" width="1.182" height="1.183"/>
		<polygon fill="#B8AF82" points="333.605,2.45 334.163,3.008 335.344,3.008 335.902,2.45"/>
		<polygon fill="#80795B" points="335.344,4.19 335.344,3.008 335.902,2.45 335.902,4.749 		"/>
		<polygon fill="#5E5B43" points="334.163,4.19 335.344,4.19 335.902,4.749 333.605,4.749 		"/>
		<polygon fill="#9A916C" points="333.605,2.45 334.163,3.008 334.163,4.19 333.605,4.749 		"/>
	</g>
	<g>
		<polygon fill="#404040" points="339.916,0 338.353,1.564 338.353,5.637 339.916,7.199 343.988,7.199 345.552,5.637 345.552,1.564 343.988,0 339.916,0"/>
	</g>
	<g>
		<rect x="340.804" y="2.45" fill="#8D8C8C" width="2.297" height="2.299"/>
		<rect x="341.362" y="3.008" fill="#8C8663" width="1.182" height="1.183"/>
		<polygon fill="#B8AF82" points="340.804,2.45 341.362,3.008 342.543,3.008 343.101,2.45"/>
		<polygon fill="#80795B" points="342.543,4.19 342.543,3.008 343.101,2.45 343.101,4.749 		"/>
		<polygon fill="#5E5B43" points="341.362,4.19 342.543,4.19 343.101,4.749 340.804,4.749 		"/>
		<polygon fill="#9A916C" points="340.804,2.45 341.362,3.008 341.362,4.19 340.804,4.749 		"/>
	</g>
	<g>
		<polygon fill="#404040" points="347.115,0 345.552,1.564 345.552,5.637 347.115,7.199 351.187,7.199 352.751,5.637 352.751,1.564 351.187,0 347.115,0"/>
	</g>
	<g>
		<rect x="348.003" y="2.45" fill="#8D8C8C" width="2.297" height="2.299"/>
		<rect x="348.561" y="3.008" fill="#8C8663" width="1.182" height="1.183"/>
		<polygon fill="#B8AF82" points="348.003,2.45 348.561,3.008 349.742,3.008 350.3,2.45"/>
		<polygon fill="#80795B" points="349.742,4.19 349.742,3.008 350.3,2.45 350.3,4.749 		"/>
		<polygon fill="#5E5B43" points="348.561,4.19 349.742,4.19 350.3,4.749 348.003,4.749 		"/>
		<polygon fill="#9A916C" points="348.003,2.45 348.561,3.008 348.561,4.19 348.003,4.749 		"/>
	</g>
	<g>
		<polygon fill="#404040" points="354.314,0 352.751,1.564 352.751,5.637 354.314,7.199 358.386,7.199 359.95,5.637 359.95,1.564 358.386,0 354.314,0"/>
	</g>
	<g>
		<rect x="355.202" y="2.45" fill="#8D8C8C" width="2.297" height="2.299"/>
		<rect x="355.76" y="3.008" fill="#8C8663" width="1.182" height="1.183"/>
		<polygon fill="#B8AF82" points="355.202,2.45 355.76,3.008 356.941,3.008 357.499,2.45"/>
		<polygon fill="#80795B" points="356.941,4.19 356.941,3.008 357.499,2.45 357.499,4.749 		"/>
		<polygon fill="#5E5B43" points="355.76,4.19 356.941,4.19 357.499,4.749 355.202,4.749 		"/>
		<polygon fill="#9A916C" points="355.202,2.45 355.76,3.008 355.76,4.19 355.202,4.749 		"/>
	</g>
	<g>
		<polygon fill="#404040" points="361.513,0 359.95,1.564 359.95,5.637 361.513,7.199 365.585,7.199 367.149,5.637 367.149,1.564 365.585,0 361.513,0"/>
	</g>
	<g>
		<rect x="362.401" y="2.45" fill="#8D8C8C" width="2.297" height="2.299"/>
		<rect x="362.959" y="3.008" fill="#8C8663" width="1.182" height="1.183"/>
		<polygon fill="#B8AF82" points="362.401,2.45 362.959,3.008 364.14,3.008 364.698,2.45"/>
		<polygon fill="#80795B" points="364.14,4.19 364.14,3.008 364.698,2.45 364.698,4.749 		"/>
		<polygon fill="#5E5B43" points="362.959,4.19 364.14,4.19 364.698,4.749 362.401,4.749 		"/>
		<polygon fill="#9A916C" points="362.401,2.45 362.959,3.008 362.959,4.19 362.401,4.749 		"/>
	</g>
	<g>
		<polygon fill="#404040" points="368.712,0 367.149,1.564 367.149,5.637 368.712,7.199 372.784,7.199 374.348,5.637 374.348,1.564 372.784,0 368.712,0"/>
	</g>
	<g>
		<rect x="369.6" y="2.45" fill="#8D8C8C" width="2.297" height="2.299"/>
		<rect x="370.158" y="3.008" fill="#8C8663" width="1.182" height="1.183"/>
		<polygon fill="#B8AF82" points="369.6,2.45 370.158,3.008 371.339,3.008 371.897,2.45"/>
		<polygon fill="#80795B" points="371.339,4.19 371.339,3.008 371.897,2.45 371.897,4.749 		"/>
		<polygon fill="#5E5B43" points="370.158,4.19 371.339,4.19 371.897,4.749 369.6,4.749 		"/>
		<polygon fill="#9A916C" points="369.6,2.45 370.158,3.008 370.158,4.19 369.6,4.749 		"/>
	</g>
	<g>
		<polygon fill="#404040" points="375.911,0 374.348,1.564 374.348,5.637 375.911,7.199 379.983,7.199 381.547,5.637 381.547,1.564 379.983,0 375.911,0"/>
	</g>
	<g>
		<rect x="376.799" y="2.45" fill="#8D8C8C" width="2.297" height="2.299"/>
		<rect x="377.357" y="3.008" fill="#8C8663" width="1.182" height="1.183"/>
		<polygon fill="#B8AF82" points="376.799,2.45 377.357,3.008 378.538,3.008 379.096,2.45"/>
		<polygon fill="#80795B" points="378.538,4.19 378.538,3.008 379.096,2.45 379.096,4.749 		"/>
		<polygon fill="#5E5B43" points="377.357,4.19 378.538,4.19 379.096,4.749 376.799,4.749 		"/>
		<polygon fill="#9A916C" points="376.799,2.45 377.357,3.008 377.357,4.19 376.799,4.749 		"/>
	</g>
	<g>
		<polygon fill="#404040" points="383.11,0 381.547,1.564 381.547,5.637 383.11,7.199 387.182,7.199 388.746,5.637 388.746,1.564 387.182,0 383.11,0"/>
	</g>
	<g>
		<rect x="383.998" y="2.45" fill="#8D8C8C" width="2.297" height="2.299"/>
		<rect x="384.556" y="3.008" fill="#8C8663" width="1.182" height="1.183"/>
		<polygon fill="#B8AF82" points="383.998,2.45 384.556,3.008 385.737,3.008 386.295,2.45"/>
		<polygon fill="#80795B" points="385.737,4.19 385.737,3.008 386.295,2.45 386.295,4.749 		"/>
		<polygon fill="#5E5B43" points="384.556,4.19 385.737,4.19 386.295,4.749 383.998,4.749 		"/>
		<polygon fill="#9A916C" points="383.998,2.45 384.556,3.008 384.556,4.19 383.998,4.749 		"/>
	</g>
	<g>
		<polygon fill="#404040" points="390.309,0 388.746,1.564 388.746,5.637 390.309,7.199 394.381,7.199 395.945,5.637 395.945,1.564 394.381,0 390.309,0"/>
	</g>
	<g>
		<rect x="391.197" y="2.45" fill="#8D8C8C" width="2.297" height="2.299"/>
		<rect x="391.755" y="3.008" fill="#8C8663" width="1.182" height="1.183"/>
		<polygon fill="#B8AF82" points="391.197,2.45 391.755,3.008 392.936,3.008 393.494,2.45"/>
		<polygon fill="#80795B" points="392.936,4.19 392.936,3.008 393.494,2.45 393.494,4.749 		"/>
		<polygon fill="#5E5B43" points="391.755,4.19 392.936,4.19 393.494,4.749 391.197,4.749 		"/>
		<polygon fill="#9A916C" points="391.197,2.45 391.755,3.008 391.755,4.19 391.197,4.749 		"/>
	</g>
	<g>
		<polygon fill="#404040" points="397.508,0 395.945,1.564 395.945,5.637 397.508,7.199 401.58,7.199 403.144,5.637 403.144,1.564 401.58,0 397.508,0"/>
	</g>
	<g>
		<rect x="398.396" y="2.45" fill="#8D8C8C" width="2.297" height="2.299"/>
		<rect x="398.954" y="3.008" fill="#8C8663" width="1.182" height="1.183"/>
		<polygon fill="#B8AF82" points="398.396,2.45 398.954,3.008 400.135,3.008 400.693,2.45"/>
		<polygon fill="#80795B" points="400.135,4.19 400.135,3.008 400.693,2.45 400.693,4.749 		"/>
		<polygon fill="#5E5B43" points="398.954,4.19 400.135,4.19 400.693,4.749 398.396,4.749 		"/>
		<polygon fill="#9A916C" points="398.396,2.45 398.954,3.008 398.954,4.19 398.396,4.749 		"/>
	</g>
	<g>
		<polygon fill="#404040" points="404.707,0 403.144,1.564 403.144,5.637 404.707,7.199 408.779,7.199 410.343,5.637 410.343,1.564 408.779,0 404.707,0"/>
	</g>
	<g>
		<rect x="405.595" y="2.45" fill="#8D8C8C" width="2.297" height="2.299"/>
		<rect x="406.153" y="3.008" fill="#8C8663" width="1.182" height="1.183"/>
		<polygon fill="#B8AF82" points="405.595,2.45 406.153,3.008 407.334,3.008 407.892,2.45"/>
		<polygon fill="#80795B" points="407.334,4.19 407.334,3.008 407.892,2.45 407.892,4.749 		"/>
		<polygon fill="#5E5B43" points="406.153,4.19 407.334,4.19 407.892,4.749 405.595,4.749 		"/>
		<polygon fill="#9A916C" points="405.595,2.45 406.153,3.008 406.153,4.19 405.595,4.749 		"/>
	</g>
	<g>
		<polygon fill="#404040" points="411.906,0 410.343,1.564 410.343,5.637 411.906,7.199 415.978,7.199 417.542,5.637 417.542,1.564 415.978,0 411.906,0"/>
	</g>
	<g>
		<rect x="412.794" y="2.45" fill="#8D8C8C" width="2.297" height="2.299"/>
		<rect x="413.352" y="3.008" fill="#8C8663" width="1.182" height="1.183"/>
		<polygon fill="#B8AF82" points="412.794,2.45 413.352,3.008 414.533,3.008 415.091,2.45"/>
		<polygon fill="#80795B" points="414.533,4.19 414.533,3.008 415.091,2.45 415.091,4.749 		"/>
		<polygon fill="#5E5B43" points="413.352,4.19 414.533,4.19 415.091,4.749 412.794,4.749 		"/>
		<polygon fill="#9A916C" points="412.794,2.45 413.352,3.008 413.352,4.19 412.794,4.749 		"/>
	</g>
	<g>
		<polygon fill="#404040" points="419.105,0 417.542,1.564 417.542,5.637 419.105,7.199 423.177,7.199 424.741,5.637 424.741,1.564 423.177,0 419.105,0"/>
	</g>
	<g>
		<rect x="419.993" y="2.45" fill="#8D8C8C" width="2.297" height="2.299"/>
		<rect x="420.551" y="3.008" fill="#8C8663" width="1.182" height="1.183"/>
		<polygon fill="#B8AF82" points="419.993,2.45 420.551,3.008 421.732,3.008 422.29,2.45"/>
		<polygon fill="#80795B" points="421.732,4.19 421.732,3.008 422.29,2.45 422.29,4.749 		"/>
		<polygon fill="#5E5B43" points="420.551,4.19 421.732,4.19 422.29,4.749 419.993,4.749 		"/>
		<polygon fill="#9A916C" points="419.993,2.45 420.551,3.008 420.551,4.19 419.993,4.749 		"/>
	</g>
</g>

</svg>
