<?xml version="1.0" encoding="utf-8"?>
<!DOCTYPE svg PUBLIC "-//W3C//DTD SVG 1.1 Basic//EN" "http://www.w3.org/Graphics/SVG/1.1/DTD/svg11-basic.dtd">
<svg version="1.1" baseProfile="basic" id="svg" xmlns="http://www.w3.org/2000/svg" xmlns:xlink="http://www.w3.org/1999/xlink"
	 x="0px" y="0px" width="4.9in" height="0.10in" viewBox="0 0 351.771 7.178" xml:space="preserve">

<g id="breadboard">
<rect id="connector0pin" x="2.202" y="2.202" fill="none" width="2.775" height="2.775"/>
<rect id="connector0terminal" x="2.511" y="2.463" fill="none" width="2.152" height="2.25"/>
<rect id="connector1pin" x="9.381" y="2.202" fill="none" width="2.775" height="2.775"/>
<rect id="connector1terminal" x="9.69" y="2.463" fill="none" width="2.152" height="2.25"/>
<rect id="connector2pin" x="16.56" y="2.202" fill="none" width="2.775" height="2.775"/>
<rect id="connector2terminal" x="16.869" y="2.463" fill="none" width="2.152" height="2.25"/>
<rect id="connector3pin" x="23.739" y="2.202" fill="none" width="2.775" height="2.775"/>
<rect id="connector3terminal" x="24.048" y="2.463" fill="none" width="2.152" height="2.25"/>
<rect id="connector4pin" x="30.918" y="2.202" fill="none" width="2.775" height="2.775"/>
<rect id="connector4terminal" x="31.227" y="2.463" fill="none" width="2.152" height="2.25"/>
<rect id="connector5pin" x="38.097" y="2.202" fill="none" width="2.775" height="2.775"/>
<rect id="connector5terminal" x="38.406" y="2.463" fill="none" width="2.152" height="2.25"/>
<rect id="connector6pin" x="45.276" y="2.202" fill="none" width="2.775" height="2.775"/>
<rect id="connector6terminal" x="45.585" y="2.463" fill="none" width="2.152" height="2.25"/>
<rect id="connector7pin" x="52.455" y="2.202" fill="none" width="2.775" height="2.775"/>
<rect id="connector7terminal" x="52.764" y="2.463" fill="none" width="2.152" height="2.25"/>
<rect id="connector8pin" x="59.634" y="2.202" fill="none" width="2.775" height="2.775"/>
<rect id="connector8terminal" x="59.943" y="2.463" fill="none" width="2.152" height="2.25"/>
<rect id="connector9pin" x="66.813" y="2.202" fill="none" width="2.775" height="2.775"/>
<rect id="connector9terminal" x="67.122" y="2.463" fill="none" width="2.152" height="2.25"/>
<rect id="connector10pin" x="73.992" y="2.202" fill="none" width="2.775" height="2.775"/>
<rect id="connector10terminal" x="74.301" y="2.463" fill="none" width="2.152" height="2.25"/>
<rect id="connector11pin" x="81.171" y="2.202" fill="none" width="2.775" height="2.775"/>
<rect id="connector11terminal" x="81.48" y="2.463" fill="none" width="2.152" height="2.25"/>
<rect id="connector12pin" x="88.35" y="2.202" fill="none" width="2.775" height="2.775"/>
<rect id="connector12terminal" x="88.659" y="2.463" fill="none" width="2.152" height="2.25"/>
<rect id="connector13pin" x="95.529" y="2.202" fill="none" width="2.775" height="2.775"/>
<rect id="connector13terminal" x="95.838" y="2.463" fill="none" width="2.152" height="2.25"/>
<rect id="connector14pin" x="102.708" y="2.202" fill="none" width="2.775" height="2.775"/>
<rect id="connector14terminal" x="103.017" y="2.463" fill="none" width="2.152" height="2.25"/>
<rect id="connector15pin" x="109.887" y="2.202" fill="none" width="2.775" height="2.775"/>
<rect id="connector15terminal" x="110.196" y="2.463" fill="none" width="2.152" height="2.25"/>
<rect id="connector16pin" x="117.066" y="2.202" fill="none" width="2.775" height="2.775"/>
<rect id="connector16terminal" x="117.375" y="2.463" fill="none" width="2.152" height="2.25"/>
<rect id="connector17pin" x="124.245" y="2.202" fill="none" width="2.775" height="2.775"/>
<rect id="connector17terminal" x="124.554" y="2.463" fill="none" width="2.152" height="2.25"/>
<rect id="connector18pin" x="131.424" y="2.202" fill="none" width="2.775" height="2.775"/>
<rect id="connector18terminal" x="131.733" y="2.463" fill="none" width="2.152" height="2.25"/>
<rect id="connector19pin" x="138.603" y="2.202" fill="none" width="2.775" height="2.775"/>
<rect id="connector19terminal" x="138.912" y="2.463" fill="none" width="2.152" height="2.25"/>
<rect id="connector20pin" x="145.782" y="2.202" fill="none" width="2.775" height="2.775"/>
<rect id="connector20terminal" x="146.091" y="2.463" fill="none" width="2.152" height="2.25"/>
<rect id="connector21pin" x="152.961" y="2.202" fill="none" width="2.775" height="2.775"/>
<rect id="connector21terminal" x="153.27" y="2.463" fill="none" width="2.152" height="2.25"/>
<rect id="connector22pin" x="160.14" y="2.202" fill="none" width="2.775" height="2.775"/>
<rect id="connector22terminal" x="160.449" y="2.463" fill="none" width="2.152" height="2.25"/>
<rect id="connector23pin" x="167.319" y="2.202" fill="none" width="2.775" height="2.775"/>
<rect id="connector23terminal" x="167.628" y="2.463" fill="none" width="2.152" height="2.25"/>
<rect id="connector24pin" x="174.498" y="2.202" fill="none" width="2.775" height="2.775"/>
<rect id="connector24terminal" x="174.807" y="2.463" fill="none" width="2.152" height="2.25"/>
<rect id="connector25pin" x="181.677" y="2.202" fill="none" width="2.775" height="2.775"/>
<rect id="connector25terminal" x="181.986" y="2.463" fill="none" width="2.152" height="2.25"/>
<rect id="connector26pin" x="188.856" y="2.202" fill="none" width="2.775" height="2.775"/>
<rect id="connector26terminal" x="189.165" y="2.463" fill="none" width="2.152" height="2.25"/>
<rect id="connector27pin" x="196.035" y="2.202" fill="none" width="2.775" height="2.775"/>
<rect id="connector27terminal" x="196.344" y="2.463" fill="none" width="2.152" height="2.25"/>
<rect id="connector28pin" x="203.214" y="2.202" fill="none" width="2.775" height="2.775"/>
<rect id="connector28terminal" x="203.523" y="2.463" fill="none" width="2.152" height="2.25"/>
<rect id="connector29pin" x="210.393" y="2.202" fill="none" width="2.775" height="2.775"/>
<rect id="connector29terminal" x="210.702" y="2.463" fill="none" width="2.152" height="2.25"/>
<rect id="connector30pin" x="217.572" y="2.202" fill="none" width="2.775" height="2.775"/>
<rect id="connector30terminal" x="217.881" y="2.463" fill="none" width="2.152" height="2.25"/>
<rect id="connector31pin" x="224.751" y="2.202" fill="none" width="2.775" height="2.775"/>
<rect id="connector31terminal" x="225.06" y="2.463" fill="none" width="2.152" height="2.25"/>
<rect id="connector32pin" x="231.93" y="2.202" fill="none" width="2.775" height="2.775"/>
<rect id="connector32terminal" x="232.239" y="2.463" fill="none" width="2.152" height="2.25"/>
<rect id="connector33pin" x="239.109" y="2.202" fill="none" width="2.775" height="2.775"/>
<rect id="connector33terminal" x="239.418" y="2.463" fill="none" width="2.152" height="2.25"/>
<rect id="connector34pin" x="246.288" y="2.202" fill="none" width="2.775" height="2.775"/>
<rect id="connector34terminal" x="246.597" y="2.463" fill="none" width="2.152" height="2.25"/>
<rect id="connector35pin" x="253.467" y="2.202" fill="none" width="2.775" height="2.775"/>
<rect id="connector35terminal" x="253.776" y="2.463" fill="none" width="2.152" height="2.25"/>
<rect id="connector36pin" x="260.646" y="2.202" fill="none" width="2.775" height="2.775"/>
<rect id="connector36terminal" x="260.955" y="2.463" fill="none" width="2.152" height="2.25"/>
<rect id="connector37pin" x="267.825" y="2.202" fill="none" width="2.775" height="2.775"/>
<rect id="connector37terminal" x="268.134" y="2.463" fill="none" width="2.152" height="2.25"/>
<rect id="connector38pin" x="275.004" y="2.202" fill="none" width="2.775" height="2.775"/>
<rect id="connector38terminal" x="275.313" y="2.463" fill="none" width="2.152" height="2.25"/>
<rect id="connector39pin" x="282.183" y="2.202" fill="none" width="2.775" height="2.775"/>
<rect id="connector39terminal" x="282.492" y="2.463" fill="none" width="2.152" height="2.25"/>
<rect id="connector40pin" x="289.362" y="2.202" fill="none" width="2.775" height="2.775"/>
<rect id="connector40terminal" x="289.671" y="2.463" fill="none" width="2.152" height="2.25"/>
<rect id="connector41pin" x="296.541" y="2.202" fill="none" width="2.775" height="2.775"/>
<rect id="connector41terminal" x="296.85" y="2.463" fill="none" width="2.152" height="2.25"/>
<rect id="connector42pin" x="303.72" y="2.202" fill="none" width="2.775" height="2.775"/>
<rect id="connector42terminal" x="304.029" y="2.463" fill="none" width="2.152" height="2.25"/>
<rect id="connector43pin" x="310.899" y="2.202" fill="none" width="2.775" height="2.775"/>
<rect id="connector43terminal" x="311.208" y="2.463" fill="none" width="2.152" height="2.25"/>
<rect id="connector44pin" x="318.078" y="2.202" fill="none" width="2.775" height="2.775"/>
<rect id="connector44terminal" x="318.387" y="2.463" fill="none" width="2.152" height="2.25"/>
<rect id="connector45pin" x="325.257" y="2.202" fill="none" width="2.775" height="2.775"/>
<rect id="connector45terminal" x="325.566" y="2.463" fill="none" width="2.152" height="2.25"/>
<rect id="connector46pin" x="332.436" y="2.202" fill="none" width="2.775" height="2.775"/>
<rect id="connector46terminal" x="332.745" y="2.463" fill="none" width="2.152" height="2.25"/>
<rect id="connector47pin" x="339.615" y="2.202" fill="none" width="2.775" height="2.775"/>
<rect id="connector47terminal" x="339.924" y="2.463" fill="none" width="2.152" height="2.25"/>
<rect id="connector48pin" x="346.794" y="2.202" fill="none" width="2.775" height="2.775"/>
<rect id="connector48terminal" x="347.103" y="2.463" fill="none" width="2.152" height="2.25"/>

	<rect fill="#404040" width="351.771" height="7.178"/>
	<rect x="2.204" y="2.202" width="2.773" height="2.773"/>
	<polygon fill="#2A2A29" points="1.181,1.18 2.202,2.202 4.977,2.202 5.999,1.18 	"/>
	<polygon fill="#474747" points="5.999,1.18 4.977,2.205 4.977,4.978 5.999,5.998 	"/>
	<polygon fill="#595959" points="5.998,5.998 4.976,4.978 2.202,4.978 1.181,5.998 	"/>
	<polygon fill="#373737" points="1.179,5.998 2.202,4.976 2.202,2.202 1.179,1.18 	"/>
	<rect x="9.383" y="2.202" width="2.773" height="2.773"/>
	<polygon fill="#2A2A29" points="8.36,1.18 9.381,2.202 12.156,2.202 13.178,1.18 	"/>
	<polygon fill="#474747" points="13.178,1.18 12.156,2.205 12.156,4.978 13.178,5.998 	"/>
	<polygon fill="#595959" points="13.177,5.998 12.155,4.978 9.381,4.978 8.36,5.998 	"/>
	<polygon fill="#373737" points="8.358,5.998 9.381,4.976 9.381,2.202 8.358,1.18 	"/>
	<rect x="16.562" y="2.202" width="2.773" height="2.773"/>
	<polygon fill="#2A2A29" points="15.539,1.18 16.56,2.202 19.335,2.202 20.357,1.18 	"/>
	<polygon fill="#474747" points="20.357,1.18 19.335,2.205 19.335,4.978 20.357,5.998 	"/>
	<polygon fill="#595959" points="20.356,5.998 19.334,4.978 16.56,4.978 15.539,5.998 	"/>
	<polygon fill="#373737" points="15.537,5.998 16.56,4.976 16.56,2.202 15.537,1.18 	"/>
	<rect x="23.741" y="2.202" width="2.773" height="2.773"/>
	<polygon fill="#2A2A29" points="22.718,1.18 23.739,2.202 26.514,2.202 27.536,1.18 	"/>
	<polygon fill="#474747" points="27.536,1.18 26.514,2.205 26.514,4.978 27.536,5.998 	"/>
	<polygon fill="#595959" points="27.535,5.998 26.513,4.978 23.739,4.978 22.718,5.998 	"/>
	<polygon fill="#373737" points="22.716,5.998 23.739,4.976 23.739,2.202 22.716,1.18 	"/>
	<rect x="30.92" y="2.202" width="2.773" height="2.773"/>
	<polygon fill="#2A2A29" points="29.897,1.18 30.918,2.202 33.693,2.202 34.715,1.18 	"/>
	<polygon fill="#474747" points="34.715,1.18 33.693,2.205 33.693,4.978 34.715,5.998 	"/>
	<polygon fill="#595959" points="34.714,5.998 33.692,4.978 30.918,4.978 29.897,5.998 	"/>
	<polygon fill="#373737" points="29.895,5.998 30.918,4.976 30.918,2.202 29.895,1.18 	"/>
	<rect x="38.099" y="2.202" width="2.773" height="2.773"/>
	<polygon fill="#2A2A29" points="37.076,1.18 38.097,2.202 40.872,2.202 41.894,1.18 	"/>
	<polygon fill="#474747" points="41.894,1.18 40.872,2.205 40.872,4.978 41.894,5.998 	"/>
	<polygon fill="#595959" points="41.893,5.998 40.871,4.978 38.097,4.978 37.076,5.998 	"/>
	<polygon fill="#373737" points="37.074,5.998 38.097,4.976 38.097,2.202 37.074,1.18 	"/>
	<rect x="45.278" y="2.202" width="2.773" height="2.773"/>
	<polygon fill="#2A2A29" points="44.255,1.18 45.276,2.202 48.051,2.202 49.073,1.18 	"/>
	<polygon fill="#474747" points="49.073,1.18 48.051,2.205 48.051,4.978 49.073,5.998 	"/>
	<polygon fill="#595959" points="49.072,5.998 48.05,4.978 45.276,4.978 44.255,5.998 	"/>
	<polygon fill="#373737" points="44.253,5.998 45.276,4.976 45.276,2.202 44.253,1.18 	"/>
	<rect x="52.457" y="2.202" width="2.773" height="2.773"/>
	<polygon fill="#2A2A29" points="51.434,1.18 52.455,2.202 55.23,2.202 56.252,1.18 	"/>
	<polygon fill="#474747" points="56.252,1.18 55.23,2.205 55.23,4.978 56.252,5.998 	"/>
	<polygon fill="#595959" points="56.251,5.998 55.229,4.978 52.455,4.978 51.434,5.998 	"/>
	<polygon fill="#373737" points="51.432,5.998 52.455,4.976 52.455,2.202 51.432,1.18 	"/>
	<rect x="59.636" y="2.202" width="2.773" height="2.773"/>
	<polygon fill="#2A2A29" points="58.613,1.18 59.634,2.202 62.409,2.202 63.431,1.18 	"/>
	<polygon fill="#474747" points="63.431,1.18 62.409,2.205 62.409,4.978 63.431,5.998 	"/>
	<polygon fill="#595959" points="63.43,5.998 62.408,4.978 59.634,4.978 58.613,5.998 	"/>
	<polygon fill="#373737" points="58.611,5.998 59.634,4.976 59.634,2.202 58.611,1.18 	"/>
	<rect x="66.815" y="2.202" width="2.773" height="2.773"/>
	<polygon fill="#2A2A29" points="65.792,1.18 66.813,2.202 69.588,2.202 70.61,1.18 	"/>
	<polygon fill="#474747" points="70.61,1.18 69.588,2.205 69.588,4.978 70.61,5.998 	"/>
	<polygon fill="#595959" points="70.609,5.998 69.587,4.978 66.813,4.978 65.792,5.998 	"/>
	<polygon fill="#373737" points="65.79,5.998 66.813,4.976 66.813,2.202 65.79,1.18 	"/>
	<rect x="73.994" y="2.202" width="2.773" height="2.773"/>
	<polygon fill="#2A2A29" points="72.971,1.18 73.992,2.202 76.767,2.202 77.789,1.18 	"/>
	<polygon fill="#474747" points="77.789,1.18 76.767,2.205 76.767,4.978 77.789,5.998 	"/>
	<polygon fill="#595959" points="77.788,5.998 76.766,4.978 73.992,4.978 72.971,5.998 	"/>
	<polygon fill="#373737" points="72.969,5.998 73.992,4.976 73.992,2.202 72.969,1.18 	"/>
	<rect x="81.173" y="2.202" width="2.773" height="2.773"/>
	<polygon fill="#2A2A29" points="80.15,1.18 81.171,2.202 83.946,2.202 84.968,1.18 	"/>
	<polygon fill="#474747" points="84.968,1.18 83.946,2.205 83.946,4.978 84.968,5.998 	"/>
	<polygon fill="#595959" points="84.967,5.998 83.945,4.978 81.171,4.978 80.15,5.998 	"/>
	<polygon fill="#373737" points="80.148,5.998 81.171,4.976 81.171,2.202 80.148,1.18 	"/>
	<rect x="88.352" y="2.202" width="2.773" height="2.773"/>
	<polygon fill="#2A2A29" points="87.329,1.18 88.35,2.202 91.125,2.202 92.147,1.18 	"/>
	<polygon fill="#474747" points="92.147,1.18 91.125,2.205 91.125,4.978 92.147,5.998 	"/>
	<polygon fill="#595959" points="92.146,5.998 91.124,4.978 88.35,4.978 87.329,5.998 	"/>
	<polygon fill="#373737" points="87.327,5.998 88.35,4.976 88.35,2.202 87.327,1.18 	"/>
	<rect x="95.531" y="2.202" width="2.773" height="2.773"/>
	<polygon fill="#2A2A29" points="94.508,1.18 95.529,2.202 98.304,2.202 99.326,1.18 	"/>
	<polygon fill="#474747" points="99.326,1.18 98.304,2.205 98.304,4.978 99.326,5.998 	"/>
	<polygon fill="#595959" points="99.325,5.998 98.303,4.978 95.529,4.978 94.508,5.998 	"/>
	<polygon fill="#373737" points="94.506,5.998 95.529,4.976 95.529,2.202 94.506,1.18 	"/>
	<rect x="102.71" y="2.202" width="2.773" height="2.773"/>
	<polygon fill="#2A2A29" points="101.687,1.18 102.708,2.202 105.483,2.202 106.505,1.18 	"/>
	<polygon fill="#474747" points="106.505,1.18 105.483,2.205 105.483,4.978 106.505,5.998 	"/>
	<polygon fill="#595959" points="106.504,5.998 105.482,4.978 102.708,4.978 101.687,5.998 	"/>
	<polygon fill="#373737" points="101.685,5.998 102.708,4.976 102.708,2.202 101.685,1.18 	"/>
	<rect x="109.889" y="2.202" width="2.773" height="2.773"/>
	<polygon fill="#2A2A29" points="108.866,1.18 109.887,2.202 112.662,2.202 113.684,1.18 	"/>
	<polygon fill="#474747" points="113.684,1.18 112.662,2.205 112.662,4.978 113.684,5.998 	"/>
	<polygon fill="#595959" points="113.683,5.998 112.661,4.978 109.887,4.978 108.866,5.998 	"/>
	<polygon fill="#373737" points="108.864,5.998 109.887,4.976 109.887,2.202 108.864,1.18 	"/>
	<rect x="117.068" y="2.202" width="2.773" height="2.773"/>
	<polygon fill="#2A2A29" points="116.045,1.18 117.066,2.202 119.841,2.202 120.863,1.18 	"/>
	<polygon fill="#474747" points="120.863,1.18 119.841,2.205 119.841,4.978 120.863,5.998 	"/>
	<polygon fill="#595959" points="120.862,5.998 119.84,4.978 117.066,4.978 116.045,5.998 	"/>
	<polygon fill="#373737" points="116.043,5.998 117.066,4.976 117.066,2.202 116.043,1.18 	"/>
	<rect x="124.247" y="2.202" width="2.773" height="2.773"/>
	<polygon fill="#2A2A29" points="123.224,1.18 124.245,2.202 127.02,2.202 128.042,1.18 	"/>
	<polygon fill="#474747" points="128.042,1.18 127.02,2.205 127.02,4.978 128.042,5.998 	"/>
	<polygon fill="#595959" points="128.041,5.998 127.019,4.978 124.245,4.978 123.224,5.998 	"/>
	<polygon fill="#373737" points="123.222,5.998 124.245,4.976 124.245,2.202 123.222,1.18 	"/>
	<rect x="131.426" y="2.202" width="2.773" height="2.773"/>
	<polygon fill="#2A2A29" points="130.403,1.18 131.424,2.202 134.199,2.202 135.221,1.18 	"/>
	<polygon fill="#474747" points="135.221,1.18 134.199,2.205 134.199,4.978 135.221,5.998 	"/>
	<polygon fill="#595959" points="135.22,5.998 134.198,4.978 131.424,4.978 130.403,5.998 	"/>
	<polygon fill="#373737" points="130.401,5.998 131.424,4.976 131.424,2.202 130.401,1.18 	"/>
	<rect x="138.605" y="2.202" width="2.773" height="2.773"/>
	<polygon fill="#2A2A29" points="137.582,1.18 138.603,2.202 141.378,2.202 142.4,1.18 	"/>
	<polygon fill="#474747" points="142.4,1.18 141.378,2.205 141.378,4.978 142.4,5.998 	"/>
	<polygon fill="#595959" points="142.399,5.998 141.377,4.978 138.603,4.978 137.582,5.998 	"/>
	<polygon fill="#373737" points="137.58,5.998 138.603,4.976 138.603,2.202 137.58,1.18 	"/>
	<rect x="145.784" y="2.202" width="2.773" height="2.773"/>
	<polygon fill="#2A2A29" points="144.761,1.18 145.782,2.202 148.557,2.202 149.579,1.18 	"/>
	<polygon fill="#474747" points="149.579,1.18 148.557,2.205 148.557,4.978 149.579,5.998 	"/>
	<polygon fill="#595959" points="149.578,5.998 148.556,4.978 145.782,4.978 144.761,5.998 	"/>
	<polygon fill="#373737" points="144.759,5.998 145.782,4.976 145.782,2.202 144.759,1.18 	"/>
	<rect x="152.963" y="2.202" width="2.773" height="2.773"/>
	<polygon fill="#2A2A29" points="151.94,1.18 152.961,2.202 155.736,2.202 156.758,1.18 	"/>
	<polygon fill="#474747" points="156.758,1.18 155.736,2.205 155.736,4.978 156.758,5.998 	"/>
	<polygon fill="#595959" points="156.757,5.998 155.735,4.978 152.961,4.978 151.94,5.998 	"/>
	<polygon fill="#373737" points="151.938,5.998 152.961,4.976 152.961,2.202 151.938,1.18 	"/>
	<rect x="160.142" y="2.202" width="2.773" height="2.773"/>
	<polygon fill="#2A2A29" points="159.119,1.18 160.14,2.202 162.915,2.202 163.937,1.18 	"/>
	<polygon fill="#474747" points="163.937,1.18 162.915,2.205 162.915,4.978 163.937,5.998 	"/>
	<polygon fill="#595959" points="163.936,5.998 162.914,4.978 160.14,4.978 159.119,5.998 	"/>
	<polygon fill="#373737" points="159.117,5.998 160.14,4.976 160.14,2.202 159.117,1.18 	"/>
	<rect x="167.321" y="2.202" width="2.773" height="2.773"/>
	<polygon fill="#2A2A29" points="166.298,1.18 167.319,2.202 170.094,2.202 171.116,1.18 	"/>
	<polygon fill="#474747" points="171.116,1.18 170.094,2.205 170.094,4.978 171.116,5.998 	"/>
	<polygon fill="#595959" points="171.115,5.998 170.093,4.978 167.319,4.978 166.298,5.998 	"/>
	<polygon fill="#373737" points="166.296,5.998 167.319,4.976 167.319,2.202 166.296,1.18 	"/>
	<rect x="174.5" y="2.202" width="2.773" height="2.773"/>
	<polygon fill="#2A2A29" points="173.477,1.18 174.498,2.202 177.273,2.202 178.295,1.18 	"/>
	<polygon fill="#474747" points="178.295,1.18 177.273,2.205 177.273,4.978 178.295,5.998 	"/>
	<polygon fill="#595959" points="178.294,5.998 177.272,4.978 174.498,4.978 173.477,5.998 	"/>
	<polygon fill="#373737" points="173.475,5.998 174.498,4.976 174.498,2.202 173.475,1.18 	"/>
	<rect x="181.679" y="2.202" width="2.773" height="2.773"/>
	<polygon fill="#2A2A29" points="180.656,1.18 181.677,2.202 184.452,2.202 185.474,1.18 	"/>
	<polygon fill="#474747" points="185.474,1.18 184.452,2.205 184.452,4.978 185.474,5.998 	"/>
	<polygon fill="#595959" points="185.473,5.998 184.451,4.978 181.677,4.978 180.656,5.998 	"/>
	<polygon fill="#373737" points="180.654,5.998 181.677,4.976 181.677,2.202 180.654,1.18 	"/>
	<rect x="188.858" y="2.202" width="2.773" height="2.773"/>
	<polygon fill="#2A2A29" points="187.835,1.18 188.856,2.202 191.631,2.202 192.653,1.18 	"/>
	<polygon fill="#474747" points="192.653,1.18 191.631,2.205 191.631,4.978 192.653,5.998 	"/>
	<polygon fill="#595959" points="192.652,5.998 191.63,4.978 188.856,4.978 187.835,5.998 	"/>
	<polygon fill="#373737" points="187.833,5.998 188.856,4.976 188.856,2.202 187.833,1.18 	"/>
	<rect x="196.037" y="2.202" width="2.773" height="2.773"/>
	<polygon fill="#2A2A29" points="195.014,1.18 196.035,2.202 198.81,2.202 199.832,1.18 	"/>
	<polygon fill="#474747" points="199.832,1.18 198.81,2.205 198.81,4.978 199.832,5.998 	"/>
	<polygon fill="#595959" points="199.831,5.998 198.809,4.978 196.035,4.978 195.014,5.998 	"/>
	<polygon fill="#373737" points="195.012,5.998 196.035,4.976 196.035,2.202 195.012,1.18 	"/>
	<rect x="203.216" y="2.202" width="2.773" height="2.773"/>
	<polygon fill="#2A2A29" points="202.193,1.18 203.214,2.202 205.989,2.202 207.011,1.18 	"/>
	<polygon fill="#474747" points="207.011,1.18 205.989,2.205 205.989,4.978 207.011,5.998 	"/>
	<polygon fill="#595959" points="207.01,5.998 205.988,4.978 203.214,4.978 202.193,5.998 	"/>
	<polygon fill="#373737" points="202.191,5.998 203.214,4.976 203.214,2.202 202.191,1.18 	"/>
	<rect x="210.395" y="2.202" width="2.773" height="2.773"/>
	<polygon fill="#2A2A29" points="209.372,1.18 210.393,2.202 213.168,2.202 214.19,1.18 	"/>
	<polygon fill="#474747" points="214.19,1.18 213.168,2.205 213.168,4.978 214.19,5.998 	"/>
	<polygon fill="#595959" points="214.189,5.998 213.167,4.978 210.393,4.978 209.372,5.998 	"/>
	<polygon fill="#373737" points="209.37,5.998 210.393,4.976 210.393,2.202 209.37,1.18 	"/>
	<rect x="217.574" y="2.202" width="2.773" height="2.773"/>
	<polygon fill="#2A2A29" points="216.551,1.18 217.572,2.202 220.347,2.202 221.369,1.18 	"/>
	<polygon fill="#474747" points="221.369,1.18 220.347,2.205 220.347,4.978 221.369,5.998 	"/>
	<polygon fill="#595959" points="221.368,5.998 220.346,4.978 217.572,4.978 216.551,5.998 	"/>
	<polygon fill="#373737" points="216.549,5.998 217.572,4.976 217.572,2.202 216.549,1.18 	"/>
	<rect x="224.753" y="2.202" width="2.773" height="2.773"/>
	<polygon fill="#2A2A29" points="223.73,1.18 224.751,2.202 227.526,2.202 228.548,1.18 	"/>
	<polygon fill="#474747" points="228.548,1.18 227.526,2.205 227.526,4.978 228.548,5.998 	"/>
	<polygon fill="#595959" points="228.547,5.998 227.525,4.978 224.751,4.978 223.73,5.998 	"/>
	<polygon fill="#373737" points="223.728,5.998 224.751,4.976 224.751,2.202 223.728,1.18 	"/>
	<rect x="231.932" y="2.202" width="2.773" height="2.773"/>
	<polygon fill="#2A2A29" points="230.909,1.18 231.93,2.202 234.705,2.202 235.727,1.18 	"/>
	<polygon fill="#474747" points="235.727,1.18 234.705,2.205 234.705,4.978 235.727,5.998 	"/>
	<polygon fill="#595959" points="235.726,5.998 234.704,4.978 231.93,4.978 230.909,5.998 	"/>
	<polygon fill="#373737" points="230.907,5.998 231.93,4.976 231.93,2.202 230.907,1.18 	"/>
	<rect x="239.111" y="2.202" width="2.773" height="2.773"/>
	<polygon fill="#2A2A29" points="238.088,1.18 239.109,2.202 241.884,2.202 242.906,1.18 	"/>
	<polygon fill="#474747" points="242.906,1.18 241.884,2.205 241.884,4.978 242.906,5.998 	"/>
	<polygon fill="#595959" points="242.905,5.998 241.883,4.978 239.109,4.978 238.088,5.998 	"/>
	<polygon fill="#373737" points="238.086,5.998 239.109,4.976 239.109,2.202 238.086,1.18 	"/>
	<rect x="246.29" y="2.202" width="2.773" height="2.773"/>
	<polygon fill="#2A2A29" points="245.267,1.18 246.288,2.202 249.063,2.202 250.085,1.18 	"/>
	<polygon fill="#474747" points="250.085,1.18 249.063,2.205 249.063,4.978 250.085,5.998 	"/>
	<polygon fill="#595959" points="250.084,5.998 249.062,4.978 246.288,4.978 245.267,5.998 	"/>
	<polygon fill="#373737" points="245.265,5.998 246.288,4.976 246.288,2.202 245.265,1.18 	"/>
	<rect x="253.469" y="2.202" width="2.773" height="2.773"/>
	<polygon fill="#2A2A29" points="252.446,1.18 253.467,2.202 256.242,2.202 257.264,1.18 	"/>
	<polygon fill="#474747" points="257.264,1.18 256.242,2.205 256.242,4.978 257.264,5.998 	"/>
	<polygon fill="#595959" points="257.263,5.998 256.241,4.978 253.467,4.978 252.446,5.998 	"/>
	<polygon fill="#373737" points="252.444,5.998 253.467,4.976 253.467,2.202 252.444,1.18 	"/>
	<rect x="260.648" y="2.202" width="2.773" height="2.773"/>
	<polygon fill="#2A2A29" points="259.625,1.18 260.646,2.202 263.421,2.202 264.443,1.18 	"/>
	<polygon fill="#474747" points="264.443,1.18 263.421,2.205 263.421,4.978 264.443,5.998 	"/>
	<polygon fill="#595959" points="264.442,5.998 263.42,4.978 260.646,4.978 259.625,5.998 	"/>
	<polygon fill="#373737" points="259.623,5.998 260.646,4.976 260.646,2.202 259.623,1.18 	"/>
	<rect x="267.827" y="2.202" width="2.773" height="2.773"/>
	<polygon fill="#2A2A29" points="266.804,1.18 267.825,2.202 270.6,2.202 271.622,1.18 	"/>
	<polygon fill="#474747" points="271.622,1.18 270.6,2.205 270.6,4.978 271.622,5.998 	"/>
	<polygon fill="#595959" points="271.621,5.998 270.599,4.978 267.825,4.978 266.804,5.998 	"/>
	<polygon fill="#373737" points="266.802,5.998 267.825,4.976 267.825,2.202 266.802,1.18 	"/>
	<rect x="275.006" y="2.202" width="2.773" height="2.773"/>
	<polygon fill="#2A2A29" points="273.983,1.18 275.004,2.202 277.779,2.202 278.801,1.18 	"/>
	<polygon fill="#474747" points="278.801,1.18 277.779,2.205 277.779,4.978 278.801,5.998 	"/>
	<polygon fill="#595959" points="278.8,5.998 277.778,4.978 275.004,4.978 273.983,5.998 	"/>
	<polygon fill="#373737" points="273.981,5.998 275.004,4.976 275.004,2.202 273.981,1.18 	"/>
	<rect x="282.185" y="2.202" width="2.773" height="2.773"/>
	<polygon fill="#2A2A29" points="281.162,1.18 282.183,2.202 284.958,2.202 285.98,1.18 	"/>
	<polygon fill="#474747" points="285.98,1.18 284.958,2.205 284.958,4.978 285.98,5.998 	"/>
	<polygon fill="#595959" points="285.979,5.998 284.957,4.978 282.183,4.978 281.162,5.998 	"/>
	<polygon fill="#373737" points="281.16,5.998 282.183,4.976 282.183,2.202 281.16,1.18 	"/>
	<rect x="289.364" y="2.202" width="2.773" height="2.773"/>
	<polygon fill="#2A2A29" points="288.341,1.18 289.362,2.202 292.137,2.202 293.159,1.18 	"/>
	<polygon fill="#474747" points="293.159,1.18 292.137,2.205 292.137,4.978 293.159,5.998 	"/>
	<polygon fill="#595959" points="293.158,5.998 292.136,4.978 289.362,4.978 288.341,5.998 	"/>
	<polygon fill="#373737" points="288.339,5.998 289.362,4.976 289.362,2.202 288.339,1.18 	"/>
	<rect x="296.543" y="2.202" width="2.773" height="2.773"/>
	<polygon fill="#2A2A29" points="295.52,1.18 296.541,2.202 299.316,2.202 300.338,1.18 	"/>
	<polygon fill="#474747" points="300.338,1.18 299.316,2.205 299.316,4.978 300.338,5.998 	"/>
	<polygon fill="#595959" points="300.337,5.998 299.315,4.978 296.541,4.978 295.52,5.998 	"/>
	<polygon fill="#373737" points="295.518,5.998 296.541,4.976 296.541,2.202 295.518,1.18 	"/>
	<rect x="303.722" y="2.202" width="2.773" height="2.773"/>
	<polygon fill="#2A2A29" points="302.699,1.18 303.72,2.202 306.495,2.202 307.517,1.18 	"/>
	<polygon fill="#474747" points="307.517,1.18 306.495,2.205 306.495,4.978 307.517,5.998 	"/>
	<polygon fill="#595959" points="307.516,5.998 306.494,4.978 303.72,4.978 302.699,5.998 	"/>
	<polygon fill="#373737" points="302.697,5.998 303.72,4.976 303.72,2.202 302.697,1.18 	"/>
	<rect x="310.901" y="2.202" width="2.773" height="2.773"/>
	<polygon fill="#2A2A29" points="309.878,1.18 310.899,2.202 313.674,2.202 314.696,1.18 	"/>
	<polygon fill="#474747" points="314.696,1.18 313.674,2.205 313.674,4.978 314.696,5.998 	"/>
	<polygon fill="#595959" points="314.695,5.998 313.673,4.978 310.899,4.978 309.878,5.998 	"/>
	<polygon fill="#373737" points="309.876,5.998 310.899,4.976 310.899,2.202 309.876,1.18 	"/>
	<rect x="318.08" y="2.202" width="2.773" height="2.773"/>
	<polygon fill="#2A2A29" points="317.057,1.18 318.078,2.202 320.853,2.202 321.875,1.18 	"/>
	<polygon fill="#474747" points="321.875,1.18 320.853,2.205 320.853,4.978 321.875,5.998 	"/>
	<polygon fill="#595959" points="321.874,5.998 320.852,4.978 318.078,4.978 317.057,5.998 	"/>
	<polygon fill="#373737" points="317.055,5.998 318.078,4.976 318.078,2.202 317.055,1.18 	"/>
	<rect x="325.259" y="2.202" width="2.773" height="2.773"/>
	<polygon fill="#2A2A29" points="324.236,1.18 325.257,2.202 328.032,2.202 329.054,1.18 	"/>
	<polygon fill="#474747" points="329.054,1.18 328.032,2.205 328.032,4.978 329.054,5.998 	"/>
	<polygon fill="#595959" points="329.053,5.998 328.031,4.978 325.257,4.978 324.236,5.998 	"/>
	<polygon fill="#373737" points="324.234,5.998 325.257,4.976 325.257,2.202 324.234,1.18 	"/>
	<rect x="332.438" y="2.202" width="2.773" height="2.773"/>
	<polygon fill="#2A2A29" points="331.415,1.18 332.436,2.202 335.211,2.202 336.233,1.18 	"/>
	<polygon fill="#474747" points="336.233,1.18 335.211,2.205 335.211,4.978 336.233,5.998 	"/>
	<polygon fill="#595959" points="336.232,5.998 335.21,4.978 332.436,4.978 331.415,5.998 	"/>
	<polygon fill="#373737" points="331.413,5.998 332.436,4.976 332.436,2.202 331.413,1.18 	"/>
	<rect x="339.617" y="2.202" width="2.773" height="2.773"/>
	<polygon fill="#2A2A29" points="338.594,1.18 339.615,2.202 342.39,2.202 343.412,1.18 	"/>
	<polygon fill="#474747" points="343.412,1.18 342.39,2.205 342.39,4.978 343.412,5.998 	"/>
	<polygon fill="#595959" points="343.411,5.998 342.389,4.978 339.615,4.978 338.594,5.998 	"/>
	<polygon fill="#373737" points="338.592,5.998 339.615,4.976 339.615,2.202 338.592,1.18 	"/>
	<rect x="346.796" y="2.202" width="2.773" height="2.773"/>
	<polygon fill="#2A2A29" points="345.773,1.18 346.794,2.202 349.569,2.202 350.591,1.18 	"/>
	<polygon fill="#474747" points="350.591,1.18 349.569,2.205 349.569,4.978 350.591,5.998 	"/>
	<polygon fill="#595959" points="350.59,5.998 349.568,4.978 346.794,4.978 345.773,5.998 	"/>
	<polygon fill="#373737" points="345.771,5.998 346.794,4.976 346.794,2.202 345.771,1.18 	"/>
</g>

</svg>
