<?xml version="1.0" encoding="utf-8"?>
<!DOCTYPE svg PUBLIC "-//W3C//DTD SVG 1.1 Basic//EN" "http://www.w3.org/Graphics/SVG/1.1/DTD/svg11-basic.dtd">
<svg version="1.1" baseProfile="basic"
	 xmlns="http://www.w3.org/2000/svg" xmlns:xlink="http://www.w3.org/1999/xlink" x="0px" y="0px" width="4.9in" height="0.10in"
	 viewBox="0 0 351.771 7.178" xml:space="preserve">
	 
<rect id="connector0pin" x="2.198" y="2.197" fill="none" width="2.783" height="2.783"/>
<rect id="connector0terminal" x="2.511" y="2.461" fill="none" width="2.157" height="2.256"/>
<rect id="connector1pin" x="9.377" y="2.197" fill="none" width="2.783" height="2.783"/>
<rect id="connector1terminal" x="9.69" y="2.461" fill="none" width="2.157" height="2.256"/>
<rect id="connector2pin" x="16.556" y="2.197" fill="none" width="2.783" height="2.783"/>
<rect id="connector2terminal" x="16.869" y="2.461" fill="none" width="2.157" height="2.256"/>
<rect id="connector3pin" x="23.735" y="2.197" fill="none" width="2.783" height="2.783"/>
<rect id="connector3terminal" x="24.048" y="2.461" fill="none" width="2.157" height="2.256"/>
<rect id="connector4pin" x="30.914" y="2.197" fill="none" width="2.783" height="2.783"/>
<rect id="connector4terminal" x="31.227" y="2.461" fill="none" width="2.157" height="2.256"/>
<rect id="connector5pin" x="38.093" y="2.197" fill="none" width="2.783" height="2.783"/>
<rect id="connector5terminal" x="38.406" y="2.461" fill="none" width="2.157" height="2.256"/>
<rect id="connector6pin" x="45.272" y="2.197" fill="none" width="2.783" height="2.783"/>
<rect id="connector6terminal" x="45.585" y="2.461" fill="none" width="2.157" height="2.256"/>
<rect id="connector7pin" x="52.451" y="2.197" fill="none" width="2.783" height="2.783"/>
<rect id="connector7terminal" x="52.764" y="2.461" fill="none" width="2.157" height="2.256"/>
<rect id="connector8pin" x="59.63" y="2.197" fill="none" width="2.783" height="2.783"/>
<rect id="connector8terminal" x="59.943" y="2.461" fill="none" width="2.157" height="2.256"/>
<rect id="connector9pin" x="66.809" y="2.197" fill="none" width="2.783" height="2.783"/>
<rect id="connector9terminal" x="67.122" y="2.461" fill="none" width="2.157" height="2.256"/>
<rect id="connector10pin" x="73.988" y="2.197" fill="none" width="2.783" height="2.783"/>
<rect id="connector10terminal" x="74.301" y="2.461" fill="none" width="2.157" height="2.256"/>
<rect id="connector11pin" x="81.167" y="2.197" fill="none" width="2.783" height="2.783"/>
<rect id="connector11terminal" x="81.48" y="2.461" fill="none" width="2.157" height="2.256"/>
<rect id="connector12pin" x="88.346" y="2.197" fill="none" width="2.783" height="2.783"/>
<rect id="connector12terminal" x="88.659" y="2.461" fill="none" width="2.157" height="2.256"/>
<rect id="connector13pin" x="95.525" y="2.197" fill="none" width="2.783" height="2.783"/>
<rect id="connector13terminal" x="95.838" y="2.461" fill="none" width="2.157" height="2.256"/>
<rect id="connector14pin" x="102.704" y="2.197" fill="none" width="2.783" height="2.783"/>
<rect id="connector14terminal" x="103.017" y="2.461" fill="none" width="2.157" height="2.256"/>
<rect id="connector15pin" x="109.883" y="2.197" fill="none" width="2.783" height="2.783"/>
<rect id="connector15terminal" x="110.196" y="2.461" fill="none" width="2.157" height="2.256"/>
<rect id="connector16pin" x="117.062" y="2.197" fill="none" width="2.783" height="2.783"/>
<rect id="connector16terminal" x="117.375" y="2.461" fill="none" width="2.157" height="2.256"/>
<rect id="connector17pin" x="124.241" y="2.197" fill="none" width="2.783" height="2.783"/>
<rect id="connector17terminal" x="124.554" y="2.461" fill="none" width="2.157" height="2.256"/>
<rect id="connector18pin" x="131.42" y="2.197" fill="none" width="2.783" height="2.783"/>
<rect id="connector18terminal" x="131.733" y="2.461" fill="none" width="2.157" height="2.256"/>
<rect id="connector19pin" x="138.599" y="2.197" fill="none" width="2.783" height="2.783"/>
<rect id="connector19terminal" x="138.912" y="2.461" fill="none" width="2.157" height="2.256"/>
<rect id="connector20pin" x="145.778" y="2.197" fill="none" width="2.783" height="2.783"/>
<rect id="connector20terminal" x="146.091" y="2.461" fill="none" width="2.157" height="2.256"/>
<rect id="connector21pin" x="152.957" y="2.197" fill="none" width="2.783" height="2.783"/>
<rect id="connector21terminal" x="153.27" y="2.461" fill="none" width="2.157" height="2.256"/>
<rect id="connector22pin" x="160.136" y="2.197" fill="none" width="2.783" height="2.783"/>
<rect id="connector22terminal" x="160.449" y="2.461" fill="none" width="2.157" height="2.256"/>
<rect id="connector23pin" x="167.315" y="2.197" fill="none" width="2.783" height="2.783"/>
<rect id="connector23terminal" x="167.628" y="2.461" fill="none" width="2.157" height="2.256"/>
<rect id="connector24pin" x="174.494" y="2.197" fill="none" width="2.783" height="2.783"/>
<rect id="connector24terminal" x="174.807" y="2.461" fill="none" width="2.157" height="2.256"/>
<rect id="connector25pin" x="181.673" y="2.197" fill="none" width="2.783" height="2.783"/>
<rect id="connector25terminal" x="181.986" y="2.461" fill="none" width="2.157" height="2.256"/>
<rect id="connector26pin" x="188.852" y="2.197" fill="none" width="2.783" height="2.783"/>
<rect id="connector26terminal" x="189.165" y="2.461" fill="none" width="2.157" height="2.256"/>
<rect id="connector27pin" x="196.031" y="2.197" fill="none" width="2.783" height="2.783"/>
<rect id="connector27terminal" x="196.344" y="2.461" fill="none" width="2.157" height="2.256"/>
<rect id="connector28pin" x="203.21" y="2.197" fill="none" width="2.783" height="2.783"/>
<rect id="connector28terminal" x="203.523" y="2.461" fill="none" width="2.157" height="2.256"/>
<rect id="connector29pin" x="210.389" y="2.197" fill="none" width="2.783" height="2.783"/>
<rect id="connector29terminal" x="210.702" y="2.461" fill="none" width="2.157" height="2.256"/>
<rect id="connector30pin" x="217.568" y="2.197" fill="none" width="2.783" height="2.783"/>
<rect id="connector30terminal" x="217.881" y="2.461" fill="none" width="2.157" height="2.256"/>
<rect id="connector31pin" x="224.747" y="2.197" fill="none" width="2.783" height="2.783"/>
<rect id="connector31terminal" x="225.06" y="2.461" fill="none" width="2.157" height="2.256"/>
<rect id="connector32pin" x="231.926" y="2.197" fill="none" width="2.783" height="2.783"/>
<rect id="connector32terminal" x="232.239" y="2.461" fill="none" width="2.157" height="2.256"/>
<rect id="connector33pin" x="239.105" y="2.197" fill="none" width="2.783" height="2.783"/>
<rect id="connector33terminal" x="239.418" y="2.461" fill="none" width="2.157" height="2.256"/>
<rect id="connector34pin" x="246.284" y="2.197" fill="none" width="2.783" height="2.783"/>
<rect id="connector34terminal" x="246.597" y="2.461" fill="none" width="2.157" height="2.256"/>
<rect id="connector35pin" x="253.463" y="2.197" fill="none" width="2.783" height="2.783"/>
<rect id="connector35terminal" x="253.776" y="2.461" fill="none" width="2.157" height="2.256"/>
<rect id="connector36pin" x="260.642" y="2.197" fill="none" width="2.783" height="2.783"/>
<rect id="connector36terminal" x="260.955" y="2.461" fill="none" width="2.157" height="2.256"/>
<rect id="connector37pin" x="267.821" y="2.197" fill="none" width="2.783" height="2.783"/>
<rect id="connector37terminal" x="268.134" y="2.461" fill="none" width="2.157" height="2.256"/>
<rect id="connector38pin" x="275.0" y="2.197" fill="none" width="2.783" height="2.783"/>
<rect id="connector38terminal" x="275.313" y="2.461" fill="none" width="2.157" height="2.256"/>
<rect id="connector39pin" x="282.179" y="2.197" fill="none" width="2.783" height="2.783"/>
<rect id="connector39terminal" x="282.492" y="2.461" fill="none" width="2.157" height="2.256"/>
<rect id="connector40pin" x="289.358" y="2.197" fill="none" width="2.783" height="2.783"/>
<rect id="connector40terminal" x="289.671" y="2.461" fill="none" width="2.157" height="2.256"/>
<rect id="connector41pin" x="296.537" y="2.197" fill="none" width="2.783" height="2.783"/>
<rect id="connector41terminal" x="296.85" y="2.461" fill="none" width="2.157" height="2.256"/>
<rect id="connector42pin" x="303.716" y="2.197" fill="none" width="2.783" height="2.783"/>
<rect id="connector42terminal" x="304.029" y="2.461" fill="none" width="2.157" height="2.256"/>
<rect id="connector43pin" x="310.895" y="2.197" fill="none" width="2.783" height="2.783"/>
<rect id="connector43terminal" x="311.208" y="2.461" fill="none" width="2.157" height="2.256"/>
<rect id="connector44pin" x="318.074" y="2.197" fill="none" width="2.783" height="2.783"/>
<rect id="connector44terminal" x="318.387" y="2.461" fill="none" width="2.157" height="2.256"/>
<rect id="connector45pin" x="325.253" y="2.197" fill="none" width="2.783" height="2.783"/>
<rect id="connector45terminal" x="325.566" y="2.461" fill="none" width="2.157" height="2.256"/>
<rect id="connector46pin" x="332.432" y="2.197" fill="none" width="2.783" height="2.783"/>
<rect id="connector46terminal" x="332.745" y="2.461" fill="none" width="2.157" height="2.256"/>
<rect id="connector47pin" x="339.611" y="2.197" fill="none" width="2.783" height="2.783"/>
<rect id="connector47terminal" x="339.924" y="2.461" fill="none" width="2.157" height="2.256"/>
<rect id="connector48pin" x="346.79" y="2.197" fill="none" width="2.783" height="2.783"/>
<rect id="connector48terminal" x="347.103" y="2.461" fill="none" width="2.157" height="2.256"/>

<g id="breadboard">
	<rect fill="#404040" width="351.771" height="7.178"/>
	<g>
		<g>
			<path fill="#9A916C" d="M3.59,5.999C4.92,5.999,6.0,4.92,6.0,3.589H1.18C1.18,4.92,2.258,5.999,3.59,5.999z"/>
			<path fill="#80795B" d="M3.59,1.179c-1.332,0-2.41,1.079-2.41,2.41H6.0C6.0,2.258,4.92,1.179,3.59,1.179z"/>
		</g>
		<circle cx="3.59" cy="3.589" r="1.387"/>
	</g>
	<path fill="#BCB59C" d="M3.59,1.679c1.054,0,1.91,0.857,1.91,1.91c0,1.054-0.856,1.91-1.91,1.91c-1.053,0-1.91-0.856-1.91-1.91
		C1.68,2.536,2.537,1.679,3.59,1.679 M3.59,1.179c-1.332,0-2.41,1.079-2.41,2.41s1.078,2.41,2.41,2.41C4.92,5.999,6.0,4.92,6.0,3.589
		S4.92,1.179,3.59,1.179L3.59,1.179z"/>
	<path fill="#7C7557" d="M3.59,2.202c0.766,0,1.387,0.621,1.387,1.387S4.355,4.976,3.59,4.976c-0.767,0-1.387-0.621-1.387-1.387
		S2.823,2.202,3.59,2.202 M3.59,2.102c-0.82,0-1.487,0.667-1.487,1.487c0,0.819,0.667,1.486,1.487,1.486
		c0.819,0,1.486-0.667,1.486-1.486C5.076,2.769,4.409,2.102,3.59,2.102L3.59,2.102z"/>
	<g>
		<g>
			<path fill="#9A916C" d="M10.769,5.999C12.099,5.999,13.179,4.92,13.179,3.589H8.359C8.359,4.92,9.437,5.999,10.769,5.999z"/>
			<path fill="#80795B" d="M10.769,1.179c-1.332,0-2.41,1.079-2.41,2.41H13.179C13.179,2.258,12.099,1.179,10.769,1.179z"/>
		</g>
		<circle cx="10.769" cy="3.589" r="1.387"/>
	</g>
	<path fill="#BCB59C" d="M10.769,1.679c1.054,0,1.91,0.857,1.91,1.91c0,1.054-0.856,1.91-1.91,1.91c-1.053,0-1.91-0.856-1.91-1.91
		C8.859,2.536,9.716,1.679,10.769,1.679 M10.769,1.179c-1.332,0-2.41,1.079-2.41,2.41s1.078,2.41,2.41,2.41C12.099,5.999,13.179,4.92,13.179,3.589
		S12.099,1.179,10.769,1.179L10.769,1.179z"/>
	<path fill="#7C7557" d="M10.769,2.202c0.766,0,1.387,0.621,1.387,1.387S11.534,4.976,10.769,4.976c-0.767,0-1.387-0.621-1.387-1.387
		S10.002,2.202,10.769,2.202 M10.769,2.102c-0.82,0-1.487,0.667-1.487,1.487c0,0.819,0.667,1.486,1.487,1.486
		c0.819,0,1.486-0.667,1.486-1.486C12.255,2.769,11.588,2.102,10.769,2.102L10.769,2.102z"/>
	<g>
		<g>
			<path fill="#9A916C" d="M17.948,5.999C19.278,5.999,20.358,4.92,20.358,3.589H15.538C15.538,4.92,16.616,5.999,17.948,5.999z"/>
			<path fill="#80795B" d="M17.948,1.179c-1.332,0-2.41,1.079-2.41,2.41H20.358C20.358,2.258,19.278,1.179,17.948,1.179z"/>
		</g>
		<circle cx="17.948" cy="3.589" r="1.387"/>
	</g>
	<path fill="#BCB59C" d="M17.948,1.679c1.054,0,1.91,0.857,1.91,1.91c0,1.054-0.856,1.91-1.91,1.91c-1.053,0-1.91-0.856-1.91-1.91
		C16.038,2.536,16.895,1.679,17.948,1.679 M17.948,1.179c-1.332,0-2.41,1.079-2.41,2.41s1.078,2.41,2.41,2.41C19.278,5.999,20.358,4.92,20.358,3.589
		S19.278,1.179,17.948,1.179L17.948,1.179z"/>
	<path fill="#7C7557" d="M17.948,2.202c0.766,0,1.387,0.621,1.387,1.387S18.713,4.976,17.948,4.976c-0.767,0-1.387-0.621-1.387-1.387
		S17.181,2.202,17.948,2.202 M17.948,2.102c-0.82,0-1.487,0.667-1.487,1.487c0,0.819,0.667,1.486,1.487,1.486
		c0.819,0,1.486-0.667,1.486-1.486C19.434,2.769,18.767,2.102,17.948,2.102L17.948,2.102z"/>
	<g>
		<g>
			<path fill="#9A916C" d="M25.127,5.999C26.457,5.999,27.537,4.92,27.537,3.589H22.717C22.717,4.92,23.795,5.999,25.127,5.999z"/>
			<path fill="#80795B" d="M25.127,1.179c-1.332,0-2.41,1.079-2.41,2.41H27.537C27.537,2.258,26.457,1.179,25.127,1.179z"/>
		</g>
		<circle cx="25.127" cy="3.589" r="1.387"/>
	</g>
	<path fill="#BCB59C" d="M25.127,1.679c1.054,0,1.91,0.857,1.91,1.91c0,1.054-0.856,1.91-1.91,1.91c-1.053,0-1.91-0.856-1.91-1.91
		C23.217,2.536,24.074,1.679,25.127,1.679 M25.127,1.179c-1.332,0-2.41,1.079-2.41,2.41s1.078,2.41,2.41,2.41C26.457,5.999,27.537,4.92,27.537,3.589
		S26.457,1.179,25.127,1.179L25.127,1.179z"/>
	<path fill="#7C7557" d="M25.127,2.202c0.766,0,1.387,0.621,1.387,1.387S25.892,4.976,25.127,4.976c-0.767,0-1.387-0.621-1.387-1.387
		S24.36,2.202,25.127,2.202 M25.127,2.102c-0.82,0-1.487,0.667-1.487,1.487c0,0.819,0.667,1.486,1.487,1.486
		c0.819,0,1.486-0.667,1.486-1.486C26.613,2.769,25.946,2.102,25.127,2.102L25.127,2.102z"/>
	<g>
		<g>
			<path fill="#9A916C" d="M32.306,5.999C33.636,5.999,34.716,4.92,34.716,3.589H29.896C29.896,4.92,30.974,5.999,32.306,5.999z"/>
			<path fill="#80795B" d="M32.306,1.179c-1.332,0-2.41,1.079-2.41,2.41H34.716C34.716,2.258,33.636,1.179,32.306,1.179z"/>
		</g>
		<circle cx="32.306" cy="3.589" r="1.387"/>
	</g>
	<path fill="#BCB59C" d="M32.306,1.679c1.054,0,1.91,0.857,1.91,1.91c0,1.054-0.856,1.91-1.91,1.91c-1.053,0-1.91-0.856-1.91-1.91
		C30.396,2.536,31.253,1.679,32.306,1.679 M32.306,1.179c-1.332,0-2.41,1.079-2.41,2.41s1.078,2.41,2.41,2.41C33.636,5.999,34.716,4.92,34.716,3.589
		S33.636,1.179,32.306,1.179L32.306,1.179z"/>
	<path fill="#7C7557" d="M32.306,2.202c0.766,0,1.387,0.621,1.387,1.387S33.071,4.976,32.306,4.976c-0.767,0-1.387-0.621-1.387-1.387
		S31.539,2.202,32.306,2.202 M32.306,2.102c-0.82,0-1.487,0.667-1.487,1.487c0,0.819,0.667,1.486,1.487,1.486
		c0.819,0,1.486-0.667,1.486-1.486C33.792,2.769,33.125,2.102,32.306,2.102L32.306,2.102z"/>
	<g>
		<g>
			<path fill="#9A916C" d="M39.485,5.999C40.815,5.999,41.895,4.92,41.895,3.589H37.075C37.075,4.92,38.153,5.999,39.485,5.999z"/>
			<path fill="#80795B" d="M39.485,1.179c-1.332,0-2.41,1.079-2.41,2.41H41.895C41.895,2.258,40.815,1.179,39.485,1.179z"/>
		</g>
		<circle cx="39.485" cy="3.589" r="1.387"/>
	</g>
	<path fill="#BCB59C" d="M39.485,1.679c1.054,0,1.91,0.857,1.91,1.91c0,1.054-0.856,1.91-1.91,1.91c-1.053,0-1.91-0.856-1.91-1.91
		C37.575,2.536,38.432,1.679,39.485,1.679 M39.485,1.179c-1.332,0-2.41,1.079-2.41,2.41s1.078,2.41,2.41,2.41C40.815,5.999,41.895,4.92,41.895,3.589
		S40.815,1.179,39.485,1.179L39.485,1.179z"/>
	<path fill="#7C7557" d="M39.485,2.202c0.766,0,1.387,0.621,1.387,1.387S40.25,4.976,39.485,4.976c-0.767,0-1.387-0.621-1.387-1.387
		S38.718,2.202,39.485,2.202 M39.485,2.102c-0.82,0-1.487,0.667-1.487,1.487c0,0.819,0.667,1.486,1.487,1.486
		c0.819,0,1.486-0.667,1.486-1.486C40.971,2.769,40.304,2.102,39.485,2.102L39.485,2.102z"/>
	<g>
		<g>
			<path fill="#9A916C" d="M46.664,5.999C47.994,5.999,49.074,4.92,49.074,3.589H44.254C44.254,4.92,45.332,5.999,46.664,5.999z"/>
			<path fill="#80795B" d="M46.664,1.179c-1.332,0-2.41,1.079-2.41,2.41H49.074C49.074,2.258,47.994,1.179,46.664,1.179z"/>
		</g>
		<circle cx="46.664" cy="3.589" r="1.387"/>
	</g>
	<path fill="#BCB59C" d="M46.664,1.679c1.054,0,1.91,0.857,1.91,1.91c0,1.054-0.856,1.91-1.91,1.91c-1.053,0-1.91-0.856-1.91-1.91
		C44.754,2.536,45.611,1.679,46.664,1.679 M46.664,1.179c-1.332,0-2.41,1.079-2.41,2.41s1.078,2.41,2.41,2.41C47.994,5.999,49.074,4.92,49.074,3.589
		S47.994,1.179,46.664,1.179L46.664,1.179z"/>
	<path fill="#7C7557" d="M46.664,2.202c0.766,0,1.387,0.621,1.387,1.387S47.429,4.976,46.664,4.976c-0.767,0-1.387-0.621-1.387-1.387
		S45.897,2.202,46.664,2.202 M46.664,2.102c-0.82,0-1.487,0.667-1.487,1.487c0,0.819,0.667,1.486,1.487,1.486
		c0.819,0,1.486-0.667,1.486-1.486C48.15,2.769,47.483,2.102,46.664,2.102L46.664,2.102z"/>
	<g>
		<g>
			<path fill="#9A916C" d="M53.843,5.999C55.173,5.999,56.253,4.92,56.253,3.589H51.433C51.433,4.92,52.511,5.999,53.843,5.999z"/>
			<path fill="#80795B" d="M53.843,1.179c-1.332,0-2.41,1.079-2.41,2.41H56.253C56.253,2.258,55.173,1.179,53.843,1.179z"/>
		</g>
		<circle cx="53.843" cy="3.589" r="1.387"/>
	</g>
	<path fill="#BCB59C" d="M53.843,1.679c1.054,0,1.91,0.857,1.91,1.91c0,1.054-0.856,1.91-1.91,1.91c-1.053,0-1.91-0.856-1.91-1.91
		C51.933,2.536,52.79,1.679,53.843,1.679 M53.843,1.179c-1.332,0-2.41,1.079-2.41,2.41s1.078,2.41,2.41,2.41C55.173,5.999,56.253,4.92,56.253,3.589
		S55.173,1.179,53.843,1.179L53.843,1.179z"/>
	<path fill="#7C7557" d="M53.843,2.202c0.766,0,1.387,0.621,1.387,1.387S54.608,4.976,53.843,4.976c-0.767,0-1.387-0.621-1.387-1.387
		S53.076,2.202,53.843,2.202 M53.843,2.102c-0.82,0-1.487,0.667-1.487,1.487c0,0.819,0.667,1.486,1.487,1.486
		c0.819,0,1.486-0.667,1.486-1.486C55.329,2.769,54.662,2.102,53.843,2.102L53.843,2.102z"/>
	<g>
		<g>
			<path fill="#9A916C" d="M61.022,5.999C62.352,5.999,63.432,4.92,63.432,3.589H58.612C58.612,4.92,59.69,5.999,61.022,5.999z"/>
			<path fill="#80795B" d="M61.022,1.179c-1.332,0-2.41,1.079-2.41,2.41H63.432C63.432,2.258,62.352,1.179,61.022,1.179z"/>
		</g>
		<circle cx="61.022" cy="3.589" r="1.387"/>
	</g>
	<path fill="#BCB59C" d="M61.022,1.679c1.054,0,1.91,0.857,1.91,1.91c0,1.054-0.856,1.91-1.91,1.91c-1.053,0-1.91-0.856-1.91-1.91
		C59.112,2.536,59.969,1.679,61.022,1.679 M61.022,1.179c-1.332,0-2.41,1.079-2.41,2.41s1.078,2.41,2.41,2.41C62.352,5.999,63.432,4.92,63.432,3.589
		S62.352,1.179,61.022,1.179L61.022,1.179z"/>
	<path fill="#7C7557" d="M61.022,2.202c0.766,0,1.387,0.621,1.387,1.387S61.787,4.976,61.022,4.976c-0.767,0-1.387-0.621-1.387-1.387
		S60.255,2.202,61.022,2.202 M61.022,2.102c-0.82,0-1.487,0.667-1.487,1.487c0,0.819,0.667,1.486,1.487,1.486
		c0.819,0,1.486-0.667,1.486-1.486C62.508,2.769,61.841,2.102,61.022,2.102L61.022,2.102z"/>
	<g>
		<g>
			<path fill="#9A916C" d="M68.201,5.999C69.531,5.999,70.611,4.92,70.611,3.589H65.791C65.791,4.92,66.869,5.999,68.201,5.999z"/>
			<path fill="#80795B" d="M68.201,1.179c-1.332,0-2.41,1.079-2.41,2.41H70.611C70.611,2.258,69.531,1.179,68.201,1.179z"/>
		</g>
		<circle cx="68.201" cy="3.589" r="1.387"/>
	</g>
	<path fill="#BCB59C" d="M68.201,1.679c1.054,0,1.91,0.857,1.91,1.91c0,1.054-0.856,1.91-1.91,1.91c-1.053,0-1.91-0.856-1.91-1.91
		C66.291,2.536,67.148,1.679,68.201,1.679 M68.201,1.179c-1.332,0-2.41,1.079-2.41,2.41s1.078,2.41,2.41,2.41C69.531,5.999,70.611,4.92,70.611,3.589
		S69.531,1.179,68.201,1.179L68.201,1.179z"/>
	<path fill="#7C7557" d="M68.201,2.202c0.766,0,1.387,0.621,1.387,1.387S68.966,4.976,68.201,4.976c-0.767,0-1.387-0.621-1.387-1.387
		S67.434,2.202,68.201,2.202 M68.201,2.102c-0.82,0-1.487,0.667-1.487,1.487c0,0.819,0.667,1.486,1.487,1.486
		c0.819,0,1.486-0.667,1.486-1.486C69.687,2.769,69.02,2.102,68.201,2.102L68.201,2.102z"/>
	<g>
		<g>
			<path fill="#9A916C" d="M75.38,5.999C76.71,5.999,77.79,4.92,77.79,3.589H72.97C72.97,4.92,74.048,5.999,75.38,5.999z"/>
			<path fill="#80795B" d="M75.38,1.179c-1.332,0-2.41,1.079-2.41,2.41H77.79C77.79,2.258,76.71,1.179,75.38,1.179z"/>
		</g>
		<circle cx="75.38" cy="3.589" r="1.387"/>
	</g>
	<path fill="#BCB59C" d="M75.38,1.679c1.054,0,1.91,0.857,1.91,1.91c0,1.054-0.856,1.91-1.91,1.91c-1.053,0-1.91-0.856-1.91-1.91
		C73.47,2.536,74.327,1.679,75.38,1.679 M75.38,1.179c-1.332,0-2.41,1.079-2.41,2.41s1.078,2.41,2.41,2.41C76.71,5.999,77.79,4.92,77.79,3.589
		S76.71,1.179,75.38,1.179L75.38,1.179z"/>
	<path fill="#7C7557" d="M75.38,2.202c0.766,0,1.387,0.621,1.387,1.387S76.145,4.976,75.38,4.976c-0.767,0-1.387-0.621-1.387-1.387
		S74.613,2.202,75.38,2.202 M75.38,2.102c-0.82,0-1.487,0.667-1.487,1.487c0,0.819,0.667,1.486,1.487,1.486
		c0.819,0,1.486-0.667,1.486-1.486C76.866,2.769,76.199,2.102,75.38,2.102L75.38,2.102z"/>
	<g>
		<g>
			<path fill="#9A916C" d="M82.559,5.999C83.889,5.999,84.969,4.92,84.969,3.589H80.149C80.149,4.92,81.227,5.999,82.559,5.999z"/>
			<path fill="#80795B" d="M82.559,1.179c-1.332,0-2.41,1.079-2.41,2.41H84.969C84.969,2.258,83.889,1.179,82.559,1.179z"/>
		</g>
		<circle cx="82.559" cy="3.589" r="1.387"/>
	</g>
	<path fill="#BCB59C" d="M82.559,1.679c1.054,0,1.91,0.857,1.91,1.91c0,1.054-0.856,1.91-1.91,1.91c-1.053,0-1.91-0.856-1.91-1.91
		C80.649,2.536,81.506,1.679,82.559,1.679 M82.559,1.179c-1.332,0-2.41,1.079-2.41,2.41s1.078,2.41,2.41,2.41C83.889,5.999,84.969,4.92,84.969,3.589
		S83.889,1.179,82.559,1.179L82.559,1.179z"/>
	<path fill="#7C7557" d="M82.559,2.202c0.766,0,1.387,0.621,1.387,1.387S83.324,4.976,82.559,4.976c-0.767,0-1.387-0.621-1.387-1.387
		S81.792,2.202,82.559,2.202 M82.559,2.102c-0.82,0-1.487,0.667-1.487,1.487c0,0.819,0.667,1.486,1.487,1.486
		c0.819,0,1.486-0.667,1.486-1.486C84.045,2.769,83.378,2.102,82.559,2.102L82.559,2.102z"/>
	<g>
		<g>
			<path fill="#9A916C" d="M89.738,5.999C91.068,5.999,92.148,4.92,92.148,3.589H87.328C87.328,4.92,88.406,5.999,89.738,5.999z"/>
			<path fill="#80795B" d="M89.738,1.179c-1.332,0-2.41,1.079-2.41,2.41H92.148C92.148,2.258,91.068,1.179,89.738,1.179z"/>
		</g>
		<circle cx="89.738" cy="3.589" r="1.387"/>
	</g>
	<path fill="#BCB59C" d="M89.738,1.679c1.054,0,1.91,0.857,1.91,1.91c0,1.054-0.856,1.91-1.91,1.91c-1.053,0-1.91-0.856-1.91-1.91
		C87.828,2.536,88.685,1.679,89.738,1.679 M89.738,1.179c-1.332,0-2.41,1.079-2.41,2.41s1.078,2.41,2.41,2.41C91.068,5.999,92.148,4.92,92.148,3.589
		S91.068,1.179,89.738,1.179L89.738,1.179z"/>
	<path fill="#7C7557" d="M89.738,2.202c0.766,0,1.387,0.621,1.387,1.387S90.503,4.976,89.738,4.976c-0.767,0-1.387-0.621-1.387-1.387
		S88.971,2.202,89.738,2.202 M89.738,2.102c-0.82,0-1.487,0.667-1.487,1.487c0,0.819,0.667,1.486,1.487,1.486
		c0.819,0,1.486-0.667,1.486-1.486C91.224,2.769,90.557,2.102,89.738,2.102L89.738,2.102z"/>
	<g>
		<g>
			<path fill="#9A916C" d="M96.917,5.999C98.247,5.999,99.327,4.92,99.327,3.589H94.507C94.507,4.92,95.585,5.999,96.917,5.999z"/>
			<path fill="#80795B" d="M96.917,1.179c-1.332,0-2.41,1.079-2.41,2.41H99.327C99.327,2.258,98.247,1.179,96.917,1.179z"/>
		</g>
		<circle cx="96.917" cy="3.589" r="1.387"/>
	</g>
	<path fill="#BCB59C" d="M96.917,1.679c1.054,0,1.91,0.857,1.91,1.91c0,1.054-0.856,1.91-1.91,1.91c-1.053,0-1.91-0.856-1.91-1.91
		C95.007,2.536,95.864,1.679,96.917,1.679 M96.917,1.179c-1.332,0-2.41,1.079-2.41,2.41s1.078,2.41,2.41,2.41C98.247,5.999,99.327,4.92,99.327,3.589
		S98.247,1.179,96.917,1.179L96.917,1.179z"/>
	<path fill="#7C7557" d="M96.917,2.202c0.766,0,1.387,0.621,1.387,1.387S97.682,4.976,96.917,4.976c-0.767,0-1.387-0.621-1.387-1.387
		S96.15,2.202,96.917,2.202 M96.917,2.102c-0.82,0-1.487,0.667-1.487,1.487c0,0.819,0.667,1.486,1.487,1.486
		c0.819,0,1.486-0.667,1.486-1.486C98.403,2.769,97.736,2.102,96.917,2.102L96.917,2.102z"/>
	<g>
		<g>
			<path fill="#9A916C" d="M104.096,5.999C105.426,5.999,106.506,4.92,106.506,3.589H101.686C101.686,4.92,102.764,5.999,104.096,5.999z"/>
			<path fill="#80795B" d="M104.096,1.179c-1.332,0-2.41,1.079-2.41,2.41H106.506C106.506,2.258,105.426,1.179,104.096,1.179z"/>
		</g>
		<circle cx="104.096" cy="3.589" r="1.387"/>
	</g>
	<path fill="#BCB59C" d="M104.096,1.679c1.054,0,1.91,0.857,1.91,1.91c0,1.054-0.856,1.91-1.91,1.91c-1.053,0-1.91-0.856-1.91-1.91
		C102.186,2.536,103.043,1.679,104.096,1.679 M104.096,1.179c-1.332,0-2.41,1.079-2.41,2.41s1.078,2.41,2.41,2.41C105.426,5.999,106.506,4.92,106.506,3.589
		S105.426,1.179,104.096,1.179L104.096,1.179z"/>
	<path fill="#7C7557" d="M104.096,2.202c0.766,0,1.387,0.621,1.387,1.387S104.861,4.976,104.096,4.976c-0.767,0-1.387-0.621-1.387-1.387
		S103.329,2.202,104.096,2.202 M104.096,2.102c-0.82,0-1.487,0.667-1.487,1.487c0,0.819,0.667,1.486,1.487,1.486
		c0.819,0,1.486-0.667,1.486-1.486C105.582,2.769,104.915,2.102,104.096,2.102L104.096,2.102z"/>
	<g>
		<g>
			<path fill="#9A916C" d="M111.275,5.999C112.605,5.999,113.685,4.92,113.685,3.589H108.865C108.865,4.92,109.943,5.999,111.275,5.999z"/>
			<path fill="#80795B" d="M111.275,1.179c-1.332,0-2.41,1.079-2.41,2.41H113.685C113.685,2.258,112.605,1.179,111.275,1.179z"/>
		</g>
		<circle cx="111.275" cy="3.589" r="1.387"/>
	</g>
	<path fill="#BCB59C" d="M111.275,1.679c1.054,0,1.91,0.857,1.91,1.91c0,1.054-0.856,1.91-1.91,1.91c-1.053,0-1.91-0.856-1.91-1.91
		C109.365,2.536,110.222,1.679,111.275,1.679 M111.275,1.179c-1.332,0-2.41,1.079-2.41,2.41s1.078,2.41,2.41,2.41C112.605,5.999,113.685,4.92,113.685,3.589
		S112.605,1.179,111.275,1.179L111.275,1.179z"/>
	<path fill="#7C7557" d="M111.275,2.202c0.766,0,1.387,0.621,1.387,1.387S112.04,4.976,111.275,4.976c-0.767,0-1.387-0.621-1.387-1.387
		S110.508,2.202,111.275,2.202 M111.275,2.102c-0.82,0-1.487,0.667-1.487,1.487c0,0.819,0.667,1.486,1.487,1.486
		c0.819,0,1.486-0.667,1.486-1.486C112.761,2.769,112.094,2.102,111.275,2.102L111.275,2.102z"/>
	<g>
		<g>
			<path fill="#9A916C" d="M118.454,5.999C119.784,5.999,120.864,4.92,120.864,3.589H116.044C116.044,4.92,117.122,5.999,118.454,5.999z"/>
			<path fill="#80795B" d="M118.454,1.179c-1.332,0-2.41,1.079-2.41,2.41H120.864C120.864,2.258,119.784,1.179,118.454,1.179z"/>
		</g>
		<circle cx="118.454" cy="3.589" r="1.387"/>
	</g>
	<path fill="#BCB59C" d="M118.454,1.679c1.054,0,1.91,0.857,1.91,1.91c0,1.054-0.856,1.91-1.91,1.91c-1.053,0-1.91-0.856-1.91-1.91
		C116.544,2.536,117.401,1.679,118.454,1.679 M118.454,1.179c-1.332,0-2.41,1.079-2.41,2.41s1.078,2.41,2.41,2.41C119.784,5.999,120.864,4.92,120.864,3.589
		S119.784,1.179,118.454,1.179L118.454,1.179z"/>
	<path fill="#7C7557" d="M118.454,2.202c0.766,0,1.387,0.621,1.387,1.387S119.219,4.976,118.454,4.976c-0.767,0-1.387-0.621-1.387-1.387
		S117.687,2.202,118.454,2.202 M118.454,2.102c-0.82,0-1.487,0.667-1.487,1.487c0,0.819,0.667,1.486,1.487,1.486
		c0.819,0,1.486-0.667,1.486-1.486C119.94,2.769,119.273,2.102,118.454,2.102L118.454,2.102z"/>
	<g>
		<g>
			<path fill="#9A916C" d="M125.633,5.999C126.963,5.999,128.043,4.92,128.043,3.589H123.223C123.223,4.92,124.301,5.999,125.633,5.999z"/>
			<path fill="#80795B" d="M125.633,1.179c-1.332,0-2.41,1.079-2.41,2.41H128.043C128.043,2.258,126.963,1.179,125.633,1.179z"/>
		</g>
		<circle cx="125.633" cy="3.589" r="1.387"/>
	</g>
	<path fill="#BCB59C" d="M125.633,1.679c1.054,0,1.91,0.857,1.91,1.91c0,1.054-0.856,1.91-1.91,1.91c-1.053,0-1.91-0.856-1.91-1.91
		C123.723,2.536,124.58,1.679,125.633,1.679 M125.633,1.179c-1.332,0-2.41,1.079-2.41,2.41s1.078,2.41,2.41,2.41C126.963,5.999,128.043,4.92,128.043,3.589
		S126.963,1.179,125.633,1.179L125.633,1.179z"/>
	<path fill="#7C7557" d="M125.633,2.202c0.766,0,1.387,0.621,1.387,1.387S126.398,4.976,125.633,4.976c-0.767,0-1.387-0.621-1.387-1.387
		S124.866,2.202,125.633,2.202 M125.633,2.102c-0.82,0-1.487,0.667-1.487,1.487c0,0.819,0.667,1.486,1.487,1.486
		c0.819,0,1.486-0.667,1.486-1.486C127.119,2.769,126.452,2.102,125.633,2.102L125.633,2.102z"/>
	<g>
		<g>
			<path fill="#9A916C" d="M132.812,5.999C134.142,5.999,135.222,4.92,135.222,3.589H130.402C130.402,4.92,131.48,5.999,132.812,5.999z"/>
			<path fill="#80795B" d="M132.812,1.179c-1.332,0-2.41,1.079-2.41,2.41H135.222C135.222,2.258,134.142,1.179,132.812,1.179z"/>
		</g>
		<circle cx="132.812" cy="3.589" r="1.387"/>
	</g>
	<path fill="#BCB59C" d="M132.812,1.679c1.054,0,1.91,0.857,1.91,1.91c0,1.054-0.856,1.91-1.91,1.91c-1.053,0-1.91-0.856-1.91-1.91
		C130.902,2.536,131.759,1.679,132.812,1.679 M132.812,1.179c-1.332,0-2.41,1.079-2.41,2.41s1.078,2.41,2.41,2.41C134.142,5.999,135.222,4.92,135.222,3.589
		S134.142,1.179,132.812,1.179L132.812,1.179z"/>
	<path fill="#7C7557" d="M132.812,2.202c0.766,0,1.387,0.621,1.387,1.387S133.577,4.976,132.812,4.976c-0.767,0-1.387-0.621-1.387-1.387
		S132.045,2.202,132.812,2.202 M132.812,2.102c-0.82,0-1.487,0.667-1.487,1.487c0,0.819,0.667,1.486,1.487,1.486
		c0.819,0,1.486-0.667,1.486-1.486C134.298,2.769,133.631,2.102,132.812,2.102L132.812,2.102z"/>
	<g>
		<g>
			<path fill="#9A916C" d="M139.991,5.999C141.321,5.999,142.401,4.92,142.401,3.589H137.581C137.581,4.92,138.659,5.999,139.991,5.999z"/>
			<path fill="#80795B" d="M139.991,1.179c-1.332,0-2.41,1.079-2.41,2.41H142.401C142.401,2.258,141.321,1.179,139.991,1.179z"/>
		</g>
		<circle cx="139.991" cy="3.589" r="1.387"/>
	</g>
	<path fill="#BCB59C" d="M139.991,1.679c1.054,0,1.91,0.857,1.91,1.91c0,1.054-0.856,1.91-1.91,1.91c-1.053,0-1.91-0.856-1.91-1.91
		C138.081,2.536,138.938,1.679,139.991,1.679 M139.991,1.179c-1.332,0-2.41,1.079-2.41,2.41s1.078,2.41,2.41,2.41C141.321,5.999,142.401,4.92,142.401,3.589
		S141.321,1.179,139.991,1.179L139.991,1.179z"/>
	<path fill="#7C7557" d="M139.991,2.202c0.766,0,1.387,0.621,1.387,1.387S140.756,4.976,139.991,4.976c-0.767,0-1.387-0.621-1.387-1.387
		S139.224,2.202,139.991,2.202 M139.991,2.102c-0.82,0-1.487,0.667-1.487,1.487c0,0.819,0.667,1.486,1.487,1.486
		c0.819,0,1.486-0.667,1.486-1.486C141.477,2.769,140.81,2.102,139.991,2.102L139.991,2.102z"/>
	<g>
		<g>
			<path fill="#9A916C" d="M147.17,5.999C148.5,5.999,149.58,4.92,149.58,3.589H144.76C144.76,4.92,145.838,5.999,147.17,5.999z"/>
			<path fill="#80795B" d="M147.17,1.179c-1.332,0-2.41,1.079-2.41,2.41H149.58C149.58,2.258,148.5,1.179,147.17,1.179z"/>
		</g>
		<circle cx="147.17" cy="3.589" r="1.387"/>
	</g>
	<path fill="#BCB59C" d="M147.17,1.679c1.054,0,1.91,0.857,1.91,1.91c0,1.054-0.856,1.91-1.91,1.91c-1.053,0-1.91-0.856-1.91-1.91
		C145.26,2.536,146.117,1.679,147.17,1.679 M147.17,1.179c-1.332,0-2.41,1.079-2.41,2.41s1.078,2.41,2.41,2.41C148.5,5.999,149.58,4.92,149.58,3.589
		S148.5,1.179,147.17,1.179L147.17,1.179z"/>
	<path fill="#7C7557" d="M147.17,2.202c0.766,0,1.387,0.621,1.387,1.387S147.935,4.976,147.17,4.976c-0.767,0-1.387-0.621-1.387-1.387
		S146.403,2.202,147.17,2.202 M147.17,2.102c-0.82,0-1.487,0.667-1.487,1.487c0,0.819,0.667,1.486,1.487,1.486
		c0.819,0,1.486-0.667,1.486-1.486C148.656,2.769,147.989,2.102,147.17,2.102L147.17,2.102z"/>
	<g>
		<g>
			<path fill="#9A916C" d="M154.349,5.999C155.679,5.999,156.759,4.92,156.759,3.589H151.939C151.939,4.92,153.017,5.999,154.349,5.999z"/>
			<path fill="#80795B" d="M154.349,1.179c-1.332,0-2.41,1.079-2.41,2.41H156.759C156.759,2.258,155.679,1.179,154.349,1.179z"/>
		</g>
		<circle cx="154.349" cy="3.589" r="1.387"/>
	</g>
	<path fill="#BCB59C" d="M154.349,1.679c1.054,0,1.91,0.857,1.91,1.91c0,1.054-0.856,1.91-1.91,1.91c-1.053,0-1.91-0.856-1.91-1.91
		C152.439,2.536,153.296,1.679,154.349,1.679 M154.349,1.179c-1.332,0-2.41,1.079-2.41,2.41s1.078,2.41,2.41,2.41C155.679,5.999,156.759,4.92,156.759,3.589
		S155.679,1.179,154.349,1.179L154.349,1.179z"/>
	<path fill="#7C7557" d="M154.349,2.202c0.766,0,1.387,0.621,1.387,1.387S155.114,4.976,154.349,4.976c-0.767,0-1.387-0.621-1.387-1.387
		S153.582,2.202,154.349,2.202 M154.349,2.102c-0.82,0-1.487,0.667-1.487,1.487c0,0.819,0.667,1.486,1.487,1.486
		c0.819,0,1.486-0.667,1.486-1.486C155.835,2.769,155.168,2.102,154.349,2.102L154.349,2.102z"/>
	<g>
		<g>
			<path fill="#9A916C" d="M161.528,5.999C162.858,5.999,163.938,4.92,163.938,3.589H159.118C159.118,4.92,160.196,5.999,161.528,5.999z"/>
			<path fill="#80795B" d="M161.528,1.179c-1.332,0-2.41,1.079-2.41,2.41H163.938C163.938,2.258,162.858,1.179,161.528,1.179z"/>
		</g>
		<circle cx="161.528" cy="3.589" r="1.387"/>
	</g>
	<path fill="#BCB59C" d="M161.528,1.679c1.054,0,1.91,0.857,1.91,1.91c0,1.054-0.856,1.91-1.91,1.91c-1.053,0-1.91-0.856-1.91-1.91
		C159.618,2.536,160.475,1.679,161.528,1.679 M161.528,1.179c-1.332,0-2.41,1.079-2.41,2.41s1.078,2.41,2.41,2.41C162.858,5.999,163.938,4.92,163.938,3.589
		S162.858,1.179,161.528,1.179L161.528,1.179z"/>
	<path fill="#7C7557" d="M161.528,2.202c0.766,0,1.387,0.621,1.387,1.387S162.293,4.976,161.528,4.976c-0.767,0-1.387-0.621-1.387-1.387
		S160.761,2.202,161.528,2.202 M161.528,2.102c-0.82,0-1.487,0.667-1.487,1.487c0,0.819,0.667,1.486,1.487,1.486
		c0.819,0,1.486-0.667,1.486-1.486C163.014,2.769,162.347,2.102,161.528,2.102L161.528,2.102z"/>
	<g>
		<g>
			<path fill="#9A916C" d="M168.707,5.999C170.037,5.999,171.117,4.92,171.117,3.589H166.297C166.297,4.92,167.375,5.999,168.707,5.999z"/>
			<path fill="#80795B" d="M168.707,1.179c-1.332,0-2.41,1.079-2.41,2.41H171.117C171.117,2.258,170.037,1.179,168.707,1.179z"/>
		</g>
		<circle cx="168.707" cy="3.589" r="1.387"/>
	</g>
	<path fill="#BCB59C" d="M168.707,1.679c1.054,0,1.91,0.857,1.91,1.91c0,1.054-0.856,1.91-1.91,1.91c-1.053,0-1.91-0.856-1.91-1.91
		C166.797,2.536,167.654,1.679,168.707,1.679 M168.707,1.179c-1.332,0-2.41,1.079-2.41,2.41s1.078,2.41,2.41,2.41C170.037,5.999,171.117,4.92,171.117,3.589
		S170.037,1.179,168.707,1.179L168.707,1.179z"/>
	<path fill="#7C7557" d="M168.707,2.202c0.766,0,1.387,0.621,1.387,1.387S169.472,4.976,168.707,4.976c-0.767,0-1.387-0.621-1.387-1.387
		S167.94,2.202,168.707,2.202 M168.707,2.102c-0.82,0-1.487,0.667-1.487,1.487c0,0.819,0.667,1.486,1.487,1.486
		c0.819,0,1.486-0.667,1.486-1.486C170.193,2.769,169.526,2.102,168.707,2.102L168.707,2.102z"/>
	<g>
		<g>
			<path fill="#9A916C" d="M175.886,5.999C177.216,5.999,178.296,4.92,178.296,3.589H173.476C173.476,4.92,174.554,5.999,175.886,5.999z"/>
			<path fill="#80795B" d="M175.886,1.179c-1.332,0-2.41,1.079-2.41,2.41H178.296C178.296,2.258,177.216,1.179,175.886,1.179z"/>
		</g>
		<circle cx="175.886" cy="3.589" r="1.387"/>
	</g>
	<path fill="#BCB59C" d="M175.886,1.679c1.054,0,1.91,0.857,1.91,1.91c0,1.054-0.856,1.91-1.91,1.91c-1.053,0-1.91-0.856-1.91-1.91
		C173.976,2.536,174.833,1.679,175.886,1.679 M175.886,1.179c-1.332,0-2.41,1.079-2.41,2.41s1.078,2.41,2.41,2.41C177.216,5.999,178.296,4.92,178.296,3.589
		S177.216,1.179,175.886,1.179L175.886,1.179z"/>
	<path fill="#7C7557" d="M175.886,2.202c0.766,0,1.387,0.621,1.387,1.387S176.651,4.976,175.886,4.976c-0.767,0-1.387-0.621-1.387-1.387
		S175.119,2.202,175.886,2.202 M175.886,2.102c-0.82,0-1.487,0.667-1.487,1.487c0,0.819,0.667,1.486,1.487,1.486
		c0.819,0,1.486-0.667,1.486-1.486C177.372,2.769,176.705,2.102,175.886,2.102L175.886,2.102z"/>
	<g>
		<g>
			<path fill="#9A916C" d="M183.065,5.999C184.395,5.999,185.475,4.92,185.475,3.589H180.655C180.655,4.92,181.733,5.999,183.065,5.999z"/>
			<path fill="#80795B" d="M183.065,1.179c-1.332,0-2.41,1.079-2.41,2.41H185.475C185.475,2.258,184.395,1.179,183.065,1.179z"/>
		</g>
		<circle cx="183.065" cy="3.589" r="1.387"/>
	</g>
	<path fill="#BCB59C" d="M183.065,1.679c1.054,0,1.91,0.857,1.91,1.91c0,1.054-0.856,1.91-1.91,1.91c-1.053,0-1.91-0.856-1.91-1.91
		C181.155,2.536,182.012,1.679,183.065,1.679 M183.065,1.179c-1.332,0-2.41,1.079-2.41,2.41s1.078,2.41,2.41,2.41C184.395,5.999,185.475,4.92,185.475,3.589
		S184.395,1.179,183.065,1.179L183.065,1.179z"/>
	<path fill="#7C7557" d="M183.065,2.202c0.766,0,1.387,0.621,1.387,1.387S183.83,4.976,183.065,4.976c-0.767,0-1.387-0.621-1.387-1.387
		S182.298,2.202,183.065,2.202 M183.065,2.102c-0.82,0-1.487,0.667-1.487,1.487c0,0.819,0.667,1.486,1.487,1.486
		c0.819,0,1.486-0.667,1.486-1.486C184.551,2.769,183.884,2.102,183.065,2.102L183.065,2.102z"/>
	<g>
		<g>
			<path fill="#9A916C" d="M190.244,5.999C191.574,5.999,192.654,4.92,192.654,3.589H187.834C187.834,4.92,188.912,5.999,190.244,5.999z"/>
			<path fill="#80795B" d="M190.244,1.179c-1.332,0-2.41,1.079-2.41,2.41H192.654C192.654,2.258,191.574,1.179,190.244,1.179z"/>
		</g>
		<circle cx="190.244" cy="3.589" r="1.387"/>
	</g>
	<path fill="#BCB59C" d="M190.244,1.679c1.054,0,1.91,0.857,1.91,1.91c0,1.054-0.856,1.91-1.91,1.91c-1.053,0-1.91-0.856-1.91-1.91
		C188.334,2.536,189.191,1.679,190.244,1.679 M190.244,1.179c-1.332,0-2.41,1.079-2.41,2.41s1.078,2.41,2.41,2.41C191.574,5.999,192.654,4.92,192.654,3.589
		S191.574,1.179,190.244,1.179L190.244,1.179z"/>
	<path fill="#7C7557" d="M190.244,2.202c0.766,0,1.387,0.621,1.387,1.387S191.009,4.976,190.244,4.976c-0.767,0-1.387-0.621-1.387-1.387
		S189.477,2.202,190.244,2.202 M190.244,2.102c-0.82,0-1.487,0.667-1.487,1.487c0,0.819,0.667,1.486,1.487,1.486
		c0.819,0,1.486-0.667,1.486-1.486C191.73,2.769,191.063,2.102,190.244,2.102L190.244,2.102z"/>
	<g>
		<g>
			<path fill="#9A916C" d="M197.423,5.999C198.753,5.999,199.833,4.92,199.833,3.589H195.013C195.013,4.92,196.091,5.999,197.423,5.999z"/>
			<path fill="#80795B" d="M197.423,1.179c-1.332,0-2.41,1.079-2.41,2.41H199.833C199.833,2.258,198.753,1.179,197.423,1.179z"/>
		</g>
		<circle cx="197.423" cy="3.589" r="1.387"/>
	</g>
	<path fill="#BCB59C" d="M197.423,1.679c1.054,0,1.91,0.857,1.91,1.91c0,1.054-0.856,1.91-1.91,1.91c-1.053,0-1.91-0.856-1.91-1.91
		C195.513,2.536,196.37,1.679,197.423,1.679 M197.423,1.179c-1.332,0-2.41,1.079-2.41,2.41s1.078,2.41,2.41,2.41C198.753,5.999,199.833,4.92,199.833,3.589
		S198.753,1.179,197.423,1.179L197.423,1.179z"/>
	<path fill="#7C7557" d="M197.423,2.202c0.766,0,1.387,0.621,1.387,1.387S198.188,4.976,197.423,4.976c-0.767,0-1.387-0.621-1.387-1.387
		S196.656,2.202,197.423,2.202 M197.423,2.102c-0.82,0-1.487,0.667-1.487,1.487c0,0.819,0.667,1.486,1.487,1.486
		c0.819,0,1.486-0.667,1.486-1.486C198.909,2.769,198.242,2.102,197.423,2.102L197.423,2.102z"/>
	<g>
		<g>
			<path fill="#9A916C" d="M204.602,5.999C205.932,5.999,207.012,4.92,207.012,3.589H202.192C202.192,4.92,203.27,5.999,204.602,5.999z"/>
			<path fill="#80795B" d="M204.602,1.179c-1.332,0-2.41,1.079-2.41,2.41H207.012C207.012,2.258,205.932,1.179,204.602,1.179z"/>
		</g>
		<circle cx="204.602" cy="3.589" r="1.387"/>
	</g>
	<path fill="#BCB59C" d="M204.602,1.679c1.054,0,1.91,0.857,1.91,1.91c0,1.054-0.856,1.91-1.91,1.91c-1.053,0-1.91-0.856-1.91-1.91
		C202.692,2.536,203.549,1.679,204.602,1.679 M204.602,1.179c-1.332,0-2.41,1.079-2.41,2.41s1.078,2.41,2.41,2.41C205.932,5.999,207.012,4.92,207.012,3.589
		S205.932,1.179,204.602,1.179L204.602,1.179z"/>
	<path fill="#7C7557" d="M204.602,2.202c0.766,0,1.387,0.621,1.387,1.387S205.367,4.976,204.602,4.976c-0.767,0-1.387-0.621-1.387-1.387
		S203.835,2.202,204.602,2.202 M204.602,2.102c-0.82,0-1.487,0.667-1.487,1.487c0,0.819,0.667,1.486,1.487,1.486
		c0.819,0,1.486-0.667,1.486-1.486C206.088,2.769,205.421,2.102,204.602,2.102L204.602,2.102z"/>
	<g>
		<g>
			<path fill="#9A916C" d="M211.781,5.999C213.111,5.999,214.191,4.92,214.191,3.589H209.371C209.371,4.92,210.449,5.999,211.781,5.999z"/>
			<path fill="#80795B" d="M211.781,1.179c-1.332,0-2.41,1.079-2.41,2.41H214.191C214.191,2.258,213.111,1.179,211.781,1.179z"/>
		</g>
		<circle cx="211.781" cy="3.589" r="1.387"/>
	</g>
	<path fill="#BCB59C" d="M211.781,1.679c1.054,0,1.91,0.857,1.91,1.91c0,1.054-0.856,1.91-1.91,1.91c-1.053,0-1.91-0.856-1.91-1.91
		C209.871,2.536,210.728,1.679,211.781,1.679 M211.781,1.179c-1.332,0-2.41,1.079-2.41,2.41s1.078,2.41,2.41,2.41C213.111,5.999,214.191,4.92,214.191,3.589
		S213.111,1.179,211.781,1.179L211.781,1.179z"/>
	<path fill="#7C7557" d="M211.781,2.202c0.766,0,1.387,0.621,1.387,1.387S212.546,4.976,211.781,4.976c-0.767,0-1.387-0.621-1.387-1.387
		S211.014,2.202,211.781,2.202 M211.781,2.102c-0.82,0-1.487,0.667-1.487,1.487c0,0.819,0.667,1.486,1.487,1.486
		c0.819,0,1.486-0.667,1.486-1.486C213.267,2.769,212.6,2.102,211.781,2.102L211.781,2.102z"/>
	<g>
		<g>
			<path fill="#9A916C" d="M218.96,5.999C220.29,5.999,221.37,4.92,221.37,3.589H216.55C216.55,4.92,217.628,5.999,218.96,5.999z"/>
			<path fill="#80795B" d="M218.96,1.179c-1.332,0-2.41,1.079-2.41,2.41H221.37C221.37,2.258,220.29,1.179,218.96,1.179z"/>
		</g>
		<circle cx="218.96" cy="3.589" r="1.387"/>
	</g>
	<path fill="#BCB59C" d="M218.96,1.679c1.054,0,1.91,0.857,1.91,1.91c0,1.054-0.856,1.91-1.91,1.91c-1.053,0-1.91-0.856-1.91-1.91
		C217.05,2.536,217.907,1.679,218.96,1.679 M218.96,1.179c-1.332,0-2.41,1.079-2.41,2.41s1.078,2.41,2.41,2.41C220.29,5.999,221.37,4.92,221.37,3.589
		S220.29,1.179,218.96,1.179L218.96,1.179z"/>
	<path fill="#7C7557" d="M218.96,2.202c0.766,0,1.387,0.621,1.387,1.387S219.725,4.976,218.96,4.976c-0.767,0-1.387-0.621-1.387-1.387
		S218.193,2.202,218.96,2.202 M218.96,2.102c-0.82,0-1.487,0.667-1.487,1.487c0,0.819,0.667,1.486,1.487,1.486
		c0.819,0,1.486-0.667,1.486-1.486C220.446,2.769,219.779,2.102,218.96,2.102L218.96,2.102z"/>
	<g>
		<g>
			<path fill="#9A916C" d="M226.139,5.999C227.469,5.999,228.549,4.92,228.549,3.589H223.729C223.729,4.92,224.807,5.999,226.139,5.999z"/>
			<path fill="#80795B" d="M226.139,1.179c-1.332,0-2.41,1.079-2.41,2.41H228.549C228.549,2.258,227.469,1.179,226.139,1.179z"/>
		</g>
		<circle cx="226.139" cy="3.589" r="1.387"/>
	</g>
	<path fill="#BCB59C" d="M226.139,1.679c1.054,0,1.91,0.857,1.91,1.91c0,1.054-0.856,1.91-1.91,1.91c-1.053,0-1.91-0.856-1.91-1.91
		C224.229,2.536,225.086,1.679,226.139,1.679 M226.139,1.179c-1.332,0-2.41,1.079-2.41,2.41s1.078,2.41,2.41,2.41C227.469,5.999,228.549,4.92,228.549,3.589
		S227.469,1.179,226.139,1.179L226.139,1.179z"/>
	<path fill="#7C7557" d="M226.139,2.202c0.766,0,1.387,0.621,1.387,1.387S226.904,4.976,226.139,4.976c-0.767,0-1.387-0.621-1.387-1.387
		S225.372,2.202,226.139,2.202 M226.139,2.102c-0.82,0-1.487,0.667-1.487,1.487c0,0.819,0.667,1.486,1.487,1.486
		c0.819,0,1.486-0.667,1.486-1.486C227.625,2.769,226.958,2.102,226.139,2.102L226.139,2.102z"/>
	<g>
		<g>
			<path fill="#9A916C" d="M233.318,5.999C234.648,5.999,235.728,4.92,235.728,3.589H230.908C230.908,4.92,231.986,5.999,233.318,5.999z"/>
			<path fill="#80795B" d="M233.318,1.179c-1.332,0-2.41,1.079-2.41,2.41H235.728C235.728,2.258,234.648,1.179,233.318,1.179z"/>
		</g>
		<circle cx="233.318" cy="3.589" r="1.387"/>
	</g>
	<path fill="#BCB59C" d="M233.318,1.679c1.054,0,1.91,0.857,1.91,1.91c0,1.054-0.856,1.91-1.91,1.91c-1.053,0-1.91-0.856-1.91-1.91
		C231.408,2.536,232.265,1.679,233.318,1.679 M233.318,1.179c-1.332,0-2.41,1.079-2.41,2.41s1.078,2.41,2.41,2.41C234.648,5.999,235.728,4.92,235.728,3.589
		S234.648,1.179,233.318,1.179L233.318,1.179z"/>
	<path fill="#7C7557" d="M233.318,2.202c0.766,0,1.387,0.621,1.387,1.387S234.083,4.976,233.318,4.976c-0.767,0-1.387-0.621-1.387-1.387
		S232.551,2.202,233.318,2.202 M233.318,2.102c-0.82,0-1.487,0.667-1.487,1.487c0,0.819,0.667,1.486,1.487,1.486
		c0.819,0,1.486-0.667,1.486-1.486C234.804,2.769,234.137,2.102,233.318,2.102L233.318,2.102z"/>
	<g>
		<g>
			<path fill="#9A916C" d="M240.497,5.999C241.827,5.999,242.907,4.92,242.907,3.589H238.087C238.087,4.92,239.165,5.999,240.497,5.999z"/>
			<path fill="#80795B" d="M240.497,1.179c-1.332,0-2.41,1.079-2.41,2.41H242.907C242.907,2.258,241.827,1.179,240.497,1.179z"/>
		</g>
		<circle cx="240.497" cy="3.589" r="1.387"/>
	</g>
	<path fill="#BCB59C" d="M240.497,1.679c1.054,0,1.91,0.857,1.91,1.91c0,1.054-0.856,1.91-1.91,1.91c-1.053,0-1.91-0.856-1.91-1.91
		C238.587,2.536,239.444,1.679,240.497,1.679 M240.497,1.179c-1.332,0-2.41,1.079-2.41,2.41s1.078,2.41,2.41,2.41C241.827,5.999,242.907,4.92,242.907,3.589
		S241.827,1.179,240.497,1.179L240.497,1.179z"/>
	<path fill="#7C7557" d="M240.497,2.202c0.766,0,1.387,0.621,1.387,1.387S241.262,4.976,240.497,4.976c-0.767,0-1.387-0.621-1.387-1.387
		S239.73,2.202,240.497,2.202 M240.497,2.102c-0.82,0-1.487,0.667-1.487,1.487c0,0.819,0.667,1.486,1.487,1.486
		c0.819,0,1.486-0.667,1.486-1.486C241.983,2.769,241.316,2.102,240.497,2.102L240.497,2.102z"/>
	<g>
		<g>
			<path fill="#9A916C" d="M247.676,5.999C249.006,5.999,250.086,4.92,250.086,3.589H245.266C245.266,4.92,246.344,5.999,247.676,5.999z"/>
			<path fill="#80795B" d="M247.676,1.179c-1.332,0-2.41,1.079-2.41,2.41H250.086C250.086,2.258,249.006,1.179,247.676,1.179z"/>
		</g>
		<circle cx="247.676" cy="3.589" r="1.387"/>
	</g>
	<path fill="#BCB59C" d="M247.676,1.679c1.054,0,1.91,0.857,1.91,1.91c0,1.054-0.856,1.91-1.91,1.91c-1.053,0-1.91-0.856-1.91-1.91
		C245.766,2.536,246.623,1.679,247.676,1.679 M247.676,1.179c-1.332,0-2.41,1.079-2.41,2.41s1.078,2.41,2.41,2.41C249.006,5.999,250.086,4.92,250.086,3.589
		S249.006,1.179,247.676,1.179L247.676,1.179z"/>
	<path fill="#7C7557" d="M247.676,2.202c0.766,0,1.387,0.621,1.387,1.387S248.441,4.976,247.676,4.976c-0.767,0-1.387-0.621-1.387-1.387
		S246.909,2.202,247.676,2.202 M247.676,2.102c-0.82,0-1.487,0.667-1.487,1.487c0,0.819,0.667,1.486,1.487,1.486
		c0.819,0,1.486-0.667,1.486-1.486C249.162,2.769,248.495,2.102,247.676,2.102L247.676,2.102z"/>
	<g>
		<g>
			<path fill="#9A916C" d="M254.855,5.999C256.185,5.999,257.265,4.92,257.265,3.589H252.445C252.445,4.92,253.523,5.999,254.855,5.999z"/>
			<path fill="#80795B" d="M254.855,1.179c-1.332,0-2.41,1.079-2.41,2.41H257.265C257.265,2.258,256.185,1.179,254.855,1.179z"/>
		</g>
		<circle cx="254.855" cy="3.589" r="1.387"/>
	</g>
	<path fill="#BCB59C" d="M254.855,1.679c1.054,0,1.91,0.857,1.91,1.91c0,1.054-0.856,1.91-1.91,1.91c-1.053,0-1.91-0.856-1.91-1.91
		C252.945,2.536,253.802,1.679,254.855,1.679 M254.855,1.179c-1.332,0-2.41,1.079-2.41,2.41s1.078,2.41,2.41,2.41C256.185,5.999,257.265,4.92,257.265,3.589
		S256.185,1.179,254.855,1.179L254.855,1.179z"/>
	<path fill="#7C7557" d="M254.855,2.202c0.766,0,1.387,0.621,1.387,1.387S255.62,4.976,254.855,4.976c-0.767,0-1.387-0.621-1.387-1.387
		S254.088,2.202,254.855,2.202 M254.855,2.102c-0.82,0-1.487,0.667-1.487,1.487c0,0.819,0.667,1.486,1.487,1.486
		c0.819,0,1.486-0.667,1.486-1.486C256.341,2.769,255.674,2.102,254.855,2.102L254.855,2.102z"/>
	<g>
		<g>
			<path fill="#9A916C" d="M262.034,5.999C263.364,5.999,264.444,4.92,264.444,3.589H259.624C259.624,4.92,260.702,5.999,262.034,5.999z"/>
			<path fill="#80795B" d="M262.034,1.179c-1.332,0-2.41,1.079-2.41,2.41H264.444C264.444,2.258,263.364,1.179,262.034,1.179z"/>
		</g>
		<circle cx="262.034" cy="3.589" r="1.387"/>
	</g>
	<path fill="#BCB59C" d="M262.034,1.679c1.054,0,1.91,0.857,1.91,1.91c0,1.054-0.856,1.91-1.91,1.91c-1.053,0-1.91-0.856-1.91-1.91
		C260.124,2.536,260.981,1.679,262.034,1.679 M262.034,1.179c-1.332,0-2.41,1.079-2.41,2.41s1.078,2.41,2.41,2.41C263.364,5.999,264.444,4.92,264.444,3.589
		S263.364,1.179,262.034,1.179L262.034,1.179z"/>
	<path fill="#7C7557" d="M262.034,2.202c0.766,0,1.387,0.621,1.387,1.387S262.799,4.976,262.034,4.976c-0.767,0-1.387-0.621-1.387-1.387
		S261.267,2.202,262.034,2.202 M262.034,2.102c-0.82,0-1.487,0.667-1.487,1.487c0,0.819,0.667,1.486,1.487,1.486
		c0.819,0,1.486-0.667,1.486-1.486C263.52,2.769,262.853,2.102,262.034,2.102L262.034,2.102z"/>
	<g>
		<g>
			<path fill="#9A916C" d="M269.213,5.999C270.543,5.999,271.623,4.92,271.623,3.589H266.803C266.803,4.92,267.881,5.999,269.213,5.999z"/>
			<path fill="#80795B" d="M269.213,1.179c-1.332,0-2.41,1.079-2.41,2.41H271.623C271.623,2.258,270.543,1.179,269.213,1.179z"/>
		</g>
		<circle cx="269.213" cy="3.589" r="1.387"/>
	</g>
	<path fill="#BCB59C" d="M269.213,1.679c1.054,0,1.91,0.857,1.91,1.91c0,1.054-0.856,1.91-1.91,1.91c-1.053,0-1.91-0.856-1.91-1.91
		C267.303,2.536,268.16,1.679,269.213,1.679 M269.213,1.179c-1.332,0-2.41,1.079-2.41,2.41s1.078,2.41,2.41,2.41C270.543,5.999,271.623,4.92,271.623,3.589
		S270.543,1.179,269.213,1.179L269.213,1.179z"/>
	<path fill="#7C7557" d="M269.213,2.202c0.766,0,1.387,0.621,1.387,1.387S269.978,4.976,269.213,4.976c-0.767,0-1.387-0.621-1.387-1.387
		S268.446,2.202,269.213,2.202 M269.213,2.102c-0.82,0-1.487,0.667-1.487,1.487c0,0.819,0.667,1.486,1.487,1.486
		c0.819,0,1.486-0.667,1.486-1.486C270.699,2.769,270.032,2.102,269.213,2.102L269.213,2.102z"/>
	<g>
		<g>
			<path fill="#9A916C" d="M276.392,5.999C277.722,5.999,278.802,4.92,278.802,3.589H273.982C273.982,4.92,275.06,5.999,276.392,5.999z"/>
			<path fill="#80795B" d="M276.392,1.179c-1.332,0-2.41,1.079-2.41,2.41H278.802C278.802,2.258,277.722,1.179,276.392,1.179z"/>
		</g>
		<circle cx="276.392" cy="3.589" r="1.387"/>
	</g>
	<path fill="#BCB59C" d="M276.392,1.679c1.054,0,1.91,0.857,1.91,1.91c0,1.054-0.856,1.91-1.91,1.91c-1.053,0-1.91-0.856-1.91-1.91
		C274.482,2.536,275.339,1.679,276.392,1.679 M276.392,1.179c-1.332,0-2.41,1.079-2.41,2.41s1.078,2.41,2.41,2.41C277.722,5.999,278.802,4.92,278.802,3.589
		S277.722,1.179,276.392,1.179L276.392,1.179z"/>
	<path fill="#7C7557" d="M276.392,2.202c0.766,0,1.387,0.621,1.387,1.387S277.157,4.976,276.392,4.976c-0.767,0-1.387-0.621-1.387-1.387
		S275.625,2.202,276.392,2.202 M276.392,2.102c-0.82,0-1.487,0.667-1.487,1.487c0,0.819,0.667,1.486,1.487,1.486
		c0.819,0,1.486-0.667,1.486-1.486C277.878,2.769,277.211,2.102,276.392,2.102L276.392,2.102z"/>
	<g>
		<g>
			<path fill="#9A916C" d="M283.571,5.999C284.901,5.999,285.981,4.92,285.981,3.589H281.161C281.161,4.92,282.239,5.999,283.571,5.999z"/>
			<path fill="#80795B" d="M283.571,1.179c-1.332,0-2.41,1.079-2.41,2.41H285.981C285.981,2.258,284.901,1.179,283.571,1.179z"/>
		</g>
		<circle cx="283.571" cy="3.589" r="1.387"/>
	</g>
	<path fill="#BCB59C" d="M283.571,1.679c1.054,0,1.91,0.857,1.91,1.91c0,1.054-0.856,1.91-1.91,1.91c-1.053,0-1.91-0.856-1.91-1.91
		C281.661,2.536,282.518,1.679,283.571,1.679 M283.571,1.179c-1.332,0-2.41,1.079-2.41,2.41s1.078,2.41,2.41,2.41C284.901,5.999,285.981,4.92,285.981,3.589
		S284.901,1.179,283.571,1.179L283.571,1.179z"/>
	<path fill="#7C7557" d="M283.571,2.202c0.766,0,1.387,0.621,1.387,1.387S284.336,4.976,283.571,4.976c-0.767,0-1.387-0.621-1.387-1.387
		S282.804,2.202,283.571,2.202 M283.571,2.102c-0.82,0-1.487,0.667-1.487,1.487c0,0.819,0.667,1.486,1.487,1.486
		c0.819,0,1.486-0.667,1.486-1.486C285.057,2.769,284.39,2.102,283.571,2.102L283.571,2.102z"/>
	<g>
		<g>
			<path fill="#9A916C" d="M290.75,5.999C292.08,5.999,293.16,4.92,293.16,3.589H288.34C288.34,4.92,289.418,5.999,290.75,5.999z"/>
			<path fill="#80795B" d="M290.75,1.179c-1.332,0-2.41,1.079-2.41,2.41H293.16C293.16,2.258,292.08,1.179,290.75,1.179z"/>
		</g>
		<circle cx="290.75" cy="3.589" r="1.387"/>
	</g>
	<path fill="#BCB59C" d="M290.75,1.679c1.054,0,1.91,0.857,1.91,1.91c0,1.054-0.856,1.91-1.91,1.91c-1.053,0-1.91-0.856-1.91-1.91
		C288.84,2.536,289.697,1.679,290.75,1.679 M290.75,1.179c-1.332,0-2.41,1.079-2.41,2.41s1.078,2.41,2.41,2.41C292.08,5.999,293.16,4.92,293.16,3.589
		S292.08,1.179,290.75,1.179L290.75,1.179z"/>
	<path fill="#7C7557" d="M290.75,2.202c0.766,0,1.387,0.621,1.387,1.387S291.515,4.976,290.75,4.976c-0.767,0-1.387-0.621-1.387-1.387
		S289.983,2.202,290.75,2.202 M290.75,2.102c-0.82,0-1.487,0.667-1.487,1.487c0,0.819,0.667,1.486,1.487,1.486
		c0.819,0,1.486-0.667,1.486-1.486C292.236,2.769,291.569,2.102,290.75,2.102L290.75,2.102z"/>
	<g>
		<g>
			<path fill="#9A916C" d="M297.929,5.999C299.259,5.999,300.339,4.92,300.339,3.589H295.519C295.519,4.92,296.597,5.999,297.929,5.999z"/>
			<path fill="#80795B" d="M297.929,1.179c-1.332,0-2.41,1.079-2.41,2.41H300.339C300.339,2.258,299.259,1.179,297.929,1.179z"/>
		</g>
		<circle cx="297.929" cy="3.589" r="1.387"/>
	</g>
	<path fill="#BCB59C" d="M297.929,1.679c1.054,0,1.91,0.857,1.91,1.91c0,1.054-0.856,1.91-1.91,1.91c-1.053,0-1.91-0.856-1.91-1.91
		C296.019,2.536,296.876,1.679,297.929,1.679 M297.929,1.179c-1.332,0-2.41,1.079-2.41,2.41s1.078,2.41,2.41,2.41C299.259,5.999,300.339,4.92,300.339,3.589
		S299.259,1.179,297.929,1.179L297.929,1.179z"/>
	<path fill="#7C7557" d="M297.929,2.202c0.766,0,1.387,0.621,1.387,1.387S298.694,4.976,297.929,4.976c-0.767,0-1.387-0.621-1.387-1.387
		S297.162,2.202,297.929,2.202 M297.929,2.102c-0.82,0-1.487,0.667-1.487,1.487c0,0.819,0.667,1.486,1.487,1.486
		c0.819,0,1.486-0.667,1.486-1.486C299.415,2.769,298.748,2.102,297.929,2.102L297.929,2.102z"/>
	<g>
		<g>
			<path fill="#9A916C" d="M305.108,5.999C306.438,5.999,307.518,4.92,307.518,3.589H302.698C302.698,4.92,303.776,5.999,305.108,5.999z"/>
			<path fill="#80795B" d="M305.108,1.179c-1.332,0-2.41,1.079-2.41,2.41H307.518C307.518,2.258,306.438,1.179,305.108,1.179z"/>
		</g>
		<circle cx="305.108" cy="3.589" r="1.387"/>
	</g>
	<path fill="#BCB59C" d="M305.108,1.679c1.054,0,1.91,0.857,1.91,1.91c0,1.054-0.856,1.91-1.91,1.91c-1.053,0-1.91-0.856-1.91-1.91
		C303.198,2.536,304.055,1.679,305.108,1.679 M305.108,1.179c-1.332,0-2.41,1.079-2.41,2.41s1.078,2.41,2.41,2.41C306.438,5.999,307.518,4.92,307.518,3.589
		S306.438,1.179,305.108,1.179L305.108,1.179z"/>
	<path fill="#7C7557" d="M305.108,2.202c0.766,0,1.387,0.621,1.387,1.387S305.873,4.976,305.108,4.976c-0.767,0-1.387-0.621-1.387-1.387
		S304.341,2.202,305.108,2.202 M305.108,2.102c-0.82,0-1.487,0.667-1.487,1.487c0,0.819,0.667,1.486,1.487,1.486
		c0.819,0,1.486-0.667,1.486-1.486C306.594,2.769,305.927,2.102,305.108,2.102L305.108,2.102z"/>
	<g>
		<g>
			<path fill="#9A916C" d="M312.287,5.999C313.617,5.999,314.697,4.92,314.697,3.589H309.877C309.877,4.92,310.955,5.999,312.287,5.999z"/>
			<path fill="#80795B" d="M312.287,1.179c-1.332,0-2.41,1.079-2.41,2.41H314.697C314.697,2.258,313.617,1.179,312.287,1.179z"/>
		</g>
		<circle cx="312.287" cy="3.589" r="1.387"/>
	</g>
	<path fill="#BCB59C" d="M312.287,1.679c1.054,0,1.91,0.857,1.91,1.91c0,1.054-0.856,1.91-1.91,1.91c-1.053,0-1.91-0.856-1.91-1.91
		C310.377,2.536,311.234,1.679,312.287,1.679 M312.287,1.179c-1.332,0-2.41,1.079-2.41,2.41s1.078,2.41,2.41,2.41C313.617,5.999,314.697,4.92,314.697,3.589
		S313.617,1.179,312.287,1.179L312.287,1.179z"/>
	<path fill="#7C7557" d="M312.287,2.202c0.766,0,1.387,0.621,1.387,1.387S313.052,4.976,312.287,4.976c-0.767,0-1.387-0.621-1.387-1.387
		S311.52,2.202,312.287,2.202 M312.287,2.102c-0.82,0-1.487,0.667-1.487,1.487c0,0.819,0.667,1.486,1.487,1.486
		c0.819,0,1.486-0.667,1.486-1.486C313.773,2.769,313.106,2.102,312.287,2.102L312.287,2.102z"/>
	<g>
		<g>
			<path fill="#9A916C" d="M319.466,5.999C320.796,5.999,321.876,4.92,321.876,3.589H317.056C317.056,4.92,318.134,5.999,319.466,5.999z"/>
			<path fill="#80795B" d="M319.466,1.179c-1.332,0-2.41,1.079-2.41,2.41H321.876C321.876,2.258,320.796,1.179,319.466,1.179z"/>
		</g>
		<circle cx="319.466" cy="3.589" r="1.387"/>
	</g>
	<path fill="#BCB59C" d="M319.466,1.679c1.054,0,1.91,0.857,1.91,1.91c0,1.054-0.856,1.91-1.91,1.91c-1.053,0-1.91-0.856-1.91-1.91
		C317.556,2.536,318.413,1.679,319.466,1.679 M319.466,1.179c-1.332,0-2.41,1.079-2.41,2.41s1.078,2.41,2.41,2.41C320.796,5.999,321.876,4.92,321.876,3.589
		S320.796,1.179,319.466,1.179L319.466,1.179z"/>
	<path fill="#7C7557" d="M319.466,2.202c0.766,0,1.387,0.621,1.387,1.387S320.231,4.976,319.466,4.976c-0.767,0-1.387-0.621-1.387-1.387
		S318.699,2.202,319.466,2.202 M319.466,2.102c-0.82,0-1.487,0.667-1.487,1.487c0,0.819,0.667,1.486,1.487,1.486
		c0.819,0,1.486-0.667,1.486-1.486C320.952,2.769,320.285,2.102,319.466,2.102L319.466,2.102z"/>
	<g>
		<g>
			<path fill="#9A916C" d="M326.645,5.999C327.975,5.999,329.055,4.92,329.055,3.589H324.235C324.235,4.92,325.313,5.999,326.645,5.999z"/>
			<path fill="#80795B" d="M326.645,1.179c-1.332,0-2.41,1.079-2.41,2.41H329.055C329.055,2.258,327.975,1.179,326.645,1.179z"/>
		</g>
		<circle cx="326.645" cy="3.589" r="1.387"/>
	</g>
	<path fill="#BCB59C" d="M326.645,1.679c1.054,0,1.91,0.857,1.91,1.91c0,1.054-0.856,1.91-1.91,1.91c-1.053,0-1.91-0.856-1.91-1.91
		C324.735,2.536,325.592,1.679,326.645,1.679 M326.645,1.179c-1.332,0-2.41,1.079-2.41,2.41s1.078,2.41,2.41,2.41C327.975,5.999,329.055,4.92,329.055,3.589
		S327.975,1.179,326.645,1.179L326.645,1.179z"/>
	<path fill="#7C7557" d="M326.645,2.202c0.766,0,1.387,0.621,1.387,1.387S327.41,4.976,326.645,4.976c-0.767,0-1.387-0.621-1.387-1.387
		S325.878,2.202,326.645,2.202 M326.645,2.102c-0.82,0-1.487,0.667-1.487,1.487c0,0.819,0.667,1.486,1.487,1.486
		c0.819,0,1.486-0.667,1.486-1.486C328.131,2.769,327.464,2.102,326.645,2.102L326.645,2.102z"/>
	<g>
		<g>
			<path fill="#9A916C" d="M333.824,5.999C335.154,5.999,336.234,4.92,336.234,3.589H331.414C331.414,4.92,332.492,5.999,333.824,5.999z"/>
			<path fill="#80795B" d="M333.824,1.179c-1.332,0-2.41,1.079-2.41,2.41H336.234C336.234,2.258,335.154,1.179,333.824,1.179z"/>
		</g>
		<circle cx="333.824" cy="3.589" r="1.387"/>
	</g>
	<path fill="#BCB59C" d="M333.824,1.679c1.054,0,1.91,0.857,1.91,1.91c0,1.054-0.856,1.91-1.91,1.91c-1.053,0-1.91-0.856-1.91-1.91
		C331.914,2.536,332.771,1.679,333.824,1.679 M333.824,1.179c-1.332,0-2.41,1.079-2.41,2.41s1.078,2.41,2.41,2.41C335.154,5.999,336.234,4.92,336.234,3.589
		S335.154,1.179,333.824,1.179L333.824,1.179z"/>
	<path fill="#7C7557" d="M333.824,2.202c0.766,0,1.387,0.621,1.387,1.387S334.589,4.976,333.824,4.976c-0.767,0-1.387-0.621-1.387-1.387
		S333.057,2.202,333.824,2.202 M333.824,2.102c-0.82,0-1.487,0.667-1.487,1.487c0,0.819,0.667,1.486,1.487,1.486
		c0.819,0,1.486-0.667,1.486-1.486C335.31,2.769,334.643,2.102,333.824,2.102L333.824,2.102z"/>
	<g>
		<g>
			<path fill="#9A916C" d="M341.003,5.999C342.333,5.999,343.413,4.92,343.413,3.589H338.593C338.593,4.92,339.671,5.999,341.003,5.999z"/>
			<path fill="#80795B" d="M341.003,1.179c-1.332,0-2.41,1.079-2.41,2.41H343.413C343.413,2.258,342.333,1.179,341.003,1.179z"/>
		</g>
		<circle cx="341.003" cy="3.589" r="1.387"/>
	</g>
	<path fill="#BCB59C" d="M341.003,1.679c1.054,0,1.91,0.857,1.91,1.91c0,1.054-0.856,1.91-1.91,1.91c-1.053,0-1.91-0.856-1.91-1.91
		C339.093,2.536,339.95,1.679,341.003,1.679 M341.003,1.179c-1.332,0-2.41,1.079-2.41,2.41s1.078,2.41,2.41,2.41C342.333,5.999,343.413,4.92,343.413,3.589
		S342.333,1.179,341.003,1.179L341.003,1.179z"/>
	<path fill="#7C7557" d="M341.003,2.202c0.766,0,1.387,0.621,1.387,1.387S341.768,4.976,341.003,4.976c-0.767,0-1.387-0.621-1.387-1.387
		S340.236,2.202,341.003,2.202 M341.003,2.102c-0.82,0-1.487,0.667-1.487,1.487c0,0.819,0.667,1.486,1.487,1.486
		c0.819,0,1.486-0.667,1.486-1.486C342.489,2.769,341.822,2.102,341.003,2.102L341.003,2.102z"/>
	<g>
		<g>
			<path fill="#9A916C" d="M348.182,5.999C349.512,5.999,350.592,4.92,350.592,3.589H345.772C345.772,4.92,346.85,5.999,348.182,5.999z"/>
			<path fill="#80795B" d="M348.182,1.179c-1.332,0-2.41,1.079-2.41,2.41H350.592C350.592,2.258,349.512,1.179,348.182,1.179z"/>
		</g>
		<circle cx="348.182" cy="3.589" r="1.387"/>
	</g>
	<path fill="#BCB59C" d="M348.182,1.679c1.054,0,1.91,0.857,1.91,1.91c0,1.054-0.856,1.91-1.91,1.91c-1.053,0-1.91-0.856-1.91-1.91
		C346.272,2.536,347.129,1.679,348.182,1.679 M348.182,1.179c-1.332,0-2.41,1.079-2.41,2.41s1.078,2.41,2.41,2.41C349.512,5.999,350.592,4.92,350.592,3.589
		S349.512,1.179,348.182,1.179L348.182,1.179z"/>
	<path fill="#7C7557" d="M348.182,2.202c0.766,0,1.387,0.621,1.387,1.387S348.947,4.976,348.182,4.976c-0.767,0-1.387-0.621-1.387-1.387
		S347.415,2.202,348.182,2.202 M348.182,2.102c-0.82,0-1.487,0.667-1.487,1.487c0,0.819,0.667,1.486,1.487,1.486
		c0.819,0,1.486-0.667,1.486-1.486C349.668,2.769,349.001,2.102,348.182,2.102L348.182,2.102z"/>
</g>

</svg>
