<?xml version="1.0" encoding="utf-8"?>
<svg version="1.2" baseProfile="tiny" id="svg2" xmlns="http://www.w3.org/2000/svg" xmlns:xlink="http://www.w3.org/1999/xlink"
	 width="0.3in" height="0.43in" viewBox="0 0 30.0 43.0" xml:space="preserve">

<g id="breadboard">
  <rect id="middle" x="0" y="3" fill="#303030" width="30.0" height="37.0" />
  <rect id="top" x="0" y="3.0" fill="#3D3D3D" width="30.0" height="2.46"/>
  <rect id="bottom" x="0" y="37.54" fill="#000000" width="30.0" height="2.46"/>
	<polygon id="right" fill="#141414" points="30.0,3 29.25,5.46 29.25,37.54 30.0,40.0"/> 
	<polygon id="left" fill="#1F1F1F" points="0,3 0.75,5.46 0.75,37.54 0,40.0"/>
  
	<polygon id="left-upper-rect" fill="#1C1C1C" points="5,16.5 0.75,16.46 0.56,18.58 0.56,21.5 5,21.5"/>
	<polygon id="left-lower-rect" fill="#383838" points="0.75,26.55 5,26.55 5,21.5 0.56,21.5 0.56,24.42"/>

  <path id="slot" fill="#262626" d="M0.56,18.58v5.83c1.47-0.17,2.62-1.4,2.62-2.92C3.18,19.97,2.04,18.75,0.56,18.58z"/>
  <path id="cover" fill="#303030" d="M0.75,5.46V16.45c2.38,0.45,4.19,2.53,4.19,5.04c0,2.51-1.8,4.6-4.19,5.05V26.55h5.0V5.46H0.75z"/>
  
	<circle fill="#212121" cx="6.5" cy="33.47" r="2.06"/>
 
  <text id="label" x="6.5" y="21.5" fill="#e6e6e6" stroke="none" font-family="ocra10" text-anchor="start" font-size="8" >IC</text>

	<rect id="connector0pin" x="3.5" y="38.66" fill="#8C8C8C" width="3" height="4.34"/>
  <rect id="connector0terminal" x="3.5" y="40.0" fill="#8C8C8C" width="3" height="3"/>
	<polygon fill="#8C8C8C" points="3.5,38.66 3.5,40.66 6.5,40.66 8.5,39.74 8.5,38.66 	"/>
  <rect id="connector5pin" x="3.5" fill="#8C8C8C" width="3" height="4.34"/>
  <rect id="connector5terminal" x="3.5" fill="#8C8C8C" width="3" height="3"/>
	<polygon fill="#8C8C8C" points="8.5,4.34 8.5,3.26 6.5,2.34 3.5,2.34 3.5,4.34"/>
  <rect id="connector2pin" x="23.5" y="38.66" fill="#8C8C8C" width="3" height="4.34"/>
  <rect id="connector2terminal" x="23.5" y="40.0" fill="#8C8C8C" width="3" height="3"/>
	<polygon fill="#8C8C8C" points="21.5,38.66 21.5,39.74 23.5,40.66 26.5,40.66 26.5,38.66"/>
  <rect id="connector3pin" x="23.5" y="0" fill="#8C8C8C" width="3" height="4.34"/>
  <rect id="connector3terminal" x="23.5" y="0" fill="#8C8C8C" width="3" height="3"/>
	<polygon fill="#8C8C8C" points="26.5,4.34 26.5,2.34 23.5,2.34 21.5,3.26 21.5,4.34 	"/>

        <rect id="connector1pin" x="13.5" y="38.66" fill="#8C8C8C" width="3" height="4.34"/>
        <rect id="connector1terminal" x="13.5" y="40.0" fill="#8C8C8C" width="3" height="3"/>
        <polygon fill="#8C8C8C" points="11.5,38.66 11.5,39.74 13.5,40.66 16.5,40.66 18.5,39.74 18.5,38.66"/>            
        <rect id="connector4pin" x="13.5" y="0" fill="#8C8C8C" width="3" height="4.34"/>
        <rect id="connector4terminal" x="13.5" fill="#8C8C8C" width="3" height="3"/>
        <polygon fill="#8C8C8C" points="18.5,4.34 18.5,3.26 16.5,2.34 13.5,2.34 11.5,3.26 11.5,4.34"/>
        

</g>
</svg>
