<?xml version='1.0' encoding='UTF-8' standalone='no'?>
<!-- Created with Fritzing (http://www.fritzing.org/) -->
<svg xmlns="http://www.w3.org/2000/svg" width="0.7in" x="0in" version="1.2" y="0in" height="0.7in" viewBox="0 0 50.4 50.4" baseProfile="tiny">
 <desc >Fritzing breadboard generated by brd2svg</desc>
 <g  id="breadboard" stroke-width="0">
  <g  id="icon" stroke-width="0">
   <path  fill="#C62717" stroke="none" stroke-width="0" d="M0,50.4L50.3433,50.4L50.4,0L0,0L0,50.4M2.52,7.2a4.68,4.68,0,1,1,9.36,0,4.68,4.68,0,1,1,-9.36,0zM38.52,7.2a4.68,4.68,0,1,1,9.36,0,4.68,4.68,0,1,1,-9.36,0zM34.56,46.8a1.44,1.44,0,1,1,2.88,0,1.44,1.44,0,1,1,-2.88,0zM27.36,46.8a1.44,1.44,0,1,1,2.88,0,1.44,1.44,0,1,1,-2.88,0zM20.16,46.8a1.44,1.44,0,1,1,2.88,0,1.44,1.44,0,1,1,-2.88,0zM12.96,46.8a1.44,1.44,0,1,1,2.88,0,1.44,1.44,0,1,1,-2.88,0z"/>
   <g  stroke-width="0">
    <title >layer 21</title>
    <line  stroke="white" stroke-linecap="round" y1="28.44" x1="40.536" y2="28.44" stroke-width="0.72" x2="47.736"/>
    <line  stroke="white" stroke-linecap="round" y1="28.44" x1="47.736" y2="29.88" stroke-width="0.72" x2="46.296"/>
    <line  stroke="white" stroke-linecap="round" y1="28.44" x1="47.736" y2="27" stroke-width="0.72" x2="46.296"/>
    <line  stroke="white" stroke-linecap="round" y1="28.44" x1="40.536" y2="21.24" stroke-width="0.72" x2="40.536"/>
    <line  stroke="white" stroke-linecap="round" y1="21.24" x1="40.536" y2="22.68" stroke-width="0.72" x2="39.096"/>
    <line  stroke="white" stroke-linecap="round" y1="21.24" x1="40.536" y2="22.68" stroke-width="0.72" x2="41.976"/>
    <circle  fill="none" cx="43.056" cy="25.92" stroke="white" r="1.48422" stroke-width="0.72"/>
    <circle  fill="none" cx="43.056" cy="25.92" stroke="white" r="0.36" stroke-width="0.72"/>
    <g  stroke-width="0">
     <title >text:HMC5883L</title>
     <g  stroke-width="0" transform="matrix(1, 0, 0, 1, 6.336, 12.96)">
      <g  stroke-width="0" transform="rotate(-90)">
       <text  x="0" y="0" font-family="OCRA" fill="white" text-anchor="end" stroke="none" stroke-width="0" font-size="4.176">HMC5883L</text>
      </g>
     </g>
    </g>
    <g  stroke-width="0">
     <title >text:X</title>
     <g  stroke-width="0" transform="matrix(1, 0, 0, 1, 45.576, 32.04)">
      <g  stroke-width="0" transform="rotate(-90)">
       <text  x="0" y="0" font-family="OCRA" fill="white" text-anchor="start" stroke="none" stroke-width="0" font-size="4.176">X</text>
      </g>
     </g>
    </g>
    <g  stroke-width="0">
     <title >text:Y</title>
     <g  stroke-width="0" transform="matrix(1, 0, 0, 1, 43.056, 20.88)">
      <g  stroke-width="0" transform="rotate(-90)">
       <text  x="0" y="0" font-family="OCRA" fill="white" text-anchor="start" stroke="none" stroke-width="0" font-size="4.176">Y</text>
      </g>
     </g>
    </g>
    <g  stroke-width="0">
     <title >text:Z</title>
     <g  stroke-width="0" transform="matrix(1, 0, 0, 1, 48.816, 21.24)">
      <g  stroke-width="0" transform="rotate(-90)">
       <text  x="0" y="0" font-family="OCRA" fill="white" text-anchor="end" stroke="none" stroke-width="0" font-size="4.176">Z</text>
      </g>
     </g>
    </g>
    <g  stroke-width="0">
     <title >element:C1</title>
     <g  stroke-width="0">
      <title >package:0402-CAP</title>
      <line  stroke="white" stroke-linecap="round" y1="32.3135" x1="32.4" y2="32.4865" stroke-width="1.152" x2="32.4"/>
     </g>
    </g>
    <g  stroke-width="0">
     <title >element:C2</title>
     <g  stroke-width="0">
      <title >package:0402-CAP</title>
      <line  stroke="white" stroke-linecap="round" y1="14.4" x1="21.6865" y2="14.4" stroke-width="1.152" x2="21.5135"/>
     </g>
    </g>
    <g  stroke-width="0">
     <title >element:C3</title>
     <g  stroke-width="0">
      <title >package:0402-CAP</title>
      <line  stroke="white" stroke-linecap="round" y1="13.2335" x1="28.8" y2="13.4065" stroke-width="1.152" x2="28.8"/>
     </g>
    </g>
    <g  stroke-width="0">
     <title >element:JP1</title>
     <g  stroke-width="0">
      <title >package:1X04</title>
      <line  stroke="white" stroke-linecap="round" y1="50.4" x1="16.2" y2="50.4" stroke-width="0.576" x2="12.6"/>
      <line  stroke="white" stroke-linecap="round" y1="50.4" x1="12.6" y2="48.6" stroke-width="0.576" x2="10.8"/>
      <line  stroke="white" stroke-linecap="round" y1="45" x1="10.8" y2="43.2" stroke-width="0.576" x2="12.6"/>
      <line  stroke="white" stroke-linecap="round" y1="48.6" x1="25.2" y2="50.4" stroke-width="0.576" x2="23.4"/>
      <line  stroke="white" stroke-linecap="round" y1="50.4" x1="23.4" y2="50.4" stroke-width="0.576" x2="19.8"/>
      <line  stroke="white" stroke-linecap="round" y1="50.4" x1="19.8" y2="48.6" stroke-width="0.576" x2="18"/>
      <line  stroke="white" stroke-linecap="round" y1="45" x1="18" y2="43.2" stroke-width="0.576" x2="19.8"/>
      <line  stroke="white" stroke-linecap="round" y1="43.2" x1="19.8" y2="43.2" stroke-width="0.576" x2="23.4"/>
      <line  stroke="white" stroke-linecap="round" y1="43.2" x1="23.4" y2="45" stroke-width="0.576" x2="25.2"/>
      <line  stroke="white" stroke-linecap="round" y1="50.4" x1="16.2" y2="48.6" stroke-width="0.576" x2="18"/>
      <line  stroke="white" stroke-linecap="round" y1="45" x1="18" y2="43.2" stroke-width="0.576" x2="16.2"/>
      <line  stroke="white" stroke-linecap="round" y1="43.2" x1="12.6" y2="43.2" stroke-width="0.576" x2="16.2"/>
      <line  stroke="white" stroke-linecap="round" y1="50.4" x1="37.8" y2="50.4" stroke-width="0.576" x2="34.2"/>
      <line  stroke="white" stroke-linecap="round" y1="50.4" x1="34.2" y2="48.6" stroke-width="0.576" x2="32.4"/>
      <line  stroke="white" stroke-linecap="round" y1="45" x1="32.4" y2="43.2" stroke-width="0.576" x2="34.2"/>
      <line  stroke="white" stroke-linecap="round" y1="48.6" x1="32.4" y2="50.4" stroke-width="0.576" x2="30.6"/>
      <line  stroke="white" stroke-linecap="round" y1="50.4" x1="30.6" y2="50.4" stroke-width="0.576" x2="27"/>
      <line  stroke="white" stroke-linecap="round" y1="50.4" x1="27" y2="48.6" stroke-width="0.576" x2="25.2"/>
      <line  stroke="white" stroke-linecap="round" y1="45" x1="25.2" y2="43.2" stroke-width="0.576" x2="27"/>
      <line  stroke="white" stroke-linecap="round" y1="43.2" x1="27" y2="43.2" stroke-width="0.576" x2="30.6"/>
      <line  stroke="white" stroke-linecap="round" y1="43.2" x1="30.6" y2="45" stroke-width="0.576" x2="32.4"/>
      <line  stroke="white" stroke-linecap="round" y1="48.6" x1="39.6" y2="45" stroke-width="0.576" x2="39.6"/>
      <line  stroke="white" stroke-linecap="round" y1="50.4" x1="37.8" y2="48.6" stroke-width="0.576" x2="39.6"/>
      <line  stroke="white" stroke-linecap="round" y1="45" x1="39.6" y2="43.2" stroke-width="0.576" x2="37.8"/>
      <line  stroke="white" stroke-linecap="round" y1="43.2" x1="34.2" y2="43.2" stroke-width="0.576" x2="37.8"/>
      <line  stroke="white" stroke-linecap="round" y1="48.6" x1="10.8" y2="45" stroke-width="0.576" x2="10.8"/>
     </g>
    </g>
    <g  stroke-width="0">
     <title >element:JP2</title>
     <g  stroke-width="0">
      <title >package:STAND-OFF</title>
     </g>
    </g>
    <g  stroke-width="0">
     <title >element:JP3</title>
     <g  stroke-width="0">
      <title >package:STAND-OFF</title>
     </g>
    </g>
    <g  stroke-width="0">
     <title >element:JP4</title>
     <g  stroke-width="0">
      <title >package:SFE-LOGO-FLAME</title>
      <g  stroke-width="0">
       <title >polygon</title>
       <path  fill="none" stroke="white" stroke-linecap="round" stroke-width="0.072" d="M16.1785,17.0283L16.2,16.8913M16.2,16.8913L16.221,16.6249M16.221,16.6249L16.2,16.3585M16.2,16.3585L16.1479,16.1603M16.1479,16.1603L16.0569,15.9767M16.0569,15.9767L15.931,15.8148M15.931,15.8148L15.7751,15.6818M15.7751,15.6818L15.5676,15.5681M15.5676,15.5681L15.3411,15.4999M15.3411,15.4999L15.1055,15.4803M15.1055,15.4803L10.8071,15.4803M10.8071,15.4803L12.3625,16.8625M12.3625,16.8625L12.5878,17.1085M12.5878,17.1085L12.7585,17.3953M12.7585,17.3953L12.7967,17.5008M12.7967,17.5008L12.816,17.6113M12.816,17.6113L12.816,18.2593M12.816,18.2593L12.8511,18.6458M12.8511,18.6458L12.9555,19.0196M12.9555,19.0196L13.1255,19.3683M13.1255,19.3683L13.3572,19.6962M13.3572,19.6962L13.6327,19.9888M13.6327,19.9888L13.9465,20.2393M13.9465,20.2393L14.423,20.5078M14.423,20.5078L14.94,20.6858M14.94,20.6858L15.4806,20.7675M15.4806,20.7675L16.0271,20.7505M16.0271,20.7505L16.3219,20.6918M16.3219,20.6918L16.6048,20.5903M16.6048,20.5903L16.8695,20.4483M16.8695,20.4483L17.1919,20.1912M17.1919,20.1912L17.4529,19.8723M17.4529,19.8723L17.2009,19.8723M17.2009,19.8723L17.1598,19.8666M17.1598,19.8666L17.1215,19.8505M17.1215,19.8505L17.0175,19.7662M17.0175,19.7662L16.9415,19.6563M16.9415,19.6563L16.92,19.5985M16.92,19.5985L16.9024,19.4363M16.9024,19.4363L16.9322,19.2758M16.9322,19.2758L17.0065,19.1305M17.0065,19.1305L17.1935,18.8713M17.1935,18.8713L17.2967,18.7515M17.2967,18.7515L17.4169,18.6483M17.4169,18.6483L17.5516,18.5652M17.5516,18.5652L17.6975,18.5043M17.6975,18.5043L17.7903,18.4859M17.7903,18.4859L17.8849,18.4898M17.8849,18.4898L18.0408,18.5369M18.0408,18.5369L18.1794,18.6228M18.1794,18.6228L18.2905,18.7418M18.2905,18.7418L18.3671,18.8858M18.3671,18.8858L18.4079,19.031M18.4079,19.031L18.4249,19.1809M18.4249,19.1809L18.4249,19.3538M18.4249,19.3538L18.4249,19.3535M18.4249,19.3535L18.432,19.3465M18.432,19.3465L18.5278,19.2231M18.5278,19.2231L18.5905,19.0803M18.5905,19.0803L18.6335,18.9793M18.6335,18.9793L18.6625,18.9145M18.6625,18.9145L18.7245,18.6656M18.7245,18.6656L18.7489,18.4105M18.7489,18.4105L18.7302,18.1642M18.7302,18.1642L18.6644,17.926M18.6644,17.926L18.5545,17.7049M18.5545,17.7049L18.3957,17.4847M18.3957,17.4847L18.2089,17.2873M18.2089,17.2873L18.0377,17.1652M18.0377,17.1652L17.8415,17.0895M17.8415,17.0895L17.6327,17.0649M17.6327,17.0649L17.4243,17.0932M17.4243,17.0932L17.2295,17.1723M17.2295,17.1723L16.7309,17.5085M16.7309,17.5085L16.2935,17.9209M16.2935,17.9209L16.166,18.0294M16.166,18.0294L16.0149,18.1014M16.0149,18.1014L15.8505,18.1321M15.8505,18.1321L15.6835,18.1191M15.6835,18.1191L15.5256,18.0635M15.5256,18.0635L15.3876,17.9688M15.3876,17.9688L15.2785,17.8418M15.2785,17.8418L15.1923,17.682M15.1923,17.682L15.1342,17.5099M15.1342,17.5099L15.1055,17.3305M15.1055,17.3305L15.116,17.1207M15.116,17.1207L15.1772,16.92M15.1772,16.92L15.2855,16.7403M15.2855,16.7403L15.3859,16.645M15.3859,16.645L15.5089,16.5818M15.5089,16.5818L15.6351,16.5537M15.6351,16.5537L15.7643,16.5537M15.7643,16.5537L15.8905,16.5818M15.8905,16.5818L15.9389,16.6073M15.9389,16.6073L15.9769,16.6465M15.9769,16.6465L16.1495,16.8843M16.1495,16.8843L16.1734,16.9288M16.1734,16.9288L16.1833,16.9781M16.1833,16.9781L16.1785,17.0283M10.872,15.4803L10.872,15.5378M10.944,15.4803L10.944,15.6019M11.016,15.4803L11.016,15.6657M11.088,15.4803L11.088,15.7298M11.16,15.4803L11.16,15.7938M11.232,15.4803L11.232,15.8579M11.304,15.4803L11.304,15.9216M11.376,15.4803L11.376,15.9857M11.448,15.4803L11.448,16.0497M11.52,15.4803L11.52,16.1135M11.592,15.4803L11.592,16.1776M11.664,15.4803L11.664,16.2417M11.736,15.4803L11.736,16.3058M11.808,15.4803L11.808,16.3695M11.88,15.4803L11.88,16.4336M11.952,15.4803L11.952,16.4976M12.024,15.4803L12.024,16.5614M12.096,15.4803L12.096,16.6254M12.168,15.4803L12.168,16.6895M12.24,15.4803L12.24,16.7536M12.312,15.4803L12.312,16.8174M12.384,15.4803L12.384,16.8857M12.456,15.4803L12.456,16.9645M12.528,15.4803L12.528,17.043M12.6,15.4803L12.6,17.1289M12.672,15.4803L12.672,17.25M12.744,15.4803L12.744,17.371M12.816,15.4803L12.816,18.2593M12.888,15.4803L12.888,18.7775M12.96,15.4803L12.96,19.0287M13.032,15.4803L13.032,19.1764M13.104,15.4803L13.104,19.3241M13.176,15.4803L13.176,19.4397M13.248,15.4803L13.248,19.5414M13.32,15.4803L13.32,19.6435M13.392,15.4803L13.392,19.7331M13.464,15.4803L13.464,19.8096M13.536,15.4803L13.536,19.8859M13.608,15.4803L13.608,19.9624M13.68,15.4803L13.68,20.0265M13.752,15.4803L13.752,20.084M13.824,15.4803L13.824,20.1416M13.896,15.4803L13.896,20.1988M13.968,15.4803L13.968,20.2513M14.04,15.4803L14.04,20.2918M14.112,15.4803L14.112,20.3324M14.184,15.4803L14.184,20.3732M14.256,15.4803L14.256,20.4137M14.328,15.4803L14.328,20.4543M14.4,15.4803L14.4,20.4948M14.472,15.4803L14.472,20.5245M14.544,15.4803L14.544,20.5494M14.616,15.4803L14.616,20.5741M14.688,15.4803L14.688,20.5988M14.76,15.4803L14.76,20.6238M14.832,15.4803L14.832,20.6484M14.904,15.4803L14.904,20.6734M14.976,15.4803L14.976,20.6912M15.048,15.4803L15.048,20.702M15.12,15.4817L15.12,17.1079M15.12,17.4212L15.12,20.7127M15.192,15.4876L15.192,16.8956M15.192,17.6814L15.192,20.7238M15.264,15.4936L15.264,16.7763M15.264,17.8152L15.264,20.7346M15.336,15.4996L15.336,16.6927M15.336,17.909L15.336,20.7454M15.408,15.5202L15.408,16.6337M15.408,17.983L15.408,20.7564M15.48,15.5418L15.48,16.5969M15.48,18.0323L15.48,20.7672M15.552,15.5636L15.552,16.5725M15.552,18.0729L15.552,20.7654M15.624,15.5993L15.624,16.5563M15.624,18.0984L15.624,20.7632M15.696,15.6388L15.696,16.5537M15.696,18.1202L15.696,20.7609M15.768,15.6781L15.768,16.5543M15.768,18.1259L15.768,20.7587M15.84,15.7374L15.84,16.5705M15.84,18.1315L15.84,20.7564M15.912,15.7986L15.912,16.5932M15.912,18.1205L15.912,20.7541M15.984,15.8831L15.984,16.6561M15.984,18.1071L15.984,20.7518M16.056,15.9758L16.056,16.7553M16.056,18.0816L16.056,20.7448M16.128,16.1204L16.128,16.8546M16.128,18.0473L16.128,20.7306M16.2,16.3585L16.2,16.8913M16.2,18.0003L16.2,20.7161M16.272,17.9391L16.272,20.702M16.344,17.8733L16.344,20.6842M16.416,17.8052L16.416,20.658M16.488,17.7375L16.488,20.6322M16.56,17.6694L16.56,20.6065M16.632,17.6018L16.632,20.5759M16.704,17.5337L16.704,20.5373M16.776,17.4779L16.776,20.4988M16.848,17.4294L16.848,20.4599M16.92,17.3809L16.92,19.3416M16.92,19.5985L16.92,20.4083M16.992,17.3324L16.992,19.1588M16.992,19.7294L16.992,20.3508M17.064,17.2837L17.064,19.0508M17.064,19.804L17.064,20.2932M17.136,17.2352L17.136,18.9513M17.136,19.8567L17.136,20.236M17.208,17.1868L17.208,18.8546M17.208,19.8723L17.208,20.1716M17.28,17.1516L17.28,18.771M17.28,19.8723L17.28,20.0838M17.352,17.1224L17.352,18.7042M17.352,19.8723L17.352,19.9956M17.424,17.0932L17.424,18.644M17.424,19.8723L17.424,19.9077M17.496,17.0833L17.496,18.5995M17.568,17.0736L17.568,18.5584M17.64,17.066L17.64,18.5284M17.712,17.0745L17.712,18.5015M17.784,17.083L17.784,18.4873M17.856,17.0952L17.856,18.4884M17.928,17.123L17.928,18.5026M18,17.1508L18,18.5244M18.072,17.1899L18.072,18.5561M18.144,17.2412L18.144,18.6007M18.216,17.295L18.216,18.6619M18.288,17.371L18.288,18.739M18.36,17.447L18.36,18.8722M18.432,17.5351L18.432,19.3465M18.504,17.6352L18.504,19.254M18.576,17.7483L18.576,19.1135M18.648,17.8932L18.648,18.9471M18.72,18.1273L18.72,18.684"/>
      </g>
     </g>
    </g>
    <g  stroke-width="0">
     <title >element:JP5</title>
     <g  stroke-width="0">
      <title >package:FIDUCIAL-1X2.5</title>
     </g>
    </g>
    <g  stroke-width="0">
     <title >element:JP6</title>
     <g  stroke-width="0">
      <title >package:FIDUCIAL-1X2.5</title>
     </g>
    </g>
    <g  stroke-width="0">
     <title >element:R1</title>
     <g  stroke-width="0">
      <title >package:0402-RES</title>
     </g>
    </g>
    <g  stroke-width="0">
     <title >element:R2</title>
     <g  stroke-width="0">
      <title >package:0402-RES</title>
     </g>
    </g>
    <g  stroke-width="0">
     <title >element:U$2</title>
     <g  stroke-width="0">
      <title >package:OSHW-LOGO-M</title>
     </g>
    </g>
    <g  stroke-width="0">
     <title >element:U1</title>
     <g  stroke-width="0">
      <title >package:16LPCC</title>
      <line  stroke="white" stroke-linecap="round" y1="30.0189" x1="30.0189" y2="30.0189" stroke-width="0.576" x2="28.3181"/>
      <line  stroke="white" stroke-linecap="round" y1="30.0189" x1="30.0189" y2="28.3181" stroke-width="0.576" x2="30.0189"/>
      <line  stroke="white" stroke-linecap="round" y1="22.0819" x1="30.0189" y2="20.3811" stroke-width="0.576" x2="30.0189"/>
      <line  stroke="white" stroke-linecap="round" y1="20.3811" x1="30.0189" y2="20.3811" stroke-width="0.576" x2="28.3181"/>
      <line  stroke="white" stroke-linecap="round" y1="20.3811" x1="22.0819" y2="20.3811" stroke-width="0.576" x2="20.3811"/>
      <line  stroke="white" stroke-linecap="round" y1="20.3811" x1="20.3811" y2="22.0819" stroke-width="0.576" x2="20.3811"/>
      <line  stroke="white" stroke-linecap="round" y1="28.8284" x1="20.5654" y2="29.8346" stroke-width="0.576" x2="21.6284"/>
     </g>
    </g>
   </g>
   <rect  width="1.152" x="10.224" y="24.192" fill="#ffffff" height="2.016" stroke="none" fill-opacity="0.15" stroke-width="0"/>
   <rect  width="1.152" x="13.824" y="24.192" fill="#ffffff" height="2.016" stroke="none" fill-opacity="0.15" stroke-width="0"/>
   <rect  width="9.63778" x="20.3811" y="20.3811" fill="#ffffff" height="9.63778" stroke="none" fill-opacity="0.15" stroke-width="0"/>
   <circle  fill="none" cx="36" cy="46.8" connectorname="GND" stroke="#9A916C" r="2.052" id="connector6pin" stroke-width="1.224"/>
   <rect  width="4.104" x="33.948" y="44.748" fill="none" height="4.104" stroke="#9A916C" stroke-width="1.224"/>
   <circle  fill="none" cx="28.8" cy="46.8" connectorname="VCC" stroke="#9A916C" r="2.052" id="connector7pin" stroke-width="1.224"/>
   <circle  fill="none" cx="21.6" cy="46.8" connectorname="SDA" stroke="#9A916C" r="2.052" id="connector8pin" stroke-width="1.224"/>
   <circle  fill="none" cx="14.4" cy="46.8" connectorname="SCL" stroke="#9A916C" r="2.052" id="connector9pin" stroke-width="1.224"/>
  </g>
  <g  id="1x04" stroke-width="0" transform="matrix(1, 0, 0, 1, 11.5064, 46.2558)">
   <g  stroke-width="0" transform="matrix(-1, 0, 0, -1, 28.8, 7.2)">
    <rect  width="28.8" x="0" y="0" fill="#404040" height="7.199" stroke-width="0"/>
    <rect  width="2.781" x="2.21" y="2.209" height="2.782" stroke-width="0"/>
    <polygon  fill="#2A2A29" points="1.185,1.184,2.208,2.209,4.992,2.209,6.017,1.184" stroke-width="0"/>
    <polygon  fill="#474747" points="6.017,1.184,4.992,2.212,4.992,4.993,6.017,6.016" stroke-width="0"/>
    <polygon  fill="#595959" points="6.016,6.016,4.991,4.993,2.208,4.993,1.185,6.016" stroke-width="0"/>
    <polygon  fill="#373737" points="1.183,6.016,2.208,4.991,2.208,2.209,1.183,1.184" stroke-width="0"/>
    <rect  width="2.781" x="9.41098" y="2.209" height="2.782" stroke-width="0"/>
    <polygon  fill="#2A2A29" points="8.38397,1.184,9.40802,2.209,12.191,2.209,13.217,1.184" stroke-width="0"/>
    <polygon  fill="#474747" points="13.217,1.184,12.191,2.212,12.191,4.993,13.217,6.016" stroke-width="0"/>
    <polygon  fill="#595959" points="13.215,6.016,12.19,4.993,9.40802,4.993,8.38397,6.016" stroke-width="0"/>
    <polygon  fill="#373737" points="8.38202,6.016,9.40802,4.991,9.40802,2.209,8.38202,1.184" stroke-width="0"/>
    <rect  width="2.781" x="16.611" y="2.209" height="2.782" stroke-width="0"/>
    <polygon  fill="#2A2A29" points="15.584,1.184,16.609,2.209,19.392,2.209,20.417,1.184" stroke-width="0"/>
    <polygon  fill="#474747" points="20.417,1.184,19.392,2.212,19.392,4.993,20.417,6.016" stroke-width="0"/>
    <polygon  fill="#595959" points="20.416,6.016,19.39,4.993,16.609,4.993,15.584,6.016" stroke-width="0"/>
    <polygon  fill="#373737" points="15.583,6.016,16.609,4.991,16.609,2.209,15.583,1.184" stroke-width="0"/>
    <rect  width="2.781" x="23.81" y="2.209" height="2.782" stroke-width="0"/>
    <polygon  fill="#2A2A29" points="22.785,1.184,23.808,2.209,26.591,2.209,27.617,1.184" stroke-width="0"/>
    <polygon  fill="#474747" points="27.617,1.184,26.591,2.212,26.591,4.993,27.617,6.016" stroke-width="0"/>
    <polygon  fill="#595959" points="27.616,6.016,26.59,4.993,23.808,4.993,22.785,6.016" stroke-width="0"/>
    <polygon  fill="#373737" points="22.783,6.016,23.808,4.991,23.808,2.209,22.783,1.184" stroke-width="0"/>
   </g>
  </g>
  <g  id="sfe-logo-flame" stroke-width="0" transform="matrix(1, 0, 0, 1, 12.0879, 14.1007)">
   <g  stroke-width="0" transform="matrix(0, -1, 1, 0, -1.32751, 6.68652)">
    <g  stroke-width="0">
     <title >element:JP2</title>
     <g  stroke-width="0">
      <title >package:SFE-LOGO-FLAME</title>
      <title >polygon</title>
     </g>
    </g>
    <path  fill="#FFFFFF" stroke-width="0" d="M5.357,3.235c0,-0.001,0,-0.002,0,-0.003c0,-0.001,0,-0.003,0,-0.005L5.355,3.166c0,-0.001,0,-0.003,0,-0.004c0,-0.002,0,-0.004,-0.001,-0.007L5.349,2.947c0,-0.001,0,-0.001,0,-0.002c0,-0.001,0,-0.003,0,-0.005L5.343,2.757c0,-0.001,0,-0.001,0,-0.002c0,0,0,0,0,0c0,-0.001,-0.001,-0.003,-0.001,-0.005L5.336,2.724c0,-0.001,0,-0.003,0,-0.004L5.294,2.512c0,-0.004,-0.001,-0.009,-0.003,-0.013L5.282,2.457c0,-0.001,0,-0.003,-0.001,-0.005c0,0,0,0,0,0l0,0L5.276,2.437C5.275,2.431,5.273,2.425,5.271,2.42L5.249,2.359C5.248,2.358,5.247,2.356,5.247,2.354L5.181,2.168c0,0,-0.001,-0.001,-0.001,-0.002C5.179,2.165,5.179,2.163,5.178,2.162L5.165,2.138C5.164,2.136,5.163,2.135,5.162,2.133L5.088,1.996C5.087,1.993,5.086,1.99,5.084,1.988L5.049,1.922C5.048,1.92,5.047,1.918,5.046,1.917l-0.01,-0.019C5.035,1.897,5.035,1.896,5.034,1.896C5.033,1.894,5.032,1.893,5.031,1.892L4.823,1.631C4.821,1.627,4.819,1.625,4.816,1.622L4.775,1.571C4.774,1.57,4.774,1.569,4.773,1.568C4.772,1.567,4.771,1.565,4.77,1.564L4.665,1.479C4.663,1.478,4.662,1.476,4.66,1.475L4.579,1.409c-0.003,-0.003,-0.006,-0.006,-0.01,-0.00799999L4.492,1.338c-0.003,-0.004,-0.00799999,-0.00799999,-0.013,-0.01L4.45,1.304c-0.00799999,-0.006,-0.019,-0.01,-0.024,-0.00799999L4.425,1.296c-0.005,0,-0.009,0.002,-0.013,0.004c-0.001,0,-0.001,0,-0.001,0c-0.004,0.002,-0.007,0.005,-0.01,0.00799999c0,0,0,0,0,0c0,0,0,0,-0.001,0c0,0,0,0,0,0c0,0,0,0,-0.001,0C4.398,1.311,4.397,1.312,4.396,1.314l0,0c0,0,0,0,0,0c0,0,-0.001,0,-0.001,0s0,0,0,0C4.393,1.321,4.392,1.327,4.392,1.333l0,0.245L4.387,1.615L4.38,1.632C4.379,1.634,4.378,1.636,4.378,1.638L4.335,1.694C4.332,1.697,4.33,1.7,4.328,1.703l-0.03,0.038l-0.03,0.021C4.266,1.763,4.264,1.764,4.262,1.766L4.195,1.812L4.146,1.83L3.993,1.847L3.844,1.818L3.705,1.748L3.53,1.621C3.529,1.62,3.527,1.619,3.525,1.618L3.449,1.562L3.353,1.48C3.352,1.479,3.35,1.477,3.348,1.476l-0.06,-0.064C3.288,1.41,3.287,1.409,3.285,1.407l-0.051,-0.06C3.232,1.343,3.229,1.339,3.226,1.335L3.153,1.217L3.148,1.206c0,-0.002,-0.001,-0.004,-0.002,-0.005L3.119,1.134C3.118,1.132,3.117,1.129,3.116,1.127l-0.021,-0.05l0,-0.003c0,-0.005,-0.001,-0.009,-0.002,-0.013L3.078,0.992002l0.003,-0.0859997l0.044,-0.146l0.015,-0.025c0.001,-0.001,0.002,-0.003,0.003,-0.005l0.062,-0.101l0.11,-0.103c0.001,0,0.002,-0.001,0.002,-0.002l0.136,-0.072l0.139,-0.039l0.145,-0.016l0.171,0c0.005,0,0.011,-0.001,0.015,-0.003c0.001,0,0.001,0,0.001,0l0,0c0.001,0,0.001,0,0.001,0l0,0c0.003,-0.001,0.005,-0.003,0.007,-0.005c0.005,-0.003,0.00799999,-0.00799999,0.01,-0.013l0,0l0,0c0.002,-0.003,0.002,-0.006,0.003,-0.01c0,-0.00799999,-0.002,-0.016,-0.006,-0.022l0,0c0,0,-0.001,0,-0.001,0C3.938,0.339,3.938,0.337,3.937,0.336L3.93,0.33c0,-0.001,-0.001,-0.001,-0.001,-0.002L3.928,0.328C3.927,0.325,3.927,0.325,3.924,0.324L3.802,0.229C3.798,0.224,3.795,0.224,3.793,0.224L3.65,0.162l0,0c0,0,0,0,-0.001,0l-0.1,-0.042L3.521,0.105C3.519,0.104,3.517,0.103,3.514,0.103L3.485,0.0889999c-0.002,0,-0.004,-0.001,-0.006,-0.002c0,0,0,0,0,0l0,0L3.253,0.031C3.25,0.03,3.246,0.029,3.242,0.029L3.231,0.026C3.229,0.025,3.226,0.025,3.225,0.025L2.97,0C2.969,0,2.967,0,2.966,0l0,0C2.965,0,2.963,0,2.962,0L2.717,0.019c0,0,-0.001,0,-0.001,0c-0.002,0,-0.005,0,-0.007,0.001L2.678,0.029c-0.003,0,-0.007,0.001,-0.01,0.003L2.473,0.0850003C2.47,0.0859997,2.468,0.09,2.465,0.0879998L2.288,0.177c0,0,0,0,-0.001,0L2.245,0.198c-0.001,0,-0.001,0,-0.002,0.001c0,0,0,0,0,0C2.242,0.2,2.24,0.201,2.239,0.202L2.02,0.359C2.018,0.36,2.017,0.361,2.015,0.363L1.829,0.54C1.827,0.541,1.825,0.543,1.823,0.545L1.818,0.55c0,0.001,-0.001,0.002,-0.002,0.002C1.815,0.553,1.814,0.555,1.813,0.556L1.716,0.691c0,0,0,0,0,0.001L1.692,0.725998C1.691,0.726998,1.69,0.727999,1.69,0.729C1.688,0.731002,1.688,0.733003,1.687,0.734998L1.673,0.770998c0,0.001,-0.001,0.002,-0.001,0.004L1.646,0.841003c0,0.001,-0.001,0.003,-0.002,0.005L1.612,0.930002C1.611,0.931997,1.611,0.933998,1.61,0.936c0,0.001,0,0.002,0,0.004L1.584,1.147c0,0.001,0,0.003,0,0.004c0,0.002,0,0.004,0,0.006l0.00799999,0.059c0,0.003,0,0.006,0.001,0.009l0.00799999,0.061c0,0,0,0.001,0,0.002c0,0.004,0.001,0.00799999,0.002,0.012l0.009,0.063c0,0.001,0,0.002,0,0.004c0,0.002,0.001,0.003,0.002,0.005l0,0c0,0,0,0,0,0L1.643,1.44c0.001,0.004,0.002,0.00799999,0.004,0.012l0.025,0.063c0,0.002,0.001,0.005,0.003,0.007l0.019,0.046c0,0.002,0.001,0.004,0.003,0.006c0,0,0,0.001,0.001,0.002l0.157,0.233c0.001,0.003,0.003,0.005,0.005,0.00799999l0.043,0.064C1.906,1.884,1.908,1.887,1.91,1.889L2,2.022c0.002,0.005,0.004,0.009,0.00799999,0.012l0.026,0.039c0.002,0.003,0.003,0.004,0.004,0.005l0.022,0.024c0.001,0.002,0.003,0.004,0.006,0.006l0.062,0.066C2.13,2.176,2.132,2.178,2.133,2.179l0.13,0.139C2.266,2.32,2.268,2.323,2.271,2.325l0.062,0.066c0.001,0.002,0.003,0.003,0.005,0.005l0.064,0.068c0,0,0.001,0.001,0.001,0.001l0.122,0.139c0.002,0.002,0.004,0.004,0.006,0.006l0.023,0.027l0.068,0.142L2.64,2.874c0,0.004,0.001,0.007,0.002,0.011l0.01,0.052L2.639,3.094L2.587,3.242L2.498,3.373L2.377,3.476L2.223,3.56L2.057,3.615L1.884,3.644l-0.201,-0.01L1.676,3.631c-0.001,0,-0.002,0,-0.003,0L1.49,3.574L1.354,3.492C1.352,3.49,1.35,3.489,1.347,3.488L1.319,3.471L1.231,3.377L1.172,3.263L1.148,3.158c0,-0.003,-0.001,-0.006,-0.002,-0.009l0,-0.124c0,-0.001,0,-0.002,0,-0.003l0.026,-0.115l0.021,-0.04l0.033,-0.032L1.23,2.832C1.232,2.831,1.234,2.83,1.236,2.828l0.224,-0.162l0.038,-0.021l0.039,-0.00799999l0.044,0.004c0.001,0,0.002,0,0.003,0c0.019,0,0.034,-0.014,0.036,-0.033c0.001,-0.012,-0.003,-0.023,-0.012,-0.03l0,0l0,0c0,0,0,0,0,0l0,0c0,0,0,0,0,0c0,0,0,0,0,0s0,0,0,0c0,0,0,0,0,0s0,0,0,0s0,0,0,0l0,0C1.6,2.574,1.595,2.572,1.589,2.571L1.453,2.549c0,0,0,0,-0.001,0c-0.001,0,-0.001,0,-0.002,0L1.184,2.528c-0.001,0,-0.002,0,-0.003,0s-0.002,0,-0.003,0L0.912002,2.549c-0.001,0,-0.002,0,-0.003,0c0,0,0,0,0,0l0,0c-0.001,0,-0.002,0,-0.003,0L0.707,2.602c0,0,-0.001,0,-0.002,0.001c0,0,0,0,0,0c-0.002,0,-0.004,0.001,-0.005,0.002l-0.182,0.09C0.515,2.696,0.513,2.697,0.51,2.7L0.349,2.825C0.348,2.826,0.347,2.826,0.346,2.827C0.344,2.828,0.343,2.83,0.342,2.831L0.21,2.986c0,0,0,0,-0.001,0.001l0,0C0.208,2.99,0.206,2.991,0.205,2.993L0.204,2.997C0.202,2.999,0.201,3,0.2,3.002L0.0930002,3.199c0,0,-0.001,0.001,-0.001,0.003C0.09,3.204,0.09,3.206,0.0889999,3.207L0.0859997,3.219C0.0850003,3.221,0.0840002,3.223,0.0840002,3.226L0.021,3.433c0,0.001,0,0.001,-0.001,0.002c0,0.002,0,0.004,-0.001,0.006L0.00799999,3.585c0,0.002,-0.001,0.005,-0.001,0.00799999c0,0,0,0.001,0,0.002L0.002,3.658c0,0.002,-0.001,0.005,-0.001,0.007c0,0,0,0.001,0,0.001l0,0.011l0,0C0,3.678,0,3.679,0,3.68l0,4.296C0,7.97897,0,7.97998,0,7.98199c0,0.001,0,0.001,0,0.001c0,0.002,0.001,0.004,0.001,0.006l0,0L0.001,7.98998C0.004,7.99502,0.00799999,7.99999,0.012,8.00503c0.007,0.006,0.016,0.009,0.024,0.009c0.001,0,0.003,0,0.004,0c0,0,0,0,0,0c0.007,-0.004,0.013,-0.006,0.02,-0.01c0.001,-0.001,0.002,-0.002,0.003,-0.003L0.118,7.94002C0.12,7.938,0.122,7.93598,0.124,7.93397l0.25,-0.281C0.375,7.65,0.377,7.64698,0.379,7.64597L0.437,7.58002C0.44,7.578,0.442,7.57498,0.444,7.57202l0.123,-0.139c0.001,0,0.001,-0.001,0.002,-0.002l0.061,-0.068C0.631,7.362,0.633,7.35998,0.635,7.35703l0.185,-0.208c0.004,-0.002,0.007,-0.006,0.01,-0.011l0.057,-0.063C0.887998,7.073,0.888998,7.072,0.891,7.07l0.185,-0.209c0.004,-0.003,0.007,-0.006,0.01,-0.01l0.057,-0.064c0.002,-0.002,0.003,-0.003,0.005,-0.005l0.059,-0.066C1.208,6.714,1.21,6.711,1.211,6.708l0.057,-0.062C1.271,6.643,1.273,6.64,1.275,6.637l0.056,-0.063c0.003,-0.003,0.007,-0.006,0.009,-0.01l0.057,-0.064c0.001,-0.002,0.003,-0.003,0.004,-0.005l0.042,-0.047L1.54,6.359c0.004,-0.002,0.007,-0.005,0.01,-0.009l0.136,-0.124l0.257,-0.153C1.944,6.072,1.946,6.071,1.947,6.07l0.02,-0.012l0.099,-0.035L2.17,6.005l0.645,0c0,-0.001,0.002,-0.001,0.004,0L3.204,5.97c0.001,0,0.003,0,0.004,-0.001c0,0,0,0,0,0c0.001,0,0.002,0,0.003,-0.001l0.373,-0.104c0.001,-0.001,0.003,-0.001,0.005,-0.002c0,0,0.001,-0.001,0.002,-0.001l0.004,-0.002c0.003,-0.001,0.006,-0.003,0.009,-0.004l0.139,-0.068c0.004,-0.001,0.007,-0.003,0.01,-0.005l0.141,-0.068c0.001,0,0.003,-0.001,0.004,-0.002l0.041,-0.021c0.002,0,0.003,-0.001,0.005,-0.002c0.001,0,0.001,-0.001,0.002,-0.001l0.168,-0.119c0.004,-0.002,0.007,-0.004,0.01,-0.007l0.149,-0.105c0.002,-0.001,0.004,-0.002,0.005,-0.004l0.292,-0.274c0.002,-0.002,0.003,-0.003,0.004,-0.005l0.0940003,-0.117c0.001,-0.001,0.001,-0.001,0.001,-0.002l0.056,-0.069C4.725,4.984,4.727,4.982,4.728,4.98L4.78,4.914C4.782,4.912,4.784,4.91,4.785,4.907l0.037,-0.046c0.001,-0.002,0.002,-0.003,0.003,-0.005c0,0,0,0,0.001,0L4.826,4.855l0.05,-0.0879998c0.002,-0.003,0.004,-0.006,0.005,-0.01L4.959,4.62C4.96,4.619,4.96,4.617,4.961,4.616L4.998,4.55C5,4.547,5.002,4.544,5.003,4.542l0.036,-0.063c0.002,-0.002,0.003,-0.004,0.004,-0.007l0.036,-0.064c0.002,-0.003,0.004,-0.006,0.006,-0.01l0.01,-0.018c0,-0.001,0.001,-0.001,0.001,-0.002c0,0.001,0.002,-0.002,0.002,-0.004l0.039,-0.113c0.002,-0.004,0.004,-0.00799999,0.004,-0.013l0.021,-0.062C5.163,4.182,5.164,4.18,5.165,4.177l0.047,-0.136c0.001,-0.003,0.002,-0.006,0.003,-0.009l0.022,-0.063c0.001,-0.002,0.001,-0.004,0.002,-0.007l0.021,-0.062c0.002,-0.004,0.004,-0.00799999,0.005,-0.013l0.01,-0.029c0,-0.001,0.001,-0.002,0.001,-0.004c0,-0.001,0,-0.002,0.001,-0.003l0.004,-0.03c0.001,-0.003,0.002,-0.007,0.002,-0.01l0.01,-0.064c0,-0.002,0.001,-0.004,0.001,-0.007l0.01,-0.065c0,-0.002,0.001,-0.004,0.001,-0.005l0.042,-0.281c0.001,-0.003,0.002,-0.006,0.002,-0.01l0.01,-0.064c0,-0.003,0.001,-0.006,0.001,-0.009c0,-0.001,0,-0.002,0,-0.003L5.357,3.235z"/>
   </g>
  </g>
 </g>
</svg>
