<?xml version='1.0' encoding='UTF-8' standalone='no'?>
<!-- Created with Fritzing (http://www.fritzing.org/) -->
<svg xmlns="http://www.w3.org/2000/svg" width="0.788in" x="0in" version="1.2" y="0in" height="1.037in" viewBox="0 0 56.736 74.664" baseProfile="tiny">
 <desc >Fritzing breadboard generated by brd2svg</desc>
 <g  id="breadboard" stroke-width="0">
  <g  id="icon" stroke-width="0">
   <path  fill="#1F7A34" stroke="none" stroke-width="0" d="M0,74.664L56.736,74.664L56.736,0L0,0L0,74.664M45.216,62.532a1.152,1.152,0,1,1,2.304,0,1.152,1.152,0,1,1,-2.304,0zM38.016,62.532a1.152,1.152,0,1,1,2.304,0,1.152,1.152,0,1,1,-2.304,0zM30.816,62.532a1.152,1.152,0,1,1,2.304,0,1.152,1.152,0,1,1,-2.304,0zM23.616,62.532a1.152,1.152,0,1,1,2.304,0,1.152,1.152,0,1,1,-2.304,0zM16.416,62.532a1.152,1.152,0,1,1,2.304,0,1.152,1.152,0,1,1,-2.304,0zM9.216,62.532a1.152,1.152,0,1,1,2.304,0,1.152,1.152,0,1,1,-2.304,0zM45.216,69.732a1.152,1.152,0,1,1,2.304,0,1.152,1.152,0,1,1,-2.304,0zM38.016,69.732a1.152,1.152,0,1,1,2.304,0,1.152,1.152,0,1,1,-2.304,0zM30.816,69.732a1.152,1.152,0,1,1,2.304,0,1.152,1.152,0,1,1,-2.304,0zM23.616,69.732a1.152,1.152,0,1,1,2.304,0,1.152,1.152,0,1,1,-2.304,0zM16.416,69.732a1.152,1.152,0,1,1,2.304,0,1.152,1.152,0,1,1,-2.304,0zM9.216,69.732a1.152,1.152,0,1,1,2.304,0,1.152,1.152,0,1,1,-2.304,0zM9.216,4.932a1.152,1.152,0,1,1,2.304,0,1.152,1.152,0,1,1,-2.304,0zM16.416,4.932a1.152,1.152,0,1,1,2.304,0,1.152,1.152,0,1,1,-2.304,0zM23.616,4.932a1.152,1.152,0,1,1,2.304,0,1.152,1.152,0,1,1,-2.304,0zM30.816,4.932a1.152,1.152,0,1,1,2.304,0,1.152,1.152,0,1,1,-2.304,0zM38.016,4.932a1.152,1.152,0,1,1,2.304,0,1.152,1.152,0,1,1,-2.304,0zM45.216,4.932a1.152,1.152,0,1,1,2.304,0,1.152,1.152,0,1,1,-2.304,0zM9.216,12.132a1.152,1.152,0,1,1,2.304,0,1.152,1.152,0,1,1,-2.304,0zM16.416,12.132a1.152,1.152,0,1,1,2.304,0,1.152,1.152,0,1,1,-2.304,0zM23.616,12.132a1.152,1.152,0,1,1,2.304,0,1.152,1.152,0,1,1,-2.304,0zM30.816,12.132a1.152,1.152,0,1,1,2.304,0,1.152,1.152,0,1,1,-2.304,0zM38.016,12.132a1.152,1.152,0,1,1,2.304,0,1.152,1.152,0,1,1,-2.304,0zM45.216,12.132a1.152,1.152,0,1,1,2.304,0,1.152,1.152,0,1,1,-2.304,0z"/>
   <g  stroke-width="0">
    <title >layer 21</title>
    <g  stroke-width="0">
     <title >element:JP1</title>
     <g  stroke-width="0">
      <title >package:FE06</title>
      <line  stroke="white" stroke-linecap="round" y1="66.132" x1="49.968" y2="58.932" stroke-width="0.432" x2="49.968"/>
      <line  stroke="white" stroke-linecap="round" y1="58.932" x1="49.968" y2="58.932" stroke-width="0.432" x2="43.488"/>
      <line  stroke="white" stroke-linecap="round" y1="58.932" x1="43.488" y2="59.652" stroke-width="0.432" x2="42.768"/>
      <line  stroke="white" stroke-linecap="round" y1="59.652" x1="42.768" y2="58.932" stroke-width="0.432" x2="42.048"/>
      <line  stroke="white" stroke-linecap="round" y1="58.932" x1="42.048" y2="58.932" stroke-width="0.432" x2="36.288"/>
      <line  stroke="white" stroke-linecap="round" y1="58.932" x1="36.288" y2="59.652" stroke-width="0.432" x2="35.568"/>
      <line  stroke="white" stroke-linecap="round" y1="59.652" x1="35.568" y2="58.932" stroke-width="0.432" x2="34.848"/>
      <line  stroke="white" stroke-linecap="round" y1="58.932" x1="34.848" y2="58.932" stroke-width="0.432" x2="29.088"/>
      <line  stroke="white" stroke-linecap="round" y1="58.932" x1="29.088" y2="59.652" stroke-width="0.432" x2="28.368"/>
      <line  stroke="white" stroke-linecap="round" y1="59.652" x1="28.368" y2="58.932" stroke-width="0.432" x2="27.648"/>
      <line  stroke="white" stroke-linecap="round" y1="58.932" x1="27.648" y2="58.932" stroke-width="0.432" x2="21.888"/>
      <line  stroke="white" stroke-linecap="round" y1="58.932" x1="21.888" y2="59.652" stroke-width="0.432" x2="21.168"/>
      <line  stroke="white" stroke-linecap="round" y1="59.652" x1="21.168" y2="58.932" stroke-width="0.432" x2="20.448"/>
      <line  stroke="white" stroke-linecap="round" y1="58.932" x1="20.448" y2="58.932" stroke-width="0.432" x2="14.688"/>
      <line  stroke="white" stroke-linecap="round" y1="58.932" x1="13.248" y2="58.932" stroke-width="0.432" x2="6.768"/>
      <line  stroke="white" stroke-linecap="round" y1="58.932" x1="6.768" y2="66.132" stroke-width="0.432" x2="6.768"/>
      <line  stroke="white" stroke-linecap="round" y1="66.132" x1="6.768" y2="66.132" stroke-width="0.432" x2="13.248"/>
      <line  stroke="white" stroke-linecap="round" y1="66.132" x1="14.688" y2="66.132" stroke-width="0.432" x2="20.448"/>
      <line  stroke="white" stroke-linecap="round" y1="66.132" x1="20.448" y2="65.412" stroke-width="0.432" x2="21.168"/>
      <line  stroke="white" stroke-linecap="round" y1="65.412" x1="21.168" y2="66.132" stroke-width="0.432" x2="21.888"/>
      <line  stroke="white" stroke-linecap="round" y1="66.132" x1="21.888" y2="66.132" stroke-width="0.432" x2="27.648"/>
      <line  stroke="white" stroke-linecap="round" y1="66.132" x1="27.648" y2="65.412" stroke-width="0.432" x2="28.368"/>
      <line  stroke="white" stroke-linecap="round" y1="65.412" x1="28.368" y2="66.132" stroke-width="0.432" x2="29.088"/>
      <line  stroke="white" stroke-linecap="round" y1="66.132" x1="29.088" y2="66.132" stroke-width="0.432" x2="34.848"/>
      <line  stroke="white" stroke-linecap="round" y1="66.132" x1="34.848" y2="65.412" stroke-width="0.432" x2="35.568"/>
      <line  stroke="white" stroke-linecap="round" y1="65.412" x1="35.568" y2="66.132" stroke-width="0.432" x2="36.288"/>
      <line  stroke="white" stroke-linecap="round" y1="66.132" x1="36.288" y2="66.132" stroke-width="0.432" x2="42.048"/>
      <line  stroke="white" stroke-linecap="round" y1="66.132" x1="42.048" y2="65.412" stroke-width="0.432" x2="42.768"/>
      <line  stroke="white" stroke-linecap="round" y1="65.412" x1="42.768" y2="66.132" stroke-width="0.432" x2="43.488"/>
      <line  stroke="white" stroke-linecap="round" y1="66.132" x1="43.488" y2="66.132" stroke-width="0.432" x2="49.968"/>
      <line  stroke="white" stroke-linecap="round" y1="66.132" x1="13.248" y2="65.412" stroke-width="0.432" x2="13.968"/>
      <line  stroke="white" stroke-linecap="round" y1="65.412" x1="13.968" y2="66.132" stroke-width="0.432" x2="14.688"/>
      <line  stroke="white" stroke-linecap="round" y1="59.652" x1="13.968" y2="58.932" stroke-width="0.432" x2="13.248"/>
      <line  stroke="white" stroke-linecap="round" y1="58.932" x1="14.688" y2="59.652" stroke-width="0.432" x2="13.968"/>
      <g  stroke-width="0">
       <title >text:1</title>
       <text  x="47.808" y="71.028" font-family="OCRA" fill="#ffffff" text-anchor="end" stroke="none" stroke-width="0" font-size="4.176">1</text>
      </g>
      <g  stroke-width="0">
       <title >text:6</title>
       <text  x="11.808" y="71.028" font-family="OCRA" fill="#ffffff" text-anchor="end" stroke="none" stroke-width="0" font-size="4.176">6</text>
      </g>
     </g>
    </g>
    <g  stroke-width="0">
     <title >element:JP2</title>
     <g  stroke-width="0">
      <title >package:FE06</title>
      <line  stroke="white" stroke-linecap="round" y1="73.332" x1="49.968" y2="66.132" stroke-width="0.432" x2="49.968"/>
      <line  stroke="white" stroke-linecap="round" y1="66.132" x1="49.968" y2="66.132" stroke-width="0.432" x2="43.488"/>
      <line  stroke="white" stroke-linecap="round" y1="66.132" x1="43.488" y2="66.852" stroke-width="0.432" x2="42.768"/>
      <line  stroke="white" stroke-linecap="round" y1="66.852" x1="42.768" y2="66.132" stroke-width="0.432" x2="42.048"/>
      <line  stroke="white" stroke-linecap="round" y1="66.132" x1="42.048" y2="66.132" stroke-width="0.432" x2="36.288"/>
      <line  stroke="white" stroke-linecap="round" y1="66.132" x1="36.288" y2="66.852" stroke-width="0.432" x2="35.568"/>
      <line  stroke="white" stroke-linecap="round" y1="66.852" x1="35.568" y2="66.132" stroke-width="0.432" x2="34.848"/>
      <line  stroke="white" stroke-linecap="round" y1="66.132" x1="34.848" y2="66.132" stroke-width="0.432" x2="29.088"/>
      <line  stroke="white" stroke-linecap="round" y1="66.132" x1="29.088" y2="66.852" stroke-width="0.432" x2="28.368"/>
      <line  stroke="white" stroke-linecap="round" y1="66.852" x1="28.368" y2="66.132" stroke-width="0.432" x2="27.648"/>
      <line  stroke="white" stroke-linecap="round" y1="66.132" x1="27.648" y2="66.132" stroke-width="0.432" x2="21.888"/>
      <line  stroke="white" stroke-linecap="round" y1="66.132" x1="21.888" y2="66.852" stroke-width="0.432" x2="21.168"/>
      <line  stroke="white" stroke-linecap="round" y1="66.852" x1="21.168" y2="66.132" stroke-width="0.432" x2="20.448"/>
      <line  stroke="white" stroke-linecap="round" y1="66.132" x1="20.448" y2="66.132" stroke-width="0.432" x2="14.688"/>
      <line  stroke="white" stroke-linecap="round" y1="66.132" x1="13.248" y2="66.132" stroke-width="0.432" x2="6.768"/>
      <line  stroke="white" stroke-linecap="round" y1="66.132" x1="6.768" y2="73.332" stroke-width="0.432" x2="6.768"/>
      <line  stroke="white" stroke-linecap="round" y1="73.332" x1="6.768" y2="73.332" stroke-width="0.432" x2="13.248"/>
      <line  stroke="white" stroke-linecap="round" y1="73.332" x1="14.688" y2="73.332" stroke-width="0.432" x2="20.448"/>
      <line  stroke="white" stroke-linecap="round" y1="73.332" x1="20.448" y2="72.612" stroke-width="0.432" x2="21.168"/>
      <line  stroke="white" stroke-linecap="round" y1="72.612" x1="21.168" y2="73.332" stroke-width="0.432" x2="21.888"/>
      <line  stroke="white" stroke-linecap="round" y1="73.332" x1="21.888" y2="73.332" stroke-width="0.432" x2="27.648"/>
      <line  stroke="white" stroke-linecap="round" y1="73.332" x1="27.648" y2="72.612" stroke-width="0.432" x2="28.368"/>
      <line  stroke="white" stroke-linecap="round" y1="72.612" x1="28.368" y2="73.332" stroke-width="0.432" x2="29.088"/>
      <line  stroke="white" stroke-linecap="round" y1="73.332" x1="29.088" y2="73.332" stroke-width="0.432" x2="34.848"/>
      <line  stroke="white" stroke-linecap="round" y1="73.332" x1="34.848" y2="72.612" stroke-width="0.432" x2="35.568"/>
      <line  stroke="white" stroke-linecap="round" y1="72.612" x1="35.568" y2="73.332" stroke-width="0.432" x2="36.288"/>
      <line  stroke="white" stroke-linecap="round" y1="73.332" x1="36.288" y2="73.332" stroke-width="0.432" x2="42.048"/>
      <line  stroke="white" stroke-linecap="round" y1="73.332" x1="42.048" y2="72.612" stroke-width="0.432" x2="42.768"/>
      <line  stroke="white" stroke-linecap="round" y1="72.612" x1="42.768" y2="73.332" stroke-width="0.432" x2="43.488"/>
      <line  stroke="white" stroke-linecap="round" y1="73.332" x1="43.488" y2="73.332" stroke-width="0.432" x2="49.968"/>
      <line  stroke="white" stroke-linecap="round" y1="73.332" x1="13.248" y2="72.612" stroke-width="0.432" x2="13.968"/>
      <line  stroke="white" stroke-linecap="round" y1="72.612" x1="13.968" y2="73.332" stroke-width="0.432" x2="14.688"/>
      <line  stroke="white" stroke-linecap="round" y1="66.852" x1="13.968" y2="66.132" stroke-width="0.432" x2="13.248"/>
      <line  stroke="white" stroke-linecap="round" y1="66.132" x1="14.688" y2="66.852" stroke-width="0.432" x2="13.968"/>
      <g  stroke-width="0">
       <title >text:1</title>
      </g>
      <g  stroke-width="0">
       <title >text:6</title>
      </g>
     </g>
    </g>
    <g  stroke-width="0">
     <title >element:JP3</title>
     <g  stroke-width="0">
      <title >package:FE06</title>
      <line  stroke="white" stroke-linecap="round" y1="1.332" x1="6.768" y2="8.532" stroke-width="0.432" x2="6.768"/>
      <line  stroke="white" stroke-linecap="round" y1="8.532" x1="6.768" y2="8.532" stroke-width="0.432" x2="13.248"/>
      <line  stroke="white" stroke-linecap="round" y1="8.532" x1="13.248" y2="7.812" stroke-width="0.432" x2="13.968"/>
      <line  stroke="white" stroke-linecap="round" y1="7.812" x1="13.968" y2="8.532" stroke-width="0.432" x2="14.688"/>
      <line  stroke="white" stroke-linecap="round" y1="8.532" x1="14.688" y2="8.532" stroke-width="0.432" x2="20.448"/>
      <line  stroke="white" stroke-linecap="round" y1="8.532" x1="20.448" y2="7.812" stroke-width="0.432" x2="21.168"/>
      <line  stroke="white" stroke-linecap="round" y1="7.812" x1="21.168" y2="8.532" stroke-width="0.432" x2="21.888"/>
      <line  stroke="white" stroke-linecap="round" y1="8.532" x1="21.888" y2="8.532" stroke-width="0.432" x2="27.648"/>
      <line  stroke="white" stroke-linecap="round" y1="8.532" x1="27.648" y2="7.812" stroke-width="0.432" x2="28.368"/>
      <line  stroke="white" stroke-linecap="round" y1="7.812" x1="28.368" y2="8.532" stroke-width="0.432" x2="29.088"/>
      <line  stroke="white" stroke-linecap="round" y1="8.532" x1="29.088" y2="8.532" stroke-width="0.432" x2="34.848"/>
      <line  stroke="white" stroke-linecap="round" y1="8.532" x1="34.848" y2="7.812" stroke-width="0.432" x2="35.568"/>
      <line  stroke="white" stroke-linecap="round" y1="7.812" x1="35.568" y2="8.532" stroke-width="0.432" x2="36.288"/>
      <line  stroke="white" stroke-linecap="round" y1="8.532" x1="36.288" y2="8.532" stroke-width="0.432" x2="42.048"/>
      <line  stroke="white" stroke-linecap="round" y1="8.532" x1="43.488" y2="8.532" stroke-width="0.432" x2="49.968"/>
      <line  stroke="white" stroke-linecap="round" y1="8.532" x1="49.968" y2="1.332" stroke-width="0.432" x2="49.968"/>
      <line  stroke="white" stroke-linecap="round" y1="1.332" x1="49.968" y2="1.332" stroke-width="0.432" x2="43.488"/>
      <line  stroke="white" stroke-linecap="round" y1="1.332" x1="42.048" y2="1.332" stroke-width="0.432" x2="36.288"/>
      <line  stroke="white" stroke-linecap="round" y1="1.332" x1="36.288" y2="2.052" stroke-width="0.432" x2="35.568"/>
      <line  stroke="white" stroke-linecap="round" y1="2.052" x1="35.568" y2="1.332" stroke-width="0.432" x2="34.848"/>
      <line  stroke="white" stroke-linecap="round" y1="1.332" x1="34.848" y2="1.332" stroke-width="0.432" x2="29.088"/>
      <line  stroke="white" stroke-linecap="round" y1="1.332" x1="29.088" y2="2.052" stroke-width="0.432" x2="28.368"/>
      <line  stroke="white" stroke-linecap="round" y1="2.052" x1="28.368" y2="1.332" stroke-width="0.432" x2="27.648"/>
      <line  stroke="white" stroke-linecap="round" y1="1.332" x1="27.648" y2="1.332" stroke-width="0.432" x2="21.888"/>
      <line  stroke="white" stroke-linecap="round" y1="1.332" x1="21.888" y2="2.052" stroke-width="0.432" x2="21.168"/>
      <line  stroke="white" stroke-linecap="round" y1="2.052" x1="21.168" y2="1.332" stroke-width="0.432" x2="20.448"/>
      <line  stroke="white" stroke-linecap="round" y1="1.332" x1="20.448" y2="1.332" stroke-width="0.432" x2="14.688"/>
      <line  stroke="white" stroke-linecap="round" y1="1.332" x1="14.688" y2="2.052" stroke-width="0.432" x2="13.968"/>
      <line  stroke="white" stroke-linecap="round" y1="2.052" x1="13.968" y2="1.332" stroke-width="0.432" x2="13.248"/>
      <line  stroke="white" stroke-linecap="round" y1="1.332" x1="13.248" y2="1.332" stroke-width="0.432" x2="6.768"/>
      <line  stroke="white" stroke-linecap="round" y1="1.332" x1="43.488" y2="2.052" stroke-width="0.432" x2="42.768"/>
      <line  stroke="white" stroke-linecap="round" y1="2.052" x1="42.768" y2="1.332" stroke-width="0.432" x2="42.048"/>
      <line  stroke="white" stroke-linecap="round" y1="7.812" x1="42.768" y2="8.532" stroke-width="0.432" x2="43.488"/>
      <line  stroke="white" stroke-linecap="round" y1="8.532" x1="42.048" y2="7.812" stroke-width="0.432" x2="42.768"/>
      <g  stroke-width="0">
       <title >text:1</title>
      </g>
      <g  stroke-width="0">
       <title >text:6</title>
      </g>
     </g>
    </g>
    <g  stroke-width="0">
     <title >element:JP4</title>
     <g  stroke-width="0">
      <title >package:FE06</title>
      <line  stroke="white" stroke-linecap="round" y1="8.532" x1="6.768" y2="15.732" stroke-width="0.432" x2="6.768"/>
      <line  stroke="white" stroke-linecap="round" y1="15.732" x1="6.768" y2="15.732" stroke-width="0.432" x2="13.248"/>
      <line  stroke="white" stroke-linecap="round" y1="15.732" x1="13.248" y2="15.012" stroke-width="0.432" x2="13.968"/>
      <line  stroke="white" stroke-linecap="round" y1="15.012" x1="13.968" y2="15.732" stroke-width="0.432" x2="14.688"/>
      <line  stroke="white" stroke-linecap="round" y1="15.732" x1="14.688" y2="15.732" stroke-width="0.432" x2="20.448"/>
      <line  stroke="white" stroke-linecap="round" y1="15.732" x1="20.448" y2="15.012" stroke-width="0.432" x2="21.168"/>
      <line  stroke="white" stroke-linecap="round" y1="15.012" x1="21.168" y2="15.732" stroke-width="0.432" x2="21.888"/>
      <line  stroke="white" stroke-linecap="round" y1="15.732" x1="21.888" y2="15.732" stroke-width="0.432" x2="27.648"/>
      <line  stroke="white" stroke-linecap="round" y1="15.732" x1="27.648" y2="15.012" stroke-width="0.432" x2="28.368"/>
      <line  stroke="white" stroke-linecap="round" y1="15.012" x1="28.368" y2="15.732" stroke-width="0.432" x2="29.088"/>
      <line  stroke="white" stroke-linecap="round" y1="15.732" x1="29.088" y2="15.732" stroke-width="0.432" x2="34.848"/>
      <line  stroke="white" stroke-linecap="round" y1="15.732" x1="34.848" y2="15.012" stroke-width="0.432" x2="35.568"/>
      <line  stroke="white" stroke-linecap="round" y1="15.012" x1="35.568" y2="15.732" stroke-width="0.432" x2="36.288"/>
      <line  stroke="white" stroke-linecap="round" y1="15.732" x1="36.288" y2="15.732" stroke-width="0.432" x2="42.048"/>
      <line  stroke="white" stroke-linecap="round" y1="15.732" x1="43.488" y2="15.732" stroke-width="0.432" x2="49.968"/>
      <line  stroke="white" stroke-linecap="round" y1="15.732" x1="49.968" y2="8.532" stroke-width="0.432" x2="49.968"/>
      <line  stroke="white" stroke-linecap="round" y1="8.532" x1="49.968" y2="8.532" stroke-width="0.432" x2="43.488"/>
      <line  stroke="white" stroke-linecap="round" y1="8.532" x1="42.048" y2="8.532" stroke-width="0.432" x2="36.288"/>
      <line  stroke="white" stroke-linecap="round" y1="8.532" x1="36.288" y2="9.252" stroke-width="0.432" x2="35.568"/>
      <line  stroke="white" stroke-linecap="round" y1="9.252" x1="35.568" y2="8.532" stroke-width="0.432" x2="34.848"/>
      <line  stroke="white" stroke-linecap="round" y1="8.532" x1="34.848" y2="8.532" stroke-width="0.432" x2="29.088"/>
      <line  stroke="white" stroke-linecap="round" y1="8.532" x1="29.088" y2="9.252" stroke-width="0.432" x2="28.368"/>
      <line  stroke="white" stroke-linecap="round" y1="9.252" x1="28.368" y2="8.532" stroke-width="0.432" x2="27.648"/>
      <line  stroke="white" stroke-linecap="round" y1="8.532" x1="27.648" y2="8.532" stroke-width="0.432" x2="21.888"/>
      <line  stroke="white" stroke-linecap="round" y1="8.532" x1="21.888" y2="9.252" stroke-width="0.432" x2="21.168"/>
      <line  stroke="white" stroke-linecap="round" y1="9.252" x1="21.168" y2="8.532" stroke-width="0.432" x2="20.448"/>
      <line  stroke="white" stroke-linecap="round" y1="8.532" x1="20.448" y2="8.532" stroke-width="0.432" x2="14.688"/>
      <line  stroke="white" stroke-linecap="round" y1="8.532" x1="14.688" y2="9.252" stroke-width="0.432" x2="13.968"/>
      <line  stroke="white" stroke-linecap="round" y1="9.252" x1="13.968" y2="8.532" stroke-width="0.432" x2="13.248"/>
      <line  stroke="white" stroke-linecap="round" y1="8.532" x1="13.248" y2="8.532" stroke-width="0.432" x2="6.768"/>
      <line  stroke="white" stroke-linecap="round" y1="8.532" x1="43.488" y2="9.252" stroke-width="0.432" x2="42.768"/>
      <line  stroke="white" stroke-linecap="round" y1="9.252" x1="42.768" y2="8.532" stroke-width="0.432" x2="42.048"/>
      <line  stroke="white" stroke-linecap="round" y1="15.012" x1="42.768" y2="15.732" stroke-width="0.432" x2="43.488"/>
      <line  stroke="white" stroke-linecap="round" y1="15.732" x1="42.048" y2="15.012" stroke-width="0.432" x2="42.768"/>
      <g  stroke-width="0">
       <title >text:1</title>
       <text  x="8.928" y="7.812" font-family="OCRA" fill="#ffffff" text-anchor="start" stroke="none" stroke-width="0" font-size="4.176">1</text>
      </g>
      <g  stroke-width="0">
       <title >text:6</title>
       <text  x="44.928" y="7.812" font-family="OCRA" fill="#ffffff" text-anchor="start" stroke="none" stroke-width="0" font-size="4.176">6</text>
      </g>
     </g>
    </g>
   </g>
   <circle  fill="none" cx="46.368" cy="62.532" connectorname="1" stroke="#9A916C" r="1.512" id="connector0pin" stroke-width="0.72"/>
   <circle  fill="none" cx="39.168" cy="62.532" connectorname="2" stroke="#9A916C" r="1.512" id="connector1pin" stroke-width="0.72"/>
   <circle  fill="none" cx="31.968" cy="62.532" connectorname="3" stroke="#9A916C" r="1.512" id="connector2pin" stroke-width="0.72"/>
   <circle  fill="none" cx="24.768" cy="62.532" connectorname="4" stroke="#9A916C" r="1.512" id="connector3pin" stroke-width="0.72"/>
   <circle  fill="none" cx="17.568" cy="62.532" connectorname="5" stroke="#9A916C" r="1.512" id="connector4pin" stroke-width="0.72"/>
   <circle  fill="none" cx="10.368" cy="62.532" connectorname="6" stroke="#9A916C" r="1.512" id="connector5pin" stroke-width="0.72"/>
   <circle  fill="none" cx="46.368" cy="69.732" connectorname="1" stroke="#9A916C" r="1.512" id="connector6pin" stroke-width="0.72"/>
   <circle  fill="none" cx="39.168" cy="69.732" connectorname="2" stroke="#9A916C" r="1.512" id="connector7pin" stroke-width="0.72"/>
   <circle  fill="none" cx="31.968" cy="69.732" connectorname="3" stroke="#9A916C" r="1.512" id="connector8pin" stroke-width="0.72"/>
   <circle  fill="none" cx="24.768" cy="69.732" connectorname="4" stroke="#9A916C" r="1.512" id="connector9pin" stroke-width="0.72"/>
   <circle  fill="none" cx="17.568" cy="69.732" connectorname="5" stroke="#9A916C" r="1.512" id="connector10pin" stroke-width="0.72"/>
   <circle  fill="none" cx="10.368" cy="69.732" connectorname="6" stroke="#9A916C" r="1.512" id="connector11pin" stroke-width="0.72"/>
   <circle  fill="none" cx="10.368" cy="4.932" connectorname="1" stroke="#9A916C" r="1.512" id="connector12pin" stroke-width="0.72"/>
   <circle  fill="none" cx="17.568" cy="4.932" connectorname="2" stroke="#9A916C" r="1.512" id="connector13pin" stroke-width="0.72"/>
   <circle  fill="none" cx="24.768" cy="4.932" connectorname="3" stroke="#9A916C" r="1.512" id="connector14pin" stroke-width="0.72"/>
   <circle  fill="none" cx="31.968" cy="4.932" connectorname="4" stroke="#9A916C" r="1.512" id="connector15pin" stroke-width="0.72"/>
   <circle  fill="none" cx="39.168" cy="4.932" connectorname="N$58" stroke="#9A916C" r="1.512" id="connector16pin" stroke-width="0.72"/>
   <circle  fill="none" cx="46.368" cy="4.932" connectorname="N$56" stroke="#9A916C" r="1.512" id="connector17pin" stroke-width="0.72"/>
   <circle  fill="none" cx="10.368" cy="12.132" connectorname="1" stroke="#9A916C" r="1.512" id="connector18pin" stroke-width="0.72"/>
   <circle  fill="none" cx="17.568" cy="12.132" connectorname="2" stroke="#9A916C" r="1.512" id="connector19pin" stroke-width="0.72"/>
   <circle  fill="none" cx="24.768" cy="12.132" connectorname="3" stroke="#9A916C" r="1.512" id="connector20pin" stroke-width="0.72"/>
   <circle  fill="none" cx="31.968" cy="12.132" connectorname="4" stroke="#9A916C" r="1.512" id="connector21pin" stroke-width="0.72"/>
   <circle  fill="none" cx="39.168" cy="12.132" connectorname="N$58" stroke="#9A916C" r="1.512" id="connector22pin" stroke-width="0.72"/>
   <circle  fill="none" cx="46.368" cy="12.132" connectorname="N$56" stroke="#9A916C" r="1.512" id="connector23pin" stroke-width="0.72"/>
  </g>
 </g>
</svg>
