<?xml version='1.0' encoding='UTF-8' standalone='no'?>
<!-- Created with Fritzing (http://www.fritzing.org/) -->
<svg xmlns="http://www.w3.org/2000/svg" width="1in" x="0in" version="1.2" y="0in" height="1.25in" viewBox="0 0 72 90" baseProfile="tiny">
 <desc >Fritzing breadboard generated by brd2svg</desc>
 <g  id="breadboard" stroke-width="0">
  <g  id="icon" stroke-width="0">
   <path  fill="#C62717" stroke="none" stroke-width="0" d="M0,90L72,90L72,0L0,0L0,90M2.52,82.8a4.68,4.68,0,1,1,9.36,0,4.68,4.68,0,1,1,-9.36,0zM60.12,82.8a4.68,4.68,0,1,1,9.36,0,4.68,4.68,0,1,1,-9.36,0zM2.52,7.2a4.68,4.68,0,1,1,9.36,0,4.68,4.68,0,1,1,-9.36,0zM60.12,7.2a4.68,4.68,0,1,1,9.36,0,4.68,4.68,0,1,1,-9.36,0zM48.96,86.4a1.44,1.44,0,1,1,2.88,0,1.44,1.44,0,1,1,-2.88,0zM41.76,86.4a1.44,1.44,0,1,1,2.88,0,1.44,1.44,0,1,1,-2.88,0zM34.56,86.4a1.44,1.44,0,1,1,2.88,0,1.44,1.44,0,1,1,-2.88,0zM27.36,86.4a1.44,1.44,0,1,1,2.88,0,1.44,1.44,0,1,1,-2.88,0zM20.16,86.4a1.44,1.44,0,1,1,2.88,0,1.44,1.44,0,1,1,-2.88,0z"/>
   <g  stroke-width="0">
    <title >layer 21</title>
    <line  stroke="white" stroke-linecap="round" y1="21.6" x1="7.2" y2="14.4" stroke-width="1.152" x2="7.2"/>
    <line  stroke="white" stroke-linecap="round" y1="14.4" x1="7.2" y2="18" stroke-width="1.152" x2="10.8"/>
    <line  stroke="white" stroke-linecap="round" y1="14.4" x1="7.2" y2="18" stroke-width="1.152" x2="3.6"/>
    <line  stroke="white" stroke-linecap="round" y1="18" x1="68.4" y2="18" stroke-width="1.152" x2="61.2"/>
    <line  stroke="white" stroke-linecap="round" y1="18" x1="61.2" y2="14.4" stroke-width="1.152" x2="64.8"/>
    <line  stroke="white" stroke-linecap="round" y1="18" x1="61.2" y2="21.6" stroke-width="1.152" x2="64.8"/>
    <g  stroke-width="0">
     <title >text:GND</title>
     <g  stroke-width="0" transform="matrix(1, 0, 0, 1, 51.84, 82.08)">
      <g  stroke-width="0" transform="rotate(-90)">
       <text  x="0" y="0" font-family="OCRA" fill="white" text-anchor="start" stroke="none" stroke-width="0" font-size="3.3408">GND</text>
      </g>
     </g>
    </g>
    <g  stroke-width="0">
     <title >text:VCC</title>
     <g  stroke-width="0" transform="matrix(1, 0, 0, 1, 23.04, 82.08)">
      <g  stroke-width="0" transform="rotate(-90)">
       <text  x="0" y="0" font-family="OCRA" fill="white" text-anchor="start" stroke="none" stroke-width="0" font-size="3.3408">VCC</text>
      </g>
     </g>
    </g>
    <g  stroke-width="0">
     <title >text:VERT</title>
     <g  stroke-width="0" transform="matrix(1, 0, 0, 1, 30.6, 82.08)">
      <g  stroke-width="0" transform="rotate(-90)">
       <text  x="0" y="0" font-family="OCRA" fill="white" text-anchor="start" stroke="none" stroke-width="0" font-size="3.3408">VERT</text>
      </g>
     </g>
    </g>
    <g  stroke-width="0">
     <title >text:SEL</title>
     <g  stroke-width="0" transform="matrix(1, 0, 0, 1, 44.64, 82.08)">
      <g  stroke-width="0" transform="rotate(-90)">
       <text  x="0" y="0" font-family="OCRA" fill="white" text-anchor="start" stroke="none" stroke-width="0" font-size="3.3408">SEL</text>
      </g>
     </g>
    </g>
    <g  stroke-width="0">
     <title >text:HORZ</title>
     <g  stroke-width="0" transform="matrix(1, 0, 0, 1, 37.44, 82.08)">
      <g  stroke-width="0" transform="rotate(-90)">
       <text  x="0" y="0" font-family="OCRA" fill="white" text-anchor="start" stroke="none" stroke-width="0" font-size="3.3408">HORZ</text>
      </g>
     </g>
    </g>
    <g  stroke-width="0">
     <title >text:Analog</title>
     <text  x="3.24" y="70.92" font-family="OCRA" fill="white" text-anchor="start" stroke="none" stroke-width="0" font-size="3.3408">Analog</text>
    </g>
    <g  stroke-width="0">
     <title >text:Joystick</title>
     <text  x="1.08" y="74.88" font-family="OCRA" fill="white" text-anchor="start" stroke="none" stroke-width="0" font-size="3.3408">Joystick</text>
    </g>
    <g  stroke-width="0">
     <title >text:V</title>
     <text  x="13.68" y="15.12" font-family="OCRA" fill="white" text-anchor="start" stroke="none" stroke-width="0" font-size="5.8464">V</text>
    </g>
    <g  stroke-width="0">
     <title >text:H</title>
     <text  x="66.96" y="24.84" font-family="OCRA" fill="white" text-anchor="start" stroke="none" stroke-width="0" font-size="5.8464">H</text>
    </g>
    <g  stroke-width="0">
     <title >element:JP1</title>
     <g  stroke-width="0">
      <title >package:1X05</title>
      <line  stroke="white" stroke-linecap="round" y1="90" x1="30.6" y2="90" stroke-width="0.576" x2="27"/>
      <line  stroke="white" stroke-linecap="round" y1="90" x1="27" y2="88.2" stroke-width="0.576" x2="25.2"/>
      <line  stroke="white" stroke-linecap="round" y1="84.6" x1="25.2" y2="82.8" stroke-width="0.576" x2="27"/>
      <line  stroke="white" stroke-linecap="round" y1="88.2" x1="25.2" y2="90" stroke-width="0.576" x2="23.4"/>
      <line  stroke="white" stroke-linecap="round" y1="90" x1="23.4" y2="90" stroke-width="0.576" x2="19.8"/>
      <line  stroke="white" stroke-linecap="round" y1="90" x1="19.8" y2="88.2" stroke-width="0.576" x2="18"/>
      <line  stroke="white" stroke-linecap="round" y1="84.6" x1="18" y2="82.8" stroke-width="0.576" x2="19.8"/>
      <line  stroke="white" stroke-linecap="round" y1="82.8" x1="19.8" y2="82.8" stroke-width="0.576" x2="23.4"/>
      <line  stroke="white" stroke-linecap="round" y1="82.8" x1="23.4" y2="84.6" stroke-width="0.576" x2="25.2"/>
      <line  stroke="white" stroke-linecap="round" y1="88.2" x1="39.6" y2="90" stroke-width="0.576" x2="37.8"/>
      <line  stroke="white" stroke-linecap="round" y1="90" x1="37.8" y2="90" stroke-width="0.576" x2="34.2"/>
      <line  stroke="white" stroke-linecap="round" y1="90" x1="34.2" y2="88.2" stroke-width="0.576" x2="32.4"/>
      <line  stroke="white" stroke-linecap="round" y1="84.6" x1="32.4" y2="82.8" stroke-width="0.576" x2="34.2"/>
      <line  stroke="white" stroke-linecap="round" y1="82.8" x1="34.2" y2="82.8" stroke-width="0.576" x2="37.8"/>
      <line  stroke="white" stroke-linecap="round" y1="82.8" x1="37.8" y2="84.6" stroke-width="0.576" x2="39.6"/>
      <line  stroke="white" stroke-linecap="round" y1="90" x1="30.6" y2="88.2" stroke-width="0.576" x2="32.4"/>
      <line  stroke="white" stroke-linecap="round" y1="84.6" x1="32.4" y2="82.8" stroke-width="0.576" x2="30.6"/>
      <line  stroke="white" stroke-linecap="round" y1="82.8" x1="27" y2="82.8" stroke-width="0.576" x2="30.6"/>
      <line  stroke="white" stroke-linecap="round" y1="90" x1="52.2" y2="90" stroke-width="0.576" x2="48.6"/>
      <line  stroke="white" stroke-linecap="round" y1="90" x1="48.6" y2="88.2" stroke-width="0.576" x2="46.8"/>
      <line  stroke="white" stroke-linecap="round" y1="84.6" x1="46.8" y2="82.8" stroke-width="0.576" x2="48.6"/>
      <line  stroke="white" stroke-linecap="round" y1="88.2" x1="46.8" y2="90" stroke-width="0.576" x2="45"/>
      <line  stroke="white" stroke-linecap="round" y1="90" x1="45" y2="90" stroke-width="0.576" x2="41.4"/>
      <line  stroke="white" stroke-linecap="round" y1="90" x1="41.4" y2="88.2" stroke-width="0.576" x2="39.6"/>
      <line  stroke="white" stroke-linecap="round" y1="84.6" x1="39.6" y2="82.8" stroke-width="0.576" x2="41.4"/>
      <line  stroke="white" stroke-linecap="round" y1="82.8" x1="41.4" y2="82.8" stroke-width="0.576" x2="45"/>
      <line  stroke="white" stroke-linecap="round" y1="82.8" x1="45" y2="84.6" stroke-width="0.576" x2="46.8"/>
      <line  stroke="white" stroke-linecap="round" y1="88.2" x1="54" y2="84.6" stroke-width="0.576" x2="54"/>
      <line  stroke="white" stroke-linecap="round" y1="90" x1="52.2" y2="88.2" stroke-width="0.576" x2="54"/>
      <line  stroke="white" stroke-linecap="round" y1="84.6" x1="54" y2="82.8" stroke-width="0.576" x2="52.2"/>
      <line  stroke="white" stroke-linecap="round" y1="82.8" x1="48.6" y2="82.8" stroke-width="0.576" x2="52.2"/>
      <line  stroke="white" stroke-linecap="round" y1="88.2" x1="18" y2="84.6" stroke-width="0.576" x2="18"/>
     </g>
    </g>
    <g  stroke-width="0">
     <title >element:U$1</title>
     <g  stroke-width="0">
      <title >package:SFE-NEW-WEBLOGO</title>
     </g>
    </g>
    <g  stroke-width="0">
     <title >element:U$2</title>
     <g  stroke-width="0">
      <title >package:SFE-LOGO-FLAME</title>
      <g  stroke-width="0">
       <title >polygon</title>
       <path  fill="none" stroke="white" stroke-linecap="round" stroke-width="0.072" d="M63.4683,66.9815L63.3313,66.96M63.3313,66.96L63.0649,66.939M63.0649,66.939L62.7985,66.96M62.7985,66.96L62.6003,67.0121M62.6003,67.0121L62.4167,67.1031M62.4167,67.1031L62.2548,67.229M62.2548,67.229L62.1218,67.3849M62.1218,67.3849L62.0081,67.5924M62.0081,67.5924L61.9399,67.8189M61.9399,67.8189L61.9203,68.0545M61.9203,68.0545L61.9203,72.3528M61.9203,72.3528L63.3025,70.7975M63.3025,70.7975L63.5485,70.5722M63.5485,70.5722L63.8353,70.4015M63.8353,70.4015L63.9408,70.3633M63.9408,70.3633L64.0513,70.344M64.0513,70.344L64.6993,70.344M64.6993,70.344L65.0858,70.3089M65.0858,70.3089L65.4596,70.2045M65.4596,70.2045L65.8083,70.0345M65.8083,70.0345L66.1362,69.8028M66.1362,69.8028L66.4288,69.5273M66.4288,69.5273L66.6793,69.2135M66.6793,69.2135L66.9478,68.737M66.9478,68.737L67.1258,68.22M67.1258,68.22L67.2075,67.6794M67.2075,67.6794L67.1905,67.1329M67.1905,67.1329L67.1318,66.8381M67.1318,66.8381L67.0303,66.5552M67.0303,66.5552L66.8883,66.2905M66.8883,66.2905L66.6312,65.9681M66.6312,65.9681L66.3123,65.7071M66.3123,65.7071L66.3123,65.9591M66.3123,65.9591L66.3066,66.0002M66.3066,66.0002L66.2905,66.0385M66.2905,66.0385L66.2062,66.1425M66.2062,66.1425L66.0963,66.2185M66.0963,66.2185L66.0385,66.24M66.0385,66.24L65.8763,66.2576M65.8763,66.2576L65.7158,66.2278M65.7158,66.2278L65.5705,66.1535M65.5705,66.1535L65.3113,65.9665M65.3113,65.9665L65.1915,65.8633M65.1915,65.8633L65.0883,65.7431M65.0883,65.7431L65.0052,65.6084M65.0052,65.6084L64.9443,65.4625M64.9443,65.4625L64.9259,65.3697M64.9259,65.3697L64.9298,65.2751M64.9298,65.2751L64.9769,65.1192M64.9769,65.1192L65.0628,64.9806M65.0628,64.9806L65.1818,64.8695M65.1818,64.8695L65.3258,64.7929M65.3258,64.7929L65.471,64.7521M65.471,64.7521L65.6209,64.7351M65.6209,64.7351L65.7938,64.7351M65.7938,64.7351L65.7935,64.7351M65.7935,64.7351L65.7865,64.728M65.7865,64.728L65.6631,64.6322M65.6631,64.6322L65.5203,64.5695M65.5203,64.5695L65.4193,64.5265M65.4193,64.5265L65.3545,64.4975M65.3545,64.4975L65.1056,64.4355M65.1056,64.4355L64.8505,64.4111M64.8505,64.4111L64.6042,64.4298M64.6042,64.4298L64.366,64.4956M64.366,64.4956L64.1449,64.6055M64.1449,64.6055L63.9247,64.7643M63.9247,64.7643L63.7273,64.9511M63.7273,64.9511L63.6052,65.1223M63.6052,65.1223L63.5295,65.3185M63.5295,65.3185L63.5049,65.5273M63.5049,65.5273L63.5332,65.7357M63.5332,65.7357L63.6123,65.9305M63.6123,65.9305L63.9485,66.4291M63.9485,66.4291L64.3609,66.8665M64.3609,66.8665L64.4694,66.994M64.4694,66.994L64.5414,67.1451M64.5414,67.1451L64.5721,67.3095M64.5721,67.3095L64.5591,67.4765M64.5591,67.4765L64.5035,67.6344M64.5035,67.6344L64.4088,67.7724M64.4088,67.7724L64.2818,67.8815M64.2818,67.8815L64.122,67.9677M64.122,67.9677L63.9499,68.0258M63.9499,68.0258L63.7705,68.0545M63.7705,68.0545L63.5607,68.044M63.5607,68.044L63.36,67.9828M63.36,67.9828L63.1803,67.8745M63.1803,67.8745L63.085,67.7741M63.085,67.7741L63.0218,67.6511M63.0218,67.6511L62.9937,67.5249M62.9937,67.5249L62.9937,67.3957M62.9937,67.3957L63.0218,67.2695M63.0218,67.2695L63.0473,67.2211M63.0473,67.2211L63.0865,67.1831M63.0865,67.1831L63.3243,67.0105M63.3243,67.0105L63.3688,66.9866M63.3688,66.9866L63.4181,66.9767M63.4181,66.9767L63.4683,66.9815M61.9203,72.288L61.9778,72.288M61.9203,72.216L62.0419,72.216M61.9203,72.144L62.1057,72.144M61.9203,72.072L62.1698,72.072M61.9203,72L62.2338,72M61.9203,71.928L62.2979,71.928M61.9203,71.856L62.3616,71.856M61.9203,71.784L62.4257,71.784M61.9203,71.712L62.4897,71.712M61.9203,71.64L62.5535,71.64M61.9203,71.568L62.6176,71.568M61.9203,71.496L62.6817,71.496M61.9203,71.424L62.7458,71.424M61.9203,71.352L62.8095,71.352M61.9203,71.28L62.8736,71.28M61.9203,71.208L62.9376,71.208M61.9203,71.136L63.0014,71.136M61.9203,71.064L63.0654,71.064M61.9203,70.992L63.1295,70.992M61.9203,70.92L63.1936,70.92M61.9203,70.848L63.2574,70.848M61.9203,70.776L63.3257,70.776M61.9203,70.704L63.4045,70.704M61.9203,70.632L63.483,70.632M61.9203,70.56L63.5689,70.56M61.9203,70.488L63.69,70.488M61.9203,70.416L63.811,70.416M61.9203,70.344L64.6993,70.344M61.9203,70.272L65.2175,70.272M61.9203,70.2L65.4687,70.2M61.9203,70.128L65.6164,70.128M61.9203,70.056L65.7641,70.056M61.9203,69.984L65.8797,69.984M61.9203,69.912L65.9814,69.912M61.9203,69.84L66.0835,69.84M61.9203,69.768L66.1731,69.768M61.9203,69.696L66.2496,69.696M61.9203,69.624L66.3259,69.624M61.9203,69.552L66.4024,69.552M61.9203,69.48L66.4665,69.48M61.9203,69.408L66.524,69.408M61.9203,69.336L66.5816,69.336M61.9203,69.264L66.6388,69.264M61.9203,69.192L66.6913,69.192M61.9203,69.12L66.7318,69.12M61.9203,69.048L66.7724,69.048M61.9203,68.976L66.8132,68.976M61.9203,68.904L66.8537,68.904M61.9203,68.832L66.8943,68.832M61.9203,68.76L66.9348,68.76M61.9203,68.688L66.9645,68.688M61.9203,68.616L66.9894,68.616M61.9203,68.544L67.0141,68.544M61.9203,68.472L67.0388,68.472M61.9203,68.4L67.0638,68.4M61.9203,68.328L67.0884,68.328M61.9203,68.256L67.1134,68.256M61.9203,68.184L67.1312,68.184M61.9203,68.112L67.142,68.112M61.9217,68.04L63.5479,68.04M63.8612,68.04L67.1527,68.04M61.9276,67.968L63.3356,67.968M64.1214,67.968L67.1638,67.968M61.9336,67.896L63.2163,67.896M64.2552,67.896L67.1746,67.896M61.9396,67.824L63.1327,67.824M64.349,67.824L67.1854,67.824M61.9602,67.752L63.0737,67.752M64.423,67.752L67.1964,67.752M61.9818,67.68L63.0369,67.68M64.4723,67.68L67.2072,67.68M62.0036,67.608L63.0125,67.608M64.5129,67.608L67.2054,67.608M62.0393,67.536L62.9963,67.536M64.5384,67.536L67.2032,67.536M62.0788,67.464L62.9937,67.464M64.5602,67.464L67.2009,67.464M62.1181,67.392L62.9943,67.392M64.5659,67.392L67.1987,67.392M62.1774,67.32L63.0105,67.32M64.5715,67.32L67.1964,67.32M62.2386,67.248L63.0332,67.248M64.5605,67.248L67.1941,67.248M62.3231,67.176L63.0961,67.176M64.5471,67.176L67.1918,67.176M62.4158,67.104L63.1953,67.104M64.5216,67.104L67.1848,67.104M62.5604,67.032L63.2946,67.032M64.4873,67.032L67.1706,67.032M62.7985,66.96L63.3313,66.96M64.4403,66.96L67.1561,66.96M64.3791,66.888L67.142,66.888M64.3133,66.816L67.1242,66.816M64.2452,66.744L67.098,66.744M64.1775,66.672L67.0722,66.672M64.1094,66.6L67.0465,66.6M64.0418,66.528L67.0159,66.528M63.9737,66.456L66.9773,66.456M63.9179,66.384L66.9388,66.384M63.8694,66.312L66.8999,66.312M63.8209,66.24L65.7816,66.24M66.0385,66.24L66.8483,66.24M63.7724,66.168L65.5988,66.168M66.1694,66.168L66.7908,66.168M63.7237,66.096L65.4908,66.096M66.244,66.096L66.7332,66.096M63.6752,66.024L65.3913,66.024M66.2967,66.024L66.676,66.024M63.6268,65.952L65.2946,65.952M66.3123,65.952L66.6116,65.952M63.5916,65.88L65.211,65.88M66.3123,65.88L66.5238,65.88M63.5624,65.808L65.1442,65.808M66.3123,65.808L66.4356,65.808M63.5332,65.736L65.084,65.736M66.3123,65.736L66.3477,65.736M63.5233,65.664L65.0395,65.664M63.5136,65.592L64.9984,65.592M63.506,65.52L64.9684,65.52M63.5145,65.448L64.9415,65.448M63.523,65.376L64.9273,65.376M63.5352,65.304L64.9284,65.304M63.563,65.232L64.9426,65.232M63.5908,65.16L64.9644,65.16M63.6299,65.088L64.9961,65.088M63.6812,65.016L65.0407,65.016M63.735,64.944L65.1019,64.944M63.811,64.872L65.179,64.872M63.887,64.8L65.3122,64.8M63.9751,64.728L65.7865,64.728M64.0752,64.656L65.694,64.656M64.1883,64.584L65.5535,64.584M64.3332,64.512L65.3871,64.512M64.5673,64.44L65.124,64.44"/>
      </g>
     </g>
    </g>
    <g  stroke-width="0">
     <title >element:U$3</title>
     <g  stroke-width="0">
      <title >package:STAND-OFF</title>
     </g>
    </g>
    <g  stroke-width="0">
     <title >element:U$4</title>
     <g  stroke-width="0">
      <title >package:STAND-OFF</title>
     </g>
    </g>
    <g  stroke-width="0">
     <title >element:U$5</title>
     <g  stroke-width="0">
      <title >package:STAND-OFF</title>
     </g>
    </g>
    <g  stroke-width="0">
     <title >element:U$6</title>
     <g  stroke-width="0">
      <title >package:STAND-OFF</title>
     </g>
    </g>
    <g  stroke-width="0">
     <title >element:U1</title>
     <g  stroke-width="0">
      <title >package:JOYSTICK</title>
      <line  stroke="white" stroke-linecap="round" y1="0" x1="51.84" y2="0" stroke-width="0.576" x2="20.16"/>
      <line  stroke="white" stroke-linecap="round" y1="72" x1="49.68" y2="72" stroke-width="0.576" x2="22.32"/>
      <line  stroke="white" stroke-linecap="round" y1="72" x1="49.68" y2="64.8" stroke-width="0.576" x2="49.68"/>
      <line  stroke="white" stroke-linecap="round" y1="72" x1="22.32" y2="64.8" stroke-width="0.576" x2="22.32"/>
      <line  stroke="white" stroke-linecap="round" y1="64.8" x1="49.68" y2="64.8" stroke-width="0.576" x2="57.6"/>
      <line  stroke="white" stroke-linecap="round" y1="64.8" x1="22.32" y2="64.8" stroke-width="0.576" x2="14.4"/>
      <line  stroke="white" stroke-linecap="round" y1="28.08" x1="63" y2="51.12" stroke-width="0.576" x2="63"/>
      <line  stroke="white" stroke-linecap="round" y1="28.08" x1="57.6" y2="19.8" stroke-width="0.576" x2="57.6"/>
      <line  stroke="white" stroke-linecap="round" y1="51.12" x1="57.6" y2="64.8" stroke-width="0.576" x2="57.6"/>
      <line  stroke="white" stroke-linecap="round" y1="28.08" x1="57.6" y2="28.08" stroke-width="0.576" x2="63"/>
      <line  stroke="white" stroke-linecap="round" y1="51.12" x1="57.6" y2="51.12" stroke-width="0.576" x2="63"/>
      <line  stroke="white" stroke-linecap="round" y1="19.8" x1="57.6" y2="19.8" stroke-width="0.576" x2="51.84"/>
      <line  stroke="white" stroke-linecap="round" y1="19.8" x1="20.16" y2="19.8" stroke-width="0.576" x2="14.4"/>
      <line  stroke="white" stroke-linecap="round" y1="0" x1="51.84" y2="19.8" stroke-width="0.576" x2="51.84"/>
      <line  stroke="white" stroke-linecap="round" y1="0" x1="20.16" y2="19.8" stroke-width="0.576" x2="20.16"/>
      <line  stroke="white" stroke-linecap="round" y1="25.92" x1="14.4" y2="25.92" stroke-width="0.576" x2="4.32"/>
      <line  stroke="white" stroke-linecap="round" y1="53.28" x1="14.4" y2="53.28" stroke-width="0.576" x2="4.32"/>
      <line  stroke="white" stroke-linecap="round" y1="25.92" x1="4.32" y2="53.28" stroke-width="0.576" x2="4.32"/>
      <line  stroke="white" stroke-linecap="round" y1="25.92" x1="14.4" y2="19.8" stroke-width="0.576" x2="14.4"/>
      <line  stroke="white" stroke-linecap="round" y1="53.28" x1="14.4" y2="64.8" stroke-width="0.576" x2="14.4"/>
      <circle  fill="none" cx="36" cy="39.6" stroke="white" r="1.8" stroke-width="0.36"/>
     </g>
    </g>
   </g>
   <circle  fill="none" cx="50.4" cy="86.4" connectorname="GND" stroke="#9A916C" r="1.872" id="connector0pin" stroke-width="0.864"/>
   <circle  fill="none" cx="43.2" cy="86.4" connectorname="SEL" stroke="#9A916C" r="1.872" id="connector1pin" stroke-width="0.864"/>
   <circle  fill="none" cx="36" cy="86.4" connectorname="HORZ" stroke="#9A916C" r="1.872" id="connector2pin" stroke-width="0.864"/>
   <circle  fill="none" cx="28.8" cy="86.4" connectorname="VERT" stroke="#9A916C" r="1.872" id="connector3pin" stroke-width="0.864"/>
   <circle  fill="none" cx="21.6" cy="86.4" connectorname="VCC" stroke="#9A916C" r="1.872" id="connector4pin" stroke-width="0.864"/>
  </g>
  <g  id="sfe-new-weblogo" stroke-width="0" transform="matrix(1, 0, 0, 1, 9.71885, 33.5259)">
   <g  stroke-width="0">
    <title >element:JP2</title>
    <g  stroke-width="0">
     <title >package:SFE-NEW-WEBLOGO</title>
     <title >polygon</title>
     <title >polygon</title>
     <title >polygon</title>
     <title >polygon</title>
     <title >polygon</title>
     <title >polygon</title>
     <title >polygon</title>
     <title >polygon</title>
     <title >polygon</title>
     <title >polygon</title>
     <title >polygon</title>
     <title >polygon</title>
     <title >polygon</title>
    </g>
   </g>
   <g  stroke-width="0">
    <path  fill="#FFFFFF" stroke-width="0" d="M44.822,8.79199c-0.206,-0.053,-0.423,-0.0799999,-0.643,-0.0799999l0,0.029c-0.004,0,-0.006,0.003,-0.01,0.004c-0.002,-0.018,-0.015,-0.034,-0.033,-0.034c-0.016,0,-0.023,0.015,-0.028,0.029c-0.006,-0.014,-0.014,-0.029,-0.029,-0.029c0,0,0,0.001,-0.001,0.001L44.078,8.71301c-0.0869998,0.003,-0.172,0.03,-0.258,0.042l-0.183,0.022l-0.004,0c-0.004,0,-0.00799999,0.001,-0.012,0.002l-0.051,0.006c-0.00799999,0,-0.01,0.002,-0.013,0.004l-0.026,0.013c-0.232,0.061,-0.458,0.145,-0.667,0.269c-0.0889999,0.053,-0.165,0.12,-0.244,0.184l-0.019,0.009c-0.002,0.001,-0.004,0.002,-0.006,0.004c0,0,-0.001,0,-0.001,0c-0.002,0.002,-0.005,0.004,-0.006,0.007l-0.007,0.00799999c-0.251,0.208,-0.451,0.464,-0.593,0.754999l-0.006,0.007c-0.001,0.001,-0.002,0.003,-0.003,0.005c0,0,0,0,-0.001,0c-0.001,0.003,-0.002,0.006,-0.003,0.01l0,0.001c-0.0840002,0.178,-0.152,0.363,-0.188,0.56c-0.025,0.143,-0.033,0.287,-0.039,0.43l-0.004,0.015c0,0.002,-0.001,0.005,-0.001,0.00799999c0,0.002,0,0.004,0.001,0.007l0,0.003c-0.007,0.213,0.001,0.426,0.036,0.637c0.05,0.306,0.155,0.594,0.313,0.853999c0.101,0.166,0.227,0.312,0.376,0.434c0.445,0.366,1.008,0.571,1.585,0.578c0.012,0,0.023,0,0.036,0c0.34,0,0.676,-0.054,0.997999,-0.161c0.547,-0.181,0.982001,-0.592,1.195,-1.129c0.159,-0.405,0.243,-0.830002,0.248,-1.265c0.006,-0.673,-0.282,-1.313,-0.790999,-1.756C45.48,9.04601,45.162,8.87897,44.822,8.79199zM43.755,9.68803c-0.00799999,0.002,-0.017,0.003,-0.024,0.006l0.006,-0.003L43.755,9.68803zM43.445,9.85298c-0.017,0.013,-0.033,0.025,-0.048,0.039l0.015,-0.021L43.445,9.85298zM43.274,12.31c0.013,0.016,0.025,0.032,0.039,0.047l-0.021,-0.012l-0.009,-0.017c-0.001,-0.002,-0.002,-0.004,-0.003,-0.006L43.274,12.31zM45.039,10.066c-0.004,-0.005,-0.007,-0.009,-0.011,-0.014l0.007,0.007L45.039,10.066zM44.165,9.65599C44.165,9.65599,44.165,9.65599,44.165,9.65599l0.364,0.027l0.043,0.023c0.003,0.002,0.006,0.003,0.009,0.004l0.219,0.118l0.015,0.014c0.002,0.002,0.004,0.005,0.007,0.007l0.058,0.056l-0.027,0.026c0.173,0.181,0.295,0.404,0.352,0.647c0.054,0.225,0.0799999,0.462,0.0779998,0.704l0.036,0l-0.036,0c-0.002,0.298,-0.0769997,0.595,-0.219,0.859997c-0.0889999,0.167,-0.225,0.296,-0.394,0.374l0,0c-0.293,0.134,-0.62,0.155,-0.924998,0.055c-0.221,-0.071,-0.402,-0.223,-0.512,-0.429c-0.105,-0.198,-0.17,-0.412,-0.189,-0.634c-0.021,-0.231,-0.024,-0.464,-0.00799999,-0.692c0.021,-0.288,0.125,-0.56,0.302,-0.787003c0.161,-0.208,0.415,-0.332,0.678,-0.332L44.016,9.65203l0.028,-0.003l0,0.014c0,0.02,0.017,0.036,0.036,0.036s0.036,-0.016,0.036,-0.036c0.007,0.009,0.01,0.021,0.021,0.021C44.152,9.68501,44.16,9.67003,44.165,9.65599zM45.732,12.968l0.063,-0.061C45.775,12.928,45.754,12.948,45.732,12.968z"/>
    <path  fill="#FFFFFF" stroke-width="0" d="M4.132,11.981c0,-0.003,0,-0.005,-0.001,-0.00799999l-0.012,-0.132c0,-0.001,0,-0.002,0,-0.003c0,-0.003,0,-0.006,-0.001,-0.009l-0.004,-0.047c0,-0.001,0,-0.002,0,-0.004c0,-0.002,-0.001,-0.004,-0.002,-0.006l-0.004,-0.013c0,-0.003,-0.001,-0.007,-0.003,-0.01l-0.021,-0.062c-0.001,-0.003,-0.002,-0.007,-0.003,-0.01l-0.021,-0.064c0,-0.002,-0.001,-0.005,-0.002,-0.007L4.034,11.54c0,-0.001,0,-0.002,-0.001,-0.003l-0.017,-0.048c0,-0.002,-0.001,-0.003,-0.002,-0.005l0,0c0,-0.001,-0.001,-0.002,-0.002,-0.002L4,11.459c0,0,0,0,0,0l-0.042,-0.068c-0.001,-0.003,-0.003,-0.005,-0.005,-0.00799999l-0.011,-0.018c0,-0.001,-0.001,-0.002,-0.001,-0.003c-0.001,-0.002,-0.002,-0.003,-0.004,-0.004l-0.041,-0.043c-0.002,-0.004,-0.006,-0.00799999,-0.011,-0.011L3.843,11.26c-0.001,-0.001,-0.002,-0.002,-0.003,-0.003c-0.001,0,-0.001,-0.001,-0.002,-0.001l-0.024,-0.018c-0.003,-0.003,-0.007,-0.006,-0.011,-0.00799999l-0.0859997,-0.063c-0.003,-0.004,-0.007,-0.007,-0.012,-0.009l-0.062,-0.046c-0.002,-0.002,-0.004,-0.002,-0.005,-0.003l-0.214,-0.116c0,0,-0.001,-0.001,-0.002,-0.001c0,0,0,0,0,0c-0.001,0,-0.002,-0.001,-0.003,-0.001l-0.326,-0.12c-0.003,-0.001,-0.007,-0.003,-0.011,-0.003l-0.131,-0.048c-0.001,0,-0.001,0,-0.002,-0.001c0,0,-0.001,0,-0.003,0l-0.0889999,-0.02c-0.004,-0.002,-0.01,-0.003,-0.015,-0.003l-0.383,-0.0850003c0,0,-0.001,0,-0.001,0l-0.573,-0.115l-0.213,-0.0769997l-0.122,-0.0750002c-0.002,-0.001,-0.004,-0.002,-0.006,-0.004l-0.063,-0.039l-0.021,-0.022c-0.002,-0.003,-0.004,-0.005,-0.007,-0.007l-0.051,-0.053l-0.001,-0.001c-0.001,-0.004,-0.003,-0.007,-0.005,-0.011l-0.032,-0.062c-0.001,-0.002,-0.002,-0.005,-0.003,-0.007l-0.011,-0.021l-0.006,-0.034c0,-0.002,-0.001,-0.005,-0.001,-0.00799999l-0.011,-0.062l0.013,-0.106l0.009,-0.019C1.35,9.98201,1.351,9.97999,1.352,9.97798l0.033,-0.071L1.451,9.83002l0.0850003,-0.055l0.12,-0.044l0.127,-0.024l0.241,-0.013l0.24,0.013l0.141,0.028l0.132,0.053l0.12,0.0760003L2.71,9.91498c0.002,0.003,0.005,0.006,0.009,0.00799999l0.016,0.015l0.029,0.042c0.002,0.004,0.004,0.007,0.006,0.01l0.026,0.038l0.00799999,0.018c0.001,0.004,0.003,0.00799999,0.005,0.011l0.027,0.062c0,0.003,0.002,0.006,0.003,0.009l0.013,0.06c0,0.001,0,0.002,0.001,0.003l0.005,0.059c0,0.001,0,0.002,0,0.004c0,0.003,0,0.006,0.001,0.009l0,0.007c0.001,0.019,0.017,0.034,0.036,0.034l0,0l1.1,0c0,0,0,0,0.001,0c0.002,0,0.004,0,0.006,0l0,0l0,0c0,0,0,0,0,0c0.009,-0.002,0.017,-0.007,0.022,-0.015l0,0c0,0,0,0,0,0c0,-0.001,0.001,-0.002,0.002,-0.003l0,0l0,0c0,0,0,0,0,0s0,0,0,0c0.002,-0.005,0.004,-0.012,0.003,-0.019L4.03,10.25c0,0,0,0,0,-0.001l-0.007,-0.066c0,0,0,-0.001,0,-0.001c0,-0.003,0,-0.006,-0.001,-0.009l-0.006,-0.062l0,0c0,-0.003,0,-0.005,-0.001,-0.00799999L4.01,10.064c0,-0.001,0,-0.002,0,-0.003c0,0,0,0,0,0c0,-0.001,-0.001,-0.002,-0.001,-0.004c0,0,0,0,0,-0.001c0.001,-0.004,0.002,-0.01,0.001,-0.015c0,0,0,0,0,0c0,-0.003,-0.001,-0.006,-0.002,-0.009l-0.002,-0.004c0,-0.001,0,-0.002,-0.001,-0.003L3.981,9.95803C3.98,9.95501,3.98,9.95198,3.979,9.94997L3.951,9.87502c0,-0.001,0,-0.002,-0.001,-0.003L3.922,9.81101c0,-0.003,-0.002,-0.005,-0.003,-0.00799999L3.89,9.738C3.889,9.73498,3.888,9.73303,3.887,9.73102L3.857,9.66701C3.856,9.66398,3.855,9.66197,3.854,9.66002L3.85,9.64901C3.849,9.64699,3.847,9.64498,3.846,9.64303L3.812,9.58903C3.81,9.58702,3.809,9.585,3.807,9.58298L3.766,9.51898C3.765,9.51703,3.763,9.51502,3.762,9.51401L3.76,9.51098c0,0,-0.001,-0.001,-0.002,-0.002l-0.06,-0.068C3.696,9.43898,3.694,9.43697,3.692,9.43502L3.664,9.40198c0,-0.001,-0.001,-0.001,-0.002,-0.002c0,0,0,0,0,0c-0.001,0,-0.002,-0.001,-0.003,-0.002L3.616,9.36403C3.614,9.36202,3.612,9.36,3.61,9.35899L3.525,9.29203C3.523,9.29002,3.521,9.288,3.518,9.28699L3.435,9.22097C3.432,9.21802,3.429,9.216,3.426,9.21398L3.387,9.18302C3.384,9.18101,3.381,9.17899,3.379,9.17798L3.159,9.06998C3.158,9.06898,3.156,9.06898,3.155,9.06797L3.07,9.02599C3.065,9.02498,3.064,9.02398,3.062,9.02297L2.68,8.919c-0.004,0,-0.004,0,-0.007,-0.001L2.28,8.87897c-0.001,0,-0.003,0,-0.004,0L1.765,8.87897l0,0c-0.001,0,-0.003,0,-0.004,0L1.356,8.92202c-0.001,0,-0.003,0,-0.004,0c0,0,0,0,0,0c-0.001,0,-0.002,0,-0.004,0.001L0.958003,9.04097c-0.001,0,-0.003,0.001,-0.005,0.002c0,0,-0.001,0,-0.002,0.001L0.903002,9.06797C0.901001,9.06898,0.897998,9.06998,0.895997,9.07099l-0.275,0.14C0.619,9.21197,0.616,9.21298,0.614,9.21499L0.589,9.22802c0,0.001,-0.004,0.002,-0.007,0.004L0.449,9.33502c-0.002,0,-0.002,0.001,-0.003,0.002C0.445,9.33898,0.444,9.33998,0.443,9.34099L0.332,9.46901c0,0,-0.001,0.001,-0.002,0.002C0.329,9.47297,0.328,9.47498,0.327,9.47599l-0.062,0.11c0,0.001,-0.001,0.002,-0.002,0.003L0.243,9.62302C0.242,9.62503,0.241,9.62597,0.24,9.62899c0,0,0,0.001,0,0.002L0.205,9.73498C0.204,9.73699,0.204,9.738,0.204,9.74002L0.139,9.936C0.138,9.93802,0.137,9.94003,0.137,9.94198c0,0,0,0,0,0c0,0,0,0.001,0,0.001L0.1,10.266c0,0.001,0,0.003,0,0.004c0,0,0,0,0,0c0,0.001,0,0.002,0,0.004l0.011,0.122c0,0,0,0,0,0.001c0,0.002,0,0.005,0.001,0.007l0.006,0.064l0,0c0,0.002,0,0.005,0.001,0.007l0.006,0.064c0,0,0,0,0,0c0,0.002,0,0.005,0.001,0.007l0.004,0.046c0,0.001,0,0.002,0,0.003c0,0,0,0,0,0c0,0.001,0,0.003,0.001,0.004l0.005,0.016c0,0.004,0.001,0.00799999,0.003,0.012l0.019,0.061c0,0.003,0.001,0.007,0.003,0.01l0.012,0.039c0,0.001,0.001,0.003,0.001,0.004s0.001,0.003,0.002,0.004l0.012,0.021c0.001,0.004,0.003,0.00799999,0.006,0.011l0.052,0.0940003c0,0.001,0.001,0.002,0.002,0.003c0,0,0,0,0,0c0.001,0.001,0.002,0.002,0.003,0.004l0.0949997,0.108c0.001,0.002,0.003,0.003,0.005,0.005L0.358,11c0.002,0.001,0.004,0.003,0.006,0.004l0.0830002,0.066c0.003,0.003,0.006,0.006,0.01,0.00799999l0.0789998,0.062c0.004,0.006,0.011,0.011,0.019,0.013l0.113,0.064c0.003,0.003,0.007,0.005,0.012,0.007l0.0820001,0.046c0.002,0.001,0.005,0.005,0.006,0.003l0.051,0.02c0.003,0.002,0.007,0.004,0.011,0.004l0.166,0.064c0,0,0.001,0,0.002,0c0,0,0.001,0.001,0.003,0.001l0.937001,0.222c0.001,0,0.002,0,0.004,0.001l0.277,0.07c0.002,0.001,0.005,0.001,0.00799999,0.002l0.136,0.036l0.0750002,0.032c0.003,0.002,0.006,0.003,0.009,0.004l0.23,0.0979999l0.055,0.038c0.002,0.002,0.006,0.004,0.009,0.006l0.031,0.021l0.0750002,0.0859997l0.009,0.017c0,0.002,0.001,0.003,0.002,0.005l0.033,0.065c0.001,0.003,0.003,0.007,0.005,0.009l0.013,0.055c0,0.003,0,0.006,0.002,0.009l0.011,0.053l0,0.003c0,0.001,0,0.002,0,0.004l0,0l-0.004,0.108l-0.033,0.109l-0.028,0.047c-0.002,0.002,-0.003,0.004,-0.004,0.007l-0.026,0.043l-0.0820001,0.0799999l-0.146,0.0889999l-0.159,0.055c-0.001,0,-0.002,0,-0.004,0L2.266,12.76L1.889,12.76L1.73,12.738l-0.167,-0.061l-0.00799999,-0.005c0,-0.001,-0.001,-0.001,-0.002,-0.002l-0.107,-0.068C1.443,12.6,1.44,12.599,1.438,12.597l-0.023,-0.015l-0.045,-0.045c-0.002,-0.003,-0.005,-0.006,-0.00799999,-0.00799999l-0.064,-0.065c-0.002,-0.003,-0.004,-0.005,-0.007,-0.007l-0.037,-0.06c0,-0.001,-0.001,-0.003,-0.002,-0.004l-0.033,-0.054l-0.024,-0.0760003c0,-0.003,-0.001,-0.005,-0.002,-0.00799999l-0.015,-0.047l0,-0.011c0,-0.001,0,-0.001,0,-0.002l-0.007,-0.128l0,-0.013c0,-0.02,-0.016,-0.036,-0.036,-0.036L0.036,12.018l0,0c-0.005,-0.004,-0.014,0.002,-0.019,0.006c0,0,0,0,0,0c-0.003,0.003,-0.007,0.006,-0.01,0.01c-0.002,0.003,-0.004,0.006,-0.005,0.01c0,0,0,0,0,0s0,0,0,0c0,0.001,0,0.002,0,0.003C0.001,12.049,0,12.051,0,12.052c0,0,0,0,0,0c0,0,0,0,0,0c0,0,0,0,0,0c0,0,0,0,0,0c0,0,0,0,0,0l0,0c0,0,0,0,0,0c0,0,0,0,0,0c0,0,0,0,0,0l0.005,0.067c0,0.001,0,0.001,0,0.002c0,0.002,0,0.005,0.001,0.007l0.001,0.024c0,0.001,-0.001,0.001,0.001,0.005l0.006,0.039c0,0.002,0.001,0.005,0.001,0.00799999l0.012,0.065c0,0.001,0,0.002,0,0.004l0.00799999,0.047c0,0.001,0,0.003,0.001,0.004c0,0.001,0,0.001,0.001,0.002l0.006,0.018c0,0.003,0.001,0.006,0.003,0.009l0.021,0.063c0,0.002,0.001,0.004,0.002,0.006l0.022,0.065c0,0.003,0.001,0.006,0.003,0.009l0.045,0.133c0,0.005,0.002,0.009,0.004,0.013l0.015,0.043c0,0.001,0,0.002,0.001,0.004c0,0.001,0,0.001,0.001,0.002l0.009,0.018c0.001,0.003,0.002,0.006,0.004,0.00799999l0.0740002,0.143c0,0.003,0.003,0.005,0.002,0.005c0.001,0.001,0.001,0.001,0.002,0.002l0.112,0.138c0,0.001,0.001,0.001,0.001,0.002l0.005,0.006c0.001,0.002,0.003,0.005,0.006,0.006l0.145,0.123c0,0,0,0,0.001,0l0,0c0.001,0.001,0.002,0.001,0.004,0.002l0.247,0.157c0,0,0.001,0,0.001,0.001l0.0889999,0.057c0.002,0.002,0.007,0.003,0.005,0.003l0.243,0.112c0.002,0.001,0.005,0.003,0.00799999,0.003l0.259,0.059c0.001,0,0.003,0.001,0.005,0.001c0,0,0.001,0,0.002,0l0.725998,0.05c0.001,0,0.002,0,0.003,0c0,0,0,0,0.001,0s0,0,0,0l0.375,-0.013c0.001,0,0.003,0,0.004,0l0.372,-0.053c0.002,0,0.004,0,0.006,-0.001l0.248,-0.07c0.004,0,0.00799999,-0.001,0.012,-0.003l0.023,-0.007c0,0,0.001,0,0.002,0c0.001,0,0.003,-0.001,0.004,-0.002l0.264,-0.126c0.002,-0.001,0.005,-0.001,0.006,-0.004l0.238,-0.171c0.001,-0.001,0.002,-0.002,0.004,-0.003l0,0c0,0,0.001,-0.001,0.002,-0.001l0.205,-0.21c0.001,-0.001,0.002,-0.003,0.003,-0.004l0,0c0,0,0,-0.001,0.001,-0.001l0.107,-0.16c0,0,0,-0.001,0.001,-0.001c0,0,0,0,0,0C3.999,12.76,4,12.758,4,12.756l0.017,-0.039c0,-0.001,0.001,-0.002,0.001,-0.003l0.057,-0.133c0,0,0,0,0,0c0,0,0,0,0,0l0,0c0,-0.002,0.001,-0.004,0.001,-0.006l0.041,-0.188c0,0,0,-0.001,0,-0.002c0,-0.001,0,-0.002,0,-0.004l0.021,-0.293c0,-0.002,0,-0.004,0,-0.007l-0.00799999,-0.0969998C4.132,11.982,4.132,11.982,4.132,11.981z"/>
    <path  fill="#FFFFFF" stroke-width="0" d="M9.16898,10.9c0,-0.002,0,-0.005,-0.001,-0.007L9.15998,10.828c0,-0.002,0,-0.005,-0.001,-0.007L9.14998,10.755c0,-0.001,0,-0.002,0,-0.003l-0.009,-0.07c0,0,0,-0.001,0,-0.001l-0.015,-0.113c0,-0.001,0,-0.002,0,-0.004s0,-0.002,-0.001,-0.004l-0.19,-0.597c0,-0.001,-0.001,-0.003,-0.001,-0.004C8.93203,9.95702,8.93102,9.95602,8.93102,9.95501L8.80798,9.73498C8.80697,9.73303,8.80603,9.73001,8.80402,9.72799L8.76701,9.66103C8.766,9.65902,8.76398,9.657,8.76298,9.65498l0,0c0,0,-0.001,-0.001,-0.001,-0.001l-0.223,-0.25C8.53697,9.40097,8.53502,9.39902,8.53301,9.39701L8.49103,9.36403C8.48902,9.36202,8.487,9.36,8.48398,9.35899L8.40002,9.29297C8.39801,9.29002,8.39498,9.288,8.39203,9.28598L8.31103,9.22198C8.30801,9.21802,8.30398,9.21499,8.29901,9.21298c0,0,0,0,-0.001,-0.001C8.29699,9.21103,8.29598,9.21002,8.29498,9.21002L8.18798,9.14602C8.18503,9.144,8.18201,9.14198,8.17898,9.14098L8.06998,9.07502C8.06602,9.072,8.06198,9.06898,8.05702,9.06703L8.04002,9.05702c-0.001,0,-0.004,-0.002,-0.007,-0.003L7.74497,8.94002c-0.002,0,-0.005,-0.001,-0.009,-0.002L7.42997,8.88703c-0.002,0,-0.003,0,-0.005,-0.001c-0.001,0,-0.001,0,-0.002,0l-0.56,0.007l0,0c-0.002,0,-0.004,0,-0.006,0l0,0c0,0,-0.001,0,-0.001,0L6.718,8.92303c0,0,0,0,-0.001,0c-0.002,0,-0.004,0.001,-0.006,0.002l-0.374,0.15c0,0,0,0,-0.001,0c0.001,0.001,-0.003,0.002,-0.005,0.003l-0.11,0.065C6.219,9.14501,6.217,9.14602,6.215,9.14803L6.137,9.216C6.135,9.21701,6.134,9.21902,6.132,9.22003L6.119,9.23198C6.118,9.23299,6.116,9.234,6.115,9.23501c0,0,0,0,0,0L6.065,9.29002C6.063,9.29203,6.061,9.29398,6.059,9.29599L5.999,9.36202C5.997,9.36403,5.994,9.36598,5.993,9.369L5.863,9.50998c0,0,0,0,-0.001,0.001L5.825,9.55202l0.001,-0.0830002c0,-0.002,0,-0.004,0,-0.006s0,-0.003,0,-0.005l0.001,-0.061c0,-0.002,0,-0.004,0,-0.006c0,-0.002,0,-0.004,0,-0.006L5.829,9.31997c0,-0.002,-0.001,-0.004,0,-0.005l0,-0.067c0.001,-0.002,0,-0.004,0,-0.006l0,-0.065c0,-0.001,0,-0.002,0,-0.004c0,-0.001,0,-0.002,0,-0.003l0.002,-0.135c0,-0.001,0,-0.003,0,-0.005c0,-0.001,0,-0.003,0,-0.004l0,-0.018c0,-0.001,0,-0.002,0,-0.003c0,0,0,0,0,0c0,-0.004,-0.001,-0.00799999,-0.003,-0.011C5.827,8.98798,5.823,8.98301,5.818,8.97898C5.815,8.97703,5.812,8.97502,5.807,8.97401C5.804,8.97199,5.8,8.97199,5.796,8.97199c-0.002,0,-0.006,-0.003,-0.007,0.001L5.296,9.06602c0,0,0,0,-0.001,0L4.688,9.18101c-0.003,0,-0.006,0.001,-0.009,0.003l0,0l0,0c-0.005,0.002,-0.01,0.006,-0.014,0.011c0,0,0,0,0,0c0,0,0,0,0,0c0,0,0,0,0,0C4.664,9.19901,4.662,9.20203,4.661,9.20398l0,0l0,0C4.659,9.20902,4.659,9.21298,4.659,9.21701l0,5.831c0.001,0.002,0,0.004,0,0.004c0,0,0,0,0,0c0,0.002,0.001,0.005,0.001,0.00799999c0,0,0,0,0,0c0.002,0.005,0.005,0.01,0.01,0.015l0.269,0.243c0.001,0.001,0.003,0.003,0.005,0.004l0.0750002,0.068c0.001,0.001,0.003,0.003,0.005,0.004l0.554,0.5c0.001,0.001,0.002,0.002,0.004,0.003l0.0760003,0.069c0.001,0.001,0.003,0.002,0.004,0.004l0.181,0.163c0.001,0,0.001,0.001,0.002,0.001c0,0,0,0,0,0l0,0l0,0c0,0,0,0,0,0c0.006,0.004,0.014,0.007,0.021,0.007c0.002,0,0.009,-0.001,0.013,-0.002c0,0,0,0,0,0c0.005,-0.002,0.009,-0.005,0.013,-0.009c0.002,-0.002,0.003,-0.004,0.005,-0.007c0,0,0,0,0,0c0,0,0,0,0,0l0,0c0,0,0,0,0,0c0.002,-0.005,0.003,-0.01,0.003,-0.016l0,-3.146l0.146,0.202c0.002,0.003,0.004,0.005,0.006,0.007l0.149,0.133c0.001,0.001,0.002,0.002,0.004,0.004l0.033,0.029c0.003,0.002,0.004,0.003,0.007,0.005l0.217,0.124c0,0,0.001,0,0.002,0.001l0,0l0,0c0.001,0,0.003,0.001,0.005,0.002l0.238,0.0740002c0.001,0,0.003,0.001,0.004,0.001c0.001,0,0.002,0,0.003,0l0.344,0.044c0.001,0,0.003,0,0.005,0l0,0l0.347,-0.005c0,0,0.001,0,0.002,0c0,0.001,0.002,-0.001,0.004,0l0.342,-0.054c0.002,0,0.005,-0.001,0.007,-0.001l0.215,-0.069c0.006,0,0.012,-0.002,0.018,-0.006l0.026,-0.00799999c0.001,0,0.003,-0.001,0.004,-0.002c0,0,0,0,0,0c0,0,0,0,0,0c0,0,0.001,0,0.001,-0.001l0.112,-0.058c0.002,-0.001,0.005,-0.002,0.007,-0.004l0.123,-0.063l0,0c0.002,-0.001,0.004,-0.002,0.006,-0.003l0.005,-0.004c0.001,0,0.002,-0.001,0.003,-0.002l0.0920002,-0.07c0.001,-0.001,0.002,-0.001,0.002,-0.002l0.114,-0.0869998c0.002,-0.001,0.003,-0.003,0.005,-0.005l0.05,-0.054c0.002,-0.001,0.003,-0.003,0.005,-0.005l0.063,-0.068c0.001,-0.001,0.002,-0.002,0.003,-0.004l0.065,-0.07c0,0,0,-0.001,0,-0.001c0,0,0,0,0,0c0.001,-0.001,0.002,-0.003,0.003,-0.004l0.043,-0.066c0.002,-0.003,0.004,-0.006,0.006,-0.009l0.042,-0.064c0.001,-0.002,0.003,-0.004,0.004,-0.007l0.041,-0.062c0.003,-0.003,0.006,-0.007,0.007,-0.011l0.04,-0.06c0.003,-0.004,0.006,-0.00799999,0.00799999,-0.013l0.027,-0.042c0.001,-0.002,0.002,-0.004,0.003,-0.006l0.00799999,-0.02c0.001,-0.002,0.002,-0.004,0.003,-0.007l0.028,-0.064c0.002,-0.003,0.003,-0.006,0.004,-0.01l0.114,-0.266c0,-0.001,0.001,-0.002,0.001,-0.003c0,-0.001,0.001,-0.002,0.001,-0.004l0.037,-0.156c0,-0.002,0.001,-0.004,0.001,-0.007l0.033,-0.139c0,-0.001,0,-0.003,0.001,-0.004l0.015,-0.063c0.001,-0.003,0.002,-0.007,0.003,-0.011l0.001,-0.00799999c0,-0.002,0.001,-0.004,0.001,-0.006c0,0,0,-0.001,0,-0.001l0.006,-0.123c0,-0.002,0.001,-0.005,0.001,-0.00799999c0,-0.001,0,-0.003,0,-0.004l0.003,-0.064c0,-0.001,0,-0.003,0,-0.004l0,0l0.003,-0.066c0,-0.002,0,-0.003,0,-0.005c0,0,0,-0.001,0,-0.001l0.003,-0.065c0,-0.002,0,-0.004,0,-0.006c0,-0.001,0,-0.001,0,-0.002l0.011,-0.209c0,-0.001,0,-0.002,0,-0.004l0.003,-0.062c0,-0.002,0,-0.003,0,-0.005c0,-0.001,0,-0.002,0,-0.003L9.16898,10.9zM5.961,12.02c0,-0.001,0,-0.002,0,-0.003c0,-0.001,-0.001,-0.003,-0.001,-0.004l-0.013,-0.039c0,-0.002,-0.001,-0.004,-0.002,-0.006l-0.048,-0.145l-0.021,-0.131c0,-0.002,0,-0.004,-0.001,-0.006l-0.011,-0.067c0,-0.001,0,-0.003,0,-0.005L5.856,11.12c-0.001,-0.001,0,-0.003,0,-0.004l-0.001,-0.141c0,0,0,-0.002,0,-0.003l-0.001,-0.0889999l0.006,-0.047c0,0,0,-0.001,0,-0.002l0.009,-0.066c0,-0.002,0.001,-0.005,0.001,-0.00799999l0.014,-0.107l0.00799999,-0.023c0.001,-0.002,0.002,-0.004,0.002,-0.006l0.022,-0.066c0.001,-0.002,0.001,-0.004,0.002,-0.006l0.041,-0.119l0.0920002,-0.157c0.001,-0.002,0.003,-0.004,0.004,-0.007l0.021,-0.037l0.0830002,-0.0940003c0.003,-0.002,0.005,-0.005,0.00799999,-0.009l0.055,-0.063c0.003,-0.003,0.006,-0.006,0.00799999,-0.01l0.069,-0.06c0.003,-0.002,0.005,-0.004,0.00799999,-0.006l0.0850003,-0.066C6.396,9.92297,6.398,9.92102,6.4,9.91901l0.049,-0.038l0.0959998,-0.045L6.65,9.81403L6.955,9.79999l0.16,0.014l0.146,0.041c0.002,0.001,0.005,0.002,0.00799999,0.002l0.142,0.0750002l0.161,0.133c0,0,0.001,0.001,0.002,0.002l0.052,0.043l0.013,0.017c0.002,0.004,0.005,0.00799999,0.00799999,0.011L7.695,10.2c0.001,0.002,0.003,0.004,0.005,0.006l0.051,0.067c0.001,0.001,0.002,0.002,0.003,0.003l0.042,0.055l0.114,0.256l0.006,0.032c0,0.001,0,0.002,0,0.003l0.028,0.139c0,0.002,0,0.003,0.001,0.005l0.013,0.066c0,0.001,0,0.003,0.001,0.004l0.004,0.061c0,0.002,0,0.003,0,0.005l0,0.066c0,0.001,0,0.002,0,0.004s0,0.002,0,0.004l0,0.209c0,0.002,0,0.003,0,0.005l0,0.066c0,0.001,0,0.002,0,0.004s0,0.002,0,0.004l0,0.155l-0.03,0.192c-0.001,0.002,-0.001,0.005,-0.001,0.007l-0.01,0.066c0,0.001,0,0.003,0,0.005l-0.011,0.065c0,0.002,0,0.004,-0.001,0.006L7.89998,11.831c0,0.001,0,0.002,0,0.003l-0.011,0.067c0,0.002,0,0.003,0,0.005l-0.011,0.066L7.85297,12.04c0,0,0,0.001,-0.001,0.002l-0.026,0.07c0,0.001,0,0.002,-0.001,0.003l-0.026,0.069c0,0.001,0,0.002,-0.001,0.003l-0.041,0.057c-0.003,0.003,-0.005,0.006,-0.007,0.009l-0.047,0.065C7.70098,12.32,7.69997,12.321,7.69903,12.323l-0.037,0.052l-0.01,0.00799999c-0.002,0.002,-0.005,0.004,-0.007,0.006l-0.081,0.066c-0.002,0.001,-0.004,0.003,-0.006,0.005l-0.0730001,0.061l-0.209,0.0959998l-0.252,0.049L6.765,12.666L6.56,12.623L6.368,12.54l-0.116,-0.0820001c-0.002,-0.001,-0.003,-0.003,-0.005,-0.004l-0.023,-0.016l-0.038,-0.043c-0.002,-0.004,-0.005,-0.007,-0.009,-0.01l-0.07,-0.0799999l-0.0850003,-0.16c0,-0.001,-0.001,-0.003,-0.002,-0.004l-0.026,-0.039l-0.003,-0.026c0,-0.009,-0.003,-0.019,-0.011,-0.026c-0.005,-0.005,-0.011,-0.00799999,-0.017,-0.01c0,-0.004,0,-0.00799999,0,-0.012L5.961,12.02z"/>
    <path  fill="#FFFFFF" stroke-width="0" d="M25.5,4.38c0,0,0,-0.001,0.001,-0.002c0,0,0,0,0,0c0.001,-0.001,0.001,-0.003,0.002,-0.005l0.004,-0.01c0,-0.001,0,-0.002,0.001,-0.002l0.022,-0.066c0.001,-0.003,0.002,-0.006,0.003,-0.009l0.047,-0.136c0.001,-0.002,0.002,-0.005,0.003,-0.00799999l0.0979999,-0.283c0.001,-0.002,0.001,-0.004,0.002,-0.007c0,0,0,-0.001,0,-0.001l0.0820001,-0.54c0,-0.002,0,-0.004,0,-0.006l0,0c0,0,0,-0.001,0,-0.001l-0.001,-0.032c0,0,0,-0.001,0,-0.002c0,-0.001,0,-0.003,0,-0.004l-0.004,-0.137c0,-0.001,0,-0.002,0,-0.003c0,-0.002,0,-0.003,0,-0.005l-0.002,-0.067l0,0c0,-0.001,0,-0.002,0,-0.003l-0.002,-0.065c0,-0.001,0,-0.002,0,-0.004c0,-0.002,0,-0.004,0,-0.006l-0.002,-0.063c0,-0.001,0,-0.001,0,-0.002c0,-0.001,0,-0.003,0,-0.005l-0.004,-0.146c0,-0.002,0,-0.005,-0.001,-0.007L25.734,2.69c0,-0.002,0,-0.003,-0.001,-0.005l-0.028,-0.141c0,-0.001,0,-0.001,0,-0.002l-0.014,-0.067c0,-0.003,0,-0.005,-0.001,-0.00799999l-0.001,-0.009c0,-0.001,-0.001,-0.003,-0.001,-0.004c0,0,0,-0.001,0,-0.002l-0.021,-0.057c0,0,0,-0.001,0,-0.002l-0.023,-0.065c-0.001,-0.004,-0.002,-0.00799999,-0.004,-0.011l-0.022,-0.062c-0.001,-0.002,-0.001,-0.005,-0.003,-0.007L25.59,2.182c0,-0.003,-0.001,-0.006,-0.003,-0.00799999l-0.002,-0.005c0,-0.002,-0.001,-0.004,-0.002,-0.005l-0.141,-0.265c0,-0.001,-0.001,-0.001,-0.002,-0.002c0,-0.001,-0.001,-0.003,-0.002,-0.004l-0.256,-0.32c-0.001,-0.001,-0.002,-0.002,-0.004,-0.004c-0.001,-0.001,-0.001,-0.001,-0.002,-0.002l-0.15,-0.123c-0.001,-0.001,-0.001,-0.001,-0.002,-0.002l-0.0830002,-0.067c-0.002,-0.003,-0.005,-0.005,-0.009,-0.007l-0.0750002,-0.061c-0.005,-0.004,-0.012,-0.007,-0.019,-0.00799999l0,0c0,0,0,0,0,0c0,0,0,0,0,0c-0.001,0,-0.002,0,-0.003,0l0,0c0,0,0,0,0,0c-0.005,0,-0.01,0.001,-0.014,0.003c-0.005,0.002,-0.009,0.006,-0.013,0.01c-0.005,0.007,-0.00799999,0.015,-0.00799999,0.023l0,0.249l-0.003,0.025c0,0.001,0,0.003,-0.001,0.004L24.78,1.645l-0.0779998,0.0969998l-0.081,0.056c-0.002,0.001,-0.005,0.003,-0.007,0.004l-0.063,0.029l-0.153,0.016l-0.15,-0.028l-0.035,-0.018c-0.004,-0.003,-0.009,-0.006,-0.015,-0.007L24.11,1.75l-0.022,-0.017c-0.003,-0.003,-0.007,-0.006,-0.011,-0.00799999l-0.09,-0.065c-0.002,-0.002,-0.005,-0.004,-0.009,-0.006l-0.124,-0.09l-0.117,-0.1l-0.014,-0.017c0,0,-0.001,-0.001,-0.001,-0.001l-0.0840002,-0.099l-0.022,-0.036c-0.001,-0.003,-0.003,-0.006,-0.006,-0.009L23.57,1.237c0,-0.001,-0.001,-0.003,-0.003,-0.005l-0.028,-0.061c-0.001,-0.003,-0.002,-0.005,-0.003,-0.00799999L23.5,1.077l-0.017,-0.0850003l0.003,-0.0850003l0.045,-0.147l0.081,-0.131l0.071,-0.066c0.002,-0.001,0.004,-0.003,0.006,-0.005l0.035,-0.033l0.136,-0.072l0.138,-0.039l0.145,-0.017l0.171,0c0.02,0,0.036,-0.016,0.036,-0.036c0,-0.012,-0.006,-0.022,-0.015,-0.029l-0.003,-0.003c-0.001,-0.001,-0.002,-0.002,-0.004,-0.003l-0.044,-0.034c-0.001,-0.001,-0.003,-0.003,-0.005,-0.004L24.207,0.23c-0.001,-0.001,-0.002,-0.002,-0.003,-0.002c-0.002,-0.001,-0.004,-0.002,-0.006,-0.003l-0.021,-0.009c-0.004,-0.002,-0.00799999,-0.004,-0.013,-0.005l-0.158,-0.069c0,0,0,0,-0.001,0l-0.049,-0.022c0,0,-0.001,0,-0.001,0L23.89,0.0910001c-0.002,0,-0.004,-0.001,-0.006,-0.002l-0.0789998,-0.02c-0.004,-0.002,-0.009,-0.003,-0.014,-0.004l-0.155,-0.039c-0.002,0,-0.004,0,-0.006,-0.001L23.376,0C23.374,0,23.372,-0.001,23.37,0l0,0c0,0,0,0,0,0L23.123,0.02c-0.001,0,-0.005,0,-0.00799999,0.001l-0.237,0.064c-0.001,0,-0.002,0.001,-0.004,0.001s-0.003,0.001,-0.004,0.002l-0.22,0.11c-0.001,0.001,-0.002,0.003,-0.006,0.004l-0.014,0.01c-0.004,0.002,-0.007,0.004,-0.01,0.00799999l-0.0910001,0.065c-0.003,0.001,-0.005,0.003,-0.007,0.005L22.425,0.36c-0.001,0.001,-0.002,0.002,-0.004,0.003c0,0,0,0,0,0l0,0l-0.197,0.187c-0.001,0,-0.002,0.001,-0.002,0.002c0,0,0,0,0,0c-0.001,0.001,-0.001,0.002,-0.002,0.003l-0.018,0.024c-0.001,0.002,-0.003,0.004,-0.005,0.007L22.15,0.652c-0.002,0.003,-0.005,0.006,-0.006,0.009L22.1,0.724003c-0.004,0.005,-0.00799999,0.011,-0.009,0.018l-0.024,0.062c-0.001,0.002,-0.002,0.005,-0.003,0.00799999l-0.025,0.065c-0.001,0.002,-0.002,0.004,-0.002,0.006l-0.019,0.047c0,0,0,0.001,0,0.001c0,0,0,0,0,0c-0.001,0.002,-0.001,0.005,-0.001,0.00799999L21.99,1.148c0,0.002,0,0.004,0,0.006c0,0.001,0,0.002,0,0.004l0.003,0.022l0,0c0,0.003,0,0.007,0.001,0.01l0.018,0.133c0,0.003,0,0.007,0.001,0.01l0.004,0.032c0,0.001,0,0.002,0,0.003c0,0,0,0,0,0c0,0.002,0.001,0.004,0.002,0.007l0.043,0.105c0,0,0,0.001,0,0.002l0.028,0.067c0,0.002,0.002,0.005,0.003,0.00799999L22.1,1.569c0,0.001,0.001,0.002,0.001,0.002c0.001,0.002,0.002,0.004,0.003,0.005l0.035,0.051c0.002,0.004,0.004,0.009,0.00799999,0.012l0.043,0.064c0,0.001,0.001,0.002,0.002,0.003l0.045,0.067c0.001,0.003,0.003,0.005,0.005,0.00799999l0.0910001,0.136c0.001,0.002,0.003,0.005,0.005,0.007l0.045,0.066c0.001,0.002,0.002,0.003,0.003,0.005l0.044,0.065c0.001,0.003,0.003,0.006,0.005,0.00799999l0.003,0.005c0,0,0.001,0.001,0.001,0.001c0.001,0.001,0.002,0.002,0.003,0.004L22.5,2.139c0.002,0.002,0.004,0.005,0.006,0.007l0.061,0.064c0.002,0.002,0.004,0.005,0.006,0.007l0.062,0.066c0.001,0.002,0.003,0.004,0.006,0.006l0.062,0.065c0.001,0.002,0.003,0.004,0.006,0.006l0.062,0.066c0.001,0.002,0.003,0.004,0.005,0.006l0.06,0.063c0.003,0.005,0.007,0.009,0.011,0.012L22.9,2.569c0.001,0.003,0.004,0.005,0.006,0.00799999L22.96,2.64l0.031,0.065c0.001,0.004,0.003,0.007,0.005,0.01l0.031,0.064c0,0.001,0.001,0.002,0.001,0.003l0.011,0.058c0,0.003,0.001,0.005,0.001,0.00799999l0.017,0.0879998l-0.012,0.158l-0.052,0.15l-0.001,0.002c-0.001,0.002,-0.003,0.004,-0.004,0.006l-0.0830002,0.121L22.89,3.385c-0.001,0,-0.002,0.001,-0.003,0.002l-0.0779998,0.068c-0.002,0.001,-0.005,0.003,-0.007,0.006l-0.019,0.017l-0.0840002,0.045c-0.004,0.001,-0.00799999,0.003,-0.011,0.006l-0.058,0.031l-0.167,0.056L22.29,3.644l-0.202,-0.009l-0.192,-0.06l-0.172,-0.104L21.647,3.39c-0.001,-0.001,-0.002,-0.002,-0.003,-0.003l-0.066,-0.123c0,-0.002,0,-0.003,-0.001,-0.005l-0.015,-0.066c0,-0.002,0,-0.004,-0.001,-0.006l-0.009,-0.04L21.552,3.025l0.026,-0.117l0.021,-0.04l0.033,-0.032l0.15,-0.109c0.004,-0.002,0.007,-0.005,0.01,-0.00799999l0.0730001,-0.053l0.02,-0.01c0.003,-0.001,0.007,-0.003,0.01,-0.005l0.047,-0.012l0.045,0.004l0,0c0,0,0,0,0,0c0.002,-0.001,0.005,-0.001,0.00799999,0l0,0c0,0,0,0,0,0l0,0c0.015,-0.003,0.027,-0.016,0.028,-0.032c0,0,0,0,0,0c0,0,0,0,0,0c0,0,0,0,0,0c0.001,-0.018,-0.012,-0.035,-0.031,-0.038L21.858,2.55c0,0,0,0,-0.001,0c-0.001,0,-0.001,0,-0.002,0l-0.266,-0.021c-0.001,0,-0.002,0,-0.003,0s-0.002,0,-0.003,0L21.317,2.55c-0.001,0,-0.002,0,-0.003,0c0,0,0,0,0,0l0,0c-0.001,0,-0.002,0,-0.003,0l-0.197,0.051c-0.002,0,-0.004,0.001,-0.005,0.002c0,0,0,0,0,0c-0.001,0,-0.001,0.001,-0.002,0.001l-0.183,0.09c-0.003,0.002,-0.005,0.003,-0.007,0.005l-0.16,0.125c-0.001,0.001,-0.003,0.002,-0.004,0.003c0,0,0,0,0,0c0,0,0,0,0,0c-0.001,0,-0.001,0.001,-0.002,0.002l-0.044,0.052c-0.002,0.001,-0.003,0.003,-0.004,0.005l-0.058,0.068c-0.001,0.001,-0.002,0.002,-0.003,0.003l-0.023,0.027l0,0l0,0c0,0,0,0,0,0c-0.001,0.002,-0.002,0.004,-0.004,0.006L20.498,3.2c0,0,-0.001,0.001,-0.001,0.003c-0.001,0.001,-0.001,0.003,-0.002,0.005l-0.015,0.05c0,0,0,0.001,0,0.002l-0.021,0.068c-0.001,0.002,-0.001,0.004,-0.002,0.007l-0.02,0.064c-0.001,0.002,-0.001,0.004,-0.002,0.006l-0.00799999,0.027c0,0.001,-0.001,0.003,-0.001,0.005c0,0.001,0,0.002,-0.001,0.004l-0.003,0.04c0,0,0,0.001,0,0.002l-0.011,0.14c0,0.002,-0.001,0.004,-0.001,0.007c0,0,0,0,0,0.001l-0.003,0.046c0,0.001,0,0.002,0,0.003l0,4.298c0,0.001,0,0.003,0,0.005c0,0,0,0,0,0c0,0,0,0,0,0c0,0.002,0.001,0.004,0.001,0.005c0,0,0,0,0,0s0,0,0,0c0.002,0.006,0.005,0.011,0.01,0.015c0.007,0.006,0.016,0.009,0.024,0.009c0.007,0.001,0.011,-0.001,0.015,-0.003c0,0,0,0,0,0c0.004,-0.001,0.007,-0.004,0.01,-0.007c0,0,0,0,0,0c0,-0.001,0.001,-0.001,0.002,-0.002l0.022,-0.025c0.002,-0.001,0.003,-0.003,0.005,-0.005l0.444,-0.5c0.001,-0.001,0.002,-0.002,0.003,-0.003l0.317,-0.356c0.001,-0.001,0.002,-0.002,0.003,-0.004l0.188,-0.211c0.001,-0.001,0.003,-0.003,0.004,-0.005l0.394,-0.442l0.06,-0.055c0.001,-0.001,0.002,-0.002,0.004,-0.003l0.178,-0.164l0.281,-0.167l0.099,-0.037l0.104,-0.018l0.645,0l0,0c0.001,0,0.002,0,0.003,0l0.386,-0.035c0.001,-0.001,0.002,0,0.002,0c0.002,0,0.004,0,0.006,-0.001l0.25,-0.07c0.007,0,0.013,-0.002,0.019,-0.005l0.103,-0.029c0.002,0,0.003,-0.001,0.005,-0.001c0,0,0.001,-0.001,0.002,-0.001l0.0740002,-0.036c0.006,-0.001,0.012,-0.004,0.017,-0.00799999l0.132,-0.064c0.005,-0.001,0.01,-0.004,0.014,-0.007l0.111,-0.054c0.001,0,0.002,-0.001,0.002,-0.001c0.001,0,0.002,-0.001,0.004,-0.002l0.014,-0.01c0.004,-0.002,0.007,-0.004,0.01,-0.007l0.0959998,-0.067c0.001,0,0.001,-0.001,0.002,-0.001l0.205,-0.144c0.001,-0.001,0.003,-0.002,0.004,-0.003l0,0c0,0,0,0,0,0l0.292,-0.275c0.001,-0.001,0.002,-0.003,0.004,-0.004l0.25,-0.312c0,-0.001,0.001,-0.002,0.002,-0.003c0,0,0,0,0,0c0,-0.001,0.001,-0.002,0.001,-0.003l0.071,-0.126c0.001,-0.002,0.003,-0.004,0.004,-0.006l0.158,-0.281c0.002,-0.002,0.003,-0.005,0.004,-0.00799999L25.5,4.38z"/>
    <path  fill="#FFFFFF" stroke-width="0" d="M13.909,13.381l-0.099,-0.367l-0.007,-0.0959998c0,0,0,-0.001,0,-0.001c0,-0.002,0,-0.004,-0.001,-0.007l-0.01,-0.136c0,0,0,0,0,0c0,-0.002,0,-0.004,0,-0.006l-0.005,-0.063c0,-0.001,0,-0.001,0,-0.002c0,-0.002,0,-0.005,-0.001,-0.007l-0.004,-0.06l0,-0.0760003c0,-0.001,0,-0.001,0,-0.002l0,-0.069c0,-0.001,0,-0.003,0,-0.004l0.003,-0.501c0,0,0,0,0,-0.001l0,0l0,-0.14c0.001,-0.002,0.001,-0.004,0,-0.006l0.003,-0.43c0,-0.005,-0.001,-0.011,-0.003,-0.015c0,0,0,0,0,0c0,0,0,0,0,0c0,0,0,0,0,0l0,0c0,0,0,0,0,0s0,0,0,0c0,0,0,0,0,0c0,0,0,0,0,0s0,0,0,0c0,0,0,0,0,0l0,0c0,0,0,0,0,0l0,0c0,0,0,0,0,0c0,0,0,0,0,0l0,0c0,0,0,0,0,0l0,0c0,0,0,0,0,0c0,-0.002,0.001,-0.004,0.001,-0.007L13.786,10.01c0,-0.001,0,-0.003,0,-0.004c0,0,0,0,0,0c0,0,0,0,0,-0.001l-0.004,-0.037c0,0,0,0,0,-0.001c0,-0.003,0,-0.007,-0.001,-0.01l-0.00799999,-0.064c0,-0.002,0,-0.004,-0.001,-0.006l-0.00799999,-0.065c0,-0.003,0,-0.006,-0.001,-0.009l-0.002,-0.016c0,-0.002,0,-0.003,0,-0.005c0,-0.002,-0.001,-0.004,-0.002,-0.005l-0.018,-0.047c0,-0.002,-0.001,-0.004,-0.002,-0.006L13.708,9.67003c-0.001,-0.003,-0.002,-0.007,-0.004,-0.01L13.68,9.59897c-0.001,-0.006,-0.004,-0.012,-0.00799999,-0.017l-0.119,-0.169c0,0,-0.001,-0.001,-0.002,-0.002c0,0,0,0,0,0c-0.001,-0.001,-0.003,-0.003,-0.004,-0.004l-0.131,-0.112c-0.002,-0.001,-0.004,-0.003,-0.006,-0.005l-0.021,-0.019c-0.002,-0.001,-0.004,-0.003,-0.007,-0.004c0,0,0,0,-0.001,0l-0.09,-0.048c-0.002,-0.002,-0.005,-0.003,-0.009,-0.004l-0.263,-0.14c-0.002,-0.001,-0.003,-0.002,-0.005,-0.003l0,0c-0.003,-0.002,-0.006,-0.002,-0.00799999,-0.003l-0.4,-0.12c-0.002,-0.003,-0.005,-0.002,-0.007,-0.001l-0.492,-0.066c0,0,-0.001,0,-0.002,0c-0.001,0,-0.002,0,-0.003,0l0,0l-0.496,-0.002l0,0l0,0c0,0,0,0,0,0c-0.001,0,-0.003,0,-0.004,0l-0.493,0.061c-0.001,0,-0.004,0.001,-0.006,0.001l-0.347,0.0959998c-0.002,0,-0.005,0,-0.007,0.002l-0.07,0.032c-0.003,0.001,-0.007,0.002,-0.01,0.004l-0.247,0.112c-0.001,0,-0.002,0.001,-0.003,0.002c0,0,0,0,0,0c-0.001,0.001,-0.002,0.001,-0.003,0.002l-0.036,0.025c-0.003,0.001,-0.006,0.004,-0.009,0.006l-0.0940003,0.066c-0.003,0.001,-0.005,0.003,-0.00799999,0.005L10.181,9.34999c-0.001,0.001,-0.003,0.002,-0.004,0.003c-0.001,0,-0.001,0.001,-0.002,0.002l-0.007,0.007c-0.001,0.001,-0.002,0.002,-0.004,0.004l-0.064,0.069c0,0,-0.001,0.001,-0.002,0.002L9.98201,9.56203c0,0.001,-0.002,0.002,-0.002,0.002C9.97898,9.56599,9.97798,9.567,9.97697,9.56902L9.96797,9.58298C9.96602,9.585,9.96401,9.58802,9.963,9.59098L9.83002,9.80798C9.82901,9.80899,9.82901,9.81101,9.828,9.81202c0,0.001,-0.001,0.002,-0.001,0.004l-0.0940003,0.268c0,0,0,0.001,-0.001,0.002c0,0.002,-0.001,0.004,-0.001,0.006l-0.011,0.0830002c0,0.001,0,0.002,0,0.004l-0.019,0.14c0,0.001,0,0.002,-0.001,0.004l-0.002,0.02c-0.003,0.003,-0.006,0.006,-0.00799999,0.01c0,0,0,0,0,0c0,0,0,0,0,0c-0.002,0.004,-0.004,0.01,-0.004,0.016c0,0.01,0.004,0.019,0.01,0.025L9.70099,10.4c0.007,0.007,0.015,0.011,0.024,0.012c0.005,0.002,0.01,0,0.014,-0.002c0,0,0,0,0,0c0.003,-0.001,0.006,-0.003,0.009,-0.005c0,0,0,0,0,0l0,0c0,0,0,0,0,0l1.173,0c0.02,0,0.036,-0.016,0.036,-0.036l0.018,-0.162l0.052,-0.14l0.052,-0.0779998c0.001,-0.002,0.003,-0.004,0.004,-0.006l0.027,-0.042l0.018,-0.017c0.004,-0.002,0.007,-0.005,0.01,-0.009l0.0820001,-0.0750002l0.132,-0.072l0.159,-0.046l0.167,-0.015l0.191,0.007c0,0,0.001,0,0.001,0l0.192,0.007l0.104,0.017l0.099,0.037l0.009,0.005c0,0,0.001,0,0.001,0.001l0.0789998,0.048l0.071,0.067l0.057,0.0779998l0,0.001c0.001,0.003,0.002,0.006,0.004,0.01l0.028,0.063c0.001,0.002,0.002,0.005,0.004,0.00799999l0.013,0.056c0,0.003,0.001,0.007,0.002,0.01l0.013,0.06c0,0.004,0.001,0.009,0.003,0.013l0.003,0.167l-0.005,0.025c0,0.001,0,0.003,-0.001,0.004l-0.015,0.068c0,0.001,0,0.002,-0.001,0.003l-0.009,0.044l-0.013,0.028l-0.017,0.025l-0.0799999,0.0730001l-0.122,0.071l-0.133,0.046l-0.24,0.042l0,0c-0.004,0,-0.009,0.001,-0.013,0.002l-0.117,0.021l-0.625,0.063c0,0,-0.001,0,-0.001,0s0,0,0,0s0,0,0,0c0,0,0,0,-0.001,0l-0.435,0.0799999c0,0,0,0,-0.001,0c0,0,0,0,0,0c-0.001,0,-0.002,0,-0.004,0.001l-0.419,0.136c-0.001,0,-0.003,0.001,-0.004,0.002c-0.001,0,-0.002,0,-0.002,0.001l-0.197,0.103c-0.001,0,-0.002,0.001,-0.003,0.001l0,0c-0.001,0.001,-0.003,0.002,-0.004,0.003l-0.172,0.14c-0.002,0,-0.005,0.003,-0.006,0.006l-0.14,0.172c0,0.001,-0.001,0.001,-0.002,0.002c-0.001,0.002,-0.002,0.003,-0.003,0.005c0,0,0,0,0,0l0,0c0,0,0,0,0,0l-0.121,0.242c-0.001,0.002,-0.002,0.004,-0.002,0.006c0,0.001,-0.001,0.003,-0.001,0.004l-0.024,0.11c-0.001,0.003,-0.001,0.006,-0.001,0.009l-0.03,0.139c0,0.001,0,0.002,-0.001,0.003l-0.001,0.005c0,0,0,0.001,0,0.001c0,0,0,0,0,0c0,0.002,0,0.004,0,0.007l0,0.205c-0.001,0.002,-0.001,0.004,0,0.007l0,0.067c0,0.001,0,0.002,0,0.003l0,0.018c0,0.002,0,0.003,0,0.005c0,0,0,0.001,0,0.002l0.00799999,0.045c0,0.003,0.001,0.007,0.002,0.01l0.011,0.063c0,0.003,0.001,0.005,0.001,0.00799999l0.011,0.062c0,0.004,0.001,0.009,0.002,0.013l0.011,0.061c0,0.004,0.001,0.007,0.002,0.011l0.004,0.021c0,0,0,0.001,0,0.002c0,0.002,0.001,0.004,0.002,0.006l0.014,0.037c0.001,0.005,0.002,0.009,0.005,0.013l0.022,0.06c0,0.003,0.002,0.007,0.004,0.01l0.024,0.064c0,0.002,0.001,0.004,0.002,0.006l0.034,0.09c0,0.001,0.001,0.003,0.002,0.004c0,0.001,0.001,0.002,0.002,0.003l0.028,0.046c0.001,0.002,0.002,0.004,0.003,0.006l0.04,0.065c0.001,0.003,0.003,0.006,0.005,0.009l0.006,0.009c0,0,0,0.001,0.001,0.002c0.001,0.001,0.002,0.003,0.003,0.004l0.046,0.052c0.002,0.005,0.006,0.00799999,0.01,0.012l0.049,0.055c0.002,0.002,0.004,0.004,0.006,0.006l0.007,0.005c0.003,0.004,0.00799999,0.00799999,0.013,0.01l0.0820001,0.063c0.003,0.004,0.007,0.007,0.012,0.009l0.012,0.01c0.001,0.001,0.002,0.001,0.004,0.002s0.002,0.001,0.003,0.002l0.119,0.057c0.001,0,0.001,0.001,0.002,0.001l0.145,0.069c0.003,0.002,0.006,0.003,0.01,0.005l0.0830002,0.04c0.001,0,0.003,0.001,0.004,0.002c-0.001,-0.001,0.002,0,0.004,0.001l0.387,0.0879998c0.003,0,0.005,0,0.009,0.001l0.462,0.01c0,0,0,0,0.001,0c0,0,0,0,0,0c0.002,0,0.004,0,0.006,0l0.457,-0.068c0,0,0.001,0,0.002,0c0.002,0,0.004,-0.001,0.006,-0.002l0.205,-0.069c0.004,-0.001,0.00799999,-0.002,0.011,-0.004l0.0760003,-0.026c0.001,0,0.003,-0.001,0.004,-0.001l0,0c0,0,0,0,0,0c0.001,0,0.002,0,0.002,-0.001l0.2,-0.113c0.003,-0.001,0.006,-0.003,0.009,-0.005l0.06,-0.034c0.001,-0.001,0.003,-0.002,0.005,-0.003l0,0c0,0,0.001,-0.001,0.002,-0.001l0.234,-0.2l0.01,-0.005l0.021,0.0740002c0,0.003,0.001,0.006,0.002,0.009l0.014,0.065c0,0.001,0,0.003,0.001,0.005l0.014,0.064c0,0.004,0.001,0.007,0.002,0.01l0.016,0.0730001c0,0,0,0.001,0,0.002l0.017,0.061c0,0.002,0.001,0.005,0.002,0.007l0.002,0.009c0,0.001,0.001,0.003,0.001,0.004c0.001,0.002,0.002,0.004,0.003,0.006l0.006,0.01c0.001,0.003,0.004,0.005,0.006,0.00799999c0,0,0,0.001,0,0c0,0,0,0,0,0c0.002,0.002,0.004,0.003,0.007,0.005l0.01,0.005c0.004,0.002,0.009,0.004,0.014,0.004l0,0c0,0,0,0,0,0c0,0,0,0,0,0l0,0c0,0,0,0,0.001,0c0.002,0,0.004,0,0.007,0l1.15,-0.001l0,0c0.001,0,0.003,0,0.005,0l0,0c0.004,0,0.009,-0.002,0.013,-0.004c0.005,-0.003,0.009,-0.007,0.012,-0.011c0,0,0,0,0,0c0.002,-0.004,0.004,-0.00799999,0.005,-0.013c0.001,-0.004,0.001,-0.009,0,-0.013c0,-0.002,-0.001,-0.005,-0.002,-0.007L13.909,13.381zM10.814,12.338l-0.001,-0.066c-0.001,-0.002,0,-0.004,0,-0.005l-0.001,-0.067c-0.001,0,0,-0.003,0,-0.003l0,-0.017l0.021,-0.115c0,-0.002,0.001,-0.004,0.001,-0.006l0.00799999,-0.041l0.062,-0.154l0.058,-0.0840002l0.0760003,-0.069l0.0879998,-0.053c0.003,-0.001,0.007,-0.003,0.009,-0.005l0.037,-0.022l0.147,-0.055l0.156,-0.03l0.408,-0.043c0.001,0,0.002,0,0.003,0l0.281,-0.049c0.001,0,0.003,-0.001,0.005,-0.001l0.271,-0.0820001c0.003,0,0.005,-0.001,0.007,-0.003l0.057,-0.028c0.002,-0.001,0.004,-0.002,0.006,-0.003c0,0,0,0,0,0c0.001,-0.001,0.002,-0.002,0.003,-0.003l0.039,-0.036l0,0.0820001c0,0.005,0.001,0.01,0.003,0.015c-0.002,0.004,-0.003,0.009,-0.003,0.015l0,0.217l-0.02,0.328l-0.059,0.305l-0.001,0.004c0,0,0,0.001,0,0.002l-0.012,0.04l-0.03,0.071l-0.013,0.019c-0.001,0.002,-0.003,0.004,-0.004,0.006l-0.025,0.037l-0.211,0.204l-0.0830002,0.053l-0.0910001,0.035l-0.0889999,0.013l-0.002,0c-0.004,0,-0.00799999,0.001,-0.012,0.002l-0.192,0.027l-0.433,-0.014l-0.059,-0.012c-0.004,-0.002,-0.00799999,-0.003,-0.013,-0.003l-0.059,-0.012l-0.11,-0.053c-0.003,-0.002,-0.006,-0.003,-0.009,-0.004l-0.103,-0.0850003l-0.055,-0.071l-0.017,-0.036c-0.001,-0.004,-0.003,-0.007,-0.005,-0.01l-0.016,-0.033L10.83,12.41c0,-0.003,-0.001,-0.006,-0.002,-0.009l-0.013,-0.056c0,-0.001,0,-0.001,0,-0.002C10.815,12.34,10.815,12.339,10.814,12.338zM11.75,11.441l-0.004,0c-0.001,0,-0.002,0,-0.003,0L11.75,11.441zM11.225,8.99402c0.001,0,0.002,0,0.003,0l-0.007,0L11.225,8.99402z"/>
    <path  fill="#FFFFFF" stroke-width="0" d="M17.378,8.93102C17.378,8.93102,17.378,8.93102,17.378,8.93102C17.379,8.93102,17.378,8.92901,17.378,8.93102c0,-0.001,0,-0.001,0,-0.001s0,0,0,0l0,0c0,0,0,0,0,0l0,0c0,0,0,0,0,0c0,0,0,0,0,0c0,0,0,0,0,0l0,0c0,0,0,0,0,0l0,0c0,0,0,0,0,0c0,0,0,0,0,0c0,0,0,0,0,0l0,0c0,0,0,0,0,0c-0.004,-0.005,-0.01,-0.01,-0.017,-0.013c0,0,0,0,0,0c0,0,0,0,0,0c0,0,0,0,0,0c-0.003,-0.001,-0.006,-0.001,-0.009,-0.002l-0.388,-0.022c-0.001,0,-0.002,0,-0.003,0l0,0c-0.002,0,-0.003,0,-0.005,0l-0.197,0.024c-0.002,0.001,-0.005,0.001,-0.00799999,0.001l-0.032,0.011c-0.002,0,-0.004,0.001,-0.007,0.002l-0.149,0.049c-0.003,0.001,-0.005,0.003,-0.00799999,0.004l-0.159,0.0910001c-0.001,0,-0.002,0.001,-0.004,0.002l-0.009,0.005c0,0,-0.001,0.001,-0.002,0.001l-0.204,0.134c-0.003,0.001,-0.005,0.003,-0.00799999,0.005l-0.04,0.026c0,0,-0.001,0.001,-0.002,0.002l-0.052,0.04c-0.003,0.002,-0.005,0.003,-0.007,0.006l-0.051,0.04c-0.001,0.001,-0.003,0.002,-0.004,0.004c-0.001,0.001,-0.001,0.001,-0.002,0.002l-0.02,0.024c-0.003,0.003,-0.006,0.006,-0.00799999,0.009l-0.053,0.064c-0.002,0.002,-0.004,0.004,-0.005,0.006l-0.002,0.003c0,0,-0.001,0.001,-0.001,0.002c0,0,0,0.001,-0.001,0.002l-0.0889999,0.136c0,0,-0.001,0.001,-0.001,0.001l-0.045,0.069c-0.001,0.001,-0.002,0.003,-0.003,0.004l-0.055,0.0830002c0,0,0,0,0,0l-0.036,0.053c-0.002,0.002,-0.003,0.005,-0.005,0.00799999l-0.01,0.015l-0.013,0.004L15.664,9.03701c0,-0.001,0,-0.003,0,-0.005c0,-0.003,-0.001,-0.006,-0.002,-0.009c-0.003,-0.00799999,-0.009,-0.015,-0.017,-0.019l0,0c0,0,0,0,0,0c0,0,0,0,0,0c0,0,-0.001,0,-0.001,-0.001c0,0,0,0,0,0C15.626,9.00101,15.625,8.99698,15.614,9c-0.001,0,-0.002,0,-0.003,0l-1.093,0.195c-0.003,0.001,-0.006,0.002,-0.007,0.002c-0.007,0.003,-0.014,0.00799999,-0.018,0.014c0,0,0,0,0,0c0,0,0,0,0,0l0,0c-0.001,0.002,-0.002,0.004,-0.003,0.007c0,0,0,0,0,0c0,0,0,0,0,0s0,0,0,0c-0.001,0.003,-0.001,0.007,-0.001,0.01l0,0.007c0,0.002,0,0.004,0,0.006s0,0.004,0,0.006l0,0.062c0,0.001,0,0.003,0,0.005s0,0.003,0,0.005l0,0.063c0,0.001,0,0.002,0,0.004s0,0.002,0,0.004l0,0.062c0,0.002,0,0.004,0,0.006c0,0.002,0,0.004,0,0.006l0,0.06c0,0.002,0,0.004,0,0.006s0,0.004,0,0.005l0,0.061c0,0.001,0,0.003,0,0.005s0,0.003,0,0.005l0,0.063c0,0.001,0,0.002,0,0.004s0,0.002,0,0.004l0,0.061c0,0.002,0,0.004,0,0.006s0,0.004,0,0.006l0,0.06c0,0.002,0,0.004,0,0.006s0,0.004,0,0.005l0,0.062c0,0.001,0,0.003,0,0.005s0,0.003,0,0.005l0,0.063c0,0.001,0,0.002,0,0.004s0,0.002,0,0.003l0,0.067c0,0.001,0,0.003,0,0.004l0,0.065c0,0.001,0,0.003,0,0.005s0,0.004,0,0.005l0,0.061c0,0.001,0,0.003,0,0.005s0,0.003,0,0.004l0,0.064c0,0.001,0,0.002,0,0.003c0,0.001,0,0.002,0,0.003l0,0.066c0,0.001,0,0.003,0,0.004l0,0.065c0,0.001,0,0.003,0,0.005s0,0.004,0,0.005l0,0.062c0,0.002,0,0.003,0,0.005s0,0.003,0,0.004l0,0.061c0,0.002,-0.001,0.004,-0.001,0.007s0,0.004,0.001,0.007l0,0.059c0,0.002,0,0.004,0,0.006s0,0.004,0,0.006l0,0.06c0,0.001,0,0.003,0,0.005s0,0.003,0,0.005l0,0.062c0,0.001,0,0.003,0,0.004s0,0.003,0,0.004l0,0.063c-0.001,0.002,-0.001,0.005,0,0.007l0,0.062c0,0.002,0,0.004,0,0.006s0,0.004,0,0.006l0,0.061c0,0.002,0,0.003,0,0.005s0,0.003,0,0.005l0,0.062c0,0.001,0,0.003,0,0.004s0,0.003,0,0.004l0,0.064c-0.001,0.003,-0.001,0.004,0,0.006l0,0.062c0,0.002,0,0.004,0,0.006s0,0.004,0,0.006l0,0.061c0,0.002,0,0.003,0,0.005s0,0.003,0,0.005l0,0.062c0,0.001,0,0.003,0,0.004s0,0.003,0,0.004l0,0.065c-0.001,0.002,-0.001,0.004,0,0.006l0,0.069l0,0c0,0,0,0,0,0l0,0.066c0,0.002,0,0.003,0,0.005s0,0.003,0,0.005l0,0.063c0,0.001,0,0.003,0,0.004s0,0.003,0,0.004l0,0.062c0,0.002,-0.001,0.004,-0.001,0.007s0,0.004,0,0.006l0,0.059c0,0.002,0,0.004,0,0.006s0,0.004,0,0.006l0,0.061c0,0.002,0,0.003,0,0.005s0,0.003,0,0.005l0,0.062c0,0.001,0,0.003,0,0.004s0,0.003,0,0.004l0,0.065c-0.001,0.002,0,0.004,0,0.006l0,0.063c0,0.002,0,0.004,0,0.006s0,0.004,0,0.006l0,0.062c0,0.001,0,0.003,0,0.005c0,0.001,0,0.003,0,0.005l0,0.063c0,0.001,0,0.002,0,0.004s0,0.002,0,0.004l0,0.064c0,0.002,0,0.004,0,0.005l0,0.064c0,0.002,0,0.004,0,0.006s0,0.004,0,0.006l0,0.061c0,0.001,0,0.003,0,0.005s0,0.003,0,0.005l0,0.06c0,0.002,-0.001,0.005,-0.001,0.007s0,0.005,0.001,0.007l0,0.059c0,0.002,0,0.004,0,0.006c0,0.002,0,0.004,0,0.006l0,0.06c0,0.002,0,0.004,0,0.006s0,0.004,0,0.005l0,0.062c0,0.001,0,0.003,0,0.005s0,0.003,0,0.005l0,0.062c0,0.001,0,0.002,0,0.004s0,0.002,0,0.004l0,0.062c0,0.002,0,0.004,0,0.006s0,0.004,0,0.006l0,0.059c0,0.002,0,0.004,0,0.006s0,0.004,0,0.005l0,0.062c0,0.001,0,0.003,0,0.005s0,0.003,0,0.005l0,0.063c0,0.001,0,0.002,0,0.004c0,0.001,0,0.002,0,0.003l0,0.062c0,0.002,0,0.004,0,0.006s0,0.004,0,0.006l0,0.061c0,0.001,0,0.003,0,0.005s0,0.004,0,0.005l0,0.062c0,0.002,0,0.003,0,0.005s0,0.003,0,0.004l0,0.063c0,0.001,0,0.002,0,0.003c0,0.001,0,0.002,0,0.003l0,0.067c0,0.001,0,0.003,0,0.004l0,0.026l0,0c0,0.019,0.016,0.035,0.034,0.036c0,0,0,0,0,0c0,0,0,0,0,0c0,0,0,0,0,0c0,0,0,0,0,0l1.181,0c0.02,0,0.036,-0.016,0.036,-0.036l0,-2.216l0.003,-0.038c0,-0.002,0.001,-0.004,0.001,-0.007l0,0l0.005,-0.062c0,-0.002,0.001,-0.005,0.001,-0.00799999c0,-0.001,0,-0.001,0,-0.002l0.005,-0.062c0.001,-0.002,0.001,-0.006,0.001,-0.009c0,-0.001,0,-0.002,0,-0.003l0.004,-0.048l0.002,-0.01c0,-0.002,0.001,-0.003,0.001,-0.005l0.017,-0.067c0,-0.001,0,-0.003,0,-0.004l0.017,-0.069c0,-0.001,0,-0.001,0,-0.002l0.016,-0.066c0.001,-0.002,0.001,-0.005,0.002,-0.007l0.059,-0.128c0.002,-0.003,0.003,-0.007,0.004,-0.01l0.039,-0.0859997l0.034,-0.045c0.001,-0.001,0.001,-0.002,0.002,-0.003l0.113,-0.147l0.188,-0.159l0.071,-0.039c0.003,-0.001,0.006,-0.003,0.009,-0.005l0.056,-0.031l0.099,-0.035c0.003,0,0.006,-0.001,0.009,-0.003l0.039,-0.014l0.153,-0.025l0.433,0l0.169,0.034c0,0,0,0,0.001,0l0.042,0.007c0.001,0,0.002,0,0.003,0c0.002,0,0.003,0,0.005,0l0.006,0c0.02,0,0.036,-0.016,0.036,-0.036L17.384,8.94499C17.381,8.94002,17.38,8.93599,17.378,8.93102L17.378,8.93102z"/>
    <path  fill="#FFFFFF" stroke-width="0" d="M22.276,13.456C22.276,13.456,22.276,13.456,22.276,13.456C22.276,13.456,22.276,13.456,22.276,13.456c-0.001,-0.004,-0.003,-0.00799999,-0.005,-0.012l-0.0750002,-0.112c-0.001,-0.002,-0.002,-0.004,-0.004,-0.005l-0.141,-0.212c0,0,-0.001,-0.001,-0.001,-0.002l-0.0940003,-0.141c-0.001,-0.002,-0.002,-0.004,-0.004,-0.006l-0.043,-0.064c-0.001,-0.003,-0.004,-0.006,-0.006,-0.009l-0.0920002,-0.138c0,-0.001,-0.001,-0.002,-0.002,-0.003l-0.189,-0.283c-0.001,-0.002,-0.002,-0.004,-0.004,-0.006l-0.045,-0.067c-0.001,-0.001,-0.001,-0.002,-0.002,-0.003l-0.0930002,-0.14c-0.001,-0.001,-0.001,-0.002,-0.002,-0.003l-0.189,-0.283c-0.001,-0.002,-0.002,-0.004,-0.004,-0.006l-0.045,-0.067c-0.001,-0.001,-0.001,-0.002,-0.002,-0.004l-0.0930002,-0.139c-0.001,-0.001,-0.002,-0.003,-0.003,-0.004l-0.188,-0.283c-0.001,-0.002,-0.003,-0.004,-0.005,-0.007l-0.042,-0.063c-0.001,-0.004,-0.004,-0.007,-0.006,-0.01l-0.042,-0.063c-0.001,-0.003,-0.003,-0.006,-0.006,-0.00799999l-0.043,-0.065c0,-0.001,-0.002,-0.003,-0.003,-0.005l-0.043,-0.065c-0.001,-0.003,-0.003,-0.006,-0.006,-0.009l-0.139,-0.208c-0.001,-0.002,-0.003,-0.005,-0.005,-0.007l-0.044,-0.066c-0.001,-0.002,-0.002,-0.004,-0.003,-0.005l-0.043,-0.065c-0.001,-0.003,-0.003,-0.006,-0.006,-0.009l-0.043,-0.064c-0.001,-0.002,-0.002,-0.004,-0.003,-0.005l-0.046,-0.069c0,0,0,0,0,-0.001l-0.017,-0.024c0,0,0.001,-0.001,0.001,-0.001l0.367,-0.359c0,0,0.001,-0.001,0.001,-0.001l0.143,-0.14c0.002,-0.001,0.004,-0.003,0.006,-0.005l0.068,-0.067c0.002,-0.001,0.003,-0.003,0.005,-0.004l0.07,-0.068c0.001,-0.001,0.002,-0.002,0.003,-0.003l0.29,-0.284c0.002,-0.001,0.003,-0.003,0.005,-0.004l0.07,-0.068c0.001,-0.001,0.002,-0.002,0.003,-0.003l0.066,-0.065c0.004,-0.002,0.007,-0.006,0.01,-0.01l0.065,-0.063c0.002,-0.002,0.005,-0.004,0.007,-0.006l0.067,-0.066c0.002,-0.001,0.004,-0.003,0.006,-0.006l0.068,-0.067c0.002,-0.001,0.003,-0.003,0.005,-0.004l0.07,-0.068c0.001,-0.001,0.002,-0.002,0.003,-0.003l0.066,-0.065c0.004,-0.002,0.007,-0.006,0.01,-0.01l0.065,-0.063c0.002,-0.002,0.005,-0.004,0.007,-0.006l0.063,-0.062c0.003,-0.003,0.006,-0.007,0.00799999,-0.011c0,0,0,0,0,0c0,0,0,0,0,0c0.002,-0.004,0.003,-0.009,0.003,-0.014c0,-0.012,-0.006,-0.022,-0.015,-0.029c-0.002,-0.001,-0.003,-0.002,-0.005,-0.003c0,0,0,0,0,0l0,0l0,0c0,0,0,0,0,0C22,9.00101,21.997,9,21.993,9c0,0,0,0,0,0c0,0,0,0,0,0c-0.001,0,-0.002,0,-0.003,0c0,0,0,0,0,0l-1.324,0l0,0c-0.009,0,-0.019,0.003,-0.025,0.011l-1.552,1.552L19.089,7.32398c0,-0.003,0,-0.005,-0.001,-0.00799999c-0.001,-0.005,-0.003,-0.01,-0.006,-0.014c-0.003,-0.004,-0.007,-0.007,-0.011,-0.01c0,0,0,0,0,0c-0.004,-0.002,-0.009,-0.003,-0.014,-0.004c0,0,0,0,0,0c-0.005,-0.002,-0.007,0,-0.01,0c0,0,0,0,0,0c-0.004,0.001,-0.007,0.002,-0.011,0.004l-0.336,0.192c-0.002,0.001,-0.005,0.002,-0.007,0.004l-0.12,0.068c-0.002,0.001,-0.004,0.002,-0.006,0.003l-0.116,0.066c-0.005,0.001,-0.009,0.004,-0.013,0.007L18.319,7.69997c-0.003,0.001,-0.007,0.003,-0.01,0.005l-0.117,0.067c-0.003,0.001,-0.006,0.003,-0.009,0.005l-0.12,0.068c-0.001,0,-0.003,0.001,-0.004,0.002l-0.123,0.07c-0.001,0,-0.002,0.001,-0.003,0.002l-0.0730001,0.042c-0.001,0.001,-0.003,0.002,-0.004,0.003c-0.004,0.003,-0.007,0.007,-0.01,0.011s-0.004,0.009,-0.004,0.014c0,0.001,0,0.002,0,0.004l0,5.478c0,0.009,0.003,0.018,0.009,0.025l0.014,0.016c0.004,0.004,0.01,0.00799999,0.016,0.01c0,0,0,0,0,0c0,0,0.001,0,0,0l0,0c0.002,0,0.006,0.001,0.01,0.001l0,0l1.173,0c0.02,0,0.036,-0.016,0.036,-0.036l0,-1.534l0.09,-0.0869998c0.002,-0.002,0.004,-0.004,0.006,-0.006l0.07,-0.068c0.001,-0.001,0.002,-0.002,0.003,-0.003l0.069,-0.067c0.002,-0.002,0.004,-0.004,0.006,-0.006l0.07,-0.067c0.001,-0.001,0.002,-0.002,0.003,-0.003l0.151,-0.147l1.088,1.794c0.001,0.003,0.003,0.005,0.005,0.00799999l0.0840002,0.138c0,0.001,0.001,0.002,0.002,0.003l0.021,0.035c0,0,0,0,0,0.001c0,0,0,0,0,0c0.003,0.005,0.00799999,0.009,0.013,0.012l0,0l0,0c0.003,0.001,0.006,0.002,0.01,0.003c0,0,0,0,0,0c0.002,0,0.005,-0.001,0.007,0l1.439,0.007c0.003,0,0.006,0,0.00799999,-0.001l0,0c0,0,0,0,0,0c0,0,0,0,0,0s0,0,0,0c0.005,-0.001,0.009,-0.003,0.013,-0.007l0,0c0.003,-0.002,0.006,-0.006,0.00799999,-0.009l0,0c0.003,-0.005,0.005,-0.011,0.005,-0.018C22.277,13.462,22.277,13.459,22.276,13.456L22.276,13.456z"/>
    <path  fill="#FFFFFF" stroke-width="0" d="M24.785,7.30202c0,0,-0.001,0,-0.002,0l0,0l-0.438,0c0,0,0,0,0,0c-0.001,0,-0.003,0.001,-0.004,0c-0.001,0,-0.002,0,-0.003,0L24.13,7.33802c-0.001,0,-0.002,0,-0.002,0l-0.0769997,0.013c-0.003,0.001,-0.005,0.001,-0.00799999,0.002l-0.27,0.103c-0.004,0,-0.005,0.002,-0.00799999,0.004l-0.245,0.155c-0.002,0.001,-0.002,0.003,-0.003,0.002c-0.001,0.001,-0.002,0.002,-0.003,0.003l-0.01,0.009C23.5,7.63301,23.498,7.63603,23.495,7.63999l-0.069,0.065c-0.001,0.001,-0.003,0.003,-0.005,0.005l-0.118,0.112c-0.001,0,-0.002,0.001,-0.002,0.002c-0.001,0.001,-0.002,0.002,-0.003,0.004l-0.069,0.0979999c-0.002,0.002,-0.003,0.004,-0.005,0.007l-0.022,0.031c0,0,-0.001,0.001,-0.001,0.002c0,0,0,0,0,0c0,0.001,-0.001,0.002,-0.001,0.003l-0.014,0.028c-0.003,0.004,-0.006,0.009,-0.007,0.015L23.15,8.07502c-0.001,0.002,-0.002,0.005,-0.003,0.00799999l-0.017,0.037c0,0,-0.001,0.001,-0.001,0.002c-0.001,0.002,-0.001,0.003,-0.002,0.005L23.12,8.15098c-0.001,0.003,-0.002,0.007,-0.002,0.01l-0.016,0.061C23.1,8.226,23.099,8.23003,23.098,8.235l-0.013,0.051c0,0.001,0,0.002,-0.001,0.004c0,0.001,0,0.002,0,0.003l0,0.00799999c0,0.002,-0.001,0.005,-0.001,0.00799999c0,0,0,0.001,0,0.002l-0.005,0.061c-0.001,0.003,-0.001,0.006,-0.001,0.01c0,0.001,0,0.002,0,0.004l-0.005,0.06C23.07,8.44798,23.07,8.451,23.07,8.45402c0,0.001,0,0.002,0,0.003l-0.005,0.062c0,0.002,-0.001,0.005,-0.001,0.00799999c0,0,0,0.001,0,0.002L23.059,8.59003c0,0.002,-0.001,0.005,-0.001,0.007c0,0,0,0.001,0,0.001l-0.005,0.065c0,0.001,0,0.003,0,0.005l-0.011,0.136c0,0.002,-0.001,0.005,-0.001,0.00799999c0,0,0,0.001,0,0.002l-0.005,0.064c0,0.002,0,0.004,0,0.006l0,0l0,0.009c0,0.001,0,0.002,0,0.004l0,0.0949997L22.68,8.99201c-0.01,0,-0.02,0.004,-0.026,0.011l-0.067,0.067c-0.003,0.002,-0.005,0.004,-0.007,0.007l-0.065,0.065c-0.003,0.002,-0.005,0.004,-0.007,0.007l-0.063,0.063c-0.004,0.002,-0.007,0.006,-0.01,0.01l-0.062,0.062c-0.004,0.002,-0.007,0.006,-0.01,0.01l-0.063,0.063c-0.003,0.002,-0.005,0.004,-0.007,0.007l-0.068,0.068c0,0,0,0,-0.001,0.001l-0.071,0.071c0,0,0,0,-0.001,0l-0.067,0.068c-0.003,0.002,-0.005,0.004,-0.007,0.007l-0.065,0.065c-0.003,0.002,-0.005,0.004,-0.007,0.007L21.94,9.71899c-0.004,0.002,-0.007,0.006,-0.01,0.01L21.899,9.76003c-0.002,0.002,-0.003,0.003,-0.005,0.006c0,0,0,0,0,0l0,0c0,0,0,0,0,0l0,0c0,0,0,0,0,0c0,0,0,0,0,0c0,0,0,0,0,0s0,0,0,0c-0.003,0.005,-0.004,0.01,-0.004,0.017c0,0.006,0.001,0.012,0.004,0.017c0,0,0,0,0,0c0,0,0,0,0,0l0,0c0,0,0,0,0,0l0,0c0,0,0,0,0,0c0,0,0,0,0,0c0,0,0,0,0,0c0,0,0,0,0,0c0,0,0,0,0,0l0,0c0,0,0,0,0,0c0.001,0.002,0.003,0.004,0.006,0.006c0.003,0.002,0.006,0.004,0.009,0.005c0,0,0,0,0,0c0,0,0,0,0,0c0,0,0,0,0,0l0,0c0,0,0,0,0,0c0,0,0,0,0,0l0,0c0,0,0,0,0,0s0,0,0,0c0,0,0,0,0,0l0,0c0,0,0,0,0,0c0,0,0,0,0,0s0,0,0,0s0,0,0,0c0.002,0,0.004,0,0.006,0l0,0l1.094,0.005l0,3.652c0,0.02,0.016,0.036,0.036,0.036l1.181,0c0.02,0,0.036,-0.016,0.036,-0.036L24.262,9.82202l0.814003,0c0.02,0,0.036,-0.016,0.036,-0.036L25.112,9.03002c0,-0.02,-0.016,-0.036,-0.036,-0.036l-0.806998,0L24.269,8.63597l0.004,-0.028c0.001,-0.003,0.001,-0.007,0.001,-0.01l0,0l0.013,-0.0920002l0.013,-0.032c0.002,-0.003,0.003,-0.006,0.004,-0.009l0.032,-0.0769997l0.052,-0.066l0.068,-0.049l0.0799999,-0.028l0.255,-0.023l0.259,0.023l0.0779998,0.00799999c0.001,0,0.003,0,0.004,0l0.022,0c0.02,0,0.036,-0.016,0.036,-0.036L25.19,7.35998c0,-0.02,-0.016,-0.036,-0.036,-0.036L24.785,7.30202z"/>
    <path  fill="#FFFFFF" stroke-width="0" d="M28.476,8.99402c-0.02,0,-0.036,0.016,-0.036,0.036l0,2.231l-0.015,0.355c0,0.001,0,0.003,0,0.005c0,0,0,0,0,0l-0.006,0.108l-0.064,0.342l-0.059,0.155l-0.0930002,0.138l-0.019,0.017c-0.003,0.002,-0.005,0.004,-0.007,0.007l-0.0959998,0.0879998l-0.145,0.0820001l-0.196,0.059l-0.204,0.02l-0.204,-0.023l-0.195,-0.062l-0.045,-0.025c-0.001,-0.001,-0.004,-0.002,-0.006,-0.003l-0.061,-0.035l-0.033,-0.029c-0.002,-0.002,-0.004,-0.004,-0.007,-0.006l-0.057,-0.05l-0.007,-0.009c-0.001,-0.003,-0.004,-0.006,-0.006,-0.009l-0.064,-0.0859997l-0.0969998,-0.217l-0.006,-0.036c0,0,0,-0.001,0,-0.002l-0.012,-0.067c0,-0.002,-0.001,-0.005,-0.001,-0.00799999l-0.011,-0.063c0,-0.003,-0.001,-0.007,-0.002,-0.011l-0.009,-0.049L26.713,9.01598c0,-0.02,-0.016,-0.036,-0.036,-0.036l-1.173,0c-0.02,0,-0.036,0.016,-0.036,0.036l0,3.06c0,0.001,0,0.002,0,0.004l0.004,0.046c0,0,0,0,0,0.001c0,0.002,0,0.005,0.001,0.007l0.005,0.062c0,0.001,0,0.001,0,0.002c0,0.003,0,0.006,0.001,0.009l0.005,0.063c0,0.001,0,0.003,0,0.005l0.01,0.114c0,0.002,0.001,0.005,0.001,0.007l0.007,0.023c0,0.002,0.001,0.004,0.001,0.006l0.019,0.068c0,0.001,0,0.002,0.001,0.003l0.019,0.065c0,0.004,0.001,0.007,0.003,0.01l0.018,0.063c0,0.003,0.001,0.006,0.002,0.009l0.015,0.053c0,0,0,0.001,0,0.001c0,0,0,0,0,0c0,0.002,0.001,0.004,0.002,0.006l0.003,0.007c0.001,0.005,0.003,0.009,0.006,0.013l0.03,0.062c0,0.002,0.002,0.005,0.003,0.007l0.031,0.063c0.001,0.004,0.003,0.00799999,0.005,0.011l0.058,0.118c0.001,0.002,0.002,0.004,0.003,0.005c0,0,0,0,0,0c0,0,0,0,0,0.001l0.121,0.161c0.001,0.001,0.002,0.003,0.004,0.005l0.047,0.063c0.002,0.004,0.005,0.009,0.009,0.012l0.005,0.007c0.002,0.002,0.004,0.004,0.006,0.006l0.058,0.052c0.003,0.004,0.007,0.00799999,0.012,0.01l0.001,0.001c0,0,0.001,0.001,0.002,0.002c-0.001,0,0.002,0.002,0.004,0.003l0.106,0.062c0.003,0.002,0.006,0.004,0.009,0.005l0.114,0.067c0.003,0.002,0.006,0.004,0.01,0.006l0.015,0.009c0.002,0.001,0.004,0.003,0.007,0.003l0.278,0.0959998c0.001,0,0.002,0.001,0.004,0.001c0,0,0,0,0,0c0.001,0,0.002,0,0.003,0l0.292,0.043c0,0,0,0,0.001,0s0,0,0,0c0.001,0,0.002,0,0.004,0c0,0,0.001,0,0.001,0l0.422,-0.009c0.001,-0.001,0.004,0,0.005,0l0.418,-0.063c0,0,0,0,0,0c0.001,0,0.003,0,0.006,-0.001l0.072,-0.023c0.002,0,0.004,-0.001,0.006,-0.002l0.069,-0.033c0.002,-0.001,0.006,-0.004,0.005,-0.003c0,0,0.001,0,0.001,0l0.226,-0.162c0.005,-0.002,0.01,-0.005,0.013,-0.009l0.023,-0.017c0.003,-0.004,0.003,-0.003,0.005,-0.004l0.048,-0.046c0.003,-0.002,0.006,-0.004,0.00799999,-0.007l0.069,-0.066c0.002,-0.001,0.004,-0.003,0.006,-0.006l0.102,-0.0959998c0.004,-0.004,0.003,-0.003,0.004,-0.005l0.143,-0.181l0,0.583c0,0.02,0.017,0.036,0.036,0.036l1.138,0c0.02,0,0.036,-0.016,0.036,-0.036L29.695,9.03002c0,-0.02,-0.017,-0.036,-0.036,-0.036L28.476,8.99402z"/>
    <path  fill="#FFFFFF" stroke-width="0" d="M34.542,10.134l-0.068,-0.312c0,-0.002,-0.001,-0.004,-0.002,-0.006L34.469,9.81c0,-0.001,-0.001,-0.002,-0.001,-0.003L34.443,9.74002c-0.001,-0.002,-0.002,-0.005,-0.003,-0.007l-0.044,-0.116c-0.001,-0.001,-0.002,-0.003,-0.003,-0.005c0,0,0,0,0,-0.001L34.38,9.58997c-0.001,-0.002,-0.002,-0.004,-0.003,-0.006l-0.024,-0.041c-0.01,-0.017,-0.02,-0.033,-0.029,-0.049l-0.04,-0.067c-0.001,-0.001,-0.002,-0.003,-0.003,-0.004c0,0,-0.001,-0.001,-0.001,-0.002l-0.103,-0.12c-0.003,-0.005,-0.007,-0.009,-0.011,-0.012l-0.025,-0.029c0,-0.001,-0.001,-0.001,-0.001,-0.002c-0.002,-0.001,-0.003,-0.003,-0.005,-0.004l-0.04,-0.032c-0.003,-0.003,-0.007,-0.006,-0.011,-0.009l-0.081,-0.064C34,9.14602,33.999,9.14501,33.995,9.14299l-0.081,-0.064c-0.001,-0.001,-0.002,-0.001,-0.003,-0.002c-0.002,-0.001,-0.003,-0.002,-0.005,-0.003l-0.0869998,-0.041c-0.027,-0.014,-0.054,-0.026,-0.0820001,-0.038l-0.0859997,-0.04c-0.001,0,-0.001,-0.001,-0.002,-0.001l0,0c-0.001,0,-0.001,0,-0.001,0c-0.002,0,-0.004,-0.001,-0.006,-0.002l-0.276,-0.058c-0.001,0,-0.001,0,-0.002,0c-0.002,0,-0.004,0,-0.006,0l-0.567,-0.014L32.79,8.87998c-0.001,0,-0.001,0,-0.001,0l0,0l-0.001,0l0,0c-0.001,0,-0.002,0,-0.004,0l-0.297,0.043c-0.003,0,-0.004,0.001,-0.01,0.002l-0.0920002,0.035c-0.033,0.011,-0.064,0.023,-0.0969998,0.036l-0.0920002,0.034c-0.006,0.002,-0.007,0.003,-0.00799999,0.004l-0.254,0.16l-0.001,0.001c-0.001,0,-0.002,0.001,-0.003,0.001l0,0c0,0,-0.001,0,-0.002,0.001l-0.13,0.118c-0.003,0.003,-0.004,0.003,-0.005,0.004l-0.112,0.133c0,0.001,-0.001,0.001,-0.002,0.002l-0.0789998,0.107l-0.018,0.022l0,0L31.57,9.60098l-0.012,0.007L31.558,9.02203c0,-0.02,-0.017,-0.036,-0.036,-0.036l-1.145,0c-0.02,0,-0.036,0.016,-0.036,0.036l0,4.457c0,0.02,0.017,0.036,0.036,0.036l1.195,0c0.02,0,0.036,-0.016,0.036,-0.036l0,-2.463l0,-0.191l0,-0.003c0.003,-0.145,0.031,-0.287,0.081,-0.422l0.015,-0.03c0.053,-0.125,0.131,-0.242,0.237,-0.334c0.054,-0.046,0.115,-0.081,0.18,-0.109c0.003,-0.001,0.005,-0.002,0.00799999,-0.003l0.036,-0.015c0.067,-0.024,0.137,-0.041,0.208,-0.044l0,0l0.002,0l0.312,-0.014l0.09,0.004l0.0850003,0.022l0.0910001,0.044c0.004,0.003,0.009,0.006,0.015,0.007l0.019,0.009l0.06,0.05c0.003,0.004,0.007,0.007,0.012,0.01l0.033,0.028l0.023,0.029c0.002,0.003,0.004,0.007,0.007,0.009l0.047,0.061c0.002,0.005,0.006,0.009,0.009,0.012l0.001,0.001c0.045,0.0760003,0.0760003,0.158,0.103,0.242l0.02,0.069c0.021,0.0820001,0.033,0.166,0.034,0.25l0.002,2.75c0,0.02,0.017,0.036,0.036,0.036l1.159,0c0.02,0,0.036,-0.016,0.036,-0.036l0,-2.987l0,0c0,-0.001,0,-0.001,0,-0.003l-0.025,-0.32C34.542,10.138,34.542,10.136,34.542,10.134zM32.534,9.78602c-0.001,0,-0.003,0,-0.004,0l0.016,0L32.534,9.78602z"/>
    <path  fill="#FFFFFF" stroke-width="0" d="M40.255,11.723c-0.002,0,-0.004,0,-0.006,0l-0.001,0c0,0,0,0,0,0c-0.007,0.001,-0.013,0.004,-0.019,0.009c0,0,0,0,0,0c-0.002,0.002,-0.005,0.005,-0.006,0.00799999c0,0,0,0,0,0c0,0,0,0,-0.001,0c-0.002,0.004,-0.003,0.00799999,-0.004,0.012l-0.011,0.0730001c-0.001,0.004,-0.002,0.007,-0.002,0.011l-0.017,0.107l-0.006,0.019c-0.002,0.003,-0.004,0.007,-0.004,0.012l-0.045,0.132c-0.002,0.004,-0.004,0.00799999,-0.005,0.013l-0.0920002,0.171l-0.103,0.123l-0.125,0.099l-0.019,0.009c-0.005,0.001,-0.01,0.004,-0.014,0.007l-0.118,0.059L39.5,12.638l-0.166,0.021l-0.229,-0.011l-0.22,-0.051l-0.201,-0.0940003l-0.14,-0.112c-0.003,-0.003,-0.006,-0.005,-0.01,-0.00799999l-0.022,-0.018l-0.0859997,-0.112c-0.002,-0.002,-0.004,-0.004,-0.005,-0.006l-0.044,-0.057l-0.0889999,-0.204l-0.0979999,-0.431l-0.037,-0.443l0.022,-0.275c0.001,-0.002,0.001,-0.004,0.001,-0.006l0.003,-0.042l0.063,-0.229c0.002,-0.004,0.003,-0.00799999,0.004,-0.013l0.017,-0.062c0.001,-0.002,0.002,-0.005,0.002,-0.007l0.145,-0.292l0.0910001,-0.122c0.002,-0.002,0.003,-0.004,0.005,-0.006l0.048,-0.065c0.003,-0.002,0.006,-0.006,0.00799999,-0.009l0.042,-0.056l0.0879998,-0.0740002c0.003,-0.002,0.006,-0.004,0.009,-0.007l0.119,-0.054l0.232,-0.051l0.239,-0.019l0.234,0.025l0.226,0.0730001l0.139,0.0840002l0.014,0.012c0.002,0.003,0.005,0.006,0.00799999,0.00799999l0.065,0.063c0.002,0.004,0.006,0.007,0.01,0.01l0.021,0.02l0.024,0.038c0.001,0.002,0.002,0.004,0.004,0.006l0.042,0.066c0.001,0.002,0.002,0.004,0.004,0.006l0.014,0.021l0.013,0.035c0.001,0.003,0.002,0.007,0.003,0.009l0.023,0.064c0.001,0.003,0.002,0.005,0.003,0.00799999l0.014,0.037l0.002,0.02c0,0.002,0,0.003,0.001,0.005l0.007,0.064c0,0,0,0.001,0,0.002c0,0.003,0.001,0.007,0.002,0.01l0.007,0.064l0,0.005c0,0.02,0.017,0.036,0.036,0.036l1.188,0c0.007,0,0.014,-0.002,0.019,-0.005c0.001,0,0.001,0,0.001,0c0.002,-0.001,0.004,-0.003,0.006,-0.005c0.005,-0.005,0.00799999,-0.011,0.01,-0.017c0,0,0,0,0,0c0.001,-0.004,0.001,-0.00799999,0.001,-0.012c0,-0.001,-0.001,-0.002,-0.001,-0.003L41.4,10.321c-0.001,-0.002,-0.001,-0.004,-0.001,-0.006l-0.037,-0.187c0,-0.001,0,-0.002,0,-0.003c-0.001,-0.001,-0.001,-0.003,-0.002,-0.004l-0.062,-0.167c0,-0.001,-0.001,-0.002,-0.001,-0.003l-0.051,-0.136c0,-0.005,-0.002,-0.01,-0.005,-0.014L41.24,9.79603c-0.001,-0.001,-0.001,-0.002,-0.002,-0.003c0,-0.001,-0.001,-0.003,-0.002,-0.004l-0.03,-0.051c-0.002,-0.005,-0.005,-0.01,-0.00799999,-0.014L41.117,9.58997c-0.001,-0.002,-0.002,-0.004,-0.003,-0.006l-0.041,-0.068c0,0,0,0,-0.001,-0.001l-0.017,-0.028c0,0,-0.001,-0.001,-0.001,-0.001c0,0,0,0,0,0c-0.002,-0.002,-0.003,-0.004,-0.005,-0.005l-0.241,-0.255c0,0,-0.001,0,-0.001,-0.001c-0.002,-0.002,-0.004,-0.003,-0.006,-0.004c-0.003,-0.003,-0.006,-0.005,-0.01,-0.007l-0.204,-0.138c-0.002,-0.002,-0.005,-0.004,-0.007,-0.005l-0.07,-0.047c-0.002,-0.003,-0.007,-0.004,-0.00799999,-0.004l-0.327,-0.129c-0.001,0,-0.002,-0.001,-0.004,-0.001c-0.001,0,-0.002,0,-0.002,0L39.77,8.79602c-0.001,0,-0.003,0,-0.004,0l-0.129,-0.017c-0.003,0,-0.005,-0.001,-0.00799999,-0.001l-0.269,-0.035c0,0,0,0,-0.001,0c-0.002,-0.001,-0.005,0,-0.005,0l-0.437,0.006c-0.002,0,-0.004,0,-0.007,0l0,0l-0.001,0l-0.13,0.029c-0.002,0,-0.004,0,-0.006,0.001l-0.291,0.064c-0.002,0,-0.003,0.001,-0.009,0.002l-0.013,0.006c-0.001,0,-0.002,0.001,-0.003,0.001l-0.376,0.165c-0.001,0,-0.002,0.001,-0.003,0.001c0,0,0,0,-0.001,0c-0.001,0.001,-0.002,0.002,-0.004,0.002L38.008,9.06998C38.005,9.07099,38.003,9.07301,38,9.07502l-0.0959998,0.066c-0.003,0.002,-0.007,0.004,-0.01,0.007l-0.0910001,0.063c-0.006,0.002,-0.011,0.005,-0.014,0.01l-0.068,0.047c0,0,-0.001,0,-0.001,0.001c0.001,0.003,-0.004,0.003,-0.005,0.004l-0.016,0.016c-0.002,0.002,-0.005,0.004,-0.007,0.007l-0.065,0.067c-0.001,0.001,-0.002,0.002,-0.003,0.003L37.417,9.58003c-0.001,0.002,-0.003,0.005,-0.003,0.004c-0.001,0,-0.002,0.001,-0.002,0.002L37.271,9.79999c0,0.001,-0.001,0.002,-0.002,0.003l-0.043,0.066c-0.003,0.003,-0.005,0.006,-0.007,0.01l-0.043,0.066c-0.004,0.001,-0.002,0.002,-0.002,0.002c-0.001,0.002,-0.002,0.004,-0.002,0.006l-0.0859997,0.209c-0.002,0.003,-0.004,0.007,-0.005,0.011l-0.025,0.063c-0.002,0.002,-0.003,0.005,-0.003,0.007l-0.026,0.063c-0.002,0.003,-0.003,0.006,-0.004,0.009l-0.014,0.033c-0.001,0.002,-0.001,0.004,-0.002,0.007c0,0,0,0,0,0.001l-0.006,0.03C37,10.389,37,10.391,37,10.394l-0.013,0.065c-0.001,0.002,-0.001,0.005,-0.002,0.00799999l-0.013,0.063c-0.001,0.003,-0.002,0.006,-0.002,0.009l-0.048,0.239c0,0,0,0.001,0,0.002c0,0,0,0,-0.001,0c0,0.001,0,0.003,0,0.004l-0.003,0.109c-0.001,0.002,-0.001,0.004,-0.001,0.006c0,0.001,0,0.003,0,0.004l-0.002,0.063c0,0.001,0,0.003,0,0.004c0,0.001,0,0.001,0,0.002l-0.009,0.281c0,0.001,0,0.003,0,0.004c0,0.001,0,0.001,0,0.002l-0.006,0.207C36.9,11.473,36.9,11.475,36.9,11.478c0,0.001,0,0.003,0,0.004l0,0.007c0,0.001,0,0.003,0,0.005c0,0,0,0,0,0c0,0,0,0.001,0,0.001l0.041,0.346c0.001,0.002,0.001,0.004,0.002,0.006l0.0959998,0.333l0,0c0,0,0,0,0,0c0,0.002,0.001,0.003,0.002,0.005l0.009,0.02c0.001,0.005,0.003,0.01,0.007,0.014l0.026,0.058c0.001,0.004,0.003,0.009,0.006,0.012l0.0969998,0.209c0.001,0.001,0.002,0.002,0.002,0.004c0.001,0,0.001,0.001,0.002,0.002l0.0940003,0.14c0.001,0.003,0.003,0.005,0.005,0.007l0.046,0.068c0,0,0,0,0.001,0.001l0.047,0.07c0,0,0,0,0,0c0.001,0,0.001,0,0.001,0s0,0,0,0c0,0,0,0,0,0c0,0,0,0,0.001,0l0,0c0,0,0,0,0,0s0,0,0,0l0.001,0c0,0.001,0.001,0.001,0.001,0.002l0.066,0.071c0.001,0.001,0.001,0.001,0.002,0.002l0.149,0.159c0.001,0.002,0.003,0.003,0.005,0.005l0.161,0.123c0.003,0.003,0.006,0.005,0.009,0.007l0.0830002,0.063c0.001,0,0.001,0,0.001,0.001c0,0,0,0,0.001,0c0.001,0.001,0.003,0.002,0.004,0.003l0.004,0.002c0.004,0.002,0.00799999,0.005,0.012,0.006l0.125,0.065c0.003,0.003,0.00799999,0.005,0.013,0.007l0.129,0.068c0.003,0.002,0.004,0.002,0.007,0.003l0.212,0.071c0.003,0.001,0.006,0.002,0.00799999,0.002l0.0820001,0.027c0.001,0.001,0.003,0.001,0.005,0.002l0.443,0.0799999c0.001,0,0.003,0,0.005,0.001l0.449,0.028c0.001,0,0.002,0,0.003,0l0.001,0c0.001,0,0.002,0,0.002,0l0.334,-0.026c0.002,0,0.003,0,0.004,0s0.001,0,0.001,0c0,0,0.001,0,0.002,-0.001l0.326,-0.0799999c0.001,0,0.002,0,0.003,-0.001c0.002,0,0.003,-0.001,0.004,-0.001l0.309,-0.13c0.001,0,0.002,0,0.003,-0.001l0,0c0.001,0,0.003,-0.001,0.004,-0.002l0.06,-0.04c0.005,-0.002,0.00799999,-0.004,0.011,-0.007l0.101,-0.066c0.003,-0.001,0.006,-0.003,0.00799999,-0.005l0.174,-0.114c0.002,-0.001,0.005,-0.003,0.007,-0.005l0.024,-0.025c0.001,-0.001,0.003,-0.002,0.004,-0.004l0.209,-0.21c0.003,-0.002,0.006,-0.005,0.00799999,-0.00799999l0.053,-0.053c0,-0.001,0.001,-0.001,0.002,-0.002c0.001,-0.002,0.002,-0.003,0.003,-0.005l0.00799999,-0.011c0.001,-0.002,0.003,-0.004,0.004,-0.007l0.041,-0.062c0.003,-0.003,0.005,-0.007,0.007,-0.011l0.04,-0.062c0.003,-0.003,0.005,-0.006,0.007,-0.01l0.04,-0.062c0.003,-0.003,0.005,-0.006,0.007,-0.01l0.041,-0.063c0.002,-0.003,0.004,-0.006,0.006,-0.009l0.03,-0.047c0,-0.001,0.001,-0.002,0.002,-0.003c0,-0.001,0.001,-0.003,0.002,-0.005l0.032,-0.0830002c0.003,-0.005,0.006,-0.01,0.007,-0.016l0.023,-0.061c0.001,-0.002,0.002,-0.004,0.002,-0.006l0.025,-0.063c0.002,-0.003,0.003,-0.007,0.004,-0.011l0.024,-0.061c0.002,-0.003,0.003,-0.007,0.004,-0.011l0.031,-0.0799999c0.001,-0.002,0.001,-0.004,0.002,-0.006c0,0,0,0,0,-0.001l0.027,-0.132c0,-0.001,0,-0.002,0.001,-0.003c0,-0.001,0,-0.002,0,-0.003l0.00799999,-0.134c0,0,0,0,0,0c0,0,0,0,0,0c0,0,0,-0.001,0,-0.001l0,-0.013c0,-0.02,-0.017,-0.036,-0.036,-0.036L40.255,11.719z"/>
    <path  fill="#FFFFFF" stroke-width="0" d="M54,10.169l-0.042,-0.276c0,-0.003,-0.001,-0.007,-0.002,-0.01l-0.003,-0.023c-0.001,-0.001,-0.001,-0.002,-0.001,-0.003c0,0,0,0,0,0c-0.001,-0.001,-0.001,-0.003,-0.002,-0.005l-0.014,-0.038c-0.001,-0.003,-0.002,-0.006,-0.003,-0.00799999l-0.0769997,-0.208c-0.001,-0.003,-0.002,-0.006,-0.003,-0.00799999l-0.012,-0.031c-0.001,-0.002,-0.002,-0.003,-0.003,-0.005c0,-0.001,-0.001,-0.002,-0.001,-0.002l-0.156,-0.249c-0.001,-0.002,-0.002,-0.004,-0.004,-0.006L53.67,9.28498c0,0,0,-0.001,-0.001,-0.001l0,0c-0.001,-0.001,-0.003,-0.003,-0.004,-0.005l-0.05,-0.051c-0.003,-0.005,-0.007,-0.009,-0.012,-0.012l-0.061,-0.062c-0.002,-0.003,-0.005,-0.005,-0.00799999,-0.00799999l-0.052,-0.053c-0.001,-0.001,-0.002,-0.002,-0.003,-0.003c-0.002,-0.001,-0.003,-0.002,-0.005,-0.003l-0.013,-0.009c-0.004,-0.004,-0.009,-0.007,-0.014,-0.009l-0.191,-0.126c-0.002,-0.001,-0.004,-0.002,-0.006,-0.003l-0.001,0l-0.001,0l-0.036,-0.014l-0.188,-0.071c-0.002,-0.001,-0.004,-0.002,-0.007,-0.002l-0.014,-0.006c-0.001,0,-0.002,0,-0.003,0l0,0c-0.002,0,-0.003,0,-0.005,-0.001L52.675,8.77997c-0.004,-0.001,-0.00799999,-0.002,-0.012,-0.002l-0.021,-0.004c-0.001,0,-0.002,0,-0.002,0L52.64,8.77399c-0.001,0,-0.002,0,-0.002,0l-0.362,-0.03c-0.001,0,-0.003,0,-0.004,0l-0.001,0c-0.001,0,-0.001,0,-0.002,0l-0.252,0.017c-0.002,0,-0.005,0.001,-0.00799999,0.001l-0.066,0.018c-0.002,0,-0.005,0.001,-0.007,0.002l-0.171,0.045c-0.004,0.002,-0.005,0.002,-0.00799999,0.003L51.53,8.93902c-0.002,0.002,-0.004,0.002,-0.006,0.004L51.348,9.06998c-0.003,0.001,-0.006,0.003,-0.00799999,0.005l-0.067,0.048c-0.001,0.001,-0.002,0.002,-0.003,0.003c0,0,0,0,-0.001,0c0,0,0,0.001,-0.001,0.001l-0.02,0.019c-0.001,0.001,-0.002,0.002,-0.003,0.004l-0.067,0.064c-0.005,0.003,-0.009,0.006,-0.012,0.011l-0.064,0.062c-0.004,0.003,-0.00799999,0.006,-0.01,0.01l-0.047,0.045c-0.001,0,-0.001,0.001,-0.002,0.001l-0.019,0.02c-0.001,0.001,-0.002,0.002,-0.003,0.003l-0.119,0.125l-0.026,-0.045c-0.001,-0.001,-0.001,-0.003,-0.003,-0.005l-0.0779998,-0.136c0,-0.002,-0.003,-0.004,-0.005,-0.006l-0.002,-0.003c-0.001,-0.002,-0.003,-0.003,-0.005,-0.005L50.626,9.11002c0,0,0,0,0,0c-0.002,-0.002,-0.004,-0.003,-0.006,-0.005l-0.038,-0.03c-0.002,-0.001,-0.003,-0.002,-0.004,-0.003l-0.155,-0.121c-0.002,-0.001,-0.004,-0.003,-0.004,-0.003c-0.001,0,-0.002,-0.001,-0.003,-0.001l-0.223,-0.114c0.001,-0.001,-0.005,-0.002,-0.00799999,-0.003l-0.175,-0.05c-0.002,0,-0.004,-0.001,-0.006,-0.001l-0.0789998,-0.022c-0.002,-0.001,-0.005,-0.001,-0.007,-0.001c-0.001,0,-0.001,0,-0.002,0l-0.27,-0.019c-0.001,0,-0.002,0,-0.003,0c-0.002,0,-0.003,0,-0.004,0l-0.389,0.036c-0.002,0,-0.004,0,-0.006,0.001l-0.025,0.006c-0.003,0,-0.006,0.001,-0.00799999,0.002l-0.275,0.064c-0.001,0.001,-0.004,0.001,-0.00799999,0.002l-0.011,0.005c-0.003,0.001,-0.006,0.002,-0.00799999,0.003L48.679,8.95997c-0.002,0,-0.005,0.002,-0.009,0.006l-0.132,0.106c-0.001,0.001,-0.003,0.002,-0.004,0.004l-0.0789998,0.063c0,0,-0.001,0.001,-0.002,0.002c-0.001,0.001,0,0,-0.002,0.001l-0.004,0.004c-0.002,0.001,-0.003,0.003,-0.005,0.005l-0.062,0.063c-0.005,0.003,-0.009,0.007,-0.012,0.012l-0.06,0.062c-0.003,0.002,-0.006,0.005,-0.00799999,0.00799999l-0.065,0.067c0,0,-0.001,0,-0.001,0c-0.001,0.001,-0.002,0.002,-0.003,0.003L48.18,9.43798c-0.002,0.001,-0.003,0.003,-0.004,0.005l-0.028,0.037L48.14,9.48103L48.14,8.89898c0,-0.02,-0.017,-0.036,-0.036,-0.036l-1.131,0c-0.02,0,-0.036,0.016,-0.036,0.036l0,4.551c0,0.02,0.017,0.036,0.036,0.036l1.225,0c0.02,0,0.036,-0.016,0.036,-0.036l0,-2.778c0,-0.001,0,-0.002,0,-0.003l-0.007,-0.126c0,0,0,0,0,-0.001c0,-0.001,0,-0.003,0,-0.005l-0.003,-0.045l0.001,-0.005c0.003,-0.005,0.005,-0.011,0.005,-0.017c0,0,0,-0.001,0,-0.002l0.013,-0.056c0.002,-0.004,0.003,-0.00799999,0.003,-0.012l0.017,-0.0730001l0.081,-0.152l0.0959998,-0.112c0.001,0,0.001,0,0.001,-0.001l0.062,-0.07c0.001,-0.001,0.001,-0.002,0.002,-0.002l0.06,-0.069c0.001,-0.001,0.002,-0.002,0.003,-0.003l0.109,-0.0840002L48.79,9.77998l0.124,-0.023l0.241,-0.014l0.134,0.009l0.108,0.032c0.001,0,0.002,0,0.003,0.001l0.018,0.005l0.116,0.067l0.0979999,0.09l0.104,0.155l0.065,0.175l0.022,0.189l0,2.993c0,0.02,0.017,0.036,0.036,0.036l1.225,0c0.02,0,0.036,-0.016,0.036,-0.036l0,-2.699l0.01,-0.141c0,-0.001,0,-0.002,0,-0.004l0.005,-0.069c0,-0.001,0,-0.002,0,-0.003l0.005,-0.069c0,-0.001,0,-0.002,0,-0.003l0.026,-0.133c0.002,-0.003,0.002,-0.006,0.003,-0.009l0.015,-0.062c0,-0.001,0,-0.001,0,-0.002l0.062,-0.133c0.002,-0.003,0.003,-0.007,0.005,-0.01l0.011,-0.024l0.021,-0.029c0.005,-0.004,0.009,-0.009,0.011,-0.016l0.045,-0.061c0.002,-0.002,0.004,-0.004,0.005,-0.007l0.026,-0.036l0.0920002,-0.081l0.104,-0.06l0.115,-0.036l0.257,-0.027l0.255,0.019L52.321,9.79999l0.115,0.064l0.06,0.054c0.001,0.001,0.003,0.003,0.005,0.004l0.033,0.03l0.02,0.028c0.001,0.003,0.003,0.007,0.006,0.009l0.043,0.064c0.002,0.002,0.003,0.005,0.005,0.007l0.0889999,0.233l0.03,0.25l0,2.914c0,0.02,0.017,0.036,0.036,0.036l1.202,0c0.02,0,0.036,-0.016,0.036,-0.036l0,-3.283C54,10.173,54.001,10.171,54,10.169z"/>
   </g>
  </g>
  <g  id="sfe-logo-flame" stroke-width="0" transform="matrix(1, 0, 0, 1, 61.9051, 64.3318)">
   <g  stroke-width="0">
    <title >element:JP2</title>
    <g  stroke-width="0">
     <title >package:SFE-LOGO-FLAME</title>
     <title >polygon</title>
    </g>
   </g>
   <path  fill="#FFFFFF" stroke-width="0" d="M5.357,3.235c0,-0.001,0,-0.002,0,-0.003c0,-0.001,0,-0.003,0,-0.005L5.355,3.166c0,-0.001,0,-0.003,0,-0.004c0,-0.002,0,-0.004,-0.001,-0.007L5.349,2.947c0,-0.001,0,-0.001,0,-0.002c0,-0.001,0,-0.003,0,-0.005L5.343,2.757c0,-0.001,0,-0.001,0,-0.002c0,0,0,0,0,0c0,-0.001,-0.001,-0.003,-0.001,-0.005L5.336,2.724c0,-0.001,0,-0.003,0,-0.004L5.294,2.512c0,-0.004,-0.001,-0.009,-0.003,-0.013L5.282,2.457c0,-0.001,0,-0.003,-0.001,-0.005c0,0,0,0,0,0l0,0L5.276,2.437C5.275,2.431,5.273,2.425,5.271,2.42L5.249,2.359C5.248,2.358,5.247,2.356,5.247,2.354L5.181,2.168c0,0,-0.001,-0.001,-0.001,-0.002C5.179,2.165,5.179,2.163,5.178,2.162L5.165,2.138C5.164,2.136,5.163,2.135,5.162,2.133L5.088,1.996C5.087,1.993,5.086,1.99,5.084,1.988L5.049,1.922C5.048,1.92,5.047,1.918,5.046,1.917l-0.01,-0.019C5.035,1.897,5.035,1.896,5.034,1.896C5.033,1.894,5.032,1.893,5.031,1.892L4.823,1.631C4.821,1.627,4.819,1.625,4.816,1.622L4.775,1.571C4.774,1.57,4.774,1.569,4.773,1.568C4.772,1.567,4.771,1.565,4.77,1.564L4.665,1.479C4.663,1.478,4.662,1.476,4.66,1.475L4.579,1.409c-0.003,-0.003,-0.006,-0.006,-0.01,-0.00799999L4.492,1.338c-0.003,-0.004,-0.00799999,-0.00799999,-0.013,-0.01L4.45,1.304c-0.00799999,-0.006,-0.019,-0.01,-0.024,-0.00799999L4.425,1.296c-0.005,0,-0.009,0.002,-0.013,0.004c-0.001,0,-0.001,0,-0.001,0c-0.004,0.002,-0.007,0.005,-0.01,0.00799999c0,0,0,0,0,0c0,0,0,0,-0.001,0c0,0,0,0,0,0c0,0,0,0,-0.001,0C4.398,1.311,4.397,1.312,4.396,1.314l0,0c0,0,0,0,0,0c0,0,-0.001,0,-0.001,0s0,0,0,0C4.393,1.321,4.392,1.327,4.392,1.333l0,0.245L4.387,1.615L4.38,1.632C4.379,1.634,4.378,1.636,4.378,1.638L4.335,1.694C4.332,1.697,4.33,1.7,4.328,1.703l-0.03,0.038l-0.03,0.021C4.266,1.763,4.264,1.764,4.262,1.766L4.195,1.812L4.146,1.83L3.993,1.847L3.844,1.818L3.705,1.748L3.53,1.621C3.529,1.62,3.527,1.619,3.525,1.618L3.449,1.562L3.353,1.48C3.352,1.479,3.35,1.477,3.348,1.476l-0.06,-0.064C3.288,1.41,3.287,1.409,3.285,1.407l-0.051,-0.06C3.232,1.343,3.229,1.339,3.226,1.335L3.153,1.217L3.148,1.206c0,-0.002,-0.001,-0.004,-0.002,-0.005L3.119,1.134C3.118,1.132,3.117,1.129,3.116,1.127l-0.021,-0.05l0,-0.003c0,-0.005,-0.001,-0.009,-0.002,-0.013L3.078,0.992002l0.003,-0.0859997l0.044,-0.146l0.015,-0.025c0.001,-0.001,0.002,-0.003,0.003,-0.005l0.062,-0.101l0.11,-0.103c0.001,0,0.002,-0.001,0.002,-0.002l0.136,-0.072l0.139,-0.039l0.145,-0.016l0.171,0c0.005,0,0.011,-0.001,0.015,-0.003c0.001,0,0.001,0,0.001,0l0,0c0.001,0,0.001,0,0.001,0l0,0c0.003,-0.001,0.005,-0.003,0.007,-0.005c0.005,-0.003,0.00799999,-0.00799999,0.01,-0.013l0,0l0,0c0.002,-0.003,0.002,-0.006,0.003,-0.01c0,-0.00799999,-0.002,-0.016,-0.006,-0.022l0,0c0,0,-0.001,0,-0.001,0C3.938,0.339,3.938,0.337,3.937,0.336L3.93,0.33c0,-0.001,-0.001,-0.001,-0.001,-0.002L3.928,0.328C3.927,0.325,3.927,0.325,3.924,0.324L3.802,0.229C3.798,0.224,3.795,0.224,3.793,0.224L3.65,0.162l0,0c0,0,0,0,-0.001,0l-0.1,-0.042L3.521,0.105C3.519,0.104,3.517,0.103,3.514,0.103L3.485,0.0889999c-0.002,0,-0.004,-0.001,-0.006,-0.002c0,0,0,0,0,0l0,0L3.253,0.031C3.25,0.03,3.246,0.029,3.242,0.029L3.231,0.026C3.229,0.025,3.226,0.025,3.225,0.025L2.97,0C2.969,0,2.967,0,2.966,0l0,0C2.965,0,2.963,0,2.962,0L2.717,0.019c0,0,-0.001,0,-0.001,0c-0.002,0,-0.005,0,-0.007,0.001L2.678,0.029c-0.003,0,-0.007,0.001,-0.01,0.003L2.473,0.0850003C2.47,0.0859997,2.468,0.09,2.465,0.0879998L2.288,0.177c0,0,0,0,-0.001,0L2.245,0.198c-0.001,0,-0.001,0,-0.002,0.001c0,0,0,0,0,0C2.242,0.2,2.24,0.201,2.239,0.202L2.02,0.359C2.018,0.36,2.017,0.361,2.015,0.363L1.829,0.54C1.827,0.541,1.825,0.543,1.823,0.545L1.818,0.55c0,0.001,-0.001,0.002,-0.002,0.002C1.815,0.553,1.814,0.555,1.813,0.556L1.716,0.691c0,0,0,0,0,0.001L1.692,0.725998C1.691,0.726998,1.69,0.727999,1.69,0.729C1.688,0.731002,1.688,0.733003,1.687,0.734998L1.673,0.770998c0,0.001,-0.001,0.002,-0.001,0.004L1.646,0.841003c0,0.001,-0.001,0.003,-0.002,0.005L1.612,0.930002C1.611,0.931997,1.611,0.933998,1.61,0.936c0,0.001,0,0.002,0,0.004L1.584,1.147c0,0.001,0,0.003,0,0.004c0,0.002,0,0.004,0,0.006l0.00799999,0.059c0,0.003,0,0.006,0.001,0.009l0.00799999,0.061c0,0,0,0.001,0,0.002c0,0.004,0.001,0.00799999,0.002,0.012l0.009,0.063c0,0.001,0,0.002,0,0.004c0,0.002,0.001,0.003,0.002,0.005l0,0c0,0,0,0,0,0L1.643,1.44c0.001,0.004,0.002,0.00799999,0.004,0.012l0.025,0.063c0,0.002,0.001,0.005,0.003,0.007l0.019,0.046c0,0.002,0.001,0.004,0.003,0.006c0,0,0,0.001,0.001,0.002l0.157,0.233c0.001,0.003,0.003,0.005,0.005,0.00799999l0.043,0.064C1.906,1.884,1.908,1.887,1.91,1.889L2,2.022c0.002,0.005,0.004,0.009,0.00799999,0.012l0.026,0.039c0.002,0.003,0.003,0.004,0.004,0.005l0.022,0.024c0.001,0.002,0.003,0.004,0.006,0.006l0.062,0.066C2.13,2.176,2.132,2.178,2.133,2.179l0.13,0.139C2.266,2.32,2.268,2.323,2.271,2.325l0.062,0.066c0.001,0.002,0.003,0.003,0.005,0.005l0.064,0.068c0,0,0.001,0.001,0.001,0.001l0.122,0.139c0.002,0.002,0.004,0.004,0.006,0.006l0.023,0.027l0.068,0.142L2.64,2.874c0,0.004,0.001,0.007,0.002,0.011l0.01,0.052L2.639,3.094L2.587,3.242L2.498,3.373L2.377,3.476L2.223,3.56L2.057,3.615L1.884,3.644l-0.201,-0.01L1.676,3.631c-0.001,0,-0.002,0,-0.003,0L1.49,3.574L1.354,3.492C1.352,3.49,1.35,3.489,1.347,3.488L1.319,3.471L1.231,3.377L1.172,3.263L1.148,3.158c0,-0.003,-0.001,-0.006,-0.002,-0.009l0,-0.124c0,-0.001,0,-0.002,0,-0.003l0.026,-0.115l0.021,-0.04l0.033,-0.032L1.23,2.832C1.232,2.831,1.234,2.83,1.236,2.828l0.224,-0.162l0.038,-0.021l0.039,-0.00799999l0.044,0.004c0.001,0,0.002,0,0.003,0c0.019,0,0.034,-0.014,0.036,-0.033c0.001,-0.012,-0.003,-0.023,-0.012,-0.03l0,0l0,0c0,0,0,0,0,0l0,0c0,0,0,0,0,0c0,0,0,0,0,0s0,0,0,0c0,0,0,0,0,0s0,0,0,0s0,0,0,0l0,0C1.6,2.574,1.595,2.572,1.589,2.571L1.453,2.549c0,0,0,0,-0.001,0c-0.001,0,-0.001,0,-0.002,0L1.184,2.528c-0.001,0,-0.002,0,-0.003,0s-0.002,0,-0.003,0L0.912002,2.549c-0.001,0,-0.002,0,-0.003,0c0,0,0,0,0,0l0,0c-0.001,0,-0.002,0,-0.003,0L0.707,2.602c0,0,-0.001,0,-0.002,0.001c0,0,0,0,0,0c-0.002,0,-0.004,0.001,-0.005,0.002l-0.182,0.09C0.515,2.696,0.513,2.697,0.51,2.7L0.349,2.825C0.348,2.826,0.347,2.826,0.346,2.827C0.344,2.828,0.343,2.83,0.342,2.831L0.21,2.986c0,0,0,0,-0.001,0.001l0,0C0.208,2.99,0.206,2.991,0.205,2.993L0.204,2.997C0.202,2.999,0.201,3,0.2,3.002L0.0930002,3.199c0,0,-0.001,0.001,-0.001,0.003C0.09,3.204,0.09,3.206,0.0889999,3.207L0.0859997,3.219C0.0850003,3.221,0.0840002,3.223,0.0840002,3.226L0.021,3.433c0,0.001,0,0.001,-0.001,0.002c0,0.002,0,0.004,-0.001,0.006L0.00799999,3.585c0,0.002,-0.001,0.005,-0.001,0.00799999c0,0,0,0.001,0,0.002L0.002,3.658c0,0.002,-0.001,0.005,-0.001,0.007c0,0,0,0.001,0,0.001l0,0.011l0,0C0,3.678,0,3.679,0,3.68l0,4.296C0,7.97897,0,7.97998,0,7.98199c0,0.001,0,0.001,0,0.001c0,0.002,0.001,0.004,0.001,0.006l0,0L0.001,7.98998C0.004,7.99502,0.00799999,7.99999,0.012,8.00503c0.007,0.006,0.016,0.009,0.024,0.009c0.001,0,0.003,0,0.004,0c0,0,0,0,0,0c0.007,-0.004,0.013,-0.006,0.02,-0.01c0.001,-0.001,0.002,-0.002,0.003,-0.003L0.118,7.94002C0.12,7.938,0.122,7.93598,0.124,7.93397l0.25,-0.281C0.375,7.65,0.377,7.64698,0.379,7.64597L0.437,7.58002C0.44,7.578,0.442,7.57498,0.444,7.57202l0.123,-0.139c0.001,0,0.001,-0.001,0.002,-0.002l0.061,-0.068C0.631,7.362,0.633,7.35998,0.635,7.35703l0.185,-0.208c0.004,-0.002,0.007,-0.006,0.01,-0.011l0.057,-0.063C0.887998,7.073,0.888998,7.072,0.891,7.07l0.185,-0.209c0.004,-0.003,0.007,-0.006,0.01,-0.01l0.057,-0.064c0.002,-0.002,0.003,-0.003,0.005,-0.005l0.059,-0.066C1.208,6.714,1.21,6.711,1.211,6.708l0.057,-0.062C1.271,6.643,1.273,6.64,1.275,6.637l0.056,-0.063c0.003,-0.003,0.007,-0.006,0.009,-0.01l0.057,-0.064c0.001,-0.002,0.003,-0.003,0.004,-0.005l0.042,-0.047L1.54,6.359c0.004,-0.002,0.007,-0.005,0.01,-0.009l0.136,-0.124l0.257,-0.153C1.944,6.072,1.946,6.071,1.947,6.07l0.02,-0.012l0.099,-0.035L2.17,6.005l0.645,0c0,-0.001,0.002,-0.001,0.004,0L3.204,5.97c0.001,0,0.003,0,0.004,-0.001c0,0,0,0,0,0c0.001,0,0.002,0,0.003,-0.001l0.373,-0.104c0.001,-0.001,0.003,-0.001,0.005,-0.002c0,0,0.001,-0.001,0.002,-0.001l0.004,-0.002c0.003,-0.001,0.006,-0.003,0.009,-0.004l0.139,-0.068c0.004,-0.001,0.007,-0.003,0.01,-0.005l0.141,-0.068c0.001,0,0.003,-0.001,0.004,-0.002l0.041,-0.021c0.002,0,0.003,-0.001,0.005,-0.002c0.001,0,0.001,-0.001,0.002,-0.001l0.168,-0.119c0.004,-0.002,0.007,-0.004,0.01,-0.007l0.149,-0.105c0.002,-0.001,0.004,-0.002,0.005,-0.004l0.292,-0.274c0.002,-0.002,0.003,-0.003,0.004,-0.005l0.0940003,-0.117c0.001,-0.001,0.001,-0.001,0.001,-0.002l0.056,-0.069C4.725,4.984,4.727,4.982,4.728,4.98L4.78,4.914C4.782,4.912,4.784,4.91,4.785,4.907l0.037,-0.046c0.001,-0.002,0.002,-0.003,0.003,-0.005c0,0,0,0,0.001,0L4.826,4.855l0.05,-0.0879998c0.002,-0.003,0.004,-0.006,0.005,-0.01L4.959,4.62C4.96,4.619,4.96,4.617,4.961,4.616L4.998,4.55C5,4.547,5.002,4.544,5.003,4.542l0.036,-0.063c0.002,-0.002,0.003,-0.004,0.004,-0.007l0.036,-0.064c0.002,-0.003,0.004,-0.006,0.006,-0.01l0.01,-0.018c0,-0.001,0.001,-0.001,0.001,-0.002c0,0.001,0.002,-0.002,0.002,-0.004l0.039,-0.113c0.002,-0.004,0.004,-0.00799999,0.004,-0.013l0.021,-0.062C5.163,4.182,5.164,4.18,5.165,4.177l0.047,-0.136c0.001,-0.003,0.002,-0.006,0.003,-0.009l0.022,-0.063c0.001,-0.002,0.001,-0.004,0.002,-0.007l0.021,-0.062c0.002,-0.004,0.004,-0.00799999,0.005,-0.013l0.01,-0.029c0,-0.001,0.001,-0.002,0.001,-0.004c0,-0.001,0,-0.002,0.001,-0.003l0.004,-0.03c0.001,-0.003,0.002,-0.007,0.002,-0.01l0.01,-0.064c0,-0.002,0.001,-0.004,0.001,-0.007l0.01,-0.065c0,-0.002,0.001,-0.004,0.001,-0.005l0.042,-0.281c0.001,-0.003,0.002,-0.006,0.002,-0.01l0.01,-0.064c0,-0.003,0.001,-0.006,0.001,-0.009c0,-0.001,0,-0.002,0,-0.003L5.357,3.235z"/>
  </g>
  <g  id="joystick" stroke-width="0" transform="matrix(1, 0, 0, 1, -3.00892, -0.585102)">
   <circle  fill="#313131" cx="38.4084" cy="38.41" r="38.4084" stroke-width="0"/>
   <g  opacity="0.5" stroke-width="0">
    <circle  fill="#161616" cx="38.4084" cy="38.41" r="35.9695" stroke-width="0"/>
   </g>
   <circle  fill="#161616" cx="38.4084" cy="38.41" r="34.0416" stroke-width="0"/>
   <circle  cx="38.4074" cy="38.41" r="30.8277" stroke-width="0"/>
   <circle  fill="#313131" cx="38.4074" cy="38.41" r="29.0878" stroke-width="0"/>
   <g  opacity="0.3" stroke-width="0">
    <path  fill="#FFFFFF" stroke-width="0" d="M42.3423,9.58802C26.4249,7.41499,11.7606,18.555,9.58759,34.473c-2.17391,15.92,8.96861,30.584,24.886,32.758c15.9163,2.173,30.5808,-8.96897,32.7547,-24.888C69.4002,26.424,58.2596,11.761,42.3423,9.58802zM55.6428,61.0929c-11.8495,9.00202,-29.1678,6.142,-38.6864,-6.386c-9.51862,-12.529,-7.63171,-29.982,4.21782,-38.984c11.8475,-9.00202,29.1658,-6.142,38.6844,6.388C69.3762,34.638,67.4892,52.09,55.6428,61.0929z"/>
   </g>
   <g  opacity="0.05" stroke-width="0">
    <path  fill="#FFFFFF" stroke-width="0" d="M54.4098,23.918c7.86571,8.16797,10.5895,19.312,8.14867,29.187c5.16579,-9.31097,4.47381,-21.55,-2.69989,-30.993C50.341,9.58399,33.0216,6.72399,21.1731,15.726c-0.193992,0.147,-0.377984,0.303,-0.566977,0.456C31.6857,11.691,45.2121,14.368,54.4098,23.918z"/>
   </g>
   <g  opacity="0.05" stroke-width="0">
    <path  fill="#FFFFFF" stroke-width="0" d="M57.8646,22.915c7.05571,9.288,8.34062,21.067,4.36882,30.75c5.51277,-9.37598,4.9438,-21.918,-2.37491,-31.553C54.0038,14.406,45.1981,10.365,36.5285,10.485C44.5962,11.48,52.4099,15.735,57.8646,22.915z"/>
   </g>
   <g  opacity="0.2" stroke-width="0">
    <path  stroke-width="0" d="M10.9526,35.076c-0.438982,6.703,1.50994,13.716,6.00376,19.632c5.37678,7.077,13.2425,11.066,21.2062,11.577C22.8361,63.305,11.9765,50.585,10.9526,35.076z"/>
   </g>
  </g>
 </g>
</svg>
