<?xml version='1.0' encoding='utf-8'?>
<!DOCTYPE svg PUBLIC '-//W3C//DTD SVG 1.1//EN' 'http://www.w3.org/Graphics/SVG/1.1/DTD/svg11.dtd'>
<!-- Generator: Adobe Illustrator 13.0.0, SVG Export Plug-In  -->
<svg xmlns="http://www.w3.org/2000/svg" width="0.65278in" xml:space="preserve" xmlns:xml="http://www.w3.org/XML/1998/namespace" x="0px" version="1.1" y="0px" height="1.056in" viewBox="0 0 47 76" enable-background="new -10.383 -17.732 47 76">
<g id="breadboard">
 <rect width="3" y="45.205" fill="#B3B3B3" height="9.813"/>
 <rect width="3" x="10" y="45.205" fill="#B3B3B3" height="9.813"/>
 <rect width="3" x="30" y="45.205" fill="#B3B3B3" height="9.813"/>
 <rect width="3" x="20" y="45.205" fill="#B3B3B3" height="9.813"/>
 <path fill="#B3B3B3" d="M12.991,45.205v-1.651c0-1.568,0.568-3.369,1.17-5.276c0.654-2.072,1.33-4.215,1.33-6.307v-6.952h-3v6.952&#xd;&#xa;&#x9;c0,1.63-0.578,3.463-1.191,5.404c-0.644,2.039-1.309,4.148-1.309,6.179v1.651H12.991z"/>
 <path fill="#B3B3B3" d="M3,45.205v-1.422c0-1.521,1.73-3.15,3.257-4.687c2.061-2.073,4.191-4.218,4.191-6.696v-7.382h-3&#xd;&#xa;&#x9;c0,0,0,5.548,0,7.202c0,1.653-1.764,3.195-3.319,4.761C2.099,39.023,0,41.135,0,43.553v1.651H3z"/>
 <path fill="#B3B3B3" d="M20.009,45.205v-1.651c0-1.568-0.568-3.369-1.17-5.276c-0.654-2.072-1.33-4.215-1.33-6.307v-6.952h3v6.952&#xd;&#xa;&#x9;c0,1.63,0.578,3.463,1.191,5.404c0.644,2.039,1.309,4.148,1.309,6.179v1.651H20.009z"/>
 <path fill="#B3B3B3" d="M30,45.205v-1.422c0-1.521-1.73-3.15-3.257-4.687c-2.061-2.073-4.191-4.218-4.191-6.696v-7.382h3&#xd;&#xa;&#x9;c0,0,0,5.548,0,7.202c0,1.653,1.764,3.195,3.319,4.761C30.901,39.023,33,41.135,33,43.553v1.651H30z"/>
 <path opacity="0.5" fill="#E6E6E6" d="M26.574,18.3V9.977c0-5.51-4.467-9.977-9.977-9.977S6.621,4.467,6.621,9.977v19.215&#xd;&#xa;&#x9;c2.084,2.324,5.767,3.875,9.977,3.875c6.507,0,11.781-3.692,11.781-8.247v-2.147C28.379,21.064,27.711,19.569,26.574,18.3z"/>
 <path opacity="0.9" fill="#D1D1D1" d="M26.574,18.3v4.372c0,3.856-4.467,6.983-9.977,6.983s-9.977-3.127-9.977-6.983v4.372v2.147&#xd;&#xa;&#x9;c2.084,2.324,5.767,3.875,9.977,3.875c6.507,0,11.781-3.692,11.781-8.247v-2.147C28.379,21.064,27.711,19.569,26.574,18.3z"/>
 <path opacity="0.24" d="M26.574,18.3v4.372c0,3.856-4.467,6.983-9.977,6.983s-9.977-3.127-9.977-6.983v4.372&#xd;&#xa;&#x9;c2.084,2.324,5.767,3.875,9.977,3.875c6.507,0,11.781-3.693,11.781-8.247C28.379,21.064,27.711,19.569,26.574,18.3z"/>
 <ellipse opacity="0.5" fill="#CCCCCC" cx="16.598" cy="22.672" rx="9.977" ry="6.983"/>
 <polygon fill="#999999" points="21.795,11.996 22.408,12.713 18.03,17.387 22.191,17.387 22.191,18.429 22.191,22.673 &#xd;&#xa;&#x9;23.477,22.673 23.477,11.996 "/>
 <polygon fill="#999999" points="17.679,12.391 16.977,13.607 14.273,13.607 13.571,12.391 11.416,12.391 9.721,13.578 9.721,22.673 &#xd;&#xa;&#x9;12.312,22.672 12.312,17.387 16.061,17.387 20.717,12.391 "/>
 <path opacity="0.6" fill="#FFFFFF" d="M21.245,5.279l2.025-0.385c-1.179-1.597-2.931-2.759-4.984-3.152l0.351,1.522&#xd;&#xa;&#x9;C19.713,3.647,20.619,4.364,21.245,5.279z"/>
 <path opacity="0.6" fill="#FFFFFF" d="M7.701,28.049v2.147c0.917,0.744,2.012,1.375,3.25,1.852v-2.147&#xd;&#xa;&#x9;C9.713,29.423,8.618,28.793,7.701,28.049z"/>
 <path opacity="0.6" fill="#FFFFFF" d="M22.207,28.447c-0.363,0.173-0.747,0.324-1.142,0.463c-0.083,0.029-0.165,0.057-0.249,0.084&#xd;&#xa;&#x9;c-0.793,0.26-1.642,0.448-2.533,0.555c-0.105,0.013-0.212,0.023-0.319,0.034c-0.448,0.044-0.901,0.073-1.366,0.073&#xd;&#xa;&#x9;c-0.211,0-0.435-0.014-0.664-0.033c-1.697-0.08-3.282-0.443-4.643-1.044V16.766v-6.79c0-2.068,1.194-3.84,2.92-4.716l-0.028-0.069&#xd;&#xa;&#x9;L12.425,3.06c-2.348,1.418-3.929,3.975-3.929,6.917v16.761c-0.069-0.068-0.437-0.434-0.675-0.742l-0.435,0.969&#xd;&#xa;&#x9;c1.979,2.089,5.363,3.467,9.211,3.467c2.365,0,4.552-0.524,6.35-1.41l-0.738-0.575C22.208,28.447,22.207,28.447,22.207,28.447z"/>
 <rect width="3" y="52.018" fill="#B3B3B3" height="3"/>
 <rect width="3" x="10" y="52.018" fill="#B3B3B3" height="3"/>
 <rect width="3" x="20" y="52.018" fill="#B3B3B3" height="3"/>
 <rect width="3" x="30" y="52.018" fill="#B3B3B3" height="3"/>
 </g>
</svg>
