<?xml version="1.0" encoding="utf-8"?>
<!DOCTYPE svg PUBLIC "-//W3C//DTD SVG 1.1//EN" "http://www.w3.org/Graphics/SVG/1.1/DTD/svg11.dtd">
<svg version="1.1" id="Layer_1" xmlns="http://www.w3.org/2000/svg" xmlns:xlink="http://www.w3.org/1999/xlink" x="0px" y="0px"
	 width="0.1639in" height="0.5882in" viewBox="0 0 16.387 58.818" xml:space="preserve">
	
<rect id="connector0pin" x="3.417" y="49.375" fill="none" width="2.989" height="9.442"/>
<rect id="connector1pin" x="13.387" y="49.375" fill="none" width="2.992" height="9.442"/>
<rect id="connector0terminal" x="3.417" y="58.26" fill="none" width="2.989" height="0.562"/>
<rect id="connector1terminal" x="13.388" y="58.26" fill="none" width="2.991" height="0.562"/>
<g id="breadboard">
	<rect x="3.418" y="23.408" fill="#8C8C8C" width="2.988" height="35.41"/>
	<path fill="#8C8C8C" d="M16.378,34.149c0-1.63-1.479-2.92-2.9-4.155c-0.578-0.51-1.666-1.391-1.666-1.979v-4.604H8.81v5.034
		c0,1.47,1.316,2.609,2.703,3.817c0.617,0.522,1.873,1.736,1.873,2.458c0,0.29,0.004,24.101,0.004,24.101h2.99L16.378,34.149z"/>
	<g id="g12">
		<path id="path14" opacity="0.31" fill="#008C3A" d="M15.029,13.786V7.516
			C15.029,3.367,11.67,0,7.515,0C3.367,0,0,3.361,0,7.516v14.473c1.563,1.751,4.344,2.919,7.515,2.919
			c4.899,0,8.874-2.775,8.874-6.212v-1.616C16.388,15.868,15.886,14.742,15.029,13.786z"/>
		<path id="path16" fill="#E6E6E6" fill-opacity="0" d="M15.029,13.786V7.516C15.029,3.367,11.67,0,7.515,0C3.367,0,0,3.361,0,7.516
			v14.473c1.563,1.751,4.344,2.919,7.515,2.919c4.899,0,8.874-2.775,8.874-6.212v-1.616C16.388,15.868,15.886,14.742,15.029,13.786z
			"/>
		<path id="path18" opacity="0.9" fill="#D1D1D1" d="M15.029,13.786v3.293
			c0,2.904-3.358,5.265-7.514,5.265C3.367,22.344,0,19.99,0,17.079v3.293v1.616c1.563,1.751,4.344,2.919,7.515,2.919
			c4.899,0,8.874-2.776,8.874-6.212v-1.616C16.388,15.868,15.886,14.742,15.029,13.786z"/>
		<path id="path20" opacity="0.7" fill="#008C3A" d="M15.029,13.786v3.293
			c0,2.904-3.358,5.265-7.514,5.265C3.367,22.344,0,19.99,0,17.079v3.293v1.616c1.563,1.751,4.344,2.919,7.515,2.919
			c4.899,0,8.874-2.776,8.874-6.212v-1.616C16.388,15.868,15.886,14.742,15.029,13.786z"/>
		<path id="path22" opacity="0.24" d="M15.029,13.786v3.293c0,2.904-3.358,5.265-7.514,5.265
			C3.367,22.344,0,19.99,0,17.079v3.293c1.563,1.75,4.344,2.919,7.515,2.919c4.899,0,8.874-2.776,8.874-6.212
			C16.388,15.868,15.886,14.742,15.029,13.786z"/>
		
			<ellipse id="ellipse24" opacity="0.25" fill="#E6E6E6" cx="7.515" cy="17.079" rx="7.515" ry="5.26"/>
		
			<ellipse id="ellipse26" opacity="0.25" fill="#008C3A" cx="7.515" cy="17.079" rx="7.515" ry="5.26"/>
		<polygon id="polygon28" fill="#666666" points="2.336,10.231 2.336,17.08 3.389,17.08 3.389,13.885 6.379,13.885 10.617,9.337 
			3.613,9.337 "/>
		<polygon id="polygon30" fill="#666666" points="11.429,9.039 11.892,9.579 7.859,13.885 11.728,13.885 11.728,17.08 12.697,17.08 
			12.697,9.039 "/>
		<path id="path32" opacity="0.65" fill="#008C3A" d="M15.029,13.786V7.516
			C15.029,3.367,11.67,0,7.515,0C3.367,0,0,3.361,0,7.516v14.473c1.563,1.751,4.344,2.919,7.515,2.919
			c4.899,0,8.874-2.775,8.874-6.212v-1.616C16.388,15.868,15.886,14.742,15.029,13.786z"/>
		<path id="path34" opacity="0.5" fill="#FFFFFF" d="M11.015,3.981l1.523-0.29
			c-0.892-1.201-2.207-2.076-3.755-2.374l0.269,1.146C9.863,2.75,10.544,3.29,11.015,3.981z"/>
		<path id="path36" opacity="0.5" fill="#FFFFFF" d="M0.815,21.129v1.612
			c0.688,0.562,1.52,1.036,2.447,1.396v-1.617C2.33,22.164,1.505,21.691,0.815,21.129z"/>
		<path id="path38" opacity="0.5" fill="#FFFFFF" d="M11.741,21.43c-0.271,0.13-0.562,0.244-0.854,0.35
			c-0.062,0.021-0.125,0.042-0.189,0.062c-0.598,0.19-1.231,0.338-1.903,0.418c-0.08,0.01-0.16,0.02-0.238,0.021
			c-0.34,0.032-0.682,0.062-1.029,0.062c-0.157,0-0.326-0.017-0.5-0.025c-1.273-0.061-2.472-0.334-3.497-0.785v-8.896V7.52
			c0-1.56,0.899-2.894,2.199-3.552L5.706,3.912L4.383,2.309C2.612,3.372,1.424,5.302,1.424,7.518v12.624
			c-0.053-0.053-0.327-0.327-0.509-0.562l-0.326,0.729c1.486,1.571,4.039,2.61,6.938,2.61c1.781,0,3.432-0.396,4.783-1.062
			l-0.559-0.434C11.741,21.43,11.741,21.43,11.741,21.43z"/>
	</g>
</g>
</svg>
