<?xml version='1.0' encoding='utf-8'?>
<!DOCTYPE svg PUBLIC '-//W3C//DTD SVG 1.1//EN' 'http://www.w3.org/Graphics/SVG/1.1/DTD/svg11.dtd'>
<!-- Generator: Adobe Illustrator 15.0.1, SVG Export Plug-In . SVG Version: 6.00 Build 0)  -->
<svg xmlns="http://www.w3.org/2000/svg" width="0.3in" xml:space="preserve" xmlns:xml="http://www.w3.org/XML/1998/namespace" x="0px" version="1.1" y="0px" height="0.714167in" viewBox="0 0 21.6 51.42" id="Ebene_1" enable-background="new 0 0 21.6 51.42">
 <desc >Fritzing breadboard generated by brd2svg</desc>
 <g  id="breadboard">
  <g  id="icon">
   <path  fill="#672E58" d="M21.572,10.772C21.572,4.823,16.749,0,10.8,0S0.029,4.823,0.029,10.772v29.877c0,5.949,4.822,10.771,10.771,10.771s10.771-4.822,10.771-10.771V10.772 M9.595,21.458c-0.002-0.665,0.536-1.206,1.201-1.208c0.666-0.002,1.207,0.535,1.209,1.201c0,0.002,0,0.005,0,0.007c0.002,0.665-0.536,1.206-1.202,1.208c-0.665,0.002-1.206-0.536-1.208-1.201C9.595,21.463,9.595,21.46,9.595,21.458z M9.595,29.962c-0.002-0.665,0.536-1.206,1.201-1.208c0.666-0.002,1.207,0.535,1.209,1.201c0,0.002,0,0.005,0,0.007c0.002,0.665-0.536,1.206-1.202,1.208c-0.665,0.002-1.206-0.536-1.208-1.201C9.595,29.967,9.595,29.964,9.595,29.962z M6.84,41.191c0-2.188,1.772-3.961,3.959-3.961c2.188,0,3.961,1.772,3.961,3.96c0,0,0,0,0,0.001c0,2.187-1.772,3.96-3.96,3.96C8.614,45.152,6.84,43.378,6.84,41.191C6.84,41.191,6.84,41.191,6.84,41.191z M6.84,10.231c0-2.188,1.772-3.961,3.959-3.961c2.188,0,3.961,1.772,3.961,3.96c0,0,0,0,0,0.001c0,2.187-1.772,3.96-3.96,3.96C8.614,14.191,6.84,12.418,6.84,10.231C6.84,10.231,6.84,10.231,6.84,10.231z"/>
   <g >
    <title >layer 21</title>
    <g >
     <title >text:On</title>
     <g  transform="matrix(1, 0, 0, 1, 4.32, 15.6303)">
      <g  transform="rotate(-90)">
       <text  fill="#FFFFFF" font-family="OCRA" transform="matrix(1 0 0 1 1.831055e-04 5.493164e-04)" font-size="3.3408">On</text>
      </g>
     </g>
    </g>
    <g >
     <title >text:Off</title>
     <g  transform="matrix(1, 0, 0, 1, 4.32, 40.8303)">
      <g  transform="rotate(-90)">
       <text  fill="#FFFFFF" font-family="OCRA" transform="matrix(1 0 0 1 -3.051758e-05 5.493164e-04)" font-size="3.3408">Off</text>
      </g>
     </g>
    </g>
    <g >
     <title >element:LOGO1</title>
     <g >
      <title >package:LOGO-L</title>
     </g>
    </g>
    <g >
     <title >element:S1</title>
     <g >
      <title >package:AYZ0202</title>
      <line  fill="none" stroke="#FFFFFF" stroke-linecap="round" y1="35.915" stroke-width="0.576" x1="5.839" y2="35.915" x2="15.761"/>
      <line  fill="none" stroke="#FFFFFF" stroke-linecap="round" y1="35.915" stroke-width="0.576" x1="15.761" y2="15.505" x2="15.761"/>
      <line  fill="none" stroke="#FFFFFF" stroke-linecap="round" y1="15.505" stroke-width="0.576" x1="15.761" y2="15.505" x2="5.839"/>
      <line  fill="none" stroke="#FFFFFF" stroke-linecap="round" y1="15.505" stroke-width="0.576" x1="5.839" y2="35.915" x2="5.839"/>
     </g>
    </g>
    <g >
     <title >element:SLIDEOFF</title>
     <g >
      <title >package:PETAL-MEDIUM-2SIDE</title>
     </g>
    </g>
    <g >
     <title >element:SLIDEON</title>
     <g >
      <title >package:PETAL-MEDIUM-2SIDE</title>
     </g>
    </g>
   </g>
   <path  fill="#FFFFFF" d="M10.8,6.996c0.873,0,1.722,0.948,2.531,1.024c3.513,0.33,6.322,1.332,7.42,2.623c-0.038-5.465-4.477-9.885-9.951-9.885c-5.474,0-9.913,4.419-9.95,9.885c1.103-1.297,3.934-2.302,7.47-2.627C9.115,7.943,9.946,6.996,10.8,6.996z"/>
   <path  fill="#FFFFFF" d="M10.8,44.365c0.873,0,1.722-0.948,2.531-1.024c3.513-0.33,6.322-1.332,7.42-2.623c-0.038,5.466-4.477,9.885-9.951,9.885c-5.474,0-9.913-4.419-9.95-9.885c1.103,1.298,3.934,2.303,7.47,2.628C9.115,43.418,9.946,44.365,10.8,44.365z"/>
   <g  id="connector6pin">
    <path  fill="#9A916C" d="M10.8,38.448c1.512,0,2.741,1.229,2.741,2.742c0,1.512-1.229,2.741-2.741,2.741c-1.511,0-2.741-1.229-2.741-2.741C8.059,39.678,9.289,38.448,10.8,38.448 M10.8,37.23c-2.187,0-3.959,1.773-3.959,3.961c0,2.187,1.772,3.96,3.959,3.96c2.188,0,3.96-1.773,3.96-3.96C14.76,39.003,12.988,37.23,10.8,37.23L10.8,37.23z"/>
   </g>
   <g  id="connector7pin">
    <path  fill="#9A916C" d="M10.8,7.489c1.512,0,2.741,1.23,2.741,2.742c0,1.512-1.229,2.741-2.741,2.741s-2.741-1.229-2.741-2.741C8.059,8.719,9.288,7.489,10.8,7.489 M10.8,6.27c-2.188,0-3.96,1.773-3.96,3.961c0,2.187,1.772,3.96,3.96,3.96s3.96-1.773,3.96-3.96C14.76,8.043,12.988,6.27,10.8,6.27L10.8,6.27z"/>
   </g>
  </g>
  <g  id="ayz0202" transform="matrix(1, 0, 0, 1, 0.53604, 19.5258)">
   <g  transform="matrix(0, 1, -1, 0, 16.4404, -4.08748)">
    <g >
     <g >
      <polygon  fill="#B7B7B7" points="2.202,12.353 3.927,12.353 3.927,9.491 2.202,9.491 "/>
      <polygon  fill="#B7B7B7" points="9.402,12.353 11.125,12.353 11.125,9.491 9.402,9.491 "/>
      <polygon  fill="#B7B7B7" points="16.603,12.353 18.325,12.353 18.325,9.491 16.603,9.491 "/>
     </g>
     <g >
      <polygon  fill="#B7B7B7" points="2.202,2.861 3.927,2.861 3.927,0 2.202,0 "/>
      <polygon  fill="#B7B7B7" points="9.402,2.861 11.125,2.861 11.125,0 9.402,0 "/>
      <polygon  fill="#B7B7B7" points="16.603,2.861 18.325,2.861 18.325,0 16.603,0 "/>
     </g>
    </g>
    <rect  width="9.827" x="5.351" y="-4.087" fill="#1E1E1E" height="20.527" transform="matrix(2.578893e-06 1 -1 2.578893e-06 16.441 -4.0872)"/>
    <rect  width="0.266" x="10.131" y="-3.213" height="10.643" transform="matrix(2.578893e-06 1 -1 2.578893e-06 12.3721 -8.1561)"/>
    <path  fill="#898989" d="M19.002,4.096c-0.229,0-0.203-0.191-0.203-0.427V1.611h-3.65c-0.232,0-0.425,0.191-0.425,0.426v2.214c0,0.233-0.191,0.426-0.425,0.426h-8.07c-0.232,0-0.425-0.191-0.425-0.426V2.037c0-0.233-0.191-0.426-0.425-0.426H1.73V3.67c0,0.234,0.024,0.427-0.203,0.427H0.249c-0.237,0-0.248,0.19-0.248,0.425v3.892c0,0.234,0.011,0.426,0.248,0.426h1.277c0.229,0,0.203,0.191,0.203,0.426v1.833h17.068V9.263c0-0.233-0.024-0.426,0.203-0.426h1.276c0.238,0,0.248-0.19,0.248-0.426V4.521c0-0.233-0.01-0.425-0.248-0.425H19.002z"/>
    <g >
     <path  opacity="0.3" fill="#FFFFFF" enable-background="new    " d="M0.249,8.832h0.238V4.089H0.249c-0.237,0-0.248,0.191-0.248,0.426v3.892C0.001,8.641,0.012,8.832,0.249,8.832z"/>
     <rect  width="4.743" x="-1.64" opacity="0.1" y="6.216" fill="#FFFFFF" height="0.487" enable-background="new    " transform="matrix(2.578893e-06 1 -1 2.578893e-06 7.1915 5.7287)"/>
    </g>
    <g >
     <path  opacity="0.3" fill="#FFFFFF" enable-background="new    " d="M20.279,8.832H20.04V4.089h0.238c0.237,0,0.248,0.191,0.248,0.426v3.892C20.527,8.641,20.517,8.832,20.279,8.832z"/>
     <rect  width="4.743" x="17.425" opacity="0.1" y="6.216" fill="#FFFFFF" height="0.487" enable-background="new    " transform="matrix(2.578893e-06 1 -1 2.578893e-06 26.2568 -13.3367)"/>
    </g>
    <path  fill="#898989" d="M17.095,9.746c0,0.289-0.25,0.525-0.557,0.525H3.99c-0.307,0-0.557-0.236-0.557-0.525s0.25-0.524,0.557-0.524h12.548C16.845,9.221,17.095,9.457,17.095,9.746z"/>
    <g >
     <path  fill="#666666" d="M16.539,9.221H3.99c-0.307,0-0.557,0.235-0.557,0.524H3.67c0-0.158,0.143-0.287,0.318-0.287h12.548c0.177,0,0.319,0.129,0.319,0.287h0.237C17.095,9.457,16.845,9.221,16.539,9.221z"/>
     <path  opacity="0.3" fill="#FFFFFF" enable-background="new    " d="M16.539,10.033H3.99c-0.177,0-0.318-0.129-0.318-0.287H3.434c0,0.289,0.25,0.525,0.557,0.525h12.548c0.308,0,0.558-0.236,0.558-0.525h-0.237C16.857,9.904,16.714,10.033,16.539,10.033z"/>
    </g>
    <g >
     <path  opacity="0.3" fill="#FFFFFF" enable-background="new    " d="M0.001,1.263v2.125c0,0.157,0.011,0.287,0.248,0.287h0.238V1.263H0.001z"/>
     <rect  width="2.412" x="-0.475" opacity="0.1" y="2.226" fill="#FFFFFF" height="0.487" enable-background="new    " transform="matrix(2.578893e-06 1 -1 2.578893e-06 3.2007 1.738)"/>
    </g>
    <g >
     <path  opacity="0.3" fill="#FFFFFF" enable-background="new    " d="M0.001,11.089v-1.57c0-0.158,0.011-0.287,0.248-0.287h0.238v1.858L0.001,11.089z"/>
     <rect  width="1.857" x="-0.197" opacity="0.1" y="9.916" fill="#FFFFFF" height="0.487" enable-background="new    " transform="matrix(2.578893e-06 1 -1 2.578893e-06 10.8912 9.4284)"/>
    </g>
    <g >
     <path  opacity="0.3" fill="#FFFFFF" enable-background="new    " d="M20.528,1.263v2.125c0,0.157-0.011,0.287-0.248,0.287h-0.238V1.263H20.528z"/>
     <rect  width="2.412" x="18.592" opacity="0.1" y="2.226" fill="#FFFFFF" height="0.487" enable-background="new    " transform="matrix(2.578893e-06 1 -1 2.578893e-06 22.2671 -17.3284)"/>
    </g>
    <g >
     <path  opacity="0.3" fill="#FFFFFF" enable-background="new    " d="M20.528,11.089v-1.57c0-0.158-0.011-0.287-0.248-0.287h-0.238v1.858L20.528,11.089z"/>
     <rect  width="1.857" x="18.869" opacity="0.1" y="9.916" fill="#FFFFFF" height="0.487" enable-background="new    " transform="matrix(2.578893e-06 1 -1 2.578893e-06 29.9575 -9.638)"/>
    </g>
    <path  fill="#232323" d="M14.288,4.197c0,0.156-0.129,0.284-0.283,0.284h-3.559c-0.155,0-0.283-0.127-0.283-0.284l-0.001-2.231c0-0.156,0.127-0.284,0.284-0.284h3.559c0.154,0,0.282,0.127,0.282,0.284L14.288,4.197z"/>
    <g  opacity="0.2">
     <path  fill="none" stroke="#FFFFFF" stroke-linecap="round" stroke-width="0.1899" d="M10.404,4.28V2.053c0-0.094,0.076-0.17,0.17-0.17h3.472" stroke-miterlimit="10"/>
    </g>
    <g  opacity="0.2">
     <path  fill="none" stroke="#454545" stroke-linecap="round" stroke-width="0.1899" d="M14.045,1.882v2.227c0,0.093-0.076,0.17-0.17,0.17h-3.472" stroke-miterlimit="10"/>
    </g>
    <path  opacity="0.2" fill="none" stroke="#FFFFFF" stroke-linecap="round" enable-background="new    " stroke-width="0.1899" d="M11.694,3.612C11.4,3.319,11.4,2.843,11.693,2.55c0.293-0.294,0.771-0.293,1.062,0" stroke-miterlimit="10"/>
    <path  opacity="0.2" fill="none" stroke="#454545" stroke-linecap="round" enable-background="new    " stroke-width="0.1899" d="M12.755,2.55c0.294,0.293,0.294,0.769,0.001,1.062c-0.293,0.294-0.771,0.293-1.062,0" stroke-miterlimit="10"/>
   </g>
  </g>
 </g>
</svg>
