<?xml version='1.0' encoding='utf-8'?>
<!DOCTYPE svg PUBLIC '-//W3C//DTD SVG 1.1//EN' 'http://www.w3.org/Graphics/SVG/1.1/DTD/svg11.dtd'>
<!-- Generator: Adobe Illustrator 15.0.1, SVG Export Plug-In . SVG Version: 6.00 Build 0)  -->
<svg xmlns="http://www.w3.org/2000/svg" width="0.787403in" xml:space="preserve" xmlns:xml="http://www.w3.org/XML/1998/namespace" x="0px" version="1.1" y="0px" height="0.787403in" viewBox="0 0 56.693 56.693" id="Ebene_1" enable-background="new 0 0 56.693 56.693">
 <desc >Fritzing breadboard generated by brd2svg</desc>
 <g  id="breadboard">
  <g  id="icon">
   <path  fill="#672E58" d="M0,28.346c-0.029,15.655,12.638,28.37,28.293,28.399c15.656,0.029,28.371-12.638,28.4-28.293c0-0.035,0-0.071,0-0.106C56.722,12.691,44.055-0.024,28.4-0.053C12.744-0.082,0.029,12.585,0,28.24C0,28.275,0,28.311,0,28.346z M45.043,17.717c0-0.939,0.762-1.701,1.7-1.701c0.939,0,1.701,0.762,1.701,1.701s-0.762,1.701-1.701,1.701C45.804,19.418,45.043,18.656,45.043,17.717z M26.645,49.606c0-0.939,0.762-1.701,1.701-1.701s1.701,0.762,1.701,1.701s-0.762,1.701-1.701,1.701S26.645,50.546,26.645,49.606z M8.22,17.717c0-0.939,0.762-1.701,1.701-1.701c0.938,0,1.7,0.762,1.7,1.701s-0.762,1.701-1.7,1.701C8.982,19.418,8.22,18.656,8.22,17.717z M26.645,7.087c0-0.939,0.762-1.701,1.701-1.701s1.701,0.762,1.701,1.701s-0.762,1.701-1.701,1.701S26.645,8.026,26.645,7.087z M45.043,38.976c0-0.939,0.762-1.701,1.7-1.701c0.939,0,1.701,0.762,1.701,1.701s-0.762,1.701-1.701,1.701C45.804,40.677,45.043,39.916,45.043,38.976z"/>
   <g >
    <title >layer 21</title>
    <line  fill="none" stroke="#FFFFFF" stroke-linecap="round" y1="44.906" stroke-width="0.576" x1="27.587" y2="44.906" x2="23.987"/>
    <line  fill="none" stroke="#FFFFFF" stroke-linecap="round" y1="44.906" stroke-width="0.576" x1="23.987" y2="43.827" x2="25.067"/>
    <line  fill="none" stroke="#FFFFFF" stroke-linecap="round" y1="44.906" stroke-width="0.576" x1="23.987" y2="45.986" x2="25.067"/>
    <line  fill="none" stroke="#FFFFFF" stroke-linecap="round" y1="24.638" stroke-width="0.576" x1="12.313" y2="23.558" x2="13.393"/>
    <line  fill="none" stroke="#FFFFFF" stroke-linecap="round" y1="24.638" stroke-width="0.576" x1="12.313" y2="23.558" x2="11.234"/>
    <line  fill="none" stroke="#FFFFFF" stroke-linecap="round" y1="21.039" stroke-width="0.576" x1="12.313" y2="24.638" x2="12.313"/>
    <line  fill="none" stroke="#FFFFFF" stroke-linecap="round" y1="12.016" stroke-width="0.576" x1="26.141" y2="11.656" x2="26.141"/>
    <circle  fill="none" cx="26.141" cy="11.94" stroke="#FFFFFF" r="0.509" stroke-width="0.576"/>
    <g >
     <title >text:+</title>
     <text  fill="#FFFFFF" font-family="OCRA" transform="matrix(1 0 0 1 41.7449 38.3435)" font-size="4.176">+</text>
    </g>
    <g >
     <title >text:-</title>
     <text  fill="#FFFFFF" font-family="OCRA" transform="matrix(1 0 0 1 41.6687 21.5427)" font-size="4.176">-</text>
    </g>
    <g >
     <title >text:X</title>
     <text  fill="#FFFFFF" font-family="OCRA" transform="matrix(1 0 0 1 29.948 46.7712)" font-size="4.176">X</text>
    </g>
    <g >
     <title >text:Y</title>
     <text  fill="#FFFFFF" font-family="OCRA" transform="matrix(1 0 0 1 13.575 20.1882)" font-size="4.176">Y</text>
    </g>
    <g >
     <title >text:Z</title>
     <text  fill="#FFFFFF" font-family="OCRA" transform="matrix(1 0 0 1 30.2253 13.2263)" font-size="4.176">Z</text>
    </g>
    <g >
     <title >element:C1</title>
     <g >
      <title >package:C0402</title>
     </g>
    </g>
    <g >
     <title >element:C2</title>
     <g >
      <title >package:C0402</title>
     </g>
    </g>
    <g >
     <title >element:C3</title>
     <g >
      <title >package:C0402</title>
     </g>
    </g>
    <g >
     <title >element:C4</title>
     <g >
      <title >package:C0402</title>
     </g>
    </g>
    <g >
     <title >element:C5</title>
     <g >
      <title >package:C0402</title>
     </g>
    </g>
    <g >
     <title >element:R1</title>
     <g >
      <title >package:C0402</title>
     </g>
    </g>
    <g >
     <title >element:U$1</title>
     <g >
      <title >package:SEWTAP-SMALL</title>
     </g>
    </g>
    <g >
     <title >element:U$2</title>
     <g >
      <title >package:SEWTAP-SMALL</title>
     </g>
    </g>
    <g >
     <title >element:U$3</title>
     <g >
      <title >package:SEWTAP-SMALL</title>
     </g>
    </g>
    <g >
     <title >element:U$4</title>
     <g >
      <title >package:LOGO-LILYPAD</title>
     </g>
    </g>
    <g >
     <title >element:U$5</title>
     <g >
      <title >package:SEWTAP-SMALL</title>
     </g>
    </g>
    <g >
     <title >element:U$6</title>
     <g >
      <title >package:SEWTAP-SMALL</title>
     </g>
    </g>
    <g >
     <title >element:U$8</title>
     <g >
      <title >package:LFCSP-16</title>
      <line  fill="none" stroke="#FFFFFF" stroke-linecap="round" y1="24.094" stroke-width="0.576" x1="34.015" y2="22.677" x2="32.598"/>
      <line  fill="none" stroke="#FFFFFF" stroke-linecap="round" y1="32.598" stroke-width="0.576" x1="34.015" y2="34.015" x2="34.015"/>
      <line  fill="none" stroke="#FFFFFF" stroke-linecap="round" y1="34.015" stroke-width="0.576" x1="34.015" y2="34.015" x2="32.598"/>
      <line  fill="none" stroke="#FFFFFF" stroke-linecap="round" y1="34.015" stroke-width="0.576" x1="24.094" y2="34.015" x2="22.677"/>
      <line  fill="none" stroke="#FFFFFF" stroke-linecap="round" y1="34.015" stroke-width="0.576" x1="22.677" y2="32.598" x2="22.677"/>
      <line  fill="none" stroke="#FFFFFF" stroke-linecap="round" y1="24.094" stroke-width="0.576" x1="22.677" y2="22.677" x2="22.677"/>
      <line  fill="none" stroke="#FFFFFF" stroke-linecap="round" y1="22.677" stroke-width="0.576" x1="22.677" y2="22.677" x2="24.094"/>
     </g>
    </g>
    <g >
     <title >element:U$13</title>
     <g >
      <title >package:SEWTAP-NOHOLE</title>
     </g>
    </g>
   </g>
   <g >
    <title >layer 1</title>
    <g >
     <title >element:C1</title>
     <g >
      <title >package:C0402</title>
     </g>
    </g>
    <g >
     <title >element:C2</title>
     <g >
      <title >package:C0402</title>
     </g>
    </g>
    <g >
     <title >element:C3</title>
     <g >
      <title >package:C0402</title>
     </g>
    </g>
    <g >
     <title >element:C4</title>
     <g >
      <title >package:C0402</title>
     </g>
    </g>
    <g >
     <title >element:C5</title>
     <g >
      <title >package:C0402</title>
     </g>
    </g>
    <g >
     <title >element:R1</title>
     <g >
      <title >package:C0402</title>
     </g>
    </g>
    <g >
     <title >element:U$1</title>
     <g >
      <title >package:SEWTAP-SMALL</title>
      <g >
       <title >polygon</title>
       <g >
        <path  fill="#FFFFFF" d="M48.672,24.747c-0.031,0-0.062-0.005-0.094-0.016c-0.001,0-0.002-0.001-0.003-0.001l0,0c0,0,0,0-0.001,0l0,0c0,0,0,0-0.001,0l0,0h-0.001c0,0,0,0,0,0h-0.001l0,0c-0.001,0-0.001,0-0.001,0l0,0c-0.001,0-0.001,0-0.001,0l0,0c-0.001,0-0.001,0-0.001,0h-0.001c-0.03-0.012-0.058-0.029-0.082-0.049c-0.021-0.019-0.041-0.041-0.058-0.066c0,0,0,0,0,0l0,0c-0.003-0.005-0.006-0.01-0.009-0.015l0,0v0c-0.021-0.038-0.032-0.078-0.034-0.118c-0.003-0.033,0.001-0.066,0.011-0.1l0,0c0,0,0,0,0,0c0.001-0.005,0.003-0.01,0.005-0.015l0.388-1.124l0.221-1.15l0.056-1.17l-0.112-1.166l-0.276-1.138l0.189-1.087l-0.317-1.014l-1.616-0.92l-0.847-0.809l-0.954-0.679l-1.041-0.537l-1.106-0.384l-1.169-0.227c-0.041-0.008-0.078-0.024-0.11-0.046c-0.029-0.021-0.056-0.047-0.076-0.08c-0.007-0.009-0.012-0.019-0.017-0.029c0,0,0,0,0,0l0,0c-0.013-0.024-0.021-0.049-0.025-0.075l0,0c0,0,0,0,0,0c0,0,0,0,0,0l0,0c-0.005-0.028-0.006-0.056-0.003-0.085c0,0,0,0,0,0c0,0,0,0,0,0v0l0,0c0.001-0.009,0.003-0.018,0.005-0.026v0c0,0,0,0,0,0c0.008-0.038,0.023-0.072,0.044-0.102c0.021-0.031,0.05-0.059,0.083-0.08c0,0,0.001,0,0.001,0l0,0c0.002-0.001,0.003-0.002,0.005-0.003l0.873-0.531c0.009-0.005,0.018-0.011,0.026-0.015c0.008-0.003,0.015-0.007,0.022-0.01l0.941-0.39c0.009-0.004,0.018-0.007,0.027-0.01c0.008-0.002,0.017-0.005,0.025-0.007l0.99-0.24c0.008-0.002,0.016-0.004,0.023-0.005c0.01-0.002,0.02-0.003,0.029-0.004l1.014-0.087c0.011-0.001,0.027-0.006,0.03-0.001c0.009,0,0.017,0,0.025,0.001l1.016,0.07c0.009,0,0.019,0.001,0.027,0.003c0.009,0.001,0.018,0.003,0.026,0.005l0.994,0.224c0.009,0.002,0.018,0.004,0.026,0.007c0.009,0.003,0.018,0.006,0.025,0.009l0.947,0.373c0.009,0.003,0.019,0.007,0.027,0.012c0.007,0.004,0.015,0.008,0.021,0.012l0.88,0.514c0.008,0.004,0.016,0.009,0.023,0.015c0.007,0.005,0.015,0.011,0.021,0.017l0.791,0.642c0.007,0.005,0.013,0.011,0.02,0.017c0.007,0.007,0.014,0.014,0.02,0.021l0.683,0.755c0.007,0.007,0.013,0.014,0.019,0.022c0.005,0.007,0.01,0.014,0.015,0.021l0.561,0.852c0.004,0.006,0.008,0.012,0.011,0.018c0.004,0.006,0.007,0.012,0.01,0.019l0.458,0.911c0.005,0.009,0.009,0.018,0.013,0.028c0.003,0.007,0.006,0.015,0.008,0.023l0.312,0.969c0.003,0.008,0.005,0.017,0.007,0.025c0.003,0.009,0.005,0.019,0.006,0.028l0.161,1.006c0.002,0.009,0.003,0.017,0.004,0.026c0.001,0.01,0.001,0.02,0.001,0.029l0.005,1.018c0,0.009,0,0.018-0.001,0.027c0,0.009-0.002,0.018-0.003,0.027l-0.149,1.007c-0.002,0.01-0.004,0.02-0.006,0.03c-0.002,0.008-0.004,0.016-0.007,0.023l-0.304,0.973c-0.003,0.008-0.006,0.017-0.009,0.025s-0.007,0.017-0.011,0.025l-0.448,0.914c-0.004,0.009-0.008,0.017-0.013,0.025c-0.005,0.008-0.01,0.015-0.015,0.022l-0.582,0.835c-0.005,0.007-0.011,0.015-0.017,0.021c-0.006,0.007-0.012,0.014-0.018,0.021l-0.704,0.738c-0.006,0.006-0.012,0.012-0.018,0.017c-0.008,0.007-0.016,0.014-0.023,0.02l-0.807,0.619c-0.008,0.006-0.015,0.011-0.023,0.017c-0.007,0.005-0.015,0.009-0.022,0.013l-0.897,0.493c-0.036,0.02-0.075,0.031-0.113,0.035c0,0,0,0-0.001,0l0,0C48.688,24.746,48.679,24.747,48.672,24.747z"/>
       </g>
      </g>
     </g>
    </g>
    <g >
     <title >element:U$2</title>
     <g >
      <title >package:SEWTAP-SMALL</title>
      <title >polygon</title>
     </g>
    </g>
    <path  fill="#FFFFFF" d="M35.437,47.899c0-0.002,0-0.004,0-0.006c-0.002-0.04-0.012-0.077-0.027-0.11c-0.017-0.035-0.04-0.067-0.071-0.095c-0.004-0.004-0.008-0.007-0.013-0.011h-0.001c-0.025-0.021-0.054-0.035-0.084-0.046c0,0,0,0-0.001,0c-0.023-0.008-0.048-0.013-0.073-0.014c-0.001,0-0.001,0-0.001,0c-0.011-0.002-0.02-0.001-0.03-0.001c-0.039,0.002-0.075,0.012-0.108,0.027c-0.036,0.017-0.068,0.041-0.096,0.072l-0.78,0.9l-0.886,0.766l-0.985,0.632l-1.065,0.487l-1.124,0.329l-1.158,0.813l-1.172-0.003l-1.158-0.811l-1.124-0.329l-1.066-0.487l-0.985-0.632l-0.886-0.766l-0.78-0.9c-0.028-0.032-0.062-0.057-0.098-0.073c-0.033-0.015-0.068-0.024-0.106-0.026c-0.004,0-0.009,0-0.014,0c-0.005,0-0.013,0.003-0.017,0.001c0,0,0,0,0,0c-0.025,0.001-0.05,0.006-0.074,0.014c-0.035,0.012-0.068,0.03-0.097,0.056c-0.033,0.028-0.057,0.062-0.074,0.099c-0.015,0.032-0.024,0.069-0.025,0.107c0,0.002,0,0.004,0,0.006l-0.023,1.023c0,0.009,0,0.017,0,0.025c0,0.01,0.001,0.02,0.003,0.029l0.134,1.01c0.001,0.009,0.002,0.019,0.004,0.027s0.004,0.018,0.007,0.025l0.286,0.977c0.002,0.01,0.005,0.02,0.009,0.028c0.003,0.008,0.006,0.016,0.01,0.023l0.432,0.922c0.004,0.009,0.008,0.017,0.013,0.024c0.004,0.009,0.009,0.016,0.015,0.023l0.568,0.845c0.005,0.008,0.01,0.016,0.016,0.023c0.006,0.007,0.011,0.013,0.018,0.02l0.691,0.749c0.005,0.007,0.011,0.013,0.018,0.019c0.007,0.007,0.015,0.013,0.022,0.019l0.797,0.634c0.006,0.005,0.013,0.01,0.02,0.015c0.008,0.006,0.017,0.011,0.025,0.016l0.885,0.505c0.007,0.004,0.015,0.008,0.023,0.012s0.017,0.008,0.026,0.011l0.951,0.364c0.008,0.003,0.015,0.006,0.023,0.008c0.01,0.003,0.02,0.006,0.029,0.007l0.995,0.215c0.009,0.002,0.019,0.004,0.028,0.005c0.009,0.002,0.018,0.002,0.026,0.003l1.018,0.058c0.007,0.001,0.021,0.002,0.021,0.001c0,0,0,0,0,0c0.007,0,0.014,0,0.02-0.001l1.019-0.058c0.008-0.001,0.017-0.001,0.025-0.003c0.01-0.001,0.02-0.003,0.028-0.005l0.996-0.215c0.01-0.001,0.019-0.004,0.028-0.007c0.008-0.002,0.016-0.005,0.023-0.008l0.951-0.364c0.009-0.003,0.018-0.006,0.026-0.011c0.008-0.004,0.016-0.008,0.023-0.012l0.884-0.505c0.009-0.005,0.018-0.01,0.025-0.016c0.007-0.005,0.014-0.01,0.02-0.015l0.797-0.634c0.008-0.006,0.016-0.012,0.022-0.019c0.006-0.006,0.012-0.012,0.018-0.019l0.691-0.749c0.006-0.007,0.012-0.013,0.018-0.02c0.006-0.008,0.012-0.016,0.017-0.023l0.568-0.845c0.005-0.008,0.01-0.015,0.015-0.023c0.004-0.008,0.008-0.016,0.012-0.024l0.433-0.922c0.004-0.008,0.007-0.016,0.011-0.024c0.003-0.009,0.006-0.018,0.008-0.026l0.288-0.978c0.002-0.008,0.004-0.016,0.006-0.024c0.002-0.01,0.004-0.02,0.005-0.029l0.134-1.009c0.001-0.009,0.002-0.019,0.003-0.028c0-0.009,0-0.018,0-0.026L35.437,47.899z"/>
    <g >
     <title >element:U$3</title>
     <g >
      <title >package:SEWTAP-SMALL</title>
      <g >
       <title >polygon</title>
       <g >
        <path  fill="#FFFFFF" d="M7.993,24.747c-0.008,0-0.016,0-0.024-0.001c0,0,0,0,0,0l0,0c-0.037-0.003-0.074-0.014-0.109-0.032l0,0c0,0,0,0-0.001,0h0c0.001,0-0.002,0-0.004-0.002l-0.897-0.492c-0.007-0.004-0.015-0.008-0.022-0.013c-0.008-0.005-0.016-0.011-0.023-0.017L6.104,23.57c-0.008-0.006-0.016-0.013-0.023-0.02c-0.006-0.005-0.012-0.011-0.018-0.017L5.36,22.795c-0.006-0.006-0.013-0.013-0.019-0.021c-0.006-0.007-0.011-0.014-0.016-0.021l-0.582-0.835c-0.005-0.007-0.01-0.014-0.014-0.022c-0.005-0.008-0.009-0.017-0.014-0.025l-0.447-0.914c-0.004-0.008-0.008-0.017-0.012-0.026c-0.003-0.008-0.006-0.016-0.008-0.024l-0.304-0.973c-0.002-0.007-0.005-0.015-0.007-0.023c-0.002-0.01-0.004-0.02-0.005-0.03l-0.15-1.007c-0.001-0.009-0.002-0.018-0.003-0.027c-0.001-0.009-0.001-0.018-0.001-0.027l0.005-1.018c0-0.009,0-0.019,0.001-0.029c0.001-0.009,0.002-0.017,0.003-0.025l0.162-1.007c0.001-0.009,0.003-0.019,0.005-0.028c0,0,0,0,0,0l0,0c0.002-0.008,0.004-0.016,0.007-0.024l0.312-0.969c0.002-0.008,0.005-0.016,0.008-0.023c0.004-0.01,0.008-0.019,0.013-0.028l0.458-0.911c0.003-0.006,0.006-0.012,0.01-0.018c0.003-0.006,0.007-0.013,0.011-0.019l0.561-0.852c0.004-0.007,0.009-0.014,0.015-0.021c0.006-0.008,0.012-0.015,0.019-0.021l0.682-0.755c0.006-0.007,0.013-0.014,0.02-0.021c0.006-0.006,0.013-0.011,0.02-0.017l0.791-0.642c0.007-0.006,0.016-0.013,0.024-0.018c0.007-0.005,0.014-0.009,0.021-0.013l0.88-0.515c0.008-0.004,0.016-0.009,0.024-0.013c0.008-0.004,0.017-0.008,0.025-0.011l0.947-0.373c0.008-0.003,0.017-0.006,0.026-0.009c0.008-0.002,0.017-0.005,0.026-0.007l0.994-0.224c0.009-0.002,0.018-0.004,0.026-0.005c0.009-0.001,0.019-0.002,0.028-0.002l1.016-0.07c0.01,0,0.022,0.003,0.027-0.001c0.009,0,0.019,0,0.028,0.001l1.014,0.087c0.01,0.001,0.02,0.002,0.03,0.004c0.008,0.001,0.016,0.003,0.023,0.005l0.991,0.24c0.008,0.002,0.017,0.004,0.025,0.007c0.009,0.003,0.018,0.006,0.027,0.01l0.941,0.39c0.008,0.003,0.015,0.006,0.022,0.01c0.009,0.005,0.018,0.01,0.027,0.015l0.873,0.53c0.004,0.002,0.008,0.005,0.012,0.007c0,0,0,0,0,0l0,0c0.03,0.02,0.055,0.045,0.075,0.073c0.021,0.031,0.038,0.066,0.046,0.104c0,0,0,0,0,0v0c0.002,0.01,0.004,0.021,0.005,0.031c0,0,0,0,0,0l0,0c0.002,0.024,0.002,0.048-0.001,0.071c0,0,0,0,0,0l0,0c-0.005,0.037-0.018,0.074-0.039,0.108c-0.021,0.035-0.048,0.063-0.08,0.085c-0.032,0.023-0.07,0.04-0.112,0.048l-1.169,0.227l-1.107,0.384l-1.041,0.537l-0.954,0.679l-0.847,0.809l-1.356,0.655l-0.58,1.28l0.191,1.087l-0.276,1.138L7.6,20.919l0.056,1.17l0.221,1.15l0.388,1.125c0.001,0.003,0.002,0.007,0.003,0.011c0,0,0,0,0,0c0,0,0,0,0,0c0.011,0.036,0.015,0.073,0.012,0.108c-0.003,0.039-0.015,0.078-0.035,0.115c0,0,0,0,0,0h0c0,0,0,0,0,0.001v0l0,0c0,0,0,0,0,0v0c0,0,0,0,0,0.001l0,0c0,0,0,0,0,0.001l0,0c0,0,0,0.001-0.001,0.001l0,0c0,0,0,0.001,0,0.001v0c0,0,0,0,0,0.001l0,0c0,0,0,0,0,0.001c0,0,0,0,0,0l0,0c-0.017,0.027-0.037,0.051-0.06,0.071c-0.024,0.02-0.051,0.037-0.082,0.048l0,0c0,0,0,0-0.001,0l0,0c0,0,0.001,0-0.001,0l0,0c0,0-0.001,0-0.001,0l0,0c0,0,0,0-0.001,0l0,0c0,0,0,0-0.001,0l0,0c-0.001,0-0.002,0.001-0.002,0.001c0,0,0,0,0,0c0,0,0,0-0.001,0l0,0c0,0-0.001,0-0.001,0C8.056,24.742,8.024,24.747,7.993,24.747z"/>
       </g>
      </g>
     </g>
    </g>
    <g >
     <title >element:U$4</title>
     <g >
      <title >package:LOGO-LILYPAD</title>
     </g>
    </g>
    <g >
     <title >element:U$5</title>
     <g >
      <title >package:SEWTAP-SMALL</title>
      <g >
       <title >polygon</title>
       <g >
        <path  fill="#FFFFFF" d="M35.149,9.075c-0.031-0.001-0.084-0.009-0.123-0.027l0,0l0,0c-0.034-0.016-0.065-0.039-0.092-0.069l0,0c0.001,0.001-0.001-0.001-0.003-0.004l-0.78-0.898L33.265,7.31L32.28,6.678l-1.065-0.487l-1.124-0.329l-1.158-0.784H27.76l-1.158,0.784l-1.124,0.329l-1.066,0.487L23.427,7.31l-0.886,0.766l-0.78,0.898c-0.001,0.002-0.003,0.004-0.003,0.004l0,0c-0.026,0.029-0.057,0.052-0.09,0.067c-0.037,0.019-0.077,0.029-0.125,0.029c-0.037,0-0.071-0.007-0.104-0.019v0c0,0-0.001,0-0.001,0c-0.022-0.009-0.043-0.02-0.062-0.034c0,0,0,0,0,0s0-0.001-0.001-0.001l0,0c-0.009-0.007-0.018-0.014-0.026-0.021c-0.028-0.026-0.05-0.057-0.066-0.09c-0.015-0.032-0.025-0.068-0.027-0.105c0-0.004,0-0.008,0-0.012L21.233,7.77c0-0.008,0-0.016,0-0.024c0-0.01,0.001-0.021,0.003-0.03l0.134-1.009c0.001-0.009,0.002-0.019,0.005-0.028c0.001-0.008,0.004-0.017,0.006-0.025l0.286-0.977c0.002-0.009,0.005-0.019,0.009-0.028c0.003-0.008,0.006-0.015,0.01-0.022l0.432-0.923c0.004-0.008,0.008-0.016,0.013-0.024c0.004-0.008,0.009-0.016,0.015-0.023l0.568-0.845c0.006-0.009,0.012-0.017,0.019-0.025c0.005-0.006,0.01-0.012,0.015-0.017l0.692-0.749C23.445,3.012,23.451,3.006,23.458,3c0.006-0.006,0.013-0.012,0.021-0.018l0.796-0.634c0.008-0.006,0.016-0.012,0.024-0.018c0.007-0.004,0.014-0.009,0.021-0.013l0.885-0.505c0.007-0.004,0.015-0.009,0.023-0.013s0.017-0.007,0.025-0.011l0.952-0.363c0.008-0.003,0.017-0.006,0.025-0.009c0.009-0.003,0.018-0.005,0.027-0.007l0.995-0.213c0.01-0.002,0.02-0.004,0.029-0.005c0.008-0.001,0.017-0.002,0.025-0.002l1.018-0.059c0.007,0,0.021-0.001,0.021-0.001c0.001,0.001,0.014,0,0.021,0.001l1.018,0.059c0.009,0,0.017,0.001,0.025,0.002c0.01,0.001,0.02,0.003,0.028,0.005l0.996,0.213c0.009,0.002,0.018,0.004,0.027,0.007c0.008,0.002,0.017,0.005,0.024,0.009l0.951,0.363c0.009,0.003,0.018,0.007,0.026,0.011c0.008,0.004,0.016,0.008,0.023,0.013l0.885,0.505c0.007,0.004,0.014,0.008,0.021,0.013c0.008,0.006,0.016,0.012,0.023,0.018l0.797,0.634C33.221,2.988,33.228,2.993,33.235,3s0.013,0.013,0.019,0.019l0.691,0.749c0.006,0.005,0.011,0.011,0.016,0.017c0.007,0.008,0.013,0.017,0.019,0.025l0.568,0.845c0.005,0.007,0.01,0.015,0.015,0.023c0.004,0.008,0.009,0.016,0.012,0.024l0.433,0.922c0.004,0.008,0.007,0.016,0.011,0.024c0.003,0.009,0.006,0.018,0.008,0.026l0.288,0.978c0.002,0.008,0.004,0.016,0.006,0.024l0,0v0c0.002,0.009,0.004,0.019,0.005,0.029l0.134,1.009c0.001,0.009,0.002,0.019,0.003,0.028c0,0.009,0,0.018,0,0.027l-0.023,1.021c0,0.004,0,0.008-0.001,0.012c-0.002,0.037-0.011,0.071-0.025,0.103c-0.017,0.036-0.041,0.07-0.073,0.098c-0.002,0.001-0.004,0.003-0.006,0.005l0,0c0,0-0.001,0-0.001,0.001l0,0c-0.024,0.02-0.051,0.035-0.078,0.045c-0.001,0-0.001,0-0.001,0h-0.001C35.219,9.068,35.185,9.075,35.149,9.075z"/>
       </g>
      </g>
     </g>
    </g>
    <g >
     <title >element:U$6</title>
     <g >
      <title >package:SEWTAP-SMALL</title>
      <g >
       <title >polygon</title>
       <g >
        <path  fill="#FFFFFF" d="M45.723,45.563c-0.003-0.004-0.02-0.001-0.03-0.002l-1.014-0.087c-0.01,0-0.02-0.002-0.029-0.003c-0.008-0.002-0.016-0.003-0.023-0.006l-0.99-0.239c-0.009-0.002-0.018-0.004-0.025-0.007c-0.01-0.003-0.019-0.007-0.027-0.011l-0.941-0.39c-0.008-0.003-0.015-0.006-0.022-0.01c-0.009-0.004-0.018-0.009-0.026-0.015l-0.872-0.53c-0.004-0.002-0.008-0.005-0.012-0.007c0-0.001-0.001-0.001-0.001-0.001l0,0c-0.03-0.021-0.056-0.045-0.075-0.073c-0.021-0.03-0.037-0.065-0.046-0.104l0,0c0,0,0,0,0-0.001c-0.002-0.008-0.004-0.017-0.005-0.025v-0.001l0,0v-0.001l0,0c-0.003-0.028-0.002-0.058,0.003-0.085l0,0l0,0c0-0.001,0-0.001,0-0.001l0,0c0.005-0.025,0.013-0.051,0.025-0.075l0,0l0,0c0.005-0.01,0.01-0.02,0.017-0.028c0.02-0.032,0.045-0.058,0.074-0.078c0.032-0.023,0.07-0.04,0.112-0.049l1.169-0.227l1.106-0.384l1.041-0.536l0.954-0.68l0.847-0.809l1.944-0.921l0.455-1.014l-0.655-1.087l0.276-1.138l0.112-1.166l-0.056-1.17l-0.221-1.15L48.4,32.331c-0.002-0.006-0.004-0.011-0.005-0.016l0,0v-0.001c-0.01-0.033-0.014-0.066-0.011-0.1c0.002-0.04,0.014-0.08,0.034-0.118l0,0l0,0c0.003-0.005,0.006-0.01,0.009-0.015l0,0c0-0.001,0-0.001,0.001-0.001V32.08l0,0c0.015-0.023,0.032-0.044,0.052-0.061v-0.001l0,0c0.028-0.024,0.061-0.044,0.098-0.057c0.039-0.014,0.077-0.021,0.118-0.015c0.037,0.003,0.075,0.014,0.11,0.032c0,0.001,0,0.001,0,0.001c0.001,0,0.001,0,0.001,0c0.001,0.001,0.002,0.001,0.003,0.002l0.897,0.492c0.008,0.004,0.016,0.009,0.022,0.014c0.009,0.005,0.016,0.01,0.023,0.016l0.807,0.62c0.008,0.006,0.016,0.012,0.023,0.019c0.006,0.006,0.012,0.012,0.018,0.018l0.704,0.738c0.006,0.006,0.012,0.013,0.018,0.02c0.006,0.008,0.012,0.015,0.017,0.022l0.582,0.835c0.005,0.007,0.01,0.015,0.015,0.021c0.005,0.009,0.009,0.018,0.013,0.025l0.448,0.915c0.004,0.008,0.008,0.016,0.011,0.024s0.006,0.017,0.009,0.025l0.304,0.973c0.003,0.008,0.005,0.016,0.007,0.023c0.002,0.011,0.004,0.021,0.006,0.03l0.149,1.007c0.001,0.009,0.003,0.019,0.003,0.027c0.001,0.009,0.001,0.019,0.001,0.027l-0.005,1.018c0,0.01,0,0.02-0.001,0.028s-0.002,0.018-0.004,0.026l-0.161,1.006c-0.001,0.01-0.003,0.019-0.006,0.028l0,0c0,0,0,0,0,0.001c-0.002,0.008-0.004,0.016-0.007,0.023l-0.312,0.97c-0.002,0.008-0.005,0.015-0.008,0.022c-0.004,0.01-0.008,0.019-0.013,0.027l-0.458,0.911c-0.003,0.007-0.006,0.013-0.01,0.02c-0.003,0.006-0.007,0.012-0.011,0.018l-0.561,0.852c-0.004,0.007-0.009,0.014-0.014,0.02c-0.006,0.008-0.013,0.016-0.02,0.023l-0.683,0.756c-0.006,0.007-0.013,0.014-0.02,0.021c-0.006,0.006-0.013,0.012-0.02,0.017l-0.791,0.642c-0.007,0.006-0.015,0.011-0.021,0.016c-0.008,0.006-0.016,0.011-0.023,0.015l-0.88,0.515c-0.007,0.004-0.015,0.009-0.022,0.012c-0.009,0.005-0.018,0.009-0.026,0.012l-0.947,0.373c-0.009,0.004-0.017,0.007-0.025,0.01s-0.018,0.005-0.026,0.007l-0.994,0.225c-0.009,0.002-0.018,0.003-0.026,0.005c-0.01,0.001-0.019,0.002-0.027,0.003l-1.016,0.069C45.74,45.563,45.732,45.563,45.723,45.563z"/>
       </g>
      </g>
     </g>
    </g>
    <g >
     <title >element:U$8</title>
     <g >
      <title >package:LFCSP-16</title>
     </g>
    </g>
    <g >
     <title >element:U$13</title>
     <g >
      <title >package:SEWTAP-NOHOLE</title>
      <g >
       <title >polygon</title>
       <g >
        <path  fill="#FFFFFF" d="M10.969,45.563c-0.008,0-0.016,0-0.024-0.001l-1.016-0.069C9.92,45.492,9.91,45.491,9.901,45.49c-0.009-0.002-0.018-0.003-0.026-0.005L8.881,45.26c-0.009-0.002-0.018-0.004-0.027-0.007s-0.017-0.006-0.025-0.01l-0.947-0.373c-0.009-0.003-0.017-0.007-0.025-0.011s-0.016-0.008-0.024-0.013l-0.88-0.515c-0.007-0.004-0.015-0.009-0.021-0.014c-0.008-0.005-0.016-0.011-0.023-0.017l-0.79-0.642c-0.007-0.005-0.014-0.011-0.021-0.018c-0.007-0.006-0.013-0.013-0.02-0.02l-0.683-0.756c-0.006-0.007-0.013-0.015-0.019-0.021c-0.005-0.008-0.01-0.015-0.015-0.021l-0.561-0.852c-0.004-0.006-0.008-0.012-0.011-0.019c-0.003-0.006-0.007-0.012-0.01-0.019l-0.458-0.911c-0.005-0.009-0.009-0.018-0.013-0.027c-0.003-0.008-0.006-0.015-0.008-0.022l-0.312-0.97c-0.003-0.008-0.005-0.016-0.007-0.024l0,0l0,0c-0.002-0.01-0.004-0.019-0.005-0.028l-0.162-1.006c-0.001-0.009-0.002-0.018-0.003-0.026c0-0.009-0.001-0.019-0.001-0.028l-0.005-1.018c0-0.009,0-0.019,0.001-0.027c0-0.009,0.001-0.019,0.003-0.027l0.15-1.007c0.001-0.01,0.003-0.021,0.006-0.03c0.001-0.008,0.004-0.016,0.006-0.022l0.304-0.974c0.002-0.008,0.005-0.017,0.008-0.024c0.003-0.009,0.007-0.018,0.012-0.025l0.447-0.915c0.004-0.009,0.009-0.017,0.014-0.025c0.004-0.007,0.009-0.015,0.014-0.021l0.582-0.835c0.005-0.008,0.011-0.015,0.016-0.022c0.006-0.007,0.012-0.014,0.018-0.02l0.704-0.738c0.006-0.006,0.012-0.012,0.018-0.018c0.007-0.007,0.015-0.013,0.023-0.019l0.807-0.62c0.007-0.006,0.015-0.011,0.023-0.016c0.007-0.005,0.015-0.01,0.022-0.014l0.898-0.493c0.036-0.02,0.075-0.03,0.113-0.034c0,0,0,0,0.001,0l0,0c0.039-0.004,0.075,0.002,0.113,0.013c0.009,0.003,0.018,0.007,0.026,0.01c0,0,0,0,0,0.001h0c0,0,0,0,0.001,0l0,0c0.024,0.011,0.046,0.024,0.065,0.04c0.025,0.021,0.047,0.046,0.065,0.074c0,0.001,0,0.001,0,0.001h0v0.001c0,0,0,0,0,0c0,0.001,0,0.001,0,0.001l0,0c0,0.001,0,0.001,0,0.001l0,0c0,0.001,0,0.001,0.001,0.001c0,0,0,0,0,0.001h0c0,0.001,0,0.001,0,0.001s0,0,0,0.001c0,0,0,0,0,0c0,0,0,0,0,0.001h0c0,0,0.002-0.009,0,0.002h0l0,0c0.02,0.037,0.031,0.076,0.035,0.115c0.003,0.035,0,0.072-0.012,0.108l0,0c0,0,0,0,0,0c-0.001,0.004-0.002,0.007-0.003,0.011l-0.388,1.124l-0.221,1.15l-0.056,1.17L7.74,36.94l0.276,1.138l0.435,1.087l0.586,1.014l0.724,0.921l0.847,0.809l0.954,0.68l1.041,0.536l1.107,0.384l1.169,0.227c0.041,0.009,0.078,0.024,0.109,0.047c0.032,0.021,0.061,0.051,0.082,0.087c0.021,0.034,0.034,0.07,0.039,0.108l0,0l0,0c0.003,0.023,0.004,0.047,0.001,0.071l0,0l0,0c-0.001,0.011-0.003,0.021-0.005,0.03c0,0.001,0,0.001,0,0.001l0,0c-0.008,0.038-0.023,0.072-0.044,0.103s-0.049,0.058-0.083,0.079c0,0,0,0.001,0,0.001c-0.001,0.001-0.003,0.002-0.005,0.003l-0.873,0.53c-0.009,0.006-0.018,0.011-0.027,0.015c-0.007,0.004-0.014,0.007-0.022,0.01l-0.941,0.39c-0.009,0.004-0.018,0.008-0.027,0.011s-0.017,0.005-0.025,0.007l-0.991,0.239c-0.008,0.003-0.016,0.004-0.023,0.006c-0.01,0.001-0.02,0.003-0.03,0.003l-1.014,0.087C10.989,45.562,10.985,45.564,10.969,45.563z"/>
       </g>
      </g>
     </g>
    </g>
   </g>
   <rect  width="11.338" x="22.677" y="22.677" fill="#FFFFFF" height="11.338" fill-opacity="0.15"/>
   <circle  fill="none" cx="46.743" cy="17.717" stroke="#9A916C" id="connector12pin" r="2.133" stroke-width="0.864"/>
   <circle  fill="none" cx="28.346" cy="49.606" stroke="#9A916C" id="connector13pin" r="2.133" stroke-width="0.864"/>
   <circle  fill="none" cx="9.922" cy="17.717" stroke="#9A916C" id="connector14pin" r="2.133" stroke-width="0.864"/>
   <circle  fill="none" cx="28.346" cy="7.087" stroke="#9A916C" id="connector15pin" r="2.133" stroke-width="0.864"/>
   <circle  fill="none" cx="46.743" cy="38.976" stroke="#9A916C" id="connector16pin" r="2.133" stroke-width="0.864"/>
  </g>
 </g>
</svg>
