<?xml version='1.0' encoding='utf-8'?>
<!DOCTYPE svg PUBLIC '-//W3C//DTD SVG 1.1//EN' 'http://www.w3.org/Graphics/SVG/1.1/DTD/svg11.dtd'>
<!-- Generator: Adobe Illustrator 15.0.1, SVG Export Plug-In . SVG Version: 6.00 Build 0)  -->
<svg xmlns="http://www.w3.org/2000/svg" width="0.787403in" xml:space="preserve" xmlns:xml="http://www.w3.org/XML/1998/namespace" x="0px" version="1.1" y="0px" height="0.787403in" viewBox="0 0 56.693 56.693" id="Ebene_1" enable-background="new 0 0 56.693 56.693">
 <desc >Fritzing breadboard generated by brd2svg</desc>
 <g  id="breadboard">
  <g  id="icon">
   <path  fill="#672E58" d="M0,28.346C-0.028,44,12.639,56.715,28.293,56.744c15.656,0.029,28.371-12.638,28.4-28.293c0-0.035,0-0.071,0-0.104C56.722,12.691,44.055-0.024,28.4-0.053C12.744-0.082,0.029,12.585,0,28.24C0,28.275,0,28.311,0,28.346z M43.653,38.976c0-1.724,1.396-3.118,3.118-3.118c1.722,0,3.118,1.396,3.118,3.118c0,1.722-1.396,3.116-3.118,3.116C45.049,42.093,43.653,40.698,43.653,38.976z M6.832,38.976c0-1.724,1.396-3.118,3.118-3.118s3.118,1.396,3.118,3.118c0,1.722-1.396,3.116-3.118,3.116C8.227,42.094,6.832,40.698,6.832,38.976z M25.228,7.087c-0.001-1.723,1.395-3.119,3.117-3.119c1.722-0.001,3.116,1.396,3.117,3.116c0,0.001,0,0.002,0,0.003c0.001,1.724-1.395,3.118-3.115,3.119c-1.724,0.001-3.118-1.395-3.119-3.117C25.228,7.089,25.228,7.088,25.228,7.087z"/>
   <g >
    <title >layer 21</title>
    <g >
     <title >text:S</title>
     <text  fill="#FFFFFF" font-family="OCRA" transform="matrix(1 0 0 1 26.6453 18.1414)" font-size="5.8464">S</text>
    </g>
    <g >
     <title >text:-</title>
     <text  fill="#FFFFFF" font-family="OCRA" transform="matrix(1 0 0 1 16.1062 40.5867)" font-size="5.8464">-</text>
    </g>
    <g >
     <title >text:+</title>
     <text  fill="#FFFFFF" font-family="OCRA" transform="matrix(1 0 0 1 36.9861 40.5867)" font-size="5.8464">+</text>
    </g>
    <g >
     <title >element:LIGHT+</title>
     <g >
      <title >package:PETAL-SMALL-2SIDE</title>
     </g>
    </g>
    <g >
     <title >element:LIGHT-</title>
     <g >
      <title >package:PETAL-SMALL-2SIDE</title>
     </g>
    </g>
    <g >
     <title >element:LIGHT1</title>
     <g >
      <title >package:PETAL-NOHOLE-2SIDE</title>
     </g>
    </g>
    <g >
     <title >element:LIGHT2</title>
     <g >
      <title >package:PETAL-NOHOLE-2SIDE</title>
     </g>
    </g>
    <g >
     <title >element:LIGHT3</title>
     <g >
      <title >package:PETAL-NOHOLE-2SIDE</title>
     </g>
    </g>
    <g >
     <title >element:LIGHTS</title>
     <g >
      <title >package:PETAL-SMALL-2SIDE</title>
     </g>
    </g>
    <g >
     <title >element:R1</title>
     <g >
      <title >package:0402-RES</title>
     </g>
    </g>
    <g >
     <title >element:U$2</title>
     <g >
      <title >package:LOGO-LILYPAD</title>
     </g>
    </g>
    <g >
     <title >element:U1</title>
     <g >
      <title >package:TEMT6000-SEN</title>
      <line  fill="none" stroke="#FFFFFF" stroke-linecap="round" y1="34.015" stroke-width="0.36" x1="30.501" y2="34.015" x2="31.096"/>
      <line  fill="none" stroke="#FFFFFF" stroke-linecap="round" y1="34.015" stroke-width="0.36" x1="31.096" y2="25.625" x2="31.096"/>
      <line  fill="none" stroke="#FFFFFF" stroke-linecap="round" y1="34.015" stroke-width="0.36" x1="26.192" y2="34.015" x2="25.54"/>
      <line  fill="none" stroke="#FFFFFF" stroke-linecap="round" y1="34.015" stroke-width="0.36" x1="25.54" y2="25.54" x2="25.54"/>
      <line  fill="none" stroke="#FFFFFF" stroke-linecap="round" y1="22.706" stroke-width="0.36" x1="28.148" y2="22.706" x2="28.573"/>
     </g>
    </g>
   </g>
   <g >
    <title >layer 1</title>
    <g >
     <title >element:LIGHT+</title>
     <g >
      <title >package:PETAL-SMALL-2SIDE</title>
      <title >polygon</title>
     </g>
    </g>
    <g >
     <title >element:LIGHT-</title>
     <g >
      <title >package:PETAL-SMALL-2SIDE</title>
      <title >polygon</title>
     </g>
    </g>
    <g >
     <title >element:LIGHT1</title>
     <g >
      <title >package:PETAL-NOHOLE-2SIDE</title>
      <title >polygon</title>
     </g>
    </g>
    <g >
     <title >element:LIGHT2</title>
     <g >
      <title >package:PETAL-NOHOLE-2SIDE</title>
      <title >polygon</title>
     </g>
    </g>
    <g >
     <title >element:LIGHT3</title>
     <g >
      <title >package:PETAL-NOHOLE-2SIDE</title>
      <title >polygon</title>
     </g>
    </g>
    <g >
     <title >element:LIGHTS</title>
     <g >
      <title >package:PETAL-SMALL-2SIDE</title>
      <title >polygon</title>
     </g>
    </g>
    <g >
     <title >element:R1</title>
     <g >
      <title >package:0402-RES</title>
     </g>
    </g>
    <g >
     <title >element:U$2</title>
     <g >
      <title >package:LOGO-LILYPAD</title>
     </g>
    </g>
    <g >
     <title >element:U1</title>
     <g >
      <title >package:TEMT6000-SEN</title>
     </g>
    </g>
   </g>
   <g >
    <path  fill="#FFFFFF" d="M52.914,37.846c-0.001-0.011-0.002-0.02-0.003-0.026l-0.148-1.007c-0.003-0.009-0.004-0.02-0.006-0.026c-0.002-0.01-0.005-0.019-0.008-0.027l-0.304-0.973c-0.002-0.008-0.005-0.017-0.009-0.022c-0.003-0.011-0.007-0.02-0.013-0.026l-0.446-0.914c-0.004-0.008-0.01-0.017-0.015-0.025c-0.005-0.007-0.01-0.015-0.015-0.021l-0.582-0.835c-0.005-0.008-0.011-0.017-0.017-0.022c-0.008-0.007-0.014-0.014-0.02-0.02l-0.702-0.74c-0.006-0.007-0.013-0.013-0.02-0.019c-0.007-0.009-0.014-0.015-0.021-0.02l-0.807-0.62c-0.007-0.005-0.014-0.01-0.021-0.015c-0.009-0.006-0.017-0.011-0.023-0.015l-0.896-0.492c-0.002-0.001-0.005-0.003-0.007-0.004c-0.035-0.02-0.069-0.028-0.105-0.031c-0.001,0-0.001,0-0.001,0c-0.04-0.006-0.079,0.001-0.118,0.015c-0.037,0.015-0.07,0.033-0.101,0.06c0,0,0,0,0,0.001c-0.02,0.018-0.035,0.038-0.052,0.062c-0.001,0-0.001,0.001-0.001,0.001s0,0,0,0.001c-0.001,0.001-0.001,0.001-0.002,0.002c-0.001,0.002-0.002,0.004-0.004,0.007c0,0,0,0,0,0.001l-0.001,0.002c0,0,0,0,0,0.002c0,0,0,0-0.001,0c-0.021,0.035-0.031,0.074-0.034,0.113c-0.003,0.035,0.001,0.072,0.012,0.108c0.001,0.004,0.005,0.007,0.006,0.011l0.388,1.124l0.221,1.15l0.058,1.17L48.98,36.94l0.573,1.987l0.478,1.494l-0.586,1.015l-1.637,0.514l-1.696-0.041l-0.954,0.68l-1.041,0.536l-1.104,0.384l-1.171,0.229c-0.042,0.009-0.079,0.023-0.111,0.049v0.001c0,0,0,0-0.001,0c-0.027,0.021-0.053,0.044-0.071,0.074c-0.008,0.012-0.015,0.021-0.021,0.036c-0.012,0.021-0.019,0.042-0.021,0.062c-0.008,0.037-0.008,0.075-0.001,0.114c0.009,0.043,0.026,0.081,0.05,0.114c0.021,0.024,0.042,0.05,0.07,0.066c0.005,0.004,0.011,0.008,0.016,0.012l0.872,0.528c0.009,0.006,0.02,0.013,0.026,0.017s0.015,0.007,0.021,0.01l0.941,0.39c0.009,0.004,0.018,0.008,0.027,0.013c0.008,0.003,0.017,0.005,0.023,0.007l0.99,0.237c0.008,0.003,0.016,0.006,0.021,0.008c0.012,0.001,0.021,0.003,0.029,0.003l1.015,0.087c0.012,0.001,0.024-0.002,0.029,0.002c0.009,0,0.019,0,0.025-0.001l1.016-0.069c0.009-0.001,0.021-0.002,0.028-0.003c0.009-0.002,0.017-0.003,0.023-0.005l0.994-0.225c0.01-0.004,0.021-0.007,0.027-0.01c0.009-0.002,0.017-0.005,0.023-0.008l0.946-0.374c0.01-0.003,0.02-0.007,0.027-0.012c0.007-0.003,0.015-0.008,0.021-0.012l0.881-0.517c0.009-0.004,0.017-0.009,0.022-0.015c0.007-0.005,0.015-0.01,0.021-0.018l0.79-0.642c0.007-0.005,0.013-0.01,0.019-0.015c0.008-0.009,0.016-0.017,0.021-0.023l0.683-0.756c0.007-0.006,0.013-0.013,0.018-0.021c0.007-0.009,0.013-0.016,0.018-0.021l0.561-0.853c0.004-0.007,0.008-0.013,0.011-0.02c0.006-0.006,0.009-0.012,0.013-0.019l0.457-0.911c0.004-0.008,0.008-0.018,0.011-0.023c0.004-0.009,0.008-0.018,0.01-0.025l0.312-0.971c0.003-0.008,0.005-0.016,0.007-0.021c0-0.001,0-0.001,0-0.001c0.003-0.012,0.005-0.021,0.006-0.028l0.161-1.006c0.002-0.009,0.003-0.02,0.004-0.026c0.001-0.01,0.001-0.019,0.001-0.026l0.005-1.02C52.915,37.865,52.915,37.856,52.914,37.846z"/>
    <path  fill="#FFFFFF" d="M15.07,43.868c-0.021-0.036-0.05-0.065-0.082-0.087c-0.032-0.022-0.069-0.038-0.109-0.047l-1.169-0.229l-1.105-0.384l-1.041-0.536l-0.954-0.68l-1.698-0.242l-1.604-0.513l-0.586-1.014l0.445-1.497l0.574-1.7l-0.112-1.166l0.058-1.17l0.221-1.15l0.388-1.124c0.001-0.004,0.002-0.007,0.003-0.011l0,0c0.013-0.036,0.017-0.073,0.014-0.108c-0.003-0.039-0.017-0.078-0.035-0.113l0,0c0.002-0.013,0-0.004,0-0.004l0,0c0-0.001,0-0.001,0-0.001l0,0c0-0.001,0-0.001,0-0.001s0,0,0-0.001l0,0c0-0.001,0-0.001,0-0.001s0,0-0.001-0.001c0,0,0,0,0-0.001c0,0,0,0,0-0.001l0,0v-0.001l0,0c0,0,0,0,0-0.001c-0.02-0.026-0.04-0.054-0.065-0.074c-0.02-0.016-0.042-0.027-0.063-0.038H8.141l0,0c0-0.003,0-0.003,0-0.003c-0.01-0.003-0.019-0.007-0.026-0.01c-0.038-0.011-0.074-0.017-0.113-0.013c0,0,0,0-0.001,0c-0.039,0.004-0.077,0.015-0.111,0.034L6.99,32.474c-0.007,0.004-0.015,0.009-0.022,0.014c-0.007,0.005-0.016,0.01-0.021,0.016l-0.807,0.62c-0.01,0.006-0.018,0.012-0.023,0.021c-0.006,0.006-0.012,0.012-0.018,0.018L5.394,33.9c-0.006,0.006-0.014,0.013-0.02,0.02c-0.005,0.008-0.011,0.017-0.016,0.022l-0.582,0.835c-0.005,0.007-0.01,0.015-0.014,0.021c-0.007,0.011-0.011,0.019-0.016,0.025l-0.447,0.915c-0.004,0.008-0.008,0.017-0.012,0.025c-0.003,0.008-0.006,0.017-0.008,0.022l-0.31,0.974c-0.002,0.009-0.007,0.017-0.008,0.022c-0.002,0.01-0.004,0.021-0.006,0.03L3.81,37.82c-0.001,0.009-0.002,0.019-0.003,0.027c-0.001,0.008-0.001,0.019-0.001,0.025l0.005,1.02c0,0.01,0,0.02,0.001,0.026c0.001,0.011,0.002,0.02,0.003,0.026l0.162,1.006c0.001,0.01,0.003,0.021,0.005,0.028s0.004,0.017,0.007,0.022l0.312,0.972c0.004,0.008,0.007,0.015,0.01,0.021c0.004,0.01,0.008,0.021,0.013,0.027l0.458,0.911c0.003,0.007,0.006,0.013,0.01,0.019c0.003,0.007,0.007,0.013,0.011,0.021l0.562,0.852c0.004,0.007,0.009,0.014,0.015,0.021c0.006,0.008,0.014,0.016,0.021,0.021l0.683,0.756c0.006,0.007,0.014,0.014,0.021,0.021c0.006,0.007,0.013,0.013,0.021,0.018l0.79,0.642c0.007,0.008,0.016,0.014,0.023,0.019c0.007,0.005,0.014,0.01,0.021,0.014l0.88,0.517c0.009,0.005,0.018,0.009,0.024,0.013s0.017,0.008,0.024,0.011l0.946,0.373c0.008,0.004,0.019,0.007,0.025,0.01s0.018,0.006,0.025,0.009l0.994,0.225c0.009,0.002,0.019,0.003,0.026,0.005c0.009,0.001,0.019,0.002,0.028,0.003l1.016,0.069c0.008,0.001,0.016,0.001,0.024,0.001c0.016,0.001,0.02-0.001,0.028-0.002l1.016-0.087c0.01,0,0.02-0.002,0.028-0.003c0.009-0.002,0.018-0.003,0.023-0.008l0.991-0.237c0.008-0.002,0.017-0.004,0.023-0.007c0.008-0.004,0.02-0.009,0.027-0.013l0.939-0.39c0.01-0.003,0.017-0.006,0.022-0.01c0.009-0.004,0.018-0.011,0.027-0.017l0.873-0.528c0.002-0.001,0.003-0.002,0.005-0.003V44.26c0.034-0.021,0.062-0.049,0.083-0.077c0.021-0.03,0.036-0.064,0.044-0.104c0,0,0,0,0-0.001c0.002-0.01,0.004-0.02,0.005-0.03c0.002-0.022,0.002-0.048-0.001-0.069C15.104,43.938,15.091,43.902,15.07,43.868z"/>
    <path  fill="#FFFFFF" d="M3.937,19.881c0.002,0.01,0.004,0.018,0.007,0.023l0.304,0.973c0.002,0.008,0.005,0.019,0.008,0.024c0.003,0.009,0.009,0.018,0.014,0.024l0.445,0.914c0.006,0.011,0.011,0.019,0.016,0.025c0.004,0.008,0.009,0.015,0.014,0.022l0.582,0.835c0.005,0.007,0.01,0.015,0.016,0.021c0.008,0.007,0.014,0.014,0.021,0.021l0.704,0.736c0.006,0.006,0.011,0.014,0.018,0.019c0.007,0.007,0.017,0.014,0.023,0.02l0.807,0.619c0.007,0.006,0.016,0.011,0.023,0.017c0.007,0.007,0.015,0.011,0.021,0.015l0.897,0.492c0.002,0.002,0.005,0.003,0.004,0.002l0,0c0,0,0,0,0.001,0c0.035,0.019,0.072,0.027,0.107,0.03l0,0c0.01,0,0.018,0.001,0.024,0.001c0.031,0,0.063-0.005,0.094-0.016h0.001c0,0,0,0,0.001,0l0,0c0,0,0.001-0.001,0.002-0.001c0,0,0,0,0.001,0s0,0,0.001,0h0.001c0.004-0.001,0.003,0,0.003,0s0,0,0.001,0c0.029-0.012,0.058-0.028,0.08-0.048c0.023-0.02,0.044-0.042,0.061-0.07l0,0c0,0,0,0,0-0.001v-0.001l0,0c0,0,0,0,0-0.001c0,0,0,0,0.001-0.001c0,0,0,0,0-0.001s0-0.001,0-0.001l0,0l0,0l0,0l0,0c0,0,0,0,0-0.001l0,0l0,0c0.02-0.037,0.031-0.076,0.035-0.115c0.003-0.036,0-0.072-0.012-0.106l0,0l0,0c-0.003-0.004-0.004-0.009-0.005-0.013L7.876,23.21L7.655,22.06L7.6,20.89l0.11-1.166l0.276-1.14L8.424,17.5l0.586-1.014l0.726-0.92l0.847-0.811l0.954-0.679l1.041-0.537l1.107-0.384l1.169-0.227c0.042-0.01,0.08-0.024,0.11-0.05c0.031-0.021,0.061-0.051,0.08-0.085c0.021-0.032,0.034-0.069,0.039-0.106l0,0c0.003-0.023,0.004-0.047,0.001-0.071l0,0c-0.001-0.01-0.003-0.021-0.005-0.031l0,0l0,0c-0.008-0.039-0.022-0.072-0.046-0.104c-0.02-0.028-0.045-0.053-0.075-0.073l0,0c-0.004-0.002-0.008-0.005-0.012-0.007l-0.873-0.53c-0.009-0.005-0.018-0.01-0.027-0.015c-0.007-0.003-0.014-0.007-0.021-0.01l-0.941-0.392c-0.009-0.004-0.018-0.007-0.025-0.01c-0.009-0.003-0.019-0.005-0.025-0.007l-0.991-0.24c-0.007-0.002-0.015-0.003-0.021-0.005c-0.012-0.002-0.021-0.003-0.03-0.004l-1.014-0.087c-0.011-0.001-0.021-0.001-0.028-0.001c-0.004,0.004-0.017,0.001-0.027,0.001l-1.016,0.068c-0.009,0-0.021,0.001-0.028,0.002s-0.018,0.004-0.024,0.007l-0.994,0.224c-0.009,0.002-0.02,0.004-0.026,0.007c-0.009,0.003-0.018,0.006-0.025,0.009L7.86,11.793c-0.009,0.003-0.019,0.007-0.025,0.013c-0.008,0.004-0.016,0.008-0.022,0.013l-0.881,0.514c-0.009,0.005-0.016,0.009-0.022,0.017c-0.007,0.005-0.014,0.011-0.021,0.016l-0.791,0.641c-0.008,0.005-0.015,0.013-0.021,0.019c-0.007,0.007-0.014,0.014-0.021,0.021l-0.683,0.755c-0.007,0.009-0.014,0.017-0.02,0.023c-0.005,0.006-0.01,0.013-0.016,0.02l-0.561,0.854c-0.004,0.006-0.008,0.012-0.011,0.019c-0.004,0.006-0.009,0.014-0.012,0.02l-0.458,0.911c-0.005,0.009-0.009,0.018-0.013,0.026c-0.003,0.007-0.006,0.017-0.008,0.023l-0.312,0.969c-0.003,0.008-0.005,0.017-0.007,0.024l0,0c-0.002,0.009-0.004,0.019-0.005,0.026l-0.162,1.008c-0.001,0.009-0.002,0.018-0.003,0.024c0,0.01-0.001,0.021-0.001,0.029L3.778,18.79c0,0.009,0,0.02,0.001,0.027c0,0.009,0.001,0.018,0.003,0.025l0.15,1.009C3.933,19.861,3.935,19.871,3.937,19.881z"/>
    <path  fill="#FFFFFF" d="M35.437,47.865c-0.002-0.04-0.014-0.078-0.028-0.112c-0.015-0.03-0.036-0.062-0.062-0.087c-0.011-0.009-0.021-0.016-0.028-0.021c0,0,0,0-0.001,0c0,0,0,0,0-0.001c-0.021-0.017-0.044-0.026-0.067-0.035c0,0,0,0-0.001,0c-0.028-0.014-0.062-0.02-0.099-0.02c-0.037-0.004-0.087,0.012-0.124,0.028c-0.035,0.017-0.066,0.04-0.094,0.071l-0.78,0.898l-0.886,0.768l-0.985,0.632l-1.065,0.487l-1.124,0.327l-1.156,0.167H27.76l-1.156-0.167l-1.124-0.327l-1.066-0.487l-0.984-0.632l-0.887-0.768l-0.778-0.898c-0.027-0.031-0.062-0.058-0.098-0.072c-0.035-0.017-0.074-0.026-0.116-0.027c-0.035-0.001-0.071,0.005-0.104,0.02c-0.028,0.01-0.054,0.022-0.079,0.044l0,0c0,0,0,0-0.001,0.001l0,0l-0.001,0.001c0,0.001,0,0.001,0,0.001s0,0-0.001,0.001c0,0-0.001,0-0.001,0.001c-0.001,0-0.001,0.001-0.002,0.002L21.36,47.66l0,0c0,0,0,0.001-0.001,0.001c-0.032,0.028-0.059,0.062-0.073,0.097c-0.015,0.033-0.023,0.07-0.026,0.109c0,0.002,0,0.004,0,0.006l-0.021,1.023c0,0.009,0,0.017,0,0.023c0,0.012,0.001,0.021,0.003,0.029l0.134,1.01c0.001,0.009,0.002,0.021,0.005,0.027c0.001,0.009,0.004,0.018,0.007,0.023l0.285,0.979c0.002,0.01,0.005,0.02,0.011,0.028c0.003,0.008,0.006,0.016,0.01,0.021l0.433,0.923c0.003,0.007,0.007,0.017,0.012,0.021c0.006,0.009,0.011,0.018,0.017,0.023l0.567,0.847c0.006,0.008,0.012,0.016,0.018,0.021c0.005,0.007,0.011,0.016,0.017,0.021l0.691,0.748c0.006,0.007,0.013,0.014,0.02,0.02s0.015,0.012,0.021,0.02l0.796,0.634c0.007,0.007,0.016,0.013,0.023,0.018c0.007,0.005,0.015,0.01,0.021,0.016l0.885,0.504c0.009,0.006,0.02,0.01,0.026,0.015c0.008,0.003,0.015,0.006,0.021,0.009l0.951,0.363c0.01,0.004,0.021,0.008,0.029,0.011c0.008,0.002,0.016,0.004,0.022,0.005l0.995,0.214c0.02,0.005,0.036,0.008,0.056,0.01l1.018,0.059c0.007,0.001,0.022,0.001,0.021,0.001l0,0c0.007,0,0.014,0,0.021-0.001l1.019-0.059c0.019-0.001,0.037-0.004,0.055-0.01l0.996-0.214c0.008-0.001,0.016-0.003,0.021-0.005c0.001,0,0.001,0,0.001,0c0.012-0.003,0.021-0.007,0.029-0.011l0.951-0.363c0.007-0.003,0.015-0.006,0.021-0.009c0.011-0.005,0.02-0.009,0.026-0.015l0.885-0.504c0.007-0.006,0.016-0.011,0.021-0.015c0.009-0.006,0.017-0.012,0.022-0.019l0.796-0.634c0.01-0.008,0.017-0.014,0.021-0.02s0.013-0.013,0.019-0.02l0.691-0.748c0.006-0.006,0.012-0.015,0.017-0.021c0.009-0.008,0.014-0.016,0.02-0.021l0.566-0.847c0.007-0.008,0.013-0.017,0.018-0.023c0.004-0.007,0.008-0.017,0.011-0.021l0.434-0.923c0.005-0.008,0.008-0.016,0.012-0.022c0.003-0.011,0.006-0.02,0.008-0.026l0.287-0.979c0.003-0.008,0.005-0.017,0.007-0.023s0.004-0.021,0.005-0.028l0.134-1.009c0.001-0.009,0.002-0.019,0.003-0.028c0-0.009,0-0.018,0-0.024l-0.021-1.023C35.437,47.869,35.437,47.867,35.437,47.865z"/>
    <path  fill="#FFFFFF" d="M41.628,12.832c0.021,0.032,0.047,0.061,0.076,0.08c0.032,0.022,0.069,0.039,0.11,0.046l1.169,0.229l1.104,0.384l1.041,0.537l0.954,0.679l0.849,0.809l0.724,0.922l0.586,1.014l0.435,1.087l0.276,1.138l0.112,1.166l-0.058,1.17l-0.221,1.15L48.4,24.363c-0.002,0.005-0.004,0.01-0.005,0.015l0,0c-0.012,0.034-0.016,0.067-0.013,0.102c0.004,0.04,0.016,0.08,0.034,0.118l0,0c0.003,0.005,0.006,0.01,0.009,0.015l0,0c0.019,0.023,0.036,0.048,0.06,0.064c0.022,0.021,0.052,0.037,0.082,0.051h0.001c0,0,0,0,0.001,0c0,0,0,0,0.001,0c0,0,0,0,0.001,0h0.001l0,0h0.001c0.001,0,0.001,0,0.001,0c0.001,0,0.001,0,0.001,0c0.001,0,0.002,0,0.003,0.001c0.031,0.011,0.062,0.016,0.094,0.016c0.01,0,0.019,0,0.024-0.001c0.001,0,0.001,0,0.001,0c0.038-0.003,0.077-0.015,0.113-0.035l0.896-0.493c0.008-0.004,0.018-0.008,0.022-0.013c0.009-0.005,0.016-0.011,0.021-0.017l0.809-0.619c0.008-0.006,0.016-0.015,0.021-0.021c0.006-0.005,0.012-0.011,0.02-0.017l0.703-0.738c0.007-0.006,0.013-0.013,0.019-0.021c0.006-0.007,0.012-0.016,0.017-0.021l0.582-0.835c0.005-0.007,0.012-0.014,0.017-0.021c0.005-0.01,0.009-0.019,0.013-0.025l0.448-0.914c0.004-0.008,0.008-0.017,0.011-0.025c0.003-0.008,0.006-0.017,0.009-0.023l0.306-0.973c0.003-0.009,0.005-0.017,0.007-0.023c0.002-0.01,0.004-0.021,0.006-0.03l0.147-1.007c0.001-0.009,0.003-0.018,0.003-0.027c0.003-0.009,0.003-0.018,0.003-0.025l-0.007-1.02c0-0.009,0-0.019-0.001-0.027s-0.002-0.019-0.004-0.026l-0.161-1.006c-0.001-0.009-0.003-0.021-0.006-0.028c-0.002-0.008-0.004-0.017-0.007-0.023l-0.312-0.971c-0.002-0.008-0.007-0.016-0.01-0.021c-0.004-0.01-0.008-0.021-0.013-0.028l-0.458-0.911c-0.003-0.006-0.006-0.012-0.01-0.019c-0.003-0.006-0.007-0.012-0.011-0.02l-0.562-0.852c-0.005-0.007-0.01-0.014-0.015-0.021c-0.006-0.008-0.014-0.015-0.021-0.021l-0.683-0.755c-0.006-0.007-0.013-0.015-0.021-0.021c-0.007-0.006-0.013-0.012-0.02-0.017l-0.791-0.643c-0.007-0.007-0.015-0.012-0.021-0.018c-0.008-0.005-0.016-0.01-0.021-0.015l-0.88-0.516c-0.007-0.004-0.017-0.008-0.021-0.012c-0.009-0.004-0.019-0.008-0.025-0.012l-0.947-0.373c-0.008-0.003-0.018-0.006-0.025-0.009c-0.009-0.002-0.018-0.006-0.024-0.009l-0.994-0.224c-0.009-0.002-0.02-0.004-0.026-0.005c-0.009-0.001-0.019-0.002-0.025-0.003l-1.018-0.07c-0.009,0-0.017-0.001-0.023-0.001c-0.003-0.004-0.021,0-0.03,0.001l-1.014,0.087c-0.012,0.001-0.021,0.002-0.029,0.004c-0.008,0.001-0.018,0.003-0.023,0.006l-0.988,0.239c-0.011,0.002-0.02,0.004-0.025,0.007c-0.01,0.004-0.021,0.008-0.027,0.012l-0.939,0.39c-0.008,0.003-0.017,0.006-0.022,0.01c-0.009,0.004-0.018,0.012-0.024,0.017l-0.873,0.529c-0.002,0.001-0.003,0.002-0.006,0.003H41.72c-0.032,0.021-0.062,0.05-0.083,0.08c-0.021,0.03-0.035,0.064-0.045,0.104l0,0l0,0c-0.002,0.009-0.004,0.018-0.005,0.024l0,0l0,0l0,0c-0.003,0.029-0.002,0.059,0.003,0.086l0,0l0,0c0.006,0.024,0.015,0.052,0.025,0.074l0,0C41.616,12.813,41.621,12.823,41.628,12.832z"/>
    <path  fill="#FFFFFF" d="M35.324,6.707c-0.001-0.01-0.003-0.02-0.005-0.029l0,0c-0.002-0.008-0.004-0.017-0.006-0.022l-0.288-0.979c-0.002-0.009-0.005-0.018-0.008-0.024c-0.004-0.008-0.009-0.019-0.013-0.024l-0.433-0.922c-0.003-0.008-0.008-0.016-0.012-0.022c-0.005-0.01-0.012-0.018-0.017-0.023L33.979,3.81c-0.006-0.011-0.014-0.019-0.021-0.025c-0.005-0.006-0.01-0.012-0.016-0.017l-0.691-0.749c-0.004-0.007-0.01-0.014-0.017-0.02s-0.014-0.012-0.021-0.018l-0.797-0.634c-0.008-0.008-0.016-0.014-0.021-0.02c-0.008-0.004-0.017-0.009-0.021-0.013l-0.885-0.505C31.48,1.808,31.472,1.804,31.465,1.8c-0.009-0.004-0.018-0.007-0.024-0.011l-0.951-0.363c-0.008-0.003-0.017-0.006-0.024-0.009c-0.01-0.003-0.019-0.005-0.025-0.007l-0.996-0.213c-0.009-0.002-0.021-0.004-0.028-0.005S29.396,1.19,29.388,1.19l-1.02-0.061c-0.007,0-0.02,0-0.021-0.001c0,0-0.016,0-0.021,0.001L27.306,1.19c-0.01,0-0.019,0.001-0.025,0.002c-0.01,0.001-0.02,0.003-0.029,0.005L26.258,1.41c-0.009,0.002-0.018,0.004-0.025,0.007c-0.008,0.002-0.019,0.005-0.025,0.009l-0.952,0.363c-0.008,0.003-0.017,0.007-0.023,0.011c-0.008,0.006-0.018,0.01-0.023,0.015L24.32,2.318c-0.007,0.004-0.014,0.008-0.021,0.013c-0.007,0.005-0.016,0.012-0.022,0.02L23.48,2.984C23.471,2.988,23.465,2.993,23.458,3c-0.007,0.006-0.013,0.015-0.019,0.021l-0.692,0.749c-0.005,0.005-0.01,0.011-0.015,0.017c-0.007,0.008-0.013,0.017-0.021,0.025l-0.566,0.845C22.14,4.662,22.135,4.67,22.13,4.677c-0.005,0.01-0.009,0.018-0.013,0.024l-0.432,0.923c-0.003,0.007-0.007,0.017-0.012,0.022c-0.004,0.009-0.007,0.019-0.009,0.026L21.38,6.652c-0.002,0.008-0.005,0.017-0.006,0.023c-0.002,0.011-0.004,0.021-0.005,0.028l-0.134,1.009c-0.001,0.012-0.002,0.021-0.003,0.03c0,0.008,0,0.017,0,0.024l0.021,1.021c0,0.004,0,0.008,0,0.012c0.002,0.038,0.014,0.073,0.027,0.105c0.016,0.033,0.038,0.063,0.066,0.09c0.008,0.007,0.017,0.014,0.024,0.021c0.001,0,0.001,0.001,0.001,0.001l0,0c0.021,0.014,0.041,0.023,0.062,0.032c0,0,0,0,0.001,0l0,0c0.031,0.014,0.065,0.021,0.104,0.021c0.048,0,0.088-0.01,0.125-0.029c0.033-0.016,0.063-0.038,0.09-0.065c0,0,0.002-0.002,0.003-0.004l0.78-0.898l0.886-0.766l0.985-0.634l1.066-0.485l0.48-1.089l1.8-0.71h1.174l1.812,0.71l0.468,1.089l1.065,0.485l0.984,0.634l0.887,0.766l0.779,0.898c0.003,0.002,0.005,0.005,0.004,0.004c0.024,0.028,0.058,0.053,0.092,0.067c0.039,0.02,0.092,0.026,0.123,0.027c0.036,0,0.068-0.007,0.102-0.021h0.001c0,0,0,0,0.001,0c0.027-0.011,0.056-0.024,0.078-0.045c0,0,0.001,0,0.001-0.001c0.002-0.002,0.004-0.003,0.006-0.005c0.032-0.026,0.059-0.062,0.073-0.098c0.015-0.032,0.023-0.066,0.025-0.104c0.001-0.004,0.001-0.008,0.001-0.012l0.021-1.021c0-0.011,0-0.02,0-0.027c-0.001-0.009-0.002-0.02-0.003-0.028L35.324,6.707z"/>
   </g>
   <rect  width="1.152" x="20.57" y="27.339" fill="#FFFFFF" height="2.018" fill-opacity="0.15"/>
   <rect  width="5.559" x="25.54" y="22.706" fill="#FFFFFF" height="11.312" fill-opacity="0.15"/>
   <g  id="connector0pin">
    <path  fill="#9A916C" d="M46.771,36.579c1.323,0,2.398,1.075,2.398,2.397s-1.075,2.397-2.398,2.397c-1.322,0-2.397-1.075-2.397-2.397S45.449,36.579,46.771,36.579 M46.771,35.138c-2.119,0-3.838,1.718-3.838,3.838s1.719,3.838,3.838,3.838c2.12,0,3.839-1.718,3.839-3.838S48.891,35.138,46.771,35.138L46.771,35.138z"/>
   </g>
   <g  id="connector1pin">
    <path  fill="#9A916C" d="M9.95,36.579c1.322,0,2.398,1.075,2.398,2.397s-1.076,2.397-2.398,2.397c-1.323,0-2.399-1.075-2.399-2.397S8.627,36.579,9.95,36.579 M9.95,35.138c-2.12,0-3.839,1.718-3.839,3.838s1.719,3.838,3.839,3.838c2.119,0,3.838-1.718,3.838-3.838S12.069,35.138,9.95,35.138L9.95,35.138z"/>
   </g>
   <g  id="connector2pin">
    <path  fill="#9A916C" d="M28.346,4.689c1.322,0,2.397,1.076,2.397,2.398s-1.075,2.398-2.397,2.398s-2.398-1.076-2.398-2.398S27.024,4.689,28.346,4.689 M28.346,3.249c-2.12,0-3.838,1.718-3.838,3.838s1.718,3.838,3.838,3.838s3.838-1.718,3.838-3.838S30.467,3.249,28.346,3.249L28.346,3.249z"/>
   </g>
  </g>
 </g>
</svg>
