<?xml version='1.0' encoding='utf-8'?>
<!DOCTYPE svg PUBLIC '-//W3C//DTD SVG 1.1//EN' 'http://www.w3.org/Graphics/SVG/1.1/DTD/svg11.dtd'>
<!-- Generator: Adobe Illustrator 15.0.1, SVG Export Plug-In . SVG Version: 6.00 Build 0)  -->
<svg xmlns="http://www.w3.org/2000/svg" width="0.3in" xml:space="preserve" xmlns:xml="http://www.w3.org/XML/1998/namespace" x="0px" version="1.1" y="0px" height="0.614181in" viewBox="0 0 21.6 44.221" id="Ebene_1" enable-background="new 0 0 21.6 44.221">
 <desc >Fritzing breadboard generated by brd2svg</desc>
 <g  id="breadboard">
  <g  id="icon">
   <path  fill="#672E58" d="M21.572,10.771C21.572,4.823,16.749,0,10.8,0S0.029,4.823,0.029,10.771v22.678c0,5.948,4.822,10.771,10.771,10.771s10.771-4.822,10.771-10.771L21.572,10.771 M6.973,8.812c0-2.112,1.713-3.827,3.826-3.828c2.114,0,3.828,1.714,3.828,3.827c0,0,0,0,0,0.001c0,2.113-1.713,3.827-3.827,3.827C8.687,12.639,6.973,10.926,6.973,8.812L6.973,8.812z M6.973,35.406c0-2.113,1.713-3.827,3.826-3.827c2.114-0.001,3.828,1.712,3.828,3.826c0,0,0,0,0,0.001c0,2.112-1.713,3.826-3.827,3.826C8.687,39.234,6.973,37.521,6.973,35.406C6.973,35.407,6.973,35.407,6.973,35.406z"/>
   <g >
    <title >layer 21</title>
    <g >
     <title >text:-</title>
     <text  fill="#FFFFFF" font-family="OCRA" transform="matrix(1 0 0 1 1.8577 14.0491)" font-size="4.6771">-</text>
    </g>
    <g >
     <title >text:S</title>
     <text  fill="#FFFFFF" font-family="OCRA" transform="matrix(1 0 0 1 16.9211 33.9905)" font-size="4.6771">S</text>
    </g>
    <g >
     <title >element:BUTTON-</title>
     <g >
      <title >package:PETAL-MEDIUM-2SIDE</title>
     </g>
    </g>
    <g >
     <title >element:BUTTONS</title>
     <g >
      <title >package:PETAL-MEDIUM-2SIDE</title>
     </g>
    </g>
    <g >
     <title >element:LOGO1</title>
     <g >
      <title >package:LOGO-L</title>
     </g>
    </g>
    <g >
     <title >element:S1</title>
     <g >
      <title >package:TACTILE_SWITCH_SMD</title>
      <line  fill="none" stroke="#FFFFFF" stroke-linecap="round" y1="18.595" stroke-width="0.576" x1="17.64" y2="25.71" x2="17.64"/>
      <line  fill="none" stroke="#FFFFFF" stroke-linecap="round" y1="29.311" stroke-width="0.576" x1="14.805" y2="29.311" x2="6.074"/>
      <line  fill="none" stroke="#FFFFFF" stroke-linecap="round" y1="25.625" stroke-width="0.576" x1="3.24" y2="18.595" x2="3.24"/>
      <line  fill="none" stroke="#FFFFFF" stroke-linecap="round" y1="14.91" stroke-width="0.576" x1="6.074" y2="14.91" x2="14.805"/>
      <circle  fill="none" cx="10.44" cy="22.11" stroke="#FFFFFF" r="3.6" stroke-width="0.576"/>
     </g>
    </g>
   </g>
   <path  fill="#FFFFFF" d="M0.961,33.825c0,2.208,4.405,3.998,9.839,3.998c5.435,0,9.839-1.79,9.839-3.998c0,5.351-4.404,9.688-9.839,9.688C5.366,43.513,0.961,39.176,0.961,33.825z"/>
   <path  fill="#FFFFFF" d="M20.639,10.425c0-2.208-4.404-3.998-9.839-3.998s-9.839,1.79-9.839,3.998c0-5.351,4.404-9.688,9.839-9.688S20.639,5.074,20.639,10.425z"/>
   <g  id="connector0pin">
    <path  fill="#9A916C" d="M10.8,6.402c1.328,0,2.409,1.082,2.409,2.41s-1.081,2.409-2.409,2.409c-1.329,0-2.41-1.081-2.41-2.409S9.471,6.402,10.8,6.402 M10.8,4.969c-2.123,0-3.842,1.72-3.842,3.843c0,2.122,1.72,3.842,3.842,3.842s3.843-1.72,3.843-3.842C14.643,6.689,12.922,4.969,10.8,4.969L10.8,4.969z"/>
   </g>
   <g  id="connector1pin">
    <path  fill="#9A916C" d="M10.799,32.997c1.328,0,2.408,1.08,2.408,2.41s-1.082,2.411-2.41,2.411s-2.409-1.081-2.409-2.41C8.389,34.077,9.471,32.997,10.799,32.997 M10.799,31.564c-2.122,0-3.842,1.721-3.843,3.844c0,2.123,1.719,3.844,3.841,3.845c2.122,0,3.842-1.721,3.843-3.844C14.64,33.285,12.921,31.564,10.799,31.564L10.799,31.564z"/>
   </g>
  </g>
  <g  id="tactile_switch_smd" transform="matrix(1, 0, 0, 1, 2.27748, 13.9143)">
   <g  transform="matrix(-1, 0, 0, -1, 16.392, 16.392)">
    <polygon  fill="#6D6D6D" points="1.142,12.976 3.415,15.25 12.978,15.25 15.25,12.976 15.25,3.413 12.978,1.141 3.415,1.141 1.142,3.413 "/>
    <rect  width="9.562" x="3.415" y="0.001" fill="#6D6D6D" height="16.392"/>
    <rect  width="16.392" x="0" y="3.413" fill="#6D6D6D" height="9.562"/>
    <polygon  fill="#7F7F7F" points="1.827,12.513 3.879,14.565 12.513,14.565 14.566,12.513 14.566,3.878 12.513,1.826 3.879,1.826 1.827,3.878 "/>
    <polyline  opacity="0.2" fill="none" points="4.105,2.16 2.161,4.103 2.161,12.287 4.105,14.232 12.288,14.232 " stroke="#FFFFFF" enable-background="new    " stroke-width="0.2369" stroke-miterlimit="10"/>
    <polyline  opacity="0.2" fill="none" points="12.289,14.232 14.233,12.288 14.233,4.105 12.289,2.16 4.106,2.16 " stroke="#606060" enable-background="new    " stroke-width="0.2369" stroke-miterlimit="10"/>
    <g >
     <path  fill="#BCA16A" d="M8.196,11.923c-2.055,0-3.727-1.672-3.727-3.728c0-2.055,1.672-3.729,3.727-3.729c2.057,0,3.729,1.672,3.729,3.729C11.922,10.251,10.25,11.923,8.196,11.923z"/>
     <path  fill="#606060" d="M8.196,4.719c1.92,0,3.479,1.557,3.479,3.478c0,1.92-1.559,3.478-3.479,3.478s-3.477-1.558-3.477-3.478C4.719,6.275,6.276,4.719,8.196,4.719 M8.196,4.219c-2.191,0-3.977,1.783-3.977,3.978c0,2.192,1.784,3.978,3.977,3.978c2.193,0,3.979-1.784,3.979-3.978C12.172,6.003,10.388,4.219,8.196,4.219L8.196,4.219z"/>
    </g>
    <path  opacity="0.2" fill="#BCA16A" stroke="#FFFFFF" enable-background="new    " stroke-width="0.5304" d="M10.39,10.389c-1.212,1.212-3.177,1.212-4.389,0c-1.212-1.213-1.212-3.177,0-4.39" stroke-miterlimit="10"/>
    <path  opacity="0.2" fill="#BCA16A" stroke="#606060" enable-background="new    " stroke-width="0.5304" d="M6.001,5.999c1.212-1.213,3.177-1.213,4.389,0s1.212,3.177,0,4.39" stroke-miterlimit="10"/>
   </g>
  </g>
 </g>
</svg>
