<?xml version='1.0' encoding='utf-8'?>
<!DOCTYPE svg PUBLIC '-//W3C//DTD SVG 1.1//EN' 'http://www.w3.org/Graphics/SVG/1.1/DTD/svg11.dtd'>
<!-- Generator: Adobe Illustrator 15.0.1, SVG Export Plug-In . SVG Version: 6.00 Build 0)  -->
<svg xmlns="http://www.w3.org/2000/svg" width="0.787403in" xml:space="preserve" xmlns:xml="http://www.w3.org/XML/1998/namespace" x="0px" version="1.1" y="0px" height="0.787403in" viewBox="0 0 56.693 56.693" id="Ebene_1" enable-background="new 0 0 56.693 56.693">
 <desc >Fritzing breadboard generated by brd2svg</desc>
 <g  id="breadboard">
  <g  id="icon">
   <path  fill="#672E58" d="M0,28.346c-0.028,15.654,12.639,28.369,28.293,28.398c15.656,0.029,28.371-12.638,28.4-28.293c0-0.035,0-0.071,0-0.105C56.722,12.691,44.055-0.024,28.4-0.053C12.744-0.082,0.029,12.585,0,28.24C0,28.275,0,28.311,0,28.346z M6.519,39.118C6.519,37.396,7.916,36,9.637,36c1.723,0,3.117,1.396,3.117,3.118c0,1.723-1.396,3.118-3.117,3.118S6.519,40.841,6.519,39.118z M25.228,6.802c-0.001-1.723,1.395-3.118,3.117-3.119c1.722,0,3.117,1.396,3.118,3.116c0,0.001,0,0.002,0,0.003c0.001,1.723-1.395,3.118-3.116,3.119c-1.723,0-3.118-1.396-3.119-3.116C25.228,6.804,25.228,6.802,25.228,6.802z M43.937,39.118c0-1.722,1.396-3.118,3.118-3.118c1.722,0,3.117,1.396,3.117,3.118c0,1.723-1.396,3.118-3.117,3.118C45.333,42.236,43.937,40.841,43.937,39.118z"/>
   <g >
    <title >layer 21</title>
    <g >
     <title >text:S</title>
     <text  fill="#FFFFFF" font-family="OCRA" transform="matrix(1 0 0 1 35.8015 38.5505)" font-size="5.8464">S</text>
    </g>
    <g >
     <title >text:-</title>
     <text  fill="#FFFFFF" font-family="OCRA" transform="matrix(1 0 0 1 26.6453 17.489)" font-size="5.8464">-</text>
    </g>
    <g >
     <title >text:+</title>
     <text  fill="#FFFFFF" font-family="OCRA" transform="matrix(1 0 0 1 16.6384 38.5505)" font-size="5.8464">+</text>
    </g>
    <g >
     <title >element:C1</title>
     <g >
      <title >package:0603-CAP</title>
      <line  fill="none" stroke="#FFFFFF" stroke-linecap="round" y1="28.346" stroke-width="1.584" x1="21.06" y2="28.346" x2="21.233"/>
     </g>
    </g>
    <g >
     <title >element:TEMP+</title>
     <g >
      <title >package:PETAL-SMALL-2SIDE</title>
     </g>
    </g>
    <g >
     <title >element:TEMP-</title>
     <g >
      <title >package:PETAL-SMALL-2SIDE</title>
     </g>
    </g>
    <g >
     <title >element:TEMP1</title>
     <g >
      <title >package:PETAL-NOHOLE-2SIDE</title>
     </g>
    </g>
    <g >
     <title >element:TEMP2</title>
     <g >
      <title >package:PETAL-NOHOLE-2SIDE</title>
     </g>
    </g>
    <g >
     <title >element:TEMP3</title>
     <g >
      <title >package:PETAL-NOHOLE-2SIDE</title>
     </g>
    </g>
    <g >
     <title >element:TEMPS</title>
     <g >
      <title >package:PETAL-SMALL-2SIDE</title>
     </g>
    </g>
    <g >
     <title >element:U$2</title>
     <g >
      <title >package:LOGO-LILYPAD</title>
     </g>
    </g>
    <g >
     <title >element:U1</title>
     <g >
      <title >package:SOT23-3</title>
      <line  fill="none" stroke="#FFFFFF" stroke-linecap="round" y1="26.362" stroke-width="0.576" x1="26.079" y2="26.362" x2="24.378"/>
      <line  fill="none" stroke="#FFFFFF" stroke-linecap="round" y1="26.362" stroke-width="0.576" x1="24.378" y2="28.63" x2="24.378"/>
      <line  fill="none" stroke="#FFFFFF" stroke-linecap="round" y1="26.362" stroke-width="0.576" x1="30.614" y2="26.362" x2="32.315"/>
      <line  fill="none" stroke="#FFFFFF" stroke-linecap="round" y1="26.362" stroke-width="0.576" x1="32.315" y2="28.63" x2="32.315"/>
     </g>
    </g>
   </g>
   <g >
    <title >layer 1</title>
    <g >
     <title >element:C1</title>
     <g >
      <title >package:0603-CAP</title>
     </g>
    </g>
    <g >
     <title >element:TEMP+</title>
     <g >
      <title >package:PETAL-SMALL-2SIDE</title>
      <g >
       <title >polygon</title>
       <g >
        <path  fill="#FFFFFF" d="M10.656,45.705c-0.008,0-0.017,0-0.024-0.001l-1.016-0.069c-0.01-0.001-0.02-0.002-0.03-0.004c-0.008-0.001-0.016-0.002-0.023-0.004L8.57,45.402C8.56,45.4,8.55,45.397,8.541,45.394c-0.008-0.002-0.016-0.005-0.022-0.009L7.57,45.012c-0.009-0.004-0.017-0.008-0.025-0.012c-0.008-0.004-0.016-0.008-0.023-0.013l-0.879-0.515c-0.009-0.005-0.017-0.01-0.023-0.016c-0.007-0.005-0.015-0.01-0.021-0.016L5.807,43.8c-0.008-0.005-0.014-0.011-0.021-0.017c-0.007-0.007-0.014-0.014-0.021-0.021L5.083,43.01c-0.006-0.007-0.013-0.015-0.019-0.021c-0.005-0.007-0.01-0.015-0.016-0.021L4.49,42.115c-0.004-0.007-0.008-0.014-0.013-0.021c-0.003-0.005-0.005-0.011-0.008-0.016l-0.458-0.912c-0.006-0.009-0.01-0.018-0.014-0.026c-0.003-0.008-0.006-0.016-0.008-0.022l-0.313-0.969c-0.003-0.009-0.005-0.019-0.008-0.026c-0.002-0.009-0.003-0.019-0.005-0.027l-0.16-1.005c-0.001-0.01-0.003-0.02-0.003-0.028C3.5,39.052,3.5,39.044,3.5,39.035l-0.005-1.019c0-0.01,0-0.02,0.001-0.027c0-0.009,0.001-0.02,0.003-0.027l0.15-1.007c0.001-0.01,0.003-0.021,0.006-0.031c0.002-0.007,0.004-0.015,0.006-0.021l0.303-0.973c0.002-0.011,0.006-0.02,0.01-0.027c0.003-0.009,0.007-0.018,0.011-0.024l0.449-0.914c0.004-0.009,0.008-0.018,0.014-0.024c0.004-0.008,0.009-0.016,0.014-0.021l0.582-0.835c0.005-0.008,0.012-0.016,0.019-0.022c0.005-0.007,0.011-0.014,0.017-0.02l0.703-0.736c0.007-0.009,0.014-0.016,0.021-0.021s0.014-0.012,0.021-0.017l0.809-0.62c0.008-0.006,0.016-0.012,0.022-0.017s0.015-0.01,0.021-0.014l0.898-0.493c0.036-0.02,0.075-0.03,0.113-0.034c0,0,0,0,0.001,0l0,0c0.039-0.004,0.076,0.002,0.112,0.014c0.01,0.003,0.019,0.007,0.026,0.01c0,0,0,0,0,0.001l0,0c0,0,0,0,0.001,0l0,0c0.024,0.011,0.046,0.024,0.065,0.04c0.024,0.021,0.047,0.046,0.064,0.074c0,0.001,0,0.001,0,0.001l0,0v0.001l0,0c0,0.001,0,0.001,0,0.001l0,0c0,0.001,0,0.001,0,0.001l0,0c0,0.001,0,0.001,0.001,0.001c0,0,0,0,0,0.001l0,0c0,0.001,0,0.001,0,0.001s0,0,0,0.001l0,0c0,0,0,0,0,0.001l0,0c0,0,0-0.007,0,0.002l0,0l0,0c0.021,0.037,0.031,0.076,0.035,0.115c0.003,0.035,0,0.071-0.012,0.107l0,0l0,0c-0.001,0.004-0.002,0.007-0.003,0.012L7.59,33.597l-0.221,1.15l-0.056,1.169l0.111,1.166l-1.128,2.286l0.437,1.087l0.586,1.015l0.724,0.921l2.25-0.341l0.954,0.681l1.041,0.536l1.106,0.384l1.168,0.227c0.004,0.001,0.009,0.002,0.014,0.003c0.036,0.01,0.068,0.023,0.097,0.043c0.03,0.021,0.058,0.049,0.078,0.08l0,0c0,0.001,0,0.001,0,0.001c0.006,0.011,0.013,0.021,0.019,0.031c0.011,0.021,0.018,0.044,0.022,0.067l0,0l0,0c0.007,0.036,0.008,0.073,0,0.111c-0.008,0.041-0.023,0.077-0.046,0.109c-0.021,0.032-0.051,0.061-0.087,0.082l0,0l0,0l-0.875,0.531c-0.008,0.006-0.017,0.01-0.025,0.015c-0.007,0.004-0.015,0.007-0.022,0.01l-0.94,0.391c-0.009,0.004-0.019,0.008-0.028,0.011c-0.009,0.003-0.016,0.005-0.023,0.007l-0.991,0.24c-0.008,0.002-0.016,0.004-0.023,0.006c-0.01,0.001-0.021,0.003-0.03,0.003l-1.015,0.086c-0.009,0.001-0.018,0.002-0.025,0.002l0,0l0,0C10.659,45.705,10.658,45.705,10.656,45.705z"/>
       </g>
      </g>
     </g>
    </g>
    <g >
     <title >element:TEMP-</title>
     <g >
      <title >package:PETAL-SMALL-2SIDE</title>
      <g >
       <title >polygon</title>
       <g >
        <path  fill="#FFFFFF" d="M35.149,8.792c-0.005,0-0.011,0-0.018,0c-0.035-0.002-0.07-0.011-0.104-0.025c-0.035-0.017-0.068-0.04-0.096-0.071l0,0l0,0c-0.001-0.001-0.002-0.001-0.002-0.002l-0.78-0.899l-0.886-0.766L32.28,6.394l-0.646-0.889L30.09,3.543l-1.157-0.167H27.76l-1.157,0.167l-1.524,2.196l-0.666,0.655l-0.985,0.633l-0.886,0.766l-0.779,0.899c0,0.001-0.002,0.001-0.002,0.002l0,0l0,0c-0.026,0.03-0.059,0.054-0.094,0.07c-0.032,0.015-0.067,0.024-0.105,0.026l0,0l0,0c-0.013,0-0.022-0.001-0.034,0l0,0l0,0h-0.001l0,0c-0.027-0.002-0.054-0.007-0.078-0.017h-0.001l0,0C21.421,8.765,21.4,8.755,21.38,8.74c0,0,0,0-0.001,0l0,0c-0.012-0.008-0.021-0.017-0.032-0.026c-0.026-0.024-0.048-0.054-0.062-0.085c-0.016-0.032-0.025-0.069-0.028-0.107l0,0l0,0c0-0.003,0-0.007,0-0.012l-0.022-1.021c0-0.009,0-0.02,0-0.028s0.001-0.018,0.003-0.026l0.134-1.012c0.001-0.009,0.002-0.018,0.004-0.025s0.004-0.019,0.007-0.026l0.286-0.977c0.002-0.01,0.005-0.019,0.009-0.027l0,0l0,0c0.004-0.008,0.008-0.017,0.011-0.024l0.433-0.922c0.003-0.007,0.007-0.014,0.01-0.021c0.005-0.009,0.012-0.019,0.018-0.026l0.567-0.846c0.004-0.007,0.01-0.014,0.016-0.021c0.006-0.008,0.012-0.016,0.019-0.021l0.691-0.748c0.006-0.007,0.013-0.014,0.02-0.021c0.007-0.006,0.014-0.011,0.021-0.017l0.797-0.633c0.006-0.005,0.013-0.011,0.021-0.017l0,0l0,0c0.009-0.005,0.017-0.01,0.024-0.015l0.885-0.504c0.007-0.004,0.016-0.009,0.023-0.013s0.017-0.007,0.024-0.012l0.952-0.363c0.008-0.003,0.017-0.006,0.024-0.01c0.009-0.003,0.019-0.005,0.027-0.007l0.995-0.213c0.011-0.002,0.021-0.004,0.029-0.005c0.008-0.001,0.017-0.002,0.025-0.002l1.018-0.059c0.007,0,0.021-0.002,0.021-0.001c0.001,0,0.014,0,0.021,0.001l1.018,0.059c0.01,0,0.018,0.001,0.025,0.002c0.01,0.001,0.021,0.003,0.028,0.005l0.995,0.213c0.01,0.002,0.02,0.004,0.028,0.007s0.017,0.006,0.023,0.009l0.951,0.363c0.009,0.003,0.018,0.008,0.025,0.012c0.009,0.004,0.017,0.008,0.023,0.013l0.884,0.504c0.009,0.005,0.018,0.01,0.025,0.015c0.007,0.006,0.014,0.011,0.02,0.017l0.797,0.633c0.007,0.005,0.015,0.011,0.021,0.017c0.007,0.008,0.014,0.014,0.02,0.021l0.691,0.748c0.007,0.007,0.014,0.015,0.02,0.021c0.005,0.008,0.011,0.014,0.016,0.021l0.567,0.846c0.006,0.008,0.012,0.018,0.017,0.026c0.004,0.007,0.008,0.014,0.011,0.021l0.433,0.922c0.004,0.009,0.009,0.018,0.012,0.026c0.003,0.008,0.006,0.017,0.008,0.025l0.287,0.978c0.003,0.009,0.006,0.019,0.008,0.027s0.003,0.018,0.004,0.025l0.134,1.011c0.001,0.01,0.002,0.02,0.003,0.028c0,0.009,0,0.018,0,0.025l-0.022,1.021c0,0.004,0,0.008-0.001,0.012l0,0l0,0c-0.002,0.038-0.012,0.072-0.026,0.104c-0.016,0.035-0.04,0.068-0.07,0.095c-0.001,0-0.001,0-0.001,0l0,0c-0.004,0.004-0.008,0.008-0.013,0.011l0,0c0,0,0,0-0.001,0.001l0,0h-0.001c-0.023,0.018-0.05,0.032-0.076,0.042h-0.001l0,0c-0.023,0.009-0.051,0.014-0.077,0.016l0,0c-0.003,0-0.001,0-0.002,0C35.167,8.79,35.156,8.792,35.149,8.792z"/>
       </g>
      </g>
     </g>
    </g>
    <g >
     <title >element:TEMP1</title>
     <g >
      <title >package:PETAL-NOHOLE-2SIDE</title>
      <g >
       <title >polygon</title>
       <g >
        <path  fill="#FFFFFF" d="M7.71,24.605c-0.008,0-0.016,0-0.023-0.001l0,0l0,0c-0.037-0.003-0.074-0.015-0.109-0.032l0,0c0,0,0,0-0.001,0l0,0c0.001,0-0.002-0.001-0.004-0.002l-0.897-0.492c-0.007-0.004-0.015-0.008-0.021-0.013c-0.008-0.005-0.016-0.011-0.022-0.017l-0.808-0.619c-0.007-0.006-0.014-0.012-0.021-0.018c-0.007-0.006-0.014-0.013-0.021-0.02l-0.703-0.738c-0.006-0.006-0.012-0.012-0.017-0.02c-0.006-0.007-0.013-0.015-0.018-0.022L4.46,21.776c-0.005-0.007-0.01-0.014-0.014-0.021c-0.005-0.008-0.01-0.017-0.014-0.024l-0.449-0.915c-0.004-0.008-0.007-0.017-0.011-0.023c-0.005-0.009-0.008-0.019-0.01-0.026L3.66,19.792c-0.002-0.007-0.004-0.014-0.006-0.021C3.652,19.76,3.65,19.75,3.648,19.739l-0.15-1.007c-0.001-0.009-0.002-0.019-0.003-0.027s-0.001-0.018-0.001-0.027l0.005-1.02c0-0.008,0-0.017,0.001-0.025c0-0.01,0.002-0.019,0.003-0.028l0.161-1.005c0.001-0.01,0.003-0.02,0.005-0.028c0.002-0.008,0.004-0.017,0.007-0.025l0.313-0.97c0.003-0.009,0.006-0.019,0.01-0.028c0.003-0.007,0.007-0.015,0.01-0.021l0.458-0.911c0.004-0.007,0.008-0.014,0.012-0.021c0.003-0.005,0.006-0.01,0.01-0.016l0.56-0.852c0.006-0.008,0.011-0.016,0.017-0.022c0.005-0.007,0.012-0.015,0.018-0.021l0.684-0.756c0.006-0.007,0.013-0.015,0.021-0.021c0.006-0.006,0.013-0.011,0.02-0.016l0.791-0.643c0.007-0.006,0.014-0.011,0.021-0.016c0.008-0.006,0.016-0.011,0.024-0.017l0.88-0.513c0.007-0.004,0.015-0.009,0.022-0.013s0.018-0.008,0.026-0.011l0.947-0.373c0.008-0.003,0.016-0.007,0.022-0.009c0.01-0.003,0.02-0.006,0.029-0.008l0.993-0.224c0.008-0.002,0.017-0.003,0.024-0.005c0.011-0.001,0.021-0.002,0.029-0.003l1.016-0.07c0.01-0.001,0.018-0.001,0.029-0.001l0,0l0,0c0.008,0,0.018,0,0.025,0.001l1.015,0.086c0.01,0.001,0.021,0.002,0.03,0.004c0.008,0.001,0.016,0.003,0.023,0.005l0.991,0.241c0.008,0.001,0.017,0.003,0.023,0.006c0.01,0.003,0.02,0.007,0.028,0.011l0.94,0.391c0.008,0.003,0.016,0.007,0.023,0.01c0.008,0.004,0.017,0.009,0.024,0.014l0.874,0.531c0.003,0.002,0.006,0.003,0.009,0.005c0,0,0,0,0.001,0l0,0c0.031,0.021,0.058,0.045,0.078,0.074c0.023,0.033,0.04,0.07,0.047,0.112c0.007,0.038,0.007,0.076,0,0.111l0,0l0,0c-0.005,0.023-0.012,0.045-0.022,0.067c-0.005,0.011-0.011,0.021-0.019,0.032l0,0l0,0c-0.021,0.03-0.046,0.058-0.074,0.078c-0.03,0.021-0.064,0.037-0.103,0.045c-0.004,0.001-0.008,0.001-0.012,0.002l-1.168,0.226l-1.106,0.384l-1.041,0.537l-0.954,0.68L9.45,15.452l-0.724,0.92L8.14,17.387l-0.437,1.086l-0.274,1.138l-0.112,1.166l0.056,1.169l0.222,1.151l0.388,1.124c0.001,0.003,0.002,0.007,0.003,0.011l0,0l0,0C7.996,24.269,8,24.305,7.997,24.341c-0.003,0.039-0.015,0.078-0.035,0.115l0,0l0,0c0,0,0,0,0,0.001l0,0l0,0l0,0l0,0c0,0,0,0,0,0.001l0,0c0,0,0,0,0,0.001l0,0c0,0,0,0.001-0.001,0.001l0,0v0.001l0,0c0,0,0,0,0,0.001l0,0c0,0,0,0,0,0.001l0,0l0,0c-0.017,0.027-0.037,0.052-0.06,0.071c-0.024,0.021-0.051,0.037-0.082,0.048l0,0c0,0,0,0-0.001,0l0,0c0,0,0,0.001-0.001,0l0,0H7.816l0,0c0,0,0,0-0.001,0l0,0c0,0,0,0-0.001,0l0,0c-0.001,0-0.002,0-0.002,0.001l0,0c0,0,0,0-0.001,0l0,0H7.81C7.773,24.6,7.741,24.605,7.71,24.605z"/>
       </g>
      </g>
     </g>
    </g>
    <g >
     <title >element:TEMP2</title>
     <g >
      <title >package:PETAL-NOHOLE-2SIDE</title>
      <g >
       <title >polygon</title>
       <g >
        <path  fill="#FFFFFF" d="M28.347,55.847C28.346,55.847,28.346,55.847,28.347,55.847c0,0.003-0.015,0-0.021-0.001l-1.018-0.06c-0.019-0.002-0.037-0.004-0.055-0.008l-0.996-0.214c-0.008-0.001-0.016-0.003-0.023-0.006c-0.009-0.002-0.02-0.007-0.028-0.011l-0.951-0.363c-0.009-0.003-0.017-0.006-0.024-0.012l0,0l0,0c-0.008-0.004-0.017-0.008-0.023-0.012l-0.885-0.505c-0.008-0.005-0.017-0.01-0.025-0.016c-0.007-0.006-0.014-0.011-0.02-0.016l-0.797-0.634c-0.007-0.005-0.015-0.011-0.021-0.017c-0.007-0.008-0.014-0.015-0.02-0.021l-0.691-0.748c-0.006-0.007-0.012-0.014-0.018-0.021c-0.006-0.008-0.011-0.016-0.017-0.022l-0.567-0.846c-0.006-0.008-0.013-0.019-0.018-0.026c-0.004-0.007-0.007-0.014-0.01-0.021l-0.433-0.922c-0.003-0.009-0.007-0.018-0.011-0.024c-0.003-0.009-0.006-0.018-0.009-0.026l-0.286-0.978c-0.003-0.009-0.005-0.019-0.007-0.026s-0.003-0.018-0.004-0.025l-0.134-1.012c-0.001-0.009-0.002-0.019-0.003-0.026c0-0.011,0-0.02,0-0.027l0.022-1.021c0-0.005,0-0.009,0-0.013c0.002-0.036,0.012-0.07,0.025-0.103c0.017-0.037,0.041-0.07,0.073-0.1c0.002-0.001,0.004-0.003,0.006-0.005l0,0c0,0,0-0.001,0.001-0.001l0,0c0.024-0.02,0.051-0.035,0.079-0.045c0-0.001,0-0.001,0.001-0.001l0,0c0.033-0.013,0.07-0.022,0.107-0.019c0.042,0.001,0.081,0.011,0.116,0.026l0,0l0,0c0.034,0.018,0.065,0.039,0.091,0.068l0,0c0,0.001,0,0.001,0,0.001c0.001,0.001,0.002,0.002,0.003,0.003l0.78,0.899l0.886,0.766l0.985,0.633l1.066,0.486l1.124,0.329l1.157,0.167h1.173l1.157-0.167l1.124-0.329l1.065-0.486l0.985-0.633l0.886-0.766l0.78-0.899c0.001-0.001,0.002-0.002,0.003-0.003c0,0,0,0,0-0.001l0,0c0.025-0.028,0.057-0.051,0.09-0.067c0.038-0.018,0.088-0.029,0.125-0.027c0.036,0,0.07,0.007,0.104,0.02l0,0c0.001,0,0.001,0,0.001,0c0.021,0.009,0.043,0.021,0.062,0.034l0,0c0.001,0,0.001,0,0.001,0c0,0.001,0.001,0.001,0.001,0.001l0,0c0.009,0.007,0.018,0.014,0.024,0.021c0.029,0.024,0.052,0.057,0.066,0.09c0.016,0.031,0.024,0.067,0.026,0.104c0.001,0.004,0.001,0.008,0.001,0.013l0.022,1.021c0,0.009,0,0.017,0,0.025c-0.001,0.01-0.002,0.02-0.003,0.028l-0.134,1.011c-0.001,0.009-0.002,0.019-0.004,0.026s-0.005,0.019-0.008,0.026l-0.287,0.978c-0.002,0.01-0.005,0.018-0.008,0.025c-0.004,0.008-0.008,0.018-0.012,0.025l-0.433,0.922c-0.003,0.007-0.007,0.014-0.011,0.021c-0.005,0.01-0.011,0.02-0.017,0.026l-0.567,0.846c-0.006,0.008-0.012,0.016-0.018,0.022c-0.006,0.006-0.012,0.014-0.018,0.021l-0.691,0.748c-0.006,0.007-0.013,0.014-0.02,0.021c-0.007,0.006-0.015,0.012-0.021,0.017l-0.797,0.634c-0.006,0.005-0.013,0.01-0.02,0.016c-0.009,0.006-0.018,0.011-0.025,0.016l-0.884,0.505c-0.008,0.004-0.017,0.009-0.024,0.013s-0.017,0.008-0.023,0.011l-0.951,0.363c-0.01,0.004-0.021,0.009-0.029,0.012c-0.008,0.002-0.016,0.004-0.022,0.005l-0.996,0.214c-0.018,0.005-0.036,0.006-0.056,0.008l-1.017,0.059C28.361,55.847,28.354,55.847,28.347,55.847z"/>
       </g>
      </g>
     </g>
    </g>
    <g >
     <title >element:TEMP3</title>
     <g >
      <title >package:PETAL-NOHOLE-2SIDE</title>
      <g >
       <title >polygon</title>
       <g >
        <path  fill="#FFFFFF" d="M48.983,24.605c-0.03,0-0.062-0.005-0.092-0.016l0,0H48.89h-0.001l0,0c-0.001,0-0.001,0-0.001,0h-0.001l0,0h-0.001l0,0c-0.003-0.001-0.006-0.002-0.008-0.003l0,0h-0.001l0,0h-0.001c0,0,0,0-0.001,0l0,0h-0.001l0,0c-0.029-0.012-0.057-0.027-0.08-0.048l0,0c0,0,0,0-0.001,0c-0.021-0.019-0.041-0.041-0.057-0.066l0,0l0,0c-0.001,0-0.001-0.001-0.002-0.003l0,0c-0.001-0.002-0.002-0.004-0.004-0.006l0,0l0,0l0,0c-0.001,0-0.001,0-0.001-0.001l0,0l0,0c0,0,0,0-0.001,0c-0.021-0.037-0.031-0.075-0.034-0.114c-0.003-0.036,0.001-0.072,0.012-0.108l0,0l0,0c0.001-0.004,0.003-0.007,0.004-0.011l0.389-1.124l0.221-1.151l0.056-1.169l-0.111-1.166l-0.275-1.138l-0.436-1.086l-0.587-1.015l-0.724-0.921l-0.847-0.809l-0.954-0.679l-1.041-0.537l-1.105-0.385l-1.168-0.226c-0.004-0.001-0.009-0.002-0.013-0.003c-0.036-0.008-0.069-0.023-0.098-0.043c-0.032-0.022-0.062-0.051-0.082-0.086l0,0c0,0,0,0-0.001,0c-0.002-0.004-0.005-0.009-0.007-0.013l0,0c0,0,0,0-0.002,0l0,0l0,0c-0.016-0.029-0.024-0.061-0.029-0.091l0,0l0,0c-0.004-0.022-0.005-0.046-0.003-0.069l0,0c0,0,0,0,0-0.001c0.001-0.014,0.004-0.027,0.007-0.04l0,0l0,0c0.009-0.035,0.021-0.066,0.042-0.095c0.021-0.033,0.052-0.062,0.089-0.085l0.875-0.531c0.009-0.005,0.017-0.011,0.025-0.015c0.008-0.004,0.016-0.007,0.022-0.01l0.94-0.39c0.009-0.004,0.019-0.007,0.026-0.011c0.01-0.002,0.018-0.005,0.024-0.006l0.99-0.24c0.009-0.003,0.017-0.005,0.024-0.006c0.011-0.001,0.021-0.002,0.029-0.003l1.015-0.086c0.009-0.001,0.018-0.001,0.025-0.001l0,0l0,0c0.023,0.004,0.02,0.001,0.029,0.001l1.016,0.07c0.009,0,0.019,0.001,0.027,0.003c0.009,0.001,0.018,0.003,0.025,0.005l0.994,0.225c0.009,0.002,0.019,0.004,0.026,0.007c0.009,0.003,0.017,0.006,0.024,0.009l0.946,0.374c0.009,0.003,0.017,0.006,0.024,0.01c0.009,0.004,0.017,0.008,0.023,0.013l0.88,0.514c0.009,0.005,0.018,0.01,0.024,0.016c0.007,0.005,0.014,0.01,0.021,0.017l0.791,0.642c0.008,0.006,0.016,0.012,0.021,0.019s0.012,0.013,0.018,0.02l0.685,0.756c0.006,0.006,0.011,0.012,0.016,0.018c0.007,0.009,0.013,0.018,0.02,0.025l0.559,0.851c0.004,0.007,0.008,0.014,0.012,0.021c0.004,0.005,0.007,0.011,0.01,0.017l0.458,0.911c0.004,0.008,0.009,0.018,0.012,0.025c0.004,0.008,0.007,0.017,0.009,0.024l0.313,0.971c0.003,0.009,0.006,0.019,0.008,0.028c0.002,0.009,0.004,0.017,0.005,0.024l0.16,1.005c0.002,0.009,0.003,0.02,0.004,0.028s0.001,0.018,0.001,0.025l0.005,1.02c0,0.009,0,0.019-0.001,0.027c-0.001,0.01-0.002,0.019-0.003,0.026l-0.15,1.007c-0.001,0.009-0.002,0.02-0.005,0.027c-0.002,0.009-0.004,0.018-0.007,0.026l-0.303,0.973c-0.003,0.009-0.006,0.018-0.01,0.027c-0.004,0.008-0.008,0.016-0.012,0.022l-0.448,0.915c-0.004,0.009-0.009,0.017-0.014,0.026c-0.004,0.007-0.009,0.014-0.014,0.021l-0.582,0.835c-0.005,0.008-0.011,0.017-0.019,0.023c-0.005,0.006-0.011,0.013-0.017,0.019l-0.703,0.738c-0.006,0.006-0.012,0.013-0.019,0.019c-0.008,0.007-0.016,0.014-0.022,0.02l-0.808,0.619c-0.008,0.006-0.016,0.011-0.023,0.017c-0.007,0.005-0.015,0.009-0.021,0.013l-0.897,0.493c-0.036,0.021-0.075,0.031-0.113,0.035h-0.001l0,0C49,24.605,48.991,24.605,48.983,24.605z"/>
       </g>
      </g>
     </g>
    </g>
    <g >
     <title >element:TEMPS</title>
     <g >
      <title >package:PETAL-SMALL-2SIDE</title>
      <g >
       <title >polygon</title>
       <g >
        <path  fill="#FFFFFF" d="M46.036,45.705c-0.001,0-0.002,0-0.004,0l0,0l0,0c-0.009,0-0.018-0.001-0.025-0.002l-1.015-0.086c-0.01,0-0.02-0.002-0.029-0.003c-0.009-0.002-0.017-0.003-0.024-0.006l-0.99-0.24c-0.008-0.002-0.016-0.004-0.024-0.007c-0.008-0.003-0.019-0.007-0.026-0.011l-0.94-0.391c-0.008-0.003-0.016-0.006-0.022-0.01c-0.01-0.005-0.018-0.009-0.025-0.015l-0.874-0.53c-0.002-0.002-0.005-0.003-0.007-0.005c-0.033-0.021-0.062-0.048-0.082-0.078c-0.021-0.028-0.034-0.062-0.043-0.098l0,0c0,0,0,0,0-0.001c-0.003-0.014-0.006-0.026-0.007-0.04l0,0l0,0c-0.002-0.024-0.001-0.049,0.003-0.07v-0.001l0,0c0.005-0.031,0.015-0.062,0.03-0.09c0,0,0,0,0-0.001l0,0c0.001,0,0.001,0,0.001-0.001l0,0c0.002-0.004,0.005-0.01,0.007-0.014c0.001,0,0.001,0,0.001,0c0-0.001,0-0.001,0-0.001c0.021-0.033,0.048-0.062,0.079-0.084c0.029-0.021,0.063-0.037,0.103-0.046c0.004-0.001,0.007-0.001,0.011-0.002l1.168-0.227l1.105-0.384l1.041-0.536l0.954-0.681l1.906,0.091l0.724-0.922l0.586-1.014l0.436-1.087l-0.783-2.036l0.111-1.166l-0.056-1.169l-0.221-1.151l-0.389-1.124c-0.001-0.004-0.003-0.007-0.004-0.011l0,0l0,0c-0.011-0.036-0.015-0.073-0.012-0.107c0.003-0.039,0.015-0.078,0.034-0.115c0.001,0,0.001,0,0.001,0l0,0c0-0.001,0-0.001,0-0.001l0.001-0.001l0,0c0-0.001,0-0.001,0-0.001l0,0c0.002-0.003,0.003-0.005,0.004-0.007l0,0c0.001-0.001,0.001-0.001,0.002-0.002l0,0c0-0.001,0-0.001,0-0.001s0-0.001,0.001-0.001l0,0c0.015-0.023,0.032-0.045,0.052-0.062l0,0c0-0.001,0-0.001,0-0.001c0.028-0.024,0.062-0.045,0.1-0.058c0.039-0.015,0.077-0.021,0.117-0.016c0,0,0,0,0.001,0l0,0c0.036,0.003,0.072,0.015,0.107,0.031c0.002,0.001,0.005,0.003,0.007,0.004l0.896,0.492c0.008,0.004,0.016,0.009,0.022,0.014s0.016,0.01,0.022,0.017l0.808,0.62c0.008,0.005,0.017,0.012,0.022,0.019c0.007,0.006,0.013,0.012,0.019,0.018l0.703,0.738c0.006,0.006,0.012,0.012,0.017,0.02c0.008,0.008,0.014,0.016,0.019,0.022l0.582,0.835c0.005,0.007,0.01,0.014,0.014,0.021c0.005,0.008,0.01,0.017,0.015,0.024l0.447,0.914c0.004,0.008,0.008,0.017,0.013,0.024c0.003,0.009,0.006,0.018,0.009,0.026l0.303,0.973c0.003,0.009,0.005,0.018,0.007,0.025c0.003,0.01,0.004,0.02,0.005,0.027l0.15,1.007c0.001,0.009,0.002,0.019,0.003,0.026c0.001,0.01,0.001,0.019,0.001,0.027l-0.005,1.02c0,0.009,0,0.018-0.001,0.026c-0.001,0.01-0.002,0.019-0.004,0.027l-0.16,1.005c-0.001,0.011-0.003,0.02-0.005,0.027s-0.005,0.018-0.008,0.026l-0.313,0.969c-0.003,0.009-0.006,0.018-0.01,0.026c-0.003,0.008-0.007,0.016-0.011,0.022l-0.458,0.912c-0.002,0.005-0.005,0.011-0.009,0.016c-0.004,0.008-0.009,0.015-0.013,0.021l-0.559,0.851c-0.006,0.009-0.013,0.019-0.02,0.025c-0.005,0.006-0.01,0.012-0.016,0.018l-0.685,0.757c-0.006,0.008-0.013,0.015-0.02,0.021c-0.007,0.006-0.013,0.012-0.021,0.017l-0.79,0.643c-0.008,0.006-0.016,0.011-0.021,0.016c-0.008,0.006-0.016,0.011-0.023,0.016l-0.88,0.515c-0.007,0.005-0.016,0.009-0.022,0.013s-0.018,0.008-0.025,0.011l-0.946,0.373c-0.009,0.005-0.018,0.008-0.025,0.011s-0.018,0.005-0.025,0.007l-0.994,0.225c-0.009,0.002-0.018,0.003-0.025,0.005c-0.01,0.001-0.02,0.002-0.027,0.003l-1.016,0.069C46.052,45.705,46.045,45.705,46.036,45.705z"/>
       </g>
      </g>
     </g>
    </g>
    <g >
     <title >element:U$2</title>
     <g >
      <title >package:LOGO-LILYPAD</title>
     </g>
    </g>
    <g >
     <title >element:U1</title>
     <g >
      <title >package:SOT23-3</title>
     </g>
    </g>
   </g>
   <rect  width="7.938" x="24.378" y="26.362" fill="#FFFFFF" height="2.268" fill-opacity="0.15"/>
   <g  id="connector2pin">
    <path  fill="#9A916C" d="M9.637,36.72c1.323,0,2.399,1.075,2.399,2.397s-1.076,2.397-2.399,2.397c-1.322,0-2.398-1.075-2.398-2.397S8.315,36.72,9.637,36.72 M9.637,35.28c-2.119,0-3.838,1.719-3.838,3.838c0,2.12,1.719,3.838,3.838,3.838c2.12,0,3.839-1.718,3.839-3.838C13.476,36.999,11.758,35.28,9.637,35.28L9.637,35.28z"/>
   </g>
   <g  id="connector3pin">
    <path  fill="#9A916C" d="M28.347,4.405c1.322,0,2.397,1.076,2.397,2.399c0,1.322-1.075,2.398-2.397,2.398c-1.322,0-2.398-1.076-2.398-2.398C25.948,5.481,27.025,4.405,28.347,4.405 M28.347,2.965c-2.12,0-3.838,1.719-3.838,3.839c0,2.119,1.718,3.838,3.838,3.838c2.12,0,3.837-1.719,3.837-3.838C32.184,4.683,30.467,2.965,28.347,2.965L28.347,2.965z"/>
   </g>
   <g  id="connector4pin">
    <path  fill="#9A916C" d="M47.055,36.72c1.322,0,2.397,1.075,2.397,2.397s-1.075,2.397-2.397,2.397s-2.398-1.075-2.398-2.397S45.733,36.72,47.055,36.72 M47.055,35.28c-2.12,0-3.839,1.719-3.839,3.838c0,2.12,1.719,3.838,3.839,3.838c2.119,0,3.838-1.718,3.838-3.838C50.893,36.999,49.175,35.28,47.055,35.28L47.055,35.28z"/>
   </g>
  </g>
 </g>
</svg>
