<?xml version='1.0' encoding='utf-8'?>
<!DOCTYPE svg PUBLIC '-//W3C//DTD SVG 1.1//EN' 'http://www.w3.org/Graphics/SVG/1.1/DTD/svg11.dtd'>
<!-- Generator: Adobe Illustrator 15.0.1, SVG Export Plug-In . SVG Version: 6.00 Build 0)  -->
<svg xmlns="http://www.w3.org/2000/svg" width="0.787403in" xml:space="preserve" xmlns:xml="http://www.w3.org/XML/1998/namespace" x="0px" version="1.1" y="0px" height="0.787403in" viewBox="0 0 56.693 56.693" id="Ebene_1" enable-background="new 0 0 56.693 56.693">
 <desc >Fritzing breadboard generated by brd2svg</desc>
 <g  id="breadboard">
  <g  id="icon">
   <path  fill="#672E58" d="M0,28.346c-0.028,15.654,12.639,28.369,28.293,28.398c15.656,0.029,28.371-12.638,28.4-28.293c0-0.035,0-0.071,0-0.105C56.722,12.691,44.055-0.024,28.4-0.053C12.744-0.082,0.029,12.585,0,28.24C0,28.275,0,28.311,0,28.346z M43.653,38.976c0-1.723,1.396-3.118,3.118-3.118s3.118,1.396,3.118,3.118c0,1.722-1.396,3.117-3.118,3.117S43.653,40.698,43.653,38.976z M6.832,38.976c0-1.723,1.396-3.118,3.118-3.118s3.118,1.396,3.118,3.118c0,1.722-1.396,3.117-3.118,3.117C8.227,42.094,6.832,40.698,6.832,38.976z M25.228,7.087c-0.001-1.723,1.395-3.119,3.117-3.119c1.722-0.001,3.117,1.396,3.118,3.116c0,0.001,0,0.002,0,0.003c0.001,1.723-1.395,3.118-3.116,3.119c-1.723,0.001-3.118-1.395-3.119-3.117C25.228,7.089,25.228,7.088,25.228,7.087z"/>
   <g >
    <title >layer 21</title>
    <g >
     <title >text:S</title>
     <text  fill="#FFFFFF" font-family="OCRA" transform="matrix(1 0 0 1 26.6453 18.1414)" font-size="5.8464">S</text>
    </g>
    <g >
     <title >text:-</title>
     <text  fill="#FFFFFF" font-family="OCRA" transform="matrix(1 0 0 1 16.1062 40.5867)" font-size="5.8464">-</text>
    </g>
    <g >
     <title >text:+</title>
     <text  fill="#FFFFFF" font-family="OCRA" transform="matrix(1 0 0 1 36.9861 40.5867)" font-size="5.8464">+</text>
    </g>
    <g >
     <title >element:LIGHT+</title>
     <g >
      <title >package:PETAL-SMALL-2SIDE</title>
     </g>
    </g>
    <g >
     <title >element:LIGHT-</title>
     <g >
      <title >package:PETAL-SMALL-2SIDE</title>
     </g>
    </g>
    <g >
     <title >element:LIGHT1</title>
     <g >
      <title >package:PETAL-NOHOLE-2SIDE</title>
     </g>
    </g>
    <g >
     <title >element:LIGHT2</title>
     <g >
      <title >package:PETAL-NOHOLE-2SIDE</title>
     </g>
    </g>
    <g >
     <title >element:LIGHT3</title>
     <g >
      <title >package:PETAL-NOHOLE-2SIDE</title>
     </g>
    </g>
    <g >
     <title >element:LIGHTS</title>
     <g >
      <title >package:PETAL-SMALL-2SIDE</title>
     </g>
    </g>
    <g >
     <title >element:R1</title>
     <g >
      <title >package:0402-RES</title>
     </g>
    </g>
    <g >
     <title >element:U$2</title>
     <g >
      <title >package:LOGO-LILYPAD</title>
     </g>
    </g>
    <g >
     <title >element:U1</title>
     <g >
      <title >package:TEMT6000-SEN</title>
      <line  fill="none" stroke="#FFFFFF" stroke-linecap="round" y1="34.015" stroke-width="0.36" x1="30.501" y2="34.015" x2="31.096"/>
      <line  fill="none" stroke="#FFFFFF" stroke-linecap="round" y1="34.015" stroke-width="0.36" x1="31.096" y2="25.625" x2="31.096"/>
      <line  fill="none" stroke="#FFFFFF" stroke-linecap="round" y1="34.015" stroke-width="0.36" x1="26.192" y2="34.015" x2="25.54"/>
      <line  fill="none" stroke="#FFFFFF" stroke-linecap="round" y1="34.015" stroke-width="0.36" x1="25.54" y2="25.54" x2="25.54"/>
      <line  fill="none" stroke="#FFFFFF" stroke-linecap="round" y1="22.706" stroke-width="0.36" x1="28.148" y2="22.706" x2="28.573"/>
     </g>
    </g>
   </g>
   <g >
    <title >layer 1</title>
    <g >
     <title >element:LIGHT+</title>
     <g >
      <title >package:PETAL-SMALL-2SIDE</title>
      <title >polygon</title>
     </g>
    </g>
    <g >
     <title >element:LIGHT-</title>
     <g >
      <title >package:PETAL-SMALL-2SIDE</title>
      <title >polygon</title>
     </g>
    </g>
    <g >
     <title >element:LIGHT1</title>
     <g >
      <title >package:PETAL-NOHOLE-2SIDE</title>
      <title >polygon</title>
     </g>
    </g>
    <g >
     <title >element:LIGHT2</title>
     <g >
      <title >package:PETAL-NOHOLE-2SIDE</title>
      <title >polygon</title>
     </g>
    </g>
    <g >
     <title >element:LIGHT3</title>
     <g >
      <title >package:PETAL-NOHOLE-2SIDE</title>
      <title >polygon</title>
     </g>
    </g>
    <g >
     <title >element:LIGHTS</title>
     <g >
      <title >package:PETAL-SMALL-2SIDE</title>
      <title >polygon</title>
     </g>
    </g>
    <g >
     <title >element:R1</title>
     <g >
      <title >package:0402-RES</title>
     </g>
    </g>
    <g >
     <title >element:U$2</title>
     <g >
      <title >package:LOGO-LILYPAD</title>
     </g>
    </g>
    <g >
     <title >element:U1</title>
     <g >
      <title >package:TEMT6000-SEN</title>
     </g>
    </g>
   </g>
   <g >
    <path  fill="#FFFFFF" d="M52.914,37.846c-0.001-0.01-0.002-0.019-0.003-0.026l-0.149-1.007c-0.002-0.009-0.003-0.019-0.005-0.026c-0.002-0.01-0.005-0.019-0.008-0.027l-0.304-0.973c-0.002-0.008-0.005-0.017-0.009-0.023c-0.003-0.01-0.007-0.019-0.012-0.026l-0.447-0.914c-0.004-0.008-0.009-0.017-0.014-0.025c-0.005-0.007-0.01-0.015-0.015-0.021l-0.582-0.835c-0.005-0.008-0.011-0.016-0.017-0.022c-0.007-0.007-0.013-0.014-0.019-0.02l-0.702-0.74c-0.006-0.007-0.013-0.013-0.02-0.019c-0.007-0.008-0.014-0.014-0.021-0.019l-0.807-0.62c-0.007-0.005-0.014-0.01-0.021-0.015c-0.009-0.006-0.017-0.011-0.024-0.015l-0.896-0.492c-0.002-0.001-0.005-0.003-0.007-0.004c-0.035-0.019-0.07-0.028-0.106-0.031c-0.001,0-0.001,0-0.001,0c-0.04-0.006-0.079,0.001-0.118,0.015c-0.037,0.014-0.07,0.033-0.1,0.059c0,0,0,0,0,0.001c-0.02,0.018-0.036,0.038-0.052,0.062c-0.001,0-0.001,0.001-0.001,0.001s0,0,0,0.001c-0.001,0.001-0.001,0.001-0.002,0.002c-0.001,0.002-0.002,0.004-0.004,0.007c0,0,0,0,0,0.001l-0.001,0.001c0,0,0,0,0,0.002c0,0,0,0-0.001,0c-0.02,0.036-0.031,0.075-0.034,0.114c-0.003,0.035,0.001,0.072,0.012,0.108c0.001,0.004,0.004,0.007,0.005,0.011l0.388,1.124l0.221,1.15l0.057,1.17L48.98,36.94l-0.276,1.138l0.477,1.494l-0.586,1.015L46.959,41.1l-0.847,0.809l-0.954,0.68l-1.041,0.536l-1.105,0.384l-1.17,0.228c-0.042,0.009-0.08,0.024-0.112,0.049v0.001c0,0,0,0-0.001,0c-0.027,0.021-0.052,0.044-0.071,0.074c-0.008,0.012-0.015,0.022-0.021,0.036c-0.011,0.021-0.018,0.042-0.021,0.062c-0.008,0.037-0.008,0.075-0.001,0.114c0.009,0.043,0.026,0.081,0.05,0.114c0.02,0.025,0.042,0.05,0.07,0.067c0.005,0.004,0.011,0.008,0.016,0.011l0.872,0.529c0.009,0.006,0.019,0.012,0.026,0.016s0.015,0.007,0.021,0.01l0.941,0.39c0.009,0.004,0.018,0.008,0.027,0.012c0.008,0.003,0.017,0.005,0.024,0.007l0.99,0.238c0.008,0.003,0.016,0.005,0.022,0.007c0.011,0.001,0.021,0.003,0.029,0.003l1.015,0.087c0.011,0.001,0.024-0.002,0.029,0.002c0.009,0,0.018,0,0.025-0.001l1.016-0.069c0.009-0.001,0.02-0.002,0.028-0.003c0.009-0.002,0.017-0.003,0.024-0.005l0.994-0.225c0.01-0.003,0.02-0.006,0.027-0.009c0.009-0.002,0.017-0.005,0.024-0.008l0.946-0.374c0.01-0.003,0.019-0.007,0.027-0.012c0.007-0.003,0.015-0.008,0.021-0.012l0.881-0.516c0.008-0.004,0.016-0.009,0.022-0.015c0.007-0.005,0.015-0.01,0.021-0.017l0.791-0.642c0.006-0.005,0.012-0.01,0.018-0.015c0.008-0.008,0.016-0.016,0.022-0.023l0.682-0.756c0.007-0.006,0.013-0.013,0.018-0.02c0.007-0.009,0.012-0.016,0.017-0.022l0.561-0.852c0.004-0.007,0.008-0.013,0.011-0.02c0.005-0.006,0.008-0.012,0.012-0.019l0.457-0.911c0.004-0.008,0.008-0.017,0.011-0.023c0.004-0.009,0.008-0.018,0.01-0.026l0.312-0.97c0.003-0.008,0.005-0.016,0.007-0.022c0-0.001,0-0.001,0-0.001c0.003-0.011,0.005-0.02,0.006-0.028l0.161-1.006c0.002-0.009,0.003-0.019,0.004-0.026c0.001-0.01,0.001-0.019,0.001-0.027l0.005-1.019C52.915,37.865,52.915,37.856,52.914,37.846z"/>
    <path  fill="#FFFFFF" d="M15.07,43.868c-0.021-0.036-0.05-0.065-0.082-0.087c-0.032-0.022-0.069-0.038-0.109-0.047l-1.169-0.228l-1.106-0.384l-1.041-0.536l-0.954-0.68l-0.847-0.809l-1.604-0.512l-0.586-1.014l0.445-1.497L7.74,36.94l-0.112-1.166l0.057-1.17l0.221-1.15l0.388-1.124c0.001-0.004,0.002-0.007,0.003-0.011l0,0c0.012-0.036,0.016-0.073,0.013-0.108c-0.003-0.039-0.016-0.078-0.035-0.114l0,0c0.002-0.012,0-0.003,0-0.003l0,0c0-0.001,0-0.001,0-0.001l0,0c0-0.001,0-0.001,0-0.001s0,0,0-0.001l0,0c0-0.001,0-0.001,0-0.001s0,0-0.001-0.001c0,0,0,0,0-0.001c0,0,0,0,0-0.001l0,0v-0.001l0,0c0,0,0,0,0-0.001c-0.019-0.027-0.04-0.054-0.065-0.074c-0.02-0.016-0.042-0.028-0.064-0.039H8.141l0,0c0-0.002,0-0.002,0-0.002c-0.009-0.003-0.018-0.007-0.026-0.01c-0.038-0.011-0.074-0.017-0.113-0.013c0,0,0,0-0.001,0c-0.039,0.004-0.077,0.015-0.112,0.034L6.99,32.474c-0.007,0.004-0.015,0.009-0.022,0.014s-0.016,0.01-0.022,0.016l-0.807,0.62c-0.009,0.006-0.017,0.012-0.023,0.02c-0.006,0.006-0.012,0.012-0.018,0.018l-0.704,0.738c-0.006,0.006-0.013,0.013-0.019,0.02c-0.005,0.008-0.011,0.016-0.016,0.022l-0.582,0.835c-0.005,0.007-0.01,0.015-0.014,0.021c-0.006,0.01-0.01,0.018-0.015,0.025l-0.447,0.915c-0.004,0.008-0.008,0.017-0.012,0.025c-0.003,0.008-0.006,0.017-0.008,0.023l-0.31,0.974c-0.002,0.008-0.006,0.016-0.007,0.022c-0.002,0.01-0.004,0.021-0.006,0.03L3.81,37.82c-0.001,0.009-0.002,0.019-0.003,0.027s-0.001,0.019-0.001,0.026l0.005,1.019c0,0.01,0,0.02,0.001,0.027c0.001,0.01,0.002,0.019,0.003,0.026l0.162,1.006c0.001,0.01,0.003,0.02,0.005,0.028s0.004,0.017,0.007,0.023l0.312,0.971c0.003,0.008,0.006,0.015,0.009,0.021c0.004,0.01,0.008,0.02,0.013,0.027l0.458,0.911c0.003,0.007,0.006,0.013,0.01,0.019c0.003,0.007,0.007,0.013,0.011,0.02l0.562,0.852c0.004,0.007,0.009,0.014,0.015,0.021c0.006,0.007,0.013,0.015,0.02,0.021l0.683,0.756c0.006,0.007,0.013,0.014,0.021,0.021c0.006,0.007,0.013,0.013,0.021,0.018l0.79,0.642c0.007,0.007,0.015,0.013,0.023,0.018c0.007,0.005,0.014,0.01,0.021,0.014l0.88,0.516c0.008,0.005,0.017,0.009,0.024,0.013s0.017,0.008,0.024,0.011l0.947,0.373c0.008,0.004,0.018,0.007,0.025,0.01s0.018,0.005,0.026,0.008l0.994,0.225c0.008,0.002,0.018,0.003,0.026,0.005c0.009,0.001,0.019,0.002,0.028,0.003l1.016,0.069c0.008,0.001,0.016,0.001,0.024,0.001c0.016,0.001,0.02-0.001,0.029-0.002l1.015-0.087c0.01,0,0.02-0.002,0.029-0.003c0.008-0.002,0.017-0.003,0.023-0.007l0.991-0.238c0.008-0.002,0.017-0.004,0.024-0.007c0.008-0.004,0.019-0.008,0.027-0.012l0.94-0.39c0.009-0.003,0.016-0.006,0.022-0.01c0.009-0.004,0.018-0.01,0.027-0.016l0.873-0.529c0.002-0.001,0.003-0.002,0.005-0.003V44.26c0.034-0.021,0.062-0.049,0.083-0.078c0.021-0.03,0.036-0.064,0.044-0.104c0,0,0,0,0-0.001c0.002-0.01,0.004-0.02,0.005-0.03c0.002-0.023,0.002-0.048-0.001-0.07C15.104,43.938,15.091,43.902,15.07,43.868z"/>
    <path  fill="#FFFFFF" d="M3.937,19.881c0.002,0.009,0.004,0.017,0.007,0.023l0.304,0.973c0.002,0.008,0.005,0.018,0.008,0.024c0.003,0.009,0.008,0.018,0.013,0.025l0.446,0.914c0.005,0.01,0.01,0.018,0.015,0.025c0.004,0.008,0.009,0.015,0.014,0.022l0.582,0.835c0.005,0.007,0.01,0.015,0.016,0.021c0.007,0.007,0.013,0.014,0.02,0.021l0.704,0.737c0.006,0.006,0.011,0.013,0.018,0.018c0.007,0.007,0.016,0.014,0.023,0.02l0.807,0.619c0.007,0.006,0.015,0.011,0.023,0.017c0.007,0.006,0.015,0.01,0.021,0.014l0.897,0.492c0.002,0.002,0.005,0.003,0.004,0.002l0,0c0,0,0,0,0.001,0c0.035,0.019,0.072,0.028,0.108,0.031l0,0c0.009,0,0.017,0.001,0.024,0.001c0.031,0,0.063-0.005,0.094-0.016h0.001c0,0,0,0,0.001,0l0,0c0,0,0.001-0.001,0.002-0.001c0,0,0,0,0.001,0s0,0,0.001,0h0.001c0.003-0.001,0.002,0,0.002,0s0,0,0.001,0c0.03-0.012,0.058-0.028,0.081-0.048C8.2,24.631,8.22,24.608,8.237,24.58l0,0c0,0,0,0,0-0.001v-0.001l0,0c0,0,0,0,0-0.001c0,0,0,0,0.001-0.001c0,0,0,0,0-0.001s0-0.001,0-0.001l0,0l0,0l0,0l0,0c0,0,0,0,0-0.001l0,0l0,0c0.02-0.037,0.031-0.076,0.035-0.115c0.003-0.036,0-0.072-0.012-0.107l0,0l0,0c-0.002-0.004-0.003-0.008-0.004-0.012L7.876,23.21L7.655,22.06L7.6,20.89l0.111-1.166l0.276-1.139L8.424,17.5l0.586-1.014l0.725-0.92l0.847-0.81l0.954-0.679l1.041-0.537l1.107-0.384l1.169-0.227c0.042-0.009,0.08-0.024,0.111-0.049c0.031-0.021,0.06-0.051,0.08-0.085c0.021-0.033,0.034-0.07,0.039-0.107l0,0c0.003-0.023,0.004-0.047,0.001-0.071l0,0c-0.001-0.01-0.003-0.021-0.005-0.031l0,0l0,0c-0.008-0.039-0.023-0.073-0.046-0.104c-0.02-0.028-0.045-0.053-0.075-0.073l0,0c-0.004-0.002-0.008-0.005-0.012-0.007l-0.873-0.53c-0.009-0.005-0.018-0.01-0.027-0.015c-0.007-0.003-0.014-0.007-0.021-0.01l-0.941-0.391c-0.009-0.004-0.018-0.007-0.026-0.01s-0.018-0.005-0.025-0.007l-0.991-0.24c-0.007-0.002-0.015-0.003-0.022-0.005c-0.011-0.002-0.021-0.003-0.03-0.004l-1.014-0.087c-0.01-0.001-0.02-0.001-0.028-0.001c-0.004,0.004-0.017,0.001-0.027,0.001l-1.016,0.069c-0.009,0-0.02,0.001-0.028,0.002s-0.018,0.004-0.025,0.006l-0.994,0.224c-0.009,0.002-0.019,0.004-0.026,0.007c-0.009,0.003-0.018,0.006-0.026,0.009l-0.946,0.373c-0.009,0.003-0.018,0.007-0.025,0.012c-0.008,0.004-0.016,0.008-0.023,0.013l-0.881,0.514c-0.008,0.005-0.015,0.009-0.022,0.016c-0.007,0.005-0.014,0.011-0.021,0.016l-0.791,0.641c-0.007,0.005-0.014,0.012-0.02,0.018c-0.007,0.007-0.014,0.014-0.021,0.021l-0.682,0.755c-0.007,0.008-0.014,0.016-0.02,0.023c-0.005,0.006-0.01,0.013-0.015,0.02l-0.561,0.853c-0.004,0.006-0.008,0.012-0.011,0.019c-0.004,0.006-0.008,0.013-0.011,0.019l-0.458,0.911c-0.005,0.009-0.009,0.018-0.013,0.027c-0.003,0.007-0.006,0.016-0.008,0.023l-0.312,0.969c-0.003,0.008-0.005,0.016-0.007,0.024l0,0c-0.002,0.009-0.004,0.019-0.005,0.027l-0.162,1.007c-0.001,0.009-0.002,0.018-0.003,0.025c0,0.01-0.001,0.021-0.001,0.029L3.778,18.79c0,0.009,0,0.019,0.001,0.027c0,0.009,0.001,0.018,0.003,0.026l0.15,1.008C3.933,19.861,3.935,19.871,3.937,19.881z"/>
    <path  fill="#FFFFFF" d="M35.437,47.865c-0.002-0.04-0.013-0.078-0.028-0.112c-0.015-0.031-0.036-0.062-0.062-0.087c-0.01-0.009-0.02-0.016-0.028-0.022c0,0,0,0-0.001,0c0,0,0,0,0-0.001c-0.021-0.016-0.044-0.026-0.067-0.035c0,0,0,0-0.001,0c-0.029-0.013-0.062-0.019-0.099-0.019c-0.037-0.004-0.087,0.011-0.124,0.028c-0.035,0.017-0.066,0.04-0.094,0.071l-0.78,0.899l-0.886,0.767l-0.985,0.632l-1.065,0.487l-1.124,0.328l-1.157,0.167H27.76l-1.157-0.167l-1.124-0.328l-1.066-0.487l-0.985-0.632l-0.886-0.767l-0.779-0.899c-0.027-0.031-0.061-0.057-0.097-0.072c-0.035-0.017-0.074-0.026-0.116-0.027c-0.036-0.001-0.072,0.005-0.104,0.019c-0.028,0.01-0.054,0.023-0.079,0.044l0,0c0,0,0,0-0.001,0.001l0,0l-0.001,0.001c0,0.001,0,0.001,0,0.001s0,0-0.001,0.001c0,0-0.001,0-0.001,0.001c-0.001,0-0.001,0.001-0.002,0.002l-0.001,0.001l0,0c0,0,0,0.001-0.001,0.001c-0.032,0.028-0.058,0.062-0.073,0.097c-0.015,0.033-0.024,0.07-0.026,0.109c0,0.002,0,0.004,0,0.006l-0.022,1.023c0,0.009,0,0.017,0,0.024c0,0.011,0.001,0.021,0.003,0.029l0.134,1.01c0.001,0.009,0.002,0.02,0.005,0.027c0.001,0.009,0.004,0.018,0.006,0.024l0.286,0.978c0.002,0.01,0.005,0.02,0.01,0.028c0.003,0.008,0.006,0.016,0.01,0.022l0.433,0.923c0.003,0.007,0.007,0.016,0.011,0.021c0.006,0.009,0.011,0.018,0.017,0.024l0.567,0.846c0.006,0.008,0.012,0.016,0.018,0.022c0.005,0.007,0.011,0.015,0.017,0.021l0.691,0.748c0.006,0.007,0.013,0.014,0.02,0.02c0.006,0.006,0.014,0.012,0.021,0.019l0.796,0.634c0.007,0.007,0.016,0.013,0.023,0.018s0.015,0.01,0.021,0.015l0.885,0.504c0.008,0.006,0.019,0.01,0.026,0.015c0.008,0.003,0.015,0.006,0.022,0.009l0.951,0.363c0.009,0.004,0.02,0.008,0.029,0.011c0.008,0.002,0.016,0.004,0.022,0.005l0.996,0.214c0.019,0.004,0.036,0.007,0.055,0.009l1.018,0.059c0.007,0.001,0.022,0.001,0.021,0.001l0,0c0.007,0,0.014,0,0.021-0.001l1.018-0.059c0.019-0.001,0.037-0.004,0.055-0.009l0.996-0.214c0.008-0.001,0.016-0.003,0.021-0.005c0.001,0,0.001,0,0.001,0c0.011-0.003,0.021-0.007,0.029-0.011l0.951-0.363c0.007-0.003,0.015-0.006,0.021-0.009c0.01-0.005,0.019-0.009,0.026-0.015l0.885-0.504c0.007-0.005,0.015-0.01,0.021-0.014c0.009-0.006,0.017-0.012,0.023-0.019l0.796-0.634c0.009-0.007,0.016-0.013,0.021-0.019s0.013-0.013,0.019-0.02l0.691-0.748c0.006-0.006,0.012-0.014,0.017-0.021c0.008-0.008,0.013-0.016,0.019-0.022l0.567-0.846c0.006-0.008,0.012-0.017,0.017-0.024c0.004-0.007,0.008-0.016,0.011-0.021l0.433-0.923c0.005-0.008,0.008-0.016,0.012-0.023c0.003-0.01,0.006-0.019,0.008-0.026l0.287-0.979c0.003-0.008,0.005-0.017,0.007-0.024s0.004-0.02,0.005-0.028l0.134-1.009c0.001-0.009,0.002-0.019,0.003-0.028c0-0.009,0-0.018,0-0.025l-0.022-1.023C35.437,47.869,35.437,47.867,35.437,47.865z"/>
    <path  fill="#FFFFFF" d="M41.628,12.832c0.021,0.032,0.047,0.06,0.076,0.08c0.032,0.022,0.069,0.039,0.11,0.046l1.169,0.228l1.105,0.384l1.041,0.537l0.954,0.679l0.848,0.809l0.724,0.921l0.586,1.014l0.435,1.087l0.276,1.138l0.112,1.166l-0.057,1.17l-0.221,1.15L48.4,24.363c-0.002,0.005-0.004,0.01-0.005,0.015l0,0c-0.011,0.034-0.015,0.067-0.012,0.101c0.003,0.04,0.015,0.08,0.034,0.118l0,0c0.003,0.005,0.006,0.01,0.009,0.015l0,0c0.018,0.024,0.036,0.048,0.059,0.065c0.023,0.021,0.052,0.037,0.082,0.05h0.001c0,0,0,0,0.001,0c0,0,0,0,0.001,0c0,0,0,0,0.001,0h0.001l0,0h0.001c0.001,0,0.001,0,0.001,0c0.001,0,0.001,0,0.001,0c0.001,0,0.002,0,0.003,0.001c0.031,0.011,0.062,0.016,0.094,0.016c0.009,0,0.018,0,0.024-0.001c0.001,0,0.001,0,0.001,0c0.038-0.003,0.077-0.015,0.113-0.035l0.896-0.493c0.008-0.004,0.017-0.008,0.022-0.013c0.009-0.005,0.016-0.011,0.022-0.017l0.808-0.619c0.008-0.006,0.016-0.014,0.022-0.021c0.006-0.005,0.012-0.011,0.019-0.017l0.704-0.738c0.006-0.006,0.012-0.013,0.018-0.021c0.006-0.007,0.012-0.015,0.017-0.021l0.582-0.835c0.005-0.007,0.011-0.014,0.016-0.021c0.005-0.009,0.009-0.018,0.013-0.025l0.448-0.914c0.004-0.008,0.008-0.017,0.011-0.025c0.003-0.008,0.006-0.017,0.009-0.024l0.305-0.973c0.003-0.008,0.005-0.016,0.007-0.023c0.002-0.01,0.004-0.021,0.006-0.03l0.148-1.007c0.001-0.009,0.003-0.018,0.003-0.027c0.002-0.009,0.002-0.018,0.002-0.026l-0.006-1.019c0-0.009,0-0.019-0.001-0.028s-0.002-0.018-0.004-0.026l-0.161-1.006c-0.001-0.009-0.003-0.02-0.006-0.028c-0.002-0.008-0.004-0.017-0.007-0.024l-0.312-0.97c-0.002-0.008-0.006-0.016-0.009-0.022c-0.004-0.01-0.008-0.02-0.013-0.028l-0.458-0.911c-0.003-0.006-0.006-0.012-0.01-0.019c-0.003-0.006-0.007-0.012-0.011-0.019l-0.562-0.852c-0.005-0.007-0.01-0.014-0.015-0.021c-0.006-0.008-0.013-0.015-0.02-0.021l-0.683-0.755c-0.006-0.007-0.013-0.015-0.021-0.021c-0.007-0.006-0.013-0.012-0.02-0.017l-0.791-0.643c-0.007-0.006-0.015-0.011-0.021-0.017c-0.008-0.005-0.016-0.01-0.022-0.015l-0.88-0.515c-0.007-0.004-0.016-0.008-0.021-0.012c-0.009-0.004-0.019-0.008-0.026-0.012l-0.947-0.373c-0.008-0.003-0.017-0.006-0.025-0.009c-0.009-0.002-0.018-0.006-0.025-0.008l-0.994-0.224c-0.009-0.002-0.019-0.004-0.026-0.005c-0.009-0.001-0.019-0.002-0.026-0.003l-1.017-0.07c-0.009,0-0.017-0.001-0.024-0.001c-0.003-0.004-0.021,0-0.03,0.001l-1.014,0.087c-0.011,0.001-0.021,0.002-0.029,0.004c-0.008,0.001-0.017,0.003-0.023,0.005l-0.989,0.24c-0.01,0.002-0.019,0.004-0.025,0.007c-0.01,0.003-0.02,0.007-0.027,0.011l-0.94,0.39c-0.008,0.003-0.016,0.006-0.022,0.01c-0.009,0.004-0.018,0.011-0.025,0.016l-0.873,0.53c-0.002,0.001-0.003,0.002-0.006,0.003h-0.001c-0.032,0.021-0.062,0.049-0.083,0.08c-0.021,0.03-0.035,0.064-0.044,0.103l0,0l0,0c-0.002,0.009-0.004,0.018-0.005,0.025l0,0l0,0l0,0c-0.003,0.029-0.002,0.058,0.003,0.085l0,0l0,0c0.005,0.025,0.014,0.052,0.025,0.075l0,0C41.616,12.813,41.621,12.823,41.628,12.832z"/>
    <path  fill="#FFFFFF" d="M35.324,6.707c-0.001-0.01-0.003-0.02-0.005-0.029l0,0c-0.002-0.008-0.004-0.017-0.006-0.023l-0.288-0.979c-0.002-0.009-0.005-0.018-0.008-0.025c-0.004-0.008-0.008-0.018-0.012-0.024l-0.433-0.922c-0.003-0.008-0.008-0.016-0.012-0.023c-0.005-0.009-0.011-0.017-0.016-0.023L33.979,3.81c-0.006-0.01-0.013-0.018-0.02-0.025c-0.005-0.006-0.01-0.012-0.016-0.017l-0.691-0.749C33.248,3.012,33.242,3.006,33.235,3s-0.014-0.012-0.021-0.018l-0.797-0.634c-0.008-0.007-0.016-0.013-0.022-0.019c-0.008-0.004-0.016-0.009-0.021-0.013l-0.885-0.505C31.48,1.808,31.472,1.804,31.465,1.8c-0.009-0.004-0.018-0.007-0.025-0.011l-0.951-0.363c-0.008-0.003-0.017-0.006-0.024-0.009c-0.01-0.003-0.019-0.005-0.026-0.007l-0.996-0.213c-0.009-0.002-0.02-0.004-0.028-0.005S29.396,1.19,29.388,1.19l-1.019-0.06c-0.007,0-0.02,0-0.021-0.001c0,0-0.015,0-0.021,0.001l-1.021,0.06c-0.009,0-0.018,0.001-0.025,0.002c-0.01,0.001-0.02,0.003-0.029,0.005L26.258,1.41c-0.009,0.002-0.018,0.004-0.026,0.007c-0.008,0.002-0.018,0.005-0.025,0.009l-0.952,0.363c-0.008,0.003-0.017,0.007-0.024,0.011c-0.008,0.005-0.017,0.009-0.023,0.014L24.32,2.318c-0.007,0.004-0.014,0.008-0.021,0.013s-0.016,0.012-0.023,0.019l-0.796,0.634C23.471,2.988,23.465,2.993,23.458,3c-0.007,0.006-0.013,0.014-0.019,0.02l-0.692,0.749c-0.005,0.005-0.01,0.011-0.015,0.017c-0.007,0.008-0.013,0.017-0.02,0.025l-0.567,0.845C22.14,4.662,22.135,4.67,22.13,4.677c-0.005,0.009-0.009,0.017-0.013,0.024l-0.432,0.923c-0.003,0.007-0.007,0.016-0.011,0.022c-0.004,0.009-0.007,0.019-0.009,0.027L21.38,6.652c-0.002,0.008-0.005,0.017-0.006,0.024c-0.002,0.01-0.004,0.02-0.005,0.028l-0.134,1.009c-0.001,0.011-0.002,0.021-0.003,0.03c0,0.008,0,0.017,0,0.024l0.022,1.021c0,0.004,0,0.008,0,0.012c0.002,0.038,0.013,0.073,0.027,0.105c0.016,0.033,0.038,0.064,0.066,0.09c0.008,0.007,0.017,0.014,0.025,0.021c0.001,0,0.001,0.001,0.001,0.001l0,0c0.021,0.014,0.041,0.024,0.062,0.033c0,0,0,0,0.001,0l0,0c0.032,0.013,0.066,0.02,0.104,0.02c0.048,0,0.088-0.01,0.125-0.029c0.033-0.016,0.063-0.038,0.09-0.066c0,0,0.002-0.002,0.003-0.004l0.78-0.898l0.886-0.766l0.985-0.633l1.066-0.486l1.124-0.329l1.157-1.186h1.173l1.157,1.186l1.124,0.329l1.065,0.486l0.985,0.633l0.886,0.766l0.78,0.898c0.002,0.002,0.004,0.005,0.003,0.004c0.025,0.029,0.058,0.053,0.092,0.068c0.039,0.019,0.092,0.026,0.123,0.027c0.036,0,0.069-0.007,0.102-0.02h0.001c0,0,0,0,0.001,0c0.027-0.011,0.055-0.025,0.078-0.045c0,0,0.001,0,0.001-0.001c0.002-0.002,0.004-0.003,0.006-0.005c0.032-0.027,0.058-0.062,0.073-0.098c0.015-0.032,0.023-0.066,0.025-0.104c0.001-0.004,0.001-0.008,0.001-0.012l0.022-1.021c0-0.01,0-0.019,0-0.027c-0.001-0.009-0.002-0.019-0.003-0.028L35.324,6.707z"/>
   </g>
   <rect  width="1.152" x="20.57" y="27.339" fill="#FFFFFF" height="2.017" fill-opacity="0.15"/>
   <rect  width="5.558" x="25.54" y="22.706" fill="#FFFFFF" height="11.311" fill-opacity="0.15"/>
   <g  id="connector0pin">
    <path  fill="#9A916C" d="M46.771,37.01c1.085,0,1.968,0.883,1.968,1.968s-0.883,1.967-1.968,1.967s-1.967-0.882-1.967-1.967S45.686,37.01,46.771,37.01 M46.771,35.828c-1.738,0-3.148,1.409-3.148,3.148c0,1.738,1.41,3.147,3.148,3.147s3.148-1.409,3.148-3.147C49.92,37.237,48.51,35.828,46.771,35.828L46.771,35.828z"/>
   </g>
   <g  id="connector1pin">
    <path  fill="#9A916C" d="M9.95,37.01c1.085,0,1.967,0.883,1.967,1.968s-0.882,1.967-1.967,1.967s-1.968-0.882-1.968-1.967S8.865,37.01,9.95,37.01 M9.95,35.828c-1.74,0-3.15,1.409-3.15,3.148c0,1.738,1.41,3.147,3.15,3.147c1.739,0,3.149-1.409,3.149-3.147C13.099,37.237,11.689,35.828,9.95,35.828L9.95,35.828z"/>
   </g>
   <g  id="connector2pin">
    <path  fill="#9A916C" d="M28.346,5.119c1.085,0,1.967,0.882,1.967,1.967s-0.882,1.967-1.967,1.967s-1.968-0.882-1.968-1.967S27.261,5.119,28.346,5.119 M28.346,3.938c-1.739,0-3.149,1.41-3.149,3.148c0,1.74,1.41,3.149,3.149,3.149c1.738,0,3.147-1.409,3.147-3.149C31.495,5.347,30.086,3.938,28.346,3.938L28.346,3.938z"/>
   </g>
  </g>
 </g>
</svg>
