<?xml version='1.0' encoding='utf-8'?>
<!DOCTYPE svg PUBLIC '-//W3C//DTD SVG 1.1//EN' 'http://www.w3.org/Graphics/SVG/1.1/DTD/svg11.dtd'>
<!-- Generator: Adobe Illustrator 15.0.1, SVG Export Plug-In . SVG Version: 6.00 Build 0)  -->
<svg xmlns="http://www.w3.org/2000/svg" width="0.4in" xml:space="preserve" xmlns:xml="http://www.w3.org/XML/1998/namespace" x="0px" version="1.1" y="0px" height="0.7in" viewBox="0 0 28.8 50.4" id="Ebene_1" enable-background="new 0 0 28.8 50.4">
 <desc >Fritzing breadboard generated by brd2svg</desc>
 <g  id="breadboard">
  <g  id="icon">
   <path  fill="#672E58" d="M0,36c0,7.953,6.447,14.4,14.4,14.4l0,0c7.951,0.002,14.398-6.442,14.4-14.394c0-0.003,0-0.005,0-0.007V14.4c0-7.952-6.445-14.399-14.397-14.4c-0.001,0-0.002,0-0.003,0C6.447,0,0,6.447,0,14.4l0,0V36 M10.44,41.736c0-2.188,1.773-3.96,3.96-3.96c2.188,0,3.96,1.772,3.96,3.96c0.001,2.187-1.772,3.96-3.959,3.96C12.213,45.697,10.44,43.924,10.44,41.736L10.44,41.736z M10.44,8.661c0-2.187,1.773-3.96,3.96-3.96c2.188,0,3.96,1.773,3.96,3.96c0.001,2.188-1.772,3.96-3.959,3.961C12.213,12.622,10.44,10.85,10.44,8.661L10.44,8.661z"/>
   <g >
    <title >layer 21</title>
    <g >
     <title >text:+</title>
     <text  fill="#FFFFFF" font-family="OCRA" transform="matrix(1 0 0 1 23.3999 20.1599)" font-size="6.6816">+</text>
    </g>
    <g >
     <title >text:-</title>
     <text  fill="#FFFFFF" font-family="OCRA" transform="matrix(1 0 0 1 23.3999 34.9197)" font-size="6.6816">-</text>
    </g>
    <g >
     <title >element:U$1</title>
     <g >
      <title >package:SEWTAP-LARGE</title>
     </g>
    </g>
    <g >
     <title >element:U$3</title>
     <g >
      <title >package:LOGO-L</title>
     </g>
    </g>
    <g >
     <title >element:U$4</title>
     <g >
      <title >package:SEWTAP-LARGE</title>
     </g>
    </g>
   </g>
   <path  fill="#FFFFFF" d="M27.864,13.188c0-2.271-3.908-4.864-9.371-5.773c-1.291-0.214-2.666-2.714-4.093-2.714c-1.426,0-2.8,2.5-4.091,2.714c-5.465,0.908-9.374,3.5-9.374,5.772c0-6.807,6-12.324,13.465-12.324C21.864,0.864,27.864,6.382,27.864,13.188z"/>
   <path  fill="#FFFFFF" d="M14.4,49.493c-7.465,0-13.465-5.518-13.465-12.324c0,2.271,3.909,4.864,9.374,5.771c1.291,0.215,2.665,2.715,4.091,2.715c1.427,0,2.802-2.5,4.093-2.714c5.463-0.909,9.371-3.501,9.371-5.772C27.864,43.975,21.864,49.493,14.4,49.493z"/>
   <g  id="connector4pin">
    <path  fill="#9A916C" d="M14.4,38.995c1.512,0,2.741,1.229,2.741,2.741s-1.229,2.741-2.741,2.741s-2.741-1.229-2.741-2.741S12.888,38.995,14.4,38.995 M14.4,37.776c-2.187,0-3.96,1.772-3.96,3.96s1.773,3.96,3.96,3.96c2.188,0,3.96-1.772,3.96-3.96S16.587,37.776,14.4,37.776L14.4,37.776z"/>
   </g>
   <g  id="connector5pin">
    <path  fill="#9A916C" d="M14.4,5.92c1.512,0,2.741,1.229,2.741,2.741s-1.229,2.741-2.741,2.741s-2.741-1.229-2.741-2.741S12.888,5.92,14.4,5.92 M14.4,4.701c-2.187,0-3.96,1.772-3.96,3.96s1.773,3.96,3.96,3.96c2.188,0,3.96-1.772,3.96-3.96S16.587,4.701,14.4,4.701L14.4,4.701z"/>
   </g>
  </g>
  <g  id="jst-2-smd" transform="matrix(1, 0, 0, 1, 2.42585, 14.4745)">
   <g  transform="matrix(0, -1, 1, 0, 1.61147, 23.0625)">
    <g >
     <g >
      <g >
       <polygon  fill="#B7B7B7" points="7.993,21.45 9.718,21.45 9.718,16.392 7.993,16.392 "/>
       <polygon  fill="#B7B7B7" points="15.193,21.45 16.915,21.45 16.915,16.392 15.193,16.392 "/>
      </g>
     </g>
     <rect  width="15.686" x="4.494" y="-1.589" fill="#AD9E73" height="24.674" transform="matrix(-2.547107e-06 -1 1 -2.547107e-06 1.589 23.0851)"/>
     <g >
      <polygon  fill="#C2B990" points="19.739,15.208 17.778,15.208 17.778,14.195 6.963,14.195 6.963,15.208 5.138,15.208 5.138,18.589 19.739,18.589 "/>
     </g>
     <rect  width="2.905" x="10.884" y="-7.842" fill="#F1F3E6" height="18.59" transform="matrix(-2.547107e-06 -1 1 -2.547107e-06 10.8846 13.7895)"/>
     <polygon  opacity="0.5" fill="#A0916B" points="5.138,15.202 6.963,15.202 6.963,14.188 17.778,14.188 17.778,15.202 19.739,15.202 19.739,12.324 17.778,12.324 6.963,12.324 5.138,12.324 " enable-background="new    "/>
     <rect  width="5.239" x="9.82" opacity="0.1" y="0.827" fill="#FFFFFF" height="14.603" enable-background="new    " transform="matrix(-2.547107e-06 -1 1 -2.547107e-06 4.3107 20.5676)"/>
     <rect  width="5.239" x="9.819" opacity="0.1" y="-1.287" fill="#FFFFFF" height="14.603" enable-background="new    " transform="matrix(-2.547107e-06 -1 1 -2.547107e-06 6.4247 18.4535)"/>
     <g >
      <g >
       <path  fill="#F1F3E6" d="M0,18.589v2.861h3.042v-2.861H0z"/>
      </g>
     </g>
     <g >
      <g >
       <path  fill="#F1F3E6" d="M21.632,18.589v2.861h3.042v-2.861H21.632z"/>
      </g>
     </g>
     <g >
      <g >
       <polygon  fill="#F1F3E6" points="0,2.905 0,18.589 5.138,18.589 5.138,6.016 8.179,6.016 8.179,18.589 16.696,18.589 16.696,6.016 19.739,6.016 19.739,18.589 24.674,18.589 24.674,2.905 "/>
      </g>
     </g>
     <rect  width="0.322" x="22.991" opacity="0.4" y="17.23" fill="#C2B990" height="3.041" enable-background="new    " transform="matrix(-2.547107e-06 -1 1 -2.547107e-06 4.4023 41.9028)"/>
     <rect  width="0.322" x="1.36" opacity="0.4" y="17.229" fill="#C2B990" height="3.042" enable-background="new    " transform="matrix(-2.547107e-06 -1 1 -2.547107e-06 -17.2292 20.2714)"/>
     <rect  width="2.905" x="5.206" opacity="0.4" y="-0.068" fill="#AD9E73" height="3.041" enable-background="new    " transform="matrix(-2.547107e-06 -1 1 -2.547107e-06 5.2059 8.1108)"/>
     <rect  width="2.905" x="16.765" opacity="0.4" y="-0.069" fill="#AD9E73" height="3.043" enable-background="new    " transform="matrix(-2.547107e-06 -1 1 -2.547107e-06 16.7655 19.6703)"/>
    </g>
   </g>
  </g>
 </g>
</svg>
