<?xml version='1.0' encoding='utf-8'?>
<!DOCTYPE svg PUBLIC '-//W3C//DTD SVG 1.1//EN' 'http://www.w3.org/Graphics/SVG/1.1/DTD/svg11.dtd'>
<!-- Generator: Adobe Illustrator 15.0.1, SVG Export Plug-In . SVG Version: 6.00 Build 0)  -->
<svg xmlns="http://www.w3.org/2000/svg" width="0.2in" xml:space="preserve" xmlns:xml="http://www.w3.org/XML/1998/namespace" x="0px" version="1.1" y="0px" height="0.500056in" viewBox="0 0 14.4 36.004" id="Ebene_1" enable-background="new 0 0 14.4 36.004">
 <desc >Fritzing breadboard generated by brd2svg</desc>
 <g  id="breadboard">
  <g  id="icon">
   <g >
    <path  fill="#672E58" d="M0,29.162c0.101,3.876,3.322,6.938,7.199,6.84c0,0,0,0,0.002,0c3.875,0.102,7.1-2.96,7.199-6.836c0-0.001,0-0.003,0-0.004V6.842c-0.101-3.876-3.322-6.938-7.197-6.84c-0.002,0-0.002,0-0.002,0C3.324-0.097,0.099,2.964,0,6.841v0.001V29.162 M4.082,30.242c0-1.723,1.396-3.119,3.117-3.119c1.723-0.001,3.119,1.395,3.119,3.116c0,0.001,0,0.002,0,0.003c0,1.722-1.396,3.117-3.117,3.117C5.478,33.36,4.082,31.964,4.082,30.242z M4.082,5.762c0-1.722,1.396-3.118,3.117-3.119c1.723,0,3.119,1.396,3.119,3.117c0,0.001,0,0.002,0,0.002c0,1.723-1.396,3.118-3.117,3.118C5.478,8.88,4.082,7.485,4.082,5.762z"/>
    <path  fill="#FFFFFF" d="M0.541,6.504c0-1.265,2.279-2.713,6.66-2.713c4.379,0,6.658,1.448,6.658,2.713l0,0c-0.188-3.533-3.164-6.252-6.656-6.165c-0.002,0-0.002,0-0.002,0C3.707,0.252,0.728,2.97,0.541,6.504L0.541,6.504L0.541,6.504z"/>
    <path  fill="#FFFFFF" d="M13.859,29.498c0,1.266-2.279,2.713-6.658,2.713c-4.381,0-6.66-1.447-6.66-2.713l0,0c0.188,3.532,3.166,6.252,6.658,6.164c0,0,0,0,0.002,0C10.693,35.75,13.672,33.032,13.859,29.498L13.859,29.498L13.859,29.498z"/>
    <g >
     <title >layer 21</title>
     <g >
      <title >text:+</title>
      <text  fill="#FFFFFF" font-family="OCRA" transform="matrix(1 0 0 1 1.0793 27.3625)" font-size="4.6771">+</text>
     </g>
     <g >
      <title >text:-</title>
      <text  fill="#FFFFFF" font-family="OCRA" transform="matrix(1 0 0 1 9.7195 12.6028)" font-size="4.6771">-</text>
     </g>
     <g >
      <title >element:LED</title>
      <g >
       <title >package:LED-1206</title>
       <line  fill="none" stroke="#FFFFFF" stroke-linecap="round" y1="17.186" stroke-width="0.576" x1="4.422" y2="17.186" x2="0.455"/>
       <line  fill="none" stroke="#FFFFFF" stroke-linecap="round" y1="17.186" stroke-width="0.576" x1="0.455" y2="22.856" x2="0.455"/>
       <line  fill="none" stroke="#FFFFFF" stroke-linecap="round" y1="22.856" stroke-width="0.576" x1="0.455" y2="22.856" x2="4.422"/>
       <line  fill="none" stroke="#FFFFFF" stroke-linecap="round" y1="17.186" stroke-width="0.576" x1="10.092" y2="17.186" x2="14.06"/>
       <line  fill="none" stroke="#FFFFFF" stroke-linecap="round" y1="17.186" stroke-width="0.576" x1="14.06" y2="22.856" x2="14.06"/>
       <line  fill="none" stroke="#FFFFFF" stroke-linecap="round" y1="22.856" stroke-width="0.576" x1="14.06" y2="22.856" x2="10.092"/>
       <line  fill="none" stroke="#FFFFFF" stroke-linecap="round" y1="18.036" stroke-width="0.576" x1="8.107" y2="20.022" x2="8.107"/>
       <line  fill="none" stroke="#FFFFFF" stroke-linecap="round" y1="20.022" stroke-width="0.576" x1="8.107" y2="22.005" x2="8.107"/>
       <line  fill="none" stroke="#FFFFFF" stroke-linecap="round" y1="20.022" stroke-width="0.576" x1="8.107" y2="18.32" x2="6.406"/>
       <line  fill="none" stroke="#FFFFFF" stroke-linecap="round" y1="18.32" stroke-width="0.576" x1="6.406" y2="21.721" x2="6.406"/>
       <line  fill="none" stroke="#FFFFFF" stroke-linecap="round" y1="21.721" stroke-width="0.576" x1="6.406" y2="20.022" x2="8.107"/>
      </g>
     </g>
     <g >
      <title >element:LED+</title>
      <g >
       <title >package:PETAL-SMALL</title>
      </g>
     </g>
     <g >
      <title >element:LED-</title>
      <g >
       <title >package:PETAL-SMALL</title>
      </g>
     </g>
     <g >
      <title >element:LOGO1</title>
      <g >
       <title >package:LOGO-L</title>
      </g>
     </g>
     <g >
      <title >element:R</title>
      <g >
       <title >package:0603-RES</title>
      </g>
     </g>
    </g>
    <rect  width="13.605" x="0.455" y="17.186" fill="#FFFFFF" height="5.669" fill-opacity="0.15"/>
    <rect  width="1.297" x="6.609" y="12.46" fill="#FFFFFF" height="2.16" fill-opacity="0.15"/>
   </g>
   <g  id="connector2pin">
    <path  fill="#9A916C" d="M7.2,28.294c1.074,0,1.948,0.874,1.948,1.948S8.274,32.191,7.2,32.191s-1.948-0.874-1.948-1.948S6.126,28.294,7.2,28.294 M7.2,27.124c-1.723,0-3.118,1.396-3.118,3.118c0,1.722,1.396,3.118,3.118,3.118s3.118-1.396,3.118-3.118C10.318,28.52,8.923,27.124,7.2,27.124L7.2,27.124z"/>
   </g>
   <g  id="connector3pin">
    <path  fill="#9A916C" d="M7.2,3.814c1.074,0,1.948,0.874,1.948,1.948c0,1.075-0.874,1.949-1.948,1.949S5.252,6.837,5.252,5.762C5.252,4.688,6.126,3.814,7.2,3.814 M7.2,2.644c-1.723,0-3.118,1.396-3.118,3.118c0,1.723,1.396,3.119,3.118,3.119s3.118-1.396,3.118-3.119C10.318,4.04,8.923,2.644,7.2,2.644L7.2,2.644z"/>
   </g>
  </g>
 </g>
</svg>
