<?xml version='1.0' encoding='UTF-8' standalone='no'?>
<!-- Created with Fritzing (http://www.fritzing.org/) -->
<svg xmlns="http://www.w3.org/2000/svg" width="1.1335in" x="0in" version="1.2" y="0in" height="1.1in" viewBox="0 0 81.612 79.2" baseProfile="tiny">
 <desc >Fritzing breadboard generated by brd2svg</desc>
 <g  id="breadboard" stroke-width="0">
  <g  id="icon" stroke-width="0">
   <path  fill="#C62717" stroke="none" stroke-width="0" d="M0.0878738,79.2L79.2878,79.2L79.2878,0L0.0878738,0L0.0878738,79.2M67.4078,72a4.68,4.68,0,1,1,9.36,0,4.68,4.68,0,1,1,-9.36,0zM2.60788,7.2a4.68,4.68,0,1,1,9.36,0,4.68,4.68,0,1,1,-9.36,0zM2.60788,72a4.68,4.68,0,1,1,9.36,0,4.68,4.68,0,1,1,-9.36,0zM67.4078,7.2a4.68,4.68,0,1,1,9.36,0,4.68,4.68,0,1,1,-9.36,0zM63.6123,45.8362a1.27559,1.27559,0,1,1,2.55118,0,1.27559,1.27559,0,1,1,-2.55118,0zM63.6123,33.3638a1.27559,1.27559,0,1,1,2.55118,0,1.27559,1.27559,0,1,1,-2.55118,0zM16.0158,28.0346a0.992124,0.992124,0,1,1,1.98426,0,0.992124,0.992124,0,1,1,-1.98426,0zM16.0158,22.3654a0.992124,0.992124,0,1,1,1.98426,0,0.992124,0.992124,0,1,1,-1.98426,0zM16.0158,56.8346a0.992124,0.992124,0,1,1,1.98426,0,0.992124,0.992124,0,1,1,-1.98426,0zM16.0158,51.1654a0.992124,0.992124,0,1,1,1.98426,0,0.992124,0.992124,0,1,1,-1.98426,0z"/>
   <g  stroke-width="0">
    <title >layer 21</title>
    <line  stroke="white" stroke-linecap="round" y1="21.6" x1="23.4878" y2="21.6" stroke-width="0.72" x2="27.0878"/>
    <line  stroke="white" stroke-linecap="round" y1="27" x1="25.2878" y2="30.6" stroke-width="0.72" x2="25.2878"/>
    <line  stroke="white" stroke-linecap="round" y1="50.4" x1="23.4878" y2="50.4" stroke-width="0.72" x2="27.0878"/>
    <line  stroke="white" stroke-linecap="round" y1="52.2" x1="25.2878" y2="48.6" stroke-width="0.72" x2="25.2878"/>
    <line  stroke="white" stroke-linecap="round" y1="59.4" x1="25.2878" y2="55.8" stroke-width="0.72" x2="25.2878"/>
    <line  stroke="white" stroke-linecap="round" y1="23.4" x1="25.2878" y2="19.8" stroke-width="0.72" x2="25.2878"/>
    <line  stroke="white" stroke-linecap="round" y1="43.2" x1="1.52788" y2="43.2" stroke-width="0.72" x2="5.12788"/>
    <line  stroke="white" stroke-linecap="round" y1="43.2" x1="5.12788" y2="41.76" stroke-width="0.72" x2="3.68788"/>
    <line  stroke="white" stroke-linecap="round" y1="43.2" x1="5.12788" y2="44.64" stroke-width="0.72" x2="3.68788"/>
    <line  stroke="white" stroke-linecap="round" y1="36" x1="5.12788" y2="36" stroke-width="0.72" x2="1.52788"/>
    <line  stroke="white" stroke-linecap="round" y1="36" x1="1.52788" y2="37.44" stroke-width="0.72" x2="2.96788"/>
    <line  stroke="white" stroke-linecap="round" y1="36" x1="1.52788" y2="34.56" stroke-width="0.72" x2="2.96788"/>
    <g  stroke-width="0">
     <title >text:LiPo USB Charger</title>
     <text  x="14.4878" y="77.4" font-family="OCRA" fill="white" text-anchor="start" stroke="none" stroke-width="0" font-size="4.176">LiPo USB Charger</text>
    </g>
    <g  stroke-width="0">
     <title >text:100</title>
     <text  x="13.7678" y="3.6" font-family="OCRA" fill="white" text-anchor="start" stroke="none" stroke-width="0" font-size="2.9232">100</text>
    </g>
    <g  stroke-width="0">
     <title >text:500</title>
     <text  x="30.3278" y="3.6" font-family="OCRA" fill="white" text-anchor="start" stroke="none" stroke-width="0" font-size="2.9232">500</text>
    </g>
    <g  stroke-width="0">
     <title >text:mA</title>
     <text  x="14.8478" y="6.48" font-family="OCRA" fill="white" text-anchor="start" stroke="none" stroke-width="0" font-size="2.9232">mA</text>
    </g>
    <g  stroke-width="0">
     <title >text:mA</title>
     <text  x="31.4078" y="6.48" font-family="OCRA" fill="white" text-anchor="start" stroke="none" stroke-width="0" font-size="2.9232">mA</text>
    </g>
    <g  stroke-width="0">
     <title >text:Charging</title>
     <text  x="45.8078" y="3.6" font-family="OCRA" fill="white" text-anchor="start" stroke="none" stroke-width="0" font-size="2.9232">Charging</text>
    </g>
    <g  stroke-width="0">
     <title >text:BATT IN</title>
     <text  x="6.56788" y="44.64" font-family="OCRA" fill="white" text-anchor="start" stroke="none" stroke-width="0" font-size="4.176">BATT IN</text>
    </g>
    <g  stroke-width="0">
     <title >text:SYS OUT</title>
     <text  x="6.20788" y="38.16" font-family="OCRA" fill="white" text-anchor="start" stroke="none" stroke-width="0" font-size="4.176">SYS OUT</text>
    </g>
    <g  stroke-width="0">
     <title >element:C1</title>
     <g  stroke-width="0">
      <title >package:0402-CAP</title>
      <line  stroke="white" stroke-linecap="round" y1="28.8" x1="43.3743" y2="28.8" stroke-width="1.152" x2="43.2014"/>
     </g>
    </g>
    <g  stroke-width="0">
     <title >element:C2</title>
     <g  stroke-width="0">
      <title >package:0402-CAP</title>
      <line  stroke="white" stroke-linecap="round" y1="50.4" x1="43.3743" y2="50.4" stroke-width="1.152" x2="43.2014"/>
     </g>
    </g>
    <g  stroke-width="0">
     <title >element:JP1</title>
     <g  stroke-width="0">
      <title >package:SCREWTERMINAL-3.5MM-2-NS</title>
     </g>
    </g>
    <g  stroke-width="0">
     <title >element:JP2</title>
     <g  stroke-width="0">
      <title >package:SCREWTERMINAL-3.5MM-2-NS</title>
     </g>
    </g>
    <g  stroke-width="0">
     <title >element:JP3</title>
     <g  stroke-width="0">
      <title >package:JST-2-PTH</title>
      <line  stroke="white" stroke-linecap="round" y1="30.8693" x1="17.0078" y2="30.8693" stroke-width="0.576" x2="22.1103"/>
      <line  stroke="white" stroke-linecap="round" y1="30.8693" x1="22.1103" y2="33.7039" stroke-width="0.576" x2="22.1103"/>
      <line  stroke="white" stroke-linecap="round" y1="33.7039" x1="22.1103" y2="33.7039" stroke-width="0.576" x2="0"/>
      <line  stroke="white" stroke-linecap="round" y1="33.7039" x1="0" y2="16.6961" stroke-width="0.576" x2="0"/>
      <line  stroke="white" stroke-linecap="round" y1="16.6961" x1="0" y2="16.6961" stroke-width="0.576" x2="22.1103"/>
      <line  stroke="white" stroke-linecap="round" y1="16.6961" x1="22.1103" y2="19.5307" stroke-width="0.576" x2="22.1103"/>
      <line  stroke="white" stroke-linecap="round" y1="19.5307" x1="22.1103" y2="19.5307" stroke-width="0.576" x2="17.0078"/>
     </g>
    </g>
    <g  stroke-width="0">
     <title >element:JP4</title>
     <g  stroke-width="0">
      <title >package:JST-2-PTH</title>
      <line  stroke="white" stroke-linecap="round" y1="59.6693" x1="17.0078" y2="59.6693" stroke-width="0.576" x2="22.1103"/>
      <line  stroke="white" stroke-linecap="round" y1="59.6693" x1="22.1103" y2="62.5039" stroke-width="0.576" x2="22.1103"/>
      <line  stroke="white" stroke-linecap="round" y1="62.5039" x1="22.1103" y2="62.5039" stroke-width="0.576" x2="0"/>
      <line  stroke="white" stroke-linecap="round" y1="62.5039" x1="0" y2="45.4961" stroke-width="0.576" x2="0"/>
      <line  stroke="white" stroke-linecap="round" y1="45.4961" x1="0" y2="45.4961" stroke-width="0.576" x2="22.1103"/>
      <line  stroke="white" stroke-linecap="round" y1="45.4961" x1="22.1103" y2="48.3307" stroke-width="0.576" x2="22.1103"/>
      <line  stroke="white" stroke-linecap="round" y1="48.3307" x1="22.1103" y2="48.3307" stroke-width="0.576" x2="17.0078"/>
     </g>
    </g>
    <g  stroke-width="0">
     <title >element:JP5</title>
     <g  stroke-width="0">
      <title >package:1X02</title>
      <line  stroke="white" stroke-linecap="round" y1="30.6" x1="0.0878738" y2="27" stroke-width="0.576" x2="0.0878738"/>
      <line  stroke="white" stroke-linecap="round" y1="27" x1="0.0878738" y2="25.2" stroke-width="0.576" x2="1.88788"/>
      <line  stroke="white" stroke-linecap="round" y1="25.2" x1="5.48788" y2="27" stroke-width="0.576" x2="7.28784"/>
      <line  stroke="white" stroke-linecap="round" y1="25.2" x1="1.88788" y2="23.4" stroke-width="0.576" x2="0.0878738"/>
      <line  stroke="white" stroke-linecap="round" y1="23.4" x1="0.0878738" y2="19.8" stroke-width="0.576" x2="0.0878738"/>
      <line  stroke="white" stroke-linecap="round" y1="19.8" x1="0.0878738" y2="18" stroke-width="0.576" x2="1.88788"/>
      <line  stroke="white" stroke-linecap="round" y1="18" x1="5.48788" y2="19.8" stroke-width="0.576" x2="7.28784"/>
      <line  stroke="white" stroke-linecap="round" y1="19.8" x1="7.28784" y2="23.4" stroke-width="0.576" x2="7.28784"/>
      <line  stroke="white" stroke-linecap="round" y1="23.4" x1="7.28784" y2="25.2" stroke-width="0.576" x2="5.48788"/>
      <line  stroke="white" stroke-linecap="round" y1="32.4" x1="1.88788" y2="32.4" stroke-width="0.576" x2="5.48788"/>
      <line  stroke="white" stroke-linecap="round" y1="30.6" x1="0.0878738" y2="32.4" stroke-width="0.576" x2="1.88788"/>
      <line  stroke="white" stroke-linecap="round" y1="32.4" x1="5.48788" y2="30.6" stroke-width="0.576" x2="7.28784"/>
      <line  stroke="white" stroke-linecap="round" y1="27" x1="7.28784" y2="30.6" stroke-width="0.576" x2="7.28784"/>
      <line  stroke="white" stroke-linecap="round" y1="18" x1="1.88788" y2="18" stroke-width="0.576" x2="5.48788"/>
     </g>
    </g>
    <g  stroke-width="0">
     <title >element:JP6</title>
     <g  stroke-width="0">
      <title >package:1X02</title>
      <line  stroke="white" stroke-linecap="round" y1="59.4" x1="0.0878738" y2="55.8" stroke-width="0.576" x2="0.0878738"/>
      <line  stroke="white" stroke-linecap="round" y1="55.8" x1="0.0878738" y2="54" stroke-width="0.576" x2="1.88788"/>
      <line  stroke="white" stroke-linecap="round" y1="54" x1="5.48788" y2="55.8" stroke-width="0.576" x2="7.28784"/>
      <line  stroke="white" stroke-linecap="round" y1="54" x1="1.88788" y2="52.2" stroke-width="0.576" x2="0.0878738"/>
      <line  stroke="white" stroke-linecap="round" y1="52.2" x1="0.0878738" y2="48.6" stroke-width="0.576" x2="0.0878738"/>
      <line  stroke="white" stroke-linecap="round" y1="48.6" x1="0.0878738" y2="46.8" stroke-width="0.576" x2="1.88788"/>
      <line  stroke="white" stroke-linecap="round" y1="46.8" x1="5.48788" y2="48.6" stroke-width="0.576" x2="7.28784"/>
      <line  stroke="white" stroke-linecap="round" y1="48.6" x1="7.28784" y2="52.2" stroke-width="0.576" x2="7.28784"/>
      <line  stroke="white" stroke-linecap="round" y1="52.2" x1="7.28784" y2="54" stroke-width="0.576" x2="5.48788"/>
      <line  stroke="white" stroke-linecap="round" y1="61.2" x1="1.88788" y2="61.2" stroke-width="0.576" x2="5.48788"/>
      <line  stroke="white" stroke-linecap="round" y1="59.4" x1="0.0878738" y2="61.2" stroke-width="0.576" x2="1.88788"/>
      <line  stroke="white" stroke-linecap="round" y1="61.2" x1="5.48788" y2="59.4" stroke-width="0.576" x2="7.28784"/>
      <line  stroke="white" stroke-linecap="round" y1="55.8" x1="7.28784" y2="59.4" stroke-width="0.576" x2="7.28784"/>
      <line  stroke="white" stroke-linecap="round" y1="46.8" x1="1.88788" y2="46.8" stroke-width="0.576" x2="5.48788"/>
     </g>
    </g>
    <g  stroke-width="0">
     <title >element:JP7</title>
     <g  stroke-width="0">
      <title >package:STAND-OFF</title>
     </g>
    </g>
    <g  stroke-width="0">
     <title >element:JP8</title>
     <g  stroke-width="0">
      <title >package:STAND-OFF</title>
     </g>
    </g>
    <g  stroke-width="0">
     <title >element:JP9</title>
     <g  stroke-width="0">
      <title >package:STAND-OFF</title>
     </g>
    </g>
    <g  stroke-width="0">
     <title >element:JP10</title>
     <g  stroke-width="0">
      <title >package:STAND-OFF</title>
     </g>
    </g>
    <g  stroke-width="0">
     <title >element:JP12</title>
     <g  stroke-width="0">
      <title >package:FIDUCIAL-1X2</title>
     </g>
    </g>
    <g  stroke-width="0">
     <title >element:JP13</title>
     <g  stroke-width="0">
      <title >package:FIDUCIAL-1X2</title>
     </g>
    </g>
    <g  stroke-width="0">
     <title >element:LED1</title>
     <g  stroke-width="0">
      <title >package:LED3MM</title>
      <path  fill="none" stroke="white" stroke-width="0.72" d="M49.663,19.8876A5.76,5.76,0,0,0,54.0878,21.96"/>
      <path  fill="none" stroke="white" stroke-width="0.72" d="M54.0878,21.96A5.76,5.76,0,0,0,59.1701,18.9105"/>
      <path  fill="none" stroke="white" stroke-width="0.72" d="M54.0878,10.44A5.76,5.76,0,0,0,49.6908,12.4793"/>
      <path  fill="none" stroke="white" stroke-width="0.72" d="M59.089,13.3421A5.76,5.76,0,0,0,54.0878,10.44"/>
      <line  stroke="white" stroke-linecap="round" y1="19.872" x1="49.6238" y2="18.432" stroke-width="0.72" x2="49.6238"/>
      <line  stroke="white" stroke-linecap="round" y1="12.528" x1="49.6238" y2="13.824" stroke-width="0.72" x2="49.6238"/>
     </g>
    </g>
    <g  stroke-width="0">
     <title >element:LED2</title>
     <g  stroke-width="0">
      <title >package:LED-0603</title>
      <line  stroke="white" stroke-linecap="round" y1="5.89607" x1="53.606" y2="7.2" stroke-width="0.576" x2="53.606"/>
      <line  stroke="white" stroke-linecap="round" y1="8.50392" x1="53.606" y2="7.2" stroke-width="0.576" x2="53.606"/>
      <line  stroke="white" stroke-linecap="round" y1="7.2" x1="53.606" y2="6.53726" stroke-width="0.576" x2="54.4847"/>
      <line  stroke="white" stroke-linecap="round" y1="7.272" x1="53.6496" y2="7.81906" stroke-width="0.576" x2="54.4847"/>
     </g>
    </g>
    <g  stroke-width="0">
     <title >element:R1</title>
     <g  stroke-width="0">
      <title >package:0402-RES</title>
     </g>
    </g>
    <g  stroke-width="0">
     <title >element:R2</title>
     <g  stroke-width="0">
      <title >package:0402-RES</title>
     </g>
    </g>
    <g  stroke-width="0">
     <title >element:R3</title>
     <g  stroke-width="0">
      <title >package:0402-RES</title>
     </g>
    </g>
    <g  stroke-width="0">
     <title >element:SJ1</title>
     <g  stroke-width="0">
      <title >package:SJ_3</title>
      <line  stroke="white" stroke-linecap="round" y1="6.48" x1="28.8878" y2="6.48" stroke-width="0.432" x2="21.6878"/>
      <path  fill="none" stroke="white" stroke-width="0.432" d="M29.6078,1.44A0.72,0.72,0,0,0,28.8878,0.72"/>
      <path  fill="none" stroke="white" stroke-width="0.432" d="M21.6878,0.72A0.72,0.72,0,0,0,20.9678,1.44"/>
      <path  fill="none" stroke="white" stroke-width="0.432" d="M20.9678,5.76A0.72,0.72,0,0,0,21.6878,6.48"/>
      <path  fill="none" stroke="white" stroke-width="0.432" d="M28.8878,6.48A0.72,0.72,0,0,0,29.6078,5.76"/>
      <line  stroke="white" stroke-linecap="round" y1="5.76" x1="29.6078" y2="1.44" stroke-width="0.432" x2="29.6078"/>
      <line  stroke="white" stroke-linecap="round" y1="5.76" x1="20.9678" y2="1.44" stroke-width="0.432" x2="20.9678"/>
      <line  stroke="white" stroke-linecap="round" y1="0.72" x1="21.6878" y2="0.72" stroke-width="0.432" x2="28.8878"/>
     </g>
    </g>
    <g  stroke-width="0">
     <title >element:U1</title>
     <g  stroke-width="0">
      <title >package:SOT23-5</title>
      <line  stroke="white" stroke-linecap="round" y1="38.3828" x1="43.7198" y2="40.8172" stroke-width="0.576" x2="43.7198"/>
      <line  stroke="white" stroke-linecap="round" y1="40.8172" x1="35.6558" y2="38.3828" stroke-width="0.576" x2="35.6558"/>
      <line  stroke="white" stroke-linecap="round" y1="37.3028" x1="38.9271" y2="37.3028" stroke-width="0.576" x2="40.4487"/>
     </g>
    </g>
    <g  stroke-width="0">
     <title >element:X1</title>
     <g  stroke-width="0">
      <title >package:USB-MINIB</title>
      <line  stroke="white" stroke-linecap="round" y1="50.3716" x1="68.5729" y2="50.3716" stroke-width="0.576" x2="62.6201"/>
      <line  stroke="white" stroke-linecap="round" y1="48.3874" x1="55.5335" y2="45.8362" stroke-width="0.576" x2="55.5335"/>
      <line  stroke="white" stroke-linecap="round" y1="33.3638" x1="55.5335" y2="30.8126" stroke-width="0.576" x2="55.5335"/>
      <line  stroke="white" stroke-linecap="round" y1="28.8284" x1="62.6201" y2="28.8284" stroke-width="0.576" x2="68.5729"/>
     </g>
    </g>
   </g>
   <rect  width="9.54626" x="49.6238" y="10.44" fill="#ffffff" height="11.52" stroke="none" fill-opacity="0.15" stroke-width="0"/>
   <rect  width="0.878738" x="53.606" y="5.89607" fill="#ffffff" height="2.60788" stroke="none" fill-opacity="0.15" stroke-width="0"/>
   <rect  width="1.152" x="39.1118" y="27.792" fill="#ffffff" height="2.016" stroke="none" fill-opacity="0.15" stroke-width="0"/>
   <rect  width="1.152" x="28.3118" y="9.792" fill="#ffffff" height="2.016" stroke="none" fill-opacity="0.15" stroke-width="0"/>
   <rect  width="1.152" x="21.1118" y="9.792" fill="#ffffff" height="2.016" stroke="none" fill-opacity="0.15" stroke-width="0"/>
   <rect  width="8.64" x="20.9678" y="0.72" fill="#ffffff" height="5.76" stroke="none" fill-opacity="0.15" stroke-width="0"/>
   <rect  width="8.064" x="35.6558" y="37.3028" fill="#ffffff" height="3.51439" stroke="none" fill-opacity="0.15" stroke-width="0"/>
   <circle  fill="none" cx="17.0078" cy="28.0346" connectorname="GND" stroke="#9A916C" r="1.52207" id="connector8pin" stroke-width="1.05988"/>
   <circle  fill="none" cx="17.0078" cy="22.3654" connectorname="VBAT" stroke="#9A916C" r="1.52207" id="connector9pin" stroke-width="1.05988"/>
   <circle  fill="none" cx="17.0078" cy="56.8346" connectorname="GND" stroke="#9A916C" r="1.52207" id="connector10pin" stroke-width="1.05988"/>
   <circle  fill="none" cx="17.0078" cy="51.1654" connectorname="VBAT" stroke="#9A916C" r="1.52207" id="connector11pin" stroke-width="1.05988"/>
  </g>
  <g  id="jst-2-pth" stroke-width="0" transform="matrix(1, 0, 0, 1, 2.86127, 14.3009)">
   <g  stroke-width="0" transform="matrix(0, -1, 1, 0, -2.65252, 19.0935)">
    <g  stroke-width="0">
     <g  stroke-width="0">
      <g  stroke-width="0">
       <polygon  fill="#B7B7B7" points="4.814,17.455,5.965,17.455,5.965,14.083,4.814,14.083" stroke-width="0"/>
       <polygon  fill="#B7B7B7" points="10.478,17.455,11.626,17.455,11.626,14.083,10.478,14.083" stroke-width="0"/>
      </g>
     </g>
     <rect  width="16.439" x="0.001" y="0" fill="#E8E8E8" height="16.7" stroke-width="0"/>
     <g  stroke-width="0">
      <rect  width="2.31" x="0.001" y="16.7" fill="#E8E8E8" height="5.046" stroke-width="0"/>
     </g>
     <g  stroke-width="0">
      <rect  width="2.311" x="14.13" y="16.7" fill="#E8E8E8" height="5.046" stroke-width="0"/>
     </g>
     <rect  width="2.31" x="14.13" opacity="0.4" y="16.7" fill="#C1C1C1" height="0.216" stroke-width="0"/>
     <rect  width="2.31" x="0.001" opacity="0.4" y="16.7" fill="#C1C1C1" height="0.216" stroke-width="0"/>
     <rect  width="1.319" x="7.56101" y="0" fill="#B7B7B7" height="13.442" stroke-width="0"/>
    </g>
   </g>
  </g>
  <g  id="jst-2-pth" stroke-width="0" transform="matrix(1, 0, 0, 1, 2.86127, 43.11)">
   <g  stroke-width="0" transform="matrix(0, -1, 1, 0, -2.65252, 19.0935)">
    <g  stroke-width="0">
     <g  stroke-width="0">
      <g  stroke-width="0">
       <polygon  fill="#B7B7B7" points="4.814,17.455,5.965,17.455,5.965,14.083,4.814,14.083" stroke-width="0"/>
       <polygon  fill="#B7B7B7" points="10.478,17.455,11.626,17.455,11.626,14.083,10.478,14.083" stroke-width="0"/>
      </g>
     </g>
     <rect  width="16.439" x="0.001" y="0" fill="#E8E8E8" height="16.7" stroke-width="0"/>
     <g  stroke-width="0">
      <rect  width="2.31" x="0.001" y="16.7" fill="#E8E8E8" height="5.046" stroke-width="0"/>
     </g>
     <g  stroke-width="0">
      <rect  width="2.311" x="14.13" y="16.7" fill="#E8E8E8" height="5.046" stroke-width="0"/>
     </g>
     <rect  width="2.31" x="14.13" opacity="0.4" y="16.7" fill="#C1C1C1" height="0.216" stroke-width="0"/>
     <rect  width="2.31" x="0.001" opacity="0.4" y="16.7" fill="#C1C1C1" height="0.216" stroke-width="0"/>
     <rect  width="1.319" x="7.56101" y="0" fill="#B7B7B7" height="13.442" stroke-width="0"/>
    </g>
   </g>
  </g>
  <g  id="sfe-new-weblogo" stroke-width="0" transform="matrix(1, 0, 0, 1, 12.7094, 56.542)">
   <g  stroke-width="0">
    <title >element:JP2</title>
    <g  stroke-width="0">
     <title >package:SFE-NEW-WEBLOGO</title>
     <title >polygon</title>
     <title >polygon</title>
     <title >polygon</title>
     <title >polygon</title>
     <title >polygon</title>
     <title >polygon</title>
     <title >polygon</title>
     <title >polygon</title>
     <title >polygon</title>
     <title >polygon</title>
     <title >polygon</title>
     <title >polygon</title>
     <title >polygon</title>
    </g>
   </g>
   <g  stroke-width="0">
    <path  fill="#FFFFFF" stroke-width="0" d="M44.822,8.79199c-0.206,-0.053,-0.423,-0.0799999,-0.643,-0.0799999l0,0.029c-0.004,0,-0.006,0.003,-0.01,0.004c-0.002,-0.018,-0.015,-0.034,-0.033,-0.034c-0.016,0,-0.023,0.015,-0.028,0.029c-0.006,-0.014,-0.014,-0.029,-0.029,-0.029c0,0,0,0.001,-0.001,0.001L44.078,8.71301c-0.0869998,0.003,-0.172,0.03,-0.258,0.042l-0.183,0.022l-0.004,0c-0.004,0,-0.00799999,0.001,-0.012,0.002l-0.051,0.006c-0.00799999,0,-0.01,0.002,-0.013,0.004l-0.026,0.013c-0.232,0.061,-0.458,0.145,-0.667,0.269c-0.0889999,0.053,-0.165,0.12,-0.244,0.184l-0.019,0.009c-0.002,0.001,-0.004,0.002,-0.006,0.004c0,0,-0.001,0,-0.001,0c-0.002,0.002,-0.005,0.004,-0.006,0.007l-0.007,0.00799999c-0.251,0.208,-0.451,0.464,-0.593,0.754999l-0.006,0.007c-0.001,0.001,-0.002,0.003,-0.003,0.005c0,0,0,0,-0.001,0c-0.001,0.003,-0.002,0.006,-0.003,0.01l0,0.001c-0.0840002,0.178,-0.152,0.363,-0.188,0.56c-0.025,0.143,-0.033,0.287,-0.039,0.43l-0.004,0.015c0,0.002,-0.001,0.005,-0.001,0.00799999c0,0.002,0,0.004,0.001,0.007l0,0.003c-0.007,0.213,0.001,0.426,0.036,0.637c0.05,0.306,0.155,0.594,0.313,0.853999c0.101,0.166,0.227,0.312,0.376,0.434c0.445,0.366,1.008,0.571,1.585,0.578c0.012,0,0.023,0,0.036,0c0.34,0,0.676,-0.054,0.997999,-0.161c0.547,-0.181,0.982001,-0.592,1.195,-1.129c0.159,-0.405,0.243,-0.830002,0.248,-1.265c0.006,-0.673,-0.282,-1.313,-0.790999,-1.756C45.48,9.04601,45.162,8.87897,44.822,8.79199zM43.755,9.68803c-0.00799999,0.002,-0.017,0.003,-0.024,0.006l0.006,-0.003L43.755,9.68803zM43.445,9.85298c-0.017,0.013,-0.033,0.025,-0.048,0.039l0.015,-0.021L43.445,9.85298zM43.274,12.31c0.013,0.016,0.025,0.032,0.039,0.047l-0.021,-0.012l-0.009,-0.017c-0.001,-0.002,-0.002,-0.004,-0.003,-0.006L43.274,12.31zM45.039,10.066c-0.004,-0.005,-0.007,-0.009,-0.011,-0.014l0.007,0.007L45.039,10.066zM44.165,9.65599C44.165,9.65599,44.165,9.65599,44.165,9.65599l0.364,0.027l0.043,0.023c0.003,0.002,0.006,0.003,0.009,0.004l0.219,0.118l0.015,0.014c0.002,0.002,0.004,0.005,0.007,0.007l0.058,0.056l-0.027,0.026c0.173,0.181,0.295,0.404,0.352,0.647c0.054,0.225,0.0799999,0.462,0.0779998,0.704l0.036,0l-0.036,0c-0.002,0.298,-0.0769997,0.595,-0.219,0.859997c-0.0889999,0.167,-0.225,0.296,-0.394,0.374l0,0c-0.293,0.134,-0.62,0.155,-0.924998,0.055c-0.221,-0.071,-0.402,-0.223,-0.512,-0.429c-0.105,-0.198,-0.17,-0.412,-0.189,-0.634c-0.021,-0.231,-0.024,-0.464,-0.00799999,-0.692c0.021,-0.288,0.125,-0.56,0.302,-0.787003c0.161,-0.208,0.415,-0.332,0.678,-0.332L44.016,9.65203l0.028,-0.003l0,0.014c0,0.02,0.017,0.036,0.036,0.036s0.036,-0.016,0.036,-0.036c0.007,0.009,0.01,0.021,0.021,0.021C44.152,9.68501,44.16,9.67003,44.165,9.65599zM45.732,12.968l0.063,-0.061C45.775,12.928,45.754,12.948,45.732,12.968z"/>
    <path  fill="#FFFFFF" stroke-width="0" d="M4.132,11.981c0,-0.003,0,-0.005,-0.001,-0.00799999l-0.012,-0.132c0,-0.001,0,-0.002,0,-0.003c0,-0.003,0,-0.006,-0.001,-0.009l-0.004,-0.047c0,-0.001,0,-0.002,0,-0.004c0,-0.002,-0.001,-0.004,-0.002,-0.006l-0.004,-0.013c0,-0.003,-0.001,-0.007,-0.003,-0.01l-0.021,-0.062c-0.001,-0.003,-0.002,-0.007,-0.003,-0.01l-0.021,-0.064c0,-0.002,-0.001,-0.005,-0.002,-0.007L4.034,11.54c0,-0.001,0,-0.002,-0.001,-0.003l-0.017,-0.048c0,-0.002,-0.001,-0.003,-0.002,-0.005l0,0c0,-0.001,-0.001,-0.002,-0.002,-0.002L4,11.459c0,0,0,0,0,0l-0.042,-0.068c-0.001,-0.003,-0.003,-0.005,-0.005,-0.00799999l-0.011,-0.018c0,-0.001,-0.001,-0.002,-0.001,-0.003c-0.001,-0.002,-0.002,-0.003,-0.004,-0.004l-0.041,-0.043c-0.002,-0.004,-0.006,-0.00799999,-0.011,-0.011L3.843,11.26c-0.001,-0.001,-0.002,-0.002,-0.003,-0.003c-0.001,0,-0.001,-0.001,-0.002,-0.001l-0.024,-0.018c-0.003,-0.003,-0.007,-0.006,-0.011,-0.00799999l-0.0859997,-0.063c-0.003,-0.004,-0.007,-0.007,-0.012,-0.009l-0.062,-0.046c-0.002,-0.002,-0.004,-0.002,-0.005,-0.003l-0.214,-0.116c0,0,-0.001,-0.001,-0.002,-0.001c0,0,0,0,0,0c-0.001,0,-0.002,-0.001,-0.003,-0.001l-0.326,-0.12c-0.003,-0.001,-0.007,-0.003,-0.011,-0.003l-0.131,-0.048c-0.001,0,-0.001,0,-0.002,-0.001c0,0,-0.001,0,-0.003,0l-0.0889999,-0.02c-0.004,-0.002,-0.01,-0.003,-0.015,-0.003l-0.383,-0.0850003c0,0,-0.001,0,-0.001,0l-0.573,-0.115l-0.213,-0.0769997l-0.122,-0.0750002c-0.002,-0.001,-0.004,-0.002,-0.006,-0.004l-0.063,-0.039l-0.021,-0.022c-0.002,-0.003,-0.004,-0.005,-0.007,-0.007l-0.051,-0.053l-0.001,-0.001c-0.001,-0.004,-0.003,-0.007,-0.005,-0.011l-0.032,-0.062c-0.001,-0.002,-0.002,-0.005,-0.003,-0.007l-0.011,-0.021l-0.006,-0.034c0,-0.002,-0.001,-0.005,-0.001,-0.00799999l-0.011,-0.062l0.013,-0.106l0.009,-0.019C1.35,9.98201,1.351,9.97999,1.352,9.97798l0.033,-0.071L1.451,9.83002l0.0850003,-0.055l0.12,-0.044l0.127,-0.024l0.241,-0.013l0.24,0.013l0.141,0.028l0.132,0.053l0.12,0.0760003L2.71,9.91498c0.002,0.003,0.005,0.006,0.009,0.00799999l0.016,0.015l0.029,0.042c0.002,0.004,0.004,0.007,0.006,0.01l0.026,0.038l0.00799999,0.018c0.001,0.004,0.003,0.00799999,0.005,0.011l0.027,0.062c0,0.003,0.002,0.006,0.003,0.009l0.013,0.06c0,0.001,0,0.002,0.001,0.003l0.005,0.059c0,0.001,0,0.002,0,0.004c0,0.003,0,0.006,0.001,0.009l0,0.007c0.001,0.019,0.017,0.034,0.036,0.034l0,0l1.1,0c0,0,0,0,0.001,0c0.002,0,0.004,0,0.006,0l0,0l0,0c0,0,0,0,0,0c0.009,-0.002,0.017,-0.007,0.022,-0.015l0,0c0,0,0,0,0,0c0,-0.001,0.001,-0.002,0.002,-0.003l0,0l0,0c0,0,0,0,0,0s0,0,0,0c0.002,-0.005,0.004,-0.012,0.003,-0.019L4.03,10.25c0,0,0,0,0,-0.001l-0.007,-0.066c0,0,0,-0.001,0,-0.001c0,-0.003,0,-0.006,-0.001,-0.009l-0.006,-0.062l0,0c0,-0.003,0,-0.005,-0.001,-0.00799999L4.01,10.064c0,-0.001,0,-0.002,0,-0.003c0,0,0,0,0,0c0,-0.001,-0.001,-0.002,-0.001,-0.004c0,0,0,0,0,-0.001c0.001,-0.004,0.002,-0.01,0.001,-0.015c0,0,0,0,0,0c0,-0.003,-0.001,-0.006,-0.002,-0.009l-0.002,-0.004c0,-0.001,0,-0.002,-0.001,-0.003L3.981,9.95803C3.98,9.95501,3.98,9.95198,3.979,9.94997L3.951,9.87502c0,-0.001,0,-0.002,-0.001,-0.003L3.922,9.81101c0,-0.003,-0.002,-0.005,-0.003,-0.00799999L3.89,9.738C3.889,9.73498,3.888,9.73303,3.887,9.73102L3.857,9.66701C3.856,9.66398,3.855,9.66197,3.854,9.66002L3.85,9.64901C3.849,9.64699,3.847,9.64498,3.846,9.64303L3.812,9.58903C3.81,9.58702,3.809,9.585,3.807,9.58298L3.766,9.51898C3.765,9.51703,3.763,9.51502,3.762,9.51401L3.76,9.51098c0,0,-0.001,-0.001,-0.002,-0.002l-0.06,-0.068C3.696,9.43898,3.694,9.43697,3.692,9.43502L3.664,9.40198c0,-0.001,-0.001,-0.001,-0.002,-0.002c0,0,0,0,0,0c-0.001,0,-0.002,-0.001,-0.003,-0.002L3.616,9.36403C3.614,9.36202,3.612,9.36,3.61,9.35899L3.525,9.29203C3.523,9.29002,3.521,9.288,3.518,9.28699L3.435,9.22097C3.432,9.21802,3.429,9.216,3.426,9.21398L3.387,9.18302C3.384,9.18101,3.381,9.17899,3.379,9.17798L3.159,9.06998C3.158,9.06898,3.156,9.06898,3.155,9.06797L3.07,9.02599C3.065,9.02498,3.064,9.02398,3.062,9.02297L2.68,8.919c-0.004,0,-0.004,0,-0.007,-0.001L2.28,8.87897c-0.001,0,-0.003,0,-0.004,0L1.765,8.87897l0,0c-0.001,0,-0.003,0,-0.004,0L1.356,8.92202c-0.001,0,-0.003,0,-0.004,0c0,0,0,0,0,0c-0.001,0,-0.002,0,-0.004,0.001L0.958003,9.04097c-0.001,0,-0.003,0.001,-0.005,0.002c0,0,-0.001,0,-0.002,0.001L0.903002,9.06797C0.901001,9.06898,0.897998,9.06998,0.895997,9.07099l-0.275,0.14C0.619,9.21197,0.616,9.21298,0.614,9.21499L0.589,9.22802c0,0.001,-0.004,0.002,-0.007,0.004L0.449,9.33502c-0.002,0,-0.002,0.001,-0.003,0.002C0.445,9.33898,0.444,9.33998,0.443,9.34099L0.332,9.46901c0,0,-0.001,0.001,-0.002,0.002C0.329,9.47297,0.328,9.47498,0.327,9.47599l-0.062,0.11c0,0.001,-0.001,0.002,-0.002,0.003L0.243,9.62302C0.242,9.62503,0.241,9.62597,0.24,9.62899c0,0,0,0.001,0,0.002L0.205,9.73498C0.204,9.73699,0.204,9.738,0.204,9.74002L0.139,9.936C0.138,9.93802,0.137,9.94003,0.137,9.94198c0,0,0,0,0,0c0,0,0,0.001,0,0.001L0.1,10.266c0,0.001,0,0.003,0,0.004c0,0,0,0,0,0c0,0.001,0,0.002,0,0.004l0.011,0.122c0,0,0,0,0,0.001c0,0.002,0,0.005,0.001,0.007l0.006,0.064l0,0c0,0.002,0,0.005,0.001,0.007l0.006,0.064c0,0,0,0,0,0c0,0.002,0,0.005,0.001,0.007l0.004,0.046c0,0.001,0,0.002,0,0.003c0,0,0,0,0,0c0,0.001,0,0.003,0.001,0.004l0.005,0.016c0,0.004,0.001,0.00799999,0.003,0.012l0.019,0.061c0,0.003,0.001,0.007,0.003,0.01l0.012,0.039c0,0.001,0.001,0.003,0.001,0.004s0.001,0.003,0.002,0.004l0.012,0.021c0.001,0.004,0.003,0.00799999,0.006,0.011l0.052,0.0940003c0,0.001,0.001,0.002,0.002,0.003c0,0,0,0,0,0c0.001,0.001,0.002,0.002,0.003,0.004l0.0949997,0.108c0.001,0.002,0.003,0.003,0.005,0.005L0.358,11c0.002,0.001,0.004,0.003,0.006,0.004l0.0830002,0.066c0.003,0.003,0.006,0.006,0.01,0.00799999l0.0789998,0.062c0.004,0.006,0.011,0.011,0.019,0.013l0.113,0.064c0.003,0.003,0.007,0.005,0.012,0.007l0.0820001,0.046c0.002,0.001,0.005,0.005,0.006,0.003l0.051,0.02c0.003,0.002,0.007,0.004,0.011,0.004l0.166,0.064c0,0,0.001,0,0.002,0c0,0,0.001,0.001,0.003,0.001l0.937001,0.222c0.001,0,0.002,0,0.004,0.001l0.277,0.07c0.002,0.001,0.005,0.001,0.00799999,0.002l0.136,0.036l0.0750002,0.032c0.003,0.002,0.006,0.003,0.009,0.004l0.23,0.0979999l0.055,0.038c0.002,0.002,0.006,0.004,0.009,0.006l0.031,0.021l0.0750002,0.0859997l0.009,0.017c0,0.002,0.001,0.003,0.002,0.005l0.033,0.065c0.001,0.003,0.003,0.007,0.005,0.009l0.013,0.055c0,0.003,0,0.006,0.002,0.009l0.011,0.053l0,0.003c0,0.001,0,0.002,0,0.004l0,0l-0.004,0.108l-0.033,0.109l-0.028,0.047c-0.002,0.002,-0.003,0.004,-0.004,0.007l-0.026,0.043l-0.0820001,0.0799999l-0.146,0.0889999l-0.159,0.055c-0.001,0,-0.002,0,-0.004,0L2.266,12.76L1.889,12.76L1.73,12.738l-0.167,-0.061l-0.00799999,-0.005c0,-0.001,-0.001,-0.001,-0.002,-0.002l-0.107,-0.068C1.443,12.6,1.44,12.599,1.438,12.597l-0.023,-0.015l-0.045,-0.045c-0.002,-0.003,-0.005,-0.006,-0.00799999,-0.00799999l-0.064,-0.065c-0.002,-0.003,-0.004,-0.005,-0.007,-0.007l-0.037,-0.06c0,-0.001,-0.001,-0.003,-0.002,-0.004l-0.033,-0.054l-0.024,-0.0760003c0,-0.003,-0.001,-0.005,-0.002,-0.00799999l-0.015,-0.047l0,-0.011c0,-0.001,0,-0.001,0,-0.002l-0.007,-0.128l0,-0.013c0,-0.02,-0.016,-0.036,-0.036,-0.036L0.036,12.018l0,0c-0.005,-0.004,-0.014,0.002,-0.019,0.006c0,0,0,0,0,0c-0.003,0.003,-0.007,0.006,-0.01,0.01c-0.002,0.003,-0.004,0.006,-0.005,0.01c0,0,0,0,0,0s0,0,0,0c0,0.001,0,0.002,0,0.003C0.001,12.049,0,12.051,0,12.052c0,0,0,0,0,0c0,0,0,0,0,0c0,0,0,0,0,0c0,0,0,0,0,0c0,0,0,0,0,0l0,0c0,0,0,0,0,0c0,0,0,0,0,0c0,0,0,0,0,0l0.005,0.067c0,0.001,0,0.001,0,0.002c0,0.002,0,0.005,0.001,0.007l0.001,0.024c0,0.001,-0.001,0.001,0.001,0.005l0.006,0.039c0,0.002,0.001,0.005,0.001,0.00799999l0.012,0.065c0,0.001,0,0.002,0,0.004l0.00799999,0.047c0,0.001,0,0.003,0.001,0.004c0,0.001,0,0.001,0.001,0.002l0.006,0.018c0,0.003,0.001,0.006,0.003,0.009l0.021,0.063c0,0.002,0.001,0.004,0.002,0.006l0.022,0.065c0,0.003,0.001,0.006,0.003,0.009l0.045,0.133c0,0.005,0.002,0.009,0.004,0.013l0.015,0.043c0,0.001,0,0.002,0.001,0.004c0,0.001,0,0.001,0.001,0.002l0.009,0.018c0.001,0.003,0.002,0.006,0.004,0.00799999l0.0740002,0.143c0,0.003,0.003,0.005,0.002,0.005c0.001,0.001,0.001,0.001,0.002,0.002l0.112,0.138c0,0.001,0.001,0.001,0.001,0.002l0.005,0.006c0.001,0.002,0.003,0.005,0.006,0.006l0.145,0.123c0,0,0,0,0.001,0l0,0c0.001,0.001,0.002,0.001,0.004,0.002l0.247,0.157c0,0,0.001,0,0.001,0.001l0.0889999,0.057c0.002,0.002,0.007,0.003,0.005,0.003l0.243,0.112c0.002,0.001,0.005,0.003,0.00799999,0.003l0.259,0.059c0.001,0,0.003,0.001,0.005,0.001c0,0,0.001,0,0.002,0l0.725998,0.05c0.001,0,0.002,0,0.003,0c0,0,0,0,0.001,0s0,0,0,0l0.375,-0.013c0.001,0,0.003,0,0.004,0l0.372,-0.053c0.002,0,0.004,0,0.006,-0.001l0.248,-0.07c0.004,0,0.00799999,-0.001,0.012,-0.003l0.023,-0.007c0,0,0.001,0,0.002,0c0.001,0,0.003,-0.001,0.004,-0.002l0.264,-0.126c0.002,-0.001,0.005,-0.001,0.006,-0.004l0.238,-0.171c0.001,-0.001,0.002,-0.002,0.004,-0.003l0,0c0,0,0.001,-0.001,0.002,-0.001l0.205,-0.21c0.001,-0.001,0.002,-0.003,0.003,-0.004l0,0c0,0,0,-0.001,0.001,-0.001l0.107,-0.16c0,0,0,-0.001,0.001,-0.001c0,0,0,0,0,0C3.999,12.76,4,12.758,4,12.756l0.017,-0.039c0,-0.001,0.001,-0.002,0.001,-0.003l0.057,-0.133c0,0,0,0,0,0c0,0,0,0,0,0l0,0c0,-0.002,0.001,-0.004,0.001,-0.006l0.041,-0.188c0,0,0,-0.001,0,-0.002c0,-0.001,0,-0.002,0,-0.004l0.021,-0.293c0,-0.002,0,-0.004,0,-0.007l-0.00799999,-0.0969998C4.132,11.982,4.132,11.982,4.132,11.981z"/>
    <path  fill="#FFFFFF" stroke-width="0" d="M9.16898,10.9c0,-0.002,0,-0.005,-0.001,-0.007L9.15998,10.828c0,-0.002,0,-0.005,-0.001,-0.007L9.14998,10.755c0,-0.001,0,-0.002,0,-0.003l-0.009,-0.07c0,0,0,-0.001,0,-0.001l-0.015,-0.113c0,-0.001,0,-0.002,0,-0.004s0,-0.002,-0.001,-0.004l-0.19,-0.597c0,-0.001,-0.001,-0.003,-0.001,-0.004C8.93203,9.95702,8.93102,9.95602,8.93102,9.95501L8.80798,9.73498C8.80697,9.73303,8.80603,9.73001,8.80402,9.72799L8.76701,9.66103C8.766,9.65902,8.76398,9.657,8.76298,9.65498l0,0c0,0,-0.001,-0.001,-0.001,-0.001l-0.223,-0.25C8.53697,9.40097,8.53502,9.39902,8.53301,9.39701L8.49103,9.36403C8.48902,9.36202,8.487,9.36,8.48398,9.35899L8.40002,9.29297C8.39801,9.29002,8.39498,9.288,8.39203,9.28598L8.31103,9.22198C8.30801,9.21802,8.30398,9.21499,8.29901,9.21298c0,0,0,0,-0.001,-0.001C8.29699,9.21103,8.29598,9.21002,8.29498,9.21002L8.18798,9.14602C8.18503,9.144,8.18201,9.14198,8.17898,9.14098L8.06998,9.07502C8.06602,9.072,8.06198,9.06898,8.05702,9.06703L8.04002,9.05702c-0.001,0,-0.004,-0.002,-0.007,-0.003L7.74497,8.94002c-0.002,0,-0.005,-0.001,-0.009,-0.002L7.42997,8.88703c-0.002,0,-0.003,0,-0.005,-0.001c-0.001,0,-0.001,0,-0.002,0l-0.56,0.007l0,0c-0.002,0,-0.004,0,-0.006,0l0,0c0,0,-0.001,0,-0.001,0L6.718,8.92303c0,0,0,0,-0.001,0c-0.002,0,-0.004,0.001,-0.006,0.002l-0.374,0.15c0,0,0,0,-0.001,0c0.001,0.001,-0.003,0.002,-0.005,0.003l-0.11,0.065C6.219,9.14501,6.217,9.14602,6.215,9.14803L6.137,9.216C6.135,9.21701,6.134,9.21902,6.132,9.22003L6.119,9.23198C6.118,9.23299,6.116,9.234,6.115,9.23501c0,0,0,0,0,0L6.065,9.29002C6.063,9.29203,6.061,9.29398,6.059,9.29599L5.999,9.36202C5.997,9.36403,5.994,9.36598,5.993,9.369L5.863,9.50998c0,0,0,0,-0.001,0.001L5.825,9.55202l0.001,-0.0830002c0,-0.002,0,-0.004,0,-0.006s0,-0.003,0,-0.005l0.001,-0.061c0,-0.002,0,-0.004,0,-0.006c0,-0.002,0,-0.004,0,-0.006L5.829,9.31997c0,-0.002,-0.001,-0.004,0,-0.005l0,-0.067c0.001,-0.002,0,-0.004,0,-0.006l0,-0.065c0,-0.001,0,-0.002,0,-0.004c0,-0.001,0,-0.002,0,-0.003l0.002,-0.135c0,-0.001,0,-0.003,0,-0.005c0,-0.001,0,-0.003,0,-0.004l0,-0.018c0,-0.001,0,-0.002,0,-0.003c0,0,0,0,0,0c0,-0.004,-0.001,-0.00799999,-0.003,-0.011C5.827,8.98798,5.823,8.98301,5.818,8.97898C5.815,8.97703,5.812,8.97502,5.807,8.97401C5.804,8.97199,5.8,8.97199,5.796,8.97199c-0.002,0,-0.006,-0.003,-0.007,0.001L5.296,9.06602c0,0,0,0,-0.001,0L4.688,9.18101c-0.003,0,-0.006,0.001,-0.009,0.003l0,0l0,0c-0.005,0.002,-0.01,0.006,-0.014,0.011c0,0,0,0,0,0c0,0,0,0,0,0c0,0,0,0,0,0C4.664,9.19901,4.662,9.20203,4.661,9.20398l0,0l0,0C4.659,9.20902,4.659,9.21298,4.659,9.21701l0,5.831c0.001,0.002,0,0.004,0,0.004c0,0,0,0,0,0c0,0.002,0.001,0.005,0.001,0.00799999c0,0,0,0,0,0c0.002,0.005,0.005,0.01,0.01,0.015l0.269,0.243c0.001,0.001,0.003,0.003,0.005,0.004l0.0750002,0.068c0.001,0.001,0.003,0.003,0.005,0.004l0.554,0.5c0.001,0.001,0.002,0.002,0.004,0.003l0.0760003,0.069c0.001,0.001,0.003,0.002,0.004,0.004l0.181,0.163c0.001,0,0.001,0.001,0.002,0.001c0,0,0,0,0,0l0,0l0,0c0,0,0,0,0,0c0.006,0.004,0.014,0.007,0.021,0.007c0.002,0,0.009,-0.001,0.013,-0.002c0,0,0,0,0,0c0.005,-0.002,0.009,-0.005,0.013,-0.009c0.002,-0.002,0.003,-0.004,0.005,-0.007c0,0,0,0,0,0c0,0,0,0,0,0l0,0c0,0,0,0,0,0c0.002,-0.005,0.003,-0.01,0.003,-0.016l0,-3.146l0.146,0.202c0.002,0.003,0.004,0.005,0.006,0.007l0.149,0.133c0.001,0.001,0.002,0.002,0.004,0.004l0.033,0.029c0.003,0.002,0.004,0.003,0.007,0.005l0.217,0.124c0,0,0.001,0,0.002,0.001l0,0l0,0c0.001,0,0.003,0.001,0.005,0.002l0.238,0.0740002c0.001,0,0.003,0.001,0.004,0.001c0.001,0,0.002,0,0.003,0l0.344,0.044c0.001,0,0.003,0,0.005,0l0,0l0.347,-0.005c0,0,0.001,0,0.002,0c0,0.001,0.002,-0.001,0.004,0l0.342,-0.054c0.002,0,0.005,-0.001,0.007,-0.001l0.215,-0.069c0.006,0,0.012,-0.002,0.018,-0.006l0.026,-0.00799999c0.001,0,0.003,-0.001,0.004,-0.002c0,0,0,0,0,0c0,0,0,0,0,0c0,0,0.001,0,0.001,-0.001l0.112,-0.058c0.002,-0.001,0.005,-0.002,0.007,-0.004l0.123,-0.063l0,0c0.002,-0.001,0.004,-0.002,0.006,-0.003l0.005,-0.004c0.001,0,0.002,-0.001,0.003,-0.002l0.0920002,-0.07c0.001,-0.001,0.002,-0.001,0.002,-0.002l0.114,-0.0869998c0.002,-0.001,0.003,-0.003,0.005,-0.005l0.05,-0.054c0.002,-0.001,0.003,-0.003,0.005,-0.005l0.063,-0.068c0.001,-0.001,0.002,-0.002,0.003,-0.004l0.065,-0.07c0,0,0,-0.001,0,-0.001c0,0,0,0,0,0c0.001,-0.001,0.002,-0.003,0.003,-0.004l0.043,-0.066c0.002,-0.003,0.004,-0.006,0.006,-0.009l0.042,-0.064c0.001,-0.002,0.003,-0.004,0.004,-0.007l0.041,-0.062c0.003,-0.003,0.006,-0.007,0.007,-0.011l0.04,-0.06c0.003,-0.004,0.006,-0.00799999,0.00799999,-0.013l0.027,-0.042c0.001,-0.002,0.002,-0.004,0.003,-0.006l0.00799999,-0.02c0.001,-0.002,0.002,-0.004,0.003,-0.007l0.028,-0.064c0.002,-0.003,0.003,-0.006,0.004,-0.01l0.114,-0.266c0,-0.001,0.001,-0.002,0.001,-0.003c0,-0.001,0.001,-0.002,0.001,-0.004l0.037,-0.156c0,-0.002,0.001,-0.004,0.001,-0.007l0.033,-0.139c0,-0.001,0,-0.003,0.001,-0.004l0.015,-0.063c0.001,-0.003,0.002,-0.007,0.003,-0.011l0.001,-0.00799999c0,-0.002,0.001,-0.004,0.001,-0.006c0,0,0,-0.001,0,-0.001l0.006,-0.123c0,-0.002,0.001,-0.005,0.001,-0.00799999c0,-0.001,0,-0.003,0,-0.004l0.003,-0.064c0,-0.001,0,-0.003,0,-0.004l0,0l0.003,-0.066c0,-0.002,0,-0.003,0,-0.005c0,0,0,-0.001,0,-0.001l0.003,-0.065c0,-0.002,0,-0.004,0,-0.006c0,-0.001,0,-0.001,0,-0.002l0.011,-0.209c0,-0.001,0,-0.002,0,-0.004l0.003,-0.062c0,-0.002,0,-0.003,0,-0.005c0,-0.001,0,-0.002,0,-0.003L9.16898,10.9zM5.961,12.02c0,-0.001,0,-0.002,0,-0.003c0,-0.001,-0.001,-0.003,-0.001,-0.004l-0.013,-0.039c0,-0.002,-0.001,-0.004,-0.002,-0.006l-0.048,-0.145l-0.021,-0.131c0,-0.002,0,-0.004,-0.001,-0.006l-0.011,-0.067c0,-0.001,0,-0.003,0,-0.005L5.856,11.12c-0.001,-0.001,0,-0.003,0,-0.004l-0.001,-0.141c0,0,0,-0.002,0,-0.003l-0.001,-0.0889999l0.006,-0.047c0,0,0,-0.001,0,-0.002l0.009,-0.066c0,-0.002,0.001,-0.005,0.001,-0.00799999l0.014,-0.107l0.00799999,-0.023c0.001,-0.002,0.002,-0.004,0.002,-0.006l0.022,-0.066c0.001,-0.002,0.001,-0.004,0.002,-0.006l0.041,-0.119l0.0920002,-0.157c0.001,-0.002,0.003,-0.004,0.004,-0.007l0.021,-0.037l0.0830002,-0.0940003c0.003,-0.002,0.005,-0.005,0.00799999,-0.009l0.055,-0.063c0.003,-0.003,0.006,-0.006,0.00799999,-0.01l0.069,-0.06c0.003,-0.002,0.005,-0.004,0.00799999,-0.006l0.0850003,-0.066C6.396,9.92297,6.398,9.92102,6.4,9.91901l0.049,-0.038l0.0959998,-0.045L6.65,9.81403L6.955,9.79999l0.16,0.014l0.146,0.041c0.002,0.001,0.005,0.002,0.00799999,0.002l0.142,0.0750002l0.161,0.133c0,0,0.001,0.001,0.002,0.002l0.052,0.043l0.013,0.017c0.002,0.004,0.005,0.00799999,0.00799999,0.011L7.695,10.2c0.001,0.002,0.003,0.004,0.005,0.006l0.051,0.067c0.001,0.001,0.002,0.002,0.003,0.003l0.042,0.055l0.114,0.256l0.006,0.032c0,0.001,0,0.002,0,0.003l0.028,0.139c0,0.002,0,0.003,0.001,0.005l0.013,0.066c0,0.001,0,0.003,0.001,0.004l0.004,0.061c0,0.002,0,0.003,0,0.005l0,0.066c0,0.001,0,0.002,0,0.004s0,0.002,0,0.004l0,0.209c0,0.002,0,0.003,0,0.005l0,0.066c0,0.001,0,0.002,0,0.004s0,0.002,0,0.004l0,0.155l-0.03,0.192c-0.001,0.002,-0.001,0.005,-0.001,0.007l-0.01,0.066c0,0.001,0,0.003,0,0.005l-0.011,0.065c0,0.002,0,0.004,-0.001,0.006L7.89998,11.831c0,0.001,0,0.002,0,0.003l-0.011,0.067c0,0.002,0,0.003,0,0.005l-0.011,0.066L7.85297,12.04c0,0,0,0.001,-0.001,0.002l-0.026,0.07c0,0.001,0,0.002,-0.001,0.003l-0.026,0.069c0,0.001,0,0.002,-0.001,0.003l-0.041,0.057c-0.003,0.003,-0.005,0.006,-0.007,0.009l-0.047,0.065C7.70098,12.32,7.69997,12.321,7.69903,12.323l-0.037,0.052l-0.01,0.00799999c-0.002,0.002,-0.005,0.004,-0.007,0.006l-0.081,0.066c-0.002,0.001,-0.004,0.003,-0.006,0.005l-0.0730001,0.061l-0.209,0.0959998l-0.252,0.049L6.765,12.666L6.56,12.623L6.368,12.54l-0.116,-0.0820001c-0.002,-0.001,-0.003,-0.003,-0.005,-0.004l-0.023,-0.016l-0.038,-0.043c-0.002,-0.004,-0.005,-0.007,-0.009,-0.01l-0.07,-0.0799999l-0.0850003,-0.16c0,-0.001,-0.001,-0.003,-0.002,-0.004l-0.026,-0.039l-0.003,-0.026c0,-0.009,-0.003,-0.019,-0.011,-0.026c-0.005,-0.005,-0.011,-0.00799999,-0.017,-0.01c0,-0.004,0,-0.00799999,0,-0.012L5.961,12.02z"/>
    <path  fill="#FFFFFF" stroke-width="0" d="M25.5,4.38c0,0,0,-0.001,0.001,-0.002c0,0,0,0,0,0c0.001,-0.001,0.001,-0.003,0.002,-0.005l0.004,-0.01c0,-0.001,0,-0.002,0.001,-0.002l0.022,-0.066c0.001,-0.003,0.002,-0.006,0.003,-0.009l0.047,-0.136c0.001,-0.002,0.002,-0.005,0.003,-0.00799999l0.0979999,-0.283c0.001,-0.002,0.001,-0.004,0.002,-0.007c0,0,0,-0.001,0,-0.001l0.0820001,-0.54c0,-0.002,0,-0.004,0,-0.006l0,0c0,0,0,-0.001,0,-0.001l-0.001,-0.032c0,0,0,-0.001,0,-0.002c0,-0.001,0,-0.003,0,-0.004l-0.004,-0.137c0,-0.001,0,-0.002,0,-0.003c0,-0.002,0,-0.003,0,-0.005l-0.002,-0.067l0,0c0,-0.001,0,-0.002,0,-0.003l-0.002,-0.065c0,-0.001,0,-0.002,0,-0.004c0,-0.002,0,-0.004,0,-0.006l-0.002,-0.063c0,-0.001,0,-0.001,0,-0.002c0,-0.001,0,-0.003,0,-0.005l-0.004,-0.146c0,-0.002,0,-0.005,-0.001,-0.007L25.734,2.69c0,-0.002,0,-0.003,-0.001,-0.005l-0.028,-0.141c0,-0.001,0,-0.001,0,-0.002l-0.014,-0.067c0,-0.003,0,-0.005,-0.001,-0.00799999l-0.001,-0.009c0,-0.001,-0.001,-0.003,-0.001,-0.004c0,0,0,-0.001,0,-0.002l-0.021,-0.057c0,0,0,-0.001,0,-0.002l-0.023,-0.065c-0.001,-0.004,-0.002,-0.00799999,-0.004,-0.011l-0.022,-0.062c-0.001,-0.002,-0.001,-0.005,-0.003,-0.007L25.59,2.182c0,-0.003,-0.001,-0.006,-0.003,-0.00799999l-0.002,-0.005c0,-0.002,-0.001,-0.004,-0.002,-0.005l-0.141,-0.265c0,-0.001,-0.001,-0.001,-0.002,-0.002c0,-0.001,-0.001,-0.003,-0.002,-0.004l-0.256,-0.32c-0.001,-0.001,-0.002,-0.002,-0.004,-0.004c-0.001,-0.001,-0.001,-0.001,-0.002,-0.002l-0.15,-0.123c-0.001,-0.001,-0.001,-0.001,-0.002,-0.002l-0.0830002,-0.067c-0.002,-0.003,-0.005,-0.005,-0.009,-0.007l-0.0750002,-0.061c-0.005,-0.004,-0.012,-0.007,-0.019,-0.00799999l0,0c0,0,0,0,0,0c0,0,0,0,0,0c-0.001,0,-0.002,0,-0.003,0l0,0c0,0,0,0,0,0c-0.005,0,-0.01,0.001,-0.014,0.003c-0.005,0.002,-0.009,0.006,-0.013,0.01c-0.005,0.007,-0.00799999,0.015,-0.00799999,0.023l0,0.249l-0.003,0.025c0,0.001,0,0.003,-0.001,0.004L24.78,1.645l-0.0779998,0.0969998l-0.081,0.056c-0.002,0.001,-0.005,0.003,-0.007,0.004l-0.063,0.029l-0.153,0.016l-0.15,-0.028l-0.035,-0.018c-0.004,-0.003,-0.009,-0.006,-0.015,-0.007L24.11,1.75l-0.022,-0.017c-0.003,-0.003,-0.007,-0.006,-0.011,-0.00799999l-0.09,-0.065c-0.002,-0.002,-0.005,-0.004,-0.009,-0.006l-0.124,-0.09l-0.117,-0.1l-0.014,-0.017c0,0,-0.001,-0.001,-0.001,-0.001l-0.0840002,-0.099l-0.022,-0.036c-0.001,-0.003,-0.003,-0.006,-0.006,-0.009L23.57,1.237c0,-0.001,-0.001,-0.003,-0.003,-0.005l-0.028,-0.061c-0.001,-0.003,-0.002,-0.005,-0.003,-0.00799999L23.5,1.077l-0.017,-0.0850003l0.003,-0.0850003l0.045,-0.147l0.081,-0.131l0.071,-0.066c0.002,-0.001,0.004,-0.003,0.006,-0.005l0.035,-0.033l0.136,-0.072l0.138,-0.039l0.145,-0.017l0.171,0c0.02,0,0.036,-0.016,0.036,-0.036c0,-0.012,-0.006,-0.022,-0.015,-0.029l-0.003,-0.003c-0.001,-0.001,-0.002,-0.002,-0.004,-0.003l-0.044,-0.034c-0.001,-0.001,-0.003,-0.003,-0.005,-0.004L24.207,0.23c-0.001,-0.001,-0.002,-0.002,-0.003,-0.002c-0.002,-0.001,-0.004,-0.002,-0.006,-0.003l-0.021,-0.009c-0.004,-0.002,-0.00799999,-0.004,-0.013,-0.005l-0.158,-0.069c0,0,0,0,-0.001,0l-0.049,-0.022c0,0,-0.001,0,-0.001,0L23.89,0.0910001c-0.002,0,-0.004,-0.001,-0.006,-0.002l-0.0789998,-0.02c-0.004,-0.002,-0.009,-0.003,-0.014,-0.004l-0.155,-0.039c-0.002,0,-0.004,0,-0.006,-0.001L23.376,0C23.374,0,23.372,-0.001,23.37,0l0,0c0,0,0,0,0,0L23.123,0.02c-0.001,0,-0.005,0,-0.00799999,0.001l-0.237,0.064c-0.001,0,-0.002,0.001,-0.004,0.001s-0.003,0.001,-0.004,0.002l-0.22,0.11c-0.001,0.001,-0.002,0.003,-0.006,0.004l-0.014,0.01c-0.004,0.002,-0.007,0.004,-0.01,0.00799999l-0.0910001,0.065c-0.003,0.001,-0.005,0.003,-0.007,0.005L22.425,0.36c-0.001,0.001,-0.002,0.002,-0.004,0.003c0,0,0,0,0,0l0,0l-0.197,0.187c-0.001,0,-0.002,0.001,-0.002,0.002c0,0,0,0,0,0c-0.001,0.001,-0.001,0.002,-0.002,0.003l-0.018,0.024c-0.001,0.002,-0.003,0.004,-0.005,0.007L22.15,0.652c-0.002,0.003,-0.005,0.006,-0.006,0.009L22.1,0.724003c-0.004,0.005,-0.00799999,0.011,-0.009,0.018l-0.024,0.062c-0.001,0.002,-0.002,0.005,-0.003,0.00799999l-0.025,0.065c-0.001,0.002,-0.002,0.004,-0.002,0.006l-0.019,0.047c0,0,0,0.001,0,0.001c0,0,0,0,0,0c-0.001,0.002,-0.001,0.005,-0.001,0.00799999L21.99,1.148c0,0.002,0,0.004,0,0.006c0,0.001,0,0.002,0,0.004l0.003,0.022l0,0c0,0.003,0,0.007,0.001,0.01l0.018,0.133c0,0.003,0,0.007,0.001,0.01l0.004,0.032c0,0.001,0,0.002,0,0.003c0,0,0,0,0,0c0,0.002,0.001,0.004,0.002,0.007l0.043,0.105c0,0,0,0.001,0,0.002l0.028,0.067c0,0.002,0.002,0.005,0.003,0.00799999L22.1,1.569c0,0.001,0.001,0.002,0.001,0.002c0.001,0.002,0.002,0.004,0.003,0.005l0.035,0.051c0.002,0.004,0.004,0.009,0.00799999,0.012l0.043,0.064c0,0.001,0.001,0.002,0.002,0.003l0.045,0.067c0.001,0.003,0.003,0.005,0.005,0.00799999l0.0910001,0.136c0.001,0.002,0.003,0.005,0.005,0.007l0.045,0.066c0.001,0.002,0.002,0.003,0.003,0.005l0.044,0.065c0.001,0.003,0.003,0.006,0.005,0.00799999l0.003,0.005c0,0,0.001,0.001,0.001,0.001c0.001,0.001,0.002,0.002,0.003,0.004L22.5,2.139c0.002,0.002,0.004,0.005,0.006,0.007l0.061,0.064c0.002,0.002,0.004,0.005,0.006,0.007l0.062,0.066c0.001,0.002,0.003,0.004,0.006,0.006l0.062,0.065c0.001,0.002,0.003,0.004,0.006,0.006l0.062,0.066c0.001,0.002,0.003,0.004,0.005,0.006l0.06,0.063c0.003,0.005,0.007,0.009,0.011,0.012L22.9,2.569c0.001,0.003,0.004,0.005,0.006,0.00799999L22.96,2.64l0.031,0.065c0.001,0.004,0.003,0.007,0.005,0.01l0.031,0.064c0,0.001,0.001,0.002,0.001,0.003l0.011,0.058c0,0.003,0.001,0.005,0.001,0.00799999l0.017,0.0879998l-0.012,0.158l-0.052,0.15l-0.001,0.002c-0.001,0.002,-0.003,0.004,-0.004,0.006l-0.0830002,0.121L22.89,3.385c-0.001,0,-0.002,0.001,-0.003,0.002l-0.0779998,0.068c-0.002,0.001,-0.005,0.003,-0.007,0.006l-0.019,0.017l-0.0840002,0.045c-0.004,0.001,-0.00799999,0.003,-0.011,0.006l-0.058,0.031l-0.167,0.056L22.29,3.644l-0.202,-0.009l-0.192,-0.06l-0.172,-0.104L21.647,3.39c-0.001,-0.001,-0.002,-0.002,-0.003,-0.003l-0.066,-0.123c0,-0.002,0,-0.003,-0.001,-0.005l-0.015,-0.066c0,-0.002,0,-0.004,-0.001,-0.006l-0.009,-0.04L21.552,3.025l0.026,-0.117l0.021,-0.04l0.033,-0.032l0.15,-0.109c0.004,-0.002,0.007,-0.005,0.01,-0.00799999l0.0730001,-0.053l0.02,-0.01c0.003,-0.001,0.007,-0.003,0.01,-0.005l0.047,-0.012l0.045,0.004l0,0c0,0,0,0,0,0c0.002,-0.001,0.005,-0.001,0.00799999,0l0,0c0,0,0,0,0,0l0,0c0.015,-0.003,0.027,-0.016,0.028,-0.032c0,0,0,0,0,0c0,0,0,0,0,0c0,0,0,0,0,0c0.001,-0.018,-0.012,-0.035,-0.031,-0.038L21.858,2.55c0,0,0,0,-0.001,0c-0.001,0,-0.001,0,-0.002,0l-0.266,-0.021c-0.001,0,-0.002,0,-0.003,0s-0.002,0,-0.003,0L21.317,2.55c-0.001,0,-0.002,0,-0.003,0c0,0,0,0,0,0l0,0c-0.001,0,-0.002,0,-0.003,0l-0.197,0.051c-0.002,0,-0.004,0.001,-0.005,0.002c0,0,0,0,0,0c-0.001,0,-0.001,0.001,-0.002,0.001l-0.183,0.09c-0.003,0.002,-0.005,0.003,-0.007,0.005l-0.16,0.125c-0.001,0.001,-0.003,0.002,-0.004,0.003c0,0,0,0,0,0c0,0,0,0,0,0c-0.001,0,-0.001,0.001,-0.002,0.002l-0.044,0.052c-0.002,0.001,-0.003,0.003,-0.004,0.005l-0.058,0.068c-0.001,0.001,-0.002,0.002,-0.003,0.003l-0.023,0.027l0,0l0,0c0,0,0,0,0,0c-0.001,0.002,-0.002,0.004,-0.004,0.006L20.498,3.2c0,0,-0.001,0.001,-0.001,0.003c-0.001,0.001,-0.001,0.003,-0.002,0.005l-0.015,0.05c0,0,0,0.001,0,0.002l-0.021,0.068c-0.001,0.002,-0.001,0.004,-0.002,0.007l-0.02,0.064c-0.001,0.002,-0.001,0.004,-0.002,0.006l-0.00799999,0.027c0,0.001,-0.001,0.003,-0.001,0.005c0,0.001,0,0.002,-0.001,0.004l-0.003,0.04c0,0,0,0.001,0,0.002l-0.011,0.14c0,0.002,-0.001,0.004,-0.001,0.007c0,0,0,0,0,0.001l-0.003,0.046c0,0.001,0,0.002,0,0.003l0,4.298c0,0.001,0,0.003,0,0.005c0,0,0,0,0,0c0,0,0,0,0,0c0,0.002,0.001,0.004,0.001,0.005c0,0,0,0,0,0s0,0,0,0c0.002,0.006,0.005,0.011,0.01,0.015c0.007,0.006,0.016,0.009,0.024,0.009c0.007,0.001,0.011,-0.001,0.015,-0.003c0,0,0,0,0,0c0.004,-0.001,0.007,-0.004,0.01,-0.007c0,0,0,0,0,0c0,-0.001,0.001,-0.001,0.002,-0.002l0.022,-0.025c0.002,-0.001,0.003,-0.003,0.005,-0.005l0.444,-0.5c0.001,-0.001,0.002,-0.002,0.003,-0.003l0.317,-0.356c0.001,-0.001,0.002,-0.002,0.003,-0.004l0.188,-0.211c0.001,-0.001,0.003,-0.003,0.004,-0.005l0.394,-0.442l0.06,-0.055c0.001,-0.001,0.002,-0.002,0.004,-0.003l0.178,-0.164l0.281,-0.167l0.099,-0.037l0.104,-0.018l0.645,0l0,0c0.001,0,0.002,0,0.003,0l0.386,-0.035c0.001,-0.001,0.002,0,0.002,0c0.002,0,0.004,0,0.006,-0.001l0.25,-0.07c0.007,0,0.013,-0.002,0.019,-0.005l0.103,-0.029c0.002,0,0.003,-0.001,0.005,-0.001c0,0,0.001,-0.001,0.002,-0.001l0.0740002,-0.036c0.006,-0.001,0.012,-0.004,0.017,-0.00799999l0.132,-0.064c0.005,-0.001,0.01,-0.004,0.014,-0.007l0.111,-0.054c0.001,0,0.002,-0.001,0.002,-0.001c0.001,0,0.002,-0.001,0.004,-0.002l0.014,-0.01c0.004,-0.002,0.007,-0.004,0.01,-0.007l0.0959998,-0.067c0.001,0,0.001,-0.001,0.002,-0.001l0.205,-0.144c0.001,-0.001,0.003,-0.002,0.004,-0.003l0,0c0,0,0,0,0,0l0.292,-0.275c0.001,-0.001,0.002,-0.003,0.004,-0.004l0.25,-0.312c0,-0.001,0.001,-0.002,0.002,-0.003c0,0,0,0,0,0c0,-0.001,0.001,-0.002,0.001,-0.003l0.071,-0.126c0.001,-0.002,0.003,-0.004,0.004,-0.006l0.158,-0.281c0.002,-0.002,0.003,-0.005,0.004,-0.00799999L25.5,4.38z"/>
    <path  fill="#FFFFFF" stroke-width="0" d="M13.909,13.381l-0.099,-0.367l-0.007,-0.0959998c0,0,0,-0.001,0,-0.001c0,-0.002,0,-0.004,-0.001,-0.007l-0.01,-0.136c0,0,0,0,0,0c0,-0.002,0,-0.004,0,-0.006l-0.005,-0.063c0,-0.001,0,-0.001,0,-0.002c0,-0.002,0,-0.005,-0.001,-0.007l-0.004,-0.06l0,-0.0760003c0,-0.001,0,-0.001,0,-0.002l0,-0.069c0,-0.001,0,-0.003,0,-0.004l0.003,-0.501c0,0,0,0,0,-0.001l0,0l0,-0.14c0.001,-0.002,0.001,-0.004,0,-0.006l0.003,-0.43c0,-0.005,-0.001,-0.011,-0.003,-0.015c0,0,0,0,0,0c0,0,0,0,0,0c0,0,0,0,0,0l0,0c0,0,0,0,0,0s0,0,0,0c0,0,0,0,0,0c0,0,0,0,0,0s0,0,0,0c0,0,0,0,0,0l0,0c0,0,0,0,0,0l0,0c0,0,0,0,0,0c0,0,0,0,0,0l0,0c0,0,0,0,0,0l0,0c0,0,0,0,0,0c0,-0.002,0.001,-0.004,0.001,-0.007L13.786,10.01c0,-0.001,0,-0.003,0,-0.004c0,0,0,0,0,0c0,0,0,0,0,-0.001l-0.004,-0.037c0,0,0,0,0,-0.001c0,-0.003,0,-0.007,-0.001,-0.01l-0.00799999,-0.064c0,-0.002,0,-0.004,-0.001,-0.006l-0.00799999,-0.065c0,-0.003,0,-0.006,-0.001,-0.009l-0.002,-0.016c0,-0.002,0,-0.003,0,-0.005c0,-0.002,-0.001,-0.004,-0.002,-0.005l-0.018,-0.047c0,-0.002,-0.001,-0.004,-0.002,-0.006L13.708,9.67003c-0.001,-0.003,-0.002,-0.007,-0.004,-0.01L13.68,9.59897c-0.001,-0.006,-0.004,-0.012,-0.00799999,-0.017l-0.119,-0.169c0,0,-0.001,-0.001,-0.002,-0.002c0,0,0,0,0,0c-0.001,-0.001,-0.003,-0.003,-0.004,-0.004l-0.131,-0.112c-0.002,-0.001,-0.004,-0.003,-0.006,-0.005l-0.021,-0.019c-0.002,-0.001,-0.004,-0.003,-0.007,-0.004c0,0,0,0,-0.001,0l-0.09,-0.048c-0.002,-0.002,-0.005,-0.003,-0.009,-0.004l-0.263,-0.14c-0.002,-0.001,-0.003,-0.002,-0.005,-0.003l0,0c-0.003,-0.002,-0.006,-0.002,-0.00799999,-0.003l-0.4,-0.12c-0.002,-0.003,-0.005,-0.002,-0.007,-0.001l-0.492,-0.066c0,0,-0.001,0,-0.002,0c-0.001,0,-0.002,0,-0.003,0l0,0l-0.496,-0.002l0,0l0,0c0,0,0,0,0,0c-0.001,0,-0.003,0,-0.004,0l-0.493,0.061c-0.001,0,-0.004,0.001,-0.006,0.001l-0.347,0.0959998c-0.002,0,-0.005,0,-0.007,0.002l-0.07,0.032c-0.003,0.001,-0.007,0.002,-0.01,0.004l-0.247,0.112c-0.001,0,-0.002,0.001,-0.003,0.002c0,0,0,0,0,0c-0.001,0.001,-0.002,0.001,-0.003,0.002l-0.036,0.025c-0.003,0.001,-0.006,0.004,-0.009,0.006l-0.0940003,0.066c-0.003,0.001,-0.005,0.003,-0.00799999,0.005L10.181,9.34999c-0.001,0.001,-0.003,0.002,-0.004,0.003c-0.001,0,-0.001,0.001,-0.002,0.002l-0.007,0.007c-0.001,0.001,-0.002,0.002,-0.004,0.004l-0.064,0.069c0,0,-0.001,0.001,-0.002,0.002L9.98201,9.56203c0,0.001,-0.002,0.002,-0.002,0.002C9.97898,9.56599,9.97798,9.567,9.97697,9.56902L9.96797,9.58298C9.96602,9.585,9.96401,9.58802,9.963,9.59098L9.83002,9.80798C9.82901,9.80899,9.82901,9.81101,9.828,9.81202c0,0.001,-0.001,0.002,-0.001,0.004l-0.0940003,0.268c0,0,0,0.001,-0.001,0.002c0,0.002,-0.001,0.004,-0.001,0.006l-0.011,0.0830002c0,0.001,0,0.002,0,0.004l-0.019,0.14c0,0.001,0,0.002,-0.001,0.004l-0.002,0.02c-0.003,0.003,-0.006,0.006,-0.00799999,0.01c0,0,0,0,0,0c0,0,0,0,0,0c-0.002,0.004,-0.004,0.01,-0.004,0.016c0,0.01,0.004,0.019,0.01,0.025L9.70099,10.4c0.007,0.007,0.015,0.011,0.024,0.012c0.005,0.002,0.01,0,0.014,-0.002c0,0,0,0,0,0c0.003,-0.001,0.006,-0.003,0.009,-0.005c0,0,0,0,0,0l0,0c0,0,0,0,0,0l1.173,0c0.02,0,0.036,-0.016,0.036,-0.036l0.018,-0.162l0.052,-0.14l0.052,-0.0779998c0.001,-0.002,0.003,-0.004,0.004,-0.006l0.027,-0.042l0.018,-0.017c0.004,-0.002,0.007,-0.005,0.01,-0.009l0.0820001,-0.0750002l0.132,-0.072l0.159,-0.046l0.167,-0.015l0.191,0.007c0,0,0.001,0,0.001,0l0.192,0.007l0.104,0.017l0.099,0.037l0.009,0.005c0,0,0.001,0,0.001,0.001l0.0789998,0.048l0.071,0.067l0.057,0.0779998l0,0.001c0.001,0.003,0.002,0.006,0.004,0.01l0.028,0.063c0.001,0.002,0.002,0.005,0.004,0.00799999l0.013,0.056c0,0.003,0.001,0.007,0.002,0.01l0.013,0.06c0,0.004,0.001,0.009,0.003,0.013l0.003,0.167l-0.005,0.025c0,0.001,0,0.003,-0.001,0.004l-0.015,0.068c0,0.001,0,0.002,-0.001,0.003l-0.009,0.044l-0.013,0.028l-0.017,0.025l-0.0799999,0.0730001l-0.122,0.071l-0.133,0.046l-0.24,0.042l0,0c-0.004,0,-0.009,0.001,-0.013,0.002l-0.117,0.021l-0.625,0.063c0,0,-0.001,0,-0.001,0s0,0,0,0s0,0,0,0c0,0,0,0,-0.001,0l-0.435,0.0799999c0,0,0,0,-0.001,0c0,0,0,0,0,0c-0.001,0,-0.002,0,-0.004,0.001l-0.419,0.136c-0.001,0,-0.003,0.001,-0.004,0.002c-0.001,0,-0.002,0,-0.002,0.001l-0.197,0.103c-0.001,0,-0.002,0.001,-0.003,0.001l0,0c-0.001,0.001,-0.003,0.002,-0.004,0.003l-0.172,0.14c-0.002,0,-0.005,0.003,-0.006,0.006l-0.14,0.172c0,0.001,-0.001,0.001,-0.002,0.002c-0.001,0.002,-0.002,0.003,-0.003,0.005c0,0,0,0,0,0l0,0c0,0,0,0,0,0l-0.121,0.242c-0.001,0.002,-0.002,0.004,-0.002,0.006c0,0.001,-0.001,0.003,-0.001,0.004l-0.024,0.11c-0.001,0.003,-0.001,0.006,-0.001,0.009l-0.03,0.139c0,0.001,0,0.002,-0.001,0.003l-0.001,0.005c0,0,0,0.001,0,0.001c0,0,0,0,0,0c0,0.002,0,0.004,0,0.007l0,0.205c-0.001,0.002,-0.001,0.004,0,0.007l0,0.067c0,0.001,0,0.002,0,0.003l0,0.018c0,0.002,0,0.003,0,0.005c0,0,0,0.001,0,0.002l0.00799999,0.045c0,0.003,0.001,0.007,0.002,0.01l0.011,0.063c0,0.003,0.001,0.005,0.001,0.00799999l0.011,0.062c0,0.004,0.001,0.009,0.002,0.013l0.011,0.061c0,0.004,0.001,0.007,0.002,0.011l0.004,0.021c0,0,0,0.001,0,0.002c0,0.002,0.001,0.004,0.002,0.006l0.014,0.037c0.001,0.005,0.002,0.009,0.005,0.013l0.022,0.06c0,0.003,0.002,0.007,0.004,0.01l0.024,0.064c0,0.002,0.001,0.004,0.002,0.006l0.034,0.09c0,0.001,0.001,0.003,0.002,0.004c0,0.001,0.001,0.002,0.002,0.003l0.028,0.046c0.001,0.002,0.002,0.004,0.003,0.006l0.04,0.065c0.001,0.003,0.003,0.006,0.005,0.009l0.006,0.009c0,0,0,0.001,0.001,0.002c0.001,0.001,0.002,0.003,0.003,0.004l0.046,0.052c0.002,0.005,0.006,0.00799999,0.01,0.012l0.049,0.055c0.002,0.002,0.004,0.004,0.006,0.006l0.007,0.005c0.003,0.004,0.00799999,0.00799999,0.013,0.01l0.0820001,0.063c0.003,0.004,0.007,0.007,0.012,0.009l0.012,0.01c0.001,0.001,0.002,0.001,0.004,0.002s0.002,0.001,0.003,0.002l0.119,0.057c0.001,0,0.001,0.001,0.002,0.001l0.145,0.069c0.003,0.002,0.006,0.003,0.01,0.005l0.0830002,0.04c0.001,0,0.003,0.001,0.004,0.002c-0.001,-0.001,0.002,0,0.004,0.001l0.387,0.0879998c0.003,0,0.005,0,0.009,0.001l0.462,0.01c0,0,0,0,0.001,0c0,0,0,0,0,0c0.002,0,0.004,0,0.006,0l0.457,-0.068c0,0,0.001,0,0.002,0c0.002,0,0.004,-0.001,0.006,-0.002l0.205,-0.069c0.004,-0.001,0.00799999,-0.002,0.011,-0.004l0.0760003,-0.026c0.001,0,0.003,-0.001,0.004,-0.001l0,0c0,0,0,0,0,0c0.001,0,0.002,0,0.002,-0.001l0.2,-0.113c0.003,-0.001,0.006,-0.003,0.009,-0.005l0.06,-0.034c0.001,-0.001,0.003,-0.002,0.005,-0.003l0,0c0,0,0.001,-0.001,0.002,-0.001l0.234,-0.2l0.01,-0.005l0.021,0.0740002c0,0.003,0.001,0.006,0.002,0.009l0.014,0.065c0,0.001,0,0.003,0.001,0.005l0.014,0.064c0,0.004,0.001,0.007,0.002,0.01l0.016,0.0730001c0,0,0,0.001,0,0.002l0.017,0.061c0,0.002,0.001,0.005,0.002,0.007l0.002,0.009c0,0.001,0.001,0.003,0.001,0.004c0.001,0.002,0.002,0.004,0.003,0.006l0.006,0.01c0.001,0.003,0.004,0.005,0.006,0.00799999c0,0,0,0.001,0,0c0,0,0,0,0,0c0.002,0.002,0.004,0.003,0.007,0.005l0.01,0.005c0.004,0.002,0.009,0.004,0.014,0.004l0,0c0,0,0,0,0,0c0,0,0,0,0,0l0,0c0,0,0,0,0.001,0c0.002,0,0.004,0,0.007,0l1.15,-0.001l0,0c0.001,0,0.003,0,0.005,0l0,0c0.004,0,0.009,-0.002,0.013,-0.004c0.005,-0.003,0.009,-0.007,0.012,-0.011c0,0,0,0,0,0c0.002,-0.004,0.004,-0.00799999,0.005,-0.013c0.001,-0.004,0.001,-0.009,0,-0.013c0,-0.002,-0.001,-0.005,-0.002,-0.007L13.909,13.381zM10.814,12.338l-0.001,-0.066c-0.001,-0.002,0,-0.004,0,-0.005l-0.001,-0.067c-0.001,0,0,-0.003,0,-0.003l0,-0.017l0.021,-0.115c0,-0.002,0.001,-0.004,0.001,-0.006l0.00799999,-0.041l0.062,-0.154l0.058,-0.0840002l0.0760003,-0.069l0.0879998,-0.053c0.003,-0.001,0.007,-0.003,0.009,-0.005l0.037,-0.022l0.147,-0.055l0.156,-0.03l0.408,-0.043c0.001,0,0.002,0,0.003,0l0.281,-0.049c0.001,0,0.003,-0.001,0.005,-0.001l0.271,-0.0820001c0.003,0,0.005,-0.001,0.007,-0.003l0.057,-0.028c0.002,-0.001,0.004,-0.002,0.006,-0.003c0,0,0,0,0,0c0.001,-0.001,0.002,-0.002,0.003,-0.003l0.039,-0.036l0,0.0820001c0,0.005,0.001,0.01,0.003,0.015c-0.002,0.004,-0.003,0.009,-0.003,0.015l0,0.217l-0.02,0.328l-0.059,0.305l-0.001,0.004c0,0,0,0.001,0,0.002l-0.012,0.04l-0.03,0.071l-0.013,0.019c-0.001,0.002,-0.003,0.004,-0.004,0.006l-0.025,0.037l-0.211,0.204l-0.0830002,0.053l-0.0910001,0.035l-0.0889999,0.013l-0.002,0c-0.004,0,-0.00799999,0.001,-0.012,0.002l-0.192,0.027l-0.433,-0.014l-0.059,-0.012c-0.004,-0.002,-0.00799999,-0.003,-0.013,-0.003l-0.059,-0.012l-0.11,-0.053c-0.003,-0.002,-0.006,-0.003,-0.009,-0.004l-0.103,-0.0850003l-0.055,-0.071l-0.017,-0.036c-0.001,-0.004,-0.003,-0.007,-0.005,-0.01l-0.016,-0.033L10.83,12.41c0,-0.003,-0.001,-0.006,-0.002,-0.009l-0.013,-0.056c0,-0.001,0,-0.001,0,-0.002C10.815,12.34,10.815,12.339,10.814,12.338zM11.75,11.441l-0.004,0c-0.001,0,-0.002,0,-0.003,0L11.75,11.441zM11.225,8.99402c0.001,0,0.002,0,0.003,0l-0.007,0L11.225,8.99402z"/>
    <path  fill="#FFFFFF" stroke-width="0" d="M17.378,8.93102C17.378,8.93102,17.378,8.93102,17.378,8.93102C17.379,8.93102,17.378,8.92901,17.378,8.93102c0,-0.001,0,-0.001,0,-0.001s0,0,0,0l0,0c0,0,0,0,0,0l0,0c0,0,0,0,0,0c0,0,0,0,0,0c0,0,0,0,0,0l0,0c0,0,0,0,0,0l0,0c0,0,0,0,0,0c0,0,0,0,0,0c0,0,0,0,0,0l0,0c0,0,0,0,0,0c-0.004,-0.005,-0.01,-0.01,-0.017,-0.013c0,0,0,0,0,0c0,0,0,0,0,0c0,0,0,0,0,0c-0.003,-0.001,-0.006,-0.001,-0.009,-0.002l-0.388,-0.022c-0.001,0,-0.002,0,-0.003,0l0,0c-0.002,0,-0.003,0,-0.005,0l-0.197,0.024c-0.002,0.001,-0.005,0.001,-0.00799999,0.001l-0.032,0.011c-0.002,0,-0.004,0.001,-0.007,0.002l-0.149,0.049c-0.003,0.001,-0.005,0.003,-0.00799999,0.004l-0.159,0.0910001c-0.001,0,-0.002,0.001,-0.004,0.002l-0.009,0.005c0,0,-0.001,0.001,-0.002,0.001l-0.204,0.134c-0.003,0.001,-0.005,0.003,-0.00799999,0.005l-0.04,0.026c0,0,-0.001,0.001,-0.002,0.002l-0.052,0.04c-0.003,0.002,-0.005,0.003,-0.007,0.006l-0.051,0.04c-0.001,0.001,-0.003,0.002,-0.004,0.004c-0.001,0.001,-0.001,0.001,-0.002,0.002l-0.02,0.024c-0.003,0.003,-0.006,0.006,-0.00799999,0.009l-0.053,0.064c-0.002,0.002,-0.004,0.004,-0.005,0.006l-0.002,0.003c0,0,-0.001,0.001,-0.001,0.002c0,0,0,0.001,-0.001,0.002l-0.0889999,0.136c0,0,-0.001,0.001,-0.001,0.001l-0.045,0.069c-0.001,0.001,-0.002,0.003,-0.003,0.004l-0.055,0.0830002c0,0,0,0,0,0l-0.036,0.053c-0.002,0.002,-0.003,0.005,-0.005,0.00799999l-0.01,0.015l-0.013,0.004L15.664,9.03701c0,-0.001,0,-0.003,0,-0.005c0,-0.003,-0.001,-0.006,-0.002,-0.009c-0.003,-0.00799999,-0.009,-0.015,-0.017,-0.019l0,0c0,0,0,0,0,0c0,0,0,0,0,0c0,0,-0.001,0,-0.001,-0.001c0,0,0,0,0,0C15.626,9.00101,15.625,8.99698,15.614,9c-0.001,0,-0.002,0,-0.003,0l-1.093,0.195c-0.003,0.001,-0.006,0.002,-0.007,0.002c-0.007,0.003,-0.014,0.00799999,-0.018,0.014c0,0,0,0,0,0c0,0,0,0,0,0l0,0c-0.001,0.002,-0.002,0.004,-0.003,0.007c0,0,0,0,0,0c0,0,0,0,0,0s0,0,0,0c-0.001,0.003,-0.001,0.007,-0.001,0.01l0,0.007c0,0.002,0,0.004,0,0.006s0,0.004,0,0.006l0,0.062c0,0.001,0,0.003,0,0.005s0,0.003,0,0.005l0,0.063c0,0.001,0,0.002,0,0.004s0,0.002,0,0.004l0,0.062c0,0.002,0,0.004,0,0.006c0,0.002,0,0.004,0,0.006l0,0.06c0,0.002,0,0.004,0,0.006s0,0.004,0,0.005l0,0.061c0,0.001,0,0.003,0,0.005s0,0.003,0,0.005l0,0.063c0,0.001,0,0.002,0,0.004s0,0.002,0,0.004l0,0.061c0,0.002,0,0.004,0,0.006s0,0.004,0,0.006l0,0.06c0,0.002,0,0.004,0,0.006s0,0.004,0,0.005l0,0.062c0,0.001,0,0.003,0,0.005s0,0.003,0,0.005l0,0.063c0,0.001,0,0.002,0,0.004s0,0.002,0,0.003l0,0.067c0,0.001,0,0.003,0,0.004l0,0.065c0,0.001,0,0.003,0,0.005s0,0.004,0,0.005l0,0.061c0,0.001,0,0.003,0,0.005s0,0.003,0,0.004l0,0.064c0,0.001,0,0.002,0,0.003c0,0.001,0,0.002,0,0.003l0,0.066c0,0.001,0,0.003,0,0.004l0,0.065c0,0.001,0,0.003,0,0.005s0,0.004,0,0.005l0,0.062c0,0.002,0,0.003,0,0.005s0,0.003,0,0.004l0,0.061c0,0.002,-0.001,0.004,-0.001,0.007s0,0.004,0.001,0.007l0,0.059c0,0.002,0,0.004,0,0.006s0,0.004,0,0.006l0,0.06c0,0.001,0,0.003,0,0.005s0,0.003,0,0.005l0,0.062c0,0.001,0,0.003,0,0.004s0,0.003,0,0.004l0,0.063c-0.001,0.002,-0.001,0.005,0,0.007l0,0.062c0,0.002,0,0.004,0,0.006s0,0.004,0,0.006l0,0.061c0,0.002,0,0.003,0,0.005s0,0.003,0,0.005l0,0.062c0,0.001,0,0.003,0,0.004s0,0.003,0,0.004l0,0.064c-0.001,0.003,-0.001,0.004,0,0.006l0,0.062c0,0.002,0,0.004,0,0.006s0,0.004,0,0.006l0,0.061c0,0.002,0,0.003,0,0.005s0,0.003,0,0.005l0,0.062c0,0.001,0,0.003,0,0.004s0,0.003,0,0.004l0,0.065c-0.001,0.002,-0.001,0.004,0,0.006l0,0.069l0,0c0,0,0,0,0,0l0,0.066c0,0.002,0,0.003,0,0.005s0,0.003,0,0.005l0,0.063c0,0.001,0,0.003,0,0.004s0,0.003,0,0.004l0,0.062c0,0.002,-0.001,0.004,-0.001,0.007s0,0.004,0,0.006l0,0.059c0,0.002,0,0.004,0,0.006s0,0.004,0,0.006l0,0.061c0,0.002,0,0.003,0,0.005s0,0.003,0,0.005l0,0.062c0,0.001,0,0.003,0,0.004s0,0.003,0,0.004l0,0.065c-0.001,0.002,0,0.004,0,0.006l0,0.063c0,0.002,0,0.004,0,0.006s0,0.004,0,0.006l0,0.062c0,0.001,0,0.003,0,0.005c0,0.001,0,0.003,0,0.005l0,0.063c0,0.001,0,0.002,0,0.004s0,0.002,0,0.004l0,0.064c0,0.002,0,0.004,0,0.005l0,0.064c0,0.002,0,0.004,0,0.006s0,0.004,0,0.006l0,0.061c0,0.001,0,0.003,0,0.005s0,0.003,0,0.005l0,0.06c0,0.002,-0.001,0.005,-0.001,0.007s0,0.005,0.001,0.007l0,0.059c0,0.002,0,0.004,0,0.006c0,0.002,0,0.004,0,0.006l0,0.06c0,0.002,0,0.004,0,0.006s0,0.004,0,0.005l0,0.062c0,0.001,0,0.003,0,0.005s0,0.003,0,0.005l0,0.062c0,0.001,0,0.002,0,0.004s0,0.002,0,0.004l0,0.062c0,0.002,0,0.004,0,0.006s0,0.004,0,0.006l0,0.059c0,0.002,0,0.004,0,0.006s0,0.004,0,0.005l0,0.062c0,0.001,0,0.003,0,0.005s0,0.003,0,0.005l0,0.063c0,0.001,0,0.002,0,0.004c0,0.001,0,0.002,0,0.003l0,0.062c0,0.002,0,0.004,0,0.006s0,0.004,0,0.006l0,0.061c0,0.001,0,0.003,0,0.005s0,0.004,0,0.005l0,0.062c0,0.002,0,0.003,0,0.005s0,0.003,0,0.004l0,0.063c0,0.001,0,0.002,0,0.003c0,0.001,0,0.002,0,0.003l0,0.067c0,0.001,0,0.003,0,0.004l0,0.026l0,0c0,0.019,0.016,0.035,0.034,0.036c0,0,0,0,0,0c0,0,0,0,0,0c0,0,0,0,0,0c0,0,0,0,0,0l1.181,0c0.02,0,0.036,-0.016,0.036,-0.036l0,-2.216l0.003,-0.038c0,-0.002,0.001,-0.004,0.001,-0.007l0,0l0.005,-0.062c0,-0.002,0.001,-0.005,0.001,-0.00799999c0,-0.001,0,-0.001,0,-0.002l0.005,-0.062c0.001,-0.002,0.001,-0.006,0.001,-0.009c0,-0.001,0,-0.002,0,-0.003l0.004,-0.048l0.002,-0.01c0,-0.002,0.001,-0.003,0.001,-0.005l0.017,-0.067c0,-0.001,0,-0.003,0,-0.004l0.017,-0.069c0,-0.001,0,-0.001,0,-0.002l0.016,-0.066c0.001,-0.002,0.001,-0.005,0.002,-0.007l0.059,-0.128c0.002,-0.003,0.003,-0.007,0.004,-0.01l0.039,-0.0859997l0.034,-0.045c0.001,-0.001,0.001,-0.002,0.002,-0.003l0.113,-0.147l0.188,-0.159l0.071,-0.039c0.003,-0.001,0.006,-0.003,0.009,-0.005l0.056,-0.031l0.099,-0.035c0.003,0,0.006,-0.001,0.009,-0.003l0.039,-0.014l0.153,-0.025l0.433,0l0.169,0.034c0,0,0,0,0.001,0l0.042,0.007c0.001,0,0.002,0,0.003,0c0.002,0,0.003,0,0.005,0l0.006,0c0.02,0,0.036,-0.016,0.036,-0.036L17.384,8.94499C17.381,8.94002,17.38,8.93599,17.378,8.93102L17.378,8.93102z"/>
    <path  fill="#FFFFFF" stroke-width="0" d="M22.276,13.456C22.276,13.456,22.276,13.456,22.276,13.456C22.276,13.456,22.276,13.456,22.276,13.456c-0.001,-0.004,-0.003,-0.00799999,-0.005,-0.012l-0.0750002,-0.112c-0.001,-0.002,-0.002,-0.004,-0.004,-0.005l-0.141,-0.212c0,0,-0.001,-0.001,-0.001,-0.002l-0.0940003,-0.141c-0.001,-0.002,-0.002,-0.004,-0.004,-0.006l-0.043,-0.064c-0.001,-0.003,-0.004,-0.006,-0.006,-0.009l-0.0920002,-0.138c0,-0.001,-0.001,-0.002,-0.002,-0.003l-0.189,-0.283c-0.001,-0.002,-0.002,-0.004,-0.004,-0.006l-0.045,-0.067c-0.001,-0.001,-0.001,-0.002,-0.002,-0.003l-0.0930002,-0.14c-0.001,-0.001,-0.001,-0.002,-0.002,-0.003l-0.189,-0.283c-0.001,-0.002,-0.002,-0.004,-0.004,-0.006l-0.045,-0.067c-0.001,-0.001,-0.001,-0.002,-0.002,-0.004l-0.0930002,-0.139c-0.001,-0.001,-0.002,-0.003,-0.003,-0.004l-0.188,-0.283c-0.001,-0.002,-0.003,-0.004,-0.005,-0.007l-0.042,-0.063c-0.001,-0.004,-0.004,-0.007,-0.006,-0.01l-0.042,-0.063c-0.001,-0.003,-0.003,-0.006,-0.006,-0.00799999l-0.043,-0.065c0,-0.001,-0.002,-0.003,-0.003,-0.005l-0.043,-0.065c-0.001,-0.003,-0.003,-0.006,-0.006,-0.009l-0.139,-0.208c-0.001,-0.002,-0.003,-0.005,-0.005,-0.007l-0.044,-0.066c-0.001,-0.002,-0.002,-0.004,-0.003,-0.005l-0.043,-0.065c-0.001,-0.003,-0.003,-0.006,-0.006,-0.009l-0.043,-0.064c-0.001,-0.002,-0.002,-0.004,-0.003,-0.005l-0.046,-0.069c0,0,0,0,0,-0.001l-0.017,-0.024c0,0,0.001,-0.001,0.001,-0.001l0.367,-0.359c0,0,0.001,-0.001,0.001,-0.001l0.143,-0.14c0.002,-0.001,0.004,-0.003,0.006,-0.005l0.068,-0.067c0.002,-0.001,0.003,-0.003,0.005,-0.004l0.07,-0.068c0.001,-0.001,0.002,-0.002,0.003,-0.003l0.29,-0.284c0.002,-0.001,0.003,-0.003,0.005,-0.004l0.07,-0.068c0.001,-0.001,0.002,-0.002,0.003,-0.003l0.066,-0.065c0.004,-0.002,0.007,-0.006,0.01,-0.01l0.065,-0.063c0.002,-0.002,0.005,-0.004,0.007,-0.006l0.067,-0.066c0.002,-0.001,0.004,-0.003,0.006,-0.006l0.068,-0.067c0.002,-0.001,0.003,-0.003,0.005,-0.004l0.07,-0.068c0.001,-0.001,0.002,-0.002,0.003,-0.003l0.066,-0.065c0.004,-0.002,0.007,-0.006,0.01,-0.01l0.065,-0.063c0.002,-0.002,0.005,-0.004,0.007,-0.006l0.063,-0.062c0.003,-0.003,0.006,-0.007,0.00799999,-0.011c0,0,0,0,0,0c0,0,0,0,0,0c0.002,-0.004,0.003,-0.009,0.003,-0.014c0,-0.012,-0.006,-0.022,-0.015,-0.029c-0.002,-0.001,-0.003,-0.002,-0.005,-0.003c0,0,0,0,0,0l0,0l0,0c0,0,0,0,0,0C22,9.00101,21.997,9,21.993,9c0,0,0,0,0,0c0,0,0,0,0,0c-0.001,0,-0.002,0,-0.003,0c0,0,0,0,0,0l-1.324,0l0,0c-0.009,0,-0.019,0.003,-0.025,0.011l-1.552,1.552L19.089,7.32398c0,-0.003,0,-0.005,-0.001,-0.00799999c-0.001,-0.005,-0.003,-0.01,-0.006,-0.014c-0.003,-0.004,-0.007,-0.007,-0.011,-0.01c0,0,0,0,0,0c-0.004,-0.002,-0.009,-0.003,-0.014,-0.004c0,0,0,0,0,0c-0.005,-0.002,-0.007,0,-0.01,0c0,0,0,0,0,0c-0.004,0.001,-0.007,0.002,-0.011,0.004l-0.336,0.192c-0.002,0.001,-0.005,0.002,-0.007,0.004l-0.12,0.068c-0.002,0.001,-0.004,0.002,-0.006,0.003l-0.116,0.066c-0.005,0.001,-0.009,0.004,-0.013,0.007L18.319,7.69997c-0.003,0.001,-0.007,0.003,-0.01,0.005l-0.117,0.067c-0.003,0.001,-0.006,0.003,-0.009,0.005l-0.12,0.068c-0.001,0,-0.003,0.001,-0.004,0.002l-0.123,0.07c-0.001,0,-0.002,0.001,-0.003,0.002l-0.0730001,0.042c-0.001,0.001,-0.003,0.002,-0.004,0.003c-0.004,0.003,-0.007,0.007,-0.01,0.011s-0.004,0.009,-0.004,0.014c0,0.001,0,0.002,0,0.004l0,5.478c0,0.009,0.003,0.018,0.009,0.025l0.014,0.016c0.004,0.004,0.01,0.00799999,0.016,0.01c0,0,0,0,0,0c0,0,0.001,0,0,0l0,0c0.002,0,0.006,0.001,0.01,0.001l0,0l1.173,0c0.02,0,0.036,-0.016,0.036,-0.036l0,-1.534l0.09,-0.0869998c0.002,-0.002,0.004,-0.004,0.006,-0.006l0.07,-0.068c0.001,-0.001,0.002,-0.002,0.003,-0.003l0.069,-0.067c0.002,-0.002,0.004,-0.004,0.006,-0.006l0.07,-0.067c0.001,-0.001,0.002,-0.002,0.003,-0.003l0.151,-0.147l1.088,1.794c0.001,0.003,0.003,0.005,0.005,0.00799999l0.0840002,0.138c0,0.001,0.001,0.002,0.002,0.003l0.021,0.035c0,0,0,0,0,0.001c0,0,0,0,0,0c0.003,0.005,0.00799999,0.009,0.013,0.012l0,0l0,0c0.003,0.001,0.006,0.002,0.01,0.003c0,0,0,0,0,0c0.002,0,0.005,-0.001,0.007,0l1.439,0.007c0.003,0,0.006,0,0.00799999,-0.001l0,0c0,0,0,0,0,0c0,0,0,0,0,0s0,0,0,0c0.005,-0.001,0.009,-0.003,0.013,-0.007l0,0c0.003,-0.002,0.006,-0.006,0.00799999,-0.009l0,0c0.003,-0.005,0.005,-0.011,0.005,-0.018C22.277,13.462,22.277,13.459,22.276,13.456L22.276,13.456z"/>
    <path  fill="#FFFFFF" stroke-width="0" d="M24.785,7.30202c0,0,-0.001,0,-0.002,0l0,0l-0.438,0c0,0,0,0,0,0c-0.001,0,-0.003,0.001,-0.004,0c-0.001,0,-0.002,0,-0.003,0L24.13,7.33802c-0.001,0,-0.002,0,-0.002,0l-0.0769997,0.013c-0.003,0.001,-0.005,0.001,-0.00799999,0.002l-0.27,0.103c-0.004,0,-0.005,0.002,-0.00799999,0.004l-0.245,0.155c-0.002,0.001,-0.002,0.003,-0.003,0.002c-0.001,0.001,-0.002,0.002,-0.003,0.003l-0.01,0.009C23.5,7.63301,23.498,7.63603,23.495,7.63999l-0.069,0.065c-0.001,0.001,-0.003,0.003,-0.005,0.005l-0.118,0.112c-0.001,0,-0.002,0.001,-0.002,0.002c-0.001,0.001,-0.002,0.002,-0.003,0.004l-0.069,0.0979999c-0.002,0.002,-0.003,0.004,-0.005,0.007l-0.022,0.031c0,0,-0.001,0.001,-0.001,0.002c0,0,0,0,0,0c0,0.001,-0.001,0.002,-0.001,0.003l-0.014,0.028c-0.003,0.004,-0.006,0.009,-0.007,0.015L23.15,8.07502c-0.001,0.002,-0.002,0.005,-0.003,0.00799999l-0.017,0.037c0,0,-0.001,0.001,-0.001,0.002c-0.001,0.002,-0.001,0.003,-0.002,0.005L23.12,8.15098c-0.001,0.003,-0.002,0.007,-0.002,0.01l-0.016,0.061C23.1,8.226,23.099,8.23003,23.098,8.235l-0.013,0.051c0,0.001,0,0.002,-0.001,0.004c0,0.001,0,0.002,0,0.003l0,0.00799999c0,0.002,-0.001,0.005,-0.001,0.00799999c0,0,0,0.001,0,0.002l-0.005,0.061c-0.001,0.003,-0.001,0.006,-0.001,0.01c0,0.001,0,0.002,0,0.004l-0.005,0.06C23.07,8.44798,23.07,8.451,23.07,8.45402c0,0.001,0,0.002,0,0.003l-0.005,0.062c0,0.002,-0.001,0.005,-0.001,0.00799999c0,0,0,0.001,0,0.002L23.059,8.59003c0,0.002,-0.001,0.005,-0.001,0.007c0,0,0,0.001,0,0.001l-0.005,0.065c0,0.001,0,0.003,0,0.005l-0.011,0.136c0,0.002,-0.001,0.005,-0.001,0.00799999c0,0,0,0.001,0,0.002l-0.005,0.064c0,0.002,0,0.004,0,0.006l0,0l0,0.009c0,0.001,0,0.002,0,0.004l0,0.0949997L22.68,8.99201c-0.01,0,-0.02,0.004,-0.026,0.011l-0.067,0.067c-0.003,0.002,-0.005,0.004,-0.007,0.007l-0.065,0.065c-0.003,0.002,-0.005,0.004,-0.007,0.007l-0.063,0.063c-0.004,0.002,-0.007,0.006,-0.01,0.01l-0.062,0.062c-0.004,0.002,-0.007,0.006,-0.01,0.01l-0.063,0.063c-0.003,0.002,-0.005,0.004,-0.007,0.007l-0.068,0.068c0,0,0,0,-0.001,0.001l-0.071,0.071c0,0,0,0,-0.001,0l-0.067,0.068c-0.003,0.002,-0.005,0.004,-0.007,0.007l-0.065,0.065c-0.003,0.002,-0.005,0.004,-0.007,0.007L21.94,9.71899c-0.004,0.002,-0.007,0.006,-0.01,0.01L21.899,9.76003c-0.002,0.002,-0.003,0.003,-0.005,0.006c0,0,0,0,0,0l0,0c0,0,0,0,0,0l0,0c0,0,0,0,0,0c0,0,0,0,0,0c0,0,0,0,0,0s0,0,0,0c-0.003,0.005,-0.004,0.01,-0.004,0.017c0,0.006,0.001,0.012,0.004,0.017c0,0,0,0,0,0c0,0,0,0,0,0l0,0c0,0,0,0,0,0l0,0c0,0,0,0,0,0c0,0,0,0,0,0c0,0,0,0,0,0c0,0,0,0,0,0c0,0,0,0,0,0l0,0c0,0,0,0,0,0c0.001,0.002,0.003,0.004,0.006,0.006c0.003,0.002,0.006,0.004,0.009,0.005c0,0,0,0,0,0c0,0,0,0,0,0c0,0,0,0,0,0l0,0c0,0,0,0,0,0c0,0,0,0,0,0l0,0c0,0,0,0,0,0s0,0,0,0c0,0,0,0,0,0l0,0c0,0,0,0,0,0c0,0,0,0,0,0s0,0,0,0s0,0,0,0c0.002,0,0.004,0,0.006,0l0,0l1.094,0.005l0,3.652c0,0.02,0.016,0.036,0.036,0.036l1.181,0c0.02,0,0.036,-0.016,0.036,-0.036L24.262,9.82202l0.814003,0c0.02,0,0.036,-0.016,0.036,-0.036L25.112,9.03002c0,-0.02,-0.016,-0.036,-0.036,-0.036l-0.806998,0L24.269,8.63597l0.004,-0.028c0.001,-0.003,0.001,-0.007,0.001,-0.01l0,0l0.013,-0.0920002l0.013,-0.032c0.002,-0.003,0.003,-0.006,0.004,-0.009l0.032,-0.0769997l0.052,-0.066l0.068,-0.049l0.0799999,-0.028l0.255,-0.023l0.259,0.023l0.0779998,0.00799999c0.001,0,0.003,0,0.004,0l0.022,0c0.02,0,0.036,-0.016,0.036,-0.036L25.19,7.35998c0,-0.02,-0.016,-0.036,-0.036,-0.036L24.785,7.30202z"/>
    <path  fill="#FFFFFF" stroke-width="0" d="M28.476,8.99402c-0.02,0,-0.036,0.016,-0.036,0.036l0,2.231l-0.015,0.355c0,0.001,0,0.003,0,0.005c0,0,0,0,0,0l-0.006,0.108l-0.064,0.342l-0.059,0.155l-0.0930002,0.138l-0.019,0.017c-0.003,0.002,-0.005,0.004,-0.007,0.007l-0.0959998,0.0879998l-0.145,0.0820001l-0.196,0.059l-0.204,0.02l-0.204,-0.023l-0.195,-0.062l-0.045,-0.025c-0.001,-0.001,-0.004,-0.002,-0.006,-0.003l-0.061,-0.035l-0.033,-0.029c-0.002,-0.002,-0.004,-0.004,-0.007,-0.006l-0.057,-0.05l-0.007,-0.009c-0.001,-0.003,-0.004,-0.006,-0.006,-0.009l-0.064,-0.0859997l-0.0969998,-0.217l-0.006,-0.036c0,0,0,-0.001,0,-0.002l-0.012,-0.067c0,-0.002,-0.001,-0.005,-0.001,-0.00799999l-0.011,-0.063c0,-0.003,-0.001,-0.007,-0.002,-0.011l-0.009,-0.049L26.713,9.01598c0,-0.02,-0.016,-0.036,-0.036,-0.036l-1.173,0c-0.02,0,-0.036,0.016,-0.036,0.036l0,3.06c0,0.001,0,0.002,0,0.004l0.004,0.046c0,0,0,0,0,0.001c0,0.002,0,0.005,0.001,0.007l0.005,0.062c0,0.001,0,0.001,0,0.002c0,0.003,0,0.006,0.001,0.009l0.005,0.063c0,0.001,0,0.003,0,0.005l0.01,0.114c0,0.002,0.001,0.005,0.001,0.007l0.007,0.023c0,0.002,0.001,0.004,0.001,0.006l0.019,0.068c0,0.001,0,0.002,0.001,0.003l0.019,0.065c0,0.004,0.001,0.007,0.003,0.01l0.018,0.063c0,0.003,0.001,0.006,0.002,0.009l0.015,0.053c0,0,0,0.001,0,0.001c0,0,0,0,0,0c0,0.002,0.001,0.004,0.002,0.006l0.003,0.007c0.001,0.005,0.003,0.009,0.006,0.013l0.03,0.062c0,0.002,0.002,0.005,0.003,0.007l0.031,0.063c0.001,0.004,0.003,0.00799999,0.005,0.011l0.058,0.118c0.001,0.002,0.002,0.004,0.003,0.005c0,0,0,0,0,0c0,0,0,0,0,0.001l0.121,0.161c0.001,0.001,0.002,0.003,0.004,0.005l0.047,0.063c0.002,0.004,0.005,0.009,0.009,0.012l0.005,0.007c0.002,0.002,0.004,0.004,0.006,0.006l0.058,0.052c0.003,0.004,0.007,0.00799999,0.012,0.01l0.001,0.001c0,0,0.001,0.001,0.002,0.002c-0.001,0,0.002,0.002,0.004,0.003l0.106,0.062c0.003,0.002,0.006,0.004,0.009,0.005l0.114,0.067c0.003,0.002,0.006,0.004,0.01,0.006l0.015,0.009c0.002,0.001,0.004,0.003,0.007,0.003l0.278,0.0959998c0.001,0,0.002,0.001,0.004,0.001c0,0,0,0,0,0c0.001,0,0.002,0,0.003,0l0.292,0.043c0,0,0,0,0.001,0s0,0,0,0c0.001,0,0.002,0,0.004,0c0,0,0.001,0,0.001,0l0.422,-0.009c0.001,-0.001,0.004,0,0.005,0l0.418,-0.063c0,0,0,0,0,0c0.001,0,0.003,0,0.006,-0.001l0.072,-0.023c0.002,0,0.004,-0.001,0.006,-0.002l0.069,-0.033c0.002,-0.001,0.006,-0.004,0.005,-0.003c0,0,0.001,0,0.001,0l0.226,-0.162c0.005,-0.002,0.01,-0.005,0.013,-0.009l0.023,-0.017c0.003,-0.004,0.003,-0.003,0.005,-0.004l0.048,-0.046c0.003,-0.002,0.006,-0.004,0.00799999,-0.007l0.069,-0.066c0.002,-0.001,0.004,-0.003,0.006,-0.006l0.102,-0.0959998c0.004,-0.004,0.003,-0.003,0.004,-0.005l0.143,-0.181l0,0.583c0,0.02,0.017,0.036,0.036,0.036l1.138,0c0.02,0,0.036,-0.016,0.036,-0.036L29.695,9.03002c0,-0.02,-0.017,-0.036,-0.036,-0.036L28.476,8.99402z"/>
    <path  fill="#FFFFFF" stroke-width="0" d="M34.542,10.134l-0.068,-0.312c0,-0.002,-0.001,-0.004,-0.002,-0.006L34.469,9.81c0,-0.001,-0.001,-0.002,-0.001,-0.003L34.443,9.74002c-0.001,-0.002,-0.002,-0.005,-0.003,-0.007l-0.044,-0.116c-0.001,-0.001,-0.002,-0.003,-0.003,-0.005c0,0,0,0,0,-0.001L34.38,9.58997c-0.001,-0.002,-0.002,-0.004,-0.003,-0.006l-0.024,-0.041c-0.01,-0.017,-0.02,-0.033,-0.029,-0.049l-0.04,-0.067c-0.001,-0.001,-0.002,-0.003,-0.003,-0.004c0,0,-0.001,-0.001,-0.001,-0.002l-0.103,-0.12c-0.003,-0.005,-0.007,-0.009,-0.011,-0.012l-0.025,-0.029c0,-0.001,-0.001,-0.001,-0.001,-0.002c-0.002,-0.001,-0.003,-0.003,-0.005,-0.004l-0.04,-0.032c-0.003,-0.003,-0.007,-0.006,-0.011,-0.009l-0.081,-0.064C34,9.14602,33.999,9.14501,33.995,9.14299l-0.081,-0.064c-0.001,-0.001,-0.002,-0.001,-0.003,-0.002c-0.002,-0.001,-0.003,-0.002,-0.005,-0.003l-0.0869998,-0.041c-0.027,-0.014,-0.054,-0.026,-0.0820001,-0.038l-0.0859997,-0.04c-0.001,0,-0.001,-0.001,-0.002,-0.001l0,0c-0.001,0,-0.001,0,-0.001,0c-0.002,0,-0.004,-0.001,-0.006,-0.002l-0.276,-0.058c-0.001,0,-0.001,0,-0.002,0c-0.002,0,-0.004,0,-0.006,0l-0.567,-0.014L32.79,8.87998c-0.001,0,-0.001,0,-0.001,0l0,0l-0.001,0l0,0c-0.001,0,-0.002,0,-0.004,0l-0.297,0.043c-0.003,0,-0.004,0.001,-0.01,0.002l-0.0920002,0.035c-0.033,0.011,-0.064,0.023,-0.0969998,0.036l-0.0920002,0.034c-0.006,0.002,-0.007,0.003,-0.00799999,0.004l-0.254,0.16l-0.001,0.001c-0.001,0,-0.002,0.001,-0.003,0.001l0,0c0,0,-0.001,0,-0.002,0.001l-0.13,0.118c-0.003,0.003,-0.004,0.003,-0.005,0.004l-0.112,0.133c0,0.001,-0.001,0.001,-0.002,0.002l-0.0789998,0.107l-0.018,0.022l0,0L31.57,9.60098l-0.012,0.007L31.558,9.02203c0,-0.02,-0.017,-0.036,-0.036,-0.036l-1.145,0c-0.02,0,-0.036,0.016,-0.036,0.036l0,4.457c0,0.02,0.017,0.036,0.036,0.036l1.195,0c0.02,0,0.036,-0.016,0.036,-0.036l0,-2.463l0,-0.191l0,-0.003c0.003,-0.145,0.031,-0.287,0.081,-0.422l0.015,-0.03c0.053,-0.125,0.131,-0.242,0.237,-0.334c0.054,-0.046,0.115,-0.081,0.18,-0.109c0.003,-0.001,0.005,-0.002,0.00799999,-0.003l0.036,-0.015c0.067,-0.024,0.137,-0.041,0.208,-0.044l0,0l0.002,0l0.312,-0.014l0.09,0.004l0.0850003,0.022l0.0910001,0.044c0.004,0.003,0.009,0.006,0.015,0.007l0.019,0.009l0.06,0.05c0.003,0.004,0.007,0.007,0.012,0.01l0.033,0.028l0.023,0.029c0.002,0.003,0.004,0.007,0.007,0.009l0.047,0.061c0.002,0.005,0.006,0.009,0.009,0.012l0.001,0.001c0.045,0.0760003,0.0760003,0.158,0.103,0.242l0.02,0.069c0.021,0.0820001,0.033,0.166,0.034,0.25l0.002,2.75c0,0.02,0.017,0.036,0.036,0.036l1.159,0c0.02,0,0.036,-0.016,0.036,-0.036l0,-2.987l0,0c0,-0.001,0,-0.001,0,-0.003l-0.025,-0.32C34.542,10.138,34.542,10.136,34.542,10.134zM32.534,9.78602c-0.001,0,-0.003,0,-0.004,0l0.016,0L32.534,9.78602z"/>
    <path  fill="#FFFFFF" stroke-width="0" d="M40.255,11.723c-0.002,0,-0.004,0,-0.006,0l-0.001,0c0,0,0,0,0,0c-0.007,0.001,-0.013,0.004,-0.019,0.009c0,0,0,0,0,0c-0.002,0.002,-0.005,0.005,-0.006,0.00799999c0,0,0,0,0,0c0,0,0,0,-0.001,0c-0.002,0.004,-0.003,0.00799999,-0.004,0.012l-0.011,0.0730001c-0.001,0.004,-0.002,0.007,-0.002,0.011l-0.017,0.107l-0.006,0.019c-0.002,0.003,-0.004,0.007,-0.004,0.012l-0.045,0.132c-0.002,0.004,-0.004,0.00799999,-0.005,0.013l-0.0920002,0.171l-0.103,0.123l-0.125,0.099l-0.019,0.009c-0.005,0.001,-0.01,0.004,-0.014,0.007l-0.118,0.059L39.5,12.638l-0.166,0.021l-0.229,-0.011l-0.22,-0.051l-0.201,-0.0940003l-0.14,-0.112c-0.003,-0.003,-0.006,-0.005,-0.01,-0.00799999l-0.022,-0.018l-0.0859997,-0.112c-0.002,-0.002,-0.004,-0.004,-0.005,-0.006l-0.044,-0.057l-0.0889999,-0.204l-0.0979999,-0.431l-0.037,-0.443l0.022,-0.275c0.001,-0.002,0.001,-0.004,0.001,-0.006l0.003,-0.042l0.063,-0.229c0.002,-0.004,0.003,-0.00799999,0.004,-0.013l0.017,-0.062c0.001,-0.002,0.002,-0.005,0.002,-0.007l0.145,-0.292l0.0910001,-0.122c0.002,-0.002,0.003,-0.004,0.005,-0.006l0.048,-0.065c0.003,-0.002,0.006,-0.006,0.00799999,-0.009l0.042,-0.056l0.0879998,-0.0740002c0.003,-0.002,0.006,-0.004,0.009,-0.007l0.119,-0.054l0.232,-0.051l0.239,-0.019l0.234,0.025l0.226,0.0730001l0.139,0.0840002l0.014,0.012c0.002,0.003,0.005,0.006,0.00799999,0.00799999l0.065,0.063c0.002,0.004,0.006,0.007,0.01,0.01l0.021,0.02l0.024,0.038c0.001,0.002,0.002,0.004,0.004,0.006l0.042,0.066c0.001,0.002,0.002,0.004,0.004,0.006l0.014,0.021l0.013,0.035c0.001,0.003,0.002,0.007,0.003,0.009l0.023,0.064c0.001,0.003,0.002,0.005,0.003,0.00799999l0.014,0.037l0.002,0.02c0,0.002,0,0.003,0.001,0.005l0.007,0.064c0,0,0,0.001,0,0.002c0,0.003,0.001,0.007,0.002,0.01l0.007,0.064l0,0.005c0,0.02,0.017,0.036,0.036,0.036l1.188,0c0.007,0,0.014,-0.002,0.019,-0.005c0.001,0,0.001,0,0.001,0c0.002,-0.001,0.004,-0.003,0.006,-0.005c0.005,-0.005,0.00799999,-0.011,0.01,-0.017c0,0,0,0,0,0c0.001,-0.004,0.001,-0.00799999,0.001,-0.012c0,-0.001,-0.001,-0.002,-0.001,-0.003L41.4,10.321c-0.001,-0.002,-0.001,-0.004,-0.001,-0.006l-0.037,-0.187c0,-0.001,0,-0.002,0,-0.003c-0.001,-0.001,-0.001,-0.003,-0.002,-0.004l-0.062,-0.167c0,-0.001,-0.001,-0.002,-0.001,-0.003l-0.051,-0.136c0,-0.005,-0.002,-0.01,-0.005,-0.014L41.24,9.79603c-0.001,-0.001,-0.001,-0.002,-0.002,-0.003c0,-0.001,-0.001,-0.003,-0.002,-0.004l-0.03,-0.051c-0.002,-0.005,-0.005,-0.01,-0.00799999,-0.014L41.117,9.58997c-0.001,-0.002,-0.002,-0.004,-0.003,-0.006l-0.041,-0.068c0,0,0,0,-0.001,-0.001l-0.017,-0.028c0,0,-0.001,-0.001,-0.001,-0.001c0,0,0,0,0,0c-0.002,-0.002,-0.003,-0.004,-0.005,-0.005l-0.241,-0.255c0,0,-0.001,0,-0.001,-0.001c-0.002,-0.002,-0.004,-0.003,-0.006,-0.004c-0.003,-0.003,-0.006,-0.005,-0.01,-0.007l-0.204,-0.138c-0.002,-0.002,-0.005,-0.004,-0.007,-0.005l-0.07,-0.047c-0.002,-0.003,-0.007,-0.004,-0.00799999,-0.004l-0.327,-0.129c-0.001,0,-0.002,-0.001,-0.004,-0.001c-0.001,0,-0.002,0,-0.002,0L39.77,8.79602c-0.001,0,-0.003,0,-0.004,0l-0.129,-0.017c-0.003,0,-0.005,-0.001,-0.00799999,-0.001l-0.269,-0.035c0,0,0,0,-0.001,0c-0.002,-0.001,-0.005,0,-0.005,0l-0.437,0.006c-0.002,0,-0.004,0,-0.007,0l0,0l-0.001,0l-0.13,0.029c-0.002,0,-0.004,0,-0.006,0.001l-0.291,0.064c-0.002,0,-0.003,0.001,-0.009,0.002l-0.013,0.006c-0.001,0,-0.002,0.001,-0.003,0.001l-0.376,0.165c-0.001,0,-0.002,0.001,-0.003,0.001c0,0,0,0,-0.001,0c-0.001,0.001,-0.002,0.002,-0.004,0.002L38.008,9.06998C38.005,9.07099,38.003,9.07301,38,9.07502l-0.0959998,0.066c-0.003,0.002,-0.007,0.004,-0.01,0.007l-0.0910001,0.063c-0.006,0.002,-0.011,0.005,-0.014,0.01l-0.068,0.047c0,0,-0.001,0,-0.001,0.001c0.001,0.003,-0.004,0.003,-0.005,0.004l-0.016,0.016c-0.002,0.002,-0.005,0.004,-0.007,0.007l-0.065,0.067c-0.001,0.001,-0.002,0.002,-0.003,0.003L37.417,9.58003c-0.001,0.002,-0.003,0.005,-0.003,0.004c-0.001,0,-0.002,0.001,-0.002,0.002L37.271,9.79999c0,0.001,-0.001,0.002,-0.002,0.003l-0.043,0.066c-0.003,0.003,-0.005,0.006,-0.007,0.01l-0.043,0.066c-0.004,0.001,-0.002,0.002,-0.002,0.002c-0.001,0.002,-0.002,0.004,-0.002,0.006l-0.0859997,0.209c-0.002,0.003,-0.004,0.007,-0.005,0.011l-0.025,0.063c-0.002,0.002,-0.003,0.005,-0.003,0.007l-0.026,0.063c-0.002,0.003,-0.003,0.006,-0.004,0.009l-0.014,0.033c-0.001,0.002,-0.001,0.004,-0.002,0.007c0,0,0,0,0,0.001l-0.006,0.03C37,10.389,37,10.391,37,10.394l-0.013,0.065c-0.001,0.002,-0.001,0.005,-0.002,0.00799999l-0.013,0.063c-0.001,0.003,-0.002,0.006,-0.002,0.009l-0.048,0.239c0,0,0,0.001,0,0.002c0,0,0,0,-0.001,0c0,0.001,0,0.003,0,0.004l-0.003,0.109c-0.001,0.002,-0.001,0.004,-0.001,0.006c0,0.001,0,0.003,0,0.004l-0.002,0.063c0,0.001,0,0.003,0,0.004c0,0.001,0,0.001,0,0.002l-0.009,0.281c0,0.001,0,0.003,0,0.004c0,0.001,0,0.001,0,0.002l-0.006,0.207C36.9,11.473,36.9,11.475,36.9,11.478c0,0.001,0,0.003,0,0.004l0,0.007c0,0.001,0,0.003,0,0.005c0,0,0,0,0,0c0,0,0,0.001,0,0.001l0.041,0.346c0.001,0.002,0.001,0.004,0.002,0.006l0.0959998,0.333l0,0c0,0,0,0,0,0c0,0.002,0.001,0.003,0.002,0.005l0.009,0.02c0.001,0.005,0.003,0.01,0.007,0.014l0.026,0.058c0.001,0.004,0.003,0.009,0.006,0.012l0.0969998,0.209c0.001,0.001,0.002,0.002,0.002,0.004c0.001,0,0.001,0.001,0.002,0.002l0.0940003,0.14c0.001,0.003,0.003,0.005,0.005,0.007l0.046,0.068c0,0,0,0,0.001,0.001l0.047,0.07c0,0,0,0,0,0c0.001,0,0.001,0,0.001,0s0,0,0,0c0,0,0,0,0,0c0,0,0,0,0.001,0l0,0c0,0,0,0,0,0s0,0,0,0l0.001,0c0,0.001,0.001,0.001,0.001,0.002l0.066,0.071c0.001,0.001,0.001,0.001,0.002,0.002l0.149,0.159c0.001,0.002,0.003,0.003,0.005,0.005l0.161,0.123c0.003,0.003,0.006,0.005,0.009,0.007l0.0830002,0.063c0.001,0,0.001,0,0.001,0.001c0,0,0,0,0.001,0c0.001,0.001,0.003,0.002,0.004,0.003l0.004,0.002c0.004,0.002,0.00799999,0.005,0.012,0.006l0.125,0.065c0.003,0.003,0.00799999,0.005,0.013,0.007l0.129,0.068c0.003,0.002,0.004,0.002,0.007,0.003l0.212,0.071c0.003,0.001,0.006,0.002,0.00799999,0.002l0.0820001,0.027c0.001,0.001,0.003,0.001,0.005,0.002l0.443,0.0799999c0.001,0,0.003,0,0.005,0.001l0.449,0.028c0.001,0,0.002,0,0.003,0l0.001,0c0.001,0,0.002,0,0.002,0l0.334,-0.026c0.002,0,0.003,0,0.004,0s0.001,0,0.001,0c0,0,0.001,0,0.002,-0.001l0.326,-0.0799999c0.001,0,0.002,0,0.003,-0.001c0.002,0,0.003,-0.001,0.004,-0.001l0.309,-0.13c0.001,0,0.002,0,0.003,-0.001l0,0c0.001,0,0.003,-0.001,0.004,-0.002l0.06,-0.04c0.005,-0.002,0.00799999,-0.004,0.011,-0.007l0.101,-0.066c0.003,-0.001,0.006,-0.003,0.00799999,-0.005l0.174,-0.114c0.002,-0.001,0.005,-0.003,0.007,-0.005l0.024,-0.025c0.001,-0.001,0.003,-0.002,0.004,-0.004l0.209,-0.21c0.003,-0.002,0.006,-0.005,0.00799999,-0.00799999l0.053,-0.053c0,-0.001,0.001,-0.001,0.002,-0.002c0.001,-0.002,0.002,-0.003,0.003,-0.005l0.00799999,-0.011c0.001,-0.002,0.003,-0.004,0.004,-0.007l0.041,-0.062c0.003,-0.003,0.005,-0.007,0.007,-0.011l0.04,-0.062c0.003,-0.003,0.005,-0.006,0.007,-0.01l0.04,-0.062c0.003,-0.003,0.005,-0.006,0.007,-0.01l0.041,-0.063c0.002,-0.003,0.004,-0.006,0.006,-0.009l0.03,-0.047c0,-0.001,0.001,-0.002,0.002,-0.003c0,-0.001,0.001,-0.003,0.002,-0.005l0.032,-0.0830002c0.003,-0.005,0.006,-0.01,0.007,-0.016l0.023,-0.061c0.001,-0.002,0.002,-0.004,0.002,-0.006l0.025,-0.063c0.002,-0.003,0.003,-0.007,0.004,-0.011l0.024,-0.061c0.002,-0.003,0.003,-0.007,0.004,-0.011l0.031,-0.0799999c0.001,-0.002,0.001,-0.004,0.002,-0.006c0,0,0,0,0,-0.001l0.027,-0.132c0,-0.001,0,-0.002,0.001,-0.003c0,-0.001,0,-0.002,0,-0.003l0.00799999,-0.134c0,0,0,0,0,0c0,0,0,0,0,0c0,0,0,-0.001,0,-0.001l0,-0.013c0,-0.02,-0.017,-0.036,-0.036,-0.036L40.255,11.719z"/>
    <path  fill="#FFFFFF" stroke-width="0" d="M54,10.169l-0.042,-0.276c0,-0.003,-0.001,-0.007,-0.002,-0.01l-0.003,-0.023c-0.001,-0.001,-0.001,-0.002,-0.001,-0.003c0,0,0,0,0,0c-0.001,-0.001,-0.001,-0.003,-0.002,-0.005l-0.014,-0.038c-0.001,-0.003,-0.002,-0.006,-0.003,-0.00799999l-0.0769997,-0.208c-0.001,-0.003,-0.002,-0.006,-0.003,-0.00799999l-0.012,-0.031c-0.001,-0.002,-0.002,-0.003,-0.003,-0.005c0,-0.001,-0.001,-0.002,-0.001,-0.002l-0.156,-0.249c-0.001,-0.002,-0.002,-0.004,-0.004,-0.006L53.67,9.28498c0,0,0,-0.001,-0.001,-0.001l0,0c-0.001,-0.001,-0.003,-0.003,-0.004,-0.005l-0.05,-0.051c-0.003,-0.005,-0.007,-0.009,-0.012,-0.012l-0.061,-0.062c-0.002,-0.003,-0.005,-0.005,-0.00799999,-0.00799999l-0.052,-0.053c-0.001,-0.001,-0.002,-0.002,-0.003,-0.003c-0.002,-0.001,-0.003,-0.002,-0.005,-0.003l-0.013,-0.009c-0.004,-0.004,-0.009,-0.007,-0.014,-0.009l-0.191,-0.126c-0.002,-0.001,-0.004,-0.002,-0.006,-0.003l-0.001,0l-0.001,0l-0.036,-0.014l-0.188,-0.071c-0.002,-0.001,-0.004,-0.002,-0.007,-0.002l-0.014,-0.006c-0.001,0,-0.002,0,-0.003,0l0,0c-0.002,0,-0.003,0,-0.005,-0.001L52.675,8.77997c-0.004,-0.001,-0.00799999,-0.002,-0.012,-0.002l-0.021,-0.004c-0.001,0,-0.002,0,-0.002,0L52.64,8.77399c-0.001,0,-0.002,0,-0.002,0l-0.362,-0.03c-0.001,0,-0.003,0,-0.004,0l-0.001,0c-0.001,0,-0.001,0,-0.002,0l-0.252,0.017c-0.002,0,-0.005,0.001,-0.00799999,0.001l-0.066,0.018c-0.002,0,-0.005,0.001,-0.007,0.002l-0.171,0.045c-0.004,0.002,-0.005,0.002,-0.00799999,0.003L51.53,8.93902c-0.002,0.002,-0.004,0.002,-0.006,0.004L51.348,9.06998c-0.003,0.001,-0.006,0.003,-0.00799999,0.005l-0.067,0.048c-0.001,0.001,-0.002,0.002,-0.003,0.003c0,0,0,0,-0.001,0c0,0,0,0.001,-0.001,0.001l-0.02,0.019c-0.001,0.001,-0.002,0.002,-0.003,0.004l-0.067,0.064c-0.005,0.003,-0.009,0.006,-0.012,0.011l-0.064,0.062c-0.004,0.003,-0.00799999,0.006,-0.01,0.01l-0.047,0.045c-0.001,0,-0.001,0.001,-0.002,0.001l-0.019,0.02c-0.001,0.001,-0.002,0.002,-0.003,0.003l-0.119,0.125l-0.026,-0.045c-0.001,-0.001,-0.001,-0.003,-0.003,-0.005l-0.0779998,-0.136c0,-0.002,-0.003,-0.004,-0.005,-0.006l-0.002,-0.003c-0.001,-0.002,-0.003,-0.003,-0.005,-0.005L50.626,9.11002c0,0,0,0,0,0c-0.002,-0.002,-0.004,-0.003,-0.006,-0.005l-0.038,-0.03c-0.002,-0.001,-0.003,-0.002,-0.004,-0.003l-0.155,-0.121c-0.002,-0.001,-0.004,-0.003,-0.004,-0.003c-0.001,0,-0.002,-0.001,-0.003,-0.001l-0.223,-0.114c0.001,-0.001,-0.005,-0.002,-0.00799999,-0.003l-0.175,-0.05c-0.002,0,-0.004,-0.001,-0.006,-0.001l-0.0789998,-0.022c-0.002,-0.001,-0.005,-0.001,-0.007,-0.001c-0.001,0,-0.001,0,-0.002,0l-0.27,-0.019c-0.001,0,-0.002,0,-0.003,0c-0.002,0,-0.003,0,-0.004,0l-0.389,0.036c-0.002,0,-0.004,0,-0.006,0.001l-0.025,0.006c-0.003,0,-0.006,0.001,-0.00799999,0.002l-0.275,0.064c-0.001,0.001,-0.004,0.001,-0.00799999,0.002l-0.011,0.005c-0.003,0.001,-0.006,0.002,-0.00799999,0.003L48.679,8.95997c-0.002,0,-0.005,0.002,-0.009,0.006l-0.132,0.106c-0.001,0.001,-0.003,0.002,-0.004,0.004l-0.0789998,0.063c0,0,-0.001,0.001,-0.002,0.002c-0.001,0.001,0,0,-0.002,0.001l-0.004,0.004c-0.002,0.001,-0.003,0.003,-0.005,0.005l-0.062,0.063c-0.005,0.003,-0.009,0.007,-0.012,0.012l-0.06,0.062c-0.003,0.002,-0.006,0.005,-0.00799999,0.00799999l-0.065,0.067c0,0,-0.001,0,-0.001,0c-0.001,0.001,-0.002,0.002,-0.003,0.003L48.18,9.43798c-0.002,0.001,-0.003,0.003,-0.004,0.005l-0.028,0.037L48.14,9.48103L48.14,8.89898c0,-0.02,-0.017,-0.036,-0.036,-0.036l-1.131,0c-0.02,0,-0.036,0.016,-0.036,0.036l0,4.551c0,0.02,0.017,0.036,0.036,0.036l1.225,0c0.02,0,0.036,-0.016,0.036,-0.036l0,-2.778c0,-0.001,0,-0.002,0,-0.003l-0.007,-0.126c0,0,0,0,0,-0.001c0,-0.001,0,-0.003,0,-0.005l-0.003,-0.045l0.001,-0.005c0.003,-0.005,0.005,-0.011,0.005,-0.017c0,0,0,-0.001,0,-0.002l0.013,-0.056c0.002,-0.004,0.003,-0.00799999,0.003,-0.012l0.017,-0.0730001l0.081,-0.152l0.0959998,-0.112c0.001,0,0.001,0,0.001,-0.001l0.062,-0.07c0.001,-0.001,0.001,-0.002,0.002,-0.002l0.06,-0.069c0.001,-0.001,0.002,-0.002,0.003,-0.003l0.109,-0.0840002L48.79,9.77998l0.124,-0.023l0.241,-0.014l0.134,0.009l0.108,0.032c0.001,0,0.002,0,0.003,0.001l0.018,0.005l0.116,0.067l0.0979999,0.09l0.104,0.155l0.065,0.175l0.022,0.189l0,2.993c0,0.02,0.017,0.036,0.036,0.036l1.225,0c0.02,0,0.036,-0.016,0.036,-0.036l0,-2.699l0.01,-0.141c0,-0.001,0,-0.002,0,-0.004l0.005,-0.069c0,-0.001,0,-0.002,0,-0.003l0.005,-0.069c0,-0.001,0,-0.002,0,-0.003l0.026,-0.133c0.002,-0.003,0.002,-0.006,0.003,-0.009l0.015,-0.062c0,-0.001,0,-0.001,0,-0.002l0.062,-0.133c0.002,-0.003,0.003,-0.007,0.005,-0.01l0.011,-0.024l0.021,-0.029c0.005,-0.004,0.009,-0.009,0.011,-0.016l0.045,-0.061c0.002,-0.002,0.004,-0.004,0.005,-0.007l0.026,-0.036l0.0920002,-0.081l0.104,-0.06l0.115,-0.036l0.257,-0.027l0.255,0.019L52.321,9.79999l0.115,0.064l0.06,0.054c0.001,0.001,0.003,0.003,0.005,0.004l0.033,0.03l0.02,0.028c0.001,0.003,0.003,0.007,0.006,0.009l0.043,0.064c0.002,0.002,0.003,0.005,0.005,0.007l0.0889999,0.233l0.03,0.25l0,2.914c0,0.02,0.017,0.036,0.036,0.036l1.202,0c0.02,0,0.036,-0.016,0.036,-0.036l0,-3.283C54,10.173,54.001,10.171,54,10.169z"/>
   </g>
  </g>
  <g  id="usb-minib" stroke-width="0" transform="matrix(1, 0, 0, 1, 52.4577, 22.5868)">
   <g  stroke-width="0" transform="matrix(-1, 0, 0, -1, 30.888, 34.056)">
    <g  stroke-width="0">
     <rect  width="6.2538" x="21.7973" y="1.21596" fill="#8D8C8C" height="6.59281" stroke-width="0"/>
     <rect  width="7.2378" x="8.70775" y="1.21596" fill="#8D8C8C" height="6.59281" stroke-width="0"/>
    </g>
    <g  stroke-width="0">
     <rect  width="6.2538" x="21.7973" y="26.2493" fill="#8D8C8C" height="6.5948" stroke-width="0"/>
     <rect  width="7.2378" x="8.70775" y="26.2493" fill="#8D8C8C" height="6.5948" stroke-width="0"/>
    </g>
    <g  stroke-width="0">
     <polygon  fill="#404040" points="25.4642,21.2304,26.5501,20.4054,26.5501,26.6742,27.5041,26.6742,27.5041,7.32478,26.5501,7.32478,26.5501,13.6496,25.4642,12.8226,25.4642,6.35181,2.83891,6.35181,2.83891,27.7002,25.4642,27.7002" stroke-width="0"/>
    </g>
    <path  stroke-width="0" d="M16.5154,12.4816c0,0.155995,-0.126996,0.270992,-0.280991,0.254992L5.73882,11.6407c-0.153995,-0.0169995,-0.280991,-0.153996,-0.280991,-0.311991L5.45782,9.58572c0,-0.153996,0.126996,-0.296991,0.280991,-0.311991l10.4957,-1.09896c0.153995,-0.0179995,0.280991,0.100997,0.280991,0.253992l0,0.255992c0,0.152996,-0.126996,0.295991,-0.280991,0.309991l-9.54166,0.829973c-0.153995,0.0109997,-0.280991,0.150996,-0.280991,0.307991l0,0.648981c0,0.153996,0.126996,0.294991,0.280991,0.309991l9.54166,0.828979c0.153995,0.0129996,0.280991,0.150996,0.280991,0.309991L16.5154,12.4816z"/>
    <path  stroke-width="0" d="M16.5154,25.6242c0,0.151996,-0.126996,0.270992,-0.280991,0.254992L5.73782,24.7783c-0.153995,-0.0209994,-0.280991,-0.153996,-0.280991,-0.311991l0,-1.74195c0,-0.154995,0.126996,-0.296991,0.280991,-0.311991l10.4967,-1.09896c0.153995,-0.0189994,0.280991,0.0999972,0.280991,0.253992l0,0.256992c0,0.154995,-0.126996,0.294991,-0.280991,0.311991l-9.54166,0.827978c-0.153995,0.0139996,-0.280991,0.146996,-0.280991,0.310991l0,0.645981c0,0.150996,0.126996,0.296991,0.280991,0.311991l9.54166,0.824976c0.153995,0.0189994,0.280991,0.145996,0.280991,0.311991L16.5154,25.6242z"/>
    <g  stroke-width="0">
     <polygon  fill="none" points="6.41779,22.9864,6.41779,24.2043,7.24579,24.2753,7.24579,22.9224" stroke-width="0"/>
     <polygon  fill="#939393" points="7.24579,24.2753,6.41779,24.2043,6.41779,22.9864,7.24579,22.9224" stroke-width="0"/>
     <polygon  fill="#545454" points="7.24579,24.2753,7.59478,24.3073,7.59478,22.8843,7.24579,22.9224" stroke-width="0"/>
    </g>
    <g  stroke-width="0">
     <polygon  fill="none" points="6.41779,9.8437,6.41779,11.0667,7.24579,11.1347,7.24579,9.77969" stroke-width="0"/>
     <polygon  fill="#939393" points="7.24579,11.1347,6.41779,11.0667,6.41779,9.8437,7.24579,9.77969" stroke-width="0"/>
     <polygon  fill="#545454" points="7.24579,11.1347,7.59478,11.1696,7.59478,9.74268,7.24579,9.77969" stroke-width="0"/>
    </g>
    <rect  width="2.01393" x="12.9726" y="14.1196" fill="#939393" height="5.55484" stroke-width="0"/>
    <rect  width="1.11496" x="14.9855" y="14.1196" fill="#545454" height="5.55484" stroke-width="0"/>
    <path  stroke-width="0" d="M4.50186,13.7836c0,0.154995,0.126996,0.292991,0.281991,0.300991l11.6056,0.69898c0.153995,0.00999972,0.281991,0.145996,0.281991,0.300991l0,3.88889c0,0.154995,-0.127996,0.290992,-0.281991,0.304991L4.78385,19.9684c-0.154995,0.00899971,-0.281991,0.145996,-0.281991,0.301991l0,0.518985c0,0.154995,0.126996,0.270992,0.281991,0.266992l13.1926,-0.959969c0.153995,-0.0159996,0.282991,-0.145996,0.282991,-0.308991l0,-5.51884c0,-0.154995,-0.128996,-0.294991,-0.282991,-0.308991L4.78284,13.0036c-0.153995,-0.0109997,-0.281991,0.107997,-0.281991,0.262992L4.50186,13.7836L4.50186,13.7836z"/>
    <line  stroke-opacity="0.24" fill="none" stroke="#FFFFFF" stroke-linecap="round" y1="6.9828" x1="24.8682" y2="6.9828" stroke-width="0" x2="3.1509"/>
    <line  stroke-opacity="0.15" fill="none" stroke="#FFFFFF" stroke-linecap="round" y1="27.3262" stroke-width="0.499984" x1="24.8682" y2="27.3262" x2="3.1509"/>
    <line  stroke-opacity="0.3" fill="none" stroke="#FFFFFF" stroke-linecap="round" y1="14.3306" x1="26.4381" y2="19.7194" stroke-width="0" x2="26.4381"/>
   </g>
  </g>
 </g>
</svg>
