<?xml version="1.0" encoding="utf-8"?>
<!-- Generator: Adobe Illustrator 14.0.0, SVG Export Plug-In . SVG Version: 6.00 Build 43363)  -->
<!DOCTYPE svg PUBLIC "-//W3C//DTD SVG 1.1//EN" "http://www.w3.org/Graphics/SVG/1.1/DTD/svg11.dtd">
<svg version="1.1" id="Ebene_1" xmlns="http://www.w3.org/2000/svg" xmlns:xlink="http://www.w3.org/1999/xlink" x="0px" y="0px"
	 width="1,803333in" height="1,39763889in" viewBox="0 -3.515 129.84 100.63" enable-background="new 0 -3.515 129.84 100.63"
	 xml:space="preserve">
<g id="breadboardbreadboard">
	<g id="background">
		<rect x="0" y="-3.515" fill="#D9D9D9" width="129.84" height="100.63"/>
	</g>
	<rect x="19.42" y="43.174" fill="#CCC9C9" width="91" height="7.252"/>
	<g id="sockets" transform="translate(-4.5, -9)">
		<g id="A1pin">
			<path fill="#BFBFBF" d="M9.427,16.2c0-1.322,1.071-2.394,2.394-2.394s2.394,1.071,2.394,2.394"/>
			<path fill="#E6E6E6" d="M14.214,16.2c0,1.321-1.071,2.394-2.394,2.394S9.427,17.522,9.427,16.2"/>
			<circle fill="#383838" cx="11.82" cy="16.2" r="1.197"/>
		</g>
		<g id="B1pin">
			<path fill="#BFBFBF" d="M9.427,23.4c0-1.321,1.071-2.394,2.394-2.394s2.394,1.072,2.394,2.394"/>
			<path fill="#E6E6E6" d="M14.214,23.4c0,1.322-1.071,2.394-2.394,2.394S9.427,24.722,9.427,23.4l0,0"/>
			<circle fill="#383838" cx="11.82" cy="23.4" r="1.197"/>
		</g>
		<g id="C1pin">
			<path fill="#BFBFBF" d="M9.427,30.6c0-1.321,1.071-2.394,2.394-2.394s2.394,1.072,2.394,2.394"/>
			<path fill="#E6E6E6" d="M14.214,30.6c0,1.322-1.071,2.394-2.394,2.394S9.427,31.922,9.427,30.6"/>
			<circle fill="#383838" cx="11.82" cy="30.6" r="1.197"/>
		</g>
		<g id="D1pin">
			<path fill="#BFBFBF" d="M9.427,37.8c0-1.322,1.071-2.394,2.394-2.394s2.394,1.071,2.394,2.394"/>
			<path fill="#E6E6E6" d="M14.214,37.8c0,1.322-1.071,2.394-2.394,2.394S9.427,39.122,9.427,37.8l0,0"/>
			<circle fill="#383838" cx="11.82" cy="37.8" r="1.197"/>
		</g>
		<g id="E1pin">
			<path fill="#BFBFBF" d="M9.427,45c0-1.322,1.071-2.394,2.394-2.394s2.394,1.071,2.394,2.394"/>
			<path fill="#E6E6E6" d="M14.214,45c0,1.321-1.071,2.394-2.394,2.394S9.427,46.322,9.427,45l0,0"/>
			<circle fill="#383838" cx="11.82" cy="45" r="1.197"/>
		</g>
		<g id="A2pin">
			<path fill="#BFBFBF" d="M16.627,16.2c0-1.322,1.071-2.394,2.394-2.394c1.321,0,2.394,1.071,2.394,2.394"/>
			<path fill="#E6E6E6" d="M21.414,16.2c0,1.321-1.07,2.394-2.393,2.395s-2.395-1.07-2.395-2.393c0-0.001,0-0.001,0-0.002"/>
			<circle fill="#383838" cx="19.02" cy="16.2" r="1.197"/>
		</g>
		<g id="B2pin">
			<path fill="#BFBFBF" d="M16.627,23.4c0-1.321,1.071-2.394,2.394-2.394c1.321,0,2.394,1.072,2.394,2.394"/>
			<path fill="#E6E6E6" d="M21.414,23.4c0,1.322-1.07,2.395-2.393,2.396s-2.395-1.07-2.395-2.393c0-0.001,0-0.002,0-0.003"/>
			<circle fill="#383838" cx="19.02" cy="23.4" r="1.197"/>
		</g>
		<g id="C2pin">
			<path fill="#BFBFBF" d="M16.627,30.6c0-1.321,1.071-2.394,2.394-2.394c1.321,0,2.394,1.072,2.394,2.394"/>
			<path fill="#E6E6E6" d="M21.414,30.6c0,1.322-1.07,2.395-2.393,2.396c-1.322,0-2.395-1.07-2.395-2.393c0-0.001,0-0.002,0-0.003"
				/>
			<circle fill="#383838" cx="19.02" cy="30.6" r="1.197"/>
		</g>
		<g id="D2pin">
			<path fill="#BFBFBF" d="M16.627,37.8c0-1.322,1.071-2.394,2.394-2.394c1.321,0,2.394,1.071,2.394,2.394"/>
			<path fill="#E6E6E6" d="M21.414,37.8c0,1.322-1.07,2.395-2.393,2.395c-1.322,0.001-2.395-1.07-2.395-2.392
				c0-0.001,0-0.002,0-0.003"/>
			<circle fill="#383838" cx="19.02" cy="37.8" r="1.197"/>
		</g>
		<g id="E2pin">
			<path fill="#BFBFBF" d="M16.627,45c0-1.322,1.071-2.394,2.394-2.394c1.321,0,2.394,1.071,2.394,2.394"/>
			<path fill="#E6E6E6" d="M21.414,45c0,1.321-1.07,2.394-2.393,2.395s-2.395-1.07-2.395-2.392c0-0.001,0-0.002,0-0.003"/>
			<circle fill="#383838" cx="19.02" cy="45" r="1.197"/>
		</g>
		<g id="A3pin">
			<path fill="#BFBFBF" d="M23.826,16.2c0-1.322,1.072-2.394,2.394-2.394c1.322,0,2.395,1.071,2.395,2.394"/>
			<path fill="#E6E6E6" d="M28.614,16.2c0,1.321-1.072,2.394-2.395,2.394c-1.321,0-2.394-1.072-2.394-2.394l0,0"/>
			<circle fill="#383838" cx="26.219" cy="16.2" r="1.197"/>
		</g>
		<g id="B3pin">
			<path fill="#BFBFBF" d="M23.826,23.4c0-1.321,1.072-2.394,2.394-2.394c1.322,0,2.395,1.072,2.395,2.394"/>
			<path fill="#E6E6E6" d="M28.614,23.4c0,1.322-1.072,2.394-2.395,2.394c-1.321,0-2.394-1.071-2.394-2.394"/>
			<circle fill="#383838" cx="26.219" cy="23.4" r="1.197"/>
		</g>
		<g id="C3pin">
			<path fill="#BFBFBF" d="M23.826,30.6c0-1.321,1.072-2.394,2.394-2.394c1.322,0,2.395,1.072,2.395,2.394"/>
			<path fill="#E6E6E6" d="M28.614,30.6c0,1.322-1.072,2.394-2.395,2.394c-1.321,0-2.394-1.071-2.394-2.394l0,0"/>
			<circle fill="#383838" cx="26.219" cy="30.6" r="1.197"/>
		</g>
		<g id="D3pin">
			<path fill="#BFBFBF" d="M23.826,37.8c0-1.322,1.072-2.394,2.394-2.394c1.322,0,2.395,1.071,2.395,2.394"/>
			<path fill="#E6E6E6" d="M28.614,37.8c0,1.322-1.072,2.394-2.395,2.394c-1.321,0-2.394-1.071-2.394-2.394"/>
			<circle fill="#383838" cx="26.219" cy="37.8" r="1.197"/>
		</g>
		<g id="E3pin">
			<path fill="#BFBFBF" d="M23.826,45c0-1.322,1.072-2.394,2.394-2.394c1.322,0,2.395,1.071,2.395,2.394"/>
			<path fill="#E6E6E6" d="M28.614,45c0,1.321-1.072,2.394-2.395,2.394c-1.321,0-2.394-1.072-2.394-2.394"/>
			<circle fill="#383838" cx="26.219" cy="45" r="1.197"/>
		</g>
		<g id="A4pin">
			<path fill="#BFBFBF" d="M31.026,16.2c0-1.322,1.072-2.394,2.394-2.394c1.322,0,2.394,1.071,2.394,2.394"/>
			<path fill="#E6E6E6" d="M35.813,16.2c0,1.321-1.071,2.394-2.394,2.394c-1.321,0-2.394-1.072-2.394-2.394l0,0"/>
			<circle fill="#383838" cx="33.42" cy="16.2" r="1.197"/>
		</g>
		<g id="B4pin">
			<path fill="#BFBFBF" d="M31.026,23.4c0-1.321,1.072-2.394,2.394-2.394c1.322,0,2.394,1.072,2.394,2.394"/>
			<path fill="#E6E6E6" d="M35.813,23.4c0,1.322-1.071,2.394-2.394,2.394c-1.321,0-2.394-1.071-2.394-2.394"/>
			<circle fill="#383838" cx="33.42" cy="23.4" r="1.197"/>
		</g>
		<g id="C4pin">
			<path fill="#BFBFBF" d="M31.026,30.6c0-1.321,1.072-2.394,2.394-2.394c1.322,0,2.394,1.072,2.394,2.394"/>
			<path fill="#E6E6E6" d="M35.813,30.6c0,1.322-1.071,2.394-2.394,2.394c-1.321,0-2.394-1.071-2.394-2.394l0,0"/>
			<circle fill="#383838" cx="33.42" cy="30.6" r="1.197"/>
		</g>
		<g id="D4pin">
			<path fill="#BFBFBF" d="M31.026,37.8c0-1.322,1.072-2.394,2.394-2.394c1.322,0,2.394,1.071,2.394,2.394"/>
			<path fill="#E6E6E6" d="M35.813,37.8c0,1.322-1.071,2.394-2.394,2.394c-1.321,0-2.394-1.071-2.394-2.394"/>
			<circle fill="#383838" cx="33.42" cy="37.8" r="1.197"/>
		</g>
		<g id="E4pin">
			<path fill="#BFBFBF" d="M31.026,45c0-1.322,1.072-2.394,2.394-2.394c1.322,0,2.394,1.071,2.394,2.394"/>
			<path fill="#E6E6E6" d="M35.813,45c0,1.321-1.071,2.394-2.394,2.394c-1.321,0-2.394-1.072-2.394-2.394"/>
			<circle fill="#383838" cx="33.42" cy="45" r="1.197"/>
		</g>
		<g id="A5pin">
			<path fill="#BFBFBF" d="M38.226,16.2c0-1.322,1.071-2.394,2.394-2.394s2.394,1.071,2.394,2.394"/>
			<path fill="#E6E6E6" d="M43.013,16.2c0,1.321-1.071,2.394-2.394,2.394s-2.394-1.072-2.394-2.394l0,0"/>
			<circle fill="#383838" cx="40.62" cy="16.2" r="1.197"/>
		</g>
		<g id="B5pin">
			<path fill="#BFBFBF" d="M38.226,23.4c0-1.321,1.071-2.394,2.394-2.394s2.394,1.072,2.394,2.394"/>
			<path fill="#E6E6E6" d="M43.013,23.4c0,1.322-1.071,2.394-2.394,2.394s-2.394-1.071-2.394-2.394"/>
			<circle fill="#383838" cx="40.62" cy="23.4" r="1.197"/>
		</g>
		<g id="C5pin">
			<path fill="#BFBFBF" d="M38.226,30.6c0-1.321,1.071-2.394,2.394-2.394s2.394,1.072,2.394,2.394"/>
			<path fill="#E6E6E6" d="M43.013,30.6c0,1.322-1.071,2.394-2.394,2.394s-2.394-1.071-2.394-2.394l0,0"/>
			<circle fill="#383838" cx="40.62" cy="30.6" r="1.197"/>
		</g>
		<g id="D5pin">
			<path fill="#BFBFBF" d="M38.226,37.8c0-1.322,1.071-2.394,2.394-2.394s2.394,1.071,2.394,2.394"/>
			<path fill="#E6E6E6" d="M43.013,37.8c0,1.322-1.071,2.394-2.394,2.394s-2.394-1.071-2.394-2.394"/>
			<circle fill="#383838" cx="40.62" cy="37.8" r="1.197"/>
		</g>
		<g id="E5pin">
			<path fill="#BFBFBF" d="M38.226,45c0-1.322,1.071-2.394,2.394-2.394s2.394,1.071,2.394,2.394"/>
			<path fill="#E6E6E6" d="M43.013,45c0,1.321-1.071,2.394-2.394,2.394S38.226,46.322,38.226,45"/>
			<circle fill="#383838" cx="40.62" cy="45" r="1.197"/>
		</g>
		<g id="A6pin">
			<path fill="#BFBFBF" d="M45.427,16.2c0-1.322,1.071-2.394,2.394-2.394s2.394,1.071,2.394,2.394"/>
			<path fill="#E6E6E6" d="M50.214,16.2c0,1.321-1.071,2.394-2.394,2.394s-2.394-1.072-2.394-2.394l0,0"/>
			<circle fill="#383838" cx="47.82" cy="16.2" r="1.197"/>
		</g>
		<g id="B6pin">
			<path fill="#BFBFBF" d="M45.427,23.4c0-1.321,1.071-2.394,2.394-2.394s2.394,1.072,2.394,2.394"/>
			<path fill="#E6E6E6" d="M50.214,23.4c0,1.322-1.071,2.394-2.394,2.394s-2.394-1.071-2.394-2.394"/>
			<circle fill="#383838" cx="47.82" cy="23.4" r="1.197"/>
		</g>
		<g id="C6pin">
			<path fill="#BFBFBF" d="M45.427,30.6c0-1.321,1.071-2.394,2.394-2.394s2.394,1.072,2.394,2.394"/>
			<path fill="#E6E6E6" d="M50.214,30.6c0,1.322-1.071,2.394-2.394,2.394s-2.394-1.071-2.394-2.394l0,0"/>
			<circle fill="#383838" cx="47.82" cy="30.6" r="1.197"/>
		</g>
		<g id="D6pin">
			<path fill="#BFBFBF" d="M45.427,37.8c0-1.322,1.071-2.394,2.394-2.394s2.394,1.071,2.394,2.394"/>
			<path fill="#E6E6E6" d="M50.214,37.8c0,1.322-1.071,2.394-2.394,2.394s-2.394-1.071-2.394-2.394"/>
			<circle fill="#383838" cx="47.82" cy="37.8" r="1.197"/>
		</g>
		<g id="E6pin">
			<path fill="#BFBFBF" d="M45.427,45c0-1.322,1.071-2.394,2.394-2.394s2.394,1.071,2.394,2.394"/>
			<path fill="#E6E6E6" d="M50.214,45c0,1.321-1.071,2.394-2.394,2.394S45.427,46.322,45.427,45"/>
			<circle fill="#383838" cx="47.82" cy="45" r="1.197"/>
		</g>
		<g id="A7pin">
			<path fill="#BFBFBF" d="M52.627,16.2c0-1.322,1.071-2.394,2.394-2.394c1.321,0,2.394,1.071,2.394,2.394"/>
			<path fill="#E6E6E6" d="M57.414,16.2c0,1.321-1.072,2.394-2.394,2.394c-1.322,0-2.394-1.072-2.394-2.394l0,0"/>
			<circle fill="#383838" cx="55.02" cy="16.2" r="1.197"/>
		</g>
		<g id="B7pin">
			<path fill="#BFBFBF" d="M52.627,23.4c0-1.321,1.071-2.394,2.394-2.394c1.321,0,2.394,1.072,2.394,2.394"/>
			<path fill="#E6E6E6" d="M57.414,23.4c0,1.322-1.072,2.394-2.394,2.394c-1.322,0-2.394-1.071-2.394-2.394"/>
			<circle fill="#383838" cx="55.02" cy="23.4" r="1.197"/>
		</g>
		<g id="C7pin">
			<path fill="#BFBFBF" d="M52.627,30.6c0-1.321,1.071-2.394,2.394-2.394c1.321,0,2.394,1.072,2.394,2.394"/>
			<path fill="#E6E6E6" d="M57.414,30.6c0,1.322-1.072,2.394-2.394,2.394c-1.322,0-2.394-1.071-2.394-2.394l0,0"/>
			<circle fill="#383838" cx="55.02" cy="30.6" r="1.197"/>
		</g>
		<g id="D7pin">
			<path fill="#BFBFBF" d="M52.627,37.8c0-1.322,1.071-2.394,2.394-2.394c1.321,0,2.394,1.071,2.394,2.394"/>
			<path fill="#E6E6E6" d="M57.414,37.8c0,1.322-1.072,2.394-2.394,2.394c-1.322,0-2.394-1.071-2.394-2.394"/>
			<circle fill="#383838" cx="55.02" cy="37.8" r="1.197"/>
		</g>
		<g id="E7pin">
			<path fill="#BFBFBF" d="M52.627,45c0-1.322,1.071-2.394,2.394-2.394c1.321,0,2.394,1.071,2.394,2.394"/>
			<path fill="#E6E6E6" d="M57.414,45c0,1.321-1.072,2.394-2.394,2.394c-1.322,0-2.394-1.072-2.394-2.394"/>
			<circle fill="#383838" cx="55.02" cy="45" r="1.197"/>
		</g>
		<g id="A8pin">
			<path fill="#BFBFBF" d="M59.826,16.2c0-1.322,1.072-2.394,2.394-2.394c1.322,0,2.394,1.071,2.394,2.394"/>
			<path fill="#E6E6E6" d="M64.613,16.2c0,1.321-1.071,2.394-2.394,2.394c-1.321,0-2.394-1.072-2.394-2.394l0,0"/>
			<circle fill="#383838" cx="62.219" cy="16.2" r="1.197"/>
		</g>
		<g id="B8pin">
			<path fill="#BFBFBF" d="M59.826,23.4c0-1.321,1.072-2.394,2.394-2.394c1.322,0,2.394,1.072,2.394,2.394"/>
			<path fill="#E6E6E6" d="M64.613,23.4c0,1.322-1.071,2.394-2.394,2.394c-1.321,0-2.394-1.071-2.394-2.394"/>
			<circle fill="#383838" cx="62.219" cy="23.4" r="1.197"/>
		</g>
		<g id="C8pin">
			<path fill="#BFBFBF" d="M59.826,30.6c0-1.321,1.072-2.394,2.394-2.394c1.322,0,2.394,1.072,2.394,2.394"/>
			<path fill="#E6E6E6" d="M64.613,30.6c0,1.322-1.071,2.394-2.394,2.394c-1.321,0-2.394-1.071-2.394-2.394l0,0"/>
			<circle fill="#383838" cx="62.219" cy="30.6" r="1.197"/>
		</g>
		<g id="D8pin">
			<path fill="#BFBFBF" d="M59.826,37.8c0-1.322,1.072-2.394,2.394-2.394c1.322,0,2.394,1.071,2.394,2.394"/>
			<path fill="#E6E6E6" d="M64.613,37.8c0,1.322-1.071,2.394-2.394,2.394c-1.321,0-2.394-1.071-2.394-2.394"/>
			<circle fill="#383838" cx="62.219" cy="37.8" r="1.197"/>
		</g>
		<g id="E8pin">
			<path fill="#BFBFBF" d="M59.826,45c0-1.322,1.072-2.394,2.394-2.394c1.322,0,2.394,1.071,2.394,2.394"/>
			<path fill="#E6E6E6" d="M64.613,45c0,1.321-1.071,2.394-2.394,2.394c-1.321,0-2.394-1.072-2.394-2.394"/>
			<circle fill="#383838" cx="62.219" cy="45" r="1.197"/>
		</g>
		<g id="A9pin">
			<path fill="#BFBFBF" d="M67.026,16.2c0-1.322,1.072-2.394,2.394-2.394c1.322,0,2.394,1.071,2.394,2.394"/>
			<path fill="#E6E6E6" d="M71.813,16.2c0,1.321-1.071,2.394-2.394,2.394c-1.321,0-2.394-1.072-2.394-2.394l0,0"/>
			<circle fill="#383838" cx="69.42" cy="16.2" r="1.197"/>
		</g>
		<g id="B9pin">
			<path fill="#BFBFBF" d="M67.026,23.4c0-1.321,1.072-2.394,2.394-2.394c1.322,0,2.394,1.072,2.394,2.394"/>
			<path fill="#E6E6E6" d="M71.813,23.4c0,1.322-1.071,2.394-2.394,2.394c-1.321,0-2.394-1.071-2.394-2.394"/>
			<circle fill="#383838" cx="69.42" cy="23.4" r="1.197"/>
		</g>
		<g id="C9pin">
			<path fill="#BFBFBF" d="M67.026,30.6c0-1.321,1.072-2.394,2.394-2.394c1.322,0,2.394,1.072,2.394,2.394"/>
			<path fill="#E6E6E6" d="M71.813,30.6c0,1.322-1.071,2.394-2.394,2.394c-1.321,0-2.394-1.071-2.394-2.394l0,0"/>
			<circle fill="#383838" cx="69.42" cy="30.6" r="1.197"/>
		</g>
		<g id="D9pin">
			<path fill="#BFBFBF" d="M67.026,37.8c0-1.322,1.072-2.394,2.394-2.394c1.322,0,2.394,1.071,2.394,2.394"/>
			<path fill="#E6E6E6" d="M71.813,37.8c0,1.322-1.071,2.394-2.394,2.394c-1.321,0-2.394-1.071-2.394-2.394"/>
			<circle fill="#383838" cx="69.42" cy="37.8" r="1.197"/>
		</g>
		<g id="E9pin">
			<path fill="#BFBFBF" d="M67.026,45c0-1.322,1.072-2.394,2.394-2.394c1.322,0,2.394,1.071,2.394,2.394"/>
			<path fill="#E6E6E6" d="M71.813,45c0,1.321-1.071,2.394-2.394,2.394c-1.321,0-2.394-1.072-2.394-2.394"/>
			<circle fill="#383838" cx="69.42" cy="45" r="1.197"/>
		</g>
		<g id="A10pin">
			<path fill="#BFBFBF" d="M74.226,16.2c0-1.322,1.071-2.394,2.394-2.394s2.394,1.071,2.394,2.394"/>
			<path fill="#E6E6E6" d="M79.013,16.2c0,1.321-1.071,2.394-2.394,2.394s-2.394-1.072-2.394-2.394l0,0"/>
			<circle fill="#383838" cx="76.62" cy="16.2" r="1.197"/>
		</g>
		<g id="B10pin">
			<path fill="#BFBFBF" d="M74.226,23.4c0-1.321,1.071-2.394,2.394-2.394s2.394,1.072,2.394,2.394"/>
			<path fill="#E6E6E6" d="M79.013,23.4c0,1.322-1.071,2.394-2.394,2.394s-2.394-1.071-2.394-2.394"/>
			<circle fill="#383838" cx="76.62" cy="23.4" r="1.197"/>
		</g>
		<g id="C10pin">
			<path fill="#BFBFBF" d="M74.226,30.6c0-1.321,1.071-2.394,2.394-2.394s2.394,1.072,2.394,2.394"/>
			<path fill="#E6E6E6" d="M79.013,30.6c0,1.322-1.071,2.394-2.394,2.394s-2.394-1.071-2.394-2.394l0,0"/>
			<circle fill="#383838" cx="76.62" cy="30.6" r="1.197"/>
		</g>
		<g id="D10pin">
			<path fill="#BFBFBF" d="M74.226,37.8c0-1.322,1.071-2.394,2.394-2.394s2.394,1.071,2.394,2.394"/>
			<path fill="#E6E6E6" d="M79.013,37.8c0,1.322-1.071,2.394-2.394,2.394s-2.394-1.071-2.394-2.394"/>
			<circle fill="#383838" cx="76.62" cy="37.8" r="1.197"/>
		</g>
		<g id="E10pin">
			<path fill="#BFBFBF" d="M74.226,45c0-1.322,1.071-2.394,2.394-2.394s2.394,1.071,2.394,2.394"/>
			<path fill="#E6E6E6" d="M79.013,45c0,1.321-1.071,2.394-2.394,2.394S74.226,46.322,74.226,45"/>
			<circle fill="#383838" cx="76.62" cy="45" r="1.197"/>
		</g>
		<g id="A11pin">
			<path fill="#BFBFBF" d="M81.427,16.2c0-1.322,1.071-2.394,2.394-2.394c1.321,0,2.394,1.071,2.394,2.394"/>
			<path fill="#E6E6E6" d="M86.214,16.2c0,1.321-1.072,2.394-2.394,2.394c-1.322,0-2.394-1.072-2.394-2.394l0,0"/>
			<circle fill="#383838" cx="83.82" cy="16.2" r="1.197"/>
		</g>
		<g id="B11pin">
			<path fill="#BFBFBF" d="M81.427,23.4c0-1.321,1.071-2.394,2.394-2.394c1.321,0,2.394,1.072,2.394,2.394"/>
			<path fill="#E6E6E6" d="M86.214,23.4c0,1.322-1.072,2.394-2.394,2.394c-1.322,0-2.394-1.071-2.394-2.394"/>
			<circle fill="#383838" cx="83.82" cy="23.4" r="1.197"/>
		</g>
		<g id="C11pin">
			<path fill="#BFBFBF" d="M81.427,30.6c0-1.321,1.071-2.394,2.394-2.394c1.321,0,2.394,1.072,2.394,2.394"/>
			<path fill="#E6E6E6" d="M86.214,30.6c0,1.322-1.072,2.394-2.394,2.394c-1.322,0-2.394-1.071-2.394-2.394l0,0"/>
			<circle fill="#383838" cx="83.82" cy="30.6" r="1.197"/>
		</g>
		<g id="D11pin">
			<path fill="#BFBFBF" d="M81.427,37.8c0-1.322,1.071-2.394,2.394-2.394c1.321,0,2.394,1.071,2.394,2.394"/>
			<path fill="#E6E6E6" d="M86.214,37.8c0,1.322-1.072,2.394-2.394,2.394c-1.322,0-2.394-1.071-2.394-2.394"/>
			<circle fill="#383838" cx="83.82" cy="37.8" r="1.197"/>
		</g>
		<g id="E11pin">
			<path fill="#BFBFBF" d="M81.427,45c0-1.322,1.071-2.394,2.394-2.394c1.321,0,2.394,1.071,2.394,2.394"/>
			<path fill="#E6E6E6" d="M86.214,45c0,1.321-1.072,2.394-2.394,2.394c-1.322,0-2.394-1.072-2.394-2.394"/>
			<circle fill="#383838" cx="83.82" cy="45" r="1.197"/>
		</g>
		<g id="A12pin">
			<path fill="#BFBFBF" d="M88.627,16.2c0-1.322,1.071-2.394,2.394-2.394c1.321,0,2.394,1.071,2.394,2.394"/>
			<path fill="#E6E6E6" d="M93.414,16.2c0,1.321-1.072,2.394-2.394,2.394c-1.322,0-2.394-1.072-2.394-2.394l0,0"/>
			<circle fill="#383838" cx="91.02" cy="16.2" r="1.197"/>
		</g>
		<g id="B12pin">
			<path fill="#BFBFBF" d="M88.627,23.4c0-1.321,1.071-2.394,2.394-2.394c1.321,0,2.394,1.072,2.394,2.394"/>
			<path fill="#E6E6E6" d="M93.414,23.4c0,1.322-1.072,2.394-2.394,2.394c-1.322,0-2.394-1.071-2.394-2.394"/>
			<circle fill="#383838" cx="91.02" cy="23.4" r="1.197"/>
		</g>
		<g id="C12pin">
			<path fill="#BFBFBF" d="M88.627,30.6c0-1.321,1.071-2.394,2.394-2.394c1.321,0,2.394,1.072,2.394,2.394"/>
			<path fill="#E6E6E6" d="M93.414,30.6c0,1.322-1.072,2.394-2.394,2.394c-1.322,0-2.394-1.071-2.394-2.394l0,0"/>
			<circle fill="#383838" cx="91.02" cy="30.6" r="1.197"/>
		</g>
		<g id="D12pin">
			<path fill="#BFBFBF" d="M88.627,37.8c0-1.322,1.071-2.394,2.394-2.394c1.321,0,2.394,1.071,2.394,2.394"/>
			<path fill="#E6E6E6" d="M93.414,37.8c0,1.322-1.072,2.394-2.394,2.394c-1.322,0-2.394-1.071-2.394-2.394"/>
			<circle fill="#383838" cx="91.02" cy="37.8" r="1.197"/>
		</g>
		<g id="E12pin">
			<path fill="#BFBFBF" d="M88.627,45c0-1.322,1.071-2.394,2.394-2.394c1.321,0,2.394,1.071,2.394,2.394"/>
			<path fill="#E6E6E6" d="M93.414,45c0,1.321-1.072,2.394-2.394,2.394c-1.322,0-2.394-1.072-2.394-2.394"/>
			<circle fill="#383838" cx="91.02" cy="45" r="1.197"/>
		</g>
		<g id="A13pin">
			<path fill="#BFBFBF" d="M95.826,16.2c0-1.322,1.072-2.394,2.394-2.394c1.322,0,2.394,1.071,2.394,2.394"/>
			<path fill="#E6E6E6" d="M100.613,16.2c0,1.321-1.071,2.394-2.394,2.394c-1.321,0-2.394-1.072-2.394-2.394l0,0"/>
			<circle fill="#383838" cx="98.219" cy="16.2" r="1.197"/>
		</g>
		<g id="B13pin">
			<path fill="#BFBFBF" d="M95.826,23.4c0-1.321,1.072-2.394,2.394-2.394c1.322,0,2.394,1.072,2.394,2.394"/>
			<path fill="#E6E6E6" d="M100.613,23.4c0,1.322-1.071,2.394-2.394,2.394c-1.321,0-2.394-1.071-2.394-2.394"/>
			<circle fill="#383838" cx="98.219" cy="23.4" r="1.197"/>
		</g>
		<g id="C13pin">
			<path fill="#BFBFBF" d="M95.826,30.6c0-1.321,1.072-2.394,2.394-2.394c1.322,0,2.394,1.072,2.394,2.394"/>
			<path fill="#E6E6E6" d="M100.613,30.6c0,1.322-1.071,2.394-2.394,2.394c-1.321,0-2.394-1.071-2.394-2.394l0,0"/>
			<circle fill="#383838" cx="98.219" cy="30.6" r="1.197"/>
		</g>
		<g id="D13pin">
			<path fill="#BFBFBF" d="M95.826,37.8c0-1.322,1.072-2.394,2.394-2.394c1.322,0,2.394,1.071,2.394,2.394"/>
			<path fill="#E6E6E6" d="M100.613,37.8c0,1.322-1.071,2.394-2.394,2.394c-1.321,0-2.394-1.071-2.394-2.394"/>
			<circle fill="#383838" cx="98.219" cy="37.8" r="1.197"/>
		</g>
		<g id="E13pin">
			<path fill="#BFBFBF" d="M95.826,45c0-1.322,1.072-2.394,2.394-2.394c1.322,0,2.394,1.071,2.394,2.394"/>
			<path fill="#E6E6E6" d="M100.613,45c0,1.321-1.071,2.394-2.394,2.394c-1.321,0-2.394-1.072-2.394-2.394"/>
			<circle fill="#383838" cx="98.219" cy="45" r="1.197"/>
		</g>
		<g id="A14pin">
			<path fill="#BFBFBF" d="M103.026,16.2c0-1.322,1.071-2.394,2.394-2.394s2.394,1.071,2.394,2.394"/>
			<path fill="#E6E6E6" d="M107.813,16.2c0,1.321-1.071,2.394-2.394,2.394s-2.394-1.072-2.394-2.394l0,0"/>
			<circle fill="#383838" cx="105.42" cy="16.2" r="1.197"/>
		</g>
		<g id="B14pin">
			<path fill="#BFBFBF" d="M103.026,23.4c0-1.321,1.071-2.394,2.394-2.394s2.394,1.072,2.394,2.394"/>
			<path fill="#E6E6E6" d="M107.813,23.4c0,1.322-1.071,2.394-2.394,2.394s-2.394-1.071-2.394-2.394"/>
			<circle fill="#383838" cx="105.42" cy="23.4" r="1.197"/>
		</g>
		<g id="C14pin">
			<path fill="#BFBFBF" d="M103.026,30.6c0-1.321,1.071-2.394,2.394-2.394s2.394,1.072,2.394,2.394"/>
			<path fill="#E6E6E6" d="M107.813,30.6c0,1.322-1.071,2.394-2.394,2.394s-2.394-1.071-2.394-2.394l0,0"/>
			<circle fill="#383838" cx="105.42" cy="30.6" r="1.197"/>
		</g>
		<g id="D14pin">
			<path fill="#BFBFBF" d="M103.026,37.8c0-1.322,1.071-2.394,2.394-2.394s2.394,1.071,2.394,2.394"/>
			<path fill="#E6E6E6" d="M107.813,37.8c0,1.322-1.071,2.394-2.394,2.394s-2.394-1.071-2.394-2.394"/>
			<circle fill="#383838" cx="105.42" cy="37.8" r="1.197"/>
		</g>
		<g id="E14pin">
			<path fill="#BFBFBF" d="M103.026,45c0-1.322,1.071-2.394,2.394-2.394s2.394,1.071,2.394,2.394"/>
			<path fill="#E6E6E6" d="M107.813,45c0,1.321-1.071,2.394-2.394,2.394s-2.394-1.072-2.394-2.394"/>
			<circle fill="#383838" cx="105.42" cy="45" r="1.197"/>
		</g>
		<g id="A15pin">
			<path fill="#BFBFBF" d="M110.226,16.2c0.002-1.322,1.075-2.393,2.397-2.391c1.318,0.002,2.388,1.071,2.39,2.391"/>
			<path fill="#E6E6E6" d="M115.013,16.2c0.002,1.321-1.068,2.395-2.39,2.396c-1.322,0.002-2.396-1.067-2.397-2.39
				c0-0.002,0-0.005,0-0.007"/>
			<circle fill="#383838" cx="112.62" cy="16.2" r="1.197"/>
		</g>
		<g id="B15pin">
			<path fill="#BFBFBF" d="M110.226,23.4c0.002-1.321,1.075-2.392,2.397-2.39c1.318,0.002,2.388,1.071,2.39,2.39"/>
			<path fill="#E6E6E6" d="M115.013,23.4c0.002,1.322-1.068,2.396-2.39,2.397c-1.322,0.002-2.396-1.068-2.397-2.39
				c0-0.003,0-0.005,0-0.008"/>
			<circle fill="#383838" cx="112.62" cy="23.4" r="1.197"/>
		</g>
		<g id="C15pin">
			<path fill="#BFBFBF" d="M110.226,30.6c0.002-1.321,1.075-2.392,2.397-2.39c1.318,0.002,2.388,1.07,2.39,2.39"/>
			<path fill="#E6E6E6" d="M115.013,30.6c0.002,1.322-1.068,2.396-2.39,2.397c-1.322,0.002-2.396-1.068-2.397-2.39
				c0-0.003,0-0.005,0-0.008"/>
			<circle fill="#383838" cx="112.62" cy="30.6" r="1.197"/>
		</g>
		<g id="D15pin">
			<path fill="#BFBFBF" d="M110.226,37.8c0.002-1.322,1.075-2.392,2.397-2.39c1.318,0.002,2.388,1.07,2.39,2.39"/>
			<path fill="#E6E6E6" d="M115.013,37.8c0.002,1.322-1.068,2.396-2.39,2.397c-1.322,0.002-2.396-1.068-2.397-2.391
				c0-0.002,0-0.005,0-0.007"/>
			<circle fill="#383838" cx="112.62" cy="37.8" r="1.197"/>
		</g>
		<g id="E15pin">
			<path fill="#BFBFBF" d="M110.226,45c0.002-1.322,1.075-2.393,2.397-2.391c1.318,0.002,2.388,1.071,2.39,2.391"/>
			<path fill="#E6E6E6" d="M115.013,45c0.002,1.321-1.068,2.395-2.39,2.396c-1.322,0.003-2.396-1.067-2.397-2.39
				c0-0.002,0-0.005,0-0.007"/>
			<circle fill="#383838" cx="112.62" cy="45" r="1.197"/>
		</g>
		<g id="A16pin">
			<path fill="#BFBFBF" d="M117.427,16.2c0.002-1.322,1.075-2.393,2.396-2.391c1.319,0.002,2.389,1.071,2.391,2.391"/>
			<path fill="#E6E6E6" d="M122.214,16.2c0.002,1.321-1.068,2.395-2.391,2.396c-1.321,0.002-2.395-1.067-2.396-2.39
				c0-0.002,0-0.005,0-0.007"/>
			<circle fill="#383838" cx="119.82" cy="16.2" r="1.197"/>
		</g>
		<g id="B16pin">
			<path fill="#BFBFBF" d="M117.427,23.4c0.002-1.321,1.075-2.392,2.396-2.39c1.319,0.002,2.389,1.071,2.391,2.39"/>
			<path fill="#E6E6E6" d="M122.214,23.4c0.002,1.322-1.068,2.396-2.391,2.397c-1.321,0.002-2.395-1.068-2.396-2.39
				c0-0.003,0-0.005,0-0.008"/>
			<circle fill="#383838" cx="119.82" cy="23.4" r="1.197"/>
		</g>
		<g id="C16pin">
			<path fill="#BFBFBF" d="M117.427,30.6c0.002-1.321,1.075-2.392,2.396-2.39c1.319,0.002,2.389,1.07,2.391,2.39"/>
			<path fill="#E6E6E6" d="M122.214,30.6c0.002,1.322-1.068,2.396-2.391,2.397c-1.321,0.002-2.395-1.068-2.396-2.39
				c0-0.003,0-0.005,0-0.008"/>
			<circle fill="#383838" cx="119.82" cy="30.6" r="1.197"/>
		</g>
		<g id="D16pin">
			<path fill="#BFBFBF" d="M117.427,37.8c0.002-1.322,1.075-2.392,2.396-2.39c1.319,0.002,2.389,1.07,2.391,2.39"/>
			<path fill="#E6E6E6" d="M122.214,37.8c0.002,1.322-1.068,2.396-2.391,2.397c-1.321,0.002-2.395-1.068-2.396-2.391
				c0-0.002,0-0.005,0-0.007"/>
			<circle fill="#383838" cx="119.82" cy="37.8" r="1.197"/>
		</g>
		<g id="E16pin">
			<path fill="#BFBFBF" d="M117.427,45c0.002-1.322,1.075-2.393,2.396-2.391c1.319,0.002,2.389,1.071,2.391,2.391"/>
			<path fill="#E6E6E6" d="M122.214,45c0.002,1.321-1.068,2.395-2.391,2.396c-1.321,0.003-2.395-1.067-2.396-2.39
				c0-0.002,0-0.005,0-0.007"/>
			<circle fill="#383838" cx="119.82" cy="45" r="1.197"/>
		</g>
		<g id="A17pin">
			<path fill="#BFBFBF" d="M124.626,16.2c0.002-1.322,1.075-2.393,2.397-2.391c1.319,0.002,2.389,1.071,2.391,2.391"/>
			<path fill="#E6E6E6" d="M129.414,16.2c0.002,1.321-1.068,2.395-2.391,2.396s-2.396-1.067-2.397-2.39c0-0.002,0-0.005,0-0.007"/>
			<circle fill="#383838" cx="127.019" cy="16.2" r="1.197"/>
		</g>
		<g id="B17pin">
			<path fill="#BFBFBF" d="M124.626,23.4c0.002-1.321,1.075-2.392,2.397-2.39c1.319,0.002,2.389,1.071,2.391,2.39"/>
			<path fill="#E6E6E6" d="M129.414,23.4c0.002,1.322-1.068,2.396-2.391,2.397s-2.396-1.068-2.397-2.39c0-0.003,0-0.005,0-0.008"/>
			<circle fill="#383838" cx="127.019" cy="23.4" r="1.197"/>
		</g>
		<g id="C17pin">
			<path fill="#BFBFBF" d="M124.626,30.6c0.002-1.321,1.075-2.392,2.397-2.39c1.319,0.002,2.389,1.07,2.391,2.39"/>
			<path fill="#E6E6E6" d="M129.414,30.6c0.002,1.322-1.068,2.396-2.391,2.397s-2.396-1.068-2.397-2.39c0-0.003,0-0.005,0-0.008"/>
			<circle fill="#383838" cx="127.019" cy="30.6" r="1.197"/>
		</g>
		<g id="D17pin">
			<path fill="#BFBFBF" d="M124.626,37.8c0.002-1.322,1.075-2.392,2.397-2.39c1.319,0.002,2.389,1.07,2.391,2.39"/>
			<path fill="#E6E6E6" d="M129.414,37.8c0.002,1.322-1.068,2.396-2.391,2.397s-2.396-1.068-2.397-2.391c0-0.002,0-0.005,0-0.007"/>
			<circle fill="#383838" cx="127.019" cy="37.8" r="1.197"/>
		</g>
		<g id="E17pin">
			<path fill="#BFBFBF" d="M124.626,45c0.002-1.322,1.075-2.393,2.397-2.391c1.319,0.002,2.389,1.071,2.391,2.391"/>
			<path fill="#E6E6E6" d="M129.414,45c0.002,1.321-1.068,2.395-2.391,2.396c-1.322,0.003-2.396-1.067-2.397-2.39
				c0-0.002,0-0.005,0-0.007"/>
			<circle fill="#383838" cx="127.019" cy="45" r="1.197"/>
		</g>
		<g id="F1pin">
			<path fill="#BFBFBF" d="M9.427,66.6c0-1.322,1.071-2.394,2.394-2.394s2.394,1.071,2.394,2.394"/>
			<path fill="#E6E6E6" d="M14.214,66.6c0,1.322-1.071,2.394-2.394,2.394S9.427,67.922,9.427,66.6l0,0"/>
			<circle fill="#383838" cx="11.82" cy="66.6" r="1.197"/>
		</g>
		<g id="G1pin">
			<path fill="#BFBFBF" d="M9.427,73.8c0-1.322,1.071-2.394,2.394-2.394s2.394,1.071,2.394,2.394"/>
			<path fill="#E6E6E6" d="M14.214,73.8c0,1.322-1.071,2.394-2.394,2.394S9.427,75.122,9.427,73.8l0,0"/>
			<circle fill="#383838" cx="11.82" cy="73.8" r="1.197"/>
		</g>
		<g id="H1pin">
			<path fill="#BFBFBF" d="M9.427,81c0-1.322,1.071-2.394,2.394-2.394s2.394,1.071,2.394,2.394"/>
			<path fill="#E6E6E6" d="M14.214,81c0,1.321-1.071,2.394-2.394,2.394S9.427,82.322,9.427,81"/>
			<circle fill="#383838" cx="11.82" cy="81" r="1.197"/>
		</g>
		<g id="I1pin">
			<path fill="#BFBFBF" d="M9.427,88.2c0-1.322,1.071-2.395,2.394-2.395s2.394,1.072,2.394,2.395"/>
			<path fill="#E6E6E6" d="M14.214,88.2c0,1.321-1.071,2.394-2.394,2.394S9.427,89.522,9.427,88.2l0,0"/>
			<circle fill="#383838" cx="11.82" cy="88.2" r="1.197"/>
		</g>
		<g id="J1pin">
			<path fill="#BFBFBF" d="M9.427,95.4c0-1.321,1.071-2.394,2.394-2.394s2.394,1.072,2.394,2.394"/>
			<path fill="#E6E6E6" d="M14.214,95.4c0,1.322-1.071,2.394-2.394,2.394S9.427,96.722,9.427,95.4l0,0"/>
			<circle fill="#383838" cx="11.82" cy="95.4" r="1.197"/>
		</g>
		<g id="F2pin">
			<path fill="#BFBFBF" d="M16.627,66.6c0-1.322,1.071-2.394,2.394-2.394c1.321,0,2.394,1.071,2.394,2.394"/>
			<path fill="#E6E6E6" d="M21.414,66.6c0,1.322-1.07,2.395-2.393,2.396c-1.322,0-2.395-1.07-2.395-2.393c0-0.001,0-0.002,0-0.003"
				/>
			<circle fill="#383838" cx="19.02" cy="66.6" r="1.197"/>
		</g>
		<g id="G2pin">
			<path fill="#BFBFBF" d="M16.627,73.8c0-1.322,1.071-2.394,2.394-2.394c1.321,0,2.394,1.071,2.394,2.394"/>
			<path fill="#E6E6E6" d="M21.414,73.8c0,1.322-1.07,2.395-2.393,2.395c-1.322,0.001-2.395-1.07-2.395-2.392
				c0-0.001,0-0.002,0-0.003"/>
			<circle fill="#383838" cx="19.02" cy="73.8" r="1.197"/>
		</g>
		<g id="H2pin">
			<path fill="#BFBFBF" d="M16.627,81c0-1.322,1.071-2.394,2.394-2.394c1.321,0,2.394,1.071,2.394,2.394"/>
			<path fill="#E6E6E6" d="M21.414,81c0,1.321-1.07,2.394-2.393,2.395s-2.395-1.07-2.395-2.393c0,0,0-0.001,0-0.002"/>
			<circle fill="#383838" cx="19.02" cy="81" r="1.197"/>
		</g>
		<g id="I2pin">
			<path fill="#BFBFBF" d="M16.627,88.2c0-1.322,1.071-2.395,2.394-2.395c1.321,0,2.394,1.072,2.394,2.395"/>
			<path fill="#E6E6E6" d="M21.414,88.2c0,1.321-1.07,2.394-2.393,2.395s-2.395-1.07-2.395-2.393c0-0.001,0-0.002,0-0.002"/>
			<circle fill="#383838" cx="19.02" cy="88.2" r="1.197"/>
		</g>
		<g id="J2pin">
			<path fill="#BFBFBF" d="M16.627,95.4c0-1.321,1.071-2.394,2.394-2.394c1.321,0,2.394,1.072,2.394,2.394"/>
			<path fill="#E6E6E6" d="M21.414,95.4c0,1.322-1.07,2.395-2.393,2.396c-1.322,0-2.395-1.07-2.395-2.393c0-0.001,0-0.002,0-0.003"
				/>
			<circle fill="#383838" cx="19.02" cy="95.4" r="1.197"/>
		</g>
		<g id="F3pin">
			<path fill="#BFBFBF" d="M23.826,66.6c0-1.322,1.072-2.394,2.394-2.394c1.322,0,2.395,1.071,2.395,2.394"/>
			<path fill="#E6E6E6" d="M28.614,66.6c0,1.322-1.072,2.394-2.395,2.394c-1.321,0-2.394-1.071-2.394-2.394"/>
			<circle fill="#383838" cx="26.219" cy="66.6" r="1.197"/>
		</g>
		<g id="G3pin">
			<path fill="#BFBFBF" d="M23.826,73.8c0-1.322,1.072-2.394,2.394-2.394c1.322,0,2.395,1.071,2.395,2.394"/>
			<path fill="#E6E6E6" d="M28.614,73.8c0,1.322-1.072,2.394-2.395,2.394c-1.321,0-2.394-1.071-2.394-2.394"/>
			<circle fill="#383838" cx="26.219" cy="73.8" r="1.197"/>
		</g>
		<g id="H3pin">
			<path fill="#BFBFBF" d="M23.826,81c0-1.322,1.072-2.394,2.394-2.394c1.322,0,2.395,1.071,2.395,2.394"/>
			<path fill="#E6E6E6" d="M28.614,81c0,1.321-1.072,2.394-2.395,2.394c-1.321,0-2.394-1.072-2.394-2.394l0,0"/>
			<circle fill="#383838" cx="26.219" cy="81" r="1.197"/>
		</g>
		<g id="I3pin">
			<path fill="#BFBFBF" d="M23.826,88.2c0-1.322,1.072-2.395,2.394-2.395c1.322,0,2.395,1.072,2.395,2.395"/>
			<path fill="#E6E6E6" d="M28.614,88.2c0,1.321-1.072,2.394-2.395,2.394c-1.321,0-2.394-1.072-2.394-2.394"/>
			<circle fill="#383838" cx="26.219" cy="88.2" r="1.197"/>
		</g>
		<g id="J3pin">
			<path fill="#BFBFBF" d="M23.826,95.4c0-1.321,1.072-2.394,2.394-2.394c1.322,0,2.395,1.072,2.395,2.394"/>
			<path fill="#E6E6E6" d="M28.614,95.4c0,1.322-1.072,2.394-2.395,2.394c-1.321,0-2.394-1.071-2.394-2.394l0,0"/>
			<circle fill="#383838" cx="26.219" cy="95.4" r="1.197"/>
		</g>
		<g id="F4pin">
			<path fill="#BFBFBF" d="M31.026,66.6c0-1.322,1.072-2.394,2.394-2.394c1.322,0,2.394,1.071,2.394,2.394"/>
			<path fill="#E6E6E6" d="M35.813,66.6c0,1.322-1.071,2.394-2.394,2.394c-1.321,0-2.394-1.071-2.394-2.394"/>
			<circle fill="#383838" cx="33.42" cy="66.6" r="1.197"/>
		</g>
		<g id="G4pin">
			<path fill="#BFBFBF" d="M31.026,73.8c0-1.322,1.072-2.394,2.394-2.394c1.322,0,2.394,1.071,2.394,2.394"/>
			<path fill="#E6E6E6" d="M35.813,73.8c0,1.322-1.071,2.394-2.394,2.394c-1.321,0-2.394-1.071-2.394-2.394"/>
			<circle fill="#383838" cx="33.42" cy="73.8" r="1.197"/>
		</g>
		<g id="H4pin">
			<path fill="#BFBFBF" d="M31.026,81c0-1.322,1.072-2.394,2.394-2.394c1.322,0,2.394,1.071,2.394,2.394"/>
			<path fill="#E6E6E6" d="M35.813,81c0,1.321-1.071,2.394-2.394,2.394c-1.321,0-2.394-1.072-2.394-2.394l0,0"/>
			<circle fill="#383838" cx="33.42" cy="81" r="1.197"/>
		</g>
		<g id="I4pin">
			<path fill="#BFBFBF" d="M31.026,88.2c0-1.322,1.072-2.395,2.394-2.395c1.322,0,2.394,1.072,2.394,2.395"/>
			<path fill="#E6E6E6" d="M35.813,88.2c0,1.321-1.071,2.394-2.394,2.394c-1.321,0-2.394-1.072-2.394-2.394"/>
			<circle fill="#383838" cx="33.42" cy="88.2" r="1.197"/>
		</g>
		<g id="J4pin">
			<path fill="#BFBFBF" d="M31.026,95.4c0-1.321,1.072-2.394,2.394-2.394c1.322,0,2.394,1.072,2.394,2.394"/>
			<path fill="#E6E6E6" d="M35.813,95.4c0,1.322-1.071,2.394-2.394,2.394c-1.321,0-2.394-1.071-2.394-2.394l0,0"/>
			<circle fill="#383838" cx="33.42" cy="95.4" r="1.197"/>
		</g>
		<g id="F5pin">
			<path fill="#BFBFBF" d="M38.226,66.6c0-1.322,1.071-2.394,2.394-2.394s2.394,1.071,2.394,2.394"/>
			<path fill="#E6E6E6" d="M43.013,66.6c0,1.322-1.071,2.394-2.394,2.394s-2.394-1.071-2.394-2.394"/>
			<circle fill="#383838" cx="40.62" cy="66.6" r="1.197"/>
		</g>
		<g id="G5pin">
			<path fill="#BFBFBF" d="M38.226,73.8c0-1.322,1.071-2.394,2.394-2.394s2.394,1.071,2.394,2.394"/>
			<path fill="#E6E6E6" d="M43.013,73.8c0,1.322-1.071,2.394-2.394,2.394s-2.394-1.071-2.394-2.394"/>
			<circle fill="#383838" cx="40.62" cy="73.8" r="1.197"/>
		</g>
		<g id="H5pin">
			<path fill="#BFBFBF" d="M38.226,81c0-1.322,1.071-2.394,2.394-2.394s2.394,1.071,2.394,2.394"/>
			<path fill="#E6E6E6" d="M43.013,81c0,1.321-1.071,2.394-2.394,2.394S38.226,82.322,38.226,81l0,0"/>
			<circle fill="#383838" cx="40.62" cy="81" r="1.197"/>
		</g>
		<g id="I5pin">
			<path fill="#BFBFBF" d="M38.226,88.2c0-1.322,1.071-2.395,2.394-2.395s2.394,1.072,2.394,2.395"/>
			<path fill="#E6E6E6" d="M43.013,88.2c0,1.321-1.071,2.394-2.394,2.394s-2.394-1.072-2.394-2.394"/>
			<circle fill="#383838" cx="40.62" cy="88.2" r="1.197"/>
		</g>
		<g id="J5pin">
			<path fill="#BFBFBF" d="M38.226,95.4c0-1.321,1.071-2.394,2.394-2.394s2.394,1.072,2.394,2.394"/>
			<path fill="#E6E6E6" d="M43.013,95.4c0,1.322-1.071,2.394-2.394,2.394s-2.394-1.071-2.394-2.394l0,0"/>
			<circle fill="#383838" cx="40.62" cy="95.4" r="1.197"/>
		</g>
		<g id="F6pin">
			<path fill="#BFBFBF" d="M45.427,66.6c0-1.322,1.071-2.394,2.394-2.394s2.394,1.071,2.394,2.394"/>
			<path fill="#E6E6E6" d="M50.214,66.6c0,1.322-1.071,2.394-2.394,2.394s-2.394-1.071-2.394-2.394"/>
			<circle fill="#383838" cx="47.82" cy="66.6" r="1.197"/>
		</g>
		<g id="G6pin">
			<path fill="#BFBFBF" d="M45.427,73.8c0-1.322,1.071-2.394,2.394-2.394s2.394,1.071,2.394,2.394"/>
			<path fill="#E6E6E6" d="M50.214,73.8c0,1.322-1.071,2.394-2.394,2.394s-2.394-1.071-2.394-2.394"/>
			<circle fill="#383838" cx="47.82" cy="73.8" r="1.197"/>
		</g>
		<g id="H6pin">
			<path fill="#BFBFBF" d="M45.427,81c0-1.322,1.071-2.394,2.394-2.394s2.394,1.071,2.394,2.394"/>
			<path fill="#E6E6E6" d="M50.214,81c0,1.321-1.071,2.394-2.394,2.394S45.427,82.322,45.427,81l0,0"/>
			<circle fill="#383838" cx="47.82" cy="81" r="1.197"/>
		</g>
		<g id="I6pin">
			<path fill="#BFBFBF" d="M45.427,88.2c0-1.322,1.071-2.395,2.394-2.395s2.394,1.072,2.394,2.395"/>
			<path fill="#E6E6E6" d="M50.214,88.2c0,1.321-1.071,2.394-2.394,2.394s-2.394-1.072-2.394-2.394"/>
			<circle fill="#383838" cx="47.82" cy="88.2" r="1.197"/>
		</g>
		<g id="J6pin">
			<path fill="#BFBFBF" d="M45.427,95.4c0-1.321,1.071-2.394,2.394-2.394s2.394,1.072,2.394,2.394"/>
			<path fill="#E6E6E6" d="M50.214,95.4c0,1.322-1.071,2.394-2.394,2.394s-2.394-1.071-2.394-2.394l0,0"/>
			<circle fill="#383838" cx="47.82" cy="95.4" r="1.197"/>
		</g>
		<g id="F7pin">
			<path fill="#BFBFBF" d="M52.627,66.6c0-1.322,1.071-2.394,2.394-2.394c1.321,0,2.394,1.071,2.394,2.394"/>
			<path fill="#E6E6E6" d="M57.414,66.6c0,1.322-1.072,2.394-2.394,2.394c-1.322,0-2.394-1.071-2.394-2.394"/>
			<circle fill="#383838" cx="55.02" cy="66.6" r="1.197"/>
		</g>
		<g id="G7pin">
			<path fill="#BFBFBF" d="M52.627,73.8c0-1.322,1.071-2.394,2.394-2.394c1.321,0,2.394,1.071,2.394,2.394"/>
			<path fill="#E6E6E6" d="M57.414,73.8c0,1.322-1.072,2.394-2.394,2.394c-1.322,0-2.394-1.071-2.394-2.394"/>
			<circle fill="#383838" cx="55.02" cy="73.8" r="1.197"/>
		</g>
		<g id="H7pin">
			<path fill="#BFBFBF" d="M52.627,81c0-1.322,1.071-2.394,2.394-2.394c1.321,0,2.394,1.071,2.394,2.394"/>
			<path fill="#E6E6E6" d="M57.414,81c0,1.321-1.072,2.394-2.394,2.394c-1.322,0-2.394-1.072-2.394-2.394l0,0"/>
			<circle fill="#383838" cx="55.02" cy="81" r="1.197"/>
		</g>
		<g id="I7pin">
			<path fill="#BFBFBF" d="M52.627,88.2c0-1.322,1.071-2.395,2.394-2.395c1.321,0,2.394,1.072,2.394,2.395"/>
			<path fill="#E6E6E6" d="M57.414,88.2c0,1.321-1.072,2.394-2.394,2.394c-1.322,0-2.394-1.072-2.394-2.394"/>
			<circle fill="#383838" cx="55.02" cy="88.2" r="1.197"/>
		</g>
		<g id="J7pin">
			<path fill="#BFBFBF" d="M52.627,95.4c0-1.321,1.071-2.394,2.394-2.394c1.321,0,2.394,1.072,2.394,2.394"/>
			<path fill="#E6E6E6" d="M57.414,95.4c0,1.322-1.072,2.394-2.394,2.394c-1.322,0-2.394-1.071-2.394-2.394l0,0"/>
			<circle fill="#383838" cx="55.02" cy="95.4" r="1.197"/>
		</g>
		<g id="F8pin">
			<path fill="#BFBFBF" d="M59.826,66.6c0-1.322,1.072-2.394,2.394-2.394c1.322,0,2.394,1.071,2.394,2.394"/>
			<path fill="#E6E6E6" d="M64.613,66.6c0,1.322-1.071,2.394-2.394,2.394c-1.321,0-2.394-1.071-2.394-2.394"/>
			<circle fill="#383838" cx="62.219" cy="66.6" r="1.197"/>
		</g>
		<g id="G8pin">
			<path fill="#BFBFBF" d="M59.826,73.8c0-1.322,1.072-2.394,2.394-2.394c1.322,0,2.394,1.071,2.394,2.394"/>
			<path fill="#E6E6E6" d="M64.613,73.8c0,1.322-1.071,2.394-2.394,2.394c-1.321,0-2.394-1.071-2.394-2.394"/>
			<circle fill="#383838" cx="62.219" cy="73.8" r="1.197"/>
		</g>
		<g id="H8pin">
			<path fill="#BFBFBF" d="M59.826,81c0-1.322,1.072-2.394,2.394-2.394c1.322,0,2.394,1.071,2.394,2.394"/>
			<path fill="#E6E6E6" d="M64.613,81c0,1.321-1.071,2.394-2.394,2.394c-1.321,0-2.394-1.072-2.394-2.394l0,0"/>
			<circle fill="#383838" cx="62.219" cy="81" r="1.197"/>
		</g>
		<g id="I8pin">
			<path fill="#BFBFBF" d="M59.826,88.2c0-1.322,1.072-2.395,2.394-2.395c1.322,0,2.394,1.072,2.394,2.395"/>
			<path fill="#E6E6E6" d="M64.613,88.2c0,1.321-1.071,2.394-2.394,2.394c-1.321,0-2.394-1.072-2.394-2.394"/>
			<circle fill="#383838" cx="62.219" cy="88.2" r="1.197"/>
		</g>
		<g id="J8pin">
			<path fill="#BFBFBF" d="M59.826,95.4c0-1.321,1.072-2.394,2.394-2.394c1.322,0,2.394,1.072,2.394,2.394"/>
			<path fill="#E6E6E6" d="M64.613,95.4c0,1.322-1.071,2.394-2.394,2.394c-1.321,0-2.394-1.071-2.394-2.394l0,0"/>
			<circle fill="#383838" cx="62.219" cy="95.4" r="1.197"/>
		</g>
		<g id="F9pin">
			<path fill="#BFBFBF" d="M67.026,66.6c0-1.322,1.072-2.394,2.394-2.394c1.322,0,2.394,1.071,2.394,2.394"/>
			<path fill="#E6E6E6" d="M71.813,66.6c0,1.322-1.071,2.394-2.394,2.394c-1.321,0-2.394-1.071-2.394-2.394"/>
			<circle fill="#383838" cx="69.42" cy="66.6" r="1.197"/>
		</g>
		<g id="G9pin">
			<path fill="#BFBFBF" d="M67.026,73.8c0-1.322,1.072-2.394,2.394-2.394c1.322,0,2.394,1.071,2.394,2.394"/>
			<path fill="#E6E6E6" d="M71.813,73.8c0,1.322-1.071,2.394-2.394,2.394c-1.321,0-2.394-1.071-2.394-2.394"/>
			<circle fill="#383838" cx="69.42" cy="73.8" r="1.197"/>
		</g>
		<g id="H9pin">
			<path fill="#BFBFBF" d="M67.026,81c0-1.322,1.072-2.394,2.394-2.394c1.322,0,2.394,1.071,2.394,2.394"/>
			<path fill="#E6E6E6" d="M71.813,81c0,1.321-1.071,2.394-2.394,2.394c-1.321,0-2.394-1.072-2.394-2.394l0,0"/>
			<circle fill="#383838" cx="69.42" cy="81" r="1.197"/>
		</g>
		<g id="I9pin">
			<path fill="#BFBFBF" d="M67.026,88.2c0-1.322,1.072-2.395,2.394-2.395c1.322,0,2.394,1.072,2.394,2.395"/>
			<path fill="#E6E6E6" d="M71.813,88.2c0,1.321-1.071,2.394-2.394,2.394c-1.321,0-2.394-1.072-2.394-2.394"/>
			<circle fill="#383838" cx="69.42" cy="88.2" r="1.197"/>
		</g>
		<g id="J9pin">
			<path fill="#BFBFBF" d="M67.026,95.4c0-1.321,1.072-2.394,2.394-2.394c1.322,0,2.394,1.072,2.394,2.394"/>
			<path fill="#E6E6E6" d="M71.813,95.4c0,1.322-1.071,2.394-2.394,2.394c-1.321,0-2.394-1.071-2.394-2.394l0,0"/>
			<circle fill="#383838" cx="69.42" cy="95.4" r="1.197"/>
		</g>
		<g id="F10pin">
			<path fill="#BFBFBF" d="M74.226,66.6c0-1.322,1.071-2.394,2.394-2.394s2.394,1.071,2.394,2.394"/>
			<path fill="#E6E6E6" d="M79.013,66.6c0,1.322-1.071,2.394-2.394,2.394s-2.394-1.071-2.394-2.394"/>
			<circle fill="#383838" cx="76.62" cy="66.6" r="1.197"/>
		</g>
		<g id="G10pin">
			<path fill="#BFBFBF" d="M74.226,73.8c0-1.322,1.071-2.394,2.394-2.394s2.394,1.071,2.394,2.394"/>
			<path fill="#E6E6E6" d="M79.013,73.8c0,1.322-1.071,2.394-2.394,2.394s-2.394-1.071-2.394-2.394"/>
			<circle fill="#383838" cx="76.62" cy="73.8" r="1.197"/>
		</g>
		<g id="H10pin">
			<path fill="#BFBFBF" d="M74.226,81c0-1.322,1.071-2.394,2.394-2.394s2.394,1.071,2.394,2.394"/>
			<path fill="#E6E6E6" d="M79.013,81c0,1.321-1.071,2.394-2.394,2.394S74.226,82.322,74.226,81l0,0"/>
			<circle fill="#383838" cx="76.62" cy="81" r="1.197"/>
		</g>
		<g id="I10pin">
			<path fill="#BFBFBF" d="M74.226,88.2c0-1.322,1.071-2.395,2.394-2.395s2.394,1.072,2.394,2.395"/>
			<path fill="#E6E6E6" d="M79.013,88.2c0,1.321-1.071,2.394-2.394,2.394s-2.394-1.072-2.394-2.394"/>
			<circle fill="#383838" cx="76.62" cy="88.2" r="1.197"/>
		</g>
		<g id="J10pin">
			<path fill="#BFBFBF" d="M74.226,95.4c0-1.321,1.071-2.394,2.394-2.394s2.394,1.072,2.394,2.394"/>
			<path fill="#E6E6E6" d="M79.013,95.4c0,1.322-1.071,2.394-2.394,2.394s-2.394-1.071-2.394-2.394l0,0"/>
			<circle fill="#383838" cx="76.62" cy="95.4" r="1.197"/>
		</g>
		<g id="F11pin">
			<path fill="#BFBFBF" d="M81.427,66.6c0-1.322,1.071-2.394,2.394-2.394c1.321,0,2.394,1.071,2.394,2.394"/>
			<path fill="#E6E6E6" d="M86.214,66.6c0,1.322-1.072,2.394-2.394,2.394c-1.322,0-2.394-1.071-2.394-2.394"/>
			<circle fill="#383838" cx="83.82" cy="66.6" r="1.197"/>
		</g>
		<g id="G11pin">
			<path fill="#BFBFBF" d="M81.427,73.8c0-1.322,1.071-2.394,2.394-2.394c1.321,0,2.394,1.071,2.394,2.394"/>
			<path fill="#E6E6E6" d="M86.214,73.8c0,1.322-1.072,2.394-2.394,2.394c-1.322,0-2.394-1.071-2.394-2.394"/>
			<circle fill="#383838" cx="83.82" cy="73.8" r="1.197"/>
		</g>
		<g id="H11pin">
			<path fill="#BFBFBF" d="M81.427,81c0-1.322,1.071-2.394,2.394-2.394c1.321,0,2.394,1.071,2.394,2.394"/>
			<path fill="#E6E6E6" d="M86.214,81c0,1.321-1.072,2.394-2.394,2.394c-1.322,0-2.394-1.072-2.394-2.394l0,0"/>
			<circle fill="#383838" cx="83.82" cy="81" r="1.197"/>
		</g>
		<g id="I11pin">
			<path fill="#BFBFBF" d="M81.427,88.2c0-1.322,1.071-2.395,2.394-2.395c1.321,0,2.394,1.072,2.394,2.395"/>
			<path fill="#E6E6E6" d="M86.214,88.2c0,1.321-1.072,2.394-2.394,2.394c-1.322,0-2.394-1.072-2.394-2.394"/>
			<circle fill="#383838" cx="83.82" cy="88.2" r="1.197"/>
		</g>
		<g id="J11pin">
			<path fill="#BFBFBF" d="M81.427,95.4c0-1.321,1.071-2.394,2.394-2.394c1.321,0,2.394,1.072,2.394,2.394"/>
			<path fill="#E6E6E6" d="M86.214,95.4c0,1.322-1.072,2.394-2.394,2.394c-1.322,0-2.394-1.071-2.394-2.394l0,0"/>
			<circle fill="#383838" cx="83.82" cy="95.4" r="1.197"/>
		</g>
		<g id="F12pin">
			<path fill="#BFBFBF" d="M88.627,66.6c0-1.322,1.071-2.394,2.394-2.394c1.321,0,2.394,1.071,2.394,2.394"/>
			<path fill="#E6E6E6" d="M93.414,66.6c0,1.322-1.072,2.394-2.394,2.394c-1.322,0-2.394-1.071-2.394-2.394"/>
			<circle fill="#383838" cx="91.02" cy="66.6" r="1.197"/>
		</g>
		<g id="G12pin">
			<path fill="#BFBFBF" d="M88.627,73.8c0-1.322,1.071-2.394,2.394-2.394c1.321,0,2.394,1.071,2.394,2.394"/>
			<path fill="#E6E6E6" d="M93.414,73.8c0,1.322-1.072,2.394-2.394,2.394c-1.322,0-2.394-1.071-2.394-2.394"/>
			<circle fill="#383838" cx="91.02" cy="73.8" r="1.197"/>
		</g>
		<g id="H12pin">
			<path fill="#BFBFBF" d="M88.627,81c0-1.322,1.071-2.394,2.394-2.394c1.321,0,2.394,1.071,2.394,2.394"/>
			<path fill="#E6E6E6" d="M93.414,81c0,1.321-1.072,2.394-2.394,2.394c-1.322,0-2.394-1.072-2.394-2.394l0,0"/>
			<circle fill="#383838" cx="91.02" cy="81" r="1.197"/>
		</g>
		<g id="I12pin">
			<path fill="#BFBFBF" d="M88.627,88.2c0-1.322,1.071-2.395,2.394-2.395c1.321,0,2.394,1.072,2.394,2.395"/>
			<path fill="#E6E6E6" d="M93.414,88.2c0,1.321-1.072,2.394-2.394,2.394c-1.322,0-2.394-1.072-2.394-2.394"/>
			<circle fill="#383838" cx="91.02" cy="88.2" r="1.197"/>
		</g>
		<g id="J12pin">
			<path fill="#BFBFBF" d="M88.627,95.4c0-1.321,1.071-2.394,2.394-2.394c1.321,0,2.394,1.072,2.394,2.394"/>
			<path fill="#E6E6E6" d="M93.414,95.4c0,1.322-1.072,2.394-2.394,2.394c-1.322,0-2.394-1.071-2.394-2.394l0,0"/>
			<circle fill="#383838" cx="91.02" cy="95.4" r="1.197"/>
		</g>
		<g id="F13pin">
			<path fill="#BFBFBF" d="M95.826,66.6c0-1.322,1.072-2.394,2.394-2.394c1.322,0,2.394,1.071,2.394,2.394"/>
			<path fill="#E6E6E6" d="M100.613,66.6c0,1.322-1.071,2.394-2.394,2.394c-1.321,0-2.394-1.071-2.394-2.394"/>
			<circle fill="#383838" cx="98.219" cy="66.6" r="1.197"/>
		</g>
		<g id="G13pin">
			<path fill="#BFBFBF" d="M95.826,73.8c0-1.322,1.072-2.394,2.394-2.394c1.322,0,2.394,1.071,2.394,2.394"/>
			<path fill="#E6E6E6" d="M100.613,73.8c0,1.322-1.071,2.394-2.394,2.394c-1.321,0-2.394-1.071-2.394-2.394"/>
			<circle fill="#383838" cx="98.219" cy="73.8" r="1.197"/>
		</g>
		<g id="H13pin">
			<path fill="#BFBFBF" d="M95.826,81c0-1.322,1.072-2.394,2.394-2.394c1.322,0,2.394,1.071,2.394,2.394"/>
			<path fill="#E6E6E6" d="M100.613,81c0,1.321-1.071,2.394-2.394,2.394c-1.321,0-2.394-1.072-2.394-2.394l0,0"/>
			<circle fill="#383838" cx="98.219" cy="81" r="1.197"/>
		</g>
		<g id="I13pin">
			<path fill="#BFBFBF" d="M95.826,88.2c0-1.322,1.072-2.395,2.394-2.395c1.322,0,2.394,1.072,2.394,2.395"/>
			<path fill="#E6E6E6" d="M100.613,88.2c0,1.321-1.071,2.394-2.394,2.394c-1.321,0-2.394-1.072-2.394-2.394"/>
			<circle fill="#383838" cx="98.219" cy="88.2" r="1.197"/>
		</g>
		<g id="J13pin">
			<path fill="#BFBFBF" d="M95.826,95.4c0-1.321,1.072-2.394,2.394-2.394c1.322,0,2.394,1.072,2.394,2.394"/>
			<path fill="#E6E6E6" d="M100.613,95.4c0,1.322-1.071,2.394-2.394,2.394c-1.321,0-2.394-1.071-2.394-2.394l0,0"/>
			<circle fill="#383838" cx="98.219" cy="95.4" r="1.197"/>
		</g>
		<g id="F14pin">
			<path fill="#BFBFBF" d="M103.026,66.6c0-1.322,1.071-2.394,2.394-2.394s2.394,1.071,2.394,2.394"/>
			<path fill="#E6E6E6" d="M107.813,66.6c0,1.322-1.071,2.394-2.394,2.394s-2.394-1.071-2.394-2.394"/>
			<circle fill="#383838" cx="105.42" cy="66.6" r="1.197"/>
		</g>
		<g id="G14pin">
			<path fill="#BFBFBF" d="M103.026,73.8c0-1.322,1.071-2.394,2.394-2.394s2.394,1.071,2.394,2.394"/>
			<path fill="#E6E6E6" d="M107.813,73.8c0,1.322-1.071,2.394-2.394,2.394s-2.394-1.071-2.394-2.394"/>
			<circle fill="#383838" cx="105.42" cy="73.8" r="1.197"/>
		</g>
		<g id="H14pin">
			<path fill="#BFBFBF" d="M103.026,81c0-1.322,1.071-2.394,2.394-2.394s2.394,1.071,2.394,2.394"/>
			<path fill="#E6E6E6" d="M107.813,81c0,1.321-1.071,2.394-2.394,2.394s-2.394-1.072-2.394-2.394l0,0"/>
			<circle fill="#383838" cx="105.42" cy="81" r="1.197"/>
		</g>
		<g id="I14pin">
			<path fill="#BFBFBF" d="M103.026,88.2c0-1.322,1.071-2.395,2.394-2.395s2.394,1.072,2.394,2.395"/>
			<path fill="#E6E6E6" d="M107.813,88.2c0,1.321-1.071,2.394-2.394,2.394s-2.394-1.072-2.394-2.394"/>
			<circle fill="#383838" cx="105.42" cy="88.2" r="1.197"/>
		</g>
		<g id="J14pin">
			<path fill="#BFBFBF" d="M103.026,95.4c0-1.321,1.071-2.394,2.394-2.394s2.394,1.072,2.394,2.394"/>
			<path fill="#E6E6E6" d="M107.813,95.4c0,1.322-1.071,2.394-2.394,2.394s-2.394-1.071-2.394-2.394l0,0"/>
			<circle fill="#383838" cx="105.42" cy="95.4" r="1.197"/>
		</g>
		<g id="F15pin">
			<path fill="#BFBFBF" d="M110.226,66.6c0.002-1.322,1.075-2.392,2.397-2.39c1.318,0.002,2.388,1.07,2.39,2.39"/>
			<path fill="#E6E6E6" d="M115.013,66.6c0.002,1.322-1.068,2.396-2.39,2.397c-1.322,0.002-2.396-1.068-2.397-2.391
				c0-0.002,0-0.004,0-0.007"/>
			<circle fill="#383838" cx="112.62" cy="66.6" r="1.197"/>
		</g>
		<g id="G15pin">
			<path fill="#BFBFBF" d="M110.226,73.8c0.002-1.322,1.075-2.392,2.397-2.39c1.318,0.002,2.388,1.07,2.39,2.39"/>
			<path fill="#E6E6E6" d="M115.013,73.8c0.002,1.322-1.068,2.396-2.39,2.397c-1.322,0.002-2.396-1.068-2.397-2.391
				c0-0.002,0-0.005,0-0.007"/>
			<circle fill="#383838" cx="112.62" cy="73.8" r="1.197"/>
		</g>
		<g id="H15pin">
			<path fill="#BFBFBF" d="M110.226,81c0.002-1.322,1.075-2.393,2.397-2.391c1.318,0.002,2.388,1.071,2.39,2.391"/>
			<path fill="#E6E6E6" d="M115.013,81c0.002,1.321-1.068,2.395-2.39,2.396c-1.322,0.002-2.396-1.067-2.397-2.39
				c0-0.002,0-0.005,0-0.007"/>
			<circle fill="#383838" cx="112.62" cy="81" r="1.197"/>
		</g>
		<g id="I15pin">
			<path fill="#BFBFBF" d="M110.226,88.2c0.002-1.322,1.075-2.393,2.397-2.391c1.318,0.002,2.388,1.071,2.39,2.391"/>
			<path fill="#E6E6E6" d="M115.013,88.2c0.002,1.321-1.068,2.395-2.39,2.396c-1.322,0.002-2.396-1.068-2.397-2.39
				c0-0.003,0-0.005,0-0.007"/>
			<circle fill="#383838" cx="112.62" cy="88.2" r="1.197"/>
		</g>
		<g id="J15pin">
			<path fill="#BFBFBF" d="M110.226,95.4c0.002-1.321,1.075-2.392,2.397-2.39c1.318,0.002,2.388,1.07,2.39,2.39"/>
			<path fill="#E6E6E6" d="M115.013,95.4c0.002,1.322-1.068,2.396-2.39,2.397c-1.322,0.002-2.396-1.068-2.397-2.39
				c0-0.003,0-0.005,0-0.008"/>
			<circle fill="#383838" cx="112.62" cy="95.4" r="1.197"/>
		</g>
		<g id="F16pin">
			<path fill="#BFBFBF" d="M117.427,66.6c0.002-1.322,1.075-2.392,2.396-2.39c1.319,0.002,2.389,1.07,2.391,2.39"/>
			<path fill="#E6E6E6" d="M122.214,66.6c0.002,1.322-1.068,2.396-2.391,2.397c-1.321,0.002-2.395-1.068-2.396-2.391
				c0-0.002,0-0.004,0-0.007"/>
			<circle fill="#383838" cx="119.82" cy="66.6" r="1.197"/>
		</g>
		<g id="G16pin">
			<path fill="#BFBFBF" d="M117.427,73.8c0.002-1.322,1.075-2.392,2.396-2.39c1.319,0.002,2.389,1.07,2.391,2.39"/>
			<path fill="#E6E6E6" d="M122.214,73.8c0.002,1.322-1.068,2.396-2.391,2.397c-1.321,0.002-2.395-1.068-2.396-2.391
				c0-0.002,0-0.005,0-0.007"/>
			<circle fill="#383838" cx="119.82" cy="73.8" r="1.197"/>
		</g>
		<g id="H16pin">
			<path fill="#BFBFBF" d="M117.427,81c0.002-1.322,1.075-2.393,2.396-2.391c1.319,0.002,2.389,1.071,2.391,2.391"/>
			<path fill="#E6E6E6" d="M122.214,81c0.002,1.321-1.068,2.395-2.391,2.396c-1.321,0.002-2.395-1.067-2.396-2.39
				c0-0.002,0-0.005,0-0.007"/>
			<circle fill="#383838" cx="119.82" cy="81" r="1.197"/>
		</g>
		<g id="I16pin">
			<path fill="#BFBFBF" d="M117.427,88.2c0.002-1.322,1.075-2.393,2.396-2.391c1.319,0.002,2.389,1.071,2.391,2.391"/>
			<path fill="#E6E6E6" d="M122.214,88.2c0.002,1.321-1.068,2.395-2.391,2.396c-1.321,0.002-2.395-1.068-2.396-2.39
				c0-0.003,0-0.005,0-0.007"/>
			<circle fill="#383838" cx="119.82" cy="88.2" r="1.197"/>
		</g>
		<g id="J16pin">
			<path fill="#BFBFBF" d="M117.427,95.4c0.002-1.321,1.075-2.392,2.396-2.39c1.319,0.002,2.389,1.07,2.391,2.39"/>
			<path fill="#E6E6E6" d="M122.214,95.4c0.002,1.322-1.068,2.396-2.391,2.397c-1.321,0.002-2.395-1.068-2.396-2.39
				c0-0.003,0-0.005,0-0.008"/>
			<circle fill="#383838" cx="119.82" cy="95.4" r="1.197"/>
		</g>
		<g id="F17pin">
			<path fill="#BFBFBF" d="M124.626,66.6c0.002-1.322,1.075-2.392,2.397-2.39c1.319,0.002,2.389,1.07,2.391,2.39"/>
			<path fill="#E6E6E6" d="M129.414,66.6c0.002,1.322-1.068,2.396-2.391,2.397s-2.396-1.068-2.397-2.391c0-0.002,0-0.004,0-0.007"/>
			<circle fill="#383838" cx="127.019" cy="66.6" r="1.197"/>
		</g>
		<g id="G17pin">
			<path fill="#BFBFBF" d="M124.626,73.8c0.002-1.322,1.075-2.392,2.397-2.39c1.319,0.002,2.389,1.07,2.391,2.39"/>
			<path fill="#E6E6E6" d="M129.414,73.8c0.002,1.322-1.068,2.396-2.391,2.397s-2.396-1.068-2.397-2.391c0-0.002,0-0.005,0-0.007"/>
			<circle fill="#383838" cx="127.019" cy="73.8" r="1.197"/>
		</g>
		<g id="H17pin">
			<path fill="#BFBFBF" d="M124.626,81c0.002-1.322,1.075-2.393,2.397-2.391c1.319,0.002,2.389,1.071,2.391,2.391"/>
			<path fill="#E6E6E6" d="M129.414,81c0.002,1.321-1.068,2.395-2.391,2.396s-2.396-1.067-2.397-2.39c0-0.002,0-0.005,0-0.007"/>
			<circle fill="#383838" cx="127.019" cy="81" r="1.197"/>
		</g>
		<g id="I17pin">
			<path fill="#BFBFBF" d="M124.626,88.2c0.002-1.322,1.075-2.393,2.397-2.391c1.319,0.002,2.389,1.071,2.391,2.391"/>
			<path fill="#E6E6E6" d="M129.414,88.2c0.002,1.321-1.068,2.395-2.391,2.396s-2.396-1.068-2.397-2.39c0-0.003,0-0.005,0-0.007"/>
			<circle fill="#383838" cx="127.019" cy="88.2" r="1.197"/>
		</g>
		<g id="J17pin">
			<path fill="#BFBFBF" d="M124.626,95.4c0.002-1.321,1.075-2.392,2.397-2.39c1.319,0.002,2.389,1.07,2.391,2.39"/>
			<path fill="#E6E6E6" d="M129.414,95.4c0.002,1.322-1.068,2.396-2.391,2.397s-2.396-1.068-2.397-2.39c0-0.003,0-0.005,0-0.008"/>
			<circle fill="#383838" cx="127.019" cy="95.4" r="1.197"/>
		</g>
	</g>
</g>
</svg>
