<?xml version="1.0" encoding="utf-8"?>
<svg version="1.2" baseProfile="tiny" id="svg2" xmlns="http://www.w3.org/2000/svg" xmlns:xlink="http://www.w3.org/1999/xlink"
	 width="0.660022in" height="0.82in" viewBox="0 0 66.0022 82.0" xml:space="preserve">

<g id="breadboard">

        <rect id="connector13terminal" x="1.87" y="1" fill="#8C8C8C" width="2.3" height="0"/>
        <rect id="connector13pin" x="1.87" y="0" fill="#8C8C8C" width="2.3" height="3.5"/>
        <rect id="connector12terminal" x="11.87" y="1" fill="#8C8C8C" width="2.3" height="0"/>
        <rect id="connector12pin" x="11.87" y="0" fill="#8C8C8C" width="2.3" height="3.5"/>
        <rect id="connector11terminal" x="21.87" y="1" fill="#8C8C8C" width="2.3" height="0"/>
        <rect id="connector11pin" x="21.87" y="0" fill="#8C8C8C" width="2.3" height="3.5"/>
        <rect id="connector10terminal" x="31.87" y="1" fill="#8C8C8C" width="2.3" height="0"/>
        <rect id="connector10pin" x="31.87" y="0" fill="#8C8C8C" width="2.3" height="3.5"/>
        <rect id="connector9terminal" x="41.87" y="1" fill="#8C8C8C" width="2.3" height="0"/>
        <rect id="connector9pin" x="41.87" y="0" fill="#8C8C8C" width="2.3" height="3.5"/>
        <rect id="connector8terminal" x="51.87" y="1" fill="#8C8C8C" width="2.3" height="0"/>
        <rect id="connector8pin" x="51.87" y="0" fill="#8C8C8C" width="2.3" height="3.5"/>
        <rect id="connector7terminal" x="61.87" y="1" fill="#8C8C8C" width="2.3" height="0"/>
        <rect id="connector7pin" x="61.87" y="0" fill="#8C8C8C" width="2.3" height="3.5"/>

 <rect width="66.0022" x="0" y="2.5" height="76.5" fill="#000000" id="upper" stroke-width="0" />
 <rect width="66.0022" x="0" y="76.5" fill="#404040" height="3.096" id="lower" stroke-width="0" />

 <text id="label" x="2.5894" y="41.0" fill="#e6e6e6" stroke="none" font-family="DroidSans" text-anchor="start" font-size="7.3" >?</text>

  <circle fill="#8C8C8C" cx="61.0022" cy="7.5" r="3" stroke-width="0" />
  <text x="61.0022" y="9.2" font-family="DroidSans" text-anchor="middle" font-weight="bold" stroke-width="0" font-size="5.5" >?</text>


        <rect id="connector0terminal" x="1.87" y="81.0" fill="#8C8C8C" width="2.3" height="0"/>
        <rect id="connector0pin" x="1.87" y="77.75" fill="#8C8C8C" width="2.3" height="4.25"/>
        <rect id="connector1terminal" x="11.87" y="81.0" fill="#8C8C8C" width="2.3" height="0"/>
        <rect id="connector1pin" x="11.87" y="77.75" fill="#8C8C8C" width="2.3" height="4.25"/>
        <rect id="connector2terminal" x="21.87" y="81.0" fill="#8C8C8C" width="2.3" height="0"/>
        <rect id="connector2pin" x="21.87" y="77.75" fill="#8C8C8C" width="2.3" height="4.25"/>
        <rect id="connector3terminal" x="31.87" y="81.0" fill="#8C8C8C" width="2.3" height="0"/>
        <rect id="connector3pin" x="31.87" y="77.75" fill="#8C8C8C" width="2.3" height="4.25"/>
        <rect id="connector4terminal" x="41.87" y="81.0" fill="#8C8C8C" width="2.3" height="0"/>
        <rect id="connector4pin" x="41.87" y="77.75" fill="#8C8C8C" width="2.3" height="4.25"/>
        <rect id="connector5terminal" x="51.87" y="81.0" fill="#8C8C8C" width="2.3" height="0"/>
        <rect id="connector5pin" x="51.87" y="77.75" fill="#8C8C8C" width="2.3" height="4.25"/>
        <rect id="connector6terminal" x="61.87" y="81.0" fill="#8C8C8C" width="2.3" height="0"/>
        <rect id="connector6pin" x="61.87" y="77.75" fill="#8C8C8C" width="2.3" height="4.25"/>
        

</g>
</svg>
