<?xml version="1.0" encoding="UTF-8" standalone="no"?>
<svg
   xmlns:svg="http://www.w3.org/2000/svg"
   xmlns="http://www.w3.org/2000/svg"
   version="1.0"
   baseProfile="tiny"
   id="svg2"
   width="5.42in"
   height="0.3in"
   viewBox="0 0 542 30">
  <g id="breadboard">
  <polygon
     id="bodybottom"
     points="0,18.5 542,18.5 542,27 0,27 0,18.5 " />
  <polygon
     style="fill:#3d3d3d"
     id="bodytop"
     points="0,0 542,0 542,8.5 0,8.5 0,0 " />
  <polygon
     style="fill:#1f1f1f"
     id="polygon58"
     points="0,0 0.75,2.46 0.75,8.5 5,8.5 5,18.5 0.75,18.5 0.75,24.54 0,27 0,0 " />
  <polygon
     style="fill:#141414"
     id="bodyright"
     points="542,0 541.25,2.46 539.85,2.46 539.85,24.53 541.25,24.54 542,27 542,0 " />
  <rect
     y="2.205883"
     x="0.69999999"
     height="22.517677"
     width="540.6"
     id="rect2477"
     style="fill:#000000;fill-opacity:1;stroke:none;stroke-miterlimit:4;stroke-dasharray:none;stroke-opacity:1" />
  <path
     style="fill:#262626"
     id="path66"
     d="M 0.56,10.58 L 0.56,16.41 C 2.03,16.24 3.18,15.01 3.18,13.49 C 3.18,11.97 2.04,10.75 0.56,10.58 z" />     
  <polygon
     style="fill:#8c8c8c"
     id="pinflare0"
     points="3.5,25.66 3.5,27.66 6.5,27.66 8.5,26.74 8.5,25.66 3.5,25.66 " />
  <rect
     style="fill:#8c8c8c"
     height="3"
     width="3"
     y="27"
     x="3.5"
     id="connector0terminal" />
  <rect
     style="fill:#8c8c8c"
     id="connector0pin"
     height="4.3400002"
     width="3"
     y="25.672941"
     x="3.5" />
  <polygon
     style="fill:#8c8c8c"
     id="pinflare1"
     points="13.5,25.66 13.5,27.66 16.5,27.66 18.5,26.74 18.5,25.66 13.5,25.66 " />
  <rect
     style="fill:#8c8c8c"
     height="3"
     width="3"
     y="27"
     x="13.5"
     id="connector1terminal" />
  <rect
     style="fill:#8c8c8c"
     id="connector1pin"
     height="4.3400002"
     width="3"
     y="25.672941"
     x="13.5" />
  <polygon
     style="fill:#8c8c8c"
     id="pinflare2"
     points="23.5,25.66 23.5,27.66 26.5,27.66 28.5,26.74 28.5,25.66 23.5,25.66 " />
  <rect
     style="fill:#8c8c8c"
     height="3"
     width="3"
     y="27"
     x="23.5"
     id="connector2terminal" />
  <rect
     style="fill:#8c8c8c"
     id="connector2pin"
     height="4.3400002"
     width="3"
     y="25.672941"
     x="23.5" />
  <polygon
     style="fill:#8c8c8c"
     id="pinflare3"
     points="33.5,25.66 33.5,27.66 36.5,27.66 38.5,26.74 38.5,25.66 33.5,25.66 " />
  <rect
     style="fill:#8c8c8c"
     height="3"
     width="3"
     y="27"
     x="33.5"
     id="connector3terminal" />
  <rect
     style="fill:#8c8c8c"
     id="connector3pin"
     height="4.3400002"
     width="3"
     y="25.672941"
     x="33.5" />
  <polygon
     style="fill:#8c8c8c"
     id="pinflare4"
     points="43.5,25.66 43.5,27.66 46.5,27.66 48.5,26.74 48.5,25.66 43.5,25.66 " />
  <rect
     style="fill:#8c8c8c"
     height="3"
     width="3"
     y="27"
     x="43.5"
     id="connector4terminal" />
  <rect
     style="fill:#8c8c8c"
     id="connector4pin"
     height="4.3400002"
     width="3"
     y="25.672941"
     x="43.5" />
  <polygon
     style="fill:#8c8c8c"
     id="pinflare5"
     points="53.5,25.66 53.5,27.66 56.5,27.66 58.5,26.74 58.5,25.66 53.5,25.66 " />
  <rect
     style="fill:#8c8c8c"
     height="3"
     width="3"
     y="27"
     x="53.5"
     id="connector5terminal" />
  <rect
     style="fill:#8c8c8c"
     id="connector5pin"
     height="4.3400002"
     width="3"
     y="25.672941"
     x="53.5" />
  <polygon
     style="fill:#8c8c8c"
     id="pinflare6"
     points="63.5,25.66 63.5,27.66 66.5,27.66 68.5,26.74 68.5,25.66 63.5,25.66 " />
  <rect
     style="fill:#8c8c8c"
     height="3"
     width="3"
     y="27"
     x="63.5"
     id="connector6terminal" />
  <rect
     style="fill:#8c8c8c"
     id="connector6pin"
     height="4.3400002"
     width="3"
     y="25.672941"
     x="63.5" />
  <polygon
     style="fill:#8c8c8c"
     id="pinflare7"
     points="73.5,25.66 73.5,27.66 76.5,27.66 78.5,26.74 78.5,25.66 73.5,25.66 " />
  <rect
     style="fill:#8c8c8c"
     height="3"
     width="3"
     y="27"
     x="73.5"
     id="connector7terminal" />
  <rect
     style="fill:#8c8c8c"
     id="connector7pin"
     height="4.3400002"
     width="3"
     y="25.672941"
     x="73.5" />
  <polygon
     style="fill:#8c8c8c"
     id="pinflare8"
     points="83.5,25.66 83.5,27.66 86.5,27.66 88.5,26.74 88.5,25.66 83.5,25.66 " />
  <rect
     style="fill:#8c8c8c"
     height="3"
     width="3"
     y="27"
     x="83.5"
     id="connector8terminal" />
  <rect
     style="fill:#8c8c8c"
     id="connector8pin"
     height="4.3400002"
     width="3"
     y="25.672941"
     x="83.5" />
  <polygon
     style="fill:#8c8c8c"
     id="pinflare9"
     points="93.5,25.66 93.5,27.66 96.5,27.66 98.5,26.74 98.5,25.66 93.5,25.66 " />
  <rect
     style="fill:#8c8c8c"
     height="3"
     width="3"
     y="27"
     x="93.5"
     id="connector9terminal" />
  <rect
     style="fill:#8c8c8c"
     id="connector9pin"
     height="4.3400002"
     width="3"
     y="25.672941"
     x="93.5" />
  <polygon
     style="fill:#8c8c8c"
     id="pinflare10"
     points="103.5,25.66 103.5,27.66 106.5,27.66 108.5,26.74 108.5,25.66 103.5,25.66 " />
  <rect
     style="fill:#8c8c8c"
     height="3"
     width="3"
     y="27"
     x="103.5"
     id="connector10terminal" />
  <rect
     style="fill:#8c8c8c"
     id="connector10pin"
     height="4.3400002"
     width="3"
     y="25.672941"
     x="103.5" />
  <polygon
     style="fill:#8c8c8c"
     id="pinflare11"
     points="113.5,25.66 113.5,27.66 116.5,27.66 118.5,26.74 118.5,25.66 113.5,25.66 " />
  <rect
     style="fill:#8c8c8c"
     height="3"
     width="3"
     y="27"
     x="113.5"
     id="connector11terminal" />
  <rect
     style="fill:#8c8c8c"
     id="connector11pin"
     height="4.3400002"
     width="3"
     y="25.672941"
     x="113.5" />
  <polygon
     style="fill:#8c8c8c"
     id="pinflare12"
     points="123.5,25.66 123.5,27.66 126.5,27.66 128.5,26.74 128.5,25.66 123.5,25.66 " />
  <rect
     style="fill:#8c8c8c"
     height="3"
     width="3"
     y="27"
     x="123.5"
     id="connector12terminal" />
  <rect
     style="fill:#8c8c8c"
     id="connector12pin"
     height="4.3400002"
     width="3"
     y="25.672941"
     x="123.5" />
  <polygon
     style="fill:#8c8c8c"
     id="pinflare13"
     points="133.5,25.66 133.5,27.66 136.5,27.66 138.5,26.74 138.5,25.66 133.5,25.66 " />
  <rect
     style="fill:#8c8c8c"
     height="3"
     width="3"
     y="27"
     x="133.5"
     id="connector13terminal" />
  <rect
     style="fill:#8c8c8c"
     id="connector13pin"
     height="4.3400002"
     width="3"
     y="25.672941"
     x="133.5" />
  <polygon
     style="fill:#8c8c8c"
     id="pinflare14"
     points="143.5,25.66 143.5,27.66 146.5,27.66 148.5,26.74 148.5,25.66 143.5,25.66 " />
  <rect
     style="fill:#8c8c8c"
     height="3"
     width="3"
     y="27"
     x="143.5"
     id="connector14terminal" />
  <rect
     style="fill:#8c8c8c"
     id="connector14pin"
     height="4.3400002"
     width="3"
     y="25.672941"
     x="143.5" />
  <polygon
     style="fill:#8c8c8c"
     id="pinflare15"
     points="153.5,25.66 153.5,27.66 156.5,27.66 158.5,26.74 158.5,25.66 153.5,25.66 " />
  <rect
     style="fill:#8c8c8c"
     height="3"
     width="3"
     y="27"
     x="153.5"
     id="connector15terminal" />
  <rect
     style="fill:#8c8c8c"
     id="connector15pin"
     height="4.3400002"
     width="3"
     y="25.672941"
     x="153.5" />
  <polygon
     style="fill:#8c8c8c"
     id="pinflare16"
     points="163.5,25.66 163.5,27.66 166.5,27.66 168.5,26.74 168.5,25.66 163.5,25.66 " />
  <rect
     style="fill:#8c8c8c"
     height="3"
     width="3"
     y="27"
     x="163.5"
     id="connector16terminal" />
  <rect
     style="fill:#8c8c8c"
     id="connector16pin"
     height="4.3400002"
     width="3"
     y="25.672941"
     x="163.5" />
  <polygon
     style="fill:#8c8c8c"
     id="pinflare17"
     points="173.5,25.66 173.5,27.66 176.5,27.66 178.5,26.74 178.5,25.66 173.5,25.66 " />
  <rect
     style="fill:#8c8c8c"
     height="3"
     width="3"
     y="27"
     x="173.5"
     id="connector17terminal" />
  <rect
     style="fill:#8c8c8c"
     id="connector17pin"
     height="4.3400002"
     width="3"
     y="25.672941"
     x="173.5" />
  <polygon
     style="fill:#8c8c8c"
     id="pinflare18"
     points="183.5,25.66 183.5,27.66 186.5,27.66 188.5,26.74 188.5,25.66 183.5,25.66 " />
  <rect
     style="fill:#8c8c8c"
     height="3"
     width="3"
     y="27"
     x="183.5"
     id="connector18terminal" />
  <rect
     style="fill:#8c8c8c"
     id="connector18pin"
     height="4.3400002"
     width="3"
     y="25.672941"
     x="183.5" />
  <polygon
     style="fill:#8c8c8c"
     id="pinflare19"
     points="193.5,25.66 193.5,27.66 196.5,27.66 198.5,26.74 198.5,25.66 193.5,25.66 " />
  <rect
     style="fill:#8c8c8c"
     height="3"
     width="3"
     y="27"
     x="193.5"
     id="connector19terminal" />
  <rect
     style="fill:#8c8c8c"
     id="connector19pin"
     height="4.3400002"
     width="3"
     y="25.672941"
     x="193.5" />
  <polygon
     style="fill:#8c8c8c"
     id="pinflare20"
     points="203.5,25.66 203.5,27.66 206.5,27.66 208.5,26.74 208.5,25.66 203.5,25.66 " />
  <rect
     style="fill:#8c8c8c"
     height="3"
     width="3"
     y="27"
     x="203.5"
     id="connector20terminal" />
  <rect
     style="fill:#8c8c8c"
     id="connector20pin"
     height="4.3400002"
     width="3"
     y="25.672941"
     x="203.5" />
  <polygon
     style="fill:#8c8c8c"
     id="pinflare21"
     points="213.5,25.66 213.5,27.66 216.5,27.66 218.5,26.74 218.5,25.66 213.5,25.66 " />
  <rect
     style="fill:#8c8c8c"
     height="3"
     width="3"
     y="27"
     x="213.5"
     id="connector21terminal" />
  <rect
     style="fill:#8c8c8c"
     id="connector21pin"
     height="4.3400002"
     width="3"
     y="25.672941"
     x="213.5" />
  <polygon
     style="fill:#8c8c8c"
     id="pinflare22"
     points="223.5,25.66 223.5,27.66 226.5,27.66 228.5,26.74 228.5,25.66 223.5,25.66 " />
  <rect
     style="fill:#8c8c8c"
     height="3"
     width="3"
     y="27"
     x="223.5"
     id="connector22terminal" />
  <rect
     style="fill:#8c8c8c"
     id="connector22pin"
     height="4.3400002"
     width="3"
     y="25.672941"
     x="223.5" />
  <polygon
     style="fill:#8c8c8c"
     id="pinflare23"
     points="233.5,25.66 233.5,27.66 236.5,27.66 238.5,26.74 238.5,25.66 233.5,25.66 " />
  <rect
     style="fill:#8c8c8c"
     height="3"
     width="3"
     y="27"
     x="233.5"
     id="connector23terminal" />
  <rect
     style="fill:#8c8c8c"
     id="connector23pin"
     height="4.3400002"
     width="3"
     y="25.672941"
     x="233.5" />
  <polygon
     style="fill:#8c8c8c"
     id="pinflare24"
     points="243.5,25.66 243.5,27.66 246.5,27.66 248.5,26.74 248.5,25.66 243.5,25.66 " />
  <rect
     style="fill:#8c8c8c"
     height="3"
     width="3"
     y="27"
     x="243.5"
     id="connector24terminal" />
  <rect
     style="fill:#8c8c8c"
     id="connector24pin"
     height="4.3400002"
     width="3"
     y="25.672941"
     x="243.5" />
  <polygon
     style="fill:#8c8c8c"
     id="pinflare25"
     points="253.5,25.66 253.5,27.66 256.5,27.66 258.5,26.74 258.5,25.66 253.5,25.66 " />
  <rect
     style="fill:#8c8c8c"
     height="3"
     width="3"
     y="27"
     x="253.5"
     id="connector25terminal" />
  <rect
     style="fill:#8c8c8c"
     id="connector25pin"
     height="4.3400002"
     width="3"
     y="25.672941"
     x="253.5" />
  <polygon
     style="fill:#8c8c8c"
     id="pinflare26"
     points="263.5,25.66 263.5,27.66 266.5,27.66 268.5,26.74 268.5,25.66 263.5,25.66 " />
  <rect
     style="fill:#8c8c8c"
     height="3"
     width="3"
     y="27"
     x="263.5"
     id="connector26terminal" />
  <rect
     style="fill:#8c8c8c"
     id="connector26pin"
     height="4.3400002"
     width="3"
     y="25.672941"
     x="263.5" />
  <polygon
     style="fill:#8c8c8c"
     id="pinflare27"
     points="273.5,25.66 273.5,27.66 276.5,27.66 278.5,26.74 278.5,25.66 273.5,25.66 " />
  <rect
     style="fill:#8c8c8c"
     height="3"
     width="3"
     y="27"
     x="273.5"
     id="connector27terminal" />
  <rect
     style="fill:#8c8c8c"
     id="connector27pin"
     height="4.3400002"
     width="3"
     y="25.672941"
     x="273.5" />
  <polygon
     style="fill:#8c8c8c"
     id="pinflare28"
     points="283.5,25.66 283.5,27.66 286.5,27.66 288.5,26.74 288.5,25.66 283.5,25.66 " />
  <rect
     style="fill:#8c8c8c"
     height="3"
     width="3"
     y="27"
     x="283.5"
     id="connector28terminal" />
  <rect
     style="fill:#8c8c8c"
     id="connector28pin"
     height="4.3400002"
     width="3"
     y="25.672941"
     x="283.5" />
  <polygon
     style="fill:#8c8c8c"
     id="pinflare29"
     points="293.5,25.66 293.5,27.66 296.5,27.66 298.5,26.74 298.5,25.66 293.5,25.66 " />
  <rect
     style="fill:#8c8c8c"
     height="3"
     width="3"
     y="27"
     x="293.5"
     id="connector29terminal" />
  <rect
     style="fill:#8c8c8c"
     id="connector29pin"
     height="4.3400002"
     width="3"
     y="25.672941"
     x="293.5" />
  <polygon
     style="fill:#8c8c8c"
     id="pinflare30"
     points="303.5,25.66 303.5,27.66 306.5,27.66 308.5,26.74 308.5,25.66 303.5,25.66 " />
  <rect
     style="fill:#8c8c8c"
     height="3"
     width="3"
     y="27"
     x="303.5"
     id="connector30terminal" />
  <rect
     style="fill:#8c8c8c"
     id="connector30pin"
     height="4.3400002"
     width="3"
     y="25.672941"
     x="303.5" />
  <polygon
     style="fill:#8c8c8c"
     id="pinflare31"
     points="313.5,25.66 313.5,27.66 316.5,27.66 318.5,26.74 318.5,25.66 313.5,25.66 " />
  <rect
     style="fill:#8c8c8c"
     height="3"
     width="3"
     y="27"
     x="313.5"
     id="connector31terminal" />
  <rect
     style="fill:#8c8c8c"
     id="connector31pin"
     height="4.3400002"
     width="3"
     y="25.672941"
     x="313.5" />
  <polygon
     style="fill:#8c8c8c"
     id="pinflare32"
     points="323.5,25.66 323.5,27.66 326.5,27.66 328.5,26.74 328.5,25.66 323.5,25.66 " />
  <rect
     style="fill:#8c8c8c"
     height="3"
     width="3"
     y="27"
     x="323.5"
     id="connector32terminal" />
  <rect
     style="fill:#8c8c8c"
     id="connector32pin"
     height="4.3400002"
     width="3"
     y="25.672941"
     x="323.5" />
  <polygon
     style="fill:#8c8c8c"
     id="pinflare33"
     points="333.5,25.66 333.5,27.66 336.5,27.66 338.5,26.74 338.5,25.66 333.5,25.66 " />
  <rect
     style="fill:#8c8c8c"
     height="3"
     width="3"
     y="27"
     x="333.5"
     id="connector33terminal" />
  <rect
     style="fill:#8c8c8c"
     id="connector33pin"
     height="4.3400002"
     width="3"
     y="25.672941"
     x="333.5" />
  <polygon
     style="fill:#8c8c8c"
     id="pinflare34"
     points="343.5,25.66 343.5,27.66 346.5,27.66 348.5,26.74 348.5,25.66 343.5,25.66 " />
  <rect
     style="fill:#8c8c8c"
     height="3"
     width="3"
     y="27"
     x="343.5"
     id="connector34terminal" />
  <rect
     style="fill:#8c8c8c"
     id="connector34pin"
     height="4.3400002"
     width="3"
     y="25.672941"
     x="343.5" />
  <polygon
     style="fill:#8c8c8c"
     id="pinflare35"
     points="353.5,25.66 353.5,27.66 356.5,27.66 358.5,26.74 358.5,25.66 353.5,25.66 " />
  <rect
     style="fill:#8c8c8c"
     height="3"
     width="3"
     y="27"
     x="353.5"
     id="connector35terminal" />
  <rect
     style="fill:#8c8c8c"
     id="connector35pin"
     height="4.3400002"
     width="3"
     y="25.672941"
     x="353.5" />
  <polygon
     style="fill:#8c8c8c"
     id="pinflare36"
     points="363.5,25.66 363.5,27.66 366.5,27.66 368.5,26.74 368.5,25.66 363.5,25.66 " />
  <rect
     style="fill:#8c8c8c"
     height="3"
     width="3"
     y="27"
     x="363.5"
     id="connector36terminal" />
  <rect
     style="fill:#8c8c8c"
     id="connector36pin"
     height="4.3400002"
     width="3"
     y="25.672941"
     x="363.5" />
  <polygon
     style="fill:#8c8c8c"
     id="pinflare37"
     points="373.5,25.66 373.5,27.66 376.5,27.66 378.5,26.74 378.5,25.66 373.5,25.66 " />
  <rect
     style="fill:#8c8c8c"
     height="3"
     width="3"
     y="27"
     x="373.5"
     id="connector37terminal" />
  <rect
     style="fill:#8c8c8c"
     id="connector37pin"
     height="4.3400002"
     width="3"
     y="25.672941"
     x="373.5" />
  <polygon
     style="fill:#8c8c8c"
     id="pinflare38"
     points="383.5,25.66 383.5,27.66 386.5,27.66 388.5,26.74 388.5,25.66 383.5,25.66 " />
  <rect
     style="fill:#8c8c8c"
     height="3"
     width="3"
     y="27"
     x="383.5"
     id="connector38terminal" />
  <rect
     style="fill:#8c8c8c"
     id="connector38pin"
     height="4.3400002"
     width="3"
     y="25.672941"
     x="383.5" />
  <polygon
     style="fill:#8c8c8c"
     id="pinflare39"
     points="393.5,25.66 393.5,27.66 396.5,27.66 398.5,26.74 398.5,25.66 393.5,25.66 " />
  <rect
     style="fill:#8c8c8c"
     height="3"
     width="3"
     y="27"
     x="393.5"
     id="connector39terminal" />
  <rect
     style="fill:#8c8c8c"
     id="connector39pin"
     height="4.3400002"
     width="3"
     y="25.672941"
     x="393.5" />
  <polygon
     style="fill:#8c8c8c"
     id="pinflare40"
     points="403.5,25.66 403.5,27.66 406.5,27.66 408.5,26.74 408.5,25.66 403.5,25.66 " />
  <rect
     style="fill:#8c8c8c"
     height="3"
     width="3"
     y="27"
     x="403.5"
     id="connector40terminal" />
  <rect
     style="fill:#8c8c8c"
     id="connector40pin"
     height="4.3400002"
     width="3"
     y="25.672941"
     x="403.5" />
  <polygon
     style="fill:#8c8c8c"
     id="pinflare41"
     points="413.5,25.66 413.5,27.66 416.5,27.66 418.5,26.74 418.5,25.66 413.5,25.66 " />
  <rect
     style="fill:#8c8c8c"
     height="3"
     width="3"
     y="27"
     x="413.5"
     id="connector41terminal" />
  <rect
     style="fill:#8c8c8c"
     id="connector41pin"
     height="4.3400002"
     width="3"
     y="25.672941"
     x="413.5" />
  <polygon
     style="fill:#8c8c8c"
     id="pinflare42"
     points="423.5,25.66 423.5,27.66 426.5,27.66 428.5,26.74 428.5,25.66 423.5,25.66 " />
  <rect
     style="fill:#8c8c8c"
     height="3"
     width="3"
     y="27"
     x="423.5"
     id="connector42terminal" />
  <rect
     style="fill:#8c8c8c"
     id="connector42pin"
     height="4.3400002"
     width="3"
     y="25.672941"
     x="423.5" />
  <polygon
     style="fill:#8c8c8c"
     id="pinflare43"
     points="433.5,25.66 433.5,27.66 436.5,27.66 438.5,26.74 438.5,25.66 433.5,25.66 " />
  <rect
     style="fill:#8c8c8c"
     height="3"
     width="3"
     y="27"
     x="433.5"
     id="connector43terminal" />
  <rect
     style="fill:#8c8c8c"
     id="connector43pin"
     height="4.3400002"
     width="3"
     y="25.672941"
     x="433.5" />
  <polygon
     style="fill:#8c8c8c"
     id="pinflare44"
     points="443.5,25.66 443.5,27.66 446.5,27.66 448.5,26.74 448.5,25.66 443.5,25.66 " />
  <rect
     style="fill:#8c8c8c"
     height="3"
     width="3"
     y="27"
     x="443.5"
     id="connector44terminal" />
  <rect
     style="fill:#8c8c8c"
     id="connector44pin"
     height="4.3400002"
     width="3"
     y="25.672941"
     x="443.5" />
  <polygon
     style="fill:#8c8c8c"
     id="pinflare45"
     points="453.5,25.66 453.5,27.66 456.5,27.66 458.5,26.74 458.5,25.66 453.5,25.66 " />
  <rect
     style="fill:#8c8c8c"
     height="3"
     width="3"
     y="27"
     x="453.5"
     id="connector45terminal" />
  <rect
     style="fill:#8c8c8c"
     id="connector45pin"
     height="4.3400002"
     width="3"
     y="25.672941"
     x="453.5" />
  <polygon
     style="fill:#8c8c8c"
     id="pinflare46"
     points="463.5,25.66 463.5,27.66 466.5,27.66 468.5,26.74 468.5,25.66 463.5,25.66 " />
  <rect
     style="fill:#8c8c8c"
     height="3"
     width="3"
     y="27"
     x="463.5"
     id="connector46terminal" />
  <rect
     style="fill:#8c8c8c"
     id="connector46pin"
     height="4.3400002"
     width="3"
     y="25.672941"
     x="463.5" />
  <polygon
     style="fill:#8c8c8c"
     id="pinflare47"
     points="473.5,25.66 473.5,27.66 476.5,27.66 478.5,26.74 478.5,25.66 473.5,25.66 " />
  <rect
     style="fill:#8c8c8c"
     height="3"
     width="3"
     y="27"
     x="473.5"
     id="connector47terminal" />
  <rect
     style="fill:#8c8c8c"
     id="connector47pin"
     height="4.3400002"
     width="3"
     y="25.672941"
     x="473.5" />
  <polygon
     style="fill:#8c8c8c"
     id="pinflare48"
     points="483.5,25.66 483.5,27.66 486.5,27.66 488.5,26.74 488.5,25.66 483.5,25.66 " />
  <rect
     style="fill:#8c8c8c"
     height="3"
     width="3"
     y="27"
     x="483.5"
     id="connector48terminal" />
  <rect
     style="fill:#8c8c8c"
     id="connector48pin"
     height="4.3400002"
     width="3"
     y="25.672941"
     x="483.5" />
  <polygon
     style="fill:#8c8c8c"
     id="pinflare49"
     points="493.5,25.66 493.5,27.66 496.5,27.66 498.5,26.74 498.5,25.66 493.5,25.66 " />
  <rect
     style="fill:#8c8c8c"
     height="3"
     width="3"
     y="27"
     x="493.5"
     id="connector49terminal" />
  <rect
     style="fill:#8c8c8c"
     id="connector49pin"
     height="4.3400002"
     width="3"
     y="25.672941"
     x="493.5" />
  <polygon
     style="fill:#8c8c8c"
     id="pinflare50"
     points="503.5,25.66 503.5,27.66 506.5,27.66 508.5,26.74 508.5,25.66 503.5,25.66 " />
  <rect
     style="fill:#8c8c8c"
     height="3"
     width="3"
     y="27"
     x="503.5"
     id="connector50terminal" />
  <rect
     style="fill:#8c8c8c"
     id="connector50pin"
     height="4.3400002"
     width="3"
     y="25.672941"
     x="503.5" />
  <polygon
     style="fill:#8c8c8c"
     id="pinflare51"
     points="513.5,25.66 513.5,27.66 516.5,27.66 518.5,26.74 518.5,25.66 513.5,25.66 " />
  <rect
     style="fill:#8c8c8c"
     height="3"
     width="3"
     y="27"
     x="513.5"
     id="connector51terminal" />
  <rect
     style="fill:#8c8c8c"
     id="connector51pin"
     height="4.3400002"
     width="3"
     y="25.672941"
     x="513.5" />
  <polygon
     style="fill:#8c8c8c"
     id="pinflare52"
     points="523.5,25.66 523.5,27.66 526.5,27.66 528.5,26.74 528.5,25.66 523.5,25.66 " />
  <rect
     style="fill:#8c8c8c"
     height="3"
     width="3"
     y="27"
     x="523.5"
     id="connector52terminal" />
  <rect
     style="fill:#8c8c8c"
     id="connector52pin"
     height="4.3400002"
     width="3"
     y="25.672941"
     x="523.5" />
  <polygon
     style="fill:#8c8c8c"
     id="pinflare53"
     points="533.5,25.66 533.5,27.66 536.5,27.66 538.5,26.74 538.5,25.66 533.5,25.66 " />
  <rect
     style="fill:#8c8c8c"
     height="3"
     width="3"
     y="27"
     x="533.5"
     id="connector53terminal" />
  <rect
     style="fill:#8c8c8c"
     id="connector53pin"
     height="4.3400002"
     width="3"
     y="25.672941"
     x="533.5" />
  <text id="label" x="271" y="15" fill="#e6e6e6" stroke="none" font-family="ocra10" text-anchor="middle" font-size="10" >?</text>
</g>
</svg>
