<?xml version="1.0" encoding="utf-8"?>
<svg version="1.2" baseProfile="tiny" id="svg2" xmlns="http://www.w3.org/2000/svg" xmlns:xlink="http://www.w3.org/1999/xlink"
	 width="6.160022in" height="0.200222in" viewBox="0 0 616.0022 20.0222" xml:space="preserve">

<g id="breadboard">
 <rect width="616.0022" x="0" y="0" height="17.6211" id="upper" stroke-width="0" />
 <rect width="616.0022" x="0" y="15.4611" fill="#262626" height="2.16" id="lower" stroke-width="0" />

 <text id="label" x="2.5894" y="9.333" fill="#e6e6e6" stroke="none" font-family="ocra10" text-anchor="start" font-size="5.7" >?</text>

  <circle fill="#565656" cx="612.6433" cy="3.37222" r="2.11444" stroke-width="0" />
  <text x="612.6433" y="4.67222" font-family="'DroidSans'" text-anchor="middle" font-weight="bold" stroke-width="0" font-size="3.9165" >?</text>


        <rect id="connector0terminal" x="1.8" y="17.6211" fill="#8C8C8C" width="2.4" height="2.4"/>
        <rect id="connector0pin" x="1.8" y="16.5422" fill="#8C8C8C" width="2.4" height="3.38"/>
        <rect id="connector1terminal" x="11.8" y="17.6211" fill="#8C8C8C" width="2.4" height="2.4"/>
        <rect id="connector1pin" x="11.8" y="16.5422" fill="#8C8C8C" width="2.4" height="3.38"/>
        <rect id="connector2terminal" x="21.8" y="17.6211" fill="#8C8C8C" width="2.4" height="2.4"/>
        <rect id="connector2pin" x="21.8" y="16.5422" fill="#8C8C8C" width="2.4" height="3.38"/>
        <rect id="connector3terminal" x="31.8" y="17.6211" fill="#8C8C8C" width="2.4" height="2.4"/>
        <rect id="connector3pin" x="31.8" y="16.5422" fill="#8C8C8C" width="2.4" height="3.38"/>
        <rect id="connector4terminal" x="41.8" y="17.6211" fill="#8C8C8C" width="2.4" height="2.4"/>
        <rect id="connector4pin" x="41.8" y="16.5422" fill="#8C8C8C" width="2.4" height="3.38"/>
        <rect id="connector5terminal" x="51.8" y="17.6211" fill="#8C8C8C" width="2.4" height="2.4"/>
        <rect id="connector5pin" x="51.8" y="16.5422" fill="#8C8C8C" width="2.4" height="3.38"/>
        <rect id="connector6terminal" x="61.8" y="17.6211" fill="#8C8C8C" width="2.4" height="2.4"/>
        <rect id="connector6pin" x="61.8" y="16.5422" fill="#8C8C8C" width="2.4" height="3.38"/>
        <rect id="connector7terminal" x="71.8" y="17.6211" fill="#8C8C8C" width="2.4" height="2.4"/>
        <rect id="connector7pin" x="71.8" y="16.5422" fill="#8C8C8C" width="2.4" height="3.38"/>
        <rect id="connector8terminal" x="81.8" y="17.6211" fill="#8C8C8C" width="2.4" height="2.4"/>
        <rect id="connector8pin" x="81.8" y="16.5422" fill="#8C8C8C" width="2.4" height="3.38"/>
        <rect id="connector9terminal" x="91.8" y="17.6211" fill="#8C8C8C" width="2.4" height="2.4"/>
        <rect id="connector9pin" x="91.8" y="16.5422" fill="#8C8C8C" width="2.4" height="3.38"/>
        <rect id="connector10terminal" x="101.8" y="17.6211" fill="#8C8C8C" width="2.4" height="2.4"/>
        <rect id="connector10pin" x="101.8" y="16.5422" fill="#8C8C8C" width="2.4" height="3.38"/>
        <rect id="connector11terminal" x="111.8" y="17.6211" fill="#8C8C8C" width="2.4" height="2.4"/>
        <rect id="connector11pin" x="111.8" y="16.5422" fill="#8C8C8C" width="2.4" height="3.38"/>
        <rect id="connector12terminal" x="121.8" y="17.6211" fill="#8C8C8C" width="2.4" height="2.4"/>
        <rect id="connector12pin" x="121.8" y="16.5422" fill="#8C8C8C" width="2.4" height="3.38"/>
        <rect id="connector13terminal" x="131.8" y="17.6211" fill="#8C8C8C" width="2.4" height="2.4"/>
        <rect id="connector13pin" x="131.8" y="16.5422" fill="#8C8C8C" width="2.4" height="3.38"/>
        <rect id="connector14terminal" x="141.8" y="17.6211" fill="#8C8C8C" width="2.4" height="2.4"/>
        <rect id="connector14pin" x="141.8" y="16.5422" fill="#8C8C8C" width="2.4" height="3.38"/>
        <rect id="connector15terminal" x="151.8" y="17.6211" fill="#8C8C8C" width="2.4" height="2.4"/>
        <rect id="connector15pin" x="151.8" y="16.5422" fill="#8C8C8C" width="2.4" height="3.38"/>
        <rect id="connector16terminal" x="161.8" y="17.6211" fill="#8C8C8C" width="2.4" height="2.4"/>
        <rect id="connector16pin" x="161.8" y="16.5422" fill="#8C8C8C" width="2.4" height="3.38"/>
        <rect id="connector17terminal" x="171.8" y="17.6211" fill="#8C8C8C" width="2.4" height="2.4"/>
        <rect id="connector17pin" x="171.8" y="16.5422" fill="#8C8C8C" width="2.4" height="3.38"/>
        <rect id="connector18terminal" x="181.8" y="17.6211" fill="#8C8C8C" width="2.4" height="2.4"/>
        <rect id="connector18pin" x="181.8" y="16.5422" fill="#8C8C8C" width="2.4" height="3.38"/>
        <rect id="connector19terminal" x="191.8" y="17.6211" fill="#8C8C8C" width="2.4" height="2.4"/>
        <rect id="connector19pin" x="191.8" y="16.5422" fill="#8C8C8C" width="2.4" height="3.38"/>
        <rect id="connector20terminal" x="201.8" y="17.6211" fill="#8C8C8C" width="2.4" height="2.4"/>
        <rect id="connector20pin" x="201.8" y="16.5422" fill="#8C8C8C" width="2.4" height="3.38"/>
        <rect id="connector21terminal" x="211.8" y="17.6211" fill="#8C8C8C" width="2.4" height="2.4"/>
        <rect id="connector21pin" x="211.8" y="16.5422" fill="#8C8C8C" width="2.4" height="3.38"/>
        <rect id="connector22terminal" x="221.8" y="17.6211" fill="#8C8C8C" width="2.4" height="2.4"/>
        <rect id="connector22pin" x="221.8" y="16.5422" fill="#8C8C8C" width="2.4" height="3.38"/>
        <rect id="connector23terminal" x="231.8" y="17.6211" fill="#8C8C8C" width="2.4" height="2.4"/>
        <rect id="connector23pin" x="231.8" y="16.5422" fill="#8C8C8C" width="2.4" height="3.38"/>
        <rect id="connector24terminal" x="241.8" y="17.6211" fill="#8C8C8C" width="2.4" height="2.4"/>
        <rect id="connector24pin" x="241.8" y="16.5422" fill="#8C8C8C" width="2.4" height="3.38"/>
        <rect id="connector25terminal" x="251.8" y="17.6211" fill="#8C8C8C" width="2.4" height="2.4"/>
        <rect id="connector25pin" x="251.8" y="16.5422" fill="#8C8C8C" width="2.4" height="3.38"/>
        <rect id="connector26terminal" x="261.8" y="17.6211" fill="#8C8C8C" width="2.4" height="2.4"/>
        <rect id="connector26pin" x="261.8" y="16.5422" fill="#8C8C8C" width="2.4" height="3.38"/>
        <rect id="connector27terminal" x="271.8" y="17.6211" fill="#8C8C8C" width="2.4" height="2.4"/>
        <rect id="connector27pin" x="271.8" y="16.5422" fill="#8C8C8C" width="2.4" height="3.38"/>
        <rect id="connector28terminal" x="281.8" y="17.6211" fill="#8C8C8C" width="2.4" height="2.4"/>
        <rect id="connector28pin" x="281.8" y="16.5422" fill="#8C8C8C" width="2.4" height="3.38"/>
        <rect id="connector29terminal" x="291.8" y="17.6211" fill="#8C8C8C" width="2.4" height="2.4"/>
        <rect id="connector29pin" x="291.8" y="16.5422" fill="#8C8C8C" width="2.4" height="3.38"/>
        <rect id="connector30terminal" x="301.8" y="17.6211" fill="#8C8C8C" width="2.4" height="2.4"/>
        <rect id="connector30pin" x="301.8" y="16.5422" fill="#8C8C8C" width="2.4" height="3.38"/>
        <rect id="connector31terminal" x="311.8" y="17.6211" fill="#8C8C8C" width="2.4" height="2.4"/>
        <rect id="connector31pin" x="311.8" y="16.5422" fill="#8C8C8C" width="2.4" height="3.38"/>
        <rect id="connector32terminal" x="321.8" y="17.6211" fill="#8C8C8C" width="2.4" height="2.4"/>
        <rect id="connector32pin" x="321.8" y="16.5422" fill="#8C8C8C" width="2.4" height="3.38"/>
        <rect id="connector33terminal" x="331.8" y="17.6211" fill="#8C8C8C" width="2.4" height="2.4"/>
        <rect id="connector33pin" x="331.8" y="16.5422" fill="#8C8C8C" width="2.4" height="3.38"/>
        <rect id="connector34terminal" x="341.8" y="17.6211" fill="#8C8C8C" width="2.4" height="2.4"/>
        <rect id="connector34pin" x="341.8" y="16.5422" fill="#8C8C8C" width="2.4" height="3.38"/>
        <rect id="connector35terminal" x="351.8" y="17.6211" fill="#8C8C8C" width="2.4" height="2.4"/>
        <rect id="connector35pin" x="351.8" y="16.5422" fill="#8C8C8C" width="2.4" height="3.38"/>
        <rect id="connector36terminal" x="361.8" y="17.6211" fill="#8C8C8C" width="2.4" height="2.4"/>
        <rect id="connector36pin" x="361.8" y="16.5422" fill="#8C8C8C" width="2.4" height="3.38"/>
        <rect id="connector37terminal" x="371.8" y="17.6211" fill="#8C8C8C" width="2.4" height="2.4"/>
        <rect id="connector37pin" x="371.8" y="16.5422" fill="#8C8C8C" width="2.4" height="3.38"/>
        <rect id="connector38terminal" x="381.8" y="17.6211" fill="#8C8C8C" width="2.4" height="2.4"/>
        <rect id="connector38pin" x="381.8" y="16.5422" fill="#8C8C8C" width="2.4" height="3.38"/>
        <rect id="connector39terminal" x="391.8" y="17.6211" fill="#8C8C8C" width="2.4" height="2.4"/>
        <rect id="connector39pin" x="391.8" y="16.5422" fill="#8C8C8C" width="2.4" height="3.38"/>
        <rect id="connector40terminal" x="401.8" y="17.6211" fill="#8C8C8C" width="2.4" height="2.4"/>
        <rect id="connector40pin" x="401.8" y="16.5422" fill="#8C8C8C" width="2.4" height="3.38"/>
        <rect id="connector41terminal" x="411.8" y="17.6211" fill="#8C8C8C" width="2.4" height="2.4"/>
        <rect id="connector41pin" x="411.8" y="16.5422" fill="#8C8C8C" width="2.4" height="3.38"/>
        <rect id="connector42terminal" x="421.8" y="17.6211" fill="#8C8C8C" width="2.4" height="2.4"/>
        <rect id="connector42pin" x="421.8" y="16.5422" fill="#8C8C8C" width="2.4" height="3.38"/>
        <rect id="connector43terminal" x="431.8" y="17.6211" fill="#8C8C8C" width="2.4" height="2.4"/>
        <rect id="connector43pin" x="431.8" y="16.5422" fill="#8C8C8C" width="2.4" height="3.38"/>
        <rect id="connector44terminal" x="441.8" y="17.6211" fill="#8C8C8C" width="2.4" height="2.4"/>
        <rect id="connector44pin" x="441.8" y="16.5422" fill="#8C8C8C" width="2.4" height="3.38"/>
        <rect id="connector45terminal" x="451.8" y="17.6211" fill="#8C8C8C" width="2.4" height="2.4"/>
        <rect id="connector45pin" x="451.8" y="16.5422" fill="#8C8C8C" width="2.4" height="3.38"/>
        <rect id="connector46terminal" x="461.8" y="17.6211" fill="#8C8C8C" width="2.4" height="2.4"/>
        <rect id="connector46pin" x="461.8" y="16.5422" fill="#8C8C8C" width="2.4" height="3.38"/>
        <rect id="connector47terminal" x="471.8" y="17.6211" fill="#8C8C8C" width="2.4" height="2.4"/>
        <rect id="connector47pin" x="471.8" y="16.5422" fill="#8C8C8C" width="2.4" height="3.38"/>
        <rect id="connector48terminal" x="481.8" y="17.6211" fill="#8C8C8C" width="2.4" height="2.4"/>
        <rect id="connector48pin" x="481.8" y="16.5422" fill="#8C8C8C" width="2.4" height="3.38"/>
        <rect id="connector49terminal" x="491.8" y="17.6211" fill="#8C8C8C" width="2.4" height="2.4"/>
        <rect id="connector49pin" x="491.8" y="16.5422" fill="#8C8C8C" width="2.4" height="3.38"/>
        <rect id="connector50terminal" x="501.8" y="17.6211" fill="#8C8C8C" width="2.4" height="2.4"/>
        <rect id="connector50pin" x="501.8" y="16.5422" fill="#8C8C8C" width="2.4" height="3.38"/>
        <rect id="connector51terminal" x="511.8" y="17.6211" fill="#8C8C8C" width="2.4" height="2.4"/>
        <rect id="connector51pin" x="511.8" y="16.5422" fill="#8C8C8C" width="2.4" height="3.38"/>
        <rect id="connector52terminal" x="521.8" y="17.6211" fill="#8C8C8C" width="2.4" height="2.4"/>
        <rect id="connector52pin" x="521.8" y="16.5422" fill="#8C8C8C" width="2.4" height="3.38"/>
        <rect id="connector53terminal" x="531.8" y="17.6211" fill="#8C8C8C" width="2.4" height="2.4"/>
        <rect id="connector53pin" x="531.8" y="16.5422" fill="#8C8C8C" width="2.4" height="3.38"/>
        <rect id="connector54terminal" x="541.8" y="17.6211" fill="#8C8C8C" width="2.4" height="2.4"/>
        <rect id="connector54pin" x="541.8" y="16.5422" fill="#8C8C8C" width="2.4" height="3.38"/>
        <rect id="connector55terminal" x="551.8" y="17.6211" fill="#8C8C8C" width="2.4" height="2.4"/>
        <rect id="connector55pin" x="551.8" y="16.5422" fill="#8C8C8C" width="2.4" height="3.38"/>
        <rect id="connector56terminal" x="561.8" y="17.6211" fill="#8C8C8C" width="2.4" height="2.4"/>
        <rect id="connector56pin" x="561.8" y="16.5422" fill="#8C8C8C" width="2.4" height="3.38"/>
        <rect id="connector57terminal" x="571.8" y="17.6211" fill="#8C8C8C" width="2.4" height="2.4"/>
        <rect id="connector57pin" x="571.8" y="16.5422" fill="#8C8C8C" width="2.4" height="3.38"/>
        <rect id="connector58terminal" x="581.8" y="17.6211" fill="#8C8C8C" width="2.4" height="2.4"/>
        <rect id="connector58pin" x="581.8" y="16.5422" fill="#8C8C8C" width="2.4" height="3.38"/>
        <rect id="connector59terminal" x="591.8" y="17.6211" fill="#8C8C8C" width="2.4" height="2.4"/>
        <rect id="connector59pin" x="591.8" y="16.5422" fill="#8C8C8C" width="2.4" height="3.38"/>
        <rect id="connector60terminal" x="601.8" y="17.6211" fill="#8C8C8C" width="2.4" height="2.4"/>
        <rect id="connector60pin" x="601.8" y="16.5422" fill="#8C8C8C" width="2.4" height="3.38"/>
        <rect id="connector61terminal" x="611.8" y="17.6211" fill="#8C8C8C" width="2.4" height="2.4"/>
        <rect id="connector61pin" x="611.8" y="16.5422" fill="#8C8C8C" width="2.4" height="3.38"/>
        

</g>
</svg>
