<?xml version="1.0" encoding="UTF-8" standalone="no"?>
<svg id="svg2" xmlns:rdf="http://www.w3.org/1999/02/22-rdf-syntax-ns#" style="enable-background:new;" xmlns="http://www.w3.org/2000/svg" height="108" width="56.697" version="1.1" xmlns:cc="http://creativecommons.org/ns#" xmlns:xlink="http://www.w3.org/1999/xlink" xmlns:dc="http://purl.org/dc/elements/1.1/">
<g id="breadboard" transform="translate(-268.39094,-392.97356)">
<g id="board">
<path id="path3922" fill="#1c1c1c" d="m298.73,392.97c-0.0512,1.265-1.0862,2.2762-2.3638,2.2762-1.2775,0-2.3125-1.0112-2.365-2.2762h-24.456v108h54.37v-108h-25.185z"/>
<g id="g3924" transform="matrix(1.2499995,0,0,1.2499995,268.39094,392.97356)">
<g id="g3926">
<rect id="rect3928" height="5.358" width="4.119" y="1.262" x="1.444" fill="#8c8c8c"/>
<rect id="rect3930" height="3.969" width="0.94" y="1.957" x="0" fill="#8c8c8c"/>
<rect id="rect3932" height="1.898" width="1.41" y="2.992" x="1.45" fill="#696969"/>
<rect id="rect3934" height="1.609" width="3.433" y="3.137" x="0.094" fill="#8c8c8c"/>
<rect id="rect3936" height="1.623" width="0.445" y="3.129" x="0.939" fill="#bfbfbf"/>
<rect id="rect3938" height="1.623" width="0.526" y="3.129" x="0.421" fill="#a8a8a8"/>
</g>
<g id="g3940">
<rect id="rect3942" height="5.358" width="4.119" y="8.462" x="1.444" fill="#8c8c8c"/>
<rect id="rect3944" height="3.969" width="0.94" y="9.157" x="0" fill="#8c8c8c"/>
<rect id="rect3946" height="1.898" width="1.41" y="10.192" x="1.45" fill="#696969"/>
<rect id="rect3948" height="1.609" width="3.433" y="10.337" x="0.094" fill="#8c8c8c"/>
<rect id="rect3950" height="1.623" width="0.445" y="10.329" x="0.939" fill="#bfbfbf"/>
<rect id="rect3952" height="1.623" width="0.526" y="10.329" x="0.421" fill="#a8a8a8"/>
</g>
<g id="g3954">
<rect id="rect3956" height="5.358" width="4.119" y="15.662" x="1.444" fill="#8c8c8c"/>
<rect id="rect3958" height="3.969" width="0.94" y="16.357" x="0" fill="#8c8c8c"/>
<rect id="rect3960" height="1.898" width="1.41" y="17.393" x="1.45" fill="#696969"/>
<rect id="rect3962" height="1.609" width="3.433" y="17.537" x="0.094" fill="#8c8c8c"/>
<rect id="rect3964" height="1.623" width="0.445" y="17.529" x="0.939" fill="#bfbfbf"/>
<rect id="rect3966" height="1.623" width="0.526" y="17.529" x="0.421" fill="#a8a8a8"/>
</g>
<g id="g3968">
<rect id="rect3970" height="5.358" width="4.119" y="22.862" x="1.444" fill="#8c8c8c"/>
<rect id="rect3972" height="3.969" width="0.94" y="23.558" x="0" fill="#8c8c8c"/>
<rect id="rect3974" height="1.898" width="1.41" y="24.593" x="1.45" fill="#696969"/>
<rect id="rect3976" height="1.609" width="3.433" y="24.737" x="0.094" fill="#8c8c8c"/>
<rect id="rect3978" height="1.623" width="0.445" y="24.729" x="0.939" fill="#bfbfbf"/>
<rect id="rect3980" height="1.623" width="0.526" y="24.729" x="0.421" fill="#a8a8a8"/>
</g>
<g id="g3982">
<rect id="rect3984" height="5.358" width="4.119" y="30.062" x="1.444" fill="#8c8c8c"/>
<rect id="rect3986" height="3.969" width="0.94" y="30.758" x="0" fill="#8c8c8c"/>
<rect id="rect3988" height="1.898" width="1.41" y="31.793" x="1.45" fill="#696969"/>
<rect id="rect3990" height="1.609" width="3.433" y="31.938" x="0.094" fill="#8c8c8c"/>
<rect id="rect3992" height="1.623" width="0.445" y="31.93" x="0.939" fill="#bfbfbf"/>
<rect id="rect3994" height="1.623" width="0.526" y="31.93" x="0.421" fill="#a8a8a8"/>
</g>
<g id="g3996">
<rect id="rect3998" height="5.358" width="4.119" y="37.263" x="1.444" fill="#8c8c8c"/>
<rect id="rect4000" height="3.969" width="0.94" y="37.958" x="0" fill="#8c8c8c"/>
<rect id="rect4002" height="1.898" width="1.41" y="38.993" x="1.45" fill="#696969"/>
<rect id="rect4004" height="1.609" width="3.433" y="39.138" x="0.094" fill="#8c8c8c"/>
<rect id="rect4006" height="1.623" width="0.445" y="39.13" x="0.939" fill="#bfbfbf"/>
<rect id="rect4008" height="1.623" width="0.526" y="39.13" x="0.421" fill="#a8a8a8"/>
</g>
<g id="g4010">
<rect id="rect4012" height="5.358" width="4.119" y="44.463" x="1.444" fill="#8c8c8c"/>
<rect id="rect4014" height="3.969" width="0.94" y="45.158" x="0" fill="#8c8c8c"/>
<rect id="rect4016" height="1.898" width="1.41" y="46.193" x="1.45" fill="#696969"/>
<rect id="rect4018" height="1.609" width="3.433" y="46.338" x="0.094" fill="#8c8c8c"/>
<rect id="rect4020" height="1.623" width="0.445" y="46.33" x="0.939" fill="#bfbfbf"/>
<rect id="rect4022" height="1.623" width="0.526" y="46.33" x="0.421" fill="#a8a8a8"/>
</g>
<g id="g4024">
<rect id="rect4026" height="5.358" width="4.119" y="51.663" x="1.444" fill="#8c8c8c"/>
<rect id="rect4028" height="3.969" width="0.94" y="52.358" x="0" fill="#8c8c8c"/>
<rect id="rect4030" height="1.898" width="1.41" y="53.394" x="1.45" fill="#696969"/>
<rect id="rect4032" height="1.609" width="3.433" y="53.538" x="0.094" fill="#8c8c8c"/>
<rect id="rect4034" height="1.623" width="0.445" y="53.53" x="0.939" fill="#bfbfbf"/>
<rect id="rect4036" height="1.623" width="0.526" y="53.53" x="0.421" fill="#a8a8a8"/>
</g>
<g id="g4038">
<rect id="rect4040" height="5.358" width="4.119" y="58.863" x="1.444" fill="#8c8c8c"/>
<rect id="rect4042" height="3.969" width="0.94" y="59.559" x="0" fill="#8c8c8c"/>
<rect id="rect4044" height="1.898" width="1.41" y="60.594" x="1.45" fill="#696969"/>
<rect id="rect4046" height="1.609" width="3.433" y="60.738" x="0.094" fill="#8c8c8c"/>
<rect id="rect4048" height="1.623" width="0.445" y="60.73" x="0.939" fill="#bfbfbf"/>
<rect id="rect4050" height="1.623" width="0.526" y="60.73" x="0.421" fill="#a8a8a8"/>
</g>
<g id="g4052">
<rect id="rect4054" height="5.358" width="4.119" y="66.063" x="1.444" fill="#8c8c8c"/>
<rect id="rect4056" height="3.969" width="0.94" y="66.759" x="0" fill="#8c8c8c"/>
<rect id="rect4058" height="1.898" width="1.41" y="67.794" x="1.45" fill="#696969"/>
<rect id="rect4060" height="1.609" width="3.433" y="67.938" x="0.094" fill="#8c8c8c"/>
<rect id="rect4062" height="1.623" width="0.445" y="67.931" x="0.939" fill="#bfbfbf"/>
<rect id="rect4064" height="1.623" width="0.526" y="67.931" x="0.421" fill="#a8a8a8"/>
</g>
<g id="g4066">
<rect id="rect4068" height="5.358" width="4.119" y="73.264" x="1.444" fill="#8c8c8c"/>
<rect id="rect4070" height="3.969" width="0.94" y="73.959" x="0" fill="#8c8c8c"/>
<rect id="rect4072" height="1.898" width="1.41" y="74.994" x="1.45" fill="#696969"/>
<rect id="rect4074" height="1.609" width="3.433" y="75.139" x="0.094" fill="#8c8c8c"/>
<rect id="rect4076" height="1.623" width="0.445" y="75.131" x="0.939" fill="#bfbfbf"/>
<rect id="rect4078" height="1.623" width="0.526" y="75.131" x="0.421" fill="#a8a8a8"/>
</g>
<g id="g4080">
<rect id="rect4082" height="5.358" width="4.119" y="80.464" x="1.444" fill="#8c8c8c"/>
<rect id="rect4084" height="3.969" width="0.94" y="81.159" x="0" fill="#8c8c8c"/>
<rect id="rect4086" height="1.898" width="1.41" y="82.194" x="1.45" fill="#696969"/>
<rect id="rect4088" height="1.609" width="3.433" y="82.339" x="0.094" fill="#8c8c8c"/>
<rect id="rect4090" height="1.623" width="0.445" y="82.331" x="0.939" fill="#bfbfbf"/>
<rect id="rect4092" height="1.623" width="0.526" y="82.331" x="0.421" fill="#a8a8a8"/>
</g>
<g id="g4094">
<rect id="rect4096" height="5.358" width="4.118" y="1.262" x="39.795" fill="#8c8c8c"/>
<rect id="rect4098" height="3.969" width="0.94" y="1.957" x="44.418" fill="#8c8c8c"/>
<rect id="rect4100" height="1.898" width="1.409" y="2.992" x="42.498" fill="#696969"/>
<rect id="rect4102" height="1.609" width="3.434" y="3.137" x="41.831" fill="#8c8c8c"/>
<rect id="rect4104" height="1.623" width="0.445" y="3.129" x="43.974" fill="#bfbfbf"/>
<rect id="rect4106" height="1.623" width="0.525" y="3.129" x="44.411" fill="#a8a8a8"/>
</g>
<g id="g4108">
<rect id="rect4110" height="5.358" width="4.118" y="8.462" x="39.795" fill="#8c8c8c"/>
<rect id="rect4112" height="3.969" width="0.94" y="9.157" x="44.418" fill="#8c8c8c"/>
<rect id="rect4114" height="1.898" width="1.409" y="10.192" x="42.498" fill="#696969"/>
<rect id="rect4116" height="1.609" width="3.434" y="10.337" x="41.831" fill="#8c8c8c"/>
<rect id="rect4118" height="1.623" width="0.445" y="10.329" x="43.974" fill="#bfbfbf"/>
<rect id="rect4120" height="1.623" width="0.525" y="10.329" x="44.411" fill="#a8a8a8"/>
</g>
<g id="g4122">
<rect id="rect4124" height="5.358" width="4.118" y="15.662" x="39.795" fill="#8c8c8c"/>
<rect id="rect4126" height="3.969" width="0.94" y="16.357" x="44.418" fill="#8c8c8c"/>
<rect id="rect4128" height="1.898" width="1.409" y="17.393" x="42.498" fill="#696969"/>
<rect id="rect4130" height="1.609" width="3.434" y="17.537" x="41.831" fill="#8c8c8c"/>
<rect id="rect4132" height="1.623" width="0.445" y="17.529" x="43.974" fill="#bfbfbf"/>
<rect id="rect4134" height="1.623" width="0.525" y="17.529" x="44.411" fill="#a8a8a8"/>
</g>
<g id="g4136">
<rect id="rect4138" height="5.358" width="4.118" y="22.862" x="39.795" fill="#8c8c8c"/>
<rect id="rect4140" height="3.969" width="0.94" y="23.558" x="44.418" fill="#8c8c8c"/>
<rect id="rect4142" height="1.898" width="1.409" y="24.593" x="42.498" fill="#696969"/>
<rect id="rect4144" height="1.609" width="3.434" y="24.737" x="41.831" fill="#8c8c8c"/>
<rect id="rect4146" height="1.623" width="0.445" y="24.729" x="43.974" fill="#bfbfbf"/>
<rect id="rect4148" height="1.623" width="0.525" y="24.729" x="44.411" fill="#a8a8a8"/>
</g>
<g id="g4150">
<rect id="rect4152" height="5.358" width="4.118" y="30.062" x="39.795" fill="#8c8c8c"/>
<rect id="rect4154" height="3.969" width="0.94" y="30.758" x="44.418" fill="#8c8c8c"/>
<rect id="rect4156" height="1.898" width="1.409" y="31.793" x="42.498" fill="#696969"/>
<rect id="rect4158" height="1.609" width="3.434" y="31.938" x="41.831" fill="#8c8c8c"/>
<rect id="rect4160" height="1.623" width="0.445" y="31.93" x="43.974" fill="#bfbfbf"/>
<rect id="rect4162" height="1.623" width="0.525" y="31.93" x="44.411" fill="#a8a8a8"/>
</g>
<g id="g4164">
<rect id="rect4166" height="5.358" width="4.118" y="37.263" x="39.795" fill="#8c8c8c"/>
<rect id="rect4168" height="3.969" width="0.94" y="37.958" x="44.418" fill="#8c8c8c"/>
<rect id="rect4170" height="1.898" width="1.409" y="38.993" x="42.498" fill="#696969"/>
<rect id="rect4172" height="1.609" width="3.434" y="39.138" x="41.831" fill="#8c8c8c"/>
<rect id="rect4174" height="1.623" width="0.445" y="39.13" x="43.974" fill="#bfbfbf"/>
<rect id="rect4176" height="1.623" width="0.525" y="39.13" x="44.411" fill="#a8a8a8"/>
</g>
<g id="g4178">
<rect id="rect4180" height="5.358" width="4.118" y="44.463" x="39.795" fill="#8c8c8c"/>
<rect id="rect4182" height="3.969" width="0.94" y="45.158" x="44.418" fill="#8c8c8c"/>
<rect id="rect4184" height="1.898" width="1.409" y="46.193" x="42.498" fill="#696969"/>
<rect id="rect4186" height="1.609" width="3.434" y="46.338" x="41.831" fill="#8c8c8c"/>
<rect id="rect4188" height="1.623" width="0.445" y="46.33" x="43.974" fill="#bfbfbf"/>
<rect id="rect4190" height="1.623" width="0.525" y="46.33" x="44.411" fill="#a8a8a8"/>
</g>
<g id="g4192">
<rect id="rect4194" height="5.358" width="4.118" y="51.663" x="39.795" fill="#8c8c8c"/>
<rect id="rect4196" height="3.969" width="0.94" y="52.358" x="44.418" fill="#8c8c8c"/>
<rect id="rect4198" height="1.898" width="1.409" y="53.394" x="42.498" fill="#696969"/>
<rect id="rect4200" height="1.609" width="3.434" y="53.538" x="41.831" fill="#8c8c8c"/>
<rect id="rect4202" height="1.623" width="0.445" y="53.53" x="43.974" fill="#bfbfbf"/>
<rect id="rect4204" height="1.623" width="0.525" y="53.53" x="44.411" fill="#a8a8a8"/>
</g>
<g id="g4206">
<rect id="rect4208" height="5.358" width="4.118" y="58.863" x="39.795" fill="#8c8c8c"/>
<rect id="rect4210" height="3.969" width="0.94" y="59.559" x="44.418" fill="#8c8c8c"/>
<rect id="rect4212" height="1.898" width="1.409" y="60.594" x="42.498" fill="#696969"/>
<rect id="rect4214" height="1.609" width="3.434" y="60.738" x="41.831" fill="#8c8c8c"/>
<rect id="rect4216" height="1.623" width="0.445" y="60.73" x="43.974" fill="#bfbfbf"/>
<rect id="rect4218" height="1.623" width="0.525" y="60.73" x="44.411" fill="#a8a8a8"/>
</g>
<g id="g4220">
<rect id="rect4222" height="5.358" width="4.118" y="66.063" x="39.795" fill="#8c8c8c"/>
<rect id="rect4224" height="3.969" width="0.94" y="66.759" x="44.418" fill="#8c8c8c"/>
<rect id="rect4226" height="1.898" width="1.409" y="67.794" x="42.498" fill="#696969"/>
<rect id="rect4228" height="1.609" width="3.434" y="67.938" x="41.831" fill="#8c8c8c"/>
<rect id="rect4230" height="1.623" width="0.445" y="67.931" x="43.974" fill="#bfbfbf"/>
<rect id="rect4232" height="1.623" width="0.525" y="67.931" x="44.411" fill="#a8a8a8"/>
</g>
<g id="g4234">
<rect id="rect4236" height="5.358" width="4.118" y="73.264" x="39.795" fill="#8c8c8c"/>
<rect id="rect4238" height="3.969" width="0.94" y="73.959" x="44.418" fill="#8c8c8c"/>
<rect id="rect4240" height="1.898" width="1.409" y="74.994" x="42.498" fill="#696969"/>
<rect id="rect4242" height="1.609" width="3.434" y="75.139" x="41.831" fill="#8c8c8c"/>
<rect id="rect4244" height="1.623" width="0.445" y="75.131" x="43.974" fill="#bfbfbf"/>
<rect id="rect4246" height="1.623" width="0.525" y="75.131" x="44.411" fill="#a8a8a8"/>
</g>
<g id="g4248">
<rect id="rect4250" height="5.358" width="4.118" y="80.464" x="39.795" fill="#8c8c8c"/>
<rect id="rect4252" height="3.969" width="0.94" y="81.159" x="44.418" fill="#8c8c8c"/>
<rect id="rect4254" height="1.898" width="1.409" y="82.194" x="42.498" fill="#696969"/>
<rect id="rect4256" height="1.609" width="3.434" y="82.339" x="41.831" fill="#8c8c8c"/>
<rect id="rect4258" height="1.623" width="0.445" y="82.331" x="43.974" fill="#bfbfbf"/>
<rect id="rect4260" height="1.623" width="0.525" y="82.331" x="44.411" fill="#a8a8a8"/>
</g>
</g>
<rect id="TP1" opacity="0.77778" style="enable-background:new;" transform="translate(268.39094,392.97356)" height="2.6906" width="2.6906" y="103.81" x="9.2294" fill="#f7bd13"/>
<g id="g3274" style="enable-background:new;" transform="translate(268.39094,392.97356)">
<path id="U2" d="m24.818,96.072,2.126-2.126,6.378,0,2.126,2.126,0,6.378-2.126,2.126-6.378,0-2.126-2.126z" fill="#2e2e2e"/>
<rect id="U1" height="31.89" width="31.89" y="37.787" x="12.143" fill="#2e2e2e"/>
<rect id="RESC1005" transform="matrix(0,-1,1,0,0,0)" height="1.7717" width="3.5433" y="45.339" x="-32.098" fill="#2e2e2e"/>
<use id="R2" xlink:href="#RESC1005" transform="matrix(0,1,-1,0,46.441987,59.625652)" height="107.99995" width="56.697479" y="0" x="0"/>
<use id="R4" xlink:href="#RESC1005" transform="matrix(0,1,-1,0,41.927448,30.999546)" height="107.99995" width="56.697479" y="0" x="0"/>
<use id="R7" xlink:href="#RESC1005" transform="matrix(0,1,-1,0,54.405762,43.371045)" height="107.99995" width="56.697479" y="0" x="0"/>
<use id="C4" xlink:href="#RESC1005" transform="translate(0.09606389,46.187472)" height="107.99995" width="56.697479" y="0" x="0"/>
<use id="C1" xlink:href="#RESC1005" transform="translate(0.09606416,55.948111)" height="107.99995" width="56.697479" y="0" x="0"/>
<use id="C16" xlink:href="#RESC1005" transform="matrix(0,1,-1,0,74.943915,52.333146)" height="107.99995" width="56.697479" y="0" x="0"/>
<use id="C10" xlink:href="#RESC1005" transform="matrix(0,1,-1,0,72.149608,58.880333)" height="107.99995" width="56.697479" y="0" x="0"/>
<use id="C12" xlink:href="#RESC1005" transform="translate(-25.19241,66.508175)" height="107.99995" width="56.697479" y="0" x="0"/>
<use id="C14" xlink:href="#RESC1005" transform="translate(0.09606407,63.275289)" height="107.99995" width="56.697479" y="0" x="0"/>
<use id="C13" xlink:href="#RESC1005" transform="translate(-6.8198443,64.862583)" height="107.99995" width="56.697479" y="0" x="0"/>
<use id="R3" xlink:href="#RESC1005" transform="matrix(0,1,-1,0,41.933648,27.539689)" height="107.99995" width="56.697479" y="0" x="0"/>
<use id="R5" xlink:href="#RESC1005" transform="translate(-3.2318911,63.481185)" height="107.99995" width="56.697479" y="0" x="0"/>
<use id="R6" xlink:href="#RESC1005" transform="translate(-3.5026409,0.10084748)" height="107.99995" width="56.697479" y="0" x="0"/>
<use id="C9" xlink:href="#RESC1005" transform="matrix(0,1,-1,0,72.733679,55.72518)" height="107.99995" width="56.697479" y="0" x="0"/>
<use id="R10" xlink:href="#RESC1005" transform="translate(-36.187264,0.71690689)" height="107.99995" width="56.697479" y="0" x="0"/>
<use id="R9" xlink:href="#RESC1005" transform="matrix(0,1,-1,0,46.467202,56.105459)" height="107.99995" width="56.697479" y="0" x="0"/>
<use id="R8" xlink:href="#RESC1005" transform="translate(-35.995134,65.898891)" height="107.99995" width="56.697479" y="0" x="0"/>
<use id="C11" xlink:href="#RESC1005" transform="translate(-25.167198,73.703516)" height="107.99995" width="56.697479" y="0" x="0"/>
<use id="C5" xlink:href="#RESC1005" transform="matrix(0,1,-1,0,48.781265,27.89452)" height="107.99995" width="56.697479" y="0" x="0"/>
<use id="C2" xlink:href="#RESC1005" transform="matrix(0,1,-1,0,48.763741,31.009919)" height="107.99995" width="56.697479" y="0" x="0"/>
<use id="C8" xlink:href="#RESC1005" transform="matrix(0,1,-1,0,68.237579,42.859816)" height="107.99995" width="56.697479" y="0" x="0"/>
<use id="C7" xlink:href="#RESC1005" transform="matrix(0,1,-1,0,61.32175,42.859814)" height="107.99995" width="56.697479" y="0" x="0"/>
<rect id="C2012" y="11.056" transform="matrix(0,-1,1,0,0,0)" height="7.0866" width="4.4291" x="-84.623" fill="#2e2e2e"/>
<use id="C6" xlink:href="#C2012" transform="translate(0.00876293,7.0818308)" height="107.99995" width="56.697479" y="0" x="0"/>
<use id="C17" xlink:href="#C2012" transform="translate(3.4492323,-52.113816)" height="107.99995" width="56.697479" y="0" x="0"/>
<use id="C3216" xlink:href="#C2012" transform="matrix(1.6,0,0,1.28,9.1278524,-75.196853)" height="107.99995" width="56.697479" y="0" x="0"/>
<rect id="Y1" height="12.402" width="21.26" y="74.202" x="22.525" fill="#2e2e2e"/>
<g id="g3707">
<use id="U3" xlink:href="#C2012" transform="matrix(2.5,0,0,3.2,1.4648776,-249.77358)" height="107.99995" width="56.697479" y="0" x="0"/>
<g id="g3698">
<use id="use3684" xlink:href="#C2012" transform="matrix(0.2,0,0,4.8,28.152089,-381.62633)" height="107.99995" width="56.697479" y="0" x="0">
<title id="title3686">MC33269D</title>
</use>
<use id="use3692" xlink:href="#use3684" transform="translate(4.4445716,0)" height="107.99995" width="56.697479" y="0" x="0"/>
<use id="use3694" xlink:href="#use3692" transform="translate(4.5433654,0)" height="107.99995" width="56.697479" y="0" x="0"/>
<use id="use3696" xlink:href="#use3694" transform="translate(4.4939685,0)" height="107.99995" width="56.697479" y="0" x="0"/>
</g>
</g>
<g id="g3717">
<use id="U5" xlink:href="#U3" transform="translate(-19.706562,0)" height="107.99995" width="56.697479" y="0" x="0"/>
<use id="use3705" xlink:href="#g3698" transform="translate(-19.604824,0)" height="107.99995" width="56.697479" y="0" x="0"/>
</g>
<g id="g3732">
<rect id="U4" height="5.6693" width="2.8346" y="94.081" x="14.231" fill="#2e2e2e"/>
<g id="g3727">
<use id="use3721" xlink:href="#RESC1005" transform="matrix(0.8,0,0,0.2,-23.385927,88.92666)" height="107.99995" width="56.697479" y="0" x="0"/>
<use id="use3723" xlink:href="#use3721" transform="translate(0,3.5313008)" height="107.99995" width="56.697479" y="0" x="0"/>
<use id="use3725" xlink:href="#use3723" transform="translate(4.0987936,-1.7562395)" height="107.99995" width="56.697479" y="0" x="0"/>
</g>
</g>
</g>
<g id="g3381" style="enable-background:new;" transform="translate(268.39094,392.97356)">
<g id="netduino" fill="#FFF" transform="matrix(0.11728532,0,0,0.11728532,8.4762016,47.115014)">
<path id="path4496-0" d="m131.25,228.44v-13.441c0-6.048,4.225-10.081,9.841-10.081,5.617,0,9.841,4.032,9.841,10.081v13.441h-4.224v-13.441c0-3.552-2.592-6.048-5.617-6.048s-5.616,2.496-5.616,6.048v13.441h-4.225z"/>
<path id="path4498" d="m162.06,220.86-1.728-3.36,11.377-6.336c-1.44-1.44-2.64-2.208-5.232-2.208-4.368,0-7.537,3.264-7.537,7.969s3.168,7.969,7.537,7.969c4.993,0,6.865-2.976,7.729-7.201l4.272,0.528c-0.48,6.097-5.376,10.705-12.001,10.705-6.384,0-11.953-4.896-11.953-12.001s5.569-12.001,11.953-12.001c5.376,0,8.977,2.832,11.137,7.296l-15.554,8.64z"/>
<path id="path4500" d="m195.09,209.43h-8.257v12.097c0,2.16,1.008,2.88,3.168,2.88h5.088v4.032h-5.665c-4.32,0-6.817-2.88-6.817-7.44v-21.36h4.225v5.761h8.257v4.032z"/>
<path id="path4502-9" d="m220.53,194.84v21.41c0,7.584-4.848,12.673-11.617,12.673-7.489,0-11.905-5.76-11.905-12.577,0-6.433,5.185-11.425,11.089-11.425,2.304,0,4.513,0.48,6.529,1.632v4.416c-1.536-1.056-3.888-2.016-5.809-2.016-4.561,0-7.584,3.168-7.584,7.921,0,4.704,3.168,8.017,7.681,8.017,4.032,0,7.393-3.072,7.393-9.409v-20.64h4.223z"/>
<path id="path4504" d="m244.29,205.4v13.441c0,6.048-4.224,10.081-9.841,10.081-5.616,0-9.841-4.032-9.841-10.081v-13.44h4.225v13.441c0,3.552,2.592,6.048,5.616,6.048s5.617-2.496,5.617-6.048v-13.44h4.224z"/>
<path id="path4506-4" d="m253.12,197.72c1.632,0,2.544,1.248,2.544,2.544s-0.912,2.544-2.544,2.544-2.544-1.248-2.544-2.544,0.912-2.544,2.544-2.544zm-2.112,30.722v-23.04h4.224v23.042h-4.224z"/>
<path id="path4508" d="m261.95,228.44v-13.441c0-6.048,4.225-10.081,9.841-10.081,5.617,0,9.841,4.032,9.841,10.081v13.441h-4.224v-13.441c0-3.552-2.592-6.048-5.617-6.048s-5.616,2.496-5.616,6.048v13.441h-4.225z"/>
<path id="path4510-8" d="m297.14,204.92c6.384,0,11.953,4.896,11.953,12.001s-5.568,12.001-11.953,12.001-11.953-4.896-11.953-12.001,5.568-12.001,11.953-12.001zm0,19.97c4.368,0,7.537-3.264,7.537-7.969s-3.168-7.969-7.537-7.969-7.537,3.264-7.537,7.969,3.169,7.969,7.537,7.969z"/>
</g>
<text id="text10062-1" style="enable-background:new;writing-mode:lr-tb;text-anchor:start;text-align:start;" line-height="125%" font-weight="normal" font-size="5px" font-style="normal" font-stretch="normal" font-variant="normal" y="6.1098752" x="7.572772" font-family="Droid Sans" xml:space="preserve" fill="#ffffff"><tspan id="tspan10064-7" font-weight="normal" font-size="5px" font-style="normal" font-stretch="normal" font-variant="normal" y="6.1098752" x="7.572772" font-family="Droid Sans" fill="#ffffff">1</tspan></text>
</g>
</g>
<rect id="connector0pin" height="2.7" width="3.905" y="396.54" x="268.39" fill="none"/>
<rect id="connector0terminal" height="2.7" width="2.6987" y="396.54" x="268.39" fill="none"/>
<rect id="connector1pin" height="2.7" width="3.905" y="405.54" x="268.39" fill="none"/>
<rect id="connector1terminal" height="2.7" width="2.6987" y="405.54" x="268.39" fill="none"/>
<rect id="connector2pin" height="2.7" width="3.905" y="414.54" x="268.39" fill="none"/>
<rect id="connector2terminal" height="2.7" width="2.6987" y="414.54" x="268.39" fill="none"/>
<rect id="connector3pin" height="2.7" width="3.905" y="423.54" x="268.39" fill="none"/>
<rect id="connector3terminal" height="2.7" width="2.6987" y="423.54" x="268.39" fill="none"/>
<rect id="connector4pin" height="2.7" width="3.905" y="432.54" x="268.39" fill="none"/>
<rect id="connector4terminal" height="2.7" width="2.6987" y="432.54" x="268.39" fill="none"/>
<rect id="connector5pin" height="2.7" width="3.905" y="441.54" x="268.39" fill="none"/>
<rect id="connector5terminal" height="2.7" width="2.6987" y="441.54" x="268.39" fill="none"/>
<rect id="connector6pin" height="2.7" width="3.905" y="450.54" x="268.39" fill="none"/>
<rect id="connector6terminal" height="2.7" width="2.6987" y="450.54" x="268.39" fill="none"/>
<rect id="connector7pin" height="2.7" width="3.905" y="459.54" x="268.39" fill="none"/>
<rect id="connector7terminal" height="2.7" width="2.6987" y="459.54" x="268.39" fill="none"/>
<rect id="connector8pin" height="2.7" width="3.905" y="468.54" x="268.39" fill="none"/>
<rect id="connector8terminal" height="2.7" width="2.6987" y="468.54" x="268.39" fill="none"/>
<rect id="connector9pin" height="2.7" width="3.905" y="477.53" x="268.39" fill="none"/>
<rect id="connector9terminal" height="2.7" width="2.6987" y="477.53" x="268.39" fill="none"/>
<rect id="connector10pin" height="2.7" width="3.905" y="486.54" x="268.39" fill="none"/>
<rect id="connector10terminal" height="2.7" width="2.6987" y="486.54" x="268.39" fill="none"/>
<rect id="connector11pin" height="2.7" width="3.905" y="495.54" x="268.39" fill="none"/>
<rect id="connector11terminal" height="2.7" width="2.6987" y="495.54" x="268.39" fill="none"/>
<rect id="connector12pin" height="2.7" width="3.9062" y="495.54" x="321.18" fill="none"/>
<rect id="connector12terminal" height="2.7" width="2.7" y="495.54" x="322.39" fill="none"/>
<rect id="connector13pin" height="2.7" width="3.9062" y="486.54" x="321.18" fill="none"/>
<rect id="connector13terminal" height="2.7" width="2.7" y="486.54" x="322.39" fill="none"/>
<rect id="connector14pin" height="2.7" width="3.9062" y="477.53" x="321.18" fill="none"/>
<rect id="connector14terminal" height="2.7" width="2.7" y="477.53" x="322.39" fill="none"/>
<rect id="connector15pin" height="2.7" width="3.9062" y="468.54" x="321.18" fill="none"/>
<rect id="connector15terminal" height="2.7" width="2.7" y="468.54" x="322.39" fill="none"/>
<rect id="connector16pin" height="2.7" width="3.9062" y="459.54" x="321.18" fill="none"/>
<rect id="connector16terminal" height="2.7" width="2.7" y="459.54" x="322.39" fill="none"/>
<rect id="connector17pin" height="2.7" width="3.9062" y="450.54" x="321.18" fill="none"/>
<rect id="connector17terminal" height="2.7" width="2.7" y="450.54" x="322.39" fill="none"/>
<rect id="connector18pin" height="2.7" width="3.9062" y="441.54" x="321.18" fill="none"/>
<rect id="connector18terminal" height="2.7" width="2.7" y="441.54" x="322.39" fill="none"/>
<rect id="connector19pin" height="2.7" width="3.9062" y="432.54" x="321.18" fill="none"/>
<rect id="connector19terminal" height="2.7" width="2.7" y="432.54" x="322.39" fill="none"/>
<rect id="connector20pin" height="2.7" width="3.9062" y="423.54" x="321.18" fill="none"/>
<rect id="connector20terminal" height="2.7" width="2.7" y="423.54" x="322.39" fill="none"/>
<rect id="connector21pin" height="2.7" width="3.9062" y="414.54" x="321.18" fill="none"/>
<rect id="connector21terminal" height="2.7" width="2.7" y="414.54" x="322.39" fill="none"/>
<rect id="connector22pin" height="2.7" width="3.9062" y="405.54" x="321.18" fill="none"/>
<rect id="connector22terminal" height="2.7" width="2.7" y="405.54" x="322.39" fill="none"/>
<rect id="connector23pin" height="2.7" width="3.9062" y="396.54" x="321.18" fill="none"/>
<rect id="connector23terminal" height="2.7" width="2.7" y="396.54" x="322.39" fill="none"/>
</g>
</svg>
