<?xml version="1.0" encoding="UTF-8" standalone="no"?>

<svg id="svg2" xmlns:rdf="http://www.w3.org/1999/02/22-rdf-syntax-ns#" style="enable-background:new;" xmlns="http://www.w3.org/2000/svg" xml:space="preserve" height="189" viewBox="0 0 199.42688 151.20001" width="249.28" version="1.2" y="0px" x="0px" xmlns:cc="http://creativecommons.org/ns#" xmlns:dc="http://purl.org/dc/elements/1.1/"><metadata id="metadata5110"><rdf:RDF><cc:Work rdf:about=""><dc:format>image/svg+xml</dc:format><dc:type rdf:resource="http://purl.org/dc/dcmitype/StillImage"/><dc:title/></cc:Work></rdf:RDF></metadata><g id="b"><g id="breadboardbreadboard"><path id="path5990-7" style="enable-background:new;" transform="translate(-63.970902,87.725022)" fill="#1c1c1c" d="m68.965-87.725,0,151.2,187.21,0,0-7.005,7.2265-7.2898,0-93.641-7.2265-6.5747,0-32.918-4.0752-3.7715-183.13,0zm42.941,2.8223c0.0743-0.0038,0.14621,0,0.22148,0,2.4088,0,4.36,1.9512,4.36,4.36,0,2.4087-1.9512,4.36-4.36,4.36-2.4087,0-4.36-1.9512-4.36-4.36,0-2.3335,1.834-4.2431,4.1385-4.36zm144.3,43.068c2.4087,0,4.36,1.9512,4.36,4.36,0,2.4087-1.9512,4.36-4.36,4.36-2.4087,0-4.36-1.9512-4.36-4.36,0-2.4087,1.9512-4.36,4.36-4.36zm-0.0759,79.359c2.4087,0,4.36,1.9575,4.36,4.3663,0,2.4087-1.9512,4.36-4.36,4.36s-4.36-1.9512-4.36-4.36c0-2.4087,1.9512-4.3663,4.36-4.3663z"/><path id="path10810" style="enable-background:new;" transform="translate(-63.970902,87.725022)" fill="#f7bd13" d="m234.7-22.416c-1.4824,0-2.6894,1.2006-2.6894,2.683s1.2069,2.6894,2.6894,2.6894c1.4824,0,2.683-1.2069,2.683-2.6894,0-1.4824-1.2006-2.683-2.683-2.683zm0,1.3542c0.7355,0,1.3289,0.59338,1.3289,1.3289,0,0.73549-0.59337,1.3352-1.3289,1.3352-0.73549,0-1.3352-0.5997-1.3352-1.3352,0-0.73549,0.5997-1.3289,1.3352-1.3289z"/><path id="path10812" style="enable-background:new;" transform="translate(-63.970902,87.725022)" fill="#f7bd13" d="m234.7-9.7355c-1.4824,0-2.6894,1.2006-2.6894,2.6831,0,1.4824,1.2069,2.6894,2.6894,2.6894,1.4824,0,2.683-1.2069,2.683-2.6894,0-1.4824-1.2006-2.6831-2.683-2.6831zm0,1.3542c0.7355,0,1.3289,0.59338,1.3289,1.3289,0,0.73549-0.59337,1.3352-1.3289,1.3352-0.73549,0-1.3352-0.5997-1.3352-1.3352,0-0.73549,0.5997-1.3289,1.3352-1.3289z"/><path id="path10814" style="enable-background:new;" transform="translate(-63.970902,87.725022)" fill="#f7bd13" d="m216.27-22.416c-1.4824,0-2.6894,1.2006-2.6894,2.683s1.207,2.6894,2.6894,2.6894,2.683-1.2069,2.683-2.6894c0-1.4824-1.2006-2.683-2.683-2.683zm0,1.3542c0.73549,0,1.3289,0.59338,1.3289,1.3289,0,0.73549-0.59338,1.3352-1.3289,1.3352-0.73549,0-1.3352-0.5997-1.3352-1.3352,0-0.73549,0.59971-1.3289,1.3352-1.3289z"/><path id="path10816" style="enable-background:new;" transform="translate(-63.970902,87.725022)" fill="#f7bd13" d="m216.27-9.7355c-1.4824,0-2.6894,1.2006-2.6894,2.6831,0,1.4824,1.207,2.6894,2.6894,2.6894s2.683-1.2069,2.683-2.6894c0-1.4824-1.2006-2.6831-2.683-2.6831zm0,1.3542c0.73549,0,1.3289,0.59338,1.3289,1.3289,0,0.73549-0.59338,1.3352-1.3289,1.3352-0.73549,0-1.3352-0.5997-1.3352-1.3352,0-0.73549,0.59971-1.3289,1.3352-1.3289z"/><path id="path10793" style="enable-background:new;" transform="translate(-63.970902,87.725022)" fill="#f7bd13" d="m256.51-25.597c-1.4824,0-2.6894,1.2006-2.6894,2.683s1.207,2.6894,2.6894,2.6894,2.683-1.2069,2.683-2.6894c0-1.4824-1.2006-2.683-2.683-2.683zm0,1.3542c0.7355,0,1.3289,0.59338,1.3289,1.3289,0,0.7355-0.59337,1.3352-1.3289,1.3352-0.73549,0-1.3352-0.5997-1.3352-1.3352,0-0.73549,0.5997-1.3289,1.3352-1.3289z"/><path id="rect10807" style="enable-background:new;" transform="translate(-63.970902,87.725022)" fill="#f7bd13" d="m246.93-25.458,0,4.9738,4.9738,0,0-4.9738-4.9738,0zm2.4869,1.1517c0.7355,0,1.3352,0.5997,1.3352,1.3352,0,0.73549-0.5997,1.3289-1.3352,1.3289-0.73549,0-1.3289-0.59338-1.3289-1.3289,0-0.73549,0.59338-1.3352,1.3289-1.3352z"/><path id="path10799" style="enable-background:new;" transform="translate(-63.970902,87.725022)" fill="#f7bd13" d="m256.51-18.307c-1.4824,0-2.6894,1.2006-2.6894,2.683s1.207,2.6894,2.6894,2.6894,2.683-1.2069,2.683-2.6894c0-1.4824-1.2006-2.683-2.683-2.683zm0,1.3542c0.7355,0,1.3289,0.59338,1.3289,1.3289,0,0.73549-0.59337,1.3352-1.3289,1.3352-0.73549,0-1.3352-0.5997-1.3352-1.3352,0-0.73549,0.5997-1.3289,1.3352-1.3289z"/><path id="path10801" style="enable-background:new;" transform="translate(-63.970902,87.725022)" fill="#f7bd13" d="m256.51-11.136c-1.4824,0-2.6894,1.2006-2.6894,2.683s1.207,2.6894,2.6894,2.6894,2.683-1.2069,2.683-2.6894c0-1.4824-1.2006-2.683-2.683-2.683zm0,1.3542c0.7355,0,1.3289,0.59338,1.3289,1.3289,0,0.73549-0.59337,1.3352-1.3289,1.3352-0.73549,0-1.3352-0.5997-1.3352-1.3352,0-0.73549,0.5997-1.3289,1.3352-1.3289z"/><path id="path10803" style="enable-background:new;" transform="translate(-63.970902,87.725022)" fill="#f7bd13" d="m249.51-11.136c-1.4824,0-2.6894,1.2006-2.6894,2.683s1.2069,2.6894,2.6894,2.6894c1.4824,0,2.683-1.2069,2.683-2.6894,0-1.4824-1.2006-2.683-2.683-2.683zm0,1.3542c0.7355,0,1.3289,0.59338,1.3289,1.3289,0,0.73549-0.59337,1.3352-1.3289,1.3352-0.73549,0-1.3352-0.5997-1.3352-1.3352,0-0.73549,0.5997-1.3289,1.3352-1.3289z"/><path id="path10805" style="enable-background:new;" transform="translate(-63.970902,87.725022)" fill="#f7bd13" d="m249.51-18.307c-1.4824,0-2.6894,1.2006-2.6894,2.683s1.2069,2.6894,2.6894,2.6894c1.4824,0,2.683-1.2069,2.683-2.6894,0-1.4824-1.2006-2.683-2.683-2.683zm0,1.3542c0.7355,0,1.3289,0.59338,1.3289,1.3289,0,0.73549-0.59337,1.3352-1.3289,1.3352-0.73549,0-1.3352-0.5997-1.3352-1.3352,0-0.73549,0.5997-1.3289,1.3352-1.3289z"/><path id="path10698-4" style="enable-background:new;" transform="matrix(0.20249435,0,0,0.20249435,58.813748,79.026781)" fill="#f7bd13" d="m28.499-368.49a6.5766,6.5766,0,1,1,-13.153,0,6.5766,6.5766,0,1,1,13.153,0z"/><path id="path10698-0-1" style="enable-background:new;" transform="matrix(0.20249435,0,0,0.20249435,82.515769,170.88492)" fill="#f7bd13" d="m28.499-368.49a6.5766,6.5766,0,1,1,-13.153,0,6.5766,6.5766,0,1,1,13.153,0z"/><rect id="rect10751-9" style="enable-background:new;" transform="translate(-63.970902,87.725022)" height="2.1525" width="2.1525" y="-68.092" x="250.02" fill="#f7bd13"/><path id="path10698-2-9" style="enable-background:new;" transform="matrix(0.20249435,0,0,0.20249435,5.618021,220.80807)" fill="#f7bd13" d="m28.499-368.49a6.5766,6.5766,0,1,1,-13.153,0,6.5766,6.5766,0,1,1,13.153,0z"/><path id="path10698-6-3-7" style="enable-background:new;" transform="matrix(0.20249435,0,0,0.20249435,189.78323,189.5736)" fill="#f7bd13" d="m28.499-368.49a6.5766,6.5766,0,1,1,-13.153,0,6.5766,6.5766,0,1,1,13.153,0z"/><path id="path10698-62-1-2" style="enable-background:new;" transform="matrix(0.20249435,0,0,0.20249435,127.49432,125.84682)" fill="#f7bd13" d="m28.499-368.49a6.5766,6.5766,0,1,1,-13.153,0,6.5766,6.5766,0,1,1,13.153,0z"/><rect id="rect8754" style="enable-background:new;" transform="translate(-63.970902,87.725022)" height="6.1645" width="3.9123" y="-59.313" x="137.9" fill="#2e2e2e"/><rect id="rect8756" style="enable-background:new;" transform="translate(-63.970902,87.725022)" height="6.1645" width="3.9123" y="-59.313" x="145.83" fill="#2e2e2e"/><rect id="rect8758" style="enable-background:new;" transform="translate(-63.970902,87.725022)" height="6.1645" width="3.9123" y="-59.313" x="189.05" fill="#2e2e2e"/><rect id="rect8760" style="enable-background:new;" transform="translate(-63.970902,87.725022)" height="6.1645" width="3.9123" y="-59.313" x="196.86" fill="#2e2e2e"/><rect id="rect8762" style="enable-background:new;" transform="translate(-63.970902,87.725022)" height="6.1645" width="3.9123" y="-59.313" x="204.56" fill="#2e2e2e"/><rect id="rect8764" style="enable-background:new;" transform="translate(-63.970902,87.725022)" height="6.1645" width="3.9123" y="-59.313" x="225.62" fill="#2e2e2e"/><rect id="rect8766" style="enable-background:new;" transform="matrix(0,0.99999999,-0.99999999,0,-63.970902,87.725014)" height="6.1645" width="3.9123" y="-234.99" x="-30.529" fill="#2e2e2e"/><rect id="rect8768" style="enable-background:new;" transform="matrix(0,0.99999999,-0.99999999,0,-63.970902,87.725014)" height="6.1645" width="3.9123" y="-221.74" x="-30.647" fill="#2e2e2e"/><rect id="rect8770" style="enable-background:new;" transform="matrix(0,0.99999999,-0.99999999,0,-63.970902,87.725014)" height="6.1645" width="3.9123" y="-226.6" x="-0.678" fill="#2e2e2e"/><rect id="rect8772" style="enable-background:new;" transform="matrix(0,0.99999999,-0.99999999,0,-63.970902,87.725014)" height="6.1645" width="3.9123" y="-241.99" x="-0.678" fill="#2e2e2e"/><rect id="rect8774" style="enable-background:new;" transform="matrix(0,0.99999999,-0.99999999,0,-63.970902,87.725014)" height="6.1645" width="3.9123" y="-253.33" x="-0.678" fill="#2e2e2e"/><rect id="rect8776" style="enable-background:new;" transform="matrix(0,0.99999999,-0.99999999,0,-63.970902,87.725014)" height="6.1645" width="3.9123" y="-226.6" x="13.497" fill="#2e2e2e"/><rect id="rect8778" style="enable-background:new;" transform="matrix(0,0.99999999,-0.99999999,0,-63.970902,87.725014)" height="6.1645" width="3.9123" y="-226.6" x="20.381" fill="#2e2e2e"/><rect id="rect8780" style="enable-background:new;" transform="matrix(0,0.99999999,-0.99999999,0,-63.970902,87.725014)" height="6.1645" width="3.9123" y="-226.6" x="6.2068" fill="#2e2e2e"/><rect id="rect8782" style="enable-background:new;" transform="translate(-63.970902,87.725022)" height="6.1645" width="3.9123" y="-29.58" x="203.1" fill="#2e2e2e"/><rect id="rect8784" style="enable-background:new;" transform="translate(-63.970902,87.725022)" height="6.1645" width="3.9123" y="-16.739" x="203.1" fill="#2e2e2e"/><rect id="rect8786" style="enable-background:new;" transform="translate(-63.970902,87.725022)" height="6.1645" width="3.9123" y="-4.0661" x="203.1" fill="#2e2e2e"/><rect id="rect8788" style="enable-background:new;" transform="translate(-63.970902,87.725022)" height="6.1645" width="3.9123" y="17.28" x="208.77" fill="#2e2e2e"/><rect id="rect8790" style="enable-background:new;" transform="translate(-63.970902,87.725022)" height="6.1645" width="3.9123" y="17.28" x="200.96" fill="#2e2e2e"/><rect id="rect8792" style="enable-background:new;" transform="translate(-63.970902,87.725022)" height="6.1645" width="3.9123" y="17.28" x="193.27" fill="#2e2e2e"/><rect id="rect8794" style="enable-background:new;" transform="translate(-63.970902,87.725022)" height="6.1645" width="3.9123" y="17.28" x="185.4" fill="#2e2e2e"/><rect id="rect8796" style="enable-background:new;" transform="translate(-63.970902,87.725022)" height="6.1645" width="3.9123" y="17.28" x="177.71" fill="#2e2e2e"/><rect id="rect8798" style="enable-background:new;" transform="translate(-63.970902,87.725022)" height="6.1645" width="3.9123" y="17.28" x="169.78" fill="#2e2e2e"/><rect id="rect8800" style="enable-background:new;" transform="translate(-63.970902,87.725022)" height="6.1645" width="3.9123" y="17.28" x="162.08" fill="#2e2e2e"/><rect id="rect8802" style="enable-background:new;" transform="translate(-63.970902,87.725022)" height="6.1645" width="3.9123" y="17.28" x="154.22" fill="#2e2e2e"/><rect id="rect8804" style="enable-background:new;" transform="translate(-63.970902,87.725022)" height="6.1645" width="3.9123" y="17.28" x="146.52" fill="#2e2e2e"/><rect id="rect8806" style="enable-background:new;" transform="translate(-63.970902,87.725022)" height="6.1645" width="3.9123" y="24.283" x="135.07" fill="#2e2e2e"/><rect id="rect8808" style="enable-background:new;" transform="translate(-63.970902,87.725022)" height="6.1645" width="3.9123" y="24.283" x="127.37" fill="#2e2e2e"/><rect id="rect8810" style="enable-background:new;" transform="translate(-63.970902,87.725022)" height="6.1645" width="3.9123" y="24.283" x="119.27" fill="#2e2e2e"/><rect id="rect8812" style="enable-background:new;" transform="translate(-63.970902,87.725022)" height="6.1645" width="3.9123" y="41.006" x="118.8" fill="#2e2e2e"/><rect id="rect8814" style="enable-background:new;" transform="translate(-63.970902,87.725022)" height="6.1645" width="3.9123" y="7.3921" x="83.396" fill="#2e2e2e"/><rect id="rect8816" style="enable-background:new;" transform="translate(-63.970902,87.725022)" height="6.1645" width="3.9123" y="-47.281" x="74.081" fill="#2e2e2e"/><rect id="rect8818" style="enable-background:new;" transform="translate(-63.970902,87.725022)" height="6.1645" width="3.9123" y="-47.993" x="104.74" fill="#2e2e2e"/><rect id="rect8820" style="enable-background:new;" transform="translate(-63.970902,87.725022)" height="6.1645" width="3.9123" y="-59.332" x="104.74" fill="#2e2e2e"/><rect id="rect8822" style="enable-background:new;" transform="translate(-63.970902,87.725022)" height="6.1645" width="3.9123" y="-29.6" x="139.98" fill="#2e2e2e"/><rect id="rect8824" style="enable-background:new;" transform="matrix(0,0.99999999,-0.99999999,0,-63.970902,87.725014)" height="6.1645" width="3.9123" y="-123.91" x="-32.001" fill="#2e2e2e"/><rect id="rect8826" style="enable-background:new;" transform="matrix(0,0.99999999,-0.99999999,0,-63.970902,87.725014)" height="6.1645" width="3.9123" y="-94.055" x="-32.001" fill="#2e2e2e"/><rect id="rect8828" style="enable-background:new;" transform="matrix(0,0.99999999,-0.99999999,0,-63.970902,87.725014)" height="6.1645" width="3.9123" y="-138.6" x="-14.991" fill="#2e2e2e"/><rect id="rect8830" style="enable-background:new;" transform="matrix(0,0.99999999,-0.99999999,0,-63.970902,87.725014)" height="6.1645" width="3.9123" y="-139.7" x="10.523" fill="#2e2e2e"/><rect id="rect8832" style="enable-background:new;" transform="translate(-63.970902,87.725022)" height="9.721" width="4.9793" y="-61.861" x="73.676" fill="#2e2e2e"/><rect id="rect8834" style="enable-background:new;" transform="matrix(0,0.99999999,-0.99999999,0,-63.970902,87.725014)" height="9.6025" width="4.7422" y="-112.88" x="-23.091" fill="#2e2e2e"/><rect id="rect8836" style="enable-background:new;" transform="translate(-63.970902,87.725022)" height="5.6903" width="2.8454" y="-15.725" x="90.39" fill="#2e2e2e"/><path id="rect8838" style="enable-background:new;" transform="translate(-63.970902,87.725022)" fill="#2e2e2e" d="m109.45-4.0062,0,3.3222-4.5055,0,0,10.789,1.8098,0,0,4.284,2.1325,0,0-4.284,4.3473,0,0,4.284,2.1325,0,0-4.284,4.2271,0,0,4.284,2.1388,0,0-4.284,2.297,0,0-10.789-4.9801,0,0-3.3222-9.5995,0z"/><rect id="rect8840" style="enable-background:new;" transform="matrix(0,0.99999999,-0.99999999,0,-63.970902,87.725014)" height="9.8396" width="17.071" y="-141.92" x="-8.8265" fill="#2e2e2e"/><rect id="rect8842" style="enable-background:new;" transform="translate(-63.970902,87.725022)" height="5.2162" width="9.0099" y="41.599" x="126.27" fill="#2e2e2e"/><rect id="rect8844" style="enable-background:new;" transform="translate(-63.970902,87.725022)" height="15.174" width="8.4172" y="36.62" x="142.74" fill="#2e2e2e"/><rect id="rect8846" style="enable-background:new;" transform="matrix(0,0.99999999,-0.99999999,0,-63.970902,87.725014)" height="6.7573" width="8.7728" y="-248.75" x="9.9914" fill="#2e2e2e"/><rect id="rect8848" style="enable-background:new;" transform="translate(-63.970902,87.725022)" height="8.6541" width="4.0309" y="-60.498" x="215.07" fill="#2e2e2e"/><rect id="rect8850" style="enable-background:new;" transform="translate(-63.970902,87.725022)" height="8.6541" width="4.0309" y="-60.498" x="176.18" fill="#2e2e2e"/><rect id="rect8852" style="enable-background:new;" transform="translate(-63.970902,87.725022)" height="8.6541" width="4.0309" y="-60.498" x="160.39" fill="#2e2e2e"/><rect id="rect8854" style="enable-background:new;" transform="matrix(0,0.99999999,-0.99999999,0,-63.970902,87.725014)" height="6.1645" width="3.9123" y="-171.24" x="-47.538" fill="#2e2e2e"/><rect id="rect8856" style="enable-background:new;" transform="matrix(0,0.99999999,-0.99999999,0,-63.970902,87.725014)" height="6.1645" width="3.9123" y="-184.89" x="-47.538" fill="#2e2e2e"/><rect id="rect8858" style="enable-background:new;" transform="matrix(0,0.99999999,-0.99999999,0,-63.970902,87.725014)" height="39.714" width="39.714" y="-193.07" x="-33.431" fill="#2e2e2e"/><path id="rect8860" style="enable-background:new;" transform="translate(-63.970902,87.725022)" fill="#2e2e2e" d="m84.228-64.925,0,2.9488-2.2528,0,0,16.832,0.94919,0,0,7.2518,2.8412,0,0-7.2518,10.118,0,0,7.2518,2.8412,0,0-7.2518,1.6263,0,0-16.832-2.8476,0,0-2.9488-13.276,0z"/><path id="path8870" style="enable-background:new;" transform="translate(-63.970902,87.725022)" fill="#2e2e2e" d="m113.79-64.925,0,2.9488-2.2528,0,0,16.832,0.94919,0,0,7.2518,2.8412,0,0-7.2518,10.118,0,0,7.2518,2.8412,0,0-7.2518,1.6263,0,0-16.832-2.8476,0,0-2.9488-13.276,0z"/><g id="g9883" style="enable-background:new;" transform="matrix(0.25311793,0,0,0.25311793,55.789688,78.669074)"><rect id="rect9671" height="27.819" width="170.56" y="243.74" x="154.96" fill="#55adf7"/><g id="g9847"><polygon id="polygon9675" opacity="0.84016395" style="enable-background:new;" transform="matrix(4.0353725,0,0,4.0353725,-605.11285,-315.95545)" points="189.52,139.86,190.54,140.88,193.32,140.88,194.34,139.86" fill="#004987"/><polygon id="polygon9677" opacity="0.84016395" style="enable-background:new;" transform="matrix(4.0353725,0,0,4.0353725,-605.11285,-315.95545)" points="194.34,139.86,193.32,140.89,193.32,143.66,194.34,144.68" fill="#0a7bdc"/><polygon id="polygon9679" opacity="0.84016395" style="enable-background:new;" transform="matrix(4.0353725,0,0,4.0353725,-605.11285,-315.95545)" points="194.34,144.68,193.32,143.66,190.54,143.66,189.52,144.68" fill="#84c4f9"/><polygon id="polygon9681" opacity="0.84016395" style="enable-background:new;" transform="matrix(4.0353725,0,0,4.0353725,-605.11285,-315.95545)" points="189.52,144.68,190.54,143.66,190.54,140.88,189.52,139.86" fill="#0861ab"/></g><g id="g9853"><polygon id="polygon9685" opacity="0.84016395" style="enable-background:new;" transform="matrix(4.0353725,0,0,4.0353725,-576.31285,-315.95545)" points="189.52,139.86,190.54,140.88,193.32,140.88,194.34,139.86" fill="#0e5999"/><polygon id="polygon9687" opacity="0.84016395" style="enable-background:new;" transform="matrix(4.0353725,0,0,4.0353725,-576.31285,-315.95545)" points="194.34,139.86,193.32,140.89,193.32,143.66,194.34,144.68" fill="#1683e1"/><polygon id="polygon9689" opacity="0.84016395" style="enable-background:new;" transform="matrix(4.0353725,0,0,4.0353725,-576.31285,-315.95545)" points="194.34,144.68,193.32,143.66,190.54,143.66,189.52,144.68" fill="#7dc0f9"/><polygon id="polygon9691" opacity="0.84016395" style="enable-background:new;" transform="matrix(4.0353725,0,0,4.0353725,-576.31285,-315.95545)" points="189.52,144.68,190.54,143.66,190.54,140.88,189.52,139.86" fill="#156db8"/></g><g id="g9859"><polygon id="polygon9695" opacity="0.84016395" style="enable-background:new;" transform="matrix(4.0353725,0,0,4.0353725,-547.51285,-315.95545)" points="189.52,139.86,190.54,140.88,193.32,140.88,194.34,139.86" fill="#0e5999"/><polygon id="polygon9697" opacity="0.84016395" style="enable-background:new;" transform="matrix(4.0353725,0,0,4.0353725,-547.51285,-315.95545)" points="194.34,139.86,193.32,140.89,193.32,143.66,194.34,144.68" fill="#1683e1"/><polygon id="polygon9699" opacity="0.84016395" style="enable-background:new;" transform="matrix(4.0353725,0,0,4.0353725,-547.51285,-315.95545)" points="194.34,144.68,193.32,143.66,190.54,143.66,189.52,144.68" fill="#7dc0f9"/><polygon id="polygon9701" opacity="0.84016395" style="enable-background:new;" transform="matrix(4.0353725,0,0,4.0353725,-547.51285,-315.95545)" points="189.52,144.68,190.54,143.66,190.54,140.88,189.52,139.86" fill="#156db8"/></g><g id="g9865"><polygon id="polygon9705" opacity="0.84016395" style="enable-background:new;" transform="matrix(4.0353725,0,0,4.0353725,-519.98167,-315.95545)" points="189.52,139.86,190.54,140.88,193.32,140.88,194.34,139.86" fill="#0e5999"/><polygon id="polygon9707" opacity="0.84016395" style="enable-background:new;" transform="matrix(4.0353725,0,0,4.0353725,-519.98167,-315.95545)" points="194.34,139.86,193.32,140.89,193.32,143.66,194.34,144.68" fill="#1683e1"/><polygon id="polygon9709" opacity="0.84016395" style="enable-background:new;" transform="matrix(4.0353725,0,0,4.0353725,-519.98167,-315.95545)" points="194.34,144.68,193.32,143.66,190.54,143.66,189.52,144.68" fill="#7dc0f9"/><polygon id="polygon9711" opacity="0.84016395" style="enable-background:new;" transform="matrix(4.0353725,0,0,4.0353725,-519.98167,-315.95545)" points="189.52,144.68,190.54,143.66,190.54,140.88,189.52,139.86" fill="#156db8"/></g><g id="g9871"><polygon id="polygon9715" opacity="0.84016395" style="enable-background:new;" transform="matrix(4.0353725,0,0,4.0353725,-490.90639,-315.95545)" points="194.34,139.86,189.52,139.86,190.54,140.88,193.32,140.88" fill="#0e5999"/><polygon id="polygon9717" opacity="0.84016395" style="enable-background:new;" transform="matrix(4.0353725,0,0,4.0353725,-490.90639,-315.95545)" points="194.34,144.68,194.34,139.86,193.32,140.89,193.32,143.66" fill="#1683e1"/><polygon id="polygon9719" opacity="0.84016395" style="enable-background:new;" transform="matrix(4.0353725,0,0,4.0353725,-490.90639,-315.95545)" points="189.52,144.68,194.34,144.68,193.32,143.66,190.54,143.66" fill="#7dc0f9"/><polygon id="polygon9721" opacity="0.84016395" style="enable-background:new;" transform="matrix(4.0353725,0,0,4.0353725,-490.90639,-315.95545)" points="189.52,139.86,189.52,144.68,190.54,143.66,190.54,140.88" fill="#156db8"/></g><g id="g9877"><polygon id="polygon9725" opacity="0.84016395" style="enable-background:new;" transform="matrix(4.0353725,0,0,4.0353725,-462.43757,-315.95545)" points="193.32,140.88,194.34,139.86,189.52,139.86,190.54,140.88" fill="#0e5999"/><polygon id="polygon9727" opacity="0.84016395" style="enable-background:new;" transform="matrix(4.0353725,0,0,4.0353725,-462.43757,-315.95545)" points="193.32,143.66,194.34,144.68,194.34,139.86,193.32,140.89" fill="#1683e1"/><polygon id="polygon9729" opacity="0.84016395" style="enable-background:new;" transform="matrix(4.0353725,0,0,4.0353725,-462.43757,-315.95545)" points="190.54,143.66,189.52,144.68,194.34,144.68,193.32,143.66" fill="#7dc0f9"/><polygon id="polygon9731" opacity="0.84016395" style="enable-background:new;" transform="matrix(4.0353725,0,0,4.0353725,-462.43757,-315.95545)" points="190.54,140.88,189.52,139.86,189.52,144.68,190.54,143.66" fill="#156db8"/></g></g><g id="g9958" style="enable-background:new;" transform="matrix(0.25311793,0,0,0.25311793,106.00829,78.669074)"><rect id="rect9960" height="27.819" width="170.56" y="243.74" x="154.96" fill="#55adf7"/><g id="g9962"><polygon id="polygon9964" opacity="0.84016395" style="enable-background:new;" transform="matrix(4.0353725,0,0,4.0353725,-605.11285,-315.95545)" points="189.52,139.86,190.54,140.88,193.32,140.88,194.34,139.86" fill="#004987"/><polygon id="polygon9966" opacity="0.84016395" style="enable-background:new;" transform="matrix(4.0353725,0,0,4.0353725,-605.11285,-315.95545)" points="194.34,139.86,193.32,140.89,193.32,143.66,194.34,144.68" fill="#0a7bdc"/><polygon id="polygon9968" opacity="0.84016395" style="enable-background:new;" transform="matrix(4.0353725,0,0,4.0353725,-605.11285,-315.95545)" points="194.34,144.68,193.32,143.66,190.54,143.66,189.52,144.68" fill="#84c4f9"/><polygon id="polygon9970" opacity="0.84016395" style="enable-background:new;" transform="matrix(4.0353725,0,0,4.0353725,-605.11285,-315.95545)" points="189.52,144.68,190.54,143.66,190.54,140.88,189.52,139.86" fill="#0861ab"/></g><g id="g9972"><polygon id="polygon9974" opacity="0.84016395" style="enable-background:new;" transform="matrix(4.0353725,0,0,4.0353725,-576.31285,-315.95545)" points="189.52,139.86,190.54,140.88,193.32,140.88,194.34,139.86" fill="#0e5999"/><polygon id="polygon9976" opacity="0.84016395" style="enable-background:new;" transform="matrix(4.0353725,0,0,4.0353725,-576.31285,-315.95545)" points="194.34,139.86,193.32,140.89,193.32,143.66,194.34,144.68" fill="#1683e1"/><polygon id="polygon9978" opacity="0.84016395" style="enable-background:new;" transform="matrix(4.0353725,0,0,4.0353725,-576.31285,-315.95545)" points="194.34,144.68,193.32,143.66,190.54,143.66,189.52,144.68" fill="#7dc0f9"/><polygon id="polygon9980" opacity="0.84016395" style="enable-background:new;" transform="matrix(4.0353725,0,0,4.0353725,-576.31285,-315.95545)" points="189.52,144.68,190.54,143.66,190.54,140.88,189.52,139.86" fill="#156db8"/></g><g id="g9982"><polygon id="polygon9984" opacity="0.84016395" style="enable-background:new;" transform="matrix(4.0353725,0,0,4.0353725,-547.51285,-315.95545)" points="189.52,139.86,190.54,140.88,193.32,140.88,194.34,139.86" fill="#0e5999"/><polygon id="polygon9986" opacity="0.84016395" style="enable-background:new;" transform="matrix(4.0353725,0,0,4.0353725,-547.51285,-315.95545)" points="194.34,139.86,193.32,140.89,193.32,143.66,194.34,144.68" fill="#1683e1"/><polygon id="polygon9988" opacity="0.84016395" style="enable-background:new;" transform="matrix(4.0353725,0,0,4.0353725,-547.51285,-315.95545)" points="194.34,144.68,193.32,143.66,190.54,143.66,189.52,144.68" fill="#7dc0f9"/><polygon id="polygon9990" opacity="0.84016395" style="enable-background:new;" transform="matrix(4.0353725,0,0,4.0353725,-547.51285,-315.95545)" points="189.52,144.68,190.54,143.66,190.54,140.88,189.52,139.86" fill="#156db8"/></g><g id="g9992"><polygon id="polygon9994" opacity="0.84016395" style="enable-background:new;" transform="matrix(4.0353725,0,0,4.0353725,-519.98167,-315.95545)" points="189.52,139.86,190.54,140.88,193.32,140.88,194.34,139.86" fill="#0e5999"/><polygon id="polygon9996" opacity="0.84016395" style="enable-background:new;" transform="matrix(4.0353725,0,0,4.0353725,-519.98167,-315.95545)" points="194.34,139.86,193.32,140.89,193.32,143.66,194.34,144.68" fill="#1683e1"/><polygon id="polygon9998" opacity="0.84016395" style="enable-background:new;" transform="matrix(4.0353725,0,0,4.0353725,-519.98167,-315.95545)" points="194.34,144.68,193.32,143.66,190.54,143.66,189.52,144.68" fill="#7dc0f9"/><polygon id="polygon10000" opacity="0.84016395" style="enable-background:new;" transform="matrix(4.0353725,0,0,4.0353725,-519.98167,-315.95545)" points="189.52,144.68,190.54,143.66,190.54,140.88,189.52,139.86" fill="#156db8"/></g><g id="g10002"><polygon id="polygon10004" opacity="0.84016395" style="enable-background:new;" transform="matrix(4.0353725,0,0,4.0353725,-490.90639,-315.95545)" points="194.34,139.86,189.52,139.86,190.54,140.88,193.32,140.88" fill="#0e5999"/><polygon id="polygon10006" opacity="0.84016395" style="enable-background:new;" transform="matrix(4.0353725,0,0,4.0353725,-490.90639,-315.95545)" points="194.34,144.68,194.34,139.86,193.32,140.89,193.32,143.66" fill="#1683e1"/><polygon id="polygon10008" opacity="0.84016395" style="enable-background:new;" transform="matrix(4.0353725,0,0,4.0353725,-490.90639,-315.95545)" points="189.52,144.68,194.34,144.68,193.32,143.66,190.54,143.66" fill="#7dc0f9"/><polygon id="polygon10010" opacity="0.84016395" style="enable-background:new;" transform="matrix(4.0353725,0,0,4.0353725,-490.90639,-315.95545)" points="189.52,139.86,189.52,144.68,190.54,143.66,190.54,140.88" fill="#156db8"/></g><g id="g10012"><polygon id="polygon10014" opacity="0.84016395" style="enable-background:new;" transform="matrix(4.0353725,0,0,4.0353725,-462.43757,-315.95545)" points="193.32,140.88,194.34,139.86,189.52,139.86,190.54,140.88" fill="#0e5999"/><polygon id="polygon10016" opacity="0.84016395" style="enable-background:new;" transform="matrix(4.0353725,0,0,4.0353725,-462.43757,-315.95545)" points="193.32,143.66,194.34,144.68,194.34,139.86,193.32,140.89" fill="#1683e1"/><polygon id="polygon10018" opacity="0.84016395" style="enable-background:new;" transform="matrix(4.0353725,0,0,4.0353725,-462.43757,-315.95545)" points="190.54,143.66,189.52,144.68,194.34,144.68,193.32,143.66" fill="#7dc0f9"/><polygon id="polygon10020" opacity="0.84016395" style="enable-background:new;" transform="matrix(4.0353725,0,0,4.0353725,-462.43757,-315.95545)" points="190.54,140.88,189.52,139.86,189.52,144.68,190.54,143.66" fill="#156db8"/></g></g><g id="g10237" style="enable-background:new;" transform="matrix(0.25311793,0,0,0.25311793,58.281998,78.669074)"><rect id="rect10038" height="27.819" width="226" y="-295.95" x="288.07" fill="#55adf7"/><g id="g10040" transform="translate(188.55357,-539.69289)"><polygon id="polygon10042" opacity="0.84016395" style="enable-background:new;" transform="matrix(4.0353725,0,0,4.0353725,-605.11285,-315.95545)" points="194.34,139.86,189.52,139.86,190.54,140.88,193.32,140.88" fill="#004987"/><polygon id="polygon10044" opacity="0.84016395" style="enable-background:new;" transform="matrix(4.0353725,0,0,4.0353725,-605.11285,-315.95545)" points="194.34,144.68,194.34,139.86,193.32,140.89,193.32,143.66" fill="#0a7bdc"/><polygon id="polygon10046" opacity="0.84016395" style="enable-background:new;" transform="matrix(4.0353725,0,0,4.0353725,-605.11285,-315.95545)" points="189.52,144.68,194.34,144.68,193.32,143.66,190.54,143.66" fill="#84c4f9"/><polygon id="polygon10048" opacity="0.84016395" style="enable-background:new;" transform="matrix(4.0353725,0,0,4.0353725,-605.11285,-315.95545)" points="189.52,139.86,189.52,144.68,190.54,143.66,190.54,140.88" fill="#0861ab"/></g><g id="g10050" transform="translate(188.55357,-539.69289)"><polygon id="polygon10052" opacity="0.84016395" style="enable-background:new;" transform="matrix(4.0353725,0,0,4.0353725,-576.31285,-315.95545)" points="194.34,139.86,189.52,139.86,190.54,140.88,193.32,140.88" fill="#0e5999"/><polygon id="polygon10054" opacity="0.84016395" style="enable-background:new;" transform="matrix(4.0353725,0,0,4.0353725,-576.31285,-315.95545)" points="194.34,144.68,194.34,139.86,193.32,140.89,193.32,143.66" fill="#1683e1"/><polygon id="polygon10056" opacity="0.84016395" style="enable-background:new;" transform="matrix(4.0353725,0,0,4.0353725,-576.31285,-315.95545)" points="189.52,144.68,194.34,144.68,193.32,143.66,190.54,143.66" fill="#7dc0f9"/><polygon id="polygon10058" opacity="0.84016395" style="enable-background:new;" transform="matrix(4.0353725,0,0,4.0353725,-576.31285,-315.95545)" points="189.52,139.86,189.52,144.68,190.54,143.66,190.54,140.88" fill="#156db8"/></g><g id="g10060" transform="translate(188.55357,-539.69289)"><polygon id="polygon10062" opacity="0.84016395" style="enable-background:new;" transform="matrix(4.0353725,0,0,4.0353725,-547.51285,-315.95545)" points="194.34,139.86,189.52,139.86,190.54,140.88,193.32,140.88" fill="#0e5999"/><polygon id="polygon10064" opacity="0.84016395" style="enable-background:new;" transform="matrix(4.0353725,0,0,4.0353725,-547.51285,-315.95545)" points="194.34,144.68,194.34,139.86,193.32,140.89,193.32,143.66" fill="#1683e1"/><polygon id="polygon10066" opacity="0.84016395" style="enable-background:new;" transform="matrix(4.0353725,0,0,4.0353725,-547.51285,-315.95545)" points="189.52,144.68,194.34,144.68,193.32,143.66,190.54,143.66" fill="#7dc0f9"/><polygon id="polygon10068" opacity="0.84016395" style="enable-background:new;" transform="matrix(4.0353725,0,0,4.0353725,-547.51285,-315.95545)" points="189.52,139.86,189.52,144.68,190.54,143.66,190.54,140.88" fill="#156db8"/></g><g id="g10070" transform="translate(188.55357,-539.69289)"><polygon id="polygon10072" opacity="0.84016395" style="enable-background:new;" transform="matrix(4.0353725,0,0,4.0353725,-519.98167,-315.95545)" points="194.34,139.86,189.52,139.86,190.54,140.88,193.32,140.88" fill="#0e5999"/><polygon id="polygon10074" opacity="0.84016395" style="enable-background:new;" transform="matrix(4.0353725,0,0,4.0353725,-519.98167,-315.95545)" points="194.34,144.68,194.34,139.86,193.32,140.89,193.32,143.66" fill="#1683e1"/><polygon id="polygon10076" opacity="0.84016395" style="enable-background:new;" transform="matrix(4.0353725,0,0,4.0353725,-519.98167,-315.95545)" points="189.52,144.68,194.34,144.68,193.32,143.66,190.54,143.66" fill="#7dc0f9"/><polygon id="polygon10078" opacity="0.84016395" style="enable-background:new;" transform="matrix(4.0353725,0,0,4.0353725,-519.98167,-315.95545)" points="189.52,139.86,189.52,144.68,190.54,143.66,190.54,140.88" fill="#156db8"/></g><g id="g10080" transform="translate(188.55357,-539.69289)"><polygon id="polygon10082" opacity="0.84016395" style="enable-background:new;" transform="matrix(4.0353725,0,0,4.0353725,-490.90639,-315.95545)" points="193.32,140.88,194.34,139.86,189.52,139.86,190.54,140.88" fill="#0e5999"/><polygon id="polygon10084" opacity="0.84016395" style="enable-background:new;" transform="matrix(4.0353725,0,0,4.0353725,-490.90639,-315.95545)" points="193.32,143.66,194.34,144.68,194.34,139.86,193.32,140.89" fill="#1683e1"/><polygon id="polygon10086" opacity="0.84016395" style="enable-background:new;" transform="matrix(4.0353725,0,0,4.0353725,-490.90639,-315.95545)" points="190.54,143.66,189.52,144.68,194.34,144.68,193.32,143.66" fill="#7dc0f9"/><polygon id="polygon10088" opacity="0.84016395" style="enable-background:new;" transform="matrix(4.0353725,0,0,4.0353725,-490.90639,-315.95545)" points="190.54,140.88,189.52,139.86,189.52,144.68,190.54,143.66" fill="#156db8"/></g><g id="g10090" transform="translate(188.55357,-539.69289)"><polygon id="polygon10092" opacity="0.84016395" style="enable-background:new;" transform="matrix(4.0353725,0,0,4.0353725,-462.43757,-315.95545)" points="190.54,140.88,193.32,140.88,194.34,139.86,189.52,139.86" fill="#0e5999"/><polygon id="polygon10094" opacity="0.84016395" style="enable-background:new;" transform="matrix(4.0353725,0,0,4.0353725,-462.43757,-315.95545)" points="193.32,140.89,193.32,143.66,194.34,144.68,194.34,139.86" fill="#1683e1"/><polygon id="polygon10096" opacity="0.84016395" style="enable-background:new;" transform="matrix(4.0353725,0,0,4.0353725,-462.43757,-315.95545)" points="193.32,143.66,190.54,143.66,189.52,144.68,194.34,144.68" fill="#7dc0f9"/><polygon id="polygon10098" opacity="0.84016395" style="enable-background:new;" transform="matrix(4.0353725,0,0,4.0353725,-462.43757,-315.95545)" points="190.54,143.66,190.54,140.88,189.52,139.86,189.52,144.68" fill="#156db8"/></g><g id="g10181" transform="translate(160.61425,-539.69289)"><polygon id="polygon10183" opacity="0.84016395" style="enable-background:new;" transform="matrix(4.0353725,0,0,4.0353725,-605.11285,-315.95545)" points="194.34,139.86,189.52,139.86,190.54,140.88,193.32,140.88" fill="#004987"/><polygon id="polygon10185" opacity="0.84016395" style="enable-background:new;" transform="matrix(4.0353725,0,0,4.0353725,-605.11285,-315.95545)" points="194.34,144.68,194.34,139.86,193.32,140.89,193.32,143.66" fill="#0a7bdc"/><polygon id="polygon10187" opacity="0.84016395" style="enable-background:new;" transform="matrix(4.0353725,0,0,4.0353725,-605.11285,-315.95545)" points="189.52,144.68,194.34,144.68,193.32,143.66,190.54,143.66" fill="#84c4f9"/><polygon id="polygon10189" opacity="0.84016395" style="enable-background:new;" transform="matrix(4.0353725,0,0,4.0353725,-605.11285,-315.95545)" points="189.52,139.86,189.52,144.68,190.54,143.66,190.54,140.88" fill="#0861ab"/></g><g id="g10193" transform="translate(132.42849,-539.69289)"><polygon id="polygon10195" opacity="0.84016395" style="enable-background:new;" transform="matrix(4.0353725,0,0,4.0353725,-605.11285,-315.95545)" points="189.52,139.86,190.54,140.88,193.32,140.88,194.34,139.86" fill="#004987"/><polygon id="polygon10197" opacity="0.84016395" style="enable-background:new;" transform="matrix(4.0353725,0,0,4.0353725,-605.11285,-315.95545)" points="194.34,139.86,193.32,140.89,193.32,143.66,194.34,144.68" fill="#0a7bdc"/><polygon id="polygon10199" opacity="0.84016395" style="enable-background:new;" transform="matrix(4.0353725,0,0,4.0353725,-605.11285,-315.95545)" points="194.34,144.68,193.32,143.66,190.54,143.66,189.52,144.68" fill="#84c4f9"/><polygon id="polygon10201" opacity="0.84016395" style="enable-background:new;" transform="matrix(4.0353725,0,0,4.0353725,-605.11285,-315.95545)" points="189.52,144.68,190.54,143.66,190.54,140.88,189.52,139.86" fill="#0861ab"/></g></g><g id="g10334" style="enable-background:new;" transform="matrix(0.25311793,0,0,0.25311793,-3.452713,78.669074)"><rect id="rect10336" height="27.819" width="226" y="-295.95" x="288.07" fill="#55adf7"/><g id="g10338" transform="translate(188.55357,-539.69289)"><polygon id="polygon10340" opacity="0.84016395" style="enable-background:new;" transform="matrix(4.0353725,0,0,4.0353725,-605.11285,-315.95545)" points="194.34,139.86,189.52,139.86,190.54,140.88,193.32,140.88" fill="#004987"/><polygon id="polygon10342" opacity="0.84016395" style="enable-background:new;" transform="matrix(4.0353725,0,0,4.0353725,-605.11285,-315.95545)" points="194.34,144.68,194.34,139.86,193.32,140.89,193.32,143.66" fill="#0a7bdc"/><polygon id="polygon10344" opacity="0.84016395" style="enable-background:new;" transform="matrix(4.0353725,0,0,4.0353725,-605.11285,-315.95545)" points="189.52,144.68,194.34,144.68,193.32,143.66,190.54,143.66" fill="#84c4f9"/><polygon id="polygon10346" opacity="0.84016395" style="enable-background:new;" transform="matrix(4.0353725,0,0,4.0353725,-605.11285,-315.95545)" points="189.52,139.86,189.52,144.68,190.54,143.66,190.54,140.88" fill="#0861ab"/></g><g id="g10348" transform="translate(188.55357,-539.69289)"><polygon id="polygon10350" opacity="0.84016395" style="enable-background:new;" transform="matrix(4.0353725,0,0,4.0353725,-576.31285,-315.95545)" points="194.34,139.86,189.52,139.86,190.54,140.88,193.32,140.88" fill="#0e5999"/><polygon id="polygon10352" opacity="0.84016395" style="enable-background:new;" transform="matrix(4.0353725,0,0,4.0353725,-576.31285,-315.95545)" points="194.34,144.68,194.34,139.86,193.32,140.89,193.32,143.66" fill="#1683e1"/><polygon id="polygon10354" opacity="0.84016395" style="enable-background:new;" transform="matrix(4.0353725,0,0,4.0353725,-576.31285,-315.95545)" points="189.52,144.68,194.34,144.68,193.32,143.66,190.54,143.66" fill="#7dc0f9"/><polygon id="polygon10356" opacity="0.84016395" style="enable-background:new;" transform="matrix(4.0353725,0,0,4.0353725,-576.31285,-315.95545)" points="189.52,139.86,189.52,144.68,190.54,143.66,190.54,140.88" fill="#156db8"/></g><g id="g10358" transform="translate(188.55357,-539.69289)"><polygon id="polygon10360" opacity="0.84016395" style="enable-background:new;" transform="matrix(4.0353725,0,0,4.0353725,-547.51285,-315.95545)" points="194.34,139.86,189.52,139.86,190.54,140.88,193.32,140.88" fill="#0e5999"/><polygon id="polygon10362" opacity="0.84016395" style="enable-background:new;" transform="matrix(4.0353725,0,0,4.0353725,-547.51285,-315.95545)" points="194.34,144.68,194.34,139.86,193.32,140.89,193.32,143.66" fill="#1683e1"/><polygon id="polygon10364" opacity="0.84016395" style="enable-background:new;" transform="matrix(4.0353725,0,0,4.0353725,-547.51285,-315.95545)" points="189.52,144.68,194.34,144.68,193.32,143.66,190.54,143.66" fill="#7dc0f9"/><polygon id="polygon10366" opacity="0.84016395" style="enable-background:new;" transform="matrix(4.0353725,0,0,4.0353725,-547.51285,-315.95545)" points="189.52,139.86,189.52,144.68,190.54,143.66,190.54,140.88" fill="#156db8"/></g><g id="g10368" transform="translate(188.55357,-539.69289)"><polygon id="polygon10370" opacity="0.84016395" style="enable-background:new;" transform="matrix(4.0353725,0,0,4.0353725,-519.98167,-315.95545)" points="194.34,139.86,189.52,139.86,190.54,140.88,193.32,140.88" fill="#0e5999"/><polygon id="polygon10372" opacity="0.84016395" style="enable-background:new;" transform="matrix(4.0353725,0,0,4.0353725,-519.98167,-315.95545)" points="194.34,144.68,194.34,139.86,193.32,140.89,193.32,143.66" fill="#1683e1"/><polygon id="polygon10374" opacity="0.84016395" style="enable-background:new;" transform="matrix(4.0353725,0,0,4.0353725,-519.98167,-315.95545)" points="189.52,144.68,194.34,144.68,193.32,143.66,190.54,143.66" fill="#7dc0f9"/><polygon id="polygon10376" opacity="0.84016395" style="enable-background:new;" transform="matrix(4.0353725,0,0,4.0353725,-519.98167,-315.95545)" points="189.52,139.86,189.52,144.68,190.54,143.66,190.54,140.88" fill="#156db8"/></g><g id="g10378" transform="translate(188.55357,-539.69289)"><polygon id="polygon10380" opacity="0.84016395" style="enable-background:new;" transform="matrix(4.0353725,0,0,4.0353725,-490.90639,-315.95545)" points="193.32,140.88,194.34,139.86,189.52,139.86,190.54,140.88" fill="#0e5999"/><polygon id="polygon10382" opacity="0.84016395" style="enable-background:new;" transform="matrix(4.0353725,0,0,4.0353725,-490.90639,-315.95545)" points="193.32,143.66,194.34,144.68,194.34,139.86,193.32,140.89" fill="#1683e1"/><polygon id="polygon10384" opacity="0.84016395" style="enable-background:new;" transform="matrix(4.0353725,0,0,4.0353725,-490.90639,-315.95545)" points="190.54,143.66,189.52,144.68,194.34,144.68,193.32,143.66" fill="#7dc0f9"/><polygon id="polygon10386" opacity="0.84016395" style="enable-background:new;" transform="matrix(4.0353725,0,0,4.0353725,-490.90639,-315.95545)" points="190.54,140.88,189.52,139.86,189.52,144.68,190.54,143.66" fill="#156db8"/></g><g id="g10388" transform="translate(188.55357,-539.69289)"><polygon id="polygon10390" opacity="0.84016395" style="enable-background:new;" transform="matrix(4.0353725,0,0,4.0353725,-462.43757,-315.95545)" points="190.54,140.88,193.32,140.88,194.34,139.86,189.52,139.86" fill="#0e5999"/><polygon id="polygon10392" opacity="0.84016395" style="enable-background:new;" transform="matrix(4.0353725,0,0,4.0353725,-462.43757,-315.95545)" points="193.32,140.89,193.32,143.66,194.34,144.68,194.34,139.86" fill="#1683e1"/><polygon id="polygon10394" opacity="0.84016395" style="enable-background:new;" transform="matrix(4.0353725,0,0,4.0353725,-462.43757,-315.95545)" points="193.32,143.66,190.54,143.66,189.52,144.68,194.34,144.68" fill="#7dc0f9"/><polygon id="polygon10396" opacity="0.84016395" style="enable-background:new;" transform="matrix(4.0353725,0,0,4.0353725,-462.43757,-315.95545)" points="190.54,143.66,190.54,140.88,189.52,139.86,189.52,144.68" fill="#156db8"/></g><g id="g10398" transform="translate(160.61425,-539.69289)"><polygon id="polygon10400" opacity="0.84016395" style="enable-background:new;" transform="matrix(4.0353725,0,0,4.0353725,-605.11285,-315.95545)" points="194.34,139.86,189.52,139.86,190.54,140.88,193.32,140.88" fill="#004987"/><polygon id="polygon10402" opacity="0.84016395" style="enable-background:new;" transform="matrix(4.0353725,0,0,4.0353725,-605.11285,-315.95545)" points="194.34,144.68,194.34,139.86,193.32,140.89,193.32,143.66" fill="#0a7bdc"/><polygon id="polygon10404" opacity="0.84016395" style="enable-background:new;" transform="matrix(4.0353725,0,0,4.0353725,-605.11285,-315.95545)" points="189.52,144.68,194.34,144.68,193.32,143.66,190.54,143.66" fill="#84c4f9"/><polygon id="polygon10406" opacity="0.84016395" style="enable-background:new;" transform="matrix(4.0353725,0,0,4.0353725,-605.11285,-315.95545)" points="189.52,139.86,189.52,144.68,190.54,143.66,190.54,140.88" fill="#0861ab"/></g><g id="g10408" transform="translate(132.42849,-539.69289)"><polygon id="polygon10410" opacity="0.84016395" style="enable-background:new;" transform="matrix(4.0353725,0,0,4.0353725,-605.11285,-315.95545)" points="189.52,139.86,190.54,140.88,193.32,140.88,194.34,139.86" fill="#004987"/><polygon id="polygon10412" opacity="0.84016395" style="enable-background:new;" transform="matrix(4.0353725,0,0,4.0353725,-605.11285,-315.95545)" points="194.34,139.86,193.32,140.89,193.32,143.66,194.34,144.68" fill="#0a7bdc"/><polygon id="polygon10414" opacity="0.84016395" style="enable-background:new;" transform="matrix(4.0353725,0,0,4.0353725,-605.11285,-315.95545)" points="194.34,144.68,193.32,143.66,190.54,143.66,189.52,144.68" fill="#84c4f9"/><polygon id="polygon10416" opacity="0.84016395" style="enable-background:new;" transform="matrix(4.0353725,0,0,4.0353725,-605.11285,-315.95545)" points="189.52,144.68,190.54,143.66,190.54,140.88,189.52,139.86" fill="#0861ab"/></g></g><g id="g14243" style="enable-background:new;" transform="matrix(0.25311793,0,0,0.25311793,58.281998,78.669074)"><rect id="rect8764-5" style="enable-background:new;" height="24.354" width="15.457" y="-200.36" x="453.23" fill="#505050"/><rect id="rect6106-7" style="enable-background:new;" transform="matrix(0,1,-1,0,0,0)" height="15.468" width="14.721" y="-468.7" x="-195.54" fill="#0000f7"/></g><g id="g14302" style="enable-background:new;" transform="matrix(0.25311793,0,0,0.25311793,52.662258,77.437285)"><rect id="rect8764-5-5" style="enable-background:new;" height="24.354" width="15.457" y="69.265" x="-97.758" fill="#505050"/><rect id="rect6106-7-6" style="enable-background:new;" transform="matrix(0,1,-1,0,0,0)" height="15.468" width="14.721" y="82.296" x="74.082" fill="#e6e6e6"/></g><g id="g9337" style="enable-background:new;" transform="translate(0,1.9017882e-5)"><rect id="rect6264-2" style="enable-background:new;" transform="translate(-63.970902,87.724998)" height="25.699" width="38.059" y="26.948" x="67.153"/><rect id="rect6266-3" style="enable-background:new;" transform="translate(-63.970902,87.724998)" height="26.743" width="7.8874" y="26.426" x="63.971"/></g><rect id="MicroUSB" style="enable-background:new;" transform="translate(-63.970902,87.725014)" height="22.73" width="14.635" y="-23.337" x="67.1" fill="#999"/><g id="g4265" style="enable-background:new;" transform="translate(-63.970902,87.725014)"><path id="path6010-1" d="m221.82-19.778c0-0.59104-0.47269-1.0779-1.0914-1.1668v-0.01825h-4.4111c-0.71449,0-1.2952,0.53041-1.2952,1.1856,0,0.65521,0.57944,1.1856,1.2952,1.1856h4.4111v-0.01825c0.61803-0.09007,1.0914-0.57692,1.0914-1.168z" fill="#666"/><path id="path14215" d="m221.82-7.0693c0-0.59104-0.47269-1.0779-1.0914-1.1668v-0.01825h-4.4111c-0.71449,0-1.2952,0.53041-1.2952,1.1856,0,0.65521,0.57944,1.1856,1.2952,1.1856h4.4111v-0.0182c0.61803-0.09007,1.0914-0.57692,1.0914-1.168z" fill="#666"/><path id="path14217" d="m235.89-19.778c0-0.59104-0.47268-1.0779-1.0914-1.1668v-0.01825h-4.4111c-0.7145,0-1.2952,0.53041-1.2952,1.1856,0,0.65521,0.57944,1.1856,1.2952,1.1856h4.4111v-0.01825c0.61803-0.09007,1.0914-0.57692,1.0914-1.168z" fill="#666"/><path id="path14219" d="m235.89-7.0693c0-0.59104-0.47268-1.0779-1.0914-1.1668v-0.01825h-4.4111c-0.7145,0-1.2952,0.53041-1.2952,1.1856,0,0.65521,0.57944,1.1856,1.2952,1.1856h4.4111v-0.0182c0.61803-0.09007,1.0914-0.57692,1.0914-1.168z" fill="#666"/><rect id="rect6112-4" height="17.355" width="16.971" y="-21.845" x="216.91" fill="#8c8c8c"/><path id="path6114-6" d="m233.5-19.404c0,0.85289-0.69151,1.5454-1.5464,1.5454-0.85187,0-1.5444-0.68946-1.5444-1.5454,0-0.84982,0.68947-1.5454,1.5444-1.5454,0.85493,0.0031,1.5464,0.69661,1.5464,1.5454z" fill="#404040"/><path id="path6116-8" d="m220.52-19.404c0,0.85289-0.69151,1.5454-1.5454,1.5454-0.85493,0-1.5454-0.68946-1.5454-1.5454,0-0.84982,0.68947-1.5454,1.5454-1.5454,0.85493,0.0031,1.5454,0.69661,1.5454,1.5454z" fill="#404040"/><circle id="circle6118-9" d="m 171.791,80.100998 c 0,0.834502 -0.6765,1.511 -1.511,1.511 -0.8345,0 -1.511,-0.676498 -1.511,-1.511 0,-0.834502 0.6765,-1.511 1.511,-1.511 0.8345,0 1.511,0.676498 1.511,1.511 z" transform="matrix(1.0214251,0,0,1.0214251,45.046426,-88.233995)" cy="80.101" cx="170.28" r="1.511" fill="#404040"/><circle id="circle6120-8" d="m 184.50101,80.100998 c 0,0.834502 -0.6765,1.511 -1.511,1.511 -0.83451,0 -1.511,-0.676498 -1.511,-1.511 0,-0.834502 0.67649,-1.511 1.511,-1.511 0.8345,0 1.511,0.676498 1.511,1.511 z" transform="matrix(1.0214251,0,0,1.0214251,45.046426,-88.233995)" cy="80.101" cx="182.99" r="1.511" fill="#404040"/><circle id="circle6122-3" d="m 181.16899,73.491997 c 0,2.711166 -2.19783,4.909 -4.909,4.909 -2.71116,0 -4.909,-2.197834 -4.909,-4.909 0,-2.711166 2.19784,-4.909 4.909,-4.909 2.71117,0 4.909,2.197834 4.909,4.909 z" transform="matrix(1.0214251,0,0,1.0214251,45.354025,-88.233995)" cy="73.492" cx="176.26" r="4.909" fill="#404040"/></g><g id="g5520" style="enable-background:new;" transform="matrix(0,-0.59099447,0.59099447,0,-2.2130381,86.439638)">
		<path id="path5522" d="m30.074,21.386-2.64-1.524v1.134h-13.966c0.515-0.416,1.008-0.965,1.493-1.505,0.802-0.894,1.631-1.819,2.338-1.819h2.277c0.141,0.521,0.597,0.913,1.163,0.913,0.677,0,1.226-0.548,1.226-1.225s-0.549-1.226-1.226-1.226c-0.566,0-1.022,0.392-1.163,0.914h-2.277c-0.985,0-1.868,0.984-2.803,2.026-0.744,0.83-1.509,1.675-2.255,1.922h-1.82c-0.185-1.02-1.073-1.794-2.145-1.794-1.206,0-2.184,0.978-2.184,2.184,0,1.207,0.978,2.184,2.184,2.184,1.072,0,1.96-0.774,2.145-1.794h5.196c0.746,0.247,1.511,1.093,2.254,1.922,0.934,1.043,1.817,2.026,2.802,2.026h2.142v0.985h2.595v-2.595h-2.595v0.985h-2.142c-0.707,0-1.536-0.925-2.337-1.818-0.485-0.541-0.978-1.09-1.493-1.506h10.592v1.134l2.639-1.523z" fill="#4d4d4d"/>
	</g><text id="text3151" style="writing-mode:lr-tb;text-anchor:start;text-align:start;" font-weight="normal" xml:space="preserve" font-size="5.60000038px" font-style="normal" line-height="100%" font-stretch="normal" font-variant="normal" y="23.475973" x="115.61551" font-family="Droid Sans" fill="#ffffff"><tspan id="tspan3153" style="writing-mode:lr-tb;text-anchor:start;text-align:start;" font-weight="normal" font-size="5.60000038px" font-style="normal" font-stretch="normal" line-height="100%" font-variant="normal" y="23.475973" x="115.61551" font-family="Droid Sans">Digital I/O</tspan></text>
<text id="text3161" style="writing-mode:lr-tb;text-anchor:start;text-align:start;" font-weight="normal" xml:space="preserve" font-size="4.80000019px" line-height="100%" y="24.26874" font-stretch="normal" font-variant="normal" font-style="normal" x="171.04782" font-family="Droid Sans" fill="#ffffff"><tspan id="tspan3163" style="writing-mode:lr-tb;text-anchor:start;text-align:start;" font-weight="normal" font-size="4.80000019px" font-style="normal" font-stretch="normal" line-height="100%" font-variant="normal" y="24.26874" x="171.04782" font-family="Droid Sans">LED</tspan></text>
<text id="text3165" style="writing-mode:lr-tb;text-anchor:start;text-align:start;" font-weight="normal" xml:space="preserve" font-size="4.80000019px" font-style="normal" line-height="100%" font-stretch="normal" font-variant="normal" y="91.071732" x="24.654442" font-family="Droid Sans" fill="#ffffff"><tspan id="tspan3167" style="writing-mode:lr-tb;text-anchor:start;text-align:start;" font-weight="normal" font-size="4.80000019px" font-style="normal" font-stretch="normal" line-height="100%" font-variant="normal" y="91.071732" x="24.654442" font-family="Droid Sans">PWR</tspan></text>
<text id="text3169" style="writing-mode:lr-tb;text-anchor:start;text-align:start;" font-weight="normal" xml:space="preserve" font-size="5.60000038px" line-height="100%" y="127.74509" font-stretch="normal" font-variant="normal" font-style="normal" x="107.69527" font-family="Droid Sans" fill="#ffffff"><tspan id="tspan3171" style="writing-mode:lr-tb;text-anchor:start;text-align:start;" font-weight="normal" font-size="5.60000038px" font-style="normal" font-stretch="normal" line-height="100%" font-variant="normal" y="127.74509" x="107.69527" font-family="Droid Sans">Power</tspan></text>
<text id="text3173" style="writing-mode:lr-tb;text-anchor:start;text-align:start;" font-weight="normal" xml:space="preserve" font-size="5.60000038px" font-style="normal" line-height="100%" font-stretch="normal" font-variant="normal" y="130.63683" x="153.94952" font-family="Droid Sans" fill="#ffffff"><tspan id="tspan3175" style="writing-mode:lr-tb;text-anchor:start;text-align:start;" font-weight="normal" font-size="5.60000038px" font-style="normal" font-stretch="normal" line-height="100%" font-variant="normal" y="130.63683" x="153.94952" font-family="Droid Sans">Analog In</tspan></text>
<text id="text3177" style="writing-mode:lr-tb;text-anchor:start;text-align:start;" font-weight="normal" xml:space="preserve" font-size="7.20000029px" line-height="100%" y="120.74997" font-stretch="normal" font-variant="normal" font-style="normal" x="113.29457" font-family="Droid Sans Mono" fill="#ffffff"><tspan id="tspan3179" style="writing-mode:lr-tb;text-anchor:start;text-align:start;" font-weight="normal" font-size="7.20000029px" font-style="normal" font-stretch="normal" line-height="100%" font-variant="normal" y="120.74997" x="113.29457" font-family="Droid Sans Mono">www.netduino.com</tspan></text>
<text id="text3265" style="writing-mode:lr-tb;text-anchor:start;text-align:start;" font-weight="normal" xml:space="preserve" font-size="8.00000095px" font-style="normal" line-height="100%" font-stretch="normal" font-variant="normal" y="147.92143" x="14.32243" font-family="Droid Sans" fill="#000000"><tspan id="tspan3267" style="writing-mode:lr-tb;text-anchor:start;text-align:start;" font-weight="normal" font-size="4.80000019px" font-style="normal" font-stretch="normal" line-height="100%" font-variant="normal" y="147.92143" x="14.32243" font-family="Droid Sans" fill="#ffffff">7.5-12V</tspan></text>
<text id="text3269" style="writing-mode:lr-tb;text-anchor:start;text-align:start;" font-weight="normal" xml:space="preserve" font-size="4.80000019px" font-style="normal" line-height="100%" font-stretch="normal" font-variant="normal" y="75.744781" x="171.54352" font-family="Droid Sans" fill="#ffffff"><tspan id="tspan3271" style="writing-mode:lr-tb;text-anchor:start;text-align:start;" font-weight="normal" font-size="4.80000019px" font-style="normal" font-stretch="normal" line-height="100%" font-variant="normal" y="75.744781" x="171.54352" font-family="Droid Sans">SW1</tspan></text>
<g id="g10385" font-size="5.60000038px" font-weight="normal" font-style="normal" font-stretch="normal" font-variant="normal" font-family="Droid Sans" fill="#FFF"><text id="text10006" style="writing-mode:lr-tb;text-anchor:start;text-align:start;" xml:space="preserve" transform="matrix(0,-1,1,0,0,0)" y="74.500298" x="-21.779711" line-height="125%"><tspan id="tspan10008" y="74.500298" x="-21.779711">Aref</tspan></text>
<text id="text10010" style="writing-mode:lr-tb;text-anchor:start;text-align:start;" xml:space="preserve" transform="matrix(0,-1,1,0,0,0)" y="81.763489" x="-21.738562" line-height="125%"><tspan id="tspan10012" y="81.763489" x="-21.738562">Gnd</tspan></text>
<text id="text10014" style="writing-mode:lr-tb;text-anchor:start;text-align:start;" xml:space="preserve" transform="matrix(0,-1,1,0,0,0)" y="89.064697" x="-17.477041" line-height="125%"><tspan id="tspan10016" y="89.064697" x="-17.477041">13</tspan></text>
<text id="text10018" style="writing-mode:lr-tb;text-anchor:start;text-align:start;" xml:space="preserve" transform="matrix(0,-1,1,0,0,0)" y="96.330597" x="-17.474758" line-height="125%"><tspan id="tspan10020" y="96.330597" x="-17.474758">12</tspan></text>
<text id="text10022" style="writing-mode:lr-tb;text-anchor:start;text-align:start;" xml:space="preserve" transform="matrix(0,-1,1,0,0,0)" y="103.59685" x="-17.457941" line-height="125%"><tspan id="tspan10024" y="103.59685" x="-17.457941">11</tspan></text>
<text id="text10026" style="writing-mode:lr-tb;text-anchor:start;text-align:start;" xml:space="preserve" transform="matrix(0,-1,1,0,0,0)" y="110.78382" x="-17.459995" line-height="125%"><tspan id="tspan10028" y="110.78382" x="-17.459995">10</tspan></text>
<text id="text10030" style="writing-mode:lr-tb;text-anchor:start;text-align:start;" xml:space="preserve" transform="matrix(0,-1,1,0,0,0)" y="118.06225" x="-14.369856" line-height="125%"><tspan id="tspan10032" y="118.06225" x="-14.369856">9</tspan></text>
<text id="text10034" style="writing-mode:lr-tb;text-anchor:start;text-align:start;" xml:space="preserve" transform="matrix(0,-1,1,0,0,0)" y="125.35255" x="-14.387992" line-height="125%"><tspan id="tspan10036" y="125.35255" x="-14.387992">8</tspan></text>
</g><g id="g10403" font-size="5.60000038px" font-weight="normal" font-style="normal" font-stretch="normal" font-variant="normal" font-family="Droid Sans" fill="#FFF"><text id="text10038" style="writing-mode:lr-tb;text-anchor:start;text-align:start;" xml:space="preserve" transform="matrix(0,-1,1,0,0,0)" y="136.56058" x="-14.496401" line-height="125%"><tspan id="tspan10040" y="136.56058" x="-14.496401">7</tspan></text>
<text id="text10042" style="writing-mode:lr-tb;text-anchor:start;text-align:start;" xml:space="preserve" transform="matrix(0,-1,1,0,0,0)" y="143.89989" x="-14.487597" line-height="125%"><tspan id="tspan10044" y="143.89989" x="-14.487597">6</tspan></text>
<text id="text10046" style="writing-mode:lr-tb;text-anchor:start;text-align:start;" xml:space="preserve" transform="matrix(0,-1,1,0,0,0)" y="151.0045" x="-14.509706" line-height="125%"><tspan id="tspan10048" y="151.0045" x="-14.509706">5</tspan></text>
<text id="text10050" style="writing-mode:lr-tb;text-anchor:start;text-align:start;" xml:space="preserve" transform="matrix(0,-1,1,0,0,0)" y="158.18883" x="-14.496066" line-height="125%"><tspan id="tspan10052" y="158.18883" x="-14.496066">4</tspan></text>
<text id="text10054" style="writing-mode:lr-tb;text-anchor:start;text-align:start;" xml:space="preserve" transform="matrix(0,-1,1,0,0,0)" y="165.47093" x="-14.504219" line-height="125%"><tspan id="tspan10056" y="165.47093" x="-14.504219">3</tspan></text>
<text id="text10058" style="writing-mode:lr-tb;text-anchor:start;text-align:start;" xml:space="preserve" transform="matrix(0,-1,1,0,0,0)" y="172.49138" x="-14.502208" line-height="125%"><tspan id="tspan10060" y="172.49138" x="-14.502208">2</tspan></text>
<text id="text10062" style="writing-mode:lr-tb;text-anchor:start;text-align:start;" xml:space="preserve" transform="matrix(0,-1,1,0,0,0)" y="179.81573" x="-14.49183" line-height="125%"><tspan id="tspan10064" y="179.81573" x="-14.49183">1</tspan></text>
<text id="text10066" style="writing-mode:lr-tb;text-anchor:start;text-align:start;" xml:space="preserve" transform="matrix(0,-1,1,0,0,0)" y="187.09825" x="-14.49796" line-height="125%"><tspan id="tspan10068" y="187.09825" x="-14.49796">0</tspan></text>
</g><g id="g10433" font-size="5.60000038px" font-weight="normal" font-style="normal" font-stretch="normal" font-variant="normal" font-family="Droid Sans" fill="#FFF"><text id="text10082" style="writing-mode:lr-tb;text-anchor:start;text-align:start;" xml:space="preserve" transform="matrix(0,-1,1,0,0,0)" y="100.63924" x="-139.58516" line-height="125%"><tspan id="tspan10084" y="100.63924" x="-139.58516">/RESET</tspan></text>
<text id="text10086" style="writing-mode:lr-tb;text-anchor:start;text-align:start;" xml:space="preserve" transform="matrix(0,-1,1,0,0,0)" y="107.87072" x="-139.60316" line-height="125%"><tspan id="tspan10088" y="107.87072" x="-139.60316">3V3</tspan></text>
<text id="text10090" style="writing-mode:lr-tb;text-anchor:start;text-align:start;" xml:space="preserve" transform="matrix(0,-1,1,0,0,0)" y="115.25291" x="-139.59904" line-height="125%"><tspan id="tspan10092" y="115.25291" x="-139.59904">5V</tspan></text>
<text id="text10094" style="writing-mode:lr-tb;text-anchor:start;text-align:start;" xml:space="preserve" transform="matrix(0,-1,1,0,0,0)" y="136.82454" x="-139.59499" line-height="125%"><tspan id="tspan10096" y="136.82454" x="-139.59499">Vin</tspan></text>
<text id="text10010-4" style="enable-background:new;writing-mode:lr-tb;text-anchor:start;text-align:start;" xml:space="preserve" transform="matrix(0,-1,1,0,0,0)" y="122.25671" x="-139.58908" line-height="125%"><tspan id="tspan10012-0" y="122.25671" x="-139.58908">Gnd</tspan></text>
<text id="text10170" style="enable-background:new;writing-mode:lr-tb;text-anchor:start;text-align:start;" xml:space="preserve" transform="matrix(0,-1,1,0,0,0)" line-height="125%" y="129.59967" x="-139.58842"><tspan id="tspan10172" y="129.59967" x="-139.58842">Gnd</tspan></text>
</g><g id="g10279" style="enable-background:new;" font-weight="normal" font-size="5.60000038px" font-style="normal" font-stretch="normal" font-variant="normal" font-family="Droid Sans" fill="#FFF"><text id="text10046-9" style="enable-background:new;writing-mode:lr-tb;text-anchor:start;text-align:start;" xml:space="preserve" transform="matrix(0,-1,1,0,0,0)" y="187.17484" x="-139.59985" line-height="125%"><tspan id="tspan10048-4" y="187.17484" x="-139.59985">5</tspan></text>
<text id="text10050-8" style="enable-background:new;writing-mode:lr-tb;text-anchor:start;text-align:start;" xml:space="preserve" transform="matrix(0,-1,1,0,0,0)" y="179.88805" x="-139.58974" line-height="125%"><tspan id="tspan10052-8" y="179.88805" x="-139.58974">4</tspan></text>
<text id="text10054-2" style="enable-background:new;writing-mode:lr-tb;text-anchor:start;text-align:start;" xml:space="preserve" transform="matrix(0,-1,1,0,0,0)" y="172.61165" x="-139.5992" line-height="125%"><tspan id="tspan10056-4" y="172.61165" x="-139.5992">3</tspan></text>
<text id="text10058-5" style="enable-background:new;writing-mode:lr-tb;text-anchor:start;text-align:start;" xml:space="preserve" transform="matrix(0,-1,1,0,0,0)" y="165.32823" x="-139.59306" line-height="125%"><tspan id="tspan10060-5" y="165.32823" x="-139.59306">2</tspan></text>
<text id="text10062-1" style="enable-background:new;writing-mode:lr-tb;text-anchor:start;text-align:start;" xml:space="preserve" transform="matrix(0,-1,1,0,0,0)" y="158.04451" x="-139.58559" line-height="125%"><tspan id="tspan10064-7" y="158.04451" x="-139.58559">1</tspan></text>
<text id="text10066-1" style="enable-background:new;writing-mode:lr-tb;text-anchor:start;text-align:start;" xml:space="preserve" transform="matrix(0,-1,1,0,0,0)" y="150.7635" x="-139.59279" line-height="125%"><tspan id="tspan10068-1" y="150.7635" x="-139.59279">0</tspan></text>
</g><g id="g4524" style="enable-background:new;" transform="matrix(0.27246189,0,0,0.27246189,100.15984,-12.917837)" fill="#FFF"><g id="g4494">
	<path id="path4496" d="m131.25,228.44v-13.441c0-6.048,4.225-10.081,9.841-10.081,5.617,0,9.841,4.032,9.841,10.081v13.441h-4.224v-13.441c0-3.552-2.592-6.048-5.617-6.048s-5.616,2.496-5.616,6.048v13.441h-4.225z"/>
	<path id="path4498" d="m162.06,220.86-1.728-3.36,11.377-6.336c-1.44-1.44-2.64-2.208-5.232-2.208-4.368,0-7.537,3.264-7.537,7.969s3.168,7.969,7.537,7.969c4.993,0,6.865-2.976,7.729-7.201l4.272,0.528c-0.48,6.097-5.376,10.705-12.001,10.705-6.384,0-11.953-4.896-11.953-12.001s5.569-12.001,11.953-12.001c5.376,0,8.977,2.832,11.137,7.296l-15.554,8.64z"/>
	<path id="path4500" d="m195.09,209.43h-8.257v12.097c0,2.16,1.008,2.88,3.168,2.88h5.088v4.032h-5.665c-4.32,0-6.817-2.88-6.817-7.44v-21.36h4.225v5.761h8.257v4.032z"/>
	<path id="path4502" d="m220.53,194.84v21.41c0,7.584-4.848,12.673-11.617,12.673-7.489,0-11.905-5.76-11.905-12.577,0-6.433,5.185-11.425,11.089-11.425,2.304,0,4.513,0.48,6.529,1.632v4.416c-1.536-1.056-3.888-2.016-5.809-2.016-4.561,0-7.584,3.168-7.584,7.921,0,4.704,3.168,8.017,7.681,8.017,4.032,0,7.393-3.072,7.393-9.409v-20.64h4.223z"/>
	<path id="path4504" d="m244.29,205.4v13.441c0,6.048-4.224,10.081-9.841,10.081-5.616,0-9.841-4.032-9.841-10.081v-13.44h4.225v13.441c0,3.552,2.592,6.048,5.616,6.048s5.617-2.496,5.617-6.048v-13.44h4.224z"/>
	<path id="path4506" d="m253.12,197.72c1.632,0,2.544,1.248,2.544,2.544s-0.912,2.544-2.544,2.544-2.544-1.248-2.544-2.544,0.912-2.544,2.544-2.544zm-2.112,30.722v-23.04h4.224v23.042h-4.224z"/>
	<path id="path4508" d="m261.95,228.44v-13.441c0-6.048,4.225-10.081,9.841-10.081,5.617,0,9.841,4.032,9.841,10.081v13.441h-4.224v-13.441c0-3.552-2.592-6.048-5.617-6.048s-5.616,2.496-5.616,6.048v13.441h-4.225z"/>
	<path id="path4510" d="m297.14,204.92c6.384,0,11.953,4.896,11.953,12.001s-5.568,12.001-11.953,12.001-11.953-4.896-11.953-12.001,5.568-12.001,11.953-12.001zm0,19.97c4.368,0,7.537-3.264,7.537-7.969s-3.168-7.969-7.537-7.969-7.537,3.264-7.537,7.969,3.169,7.969,7.537,7.969z"/>
</g><g id="g4512">
	<path id="path4514" d="m312.16,204.01v-7.576h-2.83v-1.014h6.809v1.014h-2.842v7.576h-1.137z"/>
	<path id="path4516" d="m317.26,204.01v-8.59h1.711l2.033,6.082c0.188,0.566,0.324,0.99,0.41,1.271,0.098-0.313,0.25-0.771,0.457-1.377l2.057-5.977h1.529v8.59h-1.096v-7.189l-2.496,7.189h-1.025l-2.484-7.313v7.313h-1.096z"/>
</g></g></g><rect id="connector0pin" y="6.0094" width="2.774" height="2.773" x="71.595"/><rect id="connector1pin" y="6.0094" width="2.772" height="2.773" x="78.673"/><rect id="connector2pin" y="6.0094" width="2.772" height="2.773" x="85.752"/><rect id="connector3pin" y="6.0094" width="2.774" height="2.773" x="93.028"/><rect id="connector4pin" y="6.0094" width="2.773" height="2.773" x="100.31"/><rect id="connector5pin" y="6.0094" width="2.772" height="2.773" x="107.28"/><rect id="connector6pin" y="6.0094" width="2.773" height="2.773" x="114.66"/><rect id="connector7pin" y="6.0094" width="2.773" height="2.773" x="121.84"/><rect id="connector8pin" y="5.9103" width="2.772" height="2.773" x="133.31"/><rect id="connector9pin" y="5.9103" width="2.773" height="2.773" x="140.49"/><rect id="connector10pin" y="5.9103" width="2.772" height="2.773" x="147.47"/><rect id="connector11pin" y="5.9103" width="2.772" height="2.773" x="154.84"/><rect id="connector12pin" y="5.9103" width="2.774" height="2.773" x="162.02"/><rect id="connector13pin" y="5.9103" width="2.772" height="2.773" x="169.1"/><rect id="connector14pin" y="5.9103" width="2.771" height="2.773" x="176.38"/><rect id="connector15pin" y="5.9103" width="2.774" height="2.773" x="183.65"/><rect id="connector16pin" y="142.59" width="2.774" height="2.771" x="97.217"/><rect id="connector17pin" y="142.59" width="2.774" height="2.771" x="104.52"/><rect id="connector18pin" y="142.59" width="2.773" height="2.771" x="111.81"/><rect id="connector19pin" y="142.59" width="2.772" height="2.771" x="118.79"/><rect id="connector20pin" y="142.59" width="2.774" height="2.771" x="126.17"/><rect id="connector21pin" y="142.59" width="2.773" height="2.771" x="133.34"/><rect id="connector22pin" y="142.69" width="2.771" height="2.771" x="147.51"/><rect id="connector23pin" y="142.69" width="2.773" height="2.771" x="154.79"/><rect id="connector24pin" y="142.69" width="2.773" height="2.771" x="162.06"/><rect id="connector25pin" y="142.69" width="2.772" height="2.771" x="169.04"/><rect id="connector26pin" y="142.69" width="2.772" height="2.771" x="176.42"/><rect id="connector27pin" y="142.69" width="2.771" height="2.771" x="183.6"/></g></svg>

