<?xml version="1.0" encoding="UTF-8" standalone="no"?>
<svg id="svg2" xml:space="preserve" height="189" viewBox="0 0 201.78256 151.2" xmlns:dc="http://purl.org/dc/elements/1.1/" style="enable-background:new;" width="252.23" version="1.2" xmlns:xlink="http://www.w3.org/1999/xlink" xmlns:cc="http://creativecommons.org/ns#" xmlns:rdf="http://www.w3.org/1999/02/22-rdf-syntax-ns#" xmlns="http://www.w3.org/2000/svg" y="0px" x="0px"><metadata id="metadata5110"><rdf:RDF><cc:Work rdf:about=""><dc:format>image/svg+xml</dc:format><dc:type rdf:resource="http://purl.org/dc/dcmitype/StillImage"/><dc:title/></cc:Work></rdf:RDF></metadata><defs id="defs5108">
</defs><g id="breadboard" style="enable-background:new;" transform="translate(2.3556871,-2.2e-5)"><path id="path5990-7" style="enable-background:new;" d="m68.965-87.725,0,151.2,187.21,0,0-7.005,7.2265-7.2898,0-93.641-7.2265-6.5747,0-32.918-4.0752-3.7715-183.13,0zm42.941,2.8223c0.0743-0.0038,0.14621,0,0.22148,0,2.4088,0,4.36,1.9512,4.36,4.36,0,2.4087-1.9512,4.36-4.36,4.36-2.4087,0-4.36-1.9512-4.36-4.36,0-2.3335,1.834-4.2431,4.1385-4.36zm144.3,43.068c2.4087,0,4.36,1.9512,4.36,4.36,0,2.4087-1.9512,4.36-4.36,4.36-2.4087,0-4.36-1.9512-4.36-4.36,0-2.4087,1.9512-4.36,4.36-4.36zm-0.0759,79.359c2.4087,0,4.36,1.9575,4.36,4.3663,0,2.4087-1.9512,4.36-4.36,4.36s-4.36-1.9512-4.36-4.36c0-2.4087,1.9512-4.3663,4.36-4.3663z" transform="translate(-63.970902,87.725022)" fill="#1c1c1c"/><g id="g3733"><path id="path10810" d="m234.7-22.416c-1.4824,0-2.6894,1.2006-2.6894,2.683s1.2069,2.6894,2.6894,2.6894c1.4824,0,2.683-1.2069,2.683-2.6894,0-1.4824-1.2006-2.683-2.683-2.683zm0,1.3542c0.7355,0,1.3289,0.59338,1.3289,1.3289,0,0.73549-0.59337,1.3352-1.3289,1.3352-0.73549,0-1.3352-0.5997-1.3352-1.3352,0-0.73549,0.5997-1.3289,1.3352-1.3289z" style="enable-background:new;" fill="#f7bd13" transform="translate(-63.970902,87.725022)"/><path id="path10812" style="enable-background:new;" fill="#f7bd13" transform="translate(-63.970902,87.725022)" d="m234.7-9.7355c-1.4824,0-2.6894,1.2006-2.6894,2.6831,0,1.4824,1.2069,2.6894,2.6894,2.6894,1.4824,0,2.683-1.2069,2.683-2.6894,0-1.4824-1.2006-2.6831-2.683-2.6831zm0,1.3542c0.7355,0,1.3289,0.59338,1.3289,1.3289,0,0.73549-0.59337,1.3352-1.3289,1.3352-0.73549,0-1.3352-0.5997-1.3352-1.3352,0-0.73549,0.5997-1.3289,1.3352-1.3289z"/><path id="path10814" style="enable-background:new;" fill="#f7bd13" transform="translate(-63.970902,87.725022)" d="m216.27-22.416c-1.4824,0-2.6894,1.2006-2.6894,2.683s1.207,2.6894,2.6894,2.6894,2.683-1.2069,2.683-2.6894c0-1.4824-1.2006-2.683-2.683-2.683zm0,1.3542c0.73549,0,1.3289,0.59338,1.3289,1.3289,0,0.73549-0.59338,1.3352-1.3289,1.3352-0.73549,0-1.3352-0.5997-1.3352-1.3352,0-0.73549,0.59971-1.3289,1.3352-1.3289z"/><path id="path10816" d="m216.27-9.7355c-1.4824,0-2.6894,1.2006-2.6894,2.6831,0,1.4824,1.207,2.6894,2.6894,2.6894s2.683-1.2069,2.683-2.6894c0-1.4824-1.2006-2.6831-2.683-2.6831zm0,1.3542c0.73549,0,1.3289,0.59338,1.3289,1.3289,0,0.73549-0.59338,1.3352-1.3289,1.3352-0.73549,0-1.3352-0.5997-1.3352-1.3352,0-0.73549,0.59971-1.3289,1.3352-1.3289z" style="enable-background:new;" fill="#f7bd13" transform="translate(-63.970902,87.725022)"/><path id="path10793" style="enable-background:new;" fill="#f7bd13" transform="translate(-63.970902,87.725022)" d="m256.51-25.597c-1.4824,0-2.6894,1.2006-2.6894,2.683s1.207,2.6894,2.6894,2.6894,2.683-1.2069,2.683-2.6894c0-1.4824-1.2006-2.683-2.683-2.683zm0,1.3542c0.7355,0,1.3289,0.59338,1.3289,1.3289,0,0.7355-0.59337,1.3352-1.3289,1.3352-0.73549,0-1.3352-0.5997-1.3352-1.3352,0-0.73549,0.5997-1.3289,1.3352-1.3289z"/><path id="rect10807" style="enable-background:new;" fill="#f7bd13" transform="translate(-63.970902,87.725022)" d="m246.93-25.458,0,4.9738,4.9738,0,0-4.9738-4.9738,0zm2.4869,1.1517c0.7355,0,1.3352,0.5997,1.3352,1.3352,0,0.73549-0.5997,1.3289-1.3352,1.3289-0.73549,0-1.3289-0.59338-1.3289-1.3289,0-0.73549,0.59338-1.3352,1.3289-1.3352z"/><path id="path10799" d="m256.51-18.307c-1.4824,0-2.6894,1.2006-2.6894,2.683s1.207,2.6894,2.6894,2.6894,2.683-1.2069,2.683-2.6894c0-1.4824-1.2006-2.683-2.683-2.683zm0,1.3542c0.7355,0,1.3289,0.59338,1.3289,1.3289,0,0.73549-0.59337,1.3352-1.3289,1.3352-0.73549,0-1.3352-0.5997-1.3352-1.3352,0-0.73549,0.5997-1.3289,1.3352-1.3289z" style="enable-background:new;" fill="#f7bd13" transform="translate(-63.970902,87.725022)"/><path id="path10801" style="enable-background:new;" fill="#f7bd13" transform="translate(-63.970902,87.725022)" d="m256.51-11.136c-1.4824,0-2.6894,1.2006-2.6894,2.683s1.207,2.6894,2.6894,2.6894,2.683-1.2069,2.683-2.6894c0-1.4824-1.2006-2.683-2.683-2.683zm0,1.3542c0.7355,0,1.3289,0.59338,1.3289,1.3289,0,0.73549-0.59337,1.3352-1.3289,1.3352-0.73549,0-1.3352-0.5997-1.3352-1.3352,0-0.73549,0.5997-1.3289,1.3352-1.3289z"/><path id="path10803" d="m249.51-11.136c-1.4824,0-2.6894,1.2006-2.6894,2.683s1.2069,2.6894,2.6894,2.6894c1.4824,0,2.683-1.2069,2.683-2.6894,0-1.4824-1.2006-2.683-2.683-2.683zm0,1.3542c0.7355,0,1.3289,0.59338,1.3289,1.3289,0,0.73549-0.59337,1.3352-1.3289,1.3352-0.73549,0-1.3352-0.5997-1.3352-1.3352,0-0.73549,0.5997-1.3289,1.3352-1.3289z" style="enable-background:new;" fill="#f7bd13" transform="translate(-63.970902,87.725022)"/><path id="path10805" style="enable-background:new;" fill="#f7bd13" transform="translate(-63.970902,87.725022)" d="m249.51-18.307c-1.4824,0-2.6894,1.2006-2.6894,2.683s1.2069,2.6894,2.6894,2.6894c1.4824,0,2.683-1.2069,2.683-2.6894,0-1.4824-1.2006-2.683-2.683-2.683zm0,1.3542c0.7355,0,1.3289,0.59338,1.3289,1.3289,0,0.73549-0.59337,1.3352-1.3289,1.3352-0.73549,0-1.3352-0.5997-1.3352-1.3352,0-0.73549,0.5997-1.3289,1.3352-1.3289z"/><path id="path10698-4" style="enable-background:new;" d="m28.499-368.49c0,3.6322-2.9445,6.5766-6.5766,6.5766-3.6322,0-6.5766-2.9445-6.5766-6.5766,0-3.6322,2.9445-6.5766,6.5766-6.5766,3.6322,0,6.5766,2.9444,6.5766,6.5766z" transform="matrix(0.20249435,0,0,0.20249435,58.813748,79.026781)" fill="#f7bd13"/><path id="path10698-0-1" style="enable-background:new;" d="m28.499-368.49c0,3.6322-2.9445,6.5766-6.5766,6.5766-3.6322,0-6.5766-2.9445-6.5766-6.5766,0-3.6322,2.9445-6.5766,6.5766-6.5766,3.6322,0,6.5766,2.9444,6.5766,6.5766z" transform="matrix(0.20249435,0,0,0.20249435,94.591242,187.30002)" fill="#f7bd13"/><rect id="rect10751-9" style="enable-background:new;" transform="translate(-63.970902,87.725022)" height="2.1525" width="2.1525" y="-68.092" x="250.02" fill="#f7bd13"/><path id="path10698-2-9" style="enable-background:new;" d="m28.499-368.49c0,3.6322-2.9445,6.5766-6.5766,6.5766-3.6322,0-6.5766-2.9445-6.5766-6.5766,0-3.6322,2.9445-6.5766,6.5766-6.5766,3.6322,0,6.5766,2.9444,6.5766,6.5766z" transform="matrix(0.20249435,0,0,0.20249435,5.618021,220.80807)" fill="#f7bd13"/><path id="path10698-6-3-7" style="enable-background:new;" d="m28.499-368.49c0,3.6322-2.9445,6.5766-6.5766,6.5766-3.6322,0-6.5766-2.9445-6.5766-6.5766,0-3.6322,2.9445-6.5766,6.5766-6.5766,3.6322,0,6.5766,2.9444,6.5766,6.5766z" transform="matrix(0.20249435,0,0,0.20249435,189.78323,189.5736)" fill="#f7bd13"/><path id="path4360" d="m93.439-73.531c-1.9867,0-3.6042,1.609-3.6042,3.5958,0,1.9867,1.6175,3.6042,3.6042,3.6042s3.5958-1.6175,3.5958-3.6042-1.609-3.5958-3.5958-3.5958zm0,1.8148c0.9857,0,1.7809,0.79523,1.7809,1.7809,0,0.98569-0.79522,1.7894-1.7809,1.7894-0.98569,0-1.7894-0.80371-1.7894-1.7894s0.8037-1.7809,1.7894-1.7809z" style="enable-background:new;" transform="translate(-63.970902,87.725022)" fill="#f7bd13"/><path id="path4362" style="enable-background:new;" fill="#f7bd13" transform="translate(-63.970902,87.725022)" d="m93.439-31.078c-1.9867,0-3.6042,1.609-3.6042,3.5958,0,1.9867,1.6175,3.6042,3.6042,3.6042s3.5958-1.6175,3.5958-3.6042-1.609-3.5958-3.5958-3.5958zm0,1.8148c0.9857,0,1.7809,0.79523,1.7809,1.7809,0,0.98569-0.79522,1.7894-1.7809,1.7894-0.98569,0-1.7894-0.80371-1.7894-1.7894s0.8037-1.7809,1.7894-1.7809z"/><path id="path4368" style="enable-background:new;" d="m28.499-368.49c0,3.6322-2.9445,6.5766-6.5766,6.5766-3.6322,0-6.5766-2.9445-6.5766-6.5766,0-3.6322,2.9445-6.5766,6.5766-6.5766,3.6322,0,6.5766,2.9444,6.5766,6.5766z" transform="matrix(0.20249435,0,0,0.20249435,139.68558,141.82832)" fill="#f7bd13"/><path id="path5356" d="m102.37,36.494c-1.9867,0-3.6042,1.609-3.6042,3.5958,0,1.9867,1.6175,3.6042,3.6042,3.6042s3.5958-1.6175,3.5958-3.6042-1.609-3.5958-3.5958-3.5958zm0,1.8148c0.9857,0,1.7809,0.79523,1.7809,1.7809,0,0.98569-0.79522,1.7894-1.7809,1.7894-0.98569,0-1.7894-0.80371-1.7894-1.7894s0.80371-1.7809,1.7894-1.7809z" style="enable-background:new;" transform="translate(-63.970902,87.725022)" fill="#f7bd13"/><path id="path5358" style="enable-background:new;" fill="#f7bd13" transform="translate(-63.970902,87.725022)" d="m94.021,49.892c-1.829,0-3.3181,1.4813-3.3181,3.3103s1.4891,3.3181,3.3181,3.3181,3.3103-1.4891,3.3103-3.3181-1.4813-3.3103-3.3103-3.3103zm0,1.6708c0.90744,0,1.6395,0.73209,1.6395,1.6395,0,0.90743-0.73208,1.6473-1.6395,1.6473-0.90743,0-1.6473-0.7399-1.6473-1.6473,0-0.90744,0.7399-1.6395,1.6473-1.6395z"/><rect id="rect8764" style="enable-background:new;" transform="translate(-63.970902,87.725022)" height="8.5039" width="8.5039" y="-67.948" x="220.08" fill="#2e2e2e"/><rect id="rect8820" style="enable-background:new;" transform="matrix(0,0.99999999,-0.99999999,0,-63.970902,87.725022)" height="4.5354" width="2.2677" y="-84.342" x="-81.147" fill="#2e2e2e"/><rect id="rect8828" style="enable-background:new;" transform="matrix(0,0.99999999,-0.99999999,0,-63.970902,87.725022)" height="6.1645" width="3.9123" y="-115.21" x="6.5184" fill="#2e2e2e"/><rect id="rect8832" style="enable-background:new;" transform="translate(-63.970902,87.725022)" height="9.721" width="4.9793" y="-76.767" x="126.51" fill="#2e2e2e"/><rect id="rect8834" style="enable-background:new;" transform="matrix(0,0.99999999,-0.99999999,0,-63.970902,87.725022)" height="9.6025" width="4.7422" y="-109.49" x="-25.921" fill="#2e2e2e"/><rect id="rect8836" style="enable-background:new;" transform="translate(-63.970902,87.725022)" height="5.6903" width="2.8454" y="-5.9136" x="87.937" fill="#2e2e2e"/><path id="rect8838" style="enable-background:new;" fill="#2e2e2e" transform="translate(-63.970902,87.725022)" d="m115.38-14.563-3.3222,0,0-4.5055-10.789,0,0,1.8098-4.284,0,0,2.1325,4.284,0,0,4.3473-4.284,0,0,2.1325,4.284,0,0,4.2271-4.284,0,0,2.1388,4.284,0,0,2.297,10.789,0,0-4.9801,3.3222,0,0-9.5995z"/><rect id="rect8840" style="enable-background:new;" transform="matrix(-0.99999999,0,0,-0.99999999,-63.970902,87.725022)" height="9.8396" width="17.071" y="-41.233" x="-207.24" fill="#2e2e2e"/><rect id="rect8842" style="enable-background:new;" transform="translate(-63.970902,87.725022)" height="5.2162" width="9.0099" y="-20.179" x="125.4" fill="#2e2e2e"/><rect id="rect8844" style="enable-background:new;" transform="matrix(0,0.99999999,-0.99999999,0,-63.970902,87.725022)" height="15.174" width="8.4172" y="-89.446" x="16.414" fill="#2e2e2e"/><rect id="rect8850" style="enable-background:new;" transform="translate(-63.970902,87.725022)" height="9.9213" width="17.008" y="-67.743" x="165.15" fill="#2e2e2e"/><rect id="rect8854" style="enable-background:new;" transform="matrix(0,0.99999999,-0.99999999,0,-63.970902,87.725022)" height="9.6839" width="5.1024" y="-159.43" x="-68.347" fill="#2e2e2e"/><rect id="rect8856" style="enable-background:new;" transform="matrix(0,0.99999999,-0.99999999,0,-63.970902,87.725022)" height="19.843" width="19.843" y="-184.91" x="-49.633" fill="#2e2e2e"/><rect id="rect8858" style="enable-background:new;" transform="matrix(0,0.99999999,-0.99999999,0,-63.970902,87.725022)" height="39.714" width="39.714" y="-205.15" x="-17.582" fill="#2e2e2e"/><path id="rect8860" style="enable-background:new;" fill="#2e2e2e" transform="translate(-63.970902,87.725022)" d="m152.04-10.986-2.9488,0,0-2.2528-16.832,0,0,0.94919-7.2518,0,0,2.8413,7.2518,0,0,10.118-7.2518,0,0,2.8412,7.2518,0,0,1.6263,16.832,0,0-2.8476,2.9488,0,0-13.276z"/><path id="path8870" d="m259.34,6.3727-2.9488,0,0-2.2528-16.832,0,0,0.94919-7.2518,0,0,2.8412,7.2518,0,0,10.118-7.2518,0,0,2.8412,7.2518,0,0,1.6263,16.832,0,0-2.8476,2.9488,0,0-13.276z" style="enable-background:new;" fill="#2e2e2e" transform="translate(-63.970902,87.725022)"/><rect id="rect4372" style="enable-background:new;" transform="translate(-63.970902,87.725022)" height="4.782" width="9.4441" y="-20.179" x="135.32" fill="#2e2e2e"/><rect id="rect4374" style="enable-background:new;" transform="translate(-63.970902,87.725022)" height="5.1024" width="9.0709" y="-20.066" x="148.01" fill="#2e2e2e"/><rect id="rect4376" style="enable-background:new;" transform="matrix(0,0.99999999,-0.99999999,0,-63.970902,87.725022)" height="9.6025" width="4.7422" y="-82.663" x="-25.166" fill="#2e2e2e"/><rect id="rect4378" style="enable-background:new;" transform="matrix(-0.99999999,0,0,-0.99999999,-63.970902,87.725022)" height="9.6025" width="4.7422" y="12.711" x="-91.177" fill="#2e2e2e"/><rect id="rect4380" style="enable-background:new;" transform="matrix(-0.99999999,0,0,-0.99999999,-63.970902,87.725022)" height="9.6025" width="4.7422" y="-19.742" x="-104.57" fill="#2e2e2e"/><rect id="rect4382" style="enable-background:new;" transform="matrix(0,0.99999999,-0.99999999,0,-63.970902,87.725022)" height="4.5354" width="2.2677" y="-84.495" x="-75.476" fill="#2e2e2e"/><rect id="rect4384" style="enable-background:new;" transform="matrix(0,0.99999999,-0.99999999,0,-63.970902,87.725022)" height="4.5354" width="2.2677" y="-95.684" x="-81.147" fill="#2e2e2e"/><rect id="rect4386" style="enable-background:new;" transform="matrix(0,0.99999999,-0.99999999,0,-63.970902,87.725022)" height="4.5354" width="2.2677" y="-124.96" x="-69.499" fill="#2e2e2e"/><rect id="rect4388" style="enable-background:new;" transform="matrix(0,0.99999999,-0.99999999,0,-63.970902,87.725022)" height="4.5354" width="2.2677" y="-124.96" x="-66.605" fill="#2e2e2e"/><rect id="rect4390" style="enable-background:new;" transform="matrix(0,0.99999999,-0.99999999,0,-63.970902,87.725022)" height="4.5354" width="2.2677" y="-139.98" x="-63.233" fill="#2e2e2e"/><rect id="rect4392" style="enable-background:new;" transform="matrix(0,0.99999999,-0.99999999,0,-63.970902,87.725022)" height="4.5354" width="2.2677" y="-146.88" x="-63.386" fill="#2e2e2e"/><rect id="rect4394" style="enable-background:new;" transform="matrix(0,0.99999999,-0.99999999,0,-63.970902,87.725022)" height="4.5354" width="2.2677" y="-157.15" x="-62.007" fill="#2e2e2e"/><rect id="rect4396" style="enable-background:new;" transform="matrix(-0.99999999,0,0,-0.99999999,-63.970902,87.725022)" height="4.5354" width="2.2677" y="50.942" x="-153.41" fill="#2e2e2e"/><rect id="rect4398" style="enable-background:new;" transform="matrix(-0.99999999,0,0,-0.99999999,-63.970902,87.725022)" height="4.5354" width="2.2677" y="51.862" x="-159.69" fill="#2e2e2e"/><rect id="rect4400" style="enable-background:new;" transform="matrix(-0.99999999,0,0,-0.99999999,-63.970902,87.725022)" height="4.5354" width="2.2677" y="58.605" x="-163.98" fill="#2e2e2e"/><rect id="rect4402" style="enable-background:new;" transform="matrix(-0.99999999,0,0,-0.99999999,-63.970902,87.725022)" height="4.5354" width="2.2677" y="44.542" x="-153.41" fill="#2e2e2e"/><rect id="rect4404" style="enable-background:new;" transform="matrix(-0.99999999,0,0,-0.99999999,-63.970902,87.725022)" height="4.5354" width="2.2677" y="33.189" x="-153.41" fill="#2e2e2e"/><rect id="rect4406" style="enable-background:new;" transform="matrix(-0.99999999,0,0,-0.99999999,-63.970902,87.725022)" height="4.5354" width="2.2677" y="26.262" x="-153.41" fill="#2e2e2e"/><rect id="rect4408" style="enable-background:new;" transform="matrix(0,-0.99999999,0.99999999,0,-63.970902,87.725022)" height="4.5354" width="2.2677" y="155.21" x="27.745" fill="#2e2e2e"/><rect id="rect4410" style="enable-background:new;" transform="matrix(-0.99999999,0,0,-0.99999999,-63.970902,87.725022)" height="4.5354" width="2.2677" y="21.896" x="-156.61" fill="#2e2e2e"/><rect id="rect4412" style="enable-background:new;" transform="matrix(-0.99999999,0,0,-0.99999999,-63.970902,87.725022)" height="4.5354" width="2.2677" y="21.896" x="-159.7" fill="#2e2e2e"/><rect id="rect4414" style="enable-background:new;" transform="matrix(0,-0.99999999,0.99999999,0,-63.970902,87.725022)" height="4.5354" width="2.2677" y="113.64" x="23.837" fill="#2e2e2e"/><rect id="rect4416" style="enable-background:new;" transform="matrix(0,-0.99999999,0.99999999,0,-63.970902,87.725022)" height="4.5354" width="2.2677" y="113.64" x="20.42" fill="#2e2e2e"/><rect id="rect4418" style="enable-background:new;" transform="matrix(0,-0.99999999,0.99999999,0,-63.970902,87.725022)" height="4.5354" width="2.2677" y="119.6" x="18.712" fill="#2e2e2e"/><rect id="rect4420" style="enable-background:new;" transform="matrix(0,-0.99999999,0.99999999,0,-63.970902,87.725022)" height="4.5354" width="2.2677" y="119.6" x="14.969" fill="#2e2e2e"/><rect id="rect4422" style="enable-background:new;" transform="matrix(0,-0.99999999,0.99999999,0,-63.970902,87.725022)" height="4.5354" width="2.2677" y="81.396" x="-15.401" fill="#2e2e2e"/><rect id="rect4424" style="enable-background:new;" transform="matrix(0,-0.99999999,0.99999999,0,-63.970902,87.725022)" height="4.5354" width="2.2677" y="103.11" x="-22.782" fill="#2e2e2e"/><rect id="rect4426" style="enable-background:new;" transform="matrix(0,-0.99999999,0.99999999,0,-63.970902,87.725022)" height="4.5354" width="2.2677" y="103.11" x="-25.548" fill="#2e2e2e"/><rect id="rect4428" style="enable-background:new;" transform="matrix(0,-0.99999999,0.99999999,0,-63.970902,87.725022)" height="4.5354" width="2.2677" y="97.466" x="-25.548" fill="#2e2e2e"/><rect id="rect4430" style="enable-background:new;" transform="translate(-63.970902,87.725022)" height="4.5354" width="2.2677" y="8.4171" x="88.283" fill="#2e2e2e"/><rect id="rect4432" style="enable-background:new;" transform="translate(-63.970902,87.725022)" height="4.5354" width="2.2677" y="4.835" x="101.2" fill="#2e2e2e"/><rect id="rect4434" style="enable-background:new;" transform="translate(-63.970902,87.725022)" height="4.5354" width="2.2677" y="4.835" x="105.13" fill="#2e2e2e"/><rect id="rect4436" style="enable-background:new;" transform="translate(-63.970902,87.725022)" height="4.5354" width="2.2677" y="13.458" x="110.26" fill="#2e2e2e"/><rect id="rect4438" style="enable-background:new;" transform="translate(-63.970902,87.725022)" height="4.5354" width="2.2677" y="20.292" x="110.26" fill="#2e2e2e"/><rect id="rect4440" style="enable-background:new;" transform="translate(-63.970902,87.725022)" height="36.85" width="21.26" y="-59.394" x="124.11" fill="#2e2e2e"/><rect id="rect4442" style="enable-background:new;" transform="matrix(0,0.99999999,-0.99999999,0,-63.970902,87.725022)" height="9.6839" width="5.1024" y="-196.45" x="-63.028" fill="#2e2e2e"/><rect id="rect4444" style="enable-background:new;" transform="matrix(-0.99999999,0,0,-0.99999999,-63.970902,87.725022)" height="4.5354" width="2.2677" y="58.931" x="-185.58" fill="#2e2e2e"/><rect id="rect4446" style="enable-background:new;" transform="matrix(0,-0.99999999,0.99999999,0,-63.970902,87.725022)" height="4.5354" width="2.2677" y="191.79" x="53.037" fill="#2e2e2e"/><rect id="rect4448" style="enable-background:new;" transform="matrix(0,-0.99999999,0.99999999,0,-63.970902,87.725022)" height="4.5354" width="2.2677" y="191.79" x="49.672" fill="#2e2e2e"/><rect id="rect4450" style="enable-background:new;" transform="matrix(-0.99999999,0,0,-0.99999999,-63.970902,87.725022)" height="4.5354" width="2.2677" y="41.563" x="-195.46" fill="#2e2e2e"/><rect id="rect4452" style="enable-background:new;" transform="matrix(-0.99999999,0,0,-0.99999999,-63.970902,87.725022)" height="4.5354" width="2.2677" y="34.946" x="-195.46" fill="#2e2e2e"/><rect id="rect4454" style="enable-background:new;" transform="matrix(-0.99999999,0,0,-0.99999999,-63.970902,87.725022)" height="4.5354" width="2.2677" y="30.798" x="-199.93" fill="#2e2e2e"/><rect id="rect4456" style="enable-background:new;" transform="matrix(0,-0.99999999,0.99999999,0,-63.970902,87.725022)" height="4.5354" width="2.2677" y="191.57" x="24.695" fill="#2e2e2e"/><rect id="rect4458" style="enable-background:new;" transform="matrix(0,-0.99999999,0.99999999,0,-63.970902,87.725022)" height="4.5354" width="2.2677" y="208.83" x="55.316" fill="#2e2e2e"/><rect id="rect4460" style="enable-background:new;" transform="matrix(0,-0.99999999,0.99999999,0,-63.970902,87.725022)" height="4.5354" width="2.2677" y="215.56" x="55.316" fill="#2e2e2e"/><rect id="rect4462" style="enable-background:new;" transform="matrix(0,-0.99999999,0.99999999,0,-63.970902,87.725022)" height="4.5354" width="2.2677" y="221.96" x="55.316" fill="#2e2e2e"/><rect id="rect4464" style="enable-background:new;" transform="matrix(0,-0.99999999,0.99999999,0,-63.970902,87.725022)" height="4.5354" width="2.2677" y="228.36" x="55.316" fill="#2e2e2e"/><rect id="rect4466" style="enable-background:new;" transform="matrix(0,-0.99999999,0.99999999,0,-63.970902,87.725022)" height="4.5354" width="2.2677" y="242.32" x="59.682" fill="#2e2e2e"/><rect id="rect4468" style="enable-background:new;" transform="matrix(0,-0.99999999,0.99999999,0,-63.970902,87.725022)" height="4.5354" width="2.2677" y="243.73" x="64.699" fill="#2e2e2e"/><rect id="rect4470" style="enable-background:new;" transform="matrix(-0.99999999,0,0,-0.99999999,-63.970902,87.725022)" height="4.5354" width="2.2677" y="59.37" x="-252.56" fill="#2e2e2e"/><rect id="rect4472" style="enable-background:new;" transform="matrix(-0.99999999,0,0,-0.99999999,-63.970902,87.725022)" height="4.5354" width="2.2677" y="52.97" x="-252.56" fill="#2e2e2e"/><rect id="rect4474" style="enable-background:new;" transform="matrix(-0.99999999,0,0,-0.99999999,-63.970902,87.725022)" height="4.5354" width="2.2677" y="52.427" x="-246.27" fill="#2e2e2e"/><rect id="rect4476" style="enable-background:new;" transform="matrix(-0.99999999,0,0,-0.99999999,-63.970902,87.725022)" height="4.5354" width="2.2677" y="-1.6583" x="-215.89" fill="#2e2e2e"/><rect id="rect4478" style="enable-background:new;" transform="matrix(-0.99999999,0,0,-0.99999999,-63.970902,87.725022)" height="4.5354" width="2.2677" y="-1.6583" x="-219.53" fill="#2e2e2e"/><rect id="rect4480" style="enable-background:new;" transform="matrix(-0.99999999,0,0,-0.99999999,-63.970902,87.725022)" height="4.5354" width="2.2677" y="-10.498" x="-216.76" fill="#2e2e2e"/><rect id="rect4482" style="enable-background:new;" transform="matrix(-0.99999999,0,0,-0.99999999,-63.970902,87.725022)" height="4.5354" width="2.2677" y="-18.173" x="-216.98" fill="#2e2e2e"/><rect id="rect4484" style="enable-background:new;" transform="matrix(0,-0.99999999,0.99999999,0,-63.970902,87.725022)" height="4.5354" width="2.2677" y="217.83" x="-15.953" fill="#2e2e2e"/><rect id="rect4486" style="enable-background:new;" transform="matrix(0,-0.99999999,0.99999999,0,-63.970902,87.725022)" height="4.5354" width="2.2677" y="217.83" x="-18.502" fill="#2e2e2e"/><rect id="rect4488" style="enable-background:new;" transform="matrix(0,-0.99999999,0.99999999,0,-63.970902,87.725022)" height="4.5354" width="2.2677" y="219.24" x="-21.377" fill="#2e2e2e"/><rect id="rect4490" style="enable-background:new;" transform="matrix(0,-0.99999999,0.99999999,0,-63.970902,87.725022)" height="4.5354" width="2.2677" y="213.5" x="-21.377" fill="#2e2e2e"/><rect id="rect4492" style="enable-background:new;" transform="matrix(0,-0.99999999,0.99999999,0,-63.970902,87.725022)" height="4.5354" width="2.2677" y="216.53" x="-24.142" fill="#2e2e2e"/><rect id="rect4494" style="enable-background:new;" transform="matrix(0,0.99999999,-0.99999999,0,-63.970902,87.725022)" height="9.0709" width="5.1024" y="-232.2" x="-3.1093" fill="#2e2e2e"/><rect id="rect4496" style="enable-background:new;" transform="matrix(0,0.99999999,-0.99999999,0,-63.970902,87.725022)" height="9.0709" width="5.1024" y="-249.57" x="-3.2179" fill="#2e2e2e"/><rect id="rect4498" style="enable-background:new;" transform="matrix(0,0.99999999,-0.99999999,0,-63.970902,87.725022)" height="9.0709" width="5.1024" y="-260.31" x="-3.435" fill="#2e2e2e"/><rect id="rect4500" style="enable-background:new;" transform="matrix(-0.99999999,0,0,-0.99999999,-63.970902,87.725022)" height="9.0709" width="5.1024" y="-12.661" x="-222.4" fill="#2e2e2e"/><rect id="rect4502" style="enable-background:new;" transform="matrix(-0.99999999,0,0,-0.99999999,-63.970902,87.725022)" height="4.5354" width="2.2677" y="-37.494" x="-223.82" fill="#2e2e2e"/><rect id="rect4504" style="enable-background:new;" transform="matrix(0,-0.99999999,0.99999999,0,-63.970902,87.725022)" height="4.5354" width="2.2677" y="224.67" x="-34.732" fill="#2e2e2e"/><rect id="rect4506" style="enable-background:new;" transform="matrix(0,-0.99999999,0.99999999,0,-63.970902,87.725022)" height="4.5354" width="2.2677" y="224.67" x="-37.824" fill="#2e2e2e"/><rect id="rect4508" style="enable-background:new;" transform="matrix(-0.99999999,0,0,-0.99999999,-63.970902,87.725022)" height="4.5354" width="2.2677" y="-37.603" x="-234.02" fill="#2e2e2e"/><rect id="rect4510" style="enable-background:new;" transform="matrix(-0.99999999,0,0,-0.99999999,-63.970902,87.725022)" height="4.5354" width="2.2677" y="-37.603" x="-240.31" fill="#2e2e2e"/><rect id="rect4512" style="enable-background:new;" transform="matrix(-0.99999999,0,0,-0.99999999,-63.970902,87.725022)" height="4.5354" width="2.2677" y="-37.603" x="-244.87" fill="#2e2e2e"/><rect id="rect4514" style="enable-background:new;" transform="matrix(-0.99999999,0,0,-0.99999999,-63.970902,87.725022)" height="4.5354" width="2.2677" y="-38.363" x="-210.46" fill="#2e2e2e"/><rect id="rect4516" style="enable-background:new;" transform="matrix(-0.99999999,0,0,-0.99999999,-63.970902,87.725022)" height="4.5354" width="2.2677" y="-38.471" x="-189.19" fill="#2e2e2e"/><rect id="rect4518" style="enable-background:new;" transform="matrix(0,-0.99999999,0.99999999,0,-63.970902,87.725022)" height="4.5354" width="2.2677" y="179.52" x="-29.088" fill="#2e2e2e"/><rect id="rect4520" style="enable-background:new;" transform="matrix(0,-0.99999999,0.99999999,0,-63.970902,87.725022)" height="4.5354" width="2.2677" y="170.51" x="-30.499" fill="#2e2e2e"/><rect id="rect4522" style="enable-background:new;" transform="matrix(0,0.99999999,-0.99999999,0,-63.970902,87.725022)" height="9.0709" width="5.1024" y="-177.38" x="31.083" fill="#2e2e2e"/><rect id="rect5332" style="enable-background:new;" transform="matrix(-0.99999999,0,0,-0.99999999,-63.970902,87.725022)" height="4.5354" width="2.2677" y="-1.6583" x="-215.89" fill="#2e2e2e"/><rect id="rect5334" style="enable-background:new;" transform="matrix(-0.99999999,0,0,-0.99999999,-63.970902,87.725022)" height="4.5354" width="2.2677" y="0.44432" x="-160.58" fill="#2e2e2e"/><rect id="rect5336" style="enable-background:new;" transform="matrix(-0.99999999,0,0,-0.99999999,-63.970902,87.725022)" height="4.5354" width="2.2677" y="-7.3805" x="-158.81" fill="#2e2e2e"/><g id="g9883" style="enable-background:new;" transform="matrix(0.25311793,0,0,0.25311793,55.789688,78.669074)"><rect id="rect9671" height="27.819" width="170.56" y="243.74" x="154.96" fill="#55adf7"/><g id="g9847"><polygon id="polygon9675" opacity="0.84016395" style="enable-background:new;" transform="matrix(4.0353725,0,0,4.0353725,-605.11285,-315.95545)" points="190.54,140.88,193.32,140.88,194.34,139.86,189.52,139.86" fill="#004987"/><polygon id="polygon9677" opacity="0.84016395" style="enable-background:new;" transform="matrix(4.0353725,0,0,4.0353725,-605.11285,-315.95545)" points="193.32,140.89,193.32,143.66,194.34,144.68,194.34,139.86" fill="#0a7bdc"/><polygon id="polygon9679" opacity="0.84016395" style="enable-background:new;" transform="matrix(4.0353725,0,0,4.0353725,-605.11285,-315.95545)" points="193.32,143.66,190.54,143.66,189.52,144.68,194.34,144.68" fill="#84c4f9"/><polygon id="polygon9681" opacity="0.84016395" style="enable-background:new;" transform="matrix(4.0353725,0,0,4.0353725,-605.11285,-315.95545)" points="190.54,143.66,190.54,140.88,189.52,139.86,189.52,144.68" fill="#0861ab"/></g><g id="g9853"><polygon id="polygon9685" opacity="0.84016395" style="enable-background:new;" transform="matrix(4.0353725,0,0,4.0353725,-576.31285,-315.95545)" points="190.54,140.88,193.32,140.88,194.34,139.86,189.52,139.86" fill="#0e5999"/><polygon id="polygon9687" opacity="0.84016395" style="enable-background:new;" transform="matrix(4.0353725,0,0,4.0353725,-576.31285,-315.95545)" points="193.32,140.89,193.32,143.66,194.34,144.68,194.34,139.86" fill="#1683e1"/><polygon id="polygon9689" opacity="0.84016395" style="enable-background:new;" transform="matrix(4.0353725,0,0,4.0353725,-576.31285,-315.95545)" points="193.32,143.66,190.54,143.66,189.52,144.68,194.34,144.68" fill="#7dc0f9"/><polygon id="polygon9691" opacity="0.84016395" style="enable-background:new;" transform="matrix(4.0353725,0,0,4.0353725,-576.31285,-315.95545)" points="190.54,143.66,190.54,140.88,189.52,139.86,189.52,144.68" fill="#156db8"/></g><g id="g9859"><polygon id="polygon9695" opacity="0.84016395" style="enable-background:new;" transform="matrix(4.0353725,0,0,4.0353725,-547.51285,-315.95545)" points="190.54,140.88,193.32,140.88,194.34,139.86,189.52,139.86" fill="#0e5999"/><polygon id="polygon9697" opacity="0.84016395" style="enable-background:new;" transform="matrix(4.0353725,0,0,4.0353725,-547.51285,-315.95545)" points="193.32,140.89,193.32,143.66,194.34,144.68,194.34,139.86" fill="#1683e1"/><polygon id="polygon9699" opacity="0.84016395" style="enable-background:new;" transform="matrix(4.0353725,0,0,4.0353725,-547.51285,-315.95545)" points="193.32,143.66,190.54,143.66,189.52,144.68,194.34,144.68" fill="#7dc0f9"/><polygon id="polygon9701" opacity="0.84016395" style="enable-background:new;" transform="matrix(4.0353725,0,0,4.0353725,-547.51285,-315.95545)" points="190.54,143.66,190.54,140.88,189.52,139.86,189.52,144.68" fill="#156db8"/></g><g id="g9865"><polygon id="polygon9705" opacity="0.84016395" style="enable-background:new;" transform="matrix(4.0353725,0,0,4.0353725,-519.98167,-315.95545)" points="190.54,140.88,193.32,140.88,194.34,139.86,189.52,139.86" fill="#0e5999"/><polygon id="polygon9707" opacity="0.84016395" style="enable-background:new;" transform="matrix(4.0353725,0,0,4.0353725,-519.98167,-315.95545)" points="193.32,140.89,193.32,143.66,194.34,144.68,194.34,139.86" fill="#1683e1"/><polygon id="polygon9709" opacity="0.84016395" style="enable-background:new;" transform="matrix(4.0353725,0,0,4.0353725,-519.98167,-315.95545)" points="193.32,143.66,190.54,143.66,189.52,144.68,194.34,144.68" fill="#7dc0f9"/><polygon id="polygon9711" opacity="0.84016395" style="enable-background:new;" transform="matrix(4.0353725,0,0,4.0353725,-519.98167,-315.95545)" points="190.54,143.66,190.54,140.88,189.52,139.86,189.52,144.68" fill="#156db8"/></g><g id="g9871"><polygon id="polygon9715" opacity="0.84016395" style="enable-background:new;" transform="matrix(4.0353725,0,0,4.0353725,-490.90639,-315.95545)" points="189.52,139.86,190.54,140.88,193.32,140.88,194.34,139.86" fill="#0e5999"/><polygon id="polygon9717" opacity="0.84016395" style="enable-background:new;" transform="matrix(4.0353725,0,0,4.0353725,-490.90639,-315.95545)" points="194.34,139.86,193.32,140.89,193.32,143.66,194.34,144.68" fill="#1683e1"/><polygon id="polygon9719" opacity="0.84016395" style="enable-background:new;" transform="matrix(4.0353725,0,0,4.0353725,-490.90639,-315.95545)" points="194.34,144.68,193.32,143.66,190.54,143.66,189.52,144.68" fill="#7dc0f9"/><polygon id="polygon9721" opacity="0.84016395" style="enable-background:new;" transform="matrix(4.0353725,0,0,4.0353725,-490.90639,-315.95545)" points="189.52,144.68,190.54,143.66,190.54,140.88,189.52,139.86" fill="#156db8"/></g><g id="g9877"><polygon id="polygon9725" opacity="0.84016395" style="enable-background:new;" transform="matrix(4.0353725,0,0,4.0353725,-462.43757,-315.95545)" points="194.34,139.86,189.52,139.86,190.54,140.88,193.32,140.88" fill="#0e5999"/><polygon id="polygon9727" opacity="0.84016395" style="enable-background:new;" transform="matrix(4.0353725,0,0,4.0353725,-462.43757,-315.95545)" points="194.34,144.68,194.34,139.86,193.32,140.89,193.32,143.66" fill="#1683e1"/><polygon id="polygon9729" opacity="0.84016395" style="enable-background:new;" transform="matrix(4.0353725,0,0,4.0353725,-462.43757,-315.95545)" points="189.52,144.68,194.34,144.68,193.32,143.66,190.54,143.66" fill="#7dc0f9"/><polygon id="polygon9731" opacity="0.84016395" style="enable-background:new;" transform="matrix(4.0353725,0,0,4.0353725,-462.43757,-315.95545)" points="189.52,139.86,189.52,144.68,190.54,143.66,190.54,140.88" fill="#156db8"/></g></g><g id="g9958" style="enable-background:new;" transform="matrix(0.25311793,0,0,0.25311793,106.00829,78.669074)"><rect id="rect9960" height="27.819" width="170.56" y="243.74" x="154.96" fill="#55adf7"/><g id="g9962"><polygon id="polygon9964" opacity="0.84016395" style="enable-background:new;" transform="matrix(4.0353725,0,0,4.0353725,-605.11285,-315.95545)" points="190.54,140.88,193.32,140.88,194.34,139.86,189.52,139.86" fill="#004987"/><polygon id="polygon9966" opacity="0.84016395" style="enable-background:new;" transform="matrix(4.0353725,0,0,4.0353725,-605.11285,-315.95545)" points="193.32,140.89,193.32,143.66,194.34,144.68,194.34,139.86" fill="#0a7bdc"/><polygon id="polygon9968" opacity="0.84016395" style="enable-background:new;" transform="matrix(4.0353725,0,0,4.0353725,-605.11285,-315.95545)" points="193.32,143.66,190.54,143.66,189.52,144.68,194.34,144.68" fill="#84c4f9"/><polygon id="polygon9970" opacity="0.84016395" style="enable-background:new;" transform="matrix(4.0353725,0,0,4.0353725,-605.11285,-315.95545)" points="190.54,143.66,190.54,140.88,189.52,139.86,189.52,144.68" fill="#0861ab"/></g><g id="g9972"><polygon id="polygon9974" opacity="0.84016395" style="enable-background:new;" transform="matrix(4.0353725,0,0,4.0353725,-576.31285,-315.95545)" points="190.54,140.88,193.32,140.88,194.34,139.86,189.52,139.86" fill="#0e5999"/><polygon id="polygon9976" opacity="0.84016395" style="enable-background:new;" transform="matrix(4.0353725,0,0,4.0353725,-576.31285,-315.95545)" points="193.32,140.89,193.32,143.66,194.34,144.68,194.34,139.86" fill="#1683e1"/><polygon id="polygon9978" opacity="0.84016395" style="enable-background:new;" transform="matrix(4.0353725,0,0,4.0353725,-576.31285,-315.95545)" points="193.32,143.66,190.54,143.66,189.52,144.68,194.34,144.68" fill="#7dc0f9"/><polygon id="polygon9980" opacity="0.84016395" style="enable-background:new;" transform="matrix(4.0353725,0,0,4.0353725,-576.31285,-315.95545)" points="190.54,143.66,190.54,140.88,189.52,139.86,189.52,144.68" fill="#156db8"/></g><g id="g9982"><polygon id="polygon9984" opacity="0.84016395" style="enable-background:new;" transform="matrix(4.0353725,0,0,4.0353725,-547.51285,-315.95545)" points="190.54,140.88,193.32,140.88,194.34,139.86,189.52,139.86" fill="#0e5999"/><polygon id="polygon9986" opacity="0.84016395" style="enable-background:new;" transform="matrix(4.0353725,0,0,4.0353725,-547.51285,-315.95545)" points="193.32,140.89,193.32,143.66,194.34,144.68,194.34,139.86" fill="#1683e1"/><polygon id="polygon9988" opacity="0.84016395" style="enable-background:new;" transform="matrix(4.0353725,0,0,4.0353725,-547.51285,-315.95545)" points="193.32,143.66,190.54,143.66,189.52,144.68,194.34,144.68" fill="#7dc0f9"/><polygon id="polygon9990" opacity="0.84016395" style="enable-background:new;" transform="matrix(4.0353725,0,0,4.0353725,-547.51285,-315.95545)" points="190.54,143.66,190.54,140.88,189.52,139.86,189.52,144.68" fill="#156db8"/></g><g id="g9992"><polygon id="polygon9994" opacity="0.84016395" style="enable-background:new;" transform="matrix(4.0353725,0,0,4.0353725,-519.98167,-315.95545)" points="190.54,140.88,193.32,140.88,194.34,139.86,189.52,139.86" fill="#0e5999"/><polygon id="polygon9996" opacity="0.84016395" style="enable-background:new;" transform="matrix(4.0353725,0,0,4.0353725,-519.98167,-315.95545)" points="193.32,140.89,193.32,143.66,194.34,144.68,194.34,139.86" fill="#1683e1"/><polygon id="polygon9998" opacity="0.84016395" style="enable-background:new;" transform="matrix(4.0353725,0,0,4.0353725,-519.98167,-315.95545)" points="193.32,143.66,190.54,143.66,189.52,144.68,194.34,144.68" fill="#7dc0f9"/><polygon id="polygon10000" opacity="0.84016395" style="enable-background:new;" transform="matrix(4.0353725,0,0,4.0353725,-519.98167,-315.95545)" points="190.54,143.66,190.54,140.88,189.52,139.86,189.52,144.68" fill="#156db8"/></g><g id="g10002"><polygon id="polygon10004" opacity="0.84016395" style="enable-background:new;" transform="matrix(4.0353725,0,0,4.0353725,-490.90639,-315.95545)" points="189.52,139.86,190.54,140.88,193.32,140.88,194.34,139.86" fill="#0e5999"/><polygon id="polygon10006" opacity="0.84016395" style="enable-background:new;" transform="matrix(4.0353725,0,0,4.0353725,-490.90639,-315.95545)" points="194.34,139.86,193.32,140.89,193.32,143.66,194.34,144.68" fill="#1683e1"/><polygon id="polygon10008" opacity="0.84016395" style="enable-background:new;" transform="matrix(4.0353725,0,0,4.0353725,-490.90639,-315.95545)" points="194.34,144.68,193.32,143.66,190.54,143.66,189.52,144.68" fill="#7dc0f9"/><polygon id="polygon10010" opacity="0.84016395" style="enable-background:new;" transform="matrix(4.0353725,0,0,4.0353725,-490.90639,-315.95545)" points="189.52,144.68,190.54,143.66,190.54,140.88,189.52,139.86" fill="#156db8"/></g><g id="g10012"><polygon id="polygon10014" opacity="0.84016395" style="enable-background:new;" transform="matrix(4.0353725,0,0,4.0353725,-462.43757,-315.95545)" points="194.34,139.86,189.52,139.86,190.54,140.88,193.32,140.88" fill="#0e5999"/><polygon id="polygon10016" opacity="0.84016395" style="enable-background:new;" transform="matrix(4.0353725,0,0,4.0353725,-462.43757,-315.95545)" points="194.34,144.68,194.34,139.86,193.32,140.89,193.32,143.66" fill="#1683e1"/><polygon id="polygon10018" opacity="0.84016395" style="enable-background:new;" transform="matrix(4.0353725,0,0,4.0353725,-462.43757,-315.95545)" points="189.52,144.68,194.34,144.68,193.32,143.66,190.54,143.66" fill="#7dc0f9"/><polygon id="polygon10020" opacity="0.84016395" style="enable-background:new;" transform="matrix(4.0353725,0,0,4.0353725,-462.43757,-315.95545)" points="189.52,139.86,189.52,144.68,190.54,143.66,190.54,140.88" fill="#156db8"/></g></g><g id="g10237" style="enable-background:new;" transform="matrix(0.25311793,0,0,0.25311793,58.281998,78.669074)"><rect id="rect10038" height="27.819" width="226" y="-295.95" x="288.07" fill="#55adf7"/><g id="g10040" transform="translate(188.55357,-539.69289)"><polygon id="polygon10042" opacity="0.84016395" style="enable-background:new;" transform="matrix(4.0353725,0,0,4.0353725,-605.11285,-315.95545)" points="189.52,139.86,190.54,140.88,193.32,140.88,194.34,139.86" fill="#004987"/><polygon id="polygon10044" opacity="0.84016395" style="enable-background:new;" transform="matrix(4.0353725,0,0,4.0353725,-605.11285,-315.95545)" points="194.34,139.86,193.32,140.89,193.32,143.66,194.34,144.68" fill="#0a7bdc"/><polygon id="polygon10046" opacity="0.84016395" style="enable-background:new;" transform="matrix(4.0353725,0,0,4.0353725,-605.11285,-315.95545)" points="194.34,144.68,193.32,143.66,190.54,143.66,189.52,144.68" fill="#84c4f9"/><polygon id="polygon10048" opacity="0.84016395" style="enable-background:new;" transform="matrix(4.0353725,0,0,4.0353725,-605.11285,-315.95545)" points="189.52,144.68,190.54,143.66,190.54,140.88,189.52,139.86" fill="#0861ab"/></g><g id="g10050" transform="translate(188.55357,-539.69289)"><polygon id="polygon10052" opacity="0.84016395" style="enable-background:new;" transform="matrix(4.0353725,0,0,4.0353725,-576.31285,-315.95545)" points="189.52,139.86,190.54,140.88,193.32,140.88,194.34,139.86" fill="#0e5999"/><polygon id="polygon10054" opacity="0.84016395" style="enable-background:new;" transform="matrix(4.0353725,0,0,4.0353725,-576.31285,-315.95545)" points="194.34,139.86,193.32,140.89,193.32,143.66,194.34,144.68" fill="#1683e1"/><polygon id="polygon10056" opacity="0.84016395" style="enable-background:new;" transform="matrix(4.0353725,0,0,4.0353725,-576.31285,-315.95545)" points="194.34,144.68,193.32,143.66,190.54,143.66,189.52,144.68" fill="#7dc0f9"/><polygon id="polygon10058" opacity="0.84016395" style="enable-background:new;" transform="matrix(4.0353725,0,0,4.0353725,-576.31285,-315.95545)" points="189.52,144.68,190.54,143.66,190.54,140.88,189.52,139.86" fill="#156db8"/></g><g id="g10060" transform="translate(188.55357,-539.69289)"><polygon id="polygon10062" opacity="0.84016395" style="enable-background:new;" transform="matrix(4.0353725,0,0,4.0353725,-547.51285,-315.95545)" points="189.52,139.86,190.54,140.88,193.32,140.88,194.34,139.86" fill="#0e5999"/><polygon id="polygon10064" opacity="0.84016395" style="enable-background:new;" transform="matrix(4.0353725,0,0,4.0353725,-547.51285,-315.95545)" points="194.34,139.86,193.32,140.89,193.32,143.66,194.34,144.68" fill="#1683e1"/><polygon id="polygon10066" opacity="0.84016395" style="enable-background:new;" transform="matrix(4.0353725,0,0,4.0353725,-547.51285,-315.95545)" points="194.34,144.68,193.32,143.66,190.54,143.66,189.52,144.68" fill="#7dc0f9"/><polygon id="polygon10068" opacity="0.84016395" style="enable-background:new;" transform="matrix(4.0353725,0,0,4.0353725,-547.51285,-315.95545)" points="189.52,144.68,190.54,143.66,190.54,140.88,189.52,139.86" fill="#156db8"/></g><g id="g10070" transform="translate(188.55357,-539.69289)"><polygon id="polygon10072" opacity="0.84016395" style="enable-background:new;" transform="matrix(4.0353725,0,0,4.0353725,-519.98167,-315.95545)" points="189.52,139.86,190.54,140.88,193.32,140.88,194.34,139.86" fill="#0e5999"/><polygon id="polygon10074" opacity="0.84016395" style="enable-background:new;" transform="matrix(4.0353725,0,0,4.0353725,-519.98167,-315.95545)" points="194.34,139.86,193.32,140.89,193.32,143.66,194.34,144.68" fill="#1683e1"/><polygon id="polygon10076" opacity="0.84016395" style="enable-background:new;" transform="matrix(4.0353725,0,0,4.0353725,-519.98167,-315.95545)" points="194.34,144.68,193.32,143.66,190.54,143.66,189.52,144.68" fill="#7dc0f9"/><polygon id="polygon10078" opacity="0.84016395" style="enable-background:new;" transform="matrix(4.0353725,0,0,4.0353725,-519.98167,-315.95545)" points="189.52,144.68,190.54,143.66,190.54,140.88,189.52,139.86" fill="#156db8"/></g><g id="g10080" transform="translate(188.55357,-539.69289)"><polygon id="polygon10082" opacity="0.84016395" style="enable-background:new;" transform="matrix(4.0353725,0,0,4.0353725,-490.90639,-315.95545)" points="194.34,139.86,189.52,139.86,190.54,140.88,193.32,140.88" fill="#0e5999"/><polygon id="polygon10084" opacity="0.84016395" style="enable-background:new;" transform="matrix(4.0353725,0,0,4.0353725,-490.90639,-315.95545)" points="194.34,144.68,194.34,139.86,193.32,140.89,193.32,143.66" fill="#1683e1"/><polygon id="polygon10086" opacity="0.84016395" style="enable-background:new;" transform="matrix(4.0353725,0,0,4.0353725,-490.90639,-315.95545)" points="189.52,144.68,194.34,144.68,193.32,143.66,190.54,143.66" fill="#7dc0f9"/><polygon id="polygon10088" opacity="0.84016395" style="enable-background:new;" transform="matrix(4.0353725,0,0,4.0353725,-490.90639,-315.95545)" points="189.52,139.86,189.52,144.68,190.54,143.66,190.54,140.88" fill="#156db8"/></g><g id="g10090" transform="translate(188.55357,-539.69289)"><polygon id="polygon10092" opacity="0.84016395" style="enable-background:new;" transform="matrix(4.0353725,0,0,4.0353725,-462.43757,-315.95545)" points="193.32,140.88,194.34,139.86,189.52,139.86,190.54,140.88" fill="#0e5999"/><polygon id="polygon10094" opacity="0.84016395" style="enable-background:new;" transform="matrix(4.0353725,0,0,4.0353725,-462.43757,-315.95545)" points="193.32,143.66,194.34,144.68,194.34,139.86,193.32,140.89" fill="#1683e1"/><polygon id="polygon10096" opacity="0.84016395" style="enable-background:new;" transform="matrix(4.0353725,0,0,4.0353725,-462.43757,-315.95545)" points="190.54,143.66,189.52,144.68,194.34,144.68,193.32,143.66" fill="#7dc0f9"/><polygon id="polygon10098" opacity="0.84016395" style="enable-background:new;" transform="matrix(4.0353725,0,0,4.0353725,-462.43757,-315.95545)" points="190.54,140.88,189.52,139.86,189.52,144.68,190.54,143.66" fill="#156db8"/></g><g id="g10181" transform="translate(160.61425,-539.69289)"><polygon id="polygon10183" opacity="0.84016395" style="enable-background:new;" transform="matrix(4.0353725,0,0,4.0353725,-605.11285,-315.95545)" points="189.52,139.86,190.54,140.88,193.32,140.88,194.34,139.86" fill="#004987"/><polygon id="polygon10185" opacity="0.84016395" style="enable-background:new;" transform="matrix(4.0353725,0,0,4.0353725,-605.11285,-315.95545)" points="194.34,139.86,193.32,140.89,193.32,143.66,194.34,144.68" fill="#0a7bdc"/><polygon id="polygon10187" opacity="0.84016395" style="enable-background:new;" transform="matrix(4.0353725,0,0,4.0353725,-605.11285,-315.95545)" points="194.34,144.68,193.32,143.66,190.54,143.66,189.52,144.68" fill="#84c4f9"/><polygon id="polygon10189" opacity="0.84016395" style="enable-background:new;" transform="matrix(4.0353725,0,0,4.0353725,-605.11285,-315.95545)" points="189.52,144.68,190.54,143.66,190.54,140.88,189.52,139.86" fill="#0861ab"/></g><g id="g10193" transform="translate(132.42849,-539.69289)"><polygon id="polygon10195" opacity="0.84016395" style="enable-background:new;" transform="matrix(4.0353725,0,0,4.0353725,-605.11285,-315.95545)" points="190.54,140.88,193.32,140.88,194.34,139.86,189.52,139.86" fill="#004987"/><polygon id="polygon10197" opacity="0.84016395" style="enable-background:new;" transform="matrix(4.0353725,0,0,4.0353725,-605.11285,-315.95545)" points="193.32,140.89,193.32,143.66,194.34,144.68,194.34,139.86" fill="#0a7bdc"/><polygon id="polygon10199" opacity="0.84016395" style="enable-background:new;" transform="matrix(4.0353725,0,0,4.0353725,-605.11285,-315.95545)" points="193.32,143.66,190.54,143.66,189.52,144.68,194.34,144.68" fill="#84c4f9"/><polygon id="polygon10201" opacity="0.84016395" style="enable-background:new;" transform="matrix(4.0353725,0,0,4.0353725,-605.11285,-315.95545)" points="190.54,143.66,190.54,140.88,189.52,139.86,189.52,144.68" fill="#0861ab"/></g></g><g id="g10334" style="enable-background:new;" transform="matrix(0.25311793,0,0,0.25311793,-3.452713,78.669074)"><rect id="rect10336" height="27.819" width="226" y="-295.95" x="288.07" fill="#55adf7"/><g id="g10338" transform="translate(188.55357,-539.69289)"><polygon id="polygon10340" opacity="0.84016395" style="enable-background:new;" transform="matrix(4.0353725,0,0,4.0353725,-605.11285,-315.95545)" points="189.52,139.86,190.54,140.88,193.32,140.88,194.34,139.86" fill="#004987"/><polygon id="polygon10342" opacity="0.84016395" style="enable-background:new;" transform="matrix(4.0353725,0,0,4.0353725,-605.11285,-315.95545)" points="194.34,139.86,193.32,140.89,193.32,143.66,194.34,144.68" fill="#0a7bdc"/><polygon id="polygon10344" opacity="0.84016395" style="enable-background:new;" transform="matrix(4.0353725,0,0,4.0353725,-605.11285,-315.95545)" points="194.34,144.68,193.32,143.66,190.54,143.66,189.52,144.68" fill="#84c4f9"/><polygon id="polygon10346" opacity="0.84016395" style="enable-background:new;" transform="matrix(4.0353725,0,0,4.0353725,-605.11285,-315.95545)" points="189.52,144.68,190.54,143.66,190.54,140.88,189.52,139.86" fill="#0861ab"/></g><g id="g10348" transform="translate(188.55357,-539.69289)"><polygon id="polygon10350" opacity="0.84016395" style="enable-background:new;" transform="matrix(4.0353725,0,0,4.0353725,-576.31285,-315.95545)" points="189.52,139.86,190.54,140.88,193.32,140.88,194.34,139.86" fill="#0e5999"/><polygon id="polygon10352" opacity="0.84016395" style="enable-background:new;" transform="matrix(4.0353725,0,0,4.0353725,-576.31285,-315.95545)" points="194.34,139.86,193.32,140.89,193.32,143.66,194.34,144.68" fill="#1683e1"/><polygon id="polygon10354" opacity="0.84016395" style="enable-background:new;" transform="matrix(4.0353725,0,0,4.0353725,-576.31285,-315.95545)" points="194.34,144.68,193.32,143.66,190.54,143.66,189.52,144.68" fill="#7dc0f9"/><polygon id="polygon10356" opacity="0.84016395" style="enable-background:new;" transform="matrix(4.0353725,0,0,4.0353725,-576.31285,-315.95545)" points="189.52,144.68,190.54,143.66,190.54,140.88,189.52,139.86" fill="#156db8"/></g><g id="g10358" transform="translate(188.55357,-539.69289)"><polygon id="polygon10360" opacity="0.84016395" style="enable-background:new;" transform="matrix(4.0353725,0,0,4.0353725,-547.51285,-315.95545)" points="189.52,139.86,190.54,140.88,193.32,140.88,194.34,139.86" fill="#0e5999"/><polygon id="polygon10362" opacity="0.84016395" style="enable-background:new;" transform="matrix(4.0353725,0,0,4.0353725,-547.51285,-315.95545)" points="194.34,139.86,193.32,140.89,193.32,143.66,194.34,144.68" fill="#1683e1"/><polygon id="polygon10364" opacity="0.84016395" style="enable-background:new;" transform="matrix(4.0353725,0,0,4.0353725,-547.51285,-315.95545)" points="194.34,144.68,193.32,143.66,190.54,143.66,189.52,144.68" fill="#7dc0f9"/><polygon id="polygon10366" opacity="0.84016395" style="enable-background:new;" transform="matrix(4.0353725,0,0,4.0353725,-547.51285,-315.95545)" points="189.52,144.68,190.54,143.66,190.54,140.88,189.52,139.86" fill="#156db8"/></g><g id="g10368" transform="translate(188.55357,-539.69289)"><polygon id="polygon10370" opacity="0.84016395" style="enable-background:new;" transform="matrix(4.0353725,0,0,4.0353725,-519.98167,-315.95545)" points="189.52,139.86,190.54,140.88,193.32,140.88,194.34,139.86" fill="#0e5999"/><polygon id="polygon10372" opacity="0.84016395" style="enable-background:new;" transform="matrix(4.0353725,0,0,4.0353725,-519.98167,-315.95545)" points="194.34,139.86,193.32,140.89,193.32,143.66,194.34,144.68" fill="#1683e1"/><polygon id="polygon10374" opacity="0.84016395" style="enable-background:new;" transform="matrix(4.0353725,0,0,4.0353725,-519.98167,-315.95545)" points="194.34,144.68,193.32,143.66,190.54,143.66,189.52,144.68" fill="#7dc0f9"/><polygon id="polygon10376" opacity="0.84016395" style="enable-background:new;" transform="matrix(4.0353725,0,0,4.0353725,-519.98167,-315.95545)" points="189.52,144.68,190.54,143.66,190.54,140.88,189.52,139.86" fill="#156db8"/></g><g id="g10378" transform="translate(188.55357,-539.69289)"><polygon id="polygon10380" opacity="0.84016395" style="enable-background:new;" transform="matrix(4.0353725,0,0,4.0353725,-490.90639,-315.95545)" points="194.34,139.86,189.52,139.86,190.54,140.88,193.32,140.88" fill="#0e5999"/><polygon id="polygon10382" opacity="0.84016395" style="enable-background:new;" transform="matrix(4.0353725,0,0,4.0353725,-490.90639,-315.95545)" points="194.34,144.68,194.34,139.86,193.32,140.89,193.32,143.66" fill="#1683e1"/><polygon id="polygon10384" opacity="0.84016395" style="enable-background:new;" transform="matrix(4.0353725,0,0,4.0353725,-490.90639,-315.95545)" points="189.52,144.68,194.34,144.68,193.32,143.66,190.54,143.66" fill="#7dc0f9"/><polygon id="polygon10386" opacity="0.84016395" style="enable-background:new;" transform="matrix(4.0353725,0,0,4.0353725,-490.90639,-315.95545)" points="189.52,139.86,189.52,144.68,190.54,143.66,190.54,140.88" fill="#156db8"/></g><g id="g10388" transform="translate(188.55357,-539.69289)"><polygon id="polygon10390" opacity="0.84016395" style="enable-background:new;" transform="matrix(4.0353725,0,0,4.0353725,-462.43757,-315.95545)" points="193.32,140.88,194.34,139.86,189.52,139.86,190.54,140.88" fill="#0e5999"/><polygon id="polygon10392" opacity="0.84016395" style="enable-background:new;" transform="matrix(4.0353725,0,0,4.0353725,-462.43757,-315.95545)" points="193.32,143.66,194.34,144.68,194.34,139.86,193.32,140.89" fill="#1683e1"/><polygon id="polygon10394" opacity="0.84016395" style="enable-background:new;" transform="matrix(4.0353725,0,0,4.0353725,-462.43757,-315.95545)" points="190.54,143.66,189.52,144.68,194.34,144.68,193.32,143.66" fill="#7dc0f9"/><polygon id="polygon10396" opacity="0.84016395" style="enable-background:new;" transform="matrix(4.0353725,0,0,4.0353725,-462.43757,-315.95545)" points="190.54,140.88,189.52,139.86,189.52,144.68,190.54,143.66" fill="#156db8"/></g><g id="g10398" transform="translate(160.61425,-539.69289)"><polygon id="polygon10400" opacity="0.84016395" style="enable-background:new;" transform="matrix(4.0353725,0,0,4.0353725,-605.11285,-315.95545)" points="189.52,139.86,190.54,140.88,193.32,140.88,194.34,139.86" fill="#004987"/><polygon id="polygon10402" opacity="0.84016395" style="enable-background:new;" transform="matrix(4.0353725,0,0,4.0353725,-605.11285,-315.95545)" points="194.34,139.86,193.32,140.89,193.32,143.66,194.34,144.68" fill="#0a7bdc"/><polygon id="polygon10404" opacity="0.84016395" style="enable-background:new;" transform="matrix(4.0353725,0,0,4.0353725,-605.11285,-315.95545)" points="194.34,144.68,193.32,143.66,190.54,143.66,189.52,144.68" fill="#84c4f9"/><polygon id="polygon10406" opacity="0.84016395" style="enable-background:new;" transform="matrix(4.0353725,0,0,4.0353725,-605.11285,-315.95545)" points="189.52,144.68,190.54,143.66,190.54,140.88,189.52,139.86" fill="#0861ab"/></g><g id="g10408" transform="translate(132.42849,-539.69289)"><polygon id="polygon10410" opacity="0.84016395" style="enable-background:new;" transform="matrix(4.0353725,0,0,4.0353725,-605.11285,-315.95545)" points="190.54,140.88,193.32,140.88,194.34,139.86,189.52,139.86" fill="#004987"/><polygon id="polygon10412" opacity="0.84016395" style="enable-background:new;" transform="matrix(4.0353725,0,0,4.0353725,-605.11285,-315.95545)" points="193.32,140.89,193.32,143.66,194.34,144.68,194.34,139.86" fill="#0a7bdc"/><polygon id="polygon10414" opacity="0.84016395" style="enable-background:new;" transform="matrix(4.0353725,0,0,4.0353725,-605.11285,-315.95545)" points="193.32,143.66,190.54,143.66,189.52,144.68,194.34,144.68" fill="#84c4f9"/><polygon id="polygon10416" opacity="0.84016395" style="enable-background:new;" transform="matrix(4.0353725,0,0,4.0353725,-605.11285,-315.95545)" points="190.54,143.66,190.54,140.88,189.52,139.86,189.52,144.68" fill="#0861ab"/></g></g><g id="g14243" style="enable-background:new;" transform="matrix(0.25311793,0,0,0.25311793,58.281998,78.669074)"><rect id="rect8764-5" style="enable-background:new;" height="24.354" width="15.457" y="-200.36" x="453.23" fill="#505050"/><rect id="rect6106-7" style="enable-background:new;" transform="matrix(0,1,-1,0,0,0)" height="15.468" width="14.721" y="-468.7" x="-195.54" fill="#0000f7"/></g><g id="g14302" style="enable-background:new;" transform="matrix(0.25311793,0,0,0.25311793,52.495001,77.437285)"><rect id="rect8764-5-5" style="enable-background:new;" height="24.354" width="15.457" y="69.265" x="-97.758" fill="#505050"/><rect id="rect6106-7-6" style="enable-background:new;" transform="matrix(0,1,-1,0,0,0)" height="15.468" width="14.721" y="82.296" x="74.082" fill="#e6e6e6"/></g><g id="g4265" style="enable-background:new;" transform="translate(-63.970902,87.725014)"><path id="path6010-1" fill="#666" d="m221.82-19.778c0-0.59104-0.47269-1.0779-1.0914-1.1668v-0.01825h-4.4111c-0.71449,0-1.2952,0.53041-1.2952,1.1856,0,0.65521,0.57944,1.1856,1.2952,1.1856h4.4111v-0.01825c0.61803-0.09007,1.0914-0.57692,1.0914-1.168z"/><path id="path14215" fill="#666" d="m221.82-7.0693c0-0.59104-0.47269-1.0779-1.0914-1.1668v-0.01825h-4.4111c-0.71449,0-1.2952,0.53041-1.2952,1.1856,0,0.65521,0.57944,1.1856,1.2952,1.1856h4.4111v-0.01825c0.61803-0.09007,1.0914-0.57692,1.0914-1.168z"/><path id="path14217" fill="#666" d="m235.89-19.778c0-0.59104-0.47268-1.0779-1.0914-1.1668v-0.01825h-4.4111c-0.7145,0-1.2952,0.53041-1.2952,1.1856,0,0.65521,0.57944,1.1856,1.2952,1.1856h4.4111v-0.01825c0.61803-0.09007,1.0914-0.57692,1.0914-1.168z"/><path id="path14219" fill="#666" d="m235.89-7.0693c0-0.59104-0.47268-1.0779-1.0914-1.1668v-0.01825h-4.4111c-0.7145,0-1.2952,0.53041-1.2952,1.1856,0,0.65521,0.57944,1.1856,1.2952,1.1856h4.4111v-0.01825c0.61803-0.09007,1.0914-0.57692,1.0914-1.168z"/><rect id="rect6112-4" height="17.355" width="16.971" y="-21.845" x="216.91" fill="#8c8c8c"/><path id="path6114-6" fill="#404040" d="m233.5-19.404c0,0.85289-0.69151,1.5454-1.5464,1.5454-0.85187,0-1.5444-0.68946-1.5444-1.5454,0-0.84982,0.68947-1.5454,1.5444-1.5454,0.85493,0.0031,1.5464,0.69661,1.5464,1.5454z"/><path id="path6116-8" fill="#404040" d="m220.52-19.404c0,0.85289-0.69151,1.5454-1.5454,1.5454-0.85493,0-1.5454-0.68946-1.5454-1.5454,0-0.84982,0.68947-1.5454,1.5454-1.5454,0.85493,0.0031,1.5454,0.69661,1.5454,1.5454z"/><circle id="circle6118-9" d="m 171.78799,80.100998 c 0,0.834502 -0.67649,1.511 -1.511,1.511 -0.8345,0 -1.511,-0.676498 -1.511,-1.511 0,-0.834502 0.6765,-1.511 1.511,-1.511 0.83451,0 1.511,0.676498 1.511,1.511 z" cx="170.28" cy="80.101" transform="matrix(1.0214251,0,0,1.0214251,45.046426,-88.233995)" r="1.511" fill="#404040"/><circle id="circle6120-8" d="m 184.502,80.100998 c 0,0.834502 -0.6765,1.511 -1.511,1.511 -0.8345,0 -1.511,-0.676498 -1.511,-1.511 0,-0.834502 0.6765,-1.511 1.511,-1.511 0.8345,0 1.511,0.676498 1.511,1.511 z" cx="182.99" cy="80.101" transform="matrix(1.0214251,0,0,1.0214251,45.046426,-88.233995)" r="1.511" fill="#404040"/><circle id="circle6122-3" d="m 181.165,73.491997 c 0,2.711166 -2.19784,4.909 -4.909,4.909 -2.71117,0 -4.909,-2.197834 -4.909,-4.909 0,-2.711166 2.19783,-4.909 4.909,-4.909 2.71116,0 4.909,2.197834 4.909,4.909 z" cx="176.26" cy="73.492" transform="matrix(1.0214251,0,0,1.0214251,45.354025,-88.233995)" r="4.909" fill="#404040"/></g><g id="g4353" style="enable-background:new;" transform="translate(0,10.633983)"><rect id="MicroUSB" style="enable-background:new;" transform="translate(-63.970902,87.724998)" height="22.73" width="14.635" y="-23.337" x="67.1" fill="#999"/><g id="g5520" style="enable-background:new;" transform="matrix(0,-0.59099447,0.59099447,0,-2.2130381,86.439621)">
		<path id="path5522" fill="#4d4d4d" d="m30.074,21.386-2.64-1.524v1.134h-13.966c0.515-0.416,1.008-0.965,1.493-1.505,0.802-0.894,1.631-1.819,2.338-1.819h2.277c0.141,0.521,0.597,0.913,1.163,0.913,0.677,0,1.226-0.548,1.226-1.225s-0.549-1.226-1.226-1.226c-0.566,0-1.022,0.392-1.163,0.914h-2.277c-0.985,0-1.868,0.984-2.803,2.026-0.744,0.83-1.509,1.675-2.255,1.922h-1.82c-0.185-1.02-1.073-1.794-2.145-1.794-1.206,0-2.184,0.978-2.184,2.184,0,1.207,0.978,2.184,2.184,2.184,1.072,0,1.96-0.774,2.145-1.794h5.196c0.746,0.247,1.511,1.093,2.254,1.922,0.934,1.043,1.817,2.026,2.802,2.026h2.142v0.985h2.595v-2.595h-2.595v0.985h-2.142c-0.707,0-1.536-0.925-2.337-1.818-0.485-0.541-0.978-1.09-1.493-1.506h10.592v1.134l2.639-1.523z"/>
	</g></g><rect id="rect4358" style="enable-background:new;" transform="translate(0,1.9017882e-5)" height="41.329" width="57.26" y="18.264" x="-2.3557" fill="#000"/><rect id="rect4370" style="enable-background:new;" transform="translate(0,1.9017882e-5)" height="45.213" width="39.26" y="100.02" x="52.054" fill="#999"/><g id="g3447" style="enable-background:new;" transform="translate(0,1.9017882e-5)"><rect id="rect4526" style="enable-background:new;" height="6.1645" width="3.2615" y="6.937" x="10.659" fill="#505050"/><rect id="rect4528" style="enable-background:new;" transform="matrix(0,1,-1,0,0,0)" height="3.2639" width="3.7262" y="-13.921" x="8.1562" fill="#008000"/></g><g id="g5326" style="enable-background:new;" transform="translate(22.725645,1.9017882e-5)"><rect id="rect5328" style="enable-background:new;" height="6.1645" width="3.2615" y="6.937" x="10.659" fill="#505050"/><rect id="rect5330" style="enable-background:new;" transform="matrix(0,1,-1,0,0,0)" height="3.2639" width="3.7262" y="-13.921" x="8.1562" fill="#ffa700"/></g><g id="g3431" style="enable-background:new;" transform="translate(0,1.9017882e-5)"><rect id="rect3429" height="2.2748" width="4.5354" y="139.35" x="27.697" fill="#666"/><g id="g9337" transform="matrix(0.98974836,0,0,0.95396389,-0.28582241,5.9145572)"><rect id="rect6264-2" style="enable-background:new;" transform="translate(-63.970902,87.724998)" height="25.699" width="38.059" y="26.948" x="67.153"/><rect id="rect6266-3" style="enable-background:new;" transform="translate(-63.970902,87.724998)" height="26.743" width="7.8874" y="26.426" x="63.971"/></g></g><use id="use3451" style="enable-background:new;" xlink:href="#g3447" transform="translate(11.414369,1.9017882e-5)" height="151.20001" width="199.42688" y="0" x="0"/><text id="text3151" style="writing-mode:lr-tb;text-anchor:start;text-align:start;" font-weight="normal" xml:space="preserve" font-size="5.60000038px" font-style="normal" font-stretch="normal" font-variant="normal" y="22.721256" x="118.82306" font-family="Droid Sans" line-height="100%" fill="#ffffff"><tspan id="tspan3153" style="writing-mode:lr-tb;text-anchor:start;text-align:start;" font-weight="normal" font-size="5.60000038px" font-style="normal" line-height="100%" font-stretch="normal" font-variant="normal" y="22.721256" x="118.82306" font-family="Droid Sans">Digital I/O</tspan></text>
<text id="text3161" style="writing-mode:lr-tb;text-anchor:start;text-align:start;" line-height="100%" font-weight="normal" font-size="4.80000019px" font-style="normal" font-stretch="normal" font-variant="normal" y="24.26874" x="170.29312" font-family="Droid Sans" xml:space="preserve" fill="#ffffff"><tspan id="tspan3163" style="writing-mode:lr-tb;text-anchor:start;text-align:start;" font-weight="normal" font-size="4.80000019px" font-style="normal" line-height="100%" font-stretch="normal" font-variant="normal" y="24.26874" x="170.29312" font-family="Droid Sans">LED</tspan></text>
<text id="text3165" style="writing-mode:lr-tb;text-anchor:start;text-align:start;" font-weight="normal" xml:space="preserve" transform="scale(0.93172948,1.0732729)" font-style="normal" font-stretch="normal" font-size="4.15888786px" font-variant="normal" y="86.057014" x="27.301571" font-family="Droid Sans" line-height="100%" fill="#ffffff"><tspan id="tspan3167" style="writing-mode:lr-tb;text-anchor:start;text-align:start;" font-weight="normal" font-size="4.15888786px" font-style="normal" line-height="100%" font-stretch="normal" font-variant="normal" y="86.057014" x="27.301571" font-family="Droid Sans">PWR</tspan></text>
<text id="text3169" style="writing-mode:lr-tb;text-anchor:start;text-align:start;" line-height="100%" font-weight="normal" font-size="5.60000038px" font-style="normal" font-stretch="normal" font-variant="normal" y="128.31113" x="106.56316" font-family="Droid Sans" xml:space="preserve" fill="#ffffff"><tspan id="tspan3171" style="writing-mode:lr-tb;text-anchor:start;text-align:start;" font-weight="normal" font-size="5.60000038px" font-style="normal" line-height="100%" font-stretch="normal" font-variant="normal" y="128.31113" x="106.56316" font-family="Droid Sans">Power</tspan></text>
<text id="text3173" style="writing-mode:lr-tb;text-anchor:start;text-align:start;" font-weight="normal" xml:space="preserve" font-size="5.60000038px" font-style="normal" font-stretch="normal" font-variant="normal" y="130.8255" x="155.27025" font-family="Droid Sans" line-height="100%" fill="#ffffff"><tspan id="tspan3175" style="writing-mode:lr-tb;text-anchor:start;text-align:start;" font-weight="normal" font-size="5.60000038px" font-style="normal" line-height="100%" font-stretch="normal" font-variant="normal" y="130.8255" x="155.27025" font-family="Droid Sans">Analog In</tspan></text>
<text id="text3177" style="writing-mode:lr-tb;text-anchor:start;text-align:start;" line-height="100%" font-weight="normal" transform="scale(1.0689727,0.93547758)" font-style="normal" font-stretch="normal" font-size="6.58769894px" font-variant="normal" y="126.27583" x="113.81044" font-family="Droid Sans Mono" xml:space="preserve" fill="#ffffff"><tspan id="tspan3179" style="writing-mode:lr-tb;text-anchor:start;text-align:start;" font-weight="normal" font-size="6.58769894px" font-style="normal" line-height="100%" font-stretch="normal" font-variant="normal" y="126.27583" x="113.81044" font-family="Droid Sans Mono">www.netduino.com</tspan></text>
<text id="text3265" style="writing-mode:lr-tb;text-anchor:start;text-align:start;" font-weight="normal" xml:space="preserve" font-size="8.00000095px" font-style="normal" font-stretch="normal" font-variant="normal" y="147.92143" x="14.32243" font-family="Droid Sans" line-height="100%" fill="#000000"><tspan id="tspan3267" style="writing-mode:lr-tb;text-anchor:start;text-align:start;" font-weight="normal" font-size="4.80000019px" font-style="normal" line-height="100%" font-stretch="normal" font-variant="normal" y="147.92143" x="14.32243" font-family="Droid Sans" fill="#ffffff">7.5-12V</tspan></text>
<text id="text3269" style="writing-mode:lr-tb;text-anchor:start;text-align:start;" font-weight="normal" xml:space="preserve" font-size="4.80000019px" font-style="normal" font-stretch="normal" font-variant="normal" y="75.744781" x="171.54352" font-family="Droid Sans" line-height="100%" fill="#ffffff"><tspan id="tspan3271" style="writing-mode:lr-tb;text-anchor:start;text-align:start;" font-weight="normal" font-size="4.80000019px" font-style="normal" line-height="100%" font-stretch="normal" font-variant="normal" y="75.744781" x="171.54352" font-family="Droid Sans">SW1</tspan></text>
<g id="g10385" font-size="5.60000038px" font-family="Droid Sans" font-style="normal" font-stretch="normal" font-variant="normal" font-weight="normal" fill="#ffffff"><text id="text10006" style="writing-mode:lr-tb;text-anchor:start;text-align:start;" transform="matrix(0,-1,1,0,0,0)" line-height="125%" xml:space="preserve" y="74.500298" x="-21.779711"><tspan id="tspan10008" y="74.500298" x="-21.779711">Aref</tspan></text>
<text id="text10010" style="writing-mode:lr-tb;text-anchor:start;text-align:start;" transform="matrix(0,-1,1,0,0,0)" line-height="125%" xml:space="preserve" y="81.763489" x="-21.738562"><tspan id="tspan10012" y="81.763489" x="-21.738562">Gnd</tspan></text>
<text id="text10014" style="writing-mode:lr-tb;text-anchor:start;text-align:start;" transform="matrix(0,-1,1,0,0,0)" line-height="125%" xml:space="preserve" y="89.064697" x="-17.477041"><tspan id="tspan10016" y="89.064697" x="-17.477041">13</tspan></text>
<text id="text10018" style="writing-mode:lr-tb;text-anchor:start;text-align:start;" transform="matrix(0,-1,1,0,0,0)" line-height="125%" xml:space="preserve" y="96.330597" x="-17.474758"><tspan id="tspan10020" y="96.330597" x="-17.474758">12</tspan></text>
<text id="text10022" style="writing-mode:lr-tb;text-anchor:start;text-align:start;" transform="matrix(0,-1,1,0,0,0)" line-height="125%" xml:space="preserve" y="103.59685" x="-17.457941"><tspan id="tspan10024" y="103.59685" x="-17.457941">11</tspan></text>
<text id="text10026" style="writing-mode:lr-tb;text-anchor:start;text-align:start;" transform="matrix(0,-1,1,0,0,0)" line-height="125%" xml:space="preserve" y="110.78382" x="-17.459995"><tspan id="tspan10028" y="110.78382" x="-17.459995">10</tspan></text>
<text id="text10030" style="writing-mode:lr-tb;text-anchor:start;text-align:start;" transform="matrix(0,-1,1,0,0,0)" line-height="125%" xml:space="preserve" y="118.06225" x="-14.369856"><tspan id="tspan10032" y="118.06225" x="-14.369856">9</tspan></text>
<text id="text10034" style="writing-mode:lr-tb;text-anchor:start;text-align:start;" transform="matrix(0,-1,1,0,0,0)" line-height="125%" xml:space="preserve" y="125.35255" x="-14.387992"><tspan id="tspan10036" y="125.35255" x="-14.387992">8</tspan></text>
</g><g id="g10403" font-size="5.60000038px" font-family="Droid Sans" font-style="normal" font-stretch="normal" font-variant="normal" font-weight="normal" fill="#ffffff"><text id="text10038" style="writing-mode:lr-tb;text-anchor:start;text-align:start;" transform="matrix(0,-1,1,0,0,0)" line-height="125%" xml:space="preserve" y="136.56058" x="-14.496401"><tspan id="tspan10040" y="136.56058" x="-14.496401">7</tspan></text>
<text id="text10042" style="writing-mode:lr-tb;text-anchor:start;text-align:start;" transform="matrix(0,-1,1,0,0,0)" line-height="125%" xml:space="preserve" y="143.89989" x="-14.487597"><tspan id="tspan10044" y="143.89989" x="-14.487597">6</tspan></text>
<text id="text10046" style="writing-mode:lr-tb;text-anchor:start;text-align:start;" transform="matrix(0,-1,1,0,0,0)" line-height="125%" xml:space="preserve" y="151.0045" x="-14.509706"><tspan id="tspan10048" y="151.0045" x="-14.509706">5</tspan></text>
<text id="text10050" style="writing-mode:lr-tb;text-anchor:start;text-align:start;" transform="matrix(0,-1,1,0,0,0)" line-height="125%" xml:space="preserve" y="158.18883" x="-14.496066"><tspan id="tspan10052" y="158.18883" x="-14.496066">4</tspan></text>
<text id="text10054" style="writing-mode:lr-tb;text-anchor:start;text-align:start;" transform="matrix(0,-1,1,0,0,0)" line-height="125%" xml:space="preserve" y="165.47093" x="-14.504219"><tspan id="tspan10056" y="165.47093" x="-14.504219">3</tspan></text>
<text id="text10058" style="writing-mode:lr-tb;text-anchor:start;text-align:start;" transform="matrix(0,-1,1,0,0,0)" line-height="125%" xml:space="preserve" y="172.49138" x="-14.502208"><tspan id="tspan10060" y="172.49138" x="-14.502208">2</tspan></text>
<text id="text10062" style="writing-mode:lr-tb;text-anchor:start;text-align:start;" transform="matrix(0,-1,1,0,0,0)" line-height="125%" xml:space="preserve" y="179.81573" x="-14.49183"><tspan id="tspan10064" y="179.81573" x="-14.49183">1</tspan></text>
<text id="text10066" style="writing-mode:lr-tb;text-anchor:start;text-align:start;" transform="matrix(0,-1,1,0,0,0)" line-height="125%" xml:space="preserve" y="187.09825" x="-14.49796"><tspan id="tspan10068" y="187.09825" x="-14.49796">0</tspan></text>
</g><g id="g10433" font-size="5.60000038px" font-family="Droid Sans" font-style="normal" font-stretch="normal" font-variant="normal" font-weight="normal" fill="#ffffff"><text id="text10082" style="writing-mode:lr-tb;text-anchor:start;text-align:start;" transform="matrix(0,-1,1,0,0,0)" line-height="125%" xml:space="preserve" y="100.63924" x="-139.58516"><tspan id="tspan10084" y="100.63924" x="-139.58516">/RESET</tspan></text>
<text id="text10086" style="writing-mode:lr-tb;text-anchor:start;text-align:start;" transform="matrix(0,-1,1,0,0,0)" line-height="125%" xml:space="preserve" y="107.87072" x="-139.60316"><tspan id="tspan10088" y="107.87072" x="-139.60316">3V3</tspan></text>
<text id="text10090" style="writing-mode:lr-tb;text-anchor:start;text-align:start;" transform="matrix(0,-1,1,0,0,0)" line-height="125%" xml:space="preserve" y="115.25291" x="-139.59904"><tspan id="tspan10092" y="115.25291" x="-139.59904">5V</tspan></text>
<text id="text10094" style="writing-mode:lr-tb;text-anchor:start;text-align:start;" transform="matrix(0,-1,1,0,0,0)" line-height="125%" xml:space="preserve" y="136.82454" x="-139.59499"><tspan id="tspan10096" y="136.82454" x="-139.59499">Vin</tspan></text>
<text id="text10010-4" style="enable-background:new;writing-mode:lr-tb;text-anchor:start;text-align:start;" transform="matrix(0,-1,1,0,0,0)" line-height="125%" xml:space="preserve" y="122.25671" x="-139.58908"><tspan id="tspan10012-0" y="122.25671" x="-139.58908">Gnd</tspan></text>
<text id="text10170" style="enable-background:new;writing-mode:lr-tb;text-anchor:start;text-align:start;" xml:space="preserve" transform="matrix(0,-1,1,0,0,0)" y="129.59967" x="-139.58842" line-height="125%"><tspan id="tspan10172" x="-139.58842" y="129.59967">Gnd</tspan></text>
</g><g id="g10279" style="enable-background:new;" font-weight="normal" font-size="5.60000038px" font-style="normal" font-stretch="normal" font-variant="normal" font-family="Droid Sans" fill="#ffffff"><text id="text10046-9" style="enable-background:new;writing-mode:lr-tb;text-anchor:start;text-align:start;" transform="matrix(0,-1,1,0,0,0)" line-height="125%" xml:space="preserve" y="187.17484" x="-139.59985"><tspan id="tspan10048-4" y="187.17484" x="-139.59985">5</tspan></text>
<text id="text10050-8" style="enable-background:new;writing-mode:lr-tb;text-anchor:start;text-align:start;" transform="matrix(0,-1,1,0,0,0)" line-height="125%" xml:space="preserve" y="179.88805" x="-139.58974"><tspan id="tspan10052-8" y="179.88805" x="-139.58974">4</tspan></text>
<text id="text10054-2" style="enable-background:new;writing-mode:lr-tb;text-anchor:start;text-align:start;" transform="matrix(0,-1,1,0,0,0)" line-height="125%" xml:space="preserve" y="172.61165" x="-139.5992"><tspan id="tspan10056-4" y="172.61165" x="-139.5992">3</tspan></text>
<text id="text10058-5" style="enable-background:new;writing-mode:lr-tb;text-anchor:start;text-align:start;" transform="matrix(0,-1,1,0,0,0)" line-height="125%" xml:space="preserve" y="165.32823" x="-139.59306"><tspan id="tspan10060-5" y="165.32823" x="-139.59306">2</tspan></text>
<text id="text10062-1" style="enable-background:new;writing-mode:lr-tb;text-anchor:start;text-align:start;" transform="matrix(0,-1,1,0,0,0)" line-height="125%" xml:space="preserve" y="158.04451" x="-139.58559"><tspan id="tspan10064-7" y="158.04451" x="-139.58559">1</tspan></text>
<text id="text10066-1" style="enable-background:new;writing-mode:lr-tb;text-anchor:start;text-align:start;" transform="matrix(0,-1,1,0,0,0)" line-height="125%" xml:space="preserve" y="150.7635" x="-139.59279"><tspan id="tspan10068-1" y="150.7635" x="-139.59279">0</tspan></text>
</g><g id="g4334" fill="#FFF"><g id="g4512" transform="matrix(0.27246189,0,0,0.27246189,89.908267,-5.0926443)">
	<path id="path4514" d="m312.16,204.01v-7.576h-2.83v-1.014h6.809v1.014h-2.842v7.576h-1.137z"/>
	<path id="path4516" d="m317.26,204.01v-8.59h1.711l2.033,6.082c0.188,0.566,0.324,0.99,0.41,1.271,0.098-0.313,0.25-0.771,0.457-1.377l2.057-5.977h1.529v8.59h-1.096v-7.189l-2.496,7.189h-1.025l-2.484-7.313v7.313h-1.096z"/>
</g><g id="g4306"><path id="path4225" d="m138.23,45.96v-3.6443c0-1.64,1.1452-2.7333,2.6681-2.7333,1.5228,0,2.6681,1.0934,2.6681,2.7333v3.6443h-1.1452v-3.6443c0-0.96323-0.70276-1.64-1.5228-1.64-0.81989,0-1.5228,0.67673-1.5228,1.64v3.6443h-1.1452z"/><path id="path4227" d="m146.59,43.904-0.46851-0.91117,3.0845-1.718c-0.39043-0.39042-0.71578-0.59865-1.4187-0.59865-1.1845,0-2.0434,0.88496-2.0434,2.1605,0,1.2754,0.85893,2.1605,2.0434,2.1605,1.3536,0,1.8612-0.80688,2.0954-1.9523l1.1584,0.14316c-0.13014,1.653-1.4578,2.9025-3.2537,2.9025-1.7311,0-3.2409-1.3276-3.2409-3.2537,0-1.9263,1.5098-3.2539,3.2409-3.2539,1.4576,0,2.4338,0.76801,3.0196,1.9783l-4.2171,2.3427z"/><path id="path4229" d="m155.54,40.806h-2.2388v3.2799c0,0.58582,0.2733,0.78103,0.85894,0.78103h1.3797v1.0932h-1.5358c-1.1713,0-1.8482-0.78085-1.8482-2.0174v-5.7916h1.1452v1.5619h2.2386v1.093z"/><path id="path4231" d="m162.44,36.85v5.8048c0,2.0564-1.3144,3.4361-3.1498,3.4361-2.0304,0-3.2277-1.5619-3.2277-3.4101,0-1.7441,1.4057-3.0977,3.0064-3.0977,0.62486,0,1.2235,0.13014,1.7701,0.44248v1.1975c-0.41645-0.28631-1.0543-0.54659-1.5749-0.54659-1.2363,0-2.0564,0.85893-2.0564,2.1475,0,1.2756,0.85893,2.1735,2.0824,2.1735,1.0934,0,2.0044-0.8329,2.0044-2.5509v-5.5964h1.1454z"/><path id="path4233" d="m168.88,39.713v3.6443c0,1.64-1.1452,2.7333-2.6681,2.7333-1.5228,0-2.6681-1.0934-2.6681-2.7333v-3.6439h1.1452v3.6443c0,0.96323,0.70294,1.64,1.5228,1.64,0.82007,0,1.5228-0.67673,1.5228-1.64v-3.6439h1.1452z"/><path id="path4235" d="m171.28,37.631c0.44248,0,0.68974,0.33837,0.68974,0.68975s-0.24726,0.68975-0.68974,0.68975-0.68975-0.33837-0.68975-0.68975,0.24709-0.68975,0.68975-0.68975zm-0.57263,8.3298v-6.2473h1.1452v6.2473h-1.1452z"/><path id="path4237" d="m173.67,45.96v-3.6443c0-1.64,1.1452-2.7333,2.6681-2.7333,1.5228,0,2.6681,1.0934,2.6681,2.7333v3.6444h-1.148v-3.6443c0-0.96323-0.70294-1.64-1.5228-1.64-0.81989,0-1.5228,0.67673-1.5228,1.64v3.6443h-1.1452z"/><path id="path4239" d="m183.21,39.583c1.7309,0,3.2409,1.3276,3.2409,3.2539s-1.51,3.2537-3.2409,3.2537c-1.7311,0-3.2409-1.3276-3.2409-3.2537,0-1.9263,1.5098-3.2539,3.2409-3.2539zm0,5.4142c1.1845,0,2.0434-0.88496,2.0434-2.1605,0-1.2756-0.85893-2.1605-2.0434-2.1605s-2.0434,0.88496-2.0434,2.1605c0,1.2756,0.85893,2.1605,2.0434,2.1605z"/></g><g id="g4316" transform="translate(0.18867926,-3.5849065)"><path id="path4241" d="m151.55,64.389v-5.7528c0-2.0564,1.3144-3.4361,3.1496-3.4361,2.0304,0,3.2277,1.5619,3.2277,3.4101,0,1.7439-1.4055,3.0975-3.0064,3.0975-0.62467,0-1.2235-0.13014-1.7701-0.44248v-1.1973c0.41645,0.28631,1.0543,0.54659,1.5749,0.54659,1.2365,0,2.0564-0.85911,2.0564-2.1477,0-1.2754-0.85893-2.1734-2.0824-2.1734-1.0932,0-2.0044,0.8329-2.0044,2.5509v5.5446h-1.1452z"/><path id="path4243" d="m159.14,61.577v-9.1106h1.1454v9.1106h-1.1454z"/><path id="path4245" d="m167.08,55.33v3.6441c0,1.64-1.1452,2.7331-2.6681,2.7331-1.5228,0-2.6681-1.0932-2.6681-2.7331v-3.6441h1.1452v3.6441c0,0.96304,0.70295,1.64,1.5228,1.64,0.82007,0,1.5228-0.67692,1.5228-1.64v-3.6441h1.1452z"/><path id="path4247" d="m168.03,60.484h3.2017c0.53376,0,0.74198-0.20804,0.74198-0.59865,0-1.1454-3.9436-0.70294-3.9436-2.8635,0-1.1062,0.76802-1.6918,2.1345-1.6918h2.6943v1.0932h-2.8895c-0.55961,0-0.72879,0.15617-0.74181,0.54659-0.013,1.0804,3.9436,0.62468,3.9436,2.8635,0,1.1843-0.8329,1.7439-1.9393,1.7439h-3.2017v-1.0932z"/></g></g><text id="text3453" style="enable-background:new;letter-spacing:0px;word-spacing:0px;" font-weight="normal" xml:space="preserve" transform="translate(0,1.9017882e-5)" font-style="normal" font-stretch="normal" line-height="125%" font-size="3.20000029px" font-variant="normal" y="4.8589606" x="9.3606682" font-family="Droid Sans" fill="#ffffff"><tspan id="tspan3455" x="9.3606682" y="4.8589606">ACT</tspan></text>
<text id="text3457" style="enable-background:new;letter-spacing:0px;word-spacing:0px;" font-weight="normal" transform="translate(0,1.9017882e-5)" font-style="normal" font-stretch="normal" xml:space="preserve" line-height="125%" font-size="3.20000029px" font-variant="normal" y="4.8589606" x="21.017391" font-family="Droid Sans" fill="#ffffff"><tspan id="tspan3459" y="4.8589606" x="21.017391">100</tspan></text>
<text id="text3461" style="enable-background:new;letter-spacing:0px;word-spacing:0px;" font-weight="normal" transform="translate(0,1.9017882e-5)" font-style="normal" font-stretch="normal" xml:space="preserve" line-height="125%" font-size="3.20000029px" font-variant="normal" y="4.8589606" x="31.975039" font-family="Droid Sans" fill="#ffffff"><tspan id="tspan3463" y="4.8589606" x="31.975039">FDX</tspan></text>
<text id="text3471" style="letter-spacing:0px;word-spacing:0px;" font-weight="normal" xml:space="preserve" font-size="4.00000048px" font-stretch="normal" line-height="125%" font-variant="normal" y="149.02562" x="64.059273" font-family="Droid Sans" font-style="normal" fill="#ffffff"><tspan id="tspan3473" x="64.059273" y="149.02562">MicroSD</tspan></text>
</g></g><rect id="connector0pin" style="enable-background:new;" height="2.773" width="2.774" y="6.0094" x="73.951"/><rect id="connector1pin" style="enable-background:new;" height="2.773" width="2.772" y="6.0094" x="81.029"/><rect id="connector2pin" style="enable-background:new;" height="2.773" width="2.772" y="6.0094" x="88.107"/><rect id="connector3pin" style="enable-background:new;" height="2.773" width="2.774" y="6.0094" x="95.384"/><rect id="connector4pin" style="enable-background:new;" height="2.773" width="2.773" y="6.0094" x="102.66"/><rect id="connector5pin" style="enable-background:new;" height="2.773" width="2.772" y="6.0094" x="109.64"/><rect id="connector6pin" style="enable-background:new;" height="2.773" width="2.773" y="6.0094" x="117.02"/><rect id="connector7pin" style="enable-background:new;" height="2.773" width="2.773" y="6.0094" x="124.19"/><rect id="connector8pin" style="enable-background:new;" height="2.773" width="2.772" y="5.9103" x="135.67"/><rect id="connector9pin" style="enable-background:new;" height="2.773" width="2.773" y="5.9103" x="142.84"/><rect id="connector10pin" style="enable-background:new;" height="2.773" width="2.772" y="5.9103" x="149.82"/><rect id="connector11pin" style="enable-background:new;" height="2.773" width="2.772" y="5.9103" x="157.2"/><rect id="connector12pin" style="enable-background:new;" height="2.773" width="2.774" y="5.9103" x="164.38"/><rect id="connector13pin" style="enable-background:new;" height="2.773" width="2.772" y="5.9103" x="171.45"/><rect id="connector14pin" style="enable-background:new;" height="2.773" width="2.771" y="5.9103" x="178.73"/><rect id="connector15pin" style="enable-background:new;" height="2.773" width="2.774" y="5.9103" x="186.01"/><rect id="connector16pin" style="enable-background:new;" height="2.771" width="2.774" y="142.59" x="99.573"/><rect id="connector17pin" style="enable-background:new;" height="2.771" width="2.774" y="142.59" x="106.87"/><rect id="connector18pin" style="enable-background:new;" height="2.771" width="2.773" y="142.59" x="114.17"/><rect id="connector19pin" style="enable-background:new;" height="2.771" width="2.772" y="142.59" x="121.15"/><rect id="connector20pin" style="enable-background:new;" height="2.771" width="2.774" y="142.59" x="128.52"/><rect id="connector21pin" style="enable-background:new;" height="2.771" width="2.773" y="142.59" x="135.7"/><rect id="connector22pin" style="enable-background:new;" height="2.771" width="2.771" y="142.69" x="149.87"/><rect id="connector23pin" style="enable-background:new;" height="2.771" width="2.773" y="142.69" x="157.14"/><rect id="connector24pin" style="enable-background:new;" height="2.771" width="2.773" y="142.69" x="164.42"/><rect id="connector25pin" style="enable-background:new;" height="2.771" width="2.772" y="142.69" x="171.4"/><rect id="connector26pin" style="enable-background:new;" height="2.771" width="2.772" y="142.69" x="178.77"/><rect id="connector27pin" style="enable-background:new;" height="2.771" width="2.771" y="142.69" x="185.95"/></svg>
