<?xml version="1.0" encoding="utf-8"?>
<!DOCTYPE svg PUBLIC "-//W3C//DTD SVG 1.1//EN" "http://www.w3.org/Graphics/SVG/1.1/DTD/svg11.dtd">
<svg version="1.2" baseProfile="tiny" id="Layer_1" xmlns="http://www.w3.org/2000/svg" xmlns:xlink="http://www.w3.org/1999/xlink"
	 x="0px" y="0px" width="0.780805556in" height="2.58148611in" viewBox="0 0 56.218 185.867" xml:space="preserve">
<rect id="connector0pin" x="24.789" y="177.611" fill="#8C8C8C" width="2.999" height="8.256"/>
<rect id="connector1pin" x="30.955" y="177.611" fill="#8C8C8C" width="3" height="8.256"/>
<rect id="connector0terminal" x="24.723" y="185.308" fill="#8C8C8C" width="2.999" height="0.56"/>
<rect id="connector1terminal" x="30.955" y="185.308" fill="#8C8C8C" width="3" height="0.56"/>
<g id="breadboard">
	<rect fill="#D2F3FF" width="56.218" height="56.046"/>
	<rect y="56.046" fill="#717170" width="56.218" height="1.957"/>
	<rect y="58.003" fill="#F0D9C2" width="56.218" height="5.951"/>
	<rect y="63.819" fill="#A56549" width="56.218" height="1.229"/>
	<g>
		<polygon fill="#FFFFFF" points="12.987,56.046 7.356,56.046 46.172,0 51.803,0 		"/>
		<polygon fill="#FFFFFF" points="17.403,56.046 15.604,56.046 54.42,0 56.218,0 		"/>
	</g>
	<g>
		<rect x="49.269" y="58.003" fill="#474747" width="3.059" height="4.251"/>
		<rect x="42.787" y="58.003" fill="#474747" width="3.059" height="4.251"/>
		<rect x="36.304" y="58.003" fill="#474747" width="3.059" height="4.251"/>
		<rect x="23.339" y="58.003" fill="#474747" width="3.058" height="4.251"/>
		<rect x="29.822" y="58.003" fill="#474747" width="3.059" height="4.251"/>
		<rect x="16.856" y="58.003" fill="#474747" width="3.058" height="4.251"/>
		<rect x="10.374" y="58.003" fill="#474747" width="3.058" height="4.251"/>
		<rect x="3.892" y="58.003" fill="#474747" width="3.058" height="4.251"/>
	</g>
	<path fill="none" stroke="#000000" stroke-width="3" d="M5.42,63.677c0,21.28,20.868,8.114,20.868,27.947v85.987"/>
	<path fill="none" stroke="#FF0000" stroke-width="3" d="M50.912,63.821c0,21.28-18.457,7.97-18.457,27.803v85.987"/>
</g>
</svg>
