<?xml version="1.0" encoding="UTF-8" standalone="no"?>
<svg
   xmlns:dc="http://purl.org/dc/elements/1.1/"
   xmlns:cc="http://creativecommons.org/ns#"
   xmlns:rdf="http://www.w3.org/1999/02/22-rdf-syntax-ns#"
   xmlns:svg="http://www.w3.org/2000/svg"
   xmlns="http://www.w3.org/2000/svg"
   xmlns:sodipodi="http://sodipodi.sourceforge.net/DTD/sodipodi-0.dtd"
   xmlns:inkscape="http://www.inkscape.org/namespaces/inkscape"
   width="0.4in"
   x="0in"
   version="1.2"
   y="0in"
   height="0.33in"
   viewBox="0 0 400 330"
   id="svg2871"
   inkscape:version="0.47 r22583"
   sodipodi:docname="BRD-PICAXE-08.svg">
  <metadata
     id="metadata2922">
    <rdf:RDF>
      <cc:Work
         rdf:about="">
        <dc:format>image/svg+xml</dc:format>
        <dc:type
           rdf:resource="http://purl.org/dc/dcmitype/StillImage" />
        <dc:title></dc:title>
      </cc:Work>
    </rdf:RDF>
  </metadata>
  <defs
     id="defs2920">
    <inkscape:perspective
       sodipodi:type="inkscape:persp3d"
       inkscape:vp_x="0 : 14.85 : 1"
       inkscape:vp_y="0 : 1000 : 0"
       inkscape:vp_z="36 : 14.85 : 1"
       inkscape:persp3d-origin="18 : 9.9000003 : 1"
       id="perspective2924" />
  </defs>
  <sodipodi:namedview
     pagecolor="#ffffff"
     bordercolor="#666666"
     borderopacity="1"
     objecttolerance="10"
     gridtolerance="10"
     guidetolerance="10"
     inkscape:pageopacity="0"
     inkscape:pageshadow="2"
     inkscape:window-width="800"
     inkscape:window-height="553"
     id="namedview2918"
     showgrid="false"
     inkscape:zoom="7.9461277"
     inkscape:cx="18"
     inkscape:cy="14.85"
     inkscape:window-x="-4"
     inkscape:window-y="-4"
     inkscape:window-maximized="1"
     inkscape:current-layer="breadboard" />
  <g
     id="breadboard">
    <rect
       width="400"
       x="0"
       y="30"
       fill="#303030"
       height="270"
       id="middle"
       stroke-width="0" />
    <rect
       width="400"
       x="0"
       y="30"
       fill="#3D3D3D"
       height="24.6"
       id="top"
       stroke-width="0" />
    <rect
       width="400"
       x="0"
       y="275.4"
       fill="#000000"
       height="24.6"
       id="bottom"
       stroke-width="0" />
    <polygon
       fill="#141414"
       points="400,30,392.5,54.6,392.5,275.4,400,300"
       id="right"
       stroke-width="0" />
    <polygon
       fill="#1F1F1F"
       points="0,30,7.5,54.6,7.5,275.4,0,300"
       id="left"
       stroke-width="0" />
    <polygon
       fill="#1C1C1C"
       points="50,115,7.5,114.6,5.6,135.8,5.6,165,50,165"
       id="left-upper-rect"
       stroke-width="0" />
    <polygon
       fill="#383838"
       points="7.5,215.5,50,215.5,50,165,5.6,165,5.6,194.2"
       id="left-lower-rect"
       stroke-width="0" />
    <path
       fill="#262626"
       id="slot"
       stroke-width="0"
       d="M5.6,135.8l0,58.3c14.7,-1.7,26.2,-14,26.2,-29.2C31.8,149.7,20.4,137.5,5.6,135.8z" />
    <path
       fill="#303030"
       id="cover"
       stroke-width="0"
       d="M7.5,54.6L7.5,114.5c23.8,4.5,41.9,25.3,41.9,50.4c0,25.1,-18,46,-41.9,50.5L7.5,215.5l50,0L57.5,54.6L7.5,54.6z" />
    <circle
       fill="#212121"
       cx="65"
       cy="234.7"
       r="20.6"
       stroke-width="0"
       id="circle2883" />
    <text
       x="65"
       y="165"
       fill="#e6e6e6"
       font-family="OCRA"
       text-anchor="start"
       stroke="none"
       id="label"
       stroke-width="0"
       font-size="80"
       style="text-anchor:start;text-align:start;writing-mode:lr;line-height:125%"
       sodipodi:linespacing="125%">
      <tspan
         sodipodi:role="line"
         id="tspan2928">08M</tspan>
    </text>
    <rect
       width="30"
       x="35"
       y="286.6"
       fill="#8C8C8C"
       height="43.4"
       id="connector0pin"
       stroke-width="0" />
    <rect
       width="30"
       x="35"
       y="300"
       fill="#8C8C8C"
       height="30"
       id="connector0terminal"
       stroke-width="0" />
    <polygon
       fill="#8C8C8C"
       points="35,286.6,35,306.6,65,306.6,85,297.4,85,286.6"
       stroke-width="0"
       id="polygon2888" />
    <rect
       width="30"
       x="35"
       y="0"
       fill="#8C8C8C"
       height="43.4"
       id="connector7pin"
       stroke-width="0" />
    <rect
       width="30"
       x="35"
       y="0"
       fill="#8C8C8C"
       height="30"
       id="connector7terminal"
       stroke-width="0" />
    <polygon
       fill="#8C8C8C"
       points="85,43.4,85,32.6,65,23.4,35,23.4,35,43.4"
       stroke-width="0"
       id="polygon2892" />
    <rect
       width="30"
       x="335"
       y="286.6"
       fill="#8C8C8C"
       height="43.4"
       id="connector3pin"
       stroke-width="0" />
    <rect
       width="30"
       x="335"
       y="300"
       fill="#8C8C8C"
       height="30"
       id="connector3terminal"
       stroke-width="0" />
    <polygon
       fill="#8C8C8C"
       points="315,286.6,315,297.4,335,306.6,365,306.6,365,286.6"
       stroke-width="0"
       id="polygon2896" />
    <rect
       width="30"
       x="335"
       y="0"
       fill="#8C8C8C"
       height="43.4"
       id="connector4pin"
       stroke-width="0" />
    <rect
       width="30"
       x="335"
       y="0"
       fill="#8C8C8C"
       height="30"
       id="connector4terminal"
       stroke-width="0" />
    <polygon
       fill="#8C8C8C"
       points="365,43.4,365,23.4,335,23.4,315,32.6,315,43.4"
       stroke-width="0"
       id="polygon2900" />
    <rect
       width="30"
       x="135"
       y="286.6"
       fill="#8C8C8C"
       height="43.4"
       id="connector1pin"
       stroke-width="0" />
    <rect
       width="30"
       x="135"
       y="300"
       fill="#8C8C8C"
       height="30"
       id="connector1terminal"
       stroke-width="0" />
    <polygon
       fill="#8C8C8C"
       points="115,286.6,115,297.4,135,306.6,165,306.6,185,297.4,185,286.6"
       stroke-width="0"
       id="polygon2904" />
    <rect
       width="30"
       x="135"
       y="0"
       fill="#8C8C8C"
       height="43.4"
       id="connector6pin"
       stroke-width="0" />
    <rect
       width="30"
       x="135"
       y="0"
       fill="#8C8C8C"
       height="30"
       id="connector6terminal"
       stroke-width="0" />
    <polygon
       fill="#8C8C8C"
       points="185,43.4,185,32.6,165,23.4,135,23.4,115,32.6,115,43.4"
       stroke-width="0"
       id="polygon2908" />
    <rect
       width="30"
       x="235"
       y="286.6"
       fill="#8C8C8C"
       height="43.4"
       id="connector2pin"
       stroke-width="0" />
    <rect
       width="30"
       x="235"
       y="300"
       fill="#8C8C8C"
       height="30"
       id="connector2terminal"
       stroke-width="0" />
    <polygon
       fill="#8C8C8C"
       points="215,286.6,215,297.4,235,306.6,265,306.6,285,297.4,285,286.6"
       stroke-width="0"
       id="polygon2912" />
    <rect
       width="30"
       x="235"
       y="0"
       fill="#8C8C8C"
       height="43.4"
       id="connector5pin"
       stroke-width="0" />
    <rect
       width="30"
       x="235"
       y="0"
       fill="#8C8C8C"
       height="30"
       id="connector5terminal"
       stroke-width="0" />
    <polygon
       fill="#8C8C8C"
       points="285,43.4,285,32.6,265,23.4,235,23.4,215,32.6,215,43.4"
       stroke-width="0"
       id="polygon2916" />
  </g>
</svg>
