<?xml version="1.0" encoding="utf-8"?>
<!DOCTYPE svg PUBLIC "-//W3C//DTD SVG 1.1//EN" "http://www.w3.org/Graphics/SVG/1.1/DTD/svg11.dtd">
<svg version="1.2" baseProfile="tiny" id="Layer_1" xmlns="http://www.w3.org/2000/svg" xmlns:xlink="http://www.w3.org/1999/xlink" x="0px" y="0px" width="1.0914in"
	 height="1.078px" viewBox="0 0 78.585 77.616" xml:space="preserve">
<rect id="connector0pin" x="34.194" y="69.36" fill="#8C8C8C" width="2.999" height="8.256"/>
<rect id="connector1pin" x="41.392" y="69.36" fill="#8C8C8C" width="3" height="8.256"/>
<path fill="none" stroke="#000000" stroke-width="3" d="M35.687,53.146v16.215"/>
<path fill="none" stroke="#FF0000" stroke-width="3" d="M42.928,53.146c0,0,0,11.967,0,16.215"/>
<g>
	<path d="M3.684,23.011C1.907,23.433,0,25.803,0,28.362c0,2.558,1.779,4.867,3.684,5.35c1.906,0.48,10.304,2.606,10.304,2.606V20.41
		L3.684,23.011z M5.494,30.417c-1.136,0-2.056-0.921-2.056-2.056c0-1.136,0.92-2.058,2.056-2.058c1.136,0,2.056,0.921,2.056,2.058
		C7.55,29.497,6.63,30.417,5.494,30.417z"/>
</g>
<g>
	<path d="M74.901,23.009c-1.905-0.479-10.304-2.602-10.304-2.602v15.908l10.304-2.606c1.776-0.423,3.685-2.792,3.685-5.35
		S76.807,23.492,74.901,23.009z M73.091,30.417c-1.135,0-2.057-0.921-2.057-2.056c0-1.136,0.922-2.057,2.057-2.057
		c1.136,0,2.057,0.921,2.057,2.057C75.148,29.497,74.227,30.417,73.091,30.417z"/>
</g>
<path fill="#0D0D0D" d="M39.292-0.004c15.666,0,28.366,12.699,28.366,28.365c0,15.686-12.7,28.385-28.366,28.385
	S10.927,44.047,10.927,28.361C10.927,12.695,23.626-0.004,39.292-0.004z"/>
<g>
	<path d="M39.292-0.004c15.667,0,28.366,12.7,28.366,28.366c0,15.687-12.699,28.386-28.366,28.386
		c-15.666,0-28.366-12.699-28.366-28.386C10.926,12.696,23.626-0.004,39.292-0.004z"/>
</g>
<circle fill="#D7D8D9" cx="39.293" cy="28.361" r="4.814"/>
<path fill="none" stroke="#58595B" stroke-width="1.8574" stroke-linecap="round" stroke-linejoin="round" d="M12.529,33.363
	c-1.288-6.886,0.068-14.262,4.364-20.477C25.438,0.513,42.397-2.588,54.77,5.961"/>
<g>
	<g>
		<path fill="none" stroke="#3F3F41" stroke-width="0.2085" stroke-linecap="round" stroke-linejoin="round" d="M54.167,43.256
			c8.223-8.244,8.223-21.547,0-29.769c-8.222-8.223-21.526-8.223-29.749,0c-8.222,8.222-8.221,21.525,0,29.769
			C32.641,51.478,45.946,51.478,54.167,43.256z"/>
		<path fill="none" stroke="#3F3F41" stroke-width="0.2085" stroke-linecap="round" stroke-linejoin="round" d="M26.075,41.602
			c-7.306-7.328-7.306-19.152,0-26.459c7.306-7.307,19.129-7.306,26.437,0c7.306,7.308,7.305,19.129-0.001,26.458
			C45.205,48.906,33.381,48.907,26.075,41.602z"/>
		<path fill="none" stroke="#3F3F41" stroke-width="0.2085" stroke-linecap="round" stroke-linejoin="round" d="M50.863,39.951
			c6.393-6.412,6.385-16.762-0.007-23.153c-6.392-6.392-16.741-6.398-23.132-0.007c-6.392,6.391-6.383,16.74,0.008,23.153
			C34.123,46.334,44.473,46.344,50.863,39.951z"/>
		<path fill="none" stroke="#3F3F41" stroke-width="0.2085" stroke-linecap="round" stroke-linejoin="round" d="M29.374,38.297
			c-5.484-5.499-5.47-14.374,0.007-19.849c5.476-5.477,14.351-5.49,19.833-0.007c5.482,5.482,5.47,14.357-0.006,19.847
			C43.731,43.772,34.856,43.785,29.374,38.297z"/>
		<path fill="none" stroke="#3F3F41" stroke-width="0.2085" stroke-linecap="round" stroke-linejoin="round" d="M47.559,36.632
			c4.562-4.568,4.567-11.967,0-16.537c-4.567-4.568-11.969-4.561-16.529,0c-4.561,4.562-4.569,11.961,0,16.537
			C35.597,41.216,42.998,41.207,47.559,36.632z"/>
		<path fill="none" stroke="#3F3F41" stroke-width="0.2085" stroke-linecap="round" stroke-linejoin="round" d="M32.685,34.969
			c-3.653-3.652-3.661-9.557,0-13.218c3.66-3.66,9.564-3.653,13.218,0.001c3.653,3.653,3.66,9.557,0,13.217
			C42.242,38.646,36.338,38.639,32.685,34.969z"/>
	</g>
</g>
<path fill="none" stroke="#303032" stroke-width="1.8574" stroke-linecap="round" stroke-linejoin="round" d="M27.925,53.123
	c13.667,6.275,29.833,0.288,36.108-13.378c3.422-7.47,3.198-15.665,0.071-22.595"/>
</svg>
