<?xml version='1.0' encoding='utf-8'?>
<!DOCTYPE svg PUBLIC '-//W3C//DTD SVG 1.1//EN' 'http://www.w3.org/Graphics/SVG/1.1/DTD/svg11.dtd'>
<!-- Generator: Adobe Illustrator 15.0.1, SVG Export Plug-In . SVG Version: 6.00 Build 0)  -->
<svg xmlns="http://www.w3.org/2000/svg" width="1.40158in" xml:space="preserve" xmlns:xml="http://www.w3.org/XML/1998/namespace" x="0px" version="1.1" y="0px" height="1.40158in" viewBox="0 0 100.914 100.914" id="Ebene_1" enable-background="new 0 0 100.914 100.914">
 <desc >Fritzing breadboard generated by brd2svg</desc>
 <g  id="breadboard">
  <g  id="icon">
   <path  fill="#672E58" d="M0,50.457c-0.078,27.867,22.449,50.52,50.315,50.598c27.866,0.078,50.52-22.449,50.598-50.315c0-0.094,0-0.188,0-0.283c0.078-27.866-22.449-50.52-50.316-50.598C22.731-0.219,0.078,22.308,0,50.174C0,50.269,0,50.363,0,50.457z M16.852,46.205c-0.002-0.665,0.536-1.206,1.201-1.208c0.666-0.002,1.207,0.536,1.208,1.201c0,0.002,0,0.005,0,0.007c0.002,0.666-0.536,1.207-1.201,1.208c-0.666,0.002-1.206-0.536-1.208-1.201C16.852,46.209,16.852,46.207,16.852,46.205z M16.852,54.708c-0.002-0.665,0.536-1.206,1.201-1.208c0.666-0.002,1.207,0.536,1.208,1.202c0,0.002,0,0.004,0,0.006c0.002,0.666-0.536,1.207-1.201,1.209s-1.206-0.537-1.208-1.202C16.852,54.713,16.852,54.71,16.852,54.708z M88.977,50.457c-0.001-2.187,1.771-3.961,3.957-3.962c2.187-0.002,3.962,1.77,3.963,3.957c0,0.002,0,0.004,0,0.005c0.001,2.188-1.771,3.961-3.958,3.963c-2.187,0.002-3.961-1.77-3.962-3.957C88.977,50.46,88.977,50.458,88.977,50.457z M16.257,80.697c0-2.188,1.772-3.96,3.959-3.961c2.187,0,3.96,1.773,3.96,3.96c0,0.001,0,0.001,0,0.001c0,2.188-1.772,3.961-3.959,3.961S16.257,82.884,16.257,80.697L16.257,80.697z M76.737,80.697c-0.001-2.188,1.771-3.961,3.958-3.963c2.187-0.002,3.961,1.771,3.962,3.957c0,0.002,0,0.004,0,0.006c0.001,2.188-1.771,3.961-3.957,3.963s-3.962-1.77-3.963-3.957C76.737,80.701,76.737,80.699,76.737,80.697z M76.737,20.217c-0.001-2.187,1.771-3.961,3.958-3.963c2.187-0.001,3.961,1.77,3.962,3.957c0,0.002,0,0.004,0,0.006c0.001,2.187-1.771,3.961-3.957,3.963c-2.187,0.001-3.962-1.771-3.963-3.958C76.737,20.221,76.737,20.219,76.737,20.217z M16.257,20.217c0-2.187,1.772-3.96,3.959-3.96c2.187,0,3.96,1.772,3.96,3.959c0,0,0,0,0,0.001c0,2.187-1.772,3.96-3.959,3.96S16.257,22.405,16.257,20.217C16.257,20.217,16.257,20.217,16.257,20.217z"/>
   <g >
    <title >layer 21</title>
    <g >
     <title >text:On</title>
     <text  fill="#FFFFFF" font-family="OCRA" transform="matrix(1 0 0 1 14.8169 65.5776)" font-size="4.6771">On</text>
    </g>
    <g >
     <title >text:Off</title>
     <text  fill="#FFFFFF" font-family="OCRA" transform="matrix(1 0 0 1 14.0967 39.2974)" font-size="4.6771">Off</text>
    </g>
    <g >
     <title >text:+</title>
     <text  fill="#FFFFFF" font-family="OCRA" transform="matrix(1 0 0 1 85.271 46.7134)" font-size="4.176">+</text>
    </g>
    <g >
     <title >text:-</title>
     <text  fill="#FFFFFF" font-family="OCRA" transform="matrix(1 0 0 1 28.751 23.313)" font-size="4.176">-</text>
    </g>
    <g >
     <title >text:-</title>
     <text  fill="#FFFFFF" font-family="OCRA" transform="matrix(1 0 0 1 70.1509 23.313)" font-size="4.176">-</text>
    </g>
    <g >
     <title >text:C</title>
     <text  fill="#FFFFFF" font-family="OCRA" transform="matrix(1 0 0 1 28.8569 81.7778)" font-size="4.176">C</text>
    </g>
    <g >
     <title >text:B</title>
     <text  fill="#FFFFFF" font-family="OCRA" transform="matrix(1 0 0 1 69.896 81.7778)" font-size="4.176">B</text>
    </g>
    <g >
     <title >element:100MA</title>
     <g >
      <title >package:PTC-1206</title>
      <line  fill="none" stroke="#FFFFFF" stroke-linecap="round" y1="52.257" stroke-width="0.576" x1="77.097" y2="48.657" x2="77.097"/>
      <line  fill="none" stroke="#FFFFFF" stroke-linecap="round" y1="48.657" stroke-width="0.576" x1="81.417" y2="52.257" x2="81.417"/>
     </g>
    </g>
    <g >
     <title >element:C2</title>
     <g >
      <title >package:0603-CAP</title>
      <line  fill="none" stroke="#FFFFFF" stroke-linecap="round" y1="32.457" stroke-width="1.584" x1="71.97" y2="32.457" x2="72.144"/>
     </g>
    </g>
    <g >
     <title >element:C10</title>
     <g >
      <title >package:EIA3528-21</title>
      <line  fill="none" stroke="#FFFFFF" stroke-linecap="round" y1="29.905" stroke-width="0.576" x1="60.322" y2="25.086" x2="60.322"/>
      <line  fill="none" stroke="#FFFFFF" stroke-linecap="round" y1="25.086" stroke-width="0.576" x1="60.322" y2="25.086" x2="69.25"/>
      <line  fill="none" stroke="#FFFFFF" stroke-linecap="round" y1="25.086" stroke-width="0.576" x1="69.25" y2="29.905" x2="69.25"/>
      <line  fill="none" stroke="#FFFFFF" stroke-linecap="round" y1="35.292" stroke-width="0.576" x1="60.462" y2="38.693" x2="60.462"/>
      <line  fill="none" stroke="#FFFFFF" stroke-linecap="round" y1="38.693" stroke-width="0.576" x1="60.462" y2="39.827" x2="61.455"/>
      <line  fill="none" stroke="#FFFFFF" stroke-linecap="round" y1="39.827" stroke-width="0.576" x1="61.455" y2="39.827" x2="68.4"/>
      <line  fill="none" stroke="#FFFFFF" stroke-linecap="round" y1="39.827" stroke-width="0.576" x1="68.4" y2="38.693" x2="69.25"/>
      <line  fill="none" stroke="#FFFFFF" stroke-linecap="round" y1="38.693" stroke-width="0.576" x1="69.25" y2="35.292" x2="69.25"/>
     </g>
    </g>
    <g >
     <title >element:C11</title>
     <g >
      <title >package:CPOL_1206</title>
      <line  fill="none" stroke="#FFFFFF" stroke-linecap="round" y1="33.222" stroke-width="0.576" x1="32.938" y2="28.97" x2="32.938"/>
      <line  fill="none" stroke="#FFFFFF" stroke-linecap="round" y1="28.97" stroke-width="0.576" x1="32.938" y2="28.97" x2="39.316"/>
      <line  fill="none" stroke="#FFFFFF" stroke-linecap="round" y1="28.97" stroke-width="0.576" x1="39.316" y2="33.222" x2="39.316"/>
      <line  fill="none" stroke="#FFFFFF" stroke-linecap="round" y1="38.891" stroke-width="0.576" x1="32.797" y2="41.726" x2="32.797"/>
      <line  fill="none" stroke="#FFFFFF" stroke-linecap="round" y1="41.726" stroke-width="0.576" x1="32.797" y2="43.144" x2="33.789"/>
      <line  fill="none" stroke="#FFFFFF" stroke-linecap="round" y1="43.144" stroke-width="0.576" x1="33.789" y2="43.144" x2="38.183"/>
      <line  fill="none" stroke="#FFFFFF" stroke-linecap="round" y1="43.144" stroke-width="0.576" x1="38.183" y2="41.726" x2="39.316"/>
      <line  fill="none" stroke="#FFFFFF" stroke-linecap="round" y1="41.726" stroke-width="0.576" x1="39.316" y2="38.891" x2="39.316"/>
     </g>
    </g>
    <g >
     <title >element:D1</title>
     <g >
      <title >package:SMA-DIODE</title>
      <line  fill="none" stroke="#FFFFFF" stroke-linecap="round" y1="64.176" stroke-width="0.576" x1="33.222" y2="64.176" x2="31.946"/>
      <line  fill="none" stroke="#FFFFFF" stroke-linecap="round" y1="64.176" stroke-width="0.576" x1="31.946" y2="51.137" x2="31.946"/>
      <line  fill="none" stroke="#FFFFFF" stroke-linecap="round" y1="51.137" stroke-width="0.576" x1="31.946" y2="51.137" x2="33.222"/>
      <line  fill="none" stroke="#FFFFFF" stroke-linecap="round" y1="51.137" stroke-width="0.576" x1="38.891" y2="51.137" x2="40.167"/>
      <line  fill="none" stroke="#FFFFFF" stroke-linecap="round" y1="51.137" stroke-width="0.576" x1="40.167" y2="64.176" x2="40.167"/>
      <line  fill="none" stroke="#FFFFFF" stroke-linecap="round" y1="64.176" stroke-width="0.576" x1="40.167" y2="64.176" x2="38.891"/>
      <line  fill="none" stroke="#FFFFFF" stroke-linecap="round" y1="54.822" stroke-width="0.576" x1="33.222" y2="54.822" x2="38.891"/>
     </g>
    </g>
    <g >
     <title >element:D2</title>
     <g >
      <title >package:SMA-DIODE</title>
      <line  fill="none" stroke="#FFFFFF" stroke-linecap="round" y1="33.222" stroke-width="0.576" x1="43.937" y2="31.946" x2="43.937"/>
      <line  fill="none" stroke="#FFFFFF" stroke-linecap="round" y1="31.946" stroke-width="0.576" x1="43.937" y2="31.946" x2="56.976"/>
      <line  fill="none" stroke="#FFFFFF" stroke-linecap="round" y1="31.946" stroke-width="0.576" x1="56.976" y2="33.222" x2="56.976"/>
      <line  fill="none" stroke="#FFFFFF" stroke-linecap="round" y1="38.891" stroke-width="0.576" x1="56.976" y2="40.167" x2="56.976"/>
      <line  fill="none" stroke="#FFFFFF" stroke-linecap="round" y1="40.167" stroke-width="0.576" x1="56.976" y2="40.167" x2="43.937"/>
      <line  fill="none" stroke="#FFFFFF" stroke-linecap="round" y1="40.167" stroke-width="0.576" x1="43.937" y2="38.891" x2="43.937"/>
      <line  fill="none" stroke="#FFFFFF" stroke-linecap="round" y1="33.222" stroke-width="0.576" x1="53.292" y2="38.891" x2="53.292"/>
     </g>
    </g>
    <g >
     <title >element:L1</title>
     <g >
      <title >package:CR54</title>
     </g>
    </g>
    <g >
     <title >element:LED1</title>
     <g >
      <title >package:LED-1206</title>
      <line  fill="none" stroke="#FFFFFF" stroke-linecap="round" y1="53.292" stroke-width="0.576" x1="62.022" y2="57.259" x2="62.022"/>
      <line  fill="none" stroke="#FFFFFF" stroke-linecap="round" y1="57.259" stroke-width="0.576" x1="62.022" y2="57.259" x2="67.691"/>
      <line  fill="none" stroke="#FFFFFF" stroke-linecap="round" y1="57.259" stroke-width="0.576" x1="67.691" y2="53.292" x2="67.691"/>
      <line  fill="none" stroke="#FFFFFF" stroke-linecap="round" y1="47.622" stroke-width="0.576" x1="62.022" y2="43.653" x2="62.022"/>
      <line  fill="none" stroke="#FFFFFF" stroke-linecap="round" y1="43.653" stroke-width="0.576" x1="62.022" y2="43.653" x2="67.691"/>
      <line  fill="none" stroke="#FFFFFF" stroke-linecap="round" y1="43.653" stroke-width="0.576" x1="67.691" y2="47.622" x2="67.691"/>
      <line  fill="none" stroke="#FFFFFF" stroke-linecap="round" y1="49.606" stroke-width="0.576" x1="62.873" y2="49.606" x2="64.857"/>
      <line  fill="none" stroke="#FFFFFF" stroke-linecap="round" y1="49.606" stroke-width="0.576" x1="64.857" y2="49.606" x2="66.841"/>
      <line  fill="none" stroke="#FFFFFF" stroke-linecap="round" y1="49.606" stroke-width="0.576" x1="64.857" y2="51.307" x2="63.156"/>
      <line  fill="none" stroke="#FFFFFF" stroke-linecap="round" y1="51.307" stroke-width="0.576" x1="63.156" y2="51.307" x2="66.558"/>
      <line  fill="none" stroke="#FFFFFF" stroke-linecap="round" y1="51.307" stroke-width="0.576" x1="66.558" y2="49.606" x2="64.857"/>
     </g>
    </g>
    <g >
     <title >element:R1</title>
     <g >
      <title >package:0603-RES</title>
     </g>
    </g>
    <g >
     <title >element:S1</title>
     <g >
      <title >package:AYZ0202</title>
      <line  fill="none" stroke="#FFFFFF" stroke-linecap="round" y1="60.662" stroke-width="0.576" x1="13.096" y2="60.662" x2="23.017"/>
      <line  fill="none" stroke="#FFFFFF" stroke-linecap="round" y1="60.662" stroke-width="0.576" x1="23.017" y2="40.252" x2="23.017"/>
      <line  fill="none" stroke="#FFFFFF" stroke-linecap="round" y1="40.252" stroke-width="0.576" x1="23.017" y2="40.252" x2="13.096"/>
      <line  fill="none" stroke="#FFFFFF" stroke-linecap="round" y1="40.252" stroke-width="0.576" x1="13.096" y2="60.662" x2="13.096"/>
     </g>
    </g>
    <g >
     <title >element:U$1</title>
     <g >
      <title >package:PETAL-LONG-2-2SIDE</title>
     </g>
    </g>
    <g >
     <title >element:U$2</title>
     <g >
      <title >package:PETAL-LONG-2-2SIDE</title>
     </g>
    </g>
    <g >
     <title >element:U$3</title>
     <g >
      <title >package:PETAL-LONG-2-2SIDE</title>
     </g>
    </g>
    <g >
     <title >element:U$4</title>
     <g >
      <title >package:PETAL-LONG-2-2SIDE</title>
     </g>
    </g>
    <g >
     <title >element:U$5</title>
     <g >
      <title >package:PETAL-LONG-2-2SIDE</title>
     </g>
    </g>
    <g >
     <title >element:U$7</title>
     <g >
      <title >package:LOGO-LILYPAD</title>
      <line  fill="none" stroke="#FFFFFF" stroke-linecap="round" y1="15.392" stroke-width="0.576" x1="54.454" y2="9.439" x2="54.454"/>
      <path  fill="none" stroke="#FFFFFF" stroke-width="0.576" d="M56.154,8.022c-0.86-0.078-1.622,0.556-1.7,1.417"/>
      <path  fill="none" stroke="#FFFFFF" stroke-width="0.576" d="M57.855,9.439c-0.078-0.861-0.84-1.496-1.701-1.417"/>
      <line  fill="none" stroke="#FFFFFF" stroke-linecap="round" y1="9.439" stroke-width="0.576" x1="57.855" y2="10.006" x2="57.855"/>
      <path  fill="none" stroke="#FFFFFF" stroke-width="0.576" d="M56.438,11.282c0.743,0.039,1.378-0.532,1.417-1.275"/>
      <line  fill="none" stroke="#FFFFFF" stroke-linecap="round" y1="11.282" stroke-width="0.576" x1="56.438" y2="11.282" x2="55.587"/>
      <path  fill="none" stroke="#FFFFFF" stroke-width="0.576" d="M57.713,15.392c0.548-0.078,0.929-0.586,0.851-1.134"/>
      <line  fill="none" stroke="#FFFFFF" stroke-linecap="round" y1="15.392" stroke-width="0.576" x1="57.713" y2="15.392" x2="57.146"/>
      <path  fill="none" stroke="#FFFFFF" stroke-width="0.576" d="M56.013,13.975c-0.078,0.705,0.429,1.339,1.133,1.417"/>
      <path  fill="none" stroke="#FFFFFF" stroke-width="0.576" d="M57.146,12.558c-0.704,0.078-1.211,0.713-1.133,1.417"/>
      <line  fill="none" stroke="#FFFFFF" stroke-linecap="round" y1="12.558" stroke-width="0.576" x1="57.146" y2="12.558" x2="57.429"/>
      <path  fill="none" stroke="#FFFFFF" stroke-width="0.576" d="M58.564,13.691c0-0.626-0.508-1.134-1.134-1.134h-0.001"/>
      <line  fill="none" stroke="#FFFFFF" stroke-linecap="round" y1="13.691" stroke-width="0.576" x1="58.564" y2="14.258" x2="58.564"/>
      <path  fill="none" stroke="#FFFFFF" stroke-width="0.576" d="M58.564,14.258c-0.117,0.509,0.199,1.016,0.708,1.134h0.001"/>
      <path  fill="none" stroke="#FFFFFF" stroke-width="0.576" d="M59.273,15.392c0.43,0.118,0.874-0.136,0.992-0.566c0,0,0,0,0,0"/>
      <line  fill="none" stroke="#FFFFFF" stroke-linecap="round" y1="14.825" stroke-width="0.576" x1="60.265" y2="14.684" x2="60.265"/>
      <line  fill="none" stroke="#FFFFFF" stroke-linecap="round" y1="14.684" stroke-width="0.576" x1="60.265" y2="13.975" x2="60.265"/>
      <path  fill="none" stroke="#FFFFFF" stroke-width="0.576" d="M61.541,12.558c-0.744,0.039-1.314,0.674-1.275,1.417"/>
      <path  fill="none" stroke="#FFFFFF" stroke-width="0.576" d="M62.816,14.117c0.078-0.783-0.493-1.481-1.275-1.559l0,0"/>
      <path  fill="none" stroke="#FFFFFF" stroke-width="0.576" d="M62.816,14.684c0.047-0.186,0.047-0.381,0-0.567"/>
      <path  fill="none" stroke="#FFFFFF" stroke-width="0.576" d="M61.965,15.534c0.419-0.104,0.745-0.432,0.851-0.85"/>
      <path  fill="none" stroke="#FFFFFF" stroke-width="0.576" d="M60.265,14.684c0.234,0.704,0.996,1.085,1.7,0.851c0,0,0,0,0,0"/>
      <line  fill="none" stroke="#FFFFFF" stroke-linecap="round" y1="14.684" stroke-width="0.576" x1="62.816" y2="14.967" x2="62.816"/>
      <path  fill="none" stroke="#FFFFFF" stroke-width="0.576" d="M62.816,14.967c0,0.313,0.254,0.567,0.566,0.567l0,0"/>
      <path  fill="none" stroke="#FFFFFF" stroke-width="0.576" d="M63.382,15.534c0.313,0,0.567-0.253,0.567-0.567l0,0"/>
      <line  fill="none" stroke="#FFFFFF" stroke-linecap="round" y1="14.4" stroke-width="0.576" x1="62.816" y2="8.73" x2="62.816"/>
      <line  fill="none" stroke="#FFFFFF" stroke-linecap="round" y1="11.99" stroke-width="0.576" x1="44.391" y2="11.849" x2="44.391"/>
      <path  fill="none" stroke="#FFFFFF" stroke-width="0.576" d="M38.438,7.03c0,2.035,1.649,3.685,3.685,3.685"/>
      <line  fill="none" stroke="#FFFFFF" stroke-linecap="round" y1="10.715" stroke-width="0.576" x1="42.123" y2="10.715" x2="42.548"/>
      <path  fill="none" stroke="#FFFFFF" stroke-width="0.576" d="M42.548,10.715c1.057,0.039,1.945-0.786,1.984-1.842"/>
      <path  fill="none" stroke="#FFFFFF" stroke-width="0.576" d="M44.532,8.873c0-0.47-0.381-0.851-0.85-0.851l0,0"/>
      <path  fill="none" stroke="#FFFFFF" stroke-width="0.576" d="M40.706,14.258c-0.274-1.213-1.479-1.975-2.693-1.701l0,0"/>
      <line  fill="none" stroke="#FFFFFF" stroke-linecap="round" y1="8.022" stroke-width="0.576" x1="43.398" y2="8.022" x2="43.682"/>
      <path  fill="none" stroke="#FFFFFF" stroke-width="0.576" d="M43.398,8.022c-1.096,0-1.984,0.889-1.984,1.984"/>
      <path  fill="none" stroke="#FFFFFF" stroke-width="0.576" d="M38.013,12.558c-0.822,0.117-1.393,0.878-1.276,1.7v0"/>
      <line  fill="none" stroke="#FFFFFF" stroke-linecap="round" y1="11.99" stroke-width="0.576" x1="41.414" y2="10.006" x2="41.414"/>
      <path  fill="none" stroke="#FFFFFF" stroke-width="0.576" d="M38.013,15.392c1.878,0,3.401-1.523,3.401-3.401c0,0,0,0,0,0"/>
      <path  fill="none" stroke="#FFFFFF" stroke-width="0.576" d="M36.737,14.258c0.039,0.665,0.61,1.173,1.275,1.134h0"/>
      <path  fill="none" stroke="#FFFFFF" stroke-width="0.576" d="M41.414,15.25c1.135,0.509,2.468,0.001,2.977-1.134"/>
      <line  fill="none" stroke="#FFFFFF" stroke-linecap="round" y1="13.691" stroke-width="0.576" x1="44.391" y2="12.841" x2="44.391"/>
      <line  fill="none" stroke="#FFFFFF" stroke-linecap="round" y1="13.691" stroke-width="0.576" x1="44.391" y2="14.117" x2="44.391"/>
      <line  fill="none" stroke="#FFFFFF" stroke-linecap="round" y1="13.408" stroke-width="0.576" x1="47.083" y2="8.73" x2="47.083"/>
      <path  fill="none" stroke="#FFFFFF" stroke-width="0.576" d="M44.391,13.691c-0.118,0.822,0.453,1.583,1.275,1.701l0,0"/>
      <path  fill="none" stroke="#FFFFFF" stroke-width="0.576" d="M45.666,15.392c0.792-0.099,1.395-0.761,1.417-1.559"/>
      <path  fill="none" stroke="#FFFFFF" stroke-width="0.576" d="M47.083,13.833c0.011-0.142,0.011-0.284,0-0.425"/>
      <line  fill="none" stroke="#FFFFFF" stroke-linecap="round" y1="13.975" stroke-width="0.576" x1="47.083" y2="13.833" x2="47.083"/>
      <path  fill="none" stroke="#FFFFFF" stroke-width="0.576" d="M47.083,13.975c0,0.783,0.634,1.417,1.417,1.417l0,0"/>
      <path  fill="none" stroke="#FFFFFF" stroke-width="0.576" d="M48.501,15.392c0.783,0,1.417-0.634,1.417-1.417l0,0"/>
      <line  fill="none" stroke="#FFFFFF" stroke-linecap="round" y1="13.975" stroke-width="0.576" x1="49.918" y2="12.274" x2="49.918"/>
      <path  fill="none" stroke="#FFFFFF" stroke-width="0.576" d="M49.918,13.975c0,0.783,0.635,1.417,1.417,1.417l0,0"/>
      <path  fill="none" stroke="#FFFFFF" stroke-width="0.576" d="M53.603,20.211c-0.156-2.035-1.934-3.558-3.968-3.401l0,0"/>
      <path  fill="none" stroke="#FFFFFF" stroke-width="0.576" d="M51.335,15.392c0.783,0,1.418-0.634,1.418-1.417l0,0"/>
      <line  fill="none" stroke="#FFFFFF" stroke-linecap="round" y1="13.975" stroke-width="0.576" x1="52.753" y2="12.274" x2="52.753"/>
      <line  fill="none" stroke="#FFFFFF" stroke-linecap="round" y1="16.243" stroke-width="0.576" x1="52.753" y2="13.975" x2="52.753"/>
      <line  fill="none" stroke="#FFFFFF" stroke-linecap="round" y1="16.81" stroke-width="0.576" x1="49.068" y2="16.81" x2="49.635"/>
      <path  fill="none" stroke="#FFFFFF" stroke-width="0.576" d="M49.068,16.81c-0.939,0-1.701,0.761-1.701,1.701l0,0"/>
      <path  fill="none" stroke="#FFFFFF" stroke-width="0.576" d="M49.068,19.928c2.035,0,3.686-1.65,3.686-3.685"/>
      <line  fill="none" stroke="#FFFFFF" stroke-linecap="round" y1="19.928" stroke-width="0.576" x1="48.784" y2="19.928" x2="49.068"/>
      <path  fill="none" stroke="#FFFFFF" stroke-width="0.576" d="M47.367,18.51c0,0.783,0.635,1.417,1.417,1.417"/>
      <path  fill="none" stroke="#FFFFFF" stroke-width="0.576" d="M40.706,14.258c0.156,0.783,0.918,1.291,1.701,1.134l0,0"/>
     </g>
    </g>
    <g >
     <title >element:U1</title>
     <g >
      <title >package:SOT23-5</title>
      <line  fill="none" stroke="#FFFFFF" stroke-linecap="round" y1="21.225" stroke-width="0.576" x1="49.239" y2="21.225" x2="51.673"/>
      <line  fill="none" stroke="#FFFFFF" stroke-linecap="round" y1="29.289" stroke-width="0.576" x1="51.673" y2="29.289" x2="49.239"/>
      <line  fill="none" stroke="#FFFFFF" stroke-linecap="round" y1="26.018" stroke-width="0.576" x1="48.16" y2="24.496" x2="48.16"/>
     </g>
    </g>
   </g>
   <g >
    <g >
     <path  fill="#FFFFFF" d="M27.375,75.63l-0.252-0.557l-0.348-0.503l-0.432-0.433l-0.502-0.347l-0.557-0.253l-0.592-0.148l-0.61-0.039l-0.607,0.068l-0.584,0.177l-0.561,0.288c-0.012,0.007-0.023,0.012-0.036,0.017c-0.011,0.004-0.022,0.008-0.034,0.011l-3.404,0.898l-3.256,1.151l-0.688,0.758l-0.588,0.896l-0.441,0.979l-0.282,1.035l-0.117,1.066l0.051,1.072l0.219,1.049l0.38,1.005l0.532,0.932l0.667,0.831l0.808,0.658l0.908,0.527l0.98,0.381l1.026,0.221l1.049,0.058l1.045-0.106l1.016-0.269l0.961-0.424l0.883-0.569l0.751-0.672l0.9-2.151l0.755-2.263l0.588-2.317c0.003-0.013,0.007-0.026,0.012-0.039c0,0,0,0,0,0c0.004-0.012,0.009-0.022,0.015-0.033l0.288-0.562l0.177-0.585l0.07-0.606l-0.04-0.61L27.375,75.63z M20.217,84.657c-2.188,0-3.96-1.772-3.96-3.96c0-2.187,1.773-3.96,3.96-3.96c2.187,0,3.96,1.773,3.96,3.96C24.177,82.884,22.404,84.657,20.217,84.657z M27.317,22.89l-0.288-0.561c-0.006-0.011-0.012-0.023-0.016-0.036c-0.004-0.011-0.008-0.022-0.01-0.034l-0.898-3.404l-1.152-3.256l-0.757-0.688l-0.897-0.588l-0.979-0.441l-1.035-0.283l-1.066-0.117l-1.071,0.052l-1.051,0.218l-1.003,0.38l-0.932,0.533l-0.831,0.667l-0.659,0.809l-0.528,0.908l-0.379,0.98l-0.222,1.027l-0.058,1.049l0.107,1.045l0.269,1.015l0.424,0.961l0.569,0.882l0.673,0.751l2.15,0.899l2.263,0.756l2.316,0.587c0.013,0.003,0.026,0.007,0.04,0.012c0.011,0.004,0.022,0.009,0.033,0.015l0.562,0.288l0.585,0.177l0.607,0.069l0.61-0.04l0.593-0.149l0.557-0.252l0.502-0.348l0.433-0.432l0.348-0.502l0.252-0.557l0.149-0.593l0.04-0.61l-0.07-0.607L27.317,22.89z M20.217,24.177c-2.188,0-3.96-1.773-3.96-3.96c0-2.188,1.773-3.96,3.96-3.96c2.187,0,3.96,1.773,3.96,3.96C24.177,22.404,22.404,24.177,20.217,24.177z M73.539,25.284l0.252,0.557l0.347,0.501l0.434,0.433l0.502,0.348l0.558,0.252l0.592,0.149l0.61,0.04l0.606-0.069l0.585-0.177l0.562-0.288c0.011-0.006,0.022-0.011,0.035-0.016c0.011-0.004,0.022-0.008,0.034-0.01l3.404-0.898l3.256-1.152l0.688-0.757l0.589-0.897l0.441-0.979l0.281-1.035l0.117-1.067l-0.051-1.072l-0.219-1.05l-0.381-1.004l-0.532-0.931l-0.666-0.831l-0.808-0.658l-0.909-0.528l-0.979-0.379l-1.027-0.222l-1.049-0.058l-1.045,0.107l-1.016,0.269l-0.961,0.424l-0.884,0.569l-0.751,0.672l-0.898,2.151L74.5,19.939l-0.59,2.317c-0.003,0.013-0.006,0.025-0.011,0.037s-0.01,0.023-0.016,0.035l-0.287,0.562l-0.178,0.584l-0.07,0.607l0.041,0.61L73.539,25.284z M80.697,16.256c2.188,0,3.96,1.773,3.96,3.96c0,2.187-1.772,3.96-3.96,3.96c-2.187,0-3.96-1.773-3.96-3.96C76.737,18.029,78.51,16.256,80.697,16.256z M99.741,49.418l-0.268-1.016l-0.425-0.961l-0.569-0.883l-0.7-0.783l-0.814-0.664l-0.908-0.528l-0.98-0.379l-1.027-0.222l-1.006-0.056l-2.156,0.885l-2.136,1.066l-2.054,1.222c-0.011,0.007-0.021,0.013-0.033,0.018c-0.013,0.006-0.024,0.01-0.037,0.014l-0.6,0.194l-0.539,0.288l-0.479,0.38l-0.403,0.459l-0.313,0.524l-0.216,0.572l-0.109,0.601v0.612l0.109,0.601l0.216,0.571l0.313,0.525l0.403,0.459l0.479,0.379l0.539,0.288l0.6,0.193c0.012,0.004,0.023,0.008,0.034,0.013c0.012,0.006,0.023,0.012,0.034,0.018l3.041,1.772l3.117,1.488l1.022-0.049l1.051-0.219l1.004-0.38l0.93-0.531l0.838-0.673l0.722-0.794l0.589-0.896l0.44-0.979l0.281-1.036l0.117-1.059L99.741,49.418z M92.937,54.417c-2.188,0-3.96-1.772-3.96-3.96c0-2.187,1.772-3.96,3.96-3.96c2.187,0,3.96,1.773,3.96,3.96C96.897,52.644,95.124,54.417,92.937,54.417z M87.054,78.75l-0.424-0.961l-0.569-0.883l-0.673-0.751l-2.151-0.899L80.974,74.5l-2.316-0.589c-0.013-0.003-0.025-0.006-0.038-0.011c-0.012-0.005-0.023-0.011-0.035-0.017l-0.561-0.288l-0.585-0.177l-0.606-0.068l-0.61,0.039l-0.592,0.148l-0.558,0.253l-0.502,0.347l-0.434,0.433l-0.347,0.503l-0.252,0.557l-0.148,0.592l-0.041,0.61l0.07,0.606l0.178,0.585l0.287,0.562c0.005,0.011,0.01,0.021,0.015,0.031c0.005,0.013,0.009,0.025,0.012,0.038l0.898,3.404l1.152,3.256l0.756,0.688l0.897,0.588l0.979,0.441l1.035,0.281l1.066,0.117l1.072-0.051l1.049-0.219l1.005-0.381l0.932-0.532l0.831-0.666l0.658-0.808l0.527-0.909l0.381-0.979l0.221-1.026l0.058-1.049l-0.106-1.046L87.054,78.75z M80.697,84.657c-2.187,0-3.96-1.772-3.96-3.96c0-2.187,1.773-3.96,3.96-3.96c2.188,0,3.96,1.773,3.96,3.96C84.657,82.884,82.884,84.657,80.697,84.657z"/>
    </g>
   </g>
   <rect  width="4.32" x="77.097" y="48.657" fill="#FFFFFF" height="3.601" fill-opacity="0.15"/>
   <rect  width="8.929" x="60.322" y="25.086" fill="#FFFFFF" height="14.74" fill-opacity="0.15"/>
   <rect  width="6.52" x="32.797" y="28.97" fill="#FFFFFF" height="14.173" fill-opacity="0.15"/>
   <rect  width="8.221" x="31.946" y="51.137" fill="#FFFFFF" height="13.039" fill-opacity="0.15"/>
   <rect  width="13.039" x="43.937" y="31.946" fill="#FFFFFF" height="8.221" fill-opacity="0.15"/>
   <rect  width="5.669" x="62.022" y="43.653" fill="#FFFFFF" height="13.606" fill-opacity="0.15"/>
   <rect  width="1.296" x="71.409" y="49.377" fill="#FFFFFF" height="2.16" fill-opacity="0.15"/>
   <rect  width="3.514" x="48.16" y="21.225" fill="#FFFFFF" height="8.064" fill-opacity="0.15"/>
   <g  id="connector28pin">
    <path  fill="#9A916C" d="M92.937,47.715c1.512,0,2.741,1.229,2.741,2.741s-1.229,2.741-2.741,2.741s-2.741-1.229-2.741-2.741S91.425,47.715,92.937,47.715 M92.937,46.497c-2.188,0-3.96,1.773-3.96,3.96c0,2.188,1.772,3.96,3.96,3.96c2.187,0,3.96-1.772,3.96-3.96C96.897,48.27,95.124,46.497,92.937,46.497L92.937,46.497z"/>
   </g>
   <g  id="connector29pin">
    <path  fill="#9A916C" d="M20.217,77.956c1.512,0,2.741,1.229,2.741,2.741s-1.229,2.741-2.741,2.741s-2.742-1.229-2.742-2.741S18.705,77.956,20.217,77.956 M20.217,76.737c-2.188,0-3.96,1.773-3.96,3.96c0,2.188,1.773,3.96,3.96,3.96c2.187,0,3.96-1.772,3.96-3.96C24.177,78.51,22.404,76.737,20.217,76.737L20.217,76.737z"/>
   </g>
   <g  id="connector30pin">
    <path  fill="#9A916C" d="M80.697,77.956c1.512,0,2.741,1.229,2.741,2.741s-1.229,2.741-2.741,2.741s-2.741-1.229-2.741-2.741S79.185,77.956,80.697,77.956 M80.697,76.737c-2.187,0-3.96,1.773-3.96,3.96c0,2.188,1.773,3.96,3.96,3.96c2.188,0,3.96-1.772,3.96-3.96C84.657,78.51,82.884,76.737,80.697,76.737L80.697,76.737z"/>
   </g>
   <g  id="connector31pin">
    <path  fill="#9A916C" d="M80.697,17.475c1.512,0,2.741,1.23,2.741,2.742s-1.229,2.742-2.741,2.742s-2.741-1.23-2.741-2.742S79.185,17.475,80.697,17.475 M80.697,16.256c-2.187,0-3.96,1.773-3.96,3.96c0,2.187,1.773,3.96,3.96,3.96c2.188,0,3.96-1.773,3.96-3.96C84.657,18.029,82.884,16.256,80.697,16.256L80.697,16.256z"/>
   </g>
   <g  id="connector32pin">
    <path  fill="#9A916C" d="M20.217,17.475c1.512,0,2.742,1.23,2.742,2.742s-1.23,2.742-2.742,2.742s-2.742-1.23-2.742-2.742S18.705,17.475,20.217,17.475 M20.217,16.256c-2.188,0-3.96,1.773-3.96,3.96c0,2.187,1.773,3.96,3.96,3.96c2.187,0,3.96-1.773,3.96-3.96C24.177,18.029,22.404,16.256,20.217,16.256L20.217,16.256z"/>
   </g>
  </g>
  <g  id="ayz0202" transform="matrix(1, 0, 0, 1, 7.7814, 44.2542)">
   <g  transform="matrix(0, 1, -1, 0, 16.4404, -4.08748)">
    <g >
     <g >
      <polygon  fill="#B7B7B7" points="2.202,12.353 3.927,12.353 3.927,9.491 2.202,9.491 "/>
      <polygon  fill="#B7B7B7" points="9.402,12.353 11.125,12.353 11.125,9.491 9.402,9.491 "/>
      <polygon  fill="#B7B7B7" points="16.602,12.353 18.325,12.353 18.325,9.491 16.602,9.491 "/>
     </g>
     <g >
      <polygon  fill="#B7B7B7" points="2.202,2.861 3.927,2.861 3.927,0 2.202,0 "/>
      <polygon  fill="#B7B7B7" points="9.402,2.861 11.125,2.861 11.125,0 9.402,0 "/>
      <polygon  fill="#B7B7B7" points="16.602,2.861 18.325,2.861 18.325,0 16.602,0 "/>
     </g>
    </g>
    <rect  width="9.827" x="5.351" y="-4.088" fill="#1E1E1E" height="20.528" transform="matrix(2.578893e-06 1 -1 2.578893e-06 16.4406 -4.0878)"/>
    <rect  width="0.266" x="10.131" y="-3.213" height="10.642" transform="matrix(2.578893e-06 1 -1 2.578893e-06 12.372 -8.1559)"/>
    <path  fill="#898989" d="M19.003,4.096c-0.229,0-0.203-0.191-0.203-0.426V1.611h-3.65c-0.233,0-0.426,0.191-0.426,0.426v2.214c0,0.233-0.19,0.425-0.424,0.425H6.229c-0.233,0-0.425-0.191-0.425-0.425V2.037c0-0.234-0.191-0.426-0.425-0.426H1.73V3.67c0,0.234,0.024,0.426-0.203,0.426H0.249c-0.237,0-0.248,0.191-0.248,0.425v3.892c0,0.234,0.011,0.426,0.248,0.426h1.278c0.228,0,0.203,0.191,0.203,0.425v1.833h17.068V9.263c0-0.233-0.023-0.425,0.203-0.425h1.277c0.238,0,0.248-0.191,0.248-0.426V4.521c0-0.233-0.01-0.425-0.248-0.425H19.003z"/>
    <g >
     <path  opacity="0.3" fill="#FFFFFF" enable-background="new    " d="M0.249,8.832h0.239V4.089H0.249c-0.237,0-0.248,0.191-0.248,0.425v3.892C0.001,8.641,0.012,8.832,0.249,8.832z"/>
     <rect  width="4.743" x="-1.64" opacity="0.1" y="6.217" fill="#FFFFFF" height="0.487" enable-background="new    " transform="matrix(2.578893e-06 1 -1 2.578893e-06 7.192 5.7291)"/>
    </g>
    <g >
     <path  opacity="0.3" fill="#FFFFFF" enable-background="new    " d="M20.279,8.832H20.04V4.089h0.239c0.237,0,0.248,0.191,0.248,0.425v3.892C20.527,8.641,20.516,8.832,20.279,8.832z"/>
     <rect  width="4.743" x="17.425" opacity="0.1" y="6.217" fill="#FFFFFF" height="0.486" enable-background="new    " transform="matrix(2.578893e-06 1 -1 2.578893e-06 26.2572 -13.3361)"/>
    </g>
    <path  fill="#898989" d="M17.095,9.746c0,0.289-0.25,0.525-0.557,0.525H3.99c-0.307,0-0.557-0.236-0.557-0.525s0.25-0.525,0.557-0.525h12.548C16.845,9.221,17.095,9.457,17.095,9.746z"/>
    <g >
     <path  fill="#666666" d="M16.538,9.221H3.99c-0.307,0-0.557,0.236-0.557,0.525H3.67c0-0.158,0.143-0.287,0.319-0.287h12.548c0.177,0,0.319,0.129,0.319,0.287h0.236C17.095,9.457,16.845,9.221,16.538,9.221z"/>
     <path  opacity="0.3" fill="#FFFFFF" enable-background="new    " d="M16.538,10.033H3.99c-0.177,0-0.319-0.129-0.319-0.287H3.434c0,0.289,0.25,0.525,0.557,0.525h12.548c0.308,0,0.558-0.236,0.558-0.525h-0.238C16.856,9.904,16.714,10.033,16.538,10.033z"/>
    </g>
    <g >
     <path  opacity="0.3" fill="#FFFFFF" enable-background="new    " d="M0.001,1.263v2.125c0,0.158,0.011,0.287,0.248,0.287h0.239V1.263H0.001z"/>
     <rect  width="2.412" x="-0.475" opacity="0.1" y="2.225" fill="#FFFFFF" height="0.487" enable-background="new    " transform="matrix(2.578893e-06 1 -1 2.578893e-06 3.2003 1.7374)"/>
    </g>
    <g >
     <path  opacity="0.3" fill="#FFFFFF" enable-background="new    " d="M0.001,11.09V9.519c0-0.158,0.011-0.287,0.248-0.287h0.239v1.858H0.001z"/>
     <rect  width="1.858" x="-0.197" opacity="0.1" y="9.917" fill="#FFFFFF" height="0.487" enable-background="new    " transform="matrix(2.578893e-06 1 -1 2.578893e-06 10.8915 9.4285)"/>
    </g>
    <g >
     <path  opacity="0.3" fill="#FFFFFF" enable-background="new    " d="M20.528,1.263v2.125c0,0.158-0.012,0.287-0.248,0.287h-0.239V1.263H20.528z"/>
     <rect  width="2.412" x="18.591" opacity="0.1" y="2.225" fill="#FFFFFF" height="0.487" enable-background="new    " transform="matrix(2.578893e-06 1 -1 2.578893e-06 22.266 -17.3283)"/>
    </g>
    <g >
     <path  opacity="0.3" fill="#FFFFFF" enable-background="new    " d="M20.528,11.09V9.519c0-0.158-0.012-0.287-0.248-0.287h-0.239v1.858H20.528z"/>
     <rect  width="1.858" x="18.868" opacity="0.1" y="9.916" fill="#FFFFFF" height="0.487" enable-background="new    " transform="matrix(2.578893e-06 1 -1 2.578893e-06 29.9571 -9.6371)"/>
    </g>
    <path  fill="#232323" d="M14.287,4.197c0,0.156-0.128,0.284-0.282,0.284h-3.559c-0.156,0-0.284-0.127-0.284-0.284V1.965c0-0.156,0.127-0.284,0.284-0.284h3.559c0.154,0,0.282,0.127,0.282,0.284V4.197z"/>
    <g  opacity="0.2">
     <path  fill="none" stroke="#FFFFFF" stroke-linecap="round" stroke-width="0.1899" d="M10.404,4.28V2.053c0-0.093,0.076-0.17,0.17-0.17h3.471" stroke-miterlimit="10"/>
    </g>
    <g  opacity="0.2">
     <path  fill="none" stroke="#454545" stroke-linecap="round" stroke-width="0.1899" d="M14.046,1.882v2.227c0,0.093-0.076,0.17-0.17,0.17h-3.472" stroke-miterlimit="10"/>
    </g>
    <path  opacity="0.2" fill="none" stroke="#FFFFFF" stroke-linecap="round" enable-background="new    " stroke-width="0.1899" d="M11.694,3.612C11.4,3.319,11.4,2.843,11.692,2.55c0.294-0.294,0.771-0.293,1.062,0" stroke-miterlimit="10"/>
    <path  opacity="0.2" fill="none" stroke="#454545" stroke-linecap="round" enable-background="new    " stroke-width="0.1899" d="M12.755,2.55c0.295,0.293,0.295,0.769,0.002,1.062c-0.293,0.294-0.771,0.293-1.062,0" stroke-miterlimit="10"/>
   </g>
  </g>
  <g  id="jst-2-smd" transform="matrix(1, 0, 0, 1, 21.0642, 57.3355)">
   <g  transform="matrix(0, -1, 1, 0, 1.61147, 23.0625)">
    <g >
     <g >
      <g >
       <polygon  fill="#B7B7B7" points="10.144,32.08 10.144,30.355 5.085,30.355 5.085,32.08 "/>
       <polygon  fill="#B7B7B7" points="10.144,24.879 10.144,23.157 5.085,23.157 5.085,24.879 "/>
      </g>
     </g>
     <rect  width="24.675" x="-12.897" y="19.893" fill="#AD9E73" height="15.686" transform="matrix(-2.547107e-06 -1 1 -2.547107e-06 -28.295 27.176)"/>
     <g >
      <polygon  fill="#C2B990" points="3.9,20.333 3.9,22.294 2.887,22.294 2.887,33.11 3.9,33.11 3.9,34.934 7.281,34.934 7.281,20.333 "/>
     </g>
     <rect  width="18.591" x="-19.15" y="26.283" fill="#F1F3E6" height="2.905" transform="matrix(-2.547107e-06 -1 1 -2.547107e-06 -37.5904 17.8806)"/>
     <polygon  opacity="0.5" fill="#A0916B" points="3.896,34.934 3.896,33.11 2.881,33.11 2.881,22.294 3.896,22.294 3.896,20.333 1.017,20.333 1.017,22.294 1.017,33.11 1.017,34.934 " enable-background="new    "/>
     <rect  width="14.603" x="-10.48" opacity="0.1" y="25.013" fill="#FFFFFF" height="5.239" enable-background="new    " transform="matrix(-2.547107e-06 -1 1 -2.547107e-06 -30.812 24.4538)"/>
     <rect  width="14.603" x="-12.594" opacity="0.1" y="25.014" fill="#FFFFFF" height="5.238" enable-background="new    " transform="matrix(-2.547107e-06 -1 1 -2.547107e-06 -32.9258 22.3401)"/>
     <g >
      <g >
       <path  fill="#F1F3E6" d="M7.281,40.073h2.862v-3.042H7.281V40.073z"/>
      </g>
     </g>
     <g >
      <g >
       <path  fill="#F1F3E6" d="M7.281,18.44h2.862v-3.042H7.281V18.44z"/>
      </g>
     </g>
     <g >
      <g >
       <polygon  fill="#F1F3E6" points="-8.402,40.073 7.281,40.073 7.281,34.934 -5.291,34.934 -5.291,31.894 7.281,31.894 7.281,23.376 -5.291,23.376 -5.291,20.333 7.281,20.333 7.281,15.398 -8.402,15.398 "/>
      </g>
     </g>
     <rect  width="3.041" x="5.922" opacity="0.4" y="16.758" fill="#C2B990" height="0.322" enable-background="new    " transform="matrix(-2.547107e-06 -1 1 -2.547107e-06 -9.4771 24.362)"/>
     <rect  width="3.042" x="5.921" opacity="0.4" y="38.391" fill="#C2B990" height="0.322" enable-background="new    " transform="matrix(-2.547107e-06 -1 1 -2.547107e-06 -31.1094 45.9944)"/>
     <rect  width="3.041" x="-11.375" opacity="0.4" y="31.961" fill="#AD9E73" height="2.905" enable-background="new    " transform="matrix(-2.547107e-06 -1 1 -2.547107e-06 -43.2686 23.5588)"/>
     <rect  width="3.043" x="-11.376" opacity="0.4" y="20.401" fill="#AD9E73" height="2.905" enable-background="new    " transform="matrix(-2.547107e-06 -1 1 -2.547107e-06 -31.709 11.9992)"/>
    </g>
   </g>
  </g>
 </g>
</svg>
