<?xml version="1.0" encoding="utf-8"?>
<!DOCTYPE svg PUBLIC "-//W3C//DTD SVG 1.1 Basic//EN" "http://www.w3.org/Graphics/SVG/1.1/DTD/svg11-basic.dtd">
<svg version="1.1" baseProfile="basic" id="Layer_2"
	 xmlns="http://www.w3.org/2000/svg" xmlns:xlink="http://www.w3.org/1999/xlink" x="0px" y="0px" width="0.52in" height="0.32in"
	 viewBox="0 0 37.435 23.1" xml:space="preserve">
<rect id="connector5pin" x="0.028" y="0.001" fill="none" width="1.456" height="1.511"/>
<rect id="connector5terminal" x="0.028" y="0.001" fill="none" width="1.456" height="0.273"/>
<rect id="connector4pin" x="7.056" y="0.001" fill="none" width="1.458" height="1.511"/>
<rect id="connector4terminal" x="7.056" y="0.001" fill="none" width="1.457" height="0.273"/>
<rect id="connector3pin" x="35.942" y="0.001" fill="none" width="1.456" height="1.51"/>
<rect id="connector3terminal" x="35.942" y="0.001" fill="none" width="1.456" height="0.273"/>
<rect id="connector0pin" x="0.028" y="21.588" fill="none" width="1.457" height="1.51"/>
<rect id="connector0terminal" x="0.028" y="22.825" fill="none" width="1.457" height="0.273"/>
<rect id="connector1pin" x="7.056" y="21.588" fill="none" width="1.456" height="1.51"/>
<rect id="connector1terminal" x="7.056" y="22.825" fill="none" width="1.456" height="0.273"/>
<rect id="connector2pin" x="35.942" y="21.588" fill="none" width="1.457" height="1.51"/>
<rect id="connector2terminal" x="35.942" y="22.825" fill="none" width="1.457" height="0.273"/>
<g id="breadboard">
	<rect x="0.008" y="0.707" fill="#2D2D2D" width="37.425" height="21.684"/>
	<line fill="none" stroke="#606060" stroke-width="0.6551" x1="36.673" y1="2.905" x2="36.673" y2="22.262"/>
	<path fill="none" stroke="#606060" stroke-width="0.75" d="M0.757,2.906v3.811c0,0.642,0.525,1.167,1.167,1.167h3.264"/>
	<polygon fill="#B23820" points="4.628,8.968 4.982,8.191 2.015,8.191 2.371,8.968 	"/>
	<polygon fill="#B23820" points="4.545,11.429 5.002,10.707 2.061,10.305 2.309,11.123 	"/>
	<polygon fill="#B23820" points="2.602,8.963 2.145,9.684 5.086,10.086 4.838,9.269 	"/>
	<path fill="none" stroke="#606060" stroke-width="0.75" d="M0.757,22.342v-6.254c0-0.642,0.525-1.166,1.167-1.166h3.264"/>
	<polygon fill="#B23820" points="4.628,13.838 4.982,14.614 2.015,14.614 2.371,13.838 	"/>
	<rect y="21.584" fill="#8C8C8C" width="1.514" height="1.514"/>
	<rect x="35.921" y="21.584" fill="#8C8C8C" width="1.514" height="1.514"/>
	<line fill="none" stroke="#606060" stroke-width="0.75" x1="12.887" y1="11.304" x2="36.63" y2="11.304"/>
	<line fill="none" stroke="#494949" stroke-width="0.75" x1="13.388" y1="11.308" x2="23.912" y2="11.308"/>
	<path fill="none" stroke="#752119" stroke-width="0.75" stroke-linecap="round" d="M22.58,14.329
		c0.923,0.609-6.874,0.789-7.912,0.684"/>
	<path fill="none" stroke="#752119" stroke-width="0.75" stroke-linecap="round" d="M22.58,15.174
		c0.935,0.613-6.889,0.783-7.912,0.684"/>
	<path fill="none" stroke="#752119" stroke-width="0.75" stroke-linecap="round" d="M22.58,16.02
		c0.924,0.604-6.878,0.785-7.912,0.68"/>
	<path fill="none" stroke="#752119" stroke-width="0.75" stroke-linecap="round" d="M22.58,16.864
		c0.522,0.342-2.359,0.965-7.912,0.965"/>
	<path fill="none" stroke="#752119" stroke-width="0.75" stroke-linecap="round" d="M22.58,10.952
		c0.923,0.608-6.872,0.787-7.912,0.683"/>
	<path fill="none" stroke="#752119" stroke-width="0.75" stroke-linecap="round" d="M22.58,11.797
		c0.932,0.61-6.886,0.78-7.912,0.681"/>
	<path fill="none" stroke="#752119" stroke-width="0.75" stroke-linecap="round" d="M22.58,12.641
		c0.927,0.604-6.878,0.787-7.912,0.682"/>
	<path fill="none" stroke="#752119" stroke-width="0.75" stroke-linecap="round" d="M22.58,13.485
		c0.918,0.602-6.863,0.791-7.912,0.682"/>
	<path fill="none" stroke="#752119" stroke-width="0.75" stroke-linecap="round" d="M22.58,7.573
		c0.914,0.604-6.863,0.791-7.912,0.684"/>
	<path fill="none" stroke="#752119" stroke-width="0.75" stroke-linecap="round" d="M22.58,8.418
		c0.923,0.606-6.872,0.788-7.912,0.684"/>
	<path fill="none" stroke="#752119" stroke-width="0.75" stroke-linecap="round" d="M22.58,9.263
		c0.931,0.608-6.885,0.784-7.912,0.681"/>
	<path fill="none" stroke="#752119" stroke-width="0.75" stroke-linecap="round" d="M22.58,10.107
		c0.933,0.613-6.895,0.784-7.912,0.683"/>
	<path fill="none" stroke="#752119" stroke-width="0.75" stroke-linecap="round" d="M22.438,5.885
		c0.926,0.606-6.738,0.783-7.771,0.681"/>
	<path fill="none" stroke="#752119" stroke-width="0.75" stroke-linecap="round" d="M22.58,6.729
		c0.935,0.612-6.889,0.78-7.912,0.681"/>
	<path fill="none" stroke="#B23820" stroke-width="0.75" stroke-linecap="round" d="M14.668,6.589
		c2.521-0.529,5.238-0.596,7.988,0.25"/>
	<path fill="none" stroke="#B23820" stroke-width="0.75" stroke-linecap="round" d="M14.668,7.43
		c2.521-0.529,5.238-0.596,7.988,0.25"/>
	<path fill="none" stroke="#B23820" stroke-width="0.75" stroke-linecap="round" d="M14.668,8.271
		c2.521-0.529,5.238-0.596,7.988,0.25"/>
	<path fill="none" stroke="#B23820" stroke-width="0.75" stroke-linecap="round" d="M14.668,9.112
		c2.521-0.529,5.238-0.596,7.988,0.25"/>
	<path fill="none" stroke="#B23820" stroke-width="0.75" stroke-linecap="round" d="M14.668,9.954
		c2.521-0.529,5.238-0.596,7.988,0.25"/>
	<path fill="none" stroke="#B23820" stroke-width="0.75" stroke-linecap="round" d="M14.668,10.796
		c2.521-0.529,5.238-0.596,7.988,0.25"/>
	<path fill="none" stroke="#B23820" stroke-width="0.75" stroke-linecap="round" d="M14.668,11.637
		c2.521-0.529,5.238-0.596,7.988,0.25"/>
	<path fill="none" stroke="#B23820" stroke-width="0.75" stroke-linecap="round" d="M14.668,12.479
		c2.521-0.529,5.238-0.596,7.988,0.25"/>
	<path fill="none" stroke="#B23820" stroke-width="0.75" stroke-linecap="round" d="M14.668,13.319
		c2.521-0.529,5.238-0.596,7.988,0.25"/>
	<path fill="none" stroke="#B23820" stroke-width="0.75" stroke-linecap="round" d="M14.668,14.161
		c2.521-0.529,5.238-0.596,7.988,0.25"/>
	<path fill="none" stroke="#B23820" stroke-width="0.75" stroke-linecap="round" d="M14.668,15.002
		c2.521-0.529,5.238-0.596,7.988,0.25"/>
	<path fill="none" stroke="#B23820" stroke-width="0.75" stroke-linecap="round" d="M14.668,15.844
		c2.521-0.529,5.238-0.596,7.988,0.25"/>
	<path fill="none" stroke="#B23820" stroke-width="0.75" stroke-linecap="round" d="M14.668,16.698
		c2.521-0.529,5.238-0.596,7.988,0.25"/>
	<path fill="none" stroke="#B23820" stroke-width="0.75" stroke-linecap="round" d="M14.668,5.329c3.965,0,5.652-0.088,7.944,0.623"
		/>
	<path fill="none" stroke="#752119" stroke-width="0.7311" stroke-linecap="round" d="M7.833,22.342v-3.321
		c0-0.642,0.525-1.167,1.167-1.167h5.668"/>
	<line fill="none" stroke="#606060" stroke-width="0.6551" stroke-linecap="round" x1="36.674" y1="1.172" x2="36.673" y2="2.906"/>
	<line fill="none" stroke="#606060" stroke-width="0.75" stroke-linecap="round" x1="0.758" y1="1.172" x2="0.757" y2="2.906"/>
	<path fill="none" stroke="#B23820" stroke-width="0.75" stroke-linecap="round" d="M7.833,1.172v2.99
		c0,0.642,0.525,1.167,1.167,1.167h5.668"/>
	<line fill="none" stroke="#7C7C7C" stroke-width="0.75" x1="1.992" y1="9.989" x2="10.721" y2="11.183"/>
	<g>
		<path fill="#333333" d="M11.703,12.484c-0.651,0-1.181-0.53-1.181-1.181s0.53-1.18,1.181-1.18s1.181,0.529,1.181,1.18
			S12.354,12.484,11.703,12.484L11.703,12.484z"/>
		<path fill="#606060" d="M11.703,10.416c0.49,0,0.889,0.398,0.889,0.888c0,0.49-0.399,0.889-0.889,0.889s-0.889-0.398-0.889-0.889
			C10.814,10.814,11.213,10.416,11.703,10.416 M11.703,9.832c-0.813,0-1.473,0.659-1.473,1.472c0,0.813,0.659,1.472,1.473,1.472
			s1.473-0.659,1.473-1.472C13.176,10.491,12.517,9.832,11.703,9.832L11.703,9.832z"/>
	</g>
	<rect x="7.017" y="21.584" fill="#8C8C8C" width="1.514" height="1.514"/>
	<rect fill="#8C8C8C" width="1.514" height="1.514"/>
	<rect x="35.921" fill="#8C8C8C" width="1.514" height="1.514"/>
	<rect x="7.017" fill="#8C8C8C" width="1.514" height="1.514"/>
</g>
</svg>
