<?xml version='1.0' encoding='utf-8'?>
<!DOCTYPE svg PUBLIC '-//W3C//DTD SVG 1.1//EN' 'http://www.w3.org/Graphics/SVG/1.1/DTD/svg11.dtd'>
<!-- Generator: Adobe Illustrator 15.0.1, SVG Export Plug-In . SVG Version: 6.00 Build 0)  -->
<svg xmlns="http://www.w3.org/2000/svg" width="1.58228in" xml:space="preserve" xmlns:xml="http://www.w3.org/XML/1998/namespace" x="0px" version="1.1" y="0px" height="1.2in" viewBox="0 0 113.924 86.4" id="Ebene_1" enable-background="new 0 0 113.924 86.4">
 <desc >Fritzing breadboard generated by brd2svg</desc>
 <g  id="breadboard">
  <g  id="icon">
   <path  fill="#C62717" d="M2.324,86.4h111.6V0H2.324V86.4 M90.368,54.255c0-0.626,0.508-1.134,1.134-1.134c0.627,0,1.134,0.508,1.134,1.134c0,0.627-0.507,1.136-1.134,1.136C90.876,55.389,90.368,54.882,90.368,54.255z M72.936,36.822c0-0.626,0.507-1.134,1.135-1.134c0.626,0,1.134,0.508,1.134,1.134l0,0c0,0.626-0.508,1.134-1.134,1.134C73.443,37.956,72.936,37.448,72.936,36.822z M4.845,7.2C4.844,4.615,6.939,2.519,9.524,2.519c2.585-0.001,4.682,2.095,4.682,4.679c0,0.001,0,0.001,0,0.002c0.001,2.585-2.096,4.681-4.68,4.681c-2.585,0.001-4.681-2.095-4.681-4.679C4.845,7.201,4.845,7.201,4.845,7.2z M4.845,79.2c-0.001-2.585,2.094-4.681,4.679-4.681c2.585-0.001,4.682,2.095,4.682,4.679c0,0.001,0,0.001,0,0.002c0.001,2.585-2.096,4.681-4.68,4.681c-2.585,0.001-4.681-2.095-4.681-4.679C4.845,79.201,4.845,79.201,4.845,79.2z M102.044,7.2c0-2.585,2.095-4.68,4.68-4.68s4.682,2.095,4.682,4.68s-2.097,4.68-4.682,4.68S102.044,9.785,102.044,7.2z M102.044,79.2c0-2.585,2.095-4.68,4.68-4.68s4.682,2.095,4.682,4.68s-2.097,4.68-4.682,4.68S102.044,81.785,102.044,79.2z M15.448,36.964c0-0.704,0.57-1.274,1.275-1.274c0.704,0,1.275,0.57,1.275,1.274c0,0.705-0.571,1.275-1.275,1.275S15.448,37.669,15.448,36.964z M15.448,49.436c0-0.705,0.57-1.275,1.275-1.275c0.704,0,1.275,0.57,1.275,1.275c0,0.704-0.571,1.274-1.275,1.274C16.02,50.712,15.448,50.14,15.448,49.436z M108.884,68.4c-0.001-0.796,0.643-1.441,1.438-1.442c0.795-0.001,1.439,0.644,1.44,1.438c0,0.001,0,0.002,0,0.004c0.001,0.795-0.643,1.439-1.438,1.44c-0.796,0.002-1.441-0.643-1.442-1.438C108.884,68.403,108.884,68.401,108.884,68.4z M108.884,61.2c-0.001-0.795,0.643-1.44,1.438-1.442c0.795-0.001,1.439,0.645,1.44,1.438c0,0.001,0,0.003,0,0.004c0.001,0.795-0.643,1.44-1.438,1.442c-0.796,0.001-1.441-0.645-1.442-1.438C108.884,61.203,108.884,61.201,108.884,61.2z M108.884,54c-0.001-0.795,0.643-1.439,1.438-1.44c0.795-0.002,1.439,0.643,1.44,1.438c0,0.001,0,0.003,0,0.004c0.001,0.796-0.643,1.441-1.438,1.442c-0.796,0.001-1.441-0.644-1.442-1.438C108.884,54.003,108.884,54.002,108.884,54z M108.884,46.8c-0.001-0.795,0.643-1.439,1.438-1.44c0.795-0.001,1.439,0.643,1.44,1.438c0,0.002,0,0.003,0,0.004c0.001,0.797-0.643,1.441-1.438,1.442c-0.796,0.001-1.441-0.643-1.442-1.438C108.884,46.802,108.884,46.802,108.884,46.8z M108.884,39.6c-0.001-0.796,0.643-1.441,1.438-1.442c0.795-0.001,1.439,0.643,1.44,1.438c0,0.001,0,0.002,0,0.004c0.001,0.795-0.643,1.439-1.438,1.44c-0.796,0.001-1.441-0.643-1.442-1.438C108.884,39.602,108.884,39.601,108.884,39.6z M108.884,32.4c-0.001-0.796,0.643-1.441,1.438-1.442c0.795-0.001,1.439,0.644,1.44,1.438c0,0.001,0,0.002,0,0.004c0.001,0.795-0.643,1.439-1.438,1.44c-0.796,0.002-1.441-0.643-1.442-1.438C108.884,32.403,108.884,32.401,108.884,32.4z M108.884,25.2c-0.001-0.795,0.643-1.44,1.438-1.442c0.795-0.001,1.439,0.645,1.44,1.438c0,0.001,0,0.003,0,0.004c0.001,0.795-0.643,1.44-1.438,1.442c-0.796,0.001-1.441-0.645-1.442-1.438C108.884,25.203,108.884,25.201,108.884,25.2z M108.884,18c-0.001-0.795,0.643-1.439,1.438-1.44c0.795-0.002,1.439,0.643,1.44,1.438c0,0.001,0,0.003,0,0.004c0.001,0.796-0.643,1.441-1.438,1.442c-0.796,0.001-1.441-0.644-1.442-1.438C108.884,18.003,108.884,18.002,108.884,18z"/>
   <g >
    <title >layer 21</title>
    <g >
     <title >text:RFID USB</title>
     <text  fill="#FFFFFF" font-family="OCRA" transform="matrix(1 0 0 1 23.5652 82.7996)" font-size="6.6816">RFID USB</text>
    </g>
    <g >
     <title >text:Read</title>
     <text  fill="#FFFFFF" font-family="OCRA" transform="matrix(1 0 0 1 63.884 6.4792)" font-size="4.176">Read</text>
    </g>
    <g >
     <title >element:C1</title>
     <g >
      <title >package:C0402</title>
     </g>
    </g>
    <g >
     <title >element:C2</title>
     <g >
      <title >package:C0402</title>
     </g>
    </g>
    <g >
     <title >element:C3</title>
     <g >
      <title >package:C0402</title>
     </g>
    </g>
    <g >
     <title >element:C4</title>
     <g >
      <title >package:EIA3216</title>
      <line  fill="none" stroke="#FFFFFF" stroke-linecap="round" y1="17.802" stroke-width="0.576" x1="49.89" y2="17.802" x2="45.638"/>
      <line  fill="none" stroke="#FFFFFF" stroke-linecap="round" y1="17.802" stroke-width="0.576" x1="45.638" y2="10.999" x2="45.638"/>
      <line  fill="none" stroke="#FFFFFF" stroke-linecap="round" y1="10.999" stroke-width="0.576" x1="45.638" y2="10.999" x2="49.89"/>
      <line  fill="none" stroke="#FFFFFF" stroke-linecap="round" y1="17.802" stroke-width="0.576" x1="55.559" y2="17.802" x2="58.677"/>
      <line  fill="none" stroke="#FFFFFF" stroke-linecap="round" y1="17.802" stroke-width="0.576" x1="58.677" y2="16.668" x2="59.811"/>
      <line  fill="none" stroke="#FFFFFF" stroke-linecap="round" y1="16.668" stroke-width="0.576" x1="59.811" y2="12.133" x2="59.811"/>
      <line  fill="none" stroke="#FFFFFF" stroke-linecap="round" y1="12.133" stroke-width="0.576" x1="59.811" y2="10.999" x2="58.677"/>
      <line  fill="none" stroke="#FFFFFF" stroke-linecap="round" y1="10.999" stroke-width="0.576" x1="58.677" y2="10.999" x2="55.559"/>
     </g>
    </g>
    <g >
     <title >element:JP1</title>
     <g >
      <title >package:1X08</title>
      <line  fill="none" stroke="#FFFFFF" stroke-linecap="round" y1="27" stroke-width="0.576" x1="106.724" y2="23.4" x2="106.724"/>
      <line  fill="none" stroke="#FFFFFF" stroke-linecap="round" y1="23.4" stroke-width="0.576" x1="106.724" y2="21.6" x2="108.524"/>
      <line  fill="none" stroke="#FFFFFF" stroke-linecap="round" y1="21.6" stroke-width="0.576" x1="112.124" y2="23.4" x2="113.924"/>
      <line  fill="none" stroke="#FFFFFF" stroke-linecap="round" y1="36" stroke-width="0.576" x1="108.524" y2="34.2" x2="106.724"/>
      <line  fill="none" stroke="#FFFFFF" stroke-linecap="round" y1="34.2" stroke-width="0.576" x1="106.724" y2="30.6" x2="106.724"/>
      <line  fill="none" stroke="#FFFFFF" stroke-linecap="round" y1="30.6" stroke-width="0.576" x1="106.724" y2="28.8" x2="108.524"/>
      <line  fill="none" stroke="#FFFFFF" stroke-linecap="round" y1="28.8" stroke-width="0.576" x1="112.124" y2="30.6" x2="113.924"/>
      <line  fill="none" stroke="#FFFFFF" stroke-linecap="round" y1="30.6" stroke-width="0.576" x1="113.924" y2="34.2" x2="113.924"/>
      <line  fill="none" stroke="#FFFFFF" stroke-linecap="round" y1="34.2" stroke-width="0.576" x1="113.924" y2="36" x2="112.124"/>
      <line  fill="none" stroke="#FFFFFF" stroke-linecap="round" y1="27" stroke-width="0.576" x1="106.724" y2="28.8" x2="108.524"/>
      <line  fill="none" stroke="#FFFFFF" stroke-linecap="round" y1="28.8" stroke-width="0.576" x1="112.124" y2="27" x2="113.924"/>
      <line  fill="none" stroke="#FFFFFF" stroke-linecap="round" y1="23.4" stroke-width="0.576" x1="113.924" y2="27" x2="113.924"/>
      <line  fill="none" stroke="#FFFFFF" stroke-linecap="round" y1="48.6" stroke-width="0.576" x1="106.724" y2="45" x2="106.724"/>
      <line  fill="none" stroke="#FFFFFF" stroke-linecap="round" y1="45" stroke-width="0.576" x1="106.724" y2="43.2" x2="108.524"/>
      <line  fill="none" stroke="#FFFFFF" stroke-linecap="round" y1="43.2" stroke-width="0.576" x1="112.124" y2="45" x2="113.924"/>
      <line  fill="none" stroke="#FFFFFF" stroke-linecap="round" y1="43.2" stroke-width="0.576" x1="108.524" y2="41.4" x2="106.724"/>
      <line  fill="none" stroke="#FFFFFF" stroke-linecap="round" y1="41.4" stroke-width="0.576" x1="106.724" y2="37.8" x2="106.724"/>
      <line  fill="none" stroke="#FFFFFF" stroke-linecap="round" y1="37.8" stroke-width="0.576" x1="106.724" y2="36" x2="108.524"/>
      <line  fill="none" stroke="#FFFFFF" stroke-linecap="round" y1="36" stroke-width="0.576" x1="112.124" y2="37.8" x2="113.924"/>
      <line  fill="none" stroke="#FFFFFF" stroke-linecap="round" y1="37.8" stroke-width="0.576" x1="113.924" y2="41.4" x2="113.924"/>
      <line  fill="none" stroke="#FFFFFF" stroke-linecap="round" y1="41.4" stroke-width="0.576" x1="113.924" y2="43.2" x2="112.124"/>
      <line  fill="none" stroke="#FFFFFF" stroke-linecap="round" y1="57.6" stroke-width="0.576" x1="108.524" y2="55.8" x2="106.724"/>
      <line  fill="none" stroke="#FFFFFF" stroke-linecap="round" y1="55.8" stroke-width="0.576" x1="106.724" y2="52.2" x2="106.724"/>
      <line  fill="none" stroke="#FFFFFF" stroke-linecap="round" y1="52.2" stroke-width="0.576" x1="106.724" y2="50.4" x2="108.524"/>
      <line  fill="none" stroke="#FFFFFF" stroke-linecap="round" y1="50.4" stroke-width="0.576" x1="112.124" y2="52.2" x2="113.924"/>
      <line  fill="none" stroke="#FFFFFF" stroke-linecap="round" y1="52.2" stroke-width="0.576" x1="113.924" y2="55.8" x2="113.924"/>
      <line  fill="none" stroke="#FFFFFF" stroke-linecap="round" y1="55.8" stroke-width="0.576" x1="113.924" y2="57.6" x2="112.124"/>
      <line  fill="none" stroke="#FFFFFF" stroke-linecap="round" y1="48.6" stroke-width="0.576" x1="106.724" y2="50.4" x2="108.524"/>
      <line  fill="none" stroke="#FFFFFF" stroke-linecap="round" y1="50.4" stroke-width="0.576" x1="112.124" y2="48.6" x2="113.924"/>
      <line  fill="none" stroke="#FFFFFF" stroke-linecap="round" y1="45" stroke-width="0.576" x1="113.924" y2="48.6" x2="113.924"/>
      <line  fill="none" stroke="#FFFFFF" stroke-linecap="round" y1="70.2" stroke-width="0.576" x1="106.724" y2="66.6" x2="106.724"/>
      <line  fill="none" stroke="#FFFFFF" stroke-linecap="round" y1="66.6" stroke-width="0.576" x1="106.724" y2="64.8" x2="108.524"/>
      <line  fill="none" stroke="#FFFFFF" stroke-linecap="round" y1="64.8" stroke-width="0.576" x1="112.124" y2="66.6" x2="113.924"/>
      <line  fill="none" stroke="#FFFFFF" stroke-linecap="round" y1="64.8" stroke-width="0.576" x1="108.524" y2="63" x2="106.724"/>
      <line  fill="none" stroke="#FFFFFF" stroke-linecap="round" y1="63" stroke-width="0.576" x1="106.724" y2="59.4" x2="106.724"/>
      <line  fill="none" stroke="#FFFFFF" stroke-linecap="round" y1="59.4" stroke-width="0.576" x1="106.724" y2="57.6" x2="108.524"/>
      <line  fill="none" stroke="#FFFFFF" stroke-linecap="round" y1="57.6" stroke-width="0.576" x1="112.124" y2="59.4" x2="113.924"/>
      <line  fill="none" stroke="#FFFFFF" stroke-linecap="round" y1="59.4" stroke-width="0.576" x1="113.924" y2="63" x2="113.924"/>
      <line  fill="none" stroke="#FFFFFF" stroke-linecap="round" y1="63" stroke-width="0.576" x1="113.924" y2="64.8" x2="112.124"/>
      <line  fill="none" stroke="#FFFFFF" stroke-linecap="round" y1="72" stroke-width="0.576" x1="108.524" y2="72" x2="112.124"/>
      <line  fill="none" stroke="#FFFFFF" stroke-linecap="round" y1="70.2" stroke-width="0.576" x1="106.724" y2="72" x2="108.524"/>
      <line  fill="none" stroke="#FFFFFF" stroke-linecap="round" y1="72" stroke-width="0.576" x1="112.124" y2="70.2" x2="113.924"/>
      <line  fill="none" stroke="#FFFFFF" stroke-linecap="round" y1="66.6" stroke-width="0.576" x1="113.924" y2="70.2" x2="113.924"/>
      <line  fill="none" stroke="#FFFFFF" stroke-linecap="round" y1="19.8" stroke-width="0.576" x1="106.724" y2="16.2" x2="106.724"/>
      <line  fill="none" stroke="#FFFFFF" stroke-linecap="round" y1="16.2" stroke-width="0.576" x1="106.724" y2="14.4" x2="108.524"/>
      <line  fill="none" stroke="#FFFFFF" stroke-linecap="round" y1="14.4" stroke-width="0.576" x1="108.524" y2="14.4" x2="112.124"/>
      <line  fill="none" stroke="#FFFFFF" stroke-linecap="round" y1="14.4" stroke-width="0.576" x1="112.124" y2="16.2" x2="113.924"/>
      <line  fill="none" stroke="#FFFFFF" stroke-linecap="round" y1="19.8" stroke-width="0.576" x1="106.724" y2="21.6" x2="108.524"/>
      <line  fill="none" stroke="#FFFFFF" stroke-linecap="round" y1="21.6" stroke-width="0.576" x1="112.124" y2="19.8" x2="113.924"/>
      <line  fill="none" stroke="#FFFFFF" stroke-linecap="round" y1="16.2" stroke-width="0.576" x1="113.924" y2="19.8" x2="113.924"/>
     </g>
    </g>
    <g >
     <title >element:JP2</title>
     <g >
      <title >package:1X01NS</title>
     </g>
    </g>
    <g >
     <title >element:LED1</title>
     <g >
      <title >package:LED-0603</title>
      <line  fill="none" stroke="#FFFFFF" stroke-linecap="round" y1="6.344" stroke-width="0.576" x1="82.007" y2="5.04" x2="82.007"/>
      <line  fill="none" stroke="#FFFFFF" stroke-linecap="round" y1="3.736" stroke-width="0.576" x1="82.007" y2="5.04" x2="82.007"/>
      <line  fill="none" stroke="#FFFFFF" stroke-linecap="round" y1="5.04" stroke-width="0.576" x1="82.007" y2="5.919" x2="81.127"/>
      <line  fill="none" stroke="#FFFFFF" stroke-linecap="round" y1="5.04" stroke-width="0.576" x1="82.034" y2="4.133" x2="81.127"/>
      <line  fill="none" stroke="#FFFFFF" stroke-linecap="round" y1="4.133" stroke-width="0.576" x1="81.127" y2="5.919" x2="81.127"/>
     </g>
    </g>
    <g >
     <title >element:Q1</title>
     <g >
      <title >package:SOT23-3</title>
      <line  fill="none" stroke="#FFFFFF" stroke-linecap="round" y1="45.184" stroke-width="0.576" x1="69.392" y2="45.184" x2="71.093"/>
      <line  fill="none" stroke="#FFFFFF" stroke-linecap="round" y1="45.184" stroke-width="0.576" x1="71.093" y2="42.917" x2="71.093"/>
      <line  fill="none" stroke="#FFFFFF" stroke-linecap="round" y1="45.184" stroke-width="0.576" x1="64.857" y2="45.184" x2="63.156"/>
      <line  fill="none" stroke="#FFFFFF" stroke-linecap="round" y1="45.184" stroke-width="0.576" x1="63.156" y2="42.917" x2="63.156"/>
     </g>
    </g>
    <g >
     <title >element:R1</title>
     <g >
      <title >package:C0402</title>
     </g>
    </g>
    <g >
     <title >element:R2</title>
     <g >
      <title >package:C0402</title>
     </g>
    </g>
    <g >
     <title >element:SG1</title>
     <g >
      <title >package:BUZZER-CCV</title>
      <path  fill="none" stroke="#FFFFFF" stroke-width="0.576" d="M72.884,39.6c-1.91,6.391,1.457,13.168,7.705,15.505"/>
      <path  fill="none" stroke="#FFFFFF" stroke-width="0.576" d="M80.446,31.32c-1.784,0.715-3.384,1.822-4.682,3.24"/>
      <path  fill="none" stroke="#FFFFFF" stroke-width="0.576" d="M95.614,35.83c-1.526-2.033-3.588-3.604-5.952-4.535"/>
      <path  fill="none" stroke="#FFFFFF" stroke-width="0.576" d="M93.764,52.56c0.596-0.604,1.12-1.271,1.565-1.99"/>
      <line  fill="none" stroke="#FFFFFF" stroke-linecap="round" y1="50.57" stroke-width="0.576" x1="102.132" y2="35.83" x2="102.132"/>
      <line  fill="none" stroke="#FFFFFF" stroke-linecap="round" y1="35.83" stroke-width="0.576" x1="102.132" y2="35.83" x2="95.614"/>
      <line  fill="none" stroke="#FFFFFF" stroke-linecap="round" y1="50.57" stroke-width="0.576" x1="102.132" y2="50.57" x2="95.329"/>
     </g>
    </g>
    <g >
     <title >element:SJ1</title>
     <g >
      <title >package:SJ_2S</title>
      <line  fill="none" stroke="#FFFFFF" stroke-linecap="round" y1="68.4" stroke-width="0.432" x1="91.605" y2="73.08" x2="91.605"/>
      <path  fill="none" stroke="#FFFFFF" stroke-width="0.432" d="M86.565,67.68c-0.397,0-0.721,0.321-0.721,0.72l0,0"/>
      <path  fill="none" stroke="#FFFFFF" stroke-width="0.432" d="M85.844,73.08c0,0.397,0.322,0.72,0.721,0.72l0,0"/>
      <path  fill="none" stroke="#FFFFFF" stroke-width="0.432" d="M90.884,73.8c0.397,0,0.721-0.321,0.721-0.72l0,0"/>
      <path  fill="none" stroke="#FFFFFF" stroke-width="0.432" d="M91.605,68.4c0-0.397-0.322-0.72-0.721-0.72l0,0"/>
      <line  fill="none" stroke="#FFFFFF" stroke-linecap="round" y1="67.68" stroke-width="0.432" x1="90.884" y2="67.68" x2="86.565"/>
      <line  fill="none" stroke="#FFFFFF" stroke-linecap="round" y1="73.8" stroke-width="0.432" x1="90.884" y2="73.8" x2="86.565"/>
      <line  fill="none" stroke="#FFFFFF" stroke-linecap="round" y1="73.08" stroke-width="0.432" x1="85.844" y2="68.4" x2="85.844"/>
     </g>
    </g>
    <g >
     <title >element:U$1</title>
     <g >
      <title >package:SFE-NEW-WEBLOGO</title>
     </g>
    </g>
    <g >
     <title >element:U$4</title>
     <g >
      <title >package:STAND-OFF</title>
     </g>
    </g>
    <g >
     <title >element:U$5</title>
     <g >
      <title >package:STAND-OFF</title>
     </g>
    </g>
    <g >
     <title >element:U$6</title>
     <g >
      <title >package:STAND-OFF</title>
     </g>
    </g>
    <g >
     <title >element:U$7</title>
     <g >
      <title >package:STAND-OFF</title>
     </g>
    </g>
    <g >
     <title >element:U$8</title>
     <g >
      <title >package:SFE-LOGO-FLAME</title>
      <g >
       <title >polygon</title>
       <path  fill="none" stroke="#FFFFFF" stroke-linecap="round" stroke-width="0.072" d="M75.873,77.422L75.738,77.4 M75.738,77.4l-0.268-0.021 M75.47,77.379L75.202,77.4 M75.202,77.4l-0.197,0.052 M75.005,77.452l-0.184,0.092 M74.823,77.544L74.66,77.67 M74.659,77.67l-0.134,0.155 M74.527,77.825l-0.113,0.207 M74.412,78.032l-0.068,0.227 M74.344,78.259l-0.019,0.235 M74.325,78.494v4.299 M74.325,82.793l1.381-1.555 M75.706,81.238l0.247-0.226 M75.953,81.012l0.287-0.172 M76.24,80.842l0.104-0.037 M76.345,80.802l0.111-0.02 M76.456,80.784h0.646 M77.104,80.784l0.388-0.035 M77.49,80.749l0.373-0.104 M77.865,80.644l0.35-0.17 M78.213,80.474l0.327-0.231 M78.54,80.243l0.293-0.275 M78.833,79.968l0.251-0.312 M79.084,79.654l0.268-0.479 M79.352,79.177l0.18-0.517 M79.531,78.66l0.081-0.541 M79.613,78.119l-0.018-0.546 M79.595,77.573l-0.059-0.295 M79.536,77.278l-0.103-0.282 M79.435,76.996l-0.142-0.266 M79.293,76.73l-0.258-0.322 M79.035,76.408l-0.318-0.261 M78.717,76.147v0.252 M78.717,76.399l-0.006,0.041 M78.711,76.44l-0.018,0.038 M78.696,76.478l-0.084,0.104 M78.612,76.583l-0.109,0.075 M78.501,76.658l-0.06,0.022 M78.443,76.68l-0.161,0.017 M78.281,76.697l-0.16-0.029 M78.12,76.668l-0.146-0.074 M77.975,76.594l-0.259-0.188 M77.716,76.406l-0.12-0.104 M77.596,76.302l-0.103-0.119 M77.493,76.183l-0.084-0.136 M77.409,76.049l-0.062-0.146 M77.349,75.902l-0.019-0.093 M77.33,75.809l0.004-0.095 M77.334,75.716l0.047-0.155 M77.381,75.559l0.086-0.14 M77.467,75.421l0.119-0.11 M77.586,75.309l0.145-0.076 M77.731,75.233l0.146-0.041 M77.875,75.192l0.149-0.018 M78.026,75.176h0.174 M78.198,75.176L78.198,75.176 M78.198,75.176l-0.008-0.008 M78.191,75.168l-0.123-0.096 M78.068,75.072l-0.143-0.062 M77.925,75.01l-0.101-0.043 M77.824,74.967l-0.065-0.028 M77.759,74.937l-0.249-0.062 M77.51,74.876l-0.255-0.023 M77.255,74.851l-0.247,0.019 M77.008,74.87l-0.237,0.065 M76.771,74.935l-0.221,0.109 M76.55,75.046l-0.221,0.158 M76.329,75.204l-0.197,0.188 M76.132,75.391l-0.122,0.171 M76.01,75.562l-0.076,0.195 M75.934,75.759l-0.023,0.209 M75.909,75.968l0.027,0.208 M75.938,76.176l0.079,0.195 M76.017,76.371l0.336,0.498 M76.353,76.869l0.413,0.438 M76.766,77.306l0.108,0.127 M76.874,77.433l0.071,0.15 M76.947,77.585l0.03,0.164 M76.977,77.749l-0.013,0.167 M76.964,77.916l-0.056,0.159 M76.908,78.075l-0.096,0.138 M76.814,78.213l-0.127,0.109 M76.687,78.322l-0.16,0.086 M76.527,78.408l-0.172,0.058 M76.355,78.466l-0.18,0.028 M76.175,78.494l-0.21-0.01 M75.965,78.484l-0.201-0.062 M75.764,78.423l-0.179-0.107 M75.585,78.314l-0.096-0.101 M75.49,78.215l-0.062-0.123 M75.427,78.092l-0.028-0.126 M75.399,77.966v-0.13 M75.399,77.836l0.028-0.126 M75.427,77.71l0.024-0.049 M75.451,77.661l0.039-0.038 M75.49,77.623l0.237-0.173 M75.729,77.45l0.045-0.023 M75.774,77.427l0.05-0.01 M75.823,77.417l0.051,0.005 M74.325,82.728h0.058 M74.325,82.656h0.121 M74.325,82.584h0.185 M74.325,82.512h0.249 M74.325,82.44h0.312 M74.325,82.368h0.377 M74.325,82.296h0.439 M74.325,82.224h0.505 M74.325,82.152h0.568 M74.325,82.08h0.633 M74.325,82.008h0.695 M74.325,81.936h0.761 M74.325,81.864h0.823 M74.325,81.792h0.889 M74.325,81.719h0.953 M74.325,81.648h1.017 M74.325,81.576h1.08 M74.325,81.504h1.145 M74.325,81.432h1.208 M74.325,81.36h1.271 M74.325,81.288h1.337 M74.325,81.216h1.404 M74.325,81.144h1.482 M74.325,81.072h1.562 M74.325,81h1.647 M74.325,80.927h1.77 M74.325,80.856h1.891 M74.325,80.784h2.777 M74.325,80.712h3.297 M74.325,80.64h3.548 M74.325,80.568h3.694 M74.325,80.496h3.843 M74.325,80.424h3.959 M74.325,80.352h4.061 M74.325,80.28h4.162 M74.325,80.208h4.252 M74.325,80.135h4.329 M74.325,80.064h4.404 M74.325,79.992h4.48 M74.325,79.92h4.546 M74.325,79.848h4.604 M74.325,79.776h4.661 M74.325,79.704h4.718 M74.325,79.632h4.771 M74.325,79.56h4.811 M74.325,79.488h4.852 M74.325,79.416h4.892 M74.325,79.344h4.933 M74.325,79.272h4.974 M74.325,79.2h5.014 M74.325,79.128h5.044 M74.325,79.056h5.067 M74.325,78.984h5.094 M74.325,78.912h5.117 M74.325,78.84h5.143 M74.325,78.768h5.168 M74.325,78.696h5.191 M74.325,78.624h5.21 M74.325,78.552h5.221 M74.326,78.48h1.626 M76.266,78.48h3.291 M74.332,78.408h1.407 M76.526,78.408h3.042 M74.338,78.336h1.283 M76.659,78.336h2.919 M74.344,78.264h1.193 M76.753,78.264h2.836 M74.365,78.192h1.113 M76.827,78.192H79.6 M74.386,78.12h1.056 M76.876,78.12h2.735 M74.407,78.048h1.01 M76.917,78.048h2.691 M74.444,77.976h0.957 M76.943,77.976h2.665 M74.484,77.904h0.915 M76.964,77.904h2.642 M74.523,77.832h0.876 M76.97,77.832h2.634 M74.582,77.76h0.833 M76.976,77.76h2.625 M74.643,77.688h0.795 M76.965,77.688h2.634 M74.728,77.616H75.5 M76.951,77.616h2.645 M74.822,77.544H75.6 M76.926,77.544h2.663 M74.965,77.472h0.733 M76.892,77.472h2.685 M75.202,77.4h0.534 M76.845,77.4h2.716 M76.783,77.328h2.763 M76.717,77.256h2.812 M76.65,77.184h2.854 M76.582,77.112h2.895 M76.514,77.04h2.938 M76.448,76.968h2.974 M76.378,76.896h3.003 M76.323,76.824h3.021 M76.274,76.752h3.031 M76.226,76.68h1.961 M78.443,76.68h0.812 M76.177,76.608h1.826 M78.573,76.608h0.622 M76.128,76.536h1.768 M78.649,76.536h0.489 M76.079,76.464h1.717 M78.701,76.464h0.379 M76.031,76.392h1.667 M78.717,76.392h0.299 M75.996,76.32h1.619 M78.717,76.32h0.211 M75.967,76.248h1.581 M78.717,76.248h0.123 M75.938,76.176h1.552 M78.717,76.176h0.035 M75.928,76.104h1.516 M75.918,76.032h1.483 M75.91,75.96h1.462 M75.919,75.888h1.427 M75.928,75.816h1.403 M75.94,75.744h1.395 M75.967,75.672h1.38 M75.995,75.6h1.374 M76.034,75.528H77.4 M76.085,75.456h1.36 M76.139,75.384h1.368 M76.216,75.312h1.367 M76.291,75.24h1.426 M76.38,75.168h1.811 M76.48,75.096h1.619 M76.593,75.024h1.365 M76.739,74.952h1.055 M76.972,74.88h0.558"/>
      </g>
     </g>
    </g>
    <g >
     <title >element:U1</title>
     <g >
      <title >package:SSOP28DB</title>
      <line  fill="none" stroke="#FFFFFF" stroke-linecap="round" y1="51.491" stroke-width="0.432" x1="60.265" y2="51.491" x2="30.784"/>
      <line  fill="none" stroke="#FFFFFF" stroke-linecap="round" y1="51.491" stroke-width="0.432" x1="30.784" y2="34.909" x2="30.784"/>
      <line  fill="none" stroke="#FFFFFF" stroke-linecap="round" y1="34.909" stroke-width="0.432" x1="30.784" y2="34.909" x2="60.265"/>
      <line  fill="none" stroke="#FFFFFF" stroke-linecap="round" y1="34.909" stroke-width="0.432" x1="60.265" y2="51.491" x2="60.265"/>
      <circle  fill="none" cx="57.501" cy="37.673" stroke="#FFFFFF" r="1.303" stroke-width="0.432"/>
     </g>
    </g>
    <g >
     <title >element:U2</title>
     <g >
      <title >package:C0402</title>
     </g>
    </g>
    <g >
     <title >element:U3</title>
     <g >
      <title >package:ID-12</title>
     </g>
    </g>
    <g >
     <title >element:X1</title>
     <g >
      <title >package:USB-MINIB</title>
      <line  fill="none" stroke="#FFFFFF" stroke-linecap="round" y1="32.427" stroke-width="0.576" x1="13.039" y2="32.427" x2="18.992"/>
      <line  fill="none" stroke="#FFFFFF" stroke-linecap="round" y1="34.413" stroke-width="0.576" x1="26.079" y2="36.964" x2="26.079"/>
      <line  fill="none" stroke="#FFFFFF" stroke-linecap="round" y1="49.436" stroke-width="0.576" x1="26.079" y2="51.987" x2="26.079"/>
      <line  fill="none" stroke="#FFFFFF" stroke-linecap="round" y1="53.971" stroke-width="0.576" x1="18.992" y2="53.971" x2="13.039"/>
     </g>
    </g>
   </g>
   <rect  width="14.173" x="45.638" y="10.999" fill="#FFFFFF" height="6.803" fill-opacity="0.15"/>
   <rect  width="0.907" x="81.127" y="3.736" fill="#FFFFFF" height="2.606" fill-opacity="0.15"/>
   <rect  width="7.938" x="63.156" y="42.917" fill="#FFFFFF" height="2.269" fill-opacity="0.15"/>
   <rect  width="5.761" x="85.844" y="67.68" fill="#FFFFFF" height="6.118" fill-opacity="0.15"/>
   <rect  width="29.479" x="30.784" y="34.909" fill="#FFFFFF" height="16.582" fill-opacity="0.15"/>
   <g  opacity="0.15">
    <path  fill="#FFFFFF" d="M101.198,36.613h-7.392c-1.991-2.632-5.139-4.34-8.691-4.34c-6.023,0-10.905,4.883-10.905,10.906c0,6.021,4.882,10.902,10.905,10.902c3.556,0,6.7-1.708,8.691-4.34h7.392V36.613z"/>
   </g>
   <circle  fill="none" cx="110.324" cy="68.4" stroke="#9A916C" id="connector8pin" r="1.872" stroke-width="0.864"/>
   <rect  width="3.744" x="108.452" y="66.528" fill="none" height="3.744" stroke="#9A916C" stroke-width="0.864"/>
   <circle  fill="none" cx="110.324" cy="61.2" stroke="#9A916C" id="connector9pin" r="1.872" stroke-width="0.864"/>
   <circle  fill="none" cx="110.324" cy="54" stroke="#9A916C" id="connector10pin" r="1.872" stroke-width="0.864"/>
   <circle  fill="none" cx="110.324" cy="46.8" stroke="#9A916C" id="connector11pin" r="1.872" stroke-width="0.864"/>
   <circle  fill="none" cx="110.324" cy="39.6" stroke="#9A916C" id="connector12pin" r="1.872" stroke-width="0.864"/>
   <circle  fill="none" cx="110.324" cy="32.4" stroke="#9A916C" id="connector13pin" r="1.872" stroke-width="0.864"/>
   <circle  fill="none" cx="110.324" cy="25.2" stroke="#9A916C" id="connector14pin" r="1.872" stroke-width="0.864"/>
   <circle  fill="none" cx="110.324" cy="18" stroke="#9A916C" id="connector15pin" r="1.872" stroke-width="0.864"/>
  </g>
  <g  id="sfe-logo-flame" transform="matrix(1, 0, 0, 1, 74.3162, 74.8094)">
   <g >
    <title >element:JP2</title>
    <g >
     <title >package:SFE-LOGO-FLAME</title>
     <title >polygon</title>
    </g>
   </g>
   <g >
    <path  fill="#FFFFFF" d="M4.378,1.29c0,0,0.111,0.482-0.251,0.55C3.873,1.885,3.464,1.634,3.258,1.383c-0.255-0.31-0.225-0.554-0.024-0.771c0.297-0.327,0.807-0.2,0.807-0.2S3.107-0.406,2.136,0.263C1.273,0.858,1.521,1.669,2.299,2.376c0.703,0.64,0.144,1.341-0.564,1.249C1.25,3.563,1.05,3.175,1.168,2.935C1.269,2.73,1.616,2.605,1.616,2.605S1.217,2.442,0.747,2.621C0.322,2.779-0.027,3.129,0.001,4.004v4.062c0,0,0.438-0.54,0.948-1.09C1.528,6.358,1.79,5.94,2.381,5.99C3.5,6.058,4.308,5.56,4.857,4.764C5.914,3.232,5.087,1.518,4.378,1.29z"/>
   </g>
  </g>
  <g  id="usb-minib" transform="matrix(1, 0, 0, 1, -1.76287, 26.1584)">
   <g >
    <rect  width="6.254" x="21.797" y="1.216" fill="#8D8C8C" height="6.593"/>
    <rect  width="7.237" x="8.707" y="1.216" fill="#8D8C8C" height="6.593"/>
   </g>
   <g >
    <rect  width="6.254" x="21.797" y="26.25" fill="#8D8C8C" height="6.596"/>
    <rect  width="7.237" x="8.707" y="26.25" fill="#8D8C8C" height="6.596"/>
   </g>
   <g >
    <polygon  fill="#404040" points="25.464,21.23 26.55,20.406 26.55,26.674 27.504,26.674 27.504,7.325 26.55,7.325 26.55,13.65 25.464,12.823 25.464,6.352 2.839,6.352 2.839,27.7 25.464,27.7 "/>
   </g>
   <path  d="M16.515,12.482c0,0.155-0.127,0.271-0.28,0.255L5.739,11.64c-0.152-0.018-0.28-0.153-0.28-0.312V9.586c0-0.153,0.128-0.297,0.28-0.312l10.496-1.1c0.153-0.019,0.281,0.102,0.281,0.254v0.257c0,0.151-0.128,0.296-0.281,0.31l-9.542,0.83c-0.153,0.011-0.28,0.151-0.28,0.309v0.648c0,0.154,0.127,0.295,0.28,0.311l9.542,0.829c0.153,0.013,0.281,0.15,0.281,0.311L16.515,12.482z"/>
   <path  d="M16.515,25.625c0,0.151-0.127,0.271-0.28,0.256L5.738,24.778c-0.153-0.021-0.28-0.153-0.28-0.312v-1.742c0-0.155,0.127-0.297,0.28-0.312l10.497-1.1c0.153-0.02,0.281,0.101,0.281,0.254v0.258c0,0.154-0.128,0.295-0.281,0.312l-9.542,0.828c-0.153,0.014-0.28,0.146-0.28,0.311v0.646c0,0.149,0.127,0.297,0.28,0.312l9.542,0.825c0.153,0.02,0.281,0.146,0.281,0.312L16.515,25.625z"/>
   <g >
    <polygon  fill="none" points="6.417,22.986 6.417,24.205 7.246,24.275 7.246,22.922 "/>
    <polygon  fill="#939393" points="7.246,24.275 6.417,24.205 6.417,22.986 7.246,22.922 "/>
    <polygon  fill="#545454" points="7.246,24.275 7.595,24.307 7.595,22.884 7.246,22.922 "/>
   </g>
   <g >
    <polygon  fill="none" points="6.417,9.843 6.417,11.067 7.246,11.134 7.246,9.78 "/>
    <polygon  fill="#939393" points="7.246,11.134 6.417,11.067 6.417,9.843 7.246,9.78 "/>
    <polygon  fill="#545454" points="7.246,11.134 7.595,11.169 7.595,9.743 7.246,9.78 "/>
   </g>
   <rect  width="2.014" x="12.973" y="14.12" fill="#939393" height="5.556"/>
   <rect  width="1.115" x="14.986" y="14.12" fill="#545454" height="5.556"/>
   <path  d="M4.502,13.784c0,0.155,0.127,0.293,0.28,0.301l11.605,0.699c0.154,0.01,0.282,0.146,0.282,0.301v3.89c0,0.155-0.128,0.291-0.282,0.306L4.784,19.968c-0.153,0.009-0.28,0.146-0.28,0.302v0.52c0,0.154,0.127,0.271,0.28,0.268l13.193-0.96c0.153-0.017,0.282-0.146,0.282-0.31v-5.52c0-0.154-0.129-0.295-0.282-0.31L4.783,13.003c-0.152-0.011-0.28,0.108-0.28,0.264V13.784L4.502,13.784z"/>
   <line  fill="none" y1="6.983" x1="24.87" y2="6.983" x2="3.151"/>
   <line  stroke-opacity="0.15" fill="none" stroke="#FFFFFF" stroke-linecap="round" y1="27.326" stroke-width="0.5" x1="24.87" y2="27.326" x2="3.151"/>
   <line  fill="none" y1="14.331" x1="26.438" y2="19.719" x2="26.438"/>
  </g>
 </g>
</svg>
