<?xml version='1.0' encoding='UTF-8' standalone='no'?>
<!-- Created with Fritzing (http://www.fritzing.org/) -->
<svg xmlns="http://www.w3.org/2000/svg" width="0.4in" x="0in" version="1.2" y="0in" height="0.5in" viewBox="0 0 28.8 36" baseProfile="tiny">
 <desc >Fritzing breadboard generated by brd2svg</desc>
 <g  id="breadboard" stroke-width="0">
  <g  id="icon" stroke-width="0">
   <path  fill="#C62717" stroke="none" stroke-width="0" d="M0,36L28.8,36L28.8,0L0,0L0,36M2.16,32.4a1.44,1.44,0,1,1,2.88,0,1.44,1.44,0,1,1,-2.88,0zM9.36,32.4a1.44,1.44,0,1,1,2.88,0,1.44,1.44,0,1,1,-2.88,0zM16.56,32.4a1.44,1.44,0,1,1,2.88,0,1.44,1.44,0,1,1,-2.88,0zM23.76,32.4a1.44,1.44,0,1,1,2.88,0,1.44,1.44,0,1,1,-2.88,0zM16.56,3.6a1.44,1.44,0,1,1,2.88,0,1.44,1.44,0,1,1,-2.88,0zM9.36,3.6a1.44,1.44,0,1,1,2.88,0,1.44,1.44,0,1,1,-2.88,0z"/>
   <g  stroke-width="0">
    <title >layer 21</title>
    <g  stroke-width="0">
     <title >element:C1</title>
     <g  stroke-width="0">
      <title >package:0402-CAP</title>
      <line  stroke="white" stroke-linecap="round" y1="12.6" x1="8.55353" y2="12.6" stroke-width="1.152" x2="8.72647"/>
     </g>
    </g>
    <g  stroke-width="0">
     <title >element:IC1</title>
     <g  stroke-width="0">
      <title >package:SOT563</title>
      <line  stroke="white" stroke-linecap="round" y1="15.2646" x1="15.84" y2="15.2646" stroke-width="0.36" x2="12.4384"/>
      <line  stroke="white" stroke-linecap="round" y1="19.8" x1="15.84" y2="19.8" stroke-width="0.36" x2="12.4384"/>
      <line  stroke="white" stroke-linecap="round" y1="20.304" x1="15.408" y2="20.304" stroke-width="0.36" x2="12.8704"/>
     </g>
    </g>
    <g  stroke-width="0">
     <title >element:JP1</title>
     <g  stroke-width="0">
      <title >package:1X04</title>
      <line  stroke="white" stroke-linecap="round" y1="28.8" x1="23.4" y2="28.8" stroke-width="0.576" x2="27"/>
      <line  stroke="white" stroke-linecap="round" y1="28.8" x1="27" y2="30.6" stroke-width="0.576" x2="28.8"/>
      <line  stroke="white" stroke-linecap="round" y1="34.2" x1="28.8" y2="36" stroke-width="0.576" x2="27"/>
      <line  stroke="white" stroke-linecap="round" y1="30.6" x1="14.4" y2="28.8" stroke-width="0.576" x2="16.2"/>
      <line  stroke="white" stroke-linecap="round" y1="28.8" x1="16.2" y2="28.8" stroke-width="0.576" x2="19.8"/>
      <line  stroke="white" stroke-linecap="round" y1="28.8" x1="19.8" y2="30.6" stroke-width="0.576" x2="21.6"/>
      <line  stroke="white" stroke-linecap="round" y1="34.2" x1="21.6" y2="36" stroke-width="0.576" x2="19.8"/>
      <line  stroke="white" stroke-linecap="round" y1="36" x1="19.8" y2="36" stroke-width="0.576" x2="16.2"/>
      <line  stroke="white" stroke-linecap="round" y1="36" x1="16.2" y2="34.2" stroke-width="0.576" x2="14.4"/>
      <line  stroke="white" stroke-linecap="round" y1="28.8" x1="23.4" y2="30.6" stroke-width="0.576" x2="21.6"/>
      <line  stroke="white" stroke-linecap="round" y1="34.2" x1="21.6" y2="36" stroke-width="0.576" x2="23.4"/>
      <line  stroke="white" stroke-linecap="round" y1="36" x1="27" y2="36" stroke-width="0.576" x2="23.4"/>
      <line  stroke="white" stroke-linecap="round" y1="28.8" x1="1.8" y2="28.8" stroke-width="0.576" x2="5.4"/>
      <line  stroke="white" stroke-linecap="round" y1="28.8" x1="5.4" y2="30.6" stroke-width="0.576" x2="7.2"/>
      <line  stroke="white" stroke-linecap="round" y1="34.2" x1="7.2" y2="36" stroke-width="0.576" x2="5.4"/>
      <line  stroke="white" stroke-linecap="round" y1="30.6" x1="7.2" y2="28.8" stroke-width="0.576" x2="9"/>
      <line  stroke="white" stroke-linecap="round" y1="28.8" x1="9" y2="28.8" stroke-width="0.576" x2="12.6"/>
      <line  stroke="white" stroke-linecap="round" y1="28.8" x1="12.6" y2="30.6" stroke-width="0.576" x2="14.4"/>
      <line  stroke="white" stroke-linecap="round" y1="34.2" x1="14.4" y2="36" stroke-width="0.576" x2="12.6"/>
      <line  stroke="white" stroke-linecap="round" y1="36" x1="12.6" y2="36" stroke-width="0.576" x2="9"/>
      <line  stroke="white" stroke-linecap="round" y1="36" x1="9" y2="34.2" stroke-width="0.576" x2="7.2"/>
      <line  stroke="white" stroke-linecap="round" y1="30.6" x1="0" y2="34.2" stroke-width="0.576" x2="0"/>
      <line  stroke="white" stroke-linecap="round" y1="28.8" x1="1.8" y2="30.6" stroke-width="0.576" x2="0"/>
      <line  stroke="white" stroke-linecap="round" y1="34.2" x1="0" y2="36" stroke-width="0.576" x2="1.8"/>
      <line  stroke="white" stroke-linecap="round" y1="36" x1="5.4" y2="36" stroke-width="0.576" x2="1.8"/>
      <line  stroke="white" stroke-linecap="round" y1="30.6" x1="28.8" y2="34.2" stroke-width="0.576" x2="28.8"/>
     </g>
    </g>
    <g  stroke-width="0">
     <title >element:JP2</title>
     <g  stroke-width="0">
      <title >package:1X02</title>
      <line  stroke="white" stroke-linecap="round" y1="7.2" x1="19.8" y2="7.2" stroke-width="0.576" x2="16.2"/>
      <line  stroke="white" stroke-linecap="round" y1="7.2" x1="16.2" y2="5.4" stroke-width="0.576" x2="14.4"/>
      <line  stroke="white" stroke-linecap="round" y1="1.8" x1="14.4" y2="0" stroke-width="0.576" x2="16.2"/>
      <line  stroke="white" stroke-linecap="round" y1="5.4" x1="14.4" y2="7.2" stroke-width="0.576" x2="12.6"/>
      <line  stroke="white" stroke-linecap="round" y1="7.2" x1="12.6" y2="7.2" stroke-width="0.576" x2="9"/>
      <line  stroke="white" stroke-linecap="round" y1="7.2" x1="9" y2="5.4" stroke-width="0.576" x2="7.2"/>
      <line  stroke="white" stroke-linecap="round" y1="1.8" x1="7.2" y2="0" stroke-width="0.576" x2="9"/>
      <line  stroke="white" stroke-linecap="round" y1="0" x1="9" y2="0" stroke-width="0.576" x2="12.6"/>
      <line  stroke="white" stroke-linecap="round" y1="0" x1="12.6" y2="1.8" stroke-width="0.576" x2="14.4"/>
      <line  stroke="white" stroke-linecap="round" y1="5.4" x1="21.6" y2="1.8" stroke-width="0.576" x2="21.6"/>
      <line  stroke="white" stroke-linecap="round" y1="7.2" x1="19.8" y2="5.4" stroke-width="0.576" x2="21.6"/>
      <line  stroke="white" stroke-linecap="round" y1="1.8" x1="21.6" y2="0" stroke-width="0.576" x2="19.8"/>
      <line  stroke="white" stroke-linecap="round" y1="0" x1="16.2" y2="0" stroke-width="0.576" x2="19.8"/>
      <line  stroke="white" stroke-linecap="round" y1="5.4" x1="7.2" y2="1.8" stroke-width="0.576" x2="7.2"/>
     </g>
    </g>
    <g  stroke-width="0">
     <title >element:JP3</title>
     <g  stroke-width="0">
      <title >package:SFE-LOGO-FLAME</title>
      <g  stroke-width="0">
       <title >polygon</title>
       <path  fill="none" stroke="white" stroke-linecap="round" stroke-width="0.072" d="M23.5083,13.7015L23.3713,13.68M23.3713,13.68L23.1049,13.659M23.1049,13.659L22.8385,13.68M22.8385,13.68L22.6403,13.7321M22.6403,13.7321L22.4567,13.8231M22.4567,13.8231L22.2948,13.949M22.2948,13.949L22.1618,14.1049M22.1618,14.1049L22.0481,14.3124M22.0481,14.3124L21.9799,14.5389M21.9799,14.5389L21.9603,14.7745M21.9603,14.7745L21.9603,19.0729M21.9603,19.0729L23.3425,17.5175M23.3425,17.5175L23.5885,17.2922M23.5885,17.2922L23.8753,17.1215M23.8753,17.1215L23.9808,17.0833M23.9808,17.0833L24.0913,17.064M24.0913,17.064L24.7393,17.064M24.7393,17.064L25.1258,17.0289M25.1258,17.0289L25.4996,16.9245M25.4996,16.9245L25.8483,16.7545M25.8483,16.7545L26.1762,16.5228M26.1762,16.5228L26.4688,16.2473M26.4688,16.2473L26.7193,15.9335M26.7193,15.9335L26.9878,15.457M26.9878,15.457L27.1658,14.94M27.1658,14.94L27.2475,14.3994M27.2475,14.3994L27.2305,13.8529M27.2305,13.8529L27.1718,13.5581M27.1718,13.5581L27.0703,13.2752M27.0703,13.2752L26.9283,13.0105M26.9283,13.0105L26.6712,12.6881M26.6712,12.6881L26.3523,12.4271M26.3523,12.4271L26.3523,12.6791M26.3523,12.6791L26.3466,12.7202M26.3466,12.7202L26.3305,12.7585M26.3305,12.7585L26.2462,12.8625M26.2462,12.8625L26.1363,12.9385M26.1363,12.9385L26.0785,12.96M26.0785,12.96L25.9163,12.9776M25.9163,12.9776L25.7558,12.9478M25.7558,12.9478L25.6105,12.8735M25.6105,12.8735L25.3513,12.6865M25.3513,12.6865L25.2315,12.5833M25.2315,12.5833L25.1283,12.4631M25.1283,12.4631L25.0452,12.3284M25.0452,12.3284L24.9843,12.1825M24.9843,12.1825L24.9659,12.0897M24.9659,12.0897L24.9698,11.9951M24.9698,11.9951L25.0169,11.8392M25.0169,11.8392L25.1028,11.7006M25.1028,11.7006L25.2218,11.5895M25.2218,11.5895L25.3658,11.5129M25.3658,11.5129L25.511,11.4721M25.511,11.4721L25.6609,11.4551M25.6609,11.4551L25.8338,11.4551M25.8338,11.4551L25.8335,11.4551M25.8335,11.4551L25.8265,11.448M25.8265,11.448L25.7031,11.3522M25.7031,11.3522L25.5603,11.2895M25.5603,11.2895L25.4593,11.2465M25.4593,11.2465L25.3945,11.2175M25.3945,11.2175L25.1456,11.1555M25.1456,11.1555L24.8905,11.1311M24.8905,11.1311L24.6442,11.1498M24.6442,11.1498L24.406,11.2156M24.406,11.2156L24.1849,11.3255M24.1849,11.3255L23.9647,11.4843M23.9647,11.4843L23.7673,11.6711M23.7673,11.6711L23.6452,11.8423M23.6452,11.8423L23.5695,12.0385M23.5695,12.0385L23.5449,12.2473M23.5449,12.2473L23.5732,12.4557M23.5732,12.4557L23.6523,12.6505M23.6523,12.6505L23.9885,13.1491M23.9885,13.1491L24.4009,13.5865M24.4009,13.5865L24.5094,13.714M24.5094,13.714L24.5814,13.8651M24.5814,13.8651L24.6121,14.0295M24.6121,14.0295L24.5991,14.1965M24.5991,14.1965L24.5435,14.3544M24.5435,14.3544L24.4488,14.4924M24.4488,14.4924L24.3218,14.6015M24.3218,14.6015L24.162,14.6877M24.162,14.6877L23.9899,14.7458M23.9899,14.7458L23.8105,14.7745M23.8105,14.7745L23.6007,14.764M23.6007,14.764L23.4,14.7028M23.4,14.7028L23.2203,14.5945M23.2203,14.5945L23.125,14.4941M23.125,14.4941L23.0618,14.3711M23.0618,14.3711L23.0337,14.2449M23.0337,14.2449L23.0337,14.1157M23.0337,14.1157L23.0618,13.9895M23.0618,13.9895L23.0873,13.9411M23.0873,13.9411L23.1265,13.9031M23.1265,13.9031L23.3643,13.7305M23.3643,13.7305L23.4088,13.7066M23.4088,13.7066L23.4581,13.6967M23.4581,13.6967L23.5083,13.7015M21.9603,19.008L22.0178,19.008M21.9603,18.936L22.0819,18.936M21.9603,18.864L22.1457,18.864M21.9603,18.792L22.2098,18.792M21.9603,18.72L22.2738,18.72M21.9603,18.648L22.3379,18.648M21.9603,18.576L22.4016,18.576M21.9603,18.504L22.4657,18.504M21.9603,18.432L22.5297,18.432M21.9603,18.36L22.5935,18.36M21.9603,18.288L22.6576,18.288M21.9603,18.216L22.7217,18.216M21.9603,18.144L22.7858,18.144M21.9603,18.072L22.8495,18.072M21.9603,18L22.9136,18M21.9603,17.928L22.9776,17.928M21.9603,17.856L23.0414,17.856M21.9603,17.784L23.1054,17.784M21.9603,17.712L23.1695,17.712M21.9603,17.64L23.2336,17.64M21.9603,17.568L23.2974,17.568M21.9603,17.496L23.3657,17.496M21.9603,17.424L23.4445,17.424M21.9603,17.352L23.523,17.352M21.9603,17.28L23.6089,17.28M21.9603,17.208L23.73,17.208M21.9603,17.136L23.851,17.136M21.9603,17.064L24.7393,17.064M21.9603,16.992L25.2575,16.992M21.9603,16.92L25.5087,16.92M21.9603,16.848L25.6564,16.848M21.9603,16.776L25.8041,16.776M21.9603,16.704L25.9197,16.704M21.9603,16.632L26.0214,16.632M21.9603,16.56L26.1235,16.56M21.9603,16.488L26.2131,16.488M21.9603,16.416L26.2896,16.416M21.9603,16.344L26.3659,16.344M21.9603,16.272L26.4424,16.272M21.9603,16.2L26.5065,16.2M21.9603,16.128L26.564,16.128M21.9603,16.056L26.6216,16.056M21.9603,15.984L26.6788,15.984M21.9603,15.912L26.7313,15.912M21.9603,15.84L26.7718,15.84M21.9603,15.768L26.8124,15.768M21.9603,15.696L26.8532,15.696M21.9603,15.624L26.8937,15.624M21.9603,15.552L26.9343,15.552M21.9603,15.48L26.9748,15.48M21.9603,15.408L27.0045,15.408M21.9603,15.336L27.0294,15.336M21.9603,15.264L27.0541,15.264M21.9603,15.192L27.0788,15.192M21.9603,15.12L27.1038,15.12M21.9603,15.048L27.1284,15.048M21.9603,14.976L27.1534,14.976M21.9603,14.904L27.1712,14.904M21.9603,14.832L27.182,14.832M21.9617,14.76L23.5879,14.76M23.9012,14.76L27.1927,14.76M21.9676,14.688L23.3756,14.688M24.1614,14.688L27.2038,14.688M21.9736,14.616L23.2563,14.616M24.2952,14.616L27.2146,14.616M21.9796,14.544L23.1727,14.544M24.389,14.544L27.2254,14.544M22.0002,14.472L23.1137,14.472M24.463,14.472L27.2364,14.472M22.0218,14.4L23.0769,14.4M24.5123,14.4L27.2472,14.4M22.0436,14.328L23.0525,14.328M24.5529,14.328L27.2454,14.328M22.0793,14.256L23.0363,14.256M24.5784,14.256L27.2432,14.256M22.1188,14.184L23.0337,14.184M24.6002,14.184L27.2409,14.184M22.1581,14.112L23.0343,14.112M24.6059,14.112L27.2387,14.112M22.2174,14.04L23.0505,14.04M24.6115,14.04L27.2364,14.04M22.2786,13.968L23.0732,13.968M24.6005,13.968L27.2341,13.968M22.3631,13.896L23.1361,13.896M24.5871,13.896L27.2318,13.896M22.4558,13.824L23.2353,13.824M24.5616,13.824L27.2248,13.824M22.6004,13.752L23.3346,13.752M24.5273,13.752L27.2106,13.752M22.8385,13.68L23.3713,13.68M24.4803,13.68L27.1961,13.68M24.4191,13.608L27.182,13.608M24.3533,13.536L27.1642,13.536M24.2852,13.464L27.138,13.464M24.2175,13.392L27.1122,13.392M24.1494,13.32L27.0865,13.32M24.0818,13.248L27.0559,13.248M24.0137,13.176L27.0173,13.176M23.9579,13.104L26.9788,13.104M23.9094,13.032L26.9399,13.032M23.8609,12.96L25.8216,12.96M26.0785,12.96L26.8883,12.96M23.8124,12.888L25.6388,12.888M26.2094,12.888L26.8308,12.888M23.7637,12.816L25.5308,12.816M26.284,12.816L26.7732,12.816M23.7152,12.744L25.4313,12.744M26.3367,12.744L26.716,12.744M23.6668,12.672L25.3346,12.672M26.3523,12.672L26.6516,12.672M23.6316,12.6L25.251,12.6M26.3523,12.6L26.5638,12.6M23.6024,12.528L25.1842,12.528M26.3523,12.528L26.4756,12.528M23.5732,12.456L25.124,12.456M26.3523,12.456L26.3877,12.456M23.5633,12.384L25.0795,12.384M23.5536,12.312L25.0384,12.312M23.546,12.24L25.0084,12.24M23.5545,12.168L24.9815,12.168M23.563,12.096L24.9673,12.096M23.5752,12.024L24.9684,12.024M23.603,11.952L24.9826,11.952M23.6308,11.88L25.0044,11.88M23.6699,11.808L25.0361,11.808M23.7212,11.736L25.0807,11.736M23.775,11.664L25.1419,11.664M23.851,11.592L25.219,11.592M23.927,11.52L25.3522,11.52M24.0151,11.448L25.8265,11.448M24.1152,11.376L25.734,11.376M24.2283,11.304L25.5935,11.304M24.3732,11.232L25.4271,11.232M24.6073,11.16L25.164,11.16"/>
      </g>
     </g>
    </g>
    <g  stroke-width="0">
     <title >element:JP5</title>
     <g  stroke-width="0">
      <title >package:FIDUCIAL-1X2</title>
     </g>
    </g>
    <g  stroke-width="0">
     <title >element:JP6</title>
     <g  stroke-width="0">
      <title >package:FIDUCIAL-1X2</title>
     </g>
    </g>
    <g  stroke-width="0">
     <title >element:R1</title>
     <g  stroke-width="0">
      <title >package:0402-RES</title>
     </g>
    </g>
    <g  stroke-width="0">
     <title >element:R2</title>
     <g  stroke-width="0">
      <title >package:0402-RES</title>
     </g>
    </g>
    <g  stroke-width="0">
     <title >element:R3</title>
     <g  stroke-width="0">
      <title >package:0402-RES</title>
     </g>
    </g>
   </g>
   <rect  width="3.40158" x="12.4384" y="15.2646" fill="#ffffff" height="5.03943" stroke="none" fill-opacity="0.15" stroke-width="0"/>
   <rect  width="1.152" x="8.064" y="22.392" fill="#ffffff" height="2.016" stroke="none" fill-opacity="0.15" stroke-width="0"/>
   <rect  width="1.152" x="18.864" y="22.392" fill="#ffffff" height="2.016" stroke="none" fill-opacity="0.15" stroke-width="0"/>
   <rect  width="1.152" x="18.864" y="11.592" fill="#ffffff" height="2.016" stroke="none" fill-opacity="0.15" stroke-width="0"/>
   <circle  fill="none" cx="3.6" cy="32.4" connectorname="V+" stroke="#9A916C" r="2.052" id="connector8pin" stroke-width="1.224"/>
   <rect  width="4.104" x="1.548" y="30.348" fill="none" height="4.104" stroke="#9A916C" stroke-width="1.224"/>
   <circle  fill="none" cx="10.8" cy="32.4" connectorname="SDA" stroke="#9A916C" r="2.052" id="connector9pin" stroke-width="1.224"/>
   <circle  fill="none" cx="18" cy="32.4" connectorname="SCL" stroke="#9A916C" r="2.052" id="connector10pin" stroke-width="1.224"/>
   <circle  fill="none" cx="25.2" cy="32.4" connectorname="GND" stroke="#9A916C" r="2.052" id="connector11pin" stroke-width="1.224"/>
   <circle  fill="none" cx="18" cy="3.6" connectorname="ALERT" stroke="#9A916C" r="2.052" id="connector12pin" stroke-width="1.224"/>
   <circle  fill="none" cx="10.8" cy="3.6" connectorname="ADD0" stroke="#9A916C" r="2.052" id="connector13pin" stroke-width="1.224"/>
  </g>
  <g  id="sfe-logo-flame" stroke-width="0" transform="matrix(1, 0, 0, 1, 21.9207, 11.0574)">
   <g  stroke-width="0">
    <title >element:JP2</title>
    <g  stroke-width="0">
     <title >package:SFE-LOGO-FLAME</title>
     <title >polygon</title>
    </g>
   </g>
   <path  fill="#FFFFFF" stroke-width="0" d="M5.357,3.235c0,-0.001,0,-0.002,0,-0.003c0,-0.001,0,-0.003,0,-0.005L5.355,3.166c0,-0.001,0,-0.003,0,-0.004c0,-0.002,0,-0.004,-0.001,-0.007L5.349,2.947c0,-0.001,0,-0.001,0,-0.002c0,-0.001,0,-0.003,0,-0.005L5.343,2.757c0,-0.001,0,-0.001,0,-0.002c0,0,0,0,0,0c0,-0.001,-0.001,-0.003,-0.001,-0.005L5.336,2.724c0,-0.001,0,-0.003,0,-0.004L5.294,2.512c0,-0.004,-0.001,-0.009,-0.003,-0.013L5.282,2.457c0,-0.001,0,-0.003,-0.001,-0.005c0,0,0,0,0,0l0,0L5.276,2.437C5.275,2.431,5.273,2.425,5.271,2.42L5.249,2.359C5.248,2.358,5.247,2.356,5.247,2.354L5.181,2.168c0,0,-0.001,-0.001,-0.001,-0.002C5.179,2.165,5.179,2.163,5.178,2.162L5.165,2.138C5.164,2.136,5.163,2.135,5.162,2.133L5.088,1.996C5.087,1.993,5.086,1.99,5.084,1.988L5.049,1.922C5.048,1.92,5.047,1.918,5.046,1.917l-0.01,-0.019C5.035,1.897,5.035,1.896,5.034,1.896C5.033,1.894,5.032,1.893,5.031,1.892L4.823,1.631C4.821,1.627,4.819,1.625,4.816,1.622L4.775,1.571C4.774,1.57,4.774,1.569,4.773,1.568C4.772,1.567,4.771,1.565,4.77,1.564L4.665,1.479C4.663,1.478,4.662,1.476,4.66,1.475L4.579,1.409c-0.003,-0.003,-0.006,-0.006,-0.01,-0.00799999L4.492,1.338c-0.003,-0.004,-0.00799999,-0.00799999,-0.013,-0.01L4.45,1.304c-0.00799999,-0.006,-0.019,-0.01,-0.024,-0.00799999L4.425,1.296c-0.005,0,-0.009,0.002,-0.013,0.004c-0.001,0,-0.001,0,-0.001,0c-0.004,0.002,-0.007,0.005,-0.01,0.00799999c0,0,0,0,0,0c0,0,0,0,-0.001,0c0,0,0,0,0,0c0,0,0,0,-0.001,0C4.398,1.311,4.397,1.312,4.396,1.314l0,0c0,0,0,0,0,0c0,0,-0.001,0,-0.001,0s0,0,0,0C4.393,1.321,4.392,1.327,4.392,1.333l0,0.245L4.387,1.615L4.38,1.632C4.379,1.634,4.378,1.636,4.378,1.638L4.335,1.694C4.332,1.697,4.33,1.7,4.328,1.703l-0.03,0.038l-0.03,0.021C4.266,1.763,4.264,1.764,4.262,1.766L4.195,1.812L4.146,1.83L3.993,1.847L3.844,1.818L3.705,1.748L3.53,1.621C3.529,1.62,3.527,1.619,3.525,1.618L3.449,1.562L3.353,1.48C3.352,1.479,3.35,1.477,3.348,1.476l-0.06,-0.064C3.288,1.41,3.287,1.409,3.285,1.407l-0.051,-0.06C3.232,1.343,3.229,1.339,3.226,1.335L3.153,1.217L3.148,1.206c0,-0.002,-0.001,-0.004,-0.002,-0.005L3.119,1.134C3.118,1.132,3.117,1.129,3.116,1.127l-0.021,-0.05l0,-0.003c0,-0.005,-0.001,-0.009,-0.002,-0.013L3.078,0.992002l0.003,-0.0859997l0.044,-0.146l0.015,-0.025c0.001,-0.001,0.002,-0.003,0.003,-0.005l0.062,-0.101l0.11,-0.103c0.001,0,0.002,-0.001,0.002,-0.002l0.136,-0.072l0.139,-0.039l0.145,-0.016l0.171,0c0.005,0,0.011,-0.001,0.015,-0.003c0.001,0,0.001,0,0.001,0l0,0c0.001,0,0.001,0,0.001,0l0,0c0.003,-0.001,0.005,-0.003,0.007,-0.005c0.005,-0.003,0.00799999,-0.00799999,0.01,-0.013l0,0l0,0c0.002,-0.003,0.002,-0.006,0.003,-0.01c0,-0.00799999,-0.002,-0.016,-0.006,-0.022l0,0c0,0,-0.001,0,-0.001,0C3.938,0.339,3.938,0.337,3.937,0.336L3.93,0.33c0,-0.001,-0.001,-0.001,-0.001,-0.002L3.928,0.328C3.927,0.325,3.927,0.325,3.924,0.324L3.802,0.229C3.798,0.224,3.795,0.224,3.793,0.224L3.65,0.162l0,0c0,0,0,0,-0.001,0l-0.1,-0.042L3.521,0.105C3.519,0.104,3.517,0.103,3.514,0.103L3.485,0.0889999c-0.002,0,-0.004,-0.001,-0.006,-0.002c0,0,0,0,0,0l0,0L3.253,0.031C3.25,0.03,3.246,0.029,3.242,0.029L3.231,0.026C3.229,0.025,3.226,0.025,3.225,0.025L2.97,0C2.969,0,2.967,0,2.966,0l0,0C2.965,0,2.963,0,2.962,0L2.717,0.019c0,0,-0.001,0,-0.001,0c-0.002,0,-0.005,0,-0.007,0.001L2.678,0.029c-0.003,0,-0.007,0.001,-0.01,0.003L2.473,0.0850003C2.47,0.0859997,2.468,0.09,2.465,0.0879998L2.288,0.177c0,0,0,0,-0.001,0L2.245,0.198c-0.001,0,-0.001,0,-0.002,0.001c0,0,0,0,0,0C2.242,0.2,2.24,0.201,2.239,0.202L2.02,0.359C2.018,0.36,2.017,0.361,2.015,0.363L1.829,0.54C1.827,0.541,1.825,0.543,1.823,0.545L1.818,0.55c0,0.001,-0.001,0.002,-0.002,0.002C1.815,0.553,1.814,0.555,1.813,0.556L1.716,0.691c0,0,0,0,0,0.001L1.692,0.725998C1.691,0.726998,1.69,0.727999,1.69,0.729C1.688,0.731002,1.688,0.733003,1.687,0.734998L1.673,0.770998c0,0.001,-0.001,0.002,-0.001,0.004L1.646,0.841003c0,0.001,-0.001,0.003,-0.002,0.005L1.612,0.930002C1.611,0.931997,1.611,0.933998,1.61,0.936c0,0.001,0,0.002,0,0.004L1.584,1.147c0,0.001,0,0.003,0,0.004c0,0.002,0,0.004,0,0.006l0.00799999,0.059c0,0.003,0,0.006,0.001,0.009l0.00799999,0.061c0,0,0,0.001,0,0.002c0,0.004,0.001,0.00799999,0.002,0.012l0.009,0.063c0,0.001,0,0.002,0,0.004c0,0.002,0.001,0.003,0.002,0.005l0,0c0,0,0,0,0,0L1.643,1.44c0.001,0.004,0.002,0.00799999,0.004,0.012l0.025,0.063c0,0.002,0.001,0.005,0.003,0.007l0.019,0.046c0,0.002,0.001,0.004,0.003,0.006c0,0,0,0.001,0.001,0.002l0.157,0.233c0.001,0.003,0.003,0.005,0.005,0.00799999l0.043,0.064C1.906,1.884,1.908,1.887,1.91,1.889L2,2.022c0.002,0.005,0.004,0.009,0.00799999,0.012l0.026,0.039c0.002,0.003,0.003,0.004,0.004,0.005l0.022,0.024c0.001,0.002,0.003,0.004,0.006,0.006l0.062,0.066C2.13,2.176,2.132,2.178,2.133,2.179l0.13,0.139C2.266,2.32,2.268,2.323,2.271,2.325l0.062,0.066c0.001,0.002,0.003,0.003,0.005,0.005l0.064,0.068c0,0,0.001,0.001,0.001,0.001l0.122,0.139c0.002,0.002,0.004,0.004,0.006,0.006l0.023,0.027l0.068,0.142L2.64,2.874c0,0.004,0.001,0.007,0.002,0.011l0.01,0.052L2.639,3.094L2.587,3.242L2.498,3.373L2.377,3.476L2.223,3.56L2.057,3.615L1.884,3.644l-0.201,-0.01L1.676,3.631c-0.001,0,-0.002,0,-0.003,0L1.49,3.574L1.354,3.492C1.352,3.49,1.35,3.489,1.347,3.488L1.319,3.471L1.231,3.377L1.172,3.263L1.148,3.158c0,-0.003,-0.001,-0.006,-0.002,-0.009l0,-0.124c0,-0.001,0,-0.002,0,-0.003l0.026,-0.115l0.021,-0.04l0.033,-0.032L1.23,2.832C1.232,2.831,1.234,2.83,1.236,2.828l0.224,-0.162l0.038,-0.021l0.039,-0.00799999l0.044,0.004c0.001,0,0.002,0,0.003,0c0.019,0,0.034,-0.014,0.036,-0.033c0.001,-0.012,-0.003,-0.023,-0.012,-0.03l0,0l0,0c0,0,0,0,0,0l0,0c0,0,0,0,0,0c0,0,0,0,0,0s0,0,0,0c0,0,0,0,0,0s0,0,0,0s0,0,0,0l0,0C1.6,2.574,1.595,2.572,1.589,2.571L1.453,2.549c0,0,0,0,-0.001,0c-0.001,0,-0.001,0,-0.002,0L1.184,2.528c-0.001,0,-0.002,0,-0.003,0s-0.002,0,-0.003,0L0.912002,2.549c-0.001,0,-0.002,0,-0.003,0c0,0,0,0,0,0l0,0c-0.001,0,-0.002,0,-0.003,0L0.707,2.602c0,0,-0.001,0,-0.002,0.001c0,0,0,0,0,0c-0.002,0,-0.004,0.001,-0.005,0.002l-0.182,0.09C0.515,2.696,0.513,2.697,0.51,2.7L0.349,2.825C0.348,2.826,0.347,2.826,0.346,2.827C0.344,2.828,0.343,2.83,0.342,2.831L0.21,2.986c0,0,0,0,-0.001,0.001l0,0C0.208,2.99,0.206,2.991,0.205,2.993L0.204,2.997C0.202,2.999,0.201,3,0.2,3.002L0.0930002,3.199c0,0,-0.001,0.001,-0.001,0.003C0.09,3.204,0.09,3.206,0.0889999,3.207L0.0859997,3.219C0.0850003,3.221,0.0840002,3.223,0.0840002,3.226L0.021,3.433c0,0.001,0,0.001,-0.001,0.002c0,0.002,0,0.004,-0.001,0.006L0.00799999,3.585c0,0.002,-0.001,0.005,-0.001,0.00799999c0,0,0,0.001,0,0.002L0.002,3.658c0,0.002,-0.001,0.005,-0.001,0.007c0,0,0,0.001,0,0.001l0,0.011l0,0C0,3.678,0,3.679,0,3.68l0,4.296C0,7.97897,0,7.97998,0,7.98199c0,0.001,0,0.001,0,0.001c0,0.002,0.001,0.004,0.001,0.006l0,0L0.001,7.98998C0.004,7.99502,0.00799999,7.99999,0.012,8.00503c0.007,0.006,0.016,0.009,0.024,0.009c0.001,0,0.003,0,0.004,0c0,0,0,0,0,0c0.007,-0.004,0.013,-0.006,0.02,-0.01c0.001,-0.001,0.002,-0.002,0.003,-0.003L0.118,7.94002C0.12,7.938,0.122,7.93598,0.124,7.93397l0.25,-0.281C0.375,7.65,0.377,7.64698,0.379,7.64597L0.437,7.58002C0.44,7.578,0.442,7.57498,0.444,7.57202l0.123,-0.139c0.001,0,0.001,-0.001,0.002,-0.002l0.061,-0.068C0.631,7.362,0.633,7.35998,0.635,7.35703l0.185,-0.208c0.004,-0.002,0.007,-0.006,0.01,-0.011l0.057,-0.063C0.887998,7.073,0.888998,7.072,0.891,7.07l0.185,-0.209c0.004,-0.003,0.007,-0.006,0.01,-0.01l0.057,-0.064c0.002,-0.002,0.003,-0.003,0.005,-0.005l0.059,-0.066C1.208,6.714,1.21,6.711,1.211,6.708l0.057,-0.062C1.271,6.643,1.273,6.64,1.275,6.637l0.056,-0.063c0.003,-0.003,0.007,-0.006,0.009,-0.01l0.057,-0.064c0.001,-0.002,0.003,-0.003,0.004,-0.005l0.042,-0.047L1.54,6.359c0.004,-0.002,0.007,-0.005,0.01,-0.009l0.136,-0.124l0.257,-0.153C1.944,6.072,1.946,6.071,1.947,6.07l0.02,-0.012l0.099,-0.035L2.17,6.005l0.645,0c0,-0.001,0.002,-0.001,0.004,0L3.204,5.97c0.001,0,0.003,0,0.004,-0.001c0,0,0,0,0,0c0.001,0,0.002,0,0.003,-0.001l0.373,-0.104c0.001,-0.001,0.003,-0.001,0.005,-0.002c0,0,0.001,-0.001,0.002,-0.001l0.004,-0.002c0.003,-0.001,0.006,-0.003,0.009,-0.004l0.139,-0.068c0.004,-0.001,0.007,-0.003,0.01,-0.005l0.141,-0.068c0.001,0,0.003,-0.001,0.004,-0.002l0.041,-0.021c0.002,0,0.003,-0.001,0.005,-0.002c0.001,0,0.001,-0.001,0.002,-0.001l0.168,-0.119c0.004,-0.002,0.007,-0.004,0.01,-0.007l0.149,-0.105c0.002,-0.001,0.004,-0.002,0.005,-0.004l0.292,-0.274c0.002,-0.002,0.003,-0.003,0.004,-0.005l0.0940003,-0.117c0.001,-0.001,0.001,-0.001,0.001,-0.002l0.056,-0.069C4.725,4.984,4.727,4.982,4.728,4.98L4.78,4.914C4.782,4.912,4.784,4.91,4.785,4.907l0.037,-0.046c0.001,-0.002,0.002,-0.003,0.003,-0.005c0,0,0,0,0.001,0L4.826,4.855l0.05,-0.0879998c0.002,-0.003,0.004,-0.006,0.005,-0.01L4.959,4.62C4.96,4.619,4.96,4.617,4.961,4.616L4.998,4.55C5,4.547,5.002,4.544,5.003,4.542l0.036,-0.063c0.002,-0.002,0.003,-0.004,0.004,-0.007l0.036,-0.064c0.002,-0.003,0.004,-0.006,0.006,-0.01l0.01,-0.018c0,-0.001,0.001,-0.001,0.001,-0.002c0,0.001,0.002,-0.002,0.002,-0.004l0.039,-0.113c0.002,-0.004,0.004,-0.00799999,0.004,-0.013l0.021,-0.062C5.163,4.182,5.164,4.18,5.165,4.177l0.047,-0.136c0.001,-0.003,0.002,-0.006,0.003,-0.009l0.022,-0.063c0.001,-0.002,0.001,-0.004,0.002,-0.007l0.021,-0.062c0.002,-0.004,0.004,-0.00799999,0.005,-0.013l0.01,-0.029c0,-0.001,0.001,-0.002,0.001,-0.004c0,-0.001,0,-0.002,0.001,-0.003l0.004,-0.03c0.001,-0.003,0.002,-0.007,0.002,-0.01l0.01,-0.064c0,-0.002,0.001,-0.004,0.001,-0.007l0.01,-0.065c0,-0.002,0.001,-0.004,0.001,-0.005l0.042,-0.281c0.001,-0.003,0.002,-0.006,0.002,-0.01l0.01,-0.064c0,-0.003,0.001,-0.006,0.001,-0.009c0,-0.001,0,-0.002,0,-0.003L5.357,3.235z"/>
  </g>
 </g>
</svg>
