<?xml version='1.0' encoding='utf-8'?>
<!DOCTYPE svg PUBLIC '-//W3C//DTD SVG 1.1//EN' 'http://www.w3.org/Graphics/SVG/1.1/DTD/svg11.dtd'>
<!-- Generator: Adobe Illustrator 15.0.1, SVG Export Plug-In . SVG Version: 6.00 Build 0)  -->
<svg xmlns="http://www.w3.org/2000/svg" width="0.787403in" xml:space="preserve" xmlns:xml="http://www.w3.org/XML/1998/namespace" x="0px" version="1.1" y="0px" height="0.787403in" viewBox="0 0 56.693 56.693" id="Ebene_1" enable-background="new 0 0 56.693 56.693">
 <desc >Fritzing breadboard generated by brd2svg</desc>
 <g  id="breadboard">
  <g  id="icon">
   <path  fill="#672E58" d="M0,28.346c-0.029,15.655,12.638,28.37,28.293,28.399c15.656,0.029,28.371-12.638,28.4-28.293c0-0.035,0-0.071,0-0.106C56.722,12.691,44.055-0.024,28.4-0.053C12.744-0.082,0.029,12.585,0,28.24C0,28.275,0,28.311,0,28.346z M6.797,39.003c0-1.723,1.396-3.118,3.118-3.118c1.722,0,3.118,1.396,3.118,3.118c0,1.722-1.396,3.118-3.118,3.118C8.192,42.121,6.797,40.724,6.797,39.003L6.797,39.003z M43.66,39.003c0-1.723,1.396-3.118,3.118-3.118c1.723,0,3.118,1.396,3.118,3.118c0,1.722-1.396,3.118-3.118,3.118C45.056,42.121,43.66,40.724,43.66,39.003z M25.228,49.587c-0.001-1.723,1.395-3.119,3.117-3.119c1.722-0.001,3.118,1.395,3.119,3.116c0,0.001,0,0.002,0,0.003c0.001,1.722-1.395,3.118-3.117,3.119c-1.722,0.001-3.118-1.395-3.119-3.117C25.228,49.588,25.228,49.588,25.228,49.587z M25.228,7.106c-0.001-1.722,1.395-3.118,3.117-3.119c1.722-0.001,3.118,1.395,3.119,3.117c0,0.001,0,0.001,0,0.002c0.001,1.723-1.395,3.119-3.117,3.119c-1.722,0.001-3.118-1.395-3.119-3.116C25.228,7.108,25.228,7.107,25.228,7.106z"/>
   <g >
    <title >layer 21</title>
    <g >
     <title >text:R</title>
     <text  fill="#FFFFFF" font-family="OCRA" transform="matrix(1 0 0 1 11.3381 33.449)" font-size="4.176">R</text>
    </g>
    <g >
     <title >text:B</title>
     <text  fill="#FFFFFF" font-family="OCRA" transform="matrix(1 0 0 1 22.8298 44.9939)" font-size="4.176">B</text>
    </g>
    <g >
     <title >text:G</title>
     <text  fill="#FFFFFF" font-family="OCRA" transform="matrix(1 0 0 1 38.78 41.6687)" font-size="4.176">G</text>
    </g>
    <g >
     <title >text:+</title>
     <text  fill="#FFFFFF" font-family="OCRA" transform="matrix(1 0 0 1 26.929 15.8962)" font-size="4.6771">+</text>
    </g>
    <g >
     <title >text:11</title>
     <text  fill="#FFFFFF" font-family="OCRA" transform="matrix(1 0 0 1 15.2532 41.9529)" font-size="4.176">11</text>
    </g>
    <g >
     <title >text:10</title>
     <text  fill="#FFFFFF" font-family="OCRA" transform="matrix(1 0 0 1 30.0476 44.9939)" font-size="4.176">10</text>
    </g>
    <g >
     <title >text:9</title>
     <text  fill="#FFFFFF" font-family="OCRA" transform="matrix(1 0 0 1 43.5007 33.656)" font-size="4.176">9</text>
    </g>
    <g >
     <title >element:D1</title>
     <g >
      <title >package:LED-TRICOLOR-SMD</title>
      <line  fill="none" stroke="#FFFFFF" stroke-linecap="round" y1="32.031" stroke-width="0.576" x1="32.032" y2="32.031" x2="32.882"/>
      <line  fill="none" stroke="#FFFFFF" stroke-linecap="round" y1="32.031" stroke-width="0.576" x1="32.882" y2="24.661" x2="32.882"/>
      <line  fill="none" stroke="#FFFFFF" stroke-linecap="round" y1="24.661" stroke-width="0.576" x1="32.882" y2="24.661" x2="32.032"/>
      <line  fill="none" stroke="#FFFFFF" stroke-linecap="round" y1="32.031" stroke-width="0.576" x1="24.662" y2="32.031" x2="23.811"/>
      <line  fill="none" stroke="#FFFFFF" stroke-linecap="round" y1="32.031" stroke-width="0.576" x1="23.811" y2="24.661" x2="23.811"/>
      <line  fill="none" stroke="#FFFFFF" stroke-linecap="round" y1="24.661" stroke-width="0.576" x1="23.811" y2="24.661" x2="24.662"/>
      <line  fill="none" stroke="#FFFFFF" stroke-linecap="round" y1="23.811" stroke-width="0.576" x1="28.346" y2="23.244" x2="28.346"/>
     </g>
    </g>
    <g >
     <title >element:R1</title>
     <g >
      <title >package:0402-RES</title>
     </g>
    </g>
    <g >
     <title >element:R2</title>
     <g >
      <title >package:0402-RES</title>
     </g>
    </g>
    <g >
     <title >element:R3</title>
     <g >
      <title >package:0402-RES</title>
     </g>
    </g>
    <g >
     <title >element:U$1</title>
     <g >
      <title >package:LOGO-L</title>
     </g>
    </g>
    <g >
     <title >element:U$2</title>
     <g >
      <title >package:PETAL-NOHOLE-2SIDE</title>
     </g>
    </g>
    <g >
     <title >element:U$3</title>
     <g >
      <title >package:PETAL-NOHOLE-2SIDE</title>
     </g>
    </g>
    <g >
     <title >element:U$7</title>
     <g >
      <title >package:PETAL-SMALL-2SIDE</title>
     </g>
    </g>
    <g >
     <title >element:U$8</title>
     <g >
      <title >package:PETAL-SMALL-2SIDE</title>
     </g>
    </g>
    <g >
     <title >element:U$9</title>
     <g >
      <title >package:PETAL-SMALL-2SIDE</title>
     </g>
    </g>
    <g >
     <title >element:U$10</title>
     <g >
      <title >package:PETAL-SMALL-2SIDE</title>
     </g>
    </g>
   </g>
   <g >
    <title >layer 1</title>
    <g >
     <title >element:D1</title>
     <g >
      <title >package:LED-TRICOLOR-SMD</title>
     </g>
    </g>
    <g >
     <title >element:R1</title>
     <g >
      <title >package:0402-RES</title>
     </g>
    </g>
    <g >
     <title >element:R2</title>
     <g >
      <title >package:0402-RES</title>
     </g>
    </g>
    <g >
     <title >element:R3</title>
     <g >
      <title >package:0402-RES</title>
     </g>
    </g>
    <g >
     <title >element:U$1</title>
     <g >
      <title >package:LOGO-L</title>
     </g>
    </g>
    <g >
     <title >element:U$2</title>
     <g >
      <title >package:PETAL-NOHOLE-2SIDE</title>
      <title >polygon</title>
     </g>
    </g>
    <g >
     <title >element:U$3</title>
     <g >
      <title >package:PETAL-NOHOLE-2SIDE</title>
      <title >polygon</title>
     </g>
    </g>
    <g >
     <title >element:U$7</title>
     <g >
      <title >package:PETAL-SMALL-2SIDE</title>
      <title >polygon</title>
     </g>
    </g>
    <g >
     <title >element:U$8</title>
     <g >
      <title >package:PETAL-SMALL-2SIDE</title>
      <title >polygon</title>
     </g>
    </g>
    <g >
     <title >element:U$9</title>
     <g >
      <title >package:PETAL-SMALL-2SIDE</title>
      <title >polygon</title>
     </g>
    </g>
    <g >
     <title >element:U$10</title>
     <g >
      <title >package:PETAL-SMALL-2SIDE</title>
      <title >polygon</title>
     </g>
    </g>
   </g>
   <g >
    <path  fill="#FFFFFF" d="M41.621,12.701C41.621,12.701,41.621,12.701,41.621,12.701c0.005,0.026,0.013,0.051,0.025,0.075c0,0,0,0,0,0c0.005,0.01,0.01,0.02,0.017,0.029c0.021,0.032,0.047,0.059,0.076,0.08c0.032,0.022,0.069,0.039,0.11,0.046l1.169,0.227l1.106,0.384l1.041,0.537l0.954,0.68l0.847,0.808l0.724,0.92l0.586,1.014l0.435,1.087l0.276,1.139l0.112,1.165l-0.056,1.17l-0.221,1.15l-0.388,1.124c-0.002,0.005-0.003,0.01-0.005,0.015c-0.01,0.033-0.014,0.067-0.011,0.1c0.002,0.041,0.014,0.082,0.034,0.12c0.02,0.035,0.044,0.063,0.073,0.087c0,0,0,0,0,0c0.02,0.015,0.04,0.028,0.063,0.038c0.001,0,0.001,0,0.001,0c0.009,0.004,0.018,0.007,0.026,0.01c0.03,0.01,0.06,0.014,0.089,0.014c0.009,0,0.017,0,0.025-0.001c0.037-0.003,0.073-0.014,0.108-0.032c0,0,0.001,0,0.001,0h0.001c0.001-0.001,0.002-0.001,0.003-0.002l0.897-0.492c0.008-0.004,0.015-0.008,0.021-0.013c0.009-0.005,0.017-0.011,0.024-0.017l0.808-0.621c0.007-0.005,0.014-0.011,0.021-0.018c0.007-0.006,0.014-0.012,0.02-0.019l0.704-0.737c0.006-0.006,0.012-0.013,0.018-0.02c0.006-0.007,0.012-0.015,0.017-0.023l0.582-0.836c0.005-0.007,0.01-0.014,0.015-0.022c0.005-0.008,0.009-0.016,0.013-0.024l0.448-0.915c0.004-0.008,0.008-0.017,0.011-0.025s0.006-0.017,0.009-0.025l0.304-0.973c0.003-0.007,0.005-0.015,0.007-0.023c0.002-0.01,0.004-0.021,0.006-0.03l0.149-1.007c0.001-0.009,0.003-0.018,0.003-0.027c0.001-0.009,0.001-0.018,0.001-0.027l-0.005-1.018c0-0.009,0-0.019-0.001-0.028c-0.001-0.009-0.002-0.018-0.004-0.027l-0.161-1.005c-0.001-0.009-0.003-0.019-0.005-0.028c-0.003-0.008-0.005-0.017-0.008-0.024l-0.312-0.97c-0.002-0.009-0.006-0.018-0.01-0.027c-0.003-0.008-0.007-0.016-0.011-0.023l-0.457-0.911c-0.004-0.007-0.007-0.013-0.011-0.02c-0.001,0-0.001,0-0.001,0c-0.003-0.005-0.006-0.011-0.01-0.016l-0.561-0.852c-0.004-0.007-0.009-0.013-0.014-0.02c-0.006-0.008-0.013-0.016-0.02-0.023l-0.682-0.755c-0.007-0.008-0.015-0.015-0.021-0.022c-0.006-0.005-0.013-0.011-0.019-0.016l-0.791-0.642c-0.007-0.006-0.015-0.011-0.021-0.017c-0.008-0.005-0.016-0.01-0.023-0.015l-0.88-0.514c-0.007-0.004-0.015-0.008-0.021-0.012c-0.009-0.004-0.019-0.008-0.027-0.012l-0.947-0.373c-0.008-0.003-0.017-0.006-0.025-0.009c-0.009-0.002-0.018-0.005-0.026-0.007l-0.994-0.224c-0.009-0.002-0.018-0.004-0.026-0.005c-0.009-0.001-0.019-0.002-0.027-0.003l-1.016-0.07c-0.009,0-0.017-0.001-0.025-0.001c-0.001,0-0.02,0-0.03,0.001l-1.014,0.087c-0.009,0.001-0.018,0.002-0.026,0.003s-0.019,0.003-0.027,0.005l-0.99,0.241c-0.008,0.002-0.017,0.004-0.025,0.007s-0.018,0.006-0.025,0.01l-0.942,0.389c-0.008,0.003-0.016,0.006-0.023,0.01c-0.009,0.004-0.018,0.009-0.025,0.015l-0.873,0.531c-0.002,0.001-0.003,0.002-0.005,0.003c0,0-0.001,0-0.001,0c-0.033,0.021-0.062,0.048-0.083,0.08c-0.021,0.03-0.036,0.064-0.044,0.102c0,0,0,0,0,0v0c-0.002,0.009-0.004,0.018-0.005,0.026v0c0,0,0,0,0,0c0,0,0,0,0,0C41.615,12.645,41.616,12.673,41.621,12.701C41.621,12.701,41.621,12.701,41.621,12.701z"/>
    <path  fill="#FFFFFF" d="M15.07,12.588C15.07,12.588,15.07,12.588,15.07,12.588c-0.008-0.039-0.024-0.074-0.046-0.105c-0.02-0.028-0.045-0.053-0.075-0.073c0,0,0,0,0,0c-0.004-0.002-0.008-0.005-0.012-0.007l-0.873-0.53c-0.008-0.005-0.017-0.01-0.025-0.015c-0.008-0.004-0.016-0.007-0.024-0.01l-0.941-0.389c-0.009-0.004-0.018-0.007-0.027-0.01c-0.008-0.002-0.017-0.005-0.025-0.007l-0.99-0.241c-0.009-0.002-0.018-0.004-0.027-0.005c-0.009-0.001-0.018-0.002-0.027-0.003l-1.014-0.087c-0.009-0.001-0.019-0.001-0.028-0.001c-0.002,0.002-0.018,0-0.027,0.001l-1.016,0.07c-0.009,0-0.019,0.001-0.028,0.002c-0.009,0.001-0.018,0.003-0.026,0.005l-0.994,0.224c-0.009,0.002-0.018,0.004-0.026,0.007c-0.009,0.003-0.018,0.006-0.026,0.009l-0.947,0.373c-0.009,0.003-0.017,0.007-0.025,0.011c-0.008,0.004-0.016,0.008-0.024,0.013l-0.88,0.515c-0.006,0.003-0.012,0.007-0.019,0.012c-0.009,0.006-0.018,0.012-0.026,0.02l-0.79,0.642c-0.007,0.005-0.014,0.011-0.021,0.018c-0.006,0.006-0.013,0.013-0.019,0.02L5.36,13.8c-0.006,0.006-0.013,0.014-0.018,0.021s-0.011,0.014-0.015,0.021l-0.561,0.852c-0.003,0.005-0.007,0.01-0.01,0.016c-0.004,0.007-0.007,0.014-0.011,0.021l-0.458,0.911c-0.004,0.007-0.008,0.016-0.011,0.023c-0.004,0.009-0.007,0.018-0.01,0.027l-0.312,0.969c-0.003,0.008-0.005,0.017-0.007,0.025c-0.002,0.009-0.004,0.018-0.005,0.027l-0.162,1.005c-0.001,0.009-0.002,0.018-0.003,0.027c0,0.009-0.001,0.019-0.001,0.028l-0.005,1.018c0,0.009,0,0.018,0.001,0.027c0,0.009,0.001,0.018,0.003,0.027l0.15,1.007c0.001,0.01,0.003,0.02,0.005,0.03c0.002,0.008,0.004,0.016,0.007,0.023l0.304,0.973c0.002,0.008,0.005,0.017,0.008,0.024c0.003,0.009,0.007,0.018,0.012,0.026l0.447,0.914c0.004,0.009,0.009,0.017,0.014,0.025c0.004,0.007,0.009,0.015,0.014,0.021l0.582,0.837c0.005,0.007,0.01,0.014,0.015,0.02c0.006,0.008,0.013,0.015,0.02,0.022l0.704,0.736c0.006,0.007,0.013,0.014,0.021,0.021c0.006,0.006,0.013,0.011,0.02,0.016l0.807,0.621c0.007,0.006,0.014,0.011,0.021,0.016c0.008,0.005,0.016,0.01,0.024,0.014l0.896,0.491c0.004,0.002,0.008,0.004,0.012,0.006c0.033,0.017,0.068,0.026,0.103,0.029c0.008,0,0.017,0.001,0.025,0.001c0.029,0,0.058-0.004,0.087-0.014c0,0,0,0,0,0c0,0,0,0,0,0c0.009-0.003,0.018-0.006,0.027-0.01c0,0,0,0,0,0h0c0.023-0.01,0.044-0.023,0.063-0.038c0.001,0,0-0.001,0.001,0c0.029-0.023,0.054-0.052,0.072-0.087c0.021-0.037,0.032-0.077,0.035-0.116c0.003-0.035-0.001-0.072-0.012-0.107c0,0,0,0,0,0c-0.001-0.003-0.002-0.006-0.003-0.01l-0.388-1.125l-0.221-1.15l-0.056-1.17l0.112-1.165l0.276-1.139l0.435-1.087l0.586-1.014l0.724-0.92l0.847-0.808l0.954-0.68l1.041-0.537l1.107-0.384l1.169-0.227c0.042-0.008,0.08-0.024,0.112-0.048c0.031-0.022,0.059-0.051,0.08-0.085c0.021-0.034,0.034-0.071,0.039-0.108c0,0,0,0,0,0c0.003-0.023,0.004-0.047,0.001-0.071c0,0,0,0,0,0C15.074,12.609,15.073,12.598,15.07,12.588L15.07,12.588z"/>
    <path  fill="#FFFFFF" d="M15.074,44.004c-0.005-0.037-0.018-0.075-0.039-0.109c-0.022-0.036-0.051-0.066-0.084-0.089c-0.029-0.02-0.063-0.035-0.1-0.043c0,0,0,0,0,0h0c-0.002-0.001-0.005-0.001-0.007-0.002l-1.168-0.227l-1.106-0.384l-1.041-0.536l-0.954-0.681l-2.295,0.091l-0.724-0.921L6.969,40.09l-0.435-1.087l1.171-2.036l-0.112-1.166l0.056-1.17l0.221-1.15l0.389-1.125c0-0.002,0.001-0.004,0.002-0.007c0.012-0.036,0.016-0.074,0.013-0.11c-0.003-0.039-0.014-0.079-0.035-0.116c-0.02-0.036-0.046-0.066-0.077-0.09c0,0,0,0,0,0c0,0,0,0,0-0.001h0c-0.015-0.012-0.032-0.021-0.049-0.03c0,0,0,0,0,0c0,0,0,0,0,0c-0.013-0.006-0.026-0.012-0.04-0.016c-0.037-0.012-0.073-0.017-0.11-0.012c-0.037,0.003-0.074,0.014-0.108,0.032c0,0,0,0,0,0c-0.002,0.001-0.003,0.002-0.005,0.003L6.95,32.5c-0.009,0.005-0.019,0.01-0.027,0.016c-0.006,0.005-0.013,0.009-0.019,0.014L6.097,33.15c-0.007,0.006-0.015,0.012-0.022,0.018c-0.006,0.006-0.013,0.013-0.019,0.019l-0.704,0.736c-0.007,0.007-0.013,0.015-0.02,0.022c-0.005,0.006-0.01,0.014-0.015,0.021l-0.582,0.836c-0.005,0.008-0.011,0.016-0.015,0.023c-0.005,0.008-0.009,0.016-0.012,0.023l-0.448,0.915c-0.004,0.008-0.008,0.016-0.011,0.024c-0.003,0.008-0.006,0.017-0.009,0.025l-0.304,0.973c-0.003,0.009-0.005,0.017-0.007,0.025c-0.002,0.01-0.004,0.019-0.005,0.028l-0.15,1.007c-0.001,0.008-0.002,0.016-0.003,0.023c-0.001,0.011-0.001,0.021-0.001,0.03l0.005,1.019c0,0.009,0,0.019,0.001,0.027c0.001,0.009,0.002,0.019,0.003,0.027l0.162,1.005c0.001,0.01,0.003,0.019,0.005,0.028c0.002,0.008,0.004,0.017,0.007,0.024l0.312,0.97c0.003,0.009,0.006,0.019,0.01,0.027c0.003,0.008,0.007,0.016,0.011,0.023l0.458,0.91c0.003,0.007,0.007,0.014,0.011,0.021c0.003,0.006,0.006,0.011,0.01,0.016l0.561,0.854c0.004,0.007,0.009,0.013,0.014,0.02c0.006,0.009,0.013,0.017,0.02,0.023l0.683,0.755c0.006,0.007,0.013,0.014,0.02,0.021c0.007,0.006,0.013,0.012,0.02,0.017l0.79,0.642c0.007,0.007,0.015,0.013,0.023,0.018c0.007,0.005,0.015,0.01,0.022,0.014l0.88,0.515c0.008,0.005,0.016,0.009,0.024,0.013s0.017,0.008,0.025,0.011l0.947,0.373c0.008,0.004,0.017,0.007,0.026,0.01s0.018,0.005,0.026,0.007l0.994,0.225c0.018,0.004,0.036,0.006,0.054,0.008l1.016,0.068c0.008,0.001,0.016,0.001,0.024,0.001c0.009,0,0.019-0.001,0.03-0.002l1.014-0.086c0.009,0,0.019-0.001,0.028-0.003c0.008-0.002,0.017-0.003,0.025-0.006l0.991-0.24c0.008-0.002,0.016-0.004,0.024-0.007c0.009-0.003,0.018-0.007,0.027-0.01l0.942-0.389c0.008-0.004,0.015-0.007,0.023-0.011c0.009-0.004,0.018-0.009,0.026-0.015l0.874-0.531c0.036-0.021,0.066-0.051,0.088-0.083c0.021-0.03,0.036-0.065,0.044-0.104c0-0.001,0-0.001,0-0.002c0.001-0.008,0.003-0.017,0.004-0.024c0-0.001,0-0.001,0-0.001c0-0.001,0-0.001,0-0.001C15.078,44.052,15.077,44.027,15.074,44.004C15.074,44.004,15.074,44.004,15.074,44.004z"/>
    <path  fill="#FFFFFF" d="M52.918,37.845l-0.15-1.006c-0.001-0.01-0.003-0.019-0.005-0.028c-0.002-0.009-0.004-0.017-0.007-0.025l-0.304-0.973c-0.003-0.009-0.006-0.018-0.009-0.026c-0.004-0.008-0.007-0.016-0.011-0.023l-0.448-0.915c-0.004-0.008-0.008-0.016-0.012-0.022c-0.005-0.009-0.01-0.017-0.016-0.024l-0.582-0.836c-0.005-0.008-0.011-0.016-0.018-0.023c-0.005-0.007-0.011-0.013-0.017-0.02l-0.704-0.736c-0.006-0.006-0.011-0.012-0.017-0.017c-0.008-0.007-0.016-0.014-0.024-0.02l-0.807-0.621c-0.007-0.005-0.014-0.01-0.021-0.015c-0.008-0.006-0.017-0.011-0.024-0.015l-0.896-0.491c-0.003-0.002-0.007-0.004-0.011-0.006c-0.033-0.017-0.068-0.026-0.104-0.029c-0.039-0.003-0.079,0.001-0.118,0.015c-0.001,0-0.001,0-0.001,0c-0.001,0-0.001,0-0.001,0.001h-0.001c-0.001,0-0.001,0-0.001,0c-0.001,0.001-0.002,0.001-0.004,0.001c-0.001,0.001-0.002,0.001-0.003,0.002h-0.001h-0.001c0,0.001,0,0.001-0.001,0.001c-0.029,0.012-0.056,0.027-0.079,0.047c0,0.001,0,0.001,0,0.001H48.52c-0.026,0.022-0.049,0.05-0.066,0.081c-0.021,0.039-0.032,0.079-0.034,0.12c-0.003,0.033,0.001,0.067,0.012,0.102c0.001,0.004,0.002,0.009,0.004,0.013l0.388,1.124l0.221,1.15l0.056,1.17l-0.112,1.166l0.717,2.036l-0.435,1.087l-0.586,1.014l-0.724,0.921l-1.84-0.091l-0.954,0.681l-1.041,0.536l-1.106,0.384L41.85,43.76c-0.003,0.002-0.007,0.003-0.007,0.002c-0.039,0.008-0.074,0.023-0.104,0.045c-0.031,0.021-0.058,0.05-0.079,0.084c0,0-0.001,0-0.001,0.001c-0.003,0.006-0.007,0.011-0.01,0.017c0,0.001,0,0.001,0,0.001c-0.015,0.026-0.023,0.055-0.028,0.083c0,0.001-0.001,0.001-0.001,0.001c-0.004,0.027-0.005,0.056-0.002,0.085c0,0,0,0,0,0.001c0.001,0.008,0.003,0.015,0.004,0.021c0,0.001,0,0.001,0,0.002c0.009,0.039,0.024,0.075,0.046,0.105s0.048,0.056,0.08,0.077h0.001c0.002,0.002,0.005,0.003,0.007,0.005l0.873,0.53c0.009,0.005,0.017,0.01,0.025,0.015c0.008,0.004,0.016,0.007,0.023,0.011l0.942,0.389c0.008,0.003,0.017,0.007,0.025,0.009c0.008,0.003,0.017,0.006,0.025,0.008l0.99,0.24c0.009,0.003,0.018,0.004,0.026,0.006s0.019,0.003,0.028,0.003l1.014,0.086c0.01,0.001,0.023,0.002,0.029,0.002c0.009,0,0.017,0,0.024-0.001l1.017-0.068c0.019-0.002,0.037-0.005,0.054-0.008l0.994-0.225c0.009-0.002,0.018-0.004,0.026-0.007s0.017-0.006,0.025-0.01l0.947-0.373c0.009-0.003,0.018-0.007,0.026-0.011c0.008-0.004,0.016-0.008,0.022-0.013l0.88-0.515c0.009-0.004,0.017-0.01,0.025-0.016c0.007-0.005,0.013-0.01,0.02-0.015l0.791-0.643c0.007-0.006,0.015-0.012,0.021-0.019c0.006-0.006,0.012-0.012,0.018-0.019l0.683-0.755c0.007-0.007,0.013-0.015,0.019-0.022c0.006-0.007,0.011-0.014,0.015-0.021l0.561-0.854c0.004-0.005,0.007-0.01,0.01-0.015c0.004-0.007,0.008-0.015,0.012-0.021l0.457-0.91c0.004-0.008,0.008-0.016,0.011-0.023c0.004-0.009,0.008-0.018,0.01-0.027l0.312-0.97c0.003-0.008,0.005-0.016,0.008-0.024c0.002-0.01,0.004-0.019,0.005-0.028l0.161-1.005c0.002-0.009,0.003-0.018,0.004-0.026c0.001-0.01,0.001-0.019,0.001-0.028l0.005-1.019c0-0.009,0-0.018-0.001-0.026C52.921,37.864,52.919,37.855,52.918,37.845z"/>
    <path  fill="#FFFFFF" d="M35.436,47.869c-0.002-0.037-0.011-0.071-0.025-0.103c-0.017-0.037-0.041-0.07-0.073-0.099c-0.029-0.025-0.063-0.045-0.1-0.056c0-0.001,0-0.001-0.001-0.001c0,0,0,0-0.001,0c-0.021-0.007-0.042-0.011-0.064-0.013c0,0,0,0-0.001,0c0,0,0,0-0.001,0c-0.014-0.003-0.024-0.003-0.037,0c-0.037,0.002-0.072,0.011-0.104,0.026c-0.036,0.017-0.069,0.04-0.097,0.072l-0.78,0.899l-0.886,0.767l-0.985,0.632l-1.065,0.486l-0.989,1.718l-1.158,0.166h-1.172l-1.158-0.166l-1.258-1.718l-1.066-0.486l-0.985-0.632l-0.886-0.767l-0.78-0.899c-0.028-0.032-0.062-0.058-0.099-0.074c-0.031-0.014-0.066-0.022-0.102-0.024c0,0,0,0,0,0c-0.005-0.001-0.011-0.001-0.017-0.001c-0.007,0-0.01,0.005-0.022,0.001c0,0,0,0,0,0c-0.022,0.002-0.044,0.006-0.064,0.013c0,0-0.001,0-0.001,0c0,0,0,0-0.001,0.001c-0.036,0.011-0.069,0.03-0.1,0.056c-0.033,0.029-0.058,0.063-0.074,0.101c-0.014,0.031-0.022,0.064-0.024,0.101c0,0.004,0,0.008,0,0.012l-0.023,1.022c0,0.009,0,0.017,0,0.025c0,0.01,0.001,0.02,0.003,0.029l0.134,1.01c0.001,0.009,0.002,0.019,0.004,0.027s0.004,0.018,0.007,0.025l0.286,0.977c0.002,0.01,0.005,0.02,0.009,0.028c0.003,0.008,0.006,0.016,0.01,0.023l0.432,0.922c0.004,0.009,0.008,0.017,0.013,0.024c0.004,0.009,0.009,0.016,0.015,0.023l0.568,0.845c0.006,0.009,0.012,0.017,0.019,0.025c0.005,0.006,0.01,0.012,0.015,0.018l0.692,0.748c0.006,0.007,0.012,0.014,0.019,0.02c0.006,0.006,0.013,0.012,0.021,0.018l0.796,0.634c0.007,0.007,0.016,0.013,0.024,0.018c0.007,0.005,0.014,0.01,0.021,0.014l0.885,0.505c0.007,0.004,0.015,0.008,0.023,0.012s0.017,0.008,0.026,0.011l0.951,0.364c0.008,0.003,0.016,0.006,0.025,0.009c0.009,0.002,0.018,0.005,0.027,0.006l0.995,0.214c0.01,0.002,0.02,0.004,0.029,0.006c0.008,0.001,0.017,0.001,0.025,0.002l1.018,0.059c0.007,0.001,0.022,0,0.021,0.001c0,0,0,0,0,0c0.007,0,0.014,0,0.021-0.001l1.018-0.059c0.008-0.001,0.017-0.001,0.024-0.002c0.011-0.002,0.021-0.004,0.029-0.006l0.996-0.214c0.009-0.001,0.018-0.004,0.026-0.006c0.009-0.003,0.018-0.006,0.025-0.009l0.951-0.364c0.009-0.003,0.018-0.006,0.026-0.011c0.008-0.004,0.016-0.008,0.023-0.012l0.885-0.505c0.007-0.004,0.014-0.009,0.021-0.013c0.009-0.006,0.017-0.012,0.024-0.019l0.797-0.634c0.007-0.006,0.014-0.012,0.021-0.018s0.013-0.013,0.019-0.02l0.691-0.748c0.006-0.006,0.011-0.012,0.016-0.018c0.007-0.008,0.013-0.017,0.019-0.025l0.568-0.845c0.005-0.008,0.01-0.015,0.015-0.023c0.004-0.008,0.008-0.016,0.012-0.024l0.433-0.922c0.004-0.008,0.007-0.016,0.011-0.024c0.003-0.009,0.006-0.018,0.008-0.026l0.288-0.978c0.002-0.008,0.004-0.016,0.006-0.024c0.002-0.01,0.004-0.02,0.005-0.029l0.134-1.009c0.001-0.009,0.002-0.019,0.003-0.028c0-0.009,0-0.018,0-0.026l-0.023-1.022C35.437,47.877,35.437,47.873,35.436,47.869z"/>
    <path  fill="#FFFFFF" d="M35.324,6.726c-0.001-0.01-0.003-0.019-0.005-0.028c-0.002-0.009-0.004-0.017-0.007-0.025l-0.287-0.978c-0.002-0.009-0.005-0.018-0.008-0.026c-0.004-0.008-0.007-0.017-0.011-0.024l-0.433-0.922c-0.003-0.008-0.008-0.016-0.012-0.024c-0.005-0.008-0.01-0.016-0.015-0.023L33.979,3.83c-0.006-0.008-0.011-0.016-0.017-0.023c-0.006-0.007-0.012-0.013-0.018-0.02l-0.691-0.748c-0.006-0.007-0.014-0.015-0.021-0.021c-0.007-0.005-0.013-0.011-0.019-0.016l-0.797-0.634c-0.008-0.006-0.016-0.012-0.023-0.018c-0.008-0.004-0.015-0.009-0.021-0.013l-0.885-0.505c-0.008-0.004-0.016-0.009-0.023-0.012c-0.009-0.004-0.018-0.008-0.026-0.011l-0.951-0.363c-0.008-0.003-0.017-0.006-0.024-0.009c-0.01-0.003-0.019-0.005-0.027-0.007l-0.996-0.213c-0.009-0.002-0.019-0.004-0.028-0.005c-0.009-0.001-0.017-0.002-0.025-0.002L28.367,1.15c-0.007-0.001-0.02-0.005-0.021-0.001c0-0.005-0.014,0-0.021,0.001l-1.018,0.059c-0.008,0-0.017,0.001-0.025,0.002c-0.01,0.001-0.02,0.003-0.029,0.005L26.258,1.43c-0.009,0.002-0.018,0.004-0.027,0.007c-0.008,0.002-0.017,0.005-0.025,0.009l-0.952,0.363c-0.009,0.003-0.017,0.007-0.026,0.011c-0.008,0.003-0.016,0.008-0.023,0.012L24.32,2.337c-0.007,0.004-0.014,0.008-0.021,0.013c-0.008,0.005-0.016,0.012-0.024,0.018l-0.797,0.635c-0.006,0.004-0.012,0.01-0.018,0.015c-0.007,0.007-0.015,0.014-0.021,0.021l-0.691,0.748c-0.006,0.006-0.012,0.013-0.017,0.02c-0.006,0.007-0.012,0.015-0.017,0.023l-0.568,0.845c-0.005,0.007-0.01,0.015-0.015,0.023c-0.005,0.008-0.009,0.016-0.013,0.024l-0.432,0.923c-0.003,0.007-0.007,0.015-0.01,0.022c-0.004,0.009-0.007,0.019-0.009,0.028l-0.286,0.977c-0.002,0.008-0.005,0.017-0.006,0.025c-0.002,0.009-0.004,0.019-0.005,0.028l-0.134,1.009c-0.001,0.01-0.002,0.02-0.003,0.03c0,0.008,0,0.017,0,0.024l0.023,1.023c0,0.004,0,0.008,0,0.012v0c0.002,0.037,0.011,0.071,0.025,0.103c0.017,0.036,0.041,0.07,0.073,0.098c0.03,0.026,0.064,0.044,0.1,0.056c0.002,0,0.001,0,0.002,0c0.021,0.007,0.042,0.011,0.064,0.013c0,0,0,0,0,0c0,0,0,0,0.001,0c0.013,0.001,0.024,0.002,0.038,0c0.037-0.002,0.073-0.011,0.105-0.026c0.036-0.017,0.068-0.041,0.096-0.072l0.78-0.9l0.886-0.767l0.985-0.632l1.066-0.486l1.124-2.114l1.158-0.166h1.172l1.158,0.166l1.124,2.114l1.065,0.486l0.985,0.632l0.886,0.767l0.78,0.9c0.028,0.032,0.062,0.057,0.099,0.073c0.031,0.014,0.065,0.023,0.103,0.025c0.006,0,0.011,0,0.017,0c0.008,0,0.022-0.002,0.021-0.001c0.001,0,0.001,0,0.001,0c0.022-0.001,0.044-0.006,0.064-0.013c0.001,0,0.001,0,0.001,0c0.001,0,0.001,0,0.001,0c0.036-0.012,0.07-0.03,0.1-0.056c0.033-0.029,0.059-0.063,0.075-0.101c0.014-0.031,0.021-0.064,0.023-0.1v0c0.001-0.004,0.001-0.008,0.001-0.012l0.023-1.022c0-0.009,0-0.018,0-0.027c-0.001-0.009-0.002-0.019-0.003-0.028L35.324,6.726z"/>
   </g>
   <rect  width="9.07" x="23.811" y="23.244" fill="#FFFFFF" height="8.787" fill-opacity="0.15"/>
   <rect  width="1.151" x="16.716" y="33.717" fill="#FFFFFF" height="2.016" fill-opacity="0.15"/>
   <rect  width="1.152" x="27.77" y="40.094" fill="#FFFFFF" height="2.016" fill-opacity="0.15"/>
   <rect  width="1.151" x="38.826" y="33.717" fill="#FFFFFF" height="2.016" fill-opacity="0.15"/>
   <g  id="connector10pin">
    <path  fill="#9A916C" d="M9.915,36.605c1.322,0,2.398,1.075,2.398,2.397S11.237,41.4,9.915,41.4c-1.323,0-2.399-1.075-2.399-2.397S8.592,36.605,9.915,36.605 M9.915,35.165c-2.12,0-3.839,1.718-3.839,3.838c0,2.119,1.719,3.838,3.839,3.838c2.119,0,3.838-1.719,3.838-3.838C13.753,36.883,12.034,35.165,9.915,35.165L9.915,35.165z"/>
   </g>
   <g  id="connector11pin">
    <path  fill="#9A916C" d="M46.778,36.605c1.322,0,2.398,1.075,2.398,2.397S48.1,41.4,46.778,41.4s-2.397-1.075-2.397-2.397S45.456,36.605,46.778,36.605 M46.778,35.165c-2.119,0-3.838,1.718-3.838,3.838c0,2.119,1.719,3.838,3.838,3.838c2.12,0,3.839-1.719,3.839-3.838C50.617,36.883,48.898,35.165,46.778,35.165L46.778,35.165z"/>
   </g>
   <g  id="connector12pin">
    <path  fill="#9A916C" d="M28.346,47.189c1.322,0,2.397,1.075,2.397,2.397s-1.075,2.397-2.397,2.397s-2.398-1.075-2.398-2.397S27.024,47.189,28.346,47.189 M28.346,45.749c-2.12,0-3.838,1.718-3.838,3.838c0,2.119,1.718,3.838,3.838,3.838s3.838-1.719,3.838-3.838C32.184,47.467,30.467,45.749,28.346,45.749L28.346,45.749z"/>
   </g>
   <g  id="connector13pin">
    <path  fill="#9A916C" d="M28.346,4.708c1.322,0,2.397,1.076,2.397,2.398s-1.075,2.398-2.397,2.398s-2.398-1.076-2.398-2.398S27.024,4.708,28.346,4.708 M28.346,3.268c-2.12,0-3.838,1.719-3.838,3.838c0,2.12,1.718,3.838,3.838,3.838s3.838-1.718,3.838-3.838C32.184,4.987,30.467,3.268,28.346,3.268L28.346,3.268z"/>
   </g>
  </g>
 </g>
</svg>
