<svg xmlns="http://www.w3.org/2000/svg" width="1.1in" height="1.1in" viewBox="0 0 1100 1100" >
<path id="boardoutline" stroke-width="0" stroke="none" fill="#338040" fill-opacity="1" d="M0,0L1100,0 1100,1100 0,1100z
M82.5,100a17.5,17.5 0 1 0 35,0 17.5,17.5 0 1 0 -35,0z
M182.5,100a17.5,17.5 0 1 0 35,0 17.5,17.5 0 1 0 -35,0z
M282.5,100a17.5,17.5 0 1 0 35,0 17.5,17.5 0 1 0 -35,0z
M382.5,100a17.5,17.5 0 1 0 35,0 17.5,17.5 0 1 0 -35,0z
M482.5,100a17.5,17.5 0 1 0 35,0 17.5,17.5 0 1 0 -35,0z
M582.5,100a17.5,17.5 0 1 0 35,0 17.5,17.5 0 1 0 -35,0z
M682.5,100a17.5,17.5 0 1 0 35,0 17.5,17.5 0 1 0 -35,0z
M782.5,100a17.5,17.5 0 1 0 35,0 17.5,17.5 0 1 0 -35,0z
M882.5,100a17.5,17.5 0 1 0 35,0 17.5,17.5 0 1 0 -35,0z
M982.5,100a17.5,17.5 0 1 0 35,0 17.5,17.5 0 1 0 -35,0z
M82.5,200a17.5,17.5 0 1 0 35,0 17.5,17.5 0 1 0 -35,0z
M182.5,200a17.5,17.5 0 1 0 35,0 17.5,17.5 0 1 0 -35,0z
M282.5,200a17.5,17.5 0 1 0 35,0 17.5,17.5 0 1 0 -35,0z
M382.5,200a17.5,17.5 0 1 0 35,0 17.5,17.5 0 1 0 -35,0z
M482.5,200a17.5,17.5 0 1 0 35,0 17.5,17.5 0 1 0 -35,0z
M582.5,200a17.5,17.5 0 1 0 35,0 17.5,17.5 0 1 0 -35,0z
M682.5,200a17.5,17.5 0 1 0 35,0 17.5,17.5 0 1 0 -35,0z
M782.5,200a17.5,17.5 0 1 0 35,0 17.5,17.5 0 1 0 -35,0z
M882.5,200a17.5,17.5 0 1 0 35,0 17.5,17.5 0 1 0 -35,0z
M982.5,200a17.5,17.5 0 1 0 35,0 17.5,17.5 0 1 0 -35,0z
M82.5,300a17.5,17.5 0 1 0 35,0 17.5,17.5 0 1 0 -35,0z
M182.5,300a17.5,17.5 0 1 0 35,0 17.5,17.5 0 1 0 -35,0z
M282.5,300a17.5,17.5 0 1 0 35,0 17.5,17.5 0 1 0 -35,0z
M382.5,300a17.5,17.5 0 1 0 35,0 17.5,17.5 0 1 0 -35,0z
M482.5,300a17.5,17.5 0 1 0 35,0 17.5,17.5 0 1 0 -35,0z
M582.5,300a17.5,17.5 0 1 0 35,0 17.5,17.5 0 1 0 -35,0z
M682.5,300a17.5,17.5 0 1 0 35,0 17.5,17.5 0 1 0 -35,0z
M782.5,300a17.5,17.5 0 1 0 35,0 17.5,17.5 0 1 0 -35,0z
M882.5,300a17.5,17.5 0 1 0 35,0 17.5,17.5 0 1 0 -35,0z
M982.5,300a17.5,17.5 0 1 0 35,0 17.5,17.5 0 1 0 -35,0z
M82.5,400a17.5,17.5 0 1 0 35,0 17.5,17.5 0 1 0 -35,0z
M182.5,400a17.5,17.5 0 1 0 35,0 17.5,17.5 0 1 0 -35,0z
M282.5,400a17.5,17.5 0 1 0 35,0 17.5,17.5 0 1 0 -35,0z
M382.5,400a17.5,17.5 0 1 0 35,0 17.5,17.5 0 1 0 -35,0z
M482.5,400a17.5,17.5 0 1 0 35,0 17.5,17.5 0 1 0 -35,0z
M582.5,400a17.5,17.5 0 1 0 35,0 17.5,17.5 0 1 0 -35,0z
M682.5,400a17.5,17.5 0 1 0 35,0 17.5,17.5 0 1 0 -35,0z
M782.5,400a17.5,17.5 0 1 0 35,0 17.5,17.5 0 1 0 -35,0z
M882.5,400a17.5,17.5 0 1 0 35,0 17.5,17.5 0 1 0 -35,0z
M982.5,400a17.5,17.5 0 1 0 35,0 17.5,17.5 0 1 0 -35,0z
M82.5,500a17.5,17.5 0 1 0 35,0 17.5,17.5 0 1 0 -35,0z
M182.5,500a17.5,17.5 0 1 0 35,0 17.5,17.5 0 1 0 -35,0z
M282.5,500a17.5,17.5 0 1 0 35,0 17.5,17.5 0 1 0 -35,0z
M382.5,500a17.5,17.5 0 1 0 35,0 17.5,17.5 0 1 0 -35,0z
M482.5,500a17.5,17.5 0 1 0 35,0 17.5,17.5 0 1 0 -35,0z
M582.5,500a17.5,17.5 0 1 0 35,0 17.5,17.5 0 1 0 -35,0z
M682.5,500a17.5,17.5 0 1 0 35,0 17.5,17.5 0 1 0 -35,0z
M782.5,500a17.5,17.5 0 1 0 35,0 17.5,17.5 0 1 0 -35,0z
M882.5,500a17.5,17.5 0 1 0 35,0 17.5,17.5 0 1 0 -35,0z
M982.5,500a17.5,17.5 0 1 0 35,0 17.5,17.5 0 1 0 -35,0z
M82.5,600a17.5,17.5 0 1 0 35,0 17.5,17.5 0 1 0 -35,0z
M182.5,600a17.5,17.5 0 1 0 35,0 17.5,17.5 0 1 0 -35,0z
M282.5,600a17.5,17.5 0 1 0 35,0 17.5,17.5 0 1 0 -35,0z
M382.5,600a17.5,17.5 0 1 0 35,0 17.5,17.5 0 1 0 -35,0z
M482.5,600a17.5,17.5 0 1 0 35,0 17.5,17.5 0 1 0 -35,0z
M582.5,600a17.5,17.5 0 1 0 35,0 17.5,17.5 0 1 0 -35,0z
M682.5,600a17.5,17.5 0 1 0 35,0 17.5,17.5 0 1 0 -35,0z
M782.5,600a17.5,17.5 0 1 0 35,0 17.5,17.5 0 1 0 -35,0z
M882.5,600a17.5,17.5 0 1 0 35,0 17.5,17.5 0 1 0 -35,0z
M982.5,600a17.5,17.5 0 1 0 35,0 17.5,17.5 0 1 0 -35,0z
M82.5,700a17.5,17.5 0 1 0 35,0 17.5,17.5 0 1 0 -35,0z
M182.5,700a17.5,17.5 0 1 0 35,0 17.5,17.5 0 1 0 -35,0z
M282.5,700a17.5,17.5 0 1 0 35,0 17.5,17.5 0 1 0 -35,0z
M382.5,700a17.5,17.5 0 1 0 35,0 17.5,17.5 0 1 0 -35,0z
M482.5,700a17.5,17.5 0 1 0 35,0 17.5,17.5 0 1 0 -35,0z
M582.5,700a17.5,17.5 0 1 0 35,0 17.5,17.5 0 1 0 -35,0z
M682.5,700a17.5,17.5 0 1 0 35,0 17.5,17.5 0 1 0 -35,0z
M782.5,700a17.5,17.5 0 1 0 35,0 17.5,17.5 0 1 0 -35,0z
M882.5,700a17.5,17.5 0 1 0 35,0 17.5,17.5 0 1 0 -35,0z
M982.5,700a17.5,17.5 0 1 0 35,0 17.5,17.5 0 1 0 -35,0z
M82.5,800a17.5,17.5 0 1 0 35,0 17.5,17.5 0 1 0 -35,0z
M182.5,800a17.5,17.5 0 1 0 35,0 17.5,17.5 0 1 0 -35,0z
M282.5,800a17.5,17.5 0 1 0 35,0 17.5,17.5 0 1 0 -35,0z
M382.5,800a17.5,17.5 0 1 0 35,0 17.5,17.5 0 1 0 -35,0z
M482.5,800a17.5,17.5 0 1 0 35,0 17.5,17.5 0 1 0 -35,0z
M582.5,800a17.5,17.5 0 1 0 35,0 17.5,17.5 0 1 0 -35,0z
M682.5,800a17.5,17.5 0 1 0 35,0 17.5,17.5 0 1 0 -35,0z
M782.5,800a17.5,17.5 0 1 0 35,0 17.5,17.5 0 1 0 -35,0z
M882.5,800a17.5,17.5 0 1 0 35,0 17.5,17.5 0 1 0 -35,0z
M982.5,800a17.5,17.5 0 1 0 35,0 17.5,17.5 0 1 0 -35,0z
M82.5,900a17.5,17.5 0 1 0 35,0 17.5,17.5 0 1 0 -35,0z
M182.5,900a17.5,17.5 0 1 0 35,0 17.5,17.5 0 1 0 -35,0z
M282.5,900a17.5,17.5 0 1 0 35,0 17.5,17.5 0 1 0 -35,0z
M382.5,900a17.5,17.5 0 1 0 35,0 17.5,17.5 0 1 0 -35,0z
M482.5,900a17.5,17.5 0 1 0 35,0 17.5,17.5 0 1 0 -35,0z
M582.5,900a17.5,17.5 0 1 0 35,0 17.5,17.5 0 1 0 -35,0z
M682.5,900a17.5,17.5 0 1 0 35,0 17.5,17.5 0 1 0 -35,0z
M782.5,900a17.5,17.5 0 1 0 35,0 17.5,17.5 0 1 0 -35,0z
M882.5,900a17.5,17.5 0 1 0 35,0 17.5,17.5 0 1 0 -35,0z
M982.5,900a17.5,17.5 0 1 0 35,0 17.5,17.5 0 1 0 -35,0z
M82.5,1000a17.5,17.5 0 1 0 35,0 17.5,17.5 0 1 0 -35,0z
M182.5,1000a17.5,17.5 0 1 0 35,0 17.5,17.5 0 1 0 -35,0z
M282.5,1000a17.5,17.5 0 1 0 35,0 17.5,17.5 0 1 0 -35,0z
M382.5,1000a17.5,17.5 0 1 0 35,0 17.5,17.5 0 1 0 -35,0z
M482.5,1000a17.5,17.5 0 1 0 35,0 17.5,17.5 0 1 0 -35,0z
M582.5,1000a17.5,17.5 0 1 0 35,0 17.5,17.5 0 1 0 -35,0z
M682.5,1000a17.5,17.5 0 1 0 35,0 17.5,17.5 0 1 0 -35,0z
M782.5,1000a17.5,17.5 0 1 0 35,0 17.5,17.5 0 1 0 -35,0z
M882.5,1000a17.5,17.5 0 1 0 35,0 17.5,17.5 0 1 0 -35,0z
M982.5,1000a17.5,17.5 0 1 0 35,0 17.5,17.5 0 1 0 -35,0z
" /> 
<path stroke-width="8" stroke="#338040" fill="none" stroke-opacity="1" d="M4,4L1092,4 1092,1092 4,1092z" /> 
<circle fill="none" cx="100" cy="100" connectorname="0.0" stroke="#9A916C" r="27.5" id="connector0pin" stroke-width="20"/>
<circle fill="none" cx="200" cy="100" connectorname="1.0" stroke="#9A916C" r="27.5" id="connector1pin" stroke-width="20"/>
<circle fill="none" cx="300" cy="100" connectorname="2.0" stroke="#9A916C" r="27.5" id="connector2pin" stroke-width="20"/>
<circle fill="none" cx="400" cy="100" connectorname="3.0" stroke="#9A916C" r="27.5" id="connector3pin" stroke-width="20"/>
<circle fill="none" cx="500" cy="100" connectorname="4.0" stroke="#9A916C" r="27.5" id="connector4pin" stroke-width="20"/>
<circle fill="none" cx="600" cy="100" connectorname="5.0" stroke="#9A916C" r="27.5" id="connector5pin" stroke-width="20"/>
<circle fill="none" cx="700" cy="100" connectorname="6.0" stroke="#9A916C" r="27.5" id="connector6pin" stroke-width="20"/>
<circle fill="none" cx="800" cy="100" connectorname="7.0" stroke="#9A916C" r="27.5" id="connector7pin" stroke-width="20"/>
<circle fill="none" cx="900" cy="100" connectorname="8.0" stroke="#9A916C" r="27.5" id="connector8pin" stroke-width="20"/>
<circle fill="none" cx="1000" cy="100" connectorname="9.0" stroke="#9A916C" r="27.5" id="connector9pin" stroke-width="20"/>
<circle fill="none" cx="100" cy="200" connectorname="0.1" stroke="#9A916C" r="27.5" id="connector200pin" stroke-width="20"/>
<circle fill="none" cx="200" cy="200" connectorname="1.1" stroke="#9A916C" r="27.5" id="connector201pin" stroke-width="20"/>
<circle fill="none" cx="300" cy="200" connectorname="2.1" stroke="#9A916C" r="27.5" id="connector202pin" stroke-width="20"/>
<circle fill="none" cx="400" cy="200" connectorname="3.1" stroke="#9A916C" r="27.5" id="connector203pin" stroke-width="20"/>
<circle fill="none" cx="500" cy="200" connectorname="4.1" stroke="#9A916C" r="27.5" id="connector204pin" stroke-width="20"/>
<circle fill="none" cx="600" cy="200" connectorname="5.1" stroke="#9A916C" r="27.5" id="connector205pin" stroke-width="20"/>
<circle fill="none" cx="700" cy="200" connectorname="6.1" stroke="#9A916C" r="27.5" id="connector206pin" stroke-width="20"/>
<circle fill="none" cx="800" cy="200" connectorname="7.1" stroke="#9A916C" r="27.5" id="connector207pin" stroke-width="20"/>
<circle fill="none" cx="900" cy="200" connectorname="8.1" stroke="#9A916C" r="27.5" id="connector208pin" stroke-width="20"/>
<circle fill="none" cx="1000" cy="200" connectorname="9.1" stroke="#9A916C" r="27.5" id="connector209pin" stroke-width="20"/>
<circle fill="none" cx="100" cy="300" connectorname="0.2" stroke="#9A916C" r="27.5" id="connector400pin" stroke-width="20"/>
<circle fill="none" cx="200" cy="300" connectorname="1.2" stroke="#9A916C" r="27.5" id="connector401pin" stroke-width="20"/>
<circle fill="none" cx="300" cy="300" connectorname="2.2" stroke="#9A916C" r="27.5" id="connector402pin" stroke-width="20"/>
<circle fill="none" cx="400" cy="300" connectorname="3.2" stroke="#9A916C" r="27.5" id="connector403pin" stroke-width="20"/>
<circle fill="none" cx="500" cy="300" connectorname="4.2" stroke="#9A916C" r="27.5" id="connector404pin" stroke-width="20"/>
<circle fill="none" cx="600" cy="300" connectorname="5.2" stroke="#9A916C" r="27.5" id="connector405pin" stroke-width="20"/>
<circle fill="none" cx="700" cy="300" connectorname="6.2" stroke="#9A916C" r="27.5" id="connector406pin" stroke-width="20"/>
<circle fill="none" cx="800" cy="300" connectorname="7.2" stroke="#9A916C" r="27.5" id="connector407pin" stroke-width="20"/>
<circle fill="none" cx="900" cy="300" connectorname="8.2" stroke="#9A916C" r="27.5" id="connector408pin" stroke-width="20"/>
<circle fill="none" cx="1000" cy="300" connectorname="9.2" stroke="#9A916C" r="27.5" id="connector409pin" stroke-width="20"/>
<circle fill="none" cx="100" cy="400" connectorname="0.3" stroke="#9A916C" r="27.5" id="connector600pin" stroke-width="20"/>
<circle fill="none" cx="200" cy="400" connectorname="1.3" stroke="#9A916C" r="27.5" id="connector601pin" stroke-width="20"/>
<circle fill="none" cx="300" cy="400" connectorname="2.3" stroke="#9A916C" r="27.5" id="connector602pin" stroke-width="20"/>
<circle fill="none" cx="400" cy="400" connectorname="3.3" stroke="#9A916C" r="27.5" id="connector603pin" stroke-width="20"/>
<circle fill="none" cx="500" cy="400" connectorname="4.3" stroke="#9A916C" r="27.5" id="connector604pin" stroke-width="20"/>
<circle fill="none" cx="600" cy="400" connectorname="5.3" stroke="#9A916C" r="27.5" id="connector605pin" stroke-width="20"/>
<circle fill="none" cx="700" cy="400" connectorname="6.3" stroke="#9A916C" r="27.5" id="connector606pin" stroke-width="20"/>
<circle fill="none" cx="800" cy="400" connectorname="7.3" stroke="#9A916C" r="27.5" id="connector607pin" stroke-width="20"/>
<circle fill="none" cx="900" cy="400" connectorname="8.3" stroke="#9A916C" r="27.5" id="connector608pin" stroke-width="20"/>
<circle fill="none" cx="1000" cy="400" connectorname="9.3" stroke="#9A916C" r="27.5" id="connector609pin" stroke-width="20"/>
<circle fill="none" cx="100" cy="500" connectorname="0.4" stroke="#9A916C" r="27.5" id="connector800pin" stroke-width="20"/>
<circle fill="none" cx="200" cy="500" connectorname="1.4" stroke="#9A916C" r="27.5" id="connector801pin" stroke-width="20"/>
<circle fill="none" cx="300" cy="500" connectorname="2.4" stroke="#9A916C" r="27.5" id="connector802pin" stroke-width="20"/>
<circle fill="none" cx="400" cy="500" connectorname="3.4" stroke="#9A916C" r="27.5" id="connector803pin" stroke-width="20"/>
<circle fill="none" cx="500" cy="500" connectorname="4.4" stroke="#9A916C" r="27.5" id="connector804pin" stroke-width="20"/>
<circle fill="none" cx="600" cy="500" connectorname="5.4" stroke="#9A916C" r="27.5" id="connector805pin" stroke-width="20"/>
<circle fill="none" cx="700" cy="500" connectorname="6.4" stroke="#9A916C" r="27.5" id="connector806pin" stroke-width="20"/>
<circle fill="none" cx="800" cy="500" connectorname="7.4" stroke="#9A916C" r="27.5" id="connector807pin" stroke-width="20"/>
<circle fill="none" cx="900" cy="500" connectorname="8.4" stroke="#9A916C" r="27.5" id="connector808pin" stroke-width="20"/>
<circle fill="none" cx="1000" cy="500" connectorname="9.4" stroke="#9A916C" r="27.5" id="connector809pin" stroke-width="20"/>
<circle fill="none" cx="100" cy="600" connectorname="0.5" stroke="#9A916C" r="27.5" id="connector1000pin" stroke-width="20"/>
<circle fill="none" cx="200" cy="600" connectorname="1.5" stroke="#9A916C" r="27.5" id="connector1001pin" stroke-width="20"/>
<circle fill="none" cx="300" cy="600" connectorname="2.5" stroke="#9A916C" r="27.5" id="connector1002pin" stroke-width="20"/>
<circle fill="none" cx="400" cy="600" connectorname="3.5" stroke="#9A916C" r="27.5" id="connector1003pin" stroke-width="20"/>
<circle fill="none" cx="500" cy="600" connectorname="4.5" stroke="#9A916C" r="27.5" id="connector1004pin" stroke-width="20"/>
<circle fill="none" cx="600" cy="600" connectorname="5.5" stroke="#9A916C" r="27.5" id="connector1005pin" stroke-width="20"/>
<circle fill="none" cx="700" cy="600" connectorname="6.5" stroke="#9A916C" r="27.5" id="connector1006pin" stroke-width="20"/>
<circle fill="none" cx="800" cy="600" connectorname="7.5" stroke="#9A916C" r="27.5" id="connector1007pin" stroke-width="20"/>
<circle fill="none" cx="900" cy="600" connectorname="8.5" stroke="#9A916C" r="27.5" id="connector1008pin" stroke-width="20"/>
<circle fill="none" cx="1000" cy="600" connectorname="9.5" stroke="#9A916C" r="27.5" id="connector1009pin" stroke-width="20"/>
<circle fill="none" cx="100" cy="700" connectorname="0.6" stroke="#9A916C" r="27.5" id="connector1200pin" stroke-width="20"/>
<circle fill="none" cx="200" cy="700" connectorname="1.6" stroke="#9A916C" r="27.5" id="connector1201pin" stroke-width="20"/>
<circle fill="none" cx="300" cy="700" connectorname="2.6" stroke="#9A916C" r="27.5" id="connector1202pin" stroke-width="20"/>
<circle fill="none" cx="400" cy="700" connectorname="3.6" stroke="#9A916C" r="27.5" id="connector1203pin" stroke-width="20"/>
<circle fill="none" cx="500" cy="700" connectorname="4.6" stroke="#9A916C" r="27.5" id="connector1204pin" stroke-width="20"/>
<circle fill="none" cx="600" cy="700" connectorname="5.6" stroke="#9A916C" r="27.5" id="connector1205pin" stroke-width="20"/>
<circle fill="none" cx="700" cy="700" connectorname="6.6" stroke="#9A916C" r="27.5" id="connector1206pin" stroke-width="20"/>
<circle fill="none" cx="800" cy="700" connectorname="7.6" stroke="#9A916C" r="27.5" id="connector1207pin" stroke-width="20"/>
<circle fill="none" cx="900" cy="700" connectorname="8.6" stroke="#9A916C" r="27.5" id="connector1208pin" stroke-width="20"/>
<circle fill="none" cx="1000" cy="700" connectorname="9.6" stroke="#9A916C" r="27.5" id="connector1209pin" stroke-width="20"/>
<circle fill="none" cx="100" cy="800" connectorname="0.7" stroke="#9A916C" r="27.5" id="connector1400pin" stroke-width="20"/>
<circle fill="none" cx="200" cy="800" connectorname="1.7" stroke="#9A916C" r="27.5" id="connector1401pin" stroke-width="20"/>
<circle fill="none" cx="300" cy="800" connectorname="2.7" stroke="#9A916C" r="27.5" id="connector1402pin" stroke-width="20"/>
<circle fill="none" cx="400" cy="800" connectorname="3.7" stroke="#9A916C" r="27.5" id="connector1403pin" stroke-width="20"/>
<circle fill="none" cx="500" cy="800" connectorname="4.7" stroke="#9A916C" r="27.5" id="connector1404pin" stroke-width="20"/>
<circle fill="none" cx="600" cy="800" connectorname="5.7" stroke="#9A916C" r="27.5" id="connector1405pin" stroke-width="20"/>
<circle fill="none" cx="700" cy="800" connectorname="6.7" stroke="#9A916C" r="27.5" id="connector1406pin" stroke-width="20"/>
<circle fill="none" cx="800" cy="800" connectorname="7.7" stroke="#9A916C" r="27.5" id="connector1407pin" stroke-width="20"/>
<circle fill="none" cx="900" cy="800" connectorname="8.7" stroke="#9A916C" r="27.5" id="connector1408pin" stroke-width="20"/>
<circle fill="none" cx="1000" cy="800" connectorname="9.7" stroke="#9A916C" r="27.5" id="connector1409pin" stroke-width="20"/>
<circle fill="none" cx="100" cy="900" connectorname="0.8" stroke="#9A916C" r="27.5" id="connector1600pin" stroke-width="20"/>
<circle fill="none" cx="200" cy="900" connectorname="1.8" stroke="#9A916C" r="27.5" id="connector1601pin" stroke-width="20"/>
<circle fill="none" cx="300" cy="900" connectorname="2.8" stroke="#9A916C" r="27.5" id="connector1602pin" stroke-width="20"/>
<circle fill="none" cx="400" cy="900" connectorname="3.8" stroke="#9A916C" r="27.5" id="connector1603pin" stroke-width="20"/>
<circle fill="none" cx="500" cy="900" connectorname="4.8" stroke="#9A916C" r="27.5" id="connector1604pin" stroke-width="20"/>
<circle fill="none" cx="600" cy="900" connectorname="5.8" stroke="#9A916C" r="27.5" id="connector1605pin" stroke-width="20"/>
<circle fill="none" cx="700" cy="900" connectorname="6.8" stroke="#9A916C" r="27.5" id="connector1606pin" stroke-width="20"/>
<circle fill="none" cx="800" cy="900" connectorname="7.8" stroke="#9A916C" r="27.5" id="connector1607pin" stroke-width="20"/>
<circle fill="none" cx="900" cy="900" connectorname="8.8" stroke="#9A916C" r="27.5" id="connector1608pin" stroke-width="20"/>
<circle fill="none" cx="1000" cy="900" connectorname="9.8" stroke="#9A916C" r="27.5" id="connector1609pin" stroke-width="20"/>
<circle fill="none" cx="100" cy="1000" connectorname="0.9" stroke="#9A916C" r="27.5" id="connector1800pin" stroke-width="20"/>
<circle fill="none" cx="200" cy="1000" connectorname="1.9" stroke="#9A916C" r="27.5" id="connector1801pin" stroke-width="20"/>
<circle fill="none" cx="300" cy="1000" connectorname="2.9" stroke="#9A916C" r="27.5" id="connector1802pin" stroke-width="20"/>
<circle fill="none" cx="400" cy="1000" connectorname="3.9" stroke="#9A916C" r="27.5" id="connector1803pin" stroke-width="20"/>
<circle fill="none" cx="500" cy="1000" connectorname="4.9" stroke="#9A916C" r="27.5" id="connector1804pin" stroke-width="20"/>
<circle fill="none" cx="600" cy="1000" connectorname="5.9" stroke="#9A916C" r="27.5" id="connector1805pin" stroke-width="20"/>
<circle fill="none" cx="700" cy="1000" connectorname="6.9" stroke="#9A916C" r="27.5" id="connector1806pin" stroke-width="20"/>
<circle fill="none" cx="800" cy="1000" connectorname="7.9" stroke="#9A916C" r="27.5" id="connector1807pin" stroke-width="20"/>
<circle fill="none" cx="900" cy="1000" connectorname="8.9" stroke="#9A916C" r="27.5" id="connector1808pin" stroke-width="20"/>
<circle fill="none" cx="1000" cy="1000" connectorname="9.9" stroke="#9A916C" r="27.5" id="connector1809pin" stroke-width="20"/>

</svg>