<?xml version="1.0" encoding="UTF-8" standalone="no"?>
<svg
   xmlns:dc="http://purl.org/dc/elements/1.1/"
   xmlns:cc="http://creativecommons.org/ns#"
   xmlns:rdf="http://www.w3.org/1999/02/22-rdf-syntax-ns#"
   xmlns:svg="http://www.w3.org/2000/svg"
   xmlns="http://www.w3.org/2000/svg"
   xmlns:sodipodi="http://sodipodi.sourceforge.net/DTD/sodipodi-0.dtd"
   xmlns:inkscape="http://www.inkscape.org/namespaces/inkscape"
   version="1.2" baseProfile="tiny"
   width="108mm"
   height="9mm"
   id="svg2"
   sodipodi:version="0.32"
   inkscape:version="0.46"
   sodipodi:docname="ruler_cm.svg"
   inkscape:output_extension="org.inkscape.output.svg.inkscape">
  <metadata
     id="metadata619">
    <rdf:RDF>
      <cc:Work
         rdf:about="">
        <dc:format>image/svg+xml</dc:format>
        <dc:type
           rdf:resource="http://purl.org/dc/dcmitype/StillImage" />
      </cc:Work>
    </rdf:RDF>
  </metadata>
  <defs
     id="defs617">
    <inkscape:perspective
       sodipodi:type="inkscape:persp3d"
       inkscape:vp_x="0 : 41.5 : 1"
       inkscape:vp_y="0 : 1000 : 0"
       inkscape:vp_z="1754 : 41.5 : 1"
       inkscape:persp3d-origin="877 : 27.666667 : 1"
       id="perspective621" />
  </defs>
  <sodipodi:namedview
     inkscape:window-height="750"
     inkscape:window-width="1279"
     inkscape:pageshadow="2"
     inkscape:pageopacity="0.0"
     guidetolerance="10.0"
     gridtolerance="10.0"
     objecttolerance="10.0"
     borderopacity="1.0"
     bordercolor="#666666"
     pagecolor="#ffffff"
     id="base"
     showgrid="false"
     units="mm"
     inkscape:document-units="mm"
     inkscape:zoom="1.2337514"
     inkscape:cx="322.9677"
     inkscape:cy="-71.771795"
     inkscape:window-x="1"
     inkscape:window-y="49"
     inkscape:current-layer="g4"
     showguides="true"
     inkscape:guide-bbox="true" />
<g id="pcbRuler">
<g id="schematicRuler">
  <g
     transform="translate(25.101929,-14.520735)"
     style="fill:none;stroke:#000000;stroke-width:1px"
     id="breadboardRuler">
    <rect
       x="-24.793222"
       y="24.958731"
       height="8.7452049"
       style="stroke-width:0.61741269px"
       width="381.84332"
       id="rect6" />
    <rect
       x="-21.53417"
       y="26.31237"
       height="6.0379214"
       style="stroke-width:0.30415273px"
       width="374.51419"
       id="rect8" />
    <g
       id="g4519"
       transform="matrix(0.2450963,0,0,0.4185842,-9.2040726,8.4021235)">
      <line
         id="line10"
         x2="-12.158041"
         y2="15"
         x1="-12.158041"
         y1="40" />
      <line
         id="line12"
         x2="-12.158041"
         y2="85"
         x1="-12.158041"
         y1="60" />
      <text
         id="text14"
         style="stroke-width:1px"
         y="54.799999"
         x="-15.158041">0</text>
      <line
         id="line16"
         x2="-0.15804067"
         y2="66"
         x1="-0.15804067"
         y1="60" />
      <line
         id="line18"
         x2="-0.15804067"
         y2="34"
         x1="-0.15804067"
         y1="40" />
      <line
         id="line20"
         x2="11.841959"
         y2="72"
         x1="11.841959"
         y1="60" />
      <line
         id="line22"
         x2="11.841959"
         y2="34"
         x1="11.841959"
         y1="40" />
      <line
         id="line24"
         x2="23.841959"
         y2="30"
         x1="23.841959"
         y1="40" />
      <line
         id="line26"
         x2="23.841959"
         y2="66"
         x1="23.841959"
         y1="60" />
      <line
         id="line28"
         x2="35.841961"
         y2="80"
         x1="35.841961"
         y1="60" />
      <line
         id="line30"
         x2="35.841961"
         y2="34"
         x1="35.841961"
         y1="40" />
      <line
         id="line32"
         x2="47.841961"
         y2="66"
         x1="47.841961"
         y1="60" />
      <line
         id="line34"
         x2="47.841961"
         y2="34"
         x1="47.841961"
         y1="40" />
      <line
         id="line36"
         x2="59.841961"
         y2="20"
         x1="59.841961"
         y1="40" />
      <line
         id="line38"
         x2="59.841961"
         y2="70"
         x1="59.841961"
         y1="60" />
      <line
         id="line40"
         x2="71.841957"
         y2="66"
         x1="71.841957"
         y1="60" />
      <line
         id="line42"
         x2="71.841957"
         y2="34"
         x1="71.841957"
         y1="40" />
      <line
         id="line44"
         x2="83.841957"
         y2="80"
         x1="83.841957"
         y1="60" />
      <line
         id="line46"
         x2="83.841957"
         y2="34"
         x1="83.841957"
         y1="40" />
      <line
         id="line48"
         x2="95.841957"
         y2="30"
         x1="95.841957"
         y1="40" />
      <line
         id="line50"
         x2="95.841957"
         y2="66"
         x1="95.841957"
         y1="60" />
      <line
         id="line52"
         x2="107.84196"
         y2="72"
         x1="107.84196"
         y1="60" />
      <line
         id="line54"
         x2="107.84196"
         y2="34"
         x1="107.84196"
         y1="40" />
      <line
         id="line56"
         x2="119.84196"
         y2="66"
         x1="119.84196"
         y1="60" />
      <line
         id="line58"
         x2="119.84196"
         y2="34"
         x1="119.84196"
         y1="40" />
      <line
         id="line60"
         x2="131.84196"
         y2="15"
         x1="131.84196"
         y1="40" />
      <line
         id="line62"
         x2="131.84196"
         y2="85"
         x1="131.84196"
         y1="60" />
      <text
         id="text64"
         style="stroke-width:1px"
         y="54.799999"
         x="128.84196">1</text>
      <line
         id="line66"
         x2="143.84196"
         y2="66"
         x1="143.84196"
         y1="60" />
      <line
         id="line68"
         x2="143.84196"
         y2="34"
         x1="143.84196"
         y1="40" />
      <line
         id="line70"
         x2="155.84196"
         y2="72"
         x1="155.84196"
         y1="60" />
      <line
         id="line72"
         x2="155.84196"
         y2="34"
         x1="155.84196"
         y1="40" />
      <line
         id="line74"
         x2="167.84196"
         y2="30"
         x1="167.84196"
         y1="40" />
      <line
         id="line76"
         x2="167.84196"
         y2="66"
         x1="167.84196"
         y1="60" />
      <line
         id="line78"
         x2="179.84196"
         y2="80"
         x1="179.84196"
         y1="60" />
      <line
         id="line80"
         x2="179.84196"
         y2="34"
         x1="179.84196"
         y1="40" />
      <line
         id="line82"
         x2="191.84196"
         y2="66"
         x1="191.84196"
         y1="60" />
      <line
         id="line84"
         x2="191.84196"
         y2="34"
         x1="191.84196"
         y1="40" />
      <line
         id="line86"
         x2="203.84196"
         y2="20"
         x1="203.84196"
         y1="40" />
      <line
         id="line88"
         x2="203.84196"
         y2="70"
         x1="203.84196"
         y1="60" />
      <line
         id="line90"
         x2="215.84196"
         y2="66"
         x1="215.84196"
         y1="60" />
      <line
         id="line92"
         x2="215.84196"
         y2="34"
         x1="215.84196"
         y1="40" />
      <line
         id="line94"
         x2="227.84196"
         y2="80"
         x1="227.84196"
         y1="60" />
      <line
         id="line96"
         x2="227.84196"
         y2="34"
         x1="227.84196"
         y1="40" />
      <line
         id="line98"
         x2="239.84196"
         y2="30"
         x1="239.84196"
         y1="40" />
      <line
         id="line100"
         x2="239.84196"
         y2="66"
         x1="239.84196"
         y1="60" />
      <line
         id="line102"
         x2="251.84196"
         y2="72"
         x1="251.84196"
         y1="60" />
      <line
         id="line104"
         x2="251.84196"
         y2="34"
         x1="251.84196"
         y1="40" />
      <line
         id="line106"
         x2="263.84195"
         y2="66"
         x1="263.84195"
         y1="60" />
      <line
         id="line108"
         x2="263.84195"
         y2="34"
         x1="263.84195"
         y1="40" />
      <line
         id="line110"
         x2="275.84195"
         y2="15"
         x1="275.84195"
         y1="40" />
      <line
         id="line112"
         x2="275.84195"
         y2="85"
         x1="275.84195"
         y1="60" />
      <text
         id="text114"
         style="stroke-width:1px"
         y="54.799999"
         x="272.84195">2</text>
      <line
         id="line116"
         x2="287.84195"
         y2="66"
         x1="287.84195"
         y1="60" />
      <line
         id="line118"
         x2="287.84195"
         y2="34"
         x1="287.84195"
         y1="40" />
      <line
         id="line120"
         x2="299.84195"
         y2="72"
         x1="299.84195"
         y1="60" />
      <line
         id="line122"
         x2="299.84195"
         y2="34"
         x1="299.84195"
         y1="40" />
      <line
         id="line124"
         x2="311.84195"
         y2="30"
         x1="311.84195"
         y1="40" />
      <line
         id="line126"
         x2="311.84195"
         y2="66"
         x1="311.84195"
         y1="60" />
      <line
         id="line128"
         x2="323.84195"
         y2="80"
         x1="323.84195"
         y1="60" />
      <line
         id="line130"
         x2="323.84195"
         y2="34"
         x1="323.84195"
         y1="40" />
      <line
         id="line132"
         x2="335.84195"
         y2="66"
         x1="335.84195"
         y1="60" />
      <line
         id="line134"
         x2="335.84195"
         y2="34"
         x1="335.84195"
         y1="40" />
      <line
         id="line136"
         x2="347.84195"
         y2="20"
         x1="347.84195"
         y1="40" />
      <line
         id="line138"
         x2="347.84195"
         y2="70"
         x1="347.84195"
         y1="60" />
      <line
         id="line140"
         x2="359.84195"
         y2="66"
         x1="359.84195"
         y1="60" />
      <line
         id="line142"
         x2="359.84195"
         y2="34"
         x1="359.84195"
         y1="40" />
      <line
         id="line144"
         x2="371.84195"
         y2="80"
         x1="371.84195"
         y1="60" />
      <line
         id="line146"
         x2="371.84195"
         y2="34"
         x1="371.84195"
         y1="40" />
      <line
         id="line148"
         x2="383.84195"
         y2="30"
         x1="383.84195"
         y1="40" />
      <line
         id="line150"
         x2="383.84195"
         y2="66"
         x1="383.84195"
         y1="60" />
      <line
         id="line152"
         x2="395.84195"
         y2="72"
         x1="395.84195"
         y1="60" />
      <line
         id="line154"
         x2="395.84195"
         y2="34"
         x1="395.84195"
         y1="40" />
      <line
         id="line156"
         x2="407.84195"
         y2="66"
         x1="407.84195"
         y1="60" />
      <line
         id="line158"
         x2="407.84195"
         y2="34"
         x1="407.84195"
         y1="40" />
      <line
         id="line160"
         x2="419.84195"
         y2="15"
         x1="419.84195"
         y1="40" />
      <line
         id="line162"
         x2="419.84195"
         y2="85"
         x1="419.84195"
         y1="60" />
      <text
         id="text164"
         style="stroke-width:1px"
         y="54.799999"
         x="416.84195">3</text>
      <line
         id="line166"
         x2="431.84195"
         y2="66"
         x1="431.84195"
         y1="60" />
      <line
         id="line168"
         x2="431.84195"
         y2="34"
         x1="431.84195"
         y1="40" />
      <line
         id="line170"
         x2="443.84195"
         y2="72"
         x1="443.84195"
         y1="60" />
      <line
         id="line172"
         x2="443.84195"
         y2="34"
         x1="443.84195"
         y1="40" />
      <line
         id="line174"
         x2="455.84195"
         y2="30"
         x1="455.84195"
         y1="40" />
      <line
         id="line176"
         x2="455.84195"
         y2="66"
         x1="455.84195"
         y1="60" />
      <line
         id="line178"
         x2="467.84195"
         y2="80"
         x1="467.84195"
         y1="60" />
      <line
         id="line180"
         x2="467.84195"
         y2="34"
         x1="467.84195"
         y1="40" />
      <line
         id="line182"
         x2="479.84195"
         y2="66"
         x1="479.84195"
         y1="60" />
      <line
         id="line184"
         x2="479.84195"
         y2="34"
         x1="479.84195"
         y1="40" />
      <line
         id="line186"
         x2="491.84195"
         y2="20"
         x1="491.84195"
         y1="40" />
      <line
         id="line188"
         x2="491.84195"
         y2="70"
         x1="491.84195"
         y1="60" />
      <line
         id="line190"
         x2="503.84195"
         y2="66"
         x1="503.84195"
         y1="60" />
      <line
         id="line192"
         x2="503.84195"
         y2="34"
         x1="503.84195"
         y1="40" />
      <line
         id="line194"
         x2="515.84198"
         y2="80"
         x1="515.84198"
         y1="60" />
      <line
         id="line196"
         x2="515.84198"
         y2="34"
         x1="515.84198"
         y1="40" />
      <line
         id="line198"
         x2="527.84198"
         y2="30"
         x1="527.84198"
         y1="40" />
      <line
         id="line200"
         x2="527.84198"
         y2="66"
         x1="527.84198"
         y1="60" />
      <line
         id="line202"
         x2="539.84198"
         y2="72"
         x1="539.84198"
         y1="60" />
      <line
         id="line204"
         x2="539.84198"
         y2="34"
         x1="539.84198"
         y1="40" />
      <line
         id="line206"
         x2="551.84198"
         y2="66"
         x1="551.84198"
         y1="60" />
      <line
         id="line208"
         x2="551.84198"
         y2="34"
         x1="551.84198"
         y1="40" />
      <line
         id="line210"
         x2="563.84198"
         y2="15"
         x1="563.84198"
         y1="40" />
      <line
         id="line212"
         x2="563.84198"
         y2="85"
         x1="563.84198"
         y1="60" />
      <text
         id="text214"
         style="stroke-width:1px"
         y="54.799999"
         x="560.84198">4</text>
      <line
         id="line216"
         x2="575.84198"
         y2="66"
         x1="575.84198"
         y1="60" />
      <line
         id="line218"
         x2="575.84198"
         y2="34"
         x1="575.84198"
         y1="40" />
      <line
         id="line220"
         x2="587.84198"
         y2="72"
         x1="587.84198"
         y1="60" />
      <line
         id="line222"
         x2="587.84198"
         y2="34"
         x1="587.84198"
         y1="40" />
      <line
         id="line224"
         x2="599.84198"
         y2="30"
         x1="599.84198"
         y1="40" />
      <line
         id="line226"
         x2="599.84198"
         y2="66"
         x1="599.84198"
         y1="60" />
      <line
         id="line228"
         x2="611.84198"
         y2="80"
         x1="611.84198"
         y1="60" />
      <line
         id="line230"
         x2="611.84198"
         y2="34"
         x1="611.84198"
         y1="40" />
      <line
         id="line232"
         x2="623.84198"
         y2="66"
         x1="623.84198"
         y1="60" />
      <line
         id="line234"
         x2="623.84198"
         y2="34"
         x1="623.84198"
         y1="40" />
      <line
         id="line236"
         x2="635.84198"
         y2="20"
         x1="635.84198"
         y1="40" />
      <line
         id="line238"
         x2="635.84198"
         y2="70"
         x1="635.84198"
         y1="60" />
      <line
         id="line240"
         x2="647.84198"
         y2="66"
         x1="647.84198"
         y1="60" />
      <line
         id="line242"
         x2="647.84198"
         y2="34"
         x1="647.84198"
         y1="40" />
      <line
         id="line244"
         x2="659.84198"
         y2="80"
         x1="659.84198"
         y1="60" />
      <line
         id="line246"
         x2="659.84198"
         y2="34"
         x1="659.84198"
         y1="40" />
      <line
         id="line248"
         x2="671.84198"
         y2="30"
         x1="671.84198"
         y1="40" />
      <line
         id="line250"
         x2="671.84198"
         y2="66"
         x1="671.84198"
         y1="60" />
      <line
         id="line252"
         x2="683.84198"
         y2="72"
         x1="683.84198"
         y1="60" />
      <line
         id="line254"
         x2="683.84198"
         y2="34"
         x1="683.84198"
         y1="40" />
      <line
         id="line256"
         x2="695.84198"
         y2="66"
         x1="695.84198"
         y1="60" />
      <line
         id="line258"
         x2="695.84198"
         y2="34"
         x1="695.84198"
         y1="40" />
      <line
         id="line260"
         x2="707.84198"
         y2="15"
         x1="707.84198"
         y1="40" />
      <line
         id="line262"
         x2="707.84198"
         y2="85"
         x1="707.84198"
         y1="60" />
      <text
         id="text264"
         style="stroke-width:1px"
         y="54.799999"
         x="704.84198">5</text>
      <line
         id="line266"
         x2="719.84198"
         y2="66"
         x1="719.84198"
         y1="60" />
      <line
         id="line268"
         x2="719.84198"
         y2="34"
         x1="719.84198"
         y1="40" />
      <line
         id="line270"
         x2="731.84198"
         y2="72"
         x1="731.84198"
         y1="60" />
      <line
         id="line272"
         x2="731.84198"
         y2="34"
         x1="731.84198"
         y1="40" />
      <line
         id="line274"
         x2="743.84198"
         y2="30"
         x1="743.84198"
         y1="40" />
      <line
         id="line276"
         x2="743.84198"
         y2="66"
         x1="743.84198"
         y1="60" />
      <line
         id="line278"
         x2="755.84198"
         y2="80"
         x1="755.84198"
         y1="60" />
      <line
         id="line280"
         x2="755.84198"
         y2="34"
         x1="755.84198"
         y1="40" />
      <line
         id="line282"
         x2="767.84198"
         y2="66"
         x1="767.84198"
         y1="60" />
      <line
         id="line284"
         x2="767.84198"
         y2="34"
         x1="767.84198"
         y1="40" />
      <line
         id="line286"
         x2="779.84198"
         y2="20"
         x1="779.84198"
         y1="40" />
      <line
         id="line288"
         x2="779.84198"
         y2="70"
         x1="779.84198"
         y1="60" />
      <line
         id="line290"
         x2="791.84198"
         y2="66"
         x1="791.84198"
         y1="60" />
      <line
         id="line292"
         x2="791.84198"
         y2="34"
         x1="791.84198"
         y1="40" />
      <line
         id="line294"
         x2="803.84198"
         y2="80"
         x1="803.84198"
         y1="60" />
      <line
         id="line296"
         x2="803.84198"
         y2="34"
         x1="803.84198"
         y1="40" />
      <line
         id="line298"
         x2="815.84198"
         y2="30"
         x1="815.84198"
         y1="40" />
      <line
         id="line300"
         x2="815.84198"
         y2="66"
         x1="815.84198"
         y1="60" />
      <line
         id="line302"
         x2="827.84198"
         y2="72"
         x1="827.84198"
         y1="60" />
      <line
         id="line304"
         x2="827.84198"
         y2="34"
         x1="827.84198"
         y1="40" />
      <line
         id="line306"
         x2="839.84198"
         y2="66"
         x1="839.84198"
         y1="60" />
      <line
         id="line308"
         x2="839.84198"
         y2="34"
         x1="839.84198"
         y1="40" />
      <line
         id="line310"
         x2="851.84198"
         y2="15"
         x1="851.84198"
         y1="40" />
      <line
         id="line312"
         x2="851.84198"
         y2="85"
         x1="851.84198"
         y1="60" />
      <text
         id="text314"
         style="stroke-width:1px"
         y="54.799999"
         x="848.84198">6</text>
      <line
         id="line316"
         x2="863.84198"
         y2="66"
         x1="863.84198"
         y1="60" />
      <line
         id="line318"
         x2="863.84198"
         y2="34"
         x1="863.84198"
         y1="40" />
      <line
         id="line320"
         x2="875.84198"
         y2="72"
         x1="875.84198"
         y1="60" />
      <line
         id="line322"
         x2="875.84198"
         y2="34"
         x1="875.84198"
         y1="40" />
      <line
         id="line324"
         x2="887.84198"
         y2="30"
         x1="887.84198"
         y1="40" />
      <line
         id="line326"
         x2="887.84198"
         y2="66"
         x1="887.84198"
         y1="60" />
      <line
         id="line328"
         x2="899.84198"
         y2="80"
         x1="899.84198"
         y1="60" />
      <line
         id="line330"
         x2="899.84198"
         y2="34"
         x1="899.84198"
         y1="40" />
      <line
         id="line332"
         x2="911.84198"
         y2="66"
         x1="911.84198"
         y1="60" />
      <line
         id="line334"
         x2="911.84198"
         y2="34"
         x1="911.84198"
         y1="40" />
      <line
         id="line336"
         x2="923.84198"
         y2="20"
         x1="923.84198"
         y1="40" />
      <line
         id="line338"
         x2="923.84198"
         y2="70"
         x1="923.84198"
         y1="60" />
      <line
         id="line340"
         x2="935.84198"
         y2="66"
         x1="935.84198"
         y1="60" />
      <line
         id="line342"
         x2="935.84198"
         y2="34"
         x1="935.84198"
         y1="40" />
      <line
         id="line344"
         x2="947.84198"
         y2="80"
         x1="947.84198"
         y1="60" />
      <line
         id="line346"
         x2="947.84198"
         y2="34"
         x1="947.84198"
         y1="40" />
      <line
         id="line348"
         x2="959.84198"
         y2="30"
         x1="959.84198"
         y1="40" />
      <line
         id="line350"
         x2="959.84198"
         y2="66"
         x1="959.84198"
         y1="60" />
      <line
         id="line352"
         x2="971.84198"
         y2="72"
         x1="971.84198"
         y1="60" />
      <line
         id="line354"
         x2="971.84198"
         y2="34"
         x1="971.84198"
         y1="40" />
      <line
         id="line356"
         x2="983.84198"
         y2="66"
         x1="983.84198"
         y1="60" />
      <line
         id="line358"
         x2="983.84198"
         y2="34"
         x1="983.84198"
         y1="40" />
      <line
         id="line360"
         x2="995.84198"
         y2="15"
         x1="995.84198"
         y1="40" />
      <line
         id="line362"
         x2="995.84198"
         y2="85"
         x1="995.84198"
         y1="60" />
      <text
         id="text364"
         style="stroke-width:1px"
         y="54.799999"
         x="992.84198">7</text>
      <line
         id="line366"
         x2="1007.842"
         y2="66"
         x1="1007.842"
         y1="60" />
      <line
         id="line368"
         x2="1007.842"
         y2="34"
         x1="1007.842"
         y1="40" />
      <line
         id="line370"
         x2="1019.842"
         y2="72"
         x1="1019.842"
         y1="60" />
      <line
         id="line372"
         x2="1019.842"
         y2="34"
         x1="1019.842"
         y1="40" />
      <line
         id="line374"
         x2="1031.8419"
         y2="30"
         x1="1031.8419"
         y1="40" />
      <line
         id="line376"
         x2="1031.8419"
         y2="66"
         x1="1031.8419"
         y1="60" />
      <line
         id="line378"
         x2="1043.8419"
         y2="80"
         x1="1043.8419"
         y1="60" />
      <line
         id="line380"
         x2="1043.8419"
         y2="34"
         x1="1043.8419"
         y1="40" />
      <line
         id="line382"
         x2="1055.8419"
         y2="66"
         x1="1055.8419"
         y1="60" />
      <line
         id="line384"
         x2="1055.8419"
         y2="34"
         x1="1055.8419"
         y1="40" />
      <line
         id="line386"
         x2="1067.8419"
         y2="20"
         x1="1067.8419"
         y1="40" />
      <line
         id="line388"
         x2="1067.8419"
         y2="70"
         x1="1067.8419"
         y1="60" />
      <line
         id="line390"
         x2="1079.8419"
         y2="66"
         x1="1079.8419"
         y1="60" />
      <line
         id="line392"
         x2="1079.8419"
         y2="34"
         x1="1079.8419"
         y1="40" />
      <line
         id="line394"
         x2="1091.8419"
         y2="80"
         x1="1091.8419"
         y1="60" />
      <line
         id="line396"
         x2="1091.8419"
         y2="34"
         x1="1091.8419"
         y1="40" />
      <line
         id="line398"
         x2="1103.8419"
         y2="30"
         x1="1103.8419"
         y1="40" />
      <line
         id="line400"
         x2="1103.8419"
         y2="66"
         x1="1103.8419"
         y1="60" />
      <line
         id="line402"
         x2="1115.8419"
         y2="72"
         x1="1115.8419"
         y1="60" />
      <line
         id="line404"
         x2="1115.8419"
         y2="34"
         x1="1115.8419"
         y1="40" />
      <line
         id="line406"
         x2="1127.8419"
         y2="66"
         x1="1127.8419"
         y1="60" />
      <line
         id="line408"
         x2="1127.8419"
         y2="34"
         x1="1127.8419"
         y1="40" />
      <line
         id="line410"
         x2="1139.8419"
         y2="15"
         x1="1139.8419"
         y1="40" />
      <line
         id="line412"
         x2="1139.8419"
         y2="85"
         x1="1139.8419"
         y1="60" />
      <text
         id="text414"
         style="stroke-width:1px"
         y="54.799999"
         x="1136.8419">8</text>
      <line
         id="line416"
         x2="1151.8419"
         y2="66"
         x1="1151.8419"
         y1="60" />
      <line
         id="line418"
         x2="1151.8419"
         y2="34"
         x1="1151.8419"
         y1="40" />
      <line
         id="line420"
         x2="1163.8419"
         y2="72"
         x1="1163.8419"
         y1="60" />
      <line
         id="line422"
         x2="1163.8419"
         y2="34"
         x1="1163.8419"
         y1="40" />
      <line
         id="line424"
         x2="1175.8419"
         y2="30"
         x1="1175.8419"
         y1="40" />
      <line
         id="line426"
         x2="1175.8419"
         y2="66"
         x1="1175.8419"
         y1="60" />
      <line
         id="line428"
         x2="1187.8419"
         y2="80"
         x1="1187.8419"
         y1="60" />
      <line
         id="line430"
         x2="1187.8419"
         y2="34"
         x1="1187.8419"
         y1="40" />
      <line
         id="line432"
         x2="1199.8419"
         y2="66"
         x1="1199.8419"
         y1="60" />
      <line
         id="line434"
         x2="1199.8419"
         y2="34"
         x1="1199.8419"
         y1="40" />
      <line
         id="line436"
         x2="1211.8419"
         y2="20"
         x1="1211.8419"
         y1="40" />
      <line
         id="line438"
         x2="1211.8419"
         y2="70"
         x1="1211.8419"
         y1="60" />
      <line
         id="line440"
         x2="1223.8419"
         y2="66"
         x1="1223.8419"
         y1="60" />
      <line
         id="line442"
         x2="1223.8419"
         y2="34"
         x1="1223.8419"
         y1="40" />
      <line
         id="line444"
         x2="1235.8419"
         y2="80"
         x1="1235.8419"
         y1="60" />
      <line
         id="line446"
         x2="1235.8419"
         y2="34"
         x1="1235.8419"
         y1="40" />
      <line
         id="line448"
         x2="1247.8419"
         y2="30"
         x1="1247.8419"
         y1="40" />
      <line
         id="line450"
         x2="1247.8419"
         y2="66"
         x1="1247.8419"
         y1="60" />
      <line
         id="line452"
         x2="1259.8419"
         y2="72"
         x1="1259.8419"
         y1="60" />
      <line
         id="line454"
         x2="1259.8419"
         y2="34"
         x1="1259.8419"
         y1="40" />
      <line
         id="line456"
         x2="1271.8419"
         y2="66"
         x1="1271.8419"
         y1="60" />
      <line
         id="line458"
         x2="1271.8419"
         y2="34"
         x1="1271.8419"
         y1="40" />
      <line
         id="line460"
         x2="1283.8419"
         y2="15"
         x1="1283.8419"
         y1="40" />
      <line
         id="line462"
         x2="1283.8419"
         y2="85"
         x1="1283.8419"
         y1="60" />
      <text
         id="text464"
         style="stroke-width:1px"
         y="54.799999"
         x="1280.8419">9</text>
      <line
         id="line466"
         x2="1295.8419"
         y2="66"
         x1="1295.8419"
         y1="60" />
      <line
         id="line468"
         x2="1295.8419"
         y2="34"
         x1="1295.8419"
         y1="40" />
      <line
         id="line470"
         x2="1307.8419"
         y2="72"
         x1="1307.8419"
         y1="60" />
      <line
         id="line472"
         x2="1307.8419"
         y2="34"
         x1="1307.8419"
         y1="40" />
      <line
         id="line474"
         x2="1319.8419"
         y2="30"
         x1="1319.8419"
         y1="40" />
      <line
         id="line476"
         x2="1319.8419"
         y2="66"
         x1="1319.8419"
         y1="60" />
      <line
         id="line478"
         x2="1331.8419"
         y2="80"
         x1="1331.8419"
         y1="60" />
      <line
         id="line480"
         x2="1331.8419"
         y2="34"
         x1="1331.8419"
         y1="40" />
      <line
         id="line482"
         x2="1343.8419"
         y2="66"
         x1="1343.8419"
         y1="60" />
      <line
         id="line484"
         x2="1343.8419"
         y2="34"
         x1="1343.8419"
         y1="40" />
      <line
         id="line486"
         x2="1355.8419"
         y2="20"
         x1="1355.8419"
         y1="40" />
      <line
         id="line488"
         x2="1355.8419"
         y2="70"
         x1="1355.8419"
         y1="60" />
      <line
         id="line490"
         x2="1367.8419"
         y2="66"
         x1="1367.8419"
         y1="60" />
      <line
         id="line492"
         x2="1367.8419"
         y2="34"
         x1="1367.8419"
         y1="40" />
      <line
         id="line494"
         x2="1379.8419"
         y2="80"
         x1="1379.8419"
         y1="60" />
      <line
         id="line496"
         x2="1379.8419"
         y2="34"
         x1="1379.8419"
         y1="40" />
      <line
         id="line498"
         x2="1391.8419"
         y2="30"
         x1="1391.8419"
         y1="40" />
      <line
         id="line500"
         x2="1391.8419"
         y2="66"
         x1="1391.8419"
         y1="60" />
      <line
         id="line502"
         x2="1403.8419"
         y2="72"
         x1="1403.8419"
         y1="60" />
      <line
         id="line504"
         x2="1403.8419"
         y2="34"
         x1="1403.8419"
         y1="40" />
      <line
         id="line506"
         x2="1415.8419"
         y2="66"
         x1="1415.8419"
         y1="60" />
      <line
         id="line508"
         x2="1415.8419"
         y2="34"
         x1="1415.8419"
         y1="40" />
      <line
         id="line610"
         x2="1427.8419"
         y2="15"
         x1="1427.8419"
         y1="40" />
      <line
         id="line612"
         x2="1427.8419"
         y2="85"
         x1="1427.8419"
         y1="60" />
      <text
         id="text614"
         style="stroke-width:1px"
         y="54.799999"
         x="1421.8419">10</text>
    </g>
  </g>
</g>
</g>
</svg>
